<?xml version="1.0" encoding="utf-8" standalone="no"?>
<!DOCTYPE svg PUBLIC "-//W3C//DTD SVG 1.1//EN"
  "http://www.w3.org/Graphics/SVG/1.1/DTD/svg11.dtd">
<!-- Created with matplotlib (http://matplotlib.org/) -->
<svg height="104pt" version="1.1" viewBox="0 0 133 104" width="133pt" xmlns="http://www.w3.org/2000/svg" xmlns:xlink="http://www.w3.org/1999/xlink">
 <defs>
  <style type="text/css">
*{stroke-linecap:butt;stroke-linejoin:round;}
  </style>
 </defs>
 <g id="figure_1">
  <g id="patch_1">
   <path d="M 0 104.56 
L 133 104.56 
L 133 0 
L 0 0 
z
" style="fill:#ffffff;"/>
  </g>
  <g id="axes_1">
   <g id="patch_2">
    <path d="M 10.7 93.86 
L 122.3 93.86 
L 122.3 10.7 
L 10.7 10.7 
z
" style="fill:#ffffff;"/>
   </g>
   <g id="patch_3">
    <path clip-path="url(#pb2e36abb94)" d="M 15.772727 87.400971 
L 16.383899 87.400971 
L 16.383899 82.591161 
L 15.772727 82.591161 
z
" style="fill:#1d1d1d;"/>
   </g>
   <g id="patch_4">
    <path clip-path="url(#pb2e36abb94)" d="M 16.282037 87.400971 
L 16.893209 87.400971 
L 16.893209 82.564379 
L 16.282037 82.564379 
z
" style="fill:#1d1d1d;"/>
   </g>
   <g id="patch_5">
    <path clip-path="url(#pb2e36abb94)" d="M 16.791347 87.400971 
L 17.402519 87.400971 
L 17.402519 82.478804 
L 16.791347 82.478804 
z
" style="fill:#1d1d1d;"/>
   </g>
   <g id="patch_6">
    <path clip-path="url(#pb2e36abb94)" d="M 17.300657 87.400971 
L 17.911829 87.400971 
L 17.911829 82.478635 
L 17.300657 82.478635 
z
" style="fill:#1d1d1d;"/>
   </g>
   <g id="patch_7">
    <path clip-path="url(#pb2e36abb94)" d="M 17.809967 87.400971 
L 18.421139 87.400971 
L 18.421139 82.353114 
L 17.809967 82.353114 
z
" style="fill:#1d1d1d;"/>
   </g>
   <g id="patch_8">
    <path clip-path="url(#pb2e36abb94)" d="M 18.319277 87.400971 
L 18.930449 87.400971 
L 18.930449 82.318356 
L 18.319277 82.318356 
z
" style="fill:#1d1d1d;"/>
   </g>
   <g id="patch_9">
    <path clip-path="url(#pb2e36abb94)" d="M 18.828587 87.400971 
L 19.439759 87.400971 
L 19.439759 82.306913 
L 18.828587 82.306913 
z
" style="fill:#1d1d1d;"/>
   </g>
   <g id="patch_10">
    <path clip-path="url(#pb2e36abb94)" d="M 19.337897 87.400971 
L 19.949069 87.400971 
L 19.949069 82.305888 
L 19.337897 82.305888 
z
" style="fill:#1d1d1d;"/>
   </g>
   <g id="patch_11">
    <path clip-path="url(#pb2e36abb94)" d="M 19.847207 87.400971 
L 20.458379 87.400971 
L 20.458379 82.268609 
L 19.847207 82.268609 
z
" style="fill:#1d1d1d;"/>
   </g>
   <g id="patch_12">
    <path clip-path="url(#pb2e36abb94)" d="M 20.356517 87.400971 
L 20.967689 87.400971 
L 20.967689 82.197611 
L 20.356517 82.197611 
z
" style="fill:#1d1d1d;"/>
   </g>
   <g id="patch_13">
    <path clip-path="url(#pb2e36abb94)" d="M 20.865827 87.400971 
L 21.476999 87.400971 
L 21.476999 82.138074 
L 20.865827 82.138074 
z
" style="fill:#1d1d1d;"/>
   </g>
   <g id="patch_14">
    <path clip-path="url(#pb2e36abb94)" d="M 21.375137 87.400971 
L 21.986309 87.400971 
L 21.986309 82.125975 
L 21.375137 82.125975 
z
" style="fill:#1d1d1d;"/>
   </g>
   <g id="patch_15">
    <path clip-path="url(#pb2e36abb94)" d="M 21.884447 87.400971 
L 22.495619 87.400971 
L 22.495619 82.082966 
L 21.884447 82.082966 
z
" style="fill:#1d1d1d;"/>
   </g>
   <g id="patch_16">
    <path clip-path="url(#pb2e36abb94)" d="M 22.393757 87.400971 
L 23.004929 87.400971 
L 23.004929 81.883994 
L 22.393757 81.883994 
z
" style="fill:#1d1d1d;"/>
   </g>
   <g id="patch_17">
    <path clip-path="url(#pb2e36abb94)" d="M 22.903067 87.400971 
L 23.514239 87.400971 
L 23.514239 81.826249 
L 22.903067 81.826249 
z
" style="fill:#1d1d1d;"/>
   </g>
   <g id="patch_18">
    <path clip-path="url(#pb2e36abb94)" d="M 23.412377 87.400971 
L 24.023549 87.400971 
L 24.023549 81.816291 
L 23.412377 81.816291 
z
" style="fill:#1d1d1d;"/>
   </g>
   <g id="patch_19">
    <path clip-path="url(#pb2e36abb94)" d="M 23.921687 87.400971 
L 24.532859 87.400971 
L 24.532859 81.744546 
L 23.921687 81.744546 
z
" style="fill:#1d1d1d;"/>
   </g>
   <g id="patch_20">
    <path clip-path="url(#pb2e36abb94)" d="M 24.430997 87.400971 
L 25.042169 87.400971 
L 25.042169 81.691587 
L 24.430997 81.691587 
z
" style="fill:#1d1d1d;"/>
   </g>
   <g id="patch_21">
    <path clip-path="url(#pb2e36abb94)" d="M 24.940307 87.400971 
L 25.551479 87.400971 
L 25.551479 81.686806 
L 24.940307 81.686806 
z
" style="fill:#1d1d1d;"/>
   </g>
   <g id="patch_22">
    <path clip-path="url(#pb2e36abb94)" d="M 25.449617 87.400971 
L 26.060789 87.400971 
L 26.060789 81.666305 
L 25.449617 81.666305 
z
" style="fill:#1d1d1d;"/>
   </g>
   <g id="patch_23">
    <path clip-path="url(#pb2e36abb94)" d="M 25.958927 87.400971 
L 26.570099 87.400971 
L 26.570099 81.59317 
L 25.958927 81.59317 
z
" style="fill:#1d1d1d;"/>
   </g>
   <g id="patch_24">
    <path clip-path="url(#pb2e36abb94)" d="M 26.468237 87.400971 
L 27.079409 87.400971 
L 27.079409 81.524793 
L 26.468237 81.524793 
z
" style="fill:#1d1d1d;"/>
   </g>
   <g id="patch_25">
    <path clip-path="url(#pb2e36abb94)" d="M 26.977547 87.400971 
L 27.588719 87.400971 
L 27.588719 81.510026 
L 26.977547 81.510026 
z
" style="fill:#1d1d1d;"/>
   </g>
   <g id="patch_26">
    <path clip-path="url(#pb2e36abb94)" d="M 27.486857 87.400971 
L 28.098028 87.400971 
L 28.098028 81.499858 
L 27.486857 81.499858 
z
" style="fill:#1d1d1d;"/>
   </g>
   <g id="patch_27">
    <path clip-path="url(#pb2e36abb94)" d="M 27.996166 87.400971 
L 28.607338 87.400971 
L 28.607338 81.457866 
L 27.996166 81.457866 
z
" style="fill:#1d1d1d;"/>
   </g>
   <g id="patch_28">
    <path clip-path="url(#pb2e36abb94)" d="M 28.505476 87.400971 
L 29.116648 87.400971 
L 29.116648 81.455705 
L 28.505476 81.455705 
z
" style="fill:#1d1d1d;"/>
   </g>
   <g id="patch_29">
    <path clip-path="url(#pb2e36abb94)" d="M 29.014786 87.400971 
L 29.625958 87.400971 
L 29.625958 81.44795 
L 29.014786 81.44795 
z
" style="fill:#1d1d1d;"/>
   </g>
   <g id="patch_30">
    <path clip-path="url(#pb2e36abb94)" d="M 29.524096 87.400971 
L 30.135268 87.400971 
L 30.135268 81.385855 
L 29.524096 81.385855 
z
" style="fill:#1d1d1d;"/>
   </g>
   <g id="patch_31">
    <path clip-path="url(#pb2e36abb94)" d="M 30.033406 87.400971 
L 30.644578 87.400971 
L 30.644578 81.362411 
L 30.033406 81.362411 
z
" style="fill:#1d1d1d;"/>
   </g>
   <g id="patch_32">
    <path clip-path="url(#pb2e36abb94)" d="M 30.542716 87.400971 
L 31.153888 87.400971 
L 31.153888 81.159448 
L 30.542716 81.159448 
z
" style="fill:#1d1d1d;"/>
   </g>
   <g id="patch_33">
    <path clip-path="url(#pb2e36abb94)" d="M 31.052026 87.400971 
L 31.663198 87.400971 
L 31.663198 81.121749 
L 31.052026 81.121749 
z
" style="fill:#1d1d1d;"/>
   </g>
   <g id="patch_34">
    <path clip-path="url(#pb2e36abb94)" d="M 31.561336 87.400971 
L 32.172508 87.400971 
L 32.172508 80.992483 
L 31.561336 80.992483 
z
" style="fill:#1d1d1d;"/>
   </g>
   <g id="patch_35">
    <path clip-path="url(#pb2e36abb94)" d="M 32.070646 87.400971 
L 32.681818 87.400971 
L 32.681818 80.635252 
L 32.070646 80.635252 
z
" style="fill:#1d1d1d;"/>
   </g>
   <g id="patch_36">
    <path clip-path="url(#pb2e36abb94)" d="M 32.579956 87.400971 
L 33.191128 87.400971 
L 33.191128 80.523307 
L 32.579956 80.523307 
z
" style="fill:#1d1d1d;"/>
   </g>
   <g id="patch_37">
    <path clip-path="url(#pb2e36abb94)" d="M 33.089266 87.400971 
L 33.700438 87.400971 
L 33.700438 80.411746 
L 33.089266 80.411746 
z
" style="fill:#1d1d1d;"/>
   </g>
   <g id="patch_38">
    <path clip-path="url(#pb2e36abb94)" d="M 33.598576 87.400971 
L 34.209748 87.400971 
L 34.209748 80.296638 
L 33.598576 80.296638 
z
" style="fill:#1d1d1d;"/>
   </g>
   <g id="patch_39">
    <path clip-path="url(#pb2e36abb94)" d="M 34.107886 87.400971 
L 34.719058 87.400971 
L 34.719058 80.166068 
L 34.107886 80.166068 
z
" style="fill:#1d1d1d;"/>
   </g>
   <g id="patch_40">
    <path clip-path="url(#pb2e36abb94)" d="M 34.617196 87.400971 
L 35.228368 87.400971 
L 35.228368 80.017239 
L 34.617196 80.017239 
z
" style="fill:#1d1d1d;"/>
   </g>
   <g id="patch_41">
    <path clip-path="url(#pb2e36abb94)" d="M 35.126506 87.400971 
L 35.737678 87.400971 
L 35.737678 79.946242 
L 35.126506 79.946242 
z
" style="fill:#1d1d1d;"/>
   </g>
   <g id="patch_42">
    <path clip-path="url(#pb2e36abb94)" d="M 35.635816 87.400971 
L 36.246988 87.400971 
L 36.246988 79.719534 
L 35.635816 79.719534 
z
" style="fill:#1d1d1d;"/>
   </g>
   <g id="patch_43">
    <path clip-path="url(#pb2e36abb94)" d="M 36.145126 87.400971 
L 36.756298 87.400971 
L 36.756298 79.665122 
L 36.145126 79.665122 
z
" style="fill:#1d1d1d;"/>
   </g>
   <g id="patch_44">
    <path clip-path="url(#pb2e36abb94)" d="M 36.654436 87.400971 
L 37.265608 87.400971 
L 37.265608 79.639311 
L 36.654436 79.639311 
z
" style="fill:#1d1d1d;"/>
   </g>
   <g id="patch_45">
    <path clip-path="url(#pb2e36abb94)" d="M 37.163746 87.400971 
L 37.774918 87.400971 
L 37.774918 79.628556 
L 37.163746 79.628556 
z
" style="fill:#1d1d1d;"/>
   </g>
   <g id="patch_46">
    <path clip-path="url(#pb2e36abb94)" d="M 37.673056 87.400971 
L 38.284228 87.400971 
L 38.284228 79.551053 
L 37.673056 79.551053 
z
" style="fill:#1d1d1d;"/>
   </g>
   <g id="patch_47">
    <path clip-path="url(#pb2e36abb94)" d="M 38.182366 87.400971 
L 38.793538 87.400971 
L 38.793538 79.495993 
L 38.182366 79.495993 
z
" style="fill:#1d1d1d;"/>
   </g>
   <g id="patch_48">
    <path clip-path="url(#pb2e36abb94)" d="M 38.691676 87.400971 
L 39.302848 87.400971 
L 39.302848 79.460532 
L 38.691676 79.460532 
z
" style="fill:#1d1d1d;"/>
   </g>
   <g id="patch_49">
    <path clip-path="url(#pb2e36abb94)" d="M 39.200986 87.400971 
L 39.812158 87.400971 
L 39.812158 79.401298 
L 39.200986 79.401298 
z
" style="fill:#1d1d1d;"/>
   </g>
   <g id="patch_50">
    <path clip-path="url(#pb2e36abb94)" d="M 39.710296 87.400971 
L 40.321468 87.400971 
L 40.321468 79.332728 
L 39.710296 79.332728 
z
" style="fill:#1d1d1d;"/>
   </g>
   <g id="patch_51">
    <path clip-path="url(#pb2e36abb94)" d="M 40.219606 87.400971 
L 40.830778 87.400971 
L 40.830778 79.199721 
L 40.219606 79.199721 
z
" style="fill:#1d1d1d;"/>
   </g>
   <g id="patch_52">
    <path clip-path="url(#pb2e36abb94)" d="M 40.728916 87.400971 
L 41.340088 87.400971 
L 41.340088 79.017365 
L 40.728916 79.017365 
z
" style="fill:#1d1d1d;"/>
   </g>
   <g id="patch_53">
    <path clip-path="url(#pb2e36abb94)" d="M 41.238226 87.400971 
L 41.849398 87.400971 
L 41.849398 78.910177 
L 41.238226 78.910177 
z
" style="fill:#1d1d1d;"/>
   </g>
   <g id="patch_54">
    <path clip-path="url(#pb2e36abb94)" d="M 41.747536 87.400971 
L 42.358708 87.400971 
L 42.358708 78.849371 
L 41.747536 78.849371 
z
" style="fill:#1d1d1d;"/>
   </g>
   <g id="patch_55">
    <path clip-path="url(#pb2e36abb94)" d="M 42.256846 87.400971 
L 42.868018 87.400971 
L 42.868018 78.718805 
L 42.256846 78.718805 
z
" style="fill:#1d1d1d;"/>
   </g>
   <g id="patch_56">
    <path clip-path="url(#pb2e36abb94)" d="M 42.766156 87.400971 
L 43.377327 87.400971 
L 43.377327 78.619666 
L 42.766156 78.619666 
z
" style="fill:#1d1d1d;"/>
   </g>
   <g id="patch_57">
    <path clip-path="url(#pb2e36abb94)" d="M 43.275465 87.400971 
L 43.886637 87.400971 
L 43.886637 78.526155 
L 43.275465 78.526155 
z
" style="fill:#1d1d1d;"/>
   </g>
   <g id="patch_58">
    <path clip-path="url(#pb2e36abb94)" d="M 43.784775 87.400971 
L 44.395947 87.400971 
L 44.395947 78.482413 
L 43.784775 78.482413 
z
" style="fill:#1d1d1d;"/>
   </g>
   <g id="patch_59">
    <path clip-path="url(#pb2e36abb94)" d="M 44.294085 87.400971 
L 44.905257 87.400971 
L 44.905257 78.091674 
L 44.294085 78.091674 
z
" style="fill:#1d1d1d;"/>
   </g>
   <g id="patch_60">
    <path clip-path="url(#pb2e36abb94)" d="M 44.803395 87.400971 
L 45.414567 87.400971 
L 45.414567 78.072268 
L 44.803395 78.072268 
z
" style="fill:#1d1d1d;"/>
   </g>
   <g id="patch_61">
    <path clip-path="url(#pb2e36abb94)" d="M 45.312705 87.400971 
L 45.923877 87.400971 
L 45.923877 78.057012 
L 45.312705 78.057012 
z
" style="fill:#1d1d1d;"/>
   </g>
   <g id="patch_62">
    <path clip-path="url(#pb2e36abb94)" d="M 45.822015 87.400971 
L 46.433187 87.400971 
L 46.433187 77.983501 
L 45.822015 77.983501 
z
" style="fill:#1d1d1d;"/>
   </g>
   <g id="patch_63">
    <path clip-path="url(#pb2e36abb94)" d="M 46.331325 87.400971 
L 46.942497 87.400971 
L 46.942497 77.976638 
L 46.331325 77.976638 
z
" style="fill:#1d1d1d;"/>
   </g>
   <g id="patch_64">
    <path clip-path="url(#pb2e36abb94)" d="M 46.840635 87.400971 
L 47.451807 87.400971 
L 47.451807 77.891633 
L 46.840635 77.891633 
z
" style="fill:#1d1d1d;"/>
   </g>
   <g id="patch_65">
    <path clip-path="url(#pb2e36abb94)" d="M 47.349945 87.400971 
L 47.961117 87.400971 
L 47.961117 77.501754 
L 47.349945 77.501754 
z
" style="fill:#1d1d1d;"/>
   </g>
   <g id="patch_66">
    <path clip-path="url(#pb2e36abb94)" d="M 47.859255 87.400971 
L 48.470427 87.400971 
L 48.470427 77.211314 
L 47.859255 77.211314 
z
" style="fill:#1d1d1d;"/>
   </g>
   <g id="patch_67">
    <path clip-path="url(#pb2e36abb94)" d="M 48.368565 87.400971 
L 48.979737 87.400971 
L 48.979737 77.170762 
L 48.368565 77.170762 
z
" style="fill:#1d1d1d;"/>
   </g>
   <g id="patch_68">
    <path clip-path="url(#pb2e36abb94)" d="M 48.877875 87.400971 
L 49.489047 87.400971 
L 49.489047 77.096607 
L 48.877875 77.096607 
z
" style="fill:#1d1d1d;"/>
   </g>
   <g id="patch_69">
    <path clip-path="url(#pb2e36abb94)" d="M 49.387185 87.400971 
L 49.998357 87.400971 
L 49.998357 77.045087 
L 49.387185 77.045087 
z
" style="fill:#1d1d1d;"/>
   </g>
   <g id="patch_70">
    <path clip-path="url(#pb2e36abb94)" d="M 49.896495 87.400971 
L 50.507667 87.400971 
L 50.507667 76.885665 
L 49.896495 76.885665 
z
" style="fill:#1d1d1d;"/>
   </g>
   <g id="patch_71">
    <path clip-path="url(#pb2e36abb94)" d="M 50.405805 87.400971 
L 51.016977 87.400971 
L 51.016977 76.876904 
L 50.405805 76.876904 
z
" style="fill:#1d1d1d;"/>
   </g>
   <g id="patch_72">
    <path clip-path="url(#pb2e36abb94)" d="M 50.915115 87.400971 
L 51.526287 87.400971 
L 51.526287 76.761863 
L 50.915115 76.761863 
z
" style="fill:#1d1d1d;"/>
   </g>
   <g id="patch_73">
    <path clip-path="url(#pb2e36abb94)" d="M 51.424425 87.400971 
L 52.035597 87.400971 
L 52.035597 76.738825 
L 51.424425 76.738825 
z
" style="fill:#1d1d1d;"/>
   </g>
   <g id="patch_74">
    <path clip-path="url(#pb2e36abb94)" d="M 51.933735 87.400971 
L 52.544907 87.400971 
L 52.544907 76.731753 
L 51.933735 76.731753 
z
" style="fill:#1d1d1d;"/>
   </g>
   <g id="patch_75">
    <path clip-path="url(#pb2e36abb94)" d="M 52.443045 87.400971 
L 53.054217 87.400971 
L 53.054217 76.612856 
L 52.443045 76.612856 
z
" style="fill:#1d1d1d;"/>
   </g>
   <g id="patch_76">
    <path clip-path="url(#pb2e36abb94)" d="M 52.952355 87.400971 
L 53.563527 87.400971 
L 53.563527 76.426581 
L 52.952355 76.426581 
z
" style="fill:#1d1d1d;"/>
   </g>
   <g id="patch_77">
    <path clip-path="url(#pb2e36abb94)" d="M 53.461665 87.400971 
L 54.072837 87.400971 
L 54.072837 75.805253 
L 53.461665 75.805253 
z
" style="fill:#1d1d1d;"/>
   </g>
   <g id="patch_78">
    <path clip-path="url(#pb2e36abb94)" d="M 53.970975 87.400971 
L 54.582147 87.400971 
L 54.582147 75.70128 
L 53.970975 75.70128 
z
" style="fill:#1d1d1d;"/>
   </g>
   <g id="patch_79">
    <path clip-path="url(#pb2e36abb94)" d="M 54.480285 87.400971 
L 55.091457 87.400971 
L 55.091457 75.202891 
L 54.480285 75.202891 
z
" style="fill:#1d1d1d;"/>
   </g>
   <g id="patch_80">
    <path clip-path="url(#pb2e36abb94)" d="M 54.989595 87.400971 
L 55.600767 87.400971 
L 55.600767 74.416757 
L 54.989595 74.416757 
z
" style="fill:#1d1d1d;"/>
   </g>
   <g id="patch_81">
    <path clip-path="url(#pb2e36abb94)" d="M 55.498905 87.400971 
L 56.110077 87.400971 
L 56.110077 74.039215 
L 55.498905 74.039215 
z
" style="fill:#1d1d1d;"/>
   </g>
   <g id="patch_82">
    <path clip-path="url(#pb2e36abb94)" d="M 56.008215 87.400971 
L 56.619387 87.400971 
L 56.619387 74.014498 
L 56.008215 74.014498 
z
" style="fill:#1d1d1d;"/>
   </g>
   <g id="patch_83">
    <path clip-path="url(#pb2e36abb94)" d="M 56.517525 87.400971 
L 57.128697 87.400971 
L 57.128697 73.333586 
L 56.517525 73.333586 
z
" style="fill:#1d1d1d;"/>
   </g>
   <g id="patch_84">
    <path clip-path="url(#pb2e36abb94)" d="M 57.026835 87.400971 
L 57.638007 87.400971 
L 57.638007 73.318555 
L 57.026835 73.318555 
z
" style="fill:#1d1d1d;"/>
   </g>
   <g id="patch_85">
    <path clip-path="url(#pb2e36abb94)" d="M 57.536145 87.400971 
L 58.147317 87.400971 
L 58.147317 72.802555 
L 57.536145 72.802555 
z
" style="fill:#1d1d1d;"/>
   </g>
   <g id="patch_86">
    <path clip-path="url(#pb2e36abb94)" d="M 58.045455 87.400971 
L 58.656627 87.400971 
L 58.656627 72.140156 
L 58.045455 72.140156 
z
" style="fill:#1d1d1d;"/>
   </g>
   <g id="patch_87">
    <path clip-path="url(#pb2e36abb94)" d="M 58.554765 87.400971 
L 59.165936 87.400971 
L 59.165936 71.874724 
L 58.554765 71.874724 
z
" style="fill:#1d1d1d;"/>
   </g>
   <g id="patch_88">
    <path clip-path="url(#pb2e36abb94)" d="M 59.064074 87.400971 
L 59.675246 87.400971 
L 59.675246 71.19701 
L 59.064074 71.19701 
z
" style="fill:#1d1d1d;"/>
   </g>
   <g id="patch_89">
    <path clip-path="url(#pb2e36abb94)" d="M 59.573384 87.400971 
L 60.184556 87.400971 
L 60.184556 71.054035 
L 59.573384 71.054035 
z
" style="fill:#1d1d1d;"/>
   </g>
   <g id="patch_90">
    <path clip-path="url(#pb2e36abb94)" d="M 60.082694 87.400971 
L 60.693866 87.400971 
L 60.693866 69.764133 
L 60.082694 69.764133 
z
" style="fill:#1d1d1d;"/>
   </g>
   <g id="patch_91">
    <path clip-path="url(#pb2e36abb94)" d="M 60.592004 87.400971 
L 61.203176 87.400971 
L 61.203176 69.742904 
L 60.592004 69.742904 
z
" style="fill:#1d1d1d;"/>
   </g>
   <g id="patch_92">
    <path clip-path="url(#pb2e36abb94)" d="M 61.101314 87.400971 
L 61.712486 87.400971 
L 61.712486 69.377257 
L 61.101314 69.377257 
z
" style="fill:#1d1d1d;"/>
   </g>
   <g id="patch_93">
    <path clip-path="url(#pb2e36abb94)" d="M 61.610624 87.400971 
L 62.221796 87.400971 
L 62.221796 67.345349 
L 61.610624 67.345349 
z
" style="fill:#1d1d1d;"/>
   </g>
   <g id="patch_94">
    <path clip-path="url(#pb2e36abb94)" d="M 62.119934 87.400971 
L 62.731106 87.400971 
L 62.731106 65.843581 
L 62.119934 65.843581 
z
" style="fill:#1d1d1d;"/>
   </g>
   <g id="patch_95">
    <path clip-path="url(#pb2e36abb94)" d="M 62.629244 87.400971 
L 63.240416 87.400971 
L 63.240416 64.851492 
L 62.629244 64.851492 
z
" style="fill:#1d1d1d;"/>
   </g>
   <g id="patch_96">
    <path clip-path="url(#pb2e36abb94)" d="M 63.138554 87.400971 
L 63.749726 87.400971 
L 63.749726 64.594107 
L 63.138554 64.594107 
z
" style="fill:#1d1d1d;"/>
   </g>
   <g id="patch_97">
    <path clip-path="url(#pb2e36abb94)" d="M 63.647864 87.400971 
L 64.259036 87.400971 
L 64.259036 58.208313 
L 63.647864 58.208313 
z
" style="fill:#1d1d1d;"/>
   </g>
   <g id="patch_98">
    <path clip-path="url(#pb2e36abb94)" d="M 64.157174 87.400971 
L 64.768346 87.400971 
L 64.768346 54.371457 
L 64.157174 54.371457 
z
" style="fill:#1d1d1d;"/>
   </g>
   <g id="patch_99">
    <path clip-path="url(#pb2e36abb94)" d="M 64.666484 87.400971 
L 65.277656 87.400971 
L 65.277656 54.171528 
L 64.666484 54.171528 
z
" style="fill:#1d1d1d;"/>
   </g>
   <g id="patch_100">
    <path clip-path="url(#pb2e36abb94)" d="M 65.175794 87.400971 
L 65.786966 87.400971 
L 65.786966 34.54105 
L 65.175794 34.54105 
z
" style="fill:#1d1d1d;"/>
   </g>
   <g id="patch_101">
    <path clip-path="url(#pb2e36abb94)" d="M 65.685104 87.400971 
L 66.296276 87.400971 
L 66.296276 9.954891 
L 65.685104 9.954891 
z
" style="fill:#1d1d1d;"/>
   </g>
   <g id="patch_102">
    <path clip-path="url(#pb2e36abb94)" d="M 66.194414 87.400971 
L 66.805586 87.400971 
L 66.805586 9.534449 
L 66.194414 9.534449 
z
" style="fill:#1d1d1d;"/>
   </g>
   <g id="patch_103">
    <path clip-path="url(#pb2e36abb94)" d="M 66.194414 87.400971 
L 66.805586 87.400971 
L 66.805586 9.534449 
L 66.194414 9.534449 
z
" style="fill:#1d1d1d;"/>
   </g>
   <g id="patch_104">
    <path clip-path="url(#pb2e36abb94)" d="M 66.703724 87.400971 
L 67.314896 87.400971 
L 67.314896 23.855053 
L 66.703724 23.855053 
z
" style="fill:#1d1d1d;"/>
   </g>
   <g id="patch_105">
    <path clip-path="url(#pb2e36abb94)" d="M 67.213034 87.400971 
L 67.824206 87.400971 
L 67.824206 24.839679 
L 67.213034 24.839679 
z
" style="fill:#1d1d1d;"/>
   </g>
   <g id="patch_106">
    <path clip-path="url(#pb2e36abb94)" d="M 67.722344 87.400971 
L 68.333516 87.400971 
L 68.333516 26.918499 
L 67.722344 26.918499 
z
" style="fill:#1d1d1d;"/>
   </g>
   <g id="patch_107">
    <path clip-path="url(#pb2e36abb94)" d="M 68.231654 87.400971 
L 68.842826 87.400971 
L 68.842826 39.093571 
L 68.231654 39.093571 
z
" style="fill:#1d1d1d;"/>
   </g>
   <g id="patch_108">
    <path clip-path="url(#pb2e36abb94)" d="M 68.740964 87.400971 
L 69.352136 87.400971 
L 69.352136 46.882169 
L 68.740964 46.882169 
z
" style="fill:#1d1d1d;"/>
   </g>
   <g id="patch_109">
    <path clip-path="url(#pb2e36abb94)" d="M 69.250274 87.400971 
L 69.861446 87.400971 
L 69.861446 51.426189 
L 69.250274 51.426189 
z
" style="fill:#1d1d1d;"/>
   </g>
   <g id="patch_110">
    <path clip-path="url(#pb2e36abb94)" d="M 69.759584 87.400971 
L 70.370756 87.400971 
L 70.370756 51.729152 
L 69.759584 51.729152 
z
" style="fill:#1d1d1d;"/>
   </g>
   <g id="patch_111">
    <path clip-path="url(#pb2e36abb94)" d="M 70.268894 87.400971 
L 70.880066 87.400971 
L 70.880066 53.82325 
L 70.268894 53.82325 
z
" style="fill:#1d1d1d;"/>
   </g>
   <g id="patch_112">
    <path clip-path="url(#pb2e36abb94)" d="M 70.778204 87.400971 
L 71.389376 87.400971 
L 71.389376 54.436073 
L 70.778204 54.436073 
z
" style="fill:#1d1d1d;"/>
   </g>
   <g id="patch_113">
    <path clip-path="url(#pb2e36abb94)" d="M 71.287514 87.400971 
L 71.898686 87.400971 
L 71.898686 55.117786 
L 71.287514 55.117786 
z
" style="fill:#1d1d1d;"/>
   </g>
   <g id="patch_114">
    <path clip-path="url(#pb2e36abb94)" d="M 71.796824 87.400971 
L 72.407996 87.400971 
L 72.407996 58.205847 
L 71.796824 58.205847 
z
" style="fill:#1d1d1d;"/>
   </g>
   <g id="patch_115">
    <path clip-path="url(#pb2e36abb94)" d="M 72.306134 87.400971 
L 72.917306 87.400971 
L 72.917306 59.563907 
L 72.306134 59.563907 
z
" style="fill:#1d1d1d;"/>
   </g>
   <g id="patch_116">
    <path clip-path="url(#pb2e36abb94)" d="M 72.815444 87.400971 
L 73.426616 87.400971 
L 73.426616 59.758821 
L 72.815444 59.758821 
z
" style="fill:#1d1d1d;"/>
   </g>
   <g id="patch_117">
    <path clip-path="url(#pb2e36abb94)" d="M 73.324754 87.400971 
L 73.935926 87.400971 
L 73.935926 59.876948 
L 73.324754 59.876948 
z
" style="fill:#1d1d1d;"/>
   </g>
   <g id="patch_118">
    <path clip-path="url(#pb2e36abb94)" d="M 73.834064 87.400971 
L 74.445235 87.400971 
L 74.445235 60.178865 
L 73.834064 60.178865 
z
" style="fill:#1d1d1d;"/>
   </g>
   <g id="patch_119">
    <path clip-path="url(#pb2e36abb94)" d="M 74.343373 87.400971 
L 74.954545 87.400971 
L 74.954545 60.286869 
L 74.343373 60.286869 
z
" style="fill:#1d1d1d;"/>
   </g>
   <g id="patch_120">
    <path clip-path="url(#pb2e36abb94)" d="M 74.852683 87.400971 
L 75.463855 87.400971 
L 75.463855 60.746421 
L 74.852683 60.746421 
z
" style="fill:#1d1d1d;"/>
   </g>
   <g id="patch_121">
    <path clip-path="url(#pb2e36abb94)" d="M 75.361993 87.400971 
L 75.973165 87.400971 
L 75.973165 62.402284 
L 75.361993 62.402284 
z
" style="fill:#1d1d1d;"/>
   </g>
   <g id="patch_122">
    <path clip-path="url(#pb2e36abb94)" d="M 75.871303 87.400971 
L 76.482475 87.400971 
L 76.482475 62.539545 
L 75.871303 62.539545 
z
" style="fill:#1d1d1d;"/>
   </g>
   <g id="patch_123">
    <path clip-path="url(#pb2e36abb94)" d="M 76.380613 87.400971 
L 76.991785 87.400971 
L 76.991785 63.767528 
L 76.380613 63.767528 
z
" style="fill:#1d1d1d;"/>
   </g>
   <g id="patch_124">
    <path clip-path="url(#pb2e36abb94)" d="M 76.889923 87.400971 
L 77.501095 87.400971 
L 77.501095 64.242856 
L 76.889923 64.242856 
z
" style="fill:#1d1d1d;"/>
   </g>
   <g id="patch_125">
    <path clip-path="url(#pb2e36abb94)" d="M 77.399233 87.400971 
L 78.010405 87.400971 
L 78.010405 64.635904 
L 77.399233 64.635904 
z
" style="fill:#1d1d1d;"/>
   </g>
   <g id="patch_126">
    <path clip-path="url(#pb2e36abb94)" d="M 77.908543 87.400971 
L 78.519715 87.400971 
L 78.519715 66.242252 
L 77.908543 66.242252 
z
" style="fill:#1d1d1d;"/>
   </g>
   <g id="patch_127">
    <path clip-path="url(#pb2e36abb94)" d="M 78.417853 87.400971 
L 79.029025 87.400971 
L 79.029025 67.936674 
L 78.417853 67.936674 
z
" style="fill:#1d1d1d;"/>
   </g>
   <g id="patch_128">
    <path clip-path="url(#pb2e36abb94)" d="M 78.927163 87.400971 
L 79.538335 87.400971 
L 79.538335 69.332974 
L 78.927163 69.332974 
z
" style="fill:#1d1d1d;"/>
   </g>
   <g id="patch_129">
    <path clip-path="url(#pb2e36abb94)" d="M 79.436473 87.400971 
L 80.047645 87.400971 
L 80.047645 69.811803 
L 79.436473 69.811803 
z
" style="fill:#1d1d1d;"/>
   </g>
   <g id="patch_130">
    <path clip-path="url(#pb2e36abb94)" d="M 79.945783 87.400971 
L 80.556955 87.400971 
L 80.556955 70.549459 
L 79.945783 70.549459 
z
" style="fill:#1d1d1d;"/>
   </g>
   <g id="patch_131">
    <path clip-path="url(#pb2e36abb94)" d="M 80.455093 87.400971 
L 81.066265 87.400971 
L 81.066265 70.600027 
L 80.455093 70.600027 
z
" style="fill:#1d1d1d;"/>
   </g>
   <g id="patch_132">
    <path clip-path="url(#pb2e36abb94)" d="M 80.964403 87.400971 
L 81.575575 87.400971 
L 81.575575 71.024355 
L 80.964403 71.024355 
z
" style="fill:#1d1d1d;"/>
   </g>
   <g id="patch_133">
    <path clip-path="url(#pb2e36abb94)" d="M 81.473713 87.400971 
L 82.084885 87.400971 
L 82.084885 71.640002 
L 81.473713 71.640002 
z
" style="fill:#1d1d1d;"/>
   </g>
   <g id="patch_134">
    <path clip-path="url(#pb2e36abb94)" d="M 81.983023 87.400971 
L 82.594195 87.400971 
L 82.594195 72.032124 
L 81.983023 72.032124 
z
" style="fill:#1d1d1d;"/>
   </g>
   <g id="patch_135">
    <path clip-path="url(#pb2e36abb94)" d="M 82.492333 87.400971 
L 83.103505 87.400971 
L 83.103505 72.453437 
L 82.492333 72.453437 
z
" style="fill:#1d1d1d;"/>
   </g>
   <g id="patch_136">
    <path clip-path="url(#pb2e36abb94)" d="M 83.001643 87.400971 
L 83.612815 87.400971 
L 83.612815 72.617426 
L 83.001643 72.617426 
z
" style="fill:#1d1d1d;"/>
   </g>
   <g id="patch_137">
    <path clip-path="url(#pb2e36abb94)" d="M 83.510953 87.400971 
L 84.122125 87.400971 
L 84.122125 73.041754 
L 83.510953 73.041754 
z
" style="fill:#1d1d1d;"/>
   </g>
   <g id="patch_138">
    <path clip-path="url(#pb2e36abb94)" d="M 84.020263 87.400971 
L 84.631435 87.400971 
L 84.631435 73.28133 
L 84.020263 73.28133 
z
" style="fill:#1d1d1d;"/>
   </g>
   <g id="patch_139">
    <path clip-path="url(#pb2e36abb94)" d="M 84.529573 87.400971 
L 85.140745 87.400971 
L 85.140745 73.501364 
L 84.529573 73.501364 
z
" style="fill:#1d1d1d;"/>
   </g>
   <g id="patch_140">
    <path clip-path="url(#pb2e36abb94)" d="M 85.038883 87.400971 
L 85.650055 87.400971 
L 85.650055 73.932237 
L 85.038883 73.932237 
z
" style="fill:#1d1d1d;"/>
   </g>
   <g id="patch_141">
    <path clip-path="url(#pb2e36abb94)" d="M 85.548193 87.400971 
L 86.159365 87.400971 
L 86.159365 74.034276 
L 85.548193 74.034276 
z
" style="fill:#1d1d1d;"/>
   </g>
   <g id="patch_142">
    <path clip-path="url(#pb2e36abb94)" d="M 86.057503 87.400971 
L 86.668675 87.400971 
L 86.668675 74.253982 
L 86.057503 74.253982 
z
" style="fill:#1d1d1d;"/>
   </g>
   <g id="patch_143">
    <path clip-path="url(#pb2e36abb94)" d="M 86.566813 87.400971 
L 87.177985 87.400971 
L 87.177985 75.016386 
L 86.566813 75.016386 
z
" style="fill:#1d1d1d;"/>
   </g>
   <g id="patch_144">
    <path clip-path="url(#pb2e36abb94)" d="M 87.076123 87.400971 
L 87.687295 87.400971 
L 87.687295 76.677535 
L 87.076123 76.677535 
z
" style="fill:#1d1d1d;"/>
   </g>
   <g id="patch_145">
    <path clip-path="url(#pb2e36abb94)" d="M 87.585433 87.400971 
L 88.196605 87.400971 
L 88.196605 76.906079 
L 87.585433 76.906079 
z
" style="fill:#1d1d1d;"/>
   </g>
   <g id="patch_146">
    <path clip-path="url(#pb2e36abb94)" d="M 88.094743 87.400971 
L 88.705915 87.400971 
L 88.705915 77.054849 
L 88.094743 77.054849 
z
" style="fill:#1d1d1d;"/>
   </g>
   <g id="patch_147">
    <path clip-path="url(#pb2e36abb94)" d="M 88.604053 87.400971 
L 89.215225 87.400971 
L 89.215225 77.068555 
L 88.604053 77.068555 
z
" style="fill:#1d1d1d;"/>
   </g>
   <g id="patch_148">
    <path clip-path="url(#pb2e36abb94)" d="M 89.113363 87.400971 
L 89.724535 87.400971 
L 89.724535 77.115075 
L 89.113363 77.115075 
z
" style="fill:#1d1d1d;"/>
   </g>
   <g id="patch_149">
    <path clip-path="url(#pb2e36abb94)" d="M 89.622673 87.400971 
L 90.233844 87.400971 
L 90.233844 77.422743 
L 89.622673 77.422743 
z
" style="fill:#1d1d1d;"/>
   </g>
   <g id="patch_150">
    <path clip-path="url(#pb2e36abb94)" d="M 90.131982 87.400971 
L 90.743154 87.400971 
L 90.743154 77.654449 
L 90.131982 77.654449 
z
" style="fill:#1d1d1d;"/>
   </g>
   <g id="patch_151">
    <path clip-path="url(#pb2e36abb94)" d="M 90.641292 87.400971 
L 91.252464 87.400971 
L 91.252464 77.801244 
L 90.641292 77.801244 
z
" style="fill:#1d1d1d;"/>
   </g>
   <g id="patch_152">
    <path clip-path="url(#pb2e36abb94)" d="M 91.150602 87.400971 
L 91.761774 87.400971 
L 91.761774 77.887724 
L 91.150602 77.887724 
z
" style="fill:#1d1d1d;"/>
   </g>
   <g id="patch_153">
    <path clip-path="url(#pb2e36abb94)" d="M 91.659912 87.400971 
L 92.271084 87.400971 
L 92.271084 78.061981 
L 91.659912 78.061981 
z
" style="fill:#1d1d1d;"/>
   </g>
   <g id="patch_154">
    <path clip-path="url(#pb2e36abb94)" d="M 92.169222 87.400971 
L 92.780394 87.400971 
L 92.780394 78.212234 
L 92.169222 78.212234 
z
" style="fill:#1d1d1d;"/>
   </g>
   <g id="patch_155">
    <path clip-path="url(#pb2e36abb94)" d="M 92.678532 87.400971 
L 93.289704 87.400971 
L 93.289704 78.53119 
L 92.678532 78.53119 
z
" style="fill:#1d1d1d;"/>
   </g>
   <g id="patch_156">
    <path clip-path="url(#pb2e36abb94)" d="M 93.187842 87.400971 
L 93.799014 87.400971 
L 93.799014 78.605676 
L 93.187842 78.605676 
z
" style="fill:#1d1d1d;"/>
   </g>
   <g id="patch_157">
    <path clip-path="url(#pb2e36abb94)" d="M 93.697152 87.400971 
L 94.308324 87.400971 
L 94.308324 78.719577 
L 93.697152 78.719577 
z
" style="fill:#1d1d1d;"/>
   </g>
   <g id="patch_158">
    <path clip-path="url(#pb2e36abb94)" d="M 94.206462 87.400971 
L 94.817634 87.400971 
L 94.817634 78.775057 
L 94.206462 78.775057 
z
" style="fill:#1d1d1d;"/>
   </g>
   <g id="patch_159">
    <path clip-path="url(#pb2e36abb94)" d="M 94.715772 87.400971 
L 95.326944 87.400971 
L 95.326944 78.776409 
L 94.715772 78.776409 
z
" style="fill:#1d1d1d;"/>
   </g>
   <g id="patch_160">
    <path clip-path="url(#pb2e36abb94)" d="M 95.225082 87.400971 
L 95.836254 87.400971 
L 95.836254 78.777051 
L 95.225082 78.777051 
z
" style="fill:#1d1d1d;"/>
   </g>
   <g id="patch_161">
    <path clip-path="url(#pb2e36abb94)" d="M 95.734392 87.400971 
L 96.345564 87.400971 
L 96.345564 78.848276 
L 95.734392 78.848276 
z
" style="fill:#1d1d1d;"/>
   </g>
   <g id="patch_162">
    <path clip-path="url(#pb2e36abb94)" d="M 96.243702 87.400971 
L 96.854874 87.400971 
L 96.854874 79.018547 
L 96.243702 79.018547 
z
" style="fill:#1d1d1d;"/>
   </g>
   <g id="patch_163">
    <path clip-path="url(#pb2e36abb94)" d="M 96.753012 87.400971 
L 97.364184 87.400971 
L 97.364184 79.12863 
L 96.753012 79.12863 
z
" style="fill:#1d1d1d;"/>
   </g>
   <g id="patch_164">
    <path clip-path="url(#pb2e36abb94)" d="M 97.262322 87.400971 
L 97.873494 87.400971 
L 97.873494 79.191687 
L 97.262322 79.191687 
z
" style="fill:#1d1d1d;"/>
   </g>
   <g id="patch_165">
    <path clip-path="url(#pb2e36abb94)" d="M 97.771632 87.400971 
L 98.382804 87.400971 
L 98.382804 79.218957 
L 97.771632 79.218957 
z
" style="fill:#1d1d1d;"/>
   </g>
   <g id="patch_166">
    <path clip-path="url(#pb2e36abb94)" d="M 98.280942 87.400971 
L 98.892114 87.400971 
L 98.892114 79.341609 
L 98.280942 79.341609 
z
" style="fill:#1d1d1d;"/>
   </g>
   <g id="patch_167">
    <path clip-path="url(#pb2e36abb94)" d="M 98.790252 87.400971 
L 99.401424 87.400971 
L 99.401424 79.852335 
L 98.790252 79.852335 
z
" style="fill:#1d1d1d;"/>
   </g>
   <g id="patch_168">
    <path clip-path="url(#pb2e36abb94)" d="M 99.299562 87.400971 
L 99.910734 87.400971 
L 99.910734 79.874725 
L 99.299562 79.874725 
z
" style="fill:#1d1d1d;"/>
   </g>
   <g id="patch_169">
    <path clip-path="url(#pb2e36abb94)" d="M 99.808872 87.400971 
L 100.420044 87.400971 
L 100.420044 79.876341 
L 99.808872 79.876341 
z
" style="fill:#1d1d1d;"/>
   </g>
   <g id="patch_170">
    <path clip-path="url(#pb2e36abb94)" d="M 100.318182 87.400971 
L 100.929354 87.400971 
L 100.929354 80.067749 
L 100.318182 80.067749 
z
" style="fill:#1d1d1d;"/>
   </g>
   <g id="patch_171">
    <path clip-path="url(#pb2e36abb94)" d="M 100.827492 87.400971 
L 101.438664 87.400971 
L 101.438664 80.146561 
L 100.827492 80.146561 
z
" style="fill:#1d1d1d;"/>
   </g>
   <g id="patch_172">
    <path clip-path="url(#pb2e36abb94)" d="M 101.336802 87.400971 
L 101.947974 87.400971 
L 101.947974 80.166673 
L 101.336802 80.166673 
z
" style="fill:#1d1d1d;"/>
   </g>
   <g id="patch_173">
    <path clip-path="url(#pb2e36abb94)" d="M 101.846112 87.400971 
L 102.457284 87.400971 
L 102.457284 80.273649 
L 101.846112 80.273649 
z
" style="fill:#1d1d1d;"/>
   </g>
   <g id="patch_174">
    <path clip-path="url(#pb2e36abb94)" d="M 102.355422 87.400971 
L 102.966594 87.400971 
L 102.966594 80.276759 
L 102.355422 80.276759 
z
" style="fill:#1d1d1d;"/>
   </g>
   <g id="patch_175">
    <path clip-path="url(#pb2e36abb94)" d="M 102.864732 87.400971 
L 103.475904 87.400971 
L 103.475904 80.312991 
L 102.864732 80.312991 
z
" style="fill:#1d1d1d;"/>
   </g>
   <g id="patch_176">
    <path clip-path="url(#pb2e36abb94)" d="M 103.374042 87.400971 
L 103.985214 87.400971 
L 103.985214 80.353267 
L 103.374042 80.353267 
z
" style="fill:#1d1d1d;"/>
   </g>
   <g id="patch_177">
    <path clip-path="url(#pb2e36abb94)" d="M 103.883352 87.400971 
L 104.494524 87.400971 
L 104.494524 80.411099 
L 103.883352 80.411099 
z
" style="fill:#1d1d1d;"/>
   </g>
   <g id="patch_178">
    <path clip-path="url(#pb2e36abb94)" d="M 104.392662 87.400971 
L 105.003834 87.400971 
L 105.003834 80.675796 
L 104.392662 80.675796 
z
" style="fill:#1d1d1d;"/>
   </g>
   <g id="patch_179">
    <path clip-path="url(#pb2e36abb94)" d="M 104.901972 87.400971 
L 105.513143 87.400971 
L 105.513143 80.714759 
L 104.901972 80.714759 
z
" style="fill:#1d1d1d;"/>
   </g>
   <g id="patch_180">
    <path clip-path="url(#pb2e36abb94)" d="M 105.411281 87.400971 
L 106.022453 87.400971 
L 106.022453 80.733068 
L 105.411281 80.733068 
z
" style="fill:#1d1d1d;"/>
   </g>
   <g id="patch_181">
    <path clip-path="url(#pb2e36abb94)" d="M 105.920591 87.400971 
L 106.531763 87.400971 
L 106.531763 80.831136 
L 105.920591 80.831136 
z
" style="fill:#1d1d1d;"/>
   </g>
   <g id="patch_182">
    <path clip-path="url(#pb2e36abb94)" d="M 106.429901 87.400971 
L 107.041073 87.400971 
L 107.041073 81.104617 
L 106.429901 81.104617 
z
" style="fill:#1d1d1d;"/>
   </g>
   <g id="patch_183">
    <path clip-path="url(#pb2e36abb94)" d="M 106.939211 87.400971 
L 107.550383 87.400971 
L 107.550383 81.128284 
L 106.939211 81.128284 
z
" style="fill:#1d1d1d;"/>
   </g>
   <g id="patch_184">
    <path clip-path="url(#pb2e36abb94)" d="M 107.448521 87.400971 
L 108.059693 87.400971 
L 108.059693 81.317896 
L 107.448521 81.317896 
z
" style="fill:#1d1d1d;"/>
   </g>
   <g id="patch_185">
    <path clip-path="url(#pb2e36abb94)" d="M 107.957831 87.400971 
L 108.569003 87.400971 
L 108.569003 81.349013 
L 107.957831 81.349013 
z
" style="fill:#1d1d1d;"/>
   </g>
   <g id="patch_186">
    <path clip-path="url(#pb2e36abb94)" d="M 108.467141 87.400971 
L 109.078313 87.400971 
L 109.078313 81.495707 
L 108.467141 81.495707 
z
" style="fill:#1d1d1d;"/>
   </g>
   <g id="patch_187">
    <path clip-path="url(#pb2e36abb94)" d="M 108.976451 87.400971 
L 109.587623 87.400971 
L 109.587623 81.574436 
L 108.976451 81.574436 
z
" style="fill:#1d1d1d;"/>
   </g>
   <g id="patch_188">
    <path clip-path="url(#pb2e36abb94)" d="M 109.485761 87.400971 
L 110.096933 87.400971 
L 110.096933 81.628964 
L 109.485761 81.628964 
z
" style="fill:#1d1d1d;"/>
   </g>
   <g id="patch_189">
    <path clip-path="url(#pb2e36abb94)" d="M 109.995071 87.400971 
L 110.606243 87.400971 
L 110.606243 81.774971 
L 109.995071 81.774971 
z
" style="fill:#1d1d1d;"/>
   </g>
   <g id="patch_190">
    <path clip-path="url(#pb2e36abb94)" d="M 110.504381 87.400971 
L 111.115553 87.400971 
L 111.115553 81.779479 
L 110.504381 81.779479 
z
" style="fill:#1d1d1d;"/>
   </g>
   <g id="patch_191">
    <path clip-path="url(#pb2e36abb94)" d="M 111.013691 87.400971 
L 111.624863 87.400971 
L 111.624863 81.788204 
L 111.013691 81.788204 
z
" style="fill:#1d1d1d;"/>
   </g>
   <g id="patch_192">
    <path clip-path="url(#pb2e36abb94)" d="M 111.523001 87.400971 
L 112.134173 87.400971 
L 112.134173 81.900875 
L 111.523001 81.900875 
z
" style="fill:#1d1d1d;"/>
   </g>
   <g id="patch_193">
    <path clip-path="url(#pb2e36abb94)" d="M 112.032311 87.400971 
L 112.643483 87.400971 
L 112.643483 81.91236 
L 112.032311 81.91236 
z
" style="fill:#1d1d1d;"/>
   </g>
   <g id="patch_194">
    <path clip-path="url(#pb2e36abb94)" d="M 112.541621 87.400971 
L 113.152793 87.400971 
L 113.152793 81.94061 
L 112.541621 81.94061 
z
" style="fill:#1d1d1d;"/>
   </g>
   <g id="patch_195">
    <path clip-path="url(#pb2e36abb94)" d="M 113.050931 87.400971 
L 113.662103 87.400971 
L 113.662103 82.114431 
L 113.050931 82.114431 
z
" style="fill:#1d1d1d;"/>
   </g>
   <g id="patch_196">
    <path clip-path="url(#pb2e36abb94)" d="M 113.560241 87.400971 
L 114.171413 87.400971 
L 114.171413 82.139268 
L 113.560241 82.139268 
z
" style="fill:#1d1d1d;"/>
   </g>
   <g id="patch_197">
    <path clip-path="url(#pb2e36abb94)" d="M 114.069551 87.400971 
L 114.680723 87.400971 
L 114.680723 82.217139 
L 114.069551 82.217139 
z
" style="fill:#1d1d1d;"/>
   </g>
   <g id="patch_198">
    <path clip-path="url(#pb2e36abb94)" d="M 114.578861 87.400971 
L 115.190033 87.400971 
L 115.190033 82.301288 
L 114.578861 82.301288 
z
" style="fill:#1d1d1d;"/>
   </g>
   <g id="patch_199">
    <path clip-path="url(#pb2e36abb94)" d="M 115.088171 87.400971 
L 115.699343 87.400971 
L 115.699343 82.384459 
L 115.088171 82.384459 
z
" style="fill:#1d1d1d;"/>
   </g>
   <g id="patch_200">
    <path clip-path="url(#pb2e36abb94)" d="M 115.597481 87.400971 
L 116.208653 87.400971 
L 116.208653 82.431253 
L 115.597481 82.431253 
z
" style="fill:#1d1d1d;"/>
   </g>
   <g id="patch_201">
    <path clip-path="url(#pb2e36abb94)" d="M 116.106791 87.400971 
L 116.717963 87.400971 
L 116.717963 82.433832 
L 116.106791 82.433832 
z
" style="fill:#1d1d1d;"/>
   </g>
   <g id="patch_202">
    <path clip-path="url(#pb2e36abb94)" d="M 116.616101 87.400971 
L 117.227273 87.400971 
L 117.227273 82.535917 
L 116.616101 82.535917 
z
" style="fill:#1d1d1d;"/>
   </g>
   <g id="matplotlib.axis_1"/>
   <g id="matplotlib.axis_2"/>
   <g id="patch_203">
    <path d="M 10.7 93.86 
L 10.7 10.7 
" style="fill:none;stroke:#000000;stroke-linecap:square;stroke-linejoin:miter;stroke-width:0.8;"/>
   </g>
   <g id="patch_204">
    <path d="M 122.3 93.86 
L 122.3 10.7 
" style="fill:none;stroke:#000000;stroke-linecap:square;stroke-linejoin:miter;stroke-width:0.8;"/>
   </g>
   <g id="patch_205">
    <path d="M 10.7 93.86 
L 122.3 93.86 
" style="fill:none;stroke:#000000;stroke-linecap:square;stroke-linejoin:miter;stroke-width:0.8;"/>
   </g>
   <g id="patch_206">
    <path d="M 10.7 10.7 
L 122.3 10.7 
" style="fill:none;stroke:#000000;stroke-linecap:square;stroke-linejoin:miter;stroke-width:0.8;"/>
   </g>
  </g>
 </g>
 <defs>
  <clipPath id="pb2e36abb94">
   <rect height="83.16" width="111.6" x="10.7" y="10.7"/>
  </clipPath>
 </defs>
</svg>
