<?xml version="1.0" encoding="utf-8" standalone="no"?>
<!DOCTYPE svg PUBLIC "-//W3C//DTD SVG 1.1//EN"
  "http://www.w3.org/Graphics/SVG/1.1/DTD/svg11.dtd">
<!-- Created with matplotlib (http://matplotlib.org/) -->
<svg height="104pt" version="1.1" viewBox="0 0 133 104" width="133pt" xmlns="http://www.w3.org/2000/svg" xmlns:xlink="http://www.w3.org/1999/xlink">
 <defs>
  <style type="text/css">
*{stroke-linecap:butt;stroke-linejoin:round;}
  </style>
 </defs>
 <g id="figure_1">
  <g id="patch_1">
   <path d="M 0 104.56 
L 133 104.56 
L 133 0 
L 0 0 
z
" style="fill:#ffffff;"/>
  </g>
  <g id="axes_1">
   <g id="patch_2">
    <path d="M 10.7 93.86 
L 122.3 93.86 
L 122.3 10.7 
L 10.7 10.7 
z
" style="fill:#ffffff;"/>
   </g>
   <g id="patch_3">
    <path clip-path="url(#pa177ed5346)" d="M 15.772727 87.400971 
L 16.383899 87.400971 
L 16.383899 86.433412 
L 15.772727 86.433412 
z
" style="fill:#1d1d1d;"/>
   </g>
   <g id="patch_4">
    <path clip-path="url(#pa177ed5346)" d="M 16.282037 87.400971 
L 16.893209 87.400971 
L 16.893209 86.416799 
L 16.282037 86.416799 
z
" style="fill:#1d1d1d;"/>
   </g>
   <g id="patch_5">
    <path clip-path="url(#pa177ed5346)" d="M 16.791347 87.400971 
L 17.402519 87.400971 
L 17.402519 86.410043 
L 16.791347 86.410043 
z
" style="fill:#1d1d1d;"/>
   </g>
   <g id="patch_6">
    <path clip-path="url(#pa177ed5346)" d="M 17.300657 87.400971 
L 17.911829 87.400971 
L 17.911829 86.40715 
L 17.300657 86.40715 
z
" style="fill:#1d1d1d;"/>
   </g>
   <g id="patch_7">
    <path clip-path="url(#pa177ed5346)" d="M 17.809967 87.400971 
L 18.421139 87.400971 
L 18.421139 86.401483 
L 17.809967 86.401483 
z
" style="fill:#1d1d1d;"/>
   </g>
   <g id="patch_8">
    <path clip-path="url(#pa177ed5346)" d="M 18.319277 87.400971 
L 18.930449 87.400971 
L 18.930449 86.383756 
L 18.319277 86.383756 
z
" style="fill:#1d1d1d;"/>
   </g>
   <g id="patch_9">
    <path clip-path="url(#pa177ed5346)" d="M 18.828587 87.400971 
L 19.439759 87.400971 
L 19.439759 86.378613 
L 18.828587 86.378613 
z
" style="fill:#1d1d1d;"/>
   </g>
   <g id="patch_10">
    <path clip-path="url(#pa177ed5346)" d="M 19.337897 87.400971 
L 19.949069 87.400971 
L 19.949069 86.368446 
L 19.337897 86.368446 
z
" style="fill:#1d1d1d;"/>
   </g>
   <g id="patch_11">
    <path clip-path="url(#pa177ed5346)" d="M 19.847207 87.400971 
L 20.458379 87.400971 
L 20.458379 86.357228 
L 19.847207 86.357228 
z
" style="fill:#1d1d1d;"/>
   </g>
   <g id="patch_12">
    <path clip-path="url(#pa177ed5346)" d="M 20.356517 87.400971 
L 20.967689 87.400971 
L 20.967689 86.351504 
L 20.356517 86.351504 
z
" style="fill:#1d1d1d;"/>
   </g>
   <g id="patch_13">
    <path clip-path="url(#pa177ed5346)" d="M 20.865827 87.400971 
L 21.476999 87.400971 
L 21.476999 86.335535 
L 20.865827 86.335535 
z
" style="fill:#1d1d1d;"/>
   </g>
   <g id="patch_14">
    <path clip-path="url(#pa177ed5346)" d="M 21.375137 87.400971 
L 21.986309 87.400971 
L 21.986309 86.335499 
L 21.375137 86.335499 
z
" style="fill:#1d1d1d;"/>
   </g>
   <g id="patch_15">
    <path clip-path="url(#pa177ed5346)" d="M 21.884447 87.400971 
L 22.495619 87.400971 
L 22.495619 86.333471 
L 21.884447 86.333471 
z
" style="fill:#1d1d1d;"/>
   </g>
   <g id="patch_16">
    <path clip-path="url(#pa177ed5346)" d="M 22.393757 87.400971 
L 23.004929 87.400971 
L 23.004929 86.332022 
L 22.393757 86.332022 
z
" style="fill:#1d1d1d;"/>
   </g>
   <g id="patch_17">
    <path clip-path="url(#pa177ed5346)" d="M 22.903067 87.400971 
L 23.514239 87.400971 
L 23.514239 86.33182 
L 22.903067 86.33182 
z
" style="fill:#1d1d1d;"/>
   </g>
   <g id="patch_18">
    <path clip-path="url(#pa177ed5346)" d="M 23.412377 87.400971 
L 24.023549 87.400971 
L 24.023549 86.320653 
L 23.412377 86.320653 
z
" style="fill:#1d1d1d;"/>
   </g>
   <g id="patch_19">
    <path clip-path="url(#pa177ed5346)" d="M 23.921687 87.400971 
L 24.532859 87.400971 
L 24.532859 86.308813 
L 23.921687 86.308813 
z
" style="fill:#1d1d1d;"/>
   </g>
   <g id="patch_20">
    <path clip-path="url(#pa177ed5346)" d="M 24.430997 87.400971 
L 25.042169 87.400971 
L 25.042169 86.288918 
L 24.430997 86.288918 
z
" style="fill:#1d1d1d;"/>
   </g>
   <g id="patch_21">
    <path clip-path="url(#pa177ed5346)" d="M 24.940307 87.400971 
L 25.551479 87.400971 
L 25.551479 86.266299 
L 24.940307 86.266299 
z
" style="fill:#1d1d1d;"/>
   </g>
   <g id="patch_22">
    <path clip-path="url(#pa177ed5346)" d="M 25.449617 87.400971 
L 26.060789 87.400971 
L 26.060789 86.255509 
L 25.449617 86.255509 
z
" style="fill:#1d1d1d;"/>
   </g>
   <g id="patch_23">
    <path clip-path="url(#pa177ed5346)" d="M 25.958927 87.400971 
L 26.570099 87.400971 
L 26.570099 86.246866 
L 25.958927 86.246866 
z
" style="fill:#1d1d1d;"/>
   </g>
   <g id="patch_24">
    <path clip-path="url(#pa177ed5346)" d="M 26.468237 87.400971 
L 27.079409 87.400971 
L 27.079409 86.238898 
L 26.468237 86.238898 
z
" style="fill:#1d1d1d;"/>
   </g>
   <g id="patch_25">
    <path clip-path="url(#pa177ed5346)" d="M 26.977547 87.400971 
L 27.588719 87.400971 
L 27.588719 86.230087 
L 26.977547 86.230087 
z
" style="fill:#1d1d1d;"/>
   </g>
   <g id="patch_26">
    <path clip-path="url(#pa177ed5346)" d="M 27.486857 87.400971 
L 28.098028 87.400971 
L 28.098028 86.229546 
L 27.486857 86.229546 
z
" style="fill:#1d1d1d;"/>
   </g>
   <g id="patch_27">
    <path clip-path="url(#pa177ed5346)" d="M 27.996166 87.400971 
L 28.607338 87.400971 
L 28.607338 86.224681 
L 27.996166 86.224681 
z
" style="fill:#1d1d1d;"/>
   </g>
   <g id="patch_28">
    <path clip-path="url(#pa177ed5346)" d="M 28.505476 87.400971 
L 29.116648 87.400971 
L 29.116648 86.179901 
L 28.505476 86.179901 
z
" style="fill:#1d1d1d;"/>
   </g>
   <g id="patch_29">
    <path clip-path="url(#pa177ed5346)" d="M 29.014786 87.400971 
L 29.625958 87.400971 
L 29.625958 86.178645 
L 29.014786 86.178645 
z
" style="fill:#1d1d1d;"/>
   </g>
   <g id="patch_30">
    <path clip-path="url(#pa177ed5346)" d="M 29.524096 87.400971 
L 30.135268 87.400971 
L 30.135268 86.172386 
L 29.524096 86.172386 
z
" style="fill:#1d1d1d;"/>
   </g>
   <g id="patch_31">
    <path clip-path="url(#pa177ed5346)" d="M 30.033406 87.400971 
L 30.644578 87.400971 
L 30.644578 86.171383 
L 30.033406 86.171383 
z
" style="fill:#1d1d1d;"/>
   </g>
   <g id="patch_32">
    <path clip-path="url(#pa177ed5346)" d="M 30.542716 87.400971 
L 31.153888 87.400971 
L 31.153888 86.166354 
L 30.542716 86.166354 
z
" style="fill:#1d1d1d;"/>
   </g>
   <g id="patch_33">
    <path clip-path="url(#pa177ed5346)" d="M 31.052026 87.400971 
L 31.663198 87.400971 
L 31.663198 86.16171 
L 31.052026 86.16171 
z
" style="fill:#1d1d1d;"/>
   </g>
   <g id="patch_34">
    <path clip-path="url(#pa177ed5346)" d="M 31.561336 87.400971 
L 32.172508 87.400971 
L 32.172508 86.156539 
L 31.561336 86.156539 
z
" style="fill:#1d1d1d;"/>
   </g>
   <g id="patch_35">
    <path clip-path="url(#pa177ed5346)" d="M 32.070646 87.400971 
L 32.681818 87.400971 
L 32.681818 86.144552 
L 32.070646 86.144552 
z
" style="fill:#1d1d1d;"/>
   </g>
   <g id="patch_36">
    <path clip-path="url(#pa177ed5346)" d="M 32.579956 87.400971 
L 33.191128 87.400971 
L 33.191128 86.101597 
L 32.579956 86.101597 
z
" style="fill:#1d1d1d;"/>
   </g>
   <g id="patch_37">
    <path clip-path="url(#pa177ed5346)" d="M 33.089266 87.400971 
L 33.700438 87.400971 
L 33.700438 86.087294 
L 33.089266 86.087294 
z
" style="fill:#1d1d1d;"/>
   </g>
   <g id="patch_38">
    <path clip-path="url(#pa177ed5346)" d="M 33.598576 87.400971 
L 34.209748 87.400971 
L 34.209748 86.086232 
L 33.598576 86.086232 
z
" style="fill:#1d1d1d;"/>
   </g>
   <g id="patch_39">
    <path clip-path="url(#pa177ed5346)" d="M 34.107886 87.400971 
L 34.719058 87.400971 
L 34.719058 86.03896 
L 34.107886 86.03896 
z
" style="fill:#1d1d1d;"/>
   </g>
   <g id="patch_40">
    <path clip-path="url(#pa177ed5346)" d="M 34.617196 87.400971 
L 35.228368 87.400971 
L 35.228368 86.038307 
L 34.617196 86.038307 
z
" style="fill:#1d1d1d;"/>
   </g>
   <g id="patch_41">
    <path clip-path="url(#pa177ed5346)" d="M 35.126506 87.400971 
L 35.737678 87.400971 
L 35.737678 86.027922 
L 35.126506 86.027922 
z
" style="fill:#1d1d1d;"/>
   </g>
   <g id="patch_42">
    <path clip-path="url(#pa177ed5346)" d="M 35.635816 87.400971 
L 36.246988 87.400971 
L 36.246988 85.992056 
L 35.635816 85.992056 
z
" style="fill:#1d1d1d;"/>
   </g>
   <g id="patch_43">
    <path clip-path="url(#pa177ed5346)" d="M 36.145126 87.400971 
L 36.756298 87.400971 
L 36.756298 85.989076 
L 36.145126 85.989076 
z
" style="fill:#1d1d1d;"/>
   </g>
   <g id="patch_44">
    <path clip-path="url(#pa177ed5346)" d="M 36.654436 87.400971 
L 37.265608 87.400971 
L 37.265608 85.98649 
L 36.654436 85.98649 
z
" style="fill:#1d1d1d;"/>
   </g>
   <g id="patch_45">
    <path clip-path="url(#pa177ed5346)" d="M 37.163746 87.400971 
L 37.774918 87.400971 
L 37.774918 85.984482 
L 37.163746 85.984482 
z
" style="fill:#1d1d1d;"/>
   </g>
   <g id="patch_46">
    <path clip-path="url(#pa177ed5346)" d="M 37.673056 87.400971 
L 38.284228 87.400971 
L 38.284228 85.925891 
L 37.673056 85.925891 
z
" style="fill:#1d1d1d;"/>
   </g>
   <g id="patch_47">
    <path clip-path="url(#pa177ed5346)" d="M 38.182366 87.400971 
L 38.793538 87.400971 
L 38.793538 85.915684 
L 38.182366 85.915684 
z
" style="fill:#1d1d1d;"/>
   </g>
   <g id="patch_48">
    <path clip-path="url(#pa177ed5346)" d="M 38.691676 87.400971 
L 39.302848 87.400971 
L 39.302848 85.895577 
L 38.691676 85.895577 
z
" style="fill:#1d1d1d;"/>
   </g>
   <g id="patch_49">
    <path clip-path="url(#pa177ed5346)" d="M 39.200986 87.400971 
L 39.812158 87.400971 
L 39.812158 85.87549 
L 39.200986 85.87549 
z
" style="fill:#1d1d1d;"/>
   </g>
   <g id="patch_50">
    <path clip-path="url(#pa177ed5346)" d="M 39.710296 87.400971 
L 40.321468 87.400971 
L 40.321468 85.860824 
L 39.710296 85.860824 
z
" style="fill:#1d1d1d;"/>
   </g>
   <g id="patch_51">
    <path clip-path="url(#pa177ed5346)" d="M 40.219606 87.400971 
L 40.830778 87.400971 
L 40.830778 85.830622 
L 40.219606 85.830622 
z
" style="fill:#1d1d1d;"/>
   </g>
   <g id="patch_52">
    <path clip-path="url(#pa177ed5346)" d="M 40.728916 87.400971 
L 41.340088 87.400971 
L 41.340088 85.824245 
L 40.728916 85.824245 
z
" style="fill:#1d1d1d;"/>
   </g>
   <g id="patch_53">
    <path clip-path="url(#pa177ed5346)" d="M 41.238226 87.400971 
L 41.849398 87.400971 
L 41.849398 85.809179 
L 41.238226 85.809179 
z
" style="fill:#1d1d1d;"/>
   </g>
   <g id="patch_54">
    <path clip-path="url(#pa177ed5346)" d="M 41.747536 87.400971 
L 42.358708 87.400971 
L 42.358708 85.783432 
L 41.747536 85.783432 
z
" style="fill:#1d1d1d;"/>
   </g>
   <g id="patch_55">
    <path clip-path="url(#pa177ed5346)" d="M 42.256846 87.400971 
L 42.868018 87.400971 
L 42.868018 85.743061 
L 42.256846 85.743061 
z
" style="fill:#1d1d1d;"/>
   </g>
   <g id="patch_56">
    <path clip-path="url(#pa177ed5346)" d="M 42.766156 87.400971 
L 43.377327 87.400971 
L 43.377327 85.741889 
L 42.766156 85.741889 
z
" style="fill:#1d1d1d;"/>
   </g>
   <g id="patch_57">
    <path clip-path="url(#pa177ed5346)" d="M 43.275465 87.400971 
L 43.886637 87.400971 
L 43.886637 85.644428 
L 43.275465 85.644428 
z
" style="fill:#1d1d1d;"/>
   </g>
   <g id="patch_58">
    <path clip-path="url(#pa177ed5346)" d="M 43.784775 87.400971 
L 44.395947 87.400971 
L 44.395947 85.60233 
L 43.784775 85.60233 
z
" style="fill:#1d1d1d;"/>
   </g>
   <g id="patch_59">
    <path clip-path="url(#pa177ed5346)" d="M 44.294085 87.400971 
L 44.905257 87.400971 
L 44.905257 85.527784 
L 44.294085 85.527784 
z
" style="fill:#1d1d1d;"/>
   </g>
   <g id="patch_60">
    <path clip-path="url(#pa177ed5346)" d="M 44.803395 87.400971 
L 45.414567 87.400971 
L 45.414567 85.476219 
L 44.803395 85.476219 
z
" style="fill:#1d1d1d;"/>
   </g>
   <g id="patch_61">
    <path clip-path="url(#pa177ed5346)" d="M 45.312705 87.400971 
L 45.923877 87.400971 
L 45.923877 85.474435 
L 45.312705 85.474435 
z
" style="fill:#1d1d1d;"/>
   </g>
   <g id="patch_62">
    <path clip-path="url(#pa177ed5346)" d="M 45.822015 87.400971 
L 46.433187 87.400971 
L 46.433187 85.454321 
L 45.822015 85.454321 
z
" style="fill:#1d1d1d;"/>
   </g>
   <g id="patch_63">
    <path clip-path="url(#pa177ed5346)" d="M 46.331325 87.400971 
L 46.942497 87.400971 
L 46.942497 85.450767 
L 46.331325 85.450767 
z
" style="fill:#1d1d1d;"/>
   </g>
   <g id="patch_64">
    <path clip-path="url(#pa177ed5346)" d="M 46.840635 87.400971 
L 47.451807 87.400971 
L 47.451807 85.419446 
L 46.840635 85.419446 
z
" style="fill:#1d1d1d;"/>
   </g>
   <g id="patch_65">
    <path clip-path="url(#pa177ed5346)" d="M 47.349945 87.400971 
L 47.961117 87.400971 
L 47.961117 85.371791 
L 47.349945 85.371791 
z
" style="fill:#1d1d1d;"/>
   </g>
   <g id="patch_66">
    <path clip-path="url(#pa177ed5346)" d="M 47.859255 87.400971 
L 48.470427 87.400971 
L 48.470427 85.351898 
L 47.859255 85.351898 
z
" style="fill:#1d1d1d;"/>
   </g>
   <g id="patch_67">
    <path clip-path="url(#pa177ed5346)" d="M 48.368565 87.400971 
L 48.979737 87.400971 
L 48.979737 85.347626 
L 48.368565 85.347626 
z
" style="fill:#1d1d1d;"/>
   </g>
   <g id="patch_68">
    <path clip-path="url(#pa177ed5346)" d="M 48.877875 87.400971 
L 49.489047 87.400971 
L 49.489047 85.284876 
L 48.877875 85.284876 
z
" style="fill:#1d1d1d;"/>
   </g>
   <g id="patch_69">
    <path clip-path="url(#pa177ed5346)" d="M 49.387185 87.400971 
L 49.998357 87.400971 
L 49.998357 85.179837 
L 49.387185 85.179837 
z
" style="fill:#1d1d1d;"/>
   </g>
   <g id="patch_70">
    <path clip-path="url(#pa177ed5346)" d="M 49.896495 87.400971 
L 50.507667 87.400971 
L 50.507667 85.126687 
L 49.896495 85.126687 
z
" style="fill:#1d1d1d;"/>
   </g>
   <g id="patch_71">
    <path clip-path="url(#pa177ed5346)" d="M 50.405805 87.400971 
L 51.016977 87.400971 
L 51.016977 85.069482 
L 50.405805 85.069482 
z
" style="fill:#1d1d1d;"/>
   </g>
   <g id="patch_72">
    <path clip-path="url(#pa177ed5346)" d="M 50.915115 87.400971 
L 51.526287 87.400971 
L 51.526287 84.942385 
L 50.915115 84.942385 
z
" style="fill:#1d1d1d;"/>
   </g>
   <g id="patch_73">
    <path clip-path="url(#pa177ed5346)" d="M 51.424425 87.400971 
L 52.035597 87.400971 
L 52.035597 84.742193 
L 51.424425 84.742193 
z
" style="fill:#1d1d1d;"/>
   </g>
   <g id="patch_74">
    <path clip-path="url(#pa177ed5346)" d="M 51.933735 87.400971 
L 52.544907 87.400971 
L 52.544907 84.69675 
L 51.933735 84.69675 
z
" style="fill:#1d1d1d;"/>
   </g>
   <g id="patch_75">
    <path clip-path="url(#pa177ed5346)" d="M 52.443045 87.400971 
L 53.054217 87.400971 
L 53.054217 84.651144 
L 52.443045 84.651144 
z
" style="fill:#1d1d1d;"/>
   </g>
   <g id="patch_76">
    <path clip-path="url(#pa177ed5346)" d="M 52.952355 87.400971 
L 53.563527 87.400971 
L 53.563527 84.583008 
L 52.952355 84.583008 
z
" style="fill:#1d1d1d;"/>
   </g>
   <g id="patch_77">
    <path clip-path="url(#pa177ed5346)" d="M 53.461665 87.400971 
L 54.072837 87.400971 
L 54.072837 84.524745 
L 53.461665 84.524745 
z
" style="fill:#1d1d1d;"/>
   </g>
   <g id="patch_78">
    <path clip-path="url(#pa177ed5346)" d="M 53.970975 87.400971 
L 54.582147 87.400971 
L 54.582147 84.380806 
L 53.970975 84.380806 
z
" style="fill:#1d1d1d;"/>
   </g>
   <g id="patch_79">
    <path clip-path="url(#pa177ed5346)" d="M 54.480285 87.400971 
L 55.091457 87.400971 
L 55.091457 84.340881 
L 54.480285 84.340881 
z
" style="fill:#1d1d1d;"/>
   </g>
   <g id="patch_80">
    <path clip-path="url(#pa177ed5346)" d="M 54.989595 87.400971 
L 55.600767 87.400971 
L 55.600767 84.333417 
L 54.989595 84.333417 
z
" style="fill:#1d1d1d;"/>
   </g>
   <g id="patch_81">
    <path clip-path="url(#pa177ed5346)" d="M 55.498905 87.400971 
L 56.110077 87.400971 
L 56.110077 84.236196 
L 55.498905 84.236196 
z
" style="fill:#1d1d1d;"/>
   </g>
   <g id="patch_82">
    <path clip-path="url(#pa177ed5346)" d="M 56.008215 87.400971 
L 56.619387 87.400971 
L 56.619387 84.128793 
L 56.008215 84.128793 
z
" style="fill:#1d1d1d;"/>
   </g>
   <g id="patch_83">
    <path clip-path="url(#pa177ed5346)" d="M 56.517525 87.400971 
L 57.128697 87.400971 
L 57.128697 84.119812 
L 56.517525 84.119812 
z
" style="fill:#1d1d1d;"/>
   </g>
   <g id="patch_84">
    <path clip-path="url(#pa177ed5346)" d="M 57.026835 87.400971 
L 57.638007 87.400971 
L 57.638007 83.623943 
L 57.026835 83.623943 
z
" style="fill:#1d1d1d;"/>
   </g>
   <g id="patch_85">
    <path clip-path="url(#pa177ed5346)" d="M 57.536145 87.400971 
L 58.147317 87.400971 
L 58.147317 83.518195 
L 57.536145 83.518195 
z
" style="fill:#1d1d1d;"/>
   </g>
   <g id="patch_86">
    <path clip-path="url(#pa177ed5346)" d="M 58.045455 87.400971 
L 58.656627 87.400971 
L 58.656627 83.45048 
L 58.045455 83.45048 
z
" style="fill:#1d1d1d;"/>
   </g>
   <g id="patch_87">
    <path clip-path="url(#pa177ed5346)" d="M 58.554765 87.400971 
L 59.165936 87.400971 
L 59.165936 83.375156 
L 58.554765 83.375156 
z
" style="fill:#1d1d1d;"/>
   </g>
   <g id="patch_88">
    <path clip-path="url(#pa177ed5346)" d="M 59.064074 87.400971 
L 59.675246 87.400971 
L 59.675246 83.302878 
L 59.064074 83.302878 
z
" style="fill:#1d1d1d;"/>
   </g>
   <g id="patch_89">
    <path clip-path="url(#pa177ed5346)" d="M 59.573384 87.400971 
L 60.184556 87.400971 
L 60.184556 83.253722 
L 59.573384 83.253722 
z
" style="fill:#1d1d1d;"/>
   </g>
   <g id="patch_90">
    <path clip-path="url(#pa177ed5346)" d="M 60.082694 87.400971 
L 60.693866 87.400971 
L 60.693866 83.03213 
L 60.082694 83.03213 
z
" style="fill:#1d1d1d;"/>
   </g>
   <g id="patch_91">
    <path clip-path="url(#pa177ed5346)" d="M 60.592004 87.400971 
L 61.203176 87.400971 
L 61.203176 82.741955 
L 60.592004 82.741955 
z
" style="fill:#1d1d1d;"/>
   </g>
   <g id="patch_92">
    <path clip-path="url(#pa177ed5346)" d="M 61.101314 87.400971 
L 61.712486 87.400971 
L 61.712486 80.670841 
L 61.101314 80.670841 
z
" style="fill:#1d1d1d;"/>
   </g>
   <g id="patch_93">
    <path clip-path="url(#pa177ed5346)" d="M 61.610624 87.400971 
L 62.221796 87.400971 
L 62.221796 79.36037 
L 61.610624 79.36037 
z
" style="fill:#1d1d1d;"/>
   </g>
   <g id="patch_94">
    <path clip-path="url(#pa177ed5346)" d="M 62.119934 87.400971 
L 62.731106 87.400971 
L 62.731106 78.842753 
L 62.119934 78.842753 
z
" style="fill:#1d1d1d;"/>
   </g>
   <g id="patch_95">
    <path clip-path="url(#pa177ed5346)" d="M 62.629244 87.400971 
L 63.240416 87.400971 
L 63.240416 77.715873 
L 62.629244 77.715873 
z
" style="fill:#1d1d1d;"/>
   </g>
   <g id="patch_96">
    <path clip-path="url(#pa177ed5346)" d="M 63.138554 87.400971 
L 63.749726 87.400971 
L 63.749726 77.376535 
L 63.138554 77.376535 
z
" style="fill:#1d1d1d;"/>
   </g>
   <g id="patch_97">
    <path clip-path="url(#pa177ed5346)" d="M 63.647864 87.400971 
L 64.259036 87.400971 
L 64.259036 76.622217 
L 63.647864 76.622217 
z
" style="fill:#1d1d1d;"/>
   </g>
   <g id="patch_98">
    <path clip-path="url(#pa177ed5346)" d="M 64.157174 87.400971 
L 64.768346 87.400971 
L 64.768346 75.770647 
L 64.157174 75.770647 
z
" style="fill:#1d1d1d;"/>
   </g>
   <g id="patch_99">
    <path clip-path="url(#pa177ed5346)" d="M 64.666484 87.400971 
L 65.277656 87.400971 
L 65.277656 75.446423 
L 64.666484 75.446423 
z
" style="fill:#1d1d1d;"/>
   </g>
   <g id="patch_100">
    <path clip-path="url(#pa177ed5346)" d="M 65.175794 87.400971 
L 65.786966 87.400971 
L 65.786966 74.255963 
L 65.175794 74.255963 
z
" style="fill:#1d1d1d;"/>
   </g>
   <g id="patch_101">
    <path clip-path="url(#pa177ed5346)" d="M 65.685104 87.400971 
L 66.296276 87.400971 
L 66.296276 71.0187 
L 65.685104 71.0187 
z
" style="fill:#1d1d1d;"/>
   </g>
   <g id="patch_102">
    <path clip-path="url(#pa177ed5346)" d="M 66.194414 87.400971 
L 66.805586 87.400971 
L 66.805586 70.954779 
L 66.194414 70.954779 
z
" style="fill:#1d1d1d;"/>
   </g>
   <g id="patch_103">
    <path clip-path="url(#pa177ed5346)" d="M 66.194414 87.400971 
L 66.805586 87.400971 
L 66.805586 70.954779 
L 66.194414 70.954779 
z
" style="fill:#1d1d1d;"/>
   </g>
   <g id="patch_104">
    <path clip-path="url(#pa177ed5346)" d="M 66.703724 87.400971 
L 67.314896 87.400971 
L 67.314896 42.684864 
L 66.703724 42.684864 
z
" style="fill:#1d1d1d;"/>
   </g>
   <g id="patch_105">
    <path clip-path="url(#pa177ed5346)" d="M 67.213034 87.400971 
L 67.824206 87.400971 
L 67.824206 58.55731 
L 67.213034 58.55731 
z
" style="fill:#1d1d1d;"/>
   </g>
   <g id="patch_106">
    <path clip-path="url(#pa177ed5346)" d="M 67.722344 87.400971 
L 68.333516 87.400971 
L 68.333516 70.861664 
L 67.722344 70.861664 
z
" style="fill:#1d1d1d;"/>
   </g>
   <g id="patch_107">
    <path clip-path="url(#pa177ed5346)" d="M 68.231654 87.400971 
L 68.842826 87.400971 
L 68.842826 73.348671 
L 68.231654 73.348671 
z
" style="fill:#1d1d1d;"/>
   </g>
   <g id="patch_108">
    <path clip-path="url(#pa177ed5346)" d="M 68.740964 87.400971 
L 69.352136 87.400971 
L 69.352136 73.606968 
L 68.740964 73.606968 
z
" style="fill:#1d1d1d;"/>
   </g>
   <g id="patch_109">
    <path clip-path="url(#pa177ed5346)" d="M 69.250274 87.400971 
L 69.861446 87.400971 
L 69.861446 75.92992 
L 69.250274 75.92992 
z
" style="fill:#1d1d1d;"/>
   </g>
   <g id="patch_110">
    <path clip-path="url(#pa177ed5346)" d="M 69.759584 87.400971 
L 70.370756 87.400971 
L 70.370756 79.397953 
L 69.759584 79.397953 
z
" style="fill:#1d1d1d;"/>
   </g>
   <g id="patch_111">
    <path clip-path="url(#pa177ed5346)" d="M 70.268894 87.400971 
L 70.880066 87.400971 
L 70.880066 79.887219 
L 70.268894 79.887219 
z
" style="fill:#1d1d1d;"/>
   </g>
   <g id="patch_112">
    <path clip-path="url(#pa177ed5346)" d="M 70.778204 87.400971 
L 71.389376 87.400971 
L 71.389376 79.965541 
L 70.778204 79.965541 
z
" style="fill:#1d1d1d;"/>
   </g>
   <g id="patch_113">
    <path clip-path="url(#pa177ed5346)" d="M 71.287514 87.400971 
L 71.898686 87.400971 
L 71.898686 80.103147 
L 71.287514 80.103147 
z
" style="fill:#1d1d1d;"/>
   </g>
   <g id="patch_114">
    <path clip-path="url(#pa177ed5346)" d="M 71.796824 87.400971 
L 72.407996 87.400971 
L 72.407996 80.225846 
L 71.796824 80.225846 
z
" style="fill:#1d1d1d;"/>
   </g>
   <g id="patch_115">
    <path clip-path="url(#pa177ed5346)" d="M 72.306134 87.400971 
L 72.917306 87.400971 
L 72.917306 81.226098 
L 72.306134 81.226098 
z
" style="fill:#1d1d1d;"/>
   </g>
   <g id="patch_116">
    <path clip-path="url(#pa177ed5346)" d="M 72.815444 87.400971 
L 73.426616 87.400971 
L 73.426616 81.457349 
L 72.815444 81.457349 
z
" style="fill:#1d1d1d;"/>
   </g>
   <g id="patch_117">
    <path clip-path="url(#pa177ed5346)" d="M 73.324754 87.400971 
L 73.935926 87.400971 
L 73.935926 82.074166 
L 73.324754 82.074166 
z
" style="fill:#1d1d1d;"/>
   </g>
   <g id="patch_118">
    <path clip-path="url(#pa177ed5346)" d="M 73.834064 87.400971 
L 74.445235 87.400971 
L 74.445235 82.909071 
L 73.834064 82.909071 
z
" style="fill:#1d1d1d;"/>
   </g>
   <g id="patch_119">
    <path clip-path="url(#pa177ed5346)" d="M 74.343373 87.400971 
L 74.954545 87.400971 
L 74.954545 83.167068 
L 74.343373 83.167068 
z
" style="fill:#1d1d1d;"/>
   </g>
   <g id="patch_120">
    <path clip-path="url(#pa177ed5346)" d="M 74.852683 87.400971 
L 75.463855 87.400971 
L 75.463855 83.516331 
L 74.852683 83.516331 
z
" style="fill:#1d1d1d;"/>
   </g>
   <g id="patch_121">
    <path clip-path="url(#pa177ed5346)" d="M 75.361993 87.400971 
L 75.973165 87.400971 
L 75.973165 83.533015 
L 75.361993 83.533015 
z
" style="fill:#1d1d1d;"/>
   </g>
   <g id="patch_122">
    <path clip-path="url(#pa177ed5346)" d="M 75.871303 87.400971 
L 76.482475 87.400971 
L 76.482475 83.614152 
L 75.871303 83.614152 
z
" style="fill:#1d1d1d;"/>
   </g>
   <g id="patch_123">
    <path clip-path="url(#pa177ed5346)" d="M 76.380613 87.400971 
L 76.991785 87.400971 
L 76.991785 83.819973 
L 76.380613 83.819973 
z
" style="fill:#1d1d1d;"/>
   </g>
   <g id="patch_124">
    <path clip-path="url(#pa177ed5346)" d="M 76.889923 87.400971 
L 77.501095 87.400971 
L 77.501095 83.861938 
L 76.889923 83.861938 
z
" style="fill:#1d1d1d;"/>
   </g>
   <g id="patch_125">
    <path clip-path="url(#pa177ed5346)" d="M 77.399233 87.400971 
L 78.010405 87.400971 
L 78.010405 84.042159 
L 77.399233 84.042159 
z
" style="fill:#1d1d1d;"/>
   </g>
   <g id="patch_126">
    <path clip-path="url(#pa177ed5346)" d="M 77.908543 87.400971 
L 78.519715 87.400971 
L 78.519715 84.326041 
L 77.908543 84.326041 
z
" style="fill:#1d1d1d;"/>
   </g>
   <g id="patch_127">
    <path clip-path="url(#pa177ed5346)" d="M 78.417853 87.400971 
L 79.029025 87.400971 
L 79.029025 84.361206 
L 78.417853 84.361206 
z
" style="fill:#1d1d1d;"/>
   </g>
   <g id="patch_128">
    <path clip-path="url(#pa177ed5346)" d="M 78.927163 87.400971 
L 79.538335 87.400971 
L 79.538335 84.391155 
L 78.927163 84.391155 
z
" style="fill:#1d1d1d;"/>
   </g>
   <g id="patch_129">
    <path clip-path="url(#pa177ed5346)" d="M 79.436473 87.400971 
L 80.047645 87.400971 
L 80.047645 84.431763 
L 79.436473 84.431763 
z
" style="fill:#1d1d1d;"/>
   </g>
   <g id="patch_130">
    <path clip-path="url(#pa177ed5346)" d="M 79.945783 87.400971 
L 80.556955 87.400971 
L 80.556955 84.660728 
L 79.945783 84.660728 
z
" style="fill:#1d1d1d;"/>
   </g>
   <g id="patch_131">
    <path clip-path="url(#pa177ed5346)" d="M 80.455093 87.400971 
L 81.066265 87.400971 
L 81.066265 84.986088 
L 80.455093 84.986088 
z
" style="fill:#1d1d1d;"/>
   </g>
   <g id="patch_132">
    <path clip-path="url(#pa177ed5346)" d="M 80.964403 87.400971 
L 81.575575 87.400971 
L 81.575575 85.073492 
L 80.964403 85.073492 
z
" style="fill:#1d1d1d;"/>
   </g>
   <g id="patch_133">
    <path clip-path="url(#pa177ed5346)" d="M 81.473713 87.400971 
L 82.084885 87.400971 
L 82.084885 85.143311 
L 81.473713 85.143311 
z
" style="fill:#1d1d1d;"/>
   </g>
   <g id="patch_134">
    <path clip-path="url(#pa177ed5346)" d="M 81.983023 87.400971 
L 82.594195 87.400971 
L 82.594195 85.155671 
L 81.983023 85.155671 
z
" style="fill:#1d1d1d;"/>
   </g>
   <g id="patch_135">
    <path clip-path="url(#pa177ed5346)" d="M 82.492333 87.400971 
L 83.103505 87.400971 
L 83.103505 85.226427 
L 82.492333 85.226427 
z
" style="fill:#1d1d1d;"/>
   </g>
   <g id="patch_136">
    <path clip-path="url(#pa177ed5346)" d="M 83.001643 87.400971 
L 83.612815 87.400971 
L 83.612815 85.30892 
L 83.001643 85.30892 
z
" style="fill:#1d1d1d;"/>
   </g>
   <g id="patch_137">
    <path clip-path="url(#pa177ed5346)" d="M 83.510953 87.400971 
L 84.122125 87.400971 
L 84.122125 85.363714 
L 83.510953 85.363714 
z
" style="fill:#1d1d1d;"/>
   </g>
   <g id="patch_138">
    <path clip-path="url(#pa177ed5346)" d="M 84.020263 87.400971 
L 84.631435 87.400971 
L 84.631435 85.382522 
L 84.020263 85.382522 
z
" style="fill:#1d1d1d;"/>
   </g>
   <g id="patch_139">
    <path clip-path="url(#pa177ed5346)" d="M 84.529573 87.400971 
L 85.140745 87.400971 
L 85.140745 85.387429 
L 84.529573 85.387429 
z
" style="fill:#1d1d1d;"/>
   </g>
   <g id="patch_140">
    <path clip-path="url(#pa177ed5346)" d="M 85.038883 87.400971 
L 85.650055 87.400971 
L 85.650055 85.413313 
L 85.038883 85.413313 
z
" style="fill:#1d1d1d;"/>
   </g>
   <g id="patch_141">
    <path clip-path="url(#pa177ed5346)" d="M 85.548193 87.400971 
L 86.159365 87.400971 
L 86.159365 85.446837 
L 85.548193 85.446837 
z
" style="fill:#1d1d1d;"/>
   </g>
   <g id="patch_142">
    <path clip-path="url(#pa177ed5346)" d="M 86.057503 87.400971 
L 86.668675 87.400971 
L 86.668675 85.450104 
L 86.057503 85.450104 
z
" style="fill:#1d1d1d;"/>
   </g>
   <g id="patch_143">
    <path clip-path="url(#pa177ed5346)" d="M 86.566813 87.400971 
L 87.177985 87.400971 
L 87.177985 85.476521 
L 86.566813 85.476521 
z
" style="fill:#1d1d1d;"/>
   </g>
   <g id="patch_144">
    <path clip-path="url(#pa177ed5346)" d="M 87.076123 87.400971 
L 87.687295 87.400971 
L 87.687295 85.532945 
L 87.076123 85.532945 
z
" style="fill:#1d1d1d;"/>
   </g>
   <g id="patch_145">
    <path clip-path="url(#pa177ed5346)" d="M 87.585433 87.400971 
L 88.196605 87.400971 
L 88.196605 85.60328 
L 87.585433 85.60328 
z
" style="fill:#1d1d1d;"/>
   </g>
   <g id="patch_146">
    <path clip-path="url(#pa177ed5346)" d="M 88.094743 87.400971 
L 88.705915 87.400971 
L 88.705915 85.613922 
L 88.094743 85.613922 
z
" style="fill:#1d1d1d;"/>
   </g>
   <g id="patch_147">
    <path clip-path="url(#pa177ed5346)" d="M 88.604053 87.400971 
L 89.215225 87.400971 
L 89.215225 85.631109 
L 88.604053 85.631109 
z
" style="fill:#1d1d1d;"/>
   </g>
   <g id="patch_148">
    <path clip-path="url(#pa177ed5346)" d="M 89.113363 87.400971 
L 89.724535 87.400971 
L 89.724535 85.634477 
L 89.113363 85.634477 
z
" style="fill:#1d1d1d;"/>
   </g>
   <g id="patch_149">
    <path clip-path="url(#pa177ed5346)" d="M 89.622673 87.400971 
L 90.233844 87.400971 
L 90.233844 85.645567 
L 89.622673 85.645567 
z
" style="fill:#1d1d1d;"/>
   </g>
   <g id="patch_150">
    <path clip-path="url(#pa177ed5346)" d="M 90.131982 87.400971 
L 90.743154 87.400971 
L 90.743154 85.650044 
L 90.131982 85.650044 
z
" style="fill:#1d1d1d;"/>
   </g>
   <g id="patch_151">
    <path clip-path="url(#pa177ed5346)" d="M 90.641292 87.400971 
L 91.252464 87.400971 
L 91.252464 85.691661 
L 90.641292 85.691661 
z
" style="fill:#1d1d1d;"/>
   </g>
   <g id="patch_152">
    <path clip-path="url(#pa177ed5346)" d="M 91.150602 87.400971 
L 91.761774 87.400971 
L 91.761774 85.703916 
L 91.150602 85.703916 
z
" style="fill:#1d1d1d;"/>
   </g>
   <g id="patch_153">
    <path clip-path="url(#pa177ed5346)" d="M 91.659912 87.400971 
L 92.271084 87.400971 
L 92.271084 85.778548 
L 91.659912 85.778548 
z
" style="fill:#1d1d1d;"/>
   </g>
   <g id="patch_154">
    <path clip-path="url(#pa177ed5346)" d="M 92.169222 87.400971 
L 92.780394 87.400971 
L 92.780394 85.819845 
L 92.169222 85.819845 
z
" style="fill:#1d1d1d;"/>
   </g>
   <g id="patch_155">
    <path clip-path="url(#pa177ed5346)" d="M 92.678532 87.400971 
L 93.289704 87.400971 
L 93.289704 85.820232 
L 92.678532 85.820232 
z
" style="fill:#1d1d1d;"/>
   </g>
   <g id="patch_156">
    <path clip-path="url(#pa177ed5346)" d="M 93.187842 87.400971 
L 93.799014 87.400971 
L 93.799014 85.864365 
L 93.187842 85.864365 
z
" style="fill:#1d1d1d;"/>
   </g>
   <g id="patch_157">
    <path clip-path="url(#pa177ed5346)" d="M 93.697152 87.400971 
L 94.308324 87.400971 
L 94.308324 85.875594 
L 93.697152 85.875594 
z
" style="fill:#1d1d1d;"/>
   </g>
   <g id="patch_158">
    <path clip-path="url(#pa177ed5346)" d="M 94.206462 87.400971 
L 94.817634 87.400971 
L 94.817634 85.902359 
L 94.206462 85.902359 
z
" style="fill:#1d1d1d;"/>
   </g>
   <g id="patch_159">
    <path clip-path="url(#pa177ed5346)" d="M 94.715772 87.400971 
L 95.326944 87.400971 
L 95.326944 85.939581 
L 94.715772 85.939581 
z
" style="fill:#1d1d1d;"/>
   </g>
   <g id="patch_160">
    <path clip-path="url(#pa177ed5346)" d="M 95.225082 87.400971 
L 95.836254 87.400971 
L 95.836254 85.943943 
L 95.225082 85.943943 
z
" style="fill:#1d1d1d;"/>
   </g>
   <g id="patch_161">
    <path clip-path="url(#pa177ed5346)" d="M 95.734392 87.400971 
L 96.345564 87.400971 
L 96.345564 85.944267 
L 95.734392 85.944267 
z
" style="fill:#1d1d1d;"/>
   </g>
   <g id="patch_162">
    <path clip-path="url(#pa177ed5346)" d="M 96.243702 87.400971 
L 96.854874 87.400971 
L 96.854874 85.948467 
L 96.243702 85.948467 
z
" style="fill:#1d1d1d;"/>
   </g>
   <g id="patch_163">
    <path clip-path="url(#pa177ed5346)" d="M 96.753012 87.400971 
L 97.364184 87.400971 
L 97.364184 86.001063 
L 96.753012 86.001063 
z
" style="fill:#1d1d1d;"/>
   </g>
   <g id="patch_164">
    <path clip-path="url(#pa177ed5346)" d="M 97.262322 87.400971 
L 97.873494 87.400971 
L 97.873494 86.026332 
L 97.262322 86.026332 
z
" style="fill:#1d1d1d;"/>
   </g>
   <g id="patch_165">
    <path clip-path="url(#pa177ed5346)" d="M 97.771632 87.400971 
L 98.382804 87.400971 
L 98.382804 86.034327 
L 97.771632 86.034327 
z
" style="fill:#1d1d1d;"/>
   </g>
   <g id="patch_166">
    <path clip-path="url(#pa177ed5346)" d="M 98.280942 87.400971 
L 98.892114 87.400971 
L 98.892114 86.035256 
L 98.280942 86.035256 
z
" style="fill:#1d1d1d;"/>
   </g>
   <g id="patch_167">
    <path clip-path="url(#pa177ed5346)" d="M 98.790252 87.400971 
L 99.401424 87.400971 
L 99.401424 86.065769 
L 98.790252 86.065769 
z
" style="fill:#1d1d1d;"/>
   </g>
   <g id="patch_168">
    <path clip-path="url(#pa177ed5346)" d="M 99.299562 87.400971 
L 99.910734 87.400971 
L 99.910734 86.080418 
L 99.299562 86.080418 
z
" style="fill:#1d1d1d;"/>
   </g>
   <g id="patch_169">
    <path clip-path="url(#pa177ed5346)" d="M 99.808872 87.400971 
L 100.420044 87.400971 
L 100.420044 86.117828 
L 99.808872 86.117828 
z
" style="fill:#1d1d1d;"/>
   </g>
   <g id="patch_170">
    <path clip-path="url(#pa177ed5346)" d="M 100.318182 87.400971 
L 100.929354 87.400971 
L 100.929354 86.127738 
L 100.318182 86.127738 
z
" style="fill:#1d1d1d;"/>
   </g>
   <g id="patch_171">
    <path clip-path="url(#pa177ed5346)" d="M 100.827492 87.400971 
L 101.438664 87.400971 
L 101.438664 86.134044 
L 100.827492 86.134044 
z
" style="fill:#1d1d1d;"/>
   </g>
   <g id="patch_172">
    <path clip-path="url(#pa177ed5346)" d="M 101.336802 87.400971 
L 101.947974 87.400971 
L 101.947974 86.149654 
L 101.336802 86.149654 
z
" style="fill:#1d1d1d;"/>
   </g>
   <g id="patch_173">
    <path clip-path="url(#pa177ed5346)" d="M 101.846112 87.400971 
L 102.457284 87.400971 
L 102.457284 86.198571 
L 101.846112 86.198571 
z
" style="fill:#1d1d1d;"/>
   </g>
   <g id="patch_174">
    <path clip-path="url(#pa177ed5346)" d="M 102.355422 87.400971 
L 102.966594 87.400971 
L 102.966594 86.201823 
L 102.355422 86.201823 
z
" style="fill:#1d1d1d;"/>
   </g>
   <g id="patch_175">
    <path clip-path="url(#pa177ed5346)" d="M 102.864732 87.400971 
L 103.475904 87.400971 
L 103.475904 86.203039 
L 102.864732 86.203039 
z
" style="fill:#1d1d1d;"/>
   </g>
   <g id="patch_176">
    <path clip-path="url(#pa177ed5346)" d="M 103.374042 87.400971 
L 103.985214 87.400971 
L 103.985214 86.215004 
L 103.374042 86.215004 
z
" style="fill:#1d1d1d;"/>
   </g>
   <g id="patch_177">
    <path clip-path="url(#pa177ed5346)" d="M 103.883352 87.400971 
L 104.494524 87.400971 
L 104.494524 86.218753 
L 103.883352 86.218753 
z
" style="fill:#1d1d1d;"/>
   </g>
   <g id="patch_178">
    <path clip-path="url(#pa177ed5346)" d="M 104.392662 87.400971 
L 105.003834 87.400971 
L 105.003834 86.220298 
L 104.392662 86.220298 
z
" style="fill:#1d1d1d;"/>
   </g>
   <g id="patch_179">
    <path clip-path="url(#pa177ed5346)" d="M 104.901972 87.400971 
L 105.513143 87.400971 
L 105.513143 86.223289 
L 104.901972 86.223289 
z
" style="fill:#1d1d1d;"/>
   </g>
   <g id="patch_180">
    <path clip-path="url(#pa177ed5346)" d="M 105.411281 87.400971 
L 106.022453 87.400971 
L 106.022453 86.247912 
L 105.411281 86.247912 
z
" style="fill:#1d1d1d;"/>
   </g>
   <g id="patch_181">
    <path clip-path="url(#pa177ed5346)" d="M 105.920591 87.400971 
L 106.531763 87.400971 
L 106.531763 86.284685 
L 105.920591 86.284685 
z
" style="fill:#1d1d1d;"/>
   </g>
   <g id="patch_182">
    <path clip-path="url(#pa177ed5346)" d="M 106.429901 87.400971 
L 107.041073 87.400971 
L 107.041073 86.293499 
L 106.429901 86.293499 
z
" style="fill:#1d1d1d;"/>
   </g>
   <g id="patch_183">
    <path clip-path="url(#pa177ed5346)" d="M 106.939211 87.400971 
L 107.550383 87.400971 
L 107.550383 86.295551 
L 106.939211 86.295551 
z
" style="fill:#1d1d1d;"/>
   </g>
   <g id="patch_184">
    <path clip-path="url(#pa177ed5346)" d="M 107.448521 87.400971 
L 108.059693 87.400971 
L 108.059693 86.318734 
L 107.448521 86.318734 
z
" style="fill:#1d1d1d;"/>
   </g>
   <g id="patch_185">
    <path clip-path="url(#pa177ed5346)" d="M 107.957831 87.400971 
L 108.569003 87.400971 
L 108.569003 86.330856 
L 107.957831 86.330856 
z
" style="fill:#1d1d1d;"/>
   </g>
   <g id="patch_186">
    <path clip-path="url(#pa177ed5346)" d="M 108.467141 87.400971 
L 109.078313 87.400971 
L 109.078313 86.332685 
L 108.467141 86.332685 
z
" style="fill:#1d1d1d;"/>
   </g>
   <g id="patch_187">
    <path clip-path="url(#pa177ed5346)" d="M 108.976451 87.400971 
L 109.587623 87.400971 
L 109.587623 86.335213 
L 108.976451 86.335213 
z
" style="fill:#1d1d1d;"/>
   </g>
   <g id="patch_188">
    <path clip-path="url(#pa177ed5346)" d="M 109.485761 87.400971 
L 110.096933 87.400971 
L 110.096933 86.350208 
L 109.485761 86.350208 
z
" style="fill:#1d1d1d;"/>
   </g>
   <g id="patch_189">
    <path clip-path="url(#pa177ed5346)" d="M 109.995071 87.400971 
L 110.606243 87.400971 
L 110.606243 86.361667 
L 109.995071 86.361667 
z
" style="fill:#1d1d1d;"/>
   </g>
   <g id="patch_190">
    <path clip-path="url(#pa177ed5346)" d="M 110.504381 87.400971 
L 111.115553 87.400971 
L 111.115553 86.369408 
L 110.504381 86.369408 
z
" style="fill:#1d1d1d;"/>
   </g>
   <g id="patch_191">
    <path clip-path="url(#pa177ed5346)" d="M 111.013691 87.400971 
L 111.624863 87.400971 
L 111.624863 86.370246 
L 111.013691 86.370246 
z
" style="fill:#1d1d1d;"/>
   </g>
   <g id="patch_192">
    <path clip-path="url(#pa177ed5346)" d="M 111.523001 87.400971 
L 112.134173 87.400971 
L 112.134173 86.370674 
L 111.523001 86.370674 
z
" style="fill:#1d1d1d;"/>
   </g>
   <g id="patch_193">
    <path clip-path="url(#pa177ed5346)" d="M 112.032311 87.400971 
L 112.643483 87.400971 
L 112.643483 86.372892 
L 112.032311 86.372892 
z
" style="fill:#1d1d1d;"/>
   </g>
   <g id="patch_194">
    <path clip-path="url(#pa177ed5346)" d="M 112.541621 87.400971 
L 113.152793 87.400971 
L 113.152793 86.383165 
L 112.541621 86.383165 
z
" style="fill:#1d1d1d;"/>
   </g>
   <g id="patch_195">
    <path clip-path="url(#pa177ed5346)" d="M 113.050931 87.400971 
L 113.662103 87.400971 
L 113.662103 86.384535 
L 113.050931 86.384535 
z
" style="fill:#1d1d1d;"/>
   </g>
   <g id="patch_196">
    <path clip-path="url(#pa177ed5346)" d="M 113.560241 87.400971 
L 114.171413 87.400971 
L 114.171413 86.389075 
L 113.560241 86.389075 
z
" style="fill:#1d1d1d;"/>
   </g>
   <g id="patch_197">
    <path clip-path="url(#pa177ed5346)" d="M 114.069551 87.400971 
L 114.680723 87.400971 
L 114.680723 86.415015 
L 114.069551 86.415015 
z
" style="fill:#1d1d1d;"/>
   </g>
   <g id="patch_198">
    <path clip-path="url(#pa177ed5346)" d="M 114.578861 87.400971 
L 115.190033 87.400971 
L 115.190033 86.429452 
L 114.578861 86.429452 
z
" style="fill:#1d1d1d;"/>
   </g>
   <g id="patch_199">
    <path clip-path="url(#pa177ed5346)" d="M 115.088171 87.400971 
L 115.699343 87.400971 
L 115.699343 86.429682 
L 115.088171 86.429682 
z
" style="fill:#1d1d1d;"/>
   </g>
   <g id="patch_200">
    <path clip-path="url(#pa177ed5346)" d="M 115.597481 87.400971 
L 116.208653 87.400971 
L 116.208653 86.431261 
L 115.597481 86.431261 
z
" style="fill:#1d1d1d;"/>
   </g>
   <g id="patch_201">
    <path clip-path="url(#pa177ed5346)" d="M 116.106791 87.400971 
L 116.717963 87.400971 
L 116.717963 86.435891 
L 116.106791 86.435891 
z
" style="fill:#1d1d1d;"/>
   </g>
   <g id="patch_202">
    <path clip-path="url(#pa177ed5346)" d="M 116.616101 87.400971 
L 117.227273 87.400971 
L 117.227273 86.436824 
L 116.616101 86.436824 
z
" style="fill:#1d1d1d;"/>
   </g>
   <g id="matplotlib.axis_1"/>
   <g id="matplotlib.axis_2"/>
   <g id="patch_203">
    <path d="M 10.7 93.86 
L 10.7 10.7 
" style="fill:none;stroke:#000000;stroke-linecap:square;stroke-linejoin:miter;stroke-width:0.8;"/>
   </g>
   <g id="patch_204">
    <path d="M 122.3 93.86 
L 122.3 10.7 
" style="fill:none;stroke:#000000;stroke-linecap:square;stroke-linejoin:miter;stroke-width:0.8;"/>
   </g>
   <g id="patch_205">
    <path d="M 10.7 93.86 
L 122.3 93.86 
" style="fill:none;stroke:#000000;stroke-linecap:square;stroke-linejoin:miter;stroke-width:0.8;"/>
   </g>
   <g id="patch_206">
    <path d="M 10.7 10.7 
L 122.3 10.7 
" style="fill:none;stroke:#000000;stroke-linecap:square;stroke-linejoin:miter;stroke-width:0.8;"/>
   </g>
  </g>
 </g>
 <defs>
  <clipPath id="pa177ed5346">
   <rect height="83.16" width="111.6" x="10.7" y="10.7"/>
  </clipPath>
 </defs>
</svg>
