<?xml version="1.0" encoding="utf-8" standalone="no"?>
<!DOCTYPE svg PUBLIC "-//W3C//DTD SVG 1.1//EN"
  "http://www.w3.org/Graphics/SVG/1.1/DTD/svg11.dtd">
<!-- Created with matplotlib (http://matplotlib.org/) -->
<svg height="104pt" version="1.1" viewBox="0 0 133 104" width="133pt" xmlns="http://www.w3.org/2000/svg" xmlns:xlink="http://www.w3.org/1999/xlink">
 <defs>
  <style type="text/css">
*{stroke-linecap:butt;stroke-linejoin:round;}
  </style>
 </defs>
 <g id="figure_1">
  <g id="patch_1">
   <path d="M 0 104.56 
L 133 104.56 
L 133 0 
L 0 0 
z
" style="fill:#ffffff;"/>
  </g>
  <g id="axes_1">
   <g id="patch_2">
    <path d="M 10.7 93.86 
L 122.3 93.86 
L 122.3 10.7 
L 10.7 10.7 
z
" style="fill:#ffffff;"/>
   </g>
   <g id="patch_3">
    <path clip-path="url(#p44cc527d82)" d="M 15.772727 87.400971 
L 16.383899 87.400971 
L 16.383899 71.385792 
L 15.772727 71.385792 
z
" style="fill:#1d1d1d;"/>
   </g>
   <g id="patch_4">
    <path clip-path="url(#p44cc527d82)" d="M 16.282037 87.400971 
L 16.893209 87.400971 
L 16.893209 71.191738 
L 16.282037 71.191738 
z
" style="fill:#1d1d1d;"/>
   </g>
   <g id="patch_5">
    <path clip-path="url(#p44cc527d82)" d="M 16.791347 87.400971 
L 17.402519 87.400971 
L 17.402519 70.910654 
L 16.791347 70.910654 
z
" style="fill:#1d1d1d;"/>
   </g>
   <g id="patch_6">
    <path clip-path="url(#p44cc527d82)" d="M 17.300657 87.400971 
L 17.911829 87.400971 
L 17.911829 70.614197 
L 17.300657 70.614197 
z
" style="fill:#1d1d1d;"/>
   </g>
   <g id="patch_7">
    <path clip-path="url(#p44cc527d82)" d="M 17.809967 87.400971 
L 18.421139 87.400971 
L 18.421139 70.491243 
L 17.809967 70.491243 
z
" style="fill:#1d1d1d;"/>
   </g>
   <g id="patch_8">
    <path clip-path="url(#p44cc527d82)" d="M 18.319277 87.400971 
L 18.930449 87.400971 
L 18.930449 70.102041 
L 18.319277 70.102041 
z
" style="fill:#1d1d1d;"/>
   </g>
   <g id="patch_9">
    <path clip-path="url(#p44cc527d82)" d="M 18.828587 87.400971 
L 19.439759 87.400971 
L 19.439759 70.082804 
L 18.828587 70.082804 
z
" style="fill:#1d1d1d;"/>
   </g>
   <g id="patch_10">
    <path clip-path="url(#p44cc527d82)" d="M 19.337897 87.400971 
L 19.949069 87.400971 
L 19.949069 70.02026 
L 19.337897 70.02026 
z
" style="fill:#1d1d1d;"/>
   </g>
   <g id="patch_11">
    <path clip-path="url(#p44cc527d82)" d="M 19.847207 87.400971 
L 20.458379 87.400971 
L 20.458379 69.94054 
L 19.847207 69.94054 
z
" style="fill:#1d1d1d;"/>
   </g>
   <g id="patch_12">
    <path clip-path="url(#p44cc527d82)" d="M 20.356517 87.400971 
L 20.967689 87.400971 
L 20.967689 69.844348 
L 20.356517 69.844348 
z
" style="fill:#1d1d1d;"/>
   </g>
   <g id="patch_13">
    <path clip-path="url(#p44cc527d82)" d="M 20.865827 87.400971 
L 21.476999 87.400971 
L 21.476999 69.649473 
L 20.865827 69.649473 
z
" style="fill:#1d1d1d;"/>
   </g>
   <g id="patch_14">
    <path clip-path="url(#p44cc527d82)" d="M 21.375137 87.400971 
L 21.986309 87.400971 
L 21.986309 69.609329 
L 21.375137 69.609329 
z
" style="fill:#1d1d1d;"/>
   </g>
   <g id="patch_15">
    <path clip-path="url(#p44cc527d82)" d="M 21.884447 87.400971 
L 22.495619 87.400971 
L 22.495619 69.176917 
L 21.884447 69.176917 
z
" style="fill:#1d1d1d;"/>
   </g>
   <g id="patch_16">
    <path clip-path="url(#p44cc527d82)" d="M 22.393757 87.400971 
L 23.004929 87.400971 
L 23.004929 68.293326 
L 22.393757 68.293326 
z
" style="fill:#1d1d1d;"/>
   </g>
   <g id="patch_17">
    <path clip-path="url(#p44cc527d82)" d="M 22.903067 87.400971 
L 23.514239 87.400971 
L 23.514239 68.191135 
L 22.903067 68.191135 
z
" style="fill:#1d1d1d;"/>
   </g>
   <g id="patch_18">
    <path clip-path="url(#p44cc527d82)" d="M 23.412377 87.400971 
L 24.023549 87.400971 
L 24.023549 68.126002 
L 23.412377 68.126002 
z
" style="fill:#1d1d1d;"/>
   </g>
   <g id="patch_19">
    <path clip-path="url(#p44cc527d82)" d="M 23.921687 87.400971 
L 24.532859 87.400971 
L 24.532859 67.984446 
L 23.921687 67.984446 
z
" style="fill:#1d1d1d;"/>
   </g>
   <g id="patch_20">
    <path clip-path="url(#p44cc527d82)" d="M 24.430997 87.400971 
L 25.042169 87.400971 
L 25.042169 67.865516 
L 24.430997 67.865516 
z
" style="fill:#1d1d1d;"/>
   </g>
   <g id="patch_21">
    <path clip-path="url(#p44cc527d82)" d="M 24.940307 87.400971 
L 25.551479 87.400971 
L 25.551479 67.473326 
L 24.940307 67.473326 
z
" style="fill:#1d1d1d;"/>
   </g>
   <g id="patch_22">
    <path clip-path="url(#p44cc527d82)" d="M 25.449617 87.400971 
L 26.060789 87.400971 
L 26.060789 67.461266 
L 25.449617 67.461266 
z
" style="fill:#1d1d1d;"/>
   </g>
   <g id="patch_23">
    <path clip-path="url(#p44cc527d82)" d="M 25.958927 87.400971 
L 26.570099 87.400971 
L 26.570099 67.377948 
L 25.958927 67.377948 
z
" style="fill:#1d1d1d;"/>
   </g>
   <g id="patch_24">
    <path clip-path="url(#p44cc527d82)" d="M 26.468237 87.400971 
L 27.079409 87.400971 
L 27.079409 67.129628 
L 26.468237 67.129628 
z
" style="fill:#1d1d1d;"/>
   </g>
   <g id="patch_25">
    <path clip-path="url(#p44cc527d82)" d="M 26.977547 87.400971 
L 27.588719 87.400971 
L 27.588719 67.093538 
L 26.977547 67.093538 
z
" style="fill:#1d1d1d;"/>
   </g>
   <g id="patch_26">
    <path clip-path="url(#p44cc527d82)" d="M 27.486857 87.400971 
L 28.098028 87.400971 
L 28.098028 67.086066 
L 27.486857 67.086066 
z
" style="fill:#1d1d1d;"/>
   </g>
   <g id="patch_27">
    <path clip-path="url(#p44cc527d82)" d="M 27.996166 87.400971 
L 28.607338 87.400971 
L 28.607338 67.044476 
L 27.996166 67.044476 
z
" style="fill:#1d1d1d;"/>
   </g>
   <g id="patch_28">
    <path clip-path="url(#p44cc527d82)" d="M 28.505476 87.400971 
L 29.116648 87.400971 
L 29.116648 66.990528 
L 28.505476 66.990528 
z
" style="fill:#1d1d1d;"/>
   </g>
   <g id="patch_29">
    <path clip-path="url(#p44cc527d82)" d="M 29.014786 87.400971 
L 29.625958 87.400971 
L 29.625958 66.805367 
L 29.014786 66.805367 
z
" style="fill:#1d1d1d;"/>
   </g>
   <g id="patch_30">
    <path clip-path="url(#p44cc527d82)" d="M 29.524096 87.400971 
L 30.135268 87.400971 
L 30.135268 66.801227 
L 29.524096 66.801227 
z
" style="fill:#1d1d1d;"/>
   </g>
   <g id="patch_31">
    <path clip-path="url(#p44cc527d82)" d="M 30.033406 87.400971 
L 30.644578 87.400971 
L 30.644578 66.570847 
L 30.033406 66.570847 
z
" style="fill:#1d1d1d;"/>
   </g>
   <g id="patch_32">
    <path clip-path="url(#p44cc527d82)" d="M 30.542716 87.400971 
L 31.153888 87.400971 
L 31.153888 66.321302 
L 30.542716 66.321302 
z
" style="fill:#1d1d1d;"/>
   </g>
   <g id="patch_33">
    <path clip-path="url(#p44cc527d82)" d="M 31.052026 87.400971 
L 31.663198 87.400971 
L 31.663198 66.212554 
L 31.052026 66.212554 
z
" style="fill:#1d1d1d;"/>
   </g>
   <g id="patch_34">
    <path clip-path="url(#p44cc527d82)" d="M 31.561336 87.400971 
L 32.172508 87.400971 
L 32.172508 66.089411 
L 31.561336 66.089411 
z
" style="fill:#1d1d1d;"/>
   </g>
   <g id="patch_35">
    <path clip-path="url(#p44cc527d82)" d="M 32.070646 87.400971 
L 32.681818 87.400971 
L 32.681818 65.551542 
L 32.070646 65.551542 
z
" style="fill:#1d1d1d;"/>
   </g>
   <g id="patch_36">
    <path clip-path="url(#p44cc527d82)" d="M 32.579956 87.400971 
L 33.191128 87.400971 
L 33.191128 65.241575 
L 32.579956 65.241575 
z
" style="fill:#1d1d1d;"/>
   </g>
   <g id="patch_37">
    <path clip-path="url(#p44cc527d82)" d="M 33.089266 87.400971 
L 33.700438 87.400971 
L 33.700438 65.073179 
L 33.089266 65.073179 
z
" style="fill:#1d1d1d;"/>
   </g>
   <g id="patch_38">
    <path clip-path="url(#p44cc527d82)" d="M 33.598576 87.400971 
L 34.209748 87.400971 
L 34.209748 65.020476 
L 33.598576 65.020476 
z
" style="fill:#1d1d1d;"/>
   </g>
   <g id="patch_39">
    <path clip-path="url(#p44cc527d82)" d="M 34.107886 87.400971 
L 34.719058 87.400971 
L 34.719058 65.01196 
L 34.107886 65.01196 
z
" style="fill:#1d1d1d;"/>
   </g>
   <g id="patch_40">
    <path clip-path="url(#p44cc527d82)" d="M 34.617196 87.400971 
L 35.228368 87.400971 
L 35.228368 64.535065 
L 34.617196 64.535065 
z
" style="fill:#1d1d1d;"/>
   </g>
   <g id="patch_41">
    <path clip-path="url(#p44cc527d82)" d="M 35.126506 87.400971 
L 35.737678 87.400971 
L 35.737678 64.522984 
L 35.126506 64.522984 
z
" style="fill:#1d1d1d;"/>
   </g>
   <g id="patch_42">
    <path clip-path="url(#p44cc527d82)" d="M 35.635816 87.400971 
L 36.246988 87.400971 
L 36.246988 64.263485 
L 35.635816 64.263485 
z
" style="fill:#1d1d1d;"/>
   </g>
   <g id="patch_43">
    <path clip-path="url(#p44cc527d82)" d="M 36.145126 87.400971 
L 36.756298 87.400971 
L 36.756298 63.935091 
L 36.145126 63.935091 
z
" style="fill:#1d1d1d;"/>
   </g>
   <g id="patch_44">
    <path clip-path="url(#p44cc527d82)" d="M 36.654436 87.400971 
L 37.265608 87.400971 
L 37.265608 63.831002 
L 36.654436 63.831002 
z
" style="fill:#1d1d1d;"/>
   </g>
   <g id="patch_45">
    <path clip-path="url(#p44cc527d82)" d="M 37.163746 87.400971 
L 37.774918 87.400971 
L 37.774918 63.746521 
L 37.163746 63.746521 
z
" style="fill:#1d1d1d;"/>
   </g>
   <g id="patch_46">
    <path clip-path="url(#p44cc527d82)" d="M 37.673056 87.400971 
L 38.284228 87.400971 
L 38.284228 63.6283 
L 37.673056 63.6283 
z
" style="fill:#1d1d1d;"/>
   </g>
   <g id="patch_47">
    <path clip-path="url(#p44cc527d82)" d="M 38.182366 87.400971 
L 38.793538 87.400971 
L 38.793538 63.578295 
L 38.182366 63.578295 
z
" style="fill:#1d1d1d;"/>
   </g>
   <g id="patch_48">
    <path clip-path="url(#p44cc527d82)" d="M 38.691676 87.400971 
L 39.302848 87.400971 
L 39.302848 63.065187 
L 38.691676 63.065187 
z
" style="fill:#1d1d1d;"/>
   </g>
   <g id="patch_49">
    <path clip-path="url(#p44cc527d82)" d="M 39.200986 87.400971 
L 39.812158 87.400971 
L 39.812158 62.764243 
L 39.200986 62.764243 
z
" style="fill:#1d1d1d;"/>
   </g>
   <g id="patch_50">
    <path clip-path="url(#p44cc527d82)" d="M 39.710296 87.400971 
L 40.321468 87.400971 
L 40.321468 62.319609 
L 39.710296 62.319609 
z
" style="fill:#1d1d1d;"/>
   </g>
   <g id="patch_51">
    <path clip-path="url(#p44cc527d82)" d="M 40.219606 87.400971 
L 40.830778 87.400971 
L 40.830778 62.275262 
L 40.219606 62.275262 
z
" style="fill:#1d1d1d;"/>
   </g>
   <g id="patch_52">
    <path clip-path="url(#p44cc527d82)" d="M 40.728916 87.400971 
L 41.340088 87.400971 
L 41.340088 61.605349 
L 40.728916 61.605349 
z
" style="fill:#1d1d1d;"/>
   </g>
   <g id="patch_53">
    <path clip-path="url(#p44cc527d82)" d="M 41.238226 87.400971 
L 41.849398 87.400971 
L 41.849398 61.304965 
L 41.238226 61.304965 
z
" style="fill:#1d1d1d;"/>
   </g>
   <g id="patch_54">
    <path clip-path="url(#p44cc527d82)" d="M 41.747536 87.400971 
L 42.358708 87.400971 
L 42.358708 60.934386 
L 41.747536 60.934386 
z
" style="fill:#1d1d1d;"/>
   </g>
   <g id="patch_55">
    <path clip-path="url(#p44cc527d82)" d="M 42.256846 87.400971 
L 42.868018 87.400971 
L 42.868018 60.001149 
L 42.256846 60.001149 
z
" style="fill:#1d1d1d;"/>
   </g>
   <g id="patch_56">
    <path clip-path="url(#p44cc527d82)" d="M 42.766156 87.400971 
L 43.377327 87.400971 
L 43.377327 59.989696 
L 42.766156 59.989696 
z
" style="fill:#1d1d1d;"/>
   </g>
   <g id="patch_57">
    <path clip-path="url(#p44cc527d82)" d="M 43.275465 87.400971 
L 43.886637 87.400971 
L 43.886637 59.782158 
L 43.275465 59.782158 
z
" style="fill:#1d1d1d;"/>
   </g>
   <g id="patch_58">
    <path clip-path="url(#p44cc527d82)" d="M 43.784775 87.400971 
L 44.395947 87.400971 
L 44.395947 59.603566 
L 43.784775 59.603566 
z
" style="fill:#1d1d1d;"/>
   </g>
   <g id="patch_59">
    <path clip-path="url(#p44cc527d82)" d="M 44.294085 87.400971 
L 44.905257 87.400971 
L 44.905257 59.58749 
L 44.294085 59.58749 
z
" style="fill:#1d1d1d;"/>
   </g>
   <g id="patch_60">
    <path clip-path="url(#p44cc527d82)" d="M 44.803395 87.400971 
L 45.414567 87.400971 
L 45.414567 59.583252 
L 44.803395 59.583252 
z
" style="fill:#1d1d1d;"/>
   </g>
   <g id="patch_61">
    <path clip-path="url(#p44cc527d82)" d="M 45.312705 87.400971 
L 45.923877 87.400971 
L 45.923877 59.021332 
L 45.312705 59.021332 
z
" style="fill:#1d1d1d;"/>
   </g>
   <g id="patch_62">
    <path clip-path="url(#p44cc527d82)" d="M 45.822015 87.400971 
L 46.433187 87.400971 
L 46.433187 58.653278 
L 45.822015 58.653278 
z
" style="fill:#1d1d1d;"/>
   </g>
   <g id="patch_63">
    <path clip-path="url(#p44cc527d82)" d="M 46.331325 87.400971 
L 46.942497 87.400971 
L 46.942497 58.353271 
L 46.331325 58.353271 
z
" style="fill:#1d1d1d;"/>
   </g>
   <g id="patch_64">
    <path clip-path="url(#p44cc527d82)" d="M 46.840635 87.400971 
L 47.451807 87.400971 
L 47.451807 58.207112 
L 46.840635 58.207112 
z
" style="fill:#1d1d1d;"/>
   </g>
   <g id="patch_65">
    <path clip-path="url(#p44cc527d82)" d="M 47.349945 87.400971 
L 47.961117 87.400971 
L 47.961117 56.875709 
L 47.349945 56.875709 
z
" style="fill:#1d1d1d;"/>
   </g>
   <g id="patch_66">
    <path clip-path="url(#p44cc527d82)" d="M 47.859255 87.400971 
L 48.470427 87.400971 
L 48.470427 54.505485 
L 47.859255 54.505485 
z
" style="fill:#1d1d1d;"/>
   </g>
   <g id="patch_67">
    <path clip-path="url(#p44cc527d82)" d="M 48.368565 87.400971 
L 48.979737 87.400971 
L 48.979737 54.134828 
L 48.368565 54.134828 
z
" style="fill:#1d1d1d;"/>
   </g>
   <g id="patch_68">
    <path clip-path="url(#p44cc527d82)" d="M 48.877875 87.400971 
L 49.489047 87.400971 
L 49.489047 53.609402 
L 48.877875 53.609402 
z
" style="fill:#1d1d1d;"/>
   </g>
   <g id="patch_69">
    <path clip-path="url(#p44cc527d82)" d="M 49.387185 87.400971 
L 49.998357 87.400971 
L 49.998357 52.04564 
L 49.387185 52.04564 
z
" style="fill:#1d1d1d;"/>
   </g>
   <g id="patch_70">
    <path clip-path="url(#p44cc527d82)" d="M 49.896495 87.400971 
L 50.507667 87.400971 
L 50.507667 51.748559 
L 49.896495 51.748559 
z
" style="fill:#1d1d1d;"/>
   </g>
   <g id="patch_71">
    <path clip-path="url(#p44cc527d82)" d="M 50.405805 87.400971 
L 51.016977 87.400971 
L 51.016977 51.573928 
L 50.405805 51.573928 
z
" style="fill:#1d1d1d;"/>
   </g>
   <g id="patch_72">
    <path clip-path="url(#p44cc527d82)" d="M 50.915115 87.400971 
L 51.526287 87.400971 
L 51.526287 51.495421 
L 50.915115 51.495421 
z
" style="fill:#1d1d1d;"/>
   </g>
   <g id="patch_73">
    <path clip-path="url(#p44cc527d82)" d="M 51.424425 87.400971 
L 52.035597 87.400971 
L 52.035597 50.938815 
L 51.424425 50.938815 
z
" style="fill:#1d1d1d;"/>
   </g>
   <g id="patch_74">
    <path clip-path="url(#p44cc527d82)" d="M 51.933735 87.400971 
L 52.544907 87.400971 
L 52.544907 50.889609 
L 51.933735 50.889609 
z
" style="fill:#1d1d1d;"/>
   </g>
   <g id="patch_75">
    <path clip-path="url(#p44cc527d82)" d="M 52.443045 87.400971 
L 53.054217 87.400971 
L 53.054217 50.503575 
L 52.443045 50.503575 
z
" style="fill:#1d1d1d;"/>
   </g>
   <g id="patch_76">
    <path clip-path="url(#p44cc527d82)" d="M 52.952355 87.400971 
L 53.563527 87.400971 
L 53.563527 49.653102 
L 52.952355 49.653102 
z
" style="fill:#1d1d1d;"/>
   </g>
   <g id="patch_77">
    <path clip-path="url(#p44cc527d82)" d="M 53.461665 87.400971 
L 54.072837 87.400971 
L 54.072837 49.414914 
L 53.461665 49.414914 
z
" style="fill:#1d1d1d;"/>
   </g>
   <g id="patch_78">
    <path clip-path="url(#p44cc527d82)" d="M 53.970975 87.400971 
L 54.582147 87.400971 
L 54.582147 48.804683 
L 53.970975 48.804683 
z
" style="fill:#1d1d1d;"/>
   </g>
   <g id="patch_79">
    <path clip-path="url(#p44cc527d82)" d="M 54.480285 87.400971 
L 55.091457 87.400971 
L 55.091457 48.746042 
L 54.480285 48.746042 
z
" style="fill:#1d1d1d;"/>
   </g>
   <g id="patch_80">
    <path clip-path="url(#p44cc527d82)" d="M 54.989595 87.400971 
L 55.600767 87.400971 
L 55.600767 48.713052 
L 54.989595 48.713052 
z
" style="fill:#1d1d1d;"/>
   </g>
   <g id="patch_81">
    <path clip-path="url(#p44cc527d82)" d="M 55.498905 87.400971 
L 56.110077 87.400971 
L 56.110077 48.419865 
L 55.498905 48.419865 
z
" style="fill:#1d1d1d;"/>
   </g>
   <g id="patch_82">
    <path clip-path="url(#p44cc527d82)" d="M 56.008215 87.400971 
L 56.619387 87.400971 
L 56.619387 46.686472 
L 56.008215 46.686472 
z
" style="fill:#1d1d1d;"/>
   </g>
   <g id="patch_83">
    <path clip-path="url(#p44cc527d82)" d="M 56.517525 87.400971 
L 57.128697 87.400971 
L 57.128697 42.769578 
L 56.517525 42.769578 
z
" style="fill:#1d1d1d;"/>
   </g>
   <g id="patch_84">
    <path clip-path="url(#p44cc527d82)" d="M 57.026835 87.400971 
L 57.638007 87.400971 
L 57.638007 42.28271 
L 57.026835 42.28271 
z
" style="fill:#1d1d1d;"/>
   </g>
   <g id="patch_85">
    <path clip-path="url(#p44cc527d82)" d="M 57.536145 87.400971 
L 58.147317 87.400971 
L 58.147317 42.260929 
L 57.536145 42.260929 
z
" style="fill:#1d1d1d;"/>
   </g>
   <g id="patch_86">
    <path clip-path="url(#p44cc527d82)" d="M 58.045455 87.400971 
L 58.656627 87.400971 
L 58.656627 40.646716 
L 58.045455 40.646716 
z
" style="fill:#1d1d1d;"/>
   </g>
   <g id="patch_87">
    <path clip-path="url(#p44cc527d82)" d="M 58.554765 87.400971 
L 59.165936 87.400971 
L 59.165936 37.593273 
L 58.554765 37.593273 
z
" style="fill:#1d1d1d;"/>
   </g>
   <g id="patch_88">
    <path clip-path="url(#p44cc527d82)" d="M 59.064074 87.400971 
L 59.675246 87.400971 
L 59.675246 37.142687 
L 59.064074 37.142687 
z
" style="fill:#1d1d1d;"/>
   </g>
   <g id="patch_89">
    <path clip-path="url(#p44cc527d82)" d="M 59.573384 87.400971 
L 60.184556 87.400971 
L 60.184556 35.157373 
L 59.573384 35.157373 
z
" style="fill:#1d1d1d;"/>
   </g>
   <g id="patch_90">
    <path clip-path="url(#p44cc527d82)" d="M 60.082694 87.400971 
L 60.693866 87.400971 
L 60.693866 32.578689 
L 60.082694 32.578689 
z
" style="fill:#1d1d1d;"/>
   </g>
   <g id="patch_91">
    <path clip-path="url(#p44cc527d82)" d="M 60.592004 87.400971 
L 61.203176 87.400971 
L 61.203176 31.405 
L 60.592004 31.405 
z
" style="fill:#1d1d1d;"/>
   </g>
   <g id="patch_92">
    <path clip-path="url(#p44cc527d82)" d="M 61.101314 87.400971 
L 61.712486 87.400971 
L 61.712486 30.705955 
L 61.101314 30.705955 
z
" style="fill:#1d1d1d;"/>
   </g>
   <g id="patch_93">
    <path clip-path="url(#p44cc527d82)" d="M 61.610624 87.400971 
L 62.221796 87.400971 
L 62.221796 29.839299 
L 61.610624 29.839299 
z
" style="fill:#1d1d1d;"/>
   </g>
   <g id="patch_94">
    <path clip-path="url(#p44cc527d82)" d="M 62.119934 87.400971 
L 62.731106 87.400971 
L 62.731106 29.774067 
L 62.119934 29.774067 
z
" style="fill:#1d1d1d;"/>
   </g>
   <g id="patch_95">
    <path clip-path="url(#p44cc527d82)" d="M 62.629244 87.400971 
L 63.240416 87.400971 
L 63.240416 29.551788 
L 62.629244 29.551788 
z
" style="fill:#1d1d1d;"/>
   </g>
   <g id="patch_96">
    <path clip-path="url(#p44cc527d82)" d="M 63.138554 87.400971 
L 63.749726 87.400971 
L 63.749726 29.492805 
L 63.138554 29.492805 
z
" style="fill:#1d1d1d;"/>
   </g>
   <g id="patch_97">
    <path clip-path="url(#p44cc527d82)" d="M 63.647864 87.400971 
L 64.259036 87.400971 
L 64.259036 28.254851 
L 63.647864 28.254851 
z
" style="fill:#1d1d1d;"/>
   </g>
   <g id="patch_98">
    <path clip-path="url(#p44cc527d82)" d="M 64.157174 87.400971 
L 64.768346 87.400971 
L 64.768346 23.009862 
L 64.157174 23.009862 
z
" style="fill:#1d1d1d;"/>
   </g>
   <g id="patch_99">
    <path clip-path="url(#p44cc527d82)" d="M 64.666484 87.400971 
L 65.277656 87.400971 
L 65.277656 21.440501 
L 64.666484 21.440501 
z
" style="fill:#1d1d1d;"/>
   </g>
   <g id="patch_100">
    <path clip-path="url(#p44cc527d82)" d="M 65.175794 87.400971 
L 65.786966 87.400971 
L 65.786966 21.060168 
L 65.175794 21.060168 
z
" style="fill:#1d1d1d;"/>
   </g>
   <g id="patch_101">
    <path clip-path="url(#p44cc527d82)" d="M 65.685104 87.400971 
L 66.296276 87.400971 
L 66.296276 14.412309 
L 65.685104 14.412309 
z
" style="fill:#1d1d1d;"/>
   </g>
   <g id="patch_102">
    <path clip-path="url(#p44cc527d82)" d="M 66.194414 87.400971 
L 66.805586 87.400971 
L 66.805586 10.351509 
L 66.194414 10.351509 
z
" style="fill:#1d1d1d;"/>
   </g>
   <g id="patch_103">
    <path clip-path="url(#p44cc527d82)" d="M 66.194414 87.400971 
L 66.805586 87.400971 
L 66.805586 10.351509 
L 66.194414 10.351509 
z
" style="fill:#1d1d1d;"/>
   </g>
   <g id="patch_104">
    <path clip-path="url(#p44cc527d82)" d="M 66.703724 87.400971 
L 67.314896 87.400971 
L 67.314896 10.213837 
L 66.703724 10.213837 
z
" style="fill:#1d1d1d;"/>
   </g>
   <g id="patch_105">
    <path clip-path="url(#p44cc527d82)" d="M 67.213034 87.400971 
L 67.824206 87.400971 
L 67.824206 11.804231 
L 67.213034 11.804231 
z
" style="fill:#1d1d1d;"/>
   </g>
   <g id="patch_106">
    <path clip-path="url(#p44cc527d82)" d="M 67.722344 87.400971 
L 68.333516 87.400971 
L 68.333516 12.357345 
L 67.722344 12.357345 
z
" style="fill:#1d1d1d;"/>
   </g>
   <g id="patch_107">
    <path clip-path="url(#p44cc527d82)" d="M 68.231654 87.400971 
L 68.842826 87.400971 
L 68.842826 19.792094 
L 68.231654 19.792094 
z
" style="fill:#1d1d1d;"/>
   </g>
   <g id="patch_108">
    <path clip-path="url(#p44cc527d82)" d="M 68.740964 87.400971 
L 69.352136 87.400971 
L 69.352136 22.820618 
L 68.740964 22.820618 
z
" style="fill:#1d1d1d;"/>
   </g>
   <g id="patch_109">
    <path clip-path="url(#p44cc527d82)" d="M 69.250274 87.400971 
L 69.861446 87.400971 
L 69.861446 23.66705 
L 69.250274 23.66705 
z
" style="fill:#1d1d1d;"/>
   </g>
   <g id="patch_110">
    <path clip-path="url(#p44cc527d82)" d="M 69.759584 87.400971 
L 70.370756 87.400971 
L 70.370756 26.370758 
L 69.759584 26.370758 
z
" style="fill:#1d1d1d;"/>
   </g>
   <g id="patch_111">
    <path clip-path="url(#p44cc527d82)" d="M 70.268894 87.400971 
L 70.880066 87.400971 
L 70.880066 27.628815 
L 70.268894 27.628815 
z
" style="fill:#1d1d1d;"/>
   </g>
   <g id="patch_112">
    <path clip-path="url(#p44cc527d82)" d="M 70.778204 87.400971 
L 71.389376 87.400971 
L 71.389376 31.029516 
L 70.778204 31.029516 
z
" style="fill:#1d1d1d;"/>
   </g>
   <g id="patch_113">
    <path clip-path="url(#p44cc527d82)" d="M 71.287514 87.400971 
L 71.898686 87.400971 
L 71.898686 34.96231 
L 71.287514 34.96231 
z
" style="fill:#1d1d1d;"/>
   </g>
   <g id="patch_114">
    <path clip-path="url(#p44cc527d82)" d="M 71.796824 87.400971 
L 72.407996 87.400971 
L 72.407996 34.993118 
L 71.796824 34.993118 
z
" style="fill:#1d1d1d;"/>
   </g>
   <g id="patch_115">
    <path clip-path="url(#p44cc527d82)" d="M 72.306134 87.400971 
L 72.917306 87.400971 
L 72.917306 35.780377 
L 72.306134 35.780377 
z
" style="fill:#1d1d1d;"/>
   </g>
   <g id="patch_116">
    <path clip-path="url(#p44cc527d82)" d="M 72.815444 87.400971 
L 73.426616 87.400971 
L 73.426616 37.442482 
L 72.815444 37.442482 
z
" style="fill:#1d1d1d;"/>
   </g>
   <g id="patch_117">
    <path clip-path="url(#p44cc527d82)" d="M 73.324754 87.400971 
L 73.935926 87.400971 
L 73.935926 38.089227 
L 73.324754 38.089227 
z
" style="fill:#1d1d1d;"/>
   </g>
   <g id="patch_118">
    <path clip-path="url(#p44cc527d82)" d="M 73.834064 87.400971 
L 74.445235 87.400971 
L 74.445235 38.719713 
L 73.834064 38.719713 
z
" style="fill:#1d1d1d;"/>
   </g>
   <g id="patch_119">
    <path clip-path="url(#p44cc527d82)" d="M 74.343373 87.400971 
L 74.954545 87.400971 
L 74.954545 39.20082 
L 74.343373 39.20082 
z
" style="fill:#1d1d1d;"/>
   </g>
   <g id="patch_120">
    <path clip-path="url(#p44cc527d82)" d="M 74.852683 87.400971 
L 75.463855 87.400971 
L 75.463855 39.70391 
L 74.852683 39.70391 
z
" style="fill:#1d1d1d;"/>
   </g>
   <g id="patch_121">
    <path clip-path="url(#p44cc527d82)" d="M 75.361993 87.400971 
L 75.973165 87.400971 
L 75.973165 40.73752 
L 75.361993 40.73752 
z
" style="fill:#1d1d1d;"/>
   </g>
   <g id="patch_122">
    <path clip-path="url(#p44cc527d82)" d="M 75.871303 87.400971 
L 76.482475 87.400971 
L 76.482475 40.81274 
L 75.871303 40.81274 
z
" style="fill:#1d1d1d;"/>
   </g>
   <g id="patch_123">
    <path clip-path="url(#p44cc527d82)" d="M 76.380613 87.400971 
L 76.991785 87.400971 
L 76.991785 42.732367 
L 76.380613 42.732367 
z
" style="fill:#1d1d1d;"/>
   </g>
   <g id="patch_124">
    <path clip-path="url(#p44cc527d82)" d="M 76.889923 87.400971 
L 77.501095 87.400971 
L 77.501095 43.44901 
L 76.889923 43.44901 
z
" style="fill:#1d1d1d;"/>
   </g>
   <g id="patch_125">
    <path clip-path="url(#p44cc527d82)" d="M 77.399233 87.400971 
L 78.010405 87.400971 
L 78.010405 43.732881 
L 77.399233 43.732881 
z
" style="fill:#1d1d1d;"/>
   </g>
   <g id="patch_126">
    <path clip-path="url(#p44cc527d82)" d="M 77.908543 87.400971 
L 78.519715 87.400971 
L 78.519715 45.086098 
L 77.908543 45.086098 
z
" style="fill:#1d1d1d;"/>
   </g>
   <g id="patch_127">
    <path clip-path="url(#p44cc527d82)" d="M 78.417853 87.400971 
L 79.029025 87.400971 
L 79.029025 45.102057 
L 78.417853 45.102057 
z
" style="fill:#1d1d1d;"/>
   </g>
   <g id="patch_128">
    <path clip-path="url(#p44cc527d82)" d="M 78.927163 87.400971 
L 79.538335 87.400971 
L 79.538335 45.995221 
L 78.927163 45.995221 
z
" style="fill:#1d1d1d;"/>
   </g>
   <g id="patch_129">
    <path clip-path="url(#p44cc527d82)" d="M 79.436473 87.400971 
L 80.047645 87.400971 
L 80.047645 46.244655 
L 79.436473 46.244655 
z
" style="fill:#1d1d1d;"/>
   </g>
   <g id="patch_130">
    <path clip-path="url(#p44cc527d82)" d="M 79.945783 87.400971 
L 80.556955 87.400971 
L 80.556955 47.90917 
L 79.945783 47.90917 
z
" style="fill:#1d1d1d;"/>
   </g>
   <g id="patch_131">
    <path clip-path="url(#p44cc527d82)" d="M 80.455093 87.400971 
L 81.066265 87.400971 
L 81.066265 47.963569 
L 80.455093 47.963569 
z
" style="fill:#1d1d1d;"/>
   </g>
   <g id="patch_132">
    <path clip-path="url(#p44cc527d82)" d="M 80.964403 87.400971 
L 81.575575 87.400971 
L 81.575575 48.221423 
L 80.964403 48.221423 
z
" style="fill:#1d1d1d;"/>
   </g>
   <g id="patch_133">
    <path clip-path="url(#p44cc527d82)" d="M 81.473713 87.400971 
L 82.084885 87.400971 
L 82.084885 48.46644 
L 81.473713 48.46644 
z
" style="fill:#1d1d1d;"/>
   </g>
   <g id="patch_134">
    <path clip-path="url(#p44cc527d82)" d="M 81.983023 87.400971 
L 82.594195 87.400971 
L 82.594195 49.295103 
L 81.983023 49.295103 
z
" style="fill:#1d1d1d;"/>
   </g>
   <g id="patch_135">
    <path clip-path="url(#p44cc527d82)" d="M 82.492333 87.400971 
L 83.103505 87.400971 
L 83.103505 49.375925 
L 82.492333 49.375925 
z
" style="fill:#1d1d1d;"/>
   </g>
   <g id="patch_136">
    <path clip-path="url(#p44cc527d82)" d="M 83.001643 87.400971 
L 83.612815 87.400971 
L 83.612815 50.704958 
L 83.001643 50.704958 
z
" style="fill:#1d1d1d;"/>
   </g>
   <g id="patch_137">
    <path clip-path="url(#p44cc527d82)" d="M 83.510953 87.400971 
L 84.122125 87.400971 
L 84.122125 51.000267 
L 83.510953 51.000267 
z
" style="fill:#1d1d1d;"/>
   </g>
   <g id="patch_138">
    <path clip-path="url(#p44cc527d82)" d="M 84.020263 87.400971 
L 84.631435 87.400971 
L 84.631435 51.270309 
L 84.020263 51.270309 
z
" style="fill:#1d1d1d;"/>
   </g>
   <g id="patch_139">
    <path clip-path="url(#p44cc527d82)" d="M 84.529573 87.400971 
L 85.140745 87.400971 
L 85.140745 52.214656 
L 84.529573 52.214656 
z
" style="fill:#1d1d1d;"/>
   </g>
   <g id="patch_140">
    <path clip-path="url(#p44cc527d82)" d="M 85.038883 87.400971 
L 85.650055 87.400971 
L 85.650055 53.318835 
L 85.038883 53.318835 
z
" style="fill:#1d1d1d;"/>
   </g>
   <g id="patch_141">
    <path clip-path="url(#p44cc527d82)" d="M 85.548193 87.400971 
L 86.159365 87.400971 
L 86.159365 53.839082 
L 85.548193 53.839082 
z
" style="fill:#1d1d1d;"/>
   </g>
   <g id="patch_142">
    <path clip-path="url(#p44cc527d82)" d="M 86.057503 87.400971 
L 86.668675 87.400971 
L 86.668675 55.444593 
L 86.057503 55.444593 
z
" style="fill:#1d1d1d;"/>
   </g>
   <g id="patch_143">
    <path clip-path="url(#p44cc527d82)" d="M 86.566813 87.400971 
L 87.177985 87.400971 
L 87.177985 55.724381 
L 86.566813 55.724381 
z
" style="fill:#1d1d1d;"/>
   </g>
   <g id="patch_144">
    <path clip-path="url(#p44cc527d82)" d="M 87.076123 87.400971 
L 87.687295 87.400971 
L 87.687295 57.05182 
L 87.076123 57.05182 
z
" style="fill:#1d1d1d;"/>
   </g>
   <g id="patch_145">
    <path clip-path="url(#p44cc527d82)" d="M 87.585433 87.400971 
L 88.196605 87.400971 
L 88.196605 57.85593 
L 87.585433 57.85593 
z
" style="fill:#1d1d1d;"/>
   </g>
   <g id="patch_146">
    <path clip-path="url(#p44cc527d82)" d="M 88.094743 87.400971 
L 88.705915 87.400971 
L 88.705915 57.929394 
L 88.094743 57.929394 
z
" style="fill:#1d1d1d;"/>
   </g>
   <g id="patch_147">
    <path clip-path="url(#p44cc527d82)" d="M 88.604053 87.400971 
L 89.215225 87.400971 
L 89.215225 58.717607 
L 88.604053 58.717607 
z
" style="fill:#1d1d1d;"/>
   </g>
   <g id="patch_148">
    <path clip-path="url(#p44cc527d82)" d="M 89.113363 87.400971 
L 89.724535 87.400971 
L 89.724535 58.924109 
L 89.113363 58.924109 
z
" style="fill:#1d1d1d;"/>
   </g>
   <g id="patch_149">
    <path clip-path="url(#p44cc527d82)" d="M 89.622673 87.400971 
L 90.233844 87.400971 
L 90.233844 59.073635 
L 89.622673 59.073635 
z
" style="fill:#1d1d1d;"/>
   </g>
   <g id="patch_150">
    <path clip-path="url(#p44cc527d82)" d="M 90.131982 87.400971 
L 90.743154 87.400971 
L 90.743154 59.375545 
L 90.131982 59.375545 
z
" style="fill:#1d1d1d;"/>
   </g>
   <g id="patch_151">
    <path clip-path="url(#p44cc527d82)" d="M 90.641292 87.400971 
L 91.252464 87.400971 
L 91.252464 59.654222 
L 90.641292 59.654222 
z
" style="fill:#1d1d1d;"/>
   </g>
   <g id="patch_152">
    <path clip-path="url(#p44cc527d82)" d="M 91.150602 87.400971 
L 91.761774 87.400971 
L 91.761774 59.98024 
L 91.150602 59.98024 
z
" style="fill:#1d1d1d;"/>
   </g>
   <g id="patch_153">
    <path clip-path="url(#p44cc527d82)" d="M 91.659912 87.400971 
L 92.271084 87.400971 
L 92.271084 60.563477 
L 91.659912 60.563477 
z
" style="fill:#1d1d1d;"/>
   </g>
   <g id="patch_154">
    <path clip-path="url(#p44cc527d82)" d="M 92.169222 87.400971 
L 92.780394 87.400971 
L 92.780394 60.966272 
L 92.169222 60.966272 
z
" style="fill:#1d1d1d;"/>
   </g>
   <g id="patch_155">
    <path clip-path="url(#p44cc527d82)" d="M 92.678532 87.400971 
L 93.289704 87.400971 
L 93.289704 61.160301 
L 92.678532 61.160301 
z
" style="fill:#1d1d1d;"/>
   </g>
   <g id="patch_156">
    <path clip-path="url(#p44cc527d82)" d="M 93.187842 87.400971 
L 93.799014 87.400971 
L 93.799014 61.776361 
L 93.187842 61.776361 
z
" style="fill:#1d1d1d;"/>
   </g>
   <g id="patch_157">
    <path clip-path="url(#p44cc527d82)" d="M 93.697152 87.400971 
L 94.308324 87.400971 
L 94.308324 62.087726 
L 93.697152 62.087726 
z
" style="fill:#1d1d1d;"/>
   </g>
   <g id="patch_158">
    <path clip-path="url(#p44cc527d82)" d="M 94.206462 87.400971 
L 94.817634 87.400971 
L 94.817634 62.232627 
L 94.206462 62.232627 
z
" style="fill:#1d1d1d;"/>
   </g>
   <g id="patch_159">
    <path clip-path="url(#p44cc527d82)" d="M 94.715772 87.400971 
L 95.326944 87.400971 
L 95.326944 62.569029 
L 94.715772 62.569029 
z
" style="fill:#1d1d1d;"/>
   </g>
   <g id="patch_160">
    <path clip-path="url(#p44cc527d82)" d="M 95.225082 87.400971 
L 95.836254 87.400971 
L 95.836254 63.095885 
L 95.225082 63.095885 
z
" style="fill:#1d1d1d;"/>
   </g>
   <g id="patch_161">
    <path clip-path="url(#p44cc527d82)" d="M 95.734392 87.400971 
L 96.345564 87.400971 
L 96.345564 63.684822 
L 95.734392 63.684822 
z
" style="fill:#1d1d1d;"/>
   </g>
   <g id="patch_162">
    <path clip-path="url(#p44cc527d82)" d="M 96.243702 87.400971 
L 96.854874 87.400971 
L 96.854874 63.796646 
L 96.243702 63.796646 
z
" style="fill:#1d1d1d;"/>
   </g>
   <g id="patch_163">
    <path clip-path="url(#p44cc527d82)" d="M 96.753012 87.400971 
L 97.364184 87.400971 
L 97.364184 64.054014 
L 96.753012 64.054014 
z
" style="fill:#1d1d1d;"/>
   </g>
   <g id="patch_164">
    <path clip-path="url(#p44cc527d82)" d="M 97.262322 87.400971 
L 97.873494 87.400971 
L 97.873494 64.11821 
L 97.262322 64.11821 
z
" style="fill:#1d1d1d;"/>
   </g>
   <g id="patch_165">
    <path clip-path="url(#p44cc527d82)" d="M 97.771632 87.400971 
L 98.382804 87.400971 
L 98.382804 64.151909 
L 97.771632 64.151909 
z
" style="fill:#1d1d1d;"/>
   </g>
   <g id="patch_166">
    <path clip-path="url(#p44cc527d82)" d="M 98.280942 87.400971 
L 98.892114 87.400971 
L 98.892114 64.978454 
L 98.280942 64.978454 
z
" style="fill:#1d1d1d;"/>
   </g>
   <g id="patch_167">
    <path clip-path="url(#p44cc527d82)" d="M 98.790252 87.400971 
L 99.401424 87.400971 
L 99.401424 65.010572 
L 98.790252 65.010572 
z
" style="fill:#1d1d1d;"/>
   </g>
   <g id="patch_168">
    <path clip-path="url(#p44cc527d82)" d="M 99.299562 87.400971 
L 99.910734 87.400971 
L 99.910734 65.658865 
L 99.299562 65.658865 
z
" style="fill:#1d1d1d;"/>
   </g>
   <g id="patch_169">
    <path clip-path="url(#p44cc527d82)" d="M 99.808872 87.400971 
L 100.420044 87.400971 
L 100.420044 65.805216 
L 99.808872 65.805216 
z
" style="fill:#1d1d1d;"/>
   </g>
   <g id="patch_170">
    <path clip-path="url(#p44cc527d82)" d="M 100.318182 87.400971 
L 100.929354 87.400971 
L 100.929354 66.135661 
L 100.318182 66.135661 
z
" style="fill:#1d1d1d;"/>
   </g>
   <g id="patch_171">
    <path clip-path="url(#p44cc527d82)" d="M 100.827492 87.400971 
L 101.438664 87.400971 
L 101.438664 66.262333 
L 100.827492 66.262333 
z
" style="fill:#1d1d1d;"/>
   </g>
   <g id="patch_172">
    <path clip-path="url(#p44cc527d82)" d="M 101.336802 87.400971 
L 101.947974 87.400971 
L 101.947974 66.282847 
L 101.336802 66.282847 
z
" style="fill:#1d1d1d;"/>
   </g>
   <g id="patch_173">
    <path clip-path="url(#p44cc527d82)" d="M 101.846112 87.400971 
L 102.457284 87.400971 
L 102.457284 66.344119 
L 101.846112 66.344119 
z
" style="fill:#1d1d1d;"/>
   </g>
   <g id="patch_174">
    <path clip-path="url(#p44cc527d82)" d="M 102.355422 87.400971 
L 102.966594 87.400971 
L 102.966594 66.621473 
L 102.355422 66.621473 
z
" style="fill:#1d1d1d;"/>
   </g>
   <g id="patch_175">
    <path clip-path="url(#p44cc527d82)" d="M 102.864732 87.400971 
L 103.475904 87.400971 
L 103.475904 66.729105 
L 102.864732 66.729105 
z
" style="fill:#1d1d1d;"/>
   </g>
   <g id="patch_176">
    <path clip-path="url(#p44cc527d82)" d="M 103.374042 87.400971 
L 103.985214 87.400971 
L 103.985214 67.129929 
L 103.374042 67.129929 
z
" style="fill:#1d1d1d;"/>
   </g>
   <g id="patch_177">
    <path clip-path="url(#p44cc527d82)" d="M 103.883352 87.400971 
L 104.494524 87.400971 
L 104.494524 67.370169 
L 103.883352 67.370169 
z
" style="fill:#1d1d1d;"/>
   </g>
   <g id="patch_178">
    <path clip-path="url(#p44cc527d82)" d="M 104.392662 87.400971 
L 105.003834 87.400971 
L 105.003834 67.389511 
L 104.392662 67.389511 
z
" style="fill:#1d1d1d;"/>
   </g>
   <g id="patch_179">
    <path clip-path="url(#p44cc527d82)" d="M 104.901972 87.400971 
L 105.513143 87.400971 
L 105.513143 67.531527 
L 104.901972 67.531527 
z
" style="fill:#1d1d1d;"/>
   </g>
   <g id="patch_180">
    <path clip-path="url(#p44cc527d82)" d="M 105.411281 87.400971 
L 106.022453 87.400971 
L 106.022453 67.877134 
L 105.411281 67.877134 
z
" style="fill:#1d1d1d;"/>
   </g>
   <g id="patch_181">
    <path clip-path="url(#p44cc527d82)" d="M 105.920591 87.400971 
L 106.531763 87.400971 
L 106.531763 67.93067 
L 105.920591 67.93067 
z
" style="fill:#1d1d1d;"/>
   </g>
   <g id="patch_182">
    <path clip-path="url(#p44cc527d82)" d="M 106.429901 87.400971 
L 107.041073 87.400971 
L 107.041073 68.039639 
L 106.429901 68.039639 
z
" style="fill:#1d1d1d;"/>
   </g>
   <g id="patch_183">
    <path clip-path="url(#p44cc527d82)" d="M 106.939211 87.400971 
L 107.550383 87.400971 
L 107.550383 68.056168 
L 106.939211 68.056168 
z
" style="fill:#1d1d1d;"/>
   </g>
   <g id="patch_184">
    <path clip-path="url(#p44cc527d82)" d="M 107.448521 87.400971 
L 108.059693 87.400971 
L 108.059693 68.251082 
L 107.448521 68.251082 
z
" style="fill:#1d1d1d;"/>
   </g>
   <g id="patch_185">
    <path clip-path="url(#p44cc527d82)" d="M 107.957831 87.400971 
L 108.569003 87.400971 
L 108.569003 68.6067 
L 107.957831 68.6067 
z
" style="fill:#1d1d1d;"/>
   </g>
   <g id="patch_186">
    <path clip-path="url(#p44cc527d82)" d="M 108.467141 87.400971 
L 109.078313 87.400971 
L 109.078313 68.692231 
L 108.467141 68.692231 
z
" style="fill:#1d1d1d;"/>
   </g>
   <g id="patch_187">
    <path clip-path="url(#p44cc527d82)" d="M 108.976451 87.400971 
L 109.587623 87.400971 
L 109.587623 68.739472 
L 108.976451 68.739472 
z
" style="fill:#1d1d1d;"/>
   </g>
   <g id="patch_188">
    <path clip-path="url(#p44cc527d82)" d="M 109.485761 87.400971 
L 110.096933 87.400971 
L 110.096933 68.759251 
L 109.485761 68.759251 
z
" style="fill:#1d1d1d;"/>
   </g>
   <g id="patch_189">
    <path clip-path="url(#p44cc527d82)" d="M 109.995071 87.400971 
L 110.606243 87.400971 
L 110.606243 69.036286 
L 109.995071 69.036286 
z
" style="fill:#1d1d1d;"/>
   </g>
   <g id="patch_190">
    <path clip-path="url(#p44cc527d82)" d="M 110.504381 87.400971 
L 111.115553 87.400971 
L 111.115553 69.223253 
L 110.504381 69.223253 
z
" style="fill:#1d1d1d;"/>
   </g>
   <g id="patch_191">
    <path clip-path="url(#p44cc527d82)" d="M 111.013691 87.400971 
L 111.624863 87.400971 
L 111.624863 69.273589 
L 111.013691 69.273589 
z
" style="fill:#1d1d1d;"/>
   </g>
   <g id="patch_192">
    <path clip-path="url(#p44cc527d82)" d="M 111.523001 87.400971 
L 112.134173 87.400971 
L 112.134173 69.363872 
L 111.523001 69.363872 
z
" style="fill:#1d1d1d;"/>
   </g>
   <g id="patch_193">
    <path clip-path="url(#p44cc527d82)" d="M 112.032311 87.400971 
L 112.643483 87.400971 
L 112.643483 69.419335 
L 112.032311 69.419335 
z
" style="fill:#1d1d1d;"/>
   </g>
   <g id="patch_194">
    <path clip-path="url(#p44cc527d82)" d="M 112.541621 87.400971 
L 113.152793 87.400971 
L 113.152793 70.245878 
L 112.541621 70.245878 
z
" style="fill:#1d1d1d;"/>
   </g>
   <g id="patch_195">
    <path clip-path="url(#p44cc527d82)" d="M 113.050931 87.400971 
L 113.662103 87.400971 
L 113.662103 70.506113 
L 113.050931 70.506113 
z
" style="fill:#1d1d1d;"/>
   </g>
   <g id="patch_196">
    <path clip-path="url(#p44cc527d82)" d="M 113.560241 87.400971 
L 114.171413 87.400971 
L 114.171413 70.740055 
L 113.560241 70.740055 
z
" style="fill:#1d1d1d;"/>
   </g>
   <g id="patch_197">
    <path clip-path="url(#p44cc527d82)" d="M 114.069551 87.400971 
L 114.680723 87.400971 
L 114.680723 70.87118 
L 114.069551 70.87118 
z
" style="fill:#1d1d1d;"/>
   </g>
   <g id="patch_198">
    <path clip-path="url(#p44cc527d82)" d="M 114.578861 87.400971 
L 115.190033 87.400971 
L 115.190033 71.141503 
L 114.578861 71.141503 
z
" style="fill:#1d1d1d;"/>
   </g>
   <g id="patch_199">
    <path clip-path="url(#p44cc527d82)" d="M 115.088171 87.400971 
L 115.699343 87.400971 
L 115.699343 71.236709 
L 115.088171 71.236709 
z
" style="fill:#1d1d1d;"/>
   </g>
   <g id="patch_200">
    <path clip-path="url(#p44cc527d82)" d="M 115.597481 87.400971 
L 116.208653 87.400971 
L 116.208653 71.290004 
L 115.597481 71.290004 
z
" style="fill:#1d1d1d;"/>
   </g>
   <g id="patch_201">
    <path clip-path="url(#p44cc527d82)" d="M 116.106791 87.400971 
L 116.717963 87.400971 
L 116.717963 71.316727 
L 116.106791 71.316727 
z
" style="fill:#1d1d1d;"/>
   </g>
   <g id="patch_202">
    <path clip-path="url(#p44cc527d82)" d="M 116.616101 87.400971 
L 117.227273 87.400971 
L 117.227273 71.32737 
L 116.616101 71.32737 
z
" style="fill:#1d1d1d;"/>
   </g>
   <g id="matplotlib.axis_1"/>
   <g id="matplotlib.axis_2"/>
   <g id="patch_203">
    <path d="M 10.7 93.86 
L 10.7 10.7 
" style="fill:none;stroke:#000000;stroke-linecap:square;stroke-linejoin:miter;stroke-width:0.8;"/>
   </g>
   <g id="patch_204">
    <path d="M 122.3 93.86 
L 122.3 10.7 
" style="fill:none;stroke:#000000;stroke-linecap:square;stroke-linejoin:miter;stroke-width:0.8;"/>
   </g>
   <g id="patch_205">
    <path d="M 10.7 93.86 
L 122.3 93.86 
" style="fill:none;stroke:#000000;stroke-linecap:square;stroke-linejoin:miter;stroke-width:0.8;"/>
   </g>
   <g id="patch_206">
    <path d="M 10.7 10.7 
L 122.3 10.7 
" style="fill:none;stroke:#000000;stroke-linecap:square;stroke-linejoin:miter;stroke-width:0.8;"/>
   </g>
  </g>
 </g>
 <defs>
  <clipPath id="p44cc527d82">
   <rect height="83.16" width="111.6" x="10.7" y="10.7"/>
  </clipPath>
 </defs>
</svg>
