<?xml version="1.0" encoding="utf-8" standalone="no"?>
<!DOCTYPE svg PUBLIC "-//W3C//DTD SVG 1.1//EN"
  "http://www.w3.org/Graphics/SVG/1.1/DTD/svg11.dtd">
<!-- Created with matplotlib (http://matplotlib.org/) -->
<svg height="136pt" version="1.1" viewBox="0 0 136 136" width="136pt" xmlns="http://www.w3.org/2000/svg" xmlns:xlink="http://www.w3.org/1999/xlink">
 <defs>
  <style type="text/css">
*{stroke-linecap:butt;stroke-linejoin:round;}
  </style>
 </defs>
 <g id="figure_1">
  <g id="patch_1">
   <path d="M 0 136.478125 
L 136.8875 136.478125 
L 136.8875 0 
L 0 0 
z
" style="fill:#ffffff;"/>
  </g>
  <g id="axes_1">
   <g id="patch_2">
    <path d="M 33.2875 123.399219 
L 126.1875 123.399219 
L 126.1875 10.999219 
L 33.2875 10.999219 
z
" style="fill:#ffffff;"/>
   </g>
   <g id="PolyCollection_1">
    <path clip-path="url(#p6d5ad4e879)" d="M 79.911879 123.399219 
L 79.141681 123.399219 
L 78.843813 122.264499 
L 78.387214 121.129779 
L 77.713828 119.995059 
L 76.769854 118.860339 
L 75.521426 117.725619 
L 73.972076 116.590899 
L 72.17659 115.456179 
L 70.244777 114.321459 
L 68.330104 113.186739 
L 66.60242 112.052019 
L 65.21013 110.917299 
L 64.242639 109.782579 
L 63.705978 108.647859 
L 63.521427 107.513139 
L 63.549306 106.378419 
L 63.630867 105.243699 
L 63.634393 104.108979 
L 63.490177 102.974259 
L 63.203668 101.839539 
L 62.844491 100.704819 
L 62.517556 99.570099 
L 62.327682 98.435379 
L 62.349533 97.300659 
L 62.610853 96.165939 
L 63.091211 95.031219 
L 63.733279 93.896499 
L 64.4607 92.761779 
L 65.196332 91.627059 
L 65.876348 90.492339 
L 66.458129 89.357619 
L 66.922132 88.222899 
L 67.26922 87.088179 
L 67.51542 85.953459 
L 67.685833 84.818739 
L 67.808927 83.684019 
L 67.911884 82.549299 
L 68.017268 81.414579 
L 68.141022 80.279859 
L 68.291712 79.145139 
L 68.470922 78.010419 
L 68.674645 76.875699 
L 68.895409 75.740979 
L 69.124698 74.606259 
L 69.35507 73.471539 
L 69.581439 72.336819 
L 69.801209 71.202099 
L 70.013356 70.067379 
L 70.216914 68.932659 
L 70.409493 67.797939 
L 70.586374 66.663219 
L 70.740411 65.528499 
L 70.862635 64.393779 
L 70.943234 63.259059 
L 70.972573 62.124339 
L 70.942056 60.989619 
L 70.844872 59.854899 
L 70.676763 58.720179 
L 70.43693 57.585459 
L 70.12897 56.450739 
L 69.761485 55.316019 
L 69.347891 54.181299 
L 68.905126 53.046579 
L 68.451345 51.911859 
L 68.003158 50.777139 
L 67.57323 49.642419 
L 67.168937 48.507699 
L 66.792413 47.372979 
L 66.441751 46.238259 
L 66.112821 45.103539 
L 65.800982 43.968819 
L 65.502186 42.834099 
L 65.213232 41.699379 
L 64.931278 40.564659 
L 64.652922 39.429939 
L 64.373262 38.295219 
L 64.08521 37.160499 
L 63.779145 36.025779 
L 63.442825 34.891059 
L 63.061374 33.756339 
L 62.617255 32.621619 
L 62.09025 31.486899 
L 61.457505 30.352179 
L 60.693636 29.217459 
L 59.770797 28.082739 
L 58.658625 26.948019 
L 57.324365 25.813299 
L 55.734175 24.678579 
L 53.857533 23.543859 
L 51.677151 22.409139 
L 49.206022 21.274419 
L 46.510579 20.139699 
L 43.734446 19.004979 
L 41.112522 17.870259 
L 38.963106 16.735539 
L 37.649217 15.600819 
L 37.510227 14.466099 
L 38.778423 13.331379 
L 41.506061 12.196659 
L 45.530174 11.061939 
L 79.911879 11.061939 
L 79.911879 11.061939 
L 79.911879 12.196659 
L 79.911879 13.331379 
L 79.911879 14.466099 
L 79.911879 15.600819 
L 79.911879 16.735539 
L 79.911879 17.870259 
L 79.911879 19.004979 
L 79.911879 20.139699 
L 79.911879 21.274419 
L 79.911879 22.409139 
L 79.911879 23.543859 
L 79.911879 24.678579 
L 79.911879 25.813299 
L 79.911879 26.948019 
L 79.911879 28.082739 
L 79.911879 29.217459 
L 79.911879 30.352179 
L 79.911879 31.486899 
L 79.911879 32.621619 
L 79.911879 33.756339 
L 79.911879 34.891059 
L 79.911879 36.025779 
L 79.911879 37.160499 
L 79.911879 38.295219 
L 79.911879 39.429939 
L 79.911879 40.564659 
L 79.911879 41.699379 
L 79.911879 42.834099 
L 79.911879 43.968819 
L 79.911879 45.103539 
L 79.911879 46.238259 
L 79.911879 47.372979 
L 79.911879 48.507699 
L 79.911879 49.642419 
L 79.911879 50.777139 
L 79.911879 51.911859 
L 79.911879 53.046579 
L 79.911879 54.181299 
L 79.911879 55.316019 
L 79.911879 56.450739 
L 79.911879 57.585459 
L 79.911879 58.720179 
L 79.911879 59.854899 
L 79.911879 60.989619 
L 79.911879 62.124339 
L 79.911879 63.259059 
L 79.911879 64.393779 
L 79.911879 65.528499 
L 79.911879 66.663219 
L 79.911879 67.797939 
L 79.911879 68.932659 
L 79.911879 70.067379 
L 79.911879 71.202099 
L 79.911879 72.336819 
L 79.911879 73.471539 
L 79.911879 74.606259 
L 79.911879 75.740979 
L 79.911879 76.875699 
L 79.911879 78.010419 
L 79.911879 79.145139 
L 79.911879 80.279859 
L 79.911879 81.414579 
L 79.911879 82.549299 
L 79.911879 83.684019 
L 79.911879 84.818739 
L 79.911879 85.953459 
L 79.911879 87.088179 
L 79.911879 88.222899 
L 79.911879 89.357619 
L 79.911879 90.492339 
L 79.911879 91.627059 
L 79.911879 92.761779 
L 79.911879 93.896499 
L 79.911879 95.031219 
L 79.911879 96.165939 
L 79.911879 97.300659 
L 79.911879 98.435379 
L 79.911879 99.570099 
L 79.911879 100.704819 
L 79.911879 101.839539 
L 79.911879 102.974259 
L 79.911879 104.108979 
L 79.911879 105.243699 
L 79.911879 106.378419 
L 79.911879 107.513139 
L 79.911879 108.647859 
L 79.911879 109.782579 
L 79.911879 110.917299 
L 79.911879 112.052019 
L 79.911879 113.186739 
L 79.911879 114.321459 
L 79.911879 115.456179 
L 79.911879 116.590899 
L 79.911879 117.725619 
L 79.911879 118.860339 
L 79.911879 119.995059 
L 79.911879 121.129779 
L 79.911879 122.264499 
L 79.911879 123.399219 
z
" style="fill:#1f77b4;fill-opacity:0.3;"/>
   </g>
   <g id="PolyCollection_2">
    <path clip-path="url(#p6d5ad4e879)" d="M 79.910172 123.399219 
L 79.910172 123.399219 
L 79.910172 122.264282 
L 79.910172 121.129345 
L 79.910172 119.994408 
L 79.910172 118.859471 
L 79.910172 117.724535 
L 79.910172 116.589598 
L 79.910172 115.454661 
L 79.910172 114.319724 
L 79.910172 113.184787 
L 79.910172 112.04985 
L 79.910172 110.914914 
L 79.910172 109.779977 
L 79.910172 108.64504 
L 79.910172 107.510103 
L 79.910172 106.375166 
L 79.910172 105.240229 
L 79.910172 104.105292 
L 79.910172 102.970356 
L 79.910172 101.835419 
L 79.910172 100.700482 
L 79.910172 99.565545 
L 79.910172 98.430608 
L 79.910172 97.295671 
L 79.910172 96.160735 
L 79.910172 95.025798 
L 79.910172 93.890861 
L 79.910172 92.755924 
L 79.910172 91.620987 
L 79.910172 90.48605 
L 79.910172 89.351114 
L 79.910172 88.216177 
L 79.910172 87.08124 
L 79.910172 85.946303 
L 79.910172 84.811366 
L 79.910172 83.676429 
L 79.910172 82.541493 
L 79.910172 81.406556 
L 79.910172 80.271619 
L 79.910172 79.136682 
L 79.910172 78.001745 
L 79.910172 76.866808 
L 79.910172 75.731871 
L 79.910172 74.596935 
L 79.910172 73.461998 
L 79.910172 72.327061 
L 79.910172 71.192124 
L 79.910172 70.057187 
L 79.910172 68.92225 
L 79.910172 67.787314 
L 79.910172 66.652377 
L 79.910172 65.51744 
L 79.910172 64.382503 
L 79.910172 63.247566 
L 79.910172 62.112629 
L 79.910172 60.977693 
L 79.910172 59.842756 
L 79.910172 58.707819 
L 79.910172 57.572882 
L 79.910172 56.437945 
L 79.910172 55.303008 
L 79.910172 54.168071 
L 79.910172 53.033135 
L 79.910172 51.898198 
L 79.910172 50.763261 
L 79.910172 49.628324 
L 79.910172 48.493387 
L 79.910172 47.35845 
L 79.910172 46.223514 
L 79.910172 45.088577 
L 79.910172 43.95364 
L 79.910172 42.818703 
L 79.910172 41.683766 
L 79.910172 40.548829 
L 79.910172 39.413893 
L 79.910172 38.278956 
L 79.910172 37.144019 
L 79.910172 36.009082 
L 79.910172 34.874145 
L 79.910172 33.739208 
L 79.910172 32.604272 
L 79.910172 31.469335 
L 79.910172 30.334398 
L 79.910172 29.199461 
L 79.910172 28.064524 
L 79.910172 26.929587 
L 79.910172 25.79465 
L 79.910172 24.659714 
L 79.910172 23.524777 
L 79.910172 22.38984 
L 79.910172 21.254903 
L 79.910172 20.119966 
L 79.910172 18.985029 
L 79.910172 17.850093 
L 79.910172 16.715156 
L 79.910172 15.580219 
L 79.910172 14.445282 
L 79.910172 13.310345 
L 79.910172 12.175408 
L 79.910172 11.040472 
L 114.604823 11.040472 
L 114.604823 11.040472 
L 118.682724 12.175408 
L 121.180192 13.310345 
L 121.964773 14.445282 
L 121.188687 15.580219 
L 119.215482 16.715156 
L 116.50216 17.850093 
L 113.483882 18.985029 
L 110.496801 20.119966 
L 107.750797 21.254903 
L 105.342288 22.38984 
L 103.287136 23.524777 
L 101.55543 24.659714 
L 100.09806 25.79465 
L 98.862989 26.929587 
L 97.803608 28.064524 
L 96.882307 29.199461 
L 96.07135 30.334398 
L 95.35202 31.469335 
L 94.712548 32.604272 
L 94.145387 33.739208 
L 93.644494 34.874145 
L 93.203173 36.009082 
L 92.812732 37.144019 
L 92.462004 38.278956 
L 92.137693 39.413893 
L 91.825442 40.548829 
L 91.511465 41.683766 
L 91.184421 42.818703 
L 90.837059 43.95364 
L 90.467182 45.088577 
L 90.077654 46.223514 
L 89.675469 47.35845 
L 89.270181 48.493387 
L 88.872111 49.628324 
L 88.490742 50.763261 
L 88.13354 51.898198 
L 87.80535 53.033135 
L 87.508337 54.168071 
L 87.242464 55.303008 
L 87.006368 56.437945 
L 86.798438 57.572882 
L 86.6178 58.707819 
L 86.464905 59.842756 
L 86.341506 60.977693 
L 86.250068 62.112629 
L 86.192855 63.247566 
L 86.171069 64.382503 
L 86.184375 65.51744 
L 86.23091 66.652377 
L 86.307711 67.787314 
L 86.411299 68.92225 
L 86.538169 70.057187 
L 86.685052 71.192124 
L 86.84892 72.327061 
L 87.026847 73.461998 
L 87.215867 74.596935 
L 87.412966 75.731871 
L 87.615246 76.866808 
L 87.820148 78.001745 
L 88.025527 79.136682 
L 88.229425 80.271619 
L 88.429586 81.406556 
L 88.623128 82.541493 
L 88.806907 83.676429 
L 88.978891 84.811366 
L 89.14015 85.946303 
L 89.296342 87.08124 
L 89.457243 88.216177 
L 89.633432 89.351114 
L 89.830519 90.48605 
L 90.042849 91.620987 
L 90.249508 92.755924 
L 90.415331 93.890861 
L 90.498145 95.025798 
L 90.461161 96.160735 
L 90.287024 97.295671 
L 89.988379 98.430608 
L 89.609934 99.565545 
L 89.219196 100.700482 
L 88.887062 101.835419 
L 88.663786 102.970356 
L 88.558728 104.105292 
L 88.531992 105.240229 
L 88.502334 106.375166 
L 88.369746 107.510103 
L 88.045394 108.64504 
L 87.478662 109.779977 
L 86.672154 110.914914 
L 85.680232 112.04985 
L 84.592798 113.184787 
L 83.511035 114.319724 
L 82.523674 115.454661 
L 81.690785 116.589598 
L 81.038207 117.724535 
L 80.561563 118.859471 
L 80.236062 119.994408 
L 80.02761 121.129345 
L 79.910172 122.264282 
L 79.910172 123.399219 
z
" style="fill:#ff7f0e;fill-opacity:0.3;"/>
   </g>
   <g id="matplotlib.axis_1"/>
   <g id="matplotlib.axis_2">
    <g id="ytick_1">
     <g id="line2d_1">
      <defs>
       <path d="M 0 0 
L -3.5 0 
" id="m396aba67ef" style="stroke:#000000;stroke-width:0.8;"/>
      </defs>
      <g>
       <use style="stroke:#000000;stroke-width:0.8;" x="33.2875" xlink:href="#m396aba67ef" y="123.399219"/>
      </g>
     </g>
     <g id="text_1">
      <!-- 0 -->
      <defs>
       <path d="M 31.78125 66.40625 
Q 24.171875 66.40625 20.328125 58.90625 
Q 16.5 51.421875 16.5 36.375 
Q 16.5 21.390625 20.328125 13.890625 
Q 24.171875 6.390625 31.78125 6.390625 
Q 39.453125 6.390625 43.28125 13.890625 
Q 47.125 21.390625 47.125 36.375 
Q 47.125 51.421875 43.28125 58.90625 
Q 39.453125 66.40625 31.78125 66.40625 
z
M 31.78125 74.21875 
Q 44.046875 74.21875 50.515625 64.515625 
Q 56.984375 54.828125 56.984375 36.375 
Q 56.984375 17.96875 50.515625 8.265625 
Q 44.046875 -1.421875 31.78125 -1.421875 
Q 19.53125 -1.421875 13.0625 8.265625 
Q 6.59375 17.96875 6.59375 36.375 
Q 6.59375 54.828125 13.0625 64.515625 
Q 19.53125 74.21875 31.78125 74.21875 
z
" id="DejaVuSans-30"/>
      </defs>
      <g transform="translate(19.925 127.198438)scale(0.1 -0.1)">
       <use xlink:href="#DejaVuSans-30"/>
      </g>
     </g>
    </g>
    <g id="ytick_2">
     <g id="line2d_2">
      <g>
       <use style="stroke:#000000;stroke-width:0.8;" x="33.2875" xlink:href="#m396aba67ef" y="67.199219"/>
      </g>
     </g>
     <g id="text_2">
      <!-- 150 -->
      <defs>
       <path d="M 12.40625 8.296875 
L 28.515625 8.296875 
L 28.515625 63.921875 
L 10.984375 60.40625 
L 10.984375 69.390625 
L 28.421875 72.90625 
L 38.28125 72.90625 
L 38.28125 8.296875 
L 54.390625 8.296875 
L 54.390625 0 
L 12.40625 0 
z
" id="DejaVuSans-31"/>
       <path d="M 10.796875 72.90625 
L 49.515625 72.90625 
L 49.515625 64.59375 
L 19.828125 64.59375 
L 19.828125 46.734375 
Q 21.96875 47.46875 24.109375 47.828125 
Q 26.265625 48.1875 28.421875 48.1875 
Q 40.625 48.1875 47.75 41.5 
Q 54.890625 34.8125 54.890625 23.390625 
Q 54.890625 11.625 47.5625 5.09375 
Q 40.234375 -1.421875 26.90625 -1.421875 
Q 22.3125 -1.421875 17.546875 -0.640625 
Q 12.796875 0.140625 7.71875 1.703125 
L 7.71875 11.625 
Q 12.109375 9.234375 16.796875 8.0625 
Q 21.484375 6.890625 26.703125 6.890625 
Q 35.15625 6.890625 40.078125 11.328125 
Q 45.015625 15.765625 45.015625 23.390625 
Q 45.015625 31 40.078125 35.4375 
Q 35.15625 39.890625 26.703125 39.890625 
Q 22.75 39.890625 18.8125 39.015625 
Q 14.890625 38.140625 10.796875 36.28125 
z
" id="DejaVuSans-35"/>
      </defs>
      <g transform="translate(7.2 70.998437)scale(0.1 -0.1)">
       <use xlink:href="#DejaVuSans-31"/>
       <use x="63.623047" xlink:href="#DejaVuSans-35"/>
       <use x="127.246094" xlink:href="#DejaVuSans-30"/>
      </g>
     </g>
    </g>
    <g id="ytick_3">
     <g id="line2d_3">
      <g>
       <use style="stroke:#000000;stroke-width:0.8;" x="33.2875" xlink:href="#m396aba67ef" y="10.999219"/>
      </g>
     </g>
     <g id="text_3">
      <!-- 300 -->
      <defs>
       <path d="M 40.578125 39.3125 
Q 47.65625 37.796875 51.625 33 
Q 55.609375 28.21875 55.609375 21.1875 
Q 55.609375 10.40625 48.1875 4.484375 
Q 40.765625 -1.421875 27.09375 -1.421875 
Q 22.515625 -1.421875 17.65625 -0.515625 
Q 12.796875 0.390625 7.625 2.203125 
L 7.625 11.71875 
Q 11.71875 9.328125 16.59375 8.109375 
Q 21.484375 6.890625 26.8125 6.890625 
Q 36.078125 6.890625 40.9375 10.546875 
Q 45.796875 14.203125 45.796875 21.1875 
Q 45.796875 27.640625 41.28125 31.265625 
Q 36.765625 34.90625 28.71875 34.90625 
L 20.21875 34.90625 
L 20.21875 43.015625 
L 29.109375 43.015625 
Q 36.375 43.015625 40.234375 45.921875 
Q 44.09375 48.828125 44.09375 54.296875 
Q 44.09375 59.90625 40.109375 62.90625 
Q 36.140625 65.921875 28.71875 65.921875 
Q 24.65625 65.921875 20.015625 65.03125 
Q 15.375 64.15625 9.8125 62.3125 
L 9.8125 71.09375 
Q 15.4375 72.65625 20.34375 73.4375 
Q 25.25 74.21875 29.59375 74.21875 
Q 40.828125 74.21875 47.359375 69.109375 
Q 53.90625 64.015625 53.90625 55.328125 
Q 53.90625 49.265625 50.4375 45.09375 
Q 46.96875 40.921875 40.578125 39.3125 
z
" id="DejaVuSans-33"/>
      </defs>
      <g transform="translate(7.2 14.798437)scale(0.1 -0.1)">
       <use xlink:href="#DejaVuSans-33"/>
       <use x="63.623047" xlink:href="#DejaVuSans-30"/>
       <use x="127.246094" xlink:href="#DejaVuSans-30"/>
      </g>
     </g>
    </g>
   </g>
   <g id="patch_3">
    <path d="M 33.2875 123.399219 
L 33.2875 10.999219 
" style="fill:none;stroke:#000000;stroke-linecap:square;stroke-linejoin:miter;stroke-width:0.8;"/>
   </g>
   <g id="patch_4">
    <path d="M 33.2875 123.399219 
L 126.1875 123.399219 
" style="fill:none;stroke:#000000;stroke-linecap:square;stroke-linejoin:miter;stroke-width:0.8;"/>
   </g>
  </g>
 </g>
 <defs>
  <clipPath id="p6d5ad4e879">
   <rect height="112.4" width="92.9" x="33.2875" y="10.999219"/>
  </clipPath>
 </defs>
</svg>
