<?xml version="1.0" encoding="utf-8" standalone="no"?>
<!DOCTYPE svg PUBLIC "-//W3C//DTD SVG 1.1//EN"
  "http://www.w3.org/Graphics/SVG/1.1/DTD/svg11.dtd">
<!-- Created with matplotlib (http://matplotlib.org/) -->
<svg height="211pt" version="1.1" viewBox="0 0 271 211" width="271pt" xmlns="http://www.w3.org/2000/svg" xmlns:xlink="http://www.w3.org/1999/xlink">
 <defs>
  <style type="text/css">
*{stroke-linecap:butt;stroke-linejoin:round;}
  </style>
 </defs>
 <g id="figure_1">
  <g id="patch_1">
   <path d="M 0 211.771578 
L 271.8925 211.771578 
L 271.8925 0 
L 0 0 
z
" style="fill:#ffffff;"/>
  </g>
  <g id="axes_1">
   <g id="patch_2">
    <path d="M 25.6525 180.150953 
L 248.8525 180.150953 
L 248.8525 13.830953 
L 25.6525 13.830953 
z
" style="fill:#ffffff;"/>
   </g>
   <g id="matplotlib.axis_1">
    <g id="xtick_1">
     <g id="line2d_1">
      <defs>
       <path d="M 0 0 
L 0 3.5 
" id="md6cd7e6248" style="stroke:#000000;stroke-width:0.8;"/>
      </defs>
      <g>
       <use style="stroke:#000000;stroke-width:0.8;" x="25.6525" xlink:href="#md6cd7e6248" y="180.150953"/>
      </g>
     </g>
     <g id="text_1">
      <!-- $\mathdefault{10^{0}}$ -->
      <defs>
       <path d="M 12.40625 8.296875 
L 28.515625 8.296875 
L 28.515625 63.921875 
L 10.984375 60.40625 
L 10.984375 69.390625 
L 28.421875 72.90625 
L 38.28125 72.90625 
L 38.28125 8.296875 
L 54.390625 8.296875 
L 54.390625 0 
L 12.40625 0 
z
" id="DejaVuSans-31"/>
       <path d="M 31.78125 66.40625 
Q 24.171875 66.40625 20.328125 58.90625 
Q 16.5 51.421875 16.5 36.375 
Q 16.5 21.390625 20.328125 13.890625 
Q 24.171875 6.390625 31.78125 6.390625 
Q 39.453125 6.390625 43.28125 13.890625 
Q 47.125 21.390625 47.125 36.375 
Q 47.125 51.421875 43.28125 58.90625 
Q 39.453125 66.40625 31.78125 66.40625 
z
M 31.78125 74.21875 
Q 44.046875 74.21875 50.515625 64.515625 
Q 56.984375 54.828125 56.984375 36.375 
Q 56.984375 17.96875 50.515625 8.265625 
Q 44.046875 -1.421875 31.78125 -1.421875 
Q 19.53125 -1.421875 13.0625 8.265625 
Q 6.59375 17.96875 6.59375 36.375 
Q 6.59375 54.828125 13.0625 64.515625 
Q 19.53125 74.21875 31.78125 74.21875 
z
" id="DejaVuSans-30"/>
      </defs>
      <g transform="translate(9.8125 200.828141)scale(0.18 -0.18)">
       <use transform="translate(0 0.765625)" xlink:href="#DejaVuSans-31"/>
       <use transform="translate(63.623047 0.765625)" xlink:href="#DejaVuSans-30"/>
       <use transform="translate(128.203125 39.046875)scale(0.7)" xlink:href="#DejaVuSans-30"/>
      </g>
     </g>
    </g>
    <g id="xtick_2">
     <g id="line2d_2">
      <g>
       <use style="stroke:#000000;stroke-width:0.8;" x="137.2525" xlink:href="#md6cd7e6248" y="180.150953"/>
      </g>
     </g>
     <g id="text_2">
      <!-- $\mathdefault{10^{2}}$ -->
      <defs>
       <path d="M 19.1875 8.296875 
L 53.609375 8.296875 
L 53.609375 0 
L 7.328125 0 
L 7.328125 8.296875 
Q 12.9375 14.109375 22.625 23.890625 
Q 32.328125 33.6875 34.8125 36.53125 
Q 39.546875 41.84375 41.421875 45.53125 
Q 43.3125 49.21875 43.3125 52.78125 
Q 43.3125 58.59375 39.234375 62.25 
Q 35.15625 65.921875 28.609375 65.921875 
Q 23.96875 65.921875 18.8125 64.3125 
Q 13.671875 62.703125 7.8125 59.421875 
L 7.8125 69.390625 
Q 13.765625 71.78125 18.9375 73 
Q 24.125 74.21875 28.421875 74.21875 
Q 39.75 74.21875 46.484375 68.546875 
Q 53.21875 62.890625 53.21875 53.421875 
Q 53.21875 48.921875 51.53125 44.890625 
Q 49.859375 40.875 45.40625 35.40625 
Q 44.1875 33.984375 37.640625 27.21875 
Q 31.109375 20.453125 19.1875 8.296875 
z
" id="DejaVuSans-32"/>
      </defs>
      <g transform="translate(121.4125 200.828141)scale(0.18 -0.18)">
       <use transform="translate(0 0.765625)" xlink:href="#DejaVuSans-31"/>
       <use transform="translate(63.623047 0.765625)" xlink:href="#DejaVuSans-30"/>
       <use transform="translate(128.203125 39.046875)scale(0.7)" xlink:href="#DejaVuSans-32"/>
      </g>
     </g>
    </g>
    <g id="xtick_3">
     <g id="line2d_3">
      <g>
       <use style="stroke:#000000;stroke-width:0.8;" x="248.8525" xlink:href="#md6cd7e6248" y="180.150953"/>
      </g>
     </g>
     <g id="text_3">
      <!-- $\mathdefault{10^{4}}$ -->
      <defs>
       <path d="M 37.796875 64.3125 
L 12.890625 25.390625 
L 37.796875 25.390625 
z
M 35.203125 72.90625 
L 47.609375 72.90625 
L 47.609375 25.390625 
L 58.015625 25.390625 
L 58.015625 17.1875 
L 47.609375 17.1875 
L 47.609375 0 
L 37.796875 0 
L 37.796875 17.1875 
L 4.890625 17.1875 
L 4.890625 26.703125 
z
" id="DejaVuSans-34"/>
      </defs>
      <g transform="translate(233.0125 200.828141)scale(0.18 -0.18)">
       <use transform="translate(0 0.684375)" xlink:href="#DejaVuSans-31"/>
       <use transform="translate(63.623047 0.684375)" xlink:href="#DejaVuSans-30"/>
       <use transform="translate(128.203125 38.965625)scale(0.7)" xlink:href="#DejaVuSans-34"/>
      </g>
     </g>
    </g>
    <g id="xtick_4">
     <g id="line2d_4">
      <defs>
       <path d="M 0 0 
L 0 2 
" id="m11b67ba2f2" style="stroke:#000000;stroke-width:0.6;"/>
      </defs>
      <g>
       <use style="stroke:#000000;stroke-width:0.6;" x="42.449974" xlink:href="#m11b67ba2f2" y="180.150953"/>
      </g>
     </g>
    </g>
    <g id="xtick_5">
     <g id="line2d_5">
      <g>
       <use style="stroke:#000000;stroke-width:0.6;" x="52.275866" xlink:href="#m11b67ba2f2" y="180.150953"/>
      </g>
     </g>
    </g>
    <g id="xtick_6">
     <g id="line2d_6">
      <g>
       <use style="stroke:#000000;stroke-width:0.6;" x="59.247448" xlink:href="#m11b67ba2f2" y="180.150953"/>
      </g>
     </g>
    </g>
    <g id="xtick_7">
     <g id="line2d_7">
      <g>
       <use style="stroke:#000000;stroke-width:0.6;" x="64.655026" xlink:href="#m11b67ba2f2" y="180.150953"/>
      </g>
     </g>
    </g>
    <g id="xtick_8">
     <g id="line2d_8">
      <g>
       <use style="stroke:#000000;stroke-width:0.6;" x="69.07334" xlink:href="#m11b67ba2f2" y="180.150953"/>
      </g>
     </g>
    </g>
    <g id="xtick_9">
     <g id="line2d_9">
      <g>
       <use style="stroke:#000000;stroke-width:0.6;" x="72.808971" xlink:href="#m11b67ba2f2" y="180.150953"/>
      </g>
     </g>
    </g>
    <g id="xtick_10">
     <g id="line2d_10">
      <g>
       <use style="stroke:#000000;stroke-width:0.6;" x="76.044921" xlink:href="#m11b67ba2f2" y="180.150953"/>
      </g>
     </g>
    </g>
    <g id="xtick_11">
     <g id="line2d_11">
      <g>
       <use style="stroke:#000000;stroke-width:0.6;" x="78.899232" xlink:href="#m11b67ba2f2" y="180.150953"/>
      </g>
     </g>
    </g>
    <g id="xtick_12">
     <g id="line2d_12">
      <g>
       <use style="stroke:#000000;stroke-width:0.6;" x="98.249974" xlink:href="#m11b67ba2f2" y="180.150953"/>
      </g>
     </g>
    </g>
    <g id="xtick_13">
     <g id="line2d_13">
      <g>
       <use style="stroke:#000000;stroke-width:0.6;" x="108.075866" xlink:href="#m11b67ba2f2" y="180.150953"/>
      </g>
     </g>
    </g>
    <g id="xtick_14">
     <g id="line2d_14">
      <g>
       <use style="stroke:#000000;stroke-width:0.6;" x="115.047448" xlink:href="#m11b67ba2f2" y="180.150953"/>
      </g>
     </g>
    </g>
    <g id="xtick_15">
     <g id="line2d_15">
      <g>
       <use style="stroke:#000000;stroke-width:0.6;" x="120.455026" xlink:href="#m11b67ba2f2" y="180.150953"/>
      </g>
     </g>
    </g>
    <g id="xtick_16">
     <g id="line2d_16">
      <g>
       <use style="stroke:#000000;stroke-width:0.6;" x="124.87334" xlink:href="#m11b67ba2f2" y="180.150953"/>
      </g>
     </g>
    </g>
    <g id="xtick_17">
     <g id="line2d_17">
      <g>
       <use style="stroke:#000000;stroke-width:0.6;" x="128.608971" xlink:href="#m11b67ba2f2" y="180.150953"/>
      </g>
     </g>
    </g>
    <g id="xtick_18">
     <g id="line2d_18">
      <g>
       <use style="stroke:#000000;stroke-width:0.6;" x="131.844921" xlink:href="#m11b67ba2f2" y="180.150953"/>
      </g>
     </g>
    </g>
    <g id="xtick_19">
     <g id="line2d_19">
      <g>
       <use style="stroke:#000000;stroke-width:0.6;" x="134.699232" xlink:href="#m11b67ba2f2" y="180.150953"/>
      </g>
     </g>
    </g>
    <g id="xtick_20">
     <g id="line2d_20">
      <g>
       <use style="stroke:#000000;stroke-width:0.6;" x="154.049974" xlink:href="#m11b67ba2f2" y="180.150953"/>
      </g>
     </g>
    </g>
    <g id="xtick_21">
     <g id="line2d_21">
      <g>
       <use style="stroke:#000000;stroke-width:0.6;" x="163.875866" xlink:href="#m11b67ba2f2" y="180.150953"/>
      </g>
     </g>
    </g>
    <g id="xtick_22">
     <g id="line2d_22">
      <g>
       <use style="stroke:#000000;stroke-width:0.6;" x="170.847448" xlink:href="#m11b67ba2f2" y="180.150953"/>
      </g>
     </g>
    </g>
    <g id="xtick_23">
     <g id="line2d_23">
      <g>
       <use style="stroke:#000000;stroke-width:0.6;" x="176.255026" xlink:href="#m11b67ba2f2" y="180.150953"/>
      </g>
     </g>
    </g>
    <g id="xtick_24">
     <g id="line2d_24">
      <g>
       <use style="stroke:#000000;stroke-width:0.6;" x="180.67334" xlink:href="#m11b67ba2f2" y="180.150953"/>
      </g>
     </g>
    </g>
    <g id="xtick_25">
     <g id="line2d_25">
      <g>
       <use style="stroke:#000000;stroke-width:0.6;" x="184.408971" xlink:href="#m11b67ba2f2" y="180.150953"/>
      </g>
     </g>
    </g>
    <g id="xtick_26">
     <g id="line2d_26">
      <g>
       <use style="stroke:#000000;stroke-width:0.6;" x="187.644921" xlink:href="#m11b67ba2f2" y="180.150953"/>
      </g>
     </g>
    </g>
    <g id="xtick_27">
     <g id="line2d_27">
      <g>
       <use style="stroke:#000000;stroke-width:0.6;" x="190.499232" xlink:href="#m11b67ba2f2" y="180.150953"/>
      </g>
     </g>
    </g>
    <g id="xtick_28">
     <g id="line2d_28">
      <g>
       <use style="stroke:#000000;stroke-width:0.6;" x="209.849974" xlink:href="#m11b67ba2f2" y="180.150953"/>
      </g>
     </g>
    </g>
    <g id="xtick_29">
     <g id="line2d_29">
      <g>
       <use style="stroke:#000000;stroke-width:0.6;" x="219.675866" xlink:href="#m11b67ba2f2" y="180.150953"/>
      </g>
     </g>
    </g>
    <g id="xtick_30">
     <g id="line2d_30">
      <g>
       <use style="stroke:#000000;stroke-width:0.6;" x="226.647448" xlink:href="#m11b67ba2f2" y="180.150953"/>
      </g>
     </g>
    </g>
    <g id="xtick_31">
     <g id="line2d_31">
      <g>
       <use style="stroke:#000000;stroke-width:0.6;" x="232.055026" xlink:href="#m11b67ba2f2" y="180.150953"/>
      </g>
     </g>
    </g>
    <g id="xtick_32">
     <g id="line2d_32">
      <g>
       <use style="stroke:#000000;stroke-width:0.6;" x="236.47334" xlink:href="#m11b67ba2f2" y="180.150953"/>
      </g>
     </g>
    </g>
    <g id="xtick_33">
     <g id="line2d_33">
      <g>
       <use style="stroke:#000000;stroke-width:0.6;" x="240.208971" xlink:href="#m11b67ba2f2" y="180.150953"/>
      </g>
     </g>
    </g>
    <g id="xtick_34">
     <g id="line2d_34">
      <g>
       <use style="stroke:#000000;stroke-width:0.6;" x="243.444921" xlink:href="#m11b67ba2f2" y="180.150953"/>
      </g>
     </g>
    </g>
    <g id="xtick_35">
     <g id="line2d_35">
      <g>
       <use style="stroke:#000000;stroke-width:0.6;" x="246.299232" xlink:href="#m11b67ba2f2" y="180.150953"/>
      </g>
     </g>
    </g>
   </g>
   <g id="matplotlib.axis_2">
    <g id="ytick_1">
     <g id="line2d_36">
      <defs>
       <path d="M 0 0 
L -3.5 0 
" id="ma8fa297224" style="stroke:#000000;stroke-width:0.8;"/>
      </defs>
      <g>
       <use style="stroke:#000000;stroke-width:0.8;" x="25.6525" xlink:href="#ma8fa297224" y="180.150953"/>
      </g>
     </g>
     <g id="text_4">
      <!-- 0 -->
      <g transform="translate(7.2 186.989547)scale(0.18 -0.18)">
       <use xlink:href="#DejaVuSans-30"/>
      </g>
     </g>
    </g>
    <g id="ytick_2">
     <g id="line2d_37">
      <g>
       <use style="stroke:#000000;stroke-width:0.8;" x="25.6525" xlink:href="#ma8fa297224" y="138.622863"/>
      </g>
     </g>
     <g id="text_5">
      <!-- 2 -->
      <g transform="translate(7.2 145.461457)scale(0.18 -0.18)">
       <use xlink:href="#DejaVuSans-32"/>
      </g>
     </g>
    </g>
    <g id="ytick_3">
     <g id="line2d_38">
      <g>
       <use style="stroke:#000000;stroke-width:0.8;" x="25.6525" xlink:href="#ma8fa297224" y="97.094774"/>
      </g>
     </g>
     <g id="text_6">
      <!-- 4 -->
      <g transform="translate(7.2 103.933367)scale(0.18 -0.18)">
       <use xlink:href="#DejaVuSans-34"/>
      </g>
     </g>
    </g>
    <g id="ytick_4">
     <g id="line2d_39">
      <g>
       <use style="stroke:#000000;stroke-width:0.8;" x="25.6525" xlink:href="#ma8fa297224" y="55.566684"/>
      </g>
     </g>
     <g id="text_7">
      <!-- 6 -->
      <defs>
       <path d="M 33.015625 40.375 
Q 26.375 40.375 22.484375 35.828125 
Q 18.609375 31.296875 18.609375 23.390625 
Q 18.609375 15.53125 22.484375 10.953125 
Q 26.375 6.390625 33.015625 6.390625 
Q 39.65625 6.390625 43.53125 10.953125 
Q 47.40625 15.53125 47.40625 23.390625 
Q 47.40625 31.296875 43.53125 35.828125 
Q 39.65625 40.375 33.015625 40.375 
z
M 52.59375 71.296875 
L 52.59375 62.3125 
Q 48.875 64.0625 45.09375 64.984375 
Q 41.3125 65.921875 37.59375 65.921875 
Q 27.828125 65.921875 22.671875 59.328125 
Q 17.53125 52.734375 16.796875 39.40625 
Q 19.671875 43.65625 24.015625 45.921875 
Q 28.375 48.1875 33.59375 48.1875 
Q 44.578125 48.1875 50.953125 41.515625 
Q 57.328125 34.859375 57.328125 23.390625 
Q 57.328125 12.15625 50.6875 5.359375 
Q 44.046875 -1.421875 33.015625 -1.421875 
Q 20.359375 -1.421875 13.671875 8.265625 
Q 6.984375 17.96875 6.984375 36.375 
Q 6.984375 53.65625 15.1875 63.9375 
Q 23.390625 74.21875 37.203125 74.21875 
Q 40.921875 74.21875 44.703125 73.484375 
Q 48.484375 72.75 52.59375 71.296875 
z
" id="DejaVuSans-36"/>
      </defs>
      <g transform="translate(7.2 62.405277)scale(0.18 -0.18)">
       <use xlink:href="#DejaVuSans-36"/>
      </g>
     </g>
    </g>
    <g id="ytick_5">
     <g id="line2d_40">
      <g>
       <use style="stroke:#000000;stroke-width:0.8;" x="25.6525" xlink:href="#ma8fa297224" y="14.038594"/>
      </g>
     </g>
     <g id="text_8">
      <!-- 8 -->
      <defs>
       <path d="M 31.78125 34.625 
Q 24.75 34.625 20.71875 30.859375 
Q 16.703125 27.09375 16.703125 20.515625 
Q 16.703125 13.921875 20.71875 10.15625 
Q 24.75 6.390625 31.78125 6.390625 
Q 38.8125 6.390625 42.859375 10.171875 
Q 46.921875 13.96875 46.921875 20.515625 
Q 46.921875 27.09375 42.890625 30.859375 
Q 38.875 34.625 31.78125 34.625 
z
M 21.921875 38.8125 
Q 15.578125 40.375 12.03125 44.71875 
Q 8.5 49.078125 8.5 55.328125 
Q 8.5 64.0625 14.71875 69.140625 
Q 20.953125 74.21875 31.78125 74.21875 
Q 42.671875 74.21875 48.875 69.140625 
Q 55.078125 64.0625 55.078125 55.328125 
Q 55.078125 49.078125 51.53125 44.71875 
Q 48 40.375 41.703125 38.8125 
Q 48.828125 37.15625 52.796875 32.3125 
Q 56.78125 27.484375 56.78125 20.515625 
Q 56.78125 9.90625 50.3125 4.234375 
Q 43.84375 -1.421875 31.78125 -1.421875 
Q 19.734375 -1.421875 13.25 4.234375 
Q 6.78125 9.90625 6.78125 20.515625 
Q 6.78125 27.484375 10.78125 32.3125 
Q 14.796875 37.15625 21.921875 38.8125 
z
M 18.3125 54.390625 
Q 18.3125 48.734375 21.84375 45.5625 
Q 25.390625 42.390625 31.78125 42.390625 
Q 38.140625 42.390625 41.71875 45.5625 
Q 45.3125 48.734375 45.3125 54.390625 
Q 45.3125 60.0625 41.71875 63.234375 
Q 38.140625 66.40625 31.78125 66.40625 
Q 25.390625 66.40625 21.84375 63.234375 
Q 18.3125 60.0625 18.3125 54.390625 
z
" id="DejaVuSans-38"/>
      </defs>
      <g transform="translate(7.2 20.877187)scale(0.18 -0.18)">
       <use xlink:href="#DejaVuSans-38"/>
      </g>
     </g>
    </g>
   </g>
   <g id="line2d_41">
    <path clip-path="url(#p25e44274e5)" d="M 25.6525 173.322323 
L 30.207602 169.970569 
L 34.762704 164.051985 
L 39.317806 153.215745 
L 43.872908 140.965439 
L 48.42801 131.111694 
L 52.983112 116.922377 
L 57.538214 103.445469 
L 62.093316 94.788173 
L 66.648418 87.760115 
L 71.20352 81.283128 
L 75.758622 74.132044 
L 80.313724 67.325796 
L 84.868827 60.923883 
L 89.423929 55.601908 
L 93.979031 50.396906 
L 98.534133 46.184308 
L 103.089235 42.299592 
L 107.644337 40.10274 
L 112.199439 38.1012 
L 116.754541 38.103472 
L 121.309643 37.473516 
L 125.864745 36.82501 
L 130.419847 36.011179 
L 134.974949 36.421658 
L 139.530051 38.497146 
L 144.085153 43.72919 
L 148.640255 52.448604 
L 153.195357 65.634552 
L 157.750459 76.4973 
L 162.305561 92.943279 
L 166.860663 109.416469 
L 171.415765 119.20161 
L 175.970867 125.880987 
L 180.525969 132.09135 
L 185.081071 138.227035 
L 189.636173 144.33638 
L 194.191276 150.907132 
L 198.746378 156.112934 
L 203.30148 160.171111 
L 207.856582 164.064622 
L 212.411684 167.585646 
L 216.966786 168.576948 
L 221.521888 170.203149 
L 226.07699 172.620865 
L 230.632092 174.622834 
L 235.187194 175.404049 
L 239.742296 176.725937 
L 244.297398 177.762714 
L 248.8525 178.571288 
" style="fill:none;opacity:0.5;stroke:#73c476;stroke-linecap:square;stroke-width:0.5;"/>
   </g>
   <g id="line2d_42">
    <path clip-path="url(#p25e44274e5)" d="M 25.6525 130.211332 
L 30.207602 118.209052 
L 34.762704 107.056319 
L 39.317806 103.165319 
L 43.872908 99.574245 
L 48.42801 94.038329 
L 52.983112 88.355942 
L 57.538214 81.503117 
L 62.093316 75.107514 
L 66.648418 69.196125 
L 71.20352 62.501994 
L 75.758622 56.009595 
L 80.313724 51.044257 
L 84.868827 46.412253 
L 89.423929 41.906457 
L 93.979031 38.422916 
L 98.534133 35.868035 
L 103.089235 34.544563 
L 107.644337 35.335433 
L 112.199439 38.662627 
L 116.754541 42.648619 
L 121.309643 48.25427 
L 125.864745 56.923981 
L 130.419847 72.112152 
L 134.974949 78.447279 
L 139.530051 90.928961 
L 144.085153 104.527284 
L 148.640255 107.318191 
L 153.195357 108.744109 
L 157.750459 113.127888 
L 162.305561 118.252565 
L 166.860663 124.297083 
L 171.415765 131.130877 
L 175.970867 136.799554 
L 180.525969 144.665496 
L 185.081071 152.484189 
L 189.636173 157.509905 
L 194.191276 163.411933 
L 198.746378 169.27895 
L 203.30148 173.709286 
L 207.856582 177.223197 
L 212.411684 179.708212 
L 216.966786 180.150953 
L 221.521888 180.150953 
L 226.07699 180.150953 
L 230.632092 180.150953 
L 235.187194 180.150953 
L 239.742296 180.150953 
L 244.297398 180.150953 
L 248.8525 180.150953 
" style="fill:none;opacity:0.5;stroke:#73c476;stroke-linecap:square;stroke-width:0.5;"/>
   </g>
   <g id="line2d_43">
    <path clip-path="url(#p25e44274e5)" d="M 25.6525 111.909391 
L 30.207602 104.21634 
L 34.762704 97.897419 
L 39.317806 90.077015 
L 43.872908 82.87517 
L 48.42801 74.816315 
L 52.983112 68.252664 
L 57.538214 62.22169 
L 62.093316 55.963913 
L 66.648418 50.970923 
L 71.20352 46.583628 
L 75.758622 43.048849 
L 80.313724 39.701983 
L 84.868827 36.973444 
L 89.423929 35.217655 
L 93.979031 33.828941 
L 98.534133 32.546591 
L 103.089235 32.702822 
L 107.644337 35.141865 
L 112.199439 39.933146 
L 116.754541 49.105888 
L 121.309643 57.42153 
L 125.864745 72.408249 
L 130.419847 90.622909 
L 134.974949 100.618434 
L 139.530051 108.105201 
L 144.085153 113.91415 
L 148.640255 120.77718 
L 153.195357 127.300781 
L 157.750459 135.208317 
L 162.305561 142.605028 
L 166.860663 148.268358 
L 171.415765 154.743882 
L 175.970867 159.39819 
L 180.525969 163.353767 
L 185.081071 165.977079 
L 189.636173 169.154191 
L 194.191276 172.150589 
L 198.746378 173.882265 
L 203.30148 175.429081 
L 207.856582 177.823483 
L 212.411684 178.333337 
L 216.966786 179.241473 
L 221.521888 179.928938 
L 226.07699 180.150953 
L 230.632092 180.150953 
L 235.187194 180.150953 
L 239.742296 180.150953 
L 244.297398 180.150953 
L 248.8525 180.150953 
" style="fill:none;opacity:0.5;stroke:#73c476;stroke-linecap:square;stroke-width:0.5;"/>
   </g>
   <g id="line2d_44">
    <path clip-path="url(#p25e44274e5)" d="M 25.6525 107.889498 
L 30.207602 101.214485 
L 34.762704 94.096304 
L 39.317806 87.373214 
L 43.872908 79.640144 
L 48.42801 73.317344 
L 52.983112 66.563869 
L 57.538214 59.824936 
L 62.093316 54.692746 
L 66.648418 49.397501 
L 71.20352 44.289804 
L 75.758622 40.736102 
L 80.313724 37.664991 
L 84.868827 35.644982 
L 89.423929 34.498408 
L 93.979031 34.268533 
L 98.534133 35.080981 
L 103.089235 38.645706 
L 107.644337 45.282341 
L 112.199439 52.014419 
L 116.754541 65.400614 
L 121.309643 87.250189 
L 125.864745 91.690951 
L 130.419847 98.12588 
L 134.974949 102.350432 
L 139.530051 108.462812 
L 144.085153 115.150239 
L 148.640255 121.507209 
L 153.195357 129.386305 
L 157.750459 135.838147 
L 162.305561 142.772527 
L 166.860663 150.573123 
L 171.415765 155.927563 
L 175.970867 161.771876 
L 180.525969 167.575973 
L 185.081071 171.509862 
L 189.636173 174.927085 
L 194.191276 177.511487 
L 198.746378 178.543604 
L 203.30148 179.193832 
L 207.856582 180.150953 
L 212.411684 180.150953 
L 216.966786 180.150953 
L 221.521888 180.150953 
L 226.07699 180.150953 
L 230.632092 180.150953 
L 235.187194 180.150953 
L 239.742296 180.150953 
L 244.297398 180.150953 
L 248.8525 180.150953 
" style="fill:none;opacity:0.5;stroke:#73c476;stroke-linecap:square;stroke-width:0.5;"/>
   </g>
   <g id="line2d_45">
    <path clip-path="url(#p25e44274e5)" d="M 25.6525 174.629645 
L 30.207602 168.313532 
L 34.762704 160.047737 
L 39.317806 149.992647 
L 43.872908 136.011141 
L 48.42801 129.081977 
L 52.983112 120.609169 
L 57.538214 111.019768 
L 62.093316 102.673484 
L 66.648418 95.859679 
L 71.20352 88.800359 
L 75.758622 79.10153 
L 80.313724 71.191816 
L 84.868827 65.13324 
L 89.423929 58.674936 
L 93.979031 52.969269 
L 98.534133 47.066097 
L 103.089235 41.675554 
L 107.644337 37.234093 
L 112.199439 34.369608 
L 116.754541 31.813292 
L 121.309643 29.831983 
L 125.864745 28.628635 
L 130.419847 29.069972 
L 134.974949 31.578303 
L 139.530051 36.485493 
L 144.085153 43.857529 
L 148.640255 52.967022 
L 153.195357 67.336616 
L 157.750459 74.8627 
L 162.305561 82.508475 
L 166.860663 93.355115 
L 171.415765 101.552868 
L 175.970867 108.921413 
L 180.525969 114.904449 
L 185.081071 125.381163 
L 189.636173 134.80301 
L 194.191276 140.455894 
L 198.746378 146.475393 
L 203.30148 153.154609 
L 207.856582 158.35451 
L 212.411684 164.721228 
L 216.966786 169.244948 
L 221.521888 172.217861 
L 226.07699 174.492446 
L 230.632092 176.659295 
L 235.187194 178.232436 
L 239.742296 179.677241 
L 244.297398 179.914082 
L 248.8525 179.914082 
" style="fill:none;opacity:0.5;stroke:#73c476;stroke-linecap:square;stroke-width:0.5;"/>
   </g>
   <g id="line2d_46">
    <path clip-path="url(#p25e44274e5)" d="M 25.6525 92.496135 
L 30.207602 82.265152 
L 34.762704 73.044076 
L 39.317806 65.601507 
L 43.872908 59.045694 
L 48.42801 52.672486 
L 52.983112 46.074017 
L 57.538214 40.68429 
L 62.093316 36.192599 
L 66.648418 33.083087 
L 71.20352 31.018207 
L 75.758622 29.87282 
L 80.313724 29.260788 
L 84.868827 30.25304 
L 89.423929 33.231762 
L 93.979031 37.76078 
L 98.534133 46.48095 
L 103.089235 55.956454 
L 107.644337 67.389881 
L 112.199439 73.766561 
L 116.754541 77.442098 
L 121.309643 83.27684 
L 125.864745 90.636354 
L 130.419847 101.28359 
L 134.974949 110.806968 
L 139.530051 122.572048 
L 144.085153 134.24401 
L 148.640255 143.037712 
L 153.195357 149.619457 
L 157.750459 156.060085 
L 162.305561 163.585929 
L 166.860663 169.258831 
L 171.415765 174.712111 
L 175.970867 177.572576 
L 180.525969 179.677241 
L 185.081071 179.914082 
L 189.636173 179.953361 
L 194.191276 180.150953 
L 198.746378 180.150953 
L 203.30148 180.150953 
L 207.856582 180.150953 
L 212.411684 180.150953 
L 216.966786 180.150953 
L 221.521888 180.150953 
L 226.07699 180.150953 
L 230.632092 180.150953 
L 235.187194 180.150953 
L 239.742296 180.150953 
L 244.297398 180.150953 
L 248.8525 180.150953 
" style="fill:none;opacity:0.5;stroke:#73c476;stroke-linecap:square;stroke-width:0.5;"/>
   </g>
   <g id="line2d_47">
    <path clip-path="url(#p25e44274e5)" d="M 25.6525 173.664031 
L 30.207602 172.816795 
L 34.762704 168.77507 
L 39.317806 162.887167 
L 43.872908 154.110047 
L 48.42801 142.159863 
L 52.983112 131.559446 
L 57.538214 120.173634 
L 62.093316 106.487465 
L 66.648418 95.612655 
L 71.20352 88.170393 
L 75.758622 80.948139 
L 80.313724 74.992471 
L 84.868827 69.738186 
L 89.423929 64.011881 
L 93.979031 59.587887 
L 98.534133 55.428841 
L 103.089235 50.928315 
L 107.644337 48.088483 
L 112.199439 47.889251 
L 116.754541 43.416856 
L 121.309643 40.4665 
L 125.864745 37.917741 
L 130.419847 36.230678 
L 134.974949 35.469665 
L 139.530051 35.431815 
L 144.085153 37.963912 
L 148.640255 42.846681 
L 153.195357 50.322884 
L 157.750459 62.578604 
L 162.305561 74.630253 
L 166.860663 86.255922 
L 171.415765 103.522091 
L 175.970867 116.780909 
L 180.525969 124.009954 
L 185.081071 131.159498 
L 189.636173 136.177377 
L 194.191276 139.870165 
L 198.746378 144.356403 
L 203.30148 147.635585 
L 207.856582 151.249647 
L 212.411684 154.983026 
L 216.966786 158.414224 
L 221.521888 161.048367 
L 226.07699 165.746495 
L 230.632092 170.207989 
L 235.187194 173.194262 
L 239.742296 175.247435 
L 244.297398 176.455802 
L 248.8525 178.068054 
" style="fill:none;opacity:0.5;stroke:#73c476;stroke-linecap:square;stroke-width:0.5;"/>
   </g>
   <g id="line2d_48">
    <path clip-path="url(#p25e44274e5)" d="M 25.6525 123.109177 
L 30.207602 113.901978 
L 34.762704 106.639255 
L 39.317806 98.119963 
L 43.872908 90.791786 
L 48.42801 82.595467 
L 52.983112 74.518345 
L 57.538214 68.650093 
L 62.093316 61.519566 
L 66.648418 55.42323 
L 71.20352 49.120316 
L 75.758622 44.550327 
L 80.313724 40.6674 
L 84.868827 37.108136 
L 89.423929 34.246477 
L 93.979031 31.632196 
L 98.534133 29.988256 
L 103.089235 29.633946 
L 107.644337 30.2911 
L 112.199439 33.051338 
L 116.754541 39.087625 
L 121.309643 47.102775 
L 125.864745 60.791773 
L 130.419847 71.666432 
L 134.974949 82.054517 
L 139.530051 91.856587 
L 144.085153 98.955719 
L 148.640255 107.697546 
L 153.195357 114.620875 
L 157.750459 123.45702 
L 162.305561 131.566806 
L 166.860663 137.949195 
L 171.415765 144.638322 
L 175.970867 150.818832 
L 180.525969 157.239914 
L 185.081071 161.967398 
L 189.636173 165.763623 
L 194.191276 169.34047 
L 198.746378 171.999498 
L 203.30148 175.690312 
L 207.856582 177.200407 
L 212.411684 178.979464 
L 216.966786 179.691775 
L 221.521888 180.150953 
L 226.07699 180.150953 
L 230.632092 180.150953 
L 235.187194 180.150953 
L 239.742296 180.150953 
L 244.297398 180.150953 
L 248.8525 180.150953 
" style="fill:none;opacity:0.5;stroke:#73c476;stroke-linecap:square;stroke-width:0.5;"/>
   </g>
   <g id="line2d_49">
    <path clip-path="url(#p25e44274e5)" d="M 25.6525 165.407295 
L 30.207602 158.026786 
L 34.762704 147.759435 
L 39.317806 142.711349 
L 43.872908 135.971435 
L 48.42801 127.750281 
L 52.983112 121.354131 
L 57.538214 113.408687 
L 62.093316 104.385527 
L 66.648418 95.970406 
L 71.20352 87.794128 
L 75.758622 81.024873 
L 80.313724 74.701784 
L 84.868827 67.529814 
L 89.423929 60.226898 
L 93.979031 53.955073 
L 98.534133 48.274901 
L 103.089235 43.480246 
L 107.644337 39.658607 
L 112.199439 36.185947 
L 116.754541 33.986254 
L 121.309643 32.349567 
L 125.864745 32.313266 
L 130.419847 33.013052 
L 134.974949 36.576479 
L 139.530051 42.691873 
L 144.085153 52.659297 
L 148.640255 57.258749 
L 153.195357 64.207412 
L 157.750459 72.129115 
L 162.305561 80.303601 
L 166.860663 87.923363 
L 171.415765 98.031857 
L 175.970867 108.459653 
L 180.525969 117.788131 
L 185.081071 124.542832 
L 189.636173 133.060441 
L 194.191276 142.508126 
L 198.746378 151.545869 
L 203.30148 158.115712 
L 207.856582 163.616389 
L 212.411684 169.428736 
L 216.966786 172.921457 
L 221.521888 176.358827 
L 226.07699 178.072885 
L 230.632092 179.677241 
L 235.187194 179.914082 
L 239.742296 180.150953 
L 244.297398 180.150953 
L 248.8525 180.150953 
" style="fill:none;opacity:0.5;stroke:#73c476;stroke-linecap:square;stroke-width:0.5;"/>
   </g>
   <g id="line2d_50">
    <path clip-path="url(#p25e44274e5)" d="M 25.6525 118.519718 
L 30.207602 108.093276 
L 34.762704 99.128657 
L 39.317806 92.346375 
L 43.872908 85.101914 
L 48.42801 78.943656 
L 52.983112 73.531287 
L 57.538214 68.676235 
L 62.093316 63.504746 
L 66.648418 57.469383 
L 71.20352 51.261436 
L 75.758622 46.720399 
L 80.313724 43.055779 
L 84.868827 38.813614 
L 89.423929 35.787851 
L 93.979031 33.564824 
L 98.534133 32.071003 
L 103.089235 31.555331 
L 107.644337 32.383099 
L 112.199439 35.273928 
L 116.754541 40.918971 
L 121.309643 51.2708 
L 125.864745 62.188699 
L 130.419847 75.042376 
L 134.974949 92.331777 
L 139.530051 104.272563 
L 144.085153 113.319847 
L 148.640255 119.200212 
L 153.195357 125.474602 
L 157.750459 131.860887 
L 162.305561 135.412158 
L 166.860663 138.70378 
L 171.415765 143.099534 
L 175.970867 148.890846 
L 180.525969 155.464947 
L 185.081071 160.015388 
L 189.636173 163.979733 
L 194.191276 168.828753 
L 198.746378 172.258193 
L 203.30148 175.387113 
L 207.856582 177.608567 
L 212.411684 178.967067 
L 216.966786 179.677241 
L 221.521888 179.677241 
L 226.07699 179.677241 
L 230.632092 179.823057 
L 235.187194 179.914082 
L 239.742296 180.150953 
L 244.297398 180.150953 
L 248.8525 180.150953 
" style="fill:none;opacity:0.5;stroke:#73c476;stroke-linecap:square;stroke-width:0.5;"/>
   </g>
   <g id="line2d_51">
    <path clip-path="url(#p25e44274e5)" d="M 25.6525 173.487339 
L 30.207602 171.493319 
L 34.762704 168.051878 
L 39.317806 161.739433 
L 43.872908 154.031393 
L 48.42801 143.661539 
L 52.983112 132.173824 
L 57.538214 122.925268 
L 62.093316 114.288209 
L 66.648418 106.239469 
L 71.20352 97.445888 
L 75.758622 87.753344 
L 80.313724 82.125244 
L 84.868827 75.381271 
L 89.423929 68.520519 
L 93.979031 62.291441 
L 98.534133 59.214566 
L 103.089235 54.023241 
L 107.644337 48.768425 
L 112.199439 44.930792 
L 116.754541 40.889397 
L 121.309643 37.881907 
L 125.864745 35.33782 
L 130.419847 34.162859 
L 134.974949 32.662723 
L 139.530051 33.134038 
L 144.085153 35.807888 
L 148.640255 40.632122 
L 153.195357 47.792888 
L 157.750459 57.767691 
L 162.305561 69.237671 
L 166.860663 80.748428 
L 171.415765 89.613874 
L 175.970867 98.227012 
L 180.525969 107.837294 
L 185.081071 119.612038 
L 189.636173 124.569616 
L 194.191276 131.081713 
L 198.746378 138.588214 
L 203.30148 144.625176 
L 207.856582 150.430859 
L 212.411684 155.366894 
L 216.966786 161.063111 
L 221.521888 164.640556 
L 226.07699 168.56162 
L 230.632092 172.037366 
L 235.187194 174.297244 
L 239.742296 175.827356 
L 244.297398 178.004755 
L 248.8525 179.017525 
" style="fill:none;opacity:0.5;stroke:#73c476;stroke-linecap:square;stroke-width:0.5;"/>
   </g>
   <g id="line2d_52">
    <path clip-path="url(#p25e44274e5)" d="M 25.6525 90.192339 
L 30.207602 83.702649 
L 34.762704 77.509537 
L 39.317806 71.433102 
L 43.872908 66.197622 
L 48.42801 58.889701 
L 52.983112 53.456323 
L 57.538214 47.585138 
L 62.093316 41.954423 
L 66.648418 38.704778 
L 71.20352 35.481925 
L 75.758622 33.104026 
L 80.313724 31.914353 
L 84.868827 31.868257 
L 89.423929 33.987783 
L 93.979031 39.383629 
L 98.534133 46.097795 
L 103.089235 55.248481 
L 107.644337 72.131924 
L 112.199439 83.87587 
L 116.754541 89.848309 
L 121.309643 94.417317 
L 125.864745 99.071381 
L 130.419847 105.908534 
L 134.974949 112.859238 
L 139.530051 119.87035 
L 144.085153 125.37884 
L 148.640255 131.251936 
L 153.195357 136.363809 
L 157.750459 144.060098 
L 162.305561 150.935366 
L 166.860663 157.497238 
L 171.415765 164.948986 
L 175.970867 168.817072 
L 180.525969 172.630076 
L 185.081071 175.563007 
L 189.636173 177.665635 
L 194.191276 179.210867 
L 198.746378 179.677242 
L 203.30148 179.98878 
L 207.856582 180.150953 
L 212.411684 180.150953 
L 216.966786 180.150953 
L 221.521888 180.150953 
L 226.07699 180.150953 
L 230.632092 180.150953 
L 235.187194 180.150953 
L 239.742296 180.150953 
L 244.297398 180.150953 
L 248.8525 180.150953 
" style="fill:none;opacity:0.5;stroke:#73c476;stroke-linecap:square;stroke-width:0.5;"/>
   </g>
   <g id="line2d_53">
    <path clip-path="url(#p25e44274e5)" d="M 25.6525 138.75226 
L 30.207602 130.110832 
L 34.762704 125.451497 
L 39.317806 118.221282 
L 43.872908 110.360273 
L 48.42801 102.014316 
L 52.983112 93.688009 
L 57.538214 86.20692 
L 62.093316 79.771089 
L 66.648418 72.577891 
L 71.20352 65.378859 
L 75.758622 58.953517 
L 80.313724 53.138326 
L 84.868827 46.940074 
L 89.423929 42.079592 
L 93.979031 38.74059 
L 98.534133 35.501661 
L 103.089235 32.241777 
L 107.644337 30.253723 
L 112.199439 29.379227 
L 116.754541 30.830405 
L 121.309643 34.710799 
L 125.864745 40.295362 
L 130.419847 49.347098 
L 134.974949 63.335471 
L 139.530051 72.489799 
L 144.085153 77.153154 
L 148.640255 83.372076 
L 153.195357 91.764816 
L 157.750459 99.072641 
L 162.305561 108.520872 
L 166.860663 116.11344 
L 171.415765 122.70099 
L 175.970867 129.7099 
L 180.525969 138.03572 
L 185.081071 144.52984 
L 189.636173 151.117169 
L 194.191276 157.964971 
L 198.746378 163.418172 
L 203.30148 166.674855 
L 207.856582 170.060591 
L 212.411684 174.10667 
L 216.966786 176.578325 
L 221.521888 179.440524 
L 226.07699 179.909642 
L 230.632092 180.005928 
L 235.187194 180.150953 
L 239.742296 180.150953 
L 244.297398 180.150953 
L 248.8525 180.150953 
" style="fill:none;opacity:0.5;stroke:#73c476;stroke-linecap:square;stroke-width:0.5;"/>
   </g>
   <g id="line2d_54">
    <path clip-path="url(#p25e44274e5)" d="M 25.6525 143.243398 
L 30.207602 134.551384 
L 34.762704 126.628883 
L 39.317806 117.767964 
L 43.872908 109.128372 
L 48.42801 99.158502 
L 52.983112 89.552771 
L 57.538214 80.506191 
L 62.093316 71.663914 
L 66.648418 63.585359 
L 71.20352 56.964072 
L 75.758622 50.467202 
L 80.313724 45.311923 
L 84.868827 41.089001 
L 89.423929 37.268289 
L 93.979031 34.375175 
L 98.534133 32.500562 
L 103.089235 31.354841 
L 107.644337 30.659177 
L 112.199439 30.575631 
L 116.754541 31.606854 
L 121.309643 35.074838 
L 125.864745 39.611512 
L 130.419847 48.783683 
L 134.974949 63.535709 
L 139.530051 73.544099 
L 144.085153 81.388002 
L 148.640255 89.565501 
L 153.195357 99.977912 
L 157.750459 110.429876 
L 162.305561 121.935851 
L 166.860663 131.181046 
L 171.415765 141.206053 
L 175.970867 149.597384 
L 180.525969 157.169811 
L 185.081071 163.930289 
L 189.636173 169.316238 
L 194.191276 172.212083 
L 198.746378 176.114861 
L 203.30148 178.192122 
L 207.856582 179.229745 
L 212.411684 179.463536 
L 216.966786 179.511782 
L 221.521888 180.150953 
L 226.07699 180.150953 
L 230.632092 180.150953 
L 235.187194 180.150953 
L 239.742296 180.150953 
L 244.297398 180.150953 
L 248.8525 180.150953 
" style="fill:none;opacity:0.5;stroke:#73c476;stroke-linecap:square;stroke-width:0.5;"/>
   </g>
   <g id="line2d_55">
    <path clip-path="url(#p25e44274e5)" d="M 25.6525 179.009279 
L 30.207602 173.77399 
L 34.762704 165.368601 
L 39.317806 157.910246 
L 43.872908 146.231103 
L 48.42801 129.689972 
L 52.983112 122.050622 
L 57.538214 115.483062 
L 62.093316 109.880318 
L 66.648418 104.528811 
L 71.20352 97.139047 
L 75.758622 90.984285 
L 80.313724 84.580198 
L 84.868827 77.416596 
L 89.423929 69.770613 
L 93.979031 61.63967 
L 98.534133 54.913994 
L 103.089235 49.967027 
L 107.644337 45.383264 
L 112.199439 41.196111 
L 116.754541 37.599881 
L 121.309643 34.853756 
L 125.864745 32.845549 
L 130.419847 32.119862 
L 134.974949 32.796642 
L 139.530051 35.678602 
L 144.085153 42.012798 
L 148.640255 47.652535 
L 153.195357 58.325415 
L 157.750459 77.378932 
L 162.305561 85.421933 
L 166.860663 91.143713 
L 171.415765 96.756519 
L 175.970867 100.584504 
L 180.525969 107.687954 
L 185.081071 113.574333 
L 189.636173 119.904288 
L 194.191276 126.690133 
L 198.746378 135.042109 
L 203.30148 145.054395 
L 207.856582 152.452375 
L 212.411684 158.85024 
L 216.966786 163.092912 
L 221.521888 167.876048 
L 226.07699 171.695737 
L 230.632092 175.279578 
L 235.187194 177.375327 
L 239.742296 179.028988 
L 244.297398 179.513068 
L 248.8525 180.150953 
" style="fill:none;opacity:0.5;stroke:#73c476;stroke-linecap:square;stroke-width:0.5;"/>
   </g>
   <g id="line2d_56">
    <path clip-path="url(#p25e44274e5)" d="M 25.6525 101.173621 
L 30.207602 93.877828 
L 34.762704 87.358611 
L 39.317806 80.253811 
L 43.872908 73.863676 
L 48.42801 68.082828 
L 52.983112 63.047192 
L 57.538214 58.704589 
L 62.093316 54.80072 
L 66.648418 50.371788 
L 71.20352 44.452961 
L 75.758622 40.162809 
L 80.313724 36.456093 
L 84.868827 33.92775 
L 89.423929 32.945531 
L 93.979031 32.900285 
L 98.534133 34.980299 
L 103.089235 39.497403 
L 107.644337 47.730814 
L 112.199439 55.723403 
L 116.754541 67.889099 
L 121.309643 87.082875 
L 125.864745 95.505644 
L 130.419847 102.849868 
L 134.974949 107.281781 
L 139.530051 113.222877 
L 144.085153 119.09583 
L 148.640255 125.844671 
L 153.195357 131.482157 
L 157.750459 137.12128 
L 162.305561 141.630727 
L 166.860663 144.75192 
L 171.415765 147.836954 
L 175.970867 152.723013 
L 180.525969 159.955571 
L 185.081071 166.183957 
L 189.636173 172.033957 
L 194.191276 175.263056 
L 198.746378 176.825514 
L 203.30148 178.26759 
L 207.856582 178.802074 
L 212.411684 179.914082 
L 216.966786 179.914082 
L 221.521888 179.914082 
L 226.07699 180.150953 
L 230.632092 180.150953 
L 235.187194 180.150953 
L 239.742296 180.150953 
L 244.297398 180.150953 
L 248.8525 180.150953 
" style="fill:none;opacity:0.5;stroke:#73c476;stroke-linecap:square;stroke-width:0.5;"/>
   </g>
   <g id="line2d_57">
    <path clip-path="url(#p25e44274e5)" d="M 25.6525 147.321907 
L 30.207602 135.905321 
L 34.762704 125.443878 
L 39.317806 116.577872 
L 43.872908 107.458627 
L 48.42801 98.295242 
L 52.983112 88.210246 
L 57.538214 79.055955 
L 62.093316 70.492503 
L 66.648418 61.900758 
L 71.20352 55.58451 
L 75.758622 50.071425 
L 80.313724 45.1785 
L 84.868827 41.024118 
L 89.423929 37.469313 
L 93.979031 34.882323 
L 98.534133 32.786783 
L 103.089235 30.896589 
L 107.644337 30.210035 
L 112.199439 29.52925 
L 116.754541 29.815233 
L 121.309643 32.730091 
L 125.864745 39.126056 
L 130.419847 46.759252 
L 134.974949 58.985651 
L 139.530051 71.968219 
L 144.085153 81.815226 
L 148.640255 92.38751 
L 153.195357 101.781542 
L 157.750459 111.908934 
L 162.305561 122.967695 
L 166.860663 133.23892 
L 171.415765 143.248811 
L 175.970867 152.224239 
L 180.525969 158.935332 
L 185.081071 163.327455 
L 189.636173 167.427276 
L 194.191276 170.419166 
L 198.746378 173.339618 
L 203.30148 175.184562 
L 207.856582 176.594249 
L 212.411684 178.052787 
L 216.966786 178.608205 
L 221.521888 179.677241 
L 226.07699 180.150953 
L 230.632092 180.150953 
L 235.187194 180.150953 
L 239.742296 180.150953 
L 244.297398 180.150953 
L 248.8525 180.150953 
" style="fill:none;opacity:0.5;stroke:#73c476;stroke-linecap:square;stroke-width:0.5;"/>
   </g>
   <g id="line2d_58">
    <path clip-path="url(#p25e44274e5)" d="M 25.6525 114.167047 
L 30.207602 106.215726 
L 34.762704 95.641871 
L 39.317806 87.081729 
L 43.872908 77.751164 
L 48.42801 69.538226 
L 52.983112 62.729875 
L 57.538214 56.966396 
L 62.093316 51.458297 
L 66.648418 46.222093 
L 71.20352 41.577891 
L 75.758622 38.004436 
L 80.313724 34.958154 
L 84.868827 32.600241 
L 89.423929 30.963924 
L 93.979031 30.088218 
L 98.534133 30.516968 
L 103.089235 32.024229 
L 107.644337 37.47118 
L 112.199439 43.948972 
L 116.754541 53.342145 
L 121.309643 67.963657 
L 125.864745 79.947538 
L 130.419847 85.459493 
L 134.974949 92.324876 
L 139.530051 100.252781 
L 144.085153 112.405502 
L 148.640255 121.604615 
L 153.195357 132.341504 
L 157.750459 141.467943 
L 162.305561 147.471712 
L 166.860663 152.795312 
L 171.415765 157.755733 
L 175.970867 163.509825 
L 180.525969 168.023359 
L 185.081071 171.623997 
L 189.636173 174.362106 
L 194.191276 176.335192 
L 198.746378 178.376078 
L 203.30148 179.245883 
L 207.856582 179.67546 
L 212.411684 179.98725 
L 216.966786 180.150953 
L 221.521888 180.150953 
L 226.07699 180.150953 
L 230.632092 180.150953 
L 235.187194 180.150953 
L 239.742296 180.150953 
L 244.297398 180.150953 
L 248.8525 180.150953 
" style="fill:none;opacity:0.5;stroke:#73c476;stroke-linecap:square;stroke-width:0.5;"/>
   </g>
   <g id="line2d_59">
    <path clip-path="url(#p25e44274e5)" d="M 25.6525 140.516416 
L 30.207602 125.200444 
L 34.762704 115.872487 
L 39.317806 108.937957 
L 43.872908 99.914787 
L 48.42801 92.22066 
L 52.983112 84.973832 
L 57.538214 77.436784 
L 62.093316 69.953894 
L 66.648418 62.829964 
L 71.20352 56.173062 
L 75.758622 50.00045 
L 80.313724 45.04422 
L 84.868827 41.262086 
L 89.423929 37.489665 
L 93.979031 34.661997 
L 98.534133 32.806579 
L 103.089235 31.637265 
L 107.644337 30.829639 
L 112.199439 30.916451 
L 116.754541 33.133867 
L 121.309643 36.806391 
L 125.864745 46.621365 
L 130.419847 55.383203 
L 134.974949 66.536178 
L 139.530051 83.879806 
L 144.085153 94.263799 
L 148.640255 100.970403 
L 153.195357 109.117358 
L 157.750459 117.610166 
L 162.305561 124.870374 
L 166.860663 132.6329 
L 171.415765 140.352937 
L 175.970867 147.349919 
L 180.525969 154.391488 
L 185.081071 160.955354 
L 189.636173 165.918373 
L 194.191276 169.475263 
L 198.746378 172.653402 
L 203.30148 175.842193 
L 207.856582 176.992292 
L 212.411684 178.304913 
L 216.966786 179.165417 
L 221.521888 179.684954 
L 226.07699 180.150953 
L 230.632092 180.150953 
L 235.187194 180.150953 
L 239.742296 180.150953 
L 244.297398 180.150953 
L 248.8525 180.150953 
" style="fill:none;opacity:0.5;stroke:#73c476;stroke-linecap:square;stroke-width:0.5;"/>
   </g>
   <g id="line2d_60">
    <path clip-path="url(#p25e44274e5)" d="M 25.6525 170.740518 
L 30.207602 164.034724 
L 34.762704 154.506826 
L 39.317806 139.485959 
L 43.872908 128.441205 
L 48.42801 121.675924 
L 52.983112 114.775306 
L 57.538214 104.462824 
L 62.093316 95.89545 
L 66.648418 88.594946 
L 71.20352 81.91336 
L 75.758622 75.382269 
L 80.313724 69.908533 
L 84.868827 63.049214 
L 89.423929 56.856819 
L 93.979031 50.580554 
L 98.534133 44.609392 
L 103.089235 39.66185 
L 107.644337 35.533807 
L 112.199439 33.804946 
L 116.754541 32.001731 
L 121.309643 30.752661 
L 125.864745 30.294729 
L 130.419847 31.741508 
L 134.974949 36.677661 
L 139.530051 42.26275 
L 144.085153 51.257539 
L 148.640255 65.838064 
L 153.195357 78.570578 
L 157.750459 85.065577 
L 162.305561 91.014083 
L 166.860663 102.427112 
L 171.415765 111.399592 
L 175.970867 118.166063 
L 180.525969 124.610092 
L 185.081071 130.749749 
L 189.636173 135.548801 
L 194.191276 142.477129 
L 198.746378 148.571918 
L 203.30148 156.769689 
L 207.856582 162.92752 
L 212.411684 169.495477 
L 216.966786 174.540826 
L 221.521888 175.848568 
L 226.07699 177.168421 
L 230.632092 178.66933 
L 235.187194 179.69524 
L 239.742296 180.150953 
L 244.297398 180.150953 
L 248.8525 180.150953 
" style="fill:none;opacity:0.5;stroke:#73c476;stroke-linecap:square;stroke-width:0.5;"/>
   </g>
   <g id="line2d_61">
    <path clip-path="url(#p25e44274e5)" d="M 25.6525 112.575186 
L 30.207602 106.868458 
L 34.762704 98.442479 
L 39.317806 90.872094 
L 43.872908 84.34085 
L 48.42801 77.988471 
L 52.983112 72.589599 
L 57.538214 66.36162 
L 62.093316 59.355513 
L 66.648418 53.006405 
L 71.20352 47.482788 
L 75.758622 42.372139 
L 80.313724 38.106019 
L 84.868827 34.89995 
L 89.423929 32.540581 
L 93.979031 31.653451 
L 98.534133 31.930292 
L 103.089235 35.658295 
L 107.644337 39.618875 
L 112.199439 45.172639 
L 116.754541 55.729536 
L 121.309643 73.750177 
L 125.864745 79.741758 
L 130.419847 86.162683 
L 134.974949 91.862381 
L 139.530051 96.557487 
L 144.085153 105.173908 
L 148.640255 112.410404 
L 153.195357 119.252379 
L 157.750459 125.180409 
L 162.305561 130.243343 
L 166.860663 136.579179 
L 171.415765 144.957493 
L 175.970867 151.64541 
L 180.525969 158.381149 
L 185.081071 164.753424 
L 189.636173 170.593214 
L 194.191276 174.456085 
L 198.746378 177.320514 
L 203.30148 178.487435 
L 207.856582 179.42964 
L 212.411684 179.446966 
L 216.966786 179.987401 
L 221.521888 180.150953 
L 226.07699 180.150953 
L 230.632092 180.150953 
L 235.187194 180.150953 
L 239.742296 180.150953 
L 244.297398 180.150953 
L 248.8525 180.150953 
" style="fill:none;opacity:0.5;stroke:#73c476;stroke-linecap:square;stroke-width:0.5;"/>
   </g>
   <g id="line2d_62">
    <path clip-path="url(#p25e44274e5)" d="M 25.6525 169.956792 
L 30.207602 165.80907 
L 34.762704 158.450621 
L 39.317806 149.357365 
L 43.872908 139.432106 
L 48.42801 124.158895 
L 52.983112 115.07494 
L 57.538214 106.314197 
L 62.093316 97.421253 
L 66.648418 90.571456 
L 71.20352 83.029361 
L 75.758622 76.036448 
L 80.313724 71.006065 
L 84.868827 64.886728 
L 89.423929 59.716428 
L 93.979031 54.977231 
L 98.534133 50.075839 
L 103.089235 45.650007 
L 107.644337 42.521167 
L 112.199439 42.469892 
L 116.754541 39.62264 
L 121.309643 37.290832 
L 125.864745 35.890376 
L 130.419847 35.516231 
L 134.974949 35.752502 
L 139.530051 38.856315 
L 144.085153 45.480338 
L 148.640255 53.122098 
L 153.195357 63.697692 
L 157.750459 80.211909 
L 162.305561 91.591242 
L 166.860663 100.323698 
L 171.415765 109.715434 
L 175.970867 116.633359 
L 180.525969 123.907042 
L 185.081071 131.161626 
L 189.636173 135.867732 
L 194.191276 141.296585 
L 198.746378 146.230921 
L 203.30148 150.22805 
L 207.856582 155.498291 
L 212.411684 159.781309 
L 216.966786 165.147389 
L 221.521888 168.867675 
L 226.07699 171.516584 
L 230.632092 174.36189 
L 235.187194 176.692183 
L 239.742296 177.467671 
L 244.297398 179.202789 
L 248.8525 179.914082 
" style="fill:none;opacity:0.5;stroke:#73c476;stroke-linecap:square;stroke-width:0.5;"/>
   </g>
   <g id="line2d_63">
    <path clip-path="url(#p25e44274e5)" d="M 25.6525 168.593649 
L 30.207602 163.402598 
L 34.762704 157.39773 
L 39.317806 147.104627 
L 43.872908 134.136497 
L 48.42801 126.161438 
L 52.983112 118.445564 
L 57.538214 109.591632 
L 62.093316 101.354215 
L 66.648418 92.00444 
L 71.20352 82.522025 
L 75.758622 74.115219 
L 80.313724 68.304573 
L 84.868827 63.144342 
L 89.423929 56.798134 
L 93.979031 51.226631 
L 98.534133 45.78284 
L 103.089235 40.95182 
L 107.644337 37.067723 
L 112.199439 35.289057 
L 116.754541 35.832971 
L 121.309643 34.175395 
L 125.864745 32.797673 
L 130.419847 33.01636 
L 134.974949 34.861635 
L 139.530051 38.464569 
L 144.085153 44.309295 
L 148.640255 52.882221 
L 153.195357 66.952874 
L 157.750459 74.879483 
L 162.305561 83.672731 
L 166.860663 92.220366 
L 171.415765 101.923398 
L 175.970867 112.1928 
L 180.525969 123.002637 
L 185.081071 132.298447 
L 189.636173 137.421105 
L 194.191276 142.231312 
L 198.746378 148.796754 
L 203.30148 154.316454 
L 207.856582 159.929091 
L 212.411684 165.57711 
L 216.966786 169.756647 
L 221.521888 173.396472 
L 226.07699 175.758214 
L 230.632092 176.726616 
L 235.187194 178.109915 
L 239.742296 179.202754 
L 244.297398 179.559996 
L 248.8525 180.150945 
" style="fill:none;opacity:0.5;stroke:#73c476;stroke-linecap:square;stroke-width:0.5;"/>
   </g>
   <g id="line2d_64">
    <path clip-path="url(#p25e44274e5)" d="M 25.6525 164.153231 
L 30.207602 153.588955 
L 34.762704 141.412952 
L 39.317806 128.158692 
L 43.872908 118.434177 
L 48.42801 109.560401 
L 52.983112 101.207656 
L 57.538214 94.4665 
L 62.093316 87.469919 
L 66.648418 80.236197 
L 71.20352 72.564044 
L 75.758622 65.443165 
L 80.313724 58.037052 
L 84.868827 51.437073 
L 89.423929 46.157423 
L 93.979031 42.130902 
L 98.534133 38.256039 
L 103.089235 34.939432 
L 107.644337 32.934857 
L 112.199439 31.126155 
L 116.754541 29.80546 
L 121.309643 29.589362 
L 125.864745 31.140371 
L 130.419847 34.873353 
L 134.974949 42.210105 
L 139.530051 51.010747 
L 144.085153 62.978371 
L 148.640255 78.830367 
L 153.195357 89.833478 
L 157.750459 98.27165 
L 162.305561 107.251143 
L 166.860663 113.23264 
L 171.415765 119.849285 
L 175.970867 126.712037 
L 180.525969 134.994185 
L 185.081071 141.931784 
L 189.636173 150.133294 
L 194.191276 157.40385 
L 198.746378 162.172008 
L 203.30148 165.934633 
L 207.856582 169.914467 
L 212.411684 172.99299 
L 216.966786 175.249875 
L 221.521888 176.858123 
L 226.07699 178.551409 
L 230.632092 179.225 
L 235.187194 179.50547 
L 239.742296 179.914082 
L 244.297398 180.150953 
L 248.8525 180.150953 
" style="fill:none;opacity:0.5;stroke:#73c476;stroke-linecap:square;stroke-width:0.5;"/>
   </g>
   <g id="line2d_65">
    <path clip-path="url(#p25e44274e5)" d="M 25.6525 177.238439 
L 30.207602 168.569397 
L 34.762704 158.940001 
L 39.317806 148.218654 
L 43.872908 135.980351 
L 48.42801 123.537655 
L 52.983112 113.530574 
L 57.538214 104.753174 
L 62.093316 95.081767 
L 66.648418 88.022754 
L 71.20352 80.348677 
L 75.758622 73.494746 
L 80.313724 67.341824 
L 84.868827 60.86722 
L 89.423929 54.141967 
L 93.979031 48.726617 
L 98.534133 43.593446 
L 103.089235 39.134979 
L 107.644337 35.59159 
L 112.199439 33.107053 
L 116.754541 31.395105 
L 121.309643 30.203183 
L 125.864745 29.949646 
L 130.419847 30.597054 
L 134.974949 32.701161 
L 139.530051 38.293629 
L 144.085153 47.021634 
L 148.640255 57.860047 
L 153.195357 70.833178 
L 157.750459 84.890591 
L 162.305561 96.184182 
L 166.860663 105.053386 
L 171.415765 115.659578 
L 175.970867 122.247355 
L 180.525969 129.668119 
L 185.081071 136.183315 
L 189.636173 141.847753 
L 194.191276 147.915181 
L 198.746378 155.12915 
L 203.30148 160.887592 
L 207.856582 165.358203 
L 212.411684 170.764668 
L 216.966786 174.201966 
L 221.521888 176.510805 
L 226.07699 177.834485 
L 230.632092 179.036055 
L 235.187194 179.677241 
L 239.742296 179.914819 
L 244.297398 180.150953 
L 248.8525 180.150953 
" style="fill:none;opacity:0.5;stroke:#73c476;stroke-linecap:square;stroke-width:0.5;"/>
   </g>
   <g id="line2d_66">
    <path clip-path="url(#p25e44274e5)" d="M 25.6525 144.503938 
L 30.207602 136.784861 
L 34.762704 127.531867 
L 39.317806 120.82376 
L 43.872908 113.305912 
L 48.42801 105.088643 
L 52.983112 98.795601 
L 57.538214 92.219651 
L 62.093316 85.607708 
L 66.648418 77.27717 
L 71.20352 69.467339 
L 75.758622 62.183825 
L 80.313724 55.236379 
L 84.868827 48.846225 
L 89.423929 43.844231 
L 93.979031 39.453057 
L 98.534133 34.060584 
L 103.089235 30.207308 
L 107.644337 28.291697 
L 112.199439 27.95746 
L 116.754541 29.418208 
L 121.309643 32.760072 
L 125.864745 38.58785 
L 130.419847 46.769348 
L 134.974949 55.196198 
L 139.530051 62.792904 
L 144.085153 71.516073 
L 148.640255 78.155614 
L 153.195357 84.733552 
L 157.750459 93.93097 
L 162.305561 99.889264 
L 166.860663 106.442594 
L 171.415765 112.231876 
L 175.970867 121.562234 
L 180.525969 130.599771 
L 185.081071 138.640739 
L 189.636173 147.332064 
L 194.191276 154.511247 
L 198.746378 159.414214 
L 203.30148 164.605947 
L 207.856582 171.718302 
L 212.411684 176.869894 
L 216.966786 179.632443 
L 221.521888 179.914218 
L 226.07699 180.150953 
L 230.632092 180.150953 
L 235.187194 180.150953 
L 239.742296 180.150953 
L 244.297398 180.150953 
L 248.8525 180.150953 
" style="fill:none;opacity:0.5;stroke:#73c476;stroke-linecap:square;stroke-width:0.5;"/>
   </g>
   <g id="line2d_67">
    <path clip-path="url(#p25e44274e5)" d="M 25.6525 124.175105 
L 30.207602 110.957879 
L 34.762704 100.052283 
L 39.317806 91.674847 
L 43.872908 84.257573 
L 48.42801 76.993344 
L 52.983112 69.767991 
L 57.538214 65.023632 
L 62.093316 61.258476 
L 66.648418 56.54425 
L 71.20352 51.699276 
L 75.758622 47.039196 
L 80.313724 42.704469 
L 84.868827 39.502314 
L 89.423929 37.216809 
L 93.979031 34.616387 
L 98.534133 33.809138 
L 103.089235 33.183272 
L 107.644337 32.965378 
L 112.199439 34.85758 
L 116.754541 38.947745 
L 121.309643 47.785233 
L 125.864745 60.320966 
L 130.419847 73.585786 
L 134.974949 87.001175 
L 139.530051 102.92806 
L 144.085153 115.128303 
L 148.640255 124.18625 
L 153.195357 131.326952 
L 157.750459 137.696253 
L 162.305561 144.418329 
L 166.860663 147.607426 
L 171.415765 149.684368 
L 175.970867 152.600092 
L 180.525969 156.995884 
L 185.081071 160.795043 
L 189.636173 165.7112 
L 194.191276 169.285599 
L 198.746378 171.018681 
L 203.30148 174.332651 
L 207.856582 175.39036 
L 212.411684 176.706187 
L 216.966786 178.302314 
L 221.521888 178.766655 
L 226.07699 179.079307 
L 230.632092 179.682513 
L 235.187194 180.150953 
L 239.742296 180.150953 
L 244.297398 180.150953 
L 248.8525 180.150953 
" style="fill:none;opacity:0.5;stroke:#73c476;stroke-linecap:square;stroke-width:0.5;"/>
   </g>
   <g id="line2d_68">
    <path clip-path="url(#p25e44274e5)" d="M 25.6525 116.46852 
L 30.207602 110.106327 
L 34.762704 101.960252 
L 39.317806 93.951845 
L 43.872908 86.39281 
L 48.42801 78.245501 
L 52.983112 71.248131 
L 57.538214 64.035221 
L 62.093316 57.535677 
L 66.648418 51.784067 
L 71.20352 45.286685 
L 75.758622 40.190783 
L 80.313724 35.831432 
L 84.868827 33.077571 
L 89.423929 30.917651 
L 93.979031 29.39722 
L 98.534133 28.919212 
L 103.089235 29.927453 
L 107.644337 33.326601 
L 112.199439 38.369464 
L 116.754541 45.936938 
L 121.309643 57.66717 
L 125.864745 70.035835 
L 130.419847 79.93361 
L 134.974949 86.984238 
L 139.530051 93.262137 
L 144.085153 101.022147 
L 148.640255 109.378201 
L 153.195357 116.756262 
L 157.750459 125.959569 
L 162.305561 133.386296 
L 166.860663 141.075904 
L 171.415765 147.948969 
L 175.970867 153.67637 
L 180.525969 160.656687 
L 185.081071 167.410395 
L 189.636173 172.07206 
L 194.191276 174.703035 
L 198.746378 176.832676 
L 203.30148 178.10853 
L 207.856582 179.227324 
L 212.411684 179.468523 
L 216.966786 180.022531 
L 221.521888 180.150953 
L 226.07699 180.150953 
L 230.632092 180.150953 
L 235.187194 180.150953 
L 239.742296 180.150953 
L 244.297398 180.150953 
L 248.8525 180.150953 
" style="fill:none;opacity:0.5;stroke:#73c476;stroke-linecap:square;stroke-width:0.5;"/>
   </g>
   <g id="line2d_69">
    <path clip-path="url(#p25e44274e5)" d="M 25.6525 120.823324 
L 30.207602 109.919678 
L 34.762704 100.911737 
L 39.317806 92.741919 
L 43.872908 84.803831 
L 48.42801 77.71199 
L 52.983112 71.582669 
L 57.538214 65.112643 
L 62.093316 58.396975 
L 66.648418 52.94963 
L 71.20352 48.275937 
L 75.758622 43.863123 
L 80.313724 39.849996 
L 84.868827 36.572948 
L 89.423929 34.157996 
L 93.979031 32.44133 
L 98.534133 31.723315 
L 103.089235 31.007558 
L 107.644337 31.661744 
L 112.199439 34.10101 
L 116.754541 39.345636 
L 121.309643 47.527524 
L 125.864745 59.660601 
L 130.419847 72.952437 
L 134.974949 89.975642 
L 139.530051 103.014586 
L 144.085153 111.932499 
L 148.640255 120.017725 
L 153.195357 128.222248 
L 157.750459 135.274905 
L 162.305561 140.210137 
L 166.860663 145.53916 
L 171.415765 152.845718 
L 175.970867 157.532671 
L 180.525969 161.653852 
L 185.081071 165.2 
L 189.636173 169.292264 
L 194.191276 172.581355 
L 198.746378 174.573784 
L 203.30148 176.706943 
L 207.856582 176.977791 
L 212.411684 178.489933 
L 216.966786 179.203695 
L 221.521888 179.762159 
L 226.07699 180.150953 
L 230.632092 180.150953 
L 235.187194 180.150953 
L 239.742296 180.150953 
L 244.297398 180.150953 
L 248.8525 180.150953 
" style="fill:none;opacity:0.5;stroke:#73c476;stroke-linecap:square;stroke-width:0.5;"/>
   </g>
   <g id="line2d_70">
    <path clip-path="url(#p25e44274e5)" d="M 25.6525 152.986092 
L 30.207602 143.553569 
L 34.762704 131.191328 
L 39.317806 116.158318 
L 43.872908 105.344461 
L 48.42801 96.371325 
L 52.983112 90.203954 
L 57.538214 83.161879 
L 62.093316 75.928956 
L 66.648418 69.22556 
L 71.20352 63.134822 
L 75.758622 57.839065 
L 80.313724 51.782779 
L 84.868827 46.871317 
L 89.423929 42.32461 
L 93.979031 39.296131 
L 98.534133 37.477664 
L 103.089235 35.433507 
L 107.644337 33.605558 
L 112.199439 33.256095 
L 116.754541 33.06949 
L 121.309643 33.705981 
L 125.864745 37.175055 
L 130.419847 43.781714 
L 134.974949 56.042281 
L 139.530051 67.148916 
L 144.085153 79.231153 
L 148.640255 97.717147 
L 153.195357 110.655246 
L 157.750459 120.437968 
L 162.305561 125.390684 
L 166.860663 131.062286 
L 171.415765 138.149837 
L 175.970867 143.975889 
L 180.525969 149.724662 
L 185.081071 154.399051 
L 189.636173 160.252618 
L 194.191276 165.279014 
L 198.746378 169.525391 
L 203.30148 172.53543 
L 207.856582 173.157028 
L 212.411684 175.270968 
L 216.966786 177.419676 
L 221.521888 178.006894 
L 226.07699 178.624704 
L 230.632092 179.665437 
L 235.187194 180.150953 
L 239.742296 180.150953 
L 244.297398 180.150953 
L 248.8525 180.150953 
" style="fill:none;opacity:0.5;stroke:#73c476;stroke-linecap:square;stroke-width:0.5;"/>
   </g>
   <g id="line2d_71">
    <path clip-path="url(#p25e44274e5)" d="M 25.6525 125.905293 
L 30.207602 118.007424 
L 34.762704 109.806355 
L 39.317806 101.391761 
L 43.872908 92.908974 
L 48.42801 84.648524 
L 52.983112 75.659896 
L 57.538214 68.766709 
L 62.093316 62.107012 
L 66.648418 55.15513 
L 71.20352 49.131531 
L 75.758622 43.885001 
L 80.313724 40.196072 
L 84.868827 36.50765 
L 89.423929 33.408755 
L 93.979031 31.155417 
L 98.534133 29.933537 
L 103.089235 29.423214 
L 107.644337 29.968549 
L 112.199439 32.965242 
L 116.754541 38.322093 
L 121.309643 46.416592 
L 125.864745 60.174962 
L 130.419847 72.131596 
L 134.974949 79.748602 
L 139.530051 87.383812 
L 144.085153 94.955373 
L 148.640255 104.189257 
L 153.195357 113.128669 
L 157.750459 121.693548 
L 162.305561 131.913388 
L 166.860663 139.112708 
L 171.415765 145.164354 
L 175.970867 152.861887 
L 180.525969 159.660986 
L 185.081071 164.920337 
L 189.636173 168.721823 
L 194.191276 172.083099 
L 198.746378 175.125997 
L 203.30148 177.770293 
L 207.856582 178.730978 
L 212.411684 179.441512 
L 216.966786 179.679347 
L 221.521888 180.047635 
L 226.07699 180.150953 
L 230.632092 180.150953 
L 235.187194 180.150953 
L 239.742296 180.150953 
L 244.297398 180.150953 
L 248.8525 180.150953 
" style="fill:none;opacity:0.5;stroke:#73c476;stroke-linecap:square;stroke-width:0.5;"/>
   </g>
   <g id="line2d_72">
    <path clip-path="url(#p25e44274e5)" d="M 25.6525 154.880666 
L 30.207602 149.022242 
L 34.762704 143.514949 
L 39.317806 136.662273 
L 43.872908 130.959014 
L 48.42801 124.756849 
L 52.983112 116.836276 
L 57.538214 106.745527 
L 62.093316 98.26106 
L 66.648418 90.751923 
L 71.20352 83.247691 
L 75.758622 75.621075 
L 80.313724 67.435141 
L 84.868827 59.559562 
L 89.423929 53.420452 
L 93.979031 46.826851 
L 98.534133 41.232772 
L 103.089235 36.138105 
L 107.644337 32.670906 
L 112.199439 30.558565 
L 116.754541 29.809314 
L 121.309643 30.534699 
L 125.864745 32.116617 
L 130.419847 37.796773 
L 134.974949 47.016859 
L 139.530051 51.024026 
L 144.085153 55.790414 
L 148.640255 62.621313 
L 153.195357 67.364988 
L 157.750459 73.112485 
L 162.305561 81.442174 
L 166.860663 92.479277 
L 171.415765 102.161311 
L 175.970867 110.289506 
L 180.525969 118.337236 
L 185.081071 126.873009 
L 189.636173 136.073975 
L 194.191276 145.279037 
L 198.746378 152.203988 
L 203.30148 159.153967 
L 207.856582 166.006022 
L 212.411684 172.71559 
L 216.966786 176.953307 
L 221.521888 178.753313 
L 226.07699 179.789437 
L 230.632092 180.150953 
L 235.187194 180.150953 
L 239.742296 180.150953 
L 244.297398 180.150953 
L 248.8525 180.150953 
" style="fill:none;opacity:0.5;stroke:#73c476;stroke-linecap:square;stroke-width:0.5;"/>
   </g>
   <g id="line2d_73">
    <path clip-path="url(#p25e44274e5)" d="M 25.6525 117.300613 
L 30.207602 107.725679 
L 34.762704 99.950613 
L 39.317806 92.414554 
L 43.872908 84.008325 
L 48.42801 75.919905 
L 52.983112 68.781967 
L 57.538214 61.4374 
L 62.093316 55.110465 
L 66.648418 49.921828 
L 71.20352 44.946921 
L 75.758622 40.060886 
L 80.313724 36.881261 
L 84.868827 33.826618 
L 89.423929 31.941029 
L 93.979031 30.424056 
L 98.534133 29.697583 
L 103.089235 29.520924 
L 107.644337 31.274051 
L 112.199439 36.008265 
L 116.754541 42.444474 
L 121.309643 52.044343 
L 125.864745 65.1824 
L 130.419847 78.488134 
L 134.974949 90.859736 
L 139.530051 101.148291 
L 144.085153 109.080348 
L 148.640255 116.250085 
L 153.195357 124.588103 
L 157.750459 132.84908 
L 162.305561 140.728717 
L 166.860663 148.300219 
L 171.415765 153.861608 
L 175.970867 158.844886 
L 180.525969 163.940228 
L 185.081071 169.286566 
L 189.636173 171.676787 
L 194.191276 175.040506 
L 198.746378 176.499336 
L 203.30148 177.818822 
L 207.856582 178.76651 
L 212.411684 179.668145 
L 216.966786 179.914082 
L 221.521888 179.914082 
L 226.07699 180.150953 
L 230.632092 180.150953 
L 235.187194 180.150953 
L 239.742296 180.150953 
L 244.297398 180.150953 
L 248.8525 180.150953 
" style="fill:none;opacity:0.5;stroke:#73c476;stroke-linecap:square;stroke-width:0.5;"/>
   </g>
   <g id="line2d_74">
    <path clip-path="url(#p25e44274e5)" d="M 25.6525 103.006901 
L 30.207602 94.701236 
L 34.762704 88.085923 
L 39.317806 80.365972 
L 43.872908 74.977598 
L 48.42801 69.465736 
L 52.983112 62.076871 
L 57.538214 56.532263 
L 62.093316 52.063754 
L 66.648418 48.461083 
L 71.20352 44.420603 
L 75.758622 40.822848 
L 80.313724 38.010152 
L 84.868827 35.504757 
L 89.423929 34.184702 
L 93.979031 33.687797 
L 98.534133 34.608826 
L 103.089235 37.602049 
L 107.644337 44.333311 
L 112.199439 54.579866 
L 116.754541 62.900089 
L 121.309643 77.540813 
L 125.864745 97.494375 
L 130.419847 105.946927 
L 134.974949 109.904429 
L 139.530051 116.673313 
L 144.085153 122.769633 
L 148.640255 130.967483 
L 153.195357 135.104704 
L 157.750459 139.878347 
L 162.305561 146.79232 
L 166.860663 152.281679 
L 171.415765 156.972283 
L 175.970867 159.471309 
L 180.525969 163.565773 
L 185.081071 167.282979 
L 189.636173 170.598339 
L 194.191276 173.934292 
L 198.746378 175.903557 
L 203.30148 177.447164 
L 207.856582 179.200538 
L 212.411684 179.677241 
L 216.966786 179.914082 
L 221.521888 180.150953 
L 226.07699 180.150953 
L 230.632092 180.150953 
L 235.187194 180.150953 
L 239.742296 180.150953 
L 244.297398 180.150953 
L 248.8525 180.150953 
" style="fill:none;opacity:0.5;stroke:#73c476;stroke-linecap:square;stroke-width:0.5;"/>
   </g>
   <g id="line2d_75">
    <path clip-path="url(#p25e44274e5)" d="M 25.6525 127.970607 
L 30.207602 118.099357 
L 34.762704 110.595864 
L 39.317806 103.585963 
L 43.872908 97.981124 
L 48.42801 92.307857 
L 52.983112 86.866249 
L 57.538214 81.113047 
L 62.093316 74.685622 
L 66.648418 67.690472 
L 71.20352 61.898078 
L 75.758622 54.613924 
L 80.313724 48.175139 
L 84.868827 44.315163 
L 89.423929 40.302938 
L 93.979031 36.658437 
L 98.534133 33.791751 
L 103.089235 31.795365 
L 107.644337 31.29998 
L 112.199439 32.120026 
L 116.754541 36.675616 
L 121.309643 43.867414 
L 125.864745 52.324689 
L 130.419847 67.019794 
L 134.974949 76.326834 
L 139.530051 87.130776 
L 144.085153 93.956707 
L 148.640255 101.314127 
L 153.195357 105.522947 
L 157.750459 110.27238 
L 162.305561 114.908844 
L 166.860663 120.36012 
L 171.415765 126.073991 
L 175.970867 133.579199 
L 180.525969 140.07863 
L 185.081071 148.636356 
L 189.636173 157.275063 
L 194.191276 161.343216 
L 198.746378 166.347127 
L 203.30148 170.364246 
L 207.856582 174.069709 
L 212.411684 177.067208 
L 216.966786 178.24378 
L 221.521888 179.883664 
L 226.07699 180.134603 
L 230.632092 180.150953 
L 235.187194 180.150953 
L 239.742296 180.150953 
L 244.297398 180.150953 
L 248.8525 180.150953 
" style="fill:none;opacity:0.5;stroke:#73c476;stroke-linecap:square;stroke-width:0.5;"/>
   </g>
   <g id="line2d_76">
    <path clip-path="url(#p25e44274e5)" d="M 25.6525 151.441046 
L 30.207602 138.775531 
L 34.762704 131.381986 
L 39.317806 122.131972 
L 43.872908 112.356335 
L 48.42801 102.719069 
L 52.983112 93.907769 
L 57.538214 85.848065 
L 62.093316 76.107652 
L 66.648418 69.313688 
L 71.20352 62.291682 
L 75.758622 56.410378 
L 80.313724 51.574133 
L 84.868827 46.772726 
L 89.423929 42.111304 
L 93.979031 37.990252 
L 98.534133 34.780968 
L 103.089235 32.301859 
L 107.644337 30.449719 
L 112.199439 28.855183 
L 116.754541 28.800485 
L 121.309643 30.626464 
L 125.864745 34.731779 
L 130.419847 41.809854 
L 134.974949 51.723101 
L 139.530051 64.900725 
L 144.085153 73.062864 
L 148.640255 82.76 
L 153.195357 91.785497 
L 157.750459 102.648927 
L 162.305561 113.291575 
L 166.860663 121.152274 
L 171.415765 132.294605 
L 175.970867 138.993235 
L 180.525969 145.891437 
L 185.081071 152.01615 
L 189.636173 155.408272 
L 194.191276 160.143868 
L 198.746378 164.31345 
L 203.30148 168.290994 
L 207.856582 171.431472 
L 212.411684 173.892846 
L 216.966786 175.73132 
L 221.521888 177.775396 
L 226.07699 179.561069 
L 230.632092 179.914204 
L 235.187194 180.150953 
L 239.742296 180.150953 
L 244.297398 180.150953 
L 248.8525 180.150953 
" style="fill:none;opacity:0.5;stroke:#73c476;stroke-linecap:square;stroke-width:0.5;"/>
   </g>
   <g id="line2d_77">
    <path clip-path="url(#p25e44274e5)" d="M 25.6525 138.281646 
L 30.207602 130.960175 
L 34.762704 120.209833 
L 39.317806 109.85244 
L 43.872908 100.233222 
L 48.42801 92.529102 
L 52.983112 85.37641 
L 57.538214 77.944523 
L 62.093316 69.159418 
L 66.648418 61.450573 
L 71.20352 54.407781 
L 75.758622 48.137478 
L 80.313724 42.945038 
L 84.868827 38.803584 
L 89.423929 35.548607 
L 93.979031 32.116763 
L 98.534133 29.994406 
L 103.089235 28.913015 
L 107.644337 29.558609 
L 112.199439 30.750059 
L 116.754541 35.487329 
L 121.309643 43.359862 
L 125.864745 50.74025 
L 130.419847 57.88108 
L 134.974949 62.59292 
L 139.530051 69.421966 
L 144.085153 80.760875 
L 148.640255 92.567622 
L 153.195357 103.265379 
L 157.750459 111.977813 
L 162.305561 119.141768 
L 166.860663 126.586207 
L 171.415765 137.081811 
L 175.970867 145.113462 
L 180.525969 152.6276 
L 185.081071 160.182573 
L 189.636173 165.513513 
L 194.191276 169.541679 
L 198.746378 172.308301 
L 203.30148 175.949642 
L 207.856582 177.741736 
L 212.411684 179.677241 
L 216.966786 179.914082 
L 221.521888 180.150953 
L 226.07699 180.150953 
L 230.632092 180.150953 
L 235.187194 180.150953 
L 239.742296 180.150953 
L 244.297398 180.150953 
L 248.8525 180.150953 
" style="fill:none;opacity:0.5;stroke:#73c476;stroke-linecap:square;stroke-width:0.5;"/>
   </g>
   <g id="line2d_78">
    <path clip-path="url(#p25e44274e5)" d="M 25.6525 148.42254 
L 30.207602 137.746737 
L 34.762704 121.403485 
L 39.317806 111.561928 
L 43.872908 102.811428 
L 48.42801 95.319129 
L 52.983112 87.290164 
L 57.538214 81.609314 
L 62.093316 75.759516 
L 66.648418 70.35443 
L 71.20352 64.391697 
L 75.758622 59.201868 
L 80.313724 53.788486 
L 84.868827 48.665912 
L 89.423929 44.259476 
L 93.979031 39.949679 
L 98.534133 36.884624 
L 103.089235 34.891351 
L 107.644337 33.261911 
L 112.199439 32.224034 
L 116.754541 32.153698 
L 121.309643 34.304767 
L 125.864745 38.440426 
L 130.419847 47.512471 
L 134.974949 59.213145 
L 139.530051 69.495737 
L 144.085153 87.803064 
L 148.640255 99.777893 
L 153.195357 108.765071 
L 157.750459 115.468601 
L 162.305561 123.389417 
L 166.860663 128.248878 
L 171.415765 132.477878 
L 175.970867 136.886953 
L 180.525969 141.844142 
L 185.081071 146.730378 
L 189.636173 152.393549 
L 194.191276 157.65545 
L 198.746378 162.327189 
L 203.30148 166.63739 
L 207.856582 170.613066 
L 212.411684 172.697522 
L 216.966786 175.011623 
L 221.521888 176.518945 
L 226.07699 178.118475 
L 230.632092 179.232868 
L 235.187194 179.914082 
L 239.742296 179.914082 
L 244.297398 180.150953 
L 248.8525 180.150953 
" style="fill:none;opacity:0.5;stroke:#73c476;stroke-linecap:square;stroke-width:0.5;"/>
   </g>
   <g id="line2d_79">
    <path clip-path="url(#p25e44274e5)" d="M 25.6525 177.342919 
L 30.207602 172.891347 
L 34.762704 171.308038 
L 39.317806 167.308617 
L 43.872908 159.307193 
L 48.42801 150.355509 
L 52.983112 140.917477 
L 57.538214 126.187151 
L 62.093316 118.585881 
L 66.648418 109.163789 
L 71.20352 100.075354 
L 75.758622 91.236218 
L 80.313724 84.410559 
L 84.868827 77.923861 
L 89.423929 71.498321 
L 93.979031 65.596866 
L 98.534133 58.578945 
L 103.089235 52.774143 
L 107.644337 47.374235 
L 112.199439 42.256224 
L 116.754541 37.756819 
L 121.309643 34.296156 
L 125.864745 31.619695 
L 130.419847 30.470153 
L 134.974949 31.071584 
L 139.530051 32.73033 
L 144.085153 33.517208 
L 148.640255 36.414567 
L 153.195357 42.91804 
L 157.750459 50.820976 
L 162.305561 60.736526 
L 166.860663 75.909532 
L 171.415765 84.8597 
L 175.970867 94.737406 
L 180.525969 104.619386 
L 185.081071 113.75164 
L 189.636173 121.076673 
L 194.191276 126.330674 
L 198.746378 131.846807 
L 203.30148 138.22029 
L 207.856582 145.158248 
L 212.411684 150.816983 
L 216.966786 156.76527 
L 221.521888 162.461612 
L 226.07699 167.117069 
L 230.632092 170.964858 
L 235.187194 173.747355 
L 239.742296 175.30278 
L 244.297398 176.465722 
L 248.8525 178.754402 
" style="fill:none;opacity:0.5;stroke:#73c476;stroke-linecap:square;stroke-width:0.5;"/>
   </g>
   <g id="line2d_80">
    <path clip-path="url(#p25e44274e5)" d="M 25.6525 166.324538 
L 30.207602 160.203824 
L 34.762704 152.149305 
L 39.317806 139.184508 
L 43.872908 124.699389 
L 48.42801 118.018199 
L 52.983112 111.079031 
L 57.538214 103.014801 
L 62.093316 95.86705 
L 66.648418 88.205542 
L 71.20352 79.19373 
L 75.758622 72.534933 
L 80.313724 65.772546 
L 84.868827 60.224154 
L 89.423929 55.706412 
L 93.979031 50.46011 
L 98.534133 45.464926 
L 103.089235 41.792437 
L 107.644337 39.079758 
L 112.199439 36.554233 
L 116.754541 33.70354 
L 121.309643 31.743908 
L 125.864745 31.21725 
L 130.419847 32.987534 
L 134.974949 38.605862 
L 139.530051 43.982229 
L 144.085153 50.950116 
L 148.640255 62.940597 
L 153.195357 80.217513 
L 157.750459 87.064417 
L 162.305561 93.176651 
L 166.860663 101.179928 
L 171.415765 108.153728 
L 175.970867 114.949231 
L 180.525969 125.40344 
L 185.081071 131.98835 
L 189.636173 138.229082 
L 194.191276 143.689949 
L 198.746378 147.146836 
L 203.30148 152.862446 
L 207.856582 157.948617 
L 212.411684 161.391818 
L 216.966786 164.214002 
L 221.521888 165.928015 
L 226.07699 170.521129 
L 230.632092 173.400278 
L 235.187194 176.024158 
L 239.742296 178.526003 
L 244.297398 179.386652 
L 248.8525 179.914082 
" style="fill:none;opacity:0.5;stroke:#73c476;stroke-linecap:square;stroke-width:0.5;"/>
   </g>
   <g id="line2d_81">
    <path clip-path="url(#p25e44274e5)" d="M 25.6525 133.322428 
L 30.207602 121.451084 
L 34.762704 110.630881 
L 39.317806 100.64771 
L 43.872908 91.909199 
L 48.42801 85.227704 
L 52.983112 78.59291 
L 57.538214 73.959523 
L 62.093316 68.2599 
L 66.648418 61.95611 
L 71.20352 56.969691 
L 75.758622 51.452279 
L 80.313724 47.221814 
L 84.868827 42.772688 
L 89.423929 39.791493 
L 93.979031 36.596787 
L 98.534133 34.365689 
L 103.089235 32.337017 
L 107.644337 31.37222 
L 112.199439 31.565627 
L 116.754541 33.510293 
L 121.309643 39.894032 
L 125.864745 48.547027 
L 130.419847 59.28049 
L 134.974949 73.937073 
L 139.530051 88.265764 
L 144.085153 98.988424 
L 148.640255 111.42424 
L 153.195357 120.186305 
L 157.750459 125.509812 
L 162.305561 131.853088 
L 166.860663 134.632883 
L 171.415765 139.555665 
L 175.970867 144.865047 
L 180.525969 149.675525 
L 185.081071 155.314357 
L 189.636173 159.16501 
L 194.191276 163.727639 
L 198.746378 166.774886 
L 203.30148 170.112174 
L 207.856582 172.989609 
L 212.411684 175.564778 
L 216.966786 177.89278 
L 221.521888 179.357997 
L 226.07699 179.712688 
L 230.632092 179.91409 
L 235.187194 180.150953 
L 239.742296 180.150953 
L 244.297398 180.150953 
L 248.8525 180.150953 
" style="fill:none;opacity:0.5;stroke:#73c476;stroke-linecap:square;stroke-width:0.5;"/>
   </g>
   <g id="line2d_82">
    <path clip-path="url(#p25e44274e5)" d="M 25.6525 92.916084 
L 30.207602 83.830879 
L 34.762704 76.669721 
L 39.317806 69.476605 
L 43.872908 63.758445 
L 48.42801 58.26616 
L 52.983112 52.806137 
L 57.538214 48.253007 
L 62.093316 44.785872 
L 66.648418 41.710114 
L 71.20352 38.56922 
L 75.758622 36.361408 
L 80.313724 35.130265 
L 84.868827 34.080887 
L 89.423929 33.777363 
L 93.979031 33.87573 
L 98.534133 35.869189 
L 103.089235 39.786083 
L 107.644337 47.592397 
L 112.199439 58.23302 
L 116.754541 72.409083 
L 121.309643 89.384277 
L 125.864745 105.441061 
L 130.419847 117.331425 
L 134.974949 126.78068 
L 139.530051 135.154097 
L 144.085153 142.557686 
L 148.640255 149.093962 
L 153.195357 153.978485 
L 157.750459 157.978543 
L 162.305561 162.217989 
L 166.860663 166.392761 
L 171.415765 168.221153 
L 175.970867 170.657063 
L 180.525969 173.034404 
L 185.081071 175.170656 
L 189.636173 176.205728 
L 194.191276 177.645628 
L 198.746378 178.351007 
L 203.30148 179.21116 
L 207.856582 179.693215 
L 212.411684 179.696364 
L 216.966786 180.150953 
L 221.521888 180.150953 
L 226.07699 180.150953 
L 230.632092 180.150953 
L 235.187194 180.150953 
L 239.742296 180.150953 
L 244.297398 180.150953 
L 248.8525 180.150953 
" style="fill:none;opacity:0.5;stroke:#73c476;stroke-linecap:square;stroke-width:0.5;"/>
   </g>
   <g id="line2d_83">
    <path clip-path="url(#p25e44274e5)" d="M 25.6525 108.908945 
L 30.207602 101.104561 
L 34.762704 92.825305 
L 39.317806 84.462641 
L 43.872908 75.35639 
L 48.42801 69.144591 
L 52.983112 62.398147 
L 57.538214 56.653758 
L 62.093316 51.414688 
L 66.648418 47.366167 
L 71.20352 43.689327 
L 75.758622 39.216186 
L 80.313724 36.747441 
L 84.868827 34.561604 
L 89.423929 32.860783 
L 93.979031 32.026238 
L 98.534133 31.541107 
L 103.089235 32.696444 
L 107.644337 35.484978 
L 112.199439 41.778122 
L 116.754541 51.317657 
L 121.309643 63.447376 
L 125.864745 78.639221 
L 130.419847 94.24519 
L 134.974949 104.64525 
L 139.530051 111.482042 
L 144.085153 119.731663 
L 148.640255 128.127509 
L 153.195357 137.945177 
L 157.750459 143.971926 
L 162.305561 150.773141 
L 166.860663 155.308769 
L 171.415765 160.583545 
L 175.970867 163.34649 
L 180.525969 166.07668 
L 185.081071 169.81708 
L 189.636173 172.399323 
L 194.191276 174.325435 
L 198.746378 175.910879 
L 203.30148 177.228868 
L 207.856582 178.256911 
L 212.411684 178.388806 
L 216.966786 179.440454 
L 221.521888 179.914082 
L 226.07699 180.150953 
L 230.632092 180.150953 
L 235.187194 180.150953 
L 239.742296 180.150953 
L 244.297398 180.150953 
L 248.8525 180.150953 
" style="fill:none;opacity:0.5;stroke:#73c476;stroke-linecap:square;stroke-width:0.5;"/>
   </g>
   <g id="line2d_84">
    <path clip-path="url(#p25e44274e5)" d="M 25.6525 181.521422 
L 30.207602 178.158256 
L 34.762704 170.821006 
L 39.317806 162.091452 
L 43.872908 149.196296 
L 48.42801 140.238486 
L 52.983112 127.235796 
L 57.538214 111.510078 
L 62.093316 103.473082 
L 66.648418 95.969646 
L 71.20352 87.560459 
L 75.758622 79.178424 
L 80.313724 71.350228 
L 84.868827 64.282717 
L 89.423929 59.035553 
L 93.979031 53.54837 
L 98.534133 48.448468 
L 103.089235 44.506516 
L 107.644337 41.253677 
L 112.199439 39.041536 
L 116.754541 36.556874 
L 121.309643 34.62261 
L 125.864745 33.21723 
L 130.419847 32.501803 
L 134.974949 33.356355 
L 139.530051 35.121782 
L 144.085153 40.135083 
L 148.640255 47.458769 
L 153.195357 59.958734 
L 157.750459 69.440798 
L 162.305561 83.234378 
L 166.860663 102.852776 
L 171.415765 112.45981 
L 175.970867 119.656363 
L 180.525969 127.456106 
L 185.081071 136.244838 
L 189.636173 143.968862 
L 194.191276 151.322681 
L 198.746378 155.656181 
L 203.30148 160.317015 
L 207.856582 164.870677 
L 212.411684 167.991406 
L 216.966786 170.63027 
L 221.521888 171.326262 
L 226.07699 173.42388 
L 230.632092 175.360899 
L 235.187194 177.219427 
L 239.742296 178.768064 
L 244.297398 178.770345 
L 248.8525 179.358952 
" style="fill:none;opacity:0.5;stroke:#73c476;stroke-linecap:square;stroke-width:0.5;"/>
   </g>
   <g id="line2d_85">
    <path clip-path="url(#p25e44274e5)" d="M 25.6525 151.35549 
L 30.207602 138.507838 
L 34.762704 127.329819 
L 39.317806 115.00142 
L 43.872908 105.183983 
L 48.42801 97.151358 
L 52.983112 88.603732 
L 57.538214 80.647401 
L 62.093316 72.316139 
L 66.648418 65.921014 
L 71.20352 60.844185 
L 75.758622 55.317018 
L 80.313724 50.424367 
L 84.868827 45.545848 
L 89.423929 40.849436 
L 93.979031 36.800511 
L 98.534133 33.906063 
L 103.089235 31.622983 
L 107.644337 30.455417 
L 112.199439 29.867655 
L 116.754541 30.204953 
L 121.309643 32.164214 
L 125.864745 36.121111 
L 130.419847 43.848789 
L 134.974949 55.115246 
L 139.530051 69.032732 
L 144.085153 80.869641 
L 148.640255 94.818105 
L 153.195357 106.11933 
L 157.750459 114.750259 
L 162.305561 123.152054 
L 166.860663 130.917399 
L 171.415765 138.611807 
L 175.970867 145.555311 
L 180.525969 149.232629 
L 185.081071 153.643418 
L 189.636173 158.334923 
L 194.191276 163.35493 
L 198.746378 167.629259 
L 203.30148 171.846015 
L 207.856582 175.264103 
L 212.411684 178.048053 
L 216.966786 178.903844 
L 221.521888 179.677241 
L 226.07699 179.914082 
L 230.632092 179.914082 
L 235.187194 179.914082 
L 239.742296 180.150953 
L 244.297398 180.150953 
L 248.8525 180.150953 
" style="fill:none;opacity:0.5;stroke:#73c476;stroke-linecap:square;stroke-width:0.5;"/>
   </g>
   <g id="line2d_86">
    <path clip-path="url(#p25e44274e5)" d="M 25.6525 107.887179 
L 30.207602 98.397504 
L 34.762704 91.554863 
L 39.317806 86.369042 
L 43.872908 80.679299 
L 48.42801 74.362288 
L 52.983112 68.197508 
L 57.538214 61.174069 
L 62.093316 55.280457 
L 66.648418 50.139419 
L 71.20352 45.172214 
L 75.758622 41.707639 
L 80.313724 38.943895 
L 84.868827 36.451632 
L 89.423929 34.750956 
L 93.979031 33.324928 
L 98.534133 33.036702 
L 103.089235 33.73001 
L 107.644337 36.92774 
L 112.199439 41.917863 
L 116.754541 51.877953 
L 121.309643 62.774167 
L 125.864745 75.578944 
L 130.419847 94.410865 
L 134.974949 107.256023 
L 139.530051 117.380133 
L 144.085153 123.438812 
L 148.640255 127.023039 
L 153.195357 131.07316 
L 157.750459 136.421959 
L 162.305561 142.46751 
L 166.860663 149.69643 
L 171.415765 155.759658 
L 175.970867 160.85981 
L 180.525969 165.796734 
L 185.081071 169.289062 
L 189.636173 171.358195 
L 194.191276 173.955536 
L 198.746378 175.903337 
L 203.30148 177.327741 
L 207.856582 178.541427 
L 212.411684 179.678745 
L 216.966786 179.759622 
L 221.521888 180.150953 
L 226.07699 180.150953 
L 230.632092 180.150953 
L 235.187194 180.150953 
L 239.742296 180.150953 
L 244.297398 180.150953 
L 248.8525 180.150953 
" style="fill:none;opacity:0.5;stroke:#73c476;stroke-linecap:square;stroke-width:0.5;"/>
   </g>
   <g id="line2d_87">
    <path clip-path="url(#p25e44274e5)" d="M 25.6525 152.210344 
L 30.207602 138.983733 
L 34.762704 127.539081 
L 39.317806 118.638973 
L 43.872908 110.21171 
L 48.42801 100.796438 
L 52.983112 91.971942 
L 57.538214 85.599871 
L 62.093316 80.010077 
L 66.648418 73.524724 
L 71.20352 66.713033 
L 75.758622 60.70308 
L 80.313724 54.391247 
L 84.868827 48.931608 
L 89.423929 43.797553 
L 93.979031 39.764587 
L 98.534133 35.429529 
L 103.089235 32.753117 
L 107.644337 30.426705 
L 112.199439 29.171974 
L 116.754541 29.272533 
L 121.309643 30.742143 
L 125.864745 35.298412 
L 130.419847 42.41734 
L 134.974949 51.997288 
L 139.530051 65.175813 
L 144.085153 77.567919 
L 148.640255 87.393923 
L 153.195357 96.623852 
L 157.750459 105.970441 
L 162.305561 115.134777 
L 166.860663 121.317603 
L 171.415765 126.005267 
L 175.970867 131.420012 
L 180.525969 137.886877 
L 185.081071 144.488243 
L 189.636173 151.162532 
L 194.191276 156.91086 
L 198.746378 162.242267 
L 203.30148 166.55404 
L 207.856582 171.601659 
L 212.411684 174.623078 
L 216.966786 177.863986 
L 221.521888 179.498479 
L 226.07699 180.150953 
L 230.632092 180.150953 
L 235.187194 180.150953 
L 239.742296 180.150953 
L 244.297398 180.150953 
L 248.8525 180.150953 
" style="fill:none;opacity:0.5;stroke:#73c476;stroke-linecap:square;stroke-width:0.5;"/>
   </g>
   <g id="line2d_88">
    <path clip-path="url(#p25e44274e5)" d="M 25.6525 183.654595 
L 30.207602 181.377714 
L 34.762704 177.952973 
L 39.317806 172.143034 
L 43.872908 168.880532 
L 48.42801 163.347107 
L 52.983112 156.638664 
L 57.538214 148.186419 
L 62.093316 135.709464 
L 66.648418 123.487411 
L 71.20352 113.296596 
L 75.758622 103.595274 
L 80.313724 94.076025 
L 84.868827 85.994769 
L 89.423929 77.733332 
L 93.979031 69.170318 
L 98.534133 62.350678 
L 103.089235 56.509676 
L 107.644337 51.958335 
L 112.199439 46.817396 
L 116.754541 41.86509 
L 121.309643 38.077501 
L 125.864745 34.657724 
L 130.419847 32.124607 
L 134.974949 29.819557 
L 139.530051 28.514234 
L 144.085153 29.59667 
L 148.640255 32.548393 
L 153.195357 35.124847 
L 157.750459 39.508303 
L 162.305561 46.320111 
L 166.860663 53.991137 
L 171.415765 66.408743 
L 175.970867 80.138329 
L 180.525969 92.104997 
L 185.081071 101.964649 
L 189.636173 113.636323 
L 194.191276 121.230344 
L 198.746378 130.150785 
L 203.30148 139.796561 
L 207.856582 146.583014 
L 212.411684 151.947884 
L 216.966786 155.080838 
L 221.521888 159.728034 
L 226.07699 164.770071 
L 230.632092 167.846588 
L 235.187194 170.863504 
L 239.742296 173.106426 
L 244.297398 175.730467 
L 248.8525 177.689512 
" style="fill:none;opacity:0.5;stroke:#73c476;stroke-linecap:square;stroke-width:0.5;"/>
   </g>
   <g id="line2d_89">
    <path clip-path="url(#p25e44274e5)" d="M 25.6525 166.122618 
L 30.207602 157.13208 
L 34.762704 148.537905 
L 39.317806 139.188534 
L 43.872908 128.087823 
L 48.42801 117.446122 
L 52.983112 107.013924 
L 57.538214 97.536302 
L 62.093316 88.746465 
L 66.648418 80.670742 
L 71.20352 72.609756 
L 75.758622 65.623504 
L 80.313724 58.204257 
L 84.868827 52.430093 
L 89.423929 47.796477 
L 93.979031 43.622152 
L 98.534133 39.36966 
L 103.089235 35.504812 
L 107.644337 32.436419 
L 112.199439 30.118895 
L 116.754541 28.348787 
L 121.309643 27.824439 
L 125.864745 28.984586 
L 130.419847 31.342573 
L 134.974949 37.6471 
L 139.530051 46.004495 
L 144.085153 54.651364 
L 148.640255 63.887427 
L 153.195357 76.374197 
L 157.750459 88.003316 
L 162.305561 99.026858 
L 166.860663 109.781654 
L 171.415765 119.291744 
L 175.970867 127.139552 
L 180.525969 136.22373 
L 185.081071 142.181798 
L 189.636173 150.232146 
L 194.191276 155.810119 
L 198.746378 159.344336 
L 203.30148 163.292304 
L 207.856582 166.886147 
L 212.411684 170.693518 
L 216.966786 173.952015 
L 221.521888 176.42816 
L 226.07699 178.627667 
L 230.632092 179.273204 
L 235.187194 179.874605 
L 239.742296 180.150953 
L 244.297398 180.150953 
L 248.8525 180.150953 
" style="fill:none;opacity:0.5;stroke:#73c476;stroke-linecap:square;stroke-width:0.5;"/>
   </g>
   <g id="line2d_90">
    <path clip-path="url(#p25e44274e5)" d="M 25.6525 174.049426 
L 30.207602 167.431175 
L 34.762704 161.032277 
L 39.317806 150.888687 
L 43.872908 141.501385 
L 48.42801 130.34932 
L 52.983112 122.140059 
L 57.538214 114.400967 
L 62.093316 105.742375 
L 66.648418 99.034058 
L 71.20352 92.793563 
L 75.758622 85.08314 
L 80.313724 76.366921 
L 84.868827 67.63797 
L 89.423929 58.767993 
L 93.979031 50.292454 
L 98.534133 44.513308 
L 103.089235 39.51717 
L 107.644337 35.675802 
L 112.199439 32.880728 
L 116.754541 30.80865 
L 121.309643 29.471194 
L 125.864745 28.807064 
L 130.419847 29.972888 
L 134.974949 32.155823 
L 139.530051 37.347135 
L 144.085153 42.346606 
L 148.640255 50.456197 
L 153.195357 61.143272 
L 157.750459 71.215303 
L 162.305561 81.525393 
L 166.860663 89.38389 
L 171.415765 97.67217 
L 175.970867 104.467132 
L 180.525969 110.250494 
L 185.081071 119.08665 
L 189.636173 127.898964 
L 194.191276 138.467358 
L 198.746378 148.80222 
L 203.30148 160.668803 
L 207.856582 166.885352 
L 212.411684 172.141085 
L 216.966786 175.558636 
L 221.521888 177.461922 
L 226.07699 179.203649 
L 230.632092 179.677324 
L 235.187194 180.034194 
L 239.742296 180.150953 
L 244.297398 180.150953 
L 248.8525 180.150953 
" style="fill:none;opacity:0.5;stroke:#73c476;stroke-linecap:square;stroke-width:0.5;"/>
   </g>
   <g id="patch_3">
    <path d="M 25.6525 180.150953 
L 25.6525 13.830953 
" style="fill:none;stroke:#000000;stroke-linecap:square;stroke-linejoin:miter;stroke-width:0.8;"/>
   </g>
   <g id="patch_4">
    <path d="M 248.8525 180.150953 
L 248.8525 13.830953 
" style="fill:none;stroke:#000000;stroke-linecap:square;stroke-linejoin:miter;stroke-width:0.8;"/>
   </g>
   <g id="patch_5">
    <path d="M 25.6525 180.150953 
L 248.8525 180.150953 
" style="fill:none;stroke:#000000;stroke-linecap:square;stroke-linejoin:miter;stroke-width:0.8;"/>
   </g>
   <g id="patch_6">
    <path d="M 25.6525 13.830953 
L 248.8525 13.830953 
" style="fill:none;stroke:#000000;stroke-linecap:square;stroke-linejoin:miter;stroke-width:0.8;"/>
   </g>
   <g id="line2d_91">
    <path clip-path="url(#p25e44274e5)" d="M 25.6525 141.681245 
L 30.207602 133.599267 
L 34.762704 125.398435 
L 39.317806 116.946597 
L 43.872908 108.378029 
L 48.42801 100.158029 
L 52.983112 92.384737 
L 57.538214 84.742028 
L 62.093316 77.566619 
L 66.648418 70.963375 
L 71.20352 64.579381 
L 75.758622 58.687374 
L 80.313724 53.569364 
L 84.868827 48.959774 
L 89.423929 45.002301 
L 93.979031 41.674769 
L 98.534133 39.246913 
L 103.089235 37.763703 
L 107.644337 37.806391 
L 112.199439 38.941992 
L 116.754541 41.444193 
L 121.309643 46.091283 
L 125.864745 51.672331 
L 130.419847 58.448049 
L 134.974949 65.720245 
L 139.530051 73.506132 
L 144.085153 81.504479 
L 148.640255 89.815462 
L 153.195357 98.472354 
L 157.750459 106.775883 
L 162.305561 114.841019 
L 166.860663 122.551081 
L 171.415765 129.980359 
L 175.970867 136.576283 
L 180.525969 143.186779 
L 185.081071 149.257429 
L 189.636173 154.587619 
L 194.191276 159.354413 
L 198.746378 163.460261 
L 203.30148 167.309929 
L 207.856582 170.451967 
L 212.411684 173.157796 
L 216.966786 175.109914 
L 221.521888 176.504732 
L 226.07699 177.673516 
L 230.632092 178.499047 
L 235.187194 179.082631 
L 239.742296 179.481159 
L 244.297398 179.733071 
L 248.8525 179.947821 
" style="fill:none;stroke:#008000;stroke-linecap:square;stroke-width:2;"/>
   </g>
  </g>
 </g>
 <defs>
  <clipPath id="p25e44274e5">
   <rect height="166.32" width="223.2" x="25.6525" y="13.830953"/>
  </clipPath>
 </defs>
</svg>
