<?xml version="1.0" encoding="utf-8" standalone="no"?>
<!DOCTYPE svg PUBLIC "-//W3C//DTD SVG 1.1//EN"
  "http://www.w3.org/Graphics/SVG/1.1/DTD/svg11.dtd">
<!-- Created with matplotlib (http://matplotlib.org/) -->
<svg height="210pt" version="1.1" viewBox="0 0 210 210" width="210pt" xmlns="http://www.w3.org/2000/svg" xmlns:xlink="http://www.w3.org/1999/xlink">
 <defs>
  <style type="text/css">
*{stroke-linecap:butt;stroke-linejoin:round;}
  </style>
 </defs>
 <g id="figure_1">
  <g id="patch_1">
   <path d="M 0 210.76 
L 210.76 210.76 
L 210.76 0 
L 0 0 
z
" style="fill:#ffffff;"/>
  </g>
  <g id="axes_1">
   <g id="patch_2">
    <path d="M 10.7 200.06 
L 200.06 200.06 
L 200.06 10.7 
L 10.7 10.7 
z
" style="fill:#ffffff;"/>
   </g>
   <g id="matplotlib.axis_1"/>
   <g id="matplotlib.axis_2"/>
   <g id="line2d_1">
    <path clip-path="url(#p96406a61db)" d="M 19.307273 191.826957 
L 63.420622 191.826957 
L 63.59294 152.114597 
L 66.005389 62.100079 
L 66.69466 46.096373 
L 67.383931 35.450102 
L 67.900885 30.568294 
L 68.417838 27.93516 
L 68.762473 27.23859 
L 68.934791 27.166087 
L 69.107109 27.25956 
L 69.451744 27.893278 
L 69.968698 29.781464 
L 70.657969 33.601162 
L 71.691876 40.988442 
L 74.965913 65.592167 
L 76.172138 72.803493 
L 77.378362 78.698157 
L 78.412269 82.774541 
L 79.446175 86.059251 
L 80.480082 88.669395 
L 81.513989 90.719619 
L 82.547895 92.314367 
L 83.581802 93.544489 
L 84.788026 94.620104 
L 85.994251 95.401343 
L 87.372793 96.030855 
L 89.095971 96.544203 
L 91.163784 96.90543 
L 93.920868 97.147191 
L 97.884177 97.258172 
L 146.822424 97.407781 
L 147.16706 97.587891 
L 147.511695 97.98067 
L 147.856331 98.817884 
L 148.200966 100.525129 
L 148.545602 103.751485 
L 148.890238 109.214978 
L 149.407191 122.406491 
L 150.096462 147.581889 
L 150.26878 191.826957 
L 191.452727 191.826957 
L 191.452727 191.826957 
" style="fill:none;opacity:0.7;stroke:#420a68;stroke-linecap:square;stroke-width:2;"/>
   </g>
   <g id="line2d_2">
    <path clip-path="url(#p96406a61db)" d="M 19.307273 191.826957 
L 65.316118 191.826957 
L 65.488436 78.793566 
L 66.350025 54.092037 
L 67.039296 40.58989 
L 67.556249 33.842736 
L 68.073202 29.622406 
L 68.417838 28.024642 
L 68.762473 27.265833 
L 68.934791 27.166087 
L 69.107109 27.234779 
L 69.451744 27.825919 
L 69.79638 28.940822 
L 70.313333 31.399727 
L 71.174922 36.955974 
L 72.725782 48.974457 
L 74.621278 63.198775 
L 75.99982 71.815332 
L 77.206044 77.938711 
L 77.722998 80.17363 
L 77.895315 191.826957 
L 191.452727 191.826957 
L 191.452727 191.826957 
" style="fill:none;opacity:0.7;stroke:#6f196e;stroke-linecap:square;stroke-width:2;"/>
   </g>
   <g id="line2d_3">
    <path clip-path="url(#p96406a61db)" d="M 19.307273 191.826957 
L 65.488436 191.826957 
L 65.660753 73.192194 
L 66.350025 54.112514 
L 67.039296 40.602652 
L 67.556249 33.85079 
L 68.073202 29.626704 
L 68.417838 28.026942 
L 68.762473 27.266512 
L 68.934791 27.166087 
L 69.107109 27.234182 
L 69.451744 27.82436 
L 69.79638 28.93858 
L 70.313333 31.396913 
L 71.174922 36.953156 
L 72.725782 48.97348 
L 74.621278 63.201255 
L 75.99982 71.820285 
L 76.516773 74.605733 
L 76.689091 191.826957 
L 191.452727 191.826957 
L 191.452727 191.826957 
" style="fill:none;opacity:0.7;stroke:#7d1e6d;stroke-linecap:square;stroke-width:2;"/>
   </g>
   <g id="line2d_4">
    <path clip-path="url(#p96406a61db)" d="M 19.307273 191.826957 
L 64.282211 191.826957 
L 64.454529 117.948808 
L 65.660753 72.875254 
L 66.350025 53.887999 
L 67.039296 40.459947 
L 67.556249 33.759256 
L 68.073202 29.576941 
L 68.417838 27.99993 
L 68.762473 27.258411 
L 68.934791 27.166087 
L 69.107109 27.241429 
L 69.451744 27.843695 
L 69.79638 28.967068 
L 70.313333 31.434333 
L 71.174922 36.995229 
L 72.8981 50.366369 
L 74.621278 63.201221 
L 75.99982 71.797601 
L 77.206044 77.905181 
L 78.239951 82.145717 
L 79.273857 85.572647 
L 80.307764 88.302318 
L 81.341671 90.450721 
L 82.375577 92.124676 
L 83.409484 93.417784 
L 84.615708 94.550008 
L 85.821933 95.373412 
L 87.200475 96.037679 
L 88.751335 96.536816 
L 90.64683 96.913099 
L 93.231597 97.184543 
L 97.022588 97.335678 
L 109.429468 97.341429 
L 146.650106 97.446031 
L 147.16706 97.685759 
L 147.511695 98.096606 
L 147.856331 98.970724 
L 148.200966 100.747183 
L 148.545602 104.086271 
L 148.890238 109.701087 
L 149.234873 117.999621 
L 149.407191 191.826957 
L 191.452727 191.826957 
L 191.452727 191.826957 
" style="fill:none;opacity:0.7;stroke:#9b2964;stroke-linecap:square;stroke-width:2;"/>
   </g>
   <g id="line2d_5">
    <path clip-path="url(#p96406a61db)" d="M 19.307273 191.826957 
L 67.728567 191.826957 
L 67.900885 30.807488 
L 68.417838 28.039485 
L 68.762473 27.270144 
L 68.934791 27.166087 
L 69.107109 27.231061 
L 69.451744 27.81642 
L 69.79638 28.927535 
L 70.141016 30.473733 
L 70.313333 191.826957 
L 191.452727 191.826957 
L 191.452727 191.826957 
" style="fill:none;opacity:0.7;stroke:#ab2f5e;stroke-linecap:square;stroke-width:2;"/>
   </g>
   <g id="line2d_6">
    <path clip-path="url(#p96406a61db)" d="M 19.307273 191.826957 
L 61.352809 191.826957 
L 61.697445 185.487569 
L 62.04208 180.087977 
L 62.559034 166.955088 
L 63.248305 141.701844 
L 64.971482 74.196221 
L 65.660753 54.641693 
L 66.350025 40.776737 
L 66.866978 33.861359 
L 67.383931 29.564299 
L 67.728567 27.963574 
L 68.073202 27.237267 
L 68.24552 27.166087 
L 68.417838 27.270996 
L 68.762473 27.955802 
L 69.279427 29.983101 
L 69.968698 34.082992 
L 71.002604 42.032508 
L 74.44896 70.027513 
L 75.655184 77.819079 
L 76.861409 84.251172 
L 78.067633 89.43464 
L 79.273857 93.546711 
L 80.480082 96.779716 
L 81.686306 99.314096 
L 82.892531 101.306393 
L 84.098755 102.88585 
L 85.477297 104.316597 
L 87.028157 105.586934 
L 88.751335 106.715649 
L 90.991466 107.908945 
L 94.093186 109.288392 
L 98.228812 110.881999 
L 115.115954 116.952125 
L 128.55674 121.551482 
L 140.791302 125.505953 
L 147.16706 127.588525 
L 147.684013 128.014809 
L 148.028649 128.575233 
L 148.373284 129.626118 
L 148.71792 131.570641 
L 149.062555 134.911554 
L 149.579509 143.29962 
L 150.26878 160.114016 
L 151.475004 191.826957 
L 191.452727 191.826957 
L 191.452727 191.826957 
" style="fill:none;opacity:0.7;stroke:#b93556;stroke-linecap:square;stroke-width:2;"/>
   </g>
   <g id="line2d_7">
    <path clip-path="url(#p96406a61db)" d="M 19.307273 191.826957 
L 62.559034 191.826957 
L 62.731351 176.084485 
L 63.248305 160.852161 
L 64.109894 126.872341 
L 65.316118 79.610798 
L 66.177707 54.467291 
L 66.866978 40.707341 
L 67.383931 33.843079 
L 67.900885 29.572236 
L 68.24552 27.975679 
L 68.590156 27.243619 
L 68.762473 27.166087 
L 68.934791 27.262466 
L 69.279427 27.92412 
L 69.79638 29.903126 
L 70.485651 33.917855 
L 71.519558 41.707803 
L 74.965913 69.067233 
L 76.172138 76.635821 
L 77.378362 82.852186 
L 78.584586 87.827625 
L 79.618493 91.237795 
L 80.6524 93.98667 
L 81.686306 96.189798 
L 82.892531 98.207894 
L 84.098755 99.763526 
L 85.30498 100.969709 
L 86.683522 102.033205 
L 88.234382 102.94536 
L 90.129877 103.790112 
L 92.542326 104.607727 
L 95.988681 105.520056 
L 100.813579 106.543084 
L 114.943636 109.315122 
L 129.762965 111.992954 
L 147.16706 115.103451 
L 147.511695 115.437106 
L 147.856331 116.089787 
L 148.200966 117.376447 
L 148.545602 119.798197 
L 148.890238 123.950975 
L 149.407191 134.230488 
L 150.096462 154.435278 
L 150.785733 177.784779 
L 150.958051 191.826957 
L 191.452727 191.826957 
L 191.452727 191.826957 
" style="fill:none;opacity:0.7;stroke:#c73e4c;stroke-linecap:square;stroke-width:2;"/>
   </g>
   <g id="line2d_8">
    <path clip-path="url(#p96406a61db)" d="M 19.307273 191.826957 
L 61.180491 191.826957 
L 61.525127 185.032319 
L 61.869762 179.371557 
L 62.386716 165.851273 
L 63.075987 140.336907 
L 64.799165 73.300627 
L 65.488436 54.048074 
L 66.177707 40.438592 
L 66.69466 33.669556 
L 67.211613 29.477151 
L 67.556249 27.923728 
L 67.900885 27.227917 
L 68.073202 27.166087 
L 68.24552 27.276652 
L 68.590156 27.962433 
L 69.107109 29.968223 
L 69.79638 34.004428 
L 70.830287 41.805539 
L 74.276642 69.151171 
L 75.482867 76.725424 
L 76.689091 82.958998 
L 77.895315 87.963663 
L 78.929222 91.408089 
L 79.963129 94.199104 
L 81.169353 96.782077 
L 82.375577 98.793165 
L 83.581802 100.367321 
L 84.960344 101.769431 
L 86.511204 102.986998 
L 88.234382 104.040613 
L 90.474513 105.122419 
L 93.576233 106.339645 
L 97.884177 107.783977 
L 114.943636 113.317594 
L 147.339378 124.039499 
L 147.856331 124.539445 
L 148.200966 125.213776 
L 148.545602 126.483244 
L 148.890238 128.807021 
L 149.234873 132.713222 
L 149.751826 142.192681 
L 150.441097 160.476992 
L 151.475004 191.826957 
L 191.452727 191.826957 
L 191.452727 191.826957 
" style="fill:none;opacity:0.7;stroke:#e8602d;stroke-linecap:square;stroke-width:2;"/>
   </g>
   <g id="line2d_9">
    <path clip-path="url(#p96406a61db)" d="M 19.307273 191.826957 
L 64.109894 191.826957 
L 64.282211 124.920533 
L 65.488436 78.336271 
L 66.350025 53.787531 
L 67.039296 40.394792 
L 67.556249 33.716785 
L 68.073202 29.553437 
L 68.417838 27.987004 
L 68.762473 27.254479 
L 68.934791 27.166087 
L 69.107109 27.245002 
L 69.451744 27.853397 
L 69.968698 29.712264 
L 70.657969 33.506683 
L 71.691876 40.878642 
L 74.965913 65.520032 
L 76.172138 72.754303 
L 77.378362 78.670409 
L 78.412269 82.762936 
L 79.446175 86.061426 
L 80.480082 88.683026 
L 81.513989 90.742582 
L 82.547895 92.344808 
L 83.581802 93.580845 
L 84.788026 94.661751 
L 85.994251 95.446914 
L 87.372793 96.079649 
L 88.923653 96.554591 
L 90.991466 96.936122 
L 93.74855 97.191798 
L 97.711859 97.313387 
L 141.825209 97.314772 
L 146.650106 97.418404 
L 147.16706 97.655938 
L 147.511695 98.063104 
L 147.856331 98.929711 
L 148.200966 100.692098 
L 148.545602 104.008285 
L 148.890238 109.592332 
L 149.407191 122.974653 
L 149.579509 128.670721 
L 149.751826 191.826957 
L 191.452727 191.826957 
L 191.452727 191.826957 
" style="fill:none;opacity:0.7;stroke:#ef6e21;stroke-linecap:square;stroke-width:2;"/>
   </g>
   <g id="line2d_10">
    <path clip-path="url(#p96406a61db)" d="M 19.307273 191.826957 
L 66.522342 191.826957 
L 66.69466 46.739492 
L 67.383931 35.836562 
L 67.900885 30.796394 
L 68.417838 28.03498 
L 68.762473 27.268857 
L 68.934791 27.166087 
L 69.107109 27.23215 
L 69.451744 27.819134 
L 69.79638 28.931213 
L 70.313333 31.388024 
L 71.174922 36.945243 
L 72.725782 48.974023 
L 72.8981 191.826957 
L 191.452727 191.826957 
L 191.452727 191.826957 
" style="fill:none;opacity:0.7;stroke:#f67e14;stroke-linecap:square;stroke-width:2;"/>
   </g>
   <g id="line2d_11">
    <path clip-path="url(#p96406a61db)" d="M 19.307273 191.826957 
L 61.525127 191.826957 
L 61.869762 183.294627 
L 62.214398 176.672841 
L 62.731351 161.725618 
L 63.59294 127.907454 
L 64.971482 74.576636 
L 65.660753 54.92148 
L 66.350025 40.960352 
L 66.866978 33.981821 
L 67.383931 29.631282 
L 67.728567 28.000501 
L 68.073202 27.24852 
L 68.24552 27.166087 
L 68.417838 27.260757 
L 68.762473 27.92798 
L 69.279427 29.93554 
L 69.968698 34.019729 
L 71.002604 41.963102 
L 74.44896 70.008171 
L 75.655184 77.823469 
L 76.861409 84.277658 
L 78.067633 89.48068 
L 79.273857 93.609544 
L 80.480082 96.85673 
L 81.686306 99.402996 
L 82.892531 101.40525 
L 84.098755 102.993086 
L 85.477297 104.431874 
L 87.028157 105.709747 
L 88.751335 106.84544 
L 90.991466 108.046233 
L 94.093186 109.434041 
L 98.228812 111.036452 
L 114.254365 116.819587 
L 127.522834 121.374391 
L 139.585078 125.283561 
L 147.16706 127.736738 
L 147.684013 128.164988 
L 148.028649 128.729258 
L 148.373284 129.787887 
L 148.71792 131.745491 
L 149.062555 135.103887 
L 149.579509 143.515589 
L 150.26878 160.330599 
L 151.475004 191.826957 
L 191.452727 191.826957 
L 191.452727 191.826957 
" style="fill:none;opacity:0.7;stroke:#fca108;stroke-linecap:square;stroke-width:2;"/>
   </g>
   <g id="line2d_12">
    <path clip-path="url(#p96406a61db)" d="M 19.307273 191.826957 
L 63.420622 191.826957 
L 63.59294 152.114612 
L 66.005389 62.10009 
L 66.69466 46.096381 
L 67.383931 35.450107 
L 67.900885 30.568297 
L 68.417838 27.935161 
L 68.762473 27.23859 
L 68.934791 27.166087 
L 69.107109 27.259559 
L 69.451744 27.893277 
L 69.968698 29.781462 
L 70.657969 33.601159 
L 71.691876 40.988439 
L 74.965913 65.592163 
L 76.172138 72.803489 
L 77.378362 78.698154 
L 78.412269 82.774539 
L 79.446175 86.059249 
L 80.480082 88.669392 
L 81.513989 90.719618 
L 82.547895 92.314365 
L 83.581802 93.544487 
L 84.788026 94.620102 
L 85.994251 95.401341 
L 87.372793 96.030854 
L 89.095971 96.544202 
L 91.163784 96.905428 
L 93.920868 97.147189 
L 97.884177 97.25817 
L 146.822424 97.407779 
L 147.16706 97.58789 
L 147.511695 97.98067 
L 147.856331 98.817884 
L 148.200966 100.52513 
L 148.545602 103.751489 
L 148.890238 109.214985 
L 149.407191 122.406503 
L 150.096462 147.581904 
L 150.26878 191.826957 
L 191.452727 191.826957 
L 191.452727 191.826957 
" style="fill:none;opacity:0.7;stroke:#fcb216;stroke-linecap:square;stroke-width:2;"/>
   </g>
   <g id="line2d_13">
    <path clip-path="url(#p96406a61db)" d="M 19.307273 191.826957 
L 63.59294 191.826957 
L 63.765258 145.72978 
L 65.660753 72.439832 
L 66.350025 53.571403 
L 67.039296 40.25337 
L 67.556249 33.623945 
L 68.073202 29.501668 
L 68.417838 27.958378 
L 68.762473 27.24572 
L 68.934791 27.166087 
L 69.107109 27.253012 
L 69.451744 27.875298 
L 69.968698 29.750143 
L 70.657969 33.558139 
L 71.691876 40.937862 
L 74.965913 65.556248 
L 76.172138 72.777216 
L 77.378362 78.680968 
L 78.412269 82.764227 
L 79.446175 86.054824 
L 80.480082 88.669871 
L 81.513989 90.724098 
L 82.547895 92.322057 
L 83.581802 93.554722 
L 84.788026 94.632614 
L 85.994251 95.415543 
L 87.372793 96.046445 
L 88.923653 96.519988 
L 90.991466 96.900374 
L 93.74855 97.155267 
L 97.711859 97.276299 
L 142.686798 97.277665 
L 146.650106 97.379182 
L 147.16706 97.611941 
L 147.511695 98.0111 
L 147.856331 98.861353 
L 148.200966 100.593081 
L 148.545602 103.859366 
L 148.890238 109.376482 
L 149.407191 122.652718 
L 149.924144 141.042333 
L 150.096462 191.826957 
L 191.452727 191.826957 
L 191.452727 191.826957 
" style="fill:none;opacity:0.7;stroke:#fac42a;stroke-linecap:square;stroke-width:2;"/>
   </g>
   <g id="line2d_14">
    <path clip-path="url(#p96406a61db)" d="M 19.307273 191.826957 
L 60.835856 191.826957 
L 61.180491 185.1753 
L 61.525127 179.610833 
L 62.04208 166.261285 
L 62.731351 140.94157 
L 64.454529 73.995352 
L 65.1438 54.652806 
L 65.833071 40.910762 
L 66.350025 34.023705 
L 66.866978 29.703061 
L 67.211613 28.060494 
L 67.556249 27.273773 
L 67.728567 27.166087 
L 67.900885 27.230648 
L 68.24552 27.824297 
L 68.590156 28.95492 
L 69.107109 31.459091 
L 69.968698 37.137248 
L 71.519558 49.469067 
L 73.415053 64.144542 
L 74.793595 73.093629 
L 75.99982 79.498751 
L 77.206044 84.647388 
L 78.239951 88.181667 
L 79.273857 91.02907 
L 80.307764 93.305973 
L 81.341671 95.118743 
L 82.547895 96.769943 
L 83.75412 98.037438 
L 85.132662 99.139881 
L 86.683522 100.068614 
L 88.579017 100.910394 
L 90.991466 101.708419 
L 94.610139 102.635244 
L 100.813579 103.956626 
L 110.980328 106.251183 
L 121.664029 108.892459 
L 133.20932 111.978807 
L 146.133153 115.664444 
L 147.339378 116.116214 
L 147.856331 116.510214 
L 148.200966 117.025793 
L 148.545602 118.001495 
L 148.890238 119.84916 
L 149.234873 123.139859 
L 149.579509 128.408097 
L 150.096462 140.337547 
L 150.958051 167.503437 
L 151.647322 191.826957 
L 191.452727 191.826957 
L 191.452727 191.826957 
" style="fill:none;opacity:0.7;stroke:#f6d746;stroke-linecap:square;stroke-width:2;"/>
   </g>
   <g id="patch_3">
    <path d="M 10.7 200.06 
L 10.7 10.7 
" style="fill:none;stroke:#000000;stroke-linecap:square;stroke-linejoin:miter;stroke-width:0.8;"/>
   </g>
   <g id="patch_4">
    <path d="M 200.06 200.06 
L 200.06 10.7 
" style="fill:none;stroke:#000000;stroke-linecap:square;stroke-linejoin:miter;stroke-width:0.8;"/>
   </g>
   <g id="patch_5">
    <path d="M 10.7 200.06 
L 200.06 200.06 
" style="fill:none;stroke:#000000;stroke-linecap:square;stroke-linejoin:miter;stroke-width:0.8;"/>
   </g>
   <g id="patch_6">
    <path d="M 10.7 10.7 
L 200.06 10.7 
" style="fill:none;stroke:#000000;stroke-linecap:square;stroke-linejoin:miter;stroke-width:0.8;"/>
   </g>
  </g>
 </g>
 <defs>
  <clipPath id="p96406a61db">
   <rect height="189.36" width="189.36" x="10.7" y="10.7"/>
  </clipPath>
 </defs>
</svg>
