<?xml version="1.0" encoding="utf-8" standalone="no"?>
<!DOCTYPE svg PUBLIC "-//W3C//DTD SVG 1.1//EN"
  "http://www.w3.org/Graphics/SVG/1.1/DTD/svg11.dtd">
<!-- Created with matplotlib (http://matplotlib.org/) -->
<svg height="262pt" version="1.1" viewBox="0 0 289 262" width="289pt" xmlns="http://www.w3.org/2000/svg" xmlns:xlink="http://www.w3.org/1999/xlink">
 <defs>
  <style type="text/css">
*{stroke-linecap:butt;stroke-linejoin:round;}
  </style>
 </defs>
 <g id="figure_1">
  <g id="patch_1">
   <path d="M 0 262.145 
L 289.22 262.145 
L 289.22 0 
L 0 0 
z
" style="fill:#ffffff;"/>
  </g>
  <g id="axes_1">
   <g id="patch_2">
    <path d="M 44.74 232.46 
L 267.94 232.46 
L 267.94 10.7 
L 44.74 10.7 
z
" style="fill:#ffffff;"/>
   </g>
   <g id="line2d_1">
    <path clip-path="url(#p8699f3b8c5)" d="M -1 34.754619 
L 0.400606 32.876 
L 3.406667 28.844 
L 6.412727 22.796 
L 9.418788 22.796 
L 12.424848 20.78 
L 15.430909 20.78 
L 18.43697 20.78 
L 21.44303 20.78 
L 24.449091 20.78 
L 27.455152 20.78 
L 30.461212 20.78 
L 33.467273 20.78 
L 36.473333 20.78 
L 39.479394 20.78 
L 42.485455 20.78 
L 45.491515 20.78 
L 48.497576 20.78 
L 51.503636 20.78 
L 54.509697 20.78 
L 57.515758 20.78 
L 60.521818 20.78 
L 63.527879 20.78 
L 66.533939 20.78 
L 69.54 20.78 
L 72.546061 20.78 
L 75.552121 20.78 
L 78.558182 20.78 
L 81.564242 20.78 
L 84.570303 20.78 
L 87.576364 20.78 
L 90.582424 20.78 
L 93.588485 20.78 
L 96.594545 20.78 
L 99.600606 20.78 
L 102.606667 20.78 
L 105.612727 20.78 
L 108.618788 20.78 
L 111.624848 20.78 
L 114.630909 20.78 
L 117.63697 20.78 
L 120.64303 20.78 
L 123.649091 20.78 
L 126.655152 20.78 
L 129.661212 20.78 
L 132.667273 20.78 
L 135.673333 20.78 
L 138.679394 20.78 
L 141.685455 20.78 
L 144.691515 20.78 
L 147.697576 20.78 
L 150.703636 22.796 
L 153.709697 22.796 
L 156.715758 24.812 
L 159.721818 30.86 
L 162.727879 32.876 
L 165.733939 32.876 
L 168.74 36.908 
L 171.746061 46.988 
L 174.752121 65.132 
L 177.758182 67.148 
L 180.764242 81.26 
L 183.770303 91.34 
L 186.776364 113.516 
L 189.782424 121.58 
L 192.788485 133.676 
L 195.794545 149.804 
L 198.800606 161.9 
L 201.806667 169.964 
L 204.812727 173.996 
L 207.818788 182.06 
L 210.824848 194.156 
L 213.830909 194.156 
L 216.83697 198.188 
L 219.84303 200.204 
L 222.849091 208.268 
L 225.855152 202.22 
L 228.861212 206.252 
L 231.867273 206.252 
L 234.873333 210.284 
L 237.879394 208.268 
L 240.885455 210.284 
L 243.891515 218.348 
L 246.897576 214.316 
L 249.903636 210.284 
L 252.909697 208.268 
L 255.915758 212.3 
L 258.921818 212.3 
L 261.927879 218.348 
L 264.933939 216.332 
L 267.94 214.316 
" style="fill:none;stroke:#fcab8f;stroke-linecap:square;stroke-width:6;"/>
   </g>
   <g id="line2d_2">
    <path clip-path="url(#p8699f3b8c5)" d="M -1 109.873787 
L 0.400606 101.42 
L 3.406667 87.308 
L 6.412727 81.26 
L 9.418788 63.116 
L 12.424848 61.1 
L 15.430909 46.988 
L 18.43697 40.94 
L 21.44303 32.876 
L 24.449091 28.844 
L 27.455152 30.86 
L 30.461212 24.812 
L 33.467273 22.796 
L 36.473333 22.796 
L 39.479394 22.796 
L 42.485455 22.796 
L 45.491515 22.796 
L 48.497576 20.78 
L 51.503636 20.78 
L 54.509697 20.78 
L 57.515758 20.78 
L 60.521818 20.78 
L 63.527879 20.78 
L 66.533939 20.78 
L 69.54 20.78 
L 72.546061 20.78 
L 75.552121 20.78 
L 78.558182 20.78 
L 81.564242 20.78 
L 84.570303 20.78 
L 87.576364 20.78 
L 90.582424 20.78 
L 93.588485 20.78 
L 96.594545 20.78 
L 99.600606 20.78 
L 102.606667 20.78 
L 105.612727 22.796 
L 108.618788 22.796 
L 111.624848 24.812 
L 114.630909 24.812 
L 117.63697 26.828 
L 120.64303 32.876 
L 123.649091 42.956 
L 126.655152 61.1 
L 129.661212 85.292 
L 132.667273 93.356 
L 135.673333 115.532 
L 138.679394 125.612 
L 141.685455 139.724 
L 144.691515 159.884 
L 147.697576 161.9 
L 150.703636 167.948 
L 153.709697 169.964 
L 156.715758 182.06 
L 159.721818 184.076 
L 162.727879 188.108 
L 165.733939 190.124 
L 168.74 190.124 
L 171.746061 194.156 
L 174.752121 190.124 
L 177.758182 186.092 
L 180.764242 188.108 
L 183.770303 184.076 
L 186.776364 196.172 
L 189.782424 190.124 
L 192.788485 184.076 
L 195.794545 192.14 
L 198.800606 186.092 
L 201.806667 188.108 
L 204.812727 188.108 
L 207.818788 186.092 
L 210.824848 186.092 
L 213.830909 182.06 
L 216.83697 182.06 
L 219.84303 184.076 
L 222.849091 178.028 
L 225.855152 182.06 
L 228.861212 182.06 
L 231.867273 182.06 
L 234.873333 180.044 
L 237.879394 182.06 
L 240.885455 190.124 
L 243.891515 184.076 
L 246.897576 182.06 
L 249.903636 182.06 
L 252.909697 184.076 
L 255.915758 190.124 
L 258.921818 186.092 
L 261.927879 192.14 
L 264.933939 186.092 
L 267.94 190.124 
" style="fill:none;stroke:#b7d4ea;stroke-linecap:square;stroke-width:6;"/>
   </g>
   <g id="matplotlib.axis_1">
    <g id="xtick_1">
     <g id="line2d_3">
      <defs>
       <path d="M 0 0 
L 0 3.5 
" id="m3c623118d5" style="stroke:#000000;stroke-width:0.8;"/>
      </defs>
      <g>
       <use style="stroke:#000000;stroke-width:0.8;" x="44.74" xlink:href="#m3c623118d5" y="232.46"/>
      </g>
     </g>
     <g id="text_1">
      <!-- $\mathdefault{10^{-1}}$ -->
      <defs>
       <path d="M 12.40625 8.296875 
L 28.515625 8.296875 
L 28.515625 63.921875 
L 10.984375 60.40625 
L 10.984375 69.390625 
L 28.421875 72.90625 
L 38.28125 72.90625 
L 38.28125 8.296875 
L 54.390625 8.296875 
L 54.390625 0 
L 12.40625 0 
z
" id="DejaVuSans-31"/>
       <path d="M 31.78125 66.40625 
Q 24.171875 66.40625 20.328125 58.90625 
Q 16.5 51.421875 16.5 36.375 
Q 16.5 21.390625 20.328125 13.890625 
Q 24.171875 6.390625 31.78125 6.390625 
Q 39.453125 6.390625 43.28125 13.890625 
Q 47.125 21.390625 47.125 36.375 
Q 47.125 51.421875 43.28125 58.90625 
Q 39.453125 66.40625 31.78125 66.40625 
z
M 31.78125 74.21875 
Q 44.046875 74.21875 50.515625 64.515625 
Q 56.984375 54.828125 56.984375 36.375 
Q 56.984375 17.96875 50.515625 8.265625 
Q 44.046875 -1.421875 31.78125 -1.421875 
Q 19.53125 -1.421875 13.0625 8.265625 
Q 6.59375 17.96875 6.59375 36.375 
Q 6.59375 54.828125 13.0625 64.515625 
Q 19.53125 74.21875 31.78125 74.21875 
z
" id="DejaVuSans-30"/>
       <path d="M 10.59375 35.5 
L 73.1875 35.5 
L 73.1875 27.203125 
L 10.59375 27.203125 
z
" id="DejaVuSans-2212"/>
      </defs>
      <g transform="translate(25.94 251.6175)scale(0.16 -0.16)">
       <use transform="translate(0 0.684375)" xlink:href="#DejaVuSans-31"/>
       <use transform="translate(63.623047 0.684375)" xlink:href="#DejaVuSans-30"/>
       <use transform="translate(128.203125 38.965625)scale(0.7)" xlink:href="#DejaVuSans-2212"/>
       <use transform="translate(186.855469 38.965625)scale(0.7)" xlink:href="#DejaVuSans-31"/>
      </g>
     </g>
    </g>
    <g id="xtick_2">
     <g id="line2d_4">
      <g>
       <use style="stroke:#000000;stroke-width:0.8;" x="119.14" xlink:href="#m3c623118d5" y="232.46"/>
      </g>
     </g>
     <g id="text_2">
      <!-- $\mathdefault{10^{0}}$ -->
      <g transform="translate(105.06 251.6175)scale(0.16 -0.16)">
       <use transform="translate(0 0.765625)" xlink:href="#DejaVuSans-31"/>
       <use transform="translate(63.623047 0.765625)" xlink:href="#DejaVuSans-30"/>
       <use transform="translate(128.203125 39.046875)scale(0.7)" xlink:href="#DejaVuSans-30"/>
      </g>
     </g>
    </g>
    <g id="xtick_3">
     <g id="line2d_5">
      <g>
       <use style="stroke:#000000;stroke-width:0.8;" x="193.54" xlink:href="#m3c623118d5" y="232.46"/>
      </g>
     </g>
     <g id="text_3">
      <!-- $\mathdefault{10^{1}}$ -->
      <g transform="translate(179.46 251.6175)scale(0.16 -0.16)">
       <use transform="translate(0 0.684375)" xlink:href="#DejaVuSans-31"/>
       <use transform="translate(63.623047 0.684375)" xlink:href="#DejaVuSans-30"/>
       <use transform="translate(128.203125 38.965625)scale(0.7)" xlink:href="#DejaVuSans-31"/>
      </g>
     </g>
    </g>
    <g id="xtick_4">
     <g id="line2d_6">
      <g>
       <use style="stroke:#000000;stroke-width:0.8;" x="267.94" xlink:href="#m3c623118d5" y="232.46"/>
      </g>
     </g>
     <g id="text_4">
      <!-- $\mathdefault{10^{2}}$ -->
      <defs>
       <path d="M 19.1875 8.296875 
L 53.609375 8.296875 
L 53.609375 0 
L 7.328125 0 
L 7.328125 8.296875 
Q 12.9375 14.109375 22.625 23.890625 
Q 32.328125 33.6875 34.8125 36.53125 
Q 39.546875 41.84375 41.421875 45.53125 
Q 43.3125 49.21875 43.3125 52.78125 
Q 43.3125 58.59375 39.234375 62.25 
Q 35.15625 65.921875 28.609375 65.921875 
Q 23.96875 65.921875 18.8125 64.3125 
Q 13.671875 62.703125 7.8125 59.421875 
L 7.8125 69.390625 
Q 13.765625 71.78125 18.9375 73 
Q 24.125 74.21875 28.421875 74.21875 
Q 39.75 74.21875 46.484375 68.546875 
Q 53.21875 62.890625 53.21875 53.421875 
Q 53.21875 48.921875 51.53125 44.890625 
Q 49.859375 40.875 45.40625 35.40625 
Q 44.1875 33.984375 37.640625 27.21875 
Q 31.109375 20.453125 19.1875 8.296875 
z
" id="DejaVuSans-32"/>
      </defs>
      <g transform="translate(253.86 251.6175)scale(0.16 -0.16)">
       <use transform="translate(0 0.765625)" xlink:href="#DejaVuSans-31"/>
       <use transform="translate(63.623047 0.765625)" xlink:href="#DejaVuSans-30"/>
       <use transform="translate(128.203125 39.046875)scale(0.7)" xlink:href="#DejaVuSans-32"/>
      </g>
     </g>
    </g>
    <g id="xtick_5">
     <g id="line2d_7">
      <defs>
       <path d="M 0 0 
L 0 2 
" id="mb308b7354e" style="stroke:#000000;stroke-width:0.6;"/>
      </defs>
      <g>
       <use style="stroke:#000000;stroke-width:0.6;" x="67.136632" xlink:href="#mb308b7354e" y="232.46"/>
      </g>
     </g>
    </g>
    <g id="xtick_6">
     <g id="line2d_8">
      <g>
       <use style="stroke:#000000;stroke-width:0.6;" x="80.237821" xlink:href="#mb308b7354e" y="232.46"/>
      </g>
     </g>
    </g>
    <g id="xtick_7">
     <g id="line2d_9">
      <g>
       <use style="stroke:#000000;stroke-width:0.6;" x="89.533263" xlink:href="#mb308b7354e" y="232.46"/>
      </g>
     </g>
    </g>
    <g id="xtick_8">
     <g id="line2d_10">
      <g>
       <use style="stroke:#000000;stroke-width:0.6;" x="96.743368" xlink:href="#mb308b7354e" y="232.46"/>
      </g>
     </g>
    </g>
    <g id="xtick_9">
     <g id="line2d_11">
      <g>
       <use style="stroke:#000000;stroke-width:0.6;" x="102.634453" xlink:href="#mb308b7354e" y="232.46"/>
      </g>
     </g>
    </g>
    <g id="xtick_10">
     <g id="line2d_12">
      <g>
       <use style="stroke:#000000;stroke-width:0.6;" x="107.615294" xlink:href="#mb308b7354e" y="232.46"/>
      </g>
     </g>
    </g>
    <g id="xtick_11">
     <g id="line2d_13">
      <g>
       <use style="stroke:#000000;stroke-width:0.6;" x="111.929895" xlink:href="#mb308b7354e" y="232.46"/>
      </g>
     </g>
    </g>
    <g id="xtick_12">
     <g id="line2d_14">
      <g>
       <use style="stroke:#000000;stroke-width:0.6;" x="115.735643" xlink:href="#mb308b7354e" y="232.46"/>
      </g>
     </g>
    </g>
    <g id="xtick_13">
     <g id="line2d_15">
      <g>
       <use style="stroke:#000000;stroke-width:0.6;" x="141.536632" xlink:href="#mb308b7354e" y="232.46"/>
      </g>
     </g>
    </g>
    <g id="xtick_14">
     <g id="line2d_16">
      <g>
       <use style="stroke:#000000;stroke-width:0.6;" x="154.637821" xlink:href="#mb308b7354e" y="232.46"/>
      </g>
     </g>
    </g>
    <g id="xtick_15">
     <g id="line2d_17">
      <g>
       <use style="stroke:#000000;stroke-width:0.6;" x="163.933263" xlink:href="#mb308b7354e" y="232.46"/>
      </g>
     </g>
    </g>
    <g id="xtick_16">
     <g id="line2d_18">
      <g>
       <use style="stroke:#000000;stroke-width:0.6;" x="171.143368" xlink:href="#mb308b7354e" y="232.46"/>
      </g>
     </g>
    </g>
    <g id="xtick_17">
     <g id="line2d_19">
      <g>
       <use style="stroke:#000000;stroke-width:0.6;" x="177.034453" xlink:href="#mb308b7354e" y="232.46"/>
      </g>
     </g>
    </g>
    <g id="xtick_18">
     <g id="line2d_20">
      <g>
       <use style="stroke:#000000;stroke-width:0.6;" x="182.015294" xlink:href="#mb308b7354e" y="232.46"/>
      </g>
     </g>
    </g>
    <g id="xtick_19">
     <g id="line2d_21">
      <g>
       <use style="stroke:#000000;stroke-width:0.6;" x="186.329895" xlink:href="#mb308b7354e" y="232.46"/>
      </g>
     </g>
    </g>
    <g id="xtick_20">
     <g id="line2d_22">
      <g>
       <use style="stroke:#000000;stroke-width:0.6;" x="190.135643" xlink:href="#mb308b7354e" y="232.46"/>
      </g>
     </g>
    </g>
    <g id="xtick_21">
     <g id="line2d_23">
      <g>
       <use style="stroke:#000000;stroke-width:0.6;" x="215.936632" xlink:href="#mb308b7354e" y="232.46"/>
      </g>
     </g>
    </g>
    <g id="xtick_22">
     <g id="line2d_24">
      <g>
       <use style="stroke:#000000;stroke-width:0.6;" x="229.037821" xlink:href="#mb308b7354e" y="232.46"/>
      </g>
     </g>
    </g>
    <g id="xtick_23">
     <g id="line2d_25">
      <g>
       <use style="stroke:#000000;stroke-width:0.6;" x="238.333263" xlink:href="#mb308b7354e" y="232.46"/>
      </g>
     </g>
    </g>
    <g id="xtick_24">
     <g id="line2d_26">
      <g>
       <use style="stroke:#000000;stroke-width:0.6;" x="245.543368" xlink:href="#mb308b7354e" y="232.46"/>
      </g>
     </g>
    </g>
    <g id="xtick_25">
     <g id="line2d_27">
      <g>
       <use style="stroke:#000000;stroke-width:0.6;" x="251.434453" xlink:href="#mb308b7354e" y="232.46"/>
      </g>
     </g>
    </g>
    <g id="xtick_26">
     <g id="line2d_28">
      <g>
       <use style="stroke:#000000;stroke-width:0.6;" x="256.415294" xlink:href="#mb308b7354e" y="232.46"/>
      </g>
     </g>
    </g>
    <g id="xtick_27">
     <g id="line2d_29">
      <g>
       <use style="stroke:#000000;stroke-width:0.6;" x="260.729895" xlink:href="#mb308b7354e" y="232.46"/>
      </g>
     </g>
    </g>
    <g id="xtick_28">
     <g id="line2d_30">
      <g>
       <use style="stroke:#000000;stroke-width:0.6;" x="264.535643" xlink:href="#mb308b7354e" y="232.46"/>
      </g>
     </g>
    </g>
   </g>
   <g id="matplotlib.axis_2">
    <g id="ytick_1">
     <g id="line2d_31">
      <defs>
       <path d="M 0 0 
L -3.5 0 
" id="mab8882a0aa" style="stroke:#000000;stroke-width:0.8;"/>
      </defs>
      <g>
       <use style="stroke:#000000;stroke-width:0.8;" x="44.74" xlink:href="#mab8882a0aa" y="222.38"/>
      </g>
     </g>
     <g id="text_5">
      <!-- 0 -->
      <g transform="translate(27.56 228.45875)scale(0.16 -0.16)">
       <use xlink:href="#DejaVuSans-30"/>
      </g>
     </g>
    </g>
    <g id="ytick_2">
     <g id="line2d_32">
      <g>
       <use style="stroke:#000000;stroke-width:0.8;" x="44.74" xlink:href="#mab8882a0aa" y="121.58"/>
      </g>
     </g>
     <g id="text_6">
      <!-- 50 -->
      <defs>
       <path d="M 10.796875 72.90625 
L 49.515625 72.90625 
L 49.515625 64.59375 
L 19.828125 64.59375 
L 19.828125 46.734375 
Q 21.96875 47.46875 24.109375 47.828125 
Q 26.265625 48.1875 28.421875 48.1875 
Q 40.625 48.1875 47.75 41.5 
Q 54.890625 34.8125 54.890625 23.390625 
Q 54.890625 11.625 47.5625 5.09375 
Q 40.234375 -1.421875 26.90625 -1.421875 
Q 22.3125 -1.421875 17.546875 -0.640625 
Q 12.796875 0.140625 7.71875 1.703125 
L 7.71875 11.625 
Q 12.109375 9.234375 16.796875 8.0625 
Q 21.484375 6.890625 26.703125 6.890625 
Q 35.15625 6.890625 40.078125 11.328125 
Q 45.015625 15.765625 45.015625 23.390625 
Q 45.015625 31 40.078125 35.4375 
Q 35.15625 39.890625 26.703125 39.890625 
Q 22.75 39.890625 18.8125 39.015625 
Q 14.890625 38.140625 10.796875 36.28125 
z
" id="DejaVuSans-35"/>
      </defs>
      <g transform="translate(17.38 127.65875)scale(0.16 -0.16)">
       <use xlink:href="#DejaVuSans-35"/>
       <use x="63.623047" xlink:href="#DejaVuSans-30"/>
      </g>
     </g>
    </g>
    <g id="ytick_3">
     <g id="line2d_33">
      <g>
       <use style="stroke:#000000;stroke-width:0.8;" x="44.74" xlink:href="#mab8882a0aa" y="20.78"/>
      </g>
     </g>
     <g id="text_7">
      <!-- 100 -->
      <g transform="translate(7.2 26.85875)scale(0.16 -0.16)">
       <use xlink:href="#DejaVuSans-31"/>
       <use x="63.623047" xlink:href="#DejaVuSans-30"/>
       <use x="127.246094" xlink:href="#DejaVuSans-30"/>
      </g>
     </g>
    </g>
   </g>
   <g id="line2d_34">
    <path clip-path="url(#p8699f3b8c5)" d="M -1 80.985239 
L 0.400606 77.228 
L 3.406667 65.132 
L 6.412727 51.02 
L 9.418788 46.988 
L 12.424848 36.908 
L 15.430909 49.004 
L 18.43697 34.892 
L 21.44303 36.908 
L 24.449091 36.908 
L 27.455152 36.908 
L 30.461212 32.876 
L 33.467273 32.876 
L 36.473333 28.844 
L 39.479394 28.844 
L 42.485455 24.812 
L 45.491515 22.796 
L 48.497576 20.78 
L 51.503636 24.812 
L 54.509697 24.812 
L 57.515758 22.796 
L 60.521818 22.796 
L 63.527879 24.812 
L 66.533939 24.812 
L 69.54 20.78 
L 72.546061 22.796 
L 75.552121 20.78 
L 78.558182 24.812 
L 81.564242 20.78 
L 84.570303 22.796 
L 87.576364 24.812 
L 90.582424 20.78 
L 93.588485 20.78 
L 96.594545 22.796 
L 99.600606 20.78 
L 102.606667 22.796 
L 105.612727 20.78 
L 108.618788 20.78 
L 111.624848 20.78 
L 114.630909 20.78 
L 117.63697 20.78 
L 120.64303 20.78 
L 123.649091 20.78 
L 126.655152 20.78 
L 129.661212 20.78 
L 132.667273 20.78 
L 135.673333 20.78 
L 138.679394 20.78 
L 141.685455 20.78 
L 144.691515 20.78 
L 147.697576 20.78 
L 150.703636 20.78 
L 153.709697 20.78 
L 156.715758 20.78 
L 159.721818 20.78 
L 162.727879 20.78 
L 165.733939 20.78 
L 168.74 20.78 
L 171.746061 20.78 
L 174.752121 20.78 
L 177.758182 20.78 
L 180.764242 20.78 
L 183.770303 20.78 
L 186.776364 22.796 
L 189.782424 22.796 
L 192.788485 22.796 
L 195.794545 22.796 
L 198.800606 22.796 
L 201.806667 22.796 
L 204.812727 22.796 
L 207.818788 22.796 
L 210.824848 22.796 
L 213.830909 24.812 
L 216.83697 30.86 
L 219.84303 36.908 
L 222.849091 44.972 
L 225.855152 53.036 
L 228.861212 71.18 
L 231.867273 83.276 
L 234.873333 91.34 
L 237.879394 107.468 
L 240.885455 119.564 
L 243.891515 141.74 
L 246.897576 161.9 
L 249.903636 169.964 
L 252.909697 178.028 
L 255.915758 188.108 
L 258.921818 202.22 
L 261.927879 208.268 
L 264.933939 218.348 
L 267.94 218.348 
" style="fill:none;stroke:#d92523;stroke-linecap:square;stroke-width:4;"/>
   </g>
   <g id="line2d_35">
    <path clip-path="url(#p8699f3b8c5)" d="M -1 149.254477 
L 0.400606 141.74 
L 3.406667 143.756 
L 6.412727 133.676 
L 9.418788 117.548 
L 12.424848 117.548 
L 15.430909 103.436 
L 18.43697 93.356 
L 21.44303 81.26 
L 24.449091 61.1 
L 27.455152 63.116 
L 30.461212 61.1 
L 33.467273 49.004 
L 36.473333 55.052 
L 39.479394 49.004 
L 42.485455 38.924 
L 45.491515 36.908 
L 48.497576 30.86 
L 51.503636 30.86 
L 54.509697 30.86 
L 57.515758 26.828 
L 60.521818 26.828 
L 63.527879 26.828 
L 66.533939 24.812 
L 69.54 30.86 
L 72.546061 26.828 
L 75.552121 24.812 
L 78.558182 24.812 
L 81.564242 22.796 
L 84.570303 24.812 
L 87.576364 26.828 
L 90.582424 28.844 
L 93.588485 26.828 
L 96.594545 26.828 
L 99.600606 26.828 
L 102.606667 22.796 
L 105.612727 22.796 
L 108.618788 24.812 
L 111.624848 26.828 
L 114.630909 30.86 
L 117.63697 36.908 
L 120.64303 46.988 
L 123.649091 53.036 
L 126.655152 81.26 
L 129.661212 111.5 
L 132.667273 147.788 
L 135.673333 178.028 
L 138.679394 208.268 
L 141.685455 222.38 
L 144.691515 222.38 
L 147.697576 222.38 
L 150.703636 222.38 
L 153.709697 222.38 
L 156.715758 222.38 
L 159.721818 222.38 
L 162.727879 222.38 
L 165.733939 222.38 
L 168.74 222.38 
L 171.746061 222.38 
L 174.752121 222.38 
L 177.758182 222.38 
L 180.764242 222.38 
L 183.770303 222.38 
L 186.776364 222.38 
L 189.782424 222.38 
L 192.788485 222.38 
L 195.794545 222.38 
L 198.800606 222.38 
L 201.806667 222.38 
L 204.812727 222.38 
L 207.818788 222.38 
L 210.824848 222.38 
L 213.830909 222.38 
L 216.83697 222.38 
L 219.84303 222.38 
L 222.849091 222.38 
L 225.855152 222.38 
L 228.861212 222.38 
L 231.867273 222.38 
L 234.873333 222.38 
L 237.879394 222.38 
L 240.885455 222.38 
L 243.891515 222.38 
L 246.897576 222.38 
L 249.903636 222.38 
L 252.909697 222.38 
L 255.915758 222.38 
L 258.921818 222.38 
L 261.927879 222.38 
L 264.933939 222.38 
L 267.94 222.38 
" style="fill:none;stroke:#2e7ebc;stroke-linecap:square;stroke-width:4;"/>
   </g>
   <g id="patch_3">
    <path d="M 44.74 232.46 
L 44.74 10.7 
" style="fill:none;stroke:#000000;stroke-linecap:square;stroke-linejoin:miter;stroke-width:0.8;"/>
   </g>
   <g id="patch_4">
    <path d="M 267.94 232.46 
L 267.94 10.7 
" style="fill:none;stroke:#000000;stroke-linecap:square;stroke-linejoin:miter;stroke-width:0.8;"/>
   </g>
   <g id="patch_5">
    <path d="M 44.74 232.46 
L 267.94 232.46 
" style="fill:none;stroke:#000000;stroke-linecap:square;stroke-linejoin:miter;stroke-width:0.8;"/>
   </g>
   <g id="patch_6">
    <path d="M 44.74 10.7 
L 267.94 10.7 
" style="fill:none;stroke:#000000;stroke-linecap:square;stroke-linejoin:miter;stroke-width:0.8;"/>
   </g>
  </g>
 </g>
 <defs>
  <clipPath id="p8699f3b8c5">
   <rect height="221.76" width="223.2" x="44.74" y="10.7"/>
  </clipPath>
 </defs>
</svg>
