<?xml version="1.0" encoding="utf-8" standalone="no"?>
<!DOCTYPE svg PUBLIC "-//W3C//DTD SVG 1.1//EN"
  "http://www.w3.org/Graphics/SVG/1.1/DTD/svg11.dtd">
<!-- Created with matplotlib (http://matplotlib.org/) -->
<svg height="354pt" version="1.1" viewBox="0 0 397 354" width="397pt" xmlns="http://www.w3.org/2000/svg" xmlns:xlink="http://www.w3.org/1999/xlink">
 <defs>
  <style type="text/css">
*{stroke-linecap:butt;stroke-linejoin:round;}
  </style>
 </defs>
 <g id="figure_1">
  <g id="patch_1">
   <path d="M 0 354.04 
L 397.17933 354.04 
L 397.17933 0 
L 0 0 
z
" style="fill:#ffffff;"/>
  </g>
  <g id="axes_1">
   <g id="patch_2">
    <path d="M 67.622187 343.34 
L 386.47933 343.34 
L 386.47933 10.7 
L 67.622187 10.7 
z
" style="fill:#ffffff;"/>
   </g>
   <g id="matplotlib.axis_1"/>
   <g id="matplotlib.axis_2">
    <g id="ytick_1">
     <g id="line2d_1">
      <defs>
       <path d="M 0 0 
L -3.5 0 
" id="mcbfe1aa12d" style="stroke:#000000;stroke-width:0.8;"/>
      </defs>
      <g>
       <use style="stroke:#000000;stroke-width:0.8;" x="67.622187" xlink:href="#mcbfe1aa12d" y="298.290972"/>
      </g>
     </g>
     <g id="text_1">
      <!-- −0.2 -->
      <defs>
       <path d="M 10.59375 35.5 
L 73.1875 35.5 
L 73.1875 27.203125 
L 10.59375 27.203125 
z
" id="DejaVuSans-2212"/>
       <path d="M 31.78125 66.40625 
Q 24.171875 66.40625 20.328125 58.90625 
Q 16.5 51.421875 16.5 36.375 
Q 16.5 21.390625 20.328125 13.890625 
Q 24.171875 6.390625 31.78125 6.390625 
Q 39.453125 6.390625 43.28125 13.890625 
Q 47.125 21.390625 47.125 36.375 
Q 47.125 51.421875 43.28125 58.90625 
Q 39.453125 66.40625 31.78125 66.40625 
z
M 31.78125 74.21875 
Q 44.046875 74.21875 50.515625 64.515625 
Q 56.984375 54.828125 56.984375 36.375 
Q 56.984375 17.96875 50.515625 8.265625 
Q 44.046875 -1.421875 31.78125 -1.421875 
Q 19.53125 -1.421875 13.0625 8.265625 
Q 6.59375 17.96875 6.59375 36.375 
Q 6.59375 54.828125 13.0625 64.515625 
Q 19.53125 74.21875 31.78125 74.21875 
z
" id="DejaVuSans-30"/>
       <path d="M 10.6875 12.40625 
L 21 12.40625 
L 21 0 
L 10.6875 0 
z
" id="DejaVuSans-2e"/>
       <path d="M 19.1875 8.296875 
L 53.609375 8.296875 
L 53.609375 0 
L 7.328125 0 
L 7.328125 8.296875 
Q 12.9375 14.109375 22.625 23.890625 
Q 32.328125 33.6875 34.8125 36.53125 
Q 39.546875 41.84375 41.421875 45.53125 
Q 43.3125 49.21875 43.3125 52.78125 
Q 43.3125 58.59375 39.234375 62.25 
Q 35.15625 65.921875 28.609375 65.921875 
Q 23.96875 65.921875 18.8125 64.3125 
Q 13.671875 62.703125 7.8125 59.421875 
L 7.8125 69.390625 
Q 13.765625 71.78125 18.9375 73 
Q 24.125 74.21875 28.421875 74.21875 
Q 39.75 74.21875 46.484375 68.546875 
Q 53.21875 62.890625 53.21875 53.421875 
Q 53.21875 48.921875 51.53125 44.890625 
Q 49.859375 40.875 45.40625 35.40625 
Q 44.1875 33.984375 37.640625 27.21875 
Q 31.109375 20.453125 19.1875 8.296875 
z
" id="DejaVuSans-32"/>
      </defs>
      <g transform="translate(7.2 306.649253)scale(0.22 -0.22)">
       <use xlink:href="#DejaVuSans-2212"/>
       <use x="83.789062" xlink:href="#DejaVuSans-30"/>
       <use x="147.412109" xlink:href="#DejaVuSans-2e"/>
       <use x="179.199219" xlink:href="#DejaVuSans-32"/>
      </g>
     </g>
    </g>
    <g id="ytick_2">
     <g id="line2d_2">
      <g>
       <use style="stroke:#000000;stroke-width:0.8;" x="67.622187" xlink:href="#mcbfe1aa12d" y="239.638128"/>
      </g>
     </g>
     <g id="text_2">
      <!-- −0.1 -->
      <defs>
       <path d="M 12.40625 8.296875 
L 28.515625 8.296875 
L 28.515625 63.921875 
L 10.984375 60.40625 
L 10.984375 69.390625 
L 28.421875 72.90625 
L 38.28125 72.90625 
L 38.28125 8.296875 
L 54.390625 8.296875 
L 54.390625 0 
L 12.40625 0 
z
" id="DejaVuSans-31"/>
      </defs>
      <g transform="translate(7.2 247.996409)scale(0.22 -0.22)">
       <use xlink:href="#DejaVuSans-2212"/>
       <use x="83.789062" xlink:href="#DejaVuSans-30"/>
       <use x="147.412109" xlink:href="#DejaVuSans-2e"/>
       <use x="179.199219" xlink:href="#DejaVuSans-31"/>
      </g>
     </g>
    </g>
    <g id="ytick_3">
     <g id="line2d_3">
      <g>
       <use style="stroke:#000000;stroke-width:0.8;" x="67.622187" xlink:href="#mcbfe1aa12d" y="180.985285"/>
      </g>
     </g>
     <g id="text_3">
      <!-- 0.0 -->
      <g transform="translate(25.635312 189.343566)scale(0.22 -0.22)">
       <use xlink:href="#DejaVuSans-30"/>
       <use x="63.623047" xlink:href="#DejaVuSans-2e"/>
       <use x="95.410156" xlink:href="#DejaVuSans-30"/>
      </g>
     </g>
    </g>
    <g id="ytick_4">
     <g id="line2d_4">
      <g>
       <use style="stroke:#000000;stroke-width:0.8;" x="67.622187" xlink:href="#mcbfe1aa12d" y="122.332441"/>
      </g>
     </g>
     <g id="text_4">
      <!-- 0.1 -->
      <g transform="translate(25.635312 130.690722)scale(0.22 -0.22)">
       <use xlink:href="#DejaVuSans-30"/>
       <use x="63.623047" xlink:href="#DejaVuSans-2e"/>
       <use x="95.410156" xlink:href="#DejaVuSans-31"/>
      </g>
     </g>
    </g>
    <g id="ytick_5">
     <g id="line2d_5">
      <g>
       <use style="stroke:#000000;stroke-width:0.8;" x="67.622187" xlink:href="#mcbfe1aa12d" y="63.679597"/>
      </g>
     </g>
     <g id="text_5">
      <!-- 0.2 -->
      <g transform="translate(25.635312 72.037879)scale(0.22 -0.22)">
       <use xlink:href="#DejaVuSans-30"/>
       <use x="63.623047" xlink:href="#DejaVuSans-2e"/>
       <use x="95.410156" xlink:href="#DejaVuSans-32"/>
      </g>
     </g>
    </g>
   </g>
   <g id="patch_3">
    <path clip-path="url(#p8eda664668)" d="M 82.115694 180.985285 
L 96.6092 180.985285 
L 96.6092 180.831002 
L 82.115694 180.831002 
z
" style="fill:#d92523;"/>
   </g>
   <g id="patch_4">
    <path clip-path="url(#p8eda664668)" d="M 96.6092 180.985285 
L 111.102707 180.985285 
L 111.102707 43.39182 
L 96.6092 43.39182 
z
" style="fill:#d92523;"/>
   </g>
   <g id="patch_5">
    <path clip-path="url(#p8eda664668)" d="M 111.102707 180.985285 
L 125.596213 180.985285 
L 125.596213 180.869484 
L 111.102707 180.869484 
z
" style="fill:#d92523;"/>
   </g>
   <g id="patch_6">
    <path clip-path="url(#p8eda664668)" d="M 125.596213 180.985285 
L 140.08972 180.985285 
L 140.08972 328.22 
L 125.596213 328.22 
z
" style="fill:#d92523;"/>
   </g>
   <g id="patch_7">
    <path clip-path="url(#p8eda664668)" d="M 140.08972 180.985285 
L 154.583226 180.985285 
L 154.583226 170.678582 
L 140.08972 170.678582 
z
" style="fill:#d92523;"/>
   </g>
   <g id="patch_8">
    <path clip-path="url(#p8eda664668)" d="M 154.583226 180.985285 
L 169.076733 180.985285 
L 169.076733 181.115943 
L 154.583226 181.115943 
z
" style="fill:#d92523;"/>
   </g>
   <g id="patch_9">
    <path clip-path="url(#p8eda664668)" d="M 169.076733 180.985285 
L 183.570239 180.985285 
L 183.570239 61.550413 
L 169.076733 61.550413 
z
" style="fill:#d92523;"/>
   </g>
   <g id="patch_10">
    <path clip-path="url(#p8eda664668)" d="M 183.570239 180.985285 
L 198.063746 180.985285 
L 198.063746 226.419466 
L 183.570239 226.419466 
z
" style="fill:#d92523;"/>
   </g>
   <g id="patch_11">
    <path clip-path="url(#p8eda664668)" d="M 198.063746 180.985285 
L 212.557252 180.985285 
L 212.557252 180.944722 
L 198.063746 180.944722 
z
" style="fill:#d92523;"/>
   </g>
   <g id="patch_12">
    <path clip-path="url(#p8eda664668)" d="M 212.557252 180.985285 
L 227.050759 180.985285 
L 227.050759 69.321475 
L 212.557252 69.321475 
z
" style="fill:#d92523;"/>
   </g>
   <g id="patch_13">
    <path clip-path="url(#p8eda664668)" d="M 227.050759 180.985285 
L 241.544265 180.985285 
L 241.544265 25.82 
L 227.050759 25.82 
z
" style="fill:#d92523;"/>
   </g>
   <g id="patch_14">
    <path clip-path="url(#p8eda664668)" d="M 241.544265 180.985285 
L 256.037772 180.985285 
L 256.037772 180.991867 
L 241.544265 180.991867 
z
" style="fill:#d92523;"/>
   </g>
   <g id="patch_15">
    <path clip-path="url(#p8eda664668)" d="M 256.037772 180.985285 
L 270.531278 180.985285 
L 270.531278 181.463869 
L 256.037772 181.463869 
z
" style="fill:#d92523;"/>
   </g>
   <g id="patch_16">
    <path clip-path="url(#p8eda664668)" d="M 270.531278 180.985285 
L 285.024785 180.985285 
L 285.024785 181.159861 
L 270.531278 181.159861 
z
" style="fill:#d92523;"/>
   </g>
   <g id="patch_17">
    <path clip-path="url(#p8eda664668)" d="M 285.024785 180.985285 
L 299.518291 180.985285 
L 299.518291 208.256712 
L 285.024785 208.256712 
z
" style="fill:#d92523;"/>
   </g>
   <g id="patch_18">
    <path clip-path="url(#p8eda664668)" d="M 299.518291 180.985285 
L 314.011798 180.985285 
L 314.011798 175.020016 
L 299.518291 175.020016 
z
" style="fill:#d92523;"/>
   </g>
   <g id="patch_19">
    <path clip-path="url(#p8eda664668)" d="M 314.011798 180.985285 
L 328.505304 180.985285 
L 328.505304 72.683451 
L 314.011798 72.683451 
z
" style="fill:#d92523;"/>
   </g>
   <g id="patch_20">
    <path clip-path="url(#p8eda664668)" d="M 328.505304 180.985285 
L 342.998811 180.985285 
L 342.998811 162.435008 
L 328.505304 162.435008 
z
" style="fill:#d92523;"/>
   </g>
   <g id="patch_21">
    <path clip-path="url(#p8eda664668)" d="M 342.998811 180.985285 
L 357.492317 180.985285 
L 357.492317 180.669345 
L 342.998811 180.669345 
z
" style="fill:#d92523;"/>
   </g>
   <g id="patch_22">
    <path clip-path="url(#p8eda664668)" d="M 357.492317 180.985285 
L 371.985824 180.985285 
L 371.985824 181.083323 
L 357.492317 181.083323 
z
" style="fill:#d92523;"/>
   </g>
   <g id="patch_23">
    <path clip-path="url(#p8eda664668)" d="M 82.115694 180.985285 
L 96.6092 180.985285 
L 96.6092 180.966069 
L 82.115694 180.966069 
z
" style="fill:#2e7ebc;"/>
   </g>
   <g id="patch_24">
    <path clip-path="url(#p8eda664668)" d="M 96.6092 180.985285 
L 111.102707 180.985285 
L 111.102707 221.999054 
L 96.6092 221.999054 
z
" style="fill:#2e7ebc;"/>
   </g>
   <g id="patch_25">
    <path clip-path="url(#p8eda664668)" d="M 111.102707 180.985285 
L 125.596213 180.985285 
L 125.596213 176.163733 
L 111.102707 176.163733 
z
" style="fill:#2e7ebc;"/>
   </g>
   <g id="patch_26">
    <path clip-path="url(#p8eda664668)" d="M 125.596213 180.985285 
L 140.08972 180.985285 
L 140.08972 145.64921 
L 125.596213 145.64921 
z
" style="fill:#2e7ebc;"/>
   </g>
   <g id="patch_27">
    <path clip-path="url(#p8eda664668)" d="M 140.08972 180.985285 
L 154.583226 180.985285 
L 154.583226 181.386792 
L 140.08972 181.386792 
z
" style="fill:#2e7ebc;"/>
   </g>
   <g id="patch_28">
    <path clip-path="url(#p8eda664668)" d="M 154.583226 180.985285 
L 169.076733 180.985285 
L 169.076733 178.774199 
L 154.583226 178.774199 
z
" style="fill:#2e7ebc;"/>
   </g>
   <g id="patch_29">
    <path clip-path="url(#p8eda664668)" d="M 169.076733 180.985285 
L 183.570239 180.985285 
L 183.570239 196.626721 
L 169.076733 196.626721 
z
" style="fill:#2e7ebc;"/>
   </g>
   <g id="patch_30">
    <path clip-path="url(#p8eda664668)" d="M 183.570239 180.985285 
L 198.063746 180.985285 
L 198.063746 178.237819 
L 183.570239 178.237819 
z
" style="fill:#2e7ebc;"/>
   </g>
   <g id="patch_31">
    <path clip-path="url(#p8eda664668)" d="M 198.063746 180.985285 
L 212.557252 180.985285 
L 212.557252 181.004512 
L 198.063746 181.004512 
z
" style="fill:#2e7ebc;"/>
   </g>
   <g id="patch_32">
    <path clip-path="url(#p8eda664668)" d="M 212.557252 180.985285 
L 227.050759 180.985285 
L 227.050759 210.602152 
L 212.557252 210.602152 
z
" style="fill:#2e7ebc;"/>
   </g>
   <g id="patch_33">
    <path clip-path="url(#p8eda664668)" d="M 227.050759 180.985285 
L 241.544265 180.985285 
L 241.544265 195.977747 
L 227.050759 195.977747 
z
" style="fill:#2e7ebc;"/>
   </g>
   <g id="patch_34">
    <path clip-path="url(#p8eda664668)" d="M 241.544265 180.985285 
L 256.037772 180.985285 
L 256.037772 185.300275 
L 241.544265 185.300275 
z
" style="fill:#2e7ebc;"/>
   </g>
   <g id="patch_35">
    <path clip-path="url(#p8eda664668)" d="M 256.037772 180.985285 
L 270.531278 180.985285 
L 270.531278 181.495898 
L 256.037772 181.495898 
z
" style="fill:#2e7ebc;"/>
   </g>
   <g id="patch_36">
    <path clip-path="url(#p8eda664668)" d="M 270.531278 180.985285 
L 285.024785 180.985285 
L 285.024785 181.106911 
L 270.531278 181.106911 
z
" style="fill:#2e7ebc;"/>
   </g>
   <g id="patch_37">
    <path clip-path="url(#p8eda664668)" d="M 285.024785 180.985285 
L 299.518291 180.985285 
L 299.518291 156.719798 
L 285.024785 156.719798 
z
" style="fill:#2e7ebc;"/>
   </g>
   <g id="patch_38">
    <path clip-path="url(#p8eda664668)" d="M 299.518291 180.985285 
L 314.011798 180.985285 
L 314.011798 181.853864 
L 299.518291 181.853864 
z
" style="fill:#2e7ebc;"/>
   </g>
   <g id="patch_39">
    <path clip-path="url(#p8eda664668)" d="M 314.011798 180.985285 
L 328.505304 180.985285 
L 328.505304 205.532664 
L 314.011798 205.532664 
z
" style="fill:#2e7ebc;"/>
   </g>
   <g id="patch_40">
    <path clip-path="url(#p8eda664668)" d="M 328.505304 180.985285 
L 342.998811 180.985285 
L 342.998811 180.99567 
L 328.505304 180.99567 
z
" style="fill:#2e7ebc;"/>
   </g>
   <g id="patch_41">
    <path clip-path="url(#p8eda664668)" d="M 342.998811 180.985285 
L 357.492317 180.985285 
L 357.492317 222.528965 
L 342.998811 222.528965 
z
" style="fill:#2e7ebc;"/>
   </g>
   <g id="patch_42">
    <path clip-path="url(#p8eda664668)" d="M 357.492317 180.985285 
L 371.985824 180.985285 
L 371.985824 188.286541 
L 357.492317 188.286541 
z
" style="fill:#2e7ebc;"/>
   </g>
   <g id="patch_43">
    <path d="M 67.622187 343.34 
L 67.622187 10.7 
" style="fill:none;stroke:#000000;stroke-linecap:square;stroke-linejoin:miter;stroke-width:0.8;"/>
   </g>
   <g id="patch_44">
    <path d="M 386.47933 343.34 
L 386.47933 10.7 
" style="fill:none;stroke:#000000;stroke-linecap:square;stroke-linejoin:miter;stroke-width:0.8;"/>
   </g>
   <g id="patch_45">
    <path d="M 67.622187 343.34 
L 386.47933 343.34 
" style="fill:none;stroke:#000000;stroke-linecap:square;stroke-linejoin:miter;stroke-width:0.8;"/>
   </g>
   <g id="patch_46">
    <path d="M 67.622187 10.7 
L 386.47933 10.7 
" style="fill:none;stroke:#000000;stroke-linecap:square;stroke-linejoin:miter;stroke-width:0.8;"/>
   </g>
   <g id="patch_47">
    <path clip-path="url(#p8eda664668)" d="M 82.115694 180.985285 
L 96.6092 180.985285 
L 96.6092 180.985285 
L 82.115694 180.985285 
z
" style="fill:none;stroke:#000000;stroke-linejoin:miter;"/>
   </g>
   <g id="patch_48">
    <path clip-path="url(#p8eda664668)" d="M 96.6092 180.985285 
L 111.102707 180.985285 
L 111.102707 180.985285 
L 96.6092 180.985285 
z
" style="fill:none;stroke:#000000;stroke-linejoin:miter;"/>
   </g>
   <g id="patch_49">
    <path clip-path="url(#p8eda664668)" d="M 111.102707 180.985285 
L 125.596213 180.985285 
L 125.596213 180.985285 
L 111.102707 180.985285 
z
" style="fill:none;stroke:#000000;stroke-linejoin:miter;"/>
   </g>
   <g id="patch_50">
    <path clip-path="url(#p8eda664668)" d="M 125.596213 180.985285 
L 140.08972 180.985285 
L 140.08972 180.985285 
L 125.596213 180.985285 
z
" style="fill:none;stroke:#000000;stroke-linejoin:miter;"/>
   </g>
   <g id="patch_51">
    <path clip-path="url(#p8eda664668)" d="M 140.08972 180.985285 
L 154.583226 180.985285 
L 154.583226 180.985285 
L 140.08972 180.985285 
z
" style="fill:none;stroke:#000000;stroke-linejoin:miter;"/>
   </g>
   <g id="patch_52">
    <path clip-path="url(#p8eda664668)" d="M 154.583226 180.985285 
L 169.076733 180.985285 
L 169.076733 180.985285 
L 154.583226 180.985285 
z
" style="fill:none;stroke:#000000;stroke-linejoin:miter;"/>
   </g>
   <g id="patch_53">
    <path clip-path="url(#p8eda664668)" d="M 169.076733 180.985285 
L 183.570239 180.985285 
L 183.570239 180.985285 
L 169.076733 180.985285 
z
" style="fill:none;stroke:#000000;stroke-linejoin:miter;"/>
   </g>
   <g id="patch_54">
    <path clip-path="url(#p8eda664668)" d="M 183.570239 180.985285 
L 198.063746 180.985285 
L 198.063746 180.985285 
L 183.570239 180.985285 
z
" style="fill:none;stroke:#000000;stroke-linejoin:miter;"/>
   </g>
   <g id="patch_55">
    <path clip-path="url(#p8eda664668)" d="M 198.063746 180.985285 
L 212.557252 180.985285 
L 212.557252 180.985285 
L 198.063746 180.985285 
z
" style="fill:none;stroke:#000000;stroke-linejoin:miter;"/>
   </g>
   <g id="patch_56">
    <path clip-path="url(#p8eda664668)" d="M 212.557252 180.985285 
L 227.050759 180.985285 
L 227.050759 180.985285 
L 212.557252 180.985285 
z
" style="fill:none;stroke:#000000;stroke-linejoin:miter;"/>
   </g>
   <g id="patch_57">
    <path clip-path="url(#p8eda664668)" d="M 227.050759 180.985285 
L 241.544265 180.985285 
L 241.544265 180.985285 
L 227.050759 180.985285 
z
" style="fill:none;stroke:#000000;stroke-linejoin:miter;"/>
   </g>
   <g id="patch_58">
    <path clip-path="url(#p8eda664668)" d="M 241.544265 180.985285 
L 256.037772 180.985285 
L 256.037772 180.985285 
L 241.544265 180.985285 
z
" style="fill:none;stroke:#000000;stroke-linejoin:miter;"/>
   </g>
   <g id="patch_59">
    <path clip-path="url(#p8eda664668)" d="M 256.037772 180.985285 
L 270.531278 180.985285 
L 270.531278 180.985285 
L 256.037772 180.985285 
z
" style="fill:none;stroke:#000000;stroke-linejoin:miter;"/>
   </g>
   <g id="patch_60">
    <path clip-path="url(#p8eda664668)" d="M 270.531278 180.985285 
L 285.024785 180.985285 
L 285.024785 180.985285 
L 270.531278 180.985285 
z
" style="fill:none;stroke:#000000;stroke-linejoin:miter;"/>
   </g>
   <g id="patch_61">
    <path clip-path="url(#p8eda664668)" d="M 285.024785 180.985285 
L 299.518291 180.985285 
L 299.518291 180.985285 
L 285.024785 180.985285 
z
" style="fill:none;stroke:#000000;stroke-linejoin:miter;"/>
   </g>
   <g id="patch_62">
    <path clip-path="url(#p8eda664668)" d="M 299.518291 180.985285 
L 314.011798 180.985285 
L 314.011798 180.985285 
L 299.518291 180.985285 
z
" style="fill:none;stroke:#000000;stroke-linejoin:miter;"/>
   </g>
   <g id="patch_63">
    <path clip-path="url(#p8eda664668)" d="M 314.011798 180.985285 
L 328.505304 180.985285 
L 328.505304 180.985285 
L 314.011798 180.985285 
z
" style="fill:none;stroke:#000000;stroke-linejoin:miter;"/>
   </g>
   <g id="patch_64">
    <path clip-path="url(#p8eda664668)" d="M 328.505304 180.985285 
L 342.998811 180.985285 
L 342.998811 180.985285 
L 328.505304 180.985285 
z
" style="fill:none;stroke:#000000;stroke-linejoin:miter;"/>
   </g>
   <g id="patch_65">
    <path clip-path="url(#p8eda664668)" d="M 342.998811 180.985285 
L 357.492317 180.985285 
L 357.492317 180.985285 
L 342.998811 180.985285 
z
" style="fill:none;stroke:#000000;stroke-linejoin:miter;"/>
   </g>
   <g id="patch_66">
    <path clip-path="url(#p8eda664668)" d="M 357.492317 180.985285 
L 371.985824 180.985285 
L 371.985824 180.985285 
L 357.492317 180.985285 
z
" style="fill:none;stroke:#000000;stroke-linejoin:miter;"/>
   </g>
   <g id="patch_67">
    <path clip-path="url(#p8eda664668)" d="M 82.115694 180.985285 
L 96.6092 180.985285 
L 96.6092 180.985285 
L 82.115694 180.985285 
z
" style="fill:none;stroke:#000000;stroke-linejoin:miter;"/>
   </g>
   <g id="patch_68">
    <path clip-path="url(#p8eda664668)" d="M 96.6092 180.985285 
L 111.102707 180.985285 
L 111.102707 180.985285 
L 96.6092 180.985285 
z
" style="fill:none;stroke:#000000;stroke-linejoin:miter;"/>
   </g>
   <g id="patch_69">
    <path clip-path="url(#p8eda664668)" d="M 111.102707 180.985285 
L 125.596213 180.985285 
L 125.596213 180.985285 
L 111.102707 180.985285 
z
" style="fill:none;stroke:#000000;stroke-linejoin:miter;"/>
   </g>
   <g id="patch_70">
    <path clip-path="url(#p8eda664668)" d="M 125.596213 180.985285 
L 140.08972 180.985285 
L 140.08972 180.985285 
L 125.596213 180.985285 
z
" style="fill:none;stroke:#000000;stroke-linejoin:miter;"/>
   </g>
   <g id="patch_71">
    <path clip-path="url(#p8eda664668)" d="M 140.08972 180.985285 
L 154.583226 180.985285 
L 154.583226 180.985285 
L 140.08972 180.985285 
z
" style="fill:none;stroke:#000000;stroke-linejoin:miter;"/>
   </g>
   <g id="patch_72">
    <path clip-path="url(#p8eda664668)" d="M 154.583226 180.985285 
L 169.076733 180.985285 
L 169.076733 180.985285 
L 154.583226 180.985285 
z
" style="fill:none;stroke:#000000;stroke-linejoin:miter;"/>
   </g>
   <g id="patch_73">
    <path clip-path="url(#p8eda664668)" d="M 169.076733 180.985285 
L 183.570239 180.985285 
L 183.570239 180.985285 
L 169.076733 180.985285 
z
" style="fill:none;stroke:#000000;stroke-linejoin:miter;"/>
   </g>
   <g id="patch_74">
    <path clip-path="url(#p8eda664668)" d="M 183.570239 180.985285 
L 198.063746 180.985285 
L 198.063746 180.985285 
L 183.570239 180.985285 
z
" style="fill:none;stroke:#000000;stroke-linejoin:miter;"/>
   </g>
   <g id="patch_75">
    <path clip-path="url(#p8eda664668)" d="M 198.063746 180.985285 
L 212.557252 180.985285 
L 212.557252 180.985285 
L 198.063746 180.985285 
z
" style="fill:none;stroke:#000000;stroke-linejoin:miter;"/>
   </g>
   <g id="patch_76">
    <path clip-path="url(#p8eda664668)" d="M 212.557252 180.985285 
L 227.050759 180.985285 
L 227.050759 180.985285 
L 212.557252 180.985285 
z
" style="fill:none;stroke:#000000;stroke-linejoin:miter;"/>
   </g>
   <g id="patch_77">
    <path clip-path="url(#p8eda664668)" d="M 227.050759 180.985285 
L 241.544265 180.985285 
L 241.544265 180.985285 
L 227.050759 180.985285 
z
" style="fill:none;stroke:#000000;stroke-linejoin:miter;"/>
   </g>
   <g id="patch_78">
    <path clip-path="url(#p8eda664668)" d="M 241.544265 180.985285 
L 256.037772 180.985285 
L 256.037772 180.985285 
L 241.544265 180.985285 
z
" style="fill:none;stroke:#000000;stroke-linejoin:miter;"/>
   </g>
   <g id="patch_79">
    <path clip-path="url(#p8eda664668)" d="M 256.037772 180.985285 
L 270.531278 180.985285 
L 270.531278 180.985285 
L 256.037772 180.985285 
z
" style="fill:none;stroke:#000000;stroke-linejoin:miter;"/>
   </g>
   <g id="patch_80">
    <path clip-path="url(#p8eda664668)" d="M 270.531278 180.985285 
L 285.024785 180.985285 
L 285.024785 180.985285 
L 270.531278 180.985285 
z
" style="fill:none;stroke:#000000;stroke-linejoin:miter;"/>
   </g>
   <g id="patch_81">
    <path clip-path="url(#p8eda664668)" d="M 285.024785 180.985285 
L 299.518291 180.985285 
L 299.518291 180.985285 
L 285.024785 180.985285 
z
" style="fill:none;stroke:#000000;stroke-linejoin:miter;"/>
   </g>
   <g id="patch_82">
    <path clip-path="url(#p8eda664668)" d="M 299.518291 180.985285 
L 314.011798 180.985285 
L 314.011798 180.985285 
L 299.518291 180.985285 
z
" style="fill:none;stroke:#000000;stroke-linejoin:miter;"/>
   </g>
   <g id="patch_83">
    <path clip-path="url(#p8eda664668)" d="M 314.011798 180.985285 
L 328.505304 180.985285 
L 328.505304 180.985285 
L 314.011798 180.985285 
z
" style="fill:none;stroke:#000000;stroke-linejoin:miter;"/>
   </g>
   <g id="patch_84">
    <path clip-path="url(#p8eda664668)" d="M 328.505304 180.985285 
L 342.998811 180.985285 
L 342.998811 180.985285 
L 328.505304 180.985285 
z
" style="fill:none;stroke:#000000;stroke-linejoin:miter;"/>
   </g>
   <g id="patch_85">
    <path clip-path="url(#p8eda664668)" d="M 342.998811 180.985285 
L 357.492317 180.985285 
L 357.492317 180.985285 
L 342.998811 180.985285 
z
" style="fill:none;stroke:#000000;stroke-linejoin:miter;"/>
   </g>
   <g id="patch_86">
    <path clip-path="url(#p8eda664668)" d="M 357.492317 180.985285 
L 371.985824 180.985285 
L 371.985824 180.985285 
L 357.492317 180.985285 
z
" style="fill:none;stroke:#000000;stroke-linejoin:miter;"/>
   </g>
  </g>
 </g>
 <defs>
  <clipPath id="p8eda664668">
   <rect height="332.64" width="318.857143" x="67.622187" y="10.7"/>
  </clipPath>
 </defs>
</svg>
