<?xml version="1.0" encoding="utf-8" standalone="no"?>
<!DOCTYPE svg PUBLIC "-//W3C//DTD SVG 1.1//EN"
  "http://www.w3.org/Graphics/SVG/1.1/DTD/svg11.dtd">
<!-- Created with matplotlib (http://matplotlib.org/) -->
<svg height="354pt" version="1.1" viewBox="0 0 425 354" width="425pt" xmlns="http://www.w3.org/2000/svg" xmlns:xlink="http://www.w3.org/1999/xlink">
 <defs>
  <style type="text/css">
*{stroke-linecap:butt;stroke-linejoin:round;}
  </style>
 </defs>
 <g id="figure_1">
  <g id="patch_1">
   <path d="M 0 354.04 
L 425.17433 354.04 
L 425.17433 0 
L 0 0 
z
" style="fill:#ffffff;"/>
  </g>
  <g id="axes_1">
   <g id="patch_2">
    <path d="M 95.617188 343.34 
L 414.47433 343.34 
L 414.47433 10.7 
L 95.617188 10.7 
z
" style="fill:#ffffff;"/>
   </g>
   <g id="matplotlib.axis_1"/>
   <g id="matplotlib.axis_2">
    <g id="ytick_1">
     <g id="line2d_1">
      <defs>
       <path d="M 0 0 
L -3.5 0 
" id="mc390229682" style="stroke:#000000;stroke-width:0.8;"/>
      </defs>
      <g>
       <use style="stroke:#000000;stroke-width:0.8;" x="95.617188" xlink:href="#mc390229682" y="291.337412"/>
      </g>
     </g>
     <g id="text_1">
      <!-- −0.002 -->
      <defs>
       <path d="M 10.59375 35.5 
L 73.1875 35.5 
L 73.1875 27.203125 
L 10.59375 27.203125 
z
" id="DejaVuSans-2212"/>
       <path d="M 31.78125 66.40625 
Q 24.171875 66.40625 20.328125 58.90625 
Q 16.5 51.421875 16.5 36.375 
Q 16.5 21.390625 20.328125 13.890625 
Q 24.171875 6.390625 31.78125 6.390625 
Q 39.453125 6.390625 43.28125 13.890625 
Q 47.125 21.390625 47.125 36.375 
Q 47.125 51.421875 43.28125 58.90625 
Q 39.453125 66.40625 31.78125 66.40625 
z
M 31.78125 74.21875 
Q 44.046875 74.21875 50.515625 64.515625 
Q 56.984375 54.828125 56.984375 36.375 
Q 56.984375 17.96875 50.515625 8.265625 
Q 44.046875 -1.421875 31.78125 -1.421875 
Q 19.53125 -1.421875 13.0625 8.265625 
Q 6.59375 17.96875 6.59375 36.375 
Q 6.59375 54.828125 13.0625 64.515625 
Q 19.53125 74.21875 31.78125 74.21875 
z
" id="DejaVuSans-30"/>
       <path d="M 10.6875 12.40625 
L 21 12.40625 
L 21 0 
L 10.6875 0 
z
" id="DejaVuSans-2e"/>
       <path d="M 19.1875 8.296875 
L 53.609375 8.296875 
L 53.609375 0 
L 7.328125 0 
L 7.328125 8.296875 
Q 12.9375 14.109375 22.625 23.890625 
Q 32.328125 33.6875 34.8125 36.53125 
Q 39.546875 41.84375 41.421875 45.53125 
Q 43.3125 49.21875 43.3125 52.78125 
Q 43.3125 58.59375 39.234375 62.25 
Q 35.15625 65.921875 28.609375 65.921875 
Q 23.96875 65.921875 18.8125 64.3125 
Q 13.671875 62.703125 7.8125 59.421875 
L 7.8125 69.390625 
Q 13.765625 71.78125 18.9375 73 
Q 24.125 74.21875 28.421875 74.21875 
Q 39.75 74.21875 46.484375 68.546875 
Q 53.21875 62.890625 53.21875 53.421875 
Q 53.21875 48.921875 51.53125 44.890625 
Q 49.859375 40.875 45.40625 35.40625 
Q 44.1875 33.984375 37.640625 27.21875 
Q 31.109375 20.453125 19.1875 8.296875 
z
" id="DejaVuSans-32"/>
      </defs>
      <g transform="translate(7.2 299.695694)scale(0.22 -0.22)">
       <use xlink:href="#DejaVuSans-2212"/>
       <use x="83.789062" xlink:href="#DejaVuSans-30"/>
       <use x="147.412109" xlink:href="#DejaVuSans-2e"/>
       <use x="179.199219" xlink:href="#DejaVuSans-30"/>
       <use x="242.822266" xlink:href="#DejaVuSans-30"/>
       <use x="306.445312" xlink:href="#DejaVuSans-32"/>
      </g>
     </g>
    </g>
    <g id="ytick_2">
     <g id="line2d_2">
      <g>
       <use style="stroke:#000000;stroke-width:0.8;" x="95.617188" xlink:href="#mc390229682" y="225.317262"/>
      </g>
     </g>
     <g id="text_2">
      <!-- −0.001 -->
      <defs>
       <path d="M 12.40625 8.296875 
L 28.515625 8.296875 
L 28.515625 63.921875 
L 10.984375 60.40625 
L 10.984375 69.390625 
L 28.421875 72.90625 
L 38.28125 72.90625 
L 38.28125 8.296875 
L 54.390625 8.296875 
L 54.390625 0 
L 12.40625 0 
z
" id="DejaVuSans-31"/>
      </defs>
      <g transform="translate(7.2 233.675544)scale(0.22 -0.22)">
       <use xlink:href="#DejaVuSans-2212"/>
       <use x="83.789062" xlink:href="#DejaVuSans-30"/>
       <use x="147.412109" xlink:href="#DejaVuSans-2e"/>
       <use x="179.199219" xlink:href="#DejaVuSans-30"/>
       <use x="242.822266" xlink:href="#DejaVuSans-30"/>
       <use x="306.445312" xlink:href="#DejaVuSans-31"/>
      </g>
     </g>
    </g>
    <g id="ytick_3">
     <g id="line2d_3">
      <g>
       <use style="stroke:#000000;stroke-width:0.8;" x="95.617188" xlink:href="#mc390229682" y="159.297113"/>
      </g>
     </g>
     <g id="text_3">
      <!-- 0.000 -->
      <g transform="translate(25.635312 167.655394)scale(0.22 -0.22)">
       <use xlink:href="#DejaVuSans-30"/>
       <use x="63.623047" xlink:href="#DejaVuSans-2e"/>
       <use x="95.410156" xlink:href="#DejaVuSans-30"/>
       <use x="159.033203" xlink:href="#DejaVuSans-30"/>
       <use x="222.65625" xlink:href="#DejaVuSans-30"/>
      </g>
     </g>
    </g>
    <g id="ytick_4">
     <g id="line2d_4">
      <g>
       <use style="stroke:#000000;stroke-width:0.8;" x="95.617188" xlink:href="#mc390229682" y="93.276963"/>
      </g>
     </g>
     <g id="text_4">
      <!-- 0.001 -->
      <g transform="translate(25.635312 101.635244)scale(0.22 -0.22)">
       <use xlink:href="#DejaVuSans-30"/>
       <use x="63.623047" xlink:href="#DejaVuSans-2e"/>
       <use x="95.410156" xlink:href="#DejaVuSans-30"/>
       <use x="159.033203" xlink:href="#DejaVuSans-30"/>
       <use x="222.65625" xlink:href="#DejaVuSans-31"/>
      </g>
     </g>
    </g>
    <g id="ytick_5">
     <g id="line2d_5">
      <g>
       <use style="stroke:#000000;stroke-width:0.8;" x="95.617188" xlink:href="#mc390229682" y="27.256813"/>
      </g>
     </g>
     <g id="text_5">
      <!-- 0.002 -->
      <g transform="translate(25.635312 35.615094)scale(0.22 -0.22)">
       <use xlink:href="#DejaVuSans-30"/>
       <use x="63.623047" xlink:href="#DejaVuSans-2e"/>
       <use x="95.410156" xlink:href="#DejaVuSans-30"/>
       <use x="159.033203" xlink:href="#DejaVuSans-30"/>
       <use x="222.65625" xlink:href="#DejaVuSans-32"/>
      </g>
     </g>
    </g>
   </g>
   <g id="patch_3">
    <path clip-path="url(#p9e32a09842)" d="M 110.110694 159.297113 
L 124.6042 159.297113 
L 124.6042 152.478055 
L 110.110694 152.478055 
z
" style="fill:#d92523;"/>
   </g>
   <g id="patch_4">
    <path clip-path="url(#p9e32a09842)" d="M 124.6042 159.297113 
L 139.097707 159.297113 
L 139.097707 168.938341 
L 124.6042 168.938341 
z
" style="fill:#d92523;"/>
   </g>
   <g id="patch_5">
    <path clip-path="url(#p9e32a09842)" d="M 139.097707 159.297113 
L 153.591213 159.297113 
L 153.591213 25.82 
L 139.097707 25.82 
z
" style="fill:#d92523;"/>
   </g>
   <g id="patch_6">
    <path clip-path="url(#p9e32a09842)" d="M 153.591213 159.297113 
L 168.08472 159.297113 
L 168.08472 140.203572 
L 153.591213 140.203572 
z
" style="fill:#d92523;"/>
   </g>
   <g id="patch_7">
    <path clip-path="url(#p9e32a09842)" d="M 168.08472 159.297113 
L 182.578226 159.297113 
L 182.578226 41.991265 
L 168.08472 41.991265 
z
" style="fill:#d92523;"/>
   </g>
   <g id="patch_8">
    <path clip-path="url(#p9e32a09842)" d="M 182.578226 159.297113 
L 197.071733 159.297113 
L 197.071733 97.814792 
L 182.578226 97.814792 
z
" style="fill:#d92523;"/>
   </g>
   <g id="patch_9">
    <path clip-path="url(#p9e32a09842)" d="M 197.071733 159.297113 
L 211.565239 159.297113 
L 211.565239 215.718381 
L 197.071733 215.718381 
z
" style="fill:#d92523;"/>
   </g>
   <g id="patch_10">
    <path clip-path="url(#p9e32a09842)" d="M 211.565239 159.297113 
L 226.058746 159.297113 
L 226.058746 130.498188 
L 211.565239 130.498188 
z
" style="fill:#d92523;"/>
   </g>
   <g id="patch_11">
    <path clip-path="url(#p9e32a09842)" d="M 226.058746 159.297113 
L 240.552252 159.297113 
L 240.552252 163.526439 
L 226.058746 163.526439 
z
" style="fill:#d92523;"/>
   </g>
   <g id="patch_12">
    <path clip-path="url(#p9e32a09842)" d="M 240.552252 159.297113 
L 255.045759 159.297113 
L 255.045759 153.356001 
L 240.552252 153.356001 
z
" style="fill:#d92523;"/>
   </g>
   <g id="patch_13">
    <path clip-path="url(#p9e32a09842)" d="M 255.045759 159.297113 
L 269.539265 159.297113 
L 269.539265 156.443344 
L 255.045759 156.443344 
z
" style="fill:#d92523;"/>
   </g>
   <g id="patch_14">
    <path clip-path="url(#p9e32a09842)" d="M 269.539265 159.297113 
L 284.032772 159.297113 
L 284.032772 126.805573 
L 269.539265 126.805573 
z
" style="fill:#d92523;"/>
   </g>
   <g id="patch_15">
    <path clip-path="url(#p9e32a09842)" d="M 284.032772 159.297113 
L 298.526278 159.297113 
L 298.526278 133.169894 
L 284.032772 133.169894 
z
" style="fill:#d92523;"/>
   </g>
   <g id="patch_16">
    <path clip-path="url(#p9e32a09842)" d="M 298.526278 159.297113 
L 313.019785 159.297113 
L 313.019785 144.748676 
L 298.526278 144.748676 
z
" style="fill:#d92523;"/>
   </g>
   <g id="patch_17">
    <path clip-path="url(#p9e32a09842)" d="M 313.019785 159.297113 
L 327.513291 159.297113 
L 327.513291 173.804776 
L 313.019785 173.804776 
z
" style="fill:#d92523;"/>
   </g>
   <g id="patch_18">
    <path clip-path="url(#p9e32a09842)" d="M 327.513291 159.297113 
L 342.006798 159.297113 
L 342.006798 153.612576 
L 327.513291 153.612576 
z
" style="fill:#d92523;"/>
   </g>
   <g id="patch_19">
    <path clip-path="url(#p9e32a09842)" d="M 342.006798 159.297113 
L 356.500304 159.297113 
L 356.500304 147.163277 
L 342.006798 147.163277 
z
" style="fill:#d92523;"/>
   </g>
   <g id="patch_20">
    <path clip-path="url(#p9e32a09842)" d="M 356.500304 159.297113 
L 370.993811 159.297113 
L 370.993811 152.957098 
L 356.500304 152.957098 
z
" style="fill:#d92523;"/>
   </g>
   <g id="patch_21">
    <path clip-path="url(#p9e32a09842)" d="M 370.993811 159.297113 
L 385.487317 159.297113 
L 385.487317 162.363682 
L 370.993811 162.363682 
z
" style="fill:#d92523;"/>
   </g>
   <g id="patch_22">
    <path clip-path="url(#p9e32a09842)" d="M 385.487317 159.297113 
L 399.980824 159.297113 
L 399.980824 154.00126 
L 385.487317 154.00126 
z
" style="fill:#d92523;"/>
   </g>
   <g id="patch_23">
    <path clip-path="url(#p9e32a09842)" d="M 110.110694 159.297113 
L 124.6042 159.297113 
L 124.6042 157.473282 
L 110.110694 157.473282 
z
" style="fill:#2e7ebc;"/>
   </g>
   <g id="patch_24">
    <path clip-path="url(#p9e32a09842)" d="M 124.6042 159.297113 
L 139.097707 159.297113 
L 139.097707 156.659686 
L 124.6042 156.659686 
z
" style="fill:#2e7ebc;"/>
   </g>
   <g id="patch_25">
    <path clip-path="url(#p9e32a09842)" d="M 139.097707 159.297113 
L 153.591213 159.297113 
L 153.591213 328.22 
L 139.097707 328.22 
z
" style="fill:#2e7ebc;"/>
   </g>
   <g id="patch_26">
    <path clip-path="url(#p9e32a09842)" d="M 153.591213 159.297113 
L 168.08472 159.297113 
L 168.08472 158.655316 
L 153.591213 158.655316 
z
" style="fill:#2e7ebc;"/>
   </g>
   <g id="patch_27">
    <path clip-path="url(#p9e32a09842)" d="M 168.08472 159.297113 
L 182.578226 159.297113 
L 182.578226 306.21899 
L 168.08472 306.21899 
z
" style="fill:#2e7ebc;"/>
   </g>
   <g id="patch_28">
    <path clip-path="url(#p9e32a09842)" d="M 182.578226 159.297113 
L 197.071733 159.297113 
L 197.071733 230.232639 
L 182.578226 230.232639 
z
" style="fill:#2e7ebc;"/>
   </g>
   <g id="patch_29">
    <path clip-path="url(#p9e32a09842)" d="M 197.071733 159.297113 
L 211.565239 159.297113 
L 211.565239 63.124731 
L 197.071733 63.124731 
z
" style="fill:#2e7ebc;"/>
   </g>
   <g id="patch_30">
    <path clip-path="url(#p9e32a09842)" d="M 211.565239 159.297113 
L 226.058746 159.297113 
L 226.058746 166.518133 
L 211.565239 166.518133 
z
" style="fill:#2e7ebc;"/>
   </g>
   <g id="patch_31">
    <path clip-path="url(#p9e32a09842)" d="M 226.058746 159.297113 
L 240.552252 159.297113 
L 240.552252 159.110828 
L 226.058746 159.110828 
z
" style="fill:#2e7ebc;"/>
   </g>
   <g id="patch_32">
    <path clip-path="url(#p9e32a09842)" d="M 240.552252 159.297113 
L 255.045759 159.297113 
L 255.045759 220.8574 
L 240.552252 220.8574 
z
" style="fill:#2e7ebc;"/>
   </g>
   <g id="patch_33">
    <path clip-path="url(#p9e32a09842)" d="M 255.045759 159.297113 
L 269.539265 159.297113 
L 269.539265 166.766735 
L 255.045759 166.766735 
z
" style="fill:#2e7ebc;"/>
   </g>
   <g id="patch_34">
    <path clip-path="url(#p9e32a09842)" d="M 269.539265 159.297113 
L 284.032772 159.297113 
L 284.032772 207.147945 
L 269.539265 207.147945 
z
" style="fill:#2e7ebc;"/>
   </g>
   <g id="patch_35">
    <path clip-path="url(#p9e32a09842)" d="M 284.032772 159.297113 
L 298.526278 159.297113 
L 298.526278 242.3866 
L 284.032772 242.3866 
z
" style="fill:#2e7ebc;"/>
   </g>
   <g id="patch_36">
    <path clip-path="url(#p9e32a09842)" d="M 298.526278 159.297113 
L 313.019785 159.297113 
L 313.019785 192.731097 
L 298.526278 192.731097 
z
" style="fill:#2e7ebc;"/>
   </g>
   <g id="patch_37">
    <path clip-path="url(#p9e32a09842)" d="M 313.019785 159.297113 
L 327.513291 159.297113 
L 327.513291 158.998483 
L 313.019785 158.998483 
z
" style="fill:#2e7ebc;"/>
   </g>
   <g id="patch_38">
    <path clip-path="url(#p9e32a09842)" d="M 327.513291 159.297113 
L 342.006798 159.297113 
L 342.006798 160.904821 
L 327.513291 160.904821 
z
" style="fill:#2e7ebc;"/>
   </g>
   <g id="patch_39">
    <path clip-path="url(#p9e32a09842)" d="M 342.006798 159.297113 
L 356.500304 159.297113 
L 356.500304 202.247034 
L 342.006798 202.247034 
z
" style="fill:#2e7ebc;"/>
   </g>
   <g id="patch_40">
    <path clip-path="url(#p9e32a09842)" d="M 356.500304 159.297113 
L 370.993811 159.297113 
L 370.993811 192.508021 
L 356.500304 192.508021 
z
" style="fill:#2e7ebc;"/>
   </g>
   <g id="patch_41">
    <path clip-path="url(#p9e32a09842)" d="M 370.993811 159.297113 
L 385.487317 159.297113 
L 385.487317 148.857358 
L 370.993811 148.857358 
z
" style="fill:#2e7ebc;"/>
   </g>
   <g id="patch_42">
    <path clip-path="url(#p9e32a09842)" d="M 385.487317 159.297113 
L 399.980824 159.297113 
L 399.980824 159.51309 
L 385.487317 159.51309 
z
" style="fill:#2e7ebc;"/>
   </g>
   <g id="patch_43">
    <path d="M 95.617188 343.34 
L 95.617188 10.7 
" style="fill:none;stroke:#000000;stroke-linecap:square;stroke-linejoin:miter;stroke-width:0.8;"/>
   </g>
   <g id="patch_44">
    <path d="M 414.47433 343.34 
L 414.47433 10.7 
" style="fill:none;stroke:#000000;stroke-linecap:square;stroke-linejoin:miter;stroke-width:0.8;"/>
   </g>
   <g id="patch_45">
    <path d="M 95.617188 343.34 
L 414.47433 343.34 
" style="fill:none;stroke:#000000;stroke-linecap:square;stroke-linejoin:miter;stroke-width:0.8;"/>
   </g>
   <g id="patch_46">
    <path d="M 95.617188 10.7 
L 414.47433 10.7 
" style="fill:none;stroke:#000000;stroke-linecap:square;stroke-linejoin:miter;stroke-width:0.8;"/>
   </g>
   <g id="patch_47">
    <path clip-path="url(#p9e32a09842)" d="M 110.110694 159.297113 
L 124.6042 159.297113 
L 124.6042 159.297113 
L 110.110694 159.297113 
z
" style="fill:none;stroke:#000000;stroke-linejoin:miter;"/>
   </g>
   <g id="patch_48">
    <path clip-path="url(#p9e32a09842)" d="M 124.6042 159.297113 
L 139.097707 159.297113 
L 139.097707 159.297113 
L 124.6042 159.297113 
z
" style="fill:none;stroke:#000000;stroke-linejoin:miter;"/>
   </g>
   <g id="patch_49">
    <path clip-path="url(#p9e32a09842)" d="M 139.097707 159.297113 
L 153.591213 159.297113 
L 153.591213 159.297113 
L 139.097707 159.297113 
z
" style="fill:none;stroke:#000000;stroke-linejoin:miter;"/>
   </g>
   <g id="patch_50">
    <path clip-path="url(#p9e32a09842)" d="M 153.591213 159.297113 
L 168.08472 159.297113 
L 168.08472 159.297113 
L 153.591213 159.297113 
z
" style="fill:none;stroke:#000000;stroke-linejoin:miter;"/>
   </g>
   <g id="patch_51">
    <path clip-path="url(#p9e32a09842)" d="M 168.08472 159.297113 
L 182.578226 159.297113 
L 182.578226 159.297113 
L 168.08472 159.297113 
z
" style="fill:none;stroke:#000000;stroke-linejoin:miter;"/>
   </g>
   <g id="patch_52">
    <path clip-path="url(#p9e32a09842)" d="M 182.578226 159.297113 
L 197.071733 159.297113 
L 197.071733 159.297113 
L 182.578226 159.297113 
z
" style="fill:none;stroke:#000000;stroke-linejoin:miter;"/>
   </g>
   <g id="patch_53">
    <path clip-path="url(#p9e32a09842)" d="M 197.071733 159.297113 
L 211.565239 159.297113 
L 211.565239 159.297113 
L 197.071733 159.297113 
z
" style="fill:none;stroke:#000000;stroke-linejoin:miter;"/>
   </g>
   <g id="patch_54">
    <path clip-path="url(#p9e32a09842)" d="M 211.565239 159.297113 
L 226.058746 159.297113 
L 226.058746 159.297113 
L 211.565239 159.297113 
z
" style="fill:none;stroke:#000000;stroke-linejoin:miter;"/>
   </g>
   <g id="patch_55">
    <path clip-path="url(#p9e32a09842)" d="M 226.058746 159.297113 
L 240.552252 159.297113 
L 240.552252 159.297113 
L 226.058746 159.297113 
z
" style="fill:none;stroke:#000000;stroke-linejoin:miter;"/>
   </g>
   <g id="patch_56">
    <path clip-path="url(#p9e32a09842)" d="M 240.552252 159.297113 
L 255.045759 159.297113 
L 255.045759 159.297113 
L 240.552252 159.297113 
z
" style="fill:none;stroke:#000000;stroke-linejoin:miter;"/>
   </g>
   <g id="patch_57">
    <path clip-path="url(#p9e32a09842)" d="M 255.045759 159.297113 
L 269.539265 159.297113 
L 269.539265 159.297113 
L 255.045759 159.297113 
z
" style="fill:none;stroke:#000000;stroke-linejoin:miter;"/>
   </g>
   <g id="patch_58">
    <path clip-path="url(#p9e32a09842)" d="M 269.539265 159.297113 
L 284.032772 159.297113 
L 284.032772 159.297113 
L 269.539265 159.297113 
z
" style="fill:none;stroke:#000000;stroke-linejoin:miter;"/>
   </g>
   <g id="patch_59">
    <path clip-path="url(#p9e32a09842)" d="M 284.032772 159.297113 
L 298.526278 159.297113 
L 298.526278 159.297113 
L 284.032772 159.297113 
z
" style="fill:none;stroke:#000000;stroke-linejoin:miter;"/>
   </g>
   <g id="patch_60">
    <path clip-path="url(#p9e32a09842)" d="M 298.526278 159.297113 
L 313.019785 159.297113 
L 313.019785 159.297113 
L 298.526278 159.297113 
z
" style="fill:none;stroke:#000000;stroke-linejoin:miter;"/>
   </g>
   <g id="patch_61">
    <path clip-path="url(#p9e32a09842)" d="M 313.019785 159.297113 
L 327.513291 159.297113 
L 327.513291 159.297113 
L 313.019785 159.297113 
z
" style="fill:none;stroke:#000000;stroke-linejoin:miter;"/>
   </g>
   <g id="patch_62">
    <path clip-path="url(#p9e32a09842)" d="M 327.513291 159.297113 
L 342.006798 159.297113 
L 342.006798 159.297113 
L 327.513291 159.297113 
z
" style="fill:none;stroke:#000000;stroke-linejoin:miter;"/>
   </g>
   <g id="patch_63">
    <path clip-path="url(#p9e32a09842)" d="M 342.006798 159.297113 
L 356.500304 159.297113 
L 356.500304 159.297113 
L 342.006798 159.297113 
z
" style="fill:none;stroke:#000000;stroke-linejoin:miter;"/>
   </g>
   <g id="patch_64">
    <path clip-path="url(#p9e32a09842)" d="M 356.500304 159.297113 
L 370.993811 159.297113 
L 370.993811 159.297113 
L 356.500304 159.297113 
z
" style="fill:none;stroke:#000000;stroke-linejoin:miter;"/>
   </g>
   <g id="patch_65">
    <path clip-path="url(#p9e32a09842)" d="M 370.993811 159.297113 
L 385.487317 159.297113 
L 385.487317 159.297113 
L 370.993811 159.297113 
z
" style="fill:none;stroke:#000000;stroke-linejoin:miter;"/>
   </g>
   <g id="patch_66">
    <path clip-path="url(#p9e32a09842)" d="M 385.487317 159.297113 
L 399.980824 159.297113 
L 399.980824 159.297113 
L 385.487317 159.297113 
z
" style="fill:none;stroke:#000000;stroke-linejoin:miter;"/>
   </g>
   <g id="patch_67">
    <path clip-path="url(#p9e32a09842)" d="M 110.110694 159.297113 
L 124.6042 159.297113 
L 124.6042 159.297113 
L 110.110694 159.297113 
z
" style="fill:none;stroke:#000000;stroke-linejoin:miter;"/>
   </g>
   <g id="patch_68">
    <path clip-path="url(#p9e32a09842)" d="M 124.6042 159.297113 
L 139.097707 159.297113 
L 139.097707 159.297113 
L 124.6042 159.297113 
z
" style="fill:none;stroke:#000000;stroke-linejoin:miter;"/>
   </g>
   <g id="patch_69">
    <path clip-path="url(#p9e32a09842)" d="M 139.097707 159.297113 
L 153.591213 159.297113 
L 153.591213 159.297113 
L 139.097707 159.297113 
z
" style="fill:none;stroke:#000000;stroke-linejoin:miter;"/>
   </g>
   <g id="patch_70">
    <path clip-path="url(#p9e32a09842)" d="M 153.591213 159.297113 
L 168.08472 159.297113 
L 168.08472 159.297113 
L 153.591213 159.297113 
z
" style="fill:none;stroke:#000000;stroke-linejoin:miter;"/>
   </g>
   <g id="patch_71">
    <path clip-path="url(#p9e32a09842)" d="M 168.08472 159.297113 
L 182.578226 159.297113 
L 182.578226 159.297113 
L 168.08472 159.297113 
z
" style="fill:none;stroke:#000000;stroke-linejoin:miter;"/>
   </g>
   <g id="patch_72">
    <path clip-path="url(#p9e32a09842)" d="M 182.578226 159.297113 
L 197.071733 159.297113 
L 197.071733 159.297113 
L 182.578226 159.297113 
z
" style="fill:none;stroke:#000000;stroke-linejoin:miter;"/>
   </g>
   <g id="patch_73">
    <path clip-path="url(#p9e32a09842)" d="M 197.071733 159.297113 
L 211.565239 159.297113 
L 211.565239 159.297113 
L 197.071733 159.297113 
z
" style="fill:none;stroke:#000000;stroke-linejoin:miter;"/>
   </g>
   <g id="patch_74">
    <path clip-path="url(#p9e32a09842)" d="M 211.565239 159.297113 
L 226.058746 159.297113 
L 226.058746 159.297113 
L 211.565239 159.297113 
z
" style="fill:none;stroke:#000000;stroke-linejoin:miter;"/>
   </g>
   <g id="patch_75">
    <path clip-path="url(#p9e32a09842)" d="M 226.058746 159.297113 
L 240.552252 159.297113 
L 240.552252 159.297113 
L 226.058746 159.297113 
z
" style="fill:none;stroke:#000000;stroke-linejoin:miter;"/>
   </g>
   <g id="patch_76">
    <path clip-path="url(#p9e32a09842)" d="M 240.552252 159.297113 
L 255.045759 159.297113 
L 255.045759 159.297113 
L 240.552252 159.297113 
z
" style="fill:none;stroke:#000000;stroke-linejoin:miter;"/>
   </g>
   <g id="patch_77">
    <path clip-path="url(#p9e32a09842)" d="M 255.045759 159.297113 
L 269.539265 159.297113 
L 269.539265 159.297113 
L 255.045759 159.297113 
z
" style="fill:none;stroke:#000000;stroke-linejoin:miter;"/>
   </g>
   <g id="patch_78">
    <path clip-path="url(#p9e32a09842)" d="M 269.539265 159.297113 
L 284.032772 159.297113 
L 284.032772 159.297113 
L 269.539265 159.297113 
z
" style="fill:none;stroke:#000000;stroke-linejoin:miter;"/>
   </g>
   <g id="patch_79">
    <path clip-path="url(#p9e32a09842)" d="M 284.032772 159.297113 
L 298.526278 159.297113 
L 298.526278 159.297113 
L 284.032772 159.297113 
z
" style="fill:none;stroke:#000000;stroke-linejoin:miter;"/>
   </g>
   <g id="patch_80">
    <path clip-path="url(#p9e32a09842)" d="M 298.526278 159.297113 
L 313.019785 159.297113 
L 313.019785 159.297113 
L 298.526278 159.297113 
z
" style="fill:none;stroke:#000000;stroke-linejoin:miter;"/>
   </g>
   <g id="patch_81">
    <path clip-path="url(#p9e32a09842)" d="M 313.019785 159.297113 
L 327.513291 159.297113 
L 327.513291 159.297113 
L 313.019785 159.297113 
z
" style="fill:none;stroke:#000000;stroke-linejoin:miter;"/>
   </g>
   <g id="patch_82">
    <path clip-path="url(#p9e32a09842)" d="M 327.513291 159.297113 
L 342.006798 159.297113 
L 342.006798 159.297113 
L 327.513291 159.297113 
z
" style="fill:none;stroke:#000000;stroke-linejoin:miter;"/>
   </g>
   <g id="patch_83">
    <path clip-path="url(#p9e32a09842)" d="M 342.006798 159.297113 
L 356.500304 159.297113 
L 356.500304 159.297113 
L 342.006798 159.297113 
z
" style="fill:none;stroke:#000000;stroke-linejoin:miter;"/>
   </g>
   <g id="patch_84">
    <path clip-path="url(#p9e32a09842)" d="M 356.500304 159.297113 
L 370.993811 159.297113 
L 370.993811 159.297113 
L 356.500304 159.297113 
z
" style="fill:none;stroke:#000000;stroke-linejoin:miter;"/>
   </g>
   <g id="patch_85">
    <path clip-path="url(#p9e32a09842)" d="M 370.993811 159.297113 
L 385.487317 159.297113 
L 385.487317 159.297113 
L 370.993811 159.297113 
z
" style="fill:none;stroke:#000000;stroke-linejoin:miter;"/>
   </g>
   <g id="patch_86">
    <path clip-path="url(#p9e32a09842)" d="M 385.487317 159.297113 
L 399.980824 159.297113 
L 399.980824 159.297113 
L 385.487317 159.297113 
z
" style="fill:none;stroke:#000000;stroke-linejoin:miter;"/>
   </g>
  </g>
 </g>
 <defs>
  <clipPath id="p9e32a09842">
   <rect height="332.64" width="318.857143" x="95.617188" y="10.7"/>
  </clipPath>
 </defs>
</svg>
