<?xml version="1.0" encoding="utf-8" standalone="no"?>
<!DOCTYPE svg PUBLIC "-//W3C//DTD SVG 1.1//EN"
  "http://www.w3.org/Graphics/SVG/1.1/DTD/svg11.dtd">
<!-- Created with matplotlib (http://matplotlib.org/) -->
<svg height="356pt" version="1.1" viewBox="0 0 411 356" width="411pt" xmlns="http://www.w3.org/2000/svg" xmlns:xlink="http://www.w3.org/1999/xlink">
 <defs>
  <style type="text/css">
*{stroke-linecap:butt;stroke-linejoin:round;}
  </style>
 </defs>
 <g id="figure_1">
  <g id="patch_1">
   <path d="M -0 356.442404 
L 411.17683 356.442404 
L 411.17683 0 
L -0 0 
z
" style="fill:#ffffff;"/>
  </g>
  <g id="axes_1">
   <g id="patch_2">
    <path d="M 81.619687 343.34 
L 400.47683 343.34 
L 400.47683 10.7 
L 81.619687 10.7 
z
" style="fill:#ffffff;"/>
   </g>
   <g id="matplotlib.axis_1"/>
   <g id="matplotlib.axis_2">
    <g id="ytick_1">
     <g id="line2d_1">
      <defs>
       <path d="M 0 0 
L -3.5 0 
" id="mc6c65d37e6" style="stroke:#000000;stroke-width:0.8;"/>
      </defs>
      <g>
       <use style="stroke:#000000;stroke-width:0.8;" x="81.619687" xlink:href="#mc6c65d37e6" y="336.30881"/>
      </g>
     </g>
     <g id="text_1">
      <!-- −0.20 -->
      <defs>
       <path d="M 10.59375 35.5 
L 73.1875 35.5 
L 73.1875 27.203125 
L 10.59375 27.203125 
z
" id="DejaVuSans-2212"/>
       <path d="M 31.78125 66.40625 
Q 24.171875 66.40625 20.328125 58.90625 
Q 16.5 51.421875 16.5 36.375 
Q 16.5 21.390625 20.328125 13.890625 
Q 24.171875 6.390625 31.78125 6.390625 
Q 39.453125 6.390625 43.28125 13.890625 
Q 47.125 21.390625 47.125 36.375 
Q 47.125 51.421875 43.28125 58.90625 
Q 39.453125 66.40625 31.78125 66.40625 
z
M 31.78125 74.21875 
Q 44.046875 74.21875 50.515625 64.515625 
Q 56.984375 54.828125 56.984375 36.375 
Q 56.984375 17.96875 50.515625 8.265625 
Q 44.046875 -1.421875 31.78125 -1.421875 
Q 19.53125 -1.421875 13.0625 8.265625 
Q 6.59375 17.96875 6.59375 36.375 
Q 6.59375 54.828125 13.0625 64.515625 
Q 19.53125 74.21875 31.78125 74.21875 
z
" id="DejaVuSans-30"/>
       <path d="M 10.6875 12.40625 
L 21 12.40625 
L 21 0 
L 10.6875 0 
z
" id="DejaVuSans-2e"/>
       <path d="M 19.1875 8.296875 
L 53.609375 8.296875 
L 53.609375 0 
L 7.328125 0 
L 7.328125 8.296875 
Q 12.9375 14.109375 22.625 23.890625 
Q 32.328125 33.6875 34.8125 36.53125 
Q 39.546875 41.84375 41.421875 45.53125 
Q 43.3125 49.21875 43.3125 52.78125 
Q 43.3125 58.59375 39.234375 62.25 
Q 35.15625 65.921875 28.609375 65.921875 
Q 23.96875 65.921875 18.8125 64.3125 
Q 13.671875 62.703125 7.8125 59.421875 
L 7.8125 69.390625 
Q 13.765625 71.78125 18.9375 73 
Q 24.125 74.21875 28.421875 74.21875 
Q 39.75 74.21875 46.484375 68.546875 
Q 53.21875 62.890625 53.21875 53.421875 
Q 53.21875 48.921875 51.53125 44.890625 
Q 49.859375 40.875 45.40625 35.40625 
Q 44.1875 33.984375 37.640625 27.21875 
Q 31.109375 20.453125 19.1875 8.296875 
z
" id="DejaVuSans-32"/>
      </defs>
      <g transform="translate(7.2 344.667092)scale(0.22 -0.22)">
       <use xlink:href="#DejaVuSans-2212"/>
       <use x="83.789062" xlink:href="#DejaVuSans-30"/>
       <use x="147.412109" xlink:href="#DejaVuSans-2e"/>
       <use x="179.199219" xlink:href="#DejaVuSans-32"/>
       <use x="242.822266" xlink:href="#DejaVuSans-30"/>
      </g>
     </g>
    </g>
    <g id="ytick_2">
     <g id="line2d_2">
      <g>
       <use style="stroke:#000000;stroke-width:0.8;" x="81.619687" xlink:href="#mc6c65d37e6" y="293.352538"/>
      </g>
     </g>
     <g id="text_2">
      <!-- −0.15 -->
      <defs>
       <path d="M 12.40625 8.296875 
L 28.515625 8.296875 
L 28.515625 63.921875 
L 10.984375 60.40625 
L 10.984375 69.390625 
L 28.421875 72.90625 
L 38.28125 72.90625 
L 38.28125 8.296875 
L 54.390625 8.296875 
L 54.390625 0 
L 12.40625 0 
z
" id="DejaVuSans-31"/>
       <path d="M 10.796875 72.90625 
L 49.515625 72.90625 
L 49.515625 64.59375 
L 19.828125 64.59375 
L 19.828125 46.734375 
Q 21.96875 47.46875 24.109375 47.828125 
Q 26.265625 48.1875 28.421875 48.1875 
Q 40.625 48.1875 47.75 41.5 
Q 54.890625 34.8125 54.890625 23.390625 
Q 54.890625 11.625 47.5625 5.09375 
Q 40.234375 -1.421875 26.90625 -1.421875 
Q 22.3125 -1.421875 17.546875 -0.640625 
Q 12.796875 0.140625 7.71875 1.703125 
L 7.71875 11.625 
Q 12.109375 9.234375 16.796875 8.0625 
Q 21.484375 6.890625 26.703125 6.890625 
Q 35.15625 6.890625 40.078125 11.328125 
Q 45.015625 15.765625 45.015625 23.390625 
Q 45.015625 31 40.078125 35.4375 
Q 35.15625 39.890625 26.703125 39.890625 
Q 22.75 39.890625 18.8125 39.015625 
Q 14.890625 38.140625 10.796875 36.28125 
z
" id="DejaVuSans-35"/>
      </defs>
      <g transform="translate(7.2 301.71082)scale(0.22 -0.22)">
       <use xlink:href="#DejaVuSans-2212"/>
       <use x="83.789062" xlink:href="#DejaVuSans-30"/>
       <use x="147.412109" xlink:href="#DejaVuSans-2e"/>
       <use x="179.199219" xlink:href="#DejaVuSans-31"/>
       <use x="242.822266" xlink:href="#DejaVuSans-35"/>
      </g>
     </g>
    </g>
    <g id="ytick_3">
     <g id="line2d_3">
      <g>
       <use style="stroke:#000000;stroke-width:0.8;" x="81.619687" xlink:href="#mc6c65d37e6" y="250.396266"/>
      </g>
     </g>
     <g id="text_3">
      <!-- −0.10 -->
      <g transform="translate(7.2 258.754547)scale(0.22 -0.22)">
       <use xlink:href="#DejaVuSans-2212"/>
       <use x="83.789062" xlink:href="#DejaVuSans-30"/>
       <use x="147.412109" xlink:href="#DejaVuSans-2e"/>
       <use x="179.199219" xlink:href="#DejaVuSans-31"/>
       <use x="242.822266" xlink:href="#DejaVuSans-30"/>
      </g>
     </g>
    </g>
    <g id="ytick_4">
     <g id="line2d_4">
      <g>
       <use style="stroke:#000000;stroke-width:0.8;" x="81.619687" xlink:href="#mc6c65d37e6" y="207.439994"/>
      </g>
     </g>
     <g id="text_4">
      <!-- −0.05 -->
      <g transform="translate(7.2 215.798275)scale(0.22 -0.22)">
       <use xlink:href="#DejaVuSans-2212"/>
       <use x="83.789062" xlink:href="#DejaVuSans-30"/>
       <use x="147.412109" xlink:href="#DejaVuSans-2e"/>
       <use x="179.199219" xlink:href="#DejaVuSans-30"/>
       <use x="242.822266" xlink:href="#DejaVuSans-35"/>
      </g>
     </g>
    </g>
    <g id="ytick_5">
     <g id="line2d_5">
      <g>
       <use style="stroke:#000000;stroke-width:0.8;" x="81.619687" xlink:href="#mc6c65d37e6" y="164.483722"/>
      </g>
     </g>
     <g id="text_5">
      <!-- 0.00 -->
      <g transform="translate(25.635312 172.842003)scale(0.22 -0.22)">
       <use xlink:href="#DejaVuSans-30"/>
       <use x="63.623047" xlink:href="#DejaVuSans-2e"/>
       <use x="95.410156" xlink:href="#DejaVuSans-30"/>
       <use x="159.033203" xlink:href="#DejaVuSans-30"/>
      </g>
     </g>
    </g>
    <g id="ytick_6">
     <g id="line2d_6">
      <g>
       <use style="stroke:#000000;stroke-width:0.8;" x="81.619687" xlink:href="#mc6c65d37e6" y="121.52745"/>
      </g>
     </g>
     <g id="text_6">
      <!-- 0.05 -->
      <g transform="translate(25.635312 129.885731)scale(0.22 -0.22)">
       <use xlink:href="#DejaVuSans-30"/>
       <use x="63.623047" xlink:href="#DejaVuSans-2e"/>
       <use x="95.410156" xlink:href="#DejaVuSans-30"/>
       <use x="159.033203" xlink:href="#DejaVuSans-35"/>
      </g>
     </g>
    </g>
    <g id="ytick_7">
     <g id="line2d_7">
      <g>
       <use style="stroke:#000000;stroke-width:0.8;" x="81.619687" xlink:href="#mc6c65d37e6" y="78.571178"/>
      </g>
     </g>
     <g id="text_7">
      <!-- 0.10 -->
      <g transform="translate(25.635312 86.929459)scale(0.22 -0.22)">
       <use xlink:href="#DejaVuSans-30"/>
       <use x="63.623047" xlink:href="#DejaVuSans-2e"/>
       <use x="95.410156" xlink:href="#DejaVuSans-31"/>
       <use x="159.033203" xlink:href="#DejaVuSans-30"/>
      </g>
     </g>
    </g>
    <g id="ytick_8">
     <g id="line2d_8">
      <g>
       <use style="stroke:#000000;stroke-width:0.8;" x="81.619687" xlink:href="#mc6c65d37e6" y="35.614905"/>
      </g>
     </g>
     <g id="text_8">
      <!-- 0.15 -->
      <g transform="translate(25.635312 43.973187)scale(0.22 -0.22)">
       <use xlink:href="#DejaVuSans-30"/>
       <use x="63.623047" xlink:href="#DejaVuSans-2e"/>
       <use x="95.410156" xlink:href="#DejaVuSans-31"/>
       <use x="159.033203" xlink:href="#DejaVuSans-35"/>
      </g>
     </g>
    </g>
   </g>
   <g id="patch_3">
    <path clip-path="url(#pcebca4b505)" d="M 96.113194 164.483722 
L 110.6067 164.483722 
L 110.6067 164.382347 
L 96.113194 164.382347 
z
" style="fill:#d92523;"/>
   </g>
   <g id="patch_4">
    <path clip-path="url(#pcebca4b505)" d="M 110.6067 164.483722 
L 125.100207 164.483722 
L 125.100207 164.024203 
L 110.6067 164.024203 
z
" style="fill:#d92523;"/>
   </g>
   <g id="patch_5">
    <path clip-path="url(#pcebca4b505)" d="M 125.100207 164.483722 
L 139.593713 164.483722 
L 139.593713 164.342483 
L 125.100207 164.342483 
z
" style="fill:#d92523;"/>
   </g>
   <g id="patch_6">
    <path clip-path="url(#pcebca4b505)" d="M 139.593713 164.483722 
L 154.08722 164.483722 
L 154.08722 164.40512 
L 139.593713 164.40512 
z
" style="fill:#d92523;"/>
   </g>
   <g id="patch_7">
    <path clip-path="url(#pcebca4b505)" d="M 154.08722 164.483722 
L 168.580726 164.483722 
L 168.580726 128.610287 
L 154.08722 128.610287 
z
" style="fill:#d92523;"/>
   </g>
   <g id="patch_8">
    <path clip-path="url(#pcebca4b505)" d="M 168.580726 164.483722 
L 183.074233 164.483722 
L 183.074233 164.523653 
L 168.580726 164.523653 
z
" style="fill:#d92523;"/>
   </g>
   <g id="patch_9">
    <path clip-path="url(#pcebca4b505)" d="M 183.074233 164.483722 
L 197.567739 164.483722 
L 197.567739 179.067865 
L 183.074233 179.067865 
z
" style="fill:#d92523;"/>
   </g>
   <g id="patch_10">
    <path clip-path="url(#pcebca4b505)" d="M 197.567739 164.483722 
L 212.061246 164.483722 
L 212.061246 163.738216 
L 197.567739 163.738216 
z
" style="fill:#d92523;"/>
   </g>
   <g id="patch_11">
    <path clip-path="url(#pcebca4b505)" d="M 212.061246 164.483722 
L 226.554752 164.483722 
L 226.554752 164.058642 
L 212.061246 164.058642 
z
" style="fill:#d92523;"/>
   </g>
   <g id="patch_12">
    <path clip-path="url(#pcebca4b505)" d="M 226.554752 164.483722 
L 241.048259 164.483722 
L 241.048259 163.595249 
L 226.554752 163.595249 
z
" style="fill:#d92523;"/>
   </g>
   <g id="patch_13">
    <path clip-path="url(#pcebca4b505)" d="M 241.048259 164.483722 
L 255.541765 164.483722 
L 255.541765 164.110052 
L 241.048259 164.110052 
z
" style="fill:#d92523;"/>
   </g>
   <g id="patch_14">
    <path clip-path="url(#pcebca4b505)" d="M 255.541765 164.483722 
L 270.035272 164.483722 
L 270.035272 164.393951 
L 255.541765 164.393951 
z
" style="fill:#d92523;"/>
   </g>
   <g id="patch_15">
    <path clip-path="url(#pcebca4b505)" d="M 270.035272 164.483722 
L 284.528778 164.483722 
L 284.528778 164.48624 
L 270.035272 164.48624 
z
" style="fill:#d92523;"/>
   </g>
   <g id="patch_16">
    <path clip-path="url(#pcebca4b505)" d="M 284.528778 164.483722 
L 299.022285 164.483722 
L 299.022285 328.22 
L 284.528778 328.22 
z
" style="fill:#d92523;"/>
   </g>
   <g id="patch_17">
    <path clip-path="url(#pcebca4b505)" d="M 299.022285 164.483722 
L 313.515791 164.483722 
L 313.515791 165.075552 
L 299.022285 165.075552 
z
" style="fill:#d92523;"/>
   </g>
   <g id="patch_18">
    <path clip-path="url(#pcebca4b505)" d="M 313.515791 164.483722 
L 328.009298 164.483722 
L 328.009298 137.15567 
L 313.515791 137.15567 
z
" style="fill:#d92523;"/>
   </g>
   <g id="patch_19">
    <path clip-path="url(#pcebca4b505)" d="M 328.009298 164.483722 
L 342.502804 164.483722 
L 342.502804 132.74769 
L 328.009298 132.74769 
z
" style="fill:#d92523;"/>
   </g>
   <g id="patch_20">
    <path clip-path="url(#pcebca4b505)" d="M 342.502804 164.483722 
L 356.996311 164.483722 
L 356.996311 146.987642 
L 342.502804 146.987642 
z
" style="fill:#d92523;"/>
   </g>
   <g id="patch_21">
    <path clip-path="url(#pcebca4b505)" d="M 356.996311 164.483722 
L 371.489817 164.483722 
L 371.489817 324.50155 
L 356.996311 324.50155 
z
" style="fill:#d92523;"/>
   </g>
   <g id="patch_22">
    <path clip-path="url(#pcebca4b505)" d="M 371.489817 164.483722 
L 385.983324 164.483722 
L 385.983324 25.82 
L 371.489817 25.82 
z
" style="fill:#d92523;"/>
   </g>
   <g id="patch_23">
    <path clip-path="url(#pcebca4b505)" d="M 96.113194 164.483722 
L 110.6067 164.483722 
L 110.6067 164.472063 
L 96.113194 164.472063 
z
" style="fill:#2e7ebc;"/>
   </g>
   <g id="patch_24">
    <path clip-path="url(#pcebca4b505)" d="M 110.6067 164.483722 
L 125.100207 164.483722 
L 125.100207 164.17535 
L 110.6067 164.17535 
z
" style="fill:#2e7ebc;"/>
   </g>
   <g id="patch_25">
    <path clip-path="url(#pcebca4b505)" d="M 125.100207 164.483722 
L 139.593713 164.483722 
L 139.593713 164.495286 
L 125.100207 164.495286 
z
" style="fill:#2e7ebc;"/>
   </g>
   <g id="patch_26">
    <path clip-path="url(#pcebca4b505)" d="M 139.593713 164.483722 
L 154.08722 164.483722 
L 154.08722 169.389451 
L 139.593713 169.389451 
z
" style="fill:#2e7ebc;"/>
   </g>
   <g id="patch_27">
    <path clip-path="url(#pcebca4b505)" d="M 154.08722 164.483722 
L 168.580726 164.483722 
L 168.580726 167.390014 
L 154.08722 167.390014 
z
" style="fill:#2e7ebc;"/>
   </g>
   <g id="patch_28">
    <path clip-path="url(#pcebca4b505)" d="M 168.580726 164.483722 
L 183.074233 164.483722 
L 183.074233 164.42286 
L 168.580726 164.42286 
z
" style="fill:#2e7ebc;"/>
   </g>
   <g id="patch_29">
    <path clip-path="url(#pcebca4b505)" d="M 183.074233 164.483722 
L 197.567739 164.483722 
L 197.567739 169.018737 
L 183.074233 169.018737 
z
" style="fill:#2e7ebc;"/>
   </g>
   <g id="patch_30">
    <path clip-path="url(#pcebca4b505)" d="M 197.567739 164.483722 
L 212.061246 164.483722 
L 212.061246 163.967841 
L 197.567739 163.967841 
z
" style="fill:#2e7ebc;"/>
   </g>
   <g id="patch_31">
    <path clip-path="url(#pcebca4b505)" d="M 212.061246 164.483722 
L 226.554752 164.483722 
L 226.554752 166.194305 
L 212.061246 166.194305 
z
" style="fill:#2e7ebc;"/>
   </g>
   <g id="patch_32">
    <path clip-path="url(#pcebca4b505)" d="M 226.554752 164.483722 
L 241.048259 164.483722 
L 241.048259 161.787876 
L 226.554752 161.787876 
z
" style="fill:#2e7ebc;"/>
   </g>
   <g id="patch_33">
    <path clip-path="url(#pcebca4b505)" d="M 241.048259 164.483722 
L 255.541765 164.483722 
L 255.541765 164.054844 
L 241.048259 164.054844 
z
" style="fill:#2e7ebc;"/>
   </g>
   <g id="patch_34">
    <path clip-path="url(#pcebca4b505)" d="M 255.541765 164.483722 
L 270.035272 164.483722 
L 270.035272 164.943972 
L 255.541765 164.943972 
z
" style="fill:#2e7ebc;"/>
   </g>
   <g id="patch_35">
    <path clip-path="url(#pcebca4b505)" d="M 270.035272 164.483722 
L 284.528778 164.483722 
L 284.528778 164.849708 
L 270.035272 164.849708 
z
" style="fill:#2e7ebc;"/>
   </g>
   <g id="patch_36">
    <path clip-path="url(#pcebca4b505)" d="M 284.528778 164.483722 
L 299.022285 164.483722 
L 299.022285 123.624392 
L 284.528778 123.624392 
z
" style="fill:#2e7ebc;"/>
   </g>
   <g id="patch_37">
    <path clip-path="url(#pcebca4b505)" d="M 299.022285 164.483722 
L 313.515791 164.483722 
L 313.515791 170.797655 
L 299.022285 170.797655 
z
" style="fill:#2e7ebc;"/>
   </g>
   <g id="patch_38">
    <path clip-path="url(#pcebca4b505)" d="M 313.515791 164.483722 
L 328.009298 164.483722 
L 328.009298 185.653954 
L 313.515791 185.653954 
z
" style="fill:#2e7ebc;"/>
   </g>
   <g id="patch_39">
    <path clip-path="url(#pcebca4b505)" d="M 328.009298 164.483722 
L 342.502804 164.483722 
L 342.502804 185.16666 
L 328.009298 185.16666 
z
" style="fill:#2e7ebc;"/>
   </g>
   <g id="patch_40">
    <path clip-path="url(#pcebca4b505)" d="M 342.502804 164.483722 
L 356.996311 164.483722 
L 356.996311 190.825543 
L 342.502804 190.825543 
z
" style="fill:#2e7ebc;"/>
   </g>
   <g id="patch_41">
    <path clip-path="url(#pcebca4b505)" d="M 356.996311 164.483722 
L 371.489817 164.483722 
L 371.489817 120.91014 
L 356.996311 120.91014 
z
" style="fill:#2e7ebc;"/>
   </g>
   <g id="patch_42">
    <path clip-path="url(#pcebca4b505)" d="M 371.489817 164.483722 
L 385.983324 164.483722 
L 385.983324 196.22055 
L 371.489817 196.22055 
z
" style="fill:#2e7ebc;"/>
   </g>
   <g id="patch_43">
    <path d="M 81.619687 343.34 
L 81.619687 10.7 
" style="fill:none;stroke:#000000;stroke-linecap:square;stroke-linejoin:miter;stroke-width:0.8;"/>
   </g>
   <g id="patch_44">
    <path d="M 400.47683 343.34 
L 400.47683 10.7 
" style="fill:none;stroke:#000000;stroke-linecap:square;stroke-linejoin:miter;stroke-width:0.8;"/>
   </g>
   <g id="patch_45">
    <path d="M 81.619687 343.34 
L 400.47683 343.34 
" style="fill:none;stroke:#000000;stroke-linecap:square;stroke-linejoin:miter;stroke-width:0.8;"/>
   </g>
   <g id="patch_46">
    <path d="M 81.619687 10.7 
L 400.47683 10.7 
" style="fill:none;stroke:#000000;stroke-linecap:square;stroke-linejoin:miter;stroke-width:0.8;"/>
   </g>
   <g id="patch_47">
    <path clip-path="url(#pcebca4b505)" d="M 96.113194 164.483722 
L 110.6067 164.483722 
L 110.6067 164.483722 
L 96.113194 164.483722 
z
" style="fill:none;stroke:#000000;stroke-linejoin:miter;"/>
   </g>
   <g id="patch_48">
    <path clip-path="url(#pcebca4b505)" d="M 110.6067 164.483722 
L 125.100207 164.483722 
L 125.100207 164.483722 
L 110.6067 164.483722 
z
" style="fill:none;stroke:#000000;stroke-linejoin:miter;"/>
   </g>
   <g id="patch_49">
    <path clip-path="url(#pcebca4b505)" d="M 125.100207 164.483722 
L 139.593713 164.483722 
L 139.593713 164.483722 
L 125.100207 164.483722 
z
" style="fill:none;stroke:#000000;stroke-linejoin:miter;"/>
   </g>
   <g id="patch_50">
    <path clip-path="url(#pcebca4b505)" d="M 139.593713 164.483722 
L 154.08722 164.483722 
L 154.08722 164.483722 
L 139.593713 164.483722 
z
" style="fill:none;stroke:#000000;stroke-linejoin:miter;"/>
   </g>
   <g id="patch_51">
    <path clip-path="url(#pcebca4b505)" d="M 154.08722 164.483722 
L 168.580726 164.483722 
L 168.580726 164.483722 
L 154.08722 164.483722 
z
" style="fill:none;stroke:#000000;stroke-linejoin:miter;"/>
   </g>
   <g id="patch_52">
    <path clip-path="url(#pcebca4b505)" d="M 168.580726 164.483722 
L 183.074233 164.483722 
L 183.074233 164.483722 
L 168.580726 164.483722 
z
" style="fill:none;stroke:#000000;stroke-linejoin:miter;"/>
   </g>
   <g id="patch_53">
    <path clip-path="url(#pcebca4b505)" d="M 183.074233 164.483722 
L 197.567739 164.483722 
L 197.567739 164.483722 
L 183.074233 164.483722 
z
" style="fill:none;stroke:#000000;stroke-linejoin:miter;"/>
   </g>
   <g id="patch_54">
    <path clip-path="url(#pcebca4b505)" d="M 197.567739 164.483722 
L 212.061246 164.483722 
L 212.061246 164.483722 
L 197.567739 164.483722 
z
" style="fill:none;stroke:#000000;stroke-linejoin:miter;"/>
   </g>
   <g id="patch_55">
    <path clip-path="url(#pcebca4b505)" d="M 212.061246 164.483722 
L 226.554752 164.483722 
L 226.554752 164.483722 
L 212.061246 164.483722 
z
" style="fill:none;stroke:#000000;stroke-linejoin:miter;"/>
   </g>
   <g id="patch_56">
    <path clip-path="url(#pcebca4b505)" d="M 226.554752 164.483722 
L 241.048259 164.483722 
L 241.048259 164.483722 
L 226.554752 164.483722 
z
" style="fill:none;stroke:#000000;stroke-linejoin:miter;"/>
   </g>
   <g id="patch_57">
    <path clip-path="url(#pcebca4b505)" d="M 241.048259 164.483722 
L 255.541765 164.483722 
L 255.541765 164.483722 
L 241.048259 164.483722 
z
" style="fill:none;stroke:#000000;stroke-linejoin:miter;"/>
   </g>
   <g id="patch_58">
    <path clip-path="url(#pcebca4b505)" d="M 255.541765 164.483722 
L 270.035272 164.483722 
L 270.035272 164.483722 
L 255.541765 164.483722 
z
" style="fill:none;stroke:#000000;stroke-linejoin:miter;"/>
   </g>
   <g id="patch_59">
    <path clip-path="url(#pcebca4b505)" d="M 270.035272 164.483722 
L 284.528778 164.483722 
L 284.528778 164.483722 
L 270.035272 164.483722 
z
" style="fill:none;stroke:#000000;stroke-linejoin:miter;"/>
   </g>
   <g id="patch_60">
    <path clip-path="url(#pcebca4b505)" d="M 284.528778 164.483722 
L 299.022285 164.483722 
L 299.022285 164.483722 
L 284.528778 164.483722 
z
" style="fill:none;stroke:#000000;stroke-linejoin:miter;"/>
   </g>
   <g id="patch_61">
    <path clip-path="url(#pcebca4b505)" d="M 299.022285 164.483722 
L 313.515791 164.483722 
L 313.515791 164.483722 
L 299.022285 164.483722 
z
" style="fill:none;stroke:#000000;stroke-linejoin:miter;"/>
   </g>
   <g id="patch_62">
    <path clip-path="url(#pcebca4b505)" d="M 313.515791 164.483722 
L 328.009298 164.483722 
L 328.009298 164.483722 
L 313.515791 164.483722 
z
" style="fill:none;stroke:#000000;stroke-linejoin:miter;"/>
   </g>
   <g id="patch_63">
    <path clip-path="url(#pcebca4b505)" d="M 328.009298 164.483722 
L 342.502804 164.483722 
L 342.502804 164.483722 
L 328.009298 164.483722 
z
" style="fill:none;stroke:#000000;stroke-linejoin:miter;"/>
   </g>
   <g id="patch_64">
    <path clip-path="url(#pcebca4b505)" d="M 342.502804 164.483722 
L 356.996311 164.483722 
L 356.996311 164.483722 
L 342.502804 164.483722 
z
" style="fill:none;stroke:#000000;stroke-linejoin:miter;"/>
   </g>
   <g id="patch_65">
    <path clip-path="url(#pcebca4b505)" d="M 356.996311 164.483722 
L 371.489817 164.483722 
L 371.489817 164.483722 
L 356.996311 164.483722 
z
" style="fill:none;stroke:#000000;stroke-linejoin:miter;"/>
   </g>
   <g id="patch_66">
    <path clip-path="url(#pcebca4b505)" d="M 371.489817 164.483722 
L 385.983324 164.483722 
L 385.983324 164.483722 
L 371.489817 164.483722 
z
" style="fill:none;stroke:#000000;stroke-linejoin:miter;"/>
   </g>
   <g id="patch_67">
    <path clip-path="url(#pcebca4b505)" d="M 96.113194 164.483722 
L 110.6067 164.483722 
L 110.6067 164.483722 
L 96.113194 164.483722 
z
" style="fill:none;stroke:#000000;stroke-linejoin:miter;"/>
   </g>
   <g id="patch_68">
    <path clip-path="url(#pcebca4b505)" d="M 110.6067 164.483722 
L 125.100207 164.483722 
L 125.100207 164.483722 
L 110.6067 164.483722 
z
" style="fill:none;stroke:#000000;stroke-linejoin:miter;"/>
   </g>
   <g id="patch_69">
    <path clip-path="url(#pcebca4b505)" d="M 125.100207 164.483722 
L 139.593713 164.483722 
L 139.593713 164.483722 
L 125.100207 164.483722 
z
" style="fill:none;stroke:#000000;stroke-linejoin:miter;"/>
   </g>
   <g id="patch_70">
    <path clip-path="url(#pcebca4b505)" d="M 139.593713 164.483722 
L 154.08722 164.483722 
L 154.08722 164.483722 
L 139.593713 164.483722 
z
" style="fill:none;stroke:#000000;stroke-linejoin:miter;"/>
   </g>
   <g id="patch_71">
    <path clip-path="url(#pcebca4b505)" d="M 154.08722 164.483722 
L 168.580726 164.483722 
L 168.580726 164.483722 
L 154.08722 164.483722 
z
" style="fill:none;stroke:#000000;stroke-linejoin:miter;"/>
   </g>
   <g id="patch_72">
    <path clip-path="url(#pcebca4b505)" d="M 168.580726 164.483722 
L 183.074233 164.483722 
L 183.074233 164.483722 
L 168.580726 164.483722 
z
" style="fill:none;stroke:#000000;stroke-linejoin:miter;"/>
   </g>
   <g id="patch_73">
    <path clip-path="url(#pcebca4b505)" d="M 183.074233 164.483722 
L 197.567739 164.483722 
L 197.567739 164.483722 
L 183.074233 164.483722 
z
" style="fill:none;stroke:#000000;stroke-linejoin:miter;"/>
   </g>
   <g id="patch_74">
    <path clip-path="url(#pcebca4b505)" d="M 197.567739 164.483722 
L 212.061246 164.483722 
L 212.061246 164.483722 
L 197.567739 164.483722 
z
" style="fill:none;stroke:#000000;stroke-linejoin:miter;"/>
   </g>
   <g id="patch_75">
    <path clip-path="url(#pcebca4b505)" d="M 212.061246 164.483722 
L 226.554752 164.483722 
L 226.554752 164.483722 
L 212.061246 164.483722 
z
" style="fill:none;stroke:#000000;stroke-linejoin:miter;"/>
   </g>
   <g id="patch_76">
    <path clip-path="url(#pcebca4b505)" d="M 226.554752 164.483722 
L 241.048259 164.483722 
L 241.048259 164.483722 
L 226.554752 164.483722 
z
" style="fill:none;stroke:#000000;stroke-linejoin:miter;"/>
   </g>
   <g id="patch_77">
    <path clip-path="url(#pcebca4b505)" d="M 241.048259 164.483722 
L 255.541765 164.483722 
L 255.541765 164.483722 
L 241.048259 164.483722 
z
" style="fill:none;stroke:#000000;stroke-linejoin:miter;"/>
   </g>
   <g id="patch_78">
    <path clip-path="url(#pcebca4b505)" d="M 255.541765 164.483722 
L 270.035272 164.483722 
L 270.035272 164.483722 
L 255.541765 164.483722 
z
" style="fill:none;stroke:#000000;stroke-linejoin:miter;"/>
   </g>
   <g id="patch_79">
    <path clip-path="url(#pcebca4b505)" d="M 270.035272 164.483722 
L 284.528778 164.483722 
L 284.528778 164.483722 
L 270.035272 164.483722 
z
" style="fill:none;stroke:#000000;stroke-linejoin:miter;"/>
   </g>
   <g id="patch_80">
    <path clip-path="url(#pcebca4b505)" d="M 284.528778 164.483722 
L 299.022285 164.483722 
L 299.022285 164.483722 
L 284.528778 164.483722 
z
" style="fill:none;stroke:#000000;stroke-linejoin:miter;"/>
   </g>
   <g id="patch_81">
    <path clip-path="url(#pcebca4b505)" d="M 299.022285 164.483722 
L 313.515791 164.483722 
L 313.515791 164.483722 
L 299.022285 164.483722 
z
" style="fill:none;stroke:#000000;stroke-linejoin:miter;"/>
   </g>
   <g id="patch_82">
    <path clip-path="url(#pcebca4b505)" d="M 313.515791 164.483722 
L 328.009298 164.483722 
L 328.009298 164.483722 
L 313.515791 164.483722 
z
" style="fill:none;stroke:#000000;stroke-linejoin:miter;"/>
   </g>
   <g id="patch_83">
    <path clip-path="url(#pcebca4b505)" d="M 328.009298 164.483722 
L 342.502804 164.483722 
L 342.502804 164.483722 
L 328.009298 164.483722 
z
" style="fill:none;stroke:#000000;stroke-linejoin:miter;"/>
   </g>
   <g id="patch_84">
    <path clip-path="url(#pcebca4b505)" d="M 342.502804 164.483722 
L 356.996311 164.483722 
L 356.996311 164.483722 
L 342.502804 164.483722 
z
" style="fill:none;stroke:#000000;stroke-linejoin:miter;"/>
   </g>
   <g id="patch_85">
    <path clip-path="url(#pcebca4b505)" d="M 356.996311 164.483722 
L 371.489817 164.483722 
L 371.489817 164.483722 
L 356.996311 164.483722 
z
" style="fill:none;stroke:#000000;stroke-linejoin:miter;"/>
   </g>
   <g id="patch_86">
    <path clip-path="url(#pcebca4b505)" d="M 371.489817 164.483722 
L 385.983324 164.483722 
L 385.983324 164.483722 
L 371.489817 164.483722 
z
" style="fill:none;stroke:#000000;stroke-linejoin:miter;"/>
   </g>
  </g>
 </g>
 <defs>
  <clipPath id="pcebca4b505">
   <rect height="332.64" width="318.857143" x="81.619687" y="10.7"/>
  </clipPath>
 </defs>
</svg>
