<?xml version="1.0" encoding="utf-8" standalone="no"?>
<!DOCTYPE svg PUBLIC "-//W3C//DTD SVG 1.1//EN"
  "http://www.w3.org/Graphics/SVG/1.1/DTD/svg11.dtd">
<!-- Created with matplotlib (http://matplotlib.org/) -->
<svg height="359pt" version="1.1" viewBox="0 0 455 359" width="455pt" xmlns="http://www.w3.org/2000/svg" xmlns:xlink="http://www.w3.org/1999/xlink">
 <defs>
  <style type="text/css">
*{stroke-linecap:butt;stroke-linejoin:round;}
  </style>
 </defs>
 <g id="figure_1">
  <g id="patch_1">
   <path d="M 0 359.335262 
L 455.114687 359.335262 
L 455.114687 0 
L 0 0 
z
" style="fill:#ffffff;"/>
  </g>
  <g id="axes_1">
   <g id="patch_2">
    <path d="M 109.614687 343.34 
L 444.414688 343.34 
L 444.414688 10.7 
L 109.614687 10.7 
z
" style="fill:#ffffff;"/>
   </g>
   <g id="PolyCollection_1">
    <defs>
     <path d="M 124.832869 -31.115262 
L 124.832869 -190.850767 
L 128.14117 -190.850767 
L 131.44947 -190.850767 
L 134.757771 -190.850767 
L 138.066071 -190.850767 
L 141.374371 -190.850767 
L 144.682672 -190.850767 
L 147.990972 -190.850767 
L 151.299272 -190.850767 
L 154.607573 -190.850767 
L 157.915873 -190.850767 
L 161.224174 -190.850767 
L 164.532474 -190.850767 
L 167.840774 -190.850767 
L 171.149075 -190.850767 
L 174.457375 -190.850767 
L 177.765676 -190.850767 
L 181.073976 -190.850767 
L 184.382276 -190.850767 
L 187.690577 -190.850767 
L 190.998877 -190.850767 
L 194.307178 -190.850767 
L 197.615478 -190.850767 
L 200.923778 -190.850767 
L 204.232079 -190.850767 
L 207.540379 -190.850767 
L 210.84868 -190.850767 
L 214.15698 -190.850767 
L 217.46528 -190.850767 
L 220.773581 -190.850767 
L 224.081881 -190.850767 
L 227.390182 -190.850767 
L 230.698482 -190.850767 
L 234.006782 -190.850767 
L 237.315083 -190.850767 
L 240.623383 -190.850767 
L 243.931684 -190.850767 
L 247.239984 -190.850767 
L 250.548284 -190.850767 
L 253.856585 -190.850767 
L 257.164885 -190.850767 
L 260.473186 -190.850767 
L 263.781486 -190.850767 
L 267.089786 -190.850767 
L 270.398087 -190.850767 
L 273.706387 -190.850767 
L 277.014688 -190.850767 
L 280.322988 -190.850767 
L 283.631288 -190.850767 
L 286.939589 -190.850767 
L 290.247889 -190.850767 
L 293.556189 -190.850767 
L 296.86449 -190.850767 
L 300.17279 -190.850767 
L 303.481091 -190.850767 
L 306.789391 -190.850767 
L 310.097691 -190.850767 
L 313.405992 -190.850767 
L 316.714292 -190.850767 
L 320.022593 -190.850767 
L 323.330893 -190.850767 
L 326.639193 -190.850767 
L 329.947494 -190.850767 
L 333.255794 -190.850767 
L 336.564095 -190.850767 
L 339.872395 -190.850767 
L 343.180695 -190.850767 
L 346.488996 -190.850767 
L 349.797296 -190.850767 
L 353.105597 -190.850767 
L 356.413897 -190.850767 
L 359.722197 -190.850767 
L 363.030498 -190.850767 
L 366.338798 -190.850767 
L 369.647099 -190.850767 
L 372.955399 -190.850767 
L 376.263699 -190.850767 
L 379.572 -190.850767 
L 382.8803 -190.850767 
L 386.188601 -190.850767 
L 389.496901 -190.850767 
L 392.805201 -190.850767 
L 396.113502 -190.850767 
L 399.421802 -190.850767 
L 402.730103 -190.850767 
L 406.038403 -190.850767 
L 409.346703 -190.850767 
L 412.655004 -190.850767 
L 415.963304 -190.850767 
L 419.271604 -190.850767 
L 422.579905 -190.850767 
L 425.888205 -190.850767 
L 429.196506 -190.850767 
L 429.196506 -333.515262 
L 429.196506 -333.515262 
L 425.888205 -321.227747 
L 422.579905 -312.126134 
L 419.271604 -289.785797 
L 415.963304 -288.640006 
L 412.655004 -282.954744 
L 409.346703 -280.935808 
L 406.038403 -276.987452 
L 402.730103 -273.412322 
L 399.421802 -267.181104 
L 396.113502 -266.290951 
L 392.805201 -260.184575 
L 389.496901 -258.712377 
L 386.188601 -257.035926 
L 382.8803 -253.139045 
L 379.572 -253.082667 
L 376.263699 -248.718725 
L 372.955399 -248.612812 
L 369.647099 -247.827862 
L 366.338798 -247.363066 
L 363.030498 -247.162079 
L 359.722197 -245.605914 
L 356.413897 -243.38375 
L 353.105597 -243.105479 
L 349.797296 -241.014424 
L 346.488996 -237.717053 
L 343.180695 -236.096713 
L 339.872395 -234.014362 
L 336.564095 -230.681931 
L 333.255794 -229.531388 
L 329.947494 -228.274024 
L 326.639193 -218.964127 
L 323.330893 -216.929956 
L 320.022593 -215.494585 
L 316.714292 -215.138551 
L 313.405992 -213.147851 
L 310.097691 -207.192585 
L 306.789391 -204.473964 
L 303.481091 -204.447352 
L 300.17279 -201.690936 
L 296.86449 -201.176724 
L 293.556189 -200.575422 
L 290.247889 -199.830881 
L 286.939589 -198.401622 
L 283.631288 -197.122604 
L 280.322988 -194.124024 
L 277.014688 -193.508577 
L 273.706387 -192.420786 
L 270.398087 -191.445706 
L 267.089786 -191.319137 
L 263.781486 -190.892472 
L 260.473186 -190.140758 
L 257.164885 -187.30405 
L 253.856585 -186.409659 
L 250.548284 -184.028851 
L 247.239984 -181.171716 
L 243.931684 -181.157076 
L 240.623383 -180.04947 
L 237.315083 -178.59976 
L 234.006782 -177.639922 
L 230.698482 -176.767172 
L 227.390182 -176.025811 
L 224.081881 -174.839641 
L 220.773581 -174.37375 
L 217.46528 -174.172996 
L 214.15698 -173.059205 
L 210.84868 -171.471285 
L 207.540379 -170.815193 
L 204.232079 -169.565626 
L 200.923778 -166.954844 
L 197.615478 -165.449112 
L 194.307178 -165.41523 
L 190.998877 -162.357447 
L 187.690577 -159.318986 
L 184.382276 -157.956826 
L 181.073976 -157.721411 
L 177.765676 -156.390463 
L 174.457375 -153.720747 
L 171.149075 -150.491423 
L 167.840774 -148.407039 
L 164.532474 -147.034625 
L 161.224174 -145.573479 
L 157.915873 -145.186909 
L 154.607573 -127.650298 
L 151.299272 -114.650953 
L 147.990972 -102.454129 
L 144.682672 -96.155633 
L 141.374371 -79.422274 
L 138.066071 -68.49615 
L 134.757771 -58.905781 
L 131.44947 -46.198525 
L 128.14117 -44.514169 
L 124.832869 -31.115262 
z
" id="me233baa6b8" style="stroke:#4a98c9;"/>
    </defs>
    <g clip-path="url(#p90a2ecbe10)">
     <use style="fill:#4a98c9;stroke:#4a98c9;" x="0" xlink:href="#me233baa6b8" y="359.335262"/>
    </g>
   </g>
   <g id="PolyCollection_2">
    <defs>
     <path d="M 124.832869 -31.115262 
L 124.832869 -190.850767 
L 128.14117 -190.850767 
L 131.44947 -190.850767 
L 134.757771 -190.850767 
L 138.066071 -190.850767 
L 141.374371 -190.850767 
L 144.682672 -190.850767 
L 147.990972 -190.850767 
L 151.299272 -190.850767 
L 154.607573 -190.850767 
L 157.915873 -190.850767 
L 161.224174 -190.850767 
L 164.532474 -190.850767 
L 167.840774 -190.850767 
L 171.149075 -190.850767 
L 174.457375 -190.850767 
L 177.765676 -190.850767 
L 181.073976 -190.850767 
L 184.382276 -190.850767 
L 187.690577 -190.850767 
L 190.998877 -190.850767 
L 194.307178 -190.850767 
L 197.615478 -190.850767 
L 200.923778 -190.850767 
L 204.232079 -190.850767 
L 207.540379 -190.850767 
L 210.84868 -190.850767 
L 214.15698 -190.850767 
L 217.46528 -190.850767 
L 220.773581 -190.850767 
L 224.081881 -190.850767 
L 227.390182 -190.850767 
L 230.698482 -190.850767 
L 234.006782 -190.850767 
L 237.315083 -190.850767 
L 240.623383 -190.850767 
L 243.931684 -190.850767 
L 247.239984 -190.850767 
L 250.548284 -190.850767 
L 253.856585 -190.850767 
L 257.164885 -190.850767 
L 260.473186 -190.850767 
L 263.781486 -190.850767 
L 267.089786 -190.850767 
L 270.398087 -190.850767 
L 273.706387 -190.850767 
L 277.014688 -190.850767 
L 280.322988 -190.850767 
L 283.631288 -190.850767 
L 286.939589 -190.850767 
L 290.247889 -190.850767 
L 293.556189 -190.850767 
L 296.86449 -190.850767 
L 300.17279 -190.850767 
L 303.481091 -190.850767 
L 306.789391 -190.850767 
L 310.097691 -190.850767 
L 313.405992 -190.850767 
L 316.714292 -190.850767 
L 320.022593 -190.850767 
L 323.330893 -190.850767 
L 326.639193 -190.850767 
L 329.947494 -190.850767 
L 333.255794 -190.850767 
L 336.564095 -190.850767 
L 339.872395 -190.850767 
L 343.180695 -190.850767 
L 346.488996 -190.850767 
L 349.797296 -190.850767 
L 353.105597 -190.850767 
L 356.413897 -190.850767 
L 359.722197 -190.850767 
L 363.030498 -190.850767 
L 366.338798 -190.850767 
L 369.647099 -190.850767 
L 372.955399 -190.850767 
L 376.263699 -190.850767 
L 379.572 -190.850767 
L 382.8803 -190.850767 
L 386.188601 -190.850767 
L 389.496901 -190.850767 
L 392.805201 -190.850767 
L 396.113502 -190.850767 
L 399.421802 -190.850767 
L 402.730103 -190.850767 
L 406.038403 -190.850767 
L 409.346703 -190.850767 
L 412.655004 -190.850767 
L 415.963304 -190.850767 
L 419.271604 -190.850767 
L 422.579905 -190.850767 
L 425.888205 -190.850767 
L 429.196506 -190.850767 
L 429.196506 -333.515262 
L 429.196506 -333.515262 
L 425.888205 -321.227747 
L 422.579905 -312.126134 
L 419.271604 -289.785797 
L 415.963304 -288.640006 
L 412.655004 -282.954744 
L 409.346703 -280.935808 
L 406.038403 -276.987452 
L 402.730103 -273.412322 
L 399.421802 -267.181104 
L 396.113502 -266.290951 
L 392.805201 -260.184575 
L 389.496901 -258.712377 
L 386.188601 -257.035926 
L 382.8803 -253.139045 
L 379.572 -253.082667 
L 376.263699 -248.718725 
L 372.955399 -248.612812 
L 369.647099 -247.827862 
L 366.338798 -247.363066 
L 363.030498 -247.162079 
L 359.722197 -245.605914 
L 356.413897 -243.38375 
L 353.105597 -243.105479 
L 349.797296 -241.014424 
L 346.488996 -237.717053 
L 343.180695 -236.096713 
L 339.872395 -234.014362 
L 336.564095 -230.681931 
L 333.255794 -229.531388 
L 329.947494 -228.274024 
L 326.639193 -218.964127 
L 323.330893 -216.929956 
L 320.022593 -215.494585 
L 316.714292 -215.138551 
L 313.405992 -213.147851 
L 310.097691 -207.192585 
L 306.789391 -204.473964 
L 303.481091 -204.447352 
L 300.17279 -201.690936 
L 296.86449 -201.176724 
L 293.556189 -200.575422 
L 290.247889 -199.830881 
L 286.939589 -198.401622 
L 283.631288 -197.122604 
L 280.322988 -194.124024 
L 277.014688 -193.508577 
L 273.706387 -192.420786 
L 270.398087 -191.445706 
L 267.089786 -191.319137 
L 263.781486 -190.892472 
L 260.473186 -190.140758 
L 257.164885 -187.30405 
L 253.856585 -186.409659 
L 250.548284 -184.028851 
L 247.239984 -181.171716 
L 243.931684 -181.157076 
L 240.623383 -180.04947 
L 237.315083 -178.59976 
L 234.006782 -177.639922 
L 230.698482 -176.767172 
L 227.390182 -176.025811 
L 224.081881 -174.839641 
L 220.773581 -174.37375 
L 217.46528 -174.172996 
L 214.15698 -173.059205 
L 210.84868 -171.471285 
L 207.540379 -170.815193 
L 204.232079 -169.565626 
L 200.923778 -166.954844 
L 197.615478 -165.449112 
L 194.307178 -165.41523 
L 190.998877 -162.357447 
L 187.690577 -159.318986 
L 184.382276 -157.956826 
L 181.073976 -157.721411 
L 177.765676 -156.390463 
L 174.457375 -153.720747 
L 171.149075 -150.491423 
L 167.840774 -148.407039 
L 164.532474 -147.034625 
L 161.224174 -145.573479 
L 157.915873 -145.186909 
L 154.607573 -127.650298 
L 151.299272 -114.650953 
L 147.990972 -102.454129 
L 144.682672 -96.155633 
L 141.374371 -79.422274 
L 138.066071 -68.49615 
L 134.757771 -58.905781 
L 131.44947 -46.198525 
L 128.14117 -44.514169 
L 124.832869 -31.115262 
z
" id="mfead353c0a" style="stroke:#f14432;stroke-opacity:0.8;"/>
    </defs>
    <g clip-path="url(#p90a2ecbe10)">
     <use style="fill:#f14432;fill-opacity:0.8;stroke:#f14432;stroke-opacity:0.8;" x="0" xlink:href="#mfead353c0a" y="359.335262"/>
    </g>
   </g>
   <g id="matplotlib.axis_1"/>
   <g id="matplotlib.axis_2">
    <g id="ytick_1">
     <g id="line2d_1">
      <defs>
       <path d="M 0 0 
L -3.5 0 
" id="mc5c1608876" style="stroke:#000000;stroke-width:0.8;"/>
      </defs>
      <g>
       <use style="stroke:#000000;stroke-width:0.8;" x="109.614687" xlink:href="#mc5c1608876" y="339.201669"/>
      </g>
     </g>
     <g id="text_1">
      <!-- −0.0003 -->
      <defs>
       <path d="M 10.59375 35.5 
L 73.1875 35.5 
L 73.1875 27.203125 
L 10.59375 27.203125 
z
" id="DejaVuSans-2212"/>
       <path d="M 31.78125 66.40625 
Q 24.171875 66.40625 20.328125 58.90625 
Q 16.5 51.421875 16.5 36.375 
Q 16.5 21.390625 20.328125 13.890625 
Q 24.171875 6.390625 31.78125 6.390625 
Q 39.453125 6.390625 43.28125 13.890625 
Q 47.125 21.390625 47.125 36.375 
Q 47.125 51.421875 43.28125 58.90625 
Q 39.453125 66.40625 31.78125 66.40625 
z
M 31.78125 74.21875 
Q 44.046875 74.21875 50.515625 64.515625 
Q 56.984375 54.828125 56.984375 36.375 
Q 56.984375 17.96875 50.515625 8.265625 
Q 44.046875 -1.421875 31.78125 -1.421875 
Q 19.53125 -1.421875 13.0625 8.265625 
Q 6.59375 17.96875 6.59375 36.375 
Q 6.59375 54.828125 13.0625 64.515625 
Q 19.53125 74.21875 31.78125 74.21875 
z
" id="DejaVuSans-30"/>
       <path d="M 10.6875 12.40625 
L 21 12.40625 
L 21 0 
L 10.6875 0 
z
" id="DejaVuSans-2e"/>
       <path d="M 40.578125 39.3125 
Q 47.65625 37.796875 51.625 33 
Q 55.609375 28.21875 55.609375 21.1875 
Q 55.609375 10.40625 48.1875 4.484375 
Q 40.765625 -1.421875 27.09375 -1.421875 
Q 22.515625 -1.421875 17.65625 -0.515625 
Q 12.796875 0.390625 7.625 2.203125 
L 7.625 11.71875 
Q 11.71875 9.328125 16.59375 8.109375 
Q 21.484375 6.890625 26.8125 6.890625 
Q 36.078125 6.890625 40.9375 10.546875 
Q 45.796875 14.203125 45.796875 21.1875 
Q 45.796875 27.640625 41.28125 31.265625 
Q 36.765625 34.90625 28.71875 34.90625 
L 20.21875 34.90625 
L 20.21875 43.015625 
L 29.109375 43.015625 
Q 36.375 43.015625 40.234375 45.921875 
Q 44.09375 48.828125 44.09375 54.296875 
Q 44.09375 59.90625 40.109375 62.90625 
Q 36.140625 65.921875 28.71875 65.921875 
Q 24.65625 65.921875 20.015625 65.03125 
Q 15.375 64.15625 9.8125 62.3125 
L 9.8125 71.09375 
Q 15.4375 72.65625 20.34375 73.4375 
Q 25.25 74.21875 29.59375 74.21875 
Q 40.828125 74.21875 47.359375 69.109375 
Q 53.90625 64.015625 53.90625 55.328125 
Q 53.90625 49.265625 50.4375 45.09375 
Q 46.96875 40.921875 40.578125 39.3125 
z
" id="DejaVuSans-33"/>
      </defs>
      <g transform="translate(7.2 347.55995)scale(0.22 -0.22)">
       <use xlink:href="#DejaVuSans-2212"/>
       <use x="83.789062" xlink:href="#DejaVuSans-30"/>
       <use x="147.412109" xlink:href="#DejaVuSans-2e"/>
       <use x="179.199219" xlink:href="#DejaVuSans-30"/>
       <use x="242.822266" xlink:href="#DejaVuSans-30"/>
       <use x="306.445312" xlink:href="#DejaVuSans-30"/>
       <use x="370.068359" xlink:href="#DejaVuSans-33"/>
      </g>
     </g>
    </g>
    <g id="ytick_2">
     <g id="line2d_2">
      <g>
       <use style="stroke:#000000;stroke-width:0.8;" x="109.614687" xlink:href="#mc5c1608876" y="282.295944"/>
      </g>
     </g>
     <g id="text_2">
      <!-- −0.0002 -->
      <defs>
       <path d="M 19.1875 8.296875 
L 53.609375 8.296875 
L 53.609375 0 
L 7.328125 0 
L 7.328125 8.296875 
Q 12.9375 14.109375 22.625 23.890625 
Q 32.328125 33.6875 34.8125 36.53125 
Q 39.546875 41.84375 41.421875 45.53125 
Q 43.3125 49.21875 43.3125 52.78125 
Q 43.3125 58.59375 39.234375 62.25 
Q 35.15625 65.921875 28.609375 65.921875 
Q 23.96875 65.921875 18.8125 64.3125 
Q 13.671875 62.703125 7.8125 59.421875 
L 7.8125 69.390625 
Q 13.765625 71.78125 18.9375 73 
Q 24.125 74.21875 28.421875 74.21875 
Q 39.75 74.21875 46.484375 68.546875 
Q 53.21875 62.890625 53.21875 53.421875 
Q 53.21875 48.921875 51.53125 44.890625 
Q 49.859375 40.875 45.40625 35.40625 
Q 44.1875 33.984375 37.640625 27.21875 
Q 31.109375 20.453125 19.1875 8.296875 
z
" id="DejaVuSans-32"/>
      </defs>
      <g transform="translate(7.2 290.654225)scale(0.22 -0.22)">
       <use xlink:href="#DejaVuSans-2212"/>
       <use x="83.789062" xlink:href="#DejaVuSans-30"/>
       <use x="147.412109" xlink:href="#DejaVuSans-2e"/>
       <use x="179.199219" xlink:href="#DejaVuSans-30"/>
       <use x="242.822266" xlink:href="#DejaVuSans-30"/>
       <use x="306.445312" xlink:href="#DejaVuSans-30"/>
       <use x="370.068359" xlink:href="#DejaVuSans-32"/>
      </g>
     </g>
    </g>
    <g id="ytick_3">
     <g id="line2d_3">
      <g>
       <use style="stroke:#000000;stroke-width:0.8;" x="109.614687" xlink:href="#mc5c1608876" y="225.39022"/>
      </g>
     </g>
     <g id="text_3">
      <!-- −0.0001 -->
      <defs>
       <path d="M 12.40625 8.296875 
L 28.515625 8.296875 
L 28.515625 63.921875 
L 10.984375 60.40625 
L 10.984375 69.390625 
L 28.421875 72.90625 
L 38.28125 72.90625 
L 38.28125 8.296875 
L 54.390625 8.296875 
L 54.390625 0 
L 12.40625 0 
z
" id="DejaVuSans-31"/>
      </defs>
      <g transform="translate(7.2 233.748501)scale(0.22 -0.22)">
       <use xlink:href="#DejaVuSans-2212"/>
       <use x="83.789062" xlink:href="#DejaVuSans-30"/>
       <use x="147.412109" xlink:href="#DejaVuSans-2e"/>
       <use x="179.199219" xlink:href="#DejaVuSans-30"/>
       <use x="242.822266" xlink:href="#DejaVuSans-30"/>
       <use x="306.445312" xlink:href="#DejaVuSans-30"/>
       <use x="370.068359" xlink:href="#DejaVuSans-31"/>
      </g>
     </g>
    </g>
    <g id="ytick_4">
     <g id="line2d_4">
      <g>
       <use style="stroke:#000000;stroke-width:0.8;" x="109.614687" xlink:href="#mc5c1608876" y="168.484495"/>
      </g>
     </g>
     <g id="text_4">
      <!-- 0.0000 -->
      <g transform="translate(25.635312 176.842777)scale(0.22 -0.22)">
       <use xlink:href="#DejaVuSans-30"/>
       <use x="63.623047" xlink:href="#DejaVuSans-2e"/>
       <use x="95.410156" xlink:href="#DejaVuSans-30"/>
       <use x="159.033203" xlink:href="#DejaVuSans-30"/>
       <use x="222.65625" xlink:href="#DejaVuSans-30"/>
       <use x="286.279297" xlink:href="#DejaVuSans-30"/>
      </g>
     </g>
    </g>
    <g id="ytick_5">
     <g id="line2d_5">
      <g>
       <use style="stroke:#000000;stroke-width:0.8;" x="109.614687" xlink:href="#mc5c1608876" y="111.578771"/>
      </g>
     </g>
     <g id="text_5">
      <!-- 0.0001 -->
      <g transform="translate(25.635312 119.937052)scale(0.22 -0.22)">
       <use xlink:href="#DejaVuSans-30"/>
       <use x="63.623047" xlink:href="#DejaVuSans-2e"/>
       <use x="95.410156" xlink:href="#DejaVuSans-30"/>
       <use x="159.033203" xlink:href="#DejaVuSans-30"/>
       <use x="222.65625" xlink:href="#DejaVuSans-30"/>
       <use x="286.279297" xlink:href="#DejaVuSans-31"/>
      </g>
     </g>
    </g>
    <g id="ytick_6">
     <g id="line2d_6">
      <g>
       <use style="stroke:#000000;stroke-width:0.8;" x="109.614687" xlink:href="#mc5c1608876" y="54.673047"/>
      </g>
     </g>
     <g id="text_6">
      <!-- 0.0002 -->
      <g transform="translate(25.635312 63.031328)scale(0.22 -0.22)">
       <use xlink:href="#DejaVuSans-30"/>
       <use x="63.623047" xlink:href="#DejaVuSans-2e"/>
       <use x="95.410156" xlink:href="#DejaVuSans-30"/>
       <use x="159.033203" xlink:href="#DejaVuSans-30"/>
       <use x="222.65625" xlink:href="#DejaVuSans-30"/>
       <use x="286.279297" xlink:href="#DejaVuSans-32"/>
      </g>
     </g>
    </g>
   </g>
   <g id="patch_3">
    <path d="M 109.614687 343.34 
L 109.614687 10.7 
" style="fill:none;stroke:#000000;stroke-linecap:square;stroke-linejoin:miter;stroke-width:0.8;"/>
   </g>
   <g id="patch_4">
    <path d="M 444.414688 343.34 
L 444.414688 10.7 
" style="fill:none;stroke:#000000;stroke-linecap:square;stroke-linejoin:miter;stroke-width:0.8;"/>
   </g>
   <g id="patch_5">
    <path d="M 109.614687 343.34 
L 444.414688 343.34 
" style="fill:none;stroke:#000000;stroke-linecap:square;stroke-linejoin:miter;stroke-width:0.8;"/>
   </g>
   <g id="patch_6">
    <path d="M 109.614687 10.7 
L 444.414688 10.7 
" style="fill:none;stroke:#000000;stroke-linecap:square;stroke-linejoin:miter;stroke-width:0.8;"/>
   </g>
  </g>
 </g>
 <defs>
  <clipPath id="p90a2ecbe10">
   <rect height="332.64" width="334.8" x="109.614687" y="10.7"/>
  </clipPath>
 </defs>
</svg>
