<?xml version="1.0" encoding="utf-8" standalone="no"?>
<!DOCTYPE svg PUBLIC "-//W3C//DTD SVG 1.1//EN"
  "http://www.w3.org/Graphics/SVG/1.1/DTD/svg11.dtd">
<!-- Created with matplotlib (http://matplotlib.org/) -->
<svg height="354pt" version="1.1" viewBox="0 0 413 354" width="413pt" xmlns="http://www.w3.org/2000/svg" xmlns:xlink="http://www.w3.org/1999/xlink">
 <defs>
  <style type="text/css">
*{stroke-linecap:butt;stroke-linejoin:round;}
  </style>
 </defs>
 <g id="figure_1">
  <g id="patch_1">
   <path d="M 0 354.04 
L 413.122187 354.04 
L 413.122187 0 
L 0 0 
z
" style="fill:#ffffff;"/>
  </g>
  <g id="axes_1">
   <g id="patch_2">
    <path d="M 67.622187 343.34 
L 402.422188 343.34 
L 402.422188 10.7 
L 67.622187 10.7 
z
" style="fill:#ffffff;"/>
   </g>
   <g id="PolyCollection_1">
    <defs>
     <path d="M 82.840369 -120.376457 
L 82.840369 -143.997571 
L 86.14867 -143.997571 
L 89.45697 -143.997571 
L 92.765271 -143.997571 
L 96.073571 -143.997571 
L 99.381871 -143.997571 
L 102.690172 -143.997571 
L 105.998472 -143.997571 
L 109.306772 -143.997571 
L 112.615073 -143.997571 
L 115.923373 -143.997571 
L 119.231674 -143.997571 
L 122.539974 -143.997571 
L 125.848274 -143.997571 
L 129.156575 -143.997571 
L 132.464875 -143.997571 
L 135.773176 -143.997571 
L 139.081476 -143.997571 
L 142.389776 -143.997571 
L 145.698077 -143.997571 
L 149.006377 -143.997571 
L 152.314678 -143.997571 
L 155.622978 -143.997571 
L 158.931278 -143.997571 
L 162.239579 -143.997571 
L 165.547879 -143.997571 
L 168.85618 -143.997571 
L 172.16448 -143.997571 
L 175.47278 -143.997571 
L 178.781081 -143.997571 
L 182.089381 -143.997571 
L 185.397682 -143.997571 
L 188.705982 -143.997571 
L 192.014282 -143.997571 
L 195.322583 -143.997571 
L 198.630883 -143.997571 
L 201.939184 -143.997571 
L 205.247484 -143.997571 
L 208.555784 -143.997571 
L 211.864085 -143.997571 
L 215.172385 -143.997571 
L 218.480686 -143.997571 
L 221.788986 -143.997571 
L 225.097286 -143.997571 
L 228.405587 -143.997571 
L 231.713887 -143.997571 
L 235.022188 -143.997571 
L 238.330488 -143.997571 
L 241.638788 -143.997571 
L 244.947089 -143.997571 
L 248.255389 -143.997571 
L 251.563689 -143.997571 
L 254.87199 -143.997571 
L 258.18029 -143.997571 
L 261.488591 -143.997571 
L 264.796891 -143.997571 
L 268.105191 -143.997571 
L 271.413492 -143.997571 
L 274.721792 -143.997571 
L 278.030093 -143.997571 
L 281.338393 -143.997571 
L 284.646693 -143.997571 
L 287.954994 -143.997571 
L 291.263294 -143.997571 
L 294.571595 -143.997571 
L 297.879895 -143.997571 
L 301.188195 -143.997571 
L 304.496496 -143.997571 
L 307.804796 -143.997571 
L 311.113097 -143.997571 
L 314.421397 -143.997571 
L 317.729697 -143.997571 
L 321.037998 -143.997571 
L 324.346298 -143.997571 
L 327.654599 -143.997571 
L 330.962899 -143.997571 
L 334.271199 -143.997571 
L 337.5795 -143.997571 
L 340.8878 -143.997571 
L 344.196101 -143.997571 
L 347.504401 -143.997571 
L 350.812701 -143.997571 
L 354.121002 -143.997571 
L 357.429302 -143.997571 
L 360.737603 -143.997571 
L 364.045903 -143.997571 
L 367.354203 -143.997571 
L 370.662504 -143.997571 
L 373.970804 -143.997571 
L 377.279104 -143.997571 
L 380.587405 -143.997571 
L 383.895705 -143.997571 
L 387.204006 -143.997571 
L 387.204006 -197.505463 
L 387.204006 -197.505463 
L 383.895705 -180.956038 
L 380.587405 -170.448722 
L 377.279104 -168.989265 
L 373.970804 -167.918844 
L 370.662504 -165.874798 
L 367.354203 -165.417853 
L 364.045903 -164.723343 
L 360.737603 -163.791565 
L 357.429302 -162.779316 
L 354.121002 -159.709841 
L 350.812701 -157.300156 
L 347.504401 -157.016483 
L 344.196101 -156.97174 
L 340.8878 -156.600218 
L 337.5795 -153.002504 
L 334.271199 -152.805741 
L 330.962899 -152.407133 
L 327.654599 -152.179558 
L 324.346298 -152.145732 
L 321.037998 -152.006278 
L 317.729697 -151.914643 
L 314.421397 -151.553874 
L 311.113097 -151.352714 
L 307.804796 -150.368607 
L 304.496496 -149.771625 
L 301.188195 -149.589777 
L 297.879895 -149.495653 
L 294.571595 -148.82909 
L 291.263294 -148.701061 
L 287.954994 -147.797253 
L 284.646693 -147.61834 
L 281.338393 -147.016301 
L 278.030093 -146.907456 
L 274.721792 -146.647842 
L 271.413492 -146.415536 
L 268.105191 -145.709938 
L 264.796891 -145.314641 
L 261.488591 -145.049915 
L 258.18029 -144.891825 
L 254.87199 -144.874885 
L 251.563689 -144.854899 
L 248.255389 -144.789248 
L 244.947089 -144.759749 
L 241.638788 -144.543715 
L 238.330488 -144.497012 
L 235.022188 -144.467035 
L 231.713887 -144.45625 
L 228.405587 -144.401861 
L 225.097286 -144.303664 
L 221.788986 -144.245017 
L 218.480686 -144.238472 
L 215.172385 -144.087241 
L 211.864085 -144.022797 
L 208.555784 -143.999505 
L 205.247484 -143.98058 
L 201.939184 -143.9435 
L 198.630883 -143.94286 
L 195.322583 -143.867558 
L 192.014282 -143.858181 
L 188.705982 -143.844241 
L 185.397682 -143.819737 
L 182.089381 -143.783887 
L 178.781081 -143.73495 
L 175.47278 -143.711151 
L 172.16448 -143.657065 
L 168.85618 -143.648979 
L 165.547879 -143.644532 
L 162.239579 -143.571553 
L 158.931278 -143.547887 
L 155.622978 -143.442905 
L 152.314678 -143.416817 
L 149.006377 -143.373422 
L 145.698077 -143.35871 
L 142.389776 -143.277514 
L 139.081476 -142.930929 
L 135.773176 -142.723699 
L 132.464875 -142.679633 
L 129.156575 -142.553126 
L 125.848274 -142.539651 
L 122.539974 -142.509627 
L 119.231674 -142.4984 
L 115.923373 -138.110153 
L 112.615073 -135.785895 
L 109.306772 -135.408465 
L 105.998472 -134.975731 
L 102.690172 -131.491145 
L 99.381871 -128.806644 
L 96.073571 -127.436057 
L 92.765271 -125.776565 
L 89.45697 -123.968899 
L 86.14867 -120.534347 
L 82.840369 -120.376457 
z
" id="mab6d29248f" style="stroke:#4a98c9;"/>
    </defs>
    <g clip-path="url(#p7fbcc6395b)">
     <use style="fill:#4a98c9;stroke:#4a98c9;" x="0" xlink:href="#mab6d29248f" y="354.04"/>
    </g>
   </g>
   <g id="PolyCollection_2">
    <defs>
     <path d="M 82.840369 -25.82 
L 82.840369 -143.997571 
L 86.14867 -143.997571 
L 89.45697 -143.997571 
L 92.765271 -143.997571 
L 96.073571 -143.997571 
L 99.381871 -143.997571 
L 102.690172 -143.997571 
L 105.998472 -143.997571 
L 109.306772 -143.997571 
L 112.615073 -143.997571 
L 115.923373 -143.997571 
L 119.231674 -143.997571 
L 122.539974 -143.997571 
L 125.848274 -143.997571 
L 129.156575 -143.997571 
L 132.464875 -143.997571 
L 135.773176 -143.997571 
L 139.081476 -143.997571 
L 142.389776 -143.997571 
L 145.698077 -143.997571 
L 149.006377 -143.997571 
L 152.314678 -143.997571 
L 155.622978 -143.997571 
L 158.931278 -143.997571 
L 162.239579 -143.997571 
L 165.547879 -143.997571 
L 168.85618 -143.997571 
L 172.16448 -143.997571 
L 175.47278 -143.997571 
L 178.781081 -143.997571 
L 182.089381 -143.997571 
L 185.397682 -143.997571 
L 188.705982 -143.997571 
L 192.014282 -143.997571 
L 195.322583 -143.997571 
L 198.630883 -143.997571 
L 201.939184 -143.997571 
L 205.247484 -143.997571 
L 208.555784 -143.997571 
L 211.864085 -143.997571 
L 215.172385 -143.997571 
L 218.480686 -143.997571 
L 221.788986 -143.997571 
L 225.097286 -143.997571 
L 228.405587 -143.997571 
L 231.713887 -143.997571 
L 235.022188 -143.997571 
L 238.330488 -143.997571 
L 241.638788 -143.997571 
L 244.947089 -143.997571 
L 248.255389 -143.997571 
L 251.563689 -143.997571 
L 254.87199 -143.997571 
L 258.18029 -143.997571 
L 261.488591 -143.997571 
L 264.796891 -143.997571 
L 268.105191 -143.997571 
L 271.413492 -143.997571 
L 274.721792 -143.997571 
L 278.030093 -143.997571 
L 281.338393 -143.997571 
L 284.646693 -143.997571 
L 287.954994 -143.997571 
L 291.263294 -143.997571 
L 294.571595 -143.997571 
L 297.879895 -143.997571 
L 301.188195 -143.997571 
L 304.496496 -143.997571 
L 307.804796 -143.997571 
L 311.113097 -143.997571 
L 314.421397 -143.997571 
L 317.729697 -143.997571 
L 321.037998 -143.997571 
L 324.346298 -143.997571 
L 327.654599 -143.997571 
L 330.962899 -143.997571 
L 334.271199 -143.997571 
L 337.5795 -143.997571 
L 340.8878 -143.997571 
L 344.196101 -143.997571 
L 347.504401 -143.997571 
L 350.812701 -143.997571 
L 354.121002 -143.997571 
L 357.429302 -143.997571 
L 360.737603 -143.997571 
L 364.045903 -143.997571 
L 367.354203 -143.997571 
L 370.662504 -143.997571 
L 373.970804 -143.997571 
L 377.279104 -143.997571 
L 380.587405 -143.997571 
L 383.895705 -143.997571 
L 387.204006 -143.997571 
L 387.204006 -328.22 
L 387.204006 -328.22 
L 383.895705 -312.665664 
L 380.587405 -235.126586 
L 377.279104 -226.690454 
L 373.970804 -224.475279 
L 370.662504 -210.046793 
L 367.354203 -205.112419 
L 364.045903 -199.34083 
L 360.737603 -195.653177 
L 357.429302 -193.785894 
L 354.121002 -190.921315 
L 350.812701 -188.971508 
L 347.504401 -184.712305 
L 344.196101 -182.977211 
L 340.8878 -179.478419 
L 337.5795 -178.873308 
L 334.271199 -173.690969 
L 330.962899 -169.012861 
L 327.654599 -167.316993 
L 324.346298 -166.957441 
L 321.037998 -165.145141 
L 317.729697 -163.785656 
L 314.421397 -157.40348 
L 311.113097 -157.214603 
L 307.804796 -156.565082 
L 304.496496 -155.163735 
L 301.188195 -153.750627 
L 297.879895 -152.441894 
L 294.571595 -151.193803 
L 291.263294 -149.28696 
L 287.954994 -148.439178 
L 284.646693 -147.79523 
L 281.338393 -147.499222 
L 278.030093 -147.325497 
L 274.721792 -146.84183 
L 271.413492 -146.66184 
L 268.105191 -145.919391 
L 264.796891 -145.883302 
L 261.488591 -145.769725 
L 258.18029 -144.422574 
L 254.87199 -144.390696 
L 251.563689 -144.259494 
L 248.255389 -144.224298 
L 244.947089 -144.218922 
L 241.638788 -144.211869 
L 238.330488 -144.15167 
L 235.022188 -144.147651 
L 231.713887 -144.12659 
L 228.405587 -144.103009 
L 225.097286 -144.086519 
L 221.788986 -144.02895 
L 218.480686 -144.027584 
L 215.172385 -144.025531 
L 211.864085 -144.023951 
L 208.555784 -144.00801 
L 205.247484 -143.992637 
L 201.939184 -143.955951 
L 198.630883 -143.949125 
L 195.322583 -143.939669 
L 192.014282 -143.936562 
L 188.705982 -143.913602 
L 185.397682 -143.905304 
L 182.089381 -143.881529 
L 178.781081 -143.876699 
L 175.47278 -143.826637 
L 172.16448 -143.793666 
L 168.85618 -143.784601 
L 165.547879 -143.780209 
L 162.239579 -143.754585 
L 158.931278 -143.751362 
L 155.622978 -143.683149 
L 152.314678 -143.647409 
L 149.006377 -143.635827 
L 145.698077 -143.602616 
L 142.389776 -143.580468 
L 139.081476 -143.068597 
L 135.773176 -142.767265 
L 132.464875 -142.675494 
L 129.156575 -141.465128 
L 125.848274 -139.70538 
L 122.539974 -137.874104 
L 119.231674 -133.776686 
L 115.923373 -129.608272 
L 112.615073 -127.111341 
L 109.306772 -125.643821 
L 105.998472 -121.550747 
L 102.690172 -121.04605 
L 99.381871 -116.718846 
L 96.073571 -97.185533 
L 92.765271 -88.166171 
L 89.45697 -69.241477 
L 86.14867 -57.234632 
L 82.840369 -25.82 
z
" id="mf442a55724" style="stroke:#f14432;stroke-opacity:0.8;"/>
    </defs>
    <g clip-path="url(#p7fbcc6395b)">
     <use style="fill:#f14432;fill-opacity:0.8;stroke:#f14432;stroke-opacity:0.8;" x="0" xlink:href="#mf442a55724" y="354.04"/>
    </g>
   </g>
   <g id="matplotlib.axis_1"/>
   <g id="matplotlib.axis_2">
    <g id="ytick_1">
     <g id="line2d_1">
      <defs>
       <path d="M 0 0 
L -3.5 0 
" id="m0ee393e0ae" style="stroke:#000000;stroke-width:0.8;"/>
      </defs>
      <g>
       <use style="stroke:#000000;stroke-width:0.8;" x="67.622187" xlink:href="#m0ee393e0ae" y="305.189228"/>
      </g>
     </g>
     <g id="text_1">
      <!-- −0.2 -->
      <defs>
       <path d="M 10.59375 35.5 
L 73.1875 35.5 
L 73.1875 27.203125 
L 10.59375 27.203125 
z
" id="DejaVuSans-2212"/>
       <path d="M 31.78125 66.40625 
Q 24.171875 66.40625 20.328125 58.90625 
Q 16.5 51.421875 16.5 36.375 
Q 16.5 21.390625 20.328125 13.890625 
Q 24.171875 6.390625 31.78125 6.390625 
Q 39.453125 6.390625 43.28125 13.890625 
Q 47.125 21.390625 47.125 36.375 
Q 47.125 51.421875 43.28125 58.90625 
Q 39.453125 66.40625 31.78125 66.40625 
z
M 31.78125 74.21875 
Q 44.046875 74.21875 50.515625 64.515625 
Q 56.984375 54.828125 56.984375 36.375 
Q 56.984375 17.96875 50.515625 8.265625 
Q 44.046875 -1.421875 31.78125 -1.421875 
Q 19.53125 -1.421875 13.0625 8.265625 
Q 6.59375 17.96875 6.59375 36.375 
Q 6.59375 54.828125 13.0625 64.515625 
Q 19.53125 74.21875 31.78125 74.21875 
z
" id="DejaVuSans-30"/>
       <path d="M 10.6875 12.40625 
L 21 12.40625 
L 21 0 
L 10.6875 0 
z
" id="DejaVuSans-2e"/>
       <path d="M 19.1875 8.296875 
L 53.609375 8.296875 
L 53.609375 0 
L 7.328125 0 
L 7.328125 8.296875 
Q 12.9375 14.109375 22.625 23.890625 
Q 32.328125 33.6875 34.8125 36.53125 
Q 39.546875 41.84375 41.421875 45.53125 
Q 43.3125 49.21875 43.3125 52.78125 
Q 43.3125 58.59375 39.234375 62.25 
Q 35.15625 65.921875 28.609375 65.921875 
Q 23.96875 65.921875 18.8125 64.3125 
Q 13.671875 62.703125 7.8125 59.421875 
L 7.8125 69.390625 
Q 13.765625 71.78125 18.9375 73 
Q 24.125 74.21875 28.421875 74.21875 
Q 39.75 74.21875 46.484375 68.546875 
Q 53.21875 62.890625 53.21875 53.421875 
Q 53.21875 48.921875 51.53125 44.890625 
Q 49.859375 40.875 45.40625 35.40625 
Q 44.1875 33.984375 37.640625 27.21875 
Q 31.109375 20.453125 19.1875 8.296875 
z
" id="DejaVuSans-32"/>
      </defs>
      <g transform="translate(7.2 313.54751)scale(0.22 -0.22)">
       <use xlink:href="#DejaVuSans-2212"/>
       <use x="83.789062" xlink:href="#DejaVuSans-30"/>
       <use x="147.412109" xlink:href="#DejaVuSans-2e"/>
       <use x="179.199219" xlink:href="#DejaVuSans-32"/>
      </g>
     </g>
    </g>
    <g id="ytick_2">
     <g id="line2d_2">
      <g>
       <use style="stroke:#000000;stroke-width:0.8;" x="67.622187" xlink:href="#m0ee393e0ae" y="257.615829"/>
      </g>
     </g>
     <g id="text_2">
      <!-- −0.1 -->
      <defs>
       <path d="M 12.40625 8.296875 
L 28.515625 8.296875 
L 28.515625 63.921875 
L 10.984375 60.40625 
L 10.984375 69.390625 
L 28.421875 72.90625 
L 38.28125 72.90625 
L 38.28125 8.296875 
L 54.390625 8.296875 
L 54.390625 0 
L 12.40625 0 
z
" id="DejaVuSans-31"/>
      </defs>
      <g transform="translate(7.2 265.97411)scale(0.22 -0.22)">
       <use xlink:href="#DejaVuSans-2212"/>
       <use x="83.789062" xlink:href="#DejaVuSans-30"/>
       <use x="147.412109" xlink:href="#DejaVuSans-2e"/>
       <use x="179.199219" xlink:href="#DejaVuSans-31"/>
      </g>
     </g>
    </g>
    <g id="ytick_3">
     <g id="line2d_3">
      <g>
       <use style="stroke:#000000;stroke-width:0.8;" x="67.622187" xlink:href="#m0ee393e0ae" y="210.042429"/>
      </g>
     </g>
     <g id="text_3">
      <!-- 0.0 -->
      <g transform="translate(25.635312 218.40071)scale(0.22 -0.22)">
       <use xlink:href="#DejaVuSans-30"/>
       <use x="63.623047" xlink:href="#DejaVuSans-2e"/>
       <use x="95.410156" xlink:href="#DejaVuSans-30"/>
      </g>
     </g>
    </g>
    <g id="ytick_4">
     <g id="line2d_4">
      <g>
       <use style="stroke:#000000;stroke-width:0.8;" x="67.622187" xlink:href="#m0ee393e0ae" y="162.469029"/>
      </g>
     </g>
     <g id="text_4">
      <!-- 0.1 -->
      <g transform="translate(25.635312 170.827311)scale(0.22 -0.22)">
       <use xlink:href="#DejaVuSans-30"/>
       <use x="63.623047" xlink:href="#DejaVuSans-2e"/>
       <use x="95.410156" xlink:href="#DejaVuSans-31"/>
      </g>
     </g>
    </g>
    <g id="ytick_5">
     <g id="line2d_5">
      <g>
       <use style="stroke:#000000;stroke-width:0.8;" x="67.622187" xlink:href="#m0ee393e0ae" y="114.89563"/>
      </g>
     </g>
     <g id="text_5">
      <!-- 0.2 -->
      <g transform="translate(25.635312 123.253911)scale(0.22 -0.22)">
       <use xlink:href="#DejaVuSans-30"/>
       <use x="63.623047" xlink:href="#DejaVuSans-2e"/>
       <use x="95.410156" xlink:href="#DejaVuSans-32"/>
      </g>
     </g>
    </g>
    <g id="ytick_6">
     <g id="line2d_6">
      <g>
       <use style="stroke:#000000;stroke-width:0.8;" x="67.622187" xlink:href="#m0ee393e0ae" y="67.32223"/>
      </g>
     </g>
     <g id="text_6">
      <!-- 0.3 -->
      <defs>
       <path d="M 40.578125 39.3125 
Q 47.65625 37.796875 51.625 33 
Q 55.609375 28.21875 55.609375 21.1875 
Q 55.609375 10.40625 48.1875 4.484375 
Q 40.765625 -1.421875 27.09375 -1.421875 
Q 22.515625 -1.421875 17.65625 -0.515625 
Q 12.796875 0.390625 7.625 2.203125 
L 7.625 11.71875 
Q 11.71875 9.328125 16.59375 8.109375 
Q 21.484375 6.890625 26.8125 6.890625 
Q 36.078125 6.890625 40.9375 10.546875 
Q 45.796875 14.203125 45.796875 21.1875 
Q 45.796875 27.640625 41.28125 31.265625 
Q 36.765625 34.90625 28.71875 34.90625 
L 20.21875 34.90625 
L 20.21875 43.015625 
L 29.109375 43.015625 
Q 36.375 43.015625 40.234375 45.921875 
Q 44.09375 48.828125 44.09375 54.296875 
Q 44.09375 59.90625 40.109375 62.90625 
Q 36.140625 65.921875 28.71875 65.921875 
Q 24.65625 65.921875 20.015625 65.03125 
Q 15.375 64.15625 9.8125 62.3125 
L 9.8125 71.09375 
Q 15.4375 72.65625 20.34375 73.4375 
Q 25.25 74.21875 29.59375 74.21875 
Q 40.828125 74.21875 47.359375 69.109375 
Q 53.90625 64.015625 53.90625 55.328125 
Q 53.90625 49.265625 50.4375 45.09375 
Q 46.96875 40.921875 40.578125 39.3125 
z
" id="DejaVuSans-33"/>
      </defs>
      <g transform="translate(25.635312 75.680511)scale(0.22 -0.22)">
       <use xlink:href="#DejaVuSans-30"/>
       <use x="63.623047" xlink:href="#DejaVuSans-2e"/>
       <use x="95.410156" xlink:href="#DejaVuSans-33"/>
      </g>
     </g>
    </g>
    <g id="ytick_7">
     <g id="line2d_7">
      <g>
       <use style="stroke:#000000;stroke-width:0.8;" x="67.622187" xlink:href="#m0ee393e0ae" y="19.74883"/>
      </g>
     </g>
     <g id="text_7">
      <!-- 0.4 -->
      <defs>
       <path d="M 37.796875 64.3125 
L 12.890625 25.390625 
L 37.796875 25.390625 
z
M 35.203125 72.90625 
L 47.609375 72.90625 
L 47.609375 25.390625 
L 58.015625 25.390625 
L 58.015625 17.1875 
L 47.609375 17.1875 
L 47.609375 0 
L 37.796875 0 
L 37.796875 17.1875 
L 4.890625 17.1875 
L 4.890625 26.703125 
z
" id="DejaVuSans-34"/>
      </defs>
      <g transform="translate(25.635312 28.107112)scale(0.22 -0.22)">
       <use xlink:href="#DejaVuSans-30"/>
       <use x="63.623047" xlink:href="#DejaVuSans-2e"/>
       <use x="95.410156" xlink:href="#DejaVuSans-34"/>
      </g>
     </g>
    </g>
   </g>
   <g id="patch_3">
    <path d="M 67.622187 343.34 
L 67.622187 10.7 
" style="fill:none;stroke:#000000;stroke-linecap:square;stroke-linejoin:miter;stroke-width:0.8;"/>
   </g>
   <g id="patch_4">
    <path d="M 402.422188 343.34 
L 402.422188 10.7 
" style="fill:none;stroke:#000000;stroke-linecap:square;stroke-linejoin:miter;stroke-width:0.8;"/>
   </g>
   <g id="patch_5">
    <path d="M 67.622187 343.34 
L 402.422188 343.34 
" style="fill:none;stroke:#000000;stroke-linecap:square;stroke-linejoin:miter;stroke-width:0.8;"/>
   </g>
   <g id="patch_6">
    <path d="M 67.622187 10.7 
L 402.422188 10.7 
" style="fill:none;stroke:#000000;stroke-linecap:square;stroke-linejoin:miter;stroke-width:0.8;"/>
   </g>
  </g>
 </g>
 <defs>
  <clipPath id="p7fbcc6395b">
   <rect height="332.64" width="334.8" x="67.622187" y="10.7"/>
  </clipPath>
 </defs>
</svg>
