<?xml version="1.0" encoding="utf-8" standalone="no"?>
<!DOCTYPE svg PUBLIC "-//W3C//DTD SVG 1.1//EN"
  "http://www.w3.org/Graphics/SVG/1.1/DTD/svg11.dtd">
<!-- Created with matplotlib (http://matplotlib.org/) -->
<svg height="354pt" version="1.1" viewBox="0 0 413 354" width="413pt" xmlns="http://www.w3.org/2000/svg" xmlns:xlink="http://www.w3.org/1999/xlink">
 <defs>
  <style type="text/css">
*{stroke-linecap:butt;stroke-linejoin:round;}
  </style>
 </defs>
 <g id="figure_1">
  <g id="patch_1">
   <path d="M 0 354.04 
L 413.122187 354.04 
L 413.122187 0 
L 0 0 
z
" style="fill:#ffffff;"/>
  </g>
  <g id="axes_1">
   <g id="patch_2">
    <path d="M 67.622187 343.34 
L 402.422188 343.34 
L 402.422188 10.7 
L 67.622187 10.7 
z
" style="fill:#ffffff;"/>
   </g>
   <g id="PolyCollection_1">
    <defs>
     <path d="M 82.840369 -25.82 
L 82.840369 -141.43194 
L 86.14867 -141.43194 
L 89.45697 -141.43194 
L 92.765271 -141.43194 
L 96.073571 -141.43194 
L 99.381871 -141.43194 
L 102.690172 -141.43194 
L 105.998472 -141.43194 
L 109.306772 -141.43194 
L 112.615073 -141.43194 
L 115.923373 -141.43194 
L 119.231674 -141.43194 
L 122.539974 -141.43194 
L 125.848274 -141.43194 
L 129.156575 -141.43194 
L 132.464875 -141.43194 
L 135.773176 -141.43194 
L 139.081476 -141.43194 
L 142.389776 -141.43194 
L 145.698077 -141.43194 
L 149.006377 -141.43194 
L 152.314678 -141.43194 
L 155.622978 -141.43194 
L 158.931278 -141.43194 
L 162.239579 -141.43194 
L 165.547879 -141.43194 
L 168.85618 -141.43194 
L 172.16448 -141.43194 
L 175.47278 -141.43194 
L 178.781081 -141.43194 
L 182.089381 -141.43194 
L 185.397682 -141.43194 
L 188.705982 -141.43194 
L 192.014282 -141.43194 
L 195.322583 -141.43194 
L 198.630883 -141.43194 
L 201.939184 -141.43194 
L 205.247484 -141.43194 
L 208.555784 -141.43194 
L 211.864085 -141.43194 
L 215.172385 -141.43194 
L 218.480686 -141.43194 
L 221.788986 -141.43194 
L 225.097286 -141.43194 
L 228.405587 -141.43194 
L 231.713887 -141.43194 
L 235.022188 -141.43194 
L 238.330488 -141.43194 
L 241.638788 -141.43194 
L 244.947089 -141.43194 
L 248.255389 -141.43194 
L 251.563689 -141.43194 
L 254.87199 -141.43194 
L 258.18029 -141.43194 
L 261.488591 -141.43194 
L 264.796891 -141.43194 
L 268.105191 -141.43194 
L 271.413492 -141.43194 
L 274.721792 -141.43194 
L 278.030093 -141.43194 
L 281.338393 -141.43194 
L 284.646693 -141.43194 
L 287.954994 -141.43194 
L 291.263294 -141.43194 
L 294.571595 -141.43194 
L 297.879895 -141.43194 
L 301.188195 -141.43194 
L 304.496496 -141.43194 
L 307.804796 -141.43194 
L 311.113097 -141.43194 
L 314.421397 -141.43194 
L 317.729697 -141.43194 
L 321.037998 -141.43194 
L 324.346298 -141.43194 
L 327.654599 -141.43194 
L 330.962899 -141.43194 
L 334.271199 -141.43194 
L 337.5795 -141.43194 
L 340.8878 -141.43194 
L 344.196101 -141.43194 
L 347.504401 -141.43194 
L 350.812701 -141.43194 
L 354.121002 -141.43194 
L 357.429302 -141.43194 
L 360.737603 -141.43194 
L 364.045903 -141.43194 
L 367.354203 -141.43194 
L 370.662504 -141.43194 
L 373.970804 -141.43194 
L 377.279104 -141.43194 
L 380.587405 -141.43194 
L 383.895705 -141.43194 
L 387.204006 -141.43194 
L 387.204006 -328.22 
L 387.204006 -328.22 
L 383.895705 -310.366122 
L 380.587405 -288.57471 
L 377.279104 -261.935326 
L 373.970804 -238.519722 
L 370.662504 -221.790223 
L 367.354203 -220.685486 
L 364.045903 -218.786867 
L 360.737603 -211.629137 
L 357.429302 -210.609726 
L 354.121002 -209.987689 
L 350.812701 -207.712064 
L 347.504401 -187.167546 
L 344.196101 -177.800923 
L 340.8878 -176.06343 
L 337.5795 -175.106336 
L 334.271199 -166.326826 
L 330.962899 -163.338889 
L 327.654599 -161.740544 
L 324.346298 -161.312028 
L 321.037998 -160.782474 
L 317.729697 -157.648174 
L 314.421397 -156.850254 
L 311.113097 -156.744459 
L 307.804796 -156.148038 
L 304.496496 -155.977824 
L 301.188195 -154.832612 
L 297.879895 -154.039247 
L 294.571595 -153.905775 
L 291.263294 -152.890645 
L 287.954994 -150.518222 
L 284.646693 -150.36172 
L 281.338393 -149.366319 
L 278.030093 -149.294649 
L 274.721792 -148.90576 
L 271.413492 -148.638776 
L 268.105191 -147.808574 
L 264.796891 -147.25205 
L 261.488591 -147.232081 
L 258.18029 -146.901036 
L 254.87199 -146.323056 
L 251.563689 -145.801184 
L 248.255389 -145.359808 
L 244.947089 -144.940172 
L 241.638788 -144.804764 
L 238.330488 -144.712322 
L 235.022188 -144.544669 
L 231.713887 -144.19706 
L 228.405587 -144.031813 
L 225.097286 -143.845697 
L 221.788986 -142.652278 
L 218.480686 -142.472567 
L 215.172385 -141.756916 
L 211.864085 -141.683926 
L 208.555784 -141.617303 
L 205.247484 -141.540099 
L 201.939184 -141.065504 
L 198.630883 -140.467358 
L 195.322583 -140.347001 
L 192.014282 -140.028023 
L 188.705982 -139.232412 
L 185.397682 -138.969132 
L 182.089381 -138.037473 
L 178.781081 -136.971192 
L 175.47278 -135.00585 
L 172.16448 -134.713855 
L 168.85618 -134.392519 
L 165.547879 -132.207206 
L 162.239579 -130.056579 
L 158.931278 -130.021612 
L 155.622978 -129.115683 
L 152.314678 -127.433572 
L 149.006377 -126.228799 
L 145.698077 -124.897236 
L 142.389776 -123.79863 
L 139.081476 -123.596525 
L 135.773176 -122.814003 
L 132.464875 -121.334362 
L 129.156575 -116.256784 
L 125.848274 -115.233851 
L 122.539974 -112.155249 
L 119.231674 -111.656568 
L 115.923373 -110.423275 
L 112.615073 -108.27407 
L 109.306772 -97.464954 
L 105.998472 -94.024109 
L 102.690172 -83.235918 
L 99.381871 -62.408533 
L 96.073571 -61.240327 
L 92.765271 -58.354546 
L 89.45697 -52.010356 
L 86.14867 -32.470586 
L 82.840369 -25.82 
z
" id="md64d0059ba" style="stroke:#4a98c9;"/>
    </defs>
    <g clip-path="url(#pad7087582a)">
     <use style="fill:#4a98c9;stroke:#4a98c9;" x="0" xlink:href="#md64d0059ba" y="354.04"/>
    </g>
   </g>
   <g id="PolyCollection_2">
    <defs>
     <path d="M 82.840369 -112.257272 
L 82.840369 -141.43194 
L 86.14867 -141.43194 
L 89.45697 -141.43194 
L 92.765271 -141.43194 
L 96.073571 -141.43194 
L 99.381871 -141.43194 
L 102.690172 -141.43194 
L 105.998472 -141.43194 
L 109.306772 -141.43194 
L 112.615073 -141.43194 
L 115.923373 -141.43194 
L 119.231674 -141.43194 
L 122.539974 -141.43194 
L 125.848274 -141.43194 
L 129.156575 -141.43194 
L 132.464875 -141.43194 
L 135.773176 -141.43194 
L 139.081476 -141.43194 
L 142.389776 -141.43194 
L 145.698077 -141.43194 
L 149.006377 -141.43194 
L 152.314678 -141.43194 
L 155.622978 -141.43194 
L 158.931278 -141.43194 
L 162.239579 -141.43194 
L 165.547879 -141.43194 
L 168.85618 -141.43194 
L 172.16448 -141.43194 
L 175.47278 -141.43194 
L 178.781081 -141.43194 
L 182.089381 -141.43194 
L 185.397682 -141.43194 
L 188.705982 -141.43194 
L 192.014282 -141.43194 
L 195.322583 -141.43194 
L 198.630883 -141.43194 
L 201.939184 -141.43194 
L 205.247484 -141.43194 
L 208.555784 -141.43194 
L 211.864085 -141.43194 
L 215.172385 -141.43194 
L 218.480686 -141.43194 
L 221.788986 -141.43194 
L 225.097286 -141.43194 
L 228.405587 -141.43194 
L 231.713887 -141.43194 
L 235.022188 -141.43194 
L 238.330488 -141.43194 
L 241.638788 -141.43194 
L 244.947089 -141.43194 
L 248.255389 -141.43194 
L 251.563689 -141.43194 
L 254.87199 -141.43194 
L 258.18029 -141.43194 
L 261.488591 -141.43194 
L 264.796891 -141.43194 
L 268.105191 -141.43194 
L 271.413492 -141.43194 
L 274.721792 -141.43194 
L 278.030093 -141.43194 
L 281.338393 -141.43194 
L 284.646693 -141.43194 
L 287.954994 -141.43194 
L 291.263294 -141.43194 
L 294.571595 -141.43194 
L 297.879895 -141.43194 
L 301.188195 -141.43194 
L 304.496496 -141.43194 
L 307.804796 -141.43194 
L 311.113097 -141.43194 
L 314.421397 -141.43194 
L 317.729697 -141.43194 
L 321.037998 -141.43194 
L 324.346298 -141.43194 
L 327.654599 -141.43194 
L 330.962899 -141.43194 
L 334.271199 -141.43194 
L 337.5795 -141.43194 
L 340.8878 -141.43194 
L 344.196101 -141.43194 
L 347.504401 -141.43194 
L 350.812701 -141.43194 
L 354.121002 -141.43194 
L 357.429302 -141.43194 
L 360.737603 -141.43194 
L 364.045903 -141.43194 
L 367.354203 -141.43194 
L 370.662504 -141.43194 
L 373.970804 -141.43194 
L 377.279104 -141.43194 
L 380.587405 -141.43194 
L 383.895705 -141.43194 
L 387.204006 -141.43194 
L 387.204006 -184.622498 
L 387.204006 -184.622498 
L 383.895705 -182.676574 
L 380.587405 -170.282831 
L 377.279104 -167.981187 
L 373.970804 -166.021371 
L 370.662504 -164.794381 
L 367.354203 -161.291747 
L 364.045903 -160.025586 
L 360.737603 -157.386934 
L 357.429302 -157.077467 
L 354.121002 -155.624295 
L 350.812701 -155.012236 
L 347.504401 -154.804453 
L 344.196101 -154.600315 
L 340.8878 -154.223036 
L 337.5795 -153.301829 
L 334.271199 -152.183506 
L 330.962899 -152.098653 
L 327.654599 -151.717557 
L 324.346298 -151.593175 
L 321.037998 -150.756367 
L 317.729697 -149.501638 
L 314.421397 -149.440413 
L 311.113097 -149.33116 
L 307.804796 -148.546289 
L 304.496496 -148.22662 
L 301.188195 -147.220775 
L 297.879895 -146.87048 
L 294.571595 -145.90491 
L 291.263294 -145.9007 
L 287.954994 -145.385374 
L 284.646693 -145.377536 
L 281.338393 -145.374026 
L 278.030093 -144.802451 
L 274.721792 -144.592777 
L 271.413492 -144.533388 
L 268.105191 -144.372955 
L 264.796891 -144.323883 
L 261.488591 -144.136365 
L 258.18029 -144.11915 
L 254.87199 -143.740783 
L 251.563689 -143.566409 
L 248.255389 -142.79004 
L 244.947089 -142.221337 
L 241.638788 -142.167473 
L 238.330488 -142.014761 
L 235.022188 -141.83299 
L 231.713887 -141.703677 
L 228.405587 -141.45653 
L 225.097286 -141.36542 
L 221.788986 -141.263193 
L 218.480686 -141.256195 
L 215.172385 -140.928103 
L 211.864085 -140.896492 
L 208.555784 -140.775797 
L 205.247484 -140.649572 
L 201.939184 -140.629007 
L 198.630883 -140.467819 
L 195.322583 -140.466831 
L 192.014282 -140.341707 
L 188.705982 -140.264064 
L 185.397682 -140.165903 
L 182.089381 -140.04051 
L 178.781081 -139.972021 
L 175.47278 -139.819269 
L 172.16448 -139.816108 
L 168.85618 -139.353311 
L 165.547879 -139.234268 
L 162.239579 -138.974328 
L 158.931278 -138.80355 
L 155.622978 -138.675381 
L 152.314678 -138.465791 
L 149.006377 -138.104021 
L 145.698077 -138.02506 
L 142.389776 -137.930607 
L 139.081476 -137.747623 
L 135.773176 -136.648665 
L 132.464875 -136.199651 
L 129.156575 -135.047622 
L 125.848274 -134.642906 
L 122.539974 -134.145231 
L 119.231674 -134.089875 
L 115.923373 -133.514933 
L 112.615073 -131.377889 
L 109.306772 -129.111795 
L 105.998472 -128.809294 
L 102.690172 -127.06723 
L 99.381871 -127.031255 
L 96.073571 -126.355791 
L 92.765271 -124.899585 
L 89.45697 -123.469313 
L 86.14867 -118.903963 
L 82.840369 -112.257272 
z
" id="mb825c10f0e" style="stroke:#f14432;stroke-opacity:0.8;"/>
    </defs>
    <g clip-path="url(#pad7087582a)">
     <use style="fill:#f14432;fill-opacity:0.8;stroke:#f14432;stroke-opacity:0.8;" x="0" xlink:href="#mb825c10f0e" y="354.04"/>
    </g>
   </g>
   <g id="matplotlib.axis_1"/>
   <g id="matplotlib.axis_2">
    <g id="ytick_1">
     <g id="line2d_1">
      <defs>
       <path d="M 0 0 
L -3.5 0 
" id="m13a9ccb29a" style="stroke:#000000;stroke-width:0.8;"/>
      </defs>
      <g>
       <use style="stroke:#000000;stroke-width:0.8;" x="67.622187" xlink:href="#m13a9ccb29a" y="306.90029"/>
      </g>
     </g>
     <g id="text_1">
      <!-- −0.2 -->
      <defs>
       <path d="M 10.59375 35.5 
L 73.1875 35.5 
L 73.1875 27.203125 
L 10.59375 27.203125 
z
" id="DejaVuSans-2212"/>
       <path d="M 31.78125 66.40625 
Q 24.171875 66.40625 20.328125 58.90625 
Q 16.5 51.421875 16.5 36.375 
Q 16.5 21.390625 20.328125 13.890625 
Q 24.171875 6.390625 31.78125 6.390625 
Q 39.453125 6.390625 43.28125 13.890625 
Q 47.125 21.390625 47.125 36.375 
Q 47.125 51.421875 43.28125 58.90625 
Q 39.453125 66.40625 31.78125 66.40625 
z
M 31.78125 74.21875 
Q 44.046875 74.21875 50.515625 64.515625 
Q 56.984375 54.828125 56.984375 36.375 
Q 56.984375 17.96875 50.515625 8.265625 
Q 44.046875 -1.421875 31.78125 -1.421875 
Q 19.53125 -1.421875 13.0625 8.265625 
Q 6.59375 17.96875 6.59375 36.375 
Q 6.59375 54.828125 13.0625 64.515625 
Q 19.53125 74.21875 31.78125 74.21875 
z
" id="DejaVuSans-30"/>
       <path d="M 10.6875 12.40625 
L 21 12.40625 
L 21 0 
L 10.6875 0 
z
" id="DejaVuSans-2e"/>
       <path d="M 19.1875 8.296875 
L 53.609375 8.296875 
L 53.609375 0 
L 7.328125 0 
L 7.328125 8.296875 
Q 12.9375 14.109375 22.625 23.890625 
Q 32.328125 33.6875 34.8125 36.53125 
Q 39.546875 41.84375 41.421875 45.53125 
Q 43.3125 49.21875 43.3125 52.78125 
Q 43.3125 58.59375 39.234375 62.25 
Q 35.15625 65.921875 28.609375 65.921875 
Q 23.96875 65.921875 18.8125 64.3125 
Q 13.671875 62.703125 7.8125 59.421875 
L 7.8125 69.390625 
Q 13.765625 71.78125 18.9375 73 
Q 24.125 74.21875 28.421875 74.21875 
Q 39.75 74.21875 46.484375 68.546875 
Q 53.21875 62.890625 53.21875 53.421875 
Q 53.21875 48.921875 51.53125 44.890625 
Q 49.859375 40.875 45.40625 35.40625 
Q 44.1875 33.984375 37.640625 27.21875 
Q 31.109375 20.453125 19.1875 8.296875 
z
" id="DejaVuSans-32"/>
      </defs>
      <g transform="translate(7.2 315.258571)scale(0.22 -0.22)">
       <use xlink:href="#DejaVuSans-2212"/>
       <use x="83.789062" xlink:href="#DejaVuSans-30"/>
       <use x="147.412109" xlink:href="#DejaVuSans-2e"/>
       <use x="179.199219" xlink:href="#DejaVuSans-32"/>
      </g>
     </g>
    </g>
    <g id="ytick_2">
     <g id="line2d_2">
      <g>
       <use style="stroke:#000000;stroke-width:0.8;" x="67.622187" xlink:href="#m13a9ccb29a" y="259.754175"/>
      </g>
     </g>
     <g id="text_2">
      <!-- −0.1 -->
      <defs>
       <path d="M 12.40625 8.296875 
L 28.515625 8.296875 
L 28.515625 63.921875 
L 10.984375 60.40625 
L 10.984375 69.390625 
L 28.421875 72.90625 
L 38.28125 72.90625 
L 38.28125 8.296875 
L 54.390625 8.296875 
L 54.390625 0 
L 12.40625 0 
z
" id="DejaVuSans-31"/>
      </defs>
      <g transform="translate(7.2 268.112456)scale(0.22 -0.22)">
       <use xlink:href="#DejaVuSans-2212"/>
       <use x="83.789062" xlink:href="#DejaVuSans-30"/>
       <use x="147.412109" xlink:href="#DejaVuSans-2e"/>
       <use x="179.199219" xlink:href="#DejaVuSans-31"/>
      </g>
     </g>
    </g>
    <g id="ytick_3">
     <g id="line2d_3">
      <g>
       <use style="stroke:#000000;stroke-width:0.8;" x="67.622187" xlink:href="#m13a9ccb29a" y="212.60806"/>
      </g>
     </g>
     <g id="text_3">
      <!-- 0.0 -->
      <g transform="translate(25.635312 220.966341)scale(0.22 -0.22)">
       <use xlink:href="#DejaVuSans-30"/>
       <use x="63.623047" xlink:href="#DejaVuSans-2e"/>
       <use x="95.410156" xlink:href="#DejaVuSans-30"/>
      </g>
     </g>
    </g>
    <g id="ytick_4">
     <g id="line2d_4">
      <g>
       <use style="stroke:#000000;stroke-width:0.8;" x="67.622187" xlink:href="#m13a9ccb29a" y="165.461945"/>
      </g>
     </g>
     <g id="text_4">
      <!-- 0.1 -->
      <g transform="translate(25.635312 173.820226)scale(0.22 -0.22)">
       <use xlink:href="#DejaVuSans-30"/>
       <use x="63.623047" xlink:href="#DejaVuSans-2e"/>
       <use x="95.410156" xlink:href="#DejaVuSans-31"/>
      </g>
     </g>
    </g>
    <g id="ytick_5">
     <g id="line2d_5">
      <g>
       <use style="stroke:#000000;stroke-width:0.8;" x="67.622187" xlink:href="#m13a9ccb29a" y="118.31583"/>
      </g>
     </g>
     <g id="text_5">
      <!-- 0.2 -->
      <g transform="translate(25.635312 126.674111)scale(0.22 -0.22)">
       <use xlink:href="#DejaVuSans-30"/>
       <use x="63.623047" xlink:href="#DejaVuSans-2e"/>
       <use x="95.410156" xlink:href="#DejaVuSans-32"/>
      </g>
     </g>
    </g>
    <g id="ytick_6">
     <g id="line2d_6">
      <g>
       <use style="stroke:#000000;stroke-width:0.8;" x="67.622187" xlink:href="#m13a9ccb29a" y="71.169715"/>
      </g>
     </g>
     <g id="text_6">
      <!-- 0.3 -->
      <defs>
       <path d="M 40.578125 39.3125 
Q 47.65625 37.796875 51.625 33 
Q 55.609375 28.21875 55.609375 21.1875 
Q 55.609375 10.40625 48.1875 4.484375 
Q 40.765625 -1.421875 27.09375 -1.421875 
Q 22.515625 -1.421875 17.65625 -0.515625 
Q 12.796875 0.390625 7.625 2.203125 
L 7.625 11.71875 
Q 11.71875 9.328125 16.59375 8.109375 
Q 21.484375 6.890625 26.8125 6.890625 
Q 36.078125 6.890625 40.9375 10.546875 
Q 45.796875 14.203125 45.796875 21.1875 
Q 45.796875 27.640625 41.28125 31.265625 
Q 36.765625 34.90625 28.71875 34.90625 
L 20.21875 34.90625 
L 20.21875 43.015625 
L 29.109375 43.015625 
Q 36.375 43.015625 40.234375 45.921875 
Q 44.09375 48.828125 44.09375 54.296875 
Q 44.09375 59.90625 40.109375 62.90625 
Q 36.140625 65.921875 28.71875 65.921875 
Q 24.65625 65.921875 20.015625 65.03125 
Q 15.375 64.15625 9.8125 62.3125 
L 9.8125 71.09375 
Q 15.4375 72.65625 20.34375 73.4375 
Q 25.25 74.21875 29.59375 74.21875 
Q 40.828125 74.21875 47.359375 69.109375 
Q 53.90625 64.015625 53.90625 55.328125 
Q 53.90625 49.265625 50.4375 45.09375 
Q 46.96875 40.921875 40.578125 39.3125 
z
" id="DejaVuSans-33"/>
      </defs>
      <g transform="translate(25.635312 79.527996)scale(0.22 -0.22)">
       <use xlink:href="#DejaVuSans-30"/>
       <use x="63.623047" xlink:href="#DejaVuSans-2e"/>
       <use x="95.410156" xlink:href="#DejaVuSans-33"/>
      </g>
     </g>
    </g>
    <g id="ytick_7">
     <g id="line2d_7">
      <g>
       <use style="stroke:#000000;stroke-width:0.8;" x="67.622187" xlink:href="#m13a9ccb29a" y="24.0236"/>
      </g>
     </g>
     <g id="text_7">
      <!-- 0.4 -->
      <defs>
       <path d="M 37.796875 64.3125 
L 12.890625 25.390625 
L 37.796875 25.390625 
z
M 35.203125 72.90625 
L 47.609375 72.90625 
L 47.609375 25.390625 
L 58.015625 25.390625 
L 58.015625 17.1875 
L 47.609375 17.1875 
L 47.609375 0 
L 37.796875 0 
L 37.796875 17.1875 
L 4.890625 17.1875 
L 4.890625 26.703125 
z
" id="DejaVuSans-34"/>
      </defs>
      <g transform="translate(25.635312 32.381881)scale(0.22 -0.22)">
       <use xlink:href="#DejaVuSans-30"/>
       <use x="63.623047" xlink:href="#DejaVuSans-2e"/>
       <use x="95.410156" xlink:href="#DejaVuSans-34"/>
      </g>
     </g>
    </g>
   </g>
   <g id="patch_3">
    <path d="M 67.622187 343.34 
L 67.622187 10.7 
" style="fill:none;stroke:#000000;stroke-linecap:square;stroke-linejoin:miter;stroke-width:0.8;"/>
   </g>
   <g id="patch_4">
    <path d="M 402.422188 343.34 
L 402.422188 10.7 
" style="fill:none;stroke:#000000;stroke-linecap:square;stroke-linejoin:miter;stroke-width:0.8;"/>
   </g>
   <g id="patch_5">
    <path d="M 67.622187 343.34 
L 402.422188 343.34 
" style="fill:none;stroke:#000000;stroke-linecap:square;stroke-linejoin:miter;stroke-width:0.8;"/>
   </g>
   <g id="patch_6">
    <path d="M 67.622187 10.7 
L 402.422188 10.7 
" style="fill:none;stroke:#000000;stroke-linecap:square;stroke-linejoin:miter;stroke-width:0.8;"/>
   </g>
  </g>
 </g>
 <defs>
  <clipPath id="pad7087582a">
   <rect height="332.64" width="334.8" x="67.622187" y="10.7"/>
  </clipPath>
 </defs>
</svg>
