<?xml version="1.0" encoding="utf-8" standalone="no"?>
<!DOCTYPE svg PUBLIC "-//W3C//DTD SVG 1.1//EN"
  "http://www.w3.org/Graphics/SVG/1.1/DTD/svg11.dtd">
<!-- Created with matplotlib (http://matplotlib.org/) -->
<svg height="354pt" version="1.1" viewBox="0 0 441 354" width="441pt" xmlns="http://www.w3.org/2000/svg" xmlns:xlink="http://www.w3.org/1999/xlink">
 <defs>
  <style type="text/css">
*{stroke-linecap:butt;stroke-linejoin:round;}
  </style>
 </defs>
 <g id="figure_1">
  <g id="patch_1">
   <path d="M 0 354.04 
L 441.117188 354.04 
L 441.117188 0 
L 0 0 
z
" style="fill:#ffffff;"/>
  </g>
  <g id="axes_1">
   <g id="patch_2">
    <path d="M 95.617188 343.34 
L 430.417188 343.34 
L 430.417188 10.7 
L 95.617188 10.7 
z
" style="fill:#ffffff;"/>
   </g>
   <g id="PolyCollection_1">
    <defs>
     <path d="M 110.835369 -25.82 
L 110.835369 -159.342995 
L 114.14367 -159.342995 
L 117.45197 -159.342995 
L 120.760271 -159.342995 
L 124.068571 -159.342995 
L 127.376871 -159.342995 
L 130.685172 -159.342995 
L 133.993472 -159.342995 
L 137.301772 -159.342995 
L 140.610073 -159.342995 
L 143.918373 -159.342995 
L 147.226674 -159.342995 
L 150.534974 -159.342995 
L 153.843274 -159.342995 
L 157.151575 -159.342995 
L 160.459875 -159.342995 
L 163.768176 -159.342995 
L 167.076476 -159.342995 
L 170.384776 -159.342995 
L 173.693077 -159.342995 
L 177.001377 -159.342995 
L 180.309678 -159.342995 
L 183.617978 -159.342995 
L 186.926278 -159.342995 
L 190.234579 -159.342995 
L 193.542879 -159.342995 
L 196.85118 -159.342995 
L 200.15948 -159.342995 
L 203.46778 -159.342995 
L 206.776081 -159.342995 
L 210.084381 -159.342995 
L 213.392682 -159.342995 
L 216.700982 -159.342995 
L 220.009282 -159.342995 
L 223.317583 -159.342995 
L 226.625883 -159.342995 
L 229.934184 -159.342995 
L 233.242484 -159.342995 
L 236.550784 -159.342995 
L 239.859085 -159.342995 
L 243.167385 -159.342995 
L 246.475686 -159.342995 
L 249.783986 -159.342995 
L 253.092286 -159.342995 
L 256.400587 -159.342995 
L 259.708887 -159.342995 
L 263.017188 -159.342995 
L 266.325488 -159.342995 
L 269.633788 -159.342995 
L 272.942089 -159.342995 
L 276.250389 -159.342995 
L 279.558689 -159.342995 
L 282.86699 -159.342995 
L 286.17529 -159.342995 
L 289.483591 -159.342995 
L 292.791891 -159.342995 
L 296.100191 -159.342995 
L 299.408492 -159.342995 
L 302.716792 -159.342995 
L 306.025093 -159.342995 
L 309.333393 -159.342995 
L 312.641693 -159.342995 
L 315.949994 -159.342995 
L 319.258294 -159.342995 
L 322.566595 -159.342995 
L 325.874895 -159.342995 
L 329.183195 -159.342995 
L 332.491496 -159.342995 
L 335.799796 -159.342995 
L 339.108097 -159.342995 
L 342.416397 -159.342995 
L 345.724697 -159.342995 
L 349.032998 -159.342995 
L 352.341298 -159.342995 
L 355.649599 -159.342995 
L 358.957899 -159.342995 
L 362.266199 -159.342995 
L 365.5745 -159.342995 
L 368.8828 -159.342995 
L 372.191101 -159.342995 
L 375.499401 -159.342995 
L 378.807701 -159.342995 
L 382.116002 -159.342995 
L 385.424302 -159.342995 
L 388.732603 -159.342995 
L 392.040903 -159.342995 
L 395.349203 -159.342995 
L 398.657504 -159.342995 
L 401.965804 -159.342995 
L 405.274104 -159.342995 
L 408.582405 -159.342995 
L 411.890705 -159.342995 
L 415.199006 -159.342995 
L 415.199006 -328.22 
L 415.199006 -328.22 
L 411.890705 -276.981567 
L 408.582405 -267.132493 
L 405.274104 -253.943918 
L 401.965804 -250.382957 
L 398.657504 -239.437565 
L 395.349203 -232.170037 
L 392.040903 -231.445992 
L 388.732603 -230.712474 
L 385.424302 -227.979254 
L 382.116002 -219.160128 
L 378.807701 -216.09622 
L 375.499401 -213.252404 
L 372.191101 -211.94282 
L 368.8828 -209.539555 
L 365.5745 -209.494171 
L 362.266199 -206.26219 
L 358.957899 -206.14819 
L 355.649599 -194.25091 
L 352.341298 -193.787224 
L 349.032998 -190.929725 
L 345.724697 -189.600146 
L 342.416397 -188.525979 
L 339.108097 -185.660546 
L 335.799796 -185.384602 
L 332.491496 -182.858893 
L 329.183195 -182.046473 
L 325.874895 -180.254268 
L 322.566595 -179.874677 
L 319.258294 -179.086324 
L 315.949994 -175.748095 
L 312.641693 -174.391718 
L 309.333393 -173.662461 
L 306.025093 -173.312837 
L 302.716792 -171.004984 
L 299.408492 -168.455477 
L 296.100191 -167.890565 
L 292.791891 -167.359278 
L 289.483591 -166.001239 
L 286.17529 -165.394129 
L 282.86699 -164.912375 
L 279.558689 -163.909942 
L 276.250389 -161.594671 
L 272.942089 -161.49736 
L 269.633788 -161.451515 
L 266.325488 -161.308031 
L 263.017188 -161.117993 
L 259.708887 -160.916399 
L 256.400587 -160.679617 
L 253.092286 -160.532836 
L 249.783986 -160.072225 
L 246.475686 -159.834396 
L 243.167385 -159.800664 
L 239.859085 -159.747535 
L 236.550784 -159.671963 
L 233.242484 -159.543234 
L 229.934184 -159.499116 
L 226.625883 -159.201443 
L 223.317583 -159.065053 
L 220.009282 -159.039768 
L 216.700982 -159.024304 
L 213.392682 -158.960798 
L 210.084381 -158.84505 
L 206.776081 -158.688542 
L 203.46778 -158.666584 
L 200.15948 -158.587012 
L 196.85118 -158.416635 
L 193.542879 -157.989854 
L 190.234579 -157.810347 
L 186.926278 -157.680772 
L 183.617978 -157.617253 
L 180.309678 -157.578613 
L 177.001377 -156.682279 
L 173.693077 -156.492268 
L 170.384776 -156.191681 
L 167.076476 -155.40581 
L 163.768176 -154.587992 
L 160.459875 -154.110086 
L 157.151575 -153.721737 
L 153.843274 -153.477626 
L 150.534974 -153.353408 
L 147.226674 -151.093706 
L 143.918373 -149.921639 
L 140.610073 -149.879657 
L 137.301772 -149.867953 
L 133.993472 -143.092076 
L 130.685172 -124.982725 
L 127.376871 -124.128497 
L 124.068571 -108.746397 
L 120.760271 -98.74259 
L 117.45197 -86.726666 
L 114.14367 -48.831963 
L 110.835369 -25.82 
z
" id="m84c564d580" style="stroke:#4a98c9;"/>
    </defs>
    <g clip-path="url(#pfcb2078950)">
     <use style="fill:#4a98c9;stroke:#4a98c9;" x="0" xlink:href="#m84c564d580" y="354.04"/>
    </g>
   </g>
   <g id="PolyCollection_2">
    <defs>
     <path d="M 110.835369 -61.199614 
L 110.835369 -159.342995 
L 114.14367 -159.342995 
L 117.45197 -159.342995 
L 120.760271 -159.342995 
L 124.068571 -159.342995 
L 127.376871 -159.342995 
L 130.685172 -159.342995 
L 133.993472 -159.342995 
L 137.301772 -159.342995 
L 140.610073 -159.342995 
L 143.918373 -159.342995 
L 147.226674 -159.342995 
L 150.534974 -159.342995 
L 153.843274 -159.342995 
L 157.151575 -159.342995 
L 160.459875 -159.342995 
L 163.768176 -159.342995 
L 167.076476 -159.342995 
L 170.384776 -159.342995 
L 173.693077 -159.342995 
L 177.001377 -159.342995 
L 180.309678 -159.342995 
L 183.617978 -159.342995 
L 186.926278 -159.342995 
L 190.234579 -159.342995 
L 193.542879 -159.342995 
L 196.85118 -159.342995 
L 200.15948 -159.342995 
L 203.46778 -159.342995 
L 206.776081 -159.342995 
L 210.084381 -159.342995 
L 213.392682 -159.342995 
L 216.700982 -159.342995 
L 220.009282 -159.342995 
L 223.317583 -159.342995 
L 226.625883 -159.342995 
L 229.934184 -159.342995 
L 233.242484 -159.342995 
L 236.550784 -159.342995 
L 239.859085 -159.342995 
L 243.167385 -159.342995 
L 246.475686 -159.342995 
L 249.783986 -159.342995 
L 253.092286 -159.342995 
L 256.400587 -159.342995 
L 259.708887 -159.342995 
L 263.017188 -159.342995 
L 266.325488 -159.342995 
L 269.633788 -159.342995 
L 272.942089 -159.342995 
L 276.250389 -159.342995 
L 279.558689 -159.342995 
L 282.86699 -159.342995 
L 286.17529 -159.342995 
L 289.483591 -159.342995 
L 292.791891 -159.342995 
L 296.100191 -159.342995 
L 299.408492 -159.342995 
L 302.716792 -159.342995 
L 306.025093 -159.342995 
L 309.333393 -159.342995 
L 312.641693 -159.342995 
L 315.949994 -159.342995 
L 319.258294 -159.342995 
L 322.566595 -159.342995 
L 325.874895 -159.342995 
L 329.183195 -159.342995 
L 332.491496 -159.342995 
L 335.799796 -159.342995 
L 339.108097 -159.342995 
L 342.416397 -159.342995 
L 345.724697 -159.342995 
L 349.032998 -159.342995 
L 352.341298 -159.342995 
L 355.649599 -159.342995 
L 358.957899 -159.342995 
L 362.266199 -159.342995 
L 365.5745 -159.342995 
L 368.8828 -159.342995 
L 372.191101 -159.342995 
L 375.499401 -159.342995 
L 378.807701 -159.342995 
L 382.116002 -159.342995 
L 385.424302 -159.342995 
L 388.732603 -159.342995 
L 392.040903 -159.342995 
L 395.349203 -159.342995 
L 398.657504 -159.342995 
L 401.965804 -159.342995 
L 405.274104 -159.342995 
L 408.582405 -159.342995 
L 411.890705 -159.342995 
L 415.199006 -159.342995 
L 415.199006 -235.715702 
L 415.199006 -235.715702 
L 411.890705 -235.334986 
L 408.582405 -216.480612 
L 405.274104 -215.341136 
L 401.965804 -209.218586 
L 398.657504 -209.091557 
L 395.349203 -208.741443 
L 392.040903 -202.24597 
L 388.732603 -197.332176 
L 385.424302 -196.44442 
L 382.116002 -192.769516 
L 378.807701 -192.521221 
L 375.499401 -191.922632 
L 372.191101 -189.831935 
L 368.8828 -189.138617 
L 365.5745 -188.250924 
L 362.266199 -188.20477 
L 358.957899 -185.81954 
L 355.649599 -185.426733 
L 352.341298 -183.517162 
L 349.032998 -182.641287 
L 345.724697 -181.8129 
L 342.416397 -181.462833 
L 339.108097 -179.246715 
L 335.799796 -175.990275 
L 332.491496 -175.155031 
L 329.183195 -175.087924 
L 325.874895 -171.503262 
L 322.566595 -170.113574 
L 319.258294 -168.721351 
L 315.949994 -168.444779 
L 312.641693 -167.594573 
L 309.333393 -167.466086 
L 306.025093 -167.16966 
L 302.716792 -167.142824 
L 299.408492 -166.420508 
L 296.100191 -165.918779 
L 292.791891 -165.659185 
L 289.483591 -165.512083 
L 286.17529 -163.996479 
L 282.86699 -163.676992 
L 279.558689 -163.535537 
L 276.250389 -162.737096 
L 272.942089 -161.985805 
L 269.633788 -161.890961 
L 266.325488 -161.291268 
L 263.017188 -161.053803 
L 259.708887 -160.591983 
L 256.400587 -160.550033 
L 253.092286 -160.418502 
L 249.783986 -160.280981 
L 246.475686 -160.244084 
L 243.167385 -160.174268 
L 239.859085 -159.916873 
L 236.550784 -159.81442 
L 233.242484 -159.761348 
L 229.934184 -159.733389 
L 226.625883 -159.718947 
L 223.317583 -159.651478 
L 220.009282 -159.564335 
L 216.700982 -159.526029 
L 213.392682 -159.459162 
L 210.084381 -159.356148 
L 206.776081 -159.317964 
L 203.46778 -159.243057 
L 200.15948 -159.169086 
L 196.85118 -159.06801 
L 193.542879 -158.971175 
L 190.234579 -158.94481 
L 186.926278 -158.893628 
L 183.617978 -158.821783 
L 180.309678 -158.815142 
L 177.001377 -158.519594 
L 173.693077 -158.255738 
L 170.384776 -158.17415 
L 167.076476 -158.062699 
L 163.768176 -157.911416 
L 160.459875 -157.909176 
L 157.151575 -157.7838 
L 153.843274 -155.759962 
L 150.534974 -154.990879 
L 147.226674 -154.990255 
L 143.918373 -150.624084 
L 140.610073 -150.12751 
L 137.301772 -150.053025 
L 133.993472 -142.982838 
L 130.685172 -134.460213 
L 127.376871 -131.990673 
L 124.068571 -128.123001 
L 120.760271 -123.777679 
L 117.45197 -119.175205 
L 114.14367 -99.143846 
L 110.835369 -61.199614 
z
" id="m66a08b764e" style="stroke:#f14432;stroke-opacity:0.8;"/>
    </defs>
    <g clip-path="url(#pfcb2078950)">
     <use style="fill:#f14432;fill-opacity:0.8;stroke:#f14432;stroke-opacity:0.8;" x="0" xlink:href="#m66a08b764e" y="354.04"/>
    </g>
   </g>
   <g id="matplotlib.axis_1"/>
   <g id="matplotlib.axis_2">
    <g id="ytick_1">
     <g id="line2d_1">
      <defs>
       <path d="M 0 0 
L -3.5 0 
" id="m681eefa854" style="stroke:#000000;stroke-width:0.8;"/>
      </defs>
      <g>
       <use style="stroke:#000000;stroke-width:0.8;" x="95.617188" xlink:href="#m681eefa854" y="310.595694"/>
      </g>
     </g>
     <g id="text_1">
      <!-- −0.010 -->
      <defs>
       <path d="M 10.59375 35.5 
L 73.1875 35.5 
L 73.1875 27.203125 
L 10.59375 27.203125 
z
" id="DejaVuSans-2212"/>
       <path d="M 31.78125 66.40625 
Q 24.171875 66.40625 20.328125 58.90625 
Q 16.5 51.421875 16.5 36.375 
Q 16.5 21.390625 20.328125 13.890625 
Q 24.171875 6.390625 31.78125 6.390625 
Q 39.453125 6.390625 43.28125 13.890625 
Q 47.125 21.390625 47.125 36.375 
Q 47.125 51.421875 43.28125 58.90625 
Q 39.453125 66.40625 31.78125 66.40625 
z
M 31.78125 74.21875 
Q 44.046875 74.21875 50.515625 64.515625 
Q 56.984375 54.828125 56.984375 36.375 
Q 56.984375 17.96875 50.515625 8.265625 
Q 44.046875 -1.421875 31.78125 -1.421875 
Q 19.53125 -1.421875 13.0625 8.265625 
Q 6.59375 17.96875 6.59375 36.375 
Q 6.59375 54.828125 13.0625 64.515625 
Q 19.53125 74.21875 31.78125 74.21875 
z
" id="DejaVuSans-30"/>
       <path d="M 10.6875 12.40625 
L 21 12.40625 
L 21 0 
L 10.6875 0 
z
" id="DejaVuSans-2e"/>
       <path d="M 12.40625 8.296875 
L 28.515625 8.296875 
L 28.515625 63.921875 
L 10.984375 60.40625 
L 10.984375 69.390625 
L 28.421875 72.90625 
L 38.28125 72.90625 
L 38.28125 8.296875 
L 54.390625 8.296875 
L 54.390625 0 
L 12.40625 0 
z
" id="DejaVuSans-31"/>
      </defs>
      <g transform="translate(7.2 318.953976)scale(0.22 -0.22)">
       <use xlink:href="#DejaVuSans-2212"/>
       <use x="83.789062" xlink:href="#DejaVuSans-30"/>
       <use x="147.412109" xlink:href="#DejaVuSans-2e"/>
       <use x="179.199219" xlink:href="#DejaVuSans-30"/>
       <use x="242.822266" xlink:href="#DejaVuSans-31"/>
       <use x="306.445312" xlink:href="#DejaVuSans-30"/>
      </g>
     </g>
    </g>
    <g id="ytick_2">
     <g id="line2d_2">
      <g>
       <use style="stroke:#000000;stroke-width:0.8;" x="95.617188" xlink:href="#m681eefa854" y="252.64635"/>
      </g>
     </g>
     <g id="text_2">
      <!-- −0.005 -->
      <defs>
       <path d="M 10.796875 72.90625 
L 49.515625 72.90625 
L 49.515625 64.59375 
L 19.828125 64.59375 
L 19.828125 46.734375 
Q 21.96875 47.46875 24.109375 47.828125 
Q 26.265625 48.1875 28.421875 48.1875 
Q 40.625 48.1875 47.75 41.5 
Q 54.890625 34.8125 54.890625 23.390625 
Q 54.890625 11.625 47.5625 5.09375 
Q 40.234375 -1.421875 26.90625 -1.421875 
Q 22.3125 -1.421875 17.546875 -0.640625 
Q 12.796875 0.140625 7.71875 1.703125 
L 7.71875 11.625 
Q 12.109375 9.234375 16.796875 8.0625 
Q 21.484375 6.890625 26.703125 6.890625 
Q 35.15625 6.890625 40.078125 11.328125 
Q 45.015625 15.765625 45.015625 23.390625 
Q 45.015625 31 40.078125 35.4375 
Q 35.15625 39.890625 26.703125 39.890625 
Q 22.75 39.890625 18.8125 39.015625 
Q 14.890625 38.140625 10.796875 36.28125 
z
" id="DejaVuSans-35"/>
      </defs>
      <g transform="translate(7.2 261.004631)scale(0.22 -0.22)">
       <use xlink:href="#DejaVuSans-2212"/>
       <use x="83.789062" xlink:href="#DejaVuSans-30"/>
       <use x="147.412109" xlink:href="#DejaVuSans-2e"/>
       <use x="179.199219" xlink:href="#DejaVuSans-30"/>
       <use x="242.822266" xlink:href="#DejaVuSans-30"/>
       <use x="306.445312" xlink:href="#DejaVuSans-35"/>
      </g>
     </g>
    </g>
    <g id="ytick_3">
     <g id="line2d_3">
      <g>
       <use style="stroke:#000000;stroke-width:0.8;" x="95.617188" xlink:href="#m681eefa854" y="194.697005"/>
      </g>
     </g>
     <g id="text_3">
      <!-- 0.000 -->
      <g transform="translate(25.635312 203.055286)scale(0.22 -0.22)">
       <use xlink:href="#DejaVuSans-30"/>
       <use x="63.623047" xlink:href="#DejaVuSans-2e"/>
       <use x="95.410156" xlink:href="#DejaVuSans-30"/>
       <use x="159.033203" xlink:href="#DejaVuSans-30"/>
       <use x="222.65625" xlink:href="#DejaVuSans-30"/>
      </g>
     </g>
    </g>
    <g id="ytick_4">
     <g id="line2d_4">
      <g>
       <use style="stroke:#000000;stroke-width:0.8;" x="95.617188" xlink:href="#m681eefa854" y="136.74766"/>
      </g>
     </g>
     <g id="text_4">
      <!-- 0.005 -->
      <g transform="translate(25.635312 145.105941)scale(0.22 -0.22)">
       <use xlink:href="#DejaVuSans-30"/>
       <use x="63.623047" xlink:href="#DejaVuSans-2e"/>
       <use x="95.410156" xlink:href="#DejaVuSans-30"/>
       <use x="159.033203" xlink:href="#DejaVuSans-30"/>
       <use x="222.65625" xlink:href="#DejaVuSans-35"/>
      </g>
     </g>
    </g>
    <g id="ytick_5">
     <g id="line2d_5">
      <g>
       <use style="stroke:#000000;stroke-width:0.8;" x="95.617188" xlink:href="#m681eefa854" y="78.798315"/>
      </g>
     </g>
     <g id="text_5">
      <!-- 0.010 -->
      <g transform="translate(25.635312 87.156596)scale(0.22 -0.22)">
       <use xlink:href="#DejaVuSans-30"/>
       <use x="63.623047" xlink:href="#DejaVuSans-2e"/>
       <use x="95.410156" xlink:href="#DejaVuSans-30"/>
       <use x="159.033203" xlink:href="#DejaVuSans-31"/>
       <use x="222.65625" xlink:href="#DejaVuSans-30"/>
      </g>
     </g>
    </g>
    <g id="ytick_6">
     <g id="line2d_6">
      <g>
       <use style="stroke:#000000;stroke-width:0.8;" x="95.617188" xlink:href="#m681eefa854" y="20.84897"/>
      </g>
     </g>
     <g id="text_6">
      <!-- 0.015 -->
      <g transform="translate(25.635312 29.207252)scale(0.22 -0.22)">
       <use xlink:href="#DejaVuSans-30"/>
       <use x="63.623047" xlink:href="#DejaVuSans-2e"/>
       <use x="95.410156" xlink:href="#DejaVuSans-30"/>
       <use x="159.033203" xlink:href="#DejaVuSans-31"/>
       <use x="222.65625" xlink:href="#DejaVuSans-35"/>
      </g>
     </g>
    </g>
   </g>
   <g id="patch_3">
    <path d="M 95.617188 343.34 
L 95.617188 10.7 
" style="fill:none;stroke:#000000;stroke-linecap:square;stroke-linejoin:miter;stroke-width:0.8;"/>
   </g>
   <g id="patch_4">
    <path d="M 430.417188 343.34 
L 430.417188 10.7 
" style="fill:none;stroke:#000000;stroke-linecap:square;stroke-linejoin:miter;stroke-width:0.8;"/>
   </g>
   <g id="patch_5">
    <path d="M 95.617188 343.34 
L 430.417188 343.34 
" style="fill:none;stroke:#000000;stroke-linecap:square;stroke-linejoin:miter;stroke-width:0.8;"/>
   </g>
   <g id="patch_6">
    <path d="M 95.617188 10.7 
L 430.417188 10.7 
" style="fill:none;stroke:#000000;stroke-linecap:square;stroke-linejoin:miter;stroke-width:0.8;"/>
   </g>
  </g>
 </g>
 <defs>
  <clipPath id="pfcb2078950">
   <rect height="332.64" width="334.8" x="95.617188" y="10.7"/>
  </clipPath>
 </defs>
</svg>
