<?xml version="1.0" encoding="utf-8" standalone="no"?>
<!DOCTYPE svg PUBLIC "-//W3C//DTD SVG 1.1//EN"
  "http://www.w3.org/Graphics/SVG/1.1/DTD/svg11.dtd">
<!-- Created with matplotlib (http://matplotlib.org/) -->
<svg height="357pt" version="1.1" viewBox="0 0 413 357" width="413pt" xmlns="http://www.w3.org/2000/svg" xmlns:xlink="http://www.w3.org/1999/xlink">
 <defs>
  <style type="text/css">
*{stroke-linecap:butt;stroke-linejoin:round;}
  </style>
 </defs>
 <g id="figure_1">
  <g id="patch_1">
   <path d="M 0 357.030857 
L 413.122187 357.030857 
L 413.122187 0 
L 0 0 
z
" style="fill:#ffffff;"/>
  </g>
  <g id="axes_1">
   <g id="patch_2">
    <path d="M 67.622187 346.330857 
L 402.422188 346.330857 
L 402.422188 13.690857 
L 67.622187 13.690857 
z
" style="fill:#ffffff;"/>
   </g>
   <g id="PolyCollection_1">
    <defs>
     <path d="M 82.840369 -146.536246 
L 82.840369 -159.409269 
L 86.14867 -159.409269 
L 89.45697 -159.409269 
L 92.765271 -159.409269 
L 96.073571 -159.409269 
L 99.381871 -159.409269 
L 102.690172 -159.409269 
L 105.998472 -159.409269 
L 109.306772 -159.409269 
L 112.615073 -159.409269 
L 115.923373 -159.409269 
L 119.231674 -159.409269 
L 122.539974 -159.409269 
L 125.848274 -159.409269 
L 129.156575 -159.409269 
L 132.464875 -159.409269 
L 135.773176 -159.409269 
L 139.081476 -159.409269 
L 142.389776 -159.409269 
L 145.698077 -159.409269 
L 149.006377 -159.409269 
L 152.314678 -159.409269 
L 155.622978 -159.409269 
L 158.931278 -159.409269 
L 162.239579 -159.409269 
L 165.547879 -159.409269 
L 168.85618 -159.409269 
L 172.16448 -159.409269 
L 175.47278 -159.409269 
L 178.781081 -159.409269 
L 182.089381 -159.409269 
L 185.397682 -159.409269 
L 188.705982 -159.409269 
L 192.014282 -159.409269 
L 195.322583 -159.409269 
L 198.630883 -159.409269 
L 201.939184 -159.409269 
L 205.247484 -159.409269 
L 208.555784 -159.409269 
L 211.864085 -159.409269 
L 215.172385 -159.409269 
L 218.480686 -159.409269 
L 221.788986 -159.409269 
L 225.097286 -159.409269 
L 228.405587 -159.409269 
L 231.713887 -159.409269 
L 235.022188 -159.409269 
L 238.330488 -159.409269 
L 241.638788 -159.409269 
L 244.947089 -159.409269 
L 248.255389 -159.409269 
L 251.563689 -159.409269 
L 254.87199 -159.409269 
L 258.18029 -159.409269 
L 261.488591 -159.409269 
L 264.796891 -159.409269 
L 268.105191 -159.409269 
L 271.413492 -159.409269 
L 274.721792 -159.409269 
L 278.030093 -159.409269 
L 281.338393 -159.409269 
L 284.646693 -159.409269 
L 287.954994 -159.409269 
L 291.263294 -159.409269 
L 294.571595 -159.409269 
L 297.879895 -159.409269 
L 301.188195 -159.409269 
L 304.496496 -159.409269 
L 307.804796 -159.409269 
L 311.113097 -159.409269 
L 314.421397 -159.409269 
L 317.729697 -159.409269 
L 321.037998 -159.409269 
L 324.346298 -159.409269 
L 327.654599 -159.409269 
L 330.962899 -159.409269 
L 334.271199 -159.409269 
L 337.5795 -159.409269 
L 340.8878 -159.409269 
L 344.196101 -159.409269 
L 347.504401 -159.409269 
L 350.812701 -159.409269 
L 354.121002 -159.409269 
L 357.429302 -159.409269 
L 360.737603 -159.409269 
L 364.045903 -159.409269 
L 367.354203 -159.409269 
L 370.662504 -159.409269 
L 373.970804 -159.409269 
L 377.279104 -159.409269 
L 380.587405 -159.409269 
L 383.895705 -159.409269 
L 387.204006 -159.409269 
L 387.204006 -173.598429 
L 387.204006 -173.598429 
L 383.895705 -169.985849 
L 380.587405 -168.674848 
L 377.279104 -168.245804 
L 373.970804 -167.337414 
L 370.662504 -165.153556 
L 367.354203 -165.068505 
L 364.045903 -165.033951 
L 360.737603 -164.879675 
L 357.429302 -164.302327 
L 354.121002 -163.638919 
L 350.812701 -163.243737 
L 347.504401 -162.662515 
L 344.196101 -162.368226 
L 340.8878 -162.053601 
L 337.5795 -161.64029 
L 334.271199 -161.596166 
L 330.962899 -161.577679 
L 327.654599 -161.561684 
L 324.346298 -161.540854 
L 321.037998 -161.036829 
L 317.729697 -160.933168 
L 314.421397 -160.884193 
L 311.113097 -160.750809 
L 307.804796 -160.593057 
L 304.496496 -159.876898 
L 301.188195 -159.843788 
L 297.879895 -159.800336 
L 294.571595 -159.764149 
L 291.263294 -159.737234 
L 287.954994 -159.660846 
L 284.646693 -159.650381 
L 281.338393 -159.638026 
L 278.030093 -159.626976 
L 274.721792 -159.613042 
L 271.413492 -159.593099 
L 268.105191 -159.561873 
L 264.796891 -159.556398 
L 261.488591 -159.543187 
L 258.18029 -159.510871 
L 254.87199 -159.50488 
L 251.563689 -159.492241 
L 248.255389 -159.486183 
L 244.947089 -159.485769 
L 241.638788 -159.48369 
L 238.330488 -159.474786 
L 235.022188 -159.452229 
L 231.713887 -159.427408 
L 228.405587 -159.425062 
L 225.097286 -159.423094 
L 221.788986 -159.418154 
L 218.480686 -159.407947 
L 215.172385 -159.406158 
L 211.864085 -159.394528 
L 208.555784 -159.392712 
L 205.247484 -159.391913 
L 201.939184 -159.391822 
L 198.630883 -159.387593 
L 195.322583 -159.386922 
L 192.014282 -159.382288 
L 188.705982 -159.378545 
L 185.397682 -159.369432 
L 182.089381 -159.362657 
L 178.781081 -159.358609 
L 175.47278 -159.357904 
L 172.16448 -159.349139 
L 168.85618 -159.349099 
L 165.547879 -159.340149 
L 162.239579 -159.324279 
L 158.931278 -159.319302 
L 155.622978 -159.316833 
L 152.314678 -159.286808 
L 149.006377 -159.232548 
L 145.698077 -159.178473 
L 142.389776 -159.152119 
L 139.081476 -159.091309 
L 135.773176 -159.031854 
L 132.464875 -158.974225 
L 129.156575 -158.929671 
L 125.848274 -158.897235 
L 122.539974 -158.229306 
L 119.231674 -157.898064 
L 115.923373 -156.108769 
L 112.615073 -155.543464 
L 109.306772 -154.349978 
L 105.998472 -154.177455 
L 102.690172 -154.176962 
L 99.381871 -152.153226 
L 96.073571 -152.104251 
L 92.765271 -150.339883 
L 89.45697 -150.26239 
L 86.14867 -149.228263 
L 82.840369 -146.536246 
z
" id="m3ae112c1c4" style="stroke:#4a98c9;"/>
    </defs>
    <g clip-path="url(#p58f73e77c6)">
     <use style="fill:#4a98c9;stroke:#4a98c9;" x="0" xlink:href="#m3ae112c1c4" y="357.030857"/>
    </g>
   </g>
   <g id="PolyCollection_2">
    <defs>
     <path d="M 82.840369 -25.82 
L 82.840369 -159.409269 
L 86.14867 -159.409269 
L 89.45697 -159.409269 
L 92.765271 -159.409269 
L 96.073571 -159.409269 
L 99.381871 -159.409269 
L 102.690172 -159.409269 
L 105.998472 -159.409269 
L 109.306772 -159.409269 
L 112.615073 -159.409269 
L 115.923373 -159.409269 
L 119.231674 -159.409269 
L 122.539974 -159.409269 
L 125.848274 -159.409269 
L 129.156575 -159.409269 
L 132.464875 -159.409269 
L 135.773176 -159.409269 
L 139.081476 -159.409269 
L 142.389776 -159.409269 
L 145.698077 -159.409269 
L 149.006377 -159.409269 
L 152.314678 -159.409269 
L 155.622978 -159.409269 
L 158.931278 -159.409269 
L 162.239579 -159.409269 
L 165.547879 -159.409269 
L 168.85618 -159.409269 
L 172.16448 -159.409269 
L 175.47278 -159.409269 
L 178.781081 -159.409269 
L 182.089381 -159.409269 
L 185.397682 -159.409269 
L 188.705982 -159.409269 
L 192.014282 -159.409269 
L 195.322583 -159.409269 
L 198.630883 -159.409269 
L 201.939184 -159.409269 
L 205.247484 -159.409269 
L 208.555784 -159.409269 
L 211.864085 -159.409269 
L 215.172385 -159.409269 
L 218.480686 -159.409269 
L 221.788986 -159.409269 
L 225.097286 -159.409269 
L 228.405587 -159.409269 
L 231.713887 -159.409269 
L 235.022188 -159.409269 
L 238.330488 -159.409269 
L 241.638788 -159.409269 
L 244.947089 -159.409269 
L 248.255389 -159.409269 
L 251.563689 -159.409269 
L 254.87199 -159.409269 
L 258.18029 -159.409269 
L 261.488591 -159.409269 
L 264.796891 -159.409269 
L 268.105191 -159.409269 
L 271.413492 -159.409269 
L 274.721792 -159.409269 
L 278.030093 -159.409269 
L 281.338393 -159.409269 
L 284.646693 -159.409269 
L 287.954994 -159.409269 
L 291.263294 -159.409269 
L 294.571595 -159.409269 
L 297.879895 -159.409269 
L 301.188195 -159.409269 
L 304.496496 -159.409269 
L 307.804796 -159.409269 
L 311.113097 -159.409269 
L 314.421397 -159.409269 
L 317.729697 -159.409269 
L 321.037998 -159.409269 
L 324.346298 -159.409269 
L 327.654599 -159.409269 
L 330.962899 -159.409269 
L 334.271199 -159.409269 
L 337.5795 -159.409269 
L 340.8878 -159.409269 
L 344.196101 -159.409269 
L 347.504401 -159.409269 
L 350.812701 -159.409269 
L 354.121002 -159.409269 
L 357.429302 -159.409269 
L 360.737603 -159.409269 
L 364.045903 -159.409269 
L 367.354203 -159.409269 
L 370.662504 -159.409269 
L 373.970804 -159.409269 
L 377.279104 -159.409269 
L 380.587405 -159.409269 
L 383.895705 -159.409269 
L 387.204006 -159.409269 
L 387.204006 -328.22 
L 387.204006 -328.22 
L 383.895705 -327.282065 
L 380.587405 -316.4274 
L 377.279104 -298.018667 
L 373.970804 -292.117201 
L 370.662504 -289.248326 
L 367.354203 -268.260426 
L 364.045903 -267.275215 
L 360.737603 -251.839945 
L 357.429302 -251.573842 
L 354.121002 -251.139186 
L 350.812701 -235.023282 
L 347.504401 -229.741016 
L 344.196101 -214.41746 
L 340.8878 -202.61246 
L 337.5795 -200.570417 
L 334.271199 -195.734853 
L 330.962899 -188.65432 
L 327.654599 -184.857052 
L 324.346298 -176.38937 
L 321.037998 -176.127219 
L 317.729697 -175.958668 
L 314.421397 -172.620199 
L 311.113097 -169.913294 
L 307.804796 -169.58374 
L 304.496496 -167.989247 
L 301.188195 -165.937672 
L 297.879895 -164.408642 
L 294.571595 -161.854882 
L 291.263294 -161.049175 
L 287.954994 -159.889041 
L 284.646693 -159.629212 
L 281.338393 -159.571989 
L 278.030093 -159.568373 
L 274.721792 -159.52309 
L 271.413492 -159.512948 
L 268.105191 -159.500489 
L 264.796891 -159.490692 
L 261.488591 -159.486865 
L 258.18029 -159.48521 
L 254.87199 -159.484691 
L 251.563689 -159.483575 
L 248.255389 -159.48112 
L 244.947089 -159.477882 
L 241.638788 -159.472797 
L 238.330488 -159.467258 
L 235.022188 -159.465711 
L 231.713887 -159.449032 
L 228.405587 -159.448119 
L 225.097286 -159.438843 
L 221.788986 -159.436521 
L 218.480686 -159.425821 
L 215.172385 -159.424659 
L 211.864085 -159.392407 
L 208.555784 -159.387217 
L 205.247484 -159.38668 
L 201.939184 -159.385456 
L 198.630883 -159.37327 
L 195.322583 -159.366497 
L 192.014282 -159.356543 
L 188.705982 -159.351393 
L 185.397682 -159.344693 
L 182.089381 -159.332712 
L 178.781081 -159.325648 
L 175.47278 -159.32089 
L 172.16448 -159.310866 
L 168.85618 -159.249929 
L 165.547879 -159.219481 
L 162.239579 -159.201452 
L 158.931278 -159.093235 
L 155.622978 -158.549802 
L 152.314678 -157.455269 
L 149.006377 -156.900457 
L 145.698077 -155.060087 
L 142.389776 -154.536315 
L 139.081476 -153.969786 
L 135.773176 -151.42125 
L 132.464875 -148.718287 
L 129.156575 -147.405123 
L 125.848274 -144.900815 
L 122.539974 -144.526566 
L 119.231674 -144.403028 
L 115.923373 -135.655595 
L 112.615073 -132.62829 
L 109.306772 -130.81539 
L 105.998472 -129.655639 
L 102.690172 -106.865778 
L 99.381871 -100.65694 
L 96.073571 -89.757047 
L 92.765271 -80.704855 
L 89.45697 -71.775348 
L 86.14867 -57.875678 
L 82.840369 -25.82 
z
" id="m377c454505" style="stroke:#f14432;stroke-opacity:0.8;"/>
    </defs>
    <g clip-path="url(#p58f73e77c6)">
     <use style="fill:#f14432;fill-opacity:0.8;stroke:#f14432;stroke-opacity:0.8;" x="0" xlink:href="#m377c454505" y="357.030857"/>
    </g>
   </g>
   <g id="matplotlib.axis_1"/>
   <g id="matplotlib.axis_2">
    <g id="ytick_1">
     <g id="line2d_1">
      <defs>
       <path d="M 0 0 
L -3.5 0 
" id="m8f8e6dc3e6" style="stroke:#000000;stroke-width:0.8;"/>
      </defs>
      <g>
       <use style="stroke:#000000;stroke-width:0.8;" x="67.622187" xlink:href="#m8f8e6dc3e6" y="334.169067"/>
      </g>
     </g>
     <g id="text_1">
      <!-- −7.5 -->
      <defs>
       <path d="M 10.59375 35.5 
L 73.1875 35.5 
L 73.1875 27.203125 
L 10.59375 27.203125 
z
" id="DejaVuSans-2212"/>
       <path d="M 8.203125 72.90625 
L 55.078125 72.90625 
L 55.078125 68.703125 
L 28.609375 0 
L 18.3125 0 
L 43.21875 64.59375 
L 8.203125 64.59375 
z
" id="DejaVuSans-37"/>
       <path d="M 10.6875 12.40625 
L 21 12.40625 
L 21 0 
L 10.6875 0 
z
" id="DejaVuSans-2e"/>
       <path d="M 10.796875 72.90625 
L 49.515625 72.90625 
L 49.515625 64.59375 
L 19.828125 64.59375 
L 19.828125 46.734375 
Q 21.96875 47.46875 24.109375 47.828125 
Q 26.265625 48.1875 28.421875 48.1875 
Q 40.625 48.1875 47.75 41.5 
Q 54.890625 34.8125 54.890625 23.390625 
Q 54.890625 11.625 47.5625 5.09375 
Q 40.234375 -1.421875 26.90625 -1.421875 
Q 22.3125 -1.421875 17.546875 -0.640625 
Q 12.796875 0.140625 7.71875 1.703125 
L 7.71875 11.625 
Q 12.109375 9.234375 16.796875 8.0625 
Q 21.484375 6.890625 26.703125 6.890625 
Q 35.15625 6.890625 40.078125 11.328125 
Q 45.015625 15.765625 45.015625 23.390625 
Q 45.015625 31 40.078125 35.4375 
Q 35.15625 39.890625 26.703125 39.890625 
Q 22.75 39.890625 18.8125 39.015625 
Q 14.890625 38.140625 10.796875 36.28125 
z
" id="DejaVuSans-35"/>
      </defs>
      <g transform="translate(7.2 342.527349)scale(0.22 -0.22)">
       <use xlink:href="#DejaVuSans-2212"/>
       <use x="83.789062" xlink:href="#DejaVuSans-37"/>
       <use x="147.412109" xlink:href="#DejaVuSans-2e"/>
       <use x="179.199219" xlink:href="#DejaVuSans-35"/>
      </g>
     </g>
    </g>
    <g id="ytick_2">
     <g id="line2d_2">
      <g>
       <use style="stroke:#000000;stroke-width:0.8;" x="67.622187" xlink:href="#m8f8e6dc3e6" y="288.653241"/>
      </g>
     </g>
     <g id="text_2">
      <!-- −5.0 -->
      <defs>
       <path d="M 31.78125 66.40625 
Q 24.171875 66.40625 20.328125 58.90625 
Q 16.5 51.421875 16.5 36.375 
Q 16.5 21.390625 20.328125 13.890625 
Q 24.171875 6.390625 31.78125 6.390625 
Q 39.453125 6.390625 43.28125 13.890625 
Q 47.125 21.390625 47.125 36.375 
Q 47.125 51.421875 43.28125 58.90625 
Q 39.453125 66.40625 31.78125 66.40625 
z
M 31.78125 74.21875 
Q 44.046875 74.21875 50.515625 64.515625 
Q 56.984375 54.828125 56.984375 36.375 
Q 56.984375 17.96875 50.515625 8.265625 
Q 44.046875 -1.421875 31.78125 -1.421875 
Q 19.53125 -1.421875 13.0625 8.265625 
Q 6.59375 17.96875 6.59375 36.375 
Q 6.59375 54.828125 13.0625 64.515625 
Q 19.53125 74.21875 31.78125 74.21875 
z
" id="DejaVuSans-30"/>
      </defs>
      <g transform="translate(7.2 297.011522)scale(0.22 -0.22)">
       <use xlink:href="#DejaVuSans-2212"/>
       <use x="83.789062" xlink:href="#DejaVuSans-35"/>
       <use x="147.412109" xlink:href="#DejaVuSans-2e"/>
       <use x="179.199219" xlink:href="#DejaVuSans-30"/>
      </g>
     </g>
    </g>
    <g id="ytick_3">
     <g id="line2d_3">
      <g>
       <use style="stroke:#000000;stroke-width:0.8;" x="67.622187" xlink:href="#m8f8e6dc3e6" y="243.137414"/>
      </g>
     </g>
     <g id="text_3">
      <!-- −2.5 -->
      <defs>
       <path d="M 19.1875 8.296875 
L 53.609375 8.296875 
L 53.609375 0 
L 7.328125 0 
L 7.328125 8.296875 
Q 12.9375 14.109375 22.625 23.890625 
Q 32.328125 33.6875 34.8125 36.53125 
Q 39.546875 41.84375 41.421875 45.53125 
Q 43.3125 49.21875 43.3125 52.78125 
Q 43.3125 58.59375 39.234375 62.25 
Q 35.15625 65.921875 28.609375 65.921875 
Q 23.96875 65.921875 18.8125 64.3125 
Q 13.671875 62.703125 7.8125 59.421875 
L 7.8125 69.390625 
Q 13.765625 71.78125 18.9375 73 
Q 24.125 74.21875 28.421875 74.21875 
Q 39.75 74.21875 46.484375 68.546875 
Q 53.21875 62.890625 53.21875 53.421875 
Q 53.21875 48.921875 51.53125 44.890625 
Q 49.859375 40.875 45.40625 35.40625 
Q 44.1875 33.984375 37.640625 27.21875 
Q 31.109375 20.453125 19.1875 8.296875 
z
" id="DejaVuSans-32"/>
      </defs>
      <g transform="translate(7.2 251.495696)scale(0.22 -0.22)">
       <use xlink:href="#DejaVuSans-2212"/>
       <use x="83.789062" xlink:href="#DejaVuSans-32"/>
       <use x="147.412109" xlink:href="#DejaVuSans-2e"/>
       <use x="179.199219" xlink:href="#DejaVuSans-35"/>
      </g>
     </g>
    </g>
    <g id="ytick_4">
     <g id="line2d_4">
      <g>
       <use style="stroke:#000000;stroke-width:0.8;" x="67.622187" xlink:href="#m8f8e6dc3e6" y="197.621588"/>
      </g>
     </g>
     <g id="text_4">
      <!-- 0.0 -->
      <g transform="translate(25.635312 205.979869)scale(0.22 -0.22)">
       <use xlink:href="#DejaVuSans-30"/>
       <use x="63.623047" xlink:href="#DejaVuSans-2e"/>
       <use x="95.410156" xlink:href="#DejaVuSans-30"/>
      </g>
     </g>
    </g>
    <g id="ytick_5">
     <g id="line2d_5">
      <g>
       <use style="stroke:#000000;stroke-width:0.8;" x="67.622187" xlink:href="#m8f8e6dc3e6" y="152.105761"/>
      </g>
     </g>
     <g id="text_5">
      <!-- 2.5 -->
      <g transform="translate(25.635312 160.464042)scale(0.22 -0.22)">
       <use xlink:href="#DejaVuSans-32"/>
       <use x="63.623047" xlink:href="#DejaVuSans-2e"/>
       <use x="95.410156" xlink:href="#DejaVuSans-35"/>
      </g>
     </g>
    </g>
    <g id="ytick_6">
     <g id="line2d_6">
      <g>
       <use style="stroke:#000000;stroke-width:0.8;" x="67.622187" xlink:href="#m8f8e6dc3e6" y="106.589934"/>
      </g>
     </g>
     <g id="text_6">
      <!-- 5.0 -->
      <g transform="translate(25.635312 114.948216)scale(0.22 -0.22)">
       <use xlink:href="#DejaVuSans-35"/>
       <use x="63.623047" xlink:href="#DejaVuSans-2e"/>
       <use x="95.410156" xlink:href="#DejaVuSans-30"/>
      </g>
     </g>
    </g>
    <g id="ytick_7">
     <g id="line2d_7">
      <g>
       <use style="stroke:#000000;stroke-width:0.8;" x="67.622187" xlink:href="#m8f8e6dc3e6" y="61.074108"/>
      </g>
     </g>
     <g id="text_7">
      <!-- 7.5 -->
      <g transform="translate(25.635312 69.432389)scale(0.22 -0.22)">
       <use xlink:href="#DejaVuSans-37"/>
       <use x="63.623047" xlink:href="#DejaVuSans-2e"/>
       <use x="95.410156" xlink:href="#DejaVuSans-35"/>
      </g>
     </g>
    </g>
    <g id="ytick_8">
     <g id="line2d_8">
      <g>
       <use style="stroke:#000000;stroke-width:0.8;" x="67.622187" xlink:href="#m8f8e6dc3e6" y="15.558281"/>
      </g>
     </g>
     <g id="text_8">
      <!-- 10.0 -->
      <defs>
       <path d="M 12.40625 8.296875 
L 28.515625 8.296875 
L 28.515625 63.921875 
L 10.984375 60.40625 
L 10.984375 69.390625 
L 28.421875 72.90625 
L 38.28125 72.90625 
L 38.28125 8.296875 
L 54.390625 8.296875 
L 54.390625 0 
L 12.40625 0 
z
" id="DejaVuSans-31"/>
      </defs>
      <g transform="translate(11.637812 23.916562)scale(0.22 -0.22)">
       <use xlink:href="#DejaVuSans-31"/>
       <use x="63.623047" xlink:href="#DejaVuSans-30"/>
       <use x="127.246094" xlink:href="#DejaVuSans-2e"/>
       <use x="159.033203" xlink:href="#DejaVuSans-30"/>
      </g>
     </g>
    </g>
   </g>
   <g id="patch_3">
    <path d="M 67.622187 346.330857 
L 67.622187 13.690857 
" style="fill:none;stroke:#000000;stroke-linecap:square;stroke-linejoin:miter;stroke-width:0.8;"/>
   </g>
   <g id="patch_4">
    <path d="M 402.422188 346.330857 
L 402.422188 13.690857 
" style="fill:none;stroke:#000000;stroke-linecap:square;stroke-linejoin:miter;stroke-width:0.8;"/>
   </g>
   <g id="patch_5">
    <path d="M 67.622187 346.330857 
L 402.422188 346.330857 
" style="fill:none;stroke:#000000;stroke-linecap:square;stroke-linejoin:miter;stroke-width:0.8;"/>
   </g>
   <g id="patch_6">
    <path d="M 67.622187 13.690857 
L 402.422188 13.690857 
" style="fill:none;stroke:#000000;stroke-linecap:square;stroke-linejoin:miter;stroke-width:0.8;"/>
   </g>
  </g>
 </g>
 <defs>
  <clipPath id="p58f73e77c6">
   <rect height="332.64" width="334.8" x="67.622187" y="13.690857"/>
  </clipPath>
 </defs>
</svg>
