<?xml version="1.0" encoding="utf-8" standalone="no"?>
<!DOCTYPE svg PUBLIC "-//W3C//DTD SVG 1.1//EN"
  "http://www.w3.org/Graphics/SVG/1.1/DTD/svg11.dtd">
<!-- Created with matplotlib (http://matplotlib.org/) -->
<svg height="354pt" version="1.1" viewBox="0 0 455 354" width="455pt" xmlns="http://www.w3.org/2000/svg" xmlns:xlink="http://www.w3.org/1999/xlink">
 <defs>
  <style type="text/css">
*{stroke-linecap:butt;stroke-linejoin:round;}
  </style>
 </defs>
 <g id="figure_1">
  <g id="patch_1">
   <path d="M 0 354.04 
L 455.114687 354.04 
L 455.114687 0 
L 0 0 
z
" style="fill:#ffffff;"/>
  </g>
  <g id="axes_1">
   <g id="patch_2">
    <path d="M 109.614687 343.34 
L 444.414688 343.34 
L 444.414688 10.7 
L 109.614687 10.7 
z
" style="fill:#ffffff;"/>
   </g>
   <g id="PolyCollection_1">
    <defs>
     <path d="M 124.832869 -25.82 
L 124.832869 -172.133974 
L 128.14117 -172.133974 
L 131.44947 -172.133974 
L 134.757771 -172.133974 
L 138.066071 -172.133974 
L 141.374371 -172.133974 
L 144.682672 -172.133974 
L 147.990972 -172.133974 
L 151.299272 -172.133974 
L 154.607573 -172.133974 
L 157.915873 -172.133974 
L 161.224174 -172.133974 
L 164.532474 -172.133974 
L 167.840774 -172.133974 
L 171.149075 -172.133974 
L 174.457375 -172.133974 
L 177.765676 -172.133974 
L 181.073976 -172.133974 
L 184.382276 -172.133974 
L 187.690577 -172.133974 
L 190.998877 -172.133974 
L 194.307178 -172.133974 
L 197.615478 -172.133974 
L 200.923778 -172.133974 
L 204.232079 -172.133974 
L 207.540379 -172.133974 
L 210.84868 -172.133974 
L 214.15698 -172.133974 
L 217.46528 -172.133974 
L 220.773581 -172.133974 
L 224.081881 -172.133974 
L 227.390182 -172.133974 
L 230.698482 -172.133974 
L 234.006782 -172.133974 
L 237.315083 -172.133974 
L 240.623383 -172.133974 
L 243.931684 -172.133974 
L 247.239984 -172.133974 
L 250.548284 -172.133974 
L 253.856585 -172.133974 
L 257.164885 -172.133974 
L 260.473186 -172.133974 
L 263.781486 -172.133974 
L 267.089786 -172.133974 
L 270.398087 -172.133974 
L 273.706387 -172.133974 
L 277.014688 -172.133974 
L 280.322988 -172.133974 
L 283.631288 -172.133974 
L 286.939589 -172.133974 
L 290.247889 -172.133974 
L 293.556189 -172.133974 
L 296.86449 -172.133974 
L 300.17279 -172.133974 
L 303.481091 -172.133974 
L 306.789391 -172.133974 
L 310.097691 -172.133974 
L 313.405992 -172.133974 
L 316.714292 -172.133974 
L 320.022593 -172.133974 
L 323.330893 -172.133974 
L 326.639193 -172.133974 
L 329.947494 -172.133974 
L 333.255794 -172.133974 
L 336.564095 -172.133974 
L 339.872395 -172.133974 
L 343.180695 -172.133974 
L 346.488996 -172.133974 
L 349.797296 -172.133974 
L 353.105597 -172.133974 
L 356.413897 -172.133974 
L 359.722197 -172.133974 
L 363.030498 -172.133974 
L 366.338798 -172.133974 
L 369.647099 -172.133974 
L 372.955399 -172.133974 
L 376.263699 -172.133974 
L 379.572 -172.133974 
L 382.8803 -172.133974 
L 386.188601 -172.133974 
L 389.496901 -172.133974 
L 392.805201 -172.133974 
L 396.113502 -172.133974 
L 399.421802 -172.133974 
L 402.730103 -172.133974 
L 406.038403 -172.133974 
L 409.346703 -172.133974 
L 412.655004 -172.133974 
L 415.963304 -172.133974 
L 419.271604 -172.133974 
L 422.579905 -172.133974 
L 425.888205 -172.133974 
L 429.196506 -172.133974 
L 429.196506 -328.22 
L 429.196506 -328.22 
L 425.888205 -268.022774 
L 422.579905 -258.192036 
L 419.271604 -255.258126 
L 415.963304 -251.806285 
L 412.655004 -251.232601 
L 409.346703 -232.809012 
L 406.038403 -231.295024 
L 402.730103 -230.634093 
L 399.421802 -229.928605 
L 396.113502 -227.613549 
L 392.805201 -226.822631 
L 389.496901 -222.189086 
L 386.188601 -220.843158 
L 382.8803 -215.810276 
L 379.572 -215.513797 
L 376.263699 -215.457771 
L 372.955399 -213.657788 
L 369.647099 -211.763117 
L 366.338798 -206.859591 
L 363.030498 -205.334595 
L 359.722197 -204.697403 
L 356.413897 -204.426122 
L 353.105597 -204.227868 
L 349.797296 -203.170315 
L 346.488996 -203.135043 
L 343.180695 -201.338017 
L 339.872395 -199.952544 
L 336.564095 -199.609094 
L 333.255794 -198.470157 
L 329.947494 -196.851504 
L 326.639193 -196.162304 
L 323.330893 -195.193075 
L 320.022593 -193.947286 
L 316.714292 -189.579351 
L 313.405992 -187.399886 
L 310.097691 -185.810803 
L 306.789391 -185.649155 
L 303.481091 -185.408642 
L 300.17279 -185.338974 
L 296.86449 -182.245697 
L 293.556189 -181.399958 
L 290.247889 -181.28102 
L 286.939589 -180.690059 
L 283.631288 -178.350486 
L 280.322988 -175.585373 
L 277.014688 -175.40875 
L 273.706387 -175.034402 
L 270.398087 -174.980334 
L 267.089786 -174.265394 
L 263.781486 -172.884919 
L 260.473186 -170.417017 
L 257.164885 -170.336494 
L 253.856585 -170.14924 
L 250.548284 -168.663561 
L 247.239984 -167.592705 
L 243.931684 -166.302794 
L 240.623383 -166.100368 
L 237.315083 -164.377575 
L 234.006782 -164.332141 
L 230.698482 -164.312004 
L 227.390182 -163.628353 
L 224.081881 -162.342319 
L 220.773581 -160.334591 
L 217.46528 -160.279872 
L 214.15698 -159.941283 
L 210.84868 -159.458609 
L 207.540379 -159.261971 
L 204.232079 -155.935328 
L 200.923778 -155.664388 
L 197.615478 -155.633735 
L 194.307178 -155.551166 
L 190.998877 -154.617402 
L 187.690577 -150.452595 
L 184.382276 -147.142545 
L 181.073976 -147.134925 
L 177.765676 -146.676041 
L 174.457375 -144.763172 
L 171.149075 -144.653095 
L 167.840774 -144.582035 
L 164.532474 -144.210937 
L 161.224174 -140.559312 
L 157.915873 -138.65875 
L 154.607573 -133.001455 
L 151.299272 -132.463958 
L 147.990972 -130.318604 
L 144.682672 -128.520125 
L 141.374371 -123.171397 
L 138.066071 -119.376235 
L 134.757771 -92.999623 
L 131.44947 -89.533832 
L 128.14117 -84.423857 
L 124.832869 -25.82 
z
" id="mb2556c44b7" style="stroke:#4a98c9;"/>
    </defs>
    <g clip-path="url(#p22764cfa72)">
     <use style="fill:#4a98c9;stroke:#4a98c9;" x="0" xlink:href="#mb2556c44b7" y="354.04"/>
    </g>
   </g>
   <g id="PolyCollection_2">
    <defs>
     <path d="M 124.832869 -25.82 
L 124.832869 -172.133974 
L 128.14117 -172.133974 
L 131.44947 -172.133974 
L 134.757771 -172.133974 
L 138.066071 -172.133974 
L 141.374371 -172.133974 
L 144.682672 -172.133974 
L 147.990972 -172.133974 
L 151.299272 -172.133974 
L 154.607573 -172.133974 
L 157.915873 -172.133974 
L 161.224174 -172.133974 
L 164.532474 -172.133974 
L 167.840774 -172.133974 
L 171.149075 -172.133974 
L 174.457375 -172.133974 
L 177.765676 -172.133974 
L 181.073976 -172.133974 
L 184.382276 -172.133974 
L 187.690577 -172.133974 
L 190.998877 -172.133974 
L 194.307178 -172.133974 
L 197.615478 -172.133974 
L 200.923778 -172.133974 
L 204.232079 -172.133974 
L 207.540379 -172.133974 
L 210.84868 -172.133974 
L 214.15698 -172.133974 
L 217.46528 -172.133974 
L 220.773581 -172.133974 
L 224.081881 -172.133974 
L 227.390182 -172.133974 
L 230.698482 -172.133974 
L 234.006782 -172.133974 
L 237.315083 -172.133974 
L 240.623383 -172.133974 
L 243.931684 -172.133974 
L 247.239984 -172.133974 
L 250.548284 -172.133974 
L 253.856585 -172.133974 
L 257.164885 -172.133974 
L 260.473186 -172.133974 
L 263.781486 -172.133974 
L 267.089786 -172.133974 
L 270.398087 -172.133974 
L 273.706387 -172.133974 
L 277.014688 -172.133974 
L 280.322988 -172.133974 
L 283.631288 -172.133974 
L 286.939589 -172.133974 
L 290.247889 -172.133974 
L 293.556189 -172.133974 
L 296.86449 -172.133974 
L 300.17279 -172.133974 
L 303.481091 -172.133974 
L 306.789391 -172.133974 
L 310.097691 -172.133974 
L 313.405992 -172.133974 
L 316.714292 -172.133974 
L 320.022593 -172.133974 
L 323.330893 -172.133974 
L 326.639193 -172.133974 
L 329.947494 -172.133974 
L 333.255794 -172.133974 
L 336.564095 -172.133974 
L 339.872395 -172.133974 
L 343.180695 -172.133974 
L 346.488996 -172.133974 
L 349.797296 -172.133974 
L 353.105597 -172.133974 
L 356.413897 -172.133974 
L 359.722197 -172.133974 
L 363.030498 -172.133974 
L 366.338798 -172.133974 
L 369.647099 -172.133974 
L 372.955399 -172.133974 
L 376.263699 -172.133974 
L 379.572 -172.133974 
L 382.8803 -172.133974 
L 386.188601 -172.133974 
L 389.496901 -172.133974 
L 392.805201 -172.133974 
L 396.113502 -172.133974 
L 399.421802 -172.133974 
L 402.730103 -172.133974 
L 406.038403 -172.133974 
L 409.346703 -172.133974 
L 412.655004 -172.133974 
L 415.963304 -172.133974 
L 419.271604 -172.133974 
L 422.579905 -172.133974 
L 425.888205 -172.133974 
L 429.196506 -172.133974 
L 429.196506 -328.22 
L 429.196506 -328.22 
L 425.888205 -268.022774 
L 422.579905 -258.192036 
L 419.271604 -255.258126 
L 415.963304 -251.806285 
L 412.655004 -251.232601 
L 409.346703 -232.809012 
L 406.038403 -231.295024 
L 402.730103 -230.634093 
L 399.421802 -229.928605 
L 396.113502 -227.613549 
L 392.805201 -226.822631 
L 389.496901 -222.189086 
L 386.188601 -220.843158 
L 382.8803 -215.810276 
L 379.572 -215.513797 
L 376.263699 -215.457771 
L 372.955399 -213.657788 
L 369.647099 -211.763117 
L 366.338798 -206.859591 
L 363.030498 -205.334595 
L 359.722197 -204.697403 
L 356.413897 -204.426122 
L 353.105597 -204.227868 
L 349.797296 -203.170315 
L 346.488996 -203.135043 
L 343.180695 -201.338017 
L 339.872395 -199.952544 
L 336.564095 -199.609094 
L 333.255794 -198.470157 
L 329.947494 -196.851504 
L 326.639193 -196.162304 
L 323.330893 -195.193075 
L 320.022593 -193.947286 
L 316.714292 -189.579351 
L 313.405992 -187.399886 
L 310.097691 -185.810803 
L 306.789391 -185.649155 
L 303.481091 -185.408642 
L 300.17279 -185.338974 
L 296.86449 -182.245697 
L 293.556189 -181.399958 
L 290.247889 -181.28102 
L 286.939589 -180.690059 
L 283.631288 -178.350486 
L 280.322988 -175.585373 
L 277.014688 -175.40875 
L 273.706387 -175.034402 
L 270.398087 -174.980334 
L 267.089786 -174.265394 
L 263.781486 -172.884919 
L 260.473186 -170.417017 
L 257.164885 -170.336494 
L 253.856585 -170.14924 
L 250.548284 -168.663561 
L 247.239984 -167.592705 
L 243.931684 -166.302794 
L 240.623383 -166.100368 
L 237.315083 -164.377575 
L 234.006782 -164.332141 
L 230.698482 -164.312004 
L 227.390182 -163.628353 
L 224.081881 -162.342319 
L 220.773581 -160.334591 
L 217.46528 -160.279872 
L 214.15698 -159.941283 
L 210.84868 -159.458609 
L 207.540379 -159.261971 
L 204.232079 -155.935328 
L 200.923778 -155.664388 
L 197.615478 -155.633735 
L 194.307178 -155.551166 
L 190.998877 -154.617402 
L 187.690577 -150.452595 
L 184.382276 -147.142545 
L 181.073976 -147.134925 
L 177.765676 -146.676041 
L 174.457375 -144.763172 
L 171.149075 -144.653095 
L 167.840774 -144.582035 
L 164.532474 -144.210937 
L 161.224174 -140.559312 
L 157.915873 -138.65875 
L 154.607573 -133.001455 
L 151.299272 -132.463958 
L 147.990972 -130.318604 
L 144.682672 -128.520125 
L 141.374371 -123.171397 
L 138.066071 -119.376235 
L 134.757771 -92.999623 
L 131.44947 -89.533832 
L 128.14117 -84.423857 
L 124.832869 -25.82 
z
" id="mb6a49245af" style="stroke:#f14432;stroke-opacity:0.8;"/>
    </defs>
    <g clip-path="url(#p22764cfa72)">
     <use style="fill:#f14432;fill-opacity:0.8;stroke:#f14432;stroke-opacity:0.8;" x="0" xlink:href="#mb6a49245af" y="354.04"/>
    </g>
   </g>
   <g id="matplotlib.axis_1"/>
   <g id="matplotlib.axis_2">
    <g id="ytick_1">
     <g id="line2d_1">
      <defs>
       <path d="M 0 0 
L -3.5 0 
" id="md684ce0f0f" style="stroke:#000000;stroke-width:0.8;"/>
      </defs>
      <g>
       <use style="stroke:#000000;stroke-width:0.8;" x="109.614687" xlink:href="#md684ce0f0f" y="332.657522"/>
      </g>
     </g>
     <g id="text_1">
      <!-- −0.0006 -->
      <defs>
       <path d="M 10.59375 35.5 
L 73.1875 35.5 
L 73.1875 27.203125 
L 10.59375 27.203125 
z
" id="DejaVuSans-2212"/>
       <path d="M 31.78125 66.40625 
Q 24.171875 66.40625 20.328125 58.90625 
Q 16.5 51.421875 16.5 36.375 
Q 16.5 21.390625 20.328125 13.890625 
Q 24.171875 6.390625 31.78125 6.390625 
Q 39.453125 6.390625 43.28125 13.890625 
Q 47.125 21.390625 47.125 36.375 
Q 47.125 51.421875 43.28125 58.90625 
Q 39.453125 66.40625 31.78125 66.40625 
z
M 31.78125 74.21875 
Q 44.046875 74.21875 50.515625 64.515625 
Q 56.984375 54.828125 56.984375 36.375 
Q 56.984375 17.96875 50.515625 8.265625 
Q 44.046875 -1.421875 31.78125 -1.421875 
Q 19.53125 -1.421875 13.0625 8.265625 
Q 6.59375 17.96875 6.59375 36.375 
Q 6.59375 54.828125 13.0625 64.515625 
Q 19.53125 74.21875 31.78125 74.21875 
z
" id="DejaVuSans-30"/>
       <path d="M 10.6875 12.40625 
L 21 12.40625 
L 21 0 
L 10.6875 0 
z
" id="DejaVuSans-2e"/>
       <path d="M 33.015625 40.375 
Q 26.375 40.375 22.484375 35.828125 
Q 18.609375 31.296875 18.609375 23.390625 
Q 18.609375 15.53125 22.484375 10.953125 
Q 26.375 6.390625 33.015625 6.390625 
Q 39.65625 6.390625 43.53125 10.953125 
Q 47.40625 15.53125 47.40625 23.390625 
Q 47.40625 31.296875 43.53125 35.828125 
Q 39.65625 40.375 33.015625 40.375 
z
M 52.59375 71.296875 
L 52.59375 62.3125 
Q 48.875 64.0625 45.09375 64.984375 
Q 41.3125 65.921875 37.59375 65.921875 
Q 27.828125 65.921875 22.671875 59.328125 
Q 17.53125 52.734375 16.796875 39.40625 
Q 19.671875 43.65625 24.015625 45.921875 
Q 28.375 48.1875 33.59375 48.1875 
Q 44.578125 48.1875 50.953125 41.515625 
Q 57.328125 34.859375 57.328125 23.390625 
Q 57.328125 12.15625 50.6875 5.359375 
Q 44.046875 -1.421875 33.015625 -1.421875 
Q 20.359375 -1.421875 13.671875 8.265625 
Q 6.984375 17.96875 6.984375 36.375 
Q 6.984375 53.65625 15.1875 63.9375 
Q 23.390625 74.21875 37.203125 74.21875 
Q 40.921875 74.21875 44.703125 73.484375 
Q 48.484375 72.75 52.59375 71.296875 
z
" id="DejaVuSans-36"/>
      </defs>
      <g transform="translate(7.2 341.015803)scale(0.22 -0.22)">
       <use xlink:href="#DejaVuSans-2212"/>
       <use x="83.789062" xlink:href="#DejaVuSans-30"/>
       <use x="147.412109" xlink:href="#DejaVuSans-2e"/>
       <use x="179.199219" xlink:href="#DejaVuSans-30"/>
       <use x="242.822266" xlink:href="#DejaVuSans-30"/>
       <use x="306.445312" xlink:href="#DejaVuSans-30"/>
       <use x="370.068359" xlink:href="#DejaVuSans-36"/>
      </g>
     </g>
    </g>
    <g id="ytick_2">
     <g id="line2d_2">
      <g>
       <use style="stroke:#000000;stroke-width:0.8;" x="109.614687" xlink:href="#md684ce0f0f" y="282.407023"/>
      </g>
     </g>
     <g id="text_2">
      <!-- −0.0004 -->
      <defs>
       <path d="M 37.796875 64.3125 
L 12.890625 25.390625 
L 37.796875 25.390625 
z
M 35.203125 72.90625 
L 47.609375 72.90625 
L 47.609375 25.390625 
L 58.015625 25.390625 
L 58.015625 17.1875 
L 47.609375 17.1875 
L 47.609375 0 
L 37.796875 0 
L 37.796875 17.1875 
L 4.890625 17.1875 
L 4.890625 26.703125 
z
" id="DejaVuSans-34"/>
      </defs>
      <g transform="translate(7.2 290.765304)scale(0.22 -0.22)">
       <use xlink:href="#DejaVuSans-2212"/>
       <use x="83.789062" xlink:href="#DejaVuSans-30"/>
       <use x="147.412109" xlink:href="#DejaVuSans-2e"/>
       <use x="179.199219" xlink:href="#DejaVuSans-30"/>
       <use x="242.822266" xlink:href="#DejaVuSans-30"/>
       <use x="306.445312" xlink:href="#DejaVuSans-30"/>
       <use x="370.068359" xlink:href="#DejaVuSans-34"/>
      </g>
     </g>
    </g>
    <g id="ytick_3">
     <g id="line2d_3">
      <g>
       <use style="stroke:#000000;stroke-width:0.8;" x="109.614687" xlink:href="#md684ce0f0f" y="232.156524"/>
      </g>
     </g>
     <g id="text_3">
      <!-- −0.0002 -->
      <defs>
       <path d="M 19.1875 8.296875 
L 53.609375 8.296875 
L 53.609375 0 
L 7.328125 0 
L 7.328125 8.296875 
Q 12.9375 14.109375 22.625 23.890625 
Q 32.328125 33.6875 34.8125 36.53125 
Q 39.546875 41.84375 41.421875 45.53125 
Q 43.3125 49.21875 43.3125 52.78125 
Q 43.3125 58.59375 39.234375 62.25 
Q 35.15625 65.921875 28.609375 65.921875 
Q 23.96875 65.921875 18.8125 64.3125 
Q 13.671875 62.703125 7.8125 59.421875 
L 7.8125 69.390625 
Q 13.765625 71.78125 18.9375 73 
Q 24.125 74.21875 28.421875 74.21875 
Q 39.75 74.21875 46.484375 68.546875 
Q 53.21875 62.890625 53.21875 53.421875 
Q 53.21875 48.921875 51.53125 44.890625 
Q 49.859375 40.875 45.40625 35.40625 
Q 44.1875 33.984375 37.640625 27.21875 
Q 31.109375 20.453125 19.1875 8.296875 
z
" id="DejaVuSans-32"/>
      </defs>
      <g transform="translate(7.2 240.514806)scale(0.22 -0.22)">
       <use xlink:href="#DejaVuSans-2212"/>
       <use x="83.789062" xlink:href="#DejaVuSans-30"/>
       <use x="147.412109" xlink:href="#DejaVuSans-2e"/>
       <use x="179.199219" xlink:href="#DejaVuSans-30"/>
       <use x="242.822266" xlink:href="#DejaVuSans-30"/>
       <use x="306.445312" xlink:href="#DejaVuSans-30"/>
       <use x="370.068359" xlink:href="#DejaVuSans-32"/>
      </g>
     </g>
    </g>
    <g id="ytick_4">
     <g id="line2d_4">
      <g>
       <use style="stroke:#000000;stroke-width:0.8;" x="109.614687" xlink:href="#md684ce0f0f" y="181.906026"/>
      </g>
     </g>
     <g id="text_4">
      <!-- 0.0000 -->
      <g transform="translate(25.635312 190.264307)scale(0.22 -0.22)">
       <use xlink:href="#DejaVuSans-30"/>
       <use x="63.623047" xlink:href="#DejaVuSans-2e"/>
       <use x="95.410156" xlink:href="#DejaVuSans-30"/>
       <use x="159.033203" xlink:href="#DejaVuSans-30"/>
       <use x="222.65625" xlink:href="#DejaVuSans-30"/>
       <use x="286.279297" xlink:href="#DejaVuSans-30"/>
      </g>
     </g>
    </g>
    <g id="ytick_5">
     <g id="line2d_5">
      <g>
       <use style="stroke:#000000;stroke-width:0.8;" x="109.614687" xlink:href="#md684ce0f0f" y="131.655527"/>
      </g>
     </g>
     <g id="text_5">
      <!-- 0.0002 -->
      <g transform="translate(25.635312 140.013808)scale(0.22 -0.22)">
       <use xlink:href="#DejaVuSans-30"/>
       <use x="63.623047" xlink:href="#DejaVuSans-2e"/>
       <use x="95.410156" xlink:href="#DejaVuSans-30"/>
       <use x="159.033203" xlink:href="#DejaVuSans-30"/>
       <use x="222.65625" xlink:href="#DejaVuSans-30"/>
       <use x="286.279297" xlink:href="#DejaVuSans-32"/>
      </g>
     </g>
    </g>
    <g id="ytick_6">
     <g id="line2d_6">
      <g>
       <use style="stroke:#000000;stroke-width:0.8;" x="109.614687" xlink:href="#md684ce0f0f" y="81.405028"/>
      </g>
     </g>
     <g id="text_6">
      <!-- 0.0004 -->
      <g transform="translate(25.635312 89.76331)scale(0.22 -0.22)">
       <use xlink:href="#DejaVuSans-30"/>
       <use x="63.623047" xlink:href="#DejaVuSans-2e"/>
       <use x="95.410156" xlink:href="#DejaVuSans-30"/>
       <use x="159.033203" xlink:href="#DejaVuSans-30"/>
       <use x="222.65625" xlink:href="#DejaVuSans-30"/>
       <use x="286.279297" xlink:href="#DejaVuSans-34"/>
      </g>
     </g>
    </g>
    <g id="ytick_7">
     <g id="line2d_7">
      <g>
       <use style="stroke:#000000;stroke-width:0.8;" x="109.614687" xlink:href="#md684ce0f0f" y="31.15453"/>
      </g>
     </g>
     <g id="text_7">
      <!-- 0.0006 -->
      <g transform="translate(25.635312 39.512811)scale(0.22 -0.22)">
       <use xlink:href="#DejaVuSans-30"/>
       <use x="63.623047" xlink:href="#DejaVuSans-2e"/>
       <use x="95.410156" xlink:href="#DejaVuSans-30"/>
       <use x="159.033203" xlink:href="#DejaVuSans-30"/>
       <use x="222.65625" xlink:href="#DejaVuSans-30"/>
       <use x="286.279297" xlink:href="#DejaVuSans-36"/>
      </g>
     </g>
    </g>
   </g>
   <g id="patch_3">
    <path d="M 109.614687 343.34 
L 109.614687 10.7 
" style="fill:none;stroke:#000000;stroke-linecap:square;stroke-linejoin:miter;stroke-width:0.8;"/>
   </g>
   <g id="patch_4">
    <path d="M 444.414688 343.34 
L 444.414688 10.7 
" style="fill:none;stroke:#000000;stroke-linecap:square;stroke-linejoin:miter;stroke-width:0.8;"/>
   </g>
   <g id="patch_5">
    <path d="M 109.614687 343.34 
L 444.414688 343.34 
" style="fill:none;stroke:#000000;stroke-linecap:square;stroke-linejoin:miter;stroke-width:0.8;"/>
   </g>
   <g id="patch_6">
    <path d="M 109.614687 10.7 
L 444.414688 10.7 
" style="fill:none;stroke:#000000;stroke-linecap:square;stroke-linejoin:miter;stroke-width:0.8;"/>
   </g>
  </g>
 </g>
 <defs>
  <clipPath id="p22764cfa72">
   <rect height="332.64" width="334.8" x="109.614687" y="10.7"/>
  </clipPath>
 </defs>
</svg>
