<?xml version="1.0" encoding="utf-8" standalone="no"?>
<!DOCTYPE svg PUBLIC "-//W3C//DTD SVG 1.1//EN"
  "http://www.w3.org/Graphics/SVG/1.1/DTD/svg11.dtd">
<!-- Created with matplotlib (http://matplotlib.org/) -->
<svg height="136pt" version="1.1" viewBox="0 0 136 136" width="136pt" xmlns="http://www.w3.org/2000/svg" xmlns:xlink="http://www.w3.org/1999/xlink">
 <defs>
  <style type="text/css">
*{stroke-linecap:butt;stroke-linejoin:round;}
  </style>
 </defs>
 <g id="figure_1">
  <g id="patch_1">
   <path d="M 0 136.478125 
L 136.8875 136.478125 
L 136.8875 0 
L 0 0 
z
" style="fill:#ffffff;"/>
  </g>
  <g id="axes_1">
   <g id="patch_2">
    <path d="M 33.2875 123.399219 
L 126.1875 123.399219 
L 126.1875 10.999219 
L 33.2875 10.999219 
z
" style="fill:#ffffff;"/>
   </g>
   <g id="PolyCollection_1">
    <path clip-path="url(#pdd146c2c74)" d="M 79.742434 123.399219 
L 79.473708 123.399219 
L 79.484795 122.353031 
L 79.512405 121.306843 
L 79.513173 120.260655 
L 79.45234 119.214467 
L 79.322668 118.168279 
L 79.143334 117.122092 
L 78.945061 116.075904 
L 78.754043 115.029716 
L 78.583766 113.983528 
L 78.436433 112.93734 
L 78.309152 111.891152 
L 78.198788 110.844964 
L 78.103419 109.798776 
L 78.021684 108.752589 
L 77.951135 107.706401 
L 77.887052 106.660213 
L 77.82417 105.614025 
L 77.761051 104.567837 
L 77.702478 103.521649 
L 77.655884 102.475461 
L 77.623323 101.429273 
L 77.595554 100.383086 
L 77.555535 99.336898 
L 77.491538 98.29071 
L 77.40756 97.244522 
L 77.317161 96.198334 
L 77.226575 95.152146 
L 77.130075 94.105958 
L 77.025501 93.05977 
L 76.928045 92.013583 
L 76.860523 90.967395 
L 76.830422 89.921207 
L 76.822598 88.875019 
L 76.816253 87.828831 
L 76.804805 86.782643 
L 76.796863 85.736455 
L 76.801079 84.690267 
L 76.813164 83.64408 
L 76.816013 82.597892 
L 76.789726 81.551704 
L 76.722816 80.505516 
L 76.618763 79.459328 
L 76.495397 78.41314 
L 76.376586 77.366952 
L 76.280471 76.320764 
L 76.213547 75.274577 
L 76.174251 74.228389 
L 76.157297 73.182201 
L 76.150335 72.136013 
L 76.129518 71.089825 
L 76.06606 70.043637 
L 75.941798 68.997449 
L 75.757647 67.951261 
L 75.52425 66.905074 
L 75.243535 65.858886 
L 74.898763 64.812698 
L 74.456207 63.76651 
L 73.868034 62.720322 
L 73.077932 61.674134 
L 72.042467 60.627946 
L 70.760605 59.581758 
L 69.282825 58.535571 
L 67.690118 57.489383 
L 66.061812 56.443195 
L 64.44566 55.397007 
L 62.828488 54.350819 
L 61.121461 53.304631 
L 59.190726 52.258443 
L 56.931745 51.212256 
L 54.333921 50.166068 
L 51.48554 49.11988 
L 48.530877 48.073692 
L 45.635213 47.027504 
L 42.982654 45.981316 
L 40.76654 44.935128 
L 39.131995 43.88894 
L 38.108048 42.842753 
L 37.608348 41.796565 
L 37.510227 40.750377 
L 37.730386 39.704189 
L 38.226916 38.658001 
L 38.954784 37.611813 
L 39.851289 36.565625 
L 40.868281 35.519437 
L 41.99831 34.47325 
L 43.266407 33.427062 
L 44.723462 32.380874 
L 46.470368 31.334686 
L 48.680559 30.288498 
L 51.566864 29.24231 
L 55.274048 28.196122 
L 59.734392 27.149934 
L 64.582798 26.103747 
L 69.236056 25.057559 
L 73.130089 24.011371 
L 75.959175 22.965183 
L 77.750061 21.918995 
L 78.752225 20.872807 
L 79.263543 19.826619 
L 79.742434 19.826619 
L 79.742434 19.826619 
L 79.742434 20.872807 
L 79.742434 21.918995 
L 79.742434 22.965183 
L 79.742434 24.011371 
L 79.742434 25.057559 
L 79.742434 26.103747 
L 79.742434 27.149934 
L 79.742434 28.196122 
L 79.742434 29.24231 
L 79.742434 30.288498 
L 79.742434 31.334686 
L 79.742434 32.380874 
L 79.742434 33.427062 
L 79.742434 34.47325 
L 79.742434 35.519437 
L 79.742434 36.565625 
L 79.742434 37.611813 
L 79.742434 38.658001 
L 79.742434 39.704189 
L 79.742434 40.750377 
L 79.742434 41.796565 
L 79.742434 42.842753 
L 79.742434 43.88894 
L 79.742434 44.935128 
L 79.742434 45.981316 
L 79.742434 47.027504 
L 79.742434 48.073692 
L 79.742434 49.11988 
L 79.742434 50.166068 
L 79.742434 51.212256 
L 79.742434 52.258443 
L 79.742434 53.304631 
L 79.742434 54.350819 
L 79.742434 55.397007 
L 79.742434 56.443195 
L 79.742434 57.489383 
L 79.742434 58.535571 
L 79.742434 59.581758 
L 79.742434 60.627946 
L 79.742434 61.674134 
L 79.742434 62.720322 
L 79.742434 63.76651 
L 79.742434 64.812698 
L 79.742434 65.858886 
L 79.742434 66.905074 
L 79.742434 67.951261 
L 79.742434 68.997449 
L 79.742434 70.043637 
L 79.742434 71.089825 
L 79.742434 72.136013 
L 79.742434 73.182201 
L 79.742434 74.228389 
L 79.742434 75.274577 
L 79.742434 76.320764 
L 79.742434 77.366952 
L 79.742434 78.41314 
L 79.742434 79.459328 
L 79.742434 80.505516 
L 79.742434 81.551704 
L 79.742434 82.597892 
L 79.742434 83.64408 
L 79.742434 84.690267 
L 79.742434 85.736455 
L 79.742434 86.782643 
L 79.742434 87.828831 
L 79.742434 88.875019 
L 79.742434 89.921207 
L 79.742434 90.967395 
L 79.742434 92.013583 
L 79.742434 93.05977 
L 79.742434 94.105958 
L 79.742434 95.152146 
L 79.742434 96.198334 
L 79.742434 97.244522 
L 79.742434 98.29071 
L 79.742434 99.336898 
L 79.742434 100.383086 
L 79.742434 101.429273 
L 79.742434 102.475461 
L 79.742434 103.521649 
L 79.742434 104.567837 
L 79.742434 105.614025 
L 79.742434 106.660213 
L 79.742434 107.706401 
L 79.742434 108.752589 
L 79.742434 109.798776 
L 79.742434 110.844964 
L 79.742434 111.891152 
L 79.742434 112.93734 
L 79.742434 113.983528 
L 79.742434 115.029716 
L 79.742434 116.075904 
L 79.742434 117.122092 
L 79.742434 118.168279 
L 79.742434 119.214467 
L 79.742434 120.260655 
L 79.742434 121.306843 
L 79.742434 122.353031 
L 79.742434 123.399219 
z
" style="fill:#1f77b4;fill-opacity:0.3;"/>
   </g>
   <g id="PolyCollection_2">
    <path clip-path="url(#pdd146c2c74)" d="M 79.802989 123.399219 
L 79.753552 123.399219 
L 79.753552 122.266741 
L 79.753552 121.134263 
L 79.753552 120.001785 
L 79.753552 118.869307 
L 79.753552 117.736829 
L 79.753552 116.604351 
L 79.753552 115.471873 
L 79.753552 114.339395 
L 79.753552 113.206917 
L 79.753552 112.074439 
L 79.753552 110.941961 
L 79.753552 109.809484 
L 79.753552 108.677006 
L 79.753552 107.544528 
L 79.753552 106.41205 
L 79.753552 105.279572 
L 79.753552 104.147094 
L 79.753552 103.014616 
L 79.753552 101.882138 
L 79.753552 100.74966 
L 79.753552 99.617182 
L 79.753552 98.484704 
L 79.753552 97.352226 
L 79.753552 96.219748 
L 79.753552 95.08727 
L 79.753552 93.954793 
L 79.753552 92.822315 
L 79.753552 91.689837 
L 79.753552 90.557359 
L 79.753552 89.424881 
L 79.753552 88.292403 
L 79.753552 87.159925 
L 79.753552 86.027447 
L 79.753552 84.894969 
L 79.753552 83.762491 
L 79.753552 82.630013 
L 79.753552 81.497535 
L 79.753552 80.365057 
L 79.753552 79.232579 
L 79.753552 78.100101 
L 79.753552 76.967624 
L 79.753552 75.835146 
L 79.753552 74.702668 
L 79.753552 73.57019 
L 79.753552 72.437712 
L 79.753552 71.305234 
L 79.753552 70.172756 
L 79.753552 69.040278 
L 79.753552 67.9078 
L 79.753552 66.775322 
L 79.753552 65.642844 
L 79.753552 64.510366 
L 79.753552 63.377888 
L 79.753552 62.24541 
L 79.753552 61.112932 
L 79.753552 59.980455 
L 79.753552 58.847977 
L 79.753552 57.715499 
L 79.753552 56.583021 
L 79.753552 55.450543 
L 79.753552 54.318065 
L 79.753552 53.185587 
L 79.753552 52.053109 
L 79.753552 50.920631 
L 79.753552 49.788153 
L 79.753552 48.655675 
L 79.753552 47.523197 
L 79.753552 46.390719 
L 79.753552 45.258241 
L 79.753552 44.125764 
L 79.753552 42.993286 
L 79.753552 41.860808 
L 79.753552 40.72833 
L 79.753552 39.595852 
L 79.753552 38.463374 
L 79.753552 37.330896 
L 79.753552 36.198418 
L 79.753552 35.06594 
L 79.753552 33.933462 
L 79.753552 32.800984 
L 79.753552 31.668506 
L 79.753552 30.536028 
L 79.753552 29.40355 
L 79.753552 28.271072 
L 79.753552 27.138595 
L 79.753552 26.006117 
L 79.753552 24.873639 
L 79.753552 23.741161 
L 79.753552 22.608683 
L 79.753552 21.476205 
L 79.753552 20.343727 
L 79.753552 19.211249 
L 79.753552 18.078771 
L 79.753552 16.946293 
L 79.753552 15.813815 
L 79.753552 14.681337 
L 79.753552 13.548859 
L 79.753552 12.416381 
L 79.753552 11.283903 
L 82.865148 11.283903 
L 82.865148 11.283903 
L 84.825519 12.416381 
L 86.864937 13.548859 
L 88.662067 14.681337 
L 90.129065 15.813815 
L 91.387939 16.946293 
L 92.619678 18.078771 
L 93.961513 19.211249 
L 95.502115 20.343727 
L 97.339506 21.476205 
L 99.641572 22.608683 
L 102.603326 23.741161 
L 106.263889 24.873639 
L 110.343361 26.006117 
L 114.301473 27.138595 
L 117.597074 28.271072 
L 119.926464 29.40355 
L 121.285288 30.536028 
L 121.877403 31.668506 
L 121.964773 32.800984 
L 121.746614 33.933462 
L 121.31651 35.06594 
L 120.677755 36.198418 
L 119.785239 37.330896 
L 118.607354 38.463374 
L 117.171775 39.595852 
L 115.542157 40.72833 
L 113.739337 41.860808 
L 111.698237 42.993286 
L 109.339553 44.125764 
L 106.691529 45.258241 
L 103.896797 46.390719 
L 101.093895 47.523197 
L 98.351574 48.655675 
L 95.728182 49.788153 
L 93.321274 50.920631 
L 91.220103 52.053109 
L 89.448164 53.185587 
L 87.977179 54.318065 
L 86.774783 55.450543 
L 85.819315 56.583021 
L 85.075251 57.715499 
L 84.480164 58.847977 
L 83.976586 59.980455 
L 83.547598 61.112932 
L 83.20219 62.24541 
L 82.931586 63.377888 
L 82.701583 64.510366 
L 82.49103 65.642844 
L 82.318953 66.775322 
L 82.218004 67.9078 
L 82.182511 69.040278 
L 82.15762 70.172756 
L 82.092338 71.305234 
L 81.99409 72.437712 
L 81.912809 73.57019 
L 81.876758 74.702668 
L 81.864708 75.835146 
L 81.839781 76.967624 
L 81.788837 78.100101 
L 81.723784 79.232579 
L 81.659726 80.365057 
L 81.599007 81.497535 
L 81.533032 82.630013 
L 81.457232 83.762491 
L 81.377662 84.894969 
L 81.297433 86.027447 
L 81.206895 87.159925 
L 81.100775 88.292403 
L 81.000423 89.424881 
L 80.942912 90.557359 
L 80.943942 91.689837 
L 80.98139 92.822315 
L 81.016862 93.954793 
L 81.02455 95.08727 
L 81.002115 96.219748 
L 80.965895 97.352226 
L 80.937019 98.484704 
L 80.923487 99.617182 
L 80.911074 100.74966 
L 80.875434 101.882138 
L 80.805237 103.014616 
L 80.711239 104.147094 
L 80.615616 105.279572 
L 80.535501 106.41205 
L 80.472645 107.544528 
L 80.416057 108.677006 
L 80.356062 109.809484 
L 80.294377 110.941961 
L 80.238186 112.074439 
L 80.18685 113.206917 
L 80.128629 114.339395 
L 80.052377 115.471873 
L 79.961859 116.604351 
L 79.875844 117.736829 
L 79.814024 118.869307 
L 79.785049 120.001785 
L 79.784308 121.134263 
L 79.79655 122.266741 
L 79.802989 123.399219 
z
" style="fill:#ff7f0e;fill-opacity:0.3;"/>
   </g>
   <g id="matplotlib.axis_1"/>
   <g id="matplotlib.axis_2">
    <g id="ytick_1">
     <g id="line2d_1">
      <defs>
       <path d="M 0 0 
L -3.5 0 
" id="m843c31cb81" style="stroke:#000000;stroke-width:0.8;"/>
      </defs>
      <g>
       <use style="stroke:#000000;stroke-width:0.8;" x="33.2875" xlink:href="#m843c31cb81" y="123.399219"/>
      </g>
     </g>
     <g id="text_1">
      <!-- 0 -->
      <defs>
       <path d="M 31.78125 66.40625 
Q 24.171875 66.40625 20.328125 58.90625 
Q 16.5 51.421875 16.5 36.375 
Q 16.5 21.390625 20.328125 13.890625 
Q 24.171875 6.390625 31.78125 6.390625 
Q 39.453125 6.390625 43.28125 13.890625 
Q 47.125 21.390625 47.125 36.375 
Q 47.125 51.421875 43.28125 58.90625 
Q 39.453125 66.40625 31.78125 66.40625 
z
M 31.78125 74.21875 
Q 44.046875 74.21875 50.515625 64.515625 
Q 56.984375 54.828125 56.984375 36.375 
Q 56.984375 17.96875 50.515625 8.265625 
Q 44.046875 -1.421875 31.78125 -1.421875 
Q 19.53125 -1.421875 13.0625 8.265625 
Q 6.59375 17.96875 6.59375 36.375 
Q 6.59375 54.828125 13.0625 64.515625 
Q 19.53125 74.21875 31.78125 74.21875 
z
" id="DejaVuSans-30"/>
      </defs>
      <g transform="translate(19.925 127.198438)scale(0.1 -0.1)">
       <use xlink:href="#DejaVuSans-30"/>
      </g>
     </g>
    </g>
    <g id="ytick_2">
     <g id="line2d_2">
      <g>
       <use style="stroke:#000000;stroke-width:0.8;" x="33.2875" xlink:href="#m843c31cb81" y="67.199219"/>
      </g>
     </g>
     <g id="text_2">
      <!-- 150 -->
      <defs>
       <path d="M 12.40625 8.296875 
L 28.515625 8.296875 
L 28.515625 63.921875 
L 10.984375 60.40625 
L 10.984375 69.390625 
L 28.421875 72.90625 
L 38.28125 72.90625 
L 38.28125 8.296875 
L 54.390625 8.296875 
L 54.390625 0 
L 12.40625 0 
z
" id="DejaVuSans-31"/>
       <path d="M 10.796875 72.90625 
L 49.515625 72.90625 
L 49.515625 64.59375 
L 19.828125 64.59375 
L 19.828125 46.734375 
Q 21.96875 47.46875 24.109375 47.828125 
Q 26.265625 48.1875 28.421875 48.1875 
Q 40.625 48.1875 47.75 41.5 
Q 54.890625 34.8125 54.890625 23.390625 
Q 54.890625 11.625 47.5625 5.09375 
Q 40.234375 -1.421875 26.90625 -1.421875 
Q 22.3125 -1.421875 17.546875 -0.640625 
Q 12.796875 0.140625 7.71875 1.703125 
L 7.71875 11.625 
Q 12.109375 9.234375 16.796875 8.0625 
Q 21.484375 6.890625 26.703125 6.890625 
Q 35.15625 6.890625 40.078125 11.328125 
Q 45.015625 15.765625 45.015625 23.390625 
Q 45.015625 31 40.078125 35.4375 
Q 35.15625 39.890625 26.703125 39.890625 
Q 22.75 39.890625 18.8125 39.015625 
Q 14.890625 38.140625 10.796875 36.28125 
z
" id="DejaVuSans-35"/>
      </defs>
      <g transform="translate(7.2 70.998437)scale(0.1 -0.1)">
       <use xlink:href="#DejaVuSans-31"/>
       <use x="63.623047" xlink:href="#DejaVuSans-35"/>
       <use x="127.246094" xlink:href="#DejaVuSans-30"/>
      </g>
     </g>
    </g>
    <g id="ytick_3">
     <g id="line2d_3">
      <g>
       <use style="stroke:#000000;stroke-width:0.8;" x="33.2875" xlink:href="#m843c31cb81" y="10.999219"/>
      </g>
     </g>
     <g id="text_3">
      <!-- 300 -->
      <defs>
       <path d="M 40.578125 39.3125 
Q 47.65625 37.796875 51.625 33 
Q 55.609375 28.21875 55.609375 21.1875 
Q 55.609375 10.40625 48.1875 4.484375 
Q 40.765625 -1.421875 27.09375 -1.421875 
Q 22.515625 -1.421875 17.65625 -0.515625 
Q 12.796875 0.390625 7.625 2.203125 
L 7.625 11.71875 
Q 11.71875 9.328125 16.59375 8.109375 
Q 21.484375 6.890625 26.8125 6.890625 
Q 36.078125 6.890625 40.9375 10.546875 
Q 45.796875 14.203125 45.796875 21.1875 
Q 45.796875 27.640625 41.28125 31.265625 
Q 36.765625 34.90625 28.71875 34.90625 
L 20.21875 34.90625 
L 20.21875 43.015625 
L 29.109375 43.015625 
Q 36.375 43.015625 40.234375 45.921875 
Q 44.09375 48.828125 44.09375 54.296875 
Q 44.09375 59.90625 40.109375 62.90625 
Q 36.140625 65.921875 28.71875 65.921875 
Q 24.65625 65.921875 20.015625 65.03125 
Q 15.375 64.15625 9.8125 62.3125 
L 9.8125 71.09375 
Q 15.4375 72.65625 20.34375 73.4375 
Q 25.25 74.21875 29.59375 74.21875 
Q 40.828125 74.21875 47.359375 69.109375 
Q 53.90625 64.015625 53.90625 55.328125 
Q 53.90625 49.265625 50.4375 45.09375 
Q 46.96875 40.921875 40.578125 39.3125 
z
" id="DejaVuSans-33"/>
      </defs>
      <g transform="translate(7.2 14.798437)scale(0.1 -0.1)">
       <use xlink:href="#DejaVuSans-33"/>
       <use x="63.623047" xlink:href="#DejaVuSans-30"/>
       <use x="127.246094" xlink:href="#DejaVuSans-30"/>
      </g>
     </g>
    </g>
   </g>
   <g id="patch_3">
    <path d="M 33.2875 123.399219 
L 33.2875 10.999219 
" style="fill:none;stroke:#000000;stroke-linecap:square;stroke-linejoin:miter;stroke-width:0.8;"/>
   </g>
   <g id="patch_4">
    <path d="M 33.2875 123.399219 
L 126.1875 123.399219 
" style="fill:none;stroke:#000000;stroke-linecap:square;stroke-linejoin:miter;stroke-width:0.8;"/>
   </g>
  </g>
 </g>
 <defs>
  <clipPath id="pdd146c2c74">
   <rect height="112.4" width="92.9" x="33.2875" y="10.999219"/>
  </clipPath>
 </defs>
</svg>
