<?xml version="1.0" encoding="utf-8" standalone="no"?>
<!DOCTYPE svg PUBLIC "-//W3C//DTD SVG 1.1//EN"
  "http://www.w3.org/Graphics/SVG/1.1/DTD/svg11.dtd">
<!-- Created with matplotlib (http://matplotlib.org/) -->
<svg height="136pt" version="1.1" viewBox="0 0 136 136" width="136pt" xmlns="http://www.w3.org/2000/svg" xmlns:xlink="http://www.w3.org/1999/xlink">
 <defs>
  <style type="text/css">
*{stroke-linecap:butt;stroke-linejoin:round;}
  </style>
 </defs>
 <g id="figure_1">
  <g id="patch_1">
   <path d="M 0 136.478125 
L 136.8875 136.478125 
L 136.8875 0 
L 0 0 
z
" style="fill:#ffffff;"/>
  </g>
  <g id="axes_1">
   <g id="patch_2">
    <path d="M 33.2875 123.399219 
L 126.1875 123.399219 
L 126.1875 10.999219 
L 33.2875 10.999219 
z
" style="fill:#ffffff;"/>
   </g>
   <g id="PolyCollection_1">
    <path clip-path="url(#p7074b95425)" d="M 79.866885 123.399219 
L 79.608115 123.399219 
L 79.590276 122.264086 
L 79.5665 121.128953 
L 79.527534 119.99382 
L 79.467612 118.858687 
L 79.387936 117.723554 
L 79.295886 116.588421 
L 79.200717 115.453288 
L 79.109005 114.318155 
L 79.022917 113.183022 
L 78.941815 112.047889 
L 78.865019 110.912756 
L 78.793219 109.777623 
L 78.727737 108.64249 
L 78.668964 107.507357 
L 78.615691 106.372224 
L 78.565793 105.237091 
L 78.517357 104.101959 
L 78.469168 102.966826 
L 78.420424 101.831693 
L 78.370411 100.69656 
L 78.318847 99.561427 
L 78.266706 98.426294 
L 78.216662 97.291161 
L 78.172383 96.156028 
L 78.136906 95.020895 
L 78.111189 93.885762 
L 78.093798 92.750629 
L 78.081694 91.615496 
L 78.071316 90.480363 
L 78.059388 89.34523 
L 78.043526 88.210097 
L 78.022776 87.074964 
L 77.99774 85.939831 
L 77.969757 84.804698 
L 77.939281 83.669565 
L 77.904577 82.534432 
L 77.862098 81.399299 
L 77.808797 80.264166 
L 77.744882 79.129034 
L 77.674668 77.993901 
L 77.604544 76.858768 
L 77.539517 75.723635 
L 77.481098 74.588502 
L 77.42794 73.453369 
L 77.378113 72.318236 
L 77.330733 71.183103 
L 77.285861 70.04797 
L 77.243571 68.912837 
L 77.203522 67.777704 
L 77.165232 66.642571 
L 77.128093 65.507438 
L 77.090633 64.372305 
L 77.049775 63.237172 
L 77.001361 62.102039 
L 76.942002 60.966906 
L 76.870828 59.831773 
L 76.789599 58.69664 
L 76.701223 57.561507 
L 76.608131 56.426374 
L 76.511737 55.291241 
L 76.412829 54.156108 
L 76.311875 53.020976 
L 76.208704 51.885843 
L 76.101914 50.75071 
L 75.988748 49.615577 
L 75.865758 48.480444 
L 75.730054 47.345311 
L 75.580564 46.210178 
L 75.418421 45.075045 
L 75.245648 43.939912 
L 75.062258 42.804779 
L 74.863658 41.669646 
L 74.641002 40.534513 
L 74.385381 39.39938 
L 74.093458 38.264247 
L 73.770306 37.129114 
L 73.426888 35.993981 
L 73.07327 34.858848 
L 72.711152 33.723715 
L 72.32924 32.588582 
L 71.903358 31.453449 
L 71.40141 30.318316 
L 70.791343 29.183183 
L 70.048151 28.048051 
L 69.155391 26.912918 
L 68.099209 25.777785 
L 66.857313 24.642652 
L 65.38749 23.507519 
L 63.618394 22.372386 
L 61.443466 21.237253 
L 58.724283 20.10212 
L 55.323806 18.966987 
L 51.198822 17.831854 
L 46.557056 16.696721 
L 42.013482 15.561588 
L 38.60207 14.426455 
L 37.510227 13.291322 
L 39.569206 12.156189 
L 44.767548 11.021056 
L 79.911041 11.021056 
L 79.911041 11.021056 
L 79.911041 12.156189 
L 79.911041 13.291322 
L 79.911041 14.426455 
L 79.911041 15.561588 
L 79.911041 16.696721 
L 79.911041 17.831854 
L 79.911041 18.966987 
L 79.911041 20.10212 
L 79.911041 21.237253 
L 79.911041 22.372386 
L 79.911041 23.507519 
L 79.911041 24.642652 
L 79.911041 25.777785 
L 79.911041 26.912918 
L 79.911041 28.048051 
L 79.911041 29.183183 
L 79.911041 30.318316 
L 79.911041 31.453449 
L 79.911041 32.588582 
L 79.911041 33.723715 
L 79.911041 34.858848 
L 79.911041 35.993981 
L 79.911041 37.129114 
L 79.911041 38.264247 
L 79.911041 39.39938 
L 79.911041 40.534513 
L 79.911041 41.669646 
L 79.911041 42.804779 
L 79.911041 43.939912 
L 79.911041 45.075045 
L 79.911041 46.210178 
L 79.911041 47.345311 
L 79.911041 48.480444 
L 79.911041 49.615577 
L 79.911041 50.75071 
L 79.911041 51.885843 
L 79.911041 53.020976 
L 79.911041 54.156108 
L 79.911041 55.291241 
L 79.911041 56.426374 
L 79.911041 57.561507 
L 79.911041 58.69664 
L 79.911041 59.831773 
L 79.911041 60.966906 
L 79.911041 62.102039 
L 79.911041 63.237172 
L 79.911041 64.372305 
L 79.911041 65.507438 
L 79.911041 66.642571 
L 79.911041 67.777704 
L 79.911041 68.912837 
L 79.911041 70.04797 
L 79.911041 71.183103 
L 79.911041 72.318236 
L 79.911041 73.453369 
L 79.911041 74.588502 
L 79.911041 75.723635 
L 79.911041 76.858768 
L 79.911041 77.993901 
L 79.911041 79.129034 
L 79.911041 80.264166 
L 79.911041 81.399299 
L 79.911041 82.534432 
L 79.911041 83.669565 
L 79.911041 84.804698 
L 79.911041 85.939831 
L 79.911041 87.074964 
L 79.911041 88.210097 
L 79.911041 89.34523 
L 79.911041 90.480363 
L 79.911041 91.615496 
L 79.911041 92.750629 
L 79.911041 93.885762 
L 79.911041 95.020895 
L 79.911041 96.156028 
L 79.911041 97.291161 
L 79.911041 98.426294 
L 79.911041 99.561427 
L 79.911041 100.69656 
L 79.911041 101.831693 
L 79.911041 102.966826 
L 79.911041 104.101959 
L 79.911041 105.237091 
L 79.911041 106.372224 
L 79.911041 107.507357 
L 79.911041 108.64249 
L 79.911041 109.777623 
L 79.911041 110.912756 
L 79.911041 112.047889 
L 79.911041 113.183022 
L 79.911041 114.318155 
L 79.911041 115.453288 
L 79.911041 116.588421 
L 79.911041 117.723554 
L 79.911041 118.858687 
L 79.911041 119.99382 
L 79.9085 121.128953 
L 79.884724 122.264086 
L 79.866885 123.399219 
z
" style="fill:#1f77b4;fill-opacity:0.3;"/>
   </g>
   <g id="PolyCollection_2">
    <path clip-path="url(#p7074b95425)" d="M 79.912769 123.399219 
L 79.912769 123.399219 
L 79.912769 122.264127 
L 79.912769 121.129035 
L 79.912769 119.993943 
L 79.912769 118.858851 
L 79.912769 117.723759 
L 79.912769 116.588668 
L 79.912769 115.453576 
L 79.912769 114.318484 
L 79.912769 113.183392 
L 79.912769 112.0483 
L 79.912769 110.913208 
L 79.912769 109.778116 
L 79.912769 108.643024 
L 79.912769 107.507933 
L 79.912769 106.372841 
L 79.912769 105.237749 
L 79.912769 104.102657 
L 79.912769 102.967565 
L 79.912769 101.832473 
L 79.912769 100.697381 
L 79.912769 99.562289 
L 79.912769 98.427198 
L 79.912769 97.292106 
L 79.912769 96.157014 
L 79.912769 95.021922 
L 79.912769 93.88683 
L 79.912769 92.751738 
L 79.912769 91.616646 
L 79.912769 90.481554 
L 79.912769 89.346463 
L 79.912769 88.211371 
L 79.912769 87.076279 
L 79.912769 85.941187 
L 79.912769 84.806095 
L 79.912769 83.671003 
L 79.912769 82.535911 
L 79.912769 81.400819 
L 79.912769 80.265728 
L 79.912769 79.130636 
L 79.912769 77.995544 
L 79.912769 76.860452 
L 79.912769 75.72536 
L 79.912769 74.590268 
L 79.912769 73.455176 
L 79.912769 72.320084 
L 79.912769 71.184993 
L 79.912769 70.049901 
L 79.912769 68.914809 
L 79.912769 67.779717 
L 79.912769 66.644625 
L 79.912769 65.509533 
L 79.912769 64.374441 
L 79.912769 63.239349 
L 79.912769 62.104258 
L 79.912769 60.969166 
L 79.912769 59.834074 
L 79.912769 58.698982 
L 79.912769 57.56389 
L 79.912769 56.428798 
L 79.912769 55.293706 
L 79.912769 54.158614 
L 79.912769 53.023523 
L 79.912769 51.888431 
L 79.912769 50.753339 
L 79.912769 49.618247 
L 79.912769 48.483155 
L 79.912769 47.348063 
L 79.912769 46.212971 
L 79.912769 45.077879 
L 79.912769 43.942788 
L 79.912769 42.807696 
L 79.912769 41.672604 
L 79.912769 40.537512 
L 79.912769 39.40242 
L 79.912769 38.267328 
L 79.912769 37.132236 
L 79.912769 35.997144 
L 79.912769 34.862053 
L 79.912769 33.726961 
L 79.912769 32.591869 
L 79.912769 31.456777 
L 79.912769 30.321685 
L 79.912769 29.186593 
L 79.912769 28.051501 
L 79.912769 26.916409 
L 79.912769 25.781318 
L 79.912769 24.646226 
L 79.912769 23.511134 
L 79.912769 22.376042 
L 79.912769 21.24095 
L 79.912769 20.105858 
L 79.912769 18.970766 
L 79.912769 17.835674 
L 79.912769 16.700583 
L 79.912769 15.565491 
L 79.912769 14.430399 
L 79.912769 13.295307 
L 79.912769 12.160215 
L 79.912769 11.025123 
L 115.264349 11.025123 
L 115.264349 11.025123 
L 121.135602 12.160215 
L 121.964773 13.295307 
L 118.383905 14.430399 
L 112.518786 15.565491 
L 106.485483 16.700583 
L 101.454465 17.835674 
L 97.660879 18.970766 
L 94.871725 20.105858 
L 92.779809 21.24095 
L 91.160675 22.376042 
L 89.873582 23.511134 
L 88.822757 24.646226 
L 87.938357 25.781318 
L 87.176681 26.916409 
L 86.516805 28.051501 
L 85.946903 29.186593 
L 85.453157 30.321685 
L 85.019212 31.456777 
L 84.629631 32.591869 
L 84.271704 33.726961 
L 83.938526 34.862053 
L 83.633296 35.997144 
L 83.367782 37.132236 
L 83.152938 38.267328 
L 82.989406 39.40242 
L 82.865266 40.537512 
L 82.760722 41.672604 
L 82.655996 42.807696 
L 82.539312 43.942788 
L 82.411277 45.077879 
L 82.28212 46.212971 
L 82.163204 47.348063 
L 82.059691 48.483155 
L 81.970009 49.618247 
L 81.890536 50.753339 
L 81.819315 51.888431 
L 81.755579 53.023523 
L 81.6975 54.158614 
L 81.64134 55.293706 
L 81.582364 56.428798 
L 81.516842 57.56389 
L 81.444744 58.698982 
L 81.371008 59.834074 
L 81.302541 60.969166 
L 81.242079 62.104258 
L 81.184739 63.239349 
L 81.12178 64.374441 
L 81.049157 65.509533 
L 80.972954 66.644625 
L 80.905689 67.779717 
L 80.856345 68.914809 
L 80.82384 70.049901 
L 80.800076 71.184993 
L 80.778441 72.320084 
L 80.758662 73.455176 
L 80.743916 74.590268 
L 80.734613 75.72536 
L 80.726221 76.860452 
L 80.712834 77.995544 
L 80.691082 79.130636 
L 80.660132 80.265728 
L 80.620312 81.400819 
L 80.574123 82.535911 
L 80.528055 83.671003 
L 80.491226 84.806095 
L 80.470545 85.941187 
L 80.466032 87.076279 
L 80.470138 88.211371 
L 80.472136 89.346463 
L 80.464694 90.481554 
L 80.447569 91.616646 
L 80.425483 92.751738 
L 80.402727 93.88683 
L 80.379937 95.021922 
L 80.355405 96.157014 
L 80.328195 97.292106 
L 80.299512 98.427198 
L 80.271585 99.562289 
L 80.245702 100.697381 
L 80.221116 101.832473 
L 80.195618 102.967565 
L 80.167185 104.102657 
L 80.135338 105.237749 
L 80.101369 106.372841 
L 80.067653 107.507933 
L 80.036675 108.643024 
L 80.009994 109.778116 
L 79.987242 110.913208 
L 79.965727 112.0483 
L 79.941375 113.183392 
L 79.912769 114.318484 
L 79.912769 115.453576 
L 79.912769 116.588668 
L 79.912769 117.723759 
L 79.912769 118.858851 
L 79.912769 119.993943 
L 79.912769 121.129035 
L 79.912769 122.264127 
L 79.912769 123.399219 
z
" style="fill:#ff7f0e;fill-opacity:0.3;"/>
   </g>
   <g id="matplotlib.axis_1"/>
   <g id="matplotlib.axis_2">
    <g id="ytick_1">
     <g id="line2d_1">
      <defs>
       <path d="M 0 0 
L -3.5 0 
" id="m62eaaa3cfc" style="stroke:#000000;stroke-width:0.8;"/>
      </defs>
      <g>
       <use style="stroke:#000000;stroke-width:0.8;" x="33.2875" xlink:href="#m62eaaa3cfc" y="123.399219"/>
      </g>
     </g>
     <g id="text_1">
      <!-- 0 -->
      <defs>
       <path d="M 31.78125 66.40625 
Q 24.171875 66.40625 20.328125 58.90625 
Q 16.5 51.421875 16.5 36.375 
Q 16.5 21.390625 20.328125 13.890625 
Q 24.171875 6.390625 31.78125 6.390625 
Q 39.453125 6.390625 43.28125 13.890625 
Q 47.125 21.390625 47.125 36.375 
Q 47.125 51.421875 43.28125 58.90625 
Q 39.453125 66.40625 31.78125 66.40625 
z
M 31.78125 74.21875 
Q 44.046875 74.21875 50.515625 64.515625 
Q 56.984375 54.828125 56.984375 36.375 
Q 56.984375 17.96875 50.515625 8.265625 
Q 44.046875 -1.421875 31.78125 -1.421875 
Q 19.53125 -1.421875 13.0625 8.265625 
Q 6.59375 17.96875 6.59375 36.375 
Q 6.59375 54.828125 13.0625 64.515625 
Q 19.53125 74.21875 31.78125 74.21875 
z
" id="DejaVuSans-30"/>
      </defs>
      <g transform="translate(19.925 127.198438)scale(0.1 -0.1)">
       <use xlink:href="#DejaVuSans-30"/>
      </g>
     </g>
    </g>
    <g id="ytick_2">
     <g id="line2d_2">
      <g>
       <use style="stroke:#000000;stroke-width:0.8;" x="33.2875" xlink:href="#m62eaaa3cfc" y="67.199219"/>
      </g>
     </g>
     <g id="text_2">
      <!-- 150 -->
      <defs>
       <path d="M 12.40625 8.296875 
L 28.515625 8.296875 
L 28.515625 63.921875 
L 10.984375 60.40625 
L 10.984375 69.390625 
L 28.421875 72.90625 
L 38.28125 72.90625 
L 38.28125 8.296875 
L 54.390625 8.296875 
L 54.390625 0 
L 12.40625 0 
z
" id="DejaVuSans-31"/>
       <path d="M 10.796875 72.90625 
L 49.515625 72.90625 
L 49.515625 64.59375 
L 19.828125 64.59375 
L 19.828125 46.734375 
Q 21.96875 47.46875 24.109375 47.828125 
Q 26.265625 48.1875 28.421875 48.1875 
Q 40.625 48.1875 47.75 41.5 
Q 54.890625 34.8125 54.890625 23.390625 
Q 54.890625 11.625 47.5625 5.09375 
Q 40.234375 -1.421875 26.90625 -1.421875 
Q 22.3125 -1.421875 17.546875 -0.640625 
Q 12.796875 0.140625 7.71875 1.703125 
L 7.71875 11.625 
Q 12.109375 9.234375 16.796875 8.0625 
Q 21.484375 6.890625 26.703125 6.890625 
Q 35.15625 6.890625 40.078125 11.328125 
Q 45.015625 15.765625 45.015625 23.390625 
Q 45.015625 31 40.078125 35.4375 
Q 35.15625 39.890625 26.703125 39.890625 
Q 22.75 39.890625 18.8125 39.015625 
Q 14.890625 38.140625 10.796875 36.28125 
z
" id="DejaVuSans-35"/>
      </defs>
      <g transform="translate(7.2 70.998437)scale(0.1 -0.1)">
       <use xlink:href="#DejaVuSans-31"/>
       <use x="63.623047" xlink:href="#DejaVuSans-35"/>
       <use x="127.246094" xlink:href="#DejaVuSans-30"/>
      </g>
     </g>
    </g>
    <g id="ytick_3">
     <g id="line2d_3">
      <g>
       <use style="stroke:#000000;stroke-width:0.8;" x="33.2875" xlink:href="#m62eaaa3cfc" y="10.999219"/>
      </g>
     </g>
     <g id="text_3">
      <!-- 300 -->
      <defs>
       <path d="M 40.578125 39.3125 
Q 47.65625 37.796875 51.625 33 
Q 55.609375 28.21875 55.609375 21.1875 
Q 55.609375 10.40625 48.1875 4.484375 
Q 40.765625 -1.421875 27.09375 -1.421875 
Q 22.515625 -1.421875 17.65625 -0.515625 
Q 12.796875 0.390625 7.625 2.203125 
L 7.625 11.71875 
Q 11.71875 9.328125 16.59375 8.109375 
Q 21.484375 6.890625 26.8125 6.890625 
Q 36.078125 6.890625 40.9375 10.546875 
Q 45.796875 14.203125 45.796875 21.1875 
Q 45.796875 27.640625 41.28125 31.265625 
Q 36.765625 34.90625 28.71875 34.90625 
L 20.21875 34.90625 
L 20.21875 43.015625 
L 29.109375 43.015625 
Q 36.375 43.015625 40.234375 45.921875 
Q 44.09375 48.828125 44.09375 54.296875 
Q 44.09375 59.90625 40.109375 62.90625 
Q 36.140625 65.921875 28.71875 65.921875 
Q 24.65625 65.921875 20.015625 65.03125 
Q 15.375 64.15625 9.8125 62.3125 
L 9.8125 71.09375 
Q 15.4375 72.65625 20.34375 73.4375 
Q 25.25 74.21875 29.59375 74.21875 
Q 40.828125 74.21875 47.359375 69.109375 
Q 53.90625 64.015625 53.90625 55.328125 
Q 53.90625 49.265625 50.4375 45.09375 
Q 46.96875 40.921875 40.578125 39.3125 
z
" id="DejaVuSans-33"/>
      </defs>
      <g transform="translate(7.2 14.798437)scale(0.1 -0.1)">
       <use xlink:href="#DejaVuSans-33"/>
       <use x="63.623047" xlink:href="#DejaVuSans-30"/>
       <use x="127.246094" xlink:href="#DejaVuSans-30"/>
      </g>
     </g>
    </g>
   </g>
   <g id="patch_3">
    <path d="M 33.2875 123.399219 
L 33.2875 10.999219 
" style="fill:none;stroke:#000000;stroke-linecap:square;stroke-linejoin:miter;stroke-width:0.8;"/>
   </g>
   <g id="patch_4">
    <path d="M 33.2875 123.399219 
L 126.1875 123.399219 
" style="fill:none;stroke:#000000;stroke-linecap:square;stroke-linejoin:miter;stroke-width:0.8;"/>
   </g>
  </g>
 </g>
 <defs>
  <clipPath id="p7074b95425">
   <rect height="112.4" width="92.9" x="33.2875" y="10.999219"/>
  </clipPath>
 </defs>
</svg>
