<?xml version="1.0" encoding="utf-8" standalone="no"?>
<!DOCTYPE svg PUBLIC "-//W3C//DTD SVG 1.1//EN"
  "http://www.w3.org/Graphics/SVG/1.1/DTD/svg11.dtd">
<!-- Created with matplotlib (http://matplotlib.org/) -->
<svg height="136pt" version="1.1" viewBox="0 0 136 136" width="136pt" xmlns="http://www.w3.org/2000/svg" xmlns:xlink="http://www.w3.org/1999/xlink">
 <defs>
  <style type="text/css">
*{stroke-linecap:butt;stroke-linejoin:round;}
  </style>
 </defs>
 <g id="figure_1">
  <g id="patch_1">
   <path d="M 0 136.478125 
L 136.8875 136.478125 
L 136.8875 0 
L 0 0 
z
" style="fill:#ffffff;"/>
  </g>
  <g id="axes_1">
   <g id="patch_2">
    <path d="M 33.2875 123.399219 
L 126.1875 123.399219 
L 126.1875 10.999219 
L 33.2875 10.999219 
z
" style="fill:#ffffff;"/>
   </g>
   <g id="PolyCollection_1">
    <path clip-path="url(#pd1742356d7)" d="M 79.741916 123.399219 
L 79.326548 123.399219 
L 79.445528 123.047987 
L 79.63279 122.696754 
L 79.718544 122.345522 
L 79.735768 121.99429 
L 79.73742 121.643058 
L 79.737498 121.291826 
L 79.7375 120.940594 
L 79.7375 120.589361 
L 79.7375 120.238129 
L 79.7375 119.886897 
L 79.737496 119.535665 
L 79.737407 119.184433 
L 79.736349 118.833201 
L 79.729782 118.481968 
L 79.70789 118.130736 
L 79.666145 117.779504 
L 79.61449 117.428272 
L 79.561998 117.07704 
L 79.512692 116.725807 
L 79.490227 116.374575 
L 79.503091 116.023343 
L 79.503891 115.672111 
L 79.480497 115.320879 
L 79.465943 114.969647 
L 79.455444 114.618414 
L 79.446643 114.267182 
L 79.45889 113.91595 
L 79.476447 113.564718 
L 79.463863 113.213486 
L 79.412151 112.862254 
L 79.36094 112.511021 
L 79.357296 112.159789 
L 79.38534 111.808557 
L 79.401467 111.457325 
L 79.397717 111.106093 
L 79.389528 110.754861 
L 79.388833 110.403628 
L 79.396673 110.052396 
L 79.407323 109.701164 
L 79.406561 109.349932 
L 79.370884 108.9987 
L 79.306027 108.647467 
L 79.236631 108.296235 
L 79.200835 107.945003 
L 79.231784 107.593771 
L 79.284458 107.242539 
L 79.297918 106.891307 
L 79.273125 106.540074 
L 79.247679 106.188842 
L 79.239114 105.83761 
L 79.203855 105.486378 
L 79.034762 105.135146 
L 78.53831 104.783914 
L 77.54867 104.432681 
L 76.097152 104.081449 
L 74.229041 103.730217 
L 71.828307 103.378985 
L 68.914997 103.027753 
L 65.779114 102.676521 
L 62.642841 102.325288 
L 59.61078 101.974056 
L 56.794352 101.622824 
L 54.004981 101.271592 
L 51.028997 100.92036 
L 48.101532 100.569128 
L 45.284114 100.217895 
L 42.429268 99.866663 
L 39.927786 99.515431 
L 38.272163 99.164199 
L 37.510227 98.812967 
L 37.699173 98.461734 
L 39.179087 98.110502 
L 41.435886 97.75927 
L 43.32355 97.408038 
L 44.631251 97.056806 
L 46.225727 96.705574 
L 48.57409 96.354341 
L 50.994372 96.003109 
L 53.110356 95.651877 
L 55.10862 95.300645 
L 57.124637 94.949413 
L 59.284498 94.598181 
L 61.479125 94.246948 
L 63.387623 93.895716 
L 65.200864 93.544484 
L 67.617926 93.193252 
L 70.786928 92.84202 
L 73.945227 92.490788 
L 76.310175 92.139555 
L 77.818033 91.788323 
L 78.738631 91.437091 
L 79.243661 91.085859 
L 79.455595 90.734627 
L 79.510834 90.383395 
L 79.535453 90.032162 
L 79.581661 89.68093 
L 79.625554 89.329698 
L 79.643524 88.978466 
L 79.662926 88.627234 
L 79.741916 88.627234 
L 79.741916 88.627234 
L 79.741916 88.978466 
L 79.741916 89.329698 
L 79.741916 89.68093 
L 79.741916 90.032162 
L 79.741916 90.383395 
L 79.741916 90.734627 
L 79.741916 91.085859 
L 79.741916 91.437091 
L 79.741916 91.788323 
L 79.741916 92.139555 
L 79.741916 92.490788 
L 79.741916 92.84202 
L 79.741916 93.193252 
L 79.741916 93.544484 
L 79.741916 93.895716 
L 79.741916 94.246948 
L 79.741916 94.598181 
L 79.741916 94.949413 
L 79.741916 95.300645 
L 79.741916 95.651877 
L 79.741916 96.003109 
L 79.741916 96.354341 
L 79.741916 96.705574 
L 79.741916 97.056806 
L 79.741916 97.408038 
L 79.741916 97.75927 
L 79.741916 98.110502 
L 79.741916 98.461734 
L 79.741916 98.812967 
L 79.741916 99.164199 
L 79.741916 99.515431 
L 79.741916 99.866663 
L 79.741916 100.217895 
L 79.741916 100.569128 
L 79.741916 100.92036 
L 79.741916 101.271592 
L 79.741916 101.622824 
L 79.741916 101.974056 
L 79.741916 102.325288 
L 79.741916 102.676521 
L 79.741916 103.027753 
L 79.741916 103.378985 
L 79.741916 103.730217 
L 79.741916 104.081449 
L 79.741916 104.432681 
L 79.741916 104.783914 
L 79.741916 105.135146 
L 79.741916 105.486378 
L 79.741916 105.83761 
L 79.741916 106.188842 
L 79.741916 106.540074 
L 79.741916 106.891307 
L 79.741916 107.242539 
L 79.741916 107.593771 
L 79.741916 107.945003 
L 79.741916 108.296235 
L 79.741916 108.647467 
L 79.741916 108.9987 
L 79.741916 109.349932 
L 79.741916 109.701164 
L 79.741916 110.052396 
L 79.741916 110.403628 
L 79.741916 110.754861 
L 79.741916 111.106093 
L 79.741916 111.457325 
L 79.741916 111.808557 
L 79.741916 112.159789 
L 79.741916 112.511021 
L 79.741916 112.862254 
L 79.741916 113.213486 
L 79.741916 113.564718 
L 79.741916 113.91595 
L 79.741916 114.267182 
L 79.741916 114.618414 
L 79.741916 114.969647 
L 79.741916 115.320879 
L 79.741916 115.672111 
L 79.741916 116.023343 
L 79.741916 116.374575 
L 79.741916 116.725807 
L 79.741916 117.07704 
L 79.741916 117.428272 
L 79.741916 117.779504 
L 79.741916 118.130736 
L 79.741916 118.481968 
L 79.738651 118.833201 
L 79.737593 119.184433 
L 79.737504 119.535665 
L 79.7375 119.886897 
L 79.7375 120.238129 
L 79.7375 120.589361 
L 79.7375 120.940594 
L 79.737502 121.291826 
L 79.73758 121.643058 
L 79.739232 121.99429 
L 79.741916 122.345522 
L 79.741916 122.696754 
L 79.741916 123.047987 
L 79.741916 123.399219 
z
" style="fill:#1f77b4;fill-opacity:0.3;"/>
   </g>
   <g id="PolyCollection_2">
    <path clip-path="url(#pd1742356d7)" d="M 79.753805 123.399219 
L 79.737978 123.399219 
L 79.737978 122.276885 
L 79.737978 121.154552 
L 79.737978 120.032218 
L 79.737978 118.909885 
L 79.737978 117.787551 
L 79.737978 116.665218 
L 79.737978 115.542884 
L 79.737978 114.420551 
L 79.737978 113.298217 
L 79.737978 112.175884 
L 79.737978 111.05355 
L 79.737978 109.931217 
L 79.737978 108.808884 
L 79.737978 107.68655 
L 79.737978 106.564217 
L 79.737978 105.441883 
L 79.737978 104.31955 
L 79.737978 103.197216 
L 79.737978 102.074883 
L 79.737978 100.952549 
L 79.737978 99.830216 
L 79.737978 98.707882 
L 79.737978 97.585549 
L 79.737978 96.463215 
L 79.737978 95.340882 
L 79.737978 94.218548 
L 79.737978 93.096215 
L 79.737978 91.973881 
L 79.737978 90.851548 
L 79.737978 89.729214 
L 79.737978 88.606881 
L 79.737978 87.484547 
L 79.737978 86.362214 
L 79.737978 85.23988 
L 79.737978 84.117547 
L 79.737978 82.995214 
L 79.737978 81.87288 
L 79.737978 80.750547 
L 79.737978 79.628213 
L 79.737978 78.50588 
L 79.737978 77.383546 
L 79.737978 76.261213 
L 79.737978 75.138879 
L 79.737978 74.016546 
L 79.737978 72.894212 
L 79.737978 71.771879 
L 79.737978 70.649545 
L 79.737978 69.527212 
L 79.737978 68.404878 
L 79.737978 67.282545 
L 79.737978 66.160211 
L 79.737978 65.037878 
L 79.737978 63.915544 
L 79.737978 62.793211 
L 79.737978 61.670877 
L 79.737978 60.548544 
L 79.737978 59.42621 
L 79.737978 58.303877 
L 79.737978 57.181543 
L 79.737978 56.05921 
L 79.737978 54.936877 
L 79.737978 53.814543 
L 79.737978 52.69221 
L 79.737978 51.569876 
L 79.737978 50.447543 
L 79.737978 49.325209 
L 79.737978 48.202876 
L 79.737978 47.080542 
L 79.737978 45.958209 
L 79.737978 44.835875 
L 79.737978 43.713542 
L 79.737978 42.591208 
L 79.737978 41.468875 
L 79.737978 40.346541 
L 79.737978 39.224208 
L 79.737978 38.101874 
L 79.737978 36.979541 
L 79.737978 35.857207 
L 79.737978 34.734874 
L 79.737978 33.61254 
L 79.737978 32.490207 
L 79.737978 31.367873 
L 79.737978 30.24554 
L 79.737978 29.123207 
L 79.737978 28.000873 
L 79.737978 26.87854 
L 79.737978 25.756206 
L 79.737978 24.633873 
L 79.737978 23.511539 
L 79.737978 22.389206 
L 79.737978 21.266872 
L 79.737978 20.144539 
L 79.737978 19.022205 
L 79.737978 17.899872 
L 79.737978 16.777538 
L 79.737978 15.655205 
L 79.737978 14.532871 
L 79.737978 13.410538 
L 79.737978 12.288204 
L 79.801905 12.288204 
L 79.801905 12.288204 
L 79.841268 13.410538 
L 79.897416 14.532871 
L 79.972399 15.655205 
L 80.060768 16.777538 
L 80.150499 17.899872 
L 80.231266 19.022205 
L 80.301948 20.144539 
L 80.367741 21.266872 
L 80.429684 22.389206 
L 80.480927 23.511539 
L 80.515982 24.633873 
L 80.540617 25.756206 
L 80.568228 26.87854 
L 80.606774 28.000873 
L 80.652184 29.123207 
L 80.695211 30.24554 
L 80.733505 31.367873 
L 80.774598 32.490207 
L 80.824849 33.61254 
L 80.878717 34.734874 
L 80.923961 35.857207 
L 80.95462 36.979541 
L 80.973491 38.101874 
L 80.983743 39.224208 
L 80.982941 40.346541 
L 80.966995 41.468875 
L 80.940089 42.591208 
L 80.918691 43.713542 
L 80.921041 44.835875 
L 80.950286 45.958209 
L 80.990301 47.080542 
L 81.020644 48.202876 
L 81.035182 49.325209 
L 81.045075 50.447543 
L 81.065872 51.569876 
L 81.105421 52.69221 
L 81.161951 53.814543 
L 81.226311 54.936877 
L 81.28409 56.05921 
L 81.320618 57.181543 
L 81.329129 58.303877 
L 81.317384 59.42621 
L 81.30584 60.548544 
L 81.314979 61.670877 
L 81.353423 62.793211 
L 81.419427 63.915544 
L 81.507776 65.037878 
L 81.608782 66.160211 
L 81.706881 67.282545 
L 81.790876 68.404878 
L 81.86592 69.527212 
L 81.951179 70.649545 
L 82.067746 71.771879 
L 82.232471 72.894212 
L 82.459243 74.016546 
L 82.755977 75.138879 
L 83.114512 76.261213 
L 83.507099 77.383546 
L 83.899487 78.50588 
L 84.272433 79.628213 
L 84.635351 80.750547 
L 85.020199 81.87288 
L 85.459299 82.995214 
L 85.972501 84.117547 
L 86.586315 85.23988 
L 87.377629 86.362214 
L 88.522255 87.484547 
L 90.335319 88.606881 
L 93.251993 89.729214 
L 97.643998 90.851548 
L 103.476395 91.973881 
L 110.06083 93.096215 
L 116.178801 94.218548 
L 120.498978 95.340882 
L 121.964773 96.463215 
L 120.015607 97.585549 
L 114.765214 98.707882 
L 107.149646 99.830216 
L 98.781544 100.952549 
L 91.357192 102.074883 
L 85.946156 103.197216 
L 82.693186 104.31955 
L 81.078758 105.441883 
L 80.411653 106.564217 
L 80.170806 107.68655 
L 80.082302 108.808884 
L 80.040984 109.931217 
L 80.013828 111.05355 
L 79.987405 112.175884 
L 79.954867 113.298217 
L 79.915501 114.420551 
L 79.872431 115.542884 
L 79.830189 116.665218 
L 79.79404 117.787551 
L 79.768531 118.909885 
L 79.755184 120.032218 
L 79.751647 121.154552 
L 79.752914 122.276885 
L 79.753805 123.399219 
z
" style="fill:#ff7f0e;fill-opacity:0.3;"/>
   </g>
   <g id="matplotlib.axis_1"/>
   <g id="matplotlib.axis_2">
    <g id="ytick_1">
     <g id="line2d_1">
      <defs>
       <path d="M 0 0 
L -3.5 0 
" id="m5423446243" style="stroke:#000000;stroke-width:0.8;"/>
      </defs>
      <g>
       <use style="stroke:#000000;stroke-width:0.8;" x="33.2875" xlink:href="#m5423446243" y="123.399219"/>
      </g>
     </g>
     <g id="text_1">
      <!-- 0 -->
      <defs>
       <path d="M 31.78125 66.40625 
Q 24.171875 66.40625 20.328125 58.90625 
Q 16.5 51.421875 16.5 36.375 
Q 16.5 21.390625 20.328125 13.890625 
Q 24.171875 6.390625 31.78125 6.390625 
Q 39.453125 6.390625 43.28125 13.890625 
Q 47.125 21.390625 47.125 36.375 
Q 47.125 51.421875 43.28125 58.90625 
Q 39.453125 66.40625 31.78125 66.40625 
z
M 31.78125 74.21875 
Q 44.046875 74.21875 50.515625 64.515625 
Q 56.984375 54.828125 56.984375 36.375 
Q 56.984375 17.96875 50.515625 8.265625 
Q 44.046875 -1.421875 31.78125 -1.421875 
Q 19.53125 -1.421875 13.0625 8.265625 
Q 6.59375 17.96875 6.59375 36.375 
Q 6.59375 54.828125 13.0625 64.515625 
Q 19.53125 74.21875 31.78125 74.21875 
z
" id="DejaVuSans-30"/>
      </defs>
      <g transform="translate(19.925 127.198438)scale(0.1 -0.1)">
       <use xlink:href="#DejaVuSans-30"/>
      </g>
     </g>
    </g>
    <g id="ytick_2">
     <g id="line2d_2">
      <g>
       <use style="stroke:#000000;stroke-width:0.8;" x="33.2875" xlink:href="#m5423446243" y="67.199219"/>
      </g>
     </g>
     <g id="text_2">
      <!-- 150 -->
      <defs>
       <path d="M 12.40625 8.296875 
L 28.515625 8.296875 
L 28.515625 63.921875 
L 10.984375 60.40625 
L 10.984375 69.390625 
L 28.421875 72.90625 
L 38.28125 72.90625 
L 38.28125 8.296875 
L 54.390625 8.296875 
L 54.390625 0 
L 12.40625 0 
z
" id="DejaVuSans-31"/>
       <path d="M 10.796875 72.90625 
L 49.515625 72.90625 
L 49.515625 64.59375 
L 19.828125 64.59375 
L 19.828125 46.734375 
Q 21.96875 47.46875 24.109375 47.828125 
Q 26.265625 48.1875 28.421875 48.1875 
Q 40.625 48.1875 47.75 41.5 
Q 54.890625 34.8125 54.890625 23.390625 
Q 54.890625 11.625 47.5625 5.09375 
Q 40.234375 -1.421875 26.90625 -1.421875 
Q 22.3125 -1.421875 17.546875 -0.640625 
Q 12.796875 0.140625 7.71875 1.703125 
L 7.71875 11.625 
Q 12.109375 9.234375 16.796875 8.0625 
Q 21.484375 6.890625 26.703125 6.890625 
Q 35.15625 6.890625 40.078125 11.328125 
Q 45.015625 15.765625 45.015625 23.390625 
Q 45.015625 31 40.078125 35.4375 
Q 35.15625 39.890625 26.703125 39.890625 
Q 22.75 39.890625 18.8125 39.015625 
Q 14.890625 38.140625 10.796875 36.28125 
z
" id="DejaVuSans-35"/>
      </defs>
      <g transform="translate(7.2 70.998437)scale(0.1 -0.1)">
       <use xlink:href="#DejaVuSans-31"/>
       <use x="63.623047" xlink:href="#DejaVuSans-35"/>
       <use x="127.246094" xlink:href="#DejaVuSans-30"/>
      </g>
     </g>
    </g>
    <g id="ytick_3">
     <g id="line2d_3">
      <g>
       <use style="stroke:#000000;stroke-width:0.8;" x="33.2875" xlink:href="#m5423446243" y="10.999219"/>
      </g>
     </g>
     <g id="text_3">
      <!-- 300 -->
      <defs>
       <path d="M 40.578125 39.3125 
Q 47.65625 37.796875 51.625 33 
Q 55.609375 28.21875 55.609375 21.1875 
Q 55.609375 10.40625 48.1875 4.484375 
Q 40.765625 -1.421875 27.09375 -1.421875 
Q 22.515625 -1.421875 17.65625 -0.515625 
Q 12.796875 0.390625 7.625 2.203125 
L 7.625 11.71875 
Q 11.71875 9.328125 16.59375 8.109375 
Q 21.484375 6.890625 26.8125 6.890625 
Q 36.078125 6.890625 40.9375 10.546875 
Q 45.796875 14.203125 45.796875 21.1875 
Q 45.796875 27.640625 41.28125 31.265625 
Q 36.765625 34.90625 28.71875 34.90625 
L 20.21875 34.90625 
L 20.21875 43.015625 
L 29.109375 43.015625 
Q 36.375 43.015625 40.234375 45.921875 
Q 44.09375 48.828125 44.09375 54.296875 
Q 44.09375 59.90625 40.109375 62.90625 
Q 36.140625 65.921875 28.71875 65.921875 
Q 24.65625 65.921875 20.015625 65.03125 
Q 15.375 64.15625 9.8125 62.3125 
L 9.8125 71.09375 
Q 15.4375 72.65625 20.34375 73.4375 
Q 25.25 74.21875 29.59375 74.21875 
Q 40.828125 74.21875 47.359375 69.109375 
Q 53.90625 64.015625 53.90625 55.328125 
Q 53.90625 49.265625 50.4375 45.09375 
Q 46.96875 40.921875 40.578125 39.3125 
z
" id="DejaVuSans-33"/>
      </defs>
      <g transform="translate(7.2 14.798437)scale(0.1 -0.1)">
       <use xlink:href="#DejaVuSans-33"/>
       <use x="63.623047" xlink:href="#DejaVuSans-30"/>
       <use x="127.246094" xlink:href="#DejaVuSans-30"/>
      </g>
     </g>
    </g>
   </g>
   <g id="patch_3">
    <path d="M 33.2875 123.399219 
L 33.2875 10.999219 
" style="fill:none;stroke:#000000;stroke-linecap:square;stroke-linejoin:miter;stroke-width:0.8;"/>
   </g>
   <g id="patch_4">
    <path d="M 33.2875 123.399219 
L 126.1875 123.399219 
" style="fill:none;stroke:#000000;stroke-linecap:square;stroke-linejoin:miter;stroke-width:0.8;"/>
   </g>
  </g>
 </g>
 <defs>
  <clipPath id="pd1742356d7">
   <rect height="112.4" width="92.9" x="33.2875" y="10.999219"/>
  </clipPath>
 </defs>
</svg>
