<?xml version="1.0" encoding="utf-8" standalone="no"?>
<!DOCTYPE svg PUBLIC "-//W3C//DTD SVG 1.1//EN"
  "http://www.w3.org/Graphics/SVG/1.1/DTD/svg11.dtd">
<!-- Created with matplotlib (http://matplotlib.org/) -->
<svg height="223pt" version="1.1" viewBox="0 0 223 223" width="223pt" xmlns="http://www.w3.org/2000/svg" xmlns:xlink="http://www.w3.org/1999/xlink">
 <defs>
  <style type="text/css">
*{stroke-linecap:butt;stroke-linejoin:round;}
  </style>
 </defs>
 <g id="figure_1">
  <g id="patch_1">
   <path d="M -0 223 
L 223 223 
L 223 0 
L -0 0 
z
" style="fill:#ffffff;"/>
  </g>
  <g id="axes_1">
   <g id="patch_2">
    <path d="M 3.5 219.5 
L 219.5 219.5 
L 219.5 3.5 
L 3.5 3.5 
z
" style="fill:#ffffff;"/>
   </g>
   <g id="matplotlib.axis_1">
    <g id="xtick_1">
     <g id="line2d_1">
      <defs>
       <path d="M 0 0 
L 0 2 
" id="mbd67a7a20b" style="stroke:#000000;stroke-width:0.6;"/>
      </defs>
      <g>
       <use style="stroke:#000000;stroke-width:0.6;" x="19.75562" xlink:href="#mbd67a7a20b" y="219.5"/>
      </g>
     </g>
    </g>
    <g id="xtick_2">
     <g id="line2d_2">
      <g>
       <use style="stroke:#000000;stroke-width:0.6;" x="29.264548" xlink:href="#mbd67a7a20b" y="219.5"/>
      </g>
     </g>
    </g>
    <g id="xtick_3">
     <g id="line2d_3">
      <g>
       <use style="stroke:#000000;stroke-width:0.6;" x="36.01124" xlink:href="#mbd67a7a20b" y="219.5"/>
      </g>
     </g>
    </g>
    <g id="xtick_4">
     <g id="line2d_4">
      <g>
       <use style="stroke:#000000;stroke-width:0.6;" x="41.24438" xlink:href="#mbd67a7a20b" y="219.5"/>
      </g>
     </g>
    </g>
    <g id="xtick_5">
     <g id="line2d_5">
      <g>
       <use style="stroke:#000000;stroke-width:0.6;" x="45.520168" xlink:href="#mbd67a7a20b" y="219.5"/>
      </g>
     </g>
    </g>
    <g id="xtick_6">
     <g id="line2d_6">
      <g>
       <use style="stroke:#000000;stroke-width:0.6;" x="49.135294" xlink:href="#mbd67a7a20b" y="219.5"/>
      </g>
     </g>
    </g>
    <g id="xtick_7">
     <g id="line2d_7">
      <g>
       <use style="stroke:#000000;stroke-width:0.6;" x="52.266859" xlink:href="#mbd67a7a20b" y="219.5"/>
      </g>
     </g>
    </g>
    <g id="xtick_8">
     <g id="line2d_8">
      <g>
       <use style="stroke:#000000;stroke-width:0.6;" x="55.029096" xlink:href="#mbd67a7a20b" y="219.5"/>
      </g>
     </g>
    </g>
    <g id="xtick_9">
     <g id="line2d_9">
      <g>
       <use style="stroke:#000000;stroke-width:0.6;" x="73.75562" xlink:href="#mbd67a7a20b" y="219.5"/>
      </g>
     </g>
    </g>
    <g id="xtick_10">
     <g id="line2d_10">
      <g>
       <use style="stroke:#000000;stroke-width:0.6;" x="83.264548" xlink:href="#mbd67a7a20b" y="219.5"/>
      </g>
     </g>
    </g>
    <g id="xtick_11">
     <g id="line2d_11">
      <g>
       <use style="stroke:#000000;stroke-width:0.6;" x="90.01124" xlink:href="#mbd67a7a20b" y="219.5"/>
      </g>
     </g>
    </g>
    <g id="xtick_12">
     <g id="line2d_12">
      <g>
       <use style="stroke:#000000;stroke-width:0.6;" x="95.24438" xlink:href="#mbd67a7a20b" y="219.5"/>
      </g>
     </g>
    </g>
    <g id="xtick_13">
     <g id="line2d_13">
      <g>
       <use style="stroke:#000000;stroke-width:0.6;" x="99.520168" xlink:href="#mbd67a7a20b" y="219.5"/>
      </g>
     </g>
    </g>
    <g id="xtick_14">
     <g id="line2d_14">
      <g>
       <use style="stroke:#000000;stroke-width:0.6;" x="103.135294" xlink:href="#mbd67a7a20b" y="219.5"/>
      </g>
     </g>
    </g>
    <g id="xtick_15">
     <g id="line2d_15">
      <g>
       <use style="stroke:#000000;stroke-width:0.6;" x="106.266859" xlink:href="#mbd67a7a20b" y="219.5"/>
      </g>
     </g>
    </g>
    <g id="xtick_16">
     <g id="line2d_16">
      <g>
       <use style="stroke:#000000;stroke-width:0.6;" x="109.029096" xlink:href="#mbd67a7a20b" y="219.5"/>
      </g>
     </g>
    </g>
    <g id="xtick_17">
     <g id="line2d_17">
      <g>
       <use style="stroke:#000000;stroke-width:0.6;" x="127.75562" xlink:href="#mbd67a7a20b" y="219.5"/>
      </g>
     </g>
    </g>
    <g id="xtick_18">
     <g id="line2d_18">
      <g>
       <use style="stroke:#000000;stroke-width:0.6;" x="137.264548" xlink:href="#mbd67a7a20b" y="219.5"/>
      </g>
     </g>
    </g>
    <g id="xtick_19">
     <g id="line2d_19">
      <g>
       <use style="stroke:#000000;stroke-width:0.6;" x="144.01124" xlink:href="#mbd67a7a20b" y="219.5"/>
      </g>
     </g>
    </g>
    <g id="xtick_20">
     <g id="line2d_20">
      <g>
       <use style="stroke:#000000;stroke-width:0.6;" x="149.24438" xlink:href="#mbd67a7a20b" y="219.5"/>
      </g>
     </g>
    </g>
    <g id="xtick_21">
     <g id="line2d_21">
      <g>
       <use style="stroke:#000000;stroke-width:0.6;" x="153.520168" xlink:href="#mbd67a7a20b" y="219.5"/>
      </g>
     </g>
    </g>
    <g id="xtick_22">
     <g id="line2d_22">
      <g>
       <use style="stroke:#000000;stroke-width:0.6;" x="157.135294" xlink:href="#mbd67a7a20b" y="219.5"/>
      </g>
     </g>
    </g>
    <g id="xtick_23">
     <g id="line2d_23">
      <g>
       <use style="stroke:#000000;stroke-width:0.6;" x="160.266859" xlink:href="#mbd67a7a20b" y="219.5"/>
      </g>
     </g>
    </g>
    <g id="xtick_24">
     <g id="line2d_24">
      <g>
       <use style="stroke:#000000;stroke-width:0.6;" x="163.029096" xlink:href="#mbd67a7a20b" y="219.5"/>
      </g>
     </g>
    </g>
    <g id="xtick_25">
     <g id="line2d_25">
      <g>
       <use style="stroke:#000000;stroke-width:0.6;" x="181.75562" xlink:href="#mbd67a7a20b" y="219.5"/>
      </g>
     </g>
    </g>
    <g id="xtick_26">
     <g id="line2d_26">
      <g>
       <use style="stroke:#000000;stroke-width:0.6;" x="191.264548" xlink:href="#mbd67a7a20b" y="219.5"/>
      </g>
     </g>
    </g>
    <g id="xtick_27">
     <g id="line2d_27">
      <g>
       <use style="stroke:#000000;stroke-width:0.6;" x="198.01124" xlink:href="#mbd67a7a20b" y="219.5"/>
      </g>
     </g>
    </g>
    <g id="xtick_28">
     <g id="line2d_28">
      <g>
       <use style="stroke:#000000;stroke-width:0.6;" x="203.24438" xlink:href="#mbd67a7a20b" y="219.5"/>
      </g>
     </g>
    </g>
    <g id="xtick_29">
     <g id="line2d_29">
      <g>
       <use style="stroke:#000000;stroke-width:0.6;" x="207.520168" xlink:href="#mbd67a7a20b" y="219.5"/>
      </g>
     </g>
    </g>
    <g id="xtick_30">
     <g id="line2d_30">
      <g>
       <use style="stroke:#000000;stroke-width:0.6;" x="211.135294" xlink:href="#mbd67a7a20b" y="219.5"/>
      </g>
     </g>
    </g>
    <g id="xtick_31">
     <g id="line2d_31">
      <g>
       <use style="stroke:#000000;stroke-width:0.6;" x="214.266859" xlink:href="#mbd67a7a20b" y="219.5"/>
      </g>
     </g>
    </g>
    <g id="xtick_32">
     <g id="line2d_32">
      <g>
       <use style="stroke:#000000;stroke-width:0.6;" x="217.029096" xlink:href="#mbd67a7a20b" y="219.5"/>
      </g>
     </g>
    </g>
   </g>
   <g id="matplotlib.axis_2"/>
   <g id="line2d_33">
    <path clip-path="url(#p2cff45f6a8)" d="M 4.820134 224 
L 7.908163 222.364252 
L 12.316327 220.031614 
L 16.72449 217.701396 
L 21.132653 217.701396 
L 25.540816 217.701396 
L 29.94898 217.701396 
L 34.357143 217.701396 
L 38.765306 217.701396 
L 43.173469 215.373621 
L 47.581633 205.865757 
L 51.989796 198.636201 
L 56.397959 192.055697 
L 60.806122 184.815405 
L 65.214286 169.433532 
L 69.622449 159.13056 
L 74.030612 150.525649 
L 78.438776 138.76687 
L 82.846939 128.504008 
L 87.255102 118.198121 
L 91.663265 109.250623 
L 96.071429 102.410608 
L 100.479592 92.815542 
L 104.887755 86.38965 
L 109.295918 78.441824 
L 113.704082 72.011805 
L 118.112245 70.835239 
L 122.520408 62.860108 
L 126.928571 54.587159 
L 131.336735 51.826962 
L 135.744898 45.931363 
L 140.153061 40.736906 
L 144.561224 39.282266 
L 148.969388 37.439922 
L 153.377551 34.233476 
L 157.785714 30.684365 
L 162.193878 30.971156 
L 166.602041 30.453407 
L 171.010204 31.168592 
L 175.418367 32.123988 
L 179.826531 33.323604 
L 184.234694 34.771036 
L 188.642857 36.480809 
L 193.05102 38.476122 
L 197.459184 40.778353 
L 201.867347 43.407263 
L 206.27551 46.386999 
L 210.683673 49.743183 
L 215.091837 53.488762 
L 219.5 57.607762 
" style="fill:none;opacity:0.5;stroke:#1f9e89;stroke-linecap:square;stroke-width:0.3;"/>
   </g>
   <g id="line2d_34">
    <path clip-path="url(#p2cff45f6a8)" d="M 3.5 215.493606 
L 7.908163 205.676196 
L 12.316327 196.17454 
L 16.72449 186.145617 
L 21.132653 179.137713 
L 25.540816 167.92754 
L 29.94898 161.364291 
L 34.357143 150.64714 
L 38.765306 145.594812 
L 43.173469 135.632001 
L 47.581633 125.242716 
L 51.989796 116.993523 
L 56.397959 111.924178 
L 60.806122 104.835198 
L 65.214286 96.227666 
L 69.622449 87.660886 
L 74.030612 80.867048 
L 78.438776 71.729793 
L 82.846939 65.522529 
L 87.255102 56.472623 
L 91.663265 53.617475 
L 96.071429 52.904431 
L 100.479592 47.436814 
L 104.887755 43.546737 
L 109.295918 40.121518 
L 113.704082 38.356672 
L 118.112245 33.446177 
L 122.520408 32.166532 
L 126.928571 30.305702 
L 131.336735 30.885879 
L 135.744898 31.734887 
L 140.153061 32.854795 
L 144.561224 34.25279 
L 148.969388 35.941675 
L 153.377551 37.926556 
L 157.785714 40.19974 
L 162.193878 42.754894 
L 166.602041 45.600788 
L 171.010204 48.750052 
L 175.418367 52.196865 
L 179.826531 55.921571 
L 184.234694 59.907898 
L 188.642857 64.135522 
L 193.05102 68.570689 
L 197.459184 73.185318 
L 201.867347 77.98096 
L 206.27551 82.988225 
L 210.683673 88.2505 
L 215.091837 93.806856 
L 219.5 99.668162 
" style="fill:none;opacity:0.5;stroke:#1f9e89;stroke-linecap:square;stroke-width:0.3;"/>
   </g>
   <g id="line2d_35">
    <path clip-path="url(#p2cff45f6a8)" d="M 8.573246 224 
L 12.316327 220.064437 
L 16.72449 212.263193 
L 21.132653 200.592459 
L 25.540816 189.704778 
L 29.94898 174.939356 
L 34.357143 163.484708 
L 38.765306 152.271851 
L 43.173469 138.130472 
L 47.581633 134.148625 
L 51.989796 128.823788 
L 56.397959 120.4396 
L 60.806122 110.43249 
L 65.214286 100.936123 
L 69.622449 90.743177 
L 74.030612 87.097472 
L 78.438776 79.015233 
L 82.846939 72.153174 
L 87.255102 64.175126 
L 91.663265 54.155811 
L 96.071429 49.480378 
L 100.479592 48.492006 
L 104.887755 41.702873 
L 109.295918 35.916642 
L 113.704082 32.707192 
L 118.112245 31.003446 
L 122.520408 29.889804 
L 126.928571 30.050732 
L 131.336735 30.501165 
L 135.744898 31.271405 
L 140.153061 32.385804 
L 144.561224 33.854041 
L 148.969388 35.67185 
L 153.377551 37.826617 
L 157.785714 40.301806 
L 162.193878 43.081421 
L 166.602041 46.152482 
L 171.010204 49.499869 
L 175.418367 53.101916 
L 179.826531 56.936538 
L 184.234694 60.989069 
L 188.642857 65.246349 
L 193.05102 69.684287 
L 197.459184 74.26957 
L 201.867347 78.979579 
L 206.27551 83.82092 
L 210.683673 88.817511 
L 215.091837 93.988178 
L 219.5 99.354718 
" style="fill:none;opacity:0.5;stroke:#1f9e89;stroke-linecap:square;stroke-width:0.3;"/>
   </g>
   <g id="line2d_36">
    <path clip-path="url(#p2cff45f6a8)" d="M 3.5 213.640658 
L 7.908163 196.827047 
L 12.316327 191.799533 
L 16.72449 183.643824 
L 21.132653 171.897977 
L 25.540816 163.459884 
L 29.94898 150.32881 
L 34.357143 136.91882 
L 38.765306 131.277956 
L 43.173469 117.756136 
L 47.581633 105.830911 
L 51.989796 101.693445 
L 56.397959 94.088828 
L 60.806122 87.046341 
L 65.214286 81.872909 
L 69.622449 78.580293 
L 74.030612 72.067683 
L 78.438776 66.014929 
L 82.846939 61.3837 
L 87.255102 55.919793 
L 91.663265 52.108165 
L 96.071429 45.081284 
L 100.479592 42.924689 
L 104.887755 42.817486 
L 109.295918 39.573446 
L 113.704082 34.94705 
L 118.112245 30.331065 
L 122.520408 29.319215 
L 126.928571 28.286295 
L 131.336735 29.312134 
L 135.744898 30.637926 
L 140.153061 32.230114 
L 144.561224 34.064994 
L 148.969388 36.145033 
L 153.377551 38.499922 
L 157.785714 41.170746 
L 162.193878 44.193187 
L 166.602041 47.584703 
L 171.010204 51.331898 
L 175.418367 55.393446 
L 179.826531 59.725342 
L 184.234694 64.293471 
L 188.642857 69.057068 
L 193.05102 73.961827 
L 197.459184 78.96315 
L 201.867347 84.050379 
L 206.27551 89.247239 
L 210.683673 94.603051 
L 215.091837 100.180282 
L 219.5 106.019974 
" style="fill:none;opacity:0.5;stroke:#1f9e89;stroke-linecap:square;stroke-width:0.3;"/>
   </g>
   <g id="line2d_37">
    <path clip-path="url(#p2cff45f6a8)" d="M 22.452787 224 
L 25.540816 222.364252 
L 29.94898 222.364252 
L 34.357143 216.260435 
L 38.765306 208.043871 
L 43.173469 196.18095 
L 47.581633 191.127373 
L 51.989796 180.495573 
L 56.397959 170.45255 
L 60.806122 163.317081 
L 65.214286 150.160783 
L 69.622449 137.987332 
L 74.030612 128.87923 
L 78.438776 121.984783 
L 82.846939 116.856621 
L 87.255102 110.086162 
L 91.663265 103.585024 
L 96.071429 100.391981 
L 100.479592 88.767408 
L 104.887755 82.61632 
L 109.295918 72.019466 
L 113.704082 66.092809 
L 118.112245 58.971421 
L 122.520408 51.719985 
L 126.928571 45.994054 
L 131.336735 41.002511 
L 135.744898 37.269812 
L 140.153061 33.233333 
L 144.561224 32.904632 
L 148.969388 30.513624 
L 153.377551 30.693957 
L 157.785714 31.132863 
L 162.193878 31.818424 
L 166.602041 32.739767 
L 171.010204 33.888062 
L 175.418367 35.262243 
L 179.826531 36.876502 
L 184.234694 38.760743 
L 188.642857 40.952596 
L 193.05102 43.487741 
L 197.459184 46.387118 
L 201.867347 49.645434 
L 206.27551 53.23176 
L 210.683673 57.09787 
L 215.091837 61.192793 
L 219.5 65.490537 
" style="fill:none;opacity:0.5;stroke:#1f9e89;stroke-linecap:square;stroke-width:0.3;"/>
   </g>
   <g id="line2d_38">
    <path clip-path="url(#p2cff45f6a8)" d="M 3.5 165.093723 
L 7.908163 154.289743 
L 12.316327 143.778632 
L 16.72449 136.391595 
L 21.132653 131.13609 
L 25.540816 121.875813 
L 29.94898 115.340182 
L 34.357143 110.554597 
L 38.765306 103.99405 
L 43.173469 95.621059 
L 47.581633 90.987488 
L 51.989796 76.487953 
L 56.397959 70.030785 
L 60.806122 64.250453 
L 65.214286 55.678778 
L 69.622449 51.068374 
L 74.030612 44.026598 
L 78.438776 39.854998 
L 82.846939 37.796585 
L 87.255102 34.263722 
L 91.663265 29.698627 
L 96.071429 28.946239 
L 100.479592 29.46782 
L 104.887755 30.229129 
L 109.295918 31.20424 
L 113.704082 32.38156 
L 118.112245 33.760693 
L 122.520408 35.34895 
L 126.928571 37.159352 
L 131.336735 39.206361 
L 135.744898 41.49768 
L 140.153061 44.030155 
L 144.561224 46.795749 
L 148.969388 49.797961 
L 153.377551 53.065835 
L 157.785714 56.641471 
L 162.193878 60.546479 
L 166.602041 64.764018 
L 171.010204 69.254226 
L 175.418367 73.981353 
L 179.826531 78.933254 
L 184.234694 84.13025 
L 188.642857 89.607689 
L 193.05102 95.382234 
L 197.459184 101.431432 
L 201.867347 107.69764 
L 206.27551 114.104986 
L 210.683673 120.574274 
L 215.091837 127.039277 
L 219.5 133.458578 
" style="fill:none;opacity:0.5;stroke:#1f9e89;stroke-linecap:square;stroke-width:0.3;"/>
   </g>
   <g id="line2d_39">
    <path clip-path="url(#p2cff45f6a8)" d="M 9.228297 224 
L 12.316327 222.364252 
L 16.72449 222.364252 
L 21.132653 222.364252 
L 25.540816 222.364252 
L 29.94898 222.364252 
L 34.357143 222.364252 
L 38.765306 222.364252 
L 43.173469 222.364252 
L 47.581633 217.996866 
L 51.989796 213.856919 
L 56.397959 209.160238 
L 60.806122 201.145039 
L 65.214286 191.440217 
L 69.622449 175.670317 
L 74.030612 167.07629 
L 78.438776 154.012061 
L 82.846939 148.492474 
L 87.255102 142.983056 
L 91.663265 128.77789 
L 96.071429 117.467068 
L 100.479592 110.40506 
L 104.887755 103.092049 
L 109.295918 97.83797 
L 113.704082 89.101602 
L 118.112245 80.979904 
L 122.520408 72.68894 
L 126.928571 64.112269 
L 131.336735 61.069133 
L 135.744898 56.299609 
L 140.153061 51.412473 
L 144.561224 43.301465 
L 148.969388 40.846206 
L 153.377551 38.608607 
L 157.785714 32.50623 
L 162.193878 30.699962 
L 166.602041 30.682945 
L 171.010204 27.809822 
L 175.418367 28.252382 
L 179.826531 28.958602 
L 184.234694 29.910998 
L 188.642857 31.110471 
L 193.05102 32.59172 
L 197.459184 34.41466 
L 201.867347 36.633345 
L 206.27551 39.265017 
L 210.683673 42.283974 
L 215.091837 45.646843 
L 219.5 49.320045 
" style="fill:none;opacity:0.5;stroke:#1f9e89;stroke-linecap:square;stroke-width:0.3;"/>
   </g>
   <g id="line2d_40">
    <path clip-path="url(#p2cff45f6a8)" d="M 4.257296 224 
L 7.908163 220.628807 
L 12.316327 216.566689 
L 16.72449 212.183867 
L 21.132653 205.826574 
L 25.540816 201.236523 
L 29.94898 193.336497 
L 34.357143 181.970083 
L 38.765306 176.744923 
L 43.173469 165.406418 
L 47.581633 159.958433 
L 51.989796 151.589286 
L 56.397959 139.968686 
L 60.806122 132.783118 
L 65.214286 127.698276 
L 69.622449 112.946009 
L 74.030612 100.242759 
L 78.438776 91.59203 
L 82.846939 83.365504 
L 87.255102 73.577063 
L 91.663265 67.065257 
L 96.071429 58.974109 
L 100.479592 49.489337 
L 104.887755 43.342572 
L 109.295918 37.709557 
L 113.704082 35.060981 
L 118.112245 34.20971 
L 122.520408 33.604082 
L 126.928571 29.974583 
L 131.336735 29.810851 
L 135.744898 29.880246 
L 140.153061 30.185031 
L 144.561224 30.726274 
L 148.969388 31.501559 
L 153.377551 32.508892 
L 157.785714 33.752699 
L 162.193878 35.24892 
L 166.602041 37.028769 
L 171.010204 39.135271 
L 175.418367 41.60782 
L 179.826531 44.465713 
L 184.234694 47.704242 
L 188.642857 51.303333 
L 193.05102 55.238125 
L 197.459184 59.480014 
L 201.867347 63.996263 
L 206.27551 68.76179 
L 210.683673 73.769529 
L 215.091837 79.029204 
L 219.5 84.558072 
" style="fill:none;opacity:0.5;stroke:#1f9e89;stroke-linecap:square;stroke-width:0.3;"/>
   </g>
   <g id="line2d_41">
    <path clip-path="url(#p2cff45f6a8)" d="M 22.452787 224 
L 25.540816 222.364252 
L 29.94898 217.837568 
L 34.357143 211.167629 
L 38.765306 203.018892 
L 43.173469 190.608971 
L 47.581633 180.397963 
L 51.989796 174.979251 
L 56.397959 169.912076 
L 60.806122 161.993869 
L 65.214286 153.54635 
L 69.622449 137.253755 
L 74.030612 126.700126 
L 78.438776 110.753236 
L 82.846939 100.042263 
L 87.255102 95.991691 
L 91.663265 88.924563 
L 96.071429 83.407813 
L 100.479592 76.031623 
L 104.887755 66.073124 
L 109.295918 58.731804 
L 113.704082 53.779453 
L 118.112245 47.115664 
L 122.520408 40.088007 
L 126.928571 39.097766 
L 131.336735 36.666072 
L 135.744898 34.490593 
L 140.153061 32.592234 
L 144.561224 29.910402 
L 148.969388 28.946657 
L 153.377551 29.249136 
L 157.785714 29.851572 
L 162.193878 30.789124 
L 166.602041 32.096178 
L 171.010204 33.794763 
L 175.418367 35.887346 
L 179.826531 38.361844 
L 184.234694 41.201653 
L 188.642857 44.388409 
L 193.05102 47.904249 
L 197.459184 51.736263 
L 201.867347 55.871327 
L 206.27551 60.282411 
L 210.683673 64.925349 
L 215.091837 69.752391 
L 219.5 74.720974 
" style="fill:none;opacity:0.5;stroke:#1f9e89;stroke-linecap:square;stroke-width:0.3;"/>
   </g>
   <g id="line2d_42">
    <path clip-path="url(#p2cff45f6a8)" d="M 9.228297 224 
L 12.316327 222.364252 
L 16.72449 217.998167 
L 21.132653 210.090271 
L 25.540816 198.707938 
L 29.94898 181.650585 
L 34.357143 166.047 
L 38.765306 160.614454 
L 43.173469 154.803023 
L 47.581633 147.159207 
L 51.989796 143.858242 
L 56.397959 138.632224 
L 60.806122 128.968445 
L 65.214286 117.508044 
L 69.622449 110.2847 
L 74.030612 102.410105 
L 78.438776 95.710289 
L 82.846939 89.354697 
L 87.255102 84.871861 
L 91.663265 77.163961 
L 96.071429 66.087085 
L 100.479592 59.940328 
L 104.887755 54.035961 
L 109.295918 47.922737 
L 113.704082 42.677438 
L 118.112245 39.090853 
L 122.520408 37.030269 
L 126.928571 32.545347 
L 131.336735 31.127677 
L 135.744898 31.476031 
L 140.153061 29.779396 
L 144.561224 30.708412 
L 148.969388 31.898293 
L 153.377551 33.326082 
L 157.785714 34.979467 
L 162.193878 36.860997 
L 166.602041 38.983598 
L 171.010204 41.365399 
L 175.418367 44.026882 
L 179.826531 46.984224 
L 184.234694 50.246595 
L 188.642857 53.819367 
L 193.05102 57.697313 
L 197.459184 61.857396 
L 201.867347 66.267179 
L 206.27551 70.891739 
L 210.683673 75.686895 
L 215.091837 80.595756 
L 219.5 85.560666 
" style="fill:none;opacity:0.5;stroke:#1f9e89;stroke-linecap:square;stroke-width:0.3;"/>
   </g>
   <g id="line2d_43">
    <path clip-path="url(#p2cff45f6a8)" d="M 3.5 214.550338 
L 7.908163 214.510526 
L 12.316327 214.481237 
L 16.72449 214.45787 
L 21.132653 214.435844 
L 25.540816 214.412127 
L 29.94898 214.385468 
L 34.357143 214.355955 
L 38.765306 212.001758 
L 43.173469 209.649787 
L 47.581633 205.057238 
L 51.989796 199.320024 
L 56.397959 192.732938 
L 60.806122 183.226885 
L 65.214286 180.503873 
L 69.622449 172.431341 
L 74.030612 161.838334 
L 78.438776 154.130721 
L 82.846939 148.812605 
L 87.255102 138.906785 
L 91.663265 133.700374 
L 96.071429 125.409028 
L 100.479592 113.052417 
L 104.887755 107.017879 
L 109.295918 102.302178 
L 113.704082 92.174178 
L 118.112245 81.613672 
L 122.520408 72.2578 
L 126.928571 69.133729 
L 131.336735 64.174936 
L 135.744898 54.805826 
L 140.153061 49.962788 
L 144.561224 42.48487 
L 148.969388 37.080048 
L 153.377551 36.245113 
L 157.785714 33.06314 
L 162.193878 31.246022 
L 166.602041 29.80023 
L 171.010204 28.941563 
L 175.418367 29.367041 
L 179.826531 30.079643 
L 184.234694 31.069067 
L 188.642857 32.315516 
L 193.05102 33.813271 
L 197.459184 35.576891 
L 201.867347 37.627867 
L 206.27551 39.979263 
L 210.683673 42.630221 
L 215.091837 45.574108 
L 219.5 48.81119 
" style="fill:none;opacity:0.5;stroke:#1f9e89;stroke-linecap:square;stroke-width:0.3;"/>
   </g>
   <g id="line2d_44">
    <path clip-path="url(#p2cff45f6a8)" d="M 3.5 198.580616 
L 7.908163 191.817192 
L 12.316327 184.845469 
L 16.72449 172.414363 
L 21.132653 158.760112 
L 25.540816 151.80434 
L 29.94898 146.749965 
L 34.357143 137.967184 
L 38.765306 134.808526 
L 43.173469 129.754601 
L 47.581633 121.227022 
L 51.989796 116.357115 
L 56.397959 110.033963 
L 60.806122 96.045152 
L 65.214286 89.06318 
L 69.622449 77.976771 
L 74.030612 68.629479 
L 78.438776 60.189198 
L 82.846939 50.653163 
L 87.255102 41.860592 
L 91.663265 37.65731 
L 96.071429 33.677331 
L 100.479592 32.795829 
L 104.887755 32.251094 
L 109.295918 31.006207 
L 113.704082 31.043069 
L 118.112245 31.325114 
L 122.520408 31.831456 
L 126.928571 32.551953 
L 131.336735 33.487608 
L 135.744898 34.648606 
L 140.153061 36.054303 
L 144.561224 37.733528 
L 148.969388 39.720102 
L 153.377551 42.044992 
L 157.785714 44.723485 
L 162.193878 47.743286 
L 166.602041 51.067393 
L 171.010204 54.653038 
L 175.418367 58.476003 
L 179.826531 62.538193 
L 184.234694 66.853754 
L 188.642857 71.440157 
L 193.05102 76.323391 
L 197.459184 81.539279 
L 201.867347 87.123661 
L 206.27551 93.09771 
L 210.683673 99.439607 
L 215.091837 106.059163 
L 219.5 112.82326 
" style="fill:none;opacity:0.5;stroke:#1f9e89;stroke-linecap:square;stroke-width:0.3;"/>
   </g>
   <g id="line2d_45">
    <path clip-path="url(#p2cff45f6a8)" d="M 3.5 220.635487 
L 7.908163 220.635388 
L 12.316327 215.988967 
L 16.72449 208.462374 
L 21.132653 191.83831 
L 25.540816 180.467728 
L 29.94898 165.776361 
L 34.357143 152.243049 
L 38.765306 144.680949 
L 43.173469 134.335861 
L 47.581633 128.605573 
L 51.989796 121.364477 
L 56.397959 113.981378 
L 60.806122 106.33932 
L 65.214286 99.377932 
L 69.622449 91.055088 
L 74.030612 85.809564 
L 78.438776 80.338702 
L 82.846939 70.610743 
L 87.255102 61.883112 
L 91.663265 58.86151 
L 96.071429 54.340039 
L 100.479592 51.847931 
L 104.887755 45.638698 
L 109.295918 43.682009 
L 113.704082 42.031427 
L 118.112245 39.314447 
L 122.520408 37.171244 
L 126.928571 33.669976 
L 131.336735 33.281868 
L 135.744898 33.426478 
L 140.153061 34.781113 
L 144.561224 36.342011 
L 148.969388 38.119023 
L 153.377551 40.127179 
L 157.785714 42.385841 
L 162.193878 44.91754 
L 166.602041 47.744082 
L 171.010204 50.879149 
L 175.418367 54.320818 
L 179.826531 58.050803 
L 184.234694 62.037776 
L 188.642857 66.242479 
L 193.05102 70.632162 
L 197.459184 75.189741 
L 201.867347 79.903296 
L 206.27551 84.756657 
L 210.683673 89.73543 
L 215.091837 94.833873 
L 219.5 100.055416 
" style="fill:none;opacity:0.5;stroke:#1f9e89;stroke-linecap:square;stroke-width:0.3;"/>
   </g>
   <g id="line2d_46">
    <path clip-path="url(#p2cff45f6a8)" d="M 3.5 220.0639 
L 7.908163 220.042799 
L 12.316327 211.28808 
L 16.72449 196.245325 
L 21.132653 183.673827 
L 25.540816 167.79689 
L 29.94898 157.273828 
L 34.357143 151.320919 
L 38.765306 145.684393 
L 43.173469 136.123114 
L 47.581633 130.815757 
L 51.989796 125.729341 
L 56.397959 115.712131 
L 60.806122 110.396585 
L 65.214286 109.528052 
L 69.622449 106.678443 
L 74.030612 103.970062 
L 78.438776 103.525767 
L 82.846939 101.069017 
L 87.255102 96.9629 
L 91.663265 91.288692 
L 96.071429 83.918652 
L 100.479592 71.541733 
L 104.887755 57.657205 
L 109.295918 49.180994 
L 113.704082 46.255901 
L 118.112245 39.641633 
L 122.520408 35.532572 
L 126.928571 33.958818 
L 131.336735 33.804508 
L 135.744898 34.066534 
L 140.153061 34.733975 
L 144.561224 35.782497 
L 148.969388 37.178984 
L 153.377551 38.88846 
L 157.785714 40.881087 
L 162.193878 43.138225 
L 166.602041 45.657364 
L 171.010204 48.448268 
L 175.418367 51.517268 
L 179.826531 54.853299 
L 184.234694 58.426486 
L 188.642857 62.202157 
L 193.05102 66.164585 
L 197.459184 70.320747 
L 201.867347 74.671817 
L 206.27551 79.19129 
L 210.683673 83.837886 
L 215.091837 88.586483 
L 219.5 93.454068 
" style="fill:none;opacity:0.5;stroke:#1f9e89;stroke-linecap:square;stroke-width:0.3;"/>
   </g>
   <g id="line2d_47">
    <path clip-path="url(#p2cff45f6a8)" d="M 35.097474 224 
L 38.765306 220.535533 
L 43.173469 210.611168 
L 47.581633 204.811942 
L 51.989796 193.345565 
L 56.397959 186.180052 
L 60.806122 179.366648 
L 65.214286 172.574856 
L 69.622449 160.780723 
L 74.030612 149.232584 
L 78.438776 140.34035 
L 82.846939 130.871181 
L 87.255102 121.848105 
L 91.663265 111.874167 
L 96.071429 108.645704 
L 100.479592 104.001303 
L 104.887755 97.466363 
L 109.295918 91.744049 
L 113.704082 81.068649 
L 118.112245 71.341182 
L 122.520408 67.062125 
L 126.928571 59.767052 
L 131.336735 59.019615 
L 135.744898 50.497441 
L 140.153061 40.178806 
L 144.561224 37.530243 
L 148.969388 35.129408 
L 153.377551 33.017258 
L 157.785714 31.251975 
L 162.193878 30.050084 
L 166.602041 30.105627 
L 171.010204 30.433586 
L 175.418367 31.06765 
L 179.826531 32.051683 
L 184.234694 33.427377 
L 188.642857 35.213573 
L 193.05102 37.390252 
L 197.459184 39.902556 
L 201.867347 42.689955 
L 206.27551 45.716366 
L 210.683673 48.97427 
L 215.091837 52.472929 
L 219.5 56.231607 
" style="fill:none;opacity:0.5;stroke:#1f9e89;stroke-linecap:square;stroke-width:0.3;"/>
   </g>
   <g id="line2d_48">
    <path clip-path="url(#p2cff45f6a8)" d="M 3.5 220.031711 
L 7.908163 215.516046 
L 12.316327 211.357322 
L 16.72449 198.978108 
L 21.132653 182.235302 
L 25.540816 168.217807 
L 29.94898 157.914871 
L 34.357143 149.567272 
L 38.765306 142.300597 
L 43.173469 132.924629 
L 47.581633 123.910371 
L 51.989796 112.35144 
L 56.397959 104.985273 
L 60.806122 97.535883 
L 65.214286 92.227119 
L 69.622449 84.074623 
L 74.030612 77.174691 
L 78.438776 69.2169 
L 82.846939 59.085326 
L 87.255102 52.868792 
L 91.663265 45.031735 
L 96.071429 38.244112 
L 100.479592 33.770103 
L 104.887755 30.656352 
L 109.295918 30.084997 
L 113.704082 28.734116 
L 118.112245 28.619759 
L 122.520408 28.736394 
L 126.928571 29.088035 
L 131.336735 29.685197 
L 135.744898 30.547668 
L 140.153061 31.701685 
L 144.561224 33.172308 
L 148.969388 34.976087 
L 153.377551 37.11726 
L 157.785714 39.587798 
L 162.193878 42.373042 
L 166.602041 45.457836 
L 171.010204 48.828244 
L 175.418367 52.485269 
L 179.826531 56.462723 
L 184.234694 60.809097 
L 188.642857 65.545398 
L 193.05102 70.646968 
L 197.459184 76.0602 
L 201.867347 81.725828 
L 206.27551 87.593159 
L 210.683673 93.628332 
L 215.091837 99.808803 
L 219.5 106.115623 
" style="fill:none;opacity:0.5;stroke:#1f9e89;stroke-linecap:square;stroke-width:0.3;"/>
   </g>
   <g id="line2d_49">
    <path clip-path="url(#p2cff45f6a8)" d="M 4.820134 224 
L 7.908163 222.364252 
L 12.316327 214.127383 
L 16.72449 211.997288 
L 21.132653 205.901615 
L 25.540816 201.448094 
L 29.94898 189.049973 
L 34.357143 180.848753 
L 38.765306 174.702022 
L 43.173469 171.814962 
L 47.581633 156.552233 
L 51.989796 152.033417 
L 56.397959 145.167089 
L 60.806122 140.5037 
L 65.214286 133.641914 
L 69.622449 125.39958 
L 74.030612 116.205908 
L 78.438776 105.503667 
L 82.846939 94.059485 
L 87.255102 81.472522 
L 91.663265 70.634847 
L 96.071429 62.737296 
L 100.479592 55.793657 
L 104.887755 52.416646 
L 109.295918 46.556239 
L 113.704082 42.546538 
L 118.112245 38.382716 
L 122.520408 34.03992 
L 126.928571 33.621873 
L 131.336735 32.198893 
L 135.744898 32.41971 
L 140.153061 31.909317 
L 144.561224 32.656035 
L 148.969388 33.635869 
L 153.377551 34.837306 
L 157.785714 36.246836 
L 162.193878 37.846362 
L 166.602041 39.611699 
L 171.010204 41.511585 
L 175.418367 43.513902 
L 179.826531 45.610267 
L 184.234694 47.85098 
L 188.642857 50.357086 
L 193.05102 53.28147 
L 197.459184 56.72916 
L 201.867347 60.699342 
L 206.27551 65.107572 
L 210.683673 69.865438 
L 215.091837 74.929068 
L 219.5 80.294641 
" style="fill:none;opacity:0.5;stroke:#1f9e89;stroke-linecap:square;stroke-width:0.3;"/>
   </g>
   <g id="line2d_50">
    <path clip-path="url(#p2cff45f6a8)" d="M 3.5 222.364252 
L 7.908163 212.347717 
L 12.316327 204.04003 
L 16.72449 194.458667 
L 21.132653 179.982442 
L 25.540816 172.815813 
L 29.94898 169.931227 
L 34.357143 166.840002 
L 38.765306 161.90031 
L 43.173469 158.972553 
L 47.581633 156.142313 
L 51.989796 153.409451 
L 56.397959 145.408544 
L 60.806122 137.12514 
L 65.214286 127.547548 
L 69.622449 113.802667 
L 74.030612 105.264663 
L 78.438776 100.553022 
L 82.846939 97.500011 
L 87.255102 86.202165 
L 91.663265 80.453733 
L 96.071429 70.513282 
L 100.479592 60.322558 
L 104.887755 55.797302 
L 109.295918 48.504412 
L 113.704082 39.545737 
L 118.112245 35.288468 
L 122.520408 30.325249 
L 126.928571 29.808805 
L 131.336735 29.627104 
L 135.744898 29.761868 
L 140.153061 30.195146 
L 144.561224 30.907158 
L 148.969388 31.880472 
L 153.377551 33.109426 
L 157.785714 34.597372 
L 162.193878 36.342078 
L 166.602041 38.331949 
L 171.010204 40.554903 
L 175.418367 43.004656 
L 179.826531 45.679817 
L 184.234694 48.584576 
L 188.642857 51.732488 
L 193.05102 55.147397 
L 197.459184 58.857553 
L 201.867347 62.882671 
L 206.27551 67.224578 
L 210.683673 71.873435 
L 215.091837 76.821098 
L 219.5 82.060636 
" style="fill:none;opacity:0.5;stroke:#1f9e89;stroke-linecap:square;stroke-width:0.3;"/>
   </g>
   <g id="line2d_51">
    <path clip-path="url(#p2cff45f6a8)" d="M 13.636461 224 
L 16.72449 222.364252 
L 21.132653 220.033011 
L 25.540816 217.701547 
L 29.94898 213.455927 
L 34.357143 206.980746 
L 38.765306 191.423854 
L 43.173469 182.889094 
L 47.581633 169.89409 
L 51.989796 161.304644 
L 56.397959 156.07203 
L 60.806122 151.082745 
L 65.214286 142.288691 
L 69.622449 136.702424 
L 74.030612 131.745167 
L 78.438776 117.801102 
L 82.846939 111.062712 
L 87.255102 103.781277 
L 91.663265 90.495935 
L 96.071429 83.190099 
L 100.479592 69.520554 
L 104.887755 62.094675 
L 109.295918 55.403697 
L 113.704082 52.166256 
L 118.112245 47.533731 
L 122.520408 43.298579 
L 126.928571 33.849966 
L 131.336735 31.496655 
L 135.744898 30.779547 
L 140.153061 29.359778 
L 144.561224 29.240149 
L 148.969388 29.40123 
L 153.377551 29.839648 
L 157.785714 30.56493 
L 162.193878 31.600475 
L 166.602041 32.976746 
L 171.010204 34.714444 
L 175.418367 36.809041 
L 179.826531 39.233117 
L 184.234694 41.953059 
L 188.642857 44.941356 
L 193.05102 48.177985 
L 197.459184 51.650009 
L 201.867347 55.357575 
L 206.27551 59.319322 
L 210.683673 63.566284 
L 215.091837 68.126644 
L 219.5 73.005066 
" style="fill:none;opacity:0.5;stroke:#1f9e89;stroke-linecap:square;stroke-width:0.3;"/>
   </g>
   <g id="line2d_52">
    <path clip-path="url(#p2cff45f6a8)" d="M 21.793164 224 
L 25.540816 220.032358 
L 29.94898 215.886069 
L 34.357143 204.004112 
L 38.765306 189.476505 
L 43.173469 175.963548 
L 47.581633 163.473499 
L 51.989796 153.185443 
L 56.397959 144.14525 
L 60.806122 138.302411 
L 65.214286 133.031023 
L 69.622449 125.953808 
L 74.030612 118.625761 
L 78.438776 115.15126 
L 82.846939 105.1555 
L 87.255102 98.565188 
L 91.663265 93.932572 
L 96.071429 84.804349 
L 100.479592 75.852685 
L 104.887755 63.977656 
L 109.295918 59.126182 
L 113.704082 53.737286 
L 118.112245 50.989657 
L 122.520408 44.934826 
L 126.928571 44.396399 
L 131.336735 39.486671 
L 135.744898 39.353772 
L 140.153061 36.85675 
L 144.561224 35.831124 
L 148.969388 36.384772 
L 153.377551 37.181843 
L 157.785714 37.213119 
L 162.193878 38.492085 
L 166.602041 40.014702 
L 171.010204 41.79015 
L 175.418367 43.827349 
L 179.826531 46.13496 
L 184.234694 48.728638 
L 188.642857 51.626413 
L 193.05102 54.835778 
L 197.459184 58.353596 
L 201.867347 62.175751 
L 206.27551 66.29296 
L 210.683673 70.684373 
L 215.091837 75.329129 
L 219.5 80.212015 
" style="fill:none;opacity:0.5;stroke:#1f9e89;stroke-linecap:square;stroke-width:0.3;"/>
   </g>
   <g id="line2d_53">
    <path clip-path="url(#p2cff45f6a8)" d="M 3.5 220.091232 
L 7.908163 210.180093 
L 12.316327 199.250597 
L 16.72449 191.099937 
L 21.132653 186.700715 
L 25.540816 179.577646 
L 29.94898 173.003239 
L 34.357143 164.51074 
L 38.765306 159.133351 
L 43.173469 152.292772 
L 47.581633 144.68849 
L 51.989796 136.498554 
L 56.397959 131.786831 
L 60.806122 125.322834 
L 65.214286 116.856279 
L 69.622449 104.311719 
L 74.030612 97.433762 
L 78.438776 91.391277 
L 82.846939 82.557003 
L 87.255102 75.727359 
L 91.663265 65.610383 
L 96.071429 55.547186 
L 100.479592 47.987836 
L 104.887755 42.238272 
L 109.295918 39.490764 
L 113.704082 35.9826 
L 118.112245 33.888291 
L 122.520408 30.681368 
L 126.928571 29.390289 
L 131.336735 29.731427 
L 135.744898 29.354073 
L 140.153061 30.256394 
L 144.561224 31.407887 
L 148.969388 32.789059 
L 153.377551 34.38887 
L 157.785714 36.203274 
L 162.193878 38.232914 
L 166.602041 40.482691 
L 171.010204 42.960387 
L 175.418367 45.673045 
L 179.826531 48.625554 
L 184.234694 51.823183 
L 188.642857 55.272369 
L 193.05102 58.976962 
L 197.459184 62.935307 
L 201.867347 67.136428 
L 206.27551 71.565377 
L 210.683673 76.236456 
L 215.091837 81.214319 
L 219.5 86.573578 
" style="fill:none;opacity:0.5;stroke:#1f9e89;stroke-linecap:square;stroke-width:0.3;"/>
   </g>
   <g id="line2d_54">
    <path clip-path="url(#p2cff45f6a8)" d="M 26.86095 224 
L 29.94898 222.364252 
L 34.357143 214.529328 
L 38.765306 207.763026 
L 43.173469 192.148127 
L 47.581633 176.447232 
L 51.989796 163.015311 
L 56.397959 149.666662 
L 60.806122 135.849737 
L 65.214286 118.093511 
L 69.622449 110.138734 
L 74.030612 101.870087 
L 78.438776 97.761049 
L 82.846939 87.597756 
L 87.255102 78.07623 
L 91.663265 74.457552 
L 96.071429 67.876504 
L 100.479592 60.25806 
L 104.887755 55.864626 
L 109.295918 51.607835 
L 113.704082 48.957182 
L 118.112245 46.532998 
L 122.520408 44.332207 
L 126.928571 42.349839 
L 131.336735 40.590426 
L 135.744898 39.046446 
L 140.153061 32.891926 
L 144.561224 33.338996 
L 148.969388 32.609517 
L 153.377551 32.304496 
L 157.785714 32.645265 
L 162.193878 34.326269 
L 166.602041 36.350869 
L 171.010204 38.72591 
L 175.418367 41.459984 
L 179.826531 44.562631 
L 184.234694 48.02985 
L 188.642857 51.830792 
L 193.05102 55.916356 
L 197.459184 60.246932 
L 201.867347 64.809004 
L 206.27551 69.602018 
L 210.683673 74.614276 
L 215.091837 79.816514 
L 219.5 85.174067 
" style="fill:none;opacity:0.5;stroke:#1f9e89;stroke-linecap:square;stroke-width:0.3;"/>
   </g>
   <g id="line2d_55">
    <path clip-path="url(#p2cff45f6a8)" d="M 18.044624 224 
L 21.132653 222.364252 
L 25.540816 217.731484 
L 29.94898 207.817488 
L 34.357143 198.559165 
L 38.765306 184.856425 
L 43.173469 177.225779 
L 47.581633 162.6419 
L 51.989796 155.630925 
L 56.397959 142.845409 
L 60.806122 133.219996 
L 65.214286 129.739505 
L 69.622449 124.290069 
L 74.030612 111.038231 
L 78.438776 104.154981 
L 82.846939 97.673386 
L 87.255102 89.47671 
L 91.663265 80.742278 
L 96.071429 75.697571 
L 100.479592 69.978466 
L 104.887755 59.805904 
L 109.295918 54.485753 
L 113.704082 46.275366 
L 118.112245 40.732078 
L 122.520408 39.613113 
L 126.928571 35.576616 
L 131.336735 34.923261 
L 135.744898 34.531984 
L 140.153061 34.416112 
L 144.561224 34.5866 
L 148.969388 33.597336 
L 153.377551 33.054112 
L 157.785714 33.188348 
L 162.193878 34.699069 
L 166.602041 36.581199 
L 171.010204 38.812216 
L 175.418367 41.358159 
L 179.826531 44.184304 
L 184.234694 47.250332 
L 188.642857 50.510816 
L 193.05102 53.936091 
L 197.459184 57.533296 
L 201.867347 61.347162 
L 206.27551 65.439089 
L 210.683673 69.856999 
L 215.091837 74.61284 
L 219.5 79.676382 
" style="fill:none;opacity:0.5;stroke:#1f9e89;stroke-linecap:square;stroke-width:0.3;"/>
   </g>
   <g id="line2d_56">
    <path clip-path="url(#p2cff45f6a8)" d="M 13.636461 224 
L 16.72449 222.364252 
L 21.132653 222.364252 
L 25.540816 220.031614 
L 29.94898 215.806072 
L 34.357143 209.42268 
L 38.765306 197.363223 
L 43.173469 184.259744 
L 47.581633 173.712675 
L 51.989796 168.288148 
L 56.397959 167.398844 
L 60.806122 166.605918 
L 65.214286 154.649216 
L 69.622449 148.303779 
L 74.030612 139.692285 
L 78.438776 130.553796 
L 82.846939 123.864549 
L 87.255102 117.287252 
L 91.663265 108.698282 
L 96.071429 106.073505 
L 100.479592 98.094069 
L 104.887755 91.646194 
L 109.295918 80.301078 
L 113.704082 72.802994 
L 118.112245 68.491055 
L 122.520408 57.93238 
L 126.928571 51.390772 
L 131.336735 45.55569 
L 135.744898 41.763986 
L 140.153061 35.465743 
L 144.561224 32.354474 
L 148.969388 32.09942 
L 153.377551 31.120496 
L 157.785714 31.423948 
L 162.193878 31.987921 
L 166.602041 32.799011 
L 171.010204 33.854356 
L 175.418367 35.166838 
L 179.826531 36.765574 
L 184.234694 38.688733 
L 188.642857 40.968379 
L 193.05102 43.617657 
L 197.459184 46.626179 
L 201.867347 49.960749 
L 206.27551 53.574977 
L 210.683673 57.425529 
L 215.091837 61.475494 
L 219.5 65.680489 
" style="fill:none;opacity:0.5;stroke:#1f9e89;stroke-linecap:square;stroke-width:0.3;"/>
   </g>
   <g id="line2d_57">
    <path clip-path="url(#p2cff45f6a8)" d="M 22.452787 224 
L 25.540816 222.364252 
L 29.94898 222.364252 
L 34.357143 220.031614 
L 38.765306 213.388252 
L 43.173469 199.050639 
L 47.581633 183.176284 
L 51.989796 176.053716 
L 56.397959 165.252477 
L 60.806122 151.46539 
L 65.214286 144.085389 
L 69.622449 138.572662 
L 74.030612 131.96406 
L 78.438776 118.661167 
L 82.846939 108.413244 
L 87.255102 104.996764 
L 91.663265 92.421894 
L 96.071429 84.110549 
L 100.479592 79.086367 
L 104.887755 71.423898 
L 109.295918 66.251052 
L 113.704082 59.965381 
L 118.112245 54.019079 
L 122.520408 43.074413 
L 126.928571 40.226389 
L 131.336735 36.182484 
L 135.744898 33.766767 
L 140.153061 29.385712 
L 144.561224 27.673518 
L 148.969388 27.554665 
L 153.377551 26.697942 
L 157.785714 27.142291 
L 162.193878 27.90961 
L 166.602041 29.027047 
L 171.010204 30.512301 
L 175.418367 32.369606 
L 179.826531 34.593113 
L 184.234694 37.176713 
L 188.642857 40.119328 
L 193.05102 43.418628 
L 197.459184 47.059575 
L 201.867347 51.012668 
L 206.27551 55.244113 
L 210.683673 59.723275 
L 215.091837 64.419994 
L 219.5 69.297571 
" style="fill:none;opacity:0.5;stroke:#1f9e89;stroke-linecap:square;stroke-width:0.3;"/>
   </g>
   <g id="line2d_58">
    <path clip-path="url(#p2cff45f6a8)" d="M 3.5 222.364252 
L 7.908163 217.779798 
L 12.316327 209.609182 
L 16.72449 204.94535 
L 21.132653 200.086179 
L 25.540816 184.224757 
L 29.94898 173.182419 
L 34.357143 168.000131 
L 38.765306 155.810116 
L 43.173469 155.002175 
L 47.581633 147.218238 
L 51.989796 141.055783 
L 56.397959 134.586907 
L 60.806122 124.718189 
L 65.214286 117.756302 
L 69.622449 109.188717 
L 74.030612 102.29785 
L 78.438776 89.995713 
L 82.846939 80.757106 
L 87.255102 72.402225 
L 91.663265 71.156759 
L 96.071429 64.771667 
L 100.479592 57.198339 
L 104.887755 52.958063 
L 109.295918 50.444831 
L 113.704082 41.53904 
L 118.112245 36.727799 
L 122.520408 33.728246 
L 126.928571 32.17276 
L 131.336735 31.136289 
L 135.744898 31.291536 
L 140.153061 31.625698 
L 144.561224 32.142394 
L 148.969388 32.861103 
L 153.377551 33.825359 
L 157.785714 35.101102 
L 162.193878 36.749398 
L 166.602041 38.794456 
L 171.010204 41.222966 
L 175.418367 44.006615 
L 179.826531 47.115543 
L 184.234694 50.51694 
L 188.642857 54.174198 
L 193.05102 58.057362 
L 197.459184 62.160428 
L 201.867347 66.506082 
L 206.27551 71.131484 
L 210.683673 76.072988 
L 215.091837 81.352686 
L 219.5 86.957831 
" style="fill:none;opacity:0.5;stroke:#1f9e89;stroke-linecap:square;stroke-width:0.3;"/>
   </g>
   <g id="line2d_59">
    <path clip-path="url(#p2cff45f6a8)" d="M 17.055274 224 
L 21.132653 215.380342 
L 25.540816 202.599569 
L 29.94898 186.381393 
L 34.357143 172.350116 
L 38.765306 160.137831 
L 43.173469 154.119409 
L 47.581633 148.484334 
L 51.989796 141.545302 
L 56.397959 138.118353 
L 60.806122 128.403991 
L 65.214286 123.676833 
L 69.622449 116.216239 
L 74.030612 111.384419 
L 78.438776 110.502365 
L 82.846939 103.93134 
L 87.255102 95.308876 
L 91.663265 86.306266 
L 96.071429 78.603001 
L 100.479592 72.760933 
L 104.887755 64.377941 
L 109.295918 55.489668 
L 113.704082 53.073291 
L 118.112245 49.314029 
L 122.520408 45.390319 
L 126.928571 40.721027 
L 131.336735 37.268486 
L 135.744898 36.288393 
L 140.153061 36.628412 
L 144.561224 37.265603 
L 148.969388 38.192343 
L 153.377551 39.413817 
L 157.785714 40.94091 
L 162.193878 42.773294 
L 166.602041 44.890402 
L 171.010204 47.265701 
L 175.418367 49.885441 
L 179.826531 52.74734 
L 184.234694 55.848693 
L 188.642857 59.178534 
L 193.05102 62.71258 
L 197.459184 66.418708 
L 201.867347 70.276593 
L 206.27551 74.285461 
L 210.683673 78.444171 
L 215.091837 82.733305 
L 219.5 87.126962 
" style="fill:none;opacity:0.5;stroke:#1f9e89;stroke-linecap:square;stroke-width:0.3;"/>
   </g>
   <g id="line2d_60">
    <path clip-path="url(#p2cff45f6a8)" d="M 3.5 222.364252 
L 7.908163 220.098211 
L 12.316327 215.404498 
L 16.72449 202.878938 
L 21.132653 184.191091 
L 25.540816 171.531627 
L 29.94898 157.75066 
L 34.357143 147.407181 
L 38.765306 136.619861 
L 43.173469 131.112124 
L 47.581633 125.49486 
L 51.989796 114.604283 
L 56.397959 111.210643 
L 60.806122 103.92085 
L 65.214286 94.322439 
L 69.622449 87.92268 
L 74.030612 82.627275 
L 78.438776 75.823987 
L 82.846939 73.26667 
L 87.255102 64.165563 
L 91.663265 56.299672 
L 96.071429 49.298725 
L 100.479592 44.99265 
L 104.887755 41.056341 
L 109.295918 35.562154 
L 113.704082 32.837095 
L 118.112245 32.791143 
L 122.520408 31.992779 
L 126.928571 32.454493 
L 131.336735 33.191795 
L 135.744898 34.24202 
L 140.153061 35.634634 
L 144.561224 37.375355 
L 148.969388 39.446953 
L 153.377551 41.819735 
L 157.785714 44.461859 
L 162.193878 47.3488 
L 166.602041 50.474629 
L 171.010204 53.85499 
L 175.418367 57.509534 
L 179.826531 61.438801 
L 184.234694 65.623774 
L 188.642857 70.039537 
L 193.05102 74.655581 
L 197.459184 79.438032 
L 201.867347 84.369038 
L 206.27551 89.455218 
L 210.683673 94.706952 
L 215.091837 100.117097 
L 219.5 105.670181 
" style="fill:none;opacity:0.5;stroke:#1f9e89;stroke-linecap:square;stroke-width:0.3;"/>
   </g>
   <g id="line2d_61">
    <path clip-path="url(#p2cff45f6a8)" d="M 9.228297 224 
L 12.316327 222.364252 
L 16.72449 218.269127 
L 21.132653 209.803342 
L 25.540816 198.243024 
L 29.94898 185.461022 
L 34.357143 178.653405 
L 38.765306 166.765279 
L 43.173469 152.358427 
L 47.581633 147.326085 
L 51.989796 141.800021 
L 56.397959 140.756766 
L 60.806122 135.446838 
L 65.214286 130.398836 
L 69.622449 127.4106 
L 74.030612 117.253635 
L 78.438776 114.401217 
L 82.846939 110.093964 
L 87.255102 101.616401 
L 91.663265 98.974689 
L 96.071429 91.249229 
L 100.479592 86.916112 
L 104.887755 74.908712 
L 109.295918 70.215185 
L 113.704082 58.08089 
L 118.112245 49.02348 
L 122.520408 42.590313 
L 126.928571 40.099171 
L 131.336735 37.440491 
L 135.744898 37.022894 
L 140.153061 35.899756 
L 144.561224 36.07214 
L 148.969388 36.52722 
L 153.377551 37.260882 
L 157.785714 38.260276 
L 162.193878 39.506711 
L 166.602041 40.996218 
L 171.010204 42.755506 
L 175.418367 44.827075 
L 179.826531 47.238511 
L 184.234694 49.990681 
L 188.642857 53.062421 
L 193.05102 56.411352 
L 197.459184 59.984618 
L 201.867347 63.748185 
L 206.27551 67.699103 
L 210.683673 71.84782 
L 215.091837 76.197295 
L 219.5 80.741179 
" style="fill:none;opacity:0.5;stroke:#1f9e89;stroke-linecap:square;stroke-width:0.3;"/>
   </g>
   <g id="line2d_62">
    <path clip-path="url(#p2cff45f6a8)" d="M 17.386384 224 
L 21.132653 220.042109 
L 25.540816 208.515309 
L 29.94898 200.252202 
L 34.357143 192.566503 
L 38.765306 179.763456 
L 43.173469 171.152155 
L 47.581633 157.923916 
L 51.989796 144.500494 
L 56.397959 131.391344 
L 60.806122 125.671054 
L 65.214286 110.838107 
L 69.622449 104.753426 
L 74.030612 94.772213 
L 78.438776 89.092539 
L 82.846939 83.539856 
L 87.255102 80.05808 
L 91.663265 70.216775 
L 96.071429 62.722458 
L 100.479592 55.48106 
L 104.887755 50.839269 
L 109.295918 48.260358 
L 113.704082 41.550142 
L 118.112245 39.494998 
L 122.520408 37.514983 
L 126.928571 35.759982 
L 131.336735 35.888537 
L 135.744898 31.949113 
L 140.153061 30.18118 
L 144.561224 30.829655 
L 148.969388 30.762044 
L 153.377551 32.023872 
L 157.785714 33.637319 
L 162.193878 35.622599 
L 166.602041 37.979977 
L 171.010204 40.686867 
L 175.418367 43.708143 
L 179.826531 47.009605 
L 184.234694 50.560066 
L 188.642857 54.326713 
L 193.05102 58.281534 
L 197.459184 62.415906 
L 201.867347 66.740885 
L 206.27551 71.273362 
L 210.683673 76.023485 
L 215.091837 80.989792 
L 219.5 86.15886 
" style="fill:none;opacity:0.5;stroke:#1f9e89;stroke-linecap:square;stroke-width:0.3;"/>
   </g>
   <g id="line2d_63">
    <path clip-path="url(#p2cff45f6a8)" d="M 3.5 206.629906 
L 7.908163 198.254019 
L 12.316327 185.58332 
L 16.72449 173.635603 
L 21.132653 156.183176 
L 25.540816 144.352413 
L 29.94898 130.411098 
L 34.357143 124.585534 
L 38.765306 111.074758 
L 43.173469 103.846612 
L 47.581633 101.950807 
L 51.989796 94.659495 
L 56.397959 93.318573 
L 60.806122 86.60084 
L 65.214286 83.64377 
L 69.622449 79.21041 
L 74.030612 74.731856 
L 78.438776 65.849322 
L 82.846939 59.453513 
L 87.255102 56.937171 
L 91.663265 54.917129 
L 96.071429 52.714049 
L 100.479592 47.660753 
L 104.887755 41.455396 
L 109.295918 37.802683 
L 113.704082 34.144858 
L 118.112245 34.598904 
L 122.520408 35.378061 
L 126.928571 36.47198 
L 131.336735 35.722086 
L 135.744898 37.3854 
L 140.153061 39.403233 
L 144.561224 41.799443 
L 148.969388 44.581911 
L 153.377551 47.732558 
L 157.785714 51.206988 
L 162.193878 54.949767 
L 166.602041 58.91054 
L 171.010204 63.051752 
L 175.418367 67.352868 
L 179.826531 71.803458 
L 184.234694 76.393397 
L 188.642857 81.114529 
L 193.05102 85.965688 
L 197.459184 90.947376 
L 201.867347 96.050277 
L 206.27551 101.263241 
L 210.683673 106.601949 
L 215.091837 112.111304 
L 219.5 117.824266 
" style="fill:none;opacity:0.5;stroke:#1f9e89;stroke-linecap:square;stroke-width:0.3;"/>
   </g>
   <g id="line2d_64">
    <path clip-path="url(#p2cff45f6a8)" d="M 3.5 222.364252 
L 7.908163 214.344259 
L 12.316327 206.856251 
L 16.72449 198.232206 
L 21.132653 189.8371 
L 25.540816 185.156844 
L 29.94898 175.173621 
L 34.357143 163.57488 
L 38.765306 155.695675 
L 43.173469 145.718752 
L 47.581633 138.434157 
L 51.989796 131.470909 
L 56.397959 128.21253 
L 60.806122 119.556466 
L 65.214286 118.551465 
L 69.622449 111.171378 
L 74.030612 110.350578 
L 78.438776 101.072056 
L 82.846939 93.57092 
L 87.255102 86.803753 
L 91.663265 76.477885 
L 96.071429 65.491752 
L 100.479592 55.471937 
L 104.887755 47.536659 
L 109.295918 42.540259 
L 113.704082 41.687655 
L 118.112245 38.441244 
L 122.520408 36.549992 
L 126.928571 34.163398 
L 131.336735 34.256813 
L 135.744898 34.583339 
L 140.153061 34.128474 
L 144.561224 34.896235 
L 148.969388 35.87707 
L 153.377551 37.088219 
L 157.785714 38.560943 
L 162.193878 40.329561 
L 166.602041 42.425724 
L 171.010204 44.870952 
L 175.418367 47.663876 
L 179.826531 50.774667 
L 184.234694 54.158481 
L 188.642857 57.78001 
L 193.05102 61.625056 
L 197.459184 65.692799 
L 201.867347 69.982595 
L 206.27551 74.486709 
L 210.683673 79.202068 
L 215.091837 84.153158 
L 219.5 89.383763 
" style="fill:none;opacity:0.5;stroke:#1f9e89;stroke-linecap:square;stroke-width:0.3;"/>
   </g>
   <g id="line2d_65">
    <path clip-path="url(#p2cff45f6a8)" d="M 3.5 215.820464 
L 7.908163 209.503036 
L 12.316327 195.141377 
L 16.72449 181.112669 
L 21.132653 168.977973 
L 25.540816 157.708389 
L 29.94898 147.453259 
L 34.357143 143.66365 
L 38.765306 142.198193 
L 43.173469 138.651725 
L 47.581633 130.1274 
L 51.989796 125.102134 
L 56.397959 117.832232 
L 60.806122 106.757983 
L 65.214286 97.387969 
L 69.622449 91.268505 
L 74.030612 86.060399 
L 78.438776 81.555283 
L 82.846939 77.251204 
L 87.255102 71.394208 
L 91.663265 65.51569 
L 96.071429 61.44306 
L 100.479592 50.246244 
L 104.887755 45.202254 
L 109.295918 40.470495 
L 113.704082 40.106992 
L 118.112245 35.783715 
L 122.520408 35.733619 
L 126.928571 34.914751 
L 131.336735 35.375748 
L 135.744898 36.160288 
L 140.153061 37.317337 
L 144.561224 38.865757 
L 148.969388 40.783343 
L 153.377551 43.020684 
L 157.785714 45.526975 
L 162.193878 48.272337 
L 166.602041 51.251102 
L 171.010204 54.473089 
L 175.418367 57.958666 
L 179.826531 61.724515 
L 184.234694 65.758905 
L 188.642857 70.016589 
L 193.05102 74.438258 
L 197.459184 78.97312 
L 201.867347 83.596347 
L 206.27551 88.312677 
L 210.683673 93.139604 
L 215.091837 98.095924 
L 219.5 103.20976 
" style="fill:none;opacity:0.5;stroke:#1f9e89;stroke-linecap:square;stroke-width:0.3;"/>
   </g>
   <g id="line2d_66">
    <path clip-path="url(#p2cff45f6a8)" d="M 3.5 217.705434 
L 7.908163 215.374277 
L 12.316327 204.523 
L 16.72449 192.686599 
L 21.132653 175.084276 
L 25.540816 159.501814 
L 29.94898 154.17467 
L 34.357143 146.185951 
L 38.765306 139.010822 
L 43.173469 135.448178 
L 47.581633 130.006967 
L 51.989796 124.544659 
L 56.397959 113.31563 
L 60.806122 104.696762 
L 65.214286 97.727936 
L 69.622449 87.449927 
L 74.030612 81.18246 
L 78.438776 76.203102 
L 82.846939 64.832179 
L 87.255102 56.670527 
L 91.663265 55.78898 
L 96.071429 46.890806 
L 100.479592 42.95085 
L 104.887755 38.999742 
L 109.295918 38.618401 
L 113.704082 37.01332 
L 118.112245 37.110159 
L 122.520408 35.628311 
L 126.928571 36.178052 
L 131.336735 36.967494 
L 135.744898 38.01214 
L 140.153061 39.339149 
L 144.561224 40.976413 
L 148.969388 42.935264 
L 153.377551 45.201773 
L 157.785714 47.746224 
L 162.193878 50.547208 
L 166.602041 53.611921 
L 171.010204 56.969193 
L 175.418367 60.639589 
L 179.826531 64.613301 
L 184.234694 68.849381 
L 188.642857 73.290987 
L 193.05102 77.888102 
L 197.459184 82.614011 
L 201.867347 87.467278 
L 206.27551 92.456863 
L 210.683673 97.587413 
L 215.091837 102.866958 
L 219.5 108.322291 
" style="fill:none;opacity:0.5;stroke:#1f9e89;stroke-linecap:square;stroke-width:0.3;"/>
   </g>
   <g id="line2d_67">
    <path clip-path="url(#p2cff45f6a8)" d="M 3.5 220.638465 
L 7.908163 207.71669 
L 12.316327 200.825746 
L 16.72449 184.934378 
L 21.132653 172.259876 
L 25.540816 158.197808 
L 29.94898 151.427823 
L 34.357143 145.42013 
L 38.765306 139.777664 
L 43.173469 129.379396 
L 47.581633 120.112732 
L 51.989796 113.079747 
L 56.397959 111.921585 
L 60.806122 99.721598 
L 65.214286 94.916488 
L 69.622449 91.800893 
L 74.030612 82.475248 
L 78.438776 73.010196 
L 82.846939 63.825757 
L 87.255102 58.028051 
L 91.663265 49.610533 
L 96.071429 46.828636 
L 100.479592 41.371482 
L 104.887755 38.060361 
L 109.295918 34.554046 
L 113.704082 33.021836 
L 118.112245 33.271095 
L 122.520408 31.449073 
L 126.928571 32.115194 
L 131.336735 32.020315 
L 135.744898 33.213438 
L 140.153061 34.705074 
L 144.561224 36.484353 
L 148.969388 38.521669 
L 153.377551 40.7937 
L 157.785714 43.298426 
L 162.193878 46.050092 
L 166.602041 49.068759 
L 171.010204 52.372794 
L 175.418367 55.976527 
L 179.826531 59.893952 
L 184.234694 64.134732 
L 188.642857 68.688564 
L 193.05102 73.514582 
L 197.459184 78.546269 
L 201.867347 83.710989 
L 206.27551 88.955441 
L 210.683673 94.262924 
L 215.091837 99.65265 
L 219.5 105.157125 
" style="fill:none;opacity:0.5;stroke:#1f9e89;stroke-linecap:square;stroke-width:0.3;"/>
   </g>
   <g id="line2d_68">
    <path clip-path="url(#p2cff45f6a8)" d="M 13.061174 224 
L 16.72449 220.56078 
L 21.132653 216.122248 
L 25.540816 209.669113 
L 29.94898 199.801645 
L 34.357143 189.933275 
L 38.765306 178.319928 
L 43.173469 171.70672 
L 47.581633 157.743807 
L 51.989796 147.324213 
L 56.397959 134.689581 
L 60.806122 129.462724 
L 65.214286 116.092275 
L 69.622449 110.756039 
L 74.030612 107.049158 
L 78.438776 98.499575 
L 82.846939 93.453078 
L 87.255102 85.194558 
L 91.663265 72.501475 
L 96.071429 69.143348 
L 100.479592 62.944674 
L 104.887755 58.641702 
L 109.295918 53.928969 
L 113.704082 43.966926 
L 118.112245 41.322136 
L 122.520408 37.351439 
L 126.928571 35.280924 
L 131.336735 32.456381 
L 135.744898 32.296733 
L 140.153061 32.369463 
L 144.561224 31.681411 
L 148.969388 32.273476 
L 153.377551 33.177089 
L 157.785714 34.440368 
L 162.193878 36.104485 
L 166.602041 38.18257 
L 171.010204 40.65331 
L 175.418367 43.478247 
L 179.826531 46.627348 
L 184.234694 50.082116 
L 188.642857 53.813888 
L 193.05102 57.778795 
L 197.459184 61.943037 
L 201.867347 66.300082 
L 206.27551 70.859333 
L 210.683673 75.634779 
L 215.091837 80.642372 
L 219.5 85.889018 
" style="fill:none;opacity:0.5;stroke:#1f9e89;stroke-linecap:square;stroke-width:0.3;"/>
   </g>
   <g id="line2d_69">
    <path clip-path="url(#p2cff45f6a8)" d="M 3.5 212.046469 
L 7.908163 203.790278 
L 12.316327 194.152502 
L 16.72449 185.840758 
L 21.132653 170.287583 
L 25.540816 159.781114 
L 29.94898 152.598233 
L 34.357143 149.084205 
L 38.765306 142.181754 
L 43.173469 133.101325 
L 47.581633 120.254041 
L 51.989796 113.493049 
L 56.397959 106.636708 
L 60.806122 97.532483 
L 65.214286 90.892244 
L 69.622449 87.758236 
L 74.030612 84.782027 
L 78.438776 77.443729 
L 82.846939 65.260445 
L 87.255102 64.097982 
L 91.663265 55.395766 
L 96.071429 46.136617 
L 100.479592 42.808018 
L 104.887755 36.19002 
L 109.295918 34.246622 
L 113.704082 32.263172 
L 118.112245 30.890595 
L 122.520408 30.815582 
L 126.928571 31.056982 
L 131.336735 31.614805 
L 135.744898 32.490838 
L 140.153061 33.695293 
L 144.561224 35.242889 
L 148.969388 37.147286 
L 153.377551 39.419571 
L 157.785714 42.062632 
L 162.193878 45.063808 
L 166.602041 48.398874 
L 171.010204 52.043824 
L 175.418367 55.980744 
L 179.826531 60.195505 
L 184.234694 64.673665 
L 188.642857 69.393572 
L 193.05102 74.317025 
L 197.459184 79.390489 
L 201.867347 84.565762 
L 206.27551 89.823085 
L 210.683673 95.178916 
L 215.091837 100.673545 
L 219.5 106.348321 
" style="fill:none;opacity:0.5;stroke:#1f9e89;stroke-linecap:square;stroke-width:0.3;"/>
   </g>
   <g id="line2d_70">
    <path clip-path="url(#p2cff45f6a8)" d="M 9.228297 224 
L 12.316327 222.364252 
L 16.72449 222.364252 
L 21.132653 217.815678 
L 25.540816 211.652541 
L 29.94898 207.008081 
L 34.357143 197.451481 
L 38.765306 185.513792 
L 43.173469 180.962789 
L 47.581633 171.489072 
L 51.989796 160.465925 
L 56.397959 149.634474 
L 60.806122 139.842986 
L 65.214286 136.381235 
L 69.622449 123.450546 
L 74.030612 114.37865 
L 78.438776 102.546573 
L 82.846939 95.652136 
L 87.255102 84.062319 
L 91.663265 79.014614 
L 96.071429 72.665645 
L 100.479592 67.362188 
L 104.887755 64.459425 
L 109.295918 61.438027 
L 113.704082 55.256391 
L 118.112245 45.960034 
L 122.520408 40.939463 
L 126.928571 35.576556 
L 131.336735 35.019976 
L 135.744898 30.400603 
L 140.153061 30.284788 
L 144.561224 29.106464 
L 148.969388 28.537229 
L 153.377551 29.267345 
L 157.785714 30.301386 
L 162.193878 31.652363 
L 166.602041 33.338515 
L 171.010204 35.381112 
L 175.418367 37.791804 
L 179.826531 40.560154 
L 184.234694 43.653861 
L 188.642857 47.030818 
L 193.05102 50.646889 
L 197.459184 54.453887 
L 201.867347 58.402782 
L 206.27551 62.463931 
L 210.683673 66.647366 
L 215.091837 71.001373 
L 219.5 75.592324 
" style="fill:none;opacity:0.5;stroke:#1f9e89;stroke-linecap:square;stroke-width:0.3;"/>
   </g>
   <g id="line2d_71">
    <path clip-path="url(#p2cff45f6a8)" d="M 3.5 220.38059 
L 7.908163 220.312439 
L 12.316327 220.242178 
L 16.72449 215.710226 
L 21.132653 213.264111 
L 25.540816 213.170094 
L 29.94898 213.107295 
L 34.357143 213.07223 
L 38.765306 210.73348 
L 43.173469 204.329535 
L 47.581633 195.972049 
L 51.989796 183.590729 
L 56.397959 181.459896 
L 60.806122 170.721606 
L 65.214286 164.095003 
L 69.622449 156.533777 
L 74.030612 146.178719 
L 78.438776 138.532615 
L 82.846939 129.847393 
L 87.255102 124.49197 
L 91.663265 117.733329 
L 96.071429 109.782676 
L 100.479592 101.311735 
L 104.887755 94.299996 
L 109.295918 83.188293 
L 113.704082 76.649891 
L 118.112245 71.531848 
L 122.520408 66.887289 
L 126.928571 64.146715 
L 131.336735 55.982149 
L 135.744898 51.679777 
L 140.153061 45.255425 
L 144.561224 41.569308 
L 148.969388 38.10697 
L 153.377551 34.942999 
L 157.785714 32.012208 
L 162.193878 30.767226 
L 166.602041 29.815281 
L 171.010204 28.209133 
L 175.418367 29.15285 
L 179.826531 30.335072 
L 184.234694 31.739584 
L 188.642857 33.349629 
L 193.05102 35.157617 
L 197.459184 37.171412 
L 201.867347 39.404014 
L 206.27551 41.86782 
L 210.683673 44.594123 
L 215.091837 47.645493 
L 219.5 51.090574 
" style="fill:none;opacity:0.5;stroke:#1f9e89;stroke-linecap:square;stroke-width:0.3;"/>
   </g>
   <g id="line2d_72">
    <path clip-path="url(#p2cff45f6a8)" d="M 13.636461 224 
L 16.72449 222.364252 
L 21.132653 222.364252 
L 25.540816 215.948813 
L 29.94898 211.249031 
L 34.357143 201.624472 
L 38.765306 193.26269 
L 43.173469 179.539226 
L 47.581633 167.511241 
L 51.989796 157.620062 
L 56.397959 149.285401 
L 60.806122 145.763268 
L 65.214286 135.651007 
L 69.622449 128.345002 
L 74.030612 123.479502 
L 78.438776 112.918172 
L 82.846939 109.799616 
L 87.255102 103.186175 
L 91.663265 98.608984 
L 96.071429 92.478934 
L 100.479592 84.65768 
L 104.887755 78.619159 
L 109.295918 68.800634 
L 113.704082 56.897891 
L 118.112245 52.070359 
L 122.520408 50.945464 
L 126.928571 46.409708 
L 131.336735 40.614926 
L 135.744898 38.414744 
L 140.153061 32.15883 
L 144.561224 30.785279 
L 148.969388 30.035747 
L 153.377551 30.591954 
L 157.785714 31.44129 
L 162.193878 32.567478 
L 166.602041 33.949259 
L 171.010204 35.57104 
L 175.418367 37.427359 
L 179.826531 39.517801 
L 184.234694 41.840293 
L 188.642857 44.39109 
L 193.05102 47.173911 
L 197.459184 50.208999 
L 201.867347 53.531758 
L 206.27551 57.177236 
L 210.683673 61.158112 
L 215.091837 65.457817 
L 219.5 70.045477 
" style="fill:none;opacity:0.5;stroke:#1f9e89;stroke-linecap:square;stroke-width:0.3;"/>
   </g>
   <g id="line2d_73">
    <path clip-path="url(#p2cff45f6a8)" d="M 8.362623 224 
L 12.316327 217.916381 
L 16.72449 213.826748 
L 21.132653 202.490947 
L 25.540816 196.166551 
L 29.94898 189.591173 
L 34.357143 174.707271 
L 38.765306 160.917113 
L 43.173469 153.886015 
L 47.581633 137.104548 
L 51.989796 127.216351 
L 56.397959 117.363824 
L 60.806122 111.406293 
L 65.214286 107.478827 
L 69.622449 100.137204 
L 74.030612 93.090523 
L 78.438776 87.871989 
L 82.846939 83.01339 
L 87.255102 76.579508 
L 91.663265 66.749043 
L 96.071429 61.870903 
L 100.479592 61.121177 
L 104.887755 52.924628 
L 109.295918 50.466436 
L 113.704082 45.864746 
L 118.112245 39.952151 
L 122.520408 37.916035 
L 126.928571 37.827788 
L 131.336735 32.129881 
L 135.744898 30.355585 
L 140.153061 30.800252 
L 144.561224 31.602438 
L 148.969388 32.787238 
L 153.377551 34.350973 
L 157.785714 36.264204 
L 162.193878 38.490286 
L 166.602041 41.002282 
L 171.010204 43.789458 
L 175.418367 46.858719 
L 179.826531 50.227922 
L 184.234694 53.90764 
L 188.642857 57.887142 
L 193.05102 62.138243 
L 197.459184 66.627638 
L 201.867347 71.320565 
L 206.27551 76.177083 
L 210.683673 81.162454 
L 215.091837 86.273814 
L 219.5 91.549687 
" style="fill:none;opacity:0.5;stroke:#1f9e89;stroke-linecap:square;stroke-width:0.3;"/>
   </g>
   <g id="line2d_74">
    <path clip-path="url(#p2cff45f6a8)" d="M 3.5 220.043473 
L 7.908163 215.611478 
L 12.316327 211.503448 
L 16.72449 207.488992 
L 21.132653 197.684842 
L 25.540816 183.748868 
L 29.94898 176.86782 
L 34.357143 169.8318 
L 38.765306 155.572585 
L 43.173469 146.694176 
L 47.581633 138.550893 
L 51.989796 124.305962 
L 56.397959 115.430963 
L 60.806122 104.61312 
L 65.214286 97.514287 
L 69.622449 88.675976 
L 74.030612 80.080333 
L 78.438776 73.255153 
L 82.846939 66.736781 
L 87.255102 57.327134 
L 91.663265 47.678451 
L 96.071429 43.490363 
L 100.479592 40.720211 
L 104.887755 36.911272 
L 109.295918 34.597346 
L 113.704082 30.061817 
L 118.112245 28.58623 
L 122.520408 28.36731 
L 126.928571 28.426589 
L 131.336735 28.78334 
L 135.744898 29.445753 
L 140.153061 30.414032 
L 144.561224 31.680188 
L 148.969388 33.227034 
L 153.377551 35.032627 
L 157.785714 37.080639 
L 162.193878 39.371998 
L 166.602041 41.93126 
L 171.010204 44.804463 
L 175.418367 48.045402 
L 179.826531 51.686587 
L 184.234694 55.717299 
L 188.642857 60.093654 
L 193.05102 64.760213 
L 197.459184 69.661179 
L 201.867347 74.756889 
L 206.27551 80.053974 
L 210.683673 85.615564 
L 215.091837 91.517539 
L 219.5 97.785667 
" style="fill:none;opacity:0.5;stroke:#1f9e89;stroke-linecap:square;stroke-width:0.3;"/>
   </g>
   <g id="line2d_75">
    <path clip-path="url(#p2cff45f6a8)" d="M 3.5 220.6439 
L 7.908163 211.011276 
L 12.316327 197.620643 
L 16.72449 183.167925 
L 21.132653 173.545273 
L 25.540816 163.195147 
L 29.94898 152.545849 
L 34.357143 142.09705 
L 38.765306 133.114064 
L 43.173469 121.503905 
L 47.581633 115.983179 
L 51.989796 109.110164 
L 56.397959 98.18099 
L 60.806122 91.432364 
L 65.214286 81.525631 
L 69.622449 70.827569 
L 74.030612 61.732565 
L 78.438776 56.556069 
L 82.846939 52.250098 
L 87.255102 46.960976 
L 91.663265 46.118987 
L 96.071429 39.892308 
L 100.479592 36.673898 
L 104.887755 36.432249 
L 109.295918 36.408587 
L 113.704082 31.588289 
L 118.112245 31.937518 
L 122.520408 31.538085 
L 126.928571 32.422069 
L 131.336735 33.592799 
L 135.744898 35.053387 
L 140.153061 36.799748 
L 144.561224 38.823097 
L 148.969388 41.11563 
L 153.377551 43.676348 
L 157.785714 46.509259 
L 162.193878 49.617266 
L 166.602041 53.002975 
L 171.010204 56.673924 
L 175.418367 60.642044 
L 179.826531 64.915573 
L 184.234694 69.486746 
L 188.642857 74.323845 
L 193.05102 79.380568 
L 197.459184 84.6182 
L 201.867347 90.01837 
L 206.27551 95.581338 
L 210.683673 101.32458 
L 215.091837 107.281754 
L 219.5 113.48268 
" style="fill:none;opacity:0.5;stroke:#1f9e89;stroke-linecap:square;stroke-width:0.3;"/>
   </g>
   <g id="line2d_76">
    <path clip-path="url(#p2cff45f6a8)" d="M 9.228297 224 
L 12.316327 222.364252 
L 16.72449 217.890292 
L 21.132653 213.353587 
L 25.540816 210.912638 
L 29.94898 208.50349 
L 34.357143 208.448127 
L 38.765306 208.420216 
L 43.173469 206.091516 
L 47.581633 206.088289 
L 51.989796 201.544192 
L 56.397959 195.214951 
L 60.806122 187.049528 
L 65.214286 180.520226 
L 69.622449 177.841486 
L 74.030612 164.114997 
L 78.438776 152.607461 
L 82.846939 142.386493 
L 87.255102 137.710027 
L 91.663265 127.290164 
L 96.071429 118.252971 
L 100.479592 111.111629 
L 104.887755 99.789346 
L 109.295918 89.650868 
L 113.704082 79.365314 
L 118.112245 71.1131 
L 122.520408 64.600068 
L 126.928571 57.877607 
L 131.336735 51.993577 
L 135.744898 44.062576 
L 140.153061 40.999376 
L 144.561224 38.244927 
L 148.969388 34.411156 
L 153.377551 31.201129 
L 157.785714 29.342119 
L 162.193878 29.243539 
L 166.602041 26.900653 
L 171.010204 26.215198 
L 175.418367 26.825782 
L 179.826531 27.754304 
L 184.234694 29.014753 
L 188.642857 30.602825 
L 193.05102 32.503251 
L 197.459184 34.702 
L 201.867347 37.193724 
L 206.27551 39.982501 
L 210.683673 43.075257 
L 215.091837 46.472127 
L 219.5 50.164376 
" style="fill:none;opacity:0.5;stroke:#1f9e89;stroke-linecap:square;stroke-width:0.3;"/>
   </g>
   <g id="line2d_77">
    <path clip-path="url(#p2cff45f6a8)" d="M 12.992639 224 
L 16.72449 220.1414 
L 21.132653 220.09043 
L 25.540816 217.727232 
L 29.94898 205.41362 
L 34.357143 189.21903 
L 38.765306 178.683263 
L 43.173469 171.863956 
L 47.581633 162.731107 
L 51.989796 159.127816 
L 56.397959 148.711102 
L 60.806122 140.256903 
L 65.214286 132.826416 
L 69.622449 118.626393 
L 74.030612 105.981303 
L 78.438776 98.454543 
L 82.846939 88.610553 
L 87.255102 75.282012 
L 91.663265 72.146263 
L 96.071429 66.889506 
L 100.479592 61.791677 
L 104.887755 57.638916 
L 109.295918 50.209494 
L 113.704082 42.877279 
L 118.112245 39.177183 
L 122.520408 38.523092 
L 126.928571 33.958068 
L 131.336735 32.155511 
L 135.744898 30.725555 
L 140.153061 30.906979 
L 144.561224 30.38404 
L 148.969388 31.189283 
L 153.377551 32.312663 
L 157.785714 33.734825 
L 162.193878 35.436118 
L 166.602041 37.410883 
L 171.010204 39.664294 
L 175.418367 42.199411 
L 179.826531 45.008829 
L 184.234694 48.076056 
L 188.642857 51.39277 
L 193.05102 54.982355 
L 197.459184 58.897376 
L 201.867347 63.180167 
L 206.27551 67.82291 
L 210.683673 72.76647 
L 215.091837 77.93489 
L 219.5 83.272174 
" style="fill:none;opacity:0.5;stroke:#1f9e89;stroke-linecap:square;stroke-width:0.3;"/>
   </g>
   <g id="line2d_78">
    <path clip-path="url(#p2cff45f6a8)" d="M 4.820134 224 
L 7.908163 222.364252 
L 12.316327 220.031614 
L 16.72449 211.681687 
L 21.132653 202.375729 
L 25.540816 194.166429 
L 29.94898 184.018652 
L 34.357143 175.598029 
L 38.765306 161.076238 
L 43.173469 151.076366 
L 47.581633 137.585277 
L 51.989796 128.008779 
L 56.397959 121.24497 
L 60.806122 112.512305 
L 65.214286 96.23488 
L 69.622449 87.061209 
L 74.030612 81.073543 
L 78.438776 74.851505 
L 82.846939 66.637401 
L 87.255102 61.260386 
L 91.663265 58.367933 
L 96.071429 55.395126 
L 100.479592 48.241066 
L 104.887755 43.901257 
L 109.295918 41.502589 
L 113.704082 36.422397 
L 118.112245 32.417236 
L 122.520408 28.955151 
L 126.928571 28.891743 
L 131.336735 29.129873 
L 135.744898 29.686831 
L 140.153061 30.580612 
L 144.561224 31.826596 
L 148.969388 33.43389 
L 153.377551 35.403435 
L 157.785714 37.72555 
L 162.193878 40.375878 
L 166.602041 43.316905 
L 171.010204 46.509475 
L 175.418367 49.92788 
L 179.826531 53.564605 
L 184.234694 57.424412 
L 188.642857 61.518252 
L 193.05102 65.861624 
L 197.459184 70.472834 
L 201.867347 75.36103 
L 206.27551 80.507143 
L 210.683673 85.866278 
L 215.091837 91.400402 
L 219.5 97.100665 
" style="fill:none;opacity:0.5;stroke:#1f9e89;stroke-linecap:square;stroke-width:0.3;"/>
   </g>
   <g id="line2d_79">
    <path clip-path="url(#p2cff45f6a8)" d="M 4.820134 224 
L 7.908163 222.364252 
L 12.316327 222.364252 
L 16.72449 222.364252 
L 21.132653 218.073353 
L 25.540816 210.038998 
L 29.94898 197.010414 
L 34.357143 187.270832 
L 38.765306 180.754248 
L 43.173469 169.37119 
L 47.581633 161.530285 
L 51.989796 156.19001 
L 56.397959 151.495096 
L 60.806122 146.519654 
L 65.214286 137.982865 
L 69.622449 127.022879 
L 74.030612 115.574733 
L 78.438776 103.755309 
L 82.846939 100.379778 
L 87.255102 97.074483 
L 91.663265 88.767041 
L 96.071429 80.277088 
L 100.479592 74.099835 
L 104.887755 70.911223 
L 109.295918 64.391247 
L 113.704082 52.990963 
L 118.112245 50.142708 
L 122.520408 42.543051 
L 126.928571 41.634831 
L 131.336735 37.855617 
L 135.744898 36.215142 
L 140.153061 36.210252 
L 144.561224 35.49324 
L 148.969388 36.075598 
L 153.377551 36.940411 
L 157.785714 38.066745 
L 162.193878 39.422682 
L 166.602041 40.976589 
L 171.010204 42.714529 
L 175.418367 44.649491 
L 179.826531 46.820674 
L 184.234694 49.285205 
L 188.642857 52.097806 
L 193.05102 55.280523 
L 197.459184 58.80253 
L 201.867347 62.59659 
L 206.27551 66.604007 
L 210.683673 70.806654 
L 215.091837 75.228539 
L 219.5 79.91497 
" style="fill:none;opacity:0.5;stroke:#1f9e89;stroke-linecap:square;stroke-width:0.3;"/>
   </g>
   <g id="line2d_80">
    <path clip-path="url(#p2cff45f6a8)" d="M 26.86095 224 
L 29.94898 222.364252 
L 34.357143 222.364252 
L 38.765306 222.364252 
L 43.173469 218.093627 
L 47.581633 218.033291 
L 51.989796 215.639942 
L 56.397959 211.539731 
L 60.806122 203.30361 
L 65.214286 192.790975 
L 69.622449 175.952841 
L 74.030612 168.468672 
L 78.438776 159.423487 
L 82.846939 152.205114 
L 87.255102 150.967703 
L 91.663265 144.081488 
L 96.071429 137.927106 
L 100.479592 132.999139 
L 104.887755 127.97894 
L 109.295918 116.175155 
L 113.704082 106.858089 
L 118.112245 95.108576 
L 122.520408 83.795713 
L 126.928571 77.568049 
L 131.336735 68.593427 
L 135.744898 65.265878 
L 140.153061 60.613051 
L 144.561224 55.943259 
L 148.969388 51.712649 
L 153.377551 44.018626 
L 157.785714 37.193433 
L 162.193878 33.59403 
L 166.602041 29.930261 
L 171.010204 29.788342 
L 175.418367 29.927347 
L 179.826531 30.346039 
L 184.234694 31.040541 
L 188.642857 32.012952 
L 193.05102 33.27762 
L 197.459184 34.854182 
L 201.867347 36.754107 
L 206.27551 38.97799 
L 210.683673 41.522342 
L 215.091837 44.380038 
L 219.5 47.535891 
" style="fill:none;opacity:0.5;stroke:#1f9e89;stroke-linecap:square;stroke-width:0.3;"/>
   </g>
   <g id="line2d_81">
    <path clip-path="url(#p2cff45f6a8)" d="M 9.228297 224 
L 12.316327 222.364252 
L 16.72449 212.2457 
L 21.132653 210.045056 
L 25.540816 195.478686 
L 29.94898 186.600329 
L 34.357143 183.598292 
L 38.765306 171.049063 
L 43.173469 162.156982 
L 47.581633 152.308441 
L 51.989796 143.563361 
L 56.397959 142.511577 
L 60.806122 137.763456 
L 65.214286 132.650361 
L 69.622449 126.071894 
L 74.030612 114.889548 
L 78.438776 111.936201 
L 82.846939 102.158439 
L 87.255102 94.476984 
L 91.663265 90.023947 
L 96.071429 78.900372 
L 100.479592 68.15879 
L 104.887755 61.496348 
L 109.295918 53.109254 
L 113.704082 45.779839 
L 118.112245 39.68318 
L 122.520408 37.128576 
L 126.928571 34.970493 
L 131.336735 32.730153 
L 135.744898 32.583932 
L 140.153061 32.706387 
L 144.561224 33.090165 
L 148.969388 33.730007 
L 153.377551 34.623512 
L 157.785714 35.769768 
L 162.193878 37.167312 
L 166.602041 38.820074 
L 171.010204 40.745468 
L 175.418367 42.965237 
L 179.826531 45.483286 
L 184.234694 48.280696 
L 188.642857 51.3401 
L 193.05102 54.671073 
L 197.459184 58.302715 
L 201.867347 62.256788 
L 206.27551 66.529881 
L 210.683673 71.087922 
L 215.091837 75.871891 
L 219.5 80.82776 
" style="fill:none;opacity:0.5;stroke:#1f9e89;stroke-linecap:square;stroke-width:0.3;"/>
   </g>
   <g id="line2d_82">
    <path clip-path="url(#p2cff45f6a8)" d="M 18.044624 224 
L 21.132653 222.364252 
L 25.540816 215.866606 
L 29.94898 213.57724 
L 34.357143 206.969847 
L 38.765306 198.592262 
L 43.173469 189.755323 
L 47.581633 178.440519 
L 51.989796 167.448134 
L 56.397959 157.233874 
L 60.806122 150.421917 
L 65.214286 142.296643 
L 69.622449 131.761999 
L 74.030612 128.603039 
L 78.438776 120.132966 
L 82.846939 109.714753 
L 87.255102 104.461075 
L 91.663265 93.700407 
L 96.071429 83.448797 
L 100.479592 71.534365 
L 104.887755 63.846312 
L 109.295918 57.226305 
L 113.704082 50.655406 
L 118.112245 46.107427 
L 122.520408 43.11605 
L 126.928571 40.36907 
L 131.336735 36.144252 
L 135.744898 32.389854 
L 140.153061 29.167479 
L 144.561224 26.431653 
L 148.969388 25.096049 
L 153.377551 25.590384 
L 157.785714 26.421307 
L 162.193878 27.583569 
L 166.602041 29.061372 
L 171.010204 30.829322 
L 175.418367 32.857774 
L 179.826531 35.1183 
L 184.234694 37.591451 
L 188.642857 40.279782 
L 193.05102 43.214783 
L 197.459184 46.444043 
L 201.867347 50.005077 
L 206.27551 53.9063 
L 210.683673 58.127017 
L 215.091837 62.636311 
L 219.5 67.413581 
" style="fill:none;opacity:0.5;stroke:#1f9e89;stroke-linecap:square;stroke-width:0.3;"/>
   </g>
   <g id="line2d_83">
    <path clip-path="url(#p2cff45f6a8)" d="M 3.5 220.556524 
L 7.908163 217.570142 
L 12.316327 213.498859 
L 16.72449 208.111372 
L 21.132653 201.433084 
L 25.540816 194.075211 
L 29.94898 186.712615 
L 34.357143 179.333491 
L 38.765306 171.381076 
L 43.173469 163.136298 
L 47.581633 154.56555 
L 51.989796 146.846265 
L 56.397959 139.786629 
L 60.806122 131.921451 
L 65.214286 124.037276 
L 69.622449 115.580273 
L 74.030612 107.860017 
L 78.438776 100.099966 
L 82.846939 92.821704 
L 87.255102 85.859462 
L 91.663265 78.873019 
L 96.071429 72.330027 
L 100.479592 65.805213 
L 104.887755 59.984684 
L 109.295918 54.770091 
L 113.704082 49.419135 
L 118.112245 45.400298 
L 122.520408 41.898352 
L 126.928571 39.447235 
L 131.336735 37.654396 
L 135.744898 36.40952 
L 140.153061 35.308294 
L 144.561224 35.109095 
L 148.969388 35.404539 
L 153.377551 36.092863 
L 157.785714 36.988928 
L 162.193878 38.529547 
L 166.602041 40.330732 
L 171.010204 42.454695 
L 175.418367 45.010186 
L 179.826531 47.848691 
L 184.234694 50.965499 
L 188.642857 54.352403 
L 193.05102 57.999357 
L 197.459184 61.896522 
L 201.867347 66.034982 
L 206.27551 70.406793 
L 210.683673 75.006023 
L 215.091837 79.829778 
L 219.5 84.87581 
" style="fill:none;stroke:#1f9e89;stroke-linecap:square;stroke-width:2;"/>
   </g>
   <g id="patch_3">
    <path d="M 3.5 219.5 
L 3.5 3.5 
" style="fill:none;stroke:#000000;stroke-linecap:square;stroke-linejoin:miter;stroke-width:0.8;"/>
   </g>
   <g id="patch_4">
    <path d="M 219.5 219.5 
L 219.5 3.5 
" style="fill:none;stroke:#000000;stroke-linecap:square;stroke-linejoin:miter;stroke-width:0.8;"/>
   </g>
   <g id="patch_5">
    <path d="M 3.5 219.5 
L 219.5 219.5 
" style="fill:none;stroke:#000000;stroke-linecap:square;stroke-linejoin:miter;stroke-width:0.8;"/>
   </g>
   <g id="patch_6">
    <path d="M 3.5 3.5 
L 219.5 3.5 
" style="fill:none;stroke:#000000;stroke-linecap:square;stroke-linejoin:miter;stroke-width:0.8;"/>
   </g>
  </g>
 </g>
 <defs>
  <clipPath id="p2cff45f6a8">
   <rect height="216" width="216" x="3.5" y="3.5"/>
  </clipPath>
 </defs>
</svg>
