<?xml version="1.0" encoding="utf-8" standalone="no"?>
<!DOCTYPE svg PUBLIC "-//W3C//DTD SVG 1.1//EN"
  "http://www.w3.org/Graphics/SVG/1.1/DTD/svg11.dtd">
<!-- Created with matplotlib (http://matplotlib.org/) -->
<svg height="173pt" version="1.1" viewBox="0 0 245 173" width="245pt" xmlns="http://www.w3.org/2000/svg" xmlns:xlink="http://www.w3.org/1999/xlink">
 <defs>
  <style type="text/css">
*{stroke-linecap:butt;stroke-linejoin:round;}
  </style>
 </defs>
 <g id="figure_1">
  <g id="patch_1">
   <path d="M 0 173.037711 
L 245.8475 173.037711 
L 245.8475 0 
L 0 0 
z
" style="fill:#ffffff;"/>
  </g>
  <g id="axes_1">
   <g id="patch_2">
    <path d="M 48.5575 141.417086 
L 235.1475 141.417086 
L 235.1475 12.764809 
L 48.5575 12.764809 
z
" style="fill:#ffffff;"/>
   </g>
   <g id="patch_3">
    <path clip-path="url(#pa8aced31da)" d="M 59.048504 141.417086 
L 59.048504 12.764809 
L 70.288865 12.764809 
L 70.288865 141.417086 
z
" style="fill:#ff0000;opacity:0.15;stroke:#ff0000;stroke-linejoin:miter;"/>
   </g>
   <g id="patch_4">
    <path clip-path="url(#pa8aced31da)" d="M 81.529227 141.417086 
L 81.529227 12.764809 
L 91.270873 12.764809 
L 91.270873 141.417086 
z
" style="fill:#ff0000;opacity:0.15;stroke:#ff0000;stroke-linejoin:miter;"/>
   </g>
   <g id="patch_5">
    <path clip-path="url(#pa8aced31da)" d="M 109.255452 141.417086 
L 109.255452 12.764809 
L 197.679629 12.764809 
L 197.679629 141.417086 
z
" style="fill:#ff0000;opacity:0.15;stroke:#ff0000;stroke-linejoin:miter;"/>
   </g>
   <g id="matplotlib.axis_1">
    <g id="xtick_1">
     <g id="line2d_1">
      <defs>
       <path d="M 0 0 
L 0 3.5 
" id="m8158b5ebb5" style="stroke:#000000;stroke-width:0.8;"/>
      </defs>
      <g>
       <use style="stroke:#000000;stroke-width:0.8;" x="48.5575" xlink:href="#m8158b5ebb5" y="141.417086"/>
      </g>
     </g>
     <g id="text_1">
      <!-- 0 -->
      <defs>
       <path d="M 31.78125 66.40625 
Q 24.171875 66.40625 20.328125 58.90625 
Q 16.5 51.421875 16.5 36.375 
Q 16.5 21.390625 20.328125 13.890625 
Q 24.171875 6.390625 31.78125 6.390625 
Q 39.453125 6.390625 43.28125 13.890625 
Q 47.125 21.390625 47.125 36.375 
Q 47.125 51.421875 43.28125 58.90625 
Q 39.453125 66.40625 31.78125 66.40625 
z
M 31.78125 74.21875 
Q 44.046875 74.21875 50.515625 64.515625 
Q 56.984375 54.828125 56.984375 36.375 
Q 56.984375 17.96875 50.515625 8.265625 
Q 44.046875 -1.421875 31.78125 -1.421875 
Q 19.53125 -1.421875 13.0625 8.265625 
Q 6.59375 17.96875 6.59375 36.375 
Q 6.59375 54.828125 13.0625 64.515625 
Q 19.53125 74.21875 31.78125 74.21875 
z
" id="DejaVuSans-30"/>
      </defs>
      <g transform="translate(42.83125 162.094274)scale(0.18 -0.18)">
       <use xlink:href="#DejaVuSans-30"/>
      </g>
     </g>
    </g>
    <g id="xtick_2">
     <g id="line2d_2">
      <g>
       <use style="stroke:#000000;stroke-width:0.8;" x="123.493243" xlink:href="#m8158b5ebb5" y="141.417086"/>
      </g>
     </g>
     <g id="text_2">
      <!-- 1 -->
      <defs>
       <path d="M 12.40625 8.296875 
L 28.515625 8.296875 
L 28.515625 63.921875 
L 10.984375 60.40625 
L 10.984375 69.390625 
L 28.421875 72.90625 
L 38.28125 72.90625 
L 38.28125 8.296875 
L 54.390625 8.296875 
L 54.390625 0 
L 12.40625 0 
z
" id="DejaVuSans-31"/>
      </defs>
      <g transform="translate(117.766993 162.094274)scale(0.18 -0.18)">
       <use xlink:href="#DejaVuSans-31"/>
      </g>
     </g>
    </g>
    <g id="xtick_3">
     <g id="line2d_3">
      <g>
       <use style="stroke:#000000;stroke-width:0.8;" x="198.428986" xlink:href="#m8158b5ebb5" y="141.417086"/>
      </g>
     </g>
     <g id="text_3">
      <!-- 2 -->
      <defs>
       <path d="M 19.1875 8.296875 
L 53.609375 8.296875 
L 53.609375 0 
L 7.328125 0 
L 7.328125 8.296875 
Q 12.9375 14.109375 22.625 23.890625 
Q 32.328125 33.6875 34.8125 36.53125 
Q 39.546875 41.84375 41.421875 45.53125 
Q 43.3125 49.21875 43.3125 52.78125 
Q 43.3125 58.59375 39.234375 62.25 
Q 35.15625 65.921875 28.609375 65.921875 
Q 23.96875 65.921875 18.8125 64.3125 
Q 13.671875 62.703125 7.8125 59.421875 
L 7.8125 69.390625 
Q 13.765625 71.78125 18.9375 73 
Q 24.125 74.21875 28.421875 74.21875 
Q 39.75 74.21875 46.484375 68.546875 
Q 53.21875 62.890625 53.21875 53.421875 
Q 53.21875 48.921875 51.53125 44.890625 
Q 49.859375 40.875 45.40625 35.40625 
Q 44.1875 33.984375 37.640625 27.21875 
Q 31.109375 20.453125 19.1875 8.296875 
z
" id="DejaVuSans-32"/>
      </defs>
      <g transform="translate(192.702736 162.094274)scale(0.18 -0.18)">
       <use xlink:href="#DejaVuSans-32"/>
      </g>
     </g>
    </g>
   </g>
   <g id="matplotlib.axis_2">
    <g id="ytick_1">
     <g id="line2d_4">
      <defs>
       <path d="M 0 0 
L -3.5 0 
" id="m2eb7f7487a" style="stroke:#000000;stroke-width:0.8;"/>
      </defs>
      <g>
       <use style="stroke:#000000;stroke-width:0.8;" x="48.5575" xlink:href="#m2eb7f7487a" y="141.417086"/>
      </g>
     </g>
     <g id="text_4">
      <!-- 0 -->
      <g transform="translate(30.105 148.25568)scale(0.18 -0.18)">
       <use xlink:href="#DejaVuSans-30"/>
      </g>
     </g>
    </g>
    <g id="ytick_2">
     <g id="line2d_5">
      <g>
       <use style="stroke:#000000;stroke-width:0.8;" x="48.5575" xlink:href="#m2eb7f7487a" y="77.72784"/>
      </g>
     </g>
     <g id="text_5">
      <!-- 50 -->
      <defs>
       <path d="M 10.796875 72.90625 
L 49.515625 72.90625 
L 49.515625 64.59375 
L 19.828125 64.59375 
L 19.828125 46.734375 
Q 21.96875 47.46875 24.109375 47.828125 
Q 26.265625 48.1875 28.421875 48.1875 
Q 40.625 48.1875 47.75 41.5 
Q 54.890625 34.8125 54.890625 23.390625 
Q 54.890625 11.625 47.5625 5.09375 
Q 40.234375 -1.421875 26.90625 -1.421875 
Q 22.3125 -1.421875 17.546875 -0.640625 
Q 12.796875 0.140625 7.71875 1.703125 
L 7.71875 11.625 
Q 12.109375 9.234375 16.796875 8.0625 
Q 21.484375 6.890625 26.703125 6.890625 
Q 35.15625 6.890625 40.078125 11.328125 
Q 45.015625 15.765625 45.015625 23.390625 
Q 45.015625 31 40.078125 35.4375 
Q 35.15625 39.890625 26.703125 39.890625 
Q 22.75 39.890625 18.8125 39.015625 
Q 14.890625 38.140625 10.796875 36.28125 
z
" id="DejaVuSans-35"/>
      </defs>
      <g transform="translate(18.6525 84.566434)scale(0.18 -0.18)">
       <use xlink:href="#DejaVuSans-35"/>
       <use x="63.623047" xlink:href="#DejaVuSans-30"/>
      </g>
     </g>
    </g>
    <g id="ytick_3">
     <g id="line2d_6">
      <g>
       <use style="stroke:#000000;stroke-width:0.8;" x="48.5575" xlink:href="#m2eb7f7487a" y="14.038594"/>
      </g>
     </g>
     <g id="text_6">
      <!-- 100 -->
      <g transform="translate(7.2 20.877188)scale(0.18 -0.18)">
       <use xlink:href="#DejaVuSans-31"/>
       <use x="63.623047" xlink:href="#DejaVuSans-30"/>
       <use x="127.246094" xlink:href="#DejaVuSans-30"/>
      </g>
     </g>
    </g>
   </g>
   <g id="line2d_7">
    <path clip-path="url(#pa8aced31da)" d="M 48.5575 141.417086 
L 54.552359 141.396576 
L 55.301717 141.301854 
L 56.051074 140.911778 
L 56.800432 139.644287 
L 57.549789 136.368913 
L 58.299147 129.571733 
L 59.048504 118.097605 
L 59.797861 102.088619 
L 61.296576 64.581887 
L 62.045934 48.599531 
L 62.795291 36.987766 
L 63.544649 29.839833 
L 64.294006 26.154399 
L 65.043363 24.787098 
L 65.792721 25.159146 
L 66.542078 27.458312 
L 67.291436 32.621649 
L 68.040793 42.065511 
L 68.790151 56.748967 
L 71.038223 114.787785 
L 71.78758 128.016958 
L 72.536938 135.790431 
L 73.286295 139.473843 
L 74.035653 140.872009 
L 74.78501 141.294591 
L 76.283725 141.414529 
L 77.78244 141.387182 
L 78.531797 141.246485 
L 79.281155 140.659225 
L 80.030512 138.72833 
L 80.779869 133.723056 
L 81.529227 123.487103 
L 82.278584 106.969628 
L 83.777299 64.859665 
L 84.526657 48.139692 
L 85.276014 37.484857 
L 86.025371 31.680178 
L 86.774729 28.666176 
L 87.524086 27.531701 
L 88.273444 29.140718 
L 89.022801 35.573052 
L 89.772159 48.699092 
L 90.521516 68.2825 
L 92.020231 111.770166 
L 92.769588 126.84193 
L 93.518946 135.511011 
L 94.268303 139.46548 
L 95.017661 140.895762 
L 95.767018 141.305717 
L 97.265733 141.415381 
L 105.508665 141.354042 
L 106.258022 141.095078 
L 107.00738 140.113447 
L 107.756737 137.181839 
L 108.506094 130.290313 
L 109.255452 117.542296 
L 110.004809 98.978698 
L 111.503524 58.240239 
L 112.252882 44.042034 
L 113.002239 35.494881 
L 113.751596 31.136363 
L 114.500954 29.397062 
L 115.250311 29.41439 
L 115.999669 30.821415 
L 116.749026 33.260687 
L 117.498384 36.085107 
L 118.247741 38.384543 
L 118.997098 39.333767 
L 119.746456 38.606633 
L 120.495813 36.528796 
L 121.994528 31.604179 
L 122.743886 30.355359 
L 123.493243 30.434276 
L 124.2426 31.87668 
L 124.991958 34.799678 
L 125.741315 39.485629 
L 126.490673 46.067163 
L 127.989388 63.591372 
L 129.488102 82.955904 
L 130.23746 89.395898 
L 130.986817 89.143333 
L 131.736175 80.180628 
L 133.23489 48.871378 
L 133.984247 36.875348 
L 134.733604 29.946949 
L 135.482962 26.461703 
L 136.232319 24.482058 
L 136.981677 23.017661 
L 137.731034 21.913633 
L 138.480392 21.309689 
L 139.229749 21.310115 
L 139.979106 21.90874 
L 141.477821 24.2272 
L 142.227179 25.331466 
L 142.976536 26.045781 
L 143.725894 26.286297 
L 144.475251 26.045781 
L 145.224608 25.33104 
L 148.222038 21.065042 
L 148.971396 20.652591 
L 149.720753 20.480656 
L 151.219468 20.414355 
L 152.718183 20.494769 
L 153.46754 20.709689 
L 154.216898 21.248724 
L 154.966255 22.316036 
L 155.715612 24.033327 
L 156.46497 26.450119 
L 157.214327 29.823572 
L 157.963685 34.85022 
L 158.713042 42.257732 
L 162.459829 89.930594 
L 163.958544 106.262036 
L 164.707902 112.603045 
L 165.457259 114.567645 
L 166.206616 109.737711 
L 166.955974 97.792806 
L 169.204046 48.17209 
L 169.953404 36.492811 
L 170.702761 28.680468 
L 171.452118 24.109951 
L 172.201476 21.819267 
L 172.950833 20.857437 
L 173.700191 20.525335 
L 175.198906 20.411576 
L 179.69505 20.477451 
L 180.444408 20.635273 
L 181.193765 20.991905 
L 183.441837 22.799116 
L 184.191195 22.799116 
L 184.940552 22.299237 
L 186.439267 20.991905 
L 187.188624 20.635273 
L 188.687339 20.424411 
L 191.684769 20.440628 
L 192.434127 20.595438 
L 193.183484 21.238944 
L 193.932841 23.344553 
L 194.682199 28.775965 
L 195.431556 39.835519 
L 196.180914 57.631547 
L 197.679629 103.071899 
L 198.428986 121.218526 
L 199.178343 132.636188 
L 199.927701 138.308116 
L 200.677058 140.529841 
L 201.426416 141.215053 
L 202.175773 141.381198 
L 205.173203 141.417086 
L 235.1475 141.417086 
L 235.1475 141.417086 
" style="fill:none;stroke:#000000;stroke-linecap:square;stroke-width:2;"/>
   </g>
   <g id="patch_6">
    <path d="M 48.5575 141.417086 
L 48.5575 12.764809 
" style="fill:none;stroke:#000000;stroke-linecap:square;stroke-linejoin:miter;stroke-width:0.8;"/>
   </g>
   <g id="patch_7">
    <path d="M 235.1475 141.417086 
L 235.1475 12.764809 
" style="fill:none;stroke:#000000;stroke-linecap:square;stroke-linejoin:miter;stroke-width:0.8;"/>
   </g>
   <g id="patch_8">
    <path d="M 48.5575 141.417086 
L 235.1475 141.417086 
" style="fill:none;stroke:#000000;stroke-linecap:square;stroke-linejoin:miter;stroke-width:0.8;"/>
   </g>
   <g id="patch_9">
    <path d="M 48.5575 12.764809 
L 235.1475 12.764809 
" style="fill:none;stroke:#000000;stroke-linecap:square;stroke-linejoin:miter;stroke-width:0.8;"/>
   </g>
  </g>
 </g>
 <defs>
  <clipPath id="pa8aced31da">
   <rect height="128.652277" width="186.59" x="48.5575" y="12.764809"/>
  </clipPath>
 </defs>
</svg>
