<?xml version="1.0" encoding="utf-8" standalone="no"?>
<!DOCTYPE svg PUBLIC "-//W3C//DTD SVG 1.1//EN"
  "http://www.w3.org/Graphics/SVG/1.1/DTD/svg11.dtd">
<!-- Created with matplotlib (http://matplotlib.org/) -->
<svg height="355pt" version="1.1" viewBox="0 0 455 355" width="455pt" xmlns="http://www.w3.org/2000/svg" xmlns:xlink="http://www.w3.org/1999/xlink">
 <defs>
  <style type="text/css">
*{stroke-linecap:butt;stroke-linejoin:round;}
  </style>
 </defs>
 <g id="figure_1">
  <g id="patch_1">
   <path d="M 0 355.992552 
L 455.114687 355.992552 
L 455.114687 0 
L 0 0 
z
" style="fill:#ffffff;"/>
  </g>
  <g id="axes_1">
   <g id="patch_2">
    <path d="M 109.614687 343.34 
L 444.414688 343.34 
L 444.414688 10.7 
L 109.614687 10.7 
z
" style="fill:#ffffff;"/>
   </g>
   <g id="PolyCollection_1">
    <defs>
     <path d="M 124.832869 -27.772552 
L 124.832869 -64.294078 
L 128.14117 -64.294078 
L 131.44947 -64.294078 
L 134.757771 -64.294078 
L 138.066071 -64.294078 
L 141.374371 -64.294078 
L 144.682672 -64.294078 
L 147.990972 -64.294078 
L 151.299272 -64.294078 
L 154.607573 -64.294078 
L 157.915873 -64.294078 
L 161.224174 -64.294078 
L 164.532474 -64.294078 
L 167.840774 -64.294078 
L 171.149075 -64.294078 
L 174.457375 -64.294078 
L 177.765676 -64.294078 
L 181.073976 -64.294078 
L 184.382276 -64.294078 
L 187.690577 -64.294078 
L 190.998877 -64.294078 
L 194.307178 -64.294078 
L 197.615478 -64.294078 
L 200.923778 -64.294078 
L 204.232079 -64.294078 
L 207.540379 -64.294078 
L 210.84868 -64.294078 
L 214.15698 -64.294078 
L 217.46528 -64.294078 
L 220.773581 -64.294078 
L 224.081881 -64.294078 
L 227.390182 -64.294078 
L 230.698482 -64.294078 
L 234.006782 -64.294078 
L 237.315083 -64.294078 
L 240.623383 -64.294078 
L 243.931684 -64.294078 
L 247.239984 -64.294078 
L 250.548284 -64.294078 
L 253.856585 -64.294078 
L 257.164885 -64.294078 
L 260.473186 -64.294078 
L 263.781486 -64.294078 
L 267.089786 -64.294078 
L 270.398087 -64.294078 
L 273.706387 -64.294078 
L 277.014688 -64.294078 
L 280.322988 -64.294078 
L 283.631288 -64.294078 
L 286.939589 -64.294078 
L 290.247889 -64.294078 
L 293.556189 -64.294078 
L 296.86449 -64.294078 
L 300.17279 -64.294078 
L 303.481091 -64.294078 
L 306.789391 -64.294078 
L 310.097691 -64.294078 
L 313.405992 -64.294078 
L 316.714292 -64.294078 
L 320.022593 -64.294078 
L 323.330893 -64.294078 
L 326.639193 -64.294078 
L 329.947494 -64.294078 
L 333.255794 -64.294078 
L 336.564095 -64.294078 
L 339.872395 -64.294078 
L 343.180695 -64.294078 
L 346.488996 -64.294078 
L 349.797296 -64.294078 
L 353.105597 -64.294078 
L 356.413897 -64.294078 
L 359.722197 -64.294078 
L 363.030498 -64.294078 
L 366.338798 -64.294078 
L 369.647099 -64.294078 
L 372.955399 -64.294078 
L 376.263699 -64.294078 
L 379.572 -64.294078 
L 382.8803 -64.294078 
L 386.188601 -64.294078 
L 389.496901 -64.294078 
L 392.805201 -64.294078 
L 396.113502 -64.294078 
L 399.421802 -64.294078 
L 402.730103 -64.294078 
L 406.038403 -64.294078 
L 409.346703 -64.294078 
L 412.655004 -64.294078 
L 415.963304 -64.294078 
L 419.271604 -64.294078 
L 422.579905 -64.294078 
L 425.888205 -64.294078 
L 429.196506 -64.294078 
L 429.196506 -330.172552 
L 429.196506 -330.172552 
L 425.888205 -311.191193 
L 422.579905 -296.216474 
L 419.271604 -271.359063 
L 415.963304 -241.872253 
L 412.655004 -238.232664 
L 409.346703 -236.795942 
L 406.038403 -236.768032 
L 402.730103 -222.517689 
L 399.421802 -218.89638 
L 396.113502 -202.104647 
L 392.805201 -200.511709 
L 389.496901 -200.023373 
L 386.188601 -198.771201 
L 382.8803 -196.294132 
L 379.572 -194.579228 
L 376.263699 -192.247453 
L 372.955399 -185.408592 
L 369.647099 -185.110678 
L 366.338798 -178.798982 
L 363.030498 -177.389832 
L 359.722197 -163.093845 
L 356.413897 -160.377761 
L 353.105597 -157.933719 
L 349.797296 -157.040892 
L 346.488996 -155.610217 
L 343.180695 -145.680213 
L 339.872395 -126.334959 
L 336.564095 -114.594917 
L 333.255794 -107.995587 
L 329.947494 -105.616878 
L 326.639193 -105.214839 
L 323.330893 -101.186919 
L 320.022593 -99.376872 
L 316.714292 -98.271436 
L 313.405992 -97.249398 
L 310.097691 -94.705348 
L 306.789391 -93.461724 
L 303.481091 -86.287091 
L 300.17279 -82.307075 
L 296.86449 -81.766909 
L 293.556189 -81.263278 
L 290.247889 -80.876712 
L 286.939589 -79.57614 
L 283.631288 -79.334733 
L 280.322988 -78.414299 
L 277.014688 -77.373756 
L 273.706387 -76.767061 
L 270.398087 -75.610992 
L 267.089786 -74.367032 
L 263.781486 -73.571993 
L 260.473186 -73.302841 
L 257.164885 -72.49301 
L 253.856585 -72.265827 
L 250.548284 -71.754243 
L 247.239984 -71.096421 
L 243.931684 -69.915422 
L 240.623383 -69.796259 
L 237.315083 -69.775453 
L 234.006782 -69.692642 
L 230.698482 -69.559735 
L 227.390182 -69.436709 
L 224.081881 -67.898019 
L 220.773581 -67.158265 
L 217.46528 -66.624206 
L 214.15698 -66.485179 
L 210.84868 -66.450909 
L 207.540379 -66.311186 
L 204.232079 -65.125894 
L 200.923778 -64.986582 
L 197.615478 -64.443323 
L 194.307178 -64.286271 
L 190.998877 -64.177322 
L 187.690577 -64.048758 
L 184.382276 -64.046535 
L 181.073976 -64.00571 
L 177.765676 -63.958456 
L 174.457375 -63.888384 
L 171.149075 -63.73466 
L 167.840774 -63.543895 
L 164.532474 -62.856788 
L 161.224174 -62.641752 
L 157.915873 -61.952048 
L 154.607573 -61.675 
L 151.299272 -61.613849 
L 147.990972 -58.523196 
L 144.682672 -57.637502 
L 141.374371 -56.921642 
L 138.066071 -56.738237 
L 134.757771 -55.826732 
L 131.44947 -54.694569 
L 128.14117 -36.823209 
L 124.832869 -27.772552 
z
" id="m77875b343c" style="stroke:#4a98c9;"/>
    </defs>
    <g clip-path="url(#p49702034a3)">
     <use style="fill:#4a98c9;stroke:#4a98c9;" x="0" xlink:href="#m77875b343c" y="355.992552"/>
    </g>
   </g>
   <g id="PolyCollection_2">
    <defs>
     <path d="M 124.832869 -42.766218 
L 124.832869 -64.294078 
L 128.14117 -64.294078 
L 131.44947 -64.294078 
L 134.757771 -64.294078 
L 138.066071 -64.294078 
L 141.374371 -64.294078 
L 144.682672 -64.294078 
L 147.990972 -64.294078 
L 151.299272 -64.294078 
L 154.607573 -64.294078 
L 157.915873 -64.294078 
L 161.224174 -64.294078 
L 164.532474 -64.294078 
L 167.840774 -64.294078 
L 171.149075 -64.294078 
L 174.457375 -64.294078 
L 177.765676 -64.294078 
L 181.073976 -64.294078 
L 184.382276 -64.294078 
L 187.690577 -64.294078 
L 190.998877 -64.294078 
L 194.307178 -64.294078 
L 197.615478 -64.294078 
L 200.923778 -64.294078 
L 204.232079 -64.294078 
L 207.540379 -64.294078 
L 210.84868 -64.294078 
L 214.15698 -64.294078 
L 217.46528 -64.294078 
L 220.773581 -64.294078 
L 224.081881 -64.294078 
L 227.390182 -64.294078 
L 230.698482 -64.294078 
L 234.006782 -64.294078 
L 237.315083 -64.294078 
L 240.623383 -64.294078 
L 243.931684 -64.294078 
L 247.239984 -64.294078 
L 250.548284 -64.294078 
L 253.856585 -64.294078 
L 257.164885 -64.294078 
L 260.473186 -64.294078 
L 263.781486 -64.294078 
L 267.089786 -64.294078 
L 270.398087 -64.294078 
L 273.706387 -64.294078 
L 277.014688 -64.294078 
L 280.322988 -64.294078 
L 283.631288 -64.294078 
L 286.939589 -64.294078 
L 290.247889 -64.294078 
L 293.556189 -64.294078 
L 296.86449 -64.294078 
L 300.17279 -64.294078 
L 303.481091 -64.294078 
L 306.789391 -64.294078 
L 310.097691 -64.294078 
L 313.405992 -64.294078 
L 316.714292 -64.294078 
L 320.022593 -64.294078 
L 323.330893 -64.294078 
L 326.639193 -64.294078 
L 329.947494 -64.294078 
L 333.255794 -64.294078 
L 336.564095 -64.294078 
L 339.872395 -64.294078 
L 343.180695 -64.294078 
L 346.488996 -64.294078 
L 349.797296 -64.294078 
L 353.105597 -64.294078 
L 356.413897 -64.294078 
L 359.722197 -64.294078 
L 363.030498 -64.294078 
L 366.338798 -64.294078 
L 369.647099 -64.294078 
L 372.955399 -64.294078 
L 376.263699 -64.294078 
L 379.572 -64.294078 
L 382.8803 -64.294078 
L 386.188601 -64.294078 
L 389.496901 -64.294078 
L 392.805201 -64.294078 
L 396.113502 -64.294078 
L 399.421802 -64.294078 
L 402.730103 -64.294078 
L 406.038403 -64.294078 
L 409.346703 -64.294078 
L 412.655004 -64.294078 
L 415.963304 -64.294078 
L 419.271604 -64.294078 
L 422.579905 -64.294078 
L 425.888205 -64.294078 
L 429.196506 -64.294078 
L 429.196506 -178.056487 
L 429.196506 -178.056487 
L 425.888205 -156.454415 
L 422.579905 -148.817361 
L 419.271604 -138.054006 
L 415.963304 -135.281276 
L 412.655004 -135.052176 
L 409.346703 -132.671302 
L 406.038403 -132.42169 
L 402.730103 -126.925534 
L 399.421802 -116.935315 
L 396.113502 -112.520112 
L 392.805201 -109.481718 
L 389.496901 -106.467484 
L 386.188601 -105.377114 
L 382.8803 -103.541486 
L 379.572 -102.998148 
L 376.263699 -102.336502 
L 372.955399 -101.818085 
L 369.647099 -101.020549 
L 366.338798 -98.462763 
L 363.030498 -97.746036 
L 359.722197 -95.084356 
L 356.413897 -90.67561 
L 353.105597 -89.853348 
L 349.797296 -89.036306 
L 346.488996 -87.745771 
L 343.180695 -87.631998 
L 339.872395 -87.595224 
L 336.564095 -87.053613 
L 333.255794 -85.579007 
L 329.947494 -84.285687 
L 326.639193 -83.607034 
L 323.330893 -83.566318 
L 320.022593 -81.610121 
L 316.714292 -81.511991 
L 313.405992 -80.312358 
L 310.097691 -79.354503 
L 306.789391 -79.339335 
L 303.481091 -79.311999 
L 300.17279 -78.180359 
L 296.86449 -77.058715 
L 293.556189 -76.292939 
L 290.247889 -74.447712 
L 286.939589 -73.968669 
L 283.631288 -73.486704 
L 280.322988 -73.406105 
L 277.014688 -72.726437 
L 273.706387 -71.636289 
L 270.398087 -70.801518 
L 267.089786 -70.596228 
L 263.781486 -70.33498 
L 260.473186 -69.984041 
L 257.164885 -69.645466 
L 253.856585 -69.091283 
L 250.548284 -68.767397 
L 247.239984 -67.315139 
L 243.931684 -67.037943 
L 240.623383 -66.62237 
L 237.315083 -66.447376 
L 234.006782 -66.422412 
L 230.698482 -66.026988 
L 227.390182 -65.997859 
L 224.081881 -65.356381 
L 220.773581 -65.280976 
L 217.46528 -65.265269 
L 214.15698 -65.106081 
L 210.84868 -64.569297 
L 207.540379 -64.494971 
L 204.232079 -64.256837 
L 200.923778 -64.109122 
L 197.615478 -64.043954 
L 194.307178 -64.015271 
L 190.998877 -63.79309 
L 187.690577 -63.678819 
L 184.382276 -63.381473 
L 181.073976 -62.828098 
L 177.765676 -62.727259 
L 174.457375 -62.696694 
L 171.149075 -62.641182 
L 167.840774 -62.615736 
L 164.532474 -62.122245 
L 161.224174 -62.100001 
L 157.915873 -61.718288 
L 154.607573 -61.63173 
L 151.299272 -59.721419 
L 147.990972 -59.381894 
L 144.682672 -58.788984 
L 141.374371 -57.181211 
L 138.066071 -56.885809 
L 134.757771 -55.439211 
L 131.44947 -54.306221 
L 128.14117 -54.188415 
L 124.832869 -42.766218 
z
" id="mccc66707d4" style="stroke:#f14432;stroke-opacity:0.8;"/>
    </defs>
    <g clip-path="url(#p49702034a3)">
     <use style="fill:#f14432;fill-opacity:0.8;stroke:#f14432;stroke-opacity:0.8;" x="0" xlink:href="#mccc66707d4" y="355.992552"/>
    </g>
   </g>
   <g id="matplotlib.axis_1"/>
   <g id="matplotlib.axis_2">
    <g id="ytick_1">
     <g id="line2d_1">
      <defs>
       <path d="M 0 0 
L -3.5 0 
" id="m4a2a3bf430" style="stroke:#000000;stroke-width:0.8;"/>
      </defs>
      <g>
       <use style="stroke:#000000;stroke-width:0.8;" x="109.614687" xlink:href="#m4a2a3bf430" y="335.858959"/>
      </g>
     </g>
     <g id="text_1">
      <!-- −0.0025 -->
      <defs>
       <path d="M 10.59375 35.5 
L 73.1875 35.5 
L 73.1875 27.203125 
L 10.59375 27.203125 
z
" id="DejaVuSans-2212"/>
       <path d="M 31.78125 66.40625 
Q 24.171875 66.40625 20.328125 58.90625 
Q 16.5 51.421875 16.5 36.375 
Q 16.5 21.390625 20.328125 13.890625 
Q 24.171875 6.390625 31.78125 6.390625 
Q 39.453125 6.390625 43.28125 13.890625 
Q 47.125 21.390625 47.125 36.375 
Q 47.125 51.421875 43.28125 58.90625 
Q 39.453125 66.40625 31.78125 66.40625 
z
M 31.78125 74.21875 
Q 44.046875 74.21875 50.515625 64.515625 
Q 56.984375 54.828125 56.984375 36.375 
Q 56.984375 17.96875 50.515625 8.265625 
Q 44.046875 -1.421875 31.78125 -1.421875 
Q 19.53125 -1.421875 13.0625 8.265625 
Q 6.59375 17.96875 6.59375 36.375 
Q 6.59375 54.828125 13.0625 64.515625 
Q 19.53125 74.21875 31.78125 74.21875 
z
" id="DejaVuSans-30"/>
       <path d="M 10.6875 12.40625 
L 21 12.40625 
L 21 0 
L 10.6875 0 
z
" id="DejaVuSans-2e"/>
       <path d="M 19.1875 8.296875 
L 53.609375 8.296875 
L 53.609375 0 
L 7.328125 0 
L 7.328125 8.296875 
Q 12.9375 14.109375 22.625 23.890625 
Q 32.328125 33.6875 34.8125 36.53125 
Q 39.546875 41.84375 41.421875 45.53125 
Q 43.3125 49.21875 43.3125 52.78125 
Q 43.3125 58.59375 39.234375 62.25 
Q 35.15625 65.921875 28.609375 65.921875 
Q 23.96875 65.921875 18.8125 64.3125 
Q 13.671875 62.703125 7.8125 59.421875 
L 7.8125 69.390625 
Q 13.765625 71.78125 18.9375 73 
Q 24.125 74.21875 28.421875 74.21875 
Q 39.75 74.21875 46.484375 68.546875 
Q 53.21875 62.890625 53.21875 53.421875 
Q 53.21875 48.921875 51.53125 44.890625 
Q 49.859375 40.875 45.40625 35.40625 
Q 44.1875 33.984375 37.640625 27.21875 
Q 31.109375 20.453125 19.1875 8.296875 
z
" id="DejaVuSans-32"/>
       <path d="M 10.796875 72.90625 
L 49.515625 72.90625 
L 49.515625 64.59375 
L 19.828125 64.59375 
L 19.828125 46.734375 
Q 21.96875 47.46875 24.109375 47.828125 
Q 26.265625 48.1875 28.421875 48.1875 
Q 40.625 48.1875 47.75 41.5 
Q 54.890625 34.8125 54.890625 23.390625 
Q 54.890625 11.625 47.5625 5.09375 
Q 40.234375 -1.421875 26.90625 -1.421875 
Q 22.3125 -1.421875 17.546875 -0.640625 
Q 12.796875 0.140625 7.71875 1.703125 
L 7.71875 11.625 
Q 12.109375 9.234375 16.796875 8.0625 
Q 21.484375 6.890625 26.703125 6.890625 
Q 35.15625 6.890625 40.078125 11.328125 
Q 45.015625 15.765625 45.015625 23.390625 
Q 45.015625 31 40.078125 35.4375 
Q 35.15625 39.890625 26.703125 39.890625 
Q 22.75 39.890625 18.8125 39.015625 
Q 14.890625 38.140625 10.796875 36.28125 
z
" id="DejaVuSans-35"/>
      </defs>
      <g transform="translate(7.2 344.21724)scale(0.22 -0.22)">
       <use xlink:href="#DejaVuSans-2212"/>
       <use x="83.789062" xlink:href="#DejaVuSans-30"/>
       <use x="147.412109" xlink:href="#DejaVuSans-2e"/>
       <use x="179.199219" xlink:href="#DejaVuSans-30"/>
       <use x="242.822266" xlink:href="#DejaVuSans-30"/>
       <use x="306.445312" xlink:href="#DejaVuSans-32"/>
       <use x="370.068359" xlink:href="#DejaVuSans-35"/>
      </g>
     </g>
    </g>
    <g id="ytick_2">
     <g id="line2d_2">
      <g>
       <use style="stroke:#000000;stroke-width:0.8;" x="109.614687" xlink:href="#m4a2a3bf430" y="291.698474"/>
      </g>
     </g>
     <g id="text_2">
      <!-- 0.0000 -->
      <g transform="translate(25.635312 300.056756)scale(0.22 -0.22)">
       <use xlink:href="#DejaVuSans-30"/>
       <use x="63.623047" xlink:href="#DejaVuSans-2e"/>
       <use x="95.410156" xlink:href="#DejaVuSans-30"/>
       <use x="159.033203" xlink:href="#DejaVuSans-30"/>
       <use x="222.65625" xlink:href="#DejaVuSans-30"/>
       <use x="286.279297" xlink:href="#DejaVuSans-30"/>
      </g>
     </g>
    </g>
    <g id="ytick_3">
     <g id="line2d_3">
      <g>
       <use style="stroke:#000000;stroke-width:0.8;" x="109.614687" xlink:href="#m4a2a3bf430" y="247.53799"/>
      </g>
     </g>
     <g id="text_3">
      <!-- 0.0025 -->
      <g transform="translate(25.635312 255.896272)scale(0.22 -0.22)">
       <use xlink:href="#DejaVuSans-30"/>
       <use x="63.623047" xlink:href="#DejaVuSans-2e"/>
       <use x="95.410156" xlink:href="#DejaVuSans-30"/>
       <use x="159.033203" xlink:href="#DejaVuSans-30"/>
       <use x="222.65625" xlink:href="#DejaVuSans-32"/>
       <use x="286.279297" xlink:href="#DejaVuSans-35"/>
      </g>
     </g>
    </g>
    <g id="ytick_4">
     <g id="line2d_4">
      <g>
       <use style="stroke:#000000;stroke-width:0.8;" x="109.614687" xlink:href="#m4a2a3bf430" y="203.377506"/>
      </g>
     </g>
     <g id="text_4">
      <!-- 0.0050 -->
      <g transform="translate(25.635312 211.735787)scale(0.22 -0.22)">
       <use xlink:href="#DejaVuSans-30"/>
       <use x="63.623047" xlink:href="#DejaVuSans-2e"/>
       <use x="95.410156" xlink:href="#DejaVuSans-30"/>
       <use x="159.033203" xlink:href="#DejaVuSans-30"/>
       <use x="222.65625" xlink:href="#DejaVuSans-35"/>
       <use x="286.279297" xlink:href="#DejaVuSans-30"/>
      </g>
     </g>
    </g>
    <g id="ytick_5">
     <g id="line2d_5">
      <g>
       <use style="stroke:#000000;stroke-width:0.8;" x="109.614687" xlink:href="#m4a2a3bf430" y="159.217022"/>
      </g>
     </g>
     <g id="text_5">
      <!-- 0.0075 -->
      <defs>
       <path d="M 8.203125 72.90625 
L 55.078125 72.90625 
L 55.078125 68.703125 
L 28.609375 0 
L 18.3125 0 
L 43.21875 64.59375 
L 8.203125 64.59375 
z
" id="DejaVuSans-37"/>
      </defs>
      <g transform="translate(25.635312 167.575303)scale(0.22 -0.22)">
       <use xlink:href="#DejaVuSans-30"/>
       <use x="63.623047" xlink:href="#DejaVuSans-2e"/>
       <use x="95.410156" xlink:href="#DejaVuSans-30"/>
       <use x="159.033203" xlink:href="#DejaVuSans-30"/>
       <use x="222.65625" xlink:href="#DejaVuSans-37"/>
       <use x="286.279297" xlink:href="#DejaVuSans-35"/>
      </g>
     </g>
    </g>
    <g id="ytick_6">
     <g id="line2d_6">
      <g>
       <use style="stroke:#000000;stroke-width:0.8;" x="109.614687" xlink:href="#m4a2a3bf430" y="115.056538"/>
      </g>
     </g>
     <g id="text_6">
      <!-- 0.0100 -->
      <defs>
       <path d="M 12.40625 8.296875 
L 28.515625 8.296875 
L 28.515625 63.921875 
L 10.984375 60.40625 
L 10.984375 69.390625 
L 28.421875 72.90625 
L 38.28125 72.90625 
L 38.28125 8.296875 
L 54.390625 8.296875 
L 54.390625 0 
L 12.40625 0 
z
" id="DejaVuSans-31"/>
      </defs>
      <g transform="translate(25.635312 123.414819)scale(0.22 -0.22)">
       <use xlink:href="#DejaVuSans-30"/>
       <use x="63.623047" xlink:href="#DejaVuSans-2e"/>
       <use x="95.410156" xlink:href="#DejaVuSans-30"/>
       <use x="159.033203" xlink:href="#DejaVuSans-31"/>
       <use x="222.65625" xlink:href="#DejaVuSans-30"/>
       <use x="286.279297" xlink:href="#DejaVuSans-30"/>
      </g>
     </g>
    </g>
    <g id="ytick_7">
     <g id="line2d_7">
      <g>
       <use style="stroke:#000000;stroke-width:0.8;" x="109.614687" xlink:href="#m4a2a3bf430" y="70.896053"/>
      </g>
     </g>
     <g id="text_7">
      <!-- 0.0125 -->
      <g transform="translate(25.635312 79.254335)scale(0.22 -0.22)">
       <use xlink:href="#DejaVuSans-30"/>
       <use x="63.623047" xlink:href="#DejaVuSans-2e"/>
       <use x="95.410156" xlink:href="#DejaVuSans-30"/>
       <use x="159.033203" xlink:href="#DejaVuSans-31"/>
       <use x="222.65625" xlink:href="#DejaVuSans-32"/>
       <use x="286.279297" xlink:href="#DejaVuSans-35"/>
      </g>
     </g>
    </g>
    <g id="ytick_8">
     <g id="line2d_8">
      <g>
       <use style="stroke:#000000;stroke-width:0.8;" x="109.614687" xlink:href="#m4a2a3bf430" y="26.735569"/>
      </g>
     </g>
     <g id="text_8">
      <!-- 0.0150 -->
      <g transform="translate(25.635312 35.093851)scale(0.22 -0.22)">
       <use xlink:href="#DejaVuSans-30"/>
       <use x="63.623047" xlink:href="#DejaVuSans-2e"/>
       <use x="95.410156" xlink:href="#DejaVuSans-30"/>
       <use x="159.033203" xlink:href="#DejaVuSans-31"/>
       <use x="222.65625" xlink:href="#DejaVuSans-35"/>
       <use x="286.279297" xlink:href="#DejaVuSans-30"/>
      </g>
     </g>
    </g>
   </g>
   <g id="patch_3">
    <path d="M 109.614687 343.34 
L 109.614687 10.7 
" style="fill:none;stroke:#000000;stroke-linecap:square;stroke-linejoin:miter;stroke-width:0.8;"/>
   </g>
   <g id="patch_4">
    <path d="M 444.414688 343.34 
L 444.414688 10.7 
" style="fill:none;stroke:#000000;stroke-linecap:square;stroke-linejoin:miter;stroke-width:0.8;"/>
   </g>
   <g id="patch_5">
    <path d="M 109.614687 343.34 
L 444.414688 343.34 
" style="fill:none;stroke:#000000;stroke-linecap:square;stroke-linejoin:miter;stroke-width:0.8;"/>
   </g>
   <g id="patch_6">
    <path d="M 109.614687 10.7 
L 444.414688 10.7 
" style="fill:none;stroke:#000000;stroke-linecap:square;stroke-linejoin:miter;stroke-width:0.8;"/>
   </g>
  </g>
 </g>
 <defs>
  <clipPath id="p49702034a3">
   <rect height="332.64" width="334.8" x="109.614687" y="10.7"/>
  </clipPath>
 </defs>
</svg>
