<?xml version="1.0" encoding="utf-8" standalone="no"?>
<!DOCTYPE svg PUBLIC "-//W3C//DTD SVG 1.1//EN"
  "http://www.w3.org/Graphics/SVG/1.1/DTD/svg11.dtd">
<!-- Created with matplotlib (http://matplotlib.org/) -->
<svg height="360pt" version="1.1" viewBox="0 0 455 360" width="455pt" xmlns="http://www.w3.org/2000/svg" xmlns:xlink="http://www.w3.org/1999/xlink">
 <defs>
  <style type="text/css">
*{stroke-linecap:butt;stroke-linejoin:round;}
  </style>
 </defs>
 <g id="figure_1">
  <g id="patch_1">
   <path d="M 0 360.688974 
L 455.114687 360.688974 
L 455.114687 0 
L 0 0 
z
" style="fill:#ffffff;"/>
  </g>
  <g id="axes_1">
   <g id="patch_2">
    <path d="M 109.614687 343.34 
L 444.414688 343.34 
L 444.414688 10.7 
L 109.614687 10.7 
z
" style="fill:#ffffff;"/>
   </g>
   <g id="PolyCollection_1">
    <defs>
     <path d="M 124.832869 -32.468974 
L 124.832869 -145.40774 
L 128.14117 -145.40774 
L 131.44947 -145.40774 
L 134.757771 -145.40774 
L 138.066071 -145.40774 
L 141.374371 -145.40774 
L 144.682672 -145.40774 
L 147.990972 -145.40774 
L 151.299272 -145.40774 
L 154.607573 -145.40774 
L 157.915873 -145.40774 
L 161.224174 -145.40774 
L 164.532474 -145.40774 
L 167.840774 -145.40774 
L 171.149075 -145.40774 
L 174.457375 -145.40774 
L 177.765676 -145.40774 
L 181.073976 -145.40774 
L 184.382276 -145.40774 
L 187.690577 -145.40774 
L 190.998877 -145.40774 
L 194.307178 -145.40774 
L 197.615478 -145.40774 
L 200.923778 -145.40774 
L 204.232079 -145.40774 
L 207.540379 -145.40774 
L 210.84868 -145.40774 
L 214.15698 -145.40774 
L 217.46528 -145.40774 
L 220.773581 -145.40774 
L 224.081881 -145.40774 
L 227.390182 -145.40774 
L 230.698482 -145.40774 
L 234.006782 -145.40774 
L 237.315083 -145.40774 
L 240.623383 -145.40774 
L 243.931684 -145.40774 
L 247.239984 -145.40774 
L 250.548284 -145.40774 
L 253.856585 -145.40774 
L 257.164885 -145.40774 
L 260.473186 -145.40774 
L 263.781486 -145.40774 
L 267.089786 -145.40774 
L 270.398087 -145.40774 
L 273.706387 -145.40774 
L 277.014688 -145.40774 
L 280.322988 -145.40774 
L 283.631288 -145.40774 
L 286.939589 -145.40774 
L 290.247889 -145.40774 
L 293.556189 -145.40774 
L 296.86449 -145.40774 
L 300.17279 -145.40774 
L 303.481091 -145.40774 
L 306.789391 -145.40774 
L 310.097691 -145.40774 
L 313.405992 -145.40774 
L 316.714292 -145.40774 
L 320.022593 -145.40774 
L 323.330893 -145.40774 
L 326.639193 -145.40774 
L 329.947494 -145.40774 
L 333.255794 -145.40774 
L 336.564095 -145.40774 
L 339.872395 -145.40774 
L 343.180695 -145.40774 
L 346.488996 -145.40774 
L 349.797296 -145.40774 
L 353.105597 -145.40774 
L 356.413897 -145.40774 
L 359.722197 -145.40774 
L 363.030498 -145.40774 
L 366.338798 -145.40774 
L 369.647099 -145.40774 
L 372.955399 -145.40774 
L 376.263699 -145.40774 
L 379.572 -145.40774 
L 382.8803 -145.40774 
L 386.188601 -145.40774 
L 389.496901 -145.40774 
L 392.805201 -145.40774 
L 396.113502 -145.40774 
L 399.421802 -145.40774 
L 402.730103 -145.40774 
L 406.038403 -145.40774 
L 409.346703 -145.40774 
L 412.655004 -145.40774 
L 415.963304 -145.40774 
L 419.271604 -145.40774 
L 422.579905 -145.40774 
L 425.888205 -145.40774 
L 429.196506 -145.40774 
L 429.196506 -334.868974 
L 429.196506 -334.868974 
L 425.888205 -296.076549 
L 422.579905 -255.553866 
L 419.271604 -251.654357 
L 415.963304 -250.362793 
L 412.655004 -239.326891 
L 409.346703 -229.774528 
L 406.038403 -223.123116 
L 402.730103 -219.323872 
L 399.421802 -217.586928 
L 396.113502 -215.495613 
L 392.805201 -212.530108 
L 389.496901 -204.610372 
L 386.188601 -198.531842 
L 382.8803 -197.291257 
L 379.572 -190.256738 
L 376.263699 -172.023238 
L 372.955399 -170.59741 
L 369.647099 -168.073503 
L 366.338798 -167.60139 
L 363.030498 -167.23946 
L 359.722197 -165.945956 
L 356.413897 -164.078569 
L 353.105597 -162.260764 
L 349.797296 -162.211201 
L 346.488996 -161.895975 
L 343.180695 -161.734264 
L 339.872395 -160.010726 
L 336.564095 -158.968738 
L 333.255794 -158.649489 
L 329.947494 -158.024414 
L 326.639193 -157.361138 
L 323.330893 -156.600792 
L 320.022593 -155.245931 
L 316.714292 -154.850851 
L 313.405992 -153.210469 
L 310.097691 -152.229765 
L 306.789391 -151.548754 
L 303.481091 -150.262011 
L 300.17279 -149.842851 
L 296.86449 -149.404771 
L 293.556189 -148.286956 
L 290.247889 -148.066878 
L 286.939589 -147.734305 
L 283.631288 -147.473084 
L 280.322988 -147.122571 
L 277.014688 -146.607272 
L 273.706387 -146.527549 
L 270.398087 -146.432298 
L 267.089786 -146.390037 
L 263.781486 -146.34789 
L 260.473186 -145.864956 
L 257.164885 -145.484454 
L 253.856585 -145.40855 
L 250.548284 -145.128865 
L 247.239984 -144.88432 
L 243.931684 -144.842332 
L 240.623383 -144.537518 
L 237.315083 -143.753908 
L 234.006782 -143.572135 
L 230.698482 -143.278581 
L 227.390182 -142.712169 
L 224.081881 -142.438775 
L 220.773581 -141.782548 
L 217.46528 -141.603346 
L 214.15698 -141.49783 
L 210.84868 -141.181667 
L 207.540379 -139.943144 
L 204.232079 -139.751423 
L 200.923778 -138.649317 
L 197.615478 -137.747733 
L 194.307178 -136.016353 
L 190.998877 -133.799428 
L 187.690577 -132.062226 
L 184.382276 -131.763213 
L 181.073976 -131.734822 
L 177.765676 -129.866492 
L 174.457375 -127.427546 
L 171.149075 -125.163426 
L 167.840774 -120.881719 
L 164.532474 -119.162235 
L 161.224174 -118.316628 
L 157.915873 -115.833176 
L 154.607573 -115.090703 
L 151.299272 -113.448143 
L 147.990972 -111.087741 
L 144.682672 -109.197941 
L 141.374371 -109.174467 
L 138.066071 -101.990795 
L 134.757771 -95.382451 
L 131.44947 -76.66367 
L 128.14117 -48.521868 
L 124.832869 -32.468974 
z
" id="mff2125e9ad" style="stroke:#4a98c9;"/>
    </defs>
    <g clip-path="url(#p511ed23067)">
     <use style="fill:#4a98c9;stroke:#4a98c9;" x="0" xlink:href="#mff2125e9ad" y="360.688974"/>
    </g>
   </g>
   <g id="PolyCollection_2">
    <defs>
     <path d="M 124.832869 -32.468974 
L 124.832869 -145.40774 
L 128.14117 -145.40774 
L 131.44947 -145.40774 
L 134.757771 -145.40774 
L 138.066071 -145.40774 
L 141.374371 -145.40774 
L 144.682672 -145.40774 
L 147.990972 -145.40774 
L 151.299272 -145.40774 
L 154.607573 -145.40774 
L 157.915873 -145.40774 
L 161.224174 -145.40774 
L 164.532474 -145.40774 
L 167.840774 -145.40774 
L 171.149075 -145.40774 
L 174.457375 -145.40774 
L 177.765676 -145.40774 
L 181.073976 -145.40774 
L 184.382276 -145.40774 
L 187.690577 -145.40774 
L 190.998877 -145.40774 
L 194.307178 -145.40774 
L 197.615478 -145.40774 
L 200.923778 -145.40774 
L 204.232079 -145.40774 
L 207.540379 -145.40774 
L 210.84868 -145.40774 
L 214.15698 -145.40774 
L 217.46528 -145.40774 
L 220.773581 -145.40774 
L 224.081881 -145.40774 
L 227.390182 -145.40774 
L 230.698482 -145.40774 
L 234.006782 -145.40774 
L 237.315083 -145.40774 
L 240.623383 -145.40774 
L 243.931684 -145.40774 
L 247.239984 -145.40774 
L 250.548284 -145.40774 
L 253.856585 -145.40774 
L 257.164885 -145.40774 
L 260.473186 -145.40774 
L 263.781486 -145.40774 
L 267.089786 -145.40774 
L 270.398087 -145.40774 
L 273.706387 -145.40774 
L 277.014688 -145.40774 
L 280.322988 -145.40774 
L 283.631288 -145.40774 
L 286.939589 -145.40774 
L 290.247889 -145.40774 
L 293.556189 -145.40774 
L 296.86449 -145.40774 
L 300.17279 -145.40774 
L 303.481091 -145.40774 
L 306.789391 -145.40774 
L 310.097691 -145.40774 
L 313.405992 -145.40774 
L 316.714292 -145.40774 
L 320.022593 -145.40774 
L 323.330893 -145.40774 
L 326.639193 -145.40774 
L 329.947494 -145.40774 
L 333.255794 -145.40774 
L 336.564095 -145.40774 
L 339.872395 -145.40774 
L 343.180695 -145.40774 
L 346.488996 -145.40774 
L 349.797296 -145.40774 
L 353.105597 -145.40774 
L 356.413897 -145.40774 
L 359.722197 -145.40774 
L 363.030498 -145.40774 
L 366.338798 -145.40774 
L 369.647099 -145.40774 
L 372.955399 -145.40774 
L 376.263699 -145.40774 
L 379.572 -145.40774 
L 382.8803 -145.40774 
L 386.188601 -145.40774 
L 389.496901 -145.40774 
L 392.805201 -145.40774 
L 396.113502 -145.40774 
L 399.421802 -145.40774 
L 402.730103 -145.40774 
L 406.038403 -145.40774 
L 409.346703 -145.40774 
L 412.655004 -145.40774 
L 415.963304 -145.40774 
L 419.271604 -145.40774 
L 422.579905 -145.40774 
L 425.888205 -145.40774 
L 429.196506 -145.40774 
L 429.196506 -334.868974 
L 429.196506 -334.868974 
L 425.888205 -296.076549 
L 422.579905 -255.553866 
L 419.271604 -251.654357 
L 415.963304 -250.362793 
L 412.655004 -239.326891 
L 409.346703 -229.774528 
L 406.038403 -223.123116 
L 402.730103 -219.323872 
L 399.421802 -217.586928 
L 396.113502 -215.495613 
L 392.805201 -212.530108 
L 389.496901 -204.610372 
L 386.188601 -198.531842 
L 382.8803 -197.291257 
L 379.572 -190.256738 
L 376.263699 -172.023238 
L 372.955399 -170.59741 
L 369.647099 -168.073503 
L 366.338798 -167.60139 
L 363.030498 -167.23946 
L 359.722197 -165.945956 
L 356.413897 -164.078569 
L 353.105597 -162.260764 
L 349.797296 -162.211201 
L 346.488996 -161.895975 
L 343.180695 -161.734264 
L 339.872395 -160.010726 
L 336.564095 -158.968738 
L 333.255794 -158.649489 
L 329.947494 -158.024414 
L 326.639193 -157.361138 
L 323.330893 -156.600792 
L 320.022593 -155.245931 
L 316.714292 -154.850851 
L 313.405992 -153.210469 
L 310.097691 -152.229765 
L 306.789391 -151.548754 
L 303.481091 -150.262011 
L 300.17279 -149.842851 
L 296.86449 -149.404771 
L 293.556189 -148.286956 
L 290.247889 -148.066878 
L 286.939589 -147.734305 
L 283.631288 -147.473084 
L 280.322988 -147.122571 
L 277.014688 -146.607272 
L 273.706387 -146.527549 
L 270.398087 -146.432298 
L 267.089786 -146.390037 
L 263.781486 -146.34789 
L 260.473186 -145.864956 
L 257.164885 -145.484454 
L 253.856585 -145.40855 
L 250.548284 -145.128865 
L 247.239984 -144.88432 
L 243.931684 -144.842332 
L 240.623383 -144.537518 
L 237.315083 -143.753908 
L 234.006782 -143.572135 
L 230.698482 -143.278581 
L 227.390182 -142.712169 
L 224.081881 -142.438775 
L 220.773581 -141.782548 
L 217.46528 -141.603346 
L 214.15698 -141.49783 
L 210.84868 -141.181667 
L 207.540379 -139.943144 
L 204.232079 -139.751423 
L 200.923778 -138.649317 
L 197.615478 -137.747733 
L 194.307178 -136.016353 
L 190.998877 -133.799428 
L 187.690577 -132.062226 
L 184.382276 -131.763213 
L 181.073976 -131.734822 
L 177.765676 -129.866492 
L 174.457375 -127.427546 
L 171.149075 -125.163426 
L 167.840774 -120.881719 
L 164.532474 -119.162235 
L 161.224174 -118.316628 
L 157.915873 -115.833176 
L 154.607573 -115.090703 
L 151.299272 -113.448143 
L 147.990972 -111.087741 
L 144.682672 -109.197941 
L 141.374371 -109.174467 
L 138.066071 -101.990795 
L 134.757771 -95.382451 
L 131.44947 -76.66367 
L 128.14117 -48.521868 
L 124.832869 -32.468974 
z
" id="m4484601078" style="stroke:#f14432;stroke-opacity:0.8;"/>
    </defs>
    <g clip-path="url(#p511ed23067)">
     <use style="fill:#f14432;fill-opacity:0.8;stroke:#f14432;stroke-opacity:0.8;" x="0" xlink:href="#m4484601078" y="360.688974"/>
    </g>
   </g>
   <g id="matplotlib.axis_1"/>
   <g id="matplotlib.axis_2">
    <g id="ytick_1">
     <g id="line2d_1">
      <defs>
       <path d="M 0 0 
L -3.5 0 
" id="m3d274f6b69" style="stroke:#000000;stroke-width:0.8;"/>
      </defs>
      <g>
       <use style="stroke:#000000;stroke-width:0.8;" x="109.614687" xlink:href="#m3d274f6b69" y="340.55538"/>
      </g>
     </g>
     <g id="text_1">
      <!-- −0.0010 -->
      <defs>
       <path d="M 10.59375 35.5 
L 73.1875 35.5 
L 73.1875 27.203125 
L 10.59375 27.203125 
z
" id="DejaVuSans-2212"/>
       <path d="M 31.78125 66.40625 
Q 24.171875 66.40625 20.328125 58.90625 
Q 16.5 51.421875 16.5 36.375 
Q 16.5 21.390625 20.328125 13.890625 
Q 24.171875 6.390625 31.78125 6.390625 
Q 39.453125 6.390625 43.28125 13.890625 
Q 47.125 21.390625 47.125 36.375 
Q 47.125 51.421875 43.28125 58.90625 
Q 39.453125 66.40625 31.78125 66.40625 
z
M 31.78125 74.21875 
Q 44.046875 74.21875 50.515625 64.515625 
Q 56.984375 54.828125 56.984375 36.375 
Q 56.984375 17.96875 50.515625 8.265625 
Q 44.046875 -1.421875 31.78125 -1.421875 
Q 19.53125 -1.421875 13.0625 8.265625 
Q 6.59375 17.96875 6.59375 36.375 
Q 6.59375 54.828125 13.0625 64.515625 
Q 19.53125 74.21875 31.78125 74.21875 
z
" id="DejaVuSans-30"/>
       <path d="M 10.6875 12.40625 
L 21 12.40625 
L 21 0 
L 10.6875 0 
z
" id="DejaVuSans-2e"/>
       <path d="M 12.40625 8.296875 
L 28.515625 8.296875 
L 28.515625 63.921875 
L 10.984375 60.40625 
L 10.984375 69.390625 
L 28.421875 72.90625 
L 38.28125 72.90625 
L 38.28125 8.296875 
L 54.390625 8.296875 
L 54.390625 0 
L 12.40625 0 
z
" id="DejaVuSans-31"/>
      </defs>
      <g transform="translate(7.2 348.913662)scale(0.22 -0.22)">
       <use xlink:href="#DejaVuSans-2212"/>
       <use x="83.789062" xlink:href="#DejaVuSans-30"/>
       <use x="147.412109" xlink:href="#DejaVuSans-2e"/>
       <use x="179.199219" xlink:href="#DejaVuSans-30"/>
       <use x="242.822266" xlink:href="#DejaVuSans-30"/>
       <use x="306.445312" xlink:href="#DejaVuSans-31"/>
       <use x="370.068359" xlink:href="#DejaVuSans-30"/>
      </g>
     </g>
    </g>
    <g id="ytick_2">
     <g id="line2d_2">
      <g>
       <use style="stroke:#000000;stroke-width:0.8;" x="109.614687" xlink:href="#m3d274f6b69" y="277.918307"/>
      </g>
     </g>
     <g id="text_2">
      <!-- −0.0005 -->
      <defs>
       <path d="M 10.796875 72.90625 
L 49.515625 72.90625 
L 49.515625 64.59375 
L 19.828125 64.59375 
L 19.828125 46.734375 
Q 21.96875 47.46875 24.109375 47.828125 
Q 26.265625 48.1875 28.421875 48.1875 
Q 40.625 48.1875 47.75 41.5 
Q 54.890625 34.8125 54.890625 23.390625 
Q 54.890625 11.625 47.5625 5.09375 
Q 40.234375 -1.421875 26.90625 -1.421875 
Q 22.3125 -1.421875 17.546875 -0.640625 
Q 12.796875 0.140625 7.71875 1.703125 
L 7.71875 11.625 
Q 12.109375 9.234375 16.796875 8.0625 
Q 21.484375 6.890625 26.703125 6.890625 
Q 35.15625 6.890625 40.078125 11.328125 
Q 45.015625 15.765625 45.015625 23.390625 
Q 45.015625 31 40.078125 35.4375 
Q 35.15625 39.890625 26.703125 39.890625 
Q 22.75 39.890625 18.8125 39.015625 
Q 14.890625 38.140625 10.796875 36.28125 
z
" id="DejaVuSans-35"/>
      </defs>
      <g transform="translate(7.2 286.276589)scale(0.22 -0.22)">
       <use xlink:href="#DejaVuSans-2212"/>
       <use x="83.789062" xlink:href="#DejaVuSans-30"/>
       <use x="147.412109" xlink:href="#DejaVuSans-2e"/>
       <use x="179.199219" xlink:href="#DejaVuSans-30"/>
       <use x="242.822266" xlink:href="#DejaVuSans-30"/>
       <use x="306.445312" xlink:href="#DejaVuSans-30"/>
       <use x="370.068359" xlink:href="#DejaVuSans-35"/>
      </g>
     </g>
    </g>
    <g id="ytick_3">
     <g id="line2d_3">
      <g>
       <use style="stroke:#000000;stroke-width:0.8;" x="109.614687" xlink:href="#m3d274f6b69" y="215.281234"/>
      </g>
     </g>
     <g id="text_3">
      <!-- 0.0000 -->
      <g transform="translate(25.635312 223.639516)scale(0.22 -0.22)">
       <use xlink:href="#DejaVuSans-30"/>
       <use x="63.623047" xlink:href="#DejaVuSans-2e"/>
       <use x="95.410156" xlink:href="#DejaVuSans-30"/>
       <use x="159.033203" xlink:href="#DejaVuSans-30"/>
       <use x="222.65625" xlink:href="#DejaVuSans-30"/>
       <use x="286.279297" xlink:href="#DejaVuSans-30"/>
      </g>
     </g>
    </g>
    <g id="ytick_4">
     <g id="line2d_4">
      <g>
       <use style="stroke:#000000;stroke-width:0.8;" x="109.614687" xlink:href="#m3d274f6b69" y="152.644161"/>
      </g>
     </g>
     <g id="text_4">
      <!-- 0.0005 -->
      <g transform="translate(25.635312 161.002443)scale(0.22 -0.22)">
       <use xlink:href="#DejaVuSans-30"/>
       <use x="63.623047" xlink:href="#DejaVuSans-2e"/>
       <use x="95.410156" xlink:href="#DejaVuSans-30"/>
       <use x="159.033203" xlink:href="#DejaVuSans-30"/>
       <use x="222.65625" xlink:href="#DejaVuSans-30"/>
       <use x="286.279297" xlink:href="#DejaVuSans-35"/>
      </g>
     </g>
    </g>
    <g id="ytick_5">
     <g id="line2d_5">
      <g>
       <use style="stroke:#000000;stroke-width:0.8;" x="109.614687" xlink:href="#m3d274f6b69" y="90.007088"/>
      </g>
     </g>
     <g id="text_5">
      <!-- 0.0010 -->
      <g transform="translate(25.635312 98.36537)scale(0.22 -0.22)">
       <use xlink:href="#DejaVuSans-30"/>
       <use x="63.623047" xlink:href="#DejaVuSans-2e"/>
       <use x="95.410156" xlink:href="#DejaVuSans-30"/>
       <use x="159.033203" xlink:href="#DejaVuSans-30"/>
       <use x="222.65625" xlink:href="#DejaVuSans-31"/>
       <use x="286.279297" xlink:href="#DejaVuSans-30"/>
      </g>
     </g>
    </g>
    <g id="ytick_6">
     <g id="line2d_6">
      <g>
       <use style="stroke:#000000;stroke-width:0.8;" x="109.614687" xlink:href="#m3d274f6b69" y="27.370015"/>
      </g>
     </g>
     <g id="text_6">
      <!-- 0.0015 -->
      <g transform="translate(25.635312 35.728296)scale(0.22 -0.22)">
       <use xlink:href="#DejaVuSans-30"/>
       <use x="63.623047" xlink:href="#DejaVuSans-2e"/>
       <use x="95.410156" xlink:href="#DejaVuSans-30"/>
       <use x="159.033203" xlink:href="#DejaVuSans-30"/>
       <use x="222.65625" xlink:href="#DejaVuSans-31"/>
       <use x="286.279297" xlink:href="#DejaVuSans-35"/>
      </g>
     </g>
    </g>
   </g>
   <g id="patch_3">
    <path d="M 109.614687 343.34 
L 109.614687 10.7 
" style="fill:none;stroke:#000000;stroke-linecap:square;stroke-linejoin:miter;stroke-width:0.8;"/>
   </g>
   <g id="patch_4">
    <path d="M 444.414688 343.34 
L 444.414688 10.7 
" style="fill:none;stroke:#000000;stroke-linecap:square;stroke-linejoin:miter;stroke-width:0.8;"/>
   </g>
   <g id="patch_5">
    <path d="M 109.614687 343.34 
L 444.414688 343.34 
" style="fill:none;stroke:#000000;stroke-linecap:square;stroke-linejoin:miter;stroke-width:0.8;"/>
   </g>
   <g id="patch_6">
    <path d="M 109.614687 10.7 
L 444.414688 10.7 
" style="fill:none;stroke:#000000;stroke-linecap:square;stroke-linejoin:miter;stroke-width:0.8;"/>
   </g>
  </g>
 </g>
 <defs>
  <clipPath id="p511ed23067">
   <rect height="332.64" width="334.8" x="109.614687" y="10.7"/>
  </clipPath>
 </defs>
</svg>
