<?xml version="1.0" encoding="utf-8" standalone="no"?>
<!DOCTYPE svg PUBLIC "-//W3C//DTD SVG 1.1//EN"
  "http://www.w3.org/Graphics/SVG/1.1/DTD/svg11.dtd">
<!-- Created with matplotlib (http://matplotlib.org/) -->
<svg height="355pt" version="1.1" viewBox="0 0 406 355" width="406pt" xmlns="http://www.w3.org/2000/svg" xmlns:xlink="http://www.w3.org/1999/xlink">
 <defs>
  <style type="text/css">
*{stroke-linecap:butt;stroke-linejoin:round;}
  </style>
 </defs>
 <g id="figure_1">
  <g id="patch_1">
   <path d="M 0 355.310676 
L 406.130312 355.310676 
L 406.130312 0 
L 0 0 
z
" style="fill:#ffffff;"/>
  </g>
  <g id="axes_1">
   <g id="patch_2">
    <path d="M 60.630313 343.34 
L 395.430313 343.34 
L 395.430313 10.7 
L 60.630313 10.7 
z
" style="fill:#ffffff;"/>
   </g>
   <g id="PolyCollection_1">
    <defs>
     <path d="M 75.848494 -118.620057 
L 75.848494 -129.703074 
L 79.156795 -129.703074 
L 82.465095 -129.703074 
L 85.773396 -129.703074 
L 89.081696 -129.703074 
L 92.389996 -129.703074 
L 95.698297 -129.703074 
L 99.006597 -129.703074 
L 102.314897 -129.703074 
L 105.623198 -129.703074 
L 108.931498 -129.703074 
L 112.239799 -129.703074 
L 115.548099 -129.703074 
L 118.856399 -129.703074 
L 122.1647 -129.703074 
L 125.473 -129.703074 
L 128.781301 -129.703074 
L 132.089601 -129.703074 
L 135.397901 -129.703074 
L 138.706202 -129.703074 
L 142.014502 -129.703074 
L 145.322803 -129.703074 
L 148.631103 -129.703074 
L 151.939403 -129.703074 
L 155.247704 -129.703074 
L 158.556004 -129.703074 
L 161.864305 -129.703074 
L 165.172605 -129.703074 
L 168.480905 -129.703074 
L 171.789206 -129.703074 
L 175.097506 -129.703074 
L 178.405807 -129.703074 
L 181.714107 -129.703074 
L 185.022407 -129.703074 
L 188.330708 -129.703074 
L 191.639008 -129.703074 
L 194.947309 -129.703074 
L 198.255609 -129.703074 
L 201.563909 -129.703074 
L 204.87221 -129.703074 
L 208.18051 -129.703074 
L 211.488811 -129.703074 
L 214.797111 -129.703074 
L 218.105411 -129.703074 
L 221.413712 -129.703074 
L 224.722012 -129.703074 
L 228.030313 -129.703074 
L 231.338613 -129.703074 
L 234.646913 -129.703074 
L 237.955214 -129.703074 
L 241.263514 -129.703074 
L 244.571814 -129.703074 
L 247.880115 -129.703074 
L 251.188415 -129.703074 
L 254.496716 -129.703074 
L 257.805016 -129.703074 
L 261.113316 -129.703074 
L 264.421617 -129.703074 
L 267.729917 -129.703074 
L 271.038218 -129.703074 
L 274.346518 -129.703074 
L 277.654818 -129.703074 
L 280.963119 -129.703074 
L 284.271419 -129.703074 
L 287.57972 -129.703074 
L 290.88802 -129.703074 
L 294.19632 -129.703074 
L 297.504621 -129.703074 
L 300.812921 -129.703074 
L 304.121222 -129.703074 
L 307.429522 -129.703074 
L 310.737822 -129.703074 
L 314.046123 -129.703074 
L 317.354423 -129.703074 
L 320.662724 -129.703074 
L 323.971024 -129.703074 
L 327.279324 -129.703074 
L 330.587625 -129.703074 
L 333.895925 -129.703074 
L 337.204226 -129.703074 
L 340.512526 -129.703074 
L 343.820826 -129.703074 
L 347.129127 -129.703074 
L 350.437427 -129.703074 
L 353.745728 -129.703074 
L 357.054028 -129.703074 
L 360.362328 -129.703074 
L 363.670629 -129.703074 
L 366.978929 -129.703074 
L 370.287229 -129.703074 
L 373.59553 -129.703074 
L 376.90383 -129.703074 
L 380.212131 -129.703074 
L 380.212131 -147.381009 
L 380.212131 -147.381009 
L 376.90383 -147.155449 
L 373.59553 -144.041 
L 370.287229 -142.441108 
L 366.978929 -141.706152 
L 363.670629 -140.221036 
L 360.362328 -136.753579 
L 357.054028 -135.187792 
L 353.745728 -133.995191 
L 350.437427 -133.770964 
L 347.129127 -133.578755 
L 343.820826 -133.244722 
L 340.512526 -133.208404 
L 337.204226 -132.996993 
L 333.895925 -132.48928 
L 330.587625 -131.758596 
L 327.279324 -131.177934 
L 323.971024 -130.843981 
L 320.662724 -130.617788 
L 317.354423 -130.540958 
L 314.046123 -130.384326 
L 310.737822 -130.258818 
L 307.429522 -130.226958 
L 304.121222 -130.225121 
L 300.812921 -130.185026 
L 297.504621 -129.971803 
L 294.19632 -129.941525 
L 290.88802 -129.901499 
L 287.57972 -129.806484 
L 284.271419 -129.78816 
L 280.963119 -129.770731 
L 277.654818 -129.737748 
L 274.346518 -129.735083 
L 271.038218 -129.730409 
L 267.729917 -129.723029 
L 264.421617 -129.721862 
L 261.113316 -129.720919 
L 257.805016 -129.720041 
L 254.496716 -129.719594 
L 251.188415 -129.719163 
L 247.880115 -129.718649 
L 244.571814 -129.715553 
L 241.263514 -129.714827 
L 237.955214 -129.713222 
L 234.646913 -129.71221 
L 231.338613 -129.709205 
L 228.030313 -129.708802 
L 224.722012 -129.705198 
L 221.413712 -129.704852 
L 218.105411 -129.704147 
L 214.797111 -129.702262 
L 211.488811 -129.702045 
L 208.18051 -129.701673 
L 204.87221 -129.699989 
L 201.563909 -129.699986 
L 198.255609 -129.698179 
L 194.947309 -129.691452 
L 191.639008 -129.691387 
L 188.330708 -129.686558 
L 185.022407 -129.684495 
L 181.714107 -129.684346 
L 178.405807 -129.683318 
L 175.097506 -129.682782 
L 171.789206 -129.682154 
L 168.480905 -129.677364 
L 165.172605 -129.662679 
L 161.864305 -129.658685 
L 158.556004 -129.656425 
L 155.247704 -129.651087 
L 151.939403 -129.637192 
L 148.631103 -129.632011 
L 145.322803 -129.624453 
L 142.014502 -129.574505 
L 138.706202 -129.362519 
L 135.397901 -129.260412 
L 132.089601 -128.936779 
L 128.781301 -128.075177 
L 125.473 -128.028248 
L 122.1647 -127.935793 
L 118.856399 -127.648257 
L 115.548099 -127.199461 
L 112.239799 -127.196 
L 108.931498 -126.613634 
L 105.623198 -125.117684 
L 102.314897 -125.08831 
L 99.006597 -123.757535 
L 95.698297 -123.212979 
L 92.389996 -123.127501 
L 89.081696 -122.587323 
L 85.773396 -121.771001 
L 82.465095 -120.675611 
L 79.156795 -119.63258 
L 75.848494 -118.620057 
z
" id="mf7bf207745" style="stroke:#4a98c9;"/>
    </defs>
    <g clip-path="url(#pb11e4da568)">
     <use style="fill:#4a98c9;stroke:#4a98c9;" x="0" xlink:href="#mf7bf207745" y="355.310676"/>
    </g>
   </g>
   <g id="PolyCollection_2">
    <defs>
     <path d="M 75.848494 -27.090676 
L 75.848494 -129.703074 
L 79.156795 -129.703074 
L 82.465095 -129.703074 
L 85.773396 -129.703074 
L 89.081696 -129.703074 
L 92.389996 -129.703074 
L 95.698297 -129.703074 
L 99.006597 -129.703074 
L 102.314897 -129.703074 
L 105.623198 -129.703074 
L 108.931498 -129.703074 
L 112.239799 -129.703074 
L 115.548099 -129.703074 
L 118.856399 -129.703074 
L 122.1647 -129.703074 
L 125.473 -129.703074 
L 128.781301 -129.703074 
L 132.089601 -129.703074 
L 135.397901 -129.703074 
L 138.706202 -129.703074 
L 142.014502 -129.703074 
L 145.322803 -129.703074 
L 148.631103 -129.703074 
L 151.939403 -129.703074 
L 155.247704 -129.703074 
L 158.556004 -129.703074 
L 161.864305 -129.703074 
L 165.172605 -129.703074 
L 168.480905 -129.703074 
L 171.789206 -129.703074 
L 175.097506 -129.703074 
L 178.405807 -129.703074 
L 181.714107 -129.703074 
L 185.022407 -129.703074 
L 188.330708 -129.703074 
L 191.639008 -129.703074 
L 194.947309 -129.703074 
L 198.255609 -129.703074 
L 201.563909 -129.703074 
L 204.87221 -129.703074 
L 208.18051 -129.703074 
L 211.488811 -129.703074 
L 214.797111 -129.703074 
L 218.105411 -129.703074 
L 221.413712 -129.703074 
L 224.722012 -129.703074 
L 228.030313 -129.703074 
L 231.338613 -129.703074 
L 234.646913 -129.703074 
L 237.955214 -129.703074 
L 241.263514 -129.703074 
L 244.571814 -129.703074 
L 247.880115 -129.703074 
L 251.188415 -129.703074 
L 254.496716 -129.703074 
L 257.805016 -129.703074 
L 261.113316 -129.703074 
L 264.421617 -129.703074 
L 267.729917 -129.703074 
L 271.038218 -129.703074 
L 274.346518 -129.703074 
L 277.654818 -129.703074 
L 280.963119 -129.703074 
L 284.271419 -129.703074 
L 287.57972 -129.703074 
L 290.88802 -129.703074 
L 294.19632 -129.703074 
L 297.504621 -129.703074 
L 300.812921 -129.703074 
L 304.121222 -129.703074 
L 307.429522 -129.703074 
L 310.737822 -129.703074 
L 314.046123 -129.703074 
L 317.354423 -129.703074 
L 320.662724 -129.703074 
L 323.971024 -129.703074 
L 327.279324 -129.703074 
L 330.587625 -129.703074 
L 333.895925 -129.703074 
L 337.204226 -129.703074 
L 340.512526 -129.703074 
L 343.820826 -129.703074 
L 347.129127 -129.703074 
L 350.437427 -129.703074 
L 353.745728 -129.703074 
L 357.054028 -129.703074 
L 360.362328 -129.703074 
L 363.670629 -129.703074 
L 366.978929 -129.703074 
L 370.287229 -129.703074 
L 373.59553 -129.703074 
L 376.90383 -129.703074 
L 380.212131 -129.703074 
L 380.212131 -329.490676 
L 380.212131 -329.490676 
L 376.90383 -285.463631 
L 373.59553 -260.480285 
L 370.287229 -239.776851 
L 366.978929 -238.932256 
L 363.670629 -223.550209 
L 360.362328 -216.51402 
L 357.054028 -210.47059 
L 353.745728 -186.695477 
L 350.437427 -186.010277 
L 347.129127 -185.942825 
L 343.820826 -180.344395 
L 340.512526 -177.260287 
L 337.204226 -171.568081 
L 333.895925 -165.430805 
L 330.587625 -163.995335 
L 327.279324 -148.77732 
L 323.971024 -147.448552 
L 320.662724 -145.064023 
L 317.354423 -142.224377 
L 314.046123 -142.138773 
L 310.737822 -139.784466 
L 307.429522 -137.652704 
L 304.121222 -133.081023 
L 300.812921 -132.59179 
L 297.504621 -130.648542 
L 294.19632 -130.232747 
L 290.88802 -130.136623 
L 287.57972 -130.033487 
L 284.271419 -129.917779 
L 280.963119 -129.892337 
L 277.654818 -129.860429 
L 274.346518 -129.834002 
L 271.038218 -129.815948 
L 267.729917 -129.813399 
L 264.421617 -129.772113 
L 261.113316 -129.765435 
L 257.805016 -129.762601 
L 254.496716 -129.743353 
L 251.188415 -129.736772 
L 247.880115 -129.736308 
L 244.571814 -129.730996 
L 241.263514 -129.726609 
L 237.955214 -129.725336 
L 234.646913 -129.720895 
L 231.338613 -129.719042 
L 228.030313 -129.712042 
L 224.722012 -129.711867 
L 221.413712 -129.711154 
L 218.105411 -129.711103 
L 214.797111 -129.704641 
L 211.488811 -129.699962 
L 208.18051 -129.699481 
L 204.87221 -129.699441 
L 201.563909 -129.692119 
L 198.255609 -129.69137 
L 194.947309 -129.690726 
L 191.639008 -129.687715 
L 188.330708 -129.682169 
L 185.022407 -129.677174 
L 181.714107 -129.675449 
L 178.405807 -129.674863 
L 175.097506 -129.671837 
L 171.789206 -129.668879 
L 168.480905 -129.668315 
L 165.172605 -129.663562 
L 161.864305 -129.644658 
L 158.556004 -129.601154 
L 155.247704 -129.593064 
L 151.939403 -129.583351 
L 148.631103 -129.374916 
L 145.322803 -127.603537 
L 142.014502 -127.231521 
L 138.706202 -127.116032 
L 135.397901 -127.039037 
L 132.089601 -126.401147 
L 128.781301 -124.969845 
L 125.473 -123.998512 
L 122.1647 -120.624599 
L 118.856399 -114.10573 
L 115.548099 -113.9992 
L 112.239799 -107.907306 
L 108.931498 -106.921498 
L 105.623198 -104.258682 
L 102.314897 -101.45792 
L 99.006597 -92.883724 
L 95.698297 -88.423648 
L 92.389996 -88.211851 
L 89.081696 -83.867186 
L 85.773396 -80.205892 
L 82.465095 -53.668979 
L 79.156795 -41.88953 
L 75.848494 -27.090676 
z
" id="mc61f49c18a" style="stroke:#f14432;stroke-opacity:0.8;"/>
    </defs>
    <g clip-path="url(#pb11e4da568)">
     <use style="fill:#f14432;fill-opacity:0.8;stroke:#f14432;stroke-opacity:0.8;" x="0" xlink:href="#mc61f49c18a" y="355.310676"/>
    </g>
   </g>
   <g id="matplotlib.axis_1"/>
   <g id="matplotlib.axis_2">
    <g id="ytick_1">
     <g id="line2d_1">
      <defs>
       <path d="M 0 0 
L -3.5 0 
" id="m5a17651baa" style="stroke:#000000;stroke-width:0.8;"/>
      </defs>
      <g>
       <use style="stroke:#000000;stroke-width:0.8;" x="60.630313" xlink:href="#m5a17651baa" y="335.177082"/>
      </g>
     </g>
     <g id="text_1">
      <!-- −10 -->
      <defs>
       <path d="M 10.59375 35.5 
L 73.1875 35.5 
L 73.1875 27.203125 
L 10.59375 27.203125 
z
" id="DejaVuSans-2212"/>
       <path d="M 12.40625 8.296875 
L 28.515625 8.296875 
L 28.515625 63.921875 
L 10.984375 60.40625 
L 10.984375 69.390625 
L 28.421875 72.90625 
L 38.28125 72.90625 
L 38.28125 8.296875 
L 54.390625 8.296875 
L 54.390625 0 
L 12.40625 0 
z
" id="DejaVuSans-31"/>
       <path d="M 31.78125 66.40625 
Q 24.171875 66.40625 20.328125 58.90625 
Q 16.5 51.421875 16.5 36.375 
Q 16.5 21.390625 20.328125 13.890625 
Q 24.171875 6.390625 31.78125 6.390625 
Q 39.453125 6.390625 43.28125 13.890625 
Q 47.125 21.390625 47.125 36.375 
Q 47.125 51.421875 43.28125 58.90625 
Q 39.453125 66.40625 31.78125 66.40625 
z
M 31.78125 74.21875 
Q 44.046875 74.21875 50.515625 64.515625 
Q 56.984375 54.828125 56.984375 36.375 
Q 56.984375 17.96875 50.515625 8.265625 
Q 44.046875 -1.421875 31.78125 -1.421875 
Q 19.53125 -1.421875 13.0625 8.265625 
Q 6.59375 17.96875 6.59375 36.375 
Q 6.59375 54.828125 13.0625 64.515625 
Q 19.53125 74.21875 31.78125 74.21875 
z
" id="DejaVuSans-30"/>
      </defs>
      <g transform="translate(7.2 343.535364)scale(0.22 -0.22)">
       <use xlink:href="#DejaVuSans-2212"/>
       <use x="83.789062" xlink:href="#DejaVuSans-31"/>
       <use x="147.412109" xlink:href="#DejaVuSans-30"/>
      </g>
     </g>
    </g>
    <g id="ytick_2">
     <g id="line2d_2">
      <g>
       <use style="stroke:#000000;stroke-width:0.8;" x="60.630313" xlink:href="#m5a17651baa" y="280.392342"/>
      </g>
     </g>
     <g id="text_2">
      <!-- −5 -->
      <defs>
       <path d="M 10.796875 72.90625 
L 49.515625 72.90625 
L 49.515625 64.59375 
L 19.828125 64.59375 
L 19.828125 46.734375 
Q 21.96875 47.46875 24.109375 47.828125 
Q 26.265625 48.1875 28.421875 48.1875 
Q 40.625 48.1875 47.75 41.5 
Q 54.890625 34.8125 54.890625 23.390625 
Q 54.890625 11.625 47.5625 5.09375 
Q 40.234375 -1.421875 26.90625 -1.421875 
Q 22.3125 -1.421875 17.546875 -0.640625 
Q 12.796875 0.140625 7.71875 1.703125 
L 7.71875 11.625 
Q 12.109375 9.234375 16.796875 8.0625 
Q 21.484375 6.890625 26.703125 6.890625 
Q 35.15625 6.890625 40.078125 11.328125 
Q 45.015625 15.765625 45.015625 23.390625 
Q 45.015625 31 40.078125 35.4375 
Q 35.15625 39.890625 26.703125 39.890625 
Q 22.75 39.890625 18.8125 39.015625 
Q 14.890625 38.140625 10.796875 36.28125 
z
" id="DejaVuSans-35"/>
      </defs>
      <g transform="translate(21.1975 288.750623)scale(0.22 -0.22)">
       <use xlink:href="#DejaVuSans-2212"/>
       <use x="83.789062" xlink:href="#DejaVuSans-35"/>
      </g>
     </g>
    </g>
    <g id="ytick_3">
     <g id="line2d_3">
      <g>
       <use style="stroke:#000000;stroke-width:0.8;" x="60.630313" xlink:href="#m5a17651baa" y="225.607602"/>
      </g>
     </g>
     <g id="text_3">
      <!-- 0 -->
      <g transform="translate(39.632812 233.965883)scale(0.22 -0.22)">
       <use xlink:href="#DejaVuSans-30"/>
      </g>
     </g>
    </g>
    <g id="ytick_4">
     <g id="line2d_4">
      <g>
       <use style="stroke:#000000;stroke-width:0.8;" x="60.630313" xlink:href="#m5a17651baa" y="170.822862"/>
      </g>
     </g>
     <g id="text_4">
      <!-- 5 -->
      <g transform="translate(39.632812 179.181143)scale(0.22 -0.22)">
       <use xlink:href="#DejaVuSans-35"/>
      </g>
     </g>
    </g>
    <g id="ytick_5">
     <g id="line2d_5">
      <g>
       <use style="stroke:#000000;stroke-width:0.8;" x="60.630313" xlink:href="#m5a17651baa" y="116.038122"/>
      </g>
     </g>
     <g id="text_5">
      <!-- 10 -->
      <g transform="translate(25.635313 124.396403)scale(0.22 -0.22)">
       <use xlink:href="#DejaVuSans-31"/>
       <use x="63.623047" xlink:href="#DejaVuSans-30"/>
      </g>
     </g>
    </g>
    <g id="ytick_6">
     <g id="line2d_6">
      <g>
       <use style="stroke:#000000;stroke-width:0.8;" x="60.630313" xlink:href="#m5a17651baa" y="61.253382"/>
      </g>
     </g>
     <g id="text_6">
      <!-- 15 -->
      <g transform="translate(25.635313 69.611663)scale(0.22 -0.22)">
       <use xlink:href="#DejaVuSans-31"/>
       <use x="63.623047" xlink:href="#DejaVuSans-35"/>
      </g>
     </g>
    </g>
   </g>
   <g id="patch_3">
    <path d="M 60.630313 343.34 
L 60.630313 10.7 
" style="fill:none;stroke:#000000;stroke-linecap:square;stroke-linejoin:miter;stroke-width:0.8;"/>
   </g>
   <g id="patch_4">
    <path d="M 395.430313 343.34 
L 395.430313 10.7 
" style="fill:none;stroke:#000000;stroke-linecap:square;stroke-linejoin:miter;stroke-width:0.8;"/>
   </g>
   <g id="patch_5">
    <path d="M 60.630312 343.34 
L 395.430313 343.34 
" style="fill:none;stroke:#000000;stroke-linecap:square;stroke-linejoin:miter;stroke-width:0.8;"/>
   </g>
   <g id="patch_6">
    <path d="M 60.630312 10.7 
L 395.430313 10.7 
" style="fill:none;stroke:#000000;stroke-linecap:square;stroke-linejoin:miter;stroke-width:0.8;"/>
   </g>
  </g>
 </g>
 <defs>
  <clipPath id="pb11e4da568">
   <rect height="332.64" width="334.8" x="60.630313" y="10.7"/>
  </clipPath>
 </defs>
</svg>
