<?xml version="1.0" encoding="utf-8" standalone="no"?>
<!DOCTYPE svg PUBLIC "-//W3C//DTD SVG 1.1//EN"
  "http://www.w3.org/Graphics/SVG/1.1/DTD/svg11.dtd">
<!-- Created with matplotlib (http://matplotlib.org/) -->
<svg height="354pt" version="1.1" viewBox="0 0 441 354" width="441pt" xmlns="http://www.w3.org/2000/svg" xmlns:xlink="http://www.w3.org/1999/xlink">
 <defs>
  <style type="text/css">
*{stroke-linecap:butt;stroke-linejoin:round;}
  </style>
 </defs>
 <g id="figure_1">
  <g id="patch_1">
   <path d="M 0 354.04 
L 441.117188 354.04 
L 441.117188 0 
L 0 0 
z
" style="fill:#ffffff;"/>
  </g>
  <g id="axes_1">
   <g id="patch_2">
    <path d="M 95.617188 343.34 
L 430.417188 343.34 
L 430.417188 10.7 
L 95.617188 10.7 
z
" style="fill:#ffffff;"/>
   </g>
   <g id="PolyCollection_1">
    <defs>
     <path d="M 110.835369 -25.82 
L 110.835369 -151.015105 
L 114.14367 -151.015105 
L 117.45197 -151.015105 
L 120.760271 -151.015105 
L 124.068571 -151.015105 
L 127.376871 -151.015105 
L 130.685172 -151.015105 
L 133.993472 -151.015105 
L 137.301772 -151.015105 
L 140.610073 -151.015105 
L 143.918373 -151.015105 
L 147.226674 -151.015105 
L 150.534974 -151.015105 
L 153.843274 -151.015105 
L 157.151575 -151.015105 
L 160.459875 -151.015105 
L 163.768176 -151.015105 
L 167.076476 -151.015105 
L 170.384776 -151.015105 
L 173.693077 -151.015105 
L 177.001377 -151.015105 
L 180.309678 -151.015105 
L 183.617978 -151.015105 
L 186.926278 -151.015105 
L 190.234579 -151.015105 
L 193.542879 -151.015105 
L 196.85118 -151.015105 
L 200.15948 -151.015105 
L 203.46778 -151.015105 
L 206.776081 -151.015105 
L 210.084381 -151.015105 
L 213.392682 -151.015105 
L 216.700982 -151.015105 
L 220.009282 -151.015105 
L 223.317583 -151.015105 
L 226.625883 -151.015105 
L 229.934184 -151.015105 
L 233.242484 -151.015105 
L 236.550784 -151.015105 
L 239.859085 -151.015105 
L 243.167385 -151.015105 
L 246.475686 -151.015105 
L 249.783986 -151.015105 
L 253.092286 -151.015105 
L 256.400587 -151.015105 
L 259.708887 -151.015105 
L 263.017188 -151.015105 
L 266.325488 -151.015105 
L 269.633788 -151.015105 
L 272.942089 -151.015105 
L 276.250389 -151.015105 
L 279.558689 -151.015105 
L 282.86699 -151.015105 
L 286.17529 -151.015105 
L 289.483591 -151.015105 
L 292.791891 -151.015105 
L 296.100191 -151.015105 
L 299.408492 -151.015105 
L 302.716792 -151.015105 
L 306.025093 -151.015105 
L 309.333393 -151.015105 
L 312.641693 -151.015105 
L 315.949994 -151.015105 
L 319.258294 -151.015105 
L 322.566595 -151.015105 
L 325.874895 -151.015105 
L 329.183195 -151.015105 
L 332.491496 -151.015105 
L 335.799796 -151.015105 
L 339.108097 -151.015105 
L 342.416397 -151.015105 
L 345.724697 -151.015105 
L 349.032998 -151.015105 
L 352.341298 -151.015105 
L 355.649599 -151.015105 
L 358.957899 -151.015105 
L 362.266199 -151.015105 
L 365.5745 -151.015105 
L 368.8828 -151.015105 
L 372.191101 -151.015105 
L 375.499401 -151.015105 
L 378.807701 -151.015105 
L 382.116002 -151.015105 
L 385.424302 -151.015105 
L 388.732603 -151.015105 
L 392.040903 -151.015105 
L 395.349203 -151.015105 
L 398.657504 -151.015105 
L 401.965804 -151.015105 
L 405.274104 -151.015105 
L 408.582405 -151.015105 
L 411.890705 -151.015105 
L 415.199006 -151.015105 
L 415.199006 -328.22 
L 415.199006 -328.22 
L 411.890705 -250.017542 
L 408.582405 -247.100856 
L 405.274104 -241.39393 
L 401.965804 -236.732315 
L 398.657504 -232.406246 
L 395.349203 -227.302118 
L 392.040903 -196.77908 
L 388.732603 -182.2831 
L 385.424302 -181.03108 
L 382.116002 -177.393058 
L 378.807701 -177.385781 
L 375.499401 -176.235374 
L 372.191101 -175.609225 
L 368.8828 -173.232044 
L 365.5745 -171.930136 
L 362.266199 -171.404269 
L 358.957899 -171.231048 
L 355.649599 -169.91992 
L 352.341298 -164.884154 
L 349.032998 -161.186911 
L 345.724697 -160.118848 
L 342.416397 -159.958462 
L 339.108097 -158.863875 
L 335.799796 -158.013033 
L 332.491496 -157.706674 
L 329.183195 -156.579796 
L 325.874895 -155.896735 
L 322.566595 -155.53043 
L 319.258294 -152.099763 
L 315.949994 -152.052106 
L 312.641693 -151.990371 
L 309.333393 -151.617437 
L 306.025093 -151.528723 
L 302.716792 -151.507243 
L 299.408492 -151.499913 
L 296.100191 -151.474749 
L 292.791891 -151.45429 
L 289.483591 -151.418369 
L 286.17529 -151.392306 
L 282.86699 -151.352091 
L 279.558689 -151.347836 
L 276.250389 -151.201626 
L 272.942089 -151.175123 
L 269.633788 -151.169517 
L 266.325488 -151.16616 
L 263.017188 -151.131766 
L 259.708887 -151.126805 
L 256.400587 -151.107135 
L 253.092286 -151.085162 
L 249.783986 -151.072979 
L 246.475686 -151.063308 
L 243.167385 -151.05158 
L 239.859085 -151.048963 
L 236.550784 -151.020725 
L 233.242484 -151.01469 
L 229.934184 -150.998328 
L 226.625883 -150.936291 
L 223.317583 -150.928825 
L 220.009282 -150.908115 
L 216.700982 -150.899329 
L 213.392682 -150.893239 
L 210.084381 -150.880091 
L 206.776081 -150.875286 
L 203.46778 -150.861198 
L 200.15948 -150.769864 
L 196.85118 -150.710581 
L 193.542879 -150.589574 
L 190.234579 -150.490855 
L 186.926278 -150.408441 
L 183.617978 -150.357144 
L 180.309678 -150.224273 
L 177.001377 -150.113456 
L 173.693077 -150.013379 
L 170.384776 -149.686572 
L 167.076476 -149.511914 
L 163.768176 -149.168023 
L 160.459875 -146.623428 
L 157.151575 -143.40448 
L 153.843274 -142.277871 
L 150.534974 -138.932803 
L 147.226674 -136.806222 
L 143.918373 -134.55451 
L 140.610073 -132.632317 
L 137.301772 -130.676607 
L 133.993472 -127.071992 
L 130.685172 -123.220187 
L 127.376871 -116.627932 
L 124.068571 -113.269193 
L 120.760271 -113.010117 
L 117.45197 -69.113423 
L 114.14367 -52.056764 
L 110.835369 -25.82 
z
" id="mce6094c573" style="stroke:#4a98c9;"/>
    </defs>
    <g clip-path="url(#p59ec5c18e1)">
     <use style="fill:#4a98c9;stroke:#4a98c9;" x="0" xlink:href="#mce6094c573" y="354.04"/>
    </g>
   </g>
   <g id="PolyCollection_2">
    <defs>
     <path d="M 110.835369 -75.619787 
L 110.835369 -151.015105 
L 114.14367 -151.015105 
L 117.45197 -151.015105 
L 120.760271 -151.015105 
L 124.068571 -151.015105 
L 127.376871 -151.015105 
L 130.685172 -151.015105 
L 133.993472 -151.015105 
L 137.301772 -151.015105 
L 140.610073 -151.015105 
L 143.918373 -151.015105 
L 147.226674 -151.015105 
L 150.534974 -151.015105 
L 153.843274 -151.015105 
L 157.151575 -151.015105 
L 160.459875 -151.015105 
L 163.768176 -151.015105 
L 167.076476 -151.015105 
L 170.384776 -151.015105 
L 173.693077 -151.015105 
L 177.001377 -151.015105 
L 180.309678 -151.015105 
L 183.617978 -151.015105 
L 186.926278 -151.015105 
L 190.234579 -151.015105 
L 193.542879 -151.015105 
L 196.85118 -151.015105 
L 200.15948 -151.015105 
L 203.46778 -151.015105 
L 206.776081 -151.015105 
L 210.084381 -151.015105 
L 213.392682 -151.015105 
L 216.700982 -151.015105 
L 220.009282 -151.015105 
L 223.317583 -151.015105 
L 226.625883 -151.015105 
L 229.934184 -151.015105 
L 233.242484 -151.015105 
L 236.550784 -151.015105 
L 239.859085 -151.015105 
L 243.167385 -151.015105 
L 246.475686 -151.015105 
L 249.783986 -151.015105 
L 253.092286 -151.015105 
L 256.400587 -151.015105 
L 259.708887 -151.015105 
L 263.017188 -151.015105 
L 266.325488 -151.015105 
L 269.633788 -151.015105 
L 272.942089 -151.015105 
L 276.250389 -151.015105 
L 279.558689 -151.015105 
L 282.86699 -151.015105 
L 286.17529 -151.015105 
L 289.483591 -151.015105 
L 292.791891 -151.015105 
L 296.100191 -151.015105 
L 299.408492 -151.015105 
L 302.716792 -151.015105 
L 306.025093 -151.015105 
L 309.333393 -151.015105 
L 312.641693 -151.015105 
L 315.949994 -151.015105 
L 319.258294 -151.015105 
L 322.566595 -151.015105 
L 325.874895 -151.015105 
L 329.183195 -151.015105 
L 332.491496 -151.015105 
L 335.799796 -151.015105 
L 339.108097 -151.015105 
L 342.416397 -151.015105 
L 345.724697 -151.015105 
L 349.032998 -151.015105 
L 352.341298 -151.015105 
L 355.649599 -151.015105 
L 358.957899 -151.015105 
L 362.266199 -151.015105 
L 365.5745 -151.015105 
L 368.8828 -151.015105 
L 372.191101 -151.015105 
L 375.499401 -151.015105 
L 378.807701 -151.015105 
L 382.116002 -151.015105 
L 385.424302 -151.015105 
L 388.732603 -151.015105 
L 392.040903 -151.015105 
L 395.349203 -151.015105 
L 398.657504 -151.015105 
L 401.965804 -151.015105 
L 405.274104 -151.015105 
L 408.582405 -151.015105 
L 411.890705 -151.015105 
L 415.199006 -151.015105 
L 415.199006 -257.399149 
L 415.199006 -257.399149 
L 411.890705 -227.412841 
L 408.582405 -216.082277 
L 405.274104 -196.680803 
L 401.965804 -192.014213 
L 398.657504 -188.896777 
L 395.349203 -187.268093 
L 392.040903 -186.416017 
L 388.732603 -184.770641 
L 385.424302 -180.082585 
L 382.116002 -178.814282 
L 378.807701 -177.277091 
L 375.499401 -171.959844 
L 372.191101 -171.917994 
L 368.8828 -171.491926 
L 365.5745 -171.404919 
L 362.266199 -170.798858 
L 358.957899 -164.067752 
L 355.649599 -163.993533 
L 352.341298 -163.764954 
L 349.032998 -163.021444 
L 345.724697 -162.28844 
L 342.416397 -161.011442 
L 339.108097 -159.444975 
L 335.799796 -156.970276 
L 332.491496 -155.381337 
L 329.183195 -154.007554 
L 325.874895 -152.292717 
L 322.566595 -151.638636 
L 319.258294 -151.599561 
L 315.949994 -151.596015 
L 312.641693 -151.511202 
L 309.333393 -151.470126 
L 306.025093 -151.437515 
L 302.716792 -151.411601 
L 299.408492 -151.385415 
L 296.100191 -151.350959 
L 292.791891 -151.311339 
L 289.483591 -151.301053 
L 286.17529 -151.286664 
L 282.86699 -151.256374 
L 279.558689 -151.226527 
L 276.250389 -151.175218 
L 272.942089 -151.173373 
L 269.633788 -151.163424 
L 266.325488 -151.159357 
L 263.017188 -151.155794 
L 259.708887 -151.153878 
L 256.400587 -151.147315 
L 253.092286 -151.146949 
L 249.783986 -151.146237 
L 246.475686 -151.135949 
L 243.167385 -151.094141 
L 239.859085 -151.073575 
L 236.550784 -151.073409 
L 233.242484 -151.044424 
L 229.934184 -151.040166 
L 226.625883 -151.040045 
L 223.317583 -151.021609 
L 220.009282 -151.019959 
L 216.700982 -151.008664 
L 213.392682 -150.947721 
L 210.084381 -150.907551 
L 206.776081 -150.891135 
L 203.46778 -150.868215 
L 200.15948 -150.855237 
L 196.85118 -150.822427 
L 193.542879 -150.742178 
L 190.234579 -150.694401 
L 186.926278 -150.643064 
L 183.617978 -150.636081 
L 180.309678 -150.634413 
L 177.001377 -150.609144 
L 173.693077 -150.472663 
L 170.384776 -150.314132 
L 167.076476 -150.152266 
L 163.768176 -150.009852 
L 160.459875 -149.933001 
L 157.151575 -149.536556 
L 153.843274 -148.853587 
L 150.534974 -147.510387 
L 147.226674 -145.934444 
L 143.918373 -144.430265 
L 140.610073 -142.919691 
L 137.301772 -128.118585 
L 133.993472 -128.006468 
L 130.685172 -122.192706 
L 127.376871 -122.083938 
L 124.068571 -118.915266 
L 120.760271 -114.843698 
L 117.45197 -106.574177 
L 114.14367 -84.636953 
L 110.835369 -75.619787 
z
" id="mf8652a36d2" style="stroke:#f14432;stroke-opacity:0.8;"/>
    </defs>
    <g clip-path="url(#p59ec5c18e1)">
     <use style="fill:#f14432;fill-opacity:0.8;stroke:#f14432;stroke-opacity:0.8;" x="0" xlink:href="#mf8652a36d2" y="354.04"/>
    </g>
   </g>
   <g id="matplotlib.axis_1"/>
   <g id="matplotlib.axis_2">
    <g id="ytick_1">
     <g id="line2d_1">
      <defs>
       <path d="M 0 0 
L -3.5 0 
" id="mf70b0d3daf" style="stroke:#000000;stroke-width:0.8;"/>
      </defs>
      <g>
       <use style="stroke:#000000;stroke-width:0.8;" x="95.617188" xlink:href="#mf70b0d3daf" y="319.810512"/>
      </g>
     </g>
     <g id="text_1">
      <!-- −0.075 -->
      <defs>
       <path d="M 10.59375 35.5 
L 73.1875 35.5 
L 73.1875 27.203125 
L 10.59375 27.203125 
z
" id="DejaVuSans-2212"/>
       <path d="M 31.78125 66.40625 
Q 24.171875 66.40625 20.328125 58.90625 
Q 16.5 51.421875 16.5 36.375 
Q 16.5 21.390625 20.328125 13.890625 
Q 24.171875 6.390625 31.78125 6.390625 
Q 39.453125 6.390625 43.28125 13.890625 
Q 47.125 21.390625 47.125 36.375 
Q 47.125 51.421875 43.28125 58.90625 
Q 39.453125 66.40625 31.78125 66.40625 
z
M 31.78125 74.21875 
Q 44.046875 74.21875 50.515625 64.515625 
Q 56.984375 54.828125 56.984375 36.375 
Q 56.984375 17.96875 50.515625 8.265625 
Q 44.046875 -1.421875 31.78125 -1.421875 
Q 19.53125 -1.421875 13.0625 8.265625 
Q 6.59375 17.96875 6.59375 36.375 
Q 6.59375 54.828125 13.0625 64.515625 
Q 19.53125 74.21875 31.78125 74.21875 
z
" id="DejaVuSans-30"/>
       <path d="M 10.6875 12.40625 
L 21 12.40625 
L 21 0 
L 10.6875 0 
z
" id="DejaVuSans-2e"/>
       <path d="M 8.203125 72.90625 
L 55.078125 72.90625 
L 55.078125 68.703125 
L 28.609375 0 
L 18.3125 0 
L 43.21875 64.59375 
L 8.203125 64.59375 
z
" id="DejaVuSans-37"/>
       <path d="M 10.796875 72.90625 
L 49.515625 72.90625 
L 49.515625 64.59375 
L 19.828125 64.59375 
L 19.828125 46.734375 
Q 21.96875 47.46875 24.109375 47.828125 
Q 26.265625 48.1875 28.421875 48.1875 
Q 40.625 48.1875 47.75 41.5 
Q 54.890625 34.8125 54.890625 23.390625 
Q 54.890625 11.625 47.5625 5.09375 
Q 40.234375 -1.421875 26.90625 -1.421875 
Q 22.3125 -1.421875 17.546875 -0.640625 
Q 12.796875 0.140625 7.71875 1.703125 
L 7.71875 11.625 
Q 12.109375 9.234375 16.796875 8.0625 
Q 21.484375 6.890625 26.703125 6.890625 
Q 35.15625 6.890625 40.078125 11.328125 
Q 45.015625 15.765625 45.015625 23.390625 
Q 45.015625 31 40.078125 35.4375 
Q 35.15625 39.890625 26.703125 39.890625 
Q 22.75 39.890625 18.8125 39.015625 
Q 14.890625 38.140625 10.796875 36.28125 
z
" id="DejaVuSans-35"/>
      </defs>
      <g transform="translate(7.2 328.168794)scale(0.22 -0.22)">
       <use xlink:href="#DejaVuSans-2212"/>
       <use x="83.789062" xlink:href="#DejaVuSans-30"/>
       <use x="147.412109" xlink:href="#DejaVuSans-2e"/>
       <use x="179.199219" xlink:href="#DejaVuSans-30"/>
       <use x="242.822266" xlink:href="#DejaVuSans-37"/>
       <use x="306.445312" xlink:href="#DejaVuSans-35"/>
      </g>
     </g>
    </g>
    <g id="ytick_2">
     <g id="line2d_2">
      <g>
       <use style="stroke:#000000;stroke-width:0.8;" x="95.617188" xlink:href="#mf70b0d3daf" y="280.881973"/>
      </g>
     </g>
     <g id="text_2">
      <!-- −0.050 -->
      <g transform="translate(7.2 289.240255)scale(0.22 -0.22)">
       <use xlink:href="#DejaVuSans-2212"/>
       <use x="83.789062" xlink:href="#DejaVuSans-30"/>
       <use x="147.412109" xlink:href="#DejaVuSans-2e"/>
       <use x="179.199219" xlink:href="#DejaVuSans-30"/>
       <use x="242.822266" xlink:href="#DejaVuSans-35"/>
       <use x="306.445312" xlink:href="#DejaVuSans-30"/>
      </g>
     </g>
    </g>
    <g id="ytick_3">
     <g id="line2d_3">
      <g>
       <use style="stroke:#000000;stroke-width:0.8;" x="95.617188" xlink:href="#mf70b0d3daf" y="241.953434"/>
      </g>
     </g>
     <g id="text_3">
      <!-- −0.025 -->
      <defs>
       <path d="M 19.1875 8.296875 
L 53.609375 8.296875 
L 53.609375 0 
L 7.328125 0 
L 7.328125 8.296875 
Q 12.9375 14.109375 22.625 23.890625 
Q 32.328125 33.6875 34.8125 36.53125 
Q 39.546875 41.84375 41.421875 45.53125 
Q 43.3125 49.21875 43.3125 52.78125 
Q 43.3125 58.59375 39.234375 62.25 
Q 35.15625 65.921875 28.609375 65.921875 
Q 23.96875 65.921875 18.8125 64.3125 
Q 13.671875 62.703125 7.8125 59.421875 
L 7.8125 69.390625 
Q 13.765625 71.78125 18.9375 73 
Q 24.125 74.21875 28.421875 74.21875 
Q 39.75 74.21875 46.484375 68.546875 
Q 53.21875 62.890625 53.21875 53.421875 
Q 53.21875 48.921875 51.53125 44.890625 
Q 49.859375 40.875 45.40625 35.40625 
Q 44.1875 33.984375 37.640625 27.21875 
Q 31.109375 20.453125 19.1875 8.296875 
z
" id="DejaVuSans-32"/>
      </defs>
      <g transform="translate(7.2 250.311715)scale(0.22 -0.22)">
       <use xlink:href="#DejaVuSans-2212"/>
       <use x="83.789062" xlink:href="#DejaVuSans-30"/>
       <use x="147.412109" xlink:href="#DejaVuSans-2e"/>
       <use x="179.199219" xlink:href="#DejaVuSans-30"/>
       <use x="242.822266" xlink:href="#DejaVuSans-32"/>
       <use x="306.445312" xlink:href="#DejaVuSans-35"/>
      </g>
     </g>
    </g>
    <g id="ytick_4">
     <g id="line2d_4">
      <g>
       <use style="stroke:#000000;stroke-width:0.8;" x="95.617188" xlink:href="#mf70b0d3daf" y="203.024895"/>
      </g>
     </g>
     <g id="text_4">
      <!-- 0.000 -->
      <g transform="translate(25.635312 211.383176)scale(0.22 -0.22)">
       <use xlink:href="#DejaVuSans-30"/>
       <use x="63.623047" xlink:href="#DejaVuSans-2e"/>
       <use x="95.410156" xlink:href="#DejaVuSans-30"/>
       <use x="159.033203" xlink:href="#DejaVuSans-30"/>
       <use x="222.65625" xlink:href="#DejaVuSans-30"/>
      </g>
     </g>
    </g>
    <g id="ytick_5">
     <g id="line2d_5">
      <g>
       <use style="stroke:#000000;stroke-width:0.8;" x="95.617188" xlink:href="#mf70b0d3daf" y="164.096356"/>
      </g>
     </g>
     <g id="text_5">
      <!-- 0.025 -->
      <g transform="translate(25.635312 172.454637)scale(0.22 -0.22)">
       <use xlink:href="#DejaVuSans-30"/>
       <use x="63.623047" xlink:href="#DejaVuSans-2e"/>
       <use x="95.410156" xlink:href="#DejaVuSans-30"/>
       <use x="159.033203" xlink:href="#DejaVuSans-32"/>
       <use x="222.65625" xlink:href="#DejaVuSans-35"/>
      </g>
     </g>
    </g>
    <g id="ytick_6">
     <g id="line2d_6">
      <g>
       <use style="stroke:#000000;stroke-width:0.8;" x="95.617188" xlink:href="#mf70b0d3daf" y="125.167817"/>
      </g>
     </g>
     <g id="text_6">
      <!-- 0.050 -->
      <g transform="translate(25.635312 133.526098)scale(0.22 -0.22)">
       <use xlink:href="#DejaVuSans-30"/>
       <use x="63.623047" xlink:href="#DejaVuSans-2e"/>
       <use x="95.410156" xlink:href="#DejaVuSans-30"/>
       <use x="159.033203" xlink:href="#DejaVuSans-35"/>
       <use x="222.65625" xlink:href="#DejaVuSans-30"/>
      </g>
     </g>
    </g>
    <g id="ytick_7">
     <g id="line2d_7">
      <g>
       <use style="stroke:#000000;stroke-width:0.8;" x="95.617188" xlink:href="#mf70b0d3daf" y="86.239277"/>
      </g>
     </g>
     <g id="text_7">
      <!-- 0.075 -->
      <g transform="translate(25.635312 94.597559)scale(0.22 -0.22)">
       <use xlink:href="#DejaVuSans-30"/>
       <use x="63.623047" xlink:href="#DejaVuSans-2e"/>
       <use x="95.410156" xlink:href="#DejaVuSans-30"/>
       <use x="159.033203" xlink:href="#DejaVuSans-37"/>
       <use x="222.65625" xlink:href="#DejaVuSans-35"/>
      </g>
     </g>
    </g>
    <g id="ytick_8">
     <g id="line2d_8">
      <g>
       <use style="stroke:#000000;stroke-width:0.8;" x="95.617188" xlink:href="#mf70b0d3daf" y="47.310738"/>
      </g>
     </g>
     <g id="text_8">
      <!-- 0.100 -->
      <defs>
       <path d="M 12.40625 8.296875 
L 28.515625 8.296875 
L 28.515625 63.921875 
L 10.984375 60.40625 
L 10.984375 69.390625 
L 28.421875 72.90625 
L 38.28125 72.90625 
L 38.28125 8.296875 
L 54.390625 8.296875 
L 54.390625 0 
L 12.40625 0 
z
" id="DejaVuSans-31"/>
      </defs>
      <g transform="translate(25.635312 55.669019)scale(0.22 -0.22)">
       <use xlink:href="#DejaVuSans-30"/>
       <use x="63.623047" xlink:href="#DejaVuSans-2e"/>
       <use x="95.410156" xlink:href="#DejaVuSans-31"/>
       <use x="159.033203" xlink:href="#DejaVuSans-30"/>
       <use x="222.65625" xlink:href="#DejaVuSans-30"/>
      </g>
     </g>
    </g>
   </g>
   <g id="patch_3">
    <path d="M 95.617188 343.34 
L 95.617188 10.7 
" style="fill:none;stroke:#000000;stroke-linecap:square;stroke-linejoin:miter;stroke-width:0.8;"/>
   </g>
   <g id="patch_4">
    <path d="M 430.417188 343.34 
L 430.417188 10.7 
" style="fill:none;stroke:#000000;stroke-linecap:square;stroke-linejoin:miter;stroke-width:0.8;"/>
   </g>
   <g id="patch_5">
    <path d="M 95.617188 343.34 
L 430.417188 343.34 
" style="fill:none;stroke:#000000;stroke-linecap:square;stroke-linejoin:miter;stroke-width:0.8;"/>
   </g>
   <g id="patch_6">
    <path d="M 95.617188 10.7 
L 430.417188 10.7 
" style="fill:none;stroke:#000000;stroke-linecap:square;stroke-linejoin:miter;stroke-width:0.8;"/>
   </g>
  </g>
 </g>
 <defs>
  <clipPath id="p59ec5c18e1">
   <rect height="332.64" width="334.8" x="95.617188" y="10.7"/>
  </clipPath>
 </defs>
</svg>
