<?xml version="1.0" encoding="utf-8" standalone="no"?>
<!DOCTYPE svg PUBLIC "-//W3C//DTD SVG 1.1//EN"
  "http://www.w3.org/Graphics/SVG/1.1/DTD/svg11.dtd">
<!-- Created with matplotlib (http://matplotlib.org/) -->
<svg height="359pt" version="1.1" viewBox="0 0 413 359" width="413pt" xmlns="http://www.w3.org/2000/svg" xmlns:xlink="http://www.w3.org/1999/xlink">
 <defs>
  <style type="text/css">
*{stroke-linecap:butt;stroke-linejoin:round;}
  </style>
 </defs>
 <g id="figure_1">
  <g id="patch_1">
   <path d="M 0 359.029765 
L 413.122187 359.029765 
L 413.122187 0 
L 0 0 
z
" style="fill:#ffffff;"/>
  </g>
  <g id="axes_1">
   <g id="patch_2">
    <path d="M 67.622187 343.34 
L 402.422188 343.34 
L 402.422188 10.7 
L 67.622187 10.7 
z
" style="fill:#ffffff;"/>
   </g>
   <g id="PolyCollection_1">
    <defs>
     <path d="M 82.840369 -35.499923 
L 82.840369 -163.400104 
L 86.14867 -163.400104 
L 89.45697 -163.400104 
L 92.765271 -163.400104 
L 96.073571 -163.400104 
L 99.381871 -163.400104 
L 102.690172 -163.400104 
L 105.998472 -163.400104 
L 109.306772 -163.400104 
L 112.615073 -163.400104 
L 115.923373 -163.400104 
L 119.231674 -163.400104 
L 122.539974 -163.400104 
L 125.848274 -163.400104 
L 129.156575 -163.400104 
L 132.464875 -163.400104 
L 135.773176 -163.400104 
L 139.081476 -163.400104 
L 142.389776 -163.400104 
L 145.698077 -163.400104 
L 149.006377 -163.400104 
L 152.314678 -163.400104 
L 155.622978 -163.400104 
L 158.931278 -163.400104 
L 162.239579 -163.400104 
L 165.547879 -163.400104 
L 168.85618 -163.400104 
L 172.16448 -163.400104 
L 175.47278 -163.400104 
L 178.781081 -163.400104 
L 182.089381 -163.400104 
L 185.397682 -163.400104 
L 188.705982 -163.400104 
L 192.014282 -163.400104 
L 195.322583 -163.400104 
L 198.630883 -163.400104 
L 201.939184 -163.400104 
L 205.247484 -163.400104 
L 208.555784 -163.400104 
L 211.864085 -163.400104 
L 215.172385 -163.400104 
L 218.480686 -163.400104 
L 221.788986 -163.400104 
L 225.097286 -163.400104 
L 228.405587 -163.400104 
L 231.713887 -163.400104 
L 235.022188 -163.400104 
L 238.330488 -163.400104 
L 241.638788 -163.400104 
L 244.947089 -163.400104 
L 248.255389 -163.400104 
L 251.563689 -163.400104 
L 254.87199 -163.400104 
L 258.18029 -163.400104 
L 261.488591 -163.400104 
L 264.796891 -163.400104 
L 268.105191 -163.400104 
L 271.413492 -163.400104 
L 274.721792 -163.400104 
L 278.030093 -163.400104 
L 281.338393 -163.400104 
L 284.646693 -163.400104 
L 287.954994 -163.400104 
L 291.263294 -163.400104 
L 294.571595 -163.400104 
L 297.879895 -163.400104 
L 301.188195 -163.400104 
L 304.496496 -163.400104 
L 307.804796 -163.400104 
L 311.113097 -163.400104 
L 314.421397 -163.400104 
L 317.729697 -163.400104 
L 321.037998 -163.400104 
L 324.346298 -163.400104 
L 327.654599 -163.400104 
L 330.962899 -163.400104 
L 334.271199 -163.400104 
L 337.5795 -163.400104 
L 340.8878 -163.400104 
L 344.196101 -163.400104 
L 347.504401 -163.400104 
L 350.812701 -163.400104 
L 354.121002 -163.400104 
L 357.429302 -163.400104 
L 360.737603 -163.400104 
L 364.045903 -163.400104 
L 367.354203 -163.400104 
L 370.662504 -163.400104 
L 373.970804 -163.400104 
L 377.279104 -163.400104 
L 380.587405 -163.400104 
L 383.895705 -163.400104 
L 387.204006 -163.400104 
L 387.204006 -333.209765 
L 387.204006 -333.209765 
L 383.895705 -306.074686 
L 380.587405 -286.547864 
L 377.279104 -281.811282 
L 373.970804 -275.68454 
L 370.662504 -262.706829 
L 367.354203 -261.422479 
L 364.045903 -241.701404 
L 360.737603 -235.67141 
L 357.429302 -228.208864 
L 354.121002 -227.771303 
L 350.812701 -225.387977 
L 347.504401 -224.515482 
L 344.196101 -218.871134 
L 340.8878 -218.103688 
L 337.5795 -217.000298 
L 334.271199 -216.012886 
L 330.962899 -215.727418 
L 327.654599 -208.019614 
L 324.346298 -198.179125 
L 321.037998 -197.167825 
L 317.729697 -187.88729 
L 314.421397 -185.086773 
L 311.113097 -177.848473 
L 307.804796 -176.771079 
L 304.496496 -172.758096 
L 301.188195 -169.350478 
L 297.879895 -168.540142 
L 294.571595 -165.749982 
L 291.263294 -165.511763 
L 287.954994 -164.344959 
L 284.646693 -163.899997 
L 281.338393 -163.771502 
L 278.030093 -163.732083 
L 274.721792 -163.700497 
L 271.413492 -163.693162 
L 268.105191 -163.675417 
L 264.796891 -163.651187 
L 261.488591 -163.627961 
L 258.18029 -163.594549 
L 254.87199 -163.565948 
L 251.563689 -163.558826 
L 248.255389 -163.536408 
L 244.947089 -163.531174 
L 241.638788 -163.502568 
L 238.330488 -163.487661 
L 235.022188 -163.477687 
L 231.713887 -163.467129 
L 228.405587 -163.449306 
L 225.097286 -163.435153 
L 221.788986 -163.408556 
L 218.480686 -163.397647 
L 215.172385 -163.396936 
L 211.864085 -163.379707 
L 208.555784 -163.367859 
L 205.247484 -163.346025 
L 201.939184 -163.34453 
L 198.630883 -163.340004 
L 195.322583 -163.28766 
L 192.014282 -163.285229 
L 188.705982 -163.276611 
L 185.397682 -163.265113 
L 182.089381 -163.240592 
L 178.781081 -163.17067 
L 175.47278 -163.169698 
L 172.16448 -163.117049 
L 168.85618 -163.00439 
L 165.547879 -162.847249 
L 162.239579 -162.448355 
L 158.931278 -160.37733 
L 155.622978 -159.687547 
L 152.314678 -159.328894 
L 149.006377 -158.724851 
L 145.698077 -158.171737 
L 142.389776 -155.822932 
L 139.081476 -155.587944 
L 135.773176 -154.649898 
L 132.464875 -150.938222 
L 129.156575 -148.942138 
L 125.848274 -147.144597 
L 122.539974 -143.866115 
L 119.231674 -137.443303 
L 115.923373 -132.575925 
L 112.615073 -132.092102 
L 109.306772 -129.961625 
L 105.998472 -120.540185 
L 102.690172 -120.213935 
L 99.381871 -111.258238 
L 96.073571 -104.982987 
L 92.765271 -96.630448 
L 89.45697 -82.822703 
L 86.14867 -49.187574 
L 82.840369 -35.499923 
z
" id="m2de72e7db2" style="stroke:#4a98c9;"/>
    </defs>
    <g clip-path="url(#p25065abcf4)">
     <use style="fill:#4a98c9;stroke:#4a98c9;" x="0" xlink:href="#m2de72e7db2" y="359.029765"/>
    </g>
   </g>
   <g id="PolyCollection_2">
    <defs>
     <path d="M 82.840369 -30.809765 
L 82.840369 -163.400104 
L 86.14867 -163.400104 
L 89.45697 -163.400104 
L 92.765271 -163.400104 
L 96.073571 -163.400104 
L 99.381871 -163.400104 
L 102.690172 -163.400104 
L 105.998472 -163.400104 
L 109.306772 -163.400104 
L 112.615073 -163.400104 
L 115.923373 -163.400104 
L 119.231674 -163.400104 
L 122.539974 -163.400104 
L 125.848274 -163.400104 
L 129.156575 -163.400104 
L 132.464875 -163.400104 
L 135.773176 -163.400104 
L 139.081476 -163.400104 
L 142.389776 -163.400104 
L 145.698077 -163.400104 
L 149.006377 -163.400104 
L 152.314678 -163.400104 
L 155.622978 -163.400104 
L 158.931278 -163.400104 
L 162.239579 -163.400104 
L 165.547879 -163.400104 
L 168.85618 -163.400104 
L 172.16448 -163.400104 
L 175.47278 -163.400104 
L 178.781081 -163.400104 
L 182.089381 -163.400104 
L 185.397682 -163.400104 
L 188.705982 -163.400104 
L 192.014282 -163.400104 
L 195.322583 -163.400104 
L 198.630883 -163.400104 
L 201.939184 -163.400104 
L 205.247484 -163.400104 
L 208.555784 -163.400104 
L 211.864085 -163.400104 
L 215.172385 -163.400104 
L 218.480686 -163.400104 
L 221.788986 -163.400104 
L 225.097286 -163.400104 
L 228.405587 -163.400104 
L 231.713887 -163.400104 
L 235.022188 -163.400104 
L 238.330488 -163.400104 
L 241.638788 -163.400104 
L 244.947089 -163.400104 
L 248.255389 -163.400104 
L 251.563689 -163.400104 
L 254.87199 -163.400104 
L 258.18029 -163.400104 
L 261.488591 -163.400104 
L 264.796891 -163.400104 
L 268.105191 -163.400104 
L 271.413492 -163.400104 
L 274.721792 -163.400104 
L 278.030093 -163.400104 
L 281.338393 -163.400104 
L 284.646693 -163.400104 
L 287.954994 -163.400104 
L 291.263294 -163.400104 
L 294.571595 -163.400104 
L 297.879895 -163.400104 
L 301.188195 -163.400104 
L 304.496496 -163.400104 
L 307.804796 -163.400104 
L 311.113097 -163.400104 
L 314.421397 -163.400104 
L 317.729697 -163.400104 
L 321.037998 -163.400104 
L 324.346298 -163.400104 
L 327.654599 -163.400104 
L 330.962899 -163.400104 
L 334.271199 -163.400104 
L 337.5795 -163.400104 
L 340.8878 -163.400104 
L 344.196101 -163.400104 
L 347.504401 -163.400104 
L 350.812701 -163.400104 
L 354.121002 -163.400104 
L 357.429302 -163.400104 
L 360.737603 -163.400104 
L 364.045903 -163.400104 
L 367.354203 -163.400104 
L 370.662504 -163.400104 
L 373.970804 -163.400104 
L 377.279104 -163.400104 
L 380.587405 -163.400104 
L 383.895705 -163.400104 
L 387.204006 -163.400104 
L 387.204006 -310.730561 
L 387.204006 -310.730561 
L 383.895705 -308.43042 
L 380.587405 -301.518105 
L 377.279104 -285.271362 
L 373.970804 -263.561132 
L 370.662504 -249.360206 
L 367.354203 -248.772111 
L 364.045903 -239.332444 
L 360.737603 -236.622952 
L 357.429302 -227.756272 
L 354.121002 -218.073374 
L 350.812701 -210.988353 
L 347.504401 -208.839369 
L 344.196101 -208.106346 
L 340.8878 -207.820673 
L 337.5795 -206.619001 
L 334.271199 -205.21603 
L 330.962899 -199.050398 
L 327.654599 -190.766612 
L 324.346298 -188.846643 
L 321.037998 -186.047913 
L 317.729697 -184.190704 
L 314.421397 -181.579777 
L 311.113097 -177.558365 
L 307.804796 -174.407379 
L 304.496496 -174.092332 
L 301.188195 -173.497137 
L 297.879895 -171.720033 
L 294.571595 -170.482667 
L 291.263294 -169.687392 
L 287.954994 -169.183639 
L 284.646693 -164.509452 
L 281.338393 -164.431941 
L 278.030093 -164.350749 
L 274.721792 -164.06007 
L 271.413492 -163.737885 
L 268.105191 -163.69834 
L 264.796891 -163.640768 
L 261.488591 -163.561666 
L 258.18029 -163.545807 
L 254.87199 -163.512366 
L 251.563689 -163.496052 
L 248.255389 -163.489317 
L 244.947089 -163.430641 
L 241.638788 -163.429992 
L 238.330488 -163.395736 
L 235.022188 -163.394022 
L 231.713887 -163.390465 
L 228.405587 -163.362534 
L 225.097286 -163.361556 
L 221.788986 -163.348307 
L 218.480686 -163.339076 
L 215.172385 -163.332301 
L 211.864085 -163.323732 
L 208.555784 -163.313277 
L 205.247484 -163.293652 
L 201.939184 -163.26921 
L 198.630883 -163.251101 
L 195.322583 -163.242703 
L 192.014282 -163.218227 
L 188.705982 -163.20264 
L 185.397682 -163.158283 
L 182.089381 -163.136153 
L 178.781081 -163.081696 
L 175.47278 -163.081013 
L 172.16448 -162.991789 
L 168.85618 -162.969412 
L 165.547879 -162.888675 
L 162.239579 -162.87149 
L 158.931278 -162.752917 
L 155.622978 -162.676534 
L 152.314678 -162.64446 
L 149.006377 -162.338193 
L 145.698077 -162.274921 
L 142.389776 -162.196231 
L 139.081476 -162.017231 
L 135.773176 -161.66247 
L 132.464875 -160.774883 
L 129.156575 -159.932736 
L 125.848274 -154.765802 
L 122.539974 -148.269662 
L 119.231674 -147.993175 
L 115.923373 -139.640949 
L 112.615073 -135.957618 
L 109.306772 -127.801807 
L 105.998472 -120.625232 
L 102.690172 -110.529454 
L 99.381871 -109.934461 
L 96.073571 -103.537587 
L 92.765271 -90.439648 
L 89.45697 -64.642091 
L 86.14867 -40.770833 
L 82.840369 -30.809765 
z
" id="m16e6c31b09" style="stroke:#f14432;stroke-opacity:0.8;"/>
    </defs>
    <g clip-path="url(#p25065abcf4)">
     <use style="fill:#f14432;fill-opacity:0.8;stroke:#f14432;stroke-opacity:0.8;" x="0" xlink:href="#m16e6c31b09" y="359.029765"/>
    </g>
   </g>
   <g id="matplotlib.axis_1"/>
   <g id="matplotlib.axis_2">
    <g id="ytick_1">
     <g id="line2d_1">
      <defs>
       <path d="M 0 0 
L -3.5 0 
" id="m66d1121976" style="stroke:#000000;stroke-width:0.8;"/>
      </defs>
      <g>
       <use style="stroke:#000000;stroke-width:0.8;" x="67.622187" xlink:href="#m66d1121976" y="338.896171"/>
      </g>
     </g>
     <g id="text_1">
      <!-- −0.2 -->
      <defs>
       <path d="M 10.59375 35.5 
L 73.1875 35.5 
L 73.1875 27.203125 
L 10.59375 27.203125 
z
" id="DejaVuSans-2212"/>
       <path d="M 31.78125 66.40625 
Q 24.171875 66.40625 20.328125 58.90625 
Q 16.5 51.421875 16.5 36.375 
Q 16.5 21.390625 20.328125 13.890625 
Q 24.171875 6.390625 31.78125 6.390625 
Q 39.453125 6.390625 43.28125 13.890625 
Q 47.125 21.390625 47.125 36.375 
Q 47.125 51.421875 43.28125 58.90625 
Q 39.453125 66.40625 31.78125 66.40625 
z
M 31.78125 74.21875 
Q 44.046875 74.21875 50.515625 64.515625 
Q 56.984375 54.828125 56.984375 36.375 
Q 56.984375 17.96875 50.515625 8.265625 
Q 44.046875 -1.421875 31.78125 -1.421875 
Q 19.53125 -1.421875 13.0625 8.265625 
Q 6.59375 17.96875 6.59375 36.375 
Q 6.59375 54.828125 13.0625 64.515625 
Q 19.53125 74.21875 31.78125 74.21875 
z
" id="DejaVuSans-30"/>
       <path d="M 10.6875 12.40625 
L 21 12.40625 
L 21 0 
L 10.6875 0 
z
" id="DejaVuSans-2e"/>
       <path d="M 19.1875 8.296875 
L 53.609375 8.296875 
L 53.609375 0 
L 7.328125 0 
L 7.328125 8.296875 
Q 12.9375 14.109375 22.625 23.890625 
Q 32.328125 33.6875 34.8125 36.53125 
Q 39.546875 41.84375 41.421875 45.53125 
Q 43.3125 49.21875 43.3125 52.78125 
Q 43.3125 58.59375 39.234375 62.25 
Q 35.15625 65.921875 28.609375 65.921875 
Q 23.96875 65.921875 18.8125 64.3125 
Q 13.671875 62.703125 7.8125 59.421875 
L 7.8125 69.390625 
Q 13.765625 71.78125 18.9375 73 
Q 24.125 74.21875 28.421875 74.21875 
Q 39.75 74.21875 46.484375 68.546875 
Q 53.21875 62.890625 53.21875 53.421875 
Q 53.21875 48.921875 51.53125 44.890625 
Q 49.859375 40.875 45.40625 35.40625 
Q 44.1875 33.984375 37.640625 27.21875 
Q 31.109375 20.453125 19.1875 8.296875 
z
" id="DejaVuSans-32"/>
      </defs>
      <g transform="translate(7.2 347.254453)scale(0.22 -0.22)">
       <use xlink:href="#DejaVuSans-2212"/>
       <use x="83.789062" xlink:href="#DejaVuSans-30"/>
       <use x="147.412109" xlink:href="#DejaVuSans-2e"/>
       <use x="179.199219" xlink:href="#DejaVuSans-32"/>
      </g>
     </g>
    </g>
    <g id="ytick_2">
     <g id="line2d_2">
      <g>
       <use style="stroke:#000000;stroke-width:0.8;" x="67.622187" xlink:href="#m66d1121976" y="267.262916"/>
      </g>
     </g>
     <g id="text_2">
      <!-- −0.1 -->
      <defs>
       <path d="M 12.40625 8.296875 
L 28.515625 8.296875 
L 28.515625 63.921875 
L 10.984375 60.40625 
L 10.984375 69.390625 
L 28.421875 72.90625 
L 38.28125 72.90625 
L 38.28125 8.296875 
L 54.390625 8.296875 
L 54.390625 0 
L 12.40625 0 
z
" id="DejaVuSans-31"/>
      </defs>
      <g transform="translate(7.2 275.621197)scale(0.22 -0.22)">
       <use xlink:href="#DejaVuSans-2212"/>
       <use x="83.789062" xlink:href="#DejaVuSans-30"/>
       <use x="147.412109" xlink:href="#DejaVuSans-2e"/>
       <use x="179.199219" xlink:href="#DejaVuSans-31"/>
      </g>
     </g>
    </g>
    <g id="ytick_3">
     <g id="line2d_3">
      <g>
       <use style="stroke:#000000;stroke-width:0.8;" x="67.622187" xlink:href="#m66d1121976" y="195.629661"/>
      </g>
     </g>
     <g id="text_3">
      <!-- 0.0 -->
      <g transform="translate(25.635312 203.987942)scale(0.22 -0.22)">
       <use xlink:href="#DejaVuSans-30"/>
       <use x="63.623047" xlink:href="#DejaVuSans-2e"/>
       <use x="95.410156" xlink:href="#DejaVuSans-30"/>
      </g>
     </g>
    </g>
    <g id="ytick_4">
     <g id="line2d_4">
      <g>
       <use style="stroke:#000000;stroke-width:0.8;" x="67.622187" xlink:href="#m66d1121976" y="123.996405"/>
      </g>
     </g>
     <g id="text_4">
      <!-- 0.1 -->
      <g transform="translate(25.635312 132.354687)scale(0.22 -0.22)">
       <use xlink:href="#DejaVuSans-30"/>
       <use x="63.623047" xlink:href="#DejaVuSans-2e"/>
       <use x="95.410156" xlink:href="#DejaVuSans-31"/>
      </g>
     </g>
    </g>
    <g id="ytick_5">
     <g id="line2d_5">
      <g>
       <use style="stroke:#000000;stroke-width:0.8;" x="67.622187" xlink:href="#m66d1121976" y="52.36315"/>
      </g>
     </g>
     <g id="text_5">
      <!-- 0.2 -->
      <g transform="translate(25.635312 60.721431)scale(0.22 -0.22)">
       <use xlink:href="#DejaVuSans-30"/>
       <use x="63.623047" xlink:href="#DejaVuSans-2e"/>
       <use x="95.410156" xlink:href="#DejaVuSans-32"/>
      </g>
     </g>
    </g>
   </g>
   <g id="patch_3">
    <path d="M 67.622187 343.34 
L 67.622187 10.7 
" style="fill:none;stroke:#000000;stroke-linecap:square;stroke-linejoin:miter;stroke-width:0.8;"/>
   </g>
   <g id="patch_4">
    <path d="M 402.422188 343.34 
L 402.422188 10.7 
" style="fill:none;stroke:#000000;stroke-linecap:square;stroke-linejoin:miter;stroke-width:0.8;"/>
   </g>
   <g id="patch_5">
    <path d="M 67.622187 343.34 
L 402.422188 343.34 
" style="fill:none;stroke:#000000;stroke-linecap:square;stroke-linejoin:miter;stroke-width:0.8;"/>
   </g>
   <g id="patch_6">
    <path d="M 67.622187 10.7 
L 402.422188 10.7 
" style="fill:none;stroke:#000000;stroke-linecap:square;stroke-linejoin:miter;stroke-width:0.8;"/>
   </g>
  </g>
 </g>
 <defs>
  <clipPath id="p25065abcf4">
   <rect height="332.64" width="334.8" x="67.622187" y="10.7"/>
  </clipPath>
 </defs>
</svg>
