<?xml version="1.0" encoding="utf-8" standalone="no"?>
<!DOCTYPE svg PUBLIC "-//W3C//DTD SVG 1.1//EN"
  "http://www.w3.org/Graphics/SVG/1.1/DTD/svg11.dtd">
<!-- Created with matplotlib (http://matplotlib.org/) -->
<svg height="354pt" version="1.1" viewBox="0 0 441 354" width="441pt" xmlns="http://www.w3.org/2000/svg" xmlns:xlink="http://www.w3.org/1999/xlink">
 <defs>
  <style type="text/css">
*{stroke-linecap:butt;stroke-linejoin:round;}
  </style>
 </defs>
 <g id="figure_1">
  <g id="patch_1">
   <path d="M 0 354.04 
L 441.117188 354.04 
L 441.117188 0 
L 0 0 
z
" style="fill:#ffffff;"/>
  </g>
  <g id="axes_1">
   <g id="patch_2">
    <path d="M 95.617188 343.34 
L 430.417188 343.34 
L 430.417188 10.7 
L 95.617188 10.7 
z
" style="fill:#ffffff;"/>
   </g>
   <g id="PolyCollection_1">
    <defs>
     <path d="M 110.835369 -25.82 
L 110.835369 -184.803166 
L 114.14367 -184.803166 
L 117.45197 -184.803166 
L 120.760271 -184.803166 
L 124.068571 -184.803166 
L 127.376871 -184.803166 
L 130.685172 -184.803166 
L 133.993472 -184.803166 
L 137.301772 -184.803166 
L 140.610073 -184.803166 
L 143.918373 -184.803166 
L 147.226674 -184.803166 
L 150.534974 -184.803166 
L 153.843274 -184.803166 
L 157.151575 -184.803166 
L 160.459875 -184.803166 
L 163.768176 -184.803166 
L 167.076476 -184.803166 
L 170.384776 -184.803166 
L 173.693077 -184.803166 
L 177.001377 -184.803166 
L 180.309678 -184.803166 
L 183.617978 -184.803166 
L 186.926278 -184.803166 
L 190.234579 -184.803166 
L 193.542879 -184.803166 
L 196.85118 -184.803166 
L 200.15948 -184.803166 
L 203.46778 -184.803166 
L 206.776081 -184.803166 
L 210.084381 -184.803166 
L 213.392682 -184.803166 
L 216.700982 -184.803166 
L 220.009282 -184.803166 
L 223.317583 -184.803166 
L 226.625883 -184.803166 
L 229.934184 -184.803166 
L 233.242484 -184.803166 
L 236.550784 -184.803166 
L 239.859085 -184.803166 
L 243.167385 -184.803166 
L 246.475686 -184.803166 
L 249.783986 -184.803166 
L 253.092286 -184.803166 
L 256.400587 -184.803166 
L 259.708887 -184.803166 
L 263.017188 -184.803166 
L 266.325488 -184.803166 
L 269.633788 -184.803166 
L 272.942089 -184.803166 
L 276.250389 -184.803166 
L 279.558689 -184.803166 
L 282.86699 -184.803166 
L 286.17529 -184.803166 
L 289.483591 -184.803166 
L 292.791891 -184.803166 
L 296.100191 -184.803166 
L 299.408492 -184.803166 
L 302.716792 -184.803166 
L 306.025093 -184.803166 
L 309.333393 -184.803166 
L 312.641693 -184.803166 
L 315.949994 -184.803166 
L 319.258294 -184.803166 
L 322.566595 -184.803166 
L 325.874895 -184.803166 
L 329.183195 -184.803166 
L 332.491496 -184.803166 
L 335.799796 -184.803166 
L 339.108097 -184.803166 
L 342.416397 -184.803166 
L 345.724697 -184.803166 
L 349.032998 -184.803166 
L 352.341298 -184.803166 
L 355.649599 -184.803166 
L 358.957899 -184.803166 
L 362.266199 -184.803166 
L 365.5745 -184.803166 
L 368.8828 -184.803166 
L 372.191101 -184.803166 
L 375.499401 -184.803166 
L 378.807701 -184.803166 
L 382.116002 -184.803166 
L 385.424302 -184.803166 
L 388.732603 -184.803166 
L 392.040903 -184.803166 
L 395.349203 -184.803166 
L 398.657504 -184.803166 
L 401.965804 -184.803166 
L 405.274104 -184.803166 
L 408.582405 -184.803166 
L 411.890705 -184.803166 
L 415.199006 -184.803166 
L 415.199006 -328.22 
L 415.199006 -328.22 
L 411.890705 -288.607801 
L 408.582405 -287.764782 
L 405.274104 -286.662691 
L 401.965804 -256.409845 
L 398.657504 -250.979843 
L 395.349203 -250.636566 
L 392.040903 -245.162288 
L 388.732603 -237.18629 
L 385.424302 -236.88189 
L 382.116002 -232.474056 
L 378.807701 -229.023192 
L 375.499401 -225.879675 
L 372.191101 -221.224642 
L 368.8828 -217.823712 
L 365.5745 -215.542263 
L 362.266199 -215.45066 
L 358.957899 -214.880003 
L 355.649599 -210.637521 
L 352.341298 -209.143308 
L 349.032998 -207.867363 
L 345.724697 -207.679428 
L 342.416397 -204.698447 
L 339.108097 -203.824935 
L 335.799796 -202.533785 
L 332.491496 -201.016083 
L 329.183195 -199.305618 
L 325.874895 -199.259972 
L 322.566595 -197.335494 
L 319.258294 -196.522026 
L 315.949994 -196.275115 
L 312.641693 -196.170642 
L 309.333393 -195.10113 
L 306.025093 -190.686615 
L 302.716792 -190.033606 
L 299.408492 -189.760588 
L 296.100191 -189.22494 
L 292.791891 -188.946983 
L 289.483591 -188.889812 
L 286.17529 -188.563633 
L 282.86699 -187.618251 
L 279.558689 -187.168293 
L 276.250389 -187.100087 
L 272.942089 -187.012307 
L 269.633788 -186.971094 
L 266.325488 -186.643772 
L 263.017188 -186.589574 
L 259.708887 -186.378318 
L 256.400587 -186.112816 
L 253.092286 -185.96617 
L 249.783986 -185.715867 
L 246.475686 -185.509783 
L 243.167385 -185.470134 
L 239.859085 -185.449554 
L 236.550784 -185.447524 
L 233.242484 -185.414395 
L 229.934184 -185.383405 
L 226.625883 -185.290484 
L 223.317583 -185.257955 
L 220.009282 -185.177687 
L 216.700982 -185.092718 
L 213.392682 -185.018573 
L 210.084381 -185.008654 
L 206.776081 -184.878288 
L 203.46778 -184.660363 
L 200.15948 -184.651801 
L 196.85118 -184.621922 
L 193.542879 -184.588009 
L 190.234579 -184.086048 
L 186.926278 -183.967387 
L 183.617978 -183.88795 
L 180.309678 -183.87904 
L 177.001377 -183.877639 
L 173.693077 -183.834872 
L 170.384776 -183.429149 
L 167.076476 -183.423642 
L 163.768176 -183.411822 
L 160.459875 -183.375642 
L 157.151575 -183.28985 
L 153.843274 -182.887212 
L 150.534974 -182.799905 
L 147.226674 -182.207462 
L 143.918373 -181.831523 
L 140.610073 -180.100788 
L 137.301772 -176.703963 
L 133.993472 -169.433129 
L 130.685172 -166.011623 
L 127.376871 -164.354484 
L 124.068571 -157.052552 
L 120.760271 -156.692736 
L 117.45197 -144.048615 
L 114.14367 -99.506177 
L 110.835369 -25.82 
z
" id="mebfb9e7b46" style="stroke:#4a98c9;"/>
    </defs>
    <g clip-path="url(#p2187d3011c)">
     <use style="fill:#4a98c9;stroke:#4a98c9;" x="0" xlink:href="#mebfb9e7b46" y="354.04"/>
    </g>
   </g>
   <g id="PolyCollection_2">
    <defs>
     <path d="M 110.835369 -123.957099 
L 110.835369 -184.803166 
L 114.14367 -184.803166 
L 117.45197 -184.803166 
L 120.760271 -184.803166 
L 124.068571 -184.803166 
L 127.376871 -184.803166 
L 130.685172 -184.803166 
L 133.993472 -184.803166 
L 137.301772 -184.803166 
L 140.610073 -184.803166 
L 143.918373 -184.803166 
L 147.226674 -184.803166 
L 150.534974 -184.803166 
L 153.843274 -184.803166 
L 157.151575 -184.803166 
L 160.459875 -184.803166 
L 163.768176 -184.803166 
L 167.076476 -184.803166 
L 170.384776 -184.803166 
L 173.693077 -184.803166 
L 177.001377 -184.803166 
L 180.309678 -184.803166 
L 183.617978 -184.803166 
L 186.926278 -184.803166 
L 190.234579 -184.803166 
L 193.542879 -184.803166 
L 196.85118 -184.803166 
L 200.15948 -184.803166 
L 203.46778 -184.803166 
L 206.776081 -184.803166 
L 210.084381 -184.803166 
L 213.392682 -184.803166 
L 216.700982 -184.803166 
L 220.009282 -184.803166 
L 223.317583 -184.803166 
L 226.625883 -184.803166 
L 229.934184 -184.803166 
L 233.242484 -184.803166 
L 236.550784 -184.803166 
L 239.859085 -184.803166 
L 243.167385 -184.803166 
L 246.475686 -184.803166 
L 249.783986 -184.803166 
L 253.092286 -184.803166 
L 256.400587 -184.803166 
L 259.708887 -184.803166 
L 263.017188 -184.803166 
L 266.325488 -184.803166 
L 269.633788 -184.803166 
L 272.942089 -184.803166 
L 276.250389 -184.803166 
L 279.558689 -184.803166 
L 282.86699 -184.803166 
L 286.17529 -184.803166 
L 289.483591 -184.803166 
L 292.791891 -184.803166 
L 296.100191 -184.803166 
L 299.408492 -184.803166 
L 302.716792 -184.803166 
L 306.025093 -184.803166 
L 309.333393 -184.803166 
L 312.641693 -184.803166 
L 315.949994 -184.803166 
L 319.258294 -184.803166 
L 322.566595 -184.803166 
L 325.874895 -184.803166 
L 329.183195 -184.803166 
L 332.491496 -184.803166 
L 335.799796 -184.803166 
L 339.108097 -184.803166 
L 342.416397 -184.803166 
L 345.724697 -184.803166 
L 349.032998 -184.803166 
L 352.341298 -184.803166 
L 355.649599 -184.803166 
L 358.957899 -184.803166 
L 362.266199 -184.803166 
L 365.5745 -184.803166 
L 368.8828 -184.803166 
L 372.191101 -184.803166 
L 375.499401 -184.803166 
L 378.807701 -184.803166 
L 382.116002 -184.803166 
L 385.424302 -184.803166 
L 388.732603 -184.803166 
L 392.040903 -184.803166 
L 395.349203 -184.803166 
L 398.657504 -184.803166 
L 401.965804 -184.803166 
L 405.274104 -184.803166 
L 408.582405 -184.803166 
L 411.890705 -184.803166 
L 415.199006 -184.803166 
L 415.199006 -250.652195 
L 415.199006 -250.652195 
L 411.890705 -228.70936 
L 408.582405 -227.462081 
L 405.274104 -212.133957 
L 401.965804 -211.4026 
L 398.657504 -210.560237 
L 395.349203 -209.158141 
L 392.040903 -205.53475 
L 388.732603 -205.218863 
L 385.424302 -202.310496 
L 382.116002 -201.64161 
L 378.807701 -201.45437 
L 375.499401 -201.112641 
L 372.191101 -201.081099 
L 368.8828 -200.609124 
L 365.5745 -198.74383 
L 362.266199 -197.511126 
L 358.957899 -197.066718 
L 355.649599 -196.789096 
L 352.341298 -195.928618 
L 349.032998 -195.41416 
L 345.724697 -194.719562 
L 342.416397 -194.508906 
L 339.108097 -194.187384 
L 335.799796 -193.566583 
L 332.491496 -193.281217 
L 329.183195 -192.588371 
L 325.874895 -192.441584 
L 322.566595 -191.52111 
L 319.258294 -191.224796 
L 315.949994 -189.997796 
L 312.641693 -189.457769 
L 309.333393 -189.308982 
L 306.025093 -188.946722 
L 302.716792 -188.626427 
L 299.408492 -188.542097 
L 296.100191 -187.215645 
L 292.791891 -187.207629 
L 289.483591 -186.935329 
L 286.17529 -186.584753 
L 282.86699 -186.263988 
L 279.558689 -186.188118 
L 276.250389 -186.067258 
L 272.942089 -185.606669 
L 269.633788 -185.58851 
L 266.325488 -185.559918 
L 263.017188 -185.554287 
L 259.708887 -185.47179 
L 256.400587 -185.437631 
L 253.092286 -185.386925 
L 249.783986 -185.309006 
L 246.475686 -185.240364 
L 243.167385 -185.211067 
L 239.859085 -185.157773 
L 236.550784 -185.117704 
L 233.242484 -185.076302 
L 229.934184 -184.801789 
L 226.625883 -184.782017 
L 223.317583 -184.685075 
L 220.009282 -184.643154 
L 216.700982 -184.559609 
L 213.392682 -184.543387 
L 210.084381 -184.404822 
L 206.776081 -184.247968 
L 203.46778 -184.205485 
L 200.15948 -184.183728 
L 196.85118 -184.179265 
L 193.542879 -184.091591 
L 190.234579 -183.954533 
L 186.926278 -183.931519 
L 183.617978 -183.824335 
L 180.309678 -183.760345 
L 177.001377 -183.696194 
L 173.693077 -183.679376 
L 170.384776 -183.648424 
L 167.076476 -183.269525 
L 163.768176 -183.254195 
L 160.459875 -181.977294 
L 157.151575 -181.55962 
L 153.843274 -181.339859 
L 150.534974 -181.317656 
L 147.226674 -180.97482 
L 143.918373 -179.4434 
L 140.610073 -179.337522 
L 137.301772 -179.085924 
L 133.993472 -177.530763 
L 130.685172 -177.153897 
L 127.376871 -176.989413 
L 124.068571 -176.778886 
L 120.760271 -173.625657 
L 117.45197 -163.274448 
L 114.14367 -160.167436 
L 110.835369 -123.957099 
z
" id="m97f30f7566" style="stroke:#f14432;stroke-opacity:0.8;"/>
    </defs>
    <g clip-path="url(#p2187d3011c)">
     <use style="fill:#f14432;fill-opacity:0.8;stroke:#f14432;stroke-opacity:0.8;" x="0" xlink:href="#m97f30f7566" y="354.04"/>
    </g>
   </g>
   <g id="matplotlib.axis_1"/>
   <g id="matplotlib.axis_2">
    <g id="ytick_1">
     <g id="line2d_1">
      <defs>
       <path d="M 0 0 
L -3.5 0 
" id="ma7c2fbc962" style="stroke:#000000;stroke-width:0.8;"/>
      </defs>
      <g>
       <use style="stroke:#000000;stroke-width:0.8;" x="95.617188" xlink:href="#ma7c2fbc962" y="319.204742"/>
      </g>
     </g>
     <g id="text_1">
      <!-- −0.015 -->
      <defs>
       <path d="M 10.59375 35.5 
L 73.1875 35.5 
L 73.1875 27.203125 
L 10.59375 27.203125 
z
" id="DejaVuSans-2212"/>
       <path d="M 31.78125 66.40625 
Q 24.171875 66.40625 20.328125 58.90625 
Q 16.5 51.421875 16.5 36.375 
Q 16.5 21.390625 20.328125 13.890625 
Q 24.171875 6.390625 31.78125 6.390625 
Q 39.453125 6.390625 43.28125 13.890625 
Q 47.125 21.390625 47.125 36.375 
Q 47.125 51.421875 43.28125 58.90625 
Q 39.453125 66.40625 31.78125 66.40625 
z
M 31.78125 74.21875 
Q 44.046875 74.21875 50.515625 64.515625 
Q 56.984375 54.828125 56.984375 36.375 
Q 56.984375 17.96875 50.515625 8.265625 
Q 44.046875 -1.421875 31.78125 -1.421875 
Q 19.53125 -1.421875 13.0625 8.265625 
Q 6.59375 17.96875 6.59375 36.375 
Q 6.59375 54.828125 13.0625 64.515625 
Q 19.53125 74.21875 31.78125 74.21875 
z
" id="DejaVuSans-30"/>
       <path d="M 10.6875 12.40625 
L 21 12.40625 
L 21 0 
L 10.6875 0 
z
" id="DejaVuSans-2e"/>
       <path d="M 12.40625 8.296875 
L 28.515625 8.296875 
L 28.515625 63.921875 
L 10.984375 60.40625 
L 10.984375 69.390625 
L 28.421875 72.90625 
L 38.28125 72.90625 
L 38.28125 8.296875 
L 54.390625 8.296875 
L 54.390625 0 
L 12.40625 0 
z
" id="DejaVuSans-31"/>
       <path d="M 10.796875 72.90625 
L 49.515625 72.90625 
L 49.515625 64.59375 
L 19.828125 64.59375 
L 19.828125 46.734375 
Q 21.96875 47.46875 24.109375 47.828125 
Q 26.265625 48.1875 28.421875 48.1875 
Q 40.625 48.1875 47.75 41.5 
Q 54.890625 34.8125 54.890625 23.390625 
Q 54.890625 11.625 47.5625 5.09375 
Q 40.234375 -1.421875 26.90625 -1.421875 
Q 22.3125 -1.421875 17.546875 -0.640625 
Q 12.796875 0.140625 7.71875 1.703125 
L 7.71875 11.625 
Q 12.109375 9.234375 16.796875 8.0625 
Q 21.484375 6.890625 26.703125 6.890625 
Q 35.15625 6.890625 40.078125 11.328125 
Q 45.015625 15.765625 45.015625 23.390625 
Q 45.015625 31 40.078125 35.4375 
Q 35.15625 39.890625 26.703125 39.890625 
Q 22.75 39.890625 18.8125 39.015625 
Q 14.890625 38.140625 10.796875 36.28125 
z
" id="DejaVuSans-35"/>
      </defs>
      <g transform="translate(7.2 327.563023)scale(0.22 -0.22)">
       <use xlink:href="#DejaVuSans-2212"/>
       <use x="83.789062" xlink:href="#DejaVuSans-30"/>
       <use x="147.412109" xlink:href="#DejaVuSans-2e"/>
       <use x="179.199219" xlink:href="#DejaVuSans-30"/>
       <use x="242.822266" xlink:href="#DejaVuSans-31"/>
       <use x="306.445312" xlink:href="#DejaVuSans-35"/>
      </g>
     </g>
    </g>
    <g id="ytick_2">
     <g id="line2d_2">
      <g>
       <use style="stroke:#000000;stroke-width:0.8;" x="95.617188" xlink:href="#ma7c2fbc962" y="269.215439"/>
      </g>
     </g>
     <g id="text_2">
      <!-- −0.010 -->
      <g transform="translate(7.2 277.57372)scale(0.22 -0.22)">
       <use xlink:href="#DejaVuSans-2212"/>
       <use x="83.789062" xlink:href="#DejaVuSans-30"/>
       <use x="147.412109" xlink:href="#DejaVuSans-2e"/>
       <use x="179.199219" xlink:href="#DejaVuSans-30"/>
       <use x="242.822266" xlink:href="#DejaVuSans-31"/>
       <use x="306.445312" xlink:href="#DejaVuSans-30"/>
      </g>
     </g>
    </g>
    <g id="ytick_3">
     <g id="line2d_3">
      <g>
       <use style="stroke:#000000;stroke-width:0.8;" x="95.617188" xlink:href="#ma7c2fbc962" y="219.226136"/>
      </g>
     </g>
     <g id="text_3">
      <!-- −0.005 -->
      <g transform="translate(7.2 227.584418)scale(0.22 -0.22)">
       <use xlink:href="#DejaVuSans-2212"/>
       <use x="83.789062" xlink:href="#DejaVuSans-30"/>
       <use x="147.412109" xlink:href="#DejaVuSans-2e"/>
       <use x="179.199219" xlink:href="#DejaVuSans-30"/>
       <use x="242.822266" xlink:href="#DejaVuSans-30"/>
       <use x="306.445312" xlink:href="#DejaVuSans-35"/>
      </g>
     </g>
    </g>
    <g id="ytick_4">
     <g id="line2d_4">
      <g>
       <use style="stroke:#000000;stroke-width:0.8;" x="95.617188" xlink:href="#ma7c2fbc962" y="169.236834"/>
      </g>
     </g>
     <g id="text_4">
      <!-- 0.000 -->
      <g transform="translate(25.635312 177.595115)scale(0.22 -0.22)">
       <use xlink:href="#DejaVuSans-30"/>
       <use x="63.623047" xlink:href="#DejaVuSans-2e"/>
       <use x="95.410156" xlink:href="#DejaVuSans-30"/>
       <use x="159.033203" xlink:href="#DejaVuSans-30"/>
       <use x="222.65625" xlink:href="#DejaVuSans-30"/>
      </g>
     </g>
    </g>
    <g id="ytick_5">
     <g id="line2d_5">
      <g>
       <use style="stroke:#000000;stroke-width:0.8;" x="95.617188" xlink:href="#ma7c2fbc962" y="119.247531"/>
      </g>
     </g>
     <g id="text_5">
      <!-- 0.005 -->
      <g transform="translate(25.635312 127.605812)scale(0.22 -0.22)">
       <use xlink:href="#DejaVuSans-30"/>
       <use x="63.623047" xlink:href="#DejaVuSans-2e"/>
       <use x="95.410156" xlink:href="#DejaVuSans-30"/>
       <use x="159.033203" xlink:href="#DejaVuSans-30"/>
       <use x="222.65625" xlink:href="#DejaVuSans-35"/>
      </g>
     </g>
    </g>
    <g id="ytick_6">
     <g id="line2d_6">
      <g>
       <use style="stroke:#000000;stroke-width:0.8;" x="95.617188" xlink:href="#ma7c2fbc962" y="69.258228"/>
      </g>
     </g>
     <g id="text_6">
      <!-- 0.010 -->
      <g transform="translate(25.635312 77.616509)scale(0.22 -0.22)">
       <use xlink:href="#DejaVuSans-30"/>
       <use x="63.623047" xlink:href="#DejaVuSans-2e"/>
       <use x="95.410156" xlink:href="#DejaVuSans-30"/>
       <use x="159.033203" xlink:href="#DejaVuSans-31"/>
       <use x="222.65625" xlink:href="#DejaVuSans-30"/>
      </g>
     </g>
    </g>
    <g id="ytick_7">
     <g id="line2d_7">
      <g>
       <use style="stroke:#000000;stroke-width:0.8;" x="95.617188" xlink:href="#ma7c2fbc962" y="19.268925"/>
      </g>
     </g>
     <g id="text_7">
      <!-- 0.015 -->
      <g transform="translate(25.635312 27.627207)scale(0.22 -0.22)">
       <use xlink:href="#DejaVuSans-30"/>
       <use x="63.623047" xlink:href="#DejaVuSans-2e"/>
       <use x="95.410156" xlink:href="#DejaVuSans-30"/>
       <use x="159.033203" xlink:href="#DejaVuSans-31"/>
       <use x="222.65625" xlink:href="#DejaVuSans-35"/>
      </g>
     </g>
    </g>
   </g>
   <g id="patch_3">
    <path d="M 95.617188 343.34 
L 95.617188 10.7 
" style="fill:none;stroke:#000000;stroke-linecap:square;stroke-linejoin:miter;stroke-width:0.8;"/>
   </g>
   <g id="patch_4">
    <path d="M 430.417188 343.34 
L 430.417188 10.7 
" style="fill:none;stroke:#000000;stroke-linecap:square;stroke-linejoin:miter;stroke-width:0.8;"/>
   </g>
   <g id="patch_5">
    <path d="M 95.617188 343.34 
L 430.417188 343.34 
" style="fill:none;stroke:#000000;stroke-linecap:square;stroke-linejoin:miter;stroke-width:0.8;"/>
   </g>
   <g id="patch_6">
    <path d="M 95.617188 10.7 
L 430.417188 10.7 
" style="fill:none;stroke:#000000;stroke-linecap:square;stroke-linejoin:miter;stroke-width:0.8;"/>
   </g>
  </g>
 </g>
 <defs>
  <clipPath id="p2187d3011c">
   <rect height="332.64" width="334.8" x="95.617188" y="10.7"/>
  </clipPath>
 </defs>
</svg>
