<?xml version="1.0" encoding="utf-8" standalone="no"?>
<!DOCTYPE svg PUBLIC "-//W3C//DTD SVG 1.1//EN"
  "http://www.w3.org/Graphics/SVG/1.1/DTD/svg11.dtd">
<!-- Created with matplotlib (http://matplotlib.org/) -->
<svg height="354pt" version="1.1" viewBox="0 0 427 354" width="427pt" xmlns="http://www.w3.org/2000/svg" xmlns:xlink="http://www.w3.org/1999/xlink">
 <defs>
  <style type="text/css">
*{stroke-linecap:butt;stroke-linejoin:round;}
  </style>
 </defs>
 <g id="figure_1">
  <g id="patch_1">
   <path d="M 0 354.04 
L 427.119687 354.04 
L 427.119687 0 
L 0 0 
z
" style="fill:#ffffff;"/>
  </g>
  <g id="axes_1">
   <g id="patch_2">
    <path d="M 81.619687 343.34 
L 416.419688 343.34 
L 416.419688 10.7 
L 81.619687 10.7 
z
" style="fill:#ffffff;"/>
   </g>
   <g id="PolyCollection_1">
    <defs>
     <path d="M 96.837869 -25.82 
L 96.837869 -152.603324 
L 100.14617 -152.603324 
L 103.45447 -152.603324 
L 106.762771 -152.603324 
L 110.071071 -152.603324 
L 113.379371 -152.603324 
L 116.687672 -152.603324 
L 119.995972 -152.603324 
L 123.304272 -152.603324 
L 126.612573 -152.603324 
L 129.920873 -152.603324 
L 133.229174 -152.603324 
L 136.537474 -152.603324 
L 139.845774 -152.603324 
L 143.154075 -152.603324 
L 146.462375 -152.603324 
L 149.770676 -152.603324 
L 153.078976 -152.603324 
L 156.387276 -152.603324 
L 159.695577 -152.603324 
L 163.003877 -152.603324 
L 166.312178 -152.603324 
L 169.620478 -152.603324 
L 172.928778 -152.603324 
L 176.237079 -152.603324 
L 179.545379 -152.603324 
L 182.85368 -152.603324 
L 186.16198 -152.603324 
L 189.47028 -152.603324 
L 192.778581 -152.603324 
L 196.086881 -152.603324 
L 199.395182 -152.603324 
L 202.703482 -152.603324 
L 206.011782 -152.603324 
L 209.320083 -152.603324 
L 212.628383 -152.603324 
L 215.936684 -152.603324 
L 219.244984 -152.603324 
L 222.553284 -152.603324 
L 225.861585 -152.603324 
L 229.169885 -152.603324 
L 232.478186 -152.603324 
L 235.786486 -152.603324 
L 239.094786 -152.603324 
L 242.403087 -152.603324 
L 245.711387 -152.603324 
L 249.019688 -152.603324 
L 252.327988 -152.603324 
L 255.636288 -152.603324 
L 258.944589 -152.603324 
L 262.252889 -152.603324 
L 265.561189 -152.603324 
L 268.86949 -152.603324 
L 272.17779 -152.603324 
L 275.486091 -152.603324 
L 278.794391 -152.603324 
L 282.102691 -152.603324 
L 285.410992 -152.603324 
L 288.719292 -152.603324 
L 292.027593 -152.603324 
L 295.335893 -152.603324 
L 298.644193 -152.603324 
L 301.952494 -152.603324 
L 305.260794 -152.603324 
L 308.569095 -152.603324 
L 311.877395 -152.603324 
L 315.185695 -152.603324 
L 318.493996 -152.603324 
L 321.802296 -152.603324 
L 325.110597 -152.603324 
L 328.418897 -152.603324 
L 331.727197 -152.603324 
L 335.035498 -152.603324 
L 338.343798 -152.603324 
L 341.652099 -152.603324 
L 344.960399 -152.603324 
L 348.268699 -152.603324 
L 351.577 -152.603324 
L 354.8853 -152.603324 
L 358.193601 -152.603324 
L 361.501901 -152.603324 
L 364.810201 -152.603324 
L 368.118502 -152.603324 
L 371.426802 -152.603324 
L 374.735103 -152.603324 
L 378.043403 -152.603324 
L 381.351703 -152.603324 
L 384.660004 -152.603324 
L 387.968304 -152.603324 
L 391.276604 -152.603324 
L 394.584905 -152.603324 
L 397.893205 -152.603324 
L 401.201506 -152.603324 
L 401.201506 -328.22 
L 401.201506 -328.22 
L 397.893205 -326.554818 
L 394.584905 -278.618548 
L 391.276604 -261.391671 
L 387.968304 -260.525035 
L 384.660004 -251.415284 
L 381.351703 -233.600318 
L 378.043403 -226.232168 
L 374.735103 -222.735226 
L 371.426802 -211.466409 
L 368.118502 -205.270034 
L 364.810201 -205.189743 
L 361.501901 -201.230737 
L 358.193601 -189.248385 
L 354.8853 -183.217526 
L 351.577 -177.180703 
L 348.268699 -176.179824 
L 344.960399 -175.899597 
L 341.652099 -168.020611 
L 338.343798 -167.056306 
L 335.035498 -164.09766 
L 331.727197 -160.000515 
L 328.418897 -158.143517 
L 325.110597 -157.87902 
L 321.802296 -156.545725 
L 318.493996 -155.819711 
L 315.185695 -155.249535 
L 311.877395 -155.124669 
L 308.569095 -155.047186 
L 305.260794 -155.040162 
L 301.952494 -154.597368 
L 298.644193 -154.117128 
L 295.335893 -153.574966 
L 292.027593 -153.23758 
L 288.719292 -153.162316 
L 285.410992 -153.15653 
L 282.102691 -152.980226 
L 278.794391 -152.76301 
L 275.486091 -152.747782 
L 272.17779 -152.732172 
L 268.86949 -152.711859 
L 265.561189 -152.697722 
L 262.252889 -152.663017 
L 258.944589 -152.661679 
L 255.636288 -152.652878 
L 252.327988 -152.645742 
L 249.019688 -152.644266 
L 245.711387 -152.637257 
L 242.403087 -152.631019 
L 239.094786 -152.628121 
L 235.786486 -152.619 
L 232.478186 -152.608473 
L 229.169885 -152.602714 
L 225.861585 -152.588939 
L 222.553284 -152.573391 
L 219.244984 -152.545143 
L 215.936684 -152.542673 
L 212.628383 -152.505809 
L 209.320083 -152.477571 
L 206.011782 -152.436778 
L 202.703482 -152.43335 
L 199.395182 -152.390621 
L 196.086881 -152.340725 
L 192.778581 -151.754767 
L 189.47028 -151.699004 
L 186.16198 -151.553081 
L 182.85368 -151.549735 
L 179.545379 -151.384949 
L 176.237079 -151.056275 
L 172.928778 -151.042328 
L 169.620478 -150.959543 
L 166.312178 -150.44334 
L 163.003877 -150.27418 
L 159.695577 -150.260622 
L 156.387276 -148.316023 
L 153.078976 -147.050714 
L 149.770676 -146.237745 
L 146.462375 -145.627673 
L 143.154075 -143.938665 
L 139.845774 -143.535973 
L 136.537474 -137.050425 
L 133.229174 -127.203762 
L 129.920873 -125.080419 
L 126.612573 -120.266845 
L 123.304272 -118.089226 
L 119.995972 -116.154594 
L 116.687672 -106.096671 
L 113.379371 -98.741195 
L 110.071071 -96.73498 
L 106.762771 -95.854908 
L 103.45447 -92.811055 
L 100.14617 -83.051638 
L 96.837869 -25.82 
z
" id="md71dfe1c0f" style="stroke:#4a98c9;"/>
    </defs>
    <g clip-path="url(#p6871391b39)">
     <use style="fill:#4a98c9;stroke:#4a98c9;" x="0" xlink:href="#md71dfe1c0f" y="354.04"/>
    </g>
   </g>
   <g id="PolyCollection_2">
    <defs>
     <path d="M 96.837869 -119.957795 
L 96.837869 -152.603324 
L 100.14617 -152.603324 
L 103.45447 -152.603324 
L 106.762771 -152.603324 
L 110.071071 -152.603324 
L 113.379371 -152.603324 
L 116.687672 -152.603324 
L 119.995972 -152.603324 
L 123.304272 -152.603324 
L 126.612573 -152.603324 
L 129.920873 -152.603324 
L 133.229174 -152.603324 
L 136.537474 -152.603324 
L 139.845774 -152.603324 
L 143.154075 -152.603324 
L 146.462375 -152.603324 
L 149.770676 -152.603324 
L 153.078976 -152.603324 
L 156.387276 -152.603324 
L 159.695577 -152.603324 
L 163.003877 -152.603324 
L 166.312178 -152.603324 
L 169.620478 -152.603324 
L 172.928778 -152.603324 
L 176.237079 -152.603324 
L 179.545379 -152.603324 
L 182.85368 -152.603324 
L 186.16198 -152.603324 
L 189.47028 -152.603324 
L 192.778581 -152.603324 
L 196.086881 -152.603324 
L 199.395182 -152.603324 
L 202.703482 -152.603324 
L 206.011782 -152.603324 
L 209.320083 -152.603324 
L 212.628383 -152.603324 
L 215.936684 -152.603324 
L 219.244984 -152.603324 
L 222.553284 -152.603324 
L 225.861585 -152.603324 
L 229.169885 -152.603324 
L 232.478186 -152.603324 
L 235.786486 -152.603324 
L 239.094786 -152.603324 
L 242.403087 -152.603324 
L 245.711387 -152.603324 
L 249.019688 -152.603324 
L 252.327988 -152.603324 
L 255.636288 -152.603324 
L 258.944589 -152.603324 
L 262.252889 -152.603324 
L 265.561189 -152.603324 
L 268.86949 -152.603324 
L 272.17779 -152.603324 
L 275.486091 -152.603324 
L 278.794391 -152.603324 
L 282.102691 -152.603324 
L 285.410992 -152.603324 
L 288.719292 -152.603324 
L 292.027593 -152.603324 
L 295.335893 -152.603324 
L 298.644193 -152.603324 
L 301.952494 -152.603324 
L 305.260794 -152.603324 
L 308.569095 -152.603324 
L 311.877395 -152.603324 
L 315.185695 -152.603324 
L 318.493996 -152.603324 
L 321.802296 -152.603324 
L 325.110597 -152.603324 
L 328.418897 -152.603324 
L 331.727197 -152.603324 
L 335.035498 -152.603324 
L 338.343798 -152.603324 
L 341.652099 -152.603324 
L 344.960399 -152.603324 
L 348.268699 -152.603324 
L 351.577 -152.603324 
L 354.8853 -152.603324 
L 358.193601 -152.603324 
L 361.501901 -152.603324 
L 364.810201 -152.603324 
L 368.118502 -152.603324 
L 371.426802 -152.603324 
L 374.735103 -152.603324 
L 378.043403 -152.603324 
L 381.351703 -152.603324 
L 384.660004 -152.603324 
L 387.968304 -152.603324 
L 391.276604 -152.603324 
L 394.584905 -152.603324 
L 397.893205 -152.603324 
L 401.201506 -152.603324 
L 401.201506 -196.617272 
L 401.201506 -196.617272 
L 397.893205 -196.615115 
L 394.584905 -182.022555 
L 391.276604 -180.389738 
L 387.968304 -179.921643 
L 384.660004 -172.571377 
L 381.351703 -171.221594 
L 378.043403 -170.260139 
L 374.735103 -168.027169 
L 371.426802 -167.983526 
L 368.118502 -167.9232 
L 364.810201 -163.147456 
L 361.501901 -162.952602 
L 358.193601 -161.4034 
L 354.8853 -160.9793 
L 351.577 -158.977251 
L 348.268699 -157.563399 
L 344.960399 -156.845224 
L 341.652099 -156.379275 
L 338.343798 -155.981181 
L 335.035498 -155.440189 
L 331.727197 -155.355959 
L 328.418897 -155.289923 
L 325.110597 -154.782612 
L 321.802296 -154.238402 
L 318.493996 -154.170119 
L 315.185695 -153.878127 
L 311.877395 -153.808438 
L 308.569095 -153.460846 
L 305.260794 -153.043844 
L 301.952494 -152.988268 
L 298.644193 -152.919473 
L 295.335893 -152.91389 
L 292.027593 -152.88812 
L 288.719292 -152.855163 
L 285.410992 -152.816897 
L 282.102691 -152.78618 
L 278.794391 -152.763824 
L 275.486091 -152.753746 
L 272.17779 -152.712928 
L 268.86949 -152.684846 
L 265.561189 -152.664508 
L 262.252889 -152.657801 
L 258.944589 -152.654851 
L 255.636288 -152.654122 
L 252.327988 -152.647283 
L 249.019688 -152.644402 
L 245.711387 -152.642311 
L 242.403087 -152.641503 
L 239.094786 -152.630178 
L 235.786486 -152.625283 
L 232.478186 -152.612813 
L 229.169885 -152.5884 
L 225.861585 -152.582714 
L 222.553284 -152.582656 
L 219.244984 -152.58219 
L 215.936684 -152.570996 
L 212.628383 -152.529636 
L 209.320083 -152.529282 
L 206.011782 -152.525965 
L 202.703482 -152.51545 
L 199.395182 -152.506539 
L 196.086881 -152.501124 
L 192.778581 -152.481953 
L 189.47028 -152.458387 
L 186.16198 -152.439422 
L 182.85368 -152.424236 
L 179.545379 -152.422218 
L 176.237079 -152.354319 
L 172.928778 -152.285459 
L 169.620478 -152.162111 
L 166.312178 -151.851004 
L 163.003877 -151.499823 
L 159.695577 -150.278883 
L 156.387276 -150.20083 
L 153.078976 -150.001436 
L 149.770676 -149.41479 
L 146.462375 -148.937683 
L 143.154075 -148.858796 
L 139.845774 -147.999295 
L 136.537474 -147.522961 
L 133.229174 -147.004141 
L 129.920873 -146.95666 
L 126.612573 -146.469294 
L 123.304272 -145.168442 
L 119.995972 -144.558967 
L 116.687672 -142.489487 
L 113.379371 -141.186734 
L 110.071071 -138.995796 
L 106.762771 -138.295205 
L 103.45447 -136.224216 
L 100.14617 -135.373256 
L 96.837869 -119.957795 
z
" id="mb5e87bc2a3" style="stroke:#f14432;stroke-opacity:0.8;"/>
    </defs>
    <g clip-path="url(#p6871391b39)">
     <use style="fill:#f14432;fill-opacity:0.8;stroke:#f14432;stroke-opacity:0.8;" x="0" xlink:href="#mb5e87bc2a3" y="354.04"/>
    </g>
   </g>
   <g id="matplotlib.axis_1"/>
   <g id="matplotlib.axis_2">
    <g id="ytick_1">
     <g id="line2d_1">
      <defs>
       <path d="M 0 0 
L -3.5 0 
" id="m996888ce2b" style="stroke:#000000;stroke-width:0.8;"/>
      </defs>
      <g>
       <use style="stroke:#000000;stroke-width:0.8;" x="81.619687" xlink:href="#m996888ce2b" y="305.677316"/>
      </g>
     </g>
     <g id="text_1">
      <!-- −0.10 -->
      <defs>
       <path d="M 10.59375 35.5 
L 73.1875 35.5 
L 73.1875 27.203125 
L 10.59375 27.203125 
z
" id="DejaVuSans-2212"/>
       <path d="M 31.78125 66.40625 
Q 24.171875 66.40625 20.328125 58.90625 
Q 16.5 51.421875 16.5 36.375 
Q 16.5 21.390625 20.328125 13.890625 
Q 24.171875 6.390625 31.78125 6.390625 
Q 39.453125 6.390625 43.28125 13.890625 
Q 47.125 21.390625 47.125 36.375 
Q 47.125 51.421875 43.28125 58.90625 
Q 39.453125 66.40625 31.78125 66.40625 
z
M 31.78125 74.21875 
Q 44.046875 74.21875 50.515625 64.515625 
Q 56.984375 54.828125 56.984375 36.375 
Q 56.984375 17.96875 50.515625 8.265625 
Q 44.046875 -1.421875 31.78125 -1.421875 
Q 19.53125 -1.421875 13.0625 8.265625 
Q 6.59375 17.96875 6.59375 36.375 
Q 6.59375 54.828125 13.0625 64.515625 
Q 19.53125 74.21875 31.78125 74.21875 
z
" id="DejaVuSans-30"/>
       <path d="M 10.6875 12.40625 
L 21 12.40625 
L 21 0 
L 10.6875 0 
z
" id="DejaVuSans-2e"/>
       <path d="M 12.40625 8.296875 
L 28.515625 8.296875 
L 28.515625 63.921875 
L 10.984375 60.40625 
L 10.984375 69.390625 
L 28.421875 72.90625 
L 38.28125 72.90625 
L 38.28125 8.296875 
L 54.390625 8.296875 
L 54.390625 0 
L 12.40625 0 
z
" id="DejaVuSans-31"/>
      </defs>
      <g transform="translate(7.2 314.035598)scale(0.22 -0.22)">
       <use xlink:href="#DejaVuSans-2212"/>
       <use x="83.789062" xlink:href="#DejaVuSans-30"/>
       <use x="147.412109" xlink:href="#DejaVuSans-2e"/>
       <use x="179.199219" xlink:href="#DejaVuSans-31"/>
       <use x="242.822266" xlink:href="#DejaVuSans-30"/>
      </g>
     </g>
    </g>
    <g id="ytick_2">
     <g id="line2d_2">
      <g>
       <use style="stroke:#000000;stroke-width:0.8;" x="81.619687" xlink:href="#m996888ce2b" y="253.556996"/>
      </g>
     </g>
     <g id="text_2">
      <!-- −0.05 -->
      <defs>
       <path d="M 10.796875 72.90625 
L 49.515625 72.90625 
L 49.515625 64.59375 
L 19.828125 64.59375 
L 19.828125 46.734375 
Q 21.96875 47.46875 24.109375 47.828125 
Q 26.265625 48.1875 28.421875 48.1875 
Q 40.625 48.1875 47.75 41.5 
Q 54.890625 34.8125 54.890625 23.390625 
Q 54.890625 11.625 47.5625 5.09375 
Q 40.234375 -1.421875 26.90625 -1.421875 
Q 22.3125 -1.421875 17.546875 -0.640625 
Q 12.796875 0.140625 7.71875 1.703125 
L 7.71875 11.625 
Q 12.109375 9.234375 16.796875 8.0625 
Q 21.484375 6.890625 26.703125 6.890625 
Q 35.15625 6.890625 40.078125 11.328125 
Q 45.015625 15.765625 45.015625 23.390625 
Q 45.015625 31 40.078125 35.4375 
Q 35.15625 39.890625 26.703125 39.890625 
Q 22.75 39.890625 18.8125 39.015625 
Q 14.890625 38.140625 10.796875 36.28125 
z
" id="DejaVuSans-35"/>
      </defs>
      <g transform="translate(7.2 261.915278)scale(0.22 -0.22)">
       <use xlink:href="#DejaVuSans-2212"/>
       <use x="83.789062" xlink:href="#DejaVuSans-30"/>
       <use x="147.412109" xlink:href="#DejaVuSans-2e"/>
       <use x="179.199219" xlink:href="#DejaVuSans-30"/>
       <use x="242.822266" xlink:href="#DejaVuSans-35"/>
      </g>
     </g>
    </g>
    <g id="ytick_3">
     <g id="line2d_3">
      <g>
       <use style="stroke:#000000;stroke-width:0.8;" x="81.619687" xlink:href="#m996888ce2b" y="201.436676"/>
      </g>
     </g>
     <g id="text_3">
      <!-- 0.00 -->
      <g transform="translate(25.635312 209.794957)scale(0.22 -0.22)">
       <use xlink:href="#DejaVuSans-30"/>
       <use x="63.623047" xlink:href="#DejaVuSans-2e"/>
       <use x="95.410156" xlink:href="#DejaVuSans-30"/>
       <use x="159.033203" xlink:href="#DejaVuSans-30"/>
      </g>
     </g>
    </g>
    <g id="ytick_4">
     <g id="line2d_4">
      <g>
       <use style="stroke:#000000;stroke-width:0.8;" x="81.619687" xlink:href="#m996888ce2b" y="149.316356"/>
      </g>
     </g>
     <g id="text_4">
      <!-- 0.05 -->
      <g transform="translate(25.635312 157.674637)scale(0.22 -0.22)">
       <use xlink:href="#DejaVuSans-30"/>
       <use x="63.623047" xlink:href="#DejaVuSans-2e"/>
       <use x="95.410156" xlink:href="#DejaVuSans-30"/>
       <use x="159.033203" xlink:href="#DejaVuSans-35"/>
      </g>
     </g>
    </g>
    <g id="ytick_5">
     <g id="line2d_5">
      <g>
       <use style="stroke:#000000;stroke-width:0.8;" x="81.619687" xlink:href="#m996888ce2b" y="97.196036"/>
      </g>
     </g>
     <g id="text_5">
      <!-- 0.10 -->
      <g transform="translate(25.635312 105.554317)scale(0.22 -0.22)">
       <use xlink:href="#DejaVuSans-30"/>
       <use x="63.623047" xlink:href="#DejaVuSans-2e"/>
       <use x="95.410156" xlink:href="#DejaVuSans-31"/>
       <use x="159.033203" xlink:href="#DejaVuSans-30"/>
      </g>
     </g>
    </g>
    <g id="ytick_6">
     <g id="line2d_6">
      <g>
       <use style="stroke:#000000;stroke-width:0.8;" x="81.619687" xlink:href="#m996888ce2b" y="45.075715"/>
      </g>
     </g>
     <g id="text_6">
      <!-- 0.15 -->
      <g transform="translate(25.635312 53.433997)scale(0.22 -0.22)">
       <use xlink:href="#DejaVuSans-30"/>
       <use x="63.623047" xlink:href="#DejaVuSans-2e"/>
       <use x="95.410156" xlink:href="#DejaVuSans-31"/>
       <use x="159.033203" xlink:href="#DejaVuSans-35"/>
      </g>
     </g>
    </g>
   </g>
   <g id="patch_3">
    <path d="M 81.619687 343.34 
L 81.619687 10.7 
" style="fill:none;stroke:#000000;stroke-linecap:square;stroke-linejoin:miter;stroke-width:0.8;"/>
   </g>
   <g id="patch_4">
    <path d="M 416.419688 343.34 
L 416.419688 10.7 
" style="fill:none;stroke:#000000;stroke-linecap:square;stroke-linejoin:miter;stroke-width:0.8;"/>
   </g>
   <g id="patch_5">
    <path d="M 81.619687 343.34 
L 416.419688 343.34 
" style="fill:none;stroke:#000000;stroke-linecap:square;stroke-linejoin:miter;stroke-width:0.8;"/>
   </g>
   <g id="patch_6">
    <path d="M 81.619687 10.7 
L 416.419688 10.7 
" style="fill:none;stroke:#000000;stroke-linecap:square;stroke-linejoin:miter;stroke-width:0.8;"/>
   </g>
  </g>
 </g>
 <defs>
  <clipPath id="p6871391b39">
   <rect height="332.64" width="334.8" x="81.619687" y="10.7"/>
  </clipPath>
 </defs>
</svg>
