<?xml version="1.0" encoding="utf-8" standalone="no"?>
<!DOCTYPE svg PUBLIC "-//W3C//DTD SVG 1.1//EN"
  "http://www.w3.org/Graphics/SVG/1.1/DTD/svg11.dtd">
<!-- Created with matplotlib (http://matplotlib.org/) -->
<svg height="354pt" version="1.1" viewBox="0 0 427 354" width="427pt" xmlns="http://www.w3.org/2000/svg" xmlns:xlink="http://www.w3.org/1999/xlink">
 <defs>
  <style type="text/css">
*{stroke-linecap:butt;stroke-linejoin:round;}
  </style>
 </defs>
 <g id="figure_1">
  <g id="patch_1">
   <path d="M 0 354.04 
L 427.119687 354.04 
L 427.119687 0 
L 0 0 
z
" style="fill:#ffffff;"/>
  </g>
  <g id="axes_1">
   <g id="patch_2">
    <path d="M 81.619687 343.34 
L 416.419688 343.34 
L 416.419688 10.7 
L 81.619687 10.7 
z
" style="fill:#ffffff;"/>
   </g>
   <g id="PolyCollection_1">
    <defs>
     <path d="M 96.837869 -25.82 
L 96.837869 -129.535218 
L 100.14617 -129.535218 
L 103.45447 -129.535218 
L 106.762771 -129.535218 
L 110.071071 -129.535218 
L 113.379371 -129.535218 
L 116.687672 -129.535218 
L 119.995972 -129.535218 
L 123.304272 -129.535218 
L 126.612573 -129.535218 
L 129.920873 -129.535218 
L 133.229174 -129.535218 
L 136.537474 -129.535218 
L 139.845774 -129.535218 
L 143.154075 -129.535218 
L 146.462375 -129.535218 
L 149.770676 -129.535218 
L 153.078976 -129.535218 
L 156.387276 -129.535218 
L 159.695577 -129.535218 
L 163.003877 -129.535218 
L 166.312178 -129.535218 
L 169.620478 -129.535218 
L 172.928778 -129.535218 
L 176.237079 -129.535218 
L 179.545379 -129.535218 
L 182.85368 -129.535218 
L 186.16198 -129.535218 
L 189.47028 -129.535218 
L 192.778581 -129.535218 
L 196.086881 -129.535218 
L 199.395182 -129.535218 
L 202.703482 -129.535218 
L 206.011782 -129.535218 
L 209.320083 -129.535218 
L 212.628383 -129.535218 
L 215.936684 -129.535218 
L 219.244984 -129.535218 
L 222.553284 -129.535218 
L 225.861585 -129.535218 
L 229.169885 -129.535218 
L 232.478186 -129.535218 
L 235.786486 -129.535218 
L 239.094786 -129.535218 
L 242.403087 -129.535218 
L 245.711387 -129.535218 
L 249.019688 -129.535218 
L 252.327988 -129.535218 
L 255.636288 -129.535218 
L 258.944589 -129.535218 
L 262.252889 -129.535218 
L 265.561189 -129.535218 
L 268.86949 -129.535218 
L 272.17779 -129.535218 
L 275.486091 -129.535218 
L 278.794391 -129.535218 
L 282.102691 -129.535218 
L 285.410992 -129.535218 
L 288.719292 -129.535218 
L 292.027593 -129.535218 
L 295.335893 -129.535218 
L 298.644193 -129.535218 
L 301.952494 -129.535218 
L 305.260794 -129.535218 
L 308.569095 -129.535218 
L 311.877395 -129.535218 
L 315.185695 -129.535218 
L 318.493996 -129.535218 
L 321.802296 -129.535218 
L 325.110597 -129.535218 
L 328.418897 -129.535218 
L 331.727197 -129.535218 
L 335.035498 -129.535218 
L 338.343798 -129.535218 
L 341.652099 -129.535218 
L 344.960399 -129.535218 
L 348.268699 -129.535218 
L 351.577 -129.535218 
L 354.8853 -129.535218 
L 358.193601 -129.535218 
L 361.501901 -129.535218 
L 364.810201 -129.535218 
L 368.118502 -129.535218 
L 371.426802 -129.535218 
L 374.735103 -129.535218 
L 378.043403 -129.535218 
L 381.351703 -129.535218 
L 384.660004 -129.535218 
L 387.968304 -129.535218 
L 391.276604 -129.535218 
L 394.584905 -129.535218 
L 397.893205 -129.535218 
L 401.201506 -129.535218 
L 401.201506 -328.22 
L 401.201506 -328.22 
L 397.893205 -259.776673 
L 394.584905 -259.229207 
L 391.276604 -251.41004 
L 387.968304 -250.841541 
L 384.660004 -226.421166 
L 381.351703 -225.571579 
L 378.043403 -222.538463 
L 374.735103 -220.543385 
L 371.426802 -203.549693 
L 368.118502 -187.189328 
L 364.810201 -181.516421 
L 361.501901 -180.461976 
L 358.193601 -174.957441 
L 354.8853 -173.033106 
L 351.577 -166.01646 
L 348.268699 -159.936844 
L 344.960399 -159.817779 
L 341.652099 -157.78535 
L 338.343798 -157.442305 
L 335.035498 -151.052224 
L 331.727197 -147.141463 
L 328.418897 -146.233696 
L 325.110597 -144.722344 
L 321.802296 -135.032361 
L 318.493996 -134.485722 
L 315.185695 -132.715822 
L 311.877395 -132.257936 
L 308.569095 -131.808196 
L 305.260794 -131.754593 
L 301.952494 -131.32059 
L 298.644193 -131.21321 
L 295.335893 -130.955117 
L 292.027593 -130.790208 
L 288.719292 -130.697584 
L 285.410992 -130.469644 
L 282.102691 -130.422365 
L 278.794391 -130.418907 
L 275.486091 -130.366963 
L 272.17779 -130.35875 
L 268.86949 -130.322891 
L 265.561189 -130.318454 
L 262.252889 -130.216396 
L 258.944589 -130.104389 
L 255.636288 -130.009993 
L 252.327988 -129.996063 
L 249.019688 -129.983556 
L 245.711387 -129.861326 
L 242.403087 -129.801233 
L 239.094786 -129.763321 
L 235.786486 -129.756332 
L 232.478186 -129.737778 
L 229.169885 -129.696406 
L 225.861585 -129.603641 
L 222.553284 -129.559123 
L 219.244984 -129.489798 
L 215.936684 -129.471219 
L 212.628383 -129.444042 
L 209.320083 -129.248606 
L 206.011782 -129.208913 
L 202.703482 -129.140893 
L 199.395182 -129.138037 
L 196.086881 -129.066772 
L 192.778581 -128.906793 
L 189.47028 -128.777825 
L 186.16198 -128.679061 
L 182.85368 -128.661935 
L 179.545379 -128.526238 
L 176.237079 -128.51566 
L 172.928778 -128.379366 
L 169.620478 -128.089538 
L 166.312178 -128.053602 
L 163.003877 -124.24622 
L 159.695577 -123.793369 
L 156.387276 -118.336985 
L 153.078976 -111.296323 
L 149.770676 -103.872216 
L 146.462375 -99.915959 
L 143.154075 -99.115082 
L 139.845774 -98.733055 
L 136.537474 -98.447362 
L 133.229174 -98.032304 
L 129.920873 -96.247648 
L 126.612573 -95.318465 
L 123.304272 -92.124311 
L 119.995972 -91.157326 
L 116.687672 -83.130241 
L 113.379371 -73.176896 
L 110.071071 -69.415954 
L 106.762771 -60.177729 
L 103.45447 -52.41324 
L 100.14617 -40.581309 
L 96.837869 -25.82 
z
" id="m28154d6c13" style="stroke:#4a98c9;"/>
    </defs>
    <g clip-path="url(#p4e02048bfc)">
     <use style="fill:#4a98c9;stroke:#4a98c9;" x="0" xlink:href="#m28154d6c13" y="354.04"/>
    </g>
   </g>
   <g id="PolyCollection_2">
    <defs>
     <path d="M 96.837869 -96.248923 
L 96.837869 -129.535218 
L 100.14617 -129.535218 
L 103.45447 -129.535218 
L 106.762771 -129.535218 
L 110.071071 -129.535218 
L 113.379371 -129.535218 
L 116.687672 -129.535218 
L 119.995972 -129.535218 
L 123.304272 -129.535218 
L 126.612573 -129.535218 
L 129.920873 -129.535218 
L 133.229174 -129.535218 
L 136.537474 -129.535218 
L 139.845774 -129.535218 
L 143.154075 -129.535218 
L 146.462375 -129.535218 
L 149.770676 -129.535218 
L 153.078976 -129.535218 
L 156.387276 -129.535218 
L 159.695577 -129.535218 
L 163.003877 -129.535218 
L 166.312178 -129.535218 
L 169.620478 -129.535218 
L 172.928778 -129.535218 
L 176.237079 -129.535218 
L 179.545379 -129.535218 
L 182.85368 -129.535218 
L 186.16198 -129.535218 
L 189.47028 -129.535218 
L 192.778581 -129.535218 
L 196.086881 -129.535218 
L 199.395182 -129.535218 
L 202.703482 -129.535218 
L 206.011782 -129.535218 
L 209.320083 -129.535218 
L 212.628383 -129.535218 
L 215.936684 -129.535218 
L 219.244984 -129.535218 
L 222.553284 -129.535218 
L 225.861585 -129.535218 
L 229.169885 -129.535218 
L 232.478186 -129.535218 
L 235.786486 -129.535218 
L 239.094786 -129.535218 
L 242.403087 -129.535218 
L 245.711387 -129.535218 
L 249.019688 -129.535218 
L 252.327988 -129.535218 
L 255.636288 -129.535218 
L 258.944589 -129.535218 
L 262.252889 -129.535218 
L 265.561189 -129.535218 
L 268.86949 -129.535218 
L 272.17779 -129.535218 
L 275.486091 -129.535218 
L 278.794391 -129.535218 
L 282.102691 -129.535218 
L 285.410992 -129.535218 
L 288.719292 -129.535218 
L 292.027593 -129.535218 
L 295.335893 -129.535218 
L 298.644193 -129.535218 
L 301.952494 -129.535218 
L 305.260794 -129.535218 
L 308.569095 -129.535218 
L 311.877395 -129.535218 
L 315.185695 -129.535218 
L 318.493996 -129.535218 
L 321.802296 -129.535218 
L 325.110597 -129.535218 
L 328.418897 -129.535218 
L 331.727197 -129.535218 
L 335.035498 -129.535218 
L 338.343798 -129.535218 
L 341.652099 -129.535218 
L 344.960399 -129.535218 
L 348.268699 -129.535218 
L 351.577 -129.535218 
L 354.8853 -129.535218 
L 358.193601 -129.535218 
L 361.501901 -129.535218 
L 364.810201 -129.535218 
L 368.118502 -129.535218 
L 371.426802 -129.535218 
L 374.735103 -129.535218 
L 378.043403 -129.535218 
L 381.351703 -129.535218 
L 384.660004 -129.535218 
L 387.968304 -129.535218 
L 391.276604 -129.535218 
L 394.584905 -129.535218 
L 397.893205 -129.535218 
L 401.201506 -129.535218 
L 401.201506 -183.615012 
L 401.201506 -183.615012 
L 397.893205 -162.572699 
L 394.584905 -162.088639 
L 391.276604 -160.265195 
L 387.968304 -157.39423 
L 384.660004 -157.150252 
L 381.351703 -156.811907 
L 378.043403 -153.972617 
L 374.735103 -152.780643 
L 371.426802 -148.999989 
L 368.118502 -145.409202 
L 364.810201 -144.602248 
L 361.501901 -140.371917 
L 358.193601 -139.062214 
L 354.8853 -138.610391 
L 351.577 -138.573264 
L 348.268699 -138.49375 
L 344.960399 -138.080301 
L 341.652099 -137.511488 
L 338.343798 -135.329259 
L 335.035498 -134.556452 
L 331.727197 -134.478041 
L 328.418897 -133.441453 
L 325.110597 -133.204818 
L 321.802296 -132.857337 
L 318.493996 -132.337575 
L 315.185695 -132.287167 
L 311.877395 -131.869897 
L 308.569095 -131.583823 
L 305.260794 -131.052616 
L 301.952494 -130.7371 
L 298.644193 -130.604686 
L 295.335893 -130.560263 
L 292.027593 -130.530092 
L 288.719292 -130.382822 
L 285.410992 -130.35881 
L 282.102691 -130.283792 
L 278.794391 -130.271527 
L 275.486091 -130.212448 
L 272.17779 -130.176548 
L 268.86949 -130.093654 
L 265.561189 -129.852703 
L 262.252889 -129.844955 
L 258.944589 -129.844381 
L 255.636288 -129.798048 
L 252.327988 -129.744648 
L 249.019688 -129.724164 
L 245.711387 -129.721466 
L 242.403087 -129.713472 
L 239.094786 -129.704301 
L 235.786486 -129.691121 
L 232.478186 -129.671109 
L 229.169885 -129.664654 
L 225.861585 -129.597518 
L 222.553284 -129.485897 
L 219.244984 -129.478993 
L 215.936684 -129.446355 
L 212.628383 -129.402651 
L 209.320083 -129.387742 
L 206.011782 -129.362596 
L 202.703482 -129.243152 
L 199.395182 -129.134702 
L 196.086881 -129.128089 
L 192.778581 -129.027405 
L 189.47028 -128.866479 
L 186.16198 -128.663729 
L 182.85368 -128.624065 
L 179.545379 -128.577115 
L 176.237079 -128.523672 
L 172.928778 -128.359798 
L 169.620478 -128.101338 
L 166.312178 -128.053811 
L 163.003877 -127.895296 
L 159.695577 -127.438802 
L 156.387276 -127.074063 
L 153.078976 -124.974978 
L 149.770676 -124.793831 
L 146.462375 -124.720674 
L 143.154075 -124.271135 
L 139.845774 -121.632136 
L 136.537474 -120.612168 
L 133.229174 -120.178216 
L 129.920873 -119.182386 
L 126.612573 -118.78478 
L 123.304272 -118.350286 
L 119.995972 -116.246944 
L 116.687672 -116.028122 
L 113.379371 -115.415314 
L 110.071071 -113.860169 
L 106.762771 -113.681932 
L 103.45447 -106.870493 
L 100.14617 -105.559294 
L 96.837869 -96.248923 
z
" id="m4c01097a85" style="stroke:#f14432;stroke-opacity:0.8;"/>
    </defs>
    <g clip-path="url(#p4e02048bfc)">
     <use style="fill:#f14432;fill-opacity:0.8;stroke:#f14432;stroke-opacity:0.8;" x="0" xlink:href="#m4c01097a85" y="354.04"/>
    </g>
   </g>
   <g id="matplotlib.axis_1"/>
   <g id="matplotlib.axis_2">
    <g id="ytick_1">
     <g id="line2d_1">
      <defs>
       <path d="M 0 0 
L -3.5 0 
" id="m3783e2cd40" style="stroke:#000000;stroke-width:0.8;"/>
      </defs>
      <g>
       <use style="stroke:#000000;stroke-width:0.8;" x="81.619687" xlink:href="#m3783e2cd40" y="333.852874"/>
      </g>
     </g>
     <g id="text_1">
      <!-- −0.02 -->
      <defs>
       <path d="M 10.59375 35.5 
L 73.1875 35.5 
L 73.1875 27.203125 
L 10.59375 27.203125 
z
" id="DejaVuSans-2212"/>
       <path d="M 31.78125 66.40625 
Q 24.171875 66.40625 20.328125 58.90625 
Q 16.5 51.421875 16.5 36.375 
Q 16.5 21.390625 20.328125 13.890625 
Q 24.171875 6.390625 31.78125 6.390625 
Q 39.453125 6.390625 43.28125 13.890625 
Q 47.125 21.390625 47.125 36.375 
Q 47.125 51.421875 43.28125 58.90625 
Q 39.453125 66.40625 31.78125 66.40625 
z
M 31.78125 74.21875 
Q 44.046875 74.21875 50.515625 64.515625 
Q 56.984375 54.828125 56.984375 36.375 
Q 56.984375 17.96875 50.515625 8.265625 
Q 44.046875 -1.421875 31.78125 -1.421875 
Q 19.53125 -1.421875 13.0625 8.265625 
Q 6.59375 17.96875 6.59375 36.375 
Q 6.59375 54.828125 13.0625 64.515625 
Q 19.53125 74.21875 31.78125 74.21875 
z
" id="DejaVuSans-30"/>
       <path d="M 10.6875 12.40625 
L 21 12.40625 
L 21 0 
L 10.6875 0 
z
" id="DejaVuSans-2e"/>
       <path d="M 19.1875 8.296875 
L 53.609375 8.296875 
L 53.609375 0 
L 7.328125 0 
L 7.328125 8.296875 
Q 12.9375 14.109375 22.625 23.890625 
Q 32.328125 33.6875 34.8125 36.53125 
Q 39.546875 41.84375 41.421875 45.53125 
Q 43.3125 49.21875 43.3125 52.78125 
Q 43.3125 58.59375 39.234375 62.25 
Q 35.15625 65.921875 28.609375 65.921875 
Q 23.96875 65.921875 18.8125 64.3125 
Q 13.671875 62.703125 7.8125 59.421875 
L 7.8125 69.390625 
Q 13.765625 71.78125 18.9375 73 
Q 24.125 74.21875 28.421875 74.21875 
Q 39.75 74.21875 46.484375 68.546875 
Q 53.21875 62.890625 53.21875 53.421875 
Q 53.21875 48.921875 51.53125 44.890625 
Q 49.859375 40.875 45.40625 35.40625 
Q 44.1875 33.984375 37.640625 27.21875 
Q 31.109375 20.453125 19.1875 8.296875 
z
" id="DejaVuSans-32"/>
      </defs>
      <g transform="translate(7.2 342.211156)scale(0.22 -0.22)">
       <use xlink:href="#DejaVuSans-2212"/>
       <use x="83.789062" xlink:href="#DejaVuSans-30"/>
       <use x="147.412109" xlink:href="#DejaVuSans-2e"/>
       <use x="179.199219" xlink:href="#DejaVuSans-30"/>
       <use x="242.822266" xlink:href="#DejaVuSans-32"/>
      </g>
     </g>
    </g>
    <g id="ytick_2">
     <g id="line2d_2">
      <g>
       <use style="stroke:#000000;stroke-width:0.8;" x="81.619687" xlink:href="#m3783e2cd40" y="279.178828"/>
      </g>
     </g>
     <g id="text_2">
      <!-- −0.01 -->
      <defs>
       <path d="M 12.40625 8.296875 
L 28.515625 8.296875 
L 28.515625 63.921875 
L 10.984375 60.40625 
L 10.984375 69.390625 
L 28.421875 72.90625 
L 38.28125 72.90625 
L 38.28125 8.296875 
L 54.390625 8.296875 
L 54.390625 0 
L 12.40625 0 
z
" id="DejaVuSans-31"/>
      </defs>
      <g transform="translate(7.2 287.537109)scale(0.22 -0.22)">
       <use xlink:href="#DejaVuSans-2212"/>
       <use x="83.789062" xlink:href="#DejaVuSans-30"/>
       <use x="147.412109" xlink:href="#DejaVuSans-2e"/>
       <use x="179.199219" xlink:href="#DejaVuSans-30"/>
       <use x="242.822266" xlink:href="#DejaVuSans-31"/>
      </g>
     </g>
    </g>
    <g id="ytick_3">
     <g id="line2d_3">
      <g>
       <use style="stroke:#000000;stroke-width:0.8;" x="81.619687" xlink:href="#m3783e2cd40" y="224.504782"/>
      </g>
     </g>
     <g id="text_3">
      <!-- 0.00 -->
      <g transform="translate(25.635312 232.863063)scale(0.22 -0.22)">
       <use xlink:href="#DejaVuSans-30"/>
       <use x="63.623047" xlink:href="#DejaVuSans-2e"/>
       <use x="95.410156" xlink:href="#DejaVuSans-30"/>
       <use x="159.033203" xlink:href="#DejaVuSans-30"/>
      </g>
     </g>
    </g>
    <g id="ytick_4">
     <g id="line2d_4">
      <g>
       <use style="stroke:#000000;stroke-width:0.8;" x="81.619687" xlink:href="#m3783e2cd40" y="169.830736"/>
      </g>
     </g>
     <g id="text_4">
      <!-- 0.01 -->
      <g transform="translate(25.635312 178.189017)scale(0.22 -0.22)">
       <use xlink:href="#DejaVuSans-30"/>
       <use x="63.623047" xlink:href="#DejaVuSans-2e"/>
       <use x="95.410156" xlink:href="#DejaVuSans-30"/>
       <use x="159.033203" xlink:href="#DejaVuSans-31"/>
      </g>
     </g>
    </g>
    <g id="ytick_5">
     <g id="line2d_5">
      <g>
       <use style="stroke:#000000;stroke-width:0.8;" x="81.619687" xlink:href="#m3783e2cd40" y="115.156689"/>
      </g>
     </g>
     <g id="text_5">
      <!-- 0.02 -->
      <g transform="translate(25.635312 123.514971)scale(0.22 -0.22)">
       <use xlink:href="#DejaVuSans-30"/>
       <use x="63.623047" xlink:href="#DejaVuSans-2e"/>
       <use x="95.410156" xlink:href="#DejaVuSans-30"/>
       <use x="159.033203" xlink:href="#DejaVuSans-32"/>
      </g>
     </g>
    </g>
    <g id="ytick_6">
     <g id="line2d_6">
      <g>
       <use style="stroke:#000000;stroke-width:0.8;" x="81.619687" xlink:href="#m3783e2cd40" y="60.482643"/>
      </g>
     </g>
     <g id="text_6">
      <!-- 0.03 -->
      <defs>
       <path d="M 40.578125 39.3125 
Q 47.65625 37.796875 51.625 33 
Q 55.609375 28.21875 55.609375 21.1875 
Q 55.609375 10.40625 48.1875 4.484375 
Q 40.765625 -1.421875 27.09375 -1.421875 
Q 22.515625 -1.421875 17.65625 -0.515625 
Q 12.796875 0.390625 7.625 2.203125 
L 7.625 11.71875 
Q 11.71875 9.328125 16.59375 8.109375 
Q 21.484375 6.890625 26.8125 6.890625 
Q 36.078125 6.890625 40.9375 10.546875 
Q 45.796875 14.203125 45.796875 21.1875 
Q 45.796875 27.640625 41.28125 31.265625 
Q 36.765625 34.90625 28.71875 34.90625 
L 20.21875 34.90625 
L 20.21875 43.015625 
L 29.109375 43.015625 
Q 36.375 43.015625 40.234375 45.921875 
Q 44.09375 48.828125 44.09375 54.296875 
Q 44.09375 59.90625 40.109375 62.90625 
Q 36.140625 65.921875 28.71875 65.921875 
Q 24.65625 65.921875 20.015625 65.03125 
Q 15.375 64.15625 9.8125 62.3125 
L 9.8125 71.09375 
Q 15.4375 72.65625 20.34375 73.4375 
Q 25.25 74.21875 29.59375 74.21875 
Q 40.828125 74.21875 47.359375 69.109375 
Q 53.90625 64.015625 53.90625 55.328125 
Q 53.90625 49.265625 50.4375 45.09375 
Q 46.96875 40.921875 40.578125 39.3125 
z
" id="DejaVuSans-33"/>
      </defs>
      <g transform="translate(25.635312 68.840924)scale(0.22 -0.22)">
       <use xlink:href="#DejaVuSans-30"/>
       <use x="63.623047" xlink:href="#DejaVuSans-2e"/>
       <use x="95.410156" xlink:href="#DejaVuSans-30"/>
       <use x="159.033203" xlink:href="#DejaVuSans-33"/>
      </g>
     </g>
    </g>
   </g>
   <g id="patch_3">
    <path d="M 81.619687 343.34 
L 81.619687 10.7 
" style="fill:none;stroke:#000000;stroke-linecap:square;stroke-linejoin:miter;stroke-width:0.8;"/>
   </g>
   <g id="patch_4">
    <path d="M 416.419688 343.34 
L 416.419688 10.7 
" style="fill:none;stroke:#000000;stroke-linecap:square;stroke-linejoin:miter;stroke-width:0.8;"/>
   </g>
   <g id="patch_5">
    <path d="M 81.619687 343.34 
L 416.419688 343.34 
" style="fill:none;stroke:#000000;stroke-linecap:square;stroke-linejoin:miter;stroke-width:0.8;"/>
   </g>
   <g id="patch_6">
    <path d="M 81.619687 10.7 
L 416.419688 10.7 
" style="fill:none;stroke:#000000;stroke-linecap:square;stroke-linejoin:miter;stroke-width:0.8;"/>
   </g>
  </g>
 </g>
 <defs>
  <clipPath id="p4e02048bfc">
   <rect height="332.64" width="334.8" x="81.619687" y="10.7"/>
  </clipPath>
 </defs>
</svg>
