<?xml version="1.0" encoding="utf-8" standalone="no"?>
<!DOCTYPE svg PUBLIC "-//W3C//DTD SVG 1.1//EN"
  "http://www.w3.org/Graphics/SVG/1.1/DTD/svg11.dtd">
<!-- Created with matplotlib (http://matplotlib.org/) -->
<svg height="354pt" version="1.1" viewBox="0 0 413 354" width="413pt" xmlns="http://www.w3.org/2000/svg" xmlns:xlink="http://www.w3.org/1999/xlink">
 <defs>
  <style type="text/css">
*{stroke-linecap:butt;stroke-linejoin:round;}
  </style>
 </defs>
 <g id="figure_1">
  <g id="patch_1">
   <path d="M 0 354.04 
L 413.122187 354.04 
L 413.122187 0 
L 0 0 
z
" style="fill:#ffffff;"/>
  </g>
  <g id="axes_1">
   <g id="patch_2">
    <path d="M 67.622187 343.34 
L 402.422188 343.34 
L 402.422188 10.7 
L 67.622187 10.7 
z
" style="fill:#ffffff;"/>
   </g>
   <g id="PolyCollection_1">
    <defs>
     <path d="M 82.840369 -125.384102 
L 82.840369 -183.714805 
L 86.14867 -183.714805 
L 89.45697 -183.714805 
L 92.765271 -183.714805 
L 96.073571 -183.714805 
L 99.381871 -183.714805 
L 102.690172 -183.714805 
L 105.998472 -183.714805 
L 109.306772 -183.714805 
L 112.615073 -183.714805 
L 115.923373 -183.714805 
L 119.231674 -183.714805 
L 122.539974 -183.714805 
L 125.848274 -183.714805 
L 129.156575 -183.714805 
L 132.464875 -183.714805 
L 135.773176 -183.714805 
L 139.081476 -183.714805 
L 142.389776 -183.714805 
L 145.698077 -183.714805 
L 149.006377 -183.714805 
L 152.314678 -183.714805 
L 155.622978 -183.714805 
L 158.931278 -183.714805 
L 162.239579 -183.714805 
L 165.547879 -183.714805 
L 168.85618 -183.714805 
L 172.16448 -183.714805 
L 175.47278 -183.714805 
L 178.781081 -183.714805 
L 182.089381 -183.714805 
L 185.397682 -183.714805 
L 188.705982 -183.714805 
L 192.014282 -183.714805 
L 195.322583 -183.714805 
L 198.630883 -183.714805 
L 201.939184 -183.714805 
L 205.247484 -183.714805 
L 208.555784 -183.714805 
L 211.864085 -183.714805 
L 215.172385 -183.714805 
L 218.480686 -183.714805 
L 221.788986 -183.714805 
L 225.097286 -183.714805 
L 228.405587 -183.714805 
L 231.713887 -183.714805 
L 235.022188 -183.714805 
L 238.330488 -183.714805 
L 241.638788 -183.714805 
L 244.947089 -183.714805 
L 248.255389 -183.714805 
L 251.563689 -183.714805 
L 254.87199 -183.714805 
L 258.18029 -183.714805 
L 261.488591 -183.714805 
L 264.796891 -183.714805 
L 268.105191 -183.714805 
L 271.413492 -183.714805 
L 274.721792 -183.714805 
L 278.030093 -183.714805 
L 281.338393 -183.714805 
L 284.646693 -183.714805 
L 287.954994 -183.714805 
L 291.263294 -183.714805 
L 294.571595 -183.714805 
L 297.879895 -183.714805 
L 301.188195 -183.714805 
L 304.496496 -183.714805 
L 307.804796 -183.714805 
L 311.113097 -183.714805 
L 314.421397 -183.714805 
L 317.729697 -183.714805 
L 321.037998 -183.714805 
L 324.346298 -183.714805 
L 327.654599 -183.714805 
L 330.962899 -183.714805 
L 334.271199 -183.714805 
L 337.5795 -183.714805 
L 340.8878 -183.714805 
L 344.196101 -183.714805 
L 347.504401 -183.714805 
L 350.812701 -183.714805 
L 354.121002 -183.714805 
L 357.429302 -183.714805 
L 360.737603 -183.714805 
L 364.045903 -183.714805 
L 367.354203 -183.714805 
L 370.662504 -183.714805 
L 373.970804 -183.714805 
L 377.279104 -183.714805 
L 380.587405 -183.714805 
L 383.895705 -183.714805 
L 387.204006 -183.714805 
L 387.204006 -247.622379 
L 387.204006 -247.622379 
L 383.895705 -244.909795 
L 380.587405 -242.283186 
L 377.279104 -239.242592 
L 373.970804 -234.633184 
L 370.662504 -233.968863 
L 367.354203 -233.875775 
L 364.045903 -229.79146 
L 360.737603 -225.664414 
L 357.429302 -219.155328 
L 354.121002 -213.975943 
L 350.812701 -213.769502 
L 347.504401 -209.28134 
L 344.196101 -209.021362 
L 340.8878 -197.496978 
L 337.5795 -194.68777 
L 334.271199 -194.0887 
L 330.962899 -193.832188 
L 327.654599 -193.381361 
L 324.346298 -192.491804 
L 321.037998 -192.206975 
L 317.729697 -191.768864 
L 314.421397 -190.302775 
L 311.113097 -189.206375 
L 307.804796 -187.584381 
L 304.496496 -187.1711 
L 301.188195 -186.778249 
L 297.879895 -186.495266 
L 294.571595 -185.92891 
L 291.263294 -185.812218 
L 287.954994 -185.088818 
L 284.646693 -184.833181 
L 281.338393 -184.332353 
L 278.030093 -184.199392 
L 274.721792 -184.195942 
L 271.413492 -184.181627 
L 268.105191 -184.109137 
L 264.796891 -184.092251 
L 261.488591 -184.055689 
L 258.18029 -184.03932 
L 254.87199 -183.975525 
L 251.563689 -183.948048 
L 248.255389 -183.895046 
L 244.947089 -183.873958 
L 241.638788 -183.784184 
L 238.330488 -183.750887 
L 235.022188 -183.733489 
L 231.713887 -183.706042 
L 228.405587 -183.700483 
L 225.097286 -183.675322 
L 221.788986 -183.655614 
L 218.480686 -183.63619 
L 215.172385 -183.633669 
L 211.864085 -183.607964 
L 208.555784 -183.603169 
L 205.247484 -183.594025 
L 201.939184 -183.561073 
L 198.630883 -183.537717 
L 195.322583 -183.514025 
L 192.014282 -183.48085 
L 188.705982 -183.457784 
L 185.397682 -183.416504 
L 182.089381 -183.403664 
L 178.781081 -183.402694 
L 175.47278 -183.401199 
L 172.16448 -183.330521 
L 168.85618 -183.2889 
L 165.547879 -183.250204 
L 162.239579 -183.095272 
L 158.931278 -183.0759 
L 155.622978 -183.023159 
L 152.314678 -182.826232 
L 149.006377 -182.487859 
L 145.698077 -182.402622 
L 142.389776 -181.902617 
L 139.081476 -181.8683 
L 135.773176 -180.833181 
L 132.464875 -173.803986 
L 129.156575 -173.198738 
L 125.848274 -171.702022 
L 122.539974 -167.778973 
L 119.231674 -164.985834 
L 115.923373 -162.848264 
L 112.615073 -162.149695 
L 109.306772 -159.974632 
L 105.998472 -157.389941 
L 102.690172 -153.417509 
L 99.381871 -148.8834 
L 96.073571 -148.61617 
L 92.765271 -146.475038 
L 89.45697 -134.793687 
L 86.14867 -130.781612 
L 82.840369 -125.384102 
z
" id="m21fccb80cb" style="stroke:#4a98c9;"/>
    </defs>
    <g clip-path="url(#p37c264c765)">
     <use style="fill:#4a98c9;stroke:#4a98c9;" x="0" xlink:href="#m21fccb80cb" y="354.04"/>
    </g>
   </g>
   <g id="PolyCollection_2">
    <defs>
     <path d="M 82.840369 -25.82 
L 82.840369 -183.714805 
L 86.14867 -183.714805 
L 89.45697 -183.714805 
L 92.765271 -183.714805 
L 96.073571 -183.714805 
L 99.381871 -183.714805 
L 102.690172 -183.714805 
L 105.998472 -183.714805 
L 109.306772 -183.714805 
L 112.615073 -183.714805 
L 115.923373 -183.714805 
L 119.231674 -183.714805 
L 122.539974 -183.714805 
L 125.848274 -183.714805 
L 129.156575 -183.714805 
L 132.464875 -183.714805 
L 135.773176 -183.714805 
L 139.081476 -183.714805 
L 142.389776 -183.714805 
L 145.698077 -183.714805 
L 149.006377 -183.714805 
L 152.314678 -183.714805 
L 155.622978 -183.714805 
L 158.931278 -183.714805 
L 162.239579 -183.714805 
L 165.547879 -183.714805 
L 168.85618 -183.714805 
L 172.16448 -183.714805 
L 175.47278 -183.714805 
L 178.781081 -183.714805 
L 182.089381 -183.714805 
L 185.397682 -183.714805 
L 188.705982 -183.714805 
L 192.014282 -183.714805 
L 195.322583 -183.714805 
L 198.630883 -183.714805 
L 201.939184 -183.714805 
L 205.247484 -183.714805 
L 208.555784 -183.714805 
L 211.864085 -183.714805 
L 215.172385 -183.714805 
L 218.480686 -183.714805 
L 221.788986 -183.714805 
L 225.097286 -183.714805 
L 228.405587 -183.714805 
L 231.713887 -183.714805 
L 235.022188 -183.714805 
L 238.330488 -183.714805 
L 241.638788 -183.714805 
L 244.947089 -183.714805 
L 248.255389 -183.714805 
L 251.563689 -183.714805 
L 254.87199 -183.714805 
L 258.18029 -183.714805 
L 261.488591 -183.714805 
L 264.796891 -183.714805 
L 268.105191 -183.714805 
L 271.413492 -183.714805 
L 274.721792 -183.714805 
L 278.030093 -183.714805 
L 281.338393 -183.714805 
L 284.646693 -183.714805 
L 287.954994 -183.714805 
L 291.263294 -183.714805 
L 294.571595 -183.714805 
L 297.879895 -183.714805 
L 301.188195 -183.714805 
L 304.496496 -183.714805 
L 307.804796 -183.714805 
L 311.113097 -183.714805 
L 314.421397 -183.714805 
L 317.729697 -183.714805 
L 321.037998 -183.714805 
L 324.346298 -183.714805 
L 327.654599 -183.714805 
L 330.962899 -183.714805 
L 334.271199 -183.714805 
L 337.5795 -183.714805 
L 340.8878 -183.714805 
L 344.196101 -183.714805 
L 347.504401 -183.714805 
L 350.812701 -183.714805 
L 354.121002 -183.714805 
L 357.429302 -183.714805 
L 360.737603 -183.714805 
L 364.045903 -183.714805 
L 367.354203 -183.714805 
L 370.662504 -183.714805 
L 373.970804 -183.714805 
L 377.279104 -183.714805 
L 380.587405 -183.714805 
L 383.895705 -183.714805 
L 387.204006 -183.714805 
L 387.204006 -328.22 
L 387.204006 -328.22 
L 383.895705 -312.346825 
L 380.587405 -297.236812 
L 377.279104 -294.024366 
L 373.970804 -291.825443 
L 370.662504 -289.294358 
L 367.354203 -286.24896 
L 364.045903 -281.697191 
L 360.737603 -278.009079 
L 357.429302 -277.678091 
L 354.121002 -277.42198 
L 350.812701 -263.538272 
L 347.504401 -254.401131 
L 344.196101 -250.901932 
L 340.8878 -250.585722 
L 337.5795 -246.783521 
L 334.271199 -245.801666 
L 330.962899 -244.92072 
L 327.654599 -233.939779 
L 324.346298 -225.763357 
L 321.037998 -216.651875 
L 317.729697 -203.729147 
L 314.421397 -199.115349 
L 311.113097 -197.88844 
L 307.804796 -195.53086 
L 304.496496 -192.99642 
L 301.188195 -192.533425 
L 297.879895 -191.749233 
L 294.571595 -191.18295 
L 291.263294 -187.639144 
L 287.954994 -185.368899 
L 284.646693 -184.966565 
L 281.338393 -184.875266 
L 278.030093 -184.5158 
L 274.721792 -184.276857 
L 271.413492 -184.274803 
L 268.105191 -184.16303 
L 264.796891 -184.153895 
L 261.488591 -184.057085 
L 258.18029 -184.025562 
L 254.87199 -183.993549 
L 251.563689 -183.990079 
L 248.255389 -183.975602 
L 244.947089 -183.914333 
L 241.638788 -183.903496 
L 238.330488 -183.860256 
L 235.022188 -183.846736 
L 231.713887 -183.835981 
L 228.405587 -183.791235 
L 225.097286 -183.766892 
L 221.788986 -183.765945 
L 218.480686 -183.76268 
L 215.172385 -183.758902 
L 211.864085 -183.748326 
L 208.555784 -183.742798 
L 205.247484 -183.727564 
L 201.939184 -183.715001 
L 198.630883 -183.684848 
L 195.322583 -183.664223 
L 192.014282 -183.659969 
L 188.705982 -183.659011 
L 185.397682 -183.611094 
L 182.089381 -183.578966 
L 178.781081 -183.506792 
L 175.47278 -183.494017 
L 172.16448 -183.459094 
L 168.85618 -183.429704 
L 165.547879 -183.428657 
L 162.239579 -183.425814 
L 158.931278 -183.404813 
L 155.622978 -183.317653 
L 152.314678 -183.2612 
L 149.006377 -183.164923 
L 145.698077 -183.164296 
L 142.389776 -183.134339 
L 139.081476 -183.052631 
L 135.773176 -178.110092 
L 132.464875 -177.433311 
L 129.156575 -176.495605 
L 125.848274 -166.765074 
L 122.539974 -159.066851 
L 119.231674 -148.289139 
L 115.923373 -138.411251 
L 112.615073 -132.562524 
L 109.306772 -125.458198 
L 105.998472 -118.264519 
L 102.690172 -115.850397 
L 99.381871 -101.485506 
L 96.073571 -96.436149 
L 92.765271 -94.191683 
L 89.45697 -52.28875 
L 86.14867 -45.978204 
L 82.840369 -25.82 
z
" id="m8fdd120a8e" style="stroke:#f14432;stroke-opacity:0.8;"/>
    </defs>
    <g clip-path="url(#p37c264c765)">
     <use style="fill:#f14432;fill-opacity:0.8;stroke:#f14432;stroke-opacity:0.8;" x="0" xlink:href="#m8fdd120a8e" y="354.04"/>
    </g>
   </g>
   <g id="matplotlib.axis_1"/>
   <g id="matplotlib.axis_2">
    <g id="ytick_1">
     <g id="line2d_1">
      <defs>
       <path d="M 0 0 
L -3.5 0 
" id="mf04df27cc7" style="stroke:#000000;stroke-width:0.8;"/>
      </defs>
      <g>
       <use style="stroke:#000000;stroke-width:0.8;" x="67.622187" xlink:href="#mf04df27cc7" y="312.260657"/>
      </g>
     </g>
     <g id="text_1">
      <!-- −0.2 -->
      <defs>
       <path d="M 10.59375 35.5 
L 73.1875 35.5 
L 73.1875 27.203125 
L 10.59375 27.203125 
z
" id="DejaVuSans-2212"/>
       <path d="M 31.78125 66.40625 
Q 24.171875 66.40625 20.328125 58.90625 
Q 16.5 51.421875 16.5 36.375 
Q 16.5 21.390625 20.328125 13.890625 
Q 24.171875 6.390625 31.78125 6.390625 
Q 39.453125 6.390625 43.28125 13.890625 
Q 47.125 21.390625 47.125 36.375 
Q 47.125 51.421875 43.28125 58.90625 
Q 39.453125 66.40625 31.78125 66.40625 
z
M 31.78125 74.21875 
Q 44.046875 74.21875 50.515625 64.515625 
Q 56.984375 54.828125 56.984375 36.375 
Q 56.984375 17.96875 50.515625 8.265625 
Q 44.046875 -1.421875 31.78125 -1.421875 
Q 19.53125 -1.421875 13.0625 8.265625 
Q 6.59375 17.96875 6.59375 36.375 
Q 6.59375 54.828125 13.0625 64.515625 
Q 19.53125 74.21875 31.78125 74.21875 
z
" id="DejaVuSans-30"/>
       <path d="M 10.6875 12.40625 
L 21 12.40625 
L 21 0 
L 10.6875 0 
z
" id="DejaVuSans-2e"/>
       <path d="M 19.1875 8.296875 
L 53.609375 8.296875 
L 53.609375 0 
L 7.328125 0 
L 7.328125 8.296875 
Q 12.9375 14.109375 22.625 23.890625 
Q 32.328125 33.6875 34.8125 36.53125 
Q 39.546875 41.84375 41.421875 45.53125 
Q 43.3125 49.21875 43.3125 52.78125 
Q 43.3125 58.59375 39.234375 62.25 
Q 35.15625 65.921875 28.609375 65.921875 
Q 23.96875 65.921875 18.8125 64.3125 
Q 13.671875 62.703125 7.8125 59.421875 
L 7.8125 69.390625 
Q 13.765625 71.78125 18.9375 73 
Q 24.125 74.21875 28.421875 74.21875 
Q 39.75 74.21875 46.484375 68.546875 
Q 53.21875 62.890625 53.21875 53.421875 
Q 53.21875 48.921875 51.53125 44.890625 
Q 49.859375 40.875 45.40625 35.40625 
Q 44.1875 33.984375 37.640625 27.21875 
Q 31.109375 20.453125 19.1875 8.296875 
z
" id="DejaVuSans-32"/>
      </defs>
      <g transform="translate(7.2 320.618938)scale(0.22 -0.22)">
       <use xlink:href="#DejaVuSans-2212"/>
       <use x="83.789062" xlink:href="#DejaVuSans-30"/>
       <use x="147.412109" xlink:href="#DejaVuSans-2e"/>
       <use x="179.199219" xlink:href="#DejaVuSans-32"/>
      </g>
     </g>
    </g>
    <g id="ytick_2">
     <g id="line2d_2">
      <g>
       <use style="stroke:#000000;stroke-width:0.8;" x="67.622187" xlink:href="#mf04df27cc7" y="241.292926"/>
      </g>
     </g>
     <g id="text_2">
      <!-- −0.1 -->
      <defs>
       <path d="M 12.40625 8.296875 
L 28.515625 8.296875 
L 28.515625 63.921875 
L 10.984375 60.40625 
L 10.984375 69.390625 
L 28.421875 72.90625 
L 38.28125 72.90625 
L 38.28125 8.296875 
L 54.390625 8.296875 
L 54.390625 0 
L 12.40625 0 
z
" id="DejaVuSans-31"/>
      </defs>
      <g transform="translate(7.2 249.651207)scale(0.22 -0.22)">
       <use xlink:href="#DejaVuSans-2212"/>
       <use x="83.789062" xlink:href="#DejaVuSans-30"/>
       <use x="147.412109" xlink:href="#DejaVuSans-2e"/>
       <use x="179.199219" xlink:href="#DejaVuSans-31"/>
      </g>
     </g>
    </g>
    <g id="ytick_3">
     <g id="line2d_3">
      <g>
       <use style="stroke:#000000;stroke-width:0.8;" x="67.622187" xlink:href="#mf04df27cc7" y="170.325195"/>
      </g>
     </g>
     <g id="text_3">
      <!-- 0.0 -->
      <g transform="translate(25.635312 178.683476)scale(0.22 -0.22)">
       <use xlink:href="#DejaVuSans-30"/>
       <use x="63.623047" xlink:href="#DejaVuSans-2e"/>
       <use x="95.410156" xlink:href="#DejaVuSans-30"/>
      </g>
     </g>
    </g>
    <g id="ytick_4">
     <g id="line2d_4">
      <g>
       <use style="stroke:#000000;stroke-width:0.8;" x="67.622187" xlink:href="#mf04df27cc7" y="99.357464"/>
      </g>
     </g>
     <g id="text_4">
      <!-- 0.1 -->
      <g transform="translate(25.635312 107.715745)scale(0.22 -0.22)">
       <use xlink:href="#DejaVuSans-30"/>
       <use x="63.623047" xlink:href="#DejaVuSans-2e"/>
       <use x="95.410156" xlink:href="#DejaVuSans-31"/>
      </g>
     </g>
    </g>
    <g id="ytick_5">
     <g id="line2d_5">
      <g>
       <use style="stroke:#000000;stroke-width:0.8;" x="67.622187" xlink:href="#mf04df27cc7" y="28.389733"/>
      </g>
     </g>
     <g id="text_5">
      <!-- 0.2 -->
      <g transform="translate(25.635312 36.748014)scale(0.22 -0.22)">
       <use xlink:href="#DejaVuSans-30"/>
       <use x="63.623047" xlink:href="#DejaVuSans-2e"/>
       <use x="95.410156" xlink:href="#DejaVuSans-32"/>
      </g>
     </g>
    </g>
   </g>
   <g id="patch_3">
    <path d="M 67.622187 343.34 
L 67.622187 10.7 
" style="fill:none;stroke:#000000;stroke-linecap:square;stroke-linejoin:miter;stroke-width:0.8;"/>
   </g>
   <g id="patch_4">
    <path d="M 402.422188 343.34 
L 402.422188 10.7 
" style="fill:none;stroke:#000000;stroke-linecap:square;stroke-linejoin:miter;stroke-width:0.8;"/>
   </g>
   <g id="patch_5">
    <path d="M 67.622187 343.34 
L 402.422188 343.34 
" style="fill:none;stroke:#000000;stroke-linecap:square;stroke-linejoin:miter;stroke-width:0.8;"/>
   </g>
   <g id="patch_6">
    <path d="M 67.622187 10.7 
L 402.422188 10.7 
" style="fill:none;stroke:#000000;stroke-linecap:square;stroke-linejoin:miter;stroke-width:0.8;"/>
   </g>
  </g>
 </g>
 <defs>
  <clipPath id="p37c264c765">
   <rect height="332.64" width="334.8" x="67.622187" y="10.7"/>
  </clipPath>
 </defs>
</svg>
