<?xml version="1.0" encoding="utf-8" standalone="no"?>
<!DOCTYPE svg PUBLIC "-//W3C//DTD SVG 1.1//EN"
  "http://www.w3.org/Graphics/SVG/1.1/DTD/svg11.dtd">
<!-- Created with matplotlib (http://matplotlib.org/) -->
<svg height="364pt" version="1.1" viewBox="0 0 413 364" width="413pt" xmlns="http://www.w3.org/2000/svg" xmlns:xlink="http://www.w3.org/1999/xlink">
 <defs>
  <style type="text/css">
*{stroke-linecap:butt;stroke-linejoin:round;}
  </style>
 </defs>
 <g id="figure_1">
  <g id="patch_1">
   <path d="M 0 364.360805 
L 413.122187 364.360805 
L 413.122187 0 
L 0 0 
z
" style="fill:#ffffff;"/>
  </g>
  <g id="axes_1">
   <g id="patch_2">
    <path d="M 67.622187 347.47309 
L 402.422188 347.47309 
L 402.422188 14.83309 
L 67.622187 14.83309 
z
" style="fill:#ffffff;"/>
   </g>
   <g id="PolyCollection_1">
    <defs>
     <path d="M 82.840369 -108.318145 
L 82.840369 -160.991707 
L 86.14867 -160.991707 
L 89.45697 -160.991707 
L 92.765271 -160.991707 
L 96.073571 -160.991707 
L 99.381871 -160.991707 
L 102.690172 -160.991707 
L 105.998472 -160.991707 
L 109.306772 -160.991707 
L 112.615073 -160.991707 
L 115.923373 -160.991707 
L 119.231674 -160.991707 
L 122.539974 -160.991707 
L 125.848274 -160.991707 
L 129.156575 -160.991707 
L 132.464875 -160.991707 
L 135.773176 -160.991707 
L 139.081476 -160.991707 
L 142.389776 -160.991707 
L 145.698077 -160.991707 
L 149.006377 -160.991707 
L 152.314678 -160.991707 
L 155.622978 -160.991707 
L 158.931278 -160.991707 
L 162.239579 -160.991707 
L 165.547879 -160.991707 
L 168.85618 -160.991707 
L 172.16448 -160.991707 
L 175.47278 -160.991707 
L 178.781081 -160.991707 
L 182.089381 -160.991707 
L 185.397682 -160.991707 
L 188.705982 -160.991707 
L 192.014282 -160.991707 
L 195.322583 -160.991707 
L 198.630883 -160.991707 
L 201.939184 -160.991707 
L 205.247484 -160.991707 
L 208.555784 -160.991707 
L 211.864085 -160.991707 
L 215.172385 -160.991707 
L 218.480686 -160.991707 
L 221.788986 -160.991707 
L 225.097286 -160.991707 
L 228.405587 -160.991707 
L 231.713887 -160.991707 
L 235.022188 -160.991707 
L 238.330488 -160.991707 
L 241.638788 -160.991707 
L 244.947089 -160.991707 
L 248.255389 -160.991707 
L 251.563689 -160.991707 
L 254.87199 -160.991707 
L 258.18029 -160.991707 
L 261.488591 -160.991707 
L 264.796891 -160.991707 
L 268.105191 -160.991707 
L 271.413492 -160.991707 
L 274.721792 -160.991707 
L 278.030093 -160.991707 
L 281.338393 -160.991707 
L 284.646693 -160.991707 
L 287.954994 -160.991707 
L 291.263294 -160.991707 
L 294.571595 -160.991707 
L 297.879895 -160.991707 
L 301.188195 -160.991707 
L 304.496496 -160.991707 
L 307.804796 -160.991707 
L 311.113097 -160.991707 
L 314.421397 -160.991707 
L 317.729697 -160.991707 
L 321.037998 -160.991707 
L 324.346298 -160.991707 
L 327.654599 -160.991707 
L 330.962899 -160.991707 
L 334.271199 -160.991707 
L 337.5795 -160.991707 
L 340.8878 -160.991707 
L 344.196101 -160.991707 
L 347.504401 -160.991707 
L 350.812701 -160.991707 
L 354.121002 -160.991707 
L 357.429302 -160.991707 
L 360.737603 -160.991707 
L 364.045903 -160.991707 
L 367.354203 -160.991707 
L 370.662504 -160.991707 
L 373.970804 -160.991707 
L 377.279104 -160.991707 
L 380.587405 -160.991707 
L 383.895705 -160.991707 
L 387.204006 -160.991707 
L 387.204006 -213.652643 
L 387.204006 -213.652643 
L 383.895705 -204.555088 
L 380.587405 -202.321563 
L 377.279104 -195.790755 
L 373.970804 -192.212954 
L 370.662504 -188.115757 
L 367.354203 -185.602507 
L 364.045903 -182.587673 
L 360.737603 -180.59519 
L 357.429302 -179.980468 
L 354.121002 -178.912156 
L 350.812701 -178.90849 
L 347.504401 -176.134281 
L 344.196101 -175.686743 
L 340.8878 -174.944471 
L 337.5795 -173.278378 
L 334.271199 -172.821049 
L 330.962899 -171.530027 
L 327.654599 -170.684238 
L 324.346298 -167.94945 
L 321.037998 -165.248199 
L 317.729697 -162.92308 
L 314.421397 -162.787681 
L 311.113097 -162.606297 
L 307.804796 -162.374744 
L 304.496496 -162.19 
L 301.188195 -161.978528 
L 297.879895 -161.848875 
L 294.571595 -161.781381 
L 291.263294 -161.517555 
L 287.954994 -161.463998 
L 284.646693 -161.36322 
L 281.338393 -161.347875 
L 278.030093 -161.31722 
L 274.721792 -161.314169 
L 271.413492 -161.21395 
L 268.105191 -161.171961 
L 264.796891 -161.158929 
L 261.488591 -161.151547 
L 258.18029 -161.149313 
L 254.87199 -161.126056 
L 251.563689 -161.118544 
L 248.255389 -161.113866 
L 244.947089 -161.104778 
L 241.638788 -161.087784 
L 238.330488 -161.052642 
L 235.022188 -161.038582 
L 231.713887 -161.032511 
L 228.405587 -161.008658 
L 225.097286 -160.99998 
L 221.788986 -160.999977 
L 218.480686 -160.986668 
L 215.172385 -160.986445 
L 211.864085 -160.967205 
L 208.555784 -160.945819 
L 205.247484 -160.941638 
L 201.939184 -160.935254 
L 198.630883 -160.913941 
L 195.322583 -160.909647 
L 192.014282 -160.887298 
L 188.705982 -160.884464 
L 185.397682 -160.849812 
L 182.089381 -160.814317 
L 178.781081 -160.809133 
L 175.47278 -160.801569 
L 172.16448 -160.778374 
L 168.85618 -160.746107 
L 165.547879 -160.74293 
L 162.239579 -160.727687 
L 158.931278 -160.670858 
L 155.622978 -160.657964 
L 152.314678 -160.452417 
L 149.006377 -160.271247 
L 145.698077 -160.210848 
L 142.389776 -159.643743 
L 139.081476 -159.620535 
L 135.773176 -159.390703 
L 132.464875 -159.352827 
L 129.156575 -158.620143 
L 125.848274 -158.413797 
L 122.539974 -156.340494 
L 119.231674 -156.037939 
L 115.923373 -155.178565 
L 112.615073 -153.001587 
L 109.306772 -151.674125 
L 105.998472 -149.878431 
L 102.690172 -148.489498 
L 99.381871 -148.41857 
L 96.073571 -143.706891 
L 92.765271 -141.327305 
L 89.45697 -138.362574 
L 86.14867 -133.453314 
L 82.840369 -108.318145 
z
" id="m5ad2f14449" style="stroke:#4a98c9;"/>
    </defs>
    <g clip-path="url(#pe91d74fe61)">
     <use style="fill:#4a98c9;stroke:#4a98c9;" x="0" xlink:href="#m5ad2f14449" y="364.360805"/>
    </g>
   </g>
   <g id="PolyCollection_2">
    <defs>
     <path d="M 82.840369 -32.007715 
L 82.840369 -160.991707 
L 86.14867 -160.991707 
L 89.45697 -160.991707 
L 92.765271 -160.991707 
L 96.073571 -160.991707 
L 99.381871 -160.991707 
L 102.690172 -160.991707 
L 105.998472 -160.991707 
L 109.306772 -160.991707 
L 112.615073 -160.991707 
L 115.923373 -160.991707 
L 119.231674 -160.991707 
L 122.539974 -160.991707 
L 125.848274 -160.991707 
L 129.156575 -160.991707 
L 132.464875 -160.991707 
L 135.773176 -160.991707 
L 139.081476 -160.991707 
L 142.389776 -160.991707 
L 145.698077 -160.991707 
L 149.006377 -160.991707 
L 152.314678 -160.991707 
L 155.622978 -160.991707 
L 158.931278 -160.991707 
L 162.239579 -160.991707 
L 165.547879 -160.991707 
L 168.85618 -160.991707 
L 172.16448 -160.991707 
L 175.47278 -160.991707 
L 178.781081 -160.991707 
L 182.089381 -160.991707 
L 185.397682 -160.991707 
L 188.705982 -160.991707 
L 192.014282 -160.991707 
L 195.322583 -160.991707 
L 198.630883 -160.991707 
L 201.939184 -160.991707 
L 205.247484 -160.991707 
L 208.555784 -160.991707 
L 211.864085 -160.991707 
L 215.172385 -160.991707 
L 218.480686 -160.991707 
L 221.788986 -160.991707 
L 225.097286 -160.991707 
L 228.405587 -160.991707 
L 231.713887 -160.991707 
L 235.022188 -160.991707 
L 238.330488 -160.991707 
L 241.638788 -160.991707 
L 244.947089 -160.991707 
L 248.255389 -160.991707 
L 251.563689 -160.991707 
L 254.87199 -160.991707 
L 258.18029 -160.991707 
L 261.488591 -160.991707 
L 264.796891 -160.991707 
L 268.105191 -160.991707 
L 271.413492 -160.991707 
L 274.721792 -160.991707 
L 278.030093 -160.991707 
L 281.338393 -160.991707 
L 284.646693 -160.991707 
L 287.954994 -160.991707 
L 291.263294 -160.991707 
L 294.571595 -160.991707 
L 297.879895 -160.991707 
L 301.188195 -160.991707 
L 304.496496 -160.991707 
L 307.804796 -160.991707 
L 311.113097 -160.991707 
L 314.421397 -160.991707 
L 317.729697 -160.991707 
L 321.037998 -160.991707 
L 324.346298 -160.991707 
L 327.654599 -160.991707 
L 330.962899 -160.991707 
L 334.271199 -160.991707 
L 337.5795 -160.991707 
L 340.8878 -160.991707 
L 344.196101 -160.991707 
L 347.504401 -160.991707 
L 350.812701 -160.991707 
L 354.121002 -160.991707 
L 357.429302 -160.991707 
L 360.737603 -160.991707 
L 364.045903 -160.991707 
L 367.354203 -160.991707 
L 370.662504 -160.991707 
L 373.970804 -160.991707 
L 377.279104 -160.991707 
L 380.587405 -160.991707 
L 383.895705 -160.991707 
L 387.204006 -160.991707 
L 387.204006 -334.407715 
L 387.204006 -334.407715 
L 383.895705 -325.248915 
L 380.587405 -279.20436 
L 377.279104 -268.506415 
L 373.970804 -263.679339 
L 370.662504 -248.29093 
L 367.354203 -229.055879 
L 364.045903 -227.186856 
L 360.737603 -220.661428 
L 357.429302 -220.48521 
L 354.121002 -210.146396 
L 350.812701 -209.531408 
L 347.504401 -208.292425 
L 344.196101 -192.224874 
L 340.8878 -188.206369 
L 337.5795 -185.534472 
L 334.271199 -179.573584 
L 330.962899 -176.034861 
L 327.654599 -173.849944 
L 324.346298 -171.611073 
L 321.037998 -171.407193 
L 317.729697 -170.40004 
L 314.421397 -169.813254 
L 311.113097 -169.006537 
L 307.804796 -168.049046 
L 304.496496 -166.551147 
L 301.188195 -165.558193 
L 297.879895 -164.735033 
L 294.571595 -162.91022 
L 291.263294 -162.209837 
L 287.954994 -161.970671 
L 284.646693 -161.779043 
L 281.338393 -161.738571 
L 278.030093 -161.738531 
L 274.721792 -161.577421 
L 271.413492 -161.54203 
L 268.105191 -161.394768 
L 264.796891 -161.360619 
L 261.488591 -161.349856 
L 258.18029 -161.283 
L 254.87199 -161.215085 
L 251.563689 -161.165263 
L 248.255389 -161.128085 
L 244.947089 -161.100064 
L 241.638788 -161.087836 
L 238.330488 -161.078931 
L 235.022188 -161.059974 
L 231.713887 -161.058097 
L 228.405587 -161.00156 
L 225.097286 -160.971517 
L 221.788986 -160.885326 
L 218.480686 -160.863262 
L 215.172385 -160.853808 
L 211.864085 -160.852752 
L 208.555784 -160.848608 
L 205.247484 -160.821231 
L 201.939184 -160.7976 
L 198.630883 -160.791141 
L 195.322583 -160.73838 
L 192.014282 -160.719715 
L 188.705982 -160.695137 
L 185.397682 -160.689955 
L 182.089381 -160.671805 
L 178.781081 -160.581685 
L 175.47278 -160.567719 
L 172.16448 -160.563652 
L 168.85618 -160.544585 
L 165.547879 -160.167567 
L 162.239579 -160.092027 
L 158.931278 -159.893582 
L 155.622978 -159.629258 
L 152.314678 -158.112303 
L 149.006377 -156.892737 
L 145.698077 -156.109707 
L 142.389776 -155.915541 
L 139.081476 -155.312476 
L 135.773176 -154.237372 
L 132.464875 -150.868554 
L 129.156575 -150.472003 
L 125.848274 -142.882203 
L 122.539974 -142.364608 
L 119.231674 -142.306186 
L 115.923373 -142.1176 
L 112.615073 -140.552369 
L 109.306772 -139.041478 
L 105.998472 -133.05817 
L 102.690172 -132.858636 
L 99.381871 -119.670281 
L 96.073571 -105.369995 
L 92.765271 -101.273749 
L 89.45697 -93.757873 
L 86.14867 -91.207117 
L 82.840369 -32.007715 
z
" id="m90e0968184" style="stroke:#f14432;stroke-opacity:0.8;"/>
    </defs>
    <g clip-path="url(#pe91d74fe61)">
     <use style="fill:#f14432;fill-opacity:0.8;stroke:#f14432;stroke-opacity:0.8;" x="0" xlink:href="#m90e0968184" y="364.360805"/>
    </g>
   </g>
   <g id="matplotlib.axis_1"/>
   <g id="matplotlib.axis_2">
    <g id="ytick_1">
     <g id="line2d_1">
      <defs>
       <path d="M 0 0 
L -3.5 0 
" id="md53651b8eb" style="stroke:#000000;stroke-width:0.8;"/>
      </defs>
      <g>
       <use style="stroke:#000000;stroke-width:0.8;" x="67.622187" xlink:href="#md53651b8eb" y="344.227211"/>
      </g>
     </g>
     <g id="text_1">
      <!-- −0.3 -->
      <defs>
       <path d="M 10.59375 35.5 
L 73.1875 35.5 
L 73.1875 27.203125 
L 10.59375 27.203125 
z
" id="DejaVuSans-2212"/>
       <path d="M 31.78125 66.40625 
Q 24.171875 66.40625 20.328125 58.90625 
Q 16.5 51.421875 16.5 36.375 
Q 16.5 21.390625 20.328125 13.890625 
Q 24.171875 6.390625 31.78125 6.390625 
Q 39.453125 6.390625 43.28125 13.890625 
Q 47.125 21.390625 47.125 36.375 
Q 47.125 51.421875 43.28125 58.90625 
Q 39.453125 66.40625 31.78125 66.40625 
z
M 31.78125 74.21875 
Q 44.046875 74.21875 50.515625 64.515625 
Q 56.984375 54.828125 56.984375 36.375 
Q 56.984375 17.96875 50.515625 8.265625 
Q 44.046875 -1.421875 31.78125 -1.421875 
Q 19.53125 -1.421875 13.0625 8.265625 
Q 6.59375 17.96875 6.59375 36.375 
Q 6.59375 54.828125 13.0625 64.515625 
Q 19.53125 74.21875 31.78125 74.21875 
z
" id="DejaVuSans-30"/>
       <path d="M 10.6875 12.40625 
L 21 12.40625 
L 21 0 
L 10.6875 0 
z
" id="DejaVuSans-2e"/>
       <path d="M 40.578125 39.3125 
Q 47.65625 37.796875 51.625 33 
Q 55.609375 28.21875 55.609375 21.1875 
Q 55.609375 10.40625 48.1875 4.484375 
Q 40.765625 -1.421875 27.09375 -1.421875 
Q 22.515625 -1.421875 17.65625 -0.515625 
Q 12.796875 0.390625 7.625 2.203125 
L 7.625 11.71875 
Q 11.71875 9.328125 16.59375 8.109375 
Q 21.484375 6.890625 26.8125 6.890625 
Q 36.078125 6.890625 40.9375 10.546875 
Q 45.796875 14.203125 45.796875 21.1875 
Q 45.796875 27.640625 41.28125 31.265625 
Q 36.765625 34.90625 28.71875 34.90625 
L 20.21875 34.90625 
L 20.21875 43.015625 
L 29.109375 43.015625 
Q 36.375 43.015625 40.234375 45.921875 
Q 44.09375 48.828125 44.09375 54.296875 
Q 44.09375 59.90625 40.109375 62.90625 
Q 36.140625 65.921875 28.71875 65.921875 
Q 24.65625 65.921875 20.015625 65.03125 
Q 15.375 64.15625 9.8125 62.3125 
L 9.8125 71.09375 
Q 15.4375 72.65625 20.34375 73.4375 
Q 25.25 74.21875 29.59375 74.21875 
Q 40.828125 74.21875 47.359375 69.109375 
Q 53.90625 64.015625 53.90625 55.328125 
Q 53.90625 49.265625 50.4375 45.09375 
Q 46.96875 40.921875 40.578125 39.3125 
z
" id="DejaVuSans-33"/>
      </defs>
      <g transform="translate(7.2 352.585492)scale(0.22 -0.22)">
       <use xlink:href="#DejaVuSans-2212"/>
       <use x="83.789062" xlink:href="#DejaVuSans-30"/>
       <use x="147.412109" xlink:href="#DejaVuSans-2e"/>
       <use x="179.199219" xlink:href="#DejaVuSans-33"/>
      </g>
     </g>
    </g>
    <g id="ytick_2">
     <g id="line2d_2">
      <g>
       <use style="stroke:#000000;stroke-width:0.8;" x="67.622187" xlink:href="#md53651b8eb" y="297.274507"/>
      </g>
     </g>
     <g id="text_2">
      <!-- −0.2 -->
      <defs>
       <path d="M 19.1875 8.296875 
L 53.609375 8.296875 
L 53.609375 0 
L 7.328125 0 
L 7.328125 8.296875 
Q 12.9375 14.109375 22.625 23.890625 
Q 32.328125 33.6875 34.8125 36.53125 
Q 39.546875 41.84375 41.421875 45.53125 
Q 43.3125 49.21875 43.3125 52.78125 
Q 43.3125 58.59375 39.234375 62.25 
Q 35.15625 65.921875 28.609375 65.921875 
Q 23.96875 65.921875 18.8125 64.3125 
Q 13.671875 62.703125 7.8125 59.421875 
L 7.8125 69.390625 
Q 13.765625 71.78125 18.9375 73 
Q 24.125 74.21875 28.421875 74.21875 
Q 39.75 74.21875 46.484375 68.546875 
Q 53.21875 62.890625 53.21875 53.421875 
Q 53.21875 48.921875 51.53125 44.890625 
Q 49.859375 40.875 45.40625 35.40625 
Q 44.1875 33.984375 37.640625 27.21875 
Q 31.109375 20.453125 19.1875 8.296875 
z
" id="DejaVuSans-32"/>
      </defs>
      <g transform="translate(7.2 305.632788)scale(0.22 -0.22)">
       <use xlink:href="#DejaVuSans-2212"/>
       <use x="83.789062" xlink:href="#DejaVuSans-30"/>
       <use x="147.412109" xlink:href="#DejaVuSans-2e"/>
       <use x="179.199219" xlink:href="#DejaVuSans-32"/>
      </g>
     </g>
    </g>
    <g id="ytick_3">
     <g id="line2d_3">
      <g>
       <use style="stroke:#000000;stroke-width:0.8;" x="67.622187" xlink:href="#md53651b8eb" y="250.321803"/>
      </g>
     </g>
     <g id="text_3">
      <!-- −0.1 -->
      <defs>
       <path d="M 12.40625 8.296875 
L 28.515625 8.296875 
L 28.515625 63.921875 
L 10.984375 60.40625 
L 10.984375 69.390625 
L 28.421875 72.90625 
L 38.28125 72.90625 
L 38.28125 8.296875 
L 54.390625 8.296875 
L 54.390625 0 
L 12.40625 0 
z
" id="DejaVuSans-31"/>
      </defs>
      <g transform="translate(7.2 258.680084)scale(0.22 -0.22)">
       <use xlink:href="#DejaVuSans-2212"/>
       <use x="83.789062" xlink:href="#DejaVuSans-30"/>
       <use x="147.412109" xlink:href="#DejaVuSans-2e"/>
       <use x="179.199219" xlink:href="#DejaVuSans-31"/>
      </g>
     </g>
    </g>
    <g id="ytick_4">
     <g id="line2d_4">
      <g>
       <use style="stroke:#000000;stroke-width:0.8;" x="67.622187" xlink:href="#md53651b8eb" y="203.369098"/>
      </g>
     </g>
     <g id="text_4">
      <!-- 0.0 -->
      <g transform="translate(25.635312 211.72738)scale(0.22 -0.22)">
       <use xlink:href="#DejaVuSans-30"/>
       <use x="63.623047" xlink:href="#DejaVuSans-2e"/>
       <use x="95.410156" xlink:href="#DejaVuSans-30"/>
      </g>
     </g>
    </g>
    <g id="ytick_5">
     <g id="line2d_5">
      <g>
       <use style="stroke:#000000;stroke-width:0.8;" x="67.622187" xlink:href="#md53651b8eb" y="156.416394"/>
      </g>
     </g>
     <g id="text_5">
      <!-- 0.1 -->
      <g transform="translate(25.635312 164.774675)scale(0.22 -0.22)">
       <use xlink:href="#DejaVuSans-30"/>
       <use x="63.623047" xlink:href="#DejaVuSans-2e"/>
       <use x="95.410156" xlink:href="#DejaVuSans-31"/>
      </g>
     </g>
    </g>
    <g id="ytick_6">
     <g id="line2d_6">
      <g>
       <use style="stroke:#000000;stroke-width:0.8;" x="67.622187" xlink:href="#md53651b8eb" y="109.46369"/>
      </g>
     </g>
     <g id="text_6">
      <!-- 0.2 -->
      <g transform="translate(25.635312 117.821971)scale(0.22 -0.22)">
       <use xlink:href="#DejaVuSans-30"/>
       <use x="63.623047" xlink:href="#DejaVuSans-2e"/>
       <use x="95.410156" xlink:href="#DejaVuSans-32"/>
      </g>
     </g>
    </g>
    <g id="ytick_7">
     <g id="line2d_7">
      <g>
       <use style="stroke:#000000;stroke-width:0.8;" x="67.622187" xlink:href="#md53651b8eb" y="62.510986"/>
      </g>
     </g>
     <g id="text_7">
      <!-- 0.3 -->
      <g transform="translate(25.635312 70.869267)scale(0.22 -0.22)">
       <use xlink:href="#DejaVuSans-30"/>
       <use x="63.623047" xlink:href="#DejaVuSans-2e"/>
       <use x="95.410156" xlink:href="#DejaVuSans-33"/>
      </g>
     </g>
    </g>
    <g id="ytick_8">
     <g id="line2d_8">
      <g>
       <use style="stroke:#000000;stroke-width:0.8;" x="67.622187" xlink:href="#md53651b8eb" y="15.558281"/>
      </g>
     </g>
     <g id="text_8">
      <!-- 0.4 -->
      <defs>
       <path d="M 37.796875 64.3125 
L 12.890625 25.390625 
L 37.796875 25.390625 
z
M 35.203125 72.90625 
L 47.609375 72.90625 
L 47.609375 25.390625 
L 58.015625 25.390625 
L 58.015625 17.1875 
L 47.609375 17.1875 
L 47.609375 0 
L 37.796875 0 
L 37.796875 17.1875 
L 4.890625 17.1875 
L 4.890625 26.703125 
z
" id="DejaVuSans-34"/>
      </defs>
      <g transform="translate(25.635312 23.916562)scale(0.22 -0.22)">
       <use xlink:href="#DejaVuSans-30"/>
       <use x="63.623047" xlink:href="#DejaVuSans-2e"/>
       <use x="95.410156" xlink:href="#DejaVuSans-34"/>
      </g>
     </g>
    </g>
   </g>
   <g id="patch_3">
    <path d="M 67.622187 347.47309 
L 67.622187 14.83309 
" style="fill:none;stroke:#000000;stroke-linecap:square;stroke-linejoin:miter;stroke-width:0.8;"/>
   </g>
   <g id="patch_4">
    <path d="M 402.422188 347.47309 
L 402.422188 14.83309 
" style="fill:none;stroke:#000000;stroke-linecap:square;stroke-linejoin:miter;stroke-width:0.8;"/>
   </g>
   <g id="patch_5">
    <path d="M 67.622187 347.47309 
L 402.422188 347.47309 
" style="fill:none;stroke:#000000;stroke-linecap:square;stroke-linejoin:miter;stroke-width:0.8;"/>
   </g>
   <g id="patch_6">
    <path d="M 67.622187 14.83309 
L 402.422188 14.83309 
" style="fill:none;stroke:#000000;stroke-linecap:square;stroke-linejoin:miter;stroke-width:0.8;"/>
   </g>
  </g>
 </g>
 <defs>
  <clipPath id="pe91d74fe61">
   <rect height="332.64" width="334.8" x="67.622187" y="14.83309"/>
  </clipPath>
 </defs>
</svg>
