<?xml version="1.0" encoding="utf-8" standalone="no"?>
<!DOCTYPE svg PUBLIC "-//W3C//DTD SVG 1.1//EN"
  "http://www.w3.org/Graphics/SVG/1.1/DTD/svg11.dtd">
<!-- Created with matplotlib (http://matplotlib.org/) -->
<svg height="354pt" version="1.1" viewBox="0 0 413 354" width="413pt" xmlns="http://www.w3.org/2000/svg" xmlns:xlink="http://www.w3.org/1999/xlink">
 <defs>
  <style type="text/css">
*{stroke-linecap:butt;stroke-linejoin:round;}
  </style>
 </defs>
 <g id="figure_1">
  <g id="patch_1">
   <path d="M 0 354.04 
L 413.122187 354.04 
L 413.122187 0 
L 0 0 
z
" style="fill:#ffffff;"/>
  </g>
  <g id="axes_1">
   <g id="patch_2">
    <path d="M 67.622187 343.34 
L 402.422188 343.34 
L 402.422188 10.7 
L 67.622187 10.7 
z
" style="fill:#ffffff;"/>
   </g>
   <g id="PolyCollection_1">
    <defs>
     <path d="M 82.840369 -45.37219 
L 82.840369 -146.85616 
L 86.14867 -146.85616 
L 89.45697 -146.85616 
L 92.765271 -146.85616 
L 96.073571 -146.85616 
L 99.381871 -146.85616 
L 102.690172 -146.85616 
L 105.998472 -146.85616 
L 109.306772 -146.85616 
L 112.615073 -146.85616 
L 115.923373 -146.85616 
L 119.231674 -146.85616 
L 122.539974 -146.85616 
L 125.848274 -146.85616 
L 129.156575 -146.85616 
L 132.464875 -146.85616 
L 135.773176 -146.85616 
L 139.081476 -146.85616 
L 142.389776 -146.85616 
L 145.698077 -146.85616 
L 149.006377 -146.85616 
L 152.314678 -146.85616 
L 155.622978 -146.85616 
L 158.931278 -146.85616 
L 162.239579 -146.85616 
L 165.547879 -146.85616 
L 168.85618 -146.85616 
L 172.16448 -146.85616 
L 175.47278 -146.85616 
L 178.781081 -146.85616 
L 182.089381 -146.85616 
L 185.397682 -146.85616 
L 188.705982 -146.85616 
L 192.014282 -146.85616 
L 195.322583 -146.85616 
L 198.630883 -146.85616 
L 201.939184 -146.85616 
L 205.247484 -146.85616 
L 208.555784 -146.85616 
L 211.864085 -146.85616 
L 215.172385 -146.85616 
L 218.480686 -146.85616 
L 221.788986 -146.85616 
L 225.097286 -146.85616 
L 228.405587 -146.85616 
L 231.713887 -146.85616 
L 235.022188 -146.85616 
L 238.330488 -146.85616 
L 241.638788 -146.85616 
L 244.947089 -146.85616 
L 248.255389 -146.85616 
L 251.563689 -146.85616 
L 254.87199 -146.85616 
L 258.18029 -146.85616 
L 261.488591 -146.85616 
L 264.796891 -146.85616 
L 268.105191 -146.85616 
L 271.413492 -146.85616 
L 274.721792 -146.85616 
L 278.030093 -146.85616 
L 281.338393 -146.85616 
L 284.646693 -146.85616 
L 287.954994 -146.85616 
L 291.263294 -146.85616 
L 294.571595 -146.85616 
L 297.879895 -146.85616 
L 301.188195 -146.85616 
L 304.496496 -146.85616 
L 307.804796 -146.85616 
L 311.113097 -146.85616 
L 314.421397 -146.85616 
L 317.729697 -146.85616 
L 321.037998 -146.85616 
L 324.346298 -146.85616 
L 327.654599 -146.85616 
L 330.962899 -146.85616 
L 334.271199 -146.85616 
L 337.5795 -146.85616 
L 340.8878 -146.85616 
L 344.196101 -146.85616 
L 347.504401 -146.85616 
L 350.812701 -146.85616 
L 354.121002 -146.85616 
L 357.429302 -146.85616 
L 360.737603 -146.85616 
L 364.045903 -146.85616 
L 367.354203 -146.85616 
L 370.662504 -146.85616 
L 373.970804 -146.85616 
L 377.279104 -146.85616 
L 380.587405 -146.85616 
L 383.895705 -146.85616 
L 387.204006 -146.85616 
L 387.204006 -258.16689 
L 387.204006 -258.16689 
L 383.895705 -234.78943 
L 380.587405 -228.694434 
L 377.279104 -221.645812 
L 373.970804 -215.144821 
L 370.662504 -204.483632 
L 367.354203 -204.377643 
L 364.045903 -200.916418 
L 360.737603 -194.356247 
L 357.429302 -191.974264 
L 354.121002 -190.855132 
L 350.812701 -182.642308 
L 347.504401 -181.858923 
L 344.196101 -180.706745 
L 340.8878 -180.173282 
L 337.5795 -172.792759 
L 334.271199 -172.757463 
L 330.962899 -171.991509 
L 327.654599 -169.298924 
L 324.346298 -169.049773 
L 321.037998 -168.217672 
L 317.729697 -165.521177 
L 314.421397 -159.390453 
L 311.113097 -158.767202 
L 307.804796 -157.68416 
L 304.496496 -156.229795 
L 301.188195 -155.950938 
L 297.879895 -155.042153 
L 294.571595 -154.09115 
L 291.263294 -151.60423 
L 287.954994 -148.125449 
L 284.646693 -148.089317 
L 281.338393 -147.590844 
L 278.030093 -147.539793 
L 274.721792 -147.519289 
L 271.413492 -147.44258 
L 268.105191 -147.419882 
L 264.796891 -147.266124 
L 261.488591 -147.227852 
L 258.18029 -147.216506 
L 254.87199 -147.175035 
L 251.563689 -147.117924 
L 248.255389 -147.067899 
L 244.947089 -147.049754 
L 241.638788 -147.047204 
L 238.330488 -147.034372 
L 235.022188 -147.002556 
L 231.713887 -146.993292 
L 228.405587 -146.981907 
L 225.097286 -146.97486 
L 221.788986 -146.966148 
L 218.480686 -146.950326 
L 215.172385 -146.947559 
L 211.864085 -146.918191 
L 208.555784 -146.915349 
L 205.247484 -146.914501 
L 201.939184 -146.874825 
L 198.630883 -146.858353 
L 195.322583 -146.837414 
L 192.014282 -146.779402 
L 188.705982 -146.776734 
L 185.397682 -146.751824 
L 182.089381 -146.726229 
L 178.781081 -146.725252 
L 175.47278 -146.678256 
L 172.16448 -146.647566 
L 168.85618 -146.639865 
L 165.547879 -146.6369 
L 162.239579 -146.523633 
L 158.931278 -146.520594 
L 155.622978 -146.419014 
L 152.314678 -146.362694 
L 149.006377 -146.321421 
L 145.698077 -145.749828 
L 142.389776 -144.529883 
L 139.081476 -144.029593 
L 135.773176 -141.127341 
L 132.464875 -136.19497 
L 129.156575 -135.1973 
L 125.848274 -131.0775 
L 122.539974 -130.621827 
L 119.231674 -129.660317 
L 115.923373 -127.236006 
L 112.615073 -124.814646 
L 109.306772 -123.899792 
L 105.998472 -120.052665 
L 102.690172 -115.325752 
L 99.381871 -100.927362 
L 96.073571 -97.225231 
L 92.765271 -79.328853 
L 89.45697 -65.766811 
L 86.14867 -61.302151 
L 82.840369 -45.37219 
z
" id="m402cbb0955" style="stroke:#4a98c9;"/>
    </defs>
    <g clip-path="url(#p6cddbae94f)">
     <use style="fill:#4a98c9;stroke:#4a98c9;" x="0" xlink:href="#m402cbb0955" y="354.04"/>
    </g>
   </g>
   <g id="PolyCollection_2">
    <defs>
     <path d="M 82.840369 -25.82 
L 82.840369 -146.85616 
L 86.14867 -146.85616 
L 89.45697 -146.85616 
L 92.765271 -146.85616 
L 96.073571 -146.85616 
L 99.381871 -146.85616 
L 102.690172 -146.85616 
L 105.998472 -146.85616 
L 109.306772 -146.85616 
L 112.615073 -146.85616 
L 115.923373 -146.85616 
L 119.231674 -146.85616 
L 122.539974 -146.85616 
L 125.848274 -146.85616 
L 129.156575 -146.85616 
L 132.464875 -146.85616 
L 135.773176 -146.85616 
L 139.081476 -146.85616 
L 142.389776 -146.85616 
L 145.698077 -146.85616 
L 149.006377 -146.85616 
L 152.314678 -146.85616 
L 155.622978 -146.85616 
L 158.931278 -146.85616 
L 162.239579 -146.85616 
L 165.547879 -146.85616 
L 168.85618 -146.85616 
L 172.16448 -146.85616 
L 175.47278 -146.85616 
L 178.781081 -146.85616 
L 182.089381 -146.85616 
L 185.397682 -146.85616 
L 188.705982 -146.85616 
L 192.014282 -146.85616 
L 195.322583 -146.85616 
L 198.630883 -146.85616 
L 201.939184 -146.85616 
L 205.247484 -146.85616 
L 208.555784 -146.85616 
L 211.864085 -146.85616 
L 215.172385 -146.85616 
L 218.480686 -146.85616 
L 221.788986 -146.85616 
L 225.097286 -146.85616 
L 228.405587 -146.85616 
L 231.713887 -146.85616 
L 235.022188 -146.85616 
L 238.330488 -146.85616 
L 241.638788 -146.85616 
L 244.947089 -146.85616 
L 248.255389 -146.85616 
L 251.563689 -146.85616 
L 254.87199 -146.85616 
L 258.18029 -146.85616 
L 261.488591 -146.85616 
L 264.796891 -146.85616 
L 268.105191 -146.85616 
L 271.413492 -146.85616 
L 274.721792 -146.85616 
L 278.030093 -146.85616 
L 281.338393 -146.85616 
L 284.646693 -146.85616 
L 287.954994 -146.85616 
L 291.263294 -146.85616 
L 294.571595 -146.85616 
L 297.879895 -146.85616 
L 301.188195 -146.85616 
L 304.496496 -146.85616 
L 307.804796 -146.85616 
L 311.113097 -146.85616 
L 314.421397 -146.85616 
L 317.729697 -146.85616 
L 321.037998 -146.85616 
L 324.346298 -146.85616 
L 327.654599 -146.85616 
L 330.962899 -146.85616 
L 334.271199 -146.85616 
L 337.5795 -146.85616 
L 340.8878 -146.85616 
L 344.196101 -146.85616 
L 347.504401 -146.85616 
L 350.812701 -146.85616 
L 354.121002 -146.85616 
L 357.429302 -146.85616 
L 360.737603 -146.85616 
L 364.045903 -146.85616 
L 367.354203 -146.85616 
L 370.662504 -146.85616 
L 373.970804 -146.85616 
L 377.279104 -146.85616 
L 380.587405 -146.85616 
L 383.895705 -146.85616 
L 387.204006 -146.85616 
L 387.204006 -328.22 
L 387.204006 -328.22 
L 383.895705 -293.257653 
L 380.587405 -281.248152 
L 377.279104 -277.928558 
L 373.970804 -275.728628 
L 370.662504 -267.057384 
L 367.354203 -263.064525 
L 364.045903 -262.485498 
L 360.737603 -254.342152 
L 357.429302 -241.280456 
L 354.121002 -223.491705 
L 350.812701 -221.514754 
L 347.504401 -213.734178 
L 344.196101 -203.005548 
L 340.8878 -197.188054 
L 337.5795 -193.771784 
L 334.271199 -189.327938 
L 330.962899 -184.473736 
L 327.654599 -180.493583 
L 324.346298 -178.876164 
L 321.037998 -173.933588 
L 317.729697 -168.601239 
L 314.421397 -168.530566 
L 311.113097 -168.507335 
L 307.804796 -165.290283 
L 304.496496 -158.234779 
L 301.188195 -157.851614 
L 297.879895 -157.037773 
L 294.571595 -155.410693 
L 291.263294 -152.798248 
L 287.954994 -149.563863 
L 284.646693 -148.395359 
L 281.338393 -147.532944 
L 278.030093 -147.457067 
L 274.721792 -147.372929 
L 271.413492 -147.366827 
L 268.105191 -147.351063 
L 264.796891 -147.305716 
L 261.488591 -147.15953 
L 258.18029 -147.145047 
L 254.87199 -147.140504 
L 251.563689 -147.123879 
L 248.255389 -147.091199 
L 244.947089 -147.085137 
L 241.638788 -147.072085 
L 238.330488 -147.023499 
L 235.022188 -146.965663 
L 231.713887 -146.956374 
L 228.405587 -146.924783 
L 225.097286 -146.896739 
L 221.788986 -146.871829 
L 218.480686 -146.825999 
L 215.172385 -146.811849 
L 211.864085 -146.809154 
L 208.555784 -146.791323 
L 205.247484 -146.76353 
L 201.939184 -146.760476 
L 198.630883 -146.755039 
L 195.322583 -146.744614 
L 192.014282 -146.741597 
L 188.705982 -146.727652 
L 185.397682 -146.723012 
L 182.089381 -146.71999 
L 178.781081 -146.653229 
L 175.47278 -146.616796 
L 172.16448 -146.610974 
L 168.85618 -146.610671 
L 165.547879 -146.532296 
L 162.239579 -146.408723 
L 158.931278 -146.363033 
L 155.622978 -146.358391 
L 152.314678 -146.322088 
L 149.006377 -146.16932 
L 145.698077 -144.367261 
L 142.389776 -134.955663 
L 139.081476 -130.657171 
L 135.773176 -124.304214 
L 132.464875 -118.282713 
L 129.156575 -114.728735 
L 125.848274 -112.023406 
L 122.539974 -109.873283 
L 119.231674 -108.539214 
L 115.923373 -93.693298 
L 112.615073 -92.978386 
L 109.306772 -79.059499 
L 105.998472 -75.383235 
L 102.690172 -73.753734 
L 99.381871 -67.864121 
L 96.073571 -59.486333 
L 92.765271 -58.99601 
L 89.45697 -37.494454 
L 86.14867 -36.480278 
L 82.840369 -25.82 
z
" id="m5984691fdc" style="stroke:#f14432;stroke-opacity:0.8;"/>
    </defs>
    <g clip-path="url(#p6cddbae94f)">
     <use style="fill:#f14432;fill-opacity:0.8;stroke:#f14432;stroke-opacity:0.8;" x="0" xlink:href="#m5984691fdc" y="354.04"/>
    </g>
   </g>
   <g id="matplotlib.axis_1"/>
   <g id="matplotlib.axis_2">
    <g id="ytick_1">
     <g id="line2d_1">
      <defs>
       <path d="M 0 0 
L -3.5 0 
" id="m32e67bf456" style="stroke:#000000;stroke-width:0.8;"/>
      </defs>
      <g>
       <use style="stroke:#000000;stroke-width:0.8;" x="67.622187" xlink:href="#m32e67bf456" y="322.208389"/>
      </g>
     </g>
     <g id="text_1">
      <!-- −0.2 -->
      <defs>
       <path d="M 10.59375 35.5 
L 73.1875 35.5 
L 73.1875 27.203125 
L 10.59375 27.203125 
z
" id="DejaVuSans-2212"/>
       <path d="M 31.78125 66.40625 
Q 24.171875 66.40625 20.328125 58.90625 
Q 16.5 51.421875 16.5 36.375 
Q 16.5 21.390625 20.328125 13.890625 
Q 24.171875 6.390625 31.78125 6.390625 
Q 39.453125 6.390625 43.28125 13.890625 
Q 47.125 21.390625 47.125 36.375 
Q 47.125 51.421875 43.28125 58.90625 
Q 39.453125 66.40625 31.78125 66.40625 
z
M 31.78125 74.21875 
Q 44.046875 74.21875 50.515625 64.515625 
Q 56.984375 54.828125 56.984375 36.375 
Q 56.984375 17.96875 50.515625 8.265625 
Q 44.046875 -1.421875 31.78125 -1.421875 
Q 19.53125 -1.421875 13.0625 8.265625 
Q 6.59375 17.96875 6.59375 36.375 
Q 6.59375 54.828125 13.0625 64.515625 
Q 19.53125 74.21875 31.78125 74.21875 
z
" id="DejaVuSans-30"/>
       <path d="M 10.6875 12.40625 
L 21 12.40625 
L 21 0 
L 10.6875 0 
z
" id="DejaVuSans-2e"/>
       <path d="M 19.1875 8.296875 
L 53.609375 8.296875 
L 53.609375 0 
L 7.328125 0 
L 7.328125 8.296875 
Q 12.9375 14.109375 22.625 23.890625 
Q 32.328125 33.6875 34.8125 36.53125 
Q 39.546875 41.84375 41.421875 45.53125 
Q 43.3125 49.21875 43.3125 52.78125 
Q 43.3125 58.59375 39.234375 62.25 
Q 35.15625 65.921875 28.609375 65.921875 
Q 23.96875 65.921875 18.8125 64.3125 
Q 13.671875 62.703125 7.8125 59.421875 
L 7.8125 69.390625 
Q 13.765625 71.78125 18.9375 73 
Q 24.125 74.21875 28.421875 74.21875 
Q 39.75 74.21875 46.484375 68.546875 
Q 53.21875 62.890625 53.21875 53.421875 
Q 53.21875 48.921875 51.53125 44.890625 
Q 49.859375 40.875 45.40625 35.40625 
Q 44.1875 33.984375 37.640625 27.21875 
Q 31.109375 20.453125 19.1875 8.296875 
z
" id="DejaVuSans-32"/>
      </defs>
      <g transform="translate(7.2 330.56667)scale(0.22 -0.22)">
       <use xlink:href="#DejaVuSans-2212"/>
       <use x="83.789062" xlink:href="#DejaVuSans-30"/>
       <use x="147.412109" xlink:href="#DejaVuSans-2e"/>
       <use x="179.199219" xlink:href="#DejaVuSans-32"/>
      </g>
     </g>
    </g>
    <g id="ytick_2">
     <g id="line2d_2">
      <g>
       <use style="stroke:#000000;stroke-width:0.8;" x="67.622187" xlink:href="#m32e67bf456" y="264.696114"/>
      </g>
     </g>
     <g id="text_2">
      <!-- −0.1 -->
      <defs>
       <path d="M 12.40625 8.296875 
L 28.515625 8.296875 
L 28.515625 63.921875 
L 10.984375 60.40625 
L 10.984375 69.390625 
L 28.421875 72.90625 
L 38.28125 72.90625 
L 38.28125 8.296875 
L 54.390625 8.296875 
L 54.390625 0 
L 12.40625 0 
z
" id="DejaVuSans-31"/>
      </defs>
      <g transform="translate(7.2 273.054396)scale(0.22 -0.22)">
       <use xlink:href="#DejaVuSans-2212"/>
       <use x="83.789062" xlink:href="#DejaVuSans-30"/>
       <use x="147.412109" xlink:href="#DejaVuSans-2e"/>
       <use x="179.199219" xlink:href="#DejaVuSans-31"/>
      </g>
     </g>
    </g>
    <g id="ytick_3">
     <g id="line2d_3">
      <g>
       <use style="stroke:#000000;stroke-width:0.8;" x="67.622187" xlink:href="#m32e67bf456" y="207.18384"/>
      </g>
     </g>
     <g id="text_3">
      <!-- 0.0 -->
      <g transform="translate(25.635312 215.542121)scale(0.22 -0.22)">
       <use xlink:href="#DejaVuSans-30"/>
       <use x="63.623047" xlink:href="#DejaVuSans-2e"/>
       <use x="95.410156" xlink:href="#DejaVuSans-30"/>
      </g>
     </g>
    </g>
    <g id="ytick_4">
     <g id="line2d_4">
      <g>
       <use style="stroke:#000000;stroke-width:0.8;" x="67.622187" xlink:href="#m32e67bf456" y="149.671566"/>
      </g>
     </g>
     <g id="text_4">
      <!-- 0.1 -->
      <g transform="translate(25.635312 158.029847)scale(0.22 -0.22)">
       <use xlink:href="#DejaVuSans-30"/>
       <use x="63.623047" xlink:href="#DejaVuSans-2e"/>
       <use x="95.410156" xlink:href="#DejaVuSans-31"/>
      </g>
     </g>
    </g>
    <g id="ytick_5">
     <g id="line2d_5">
      <g>
       <use style="stroke:#000000;stroke-width:0.8;" x="67.622187" xlink:href="#m32e67bf456" y="92.159292"/>
      </g>
     </g>
     <g id="text_5">
      <!-- 0.2 -->
      <g transform="translate(25.635312 100.517573)scale(0.22 -0.22)">
       <use xlink:href="#DejaVuSans-30"/>
       <use x="63.623047" xlink:href="#DejaVuSans-2e"/>
       <use x="95.410156" xlink:href="#DejaVuSans-32"/>
      </g>
     </g>
    </g>
    <g id="ytick_6">
     <g id="line2d_6">
      <g>
       <use style="stroke:#000000;stroke-width:0.8;" x="67.622187" xlink:href="#m32e67bf456" y="34.647017"/>
      </g>
     </g>
     <g id="text_6">
      <!-- 0.3 -->
      <defs>
       <path d="M 40.578125 39.3125 
Q 47.65625 37.796875 51.625 33 
Q 55.609375 28.21875 55.609375 21.1875 
Q 55.609375 10.40625 48.1875 4.484375 
Q 40.765625 -1.421875 27.09375 -1.421875 
Q 22.515625 -1.421875 17.65625 -0.515625 
Q 12.796875 0.390625 7.625 2.203125 
L 7.625 11.71875 
Q 11.71875 9.328125 16.59375 8.109375 
Q 21.484375 6.890625 26.8125 6.890625 
Q 36.078125 6.890625 40.9375 10.546875 
Q 45.796875 14.203125 45.796875 21.1875 
Q 45.796875 27.640625 41.28125 31.265625 
Q 36.765625 34.90625 28.71875 34.90625 
L 20.21875 34.90625 
L 20.21875 43.015625 
L 29.109375 43.015625 
Q 36.375 43.015625 40.234375 45.921875 
Q 44.09375 48.828125 44.09375 54.296875 
Q 44.09375 59.90625 40.109375 62.90625 
Q 36.140625 65.921875 28.71875 65.921875 
Q 24.65625 65.921875 20.015625 65.03125 
Q 15.375 64.15625 9.8125 62.3125 
L 9.8125 71.09375 
Q 15.4375 72.65625 20.34375 73.4375 
Q 25.25 74.21875 29.59375 74.21875 
Q 40.828125 74.21875 47.359375 69.109375 
Q 53.90625 64.015625 53.90625 55.328125 
Q 53.90625 49.265625 50.4375 45.09375 
Q 46.96875 40.921875 40.578125 39.3125 
z
" id="DejaVuSans-33"/>
      </defs>
      <g transform="translate(25.635312 43.005299)scale(0.22 -0.22)">
       <use xlink:href="#DejaVuSans-30"/>
       <use x="63.623047" xlink:href="#DejaVuSans-2e"/>
       <use x="95.410156" xlink:href="#DejaVuSans-33"/>
      </g>
     </g>
    </g>
   </g>
   <g id="patch_3">
    <path d="M 67.622187 343.34 
L 67.622187 10.7 
" style="fill:none;stroke:#000000;stroke-linecap:square;stroke-linejoin:miter;stroke-width:0.8;"/>
   </g>
   <g id="patch_4">
    <path d="M 402.422188 343.34 
L 402.422188 10.7 
" style="fill:none;stroke:#000000;stroke-linecap:square;stroke-linejoin:miter;stroke-width:0.8;"/>
   </g>
   <g id="patch_5">
    <path d="M 67.622187 343.34 
L 402.422188 343.34 
" style="fill:none;stroke:#000000;stroke-linecap:square;stroke-linejoin:miter;stroke-width:0.8;"/>
   </g>
   <g id="patch_6">
    <path d="M 67.622187 10.7 
L 402.422188 10.7 
" style="fill:none;stroke:#000000;stroke-linecap:square;stroke-linejoin:miter;stroke-width:0.8;"/>
   </g>
  </g>
 </g>
 <defs>
  <clipPath id="p6cddbae94f">
   <rect height="332.64" width="334.8" x="67.622187" y="10.7"/>
  </clipPath>
 </defs>
</svg>
