<?xml version="1.0" encoding="utf-8" standalone="no"?>
<!DOCTYPE svg PUBLIC "-//W3C//DTD SVG 1.1//EN"
  "http://www.w3.org/Graphics/SVG/1.1/DTD/svg11.dtd">
<!-- Created with matplotlib (http://matplotlib.org/) -->
<svg height="210pt" version="1.1" viewBox="0 0 354 210" width="354pt" xmlns="http://www.w3.org/2000/svg" xmlns:xlink="http://www.w3.org/1999/xlink">
 <defs>
  <style type="text/css">
*{stroke-linecap:butt;stroke-linejoin:round;}
  </style>
 </defs>
 <g id="figure_1">
  <g id="patch_1">
   <path d="M 0 210.76 
L 354.76 210.76 
L 354.76 0 
L 0 0 
z
" style="fill:#ffffff;"/>
  </g>
  <g id="axes_1">
   <g id="patch_2">
    <path d="M 10.7 200.06 
L 344.06 200.06 
L 344.06 10.7 
L 10.7 10.7 
z
" style="fill:#ffffff;"/>
   </g>
   <g id="patch_3">
    <path clip-path="url(#p40bbc4b747)" d="M 25.852727 200.06 
L 27.873091 200.06 
L 27.873091 199.675305 
L 25.852727 199.675305 
z
" style="fill:#1a1a1a;"/>
   </g>
   <g id="patch_4">
    <path clip-path="url(#p40bbc4b747)" d="M 27.873091 200.06 
L 29.893455 200.06 
L 29.893455 199.673994 
L 27.873091 199.673994 
z
" style="fill:#1a1a1a;"/>
   </g>
   <g id="patch_5">
    <path clip-path="url(#p40bbc4b747)" d="M 29.893455 200.06 
L 31.913818 200.06 
L 31.913818 199.673275 
L 29.893455 199.673275 
z
" style="fill:#1a1a1a;"/>
   </g>
   <g id="patch_6">
    <path clip-path="url(#p40bbc4b747)" d="M 31.913818 200.06 
L 33.934182 200.06 
L 33.934182 199.671134 
L 31.913818 199.671134 
z
" style="fill:#1a1a1a;"/>
   </g>
   <g id="patch_7">
    <path clip-path="url(#p40bbc4b747)" d="M 33.934182 200.06 
L 35.954545 200.06 
L 35.954545 199.670992 
L 33.934182 199.670992 
z
" style="fill:#1a1a1a;"/>
   </g>
   <g id="patch_8">
    <path clip-path="url(#p40bbc4b747)" d="M 35.954545 200.06 
L 37.974909 200.06 
L 37.974909 199.67021 
L 35.954545 199.67021 
z
" style="fill:#1a1a1a;"/>
   </g>
   <g id="patch_9">
    <path clip-path="url(#p40bbc4b747)" d="M 37.974909 200.06 
L 39.995273 200.06 
L 39.995273 199.667258 
L 37.974909 199.667258 
z
" style="fill:#1a1a1a;"/>
   </g>
   <g id="patch_10">
    <path clip-path="url(#p40bbc4b747)" d="M 39.995273 200.06 
L 42.015636 200.06 
L 42.015636 199.664686 
L 39.995273 199.664686 
z
" style="fill:#1a1a1a;"/>
   </g>
   <g id="patch_11">
    <path clip-path="url(#p40bbc4b747)" d="M 42.015636 200.06 
L 44.036 200.06 
L 44.036 199.663615 
L 42.015636 199.663615 
z
" style="fill:#1a1a1a;"/>
   </g>
   <g id="patch_12">
    <path clip-path="url(#p40bbc4b747)" d="M 44.036 200.06 
L 46.056364 200.06 
L 46.056364 199.661834 
L 44.036 199.661834 
z
" style="fill:#1a1a1a;"/>
   </g>
   <g id="patch_13">
    <path clip-path="url(#p40bbc4b747)" d="M 46.056364 200.06 
L 48.076727 200.06 
L 48.076727 199.661416 
L 46.056364 199.661416 
z
" style="fill:#1a1a1a;"/>
   </g>
   <g id="patch_14">
    <path clip-path="url(#p40bbc4b747)" d="M 48.076727 200.06 
L 50.097091 200.06 
L 50.097091 199.660842 
L 48.076727 199.660842 
z
" style="fill:#1a1a1a;"/>
   </g>
   <g id="patch_15">
    <path clip-path="url(#p40bbc4b747)" d="M 50.097091 200.06 
L 52.117455 200.06 
L 52.117455 199.657374 
L 50.097091 199.657374 
z
" style="fill:#1a1a1a;"/>
   </g>
   <g id="patch_16">
    <path clip-path="url(#p40bbc4b747)" d="M 52.117455 200.06 
L 54.137818 200.06 
L 54.137818 199.655176 
L 52.117455 199.655176 
z
" style="fill:#1a1a1a;"/>
   </g>
   <g id="patch_17">
    <path clip-path="url(#p40bbc4b747)" d="M 54.137818 200.06 
L 56.158182 200.06 
L 56.158182 199.651227 
L 54.137818 199.651227 
z
" style="fill:#1a1a1a;"/>
   </g>
   <g id="patch_18">
    <path clip-path="url(#p40bbc4b747)" d="M 56.158182 200.06 
L 58.178545 200.06 
L 58.178545 199.644071 
L 56.158182 199.644071 
z
" style="fill:#1a1a1a;"/>
   </g>
   <g id="patch_19">
    <path clip-path="url(#p40bbc4b747)" d="M 58.178545 200.06 
L 60.198909 200.06 
L 60.198909 199.643405 
L 58.178545 199.643405 
z
" style="fill:#1a1a1a;"/>
   </g>
   <g id="patch_20">
    <path clip-path="url(#p40bbc4b747)" d="M 60.198909 200.06 
L 62.219273 200.06 
L 62.219273 199.641881 
L 60.198909 199.641881 
z
" style="fill:#1a1a1a;"/>
   </g>
   <g id="patch_21">
    <path clip-path="url(#p40bbc4b747)" d="M 62.219273 200.06 
L 64.239636 200.06 
L 64.239636 199.640673 
L 62.219273 199.640673 
z
" style="fill:#1a1a1a;"/>
   </g>
   <g id="patch_22">
    <path clip-path="url(#p40bbc4b747)" d="M 64.239636 200.06 
L 66.26 200.06 
L 66.26 199.631426 
L 64.239636 199.631426 
z
" style="fill:#1a1a1a;"/>
   </g>
   <g id="patch_23">
    <path clip-path="url(#p40bbc4b747)" d="M 66.26 200.06 
L 68.280364 200.06 
L 68.280364 199.623181 
L 66.26 199.623181 
z
" style="fill:#1a1a1a;"/>
   </g>
   <g id="patch_24">
    <path clip-path="url(#p40bbc4b747)" d="M 68.280364 200.06 
L 70.300727 200.06 
L 70.300727 199.613944 
L 68.280364 199.613944 
z
" style="fill:#1a1a1a;"/>
   </g>
   <g id="patch_25">
    <path clip-path="url(#p40bbc4b747)" d="M 70.300727 200.06 
L 72.321091 200.06 
L 72.321091 199.612344 
L 70.300727 199.612344 
z
" style="fill:#1a1a1a;"/>
   </g>
   <g id="patch_26">
    <path clip-path="url(#p40bbc4b747)" d="M 72.321091 200.06 
L 74.341455 200.06 
L 74.341455 199.607375 
L 72.321091 199.607375 
z
" style="fill:#1a1a1a;"/>
   </g>
   <g id="patch_27">
    <path clip-path="url(#p40bbc4b747)" d="M 74.341455 200.06 
L 76.361818 200.06 
L 76.361818 199.596308 
L 74.341455 199.596308 
z
" style="fill:#1a1a1a;"/>
   </g>
   <g id="patch_28">
    <path clip-path="url(#p40bbc4b747)" d="M 76.361818 200.06 
L 78.382182 200.06 
L 78.382182 199.587892 
L 76.361818 199.587892 
z
" style="fill:#1a1a1a;"/>
   </g>
   <g id="patch_29">
    <path clip-path="url(#p40bbc4b747)" d="M 78.382182 200.06 
L 80.402545 200.06 
L 80.402545 199.562815 
L 78.382182 199.562815 
z
" style="fill:#1a1a1a;"/>
   </g>
   <g id="patch_30">
    <path clip-path="url(#p40bbc4b747)" d="M 80.402545 200.06 
L 82.422909 200.06 
L 82.422909 199.553245 
L 80.402545 199.553245 
z
" style="fill:#1a1a1a;"/>
   </g>
   <g id="patch_31">
    <path clip-path="url(#p40bbc4b747)" d="M 82.422909 200.06 
L 84.443273 200.06 
L 84.443273 199.550841 
L 82.422909 199.550841 
z
" style="fill:#1a1a1a;"/>
   </g>
   <g id="patch_32">
    <path clip-path="url(#p40bbc4b747)" d="M 84.443273 200.06 
L 86.463636 200.06 
L 86.463636 199.539023 
L 84.443273 199.539023 
z
" style="fill:#1a1a1a;"/>
   </g>
   <g id="patch_33">
    <path clip-path="url(#p40bbc4b747)" d="M 86.463636 200.06 
L 88.484 200.06 
L 88.484 199.529482 
L 86.463636 199.529482 
z
" style="fill:#1a1a1a;"/>
   </g>
   <g id="patch_34">
    <path clip-path="url(#p40bbc4b747)" d="M 88.484 200.06 
L 90.504364 200.06 
L 90.504364 199.528665 
L 88.484 199.528665 
z
" style="fill:#1a1a1a;"/>
   </g>
   <g id="patch_35">
    <path clip-path="url(#p40bbc4b747)" d="M 90.504364 200.06 
L 92.524727 200.06 
L 92.524727 199.518505 
L 90.504364 199.518505 
z
" style="fill:#1a1a1a;"/>
   </g>
   <g id="patch_36">
    <path clip-path="url(#p40bbc4b747)" d="M 92.524727 200.06 
L 94.545091 200.06 
L 94.545091 199.505141 
L 92.524727 199.505141 
z
" style="fill:#1a1a1a;"/>
   </g>
   <g id="patch_37">
    <path clip-path="url(#p40bbc4b747)" d="M 94.545091 200.06 
L 96.565455 200.06 
L 96.565455 199.495656 
L 94.545091 199.495656 
z
" style="fill:#1a1a1a;"/>
   </g>
   <g id="patch_38">
    <path clip-path="url(#p40bbc4b747)" d="M 96.565455 200.06 
L 98.585818 200.06 
L 98.585818 199.485872 
L 96.565455 199.485872 
z
" style="fill:#1a1a1a;"/>
   </g>
   <g id="patch_39">
    <path clip-path="url(#p40bbc4b747)" d="M 98.585818 200.06 
L 100.606182 200.06 
L 100.606182 199.470229 
L 98.585818 199.470229 
z
" style="fill:#1a1a1a;"/>
   </g>
   <g id="patch_40">
    <path clip-path="url(#p40bbc4b747)" d="M 100.606182 200.06 
L 102.626545 200.06 
L 102.626545 199.46416 
L 100.606182 199.46416 
z
" style="fill:#1a1a1a;"/>
   </g>
   <g id="patch_41">
    <path clip-path="url(#p40bbc4b747)" d="M 102.626545 200.06 
L 104.646909 200.06 
L 104.646909 199.43838 
L 102.626545 199.43838 
z
" style="fill:#1a1a1a;"/>
   </g>
   <g id="patch_42">
    <path clip-path="url(#p40bbc4b747)" d="M 104.646909 200.06 
L 106.667273 200.06 
L 106.667273 199.430072 
L 104.646909 199.430072 
z
" style="fill:#1a1a1a;"/>
   </g>
   <g id="patch_43">
    <path clip-path="url(#p40bbc4b747)" d="M 106.667273 200.06 
L 108.687636 200.06 
L 108.687636 199.405385 
L 106.667273 199.405385 
z
" style="fill:#1a1a1a;"/>
   </g>
   <g id="patch_44">
    <path clip-path="url(#p40bbc4b747)" d="M 108.687636 200.06 
L 110.708 200.06 
L 110.708 199.384888 
L 108.687636 199.384888 
z
" style="fill:#1a1a1a;"/>
   </g>
   <g id="patch_45">
    <path clip-path="url(#p40bbc4b747)" d="M 110.708 200.06 
L 112.728364 200.06 
L 112.728364 199.358307 
L 110.708 199.358307 
z
" style="fill:#1a1a1a;"/>
   </g>
   <g id="patch_46">
    <path clip-path="url(#p40bbc4b747)" d="M 112.728364 200.06 
L 114.748727 200.06 
L 114.748727 199.335289 
L 112.728364 199.335289 
z
" style="fill:#1a1a1a;"/>
   </g>
   <g id="patch_47">
    <path clip-path="url(#p40bbc4b747)" d="M 114.748727 200.06 
L 116.769091 200.06 
L 116.769091 199.301113 
L 114.748727 199.301113 
z
" style="fill:#1a1a1a;"/>
   </g>
   <g id="patch_48">
    <path clip-path="url(#p40bbc4b747)" d="M 116.769091 200.06 
L 118.789455 200.06 
L 118.789455 199.273426 
L 116.769091 199.273426 
z
" style="fill:#1a1a1a;"/>
   </g>
   <g id="patch_49">
    <path clip-path="url(#p40bbc4b747)" d="M 118.789455 200.06 
L 120.809818 200.06 
L 120.809818 199.180005 
L 118.789455 199.180005 
z
" style="fill:#1a1a1a;"/>
   </g>
   <g id="patch_50">
    <path clip-path="url(#p40bbc4b747)" d="M 120.809818 200.06 
L 122.830182 200.06 
L 122.830182 199.139836 
L 120.809818 199.139836 
z
" style="fill:#1a1a1a;"/>
   </g>
   <g id="patch_51">
    <path clip-path="url(#p40bbc4b747)" d="M 122.830182 200.06 
L 124.850545 200.06 
L 124.850545 199.089076 
L 122.830182 199.089076 
z
" style="fill:#1a1a1a;"/>
   </g>
   <g id="patch_52">
    <path clip-path="url(#p40bbc4b747)" d="M 124.850545 200.06 
L 126.870909 200.06 
L 126.870909 199.076489 
L 124.850545 199.076489 
z
" style="fill:#1a1a1a;"/>
   </g>
   <g id="patch_53">
    <path clip-path="url(#p40bbc4b747)" d="M 126.870909 200.06 
L 128.891273 200.06 
L 128.891273 199.051933 
L 126.870909 199.051933 
z
" style="fill:#1a1a1a;"/>
   </g>
   <g id="patch_54">
    <path clip-path="url(#p40bbc4b747)" d="M 128.891273 200.06 
L 130.911636 200.06 
L 130.911636 198.864827 
L 128.891273 198.864827 
z
" style="fill:#1a1a1a;"/>
   </g>
   <g id="patch_55">
    <path clip-path="url(#p40bbc4b747)" d="M 130.911636 200.06 
L 132.932 200.06 
L 132.932 198.80785 
L 130.911636 198.80785 
z
" style="fill:#1a1a1a;"/>
   </g>
   <g id="patch_56">
    <path clip-path="url(#p40bbc4b747)" d="M 132.932 200.06 
L 134.952364 200.06 
L 134.952364 198.675175 
L 132.932 198.675175 
z
" style="fill:#1a1a1a;"/>
   </g>
   <g id="patch_57">
    <path clip-path="url(#p40bbc4b747)" d="M 134.952364 200.06 
L 136.972727 200.06 
L 136.972727 198.408096 
L 134.952364 198.408096 
z
" style="fill:#1a1a1a;"/>
   </g>
   <g id="patch_58">
    <path clip-path="url(#p40bbc4b747)" d="M 136.972727 200.06 
L 138.993091 200.06 
L 138.993091 198.285614 
L 136.972727 198.285614 
z
" style="fill:#1a1a1a;"/>
   </g>
   <g id="patch_59">
    <path clip-path="url(#p40bbc4b747)" d="M 138.993091 200.06 
L 141.013455 200.06 
L 141.013455 198.00059 
L 138.993091 198.00059 
z
" style="fill:#1a1a1a;"/>
   </g>
   <g id="patch_60">
    <path clip-path="url(#p40bbc4b747)" d="M 141.013455 200.06 
L 143.033818 200.06 
L 143.033818 197.807092 
L 141.013455 197.807092 
z
" style="fill:#1a1a1a;"/>
   </g>
   <g id="patch_61">
    <path clip-path="url(#p40bbc4b747)" d="M 143.033818 200.06 
L 145.054182 200.06 
L 145.054182 197.311911 
L 143.033818 197.311911 
z
" style="fill:#1a1a1a;"/>
   </g>
   <g id="patch_62">
    <path clip-path="url(#p40bbc4b747)" d="M 145.054182 200.06 
L 147.074545 200.06 
L 147.074545 195.619868 
L 145.054182 195.619868 
z
" style="fill:#1a1a1a;"/>
   </g>
   <g id="patch_63">
    <path clip-path="url(#p40bbc4b747)" d="M 147.074545 200.06 
L 149.094909 200.06 
L 149.094909 195.025533 
L 147.074545 195.025533 
z
" style="fill:#1a1a1a;"/>
   </g>
   <g id="patch_64">
    <path clip-path="url(#p40bbc4b747)" d="M 149.094909 200.06 
L 151.115273 200.06 
L 151.115273 194.9245 
L 149.094909 194.9245 
z
" style="fill:#1a1a1a;"/>
   </g>
   <g id="patch_65">
    <path clip-path="url(#p40bbc4b747)" d="M 151.115273 200.06 
L 153.135636 200.06 
L 153.135636 193.466597 
L 151.115273 193.466597 
z
" style="fill:#1a1a1a;"/>
   </g>
   <g id="patch_66">
    <path clip-path="url(#p40bbc4b747)" d="M 153.135636 200.06 
L 155.156 200.06 
L 155.156 191.511275 
L 153.135636 191.511275 
z
" style="fill:#1a1a1a;"/>
   </g>
   <g id="patch_67">
    <path clip-path="url(#p40bbc4b747)" d="M 155.156 200.06 
L 157.176364 200.06 
L 157.176364 186.742553 
L 155.156 186.742553 
z
" style="fill:#1a1a1a;"/>
   </g>
   <g id="patch_68">
    <path clip-path="url(#p40bbc4b747)" d="M 157.176364 200.06 
L 159.196727 200.06 
L 159.196727 185.030821 
L 157.176364 185.030821 
z
" style="fill:#1a1a1a;"/>
   </g>
   <g id="patch_69">
    <path clip-path="url(#p40bbc4b747)" d="M 159.196727 200.06 
L 161.217091 200.06 
L 161.217091 183.713657 
L 159.196727 183.713657 
z
" style="fill:#1a1a1a;"/>
   </g>
   <g id="patch_70">
    <path clip-path="url(#p40bbc4b747)" d="M 161.217091 200.06 
L 163.237455 200.06 
L 163.237455 181.636197 
L 161.217091 181.636197 
z
" style="fill:#1a1a1a;"/>
   </g>
   <g id="patch_71">
    <path clip-path="url(#p40bbc4b747)" d="M 163.237455 200.06 
L 165.257818 200.06 
L 165.257818 178.486326 
L 163.237455 178.486326 
z
" style="fill:#1a1a1a;"/>
   </g>
   <g id="patch_72">
    <path clip-path="url(#p40bbc4b747)" d="M 165.257818 200.06 
L 167.278182 200.06 
L 167.278182 176.073725 
L 165.257818 176.073725 
z
" style="fill:#1a1a1a;"/>
   </g>
   <g id="patch_73">
    <path clip-path="url(#p40bbc4b747)" d="M 167.278182 200.06 
L 169.298545 200.06 
L 169.298545 175.54465 
L 167.278182 175.54465 
z
" style="fill:#1a1a1a;"/>
   </g>
   <g id="patch_74">
    <path clip-path="url(#p40bbc4b747)" d="M 169.298545 200.06 
L 171.318909 200.06 
L 171.318909 175.111309 
L 169.298545 175.111309 
z
" style="fill:#1a1a1a;"/>
   </g>
   <g id="patch_75">
    <path clip-path="url(#p40bbc4b747)" d="M 171.318909 200.06 
L 173.339273 200.06 
L 173.339273 173.228913 
L 171.318909 173.228913 
z
" style="fill:#1a1a1a;"/>
   </g>
   <g id="patch_76">
    <path clip-path="url(#p40bbc4b747)" d="M 173.339273 200.06 
L 175.359636 200.06 
L 175.359636 171.295955 
L 173.339273 171.295955 
z
" style="fill:#1a1a1a;"/>
   </g>
   <g id="patch_77">
    <path clip-path="url(#p40bbc4b747)" d="M 175.359636 200.06 
L 177.38 200.06 
L 177.38 171.198238 
L 175.359636 171.198238 
z
" style="fill:#1a1a1a;"/>
   </g>
   <g id="patch_78">
    <path clip-path="url(#p40bbc4b747)" d="M 177.38 200.06 
L 179.400364 200.06 
L 179.400364 69.370507 
L 177.38 69.370507 
z
" style="fill:#1a1a1a;"/>
   </g>
   <g id="patch_79">
    <path clip-path="url(#p40bbc4b747)" d="M 179.400364 200.06 
L 181.420727 200.06 
L 181.420727 171.284961 
L 179.400364 171.284961 
z
" style="fill:#1a1a1a;"/>
   </g>
   <g id="patch_80">
    <path clip-path="url(#p40bbc4b747)" d="M 181.420727 200.06 
L 183.441091 200.06 
L 183.441091 172.323421 
L 181.420727 172.323421 
z
" style="fill:#1a1a1a;"/>
   </g>
   <g id="patch_81">
    <path clip-path="url(#p40bbc4b747)" d="M 183.441091 200.06 
L 185.461455 200.06 
L 185.461455 174.492185 
L 183.441091 174.492185 
z
" style="fill:#1a1a1a;"/>
   </g>
   <g id="patch_82">
    <path clip-path="url(#p40bbc4b747)" d="M 185.461455 200.06 
L 187.481818 200.06 
L 187.481818 175.14334 
L 185.461455 175.14334 
z
" style="fill:#1a1a1a;"/>
   </g>
   <g id="patch_83">
    <path clip-path="url(#p40bbc4b747)" d="M 187.481818 200.06 
L 189.502182 200.06 
L 189.502182 176.010266 
L 187.481818 176.010266 
z
" style="fill:#1a1a1a;"/>
   </g>
   <g id="patch_84">
    <path clip-path="url(#p40bbc4b747)" d="M 189.502182 200.06 
L 191.522545 200.06 
L 191.522545 178.089518 
L 189.502182 178.089518 
z
" style="fill:#1a1a1a;"/>
   </g>
   <g id="patch_85">
    <path clip-path="url(#p40bbc4b747)" d="M 191.522545 200.06 
L 193.542909 200.06 
L 193.542909 180.21846 
L 191.522545 180.21846 
z
" style="fill:#1a1a1a;"/>
   </g>
   <g id="patch_86">
    <path clip-path="url(#p40bbc4b747)" d="M 193.542909 200.06 
L 195.563273 200.06 
L 195.563273 183.557996 
L 193.542909 183.557996 
z
" style="fill:#1a1a1a;"/>
   </g>
   <g id="patch_87">
    <path clip-path="url(#p40bbc4b747)" d="M 195.563273 200.06 
L 197.583636 200.06 
L 197.583636 184.002186 
L 195.563273 184.002186 
z
" style="fill:#1a1a1a;"/>
   </g>
   <g id="patch_88">
    <path clip-path="url(#p40bbc4b747)" d="M 197.583636 200.06 
L 199.604 200.06 
L 199.604 186.381048 
L 197.583636 186.381048 
z
" style="fill:#1a1a1a;"/>
   </g>
   <g id="patch_89">
    <path clip-path="url(#p40bbc4b747)" d="M 199.604 200.06 
L 201.624364 200.06 
L 201.624364 189.002189 
L 199.604 189.002189 
z
" style="fill:#1a1a1a;"/>
   </g>
   <g id="patch_90">
    <path clip-path="url(#p40bbc4b747)" d="M 201.624364 200.06 
L 203.644727 200.06 
L 203.644727 192.108786 
L 201.624364 192.108786 
z
" style="fill:#1a1a1a;"/>
   </g>
   <g id="patch_91">
    <path clip-path="url(#p40bbc4b747)" d="M 203.644727 200.06 
L 205.665091 200.06 
L 205.665091 194.333843 
L 203.644727 194.333843 
z
" style="fill:#1a1a1a;"/>
   </g>
   <g id="patch_92">
    <path clip-path="url(#p40bbc4b747)" d="M 205.665091 200.06 
L 207.685455 200.06 
L 207.685455 194.966535 
L 205.665091 194.966535 
z
" style="fill:#1a1a1a;"/>
   </g>
   <g id="patch_93">
    <path clip-path="url(#p40bbc4b747)" d="M 207.685455 200.06 
L 209.705818 200.06 
L 209.705818 195.507764 
L 207.685455 195.507764 
z
" style="fill:#1a1a1a;"/>
   </g>
   <g id="patch_94">
    <path clip-path="url(#p40bbc4b747)" d="M 209.705818 200.06 
L 211.726182 200.06 
L 211.726182 196.939424 
L 209.705818 196.939424 
z
" style="fill:#1a1a1a;"/>
   </g>
   <g id="patch_95">
    <path clip-path="url(#p40bbc4b747)" d="M 211.726182 200.06 
L 213.746545 200.06 
L 213.746545 197.363707 
L 211.726182 197.363707 
z
" style="fill:#1a1a1a;"/>
   </g>
   <g id="patch_96">
    <path clip-path="url(#p40bbc4b747)" d="M 213.746545 200.06 
L 215.766909 200.06 
L 215.766909 197.936811 
L 213.746545 197.936811 
z
" style="fill:#1a1a1a;"/>
   </g>
   <g id="patch_97">
    <path clip-path="url(#p40bbc4b747)" d="M 215.766909 200.06 
L 217.787273 200.06 
L 217.787273 198.258238 
L 215.766909 198.258238 
z
" style="fill:#1a1a1a;"/>
   </g>
   <g id="patch_98">
    <path clip-path="url(#p40bbc4b747)" d="M 217.787273 200.06 
L 219.807636 200.06 
L 219.807636 198.323171 
L 217.787273 198.323171 
z
" style="fill:#1a1a1a;"/>
   </g>
   <g id="patch_99">
    <path clip-path="url(#p40bbc4b747)" d="M 219.807636 200.06 
L 221.828 200.06 
L 221.828 198.509789 
L 219.807636 198.509789 
z
" style="fill:#1a1a1a;"/>
   </g>
   <g id="patch_100">
    <path clip-path="url(#p40bbc4b747)" d="M 221.828 200.06 
L 223.848364 200.06 
L 223.848364 198.721704 
L 221.828 198.721704 
z
" style="fill:#1a1a1a;"/>
   </g>
   <g id="patch_101">
    <path clip-path="url(#p40bbc4b747)" d="M 223.848364 200.06 
L 225.868727 200.06 
L 225.868727 198.85845 
L 223.848364 198.85845 
z
" style="fill:#1a1a1a;"/>
   </g>
   <g id="patch_102">
    <path clip-path="url(#p40bbc4b747)" d="M 225.868727 200.06 
L 227.889091 200.06 
L 227.889091 199.0002 
L 225.868727 199.0002 
z
" style="fill:#1a1a1a;"/>
   </g>
   <g id="patch_103">
    <path clip-path="url(#p40bbc4b747)" d="M 227.889091 200.06 
L 229.909455 200.06 
L 229.909455 199.056142 
L 227.889091 199.056142 
z
" style="fill:#1a1a1a;"/>
   </g>
   <g id="patch_104">
    <path clip-path="url(#p40bbc4b747)" d="M 229.909455 200.06 
L 231.929818 200.06 
L 231.929818 199.077275 
L 229.909455 199.077275 
z
" style="fill:#1a1a1a;"/>
   </g>
   <g id="patch_105">
    <path clip-path="url(#p40bbc4b747)" d="M 231.929818 200.06 
L 233.950182 200.06 
L 233.950182 199.123263 
L 231.929818 199.123263 
z
" style="fill:#1a1a1a;"/>
   </g>
   <g id="patch_106">
    <path clip-path="url(#p40bbc4b747)" d="M 233.950182 200.06 
L 235.970545 200.06 
L 235.970545 199.16276 
L 233.950182 199.16276 
z
" style="fill:#1a1a1a;"/>
   </g>
   <g id="patch_107">
    <path clip-path="url(#p40bbc4b747)" d="M 235.970545 200.06 
L 237.990909 200.06 
L 237.990909 199.251805 
L 235.970545 199.251805 
z
" style="fill:#1a1a1a;"/>
   </g>
   <g id="patch_108">
    <path clip-path="url(#p40bbc4b747)" d="M 237.990909 200.06 
L 240.011273 200.06 
L 240.011273 199.287287 
L 237.990909 199.287287 
z
" style="fill:#1a1a1a;"/>
   </g>
   <g id="patch_109">
    <path clip-path="url(#p40bbc4b747)" d="M 240.011273 200.06 
L 242.031636 200.06 
L 242.031636 199.333923 
L 240.011273 199.333923 
z
" style="fill:#1a1a1a;"/>
   </g>
   <g id="patch_110">
    <path clip-path="url(#p40bbc4b747)" d="M 242.031636 200.06 
L 244.052 200.06 
L 244.052 199.343534 
L 242.031636 199.343534 
z
" style="fill:#1a1a1a;"/>
   </g>
   <g id="patch_111">
    <path clip-path="url(#p40bbc4b747)" d="M 244.052 200.06 
L 246.072364 200.06 
L 246.072364 199.377726 
L 244.052 199.377726 
z
" style="fill:#1a1a1a;"/>
   </g>
   <g id="patch_112">
    <path clip-path="url(#p40bbc4b747)" d="M 246.072364 200.06 
L 248.092727 200.06 
L 248.092727 199.401907 
L 246.072364 199.401907 
z
" style="fill:#1a1a1a;"/>
   </g>
   <g id="patch_113">
    <path clip-path="url(#p40bbc4b747)" d="M 248.092727 200.06 
L 250.113091 200.06 
L 250.113091 199.40945 
L 248.092727 199.40945 
z
" style="fill:#1a1a1a;"/>
   </g>
   <g id="patch_114">
    <path clip-path="url(#p40bbc4b747)" d="M 250.113091 200.06 
L 252.133455 200.06 
L 252.133455 199.433698 
L 250.113091 199.433698 
z
" style="fill:#1a1a1a;"/>
   </g>
   <g id="patch_115">
    <path clip-path="url(#p40bbc4b747)" d="M 252.133455 200.06 
L 254.153818 200.06 
L 254.153818 199.441827 
L 252.133455 199.441827 
z
" style="fill:#1a1a1a;"/>
   </g>
   <g id="patch_116">
    <path clip-path="url(#p40bbc4b747)" d="M 254.153818 200.06 
L 256.174182 200.06 
L 256.174182 199.469047 
L 254.153818 199.469047 
z
" style="fill:#1a1a1a;"/>
   </g>
   <g id="patch_117">
    <path clip-path="url(#p40bbc4b747)" d="M 256.174182 200.06 
L 258.194545 200.06 
L 258.194545 199.474146 
L 256.174182 199.474146 
z
" style="fill:#1a1a1a;"/>
   </g>
   <g id="patch_118">
    <path clip-path="url(#p40bbc4b747)" d="M 258.194545 200.06 
L 260.214909 200.06 
L 260.214909 199.48958 
L 258.194545 199.48958 
z
" style="fill:#1a1a1a;"/>
   </g>
   <g id="patch_119">
    <path clip-path="url(#p40bbc4b747)" d="M 260.214909 200.06 
L 262.235273 200.06 
L 262.235273 199.501297 
L 260.214909 199.501297 
z
" style="fill:#1a1a1a;"/>
   </g>
   <g id="patch_120">
    <path clip-path="url(#p40bbc4b747)" d="M 262.235273 200.06 
L 264.255636 200.06 
L 264.255636 199.513942 
L 262.235273 199.513942 
z
" style="fill:#1a1a1a;"/>
   </g>
   <g id="patch_121">
    <path clip-path="url(#p40bbc4b747)" d="M 264.255636 200.06 
L 266.276 200.06 
L 266.276 199.527026 
L 264.255636 199.527026 
z
" style="fill:#1a1a1a;"/>
   </g>
   <g id="patch_122">
    <path clip-path="url(#p40bbc4b747)" d="M 266.276 200.06 
L 268.296364 200.06 
L 268.296364 199.528869 
L 266.276 199.528869 
z
" style="fill:#1a1a1a;"/>
   </g>
   <g id="patch_123">
    <path clip-path="url(#p40bbc4b747)" d="M 268.296364 200.06 
L 270.316727 200.06 
L 270.316727 199.535976 
L 268.296364 199.535976 
z
" style="fill:#1a1a1a;"/>
   </g>
   <g id="patch_124">
    <path clip-path="url(#p40bbc4b747)" d="M 270.316727 200.06 
L 272.337091 200.06 
L 272.337091 199.545397 
L 270.316727 199.545397 
z
" style="fill:#1a1a1a;"/>
   </g>
   <g id="patch_125">
    <path clip-path="url(#p40bbc4b747)" d="M 272.337091 200.06 
L 274.357455 200.06 
L 274.357455 199.552136 
L 272.337091 199.552136 
z
" style="fill:#1a1a1a;"/>
   </g>
   <g id="patch_126">
    <path clip-path="url(#p40bbc4b747)" d="M 274.357455 200.06 
L 276.377818 200.06 
L 276.377818 199.562569 
L 274.357455 199.562569 
z
" style="fill:#1a1a1a;"/>
   </g>
   <g id="patch_127">
    <path clip-path="url(#p40bbc4b747)" d="M 276.377818 200.06 
L 278.398182 200.06 
L 278.398182 199.583192 
L 276.377818 199.583192 
z
" style="fill:#1a1a1a;"/>
   </g>
   <g id="patch_128">
    <path clip-path="url(#p40bbc4b747)" d="M 278.398182 200.06 
L 280.418545 200.06 
L 280.418545 199.589704 
L 278.398182 199.589704 
z
" style="fill:#1a1a1a;"/>
   </g>
   <g id="patch_129">
    <path clip-path="url(#p40bbc4b747)" d="M 280.418545 200.06 
L 282.438909 200.06 
L 282.438909 199.605551 
L 280.418545 199.605551 
z
" style="fill:#1a1a1a;"/>
   </g>
   <g id="patch_130">
    <path clip-path="url(#p40bbc4b747)" d="M 282.438909 200.06 
L 284.459273 200.06 
L 284.459273 199.608647 
L 282.438909 199.608647 
z
" style="fill:#1a1a1a;"/>
   </g>
   <g id="patch_131">
    <path clip-path="url(#p40bbc4b747)" d="M 284.459273 200.06 
L 286.479636 200.06 
L 286.479636 199.612934 
L 284.459273 199.612934 
z
" style="fill:#1a1a1a;"/>
   </g>
   <g id="patch_132">
    <path clip-path="url(#p40bbc4b747)" d="M 286.479636 200.06 
L 288.5 200.06 
L 288.5 199.621285 
L 286.479636 199.621285 
z
" style="fill:#1a1a1a;"/>
   </g>
   <g id="patch_133">
    <path clip-path="url(#p40bbc4b747)" d="M 288.5 200.06 
L 290.520364 200.06 
L 290.520364 199.625979 
L 288.5 199.625979 
z
" style="fill:#1a1a1a;"/>
   </g>
   <g id="patch_134">
    <path clip-path="url(#p40bbc4b747)" d="M 290.520364 200.06 
L 292.540727 200.06 
L 292.540727 199.638015 
L 290.520364 199.638015 
z
" style="fill:#1a1a1a;"/>
   </g>
   <g id="patch_135">
    <path clip-path="url(#p40bbc4b747)" d="M 292.540727 200.06 
L 294.561091 200.06 
L 294.561091 199.641878 
L 292.540727 199.641878 
z
" style="fill:#1a1a1a;"/>
   </g>
   <g id="patch_136">
    <path clip-path="url(#p40bbc4b747)" d="M 294.561091 200.06 
L 296.581455 200.06 
L 296.581455 199.643046 
L 294.561091 199.643046 
z
" style="fill:#1a1a1a;"/>
   </g>
   <g id="patch_137">
    <path clip-path="url(#p40bbc4b747)" d="M 296.581455 200.06 
L 298.601818 200.06 
L 298.601818 199.643989 
L 296.581455 199.643989 
z
" style="fill:#1a1a1a;"/>
   </g>
   <g id="patch_138">
    <path clip-path="url(#p40bbc4b747)" d="M 298.601818 200.06 
L 300.622182 200.06 
L 300.622182 199.648193 
L 298.601818 199.648193 
z
" style="fill:#1a1a1a;"/>
   </g>
   <g id="patch_139">
    <path clip-path="url(#p40bbc4b747)" d="M 300.622182 200.06 
L 302.642545 200.06 
L 302.642545 199.653161 
L 300.622182 199.653161 
z
" style="fill:#1a1a1a;"/>
   </g>
   <g id="patch_140">
    <path clip-path="url(#p40bbc4b747)" d="M 302.642545 200.06 
L 304.662909 200.06 
L 304.662909 199.656345 
L 302.642545 199.656345 
z
" style="fill:#1a1a1a;"/>
   </g>
   <g id="patch_141">
    <path clip-path="url(#p40bbc4b747)" d="M 304.662909 200.06 
L 306.683273 200.06 
L 306.683273 199.659894 
L 304.662909 199.659894 
z
" style="fill:#1a1a1a;"/>
   </g>
   <g id="patch_142">
    <path clip-path="url(#p40bbc4b747)" d="M 306.683273 200.06 
L 308.703636 200.06 
L 308.703636 199.661262 
L 306.683273 199.661262 
z
" style="fill:#1a1a1a;"/>
   </g>
   <g id="patch_143">
    <path clip-path="url(#p40bbc4b747)" d="M 308.703636 200.06 
L 310.724 200.06 
L 310.724 199.661528 
L 308.703636 199.661528 
z
" style="fill:#1a1a1a;"/>
   </g>
   <g id="patch_144">
    <path clip-path="url(#p40bbc4b747)" d="M 310.724 200.06 
L 312.744364 200.06 
L 312.744364 199.663092 
L 310.724 199.663092 
z
" style="fill:#1a1a1a;"/>
   </g>
   <g id="patch_145">
    <path clip-path="url(#p40bbc4b747)" d="M 312.744364 200.06 
L 314.764727 200.06 
L 314.764727 199.664344 
L 312.744364 199.664344 
z
" style="fill:#1a1a1a;"/>
   </g>
   <g id="patch_146">
    <path clip-path="url(#p40bbc4b747)" d="M 314.764727 200.06 
L 316.785091 200.06 
L 316.785091 199.66637 
L 314.764727 199.66637 
z
" style="fill:#1a1a1a;"/>
   </g>
   <g id="patch_147">
    <path clip-path="url(#p40bbc4b747)" d="M 316.785091 200.06 
L 318.805455 200.06 
L 318.805455 199.669473 
L 316.785091 199.669473 
z
" style="fill:#1a1a1a;"/>
   </g>
   <g id="patch_148">
    <path clip-path="url(#p40bbc4b747)" d="M 318.805455 200.06 
L 320.825818 200.06 
L 320.825818 199.670951 
L 318.805455 199.670951 
z
" style="fill:#1a1a1a;"/>
   </g>
   <g id="patch_149">
    <path clip-path="url(#p40bbc4b747)" d="M 320.825818 200.06 
L 322.846182 200.06 
L 322.846182 199.67106 
L 320.825818 199.67106 
z
" style="fill:#1a1a1a;"/>
   </g>
   <g id="patch_150">
    <path clip-path="url(#p40bbc4b747)" d="M 322.846182 200.06 
L 324.866545 200.06 
L 324.866545 199.672525 
L 322.846182 199.672525 
z
" style="fill:#1a1a1a;"/>
   </g>
   <g id="patch_151">
    <path clip-path="url(#p40bbc4b747)" d="M 324.866545 200.06 
L 326.886909 200.06 
L 326.886909 199.673365 
L 324.866545 199.673365 
z
" style="fill:#1a1a1a;"/>
   </g>
   <g id="patch_152">
    <path clip-path="url(#p40bbc4b747)" d="M 326.886909 200.06 
L 328.907273 200.06 
L 328.907273 199.675161 
L 326.886909 199.675161 
z
" style="fill:#1a1a1a;"/>
   </g>
   <g id="matplotlib.axis_1"/>
   <g id="matplotlib.axis_2"/>
   <g id="patch_153">
    <path d="M 10.7 200.06 
L 10.7 10.7 
" style="fill:none;stroke:#000000;stroke-linecap:square;stroke-linejoin:miter;stroke-width:0.8;"/>
   </g>
   <g id="patch_154">
    <path d="M 344.06 200.06 
L 344.06 10.7 
" style="fill:none;stroke:#000000;stroke-linecap:square;stroke-linejoin:miter;stroke-width:0.8;"/>
   </g>
   <g id="patch_155">
    <path d="M 10.7 200.06 
L 344.06 200.06 
" style="fill:none;stroke:#000000;stroke-linecap:square;stroke-linejoin:miter;stroke-width:0.8;"/>
   </g>
   <g id="patch_156">
    <path d="M 10.7 10.7 
L 344.06 10.7 
" style="fill:none;stroke:#000000;stroke-linecap:square;stroke-linejoin:miter;stroke-width:0.8;"/>
   </g>
  </g>
 </g>
 <defs>
  <clipPath id="p40bbc4b747">
   <rect height="189.36" width="333.36" x="10.7" y="10.7"/>
  </clipPath>
 </defs>
</svg>
