<?xml version="1.0" encoding="utf-8" standalone="no"?>
<!DOCTYPE svg PUBLIC "-//W3C//DTD SVG 1.1//EN"
  "http://www.w3.org/Graphics/SVG/1.1/DTD/svg11.dtd">
<!-- Created with matplotlib (http://matplotlib.org/) -->
<svg height="210pt" version="1.1" viewBox="0 0 354 210" width="354pt" xmlns="http://www.w3.org/2000/svg" xmlns:xlink="http://www.w3.org/1999/xlink">
 <defs>
  <style type="text/css">
*{stroke-linecap:butt;stroke-linejoin:round;}
  </style>
 </defs>
 <g id="figure_1">
  <g id="patch_1">
   <path d="M 0 210.76 
L 354.76 210.76 
L 354.76 0 
L 0 0 
z
" style="fill:#ffffff;"/>
  </g>
  <g id="axes_1">
   <g id="patch_2">
    <path d="M 10.7 200.06 
L 344.06 200.06 
L 344.06 10.7 
L 10.7 10.7 
z
" style="fill:#ffffff;"/>
   </g>
   <g id="patch_3">
    <path clip-path="url(#pff9fa03a21)" d="M 25.852727 200.06 
L 27.873091 200.06 
L 27.873091 189.921392 
L 25.852727 189.921392 
z
" style="fill:#1a1a1a;"/>
   </g>
   <g id="patch_4">
    <path clip-path="url(#pff9fa03a21)" d="M 27.873091 200.06 
L 29.893455 200.06 
L 29.893455 189.850407 
L 27.873091 189.850407 
z
" style="fill:#1a1a1a;"/>
   </g>
   <g id="patch_5">
    <path clip-path="url(#pff9fa03a21)" d="M 29.893455 200.06 
L 31.913818 200.06 
L 31.913818 189.53312 
L 29.893455 189.53312 
z
" style="fill:#1a1a1a;"/>
   </g>
   <g id="patch_6">
    <path clip-path="url(#pff9fa03a21)" d="M 31.913818 200.06 
L 33.934182 200.06 
L 33.934182 189.509331 
L 31.913818 189.509331 
z
" style="fill:#1a1a1a;"/>
   </g>
   <g id="patch_7">
    <path clip-path="url(#pff9fa03a21)" d="M 33.934182 200.06 
L 35.954545 200.06 
L 35.954545 189.014739 
L 33.934182 189.014739 
z
" style="fill:#1a1a1a;"/>
   </g>
   <g id="patch_8">
    <path clip-path="url(#pff9fa03a21)" d="M 35.954545 200.06 
L 37.974909 200.06 
L 37.974909 188.959942 
L 35.954545 188.959942 
z
" style="fill:#1a1a1a;"/>
   </g>
   <g id="patch_9">
    <path clip-path="url(#pff9fa03a21)" d="M 37.974909 200.06 
L 39.995273 200.06 
L 39.995273 188.481488 
L 37.974909 188.481488 
z
" style="fill:#1a1a1a;"/>
   </g>
   <g id="patch_10">
    <path clip-path="url(#pff9fa03a21)" d="M 39.995273 200.06 
L 42.015636 200.06 
L 42.015636 187.624919 
L 39.995273 187.624919 
z
" style="fill:#1a1a1a;"/>
   </g>
   <g id="patch_11">
    <path clip-path="url(#pff9fa03a21)" d="M 42.015636 200.06 
L 44.036 200.06 
L 44.036 187.390356 
L 42.015636 187.390356 
z
" style="fill:#1a1a1a;"/>
   </g>
   <g id="patch_12">
    <path clip-path="url(#pff9fa03a21)" d="M 44.036 200.06 
L 46.056364 200.06 
L 46.056364 185.917247 
L 44.036 185.917247 
z
" style="fill:#1a1a1a;"/>
   </g>
   <g id="patch_13">
    <path clip-path="url(#pff9fa03a21)" d="M 46.056364 200.06 
L 48.076727 200.06 
L 48.076727 185.85444 
L 46.056364 185.85444 
z
" style="fill:#1a1a1a;"/>
   </g>
   <g id="patch_14">
    <path clip-path="url(#pff9fa03a21)" d="M 48.076727 200.06 
L 50.097091 200.06 
L 50.097091 184.894289 
L 48.076727 184.894289 
z
" style="fill:#1a1a1a;"/>
   </g>
   <g id="patch_15">
    <path clip-path="url(#pff9fa03a21)" d="M 50.097091 200.06 
L 52.117455 200.06 
L 52.117455 184.122956 
L 50.097091 184.122956 
z
" style="fill:#1a1a1a;"/>
   </g>
   <g id="patch_16">
    <path clip-path="url(#pff9fa03a21)" d="M 52.117455 200.06 
L 54.137818 200.06 
L 54.137818 183.907612 
L 52.117455 183.907612 
z
" style="fill:#1a1a1a;"/>
   </g>
   <g id="patch_17">
    <path clip-path="url(#pff9fa03a21)" d="M 54.137818 200.06 
L 56.158182 200.06 
L 56.158182 183.077984 
L 54.137818 183.077984 
z
" style="fill:#1a1a1a;"/>
   </g>
   <g id="patch_18">
    <path clip-path="url(#pff9fa03a21)" d="M 56.158182 200.06 
L 58.178545 200.06 
L 58.178545 182.913451 
L 56.158182 182.913451 
z
" style="fill:#1a1a1a;"/>
   </g>
   <g id="patch_19">
    <path clip-path="url(#pff9fa03a21)" d="M 58.178545 200.06 
L 60.198909 200.06 
L 60.198909 182.624081 
L 58.178545 182.624081 
z
" style="fill:#1a1a1a;"/>
   </g>
   <g id="patch_20">
    <path clip-path="url(#pff9fa03a21)" d="M 60.198909 200.06 
L 62.219273 200.06 
L 62.219273 181.594802 
L 60.198909 181.594802 
z
" style="fill:#1a1a1a;"/>
   </g>
   <g id="patch_21">
    <path clip-path="url(#pff9fa03a21)" d="M 62.219273 200.06 
L 64.239636 200.06 
L 64.239636 180.730827 
L 62.219273 180.730827 
z
" style="fill:#1a1a1a;"/>
   </g>
   <g id="patch_22">
    <path clip-path="url(#pff9fa03a21)" d="M 64.239636 200.06 
L 66.26 200.06 
L 66.26 179.371458 
L 64.239636 179.371458 
z
" style="fill:#1a1a1a;"/>
   </g>
   <g id="patch_23">
    <path clip-path="url(#pff9fa03a21)" d="M 66.26 200.06 
L 68.280364 200.06 
L 68.280364 179.020724 
L 66.26 179.020724 
z
" style="fill:#1a1a1a;"/>
   </g>
   <g id="patch_24">
    <path clip-path="url(#pff9fa03a21)" d="M 68.280364 200.06 
L 70.300727 200.06 
L 70.300727 178.317715 
L 68.280364 178.317715 
z
" style="fill:#1a1a1a;"/>
   </g>
   <g id="patch_25">
    <path clip-path="url(#pff9fa03a21)" d="M 70.300727 200.06 
L 72.321091 200.06 
L 72.321091 176.690982 
L 70.300727 176.690982 
z
" style="fill:#1a1a1a;"/>
   </g>
   <g id="patch_26">
    <path clip-path="url(#pff9fa03a21)" d="M 72.321091 200.06 
L 74.341455 200.06 
L 74.341455 176.59055 
L 72.321091 176.59055 
z
" style="fill:#1a1a1a;"/>
   </g>
   <g id="patch_27">
    <path clip-path="url(#pff9fa03a21)" d="M 74.341455 200.06 
L 76.361818 200.06 
L 76.361818 176.168832 
L 74.341455 176.168832 
z
" style="fill:#1a1a1a;"/>
   </g>
   <g id="patch_28">
    <path clip-path="url(#pff9fa03a21)" d="M 76.361818 200.06 
L 78.382182 200.06 
L 78.382182 174.771025 
L 76.361818 174.771025 
z
" style="fill:#1a1a1a;"/>
   </g>
   <g id="patch_29">
    <path clip-path="url(#pff9fa03a21)" d="M 78.382182 200.06 
L 80.402545 200.06 
L 80.402545 174.453043 
L 78.382182 174.453043 
z
" style="fill:#1a1a1a;"/>
   </g>
   <g id="patch_30">
    <path clip-path="url(#pff9fa03a21)" d="M 80.402545 200.06 
L 82.422909 200.06 
L 82.422909 173.468743 
L 80.402545 173.468743 
z
" style="fill:#1a1a1a;"/>
   </g>
   <g id="patch_31">
    <path clip-path="url(#pff9fa03a21)" d="M 82.422909 200.06 
L 84.443273 200.06 
L 84.443273 172.964359 
L 82.422909 172.964359 
z
" style="fill:#1a1a1a;"/>
   </g>
   <g id="patch_32">
    <path clip-path="url(#pff9fa03a21)" d="M 84.443273 200.06 
L 86.463636 200.06 
L 86.463636 170.950871 
L 84.443273 170.950871 
z
" style="fill:#1a1a1a;"/>
   </g>
   <g id="patch_33">
    <path clip-path="url(#pff9fa03a21)" d="M 86.463636 200.06 
L 88.484 200.06 
L 88.484 168.293261 
L 86.463636 168.293261 
z
" style="fill:#1a1a1a;"/>
   </g>
   <g id="patch_34">
    <path clip-path="url(#pff9fa03a21)" d="M 88.484 200.06 
L 90.504364 200.06 
L 90.504364 165.237211 
L 88.484 165.237211 
z
" style="fill:#1a1a1a;"/>
   </g>
   <g id="patch_35">
    <path clip-path="url(#pff9fa03a21)" d="M 90.504364 200.06 
L 92.524727 200.06 
L 92.524727 164.628904 
L 90.504364 164.628904 
z
" style="fill:#1a1a1a;"/>
   </g>
   <g id="patch_36">
    <path clip-path="url(#pff9fa03a21)" d="M 92.524727 200.06 
L 94.545091 200.06 
L 94.545091 164.180603 
L 92.524727 164.180603 
z
" style="fill:#1a1a1a;"/>
   </g>
   <g id="patch_37">
    <path clip-path="url(#pff9fa03a21)" d="M 94.545091 200.06 
L 96.565455 200.06 
L 96.565455 162.820113 
L 94.545091 162.820113 
z
" style="fill:#1a1a1a;"/>
   </g>
   <g id="patch_38">
    <path clip-path="url(#pff9fa03a21)" d="M 96.565455 200.06 
L 98.585818 200.06 
L 98.585818 161.825492 
L 96.565455 161.825492 
z
" style="fill:#1a1a1a;"/>
   </g>
   <g id="patch_39">
    <path clip-path="url(#pff9fa03a21)" d="M 98.585818 200.06 
L 100.606182 200.06 
L 100.606182 160.34375 
L 98.585818 160.34375 
z
" style="fill:#1a1a1a;"/>
   </g>
   <g id="patch_40">
    <path clip-path="url(#pff9fa03a21)" d="M 100.606182 200.06 
L 102.626545 200.06 
L 102.626545 158.760197 
L 100.606182 158.760197 
z
" style="fill:#1a1a1a;"/>
   </g>
   <g id="patch_41">
    <path clip-path="url(#pff9fa03a21)" d="M 102.626545 200.06 
L 104.646909 200.06 
L 104.646909 155.277869 
L 102.626545 155.277869 
z
" style="fill:#1a1a1a;"/>
   </g>
   <g id="patch_42">
    <path clip-path="url(#pff9fa03a21)" d="M 104.646909 200.06 
L 106.667273 200.06 
L 106.667273 153.452261 
L 104.646909 153.452261 
z
" style="fill:#1a1a1a;"/>
   </g>
   <g id="patch_43">
    <path clip-path="url(#pff9fa03a21)" d="M 106.667273 200.06 
L 108.687636 200.06 
L 108.687636 151.450922 
L 106.667273 151.450922 
z
" style="fill:#1a1a1a;"/>
   </g>
   <g id="patch_44">
    <path clip-path="url(#pff9fa03a21)" d="M 108.687636 200.06 
L 110.708 200.06 
L 110.708 150.445755 
L 108.687636 150.445755 
z
" style="fill:#1a1a1a;"/>
   </g>
   <g id="patch_45">
    <path clip-path="url(#pff9fa03a21)" d="M 110.708 200.06 
L 112.728364 200.06 
L 112.728364 149.278856 
L 110.708 149.278856 
z
" style="fill:#1a1a1a;"/>
   </g>
   <g id="patch_46">
    <path clip-path="url(#pff9fa03a21)" d="M 112.728364 200.06 
L 114.748727 200.06 
L 114.748727 146.11877 
L 112.728364 146.11877 
z
" style="fill:#1a1a1a;"/>
   </g>
   <g id="patch_47">
    <path clip-path="url(#pff9fa03a21)" d="M 114.748727 200.06 
L 116.769091 200.06 
L 116.769091 144.093186 
L 114.748727 144.093186 
z
" style="fill:#1a1a1a;"/>
   </g>
   <g id="patch_48">
    <path clip-path="url(#pff9fa03a21)" d="M 116.769091 200.06 
L 118.789455 200.06 
L 118.789455 142.88187 
L 116.769091 142.88187 
z
" style="fill:#1a1a1a;"/>
   </g>
   <g id="patch_49">
    <path clip-path="url(#pff9fa03a21)" d="M 118.789455 200.06 
L 120.809818 200.06 
L 120.809818 139.356287 
L 118.789455 139.356287 
z
" style="fill:#1a1a1a;"/>
   </g>
   <g id="patch_50">
    <path clip-path="url(#pff9fa03a21)" d="M 120.809818 200.06 
L 122.830182 200.06 
L 122.830182 137.078194 
L 120.809818 137.078194 
z
" style="fill:#1a1a1a;"/>
   </g>
   <g id="patch_51">
    <path clip-path="url(#pff9fa03a21)" d="M 122.830182 200.06 
L 124.850545 200.06 
L 124.850545 132.17856 
L 122.830182 132.17856 
z
" style="fill:#1a1a1a;"/>
   </g>
   <g id="patch_52">
    <path clip-path="url(#pff9fa03a21)" d="M 124.850545 200.06 
L 126.870909 200.06 
L 126.870909 129.904355 
L 124.850545 129.904355 
z
" style="fill:#1a1a1a;"/>
   </g>
   <g id="patch_53">
    <path clip-path="url(#pff9fa03a21)" d="M 126.870909 200.06 
L 128.891273 200.06 
L 128.891273 129.023763 
L 126.870909 129.023763 
z
" style="fill:#1a1a1a;"/>
   </g>
   <g id="patch_54">
    <path clip-path="url(#pff9fa03a21)" d="M 128.891273 200.06 
L 130.911636 200.06 
L 130.911636 118.899609 
L 128.891273 118.899609 
z
" style="fill:#1a1a1a;"/>
   </g>
   <g id="patch_55">
    <path clip-path="url(#pff9fa03a21)" d="M 130.911636 200.06 
L 132.932 200.06 
L 132.932 115.054842 
L 130.911636 115.054842 
z
" style="fill:#1a1a1a;"/>
   </g>
   <g id="patch_56">
    <path clip-path="url(#pff9fa03a21)" d="M 132.932 200.06 
L 134.952364 200.06 
L 134.952364 100.033116 
L 132.932 100.033116 
z
" style="fill:#1a1a1a;"/>
   </g>
   <g id="patch_57">
    <path clip-path="url(#pff9fa03a21)" d="M 134.952364 200.06 
L 136.972727 200.06 
L 136.972727 93.672535 
L 134.952364 93.672535 
z
" style="fill:#1a1a1a;"/>
   </g>
   <g id="patch_58">
    <path clip-path="url(#pff9fa03a21)" d="M 136.972727 200.06 
L 138.993091 200.06 
L 138.993091 85.229264 
L 136.972727 85.229264 
z
" style="fill:#1a1a1a;"/>
   </g>
   <g id="patch_59">
    <path clip-path="url(#pff9fa03a21)" d="M 138.993091 200.06 
L 141.013455 200.06 
L 141.013455 75.90177 
L 138.993091 75.90177 
z
" style="fill:#1a1a1a;"/>
   </g>
   <g id="patch_60">
    <path clip-path="url(#pff9fa03a21)" d="M 141.013455 200.06 
L 143.033818 200.06 
L 143.033818 71.093474 
L 141.013455 71.093474 
z
" style="fill:#1a1a1a;"/>
   </g>
   <g id="patch_61">
    <path clip-path="url(#pff9fa03a21)" d="M 143.033818 200.06 
L 145.054182 200.06 
L 145.054182 70.29453 
L 143.033818 70.29453 
z
" style="fill:#1a1a1a;"/>
   </g>
   <g id="patch_62">
    <path clip-path="url(#pff9fa03a21)" d="M 145.054182 200.06 
L 147.074545 200.06 
L 147.074545 53.56036 
L 145.054182 53.56036 
z
" style="fill:#1a1a1a;"/>
   </g>
   <g id="patch_63">
    <path clip-path="url(#pff9fa03a21)" d="M 147.074545 200.06 
L 149.094909 200.06 
L 149.094909 51.954788 
L 147.074545 51.954788 
z
" style="fill:#1a1a1a;"/>
   </g>
   <g id="patch_64">
    <path clip-path="url(#pff9fa03a21)" d="M 149.094909 200.06 
L 151.115273 200.06 
L 151.115273 39.291052 
L 149.094909 39.291052 
z
" style="fill:#1a1a1a;"/>
   </g>
   <g id="patch_65">
    <path clip-path="url(#pff9fa03a21)" d="M 151.115273 200.06 
L 153.135636 200.06 
L 153.135636 34.204322 
L 151.115273 34.204322 
z
" style="fill:#1a1a1a;"/>
   </g>
   <g id="patch_66">
    <path clip-path="url(#pff9fa03a21)" d="M 153.135636 200.06 
L 155.156 200.06 
L 155.156 31.71786 
L 153.135636 31.71786 
z
" style="fill:#1a1a1a;"/>
   </g>
   <g id="patch_67">
    <path clip-path="url(#pff9fa03a21)" d="M 155.156 200.06 
L 157.176364 200.06 
L 157.176364 29.742314 
L 155.156 29.742314 
z
" style="fill:#1a1a1a;"/>
   </g>
   <g id="patch_68">
    <path clip-path="url(#pff9fa03a21)" d="M 157.176364 200.06 
L 159.196727 200.06 
L 159.196727 22.491791 
L 157.176364 22.491791 
z
" style="fill:#1a1a1a;"/>
   </g>
   <g id="patch_69">
    <path clip-path="url(#pff9fa03a21)" d="M 159.196727 200.06 
L 161.217091 200.06 
L 161.217091 18.947995 
L 159.196727 18.947995 
z
" style="fill:#1a1a1a;"/>
   </g>
   <g id="patch_70">
    <path clip-path="url(#pff9fa03a21)" d="M 161.217091 200.06 
L 163.237455 200.06 
L 163.237455 17.033586 
L 161.217091 17.033586 
z
" style="fill:#1a1a1a;"/>
   </g>
   <g id="patch_71">
    <path clip-path="url(#pff9fa03a21)" d="M 163.237455 200.06 
L 165.257818 200.06 
L 165.257818 14.494614 
L 163.237455 14.494614 
z
" style="fill:#1a1a1a;"/>
   </g>
   <g id="patch_72">
    <path clip-path="url(#pff9fa03a21)" d="M 165.257818 200.06 
L 167.278182 200.06 
L 167.278182 12.982638 
L 165.257818 12.982638 
z
" style="fill:#1a1a1a;"/>
   </g>
   <g id="patch_73">
    <path clip-path="url(#pff9fa03a21)" d="M 167.278182 200.06 
L 169.298545 200.06 
L 169.298545 11.250144 
L 167.278182 11.250144 
z
" style="fill:#1a1a1a;"/>
   </g>
   <g id="patch_74">
    <path clip-path="url(#pff9fa03a21)" d="M 169.298545 200.06 
L 171.318909 200.06 
L 171.318909 10.057355 
L 169.298545 10.057355 
z
" style="fill:#1a1a1a;"/>
   </g>
   <g id="patch_75">
    <path clip-path="url(#pff9fa03a21)" d="M 171.318909 200.06 
L 173.339273 200.06 
L 173.339273 9.26613 
L 171.318909 9.26613 
z
" style="fill:#1a1a1a;"/>
   </g>
   <g id="patch_76">
    <path clip-path="url(#pff9fa03a21)" d="M 173.339273 200.06 
L 175.359636 200.06 
L 175.359636 6.507454 
L 173.339273 6.507454 
z
" style="fill:#1a1a1a;"/>
   </g>
   <g id="patch_77">
    <path clip-path="url(#pff9fa03a21)" d="M 175.359636 200.06 
L 177.38 200.06 
L 177.38 4.409021 
L 175.359636 4.409021 
z
" style="fill:#1a1a1a;"/>
   </g>
   <g id="patch_78">
    <path clip-path="url(#pff9fa03a21)" d="M 177.38 200.06 
L 179.400364 200.06 
L 179.400364 4.408756 
L 177.38 4.408756 
z
" style="fill:#1a1a1a;"/>
   </g>
   <g id="patch_79">
    <path clip-path="url(#pff9fa03a21)" d="M 179.400364 200.06 
L 181.420727 200.06 
L 181.420727 4.64043 
L 179.400364 4.64043 
z
" style="fill:#1a1a1a;"/>
   </g>
   <g id="patch_80">
    <path clip-path="url(#pff9fa03a21)" d="M 181.420727 200.06 
L 183.441091 200.06 
L 183.441091 7.315872 
L 181.420727 7.315872 
z
" style="fill:#1a1a1a;"/>
   </g>
   <g id="patch_81">
    <path clip-path="url(#pff9fa03a21)" d="M 183.441091 200.06 
L 185.461455 200.06 
L 185.461455 9.358394 
L 183.441091 9.358394 
z
" style="fill:#1a1a1a;"/>
   </g>
   <g id="patch_82">
    <path clip-path="url(#pff9fa03a21)" d="M 185.461455 200.06 
L 187.481818 200.06 
L 187.481818 10.913404 
L 185.461455 10.913404 
z
" style="fill:#1a1a1a;"/>
   </g>
   <g id="patch_83">
    <path clip-path="url(#pff9fa03a21)" d="M 187.481818 200.06 
L 189.502182 200.06 
L 189.502182 12.875569 
L 187.481818 12.875569 
z
" style="fill:#1a1a1a;"/>
   </g>
   <g id="patch_84">
    <path clip-path="url(#pff9fa03a21)" d="M 189.502182 200.06 
L 191.522545 200.06 
L 191.522545 13.054326 
L 189.502182 13.054326 
z
" style="fill:#1a1a1a;"/>
   </g>
   <g id="patch_85">
    <path clip-path="url(#pff9fa03a21)" d="M 191.522545 200.06 
L 193.542909 200.06 
L 193.542909 15.484544 
L 191.522545 15.484544 
z
" style="fill:#1a1a1a;"/>
   </g>
   <g id="patch_86">
    <path clip-path="url(#pff9fa03a21)" d="M 193.542909 200.06 
L 195.563273 200.06 
L 195.563273 17.832263 
L 193.542909 17.832263 
z
" style="fill:#1a1a1a;"/>
   </g>
   <g id="patch_87">
    <path clip-path="url(#pff9fa03a21)" d="M 195.563273 200.06 
L 197.583636 200.06 
L 197.583636 20.925547 
L 195.563273 20.925547 
z
" style="fill:#1a1a1a;"/>
   </g>
   <g id="patch_88">
    <path clip-path="url(#pff9fa03a21)" d="M 197.583636 200.06 
L 199.604 200.06 
L 199.604 25.073573 
L 197.583636 25.073573 
z
" style="fill:#1a1a1a;"/>
   </g>
   <g id="patch_89">
    <path clip-path="url(#pff9fa03a21)" d="M 199.604 200.06 
L 201.624364 200.06 
L 201.624364 29.977934 
L 199.604 29.977934 
z
" style="fill:#1a1a1a;"/>
   </g>
   <g id="patch_90">
    <path clip-path="url(#pff9fa03a21)" d="M 201.624364 200.06 
L 203.644727 200.06 
L 203.644727 32.730944 
L 201.624364 32.730944 
z
" style="fill:#1a1a1a;"/>
   </g>
   <g id="patch_91">
    <path clip-path="url(#pff9fa03a21)" d="M 203.644727 200.06 
L 205.665091 200.06 
L 205.665091 38.260815 
L 203.644727 38.260815 
z
" style="fill:#1a1a1a;"/>
   </g>
   <g id="patch_92">
    <path clip-path="url(#pff9fa03a21)" d="M 205.665091 200.06 
L 207.685455 200.06 
L 207.685455 46.210701 
L 205.665091 46.210701 
z
" style="fill:#1a1a1a;"/>
   </g>
   <g id="patch_93">
    <path clip-path="url(#pff9fa03a21)" d="M 207.685455 200.06 
L 209.705818 200.06 
L 209.705818 52.728202 
L 207.685455 52.728202 
z
" style="fill:#1a1a1a;"/>
   </g>
   <g id="patch_94">
    <path clip-path="url(#pff9fa03a21)" d="M 209.705818 200.06 
L 211.726182 200.06 
L 211.726182 66.978877 
L 209.705818 66.978877 
z
" style="fill:#1a1a1a;"/>
   </g>
   <g id="patch_95">
    <path clip-path="url(#pff9fa03a21)" d="M 211.726182 200.06 
L 213.746545 200.06 
L 213.746545 70.330573 
L 211.726182 70.330573 
z
" style="fill:#1a1a1a;"/>
   </g>
   <g id="patch_96">
    <path clip-path="url(#pff9fa03a21)" d="M 213.746545 200.06 
L 215.766909 200.06 
L 215.766909 73.176925 
L 213.746545 73.176925 
z
" style="fill:#1a1a1a;"/>
   </g>
   <g id="patch_97">
    <path clip-path="url(#pff9fa03a21)" d="M 215.766909 200.06 
L 217.787273 200.06 
L 217.787273 76.477601 
L 215.766909 76.477601 
z
" style="fill:#1a1a1a;"/>
   </g>
   <g id="patch_98">
    <path clip-path="url(#pff9fa03a21)" d="M 217.787273 200.06 
L 219.807636 200.06 
L 219.807636 92.23422 
L 217.787273 92.23422 
z
" style="fill:#1a1a1a;"/>
   </g>
   <g id="patch_99">
    <path clip-path="url(#pff9fa03a21)" d="M 219.807636 200.06 
L 221.828 200.06 
L 221.828 94.597464 
L 219.807636 94.597464 
z
" style="fill:#1a1a1a;"/>
   </g>
   <g id="patch_100">
    <path clip-path="url(#pff9fa03a21)" d="M 221.828 200.06 
L 223.848364 200.06 
L 223.848364 103.887656 
L 221.828 103.887656 
z
" style="fill:#1a1a1a;"/>
   </g>
   <g id="patch_101">
    <path clip-path="url(#pff9fa03a21)" d="M 223.848364 200.06 
L 225.868727 200.06 
L 225.868727 117.329052 
L 223.848364 117.329052 
z
" style="fill:#1a1a1a;"/>
   </g>
   <g id="patch_102">
    <path clip-path="url(#pff9fa03a21)" d="M 225.868727 200.06 
L 227.889091 200.06 
L 227.889091 122.278123 
L 225.868727 122.278123 
z
" style="fill:#1a1a1a;"/>
   </g>
   <g id="patch_103">
    <path clip-path="url(#pff9fa03a21)" d="M 227.889091 200.06 
L 229.909455 200.06 
L 229.909455 129.467392 
L 227.889091 129.467392 
z
" style="fill:#1a1a1a;"/>
   </g>
   <g id="patch_104">
    <path clip-path="url(#pff9fa03a21)" d="M 229.909455 200.06 
L 231.929818 200.06 
L 231.929818 131.664421 
L 229.909455 131.664421 
z
" style="fill:#1a1a1a;"/>
   </g>
   <g id="patch_105">
    <path clip-path="url(#pff9fa03a21)" d="M 231.929818 200.06 
L 233.950182 200.06 
L 233.950182 135.756307 
L 231.929818 135.756307 
z
" style="fill:#1a1a1a;"/>
   </g>
   <g id="patch_106">
    <path clip-path="url(#pff9fa03a21)" d="M 233.950182 200.06 
L 235.970545 200.06 
L 235.970545 138.875178 
L 233.950182 138.875178 
z
" style="fill:#1a1a1a;"/>
   </g>
   <g id="patch_107">
    <path clip-path="url(#pff9fa03a21)" d="M 235.970545 200.06 
L 237.990909 200.06 
L 237.990909 142.638931 
L 235.970545 142.638931 
z
" style="fill:#1a1a1a;"/>
   </g>
   <g id="patch_108">
    <path clip-path="url(#pff9fa03a21)" d="M 237.990909 200.06 
L 240.011273 200.06 
L 240.011273 143.847135 
L 237.990909 143.847135 
z
" style="fill:#1a1a1a;"/>
   </g>
   <g id="patch_109">
    <path clip-path="url(#pff9fa03a21)" d="M 240.011273 200.06 
L 242.031636 200.06 
L 242.031636 144.686564 
L 240.011273 144.686564 
z
" style="fill:#1a1a1a;"/>
   </g>
   <g id="patch_110">
    <path clip-path="url(#pff9fa03a21)" d="M 242.031636 200.06 
L 244.052 200.06 
L 244.052 146.898549 
L 242.031636 146.898549 
z
" style="fill:#1a1a1a;"/>
   </g>
   <g id="patch_111">
    <path clip-path="url(#pff9fa03a21)" d="M 244.052 200.06 
L 246.072364 200.06 
L 246.072364 150.021657 
L 244.052 150.021657 
z
" style="fill:#1a1a1a;"/>
   </g>
   <g id="patch_112">
    <path clip-path="url(#pff9fa03a21)" d="M 246.072364 200.06 
L 248.092727 200.06 
L 248.092727 151.240099 
L 246.072364 151.240099 
z
" style="fill:#1a1a1a;"/>
   </g>
   <g id="patch_113">
    <path clip-path="url(#pff9fa03a21)" d="M 248.092727 200.06 
L 250.113091 200.06 
L 250.113091 151.845456 
L 248.092727 151.845456 
z
" style="fill:#1a1a1a;"/>
   </g>
   <g id="patch_114">
    <path clip-path="url(#pff9fa03a21)" d="M 250.113091 200.06 
L 252.133455 200.06 
L 252.133455 155.216273 
L 250.113091 155.216273 
z
" style="fill:#1a1a1a;"/>
   </g>
   <g id="patch_115">
    <path clip-path="url(#pff9fa03a21)" d="M 252.133455 200.06 
L 254.153818 200.06 
L 254.153818 157.12182 
L 252.133455 157.12182 
z
" style="fill:#1a1a1a;"/>
   </g>
   <g id="patch_116">
    <path clip-path="url(#pff9fa03a21)" d="M 254.153818 200.06 
L 256.174182 200.06 
L 256.174182 159.057811 
L 254.153818 159.057811 
z
" style="fill:#1a1a1a;"/>
   </g>
   <g id="patch_117">
    <path clip-path="url(#pff9fa03a21)" d="M 256.174182 200.06 
L 258.194545 200.06 
L 258.194545 160.719253 
L 256.174182 160.719253 
z
" style="fill:#1a1a1a;"/>
   </g>
   <g id="patch_118">
    <path clip-path="url(#pff9fa03a21)" d="M 258.194545 200.06 
L 260.214909 200.06 
L 260.214909 162.3461 
L 258.194545 162.3461 
z
" style="fill:#1a1a1a;"/>
   </g>
   <g id="patch_119">
    <path clip-path="url(#pff9fa03a21)" d="M 260.214909 200.06 
L 262.235273 200.06 
L 262.235273 163.68044 
L 260.214909 163.68044 
z
" style="fill:#1a1a1a;"/>
   </g>
   <g id="patch_120">
    <path clip-path="url(#pff9fa03a21)" d="M 262.235273 200.06 
L 264.255636 200.06 
L 264.255636 164.206715 
L 262.235273 164.206715 
z
" style="fill:#1a1a1a;"/>
   </g>
   <g id="patch_121">
    <path clip-path="url(#pff9fa03a21)" d="M 264.255636 200.06 
L 266.276 200.06 
L 266.276 165.021516 
L 264.255636 165.021516 
z
" style="fill:#1a1a1a;"/>
   </g>
   <g id="patch_122">
    <path clip-path="url(#pff9fa03a21)" d="M 266.276 200.06 
L 268.296364 200.06 
L 268.296364 166.568607 
L 266.276 166.568607 
z
" style="fill:#1a1a1a;"/>
   </g>
   <g id="patch_123">
    <path clip-path="url(#pff9fa03a21)" d="M 268.296364 200.06 
L 270.316727 200.06 
L 270.316727 168.572247 
L 268.296364 168.572247 
z
" style="fill:#1a1a1a;"/>
   </g>
   <g id="patch_124">
    <path clip-path="url(#pff9fa03a21)" d="M 270.316727 200.06 
L 272.337091 200.06 
L 272.337091 171.307365 
L 270.316727 171.307365 
z
" style="fill:#1a1a1a;"/>
   </g>
   <g id="patch_125">
    <path clip-path="url(#pff9fa03a21)" d="M 272.337091 200.06 
L 274.357455 200.06 
L 274.357455 173.042486 
L 272.337091 173.042486 
z
" style="fill:#1a1a1a;"/>
   </g>
   <g id="patch_126">
    <path clip-path="url(#pff9fa03a21)" d="M 274.357455 200.06 
L 276.377818 200.06 
L 276.377818 173.999333 
L 274.357455 173.999333 
z
" style="fill:#1a1a1a;"/>
   </g>
   <g id="patch_127">
    <path clip-path="url(#pff9fa03a21)" d="M 276.377818 200.06 
L 278.398182 200.06 
L 278.398182 174.725423 
L 276.377818 174.725423 
z
" style="fill:#1a1a1a;"/>
   </g>
   <g id="patch_128">
    <path clip-path="url(#pff9fa03a21)" d="M 278.398182 200.06 
L 280.418545 200.06 
L 280.418545 175.288003 
L 278.398182 175.288003 
z
" style="fill:#1a1a1a;"/>
   </g>
   <g id="patch_129">
    <path clip-path="url(#pff9fa03a21)" d="M 280.418545 200.06 
L 282.438909 200.06 
L 282.438909 176.481509 
L 280.418545 176.481509 
z
" style="fill:#1a1a1a;"/>
   </g>
   <g id="patch_130">
    <path clip-path="url(#pff9fa03a21)" d="M 282.438909 200.06 
L 284.459273 200.06 
L 284.459273 176.593706 
L 282.438909 176.593706 
z
" style="fill:#1a1a1a;"/>
   </g>
   <g id="patch_131">
    <path clip-path="url(#pff9fa03a21)" d="M 284.459273 200.06 
L 286.479636 200.06 
L 286.479636 178.194367 
L 284.459273 178.194367 
z
" style="fill:#1a1a1a;"/>
   </g>
   <g id="patch_132">
    <path clip-path="url(#pff9fa03a21)" d="M 286.479636 200.06 
L 288.5 200.06 
L 288.5 178.788587 
L 286.479636 178.788587 
z
" style="fill:#1a1a1a;"/>
   </g>
   <g id="patch_133">
    <path clip-path="url(#pff9fa03a21)" d="M 288.5 200.06 
L 290.520364 200.06 
L 290.520364 179.077316 
L 288.5 179.077316 
z
" style="fill:#1a1a1a;"/>
   </g>
   <g id="patch_134">
    <path clip-path="url(#pff9fa03a21)" d="M 290.520364 200.06 
L 292.540727 200.06 
L 292.540727 179.436347 
L 290.520364 179.436347 
z
" style="fill:#1a1a1a;"/>
   </g>
   <g id="patch_135">
    <path clip-path="url(#pff9fa03a21)" d="M 292.540727 200.06 
L 294.561091 200.06 
L 294.561091 181.562465 
L 292.540727 181.562465 
z
" style="fill:#1a1a1a;"/>
   </g>
   <g id="patch_136">
    <path clip-path="url(#pff9fa03a21)" d="M 294.561091 200.06 
L 296.581455 200.06 
L 296.581455 182.510279 
L 294.561091 182.510279 
z
" style="fill:#1a1a1a;"/>
   </g>
   <g id="patch_137">
    <path clip-path="url(#pff9fa03a21)" d="M 296.581455 200.06 
L 298.601818 200.06 
L 298.601818 182.664884 
L 296.581455 182.664884 
z
" style="fill:#1a1a1a;"/>
   </g>
   <g id="patch_138">
    <path clip-path="url(#pff9fa03a21)" d="M 298.601818 200.06 
L 300.622182 200.06 
L 300.622182 183.045532 
L 298.601818 183.045532 
z
" style="fill:#1a1a1a;"/>
   </g>
   <g id="patch_139">
    <path clip-path="url(#pff9fa03a21)" d="M 300.622182 200.06 
L 302.642545 200.06 
L 302.642545 183.079312 
L 300.622182 183.079312 
z
" style="fill:#1a1a1a;"/>
   </g>
   <g id="patch_140">
    <path clip-path="url(#pff9fa03a21)" d="M 302.642545 200.06 
L 304.662909 200.06 
L 304.662909 183.956285 
L 302.642545 183.956285 
z
" style="fill:#1a1a1a;"/>
   </g>
   <g id="patch_141">
    <path clip-path="url(#pff9fa03a21)" d="M 304.662909 200.06 
L 306.683273 200.06 
L 306.683273 184.45243 
L 304.662909 184.45243 
z
" style="fill:#1a1a1a;"/>
   </g>
   <g id="patch_142">
    <path clip-path="url(#pff9fa03a21)" d="M 306.683273 200.06 
L 308.703636 200.06 
L 308.703636 185.03648 
L 306.683273 185.03648 
z
" style="fill:#1a1a1a;"/>
   </g>
   <g id="patch_143">
    <path clip-path="url(#pff9fa03a21)" d="M 308.703636 200.06 
L 310.724 200.06 
L 310.724 185.875775 
L 308.703636 185.875775 
z
" style="fill:#1a1a1a;"/>
   </g>
   <g id="patch_144">
    <path clip-path="url(#pff9fa03a21)" d="M 310.724 200.06 
L 312.744364 200.06 
L 312.744364 185.999976 
L 310.724 185.999976 
z
" style="fill:#1a1a1a;"/>
   </g>
   <g id="patch_145">
    <path clip-path="url(#pff9fa03a21)" d="M 312.744364 200.06 
L 314.764727 200.06 
L 314.764727 187.419967 
L 312.744364 187.419967 
z
" style="fill:#1a1a1a;"/>
   </g>
   <g id="patch_146">
    <path clip-path="url(#pff9fa03a21)" d="M 314.764727 200.06 
L 316.785091 200.06 
L 316.785091 187.846708 
L 314.764727 187.846708 
z
" style="fill:#1a1a1a;"/>
   </g>
   <g id="patch_147">
    <path clip-path="url(#pff9fa03a21)" d="M 316.785091 200.06 
L 318.805455 200.06 
L 318.805455 188.615492 
L 316.785091 188.615492 
z
" style="fill:#1a1a1a;"/>
   </g>
   <g id="patch_148">
    <path clip-path="url(#pff9fa03a21)" d="M 318.805455 200.06 
L 320.825818 200.06 
L 320.825818 188.976035 
L 318.805455 188.976035 
z
" style="fill:#1a1a1a;"/>
   </g>
   <g id="patch_149">
    <path clip-path="url(#pff9fa03a21)" d="M 320.825818 200.06 
L 322.846182 200.06 
L 322.846182 189.240366 
L 320.825818 189.240366 
z
" style="fill:#1a1a1a;"/>
   </g>
   <g id="patch_150">
    <path clip-path="url(#pff9fa03a21)" d="M 322.846182 200.06 
L 324.866545 200.06 
L 324.866545 189.519318 
L 322.846182 189.519318 
z
" style="fill:#1a1a1a;"/>
   </g>
   <g id="patch_151">
    <path clip-path="url(#pff9fa03a21)" d="M 324.866545 200.06 
L 326.886909 200.06 
L 326.886909 189.679883 
L 324.866545 189.679883 
z
" style="fill:#1a1a1a;"/>
   </g>
   <g id="patch_152">
    <path clip-path="url(#pff9fa03a21)" d="M 326.886909 200.06 
L 328.907273 200.06 
L 328.907273 189.910301 
L 326.886909 189.910301 
z
" style="fill:#1a1a1a;"/>
   </g>
   <g id="matplotlib.axis_1"/>
   <g id="matplotlib.axis_2"/>
   <g id="patch_153">
    <path d="M 10.7 200.06 
L 10.7 10.7 
" style="fill:none;stroke:#000000;stroke-linecap:square;stroke-linejoin:miter;stroke-width:0.8;"/>
   </g>
   <g id="patch_154">
    <path d="M 344.06 200.06 
L 344.06 10.7 
" style="fill:none;stroke:#000000;stroke-linecap:square;stroke-linejoin:miter;stroke-width:0.8;"/>
   </g>
   <g id="patch_155">
    <path d="M 10.7 200.06 
L 344.06 200.06 
" style="fill:none;stroke:#000000;stroke-linecap:square;stroke-linejoin:miter;stroke-width:0.8;"/>
   </g>
   <g id="patch_156">
    <path d="M 10.7 10.7 
L 344.06 10.7 
" style="fill:none;stroke:#000000;stroke-linecap:square;stroke-linejoin:miter;stroke-width:0.8;"/>
   </g>
  </g>
 </g>
 <defs>
  <clipPath id="pff9fa03a21">
   <rect height="189.36" width="333.36" x="10.7" y="10.7"/>
  </clipPath>
 </defs>
</svg>
