<?xml version="1.0" encoding="utf-8" standalone="no"?>
<!DOCTYPE svg PUBLIC "-//W3C//DTD SVG 1.1//EN"
  "http://www.w3.org/Graphics/SVG/1.1/DTD/svg11.dtd">
<!-- Created with matplotlib (http://matplotlib.org/) -->
<svg height="210pt" version="1.1" viewBox="0 0 354 210" width="354pt" xmlns="http://www.w3.org/2000/svg" xmlns:xlink="http://www.w3.org/1999/xlink">
 <defs>
  <style type="text/css">
*{stroke-linecap:butt;stroke-linejoin:round;}
  </style>
 </defs>
 <g id="figure_1">
  <g id="patch_1">
   <path d="M 0 210.76 
L 354.76 210.76 
L 354.76 0 
L 0 0 
z
" style="fill:#ffffff;"/>
  </g>
  <g id="axes_1">
   <g id="patch_2">
    <path d="M 10.7 200.06 
L 344.06 200.06 
L 344.06 10.7 
L 10.7 10.7 
z
" style="fill:#ffffff;"/>
   </g>
   <g id="patch_3">
    <path clip-path="url(#p2a0a8948f4)" d="M 25.852727 200.06 
L 27.873091 200.06 
L 27.873091 199.933238 
L 25.852727 199.933238 
z
" style="fill:#1a1a1a;"/>
   </g>
   <g id="patch_4">
    <path clip-path="url(#p2a0a8948f4)" d="M 27.873091 200.06 
L 29.893455 200.06 
L 29.893455 199.925292 
L 27.873091 199.925292 
z
" style="fill:#1a1a1a;"/>
   </g>
   <g id="patch_5">
    <path clip-path="url(#p2a0a8948f4)" d="M 29.893455 200.06 
L 31.913818 200.06 
L 31.913818 199.919139 
L 29.893455 199.919139 
z
" style="fill:#1a1a1a;"/>
   </g>
   <g id="patch_6">
    <path clip-path="url(#p2a0a8948f4)" d="M 31.913818 200.06 
L 33.934182 200.06 
L 33.934182 199.915327 
L 31.913818 199.915327 
z
" style="fill:#1a1a1a;"/>
   </g>
   <g id="patch_7">
    <path clip-path="url(#p2a0a8948f4)" d="M 33.934182 200.06 
L 35.954545 200.06 
L 35.954545 199.912268 
L 33.934182 199.912268 
z
" style="fill:#1a1a1a;"/>
   </g>
   <g id="patch_8">
    <path clip-path="url(#p2a0a8948f4)" d="M 35.954545 200.06 
L 37.974909 200.06 
L 37.974909 199.901202 
L 35.954545 199.901202 
z
" style="fill:#1a1a1a;"/>
   </g>
   <g id="patch_9">
    <path clip-path="url(#p2a0a8948f4)" d="M 37.974909 200.06 
L 39.995273 200.06 
L 39.995273 199.899138 
L 37.974909 199.899138 
z
" style="fill:#1a1a1a;"/>
   </g>
   <g id="patch_10">
    <path clip-path="url(#p2a0a8948f4)" d="M 39.995273 200.06 
L 42.015636 200.06 
L 42.015636 199.88339 
L 39.995273 199.88339 
z
" style="fill:#1a1a1a;"/>
   </g>
   <g id="patch_11">
    <path clip-path="url(#p2a0a8948f4)" d="M 42.015636 200.06 
L 44.036 200.06 
L 44.036 199.879645 
L 42.015636 199.879645 
z
" style="fill:#1a1a1a;"/>
   </g>
   <g id="patch_12">
    <path clip-path="url(#p2a0a8948f4)" d="M 44.036 200.06 
L 46.056364 200.06 
L 46.056364 199.868731 
L 44.036 199.868731 
z
" style="fill:#1a1a1a;"/>
   </g>
   <g id="patch_13">
    <path clip-path="url(#p2a0a8948f4)" d="M 46.056364 200.06 
L 48.076727 200.06 
L 48.076727 199.86742 
L 46.056364 199.86742 
z
" style="fill:#1a1a1a;"/>
   </g>
   <g id="patch_14">
    <path clip-path="url(#p2a0a8948f4)" d="M 48.076727 200.06 
L 50.097091 200.06 
L 50.097091 199.859015 
L 48.076727 199.859015 
z
" style="fill:#1a1a1a;"/>
   </g>
   <g id="patch_15">
    <path clip-path="url(#p2a0a8948f4)" d="M 50.097091 200.06 
L 52.117455 200.06 
L 52.117455 199.856418 
L 50.097091 199.856418 
z
" style="fill:#1a1a1a;"/>
   </g>
   <g id="patch_16">
    <path clip-path="url(#p2a0a8948f4)" d="M 52.117455 200.06 
L 54.137818 200.06 
L 54.137818 199.848774 
L 52.117455 199.848774 
z
" style="fill:#1a1a1a;"/>
   </g>
   <g id="patch_17">
    <path clip-path="url(#p2a0a8948f4)" d="M 54.137818 200.06 
L 56.158182 200.06 
L 56.158182 199.839846 
L 54.137818 199.839846 
z
" style="fill:#1a1a1a;"/>
   </g>
   <g id="patch_18">
    <path clip-path="url(#p2a0a8948f4)" d="M 56.158182 200.06 
L 58.178545 200.06 
L 58.178545 199.834114 
L 56.158182 199.834114 
z
" style="fill:#1a1a1a;"/>
   </g>
   <g id="patch_19">
    <path clip-path="url(#p2a0a8948f4)" d="M 58.178545 200.06 
L 60.198909 200.06 
L 60.198909 199.826032 
L 58.178545 199.826032 
z
" style="fill:#1a1a1a;"/>
   </g>
   <g id="patch_20">
    <path clip-path="url(#p2a0a8948f4)" d="M 60.198909 200.06 
L 62.219273 200.06 
L 62.219273 199.818225 
L 60.198909 199.818225 
z
" style="fill:#1a1a1a;"/>
   </g>
   <g id="patch_21">
    <path clip-path="url(#p2a0a8948f4)" d="M 62.219273 200.06 
L 64.239636 200.06 
L 64.239636 199.794686 
L 62.219273 199.794686 
z
" style="fill:#1a1a1a;"/>
   </g>
   <g id="patch_22">
    <path clip-path="url(#p2a0a8948f4)" d="M 64.239636 200.06 
L 66.26 200.06 
L 66.26 199.743462 
L 64.239636 199.743462 
z
" style="fill:#1a1a1a;"/>
   </g>
   <g id="patch_23">
    <path clip-path="url(#p2a0a8948f4)" d="M 66.26 200.06 
L 68.280364 200.06 
L 68.280364 199.73538 
L 66.26 199.73538 
z
" style="fill:#1a1a1a;"/>
   </g>
   <g id="patch_24">
    <path clip-path="url(#p2a0a8948f4)" d="M 68.280364 200.06 
L 70.300727 200.06 
L 70.300727 199.696273 
L 68.280364 199.696273 
z
" style="fill:#1a1a1a;"/>
   </g>
   <g id="patch_25">
    <path clip-path="url(#p2a0a8948f4)" d="M 70.300727 200.06 
L 72.321091 200.06 
L 72.321091 199.687193 
L 70.300727 199.687193 
z
" style="fill:#1a1a1a;"/>
   </g>
   <g id="patch_26">
    <path clip-path="url(#p2a0a8948f4)" d="M 72.321091 200.06 
L 74.341455 200.06 
L 74.341455 199.678252 
L 72.321091 199.678252 
z
" style="fill:#1a1a1a;"/>
   </g>
   <g id="patch_27">
    <path clip-path="url(#p2a0a8948f4)" d="M 74.341455 200.06 
L 76.361818 200.06 
L 76.361818 199.674581 
L 74.341455 199.674581 
z
" style="fill:#1a1a1a;"/>
   </g>
   <g id="patch_28">
    <path clip-path="url(#p2a0a8948f4)" d="M 76.361818 200.06 
L 78.382182 200.06 
L 78.382182 199.657077 
L 76.361818 199.657077 
z
" style="fill:#1a1a1a;"/>
   </g>
   <g id="patch_29">
    <path clip-path="url(#p2a0a8948f4)" d="M 78.382182 200.06 
L 80.402545 200.06 
L 80.402545 199.619617 
L 78.382182 199.619617 
z
" style="fill:#1a1a1a;"/>
   </g>
   <g id="patch_30">
    <path clip-path="url(#p2a0a8948f4)" d="M 80.402545 200.06 
L 82.422909 200.06 
L 82.422909 199.60693 
L 80.402545 199.60693 
z
" style="fill:#1a1a1a;"/>
   </g>
   <g id="patch_31">
    <path clip-path="url(#p2a0a8948f4)" d="M 82.422909 200.06 
L 84.443273 200.06 
L 84.443273 199.578535 
L 82.422909 199.578535 
z
" style="fill:#1a1a1a;"/>
   </g>
   <g id="patch_32">
    <path clip-path="url(#p2a0a8948f4)" d="M 84.443273 200.06 
L 86.463636 200.06 
L 86.463636 199.563386 
L 84.443273 199.563386 
z
" style="fill:#1a1a1a;"/>
   </g>
   <g id="patch_33">
    <path clip-path="url(#p2a0a8948f4)" d="M 86.463636 200.06 
L 88.484 200.06 
L 88.484 199.546342 
L 86.463636 199.546342 
z
" style="fill:#1a1a1a;"/>
   </g>
   <g id="patch_34">
    <path clip-path="url(#p2a0a8948f4)" d="M 88.484 200.06 
L 90.504364 200.06 
L 90.504364 199.519743 
L 88.484 199.519743 
z
" style="fill:#1a1a1a;"/>
   </g>
   <g id="patch_35">
    <path clip-path="url(#p2a0a8948f4)" d="M 90.504364 200.06 
L 92.524727 200.06 
L 92.524727 199.504284 
L 90.504364 199.504284 
z
" style="fill:#1a1a1a;"/>
   </g>
   <g id="patch_36">
    <path clip-path="url(#p2a0a8948f4)" d="M 92.524727 200.06 
L 94.545091 200.06 
L 94.545091 199.47858 
L 92.524727 199.47858 
z
" style="fill:#1a1a1a;"/>
   </g>
   <g id="patch_37">
    <path clip-path="url(#p2a0a8948f4)" d="M 94.545091 200.06 
L 96.565455 200.06 
L 96.565455 199.472755 
L 94.545091 199.472755 
z
" style="fill:#1a1a1a;"/>
   </g>
   <g id="patch_38">
    <path clip-path="url(#p2a0a8948f4)" d="M 96.565455 200.06 
L 98.585818 200.06 
L 98.585818 199.434562 
L 96.565455 199.434562 
z
" style="fill:#1a1a1a;"/>
   </g>
   <g id="patch_39">
    <path clip-path="url(#p2a0a8948f4)" d="M 98.585818 200.06 
L 100.606182 200.06 
L 100.606182 199.396159 
L 98.585818 199.396159 
z
" style="fill:#1a1a1a;"/>
   </g>
   <g id="patch_40">
    <path clip-path="url(#p2a0a8948f4)" d="M 100.606182 200.06 
L 102.626545 200.06 
L 102.626545 199.379135 
L 100.606182 199.379135 
z
" style="fill:#1a1a1a;"/>
   </g>
   <g id="patch_41">
    <path clip-path="url(#p2a0a8948f4)" d="M 102.626545 200.06 
L 104.646909 200.06 
L 104.646909 199.365391 
L 102.626545 199.365391 
z
" style="fill:#1a1a1a;"/>
   </g>
   <g id="patch_42">
    <path clip-path="url(#p2a0a8948f4)" d="M 104.646909 200.06 
L 106.667273 200.06 
L 106.667273 199.341044 
L 104.646909 199.341044 
z
" style="fill:#1a1a1a;"/>
   </g>
   <g id="patch_43">
    <path clip-path="url(#p2a0a8948f4)" d="M 106.667273 200.06 
L 108.687636 200.06 
L 108.687636 199.306639 
L 106.667273 199.306639 
z
" style="fill:#1a1a1a;"/>
   </g>
   <g id="patch_44">
    <path clip-path="url(#p2a0a8948f4)" d="M 108.687636 200.06 
L 110.708 200.06 
L 110.708 199.171926 
L 108.687636 199.171926 
z
" style="fill:#1a1a1a;"/>
   </g>
   <g id="patch_45">
    <path clip-path="url(#p2a0a8948f4)" d="M 110.708 200.06 
L 112.728364 200.06 
L 112.728364 199.145416 
L 110.708 199.145416 
z
" style="fill:#1a1a1a;"/>
   </g>
   <g id="patch_46">
    <path clip-path="url(#p2a0a8948f4)" d="M 112.728364 200.06 
L 114.748727 200.06 
L 114.748727 199.1188 
L 112.728364 199.1188 
z
" style="fill:#1a1a1a;"/>
   </g>
   <g id="patch_47">
    <path clip-path="url(#p2a0a8948f4)" d="M 114.748727 200.06 
L 116.769091 200.06 
L 116.769091 198.93167 
L 114.748727 198.93167 
z
" style="fill:#1a1a1a;"/>
   </g>
   <g id="patch_48">
    <path clip-path="url(#p2a0a8948f4)" d="M 116.769091 200.06 
L 118.789455 200.06 
L 118.789455 198.898861 
L 116.769091 198.898861 
z
" style="fill:#1a1a1a;"/>
   </g>
   <g id="patch_49">
    <path clip-path="url(#p2a0a8948f4)" d="M 118.789455 200.06 
L 120.809818 200.06 
L 120.809818 198.874588 
L 118.789455 198.874588 
z
" style="fill:#1a1a1a;"/>
   </g>
   <g id="patch_50">
    <path clip-path="url(#p2a0a8948f4)" d="M 120.809818 200.06 
L 122.830182 200.06 
L 122.830182 198.817977 
L 120.809818 198.817977 
z
" style="fill:#1a1a1a;"/>
   </g>
   <g id="patch_51">
    <path clip-path="url(#p2a0a8948f4)" d="M 122.830182 200.06 
L 124.850545 200.06 
L 124.850545 198.741262 
L 122.830182 198.741262 
z
" style="fill:#1a1a1a;"/>
   </g>
   <g id="patch_52">
    <path clip-path="url(#p2a0a8948f4)" d="M 124.850545 200.06 
L 126.870909 200.06 
L 126.870909 198.644428 
L 124.850545 198.644428 
z
" style="fill:#1a1a1a;"/>
   </g>
   <g id="patch_53">
    <path clip-path="url(#p2a0a8948f4)" d="M 126.870909 200.06 
L 128.891273 200.06 
L 128.891273 198.336698 
L 126.870909 198.336698 
z
" style="fill:#1a1a1a;"/>
   </g>
   <g id="patch_54">
    <path clip-path="url(#p2a0a8948f4)" d="M 128.891273 200.06 
L 130.911636 200.06 
L 130.911636 198.005726 
L 128.891273 198.005726 
z
" style="fill:#1a1a1a;"/>
   </g>
   <g id="patch_55">
    <path clip-path="url(#p2a0a8948f4)" d="M 130.911636 200.06 
L 132.932 200.06 
L 132.932 197.587569 
L 130.911636 197.587569 
z
" style="fill:#1a1a1a;"/>
   </g>
   <g id="patch_56">
    <path clip-path="url(#p2a0a8948f4)" d="M 132.932 200.06 
L 134.952364 200.06 
L 134.952364 197.394455 
L 132.932 197.394455 
z
" style="fill:#1a1a1a;"/>
   </g>
   <g id="patch_57">
    <path clip-path="url(#p2a0a8948f4)" d="M 134.952364 200.06 
L 136.972727 200.06 
L 136.972727 196.997266 
L 134.952364 196.997266 
z
" style="fill:#1a1a1a;"/>
   </g>
   <g id="patch_58">
    <path clip-path="url(#p2a0a8948f4)" d="M 136.972727 200.06 
L 138.993091 200.06 
L 138.993091 196.805285 
L 136.972727 196.805285 
z
" style="fill:#1a1a1a;"/>
   </g>
   <g id="patch_59">
    <path clip-path="url(#p2a0a8948f4)" d="M 138.993091 200.06 
L 141.013455 200.06 
L 141.013455 196.494926 
L 138.993091 196.494926 
z
" style="fill:#1a1a1a;"/>
   </g>
   <g id="patch_60">
    <path clip-path="url(#p2a0a8948f4)" d="M 141.013455 200.06 
L 143.033818 200.06 
L 143.033818 195.903139 
L 141.013455 195.903139 
z
" style="fill:#1a1a1a;"/>
   </g>
   <g id="patch_61">
    <path clip-path="url(#p2a0a8948f4)" d="M 143.033818 200.06 
L 145.054182 200.06 
L 145.054182 195.145908 
L 143.033818 195.145908 
z
" style="fill:#1a1a1a;"/>
   </g>
   <g id="patch_62">
    <path clip-path="url(#p2a0a8948f4)" d="M 145.054182 200.06 
L 147.074545 200.06 
L 147.074545 193.910161 
L 145.054182 193.910161 
z
" style="fill:#1a1a1a;"/>
   </g>
   <g id="patch_63">
    <path clip-path="url(#p2a0a8948f4)" d="M 147.074545 200.06 
L 149.094909 200.06 
L 149.094909 191.613907 
L 147.074545 191.613907 
z
" style="fill:#1a1a1a;"/>
   </g>
   <g id="patch_64">
    <path clip-path="url(#p2a0a8948f4)" d="M 149.094909 200.06 
L 151.115273 200.06 
L 151.115273 189.116079 
L 149.094909 189.116079 
z
" style="fill:#1a1a1a;"/>
   </g>
   <g id="patch_65">
    <path clip-path="url(#p2a0a8948f4)" d="M 151.115273 200.06 
L 153.135636 200.06 
L 153.135636 186.761738 
L 151.115273 186.761738 
z
" style="fill:#1a1a1a;"/>
   </g>
   <g id="patch_66">
    <path clip-path="url(#p2a0a8948f4)" d="M 153.135636 200.06 
L 155.156 200.06 
L 155.156 186.296411 
L 153.135636 186.296411 
z
" style="fill:#1a1a1a;"/>
   </g>
   <g id="patch_67">
    <path clip-path="url(#p2a0a8948f4)" d="M 155.156 200.06 
L 157.176364 200.06 
L 157.176364 184.74122 
L 155.156 184.74122 
z
" style="fill:#1a1a1a;"/>
   </g>
   <g id="patch_68">
    <path clip-path="url(#p2a0a8948f4)" d="M 157.176364 200.06 
L 159.196727 200.06 
L 159.196727 181.978497 
L 157.176364 181.978497 
z
" style="fill:#1a1a1a;"/>
   </g>
   <g id="patch_69">
    <path clip-path="url(#p2a0a8948f4)" d="M 159.196727 200.06 
L 161.217091 200.06 
L 161.217091 177.276486 
L 159.196727 177.276486 
z
" style="fill:#1a1a1a;"/>
   </g>
   <g id="patch_70">
    <path clip-path="url(#p2a0a8948f4)" d="M 161.217091 200.06 
L 163.237455 200.06 
L 163.237455 176.315385 
L 161.217091 176.315385 
z
" style="fill:#1a1a1a;"/>
   </g>
   <g id="patch_71">
    <path clip-path="url(#p2a0a8948f4)" d="M 163.237455 200.06 
L 165.257818 200.06 
L 165.257818 172.277042 
L 163.237455 172.277042 
z
" style="fill:#1a1a1a;"/>
   </g>
   <g id="patch_72">
    <path clip-path="url(#p2a0a8948f4)" d="M 165.257818 200.06 
L 167.278182 200.06 
L 167.278182 164.514167 
L 165.257818 164.514167 
z
" style="fill:#1a1a1a;"/>
   </g>
   <g id="patch_73">
    <path clip-path="url(#p2a0a8948f4)" d="M 167.278182 200.06 
L 169.298545 200.06 
L 169.298545 162.638745 
L 167.278182 162.638745 
z
" style="fill:#1a1a1a;"/>
   </g>
   <g id="patch_74">
    <path clip-path="url(#p2a0a8948f4)" d="M 169.298545 200.06 
L 171.318909 200.06 
L 171.318909 155.47645 
L 169.298545 155.47645 
z
" style="fill:#1a1a1a;"/>
   </g>
   <g id="patch_75">
    <path clip-path="url(#p2a0a8948f4)" d="M 171.318909 200.06 
L 173.339273 200.06 
L 173.339273 131.248271 
L 171.318909 131.248271 
z
" style="fill:#1a1a1a;"/>
   </g>
   <g id="patch_76">
    <path clip-path="url(#p2a0a8948f4)" d="M 173.339273 200.06 
L 175.359636 200.06 
L 175.359636 127.738117 
L 173.339273 127.738117 
z
" style="fill:#1a1a1a;"/>
   </g>
   <g id="patch_77">
    <path clip-path="url(#p2a0a8948f4)" d="M 175.359636 200.06 
L 177.38 200.06 
L 177.38 126.818565 
L 175.359636 126.818565 
z
" style="fill:#1a1a1a;"/>
   </g>
   <g id="patch_78">
    <path clip-path="url(#p2a0a8948f4)" d="M 177.38 200.06 
L 179.400364 200.06 
L 179.400364 126.817381 
L 177.38 126.817381 
z
" style="fill:#1a1a1a;"/>
   </g>
   <g id="patch_79">
    <path clip-path="url(#p2a0a8948f4)" d="M 179.400364 200.06 
L 181.420727 200.06 
L 181.420727 127.575768 
L 179.400364 127.575768 
z
" style="fill:#1a1a1a;"/>
   </g>
   <g id="patch_80">
    <path clip-path="url(#p2a0a8948f4)" d="M 181.420727 200.06 
L 183.441091 200.06 
L 183.441091 128.168086 
L 181.420727 128.168086 
z
" style="fill:#1a1a1a;"/>
   </g>
   <g id="patch_81">
    <path clip-path="url(#p2a0a8948f4)" d="M 183.441091 200.06 
L 185.461455 200.06 
L 185.461455 145.863289 
L 183.441091 145.863289 
z
" style="fill:#1a1a1a;"/>
   </g>
   <g id="patch_82">
    <path clip-path="url(#p2a0a8948f4)" d="M 185.461455 200.06 
L 187.481818 200.06 
L 187.481818 156.187742 
L 185.461455 156.187742 
z
" style="fill:#1a1a1a;"/>
   </g>
   <g id="patch_83">
    <path clip-path="url(#p2a0a8948f4)" d="M 187.481818 200.06 
L 189.502182 200.06 
L 189.502182 162.800561 
L 187.481818 162.800561 
z
" style="fill:#1a1a1a;"/>
   </g>
   <g id="patch_84">
    <path clip-path="url(#p2a0a8948f4)" d="M 189.502182 200.06 
L 191.522545 200.06 
L 191.522545 172.270952 
L 189.502182 172.270952 
z
" style="fill:#1a1a1a;"/>
   </g>
   <g id="patch_85">
    <path clip-path="url(#p2a0a8948f4)" d="M 191.522545 200.06 
L 193.542909 200.06 
L 193.542909 176.03586 
L 191.522545 176.03586 
z
" style="fill:#1a1a1a;"/>
   </g>
   <g id="patch_86">
    <path clip-path="url(#p2a0a8948f4)" d="M 193.542909 200.06 
L 195.563273 200.06 
L 195.563273 177.024639 
L 193.542909 177.024639 
z
" style="fill:#1a1a1a;"/>
   </g>
   <g id="patch_87">
    <path clip-path="url(#p2a0a8948f4)" d="M 195.563273 200.06 
L 197.583636 200.06 
L 197.583636 178.336401 
L 195.563273 178.336401 
z
" style="fill:#1a1a1a;"/>
   </g>
   <g id="patch_88">
    <path clip-path="url(#p2a0a8948f4)" d="M 197.583636 200.06 
L 199.604 200.06 
L 199.604 182.266667 
L 197.583636 182.266667 
z
" style="fill:#1a1a1a;"/>
   </g>
   <g id="patch_89">
    <path clip-path="url(#p2a0a8948f4)" d="M 199.604 200.06 
L 201.624364 200.06 
L 201.624364 185.646768 
L 199.604 185.646768 
z
" style="fill:#1a1a1a;"/>
   </g>
   <g id="patch_90">
    <path clip-path="url(#p2a0a8948f4)" d="M 201.624364 200.06 
L 203.644727 200.06 
L 203.644727 186.372596 
L 201.624364 186.372596 
z
" style="fill:#1a1a1a;"/>
   </g>
   <g id="patch_91">
    <path clip-path="url(#p2a0a8948f4)" d="M 203.644727 200.06 
L 205.665091 200.06 
L 205.665091 188.469072 
L 203.644727 188.469072 
z
" style="fill:#1a1a1a;"/>
   </g>
   <g id="patch_92">
    <path clip-path="url(#p2a0a8948f4)" d="M 205.665091 200.06 
L 207.685455 200.06 
L 207.685455 190.788497 
L 205.665091 190.788497 
z
" style="fill:#1a1a1a;"/>
   </g>
   <g id="patch_93">
    <path clip-path="url(#p2a0a8948f4)" d="M 207.685455 200.06 
L 209.705818 200.06 
L 209.705818 193.83422 
L 207.685455 193.83422 
z
" style="fill:#1a1a1a;"/>
   </g>
   <g id="patch_94">
    <path clip-path="url(#p2a0a8948f4)" d="M 209.705818 200.06 
L 211.726182 200.06 
L 211.726182 194.684328 
L 209.705818 194.684328 
z
" style="fill:#1a1a1a;"/>
   </g>
   <g id="patch_95">
    <path clip-path="url(#p2a0a8948f4)" d="M 211.726182 200.06 
L 213.746545 200.06 
L 213.746545 195.306752 
L 211.726182 195.306752 
z
" style="fill:#1a1a1a;"/>
   </g>
   <g id="patch_96">
    <path clip-path="url(#p2a0a8948f4)" d="M 213.746545 200.06 
L 215.766909 200.06 
L 215.766909 196.121894 
L 213.746545 196.121894 
z
" style="fill:#1a1a1a;"/>
   </g>
   <g id="patch_97">
    <path clip-path="url(#p2a0a8948f4)" d="M 215.766909 200.06 
L 217.787273 200.06 
L 217.787273 196.632755 
L 215.766909 196.632755 
z
" style="fill:#1a1a1a;"/>
   </g>
   <g id="patch_98">
    <path clip-path="url(#p2a0a8948f4)" d="M 217.787273 200.06 
L 219.807636 200.06 
L 219.807636 196.971921 
L 217.787273 196.971921 
z
" style="fill:#1a1a1a;"/>
   </g>
   <g id="patch_99">
    <path clip-path="url(#p2a0a8948f4)" d="M 219.807636 200.06 
L 221.828 200.06 
L 221.828 197.007459 
L 219.807636 197.007459 
z
" style="fill:#1a1a1a;"/>
   </g>
   <g id="patch_100">
    <path clip-path="url(#p2a0a8948f4)" d="M 221.828 200.06 
L 223.848364 200.06 
L 223.848364 197.456803 
L 221.828 197.456803 
z
" style="fill:#1a1a1a;"/>
   </g>
   <g id="patch_101">
    <path clip-path="url(#p2a0a8948f4)" d="M 223.848364 200.06 
L 225.868727 200.06 
L 225.868727 197.681434 
L 223.848364 197.681434 
z
" style="fill:#1a1a1a;"/>
   </g>
   <g id="patch_102">
    <path clip-path="url(#p2a0a8948f4)" d="M 225.868727 200.06 
L 227.889091 200.06 
L 227.889091 198.099911 
L 225.868727 198.099911 
z
" style="fill:#1a1a1a;"/>
   </g>
   <g id="patch_103">
    <path clip-path="url(#p2a0a8948f4)" d="M 227.889091 200.06 
L 229.909455 200.06 
L 229.909455 198.383438 
L 227.889091 198.383438 
z
" style="fill:#1a1a1a;"/>
   </g>
   <g id="patch_104">
    <path clip-path="url(#p2a0a8948f4)" d="M 229.909455 200.06 
L 231.929818 200.06 
L 231.929818 198.716763 
L 229.909455 198.716763 
z
" style="fill:#1a1a1a;"/>
   </g>
   <g id="patch_105">
    <path clip-path="url(#p2a0a8948f4)" d="M 231.929818 200.06 
L 233.950182 200.06 
L 233.950182 198.761556 
L 231.929818 198.761556 
z
" style="fill:#1a1a1a;"/>
   </g>
   <g id="patch_106">
    <path clip-path="url(#p2a0a8948f4)" d="M 233.950182 200.06 
L 235.970545 200.06 
L 235.970545 198.825329 
L 233.950182 198.825329 
z
" style="fill:#1a1a1a;"/>
   </g>
   <g id="patch_107">
    <path clip-path="url(#p2a0a8948f4)" d="M 235.970545 200.06 
L 237.990909 200.06 
L 237.990909 198.882766 
L 235.970545 198.882766 
z
" style="fill:#1a1a1a;"/>
   </g>
   <g id="patch_108">
    <path clip-path="url(#p2a0a8948f4)" d="M 237.990909 200.06 
L 240.011273 200.06 
L 240.011273 198.917925 
L 237.990909 198.917925 
z
" style="fill:#1a1a1a;"/>
   </g>
   <g id="patch_109">
    <path clip-path="url(#p2a0a8948f4)" d="M 240.011273 200.06 
L 242.031636 200.06 
L 242.031636 199.001465 
L 240.011273 199.001465 
z
" style="fill:#1a1a1a;"/>
   </g>
   <g id="patch_110">
    <path clip-path="url(#p2a0a8948f4)" d="M 242.031636 200.06 
L 244.052 200.06 
L 244.052 199.144276 
L 242.031636 199.144276 
z
" style="fill:#1a1a1a;"/>
   </g>
   <g id="patch_111">
    <path clip-path="url(#p2a0a8948f4)" d="M 244.052 200.06 
L 246.072364 200.06 
L 246.072364 199.169965 
L 244.052 199.169965 
z
" style="fill:#1a1a1a;"/>
   </g>
   <g id="patch_112">
    <path clip-path="url(#p2a0a8948f4)" d="M 246.072364 200.06 
L 248.092727 200.06 
L 248.092727 199.20245 
L 246.072364 199.20245 
z
" style="fill:#1a1a1a;"/>
   </g>
   <g id="patch_113">
    <path clip-path="url(#p2a0a8948f4)" d="M 248.092727 200.06 
L 250.113091 200.06 
L 250.113091 199.317725 
L 248.092727 199.317725 
z
" style="fill:#1a1a1a;"/>
   </g>
   <g id="patch_114">
    <path clip-path="url(#p2a0a8948f4)" d="M 250.113091 200.06 
L 252.133455 200.06 
L 252.133455 199.365205 
L 250.113091 199.365205 
z
" style="fill:#1a1a1a;"/>
   </g>
   <g id="patch_115">
    <path clip-path="url(#p2a0a8948f4)" d="M 252.133455 200.06 
L 254.153818 200.06 
L 254.153818 199.378661 
L 252.133455 199.378661 
z
" style="fill:#1a1a1a;"/>
   </g>
   <g id="patch_116">
    <path clip-path="url(#p2a0a8948f4)" d="M 254.153818 200.06 
L 256.174182 200.06 
L 256.174182 199.395903 
L 254.153818 199.395903 
z
" style="fill:#1a1a1a;"/>
   </g>
   <g id="patch_117">
    <path clip-path="url(#p2a0a8948f4)" d="M 256.174182 200.06 
L 258.194545 200.06 
L 258.194545 199.410242 
L 256.174182 199.410242 
z
" style="fill:#1a1a1a;"/>
   </g>
   <g id="patch_118">
    <path clip-path="url(#p2a0a8948f4)" d="M 258.194545 200.06 
L 260.214909 200.06 
L 260.214909 199.459132 
L 258.194545 199.459132 
z
" style="fill:#1a1a1a;"/>
   </g>
   <g id="patch_119">
    <path clip-path="url(#p2a0a8948f4)" d="M 260.214909 200.06 
L 262.235273 200.06 
L 262.235273 199.474475 
L 260.214909 199.474475 
z
" style="fill:#1a1a1a;"/>
   </g>
   <g id="patch_120">
    <path clip-path="url(#p2a0a8948f4)" d="M 262.235273 200.06 
L 264.255636 200.06 
L 264.255636 199.50245 
L 262.235273 199.50245 
z
" style="fill:#1a1a1a;"/>
   </g>
   <g id="patch_121">
    <path clip-path="url(#p2a0a8948f4)" d="M 264.255636 200.06 
L 266.276 200.06 
L 266.276 199.516503 
L 264.255636 199.516503 
z
" style="fill:#1a1a1a;"/>
   </g>
   <g id="patch_122">
    <path clip-path="url(#p2a0a8948f4)" d="M 266.276 200.06 
L 268.296364 200.06 
L 268.296364 199.535506 
L 266.276 199.535506 
z
" style="fill:#1a1a1a;"/>
   </g>
   <g id="patch_123">
    <path clip-path="url(#p2a0a8948f4)" d="M 268.296364 200.06 
L 270.316727 200.06 
L 270.316727 199.56133 
L 268.296364 199.56133 
z
" style="fill:#1a1a1a;"/>
   </g>
   <g id="patch_124">
    <path clip-path="url(#p2a0a8948f4)" d="M 270.316727 200.06 
L 272.337091 200.06 
L 272.337091 199.568295 
L 270.316727 199.568295 
z
" style="fill:#1a1a1a;"/>
   </g>
   <g id="patch_125">
    <path clip-path="url(#p2a0a8948f4)" d="M 272.337091 200.06 
L 274.357455 200.06 
L 274.357455 199.602907 
L 272.337091 199.602907 
z
" style="fill:#1a1a1a;"/>
   </g>
   <g id="patch_126">
    <path clip-path="url(#p2a0a8948f4)" d="M 274.357455 200.06 
L 276.377818 200.06 
L 276.377818 199.607219 
L 274.357455 199.607219 
z
" style="fill:#1a1a1a;"/>
   </g>
   <g id="patch_127">
    <path clip-path="url(#p2a0a8948f4)" d="M 276.377818 200.06 
L 278.398182 200.06 
L 278.398182 199.653845 
L 276.377818 199.653845 
z
" style="fill:#1a1a1a;"/>
   </g>
   <g id="patch_128">
    <path clip-path="url(#p2a0a8948f4)" d="M 278.398182 200.06 
L 280.418545 200.06 
L 280.418545 199.657176 
L 278.398182 199.657176 
z
" style="fill:#1a1a1a;"/>
   </g>
   <g id="patch_129">
    <path clip-path="url(#p2a0a8948f4)" d="M 280.418545 200.06 
L 282.438909 200.06 
L 282.438909 199.675079 
L 280.418545 199.675079 
z
" style="fill:#1a1a1a;"/>
   </g>
   <g id="patch_130">
    <path clip-path="url(#p2a0a8948f4)" d="M 282.438909 200.06 
L 284.459273 200.06 
L 284.459273 199.680849 
L 282.438909 199.680849 
z
" style="fill:#1a1a1a;"/>
   </g>
   <g id="patch_131">
    <path clip-path="url(#p2a0a8948f4)" d="M 284.459273 200.06 
L 286.479636 200.06 
L 286.479636 199.696173 
L 284.459273 199.696173 
z
" style="fill:#1a1a1a;"/>
   </g>
   <g id="patch_132">
    <path clip-path="url(#p2a0a8948f4)" d="M 286.479636 200.06 
L 288.5 200.06 
L 288.5 199.729573 
L 286.479636 199.729573 
z
" style="fill:#1a1a1a;"/>
   </g>
   <g id="patch_133">
    <path clip-path="url(#p2a0a8948f4)" d="M 288.5 200.06 
L 290.520364 200.06 
L 290.520364 199.740893 
L 288.5 199.740893 
z
" style="fill:#1a1a1a;"/>
   </g>
   <g id="patch_134">
    <path clip-path="url(#p2a0a8948f4)" d="M 290.520364 200.06 
L 292.540727 200.06 
L 292.540727 199.756977 
L 290.520364 199.756977 
z
" style="fill:#1a1a1a;"/>
   </g>
   <g id="patch_135">
    <path clip-path="url(#p2a0a8948f4)" d="M 292.540727 200.06 
L 294.561091 200.06 
L 294.561091 199.799328 
L 292.540727 199.799328 
z
" style="fill:#1a1a1a;"/>
   </g>
   <g id="patch_136">
    <path clip-path="url(#p2a0a8948f4)" d="M 294.561091 200.06 
L 296.581455 200.06 
L 296.581455 199.823359 
L 294.561091 199.823359 
z
" style="fill:#1a1a1a;"/>
   </g>
   <g id="patch_137">
    <path clip-path="url(#p2a0a8948f4)" d="M 296.581455 200.06 
L 298.601818 200.06 
L 298.601818 199.833012 
L 296.581455 199.833012 
z
" style="fill:#1a1a1a;"/>
   </g>
   <g id="patch_138">
    <path clip-path="url(#p2a0a8948f4)" d="M 298.601818 200.06 
L 300.622182 200.06 
L 300.622182 199.838736 
L 298.601818 199.838736 
z
" style="fill:#1a1a1a;"/>
   </g>
   <g id="patch_139">
    <path clip-path="url(#p2a0a8948f4)" d="M 300.622182 200.06 
L 302.642545 200.06 
L 302.642545 199.846784 
L 300.622182 199.846784 
z
" style="fill:#1a1a1a;"/>
   </g>
   <g id="patch_140">
    <path clip-path="url(#p2a0a8948f4)" d="M 302.642545 200.06 
L 304.662909 200.06 
L 304.662909 199.852539 
L 302.642545 199.852539 
z
" style="fill:#1a1a1a;"/>
   </g>
   <g id="patch_141">
    <path clip-path="url(#p2a0a8948f4)" d="M 304.662909 200.06 
L 306.683273 200.06 
L 306.683273 199.858526 
L 304.662909 199.858526 
z
" style="fill:#1a1a1a;"/>
   </g>
   <g id="patch_142">
    <path clip-path="url(#p2a0a8948f4)" d="M 306.683273 200.06 
L 308.703636 200.06 
L 308.703636 199.864382 
L 306.683273 199.864382 
z
" style="fill:#1a1a1a;"/>
   </g>
   <g id="patch_143">
    <path clip-path="url(#p2a0a8948f4)" d="M 308.703636 200.06 
L 310.724 200.06 
L 310.724 199.867867 
L 308.703636 199.867867 
z
" style="fill:#1a1a1a;"/>
   </g>
   <g id="patch_144">
    <path clip-path="url(#p2a0a8948f4)" d="M 310.724 200.06 
L 312.744364 200.06 
L 312.744364 199.872466 
L 310.724 199.872466 
z
" style="fill:#1a1a1a;"/>
   </g>
   <g id="patch_145">
    <path clip-path="url(#p2a0a8948f4)" d="M 312.744364 200.06 
L 314.764727 200.06 
L 314.764727 199.880733 
L 312.744364 199.880733 
z
" style="fill:#1a1a1a;"/>
   </g>
   <g id="patch_146">
    <path clip-path="url(#p2a0a8948f4)" d="M 314.764727 200.06 
L 316.785091 200.06 
L 316.785091 199.896362 
L 314.764727 199.896362 
z
" style="fill:#1a1a1a;"/>
   </g>
   <g id="patch_147">
    <path clip-path="url(#p2a0a8948f4)" d="M 316.785091 200.06 
L 318.805455 200.06 
L 318.805455 199.900148 
L 316.785091 199.900148 
z
" style="fill:#1a1a1a;"/>
   </g>
   <g id="patch_148">
    <path clip-path="url(#p2a0a8948f4)" d="M 318.805455 200.06 
L 320.825818 200.06 
L 320.825818 199.906318 
L 318.805455 199.906318 
z
" style="fill:#1a1a1a;"/>
   </g>
   <g id="patch_149">
    <path clip-path="url(#p2a0a8948f4)" d="M 320.825818 200.06 
L 322.846182 200.06 
L 322.846182 199.914952 
L 320.825818 199.914952 
z
" style="fill:#1a1a1a;"/>
   </g>
   <g id="patch_150">
    <path clip-path="url(#p2a0a8948f4)" d="M 322.846182 200.06 
L 324.866545 200.06 
L 324.866545 199.91634 
L 322.846182 199.91634 
z
" style="fill:#1a1a1a;"/>
   </g>
   <g id="patch_151">
    <path clip-path="url(#p2a0a8948f4)" d="M 324.866545 200.06 
L 326.886909 200.06 
L 326.886909 199.921631 
L 324.866545 199.921631 
z
" style="fill:#1a1a1a;"/>
   </g>
   <g id="patch_152">
    <path clip-path="url(#p2a0a8948f4)" d="M 326.886909 200.06 
L 328.907273 200.06 
L 328.907273 199.928931 
L 326.886909 199.928931 
z
" style="fill:#1a1a1a;"/>
   </g>
   <g id="matplotlib.axis_1"/>
   <g id="matplotlib.axis_2"/>
   <g id="patch_153">
    <path d="M 10.7 200.06 
L 10.7 10.7 
" style="fill:none;stroke:#000000;stroke-linecap:square;stroke-linejoin:miter;stroke-width:0.8;"/>
   </g>
   <g id="patch_154">
    <path d="M 344.06 200.06 
L 344.06 10.7 
" style="fill:none;stroke:#000000;stroke-linecap:square;stroke-linejoin:miter;stroke-width:0.8;"/>
   </g>
   <g id="patch_155">
    <path d="M 10.7 200.06 
L 344.06 200.06 
" style="fill:none;stroke:#000000;stroke-linecap:square;stroke-linejoin:miter;stroke-width:0.8;"/>
   </g>
   <g id="patch_156">
    <path d="M 10.7 10.7 
L 344.06 10.7 
" style="fill:none;stroke:#000000;stroke-linecap:square;stroke-linejoin:miter;stroke-width:0.8;"/>
   </g>
  </g>
 </g>
 <defs>
  <clipPath id="p2a0a8948f4">
   <rect height="189.36" width="333.36" x="10.7" y="10.7"/>
  </clipPath>
 </defs>
</svg>
