<?xml version="1.0" encoding="utf-8" standalone="no"?>
<!DOCTYPE svg PUBLIC "-//W3C//DTD SVG 1.1//EN"
  "http://www.w3.org/Graphics/SVG/1.1/DTD/svg11.dtd">
<!-- Created with matplotlib (http://matplotlib.org/) -->
<svg height="136pt" version="1.1" viewBox="0 0 101 136" width="101pt" xmlns="http://www.w3.org/2000/svg" xmlns:xlink="http://www.w3.org/1999/xlink">
 <defs>
  <style type="text/css">
*{stroke-linecap:butt;stroke-linejoin:round;}
  </style>
 </defs>
 <g id="figure_1">
  <g id="patch_1">
   <path d="M 0 136.398125 
L 101.7875 136.398125 
L 101.7875 0 
L 0 0 
z
" style="fill:#ffffff;"/>
  </g>
  <g id="axes_1">
   <g id="patch_2">
    <path d="M 33.2875 123.319219 
L 91.0875 123.319219 
L 91.0875 10.999219 
L 33.2875 10.999219 
z
" style="fill:#ffffff;"/>
   </g>
   <g id="PolyCollection_1">
    <path clip-path="url(#p92e5ed1797)" d="M 63.619515 122.881332 
L 60.755485 122.881332 
L 60.233693 121.755846 
L 59.703965 120.63036 
L 59.223349 119.504874 
L 58.836625 118.379388 
L 58.565223 117.253902 
L 58.405303 116.128416 
L 58.334161 115.00293 
L 58.320589 113.877444 
L 58.333854 112.751957 
L 58.347168 111.626471 
L 58.333896 110.500985 
L 58.257354 109.375499 
L 58.057743 108.250013 
L 57.642866 107.124527 
L 56.891818 105.999041 
L 55.679284 104.873555 
L 53.919044 103.748068 
L 51.611066 102.622582 
L 48.867413 101.497096 
L 45.899089 100.37161 
L 42.967815 99.246124 
L 40.327858 98.120638 
L 38.18566 96.995152 
L 36.687108 95.869666 
L 35.920286 94.744179 
L 35.914773 93.618693 
L 36.631064 92.493207 
L 37.951615 91.367721 
L 39.690808 90.242235 
L 41.629752 89.116749 
L 43.563789 87.991263 
L 45.341438 86.865777 
L 46.879737 85.740291 
L 48.156015 84.614804 
L 49.187934 83.489318 
L 50.014694 82.363832 
L 50.685029 81.238346 
L 51.249866 80.11286 
L 51.755442 78.987374 
L 52.235988 77.861888 
L 52.709039 76.736402 
L 53.176746 75.610915 
L 53.633038 74.485429 
L 54.072406 73.359943 
L 54.495 72.234457 
L 54.905417 71.108971 
L 55.30701 69.983485 
L 55.696509 68.857999 
L 56.063081 67.732513 
L 56.392551 66.607027 
L 56.673876 65.48154 
L 56.903635 64.356054 
L 57.086084 63.230568 
L 57.229672 62.105082 
L 57.34321 60.979596 
L 57.43445 59.85411 
L 57.511057 58.728624 
L 57.58163 57.603138 
L 57.654624 56.477651 
L 57.735518 55.352165 
L 57.824656 54.226679 
L 57.917699 53.101193 
L 58.008276 51.975707 
L 58.090674 50.850221 
L 58.160938 49.724735 
L 58.216726 48.599249 
L 58.257372 47.473763 
L 58.284715 46.348276 
L 58.303582 45.22279 
L 58.320467 44.097304 
L 58.340445 42.971818 
L 58.364315 41.846332 
L 58.38829 40.720846 
L 58.40685 39.59536 
L 58.416865 38.469874 
L 58.420004 37.344387 
L 58.421787 36.218901 
L 58.428278 35.093415 
L 58.443 33.967929 
L 58.465942 32.842443 
L 58.494617 31.716957 
L 58.525868 30.591471 
L 58.557368 29.465985 
L 58.588427 28.340498 
L 58.620087 27.215012 
L 58.654463 26.089526 
L 58.693702 24.96404 
L 58.739539 23.838554 
L 58.794433 22.713068 
L 58.8641 21.587582 
L 58.959765 20.462096 
L 59.097814 19.33661 
L 59.295567 18.211123 
L 59.564197 17.085637 
L 59.901891 15.960151 
L 60.290779 14.834665 
L 60.699625 13.709179 
L 61.091589 12.583693 
L 61.434043 11.458207 
L 62.940957 11.458207 
L 62.940957 11.458207 
L 63.283411 12.583693 
L 63.675375 13.709179 
L 64.084221 14.834665 
L 64.473109 15.960151 
L 64.810803 17.085637 
L 65.079433 18.211123 
L 65.277186 19.33661 
L 65.415235 20.462096 
L 65.5109 21.587582 
L 65.580567 22.713068 
L 65.635461 23.838554 
L 65.681298 24.96404 
L 65.720537 26.089526 
L 65.754913 27.215012 
L 65.786573 28.340498 
L 65.817632 29.465985 
L 65.849132 30.591471 
L 65.880383 31.716957 
L 65.909058 32.842443 
L 65.932 33.967929 
L 65.946722 35.093415 
L 65.953213 36.218901 
L 65.954996 37.344387 
L 65.958135 38.469874 
L 65.96815 39.59536 
L 65.98671 40.720846 
L 66.010685 41.846332 
L 66.034555 42.971818 
L 66.054533 44.097304 
L 66.071418 45.22279 
L 66.090285 46.348276 
L 66.117628 47.473763 
L 66.158274 48.599249 
L 66.214062 49.724735 
L 66.284326 50.850221 
L 66.366724 51.975707 
L 66.457301 53.101193 
L 66.550344 54.226679 
L 66.639482 55.352165 
L 66.720376 56.477651 
L 66.79337 57.603138 
L 66.863943 58.728624 
L 66.94055 59.85411 
L 67.03179 60.979596 
L 67.145328 62.105082 
L 67.288916 63.230568 
L 67.471365 64.356054 
L 67.701124 65.48154 
L 67.982449 66.607027 
L 68.311919 67.732513 
L 68.678491 68.857999 
L 69.06799 69.983485 
L 69.469583 71.108971 
L 69.88 72.234457 
L 70.302594 73.359943 
L 70.741962 74.485429 
L 71.198254 75.610915 
L 71.665961 76.736402 
L 72.139012 77.861888 
L 72.619558 78.987374 
L 73.125134 80.11286 
L 73.689971 81.238346 
L 74.360306 82.363832 
L 75.187066 83.489318 
L 76.218985 84.614804 
L 77.495263 85.740291 
L 79.033562 86.865777 
L 80.811211 87.991263 
L 82.745248 89.116749 
L 84.684192 90.242235 
L 86.423385 91.367721 
L 87.743936 92.493207 
L 88.460227 93.618693 
L 88.454714 94.744179 
L 87.687892 95.869666 
L 86.18934 96.995152 
L 84.047142 98.120638 
L 81.407185 99.246124 
L 78.475911 100.37161 
L 75.507587 101.497096 
L 72.763934 102.622582 
L 70.455956 103.748068 
L 68.695716 104.873555 
L 67.483182 105.999041 
L 66.732134 107.124527 
L 66.317257 108.250013 
L 66.117646 109.375499 
L 66.041104 110.500985 
L 66.027832 111.626471 
L 66.041146 112.751957 
L 66.054411 113.877444 
L 66.040839 115.00293 
L 65.969697 116.128416 
L 65.809777 117.253902 
L 65.538375 118.379388 
L 65.151651 119.504874 
L 64.671035 120.63036 
L 64.141307 121.755846 
L 63.619515 122.881332 
z
" style="fill:#1f77b4;fill-opacity:0.3;"/>
   </g>
   <g id="matplotlib.axis_1"/>
   <g id="matplotlib.axis_2">
    <g id="ytick_1">
     <g id="line2d_1">
      <defs>
       <path d="M 0 0 
L -3.5 0 
" id="md14bd7cece" style="stroke:#000000;stroke-width:0.8;"/>
      </defs>
      <g>
       <use style="stroke:#000000;stroke-width:0.8;" x="33.2875" xlink:href="#md14bd7cece" y="123.319219"/>
      </g>
     </g>
     <g id="text_1">
      <!-- 0 -->
      <defs>
       <path d="M 31.78125 66.40625 
Q 24.171875 66.40625 20.328125 58.90625 
Q 16.5 51.421875 16.5 36.375 
Q 16.5 21.390625 20.328125 13.890625 
Q 24.171875 6.390625 31.78125 6.390625 
Q 39.453125 6.390625 43.28125 13.890625 
Q 47.125 21.390625 47.125 36.375 
Q 47.125 51.421875 43.28125 58.90625 
Q 39.453125 66.40625 31.78125 66.40625 
z
M 31.78125 74.21875 
Q 44.046875 74.21875 50.515625 64.515625 
Q 56.984375 54.828125 56.984375 36.375 
Q 56.984375 17.96875 50.515625 8.265625 
Q 44.046875 -1.421875 31.78125 -1.421875 
Q 19.53125 -1.421875 13.0625 8.265625 
Q 6.59375 17.96875 6.59375 36.375 
Q 6.59375 54.828125 13.0625 64.515625 
Q 19.53125 74.21875 31.78125 74.21875 
z
" id="DejaVuSans-30"/>
      </defs>
      <g transform="translate(19.925 127.118437)scale(0.1 -0.1)">
       <use xlink:href="#DejaVuSans-30"/>
      </g>
     </g>
    </g>
    <g id="ytick_2">
     <g id="line2d_2">
      <g>
       <use style="stroke:#000000;stroke-width:0.8;" x="33.2875" xlink:href="#md14bd7cece" y="67.159219"/>
      </g>
     </g>
     <g id="text_2">
      <!-- 150 -->
      <defs>
       <path d="M 12.40625 8.296875 
L 28.515625 8.296875 
L 28.515625 63.921875 
L 10.984375 60.40625 
L 10.984375 69.390625 
L 28.421875 72.90625 
L 38.28125 72.90625 
L 38.28125 8.296875 
L 54.390625 8.296875 
L 54.390625 0 
L 12.40625 0 
z
" id="DejaVuSans-31"/>
       <path d="M 10.796875 72.90625 
L 49.515625 72.90625 
L 49.515625 64.59375 
L 19.828125 64.59375 
L 19.828125 46.734375 
Q 21.96875 47.46875 24.109375 47.828125 
Q 26.265625 48.1875 28.421875 48.1875 
Q 40.625 48.1875 47.75 41.5 
Q 54.890625 34.8125 54.890625 23.390625 
Q 54.890625 11.625 47.5625 5.09375 
Q 40.234375 -1.421875 26.90625 -1.421875 
Q 22.3125 -1.421875 17.546875 -0.640625 
Q 12.796875 0.140625 7.71875 1.703125 
L 7.71875 11.625 
Q 12.109375 9.234375 16.796875 8.0625 
Q 21.484375 6.890625 26.703125 6.890625 
Q 35.15625 6.890625 40.078125 11.328125 
Q 45.015625 15.765625 45.015625 23.390625 
Q 45.015625 31 40.078125 35.4375 
Q 35.15625 39.890625 26.703125 39.890625 
Q 22.75 39.890625 18.8125 39.015625 
Q 14.890625 38.140625 10.796875 36.28125 
z
" id="DejaVuSans-35"/>
      </defs>
      <g transform="translate(7.2 70.958437)scale(0.1 -0.1)">
       <use xlink:href="#DejaVuSans-31"/>
       <use x="63.623047" xlink:href="#DejaVuSans-35"/>
       <use x="127.246094" xlink:href="#DejaVuSans-30"/>
      </g>
     </g>
    </g>
    <g id="ytick_3">
     <g id="line2d_3">
      <g>
       <use style="stroke:#000000;stroke-width:0.8;" x="33.2875" xlink:href="#md14bd7cece" y="10.999219"/>
      </g>
     </g>
     <g id="text_3">
      <!-- 300 -->
      <defs>
       <path d="M 40.578125 39.3125 
Q 47.65625 37.796875 51.625 33 
Q 55.609375 28.21875 55.609375 21.1875 
Q 55.609375 10.40625 48.1875 4.484375 
Q 40.765625 -1.421875 27.09375 -1.421875 
Q 22.515625 -1.421875 17.65625 -0.515625 
Q 12.796875 0.390625 7.625 2.203125 
L 7.625 11.71875 
Q 11.71875 9.328125 16.59375 8.109375 
Q 21.484375 6.890625 26.8125 6.890625 
Q 36.078125 6.890625 40.9375 10.546875 
Q 45.796875 14.203125 45.796875 21.1875 
Q 45.796875 27.640625 41.28125 31.265625 
Q 36.765625 34.90625 28.71875 34.90625 
L 20.21875 34.90625 
L 20.21875 43.015625 
L 29.109375 43.015625 
Q 36.375 43.015625 40.234375 45.921875 
Q 44.09375 48.828125 44.09375 54.296875 
Q 44.09375 59.90625 40.109375 62.90625 
Q 36.140625 65.921875 28.71875 65.921875 
Q 24.65625 65.921875 20.015625 65.03125 
Q 15.375 64.15625 9.8125 62.3125 
L 9.8125 71.09375 
Q 15.4375 72.65625 20.34375 73.4375 
Q 25.25 74.21875 29.59375 74.21875 
Q 40.828125 74.21875 47.359375 69.109375 
Q 53.90625 64.015625 53.90625 55.328125 
Q 53.90625 49.265625 50.4375 45.09375 
Q 46.96875 40.921875 40.578125 39.3125 
z
" id="DejaVuSans-33"/>
      </defs>
      <g transform="translate(7.2 14.798437)scale(0.1 -0.1)">
       <use xlink:href="#DejaVuSans-33"/>
       <use x="63.623047" xlink:href="#DejaVuSans-30"/>
       <use x="127.246094" xlink:href="#DejaVuSans-30"/>
      </g>
     </g>
    </g>
   </g>
   <g id="patch_3">
    <path d="M 33.2875 123.319219 
L 33.2875 10.999219 
" style="fill:none;stroke:#000000;stroke-linecap:square;stroke-linejoin:miter;stroke-width:0.8;"/>
   </g>
   <g id="patch_4">
    <path d="M 33.2875 123.319219 
L 91.0875 123.319219 
" style="fill:none;stroke:#000000;stroke-linecap:square;stroke-linejoin:miter;stroke-width:0.8;"/>
   </g>
  </g>
 </g>
 <defs>
  <clipPath id="p92e5ed1797">
   <rect height="112.32" width="57.8" x="33.2875" y="10.999219"/>
  </clipPath>
 </defs>
</svg>
