<?xml version="1.0" encoding="utf-8" standalone="no"?>
<!DOCTYPE svg PUBLIC "-//W3C//DTD SVG 1.1//EN"
  "http://www.w3.org/Graphics/SVG/1.1/DTD/svg11.dtd">
<!-- Created with matplotlib (http://matplotlib.org/) -->
<svg height="136pt" version="1.1" viewBox="0 0 137 136" width="137pt" xmlns="http://www.w3.org/2000/svg" xmlns:xlink="http://www.w3.org/1999/xlink">
 <defs>
  <style type="text/css">
*{stroke-linecap:butt;stroke-linejoin:round;}
  </style>
 </defs>
 <g id="figure_1">
  <g id="patch_1">
   <path d="M 0 136.398125 
L 137.7875 136.398125 
L 137.7875 0 
L 0 0 
z
" style="fill:#ffffff;"/>
  </g>
  <g id="axes_1">
   <g id="patch_2">
    <path d="M 33.2875 123.319219 
L 127.0875 123.319219 
L 127.0875 10.999219 
L 33.2875 10.999219 
z
" style="fill:#ffffff;"/>
   </g>
   <g id="PolyCollection_1">
    <path clip-path="url(#pdc951fc42f)" d="M 80.400125 123.159626 
L 79.924239 123.159626 
L 79.836511 123.047783 
L 79.746964 122.935941 
L 79.662331 122.824098 
L 79.587498 122.712256 
L 79.525004 122.600413 
L 79.475586 122.488571 
L 79.439148 122.376728 
L 79.415353 122.264886 
L 79.403502 122.153043 
L 79.401997 122.041201 
L 79.408016 121.929358 
L 79.417828 121.817516 
L 79.427645 121.705673 
L 79.434555 121.593831 
L 79.437147 121.481988 
L 79.435685 121.370146 
L 79.431886 121.258303 
L 79.428325 121.146461 
L 79.427571 121.034618 
L 79.431338 120.922776 
L 79.439993 120.810933 
L 79.452668 120.699091 
L 79.467831 120.587248 
L 79.483932 120.475406 
L 79.499766 120.363563 
L 79.514447 120.251721 
L 79.527219 120.139878 
L 79.537425 120.028036 
L 79.54472 119.916193 
L 79.549343 119.804351 
L 79.552212 119.692508 
L 79.554791 119.580666 
L 79.558811 119.468823 
L 79.565877 119.356981 
L 79.576964 119.245138 
L 79.591957 119.133296 
L 79.609599 119.021453 
L 79.628091 118.909611 
L 79.646055 118.797768 
L 79.663165 118.685926 
L 79.679933 118.574083 
L 79.69681 118.462241 
L 79.71335 118.350398 
L 79.728093 118.238556 
L 79.73922 118.126714 
L 79.745441 118.014871 
L 79.746518 117.903029 
L 79.743189 117.791186 
L 79.736752 117.679344 
L 79.728633 117.567501 
L 79.720198 117.455659 
L 79.712712 117.343816 
L 79.707288 117.231974 
L 79.704726 117.120131 
L 79.705365 117.008289 
L 79.709081 116.896446 
L 79.715425 116.784604 
L 79.723749 116.672761 
L 79.733216 116.560919 
L 79.742808 116.449076 
L 79.751456 116.337234 
L 79.758304 116.225391 
L 79.762934 116.113549 
L 79.765454 116.001706 
L 79.766445 115.889864 
L 79.766836 115.778021 
L 79.767695 115.666179 
L 79.769963 115.554336 
L 79.774218 115.442494 
L 79.780573 115.330651 
L 79.788673 115.218809 
L 79.797675 115.106966 
L 79.806216 114.995124 
L 79.812533 114.883281 
L 79.814964 114.771439 
L 79.812717 114.659596 
L 79.806482 114.547754 
L 79.798435 114.435911 
L 79.791481 114.324069 
L 79.788063 114.212226 
L 79.789152 114.100384 
L 79.793941 113.988541 
L 79.800386 113.876699 
L 79.806217 113.764856 
L 79.809724 113.653014 
L 79.809511 113.541171 
L 79.801923 113.429329 
L 79.773295 113.317486 
L 79.681348 113.205644 
L 79.418642 113.093801 
L 78.7574 112.981959 
L 77.298362 112.870116 
L 74.484832 112.758274 
L 69.766116 112.646431 
L 62.943848 112.534589 
L 54.581424 112.422746 
L 46.186138 112.310904 
L 39.877546 112.199061 
L 37.551136 112.087219 
L 80.400125 112.087219 
L 80.400125 112.087219 
L 80.400125 112.199061 
L 80.400125 112.310904 
L 80.400125 112.422746 
L 80.400125 112.534589 
L 80.400125 112.646431 
L 80.400125 112.758274 
L 80.400125 112.870116 
L 80.400125 112.981959 
L 80.400125 113.093801 
L 80.400125 113.205644 
L 80.400125 113.317486 
L 80.400125 113.429329 
L 80.400125 113.541171 
L 80.400125 113.653014 
L 80.400125 113.764856 
L 80.400125 113.876699 
L 80.400125 113.988541 
L 80.400125 114.100384 
L 80.400125 114.212226 
L 80.400125 114.324069 
L 80.400125 114.435911 
L 80.400125 114.547754 
L 80.400125 114.659596 
L 80.400125 114.771439 
L 80.400125 114.883281 
L 80.400125 114.995124 
L 80.400125 115.106966 
L 80.400125 115.218809 
L 80.400125 115.330651 
L 80.400125 115.442494 
L 80.400125 115.554336 
L 80.400125 115.666179 
L 80.400125 115.778021 
L 80.400125 115.889864 
L 80.400125 116.001706 
L 80.400125 116.113549 
L 80.400125 116.225391 
L 80.400125 116.337234 
L 80.400125 116.449076 
L 80.400125 116.560919 
L 80.400125 116.672761 
L 80.400125 116.784604 
L 80.400125 116.896446 
L 80.400125 117.008289 
L 80.400125 117.120131 
L 80.400125 117.231974 
L 80.400125 117.343816 
L 80.400125 117.455659 
L 80.400125 117.567501 
L 80.400125 117.679344 
L 80.400125 117.791186 
L 80.400125 117.903029 
L 80.400125 118.014871 
L 80.400125 118.126714 
L 80.400125 118.238556 
L 80.400125 118.350398 
L 80.400125 118.462241 
L 80.400125 118.574083 
L 80.400125 118.685926 
L 80.400125 118.797768 
L 80.400125 118.909611 
L 80.400125 119.021453 
L 80.400125 119.133296 
L 80.400125 119.245138 
L 80.400125 119.356981 
L 80.400125 119.468823 
L 80.400125 119.580666 
L 80.400125 119.692508 
L 80.400125 119.804351 
L 80.400125 119.916193 
L 80.400125 120.028036 
L 80.400125 120.139878 
L 80.400125 120.251721 
L 80.400125 120.363563 
L 80.400125 120.475406 
L 80.400125 120.587248 
L 80.400125 120.699091 
L 80.400125 120.810933 
L 80.400125 120.922776 
L 80.400125 121.034618 
L 80.400125 121.146461 
L 80.400125 121.258303 
L 80.400125 121.370146 
L 80.400125 121.481988 
L 80.400125 121.593831 
L 80.400125 121.705673 
L 80.400125 121.817516 
L 80.400125 121.929358 
L 80.400125 122.041201 
L 80.400125 122.153043 
L 80.400125 122.264886 
L 80.400125 122.376728 
L 80.400125 122.488571 
L 80.400125 122.600413 
L 80.400125 122.712256 
L 80.400125 122.824098 
L 80.400125 122.935941 
L 80.400125 123.047783 
L 80.400125 123.159626 
z
" style="fill:#1f77b4;fill-opacity:0.3;"/>
   </g>
   <g id="PolyCollection_2">
    <path clip-path="url(#pdc951fc42f)" d="M 81.652021 122.773913 
L 80.203047 122.773913 
L 80.203047 121.657313 
L 80.203047 120.540713 
L 80.203047 119.424114 
L 80.203047 118.307514 
L 80.203047 117.190914 
L 80.203047 116.074314 
L 80.203047 114.957714 
L 80.203047 113.841114 
L 80.203047 112.724514 
L 80.203047 111.607915 
L 80.203047 110.491315 
L 80.203047 109.374715 
L 80.203047 108.258115 
L 80.203047 107.141515 
L 80.203047 106.024915 
L 80.203047 104.908315 
L 80.203047 103.791716 
L 80.203047 102.675116 
L 80.203047 101.558516 
L 80.203047 100.441916 
L 80.203047 99.325316 
L 80.203047 98.208716 
L 80.203047 97.092116 
L 80.203047 95.975517 
L 80.203047 94.858917 
L 80.203047 93.742317 
L 80.203047 92.625717 
L 80.203047 91.509117 
L 80.203047 90.392517 
L 80.203047 89.275917 
L 80.203047 88.159318 
L 80.203047 87.042718 
L 80.203047 85.926118 
L 80.203047 84.809518 
L 80.203047 83.692918 
L 80.203047 82.576318 
L 80.203047 81.459718 
L 80.203047 80.343119 
L 80.203047 79.226519 
L 80.203047 78.109919 
L 80.203047 76.993319 
L 80.203047 75.876719 
L 80.203047 74.760119 
L 80.203047 73.643519 
L 80.203047 72.52692 
L 80.203047 71.41032 
L 80.203047 70.29372 
L 80.203047 69.17712 
L 80.203047 68.06052 
L 80.203047 66.94392 
L 80.203047 65.82732 
L 80.203047 64.710721 
L 80.203047 63.594121 
L 80.203047 62.477521 
L 80.203047 61.360921 
L 80.203047 60.244321 
L 80.203047 59.127721 
L 80.203047 58.011121 
L 80.203047 56.894522 
L 80.203047 55.777922 
L 80.203047 54.661322 
L 80.203047 53.544722 
L 80.203047 52.428122 
L 80.203047 51.311522 
L 80.203047 50.194922 
L 80.203047 49.078323 
L 80.203047 47.961723 
L 80.203047 46.845123 
L 80.203047 45.728523 
L 80.203047 44.611923 
L 80.203047 43.495323 
L 80.203047 42.378723 
L 80.203047 41.262124 
L 80.203047 40.145524 
L 80.203047 39.028924 
L 80.203047 37.912324 
L 80.203047 36.795724 
L 80.203047 35.679124 
L 80.203047 34.562524 
L 80.203047 33.445925 
L 80.203047 32.329325 
L 80.203047 31.212725 
L 80.203047 30.096125 
L 80.203047 28.979525 
L 80.203047 27.862925 
L 80.203047 26.746325 
L 80.203047 25.629726 
L 80.203047 24.513126 
L 80.203047 23.396526 
L 80.203047 22.279926 
L 80.203047 21.163326 
L 80.203047 20.046726 
L 80.203047 18.930126 
L 80.203047 17.813527 
L 80.203047 16.696927 
L 80.203047 15.580327 
L 80.203047 14.463727 
L 80.203047 13.347127 
L 80.203047 12.230527 
L 80.414536 12.230527 
L 80.414536 12.230527 
L 80.51481 13.347127 
L 80.640107 14.463727 
L 80.789482 15.580327 
L 80.957421 16.696927 
L 81.133769 17.813527 
L 81.306562 18.930126 
L 81.466648 20.046726 
L 81.611149 21.163326 
L 81.743185 22.279926 
L 81.867871 23.396526 
L 81.987338 24.513126 
L 82.098163 25.629726 
L 82.192839 26.746325 
L 82.264366 27.862925 
L 82.31122 28.979525 
L 82.339781 30.096125 
L 82.362499 31.212725 
L 82.392349 32.329325 
L 82.436388 33.445925 
L 82.492222 34.562524 
L 82.549648 35.679124 
L 82.596634 36.795724 
L 82.626089 37.912324 
L 82.639733 39.028924 
L 82.647483 40.145524 
L 82.663271 41.262124 
L 82.699513 42.378723 
L 82.762374 43.495323 
L 82.849071 44.611923 
L 82.947804 45.728523 
L 83.040467 46.845123 
L 83.107947 47.961723 
L 83.136849 49.078323 
L 83.125248 50.194922 
L 83.084637 51.311522 
L 83.036482 52.428122 
L 83.004407 53.544722 
L 83.005492 54.661322 
L 83.044851 55.777922 
L 83.115939 56.894522 
L 83.205673 58.011121 
L 83.300888 59.127721 
L 83.392441 60.244321 
L 83.475566 61.360921 
L 83.547762 62.477521 
L 83.60676 63.594121 
L 83.650354 64.710721 
L 83.678149 65.82732 
L 83.693778 66.94392 
L 83.70574 68.06052 
L 83.725826 69.17712 
L 83.765597 70.29372 
L 83.832708 71.41032 
L 83.928907 72.52692 
L 84.050406 73.643519 
L 84.19006 74.760119 
L 84.340282 75.876719 
L 84.495693 76.993319 
L 84.654552 78.109919 
L 84.818309 79.226519 
L 84.989657 80.343119 
L 85.170642 81.459718 
L 85.362376 82.576318 
L 85.566297 83.692918 
L 85.78529 84.809518 
L 86.023336 85.926118 
L 86.284313 87.042718 
L 86.572108 88.159318 
L 86.893023 89.275917 
L 87.258884 90.392517 
L 87.688189 91.509117 
L 88.204606 92.625717 
L 88.834981 93.742317 
L 89.609135 94.858917 
L 90.560309 95.975517 
L 91.721906 97.092116 
L 93.118048 98.208716 
L 94.753444 99.325316 
L 96.616384 100.441916 
L 98.706839 101.558516 
L 101.082528 102.675116 
L 103.885956 103.791716 
L 107.297779 104.908315 
L 111.384233 106.024915 
L 115.879475 107.141515 
L 120.03753 108.258115 
L 122.725063 109.374715 
L 122.823864 110.491315 
L 119.785357 111.607915 
L 113.996496 112.724514 
L 106.678628 113.841114 
L 99.35268 114.957714 
L 93.210409 116.074314 
L 88.762537 117.190914 
L 85.888781 118.307514 
L 84.13833 119.424114 
L 83.038254 120.540713 
L 82.262198 121.657313 
L 81.652021 122.773913 
z
" style="fill:#ff7f0e;fill-opacity:0.3;"/>
   </g>
   <g id="matplotlib.axis_1"/>
   <g id="matplotlib.axis_2">
    <g id="ytick_1">
     <g id="line2d_1">
      <defs>
       <path d="M 0 0 
L -3.5 0 
" id="m21ed794c00" style="stroke:#000000;stroke-width:0.8;"/>
      </defs>
      <g>
       <use style="stroke:#000000;stroke-width:0.8;" x="33.2875" xlink:href="#m21ed794c00" y="123.319219"/>
      </g>
     </g>
     <g id="text_1">
      <!-- 0 -->
      <defs>
       <path d="M 31.78125 66.40625 
Q 24.171875 66.40625 20.328125 58.90625 
Q 16.5 51.421875 16.5 36.375 
Q 16.5 21.390625 20.328125 13.890625 
Q 24.171875 6.390625 31.78125 6.390625 
Q 39.453125 6.390625 43.28125 13.890625 
Q 47.125 21.390625 47.125 36.375 
Q 47.125 51.421875 43.28125 58.90625 
Q 39.453125 66.40625 31.78125 66.40625 
z
M 31.78125 74.21875 
Q 44.046875 74.21875 50.515625 64.515625 
Q 56.984375 54.828125 56.984375 36.375 
Q 56.984375 17.96875 50.515625 8.265625 
Q 44.046875 -1.421875 31.78125 -1.421875 
Q 19.53125 -1.421875 13.0625 8.265625 
Q 6.59375 17.96875 6.59375 36.375 
Q 6.59375 54.828125 13.0625 64.515625 
Q 19.53125 74.21875 31.78125 74.21875 
z
" id="DejaVuSans-30"/>
      </defs>
      <g transform="translate(19.925 127.118437)scale(0.1 -0.1)">
       <use xlink:href="#DejaVuSans-30"/>
      </g>
     </g>
    </g>
    <g id="ytick_2">
     <g id="line2d_2">
      <g>
       <use style="stroke:#000000;stroke-width:0.8;" x="33.2875" xlink:href="#m21ed794c00" y="67.159219"/>
      </g>
     </g>
     <g id="text_2">
      <!-- 150 -->
      <defs>
       <path d="M 12.40625 8.296875 
L 28.515625 8.296875 
L 28.515625 63.921875 
L 10.984375 60.40625 
L 10.984375 69.390625 
L 28.421875 72.90625 
L 38.28125 72.90625 
L 38.28125 8.296875 
L 54.390625 8.296875 
L 54.390625 0 
L 12.40625 0 
z
" id="DejaVuSans-31"/>
       <path d="M 10.796875 72.90625 
L 49.515625 72.90625 
L 49.515625 64.59375 
L 19.828125 64.59375 
L 19.828125 46.734375 
Q 21.96875 47.46875 24.109375 47.828125 
Q 26.265625 48.1875 28.421875 48.1875 
Q 40.625 48.1875 47.75 41.5 
Q 54.890625 34.8125 54.890625 23.390625 
Q 54.890625 11.625 47.5625 5.09375 
Q 40.234375 -1.421875 26.90625 -1.421875 
Q 22.3125 -1.421875 17.546875 -0.640625 
Q 12.796875 0.140625 7.71875 1.703125 
L 7.71875 11.625 
Q 12.109375 9.234375 16.796875 8.0625 
Q 21.484375 6.890625 26.703125 6.890625 
Q 35.15625 6.890625 40.078125 11.328125 
Q 45.015625 15.765625 45.015625 23.390625 
Q 45.015625 31 40.078125 35.4375 
Q 35.15625 39.890625 26.703125 39.890625 
Q 22.75 39.890625 18.8125 39.015625 
Q 14.890625 38.140625 10.796875 36.28125 
z
" id="DejaVuSans-35"/>
      </defs>
      <g transform="translate(7.2 70.958437)scale(0.1 -0.1)">
       <use xlink:href="#DejaVuSans-31"/>
       <use x="63.623047" xlink:href="#DejaVuSans-35"/>
       <use x="127.246094" xlink:href="#DejaVuSans-30"/>
      </g>
     </g>
    </g>
    <g id="ytick_3">
     <g id="line2d_3">
      <g>
       <use style="stroke:#000000;stroke-width:0.8;" x="33.2875" xlink:href="#m21ed794c00" y="10.999219"/>
      </g>
     </g>
     <g id="text_3">
      <!-- 300 -->
      <defs>
       <path d="M 40.578125 39.3125 
Q 47.65625 37.796875 51.625 33 
Q 55.609375 28.21875 55.609375 21.1875 
Q 55.609375 10.40625 48.1875 4.484375 
Q 40.765625 -1.421875 27.09375 -1.421875 
Q 22.515625 -1.421875 17.65625 -0.515625 
Q 12.796875 0.390625 7.625 2.203125 
L 7.625 11.71875 
Q 11.71875 9.328125 16.59375 8.109375 
Q 21.484375 6.890625 26.8125 6.890625 
Q 36.078125 6.890625 40.9375 10.546875 
Q 45.796875 14.203125 45.796875 21.1875 
Q 45.796875 27.640625 41.28125 31.265625 
Q 36.765625 34.90625 28.71875 34.90625 
L 20.21875 34.90625 
L 20.21875 43.015625 
L 29.109375 43.015625 
Q 36.375 43.015625 40.234375 45.921875 
Q 44.09375 48.828125 44.09375 54.296875 
Q 44.09375 59.90625 40.109375 62.90625 
Q 36.140625 65.921875 28.71875 65.921875 
Q 24.65625 65.921875 20.015625 65.03125 
Q 15.375 64.15625 9.8125 62.3125 
L 9.8125 71.09375 
Q 15.4375 72.65625 20.34375 73.4375 
Q 25.25 74.21875 29.59375 74.21875 
Q 40.828125 74.21875 47.359375 69.109375 
Q 53.90625 64.015625 53.90625 55.328125 
Q 53.90625 49.265625 50.4375 45.09375 
Q 46.96875 40.921875 40.578125 39.3125 
z
" id="DejaVuSans-33"/>
      </defs>
      <g transform="translate(7.2 14.798437)scale(0.1 -0.1)">
       <use xlink:href="#DejaVuSans-33"/>
       <use x="63.623047" xlink:href="#DejaVuSans-30"/>
       <use x="127.246094" xlink:href="#DejaVuSans-30"/>
      </g>
     </g>
    </g>
   </g>
   <g id="patch_3">
    <path d="M 33.2875 123.319219 
L 33.2875 10.999219 
" style="fill:none;stroke:#000000;stroke-linecap:square;stroke-linejoin:miter;stroke-width:0.8;"/>
   </g>
   <g id="patch_4">
    <path d="M 33.2875 123.319219 
L 127.0875 123.319219 
" style="fill:none;stroke:#000000;stroke-linecap:square;stroke-linejoin:miter;stroke-width:0.8;"/>
   </g>
  </g>
 </g>
 <defs>
  <clipPath id="pdc951fc42f">
   <rect height="112.32" width="93.8" x="33.2875" y="10.999219"/>
  </clipPath>
 </defs>
</svg>
