<?xml version="1.0" encoding="utf-8" standalone="no"?>
<!DOCTYPE svg PUBLIC "-//W3C//DTD SVG 1.1//EN"
  "http://www.w3.org/Graphics/SVG/1.1/DTD/svg11.dtd">
<!-- Created with matplotlib (http://matplotlib.org/) -->
<svg height="104pt" version="1.1" viewBox="0 0 133 104" width="133pt" xmlns="http://www.w3.org/2000/svg" xmlns:xlink="http://www.w3.org/1999/xlink">
 <defs>
  <style type="text/css">
*{stroke-linecap:butt;stroke-linejoin:round;}
  </style>
 </defs>
 <g id="figure_1">
  <g id="patch_1">
   <path d="M 0 104.56 
L 133 104.56 
L 133 0 
L 0 0 
z
" style="fill:#ffffff;"/>
  </g>
  <g id="axes_1">
   <g id="patch_2">
    <path d="M 10.7 93.86 
L 122.3 93.86 
L 122.3 10.7 
L 10.7 10.7 
z
" style="fill:#ffffff;"/>
   </g>
   <g id="patch_3">
    <path clip-path="url(#pbda5a92af3)" d="M 15.772727 87.400971 
L 16.383899 87.400971 
L 16.383899 85.73357 
L 15.772727 85.73357 
z
" style="fill:#1d1d1d;"/>
   </g>
   <g id="patch_4">
    <path clip-path="url(#pbda5a92af3)" d="M 16.282037 87.400971 
L 16.893209 87.400971 
L 16.893209 85.725866 
L 16.282037 85.725866 
z
" style="fill:#1d1d1d;"/>
   </g>
   <g id="patch_5">
    <path clip-path="url(#pbda5a92af3)" d="M 16.791347 87.400971 
L 17.402519 87.400971 
L 17.402519 85.687948 
L 16.791347 85.687948 
z
" style="fill:#1d1d1d;"/>
   </g>
   <g id="patch_6">
    <path clip-path="url(#pbda5a92af3)" d="M 17.300657 87.400971 
L 17.911829 87.400971 
L 17.911829 85.670617 
L 17.300657 85.670617 
z
" style="fill:#1d1d1d;"/>
   </g>
   <g id="patch_7">
    <path clip-path="url(#pbda5a92af3)" d="M 17.809967 87.400971 
L 18.421139 87.400971 
L 18.421139 85.652766 
L 17.809967 85.652766 
z
" style="fill:#1d1d1d;"/>
   </g>
   <g id="patch_8">
    <path clip-path="url(#pbda5a92af3)" d="M 18.319277 87.400971 
L 18.930449 87.400971 
L 18.930449 85.640749 
L 18.319277 85.640749 
z
" style="fill:#1d1d1d;"/>
   </g>
   <g id="patch_9">
    <path clip-path="url(#pbda5a92af3)" d="M 18.828587 87.400971 
L 19.439759 87.400971 
L 19.439759 85.636366 
L 18.828587 85.636366 
z
" style="fill:#1d1d1d;"/>
   </g>
   <g id="patch_10">
    <path clip-path="url(#pbda5a92af3)" d="M 19.337897 87.400971 
L 19.949069 87.400971 
L 19.949069 85.614892 
L 19.337897 85.614892 
z
" style="fill:#1d1d1d;"/>
   </g>
   <g id="patch_11">
    <path clip-path="url(#pbda5a92af3)" d="M 19.847207 87.400971 
L 20.458379 87.400971 
L 20.458379 85.598305 
L 19.847207 85.598305 
z
" style="fill:#1d1d1d;"/>
   </g>
   <g id="patch_12">
    <path clip-path="url(#pbda5a92af3)" d="M 20.356517 87.400971 
L 20.967689 87.400971 
L 20.967689 85.59393 
L 20.356517 85.59393 
z
" style="fill:#1d1d1d;"/>
   </g>
   <g id="patch_13">
    <path clip-path="url(#pbda5a92af3)" d="M 20.865827 87.400971 
L 21.476999 87.400971 
L 21.476999 85.506022 
L 20.865827 85.506022 
z
" style="fill:#1d1d1d;"/>
   </g>
   <g id="patch_14">
    <path clip-path="url(#pbda5a92af3)" d="M 21.375137 87.400971 
L 21.986309 87.400971 
L 21.986309 85.50071 
L 21.375137 85.50071 
z
" style="fill:#1d1d1d;"/>
   </g>
   <g id="patch_15">
    <path clip-path="url(#pbda5a92af3)" d="M 21.884447 87.400971 
L 22.495619 87.400971 
L 22.495619 85.499284 
L 21.884447 85.499284 
z
" style="fill:#1d1d1d;"/>
   </g>
   <g id="patch_16">
    <path clip-path="url(#pbda5a92af3)" d="M 22.393757 87.400971 
L 23.004929 87.400971 
L 23.004929 85.490945 
L 22.393757 85.490945 
z
" style="fill:#1d1d1d;"/>
   </g>
   <g id="patch_17">
    <path clip-path="url(#pbda5a92af3)" d="M 22.903067 87.400971 
L 23.514239 87.400971 
L 23.514239 85.463621 
L 22.903067 85.463621 
z
" style="fill:#1d1d1d;"/>
   </g>
   <g id="patch_18">
    <path clip-path="url(#pbda5a92af3)" d="M 23.412377 87.400971 
L 24.023549 87.400971 
L 24.023549 85.460227 
L 23.412377 85.460227 
z
" style="fill:#1d1d1d;"/>
   </g>
   <g id="patch_19">
    <path clip-path="url(#pbda5a92af3)" d="M 23.921687 87.400971 
L 24.532859 87.400971 
L 24.532859 85.427342 
L 23.921687 85.427342 
z
" style="fill:#1d1d1d;"/>
   </g>
   <g id="patch_20">
    <path clip-path="url(#pbda5a92af3)" d="M 24.430997 87.400971 
L 25.042169 87.400971 
L 25.042169 85.353454 
L 24.430997 85.353454 
z
" style="fill:#1d1d1d;"/>
   </g>
   <g id="patch_21">
    <path clip-path="url(#pbda5a92af3)" d="M 24.940307 87.400971 
L 25.551479 87.400971 
L 25.551479 85.29174 
L 24.940307 85.29174 
z
" style="fill:#1d1d1d;"/>
   </g>
   <g id="patch_22">
    <path clip-path="url(#pbda5a92af3)" d="M 25.449617 87.400971 
L 26.060789 87.400971 
L 26.060789 85.291225 
L 25.449617 85.291225 
z
" style="fill:#1d1d1d;"/>
   </g>
   <g id="patch_23">
    <path clip-path="url(#pbda5a92af3)" d="M 25.958927 87.400971 
L 26.570099 87.400971 
L 26.570099 85.203784 
L 25.958927 85.203784 
z
" style="fill:#1d1d1d;"/>
   </g>
   <g id="patch_24">
    <path clip-path="url(#pbda5a92af3)" d="M 26.468237 87.400971 
L 27.079409 87.400971 
L 27.079409 85.174713 
L 26.468237 85.174713 
z
" style="fill:#1d1d1d;"/>
   </g>
   <g id="patch_25">
    <path clip-path="url(#pbda5a92af3)" d="M 26.977547 87.400971 
L 27.588719 87.400971 
L 27.588719 85.126844 
L 26.977547 85.126844 
z
" style="fill:#1d1d1d;"/>
   </g>
   <g id="patch_26">
    <path clip-path="url(#pbda5a92af3)" d="M 27.486857 87.400971 
L 28.098028 87.400971 
L 28.098028 85.088028 
L 27.486857 85.088028 
z
" style="fill:#1d1d1d;"/>
   </g>
   <g id="patch_27">
    <path clip-path="url(#pbda5a92af3)" d="M 27.996166 87.400971 
L 28.607338 87.400971 
L 28.607338 85.002731 
L 27.996166 85.002731 
z
" style="fill:#1d1d1d;"/>
   </g>
   <g id="patch_28">
    <path clip-path="url(#pbda5a92af3)" d="M 28.505476 87.400971 
L 29.116648 87.400971 
L 29.116648 84.961282 
L 28.505476 84.961282 
z
" style="fill:#1d1d1d;"/>
   </g>
   <g id="patch_29">
    <path clip-path="url(#pbda5a92af3)" d="M 29.014786 87.400971 
L 29.625958 87.400971 
L 29.625958 84.880243 
L 29.014786 84.880243 
z
" style="fill:#1d1d1d;"/>
   </g>
   <g id="patch_30">
    <path clip-path="url(#pbda5a92af3)" d="M 29.524096 87.400971 
L 30.135268 87.400971 
L 30.135268 84.864011 
L 29.524096 84.864011 
z
" style="fill:#1d1d1d;"/>
   </g>
   <g id="patch_31">
    <path clip-path="url(#pbda5a92af3)" d="M 30.033406 87.400971 
L 30.644578 87.400971 
L 30.644578 84.859428 
L 30.033406 84.859428 
z
" style="fill:#1d1d1d;"/>
   </g>
   <g id="patch_32">
    <path clip-path="url(#pbda5a92af3)" d="M 30.542716 87.400971 
L 31.153888 87.400971 
L 31.153888 84.856513 
L 30.542716 84.856513 
z
" style="fill:#1d1d1d;"/>
   </g>
   <g id="patch_33">
    <path clip-path="url(#pbda5a92af3)" d="M 31.052026 87.400971 
L 31.663198 87.400971 
L 31.663198 84.811755 
L 31.052026 84.811755 
z
" style="fill:#1d1d1d;"/>
   </g>
   <g id="patch_34">
    <path clip-path="url(#pbda5a92af3)" d="M 31.561336 87.400971 
L 32.172508 87.400971 
L 32.172508 84.795519 
L 31.561336 84.795519 
z
" style="fill:#1d1d1d;"/>
   </g>
   <g id="patch_35">
    <path clip-path="url(#pbda5a92af3)" d="M 32.070646 87.400971 
L 32.681818 87.400971 
L 32.681818 84.773049 
L 32.070646 84.773049 
z
" style="fill:#1d1d1d;"/>
   </g>
   <g id="patch_36">
    <path clip-path="url(#pbda5a92af3)" d="M 32.579956 87.400971 
L 33.191128 87.400971 
L 33.191128 84.76814 
L 32.579956 84.76814 
z
" style="fill:#1d1d1d;"/>
   </g>
   <g id="patch_37">
    <path clip-path="url(#pbda5a92af3)" d="M 33.089266 87.400971 
L 33.700438 87.400971 
L 33.700438 84.705042 
L 33.089266 84.705042 
z
" style="fill:#1d1d1d;"/>
   </g>
   <g id="patch_38">
    <path clip-path="url(#pbda5a92af3)" d="M 33.598576 87.400971 
L 34.209748 87.400971 
L 34.209748 84.703307 
L 33.598576 84.703307 
z
" style="fill:#1d1d1d;"/>
   </g>
   <g id="patch_39">
    <path clip-path="url(#pbda5a92af3)" d="M 34.107886 87.400971 
L 34.719058 87.400971 
L 34.719058 84.667098 
L 34.107886 84.667098 
z
" style="fill:#1d1d1d;"/>
   </g>
   <g id="patch_40">
    <path clip-path="url(#pbda5a92af3)" d="M 34.617196 87.400971 
L 35.228368 87.400971 
L 35.228368 84.610826 
L 34.617196 84.610826 
z
" style="fill:#1d1d1d;"/>
   </g>
   <g id="patch_41">
    <path clip-path="url(#pbda5a92af3)" d="M 35.126506 87.400971 
L 35.737678 87.400971 
L 35.737678 84.513266 
L 35.126506 84.513266 
z
" style="fill:#1d1d1d;"/>
   </g>
   <g id="patch_42">
    <path clip-path="url(#pbda5a92af3)" d="M 35.635816 87.400971 
L 36.246988 87.400971 
L 36.246988 84.393066 
L 35.635816 84.393066 
z
" style="fill:#1d1d1d;"/>
   </g>
   <g id="patch_43">
    <path clip-path="url(#pbda5a92af3)" d="M 36.145126 87.400971 
L 36.756298 87.400971 
L 36.756298 84.385268 
L 36.145126 84.385268 
z
" style="fill:#1d1d1d;"/>
   </g>
   <g id="patch_44">
    <path clip-path="url(#pbda5a92af3)" d="M 36.654436 87.400971 
L 37.265608 87.400971 
L 37.265608 84.272001 
L 36.654436 84.272001 
z
" style="fill:#1d1d1d;"/>
   </g>
   <g id="patch_45">
    <path clip-path="url(#pbda5a92af3)" d="M 37.163746 87.400971 
L 37.774918 87.400971 
L 37.774918 84.186771 
L 37.163746 84.186771 
z
" style="fill:#1d1d1d;"/>
   </g>
   <g id="patch_46">
    <path clip-path="url(#pbda5a92af3)" d="M 37.673056 87.400971 
L 38.284228 87.400971 
L 38.284228 84.09003 
L 37.673056 84.09003 
z
" style="fill:#1d1d1d;"/>
   </g>
   <g id="patch_47">
    <path clip-path="url(#pbda5a92af3)" d="M 38.182366 87.400971 
L 38.793538 87.400971 
L 38.793538 84.084388 
L 38.182366 84.084388 
z
" style="fill:#1d1d1d;"/>
   </g>
   <g id="patch_48">
    <path clip-path="url(#pbda5a92af3)" d="M 38.691676 87.400971 
L 39.302848 87.400971 
L 39.302848 84.083485 
L 38.691676 84.083485 
z
" style="fill:#1d1d1d;"/>
   </g>
   <g id="patch_49">
    <path clip-path="url(#pbda5a92af3)" d="M 39.200986 87.400971 
L 39.812158 87.400971 
L 39.812158 84.05353 
L 39.200986 84.05353 
z
" style="fill:#1d1d1d;"/>
   </g>
   <g id="patch_50">
    <path clip-path="url(#pbda5a92af3)" d="M 39.710296 87.400971 
L 40.321468 87.400971 
L 40.321468 84.03679 
L 39.710296 84.03679 
z
" style="fill:#1d1d1d;"/>
   </g>
   <g id="patch_51">
    <path clip-path="url(#pbda5a92af3)" d="M 40.219606 87.400971 
L 40.830778 87.400971 
L 40.830778 83.963384 
L 40.219606 83.963384 
z
" style="fill:#1d1d1d;"/>
   </g>
   <g id="patch_52">
    <path clip-path="url(#pbda5a92af3)" d="M 40.728916 87.400971 
L 41.340088 87.400971 
L 41.340088 83.859805 
L 40.728916 83.859805 
z
" style="fill:#1d1d1d;"/>
   </g>
   <g id="patch_53">
    <path clip-path="url(#pbda5a92af3)" d="M 41.238226 87.400971 
L 41.849398 87.400971 
L 41.849398 83.828767 
L 41.238226 83.828767 
z
" style="fill:#1d1d1d;"/>
   </g>
   <g id="patch_54">
    <path clip-path="url(#pbda5a92af3)" d="M 41.747536 87.400971 
L 42.358708 87.400971 
L 42.358708 83.815287 
L 41.747536 83.815287 
z
" style="fill:#1d1d1d;"/>
   </g>
   <g id="patch_55">
    <path clip-path="url(#pbda5a92af3)" d="M 42.256846 87.400971 
L 42.868018 87.400971 
L 42.868018 83.799785 
L 42.256846 83.799785 
z
" style="fill:#1d1d1d;"/>
   </g>
   <g id="patch_56">
    <path clip-path="url(#pbda5a92af3)" d="M 42.766156 87.400971 
L 43.377327 87.400971 
L 43.377327 83.788883 
L 42.766156 83.788883 
z
" style="fill:#1d1d1d;"/>
   </g>
   <g id="patch_57">
    <path clip-path="url(#pbda5a92af3)" d="M 43.275465 87.400971 
L 43.886637 87.400971 
L 43.886637 83.661258 
L 43.275465 83.661258 
z
" style="fill:#1d1d1d;"/>
   </g>
   <g id="patch_58">
    <path clip-path="url(#pbda5a92af3)" d="M 43.784775 87.400971 
L 44.395947 87.400971 
L 44.395947 83.551677 
L 43.784775 83.551677 
z
" style="fill:#1d1d1d;"/>
   </g>
   <g id="patch_59">
    <path clip-path="url(#pbda5a92af3)" d="M 44.294085 87.400971 
L 44.905257 87.400971 
L 44.905257 83.398456 
L 44.294085 83.398456 
z
" style="fill:#1d1d1d;"/>
   </g>
   <g id="patch_60">
    <path clip-path="url(#pbda5a92af3)" d="M 44.803395 87.400971 
L 45.414567 87.400971 
L 45.414567 83.342914 
L 44.803395 83.342914 
z
" style="fill:#1d1d1d;"/>
   </g>
   <g id="patch_61">
    <path clip-path="url(#pbda5a92af3)" d="M 45.312705 87.400971 
L 45.923877 87.400971 
L 45.923877 83.325304 
L 45.312705 83.325304 
z
" style="fill:#1d1d1d;"/>
   </g>
   <g id="patch_62">
    <path clip-path="url(#pbda5a92af3)" d="M 45.822015 87.400971 
L 46.433187 87.400971 
L 46.433187 83.318955 
L 45.822015 83.318955 
z
" style="fill:#1d1d1d;"/>
   </g>
   <g id="patch_63">
    <path clip-path="url(#pbda5a92af3)" d="M 46.331325 87.400971 
L 46.942497 87.400971 
L 46.942497 83.309541 
L 46.331325 83.309541 
z
" style="fill:#1d1d1d;"/>
   </g>
   <g id="patch_64">
    <path clip-path="url(#pbda5a92af3)" d="M 46.840635 87.400971 
L 47.451807 87.400971 
L 47.451807 83.201683 
L 46.840635 83.201683 
z
" style="fill:#1d1d1d;"/>
   </g>
   <g id="patch_65">
    <path clip-path="url(#pbda5a92af3)" d="M 47.349945 87.400971 
L 47.961117 87.400971 
L 47.961117 82.878578 
L 47.349945 82.878578 
z
" style="fill:#1d1d1d;"/>
   </g>
   <g id="patch_66">
    <path clip-path="url(#pbda5a92af3)" d="M 47.859255 87.400971 
L 48.470427 87.400971 
L 48.470427 82.875027 
L 47.859255 82.875027 
z
" style="fill:#1d1d1d;"/>
   </g>
   <g id="patch_67">
    <path clip-path="url(#pbda5a92af3)" d="M 48.368565 87.400971 
L 48.979737 87.400971 
L 48.979737 82.770574 
L 48.368565 82.770574 
z
" style="fill:#1d1d1d;"/>
   </g>
   <g id="patch_68">
    <path clip-path="url(#pbda5a92af3)" d="M 48.877875 87.400971 
L 49.489047 87.400971 
L 49.489047 82.582909 
L 48.877875 82.582909 
z
" style="fill:#1d1d1d;"/>
   </g>
   <g id="patch_69">
    <path clip-path="url(#pbda5a92af3)" d="M 49.387185 87.400971 
L 49.998357 87.400971 
L 49.998357 82.48568 
L 49.387185 82.48568 
z
" style="fill:#1d1d1d;"/>
   </g>
   <g id="patch_70">
    <path clip-path="url(#pbda5a92af3)" d="M 49.896495 87.400971 
L 50.507667 87.400971 
L 50.507667 82.478981 
L 49.896495 82.478981 
z
" style="fill:#1d1d1d;"/>
   </g>
   <g id="patch_71">
    <path clip-path="url(#pbda5a92af3)" d="M 50.405805 87.400971 
L 51.016977 87.400971 
L 51.016977 82.390497 
L 50.405805 82.390497 
z
" style="fill:#1d1d1d;"/>
   </g>
   <g id="patch_72">
    <path clip-path="url(#pbda5a92af3)" d="M 50.915115 87.400971 
L 51.526287 87.400971 
L 51.526287 82.214052 
L 50.915115 82.214052 
z
" style="fill:#1d1d1d;"/>
   </g>
   <g id="patch_73">
    <path clip-path="url(#pbda5a92af3)" d="M 51.424425 87.400971 
L 52.035597 87.400971 
L 52.035597 81.717544 
L 51.424425 81.717544 
z
" style="fill:#1d1d1d;"/>
   </g>
   <g id="patch_74">
    <path clip-path="url(#pbda5a92af3)" d="M 51.933735 87.400971 
L 52.544907 87.400971 
L 52.544907 81.47376 
L 51.933735 81.47376 
z
" style="fill:#1d1d1d;"/>
   </g>
   <g id="patch_75">
    <path clip-path="url(#pbda5a92af3)" d="M 52.443045 87.400971 
L 53.054217 87.400971 
L 53.054217 81.379512 
L 52.443045 81.379512 
z
" style="fill:#1d1d1d;"/>
   </g>
   <g id="patch_76">
    <path clip-path="url(#pbda5a92af3)" d="M 52.952355 87.400971 
L 53.563527 87.400971 
L 53.563527 80.858565 
L 52.952355 80.858565 
z
" style="fill:#1d1d1d;"/>
   </g>
   <g id="patch_77">
    <path clip-path="url(#pbda5a92af3)" d="M 53.461665 87.400971 
L 54.072837 87.400971 
L 54.072837 80.540551 
L 53.461665 80.540551 
z
" style="fill:#1d1d1d;"/>
   </g>
   <g id="patch_78">
    <path clip-path="url(#pbda5a92af3)" d="M 53.970975 87.400971 
L 54.582147 87.400971 
L 54.582147 79.898356 
L 53.970975 79.898356 
z
" style="fill:#1d1d1d;"/>
   </g>
   <g id="patch_79">
    <path clip-path="url(#pbda5a92af3)" d="M 54.480285 87.400971 
L 55.091457 87.400971 
L 55.091457 79.623803 
L 54.480285 79.623803 
z
" style="fill:#1d1d1d;"/>
   </g>
   <g id="patch_80">
    <path clip-path="url(#pbda5a92af3)" d="M 54.989595 87.400971 
L 55.600767 87.400971 
L 55.600767 79.439148 
L 54.989595 79.439148 
z
" style="fill:#1d1d1d;"/>
   </g>
   <g id="patch_81">
    <path clip-path="url(#pbda5a92af3)" d="M 55.498905 87.400971 
L 56.110077 87.400971 
L 56.110077 79.36536 
L 55.498905 79.36536 
z
" style="fill:#1d1d1d;"/>
   </g>
   <g id="patch_82">
    <path clip-path="url(#pbda5a92af3)" d="M 56.008215 87.400971 
L 56.619387 87.400971 
L 56.619387 78.747428 
L 56.008215 78.747428 
z
" style="fill:#1d1d1d;"/>
   </g>
   <g id="patch_83">
    <path clip-path="url(#pbda5a92af3)" d="M 56.517525 87.400971 
L 57.128697 87.400971 
L 57.128697 78.114774 
L 56.517525 78.114774 
z
" style="fill:#1d1d1d;"/>
   </g>
   <g id="patch_84">
    <path clip-path="url(#pbda5a92af3)" d="M 57.026835 87.400971 
L 57.638007 87.400971 
L 57.638007 78.044906 
L 57.026835 78.044906 
z
" style="fill:#1d1d1d;"/>
   </g>
   <g id="patch_85">
    <path clip-path="url(#pbda5a92af3)" d="M 57.536145 87.400971 
L 58.147317 87.400971 
L 58.147317 78.033074 
L 57.536145 78.033074 
z
" style="fill:#1d1d1d;"/>
   </g>
   <g id="patch_86">
    <path clip-path="url(#pbda5a92af3)" d="M 58.045455 87.400971 
L 58.656627 87.400971 
L 58.656627 76.518345 
L 58.045455 76.518345 
z
" style="fill:#1d1d1d;"/>
   </g>
   <g id="patch_87">
    <path clip-path="url(#pbda5a92af3)" d="M 58.554765 87.400971 
L 59.165936 87.400971 
L 59.165936 76.383391 
L 58.554765 76.383391 
z
" style="fill:#1d1d1d;"/>
   </g>
   <g id="patch_88">
    <path clip-path="url(#pbda5a92af3)" d="M 59.064074 87.400971 
L 59.675246 87.400971 
L 59.675246 76.352185 
L 59.064074 76.352185 
z
" style="fill:#1d1d1d;"/>
   </g>
   <g id="patch_89">
    <path clip-path="url(#pbda5a92af3)" d="M 59.573384 87.400971 
L 60.184556 87.400971 
L 60.184556 76.092279 
L 59.573384 76.092279 
z
" style="fill:#1d1d1d;"/>
   </g>
   <g id="patch_90">
    <path clip-path="url(#pbda5a92af3)" d="M 60.082694 87.400971 
L 60.693866 87.400971 
L 60.693866 75.246427 
L 60.082694 75.246427 
z
" style="fill:#1d1d1d;"/>
   </g>
   <g id="patch_91">
    <path clip-path="url(#pbda5a92af3)" d="M 60.592004 87.400971 
L 61.203176 87.400971 
L 61.203176 75.208841 
L 60.592004 75.208841 
z
" style="fill:#1d1d1d;"/>
   </g>
   <g id="patch_92">
    <path clip-path="url(#pbda5a92af3)" d="M 61.101314 87.400971 
L 61.712486 87.400971 
L 61.712486 72.060398 
L 61.101314 72.060398 
z
" style="fill:#1d1d1d;"/>
   </g>
   <g id="patch_93">
    <path clip-path="url(#pbda5a92af3)" d="M 61.610624 87.400971 
L 62.221796 87.400971 
L 62.221796 70.24331 
L 61.610624 70.24331 
z
" style="fill:#1d1d1d;"/>
   </g>
   <g id="patch_94">
    <path clip-path="url(#pbda5a92af3)" d="M 62.119934 87.400971 
L 62.731106 87.400971 
L 62.731106 68.890721 
L 62.119934 68.890721 
z
" style="fill:#1d1d1d;"/>
   </g>
   <g id="patch_95">
    <path clip-path="url(#pbda5a92af3)" d="M 62.629244 87.400971 
L 63.240416 87.400971 
L 63.240416 68.311224 
L 62.629244 68.311224 
z
" style="fill:#1d1d1d;"/>
   </g>
   <g id="patch_96">
    <path clip-path="url(#pbda5a92af3)" d="M 63.138554 87.400971 
L 63.749726 87.400971 
L 63.749726 66.527618 
L 63.138554 66.527618 
z
" style="fill:#1d1d1d;"/>
   </g>
   <g id="patch_97">
    <path clip-path="url(#pbda5a92af3)" d="M 63.647864 87.400971 
L 64.259036 87.400971 
L 64.259036 66.25324 
L 63.647864 66.25324 
z
" style="fill:#1d1d1d;"/>
   </g>
   <g id="patch_98">
    <path clip-path="url(#pbda5a92af3)" d="M 64.157174 87.400971 
L 64.768346 87.400971 
L 64.768346 58.851838 
L 64.157174 58.851838 
z
" style="fill:#1d1d1d;"/>
   </g>
   <g id="patch_99">
    <path clip-path="url(#pbda5a92af3)" d="M 64.666484 87.400971 
L 65.277656 87.400971 
L 65.277656 56.615399 
L 64.666484 56.615399 
z
" style="fill:#1d1d1d;"/>
   </g>
   <g id="patch_100">
    <path clip-path="url(#pbda5a92af3)" d="M 65.175794 87.400971 
L 65.786966 87.400971 
L 65.786966 53.992126 
L 65.175794 53.992126 
z
" style="fill:#1d1d1d;"/>
   </g>
   <g id="patch_101">
    <path clip-path="url(#pbda5a92af3)" d="M 65.685104 87.400971 
L 66.296276 87.400971 
L 66.296276 47.623771 
L 65.685104 47.623771 
z
" style="fill:#1d1d1d;"/>
   </g>
   <g id="patch_102">
    <path clip-path="url(#pbda5a92af3)" d="M 66.194414 87.400971 
L 66.805586 87.400971 
L 66.805586 33.562556 
L 66.194414 33.562556 
z
" style="fill:#1d1d1d;"/>
   </g>
   <g id="patch_103">
    <path clip-path="url(#pbda5a92af3)" d="M 66.194414 87.400971 
L 66.805586 87.400971 
L 66.805586 33.562556 
L 66.194414 33.562556 
z
" style="fill:#1d1d1d;"/>
   </g>
   <g id="patch_104">
    <path clip-path="url(#pbda5a92af3)" d="M 66.703724 87.400971 
L 67.314896 87.400971 
L 67.314896 25.767115 
L 66.703724 25.767115 
z
" style="fill:#1d1d1d;"/>
   </g>
   <g id="patch_105">
    <path clip-path="url(#pbda5a92af3)" d="M 67.213034 87.400971 
L 67.824206 87.400971 
L 67.824206 48.999106 
L 67.213034 48.999106 
z
" style="fill:#1d1d1d;"/>
   </g>
   <g id="patch_106">
    <path clip-path="url(#pbda5a92af3)" d="M 67.722344 87.400971 
L 68.333516 87.400971 
L 68.333516 60.808511 
L 67.722344 60.808511 
z
" style="fill:#1d1d1d;"/>
   </g>
   <g id="patch_107">
    <path clip-path="url(#pbda5a92af3)" d="M 68.231654 87.400971 
L 68.842826 87.400971 
L 68.842826 61.910384 
L 68.231654 61.910384 
z
" style="fill:#1d1d1d;"/>
   </g>
   <g id="patch_108">
    <path clip-path="url(#pbda5a92af3)" d="M 68.740964 87.400971 
L 69.352136 87.400971 
L 69.352136 65.697123 
L 68.740964 65.697123 
z
" style="fill:#1d1d1d;"/>
   </g>
   <g id="patch_109">
    <path clip-path="url(#pbda5a92af3)" d="M 69.250274 87.400971 
L 69.861446 87.400971 
L 69.861446 70.473832 
L 69.250274 70.473832 
z
" style="fill:#1d1d1d;"/>
   </g>
   <g id="patch_110">
    <path clip-path="url(#pbda5a92af3)" d="M 69.759584 87.400971 
L 70.370756 87.400971 
L 70.370756 71.851731 
L 69.759584 71.851731 
z
" style="fill:#1d1d1d;"/>
   </g>
   <g id="patch_111">
    <path clip-path="url(#pbda5a92af3)" d="M 70.268894 87.400971 
L 70.880066 87.400971 
L 70.880066 75.481583 
L 70.268894 75.481583 
z
" style="fill:#1d1d1d;"/>
   </g>
   <g id="patch_112">
    <path clip-path="url(#pbda5a92af3)" d="M 70.778204 87.400971 
L 71.389376 87.400971 
L 71.389376 76.540525 
L 70.778204 76.540525 
z
" style="fill:#1d1d1d;"/>
   </g>
   <g id="patch_113">
    <path clip-path="url(#pbda5a92af3)" d="M 71.287514 87.400971 
L 71.898686 87.400971 
L 71.898686 76.899053 
L 71.287514 76.899053 
z
" style="fill:#1d1d1d;"/>
   </g>
   <g id="patch_114">
    <path clip-path="url(#pbda5a92af3)" d="M 71.796824 87.400971 
L 72.407996 87.400971 
L 72.407996 77.358466 
L 71.796824 77.358466 
z
" style="fill:#1d1d1d;"/>
   </g>
   <g id="patch_115">
    <path clip-path="url(#pbda5a92af3)" d="M 72.306134 87.400971 
L 72.917306 87.400971 
L 72.917306 77.833015 
L 72.306134 77.833015 
z
" style="fill:#1d1d1d;"/>
   </g>
   <g id="patch_116">
    <path clip-path="url(#pbda5a92af3)" d="M 72.815444 87.400971 
L 73.426616 87.400971 
L 73.426616 78.232343 
L 72.815444 78.232343 
z
" style="fill:#1d1d1d;"/>
   </g>
   <g id="patch_117">
    <path clip-path="url(#pbda5a92af3)" d="M 73.324754 87.400971 
L 73.935926 87.400971 
L 73.935926 78.337304 
L 73.324754 78.337304 
z
" style="fill:#1d1d1d;"/>
   </g>
   <g id="patch_118">
    <path clip-path="url(#pbda5a92af3)" d="M 73.834064 87.400971 
L 74.445235 87.400971 
L 74.445235 78.968529 
L 73.834064 78.968529 
z
" style="fill:#1d1d1d;"/>
   </g>
   <g id="patch_119">
    <path clip-path="url(#pbda5a92af3)" d="M 74.343373 87.400971 
L 74.954545 87.400971 
L 74.954545 79.36426 
L 74.343373 79.36426 
z
" style="fill:#1d1d1d;"/>
   </g>
   <g id="patch_120">
    <path clip-path="url(#pbda5a92af3)" d="M 74.852683 87.400971 
L 75.463855 87.400971 
L 75.463855 80.243764 
L 74.852683 80.243764 
z
" style="fill:#1d1d1d;"/>
   </g>
   <g id="patch_121">
    <path clip-path="url(#pbda5a92af3)" d="M 75.361993 87.400971 
L 75.973165 87.400971 
L 75.973165 80.344616 
L 75.361993 80.344616 
z
" style="fill:#1d1d1d;"/>
   </g>
   <g id="patch_122">
    <path clip-path="url(#pbda5a92af3)" d="M 75.871303 87.400971 
L 76.482475 87.400971 
L 76.482475 80.497476 
L 75.871303 80.497476 
z
" style="fill:#1d1d1d;"/>
   </g>
   <g id="patch_123">
    <path clip-path="url(#pbda5a92af3)" d="M 76.380613 87.400971 
L 76.991785 87.400971 
L 76.991785 80.544589 
L 76.380613 80.544589 
z
" style="fill:#1d1d1d;"/>
   </g>
   <g id="patch_124">
    <path clip-path="url(#pbda5a92af3)" d="M 76.889923 87.400971 
L 77.501095 87.400971 
L 77.501095 80.557386 
L 76.889923 80.557386 
z
" style="fill:#1d1d1d;"/>
   </g>
   <g id="patch_125">
    <path clip-path="url(#pbda5a92af3)" d="M 77.399233 87.400971 
L 78.010405 87.400971 
L 78.010405 80.672225 
L 77.399233 80.672225 
z
" style="fill:#1d1d1d;"/>
   </g>
   <g id="patch_126">
    <path clip-path="url(#pbda5a92af3)" d="M 77.908543 87.400971 
L 78.519715 87.400971 
L 78.519715 80.679291 
L 77.908543 80.679291 
z
" style="fill:#1d1d1d;"/>
   </g>
   <g id="patch_127">
    <path clip-path="url(#pbda5a92af3)" d="M 78.417853 87.400971 
L 79.029025 87.400971 
L 79.029025 81.041766 
L 78.417853 81.041766 
z
" style="fill:#1d1d1d;"/>
   </g>
   <g id="patch_128">
    <path clip-path="url(#pbda5a92af3)" d="M 78.927163 87.400971 
L 79.538335 87.400971 
L 79.538335 81.086033 
L 78.927163 81.086033 
z
" style="fill:#1d1d1d;"/>
   </g>
   <g id="patch_129">
    <path clip-path="url(#pbda5a92af3)" d="M 79.436473 87.400971 
L 80.047645 87.400971 
L 80.047645 81.264856 
L 79.436473 81.264856 
z
" style="fill:#1d1d1d;"/>
   </g>
   <g id="patch_130">
    <path clip-path="url(#pbda5a92af3)" d="M 79.945783 87.400971 
L 80.556955 87.400971 
L 80.556955 81.505555 
L 79.945783 81.505555 
z
" style="fill:#1d1d1d;"/>
   </g>
   <g id="patch_131">
    <path clip-path="url(#pbda5a92af3)" d="M 80.455093 87.400971 
L 81.066265 87.400971 
L 81.066265 81.655239 
L 80.455093 81.655239 
z
" style="fill:#1d1d1d;"/>
   </g>
   <g id="patch_132">
    <path clip-path="url(#pbda5a92af3)" d="M 80.964403 87.400971 
L 81.575575 87.400971 
L 81.575575 81.659118 
L 80.964403 81.659118 
z
" style="fill:#1d1d1d;"/>
   </g>
   <g id="patch_133">
    <path clip-path="url(#pbda5a92af3)" d="M 81.473713 87.400971 
L 82.084885 87.400971 
L 82.084885 81.766072 
L 81.473713 81.766072 
z
" style="fill:#1d1d1d;"/>
   </g>
   <g id="patch_134">
    <path clip-path="url(#pbda5a92af3)" d="M 81.983023 87.400971 
L 82.594195 87.400971 
L 82.594195 81.947348 
L 81.983023 81.947348 
z
" style="fill:#1d1d1d;"/>
   </g>
   <g id="patch_135">
    <path clip-path="url(#pbda5a92af3)" d="M 82.492333 87.400971 
L 83.103505 87.400971 
L 83.103505 82.136126 
L 82.492333 82.136126 
z
" style="fill:#1d1d1d;"/>
   </g>
   <g id="patch_136">
    <path clip-path="url(#pbda5a92af3)" d="M 83.001643 87.400971 
L 83.612815 87.400971 
L 83.612815 82.162015 
L 83.001643 82.162015 
z
" style="fill:#1d1d1d;"/>
   </g>
   <g id="patch_137">
    <path clip-path="url(#pbda5a92af3)" d="M 83.510953 87.400971 
L 84.122125 87.400971 
L 84.122125 82.308179 
L 83.510953 82.308179 
z
" style="fill:#1d1d1d;"/>
   </g>
   <g id="patch_138">
    <path clip-path="url(#pbda5a92af3)" d="M 84.020263 87.400971 
L 84.631435 87.400971 
L 84.631435 82.595119 
L 84.020263 82.595119 
z
" style="fill:#1d1d1d;"/>
   </g>
   <g id="patch_139">
    <path clip-path="url(#pbda5a92af3)" d="M 84.529573 87.400971 
L 85.140745 87.400971 
L 85.140745 82.675316 
L 84.529573 82.675316 
z
" style="fill:#1d1d1d;"/>
   </g>
   <g id="patch_140">
    <path clip-path="url(#pbda5a92af3)" d="M 85.038883 87.400971 
L 85.650055 87.400971 
L 85.650055 82.698192 
L 85.038883 82.698192 
z
" style="fill:#1d1d1d;"/>
   </g>
   <g id="patch_141">
    <path clip-path="url(#pbda5a92af3)" d="M 85.548193 87.400971 
L 86.159365 87.400971 
L 86.159365 82.780835 
L 85.548193 82.780835 
z
" style="fill:#1d1d1d;"/>
   </g>
   <g id="patch_142">
    <path clip-path="url(#pbda5a92af3)" d="M 86.057503 87.400971 
L 86.668675 87.400971 
L 86.668675 83.032961 
L 86.057503 83.032961 
z
" style="fill:#1d1d1d;"/>
   </g>
   <g id="patch_143">
    <path clip-path="url(#pbda5a92af3)" d="M 86.566813 87.400971 
L 87.177985 87.400971 
L 87.177985 83.137173 
L 86.566813 83.137173 
z
" style="fill:#1d1d1d;"/>
   </g>
   <g id="patch_144">
    <path clip-path="url(#pbda5a92af3)" d="M 87.076123 87.400971 
L 87.687295 87.400971 
L 87.687295 83.193095 
L 87.076123 83.193095 
z
" style="fill:#1d1d1d;"/>
   </g>
   <g id="patch_145">
    <path clip-path="url(#pbda5a92af3)" d="M 87.585433 87.400971 
L 88.196605 87.400971 
L 88.196605 83.384158 
L 87.585433 83.384158 
z
" style="fill:#1d1d1d;"/>
   </g>
   <g id="patch_146">
    <path clip-path="url(#pbda5a92af3)" d="M 88.094743 87.400971 
L 88.705915 87.400971 
L 88.705915 83.60462 
L 88.094743 83.60462 
z
" style="fill:#1d1d1d;"/>
   </g>
   <g id="patch_147">
    <path clip-path="url(#pbda5a92af3)" d="M 88.604053 87.400971 
L 89.215225 87.400971 
L 89.215225 83.638997 
L 88.604053 83.638997 
z
" style="fill:#1d1d1d;"/>
   </g>
   <g id="patch_148">
    <path clip-path="url(#pbda5a92af3)" d="M 89.113363 87.400971 
L 89.724535 87.400971 
L 89.724535 84.068881 
L 89.113363 84.068881 
z
" style="fill:#1d1d1d;"/>
   </g>
   <g id="patch_149">
    <path clip-path="url(#pbda5a92af3)" d="M 89.622673 87.400971 
L 90.233844 87.400971 
L 90.233844 84.14797 
L 89.622673 84.14797 
z
" style="fill:#1d1d1d;"/>
   </g>
   <g id="patch_150">
    <path clip-path="url(#pbda5a92af3)" d="M 90.131982 87.400971 
L 90.743154 87.400971 
L 90.743154 84.167021 
L 90.131982 84.167021 
z
" style="fill:#1d1d1d;"/>
   </g>
   <g id="patch_151">
    <path clip-path="url(#pbda5a92af3)" d="M 90.641292 87.400971 
L 91.252464 87.400971 
L 91.252464 84.258824 
L 90.641292 84.258824 
z
" style="fill:#1d1d1d;"/>
   </g>
   <g id="patch_152">
    <path clip-path="url(#pbda5a92af3)" d="M 91.150602 87.400971 
L 91.761774 87.400971 
L 91.761774 84.342097 
L 91.150602 84.342097 
z
" style="fill:#1d1d1d;"/>
   </g>
   <g id="patch_153">
    <path clip-path="url(#pbda5a92af3)" d="M 91.659912 87.400971 
L 92.271084 87.400971 
L 92.271084 84.395819 
L 91.659912 84.395819 
z
" style="fill:#1d1d1d;"/>
   </g>
   <g id="patch_154">
    <path clip-path="url(#pbda5a92af3)" d="M 92.169222 87.400971 
L 92.780394 87.400971 
L 92.780394 84.399478 
L 92.169222 84.399478 
z
" style="fill:#1d1d1d;"/>
   </g>
   <g id="patch_155">
    <path clip-path="url(#pbda5a92af3)" d="M 92.678532 87.400971 
L 93.289704 87.400971 
L 93.289704 84.45144 
L 92.678532 84.45144 
z
" style="fill:#1d1d1d;"/>
   </g>
   <g id="patch_156">
    <path clip-path="url(#pbda5a92af3)" d="M 93.187842 87.400971 
L 93.799014 87.400971 
L 93.799014 84.50281 
L 93.187842 84.50281 
z
" style="fill:#1d1d1d;"/>
   </g>
   <g id="patch_157">
    <path clip-path="url(#pbda5a92af3)" d="M 93.697152 87.400971 
L 94.308324 87.400971 
L 94.308324 84.514754 
L 93.697152 84.514754 
z
" style="fill:#1d1d1d;"/>
   </g>
   <g id="patch_158">
    <path clip-path="url(#pbda5a92af3)" d="M 94.206462 87.400971 
L 94.817634 87.400971 
L 94.817634 84.54813 
L 94.206462 84.54813 
z
" style="fill:#1d1d1d;"/>
   </g>
   <g id="patch_159">
    <path clip-path="url(#pbda5a92af3)" d="M 94.715772 87.400971 
L 95.326944 87.400971 
L 95.326944 84.5715 
L 94.715772 84.5715 
z
" style="fill:#1d1d1d;"/>
   </g>
   <g id="patch_160">
    <path clip-path="url(#pbda5a92af3)" d="M 95.225082 87.400971 
L 95.836254 87.400971 
L 95.836254 84.58459 
L 95.225082 84.58459 
z
" style="fill:#1d1d1d;"/>
   </g>
   <g id="patch_161">
    <path clip-path="url(#pbda5a92af3)" d="M 95.734392 87.400971 
L 96.345564 87.400971 
L 96.345564 84.587512 
L 95.734392 84.587512 
z
" style="fill:#1d1d1d;"/>
   </g>
   <g id="patch_162">
    <path clip-path="url(#pbda5a92af3)" d="M 96.243702 87.400971 
L 96.854874 87.400971 
L 96.854874 84.620284 
L 96.243702 84.620284 
z
" style="fill:#1d1d1d;"/>
   </g>
   <g id="patch_163">
    <path clip-path="url(#pbda5a92af3)" d="M 96.753012 87.400971 
L 97.364184 87.400971 
L 97.364184 84.673917 
L 96.753012 84.673917 
z
" style="fill:#1d1d1d;"/>
   </g>
   <g id="patch_164">
    <path clip-path="url(#pbda5a92af3)" d="M 97.262322 87.400971 
L 97.873494 87.400971 
L 97.873494 84.680684 
L 97.262322 84.680684 
z
" style="fill:#1d1d1d;"/>
   </g>
   <g id="patch_165">
    <path clip-path="url(#pbda5a92af3)" d="M 97.771632 87.400971 
L 98.382804 87.400971 
L 98.382804 84.6931 
L 97.771632 84.6931 
z
" style="fill:#1d1d1d;"/>
   </g>
   <g id="patch_166">
    <path clip-path="url(#pbda5a92af3)" d="M 98.280942 87.400971 
L 98.892114 87.400971 
L 98.892114 84.722442 
L 98.280942 84.722442 
z
" style="fill:#1d1d1d;"/>
   </g>
   <g id="patch_167">
    <path clip-path="url(#pbda5a92af3)" d="M 98.790252 87.400971 
L 99.401424 87.400971 
L 99.401424 84.72936 
L 98.790252 84.72936 
z
" style="fill:#1d1d1d;"/>
   </g>
   <g id="patch_168">
    <path clip-path="url(#pbda5a92af3)" d="M 99.299562 87.400971 
L 99.910734 87.400971 
L 99.910734 84.759366 
L 99.299562 84.759366 
z
" style="fill:#1d1d1d;"/>
   </g>
   <g id="patch_169">
    <path clip-path="url(#pbda5a92af3)" d="M 99.808872 87.400971 
L 100.420044 87.400971 
L 100.420044 84.77215 
L 99.808872 84.77215 
z
" style="fill:#1d1d1d;"/>
   </g>
   <g id="patch_170">
    <path clip-path="url(#pbda5a92af3)" d="M 100.318182 87.400971 
L 100.929354 87.400971 
L 100.929354 84.935714 
L 100.318182 84.935714 
z
" style="fill:#1d1d1d;"/>
   </g>
   <g id="patch_171">
    <path clip-path="url(#pbda5a92af3)" d="M 100.827492 87.400971 
L 101.438664 87.400971 
L 101.438664 84.966991 
L 100.827492 84.966991 
z
" style="fill:#1d1d1d;"/>
   </g>
   <g id="patch_172">
    <path clip-path="url(#pbda5a92af3)" d="M 101.336802 87.400971 
L 101.947974 87.400971 
L 101.947974 85.0544 
L 101.336802 85.0544 
z
" style="fill:#1d1d1d;"/>
   </g>
   <g id="patch_173">
    <path clip-path="url(#pbda5a92af3)" d="M 101.846112 87.400971 
L 102.457284 87.400971 
L 102.457284 85.05548 
L 101.846112 85.05548 
z
" style="fill:#1d1d1d;"/>
   </g>
   <g id="patch_174">
    <path clip-path="url(#pbda5a92af3)" d="M 102.355422 87.400971 
L 102.966594 87.400971 
L 102.966594 85.063535 
L 102.355422 85.063535 
z
" style="fill:#1d1d1d;"/>
   </g>
   <g id="patch_175">
    <path clip-path="url(#pbda5a92af3)" d="M 102.864732 87.400971 
L 103.475904 87.400971 
L 103.475904 85.095251 
L 102.864732 85.095251 
z
" style="fill:#1d1d1d;"/>
   </g>
   <g id="patch_176">
    <path clip-path="url(#pbda5a92af3)" d="M 103.374042 87.400971 
L 103.985214 87.400971 
L 103.985214 85.128344 
L 103.374042 85.128344 
z
" style="fill:#1d1d1d;"/>
   </g>
   <g id="patch_177">
    <path clip-path="url(#pbda5a92af3)" d="M 103.883352 87.400971 
L 104.494524 87.400971 
L 104.494524 85.15631 
L 103.883352 85.15631 
z
" style="fill:#1d1d1d;"/>
   </g>
   <g id="patch_178">
    <path clip-path="url(#pbda5a92af3)" d="M 104.392662 87.400971 
L 105.003834 87.400971 
L 105.003834 85.158016 
L 104.392662 85.158016 
z
" style="fill:#1d1d1d;"/>
   </g>
   <g id="patch_179">
    <path clip-path="url(#pbda5a92af3)" d="M 104.901972 87.400971 
L 105.513143 87.400971 
L 105.513143 85.171633 
L 104.901972 85.171633 
z
" style="fill:#1d1d1d;"/>
   </g>
   <g id="patch_180">
    <path clip-path="url(#pbda5a92af3)" d="M 105.411281 87.400971 
L 106.022453 87.400971 
L 106.022453 85.249241 
L 105.411281 85.249241 
z
" style="fill:#1d1d1d;"/>
   </g>
   <g id="patch_181">
    <path clip-path="url(#pbda5a92af3)" d="M 105.920591 87.400971 
L 106.531763 87.400971 
L 106.531763 85.265555 
L 105.920591 85.265555 
z
" style="fill:#1d1d1d;"/>
   </g>
   <g id="patch_182">
    <path clip-path="url(#pbda5a92af3)" d="M 106.429901 87.400971 
L 107.041073 87.400971 
L 107.041073 85.333919 
L 106.429901 85.333919 
z
" style="fill:#1d1d1d;"/>
   </g>
   <g id="patch_183">
    <path clip-path="url(#pbda5a92af3)" d="M 106.939211 87.400971 
L 107.550383 87.400971 
L 107.550383 85.35607 
L 106.939211 85.35607 
z
" style="fill:#1d1d1d;"/>
   </g>
   <g id="patch_184">
    <path clip-path="url(#pbda5a92af3)" d="M 107.448521 87.400971 
L 108.059693 87.400971 
L 108.059693 85.36399 
L 107.448521 85.36399 
z
" style="fill:#1d1d1d;"/>
   </g>
   <g id="patch_185">
    <path clip-path="url(#pbda5a92af3)" d="M 107.957831 87.400971 
L 108.569003 87.400971 
L 108.569003 85.368342 
L 107.957831 85.368342 
z
" style="fill:#1d1d1d;"/>
   </g>
   <g id="patch_186">
    <path clip-path="url(#pbda5a92af3)" d="M 108.467141 87.400971 
L 109.078313 87.400971 
L 109.078313 85.442192 
L 108.467141 85.442192 
z
" style="fill:#1d1d1d;"/>
   </g>
   <g id="patch_187">
    <path clip-path="url(#pbda5a92af3)" d="M 108.976451 87.400971 
L 109.587623 87.400971 
L 109.587623 85.453423 
L 108.976451 85.453423 
z
" style="fill:#1d1d1d;"/>
   </g>
   <g id="patch_188">
    <path clip-path="url(#pbda5a92af3)" d="M 109.485761 87.400971 
L 110.096933 87.400971 
L 110.096933 85.458538 
L 109.485761 85.458538 
z
" style="fill:#1d1d1d;"/>
   </g>
   <g id="patch_189">
    <path clip-path="url(#pbda5a92af3)" d="M 109.995071 87.400971 
L 110.606243 87.400971 
L 110.606243 85.460002 
L 109.995071 85.460002 
z
" style="fill:#1d1d1d;"/>
   </g>
   <g id="patch_190">
    <path clip-path="url(#pbda5a92af3)" d="M 110.504381 87.400971 
L 111.115553 87.400971 
L 111.115553 85.481524 
L 110.504381 85.481524 
z
" style="fill:#1d1d1d;"/>
   </g>
   <g id="patch_191">
    <path clip-path="url(#pbda5a92af3)" d="M 111.013691 87.400971 
L 111.624863 87.400971 
L 111.624863 85.529965 
L 111.013691 85.529965 
z
" style="fill:#1d1d1d;"/>
   </g>
   <g id="patch_192">
    <path clip-path="url(#pbda5a92af3)" d="M 111.523001 87.400971 
L 112.134173 87.400971 
L 112.134173 85.556831 
L 111.523001 85.556831 
z
" style="fill:#1d1d1d;"/>
   </g>
   <g id="patch_193">
    <path clip-path="url(#pbda5a92af3)" d="M 112.032311 87.400971 
L 112.643483 87.400971 
L 112.643483 85.562977 
L 112.032311 85.562977 
z
" style="fill:#1d1d1d;"/>
   </g>
   <g id="patch_194">
    <path clip-path="url(#pbda5a92af3)" d="M 112.541621 87.400971 
L 113.152793 87.400971 
L 113.152793 85.564985 
L 112.541621 85.564985 
z
" style="fill:#1d1d1d;"/>
   </g>
   <g id="patch_195">
    <path clip-path="url(#pbda5a92af3)" d="M 113.050931 87.400971 
L 113.662103 87.400971 
L 113.662103 85.571397 
L 113.050931 85.571397 
z
" style="fill:#1d1d1d;"/>
   </g>
   <g id="patch_196">
    <path clip-path="url(#pbda5a92af3)" d="M 113.560241 87.400971 
L 114.171413 87.400971 
L 114.171413 85.580976 
L 113.560241 85.580976 
z
" style="fill:#1d1d1d;"/>
   </g>
   <g id="patch_197">
    <path clip-path="url(#pbda5a92af3)" d="M 114.069551 87.400971 
L 114.680723 87.400971 
L 114.680723 85.594043 
L 114.069551 85.594043 
z
" style="fill:#1d1d1d;"/>
   </g>
   <g id="patch_198">
    <path clip-path="url(#pbda5a92af3)" d="M 114.578861 87.400971 
L 115.190033 87.400971 
L 115.190033 85.624185 
L 114.578861 85.624185 
z
" style="fill:#1d1d1d;"/>
   </g>
   <g id="patch_199">
    <path clip-path="url(#pbda5a92af3)" d="M 115.088171 87.400971 
L 115.699343 87.400971 
L 115.699343 85.679412 
L 115.088171 85.679412 
z
" style="fill:#1d1d1d;"/>
   </g>
   <g id="patch_200">
    <path clip-path="url(#pbda5a92af3)" d="M 115.597481 87.400971 
L 116.208653 87.400971 
L 116.208653 85.691447 
L 115.597481 85.691447 
z
" style="fill:#1d1d1d;"/>
   </g>
   <g id="patch_201">
    <path clip-path="url(#pbda5a92af3)" d="M 116.106791 87.400971 
L 116.717963 87.400971 
L 116.717963 85.695157 
L 116.106791 85.695157 
z
" style="fill:#1d1d1d;"/>
   </g>
   <g id="patch_202">
    <path clip-path="url(#pbda5a92af3)" d="M 116.616101 87.400971 
L 117.227273 87.400971 
L 117.227273 85.745438 
L 116.616101 85.745438 
z
" style="fill:#1d1d1d;"/>
   </g>
   <g id="matplotlib.axis_1"/>
   <g id="matplotlib.axis_2"/>
   <g id="patch_203">
    <path d="M 10.7 93.86 
L 10.7 10.7 
" style="fill:none;stroke:#000000;stroke-linecap:square;stroke-linejoin:miter;stroke-width:0.8;"/>
   </g>
   <g id="patch_204">
    <path d="M 122.3 93.86 
L 122.3 10.7 
" style="fill:none;stroke:#000000;stroke-linecap:square;stroke-linejoin:miter;stroke-width:0.8;"/>
   </g>
   <g id="patch_205">
    <path d="M 10.7 93.86 
L 122.3 93.86 
" style="fill:none;stroke:#000000;stroke-linecap:square;stroke-linejoin:miter;stroke-width:0.8;"/>
   </g>
   <g id="patch_206">
    <path d="M 10.7 10.7 
L 122.3 10.7 
" style="fill:none;stroke:#000000;stroke-linecap:square;stroke-linejoin:miter;stroke-width:0.8;"/>
   </g>
  </g>
 </g>
 <defs>
  <clipPath id="pbda5a92af3">
   <rect height="83.16" width="111.6" x="10.7" y="10.7"/>
  </clipPath>
 </defs>
</svg>
