<?xml version="1.0" encoding="utf-8" standalone="no"?>
<!DOCTYPE svg PUBLIC "-//W3C//DTD SVG 1.1//EN"
  "http://www.w3.org/Graphics/SVG/1.1/DTD/svg11.dtd">
<!-- Created with matplotlib (http://matplotlib.org/) -->
<svg height="104pt" version="1.1" viewBox="0 0 133 104" width="133pt" xmlns="http://www.w3.org/2000/svg" xmlns:xlink="http://www.w3.org/1999/xlink">
 <defs>
  <style type="text/css">
*{stroke-linecap:butt;stroke-linejoin:round;}
  </style>
 </defs>
 <g id="figure_1">
  <g id="patch_1">
   <path d="M 0 104.56 
L 133 104.56 
L 133 0 
L 0 0 
z
" style="fill:#ffffff;"/>
  </g>
  <g id="axes_1">
   <g id="patch_2">
    <path d="M 10.7 93.86 
L 122.3 93.86 
L 122.3 10.7 
L 10.7 10.7 
z
" style="fill:#ffffff;"/>
   </g>
   <g id="patch_3">
    <path clip-path="url(#p7c61638890)" d="M 15.772727 87.400971 
L 16.383899 87.400971 
L 16.383899 86.612367 
L 15.772727 86.612367 
z
" style="fill:#1d1d1d;"/>
   </g>
   <g id="patch_4">
    <path clip-path="url(#p7c61638890)" d="M 16.282037 87.400971 
L 16.893209 87.400971 
L 16.893209 86.61006 
L 16.282037 86.61006 
z
" style="fill:#1d1d1d;"/>
   </g>
   <g id="patch_5">
    <path clip-path="url(#p7c61638890)" d="M 16.791347 87.400971 
L 17.402519 87.400971 
L 17.402519 86.607893 
L 16.791347 86.607893 
z
" style="fill:#1d1d1d;"/>
   </g>
   <g id="patch_6">
    <path clip-path="url(#p7c61638890)" d="M 17.300657 87.400971 
L 17.911829 87.400971 
L 17.911829 86.607725 
L 17.300657 86.607725 
z
" style="fill:#1d1d1d;"/>
   </g>
   <g id="patch_7">
    <path clip-path="url(#p7c61638890)" d="M 17.809967 87.400971 
L 18.421139 87.400971 
L 18.421139 86.605685 
L 17.809967 86.605685 
z
" style="fill:#1d1d1d;"/>
   </g>
   <g id="patch_8">
    <path clip-path="url(#p7c61638890)" d="M 18.319277 87.400971 
L 18.930449 87.400971 
L 18.930449 86.605077 
L 18.319277 86.605077 
z
" style="fill:#1d1d1d;"/>
   </g>
   <g id="patch_9">
    <path clip-path="url(#p7c61638890)" d="M 18.828587 87.400971 
L 19.439759 87.400971 
L 19.439759 86.604642 
L 18.828587 86.604642 
z
" style="fill:#1d1d1d;"/>
   </g>
   <g id="patch_10">
    <path clip-path="url(#p7c61638890)" d="M 19.337897 87.400971 
L 19.949069 87.400971 
L 19.949069 86.60376 
L 19.337897 86.60376 
z
" style="fill:#1d1d1d;"/>
   </g>
   <g id="patch_11">
    <path clip-path="url(#p7c61638890)" d="M 19.847207 87.400971 
L 20.458379 87.400971 
L 20.458379 86.603518 
L 19.847207 86.603518 
z
" style="fill:#1d1d1d;"/>
   </g>
   <g id="patch_12">
    <path clip-path="url(#p7c61638890)" d="M 20.356517 87.400971 
L 20.967689 87.400971 
L 20.967689 86.596427 
L 20.356517 86.596427 
z
" style="fill:#1d1d1d;"/>
   </g>
   <g id="patch_13">
    <path clip-path="url(#p7c61638890)" d="M 20.865827 87.400971 
L 21.476999 87.400971 
L 21.476999 86.589091 
L 20.865827 86.589091 
z
" style="fill:#1d1d1d;"/>
   </g>
   <g id="patch_14">
    <path clip-path="url(#p7c61638890)" d="M 21.375137 87.400971 
L 21.986309 87.400971 
L 21.986309 86.584888 
L 21.375137 86.584888 
z
" style="fill:#1d1d1d;"/>
   </g>
   <g id="patch_15">
    <path clip-path="url(#p7c61638890)" d="M 21.884447 87.400971 
L 22.495619 87.400971 
L 22.495619 86.583385 
L 21.884447 86.583385 
z
" style="fill:#1d1d1d;"/>
   </g>
   <g id="patch_16">
    <path clip-path="url(#p7c61638890)" d="M 22.393757 87.400971 
L 23.004929 87.400971 
L 23.004929 86.57757 
L 22.393757 86.57757 
z
" style="fill:#1d1d1d;"/>
   </g>
   <g id="patch_17">
    <path clip-path="url(#p7c61638890)" d="M 22.903067 87.400971 
L 23.514239 87.400971 
L 23.514239 86.570508 
L 22.903067 86.570508 
z
" style="fill:#1d1d1d;"/>
   </g>
   <g id="patch_18">
    <path clip-path="url(#p7c61638890)" d="M 23.412377 87.400971 
L 24.023549 87.400971 
L 24.023549 86.560176 
L 23.412377 86.560176 
z
" style="fill:#1d1d1d;"/>
   </g>
   <g id="patch_19">
    <path clip-path="url(#p7c61638890)" d="M 23.921687 87.400971 
L 24.532859 87.400971 
L 24.532859 86.554776 
L 23.921687 86.554776 
z
" style="fill:#1d1d1d;"/>
   </g>
   <g id="patch_20">
    <path clip-path="url(#p7c61638890)" d="M 24.430997 87.400971 
L 25.042169 87.400971 
L 25.042169 86.554243 
L 24.430997 86.554243 
z
" style="fill:#1d1d1d;"/>
   </g>
   <g id="patch_21">
    <path clip-path="url(#p7c61638890)" d="M 24.940307 87.400971 
L 25.551479 87.400971 
L 25.551479 86.549211 
L 24.940307 86.549211 
z
" style="fill:#1d1d1d;"/>
   </g>
   <g id="patch_22">
    <path clip-path="url(#p7c61638890)" d="M 25.449617 87.400971 
L 26.060789 87.400971 
L 26.060789 86.543166 
L 25.449617 86.543166 
z
" style="fill:#1d1d1d;"/>
   </g>
   <g id="patch_23">
    <path clip-path="url(#p7c61638890)" d="M 25.958927 87.400971 
L 26.570099 87.400971 
L 26.570099 86.543154 
L 25.958927 86.543154 
z
" style="fill:#1d1d1d;"/>
   </g>
   <g id="patch_24">
    <path clip-path="url(#p7c61638890)" d="M 26.468237 87.400971 
L 27.079409 87.400971 
L 27.079409 86.53787 
L 26.468237 86.53787 
z
" style="fill:#1d1d1d;"/>
   </g>
   <g id="patch_25">
    <path clip-path="url(#p7c61638890)" d="M 26.977547 87.400971 
L 27.588719 87.400971 
L 27.588719 86.528787 
L 26.977547 86.528787 
z
" style="fill:#1d1d1d;"/>
   </g>
   <g id="patch_26">
    <path clip-path="url(#p7c61638890)" d="M 27.486857 87.400971 
L 28.098028 87.400971 
L 28.098028 86.522144 
L 27.486857 86.522144 
z
" style="fill:#1d1d1d;"/>
   </g>
   <g id="patch_27">
    <path clip-path="url(#p7c61638890)" d="M 27.996166 87.400971 
L 28.607338 87.400971 
L 28.607338 86.517978 
L 27.996166 86.517978 
z
" style="fill:#1d1d1d;"/>
   </g>
   <g id="patch_28">
    <path clip-path="url(#p7c61638890)" d="M 28.505476 87.400971 
L 29.116648 87.400971 
L 29.116648 86.506039 
L 28.505476 86.506039 
z
" style="fill:#1d1d1d;"/>
   </g>
   <g id="patch_29">
    <path clip-path="url(#p7c61638890)" d="M 29.014786 87.400971 
L 29.625958 87.400971 
L 29.625958 86.503195 
L 29.014786 86.503195 
z
" style="fill:#1d1d1d;"/>
   </g>
   <g id="patch_30">
    <path clip-path="url(#p7c61638890)" d="M 29.524096 87.400971 
L 30.135268 87.400971 
L 30.135268 86.501525 
L 29.524096 86.501525 
z
" style="fill:#1d1d1d;"/>
   </g>
   <g id="patch_31">
    <path clip-path="url(#p7c61638890)" d="M 30.033406 87.400971 
L 30.644578 87.400971 
L 30.644578 86.499134 
L 30.033406 86.499134 
z
" style="fill:#1d1d1d;"/>
   </g>
   <g id="patch_32">
    <path clip-path="url(#p7c61638890)" d="M 30.542716 87.400971 
L 31.153888 87.400971 
L 31.153888 86.489438 
L 30.542716 86.489438 
z
" style="fill:#1d1d1d;"/>
   </g>
   <g id="patch_33">
    <path clip-path="url(#p7c61638890)" d="M 31.052026 87.400971 
L 31.663198 87.400971 
L 31.663198 86.481913 
L 31.052026 86.481913 
z
" style="fill:#1d1d1d;"/>
   </g>
   <g id="patch_34">
    <path clip-path="url(#p7c61638890)" d="M 31.561336 87.400971 
L 32.172508 87.400971 
L 32.172508 86.475915 
L 31.561336 86.475915 
z
" style="fill:#1d1d1d;"/>
   </g>
   <g id="patch_35">
    <path clip-path="url(#p7c61638890)" d="M 32.070646 87.400971 
L 32.681818 87.400971 
L 32.681818 86.469912 
L 32.070646 86.469912 
z
" style="fill:#1d1d1d;"/>
   </g>
   <g id="patch_36">
    <path clip-path="url(#p7c61638890)" d="M 32.579956 87.400971 
L 33.191128 87.400971 
L 33.191128 86.464795 
L 32.579956 86.464795 
z
" style="fill:#1d1d1d;"/>
   </g>
   <g id="patch_37">
    <path clip-path="url(#p7c61638890)" d="M 33.089266 87.400971 
L 33.700438 87.400971 
L 33.700438 86.460453 
L 33.089266 86.460453 
z
" style="fill:#1d1d1d;"/>
   </g>
   <g id="patch_38">
    <path clip-path="url(#p7c61638890)" d="M 33.598576 87.400971 
L 34.209748 87.400971 
L 34.209748 86.459951 
L 33.598576 86.459951 
z
" style="fill:#1d1d1d;"/>
   </g>
   <g id="patch_39">
    <path clip-path="url(#p7c61638890)" d="M 34.107886 87.400971 
L 34.719058 87.400971 
L 34.719058 86.456661 
L 34.107886 86.456661 
z
" style="fill:#1d1d1d;"/>
   </g>
   <g id="patch_40">
    <path clip-path="url(#p7c61638890)" d="M 34.617196 87.400971 
L 35.228368 87.400971 
L 35.228368 86.440716 
L 34.617196 86.440716 
z
" style="fill:#1d1d1d;"/>
   </g>
   <g id="patch_41">
    <path clip-path="url(#p7c61638890)" d="M 35.126506 87.400971 
L 35.737678 87.400971 
L 35.737678 86.436506 
L 35.126506 86.436506 
z
" style="fill:#1d1d1d;"/>
   </g>
   <g id="patch_42">
    <path clip-path="url(#p7c61638890)" d="M 35.635816 87.400971 
L 36.246988 87.400971 
L 36.246988 86.42564 
L 35.635816 86.42564 
z
" style="fill:#1d1d1d;"/>
   </g>
   <g id="patch_43">
    <path clip-path="url(#p7c61638890)" d="M 36.145126 87.400971 
L 36.756298 87.400971 
L 36.756298 86.419384 
L 36.145126 86.419384 
z
" style="fill:#1d1d1d;"/>
   </g>
   <g id="patch_44">
    <path clip-path="url(#p7c61638890)" d="M 36.654436 87.400971 
L 37.265608 87.400971 
L 37.265608 86.416547 
L 36.654436 86.416547 
z
" style="fill:#1d1d1d;"/>
   </g>
   <g id="patch_45">
    <path clip-path="url(#p7c61638890)" d="M 37.163746 87.400971 
L 37.774918 87.400971 
L 37.774918 86.38854 
L 37.163746 86.38854 
z
" style="fill:#1d1d1d;"/>
   </g>
   <g id="patch_46">
    <path clip-path="url(#p7c61638890)" d="M 37.673056 87.400971 
L 38.284228 87.400971 
L 38.284228 86.378358 
L 37.673056 86.378358 
z
" style="fill:#1d1d1d;"/>
   </g>
   <g id="patch_47">
    <path clip-path="url(#p7c61638890)" d="M 38.182366 87.400971 
L 38.793538 87.400971 
L 38.793538 86.350587 
L 38.182366 86.350587 
z
" style="fill:#1d1d1d;"/>
   </g>
   <g id="patch_48">
    <path clip-path="url(#p7c61638890)" d="M 38.691676 87.400971 
L 39.302848 87.400971 
L 39.302848 86.340052 
L 38.691676 86.340052 
z
" style="fill:#1d1d1d;"/>
   </g>
   <g id="patch_49">
    <path clip-path="url(#p7c61638890)" d="M 39.200986 87.400971 
L 39.812158 87.400971 
L 39.812158 86.330219 
L 39.200986 86.330219 
z
" style="fill:#1d1d1d;"/>
   </g>
   <g id="patch_50">
    <path clip-path="url(#p7c61638890)" d="M 39.710296 87.400971 
L 40.321468 87.400971 
L 40.321468 86.320788 
L 39.710296 86.320788 
z
" style="fill:#1d1d1d;"/>
   </g>
   <g id="patch_51">
    <path clip-path="url(#p7c61638890)" d="M 40.219606 87.400971 
L 40.830778 87.400971 
L 40.830778 86.312741 
L 40.219606 86.312741 
z
" style="fill:#1d1d1d;"/>
   </g>
   <g id="patch_52">
    <path clip-path="url(#p7c61638890)" d="M 40.728916 87.400971 
L 41.340088 87.400971 
L 41.340088 86.307034 
L 40.728916 86.307034 
z
" style="fill:#1d1d1d;"/>
   </g>
   <g id="patch_53">
    <path clip-path="url(#p7c61638890)" d="M 41.238226 87.400971 
L 41.849398 87.400971 
L 41.849398 86.303138 
L 41.238226 86.303138 
z
" style="fill:#1d1d1d;"/>
   </g>
   <g id="patch_54">
    <path clip-path="url(#p7c61638890)" d="M 41.747536 87.400971 
L 42.358708 87.400971 
L 42.358708 86.296555 
L 41.747536 86.296555 
z
" style="fill:#1d1d1d;"/>
   </g>
   <g id="patch_55">
    <path clip-path="url(#p7c61638890)" d="M 42.256846 87.400971 
L 42.868018 87.400971 
L 42.868018 86.289031 
L 42.256846 86.289031 
z
" style="fill:#1d1d1d;"/>
   </g>
   <g id="patch_56">
    <path clip-path="url(#p7c61638890)" d="M 42.766156 87.400971 
L 43.377327 87.400971 
L 43.377327 86.285338 
L 42.766156 86.285338 
z
" style="fill:#1d1d1d;"/>
   </g>
   <g id="patch_57">
    <path clip-path="url(#p7c61638890)" d="M 43.275465 87.400971 
L 43.886637 87.400971 
L 43.886637 86.270369 
L 43.275465 86.270369 
z
" style="fill:#1d1d1d;"/>
   </g>
   <g id="patch_58">
    <path clip-path="url(#p7c61638890)" d="M 43.784775 87.400971 
L 44.395947 87.400971 
L 44.395947 86.189214 
L 43.784775 86.189214 
z
" style="fill:#1d1d1d;"/>
   </g>
   <g id="patch_59">
    <path clip-path="url(#p7c61638890)" d="M 44.294085 87.400971 
L 44.905257 87.400971 
L 44.905257 86.180179 
L 44.294085 86.180179 
z
" style="fill:#1d1d1d;"/>
   </g>
   <g id="patch_60">
    <path clip-path="url(#p7c61638890)" d="M 44.803395 87.400971 
L 45.414567 87.400971 
L 45.414567 86.134545 
L 44.803395 86.134545 
z
" style="fill:#1d1d1d;"/>
   </g>
   <g id="patch_61">
    <path clip-path="url(#p7c61638890)" d="M 45.312705 87.400971 
L 45.923877 87.400971 
L 45.923877 86.133496 
L 45.312705 86.133496 
z
" style="fill:#1d1d1d;"/>
   </g>
   <g id="patch_62">
    <path clip-path="url(#p7c61638890)" d="M 45.822015 87.400971 
L 46.433187 87.400971 
L 46.433187 86.128011 
L 45.822015 86.128011 
z
" style="fill:#1d1d1d;"/>
   </g>
   <g id="patch_63">
    <path clip-path="url(#p7c61638890)" d="M 46.331325 87.400971 
L 46.942497 87.400971 
L 46.942497 86.109622 
L 46.331325 86.109622 
z
" style="fill:#1d1d1d;"/>
   </g>
   <g id="patch_64">
    <path clip-path="url(#p7c61638890)" d="M 46.840635 87.400971 
L 47.451807 87.400971 
L 47.451807 86.09139 
L 46.840635 86.09139 
z
" style="fill:#1d1d1d;"/>
   </g>
   <g id="patch_65">
    <path clip-path="url(#p7c61638890)" d="M 47.349945 87.400971 
L 47.961117 87.400971 
L 47.961117 86.063865 
L 47.349945 86.063865 
z
" style="fill:#1d1d1d;"/>
   </g>
   <g id="patch_66">
    <path clip-path="url(#p7c61638890)" d="M 47.859255 87.400971 
L 48.470427 87.400971 
L 48.470427 85.998517 
L 47.859255 85.998517 
z
" style="fill:#1d1d1d;"/>
   </g>
   <g id="patch_67">
    <path clip-path="url(#p7c61638890)" d="M 48.368565 87.400971 
L 48.979737 87.400971 
L 48.979737 85.996888 
L 48.368565 85.996888 
z
" style="fill:#1d1d1d;"/>
   </g>
   <g id="patch_68">
    <path clip-path="url(#p7c61638890)" d="M 48.877875 87.400971 
L 49.489047 87.400971 
L 49.489047 85.949689 
L 48.877875 85.949689 
z
" style="fill:#1d1d1d;"/>
   </g>
   <g id="patch_69">
    <path clip-path="url(#p7c61638890)" d="M 49.387185 87.400971 
L 49.998357 87.400971 
L 49.998357 85.927306 
L 49.387185 85.927306 
z
" style="fill:#1d1d1d;"/>
   </g>
   <g id="patch_70">
    <path clip-path="url(#p7c61638890)" d="M 49.896495 87.400971 
L 50.507667 87.400971 
L 50.507667 85.872976 
L 49.896495 85.872976 
z
" style="fill:#1d1d1d;"/>
   </g>
   <g id="patch_71">
    <path clip-path="url(#p7c61638890)" d="M 50.405805 87.400971 
L 51.016977 87.400971 
L 51.016977 85.852407 
L 50.405805 85.852407 
z
" style="fill:#1d1d1d;"/>
   </g>
   <g id="patch_72">
    <path clip-path="url(#p7c61638890)" d="M 50.915115 87.400971 
L 51.526287 87.400971 
L 51.526287 85.796472 
L 50.915115 85.796472 
z
" style="fill:#1d1d1d;"/>
   </g>
   <g id="patch_73">
    <path clip-path="url(#p7c61638890)" d="M 51.424425 87.400971 
L 52.035597 87.400971 
L 52.035597 85.657793 
L 51.424425 85.657793 
z
" style="fill:#1d1d1d;"/>
   </g>
   <g id="patch_74">
    <path clip-path="url(#p7c61638890)" d="M 51.933735 87.400971 
L 52.544907 87.400971 
L 52.544907 85.570222 
L 51.933735 85.570222 
z
" style="fill:#1d1d1d;"/>
   </g>
   <g id="patch_75">
    <path clip-path="url(#p7c61638890)" d="M 52.443045 87.400971 
L 53.054217 87.400971 
L 53.054217 85.522708 
L 52.443045 85.522708 
z
" style="fill:#1d1d1d;"/>
   </g>
   <g id="patch_76">
    <path clip-path="url(#p7c61638890)" d="M 52.952355 87.400971 
L 53.563527 87.400971 
L 53.563527 85.449216 
L 52.952355 85.449216 
z
" style="fill:#1d1d1d;"/>
   </g>
   <g id="patch_77">
    <path clip-path="url(#p7c61638890)" d="M 53.461665 87.400971 
L 54.072837 87.400971 
L 54.072837 85.411673 
L 53.461665 85.411673 
z
" style="fill:#1d1d1d;"/>
   </g>
   <g id="patch_78">
    <path clip-path="url(#p7c61638890)" d="M 53.970975 87.400971 
L 54.582147 87.400971 
L 54.582147 85.39929 
L 53.970975 85.39929 
z
" style="fill:#1d1d1d;"/>
   </g>
   <g id="patch_79">
    <path clip-path="url(#p7c61638890)" d="M 54.480285 87.400971 
L 55.091457 87.400971 
L 55.091457 85.318705 
L 54.480285 85.318705 
z
" style="fill:#1d1d1d;"/>
   </g>
   <g id="patch_80">
    <path clip-path="url(#p7c61638890)" d="M 54.989595 87.400971 
L 55.600767 87.400971 
L 55.600767 85.193323 
L 54.989595 85.193323 
z
" style="fill:#1d1d1d;"/>
   </g>
   <g id="patch_81">
    <path clip-path="url(#p7c61638890)" d="M 55.498905 87.400971 
L 56.110077 87.400971 
L 56.110077 85.078679 
L 55.498905 85.078679 
z
" style="fill:#1d1d1d;"/>
   </g>
   <g id="patch_82">
    <path clip-path="url(#p7c61638890)" d="M 56.008215 87.400971 
L 56.619387 87.400971 
L 56.619387 84.989571 
L 56.008215 84.989571 
z
" style="fill:#1d1d1d;"/>
   </g>
   <g id="patch_83">
    <path clip-path="url(#p7c61638890)" d="M 56.517525 87.400971 
L 57.128697 87.400971 
L 57.128697 84.894794 
L 56.517525 84.894794 
z
" style="fill:#1d1d1d;"/>
   </g>
   <g id="patch_84">
    <path clip-path="url(#p7c61638890)" d="M 57.026835 87.400971 
L 57.638007 87.400971 
L 57.638007 84.801666 
L 57.026835 84.801666 
z
" style="fill:#1d1d1d;"/>
   </g>
   <g id="patch_85">
    <path clip-path="url(#p7c61638890)" d="M 57.536145 87.400971 
L 58.147317 87.400971 
L 58.147317 84.727018 
L 57.536145 84.727018 
z
" style="fill:#1d1d1d;"/>
   </g>
   <g id="patch_86">
    <path clip-path="url(#p7c61638890)" d="M 58.045455 87.400971 
L 58.656627 87.400971 
L 58.656627 84.668913 
L 58.045455 84.668913 
z
" style="fill:#1d1d1d;"/>
   </g>
   <g id="patch_87">
    <path clip-path="url(#p7c61638890)" d="M 58.554765 87.400971 
L 59.165936 87.400971 
L 59.165936 84.550667 
L 58.554765 84.550667 
z
" style="fill:#1d1d1d;"/>
   </g>
   <g id="patch_88">
    <path clip-path="url(#p7c61638890)" d="M 59.064074 87.400971 
L 59.675246 87.400971 
L 59.675246 84.479396 
L 59.064074 84.479396 
z
" style="fill:#1d1d1d;"/>
   </g>
   <g id="patch_89">
    <path clip-path="url(#p7c61638890)" d="M 59.573384 87.400971 
L 60.184556 87.400971 
L 60.184556 84.428434 
L 59.573384 84.428434 
z
" style="fill:#1d1d1d;"/>
   </g>
   <g id="patch_90">
    <path clip-path="url(#p7c61638890)" d="M 60.082694 87.400971 
L 60.693866 87.400971 
L 60.693866 84.340523 
L 60.082694 84.340523 
z
" style="fill:#1d1d1d;"/>
   </g>
   <g id="patch_91">
    <path clip-path="url(#p7c61638890)" d="M 60.592004 87.400971 
L 61.203176 87.400971 
L 61.203176 84.202457 
L 60.592004 84.202457 
z
" style="fill:#1d1d1d;"/>
   </g>
   <g id="patch_92">
    <path clip-path="url(#p7c61638890)" d="M 61.101314 87.400971 
L 61.712486 87.400971 
L 61.712486 83.868221 
L 61.101314 83.868221 
z
" style="fill:#1d1d1d;"/>
   </g>
   <g id="patch_93">
    <path clip-path="url(#p7c61638890)" d="M 61.610624 87.400971 
L 62.221796 87.400971 
L 62.221796 83.832246 
L 61.610624 83.832246 
z
" style="fill:#1d1d1d;"/>
   </g>
   <g id="patch_94">
    <path clip-path="url(#p7c61638890)" d="M 62.119934 87.400971 
L 62.731106 87.400971 
L 62.731106 82.957628 
L 62.119934 82.957628 
z
" style="fill:#1d1d1d;"/>
   </g>
   <g id="patch_95">
    <path clip-path="url(#p7c61638890)" d="M 62.629244 87.400971 
L 63.240416 87.400971 
L 63.240416 82.677891 
L 62.629244 82.677891 
z
" style="fill:#1d1d1d;"/>
   </g>
   <g id="patch_96">
    <path clip-path="url(#p7c61638890)" d="M 63.138554 87.400971 
L 63.749726 87.400971 
L 63.749726 82.253537 
L 63.138554 82.253537 
z
" style="fill:#1d1d1d;"/>
   </g>
   <g id="patch_97">
    <path clip-path="url(#p7c61638890)" d="M 63.647864 87.400971 
L 64.259036 87.400971 
L 64.259036 82.195466 
L 63.647864 82.195466 
z
" style="fill:#1d1d1d;"/>
   </g>
   <g id="patch_98">
    <path clip-path="url(#p7c61638890)" d="M 64.157174 87.400971 
L 64.768346 87.400971 
L 64.768346 81.95697 
L 64.157174 81.95697 
z
" style="fill:#1d1d1d;"/>
   </g>
   <g id="patch_99">
    <path clip-path="url(#p7c61638890)" d="M 64.666484 87.400971 
L 65.277656 87.400971 
L 65.277656 81.70453 
L 64.666484 81.70453 
z
" style="fill:#1d1d1d;"/>
   </g>
   <g id="patch_100">
    <path clip-path="url(#p7c61638890)" d="M 65.175794 87.400971 
L 65.786966 87.400971 
L 65.786966 77.806506 
L 65.175794 77.806506 
z
" style="fill:#1d1d1d;"/>
   </g>
   <g id="patch_101">
    <path clip-path="url(#p7c61638890)" d="M 65.685104 87.400971 
L 66.296276 87.400971 
L 66.296276 77.535157 
L 65.685104 77.535157 
z
" style="fill:#1d1d1d;"/>
   </g>
   <g id="patch_102">
    <path clip-path="url(#p7c61638890)" d="M 66.194414 87.400971 
L 66.805586 87.400971 
L 66.805586 64.12536 
L 66.194414 64.12536 
z
" style="fill:#1d1d1d;"/>
   </g>
   <g id="patch_103">
    <path clip-path="url(#p7c61638890)" d="M 66.194414 87.400971 
L 66.805586 87.400971 
L 66.805586 64.12536 
L 66.194414 64.12536 
z
" style="fill:#1d1d1d;"/>
   </g>
   <g id="patch_104">
    <path clip-path="url(#p7c61638890)" d="M 66.703724 87.400971 
L 67.314896 87.400971 
L 67.314896 27.303029 
L 66.703724 27.303029 
z
" style="fill:#1d1d1d;"/>
   </g>
   <g id="patch_105">
    <path clip-path="url(#p7c61638890)" d="M 67.213034 87.400971 
L 67.824206 87.400971 
L 67.824206 53.119277 
L 67.213034 53.119277 
z
" style="fill:#1d1d1d;"/>
   </g>
   <g id="patch_106">
    <path clip-path="url(#p7c61638890)" d="M 67.722344 87.400971 
L 68.333516 87.400971 
L 68.333516 54.643579 
L 67.722344 54.643579 
z
" style="fill:#1d1d1d;"/>
   </g>
   <g id="patch_107">
    <path clip-path="url(#p7c61638890)" d="M 68.231654 87.400971 
L 68.842826 87.400971 
L 68.842826 65.158738 
L 68.231654 65.158738 
z
" style="fill:#1d1d1d;"/>
   </g>
   <g id="patch_108">
    <path clip-path="url(#p7c61638890)" d="M 68.740964 87.400971 
L 69.352136 87.400971 
L 69.352136 71.222256 
L 68.740964 71.222256 
z
" style="fill:#1d1d1d;"/>
   </g>
   <g id="patch_109">
    <path clip-path="url(#p7c61638890)" d="M 69.250274 87.400971 
L 69.861446 87.400971 
L 69.861446 73.937545 
L 69.250274 73.937545 
z
" style="fill:#1d1d1d;"/>
   </g>
   <g id="patch_110">
    <path clip-path="url(#p7c61638890)" d="M 69.759584 87.400971 
L 70.370756 87.400971 
L 70.370756 74.116891 
L 69.759584 74.116891 
z
" style="fill:#1d1d1d;"/>
   </g>
   <g id="patch_111">
    <path clip-path="url(#p7c61638890)" d="M 70.268894 87.400971 
L 70.880066 87.400971 
L 70.880066 74.310633 
L 70.268894 74.310633 
z
" style="fill:#1d1d1d;"/>
   </g>
   <g id="patch_112">
    <path clip-path="url(#p7c61638890)" d="M 70.778204 87.400971 
L 71.389376 87.400971 
L 71.389376 75.203185 
L 70.778204 75.203185 
z
" style="fill:#1d1d1d;"/>
   </g>
   <g id="patch_113">
    <path clip-path="url(#p7c61638890)" d="M 71.287514 87.400971 
L 71.898686 87.400971 
L 71.898686 78.417779 
L 71.287514 78.417779 
z
" style="fill:#1d1d1d;"/>
   </g>
   <g id="patch_114">
    <path clip-path="url(#p7c61638890)" d="M 71.796824 87.400971 
L 72.407996 87.400971 
L 72.407996 78.829774 
L 71.796824 78.829774 
z
" style="fill:#1d1d1d;"/>
   </g>
   <g id="patch_115">
    <path clip-path="url(#p7c61638890)" d="M 72.306134 87.400971 
L 72.917306 87.400971 
L 72.917306 79.218575 
L 72.306134 79.218575 
z
" style="fill:#1d1d1d;"/>
   </g>
   <g id="patch_116">
    <path clip-path="url(#p7c61638890)" d="M 72.815444 87.400971 
L 73.426616 87.400971 
L 73.426616 80.06857 
L 72.815444 80.06857 
z
" style="fill:#1d1d1d;"/>
   </g>
   <g id="patch_117">
    <path clip-path="url(#p7c61638890)" d="M 73.324754 87.400971 
L 73.935926 87.400971 
L 73.935926 80.158063 
L 73.324754 80.158063 
z
" style="fill:#1d1d1d;"/>
   </g>
   <g id="patch_118">
    <path clip-path="url(#p7c61638890)" d="M 73.834064 87.400971 
L 74.445235 87.400971 
L 74.445235 80.433437 
L 73.834064 80.433437 
z
" style="fill:#1d1d1d;"/>
   </g>
   <g id="patch_119">
    <path clip-path="url(#p7c61638890)" d="M 74.343373 87.400971 
L 74.954545 87.400971 
L 74.954545 80.583772 
L 74.343373 80.583772 
z
" style="fill:#1d1d1d;"/>
   </g>
   <g id="patch_120">
    <path clip-path="url(#p7c61638890)" d="M 74.852683 87.400971 
L 75.463855 87.400971 
L 75.463855 81.439402 
L 74.852683 81.439402 
z
" style="fill:#1d1d1d;"/>
   </g>
   <g id="patch_121">
    <path clip-path="url(#p7c61638890)" d="M 75.361993 87.400971 
L 75.973165 87.400971 
L 75.973165 81.665478 
L 75.361993 81.665478 
z
" style="fill:#1d1d1d;"/>
   </g>
   <g id="patch_122">
    <path clip-path="url(#p7c61638890)" d="M 75.871303 87.400971 
L 76.482475 87.400971 
L 76.482475 82.730685 
L 75.871303 82.730685 
z
" style="fill:#1d1d1d;"/>
   </g>
   <g id="patch_123">
    <path clip-path="url(#p7c61638890)" d="M 76.380613 87.400971 
L 76.991785 87.400971 
L 76.991785 83.684997 
L 76.380613 83.684997 
z
" style="fill:#1d1d1d;"/>
   </g>
   <g id="patch_124">
    <path clip-path="url(#p7c61638890)" d="M 76.889923 87.400971 
L 77.501095 87.400971 
L 77.501095 83.726888 
L 76.889923 83.726888 
z
" style="fill:#1d1d1d;"/>
   </g>
   <g id="patch_125">
    <path clip-path="url(#p7c61638890)" d="M 77.399233 87.400971 
L 78.010405 87.400971 
L 78.010405 83.9815 
L 77.399233 83.9815 
z
" style="fill:#1d1d1d;"/>
   </g>
   <g id="patch_126">
    <path clip-path="url(#p7c61638890)" d="M 77.908543 87.400971 
L 78.519715 87.400971 
L 78.519715 84.680869 
L 77.908543 84.680869 
z
" style="fill:#1d1d1d;"/>
   </g>
   <g id="patch_127">
    <path clip-path="url(#p7c61638890)" d="M 78.417853 87.400971 
L 79.029025 87.400971 
L 79.029025 84.712577 
L 78.417853 84.712577 
z
" style="fill:#1d1d1d;"/>
   </g>
   <g id="patch_128">
    <path clip-path="url(#p7c61638890)" d="M 78.927163 87.400971 
L 79.538335 87.400971 
L 79.538335 84.826227 
L 78.927163 84.826227 
z
" style="fill:#1d1d1d;"/>
   </g>
   <g id="patch_129">
    <path clip-path="url(#p7c61638890)" d="M 79.436473 87.400971 
L 80.047645 87.400971 
L 80.047645 85.116294 
L 79.436473 85.116294 
z
" style="fill:#1d1d1d;"/>
   </g>
   <g id="patch_130">
    <path clip-path="url(#p7c61638890)" d="M 79.945783 87.400971 
L 80.556955 87.400971 
L 80.556955 85.208541 
L 79.945783 85.208541 
z
" style="fill:#1d1d1d;"/>
   </g>
   <g id="patch_131">
    <path clip-path="url(#p7c61638890)" d="M 80.455093 87.400971 
L 81.066265 87.400971 
L 81.066265 85.267622 
L 80.455093 85.267622 
z
" style="fill:#1d1d1d;"/>
   </g>
   <g id="patch_132">
    <path clip-path="url(#p7c61638890)" d="M 80.964403 87.400971 
L 81.575575 87.400971 
L 81.575575 85.469599 
L 80.964403 85.469599 
z
" style="fill:#1d1d1d;"/>
   </g>
   <g id="patch_133">
    <path clip-path="url(#p7c61638890)" d="M 81.473713 87.400971 
L 82.084885 87.400971 
L 82.084885 85.5405 
L 81.473713 85.5405 
z
" style="fill:#1d1d1d;"/>
   </g>
   <g id="patch_134">
    <path clip-path="url(#p7c61638890)" d="M 81.983023 87.400971 
L 82.594195 87.400971 
L 82.594195 85.540816 
L 81.983023 85.540816 
z
" style="fill:#1d1d1d;"/>
   </g>
   <g id="patch_135">
    <path clip-path="url(#p7c61638890)" d="M 82.492333 87.400971 
L 83.103505 87.400971 
L 83.103505 85.582149 
L 82.492333 85.582149 
z
" style="fill:#1d1d1d;"/>
   </g>
   <g id="patch_136">
    <path clip-path="url(#p7c61638890)" d="M 83.001643 87.400971 
L 83.612815 87.400971 
L 83.612815 85.615577 
L 83.001643 85.615577 
z
" style="fill:#1d1d1d;"/>
   </g>
   <g id="patch_137">
    <path clip-path="url(#p7c61638890)" d="M 83.510953 87.400971 
L 84.122125 87.400971 
L 84.122125 85.628462 
L 83.510953 85.628462 
z
" style="fill:#1d1d1d;"/>
   </g>
   <g id="patch_138">
    <path clip-path="url(#p7c61638890)" d="M 84.020263 87.400971 
L 84.631435 87.400971 
L 84.631435 85.660969 
L 84.020263 85.660969 
z
" style="fill:#1d1d1d;"/>
   </g>
   <g id="patch_139">
    <path clip-path="url(#p7c61638890)" d="M 84.529573 87.400971 
L 85.140745 87.400971 
L 85.140745 85.689977 
L 84.529573 85.689977 
z
" style="fill:#1d1d1d;"/>
   </g>
   <g id="patch_140">
    <path clip-path="url(#p7c61638890)" d="M 85.038883 87.400971 
L 85.650055 87.400971 
L 85.650055 85.695782 
L 85.038883 85.695782 
z
" style="fill:#1d1d1d;"/>
   </g>
   <g id="patch_141">
    <path clip-path="url(#p7c61638890)" d="M 85.548193 87.400971 
L 86.159365 87.400971 
L 86.159365 85.808624 
L 85.548193 85.808624 
z
" style="fill:#1d1d1d;"/>
   </g>
   <g id="patch_142">
    <path clip-path="url(#p7c61638890)" d="M 86.057503 87.400971 
L 86.668675 87.400971 
L 86.668675 85.83775 
L 86.057503 85.83775 
z
" style="fill:#1d1d1d;"/>
   </g>
   <g id="patch_143">
    <path clip-path="url(#p7c61638890)" d="M 86.566813 87.400971 
L 87.177985 87.400971 
L 87.177985 85.84581 
L 86.566813 85.84581 
z
" style="fill:#1d1d1d;"/>
   </g>
   <g id="patch_144">
    <path clip-path="url(#p7c61638890)" d="M 87.076123 87.400971 
L 87.687295 87.400971 
L 87.687295 85.87092 
L 87.076123 85.87092 
z
" style="fill:#1d1d1d;"/>
   </g>
   <g id="patch_145">
    <path clip-path="url(#p7c61638890)" d="M 87.585433 87.400971 
L 88.196605 87.400971 
L 88.196605 85.909047 
L 87.585433 85.909047 
z
" style="fill:#1d1d1d;"/>
   </g>
   <g id="patch_146">
    <path clip-path="url(#p7c61638890)" d="M 88.094743 87.400971 
L 88.705915 87.400971 
L 88.705915 85.923284 
L 88.094743 85.923284 
z
" style="fill:#1d1d1d;"/>
   </g>
   <g id="patch_147">
    <path clip-path="url(#p7c61638890)" d="M 88.604053 87.400971 
L 89.215225 87.400971 
L 89.215225 85.933013 
L 88.604053 85.933013 
z
" style="fill:#1d1d1d;"/>
   </g>
   <g id="patch_148">
    <path clip-path="url(#p7c61638890)" d="M 89.113363 87.400971 
L 89.724535 87.400971 
L 89.724535 85.979315 
L 89.113363 85.979315 
z
" style="fill:#1d1d1d;"/>
   </g>
   <g id="patch_149">
    <path clip-path="url(#p7c61638890)" d="M 89.622673 87.400971 
L 90.233844 87.400971 
L 90.233844 85.9845 
L 89.622673 85.9845 
z
" style="fill:#1d1d1d;"/>
   </g>
   <g id="patch_150">
    <path clip-path="url(#p7c61638890)" d="M 90.131982 87.400971 
L 90.743154 87.400971 
L 90.743154 85.986599 
L 90.131982 85.986599 
z
" style="fill:#1d1d1d;"/>
   </g>
   <g id="patch_151">
    <path clip-path="url(#p7c61638890)" d="M 90.641292 87.400971 
L 91.252464 87.400971 
L 91.252464 85.99907 
L 90.641292 85.99907 
z
" style="fill:#1d1d1d;"/>
   </g>
   <g id="patch_152">
    <path clip-path="url(#p7c61638890)" d="M 91.150602 87.400971 
L 91.761774 87.400971 
L 91.761774 86.011488 
L 91.150602 86.011488 
z
" style="fill:#1d1d1d;"/>
   </g>
   <g id="patch_153">
    <path clip-path="url(#p7c61638890)" d="M 91.659912 87.400971 
L 92.271084 87.400971 
L 92.271084 86.020067 
L 91.659912 86.020067 
z
" style="fill:#1d1d1d;"/>
   </g>
   <g id="patch_154">
    <path clip-path="url(#p7c61638890)" d="M 92.169222 87.400971 
L 92.780394 87.400971 
L 92.780394 86.065394 
L 92.169222 86.065394 
z
" style="fill:#1d1d1d;"/>
   </g>
   <g id="patch_155">
    <path clip-path="url(#p7c61638890)" d="M 92.678532 87.400971 
L 93.289704 87.400971 
L 93.289704 86.066336 
L 92.678532 86.066336 
z
" style="fill:#1d1d1d;"/>
   </g>
   <g id="patch_156">
    <path clip-path="url(#p7c61638890)" d="M 93.187842 87.400971 
L 93.799014 87.400971 
L 93.799014 86.120158 
L 93.187842 86.120158 
z
" style="fill:#1d1d1d;"/>
   </g>
   <g id="patch_157">
    <path clip-path="url(#p7c61638890)" d="M 93.697152 87.400971 
L 94.308324 87.400971 
L 94.308324 86.127451 
L 93.697152 86.127451 
z
" style="fill:#1d1d1d;"/>
   </g>
   <g id="patch_158">
    <path clip-path="url(#p7c61638890)" d="M 94.206462 87.400971 
L 94.817634 87.400971 
L 94.817634 86.131565 
L 94.206462 86.131565 
z
" style="fill:#1d1d1d;"/>
   </g>
   <g id="patch_159">
    <path clip-path="url(#p7c61638890)" d="M 94.715772 87.400971 
L 95.326944 87.400971 
L 95.326944 86.149236 
L 94.715772 86.149236 
z
" style="fill:#1d1d1d;"/>
   </g>
   <g id="patch_160">
    <path clip-path="url(#p7c61638890)" d="M 95.225082 87.400971 
L 95.836254 87.400971 
L 95.836254 86.152415 
L 95.225082 86.152415 
z
" style="fill:#1d1d1d;"/>
   </g>
   <g id="patch_161">
    <path clip-path="url(#p7c61638890)" d="M 95.734392 87.400971 
L 96.345564 87.400971 
L 96.345564 86.153961 
L 95.734392 86.153961 
z
" style="fill:#1d1d1d;"/>
   </g>
   <g id="patch_162">
    <path clip-path="url(#p7c61638890)" d="M 96.243702 87.400971 
L 96.854874 87.400971 
L 96.854874 86.156514 
L 96.243702 86.156514 
z
" style="fill:#1d1d1d;"/>
   </g>
   <g id="patch_163">
    <path clip-path="url(#p7c61638890)" d="M 96.753012 87.400971 
L 97.364184 87.400971 
L 97.364184 86.174229 
L 96.753012 86.174229 
z
" style="fill:#1d1d1d;"/>
   </g>
   <g id="patch_164">
    <path clip-path="url(#p7c61638890)" d="M 97.262322 87.400971 
L 97.873494 87.400971 
L 97.873494 86.219085 
L 97.262322 86.219085 
z
" style="fill:#1d1d1d;"/>
   </g>
   <g id="patch_165">
    <path clip-path="url(#p7c61638890)" d="M 97.771632 87.400971 
L 98.382804 87.400971 
L 98.382804 86.227489 
L 97.771632 86.227489 
z
" style="fill:#1d1d1d;"/>
   </g>
   <g id="patch_166">
    <path clip-path="url(#p7c61638890)" d="M 98.280942 87.400971 
L 98.892114 87.400971 
L 98.892114 86.244462 
L 98.280942 86.244462 
z
" style="fill:#1d1d1d;"/>
   </g>
   <g id="patch_167">
    <path clip-path="url(#p7c61638890)" d="M 98.790252 87.400971 
L 99.401424 87.400971 
L 99.401424 86.248783 
L 98.790252 86.248783 
z
" style="fill:#1d1d1d;"/>
   </g>
   <g id="patch_168">
    <path clip-path="url(#p7c61638890)" d="M 99.299562 87.400971 
L 99.910734 87.400971 
L 99.910734 86.259491 
L 99.299562 86.259491 
z
" style="fill:#1d1d1d;"/>
   </g>
   <g id="patch_169">
    <path clip-path="url(#p7c61638890)" d="M 99.808872 87.400971 
L 100.420044 87.400971 
L 100.420044 86.264466 
L 99.808872 86.264466 
z
" style="fill:#1d1d1d;"/>
   </g>
   <g id="patch_170">
    <path clip-path="url(#p7c61638890)" d="M 100.318182 87.400971 
L 100.929354 87.400971 
L 100.929354 86.280902 
L 100.318182 86.280902 
z
" style="fill:#1d1d1d;"/>
   </g>
   <g id="patch_171">
    <path clip-path="url(#p7c61638890)" d="M 100.827492 87.400971 
L 101.438664 87.400971 
L 101.438664 86.285667 
L 100.827492 86.285667 
z
" style="fill:#1d1d1d;"/>
   </g>
   <g id="patch_172">
    <path clip-path="url(#p7c61638890)" d="M 101.336802 87.400971 
L 101.947974 87.400971 
L 101.947974 86.296453 
L 101.336802 86.296453 
z
" style="fill:#1d1d1d;"/>
   </g>
   <g id="patch_173">
    <path clip-path="url(#p7c61638890)" d="M 101.846112 87.400971 
L 102.457284 87.400971 
L 102.457284 86.306897 
L 101.846112 86.306897 
z
" style="fill:#1d1d1d;"/>
   </g>
   <g id="patch_174">
    <path clip-path="url(#p7c61638890)" d="M 102.355422 87.400971 
L 102.966594 87.400971 
L 102.966594 86.324299 
L 102.355422 86.324299 
z
" style="fill:#1d1d1d;"/>
   </g>
   <g id="patch_175">
    <path clip-path="url(#p7c61638890)" d="M 102.864732 87.400971 
L 103.475904 87.400971 
L 103.475904 86.373925 
L 102.864732 86.373925 
z
" style="fill:#1d1d1d;"/>
   </g>
   <g id="patch_176">
    <path clip-path="url(#p7c61638890)" d="M 103.374042 87.400971 
L 103.985214 87.400971 
L 103.985214 86.378931 
L 103.374042 86.378931 
z
" style="fill:#1d1d1d;"/>
   </g>
   <g id="patch_177">
    <path clip-path="url(#p7c61638890)" d="M 103.883352 87.400971 
L 104.494524 87.400971 
L 104.494524 86.382121 
L 103.883352 86.382121 
z
" style="fill:#1d1d1d;"/>
   </g>
   <g id="patch_178">
    <path clip-path="url(#p7c61638890)" d="M 104.392662 87.400971 
L 105.003834 87.400971 
L 105.003834 86.390986 
L 104.392662 86.390986 
z
" style="fill:#1d1d1d;"/>
   </g>
   <g id="patch_179">
    <path clip-path="url(#p7c61638890)" d="M 104.901972 87.400971 
L 105.513143 87.400971 
L 105.513143 86.397246 
L 104.901972 86.397246 
z
" style="fill:#1d1d1d;"/>
   </g>
   <g id="patch_180">
    <path clip-path="url(#p7c61638890)" d="M 105.411281 87.400971 
L 106.022453 87.400971 
L 106.022453 86.401399 
L 105.411281 86.401399 
z
" style="fill:#1d1d1d;"/>
   </g>
   <g id="patch_181">
    <path clip-path="url(#p7c61638890)" d="M 105.920591 87.400971 
L 106.531763 87.400971 
L 106.531763 86.441891 
L 105.920591 86.441891 
z
" style="fill:#1d1d1d;"/>
   </g>
   <g id="patch_182">
    <path clip-path="url(#p7c61638890)" d="M 106.429901 87.400971 
L 107.041073 87.400971 
L 107.041073 86.458167 
L 106.429901 86.458167 
z
" style="fill:#1d1d1d;"/>
   </g>
   <g id="patch_183">
    <path clip-path="url(#p7c61638890)" d="M 106.939211 87.400971 
L 107.550383 87.400971 
L 107.550383 86.461772 
L 106.939211 86.461772 
z
" style="fill:#1d1d1d;"/>
   </g>
   <g id="patch_184">
    <path clip-path="url(#p7c61638890)" d="M 107.448521 87.400971 
L 108.059693 87.400971 
L 108.059693 86.490118 
L 107.448521 86.490118 
z
" style="fill:#1d1d1d;"/>
   </g>
   <g id="patch_185">
    <path clip-path="url(#p7c61638890)" d="M 107.957831 87.400971 
L 108.569003 87.400971 
L 108.569003 86.492146 
L 107.957831 86.492146 
z
" style="fill:#1d1d1d;"/>
   </g>
   <g id="patch_186">
    <path clip-path="url(#p7c61638890)" d="M 108.467141 87.400971 
L 109.078313 87.400971 
L 109.078313 86.505064 
L 108.467141 86.505064 
z
" style="fill:#1d1d1d;"/>
   </g>
   <g id="patch_187">
    <path clip-path="url(#p7c61638890)" d="M 108.976451 87.400971 
L 109.587623 87.400971 
L 109.587623 86.50623 
L 108.976451 86.50623 
z
" style="fill:#1d1d1d;"/>
   </g>
   <g id="patch_188">
    <path clip-path="url(#p7c61638890)" d="M 109.485761 87.400971 
L 110.096933 87.400971 
L 110.096933 86.513231 
L 109.485761 86.513231 
z
" style="fill:#1d1d1d;"/>
   </g>
   <g id="patch_189">
    <path clip-path="url(#p7c61638890)" d="M 109.995071 87.400971 
L 110.606243 87.400971 
L 110.606243 86.533259 
L 109.995071 86.533259 
z
" style="fill:#1d1d1d;"/>
   </g>
   <g id="patch_190">
    <path clip-path="url(#p7c61638890)" d="M 110.504381 87.400971 
L 111.115553 87.400971 
L 111.115553 86.542222 
L 110.504381 86.542222 
z
" style="fill:#1d1d1d;"/>
   </g>
   <g id="patch_191">
    <path clip-path="url(#p7c61638890)" d="M 111.013691 87.400971 
L 111.624863 87.400971 
L 111.624863 86.545225 
L 111.013691 86.545225 
z
" style="fill:#1d1d1d;"/>
   </g>
   <g id="patch_192">
    <path clip-path="url(#p7c61638890)" d="M 111.523001 87.400971 
L 112.134173 87.400971 
L 112.134173 86.546774 
L 111.523001 86.546774 
z
" style="fill:#1d1d1d;"/>
   </g>
   <g id="patch_193">
    <path clip-path="url(#p7c61638890)" d="M 112.032311 87.400971 
L 112.643483 87.400971 
L 112.643483 86.552906 
L 112.032311 86.552906 
z
" style="fill:#1d1d1d;"/>
   </g>
   <g id="patch_194">
    <path clip-path="url(#p7c61638890)" d="M 112.541621 87.400971 
L 113.152793 87.400971 
L 113.152793 86.559434 
L 112.541621 86.559434 
z
" style="fill:#1d1d1d;"/>
   </g>
   <g id="patch_195">
    <path clip-path="url(#p7c61638890)" d="M 113.050931 87.400971 
L 113.662103 87.400971 
L 113.662103 86.561079 
L 113.050931 86.561079 
z
" style="fill:#1d1d1d;"/>
   </g>
   <g id="patch_196">
    <path clip-path="url(#p7c61638890)" d="M 113.560241 87.400971 
L 114.171413 87.400971 
L 114.171413 86.563457 
L 113.560241 86.563457 
z
" style="fill:#1d1d1d;"/>
   </g>
   <g id="patch_197">
    <path clip-path="url(#p7c61638890)" d="M 114.069551 87.400971 
L 114.680723 87.400971 
L 114.680723 86.585196 
L 114.069551 86.585196 
z
" style="fill:#1d1d1d;"/>
   </g>
   <g id="patch_198">
    <path clip-path="url(#p7c61638890)" d="M 114.578861 87.400971 
L 115.190033 87.400971 
L 115.190033 86.58578 
L 114.578861 86.58578 
z
" style="fill:#1d1d1d;"/>
   </g>
   <g id="patch_199">
    <path clip-path="url(#p7c61638890)" d="M 115.088171 87.400971 
L 115.699343 87.400971 
L 115.699343 86.586411 
L 115.088171 86.586411 
z
" style="fill:#1d1d1d;"/>
   </g>
   <g id="patch_200">
    <path clip-path="url(#p7c61638890)" d="M 115.597481 87.400971 
L 116.208653 87.400971 
L 116.208653 86.593839 
L 115.597481 86.593839 
z
" style="fill:#1d1d1d;"/>
   </g>
   <g id="patch_201">
    <path clip-path="url(#p7c61638890)" d="M 116.106791 87.400971 
L 116.717963 87.400971 
L 116.717963 86.604461 
L 116.106791 86.604461 
z
" style="fill:#1d1d1d;"/>
   </g>
   <g id="patch_202">
    <path clip-path="url(#p7c61638890)" d="M 116.616101 87.400971 
L 117.227273 87.400971 
L 117.227273 86.612165 
L 116.616101 86.612165 
z
" style="fill:#1d1d1d;"/>
   </g>
   <g id="matplotlib.axis_1"/>
   <g id="matplotlib.axis_2"/>
   <g id="patch_203">
    <path d="M 10.7 93.86 
L 10.7 10.7 
" style="fill:none;stroke:#000000;stroke-linecap:square;stroke-linejoin:miter;stroke-width:0.8;"/>
   </g>
   <g id="patch_204">
    <path d="M 122.3 93.86 
L 122.3 10.7 
" style="fill:none;stroke:#000000;stroke-linecap:square;stroke-linejoin:miter;stroke-width:0.8;"/>
   </g>
   <g id="patch_205">
    <path d="M 10.7 93.86 
L 122.3 93.86 
" style="fill:none;stroke:#000000;stroke-linecap:square;stroke-linejoin:miter;stroke-width:0.8;"/>
   </g>
   <g id="patch_206">
    <path d="M 10.7 10.7 
L 122.3 10.7 
" style="fill:none;stroke:#000000;stroke-linecap:square;stroke-linejoin:miter;stroke-width:0.8;"/>
   </g>
  </g>
 </g>
 <defs>
  <clipPath id="p7c61638890">
   <rect height="83.16" width="111.6" x="10.7" y="10.7"/>
  </clipPath>
 </defs>
</svg>
