<?xml version="1.0" encoding="utf-8" standalone="no"?>
<!DOCTYPE svg PUBLIC "-//W3C//DTD SVG 1.1//EN"
  "http://www.w3.org/Graphics/SVG/1.1/DTD/svg11.dtd">
<!-- Created with matplotlib (http://matplotlib.org/) -->
<svg height="208pt" version="1.1" viewBox="0 0 216 208" width="216pt" xmlns="http://www.w3.org/2000/svg" xmlns:xlink="http://www.w3.org/1999/xlink">
 <defs>
  <style type="text/css">
*{stroke-linecap:butt;stroke-linejoin:round;}
  </style>
 </defs>
 <g id="figure_1">
  <g id="patch_1">
   <path d="M 0 208.640625 
L 216.0925 208.640625 
L 216.0925 0 
L 0 0 
z
" style="fill:#ffffff;"/>
  </g>
  <g id="axes_1">
   <g id="patch_2">
    <path d="M 25.6525 177.02 
L 193.0525 177.02 
L 193.0525 10.7 
L 25.6525 10.7 
z
" style="fill:#ffffff;"/>
   </g>
   <g id="matplotlib.axis_1">
    <g id="xtick_1">
     <g id="line2d_1">
      <defs>
       <path d="M 0 0 
L 0 3.5 
" id="m26b3c13ce1" style="stroke:#000000;stroke-width:0.8;"/>
      </defs>
      <g>
       <use style="stroke:#000000;stroke-width:0.8;" x="25.6525" xlink:href="#m26b3c13ce1" y="177.02"/>
      </g>
     </g>
     <g id="text_1">
      <!-- $\mathdefault{10^{0}}$ -->
      <defs>
       <path d="M 12.40625 8.296875 
L 28.515625 8.296875 
L 28.515625 63.921875 
L 10.984375 60.40625 
L 10.984375 69.390625 
L 28.421875 72.90625 
L 38.28125 72.90625 
L 38.28125 8.296875 
L 54.390625 8.296875 
L 54.390625 0 
L 12.40625 0 
z
" id="DejaVuSans-31"/>
       <path d="M 31.78125 66.40625 
Q 24.171875 66.40625 20.328125 58.90625 
Q 16.5 51.421875 16.5 36.375 
Q 16.5 21.390625 20.328125 13.890625 
Q 24.171875 6.390625 31.78125 6.390625 
Q 39.453125 6.390625 43.28125 13.890625 
Q 47.125 21.390625 47.125 36.375 
Q 47.125 51.421875 43.28125 58.90625 
Q 39.453125 66.40625 31.78125 66.40625 
z
M 31.78125 74.21875 
Q 44.046875 74.21875 50.515625 64.515625 
Q 56.984375 54.828125 56.984375 36.375 
Q 56.984375 17.96875 50.515625 8.265625 
Q 44.046875 -1.421875 31.78125 -1.421875 
Q 19.53125 -1.421875 13.0625 8.265625 
Q 6.59375 17.96875 6.59375 36.375 
Q 6.59375 54.828125 13.0625 64.515625 
Q 19.53125 74.21875 31.78125 74.21875 
z
" id="DejaVuSans-30"/>
      </defs>
      <g transform="translate(9.8125 197.697188)scale(0.18 -0.18)">
       <use transform="translate(0 0.765625)" xlink:href="#DejaVuSans-31"/>
       <use transform="translate(63.623047 0.765625)" xlink:href="#DejaVuSans-30"/>
       <use transform="translate(128.203125 39.046875)scale(0.7)" xlink:href="#DejaVuSans-30"/>
      </g>
     </g>
    </g>
    <g id="xtick_2">
     <g id="line2d_2">
      <g>
       <use style="stroke:#000000;stroke-width:0.8;" x="109.3525" xlink:href="#m26b3c13ce1" y="177.02"/>
      </g>
     </g>
     <g id="text_2">
      <!-- $\mathdefault{10^{2}}$ -->
      <defs>
       <path d="M 19.1875 8.296875 
L 53.609375 8.296875 
L 53.609375 0 
L 7.328125 0 
L 7.328125 8.296875 
Q 12.9375 14.109375 22.625 23.890625 
Q 32.328125 33.6875 34.8125 36.53125 
Q 39.546875 41.84375 41.421875 45.53125 
Q 43.3125 49.21875 43.3125 52.78125 
Q 43.3125 58.59375 39.234375 62.25 
Q 35.15625 65.921875 28.609375 65.921875 
Q 23.96875 65.921875 18.8125 64.3125 
Q 13.671875 62.703125 7.8125 59.421875 
L 7.8125 69.390625 
Q 13.765625 71.78125 18.9375 73 
Q 24.125 74.21875 28.421875 74.21875 
Q 39.75 74.21875 46.484375 68.546875 
Q 53.21875 62.890625 53.21875 53.421875 
Q 53.21875 48.921875 51.53125 44.890625 
Q 49.859375 40.875 45.40625 35.40625 
Q 44.1875 33.984375 37.640625 27.21875 
Q 31.109375 20.453125 19.1875 8.296875 
z
" id="DejaVuSans-32"/>
      </defs>
      <g transform="translate(93.5125 197.697188)scale(0.18 -0.18)">
       <use transform="translate(0 0.765625)" xlink:href="#DejaVuSans-31"/>
       <use transform="translate(63.623047 0.765625)" xlink:href="#DejaVuSans-30"/>
       <use transform="translate(128.203125 39.046875)scale(0.7)" xlink:href="#DejaVuSans-32"/>
      </g>
     </g>
    </g>
    <g id="xtick_3">
     <g id="line2d_3">
      <g>
       <use style="stroke:#000000;stroke-width:0.8;" x="193.0525" xlink:href="#m26b3c13ce1" y="177.02"/>
      </g>
     </g>
     <g id="text_3">
      <!-- $\mathdefault{10^{4}}$ -->
      <defs>
       <path d="M 37.796875 64.3125 
L 12.890625 25.390625 
L 37.796875 25.390625 
z
M 35.203125 72.90625 
L 47.609375 72.90625 
L 47.609375 25.390625 
L 58.015625 25.390625 
L 58.015625 17.1875 
L 47.609375 17.1875 
L 47.609375 0 
L 37.796875 0 
L 37.796875 17.1875 
L 4.890625 17.1875 
L 4.890625 26.703125 
z
" id="DejaVuSans-34"/>
      </defs>
      <g transform="translate(177.2125 197.697188)scale(0.18 -0.18)">
       <use transform="translate(0 0.684375)" xlink:href="#DejaVuSans-31"/>
       <use transform="translate(63.623047 0.684375)" xlink:href="#DejaVuSans-30"/>
       <use transform="translate(128.203125 38.965625)scale(0.7)" xlink:href="#DejaVuSans-34"/>
      </g>
     </g>
    </g>
    <g id="xtick_4">
     <g id="line2d_4">
      <defs>
       <path d="M 0 0 
L 0 2 
" id="m40bbd790f0" style="stroke:#000000;stroke-width:0.6;"/>
      </defs>
      <g>
       <use style="stroke:#000000;stroke-width:0.6;" x="38.250605" xlink:href="#m40bbd790f0" y="177.02"/>
      </g>
     </g>
    </g>
    <g id="xtick_5">
     <g id="line2d_5">
      <g>
       <use style="stroke:#000000;stroke-width:0.6;" x="45.620025" xlink:href="#m40bbd790f0" y="177.02"/>
      </g>
     </g>
    </g>
    <g id="xtick_6">
     <g id="line2d_6">
      <g>
       <use style="stroke:#000000;stroke-width:0.6;" x="50.848711" xlink:href="#m40bbd790f0" y="177.02"/>
      </g>
     </g>
    </g>
    <g id="xtick_7">
     <g id="line2d_7">
      <g>
       <use style="stroke:#000000;stroke-width:0.6;" x="54.904395" xlink:href="#m40bbd790f0" y="177.02"/>
      </g>
     </g>
    </g>
    <g id="xtick_8">
     <g id="line2d_8">
      <g>
       <use style="stroke:#000000;stroke-width:0.6;" x="58.21813" xlink:href="#m40bbd790f0" y="177.02"/>
      </g>
     </g>
    </g>
    <g id="xtick_9">
     <g id="line2d_9">
      <g>
       <use style="stroke:#000000;stroke-width:0.6;" x="61.019853" xlink:href="#m40bbd790f0" y="177.02"/>
      </g>
     </g>
    </g>
    <g id="xtick_10">
     <g id="line2d_10">
      <g>
       <use style="stroke:#000000;stroke-width:0.6;" x="63.446816" xlink:href="#m40bbd790f0" y="177.02"/>
      </g>
     </g>
    </g>
    <g id="xtick_11">
     <g id="line2d_11">
      <g>
       <use style="stroke:#000000;stroke-width:0.6;" x="65.587549" xlink:href="#m40bbd790f0" y="177.02"/>
      </g>
     </g>
    </g>
    <g id="xtick_12">
     <g id="line2d_12">
      <g>
       <use style="stroke:#000000;stroke-width:0.6;" x="80.100605" xlink:href="#m40bbd790f0" y="177.02"/>
      </g>
     </g>
    </g>
    <g id="xtick_13">
     <g id="line2d_13">
      <g>
       <use style="stroke:#000000;stroke-width:0.6;" x="87.470025" xlink:href="#m40bbd790f0" y="177.02"/>
      </g>
     </g>
    </g>
    <g id="xtick_14">
     <g id="line2d_14">
      <g>
       <use style="stroke:#000000;stroke-width:0.6;" x="92.698711" xlink:href="#m40bbd790f0" y="177.02"/>
      </g>
     </g>
    </g>
    <g id="xtick_15">
     <g id="line2d_15">
      <g>
       <use style="stroke:#000000;stroke-width:0.6;" x="96.754395" xlink:href="#m40bbd790f0" y="177.02"/>
      </g>
     </g>
    </g>
    <g id="xtick_16">
     <g id="line2d_16">
      <g>
       <use style="stroke:#000000;stroke-width:0.6;" x="100.06813" xlink:href="#m40bbd790f0" y="177.02"/>
      </g>
     </g>
    </g>
    <g id="xtick_17">
     <g id="line2d_17">
      <g>
       <use style="stroke:#000000;stroke-width:0.6;" x="102.869853" xlink:href="#m40bbd790f0" y="177.02"/>
      </g>
     </g>
    </g>
    <g id="xtick_18">
     <g id="line2d_18">
      <g>
       <use style="stroke:#000000;stroke-width:0.6;" x="105.296816" xlink:href="#m40bbd790f0" y="177.02"/>
      </g>
     </g>
    </g>
    <g id="xtick_19">
     <g id="line2d_19">
      <g>
       <use style="stroke:#000000;stroke-width:0.6;" x="107.437549" xlink:href="#m40bbd790f0" y="177.02"/>
      </g>
     </g>
    </g>
    <g id="xtick_20">
     <g id="line2d_20">
      <g>
       <use style="stroke:#000000;stroke-width:0.6;" x="121.950605" xlink:href="#m40bbd790f0" y="177.02"/>
      </g>
     </g>
    </g>
    <g id="xtick_21">
     <g id="line2d_21">
      <g>
       <use style="stroke:#000000;stroke-width:0.6;" x="129.320025" xlink:href="#m40bbd790f0" y="177.02"/>
      </g>
     </g>
    </g>
    <g id="xtick_22">
     <g id="line2d_22">
      <g>
       <use style="stroke:#000000;stroke-width:0.6;" x="134.548711" xlink:href="#m40bbd790f0" y="177.02"/>
      </g>
     </g>
    </g>
    <g id="xtick_23">
     <g id="line2d_23">
      <g>
       <use style="stroke:#000000;stroke-width:0.6;" x="138.604395" xlink:href="#m40bbd790f0" y="177.02"/>
      </g>
     </g>
    </g>
    <g id="xtick_24">
     <g id="line2d_24">
      <g>
       <use style="stroke:#000000;stroke-width:0.6;" x="141.91813" xlink:href="#m40bbd790f0" y="177.02"/>
      </g>
     </g>
    </g>
    <g id="xtick_25">
     <g id="line2d_25">
      <g>
       <use style="stroke:#000000;stroke-width:0.6;" x="144.719853" xlink:href="#m40bbd790f0" y="177.02"/>
      </g>
     </g>
    </g>
    <g id="xtick_26">
     <g id="line2d_26">
      <g>
       <use style="stroke:#000000;stroke-width:0.6;" x="147.146816" xlink:href="#m40bbd790f0" y="177.02"/>
      </g>
     </g>
    </g>
    <g id="xtick_27">
     <g id="line2d_27">
      <g>
       <use style="stroke:#000000;stroke-width:0.6;" x="149.287549" xlink:href="#m40bbd790f0" y="177.02"/>
      </g>
     </g>
    </g>
    <g id="xtick_28">
     <g id="line2d_28">
      <g>
       <use style="stroke:#000000;stroke-width:0.6;" x="163.800605" xlink:href="#m40bbd790f0" y="177.02"/>
      </g>
     </g>
    </g>
    <g id="xtick_29">
     <g id="line2d_29">
      <g>
       <use style="stroke:#000000;stroke-width:0.6;" x="171.170025" xlink:href="#m40bbd790f0" y="177.02"/>
      </g>
     </g>
    </g>
    <g id="xtick_30">
     <g id="line2d_30">
      <g>
       <use style="stroke:#000000;stroke-width:0.6;" x="176.398711" xlink:href="#m40bbd790f0" y="177.02"/>
      </g>
     </g>
    </g>
    <g id="xtick_31">
     <g id="line2d_31">
      <g>
       <use style="stroke:#000000;stroke-width:0.6;" x="180.454395" xlink:href="#m40bbd790f0" y="177.02"/>
      </g>
     </g>
    </g>
    <g id="xtick_32">
     <g id="line2d_32">
      <g>
       <use style="stroke:#000000;stroke-width:0.6;" x="183.76813" xlink:href="#m40bbd790f0" y="177.02"/>
      </g>
     </g>
    </g>
    <g id="xtick_33">
     <g id="line2d_33">
      <g>
       <use style="stroke:#000000;stroke-width:0.6;" x="186.569853" xlink:href="#m40bbd790f0" y="177.02"/>
      </g>
     </g>
    </g>
    <g id="xtick_34">
     <g id="line2d_34">
      <g>
       <use style="stroke:#000000;stroke-width:0.6;" x="188.996816" xlink:href="#m40bbd790f0" y="177.02"/>
      </g>
     </g>
    </g>
    <g id="xtick_35">
     <g id="line2d_35">
      <g>
       <use style="stroke:#000000;stroke-width:0.6;" x="191.137549" xlink:href="#m40bbd790f0" y="177.02"/>
      </g>
     </g>
    </g>
   </g>
   <g id="matplotlib.axis_2">
    <g id="ytick_1">
     <g id="line2d_36">
      <defs>
       <path d="M 0 0 
L -3.5 0 
" id="m64d15a996f" style="stroke:#000000;stroke-width:0.8;"/>
      </defs>
      <g>
       <use style="stroke:#000000;stroke-width:0.8;" x="25.6525" xlink:href="#m64d15a996f" y="177.02"/>
      </g>
     </g>
     <g id="text_4">
      <!-- 0 -->
      <g transform="translate(7.2 183.858594)scale(0.18 -0.18)">
       <use xlink:href="#DejaVuSans-30"/>
      </g>
     </g>
    </g>
    <g id="ytick_2">
     <g id="line2d_37">
      <g>
       <use style="stroke:#000000;stroke-width:0.8;" x="25.6525" xlink:href="#m64d15a996f" y="129.567789"/>
      </g>
     </g>
     <g id="text_5">
      <!-- 2 -->
      <g transform="translate(7.2 136.406383)scale(0.18 -0.18)">
       <use xlink:href="#DejaVuSans-32"/>
      </g>
     </g>
    </g>
    <g id="ytick_3">
     <g id="line2d_38">
      <g>
       <use style="stroke:#000000;stroke-width:0.8;" x="25.6525" xlink:href="#m64d15a996f" y="82.115578"/>
      </g>
     </g>
     <g id="text_6">
      <!-- 4 -->
      <g transform="translate(7.2 88.954171)scale(0.18 -0.18)">
       <use xlink:href="#DejaVuSans-34"/>
      </g>
     </g>
    </g>
    <g id="ytick_4">
     <g id="line2d_39">
      <g>
       <use style="stroke:#000000;stroke-width:0.8;" x="25.6525" xlink:href="#m64d15a996f" y="34.663367"/>
      </g>
     </g>
     <g id="text_7">
      <!-- 6 -->
      <defs>
       <path d="M 33.015625 40.375 
Q 26.375 40.375 22.484375 35.828125 
Q 18.609375 31.296875 18.609375 23.390625 
Q 18.609375 15.53125 22.484375 10.953125 
Q 26.375 6.390625 33.015625 6.390625 
Q 39.65625 6.390625 43.53125 10.953125 
Q 47.40625 15.53125 47.40625 23.390625 
Q 47.40625 31.296875 43.53125 35.828125 
Q 39.65625 40.375 33.015625 40.375 
z
M 52.59375 71.296875 
L 52.59375 62.3125 
Q 48.875 64.0625 45.09375 64.984375 
Q 41.3125 65.921875 37.59375 65.921875 
Q 27.828125 65.921875 22.671875 59.328125 
Q 17.53125 52.734375 16.796875 39.40625 
Q 19.671875 43.65625 24.015625 45.921875 
Q 28.375 48.1875 33.59375 48.1875 
Q 44.578125 48.1875 50.953125 41.515625 
Q 57.328125 34.859375 57.328125 23.390625 
Q 57.328125 12.15625 50.6875 5.359375 
Q 44.046875 -1.421875 33.015625 -1.421875 
Q 20.359375 -1.421875 13.671875 8.265625 
Q 6.984375 17.96875 6.984375 36.375 
Q 6.984375 53.65625 15.1875 63.9375 
Q 23.390625 74.21875 37.203125 74.21875 
Q 40.921875 74.21875 44.703125 73.484375 
Q 48.484375 72.75 52.59375 71.296875 
z
" id="DejaVuSans-36"/>
      </defs>
      <g transform="translate(7.2 41.50196)scale(0.18 -0.18)">
       <use xlink:href="#DejaVuSans-36"/>
      </g>
     </g>
    </g>
   </g>
   <g id="line2d_40">
    <path clip-path="url(#p75d79074e0)" d="M 25.6525 173.151375 
L 29.068827 172.95904 
L 32.485153 171.008878 
L 35.90148 169.112373 
L 39.317806 169.050716 
L 42.734133 168.997319 
L 46.150459 165.491949 
L 49.566786 158.137157 
L 52.983112 157.924813 
L 56.399439 146.516012 
L 59.815765 135.222587 
L 63.232092 124.13172 
L 66.648418 110.22032 
L 70.064745 98.688331 
L 73.481071 91.192676 
L 76.897398 80.391525 
L 80.313724 70.925722 
L 83.730051 67.311749 
L 87.146378 63.013079 
L 90.562704 60.803223 
L 93.979031 56.412185 
L 97.395357 52.156614 
L 100.811684 51.362197 
L 104.22801 51.400298 
L 107.644337 51.465893 
L 111.060663 50.148452 
L 114.47699 47.394604 
L 117.893316 46.939785 
L 121.309643 46.539355 
L 124.725969 45.17389 
L 128.142296 45.380753 
L 131.558622 46.771244 
L 134.974949 46.707396 
L 138.391276 44.543516 
L 141.807602 44.53081 
L 145.223929 44.705765 
L 148.640255 44.380564 
L 152.056582 45.030404 
L 155.472908 44.693834 
L 158.889235 45.050267 
L 162.305561 45.504217 
L 165.721888 45.029132 
L 169.138214 45.01734 
L 172.554541 45.006451 
L 175.970867 44.997043 
L 179.387194 44.989367 
L 182.80352 44.983485 
L 186.219847 44.97935 
L 189.636173 44.97687 
L 193.0525 44.975939 
" style="fill:none;opacity:0.5;stroke:#37b878;stroke-linecap:square;stroke-width:0.3;"/>
   </g>
   <g id="line2d_41">
    <path clip-path="url(#p75d79074e0)" d="M 25.6525 145.355016 
L 29.068827 136.414159 
L 32.485153 122.335905 
L 35.90148 106.23049 
L 39.317806 96.170396 
L 42.734133 86.09099 
L 46.150459 82.172052 
L 49.566786 78.621941 
L 52.983112 71.503863 
L 56.399439 67.178414 
L 59.815765 64.079518 
L 63.232092 60.633688 
L 66.648418 58.83847 
L 70.064745 57.05395 
L 73.481071 52.49947 
L 76.897398 49.225132 
L 80.313724 47.419798 
L 83.730051 46.265738 
L 87.146378 47.99808 
L 90.562704 47.735098 
L 93.979031 47.490096 
L 97.395357 47.353187 
L 100.811684 48.957736 
L 104.22801 48.953016 
L 107.644337 47.502101 
L 111.060663 47.420123 
L 114.47699 48.785954 
L 117.893316 47.222675 
L 121.309643 47.212833 
L 124.725969 47.93897 
L 128.142296 46.821894 
L 131.558622 46.780005 
L 134.974949 46.884962 
L 138.391276 46.895749 
L 141.807602 46.910027 
L 145.223929 46.925246 
L 148.640255 46.93983 
L 152.056582 46.952918 
L 155.472908 46.964129 
L 158.889235 46.973382 
L 162.305561 46.980764 
L 165.721888 46.986455 
L 169.138214 46.990673 
L 172.554541 46.993647 
L 175.970867 46.9956 
L 179.387194 46.996743 
L 182.80352 46.997275 
L 186.219847 46.997378 
L 189.636173 46.997228 
L 193.0525 46.99699 
" style="fill:none;opacity:0.5;stroke:#37b878;stroke-linecap:square;stroke-width:0.3;"/>
   </g>
   <g id="line2d_42">
    <path clip-path="url(#p75d79074e0)" d="M 25.6525 166.243137 
L 29.068827 161.40246 
L 32.485153 144.15804 
L 35.90148 130.803377 
L 39.317806 114.21005 
L 42.734133 103.149514 
L 46.150459 95.209798 
L 49.566786 88.788271 
L 52.983112 79.41358 
L 56.399439 71.570862 
L 59.815765 70.150458 
L 63.232092 66.374976 
L 66.648418 66.817788 
L 70.064745 60.275565 
L 73.481071 54.928948 
L 76.897398 51.122987 
L 80.313724 48.645731 
L 83.730051 49.702444 
L 87.146378 48.718011 
L 90.562704 51.012187 
L 93.979031 48.051659 
L 97.395357 47.304955 
L 100.811684 45.639947 
L 104.22801 44.189279 
L 107.644337 44.722935 
L 111.060663 42.680516 
L 114.47699 43.276659 
L 117.893316 43.095351 
L 121.309643 42.017103 
L 124.725969 42.462709 
L 128.142296 42.437721 
L 131.558622 42.413006 
L 134.974949 42.389973 
L 138.391276 42.36926 
L 141.807602 42.35102 
L 145.223929 42.335156 
L 148.640255 42.321453 
L 152.056582 42.309657 
L 155.472908 42.29951 
L 158.889235 42.290774 
L 162.305561 42.283236 
L 165.721888 42.276713 
L 169.138214 42.271051 
L 172.554541 42.266124 
L 175.970867 42.261829 
L 179.387194 42.258089 
L 182.80352 42.254843 
L 186.219847 42.25205 
L 189.636173 42.249683 
L 193.0525 42.247724 
" style="fill:none;opacity:0.5;stroke:#37b878;stroke-linecap:square;stroke-width:0.3;"/>
   </g>
   <g id="line2d_43">
    <path clip-path="url(#p75d79074e0)" d="M 25.6525 137.123749 
L 29.068827 128.234337 
L 32.485153 118.243816 
L 35.90148 108.623105 
L 39.317806 103.248056 
L 42.734133 89.560021 
L 46.150459 82.963878 
L 49.566786 76.656681 
L 52.983112 68.680718 
L 56.399439 62.544953 
L 59.815765 58.332287 
L 63.232092 56.629382 
L 66.648418 52.207049 
L 70.064745 52.036924 
L 73.481071 51.852448 
L 76.897398 50.955867 
L 80.313724 48.156131 
L 83.730051 47.669905 
L 87.146378 44.433003 
L 90.562704 45.513639 
L 93.979031 42.911453 
L 97.395357 43.8258 
L 100.811684 42.721218 
L 104.22801 42.987254 
L 107.644337 43.888776 
L 111.060663 43.085598 
L 114.47699 41.252644 
L 117.893316 41.465472 
L 121.309643 40.880254 
L 124.725969 41.067679 
L 128.142296 41.148303 
L 131.558622 41.509023 
L 134.974949 41.611555 
L 138.391276 41.632659 
L 141.807602 41.644807 
L 145.223929 41.650792 
L 148.640255 41.652678 
L 152.056582 41.651929 
L 155.472908 41.649558 
L 158.889235 41.646255 
L 162.305561 41.642486 
L 165.721888 41.638573 
L 169.138214 41.634741 
L 172.554541 41.631161 
L 175.970867 41.627978 
L 179.387194 41.625326 
L 182.80352 41.623349 
L 186.219847 41.622208 
L 189.636173 41.622094 
L 193.0525 41.623234 
" style="fill:none;opacity:0.5;stroke:#37b878;stroke-linecap:square;stroke-width:0.3;"/>
   </g>
   <g id="line2d_44">
    <path clip-path="url(#p75d79074e0)" d="M 25.6525 181.023448 
L 29.068827 181.023448 
L 32.485153 181.023448 
L 35.90148 177.564231 
L 39.317806 175.720396 
L 42.734133 165.888692 
L 46.150459 155.081843 
L 49.566786 142.206257 
L 52.983112 126.4353 
L 56.399439 116.075513 
L 59.815765 104.857164 
L 63.232092 96.89757 
L 66.648418 89.946157 
L 70.064745 80.403139 
L 73.481071 73.715765 
L 76.897398 67.013657 
L 80.313724 58.637692 
L 83.730051 58.678923 
L 87.146378 59.20434 
L 90.562704 52.762479 
L 93.979031 55.521349 
L 97.395357 50.086467 
L 100.811684 47.800969 
L 104.22801 46.083298 
L 107.644337 45.827652 
L 111.060663 43.401565 
L 114.47699 44.828115 
L 117.893316 42.354442 
L 121.309643 42.266435 
L 124.725969 42.312864 
L 128.142296 42.165475 
L 131.558622 42.209515 
L 134.974949 41.487292 
L 138.391276 41.470178 
L 141.807602 41.650063 
L 145.223929 42.185588 
L 148.640255 41.464337 
L 152.056582 41.477219 
L 155.472908 41.471395 
L 158.889235 41.4633 
L 162.305561 41.454351 
L 165.721888 41.445508 
L 169.138214 41.437345 
L 172.554541 41.43016 
L 175.970867 41.424067 
L 179.387194 41.419072 
L 182.80352 41.415119 
L 186.219847 41.412127 
L 189.636173 41.410003 
L 193.0525 41.408658 
" style="fill:none;opacity:0.5;stroke:#37b878;stroke-linecap:square;stroke-width:0.3;"/>
   </g>
   <g id="line2d_45">
    <path clip-path="url(#p75d79074e0)" d="M 25.6525 85.145419 
L 29.068827 78.852378 
L 32.485153 74.06087 
L 35.90148 67.482598 
L 39.317806 61.550932 
L 42.734133 54.707606 
L 46.150459 56.754956 
L 49.566786 52.084969 
L 52.983112 50.387558 
L 56.399439 49.484473 
L 59.815765 45.447006 
L 63.232092 41.451497 
L 66.648418 41.227211 
L 70.064745 43.850557 
L 73.481071 42.373752 
L 76.897398 41.375153 
L 80.313724 41.377219 
L 83.730051 40.884562 
L 87.146378 41.63767 
L 90.562704 40.596392 
L 93.979031 39.957391 
L 97.395357 39.537268 
L 100.811684 39.24556 
L 104.22801 39.013134 
L 107.644337 38.731586 
L 111.060663 38.741233 
L 114.47699 38.755643 
L 117.893316 38.771541 
L 121.309643 38.786896 
L 124.725969 38.800551 
L 128.142296 38.811934 
L 131.558622 38.820839 
L 134.974949 38.827286 
L 138.391276 38.831416 
L 141.807602 38.833432 
L 145.223929 38.833556 
L 148.640255 38.832011 
L 152.056582 38.829006 
L 155.472908 38.82473 
L 158.889235 38.81935 
L 162.305561 38.813011 
L 165.721888 38.805841 
L 169.138214 38.797948 
L 172.554541 38.789428 
L 175.970867 38.780364 
L 179.387194 38.77083 
L 182.80352 38.760894 
L 186.219847 38.750621 
L 189.636173 38.740075 
L 193.0525 38.729324 
" style="fill:none;opacity:0.5;stroke:#37b878;stroke-linecap:square;stroke-width:0.3;"/>
   </g>
   <g id="line2d_46">
    <path clip-path="url(#p75d79074e0)" d="M 25.6525 177.748978 
L 29.068827 177.70804 
L 32.485153 175.884917 
L 35.90148 175.844444 
L 39.317806 175.805229 
L 42.734133 175.769398 
L 46.150459 175.738517 
L 49.566786 173.920954 
L 52.983112 170.329223 
L 56.399439 159.414968 
L 59.815765 151.883213 
L 63.232092 149.725816 
L 66.648418 137.343009 
L 70.064745 125.99099 
L 73.481071 114.724571 
L 76.897398 97.755617 
L 80.313724 95.206346 
L 83.730051 85.43263 
L 87.146378 79.059891 
L 90.562704 75.546184 
L 93.979031 69.466542 
L 97.395357 62.935335 
L 100.811684 58.870109 
L 104.22801 55.682874 
L 107.644337 49.538231 
L 111.060663 47.62809 
L 114.47699 48.670111 
L 117.893316 44.103296 
L 121.309643 46.450706 
L 124.725969 46.43011 
L 128.142296 43.709007 
L 131.558622 43.966056 
L 134.974949 44.165314 
L 138.391276 42.922525 
L 141.807602 42.382023 
L 145.223929 42.231383 
L 148.640255 40.842952 
L 152.056582 40.246817 
L 155.472908 40.630093 
L 158.889235 39.834864 
L 162.305561 40.043756 
L 165.721888 40.024377 
L 169.138214 40.344253 
L 172.554541 40.359529 
L 175.970867 40.371991 
L 179.387194 40.382099 
L 182.80352 40.390405 
L 186.219847 40.39744 
L 189.636173 40.403666 
L 193.0525 40.409467 
" style="fill:none;opacity:0.5;stroke:#37b878;stroke-linecap:square;stroke-width:0.3;"/>
   </g>
   <g id="line2d_47">
    <path clip-path="url(#p75d79074e0)" d="M 25.6525 162.610201 
L 29.068827 152.817978 
L 32.485153 144.988307 
L 35.90148 136.453895 
L 39.317806 130.600763 
L 42.734133 121.958065 
L 46.150459 112.211406 
L 49.566786 103.108638 
L 52.983112 90.99801 
L 56.399439 86.507239 
L 59.815765 82.703855 
L 63.232092 72.280437 
L 66.648418 68.757618 
L 70.064745 62.820892 
L 73.481071 54.619254 
L 76.897398 52.473368 
L 80.313724 47.924744 
L 83.730051 45.67027 
L 87.146378 46.710941 
L 90.562704 46.905211 
L 93.979031 47.052413 
L 97.395357 44.78252 
L 100.811684 43.3799 
L 104.22801 43.56281 
L 107.644337 43.203767 
L 111.060663 42.160136 
L 114.47699 40.753603 
L 117.893316 40.817783 
L 121.309643 41.462995 
L 124.725969 42.01063 
L 128.142296 41.881192 
L 131.558622 41.262734 
L 134.974949 41.192589 
L 138.391276 41.130554 
L 141.807602 41.077511 
L 145.223929 41.033215 
L 148.640255 40.99692 
L 152.056582 40.967692 
L 155.472908 40.944571 
L 158.889235 40.926655 
L 162.305561 40.913137 
L 165.721888 40.903309 
L 169.138214 40.896567 
L 172.554541 40.892393 
L 175.970867 40.890347 
L 179.387194 40.890054 
L 182.80352 40.89119 
L 186.219847 40.893478 
L 189.636173 40.896668 
L 193.0525 40.90054 
" style="fill:none;opacity:0.5;stroke:#37b878;stroke-linecap:square;stroke-width:0.3;"/>
   </g>
   <g id="line2d_48">
    <path clip-path="url(#p75d79074e0)" d="M 25.6525 181.023448 
L 29.068827 181.023448 
L 32.485153 181.023448 
L 35.90148 177.618694 
L 39.317806 174.163736 
L 42.734133 161.635756 
L 46.150459 155.949016 
L 49.566786 145.398134 
L 52.983112 130.847021 
L 56.399439 123.7389 
L 59.815765 111.337754 
L 63.232092 99.255526 
L 66.648418 89.6028 
L 70.064745 80.141509 
L 73.481071 74.83948 
L 76.897398 73.701107 
L 80.313724 66.27209 
L 83.730051 61.408693 
L 87.146378 56.48312 
L 90.562704 51.429622 
L 93.979031 49.53393 
L 97.395357 52.767041 
L 100.811684 52.753705 
L 104.22801 52.22434 
L 107.644337 48.885627 
L 111.060663 47.545605 
L 114.47699 47.750247 
L 117.893316 47.660254 
L 121.309643 46.9672 
L 124.725969 47.930436 
L 128.142296 46.107792 
L 131.558622 45.73817 
L 134.974949 46.370755 
L 138.391276 45.935092 
L 141.807602 46.028807 
L 145.223929 44.978291 
L 148.640255 45.825525 
L 152.056582 45.824693 
L 155.472908 45.852563 
L 158.889235 45.873118 
L 162.305561 45.88785 
L 165.721888 45.89834 
L 169.138214 45.905969 
L 172.554541 45.911828 
L 175.970867 45.916742 
L 179.387194 45.921322 
L 182.80352 45.926025 
L 186.219847 45.931206 
L 189.636173 45.937158 
L 193.0525 45.944147 
" style="fill:none;opacity:0.5;stroke:#37b878;stroke-linecap:square;stroke-width:0.3;"/>
   </g>
   <g id="line2d_49">
    <path clip-path="url(#p75d79074e0)" d="M 25.6525 168.654332 
L 29.068827 162.775219 
L 32.485153 156.425984 
L 35.90148 143.845883 
L 39.317806 130.428604 
L 42.734133 117.251212 
L 46.150459 104.921549 
L 49.566786 92.525577 
L 52.983112 86.585464 
L 56.399439 82.556294 
L 59.815765 74.077708 
L 63.232092 73.278532 
L 66.648418 69.076308 
L 70.064745 65.605955 
L 73.481071 63.756193 
L 76.897398 58.048752 
L 80.313724 53.119881 
L 83.730051 49.255319 
L 87.146378 48.010861 
L 90.562704 46.691997 
L 93.979031 43.135878 
L 97.395357 42.140034 
L 100.811684 41.909377 
L 104.22801 42.425445 
L 107.644337 42.406965 
L 111.060663 42.090988 
L 114.47699 41.220787 
L 117.893316 42.389245 
L 121.309643 42.141774 
L 124.725969 42.679226 
L 128.142296 41.100889 
L 131.558622 42.372948 
L 134.974949 41.55103 
L 138.391276 41.872053 
L 141.807602 42.092535 
L 145.223929 41.859681 
L 148.640255 41.85499 
L 152.056582 41.851561 
L 155.472908 41.849285 
L 158.889235 41.848001 
L 162.305561 41.847556 
L 165.721888 41.847832 
L 169.138214 41.848751 
L 172.554541 41.850276 
L 175.970867 41.852407 
L 179.387194 41.855174 
L 182.80352 41.858631 
L 186.219847 41.862861 
L 189.636173 41.867961 
L 193.0525 41.874051 
" style="fill:none;opacity:0.5;stroke:#37b878;stroke-linecap:square;stroke-width:0.3;"/>
   </g>
   <g id="line2d_50">
    <path clip-path="url(#p75d79074e0)" d="M 25.6525 173.618148 
L 29.068827 173.606459 
L 32.485153 173.596528 
L 35.90148 174.742447 
L 39.317806 174.738477 
L 42.734133 174.734353 
L 46.150459 168.430054 
L 49.566786 165.015372 
L 52.983112 161.652864 
L 56.399439 153.276435 
L 59.815765 141.343919 
L 63.232092 130.467397 
L 66.648418 123.24845 
L 70.064745 115.005868 
L 73.481071 106.399384 
L 76.897398 97.157638 
L 80.313724 85.168012 
L 83.730051 82.509402 
L 87.146378 82.297061 
L 90.562704 72.189509 
L 93.979031 67.99167 
L 97.395357 63.575312 
L 100.811684 57.841079 
L 104.22801 55.701999 
L 107.644337 53.333371 
L 111.060663 49.882881 
L 114.47699 50.820031 
L 117.893316 44.307367 
L 121.309643 45.769582 
L 124.725969 44.019748 
L 128.142296 44.693687 
L 131.558622 42.887194 
L 134.974949 42.008408 
L 138.391276 44.051474 
L 141.807602 42.311113 
L 145.223929 40.578926 
L 148.640255 41.511482 
L 152.056582 42.26618 
L 155.472908 41.699665 
L 158.889235 41.395115 
L 162.305561 42.530179 
L 165.721888 41.659133 
L 169.138214 41.576275 
L 172.554541 41.561176 
L 175.970867 41.549517 
L 179.387194 41.541217 
L 182.80352 41.536026 
L 186.219847 41.533668 
L 189.636173 41.533904 
L 193.0525 41.536559 
" style="fill:none;opacity:0.5;stroke:#37b878;stroke-linecap:square;stroke-width:0.3;"/>
   </g>
   <g id="line2d_51">
    <path clip-path="url(#p75d79074e0)" d="M 25.6525 112.793913 
L 29.068827 99.148804 
L 32.485153 91.469557 
L 35.90148 81.714804 
L 39.317806 77.493941 
L 42.734133 69.317147 
L 46.150459 61.930083 
L 49.566786 58.726794 
L 52.983112 55.783996 
L 56.399439 51.733386 
L 59.815765 50.45076 
L 63.232092 46.219535 
L 66.648418 42.663221 
L 70.064745 40.804316 
L 73.481071 41.652032 
L 76.897398 40.285493 
L 80.313724 38.169323 
L 83.730051 39.748325 
L 87.146378 40.823649 
L 90.562704 38.225638 
L 93.979031 38.74241 
L 97.395357 37.357677 
L 100.811684 37.648771 
L 104.22801 36.610898 
L 107.644337 36.27395 
L 111.060663 37.058455 
L 114.47699 37.265368 
L 117.893316 36.809198 
L 121.309643 36.795061 
L 124.725969 36.783543 
L 128.142296 36.774076 
L 131.558622 36.766244 
L 134.974949 36.759735 
L 138.391276 36.754304 
L 141.807602 36.749755 
L 145.223929 36.74593 
L 148.640255 36.742695 
L 152.056582 36.739939 
L 155.472908 36.737567 
L 158.889235 36.735496 
L 162.305561 36.733657 
L 165.721888 36.731985 
L 169.138214 36.730423 
L 172.554541 36.728916 
L 175.970867 36.72741 
L 179.387194 36.725848 
L 182.80352 36.724167 
L 186.219847 36.722295 
L 189.636173 36.720147 
L 193.0525 36.717615 
" style="fill:none;opacity:0.5;stroke:#37b878;stroke-linecap:square;stroke-width:0.3;"/>
   </g>
   <g id="line2d_52">
    <path clip-path="url(#p75d79074e0)" d="M 25.6525 159.948768 
L 29.068827 150.527528 
L 32.485153 134.393028 
L 35.90148 119.092254 
L 39.317806 109.279573 
L 42.734133 98.604918 
L 46.150459 86.784091 
L 49.566786 78.119175 
L 52.983112 70.619045 
L 56.399439 68.6996 
L 59.815765 66.410423 
L 63.232092 61.665591 
L 66.648418 58.175004 
L 70.064745 53.54433 
L 73.481071 52.892727 
L 76.897398 51.901162 
L 80.313724 47.793033 
L 83.730051 48.862777 
L 87.146378 46.383318 
L 90.562704 46.11339 
L 93.979031 45.818831 
L 97.395357 45.736169 
L 100.811684 46.099702 
L 104.22801 44.77438 
L 107.644337 44.273585 
L 111.060663 43.862096 
L 114.47699 43.640115 
L 117.893316 44.884909 
L 121.309643 44.126237 
L 124.725969 43.699527 
L 128.142296 42.114397 
L 131.558622 42.914308 
L 134.974949 42.991018 
L 138.391276 42.925068 
L 141.807602 43.434606 
L 145.223929 43.431043 
L 148.640255 43.434435 
L 152.056582 43.44138 
L 155.472908 43.449604 
L 158.889235 43.45772 
L 162.305561 43.46496 
L 165.721888 43.470946 
L 169.138214 43.475533 
L 172.554541 43.478707 
L 175.970867 43.480519 
L 179.387194 43.481043 
L 182.80352 43.480353 
L 186.219847 43.478514 
L 189.636173 43.475564 
L 193.0525 43.47152 
" style="fill:none;opacity:0.5;stroke:#37b878;stroke-linecap:square;stroke-width:0.3;"/>
   </g>
   <g id="line2d_53">
    <path clip-path="url(#p75d79074e0)" d="M 25.6525 161.30534 
L 29.068827 157.461454 
L 32.485153 144.367319 
L 35.90148 126.9359 
L 39.317806 113.986474 
L 42.734133 102.798171 
L 46.150459 97.719908 
L 49.566786 93.337075 
L 52.983112 87.823137 
L 56.399439 84.293949 
L 59.815765 81.716712 
L 63.232092 73.605612 
L 66.648418 72.723725 
L 70.064745 70.656347 
L 73.481071 66.56294 
L 76.897398 67.136293 
L 80.313724 60.494507 
L 83.730051 56.043047 
L 87.146378 53.298822 
L 90.562704 52.195074 
L 93.979031 50.967329 
L 97.395357 50.423406 
L 100.811684 52.505638 
L 104.22801 51.949097 
L 107.644337 49.008067 
L 111.060663 48.917296 
L 114.47699 45.848357 
L 117.893316 46.278416 
L 121.309643 46.601601 
L 124.725969 47.452407 
L 128.142296 47.043361 
L 131.558622 47.032978 
L 134.974949 47.040713 
L 138.391276 47.052577 
L 141.807602 47.0657 
L 145.223929 47.078525 
L 148.640255 47.090321 
L 152.056582 47.100837 
L 155.472908 47.110077 
L 158.889235 47.118167 
L 162.305561 47.125281 
L 165.721888 47.131605 
L 169.138214 47.137318 
L 172.554541 47.142586 
L 175.970867 47.14756 
L 179.387194 47.152377 
L 182.80352 47.157165 
L 186.219847 47.16204 
L 189.636173 47.167117 
L 193.0525 47.172504 
" style="fill:none;opacity:0.5;stroke:#37b878;stroke-linecap:square;stroke-width:0.3;"/>
   </g>
   <g id="line2d_54">
    <path clip-path="url(#p75d79074e0)" d="M 25.6525 174.679447 
L 29.068827 174.649098 
L 32.485153 174.620768 
L 35.90148 174.593653 
L 39.317806 172.77746 
L 42.734133 169.22982 
L 46.150459 164.693365 
L 49.566786 158.461951 
L 52.983112 148.554957 
L 56.399439 137.531192 
L 59.815765 131.473222 
L 63.232092 126.112449 
L 66.648418 114.767549 
L 70.064745 107.645033 
L 73.481071 95.042927 
L 76.897398 83.799674 
L 80.313724 76.125618 
L 83.730051 67.71231 
L 87.146378 63.776527 
L 90.562704 63.338239 
L 93.979031 59.621246 
L 97.395357 57.077861 
L 100.811684 55.444964 
L 104.22801 50.471063 
L 107.644337 47.596323 
L 111.060663 46.750461 
L 114.47699 44.155442 
L 117.893316 44.183935 
L 121.309643 42.486532 
L 124.725969 42.054993 
L 128.142296 43.248105 
L 131.558622 42.742411 
L 134.974949 41.019391 
L 138.391276 40.906431 
L 141.807602 40.348361 
L 145.223929 40.119061 
L 148.640255 40.187918 
L 152.056582 40.72454 
L 155.472908 40.408594 
L 158.889235 40.505272 
L 162.305561 40.514935 
L 165.721888 40.520897 
L 169.138214 40.524276 
L 172.554541 40.525905 
L 175.970867 40.526409 
L 179.387194 40.526259 
L 182.80352 40.525823 
L 186.219847 40.525402 
L 189.636173 40.525258 
L 193.0525 40.525645 
" style="fill:none;opacity:0.5;stroke:#37b878;stroke-linecap:square;stroke-width:0.3;"/>
   </g>
   <g id="line2d_55">
    <path clip-path="url(#p75d79074e0)" d="M 25.6525 145.072663 
L 29.068827 131.882828 
L 32.485153 121.509593 
L 35.90148 107.869913 
L 39.317806 95.195205 
L 42.734133 85.468269 
L 46.150459 80.85847 
L 49.566786 73.205362 
L 52.983112 69.179627 
L 56.399439 65.534702 
L 59.815765 62.100027 
L 63.232092 55.370397 
L 66.648418 51.502369 
L 70.064745 49.087627 
L 73.481071 47.56603 
L 76.897398 47.919942 
L 80.313724 45.49891 
L 83.730051 44.113427 
L 87.146378 41.75264 
L 90.562704 43.086653 
L 93.979031 40.961177 
L 97.395357 41.699 
L 100.811684 42.85281 
L 104.22801 41.097557 
L 107.644337 40.169537 
L 111.060663 39.380758 
L 114.47699 40.201243 
L 117.893316 40.145501 
L 121.309643 39.694092 
L 124.725969 40.21003 
L 128.142296 40.219047 
L 131.558622 40.228449 
L 134.974949 40.237379 
L 138.391276 40.245208 
L 141.807602 40.25159 
L 145.223929 40.256394 
L 148.640255 40.259633 
L 152.056582 40.2614 
L 155.472908 40.261828 
L 158.889235 40.261061 
L 162.305561 40.259239 
L 165.721888 40.25649 
L 169.138214 40.252926 
L 172.554541 40.248644 
L 175.970867 40.243725 
L 179.387194 40.238235 
L 182.80352 40.232229 
L 186.219847 40.225753 
L 189.636173 40.218846 
L 193.0525 40.21154 
" style="fill:none;opacity:0.5;stroke:#37b878;stroke-linecap:square;stroke-width:0.3;"/>
   </g>
   <g id="line2d_56">
    <path clip-path="url(#p75d79074e0)" d="M 25.6525 172.064704 
L 29.068827 165.662469 
L 32.485153 153.77107 
L 35.90148 138.5593 
L 39.317806 130.452039 
L 42.734133 123.219025 
L 46.150459 110.123252 
L 49.566786 101.323335 
L 52.983112 91.202035 
L 56.399439 86.243797 
L 59.815765 82.566665 
L 63.232092 74.9049 
L 66.648418 71.217473 
L 70.064745 65.507494 
L 73.481071 58.976566 
L 76.897398 58.349976 
L 80.313724 51.490848 
L 83.730051 51.699685 
L 87.146378 51.032027 
L 90.562704 46.190158 
L 93.979031 43.335411 
L 97.395357 44.203303 
L 100.811684 42.521308 
L 104.22801 42.191704 
L 107.644337 43.919392 
L 111.060663 42.933982 
L 114.47699 42.667641 
L 117.893316 42.386275 
L 121.309643 42.570145 
L 124.725969 41.445036 
L 128.142296 41.17606 
L 131.558622 41.34807 
L 134.974949 41.300079 
L 138.391276 41.024591 
L 141.807602 41.083428 
L 145.223929 41.132593 
L 148.640255 41.172938 
L 152.056582 41.205683 
L 155.472908 41.231982 
L 158.889235 41.252881 
L 162.305561 41.269311 
L 165.721888 41.28208 
L 169.138214 41.29189 
L 172.554541 41.299348 
L 175.970867 41.304986 
L 179.387194 41.309274 
L 182.80352 41.312637 
L 186.219847 41.315472 
L 189.636173 41.318159 
L 193.0525 41.321078 
" style="fill:none;opacity:0.5;stroke:#37b878;stroke-linecap:square;stroke-width:0.3;"/>
   </g>
   <g id="line2d_57">
    <path clip-path="url(#p75d79074e0)" d="M 25.6525 150.488312 
L 29.068827 133.499019 
L 32.485153 123.437724 
L 35.90148 112.627238 
L 39.317806 106.892572 
L 42.734133 105.200213 
L 46.150459 102.642201 
L 49.566786 101.00291 
L 52.983112 97.180747 
L 56.399439 89.790961 
L 59.815765 79.545712 
L 63.232092 71.998564 
L 66.648418 67.060667 
L 70.064745 58.836272 
L 73.481071 55.743193 
L 76.897398 55.478718 
L 80.313724 51.978387 
L 83.730051 47.827851 
L 87.146378 45.241007 
L 90.562704 43.600888 
L 93.979031 43.424609 
L 97.395357 42.232202 
L 100.811684 43.428578 
L 104.22801 40.006387 
L 107.644337 41.194719 
L 111.060663 39.154365 
L 114.47699 39.463261 
L 117.893316 38.15338 
L 121.309643 38.63959 
L 124.725969 37.901345 
L 128.142296 38.052529 
L 131.558622 37.963138 
L 134.974949 37.904247 
L 138.391276 37.854382 
L 141.807602 37.813612 
L 145.223929 37.781345 
L 148.640255 37.756692 
L 152.056582 37.738681 
L 155.472908 37.726376 
L 158.889235 37.718936 
L 162.305561 37.715638 
L 165.721888 37.715875 
L 169.138214 37.71915 
L 172.554541 37.725063 
L 175.970867 37.733299 
L 179.387194 37.743613 
L 182.80352 37.755826 
L 186.219847 37.76981 
L 189.636173 37.785488 
L 193.0525 37.802827 
" style="fill:none;opacity:0.5;stroke:#37b878;stroke-linecap:square;stroke-width:0.3;"/>
   </g>
   <g id="line2d_58">
    <path clip-path="url(#p75d79074e0)" d="M 25.6525 179.225474 
L 29.068827 179.225474 
L 32.485153 177.429343 
L 35.90148 170.0706 
L 39.317806 158.032459 
L 42.734133 150.114816 
L 46.150459 143.578787 
L 49.566786 129.664118 
L 52.983112 116.096339 
L 56.399439 110.185862 
L 59.815765 101.841158 
L 63.232092 96.74794 
L 66.648418 92.734537 
L 70.064745 81.167127 
L 73.481071 77.060221 
L 76.897398 67.031721 
L 80.313724 60.608167 
L 83.730051 54.057993 
L 87.146378 54.263708 
L 90.562704 54.39309 
L 93.979031 49.664586 
L 97.395357 47.564634 
L 100.811684 45.953511 
L 104.22801 44.514159 
L 107.644337 43.288995 
L 111.060663 43.103852 
L 114.47699 41.175772 
L 117.893316 41.536279 
L 121.309643 40.948451 
L 124.725969 42.45937 
L 128.142296 41.767066 
L 131.558622 41.164638 
L 134.974949 40.881009 
L 138.391276 40.749893 
L 141.807602 40.867964 
L 145.223929 40.811326 
L 148.640255 40.826973 
L 152.056582 40.838285 
L 155.472908 40.846158 
L 158.889235 40.851282 
L 162.305561 40.854198 
L 165.721888 40.855334 
L 169.138214 40.855036 
L 172.554541 40.853585 
L 175.970867 40.851217 
L 179.387194 40.848134 
L 182.80352 40.844517 
L 186.219847 40.840533 
L 189.636173 40.836343 
L 193.0525 40.83211 
" style="fill:none;opacity:0.5;stroke:#37b878;stroke-linecap:square;stroke-width:0.3;"/>
   </g>
   <g id="line2d_59">
    <path clip-path="url(#p75d79074e0)" d="M 25.6525 181.023448 
L 29.068827 181.023448 
L 32.485153 179.225474 
L 35.90148 169.60329 
L 39.317806 155.271201 
L 42.734133 142.678392 
L 46.150459 133.685059 
L 49.566786 118.067407 
L 52.983112 104.075499 
L 56.399439 94.179421 
L 59.815765 87.691329 
L 63.232092 84.312921 
L 66.648418 78.533884 
L 70.064745 72.745058 
L 73.481071 65.925272 
L 76.897398 62.691541 
L 80.313724 61.149931 
L 83.730051 58.252892 
L 87.146378 55.37015 
L 90.562704 51.994053 
L 93.979031 46.484239 
L 97.395357 46.509599 
L 100.811684 43.520404 
L 104.22801 44.352078 
L 107.644337 46.445817 
L 111.060663 44.028773 
L 114.47699 42.992568 
L 117.893316 44.483379 
L 121.309643 44.383709 
L 124.725969 42.804862 
L 128.142296 42.496324 
L 131.558622 42.494256 
L 134.974949 41.85023 
L 138.391276 42.030529 
L 141.807602 41.395594 
L 145.223929 41.77904 
L 148.640255 41.435796 
L 152.056582 41.448831 
L 155.472908 41.461311 
L 158.889235 41.472885 
L 162.305561 41.483343 
L 165.721888 41.492581 
L 169.138214 41.500577 
L 172.554541 41.507367 
L 175.970867 41.513026 
L 179.387194 41.517652 
L 182.80352 41.521356 
L 186.219847 41.524251 
L 189.636173 41.526447 
L 193.0525 41.528045 
" style="fill:none;opacity:0.5;stroke:#37b878;stroke-linecap:square;stroke-width:0.3;"/>
   </g>
   <g id="line2d_60">
    <path clip-path="url(#p75d79074e0)" d="M 25.6525 153.685824 
L 29.068827 141.892526 
L 32.485153 134.942688 
L 35.90148 126.542178 
L 39.317806 122.184022 
L 42.734133 110.927769 
L 46.150459 103.532391 
L 49.566786 97.858129 
L 52.983112 90.864207 
L 56.399439 82.737237 
L 59.815765 82.169314 
L 63.232092 76.545294 
L 66.648418 70.813955 
L 70.064745 63.782831 
L 73.481071 55.658911 
L 76.897398 53.307825 
L 80.313724 48.127351 
L 83.730051 49.194575 
L 87.146378 47.982673 
L 90.562704 48.563248 
L 93.979031 47.429543 
L 97.395357 49.940843 
L 100.811684 46.98659 
L 104.22801 44.820676 
L 107.644337 43.916128 
L 111.060663 44.125666 
L 114.47699 43.470987 
L 117.893316 43.64525 
L 121.309643 42.475825 
L 124.725969 42.485724 
L 128.142296 41.964078 
L 131.558622 41.899078 
L 134.974949 41.848138 
L 138.391276 41.866352 
L 141.807602 41.836608 
L 145.223929 41.813591 
L 148.640255 41.79593 
L 152.056582 41.782567 
L 155.472908 41.772678 
L 158.889235 41.765619 
L 162.305561 41.760884 
L 165.721888 41.758077 
L 169.138214 41.756885 
L 172.554541 41.757061 
L 175.970867 41.758413 
L 179.387194 41.760792 
L 182.80352 41.764083 
L 186.219847 41.768205 
L 189.636173 41.773104 
L 193.0525 41.778756 
" style="fill:none;opacity:0.5;stroke:#37b878;stroke-linecap:square;stroke-width:0.3;"/>
   </g>
   <g id="line2d_61">
    <path clip-path="url(#p75d79074e0)" d="M 25.6525 181.023448 
L 29.068827 181.023448 
L 32.485153 179.225474 
L 35.90148 177.429343 
L 39.317806 169.485598 
L 42.734133 159.874378 
L 46.150459 147.192255 
L 49.566786 129.707266 
L 52.983112 114.214297 
L 56.399439 96.728496 
L 59.815765 89.963512 
L 63.232092 80.318827 
L 66.648418 73.485011 
L 70.064745 67.753288 
L 73.481071 63.254666 
L 76.897398 59.851169 
L 80.313724 53.582699 
L 83.730051 52.546573 
L 87.146378 52.878821 
L 90.562704 51.071358 
L 93.979031 48.447622 
L 97.395357 46.805586 
L 100.811684 43.755169 
L 104.22801 42.973714 
L 107.644337 43.339524 
L 111.060663 42.919208 
L 114.47699 43.151943 
L 117.893316 43.834758 
L 121.309643 41.913486 
L 124.725969 42.579787 
L 128.142296 41.448977 
L 131.558622 41.884186 
L 134.974949 42.5306 
L 138.391276 42.315113 
L 141.807602 41.973285 
L 145.223929 42.676242 
L 148.640255 41.977711 
L 152.056582 41.89871 
L 155.472908 42.033557 
L 158.889235 42.044155 
L 162.305561 42.052202 
L 165.721888 42.058355 
L 169.138214 42.063159 
L 172.554541 42.067072 
L 175.970867 42.070489 
L 179.387194 42.073763 
L 182.80352 42.077223 
L 186.219847 42.081194 
L 189.636173 42.086009 
L 193.0525 42.092023 
" style="fill:none;opacity:0.5;stroke:#37b878;stroke-linecap:square;stroke-width:0.3;"/>
   </g>
   <g id="line2d_62">
    <path clip-path="url(#p75d79074e0)" d="M 25.6525 181.023448 
L 29.068827 177.51005 
L 32.485153 175.677728 
L 35.90148 169.902662 
L 39.317806 157.195781 
L 42.734133 145.186126 
L 46.150459 129.710397 
L 49.566786 112.793826 
L 52.983112 101.194227 
L 56.399439 88.577572 
L 59.815765 82.043836 
L 63.232092 75.759403 
L 66.648418 73.985855 
L 70.064745 70.65631 
L 73.481071 66.315788 
L 76.897398 60.611913 
L 80.313724 55.03684 
L 83.730051 51.10458 
L 87.146378 47.798723 
L 90.562704 46.077742 
L 93.979031 41.308779 
L 97.395357 42.900632 
L 100.811684 43.025137 
L 104.22801 41.497764 
L 107.644337 42.996729 
L 111.060663 41.057289 
L 114.47699 40.630458 
L 117.893316 40.791034 
L 121.309643 41.438951 
L 124.725969 41.605565 
L 128.142296 41.511302 
L 131.558622 41.129868 
L 134.974949 41.338399 
L 138.391276 41.188406 
L 141.807602 41.687158 
L 145.223929 41.231078 
L 148.640255 41.254447 
L 152.056582 41.585315 
L 155.472908 41.230726 
L 158.889235 41.230609 
L 162.305561 41.229304 
L 165.721888 41.227129 
L 169.138214 41.224293 
L 172.554541 41.220928 
L 175.970867 41.217114 
L 179.387194 41.212892 
L 182.80352 41.208278 
L 186.219847 41.203261 
L 189.636173 41.197814 
L 193.0525 41.191886 
" style="fill:none;opacity:0.5;stroke:#37b878;stroke-linecap:square;stroke-width:0.3;"/>
   </g>
   <g id="line2d_63">
    <path clip-path="url(#p75d79074e0)" d="M 25.6525 181.023448 
L 29.068827 181.023448 
L 32.485153 174.88237 
L 35.90148 170.018644 
L 39.317806 162.529411 
L 42.734133 153.279644 
L 46.150459 141.590677 
L 49.566786 124.799212 
L 52.983112 117.499262 
L 56.399439 112.153836 
L 59.815765 106.453878 
L 63.232092 101.963744 
L 66.648418 91.452374 
L 70.064745 81.92189 
L 73.481071 76.57922 
L 76.897398 74.190406 
L 80.313724 67.185586 
L 83.730051 60.986402 
L 87.146378 55.243225 
L 90.562704 56.867111 
L 93.979031 50.113705 
L 97.395357 48.108028 
L 100.811684 45.326453 
L 104.22801 41.707722 
L 107.644337 41.463164 
L 111.060663 41.786659 
L 114.47699 43.108166 
L 117.893316 41.932183 
L 121.309643 43.232348 
L 124.725969 41.433959 
L 128.142296 41.180228 
L 131.558622 41.220541 
L 134.974949 38.92719 
L 138.391276 37.920322 
L 141.807602 37.119632 
L 145.223929 37.372613 
L 148.640255 36.993086 
L 152.056582 36.965758 
L 155.472908 36.945201 
L 158.889235 36.929614 
L 162.305561 36.917646 
L 165.721888 36.90829 
L 169.138214 36.900812 
L 172.554541 36.894694 
L 175.970867 36.889585 
L 179.387194 36.88526 
L 182.80352 36.881591 
L 186.219847 36.878525 
L 189.636173 36.876072 
L 193.0525 36.874294 
" style="fill:none;opacity:0.5;stroke:#37b878;stroke-linecap:square;stroke-width:0.3;"/>
   </g>
   <g id="line2d_64">
    <path clip-path="url(#p75d79074e0)" d="M 25.6525 181.023448 
L 29.068827 181.023448 
L 32.485153 179.225474 
L 35.90148 179.225474 
L 39.317806 174.783322 
L 42.734133 168.254975 
L 46.150459 160.58765 
L 49.566786 149.864705 
L 52.983112 134.511738 
L 56.399439 122.158548 
L 59.815765 112.461089 
L 63.232092 105.191215 
L 66.648418 99.477259 
L 70.064745 93.351525 
L 73.481071 86.594631 
L 76.897398 75.826159 
L 80.313724 69.284081 
L 83.730051 66.771363 
L 87.146378 66.268292 
L 90.562704 63.097027 
L 93.979031 58.277458 
L 97.395357 55.894533 
L 100.811684 51.921259 
L 104.22801 53.567663 
L 107.644337 52.203436 
L 111.060663 51.308043 
L 114.47699 53.770166 
L 117.893316 51.24497 
L 121.309643 51.065693 
L 124.725969 50.391273 
L 128.142296 48.822061 
L 131.558622 49.379211 
L 134.974949 49.136935 
L 138.391276 50.065124 
L 141.807602 49.049444 
L 145.223929 48.633956 
L 148.640255 49.024673 
L 152.056582 49.21517 
L 155.472908 48.949012 
L 158.889235 48.907263 
L 162.305561 48.871955 
L 165.721888 48.842584 
L 169.138214 48.818258 
L 172.554541 48.798046 
L 175.970867 48.781107 
L 179.387194 48.766737 
L 182.80352 48.754359 
L 186.219847 48.743508 
L 189.636173 48.733805 
L 193.0525 48.724943 
" style="fill:none;opacity:0.5;stroke:#37b878;stroke-linecap:square;stroke-width:0.3;"/>
   </g>
   <g id="line2d_65">
    <path clip-path="url(#p75d79074e0)" d="M 25.6525 168.40156 
L 29.068827 157.682019 
L 32.485153 148.666256 
L 35.90148 134.60145 
L 39.317806 123.361357 
L 42.734133 116.108578 
L 46.150459 107.757604 
L 49.566786 98.516546 
L 52.983112 92.057805 
L 56.399439 82.755321 
L 59.815765 83.057722 
L 63.232092 78.092328 
L 66.648418 73.580008 
L 70.064745 64.782968 
L 73.481071 56.401863 
L 76.897398 54.960738 
L 80.313724 52.114277 
L 83.730051 52.031259 
L 87.146378 52.455765 
L 90.562704 49.763971 
L 93.979031 48.300883 
L 97.395357 47.54557 
L 100.811684 45.997656 
L 104.22801 44.819018 
L 107.644337 47.184055 
L 111.060663 48.233043 
L 114.47699 46.486015 
L 117.893316 46.407348 
L 121.309643 45.08811 
L 124.725969 45.082769 
L 128.142296 44.785249 
L 131.558622 45.113331 
L 134.974949 45.102564 
L 138.391276 45.098181 
L 141.807602 45.097695 
L 145.223929 45.099428 
L 148.640255 45.102286 
L 152.056582 45.105594 
L 155.472908 45.108954 
L 158.889235 45.11216 
L 162.305561 45.115126 
L 165.721888 45.117848 
L 169.138214 45.120368 
L 172.554541 45.122762 
L 175.970867 45.125125 
L 179.387194 45.127569 
L 182.80352 45.130218 
L 186.219847 45.133212 
L 189.636173 45.136705 
L 193.0525 45.140872 
" style="fill:none;opacity:0.5;stroke:#37b878;stroke-linecap:square;stroke-width:0.3;"/>
   </g>
   <g id="line2d_66">
    <path clip-path="url(#p75d79074e0)" d="M 25.6525 175.700654 
L 29.068827 166.577846 
L 32.485153 160.294449 
L 35.90148 150.413468 
L 39.317806 135.563743 
L 42.734133 124.805066 
L 46.150459 108.938216 
L 49.566786 97.044911 
L 52.983112 90.320037 
L 56.399439 85.822957 
L 59.815765 81.094214 
L 63.232092 82.149415 
L 66.648418 73.55098 
L 70.064745 69.419939 
L 73.481071 68.990293 
L 76.897398 63.307179 
L 80.313724 60.164696 
L 83.730051 55.901925 
L 87.146378 53.214132 
L 90.562704 48.649535 
L 93.979031 48.222851 
L 97.395357 48.383898 
L 100.811684 46.645292 
L 104.22801 48.525997 
L 107.644337 47.991195 
L 111.060663 47.877767 
L 114.47699 46.50676 
L 117.893316 44.748456 
L 121.309643 45.327554 
L 124.725969 45.744978 
L 128.142296 44.152351 
L 131.558622 44.427073 
L 134.974949 44.167768 
L 138.391276 43.671543 
L 141.807602 43.618447 
L 145.223929 43.576456 
L 148.640255 43.543416 
L 152.056582 43.517553 
L 155.472908 43.497399 
L 158.889235 43.481769 
L 162.305561 43.469726 
L 165.721888 43.460532 
L 169.138214 43.45361 
L 172.554541 43.44851 
L 175.970867 43.444884 
L 179.387194 43.44246 
L 182.80352 43.441033 
L 186.219847 43.440444 
L 189.636173 43.440579 
L 193.0525 43.441359 
" style="fill:none;opacity:0.5;stroke:#37b878;stroke-linecap:square;stroke-width:0.3;"/>
   </g>
   <g id="line2d_67">
    <path clip-path="url(#p75d79074e0)" d="M 25.6525 152.753491 
L 29.068827 146.614295 
L 32.485153 126.97578 
L 35.90148 115.688862 
L 39.317806 107.446406 
L 42.734133 89.998967 
L 46.150459 85.817615 
L 49.566786 79.422069 
L 52.983112 76.996612 
L 56.399439 72.639023 
L 59.815765 67.66751 
L 63.232092 66.502509 
L 66.648418 62.849892 
L 70.064745 58.126212 
L 73.481071 56.055972 
L 76.897398 52.393059 
L 80.313724 48.328646 
L 83.730051 52.023045 
L 87.146378 49.025265 
L 90.562704 48.531071 
L 93.979031 49.319596 
L 97.395357 50.880094 
L 100.811684 51.4862 
L 104.22801 48.576307 
L 107.644337 49.594292 
L 111.060663 48.330964 
L 114.47699 47.80239 
L 117.893316 47.15765 
L 121.309643 46.96109 
L 124.725969 46.912798 
L 128.142296 46.877857 
L 131.558622 46.85566 
L 134.974949 46.835965 
L 138.391276 46.820981 
L 141.807602 46.809234 
L 145.223929 46.799715 
L 148.640255 46.79174 
L 152.056582 46.78485 
L 155.472908 46.778742 
L 158.889235 46.773222 
L 162.305561 46.768172 
L 165.721888 46.763533 
L 169.138214 46.759282 
L 172.554541 46.755435 
L 175.970867 46.752031 
L 179.387194 46.749138 
L 182.80352 46.74685 
L 186.219847 46.745291 
L 189.636173 46.744616 
L 193.0525 46.745021 
" style="fill:none;opacity:0.5;stroke:#37b878;stroke-linecap:square;stroke-width:0.3;"/>
   </g>
   <g id="line2d_68">
    <path clip-path="url(#p75d79074e0)" d="M 25.6525 170.198445 
L 29.068827 162.186146 
L 32.485153 152.125794 
L 35.90148 140.149743 
L 39.317806 130.508141 
L 42.734133 117.309038 
L 46.150459 104.695459 
L 49.566786 92.808859 
L 52.983112 87.719164 
L 56.399439 84.64173 
L 59.815765 82.586948 
L 63.232092 78.29959 
L 66.648418 78.629127 
L 70.064745 75.137924 
L 73.481071 70.562056 
L 76.897398 67.685712 
L 80.313724 63.102943 
L 83.730051 59.033228 
L 87.146378 56.385804 
L 90.562704 51.614837 
L 93.979031 48.395607 
L 97.395357 49.747833 
L 100.811684 44.779999 
L 104.22801 45.171074 
L 107.644337 43.703541 
L 111.060663 44.160067 
L 114.47699 42.623156 
L 117.893316 43.72569 
L 121.309643 44.660238 
L 124.725969 43.57573 
L 128.142296 43.933254 
L 131.558622 44.614594 
L 134.974949 44.018911 
L 138.391276 44.377861 
L 141.807602 44.390075 
L 145.223929 44.398679 
L 148.640255 44.4043 
L 152.056582 44.407541 
L 155.472908 44.408977 
L 158.889235 44.409123 
L 162.305561 44.40842 
L 165.721888 44.407231 
L 169.138214 44.405851 
L 172.554541 44.404527 
L 175.970867 44.40347 
L 179.387194 44.402877 
L 182.80352 44.402937 
L 186.219847 44.403853 
L 189.636173 44.405843 
L 193.0525 44.409154 
" style="fill:none;opacity:0.5;stroke:#37b878;stroke-linecap:square;stroke-width:0.3;"/>
   </g>
   <g id="line2d_69">
    <path clip-path="url(#p75d79074e0)" d="M 25.6525 181.023448 
L 29.068827 179.225474 
L 32.485153 173.46946 
L 35.90148 163.245542 
L 39.317806 153.708398 
L 42.734133 137.192433 
L 46.150459 128.60906 
L 49.566786 117.063676 
L 52.983112 107.509053 
L 56.399439 96.098538 
L 59.815765 86.784959 
L 63.232092 79.656533 
L 66.648418 75.062472 
L 70.064745 68.93659 
L 73.481071 65.250033 
L 76.897398 60.290924 
L 80.313724 60.334776 
L 83.730051 61.153491 
L 87.146378 52.920757 
L 90.562704 54.657343 
L 93.979031 52.74773 
L 97.395357 52.417894 
L 100.811684 53.556223 
L 104.22801 48.573393 
L 107.644337 49.754948 
L 111.060663 47.672203 
L 114.47699 50.240505 
L 117.893316 48.853702 
L 121.309643 48.614828 
L 124.725969 48.805427 
L 128.142296 48.237037 
L 131.558622 48.219966 
L 134.974949 48.368029 
L 138.391276 48.126871 
L 141.807602 47.783131 
L 145.223929 47.296038 
L 148.640255 47.576049 
L 152.056582 47.170653 
L 155.472908 47.11446 
L 158.889235 47.06983 
L 162.305561 47.034525 
L 165.721888 47.006775 
L 169.138214 46.985187 
L 172.554541 46.968666 
L 175.970867 46.956359 
L 179.387194 46.947602 
L 182.80352 46.941889 
L 186.219847 46.938836 
L 189.636173 46.938168 
L 193.0525 46.939693 
" style="fill:none;opacity:0.5;stroke:#37b878;stroke-linecap:square;stroke-width:0.3;"/>
   </g>
   <g id="line2d_70">
    <path clip-path="url(#p75d79074e0)" d="M 25.6525 131.593254 
L 29.068827 116.882332 
L 32.485153 102.241523 
L 35.90148 90.425958 
L 39.317806 83.542995 
L 42.734133 77.889473 
L 46.150459 71.664393 
L 49.566786 69.197551 
L 52.983112 67.750712 
L 56.399439 68.669331 
L 59.815765 69.56199 
L 63.232092 62.891873 
L 66.648418 59.381215 
L 70.064745 59.168492 
L 73.481071 55.386026 
L 76.897398 53.358668 
L 80.313724 55.164663 
L 83.730051 49.39616 
L 87.146378 50.097902 
L 90.562704 50.635169 
L 93.979031 50.08756 
L 97.395357 50.965475 
L 100.811684 49.532347 
L 104.22801 48.196091 
L 107.644337 48.476508 
L 111.060663 48.431481 
L 114.47699 48.933753 
L 117.893316 48.837289 
L 121.309643 49.155828 
L 124.725969 48.755307 
L 128.142296 48.49597 
L 131.558622 48.77599 
L 134.974949 48.601373 
L 138.391276 48.57067 
L 141.807602 48.558611 
L 145.223929 48.548631 
L 148.640255 48.540867 
L 152.056582 48.53492 
L 155.472908 48.530258 
L 158.889235 48.5264 
L 162.305561 48.522968 
L 165.721888 48.519692 
L 169.138214 48.516392 
L 172.554541 48.512957 
L 175.970867 48.509322 
L 179.387194 48.505452 
L 182.80352 48.501334 
L 186.219847 48.496961 
L 189.636173 48.492331 
L 193.0525 48.487436 
" style="fill:none;opacity:0.5;stroke:#37b878;stroke-linecap:square;stroke-width:0.3;"/>
   </g>
   <g id="line2d_71">
    <path clip-path="url(#p75d79074e0)" d="M 25.6525 165.330955 
L 29.068827 154.219529 
L 32.485153 142.082454 
L 35.90148 127.32131 
L 39.317806 115.380347 
L 42.734133 102.68534 
L 46.150459 96.335112 
L 49.566786 88.02812 
L 52.983112 84.536682 
L 56.399439 83.017339 
L 59.815765 75.773003 
L 63.232092 71.344933 
L 66.648418 60.279993 
L 70.064745 56.981963 
L 73.481071 55.313679 
L 76.897398 51.174799 
L 80.313724 54.254619 
L 83.730051 48.689061 
L 87.146378 46.908182 
L 90.562704 47.307791 
L 93.979031 43.316749 
L 97.395357 44.96876 
L 100.811684 45.463737 
L 104.22801 43.781893 
L 107.644337 43.807217 
L 111.060663 43.462294 
L 114.47699 41.845129 
L 117.893316 43.144297 
L 121.309643 43.037726 
L 124.725969 41.950101 
L 128.142296 42.149909 
L 131.558622 42.176392 
L 134.974949 42.295473 
L 138.391276 42.271055 
L 141.807602 42.298816 
L 145.223929 42.322667 
L 148.640255 42.342427 
L 152.056582 42.358187 
L 155.472908 42.370205 
L 158.889235 42.378845 
L 162.305561 42.384519 
L 165.721888 42.387662 
L 169.138214 42.388703 
L 172.554541 42.388061 
L 175.970867 42.386142 
L 179.387194 42.383335 
L 182.80352 42.380024 
L 186.219847 42.376592 
L 189.636173 42.37343 
L 193.0525 42.370945 
" style="fill:none;opacity:0.5;stroke:#37b878;stroke-linecap:square;stroke-width:0.3;"/>
   </g>
   <g id="line2d_72">
    <path clip-path="url(#p75d79074e0)" d="M 25.6525 145.036879 
L 29.068827 128.906483 
L 32.485153 112.123436 
L 35.90148 102.64169 
L 39.317806 91.882815 
L 42.734133 85.86303 
L 46.150459 82.926241 
L 49.566786 76.074511 
L 52.983112 75.69471 
L 56.399439 69.871021 
L 59.815765 65.742468 
L 63.232092 62.406349 
L 66.648418 58.313011 
L 70.064745 58.842998 
L 73.481071 57.0743 
L 76.897398 55.776779 
L 80.313724 52.981279 
L 83.730051 49.27882 
L 87.146378 49.963578 
L 90.562704 49.871419 
L 93.979031 48.696952 
L 97.395357 49.211536 
L 100.811684 48.176715 
L 104.22801 48.832052 
L 107.644337 48.500649 
L 111.060663 48.713438 
L 114.47699 46.173348 
L 117.893316 45.651444 
L 121.309643 45.495756 
L 124.725969 45.588066 
L 128.142296 45.31757 
L 131.558622 45.494512 
L 134.974949 45.196857 
L 138.391276 45.172201 
L 141.807602 45.154878 
L 145.223929 45.142616 
L 148.640255 45.133922 
L 152.056582 45.127803 
L 155.472908 45.123587 
L 158.889235 45.120813 
L 162.305561 45.11916 
L 165.721888 45.118401 
L 169.138214 45.118377 
L 172.554541 45.118972 
L 175.970867 45.120108 
L 179.387194 45.121733 
L 182.80352 45.123812 
L 186.219847 45.126333 
L 189.636173 45.129296 
L 193.0525 45.132718 
" style="fill:none;opacity:0.5;stroke:#37b878;stroke-linecap:square;stroke-width:0.3;"/>
   </g>
   <g id="line2d_73">
    <path clip-path="url(#p75d79074e0)" d="M 25.6525 142.66946 
L 29.068827 132.098614 
L 32.485153 116.987912 
L 35.90148 106.755029 
L 39.317806 100.811304 
L 42.734133 90.273179 
L 46.150459 85.240033 
L 49.566786 78.487424 
L 52.983112 75.555683 
L 56.399439 72.387712 
L 59.815765 65.795139 
L 63.232092 60.337423 
L 66.648418 53.022898 
L 70.064745 51.646727 
L 73.481071 47.268168 
L 76.897398 46.82353 
L 80.313724 46.478293 
L 83.730051 43.597892 
L 87.146378 45.390389 
L 90.562704 45.67086 
L 93.979031 44.694835 
L 97.395357 46.370038 
L 100.811684 43.210513 
L 104.22801 42.05632 
L 107.644337 41.727196 
L 111.060663 42.802761 
L 114.47699 42.263757 
L 117.893316 42.52368 
L 121.309643 42.189254 
L 124.725969 41.890642 
L 128.142296 42.182394 
L 131.558622 41.998419 
L 134.974949 42.015863 
L 138.391276 42.029658 
L 141.807602 42.040048 
L 145.223929 42.047489 
L 148.640255 42.052462 
L 152.056582 42.055402 
L 155.472908 42.056673 
L 158.889235 42.056573 
L 162.305561 42.055335 
L 165.721888 42.053147 
L 169.138214 42.050153 
L 172.554541 42.046467 
L 175.970867 42.042181 
L 179.387194 42.037363 
L 182.80352 42.032071 
L 186.219847 42.026352 
L 189.636173 42.020244 
L 193.0525 42.013785 
" style="fill:none;opacity:0.5;stroke:#37b878;stroke-linecap:square;stroke-width:0.3;"/>
   </g>
   <g id="line2d_74">
    <path clip-path="url(#p75d79074e0)" d="M 25.6525 141.359105 
L 29.068827 126.957143 
L 32.485153 117.444446 
L 35.90148 108.611236 
L 39.317806 100.170182 
L 42.734133 92.209547 
L 46.150459 88.347266 
L 49.566786 79.022822 
L 52.983112 75.049075 
L 56.399439 72.531748 
L 59.815765 62.921953 
L 63.232092 62.899967 
L 66.648418 58.763408 
L 70.064745 56.104473 
L 73.481071 54.958912 
L 76.897398 51.598315 
L 80.313724 49.77245 
L 83.730051 49.717841 
L 87.146378 47.42296 
L 90.562704 49.090897 
L 93.979031 47.431171 
L 97.395357 45.371344 
L 100.811684 45.427973 
L 104.22801 46.048155 
L 107.644337 45.297678 
L 111.060663 43.797592 
L 114.47699 45.419149 
L 117.893316 44.270141 
L 121.309643 44.124407 
L 124.725969 44.132017 
L 128.142296 44.16699 
L 131.558622 44.197028 
L 134.974949 44.22266 
L 138.391276 44.244273 
L 141.807602 44.262316 
L 145.223929 44.277225 
L 148.640255 44.289412 
L 152.056582 44.299254 
L 155.472908 44.307093 
L 158.889235 44.313232 
L 162.305561 44.317939 
L 165.721888 44.321444 
L 169.138214 44.323947 
L 172.554541 44.325618 
L 175.970867 44.326602 
L 179.387194 44.327025 
L 182.80352 44.326991 
L 186.219847 44.326594 
L 189.636173 44.325912 
L 193.0525 44.325016 
" style="fill:none;opacity:0.5;stroke:#37b878;stroke-linecap:square;stroke-width:0.3;"/>
   </g>
   <g id="line2d_75">
    <path clip-path="url(#p75d79074e0)" d="M 25.6525 177.893687 
L 29.068827 173.05286 
L 32.485153 158.752718 
L 35.90148 145.385324 
L 39.317806 134.335003 
L 42.734133 123.53029 
L 46.150459 114.012685 
L 49.566786 104.209966 
L 52.983112 91.442917 
L 56.399439 85.191909 
L 59.815765 76.68415 
L 63.232092 71.157206 
L 66.648418 68.022796 
L 70.064745 63.935253 
L 73.481071 60.031812 
L 76.897398 56.551093 
L 80.313724 52.845585 
L 83.730051 49.597523 
L 87.146378 49.237925 
L 90.562704 48.887572 
L 93.979031 47.466218 
L 97.395357 42.739333 
L 100.811684 41.668036 
L 104.22801 41.812613 
L 107.644337 42.893465 
L 111.060663 42.530333 
L 114.47699 44.205167 
L 117.893316 44.14529 
L 121.309643 43.346413 
L 124.725969 42.146777 
L 128.142296 43.015331 
L 131.558622 42.992915 
L 134.974949 42.173189 
L 138.391276 42.458916 
L 141.807602 41.989396 
L 145.223929 41.993331 
L 148.640255 42.005292 
L 152.056582 42.020677 
L 155.472908 42.036739 
L 158.889235 42.051964 
L 162.305561 42.065612 
L 165.721888 42.077415 
L 169.138214 42.087378 
L 172.554541 42.09566 
L 175.970867 42.102499 
L 179.387194 42.108174 
L 182.80352 42.112979 
L 186.219847 42.117219 
L 189.636173 42.121208 
L 193.0525 42.12527 
" style="fill:none;opacity:0.5;stroke:#37b878;stroke-linecap:square;stroke-width:0.3;"/>
   </g>
   <g id="line2d_76">
    <path clip-path="url(#p75d79074e0)" d="M 25.6525 141.985828 
L 29.068827 127.567691 
L 32.485153 114.453502 
L 35.90148 104.471485 
L 39.317806 98.379152 
L 42.734133 89.834123 
L 46.150459 84.698828 
L 49.566786 76.630005 
L 52.983112 74.654245 
L 56.399439 68.041897 
L 59.815765 64.88167 
L 63.232092 60.236226 
L 66.648418 55.406133 
L 70.064745 51.908467 
L 73.481071 48.772682 
L 76.897398 45.789754 
L 80.313724 46.459381 
L 83.730051 45.452616 
L 87.146378 45.447446 
L 90.562704 44.457193 
L 93.979031 43.834265 
L 97.395357 44.106845 
L 100.811684 42.823825 
L 104.22801 42.303476 
L 107.644337 42.684508 
L 111.060663 41.576032 
L 114.47699 40.983351 
L 117.893316 41.466351 
L 121.309643 40.999991 
L 124.725969 40.72926 
L 128.142296 40.714811 
L 131.558622 40.701928 
L 134.974949 40.690622 
L 138.391276 40.680844 
L 141.807602 40.6725 
L 145.223929 40.665478 
L 148.640255 40.65966 
L 152.056582 40.654933 
L 155.472908 40.651199 
L 158.889235 40.648372 
L 162.305561 40.646389 
L 165.721888 40.645209 
L 169.138214 40.64481 
L 172.554541 40.645196 
L 175.970867 40.646397 
L 179.387194 40.648467 
L 182.80352 40.651492 
L 186.219847 40.65559 
L 189.636173 40.660919 
L 193.0525 40.667683 
" style="fill:none;opacity:0.5;stroke:#37b878;stroke-linecap:square;stroke-width:0.3;"/>
   </g>
   <g id="line2d_77">
    <path clip-path="url(#p75d79074e0)" d="M 25.6525 181.023448 
L 29.068827 179.225474 
L 32.485153 174.222425 
L 35.90148 165.491966 
L 39.317806 158.431476 
L 42.734133 142.623249 
L 46.150459 130.078814 
L 49.566786 117.306645 
L 52.983112 107.682314 
L 56.399439 103.164529 
L 59.815765 90.829257 
L 63.232092 82.344727 
L 66.648418 76.155106 
L 70.064745 68.290842 
L 73.481071 65.382349 
L 76.897398 59.467794 
L 80.313724 54.98074 
L 83.730051 52.070157 
L 87.146378 52.670109 
L 90.562704 53.934447 
L 93.979031 49.797782 
L 97.395357 48.387967 
L 100.811684 48.596019 
L 104.22801 47.195334 
L 107.644337 47.948667 
L 111.060663 45.760655 
L 114.47699 44.047275 
L 117.893316 44.720327 
L 121.309643 45.164224 
L 124.725969 44.445331 
L 128.142296 46.309154 
L 131.558622 44.277663 
L 134.974949 44.731593 
L 138.391276 44.557814 
L 141.807602 43.583264 
L 145.223929 44.931421 
L 148.640255 44.195784 
L 152.056582 44.192621 
L 155.472908 44.186675 
L 158.889235 44.184324 
L 162.305561 44.184418 
L 165.721888 44.186065 
L 169.138214 44.188606 
L 172.554541 44.191575 
L 175.970867 44.194653 
L 179.387194 44.197633 
L 182.80352 44.200384 
L 186.219847 44.202829 
L 189.636173 44.204928 
L 193.0525 44.206665 
" style="fill:none;opacity:0.5;stroke:#37b878;stroke-linecap:square;stroke-width:0.3;"/>
   </g>
   <g id="line2d_78">
    <path clip-path="url(#p75d79074e0)" d="M 25.6525 173.571059 
L 29.068827 173.449064 
L 32.485153 171.543094 
L 35.90148 169.645937 
L 39.317806 165.654162 
L 42.734133 163.594725 
L 46.150459 160.753937 
L 49.566786 152.256402 
L 52.983112 146.383666 
L 56.399439 136.982798 
L 59.815765 121.746673 
L 63.232092 110.670557 
L 66.648418 99.670922 
L 70.064745 96.613161 
L 73.481071 89.39194 
L 76.897398 86.137951 
L 80.313724 77.441607 
L 83.730051 71.732367 
L 87.146378 68.300336 
L 90.562704 63.151619 
L 93.979031 59.256982 
L 97.395357 57.506534 
L 100.811684 55.878993 
L 104.22801 54.999181 
L 107.644337 56.139745 
L 111.060663 51.697755 
L 114.47699 50.852176 
L 117.893316 50.479193 
L 121.309643 48.610076 
L 124.725969 50.916959 
L 128.142296 50.110303 
L 131.558622 50.201612 
L 134.974949 52.316636 
L 138.391276 50.023675 
L 141.807602 49.710311 
L 145.223929 49.213314 
L 148.640255 48.626643 
L 152.056582 47.778039 
L 155.472908 48.159592 
L 158.889235 47.874118 
L 162.305561 48.003068 
L 165.721888 48.182117 
L 169.138214 48.226702 
L 172.554541 48.233338 
L 175.970867 48.234233 
L 179.387194 48.232084 
L 182.80352 48.228948 
L 186.219847 48.226271 
L 189.636173 48.22502 
L 193.0525 48.225824 
" style="fill:none;opacity:0.5;stroke:#37b878;stroke-linecap:square;stroke-width:0.3;"/>
   </g>
   <g id="line2d_79">
    <path clip-path="url(#p75d79074e0)" d="M 25.6525 181.023448 
L 29.068827 177.446678 
L 32.485153 171.026273 
L 35.90148 167.772053 
L 39.317806 163.111297 
L 42.734133 156.834876 
L 46.150459 140.18719 
L 49.566786 128.267668 
L 52.983112 119.418451 
L 56.399439 108.55735 
L 59.815765 101.600079 
L 63.232092 94.785733 
L 66.648418 90.989401 
L 70.064745 83.409313 
L 73.481071 78.074404 
L 76.897398 73.762805 
L 80.313724 63.572601 
L 83.730051 61.279507 
L 87.146378 58.957235 
L 90.562704 57.074383 
L 93.979031 55.895275 
L 97.395357 53.520392 
L 100.811684 51.239399 
L 104.22801 50.071497 
L 107.644337 48.79822 
L 111.060663 46.642956 
L 114.47699 46.955488 
L 117.893316 46.058331 
L 121.309643 46.571247 
L 124.725969 46.962458 
L 128.142296 47.536976 
L 131.558622 46.779159 
L 134.974949 45.833996 
L 138.391276 45.985316 
L 141.807602 45.418978 
L 145.223929 45.225284 
L 148.640255 45.224379 
L 152.056582 45.221884 
L 155.472908 45.218704 
L 158.889235 45.215424 
L 162.305561 45.212456 
L 165.721888 45.210062 
L 169.138214 45.2084 
L 172.554541 45.207567 
L 175.970867 45.207629 
L 179.387194 45.20865 
L 182.80352 45.210705 
L 186.219847 45.213891 
L 189.636173 45.218341 
L 193.0525 45.224229 
" style="fill:none;opacity:0.5;stroke:#37b878;stroke-linecap:square;stroke-width:0.3;"/>
   </g>
   <g id="line2d_80">
    <path clip-path="url(#p75d79074e0)" d="M 25.6525 177.429343 
L 29.068827 168.260821 
L 32.485153 159.974023 
L 35.90148 144.132895 
L 39.317806 129.057325 
L 42.734133 118.651812 
L 46.150459 107.532086 
L 49.566786 97.626429 
L 52.983112 92.390905 
L 56.399439 87.281537 
L 59.815765 74.793693 
L 63.232092 73.410163 
L 66.648418 70.487899 
L 70.064745 62.365867 
L 73.481071 62.6616 
L 76.897398 57.931506 
L 80.313724 57.132056 
L 83.730051 55.206994 
L 87.146378 52.711834 
L 90.562704 51.914057 
L 93.979031 47.331534 
L 97.395357 46.168016 
L 100.811684 46.336002 
L 104.22801 45.067342 
L 107.644337 45.907515 
L 111.060663 45.647544 
L 114.47699 45.913651 
L 117.893316 44.798305 
L 121.309643 44.617562 
L 124.725969 44.329565 
L 128.142296 43.609084 
L 131.558622 44.004252 
L 134.974949 43.233785 
L 138.391276 42.922091 
L 141.807602 42.971802 
L 145.223929 43.016993 
L 148.640255 43.053014 
L 152.056582 43.081015 
L 155.472908 43.102316 
L 158.889235 43.118112 
L 162.305561 43.129396 
L 165.721888 43.136967 
L 169.138214 43.141466 
L 172.554541 43.143406 
L 175.970867 43.143206 
L 179.387194 43.141206 
L 182.80352 43.137689 
L 186.219847 43.132893 
L 189.636173 43.127018 
L 193.0525 43.120236 
" style="fill:none;opacity:0.5;stroke:#37b878;stroke-linecap:square;stroke-width:0.3;"/>
   </g>
   <g id="line2d_81">
    <path clip-path="url(#p75d79074e0)" d="M 25.6525 161.338896 
L 29.068827 151.892374 
L 32.485153 142.721487 
L 35.90148 131.909297 
L 39.317806 119.957153 
L 42.734133 106.388804 
L 46.150459 93.522371 
L 49.566786 84.644041 
L 52.983112 77.488393 
L 56.399439 71.27816 
L 59.815765 68.824498 
L 63.232092 65.255273 
L 66.648418 58.177905 
L 70.064745 58.705387 
L 73.481071 56.212201 
L 76.897398 50.747337 
L 80.313724 50.545248 
L 83.730051 48.145914 
L 87.146378 50.608276 
L 90.562704 49.183427 
L 93.979031 48.928572 
L 97.395357 50.182358 
L 100.811684 48.68699 
L 104.22801 47.202946 
L 107.644337 46.579291 
L 111.060663 47.037218 
L 114.47699 46.687849 
L 117.893316 46.086663 
L 121.309643 46.499608 
L 124.725969 46.006891 
L 128.142296 45.97905 
L 131.558622 45.959081 
L 134.974949 45.944732 
L 138.391276 45.934438 
L 141.807602 45.927124 
L 145.223929 45.922051 
L 148.640255 45.918716 
L 152.056582 45.916776 
L 155.472908 45.916004 
L 158.889235 45.916255 
L 162.305561 45.917449 
L 165.721888 45.919554 
L 169.138214 45.922581 
L 172.554541 45.926579 
L 175.970867 45.931631 
L 179.387194 45.93786 
L 182.80352 45.945429 
L 186.219847 45.954543 
L 189.636173 45.965458 
L 193.0525 45.978489 
" style="fill:none;opacity:0.5;stroke:#37b878;stroke-linecap:square;stroke-width:0.3;"/>
   </g>
   <g id="line2d_82">
    <path clip-path="url(#p75d79074e0)" d="M 25.6525 145.975947 
L 29.068827 129.00872 
L 32.485153 116.20593 
L 35.90148 103.665518 
L 39.317806 93.943479 
L 42.734133 84.434505 
L 46.150459 76.361067 
L 49.566786 70.210246 
L 52.983112 66.553965 
L 56.399439 61.108096 
L 59.815765 58.269952 
L 63.232092 56.736842 
L 66.648418 53.851674 
L 70.064745 49.717429 
L 73.481071 46.752768 
L 76.897398 45.797279 
L 80.313724 44.453439 
L 83.730051 46.08908 
L 87.146378 45.492046 
L 90.562704 43.353822 
L 93.979031 42.933811 
L 97.395357 42.440929 
L 100.811684 41.530782 
L 104.22801 43.272976 
L 107.644337 42.047112 
L 111.060663 43.117769 
L 114.47699 43.43716 
L 117.893316 43.765238 
L 121.309643 42.97046 
L 124.725969 42.577055 
L 128.142296 42.601921 
L 131.558622 42.624934 
L 134.974949 42.645528 
L 138.391276 42.663487 
L 141.807602 42.678814 
L 145.223929 42.69164 
L 148.640255 42.702175 
L 152.056582 42.710662 
L 155.472908 42.71736 
L 158.889235 42.722525 
L 162.305561 42.726405 
L 165.721888 42.729233 
L 169.138214 42.731227 
L 172.554541 42.732592 
L 175.970867 42.733522 
L 179.387194 42.734203 
L 182.80352 42.734818 
L 186.219847 42.735552 
L 189.636173 42.736596 
L 193.0525 42.738153 
" style="fill:none;opacity:0.5;stroke:#37b878;stroke-linecap:square;stroke-width:0.3;"/>
   </g>
   <g id="line2d_83">
    <path clip-path="url(#p75d79074e0)" d="M 25.6525 181.023448 
L 29.068827 181.023448 
L 32.485153 174.890312 
L 35.90148 172.975946 
L 39.317806 167.819559 
L 42.734133 166.029604 
L 46.150459 165.626111 
L 49.566786 163.80149 
L 52.983112 159.687649 
L 56.399439 151.676843 
L 59.815765 148.575615 
L 63.232092 136.835216 
L 66.648418 133.702932 
L 70.064745 128.557027 
L 73.481071 116.663378 
L 76.897398 107.10577 
L 80.313724 97.70715 
L 83.730051 93.04502 
L 87.146378 86.920355 
L 90.562704 81.765726 
L 93.979031 71.807409 
L 97.395357 64.716154 
L 100.811684 61.450472 
L 104.22801 56.356727 
L 107.644337 59.246369 
L 111.060663 56.367192 
L 114.47699 52.500008 
L 117.893316 53.057791 
L 121.309643 52.072844 
L 124.725969 49.701741 
L 128.142296 49.501752 
L 131.558622 49.112216 
L 134.974949 48.122114 
L 138.391276 48.411693 
L 141.807602 46.889461 
L 145.223929 46.480414 
L 148.640255 46.008358 
L 152.056582 46.372558 
L 155.472908 47.07576 
L 158.889235 46.792476 
L 162.305561 46.38609 
L 165.721888 46.65858 
L 169.138214 46.384268 
L 172.554541 46.387137 
L 175.970867 46.390233 
L 179.387194 46.393222 
L 182.80352 46.395953 
L 186.219847 46.398363 
L 189.636173 46.400421 
L 193.0525 46.402097 
" style="fill:none;opacity:0.5;stroke:#37b878;stroke-linecap:square;stroke-width:0.3;"/>
   </g>
   <g id="line2d_84">
    <path clip-path="url(#p75d79074e0)" d="M 25.6525 181.023448 
L 29.068827 179.225474 
L 32.485153 171.733769 
L 35.90148 161.081358 
L 39.317806 150.866682 
L 42.734133 140.208967 
L 46.150459 127.769813 
L 49.566786 117.02497 
L 52.983112 111.476426 
L 56.399439 100.703671 
L 59.815765 94.283731 
L 63.232092 90.447716 
L 66.648418 81.840898 
L 70.064745 72.887155 
L 73.481071 68.96343 
L 76.897398 59.809767 
L 80.313724 59.445382 
L 83.730051 57.495245 
L 87.146378 51.381669 
L 90.562704 51.604969 
L 93.979031 51.305073 
L 97.395357 52.11833 
L 100.811684 51.159863 
L 104.22801 50.097316 
L 107.644337 49.358071 
L 111.060663 49.148939 
L 114.47699 46.79931 
L 117.893316 47.317896 
L 121.309643 46.819334 
L 124.725969 45.195768 
L 128.142296 46.136753 
L 131.558622 45.379728 
L 134.974949 45.830193 
L 138.391276 45.369393 
L 141.807602 45.362312 
L 145.223929 45.556771 
L 148.640255 45.35632 
L 152.056582 45.354123 
L 155.472908 45.352475 
L 158.889235 45.351154 
L 162.305561 45.350044 
L 165.721888 45.349088 
L 169.138214 45.348265 
L 172.554541 45.347582 
L 175.970867 45.347064 
L 179.387194 45.346754 
L 182.80352 45.346714 
L 186.219847 45.347021 
L 189.636173 45.347769 
L 193.0525 45.349077 
" style="fill:none;opacity:0.5;stroke:#37b878;stroke-linecap:square;stroke-width:0.3;"/>
   </g>
   <g id="line2d_85">
    <path clip-path="url(#p75d79074e0)" d="M 25.6525 166.882013 
L 29.068827 160.852914 
L 32.485153 147.495772 
L 35.90148 135.414781 
L 39.317806 124.81347 
L 42.734133 115.481615 
L 46.150459 101.314515 
L 49.566786 99.915361 
L 52.983112 90.607979 
L 56.399439 85.14411 
L 59.815765 77.165192 
L 63.232092 66.740866 
L 66.648418 59.629694 
L 70.064745 58.992682 
L 73.481071 54.02883 
L 76.897398 54.873264 
L 80.313724 52.303204 
L 83.730051 52.26498 
L 87.146378 51.84474 
L 90.562704 47.002414 
L 93.979031 46.490723 
L 97.395357 45.018638 
L 100.811684 45.495925 
L 104.22801 44.994389 
L 107.644337 43.23205 
L 111.060663 43.41476 
L 114.47699 43.68411 
L 117.893316 43.274614 
L 121.309643 44.071303 
L 124.725969 43.095841 
L 128.142296 44.367486 
L 131.558622 43.76264 
L 134.974949 43.751 
L 138.391276 43.732248 
L 141.807602 43.709895 
L 145.223929 43.686511 
L 148.640255 43.663775 
L 152.056582 43.64266 
L 155.472908 43.623642 
L 158.889235 43.606866 
L 162.305561 43.592282 
L 165.721888 43.579729 
L 169.138214 43.568993 
L 172.554541 43.559841 
L 175.970867 43.552047 
L 179.387194 43.545397 
L 182.80352 43.539698 
L 186.219847 43.534777 
L 189.636173 43.53048 
L 193.0525 43.52667 
" style="fill:none;opacity:0.5;stroke:#37b878;stroke-linecap:square;stroke-width:0.3;"/>
   </g>
   <g id="line2d_86">
    <path clip-path="url(#p75d79074e0)" d="M 25.6525 177.429344 
L 29.068827 170.031553 
L 32.485153 160.784561 
L 35.90148 148.718043 
L 39.317806 139.647582 
L 42.734133 120.34088 
L 46.150459 112.485792 
L 49.566786 107.690861 
L 52.983112 99.81544 
L 56.399439 95.725447 
L 59.815765 86.439632 
L 63.232092 78.984034 
L 66.648418 74.096167 
L 70.064745 70.074047 
L 73.481071 62.50281 
L 76.897398 55.577006 
L 80.313724 51.94226 
L 83.730051 50.560113 
L 87.146378 46.798958 
L 90.562704 48.045661 
L 93.979031 49.511092 
L 97.395357 45.085259 
L 100.811684 42.670455 
L 104.22801 41.70347 
L 107.644337 41.180015 
L 111.060663 42.488633 
L 114.47699 40.788929 
L 117.893316 41.368929 
L 121.309643 40.479436 
L 124.725969 39.487022 
L 128.142296 39.967782 
L 131.558622 38.322772 
L 134.974949 39.171363 
L 138.391276 38.349694 
L 141.807602 38.499359 
L 145.223929 38.411479 
L 148.640255 38.437331 
L 152.056582 38.459959 
L 155.472908 38.479721 
L 158.889235 38.496792 
L 162.305561 38.511349 
L 165.721888 38.523581 
L 169.138214 38.533692 
L 172.554541 38.541905 
L 175.970867 38.548452 
L 179.387194 38.553571 
L 182.80352 38.557506 
L 186.219847 38.560494 
L 189.636173 38.562775 
L 193.0525 38.564582 
" style="fill:none;opacity:0.5;stroke:#37b878;stroke-linecap:square;stroke-width:0.3;"/>
   </g>
   <g id="line2d_87">
    <path clip-path="url(#p75d79074e0)" d="M 25.6525 181.023448 
L 29.068827 181.023448 
L 32.485153 181.023448 
L 35.90148 181.023448 
L 39.317806 181.023448 
L 42.734133 179.225474 
L 46.150459 173.275497 
L 49.566786 169.609268 
L 52.983112 166.06672 
L 56.399439 159.840397 
L 59.815765 147.562134 
L 63.232092 141.563845 
L 66.648418 129.423584 
L 70.064745 123.173244 
L 73.481071 109.223212 
L 76.897398 102.330491 
L 80.313724 99.159721 
L 83.730051 93.230661 
L 87.146378 89.000032 
L 90.562704 87.934129 
L 93.979031 81.918522 
L 97.395357 78.259767 
L 100.811684 72.067011 
L 104.22801 65.115528 
L 107.644337 62.109812 
L 111.060663 53.971099 
L 114.47699 52.171593 
L 117.893316 48.692682 
L 121.309643 45.604476 
L 124.725969 46.475964 
L 128.142296 47.248069 
L 131.558622 45.562373 
L 134.974949 46.905167 
L 138.391276 44.926959 
L 141.807602 45.154048 
L 145.223929 43.686654 
L 148.640255 42.166405 
L 152.056582 42.851858 
L 155.472908 42.487343 
L 158.889235 42.295357 
L 162.305561 42.298431 
L 165.721888 41.736321 
L 169.138214 41.708832 
L 172.554541 41.690769 
L 175.970867 41.679619 
L 179.387194 41.673523 
L 182.80352 41.671173 
L 186.219847 41.671705 
L 189.636173 41.674604 
L 193.0525 41.679627 
" style="fill:none;opacity:0.5;stroke:#37b878;stroke-linecap:square;stroke-width:0.3;"/>
   </g>
   <g id="line2d_88">
    <path clip-path="url(#p75d79074e0)" d="M 25.6525 173.301675 
L 29.068827 168.31132 
L 32.485153 160.842504 
L 35.90148 148.036398 
L 39.317806 133.652948 
L 42.734133 118.921663 
L 46.150459 112.907992 
L 49.566786 106.349586 
L 52.983112 98.952223 
L 56.399439 90.542329 
L 59.815765 82.693677 
L 63.232092 78.660249 
L 66.648418 74.929242 
L 70.064745 67.280835 
L 73.481071 65.129079 
L 76.897398 60.401145 
L 80.313724 56.902139 
L 83.730051 54.249837 
L 87.146378 51.728912 
L 90.562704 51.257913 
L 93.979031 46.945925 
L 97.395357 46.274354 
L 100.811684 44.641038 
L 104.22801 44.851867 
L 107.644337 42.345321 
L 111.060663 41.198029 
L 114.47699 42.758717 
L 117.893316 43.753447 
L 121.309643 42.089005 
L 124.725969 41.80926 
L 128.142296 41.891452 
L 131.558622 42.558827 
L 134.974949 42.472097 
L 138.391276 42.353748 
L 141.807602 42.34537 
L 145.223929 42.338877 
L 148.640255 42.333795 
L 152.056582 42.329653 
L 155.472908 42.326097 
L 158.889235 42.322894 
L 162.305561 42.319905 
L 165.721888 42.317044 
L 169.138214 42.314264 
L 172.554541 42.311536 
L 175.970867 42.308842 
L 179.387194 42.306171 
L 182.80352 42.303518 
L 186.219847 42.30088 
L 189.636173 42.298258 
L 193.0525 42.29566 
" style="fill:none;opacity:0.5;stroke:#37b878;stroke-linecap:square;stroke-width:0.3;"/>
   </g>
   <g id="line2d_89">
    <path clip-path="url(#p75d79074e0)" d="M 25.6525 181.023448 
L 29.068827 181.023448 
L 32.485153 177.434164 
L 35.90148 177.430269 
L 39.317806 174.315154 
L 42.734133 165.532844 
L 46.150459 153.189844 
L 49.566786 138.210616 
L 52.983112 126.613511 
L 56.399439 119.269334 
L 59.815765 110.92409 
L 63.232092 103.999643 
L 66.648418 95.584238 
L 70.064745 89.165247 
L 73.481071 81.640455 
L 76.897398 79.412456 
L 80.313724 75.354699 
L 83.730051 70.152849 
L 87.146378 65.521427 
L 90.562704 59.233424 
L 93.979031 55.216956 
L 97.395357 51.552781 
L 100.811684 49.827561 
L 104.22801 51.843683 
L 107.644337 51.683925 
L 111.060663 50.349289 
L 114.47699 51.34112 
L 117.893316 50.320243 
L 121.309643 48.248439 
L 124.725969 47.098867 
L 128.142296 49.955399 
L 131.558622 48.35326 
L 134.974949 48.308419 
L 138.391276 48.879775 
L 141.807602 49.187539 
L 145.223929 48.730568 
L 148.640255 48.736597 
L 152.056582 48.708933 
L 155.472908 48.684217 
L 158.889235 48.662728 
L 162.305561 48.644391 
L 165.721888 48.628962 
L 169.138214 48.616138 
L 172.554541 48.605622 
L 175.970867 48.597147 
L 179.387194 48.590497 
L 182.80352 48.585514 
L 186.219847 48.582094 
L 189.636173 48.580194 
L 193.0525 48.579835 
" style="fill:none;opacity:0.5;stroke:#37b878;stroke-linecap:square;stroke-width:0.3;"/>
   </g>
   <g id="line2d_90">
    <path clip-path="url(#p75d79074e0)" d="M 25.6525 164.441893 
L 29.068827 158.302304 
L 32.485153 150.448865 
L 35.90148 141.790316 
L 39.317806 133.7726 
L 42.734133 124.597293 
L 46.150459 116.672023 
L 49.566786 108.256305 
L 52.983112 101.119637 
L 56.399439 94.447115 
L 59.815765 88.051661 
L 63.232092 82.365043 
L 66.648418 76.825593 
L 70.064745 71.671147 
L 73.481071 66.868386 
L 76.897398 62.613358 
L 80.313724 58.64641 
L 83.730051 56.10214 
L 87.146378 54.201713 
L 90.562704 52.611857 
L 93.979031 50.239512 
L 97.395357 49.137162 
L 100.811684 47.796422 
L 104.22801 46.684545 
L 107.644337 46.275753 
L 111.060663 45.312038 
L 114.47699 44.929395 
L 117.893316 44.481233 
L 121.309643 44.193721 
L 124.725969 43.951017 
L 128.142296 43.826403 
L 131.558622 43.707289 
L 134.974949 43.59835 
L 138.391276 43.443723 
L 141.807602 43.292046 
L 145.223929 43.204801 
L 148.640255 43.108822 
L 152.056582 43.140266 
L 155.472908 43.127164 
L 158.889235 43.097467 
L 162.305561 43.126733 
L 165.721888 43.096073 
L 169.138214 43.094379 
L 172.554541 43.093048 
L 175.970867 43.091923 
L 179.387194 43.091063 
L 182.80352 43.090531 
L 186.219847 43.090395 
L 189.636173 43.090732 
L 193.0525 43.09163 
" style="fill:none;stroke:#37b878;stroke-linecap:square;stroke-width:2;"/>
   </g>
   <g id="patch_3">
    <path d="M 25.6525 177.02 
L 25.6525 10.7 
" style="fill:none;stroke:#000000;stroke-linecap:square;stroke-linejoin:miter;stroke-width:0.8;"/>
   </g>
   <g id="patch_4">
    <path d="M 193.0525 177.02 
L 193.0525 10.7 
" style="fill:none;stroke:#000000;stroke-linecap:square;stroke-linejoin:miter;stroke-width:0.8;"/>
   </g>
   <g id="patch_5">
    <path d="M 25.6525 177.02 
L 193.0525 177.02 
" style="fill:none;stroke:#000000;stroke-linecap:square;stroke-linejoin:miter;stroke-width:0.8;"/>
   </g>
   <g id="patch_6">
    <path d="M 25.6525 10.7 
L 193.0525 10.7 
" style="fill:none;stroke:#000000;stroke-linecap:square;stroke-linejoin:miter;stroke-width:0.8;"/>
   </g>
  </g>
 </g>
 <defs>
  <clipPath id="p75d79074e0">
   <rect height="166.32" width="167.4" x="25.6525" y="10.7"/>
  </clipPath>
 </defs>
</svg>
