<?xml version="1.0" encoding="utf-8" standalone="no"?>
<!DOCTYPE svg PUBLIC "-//W3C//DTD SVG 1.1//EN"
  "http://www.w3.org/Graphics/SVG/1.1/DTD/svg11.dtd">
<!-- Created with matplotlib (http://matplotlib.org/) -->
<svg height="196pt" version="1.1" viewBox="0 0 241 196" width="241pt" xmlns="http://www.w3.org/2000/svg" xmlns:xlink="http://www.w3.org/1999/xlink">
 <defs>
  <style type="text/css">
*{stroke-linecap:butt;stroke-linejoin:round;}
  </style>
 </defs>
 <g id="figure_1">
  <g id="patch_1">
   <path d="M 0 196.205 
L 241.3325 196.205 
L 241.3325 0 
L 0 0 
z
" style="fill:#ffffff;"/>
  </g>
  <g id="axes_1">
   <g id="patch_2">
    <path d="M 63.2325 179.59875 
L 230.6325 179.59875 
L 230.6325 13.27875 
L 63.2325 13.27875 
z
" style="fill:#ffffff;"/>
   </g>
   <g id="PolyCollection_1">
    <defs>
     <path d="M 64.127687 -175.774996 
L 64.127687 -99.76625 
L 65.918061 -99.76625 
L 67.708436 -99.76625 
L 69.49881 -99.76625 
L 71.289184 -99.76625 
L 73.079559 -99.76625 
L 74.869933 -99.76625 
L 76.660307 -99.76625 
L 78.450682 -99.76625 
L 80.241056 -99.76625 
L 82.03143 -99.76625 
L 83.821805 -99.76625 
L 85.612179 -99.76625 
L 87.402553 -99.76625 
L 89.192928 -99.76625 
L 90.983302 -99.76625 
L 92.773676 -99.76625 
L 94.564051 -99.76625 
L 96.354425 -99.76625 
L 98.144799 -99.76625 
L 99.935174 -99.76625 
L 101.725548 -99.76625 
L 103.515922 -99.76625 
L 105.306297 -99.76625 
L 107.096671 -99.76625 
L 108.887045 -99.76625 
L 110.67742 -99.76625 
L 112.467794 -99.76625 
L 114.258168 -99.76625 
L 116.048543 -99.76625 
L 117.838917 -99.76625 
L 119.629291 -99.76625 
L 121.419666 -99.76625 
L 123.21004 -99.76625 
L 125.000414 -99.76625 
L 126.790789 -99.76625 
L 128.581163 -99.76625 
L 130.371537 -99.76625 
L 132.161912 -99.76625 
L 133.952286 -99.76625 
L 135.74266 -99.76625 
L 137.533035 -99.76625 
L 139.323409 -99.76625 
L 141.113783 -99.76625 
L 142.904158 -99.76625 
L 144.694532 -99.76625 
L 146.484906 -99.76625 
L 148.275281 -99.76625 
L 150.065655 -99.76625 
L 151.856029 -99.76625 
L 153.646404 -99.76625 
L 155.436778 -99.76625 
L 157.227152 -99.76625 
L 159.017527 -99.76625 
L 160.807901 -99.76625 
L 162.598275 -99.76625 
L 164.38865 -99.76625 
L 166.179024 -99.76625 
L 167.969398 -99.76625 
L 169.759773 -99.76625 
L 171.550147 -99.76625 
L 173.340521 -99.76625 
L 175.130896 -99.76625 
L 176.92127 -99.76625 
L 178.711644 -99.76625 
L 180.502019 -99.76625 
L 182.292393 -99.76625 
L 184.082767 -99.76625 
L 185.873142 -99.76625 
L 187.663516 -99.76625 
L 189.45389 -99.76625 
L 191.244265 -99.76625 
L 193.034639 -99.76625 
L 194.825013 -99.76625 
L 196.615388 -99.76625 
L 198.405762 -99.76625 
L 200.196136 -99.76625 
L 201.986511 -99.76625 
L 203.776885 -99.76625 
L 205.567259 -99.76625 
L 207.357634 -99.76625 
L 209.148008 -99.76625 
L 210.938382 -99.76625 
L 212.728757 -99.76625 
L 214.519131 -99.76625 
L 216.309505 -99.76625 
L 218.09988 -99.76625 
L 219.890254 -99.76625 
L 221.680628 -99.76625 
L 223.471003 -99.76625 
L 225.261377 -99.76625 
L 227.051751 -99.76625 
L 228.842126 -99.76625 
L 228.842126 -34.461291 
L 228.842126 -34.461291 
L 227.051751 -34.667218 
L 225.261377 -50.838584 
L 223.471003 -53.246843 
L 221.680628 -53.971154 
L 219.890254 -62.000869 
L 218.09988 -64.871361 
L 216.309505 -65.527747 
L 214.519131 -66.622599 
L 212.728757 -69.215301 
L 210.938382 -75.394957 
L 209.148008 -82.111339 
L 207.357634 -82.374103 
L 205.567259 -89.862434 
L 203.776885 -90.850419 
L 201.986511 -93.314161 
L 200.196136 -94.953941 
L 198.405762 -95.38896 
L 196.615388 -96.145755 
L 194.825013 -96.444145 
L 193.034639 -96.779111 
L 191.244265 -96.814728 
L 189.45389 -96.931833 
L 187.663516 -97.634456 
L 185.873142 -97.651085 
L 184.082767 -98.031483 
L 182.292393 -98.4264 
L 180.502019 -98.593714 
L 178.711644 -98.886974 
L 176.92127 -98.901031 
L 175.130896 -98.972952 
L 173.340521 -99.040099 
L 171.550147 -99.115542 
L 169.759773 -99.130686 
L 167.969398 -99.262523 
L 166.179024 -99.312893 
L 164.38865 -99.386526 
L 162.598275 -99.418175 
L 160.807901 -99.507772 
L 159.017527 -99.551527 
L 157.227152 -99.591934 
L 155.436778 -99.647745 
L 153.646404 -99.651866 
L 151.856029 -99.653734 
L 150.065655 -99.697948 
L 148.275281 -99.790731 
L 146.484906 -99.838429 
L 144.694532 -99.847106 
L 142.904158 -99.92901 
L 141.113783 -99.930001 
L 139.323409 -99.968135 
L 137.533035 -99.97119 
L 135.74266 -99.989615 
L 133.952286 -100.02065 
L 132.161912 -100.063434 
L 130.371537 -100.504804 
L 128.581163 -101.209823 
L 126.790789 -101.352881 
L 125.000414 -101.782951 
L 123.21004 -101.828704 
L 121.419666 -102.341657 
L 119.629291 -103.389517 
L 117.838917 -104.609807 
L 116.048543 -105.273886 
L 114.258168 -106.055835 
L 112.467794 -106.643296 
L 110.67742 -107.302853 
L 108.887045 -107.38304 
L 107.096671 -107.47943 
L 105.306297 -109.444616 
L 103.515922 -111.70596 
L 101.725548 -113.404731 
L 99.935174 -114.177745 
L 98.144799 -118.315641 
L 96.354425 -120.895754 
L 94.564051 -122.567424 
L 92.773676 -124.122757 
L 90.983302 -124.503761 
L 89.192928 -127.182272 
L 87.402553 -127.460699 
L 85.612179 -135.498297 
L 83.821805 -136.175078 
L 82.03143 -139.657087 
L 80.241056 -142.0382 
L 78.450682 -142.117725 
L 76.660307 -142.517856 
L 74.869933 -143.079683 
L 73.079559 -145.556063 
L 71.289184 -151.073583 
L 69.49881 -156.48992 
L 67.708436 -159.357339 
L 65.918061 -174.966811 
L 64.127687 -175.774996 
z
" id="m8ad7aed150" style="stroke:#582f93;"/>
    </defs>
    <g clip-path="url(#p9c6d7e66f0)">
     <use style="fill:#582f93;stroke:#582f93;" x="0" xlink:href="#m8ad7aed150" y="196.205"/>
    </g>
   </g>
   <g id="PolyCollection_2">
    <defs>
     <path d="M 64.843837 -117.179476 
L 64.843837 -99.76625 
L 66.634211 -99.76625 
L 68.424586 -99.76625 
L 70.21496 -99.76625 
L 72.005334 -99.76625 
L 73.795709 -99.76625 
L 75.586083 -99.76625 
L 77.376457 -99.76625 
L 79.166832 -99.76625 
L 80.957206 -99.76625 
L 82.74758 -99.76625 
L 84.537955 -99.76625 
L 86.328329 -99.76625 
L 88.118703 -99.76625 
L 89.909078 -99.76625 
L 91.699452 -99.76625 
L 93.489826 -99.76625 
L 95.280201 -99.76625 
L 97.070575 -99.76625 
L 98.860949 -99.76625 
L 100.651324 -99.76625 
L 102.441698 -99.76625 
L 104.232072 -99.76625 
L 106.022447 -99.76625 
L 107.812821 -99.76625 
L 109.603195 -99.76625 
L 111.39357 -99.76625 
L 113.183944 -99.76625 
L 114.974318 -99.76625 
L 116.764693 -99.76625 
L 118.555067 -99.76625 
L 120.345441 -99.76625 
L 122.135816 -99.76625 
L 123.92619 -99.76625 
L 125.716564 -99.76625 
L 127.506939 -99.76625 
L 129.297313 -99.76625 
L 131.087687 -99.76625 
L 132.878061 -99.76625 
L 134.668436 -99.76625 
L 136.45881 -99.76625 
L 138.249184 -99.76625 
L 140.039559 -99.76625 
L 141.829933 -99.76625 
L 143.620307 -99.76625 
L 145.410682 -99.76625 
L 147.201056 -99.76625 
L 148.99143 -99.76625 
L 150.781805 -99.76625 
L 152.572179 -99.76625 
L 154.362553 -99.76625 
L 156.152928 -99.76625 
L 157.943302 -99.76625 
L 159.733676 -99.76625 
L 161.524051 -99.76625 
L 163.314425 -99.76625 
L 165.104799 -99.76625 
L 166.895174 -99.76625 
L 168.685548 -99.76625 
L 170.475922 -99.76625 
L 172.266297 -99.76625 
L 174.056671 -99.76625 
L 175.847045 -99.76625 
L 177.63742 -99.76625 
L 179.427794 -99.76625 
L 181.218168 -99.76625 
L 183.008543 -99.76625 
L 184.798917 -99.76625 
L 186.589291 -99.76625 
L 188.379666 -99.76625 
L 190.17004 -99.76625 
L 191.960414 -99.76625 
L 193.750789 -99.76625 
L 195.541163 -99.76625 
L 197.331537 -99.76625 
L 199.121912 -99.76625 
L 200.912286 -99.76625 
L 202.70266 -99.76625 
L 204.493035 -99.76625 
L 206.283409 -99.76625 
L 208.073783 -99.76625 
L 209.864158 -99.76625 
L 211.654532 -99.76625 
L 213.444906 -99.76625 
L 215.235281 -99.76625 
L 217.025655 -99.76625 
L 218.816029 -99.76625 
L 220.606404 -99.76625 
L 222.396778 -99.76625 
L 224.187152 -99.76625 
L 225.977527 -99.76625 
L 227.767901 -99.76625 
L 229.558275 -99.76625 
L 229.558275 -72.292162 
L 229.558275 -72.292162 
L 227.767901 -80.896645 
L 225.977527 -86.088432 
L 224.187152 -92.426168 
L 222.396778 -80.393085 
L 220.606404 -86.696573 
L 218.816029 -94.896701 
L 217.025655 -79.245759 
L 215.235281 -86.631969 
L 213.444906 -92.875868 
L 211.654532 -97.207549 
L 209.864158 -96.081597 
L 208.073783 -98.818742 
L 206.283409 -99.617668 
L 204.493035 -99.070451 
L 202.70266 -98.116094 
L 200.912286 -98.313679 
L 199.121912 -99.961284 
L 197.331537 -101.271622 
L 195.541163 -95.412632 
L 193.750789 -100.04031 
L 191.960414 -97.897974 
L 190.17004 -97.50834 
L 188.379666 -99.914226 
L 186.589291 -99.567779 
L 184.798917 -98.932483 
L 183.008543 -99.369627 
L 181.218168 -100.818778 
L 179.427794 -99.776964 
L 177.63742 -99.108829 
L 175.847045 -99.899693 
L 174.056671 -98.718946 
L 172.266297 -100.397635 
L 170.475922 -99.809799 
L 168.685548 -95.09198 
L 166.895174 -99.911796 
L 165.104799 -102.846031 
L 163.314425 -99.879385 
L 161.524051 -99.535397 
L 159.733676 -101.646379 
L 157.943302 -99.630544 
L 156.152928 -100.04162 
L 154.362553 -98.428481 
L 152.572179 -99.946625 
L 150.781805 -99.605696 
L 148.99143 -98.9783 
L 147.201056 -99.514729 
L 145.410682 -99.78373 
L 143.620307 -99.2006 
L 141.829933 -100.604893 
L 140.039559 -99.628998 
L 138.249184 -99.380204 
L 136.45881 -99.255505 
L 134.668436 -99.419082 
L 132.878061 -101.097811 
L 131.087687 -100.511067 
L 129.297313 -109.811773 
L 127.506939 -99.658372 
L 125.716564 -102.960328 
L 123.92619 -105.911591 
L 122.135816 -100.24559 
L 120.345441 -106.400058 
L 118.555067 -101.128271 
L 116.764693 -101.41542 
L 114.974318 -100.364528 
L 113.183944 -112.57912 
L 111.39357 -99.583493 
L 109.603195 -104.879564 
L 107.812821 -107.647132 
L 106.022447 -107.446517 
L 104.232072 -115.220547 
L 102.441698 -104.699148 
L 100.651324 -102.154527 
L 98.860949 -104.167563 
L 97.070575 -100.42272 
L 95.280201 -105.716494 
L 93.489826 -103.977339 
L 91.699452 -111.350747 
L 89.909078 -106.758395 
L 88.118703 -116.059662 
L 86.328329 -104.356532 
L 84.537955 -102.596557 
L 82.74758 -106.93817 
L 80.957206 -106.541379 
L 79.166832 -106.480779 
L 77.376457 -119.86467 
L 75.586083 -110.988401 
L 73.795709 -115.026859 
L 72.005334 -104.82813 
L 70.21496 -107.896824 
L 68.424586 -113.462952 
L 66.634211 -117.496394 
L 64.843837 -117.179476 
z
" id="mf5864f39b0" style="stroke:#73c476;stroke-opacity:0.75;"/>
    </defs>
    <g clip-path="url(#p9c6d7e66f0)">
     <use style="fill:#73c476;fill-opacity:0.75;stroke:#73c476;stroke-opacity:0.75;" x="0" xlink:href="#mf5864f39b0" y="196.205"/>
    </g>
   </g>
   <g id="matplotlib.axis_1"/>
   <g id="matplotlib.axis_2">
    <g id="ytick_1">
     <g id="line2d_1">
      <defs>
       <path d="M 0 0 
L -3.5 0 
" id="mcae3f1ba73" style="stroke:#000000;stroke-width:0.8;"/>
      </defs>
      <g>
       <use style="stroke:#000000;stroke-width:0.8;" x="63.2325" xlink:href="#mcae3f1ba73" y="179.59875"/>
      </g>
     </g>
     <g id="text_1">
      <!-- −0.01 -->
      <defs>
       <path d="M 10.59375 35.5 
L 73.1875 35.5 
L 73.1875 27.203125 
L 10.59375 27.203125 
z
" id="DejaVuSans-2212"/>
       <path d="M 31.78125 66.40625 
Q 24.171875 66.40625 20.328125 58.90625 
Q 16.5 51.421875 16.5 36.375 
Q 16.5 21.390625 20.328125 13.890625 
Q 24.171875 6.390625 31.78125 6.390625 
Q 39.453125 6.390625 43.28125 13.890625 
Q 47.125 21.390625 47.125 36.375 
Q 47.125 51.421875 43.28125 58.90625 
Q 39.453125 66.40625 31.78125 66.40625 
z
M 31.78125 74.21875 
Q 44.046875 74.21875 50.515625 64.515625 
Q 56.984375 54.828125 56.984375 36.375 
Q 56.984375 17.96875 50.515625 8.265625 
Q 44.046875 -1.421875 31.78125 -1.421875 
Q 19.53125 -1.421875 13.0625 8.265625 
Q 6.59375 17.96875 6.59375 36.375 
Q 6.59375 54.828125 13.0625 64.515625 
Q 19.53125 74.21875 31.78125 74.21875 
z
" id="DejaVuSans-30"/>
       <path d="M 10.6875 12.40625 
L 21 12.40625 
L 21 0 
L 10.6875 0 
z
" id="DejaVuSans-2e"/>
       <path d="M 12.40625 8.296875 
L 28.515625 8.296875 
L 28.515625 63.921875 
L 10.984375 60.40625 
L 10.984375 69.390625 
L 28.421875 72.90625 
L 38.28125 72.90625 
L 38.28125 8.296875 
L 54.390625 8.296875 
L 54.390625 0 
L 12.40625 0 
z
" id="DejaVuSans-31"/>
      </defs>
      <g transform="translate(7.2 185.6775)scale(0.16 -0.16)">
       <use xlink:href="#DejaVuSans-2212"/>
       <use x="83.789062" xlink:href="#DejaVuSans-30"/>
       <use x="147.412109" xlink:href="#DejaVuSans-2e"/>
       <use x="179.199219" xlink:href="#DejaVuSans-30"/>
       <use x="242.822266" xlink:href="#DejaVuSans-31"/>
      </g>
     </g>
    </g>
    <g id="ytick_2">
     <g id="line2d_2">
      <g>
       <use style="stroke:#000000;stroke-width:0.8;" x="63.2325" xlink:href="#mcae3f1ba73" y="96.43875"/>
      </g>
     </g>
     <g id="text_2">
      <!-- 0.00 -->
      <g transform="translate(20.6075 102.5175)scale(0.16 -0.16)">
       <use xlink:href="#DejaVuSans-30"/>
       <use x="63.623047" xlink:href="#DejaVuSans-2e"/>
       <use x="95.410156" xlink:href="#DejaVuSans-30"/>
       <use x="159.033203" xlink:href="#DejaVuSans-30"/>
      </g>
     </g>
    </g>
    <g id="ytick_3">
     <g id="line2d_3">
      <g>
       <use style="stroke:#000000;stroke-width:0.8;" x="63.2325" xlink:href="#mcae3f1ba73" y="13.27875"/>
      </g>
     </g>
     <g id="text_3">
      <!-- 0.01 -->
      <g transform="translate(20.6075 19.3575)scale(0.16 -0.16)">
       <use xlink:href="#DejaVuSans-30"/>
       <use x="63.623047" xlink:href="#DejaVuSans-2e"/>
       <use x="95.410156" xlink:href="#DejaVuSans-30"/>
       <use x="159.033203" xlink:href="#DejaVuSans-31"/>
      </g>
     </g>
    </g>
   </g>
   <g id="patch_3">
    <path d="M 63.2325 179.59875 
L 63.2325 13.27875 
" style="fill:none;stroke:#000000;stroke-linecap:square;stroke-linejoin:miter;stroke-width:0.8;"/>
   </g>
   <g id="patch_4">
    <path d="M 230.6325 179.59875 
L 230.6325 13.27875 
" style="fill:none;stroke:#000000;stroke-linecap:square;stroke-linejoin:miter;stroke-width:0.8;"/>
   </g>
   <g id="patch_5">
    <path d="M 63.2325 179.59875 
L 230.6325 179.59875 
" style="fill:none;stroke:#000000;stroke-linecap:square;stroke-linejoin:miter;stroke-width:0.8;"/>
   </g>
   <g id="patch_6">
    <path d="M 63.2325 13.27875 
L 230.6325 13.27875 
" style="fill:none;stroke:#000000;stroke-linecap:square;stroke-linejoin:miter;stroke-width:0.8;"/>
   </g>
  </g>
 </g>
 <defs>
  <clipPath id="p9c6d7e66f0">
   <rect height="166.32" width="167.4" x="63.2325" y="13.27875"/>
  </clipPath>
 </defs>
</svg>
