<?xml version="1.0" encoding="utf-8" standalone="no"?>
<!DOCTYPE svg PUBLIC "-//W3C//DTD SVG 1.1//EN"
  "http://www.w3.org/Graphics/SVG/1.1/DTD/svg11.dtd">
<!-- Created with matplotlib (http://matplotlib.org/) -->
<svg height="359pt" version="1.1" viewBox="0 0 427 359" width="427pt" xmlns="http://www.w3.org/2000/svg" xmlns:xlink="http://www.w3.org/1999/xlink">
 <defs>
  <style type="text/css">
*{stroke-linecap:butt;stroke-linejoin:round;}
  </style>
 </defs>
 <g id="figure_1">
  <g id="patch_1">
   <path d="M 0 359.521138 
L 427.119687 359.521138 
L 427.119687 0 
L 0 0 
z
" style="fill:#ffffff;"/>
  </g>
  <g id="axes_1">
   <g id="patch_2">
    <path d="M 81.619687 343.34 
L 416.419688 343.34 
L 416.419688 10.7 
L 81.619687 10.7 
z
" style="fill:#ffffff;"/>
   </g>
   <g id="PolyCollection_1">
    <defs>
     <path d="M 96.837869 -31.301138 
L 96.837869 -174.651801 
L 100.14617 -174.651801 
L 103.45447 -174.651801 
L 106.762771 -174.651801 
L 110.071071 -174.651801 
L 113.379371 -174.651801 
L 116.687672 -174.651801 
L 119.995972 -174.651801 
L 123.304272 -174.651801 
L 126.612573 -174.651801 
L 129.920873 -174.651801 
L 133.229174 -174.651801 
L 136.537474 -174.651801 
L 139.845774 -174.651801 
L 143.154075 -174.651801 
L 146.462375 -174.651801 
L 149.770676 -174.651801 
L 153.078976 -174.651801 
L 156.387276 -174.651801 
L 159.695577 -174.651801 
L 163.003877 -174.651801 
L 166.312178 -174.651801 
L 169.620478 -174.651801 
L 172.928778 -174.651801 
L 176.237079 -174.651801 
L 179.545379 -174.651801 
L 182.85368 -174.651801 
L 186.16198 -174.651801 
L 189.47028 -174.651801 
L 192.778581 -174.651801 
L 196.086881 -174.651801 
L 199.395182 -174.651801 
L 202.703482 -174.651801 
L 206.011782 -174.651801 
L 209.320083 -174.651801 
L 212.628383 -174.651801 
L 215.936684 -174.651801 
L 219.244984 -174.651801 
L 222.553284 -174.651801 
L 225.861585 -174.651801 
L 229.169885 -174.651801 
L 232.478186 -174.651801 
L 235.786486 -174.651801 
L 239.094786 -174.651801 
L 242.403087 -174.651801 
L 245.711387 -174.651801 
L 249.019688 -174.651801 
L 252.327988 -174.651801 
L 255.636288 -174.651801 
L 258.944589 -174.651801 
L 262.252889 -174.651801 
L 265.561189 -174.651801 
L 268.86949 -174.651801 
L 272.17779 -174.651801 
L 275.486091 -174.651801 
L 278.794391 -174.651801 
L 282.102691 -174.651801 
L 285.410992 -174.651801 
L 288.719292 -174.651801 
L 292.027593 -174.651801 
L 295.335893 -174.651801 
L 298.644193 -174.651801 
L 301.952494 -174.651801 
L 305.260794 -174.651801 
L 308.569095 -174.651801 
L 311.877395 -174.651801 
L 315.185695 -174.651801 
L 318.493996 -174.651801 
L 321.802296 -174.651801 
L 325.110597 -174.651801 
L 328.418897 -174.651801 
L 331.727197 -174.651801 
L 335.035498 -174.651801 
L 338.343798 -174.651801 
L 341.652099 -174.651801 
L 344.960399 -174.651801 
L 348.268699 -174.651801 
L 351.577 -174.651801 
L 354.8853 -174.651801 
L 358.193601 -174.651801 
L 361.501901 -174.651801 
L 364.810201 -174.651801 
L 368.118502 -174.651801 
L 371.426802 -174.651801 
L 374.735103 -174.651801 
L 378.043403 -174.651801 
L 381.351703 -174.651801 
L 384.660004 -174.651801 
L 387.968304 -174.651801 
L 391.276604 -174.651801 
L 394.584905 -174.651801 
L 397.893205 -174.651801 
L 401.201506 -174.651801 
L 401.201506 -333.701138 
L 401.201506 -333.701138 
L 397.893205 -328.656833 
L 394.584905 -310.960718 
L 391.276604 -292.759008 
L 387.968304 -286.596726 
L 384.660004 -275.846217 
L 381.351703 -270.758927 
L 378.043403 -267.395835 
L 374.735103 -265.335726 
L 371.426802 -265.188987 
L 368.118502 -256.924635 
L 364.810201 -256.426859 
L 361.501901 -243.186452 
L 358.193601 -239.103309 
L 354.8853 -235.494483 
L 351.577 -228.586466 
L 348.268699 -227.649023 
L 344.960399 -227.564871 
L 341.652099 -227.232416 
L 338.343798 -221.294321 
L 335.035498 -215.794004 
L 331.727197 -213.559289 
L 328.418897 -213.273164 
L 325.110597 -211.359091 
L 321.802296 -203.161453 
L 318.493996 -200.907892 
L 315.185695 -197.88062 
L 311.877395 -196.756456 
L 308.569095 -195.409023 
L 305.260794 -189.049406 
L 301.952494 -188.903996 
L 298.644193 -188.633831 
L 295.335893 -188.223034 
L 292.027593 -187.9374 
L 288.719292 -187.799149 
L 285.410992 -187.467005 
L 282.102691 -183.647909 
L 278.794391 -183.114842 
L 275.486091 -182.087558 
L 272.17779 -181.682697 
L 268.86949 -181.502784 
L 265.561189 -180.544204 
L 262.252889 -179.231854 
L 258.944589 -178.981459 
L 255.636288 -176.996274 
L 252.327988 -176.753733 
L 249.019688 -176.134853 
L 245.711387 -176.002623 
L 242.403087 -175.863348 
L 239.094786 -175.738711 
L 235.786486 -175.684701 
L 232.478186 -175.221656 
L 229.169885 -173.774726 
L 225.861585 -173.733562 
L 222.553284 -173.266992 
L 219.244984 -172.872648 
L 215.936684 -171.437565 
L 212.628383 -170.540435 
L 209.320083 -170.406107 
L 206.011782 -170.165331 
L 202.703482 -170.034553 
L 199.395182 -167.865805 
L 196.086881 -166.840648 
L 192.778581 -164.160423 
L 189.47028 -163.846041 
L 186.16198 -163.421134 
L 182.85368 -163.017138 
L 179.545379 -161.624863 
L 176.237079 -159.595178 
L 172.928778 -154.719434 
L 169.620478 -153.552024 
L 166.312178 -151.448521 
L 163.003877 -150.268422 
L 159.695577 -145.136121 
L 156.387276 -143.495603 
L 153.078976 -142.808 
L 149.770676 -142.500256 
L 146.462375 -141.630058 
L 143.154075 -135.201452 
L 139.845774 -134.058428 
L 136.537474 -125.259674 
L 133.229174 -125.152077 
L 129.920873 -118.957787 
L 126.612573 -108.588416 
L 123.304272 -106.089484 
L 119.995972 -97.34502 
L 116.687672 -94.358346 
L 113.379371 -86.358102 
L 110.071071 -84.987596 
L 106.762771 -83.63553 
L 103.45447 -57.629403 
L 100.14617 -43.963414 
L 96.837869 -31.301138 
z
" id="m3c8862653e" style="stroke:#4a98c9;"/>
    </defs>
    <g clip-path="url(#pbf38c7c56e)">
     <use style="fill:#4a98c9;stroke:#4a98c9;" x="0" xlink:href="#m3c8862653e" y="359.521138"/>
    </g>
   </g>
   <g id="PolyCollection_2">
    <defs>
     <path d="M 96.837869 -75.764257 
L 96.837869 -174.651801 
L 100.14617 -174.651801 
L 103.45447 -174.651801 
L 106.762771 -174.651801 
L 110.071071 -174.651801 
L 113.379371 -174.651801 
L 116.687672 -174.651801 
L 119.995972 -174.651801 
L 123.304272 -174.651801 
L 126.612573 -174.651801 
L 129.920873 -174.651801 
L 133.229174 -174.651801 
L 136.537474 -174.651801 
L 139.845774 -174.651801 
L 143.154075 -174.651801 
L 146.462375 -174.651801 
L 149.770676 -174.651801 
L 153.078976 -174.651801 
L 156.387276 -174.651801 
L 159.695577 -174.651801 
L 163.003877 -174.651801 
L 166.312178 -174.651801 
L 169.620478 -174.651801 
L 172.928778 -174.651801 
L 176.237079 -174.651801 
L 179.545379 -174.651801 
L 182.85368 -174.651801 
L 186.16198 -174.651801 
L 189.47028 -174.651801 
L 192.778581 -174.651801 
L 196.086881 -174.651801 
L 199.395182 -174.651801 
L 202.703482 -174.651801 
L 206.011782 -174.651801 
L 209.320083 -174.651801 
L 212.628383 -174.651801 
L 215.936684 -174.651801 
L 219.244984 -174.651801 
L 222.553284 -174.651801 
L 225.861585 -174.651801 
L 229.169885 -174.651801 
L 232.478186 -174.651801 
L 235.786486 -174.651801 
L 239.094786 -174.651801 
L 242.403087 -174.651801 
L 245.711387 -174.651801 
L 249.019688 -174.651801 
L 252.327988 -174.651801 
L 255.636288 -174.651801 
L 258.944589 -174.651801 
L 262.252889 -174.651801 
L 265.561189 -174.651801 
L 268.86949 -174.651801 
L 272.17779 -174.651801 
L 275.486091 -174.651801 
L 278.794391 -174.651801 
L 282.102691 -174.651801 
L 285.410992 -174.651801 
L 288.719292 -174.651801 
L 292.027593 -174.651801 
L 295.335893 -174.651801 
L 298.644193 -174.651801 
L 301.952494 -174.651801 
L 305.260794 -174.651801 
L 308.569095 -174.651801 
L 311.877395 -174.651801 
L 315.185695 -174.651801 
L 318.493996 -174.651801 
L 321.802296 -174.651801 
L 325.110597 -174.651801 
L 328.418897 -174.651801 
L 331.727197 -174.651801 
L 335.035498 -174.651801 
L 338.343798 -174.651801 
L 341.652099 -174.651801 
L 344.960399 -174.651801 
L 348.268699 -174.651801 
L 351.577 -174.651801 
L 354.8853 -174.651801 
L 358.193601 -174.651801 
L 361.501901 -174.651801 
L 364.810201 -174.651801 
L 368.118502 -174.651801 
L 371.426802 -174.651801 
L 374.735103 -174.651801 
L 378.043403 -174.651801 
L 381.351703 -174.651801 
L 384.660004 -174.651801 
L 387.968304 -174.651801 
L 391.276604 -174.651801 
L 394.584905 -174.651801 
L 397.893205 -174.651801 
L 401.201506 -174.651801 
L 401.201506 -287.524266 
L 401.201506 -287.524266 
L 397.893205 -255.845322 
L 394.584905 -249.295046 
L 391.276604 -243.760949 
L 387.968304 -242.700761 
L 384.660004 -234.844916 
L 381.351703 -232.857713 
L 378.043403 -230.619368 
L 374.735103 -222.881713 
L 371.426802 -215.219479 
L 368.118502 -214.915379 
L 364.810201 -214.679844 
L 361.501901 -214.529211 
L 358.193601 -212.721184 
L 354.8853 -212.418161 
L 351.577 -210.243364 
L 348.268699 -209.452303 
L 344.960399 -207.62429 
L 341.652099 -207.254242 
L 338.343798 -205.176207 
L 335.035498 -200.069992 
L 331.727197 -199.568581 
L 328.418897 -196.592028 
L 325.110597 -196.196675 
L 321.802296 -195.561871 
L 318.493996 -194.354606 
L 315.185695 -194.227061 
L 311.877395 -192.01452 
L 308.569095 -191.723845 
L 305.260794 -191.47472 
L 301.952494 -190.582652 
L 298.644193 -189.436307 
L 295.335893 -189.201572 
L 292.027593 -189.011016 
L 288.719292 -188.974071 
L 285.410992 -188.930349 
L 282.102691 -188.343915 
L 278.794391 -186.177885 
L 275.486091 -183.414575 
L 272.17779 -182.947667 
L 268.86949 -182.686932 
L 265.561189 -181.40822 
L 262.252889 -180.813047 
L 258.944589 -180.204729 
L 255.636288 -180.194952 
L 252.327988 -179.679964 
L 249.019688 -179.395086 
L 245.711387 -179.253763 
L 242.403087 -178.305121 
L 239.094786 -177.701385 
L 235.786486 -177.326668 
L 232.478186 -175.862775 
L 229.169885 -175.461438 
L 225.861585 -174.567727 
L 222.553284 -173.834366 
L 219.244984 -173.130716 
L 215.936684 -172.290345 
L 212.628383 -171.693568 
L 209.320083 -169.900052 
L 206.011782 -168.043262 
L 202.703482 -167.252767 
L 199.395182 -165.841656 
L 196.086881 -165.675706 
L 192.778581 -164.08899 
L 189.47028 -162.306294 
L 186.16198 -162.219349 
L 182.85368 -161.853618 
L 179.545379 -156.512931 
L 176.237079 -156.039625 
L 172.928778 -155.247985 
L 169.620478 -155.068711 
L 166.312178 -154.03863 
L 163.003877 -153.430931 
L 159.695577 -152.870139 
L 156.387276 -150.383949 
L 153.078976 -147.278721 
L 149.770676 -146.136957 
L 146.462375 -145.079973 
L 143.154075 -141.976619 
L 139.845774 -139.092764 
L 136.537474 -139.022112 
L 133.229174 -138.45505 
L 129.920873 -133.934698 
L 126.612573 -132.490913 
L 123.304272 -131.531208 
L 119.995972 -121.940643 
L 116.687672 -120.793637 
L 113.379371 -119.738499 
L 110.071071 -113.584567 
L 106.762771 -111.9221 
L 103.45447 -98.85293 
L 100.14617 -91.723472 
L 96.837869 -75.764257 
z
" id="m918bf0cb68" style="stroke:#f14432;stroke-opacity:0.8;"/>
    </defs>
    <g clip-path="url(#pbf38c7c56e)">
     <use style="fill:#f14432;fill-opacity:0.8;stroke:#f14432;stroke-opacity:0.8;" x="0" xlink:href="#m918bf0cb68" y="359.521138"/>
    </g>
   </g>
   <g id="matplotlib.axis_1"/>
   <g id="matplotlib.axis_2">
    <g id="ytick_1">
     <g id="line2d_1">
      <defs>
       <path d="M 0 0 
L -3.5 0 
" id="m21408889fe" style="stroke:#000000;stroke-width:0.8;"/>
      </defs>
      <g>
       <use style="stroke:#000000;stroke-width:0.8;" x="81.619687" xlink:href="#m21408889fe" y="339.387544"/>
      </g>
     </g>
     <g id="text_1">
      <!-- −0.08 -->
      <defs>
       <path d="M 10.59375 35.5 
L 73.1875 35.5 
L 73.1875 27.203125 
L 10.59375 27.203125 
z
" id="DejaVuSans-2212"/>
       <path d="M 31.78125 66.40625 
Q 24.171875 66.40625 20.328125 58.90625 
Q 16.5 51.421875 16.5 36.375 
Q 16.5 21.390625 20.328125 13.890625 
Q 24.171875 6.390625 31.78125 6.390625 
Q 39.453125 6.390625 43.28125 13.890625 
Q 47.125 21.390625 47.125 36.375 
Q 47.125 51.421875 43.28125 58.90625 
Q 39.453125 66.40625 31.78125 66.40625 
z
M 31.78125 74.21875 
Q 44.046875 74.21875 50.515625 64.515625 
Q 56.984375 54.828125 56.984375 36.375 
Q 56.984375 17.96875 50.515625 8.265625 
Q 44.046875 -1.421875 31.78125 -1.421875 
Q 19.53125 -1.421875 13.0625 8.265625 
Q 6.59375 17.96875 6.59375 36.375 
Q 6.59375 54.828125 13.0625 64.515625 
Q 19.53125 74.21875 31.78125 74.21875 
z
" id="DejaVuSans-30"/>
       <path d="M 10.6875 12.40625 
L 21 12.40625 
L 21 0 
L 10.6875 0 
z
" id="DejaVuSans-2e"/>
       <path d="M 31.78125 34.625 
Q 24.75 34.625 20.71875 30.859375 
Q 16.703125 27.09375 16.703125 20.515625 
Q 16.703125 13.921875 20.71875 10.15625 
Q 24.75 6.390625 31.78125 6.390625 
Q 38.8125 6.390625 42.859375 10.171875 
Q 46.921875 13.96875 46.921875 20.515625 
Q 46.921875 27.09375 42.890625 30.859375 
Q 38.875 34.625 31.78125 34.625 
z
M 21.921875 38.8125 
Q 15.578125 40.375 12.03125 44.71875 
Q 8.5 49.078125 8.5 55.328125 
Q 8.5 64.0625 14.71875 69.140625 
Q 20.953125 74.21875 31.78125 74.21875 
Q 42.671875 74.21875 48.875 69.140625 
Q 55.078125 64.0625 55.078125 55.328125 
Q 55.078125 49.078125 51.53125 44.71875 
Q 48 40.375 41.703125 38.8125 
Q 48.828125 37.15625 52.796875 32.3125 
Q 56.78125 27.484375 56.78125 20.515625 
Q 56.78125 9.90625 50.3125 4.234375 
Q 43.84375 -1.421875 31.78125 -1.421875 
Q 19.734375 -1.421875 13.25 4.234375 
Q 6.78125 9.90625 6.78125 20.515625 
Q 6.78125 27.484375 10.78125 32.3125 
Q 14.796875 37.15625 21.921875 38.8125 
z
M 18.3125 54.390625 
Q 18.3125 48.734375 21.84375 45.5625 
Q 25.390625 42.390625 31.78125 42.390625 
Q 38.140625 42.390625 41.71875 45.5625 
Q 45.3125 48.734375 45.3125 54.390625 
Q 45.3125 60.0625 41.71875 63.234375 
Q 38.140625 66.40625 31.78125 66.40625 
Q 25.390625 66.40625 21.84375 63.234375 
Q 18.3125 60.0625 18.3125 54.390625 
z
" id="DejaVuSans-38"/>
      </defs>
      <g transform="translate(7.2 347.745825)scale(0.22 -0.22)">
       <use xlink:href="#DejaVuSans-2212"/>
       <use x="83.789062" xlink:href="#DejaVuSans-30"/>
       <use x="147.412109" xlink:href="#DejaVuSans-2e"/>
       <use x="179.199219" xlink:href="#DejaVuSans-30"/>
       <use x="242.822266" xlink:href="#DejaVuSans-38"/>
      </g>
     </g>
    </g>
    <g id="ytick_2">
     <g id="line2d_2">
      <g>
       <use style="stroke:#000000;stroke-width:0.8;" x="81.619687" xlink:href="#m21408889fe" y="300.757992"/>
      </g>
     </g>
     <g id="text_2">
      <!-- −0.06 -->
      <defs>
       <path d="M 33.015625 40.375 
Q 26.375 40.375 22.484375 35.828125 
Q 18.609375 31.296875 18.609375 23.390625 
Q 18.609375 15.53125 22.484375 10.953125 
Q 26.375 6.390625 33.015625 6.390625 
Q 39.65625 6.390625 43.53125 10.953125 
Q 47.40625 15.53125 47.40625 23.390625 
Q 47.40625 31.296875 43.53125 35.828125 
Q 39.65625 40.375 33.015625 40.375 
z
M 52.59375 71.296875 
L 52.59375 62.3125 
Q 48.875 64.0625 45.09375 64.984375 
Q 41.3125 65.921875 37.59375 65.921875 
Q 27.828125 65.921875 22.671875 59.328125 
Q 17.53125 52.734375 16.796875 39.40625 
Q 19.671875 43.65625 24.015625 45.921875 
Q 28.375 48.1875 33.59375 48.1875 
Q 44.578125 48.1875 50.953125 41.515625 
Q 57.328125 34.859375 57.328125 23.390625 
Q 57.328125 12.15625 50.6875 5.359375 
Q 44.046875 -1.421875 33.015625 -1.421875 
Q 20.359375 -1.421875 13.671875 8.265625 
Q 6.984375 17.96875 6.984375 36.375 
Q 6.984375 53.65625 15.1875 63.9375 
Q 23.390625 74.21875 37.203125 74.21875 
Q 40.921875 74.21875 44.703125 73.484375 
Q 48.484375 72.75 52.59375 71.296875 
z
" id="DejaVuSans-36"/>
      </defs>
      <g transform="translate(7.2 309.116273)scale(0.22 -0.22)">
       <use xlink:href="#DejaVuSans-2212"/>
       <use x="83.789062" xlink:href="#DejaVuSans-30"/>
       <use x="147.412109" xlink:href="#DejaVuSans-2e"/>
       <use x="179.199219" xlink:href="#DejaVuSans-30"/>
       <use x="242.822266" xlink:href="#DejaVuSans-36"/>
      </g>
     </g>
    </g>
    <g id="ytick_3">
     <g id="line2d_3">
      <g>
       <use style="stroke:#000000;stroke-width:0.8;" x="81.619687" xlink:href="#m21408889fe" y="262.12844"/>
      </g>
     </g>
     <g id="text_3">
      <!-- −0.04 -->
      <defs>
       <path d="M 37.796875 64.3125 
L 12.890625 25.390625 
L 37.796875 25.390625 
z
M 35.203125 72.90625 
L 47.609375 72.90625 
L 47.609375 25.390625 
L 58.015625 25.390625 
L 58.015625 17.1875 
L 47.609375 17.1875 
L 47.609375 0 
L 37.796875 0 
L 37.796875 17.1875 
L 4.890625 17.1875 
L 4.890625 26.703125 
z
" id="DejaVuSans-34"/>
      </defs>
      <g transform="translate(7.2 270.486722)scale(0.22 -0.22)">
       <use xlink:href="#DejaVuSans-2212"/>
       <use x="83.789062" xlink:href="#DejaVuSans-30"/>
       <use x="147.412109" xlink:href="#DejaVuSans-2e"/>
       <use x="179.199219" xlink:href="#DejaVuSans-30"/>
       <use x="242.822266" xlink:href="#DejaVuSans-34"/>
      </g>
     </g>
    </g>
    <g id="ytick_4">
     <g id="line2d_4">
      <g>
       <use style="stroke:#000000;stroke-width:0.8;" x="81.619687" xlink:href="#m21408889fe" y="223.498889"/>
      </g>
     </g>
     <g id="text_4">
      <!-- −0.02 -->
      <defs>
       <path d="M 19.1875 8.296875 
L 53.609375 8.296875 
L 53.609375 0 
L 7.328125 0 
L 7.328125 8.296875 
Q 12.9375 14.109375 22.625 23.890625 
Q 32.328125 33.6875 34.8125 36.53125 
Q 39.546875 41.84375 41.421875 45.53125 
Q 43.3125 49.21875 43.3125 52.78125 
Q 43.3125 58.59375 39.234375 62.25 
Q 35.15625 65.921875 28.609375 65.921875 
Q 23.96875 65.921875 18.8125 64.3125 
Q 13.671875 62.703125 7.8125 59.421875 
L 7.8125 69.390625 
Q 13.765625 71.78125 18.9375 73 
Q 24.125 74.21875 28.421875 74.21875 
Q 39.75 74.21875 46.484375 68.546875 
Q 53.21875 62.890625 53.21875 53.421875 
Q 53.21875 48.921875 51.53125 44.890625 
Q 49.859375 40.875 45.40625 35.40625 
Q 44.1875 33.984375 37.640625 27.21875 
Q 31.109375 20.453125 19.1875 8.296875 
z
" id="DejaVuSans-32"/>
      </defs>
      <g transform="translate(7.2 231.85717)scale(0.22 -0.22)">
       <use xlink:href="#DejaVuSans-2212"/>
       <use x="83.789062" xlink:href="#DejaVuSans-30"/>
       <use x="147.412109" xlink:href="#DejaVuSans-2e"/>
       <use x="179.199219" xlink:href="#DejaVuSans-30"/>
       <use x="242.822266" xlink:href="#DejaVuSans-32"/>
      </g>
     </g>
    </g>
    <g id="ytick_5">
     <g id="line2d_5">
      <g>
       <use style="stroke:#000000;stroke-width:0.8;" x="81.619687" xlink:href="#m21408889fe" y="184.869337"/>
      </g>
     </g>
     <g id="text_5">
      <!-- 0.00 -->
      <g transform="translate(25.635312 193.227618)scale(0.22 -0.22)">
       <use xlink:href="#DejaVuSans-30"/>
       <use x="63.623047" xlink:href="#DejaVuSans-2e"/>
       <use x="95.410156" xlink:href="#DejaVuSans-30"/>
       <use x="159.033203" xlink:href="#DejaVuSans-30"/>
      </g>
     </g>
    </g>
    <g id="ytick_6">
     <g id="line2d_6">
      <g>
       <use style="stroke:#000000;stroke-width:0.8;" x="81.619687" xlink:href="#m21408889fe" y="146.239785"/>
      </g>
     </g>
     <g id="text_6">
      <!-- 0.02 -->
      <g transform="translate(25.635312 154.598067)scale(0.22 -0.22)">
       <use xlink:href="#DejaVuSans-30"/>
       <use x="63.623047" xlink:href="#DejaVuSans-2e"/>
       <use x="95.410156" xlink:href="#DejaVuSans-30"/>
       <use x="159.033203" xlink:href="#DejaVuSans-32"/>
      </g>
     </g>
    </g>
    <g id="ytick_7">
     <g id="line2d_7">
      <g>
       <use style="stroke:#000000;stroke-width:0.8;" x="81.619687" xlink:href="#m21408889fe" y="107.610234"/>
      </g>
     </g>
     <g id="text_7">
      <!-- 0.04 -->
      <g transform="translate(25.635312 115.968515)scale(0.22 -0.22)">
       <use xlink:href="#DejaVuSans-30"/>
       <use x="63.623047" xlink:href="#DejaVuSans-2e"/>
       <use x="95.410156" xlink:href="#DejaVuSans-30"/>
       <use x="159.033203" xlink:href="#DejaVuSans-34"/>
      </g>
     </g>
    </g>
    <g id="ytick_8">
     <g id="line2d_8">
      <g>
       <use style="stroke:#000000;stroke-width:0.8;" x="81.619687" xlink:href="#m21408889fe" y="68.980682"/>
      </g>
     </g>
     <g id="text_8">
      <!-- 0.06 -->
      <g transform="translate(25.635312 77.338963)scale(0.22 -0.22)">
       <use xlink:href="#DejaVuSans-30"/>
       <use x="63.623047" xlink:href="#DejaVuSans-2e"/>
       <use x="95.410156" xlink:href="#DejaVuSans-30"/>
       <use x="159.033203" xlink:href="#DejaVuSans-36"/>
      </g>
     </g>
    </g>
    <g id="ytick_9">
     <g id="line2d_9">
      <g>
       <use style="stroke:#000000;stroke-width:0.8;" x="81.619687" xlink:href="#m21408889fe" y="30.35113"/>
      </g>
     </g>
     <g id="text_9">
      <!-- 0.08 -->
      <g transform="translate(25.635312 38.709411)scale(0.22 -0.22)">
       <use xlink:href="#DejaVuSans-30"/>
       <use x="63.623047" xlink:href="#DejaVuSans-2e"/>
       <use x="95.410156" xlink:href="#DejaVuSans-30"/>
       <use x="159.033203" xlink:href="#DejaVuSans-38"/>
      </g>
     </g>
    </g>
   </g>
   <g id="patch_3">
    <path d="M 81.619687 343.34 
L 81.619687 10.7 
" style="fill:none;stroke:#000000;stroke-linecap:square;stroke-linejoin:miter;stroke-width:0.8;"/>
   </g>
   <g id="patch_4">
    <path d="M 416.419688 343.34 
L 416.419688 10.7 
" style="fill:none;stroke:#000000;stroke-linecap:square;stroke-linejoin:miter;stroke-width:0.8;"/>
   </g>
   <g id="patch_5">
    <path d="M 81.619687 343.34 
L 416.419688 343.34 
" style="fill:none;stroke:#000000;stroke-linecap:square;stroke-linejoin:miter;stroke-width:0.8;"/>
   </g>
   <g id="patch_6">
    <path d="M 81.619687 10.7 
L 416.419688 10.7 
" style="fill:none;stroke:#000000;stroke-linecap:square;stroke-linejoin:miter;stroke-width:0.8;"/>
   </g>
  </g>
 </g>
 <defs>
  <clipPath id="pbf38c7c56e">
   <rect height="332.64" width="334.8" x="81.619687" y="10.7"/>
  </clipPath>
 </defs>
</svg>
