<?xml version="1.0" encoding="utf-8" standalone="no"?>
<!DOCTYPE svg PUBLIC "-//W3C//DTD SVG 1.1//EN"
  "http://www.w3.org/Graphics/SVG/1.1/DTD/svg11.dtd">
<!-- Created with matplotlib (http://matplotlib.org/) -->
<svg height="354pt" version="1.1" viewBox="0 0 427 354" width="427pt" xmlns="http://www.w3.org/2000/svg" xmlns:xlink="http://www.w3.org/1999/xlink">
 <defs>
  <style type="text/css">
*{stroke-linecap:butt;stroke-linejoin:round;}
  </style>
 </defs>
 <g id="figure_1">
  <g id="patch_1">
   <path d="M 0 354.04 
L 427.119687 354.04 
L 427.119687 0 
L 0 0 
z
" style="fill:#ffffff;"/>
  </g>
  <g id="axes_1">
   <g id="patch_2">
    <path d="M 81.619687 343.34 
L 416.419688 343.34 
L 416.419688 10.7 
L 81.619687 10.7 
z
" style="fill:#ffffff;"/>
   </g>
   <g id="PolyCollection_1">
    <defs>
     <path d="M 96.837869 -25.82 
L 96.837869 -154.507848 
L 100.14617 -154.507848 
L 103.45447 -154.507848 
L 106.762771 -154.507848 
L 110.071071 -154.507848 
L 113.379371 -154.507848 
L 116.687672 -154.507848 
L 119.995972 -154.507848 
L 123.304272 -154.507848 
L 126.612573 -154.507848 
L 129.920873 -154.507848 
L 133.229174 -154.507848 
L 136.537474 -154.507848 
L 139.845774 -154.507848 
L 143.154075 -154.507848 
L 146.462375 -154.507848 
L 149.770676 -154.507848 
L 153.078976 -154.507848 
L 156.387276 -154.507848 
L 159.695577 -154.507848 
L 163.003877 -154.507848 
L 166.312178 -154.507848 
L 169.620478 -154.507848 
L 172.928778 -154.507848 
L 176.237079 -154.507848 
L 179.545379 -154.507848 
L 182.85368 -154.507848 
L 186.16198 -154.507848 
L 189.47028 -154.507848 
L 192.778581 -154.507848 
L 196.086881 -154.507848 
L 199.395182 -154.507848 
L 202.703482 -154.507848 
L 206.011782 -154.507848 
L 209.320083 -154.507848 
L 212.628383 -154.507848 
L 215.936684 -154.507848 
L 219.244984 -154.507848 
L 222.553284 -154.507848 
L 225.861585 -154.507848 
L 229.169885 -154.507848 
L 232.478186 -154.507848 
L 235.786486 -154.507848 
L 239.094786 -154.507848 
L 242.403087 -154.507848 
L 245.711387 -154.507848 
L 249.019688 -154.507848 
L 252.327988 -154.507848 
L 255.636288 -154.507848 
L 258.944589 -154.507848 
L 262.252889 -154.507848 
L 265.561189 -154.507848 
L 268.86949 -154.507848 
L 272.17779 -154.507848 
L 275.486091 -154.507848 
L 278.794391 -154.507848 
L 282.102691 -154.507848 
L 285.410992 -154.507848 
L 288.719292 -154.507848 
L 292.027593 -154.507848 
L 295.335893 -154.507848 
L 298.644193 -154.507848 
L 301.952494 -154.507848 
L 305.260794 -154.507848 
L 308.569095 -154.507848 
L 311.877395 -154.507848 
L 315.185695 -154.507848 
L 318.493996 -154.507848 
L 321.802296 -154.507848 
L 325.110597 -154.507848 
L 328.418897 -154.507848 
L 331.727197 -154.507848 
L 335.035498 -154.507848 
L 338.343798 -154.507848 
L 341.652099 -154.507848 
L 344.960399 -154.507848 
L 348.268699 -154.507848 
L 351.577 -154.507848 
L 354.8853 -154.507848 
L 358.193601 -154.507848 
L 361.501901 -154.507848 
L 364.810201 -154.507848 
L 368.118502 -154.507848 
L 371.426802 -154.507848 
L 374.735103 -154.507848 
L 378.043403 -154.507848 
L 381.351703 -154.507848 
L 384.660004 -154.507848 
L 387.968304 -154.507848 
L 391.276604 -154.507848 
L 394.584905 -154.507848 
L 397.893205 -154.507848 
L 401.201506 -154.507848 
L 401.201506 -328.22 
L 401.201506 -328.22 
L 397.893205 -323.475945 
L 394.584905 -304.328711 
L 391.276604 -286.019937 
L 387.968304 -284.281731 
L 384.660004 -270.51122 
L 381.351703 -251.086755 
L 378.043403 -210.537732 
L 374.735103 -209.889285 
L 371.426802 -205.143715 
L 368.118502 -203.366157 
L 364.810201 -203.096287 
L 361.501901 -201.144952 
L 358.193601 -196.066197 
L 354.8853 -194.718166 
L 351.577 -189.659851 
L 348.268699 -188.242015 
L 344.960399 -186.865164 
L 341.652099 -183.759763 
L 338.343798 -177.702533 
L 335.035498 -176.99419 
L 331.727197 -176.659107 
L 328.418897 -176.423405 
L 325.110597 -174.470027 
L 321.802296 -174.280766 
L 318.493996 -171.439532 
L 315.185695 -171.269112 
L 311.877395 -169.329432 
L 308.569095 -168.80506 
L 305.260794 -165.718603 
L 301.952494 -164.627655 
L 298.644193 -164.277309 
L 295.335893 -163.492075 
L 292.027593 -162.582183 
L 288.719292 -162.524893 
L 285.410992 -162.514108 
L 282.102691 -162.452188 
L 278.794391 -162.400645 
L 275.486091 -162.159223 
L 272.17779 -162.060423 
L 268.86949 -161.558083 
L 265.561189 -161.301063 
L 262.252889 -160.52198 
L 258.944589 -160.195755 
L 255.636288 -160.001904 
L 252.327988 -159.869662 
L 249.019688 -159.024432 
L 245.711387 -158.561083 
L 242.403087 -156.904219 
L 239.094786 -156.028767 
L 235.786486 -155.9903 
L 232.478186 -155.430991 
L 229.169885 -154.1951 
L 225.861585 -153.904039 
L 222.553284 -152.723304 
L 219.244984 -152.429436 
L 215.936684 -152.241856 
L 212.628383 -151.188649 
L 209.320083 -151.154467 
L 206.011782 -149.823912 
L 202.703482 -149.149878 
L 199.395182 -148.955019 
L 196.086881 -148.339742 
L 192.778581 -147.223904 
L 189.47028 -147.178532 
L 186.16198 -147.17214 
L 182.85368 -146.846508 
L 179.545379 -146.595688 
L 176.237079 -146.470483 
L 172.928778 -146.344651 
L 169.620478 -146.075467 
L 166.312178 -143.998011 
L 163.003877 -142.859977 
L 159.695577 -142.287951 
L 156.387276 -141.30775 
L 153.078976 -141.281365 
L 149.770676 -139.482522 
L 146.462375 -137.186318 
L 143.154075 -136.966553 
L 139.845774 -136.9133 
L 136.537474 -134.887834 
L 133.229174 -134.555943 
L 129.920873 -133.095832 
L 126.612573 -130.01539 
L 123.304272 -126.227857 
L 119.995972 -125.403318 
L 116.687672 -122.054157 
L 113.379371 -120.77412 
L 110.071071 -118.400854 
L 106.762771 -106.357339 
L 103.45447 -99.018741 
L 100.14617 -51.031457 
L 96.837869 -25.82 
z
" id="mf830ed5201" style="stroke:#4a98c9;"/>
    </defs>
    <g clip-path="url(#p121f5ebc26)">
     <use style="fill:#4a98c9;stroke:#4a98c9;" x="0" xlink:href="#mf830ed5201" y="354.04"/>
    </g>
   </g>
   <g id="PolyCollection_2">
    <defs>
     <path d="M 96.837869 -130.935618 
L 96.837869 -154.507848 
L 100.14617 -154.507848 
L 103.45447 -154.507848 
L 106.762771 -154.507848 
L 110.071071 -154.507848 
L 113.379371 -154.507848 
L 116.687672 -154.507848 
L 119.995972 -154.507848 
L 123.304272 -154.507848 
L 126.612573 -154.507848 
L 129.920873 -154.507848 
L 133.229174 -154.507848 
L 136.537474 -154.507848 
L 139.845774 -154.507848 
L 143.154075 -154.507848 
L 146.462375 -154.507848 
L 149.770676 -154.507848 
L 153.078976 -154.507848 
L 156.387276 -154.507848 
L 159.695577 -154.507848 
L 163.003877 -154.507848 
L 166.312178 -154.507848 
L 169.620478 -154.507848 
L 172.928778 -154.507848 
L 176.237079 -154.507848 
L 179.545379 -154.507848 
L 182.85368 -154.507848 
L 186.16198 -154.507848 
L 189.47028 -154.507848 
L 192.778581 -154.507848 
L 196.086881 -154.507848 
L 199.395182 -154.507848 
L 202.703482 -154.507848 
L 206.011782 -154.507848 
L 209.320083 -154.507848 
L 212.628383 -154.507848 
L 215.936684 -154.507848 
L 219.244984 -154.507848 
L 222.553284 -154.507848 
L 225.861585 -154.507848 
L 229.169885 -154.507848 
L 232.478186 -154.507848 
L 235.786486 -154.507848 
L 239.094786 -154.507848 
L 242.403087 -154.507848 
L 245.711387 -154.507848 
L 249.019688 -154.507848 
L 252.327988 -154.507848 
L 255.636288 -154.507848 
L 258.944589 -154.507848 
L 262.252889 -154.507848 
L 265.561189 -154.507848 
L 268.86949 -154.507848 
L 272.17779 -154.507848 
L 275.486091 -154.507848 
L 278.794391 -154.507848 
L 282.102691 -154.507848 
L 285.410992 -154.507848 
L 288.719292 -154.507848 
L 292.027593 -154.507848 
L 295.335893 -154.507848 
L 298.644193 -154.507848 
L 301.952494 -154.507848 
L 305.260794 -154.507848 
L 308.569095 -154.507848 
L 311.877395 -154.507848 
L 315.185695 -154.507848 
L 318.493996 -154.507848 
L 321.802296 -154.507848 
L 325.110597 -154.507848 
L 328.418897 -154.507848 
L 331.727197 -154.507848 
L 335.035498 -154.507848 
L 338.343798 -154.507848 
L 341.652099 -154.507848 
L 344.960399 -154.507848 
L 348.268699 -154.507848 
L 351.577 -154.507848 
L 354.8853 -154.507848 
L 358.193601 -154.507848 
L 361.501901 -154.507848 
L 364.810201 -154.507848 
L 368.118502 -154.507848 
L 371.426802 -154.507848 
L 374.735103 -154.507848 
L 378.043403 -154.507848 
L 381.351703 -154.507848 
L 384.660004 -154.507848 
L 387.968304 -154.507848 
L 391.276604 -154.507848 
L 394.584905 -154.507848 
L 397.893205 -154.507848 
L 401.201506 -154.507848 
L 401.201506 -207.436488 
L 401.201506 -207.436488 
L 397.893205 -202.090834 
L 394.584905 -200.510657 
L 391.276604 -194.764745 
L 387.968304 -193.189832 
L 384.660004 -192.751574 
L 381.351703 -191.093165 
L 378.043403 -189.290399 
L 374.735103 -186.955503 
L 371.426802 -186.654835 
L 368.118502 -184.631058 
L 364.810201 -184.077395 
L 361.501901 -182.840718 
L 358.193601 -182.3678 
L 354.8853 -180.788083 
L 351.577 -179.997407 
L 348.268699 -178.675462 
L 344.960399 -178.595515 
L 341.652099 -178.513466 
L 338.343798 -177.266638 
L 335.035498 -175.593734 
L 331.727197 -175.582494 
L 328.418897 -175.488448 
L 325.110597 -174.877837 
L 321.802296 -174.180312 
L 318.493996 -173.708481 
L 315.185695 -172.928996 
L 311.877395 -171.639806 
L 308.569095 -170.848853 
L 305.260794 -170.568582 
L 301.952494 -169.77855 
L 298.644193 -168.203331 
L 295.335893 -167.641213 
L 292.027593 -166.832627 
L 288.719292 -166.77269 
L 285.410992 -166.473089 
L 282.102691 -165.428315 
L 278.794391 -165.425218 
L 275.486091 -164.490127 
L 272.17779 -164.032237 
L 268.86949 -163.972853 
L 265.561189 -163.701717 
L 262.252889 -163.224386 
L 258.944589 -162.585815 
L 255.636288 -162.288298 
L 252.327988 -162.202826 
L 249.019688 -162.181804 
L 245.711387 -162.040055 
L 242.403087 -161.011493 
L 239.094786 -160.677248 
L 235.786486 -160.488897 
L 232.478186 -160.326649 
L 229.169885 -158.573155 
L 225.861585 -158.017542 
L 222.553284 -157.937239 
L 219.244984 -157.878496 
L 215.936684 -156.418693 
L 212.628383 -156.180748 
L 209.320083 -156.179836 
L 206.011782 -156.129247 
L 202.703482 -155.251991 
L 199.395182 -154.730444 
L 196.086881 -154.608702 
L 192.778581 -154.463786 
L 189.47028 -154.261766 
L 186.16198 -153.483644 
L 182.85368 -153.219251 
L 179.545379 -153.138798 
L 176.237079 -152.899672 
L 172.928778 -152.615686 
L 169.620478 -152.569098 
L 166.312178 -152.382832 
L 163.003877 -152.305464 
L 159.695577 -151.960755 
L 156.387276 -151.66436 
L 153.078976 -151.615563 
L 149.770676 -151.141803 
L 146.462375 -151.10968 
L 143.154075 -150.569459 
L 139.845774 -150.502793 
L 136.537474 -150.203778 
L 133.229174 -149.72831 
L 129.920873 -147.613923 
L 126.612573 -147.131994 
L 123.304272 -142.801342 
L 119.995972 -140.399203 
L 116.687672 -139.761121 
L 113.379371 -139.447963 
L 110.071071 -139.446933 
L 106.762771 -138.574445 
L 103.45447 -138.054292 
L 100.14617 -133.895783 
L 96.837869 -130.935618 
z
" id="m1928d3a4ba" style="stroke:#f14432;stroke-opacity:0.8;"/>
    </defs>
    <g clip-path="url(#p121f5ebc26)">
     <use style="fill:#f14432;fill-opacity:0.8;stroke:#f14432;stroke-opacity:0.8;" x="0" xlink:href="#m1928d3a4ba" y="354.04"/>
    </g>
   </g>
   <g id="matplotlib.axis_1"/>
   <g id="matplotlib.axis_2">
    <g id="ytick_1">
     <g id="line2d_1">
      <defs>
       <path d="M 0 0 
L -3.5 0 
" id="m36189161e3" style="stroke:#000000;stroke-width:0.8;"/>
      </defs>
      <g>
       <use style="stroke:#000000;stroke-width:0.8;" x="81.619687" xlink:href="#m36189161e3" y="327.338723"/>
      </g>
     </g>
     <g id="text_1">
      <!-- −0.02 -->
      <defs>
       <path d="M 10.59375 35.5 
L 73.1875 35.5 
L 73.1875 27.203125 
L 10.59375 27.203125 
z
" id="DejaVuSans-2212"/>
       <path d="M 31.78125 66.40625 
Q 24.171875 66.40625 20.328125 58.90625 
Q 16.5 51.421875 16.5 36.375 
Q 16.5 21.390625 20.328125 13.890625 
Q 24.171875 6.390625 31.78125 6.390625 
Q 39.453125 6.390625 43.28125 13.890625 
Q 47.125 21.390625 47.125 36.375 
Q 47.125 51.421875 43.28125 58.90625 
Q 39.453125 66.40625 31.78125 66.40625 
z
M 31.78125 74.21875 
Q 44.046875 74.21875 50.515625 64.515625 
Q 56.984375 54.828125 56.984375 36.375 
Q 56.984375 17.96875 50.515625 8.265625 
Q 44.046875 -1.421875 31.78125 -1.421875 
Q 19.53125 -1.421875 13.0625 8.265625 
Q 6.59375 17.96875 6.59375 36.375 
Q 6.59375 54.828125 13.0625 64.515625 
Q 19.53125 74.21875 31.78125 74.21875 
z
" id="DejaVuSans-30"/>
       <path d="M 10.6875 12.40625 
L 21 12.40625 
L 21 0 
L 10.6875 0 
z
" id="DejaVuSans-2e"/>
       <path d="M 19.1875 8.296875 
L 53.609375 8.296875 
L 53.609375 0 
L 7.328125 0 
L 7.328125 8.296875 
Q 12.9375 14.109375 22.625 23.890625 
Q 32.328125 33.6875 34.8125 36.53125 
Q 39.546875 41.84375 41.421875 45.53125 
Q 43.3125 49.21875 43.3125 52.78125 
Q 43.3125 58.59375 39.234375 62.25 
Q 35.15625 65.921875 28.609375 65.921875 
Q 23.96875 65.921875 18.8125 64.3125 
Q 13.671875 62.703125 7.8125 59.421875 
L 7.8125 69.390625 
Q 13.765625 71.78125 18.9375 73 
Q 24.125 74.21875 28.421875 74.21875 
Q 39.75 74.21875 46.484375 68.546875 
Q 53.21875 62.890625 53.21875 53.421875 
Q 53.21875 48.921875 51.53125 44.890625 
Q 49.859375 40.875 45.40625 35.40625 
Q 44.1875 33.984375 37.640625 27.21875 
Q 31.109375 20.453125 19.1875 8.296875 
z
" id="DejaVuSans-32"/>
      </defs>
      <g transform="translate(7.2 335.697004)scale(0.22 -0.22)">
       <use xlink:href="#DejaVuSans-2212"/>
       <use x="83.789062" xlink:href="#DejaVuSans-30"/>
       <use x="147.412109" xlink:href="#DejaVuSans-2e"/>
       <use x="179.199219" xlink:href="#DejaVuSans-30"/>
       <use x="242.822266" xlink:href="#DejaVuSans-32"/>
      </g>
     </g>
    </g>
    <g id="ytick_2">
     <g id="line2d_2">
      <g>
       <use style="stroke:#000000;stroke-width:0.8;" x="81.619687" xlink:href="#m36189161e3" y="263.435438"/>
      </g>
     </g>
     <g id="text_2">
      <!-- −0.01 -->
      <defs>
       <path d="M 12.40625 8.296875 
L 28.515625 8.296875 
L 28.515625 63.921875 
L 10.984375 60.40625 
L 10.984375 69.390625 
L 28.421875 72.90625 
L 38.28125 72.90625 
L 38.28125 8.296875 
L 54.390625 8.296875 
L 54.390625 0 
L 12.40625 0 
z
" id="DejaVuSans-31"/>
      </defs>
      <g transform="translate(7.2 271.793719)scale(0.22 -0.22)">
       <use xlink:href="#DejaVuSans-2212"/>
       <use x="83.789062" xlink:href="#DejaVuSans-30"/>
       <use x="147.412109" xlink:href="#DejaVuSans-2e"/>
       <use x="179.199219" xlink:href="#DejaVuSans-30"/>
       <use x="242.822266" xlink:href="#DejaVuSans-31"/>
      </g>
     </g>
    </g>
    <g id="ytick_3">
     <g id="line2d_3">
      <g>
       <use style="stroke:#000000;stroke-width:0.8;" x="81.619687" xlink:href="#m36189161e3" y="199.532152"/>
      </g>
     </g>
     <g id="text_3">
      <!-- 0.00 -->
      <g transform="translate(25.635312 207.890433)scale(0.22 -0.22)">
       <use xlink:href="#DejaVuSans-30"/>
       <use x="63.623047" xlink:href="#DejaVuSans-2e"/>
       <use x="95.410156" xlink:href="#DejaVuSans-30"/>
       <use x="159.033203" xlink:href="#DejaVuSans-30"/>
      </g>
     </g>
    </g>
    <g id="ytick_4">
     <g id="line2d_4">
      <g>
       <use style="stroke:#000000;stroke-width:0.8;" x="81.619687" xlink:href="#m36189161e3" y="135.628866"/>
      </g>
     </g>
     <g id="text_4">
      <!-- 0.01 -->
      <g transform="translate(25.635312 143.987148)scale(0.22 -0.22)">
       <use xlink:href="#DejaVuSans-30"/>
       <use x="63.623047" xlink:href="#DejaVuSans-2e"/>
       <use x="95.410156" xlink:href="#DejaVuSans-30"/>
       <use x="159.033203" xlink:href="#DejaVuSans-31"/>
      </g>
     </g>
    </g>
    <g id="ytick_5">
     <g id="line2d_5">
      <g>
       <use style="stroke:#000000;stroke-width:0.8;" x="81.619687" xlink:href="#m36189161e3" y="71.725581"/>
      </g>
     </g>
     <g id="text_5">
      <!-- 0.02 -->
      <g transform="translate(25.635312 80.083862)scale(0.22 -0.22)">
       <use xlink:href="#DejaVuSans-30"/>
       <use x="63.623047" xlink:href="#DejaVuSans-2e"/>
       <use x="95.410156" xlink:href="#DejaVuSans-30"/>
       <use x="159.033203" xlink:href="#DejaVuSans-32"/>
      </g>
     </g>
    </g>
   </g>
   <g id="patch_3">
    <path d="M 81.619687 343.34 
L 81.619687 10.7 
" style="fill:none;stroke:#000000;stroke-linecap:square;stroke-linejoin:miter;stroke-width:0.8;"/>
   </g>
   <g id="patch_4">
    <path d="M 416.419688 343.34 
L 416.419688 10.7 
" style="fill:none;stroke:#000000;stroke-linecap:square;stroke-linejoin:miter;stroke-width:0.8;"/>
   </g>
   <g id="patch_5">
    <path d="M 81.619687 343.34 
L 416.419688 343.34 
" style="fill:none;stroke:#000000;stroke-linecap:square;stroke-linejoin:miter;stroke-width:0.8;"/>
   </g>
   <g id="patch_6">
    <path d="M 81.619687 10.7 
L 416.419688 10.7 
" style="fill:none;stroke:#000000;stroke-linecap:square;stroke-linejoin:miter;stroke-width:0.8;"/>
   </g>
  </g>
 </g>
 <defs>
  <clipPath id="p121f5ebc26">
   <rect height="332.64" width="334.8" x="81.619687" y="10.7"/>
  </clipPath>
 </defs>
</svg>
