<?xml version="1.0" encoding="utf-8" standalone="no"?>
<!DOCTYPE svg PUBLIC "-//W3C//DTD SVG 1.1//EN"
  "http://www.w3.org/Graphics/SVG/1.1/DTD/svg11.dtd">
<!-- Created with matplotlib (http://matplotlib.org/) -->
<svg height="355pt" version="1.1" viewBox="0 0 217 355" width="217pt" xmlns="http://www.w3.org/2000/svg" xmlns:xlink="http://www.w3.org/1999/xlink">
 <defs>
  <style type="text/css">
*{stroke-linecap:butt;stroke-linejoin:round;}
  </style>
 </defs>
 <g id="figure_1">
  <g id="patch_1">
   <path d="M 0 355.265206 
L 217.917187 355.265206 
L 217.917187 0 
L 0 0 
z
" style="fill:#ffffff;"/>
  </g>
  <g id="axes_1">
   <g id="patch_2">
    <path d="M 95.617188 344.565206 
L 207.217187 344.565206 
L 207.217187 11.925206 
L 95.617188 11.925206 
z
" style="fill:#ffffff;"/>
   </g>
   <g id="matplotlib.axis_1"/>
   <g id="matplotlib.axis_2">
    <g id="ytick_1">
     <g id="line2d_1">
      <defs>
       <path d="M 0 0 
L -3.5 0 
" id="m8297c8b091" style="stroke:#000000;stroke-width:0.8;"/>
      </defs>
      <g>
       <use style="stroke:#000000;stroke-width:0.8;" x="95.617188" xlink:href="#m8297c8b091" y="334.008264"/>
      </g>
     </g>
     <g id="text_1">
      <!-- −0.004 -->
      <defs>
       <path d="M 10.59375 35.5 
L 73.1875 35.5 
L 73.1875 27.203125 
L 10.59375 27.203125 
z
" id="DejaVuSans-2212"/>
       <path d="M 31.78125 66.40625 
Q 24.171875 66.40625 20.328125 58.90625 
Q 16.5 51.421875 16.5 36.375 
Q 16.5 21.390625 20.328125 13.890625 
Q 24.171875 6.390625 31.78125 6.390625 
Q 39.453125 6.390625 43.28125 13.890625 
Q 47.125 21.390625 47.125 36.375 
Q 47.125 51.421875 43.28125 58.90625 
Q 39.453125 66.40625 31.78125 66.40625 
z
M 31.78125 74.21875 
Q 44.046875 74.21875 50.515625 64.515625 
Q 56.984375 54.828125 56.984375 36.375 
Q 56.984375 17.96875 50.515625 8.265625 
Q 44.046875 -1.421875 31.78125 -1.421875 
Q 19.53125 -1.421875 13.0625 8.265625 
Q 6.59375 17.96875 6.59375 36.375 
Q 6.59375 54.828125 13.0625 64.515625 
Q 19.53125 74.21875 31.78125 74.21875 
z
" id="DejaVuSans-30"/>
       <path d="M 10.6875 12.40625 
L 21 12.40625 
L 21 0 
L 10.6875 0 
z
" id="DejaVuSans-2e"/>
       <path d="M 37.796875 64.3125 
L 12.890625 25.390625 
L 37.796875 25.390625 
z
M 35.203125 72.90625 
L 47.609375 72.90625 
L 47.609375 25.390625 
L 58.015625 25.390625 
L 58.015625 17.1875 
L 47.609375 17.1875 
L 47.609375 0 
L 37.796875 0 
L 37.796875 17.1875 
L 4.890625 17.1875 
L 4.890625 26.703125 
z
" id="DejaVuSans-34"/>
      </defs>
      <g transform="translate(7.2 342.366545)scale(0.22 -0.22)">
       <use xlink:href="#DejaVuSans-2212"/>
       <use x="83.789062" xlink:href="#DejaVuSans-30"/>
       <use x="147.412109" xlink:href="#DejaVuSans-2e"/>
       <use x="179.199219" xlink:href="#DejaVuSans-30"/>
       <use x="242.822266" xlink:href="#DejaVuSans-30"/>
       <use x="306.445312" xlink:href="#DejaVuSans-34"/>
      </g>
     </g>
    </g>
    <g id="ytick_2">
     <g id="line2d_2">
      <g>
       <use style="stroke:#000000;stroke-width:0.8;" x="95.617188" xlink:href="#m8297c8b091" y="294.202016"/>
      </g>
     </g>
     <g id="text_2">
      <!-- −0.003 -->
      <defs>
       <path d="M 40.578125 39.3125 
Q 47.65625 37.796875 51.625 33 
Q 55.609375 28.21875 55.609375 21.1875 
Q 55.609375 10.40625 48.1875 4.484375 
Q 40.765625 -1.421875 27.09375 -1.421875 
Q 22.515625 -1.421875 17.65625 -0.515625 
Q 12.796875 0.390625 7.625 2.203125 
L 7.625 11.71875 
Q 11.71875 9.328125 16.59375 8.109375 
Q 21.484375 6.890625 26.8125 6.890625 
Q 36.078125 6.890625 40.9375 10.546875 
Q 45.796875 14.203125 45.796875 21.1875 
Q 45.796875 27.640625 41.28125 31.265625 
Q 36.765625 34.90625 28.71875 34.90625 
L 20.21875 34.90625 
L 20.21875 43.015625 
L 29.109375 43.015625 
Q 36.375 43.015625 40.234375 45.921875 
Q 44.09375 48.828125 44.09375 54.296875 
Q 44.09375 59.90625 40.109375 62.90625 
Q 36.140625 65.921875 28.71875 65.921875 
Q 24.65625 65.921875 20.015625 65.03125 
Q 15.375 64.15625 9.8125 62.3125 
L 9.8125 71.09375 
Q 15.4375 72.65625 20.34375 73.4375 
Q 25.25 74.21875 29.59375 74.21875 
Q 40.828125 74.21875 47.359375 69.109375 
Q 53.90625 64.015625 53.90625 55.328125 
Q 53.90625 49.265625 50.4375 45.09375 
Q 46.96875 40.921875 40.578125 39.3125 
z
" id="DejaVuSans-33"/>
      </defs>
      <g transform="translate(7.2 302.560297)scale(0.22 -0.22)">
       <use xlink:href="#DejaVuSans-2212"/>
       <use x="83.789062" xlink:href="#DejaVuSans-30"/>
       <use x="147.412109" xlink:href="#DejaVuSans-2e"/>
       <use x="179.199219" xlink:href="#DejaVuSans-30"/>
       <use x="242.822266" xlink:href="#DejaVuSans-30"/>
       <use x="306.445312" xlink:href="#DejaVuSans-33"/>
      </g>
     </g>
    </g>
    <g id="ytick_3">
     <g id="line2d_3">
      <g>
       <use style="stroke:#000000;stroke-width:0.8;" x="95.617188" xlink:href="#m8297c8b091" y="254.395768"/>
      </g>
     </g>
     <g id="text_3">
      <!-- −0.002 -->
      <defs>
       <path d="M 19.1875 8.296875 
L 53.609375 8.296875 
L 53.609375 0 
L 7.328125 0 
L 7.328125 8.296875 
Q 12.9375 14.109375 22.625 23.890625 
Q 32.328125 33.6875 34.8125 36.53125 
Q 39.546875 41.84375 41.421875 45.53125 
Q 43.3125 49.21875 43.3125 52.78125 
Q 43.3125 58.59375 39.234375 62.25 
Q 35.15625 65.921875 28.609375 65.921875 
Q 23.96875 65.921875 18.8125 64.3125 
Q 13.671875 62.703125 7.8125 59.421875 
L 7.8125 69.390625 
Q 13.765625 71.78125 18.9375 73 
Q 24.125 74.21875 28.421875 74.21875 
Q 39.75 74.21875 46.484375 68.546875 
Q 53.21875 62.890625 53.21875 53.421875 
Q 53.21875 48.921875 51.53125 44.890625 
Q 49.859375 40.875 45.40625 35.40625 
Q 44.1875 33.984375 37.640625 27.21875 
Q 31.109375 20.453125 19.1875 8.296875 
z
" id="DejaVuSans-32"/>
      </defs>
      <g transform="translate(7.2 262.754049)scale(0.22 -0.22)">
       <use xlink:href="#DejaVuSans-2212"/>
       <use x="83.789062" xlink:href="#DejaVuSans-30"/>
       <use x="147.412109" xlink:href="#DejaVuSans-2e"/>
       <use x="179.199219" xlink:href="#DejaVuSans-30"/>
       <use x="242.822266" xlink:href="#DejaVuSans-30"/>
       <use x="306.445312" xlink:href="#DejaVuSans-32"/>
      </g>
     </g>
    </g>
    <g id="ytick_4">
     <g id="line2d_4">
      <g>
       <use style="stroke:#000000;stroke-width:0.8;" x="95.617188" xlink:href="#m8297c8b091" y="214.58952"/>
      </g>
     </g>
     <g id="text_4">
      <!-- −0.001 -->
      <defs>
       <path d="M 12.40625 8.296875 
L 28.515625 8.296875 
L 28.515625 63.921875 
L 10.984375 60.40625 
L 10.984375 69.390625 
L 28.421875 72.90625 
L 38.28125 72.90625 
L 38.28125 8.296875 
L 54.390625 8.296875 
L 54.390625 0 
L 12.40625 0 
z
" id="DejaVuSans-31"/>
      </defs>
      <g transform="translate(7.2 222.947802)scale(0.22 -0.22)">
       <use xlink:href="#DejaVuSans-2212"/>
       <use x="83.789062" xlink:href="#DejaVuSans-30"/>
       <use x="147.412109" xlink:href="#DejaVuSans-2e"/>
       <use x="179.199219" xlink:href="#DejaVuSans-30"/>
       <use x="242.822266" xlink:href="#DejaVuSans-30"/>
       <use x="306.445312" xlink:href="#DejaVuSans-31"/>
      </g>
     </g>
    </g>
    <g id="ytick_5">
     <g id="line2d_5">
      <g>
       <use style="stroke:#000000;stroke-width:0.8;" x="95.617188" xlink:href="#m8297c8b091" y="174.783272"/>
      </g>
     </g>
     <g id="text_5">
      <!-- 0.000 -->
      <g transform="translate(25.635312 183.141554)scale(0.22 -0.22)">
       <use xlink:href="#DejaVuSans-30"/>
       <use x="63.623047" xlink:href="#DejaVuSans-2e"/>
       <use x="95.410156" xlink:href="#DejaVuSans-30"/>
       <use x="159.033203" xlink:href="#DejaVuSans-30"/>
       <use x="222.65625" xlink:href="#DejaVuSans-30"/>
      </g>
     </g>
    </g>
    <g id="ytick_6">
     <g id="line2d_6">
      <g>
       <use style="stroke:#000000;stroke-width:0.8;" x="95.617188" xlink:href="#m8297c8b091" y="134.977025"/>
      </g>
     </g>
     <g id="text_6">
      <!-- 0.001 -->
      <g transform="translate(25.635312 143.335306)scale(0.22 -0.22)">
       <use xlink:href="#DejaVuSans-30"/>
       <use x="63.623047" xlink:href="#DejaVuSans-2e"/>
       <use x="95.410156" xlink:href="#DejaVuSans-30"/>
       <use x="159.033203" xlink:href="#DejaVuSans-30"/>
       <use x="222.65625" xlink:href="#DejaVuSans-31"/>
      </g>
     </g>
    </g>
    <g id="ytick_7">
     <g id="line2d_7">
      <g>
       <use style="stroke:#000000;stroke-width:0.8;" x="95.617188" xlink:href="#m8297c8b091" y="95.170777"/>
      </g>
     </g>
     <g id="text_7">
      <!-- 0.002 -->
      <g transform="translate(25.635312 103.529058)scale(0.22 -0.22)">
       <use xlink:href="#DejaVuSans-30"/>
       <use x="63.623047" xlink:href="#DejaVuSans-2e"/>
       <use x="95.410156" xlink:href="#DejaVuSans-30"/>
       <use x="159.033203" xlink:href="#DejaVuSans-30"/>
       <use x="222.65625" xlink:href="#DejaVuSans-32"/>
      </g>
     </g>
    </g>
    <g id="ytick_8">
     <g id="line2d_8">
      <g>
       <use style="stroke:#000000;stroke-width:0.8;" x="95.617188" xlink:href="#m8297c8b091" y="55.364529"/>
      </g>
     </g>
     <g id="text_8">
      <!-- 0.003 -->
      <g transform="translate(25.635312 63.72281)scale(0.22 -0.22)">
       <use xlink:href="#DejaVuSans-30"/>
       <use x="63.623047" xlink:href="#DejaVuSans-2e"/>
       <use x="95.410156" xlink:href="#DejaVuSans-30"/>
       <use x="159.033203" xlink:href="#DejaVuSans-30"/>
       <use x="222.65625" xlink:href="#DejaVuSans-33"/>
      </g>
     </g>
    </g>
    <g id="ytick_9">
     <g id="line2d_9">
      <g>
       <use style="stroke:#000000;stroke-width:0.8;" x="95.617188" xlink:href="#m8297c8b091" y="15.558281"/>
      </g>
     </g>
     <g id="text_9">
      <!-- 0.004 -->
      <g transform="translate(25.635312 23.916562)scale(0.22 -0.22)">
       <use xlink:href="#DejaVuSans-30"/>
       <use x="63.623047" xlink:href="#DejaVuSans-2e"/>
       <use x="95.410156" xlink:href="#DejaVuSans-30"/>
       <use x="159.033203" xlink:href="#DejaVuSans-30"/>
       <use x="222.65625" xlink:href="#DejaVuSans-34"/>
      </g>
     </g>
    </g>
   </g>
   <g id="patch_3">
    <path clip-path="url(#pa81b315861)" d="M 100.689915 174.783272 
L 115.183421 174.783272 
L 115.183421 52.294975 
L 100.689915 52.294975 
z
" style="fill:#4a98c9;"/>
   </g>
   <g id="patch_4">
    <path clip-path="url(#pa81b315861)" d="M 115.183421 174.783272 
L 129.676928 174.783272 
L 129.676928 79.397929 
L 115.183421 79.397929 
z
" style="fill:#4a98c9;"/>
   </g>
   <g id="patch_5">
    <path clip-path="url(#pa81b315861)" d="M 129.676928 174.783272 
L 144.170434 174.783272 
L 144.170434 124.069186 
L 129.676928 124.069186 
z
" style="fill:#4a98c9;"/>
   </g>
   <g id="patch_6">
    <path clip-path="url(#pa81b315861)" d="M 144.170434 174.783272 
L 158.663941 174.783272 
L 158.663941 74.455381 
L 144.170434 74.455381 
z
" style="fill:#4a98c9;"/>
   </g>
   <g id="patch_7">
    <path clip-path="url(#pa81b315861)" d="M 158.663941 174.783272 
L 173.157447 174.783272 
L 173.157447 110.914532 
L 158.663941 110.914532 
z
" style="fill:#4a98c9;"/>
   </g>
   <g id="patch_8">
    <path clip-path="url(#pa81b315861)" d="M 173.157447 174.783272 
L 187.650954 174.783272 
L 187.650954 92.380808 
L 173.157447 92.380808 
z
" style="fill:#4a98c9;"/>
   </g>
   <g id="patch_9">
    <path clip-path="url(#pa81b315861)" d="M 187.650954 174.783272 
L 202.14446 174.783272 
L 202.14446 41.638906 
L 187.650954 41.638906 
z
" style="fill:#4a98c9;"/>
   </g>
   <g id="patch_10">
    <path clip-path="url(#pa81b315861)" d="M 100.689915 174.783272 
L 115.183421 174.783272 
L 115.183421 329.445206 
L 100.689915 329.445206 
z
" style="fill:#f14432;"/>
   </g>
   <g id="patch_11">
    <path clip-path="url(#pa81b315861)" d="M 115.183421 174.783272 
L 129.676928 174.783272 
L 129.676928 287.205989 
L 115.183421 287.205989 
z
" style="fill:#f14432;"/>
   </g>
   <g id="patch_12">
    <path clip-path="url(#pa81b315861)" d="M 129.676928 174.783272 
L 144.170434 174.783272 
L 144.170434 255.007317 
L 129.676928 255.007317 
z
" style="fill:#f14432;"/>
   </g>
   <g id="patch_13">
    <path clip-path="url(#pa81b315861)" d="M 144.170434 174.783272 
L 158.663941 174.783272 
L 158.663941 262.128393 
L 144.170434 262.128393 
z
" style="fill:#f14432;"/>
   </g>
   <g id="patch_14">
    <path clip-path="url(#pa81b315861)" d="M 158.663941 174.783272 
L 173.157447 174.783272 
L 173.157447 267.607008 
L 158.663941 267.607008 
z
" style="fill:#f14432;"/>
   </g>
   <g id="patch_15">
    <path clip-path="url(#pa81b315861)" d="M 173.157447 174.783272 
L 187.650954 174.783272 
L 187.650954 228.647431 
L 173.157447 228.647431 
z
" style="fill:#f14432;"/>
   </g>
   <g id="patch_16">
    <path clip-path="url(#pa81b315861)" d="M 187.650954 174.783272 
L 202.14446 174.783272 
L 202.14446 313.347285 
L 187.650954 313.347285 
z
" style="fill:#f14432;"/>
   </g>
   <g id="patch_17">
    <path d="M 95.617188 344.565206 
L 95.617188 11.925206 
" style="fill:none;stroke:#000000;stroke-linecap:square;stroke-linejoin:miter;stroke-width:0.8;"/>
   </g>
   <g id="patch_18">
    <path d="M 207.217187 344.565206 
L 207.217187 11.925206 
" style="fill:none;stroke:#000000;stroke-linecap:square;stroke-linejoin:miter;stroke-width:0.8;"/>
   </g>
   <g id="patch_19">
    <path d="M 95.617188 344.565206 
L 207.217188 344.565206 
" style="fill:none;stroke:#000000;stroke-linecap:square;stroke-linejoin:miter;stroke-width:0.8;"/>
   </g>
   <g id="patch_20">
    <path d="M 95.617188 11.925206 
L 207.217188 11.925206 
" style="fill:none;stroke:#000000;stroke-linecap:square;stroke-linejoin:miter;stroke-width:0.8;"/>
   </g>
   <g id="patch_21">
    <path clip-path="url(#pa81b315861)" d="M 100.689915 174.783272 
L 115.183421 174.783272 
L 115.183421 27.045206 
L 100.689915 27.045206 
z
" style="fill:none;stroke:#000000;stroke-linejoin:miter;"/>
   </g>
   <g id="patch_22">
    <path clip-path="url(#pa81b315861)" d="M 115.183421 174.783272 
L 129.676928 174.783272 
L 129.676928 35.447398 
L 115.183421 35.447398 
z
" style="fill:none;stroke:#000000;stroke-linejoin:miter;"/>
   </g>
   <g id="patch_23">
    <path clip-path="url(#pa81b315861)" d="M 129.676928 174.783272 
L 144.170434 174.783272 
L 144.170434 39.313375 
L 129.676928 39.313375 
z
" style="fill:none;stroke:#000000;stroke-linejoin:miter;"/>
   </g>
   <g id="patch_24">
    <path clip-path="url(#pa81b315861)" d="M 144.170434 174.783272 
L 158.663941 174.783272 
L 158.663941 46.173955 
L 144.170434 46.173955 
z
" style="fill:none;stroke:#000000;stroke-linejoin:miter;"/>
   </g>
   <g id="patch_25">
    <path clip-path="url(#pa81b315861)" d="M 158.663941 174.783272 
L 173.157447 174.783272 
L 173.157447 49.279808 
L 158.663941 49.279808 
z
" style="fill:none;stroke:#000000;stroke-linejoin:miter;"/>
   </g>
   <g id="patch_26">
    <path clip-path="url(#pa81b315861)" d="M 173.157447 174.783272 
L 187.650954 174.783272 
L 187.650954 66.648273 
L 173.157447 66.648273 
z
" style="fill:none;stroke:#000000;stroke-linejoin:miter;"/>
   </g>
   <g id="patch_27">
    <path clip-path="url(#pa81b315861)" d="M 187.650954 174.783272 
L 202.14446 174.783272 
L 202.14446 69.699561 
L 187.650954 69.699561 
z
" style="fill:none;stroke:#000000;stroke-linejoin:miter;"/>
   </g>
   <g id="patch_28">
    <path clip-path="url(#pa81b315861)" d="M 100.689915 174.783272 
L 115.183421 174.783272 
L 115.183421 322.521339 
L 100.689915 322.521339 
z
" style="fill:none;stroke:#000000;stroke-linejoin:miter;"/>
   </g>
   <g id="patch_29">
    <path clip-path="url(#pa81b315861)" d="M 115.183421 174.783272 
L 129.676928 174.783272 
L 129.676928 314.119147 
L 115.183421 314.119147 
z
" style="fill:none;stroke:#000000;stroke-linejoin:miter;"/>
   </g>
   <g id="patch_30">
    <path clip-path="url(#pa81b315861)" d="M 129.676928 174.783272 
L 144.170434 174.783272 
L 144.170434 310.25317 
L 129.676928 310.25317 
z
" style="fill:none;stroke:#000000;stroke-linejoin:miter;"/>
   </g>
   <g id="patch_31">
    <path clip-path="url(#pa81b315861)" d="M 144.170434 174.783272 
L 158.663941 174.783272 
L 158.663941 303.39259 
L 144.170434 303.39259 
z
" style="fill:none;stroke:#000000;stroke-linejoin:miter;"/>
   </g>
   <g id="patch_32">
    <path clip-path="url(#pa81b315861)" d="M 158.663941 174.783272 
L 173.157447 174.783272 
L 173.157447 300.286737 
L 158.663941 300.286737 
z
" style="fill:none;stroke:#000000;stroke-linejoin:miter;"/>
   </g>
   <g id="patch_33">
    <path clip-path="url(#pa81b315861)" d="M 173.157447 174.783272 
L 187.650954 174.783272 
L 187.650954 282.918272 
L 173.157447 282.918272 
z
" style="fill:none;stroke:#000000;stroke-linejoin:miter;"/>
   </g>
   <g id="patch_34">
    <path clip-path="url(#pa81b315861)" d="M 187.650954 174.783272 
L 202.14446 174.783272 
L 202.14446 279.866984 
L 187.650954 279.866984 
z
" style="fill:none;stroke:#000000;stroke-linejoin:miter;"/>
   </g>
  </g>
 </g>
 <defs>
  <clipPath id="pa81b315861">
   <rect height="332.64" width="111.6" x="95.617188" y="11.925206"/>
  </clipPath>
 </defs>
</svg>
