<?xml version="1.0" encoding="utf-8" standalone="no"?>
<!DOCTYPE svg PUBLIC "-//W3C//DTD SVG 1.1//EN"
  "http://www.w3.org/Graphics/SVG/1.1/DTD/svg11.dtd">
<!-- Created with matplotlib (http://matplotlib.org/) -->
<svg height="354pt" version="1.1" viewBox="0 0 441 354" width="441pt" xmlns="http://www.w3.org/2000/svg" xmlns:xlink="http://www.w3.org/1999/xlink">
 <defs>
  <style type="text/css">
*{stroke-linecap:butt;stroke-linejoin:round;}
  </style>
 </defs>
 <g id="figure_1">
  <g id="patch_1">
   <path d="M 0 354.04 
L 441.117188 354.04 
L 441.117188 0 
L 0 0 
z
" style="fill:#ffffff;"/>
  </g>
  <g id="axes_1">
   <g id="patch_2">
    <path d="M 95.617188 343.34 
L 430.417188 343.34 
L 430.417188 10.7 
L 95.617188 10.7 
z
" style="fill:#ffffff;"/>
   </g>
   <g id="PolyCollection_1">
    <defs>
     <path d="M 110.835369 -25.82 
L 110.835369 -169.333161 
L 114.14367 -169.333161 
L 117.45197 -169.333161 
L 120.760271 -169.333161 
L 124.068571 -169.333161 
L 127.376871 -169.333161 
L 130.685172 -169.333161 
L 133.993472 -169.333161 
L 137.301772 -169.333161 
L 140.610073 -169.333161 
L 143.918373 -169.333161 
L 147.226674 -169.333161 
L 150.534974 -169.333161 
L 153.843274 -169.333161 
L 157.151575 -169.333161 
L 160.459875 -169.333161 
L 163.768176 -169.333161 
L 167.076476 -169.333161 
L 170.384776 -169.333161 
L 173.693077 -169.333161 
L 177.001377 -169.333161 
L 180.309678 -169.333161 
L 183.617978 -169.333161 
L 186.926278 -169.333161 
L 190.234579 -169.333161 
L 193.542879 -169.333161 
L 196.85118 -169.333161 
L 200.15948 -169.333161 
L 203.46778 -169.333161 
L 206.776081 -169.333161 
L 210.084381 -169.333161 
L 213.392682 -169.333161 
L 216.700982 -169.333161 
L 220.009282 -169.333161 
L 223.317583 -169.333161 
L 226.625883 -169.333161 
L 229.934184 -169.333161 
L 233.242484 -169.333161 
L 236.550784 -169.333161 
L 239.859085 -169.333161 
L 243.167385 -169.333161 
L 246.475686 -169.333161 
L 249.783986 -169.333161 
L 253.092286 -169.333161 
L 256.400587 -169.333161 
L 259.708887 -169.333161 
L 263.017188 -169.333161 
L 266.325488 -169.333161 
L 269.633788 -169.333161 
L 272.942089 -169.333161 
L 276.250389 -169.333161 
L 279.558689 -169.333161 
L 282.86699 -169.333161 
L 286.17529 -169.333161 
L 289.483591 -169.333161 
L 292.791891 -169.333161 
L 296.100191 -169.333161 
L 299.408492 -169.333161 
L 302.716792 -169.333161 
L 306.025093 -169.333161 
L 309.333393 -169.333161 
L 312.641693 -169.333161 
L 315.949994 -169.333161 
L 319.258294 -169.333161 
L 322.566595 -169.333161 
L 325.874895 -169.333161 
L 329.183195 -169.333161 
L 332.491496 -169.333161 
L 335.799796 -169.333161 
L 339.108097 -169.333161 
L 342.416397 -169.333161 
L 345.724697 -169.333161 
L 349.032998 -169.333161 
L 352.341298 -169.333161 
L 355.649599 -169.333161 
L 358.957899 -169.333161 
L 362.266199 -169.333161 
L 365.5745 -169.333161 
L 368.8828 -169.333161 
L 372.191101 -169.333161 
L 375.499401 -169.333161 
L 378.807701 -169.333161 
L 382.116002 -169.333161 
L 385.424302 -169.333161 
L 388.732603 -169.333161 
L 392.040903 -169.333161 
L 395.349203 -169.333161 
L 398.657504 -169.333161 
L 401.965804 -169.333161 
L 405.274104 -169.333161 
L 408.582405 -169.333161 
L 411.890705 -169.333161 
L 415.199006 -169.333161 
L 415.199006 -298.158905 
L 415.199006 -298.158905 
L 411.890705 -277.221521 
L 408.582405 -271.226872 
L 405.274104 -261.097555 
L 401.965804 -238.016878 
L 398.657504 -237.031445 
L 395.349203 -214.442273 
L 392.040903 -213.17741 
L 388.732603 -212.642268 
L 385.424302 -211.170381 
L 382.116002 -209.104253 
L 378.807701 -206.932713 
L 375.499401 -206.72219 
L 372.191101 -205.844343 
L 368.8828 -203.869579 
L 365.5745 -197.799635 
L 362.266199 -196.776276 
L 358.957899 -196.235343 
L 355.649599 -195.702294 
L 352.341298 -194.972783 
L 349.032998 -194.443914 
L 345.724697 -191.573995 
L 342.416397 -190.456017 
L 339.108097 -190.437304 
L 335.799796 -189.869877 
L 332.491496 -189.283831 
L 329.183195 -189.075227 
L 325.874895 -188.692215 
L 322.566595 -188.650403 
L 319.258294 -187.578993 
L 315.949994 -185.257976 
L 312.641693 -184.585174 
L 309.333393 -183.921361 
L 306.025093 -183.547808 
L 302.716792 -183.017567 
L 299.408492 -182.923662 
L 296.100191 -180.816356 
L 292.791891 -179.800023 
L 289.483591 -179.262881 
L 286.17529 -179.22384 
L 282.86699 -178.937199 
L 279.558689 -178.811044 
L 276.250389 -178.544091 
L 272.942089 -177.663244 
L 269.633788 -177.00953 
L 266.325488 -176.002731 
L 263.017188 -175.658599 
L 259.708887 -174.871318 
L 256.400587 -174.556293 
L 253.092286 -173.811454 
L 249.783986 -173.638324 
L 246.475686 -173.297972 
L 243.167385 -171.795299 
L 239.859085 -170.656502 
L 236.550784 -170.283782 
L 233.242484 -169.576729 
L 229.934184 -169.147114 
L 226.625883 -169.094452 
L 223.317583 -168.925162 
L 220.009282 -168.606907 
L 216.700982 -168.448681 
L 213.392682 -167.548198 
L 210.084381 -167.017403 
L 206.776081 -166.908206 
L 203.46778 -166.196408 
L 200.15948 -165.804839 
L 196.85118 -165.795081 
L 193.542879 -165.713238 
L 190.234579 -164.406327 
L 186.926278 -163.363516 
L 183.617978 -163.103807 
L 180.309678 -162.61228 
L 177.001377 -161.942598 
L 173.693077 -161.774221 
L 170.384776 -161.607699 
L 167.076476 -161.327154 
L 163.768176 -159.719409 
L 160.459875 -159.38563 
L 157.151575 -157.551365 
L 153.843274 -154.803998 
L 150.534974 -154.792554 
L 147.226674 -153.983739 
L 143.918373 -152.61784 
L 140.610073 -151.12285 
L 137.301772 -150.58012 
L 133.993472 -149.930947 
L 130.685172 -148.866193 
L 127.376871 -144.96207 
L 124.068571 -144.24607 
L 120.760271 -141.434339 
L 117.45197 -125.882699 
L 114.14367 -125.004208 
L 110.835369 -25.82 
z
" id="m2dc9d605a3" style="stroke:#4a98c9;"/>
    </defs>
    <g clip-path="url(#p6f5db47cc5)">
     <use style="fill:#4a98c9;stroke:#4a98c9;" x="0" xlink:href="#m2dc9d605a3" y="354.04"/>
    </g>
   </g>
   <g id="PolyCollection_2">
    <defs>
     <path d="M 110.835369 -36.203624 
L 110.835369 -169.333161 
L 114.14367 -169.333161 
L 117.45197 -169.333161 
L 120.760271 -169.333161 
L 124.068571 -169.333161 
L 127.376871 -169.333161 
L 130.685172 -169.333161 
L 133.993472 -169.333161 
L 137.301772 -169.333161 
L 140.610073 -169.333161 
L 143.918373 -169.333161 
L 147.226674 -169.333161 
L 150.534974 -169.333161 
L 153.843274 -169.333161 
L 157.151575 -169.333161 
L 160.459875 -169.333161 
L 163.768176 -169.333161 
L 167.076476 -169.333161 
L 170.384776 -169.333161 
L 173.693077 -169.333161 
L 177.001377 -169.333161 
L 180.309678 -169.333161 
L 183.617978 -169.333161 
L 186.926278 -169.333161 
L 190.234579 -169.333161 
L 193.542879 -169.333161 
L 196.85118 -169.333161 
L 200.15948 -169.333161 
L 203.46778 -169.333161 
L 206.776081 -169.333161 
L 210.084381 -169.333161 
L 213.392682 -169.333161 
L 216.700982 -169.333161 
L 220.009282 -169.333161 
L 223.317583 -169.333161 
L 226.625883 -169.333161 
L 229.934184 -169.333161 
L 233.242484 -169.333161 
L 236.550784 -169.333161 
L 239.859085 -169.333161 
L 243.167385 -169.333161 
L 246.475686 -169.333161 
L 249.783986 -169.333161 
L 253.092286 -169.333161 
L 256.400587 -169.333161 
L 259.708887 -169.333161 
L 263.017188 -169.333161 
L 266.325488 -169.333161 
L 269.633788 -169.333161 
L 272.942089 -169.333161 
L 276.250389 -169.333161 
L 279.558689 -169.333161 
L 282.86699 -169.333161 
L 286.17529 -169.333161 
L 289.483591 -169.333161 
L 292.791891 -169.333161 
L 296.100191 -169.333161 
L 299.408492 -169.333161 
L 302.716792 -169.333161 
L 306.025093 -169.333161 
L 309.333393 -169.333161 
L 312.641693 -169.333161 
L 315.949994 -169.333161 
L 319.258294 -169.333161 
L 322.566595 -169.333161 
L 325.874895 -169.333161 
L 329.183195 -169.333161 
L 332.491496 -169.333161 
L 335.799796 -169.333161 
L 339.108097 -169.333161 
L 342.416397 -169.333161 
L 345.724697 -169.333161 
L 349.032998 -169.333161 
L 352.341298 -169.333161 
L 355.649599 -169.333161 
L 358.957899 -169.333161 
L 362.266199 -169.333161 
L 365.5745 -169.333161 
L 368.8828 -169.333161 
L 372.191101 -169.333161 
L 375.499401 -169.333161 
L 378.807701 -169.333161 
L 382.116002 -169.333161 
L 385.424302 -169.333161 
L 388.732603 -169.333161 
L 392.040903 -169.333161 
L 395.349203 -169.333161 
L 398.657504 -169.333161 
L 401.965804 -169.333161 
L 405.274104 -169.333161 
L 408.582405 -169.333161 
L 411.890705 -169.333161 
L 415.199006 -169.333161 
L 415.199006 -328.22 
L 415.199006 -328.22 
L 411.890705 -311.413558 
L 408.582405 -290.76866 
L 405.274104 -285.558863 
L 401.965804 -270.46588 
L 398.657504 -267.865538 
L 395.349203 -261.931672 
L 392.040903 -256.990073 
L 388.732603 -256.46264 
L 385.424302 -251.426538 
L 382.116002 -234.720768 
L 378.807701 -232.602924 
L 375.499401 -232.174581 
L 372.191101 -225.274439 
L 368.8828 -217.303592 
L 365.5745 -211.963343 
L 362.266199 -211.816362 
L 358.957899 -210.536407 
L 355.649599 -207.635196 
L 352.341298 -206.556105 
L 349.032998 -205.006526 
L 345.724697 -202.95408 
L 342.416397 -201.760304 
L 339.108097 -199.125697 
L 335.799796 -195.525093 
L 332.491496 -193.450779 
L 329.183195 -192.619697 
L 325.874895 -191.963332 
L 322.566595 -191.496146 
L 319.258294 -190.705945 
L 315.949994 -186.449104 
L 312.641693 -186.23834 
L 309.333393 -183.628487 
L 306.025093 -182.220151 
L 302.716792 -181.828737 
L 299.408492 -178.718794 
L 296.100191 -177.811576 
L 292.791891 -177.185818 
L 289.483591 -176.157299 
L 286.17529 -175.800267 
L 282.86699 -175.02399 
L 279.558689 -173.98146 
L 276.250389 -173.882078 
L 272.942089 -173.84105 
L 269.633788 -173.775393 
L 266.325488 -173.729317 
L 263.017188 -173.72797 
L 259.708887 -172.896059 
L 256.400587 -172.395284 
L 253.092286 -172.080001 
L 249.783986 -171.445197 
L 246.475686 -171.307658 
L 243.167385 -171.157001 
L 239.859085 -170.860141 
L 236.550784 -170.058052 
L 233.242484 -169.490828 
L 229.934184 -169.262484 
L 226.625883 -168.576318 
L 223.317583 -168.357783 
L 220.009282 -168.3204 
L 216.700982 -167.608452 
L 213.392682 -166.054469 
L 210.084381 -165.822181 
L 206.776081 -165.75969 
L 203.46778 -165.506959 
L 200.15948 -164.670245 
L 196.85118 -164.130355 
L 193.542879 -163.585135 
L 190.234579 -163.123935 
L 186.926278 -162.680677 
L 183.617978 -162.405077 
L 180.309678 -162.302002 
L 177.001377 -160.812722 
L 173.693077 -160.128164 
L 170.384776 -157.604357 
L 167.076476 -157.403932 
L 163.768176 -156.316049 
L 160.459875 -155.039593 
L 157.151575 -152.855264 
L 153.843274 -151.330579 
L 150.534974 -149.646079 
L 147.226674 -149.369036 
L 143.918373 -148.909342 
L 140.610073 -147.867468 
L 137.301772 -143.730738 
L 133.993472 -143.549075 
L 130.685172 -140.956049 
L 127.376871 -137.322871 
L 124.068571 -137.042906 
L 120.760271 -122.484688 
L 117.45197 -101.592331 
L 114.14367 -82.494064 
L 110.835369 -36.203624 
z
" id="m0ce2f1356c" style="stroke:#f14432;stroke-opacity:0.8;"/>
    </defs>
    <g clip-path="url(#p6f5db47cc5)">
     <use style="fill:#f14432;fill-opacity:0.8;stroke:#f14432;stroke-opacity:0.8;" x="0" xlink:href="#m0ce2f1356c" y="354.04"/>
    </g>
   </g>
   <g id="matplotlib.axis_1"/>
   <g id="matplotlib.axis_2">
    <g id="ytick_1">
     <g id="line2d_1">
      <defs>
       <path d="M 0 0 
L -3.5 0 
" id="m4327f1f792" style="stroke:#000000;stroke-width:0.8;"/>
      </defs>
      <g>
       <use style="stroke:#000000;stroke-width:0.8;" x="95.617188" xlink:href="#m4327f1f792" y="305.9236"/>
      </g>
     </g>
     <g id="text_1">
      <!-- −0.003 -->
      <defs>
       <path d="M 10.59375 35.5 
L 73.1875 35.5 
L 73.1875 27.203125 
L 10.59375 27.203125 
z
" id="DejaVuSans-2212"/>
       <path d="M 31.78125 66.40625 
Q 24.171875 66.40625 20.328125 58.90625 
Q 16.5 51.421875 16.5 36.375 
Q 16.5 21.390625 20.328125 13.890625 
Q 24.171875 6.390625 31.78125 6.390625 
Q 39.453125 6.390625 43.28125 13.890625 
Q 47.125 21.390625 47.125 36.375 
Q 47.125 51.421875 43.28125 58.90625 
Q 39.453125 66.40625 31.78125 66.40625 
z
M 31.78125 74.21875 
Q 44.046875 74.21875 50.515625 64.515625 
Q 56.984375 54.828125 56.984375 36.375 
Q 56.984375 17.96875 50.515625 8.265625 
Q 44.046875 -1.421875 31.78125 -1.421875 
Q 19.53125 -1.421875 13.0625 8.265625 
Q 6.59375 17.96875 6.59375 36.375 
Q 6.59375 54.828125 13.0625 64.515625 
Q 19.53125 74.21875 31.78125 74.21875 
z
" id="DejaVuSans-30"/>
       <path d="M 10.6875 12.40625 
L 21 12.40625 
L 21 0 
L 10.6875 0 
z
" id="DejaVuSans-2e"/>
       <path d="M 40.578125 39.3125 
Q 47.65625 37.796875 51.625 33 
Q 55.609375 28.21875 55.609375 21.1875 
Q 55.609375 10.40625 48.1875 4.484375 
Q 40.765625 -1.421875 27.09375 -1.421875 
Q 22.515625 -1.421875 17.65625 -0.515625 
Q 12.796875 0.390625 7.625 2.203125 
L 7.625 11.71875 
Q 11.71875 9.328125 16.59375 8.109375 
Q 21.484375 6.890625 26.8125 6.890625 
Q 36.078125 6.890625 40.9375 10.546875 
Q 45.796875 14.203125 45.796875 21.1875 
Q 45.796875 27.640625 41.28125 31.265625 
Q 36.765625 34.90625 28.71875 34.90625 
L 20.21875 34.90625 
L 20.21875 43.015625 
L 29.109375 43.015625 
Q 36.375 43.015625 40.234375 45.921875 
Q 44.09375 48.828125 44.09375 54.296875 
Q 44.09375 59.90625 40.109375 62.90625 
Q 36.140625 65.921875 28.71875 65.921875 
Q 24.65625 65.921875 20.015625 65.03125 
Q 15.375 64.15625 9.8125 62.3125 
L 9.8125 71.09375 
Q 15.4375 72.65625 20.34375 73.4375 
Q 25.25 74.21875 29.59375 74.21875 
Q 40.828125 74.21875 47.359375 69.109375 
Q 53.90625 64.015625 53.90625 55.328125 
Q 53.90625 49.265625 50.4375 45.09375 
Q 46.96875 40.921875 40.578125 39.3125 
z
" id="DejaVuSans-33"/>
      </defs>
      <g transform="translate(7.2 314.281882)scale(0.22 -0.22)">
       <use xlink:href="#DejaVuSans-2212"/>
       <use x="83.789062" xlink:href="#DejaVuSans-30"/>
       <use x="147.412109" xlink:href="#DejaVuSans-2e"/>
       <use x="179.199219" xlink:href="#DejaVuSans-30"/>
       <use x="242.822266" xlink:href="#DejaVuSans-30"/>
       <use x="306.445312" xlink:href="#DejaVuSans-33"/>
      </g>
     </g>
    </g>
    <g id="ytick_2">
     <g id="line2d_2">
      <g>
       <use style="stroke:#000000;stroke-width:0.8;" x="95.617188" xlink:href="#m4327f1f792" y="265.518013"/>
      </g>
     </g>
     <g id="text_2">
      <!-- −0.002 -->
      <defs>
       <path d="M 19.1875 8.296875 
L 53.609375 8.296875 
L 53.609375 0 
L 7.328125 0 
L 7.328125 8.296875 
Q 12.9375 14.109375 22.625 23.890625 
Q 32.328125 33.6875 34.8125 36.53125 
Q 39.546875 41.84375 41.421875 45.53125 
Q 43.3125 49.21875 43.3125 52.78125 
Q 43.3125 58.59375 39.234375 62.25 
Q 35.15625 65.921875 28.609375 65.921875 
Q 23.96875 65.921875 18.8125 64.3125 
Q 13.671875 62.703125 7.8125 59.421875 
L 7.8125 69.390625 
Q 13.765625 71.78125 18.9375 73 
Q 24.125 74.21875 28.421875 74.21875 
Q 39.75 74.21875 46.484375 68.546875 
Q 53.21875 62.890625 53.21875 53.421875 
Q 53.21875 48.921875 51.53125 44.890625 
Q 49.859375 40.875 45.40625 35.40625 
Q 44.1875 33.984375 37.640625 27.21875 
Q 31.109375 20.453125 19.1875 8.296875 
z
" id="DejaVuSans-32"/>
      </defs>
      <g transform="translate(7.2 273.876294)scale(0.22 -0.22)">
       <use xlink:href="#DejaVuSans-2212"/>
       <use x="83.789062" xlink:href="#DejaVuSans-30"/>
       <use x="147.412109" xlink:href="#DejaVuSans-2e"/>
       <use x="179.199219" xlink:href="#DejaVuSans-30"/>
       <use x="242.822266" xlink:href="#DejaVuSans-30"/>
       <use x="306.445312" xlink:href="#DejaVuSans-32"/>
      </g>
     </g>
    </g>
    <g id="ytick_3">
     <g id="line2d_3">
      <g>
       <use style="stroke:#000000;stroke-width:0.8;" x="95.617188" xlink:href="#m4327f1f792" y="225.112426"/>
      </g>
     </g>
     <g id="text_3">
      <!-- −0.001 -->
      <defs>
       <path d="M 12.40625 8.296875 
L 28.515625 8.296875 
L 28.515625 63.921875 
L 10.984375 60.40625 
L 10.984375 69.390625 
L 28.421875 72.90625 
L 38.28125 72.90625 
L 38.28125 8.296875 
L 54.390625 8.296875 
L 54.390625 0 
L 12.40625 0 
z
" id="DejaVuSans-31"/>
      </defs>
      <g transform="translate(7.2 233.470707)scale(0.22 -0.22)">
       <use xlink:href="#DejaVuSans-2212"/>
       <use x="83.789062" xlink:href="#DejaVuSans-30"/>
       <use x="147.412109" xlink:href="#DejaVuSans-2e"/>
       <use x="179.199219" xlink:href="#DejaVuSans-30"/>
       <use x="242.822266" xlink:href="#DejaVuSans-30"/>
       <use x="306.445312" xlink:href="#DejaVuSans-31"/>
      </g>
     </g>
    </g>
    <g id="ytick_4">
     <g id="line2d_4">
      <g>
       <use style="stroke:#000000;stroke-width:0.8;" x="95.617188" xlink:href="#m4327f1f792" y="184.706839"/>
      </g>
     </g>
     <g id="text_4">
      <!-- 0.000 -->
      <g transform="translate(25.635312 193.06512)scale(0.22 -0.22)">
       <use xlink:href="#DejaVuSans-30"/>
       <use x="63.623047" xlink:href="#DejaVuSans-2e"/>
       <use x="95.410156" xlink:href="#DejaVuSans-30"/>
       <use x="159.033203" xlink:href="#DejaVuSans-30"/>
       <use x="222.65625" xlink:href="#DejaVuSans-30"/>
      </g>
     </g>
    </g>
    <g id="ytick_5">
     <g id="line2d_5">
      <g>
       <use style="stroke:#000000;stroke-width:0.8;" x="95.617188" xlink:href="#m4327f1f792" y="144.301251"/>
      </g>
     </g>
     <g id="text_5">
      <!-- 0.001 -->
      <g transform="translate(25.635312 152.659533)scale(0.22 -0.22)">
       <use xlink:href="#DejaVuSans-30"/>
       <use x="63.623047" xlink:href="#DejaVuSans-2e"/>
       <use x="95.410156" xlink:href="#DejaVuSans-30"/>
       <use x="159.033203" xlink:href="#DejaVuSans-30"/>
       <use x="222.65625" xlink:href="#DejaVuSans-31"/>
      </g>
     </g>
    </g>
    <g id="ytick_6">
     <g id="line2d_6">
      <g>
       <use style="stroke:#000000;stroke-width:0.8;" x="95.617188" xlink:href="#m4327f1f792" y="103.895664"/>
      </g>
     </g>
     <g id="text_6">
      <!-- 0.002 -->
      <g transform="translate(25.635312 112.253945)scale(0.22 -0.22)">
       <use xlink:href="#DejaVuSans-30"/>
       <use x="63.623047" xlink:href="#DejaVuSans-2e"/>
       <use x="95.410156" xlink:href="#DejaVuSans-30"/>
       <use x="159.033203" xlink:href="#DejaVuSans-30"/>
       <use x="222.65625" xlink:href="#DejaVuSans-32"/>
      </g>
     </g>
    </g>
    <g id="ytick_7">
     <g id="line2d_7">
      <g>
       <use style="stroke:#000000;stroke-width:0.8;" x="95.617188" xlink:href="#m4327f1f792" y="63.490077"/>
      </g>
     </g>
     <g id="text_7">
      <!-- 0.003 -->
      <g transform="translate(25.635312 71.848358)scale(0.22 -0.22)">
       <use xlink:href="#DejaVuSans-30"/>
       <use x="63.623047" xlink:href="#DejaVuSans-2e"/>
       <use x="95.410156" xlink:href="#DejaVuSans-30"/>
       <use x="159.033203" xlink:href="#DejaVuSans-30"/>
       <use x="222.65625" xlink:href="#DejaVuSans-33"/>
      </g>
     </g>
    </g>
    <g id="ytick_8">
     <g id="line2d_8">
      <g>
       <use style="stroke:#000000;stroke-width:0.8;" x="95.617188" xlink:href="#m4327f1f792" y="23.08449"/>
      </g>
     </g>
     <g id="text_8">
      <!-- 0.004 -->
      <defs>
       <path d="M 37.796875 64.3125 
L 12.890625 25.390625 
L 37.796875 25.390625 
z
M 35.203125 72.90625 
L 47.609375 72.90625 
L 47.609375 25.390625 
L 58.015625 25.390625 
L 58.015625 17.1875 
L 47.609375 17.1875 
L 47.609375 0 
L 37.796875 0 
L 37.796875 17.1875 
L 4.890625 17.1875 
L 4.890625 26.703125 
z
" id="DejaVuSans-34"/>
      </defs>
      <g transform="translate(25.635312 31.442771)scale(0.22 -0.22)">
       <use xlink:href="#DejaVuSans-30"/>
       <use x="63.623047" xlink:href="#DejaVuSans-2e"/>
       <use x="95.410156" xlink:href="#DejaVuSans-30"/>
       <use x="159.033203" xlink:href="#DejaVuSans-30"/>
       <use x="222.65625" xlink:href="#DejaVuSans-34"/>
      </g>
     </g>
    </g>
   </g>
   <g id="patch_3">
    <path d="M 95.617188 343.34 
L 95.617188 10.7 
" style="fill:none;stroke:#000000;stroke-linecap:square;stroke-linejoin:miter;stroke-width:0.8;"/>
   </g>
   <g id="patch_4">
    <path d="M 430.417188 343.34 
L 430.417188 10.7 
" style="fill:none;stroke:#000000;stroke-linecap:square;stroke-linejoin:miter;stroke-width:0.8;"/>
   </g>
   <g id="patch_5">
    <path d="M 95.617188 343.34 
L 430.417188 343.34 
" style="fill:none;stroke:#000000;stroke-linecap:square;stroke-linejoin:miter;stroke-width:0.8;"/>
   </g>
   <g id="patch_6">
    <path d="M 95.617188 10.7 
L 430.417188 10.7 
" style="fill:none;stroke:#000000;stroke-linecap:square;stroke-linejoin:miter;stroke-width:0.8;"/>
   </g>
  </g>
 </g>
 <defs>
  <clipPath id="p6f5db47cc5">
   <rect height="332.64" width="334.8" x="95.617188" y="10.7"/>
  </clipPath>
 </defs>
</svg>
