<?xml version="1.0" encoding="utf-8" standalone="no"?>
<!DOCTYPE svg PUBLIC "-//W3C//DTD SVG 1.1//EN"
  "http://www.w3.org/Graphics/SVG/1.1/DTD/svg11.dtd">
<!-- Created with matplotlib (http://matplotlib.org/) -->
<svg height="354pt" version="1.1" viewBox="0 0 422 354" width="422pt" xmlns="http://www.w3.org/2000/svg" xmlns:xlink="http://www.w3.org/1999/xlink">
 <defs>
  <style type="text/css">
*{stroke-linecap:butt;stroke-linejoin:round;}
  </style>
 </defs>
 <g id="figure_1">
  <g id="patch_1">
   <path d="M 0 354.04 
L 422.681875 354.04 
L 422.681875 0 
L 0 0 
z
" style="fill:#ffffff;"/>
  </g>
  <g id="axes_1">
   <g id="patch_2">
    <path d="M 77.181875 343.34 
L 411.981875 343.34 
L 411.981875 10.7 
L 77.181875 10.7 
z
" style="fill:#ffffff;"/>
   </g>
   <g id="PolyCollection_1">
    <defs>
     <path d="M 92.400057 -30.32899 
L 92.400057 -32.473915 
L 95.708357 -32.473915 
L 99.016658 -32.473915 
L 102.324958 -32.473915 
L 105.633258 -32.473915 
L 108.941559 -32.473915 
L 112.249859 -32.473915 
L 115.55816 -32.473915 
L 118.86646 -32.473915 
L 122.17476 -32.473915 
L 125.483061 -32.473915 
L 128.791361 -32.473915 
L 132.099662 -32.473915 
L 135.407962 -32.473915 
L 138.716262 -32.473915 
L 142.024563 -32.473915 
L 145.332863 -32.473915 
L 148.641164 -32.473915 
L 151.949464 -32.473915 
L 155.257764 -32.473915 
L 158.566065 -32.473915 
L 161.874365 -32.473915 
L 165.182666 -32.473915 
L 168.490966 -32.473915 
L 171.799266 -32.473915 
L 175.107567 -32.473915 
L 178.415867 -32.473915 
L 181.724167 -32.473915 
L 185.032468 -32.473915 
L 188.340768 -32.473915 
L 191.649069 -32.473915 
L 194.957369 -32.473915 
L 198.265669 -32.473915 
L 201.57397 -32.473915 
L 204.88227 -32.473915 
L 208.190571 -32.473915 
L 211.498871 -32.473915 
L 214.807171 -32.473915 
L 218.115472 -32.473915 
L 221.423772 -32.473915 
L 224.732073 -32.473915 
L 228.040373 -32.473915 
L 231.348673 -32.473915 
L 234.656974 -32.473915 
L 237.965274 -32.473915 
L 241.273575 -32.473915 
L 244.581875 -32.473915 
L 247.890175 -32.473915 
L 251.198476 -32.473915 
L 254.506776 -32.473915 
L 257.815077 -32.473915 
L 261.123377 -32.473915 
L 264.431677 -32.473915 
L 267.739978 -32.473915 
L 271.048278 -32.473915 
L 274.356579 -32.473915 
L 277.664879 -32.473915 
L 280.973179 -32.473915 
L 284.28148 -32.473915 
L 287.58978 -32.473915 
L 290.898081 -32.473915 
L 294.206381 -32.473915 
L 297.514681 -32.473915 
L 300.822982 -32.473915 
L 304.131282 -32.473915 
L 307.439583 -32.473915 
L 310.747883 -32.473915 
L 314.056183 -32.473915 
L 317.364484 -32.473915 
L 320.672784 -32.473915 
L 323.981084 -32.473915 
L 327.289385 -32.473915 
L 330.597685 -32.473915 
L 333.905986 -32.473915 
L 337.214286 -32.473915 
L 340.522586 -32.473915 
L 343.830887 -32.473915 
L 347.139187 -32.473915 
L 350.447488 -32.473915 
L 353.755788 -32.473915 
L 357.064088 -32.473915 
L 360.372389 -32.473915 
L 363.680689 -32.473915 
L 366.98899 -32.473915 
L 370.29729 -32.473915 
L 373.60559 -32.473915 
L 376.913891 -32.473915 
L 380.222191 -32.473915 
L 383.530492 -32.473915 
L 386.838792 -32.473915 
L 390.147092 -32.473915 
L 393.455393 -32.473915 
L 396.763693 -32.473915 
L 396.763693 -328.22 
L 396.763693 -328.22 
L 393.455393 -297.832303 
L 390.147092 -267.035576 
L 386.838792 -252.441633 
L 383.530492 -247.740872 
L 380.222191 -235.345325 
L 376.913891 -220.952196 
L 373.60559 -211.895721 
L 370.29729 -210.748597 
L 366.98899 -210.567158 
L 363.680689 -210.251695 
L 360.372389 -192.86605 
L 357.064088 -180.624554 
L 353.755788 -180.339723 
L 350.447488 -168.034185 
L 347.139187 -158.950806 
L 343.830887 -158.548112 
L 340.522586 -152.144636 
L 337.214286 -141.540125 
L 333.905986 -129.482123 
L 330.597685 -128.913103 
L 327.289385 -123.233566 
L 323.981084 -120.478147 
L 320.672784 -117.139694 
L 317.364484 -113.55506 
L 314.056183 -113.116311 
L 310.747883 -112.757986 
L 307.439583 -108.808395 
L 304.131282 -105.943059 
L 300.822982 -103.933017 
L 297.514681 -102.587738 
L 294.206381 -102.392864 
L 290.898081 -96.876304 
L 287.58978 -95.047686 
L 284.28148 -92.540926 
L 280.973179 -91.660945 
L 277.664879 -91.339694 
L 274.356579 -90.763375 
L 271.048278 -85.066238 
L 267.739978 -84.489979 
L 264.431677 -81.257725 
L 261.123377 -80.701489 
L 257.815077 -76.542459 
L 254.506776 -73.290052 
L 251.198476 -73.019213 
L 247.890175 -71.387486 
L 244.581875 -69.800885 
L 241.273575 -67.415786 
L 237.965274 -63.927232 
L 234.656974 -63.631192 
L 231.348673 -63.257775 
L 228.040373 -63.199547 
L 224.732073 -62.524808 
L 221.423772 -61.669457 
L 218.115472 -58.954929 
L 214.807171 -58.442349 
L 211.498871 -57.857826 
L 208.190571 -56.771402 
L 204.88227 -54.905563 
L 201.57397 -54.025824 
L 198.265669 -53.581811 
L 194.957369 -53.329375 
L 191.649069 -52.793935 
L 188.340768 -51.64517 
L 185.032468 -51.160385 
L 181.724167 -50.915207 
L 178.415867 -50.793401 
L 175.107567 -50.425769 
L 171.799266 -49.744055 
L 168.490966 -49.645479 
L 165.182666 -49.594504 
L 161.874365 -48.834217 
L 158.566065 -45.988905 
L 155.257764 -45.186894 
L 151.949464 -44.241462 
L 148.641164 -43.070632 
L 145.332863 -42.518887 
L 142.024563 -41.400635 
L 138.716262 -40.118384 
L 135.407962 -39.945564 
L 132.099662 -38.850699 
L 128.791361 -38.753267 
L 125.483061 -37.297638 
L 122.17476 -36.875543 
L 118.86646 -36.459296 
L 115.55816 -36.223645 
L 112.249859 -35.364489 
L 108.941559 -34.33944 
L 105.633258 -32.756187 
L 102.324958 -32.739997 
L 99.016658 -32.605465 
L 95.708357 -31.99463 
L 92.400057 -30.32899 
z
" id="md149055a95" style="stroke:#4a98c9;"/>
    </defs>
    <g clip-path="url(#p8daa4c1a9f)">
     <use style="fill:#4a98c9;stroke:#4a98c9;" x="0" xlink:href="#md149055a95" y="354.04"/>
    </g>
   </g>
   <g id="PolyCollection_2">
    <defs>
     <path d="M 92.400057 -25.82 
L 92.400057 -32.473915 
L 95.708357 -32.473915 
L 99.016658 -32.473915 
L 102.324958 -32.473915 
L 105.633258 -32.473915 
L 108.941559 -32.473915 
L 112.249859 -32.473915 
L 115.55816 -32.473915 
L 118.86646 -32.473915 
L 122.17476 -32.473915 
L 125.483061 -32.473915 
L 128.791361 -32.473915 
L 132.099662 -32.473915 
L 135.407962 -32.473915 
L 138.716262 -32.473915 
L 142.024563 -32.473915 
L 145.332863 -32.473915 
L 148.641164 -32.473915 
L 151.949464 -32.473915 
L 155.257764 -32.473915 
L 158.566065 -32.473915 
L 161.874365 -32.473915 
L 165.182666 -32.473915 
L 168.490966 -32.473915 
L 171.799266 -32.473915 
L 175.107567 -32.473915 
L 178.415867 -32.473915 
L 181.724167 -32.473915 
L 185.032468 -32.473915 
L 188.340768 -32.473915 
L 191.649069 -32.473915 
L 194.957369 -32.473915 
L 198.265669 -32.473915 
L 201.57397 -32.473915 
L 204.88227 -32.473915 
L 208.190571 -32.473915 
L 211.498871 -32.473915 
L 214.807171 -32.473915 
L 218.115472 -32.473915 
L 221.423772 -32.473915 
L 224.732073 -32.473915 
L 228.040373 -32.473915 
L 231.348673 -32.473915 
L 234.656974 -32.473915 
L 237.965274 -32.473915 
L 241.273575 -32.473915 
L 244.581875 -32.473915 
L 247.890175 -32.473915 
L 251.198476 -32.473915 
L 254.506776 -32.473915 
L 257.815077 -32.473915 
L 261.123377 -32.473915 
L 264.431677 -32.473915 
L 267.739978 -32.473915 
L 271.048278 -32.473915 
L 274.356579 -32.473915 
L 277.664879 -32.473915 
L 280.973179 -32.473915 
L 284.28148 -32.473915 
L 287.58978 -32.473915 
L 290.898081 -32.473915 
L 294.206381 -32.473915 
L 297.514681 -32.473915 
L 300.822982 -32.473915 
L 304.131282 -32.473915 
L 307.439583 -32.473915 
L 310.747883 -32.473915 
L 314.056183 -32.473915 
L 317.364484 -32.473915 
L 320.672784 -32.473915 
L 323.981084 -32.473915 
L 327.289385 -32.473915 
L 330.597685 -32.473915 
L 333.905986 -32.473915 
L 337.214286 -32.473915 
L 340.522586 -32.473915 
L 343.830887 -32.473915 
L 347.139187 -32.473915 
L 350.447488 -32.473915 
L 353.755788 -32.473915 
L 357.064088 -32.473915 
L 360.372389 -32.473915 
L 363.680689 -32.473915 
L 366.98899 -32.473915 
L 370.29729 -32.473915 
L 373.60559 -32.473915 
L 376.913891 -32.473915 
L 380.222191 -32.473915 
L 383.530492 -32.473915 
L 386.838792 -32.473915 
L 390.147092 -32.473915 
L 393.455393 -32.473915 
L 396.763693 -32.473915 
L 396.763693 -108.332278 
L 396.763693 -108.332278 
L 393.455393 -105.97709 
L 390.147092 -96.769527 
L 386.838792 -80.577827 
L 383.530492 -76.773209 
L 380.222191 -73.931283 
L 376.913891 -67.877775 
L 373.60559 -67.633058 
L 370.29729 -66.43783 
L 366.98899 -65.573703 
L 363.680689 -65.179431 
L 360.372389 -64.135233 
L 357.064088 -63.234989 
L 353.755788 -62.255783 
L 350.447488 -60.282136 
L 347.139187 -58.494986 
L 343.830887 -58.31385 
L 340.522586 -57.196706 
L 337.214286 -57.026315 
L 333.905986 -55.452682 
L 330.597685 -55.43074 
L 327.289385 -54.182308 
L 323.981084 -51.533668 
L 320.672784 -51.43069 
L 317.364484 -51.021463 
L 314.056183 -50.439846 
L 310.747883 -50.180822 
L 307.439583 -49.96935 
L 304.131282 -48.775852 
L 300.822982 -48.130399 
L 297.514681 -47.587267 
L 294.206381 -47.292712 
L 290.898081 -46.537736 
L 287.58978 -46.327559 
L 284.28148 -46.079106 
L 280.973179 -44.223627 
L 277.664879 -43.706206 
L 274.356579 -43.214769 
L 271.048278 -42.682229 
L 267.739978 -42.66536 
L 264.431677 -42.420401 
L 261.123377 -41.858741 
L 257.815077 -41.850137 
L 254.506776 -41.216446 
L 251.198476 -40.761629 
L 247.890175 -40.707241 
L 244.581875 -40.377108 
L 241.273575 -39.596579 
L 237.965274 -39.437452 
L 234.656974 -39.38075 
L 231.348673 -39.29644 
L 228.040373 -38.67849 
L 224.732073 -38.478795 
L 221.423772 -37.92368 
L 218.115472 -37.460554 
L 214.807171 -37.42615 
L 211.498871 -37.389858 
L 208.190571 -37.153372 
L 204.88227 -36.743357 
L 201.57397 -36.73816 
L 198.265669 -36.700339 
L 194.957369 -36.602883 
L 191.649069 -36.344881 
L 188.340768 -35.852983 
L 185.032468 -35.798129 
L 181.724167 -35.634763 
L 178.415867 -35.547007 
L 175.107567 -35.345212 
L 171.799266 -35.230603 
L 168.490966 -35.066942 
L 165.182666 -34.783717 
L 161.874365 -34.747861 
L 158.566065 -34.68926 
L 155.257764 -34.632237 
L 151.949464 -33.801909 
L 148.641164 -33.571204 
L 145.332863 -33.424816 
L 142.024563 -33.11644 
L 138.716262 -32.824884 
L 135.407962 -32.705745 
L 132.099662 -32.498545 
L 128.791361 -32.386884 
L 125.483061 -32.235857 
L 122.17476 -32.226075 
L 118.86646 -31.952812 
L 115.55816 -31.646687 
L 112.249859 -31.273125 
L 108.941559 -30.843394 
L 105.633258 -29.546392 
L 102.324958 -29.164861 
L 99.016658 -28.725449 
L 95.708357 -27.103382 
L 92.400057 -25.82 
z
" id="mba1f65f87d" style="stroke:#f14432;stroke-opacity:0.8;"/>
    </defs>
    <g clip-path="url(#p8daa4c1a9f)">
     <use style="fill:#f14432;fill-opacity:0.8;stroke:#f14432;stroke-opacity:0.8;" x="0" xlink:href="#mba1f65f87d" y="354.04"/>
    </g>
   </g>
   <g id="matplotlib.axis_1"/>
   <g id="matplotlib.axis_2">
    <g id="ytick_1">
     <g id="line2d_1">
      <defs>
       <path d="M 0 0 
L -3.5 0 
" id="m1e328a18dc" style="stroke:#000000;stroke-width:0.8;"/>
      </defs>
      <g>
       <use style="stroke:#000000;stroke-width:0.8;" x="77.181875" xlink:href="#m1e328a18dc" y="321.566085"/>
      </g>
     </g>
     <g id="text_1">
      <!-- 0.000 -->
      <defs>
       <path d="M 31.78125 66.40625 
Q 24.171875 66.40625 20.328125 58.90625 
Q 16.5 51.421875 16.5 36.375 
Q 16.5 21.390625 20.328125 13.890625 
Q 24.171875 6.390625 31.78125 6.390625 
Q 39.453125 6.390625 43.28125 13.890625 
Q 47.125 21.390625 47.125 36.375 
Q 47.125 51.421875 43.28125 58.90625 
Q 39.453125 66.40625 31.78125 66.40625 
z
M 31.78125 74.21875 
Q 44.046875 74.21875 50.515625 64.515625 
Q 56.984375 54.828125 56.984375 36.375 
Q 56.984375 17.96875 50.515625 8.265625 
Q 44.046875 -1.421875 31.78125 -1.421875 
Q 19.53125 -1.421875 13.0625 8.265625 
Q 6.59375 17.96875 6.59375 36.375 
Q 6.59375 54.828125 13.0625 64.515625 
Q 19.53125 74.21875 31.78125 74.21875 
z
" id="DejaVuSans-30"/>
       <path d="M 10.6875 12.40625 
L 21 12.40625 
L 21 0 
L 10.6875 0 
z
" id="DejaVuSans-2e"/>
      </defs>
      <g transform="translate(7.2 329.924366)scale(0.22 -0.22)">
       <use xlink:href="#DejaVuSans-30"/>
       <use x="63.623047" xlink:href="#DejaVuSans-2e"/>
       <use x="95.410156" xlink:href="#DejaVuSans-30"/>
       <use x="159.033203" xlink:href="#DejaVuSans-30"/>
       <use x="222.65625" xlink:href="#DejaVuSans-30"/>
      </g>
     </g>
    </g>
    <g id="ytick_2">
     <g id="line2d_2">
      <g>
       <use style="stroke:#000000;stroke-width:0.8;" x="77.181875" xlink:href="#m1e328a18dc" y="272.114466"/>
      </g>
     </g>
     <g id="text_2">
      <!-- 0.002 -->
      <defs>
       <path d="M 19.1875 8.296875 
L 53.609375 8.296875 
L 53.609375 0 
L 7.328125 0 
L 7.328125 8.296875 
Q 12.9375 14.109375 22.625 23.890625 
Q 32.328125 33.6875 34.8125 36.53125 
Q 39.546875 41.84375 41.421875 45.53125 
Q 43.3125 49.21875 43.3125 52.78125 
Q 43.3125 58.59375 39.234375 62.25 
Q 35.15625 65.921875 28.609375 65.921875 
Q 23.96875 65.921875 18.8125 64.3125 
Q 13.671875 62.703125 7.8125 59.421875 
L 7.8125 69.390625 
Q 13.765625 71.78125 18.9375 73 
Q 24.125 74.21875 28.421875 74.21875 
Q 39.75 74.21875 46.484375 68.546875 
Q 53.21875 62.890625 53.21875 53.421875 
Q 53.21875 48.921875 51.53125 44.890625 
Q 49.859375 40.875 45.40625 35.40625 
Q 44.1875 33.984375 37.640625 27.21875 
Q 31.109375 20.453125 19.1875 8.296875 
z
" id="DejaVuSans-32"/>
      </defs>
      <g transform="translate(7.2 280.472747)scale(0.22 -0.22)">
       <use xlink:href="#DejaVuSans-30"/>
       <use x="63.623047" xlink:href="#DejaVuSans-2e"/>
       <use x="95.410156" xlink:href="#DejaVuSans-30"/>
       <use x="159.033203" xlink:href="#DejaVuSans-30"/>
       <use x="222.65625" xlink:href="#DejaVuSans-32"/>
      </g>
     </g>
    </g>
    <g id="ytick_3">
     <g id="line2d_3">
      <g>
       <use style="stroke:#000000;stroke-width:0.8;" x="77.181875" xlink:href="#m1e328a18dc" y="222.662847"/>
      </g>
     </g>
     <g id="text_3">
      <!-- 0.004 -->
      <defs>
       <path d="M 37.796875 64.3125 
L 12.890625 25.390625 
L 37.796875 25.390625 
z
M 35.203125 72.90625 
L 47.609375 72.90625 
L 47.609375 25.390625 
L 58.015625 25.390625 
L 58.015625 17.1875 
L 47.609375 17.1875 
L 47.609375 0 
L 37.796875 0 
L 37.796875 17.1875 
L 4.890625 17.1875 
L 4.890625 26.703125 
z
" id="DejaVuSans-34"/>
      </defs>
      <g transform="translate(7.2 231.021128)scale(0.22 -0.22)">
       <use xlink:href="#DejaVuSans-30"/>
       <use x="63.623047" xlink:href="#DejaVuSans-2e"/>
       <use x="95.410156" xlink:href="#DejaVuSans-30"/>
       <use x="159.033203" xlink:href="#DejaVuSans-30"/>
       <use x="222.65625" xlink:href="#DejaVuSans-34"/>
      </g>
     </g>
    </g>
    <g id="ytick_4">
     <g id="line2d_4">
      <g>
       <use style="stroke:#000000;stroke-width:0.8;" x="77.181875" xlink:href="#m1e328a18dc" y="173.211228"/>
      </g>
     </g>
     <g id="text_4">
      <!-- 0.006 -->
      <defs>
       <path d="M 33.015625 40.375 
Q 26.375 40.375 22.484375 35.828125 
Q 18.609375 31.296875 18.609375 23.390625 
Q 18.609375 15.53125 22.484375 10.953125 
Q 26.375 6.390625 33.015625 6.390625 
Q 39.65625 6.390625 43.53125 10.953125 
Q 47.40625 15.53125 47.40625 23.390625 
Q 47.40625 31.296875 43.53125 35.828125 
Q 39.65625 40.375 33.015625 40.375 
z
M 52.59375 71.296875 
L 52.59375 62.3125 
Q 48.875 64.0625 45.09375 64.984375 
Q 41.3125 65.921875 37.59375 65.921875 
Q 27.828125 65.921875 22.671875 59.328125 
Q 17.53125 52.734375 16.796875 39.40625 
Q 19.671875 43.65625 24.015625 45.921875 
Q 28.375 48.1875 33.59375 48.1875 
Q 44.578125 48.1875 50.953125 41.515625 
Q 57.328125 34.859375 57.328125 23.390625 
Q 57.328125 12.15625 50.6875 5.359375 
Q 44.046875 -1.421875 33.015625 -1.421875 
Q 20.359375 -1.421875 13.671875 8.265625 
Q 6.984375 17.96875 6.984375 36.375 
Q 6.984375 53.65625 15.1875 63.9375 
Q 23.390625 74.21875 37.203125 74.21875 
Q 40.921875 74.21875 44.703125 73.484375 
Q 48.484375 72.75 52.59375 71.296875 
z
" id="DejaVuSans-36"/>
      </defs>
      <g transform="translate(7.2 181.56951)scale(0.22 -0.22)">
       <use xlink:href="#DejaVuSans-30"/>
       <use x="63.623047" xlink:href="#DejaVuSans-2e"/>
       <use x="95.410156" xlink:href="#DejaVuSans-30"/>
       <use x="159.033203" xlink:href="#DejaVuSans-30"/>
       <use x="222.65625" xlink:href="#DejaVuSans-36"/>
      </g>
     </g>
    </g>
    <g id="ytick_5">
     <g id="line2d_5">
      <g>
       <use style="stroke:#000000;stroke-width:0.8;" x="77.181875" xlink:href="#m1e328a18dc" y="123.75961"/>
      </g>
     </g>
     <g id="text_5">
      <!-- 0.008 -->
      <defs>
       <path d="M 31.78125 34.625 
Q 24.75 34.625 20.71875 30.859375 
Q 16.703125 27.09375 16.703125 20.515625 
Q 16.703125 13.921875 20.71875 10.15625 
Q 24.75 6.390625 31.78125 6.390625 
Q 38.8125 6.390625 42.859375 10.171875 
Q 46.921875 13.96875 46.921875 20.515625 
Q 46.921875 27.09375 42.890625 30.859375 
Q 38.875 34.625 31.78125 34.625 
z
M 21.921875 38.8125 
Q 15.578125 40.375 12.03125 44.71875 
Q 8.5 49.078125 8.5 55.328125 
Q 8.5 64.0625 14.71875 69.140625 
Q 20.953125 74.21875 31.78125 74.21875 
Q 42.671875 74.21875 48.875 69.140625 
Q 55.078125 64.0625 55.078125 55.328125 
Q 55.078125 49.078125 51.53125 44.71875 
Q 48 40.375 41.703125 38.8125 
Q 48.828125 37.15625 52.796875 32.3125 
Q 56.78125 27.484375 56.78125 20.515625 
Q 56.78125 9.90625 50.3125 4.234375 
Q 43.84375 -1.421875 31.78125 -1.421875 
Q 19.734375 -1.421875 13.25 4.234375 
Q 6.78125 9.90625 6.78125 20.515625 
Q 6.78125 27.484375 10.78125 32.3125 
Q 14.796875 37.15625 21.921875 38.8125 
z
M 18.3125 54.390625 
Q 18.3125 48.734375 21.84375 45.5625 
Q 25.390625 42.390625 31.78125 42.390625 
Q 38.140625 42.390625 41.71875 45.5625 
Q 45.3125 48.734375 45.3125 54.390625 
Q 45.3125 60.0625 41.71875 63.234375 
Q 38.140625 66.40625 31.78125 66.40625 
Q 25.390625 66.40625 21.84375 63.234375 
Q 18.3125 60.0625 18.3125 54.390625 
z
" id="DejaVuSans-38"/>
      </defs>
      <g transform="translate(7.2 132.117891)scale(0.22 -0.22)">
       <use xlink:href="#DejaVuSans-30"/>
       <use x="63.623047" xlink:href="#DejaVuSans-2e"/>
       <use x="95.410156" xlink:href="#DejaVuSans-30"/>
       <use x="159.033203" xlink:href="#DejaVuSans-30"/>
       <use x="222.65625" xlink:href="#DejaVuSans-38"/>
      </g>
     </g>
    </g>
    <g id="ytick_6">
     <g id="line2d_6">
      <g>
       <use style="stroke:#000000;stroke-width:0.8;" x="77.181875" xlink:href="#m1e328a18dc" y="74.307991"/>
      </g>
     </g>
     <g id="text_6">
      <!-- 0.010 -->
      <defs>
       <path d="M 12.40625 8.296875 
L 28.515625 8.296875 
L 28.515625 63.921875 
L 10.984375 60.40625 
L 10.984375 69.390625 
L 28.421875 72.90625 
L 38.28125 72.90625 
L 38.28125 8.296875 
L 54.390625 8.296875 
L 54.390625 0 
L 12.40625 0 
z
" id="DejaVuSans-31"/>
      </defs>
      <g transform="translate(7.2 82.666272)scale(0.22 -0.22)">
       <use xlink:href="#DejaVuSans-30"/>
       <use x="63.623047" xlink:href="#DejaVuSans-2e"/>
       <use x="95.410156" xlink:href="#DejaVuSans-30"/>
       <use x="159.033203" xlink:href="#DejaVuSans-31"/>
       <use x="222.65625" xlink:href="#DejaVuSans-30"/>
      </g>
     </g>
    </g>
    <g id="ytick_7">
     <g id="line2d_7">
      <g>
       <use style="stroke:#000000;stroke-width:0.8;" x="77.181875" xlink:href="#m1e328a18dc" y="24.856372"/>
      </g>
     </g>
     <g id="text_7">
      <!-- 0.012 -->
      <g transform="translate(7.2 33.214653)scale(0.22 -0.22)">
       <use xlink:href="#DejaVuSans-30"/>
       <use x="63.623047" xlink:href="#DejaVuSans-2e"/>
       <use x="95.410156" xlink:href="#DejaVuSans-30"/>
       <use x="159.033203" xlink:href="#DejaVuSans-31"/>
       <use x="222.65625" xlink:href="#DejaVuSans-32"/>
      </g>
     </g>
    </g>
   </g>
   <g id="patch_3">
    <path d="M 77.181875 343.34 
L 77.181875 10.7 
" style="fill:none;stroke:#000000;stroke-linecap:square;stroke-linejoin:miter;stroke-width:0.8;"/>
   </g>
   <g id="patch_4">
    <path d="M 411.981875 343.34 
L 411.981875 10.7 
" style="fill:none;stroke:#000000;stroke-linecap:square;stroke-linejoin:miter;stroke-width:0.8;"/>
   </g>
   <g id="patch_5">
    <path d="M 77.181875 343.34 
L 411.981875 343.34 
" style="fill:none;stroke:#000000;stroke-linecap:square;stroke-linejoin:miter;stroke-width:0.8;"/>
   </g>
   <g id="patch_6">
    <path d="M 77.181875 10.7 
L 411.981875 10.7 
" style="fill:none;stroke:#000000;stroke-linecap:square;stroke-linejoin:miter;stroke-width:0.8;"/>
   </g>
  </g>
 </g>
 <defs>
  <clipPath id="p8daa4c1a9f">
   <rect height="332.64" width="334.8" x="77.181875" y="10.7"/>
  </clipPath>
 </defs>
</svg>
