<?xml version="1.0" encoding="utf-8" standalone="no"?>
<!DOCTYPE svg PUBLIC "-//W3C//DTD SVG 1.1//EN"
  "http://www.w3.org/Graphics/SVG/1.1/DTD/svg11.dtd">
<!-- Created with matplotlib (http://matplotlib.org/) -->
<svg height="354pt" version="1.1" viewBox="0 0 441 354" width="441pt" xmlns="http://www.w3.org/2000/svg" xmlns:xlink="http://www.w3.org/1999/xlink">
 <defs>
  <style type="text/css">
*{stroke-linecap:butt;stroke-linejoin:round;}
  </style>
 </defs>
 <g id="figure_1">
  <g id="patch_1">
   <path d="M 0 354.04 
L 441.117188 354.04 
L 441.117188 0 
L 0 0 
z
" style="fill:#ffffff;"/>
  </g>
  <g id="axes_1">
   <g id="patch_2">
    <path d="M 95.617188 343.34 
L 430.417188 343.34 
L 430.417188 10.7 
L 95.617188 10.7 
z
" style="fill:#ffffff;"/>
   </g>
   <g id="PolyCollection_1">
    <defs>
     <path d="M 110.835369 -25.82 
L 110.835369 -144.635922 
L 114.14367 -144.635922 
L 117.45197 -144.635922 
L 120.760271 -144.635922 
L 124.068571 -144.635922 
L 127.376871 -144.635922 
L 130.685172 -144.635922 
L 133.993472 -144.635922 
L 137.301772 -144.635922 
L 140.610073 -144.635922 
L 143.918373 -144.635922 
L 147.226674 -144.635922 
L 150.534974 -144.635922 
L 153.843274 -144.635922 
L 157.151575 -144.635922 
L 160.459875 -144.635922 
L 163.768176 -144.635922 
L 167.076476 -144.635922 
L 170.384776 -144.635922 
L 173.693077 -144.635922 
L 177.001377 -144.635922 
L 180.309678 -144.635922 
L 183.617978 -144.635922 
L 186.926278 -144.635922 
L 190.234579 -144.635922 
L 193.542879 -144.635922 
L 196.85118 -144.635922 
L 200.15948 -144.635922 
L 203.46778 -144.635922 
L 206.776081 -144.635922 
L 210.084381 -144.635922 
L 213.392682 -144.635922 
L 216.700982 -144.635922 
L 220.009282 -144.635922 
L 223.317583 -144.635922 
L 226.625883 -144.635922 
L 229.934184 -144.635922 
L 233.242484 -144.635922 
L 236.550784 -144.635922 
L 239.859085 -144.635922 
L 243.167385 -144.635922 
L 246.475686 -144.635922 
L 249.783986 -144.635922 
L 253.092286 -144.635922 
L 256.400587 -144.635922 
L 259.708887 -144.635922 
L 263.017188 -144.635922 
L 266.325488 -144.635922 
L 269.633788 -144.635922 
L 272.942089 -144.635922 
L 276.250389 -144.635922 
L 279.558689 -144.635922 
L 282.86699 -144.635922 
L 286.17529 -144.635922 
L 289.483591 -144.635922 
L 292.791891 -144.635922 
L 296.100191 -144.635922 
L 299.408492 -144.635922 
L 302.716792 -144.635922 
L 306.025093 -144.635922 
L 309.333393 -144.635922 
L 312.641693 -144.635922 
L 315.949994 -144.635922 
L 319.258294 -144.635922 
L 322.566595 -144.635922 
L 325.874895 -144.635922 
L 329.183195 -144.635922 
L 332.491496 -144.635922 
L 335.799796 -144.635922 
L 339.108097 -144.635922 
L 342.416397 -144.635922 
L 345.724697 -144.635922 
L 349.032998 -144.635922 
L 352.341298 -144.635922 
L 355.649599 -144.635922 
L 358.957899 -144.635922 
L 362.266199 -144.635922 
L 365.5745 -144.635922 
L 368.8828 -144.635922 
L 372.191101 -144.635922 
L 375.499401 -144.635922 
L 378.807701 -144.635922 
L 382.116002 -144.635922 
L 385.424302 -144.635922 
L 388.732603 -144.635922 
L 392.040903 -144.635922 
L 395.349203 -144.635922 
L 398.657504 -144.635922 
L 401.965804 -144.635922 
L 405.274104 -144.635922 
L 408.582405 -144.635922 
L 411.890705 -144.635922 
L 415.199006 -144.635922 
L 415.199006 -328.22 
L 415.199006 -328.22 
L 411.890705 -289.501215 
L 408.582405 -263.007576 
L 405.274104 -262.632301 
L 401.965804 -261.123756 
L 398.657504 -256.074251 
L 395.349203 -255.139034 
L 392.040903 -248.324363 
L 388.732603 -236.726874 
L 385.424302 -236.621275 
L 382.116002 -227.700062 
L 378.807701 -211.384177 
L 375.499401 -201.989202 
L 372.191101 -201.09196 
L 368.8828 -190.864398 
L 365.5745 -189.019234 
L 362.266199 -183.302629 
L 358.957899 -182.040419 
L 355.649599 -181.350199 
L 352.341298 -177.988928 
L 349.032998 -177.724765 
L 345.724697 -175.874131 
L 342.416397 -175.523751 
L 339.108097 -173.973767 
L 335.799796 -171.571775 
L 332.491496 -170.137139 
L 329.183195 -169.256529 
L 325.874895 -168.788114 
L 322.566595 -168.564192 
L 319.258294 -168.006945 
L 315.949994 -160.740371 
L 312.641693 -160.535289 
L 309.333393 -159.135007 
L 306.025093 -158.284363 
L 302.716792 -157.816839 
L 299.408492 -156.18119 
L 296.100191 -155.710145 
L 292.791891 -154.342825 
L 289.483591 -153.933201 
L 286.17529 -153.117057 
L 282.86699 -152.515272 
L 279.558689 -151.998604 
L 276.250389 -151.218143 
L 272.942089 -149.625958 
L 269.633788 -149.548827 
L 266.325488 -148.871475 
L 263.017188 -148.496013 
L 259.708887 -147.098868 
L 256.400587 -145.958673 
L 253.092286 -145.183018 
L 249.783986 -145.10765 
L 246.475686 -144.694224 
L 243.167385 -143.310153 
L 239.859085 -142.936791 
L 236.550784 -142.927906 
L 233.242484 -142.287298 
L 229.934184 -141.851859 
L 226.625883 -141.776011 
L 223.317583 -141.718139 
L 220.009282 -141.623081 
L 216.700982 -139.601797 
L 213.392682 -138.958495 
L 210.084381 -138.62671 
L 206.776081 -138.090007 
L 203.46778 -138.048601 
L 200.15948 -136.88449 
L 196.85118 -135.763395 
L 193.542879 -133.25384 
L 190.234579 -131.375585 
L 186.926278 -131.33058 
L 183.617978 -130.500496 
L 180.309678 -128.458569 
L 177.001377 -127.226077 
L 173.693077 -124.996401 
L 170.384776 -124.941452 
L 167.076476 -124.270148 
L 163.768176 -122.362396 
L 160.459875 -120.267966 
L 157.151575 -119.217394 
L 153.843274 -114.071889 
L 150.534974 -112.325541 
L 147.226674 -110.978522 
L 143.918373 -110.428113 
L 140.610073 -107.033438 
L 137.301772 -106.203047 
L 133.993472 -106.169136 
L 130.685172 -105.564059 
L 127.376871 -103.872654 
L 124.068571 -101.619818 
L 120.760271 -100.300276 
L 117.45197 -91.827185 
L 114.14367 -84.068885 
L 110.835369 -25.82 
z
" id="m1ce0b50472" style="stroke:#4a98c9;"/>
    </defs>
    <g clip-path="url(#p430f76008a)">
     <use style="fill:#4a98c9;stroke:#4a98c9;" x="0" xlink:href="#m1ce0b50472" y="354.04"/>
    </g>
   </g>
   <g id="PolyCollection_2">
    <defs>
     <path d="M 110.835369 -82.903136 
L 110.835369 -144.635922 
L 114.14367 -144.635922 
L 117.45197 -144.635922 
L 120.760271 -144.635922 
L 124.068571 -144.635922 
L 127.376871 -144.635922 
L 130.685172 -144.635922 
L 133.993472 -144.635922 
L 137.301772 -144.635922 
L 140.610073 -144.635922 
L 143.918373 -144.635922 
L 147.226674 -144.635922 
L 150.534974 -144.635922 
L 153.843274 -144.635922 
L 157.151575 -144.635922 
L 160.459875 -144.635922 
L 163.768176 -144.635922 
L 167.076476 -144.635922 
L 170.384776 -144.635922 
L 173.693077 -144.635922 
L 177.001377 -144.635922 
L 180.309678 -144.635922 
L 183.617978 -144.635922 
L 186.926278 -144.635922 
L 190.234579 -144.635922 
L 193.542879 -144.635922 
L 196.85118 -144.635922 
L 200.15948 -144.635922 
L 203.46778 -144.635922 
L 206.776081 -144.635922 
L 210.084381 -144.635922 
L 213.392682 -144.635922 
L 216.700982 -144.635922 
L 220.009282 -144.635922 
L 223.317583 -144.635922 
L 226.625883 -144.635922 
L 229.934184 -144.635922 
L 233.242484 -144.635922 
L 236.550784 -144.635922 
L 239.859085 -144.635922 
L 243.167385 -144.635922 
L 246.475686 -144.635922 
L 249.783986 -144.635922 
L 253.092286 -144.635922 
L 256.400587 -144.635922 
L 259.708887 -144.635922 
L 263.017188 -144.635922 
L 266.325488 -144.635922 
L 269.633788 -144.635922 
L 272.942089 -144.635922 
L 276.250389 -144.635922 
L 279.558689 -144.635922 
L 282.86699 -144.635922 
L 286.17529 -144.635922 
L 289.483591 -144.635922 
L 292.791891 -144.635922 
L 296.100191 -144.635922 
L 299.408492 -144.635922 
L 302.716792 -144.635922 
L 306.025093 -144.635922 
L 309.333393 -144.635922 
L 312.641693 -144.635922 
L 315.949994 -144.635922 
L 319.258294 -144.635922 
L 322.566595 -144.635922 
L 325.874895 -144.635922 
L 329.183195 -144.635922 
L 332.491496 -144.635922 
L 335.799796 -144.635922 
L 339.108097 -144.635922 
L 342.416397 -144.635922 
L 345.724697 -144.635922 
L 349.032998 -144.635922 
L 352.341298 -144.635922 
L 355.649599 -144.635922 
L 358.957899 -144.635922 
L 362.266199 -144.635922 
L 365.5745 -144.635922 
L 368.8828 -144.635922 
L 372.191101 -144.635922 
L 375.499401 -144.635922 
L 378.807701 -144.635922 
L 382.116002 -144.635922 
L 385.424302 -144.635922 
L 388.732603 -144.635922 
L 392.040903 -144.635922 
L 395.349203 -144.635922 
L 398.657504 -144.635922 
L 401.965804 -144.635922 
L 405.274104 -144.635922 
L 408.582405 -144.635922 
L 411.890705 -144.635922 
L 415.199006 -144.635922 
L 415.199006 -220.611345 
L 415.199006 -220.611345 
L 411.890705 -216.234433 
L 408.582405 -213.531849 
L 405.274104 -200.146388 
L 401.965804 -192.368742 
L 398.657504 -190.746901 
L 395.349203 -189.799712 
L 392.040903 -183.947042 
L 388.732603 -182.216759 
L 385.424302 -177.795576 
L 382.116002 -176.732939 
L 378.807701 -176.062459 
L 375.499401 -174.955022 
L 372.191101 -174.115202 
L 368.8828 -174.088257 
L 365.5745 -170.364855 
L 362.266199 -170.199986 
L 358.957899 -169.573386 
L 355.649599 -168.574533 
L 352.341298 -166.696548 
L 349.032998 -166.484481 
L 345.724697 -164.014709 
L 342.416397 -162.517853 
L 339.108097 -162.463315 
L 335.799796 -161.083562 
L 332.491496 -161.067271 
L 329.183195 -161.030829 
L 325.874895 -159.883456 
L 322.566595 -159.082672 
L 319.258294 -158.947062 
L 315.949994 -158.049346 
L 312.641693 -157.371915 
L 309.333393 -156.420658 
L 306.025093 -156.380384 
L 302.716792 -155.909319 
L 299.408492 -154.574851 
L 296.100191 -152.552044 
L 292.791891 -152.131218 
L 289.483591 -151.862972 
L 286.17529 -151.490815 
L 282.86699 -151.20992 
L 279.558689 -151.183797 
L 276.250389 -150.817711 
L 272.942089 -150.722634 
L 269.633788 -150.548365 
L 266.325488 -150.540226 
L 263.017188 -149.565163 
L 259.708887 -149.271205 
L 256.400587 -148.853466 
L 253.092286 -148.490717 
L 249.783986 -148.415543 
L 246.475686 -147.475224 
L 243.167385 -146.959254 
L 239.859085 -146.332689 
L 236.550784 -145.826021 
L 233.242484 -145.617061 
L 229.934184 -145.062916 
L 226.625883 -144.396928 
L 223.317583 -144.389251 
L 220.009282 -144.156393 
L 216.700982 -144.053923 
L 213.392682 -142.300112 
L 210.084381 -140.73525 
L 206.776081 -140.716811 
L 203.46778 -139.308888 
L 200.15948 -139.034463 
L 196.85118 -138.624284 
L 193.542879 -138.373833 
L 190.234579 -138.093182 
L 186.926278 -137.211904 
L 183.617978 -136.929817 
L 180.309678 -134.569577 
L 177.001377 -133.787353 
L 173.693077 -133.149896 
L 170.384776 -133.073873 
L 167.076476 -132.87239 
L 163.768176 -132.37292 
L 160.459875 -131.548951 
L 157.151575 -131.424853 
L 153.843274 -129.410085 
L 150.534974 -128.455978 
L 147.226674 -126.070381 
L 143.918373 -124.686357 
L 140.610073 -124.595749 
L 137.301772 -124.204673 
L 133.993472 -122.639005 
L 130.685172 -122.349423 
L 127.376871 -122.28274 
L 124.068571 -121.870902 
L 120.760271 -121.509501 
L 117.45197 -119.301667 
L 114.14367 -115.495634 
L 110.835369 -82.903136 
z
" id="m5ddc284316" style="stroke:#f14432;stroke-opacity:0.8;"/>
    </defs>
    <g clip-path="url(#p430f76008a)">
     <use style="fill:#f14432;fill-opacity:0.8;stroke:#f14432;stroke-opacity:0.8;" x="0" xlink:href="#m5ddc284316" y="354.04"/>
    </g>
   </g>
   <g id="matplotlib.axis_1"/>
   <g id="matplotlib.axis_2">
    <g id="ytick_1">
     <g id="line2d_1">
      <defs>
       <path d="M 0 0 
L -3.5 0 
" id="m490804297c" style="stroke:#000000;stroke-width:0.8;"/>
      </defs>
      <g>
       <use style="stroke:#000000;stroke-width:0.8;" x="95.617188" xlink:href="#m490804297c" y="329.17435"/>
      </g>
     </g>
     <g id="text_1">
      <!-- −0.015 -->
      <defs>
       <path d="M 10.59375 35.5 
L 73.1875 35.5 
L 73.1875 27.203125 
L 10.59375 27.203125 
z
" id="DejaVuSans-2212"/>
       <path d="M 31.78125 66.40625 
Q 24.171875 66.40625 20.328125 58.90625 
Q 16.5 51.421875 16.5 36.375 
Q 16.5 21.390625 20.328125 13.890625 
Q 24.171875 6.390625 31.78125 6.390625 
Q 39.453125 6.390625 43.28125 13.890625 
Q 47.125 21.390625 47.125 36.375 
Q 47.125 51.421875 43.28125 58.90625 
Q 39.453125 66.40625 31.78125 66.40625 
z
M 31.78125 74.21875 
Q 44.046875 74.21875 50.515625 64.515625 
Q 56.984375 54.828125 56.984375 36.375 
Q 56.984375 17.96875 50.515625 8.265625 
Q 44.046875 -1.421875 31.78125 -1.421875 
Q 19.53125 -1.421875 13.0625 8.265625 
Q 6.59375 17.96875 6.59375 36.375 
Q 6.59375 54.828125 13.0625 64.515625 
Q 19.53125 74.21875 31.78125 74.21875 
z
" id="DejaVuSans-30"/>
       <path d="M 10.6875 12.40625 
L 21 12.40625 
L 21 0 
L 10.6875 0 
z
" id="DejaVuSans-2e"/>
       <path d="M 12.40625 8.296875 
L 28.515625 8.296875 
L 28.515625 63.921875 
L 10.984375 60.40625 
L 10.984375 69.390625 
L 28.421875 72.90625 
L 38.28125 72.90625 
L 38.28125 8.296875 
L 54.390625 8.296875 
L 54.390625 0 
L 12.40625 0 
z
" id="DejaVuSans-31"/>
       <path d="M 10.796875 72.90625 
L 49.515625 72.90625 
L 49.515625 64.59375 
L 19.828125 64.59375 
L 19.828125 46.734375 
Q 21.96875 47.46875 24.109375 47.828125 
Q 26.265625 48.1875 28.421875 48.1875 
Q 40.625 48.1875 47.75 41.5 
Q 54.890625 34.8125 54.890625 23.390625 
Q 54.890625 11.625 47.5625 5.09375 
Q 40.234375 -1.421875 26.90625 -1.421875 
Q 22.3125 -1.421875 17.546875 -0.640625 
Q 12.796875 0.140625 7.71875 1.703125 
L 7.71875 11.625 
Q 12.109375 9.234375 16.796875 8.0625 
Q 21.484375 6.890625 26.703125 6.890625 
Q 35.15625 6.890625 40.078125 11.328125 
Q 45.015625 15.765625 45.015625 23.390625 
Q 45.015625 31 40.078125 35.4375 
Q 35.15625 39.890625 26.703125 39.890625 
Q 22.75 39.890625 18.8125 39.015625 
Q 14.890625 38.140625 10.796875 36.28125 
z
" id="DejaVuSans-35"/>
      </defs>
      <g transform="translate(7.2 337.532631)scale(0.22 -0.22)">
       <use xlink:href="#DejaVuSans-2212"/>
       <use x="83.789062" xlink:href="#DejaVuSans-30"/>
       <use x="147.412109" xlink:href="#DejaVuSans-2e"/>
       <use x="179.199219" xlink:href="#DejaVuSans-30"/>
       <use x="242.822266" xlink:href="#DejaVuSans-31"/>
       <use x="306.445312" xlink:href="#DejaVuSans-35"/>
      </g>
     </g>
    </g>
    <g id="ytick_2">
     <g id="line2d_2">
      <g>
       <use style="stroke:#000000;stroke-width:0.8;" x="95.617188" xlink:href="#m490804297c" y="289.250926"/>
      </g>
     </g>
     <g id="text_2">
      <!-- −0.010 -->
      <g transform="translate(7.2 297.609207)scale(0.22 -0.22)">
       <use xlink:href="#DejaVuSans-2212"/>
       <use x="83.789062" xlink:href="#DejaVuSans-30"/>
       <use x="147.412109" xlink:href="#DejaVuSans-2e"/>
       <use x="179.199219" xlink:href="#DejaVuSans-30"/>
       <use x="242.822266" xlink:href="#DejaVuSans-31"/>
       <use x="306.445312" xlink:href="#DejaVuSans-30"/>
      </g>
     </g>
    </g>
    <g id="ytick_3">
     <g id="line2d_3">
      <g>
       <use style="stroke:#000000;stroke-width:0.8;" x="95.617188" xlink:href="#m490804297c" y="249.327502"/>
      </g>
     </g>
     <g id="text_3">
      <!-- −0.005 -->
      <g transform="translate(7.2 257.685783)scale(0.22 -0.22)">
       <use xlink:href="#DejaVuSans-2212"/>
       <use x="83.789062" xlink:href="#DejaVuSans-30"/>
       <use x="147.412109" xlink:href="#DejaVuSans-2e"/>
       <use x="179.199219" xlink:href="#DejaVuSans-30"/>
       <use x="242.822266" xlink:href="#DejaVuSans-30"/>
       <use x="306.445312" xlink:href="#DejaVuSans-35"/>
      </g>
     </g>
    </g>
    <g id="ytick_4">
     <g id="line2d_4">
      <g>
       <use style="stroke:#000000;stroke-width:0.8;" x="95.617188" xlink:href="#m490804297c" y="209.404078"/>
      </g>
     </g>
     <g id="text_4">
      <!-- 0.000 -->
      <g transform="translate(25.635312 217.762359)scale(0.22 -0.22)">
       <use xlink:href="#DejaVuSans-30"/>
       <use x="63.623047" xlink:href="#DejaVuSans-2e"/>
       <use x="95.410156" xlink:href="#DejaVuSans-30"/>
       <use x="159.033203" xlink:href="#DejaVuSans-30"/>
       <use x="222.65625" xlink:href="#DejaVuSans-30"/>
      </g>
     </g>
    </g>
    <g id="ytick_5">
     <g id="line2d_5">
      <g>
       <use style="stroke:#000000;stroke-width:0.8;" x="95.617188" xlink:href="#m490804297c" y="169.480654"/>
      </g>
     </g>
     <g id="text_5">
      <!-- 0.005 -->
      <g transform="translate(25.635312 177.838935)scale(0.22 -0.22)">
       <use xlink:href="#DejaVuSans-30"/>
       <use x="63.623047" xlink:href="#DejaVuSans-2e"/>
       <use x="95.410156" xlink:href="#DejaVuSans-30"/>
       <use x="159.033203" xlink:href="#DejaVuSans-30"/>
       <use x="222.65625" xlink:href="#DejaVuSans-35"/>
      </g>
     </g>
    </g>
    <g id="ytick_6">
     <g id="line2d_6">
      <g>
       <use style="stroke:#000000;stroke-width:0.8;" x="95.617188" xlink:href="#m490804297c" y="129.557229"/>
      </g>
     </g>
     <g id="text_6">
      <!-- 0.010 -->
      <g transform="translate(25.635312 137.915511)scale(0.22 -0.22)">
       <use xlink:href="#DejaVuSans-30"/>
       <use x="63.623047" xlink:href="#DejaVuSans-2e"/>
       <use x="95.410156" xlink:href="#DejaVuSans-30"/>
       <use x="159.033203" xlink:href="#DejaVuSans-31"/>
       <use x="222.65625" xlink:href="#DejaVuSans-30"/>
      </g>
     </g>
    </g>
    <g id="ytick_7">
     <g id="line2d_7">
      <g>
       <use style="stroke:#000000;stroke-width:0.8;" x="95.617188" xlink:href="#m490804297c" y="89.633805"/>
      </g>
     </g>
     <g id="text_7">
      <!-- 0.015 -->
      <g transform="translate(25.635312 97.992087)scale(0.22 -0.22)">
       <use xlink:href="#DejaVuSans-30"/>
       <use x="63.623047" xlink:href="#DejaVuSans-2e"/>
       <use x="95.410156" xlink:href="#DejaVuSans-30"/>
       <use x="159.033203" xlink:href="#DejaVuSans-31"/>
       <use x="222.65625" xlink:href="#DejaVuSans-35"/>
      </g>
     </g>
    </g>
    <g id="ytick_8">
     <g id="line2d_8">
      <g>
       <use style="stroke:#000000;stroke-width:0.8;" x="95.617188" xlink:href="#m490804297c" y="49.710381"/>
      </g>
     </g>
     <g id="text_8">
      <!-- 0.020 -->
      <defs>
       <path d="M 19.1875 8.296875 
L 53.609375 8.296875 
L 53.609375 0 
L 7.328125 0 
L 7.328125 8.296875 
Q 12.9375 14.109375 22.625 23.890625 
Q 32.328125 33.6875 34.8125 36.53125 
Q 39.546875 41.84375 41.421875 45.53125 
Q 43.3125 49.21875 43.3125 52.78125 
Q 43.3125 58.59375 39.234375 62.25 
Q 35.15625 65.921875 28.609375 65.921875 
Q 23.96875 65.921875 18.8125 64.3125 
Q 13.671875 62.703125 7.8125 59.421875 
L 7.8125 69.390625 
Q 13.765625 71.78125 18.9375 73 
Q 24.125 74.21875 28.421875 74.21875 
Q 39.75 74.21875 46.484375 68.546875 
Q 53.21875 62.890625 53.21875 53.421875 
Q 53.21875 48.921875 51.53125 44.890625 
Q 49.859375 40.875 45.40625 35.40625 
Q 44.1875 33.984375 37.640625 27.21875 
Q 31.109375 20.453125 19.1875 8.296875 
z
" id="DejaVuSans-32"/>
      </defs>
      <g transform="translate(25.635312 58.068662)scale(0.22 -0.22)">
       <use xlink:href="#DejaVuSans-30"/>
       <use x="63.623047" xlink:href="#DejaVuSans-2e"/>
       <use x="95.410156" xlink:href="#DejaVuSans-30"/>
       <use x="159.033203" xlink:href="#DejaVuSans-32"/>
       <use x="222.65625" xlink:href="#DejaVuSans-30"/>
      </g>
     </g>
    </g>
   </g>
   <g id="patch_3">
    <path d="M 95.617188 343.34 
L 95.617188 10.7 
" style="fill:none;stroke:#000000;stroke-linecap:square;stroke-linejoin:miter;stroke-width:0.8;"/>
   </g>
   <g id="patch_4">
    <path d="M 430.417188 343.34 
L 430.417188 10.7 
" style="fill:none;stroke:#000000;stroke-linecap:square;stroke-linejoin:miter;stroke-width:0.8;"/>
   </g>
   <g id="patch_5">
    <path d="M 95.617188 343.34 
L 430.417188 343.34 
" style="fill:none;stroke:#000000;stroke-linecap:square;stroke-linejoin:miter;stroke-width:0.8;"/>
   </g>
   <g id="patch_6">
    <path d="M 95.617188 10.7 
L 430.417188 10.7 
" style="fill:none;stroke:#000000;stroke-linecap:square;stroke-linejoin:miter;stroke-width:0.8;"/>
   </g>
  </g>
 </g>
 <defs>
  <clipPath id="p430f76008a">
   <rect height="332.64" width="334.8" x="95.617188" y="10.7"/>
  </clipPath>
 </defs>
</svg>
