<?xml version="1.0" encoding="utf-8" standalone="no"?>
<!DOCTYPE svg PUBLIC "-//W3C//DTD SVG 1.1//EN"
  "http://www.w3.org/Graphics/SVG/1.1/DTD/svg11.dtd">
<!-- Created with matplotlib (http://matplotlib.org/) -->
<svg height="354pt" version="1.1" viewBox="0 0 422 354" width="422pt" xmlns="http://www.w3.org/2000/svg" xmlns:xlink="http://www.w3.org/1999/xlink">
 <defs>
  <style type="text/css">
*{stroke-linecap:butt;stroke-linejoin:round;}
  </style>
 </defs>
 <g id="figure_1">
  <g id="patch_1">
   <path d="M 0 354.04 
L 422.681875 354.04 
L 422.681875 0 
L 0 0 
z
" style="fill:#ffffff;"/>
  </g>
  <g id="axes_1">
   <g id="patch_2">
    <path d="M 77.181875 343.34 
L 411.981875 343.34 
L 411.981875 10.7 
L 77.181875 10.7 
z
" style="fill:#ffffff;"/>
   </g>
   <g id="PolyCollection_1">
    <defs>
     <path d="M 92.400057 -32.675578 
L 92.400057 -32.684074 
L 95.708357 -32.684074 
L 99.016658 -32.684074 
L 102.324958 -32.684074 
L 105.633258 -32.684074 
L 108.941559 -32.684074 
L 112.249859 -32.684074 
L 115.55816 -32.684074 
L 118.86646 -32.684074 
L 122.17476 -32.684074 
L 125.483061 -32.684074 
L 128.791361 -32.684074 
L 132.099662 -32.684074 
L 135.407962 -32.684074 
L 138.716262 -32.684074 
L 142.024563 -32.684074 
L 145.332863 -32.684074 
L 148.641164 -32.684074 
L 151.949464 -32.684074 
L 155.257764 -32.684074 
L 158.566065 -32.684074 
L 161.874365 -32.684074 
L 165.182666 -32.684074 
L 168.490966 -32.684074 
L 171.799266 -32.684074 
L 175.107567 -32.684074 
L 178.415867 -32.684074 
L 181.724167 -32.684074 
L 185.032468 -32.684074 
L 188.340768 -32.684074 
L 191.649069 -32.684074 
L 194.957369 -32.684074 
L 198.265669 -32.684074 
L 201.57397 -32.684074 
L 204.88227 -32.684074 
L 208.190571 -32.684074 
L 211.498871 -32.684074 
L 214.807171 -32.684074 
L 218.115472 -32.684074 
L 221.423772 -32.684074 
L 224.732073 -32.684074 
L 228.040373 -32.684074 
L 231.348673 -32.684074 
L 234.656974 -32.684074 
L 237.965274 -32.684074 
L 241.273575 -32.684074 
L 244.581875 -32.684074 
L 247.890175 -32.684074 
L 251.198476 -32.684074 
L 254.506776 -32.684074 
L 257.815077 -32.684074 
L 261.123377 -32.684074 
L 264.431677 -32.684074 
L 267.739978 -32.684074 
L 271.048278 -32.684074 
L 274.356579 -32.684074 
L 277.664879 -32.684074 
L 280.973179 -32.684074 
L 284.28148 -32.684074 
L 287.58978 -32.684074 
L 290.898081 -32.684074 
L 294.206381 -32.684074 
L 297.514681 -32.684074 
L 300.822982 -32.684074 
L 304.131282 -32.684074 
L 307.439583 -32.684074 
L 310.747883 -32.684074 
L 314.056183 -32.684074 
L 317.364484 -32.684074 
L 320.672784 -32.684074 
L 323.981084 -32.684074 
L 327.289385 -32.684074 
L 330.597685 -32.684074 
L 333.905986 -32.684074 
L 337.214286 -32.684074 
L 340.522586 -32.684074 
L 343.830887 -32.684074 
L 347.139187 -32.684074 
L 350.447488 -32.684074 
L 353.755788 -32.684074 
L 357.064088 -32.684074 
L 360.372389 -32.684074 
L 363.680689 -32.684074 
L 366.98899 -32.684074 
L 370.29729 -32.684074 
L 373.60559 -32.684074 
L 376.913891 -32.684074 
L 380.222191 -32.684074 
L 383.530492 -32.684074 
L 386.838792 -32.684074 
L 390.147092 -32.684074 
L 393.455393 -32.684074 
L 396.763693 -32.684074 
L 396.763693 -328.22 
L 396.763693 -328.22 
L 393.455393 -197.325303 
L 390.147092 -173.741465 
L 386.838792 -160.155541 
L 383.530492 -156.664845 
L 380.222191 -153.136667 
L 376.913891 -140.407687 
L 373.60559 -128.32152 
L 370.29729 -127.695314 
L 366.98899 -126.249278 
L 363.680689 -122.322363 
L 360.372389 -117.326152 
L 357.064088 -113.753543 
L 353.755788 -113.269173 
L 350.447488 -112.455813 
L 347.139187 -110.090405 
L 343.830887 -108.987979 
L 340.522586 -104.651601 
L 337.214286 -104.064376 
L 333.905986 -103.203921 
L 330.597685 -101.051018 
L 327.289385 -100.753638 
L 323.981084 -97.905732 
L 320.672784 -97.425691 
L 317.364484 -96.386082 
L 314.056183 -94.829561 
L 310.747883 -89.650048 
L 307.439583 -86.312569 
L 304.131282 -83.317813 
L 300.822982 -78.318249 
L 297.514681 -77.36562 
L 294.206381 -76.179048 
L 290.898081 -75.836454 
L 287.58978 -75.594444 
L 284.28148 -74.730637 
L 280.973179 -74.348969 
L 277.664879 -70.848229 
L 274.356579 -69.727549 
L 271.048278 -68.935296 
L 267.739978 -66.653445 
L 264.431677 -66.249561 
L 261.123377 -65.568922 
L 257.815077 -62.995996 
L 254.506776 -62.954609 
L 251.198476 -61.874318 
L 247.890175 -61.540078 
L 244.581875 -59.553386 
L 241.273575 -58.980383 
L 237.965274 -56.317173 
L 234.656974 -54.749815 
L 231.348673 -53.975257 
L 228.040373 -53.242037 
L 224.732073 -53.122512 
L 221.423772 -50.783805 
L 218.115472 -50.61595 
L 214.807171 -50.171975 
L 211.498871 -49.863939 
L 208.190571 -49.848485 
L 204.88227 -47.764854 
L 201.57397 -47.595723 
L 198.265669 -46.123533 
L 194.957369 -45.814163 
L 191.649069 -45.656821 
L 188.340768 -45.380036 
L 185.032468 -45.31053 
L 181.724167 -44.057424 
L 178.415867 -43.395724 
L 175.107567 -42.827237 
L 171.799266 -42.768782 
L 168.490966 -42.355573 
L 165.182666 -40.77415 
L 161.874365 -40.769589 
L 158.566065 -40.017607 
L 155.257764 -39.883391 
L 151.949464 -39.705429 
L 148.641164 -39.64221 
L 145.332863 -38.732035 
L 142.024563 -38.510993 
L 138.716262 -37.544318 
L 135.407962 -37.40095 
L 132.099662 -37.161578 
L 128.791361 -37.156889 
L 125.483061 -36.956493 
L 122.17476 -36.62337 
L 118.86646 -35.986949 
L 115.55816 -35.156542 
L 112.249859 -35.069523 
L 108.941559 -34.953819 
L 105.633258 -34.140807 
L 102.324958 -33.424009 
L 99.016658 -32.93357 
L 95.708357 -32.88205 
L 92.400057 -32.675578 
z
" id="mbdeda25385" style="stroke:#4a98c9;"/>
    </defs>
    <g clip-path="url(#p79e0464c10)">
     <use style="fill:#4a98c9;stroke:#4a98c9;" x="0" xlink:href="#mbdeda25385" y="354.04"/>
    </g>
   </g>
   <g id="PolyCollection_2">
    <defs>
     <path d="M 92.400057 -25.82 
L 92.400057 -32.684074 
L 95.708357 -32.684074 
L 99.016658 -32.684074 
L 102.324958 -32.684074 
L 105.633258 -32.684074 
L 108.941559 -32.684074 
L 112.249859 -32.684074 
L 115.55816 -32.684074 
L 118.86646 -32.684074 
L 122.17476 -32.684074 
L 125.483061 -32.684074 
L 128.791361 -32.684074 
L 132.099662 -32.684074 
L 135.407962 -32.684074 
L 138.716262 -32.684074 
L 142.024563 -32.684074 
L 145.332863 -32.684074 
L 148.641164 -32.684074 
L 151.949464 -32.684074 
L 155.257764 -32.684074 
L 158.566065 -32.684074 
L 161.874365 -32.684074 
L 165.182666 -32.684074 
L 168.490966 -32.684074 
L 171.799266 -32.684074 
L 175.107567 -32.684074 
L 178.415867 -32.684074 
L 181.724167 -32.684074 
L 185.032468 -32.684074 
L 188.340768 -32.684074 
L 191.649069 -32.684074 
L 194.957369 -32.684074 
L 198.265669 -32.684074 
L 201.57397 -32.684074 
L 204.88227 -32.684074 
L 208.190571 -32.684074 
L 211.498871 -32.684074 
L 214.807171 -32.684074 
L 218.115472 -32.684074 
L 221.423772 -32.684074 
L 224.732073 -32.684074 
L 228.040373 -32.684074 
L 231.348673 -32.684074 
L 234.656974 -32.684074 
L 237.965274 -32.684074 
L 241.273575 -32.684074 
L 244.581875 -32.684074 
L 247.890175 -32.684074 
L 251.198476 -32.684074 
L 254.506776 -32.684074 
L 257.815077 -32.684074 
L 261.123377 -32.684074 
L 264.431677 -32.684074 
L 267.739978 -32.684074 
L 271.048278 -32.684074 
L 274.356579 -32.684074 
L 277.664879 -32.684074 
L 280.973179 -32.684074 
L 284.28148 -32.684074 
L 287.58978 -32.684074 
L 290.898081 -32.684074 
L 294.206381 -32.684074 
L 297.514681 -32.684074 
L 300.822982 -32.684074 
L 304.131282 -32.684074 
L 307.439583 -32.684074 
L 310.747883 -32.684074 
L 314.056183 -32.684074 
L 317.364484 -32.684074 
L 320.672784 -32.684074 
L 323.981084 -32.684074 
L 327.289385 -32.684074 
L 330.597685 -32.684074 
L 333.905986 -32.684074 
L 337.214286 -32.684074 
L 340.522586 -32.684074 
L 343.830887 -32.684074 
L 347.139187 -32.684074 
L 350.447488 -32.684074 
L 353.755788 -32.684074 
L 357.064088 -32.684074 
L 360.372389 -32.684074 
L 363.680689 -32.684074 
L 366.98899 -32.684074 
L 370.29729 -32.684074 
L 373.60559 -32.684074 
L 376.913891 -32.684074 
L 380.222191 -32.684074 
L 383.530492 -32.684074 
L 386.838792 -32.684074 
L 390.147092 -32.684074 
L 393.455393 -32.684074 
L 396.763693 -32.684074 
L 396.763693 -105.226209 
L 396.763693 -105.226209 
L 393.455393 -79.605425 
L 390.147092 -70.424678 
L 386.838792 -62.796724 
L 383.530492 -62.595415 
L 380.222191 -61.09791 
L 376.913891 -60.18497 
L 373.60559 -57.863662 
L 370.29729 -57.533653 
L 366.98899 -56.135291 
L 363.680689 -55.1604 
L 360.372389 -54.862054 
L 357.064088 -53.534372 
L 353.755788 -53.518106 
L 350.447488 -52.829785 
L 347.139187 -52.591362 
L 343.830887 -51.950005 
L 340.522586 -51.641913 
L 337.214286 -51.218144 
L 333.905986 -51.189465 
L 330.597685 -49.730968 
L 327.289385 -49.727826 
L 323.981084 -49.718767 
L 320.672784 -49.310659 
L 317.364484 -49.232375 
L 314.056183 -47.685128 
L 310.747883 -47.522117 
L 307.439583 -47.502472 
L 304.131282 -46.902613 
L 300.822982 -45.716273 
L 297.514681 -45.186597 
L 294.206381 -44.887257 
L 290.898081 -44.651059 
L 287.58978 -44.106956 
L 284.28148 -43.244262 
L 280.973179 -42.756089 
L 277.664879 -42.312486 
L 274.356579 -41.814935 
L 271.048278 -41.667645 
L 267.739978 -41.2436 
L 264.431677 -41.01267 
L 261.123377 -40.825642 
L 257.815077 -39.951664 
L 254.506776 -39.390445 
L 251.198476 -38.909239 
L 247.890175 -38.568505 
L 244.581875 -37.99607 
L 241.273575 -37.857147 
L 237.965274 -37.8075 
L 234.656974 -37.770071 
L 231.348673 -37.721994 
L 228.040373 -37.376314 
L 224.732073 -37.270463 
L 221.423772 -37.260358 
L 218.115472 -37.229047 
L 214.807171 -37.127814 
L 211.498871 -36.957328 
L 208.190571 -36.77825 
L 204.88227 -36.000812 
L 201.57397 -35.623628 
L 198.265669 -35.231253 
L 194.957369 -35.178459 
L 191.649069 -34.563791 
L 188.340768 -34.555997 
L 185.032468 -34.466111 
L 181.724167 -34.448269 
L 178.415867 -34.316112 
L 175.107567 -33.763421 
L 171.799266 -33.398283 
L 168.490966 -33.393198 
L 165.182666 -33.185811 
L 161.874365 -33.127108 
L 158.566065 -32.82611 
L 155.257764 -32.798693 
L 151.949464 -32.662112 
L 148.641164 -32.595184 
L 145.332863 -32.316686 
L 142.024563 -32.067217 
L 138.716262 -32.036836 
L 135.407962 -31.32057 
L 132.099662 -30.806445 
L 128.791361 -30.532394 
L 125.483061 -30.166858 
L 122.17476 -30.060991 
L 118.86646 -29.699083 
L 115.55816 -29.696461 
L 112.249859 -29.554068 
L 108.941559 -29.42628 
L 105.633258 -29.153427 
L 102.324958 -28.421069 
L 99.016658 -28.145374 
L 95.708357 -27.088681 
L 92.400057 -25.82 
z
" id="m61b5769b2a" style="stroke:#f14432;stroke-opacity:0.8;"/>
    </defs>
    <g clip-path="url(#p79e0464c10)">
     <use style="fill:#f14432;fill-opacity:0.8;stroke:#f14432;stroke-opacity:0.8;" x="0" xlink:href="#m61b5769b2a" y="354.04"/>
    </g>
   </g>
   <g id="matplotlib.axis_1"/>
   <g id="matplotlib.axis_2">
    <g id="ytick_1">
     <g id="line2d_1">
      <defs>
       <path d="M 0 0 
L -3.5 0 
" id="md4f0c5753c" style="stroke:#000000;stroke-width:0.8;"/>
      </defs>
      <g>
       <use style="stroke:#000000;stroke-width:0.8;" x="77.181875" xlink:href="#md4f0c5753c" y="321.355926"/>
      </g>
     </g>
     <g id="text_1">
      <!-- 0.000 -->
      <defs>
       <path d="M 31.78125 66.40625 
Q 24.171875 66.40625 20.328125 58.90625 
Q 16.5 51.421875 16.5 36.375 
Q 16.5 21.390625 20.328125 13.890625 
Q 24.171875 6.390625 31.78125 6.390625 
Q 39.453125 6.390625 43.28125 13.890625 
Q 47.125 21.390625 47.125 36.375 
Q 47.125 51.421875 43.28125 58.90625 
Q 39.453125 66.40625 31.78125 66.40625 
z
M 31.78125 74.21875 
Q 44.046875 74.21875 50.515625 64.515625 
Q 56.984375 54.828125 56.984375 36.375 
Q 56.984375 17.96875 50.515625 8.265625 
Q 44.046875 -1.421875 31.78125 -1.421875 
Q 19.53125 -1.421875 13.0625 8.265625 
Q 6.59375 17.96875 6.59375 36.375 
Q 6.59375 54.828125 13.0625 64.515625 
Q 19.53125 74.21875 31.78125 74.21875 
z
" id="DejaVuSans-30"/>
       <path d="M 10.6875 12.40625 
L 21 12.40625 
L 21 0 
L 10.6875 0 
z
" id="DejaVuSans-2e"/>
      </defs>
      <g transform="translate(7.2 329.714207)scale(0.22 -0.22)">
       <use xlink:href="#DejaVuSans-30"/>
       <use x="63.623047" xlink:href="#DejaVuSans-2e"/>
       <use x="95.410156" xlink:href="#DejaVuSans-30"/>
       <use x="159.033203" xlink:href="#DejaVuSans-30"/>
       <use x="222.65625" xlink:href="#DejaVuSans-30"/>
      </g>
     </g>
    </g>
    <g id="ytick_2">
     <g id="line2d_2">
      <g>
       <use style="stroke:#000000;stroke-width:0.8;" x="77.181875" xlink:href="#md4f0c5753c" y="279.043909"/>
      </g>
     </g>
     <g id="text_2">
      <!-- 0.002 -->
      <defs>
       <path d="M 19.1875 8.296875 
L 53.609375 8.296875 
L 53.609375 0 
L 7.328125 0 
L 7.328125 8.296875 
Q 12.9375 14.109375 22.625 23.890625 
Q 32.328125 33.6875 34.8125 36.53125 
Q 39.546875 41.84375 41.421875 45.53125 
Q 43.3125 49.21875 43.3125 52.78125 
Q 43.3125 58.59375 39.234375 62.25 
Q 35.15625 65.921875 28.609375 65.921875 
Q 23.96875 65.921875 18.8125 64.3125 
Q 13.671875 62.703125 7.8125 59.421875 
L 7.8125 69.390625 
Q 13.765625 71.78125 18.9375 73 
Q 24.125 74.21875 28.421875 74.21875 
Q 39.75 74.21875 46.484375 68.546875 
Q 53.21875 62.890625 53.21875 53.421875 
Q 53.21875 48.921875 51.53125 44.890625 
Q 49.859375 40.875 45.40625 35.40625 
Q 44.1875 33.984375 37.640625 27.21875 
Q 31.109375 20.453125 19.1875 8.296875 
z
" id="DejaVuSans-32"/>
      </defs>
      <g transform="translate(7.2 287.40219)scale(0.22 -0.22)">
       <use xlink:href="#DejaVuSans-30"/>
       <use x="63.623047" xlink:href="#DejaVuSans-2e"/>
       <use x="95.410156" xlink:href="#DejaVuSans-30"/>
       <use x="159.033203" xlink:href="#DejaVuSans-30"/>
       <use x="222.65625" xlink:href="#DejaVuSans-32"/>
      </g>
     </g>
    </g>
    <g id="ytick_3">
     <g id="line2d_3">
      <g>
       <use style="stroke:#000000;stroke-width:0.8;" x="77.181875" xlink:href="#md4f0c5753c" y="236.731891"/>
      </g>
     </g>
     <g id="text_3">
      <!-- 0.004 -->
      <defs>
       <path d="M 37.796875 64.3125 
L 12.890625 25.390625 
L 37.796875 25.390625 
z
M 35.203125 72.90625 
L 47.609375 72.90625 
L 47.609375 25.390625 
L 58.015625 25.390625 
L 58.015625 17.1875 
L 47.609375 17.1875 
L 47.609375 0 
L 37.796875 0 
L 37.796875 17.1875 
L 4.890625 17.1875 
L 4.890625 26.703125 
z
" id="DejaVuSans-34"/>
      </defs>
      <g transform="translate(7.2 245.090173)scale(0.22 -0.22)">
       <use xlink:href="#DejaVuSans-30"/>
       <use x="63.623047" xlink:href="#DejaVuSans-2e"/>
       <use x="95.410156" xlink:href="#DejaVuSans-30"/>
       <use x="159.033203" xlink:href="#DejaVuSans-30"/>
       <use x="222.65625" xlink:href="#DejaVuSans-34"/>
      </g>
     </g>
    </g>
    <g id="ytick_4">
     <g id="line2d_4">
      <g>
       <use style="stroke:#000000;stroke-width:0.8;" x="77.181875" xlink:href="#md4f0c5753c" y="194.419874"/>
      </g>
     </g>
     <g id="text_4">
      <!-- 0.006 -->
      <defs>
       <path d="M 33.015625 40.375 
Q 26.375 40.375 22.484375 35.828125 
Q 18.609375 31.296875 18.609375 23.390625 
Q 18.609375 15.53125 22.484375 10.953125 
Q 26.375 6.390625 33.015625 6.390625 
Q 39.65625 6.390625 43.53125 10.953125 
Q 47.40625 15.53125 47.40625 23.390625 
Q 47.40625 31.296875 43.53125 35.828125 
Q 39.65625 40.375 33.015625 40.375 
z
M 52.59375 71.296875 
L 52.59375 62.3125 
Q 48.875 64.0625 45.09375 64.984375 
Q 41.3125 65.921875 37.59375 65.921875 
Q 27.828125 65.921875 22.671875 59.328125 
Q 17.53125 52.734375 16.796875 39.40625 
Q 19.671875 43.65625 24.015625 45.921875 
Q 28.375 48.1875 33.59375 48.1875 
Q 44.578125 48.1875 50.953125 41.515625 
Q 57.328125 34.859375 57.328125 23.390625 
Q 57.328125 12.15625 50.6875 5.359375 
Q 44.046875 -1.421875 33.015625 -1.421875 
Q 20.359375 -1.421875 13.671875 8.265625 
Q 6.984375 17.96875 6.984375 36.375 
Q 6.984375 53.65625 15.1875 63.9375 
Q 23.390625 74.21875 37.203125 74.21875 
Q 40.921875 74.21875 44.703125 73.484375 
Q 48.484375 72.75 52.59375 71.296875 
z
" id="DejaVuSans-36"/>
      </defs>
      <g transform="translate(7.2 202.778155)scale(0.22 -0.22)">
       <use xlink:href="#DejaVuSans-30"/>
       <use x="63.623047" xlink:href="#DejaVuSans-2e"/>
       <use x="95.410156" xlink:href="#DejaVuSans-30"/>
       <use x="159.033203" xlink:href="#DejaVuSans-30"/>
       <use x="222.65625" xlink:href="#DejaVuSans-36"/>
      </g>
     </g>
    </g>
    <g id="ytick_5">
     <g id="line2d_5">
      <g>
       <use style="stroke:#000000;stroke-width:0.8;" x="77.181875" xlink:href="#md4f0c5753c" y="152.107856"/>
      </g>
     </g>
     <g id="text_5">
      <!-- 0.008 -->
      <defs>
       <path d="M 31.78125 34.625 
Q 24.75 34.625 20.71875 30.859375 
Q 16.703125 27.09375 16.703125 20.515625 
Q 16.703125 13.921875 20.71875 10.15625 
Q 24.75 6.390625 31.78125 6.390625 
Q 38.8125 6.390625 42.859375 10.171875 
Q 46.921875 13.96875 46.921875 20.515625 
Q 46.921875 27.09375 42.890625 30.859375 
Q 38.875 34.625 31.78125 34.625 
z
M 21.921875 38.8125 
Q 15.578125 40.375 12.03125 44.71875 
Q 8.5 49.078125 8.5 55.328125 
Q 8.5 64.0625 14.71875 69.140625 
Q 20.953125 74.21875 31.78125 74.21875 
Q 42.671875 74.21875 48.875 69.140625 
Q 55.078125 64.0625 55.078125 55.328125 
Q 55.078125 49.078125 51.53125 44.71875 
Q 48 40.375 41.703125 38.8125 
Q 48.828125 37.15625 52.796875 32.3125 
Q 56.78125 27.484375 56.78125 20.515625 
Q 56.78125 9.90625 50.3125 4.234375 
Q 43.84375 -1.421875 31.78125 -1.421875 
Q 19.734375 -1.421875 13.25 4.234375 
Q 6.78125 9.90625 6.78125 20.515625 
Q 6.78125 27.484375 10.78125 32.3125 
Q 14.796875 37.15625 21.921875 38.8125 
z
M 18.3125 54.390625 
Q 18.3125 48.734375 21.84375 45.5625 
Q 25.390625 42.390625 31.78125 42.390625 
Q 38.140625 42.390625 41.71875 45.5625 
Q 45.3125 48.734375 45.3125 54.390625 
Q 45.3125 60.0625 41.71875 63.234375 
Q 38.140625 66.40625 31.78125 66.40625 
Q 25.390625 66.40625 21.84375 63.234375 
Q 18.3125 60.0625 18.3125 54.390625 
z
" id="DejaVuSans-38"/>
      </defs>
      <g transform="translate(7.2 160.466138)scale(0.22 -0.22)">
       <use xlink:href="#DejaVuSans-30"/>
       <use x="63.623047" xlink:href="#DejaVuSans-2e"/>
       <use x="95.410156" xlink:href="#DejaVuSans-30"/>
       <use x="159.033203" xlink:href="#DejaVuSans-30"/>
       <use x="222.65625" xlink:href="#DejaVuSans-38"/>
      </g>
     </g>
    </g>
    <g id="ytick_6">
     <g id="line2d_6">
      <g>
       <use style="stroke:#000000;stroke-width:0.8;" x="77.181875" xlink:href="#md4f0c5753c" y="109.795839"/>
      </g>
     </g>
     <g id="text_6">
      <!-- 0.010 -->
      <defs>
       <path d="M 12.40625 8.296875 
L 28.515625 8.296875 
L 28.515625 63.921875 
L 10.984375 60.40625 
L 10.984375 69.390625 
L 28.421875 72.90625 
L 38.28125 72.90625 
L 38.28125 8.296875 
L 54.390625 8.296875 
L 54.390625 0 
L 12.40625 0 
z
" id="DejaVuSans-31"/>
      </defs>
      <g transform="translate(7.2 118.15412)scale(0.22 -0.22)">
       <use xlink:href="#DejaVuSans-30"/>
       <use x="63.623047" xlink:href="#DejaVuSans-2e"/>
       <use x="95.410156" xlink:href="#DejaVuSans-30"/>
       <use x="159.033203" xlink:href="#DejaVuSans-31"/>
       <use x="222.65625" xlink:href="#DejaVuSans-30"/>
      </g>
     </g>
    </g>
    <g id="ytick_7">
     <g id="line2d_7">
      <g>
       <use style="stroke:#000000;stroke-width:0.8;" x="77.181875" xlink:href="#md4f0c5753c" y="67.483821"/>
      </g>
     </g>
     <g id="text_7">
      <!-- 0.012 -->
      <g transform="translate(7.2 75.842103)scale(0.22 -0.22)">
       <use xlink:href="#DejaVuSans-30"/>
       <use x="63.623047" xlink:href="#DejaVuSans-2e"/>
       <use x="95.410156" xlink:href="#DejaVuSans-30"/>
       <use x="159.033203" xlink:href="#DejaVuSans-31"/>
       <use x="222.65625" xlink:href="#DejaVuSans-32"/>
      </g>
     </g>
    </g>
    <g id="ytick_8">
     <g id="line2d_8">
      <g>
       <use style="stroke:#000000;stroke-width:0.8;" x="77.181875" xlink:href="#md4f0c5753c" y="25.171804"/>
      </g>
     </g>
     <g id="text_8">
      <!-- 0.014 -->
      <g transform="translate(7.2 33.530085)scale(0.22 -0.22)">
       <use xlink:href="#DejaVuSans-30"/>
       <use x="63.623047" xlink:href="#DejaVuSans-2e"/>
       <use x="95.410156" xlink:href="#DejaVuSans-30"/>
       <use x="159.033203" xlink:href="#DejaVuSans-31"/>
       <use x="222.65625" xlink:href="#DejaVuSans-34"/>
      </g>
     </g>
    </g>
   </g>
   <g id="patch_3">
    <path d="M 77.181875 343.34 
L 77.181875 10.7 
" style="fill:none;stroke:#000000;stroke-linecap:square;stroke-linejoin:miter;stroke-width:0.8;"/>
   </g>
   <g id="patch_4">
    <path d="M 411.981875 343.34 
L 411.981875 10.7 
" style="fill:none;stroke:#000000;stroke-linecap:square;stroke-linejoin:miter;stroke-width:0.8;"/>
   </g>
   <g id="patch_5">
    <path d="M 77.181875 343.34 
L 411.981875 343.34 
" style="fill:none;stroke:#000000;stroke-linecap:square;stroke-linejoin:miter;stroke-width:0.8;"/>
   </g>
   <g id="patch_6">
    <path d="M 77.181875 10.7 
L 411.981875 10.7 
" style="fill:none;stroke:#000000;stroke-linecap:square;stroke-linejoin:miter;stroke-width:0.8;"/>
   </g>
  </g>
 </g>
 <defs>
  <clipPath id="p79e0464c10">
   <rect height="332.64" width="334.8" x="77.181875" y="10.7"/>
  </clipPath>
 </defs>
</svg>
