<?xml version="1.0" encoding="utf-8" standalone="no"?>
<!DOCTYPE svg PUBLIC "-//W3C//DTD SVG 1.1//EN"
  "http://www.w3.org/Graphics/SVG/1.1/DTD/svg11.dtd">
<!-- Created with matplotlib (http://matplotlib.org/) -->
<svg height="223pt" version="1.1" viewBox="0 0 223 223" width="223pt" xmlns="http://www.w3.org/2000/svg" xmlns:xlink="http://www.w3.org/1999/xlink">
 <defs>
  <style type="text/css">
*{stroke-linecap:butt;stroke-linejoin:round;}
  </style>
 </defs>
 <g id="figure_1">
  <g id="patch_1">
   <path d="M -0 223 
L 223 223 
L 223 0 
L -0 0 
z
" style="fill:#ffffff;"/>
  </g>
  <g id="axes_1">
   <g id="patch_2">
    <path d="M 3.5 219.5 
L 219.5 219.5 
L 219.5 3.5 
L 3.5 3.5 
z
" style="fill:#ffffff;"/>
   </g>
   <g id="matplotlib.axis_1">
    <g id="xtick_1">
     <g id="line2d_1">
      <defs>
       <path d="M 0 0 
L 0 2 
" id="m56825939b9" style="stroke:#000000;stroke-width:0.6;"/>
      </defs>
      <g>
       <use style="stroke:#000000;stroke-width:0.6;" x="19.75562" xlink:href="#m56825939b9" y="219.5"/>
      </g>
     </g>
    </g>
    <g id="xtick_2">
     <g id="line2d_2">
      <g>
       <use style="stroke:#000000;stroke-width:0.6;" x="29.264548" xlink:href="#m56825939b9" y="219.5"/>
      </g>
     </g>
    </g>
    <g id="xtick_3">
     <g id="line2d_3">
      <g>
       <use style="stroke:#000000;stroke-width:0.6;" x="36.01124" xlink:href="#m56825939b9" y="219.5"/>
      </g>
     </g>
    </g>
    <g id="xtick_4">
     <g id="line2d_4">
      <g>
       <use style="stroke:#000000;stroke-width:0.6;" x="41.24438" xlink:href="#m56825939b9" y="219.5"/>
      </g>
     </g>
    </g>
    <g id="xtick_5">
     <g id="line2d_5">
      <g>
       <use style="stroke:#000000;stroke-width:0.6;" x="45.520168" xlink:href="#m56825939b9" y="219.5"/>
      </g>
     </g>
    </g>
    <g id="xtick_6">
     <g id="line2d_6">
      <g>
       <use style="stroke:#000000;stroke-width:0.6;" x="49.135294" xlink:href="#m56825939b9" y="219.5"/>
      </g>
     </g>
    </g>
    <g id="xtick_7">
     <g id="line2d_7">
      <g>
       <use style="stroke:#000000;stroke-width:0.6;" x="52.266859" xlink:href="#m56825939b9" y="219.5"/>
      </g>
     </g>
    </g>
    <g id="xtick_8">
     <g id="line2d_8">
      <g>
       <use style="stroke:#000000;stroke-width:0.6;" x="55.029096" xlink:href="#m56825939b9" y="219.5"/>
      </g>
     </g>
    </g>
    <g id="xtick_9">
     <g id="line2d_9">
      <g>
       <use style="stroke:#000000;stroke-width:0.6;" x="73.75562" xlink:href="#m56825939b9" y="219.5"/>
      </g>
     </g>
    </g>
    <g id="xtick_10">
     <g id="line2d_10">
      <g>
       <use style="stroke:#000000;stroke-width:0.6;" x="83.264548" xlink:href="#m56825939b9" y="219.5"/>
      </g>
     </g>
    </g>
    <g id="xtick_11">
     <g id="line2d_11">
      <g>
       <use style="stroke:#000000;stroke-width:0.6;" x="90.01124" xlink:href="#m56825939b9" y="219.5"/>
      </g>
     </g>
    </g>
    <g id="xtick_12">
     <g id="line2d_12">
      <g>
       <use style="stroke:#000000;stroke-width:0.6;" x="95.24438" xlink:href="#m56825939b9" y="219.5"/>
      </g>
     </g>
    </g>
    <g id="xtick_13">
     <g id="line2d_13">
      <g>
       <use style="stroke:#000000;stroke-width:0.6;" x="99.520168" xlink:href="#m56825939b9" y="219.5"/>
      </g>
     </g>
    </g>
    <g id="xtick_14">
     <g id="line2d_14">
      <g>
       <use style="stroke:#000000;stroke-width:0.6;" x="103.135294" xlink:href="#m56825939b9" y="219.5"/>
      </g>
     </g>
    </g>
    <g id="xtick_15">
     <g id="line2d_15">
      <g>
       <use style="stroke:#000000;stroke-width:0.6;" x="106.266859" xlink:href="#m56825939b9" y="219.5"/>
      </g>
     </g>
    </g>
    <g id="xtick_16">
     <g id="line2d_16">
      <g>
       <use style="stroke:#000000;stroke-width:0.6;" x="109.029096" xlink:href="#m56825939b9" y="219.5"/>
      </g>
     </g>
    </g>
    <g id="xtick_17">
     <g id="line2d_17">
      <g>
       <use style="stroke:#000000;stroke-width:0.6;" x="127.75562" xlink:href="#m56825939b9" y="219.5"/>
      </g>
     </g>
    </g>
    <g id="xtick_18">
     <g id="line2d_18">
      <g>
       <use style="stroke:#000000;stroke-width:0.6;" x="137.264548" xlink:href="#m56825939b9" y="219.5"/>
      </g>
     </g>
    </g>
    <g id="xtick_19">
     <g id="line2d_19">
      <g>
       <use style="stroke:#000000;stroke-width:0.6;" x="144.01124" xlink:href="#m56825939b9" y="219.5"/>
      </g>
     </g>
    </g>
    <g id="xtick_20">
     <g id="line2d_20">
      <g>
       <use style="stroke:#000000;stroke-width:0.6;" x="149.24438" xlink:href="#m56825939b9" y="219.5"/>
      </g>
     </g>
    </g>
    <g id="xtick_21">
     <g id="line2d_21">
      <g>
       <use style="stroke:#000000;stroke-width:0.6;" x="153.520168" xlink:href="#m56825939b9" y="219.5"/>
      </g>
     </g>
    </g>
    <g id="xtick_22">
     <g id="line2d_22">
      <g>
       <use style="stroke:#000000;stroke-width:0.6;" x="157.135294" xlink:href="#m56825939b9" y="219.5"/>
      </g>
     </g>
    </g>
    <g id="xtick_23">
     <g id="line2d_23">
      <g>
       <use style="stroke:#000000;stroke-width:0.6;" x="160.266859" xlink:href="#m56825939b9" y="219.5"/>
      </g>
     </g>
    </g>
    <g id="xtick_24">
     <g id="line2d_24">
      <g>
       <use style="stroke:#000000;stroke-width:0.6;" x="163.029096" xlink:href="#m56825939b9" y="219.5"/>
      </g>
     </g>
    </g>
    <g id="xtick_25">
     <g id="line2d_25">
      <g>
       <use style="stroke:#000000;stroke-width:0.6;" x="181.75562" xlink:href="#m56825939b9" y="219.5"/>
      </g>
     </g>
    </g>
    <g id="xtick_26">
     <g id="line2d_26">
      <g>
       <use style="stroke:#000000;stroke-width:0.6;" x="191.264548" xlink:href="#m56825939b9" y="219.5"/>
      </g>
     </g>
    </g>
    <g id="xtick_27">
     <g id="line2d_27">
      <g>
       <use style="stroke:#000000;stroke-width:0.6;" x="198.01124" xlink:href="#m56825939b9" y="219.5"/>
      </g>
     </g>
    </g>
    <g id="xtick_28">
     <g id="line2d_28">
      <g>
       <use style="stroke:#000000;stroke-width:0.6;" x="203.24438" xlink:href="#m56825939b9" y="219.5"/>
      </g>
     </g>
    </g>
    <g id="xtick_29">
     <g id="line2d_29">
      <g>
       <use style="stroke:#000000;stroke-width:0.6;" x="207.520168" xlink:href="#m56825939b9" y="219.5"/>
      </g>
     </g>
    </g>
    <g id="xtick_30">
     <g id="line2d_30">
      <g>
       <use style="stroke:#000000;stroke-width:0.6;" x="211.135294" xlink:href="#m56825939b9" y="219.5"/>
      </g>
     </g>
    </g>
    <g id="xtick_31">
     <g id="line2d_31">
      <g>
       <use style="stroke:#000000;stroke-width:0.6;" x="214.266859" xlink:href="#m56825939b9" y="219.5"/>
      </g>
     </g>
    </g>
    <g id="xtick_32">
     <g id="line2d_32">
      <g>
       <use style="stroke:#000000;stroke-width:0.6;" x="217.029096" xlink:href="#m56825939b9" y="219.5"/>
      </g>
     </g>
    </g>
   </g>
   <g id="matplotlib.axis_2"/>
   <g id="line2d_33">
    <path clip-path="url(#p9a6a7be07d)" d="M 3.5 214.475812 
L 7.908163 214.226026 
L 12.316327 211.693347 
L 16.72449 209.810554 
L 21.132653 211.980263 
L 25.540816 211.977598 
L 29.94898 208.682472 
L 34.357143 200.065925 
L 38.765306 199.759032 
L 43.173469 184.906768 
L 47.581633 172.653028 
L 51.989796 163.530563 
L 56.397959 147.944941 
L 60.806122 141.950571 
L 65.214286 146.818642 
L 69.622449 146.224027 
L 74.030612 148.825953 
L 78.438776 158.530298 
L 82.846939 164.784735 
L 87.255102 177.79346 
L 91.663265 185.157883 
L 96.071429 188.688727 
L 100.479592 194.524547 
L 104.887755 198.605518 
L 109.295918 205.578936 
L 113.704082 208.801371 
L 118.112245 209.364332 
L 122.520408 208.369031 
L 126.928571 210.44171 
L 131.336735 210.300866 
L 135.744898 212.550339 
L 140.153061 214.842352 
L 144.561224 214.776416 
L 148.969388 214.701003 
L 153.377551 214.621885 
L 157.785714 214.549039 
L 162.193878 214.498533 
L 166.602041 214.450644 
L 171.010204 214.411517 
L 175.418367 214.382782 
L 179.826531 214.374677 
L 184.234694 214.369608 
L 188.642857 214.370403 
L 193.05102 214.371197 
L 197.459184 214.371956 
L 201.867347 214.372639 
L 206.27551 214.373205 
L 210.683673 214.373605 
L 215.091837 214.373783 
L 219.5 214.373674 
" style="fill:none;opacity:0.5;stroke:#bddf26;stroke-linecap:square;stroke-width:0.3;"/>
   </g>
   <g id="line2d_34">
    <path clip-path="url(#p9a6a7be07d)" d="M 3.5 178.376644 
L 7.908163 167.147843 
L 12.316327 157.025883 
L 16.72449 143.67213 
L 21.132653 144.933612 
L 25.540816 141.91244 
L 29.94898 149.384317 
L 34.357143 167.853262 
L 38.765306 172.570165 
L 43.173469 178.132184 
L 47.581633 184.32321 
L 51.989796 185.55752 
L 56.397959 192.672235 
L 60.806122 194.088688 
L 65.214286 192.423937 
L 69.622449 191.36808 
L 74.030612 193.746582 
L 78.438776 195.937425 
L 82.846939 202.6416 
L 87.255102 205.536329 
L 91.663265 209.863462 
L 96.071429 210.000039 
L 100.479592 214.163216 
L 104.887755 214.630583 
L 109.295918 214.562272 
L 113.704082 214.474188 
L 118.112245 214.383249 
L 122.520408 214.30412 
L 126.928571 214.234839 
L 131.336735 214.170639 
L 135.744898 214.121407 
L 140.153061 214.101164 
L 144.561224 214.093399 
L 148.969388 214.094509 
L 153.377551 214.095738 
L 157.785714 214.097065 
L 162.193878 214.098472 
L 166.602041 214.099941 
L 171.010204 214.101454 
L 175.418367 214.102994 
L 179.826531 214.104544 
L 184.234694 214.106084 
L 188.642857 214.107593 
L 193.05102 214.109049 
L 197.459184 214.110424 
L 201.867347 214.111687 
L 206.27551 214.112802 
L 210.683673 214.113726 
L 215.091837 214.114407 
L 219.5 214.114784 
" style="fill:none;opacity:0.5;stroke:#bddf26;stroke-linecap:square;stroke-width:0.3;"/>
   </g>
   <g id="line2d_35">
    <path clip-path="url(#p9a6a7be07d)" d="M 3.5 205.504074 
L 7.908163 199.21748 
L 12.316327 177.467548 
L 16.72449 162.92807 
L 21.132653 145.754168 
L 25.540816 137.18622 
L 29.94898 143.905496 
L 34.357143 151.813576 
L 38.765306 160.709767 
L 43.173469 164.95877 
L 47.581633 170.54789 
L 51.989796 173.679382 
L 56.397959 184.445225 
L 60.806122 185.506952 
L 65.214286 183.26262 
L 69.622449 185.000568 
L 74.030612 189.513198 
L 78.438776 199.704895 
L 82.846939 202.637118 
L 87.255102 209.246881 
L 91.663265 214.407161 
L 96.071429 215.685793 
L 100.479592 215.629735 
L 104.887755 215.534953 
L 109.295918 215.43829 
L 113.704082 215.353295 
L 118.112245 215.262072 
L 122.520408 215.176089 
L 126.928571 215.126671 
L 131.336735 215.101481 
L 135.744898 215.087936 
L 140.153061 215.086397 
L 144.561224 215.087324 
L 148.969388 215.088362 
L 153.377551 215.089491 
L 157.785714 215.090695 
L 162.193878 215.09196 
L 166.602041 215.09327 
L 171.010204 215.094612 
L 175.418367 215.095972 
L 179.826531 215.097333 
L 184.234694 215.098682 
L 188.642857 215.099999 
L 193.05102 215.101264 
L 197.459184 215.102455 
L 201.867347 215.103544 
L 206.27551 215.104499 
L 210.683673 215.105283 
L 215.091837 215.105851 
L 219.5 215.106147 
" style="fill:none;opacity:0.5;stroke:#bddf26;stroke-linecap:square;stroke-width:0.3;"/>
   </g>
   <g id="line2d_36">
    <path clip-path="url(#p9a6a7be07d)" d="M 3.5 171.607999 
L 7.908163 163.70134 
L 12.316327 157.392151 
L 16.72449 154.688023 
L 21.132653 161.201131 
L 25.540816 154.878672 
L 29.94898 155.199603 
L 34.357143 158.731331 
L 38.765306 155.227591 
L 43.173469 169.132716 
L 47.581633 170.175049 
L 51.989796 176.210236 
L 56.397959 182.534478 
L 60.806122 194.64755 
L 65.214286 201.892877 
L 69.622449 203.611175 
L 74.030612 205.876998 
L 78.438776 206.639043 
L 82.846939 206.551999 
L 87.255102 209.752025 
L 91.663265 208.666417 
L 96.071429 210.940974 
L 100.479592 210.818332 
L 104.887755 214.909176 
L 109.295918 215.456868 
L 113.704082 215.397028 
L 118.112245 215.329319 
L 122.520408 215.250585 
L 126.928571 215.169744 
L 131.336735 215.098868 
L 135.744898 215.06249 
L 140.153061 215.040217 
L 144.561224 215.036539 
L 148.969388 215.037298 
L 153.377551 215.038196 
L 157.785714 215.039212 
L 162.193878 215.040322 
L 166.602041 215.041508 
L 171.010204 215.042752 
L 175.418367 215.044036 
L 179.826531 215.045342 
L 184.234694 215.046652 
L 188.642857 215.047948 
L 193.05102 215.049208 
L 197.459184 215.050409 
L 201.867347 215.051523 
L 206.27551 215.052521 
L 210.683673 215.053364 
L 215.091837 215.054009 
L 219.5 215.054406 
" style="fill:none;opacity:0.5;stroke:#bddf26;stroke-linecap:square;stroke-width:0.3;"/>
   </g>
   <g id="line2d_37">
    <path clip-path="url(#p9a6a7be07d)" d="M 13.002484 224 
L 16.72449 220.206793 
L 21.132653 217.812203 
L 25.540816 205.043756 
L 29.94898 191.008887 
L 34.357143 174.889057 
L 38.765306 155.378624 
L 43.173469 149.023432 
L 47.581633 145.591156 
L 51.989796 150.780834 
L 56.397959 158.504734 
L 60.806122 156.446222 
L 65.214286 164.783978 
L 69.622449 168.708581 
L 74.030612 166.314177 
L 78.438776 180.918218 
L 82.846939 187.493908 
L 87.255102 190.621935 
L 91.663265 198.798017 
L 96.071429 199.520036 
L 100.479592 199.093797 
L 104.887755 202.933421 
L 109.295918 207.512051 
L 113.704082 205.066029 
L 118.112245 207.253612 
L 122.520408 208.423824 
L 126.928571 208.261353 
L 131.336735 212.707997 
L 135.744898 214.711327 
L 140.153061 215.074156 
L 144.561224 215.04892 
L 148.969388 215.019801 
L 153.377551 214.997834 
L 157.785714 214.979884 
L 162.193878 214.966619 
L 166.602041 214.958768 
L 171.010204 214.959684 
L 175.418367 214.960648 
L 179.826531 214.961641 
L 184.234694 214.96264 
L 188.642857 214.963625 
L 193.05102 214.964571 
L 197.459184 214.96545 
L 201.867347 214.966234 
L 206.27551 214.966885 
L 210.683673 214.967365 
L 215.091837 214.967625 
L 219.5 214.967609 
" style="fill:none;opacity:0.5;stroke:#bddf26;stroke-linecap:square;stroke-width:0.3;"/>
   </g>
   <g id="line2d_38">
    <path clip-path="url(#p9a6a7be07d)" d="M 3.5 158.543265 
L 7.908163 165.488873 
L 12.316327 173.679902 
L 16.72449 178.445096 
L 21.132653 176.408403 
L 25.540816 180.19754 
L 29.94898 187.349799 
L 34.357143 188.465169 
L 38.765306 194.630548 
L 43.173469 197.408672 
L 47.581633 195.767028 
L 51.989796 196.461447 
L 56.397959 202.602081 
L 60.806122 205.135701 
L 65.214286 209.946071 
L 69.622449 210.543997 
L 74.030612 212.884513 
L 78.438776 212.859471 
L 82.846939 215.223255 
L 87.255102 215.202687 
L 91.663265 215.163293 
L 96.071429 215.125105 
L 100.479592 215.082409 
L 104.887755 215.04293 
L 109.295918 215.029217 
L 113.704082 215.025963 
L 118.112245 215.02661 
L 122.520408 215.027433 
L 126.928571 215.028407 
L 131.336735 215.029509 
L 135.744898 215.030723 
L 140.153061 215.032031 
L 144.561224 215.033421 
L 148.969388 215.034879 
L 153.377551 215.036396 
L 157.785714 215.03796 
L 162.193878 215.039562 
L 166.602041 215.041191 
L 171.010204 215.042839 
L 175.418367 215.044493 
L 179.826531 215.046142 
L 184.234694 215.047773 
L 188.642857 215.04937 
L 193.05102 215.050916 
L 197.459184 215.052389 
L 201.867347 215.053765 
L 206.27551 215.055012 
L 210.683673 215.056096 
L 215.091837 215.056973 
L 219.5 215.057591 
" style="fill:none;opacity:0.5;stroke:#bddf26;stroke-linecap:square;stroke-width:0.3;"/>
   </g>
   <g id="line2d_39">
    <path clip-path="url(#p9a6a7be07d)" d="M 3.5 220.446725 
L 7.908163 220.393559 
L 12.316327 218.317605 
L 16.72449 218.317619 
L 21.132653 218.317629 
L 25.540816 218.381017 
L 29.94898 219.107698 
L 34.357143 216.7618 
L 38.765306 212.105057 
L 43.173469 197.93292 
L 47.581633 188.149304 
L 51.989796 186.839889 
L 56.397959 172.656101 
L 60.806122 165.688905 
L 65.214286 158.708563 
L 69.622449 141.915908 
L 74.030612 149.408095 
L 78.438776 150.504394 
L 82.846939 156.839482 
L 87.255102 170.914899 
L 91.663265 175.64919 
L 96.071429 176.941338 
L 100.479592 177.264327 
L 104.887755 182.539657 
L 109.295918 179.509405 
L 113.704082 188.029497 
L 118.112245 193.362637 
L 122.520408 192.718925 
L 126.928571 200.424037 
L 131.336735 203.333592 
L 135.744898 205.586264 
L 140.153061 215.752856 
L 144.561224 216.087725 
L 148.969388 216.056779 
L 153.377551 215.968809 
L 157.785714 215.878334 
L 162.193878 215.797037 
L 166.602041 215.720553 
L 171.010204 215.654125 
L 175.418367 215.603858 
L 179.826531 215.569319 
L 184.234694 215.540782 
L 188.642857 215.527494 
L 193.05102 215.52795 
L 197.459184 215.528396 
L 201.867347 215.528797 
L 206.27551 215.529116 
L 210.683673 215.529311 
L 215.091837 215.529335 
L 219.5 215.529134 
" style="fill:none;opacity:0.5;stroke:#bddf26;stroke-linecap:square;stroke-width:0.3;"/>
   </g>
   <g id="line2d_40">
    <path clip-path="url(#p9a6a7be07d)" d="M 3.5 200.785975 
L 7.908163 188.068802 
L 12.316327 178.064608 
L 16.72449 171.818712 
L 21.132653 172.179299 
L 25.540816 170.735397 
L 29.94898 165.794288 
L 34.357143 161.779135 
L 38.765306 152.386835 
L 43.173469 156.843981 
L 47.581633 161.906027 
L 51.989796 160.638986 
L 56.397959 167.541801 
L 60.806122 168.202039 
L 65.214286 166.444957 
L 69.622449 173.149759 
L 74.030612 177.520875 
L 78.438776 182.736706 
L 82.846939 196.317573 
L 87.255102 205.708209 
L 91.663265 212.19174 
L 96.071429 212.264153 
L 100.479592 213.592145 
L 104.887755 213.528987 
L 109.295918 213.457091 
L 113.704082 213.352573 
L 118.112245 215.679476 
L 122.520408 215.662757 
L 126.928571 215.648111 
L 131.336735 215.63348 
L 135.744898 215.618452 
L 140.153061 215.597836 
L 144.561224 215.58229 
L 148.969388 215.583191 
L 153.377551 215.584165 
L 157.785714 215.585199 
L 162.193878 215.58628 
L 166.602041 215.587396 
L 171.010204 215.588536 
L 175.418367 215.589687 
L 179.826531 215.590837 
L 184.234694 215.59197 
L 188.642857 215.593072 
L 193.05102 215.594124 
L 197.459184 215.595107 
L 201.867347 215.595994 
L 206.27551 215.596759 
L 210.683673 215.597367 
L 215.091837 215.597776 
L 219.5 215.597939 
" style="fill:none;opacity:0.5;stroke:#bddf26;stroke-linecap:square;stroke-width:0.3;"/>
   </g>
   <g id="line2d_41">
    <path clip-path="url(#p9a6a7be07d)" d="M 13.01346 224 
L 16.72449 220.277525 
L 21.132653 215.790566 
L 25.540816 199.520462 
L 29.94898 192.135086 
L 34.357143 179.777362 
L 38.765306 161.980988 
L 43.173469 162.809209 
L 47.581633 154.831767 
L 51.989796 149.112177 
L 56.397959 150.405857 
L 60.806122 148.862094 
L 65.214286 152.327682 
L 69.622449 165.107208 
L 74.030612 173.292871 
L 78.438776 178.345543 
L 82.846939 181.1403 
L 87.255102 180.084487 
L 91.663265 187.387177 
L 96.071429 196.351017 
L 100.479592 204.128958 
L 104.887755 207.692481 
L 109.295918 210.051492 
L 113.704082 208.960895 
L 118.112245 211.265411 
L 122.520408 213.597886 
L 126.928571 213.856009 
L 131.336735 215.895256 
L 135.744898 215.850119 
L 140.153061 215.818588 
L 144.561224 215.787342 
L 148.969388 215.751003 
L 153.377551 215.714461 
L 157.785714 215.68925 
L 162.193878 215.676787 
L 166.602041 215.677301 
L 171.010204 215.678095 
L 175.418367 215.678941 
L 179.826531 215.67982 
L 184.234694 215.680712 
L 188.642857 215.681595 
L 193.05102 215.682447 
L 197.459184 215.683244 
L 201.867347 215.683957 
L 206.27551 215.684556 
L 210.683673 215.685003 
L 215.091837 215.685256 
L 219.5 215.685262 
" style="fill:none;opacity:0.5;stroke:#bddf26;stroke-linecap:square;stroke-width:0.3;"/>
   </g>
   <g id="line2d_42">
    <path clip-path="url(#p9a6a7be07d)" d="M 3.5 208.635496 
L 7.908163 201.000285 
L 12.316327 192.754525 
L 16.72449 177.758482 
L 21.132653 164.935522 
L 25.540816 153.932588 
L 29.94898 144.335866 
L 34.357143 140.262466 
L 38.765306 148.530916 
L 43.173469 159.256189 
L 47.581633 161.556255 
L 51.989796 172.869119 
L 56.397959 176.477798 
L 60.806122 179.997361 
L 65.214286 189.374502 
L 69.622449 187.108151 
L 74.030612 183.127645 
L 78.438776 186.996155 
L 82.846939 191.218973 
L 87.255102 197.03132 
L 91.663265 201.947015 
L 96.071429 202.72594 
L 100.479592 204.810648 
L 104.887755 209.680693 
L 109.295918 213.0232 
L 113.704082 212.970657 
L 118.112245 212.909626 
L 122.520408 215.255528 
L 126.928571 215.226081 
L 131.336735 215.189293 
L 135.744898 215.151315 
L 140.153061 215.112831 
L 144.561224 215.081965 
L 148.969388 215.057281 
L 153.377551 215.038285 
L 157.785714 215.033062 
L 162.193878 215.034083 
L 166.602041 215.035176 
L 171.010204 215.036323 
L 175.418367 215.037507 
L 179.826531 215.038709 
L 184.234694 215.039911 
L 188.642857 215.041093 
L 193.05102 215.042234 
L 197.459184 215.043308 
L 201.867347 215.044287 
L 206.27551 215.045139 
L 210.683673 215.045825 
L 215.091837 215.0463 
L 219.5 215.04651 
" style="fill:none;opacity:0.5;stroke:#bddf26;stroke-linecap:square;stroke-width:0.3;"/>
   </g>
   <g id="line2d_43">
    <path clip-path="url(#p9a6a7be07d)" d="M 3.5 215.087254 
L 7.908163 215.071876 
L 12.316327 215.070968 
L 16.72449 216.625596 
L 21.132653 216.625595 
L 25.540816 216.625594 
L 29.94898 208.443397 
L 34.357143 204.013594 
L 38.765306 199.651088 
L 43.173469 189.553061 
L 47.581633 177.261069 
L 51.989796 166.074858 
L 56.397959 159.992268 
L 60.806122 154.065393 
L 65.214286 155.561755 
L 69.622449 157.123284 
L 74.030612 153.486956 
L 78.438776 161.489197 
L 82.846939 168.280852 
L 87.255102 170.400658 
L 91.663265 176.154012 
L 96.071429 177.153673 
L 100.479592 175.684137 
L 104.887755 182.977246 
L 109.295918 188.676957 
L 113.704082 191.178888 
L 118.112245 198.59088 
L 122.520408 198.139506 
L 126.928571 203.062262 
L 131.336735 207.201804 
L 135.744898 207.986654 
L 140.153061 213.994068 
L 144.561224 214.176005 
L 148.969388 214.131373 
L 153.377551 213.071163 
L 157.785714 213.011365 
L 162.193878 212.955847 
L 166.602041 215.307968 
L 171.010204 215.327763 
L 175.418367 215.335823 
L 179.826531 215.344713 
L 184.234694 215.352877 
L 188.642857 215.355234 
L 193.05102 215.356105 
L 197.459184 215.356938 
L 201.867347 215.357702 
L 206.27551 215.35836 
L 210.683673 215.358869 
L 215.091837 215.359183 
L 219.5 215.359245 
" style="fill:none;opacity:0.5;stroke:#bddf26;stroke-linecap:square;stroke-width:0.3;"/>
   </g>
   <g id="line2d_44">
    <path clip-path="url(#p9a6a7be07d)" d="M 3.5 152.636077 
L 7.908163 150.285754 
L 12.316327 156.118409 
L 16.72449 155.325546 
L 21.132653 160.744702 
L 25.540816 169.009604 
L 29.94898 169.258098 
L 34.357143 176.029487 
L 38.765306 177.456201 
L 43.173469 181.530582 
L 47.581633 189.065623 
L 51.989796 190.15654 
L 56.397959 190.443544 
L 60.806122 195.47981 
L 65.214286 199.574024 
L 69.622449 204.160791 
L 74.030612 210.893099 
L 78.438776 213.273217 
L 82.846939 215.606153 
L 87.255102 215.581917 
L 91.663265 215.508203 
L 96.071429 215.420699 
L 100.479592 215.329483 
L 104.887755 215.268551 
L 109.295918 215.236456 
L 113.704082 215.219267 
L 118.112245 215.212428 
L 122.520408 215.205431 
L 126.928571 215.203593 
L 131.336735 215.204527 
L 135.744898 215.205567 
L 140.153061 215.206697 
L 144.561224 215.207905 
L 148.969388 215.209179 
L 153.377551 215.210508 
L 157.785714 215.211882 
L 162.193878 215.213292 
L 166.602041 215.21473 
L 171.010204 215.216185 
L 175.418367 215.217647 
L 179.826531 215.219106 
L 184.234694 215.22055 
L 188.642857 215.221965 
L 193.05102 215.223335 
L 197.459184 215.224641 
L 201.867347 215.22586 
L 206.27551 215.226966 
L 210.683673 215.227927 
L 215.091837 215.228704 
L 219.5 215.229251 
" style="fill:none;opacity:0.5;stroke:#bddf26;stroke-linecap:square;stroke-width:0.3;"/>
   </g>
   <g id="line2d_45">
    <path clip-path="url(#p9a6a7be07d)" d="M 3.5 197.32957 
L 7.908163 185.689704 
L 12.316327 165.641272 
L 16.72449 150.510171 
L 21.132653 145.370833 
L 25.540816 142.03591 
L 29.94898 143.155367 
L 34.357143 152.317908 
L 38.765306 156.535937 
L 43.173469 164.724735 
L 47.581633 175.145227 
L 51.989796 180.271674 
L 56.397959 184.805345 
L 60.806122 187.607488 
L 65.214286 189.18821 
L 69.622449 194.425186 
L 74.030612 195.581064 
L 78.438776 200.049398 
L 82.846939 201.409472 
L 87.255102 203.795646 
L 91.663265 207.031851 
L 96.071429 209.291856 
L 100.479592 211.633537 
L 104.887755 210.550361 
L 109.295918 212.89174 
L 113.704082 212.836854 
L 118.112245 213.293321 
L 122.520408 215.107361 
L 126.928571 215.070394 
L 131.336735 215.019163 
L 135.744898 214.967225 
L 140.153061 214.933099 
L 144.561224 214.916155 
L 148.969388 214.910005 
L 153.377551 214.909528 
L 157.785714 214.910562 
L 162.193878 214.91169 
L 166.602041 214.912891 
L 171.010204 214.914147 
L 175.418367 214.915441 
L 179.826531 214.916756 
L 184.234694 214.918072 
L 188.642857 214.91937 
L 193.05102 214.920629 
L 197.459184 214.921824 
L 201.867347 214.922927 
L 206.27551 214.923906 
L 210.683673 214.924723 
L 215.091837 214.925332 
L 219.5 214.92568 
" style="fill:none;opacity:0.5;stroke:#bddf26;stroke-linecap:square;stroke-width:0.3;"/>
   </g>
   <g id="line2d_46">
    <path clip-path="url(#p9a6a7be07d)" d="M 3.5 199.091351 
L 7.908163 194.099291 
L 12.316327 177.995786 
L 16.72449 161.171052 
L 21.132653 150.444755 
L 25.540816 139.299162 
L 29.94898 145.748036 
L 34.357143 159.760903 
L 38.765306 171.302337 
L 43.173469 175.307965 
L 47.581633 177.524329 
L 51.989796 175.468242 
L 56.397959 181.552328 
L 60.806122 181.719959 
L 65.214286 180.262118 
L 69.622449 191.23766 
L 74.030612 186.842555 
L 78.438776 188.08418 
L 82.846939 187.891224 
L 87.255102 188.486098 
L 91.663265 195.891409 
L 96.071429 197.649352 
L 100.479592 209.86089 
L 104.887755 212.639945 
L 109.295918 212.544756 
L 113.704082 214.819043 
L 118.112245 214.69334 
L 122.520408 214.569571 
L 126.928571 214.485607 
L 131.336735 214.413162 
L 135.744898 214.364186 
L 140.153061 214.341933 
L 144.561224 214.334534 
L 148.969388 214.335364 
L 153.377551 214.336356 
L 157.785714 214.337482 
L 162.193878 214.338718 
L 166.602041 214.34004 
L 171.010204 214.341428 
L 175.418367 214.34286 
L 179.826531 214.344317 
L 184.234694 214.345776 
L 188.642857 214.347215 
L 193.05102 214.348609 
L 197.459184 214.349929 
L 201.867347 214.351144 
L 206.27551 214.352217 
L 210.683673 214.353104 
L 215.091837 214.353754 
L 219.5 214.354103 
" style="fill:none;opacity:0.5;stroke:#bddf26;stroke-linecap:square;stroke-width:0.3;"/>
   </g>
   <g id="line2d_47">
    <path clip-path="url(#p9a6a7be07d)" d="M 3.5 217.838383 
L 7.908163 217.838454 
L 12.316327 217.838506 
L 16.72449 217.838544 
L 21.132653 215.513267 
L 25.540816 210.936684 
L 29.94898 205.072286 
L 34.357143 197.002143 
L 38.765306 185.464575 
L 43.173469 173.095236 
L 47.581633 169.326459 
L 51.989796 167.087697 
L 56.397959 162.566547 
L 60.806122 165.174276 
L 65.214286 156.040317 
L 69.622449 152.253332 
L 74.030612 149.001632 
L 78.438776 147.207537 
L 82.846939 156.753267 
L 87.255102 171.374986 
L 91.663265 176.999685 
L 96.071429 189.818349 
L 100.479592 193.893929 
L 104.887755 195.27218 
L 109.295918 195.519043 
L 113.704082 198.181711 
L 118.112245 200.295685 
L 122.520408 205.333392 
L 126.928571 205.572915 
L 131.336735 209.786964 
L 135.744898 212.488138 
L 140.153061 214.886007 
L 144.561224 214.858021 
L 148.969388 214.789358 
L 153.377551 214.717372 
L 157.785714 214.671101 
L 162.193878 214.637196 
L 166.602041 214.611815 
L 171.010204 214.593611 
L 175.418367 214.579921 
L 179.826531 214.571826 
L 184.234694 214.572668 
L 188.642857 214.573513 
L 193.05102 214.574333 
L 197.459184 214.575097 
L 201.867347 214.575769 
L 206.27551 214.57631 
L 210.683673 214.576676 
L 215.091837 214.576814 
L 219.5 214.576662 
" style="fill:none;opacity:0.5;stroke:#bddf26;stroke-linecap:square;stroke-width:0.3;"/>
   </g>
   <g id="line2d_48">
    <path clip-path="url(#p9a6a7be07d)" d="M 3.5 178.009952 
L 7.908163 161.314866 
L 12.316327 152.5069 
L 16.72449 143.052028 
L 21.132653 143.963078 
L 25.540816 147.60877 
L 29.94898 155.510945 
L 34.357143 161.497483 
L 38.765306 168.573815 
L 43.173469 177.290618 
L 47.581633 179.5758 
L 51.989796 184.6316 
L 56.397959 184.733631 
L 60.806122 188.521943 
L 65.214286 191.781893 
L 69.622449 196.596722 
L 74.030612 203.806814 
L 78.438776 202.775494 
L 82.846939 204.426013 
L 87.255102 206.706289 
L 91.663265 211.359295 
L 96.071429 214.49994 
L 100.479592 215.947171 
L 104.887755 215.940429 
L 109.295918 215.911791 
L 113.704082 215.873785 
L 118.112245 215.849488 
L 122.520408 215.83423 
L 126.928571 215.832015 
L 131.336735 215.830065 
L 135.744898 215.830848 
L 140.153061 215.831724 
L 144.561224 215.832679 
L 148.969388 215.833701 
L 153.377551 215.834778 
L 157.785714 215.8359 
L 162.193878 215.837057 
L 166.602041 215.838238 
L 171.010204 215.839435 
L 175.418367 215.840637 
L 179.826531 215.841833 
L 184.234694 215.84301 
L 188.642857 215.844155 
L 193.05102 215.84525 
L 197.459184 215.846278 
L 201.867347 215.847215 
L 206.27551 215.848035 
L 210.683673 215.848706 
L 215.091837 215.849189 
L 219.5 215.849439 
" style="fill:none;opacity:0.5;stroke:#bddf26;stroke-linecap:square;stroke-width:0.3;"/>
   </g>
   <g id="line2d_49">
    <path clip-path="url(#p9a6a7be07d)" d="M 3.5 213.06455 
L 7.908163 204.749959 
L 12.316327 189.306585 
L 16.72449 169.551044 
L 21.132653 162.029636 
L 25.540816 159.422165 
L 29.94898 151.861164 
L 34.357143 156.036319 
L 38.765306 154.011113 
L 43.173469 157.136436 
L 47.581633 167.220741 
L 51.989796 172.221464 
L 56.397959 172.816194 
L 60.806122 174.846592 
L 65.214286 172.443056 
L 69.622449 180.9714 
L 74.030612 183.19998 
L 78.438776 190.989214 
L 82.846939 196.7039 
L 87.255102 198.539072 
L 91.663265 200.900283 
L 96.071429 203.342891 
L 100.479592 204.622264 
L 104.887755 206.461259 
L 109.295918 210.410931 
L 113.704082 210.422903 
L 118.112245 212.941092 
L 122.520408 215.239101 
L 126.928571 215.253178 
L 131.336735 215.245986 
L 135.744898 215.225881 
L 140.153061 215.210654 
L 144.561224 215.195379 
L 148.969388 215.182887 
L 153.377551 215.176063 
L 157.785714 215.170721 
L 162.193878 215.171956 
L 166.602041 215.173226 
L 171.010204 215.17452 
L 175.418367 215.175823 
L 179.826531 215.177122 
L 184.234694 215.178401 
L 188.642857 215.179644 
L 193.05102 215.180829 
L 197.459184 215.181934 
L 201.867347 215.182931 
L 206.27551 215.183788 
L 210.683673 215.184467 
L 215.091837 215.184922 
L 219.5 215.185098 
" style="fill:none;opacity:0.5;stroke:#bddf26;stroke-linecap:square;stroke-width:0.3;"/>
   </g>
   <g id="line2d_50">
    <path clip-path="url(#p9a6a7be07d)" d="M 3.5 185.043262 
L 7.908163 165.041672 
L 12.316327 157.099636 
L 16.72449 151.989819 
L 21.132653 152.905099 
L 25.540816 167.682002 
L 29.94898 176.037047 
L 34.357143 185.280167 
L 38.765306 188.240064 
L 43.173469 182.339625 
L 47.581633 173.78169 
L 51.989796 165.220944 
L 56.397959 163.358917 
L 60.806122 160.881008 
L 65.214286 166.323699 
L 69.622449 175.557845 
L 74.030612 179.55479 
L 78.438776 190.034563 
L 82.846939 192.319601 
L 87.255102 195.100763 
L 91.663265 201.732737 
L 96.071429 210.88258 
L 100.479592 213.326082 
L 104.887755 213.330144 
L 109.295918 213.318946 
L 113.704082 215.576735 
L 118.112245 215.515336 
L 122.520408 215.439755 
L 126.928571 215.362053 
L 131.336735 215.307654 
L 135.744898 215.269857 
L 140.153061 215.252189 
L 144.561224 215.252863 
L 148.969388 215.253656 
L 153.377551 215.254549 
L 157.785714 215.255525 
L 162.193878 215.256567 
L 166.602041 215.257661 
L 171.010204 215.258793 
L 175.418367 215.259948 
L 179.826531 215.261111 
L 184.234694 215.262267 
L 188.642857 215.263399 
L 193.05102 215.264488 
L 197.459184 215.265511 
L 201.867347 215.266446 
L 206.27551 215.267261 
L 210.683673 215.267922 
L 215.091837 215.268389 
L 219.5 215.268612 
" style="fill:none;opacity:0.5;stroke:#bddf26;stroke-linecap:square;stroke-width:0.3;"/>
   </g>
   <g id="line2d_51">
    <path clip-path="url(#p9a6a7be07d)" d="M 3.5 222.364252 
L 7.908163 222.364252 
L 12.316327 220.031614 
L 16.72449 210.474805 
L 21.132653 194.840856 
L 25.540816 184.558203 
L 29.94898 177.320996 
L 34.357143 162.799282 
L 38.765306 156.447521 
L 43.173469 153.847372 
L 47.581633 153.467299 
L 51.989796 160.786264 
L 56.397959 172.394097 
L 60.806122 167.893938 
L 65.214286 169.962774 
L 69.622449 162.975441 
L 74.030612 162.558436 
L 78.438776 167.411779 
L 82.846939 172.630898 
L 87.255102 189.117651 
L 91.663265 194.734435 
L 96.071429 202.854178 
L 100.479592 206.610197 
L 104.887755 208.950975 
L 109.295918 213.629184 
L 113.704082 215.764798 
L 118.112245 215.816931 
L 122.520408 215.736253 
L 126.928571 215.647126 
L 131.336735 215.544369 
L 135.744898 215.440451 
L 140.153061 215.357126 
L 144.561224 215.307239 
L 148.969388 215.29455 
L 153.377551 215.287003 
L 157.785714 215.287108 
L 162.193878 215.288002 
L 166.602041 215.288963 
L 171.010204 215.289971 
L 175.418367 215.291011 
L 179.826531 215.292065 
L 184.234694 215.293116 
L 188.642857 215.294145 
L 193.05102 215.29513 
L 197.459184 215.296048 
L 201.867347 215.296872 
L 206.27551 215.29757 
L 210.683673 215.298105 
L 215.091837 215.298433 
L 219.5 215.298501 
" style="fill:none;opacity:0.5;stroke:#bddf26;stroke-linecap:square;stroke-width:0.3;"/>
   </g>
   <g id="line2d_52">
    <path clip-path="url(#p9a6a7be07d)" d="M 9.228297 224 
L 12.316327 222.364252 
L 16.72449 209.867909 
L 21.132653 191.254806 
L 25.540816 174.900509 
L 29.94898 163.776435 
L 34.357143 148.1664 
L 38.765306 142.732637 
L 43.173469 144.412369 
L 47.581633 144.62639 
L 51.989796 160.957066 
L 56.397959 169.404769 
L 60.806122 175.147048 
L 65.214286 178.108413 
L 69.622449 179.06527 
L 74.030612 185.517019 
L 78.438776 187.591494 
L 82.846939 192.965448 
L 87.255102 193.700667 
L 91.663265 194.859799 
L 96.071429 196.046518 
L 100.479592 198.828992 
L 104.887755 200.172773 
L 109.295918 210.48434 
L 113.704082 213.088768 
L 118.112245 213.187985 
L 122.520408 215.578914 
L 126.928571 215.569242 
L 131.336735 215.531041 
L 135.744898 215.475115 
L 140.153061 215.410247 
L 144.561224 215.351755 
L 148.969388 215.304232 
L 153.377551 215.271333 
L 157.785714 215.245836 
L 162.193878 215.232347 
L 166.602041 215.221803 
L 171.010204 215.210777 
L 175.418367 215.205782 
L 179.826531 215.206784 
L 184.234694 215.207801 
L 188.642857 215.20881 
L 193.05102 215.209788 
L 197.459184 215.210708 
L 201.867347 215.211542 
L 206.27551 215.212256 
L 210.683673 215.212812 
L 215.091837 215.213162 
L 219.5 215.213255 
" style="fill:none;opacity:0.5;stroke:#bddf26;stroke-linecap:square;stroke-width:0.3;"/>
   </g>
   <g id="line2d_53">
    <path clip-path="url(#p9a6a7be07d)" d="M 3.5 189.195876 
L 7.908163 174.476254 
L 12.316327 165.994576 
L 16.72449 161.014555 
L 21.132653 168.229177 
L 25.540816 167.690345 
L 29.94898 163.72797 
L 34.357143 166.318664 
L 38.765306 160.939499 
L 43.173469 161.448365 
L 47.581633 172.73203 
L 51.989796 172.59293 
L 56.397959 172.965709 
L 60.806122 173.338759 
L 65.214286 167.443149 
L 69.622449 169.650414 
L 74.030612 174.247269 
L 78.438776 189.871835 
L 82.846939 194.514419 
L 87.255102 200.269471 
L 91.663265 212.610251 
L 96.071429 215.785287 
L 100.479592 215.754428 
L 104.887755 215.643428 
L 109.295918 215.512314 
L 113.704082 215.390453 
L 118.112245 215.294 
L 122.520408 215.217773 
L 126.928571 215.147923 
L 131.336735 215.081679 
L 135.744898 215.034536 
L 140.153061 215.000806 
L 144.561224 214.976717 
L 148.969388 214.963646 
L 153.377551 214.964527 
L 157.785714 214.965518 
L 162.193878 214.966599 
L 166.602041 214.967752 
L 171.010204 214.968958 
L 175.418367 214.970201 
L 179.826531 214.971462 
L 184.234694 214.972725 
L 188.642857 214.97397 
L 193.05102 214.975175 
L 197.459184 214.976317 
L 201.867347 214.977368 
L 206.27551 214.978297 
L 210.683673 214.979067 
L 215.091837 214.979632 
L 219.5 214.979941 
" style="fill:none;opacity:0.5;stroke:#bddf26;stroke-linecap:square;stroke-width:0.3;"/>
   </g>
   <g id="line2d_54">
    <path clip-path="url(#p9a6a7be07d)" d="M 9.228297 224 
L 12.316327 222.364252 
L 16.72449 220.031614 
L 21.132653 209.715063 
L 25.540816 197.232958 
L 29.94898 180.762669 
L 34.357143 159.432825 
L 38.765306 144.33226 
L 43.173469 129.900325 
L 47.581633 135.843309 
L 51.989796 142.221061 
L 56.397959 158.814566 
L 60.806122 171.684137 
L 65.214286 176.159012 
L 69.622449 183.479747 
L 74.030612 189.623352 
L 78.438776 193.91472 
L 82.846939 200.628844 
L 87.255102 203.605593 
L 91.663265 207.14613 
L 96.071429 207.002176 
L 100.479592 205.489411 
L 104.887755 207.758815 
L 109.295918 212.397277 
L 113.704082 213.999249 
L 118.112245 214.663177 
L 122.520408 214.545383 
L 126.928571 213.412296 
L 131.336735 213.299546 
L 135.744898 213.192909 
L 140.153061 213.194885 
L 144.561224 215.418915 
L 148.969388 215.366741 
L 153.377551 215.306255 
L 157.785714 215.269082 
L 162.193878 215.238104 
L 166.602041 215.215737 
L 171.010204 215.200185 
L 175.418367 215.19117 
L 179.826531 215.191967 
L 184.234694 215.192795 
L 188.642857 215.19363 
L 193.05102 215.194446 
L 197.459184 215.195216 
L 201.867347 215.195911 
L 206.27551 215.196497 
L 210.683673 215.196934 
L 215.091837 215.197179 
L 219.5 215.197177 
" style="fill:none;opacity:0.5;stroke:#bddf26;stroke-linecap:square;stroke-width:0.3;"/>
   </g>
   <g id="line2d_55">
    <path clip-path="url(#p9a6a7be07d)" d="M 4.175576 224 
L 7.908163 220.136429 
L 12.316327 217.75679 
L 16.72449 210.256704 
L 21.132653 193.754261 
L 25.540816 178.781539 
L 29.94898 159.519044 
L 34.357143 141.393209 
L 38.765306 136.297879 
L 43.173469 133.842287 
L 47.581633 145.661766 
L 51.989796 156.042982 
L 56.397959 169.655003 
L 60.806122 181.693501 
L 65.214286 183.830979 
L 69.622449 188.256445 
L 74.030612 186.920297 
L 78.438776 187.504592 
L 82.846939 189.996202 
L 87.255102 195.220718 
L 91.663265 196.894405 
L 96.071429 198.988234 
L 100.479592 207.564516 
L 104.887755 208.998914 
L 109.295918 213.70934 
L 113.704082 213.663379 
L 118.112245 213.559457 
L 122.520408 215.841017 
L 126.928571 215.772604 
L 131.336735 215.706921 
L 135.744898 215.652937 
L 140.153061 215.604194 
L 144.561224 215.567145 
L 148.969388 215.537786 
L 153.377551 215.507328 
L 157.785714 215.475656 
L 162.193878 215.442661 
L 166.602041 215.413565 
L 171.010204 215.396549 
L 175.418367 215.394906 
L 179.826531 215.395823 
L 184.234694 215.396757 
L 188.642857 215.397689 
L 193.05102 215.398597 
L 197.459184 215.399457 
L 201.867347 215.400242 
L 206.27551 215.400921 
L 210.683673 215.40146 
L 215.091837 215.401816 
L 219.5 215.401941 
" style="fill:none;opacity:0.5;stroke:#bddf26;stroke-linecap:square;stroke-width:0.3;"/>
   </g>
   <g id="line2d_56">
    <path clip-path="url(#p9a6a7be07d)" d="M 8.29467 224 
L 12.316327 216.723857 
L 16.72449 210.407329 
L 21.132653 200.681053 
L 25.540816 188.668369 
L 29.94898 174.974119 
L 34.357143 157.608111 
L 38.765306 155.178853 
L 43.173469 155.205844 
L 47.581633 159.893272 
L 51.989796 174.26188 
L 56.397959 170.766237 
L 60.806122 166.430677 
L 65.214286 164.335116 
L 69.622449 167.676347 
L 74.030612 168.149464 
L 78.438776 172.329715 
L 82.846939 176.976008 
L 87.255102 182.913632 
L 91.663265 186.145459 
L 96.071429 189.895042 
L 100.479592 192.386799 
L 104.887755 193.776901 
L 109.295918 197.152921 
L 113.704082 203.608561 
L 118.112245 207.776647 
L 122.520408 210.66999 
L 126.928571 213.19602 
L 131.336735 215.377507 
L 135.744898 215.324313 
L 140.153061 215.272936 
L 144.561224 215.247499 
L 148.969388 215.207144 
L 153.377551 215.172826 
L 157.785714 215.146787 
L 162.193878 215.126785 
L 166.602041 215.116052 
L 171.010204 215.114786 
L 175.418367 215.11564 
L 179.826531 215.116542 
L 184.234694 215.117471 
L 188.642857 215.118405 
L 193.05102 215.119318 
L 197.459184 215.120187 
L 201.867347 215.120982 
L 206.27551 215.121671 
L 210.683673 215.122218 
L 215.091837 215.122577 
L 219.5 215.1227 
" style="fill:none;opacity:0.5;stroke:#bddf26;stroke-linecap:square;stroke-width:0.3;"/>
   </g>
   <g id="line2d_57">
    <path clip-path="url(#p9a6a7be07d)" d="M 9.228297 224 
L 12.316327 222.364252 
L 16.72449 222.364252 
L 21.132653 216.595223 
L 25.540816 208.116851 
L 29.94898 198.159285 
L 34.357143 184.23339 
L 38.765306 166.678782 
L 43.173469 154.501954 
L 47.581633 147.976094 
L 51.989796 150.608465 
L 56.397959 159.146653 
L 60.806122 164.791982 
L 65.214286 167.731727 
L 69.622449 160.458978 
L 74.030612 161.132242 
L 78.438776 164.527856 
L 82.846939 172.327251 
L 87.255102 179.3099 
L 91.663265 182.853617 
L 96.071429 186.238633 
L 100.479592 186.248518 
L 104.887755 196.615874 
L 109.295918 205.111028 
L 113.704082 207.342321 
L 118.112245 213.569051 
L 122.520408 213.528616 
L 126.928571 214.066374 
L 131.336735 215.765141 
L 135.744898 215.65177 
L 140.153061 215.570633 
L 144.561224 215.506087 
L 148.969388 215.456235 
L 153.377551 215.415748 
L 157.785714 215.391741 
L 162.193878 215.37775 
L 166.602041 215.36969 
L 171.010204 215.369058 
L 175.418367 215.369948 
L 179.826531 215.37088 
L 184.234694 215.371833 
L 188.642857 215.372786 
L 193.05102 215.373712 
L 197.459184 215.374588 
L 201.867347 215.375382 
L 206.27551 215.376063 
L 210.683673 215.376592 
L 215.091837 215.376923 
L 219.5 215.377004 
" style="fill:none;opacity:0.5;stroke:#bddf26;stroke-linecap:square;stroke-width:0.3;"/>
   </g>
   <g id="line2d_58">
    <path clip-path="url(#p9a6a7be07d)" d="M 3.5 208.30722 
L 7.908163 194.389306 
L 12.316327 183.562113 
L 16.72449 167.3305 
L 21.132653 157.425715 
L 25.540816 156.392642 
L 29.94898 154.502181 
L 34.357143 156.457913 
L 38.765306 160.906246 
L 43.173469 159.212322 
L 47.581633 169.633341 
L 51.989796 173.305149 
L 56.397959 176.470141 
L 60.806122 173.836807 
L 65.214286 166.969604 
L 69.622449 174.45741 
L 74.030612 178.884945 
L 78.438776 187.20582 
L 82.846939 194.248302 
L 87.255102 199.203728 
L 91.663265 203.317102 
L 96.071429 206.438533 
L 100.479592 208.679071 
L 104.887755 208.705566 
L 109.295918 213.1967 
L 113.704082 215.525096 
L 118.112245 215.449068 
L 122.520408 215.377654 
L 126.928571 215.30095 
L 131.336735 215.226717 
L 135.744898 215.176857 
L 140.153061 215.145353 
L 144.561224 215.12944 
L 148.969388 215.129052 
L 153.377551 215.12995 
L 157.785714 215.130951 
L 162.193878 215.132037 
L 166.602041 215.133189 
L 171.010204 215.134391 
L 175.418367 215.135626 
L 179.826531 215.136879 
L 184.234694 215.138131 
L 188.642857 215.139365 
L 193.05102 215.14056 
L 197.459184 215.141692 
L 201.867347 215.142736 
L 206.27551 215.14366 
L 210.683673 215.144429 
L 215.091837 215.144999 
L 219.5 215.145319 
" style="fill:none;opacity:0.5;stroke:#bddf26;stroke-linecap:square;stroke-width:0.3;"/>
   </g>
   <g id="line2d_59">
    <path clip-path="url(#p9a6a7be07d)" d="M 3.5 217.786564 
L 7.908163 205.938761 
L 12.316327 197.778505 
L 16.72449 185.587086 
L 21.132653 167.937702 
L 25.540816 158.926249 
L 29.94898 143.842042 
L 34.357143 140.650881 
L 38.765306 144.762622 
L 43.173469 154.499414 
L 47.581633 163.326201 
L 51.989796 178.974868 
L 56.397959 178.548361 
L 60.806122 181.35706 
L 65.214286 185.580482 
L 69.622449 180.951764 
L 74.030612 185.806583 
L 78.438776 186.644475 
L 82.846939 185.678953 
L 87.255102 187.12524 
L 91.663265 193.244688 
L 96.071429 200.66482 
L 100.479592 201.963165 
L 104.887755 210.663726 
L 109.295918 213.053511 
L 113.704082 213.023882 
L 118.112245 215.35188 
L 122.520408 215.293491 
L 126.928571 215.239777 
L 131.336735 215.191448 
L 135.744898 215.13178 
L 140.153061 215.073283 
L 144.561224 215.032683 
L 148.969388 215.016888 
L 153.377551 215.014464 
L 157.785714 215.015384 
L 162.193878 215.016409 
L 166.602041 215.017518 
L 171.010204 215.018689 
L 175.418367 215.019903 
L 179.826531 215.021142 
L 184.234694 215.022384 
L 188.642857 215.02361 
L 193.05102 215.024795 
L 197.459184 215.025915 
L 201.867347 215.026938 
L 206.27551 215.027833 
L 210.683673 215.028558 
L 215.091837 215.029066 
L 219.5 215.029301 
" style="fill:none;opacity:0.5;stroke:#bddf26;stroke-linecap:square;stroke-width:0.3;"/>
   </g>
   <g id="line2d_60">
    <path clip-path="url(#p9a6a7be07d)" d="M 3.5 187.985053 
L 7.908163 180.126094 
L 12.316327 157.983133 
L 16.72449 150.795356 
L 21.132653 149.809984 
L 25.540816 137.686638 
L 29.94898 153.081426 
L 34.357143 160.193926 
L 38.765306 167.128252 
L 43.173469 180.251144 
L 47.581633 179.429063 
L 51.989796 185.646008 
L 56.397959 183.513987 
L 60.806122 186.845556 
L 65.214286 188.433046 
L 69.622449 186.483521 
L 74.030612 187.982592 
L 78.438776 194.470779 
L 82.846939 199.417038 
L 87.255102 203.864616 
L 91.663265 208.338605 
L 96.071429 211.051552 
L 100.479592 215.508289 
L 104.887755 215.456718 
L 109.295918 215.367378 
L 113.704082 215.284843 
L 118.112245 215.201779 
L 122.520408 215.12218 
L 126.928571 215.064732 
L 131.336735 215.048133 
L 135.744898 215.039367 
L 140.153061 215.032445 
L 144.561224 215.033379 
L 148.969388 215.034419 
L 153.377551 215.035547 
L 157.785714 215.036749 
L 162.193878 215.038008 
L 166.602041 215.039312 
L 171.010204 215.040646 
L 175.418367 215.041997 
L 179.826531 215.04335 
L 184.234694 215.044689 
L 188.642857 215.045996 
L 193.05102 215.047253 
L 197.459184 215.048435 
L 201.867347 215.049516 
L 206.27551 215.050466 
L 210.683673 215.051246 
L 215.091837 215.051811 
L 219.5 215.052108 
" style="fill:none;opacity:0.5;stroke:#bddf26;stroke-linecap:square;stroke-width:0.3;"/>
   </g>
   <g id="line2d_61">
    <path clip-path="url(#p9a6a7be07d)" d="M 3.5 210.640838 
L 7.908163 200.235255 
L 12.316327 187.169896 
L 16.72449 173.572036 
L 21.132653 164.196791 
L 25.540816 153.498506 
L 29.94898 147.951828 
L 34.357143 145.231344 
L 38.765306 148.44689 
L 43.173469 160.856736 
L 47.581633 173.759344 
L 51.989796 183.984973 
L 56.397959 185.116197 
L 60.806122 187.179372 
L 65.214286 182.42332 
L 69.622449 183.981902 
L 74.030612 183.90457 
L 78.438776 184.497799 
L 82.846939 187.267275 
L 87.255102 189.001105 
L 91.663265 189.386467 
L 96.071429 194.050998 
L 100.479592 195.213014 
L 104.887755 200.310392 
L 109.295918 200.739209 
L 113.704082 207.044314 
L 118.112245 209.826886 
L 122.520408 210.596042 
L 126.928571 214.544834 
L 131.336735 214.52672 
L 135.744898 214.504471 
L 140.153061 214.494789 
L 144.561224 214.48581 
L 148.969388 214.471349 
L 153.377551 214.457418 
L 157.785714 214.457397 
L 162.193878 214.458543 
L 166.602041 214.459757 
L 171.010204 214.461019 
L 175.418367 214.462311 
L 179.826531 214.463615 
L 184.234694 214.464912 
L 188.642857 214.46618 
L 193.05102 214.467396 
L 197.459184 214.468533 
L 201.867347 214.46956 
L 206.27551 214.47044 
L 210.683673 214.471132 
L 215.091837 214.471585 
L 219.5 214.471738 
" style="fill:none;opacity:0.5;stroke:#bddf26;stroke-linecap:square;stroke-width:0.3;"/>
   </g>
   <g id="line2d_62">
    <path clip-path="url(#p9a6a7be07d)" d="M 4.820134 224 
L 7.908163 222.364252 
L 12.316327 214.888909 
L 16.72449 201.611094 
L 21.132653 189.225192 
L 25.540816 167.830095 
L 29.94898 160.276173 
L 34.357143 151.857467 
L 38.765306 147.748158 
L 43.173469 152.522658 
L 47.581633 151.69632 
L 51.989796 154.442228 
L 56.397959 162.614017 
L 60.806122 166.34078 
L 65.214286 174.415398 
L 69.622449 180.204261 
L 74.030612 183.090072 
L 78.438776 193.870927 
L 82.846939 188.217695 
L 87.255102 196.282217 
L 91.663265 196.314084 
L 96.071429 198.149959 
L 100.479592 208.012399 
L 104.887755 206.978334 
L 109.295918 209.294463 
L 113.704082 209.159872 
L 118.112245 213.678075 
L 122.520408 216.084606 
L 126.928571 216.072377 
L 131.336735 216.018866 
L 135.744898 215.957938 
L 140.153061 215.894589 
L 144.561224 215.836578 
L 148.969388 215.779809 
L 153.377551 215.731708 
L 157.785714 215.714135 
L 162.193878 215.703759 
L 166.602041 215.703015 
L 171.010204 215.703907 
L 175.418367 215.704841 
L 179.826531 215.705799 
L 184.234694 215.706763 
L 188.642857 215.707712 
L 193.05102 215.708626 
L 197.459184 215.709481 
L 201.867347 215.710251 
L 206.27551 215.710903 
L 210.683673 215.711401 
L 215.091837 215.711703 
L 219.5 215.711759 
" style="fill:none;opacity:0.5;stroke:#bddf26;stroke-linecap:square;stroke-width:0.3;"/>
   </g>
   <g id="line2d_63">
    <path clip-path="url(#p9a6a7be07d)" d="M 3.5 161.469219 
L 7.908163 148.56091 
L 12.316327 136.987276 
L 16.72449 132.488074 
L 21.132653 141.158845 
L 25.540816 153.776864 
L 29.94898 163.205161 
L 34.357143 175.190964 
L 38.765306 182.596233 
L 43.173469 190.459918 
L 47.581633 198.595894 
L 51.989796 200.828999 
L 56.397959 199.965309 
L 60.806122 200.665666 
L 65.214286 196.916487 
L 69.622449 197.348334 
L 74.030612 201.435842 
L 78.438776 199.021507 
L 82.846939 206.690789 
L 87.255102 208.953941 
L 91.663265 209.74441 
L 96.071429 213.557231 
L 100.479592 212.484702 
L 104.887755 212.391605 
L 109.295918 212.290559 
L 113.704082 212.173239 
L 118.112245 214.474946 
L 122.520408 214.430277 
L 126.928571 214.406446 
L 131.336735 214.397512 
L 135.744898 214.39286 
L 140.153061 214.38322 
L 144.561224 214.370096 
L 148.969388 214.370276 
L 153.377551 214.371594 
L 157.785714 214.373009 
L 162.193878 214.374502 
L 166.602041 214.376055 
L 171.010204 214.377653 
L 175.418367 214.379277 
L 179.826531 214.380911 
L 184.234694 214.382536 
L 188.642857 214.384132 
L 193.05102 214.385676 
L 197.459184 214.387141 
L 201.867347 214.388498 
L 206.27551 214.38971 
L 210.683673 214.390735 
L 215.091837 214.391522 
L 219.5 214.392011 
" style="fill:none;opacity:0.5;stroke:#bddf26;stroke-linecap:square;stroke-width:0.3;"/>
   </g>
   <g id="line2d_64">
    <path clip-path="url(#p9a6a7be07d)" d="M 3.5 204.319423 
L 7.908163 189.888999 
L 12.316327 174.316602 
L 16.72449 158.399852 
L 21.132653 148.661591 
L 25.540816 139.865433 
L 29.94898 146.089387 
L 34.357143 150.841513 
L 38.765306 159.997967 
L 43.173469 175.539009 
L 47.581633 179.652808 
L 51.989796 183.424123 
L 56.397959 175.995627 
L 60.806122 175.256518 
L 65.214286 180.306795 
L 69.622449 181.941293 
L 74.030612 193.151204 
L 78.438776 198.133757 
L 82.846939 200.328148 
L 87.255102 202.547495 
L 91.663265 201.339965 
L 96.071429 206.123283 
L 100.479592 210.495386 
L 104.887755 212.654705 
L 109.295918 214.944332 
L 113.704082 214.845498 
L 118.112245 214.76645 
L 122.520408 214.681444 
L 126.928571 214.634623 
L 131.336735 214.594648 
L 135.744898 214.559259 
L 140.153061 214.531342 
L 144.561224 214.51817 
L 148.969388 214.509158 
L 153.377551 214.499811 
L 157.785714 214.492697 
L 162.193878 214.493942 
L 166.602041 214.495256 
L 171.010204 214.496621 
L 175.418367 214.498021 
L 179.826531 214.499437 
L 184.234694 214.500852 
L 188.642857 214.502246 
L 193.05102 214.503597 
L 197.459184 214.504879 
L 201.867347 214.506066 
L 206.27551 214.507123 
L 210.683673 214.508011 
L 215.091837 214.508683 
L 219.5 214.509085 
" style="fill:none;opacity:0.5;stroke:#bddf26;stroke-linecap:square;stroke-width:0.3;"/>
   </g>
   <g id="line2d_65">
    <path clip-path="url(#p9a6a7be07d)" d="M 3.5 178.877289 
L 7.908163 161.980866 
L 12.316327 147.172983 
L 16.72449 140.166503 
L 21.132653 137.116463 
L 25.540816 147.259887 
L 29.94898 167.608787 
L 34.357143 173.462244 
L 38.765306 180.193282 
L 43.173469 183.541951 
L 47.581633 186.074139 
L 51.989796 185.976182 
L 56.397959 184.491348 
L 60.806122 194.075302 
L 65.214286 194.43231 
L 69.622449 195.924274 
L 74.030612 199.440788 
L 78.438776 195.430002 
L 82.846939 197.534948 
L 87.255102 200.242954 
L 91.663265 204.185612 
L 96.071429 209.795672 
L 100.479592 209.709538 
L 104.887755 212.13295 
L 109.295918 214.311821 
L 113.704082 214.226593 
L 118.112245 214.137777 
L 122.520408 214.081031 
L 126.928571 214.046155 
L 131.336735 214.01478 
L 135.744898 214.002411 
L 140.153061 213.995161 
L 144.561224 213.993483 
L 148.969388 213.994775 
L 153.377551 213.996164 
L 157.785714 213.997633 
L 162.193878 213.999166 
L 166.602041 214.000746 
L 171.010204 214.002359 
L 175.418367 214.003988 
L 179.826531 214.005616 
L 184.234694 214.007225 
L 188.642857 214.008794 
L 193.05102 214.010301 
L 197.459184 214.011717 
L 201.867347 214.013011 
L 206.27551 214.014146 
L 210.683673 214.015077 
L 215.091837 214.01575 
L 219.5 214.016101 
" style="fill:none;opacity:0.5;stroke:#bddf26;stroke-linecap:square;stroke-width:0.3;"/>
   </g>
   <g id="line2d_66">
    <path clip-path="url(#p9a6a7be07d)" d="M 3.5 175.14224 
L 7.908163 164.209281 
L 12.316327 148.998574 
L 16.72449 145.749556 
L 21.132653 151.782816 
L 25.540816 151.952291 
L 29.94898 161.417296 
L 34.357143 165.12219 
L 38.765306 168.450114 
L 43.173469 174.779588 
L 47.581633 175.59502 
L 51.989796 177.602709 
L 56.397959 175.743591 
L 60.806122 179.543699 
L 65.214286 181.847136 
L 69.622449 190.161493 
L 74.030612 196.142382 
L 78.438776 201.230509 
L 82.846939 206.309612 
L 87.255102 209.814567 
L 91.663265 213.395846 
L 96.071429 215.742852 
L 100.479592 215.688251 
L 104.887755 215.635626 
L 109.295918 215.568907 
L 113.704082 215.517418 
L 118.112245 215.468646 
L 122.520408 215.42586 
L 126.928571 215.402501 
L 131.336735 215.38087 
L 135.744898 215.366048 
L 140.153061 215.360877 
L 144.561224 215.361897 
L 148.969388 215.363004 
L 153.377551 215.364185 
L 157.785714 215.365426 
L 162.193878 215.366714 
L 166.602041 215.368037 
L 171.010204 215.369383 
L 175.418367 215.370738 
L 179.826531 215.37209 
L 184.234694 215.373424 
L 188.642857 215.374723 
L 193.05102 215.375967 
L 197.459184 215.377135 
L 201.867347 215.3782 
L 206.27551 215.379131 
L 210.683673 215.379891 
L 215.091837 215.380435 
L 219.5 215.380711 
" style="fill:none;opacity:0.5;stroke:#bddf26;stroke-linecap:square;stroke-width:0.3;"/>
   </g>
   <g id="line2d_67">
    <path clip-path="url(#p9a6a7be07d)" d="M 3.5 173.631776 
L 7.908163 156.920115 
L 12.316327 150.948724 
L 16.72449 152.841992 
L 21.132653 152.788747 
L 25.540816 158.607122 
L 29.94898 164.204473 
L 34.357143 165.966761 
L 38.765306 168.304873 
L 43.173469 173.938893 
L 47.581633 170.818422 
L 51.989796 176.93872 
L 56.397959 176.853166 
L 60.806122 183.081212 
L 65.214286 193.670197 
L 69.622449 192.436936 
L 74.030612 197.179715 
L 78.438776 201.010961 
L 82.846939 200.852141 
L 87.255102 207.146734 
L 91.663265 210.005091 
L 96.071429 213.106189 
L 100.479592 213.021609 
L 104.887755 213.536333 
L 109.295918 215.277824 
L 113.704082 215.227977 
L 118.112245 215.171351 
L 122.520408 215.117815 
L 126.928571 215.069895 
L 131.336735 215.034336 
L 135.744898 215.002718 
L 140.153061 214.976345 
L 144.561224 214.964656 
L 148.969388 214.95619 
L 153.377551 214.957368 
L 157.785714 214.958627 
L 162.193878 214.95995 
L 166.602041 214.961323 
L 171.010204 214.962731 
L 175.418367 214.964161 
L 179.826531 214.965596 
L 184.234694 214.967021 
L 188.642857 214.968418 
L 193.05102 214.969765 
L 197.459184 214.971041 
L 201.867347 214.972217 
L 206.27551 214.973262 
L 210.683673 214.974137 
L 215.091837 214.974798 
L 219.5 214.975189 
" style="fill:none;opacity:0.5;stroke:#bddf26;stroke-linecap:square;stroke-width:0.3;"/>
   </g>
   <g id="line2d_68">
    <path clip-path="url(#p9a6a7be07d)" d="M 3.5 220.634658 
L 7.908163 214.34787 
L 12.316327 195.776257 
L 16.72449 178.416005 
L 21.132653 164.139666 
L 25.540816 154.446319 
L 29.94898 151.398059 
L 34.357143 153.289222 
L 38.765306 152.43503 
L 43.173469 156.528329 
L 47.581633 159.872331 
L 51.989796 165.961624 
L 56.397959 171.683538 
L 60.806122 176.969996 
L 65.214286 182.466974 
L 69.622449 183.646466 
L 74.030612 184.524247 
L 78.438776 187.475177 
L 82.846939 190.878638 
L 87.255102 195.625985 
L 91.663265 200.280907 
L 96.071429 201.078127 
L 100.479592 202.47802 
L 104.887755 202.006849 
L 109.295918 206.188048 
L 113.704082 208.567981 
L 118.112245 213.420663 
L 122.520408 215.810492 
L 126.928571 215.838298 
L 131.336735 215.828945 
L 135.744898 215.817407 
L 140.153061 215.8056 
L 144.561224 215.787313 
L 148.969388 215.774115 
L 153.377551 215.764455 
L 157.785714 215.754371 
L 162.193878 215.747079 
L 166.602041 215.748079 
L 171.010204 215.749111 
L 175.418367 215.750163 
L 179.826531 215.75122 
L 184.234694 215.752267 
L 188.642857 215.753289 
L 193.05102 215.754267 
L 197.459184 215.75518 
L 201.867347 215.756005 
L 206.27551 215.756713 
L 210.683673 215.75727 
L 215.091837 215.757638 
L 219.5 215.757767 
" style="fill:none;opacity:0.5;stroke:#bddf26;stroke-linecap:square;stroke-width:0.3;"/>
   </g>
   <g id="line2d_69">
    <path clip-path="url(#p9a6a7be07d)" d="M 3.5 174.001076 
L 7.908163 158.230555 
L 12.316327 149.017665 
L 16.72449 144.30854 
L 21.132653 150.681598 
L 25.540816 156.19524 
L 29.94898 165.020311 
L 34.357143 166.644978 
L 38.765306 172.826788 
L 43.173469 173.433298 
L 47.581633 178.759154 
L 51.989796 180.908978 
L 56.397959 180.812851 
L 60.806122 183.983163 
L 65.214286 184.627395 
L 69.622449 190.730643 
L 74.030612 193.512327 
L 78.438776 202.682364 
L 82.846939 208.565271 
L 87.255102 213.596684 
L 91.663265 213.68042 
L 96.071429 215.959256 
L 100.479592 215.85724 
L 104.887755 215.743023 
L 109.295918 215.619545 
L 113.704082 215.521282 
L 118.112245 215.462785 
L 122.520408 215.421182 
L 126.928571 215.402922 
L 131.336735 215.387907 
L 135.744898 215.386831 
L 140.153061 215.387695 
L 144.561224 215.388671 
L 148.969388 215.389742 
L 153.377551 215.390893 
L 157.785714 215.392109 
L 162.193878 215.393378 
L 166.602041 215.394686 
L 171.010204 215.396023 
L 175.418367 215.397374 
L 179.826531 215.398727 
L 184.234694 215.400067 
L 188.642857 215.40138 
L 193.05102 215.402645 
L 197.459184 215.403844 
L 201.867347 215.40495 
L 206.27551 215.405935 
L 210.683673 215.406764 
L 215.091837 215.407397 
L 219.5 215.407783 
" style="fill:none;opacity:0.5;stroke:#bddf26;stroke-linecap:square;stroke-width:0.3;"/>
   </g>
   <g id="line2d_70">
    <path clip-path="url(#p9a6a7be07d)" d="M 4.820134 224 
L 7.908163 222.364252 
L 12.316327 215.866786 
L 16.72449 204.528527 
L 21.132653 195.359059 
L 25.540816 175.124551 
L 29.94898 160.530707 
L 34.357143 151.330833 
L 38.765306 146.533869 
L 43.173469 155.78771 
L 47.581633 152.01716 
L 51.989796 157.998833 
L 56.397959 159.572334 
L 60.806122 160.366257 
L 65.214286 170.164874 
L 69.622449 174.004321 
L 74.030612 176.977659 
L 78.438776 180.250387 
L 82.846939 191.638716 
L 87.255102 200.477969 
L 91.663265 205.772051 
L 96.071429 208.461989 
L 100.479592 208.359987 
L 104.887755 210.61051 
L 109.295918 212.897235 
L 113.704082 211.451691 
L 118.112245 210.321357 
L 122.520408 210.194112 
L 126.928571 210.734551 
L 131.336735 212.355806 
L 135.744898 214.696886 
L 140.153061 214.683819 
L 144.561224 214.679584 
L 148.969388 214.669571 
L 153.377551 214.662213 
L 157.785714 214.660875 
L 162.193878 214.65721 
L 166.602041 214.655148 
L 171.010204 214.656299 
L 175.418367 214.657501 
L 179.826531 214.658732 
L 184.234694 214.65997 
L 188.642857 214.661192 
L 193.05102 214.662371 
L 197.459184 214.663481 
L 201.867347 214.664488 
L 206.27551 214.665356 
L 210.683673 214.666041 
L 215.091837 214.666491 
L 219.5 214.666647 
" style="fill:none;opacity:0.5;stroke:#bddf26;stroke-linecap:square;stroke-width:0.3;"/>
   </g>
   <g id="line2d_71">
    <path clip-path="url(#p9a6a7be07d)" d="M 3.5 215.020856 
L 7.908163 214.86242 
L 12.316327 212.387136 
L 16.72449 209.927993 
L 21.132653 207.919572 
L 25.540816 205.572771 
L 29.94898 202.822419 
L 34.357143 192.735829 
L 38.765306 186.844894 
L 43.173469 176.235716 
L 47.581633 158.635828 
L 51.989796 151.964496 
L 56.397959 145.561964 
L 60.806122 151.725832 
L 65.214286 157.007715 
L 69.622449 166.826616 
L 74.030612 167.048414 
L 78.438776 165.984397 
L 82.846939 171.677496 
L 87.255102 171.904476 
L 91.663265 175.045008 
L 96.071429 180.617987 
L 100.479592 183.007573 
L 104.887755 189.646123 
L 109.295918 199.828456 
L 113.704082 200.10867 
L 118.112245 202.245233 
L 122.520408 202.922907 
L 126.928571 202.640305 
L 131.336735 208.393496 
L 135.744898 207.265621 
L 140.153061 209.719613 
L 144.561224 211.813223 
L 148.969388 211.708447 
L 153.377551 214.011584 
L 157.785714 213.94657 
L 162.193878 213.890474 
L 166.602041 213.839283 
L 171.010204 213.791155 
L 175.418367 213.75285 
L 179.826531 213.722309 
L 184.234694 213.695878 
L 188.642857 213.686534 
L 193.05102 213.687287 
L 197.459184 213.688027 
L 201.867347 213.68871 
L 206.27551 213.689288 
L 210.683673 213.689707 
L 215.091837 213.689907 
L 219.5 213.689816 
" style="fill:none;opacity:0.5;stroke:#bddf26;stroke-linecap:square;stroke-width:0.3;"/>
   </g>
   <g id="line2d_72">
    <path clip-path="url(#p9a6a7be07d)" d="M 4.163606 224 
L 7.908163 220.054127 
L 12.316327 211.715939 
L 16.72449 207.489679 
L 21.132653 201.436749 
L 25.540816 194.225457 
L 29.94898 175.86972 
L 34.357143 163.104293 
L 38.765306 156.720803 
L 43.173469 148.040841 
L 47.581633 156.28265 
L 51.989796 160.17635 
L 56.397959 166.681075 
L 60.806122 168.779177 
L 65.214286 173.620303 
L 69.622449 172.821849 
L 74.030612 168.774486 
L 78.438776 173.564605 
L 82.846939 178.057255 
L 87.255102 179.993162 
L 91.663265 189.028095 
L 96.071429 193.67738 
L 100.479592 192.194548 
L 104.887755 199.095175 
L 109.295918 205.142455 
L 113.704082 204.03744 
L 118.112245 206.724361 
L 122.520408 212.970016 
L 126.928571 212.953522 
L 131.336735 215.312277 
L 135.744898 215.277072 
L 140.153061 215.220403 
L 144.561224 215.156604 
L 148.969388 215.091701 
L 153.377551 215.030853 
L 157.785714 215.001619 
L 162.193878 214.986868 
L 166.602041 214.98467 
L 171.010204 214.985573 
L 175.418367 214.986549 
L 179.826531 214.987575 
L 184.234694 214.988628 
L 188.642857 214.989686 
L 193.05102 214.990723 
L 197.459184 214.991713 
L 201.867347 214.992628 
L 206.27551 214.993432 
L 210.683673 214.994089 
L 215.091837 214.994552 
L 219.5 214.994769 
" style="fill:none;opacity:0.5;stroke:#bddf26;stroke-linecap:square;stroke-width:0.3;"/>
   </g>
   <g id="line2d_73">
    <path clip-path="url(#p9a6a7be07d)" d="M 3.5 220.031614 
L 7.908163 208.124443 
L 12.316327 197.362368 
L 16.72449 177.170517 
L 21.132653 158.714473 
L 25.540816 151.518627 
L 29.94898 144.037902 
L 34.357143 146.510596 
L 38.765306 157.533956 
L 43.173469 162.408511 
L 47.581633 162.482316 
L 51.989796 170.263369 
L 56.397959 174.296422 
L 60.806122 172.971164 
L 65.214286 182.165119 
L 69.622449 183.523733 
L 74.030612 185.882357 
L 78.438776 192.627 
L 82.846939 197.822344 
L 87.255102 200.869782 
L 91.663265 198.074678 
L 96.071429 201.117263 
L 100.479592 200.870886 
L 104.887755 203.87485 
L 109.295918 206.447858 
L 113.704082 209.878724 
L 118.112245 213.498588 
L 122.520408 213.768791 
L 126.928571 215.867814 
L 131.336735 215.826049 
L 135.744898 215.791736 
L 140.153061 215.758155 
L 144.561224 215.714859 
L 148.969388 215.684087 
L 153.377551 215.677728 
L 157.785714 215.678448 
L 162.193878 215.679278 
L 166.602041 215.680196 
L 171.010204 215.681183 
L 175.418367 215.682219 
L 179.826531 215.683287 
L 184.234694 215.684367 
L 188.642857 215.68544 
L 193.05102 215.686486 
L 197.459184 215.68748 
L 201.867347 215.688398 
L 206.27551 215.689208 
L 210.683673 215.689877 
L 215.091837 215.690363 
L 219.5 215.690618 
" style="fill:none;opacity:0.5;stroke:#bddf26;stroke-linecap:square;stroke-width:0.3;"/>
   </g>
   <g id="line2d_74">
    <path clip-path="url(#p9a6a7be07d)" d="M 3.5 199.13493 
L 7.908163 186.866719 
L 12.316327 176.96159 
L 16.72449 167.104005 
L 21.132653 159.195703 
L 25.540816 148.934359 
L 29.94898 141.567681 
L 34.357143 143.521437 
L 38.765306 149.13193 
L 43.173469 153.213765 
L 47.581633 165.691136 
L 51.989796 174.078335 
L 56.397959 178.983601 
L 60.806122 189.281626 
L 65.214286 193.394369 
L 69.622449 190.205713 
L 74.030612 196.228022 
L 78.438776 198.596003 
L 82.846939 202.219778 
L 87.255102 211.146853 
L 91.663265 212.03621 
L 96.071429 215.546902 
L 100.479592 215.443783 
L 104.887755 215.329776 
L 109.295918 215.241 
L 113.704082 215.169477 
L 118.112245 215.096582 
L 122.520408 215.036738 
L 126.928571 214.990927 
L 131.336735 214.964216 
L 135.744898 214.955371 
L 140.153061 214.95636 
L 144.561224 214.957453 
L 148.969388 214.958633 
L 153.377551 214.959885 
L 157.785714 214.961197 
L 162.193878 214.962556 
L 166.602041 214.963949 
L 171.010204 214.965364 
L 175.418367 214.966787 
L 179.826531 214.968205 
L 184.234694 214.969602 
L 188.642857 214.970961 
L 193.05102 214.972262 
L 197.459184 214.973481 
L 201.867347 214.974591 
L 206.27551 214.97556 
L 210.683673 214.976348 
L 215.091837 214.976909 
L 219.5 214.977187 
" style="fill:none;opacity:0.5;stroke:#bddf26;stroke-linecap:square;stroke-width:0.3;"/>
   </g>
   <g id="line2d_75">
    <path clip-path="url(#p9a6a7be07d)" d="M 3.5 179.183048 
L 7.908163 158.193206 
L 12.316327 147.382128 
L 16.72449 135.44302 
L 21.132653 140.184989 
L 25.540816 149.634787 
L 29.94898 153.818299 
L 34.357143 162.581107 
L 38.765306 168.675802 
L 43.173469 172.692124 
L 47.581633 185.509182 
L 51.989796 191.893861 
L 56.397959 195.073747 
L 60.806122 199.123059 
L 65.214286 199.73619 
L 69.622449 202.724465 
L 74.030612 203.698822 
L 78.438776 208.920476 
L 82.846939 211.247468 
L 87.255102 209.843374 
L 91.663265 212.156707 
L 96.071429 211.075308 
L 100.479592 210.971125 
L 104.887755 213.30427 
L 109.295918 214.565798 
L 113.704082 215.651144 
L 118.112245 215.643007 
L 122.520408 215.622512 
L 126.928571 215.592881 
L 131.336735 215.568307 
L 135.744898 215.559371 
L 140.153061 215.558445 
L 144.561224 215.559476 
L 148.969388 215.560577 
L 153.377551 215.561734 
L 157.785714 215.562939 
L 162.193878 215.56418 
L 166.602041 215.565448 
L 171.010204 215.566732 
L 175.418367 215.568023 
L 179.826531 215.569307 
L 184.234694 215.570573 
L 188.642857 215.571806 
L 193.05102 215.572988 
L 197.459184 215.5741 
L 201.867347 215.575119 
L 206.27551 215.576016 
L 210.683673 215.576757 
L 215.091837 215.577304 
L 219.5 215.577608 
" style="fill:none;opacity:0.5;stroke:#bddf26;stroke-linecap:square;stroke-width:0.3;"/>
   </g>
   <g id="line2d_76">
    <path clip-path="url(#p9a6a7be07d)" d="M 8.29517 224 
L 12.316327 216.734172 
L 16.72449 214.247982 
L 21.132653 207.551375 
L 25.540816 205.226758 
L 29.94898 206.617868 
L 34.357143 205.375885 
L 38.765306 203.769842 
L 43.173469 193.47814 
L 47.581633 188.780682 
L 51.989796 174.925674 
L 56.397959 173.996273 
L 60.806122 171.508812 
L 65.214286 162.453139 
L 69.622449 161.404291 
L 74.030612 154.248673 
L 78.438776 155.803463 
L 82.846939 158.719669 
L 87.255102 164.692309 
L 91.663265 163.252463 
L 96.071429 163.737805 
L 100.479592 166.90756 
L 104.887755 171.780299 
L 109.295918 184.521858 
L 113.704082 189.439917 
L 118.112245 192.254525 
L 122.520408 202.50336 
L 126.928571 201.119712 
L 131.336735 207.399104 
L 135.744898 211.131106 
L 140.153061 211.075002 
L 144.561224 213.409411 
L 148.969388 215.774959 
L 153.377551 215.732436 
L 157.785714 215.687949 
L 162.193878 215.634871 
L 166.602041 215.582862 
L 171.010204 215.54053 
L 175.418367 215.502953 
L 179.826531 215.472905 
L 184.234694 215.44689 
L 188.642857 215.440569 
L 193.05102 215.441219 
L 197.459184 215.441837 
L 201.867347 215.442386 
L 206.27551 215.44283 
L 210.683673 215.443125 
L 215.091837 215.443219 
L 219.5 215.443056 
" style="fill:none;opacity:0.5;stroke:#bddf26;stroke-linecap:square;stroke-width:0.3;"/>
   </g>
   <g id="line2d_77">
    <path clip-path="url(#p9a6a7be07d)" d="M 4.820134 224 
L 7.908163 222.364252 
L 12.316327 212.634765 
L 16.72449 198.800465 
L 21.132653 185.534652 
L 25.540816 171.696261 
L 29.94898 160.200005 
L 34.357143 154.560824 
L 38.765306 157.963667 
L 43.173469 155.713565 
L 47.581633 160.874188 
L 51.989796 166.841264 
L 56.397959 160.48496 
L 60.806122 156.431218 
L 65.214286 161.989325 
L 69.622449 158.655399 
L 74.030612 168.528592 
L 78.438776 183.64225 
L 82.846939 185.892827 
L 87.255102 196.317464 
L 91.663265 202.706687 
L 96.071429 210.563899 
L 100.479592 213.967398 
L 104.887755 216.277578 
L 109.295918 216.18816 
L 113.704082 216.058103 
L 118.112245 215.911784 
L 122.520408 215.773327 
L 126.928571 215.649528 
L 131.336735 215.55138 
L 135.744898 215.482469 
L 140.153061 215.426607 
L 144.561224 215.388916 
L 148.969388 215.36645 
L 153.377551 215.354439 
L 157.785714 215.34511 
L 162.193878 215.344619 
L 166.602041 215.345589 
L 171.010204 215.346616 
L 175.418367 215.347682 
L 179.826531 215.348768 
L 184.234694 215.349854 
L 188.642857 215.35092 
L 193.05102 215.351944 
L 197.459184 215.352899 
L 201.867347 215.353758 
L 206.27551 215.354487 
L 210.683673 215.355046 
L 215.091837 215.35539 
L 219.5 215.355463 
" style="fill:none;opacity:0.5;stroke:#bddf26;stroke-linecap:square;stroke-width:0.3;"/>
   </g>
   <g id="line2d_78">
    <path clip-path="url(#p9a6a7be07d)" d="M 3.5 206.333784 
L 7.908163 198.503785 
L 12.316327 181.156846 
L 16.72449 168.616628 
L 21.132653 159.169748 
L 25.540816 152.978669 
L 29.94898 148.786548 
L 34.357143 159.266497 
L 38.765306 160.230563 
L 43.173469 163.167183 
L 47.581633 173.769035 
L 51.989796 165.351101 
L 56.397959 162.913003 
L 60.806122 166.15613 
L 65.214286 171.819843 
L 69.622449 184.999729 
L 74.030612 195.629924 
L 78.438776 198.376159 
L 82.846939 204.549349 
L 87.255102 203.960322 
L 91.663265 207.99138 
L 96.071429 208.345847 
L 100.479592 211.725297 
L 104.887755 214.11599 
L 109.295918 214.09356 
L 113.704082 214.036691 
L 118.112245 216.393316 
L 122.520408 216.353665 
L 126.928571 216.302032 
L 131.336735 216.255672 
L 135.744898 216.236216 
L 140.153061 216.234873 
L 144.561224 216.23554 
L 148.969388 216.236299 
L 153.377551 216.237135 
L 157.785714 216.238035 
L 162.193878 216.238986 
L 166.602041 216.239976 
L 171.010204 216.240993 
L 175.418367 216.242026 
L 179.826531 216.243062 
L 184.234694 216.244088 
L 188.642857 216.245089 
L 193.05102 216.246051 
L 197.459184 216.246953 
L 201.867347 216.247774 
L 206.27551 216.248488 
L 210.683673 216.249066 
L 215.091837 216.249471 
L 219.5 216.24966 
" style="fill:none;opacity:0.5;stroke:#bddf26;stroke-linecap:square;stroke-width:0.3;"/>
   </g>
   <g id="line2d_79">
    <path clip-path="url(#p9a6a7be07d)" d="M 3.5 220.031615 
L 7.908163 210.424095 
L 12.316327 198.415015 
L 16.72449 182.744212 
L 21.132653 171.717865 
L 25.540816 150.230525 
L 29.94898 147.669768 
L 34.357143 153.662469 
L 38.765306 155.658446 
L 43.173469 172.841683 
L 47.581633 173.640864 
L 51.989796 170.507382 
L 56.397959 170.615697 
L 60.806122 167.6565 
L 65.214286 168.489349 
L 69.622449 170.856895 
L 74.030612 172.768101 
L 78.438776 178.916844 
L 82.846939 186.049872 
L 87.255102 197.207634 
L 91.663265 202.145726 
L 96.071429 203.696573 
L 100.479592 206.74731 
L 104.887755 206.633196 
L 109.295918 211.114112 
L 113.704082 213.539911 
L 118.112245 215.781021 
L 122.520408 215.680681 
L 126.928571 215.572397 
L 131.336735 215.494199 
L 135.744898 215.431352 
L 140.153061 215.381367 
L 144.561224 215.341995 
L 148.969388 215.307318 
L 153.377551 215.293448 
L 157.785714 215.287729 
L 162.193878 215.285229 
L 166.602041 215.286187 
L 171.010204 215.287196 
L 175.418367 215.28824 
L 179.826531 215.2893 
L 184.234694 215.290359 
L 188.642857 215.291398 
L 193.05102 215.292395 
L 197.459184 215.293327 
L 201.867347 215.294167 
L 206.27551 215.294883 
L 210.683673 215.295437 
L 215.091837 215.295787 
L 219.5 215.295879 
" style="fill:none;opacity:0.5;stroke:#bddf26;stroke-linecap:square;stroke-width:0.3;"/>
   </g>
   <g id="line2d_80">
    <path clip-path="url(#p9a6a7be07d)" d="M 22.452787 224 
L 25.540816 222.364252 
L 29.94898 214.63701 
L 34.357143 209.875673 
L 38.765306 205.274961 
L 43.173469 197.196069 
L 47.581633 184.222 
L 51.989796 178.94942 
L 56.397959 165.544685 
L 60.806122 162.977519 
L 65.214286 155.578002 
L 69.622449 153.554863 
L 74.030612 163.52722 
L 78.438776 166.488249 
L 82.846939 175.747924 
L 87.255102 180.356934 
L 91.663265 179.74594 
L 96.071429 177.506835 
L 100.479592 175.794903 
L 104.887755 172.163128 
L 109.295918 173.293476 
L 113.704082 171.992983 
L 118.112245 175.192885 
L 122.520408 181.107398 
L 126.928571 183.993697 
L 131.336735 196.081674 
L 135.744898 202.91276 
L 140.153061 206.920937 
L 144.561224 210.650835 
L 148.969388 213.076769 
L 153.377551 213.06073 
L 157.785714 215.400811 
L 162.193878 215.347383 
L 166.602041 215.271023 
L 171.010204 215.198463 
L 175.418367 215.1515 
L 179.826531 215.10668 
L 184.234694 215.080373 
L 188.642857 215.080934 
L 193.05102 215.081494 
L 197.459184 215.082024 
L 201.867347 215.08249 
L 206.27551 215.082856 
L 210.683673 215.083078 
L 215.091837 215.083111 
L 219.5 215.082897 
" style="fill:none;opacity:0.5;stroke:#bddf26;stroke-linecap:square;stroke-width:0.3;"/>
   </g>
   <g id="line2d_81">
    <path clip-path="url(#p9a6a7be07d)" d="M 3.5 214.671007 
L 7.908163 208.190026 
L 12.316327 198.490265 
L 16.72449 181.858998 
L 21.132653 165.717686 
L 25.540816 149.91459 
L 29.94898 149.774614 
L 34.357143 152.185798 
L 38.765306 156.910415 
L 43.173469 166.84648 
L 47.581633 164.626118 
L 51.989796 168.894874 
L 56.397959 170.123334 
L 60.806122 169.96284 
L 65.214286 174.853149 
L 69.622449 176.003453 
L 74.030612 178.905259 
L 78.438776 189.084774 
L 82.846939 192.110869 
L 87.255102 195.565632 
L 91.663265 197.945547 
L 96.071429 201.823831 
L 100.479592 202.754628 
L 104.887755 208.90794 
L 109.295918 212.168609 
L 113.704082 212.693204 
L 118.112245 212.624442 
L 122.520408 214.91995 
L 126.928571 214.859509 
L 131.336735 214.820247 
L 135.744898 214.777593 
L 140.153061 214.753466 
L 144.561224 214.733245 
L 148.969388 214.723644 
L 153.377551 214.724801 
L 157.785714 214.72603 
L 162.193878 214.727317 
L 166.602041 214.728648 
L 171.010204 214.730009 
L 175.418367 214.731385 
L 179.826531 214.732761 
L 184.234694 214.734121 
L 188.642857 214.735447 
L 193.05102 214.736717 
L 197.459184 214.737907 
L 201.867347 214.73899 
L 206.27551 214.739931 
L 210.683673 214.740691 
L 215.091837 214.741223 
L 219.5 214.74147 
" style="fill:none;opacity:0.5;stroke:#bddf26;stroke-linecap:square;stroke-width:0.3;"/>
   </g>
   <g id="line2d_82">
    <path clip-path="url(#p9a6a7be07d)" d="M 8.569456 224 
L 12.316327 220.037875 
L 16.72449 220.032816 
L 21.132653 215.987213 
L 25.540816 204.581616 
L 29.94898 189.166798 
L 34.357143 169.713571 
L 38.765306 156.711922 
L 43.173469 154.210704 
L 47.581633 153.100482 
L 51.989796 160.830282 
L 56.397959 161.648762 
L 60.806122 164.849136 
L 65.214286 163.049803 
L 69.622449 168.898123 
L 74.030612 175.334124 
L 78.438776 173.490633 
L 82.846939 175.114132 
L 87.255102 172.395872 
L 91.663265 174.20013 
L 96.071429 181.049002 
L 100.479592 187.377223 
L 104.887755 194.790248 
L 109.295918 201.192883 
L 113.704082 207.854993 
L 118.112245 213.690727 
L 122.520408 213.699743 
L 126.928571 213.642831 
L 131.336735 213.564948 
L 135.744898 215.911477 
L 140.153061 215.846192 
L 144.561224 215.772983 
L 148.969388 215.689658 
L 153.377551 215.614623 
L 157.785714 215.557323 
L 162.193878 215.517185 
L 166.602041 215.515911 
L 171.010204 215.516629 
L 175.418367 215.517415 
L 179.826531 215.518248 
L 184.234694 215.519106 
L 188.642857 215.519965 
L 193.05102 215.520801 
L 197.459184 215.521589 
L 201.867347 215.522299 
L 206.27551 215.522897 
L 210.683673 215.523346 
L 215.091837 215.523602 
L 219.5 215.523611 
" style="fill:none;opacity:0.5;stroke:#bddf26;stroke-linecap:square;stroke-width:0.3;"/>
   </g>
   <g id="line2d_83">
    <path clip-path="url(#p9a6a7be07d)" d="M 3.5 204.820574 
L 7.908163 197.994917 
L 12.316327 189.868332 
L 16.72449 181.846694 
L 21.132653 176.401874 
L 25.540816 170.895497 
L 29.94898 168.086537 
L 34.357143 166.432464 
L 38.765306 165.857592 
L 43.173469 167.238747 
L 47.581633 168.82891 
L 51.989796 171.499072 
L 56.397959 172.930101 
L 60.806122 174.81454 
L 65.214286 176.622808 
L 69.622449 178.787481 
L 74.030612 181.672656 
L 78.438776 186.152925 
L 82.846939 190.5023 
L 87.255102 195.083047 
L 91.663265 198.667735 
L 96.071429 201.721032 
L 100.479592 203.750427 
L 104.887755 206.044022 
L 109.295918 208.693472 
L 113.704082 209.848583 
L 118.112245 211.357666 
L 122.520408 212.355355 
L 126.928571 212.820276 
L 131.336735 213.780295 
L 135.744898 214.232955 
L 140.153061 214.762831 
L 144.561224 214.961611 
L 148.969388 215.036737 
L 153.377551 215.045115 
L 157.785714 215.078182 
L 162.193878 215.066877 
L 166.602041 215.106235 
L 171.010204 215.100908 
L 175.418367 215.097424 
L 179.826531 215.095524 
L 184.234694 215.0945 
L 188.642857 215.095038 
L 193.05102 215.096126 
L 197.459184 215.097152 
L 201.867347 215.098089 
L 206.27551 215.098903 
L 210.683673 215.099556 
L 215.091837 215.100001 
L 219.5 215.100184 
" style="fill:none;stroke:#bddf26;stroke-linecap:square;stroke-width:2;"/>
   </g>
   <g id="patch_3">
    <path d="M 3.5 219.5 
L 3.5 3.5 
" style="fill:none;stroke:#000000;stroke-linecap:square;stroke-linejoin:miter;stroke-width:0.8;"/>
   </g>
   <g id="patch_4">
    <path d="M 219.5 219.5 
L 219.5 3.5 
" style="fill:none;stroke:#000000;stroke-linecap:square;stroke-linejoin:miter;stroke-width:0.8;"/>
   </g>
   <g id="patch_5">
    <path d="M 3.5 219.5 
L 219.5 219.5 
" style="fill:none;stroke:#000000;stroke-linecap:square;stroke-linejoin:miter;stroke-width:0.8;"/>
   </g>
   <g id="patch_6">
    <path d="M 3.5 3.5 
L 219.5 3.5 
" style="fill:none;stroke:#000000;stroke-linecap:square;stroke-linejoin:miter;stroke-width:0.8;"/>
   </g>
  </g>
 </g>
 <defs>
  <clipPath id="p9a6a7be07d">
   <rect height="216" width="216" x="3.5" y="3.5"/>
  </clipPath>
 </defs>
</svg>
