<?xml version="1.0" encoding="utf-8" standalone="no"?>
<!DOCTYPE svg PUBLIC "-//W3C//DTD SVG 1.1//EN"
  "http://www.w3.org/Graphics/SVG/1.1/DTD/svg11.dtd">
<!-- Created with matplotlib (http://matplotlib.org/) -->
<svg height="210pt" version="1.1" viewBox="0 0 354 210" width="354pt" xmlns="http://www.w3.org/2000/svg" xmlns:xlink="http://www.w3.org/1999/xlink">
 <defs>
  <style type="text/css">
*{stroke-linecap:butt;stroke-linejoin:round;}
  </style>
 </defs>
 <g id="figure_1">
  <g id="patch_1">
   <path d="M 0 210.76 
L 354.76 210.76 
L 354.76 0 
L 0 0 
z
" style="fill:#ffffff;"/>
  </g>
  <g id="axes_1">
   <g id="patch_2">
    <path d="M 10.7 200.06 
L 344.06 200.06 
L 344.06 10.7 
L 10.7 10.7 
z
" style="fill:#ffffff;"/>
   </g>
   <g id="patch_3">
    <path clip-path="url(#pa27079e10b)" d="M 25.852727 200.06 
L 28.883273 200.06 
L 28.883273 200.012718 
L 25.852727 200.012718 
z
" style="fill:#1a1a1a;"/>
   </g>
   <g id="patch_4">
    <path clip-path="url(#pa27079e10b)" d="M 28.883273 200.06 
L 31.913818 200.06 
L 31.913818 199.988695 
L 28.883273 199.988695 
z
" style="fill:#1a1a1a;"/>
   </g>
   <g id="patch_5">
    <path clip-path="url(#pa27079e10b)" d="M 31.913818 200.06 
L 34.944364 200.06 
L 34.944364 199.966749 
L 31.913818 199.966749 
z
" style="fill:#1a1a1a;"/>
   </g>
   <g id="patch_6">
    <path clip-path="url(#pa27079e10b)" d="M 34.944364 200.06 
L 37.974909 200.06 
L 37.974909 199.925889 
L 34.944364 199.925889 
z
" style="fill:#1a1a1a;"/>
   </g>
   <g id="patch_7">
    <path clip-path="url(#pa27079e10b)" d="M 37.974909 200.06 
L 41.005455 200.06 
L 41.005455 199.916626 
L 37.974909 199.916626 
z
" style="fill:#1a1a1a;"/>
   </g>
   <g id="patch_8">
    <path clip-path="url(#pa27079e10b)" d="M 41.005455 200.06 
L 44.036 200.06 
L 44.036 199.895375 
L 41.005455 199.895375 
z
" style="fill:#1a1a1a;"/>
   </g>
   <g id="patch_9">
    <path clip-path="url(#pa27079e10b)" d="M 44.036 200.06 
L 47.066545 200.06 
L 47.066545 199.863161 
L 44.036 199.863161 
z
" style="fill:#1a1a1a;"/>
   </g>
   <g id="patch_10">
    <path clip-path="url(#pa27079e10b)" d="M 47.066545 200.06 
L 50.097091 200.06 
L 50.097091 199.848745 
L 47.066545 199.848745 
z
" style="fill:#1a1a1a;"/>
   </g>
   <g id="patch_11">
    <path clip-path="url(#pa27079e10b)" d="M 50.097091 200.06 
L 53.127636 200.06 
L 53.127636 199.81748 
L 50.097091 199.81748 
z
" style="fill:#1a1a1a;"/>
   </g>
   <g id="patch_12">
    <path clip-path="url(#pa27079e10b)" d="M 53.127636 200.06 
L 56.158182 200.06 
L 56.158182 199.790915 
L 53.127636 199.790915 
z
" style="fill:#1a1a1a;"/>
   </g>
   <g id="patch_13">
    <path clip-path="url(#pa27079e10b)" d="M 56.158182 200.06 
L 59.188727 200.06 
L 59.188727 199.778209 
L 56.158182 199.778209 
z
" style="fill:#1a1a1a;"/>
   </g>
   <g id="patch_14">
    <path clip-path="url(#pa27079e10b)" d="M 59.188727 200.06 
L 62.219273 200.06 
L 62.219273 199.760594 
L 59.188727 199.760594 
z
" style="fill:#1a1a1a;"/>
   </g>
   <g id="patch_15">
    <path clip-path="url(#pa27079e10b)" d="M 62.219273 200.06 
L 65.249818 200.06 
L 65.249818 199.744502 
L 62.219273 199.744502 
z
" style="fill:#1a1a1a;"/>
   </g>
   <g id="patch_16">
    <path clip-path="url(#pa27079e10b)" d="M 65.249818 200.06 
L 68.280364 200.06 
L 68.280364 199.66073 
L 65.249818 199.66073 
z
" style="fill:#1a1a1a;"/>
   </g>
   <g id="patch_17">
    <path clip-path="url(#pa27079e10b)" d="M 68.280364 200.06 
L 71.310909 200.06 
L 71.310909 199.650633 
L 68.280364 199.650633 
z
" style="fill:#1a1a1a;"/>
   </g>
   <g id="patch_18">
    <path clip-path="url(#pa27079e10b)" d="M 71.310909 200.06 
L 74.341455 200.06 
L 74.341455 199.618859 
L 71.310909 199.618859 
z
" style="fill:#1a1a1a;"/>
   </g>
   <g id="patch_19">
    <path clip-path="url(#pa27079e10b)" d="M 74.341455 200.06 
L 77.372 200.06 
L 77.372 199.602402 
L 74.341455 199.602402 
z
" style="fill:#1a1a1a;"/>
   </g>
   <g id="patch_20">
    <path clip-path="url(#pa27079e10b)" d="M 77.372 200.06 
L 80.402545 200.06 
L 80.402545 199.492028 
L 77.372 199.492028 
z
" style="fill:#1a1a1a;"/>
   </g>
   <g id="patch_21">
    <path clip-path="url(#pa27079e10b)" d="M 80.402545 200.06 
L 83.433091 200.06 
L 83.433091 199.474163 
L 80.402545 199.474163 
z
" style="fill:#1a1a1a;"/>
   </g>
   <g id="patch_22">
    <path clip-path="url(#pa27079e10b)" d="M 83.433091 200.06 
L 86.463636 200.06 
L 86.463636 199.402803 
L 83.433091 199.402803 
z
" style="fill:#1a1a1a;"/>
   </g>
   <g id="patch_23">
    <path clip-path="url(#pa27079e10b)" d="M 86.463636 200.06 
L 89.494182 200.06 
L 89.494182 199.366144 
L 86.463636 199.366144 
z
" style="fill:#1a1a1a;"/>
   </g>
   <g id="patch_24">
    <path clip-path="url(#pa27079e10b)" d="M 89.494182 200.06 
L 92.524727 200.06 
L 92.524727 199.317994 
L 89.494182 199.317994 
z
" style="fill:#1a1a1a;"/>
   </g>
   <g id="patch_25">
    <path clip-path="url(#pa27079e10b)" d="M 92.524727 200.06 
L 95.555273 200.06 
L 95.555273 199.264497 
L 92.524727 199.264497 
z
" style="fill:#1a1a1a;"/>
   </g>
   <g id="patch_26">
    <path clip-path="url(#pa27079e10b)" d="M 95.555273 200.06 
L 98.585818 200.06 
L 98.585818 199.15397 
L 95.555273 199.15397 
z
" style="fill:#1a1a1a;"/>
   </g>
   <g id="patch_27">
    <path clip-path="url(#pa27079e10b)" d="M 98.585818 200.06 
L 101.616364 200.06 
L 101.616364 198.997313 
L 98.585818 198.997313 
z
" style="fill:#1a1a1a;"/>
   </g>
   <g id="patch_28">
    <path clip-path="url(#pa27079e10b)" d="M 101.616364 200.06 
L 104.646909 200.06 
L 104.646909 198.914349 
L 101.616364 198.914349 
z
" style="fill:#1a1a1a;"/>
   </g>
   <g id="patch_29">
    <path clip-path="url(#pa27079e10b)" d="M 104.646909 200.06 
L 107.677455 200.06 
L 107.677455 198.889412 
L 104.646909 198.889412 
z
" style="fill:#1a1a1a;"/>
   </g>
   <g id="patch_30">
    <path clip-path="url(#pa27079e10b)" d="M 107.677455 200.06 
L 110.708 200.06 
L 110.708 198.865959 
L 107.677455 198.865959 
z
" style="fill:#1a1a1a;"/>
   </g>
   <g id="patch_31">
    <path clip-path="url(#pa27079e10b)" d="M 110.708 200.06 
L 113.738545 200.06 
L 113.738545 198.780504 
L 110.708 198.780504 
z
" style="fill:#1a1a1a;"/>
   </g>
   <g id="patch_32">
    <path clip-path="url(#pa27079e10b)" d="M 113.738545 200.06 
L 116.769091 200.06 
L 116.769091 198.706207 
L 113.738545 198.706207 
z
" style="fill:#1a1a1a;"/>
   </g>
   <g id="patch_33">
    <path clip-path="url(#pa27079e10b)" d="M 116.769091 200.06 
L 119.799636 200.06 
L 119.799636 198.352695 
L 116.769091 198.352695 
z
" style="fill:#1a1a1a;"/>
   </g>
   <g id="patch_34">
    <path clip-path="url(#pa27079e10b)" d="M 119.799636 200.06 
L 122.830182 200.06 
L 122.830182 198.237179 
L 119.799636 198.237179 
z
" style="fill:#1a1a1a;"/>
   </g>
   <g id="patch_35">
    <path clip-path="url(#pa27079e10b)" d="M 122.830182 200.06 
L 125.860727 200.06 
L 125.860727 198.144651 
L 122.830182 198.144651 
z
" style="fill:#1a1a1a;"/>
   </g>
   <g id="patch_36">
    <path clip-path="url(#pa27079e10b)" d="M 125.860727 200.06 
L 128.891273 200.06 
L 128.891273 197.274555 
L 125.860727 197.274555 
z
" style="fill:#1a1a1a;"/>
   </g>
   <g id="patch_37">
    <path clip-path="url(#pa27079e10b)" d="M 128.891273 200.06 
L 131.921818 200.06 
L 131.921818 197.041055 
L 128.891273 197.041055 
z
" style="fill:#1a1a1a;"/>
   </g>
   <g id="patch_38">
    <path clip-path="url(#pa27079e10b)" d="M 131.921818 200.06 
L 134.952364 200.06 
L 134.952364 195.534648 
L 131.921818 195.534648 
z
" style="fill:#1a1a1a;"/>
   </g>
   <g id="patch_39">
    <path clip-path="url(#pa27079e10b)" d="M 134.952364 200.06 
L 137.982909 200.06 
L 137.982909 195.106582 
L 134.952364 195.106582 
z
" style="fill:#1a1a1a;"/>
   </g>
   <g id="patch_40">
    <path clip-path="url(#pa27079e10b)" d="M 137.982909 200.06 
L 141.013455 200.06 
L 141.013455 194.344833 
L 137.982909 194.344833 
z
" style="fill:#1a1a1a;"/>
   </g>
   <g id="patch_41">
    <path clip-path="url(#pa27079e10b)" d="M 141.013455 200.06 
L 144.044 200.06 
L 144.044 194.149927 
L 141.013455 194.149927 
z
" style="fill:#1a1a1a;"/>
   </g>
   <g id="patch_42">
    <path clip-path="url(#pa27079e10b)" d="M 144.044 200.06 
L 147.074545 200.06 
L 147.074545 190.538876 
L 144.044 190.538876 
z
" style="fill:#1a1a1a;"/>
   </g>
   <g id="patch_43">
    <path clip-path="url(#pa27079e10b)" d="M 147.074545 200.06 
L 150.105091 200.06 
L 150.105091 190.29478 
L 147.074545 190.29478 
z
" style="fill:#1a1a1a;"/>
   </g>
   <g id="patch_44">
    <path clip-path="url(#pa27079e10b)" d="M 150.105091 200.06 
L 153.135636 200.06 
L 153.135636 185.846576 
L 150.105091 185.846576 
z
" style="fill:#1a1a1a;"/>
   </g>
   <g id="patch_45">
    <path clip-path="url(#pa27079e10b)" d="M 153.135636 200.06 
L 156.166182 200.06 
L 156.166182 183.380608 
L 153.135636 183.380608 
z
" style="fill:#1a1a1a;"/>
   </g>
   <g id="patch_46">
    <path clip-path="url(#pa27079e10b)" d="M 156.166182 200.06 
L 159.196727 200.06 
L 159.196727 167.75287 
L 156.166182 167.75287 
z
" style="fill:#1a1a1a;"/>
   </g>
   <g id="patch_47">
    <path clip-path="url(#pa27079e10b)" d="M 159.196727 200.06 
L 162.227273 200.06 
L 162.227273 158.471635 
L 159.196727 158.471635 
z
" style="fill:#1a1a1a;"/>
   </g>
   <g id="patch_48">
    <path clip-path="url(#pa27079e10b)" d="M 162.227273 200.06 
L 165.257818 200.06 
L 165.257818 145.972763 
L 162.227273 145.972763 
z
" style="fill:#1a1a1a;"/>
   </g>
   <g id="patch_49">
    <path clip-path="url(#pa27079e10b)" d="M 165.257818 200.06 
L 168.288364 200.06 
L 168.288364 121.76009 
L 165.257818 121.76009 
z
" style="fill:#1a1a1a;"/>
   </g>
   <g id="patch_50">
    <path clip-path="url(#pa27079e10b)" d="M 168.288364 200.06 
L 171.318909 200.06 
L 171.318909 113.314088 
L 168.288364 113.314088 
z
" style="fill:#1a1a1a;"/>
   </g>
   <g id="patch_51">
    <path clip-path="url(#pa27079e10b)" d="M 171.318909 200.06 
L 174.349455 200.06 
L 174.349455 97.67475 
L 171.318909 97.67475 
z
" style="fill:#1a1a1a;"/>
   </g>
   <g id="patch_52">
    <path clip-path="url(#pa27079e10b)" d="M 174.349455 200.06 
L 177.38 200.06 
L 177.38 94.895053 
L 174.349455 94.895053 
z
" style="fill:#1a1a1a;"/>
   </g>
   <g id="patch_53">
    <path clip-path="url(#pa27079e10b)" d="M 177.38 200.06 
L 180.410545 200.06 
L 180.410545 91.012835 
L 177.38 91.012835 
z
" style="fill:#1a1a1a;"/>
   </g>
   <g id="patch_54">
    <path clip-path="url(#pa27079e10b)" d="M 180.410545 200.06 
L 183.441091 200.06 
L 183.441091 96.893942 
L 180.410545 96.893942 
z
" style="fill:#1a1a1a;"/>
   </g>
   <g id="patch_55">
    <path clip-path="url(#pa27079e10b)" d="M 183.441091 200.06 
L 186.471636 200.06 
L 186.471636 98.832963 
L 183.441091 98.832963 
z
" style="fill:#1a1a1a;"/>
   </g>
   <g id="patch_56">
    <path clip-path="url(#pa27079e10b)" d="M 186.471636 200.06 
L 189.502182 200.06 
L 189.502182 116.103529 
L 186.471636 116.103529 
z
" style="fill:#1a1a1a;"/>
   </g>
   <g id="patch_57">
    <path clip-path="url(#pa27079e10b)" d="M 189.502182 200.06 
L 192.532727 200.06 
L 192.532727 132.803318 
L 189.502182 132.803318 
z
" style="fill:#1a1a1a;"/>
   </g>
   <g id="patch_58">
    <path clip-path="url(#pa27079e10b)" d="M 192.532727 200.06 
L 195.563273 200.06 
L 195.563273 153.290106 
L 192.532727 153.290106 
z
" style="fill:#1a1a1a;"/>
   </g>
   <g id="patch_59">
    <path clip-path="url(#pa27079e10b)" d="M 195.563273 200.06 
L 198.593818 200.06 
L 198.593818 164.98326 
L 195.563273 164.98326 
z
" style="fill:#1a1a1a;"/>
   </g>
   <g id="patch_60">
    <path clip-path="url(#pa27079e10b)" d="M 198.593818 200.06 
L 201.624364 200.06 
L 201.624364 180.45488 
L 198.593818 180.45488 
z
" style="fill:#1a1a1a;"/>
   </g>
   <g id="patch_61">
    <path clip-path="url(#pa27079e10b)" d="M 201.624364 200.06 
L 204.654909 200.06 
L 204.654909 184.742752 
L 201.624364 184.742752 
z
" style="fill:#1a1a1a;"/>
   </g>
   <g id="patch_62">
    <path clip-path="url(#pa27079e10b)" d="M 204.654909 200.06 
L 207.685455 200.06 
L 207.685455 189.686487 
L 204.654909 189.686487 
z
" style="fill:#1a1a1a;"/>
   </g>
   <g id="patch_63">
    <path clip-path="url(#pa27079e10b)" d="M 207.685455 200.06 
L 210.716 200.06 
L 210.716 190.311819 
L 207.685455 190.311819 
z
" style="fill:#1a1a1a;"/>
   </g>
   <g id="patch_64">
    <path clip-path="url(#pa27079e10b)" d="M 210.716 200.06 
L 213.746545 200.06 
L 213.746545 192.712138 
L 210.716 192.712138 
z
" style="fill:#1a1a1a;"/>
   </g>
   <g id="patch_65">
    <path clip-path="url(#pa27079e10b)" d="M 213.746545 200.06 
L 216.777091 200.06 
L 216.777091 194.268175 
L 213.746545 194.268175 
z
" style="fill:#1a1a1a;"/>
   </g>
   <g id="patch_66">
    <path clip-path="url(#pa27079e10b)" d="M 216.777091 200.06 
L 219.807636 200.06 
L 219.807636 194.974873 
L 216.777091 194.974873 
z
" style="fill:#1a1a1a;"/>
   </g>
   <g id="patch_67">
    <path clip-path="url(#pa27079e10b)" d="M 219.807636 200.06 
L 222.838182 200.06 
L 222.838182 195.504716 
L 219.807636 195.504716 
z
" style="fill:#1a1a1a;"/>
   </g>
   <g id="patch_68">
    <path clip-path="url(#pa27079e10b)" d="M 222.838182 200.06 
L 225.868727 200.06 
L 225.868727 196.128321 
L 222.838182 196.128321 
z
" style="fill:#1a1a1a;"/>
   </g>
   <g id="patch_69">
    <path clip-path="url(#pa27079e10b)" d="M 225.868727 200.06 
L 228.899273 200.06 
L 228.899273 197.195791 
L 225.868727 197.195791 
z
" style="fill:#1a1a1a;"/>
   </g>
   <g id="patch_70">
    <path clip-path="url(#pa27079e10b)" d="M 228.899273 200.06 
L 231.929818 200.06 
L 231.929818 198.092405 
L 228.899273 198.092405 
z
" style="fill:#1a1a1a;"/>
   </g>
   <g id="patch_71">
    <path clip-path="url(#pa27079e10b)" d="M 231.929818 200.06 
L 234.960364 200.06 
L 234.960364 198.174255 
L 231.929818 198.174255 
z
" style="fill:#1a1a1a;"/>
   </g>
   <g id="patch_72">
    <path clip-path="url(#pa27079e10b)" d="M 234.960364 200.06 
L 237.990909 200.06 
L 237.990909 198.295733 
L 234.960364 198.295733 
z
" style="fill:#1a1a1a;"/>
   </g>
   <g id="patch_73">
    <path clip-path="url(#pa27079e10b)" d="M 237.990909 200.06 
L 241.021455 200.06 
L 241.021455 198.415517 
L 237.990909 198.415517 
z
" style="fill:#1a1a1a;"/>
   </g>
   <g id="patch_74">
    <path clip-path="url(#pa27079e10b)" d="M 241.021455 200.06 
L 244.052 200.06 
L 244.052 198.707255 
L 241.021455 198.707255 
z
" style="fill:#1a1a1a;"/>
   </g>
   <g id="patch_75">
    <path clip-path="url(#pa27079e10b)" d="M 244.052 200.06 
L 247.082545 200.06 
L 247.082545 198.838228 
L 244.052 198.838228 
z
" style="fill:#1a1a1a;"/>
   </g>
   <g id="patch_76">
    <path clip-path="url(#pa27079e10b)" d="M 247.082545 200.06 
L 250.113091 200.06 
L 250.113091 198.876257 
L 247.082545 198.876257 
z
" style="fill:#1a1a1a;"/>
   </g>
   <g id="patch_77">
    <path clip-path="url(#pa27079e10b)" d="M 250.113091 200.06 
L 253.143636 200.06 
L 253.143636 198.912609 
L 250.113091 198.912609 
z
" style="fill:#1a1a1a;"/>
   </g>
   <g id="patch_78">
    <path clip-path="url(#pa27079e10b)" d="M 253.143636 200.06 
L 256.174182 200.06 
L 256.174182 198.94215 
L 253.143636 198.94215 
z
" style="fill:#1a1a1a;"/>
   </g>
   <g id="patch_79">
    <path clip-path="url(#pa27079e10b)" d="M 256.174182 200.06 
L 259.204727 200.06 
L 259.204727 199.003483 
L 256.174182 199.003483 
z
" style="fill:#1a1a1a;"/>
   </g>
   <g id="patch_80">
    <path clip-path="url(#pa27079e10b)" d="M 259.204727 200.06 
L 262.235273 200.06 
L 262.235273 199.183557 
L 259.204727 199.183557 
z
" style="fill:#1a1a1a;"/>
   </g>
   <g id="patch_81">
    <path clip-path="url(#pa27079e10b)" d="M 262.235273 200.06 
L 265.265818 200.06 
L 265.265818 199.268699 
L 262.235273 199.268699 
z
" style="fill:#1a1a1a;"/>
   </g>
   <g id="patch_82">
    <path clip-path="url(#pa27079e10b)" d="M 265.265818 200.06 
L 268.296364 200.06 
L 268.296364 199.356995 
L 265.265818 199.356995 
z
" style="fill:#1a1a1a;"/>
   </g>
   <g id="patch_83">
    <path clip-path="url(#pa27079e10b)" d="M 268.296364 200.06 
L 271.326909 200.06 
L 271.326909 199.391594 
L 268.296364 199.391594 
z
" style="fill:#1a1a1a;"/>
   </g>
   <g id="patch_84">
    <path clip-path="url(#pa27079e10b)" d="M 271.326909 200.06 
L 274.357455 200.06 
L 274.357455 199.466135 
L 271.326909 199.466135 
z
" style="fill:#1a1a1a;"/>
   </g>
   <g id="patch_85">
    <path clip-path="url(#pa27079e10b)" d="M 274.357455 200.06 
L 277.388 200.06 
L 277.388 199.48265 
L 274.357455 199.48265 
z
" style="fill:#1a1a1a;"/>
   </g>
   <g id="patch_86">
    <path clip-path="url(#pa27079e10b)" d="M 277.388 200.06 
L 280.418545 200.06 
L 280.418545 199.518387 
L 277.388 199.518387 
z
" style="fill:#1a1a1a;"/>
   </g>
   <g id="patch_87">
    <path clip-path="url(#pa27079e10b)" d="M 280.418545 200.06 
L 283.449091 200.06 
L 283.449091 199.605115 
L 280.418545 199.605115 
z
" style="fill:#1a1a1a;"/>
   </g>
   <g id="patch_88">
    <path clip-path="url(#pa27079e10b)" d="M 283.449091 200.06 
L 286.479636 200.06 
L 286.479636 199.632709 
L 283.449091 199.632709 
z
" style="fill:#1a1a1a;"/>
   </g>
   <g id="patch_89">
    <path clip-path="url(#pa27079e10b)" d="M 286.479636 200.06 
L 289.510182 200.06 
L 289.510182 199.652315 
L 286.479636 199.652315 
z
" style="fill:#1a1a1a;"/>
   </g>
   <g id="patch_90">
    <path clip-path="url(#pa27079e10b)" d="M 289.510182 200.06 
L 292.540727 200.06 
L 292.540727 199.702651 
L 289.510182 199.702651 
z
" style="fill:#1a1a1a;"/>
   </g>
   <g id="patch_91">
    <path clip-path="url(#pa27079e10b)" d="M 292.540727 200.06 
L 295.571273 200.06 
L 295.571273 199.749408 
L 292.540727 199.749408 
z
" style="fill:#1a1a1a;"/>
   </g>
   <g id="patch_92">
    <path clip-path="url(#pa27079e10b)" d="M 295.571273 200.06 
L 298.601818 200.06 
L 298.601818 199.774634 
L 295.571273 199.774634 
z
" style="fill:#1a1a1a;"/>
   </g>
   <g id="patch_93">
    <path clip-path="url(#pa27079e10b)" d="M 298.601818 200.06 
L 301.632364 200.06 
L 301.632364 199.78044 
L 298.601818 199.78044 
z
" style="fill:#1a1a1a;"/>
   </g>
   <g id="patch_94">
    <path clip-path="url(#pa27079e10b)" d="M 301.632364 200.06 
L 304.662909 200.06 
L 304.662909 199.799467 
L 301.632364 199.799467 
z
" style="fill:#1a1a1a;"/>
   </g>
   <g id="patch_95">
    <path clip-path="url(#pa27079e10b)" d="M 304.662909 200.06 
L 307.693455 200.06 
L 307.693455 199.82566 
L 304.662909 199.82566 
z
" style="fill:#1a1a1a;"/>
   </g>
   <g id="patch_96">
    <path clip-path="url(#pa27079e10b)" d="M 307.693455 200.06 
L 310.724 200.06 
L 310.724 199.851674 
L 307.693455 199.851674 
z
" style="fill:#1a1a1a;"/>
   </g>
   <g id="patch_97">
    <path clip-path="url(#pa27079e10b)" d="M 310.724 200.06 
L 313.754545 200.06 
L 313.754545 199.892156 
L 310.724 199.892156 
z
" style="fill:#1a1a1a;"/>
   </g>
   <g id="patch_98">
    <path clip-path="url(#pa27079e10b)" d="M 313.754545 200.06 
L 316.785091 200.06 
L 316.785091 199.897987 
L 313.754545 199.897987 
z
" style="fill:#1a1a1a;"/>
   </g>
   <g id="patch_99">
    <path clip-path="url(#pa27079e10b)" d="M 316.785091 200.06 
L 319.815636 200.06 
L 319.815636 199.923803 
L 316.785091 199.923803 
z
" style="fill:#1a1a1a;"/>
   </g>
   <g id="patch_100">
    <path clip-path="url(#pa27079e10b)" d="M 319.815636 200.06 
L 322.846182 200.06 
L 322.846182 199.958755 
L 319.815636 199.958755 
z
" style="fill:#1a1a1a;"/>
   </g>
   <g id="patch_101">
    <path clip-path="url(#pa27079e10b)" d="M 322.846182 200.06 
L 325.876727 200.06 
L 325.876727 199.986002 
L 322.846182 199.986002 
z
" style="fill:#1a1a1a;"/>
   </g>
   <g id="patch_102">
    <path clip-path="url(#pa27079e10b)" d="M 325.876727 200.06 
L 328.907273 200.06 
L 328.907273 199.99576 
L 325.876727 199.99576 
z
" style="fill:#1a1a1a;"/>
   </g>
   <g id="matplotlib.axis_1"/>
   <g id="matplotlib.axis_2"/>
   <g id="patch_103">
    <path d="M 10.7 200.06 
L 10.7 10.7 
" style="fill:none;stroke:#000000;stroke-linecap:square;stroke-linejoin:miter;stroke-width:0.8;"/>
   </g>
   <g id="patch_104">
    <path d="M 344.06 200.06 
L 344.06 10.7 
" style="fill:none;stroke:#000000;stroke-linecap:square;stroke-linejoin:miter;stroke-width:0.8;"/>
   </g>
   <g id="patch_105">
    <path d="M 10.7 200.06 
L 344.06 200.06 
" style="fill:none;stroke:#000000;stroke-linecap:square;stroke-linejoin:miter;stroke-width:0.8;"/>
   </g>
   <g id="patch_106">
    <path d="M 10.7 10.7 
L 344.06 10.7 
" style="fill:none;stroke:#000000;stroke-linecap:square;stroke-linejoin:miter;stroke-width:0.8;"/>
   </g>
  </g>
 </g>
 <defs>
  <clipPath id="pa27079e10b">
   <rect height="189.36" width="333.36" x="10.7" y="10.7"/>
  </clipPath>
 </defs>
</svg>
