<?xml version="1.0" encoding="utf-8" standalone="no"?>
<!DOCTYPE svg PUBLIC "-//W3C//DTD SVG 1.1//EN"
  "http://www.w3.org/Graphics/SVG/1.1/DTD/svg11.dtd">
<!-- Created with matplotlib (http://matplotlib.org/) -->
<svg height="173pt" version="1.1" viewBox="0 0 245 173" width="245pt" xmlns="http://www.w3.org/2000/svg" xmlns:xlink="http://www.w3.org/1999/xlink">
 <defs>
  <style type="text/css">
*{stroke-linecap:butt;stroke-linejoin:round;}
  </style>
 </defs>
 <g id="figure_1">
  <g id="patch_1">
   <path d="M 0 173.037711 
L 245.8475 173.037711 
L 245.8475 0 
L 0 0 
z
" style="fill:#ffffff;"/>
  </g>
  <g id="axes_1">
   <g id="patch_2">
    <path d="M 48.5575 141.417086 
L 235.1475 141.417086 
L 235.1475 12.764809 
L 48.5575 12.764809 
z
" style="fill:#ffffff;"/>
   </g>
   <g id="patch_3">
    <path clip-path="url(#p7d1ec95494)" d="M 59.048504 141.417086 
L 59.048504 12.764809 
L 70.288865 12.764809 
L 70.288865 141.417086 
z
" style="fill:#ff0000;opacity:0.15;stroke:#ff0000;stroke-linejoin:miter;"/>
   </g>
   <g id="patch_4">
    <path clip-path="url(#p7d1ec95494)" d="M 81.529227 141.417086 
L 81.529227 12.764809 
L 91.270873 12.764809 
L 91.270873 141.417086 
z
" style="fill:#ff0000;opacity:0.15;stroke:#ff0000;stroke-linejoin:miter;"/>
   </g>
   <g id="patch_5">
    <path clip-path="url(#p7d1ec95494)" d="M 109.255452 141.417086 
L 109.255452 12.764809 
L 197.679629 12.764809 
L 197.679629 141.417086 
z
" style="fill:#ff0000;opacity:0.15;stroke:#ff0000;stroke-linejoin:miter;"/>
   </g>
   <g id="matplotlib.axis_1">
    <g id="xtick_1">
     <g id="line2d_1">
      <defs>
       <path d="M 0 0 
L 0 3.5 
" id="m1bf7d9ea1e" style="stroke:#000000;stroke-width:0.8;"/>
      </defs>
      <g>
       <use style="stroke:#000000;stroke-width:0.8;" x="48.5575" xlink:href="#m1bf7d9ea1e" y="141.417086"/>
      </g>
     </g>
     <g id="text_1">
      <!-- 0 -->
      <defs>
       <path d="M 31.78125 66.40625 
Q 24.171875 66.40625 20.328125 58.90625 
Q 16.5 51.421875 16.5 36.375 
Q 16.5 21.390625 20.328125 13.890625 
Q 24.171875 6.390625 31.78125 6.390625 
Q 39.453125 6.390625 43.28125 13.890625 
Q 47.125 21.390625 47.125 36.375 
Q 47.125 51.421875 43.28125 58.90625 
Q 39.453125 66.40625 31.78125 66.40625 
z
M 31.78125 74.21875 
Q 44.046875 74.21875 50.515625 64.515625 
Q 56.984375 54.828125 56.984375 36.375 
Q 56.984375 17.96875 50.515625 8.265625 
Q 44.046875 -1.421875 31.78125 -1.421875 
Q 19.53125 -1.421875 13.0625 8.265625 
Q 6.59375 17.96875 6.59375 36.375 
Q 6.59375 54.828125 13.0625 64.515625 
Q 19.53125 74.21875 31.78125 74.21875 
z
" id="DejaVuSans-30"/>
      </defs>
      <g transform="translate(42.83125 162.094274)scale(0.18 -0.18)">
       <use xlink:href="#DejaVuSans-30"/>
      </g>
     </g>
    </g>
    <g id="xtick_2">
     <g id="line2d_2">
      <g>
       <use style="stroke:#000000;stroke-width:0.8;" x="123.493243" xlink:href="#m1bf7d9ea1e" y="141.417086"/>
      </g>
     </g>
     <g id="text_2">
      <!-- 1 -->
      <defs>
       <path d="M 12.40625 8.296875 
L 28.515625 8.296875 
L 28.515625 63.921875 
L 10.984375 60.40625 
L 10.984375 69.390625 
L 28.421875 72.90625 
L 38.28125 72.90625 
L 38.28125 8.296875 
L 54.390625 8.296875 
L 54.390625 0 
L 12.40625 0 
z
" id="DejaVuSans-31"/>
      </defs>
      <g transform="translate(117.766993 162.094274)scale(0.18 -0.18)">
       <use xlink:href="#DejaVuSans-31"/>
      </g>
     </g>
    </g>
    <g id="xtick_3">
     <g id="line2d_3">
      <g>
       <use style="stroke:#000000;stroke-width:0.8;" x="198.428986" xlink:href="#m1bf7d9ea1e" y="141.417086"/>
      </g>
     </g>
     <g id="text_3">
      <!-- 2 -->
      <defs>
       <path d="M 19.1875 8.296875 
L 53.609375 8.296875 
L 53.609375 0 
L 7.328125 0 
L 7.328125 8.296875 
Q 12.9375 14.109375 22.625 23.890625 
Q 32.328125 33.6875 34.8125 36.53125 
Q 39.546875 41.84375 41.421875 45.53125 
Q 43.3125 49.21875 43.3125 52.78125 
Q 43.3125 58.59375 39.234375 62.25 
Q 35.15625 65.921875 28.609375 65.921875 
Q 23.96875 65.921875 18.8125 64.3125 
Q 13.671875 62.703125 7.8125 59.421875 
L 7.8125 69.390625 
Q 13.765625 71.78125 18.9375 73 
Q 24.125 74.21875 28.421875 74.21875 
Q 39.75 74.21875 46.484375 68.546875 
Q 53.21875 62.890625 53.21875 53.421875 
Q 53.21875 48.921875 51.53125 44.890625 
Q 49.859375 40.875 45.40625 35.40625 
Q 44.1875 33.984375 37.640625 27.21875 
Q 31.109375 20.453125 19.1875 8.296875 
z
" id="DejaVuSans-32"/>
      </defs>
      <g transform="translate(192.702736 162.094274)scale(0.18 -0.18)">
       <use xlink:href="#DejaVuSans-32"/>
      </g>
     </g>
    </g>
   </g>
   <g id="matplotlib.axis_2">
    <g id="ytick_1">
     <g id="line2d_4">
      <defs>
       <path d="M 0 0 
L -3.5 0 
" id="m6a29169fd1" style="stroke:#000000;stroke-width:0.8;"/>
      </defs>
      <g>
       <use style="stroke:#000000;stroke-width:0.8;" x="48.5575" xlink:href="#m6a29169fd1" y="141.417086"/>
      </g>
     </g>
     <g id="text_4">
      <!-- 0 -->
      <g transform="translate(30.105 148.25568)scale(0.18 -0.18)">
       <use xlink:href="#DejaVuSans-30"/>
      </g>
     </g>
    </g>
    <g id="ytick_2">
     <g id="line2d_5">
      <g>
       <use style="stroke:#000000;stroke-width:0.8;" x="48.5575" xlink:href="#m6a29169fd1" y="77.72784"/>
      </g>
     </g>
     <g id="text_5">
      <!-- 50 -->
      <defs>
       <path d="M 10.796875 72.90625 
L 49.515625 72.90625 
L 49.515625 64.59375 
L 19.828125 64.59375 
L 19.828125 46.734375 
Q 21.96875 47.46875 24.109375 47.828125 
Q 26.265625 48.1875 28.421875 48.1875 
Q 40.625 48.1875 47.75 41.5 
Q 54.890625 34.8125 54.890625 23.390625 
Q 54.890625 11.625 47.5625 5.09375 
Q 40.234375 -1.421875 26.90625 -1.421875 
Q 22.3125 -1.421875 17.546875 -0.640625 
Q 12.796875 0.140625 7.71875 1.703125 
L 7.71875 11.625 
Q 12.109375 9.234375 16.796875 8.0625 
Q 21.484375 6.890625 26.703125 6.890625 
Q 35.15625 6.890625 40.078125 11.328125 
Q 45.015625 15.765625 45.015625 23.390625 
Q 45.015625 31 40.078125 35.4375 
Q 35.15625 39.890625 26.703125 39.890625 
Q 22.75 39.890625 18.8125 39.015625 
Q 14.890625 38.140625 10.796875 36.28125 
z
" id="DejaVuSans-35"/>
      </defs>
      <g transform="translate(18.6525 84.566434)scale(0.18 -0.18)">
       <use xlink:href="#DejaVuSans-35"/>
       <use x="63.623047" xlink:href="#DejaVuSans-30"/>
      </g>
     </g>
    </g>
    <g id="ytick_3">
     <g id="line2d_6">
      <g>
       <use style="stroke:#000000;stroke-width:0.8;" x="48.5575" xlink:href="#m6a29169fd1" y="14.038594"/>
      </g>
     </g>
     <g id="text_6">
      <!-- 100 -->
      <g transform="translate(7.2 20.877188)scale(0.18 -0.18)">
       <use xlink:href="#DejaVuSans-31"/>
       <use x="63.623047" xlink:href="#DejaVuSans-30"/>
       <use x="127.246094" xlink:href="#DejaVuSans-30"/>
      </g>
     </g>
    </g>
   </g>
   <g id="line2d_7">
    <path clip-path="url(#p7d1ec95494)" d="M 48.5575 141.417086 
L 53.803002 141.388433 
L 54.552359 141.300964 
L 55.301717 141.046707 
L 56.051074 140.469869 
L 56.800432 139.426019 
L 57.549789 137.841477 
L 58.299147 135.66801 
L 59.048504 132.844181 
L 60.547219 126.216054 
L 61.296576 123.895342 
L 62.045934 123.145454 
L 62.795291 123.858223 
L 64.294006 126.7617 
L 65.043363 127.660084 
L 65.792721 127.928671 
L 67.291436 127.44374 
L 68.040793 127.537203 
L 68.790151 128.522102 
L 69.539508 130.614712 
L 71.038223 136.469037 
L 71.78758 138.751569 
L 72.536938 139.98457 
L 73.286295 140.215375 
L 74.035653 139.77097 
L 74.78501 139.151466 
L 75.534367 138.87215 
L 76.283725 139.174343 
L 77.78244 140.585773 
L 78.531797 141.037726 
L 79.281155 141.153188 
L 80.030512 140.866855 
L 80.779869 139.964317 
L 81.529227 138.125738 
L 82.278584 135.175487 
L 84.526657 123.510717 
L 85.276014 120.704417 
L 86.025371 119.014868 
L 86.774729 118.55819 
L 87.524086 119.397331 
L 88.273444 121.393573 
L 89.772159 127.153082 
L 92.020231 136.172325 
L 92.769588 138.52628 
L 93.518946 140.095627 
L 94.268303 140.926088 
L 95.017661 141.270811 
L 96.516376 141.410676 
L 105.508665 141.40747 
L 106.258022 141.36513 
L 107.00738 141.197673 
L 107.756737 140.682293 
L 108.506094 139.447293 
L 109.255452 137.147373 
L 111.503524 127.079728 
L 112.252882 125.295313 
L 113.002239 124.806895 
L 113.751596 125.154685 
L 114.500954 125.784817 
L 115.250311 126.238106 
L 115.999669 126.178626 
L 116.749026 125.461562 
L 118.997098 121.664334 
L 119.746456 121.166352 
L 120.495813 121.554252 
L 121.245171 122.776424 
L 122.743886 125.809381 
L 123.493243 126.48199 
L 124.2426 126.297497 
L 124.991958 125.437805 
L 126.490673 123.012955 
L 127.24003 122.267231 
L 127.989388 122.371693 
L 128.738745 123.536057 
L 129.488102 125.669726 
L 130.23746 128.21571 
L 130.986817 130.156015 
L 131.736175 130.577035 
L 132.485532 129.465718 
L 133.23489 127.759452 
L 133.984247 126.418222 
L 136.981677 123.161671 
L 137.731034 122.861607 
L 138.480392 123.022434 
L 139.229749 123.576368 
L 139.979106 124.605324 
L 141.477821 127.584858 
L 142.227179 128.502545 
L 142.976536 128.550171 
L 143.725894 127.940495 
L 145.224608 126.065838 
L 145.973966 124.818254 
L 148.222038 120.190726 
L 148.971396 119.479339 
L 150.47011 119.025014 
L 151.219468 118.245187 
L 151.968825 116.821558 
L 152.718183 114.965863 
L 153.46754 112.602937 
L 154.216898 109.057173 
L 154.966255 103.680793 
L 157.214327 83.51164 
L 157.963685 79.110055 
L 158.713042 76.52315 
L 159.4624 75.715422 
L 160.211757 76.475677 
L 161.710472 80.251673 
L 163.958544 85.944789 
L 164.707902 86.916563 
L 165.457259 85.931226 
L 166.206616 82.155563 
L 166.955974 75.792063 
L 168.454689 61.381778 
L 169.204046 56.852906 
L 169.953404 55.206306 
L 170.702761 55.98209 
L 171.452118 58.179819 
L 172.950833 63.225071 
L 173.700191 64.939407 
L 174.449548 65.811734 
L 175.198906 66.000383 
L 175.948263 65.938799 
L 176.69762 66.192326 
L 177.446978 67.17052 
L 178.945693 70.394136 
L 179.69505 71.338907 
L 180.444408 71.432327 
L 181.943122 70.814585 
L 183.441837 71.021021 
L 184.191195 70.501188 
L 184.940552 68.924915 
L 185.68991 66.380544 
L 187.188624 60.389719 
L 190.186054 49.758843 
L 193.183484 35.876863 
L 193.932841 34.164211 
L 194.682199 35.064401 
L 195.431556 40.595659 
L 196.180914 52.528432 
L 196.930271 70.677988 
L 198.428986 111.801955 
L 199.178343 126.48385 
L 199.927701 135.175174 
L 200.677058 139.280511 
L 201.426416 140.824537 
L 202.175773 141.285402 
L 203.674488 141.414529 
L 235.1475 141.417086 
L 235.1475 141.417086 
" style="fill:none;stroke:#000000;stroke-linecap:square;stroke-width:2;"/>
   </g>
   <g id="patch_6">
    <path d="M 48.5575 141.417086 
L 48.5575 12.764809 
" style="fill:none;stroke:#000000;stroke-linecap:square;stroke-linejoin:miter;stroke-width:0.8;"/>
   </g>
   <g id="patch_7">
    <path d="M 235.1475 141.417086 
L 235.1475 12.764809 
" style="fill:none;stroke:#000000;stroke-linecap:square;stroke-linejoin:miter;stroke-width:0.8;"/>
   </g>
   <g id="patch_8">
    <path d="M 48.5575 141.417086 
L 235.1475 141.417086 
" style="fill:none;stroke:#000000;stroke-linecap:square;stroke-linejoin:miter;stroke-width:0.8;"/>
   </g>
   <g id="patch_9">
    <path d="M 48.5575 12.764809 
L 235.1475 12.764809 
" style="fill:none;stroke:#000000;stroke-linecap:square;stroke-linejoin:miter;stroke-width:0.8;"/>
   </g>
  </g>
 </g>
 <defs>
  <clipPath id="p7d1ec95494">
   <rect height="128.652277" width="186.59" x="48.5575" y="12.764809"/>
  </clipPath>
 </defs>
</svg>
