<?xml version="1.0" encoding="utf-8" standalone="no"?>
<!DOCTYPE svg PUBLIC "-//W3C//DTD SVG 1.1//EN"
  "http://www.w3.org/Graphics/SVG/1.1/DTD/svg11.dtd">
<!-- Created with matplotlib (http://matplotlib.org/) -->
<svg height="354pt" version="1.1" viewBox="0 0 411 354" width="411pt" xmlns="http://www.w3.org/2000/svg" xmlns:xlink="http://www.w3.org/1999/xlink">
 <defs>
  <style type="text/css">
*{stroke-linecap:butt;stroke-linejoin:round;}
  </style>
 </defs>
 <g id="figure_1">
  <g id="patch_1">
   <path d="M -0 354.04 
L 411.17683 354.04 
L 411.17683 0 
L -0 0 
z
" style="fill:#ffffff;"/>
  </g>
  <g id="axes_1">
   <g id="patch_2">
    <path d="M 81.619687 343.34 
L 400.47683 343.34 
L 400.47683 10.7 
L 81.619687 10.7 
z
" style="fill:#ffffff;"/>
   </g>
   <g id="matplotlib.axis_1"/>
   <g id="matplotlib.axis_2">
    <g id="ytick_1">
     <g id="line2d_1">
      <defs>
       <path d="M 0 0 
L -3.5 0 
" id="mec8b5e9b80" style="stroke:#000000;stroke-width:0.8;"/>
      </defs>
      <g>
       <use style="stroke:#000000;stroke-width:0.8;" x="81.619687" xlink:href="#mec8b5e9b80" y="291.647477"/>
      </g>
     </g>
     <g id="text_1">
      <!-- −0.06 -->
      <defs>
       <path d="M 10.59375 35.5 
L 73.1875 35.5 
L 73.1875 27.203125 
L 10.59375 27.203125 
z
" id="DejaVuSans-2212"/>
       <path d="M 31.78125 66.40625 
Q 24.171875 66.40625 20.328125 58.90625 
Q 16.5 51.421875 16.5 36.375 
Q 16.5 21.390625 20.328125 13.890625 
Q 24.171875 6.390625 31.78125 6.390625 
Q 39.453125 6.390625 43.28125 13.890625 
Q 47.125 21.390625 47.125 36.375 
Q 47.125 51.421875 43.28125 58.90625 
Q 39.453125 66.40625 31.78125 66.40625 
z
M 31.78125 74.21875 
Q 44.046875 74.21875 50.515625 64.515625 
Q 56.984375 54.828125 56.984375 36.375 
Q 56.984375 17.96875 50.515625 8.265625 
Q 44.046875 -1.421875 31.78125 -1.421875 
Q 19.53125 -1.421875 13.0625 8.265625 
Q 6.59375 17.96875 6.59375 36.375 
Q 6.59375 54.828125 13.0625 64.515625 
Q 19.53125 74.21875 31.78125 74.21875 
z
" id="DejaVuSans-30"/>
       <path d="M 10.6875 12.40625 
L 21 12.40625 
L 21 0 
L 10.6875 0 
z
" id="DejaVuSans-2e"/>
       <path d="M 33.015625 40.375 
Q 26.375 40.375 22.484375 35.828125 
Q 18.609375 31.296875 18.609375 23.390625 
Q 18.609375 15.53125 22.484375 10.953125 
Q 26.375 6.390625 33.015625 6.390625 
Q 39.65625 6.390625 43.53125 10.953125 
Q 47.40625 15.53125 47.40625 23.390625 
Q 47.40625 31.296875 43.53125 35.828125 
Q 39.65625 40.375 33.015625 40.375 
z
M 52.59375 71.296875 
L 52.59375 62.3125 
Q 48.875 64.0625 45.09375 64.984375 
Q 41.3125 65.921875 37.59375 65.921875 
Q 27.828125 65.921875 22.671875 59.328125 
Q 17.53125 52.734375 16.796875 39.40625 
Q 19.671875 43.65625 24.015625 45.921875 
Q 28.375 48.1875 33.59375 48.1875 
Q 44.578125 48.1875 50.953125 41.515625 
Q 57.328125 34.859375 57.328125 23.390625 
Q 57.328125 12.15625 50.6875 5.359375 
Q 44.046875 -1.421875 33.015625 -1.421875 
Q 20.359375 -1.421875 13.671875 8.265625 
Q 6.984375 17.96875 6.984375 36.375 
Q 6.984375 53.65625 15.1875 63.9375 
Q 23.390625 74.21875 37.203125 74.21875 
Q 40.921875 74.21875 44.703125 73.484375 
Q 48.484375 72.75 52.59375 71.296875 
z
" id="DejaVuSans-36"/>
      </defs>
      <g transform="translate(7.2 300.005758)scale(0.22 -0.22)">
       <use xlink:href="#DejaVuSans-2212"/>
       <use x="83.789062" xlink:href="#DejaVuSans-30"/>
       <use x="147.412109" xlink:href="#DejaVuSans-2e"/>
       <use x="179.199219" xlink:href="#DejaVuSans-30"/>
       <use x="242.822266" xlink:href="#DejaVuSans-36"/>
      </g>
     </g>
    </g>
    <g id="ytick_2">
     <g id="line2d_2">
      <g>
       <use style="stroke:#000000;stroke-width:0.8;" x="81.619687" xlink:href="#mec8b5e9b80" y="231.222888"/>
      </g>
     </g>
     <g id="text_2">
      <!-- −0.04 -->
      <defs>
       <path d="M 37.796875 64.3125 
L 12.890625 25.390625 
L 37.796875 25.390625 
z
M 35.203125 72.90625 
L 47.609375 72.90625 
L 47.609375 25.390625 
L 58.015625 25.390625 
L 58.015625 17.1875 
L 47.609375 17.1875 
L 47.609375 0 
L 37.796875 0 
L 37.796875 17.1875 
L 4.890625 17.1875 
L 4.890625 26.703125 
z
" id="DejaVuSans-34"/>
      </defs>
      <g transform="translate(7.2 239.581169)scale(0.22 -0.22)">
       <use xlink:href="#DejaVuSans-2212"/>
       <use x="83.789062" xlink:href="#DejaVuSans-30"/>
       <use x="147.412109" xlink:href="#DejaVuSans-2e"/>
       <use x="179.199219" xlink:href="#DejaVuSans-30"/>
       <use x="242.822266" xlink:href="#DejaVuSans-34"/>
      </g>
     </g>
    </g>
    <g id="ytick_3">
     <g id="line2d_3">
      <g>
       <use style="stroke:#000000;stroke-width:0.8;" x="81.619687" xlink:href="#mec8b5e9b80" y="170.798299"/>
      </g>
     </g>
     <g id="text_3">
      <!-- −0.02 -->
      <defs>
       <path d="M 19.1875 8.296875 
L 53.609375 8.296875 
L 53.609375 0 
L 7.328125 0 
L 7.328125 8.296875 
Q 12.9375 14.109375 22.625 23.890625 
Q 32.328125 33.6875 34.8125 36.53125 
Q 39.546875 41.84375 41.421875 45.53125 
Q 43.3125 49.21875 43.3125 52.78125 
Q 43.3125 58.59375 39.234375 62.25 
Q 35.15625 65.921875 28.609375 65.921875 
Q 23.96875 65.921875 18.8125 64.3125 
Q 13.671875 62.703125 7.8125 59.421875 
L 7.8125 69.390625 
Q 13.765625 71.78125 18.9375 73 
Q 24.125 74.21875 28.421875 74.21875 
Q 39.75 74.21875 46.484375 68.546875 
Q 53.21875 62.890625 53.21875 53.421875 
Q 53.21875 48.921875 51.53125 44.890625 
Q 49.859375 40.875 45.40625 35.40625 
Q 44.1875 33.984375 37.640625 27.21875 
Q 31.109375 20.453125 19.1875 8.296875 
z
" id="DejaVuSans-32"/>
      </defs>
      <g transform="translate(7.2 179.156581)scale(0.22 -0.22)">
       <use xlink:href="#DejaVuSans-2212"/>
       <use x="83.789062" xlink:href="#DejaVuSans-30"/>
       <use x="147.412109" xlink:href="#DejaVuSans-2e"/>
       <use x="179.199219" xlink:href="#DejaVuSans-30"/>
       <use x="242.822266" xlink:href="#DejaVuSans-32"/>
      </g>
     </g>
    </g>
    <g id="ytick_4">
     <g id="line2d_4">
      <g>
       <use style="stroke:#000000;stroke-width:0.8;" x="81.619687" xlink:href="#mec8b5e9b80" y="110.373711"/>
      </g>
     </g>
     <g id="text_4">
      <!-- 0.00 -->
      <g transform="translate(25.635312 118.731992)scale(0.22 -0.22)">
       <use xlink:href="#DejaVuSans-30"/>
       <use x="63.623047" xlink:href="#DejaVuSans-2e"/>
       <use x="95.410156" xlink:href="#DejaVuSans-30"/>
       <use x="159.033203" xlink:href="#DejaVuSans-30"/>
      </g>
     </g>
    </g>
    <g id="ytick_5">
     <g id="line2d_5">
      <g>
       <use style="stroke:#000000;stroke-width:0.8;" x="81.619687" xlink:href="#mec8b5e9b80" y="49.949122"/>
      </g>
     </g>
     <g id="text_5">
      <!-- 0.02 -->
      <g transform="translate(25.635312 58.307403)scale(0.22 -0.22)">
       <use xlink:href="#DejaVuSans-30"/>
       <use x="63.623047" xlink:href="#DejaVuSans-2e"/>
       <use x="95.410156" xlink:href="#DejaVuSans-30"/>
       <use x="159.033203" xlink:href="#DejaVuSans-32"/>
      </g>
     </g>
    </g>
   </g>
   <g id="patch_3">
    <path clip-path="url(#pb70d313ee7)" d="M 96.113194 110.373711 
L 110.6067 110.373711 
L 110.6067 105.40882 
L 96.113194 105.40882 
z
" style="fill:#d92523;"/>
   </g>
   <g id="patch_4">
    <path clip-path="url(#pb70d313ee7)" d="M 110.6067 110.373711 
L 125.100207 110.373711 
L 125.100207 110.316426 
L 110.6067 110.316426 
z
" style="fill:#d92523;"/>
   </g>
   <g id="patch_5">
    <path clip-path="url(#pb70d313ee7)" d="M 125.100207 110.373711 
L 139.593713 110.373711 
L 139.593713 115.934107 
L 125.100207 115.934107 
z
" style="fill:#d92523;"/>
   </g>
   <g id="patch_6">
    <path clip-path="url(#pb70d313ee7)" d="M 139.593713 110.373711 
L 154.08722 110.373711 
L 154.08722 60.282556 
L 139.593713 60.282556 
z
" style="fill:#d92523;"/>
   </g>
   <g id="patch_7">
    <path clip-path="url(#pb70d313ee7)" d="M 154.08722 110.373711 
L 168.580726 110.373711 
L 168.580726 113.895267 
L 154.08722 113.895267 
z
" style="fill:#d92523;"/>
   </g>
   <g id="patch_8">
    <path clip-path="url(#pb70d313ee7)" d="M 168.580726 110.373711 
L 183.074233 110.373711 
L 183.074233 108.21167 
L 168.580726 108.21167 
z
" style="fill:#d92523;"/>
   </g>
   <g id="patch_9">
    <path clip-path="url(#pb70d313ee7)" d="M 183.074233 110.373711 
L 197.567739 110.373711 
L 197.567739 109.829803 
L 183.074233 109.829803 
z
" style="fill:#d92523;"/>
   </g>
   <g id="patch_10">
    <path clip-path="url(#pb70d313ee7)" d="M 197.567739 110.373711 
L 212.061246 110.373711 
L 212.061246 111.435117 
L 197.567739 111.435117 
z
" style="fill:#d92523;"/>
   </g>
   <g id="patch_11">
    <path clip-path="url(#pb70d313ee7)" d="M 212.061246 110.373711 
L 226.554752 110.373711 
L 226.554752 66.933058 
L 212.061246 66.933058 
z
" style="fill:#d92523;"/>
   </g>
   <g id="patch_12">
    <path clip-path="url(#pb70d313ee7)" d="M 226.554752 110.373711 
L 241.048259 110.373711 
L 241.048259 108.050828 
L 226.554752 108.050828 
z
" style="fill:#d92523;"/>
   </g>
   <g id="patch_13">
    <path clip-path="url(#pb70d313ee7)" d="M 241.048259 110.373711 
L 255.541765 110.373711 
L 255.541765 25.82 
L 241.048259 25.82 
z
" style="fill:#d92523;"/>
   </g>
   <g id="patch_14">
    <path clip-path="url(#pb70d313ee7)" d="M 255.541765 110.373711 
L 270.035272 110.373711 
L 270.035272 110.079497 
L 255.541765 110.079497 
z
" style="fill:#d92523;"/>
   </g>
   <g id="patch_15">
    <path clip-path="url(#pb70d313ee7)" d="M 270.035272 110.373711 
L 284.528778 110.373711 
L 284.528778 108.852601 
L 270.035272 108.852601 
z
" style="fill:#d92523;"/>
   </g>
   <g id="patch_16">
    <path clip-path="url(#pb70d313ee7)" d="M 284.528778 110.373711 
L 299.022285 110.373711 
L 299.022285 49.288638 
L 284.528778 49.288638 
z
" style="fill:#d92523;"/>
   </g>
   <g id="patch_17">
    <path clip-path="url(#pb70d313ee7)" d="M 299.022285 110.373711 
L 313.515791 110.373711 
L 313.515791 108.023471 
L 299.022285 108.023471 
z
" style="fill:#d92523;"/>
   </g>
   <g id="patch_18">
    <path clip-path="url(#pb70d313ee7)" d="M 313.515791 110.373711 
L 328.009298 110.373711 
L 328.009298 112.803494 
L 313.515791 112.803494 
z
" style="fill:#d92523;"/>
   </g>
   <g id="patch_19">
    <path clip-path="url(#pb70d313ee7)" d="M 328.009298 110.373711 
L 342.502804 110.373711 
L 342.502804 121.413429 
L 328.009298 121.413429 
z
" style="fill:#d92523;"/>
   </g>
   <g id="patch_20">
    <path clip-path="url(#pb70d313ee7)" d="M 342.502804 110.373711 
L 356.996311 110.373711 
L 356.996311 110.814603 
L 342.502804 110.814603 
z
" style="fill:#d92523;"/>
   </g>
   <g id="patch_21">
    <path clip-path="url(#pb70d313ee7)" d="M 356.996311 110.373711 
L 371.489817 110.373711 
L 371.489817 93.384432 
L 356.996311 93.384432 
z
" style="fill:#d92523;"/>
   </g>
   <g id="patch_22">
    <path clip-path="url(#pb70d313ee7)" d="M 371.489817 110.373711 
L 385.983324 110.373711 
L 385.983324 132.277122 
L 371.489817 132.277122 
z
" style="fill:#d92523;"/>
   </g>
   <g id="patch_23">
    <path clip-path="url(#pb70d313ee7)" d="M 96.113194 110.373711 
L 110.6067 110.373711 
L 110.6067 116.71869 
L 96.113194 116.71869 
z
" style="fill:#2e7ebc;"/>
   </g>
   <g id="patch_24">
    <path clip-path="url(#pb70d313ee7)" d="M 110.6067 110.373711 
L 125.100207 110.373711 
L 125.100207 137.188532 
L 110.6067 137.188532 
z
" style="fill:#2e7ebc;"/>
   </g>
   <g id="patch_25">
    <path clip-path="url(#pb70d313ee7)" d="M 125.100207 110.373711 
L 139.593713 110.373711 
L 139.593713 109.282184 
L 125.100207 109.282184 
z
" style="fill:#2e7ebc;"/>
   </g>
   <g id="patch_26">
    <path clip-path="url(#pb70d313ee7)" d="M 139.593713 110.373711 
L 154.08722 110.373711 
L 154.08722 282.76695 
L 139.593713 282.76695 
z
" style="fill:#2e7ebc;"/>
   </g>
   <g id="patch_27">
    <path clip-path="url(#pb70d313ee7)" d="M 154.08722 110.373711 
L 168.580726 110.373711 
L 168.580726 107.563042 
L 154.08722 107.563042 
z
" style="fill:#2e7ebc;"/>
   </g>
   <g id="patch_28">
    <path clip-path="url(#pb70d313ee7)" d="M 168.580726 110.373711 
L 183.074233 110.373711 
L 183.074233 115.31935 
L 168.580726 115.31935 
z
" style="fill:#2e7ebc;"/>
   </g>
   <g id="patch_29">
    <path clip-path="url(#pb70d313ee7)" d="M 183.074233 110.373711 
L 197.567739 110.373711 
L 197.567739 110.527769 
L 183.074233 110.527769 
z
" style="fill:#2e7ebc;"/>
   </g>
   <g id="patch_30">
    <path clip-path="url(#pb70d313ee7)" d="M 197.567739 110.373711 
L 212.061246 110.373711 
L 212.061246 109.763517 
L 197.567739 109.763517 
z
" style="fill:#2e7ebc;"/>
   </g>
   <g id="patch_31">
    <path clip-path="url(#pb70d313ee7)" d="M 212.061246 110.373711 
L 226.554752 110.373711 
L 226.554752 224.73634 
L 212.061246 224.73634 
z
" style="fill:#2e7ebc;"/>
   </g>
   <g id="patch_32">
    <path clip-path="url(#pb70d313ee7)" d="M 226.554752 110.373711 
L 241.048259 110.373711 
L 241.048259 111.568251 
L 226.554752 111.568251 
z
" style="fill:#2e7ebc;"/>
   </g>
   <g id="patch_33">
    <path clip-path="url(#pb70d313ee7)" d="M 241.048259 110.373711 
L 255.541765 110.373711 
L 255.541765 328.22 
L 241.048259 328.22 
z
" style="fill:#2e7ebc;"/>
   </g>
   <g id="patch_34">
    <path clip-path="url(#pb70d313ee7)" d="M 255.541765 110.373711 
L 270.035272 110.373711 
L 270.035272 110.150369 
L 255.541765 110.150369 
z
" style="fill:#2e7ebc;"/>
   </g>
   <g id="patch_35">
    <path clip-path="url(#pb70d313ee7)" d="M 270.035272 110.373711 
L 284.528778 110.373711 
L 284.528778 162.233797 
L 270.035272 162.233797 
z
" style="fill:#2e7ebc;"/>
   </g>
   <g id="patch_36">
    <path clip-path="url(#pb70d313ee7)" d="M 284.528778 110.373711 
L 299.022285 110.373711 
L 299.022285 172.110922 
L 284.528778 172.110922 
z
" style="fill:#2e7ebc;"/>
   </g>
   <g id="patch_37">
    <path clip-path="url(#pb70d313ee7)" d="M 299.022285 110.373711 
L 313.515791 110.373711 
L 313.515791 116.593403 
L 299.022285 116.593403 
z
" style="fill:#2e7ebc;"/>
   </g>
   <g id="patch_38">
    <path clip-path="url(#pb70d313ee7)" d="M 313.515791 110.373711 
L 328.009298 110.373711 
L 328.009298 110.317064 
L 313.515791 110.317064 
z
" style="fill:#2e7ebc;"/>
   </g>
   <g id="patch_39">
    <path clip-path="url(#pb70d313ee7)" d="M 328.009298 110.373711 
L 342.502804 110.373711 
L 342.502804 98.218188 
L 328.009298 98.218188 
z
" style="fill:#2e7ebc;"/>
   </g>
   <g id="patch_40">
    <path clip-path="url(#pb70d313ee7)" d="M 342.502804 110.373711 
L 356.996311 110.373711 
L 356.996311 112.164931 
L 342.502804 112.164931 
z
" style="fill:#2e7ebc;"/>
   </g>
   <g id="patch_41">
    <path clip-path="url(#pb70d313ee7)" d="M 356.996311 110.373711 
L 371.489817 110.373711 
L 371.489817 208.041659 
L 356.996311 208.041659 
z
" style="fill:#2e7ebc;"/>
   </g>
   <g id="patch_42">
    <path clip-path="url(#pb70d313ee7)" d="M 371.489817 110.373711 
L 385.983324 110.373711 
L 385.983324 107.957276 
L 371.489817 107.957276 
z
" style="fill:#2e7ebc;"/>
   </g>
   <g id="patch_43">
    <path d="M 81.619687 343.34 
L 81.619687 10.7 
" style="fill:none;stroke:#000000;stroke-linecap:square;stroke-linejoin:miter;stroke-width:0.8;"/>
   </g>
   <g id="patch_44">
    <path d="M 400.47683 343.34 
L 400.47683 10.7 
" style="fill:none;stroke:#000000;stroke-linecap:square;stroke-linejoin:miter;stroke-width:0.8;"/>
   </g>
   <g id="patch_45">
    <path d="M 81.619687 343.34 
L 400.47683 343.34 
" style="fill:none;stroke:#000000;stroke-linecap:square;stroke-linejoin:miter;stroke-width:0.8;"/>
   </g>
   <g id="patch_46">
    <path d="M 81.619687 10.7 
L 400.47683 10.7 
" style="fill:none;stroke:#000000;stroke-linecap:square;stroke-linejoin:miter;stroke-width:0.8;"/>
   </g>
   <g id="patch_47">
    <path clip-path="url(#pb70d313ee7)" d="M 96.113194 110.373711 
L 110.6067 110.373711 
L 110.6067 110.373711 
L 96.113194 110.373711 
z
" style="fill:none;stroke:#000000;stroke-linejoin:miter;"/>
   </g>
   <g id="patch_48">
    <path clip-path="url(#pb70d313ee7)" d="M 110.6067 110.373711 
L 125.100207 110.373711 
L 125.100207 110.373711 
L 110.6067 110.373711 
z
" style="fill:none;stroke:#000000;stroke-linejoin:miter;"/>
   </g>
   <g id="patch_49">
    <path clip-path="url(#pb70d313ee7)" d="M 125.100207 110.373711 
L 139.593713 110.373711 
L 139.593713 110.373711 
L 125.100207 110.373711 
z
" style="fill:none;stroke:#000000;stroke-linejoin:miter;"/>
   </g>
   <g id="patch_50">
    <path clip-path="url(#pb70d313ee7)" d="M 139.593713 110.373711 
L 154.08722 110.373711 
L 154.08722 110.373711 
L 139.593713 110.373711 
z
" style="fill:none;stroke:#000000;stroke-linejoin:miter;"/>
   </g>
   <g id="patch_51">
    <path clip-path="url(#pb70d313ee7)" d="M 154.08722 110.373711 
L 168.580726 110.373711 
L 168.580726 110.373711 
L 154.08722 110.373711 
z
" style="fill:none;stroke:#000000;stroke-linejoin:miter;"/>
   </g>
   <g id="patch_52">
    <path clip-path="url(#pb70d313ee7)" d="M 168.580726 110.373711 
L 183.074233 110.373711 
L 183.074233 110.373711 
L 168.580726 110.373711 
z
" style="fill:none;stroke:#000000;stroke-linejoin:miter;"/>
   </g>
   <g id="patch_53">
    <path clip-path="url(#pb70d313ee7)" d="M 183.074233 110.373711 
L 197.567739 110.373711 
L 197.567739 110.373711 
L 183.074233 110.373711 
z
" style="fill:none;stroke:#000000;stroke-linejoin:miter;"/>
   </g>
   <g id="patch_54">
    <path clip-path="url(#pb70d313ee7)" d="M 197.567739 110.373711 
L 212.061246 110.373711 
L 212.061246 110.373711 
L 197.567739 110.373711 
z
" style="fill:none;stroke:#000000;stroke-linejoin:miter;"/>
   </g>
   <g id="patch_55">
    <path clip-path="url(#pb70d313ee7)" d="M 212.061246 110.373711 
L 226.554752 110.373711 
L 226.554752 110.373711 
L 212.061246 110.373711 
z
" style="fill:none;stroke:#000000;stroke-linejoin:miter;"/>
   </g>
   <g id="patch_56">
    <path clip-path="url(#pb70d313ee7)" d="M 226.554752 110.373711 
L 241.048259 110.373711 
L 241.048259 110.373711 
L 226.554752 110.373711 
z
" style="fill:none;stroke:#000000;stroke-linejoin:miter;"/>
   </g>
   <g id="patch_57">
    <path clip-path="url(#pb70d313ee7)" d="M 241.048259 110.373711 
L 255.541765 110.373711 
L 255.541765 110.373711 
L 241.048259 110.373711 
z
" style="fill:none;stroke:#000000;stroke-linejoin:miter;"/>
   </g>
   <g id="patch_58">
    <path clip-path="url(#pb70d313ee7)" d="M 255.541765 110.373711 
L 270.035272 110.373711 
L 270.035272 110.373711 
L 255.541765 110.373711 
z
" style="fill:none;stroke:#000000;stroke-linejoin:miter;"/>
   </g>
   <g id="patch_59">
    <path clip-path="url(#pb70d313ee7)" d="M 270.035272 110.373711 
L 284.528778 110.373711 
L 284.528778 110.373711 
L 270.035272 110.373711 
z
" style="fill:none;stroke:#000000;stroke-linejoin:miter;"/>
   </g>
   <g id="patch_60">
    <path clip-path="url(#pb70d313ee7)" d="M 284.528778 110.373711 
L 299.022285 110.373711 
L 299.022285 110.373711 
L 284.528778 110.373711 
z
" style="fill:none;stroke:#000000;stroke-linejoin:miter;"/>
   </g>
   <g id="patch_61">
    <path clip-path="url(#pb70d313ee7)" d="M 299.022285 110.373711 
L 313.515791 110.373711 
L 313.515791 110.373711 
L 299.022285 110.373711 
z
" style="fill:none;stroke:#000000;stroke-linejoin:miter;"/>
   </g>
   <g id="patch_62">
    <path clip-path="url(#pb70d313ee7)" d="M 313.515791 110.373711 
L 328.009298 110.373711 
L 328.009298 110.373711 
L 313.515791 110.373711 
z
" style="fill:none;stroke:#000000;stroke-linejoin:miter;"/>
   </g>
   <g id="patch_63">
    <path clip-path="url(#pb70d313ee7)" d="M 328.009298 110.373711 
L 342.502804 110.373711 
L 342.502804 110.373711 
L 328.009298 110.373711 
z
" style="fill:none;stroke:#000000;stroke-linejoin:miter;"/>
   </g>
   <g id="patch_64">
    <path clip-path="url(#pb70d313ee7)" d="M 342.502804 110.373711 
L 356.996311 110.373711 
L 356.996311 110.373711 
L 342.502804 110.373711 
z
" style="fill:none;stroke:#000000;stroke-linejoin:miter;"/>
   </g>
   <g id="patch_65">
    <path clip-path="url(#pb70d313ee7)" d="M 356.996311 110.373711 
L 371.489817 110.373711 
L 371.489817 110.373711 
L 356.996311 110.373711 
z
" style="fill:none;stroke:#000000;stroke-linejoin:miter;"/>
   </g>
   <g id="patch_66">
    <path clip-path="url(#pb70d313ee7)" d="M 371.489817 110.373711 
L 385.983324 110.373711 
L 385.983324 110.373711 
L 371.489817 110.373711 
z
" style="fill:none;stroke:#000000;stroke-linejoin:miter;"/>
   </g>
   <g id="patch_67">
    <path clip-path="url(#pb70d313ee7)" d="M 96.113194 110.373711 
L 110.6067 110.373711 
L 110.6067 110.373711 
L 96.113194 110.373711 
z
" style="fill:none;stroke:#000000;stroke-linejoin:miter;"/>
   </g>
   <g id="patch_68">
    <path clip-path="url(#pb70d313ee7)" d="M 110.6067 110.373711 
L 125.100207 110.373711 
L 125.100207 110.373711 
L 110.6067 110.373711 
z
" style="fill:none;stroke:#000000;stroke-linejoin:miter;"/>
   </g>
   <g id="patch_69">
    <path clip-path="url(#pb70d313ee7)" d="M 125.100207 110.373711 
L 139.593713 110.373711 
L 139.593713 110.373711 
L 125.100207 110.373711 
z
" style="fill:none;stroke:#000000;stroke-linejoin:miter;"/>
   </g>
   <g id="patch_70">
    <path clip-path="url(#pb70d313ee7)" d="M 139.593713 110.373711 
L 154.08722 110.373711 
L 154.08722 110.373711 
L 139.593713 110.373711 
z
" style="fill:none;stroke:#000000;stroke-linejoin:miter;"/>
   </g>
   <g id="patch_71">
    <path clip-path="url(#pb70d313ee7)" d="M 154.08722 110.373711 
L 168.580726 110.373711 
L 168.580726 110.373711 
L 154.08722 110.373711 
z
" style="fill:none;stroke:#000000;stroke-linejoin:miter;"/>
   </g>
   <g id="patch_72">
    <path clip-path="url(#pb70d313ee7)" d="M 168.580726 110.373711 
L 183.074233 110.373711 
L 183.074233 110.373711 
L 168.580726 110.373711 
z
" style="fill:none;stroke:#000000;stroke-linejoin:miter;"/>
   </g>
   <g id="patch_73">
    <path clip-path="url(#pb70d313ee7)" d="M 183.074233 110.373711 
L 197.567739 110.373711 
L 197.567739 110.373711 
L 183.074233 110.373711 
z
" style="fill:none;stroke:#000000;stroke-linejoin:miter;"/>
   </g>
   <g id="patch_74">
    <path clip-path="url(#pb70d313ee7)" d="M 197.567739 110.373711 
L 212.061246 110.373711 
L 212.061246 110.373711 
L 197.567739 110.373711 
z
" style="fill:none;stroke:#000000;stroke-linejoin:miter;"/>
   </g>
   <g id="patch_75">
    <path clip-path="url(#pb70d313ee7)" d="M 212.061246 110.373711 
L 226.554752 110.373711 
L 226.554752 110.373711 
L 212.061246 110.373711 
z
" style="fill:none;stroke:#000000;stroke-linejoin:miter;"/>
   </g>
   <g id="patch_76">
    <path clip-path="url(#pb70d313ee7)" d="M 226.554752 110.373711 
L 241.048259 110.373711 
L 241.048259 110.373711 
L 226.554752 110.373711 
z
" style="fill:none;stroke:#000000;stroke-linejoin:miter;"/>
   </g>
   <g id="patch_77">
    <path clip-path="url(#pb70d313ee7)" d="M 241.048259 110.373711 
L 255.541765 110.373711 
L 255.541765 110.373711 
L 241.048259 110.373711 
z
" style="fill:none;stroke:#000000;stroke-linejoin:miter;"/>
   </g>
   <g id="patch_78">
    <path clip-path="url(#pb70d313ee7)" d="M 255.541765 110.373711 
L 270.035272 110.373711 
L 270.035272 110.373711 
L 255.541765 110.373711 
z
" style="fill:none;stroke:#000000;stroke-linejoin:miter;"/>
   </g>
   <g id="patch_79">
    <path clip-path="url(#pb70d313ee7)" d="M 270.035272 110.373711 
L 284.528778 110.373711 
L 284.528778 110.373711 
L 270.035272 110.373711 
z
" style="fill:none;stroke:#000000;stroke-linejoin:miter;"/>
   </g>
   <g id="patch_80">
    <path clip-path="url(#pb70d313ee7)" d="M 284.528778 110.373711 
L 299.022285 110.373711 
L 299.022285 110.373711 
L 284.528778 110.373711 
z
" style="fill:none;stroke:#000000;stroke-linejoin:miter;"/>
   </g>
   <g id="patch_81">
    <path clip-path="url(#pb70d313ee7)" d="M 299.022285 110.373711 
L 313.515791 110.373711 
L 313.515791 110.373711 
L 299.022285 110.373711 
z
" style="fill:none;stroke:#000000;stroke-linejoin:miter;"/>
   </g>
   <g id="patch_82">
    <path clip-path="url(#pb70d313ee7)" d="M 313.515791 110.373711 
L 328.009298 110.373711 
L 328.009298 110.373711 
L 313.515791 110.373711 
z
" style="fill:none;stroke:#000000;stroke-linejoin:miter;"/>
   </g>
   <g id="patch_83">
    <path clip-path="url(#pb70d313ee7)" d="M 328.009298 110.373711 
L 342.502804 110.373711 
L 342.502804 110.373711 
L 328.009298 110.373711 
z
" style="fill:none;stroke:#000000;stroke-linejoin:miter;"/>
   </g>
   <g id="patch_84">
    <path clip-path="url(#pb70d313ee7)" d="M 342.502804 110.373711 
L 356.996311 110.373711 
L 356.996311 110.373711 
L 342.502804 110.373711 
z
" style="fill:none;stroke:#000000;stroke-linejoin:miter;"/>
   </g>
   <g id="patch_85">
    <path clip-path="url(#pb70d313ee7)" d="M 356.996311 110.373711 
L 371.489817 110.373711 
L 371.489817 110.373711 
L 356.996311 110.373711 
z
" style="fill:none;stroke:#000000;stroke-linejoin:miter;"/>
   </g>
   <g id="patch_86">
    <path clip-path="url(#pb70d313ee7)" d="M 371.489817 110.373711 
L 385.983324 110.373711 
L 385.983324 110.373711 
L 371.489817 110.373711 
z
" style="fill:none;stroke:#000000;stroke-linejoin:miter;"/>
   </g>
  </g>
 </g>
 <defs>
  <clipPath id="pb70d313ee7">
   <rect height="332.64" width="318.857143" x="81.619687" y="10.7"/>
  </clipPath>
 </defs>
</svg>
