<?xml version="1.0" encoding="utf-8" standalone="no"?>
<!DOCTYPE svg PUBLIC "-//W3C//DTD SVG 1.1//EN"
  "http://www.w3.org/Graphics/SVG/1.1/DTD/svg11.dtd">
<!-- Created with matplotlib (http://matplotlib.org/) -->
<svg height="206pt" version="1.1" viewBox="0 0 202 206" width="202pt" xmlns="http://www.w3.org/2000/svg" xmlns:xlink="http://www.w3.org/1999/xlink">
 <defs>
  <style type="text/css">
*{stroke-linecap:butt;stroke-linejoin:round;}
  </style>
 </defs>
 <g id="figure_1">
  <g id="patch_1">
   <path d="M 0 206.705 
L 202.48 206.705 
L 202.48 0 
L 0 0 
z
" style="fill:#ffffff;"/>
  </g>
  <g id="axes_1">
   <g id="patch_2">
    <path d="M 24.38 177.02 
L 191.78 177.02 
L 191.78 10.7 
L 24.38 10.7 
z
" style="fill:#ffffff;"/>
   </g>
   <g id="matplotlib.axis_1">
    <g id="xtick_1">
     <g id="line2d_1">
      <defs>
       <path d="M 0 0 
L 0 3.5 
" id="mecb4dd5ec5" style="stroke:#000000;stroke-width:0.8;"/>
      </defs>
      <g>
       <use style="stroke:#000000;stroke-width:0.8;" x="51.225089" xlink:href="#mecb4dd5ec5" y="177.02"/>
      </g>
     </g>
     <g id="text_1">
      <!-- 2 -->
      <defs>
       <path d="M 19.1875 8.296875 
L 53.609375 8.296875 
L 53.609375 0 
L 7.328125 0 
L 7.328125 8.296875 
Q 12.9375 14.109375 22.625 23.890625 
Q 32.328125 33.6875 34.8125 36.53125 
Q 39.546875 41.84375 41.421875 45.53125 
Q 43.3125 49.21875 43.3125 52.78125 
Q 43.3125 58.59375 39.234375 62.25 
Q 35.15625 65.921875 28.609375 65.921875 
Q 23.96875 65.921875 18.8125 64.3125 
Q 13.671875 62.703125 7.8125 59.421875 
L 7.8125 69.390625 
Q 13.765625 71.78125 18.9375 73 
Q 24.125 74.21875 28.421875 74.21875 
Q 39.75 74.21875 46.484375 68.546875 
Q 53.21875 62.890625 53.21875 53.421875 
Q 53.21875 48.921875 51.53125 44.890625 
Q 49.859375 40.875 45.40625 35.40625 
Q 44.1875 33.984375 37.640625 27.21875 
Q 31.109375 20.453125 19.1875 8.296875 
z
" id="DejaVuSans-32"/>
      </defs>
      <g transform="translate(46.135089 196.1775)scale(0.16 -0.16)">
       <use xlink:href="#DejaVuSans-32"/>
      </g>
     </g>
    </g>
    <g id="xtick_2">
     <g id="line2d_2">
      <g>
       <use style="stroke:#000000;stroke-width:0.8;" x="106.268228" xlink:href="#mecb4dd5ec5" y="177.02"/>
      </g>
     </g>
     <g id="text_2">
      <!-- 3 -->
      <defs>
       <path d="M 40.578125 39.3125 
Q 47.65625 37.796875 51.625 33 
Q 55.609375 28.21875 55.609375 21.1875 
Q 55.609375 10.40625 48.1875 4.484375 
Q 40.765625 -1.421875 27.09375 -1.421875 
Q 22.515625 -1.421875 17.65625 -0.515625 
Q 12.796875 0.390625 7.625 2.203125 
L 7.625 11.71875 
Q 11.71875 9.328125 16.59375 8.109375 
Q 21.484375 6.890625 26.8125 6.890625 
Q 36.078125 6.890625 40.9375 10.546875 
Q 45.796875 14.203125 45.796875 21.1875 
Q 45.796875 27.640625 41.28125 31.265625 
Q 36.765625 34.90625 28.71875 34.90625 
L 20.21875 34.90625 
L 20.21875 43.015625 
L 29.109375 43.015625 
Q 36.375 43.015625 40.234375 45.921875 
Q 44.09375 48.828125 44.09375 54.296875 
Q 44.09375 59.90625 40.109375 62.90625 
Q 36.140625 65.921875 28.71875 65.921875 
Q 24.65625 65.921875 20.015625 65.03125 
Q 15.375 64.15625 9.8125 62.3125 
L 9.8125 71.09375 
Q 15.4375 72.65625 20.34375 73.4375 
Q 25.25 74.21875 29.59375 74.21875 
Q 40.828125 74.21875 47.359375 69.109375 
Q 53.90625 64.015625 53.90625 55.328125 
Q 53.90625 49.265625 50.4375 45.09375 
Q 46.96875 40.921875 40.578125 39.3125 
z
" id="DejaVuSans-33"/>
      </defs>
      <g transform="translate(101.178228 196.1775)scale(0.16 -0.16)">
       <use xlink:href="#DejaVuSans-33"/>
      </g>
     </g>
    </g>
    <g id="xtick_3">
     <g id="line2d_3">
      <g>
       <use style="stroke:#000000;stroke-width:0.8;" x="161.311366" xlink:href="#mecb4dd5ec5" y="177.02"/>
      </g>
     </g>
     <g id="text_3">
      <!-- 4 -->
      <defs>
       <path d="M 37.796875 64.3125 
L 12.890625 25.390625 
L 37.796875 25.390625 
z
M 35.203125 72.90625 
L 47.609375 72.90625 
L 47.609375 25.390625 
L 58.015625 25.390625 
L 58.015625 17.1875 
L 47.609375 17.1875 
L 47.609375 0 
L 37.796875 0 
L 37.796875 17.1875 
L 4.890625 17.1875 
L 4.890625 26.703125 
z
" id="DejaVuSans-34"/>
      </defs>
      <g transform="translate(156.221366 196.1775)scale(0.16 -0.16)">
       <use xlink:href="#DejaVuSans-34"/>
      </g>
     </g>
    </g>
   </g>
   <g id="matplotlib.axis_2">
    <g id="ytick_1">
     <g id="line2d_4">
      <defs>
       <path d="M 0 0 
L -3.5 0 
" id="ma8989e847e" style="stroke:#000000;stroke-width:0.8;"/>
      </defs>
      <g>
       <use style="stroke:#000000;stroke-width:0.8;" x="24.38" xlink:href="#ma8989e847e" y="152.075743"/>
      </g>
     </g>
     <g id="text_4">
      <!-- 1 -->
      <defs>
       <path d="M 12.40625 8.296875 
L 28.515625 8.296875 
L 28.515625 63.921875 
L 10.984375 60.40625 
L 10.984375 69.390625 
L 28.421875 72.90625 
L 38.28125 72.90625 
L 38.28125 8.296875 
L 54.390625 8.296875 
L 54.390625 0 
L 12.40625 0 
z
" id="DejaVuSans-31"/>
      </defs>
      <g transform="translate(7.2 158.154493)scale(0.16 -0.16)">
       <use xlink:href="#DejaVuSans-31"/>
      </g>
     </g>
    </g>
    <g id="ytick_2">
     <g id="line2d_5">
      <g>
       <use style="stroke:#000000;stroke-width:0.8;" x="24.38" xlink:href="#ma8989e847e" y="67.303013"/>
      </g>
     </g>
     <g id="text_5">
      <!-- 2 -->
      <g transform="translate(7.2 73.381763)scale(0.16 -0.16)">
       <use xlink:href="#DejaVuSans-32"/>
      </g>
     </g>
    </g>
   </g>
   <g id="line2d_6">
    <path clip-path="url(#p6d60415d4e)" d="M 24.38 152.814383 
L 57.431203 153.144494 
L 63.552 152.564004 
L 74.569435 151.471103 
L 88.034638 151.428114 
L 94.155435 150.88912 
L 101.49984 150.081646 
L 110.068956 149.198304 
L 112.517275 149.027991 
L 144.344869 149.376298 
L 170.051666 147.51928 
L 177.396622 147.567316 
L 189.637666 147.679608 
L 189.637666 147.679608 
" style="fill:none;opacity:0.8;stroke:#fdcab5;stroke-linecap:square;stroke-width:3;"/>
   </g>
   <g id="line2d_7">
    <path clip-path="url(#p6d60415d4e)" d="M 24.38 157.011306 
L 42.741841 158.28502 
L 43.966 158.176144 
L 56.207044 158.898491 
L 57.431203 158.751162 
L 59.879522 157.023869 
L 62.327841 154.971795 
L 69.672797 148.586066 
L 72.121116 146.748274 
L 74.569435 145.212037 
L 75.793594 145.258188 
L 84.362159 146.407881 
L 85.586319 146.432833 
L 88.034638 145.297726 
L 90.482956 143.879413 
L 95.379594 140.333782 
L 97.827913 138.301185 
L 100.276232 136.165428 
L 106.396478 131.237064 
L 110.068956 128.928417 
L 111.293116 128.268819 
L 112.517275 127.883338 
L 139.448231 133.543977 
L 143.12071 134.163596 
L 145.569028 133.063872 
L 154.137594 128.405703 
L 159.034231 126.009126 
L 167.603347 122.667162 
L 168.827507 122.343623 
L 170.051666 122.195728 
L 172.499985 122.38823 
L 187.189347 125.760318 
L 189.637666 125.914051 
L 189.637666 125.914051 
" style="fill:none;opacity:0.8;stroke:#fc8a6a;stroke-linecap:square;stroke-width:2.625;"/>
   </g>
   <g id="line2d_8">
    <path clip-path="url(#p6d60415d4e)" d="M 24.38 161.847444 
L 35.396884 163.168401 
L 42.741841 163.904228 
L 43.966 163.469101 
L 54.982884 164.434397 
L 56.207044 164.430516 
L 57.431203 163.886364 
L 58.655362 161.481877 
L 61.103681 155.932676 
L 67.224478 141.02794 
L 69.672797 135.581991 
L 72.121116 130.957845 
L 73.345275 128.947753 
L 74.569435 127.339582 
L 75.793594 127.813684 
L 81.913841 131.58847 
L 84.362159 132.998958 
L 85.586319 133.333723 
L 88.034638 130.735032 
L 89.258797 129.207191 
L 90.482956 127.394407 
L 95.379594 118.943391 
L 96.603753 116.67427 
L 100.276232 109.063598 
L 105.172319 100.110479 
L 106.396478 98.274613 
L 108.844797 95.390302 
L 110.068956 94.050692 
L 111.293116 92.991644 
L 112.517275 92.696391 
L 119.862231 100.140318 
L 124.758869 104.802986 
L 129.654956 109.216101 
L 134.551594 113.384626 
L 139.448231 117.314361 
L 141.89655 119.154928 
L 143.12071 119.856125 
L 144.344869 118.779683 
L 145.569028 117.410757 
L 148.017347 114.372711 
L 155.361753 105.852529 
L 157.810072 103.510393 
L 159.034231 102.384178 
L 167.603347 96.889542 
L 168.827507 96.553013 
L 170.051666 96.680048 
L 172.499985 98.140738 
L 182.29271 107.257429 
L 185.965188 110.421258 
L 187.189347 111.263298 
L 189.637666 112.244309 
L 189.637666 112.244309 
" style="fill:none;opacity:0.8;stroke:#f14432;stroke-linecap:square;stroke-width:2.25;"/>
   </g>
   <g id="line2d_9">
    <path clip-path="url(#p6d60415d4e)" d="M 24.38 165.604449 
L 29.276087 166.43975 
L 35.396884 167.294815 
L 40.293522 167.79487 
L 42.741841 167.946836 
L 43.966 166.448819 
L 47.638478 166.796027 
L 54.982884 167.588784 
L 56.207044 167.388668 
L 57.431203 165.647898 
L 59.879522 151.183222 
L 64.776159 121.073829 
L 67.224478 107.483512 
L 68.448638 101.598653 
L 69.672797 96.415931 
L 70.896956 92.135465 
L 72.121116 88.528317 
L 73.345275 85.630086 
L 74.569435 83.922134 
L 75.793594 87.242245 
L 78.241362 94.797949 
L 80.689681 101.833496 
L 83.138 108.344384 
L 84.362159 111.382207 
L 85.586319 113.441765 
L 86.810478 111.227183 
L 88.034638 108.74656 
L 89.258797 105.863589 
L 90.482956 102.258611 
L 94.155435 89.514309 
L 95.379594 85.714165 
L 96.603753 81.444488 
L 99.052072 71.272983 
L 100.276232 67.118576 
L 105.172319 53.313654 
L 106.396478 51.215727 
L 107.620637 50.096975 
L 110.068956 48.38576 
L 111.293116 48.285607 
L 112.517275 49.977333 
L 116.189753 64.309977 
L 119.862231 77.560927 
L 122.31055 85.745479 
L 124.758869 93.403608 
L 127.206637 100.535803 
L 129.654956 107.148109 
L 132.103275 113.251822 
L 134.551594 118.862846 
L 136.999913 124.001059 
L 139.448231 128.688787 
L 141.89655 132.837636 
L 143.12071 134.147045 
L 144.344869 130.126614 
L 149.241507 111.790895 
L 152.913434 99.932284 
L 154.137594 96.522084 
L 156.585913 90.987517 
L 159.034231 86.452813 
L 162.70671 82.836807 
L 163.930869 81.751924 
L 166.379188 79.117663 
L 167.603347 78.559351 
L 168.827507 78.715785 
L 170.051666 80.062079 
L 171.275825 83.011615 
L 172.499985 85.625987 
L 176.172463 96.726395 
L 178.620231 103.421378 
L 181.06855 109.753604 
L 183.516869 115.50281 
L 185.965188 120.855627 
L 187.189347 122.764187 
L 189.637666 124.311265 
L 189.637666 124.311265 
" style="fill:none;opacity:0.8;stroke:#bc141a;stroke-linecap:square;stroke-width:1.875;"/>
   </g>
   <g id="line2d_10">
    <path clip-path="url(#p6d60415d4e)" d="M 24.38 167.871356 
L 25.603609 168.157665 
L 26.827768 168.340372 
L 31.724406 169.005815 
L 36.621044 169.374788 
L 40.293522 169.46 
L 42.741841 169.355282 
L 43.966 164.830917 
L 46.414319 166.137866 
L 47.638478 166.375197 
L 50.086797 167.24225 
L 53.758725 168.222122 
L 54.982884 168.409737 
L 56.207044 167.698536 
L 57.431203 162.683687 
L 59.879522 124.6842 
L 62.327841 91.570424 
L 63.552 78.185525 
L 66.000319 57.695762 
L 67.224478 49.525461 
L 68.448638 43.772963 
L 69.672797 39.952629 
L 70.896956 38.289282 
L 72.121116 37.900221 
L 73.345275 38.742187 
L 74.569435 41.86303 
L 78.241362 81.373598 
L 79.465522 92.867 
L 80.689681 103.258899 
L 81.913841 112.556435 
L 83.138 120.784526 
L 84.362159 127.931847 
L 85.586319 131.428224 
L 88.034638 112.669888 
L 89.258797 103.709399 
L 92.931275 73.319419 
L 94.155435 65.827924 
L 95.379594 59.520375 
L 96.603753 52.379941 
L 99.052072 35.321587 
L 100.276232 30.336345 
L 102.724 23.820821 
L 103.948159 20.33371 
L 105.172319 18.26 
L 106.396478 18.529184 
L 108.844797 23.165235 
L 110.068956 25.284679 
L 111.293116 28.707988 
L 112.517275 36.153885 
L 114.965594 64.850709 
L 117.413913 89.571044 
L 118.638072 100.292413 
L 119.862231 109.915709 
L 121.086391 118.467733 
L 122.31055 125.997314 
L 123.53471 132.570583 
L 124.758869 138.265838 
L 125.983028 143.167739 
L 127.206637 147.362973 
L 128.430797 150.936144 
L 129.654956 153.967228 
L 130.879116 156.529827 
L 132.103275 158.690329 
L 133.327434 160.507554 
L 134.551594 162.03313 
L 135.775753 163.311882 
L 136.999913 164.382315 
L 138.224072 165.277382 
L 139.448231 166.022833 
L 140.672391 166.588189 
L 141.89655 166.770549 
L 143.12071 164.966419 
L 145.569028 131.149339 
L 146.793188 115.741712 
L 148.017347 103.900689 
L 149.241507 94.319024 
L 151.689825 78.209589 
L 152.913434 72.792916 
L 154.137594 68.196908 
L 155.361753 65.200641 
L 156.585913 62.932092 
L 159.034231 60.07001 
L 160.258391 61.102686 
L 161.48255 61.896164 
L 163.930869 62.833215 
L 165.155028 62.52422 
L 166.379188 61.842559 
L 167.603347 63.170981 
L 168.827507 66.088373 
L 170.051666 71.73539 
L 171.275825 81.082906 
L 172.499985 88.769222 
L 174.948304 108.804653 
L 176.172463 117.369318 
L 177.396622 124.716619 
L 178.620231 131.104735 
L 179.844391 136.847539 
L 181.06855 141.908375 
L 182.29271 146.25099 
L 184.741028 152.627712 
L 185.965188 155.297024 
L 187.189347 155.431079 
L 188.413507 152.151532 
L 189.637666 149.464805 
L 189.637666 149.464805 
" style="fill:none;opacity:0.8;stroke:#67000d;stroke-linecap:square;stroke-width:1.5;"/>
   </g>
   <g id="patch_3">
    <path d="M 24.38 177.02 
L 24.38 10.7 
" style="fill:none;stroke:#000000;stroke-linecap:square;stroke-linejoin:miter;stroke-width:0.8;"/>
   </g>
   <g id="patch_4">
    <path d="M 191.78 177.02 
L 191.78 10.7 
" style="fill:none;stroke:#000000;stroke-linecap:square;stroke-linejoin:miter;stroke-width:0.8;"/>
   </g>
   <g id="patch_5">
    <path d="M 24.38 177.02 
L 191.78 177.02 
" style="fill:none;stroke:#000000;stroke-linecap:square;stroke-linejoin:miter;stroke-width:0.8;"/>
   </g>
   <g id="patch_6">
    <path d="M 24.38 10.7 
L 191.78 10.7 
" style="fill:none;stroke:#000000;stroke-linecap:square;stroke-linejoin:miter;stroke-width:0.8;"/>
   </g>
  </g>
 </g>
 <defs>
  <clipPath id="p6d60415d4e">
   <rect height="166.32" width="167.4" x="24.38" y="10.7"/>
  </clipPath>
 </defs>
</svg>
