<?xml version="1.0" encoding="utf-8" standalone="no"?>
<!DOCTYPE svg PUBLIC "-//W3C//DTD SVG 1.1//EN"
  "http://www.w3.org/Graphics/SVG/1.1/DTD/svg11.dtd">
<!-- Created with matplotlib (http://matplotlib.org/) -->
<svg height="206pt" version="1.1" viewBox="0 0 747 206" width="747pt" xmlns="http://www.w3.org/2000/svg" xmlns:xlink="http://www.w3.org/1999/xlink">
 <defs>
  <style type="text/css">
*{stroke-linecap:butt;stroke-linejoin:round;}
  </style>
 </defs>
 <g id="figure_1">
  <g id="patch_1">
   <path d="M 0 206.705 
L 747.845 206.705 
L 747.845 0 
L 0 0 
z
" style="fill:#ffffff;"/>
  </g>
  <g id="axes_1">
   <g id="patch_2">
    <path d="M 39.645 177.02 
L 737.145 177.02 
L 737.145 10.7 
L 39.645 10.7 
z
" style="fill:#ffffff;"/>
   </g>
   <g id="matplotlib.axis_1">
    <g id="xtick_1">
     <g id="line2d_1">
      <defs>
       <path d="M 0 0 
L 0 3.5 
" id="m87bfcd902f" style="stroke:#000000;stroke-width:0.8;"/>
      </defs>
      <g>
       <use style="stroke:#000000;stroke-width:0.8;" x="76.913275" xlink:href="#m87bfcd902f" y="177.02"/>
      </g>
     </g>
     <g id="text_1">
      <!-- 16 -->
      <defs>
       <path d="M 12.40625 8.296875 
L 28.515625 8.296875 
L 28.515625 63.921875 
L 10.984375 60.40625 
L 10.984375 69.390625 
L 28.421875 72.90625 
L 38.28125 72.90625 
L 38.28125 8.296875 
L 54.390625 8.296875 
L 54.390625 0 
L 12.40625 0 
z
" id="DejaVuSans-31"/>
       <path d="M 33.015625 40.375 
Q 26.375 40.375 22.484375 35.828125 
Q 18.609375 31.296875 18.609375 23.390625 
Q 18.609375 15.53125 22.484375 10.953125 
Q 26.375 6.390625 33.015625 6.390625 
Q 39.65625 6.390625 43.53125 10.953125 
Q 47.40625 15.53125 47.40625 23.390625 
Q 47.40625 31.296875 43.53125 35.828125 
Q 39.65625 40.375 33.015625 40.375 
z
M 52.59375 71.296875 
L 52.59375 62.3125 
Q 48.875 64.0625 45.09375 64.984375 
Q 41.3125 65.921875 37.59375 65.921875 
Q 27.828125 65.921875 22.671875 59.328125 
Q 17.53125 52.734375 16.796875 39.40625 
Q 19.671875 43.65625 24.015625 45.921875 
Q 28.375 48.1875 33.59375 48.1875 
Q 44.578125 48.1875 50.953125 41.515625 
Q 57.328125 34.859375 57.328125 23.390625 
Q 57.328125 12.15625 50.6875 5.359375 
Q 44.046875 -1.421875 33.015625 -1.421875 
Q 20.359375 -1.421875 13.671875 8.265625 
Q 6.984375 17.96875 6.984375 36.375 
Q 6.984375 53.65625 15.1875 63.9375 
Q 23.390625 74.21875 37.203125 74.21875 
Q 40.921875 74.21875 44.703125 73.484375 
Q 48.484375 72.75 52.59375 71.296875 
z
" id="DejaVuSans-36"/>
      </defs>
      <g transform="translate(66.733275 196.1775)scale(0.16 -0.16)">
       <use xlink:href="#DejaVuSans-31"/>
       <use x="63.623047" xlink:href="#DejaVuSans-36"/>
      </g>
     </g>
    </g>
    <g id="xtick_2">
     <g id="line2d_2">
      <g>
       <use style="stroke:#000000;stroke-width:0.8;" x="168.887153" xlink:href="#m87bfcd902f" y="177.02"/>
      </g>
     </g>
     <g id="text_2">
      <!-- 18 -->
      <defs>
       <path d="M 31.78125 34.625 
Q 24.75 34.625 20.71875 30.859375 
Q 16.703125 27.09375 16.703125 20.515625 
Q 16.703125 13.921875 20.71875 10.15625 
Q 24.75 6.390625 31.78125 6.390625 
Q 38.8125 6.390625 42.859375 10.171875 
Q 46.921875 13.96875 46.921875 20.515625 
Q 46.921875 27.09375 42.890625 30.859375 
Q 38.875 34.625 31.78125 34.625 
z
M 21.921875 38.8125 
Q 15.578125 40.375 12.03125 44.71875 
Q 8.5 49.078125 8.5 55.328125 
Q 8.5 64.0625 14.71875 69.140625 
Q 20.953125 74.21875 31.78125 74.21875 
Q 42.671875 74.21875 48.875 69.140625 
Q 55.078125 64.0625 55.078125 55.328125 
Q 55.078125 49.078125 51.53125 44.71875 
Q 48 40.375 41.703125 38.8125 
Q 48.828125 37.15625 52.796875 32.3125 
Q 56.78125 27.484375 56.78125 20.515625 
Q 56.78125 9.90625 50.3125 4.234375 
Q 43.84375 -1.421875 31.78125 -1.421875 
Q 19.734375 -1.421875 13.25 4.234375 
Q 6.78125 9.90625 6.78125 20.515625 
Q 6.78125 27.484375 10.78125 32.3125 
Q 14.796875 37.15625 21.921875 38.8125 
z
M 18.3125 54.390625 
Q 18.3125 48.734375 21.84375 45.5625 
Q 25.390625 42.390625 31.78125 42.390625 
Q 38.140625 42.390625 41.71875 45.5625 
Q 45.3125 48.734375 45.3125 54.390625 
Q 45.3125 60.0625 41.71875 63.234375 
Q 38.140625 66.40625 31.78125 66.40625 
Q 25.390625 66.40625 21.84375 63.234375 
Q 18.3125 60.0625 18.3125 54.390625 
z
" id="DejaVuSans-38"/>
      </defs>
      <g transform="translate(158.707153 196.1775)scale(0.16 -0.16)">
       <use xlink:href="#DejaVuSans-31"/>
       <use x="63.623047" xlink:href="#DejaVuSans-38"/>
      </g>
     </g>
    </g>
    <g id="xtick_3">
     <g id="line2d_3">
      <g>
       <use style="stroke:#000000;stroke-width:0.8;" x="260.861031" xlink:href="#m87bfcd902f" y="177.02"/>
      </g>
     </g>
     <g id="text_3">
      <!-- 20 -->
      <defs>
       <path d="M 19.1875 8.296875 
L 53.609375 8.296875 
L 53.609375 0 
L 7.328125 0 
L 7.328125 8.296875 
Q 12.9375 14.109375 22.625 23.890625 
Q 32.328125 33.6875 34.8125 36.53125 
Q 39.546875 41.84375 41.421875 45.53125 
Q 43.3125 49.21875 43.3125 52.78125 
Q 43.3125 58.59375 39.234375 62.25 
Q 35.15625 65.921875 28.609375 65.921875 
Q 23.96875 65.921875 18.8125 64.3125 
Q 13.671875 62.703125 7.8125 59.421875 
L 7.8125 69.390625 
Q 13.765625 71.78125 18.9375 73 
Q 24.125 74.21875 28.421875 74.21875 
Q 39.75 74.21875 46.484375 68.546875 
Q 53.21875 62.890625 53.21875 53.421875 
Q 53.21875 48.921875 51.53125 44.890625 
Q 49.859375 40.875 45.40625 35.40625 
Q 44.1875 33.984375 37.640625 27.21875 
Q 31.109375 20.453125 19.1875 8.296875 
z
" id="DejaVuSans-32"/>
       <path d="M 31.78125 66.40625 
Q 24.171875 66.40625 20.328125 58.90625 
Q 16.5 51.421875 16.5 36.375 
Q 16.5 21.390625 20.328125 13.890625 
Q 24.171875 6.390625 31.78125 6.390625 
Q 39.453125 6.390625 43.28125 13.890625 
Q 47.125 21.390625 47.125 36.375 
Q 47.125 51.421875 43.28125 58.90625 
Q 39.453125 66.40625 31.78125 66.40625 
z
M 31.78125 74.21875 
Q 44.046875 74.21875 50.515625 64.515625 
Q 56.984375 54.828125 56.984375 36.375 
Q 56.984375 17.96875 50.515625 8.265625 
Q 44.046875 -1.421875 31.78125 -1.421875 
Q 19.53125 -1.421875 13.0625 8.265625 
Q 6.59375 17.96875 6.59375 36.375 
Q 6.59375 54.828125 13.0625 64.515625 
Q 19.53125 74.21875 31.78125 74.21875 
z
" id="DejaVuSans-30"/>
      </defs>
      <g transform="translate(250.681031 196.1775)scale(0.16 -0.16)">
       <use xlink:href="#DejaVuSans-32"/>
       <use x="63.623047" xlink:href="#DejaVuSans-30"/>
      </g>
     </g>
    </g>
    <g id="xtick_4">
     <g id="line2d_4">
      <g>
       <use style="stroke:#000000;stroke-width:0.8;" x="352.83491" xlink:href="#m87bfcd902f" y="177.02"/>
      </g>
     </g>
     <g id="text_4">
      <!-- 22 -->
      <g transform="translate(342.65491 196.1775)scale(0.16 -0.16)">
       <use xlink:href="#DejaVuSans-32"/>
       <use x="63.623047" xlink:href="#DejaVuSans-32"/>
      </g>
     </g>
    </g>
    <g id="xtick_5">
     <g id="line2d_5">
      <g>
       <use style="stroke:#000000;stroke-width:0.8;" x="444.808788" xlink:href="#m87bfcd902f" y="177.02"/>
      </g>
     </g>
     <g id="text_5">
      <!-- 24 -->
      <defs>
       <path d="M 37.796875 64.3125 
L 12.890625 25.390625 
L 37.796875 25.390625 
z
M 35.203125 72.90625 
L 47.609375 72.90625 
L 47.609375 25.390625 
L 58.015625 25.390625 
L 58.015625 17.1875 
L 47.609375 17.1875 
L 47.609375 0 
L 37.796875 0 
L 37.796875 17.1875 
L 4.890625 17.1875 
L 4.890625 26.703125 
z
" id="DejaVuSans-34"/>
      </defs>
      <g transform="translate(434.628788 196.1775)scale(0.16 -0.16)">
       <use xlink:href="#DejaVuSans-32"/>
       <use x="63.623047" xlink:href="#DejaVuSans-34"/>
      </g>
     </g>
    </g>
    <g id="xtick_6">
     <g id="line2d_6">
      <g>
       <use style="stroke:#000000;stroke-width:0.8;" x="536.782666" xlink:href="#m87bfcd902f" y="177.02"/>
      </g>
     </g>
     <g id="text_6">
      <!-- 26 -->
      <g transform="translate(526.602666 196.1775)scale(0.16 -0.16)">
       <use xlink:href="#DejaVuSans-32"/>
       <use x="63.623047" xlink:href="#DejaVuSans-36"/>
      </g>
     </g>
    </g>
    <g id="xtick_7">
     <g id="line2d_7">
      <g>
       <use style="stroke:#000000;stroke-width:0.8;" x="628.756544" xlink:href="#m87bfcd902f" y="177.02"/>
      </g>
     </g>
     <g id="text_7">
      <!-- 28 -->
      <g transform="translate(618.576544 196.1775)scale(0.16 -0.16)">
       <use xlink:href="#DejaVuSans-32"/>
       <use x="63.623047" xlink:href="#DejaVuSans-38"/>
      </g>
     </g>
    </g>
    <g id="xtick_8">
     <g id="line2d_8">
      <g>
       <use style="stroke:#000000;stroke-width:0.8;" x="720.730422" xlink:href="#m87bfcd902f" y="177.02"/>
      </g>
     </g>
     <g id="text_8">
      <!-- 30 -->
      <defs>
       <path d="M 40.578125 39.3125 
Q 47.65625 37.796875 51.625 33 
Q 55.609375 28.21875 55.609375 21.1875 
Q 55.609375 10.40625 48.1875 4.484375 
Q 40.765625 -1.421875 27.09375 -1.421875 
Q 22.515625 -1.421875 17.65625 -0.515625 
Q 12.796875 0.390625 7.625 2.203125 
L 7.625 11.71875 
Q 11.71875 9.328125 16.59375 8.109375 
Q 21.484375 6.890625 26.8125 6.890625 
Q 36.078125 6.890625 40.9375 10.546875 
Q 45.796875 14.203125 45.796875 21.1875 
Q 45.796875 27.640625 41.28125 31.265625 
Q 36.765625 34.90625 28.71875 34.90625 
L 20.21875 34.90625 
L 20.21875 43.015625 
L 29.109375 43.015625 
Q 36.375 43.015625 40.234375 45.921875 
Q 44.09375 48.828125 44.09375 54.296875 
Q 44.09375 59.90625 40.109375 62.90625 
Q 36.140625 65.921875 28.71875 65.921875 
Q 24.65625 65.921875 20.015625 65.03125 
Q 15.375 64.15625 9.8125 62.3125 
L 9.8125 71.09375 
Q 15.4375 72.65625 20.34375 73.4375 
Q 25.25 74.21875 29.59375 74.21875 
Q 40.828125 74.21875 47.359375 69.109375 
Q 53.90625 64.015625 53.90625 55.328125 
Q 53.90625 49.265625 50.4375 45.09375 
Q 46.96875 40.921875 40.578125 39.3125 
z
" id="DejaVuSans-33"/>
      </defs>
      <g transform="translate(710.550422 196.1775)scale(0.16 -0.16)">
       <use xlink:href="#DejaVuSans-33"/>
       <use x="63.623047" xlink:href="#DejaVuSans-30"/>
      </g>
     </g>
    </g>
   </g>
   <g id="matplotlib.axis_2">
    <g id="ytick_1">
     <g id="line2d_9">
      <defs>
       <path d="M 0 0 
L -3.5 0 
" id="ma710787f5c" style="stroke:#000000;stroke-width:0.8;"/>
      </defs>
      <g>
       <use style="stroke:#000000;stroke-width:0.8;" x="39.645" xlink:href="#ma710787f5c" y="169.460022"/>
      </g>
     </g>
     <g id="text_9">
      <!-- 0.0 -->
      <defs>
       <path d="M 10.6875 12.40625 
L 21 12.40625 
L 21 0 
L 10.6875 0 
z
" id="DejaVuSans-2e"/>
      </defs>
      <g transform="translate(7.2 175.538772)scale(0.16 -0.16)">
       <use xlink:href="#DejaVuSans-30"/>
       <use x="63.623047" xlink:href="#DejaVuSans-2e"/>
       <use x="95.410156" xlink:href="#DejaVuSans-30"/>
      </g>
     </g>
    </g>
    <g id="ytick_2">
     <g id="line2d_10">
      <g>
       <use style="stroke:#000000;stroke-width:0.8;" x="39.645" xlink:href="#ma710787f5c" y="126.269153"/>
      </g>
     </g>
     <g id="text_10">
      <!-- 0.2 -->
      <g transform="translate(7.2 132.347903)scale(0.16 -0.16)">
       <use xlink:href="#DejaVuSans-30"/>
       <use x="63.623047" xlink:href="#DejaVuSans-2e"/>
       <use x="95.410156" xlink:href="#DejaVuSans-32"/>
      </g>
     </g>
    </g>
    <g id="ytick_3">
     <g id="line2d_11">
      <g>
       <use style="stroke:#000000;stroke-width:0.8;" x="39.645" xlink:href="#ma710787f5c" y="83.078285"/>
      </g>
     </g>
     <g id="text_11">
      <!-- 0.4 -->
      <g transform="translate(7.2 89.157035)scale(0.16 -0.16)">
       <use xlink:href="#DejaVuSans-30"/>
       <use x="63.623047" xlink:href="#DejaVuSans-2e"/>
       <use x="95.410156" xlink:href="#DejaVuSans-34"/>
      </g>
     </g>
    </g>
    <g id="ytick_4">
     <g id="line2d_12">
      <g>
       <use style="stroke:#000000;stroke-width:0.8;" x="39.645" xlink:href="#ma710787f5c" y="39.887417"/>
      </g>
     </g>
     <g id="text_12">
      <!-- 0.6 -->
      <g transform="translate(7.2 45.966167)scale(0.16 -0.16)">
       <use xlink:href="#DejaVuSans-30"/>
       <use x="63.623047" xlink:href="#DejaVuSans-2e"/>
       <use x="95.410156" xlink:href="#DejaVuSans-36"/>
      </g>
     </g>
    </g>
   </g>
   <g id="line2d_13">
    <path clip-path="url(#p04646b9e0e)" d="M 39.645 169.38877 
L 40.66775 168.926502 
L 41.690499 169.434958 
L 45.781497 169.429145 
L 46.804247 168.528042 
L 47.826996 169.334205 
L 48.849746 169.319384 
L 49.872035 168.616848 
L 50.894785 169.282963 
L 52.940284 169.358345 
L 54.985783 169.453658 
L 56.008533 169.200469 
L 57.031282 169.439519 
L 61.12228 169.456475 
L 62.14503 167.945195 
L 63.167779 157.58121 
L 64.190529 145.573551 
L 65.213278 143.849614 
L 66.236028 144.754823 
L 67.258777 144.54831 
L 68.281527 136.618215 
L 69.304276 139.511748 
L 70.327026 143.566167 
L 71.349316 146.448405 
L 72.372065 147.622428 
L 73.394815 146.361371 
L 74.417564 149.35921 
L 75.440314 169.186885 
L 76.463063 169.458691 
L 85.667809 169.449147 
L 86.690558 169.245262 
L 87.713308 160.220864 
L 88.736057 169.144061 
L 89.758807 169.209924 
L 90.781556 169.116238 
L 91.804306 167.994323 
L 92.826596 167.55122 
L 93.849345 168.114699 
L 94.872095 169.050929 
L 95.894844 163.128101 
L 96.917594 158.136098 
L 97.940343 156.774157 
L 98.963093 167.077076 
L 99.985842 156.070312 
L 101.008592 150.426197 
L 102.031341 145.587539 
L 103.054091 157.997383 
L 104.07684 156.211954 
L 105.09959 156.03599 
L 106.122339 144.20084 
L 107.145089 164.715009 
L 108.167839 168.766369 
L 109.190588 169.301222 
L 112.258837 169.315253 
L 113.281586 169.451272 
L 116.349375 169.45157 
L 117.372124 169.241276 
L 119.417623 169.139376 
L 122.485872 169.278734 
L 123.508622 168.336235 
L 124.531371 169.326456 
L 134.758866 169.453451 
L 150.099649 169.413887 
L 151.122399 168.372338 
L 152.145148 146.474062 
L 154.190647 133.138575 
L 155.213397 129.502186 
L 156.236146 126.99949 
L 157.258436 120.786591 
L 158.281186 119.911004 
L 159.303935 120.209885 
L 160.326685 118.886517 
L 161.349434 122.513578 
L 162.372184 123.602204 
L 163.394933 123.104105 
L 164.417683 126.697261 
L 165.440432 132.209839 
L 166.463182 138.497518 
L 167.485931 145.59785 
L 168.508681 154.999679 
L 169.53143 145.839103 
L 170.55418 164.199052 
L 171.576929 168.196012 
L 172.599679 168.545638 
L 173.622428 168.478748 
L 174.645178 168.575427 
L 176.690677 169.455052 
L 186.917712 169.378748 
L 187.940462 167.601035 
L 188.963211 159.164851 
L 189.985961 156.899677 
L 191.008711 157.286401 
L 192.03146 156.792081 
L 193.05421 156.593299 
L 194.076959 150.288854 
L 195.099709 140.058202 
L 196.122458 144.179056 
L 197.145208 144.167651 
L 198.167957 144.379452 
L 199.190247 141.789211 
L 200.212996 137.688441 
L 201.235746 135.866968 
L 202.258495 144.701204 
L 204.303994 143.648355 
L 205.326744 139.513714 
L 206.349494 142.065931 
L 207.372243 146.700211 
L 208.394993 161.636057 
L 209.417742 160.484037 
L 210.440492 158.066161 
L 211.463241 158.1827 
L 212.485991 160.515609 
L 213.50874 145.763219 
L 214.53149 147.38168 
L 215.554239 147.76254 
L 216.576989 148.543234 
L 217.599738 148.218489 
L 218.622488 141.203119 
L 219.645237 144.818543 
L 220.667527 149.432084 
L 221.690277 144.448221 
L 222.713026 140.957126 
L 223.735776 140.554313 
L 224.758525 140.766591 
L 225.781275 148.8727 
L 226.804024 146.306749 
L 228.849523 126.388771 
L 229.872273 108.641211 
L 231.917772 61.611754 
L 232.940521 53.366294 
L 234.98602 41.372837 
L 236.00877 38.043361 
L 237.031519 32.75194 
L 238.054269 40.459458 
L 239.077018 55.346055 
L 240.099768 63.156692 
L 241.122517 72.974084 
L 242.144807 91.01113 
L 243.167557 113.475997 
L 245.213056 169.003977 
L 246.235805 169.456271 
L 249.304054 169.453265 
L 250.326803 168.917801 
L 251.349553 146.743818 
L 253.395052 141.63731 
L 254.417801 139.601134 
L 255.440551 137.825256 
L 256.4633 137.800575 
L 257.48605 138.237718 
L 259.531549 143.541391 
L 260.554299 145.685101 
L 261.577048 151.35725 
L 262.599798 166.293116 
L 263.622087 169.269774 
L 264.644837 169.173715 
L 265.667586 168.578194 
L 266.690336 166.706044 
L 267.713085 165.817179 
L 268.735835 164.765367 
L 270.781334 145.871479 
L 271.804083 148.617762 
L 272.826833 167.060573 
L 273.849583 168.333541 
L 274.872332 168.92897 
L 276.917831 168.811971 
L 277.940581 169.455334 
L 300.44061 169.456811 
L 305.553898 169.32828 
L 306.576648 168.323159 
L 307.599397 169.389329 
L 312.713145 169.426091 
L 316.804143 169.456261 
L 336.235924 169.423526 
L 337.258673 167.072403 
L 338.281423 158.841374 
L 339.304172 146.947119 
L 340.326922 142.301673 
L 341.349672 138.989974 
L 342.372421 137.575576 
L 343.395171 135.730211 
L 344.41792 135.268783 
L 345.44067 135.40336 
L 346.463419 135.236813 
L 347.486169 136.724239 
L 348.508458 138.444475 
L 349.531208 141.428087 
L 350.553957 152.331683 
L 351.576707 166.940141 
L 352.599456 169.075651 
L 353.622206 169.368181 
L 356.690455 169.459378 
L 367.940699 169.389291 
L 369.985738 169.323153 
L 372.031238 169.395942 
L 377.144985 169.387931 
L 378.167735 144.928179 
L 379.190484 131.806538 
L 380.213234 123.60879 
L 381.235983 119.784995 
L 382.258733 118.460763 
L 383.281482 118.627263 
L 384.304232 100.339062 
L 385.326981 101.045557 
L 386.349731 103.377432 
L 387.37248 110.546576 
L 388.39523 112.581514 
L 389.417979 117.041187 
L 390.440729 116.939796 
L 391.463019 129.67441 
L 392.485768 144.690684 
L 393.508518 169.380811 
L 395.554017 169.417158 
L 396.576766 168.906177 
L 397.599516 168.257165 
L 398.622265 168.285058 
L 399.645015 167.96637 
L 400.667764 167.474626 
L 401.690514 151.993163 
L 402.713263 151.642071 
L 404.758762 149.120929 
L 405.781512 168.267045 
L 406.804262 168.347837 
L 407.827011 169.325421 
L 408.849761 169.456432 
L 430.327041 169.433805 
L 431.34979 167.546832 
L 432.37254 146.844141 
L 433.394829 139.290802 
L 435.440328 127.911789 
L 436.463078 126.518667 
L 437.485828 127.895916 
L 438.508577 126.691323 
L 439.531327 126.363612 
L 440.554076 126.903066 
L 441.576826 123.333772 
L 442.599575 120.273375 
L 443.622325 115.451007 
L 444.645074 107.14022 
L 445.667824 101.380502 
L 446.690573 90.067734 
L 447.713323 72.836629 
L 448.736072 61.009458 
L 449.758822 53.491331 
L 450.781571 42.309971 
L 451.804321 35.061032 
L 452.82707 22.611912 
L 453.84982 22.636963 
L 454.87211 27.215195 
L 455.894859 34.944416 
L 456.917609 45.290357 
L 457.940358 53.54262 
L 458.963108 65.009688 
L 459.985857 79.54849 
L 462.031356 103.213522 
L 463.054106 110.717072 
L 464.076855 115.883456 
L 465.099605 124.860354 
L 466.122354 129.148236 
L 467.145104 128.355791 
L 468.167853 124.421426 
L 469.190603 117.823481 
L 470.213352 103.768309 
L 472.258851 81.392524 
L 473.281601 74.197465 
L 475.3271 55.300381 
L 476.34939 54.875059 
L 477.372139 55.230627 
L 478.394889 55.4157 
L 479.417638 53.848628 
L 480.440388 55.612651 
L 481.463137 60.900293 
L 482.485887 73.490863 
L 483.508636 83.565673 
L 484.531386 87.114666 
L 485.554135 76.325371 
L 486.576885 77.094385 
L 487.599634 77.352666 
L 488.622384 78.204498 
L 489.645134 79.698578 
L 490.667883 76.235858 
L 491.690633 76.893871 
L 494.758881 98.309739 
L 495.781631 104.486141 
L 496.80438 108.123244 
L 498.849419 129.485341 
L 499.872169 137.610417 
L 500.894918 143.116849 
L 501.917668 152.815539 
L 502.940417 164.352736 
L 503.963167 169.208688 
L 504.985917 168.747349 
L 506.008666 169.423767 
L 508.054165 169.325719 
L 509.076915 169.183288 
L 510.099664 168.632508 
L 511.122414 167.492715 
L 512.145163 162.207611 
L 513.167913 144.487332 
L 514.190662 137.701103 
L 515.213412 128.859613 
L 516.236161 118.085866 
L 519.30395 91.822363 
L 521.349449 72.609337 
L 522.372199 62.217398 
L 523.394948 58.512917 
L 526.463197 40.863833 
L 527.485946 28.598382 
L 528.508696 24.36978 
L 529.531445 24.561008 
L 530.554195 24.144 
L 531.576944 22.389155 
L 532.599694 23.772882 
L 533.622443 18.26 
L 534.645193 32.2587 
L 535.667942 41.817595 
L 536.690692 46.921352 
L 537.713441 50.76372 
L 538.736191 61.250571 
L 539.758481 65.139584 
L 540.78123 82.446921 
L 541.80398 89.442114 
L 542.826729 90.449541 
L 543.849479 93.138281 
L 544.872228 94.981991 
L 545.894978 87.85377 
L 546.917727 94.233925 
L 547.940477 94.194945 
L 548.963226 92.37445 
L 549.985976 92.525726 
L 552.031475 92.305453 
L 553.054224 92.960658 
L 554.076974 90.486469 
L 555.099723 87.64559 
L 556.122473 86.381609 
L 557.145223 86.210681 
L 558.167972 85.4421 
L 559.190722 82.552955 
L 560.213471 81.162749 
L 561.235761 80.663138 
L 562.25851 82.463658 
L 563.28126 84.722108 
L 564.304009 84.397637 
L 565.326759 85.447499 
L 567.372258 95.373732 
L 568.395007 99.413806 
L 569.417757 101.761014 
L 570.440506 99.339841 
L 571.463256 105.495188 
L 572.486006 110.691805 
L 573.508755 114.130338 
L 574.531505 116.253925 
L 575.554254 114.490118 
L 576.577004 117.089669 
L 577.599753 123.674656 
L 578.622503 128.841041 
L 579.645252 132.626639 
L 580.668002 131.930929 
L 581.690751 136.434829 
L 582.713041 142.603776 
L 583.73579 146.139343 
L 584.75854 147.965106 
L 585.781289 150.714202 
L 586.804039 151.849451 
L 587.826789 157.559039 
L 588.849538 160.899936 
L 589.872288 151.832817 
L 590.895037 162.326183 
L 591.917787 160.863919 
L 592.940536 157.349311 
L 593.963286 144.120868 
L 594.986035 145.404902 
L 596.008785 139.92613 
L 597.031534 141.328144 
L 598.054284 141.302858 
L 599.077033 140.814205 
L 600.099783 142.629614 
L 601.122532 140.314822 
L 602.145282 140.778991 
L 603.168031 147.25681 
L 604.190321 148.219147 
L 605.213071 146.598969 
L 606.23582 146.904532 
L 607.25857 148.569836 
L 608.281319 168.022076 
L 609.304069 169.328822 
L 611.349568 169.224539 
L 614.417816 168.712303 
L 615.440566 168.049065 
L 616.463315 166.350197 
L 617.486065 164.207 
L 618.508814 162.838243 
L 619.531564 162.466252 
L 620.554313 163.224997 
L 622.599812 157.679469 
L 623.622562 158.428501 
L 624.645312 157.907627 
L 625.667601 157.719007 
L 626.690351 156.516999 
L 627.7131 152.89307 
L 628.73585 154.168252 
L 629.758599 156.985216 
L 630.781349 154.797265 
L 631.804098 156.365209 
L 632.826848 155.565512 
L 633.849597 155.64702 
L 634.872347 156.586143 
L 635.895096 155.973318 
L 636.917846 156.082744 
L 637.940595 158.693157 
L 638.963345 155.544427 
L 639.986095 153.150161 
L 641.008844 155.841712 
L 642.031594 153.427194 
L 643.054343 155.555554 
L 644.077093 154.296226 
L 645.099842 147.026498 
L 646.122132 145.25814 
L 647.144881 140.621345 
L 648.167631 136.694084 
L 650.21313 129.604008 
L 651.235879 124.9449 
L 652.258629 121.120888 
L 653.281378 115.370456 
L 654.304128 112.429698 
L 655.326878 110.607259 
L 656.349627 108.047768 
L 657.372377 103.334241 
L 658.395126 102.52722 
L 659.417876 104.275478 
L 660.440625 105.186049 
L 661.463375 105.551876 
L 663.508874 105.073429 
L 664.531623 106.34702 
L 665.554373 106.255131 
L 666.577122 101.998779 
L 667.599412 100.196208 
L 668.622161 100.208734 
L 669.644911 97.519238 
L 670.667661 98.003948 
L 671.69041 98.840879 
L 672.71316 98.876727 
L 673.735909 101.859381 
L 675.781408 104.704363 
L 677.826907 112.873052 
L 678.849657 118.560318 
L 679.872406 122.451167 
L 681.917905 131.8764 
L 682.940655 133.97955 
L 683.963404 136.554454 
L 684.986154 138.567393 
L 687.031653 143.61359 
L 688.054402 149.890758 
L 689.076692 150.50996 
L 690.099442 163.946379 
L 691.122191 167.969873 
L 692.144941 168.825307 
L 693.16769 169.102541 
L 694.19044 169.19633 
L 695.213189 169.412101 
L 699.304187 169.455162 
L 713.622221 169.352343 
L 715.66772 169.278581 
L 716.690469 169.078597 
L 717.713219 168.441803 
L 718.735968 167.230853 
L 719.758718 165.212781 
L 720.781467 163.861666 
L 721.804217 155.680489 
L 722.826967 154.766903 
L 723.849716 150.04979 
L 724.872466 149.062277 
L 725.895215 146.599721 
L 726.917965 145.73853 
L 727.940714 145.286179 
L 729.986213 148.408661 
L 731.008963 143.823391 
L 732.031252 139.971589 
L 733.054002 137.027451 
L 734.076751 134.709885 
L 736.12225 128.711144 
L 737.145 121.940975 
L 737.145 121.940975 
" style="fill:none;stroke:#708090;stroke-linecap:square;stroke-width:2.5;"/>
   </g>
   <g id="patch_3">
    <path d="M 39.645 177.02 
L 39.645 10.7 
" style="fill:none;stroke:#000000;stroke-linecap:square;stroke-linejoin:miter;stroke-width:0.8;"/>
   </g>
   <g id="patch_4">
    <path d="M 737.145 177.02 
L 737.145 10.7 
" style="fill:none;stroke:#000000;stroke-linecap:square;stroke-linejoin:miter;stroke-width:0.8;"/>
   </g>
   <g id="patch_5">
    <path d="M 39.645 177.02 
L 737.145 177.02 
" style="fill:none;stroke:#000000;stroke-linecap:square;stroke-linejoin:miter;stroke-width:0.8;"/>
   </g>
   <g id="patch_6">
    <path d="M 39.645 10.7 
L 737.145 10.7 
" style="fill:none;stroke:#000000;stroke-linecap:square;stroke-linejoin:miter;stroke-width:0.8;"/>
   </g>
  </g>
 </g>
 <defs>
  <clipPath id="p04646b9e0e">
   <rect height="166.32" width="697.5" x="39.645" y="10.7"/>
  </clipPath>
 </defs>
</svg>
