<?xml version="1.0" encoding="utf-8" standalone="no"?>
<!DOCTYPE svg PUBLIC "-//W3C//DTD SVG 1.1//EN"
  "http://www.w3.org/Graphics/SVG/1.1/DTD/svg11.dtd">
<!-- Created with matplotlib (http://matplotlib.org/) -->
<svg height="354pt" version="1.1" viewBox="0 0 441 354" width="441pt" xmlns="http://www.w3.org/2000/svg" xmlns:xlink="http://www.w3.org/1999/xlink">
 <defs>
  <style type="text/css">
*{stroke-linecap:butt;stroke-linejoin:round;}
  </style>
 </defs>
 <g id="figure_1">
  <g id="patch_1">
   <path d="M 0 354.04 
L 441.117188 354.04 
L 441.117188 0 
L 0 0 
z
" style="fill:#ffffff;"/>
  </g>
  <g id="axes_1">
   <g id="patch_2">
    <path d="M 95.617188 343.34 
L 430.417188 343.34 
L 430.417188 10.7 
L 95.617188 10.7 
z
" style="fill:#ffffff;"/>
   </g>
   <g id="PolyCollection_1">
    <defs>
     <path d="M 110.835369 -25.82 
L 110.835369 -182.227662 
L 114.14367 -182.227662 
L 117.45197 -182.227662 
L 120.760271 -182.227662 
L 124.068571 -182.227662 
L 127.376871 -182.227662 
L 130.685172 -182.227662 
L 133.993472 -182.227662 
L 137.301772 -182.227662 
L 140.610073 -182.227662 
L 143.918373 -182.227662 
L 147.226674 -182.227662 
L 150.534974 -182.227662 
L 153.843274 -182.227662 
L 157.151575 -182.227662 
L 160.459875 -182.227662 
L 163.768176 -182.227662 
L 167.076476 -182.227662 
L 170.384776 -182.227662 
L 173.693077 -182.227662 
L 177.001377 -182.227662 
L 180.309678 -182.227662 
L 183.617978 -182.227662 
L 186.926278 -182.227662 
L 190.234579 -182.227662 
L 193.542879 -182.227662 
L 196.85118 -182.227662 
L 200.15948 -182.227662 
L 203.46778 -182.227662 
L 206.776081 -182.227662 
L 210.084381 -182.227662 
L 213.392682 -182.227662 
L 216.700982 -182.227662 
L 220.009282 -182.227662 
L 223.317583 -182.227662 
L 226.625883 -182.227662 
L 229.934184 -182.227662 
L 233.242484 -182.227662 
L 236.550784 -182.227662 
L 239.859085 -182.227662 
L 243.167385 -182.227662 
L 246.475686 -182.227662 
L 249.783986 -182.227662 
L 253.092286 -182.227662 
L 256.400587 -182.227662 
L 259.708887 -182.227662 
L 263.017188 -182.227662 
L 266.325488 -182.227662 
L 269.633788 -182.227662 
L 272.942089 -182.227662 
L 276.250389 -182.227662 
L 279.558689 -182.227662 
L 282.86699 -182.227662 
L 286.17529 -182.227662 
L 289.483591 -182.227662 
L 292.791891 -182.227662 
L 296.100191 -182.227662 
L 299.408492 -182.227662 
L 302.716792 -182.227662 
L 306.025093 -182.227662 
L 309.333393 -182.227662 
L 312.641693 -182.227662 
L 315.949994 -182.227662 
L 319.258294 -182.227662 
L 322.566595 -182.227662 
L 325.874895 -182.227662 
L 329.183195 -182.227662 
L 332.491496 -182.227662 
L 335.799796 -182.227662 
L 339.108097 -182.227662 
L 342.416397 -182.227662 
L 345.724697 -182.227662 
L 349.032998 -182.227662 
L 352.341298 -182.227662 
L 355.649599 -182.227662 
L 358.957899 -182.227662 
L 362.266199 -182.227662 
L 365.5745 -182.227662 
L 368.8828 -182.227662 
L 372.191101 -182.227662 
L 375.499401 -182.227662 
L 378.807701 -182.227662 
L 382.116002 -182.227662 
L 385.424302 -182.227662 
L 388.732603 -182.227662 
L 392.040903 -182.227662 
L 395.349203 -182.227662 
L 398.657504 -182.227662 
L 401.965804 -182.227662 
L 405.274104 -182.227662 
L 408.582405 -182.227662 
L 411.890705 -182.227662 
L 415.199006 -182.227662 
L 415.199006 -328.22 
L 415.199006 -328.22 
L 411.890705 -303.821527 
L 408.582405 -299.98792 
L 405.274104 -291.546522 
L 401.965804 -275.921573 
L 398.657504 -266.341249 
L 395.349203 -260.320996 
L 392.040903 -258.821193 
L 388.732603 -237.21573 
L 385.424302 -236.816315 
L 382.116002 -229.054427 
L 378.807701 -226.568667 
L 375.499401 -226.106759 
L 372.191101 -222.632356 
L 368.8828 -220.655963 
L 365.5745 -219.967134 
L 362.266199 -208.618502 
L 358.957899 -207.219115 
L 355.649599 -207.210745 
L 352.341298 -205.318518 
L 349.032998 -201.651928 
L 345.724697 -198.813777 
L 342.416397 -198.804355 
L 339.108097 -198.725738 
L 335.799796 -198.04101 
L 332.491496 -197.997125 
L 329.183195 -197.719422 
L 325.874895 -197.69978 
L 322.566595 -190.777445 
L 319.258294 -189.49546 
L 315.949994 -189.472598 
L 312.641693 -185.560154 
L 309.333393 -185.407307 
L 306.025093 -184.970406 
L 302.716792 -184.81598 
L 299.408492 -184.340139 
L 296.100191 -184.007295 
L 292.791891 -183.52011 
L 289.483591 -183.232548 
L 286.17529 -183.218832 
L 282.86699 -183.189087 
L 279.558689 -183.146405 
L 276.250389 -183.015139 
L 272.942089 -182.809488 
L 269.633788 -182.620985 
L 266.325488 -182.611161 
L 263.017188 -182.545974 
L 259.708887 -182.536068 
L 256.400587 -182.510109 
L 253.092286 -182.501351 
L 249.783986 -182.416461 
L 246.475686 -182.358897 
L 243.167385 -182.308333 
L 239.859085 -182.259001 
L 236.550784 -182.210794 
L 233.242484 -182.193974 
L 229.934184 -182.186147 
L 226.625883 -182.14085 
L 223.317583 -182.133677 
L 220.009282 -182.079742 
L 216.700982 -182.073382 
L 213.392682 -182.068757 
L 210.084381 -182.023526 
L 206.776081 -182.01888 
L 203.46778 -181.965041 
L 200.15948 -181.955685 
L 196.85118 -181.899238 
L 193.542879 -181.879441 
L 190.234579 -181.790534 
L 186.926278 -181.754186 
L 183.617978 -181.654837 
L 180.309678 -181.639498 
L 177.001377 -181.418016 
L 173.693077 -181.269703 
L 170.384776 -181.209344 
L 167.076476 -181.029789 
L 163.768176 -180.964291 
L 160.459875 -180.464191 
L 157.151575 -180.182315 
L 153.843274 -178.916554 
L 150.534974 -176.131221 
L 147.226674 -170.980484 
L 143.918373 -170.717656 
L 140.610073 -169.614819 
L 137.301772 -154.415472 
L 133.993472 -141.132728 
L 130.685172 -129.039452 
L 127.376871 -109.110733 
L 124.068571 -90.818139 
L 120.760271 -72.133776 
L 117.45197 -61.824683 
L 114.14367 -26.273843 
L 110.835369 -25.82 
z
" id="m66c0918222" style="stroke:#4a98c9;"/>
    </defs>
    <g clip-path="url(#peba73a3b7f)">
     <use style="fill:#4a98c9;stroke:#4a98c9;" x="0" xlink:href="#m66c0918222" y="354.04"/>
    </g>
   </g>
   <g id="PolyCollection_2">
    <defs>
     <path d="M 110.835369 -152.982077 
L 110.835369 -182.227662 
L 114.14367 -182.227662 
L 117.45197 -182.227662 
L 120.760271 -182.227662 
L 124.068571 -182.227662 
L 127.376871 -182.227662 
L 130.685172 -182.227662 
L 133.993472 -182.227662 
L 137.301772 -182.227662 
L 140.610073 -182.227662 
L 143.918373 -182.227662 
L 147.226674 -182.227662 
L 150.534974 -182.227662 
L 153.843274 -182.227662 
L 157.151575 -182.227662 
L 160.459875 -182.227662 
L 163.768176 -182.227662 
L 167.076476 -182.227662 
L 170.384776 -182.227662 
L 173.693077 -182.227662 
L 177.001377 -182.227662 
L 180.309678 -182.227662 
L 183.617978 -182.227662 
L 186.926278 -182.227662 
L 190.234579 -182.227662 
L 193.542879 -182.227662 
L 196.85118 -182.227662 
L 200.15948 -182.227662 
L 203.46778 -182.227662 
L 206.776081 -182.227662 
L 210.084381 -182.227662 
L 213.392682 -182.227662 
L 216.700982 -182.227662 
L 220.009282 -182.227662 
L 223.317583 -182.227662 
L 226.625883 -182.227662 
L 229.934184 -182.227662 
L 233.242484 -182.227662 
L 236.550784 -182.227662 
L 239.859085 -182.227662 
L 243.167385 -182.227662 
L 246.475686 -182.227662 
L 249.783986 -182.227662 
L 253.092286 -182.227662 
L 256.400587 -182.227662 
L 259.708887 -182.227662 
L 263.017188 -182.227662 
L 266.325488 -182.227662 
L 269.633788 -182.227662 
L 272.942089 -182.227662 
L 276.250389 -182.227662 
L 279.558689 -182.227662 
L 282.86699 -182.227662 
L 286.17529 -182.227662 
L 289.483591 -182.227662 
L 292.791891 -182.227662 
L 296.100191 -182.227662 
L 299.408492 -182.227662 
L 302.716792 -182.227662 
L 306.025093 -182.227662 
L 309.333393 -182.227662 
L 312.641693 -182.227662 
L 315.949994 -182.227662 
L 319.258294 -182.227662 
L 322.566595 -182.227662 
L 325.874895 -182.227662 
L 329.183195 -182.227662 
L 332.491496 -182.227662 
L 335.799796 -182.227662 
L 339.108097 -182.227662 
L 342.416397 -182.227662 
L 345.724697 -182.227662 
L 349.032998 -182.227662 
L 352.341298 -182.227662 
L 355.649599 -182.227662 
L 358.957899 -182.227662 
L 362.266199 -182.227662 
L 365.5745 -182.227662 
L 368.8828 -182.227662 
L 372.191101 -182.227662 
L 375.499401 -182.227662 
L 378.807701 -182.227662 
L 382.116002 -182.227662 
L 385.424302 -182.227662 
L 388.732603 -182.227662 
L 392.040903 -182.227662 
L 395.349203 -182.227662 
L 398.657504 -182.227662 
L 401.965804 -182.227662 
L 405.274104 -182.227662 
L 408.582405 -182.227662 
L 411.890705 -182.227662 
L 415.199006 -182.227662 
L 415.199006 -210.221051 
L 415.199006 -210.221051 
L 411.890705 -209.453746 
L 408.582405 -205.063323 
L 405.274104 -200.115906 
L 401.965804 -200.106709 
L 398.657504 -199.244339 
L 395.349203 -198.485048 
L 392.040903 -198.154007 
L 388.732603 -197.556552 
L 385.424302 -197.330479 
L 382.116002 -196.706269 
L 378.807701 -194.820239 
L 375.499401 -192.651899 
L 372.191101 -192.188337 
L 368.8828 -192.123004 
L 365.5745 -191.781901 
L 362.266199 -191.385443 
L 358.957899 -189.546605 
L 355.649599 -188.77414 
L 352.341298 -188.294334 
L 349.032998 -187.524902 
L 345.724697 -187.169967 
L 342.416397 -185.893201 
L 339.108097 -185.464776 
L 335.799796 -185.134378 
L 332.491496 -184.807616 
L 329.183195 -184.634061 
L 325.874895 -184.028361 
L 322.566595 -183.6812 
L 319.258294 -183.384664 
L 315.949994 -183.050302 
L 312.641693 -182.811376 
L 309.333393 -182.746606 
L 306.025093 -182.741893 
L 302.716792 -182.729313 
L 299.408492 -182.710081 
L 296.100191 -182.660214 
L 292.791891 -182.646316 
L 289.483591 -182.63995 
L 286.17529 -182.608762 
L 282.86699 -182.606657 
L 279.558689 -182.544704 
L 276.250389 -182.455075 
L 272.942089 -182.387454 
L 269.633788 -182.369238 
L 266.325488 -182.356199 
L 263.017188 -182.334731 
L 259.708887 -182.330023 
L 256.400587 -182.30011 
L 253.092286 -182.292655 
L 249.783986 -182.284087 
L 246.475686 -182.275475 
L 243.167385 -182.265335 
L 239.859085 -182.245503 
L 236.550784 -182.238634 
L 233.242484 -182.229507 
L 229.934184 -182.195305 
L 226.625883 -182.184678 
L 223.317583 -182.182101 
L 220.009282 -182.17965 
L 216.700982 -182.166254 
L 213.392682 -182.161644 
L 210.084381 -182.153934 
L 206.776081 -182.140908 
L 203.46778 -182.118778 
L 200.15948 -182.117419 
L 196.85118 -182.097807 
L 193.542879 -182.066662 
L 190.234579 -182.008871 
L 186.926278 -182.000711 
L 183.617978 -181.999232 
L 180.309678 -181.98693 
L 177.001377 -181.956982 
L 173.693077 -181.913568 
L 170.384776 -181.884553 
L 167.076476 -181.702793 
L 163.768176 -181.46258 
L 160.459875 -181.199836 
L 157.151575 -180.667109 
L 153.843274 -179.72125 
L 150.534974 -178.39586 
L 147.226674 -178.016401 
L 143.918373 -177.30284 
L 140.610073 -174.580189 
L 137.301772 -174.31156 
L 133.993472 -173.719816 
L 130.685172 -165.686488 
L 127.376871 -163.622205 
L 124.068571 -162.514762 
L 120.760271 -158.434757 
L 117.45197 -156.001752 
L 114.14367 -155.006643 
L 110.835369 -152.982077 
z
" id="m9022a90bc8" style="stroke:#f14432;stroke-opacity:0.8;"/>
    </defs>
    <g clip-path="url(#peba73a3b7f)">
     <use style="fill:#f14432;fill-opacity:0.8;stroke:#f14432;stroke-opacity:0.8;" x="0" xlink:href="#m9022a90bc8" y="354.04"/>
    </g>
   </g>
   <g id="matplotlib.axis_1"/>
   <g id="matplotlib.axis_2">
    <g id="ytick_1">
     <g id="line2d_1">
      <defs>
       <path d="M 0 0 
L -3.5 0 
" id="m93bfce1952" style="stroke:#000000;stroke-width:0.8;"/>
      </defs>
      <g>
       <use style="stroke:#000000;stroke-width:0.8;" x="95.617188" xlink:href="#m93bfce1952" y="301.696274"/>
      </g>
     </g>
     <g id="text_1">
      <!-- −0.075 -->
      <defs>
       <path d="M 10.59375 35.5 
L 73.1875 35.5 
L 73.1875 27.203125 
L 10.59375 27.203125 
z
" id="DejaVuSans-2212"/>
       <path d="M 31.78125 66.40625 
Q 24.171875 66.40625 20.328125 58.90625 
Q 16.5 51.421875 16.5 36.375 
Q 16.5 21.390625 20.328125 13.890625 
Q 24.171875 6.390625 31.78125 6.390625 
Q 39.453125 6.390625 43.28125 13.890625 
Q 47.125 21.390625 47.125 36.375 
Q 47.125 51.421875 43.28125 58.90625 
Q 39.453125 66.40625 31.78125 66.40625 
z
M 31.78125 74.21875 
Q 44.046875 74.21875 50.515625 64.515625 
Q 56.984375 54.828125 56.984375 36.375 
Q 56.984375 17.96875 50.515625 8.265625 
Q 44.046875 -1.421875 31.78125 -1.421875 
Q 19.53125 -1.421875 13.0625 8.265625 
Q 6.59375 17.96875 6.59375 36.375 
Q 6.59375 54.828125 13.0625 64.515625 
Q 19.53125 74.21875 31.78125 74.21875 
z
" id="DejaVuSans-30"/>
       <path d="M 10.6875 12.40625 
L 21 12.40625 
L 21 0 
L 10.6875 0 
z
" id="DejaVuSans-2e"/>
       <path d="M 8.203125 72.90625 
L 55.078125 72.90625 
L 55.078125 68.703125 
L 28.609375 0 
L 18.3125 0 
L 43.21875 64.59375 
L 8.203125 64.59375 
z
" id="DejaVuSans-37"/>
       <path d="M 10.796875 72.90625 
L 49.515625 72.90625 
L 49.515625 64.59375 
L 19.828125 64.59375 
L 19.828125 46.734375 
Q 21.96875 47.46875 24.109375 47.828125 
Q 26.265625 48.1875 28.421875 48.1875 
Q 40.625 48.1875 47.75 41.5 
Q 54.890625 34.8125 54.890625 23.390625 
Q 54.890625 11.625 47.5625 5.09375 
Q 40.234375 -1.421875 26.90625 -1.421875 
Q 22.3125 -1.421875 17.546875 -0.640625 
Q 12.796875 0.140625 7.71875 1.703125 
L 7.71875 11.625 
Q 12.109375 9.234375 16.796875 8.0625 
Q 21.484375 6.890625 26.703125 6.890625 
Q 35.15625 6.890625 40.078125 11.328125 
Q 45.015625 15.765625 45.015625 23.390625 
Q 45.015625 31 40.078125 35.4375 
Q 35.15625 39.890625 26.703125 39.890625 
Q 22.75 39.890625 18.8125 39.015625 
Q 14.890625 38.140625 10.796875 36.28125 
z
" id="DejaVuSans-35"/>
      </defs>
      <g transform="translate(7.2 310.054555)scale(0.22 -0.22)">
       <use xlink:href="#DejaVuSans-2212"/>
       <use x="83.789062" xlink:href="#DejaVuSans-30"/>
       <use x="147.412109" xlink:href="#DejaVuSans-2e"/>
       <use x="179.199219" xlink:href="#DejaVuSans-30"/>
       <use x="242.822266" xlink:href="#DejaVuSans-37"/>
       <use x="306.445312" xlink:href="#DejaVuSans-35"/>
      </g>
     </g>
    </g>
    <g id="ytick_2">
     <g id="line2d_2">
      <g>
       <use style="stroke:#000000;stroke-width:0.8;" x="95.617188" xlink:href="#m93bfce1952" y="258.401628"/>
      </g>
     </g>
     <g id="text_2">
      <!-- −0.050 -->
      <g transform="translate(7.2 266.75991)scale(0.22 -0.22)">
       <use xlink:href="#DejaVuSans-2212"/>
       <use x="83.789062" xlink:href="#DejaVuSans-30"/>
       <use x="147.412109" xlink:href="#DejaVuSans-2e"/>
       <use x="179.199219" xlink:href="#DejaVuSans-30"/>
       <use x="242.822266" xlink:href="#DejaVuSans-35"/>
       <use x="306.445312" xlink:href="#DejaVuSans-30"/>
      </g>
     </g>
    </g>
    <g id="ytick_3">
     <g id="line2d_3">
      <g>
       <use style="stroke:#000000;stroke-width:0.8;" x="95.617188" xlink:href="#m93bfce1952" y="215.106983"/>
      </g>
     </g>
     <g id="text_3">
      <!-- −0.025 -->
      <defs>
       <path d="M 19.1875 8.296875 
L 53.609375 8.296875 
L 53.609375 0 
L 7.328125 0 
L 7.328125 8.296875 
Q 12.9375 14.109375 22.625 23.890625 
Q 32.328125 33.6875 34.8125 36.53125 
Q 39.546875 41.84375 41.421875 45.53125 
Q 43.3125 49.21875 43.3125 52.78125 
Q 43.3125 58.59375 39.234375 62.25 
Q 35.15625 65.921875 28.609375 65.921875 
Q 23.96875 65.921875 18.8125 64.3125 
Q 13.671875 62.703125 7.8125 59.421875 
L 7.8125 69.390625 
Q 13.765625 71.78125 18.9375 73 
Q 24.125 74.21875 28.421875 74.21875 
Q 39.75 74.21875 46.484375 68.546875 
Q 53.21875 62.890625 53.21875 53.421875 
Q 53.21875 48.921875 51.53125 44.890625 
Q 49.859375 40.875 45.40625 35.40625 
Q 44.1875 33.984375 37.640625 27.21875 
Q 31.109375 20.453125 19.1875 8.296875 
z
" id="DejaVuSans-32"/>
      </defs>
      <g transform="translate(7.2 223.465264)scale(0.22 -0.22)">
       <use xlink:href="#DejaVuSans-2212"/>
       <use x="83.789062" xlink:href="#DejaVuSans-30"/>
       <use x="147.412109" xlink:href="#DejaVuSans-2e"/>
       <use x="179.199219" xlink:href="#DejaVuSans-30"/>
       <use x="242.822266" xlink:href="#DejaVuSans-32"/>
       <use x="306.445312" xlink:href="#DejaVuSans-35"/>
      </g>
     </g>
    </g>
    <g id="ytick_4">
     <g id="line2d_4">
      <g>
       <use style="stroke:#000000;stroke-width:0.8;" x="95.617188" xlink:href="#m93bfce1952" y="171.812338"/>
      </g>
     </g>
     <g id="text_4">
      <!-- 0.000 -->
      <g transform="translate(25.635312 180.170619)scale(0.22 -0.22)">
       <use xlink:href="#DejaVuSans-30"/>
       <use x="63.623047" xlink:href="#DejaVuSans-2e"/>
       <use x="95.410156" xlink:href="#DejaVuSans-30"/>
       <use x="159.033203" xlink:href="#DejaVuSans-30"/>
       <use x="222.65625" xlink:href="#DejaVuSans-30"/>
      </g>
     </g>
    </g>
    <g id="ytick_5">
     <g id="line2d_5">
      <g>
       <use style="stroke:#000000;stroke-width:0.8;" x="95.617188" xlink:href="#m93bfce1952" y="128.517693"/>
      </g>
     </g>
     <g id="text_5">
      <!-- 0.025 -->
      <g transform="translate(25.635312 136.875974)scale(0.22 -0.22)">
       <use xlink:href="#DejaVuSans-30"/>
       <use x="63.623047" xlink:href="#DejaVuSans-2e"/>
       <use x="95.410156" xlink:href="#DejaVuSans-30"/>
       <use x="159.033203" xlink:href="#DejaVuSans-32"/>
       <use x="222.65625" xlink:href="#DejaVuSans-35"/>
      </g>
     </g>
    </g>
    <g id="ytick_6">
     <g id="line2d_6">
      <g>
       <use style="stroke:#000000;stroke-width:0.8;" x="95.617188" xlink:href="#m93bfce1952" y="85.223048"/>
      </g>
     </g>
     <g id="text_6">
      <!-- 0.050 -->
      <g transform="translate(25.635312 93.581329)scale(0.22 -0.22)">
       <use xlink:href="#DejaVuSans-30"/>
       <use x="63.623047" xlink:href="#DejaVuSans-2e"/>
       <use x="95.410156" xlink:href="#DejaVuSans-30"/>
       <use x="159.033203" xlink:href="#DejaVuSans-35"/>
       <use x="222.65625" xlink:href="#DejaVuSans-30"/>
      </g>
     </g>
    </g>
    <g id="ytick_7">
     <g id="line2d_7">
      <g>
       <use style="stroke:#000000;stroke-width:0.8;" x="95.617188" xlink:href="#m93bfce1952" y="41.928402"/>
      </g>
     </g>
     <g id="text_7">
      <!-- 0.075 -->
      <g transform="translate(25.635312 50.286684)scale(0.22 -0.22)">
       <use xlink:href="#DejaVuSans-30"/>
       <use x="63.623047" xlink:href="#DejaVuSans-2e"/>
       <use x="95.410156" xlink:href="#DejaVuSans-30"/>
       <use x="159.033203" xlink:href="#DejaVuSans-37"/>
       <use x="222.65625" xlink:href="#DejaVuSans-35"/>
      </g>
     </g>
    </g>
   </g>
   <g id="patch_3">
    <path d="M 95.617188 343.34 
L 95.617188 10.7 
" style="fill:none;stroke:#000000;stroke-linecap:square;stroke-linejoin:miter;stroke-width:0.8;"/>
   </g>
   <g id="patch_4">
    <path d="M 430.417188 343.34 
L 430.417188 10.7 
" style="fill:none;stroke:#000000;stroke-linecap:square;stroke-linejoin:miter;stroke-width:0.8;"/>
   </g>
   <g id="patch_5">
    <path d="M 95.617188 343.34 
L 430.417188 343.34 
" style="fill:none;stroke:#000000;stroke-linecap:square;stroke-linejoin:miter;stroke-width:0.8;"/>
   </g>
   <g id="patch_6">
    <path d="M 95.617188 10.7 
L 430.417188 10.7 
" style="fill:none;stroke:#000000;stroke-linecap:square;stroke-linejoin:miter;stroke-width:0.8;"/>
   </g>
  </g>
 </g>
 <defs>
  <clipPath id="peba73a3b7f">
   <rect height="332.64" width="334.8" x="95.617188" y="10.7"/>
  </clipPath>
 </defs>
</svg>
