<?xml version="1.0" encoding="utf-8" standalone="no"?>
<!DOCTYPE svg PUBLIC "-//W3C//DTD SVG 1.1//EN"
  "http://www.w3.org/Graphics/SVG/1.1/DTD/svg11.dtd">
<!-- Created with matplotlib (http://matplotlib.org/) -->
<svg height="354pt" version="1.1" viewBox="0 0 441 354" width="441pt" xmlns="http://www.w3.org/2000/svg" xmlns:xlink="http://www.w3.org/1999/xlink">
 <defs>
  <style type="text/css">
*{stroke-linecap:butt;stroke-linejoin:round;}
  </style>
 </defs>
 <g id="figure_1">
  <g id="patch_1">
   <path d="M 0 354.04 
L 441.117188 354.04 
L 441.117188 0 
L 0 0 
z
" style="fill:#ffffff;"/>
  </g>
  <g id="axes_1">
   <g id="patch_2">
    <path d="M 95.617188 343.34 
L 430.417188 343.34 
L 430.417188 10.7 
L 95.617188 10.7 
z
" style="fill:#ffffff;"/>
   </g>
   <g id="PolyCollection_1">
    <defs>
     <path d="M 110.835369 -25.82 
L 110.835369 -166.219738 
L 114.14367 -166.219738 
L 117.45197 -166.219738 
L 120.760271 -166.219738 
L 124.068571 -166.219738 
L 127.376871 -166.219738 
L 130.685172 -166.219738 
L 133.993472 -166.219738 
L 137.301772 -166.219738 
L 140.610073 -166.219738 
L 143.918373 -166.219738 
L 147.226674 -166.219738 
L 150.534974 -166.219738 
L 153.843274 -166.219738 
L 157.151575 -166.219738 
L 160.459875 -166.219738 
L 163.768176 -166.219738 
L 167.076476 -166.219738 
L 170.384776 -166.219738 
L 173.693077 -166.219738 
L 177.001377 -166.219738 
L 180.309678 -166.219738 
L 183.617978 -166.219738 
L 186.926278 -166.219738 
L 190.234579 -166.219738 
L 193.542879 -166.219738 
L 196.85118 -166.219738 
L 200.15948 -166.219738 
L 203.46778 -166.219738 
L 206.776081 -166.219738 
L 210.084381 -166.219738 
L 213.392682 -166.219738 
L 216.700982 -166.219738 
L 220.009282 -166.219738 
L 223.317583 -166.219738 
L 226.625883 -166.219738 
L 229.934184 -166.219738 
L 233.242484 -166.219738 
L 236.550784 -166.219738 
L 239.859085 -166.219738 
L 243.167385 -166.219738 
L 246.475686 -166.219738 
L 249.783986 -166.219738 
L 253.092286 -166.219738 
L 256.400587 -166.219738 
L 259.708887 -166.219738 
L 263.017188 -166.219738 
L 266.325488 -166.219738 
L 269.633788 -166.219738 
L 272.942089 -166.219738 
L 276.250389 -166.219738 
L 279.558689 -166.219738 
L 282.86699 -166.219738 
L 286.17529 -166.219738 
L 289.483591 -166.219738 
L 292.791891 -166.219738 
L 296.100191 -166.219738 
L 299.408492 -166.219738 
L 302.716792 -166.219738 
L 306.025093 -166.219738 
L 309.333393 -166.219738 
L 312.641693 -166.219738 
L 315.949994 -166.219738 
L 319.258294 -166.219738 
L 322.566595 -166.219738 
L 325.874895 -166.219738 
L 329.183195 -166.219738 
L 332.491496 -166.219738 
L 335.799796 -166.219738 
L 339.108097 -166.219738 
L 342.416397 -166.219738 
L 345.724697 -166.219738 
L 349.032998 -166.219738 
L 352.341298 -166.219738 
L 355.649599 -166.219738 
L 358.957899 -166.219738 
L 362.266199 -166.219738 
L 365.5745 -166.219738 
L 368.8828 -166.219738 
L 372.191101 -166.219738 
L 375.499401 -166.219738 
L 378.807701 -166.219738 
L 382.116002 -166.219738 
L 385.424302 -166.219738 
L 388.732603 -166.219738 
L 392.040903 -166.219738 
L 395.349203 -166.219738 
L 398.657504 -166.219738 
L 401.965804 -166.219738 
L 405.274104 -166.219738 
L 408.582405 -166.219738 
L 411.890705 -166.219738 
L 415.199006 -166.219738 
L 415.199006 -328.22 
L 415.199006 -328.22 
L 411.890705 -297.459632 
L 408.582405 -292.587667 
L 405.274104 -278.444622 
L 401.965804 -270.121781 
L 398.657504 -252.092759 
L 395.349203 -227.55956 
L 392.040903 -224.410241 
L 388.732603 -222.694331 
L 385.424302 -216.17808 
L 382.116002 -210.118919 
L 378.807701 -208.651509 
L 375.499401 -207.754444 
L 372.191101 -203.882086 
L 368.8828 -199.507963 
L 365.5745 -192.918578 
L 362.266199 -192.462546 
L 358.957899 -191.880938 
L 355.649599 -191.245293 
L 352.341298 -188.844306 
L 349.032998 -188.016526 
L 345.724697 -187.224941 
L 342.416397 -187.086149 
L 339.108097 -184.901938 
L 335.799796 -184.88786 
L 332.491496 -183.60129 
L 329.183195 -176.844105 
L 325.874895 -174.825651 
L 322.566595 -174.745376 
L 319.258294 -173.45133 
L 315.949994 -172.364504 
L 312.641693 -172.347797 
L 309.333393 -170.75198 
L 306.025093 -170.517434 
L 302.716792 -170.296734 
L 299.408492 -169.859446 
L 296.100191 -169.807988 
L 292.791891 -169.516749 
L 289.483591 -169.444399 
L 286.17529 -169.287098 
L 282.86699 -169.003353 
L 279.558689 -168.77665 
L 276.250389 -168.499179 
L 272.942089 -168.294456 
L 269.633788 -167.809781 
L 266.325488 -167.662423 
L 263.017188 -167.375375 
L 259.708887 -167.361271 
L 256.400587 -167.31382 
L 253.092286 -167.303946 
L 249.783986 -167.296989 
L 246.475686 -167.265179 
L 243.167385 -166.839618 
L 239.859085 -166.829023 
L 236.550784 -166.266585 
L 233.242484 -165.947152 
L 229.934184 -165.832755 
L 226.625883 -165.775182 
L 223.317583 -165.39186 
L 220.009282 -165.34771 
L 216.700982 -165.320265 
L 213.392682 -164.728569 
L 210.084381 -164.482438 
L 206.776081 -164.091806 
L 203.46778 -163.58463 
L 200.15948 -163.350652 
L 196.85118 -162.09123 
L 193.542879 -161.291493 
L 190.234579 -160.249004 
L 186.926278 -159.451698 
L 183.617978 -158.978022 
L 180.309678 -157.456729 
L 177.001377 -157.084943 
L 173.693077 -156.700954 
L 170.384776 -152.069901 
L 167.076476 -151.804635 
L 163.768176 -149.212456 
L 160.459875 -147.990402 
L 157.151575 -146.748531 
L 153.843274 -143.609535 
L 150.534974 -142.707533 
L 147.226674 -135.676162 
L 143.918373 -135.473435 
L 140.610073 -134.593781 
L 137.301772 -132.985248 
L 133.993472 -128.878863 
L 130.685172 -127.233882 
L 127.376871 -120.486799 
L 124.068571 -116.215985 
L 120.760271 -94.760303 
L 117.45197 -90.110179 
L 114.14367 -66.215756 
L 110.835369 -25.82 
z
" id="m496d542547" style="stroke:#4a98c9;"/>
    </defs>
    <g clip-path="url(#p89435ec90b)">
     <use style="fill:#4a98c9;stroke:#4a98c9;" x="0" xlink:href="#m496d542547" y="354.04"/>
    </g>
   </g>
   <g id="PolyCollection_2">
    <defs>
     <path d="M 110.835369 -74.047025 
L 110.835369 -166.219738 
L 114.14367 -166.219738 
L 117.45197 -166.219738 
L 120.760271 -166.219738 
L 124.068571 -166.219738 
L 127.376871 -166.219738 
L 130.685172 -166.219738 
L 133.993472 -166.219738 
L 137.301772 -166.219738 
L 140.610073 -166.219738 
L 143.918373 -166.219738 
L 147.226674 -166.219738 
L 150.534974 -166.219738 
L 153.843274 -166.219738 
L 157.151575 -166.219738 
L 160.459875 -166.219738 
L 163.768176 -166.219738 
L 167.076476 -166.219738 
L 170.384776 -166.219738 
L 173.693077 -166.219738 
L 177.001377 -166.219738 
L 180.309678 -166.219738 
L 183.617978 -166.219738 
L 186.926278 -166.219738 
L 190.234579 -166.219738 
L 193.542879 -166.219738 
L 196.85118 -166.219738 
L 200.15948 -166.219738 
L 203.46778 -166.219738 
L 206.776081 -166.219738 
L 210.084381 -166.219738 
L 213.392682 -166.219738 
L 216.700982 -166.219738 
L 220.009282 -166.219738 
L 223.317583 -166.219738 
L 226.625883 -166.219738 
L 229.934184 -166.219738 
L 233.242484 -166.219738 
L 236.550784 -166.219738 
L 239.859085 -166.219738 
L 243.167385 -166.219738 
L 246.475686 -166.219738 
L 249.783986 -166.219738 
L 253.092286 -166.219738 
L 256.400587 -166.219738 
L 259.708887 -166.219738 
L 263.017188 -166.219738 
L 266.325488 -166.219738 
L 269.633788 -166.219738 
L 272.942089 -166.219738 
L 276.250389 -166.219738 
L 279.558689 -166.219738 
L 282.86699 -166.219738 
L 286.17529 -166.219738 
L 289.483591 -166.219738 
L 292.791891 -166.219738 
L 296.100191 -166.219738 
L 299.408492 -166.219738 
L 302.716792 -166.219738 
L 306.025093 -166.219738 
L 309.333393 -166.219738 
L 312.641693 -166.219738 
L 315.949994 -166.219738 
L 319.258294 -166.219738 
L 322.566595 -166.219738 
L 325.874895 -166.219738 
L 329.183195 -166.219738 
L 332.491496 -166.219738 
L 335.799796 -166.219738 
L 339.108097 -166.219738 
L 342.416397 -166.219738 
L 345.724697 -166.219738 
L 349.032998 -166.219738 
L 352.341298 -166.219738 
L 355.649599 -166.219738 
L 358.957899 -166.219738 
L 362.266199 -166.219738 
L 365.5745 -166.219738 
L 368.8828 -166.219738 
L 372.191101 -166.219738 
L 375.499401 -166.219738 
L 378.807701 -166.219738 
L 382.116002 -166.219738 
L 385.424302 -166.219738 
L 388.732603 -166.219738 
L 392.040903 -166.219738 
L 395.349203 -166.219738 
L 398.657504 -166.219738 
L 401.965804 -166.219738 
L 405.274104 -166.219738 
L 408.582405 -166.219738 
L 411.890705 -166.219738 
L 415.199006 -166.219738 
L 415.199006 -261.641963 
L 415.199006 -261.641963 
L 411.890705 -231.574039 
L 408.582405 -229.799424 
L 405.274104 -227.855198 
L 401.965804 -220.61723 
L 398.657504 -213.685091 
L 395.349203 -211.732147 
L 392.040903 -209.62435 
L 388.732603 -207.083019 
L 385.424302 -204.354216 
L 382.116002 -202.452102 
L 378.807701 -201.024392 
L 375.499401 -198.775231 
L 372.191101 -197.76044 
L 368.8828 -188.644594 
L 365.5745 -188.1352 
L 362.266199 -187.441027 
L 358.957899 -186.649115 
L 355.649599 -186.137522 
L 352.341298 -184.751005 
L 349.032998 -182.959796 
L 345.724697 -180.152148 
L 342.416397 -176.039693 
L 339.108097 -175.805677 
L 335.799796 -175.294716 
L 332.491496 -174.953793 
L 329.183195 -174.647618 
L 325.874895 -174.06999 
L 322.566595 -173.515559 
L 319.258294 -172.996974 
L 315.949994 -171.710027 
L 312.641693 -171.43472 
L 309.333393 -170.886432 
L 306.025093 -170.31888 
L 302.716792 -169.338504 
L 299.408492 -169.23287 
L 296.100191 -169.105259 
L 292.791891 -168.875484 
L 289.483591 -168.760352 
L 286.17529 -168.5146 
L 282.86699 -168.376171 
L 279.558689 -168.342673 
L 276.250389 -168.322685 
L 272.942089 -168.301971 
L 269.633788 -167.924796 
L 266.325488 -167.914433 
L 263.017188 -167.748652 
L 259.708887 -167.69334 
L 256.400587 -167.180101 
L 253.092286 -167.076336 
L 249.783986 -166.731224 
L 246.475686 -166.550774 
L 243.167385 -166.550134 
L 239.859085 -166.529324 
L 236.550784 -166.48323 
L 233.242484 -166.227049 
L 229.934184 -165.828953 
L 226.625883 -165.189505 
L 223.317583 -165.093993 
L 220.009282 -164.492515 
L 216.700982 -164.095716 
L 213.392682 -163.576589 
L 210.084381 -163.439905 
L 206.776081 -163.184924 
L 203.46778 -161.545605 
L 200.15948 -161.435861 
L 196.85118 -161.420695 
L 193.542879 -160.003327 
L 190.234579 -159.270267 
L 186.926278 -158.536336 
L 183.617978 -157.391103 
L 180.309678 -156.538184 
L 177.001377 -156.234828 
L 173.693077 -155.389293 
L 170.384776 -152.908677 
L 167.076476 -152.866346 
L 163.768176 -152.631413 
L 160.459875 -152.437402 
L 157.151575 -151.940092 
L 153.843274 -151.458473 
L 150.534974 -151.398076 
L 147.226674 -147.255016 
L 143.918373 -146.685658 
L 140.610073 -143.36099 
L 137.301772 -143.204918 
L 133.993472 -142.588932 
L 130.685172 -139.169717 
L 127.376871 -137.138532 
L 124.068571 -132.240863 
L 120.760271 -120.872367 
L 117.45197 -120.214955 
L 114.14367 -111.182161 
L 110.835369 -74.047025 
z
" id="mdfe841be23" style="stroke:#f14432;stroke-opacity:0.8;"/>
    </defs>
    <g clip-path="url(#p89435ec90b)">
     <use style="fill:#f14432;fill-opacity:0.8;stroke:#f14432;stroke-opacity:0.8;" x="0" xlink:href="#mdfe841be23" y="354.04"/>
    </g>
   </g>
   <g id="matplotlib.axis_1"/>
   <g id="matplotlib.axis_2">
    <g id="ytick_1">
     <g id="line2d_1">
      <defs>
       <path d="M 0 0 
L -3.5 0 
" id="mf058855d29" style="stroke:#000000;stroke-width:0.8;"/>
      </defs>
      <g>
       <use style="stroke:#000000;stroke-width:0.8;" x="95.617188" xlink:href="#mf058855d29" y="324.386687"/>
      </g>
     </g>
     <g id="text_1">
      <!-- −0.003 -->
      <defs>
       <path d="M 10.59375 35.5 
L 73.1875 35.5 
L 73.1875 27.203125 
L 10.59375 27.203125 
z
" id="DejaVuSans-2212"/>
       <path d="M 31.78125 66.40625 
Q 24.171875 66.40625 20.328125 58.90625 
Q 16.5 51.421875 16.5 36.375 
Q 16.5 21.390625 20.328125 13.890625 
Q 24.171875 6.390625 31.78125 6.390625 
Q 39.453125 6.390625 43.28125 13.890625 
Q 47.125 21.390625 47.125 36.375 
Q 47.125 51.421875 43.28125 58.90625 
Q 39.453125 66.40625 31.78125 66.40625 
z
M 31.78125 74.21875 
Q 44.046875 74.21875 50.515625 64.515625 
Q 56.984375 54.828125 56.984375 36.375 
Q 56.984375 17.96875 50.515625 8.265625 
Q 44.046875 -1.421875 31.78125 -1.421875 
Q 19.53125 -1.421875 13.0625 8.265625 
Q 6.59375 17.96875 6.59375 36.375 
Q 6.59375 54.828125 13.0625 64.515625 
Q 19.53125 74.21875 31.78125 74.21875 
z
" id="DejaVuSans-30"/>
       <path d="M 10.6875 12.40625 
L 21 12.40625 
L 21 0 
L 10.6875 0 
z
" id="DejaVuSans-2e"/>
       <path d="M 40.578125 39.3125 
Q 47.65625 37.796875 51.625 33 
Q 55.609375 28.21875 55.609375 21.1875 
Q 55.609375 10.40625 48.1875 4.484375 
Q 40.765625 -1.421875 27.09375 -1.421875 
Q 22.515625 -1.421875 17.65625 -0.515625 
Q 12.796875 0.390625 7.625 2.203125 
L 7.625 11.71875 
Q 11.71875 9.328125 16.59375 8.109375 
Q 21.484375 6.890625 26.8125 6.890625 
Q 36.078125 6.890625 40.9375 10.546875 
Q 45.796875 14.203125 45.796875 21.1875 
Q 45.796875 27.640625 41.28125 31.265625 
Q 36.765625 34.90625 28.71875 34.90625 
L 20.21875 34.90625 
L 20.21875 43.015625 
L 29.109375 43.015625 
Q 36.375 43.015625 40.234375 45.921875 
Q 44.09375 48.828125 44.09375 54.296875 
Q 44.09375 59.90625 40.109375 62.90625 
Q 36.140625 65.921875 28.71875 65.921875 
Q 24.65625 65.921875 20.015625 65.03125 
Q 15.375 64.15625 9.8125 62.3125 
L 9.8125 71.09375 
Q 15.4375 72.65625 20.34375 73.4375 
Q 25.25 74.21875 29.59375 74.21875 
Q 40.828125 74.21875 47.359375 69.109375 
Q 53.90625 64.015625 53.90625 55.328125 
Q 53.90625 49.265625 50.4375 45.09375 
Q 46.96875 40.921875 40.578125 39.3125 
z
" id="DejaVuSans-33"/>
      </defs>
      <g transform="translate(7.2 332.744968)scale(0.22 -0.22)">
       <use xlink:href="#DejaVuSans-2212"/>
       <use x="83.789062" xlink:href="#DejaVuSans-30"/>
       <use x="147.412109" xlink:href="#DejaVuSans-2e"/>
       <use x="179.199219" xlink:href="#DejaVuSans-30"/>
       <use x="242.822266" xlink:href="#DejaVuSans-30"/>
       <use x="306.445312" xlink:href="#DejaVuSans-33"/>
      </g>
     </g>
    </g>
    <g id="ytick_2">
     <g id="line2d_2">
      <g>
       <use style="stroke:#000000;stroke-width:0.8;" x="95.617188" xlink:href="#mf058855d29" y="278.864545"/>
      </g>
     </g>
     <g id="text_2">
      <!-- −0.002 -->
      <defs>
       <path d="M 19.1875 8.296875 
L 53.609375 8.296875 
L 53.609375 0 
L 7.328125 0 
L 7.328125 8.296875 
Q 12.9375 14.109375 22.625 23.890625 
Q 32.328125 33.6875 34.8125 36.53125 
Q 39.546875 41.84375 41.421875 45.53125 
Q 43.3125 49.21875 43.3125 52.78125 
Q 43.3125 58.59375 39.234375 62.25 
Q 35.15625 65.921875 28.609375 65.921875 
Q 23.96875 65.921875 18.8125 64.3125 
Q 13.671875 62.703125 7.8125 59.421875 
L 7.8125 69.390625 
Q 13.765625 71.78125 18.9375 73 
Q 24.125 74.21875 28.421875 74.21875 
Q 39.75 74.21875 46.484375 68.546875 
Q 53.21875 62.890625 53.21875 53.421875 
Q 53.21875 48.921875 51.53125 44.890625 
Q 49.859375 40.875 45.40625 35.40625 
Q 44.1875 33.984375 37.640625 27.21875 
Q 31.109375 20.453125 19.1875 8.296875 
z
" id="DejaVuSans-32"/>
      </defs>
      <g transform="translate(7.2 287.222826)scale(0.22 -0.22)">
       <use xlink:href="#DejaVuSans-2212"/>
       <use x="83.789062" xlink:href="#DejaVuSans-30"/>
       <use x="147.412109" xlink:href="#DejaVuSans-2e"/>
       <use x="179.199219" xlink:href="#DejaVuSans-30"/>
       <use x="242.822266" xlink:href="#DejaVuSans-30"/>
       <use x="306.445312" xlink:href="#DejaVuSans-32"/>
      </g>
     </g>
    </g>
    <g id="ytick_3">
     <g id="line2d_3">
      <g>
       <use style="stroke:#000000;stroke-width:0.8;" x="95.617188" xlink:href="#mf058855d29" y="233.342403"/>
      </g>
     </g>
     <g id="text_3">
      <!-- −0.001 -->
      <defs>
       <path d="M 12.40625 8.296875 
L 28.515625 8.296875 
L 28.515625 63.921875 
L 10.984375 60.40625 
L 10.984375 69.390625 
L 28.421875 72.90625 
L 38.28125 72.90625 
L 38.28125 8.296875 
L 54.390625 8.296875 
L 54.390625 0 
L 12.40625 0 
z
" id="DejaVuSans-31"/>
      </defs>
      <g transform="translate(7.2 241.700684)scale(0.22 -0.22)">
       <use xlink:href="#DejaVuSans-2212"/>
       <use x="83.789062" xlink:href="#DejaVuSans-30"/>
       <use x="147.412109" xlink:href="#DejaVuSans-2e"/>
       <use x="179.199219" xlink:href="#DejaVuSans-30"/>
       <use x="242.822266" xlink:href="#DejaVuSans-30"/>
       <use x="306.445312" xlink:href="#DejaVuSans-31"/>
      </g>
     </g>
    </g>
    <g id="ytick_4">
     <g id="line2d_4">
      <g>
       <use style="stroke:#000000;stroke-width:0.8;" x="95.617188" xlink:href="#mf058855d29" y="187.820262"/>
      </g>
     </g>
     <g id="text_4">
      <!-- 0.000 -->
      <g transform="translate(25.635312 196.178543)scale(0.22 -0.22)">
       <use xlink:href="#DejaVuSans-30"/>
       <use x="63.623047" xlink:href="#DejaVuSans-2e"/>
       <use x="95.410156" xlink:href="#DejaVuSans-30"/>
       <use x="159.033203" xlink:href="#DejaVuSans-30"/>
       <use x="222.65625" xlink:href="#DejaVuSans-30"/>
      </g>
     </g>
    </g>
    <g id="ytick_5">
     <g id="line2d_5">
      <g>
       <use style="stroke:#000000;stroke-width:0.8;" x="95.617188" xlink:href="#mf058855d29" y="142.29812"/>
      </g>
     </g>
     <g id="text_5">
      <!-- 0.001 -->
      <g transform="translate(25.635312 150.656401)scale(0.22 -0.22)">
       <use xlink:href="#DejaVuSans-30"/>
       <use x="63.623047" xlink:href="#DejaVuSans-2e"/>
       <use x="95.410156" xlink:href="#DejaVuSans-30"/>
       <use x="159.033203" xlink:href="#DejaVuSans-30"/>
       <use x="222.65625" xlink:href="#DejaVuSans-31"/>
      </g>
     </g>
    </g>
    <g id="ytick_6">
     <g id="line2d_6">
      <g>
       <use style="stroke:#000000;stroke-width:0.8;" x="95.617188" xlink:href="#mf058855d29" y="96.775978"/>
      </g>
     </g>
     <g id="text_6">
      <!-- 0.002 -->
      <g transform="translate(25.635312 105.13426)scale(0.22 -0.22)">
       <use xlink:href="#DejaVuSans-30"/>
       <use x="63.623047" xlink:href="#DejaVuSans-2e"/>
       <use x="95.410156" xlink:href="#DejaVuSans-30"/>
       <use x="159.033203" xlink:href="#DejaVuSans-30"/>
       <use x="222.65625" xlink:href="#DejaVuSans-32"/>
      </g>
     </g>
    </g>
    <g id="ytick_7">
     <g id="line2d_7">
      <g>
       <use style="stroke:#000000;stroke-width:0.8;" x="95.617188" xlink:href="#mf058855d29" y="51.253837"/>
      </g>
     </g>
     <g id="text_7">
      <!-- 0.003 -->
      <g transform="translate(25.635312 59.612118)scale(0.22 -0.22)">
       <use xlink:href="#DejaVuSans-30"/>
       <use x="63.623047" xlink:href="#DejaVuSans-2e"/>
       <use x="95.410156" xlink:href="#DejaVuSans-30"/>
       <use x="159.033203" xlink:href="#DejaVuSans-30"/>
       <use x="222.65625" xlink:href="#DejaVuSans-33"/>
      </g>
     </g>
    </g>
   </g>
   <g id="patch_3">
    <path d="M 95.617188 343.34 
L 95.617188 10.7 
" style="fill:none;stroke:#000000;stroke-linecap:square;stroke-linejoin:miter;stroke-width:0.8;"/>
   </g>
   <g id="patch_4">
    <path d="M 430.417188 343.34 
L 430.417188 10.7 
" style="fill:none;stroke:#000000;stroke-linecap:square;stroke-linejoin:miter;stroke-width:0.8;"/>
   </g>
   <g id="patch_5">
    <path d="M 95.617188 343.34 
L 430.417188 343.34 
" style="fill:none;stroke:#000000;stroke-linecap:square;stroke-linejoin:miter;stroke-width:0.8;"/>
   </g>
   <g id="patch_6">
    <path d="M 95.617188 10.7 
L 430.417188 10.7 
" style="fill:none;stroke:#000000;stroke-linecap:square;stroke-linejoin:miter;stroke-width:0.8;"/>
   </g>
  </g>
 </g>
 <defs>
  <clipPath id="p89435ec90b">
   <rect height="332.64" width="334.8" x="95.617188" y="10.7"/>
  </clipPath>
 </defs>
</svg>
