<?xml version="1.0" encoding="utf-8" standalone="no"?>
<!DOCTYPE svg PUBLIC "-//W3C//DTD SVG 1.1//EN"
  "http://www.w3.org/Graphics/SVG/1.1/DTD/svg11.dtd">
<!-- Created with matplotlib (http://matplotlib.org/) -->
<svg height="354pt" version="1.1" viewBox="0 0 441 354" width="441pt" xmlns="http://www.w3.org/2000/svg" xmlns:xlink="http://www.w3.org/1999/xlink">
 <defs>
  <style type="text/css">
*{stroke-linecap:butt;stroke-linejoin:round;}
  </style>
 </defs>
 <g id="figure_1">
  <g id="patch_1">
   <path d="M 0 354.04 
L 441.117188 354.04 
L 441.117188 0 
L 0 0 
z
" style="fill:#ffffff;"/>
  </g>
  <g id="axes_1">
   <g id="patch_2">
    <path d="M 95.617188 343.34 
L 430.417188 343.34 
L 430.417188 10.7 
L 95.617188 10.7 
z
" style="fill:#ffffff;"/>
   </g>
   <g id="PolyCollection_1">
    <defs>
     <path d="M 110.835369 -25.82 
L 110.835369 -138.772065 
L 114.14367 -138.772065 
L 117.45197 -138.772065 
L 120.760271 -138.772065 
L 124.068571 -138.772065 
L 127.376871 -138.772065 
L 130.685172 -138.772065 
L 133.993472 -138.772065 
L 137.301772 -138.772065 
L 140.610073 -138.772065 
L 143.918373 -138.772065 
L 147.226674 -138.772065 
L 150.534974 -138.772065 
L 153.843274 -138.772065 
L 157.151575 -138.772065 
L 160.459875 -138.772065 
L 163.768176 -138.772065 
L 167.076476 -138.772065 
L 170.384776 -138.772065 
L 173.693077 -138.772065 
L 177.001377 -138.772065 
L 180.309678 -138.772065 
L 183.617978 -138.772065 
L 186.926278 -138.772065 
L 190.234579 -138.772065 
L 193.542879 -138.772065 
L 196.85118 -138.772065 
L 200.15948 -138.772065 
L 203.46778 -138.772065 
L 206.776081 -138.772065 
L 210.084381 -138.772065 
L 213.392682 -138.772065 
L 216.700982 -138.772065 
L 220.009282 -138.772065 
L 223.317583 -138.772065 
L 226.625883 -138.772065 
L 229.934184 -138.772065 
L 233.242484 -138.772065 
L 236.550784 -138.772065 
L 239.859085 -138.772065 
L 243.167385 -138.772065 
L 246.475686 -138.772065 
L 249.783986 -138.772065 
L 253.092286 -138.772065 
L 256.400587 -138.772065 
L 259.708887 -138.772065 
L 263.017188 -138.772065 
L 266.325488 -138.772065 
L 269.633788 -138.772065 
L 272.942089 -138.772065 
L 276.250389 -138.772065 
L 279.558689 -138.772065 
L 282.86699 -138.772065 
L 286.17529 -138.772065 
L 289.483591 -138.772065 
L 292.791891 -138.772065 
L 296.100191 -138.772065 
L 299.408492 -138.772065 
L 302.716792 -138.772065 
L 306.025093 -138.772065 
L 309.333393 -138.772065 
L 312.641693 -138.772065 
L 315.949994 -138.772065 
L 319.258294 -138.772065 
L 322.566595 -138.772065 
L 325.874895 -138.772065 
L 329.183195 -138.772065 
L 332.491496 -138.772065 
L 335.799796 -138.772065 
L 339.108097 -138.772065 
L 342.416397 -138.772065 
L 345.724697 -138.772065 
L 349.032998 -138.772065 
L 352.341298 -138.772065 
L 355.649599 -138.772065 
L 358.957899 -138.772065 
L 362.266199 -138.772065 
L 365.5745 -138.772065 
L 368.8828 -138.772065 
L 372.191101 -138.772065 
L 375.499401 -138.772065 
L 378.807701 -138.772065 
L 382.116002 -138.772065 
L 385.424302 -138.772065 
L 388.732603 -138.772065 
L 392.040903 -138.772065 
L 395.349203 -138.772065 
L 398.657504 -138.772065 
L 401.965804 -138.772065 
L 405.274104 -138.772065 
L 408.582405 -138.772065 
L 411.890705 -138.772065 
L 415.199006 -138.772065 
L 415.199006 -328.22 
L 415.199006 -328.22 
L 411.890705 -319.989279 
L 408.582405 -272.923533 
L 405.274104 -264.910881 
L 401.965804 -236.138866 
L 398.657504 -232.081135 
L 395.349203 -211.214463 
L 392.040903 -202.91408 
L 388.732603 -199.315738 
L 385.424302 -197.885005 
L 382.116002 -197.237211 
L 378.807701 -191.994696 
L 375.499401 -188.134138 
L 372.191101 -183.270535 
L 368.8828 -179.867671 
L 365.5745 -177.70557 
L 362.266199 -165.096119 
L 358.957899 -161.44046 
L 355.649599 -160.432043 
L 352.341298 -159.512623 
L 349.032998 -154.517258 
L 345.724697 -153.505767 
L 342.416397 -152.47758 
L 339.108097 -152.222184 
L 335.799796 -151.785274 
L 332.491496 -147.231957 
L 329.183195 -144.469365 
L 325.874895 -142.601211 
L 322.566595 -142.378201 
L 319.258294 -142.182421 
L 315.949994 -141.823022 
L 312.641693 -141.272378 
L 309.333393 -141.129929 
L 306.025093 -141.10439 
L 302.716792 -140.97531 
L 299.408492 -140.774185 
L 296.100191 -140.72741 
L 292.791891 -140.442794 
L 289.483591 -139.986806 
L 286.17529 -139.870739 
L 282.86699 -139.762098 
L 279.558689 -139.752834 
L 276.250389 -139.72427 
L 272.942089 -139.564131 
L 269.633788 -139.503153 
L 266.325488 -139.321332 
L 263.017188 -139.169482 
L 259.708887 -139.046159 
L 256.400587 -138.864349 
L 253.092286 -138.698205 
L 249.783986 -138.696537 
L 246.475686 -138.684706 
L 243.167385 -138.374026 
L 239.859085 -138.373822 
L 236.550784 -138.329451 
L 233.242484 -138.316557 
L 229.934184 -138.143556 
L 226.625883 -138.0966 
L 223.317583 -138.088107 
L 220.009282 -137.944221 
L 216.700982 -137.337292 
L 213.392682 -137.233816 
L 210.084381 -137.139675 
L 206.776081 -137.007659 
L 203.46778 -136.877971 
L 200.15948 -136.700258 
L 196.85118 -136.626873 
L 193.542879 -136.305617 
L 190.234579 -136.222339 
L 186.926278 -136.036241 
L 183.617978 -135.624698 
L 180.309678 -135.525352 
L 177.001377 -135.444418 
L 173.693077 -131.237837 
L 170.384776 -130.434658 
L 167.076476 -127.997193 
L 163.768176 -127.496745 
L 160.459875 -127.385799 
L 157.151575 -126.526106 
L 153.843274 -124.407568 
L 150.534974 -117.612952 
L 147.226674 -115.685999 
L 143.918373 -110.542877 
L 140.610073 -109.892799 
L 137.301772 -108.548952 
L 133.993472 -93.45863 
L 130.685172 -85.315603 
L 127.376871 -77.509212 
L 124.068571 -74.247233 
L 120.760271 -70.273451 
L 117.45197 -61.065332 
L 114.14367 -55.712021 
L 110.835369 -25.82 
z
" id="m7a0e97eb02" style="stroke:#4a98c9;"/>
    </defs>
    <g clip-path="url(#pb8a8d2f43f)">
     <use style="fill:#4a98c9;stroke:#4a98c9;" x="0" xlink:href="#m7a0e97eb02" y="354.04"/>
    </g>
   </g>
   <g id="PolyCollection_2">
    <defs>
     <path d="M 110.835369 -98.611752 
L 110.835369 -138.772065 
L 114.14367 -138.772065 
L 117.45197 -138.772065 
L 120.760271 -138.772065 
L 124.068571 -138.772065 
L 127.376871 -138.772065 
L 130.685172 -138.772065 
L 133.993472 -138.772065 
L 137.301772 -138.772065 
L 140.610073 -138.772065 
L 143.918373 -138.772065 
L 147.226674 -138.772065 
L 150.534974 -138.772065 
L 153.843274 -138.772065 
L 157.151575 -138.772065 
L 160.459875 -138.772065 
L 163.768176 -138.772065 
L 167.076476 -138.772065 
L 170.384776 -138.772065 
L 173.693077 -138.772065 
L 177.001377 -138.772065 
L 180.309678 -138.772065 
L 183.617978 -138.772065 
L 186.926278 -138.772065 
L 190.234579 -138.772065 
L 193.542879 -138.772065 
L 196.85118 -138.772065 
L 200.15948 -138.772065 
L 203.46778 -138.772065 
L 206.776081 -138.772065 
L 210.084381 -138.772065 
L 213.392682 -138.772065 
L 216.700982 -138.772065 
L 220.009282 -138.772065 
L 223.317583 -138.772065 
L 226.625883 -138.772065 
L 229.934184 -138.772065 
L 233.242484 -138.772065 
L 236.550784 -138.772065 
L 239.859085 -138.772065 
L 243.167385 -138.772065 
L 246.475686 -138.772065 
L 249.783986 -138.772065 
L 253.092286 -138.772065 
L 256.400587 -138.772065 
L 259.708887 -138.772065 
L 263.017188 -138.772065 
L 266.325488 -138.772065 
L 269.633788 -138.772065 
L 272.942089 -138.772065 
L 276.250389 -138.772065 
L 279.558689 -138.772065 
L 282.86699 -138.772065 
L 286.17529 -138.772065 
L 289.483591 -138.772065 
L 292.791891 -138.772065 
L 296.100191 -138.772065 
L 299.408492 -138.772065 
L 302.716792 -138.772065 
L 306.025093 -138.772065 
L 309.333393 -138.772065 
L 312.641693 -138.772065 
L 315.949994 -138.772065 
L 319.258294 -138.772065 
L 322.566595 -138.772065 
L 325.874895 -138.772065 
L 329.183195 -138.772065 
L 332.491496 -138.772065 
L 335.799796 -138.772065 
L 339.108097 -138.772065 
L 342.416397 -138.772065 
L 345.724697 -138.772065 
L 349.032998 -138.772065 
L 352.341298 -138.772065 
L 355.649599 -138.772065 
L 358.957899 -138.772065 
L 362.266199 -138.772065 
L 365.5745 -138.772065 
L 368.8828 -138.772065 
L 372.191101 -138.772065 
L 375.499401 -138.772065 
L 378.807701 -138.772065 
L 382.116002 -138.772065 
L 385.424302 -138.772065 
L 388.732603 -138.772065 
L 392.040903 -138.772065 
L 395.349203 -138.772065 
L 398.657504 -138.772065 
L 401.965804 -138.772065 
L 405.274104 -138.772065 
L 408.582405 -138.772065 
L 411.890705 -138.772065 
L 415.199006 -138.772065 
L 415.199006 -217.436345 
L 415.199006 -217.436345 
L 411.890705 -207.045574 
L 408.582405 -192.491126 
L 405.274104 -185.458102 
L 401.965804 -178.878245 
L 398.657504 -173.429159 
L 395.349203 -171.039071 
L 392.040903 -170.203173 
L 388.732603 -169.485049 
L 385.424302 -166.765275 
L 382.116002 -160.587214 
L 378.807701 -160.001516 
L 375.499401 -159.059921 
L 372.191101 -158.770828 
L 368.8828 -150.831799 
L 365.5745 -149.978957 
L 362.266199 -149.1401 
L 358.957899 -148.634357 
L 355.649599 -148.58995 
L 352.341298 -148.266256 
L 349.032998 -146.27951 
L 345.724697 -146.249636 
L 342.416397 -143.355834 
L 339.108097 -143.081002 
L 335.799796 -142.786438 
L 332.491496 -142.472813 
L 329.183195 -141.384255 
L 325.874895 -140.895776 
L 322.566595 -140.783079 
L 319.258294 -140.54674 
L 315.949994 -140.218214 
L 312.641693 -140.198323 
L 309.333393 -140.183815 
L 306.025093 -140.154807 
L 302.716792 -139.982137 
L 299.408492 -139.854447 
L 296.100191 -139.822346 
L 292.791891 -139.550354 
L 289.483591 -139.521045 
L 286.17529 -139.458543 
L 282.86699 -139.250393 
L 279.558689 -139.123477 
L 276.250389 -139.088966 
L 272.942089 -139.069122 
L 269.633788 -139.01826 
L 266.325488 -138.935837 
L 263.017188 -138.899357 
L 259.708887 -138.882731 
L 256.400587 -138.809001 
L 253.092286 -138.806944 
L 249.783986 -138.755591 
L 246.475686 -138.659774 
L 243.167385 -138.606694 
L 239.859085 -138.542133 
L 236.550784 -138.514448 
L 233.242484 -138.422497 
L 229.934184 -138.409756 
L 226.625883 -138.353193 
L 223.317583 -138.352383 
L 220.009282 -138.351798 
L 216.700982 -138.329679 
L 213.392682 -138.09403 
L 210.084381 -137.896943 
L 206.776081 -137.855456 
L 203.46778 -137.763699 
L 200.15948 -137.761721 
L 196.85118 -137.714231 
L 193.542879 -137.558065 
L 190.234579 -137.437518 
L 186.926278 -137.055485 
L 183.617978 -136.883907 
L 180.309678 -136.609815 
L 177.001377 -136.381328 
L 173.693077 -136.300725 
L 170.384776 -136.231046 
L 167.076476 -136.139903 
L 163.768176 -135.826718 
L 160.459875 -135.758017 
L 157.151575 -134.648678 
L 153.843274 -132.768599 
L 150.534974 -132.124002 
L 147.226674 -131.972776 
L 143.918373 -124.076788 
L 140.610073 -120.64198 
L 137.301772 -119.618409 
L 133.993472 -118.907183 
L 130.685172 -116.071714 
L 127.376871 -115.554432 
L 124.068571 -114.117752 
L 120.760271 -112.76933 
L 117.45197 -108.76676 
L 114.14367 -102.557383 
L 110.835369 -98.611752 
z
" id="m4eaa8a5d12" style="stroke:#f14432;stroke-opacity:0.8;"/>
    </defs>
    <g clip-path="url(#pb8a8d2f43f)">
     <use style="fill:#f14432;fill-opacity:0.8;stroke:#f14432;stroke-opacity:0.8;" x="0" xlink:href="#m4eaa8a5d12" y="354.04"/>
    </g>
   </g>
   <g id="matplotlib.axis_1"/>
   <g id="matplotlib.axis_2">
    <g id="ytick_1">
     <g id="line2d_1">
      <defs>
       <path d="M 0 0 
L -3.5 0 
" id="m9e77937bd3" style="stroke:#000000;stroke-width:0.8;"/>
      </defs>
      <g>
       <use style="stroke:#000000;stroke-width:0.8;" x="95.617188" xlink:href="#m9e77937bd3" y="318.772103"/>
      </g>
     </g>
     <g id="text_1">
      <!-- −0.010 -->
      <defs>
       <path d="M 10.59375 35.5 
L 73.1875 35.5 
L 73.1875 27.203125 
L 10.59375 27.203125 
z
" id="DejaVuSans-2212"/>
       <path d="M 31.78125 66.40625 
Q 24.171875 66.40625 20.328125 58.90625 
Q 16.5 51.421875 16.5 36.375 
Q 16.5 21.390625 20.328125 13.890625 
Q 24.171875 6.390625 31.78125 6.390625 
Q 39.453125 6.390625 43.28125 13.890625 
Q 47.125 21.390625 47.125 36.375 
Q 47.125 51.421875 43.28125 58.90625 
Q 39.453125 66.40625 31.78125 66.40625 
z
M 31.78125 74.21875 
Q 44.046875 74.21875 50.515625 64.515625 
Q 56.984375 54.828125 56.984375 36.375 
Q 56.984375 17.96875 50.515625 8.265625 
Q 44.046875 -1.421875 31.78125 -1.421875 
Q 19.53125 -1.421875 13.0625 8.265625 
Q 6.59375 17.96875 6.59375 36.375 
Q 6.59375 54.828125 13.0625 64.515625 
Q 19.53125 74.21875 31.78125 74.21875 
z
" id="DejaVuSans-30"/>
       <path d="M 10.6875 12.40625 
L 21 12.40625 
L 21 0 
L 10.6875 0 
z
" id="DejaVuSans-2e"/>
       <path d="M 12.40625 8.296875 
L 28.515625 8.296875 
L 28.515625 63.921875 
L 10.984375 60.40625 
L 10.984375 69.390625 
L 28.421875 72.90625 
L 38.28125 72.90625 
L 38.28125 8.296875 
L 54.390625 8.296875 
L 54.390625 0 
L 12.40625 0 
z
" id="DejaVuSans-31"/>
      </defs>
      <g transform="translate(7.2 327.130384)scale(0.22 -0.22)">
       <use xlink:href="#DejaVuSans-2212"/>
       <use x="83.789062" xlink:href="#DejaVuSans-30"/>
       <use x="147.412109" xlink:href="#DejaVuSans-2e"/>
       <use x="179.199219" xlink:href="#DejaVuSans-30"/>
       <use x="242.822266" xlink:href="#DejaVuSans-31"/>
       <use x="306.445312" xlink:href="#DejaVuSans-30"/>
      </g>
     </g>
    </g>
    <g id="ytick_2">
     <g id="line2d_2">
      <g>
       <use style="stroke:#000000;stroke-width:0.8;" x="95.617188" xlink:href="#m9e77937bd3" y="267.020019"/>
      </g>
     </g>
     <g id="text_2">
      <!-- −0.005 -->
      <defs>
       <path d="M 10.796875 72.90625 
L 49.515625 72.90625 
L 49.515625 64.59375 
L 19.828125 64.59375 
L 19.828125 46.734375 
Q 21.96875 47.46875 24.109375 47.828125 
Q 26.265625 48.1875 28.421875 48.1875 
Q 40.625 48.1875 47.75 41.5 
Q 54.890625 34.8125 54.890625 23.390625 
Q 54.890625 11.625 47.5625 5.09375 
Q 40.234375 -1.421875 26.90625 -1.421875 
Q 22.3125 -1.421875 17.546875 -0.640625 
Q 12.796875 0.140625 7.71875 1.703125 
L 7.71875 11.625 
Q 12.109375 9.234375 16.796875 8.0625 
Q 21.484375 6.890625 26.703125 6.890625 
Q 35.15625 6.890625 40.078125 11.328125 
Q 45.015625 15.765625 45.015625 23.390625 
Q 45.015625 31 40.078125 35.4375 
Q 35.15625 39.890625 26.703125 39.890625 
Q 22.75 39.890625 18.8125 39.015625 
Q 14.890625 38.140625 10.796875 36.28125 
z
" id="DejaVuSans-35"/>
      </defs>
      <g transform="translate(7.2 275.3783)scale(0.22 -0.22)">
       <use xlink:href="#DejaVuSans-2212"/>
       <use x="83.789062" xlink:href="#DejaVuSans-30"/>
       <use x="147.412109" xlink:href="#DejaVuSans-2e"/>
       <use x="179.199219" xlink:href="#DejaVuSans-30"/>
       <use x="242.822266" xlink:href="#DejaVuSans-30"/>
       <use x="306.445312" xlink:href="#DejaVuSans-35"/>
      </g>
     </g>
    </g>
    <g id="ytick_3">
     <g id="line2d_3">
      <g>
       <use style="stroke:#000000;stroke-width:0.8;" x="95.617188" xlink:href="#m9e77937bd3" y="215.267935"/>
      </g>
     </g>
     <g id="text_3">
      <!-- 0.000 -->
      <g transform="translate(25.635312 223.626217)scale(0.22 -0.22)">
       <use xlink:href="#DejaVuSans-30"/>
       <use x="63.623047" xlink:href="#DejaVuSans-2e"/>
       <use x="95.410156" xlink:href="#DejaVuSans-30"/>
       <use x="159.033203" xlink:href="#DejaVuSans-30"/>
       <use x="222.65625" xlink:href="#DejaVuSans-30"/>
      </g>
     </g>
    </g>
    <g id="ytick_4">
     <g id="line2d_4">
      <g>
       <use style="stroke:#000000;stroke-width:0.8;" x="95.617188" xlink:href="#m9e77937bd3" y="163.515852"/>
      </g>
     </g>
     <g id="text_4">
      <!-- 0.005 -->
      <g transform="translate(25.635312 171.874133)scale(0.22 -0.22)">
       <use xlink:href="#DejaVuSans-30"/>
       <use x="63.623047" xlink:href="#DejaVuSans-2e"/>
       <use x="95.410156" xlink:href="#DejaVuSans-30"/>
       <use x="159.033203" xlink:href="#DejaVuSans-30"/>
       <use x="222.65625" xlink:href="#DejaVuSans-35"/>
      </g>
     </g>
    </g>
    <g id="ytick_5">
     <g id="line2d_5">
      <g>
       <use style="stroke:#000000;stroke-width:0.8;" x="95.617188" xlink:href="#m9e77937bd3" y="111.763768"/>
      </g>
     </g>
     <g id="text_5">
      <!-- 0.010 -->
      <g transform="translate(25.635312 120.12205)scale(0.22 -0.22)">
       <use xlink:href="#DejaVuSans-30"/>
       <use x="63.623047" xlink:href="#DejaVuSans-2e"/>
       <use x="95.410156" xlink:href="#DejaVuSans-30"/>
       <use x="159.033203" xlink:href="#DejaVuSans-31"/>
       <use x="222.65625" xlink:href="#DejaVuSans-30"/>
      </g>
     </g>
    </g>
    <g id="ytick_6">
     <g id="line2d_6">
      <g>
       <use style="stroke:#000000;stroke-width:0.8;" x="95.617188" xlink:href="#m9e77937bd3" y="60.011685"/>
      </g>
     </g>
     <g id="text_6">
      <!-- 0.015 -->
      <g transform="translate(25.635312 68.369966)scale(0.22 -0.22)">
       <use xlink:href="#DejaVuSans-30"/>
       <use x="63.623047" xlink:href="#DejaVuSans-2e"/>
       <use x="95.410156" xlink:href="#DejaVuSans-30"/>
       <use x="159.033203" xlink:href="#DejaVuSans-31"/>
       <use x="222.65625" xlink:href="#DejaVuSans-35"/>
      </g>
     </g>
    </g>
   </g>
   <g id="patch_3">
    <path d="M 95.617188 343.34 
L 95.617188 10.7 
" style="fill:none;stroke:#000000;stroke-linecap:square;stroke-linejoin:miter;stroke-width:0.8;"/>
   </g>
   <g id="patch_4">
    <path d="M 430.417188 343.34 
L 430.417188 10.7 
" style="fill:none;stroke:#000000;stroke-linecap:square;stroke-linejoin:miter;stroke-width:0.8;"/>
   </g>
   <g id="patch_5">
    <path d="M 95.617188 343.34 
L 430.417188 343.34 
" style="fill:none;stroke:#000000;stroke-linecap:square;stroke-linejoin:miter;stroke-width:0.8;"/>
   </g>
   <g id="patch_6">
    <path d="M 95.617188 10.7 
L 430.417188 10.7 
" style="fill:none;stroke:#000000;stroke-linecap:square;stroke-linejoin:miter;stroke-width:0.8;"/>
   </g>
  </g>
 </g>
 <defs>
  <clipPath id="pb8a8d2f43f">
   <rect height="332.64" width="334.8" x="95.617188" y="10.7"/>
  </clipPath>
 </defs>
</svg>
