<?xml version="1.0" encoding="utf-8" standalone="no"?>
<!DOCTYPE svg PUBLIC "-//W3C//DTD SVG 1.1//EN"
  "http://www.w3.org/Graphics/SVG/1.1/DTD/svg11.dtd">
<!-- Created with matplotlib (http://matplotlib.org/) -->
<svg height="168pt" version="1.1" viewBox="0 0 291 168" width="291pt" xmlns="http://www.w3.org/2000/svg" xmlns:xlink="http://www.w3.org/1999/xlink">
 <defs>
  <style type="text/css">
*{stroke-linecap:butt;stroke-linejoin:round;}
  </style>
 </defs>
 <g id="figure_1">
  <g id="patch_1">
   <path d="M 0 168.108393 
L 291.794398 168.108393 
L 291.794398 0 
L 0 0 
z
" style="fill:#ffffff;"/>
  </g>
  <g id="axes_1">
   <g id="patch_2">
    <path d="M 55.400781 151.794431 
L 82.620293 151.794431 
L 82.620293 13.194431 
L 55.400781 13.194431 
z
" style="fill:#ffffff;"/>
   </g>
   <g id="PolyCollection_1">
    <defs>
     <path d="M 56.638032 -143.363962 
L 56.638032 -85.613962 
L 62.824285 -85.613962 
L 69.010537 -85.613962 
L 75.19679 -85.613962 
L 81.383043 -85.613962 
L 81.383043 -112.782137 
L 81.383043 -112.782137 
L 75.19679 -118.191277 
L 69.010537 -130.026287 
L 62.824285 -142.226329 
L 56.638032 -143.363962 
z
" id="me76a1be8c9" style="stroke:#582f93;"/>
    </defs>
    <g clip-path="url(#pe642741664)">
     <use style="fill:#582f93;stroke:#582f93;" x="0" xlink:href="#me76a1be8c9" y="168.108393"/>
    </g>
   </g>
   <g id="PolyCollection_2">
    <defs>
     <path d="M 56.638032 -141.051752 
L 56.638032 -85.613962 
L 62.824285 -85.613962 
L 69.010537 -85.613962 
L 75.19679 -85.613962 
L 81.383043 -85.613962 
L 81.383043 -110.031287 
L 81.383043 -110.031287 
L 75.19679 -115.177867 
L 69.010537 -128.341507 
L 62.824285 -138.158838 
L 56.638032 -141.051752 
z
" id="m748616763b" style="stroke:#73c476;stroke-opacity:0.75;"/>
    </defs>
    <g clip-path="url(#pe642741664)">
     <use style="fill:#73c476;fill-opacity:0.75;stroke:#73c476;stroke-opacity:0.75;" x="0" xlink:href="#m748616763b" y="168.108393"/>
    </g>
   </g>
   <g id="matplotlib.axis_1"/>
   <g id="matplotlib.axis_2">
    <g id="ytick_1">
     <g id="line2d_1">
      <defs>
       <path d="M 0 0 
L -3.5 0 
" id="m6972b82a31" style="stroke:#000000;stroke-width:0.8;"/>
      </defs>
      <g>
       <use style="stroke:#000000;stroke-width:0.8;" x="55.400781" xlink:href="#m6972b82a31" y="152.090034"/>
      </g>
     </g>
     <g id="text_1">
      <!-- −500 -->
      <defs>
       <path d="M 10.59375 35.5 
L 73.1875 35.5 
L 73.1875 27.203125 
L 10.59375 27.203125 
z
" id="DejaVuSans-2212"/>
       <path d="M 10.796875 72.90625 
L 49.515625 72.90625 
L 49.515625 64.59375 
L 19.828125 64.59375 
L 19.828125 46.734375 
Q 21.96875 47.46875 24.109375 47.828125 
Q 26.265625 48.1875 28.421875 48.1875 
Q 40.625 48.1875 47.75 41.5 
Q 54.890625 34.8125 54.890625 23.390625 
Q 54.890625 11.625 47.5625 5.09375 
Q 40.234375 -1.421875 26.90625 -1.421875 
Q 22.3125 -1.421875 17.546875 -0.640625 
Q 12.796875 0.140625 7.71875 1.703125 
L 7.71875 11.625 
Q 12.109375 9.234375 16.796875 8.0625 
Q 21.484375 6.890625 26.703125 6.890625 
Q 35.15625 6.890625 40.078125 11.328125 
Q 45.015625 15.765625 45.015625 23.390625 
Q 45.015625 31 40.078125 35.4375 
Q 35.15625 39.890625 26.703125 39.890625 
Q 22.75 39.890625 18.8125 39.015625 
Q 14.890625 38.140625 10.796875 36.28125 
z
" id="DejaVuSans-35"/>
       <path d="M 31.78125 66.40625 
Q 24.171875 66.40625 20.328125 58.90625 
Q 16.5 51.421875 16.5 36.375 
Q 16.5 21.390625 20.328125 13.890625 
Q 24.171875 6.390625 31.78125 6.390625 
Q 39.453125 6.390625 43.28125 13.890625 
Q 47.125 21.390625 47.125 36.375 
Q 47.125 51.421875 43.28125 58.90625 
Q 39.453125 66.40625 31.78125 66.40625 
z
M 31.78125 74.21875 
Q 44.046875 74.21875 50.515625 64.515625 
Q 56.984375 54.828125 56.984375 36.375 
Q 56.984375 17.96875 50.515625 8.265625 
Q 44.046875 -1.421875 31.78125 -1.421875 
Q 19.53125 -1.421875 13.0625 8.265625 
Q 6.59375 17.96875 6.59375 36.375 
Q 6.59375 54.828125 13.0625 64.515625 
Q 19.53125 74.21875 31.78125 74.21875 
z
" id="DejaVuSans-30"/>
      </defs>
      <g transform="translate(7.2 157.788862)scale(0.15 -0.15)">
       <use xlink:href="#DejaVuSans-2212"/>
       <use x="83.789062" xlink:href="#DejaVuSans-35"/>
       <use x="147.412109" xlink:href="#DejaVuSans-30"/>
       <use x="211.035156" xlink:href="#DejaVuSans-30"/>
      </g>
     </g>
    </g>
    <g id="ytick_2">
     <g id="line2d_2">
      <g>
       <use style="stroke:#000000;stroke-width:0.8;" x="55.400781" xlink:href="#m6972b82a31" y="117.292232"/>
      </g>
     </g>
     <g id="text_2">
      <!-- −250 -->
      <defs>
       <path d="M 19.1875 8.296875 
L 53.609375 8.296875 
L 53.609375 0 
L 7.328125 0 
L 7.328125 8.296875 
Q 12.9375 14.109375 22.625 23.890625 
Q 32.328125 33.6875 34.8125 36.53125 
Q 39.546875 41.84375 41.421875 45.53125 
Q 43.3125 49.21875 43.3125 52.78125 
Q 43.3125 58.59375 39.234375 62.25 
Q 35.15625 65.921875 28.609375 65.921875 
Q 23.96875 65.921875 18.8125 64.3125 
Q 13.671875 62.703125 7.8125 59.421875 
L 7.8125 69.390625 
Q 13.765625 71.78125 18.9375 73 
Q 24.125 74.21875 28.421875 74.21875 
Q 39.75 74.21875 46.484375 68.546875 
Q 53.21875 62.890625 53.21875 53.421875 
Q 53.21875 48.921875 51.53125 44.890625 
Q 49.859375 40.875 45.40625 35.40625 
Q 44.1875 33.984375 37.640625 27.21875 
Q 31.109375 20.453125 19.1875 8.296875 
z
" id="DejaVuSans-32"/>
      </defs>
      <g transform="translate(7.2 122.99106)scale(0.15 -0.15)">
       <use xlink:href="#DejaVuSans-2212"/>
       <use x="83.789062" xlink:href="#DejaVuSans-32"/>
       <use x="147.412109" xlink:href="#DejaVuSans-35"/>
       <use x="211.035156" xlink:href="#DejaVuSans-30"/>
      </g>
     </g>
    </g>
    <g id="ytick_3">
     <g id="line2d_3">
      <g>
       <use style="stroke:#000000;stroke-width:0.8;" x="55.400781" xlink:href="#m6972b82a31" y="82.494431"/>
      </g>
     </g>
     <g id="text_3">
      <!-- 0 -->
      <g transform="translate(38.857031 88.193259)scale(0.15 -0.15)">
       <use xlink:href="#DejaVuSans-30"/>
      </g>
     </g>
    </g>
    <g id="ytick_4">
     <g id="line2d_4">
      <g>
       <use style="stroke:#000000;stroke-width:0.8;" x="55.400781" xlink:href="#m6972b82a31" y="47.69663"/>
      </g>
     </g>
     <g id="text_4">
      <!-- 250 -->
      <g transform="translate(19.769531 53.395458)scale(0.15 -0.15)">
       <use xlink:href="#DejaVuSans-32"/>
       <use x="63.623047" xlink:href="#DejaVuSans-35"/>
       <use x="127.246094" xlink:href="#DejaVuSans-30"/>
      </g>
     </g>
    </g>
    <g id="ytick_5">
     <g id="line2d_5">
      <g>
       <use style="stroke:#000000;stroke-width:0.8;" x="55.400781" xlink:href="#m6972b82a31" y="12.898828"/>
      </g>
     </g>
     <g id="text_5">
      <!-- 500 -->
      <g transform="translate(19.769531 18.597656)scale(0.15 -0.15)">
       <use xlink:href="#DejaVuSans-35"/>
       <use x="63.623047" xlink:href="#DejaVuSans-30"/>
       <use x="127.246094" xlink:href="#DejaVuSans-30"/>
      </g>
     </g>
    </g>
   </g>
   <g id="patch_3">
    <path d="M 55.400781 151.794431 
L 55.400781 13.194431 
" style="fill:none;stroke:#000000;stroke-linecap:square;stroke-linejoin:miter;stroke-width:0.8;"/>
   </g>
   <g id="patch_4">
    <path d="M 82.620293 151.794431 
L 82.620293 13.194431 
" style="fill:none;stroke:#000000;stroke-linecap:square;stroke-linejoin:miter;stroke-width:0.8;"/>
   </g>
   <g id="patch_5">
    <path d="M 55.400781 151.794431 
L 82.620293 151.794431 
" style="fill:none;stroke:#000000;stroke-linecap:square;stroke-linejoin:miter;stroke-width:0.8;"/>
   </g>
   <g id="patch_6">
    <path d="M 55.400781 13.194431 
L 82.620293 13.194431 
" style="fill:none;stroke:#000000;stroke-linecap:square;stroke-linejoin:miter;stroke-width:0.8;"/>
   </g>
  </g>
  <g id="axes_2">
   <g id="patch_7">
    <path d="M 88.064196 151.794431 
L 245.937367 151.794431 
L 245.937367 13.194431 
L 88.064196 13.194431 
z
" style="fill:#ffffff;"/>
   </g>
   <g id="PolyCollection_3">
    <defs>
     <path d="M 95.240249 -103.326242 
L 95.240249 -85.613962 
L 96.767069 -85.613962 
L 98.293889 -85.613962 
L 99.820709 -85.613962 
L 101.347528 -85.613962 
L 102.874348 -85.613962 
L 104.401168 -85.613962 
L 105.927988 -85.613962 
L 107.454808 -85.613962 
L 108.981628 -85.613962 
L 110.508447 -85.613962 
L 112.035267 -85.613962 
L 113.562087 -85.613962 
L 115.088907 -85.613962 
L 116.615727 -85.613962 
L 118.142547 -85.613962 
L 119.669366 -85.613962 
L 121.196186 -85.613962 
L 122.723006 -85.613962 
L 124.249826 -85.613962 
L 125.776646 -85.613962 
L 127.303466 -85.613962 
L 128.830285 -85.613962 
L 130.357105 -85.613962 
L 131.883925 -85.613962 
L 133.410745 -85.613962 
L 134.937565 -85.613962 
L 136.464385 -85.613962 
L 137.991204 -85.613962 
L 139.518024 -85.613962 
L 141.044844 -85.613962 
L 142.571664 -85.613962 
L 144.098484 -85.613962 
L 145.625304 -85.613962 
L 147.152123 -85.613962 
L 148.678943 -85.613962 
L 150.205763 -85.613962 
L 151.732583 -85.613962 
L 153.259403 -85.613962 
L 154.786223 -85.613962 
L 156.313042 -85.613962 
L 157.839862 -85.613962 
L 159.366682 -85.613962 
L 160.893502 -85.613962 
L 162.420322 -85.613962 
L 163.947142 -85.613962 
L 165.473961 -85.613962 
L 167.000781 -85.613962 
L 168.527601 -85.613962 
L 170.054421 -85.613962 
L 171.581241 -85.613962 
L 173.108061 -85.613962 
L 174.63488 -85.613962 
L 176.1617 -85.613962 
L 177.68852 -85.613962 
L 179.21534 -85.613962 
L 180.74216 -85.613962 
L 182.26898 -85.613962 
L 183.795799 -85.613962 
L 185.322619 -85.613962 
L 186.849439 -85.613962 
L 188.376259 -85.613962 
L 189.903079 -85.613962 
L 191.429899 -85.613962 
L 192.956718 -85.613962 
L 194.483538 -85.613962 
L 196.010358 -85.613962 
L 197.537178 -85.613962 
L 199.063998 -85.613962 
L 200.590818 -85.613962 
L 202.117637 -85.613962 
L 203.644457 -85.613962 
L 205.171277 -85.613962 
L 206.698097 -85.613962 
L 208.224917 -85.613962 
L 209.751737 -85.613962 
L 211.278556 -85.613962 
L 212.805376 -85.613962 
L 214.332196 -85.613962 
L 215.859016 -85.613962 
L 217.385836 -85.613962 
L 218.912656 -85.613962 
L 220.439475 -85.613962 
L 221.966295 -85.613962 
L 223.493115 -85.613962 
L 225.019935 -85.613962 
L 226.546755 -85.613962 
L 228.073575 -85.613962 
L 229.600394 -85.613962 
L 231.127214 -85.613962 
L 232.654034 -85.613962 
L 234.180854 -85.613962 
L 235.707674 -85.613962 
L 237.234494 -85.613962 
L 238.761313 -85.613962 
L 238.761313 -78.971232 
L 238.761313 -78.971232 
L 237.234494 -81.63462 
L 235.707674 -82.913322 
L 234.180854 -83.231092 
L 232.654034 -83.409969 
L 231.127214 -84.621699 
L 229.600394 -84.809988 
L 228.073575 -84.830373 
L 226.546755 -84.92596 
L 225.019935 -85.064331 
L 223.493115 -85.090219 
L 221.966295 -85.136979 
L 220.439475 -85.284162 
L 218.912656 -85.340984 
L 217.385836 -85.341229 
L 215.859016 -85.394072 
L 214.332196 -85.425938 
L 212.805376 -85.512691 
L 211.278556 -85.532183 
L 209.751737 -85.532226 
L 208.224917 -85.562591 
L 206.698097 -85.567521 
L 205.171277 -85.569738 
L 203.644457 -85.579112 
L 202.117637 -85.58551 
L 200.590818 -85.593231 
L 199.063998 -85.597175 
L 197.537178 -85.599096 
L 196.010358 -85.600377 
L 194.483538 -85.601115 
L 192.956718 -85.601662 
L 191.429899 -85.602792 
L 189.903079 -85.603405 
L 188.376259 -85.603844 
L 186.849439 -85.60485 
L 185.322619 -85.605268 
L 183.795799 -85.605336 
L 182.26898 -85.606304 
L 180.74216 -85.606555 
L 179.21534 -85.606953 
L 177.68852 -85.607355 
L 176.1617 -85.608784 
L 174.63488 -85.609093 
L 173.108061 -85.609209 
L 171.581241 -85.610524 
L 170.054421 -85.610743 
L 168.527601 -85.61114 
L 167.000781 -85.611542 
L 165.473961 -85.611814 
L 163.947142 -85.612539 
L 162.420322 -85.612787 
L 160.893502 -85.612866 
L 159.366682 -85.612934 
L 157.839862 -85.613065 
L 156.313042 -85.613466 
L 154.786223 -85.613769 
L 153.259403 -85.614076 
L 151.732583 -85.614522 
L 150.205763 -85.615293 
L 148.678943 -85.615326 
L 147.152123 -85.615998 
L 145.625304 -85.616666 
L 144.098484 -85.616788 
L 142.571664 -85.616829 
L 141.044844 -85.616857 
L 139.518024 -85.616887 
L 137.991204 -85.617539 
L 136.464385 -85.618221 
L 134.937565 -85.618667 
L 133.410745 -85.620829 
L 131.883925 -85.621219 
L 130.357105 -85.625521 
L 128.830285 -85.627382 
L 127.303466 -85.63062 
L 125.776646 -85.631258 
L 124.249826 -85.650742 
L 122.723006 -85.650844 
L 121.196186 -85.655385 
L 119.669366 -85.68754 
L 118.142547 -85.70316 
L 116.615727 -85.754851 
L 115.088907 -85.830198 
L 113.562087 -85.853218 
L 112.035267 -85.873402 
L 110.508447 -86.208923 
L 108.981628 -86.847301 
L 107.454808 -87.208697 
L 105.927988 -87.415309 
L 104.401168 -88.248667 
L 102.874348 -88.804631 
L 101.347528 -88.812377 
L 99.820709 -89.499618 
L 98.293889 -91.439361 
L 96.767069 -92.688784 
L 95.240249 -103.326242 
z
" id="me858556f23" style="stroke:#73c476;stroke-opacity:0.75;"/>
    </defs>
    <g clip-path="url(#p4ddf78e2be)">
     <use style="fill:#73c476;fill-opacity:0.75;stroke:#73c476;stroke-opacity:0.75;" x="0" xlink:href="#me858556f23" y="168.108393"/>
    </g>
   </g>
   <g id="matplotlib.axis_3"/>
   <g id="matplotlib.axis_4">
    <g id="ytick_6">
     <g id="line2d_6">
      <defs>
       <path d="M 0 0 
L 3.5 0 
" id="m9c60e6a6bc" style="stroke:#000000;stroke-width:0.8;"/>
      </defs>
      <g>
       <use style="stroke:#000000;stroke-width:0.8;" x="245.937367" xlink:href="#m9c60e6a6bc" y="117.999026"/>
      </g>
     </g>
     <g id="text_6">
      <!-- −50 -->
      <g transform="translate(252.937367 123.697854)scale(0.15 -0.15)">
       <use xlink:href="#DejaVuSans-2212"/>
       <use x="83.789062" xlink:href="#DejaVuSans-35"/>
       <use x="147.412109" xlink:href="#DejaVuSans-30"/>
      </g>
     </g>
    </g>
    <g id="ytick_7">
     <g id="line2d_7">
      <g>
       <use style="stroke:#000000;stroke-width:0.8;" x="245.937367" xlink:href="#m9c60e6a6bc" y="82.494431"/>
      </g>
     </g>
     <g id="text_7">
      <!-- 0 -->
      <g transform="translate(252.937367 88.193259)scale(0.15 -0.15)">
       <use xlink:href="#DejaVuSans-30"/>
      </g>
     </g>
    </g>
    <g id="ytick_8">
     <g id="line2d_8">
      <g>
       <use style="stroke:#000000;stroke-width:0.8;" x="245.937367" xlink:href="#m9c60e6a6bc" y="46.989836"/>
      </g>
     </g>
     <g id="text_8">
      <!-- 50 -->
      <g transform="translate(252.937367 52.688664)scale(0.15 -0.15)">
       <use xlink:href="#DejaVuSans-35"/>
       <use x="63.623047" xlink:href="#DejaVuSans-30"/>
      </g>
     </g>
    </g>
   </g>
   <g id="patch_8">
    <path d="M 88.064196 151.794431 
L 88.064196 13.194431 
" style="fill:none;stroke:#000000;stroke-linecap:square;stroke-linejoin:miter;stroke-width:0.8;"/>
   </g>
   <g id="patch_9">
    <path d="M 245.937367 151.794431 
L 245.937367 13.194431 
" style="fill:none;stroke:#000000;stroke-linecap:square;stroke-linejoin:miter;stroke-width:0.8;"/>
   </g>
   <g id="patch_10">
    <path d="M 88.064196 151.794431 
L 245.937367 151.794431 
" style="fill:none;stroke:#000000;stroke-linecap:square;stroke-linejoin:miter;stroke-width:0.8;"/>
   </g>
   <g id="patch_11">
    <path d="M 88.064196 13.194431 
L 245.937367 13.194431 
" style="fill:none;stroke:#000000;stroke-linecap:square;stroke-linejoin:miter;stroke-width:0.8;"/>
   </g>
  </g>
 </g>
 <defs>
  <clipPath id="pe642741664">
   <rect height="138.6" width="27.219512" x="55.400781" y="13.194431"/>
  </clipPath>
  <clipPath id="p4ddf78e2be">
   <rect height="138.6" width="157.873171" x="88.064196" y="13.194431"/>
  </clipPath>
 </defs>
</svg>
