<?xml version="1.0" encoding="utf-8" standalone="no"?>
<!DOCTYPE svg PUBLIC "-//W3C//DTD SVG 1.1//EN"
  "http://www.w3.org/Graphics/SVG/1.1/DTD/svg11.dtd">
<!-- Created with matplotlib (http://matplotlib.org/) -->
<svg height="210pt" version="1.1" viewBox="0 0 354 210" width="354pt" xmlns="http://www.w3.org/2000/svg" xmlns:xlink="http://www.w3.org/1999/xlink">
 <defs>
  <style type="text/css">
*{stroke-linecap:butt;stroke-linejoin:round;}
  </style>
 </defs>
 <g id="figure_1">
  <g id="patch_1">
   <path d="M 0 210.76 
L 354.76 210.76 
L 354.76 0 
L 0 0 
z
" style="fill:#ffffff;"/>
  </g>
  <g id="axes_1">
   <g id="patch_2">
    <path d="M 10.7 200.06 
L 344.06 200.06 
L 344.06 10.7 
L 10.7 10.7 
z
" style="fill:#ffffff;"/>
   </g>
   <g id="patch_3">
    <path clip-path="url(#p6624e26d7a)" d="M 25.852727 200.06 
L 27.873091 200.06 
L 27.873091 199.852254 
L 25.852727 199.852254 
z
" style="fill:#1a1a1a;"/>
   </g>
   <g id="patch_4">
    <path clip-path="url(#p6624e26d7a)" d="M 27.873091 200.06 
L 29.893455 200.06 
L 29.893455 199.848296 
L 27.873091 199.848296 
z
" style="fill:#1a1a1a;"/>
   </g>
   <g id="patch_5">
    <path clip-path="url(#p6624e26d7a)" d="M 29.893455 200.06 
L 31.913818 200.06 
L 31.913818 199.846761 
L 29.893455 199.846761 
z
" style="fill:#1a1a1a;"/>
   </g>
   <g id="patch_6">
    <path clip-path="url(#p6624e26d7a)" d="M 31.913818 200.06 
L 33.934182 200.06 
L 33.934182 199.837409 
L 31.913818 199.837409 
z
" style="fill:#1a1a1a;"/>
   </g>
   <g id="patch_7">
    <path clip-path="url(#p6624e26d7a)" d="M 33.934182 200.06 
L 35.954545 200.06 
L 35.954545 199.834634 
L 33.934182 199.834634 
z
" style="fill:#1a1a1a;"/>
   </g>
   <g id="patch_8">
    <path clip-path="url(#p6624e26d7a)" d="M 35.954545 200.06 
L 37.974909 200.06 
L 37.974909 199.817455 
L 35.954545 199.817455 
z
" style="fill:#1a1a1a;"/>
   </g>
   <g id="patch_9">
    <path clip-path="url(#p6624e26d7a)" d="M 37.974909 200.06 
L 39.995273 200.06 
L 39.995273 199.806327 
L 37.974909 199.806327 
z
" style="fill:#1a1a1a;"/>
   </g>
   <g id="patch_10">
    <path clip-path="url(#p6624e26d7a)" d="M 39.995273 200.06 
L 42.015636 200.06 
L 42.015636 199.802951 
L 39.995273 199.802951 
z
" style="fill:#1a1a1a;"/>
   </g>
   <g id="patch_11">
    <path clip-path="url(#p6624e26d7a)" d="M 42.015636 200.06 
L 44.036 200.06 
L 44.036 199.795249 
L 42.015636 199.795249 
z
" style="fill:#1a1a1a;"/>
   </g>
   <g id="patch_12">
    <path clip-path="url(#p6624e26d7a)" d="M 44.036 200.06 
L 46.056364 200.06 
L 46.056364 199.785122 
L 44.036 199.785122 
z
" style="fill:#1a1a1a;"/>
   </g>
   <g id="patch_13">
    <path clip-path="url(#p6624e26d7a)" d="M 46.056364 200.06 
L 48.076727 200.06 
L 48.076727 199.774603 
L 46.056364 199.774603 
z
" style="fill:#1a1a1a;"/>
   </g>
   <g id="patch_14">
    <path clip-path="url(#p6624e26d7a)" d="M 48.076727 200.06 
L 50.097091 200.06 
L 50.097091 199.7684 
L 48.076727 199.7684 
z
" style="fill:#1a1a1a;"/>
   </g>
   <g id="patch_15">
    <path clip-path="url(#p6624e26d7a)" d="M 50.097091 200.06 
L 52.117455 200.06 
L 52.117455 199.752781 
L 50.097091 199.752781 
z
" style="fill:#1a1a1a;"/>
   </g>
   <g id="patch_16">
    <path clip-path="url(#p6624e26d7a)" d="M 52.117455 200.06 
L 54.137818 200.06 
L 54.137818 199.736448 
L 52.117455 199.736448 
z
" style="fill:#1a1a1a;"/>
   </g>
   <g id="patch_17">
    <path clip-path="url(#p6624e26d7a)" d="M 54.137818 200.06 
L 56.158182 200.06 
L 56.158182 199.718308 
L 54.137818 199.718308 
z
" style="fill:#1a1a1a;"/>
   </g>
   <g id="patch_18">
    <path clip-path="url(#p6624e26d7a)" d="M 56.158182 200.06 
L 58.178545 200.06 
L 58.178545 199.690475 
L 56.158182 199.690475 
z
" style="fill:#1a1a1a;"/>
   </g>
   <g id="patch_19">
    <path clip-path="url(#p6624e26d7a)" d="M 58.178545 200.06 
L 60.198909 200.06 
L 60.198909 199.68474 
L 58.178545 199.68474 
z
" style="fill:#1a1a1a;"/>
   </g>
   <g id="patch_20">
    <path clip-path="url(#p6624e26d7a)" d="M 60.198909 200.06 
L 62.219273 200.06 
L 62.219273 199.661093 
L 60.198909 199.661093 
z
" style="fill:#1a1a1a;"/>
   </g>
   <g id="patch_21">
    <path clip-path="url(#p6624e26d7a)" d="M 62.219273 200.06 
L 64.239636 200.06 
L 64.239636 199.635673 
L 62.219273 199.635673 
z
" style="fill:#1a1a1a;"/>
   </g>
   <g id="patch_22">
    <path clip-path="url(#p6624e26d7a)" d="M 64.239636 200.06 
L 66.26 200.06 
L 66.26 199.604623 
L 64.239636 199.604623 
z
" style="fill:#1a1a1a;"/>
   </g>
   <g id="patch_23">
    <path clip-path="url(#p6624e26d7a)" d="M 66.26 200.06 
L 68.280364 200.06 
L 68.280364 199.578328 
L 66.26 199.578328 
z
" style="fill:#1a1a1a;"/>
   </g>
   <g id="patch_24">
    <path clip-path="url(#p6624e26d7a)" d="M 68.280364 200.06 
L 70.300727 200.06 
L 70.300727 199.567305 
L 68.280364 199.567305 
z
" style="fill:#1a1a1a;"/>
   </g>
   <g id="patch_25">
    <path clip-path="url(#p6624e26d7a)" d="M 70.300727 200.06 
L 72.321091 200.06 
L 72.321091 199.559536 
L 70.300727 199.559536 
z
" style="fill:#1a1a1a;"/>
   </g>
   <g id="patch_26">
    <path clip-path="url(#p6624e26d7a)" d="M 72.321091 200.06 
L 74.341455 200.06 
L 74.341455 199.533848 
L 72.321091 199.533848 
z
" style="fill:#1a1a1a;"/>
   </g>
   <g id="patch_27">
    <path clip-path="url(#p6624e26d7a)" d="M 74.341455 200.06 
L 76.361818 200.06 
L 76.361818 199.51872 
L 74.341455 199.51872 
z
" style="fill:#1a1a1a;"/>
   </g>
   <g id="patch_28">
    <path clip-path="url(#p6624e26d7a)" d="M 76.361818 200.06 
L 78.382182 200.06 
L 78.382182 199.513683 
L 76.361818 199.513683 
z
" style="fill:#1a1a1a;"/>
   </g>
   <g id="patch_29">
    <path clip-path="url(#p6624e26d7a)" d="M 78.382182 200.06 
L 80.402545 200.06 
L 80.402545 199.511607 
L 78.382182 199.511607 
z
" style="fill:#1a1a1a;"/>
   </g>
   <g id="patch_30">
    <path clip-path="url(#p6624e26d7a)" d="M 80.402545 200.06 
L 82.422909 200.06 
L 82.422909 199.480521 
L 80.402545 199.480521 
z
" style="fill:#1a1a1a;"/>
   </g>
   <g id="patch_31">
    <path clip-path="url(#p6624e26d7a)" d="M 82.422909 200.06 
L 84.443273 200.06 
L 84.443273 199.471605 
L 82.422909 199.471605 
z
" style="fill:#1a1a1a;"/>
   </g>
   <g id="patch_32">
    <path clip-path="url(#p6624e26d7a)" d="M 84.443273 200.06 
L 86.463636 200.06 
L 86.463636 199.461022 
L 84.443273 199.461022 
z
" style="fill:#1a1a1a;"/>
   </g>
   <g id="patch_33">
    <path clip-path="url(#p6624e26d7a)" d="M 86.463636 200.06 
L 88.484 200.06 
L 88.484 199.387936 
L 86.463636 199.387936 
z
" style="fill:#1a1a1a;"/>
   </g>
   <g id="patch_34">
    <path clip-path="url(#p6624e26d7a)" d="M 88.484 200.06 
L 90.504364 200.06 
L 90.504364 199.366526 
L 88.484 199.366526 
z
" style="fill:#1a1a1a;"/>
   </g>
   <g id="patch_35">
    <path clip-path="url(#p6624e26d7a)" d="M 90.504364 200.06 
L 92.524727 200.06 
L 92.524727 199.333809 
L 90.504364 199.333809 
z
" style="fill:#1a1a1a;"/>
   </g>
   <g id="patch_36">
    <path clip-path="url(#p6624e26d7a)" d="M 92.524727 200.06 
L 94.545091 200.06 
L 94.545091 199.293082 
L 92.524727 199.293082 
z
" style="fill:#1a1a1a;"/>
   </g>
   <g id="patch_37">
    <path clip-path="url(#p6624e26d7a)" d="M 94.545091 200.06 
L 96.565455 200.06 
L 96.565455 199.204149 
L 94.545091 199.204149 
z
" style="fill:#1a1a1a;"/>
   </g>
   <g id="patch_38">
    <path clip-path="url(#p6624e26d7a)" d="M 96.565455 200.06 
L 98.585818 200.06 
L 98.585818 199.15184 
L 96.565455 199.15184 
z
" style="fill:#1a1a1a;"/>
   </g>
   <g id="patch_39">
    <path clip-path="url(#p6624e26d7a)" d="M 98.585818 200.06 
L 100.606182 200.06 
L 100.606182 199.060007 
L 98.585818 199.060007 
z
" style="fill:#1a1a1a;"/>
   </g>
   <g id="patch_40">
    <path clip-path="url(#p6624e26d7a)" d="M 100.606182 200.06 
L 102.626545 200.06 
L 102.626545 199.047368 
L 100.606182 199.047368 
z
" style="fill:#1a1a1a;"/>
   </g>
   <g id="patch_41">
    <path clip-path="url(#p6624e26d7a)" d="M 102.626545 200.06 
L 104.646909 200.06 
L 104.646909 199.020854 
L 102.626545 199.020854 
z
" style="fill:#1a1a1a;"/>
   </g>
   <g id="patch_42">
    <path clip-path="url(#p6624e26d7a)" d="M 104.646909 200.06 
L 106.667273 200.06 
L 106.667273 198.958374 
L 104.646909 198.958374 
z
" style="fill:#1a1a1a;"/>
   </g>
   <g id="patch_43">
    <path clip-path="url(#p6624e26d7a)" d="M 106.667273 200.06 
L 108.687636 200.06 
L 108.687636 198.879602 
L 106.667273 198.879602 
z
" style="fill:#1a1a1a;"/>
   </g>
   <g id="patch_44">
    <path clip-path="url(#p6624e26d7a)" d="M 108.687636 200.06 
L 110.708 200.06 
L 110.708 198.799413 
L 108.687636 198.799413 
z
" style="fill:#1a1a1a;"/>
   </g>
   <g id="patch_45">
    <path clip-path="url(#p6624e26d7a)" d="M 110.708 200.06 
L 112.728364 200.06 
L 112.728364 198.673614 
L 110.708 198.673614 
z
" style="fill:#1a1a1a;"/>
   </g>
   <g id="patch_46">
    <path clip-path="url(#p6624e26d7a)" d="M 112.728364 200.06 
L 114.748727 200.06 
L 114.748727 198.559004 
L 112.728364 198.559004 
z
" style="fill:#1a1a1a;"/>
   </g>
   <g id="patch_47">
    <path clip-path="url(#p6624e26d7a)" d="M 114.748727 200.06 
L 116.769091 200.06 
L 116.769091 198.463912 
L 114.748727 198.463912 
z
" style="fill:#1a1a1a;"/>
   </g>
   <g id="patch_48">
    <path clip-path="url(#p6624e26d7a)" d="M 116.769091 200.06 
L 118.789455 200.06 
L 118.789455 198.294818 
L 116.769091 198.294818 
z
" style="fill:#1a1a1a;"/>
   </g>
   <g id="patch_49">
    <path clip-path="url(#p6624e26d7a)" d="M 118.789455 200.06 
L 120.809818 200.06 
L 120.809818 198.139872 
L 118.789455 198.139872 
z
" style="fill:#1a1a1a;"/>
   </g>
   <g id="patch_50">
    <path clip-path="url(#p6624e26d7a)" d="M 120.809818 200.06 
L 122.830182 200.06 
L 122.830182 197.714437 
L 120.809818 197.714437 
z
" style="fill:#1a1a1a;"/>
   </g>
   <g id="patch_51">
    <path clip-path="url(#p6624e26d7a)" d="M 122.830182 200.06 
L 124.850545 200.06 
L 124.850545 197.693784 
L 122.830182 197.693784 
z
" style="fill:#1a1a1a;"/>
   </g>
   <g id="patch_52">
    <path clip-path="url(#p6624e26d7a)" d="M 124.850545 200.06 
L 126.870909 200.06 
L 126.870909 197.282845 
L 124.850545 197.282845 
z
" style="fill:#1a1a1a;"/>
   </g>
   <g id="patch_53">
    <path clip-path="url(#p6624e26d7a)" d="M 126.870909 200.06 
L 128.891273 200.06 
L 128.891273 197.092506 
L 126.870909 197.092506 
z
" style="fill:#1a1a1a;"/>
   </g>
   <g id="patch_54">
    <path clip-path="url(#p6624e26d7a)" d="M 128.891273 200.06 
L 130.911636 200.06 
L 130.911636 196.532305 
L 128.891273 196.532305 
z
" style="fill:#1a1a1a;"/>
   </g>
   <g id="patch_55">
    <path clip-path="url(#p6624e26d7a)" d="M 130.911636 200.06 
L 132.932 200.06 
L 132.932 195.644781 
L 130.911636 195.644781 
z
" style="fill:#1a1a1a;"/>
   </g>
   <g id="patch_56">
    <path clip-path="url(#p6624e26d7a)" d="M 132.932 200.06 
L 134.952364 200.06 
L 134.952364 195.17914 
L 132.932 195.17914 
z
" style="fill:#1a1a1a;"/>
   </g>
   <g id="patch_57">
    <path clip-path="url(#p6624e26d7a)" d="M 134.952364 200.06 
L 136.972727 200.06 
L 136.972727 193.452584 
L 134.952364 193.452584 
z
" style="fill:#1a1a1a;"/>
   </g>
   <g id="patch_58">
    <path clip-path="url(#p6624e26d7a)" d="M 136.972727 200.06 
L 138.993091 200.06 
L 138.993091 192.764209 
L 136.972727 192.764209 
z
" style="fill:#1a1a1a;"/>
   </g>
   <g id="patch_59">
    <path clip-path="url(#p6624e26d7a)" d="M 138.993091 200.06 
L 141.013455 200.06 
L 141.013455 192.716523 
L 138.993091 192.716523 
z
" style="fill:#1a1a1a;"/>
   </g>
   <g id="patch_60">
    <path clip-path="url(#p6624e26d7a)" d="M 141.013455 200.06 
L 143.033818 200.06 
L 143.033818 192.040578 
L 141.013455 192.040578 
z
" style="fill:#1a1a1a;"/>
   </g>
   <g id="patch_61">
    <path clip-path="url(#p6624e26d7a)" d="M 143.033818 200.06 
L 145.054182 200.06 
L 145.054182 190.242411 
L 143.033818 190.242411 
z
" style="fill:#1a1a1a;"/>
   </g>
   <g id="patch_62">
    <path clip-path="url(#p6624e26d7a)" d="M 145.054182 200.06 
L 147.074545 200.06 
L 147.074545 189.882526 
L 145.054182 189.882526 
z
" style="fill:#1a1a1a;"/>
   </g>
   <g id="patch_63">
    <path clip-path="url(#p6624e26d7a)" d="M 147.074545 200.06 
L 149.094909 200.06 
L 149.094909 189.004701 
L 147.074545 189.004701 
z
" style="fill:#1a1a1a;"/>
   </g>
   <g id="patch_64">
    <path clip-path="url(#p6624e26d7a)" d="M 149.094909 200.06 
L 151.115273 200.06 
L 151.115273 187.596554 
L 149.094909 187.596554 
z
" style="fill:#1a1a1a;"/>
   </g>
   <g id="patch_65">
    <path clip-path="url(#p6624e26d7a)" d="M 151.115273 200.06 
L 153.135636 200.06 
L 153.135636 184.815947 
L 151.115273 184.815947 
z
" style="fill:#1a1a1a;"/>
   </g>
   <g id="patch_66">
    <path clip-path="url(#p6624e26d7a)" d="M 153.135636 200.06 
L 155.156 200.06 
L 155.156 177.883575 
L 153.135636 177.883575 
z
" style="fill:#1a1a1a;"/>
   </g>
   <g id="patch_67">
    <path clip-path="url(#p6624e26d7a)" d="M 155.156 200.06 
L 157.176364 200.06 
L 157.176364 177.220814 
L 155.156 177.220814 
z
" style="fill:#1a1a1a;"/>
   </g>
   <g id="patch_68">
    <path clip-path="url(#p6624e26d7a)" d="M 157.176364 200.06 
L 159.196727 200.06 
L 159.196727 173.420852 
L 157.176364 173.420852 
z
" style="fill:#1a1a1a;"/>
   </g>
   <g id="patch_69">
    <path clip-path="url(#p6624e26d7a)" d="M 159.196727 200.06 
L 161.217091 200.06 
L 161.217091 160.297388 
L 159.196727 160.297388 
z
" style="fill:#1a1a1a;"/>
   </g>
   <g id="patch_70">
    <path clip-path="url(#p6624e26d7a)" d="M 161.217091 200.06 
L 163.237455 200.06 
L 163.237455 155.407624 
L 161.217091 155.407624 
z
" style="fill:#1a1a1a;"/>
   </g>
   <g id="patch_71">
    <path clip-path="url(#p6624e26d7a)" d="M 163.237455 200.06 
L 165.257818 200.06 
L 165.257818 153.419577 
L 163.237455 153.419577 
z
" style="fill:#1a1a1a;"/>
   </g>
   <g id="patch_72">
    <path clip-path="url(#p6624e26d7a)" d="M 165.257818 200.06 
L 167.278182 200.06 
L 167.278182 150.078724 
L 165.257818 150.078724 
z
" style="fill:#1a1a1a;"/>
   </g>
   <g id="patch_73">
    <path clip-path="url(#p6624e26d7a)" d="M 167.278182 200.06 
L 169.298545 200.06 
L 169.298545 145.409161 
L 167.278182 145.409161 
z
" style="fill:#1a1a1a;"/>
   </g>
   <g id="patch_74">
    <path clip-path="url(#p6624e26d7a)" d="M 169.298545 200.06 
L 171.318909 200.06 
L 171.318909 139.248755 
L 169.298545 139.248755 
z
" style="fill:#1a1a1a;"/>
   </g>
   <g id="patch_75">
    <path clip-path="url(#p6624e26d7a)" d="M 171.318909 200.06 
L 173.339273 200.06 
L 173.339273 138.286157 
L 171.318909 138.286157 
z
" style="fill:#1a1a1a;"/>
   </g>
   <g id="patch_76">
    <path clip-path="url(#p6624e26d7a)" d="M 173.339273 200.06 
L 175.359636 200.06 
L 175.359636 137.98603 
L 173.339273 137.98603 
z
" style="fill:#1a1a1a;"/>
   </g>
   <g id="patch_77">
    <path clip-path="url(#p6624e26d7a)" d="M 175.359636 200.06 
L 177.38 200.06 
L 177.38 135.176285 
L 175.359636 135.176285 
z
" style="fill:#1a1a1a;"/>
   </g>
   <g id="patch_78">
    <path clip-path="url(#p6624e26d7a)" d="M 177.38 200.06 
L 179.400364 200.06 
L 179.400364 135.084469 
L 177.38 135.084469 
z
" style="fill:#1a1a1a;"/>
   </g>
   <g id="patch_79">
    <path clip-path="url(#p6624e26d7a)" d="M 179.400364 200.06 
L 181.420727 200.06 
L 181.420727 135.940483 
L 179.400364 135.940483 
z
" style="fill:#1a1a1a;"/>
   </g>
   <g id="patch_80">
    <path clip-path="url(#p6624e26d7a)" d="M 181.420727 200.06 
L 183.441091 200.06 
L 183.441091 138.154154 
L 181.420727 138.154154 
z
" style="fill:#1a1a1a;"/>
   </g>
   <g id="patch_81">
    <path clip-path="url(#p6624e26d7a)" d="M 183.441091 200.06 
L 185.461455 200.06 
L 185.461455 138.436481 
L 183.441091 138.436481 
z
" style="fill:#1a1a1a;"/>
   </g>
   <g id="patch_82">
    <path clip-path="url(#p6624e26d7a)" d="M 185.461455 200.06 
L 187.481818 200.06 
L 187.481818 141.119622 
L 185.461455 141.119622 
z
" style="fill:#1a1a1a;"/>
   </g>
   <g id="patch_83">
    <path clip-path="url(#p6624e26d7a)" d="M 187.481818 200.06 
L 189.502182 200.06 
L 189.502182 146.70998 
L 187.481818 146.70998 
z
" style="fill:#1a1a1a;"/>
   </g>
   <g id="patch_84">
    <path clip-path="url(#p6624e26d7a)" d="M 189.502182 200.06 
L 191.522545 200.06 
L 191.522545 151.906155 
L 189.502182 151.906155 
z
" style="fill:#1a1a1a;"/>
   </g>
   <g id="patch_85">
    <path clip-path="url(#p6624e26d7a)" d="M 191.522545 200.06 
L 193.542909 200.06 
L 193.542909 154.767911 
L 191.522545 154.767911 
z
" style="fill:#1a1a1a;"/>
   </g>
   <g id="patch_86">
    <path clip-path="url(#p6624e26d7a)" d="M 193.542909 200.06 
L 195.563273 200.06 
L 195.563273 159.605703 
L 193.542909 159.605703 
z
" style="fill:#1a1a1a;"/>
   </g>
   <g id="patch_87">
    <path clip-path="url(#p6624e26d7a)" d="M 195.563273 200.06 
L 197.583636 200.06 
L 197.583636 162.041201 
L 195.563273 162.041201 
z
" style="fill:#1a1a1a;"/>
   </g>
   <g id="patch_88">
    <path clip-path="url(#p6624e26d7a)" d="M 197.583636 200.06 
L 199.604 200.06 
L 199.604 175.991581 
L 197.583636 175.991581 
z
" style="fill:#1a1a1a;"/>
   </g>
   <g id="patch_89">
    <path clip-path="url(#p6624e26d7a)" d="M 199.604 200.06 
L 201.624364 200.06 
L 201.624364 177.790085 
L 199.604 177.790085 
z
" style="fill:#1a1a1a;"/>
   </g>
   <g id="patch_90">
    <path clip-path="url(#p6624e26d7a)" d="M 201.624364 200.06 
L 203.644727 200.06 
L 203.644727 179.390135 
L 201.624364 179.390135 
z
" style="fill:#1a1a1a;"/>
   </g>
   <g id="patch_91">
    <path clip-path="url(#p6624e26d7a)" d="M 203.644727 200.06 
L 205.665091 200.06 
L 205.665091 186.782813 
L 203.644727 186.782813 
z
" style="fill:#1a1a1a;"/>
   </g>
   <g id="patch_92">
    <path clip-path="url(#p6624e26d7a)" d="M 205.665091 200.06 
L 207.685455 200.06 
L 207.685455 189.000893 
L 205.665091 189.000893 
z
" style="fill:#1a1a1a;"/>
   </g>
   <g id="patch_93">
    <path clip-path="url(#p6624e26d7a)" d="M 207.685455 200.06 
L 209.705818 200.06 
L 209.705818 189.258613 
L 207.685455 189.258613 
z
" style="fill:#1a1a1a;"/>
   </g>
   <g id="patch_94">
    <path clip-path="url(#p6624e26d7a)" d="M 209.705818 200.06 
L 211.726182 200.06 
L 211.726182 190.052728 
L 209.705818 190.052728 
z
" style="fill:#1a1a1a;"/>
   </g>
   <g id="patch_95">
    <path clip-path="url(#p6624e26d7a)" d="M 211.726182 200.06 
L 213.746545 200.06 
L 213.746545 190.778569 
L 211.726182 190.778569 
z
" style="fill:#1a1a1a;"/>
   </g>
   <g id="patch_96">
    <path clip-path="url(#p6624e26d7a)" d="M 213.746545 200.06 
L 215.766909 200.06 
L 215.766909 192.149589 
L 213.746545 192.149589 
z
" style="fill:#1a1a1a;"/>
   </g>
   <g id="patch_97">
    <path clip-path="url(#p6624e26d7a)" d="M 215.766909 200.06 
L 217.787273 200.06 
L 217.787273 192.74734 
L 215.766909 192.74734 
z
" style="fill:#1a1a1a;"/>
   </g>
   <g id="patch_98">
    <path clip-path="url(#p6624e26d7a)" d="M 217.787273 200.06 
L 219.807636 200.06 
L 219.807636 193.085119 
L 217.787273 193.085119 
z
" style="fill:#1a1a1a;"/>
   </g>
   <g id="patch_99">
    <path clip-path="url(#p6624e26d7a)" d="M 219.807636 200.06 
L 221.828 200.06 
L 221.828 193.589413 
L 219.807636 193.589413 
z
" style="fill:#1a1a1a;"/>
   </g>
   <g id="patch_100">
    <path clip-path="url(#p6624e26d7a)" d="M 221.828 200.06 
L 223.848364 200.06 
L 223.848364 195.51918 
L 221.828 195.51918 
z
" style="fill:#1a1a1a;"/>
   </g>
   <g id="patch_101">
    <path clip-path="url(#p6624e26d7a)" d="M 223.848364 200.06 
L 225.868727 200.06 
L 225.868727 196.483892 
L 223.848364 196.483892 
z
" style="fill:#1a1a1a;"/>
   </g>
   <g id="patch_102">
    <path clip-path="url(#p6624e26d7a)" d="M 225.868727 200.06 
L 227.889091 200.06 
L 227.889091 196.627737 
L 225.868727 196.627737 
z
" style="fill:#1a1a1a;"/>
   </g>
   <g id="patch_103">
    <path clip-path="url(#p6624e26d7a)" d="M 227.889091 200.06 
L 229.909455 200.06 
L 229.909455 197.263207 
L 227.889091 197.263207 
z
" style="fill:#1a1a1a;"/>
   </g>
   <g id="patch_104">
    <path clip-path="url(#p6624e26d7a)" d="M 229.909455 200.06 
L 231.929818 200.06 
L 231.929818 197.445159 
L 229.909455 197.445159 
z
" style="fill:#1a1a1a;"/>
   </g>
   <g id="patch_105">
    <path clip-path="url(#p6624e26d7a)" d="M 231.929818 200.06 
L 233.950182 200.06 
L 233.950182 197.709316 
L 231.929818 197.709316 
z
" style="fill:#1a1a1a;"/>
   </g>
   <g id="patch_106">
    <path clip-path="url(#p6624e26d7a)" d="M 233.950182 200.06 
L 235.970545 200.06 
L 235.970545 197.930174 
L 233.950182 197.930174 
z
" style="fill:#1a1a1a;"/>
   </g>
   <g id="patch_107">
    <path clip-path="url(#p6624e26d7a)" d="M 235.970545 200.06 
L 237.990909 200.06 
L 237.990909 198.283525 
L 235.970545 198.283525 
z
" style="fill:#1a1a1a;"/>
   </g>
   <g id="patch_108">
    <path clip-path="url(#p6624e26d7a)" d="M 237.990909 200.06 
L 240.011273 200.06 
L 240.011273 198.371729 
L 237.990909 198.371729 
z
" style="fill:#1a1a1a;"/>
   </g>
   <g id="patch_109">
    <path clip-path="url(#p6624e26d7a)" d="M 240.011273 200.06 
L 242.031636 200.06 
L 242.031636 198.489809 
L 240.011273 198.489809 
z
" style="fill:#1a1a1a;"/>
   </g>
   <g id="patch_110">
    <path clip-path="url(#p6624e26d7a)" d="M 242.031636 200.06 
L 244.052 200.06 
L 244.052 198.615146 
L 242.031636 198.615146 
z
" style="fill:#1a1a1a;"/>
   </g>
   <g id="patch_111">
    <path clip-path="url(#p6624e26d7a)" d="M 244.052 200.06 
L 246.072364 200.06 
L 246.072364 198.736423 
L 244.052 198.736423 
z
" style="fill:#1a1a1a;"/>
   </g>
   <g id="patch_112">
    <path clip-path="url(#p6624e26d7a)" d="M 246.072364 200.06 
L 248.092727 200.06 
L 248.092727 198.837059 
L 246.072364 198.837059 
z
" style="fill:#1a1a1a;"/>
   </g>
   <g id="patch_113">
    <path clip-path="url(#p6624e26d7a)" d="M 248.092727 200.06 
L 250.113091 200.06 
L 250.113091 198.931148 
L 248.092727 198.931148 
z
" style="fill:#1a1a1a;"/>
   </g>
   <g id="patch_114">
    <path clip-path="url(#p6624e26d7a)" d="M 250.113091 200.06 
L 252.133455 200.06 
L 252.133455 198.984244 
L 250.113091 198.984244 
z
" style="fill:#1a1a1a;"/>
   </g>
   <g id="patch_115">
    <path clip-path="url(#p6624e26d7a)" d="M 252.133455 200.06 
L 254.153818 200.06 
L 254.153818 199.034745 
L 252.133455 199.034745 
z
" style="fill:#1a1a1a;"/>
   </g>
   <g id="patch_116">
    <path clip-path="url(#p6624e26d7a)" d="M 254.153818 200.06 
L 256.174182 200.06 
L 256.174182 199.059274 
L 254.153818 199.059274 
z
" style="fill:#1a1a1a;"/>
   </g>
   <g id="patch_117">
    <path clip-path="url(#p6624e26d7a)" d="M 256.174182 200.06 
L 258.194545 200.06 
L 258.194545 199.095189 
L 256.174182 199.095189 
z
" style="fill:#1a1a1a;"/>
   </g>
   <g id="patch_118">
    <path clip-path="url(#p6624e26d7a)" d="M 258.194545 200.06 
L 260.214909 200.06 
L 260.214909 199.194547 
L 258.194545 199.194547 
z
" style="fill:#1a1a1a;"/>
   </g>
   <g id="patch_119">
    <path clip-path="url(#p6624e26d7a)" d="M 260.214909 200.06 
L 262.235273 200.06 
L 262.235273 199.290629 
L 260.214909 199.290629 
z
" style="fill:#1a1a1a;"/>
   </g>
   <g id="patch_120">
    <path clip-path="url(#p6624e26d7a)" d="M 262.235273 200.06 
L 264.255636 200.06 
L 264.255636 199.327305 
L 262.235273 199.327305 
z
" style="fill:#1a1a1a;"/>
   </g>
   <g id="patch_121">
    <path clip-path="url(#p6624e26d7a)" d="M 264.255636 200.06 
L 266.276 200.06 
L 266.276 199.360007 
L 264.255636 199.360007 
z
" style="fill:#1a1a1a;"/>
   </g>
   <g id="patch_122">
    <path clip-path="url(#p6624e26d7a)" d="M 266.276 200.06 
L 268.296364 200.06 
L 268.296364 199.367451 
L 266.276 199.367451 
z
" style="fill:#1a1a1a;"/>
   </g>
   <g id="patch_123">
    <path clip-path="url(#p6624e26d7a)" d="M 268.296364 200.06 
L 270.316727 200.06 
L 270.316727 199.455075 
L 268.296364 199.455075 
z
" style="fill:#1a1a1a;"/>
   </g>
   <g id="patch_124">
    <path clip-path="url(#p6624e26d7a)" d="M 270.316727 200.06 
L 272.337091 200.06 
L 272.337091 199.464772 
L 270.316727 199.464772 
z
" style="fill:#1a1a1a;"/>
   </g>
   <g id="patch_125">
    <path clip-path="url(#p6624e26d7a)" d="M 272.337091 200.06 
L 274.357455 200.06 
L 274.357455 199.477177 
L 272.337091 199.477177 
z
" style="fill:#1a1a1a;"/>
   </g>
   <g id="patch_126">
    <path clip-path="url(#p6624e26d7a)" d="M 274.357455 200.06 
L 276.377818 200.06 
L 276.377818 199.487511 
L 274.357455 199.487511 
z
" style="fill:#1a1a1a;"/>
   </g>
   <g id="patch_127">
    <path clip-path="url(#p6624e26d7a)" d="M 276.377818 200.06 
L 278.398182 200.06 
L 278.398182 199.513609 
L 276.377818 199.513609 
z
" style="fill:#1a1a1a;"/>
   </g>
   <g id="patch_128">
    <path clip-path="url(#p6624e26d7a)" d="M 278.398182 200.06 
L 280.418545 200.06 
L 280.418545 199.514147 
L 278.398182 199.514147 
z
" style="fill:#1a1a1a;"/>
   </g>
   <g id="patch_129">
    <path clip-path="url(#p6624e26d7a)" d="M 280.418545 200.06 
L 282.438909 200.06 
L 282.438909 199.529869 
L 280.418545 199.529869 
z
" style="fill:#1a1a1a;"/>
   </g>
   <g id="patch_130">
    <path clip-path="url(#p6624e26d7a)" d="M 282.438909 200.06 
L 284.459273 200.06 
L 284.459273 199.545452 
L 282.438909 199.545452 
z
" style="fill:#1a1a1a;"/>
   </g>
   <g id="patch_131">
    <path clip-path="url(#p6624e26d7a)" d="M 284.459273 200.06 
L 286.479636 200.06 
L 286.479636 199.565163 
L 284.459273 199.565163 
z
" style="fill:#1a1a1a;"/>
   </g>
   <g id="patch_132">
    <path clip-path="url(#p6624e26d7a)" d="M 286.479636 200.06 
L 288.5 200.06 
L 288.5 199.570097 
L 286.479636 199.570097 
z
" style="fill:#1a1a1a;"/>
   </g>
   <g id="patch_133">
    <path clip-path="url(#p6624e26d7a)" d="M 288.5 200.06 
L 290.520364 200.06 
L 290.520364 199.593111 
L 288.5 199.593111 
z
" style="fill:#1a1a1a;"/>
   </g>
   <g id="patch_134">
    <path clip-path="url(#p6624e26d7a)" d="M 290.520364 200.06 
L 292.540727 200.06 
L 292.540727 199.62278 
L 290.520364 199.62278 
z
" style="fill:#1a1a1a;"/>
   </g>
   <g id="patch_135">
    <path clip-path="url(#p6624e26d7a)" d="M 292.540727 200.06 
L 294.561091 200.06 
L 294.561091 199.65821 
L 292.540727 199.65821 
z
" style="fill:#1a1a1a;"/>
   </g>
   <g id="patch_136">
    <path clip-path="url(#p6624e26d7a)" d="M 294.561091 200.06 
L 296.581455 200.06 
L 296.581455 199.674069 
L 294.561091 199.674069 
z
" style="fill:#1a1a1a;"/>
   </g>
   <g id="patch_137">
    <path clip-path="url(#p6624e26d7a)" d="M 296.581455 200.06 
L 298.601818 200.06 
L 298.601818 199.685383 
L 296.581455 199.685383 
z
" style="fill:#1a1a1a;"/>
   </g>
   <g id="patch_138">
    <path clip-path="url(#p6624e26d7a)" d="M 298.601818 200.06 
L 300.622182 200.06 
L 300.622182 199.712085 
L 298.601818 199.712085 
z
" style="fill:#1a1a1a;"/>
   </g>
   <g id="patch_139">
    <path clip-path="url(#p6624e26d7a)" d="M 300.622182 200.06 
L 302.642545 200.06 
L 302.642545 199.723906 
L 300.622182 199.723906 
z
" style="fill:#1a1a1a;"/>
   </g>
   <g id="patch_140">
    <path clip-path="url(#p6624e26d7a)" d="M 302.642545 200.06 
L 304.662909 200.06 
L 304.662909 199.741416 
L 302.642545 199.741416 
z
" style="fill:#1a1a1a;"/>
   </g>
   <g id="patch_141">
    <path clip-path="url(#p6624e26d7a)" d="M 304.662909 200.06 
L 306.683273 200.06 
L 306.683273 199.757204 
L 304.662909 199.757204 
z
" style="fill:#1a1a1a;"/>
   </g>
   <g id="patch_142">
    <path clip-path="url(#p6624e26d7a)" d="M 306.683273 200.06 
L 308.703636 200.06 
L 308.703636 199.771967 
L 306.683273 199.771967 
z
" style="fill:#1a1a1a;"/>
   </g>
   <g id="patch_143">
    <path clip-path="url(#p6624e26d7a)" d="M 308.703636 200.06 
L 310.724 200.06 
L 310.724 199.779084 
L 308.703636 199.779084 
z
" style="fill:#1a1a1a;"/>
   </g>
   <g id="patch_144">
    <path clip-path="url(#p6624e26d7a)" d="M 310.724 200.06 
L 312.744364 200.06 
L 312.744364 199.792622 
L 310.724 199.792622 
z
" style="fill:#1a1a1a;"/>
   </g>
   <g id="patch_145">
    <path clip-path="url(#p6624e26d7a)" d="M 312.744364 200.06 
L 314.764727 200.06 
L 314.764727 199.796666 
L 312.744364 199.796666 
z
" style="fill:#1a1a1a;"/>
   </g>
   <g id="patch_146">
    <path clip-path="url(#p6624e26d7a)" d="M 314.764727 200.06 
L 316.785091 200.06 
L 316.785091 199.804024 
L 314.764727 199.804024 
z
" style="fill:#1a1a1a;"/>
   </g>
   <g id="patch_147">
    <path clip-path="url(#p6624e26d7a)" d="M 316.785091 200.06 
L 318.805455 200.06 
L 318.805455 199.809805 
L 316.785091 199.809805 
z
" style="fill:#1a1a1a;"/>
   </g>
   <g id="patch_148">
    <path clip-path="url(#p6624e26d7a)" d="M 318.805455 200.06 
L 320.825818 200.06 
L 320.825818 199.833632 
L 318.805455 199.833632 
z
" style="fill:#1a1a1a;"/>
   </g>
   <g id="patch_149">
    <path clip-path="url(#p6624e26d7a)" d="M 320.825818 200.06 
L 322.846182 200.06 
L 322.846182 199.836574 
L 320.825818 199.836574 
z
" style="fill:#1a1a1a;"/>
   </g>
   <g id="patch_150">
    <path clip-path="url(#p6624e26d7a)" d="M 322.846182 200.06 
L 324.866545 200.06 
L 324.866545 199.84661 
L 322.846182 199.84661 
z
" style="fill:#1a1a1a;"/>
   </g>
   <g id="patch_151">
    <path clip-path="url(#p6624e26d7a)" d="M 324.866545 200.06 
L 326.886909 200.06 
L 326.886909 199.847307 
L 324.866545 199.847307 
z
" style="fill:#1a1a1a;"/>
   </g>
   <g id="patch_152">
    <path clip-path="url(#p6624e26d7a)" d="M 326.886909 200.06 
L 328.907273 200.06 
L 328.907273 199.850622 
L 326.886909 199.850622 
z
" style="fill:#1a1a1a;"/>
   </g>
   <g id="matplotlib.axis_1"/>
   <g id="matplotlib.axis_2"/>
   <g id="patch_153">
    <path d="M 10.7 200.06 
L 10.7 10.7 
" style="fill:none;stroke:#000000;stroke-linecap:square;stroke-linejoin:miter;stroke-width:0.8;"/>
   </g>
   <g id="patch_154">
    <path d="M 344.06 200.06 
L 344.06 10.7 
" style="fill:none;stroke:#000000;stroke-linecap:square;stroke-linejoin:miter;stroke-width:0.8;"/>
   </g>
   <g id="patch_155">
    <path d="M 10.7 200.06 
L 344.06 200.06 
" style="fill:none;stroke:#000000;stroke-linecap:square;stroke-linejoin:miter;stroke-width:0.8;"/>
   </g>
   <g id="patch_156">
    <path d="M 10.7 10.7 
L 344.06 10.7 
" style="fill:none;stroke:#000000;stroke-linecap:square;stroke-linejoin:miter;stroke-width:0.8;"/>
   </g>
  </g>
 </g>
 <defs>
  <clipPath id="p6624e26d7a">
   <rect height="189.36" width="333.36" x="10.7" y="10.7"/>
  </clipPath>
 </defs>
</svg>
