<?xml version="1.0" encoding="utf-8" standalone="no"?>
<!DOCTYPE svg PUBLIC "-//W3C//DTD SVG 1.1//EN"
  "http://www.w3.org/Graphics/SVG/1.1/DTD/svg11.dtd">
<!-- Created with matplotlib (http://matplotlib.org/) -->
<svg height="210pt" version="1.1" viewBox="0 0 354 210" width="354pt" xmlns="http://www.w3.org/2000/svg" xmlns:xlink="http://www.w3.org/1999/xlink">
 <defs>
  <style type="text/css">
*{stroke-linecap:butt;stroke-linejoin:round;}
  </style>
 </defs>
 <g id="figure_1">
  <g id="patch_1">
   <path d="M 0 210.76 
L 354.76 210.76 
L 354.76 0 
L 0 0 
z
" style="fill:#ffffff;"/>
  </g>
  <g id="axes_1">
   <g id="patch_2">
    <path d="M 10.7 200.06 
L 344.06 200.06 
L 344.06 10.7 
L 10.7 10.7 
z
" style="fill:#ffffff;"/>
   </g>
   <g id="patch_3">
    <path clip-path="url(#p721b0b01dc)" d="M 25.852727 200.06 
L 27.873091 200.06 
L 27.873091 199.808758 
L 25.852727 199.808758 
z
" style="fill:#1a1a1a;"/>
   </g>
   <g id="patch_4">
    <path clip-path="url(#p721b0b01dc)" d="M 27.873091 200.06 
L 29.893455 200.06 
L 29.893455 199.805375 
L 27.873091 199.805375 
z
" style="fill:#1a1a1a;"/>
   </g>
   <g id="patch_5">
    <path clip-path="url(#p721b0b01dc)" d="M 29.893455 200.06 
L 31.913818 200.06 
L 31.913818 199.802487 
L 29.893455 199.802487 
z
" style="fill:#1a1a1a;"/>
   </g>
   <g id="patch_6">
    <path clip-path="url(#p721b0b01dc)" d="M 31.913818 200.06 
L 33.934182 200.06 
L 33.934182 199.795807 
L 31.913818 199.795807 
z
" style="fill:#1a1a1a;"/>
   </g>
   <g id="patch_7">
    <path clip-path="url(#p721b0b01dc)" d="M 33.934182 200.06 
L 35.954545 200.06 
L 35.954545 199.79187 
L 33.934182 199.79187 
z
" style="fill:#1a1a1a;"/>
   </g>
   <g id="patch_8">
    <path clip-path="url(#p721b0b01dc)" d="M 35.954545 200.06 
L 37.974909 200.06 
L 37.974909 199.787992 
L 35.954545 199.787992 
z
" style="fill:#1a1a1a;"/>
   </g>
   <g id="patch_9">
    <path clip-path="url(#p721b0b01dc)" d="M 37.974909 200.06 
L 39.995273 200.06 
L 39.995273 199.784341 
L 37.974909 199.784341 
z
" style="fill:#1a1a1a;"/>
   </g>
   <g id="patch_10">
    <path clip-path="url(#p721b0b01dc)" d="M 39.995273 200.06 
L 42.015636 200.06 
L 42.015636 199.782884 
L 39.995273 199.782884 
z
" style="fill:#1a1a1a;"/>
   </g>
   <g id="patch_11">
    <path clip-path="url(#p721b0b01dc)" d="M 42.015636 200.06 
L 44.036 200.06 
L 44.036 199.775479 
L 42.015636 199.775479 
z
" style="fill:#1a1a1a;"/>
   </g>
   <g id="patch_12">
    <path clip-path="url(#p721b0b01dc)" d="M 44.036 200.06 
L 46.056364 200.06 
L 46.056364 199.771993 
L 44.036 199.771993 
z
" style="fill:#1a1a1a;"/>
   </g>
   <g id="patch_13">
    <path clip-path="url(#p721b0b01dc)" d="M 46.056364 200.06 
L 48.076727 200.06 
L 48.076727 199.77085 
L 46.056364 199.77085 
z
" style="fill:#1a1a1a;"/>
   </g>
   <g id="patch_14">
    <path clip-path="url(#p721b0b01dc)" d="M 48.076727 200.06 
L 50.097091 200.06 
L 50.097091 199.769476 
L 48.076727 199.769476 
z
" style="fill:#1a1a1a;"/>
   </g>
   <g id="patch_15">
    <path clip-path="url(#p721b0b01dc)" d="M 50.097091 200.06 
L 52.117455 200.06 
L 52.117455 199.764116 
L 50.097091 199.764116 
z
" style="fill:#1a1a1a;"/>
   </g>
   <g id="patch_16">
    <path clip-path="url(#p721b0b01dc)" d="M 52.117455 200.06 
L 54.137818 200.06 
L 54.137818 199.759739 
L 52.117455 199.759739 
z
" style="fill:#1a1a1a;"/>
   </g>
   <g id="patch_17">
    <path clip-path="url(#p721b0b01dc)" d="M 54.137818 200.06 
L 56.158182 200.06 
L 56.158182 199.753045 
L 54.137818 199.753045 
z
" style="fill:#1a1a1a;"/>
   </g>
   <g id="patch_18">
    <path clip-path="url(#p721b0b01dc)" d="M 56.158182 200.06 
L 58.178545 200.06 
L 58.178545 199.743964 
L 56.158182 199.743964 
z
" style="fill:#1a1a1a;"/>
   </g>
   <g id="patch_19">
    <path clip-path="url(#p721b0b01dc)" d="M 58.178545 200.06 
L 60.198909 200.06 
L 60.198909 199.737153 
L 58.178545 199.737153 
z
" style="fill:#1a1a1a;"/>
   </g>
   <g id="patch_20">
    <path clip-path="url(#p721b0b01dc)" d="M 60.198909 200.06 
L 62.219273 200.06 
L 62.219273 199.736227 
L 60.198909 199.736227 
z
" style="fill:#1a1a1a;"/>
   </g>
   <g id="patch_21">
    <path clip-path="url(#p721b0b01dc)" d="M 62.219273 200.06 
L 64.239636 200.06 
L 64.239636 199.731796 
L 62.219273 199.731796 
z
" style="fill:#1a1a1a;"/>
   </g>
   <g id="patch_22">
    <path clip-path="url(#p721b0b01dc)" d="M 64.239636 200.06 
L 66.26 200.06 
L 66.26 199.729461 
L 64.239636 199.729461 
z
" style="fill:#1a1a1a;"/>
   </g>
   <g id="patch_23">
    <path clip-path="url(#p721b0b01dc)" d="M 66.26 200.06 
L 68.280364 200.06 
L 68.280364 199.709976 
L 66.26 199.709976 
z
" style="fill:#1a1a1a;"/>
   </g>
   <g id="patch_24">
    <path clip-path="url(#p721b0b01dc)" d="M 68.280364 200.06 
L 70.300727 200.06 
L 70.300727 199.703431 
L 68.280364 199.703431 
z
" style="fill:#1a1a1a;"/>
   </g>
   <g id="patch_25">
    <path clip-path="url(#p721b0b01dc)" d="M 70.300727 200.06 
L 72.321091 200.06 
L 72.321091 199.697384 
L 70.300727 199.697384 
z
" style="fill:#1a1a1a;"/>
   </g>
   <g id="patch_26">
    <path clip-path="url(#p721b0b01dc)" d="M 72.321091 200.06 
L 74.341455 200.06 
L 74.341455 199.68966 
L 72.321091 199.68966 
z
" style="fill:#1a1a1a;"/>
   </g>
   <g id="patch_27">
    <path clip-path="url(#p721b0b01dc)" d="M 74.341455 200.06 
L 76.361818 200.06 
L 76.361818 199.675447 
L 74.341455 199.675447 
z
" style="fill:#1a1a1a;"/>
   </g>
   <g id="patch_28">
    <path clip-path="url(#p721b0b01dc)" d="M 76.361818 200.06 
L 78.382182 200.06 
L 78.382182 199.659488 
L 76.361818 199.659488 
z
" style="fill:#1a1a1a;"/>
   </g>
   <g id="patch_29">
    <path clip-path="url(#p721b0b01dc)" d="M 78.382182 200.06 
L 80.402545 200.06 
L 80.402545 199.651763 
L 78.382182 199.651763 
z
" style="fill:#1a1a1a;"/>
   </g>
   <g id="patch_30">
    <path clip-path="url(#p721b0b01dc)" d="M 80.402545 200.06 
L 82.422909 200.06 
L 82.422909 199.647585 
L 80.402545 199.647585 
z
" style="fill:#1a1a1a;"/>
   </g>
   <g id="patch_31">
    <path clip-path="url(#p721b0b01dc)" d="M 82.422909 200.06 
L 84.443273 200.06 
L 84.443273 199.629004 
L 82.422909 199.629004 
z
" style="fill:#1a1a1a;"/>
   </g>
   <g id="patch_32">
    <path clip-path="url(#p721b0b01dc)" d="M 84.443273 200.06 
L 86.463636 200.06 
L 86.463636 199.619288 
L 84.443273 199.619288 
z
" style="fill:#1a1a1a;"/>
   </g>
   <g id="patch_33">
    <path clip-path="url(#p721b0b01dc)" d="M 86.463636 200.06 
L 88.484 200.06 
L 88.484 199.600487 
L 86.463636 199.600487 
z
" style="fill:#1a1a1a;"/>
   </g>
   <g id="patch_34">
    <path clip-path="url(#p721b0b01dc)" d="M 88.484 200.06 
L 90.504364 200.06 
L 90.504364 199.582969 
L 88.484 199.582969 
z
" style="fill:#1a1a1a;"/>
   </g>
   <g id="patch_35">
    <path clip-path="url(#p721b0b01dc)" d="M 90.504364 200.06 
L 92.524727 200.06 
L 92.524727 199.580328 
L 90.504364 199.580328 
z
" style="fill:#1a1a1a;"/>
   </g>
   <g id="patch_36">
    <path clip-path="url(#p721b0b01dc)" d="M 92.524727 200.06 
L 94.545091 200.06 
L 94.545091 199.529108 
L 92.524727 199.529108 
z
" style="fill:#1a1a1a;"/>
   </g>
   <g id="patch_37">
    <path clip-path="url(#p721b0b01dc)" d="M 94.545091 200.06 
L 96.565455 200.06 
L 96.565455 199.512639 
L 94.545091 199.512639 
z
" style="fill:#1a1a1a;"/>
   </g>
   <g id="patch_38">
    <path clip-path="url(#p721b0b01dc)" d="M 96.565455 200.06 
L 98.585818 200.06 
L 98.585818 199.510068 
L 96.565455 199.510068 
z
" style="fill:#1a1a1a;"/>
   </g>
   <g id="patch_39">
    <path clip-path="url(#p721b0b01dc)" d="M 98.585818 200.06 
L 100.606182 200.06 
L 100.606182 199.482268 
L 98.585818 199.482268 
z
" style="fill:#1a1a1a;"/>
   </g>
   <g id="patch_40">
    <path clip-path="url(#p721b0b01dc)" d="M 100.606182 200.06 
L 102.626545 200.06 
L 102.626545 199.469561 
L 100.606182 199.469561 
z
" style="fill:#1a1a1a;"/>
   </g>
   <g id="patch_41">
    <path clip-path="url(#p721b0b01dc)" d="M 102.626545 200.06 
L 104.646909 200.06 
L 104.646909 199.455102 
L 102.626545 199.455102 
z
" style="fill:#1a1a1a;"/>
   </g>
   <g id="patch_42">
    <path clip-path="url(#p721b0b01dc)" d="M 104.646909 200.06 
L 106.667273 200.06 
L 106.667273 199.440671 
L 104.646909 199.440671 
z
" style="fill:#1a1a1a;"/>
   </g>
   <g id="patch_43">
    <path clip-path="url(#p721b0b01dc)" d="M 106.667273 200.06 
L 108.687636 200.06 
L 108.687636 199.382139 
L 106.667273 199.382139 
z
" style="fill:#1a1a1a;"/>
   </g>
   <g id="patch_44">
    <path clip-path="url(#p721b0b01dc)" d="M 108.687636 200.06 
L 110.708 200.06 
L 110.708 199.254808 
L 108.687636 199.254808 
z
" style="fill:#1a1a1a;"/>
   </g>
   <g id="patch_45">
    <path clip-path="url(#p721b0b01dc)" d="M 110.708 200.06 
L 112.728364 200.06 
L 112.728364 199.24441 
L 110.708 199.24441 
z
" style="fill:#1a1a1a;"/>
   </g>
   <g id="patch_46">
    <path clip-path="url(#p721b0b01dc)" d="M 112.728364 200.06 
L 114.748727 200.06 
L 114.748727 199.238857 
L 112.728364 199.238857 
z
" style="fill:#1a1a1a;"/>
   </g>
   <g id="patch_47">
    <path clip-path="url(#p721b0b01dc)" d="M 114.748727 200.06 
L 116.769091 200.06 
L 116.769091 199.185462 
L 114.748727 199.185462 
z
" style="fill:#1a1a1a;"/>
   </g>
   <g id="patch_48">
    <path clip-path="url(#p721b0b01dc)" d="M 116.769091 200.06 
L 118.789455 200.06 
L 118.789455 199.144214 
L 116.769091 199.144214 
z
" style="fill:#1a1a1a;"/>
   </g>
   <g id="patch_49">
    <path clip-path="url(#p721b0b01dc)" d="M 118.789455 200.06 
L 120.809818 200.06 
L 120.809818 199.127836 
L 118.789455 199.127836 
z
" style="fill:#1a1a1a;"/>
   </g>
   <g id="patch_50">
    <path clip-path="url(#p721b0b01dc)" d="M 120.809818 200.06 
L 122.830182 200.06 
L 122.830182 199.055619 
L 120.809818 199.055619 
z
" style="fill:#1a1a1a;"/>
   </g>
   <g id="patch_51">
    <path clip-path="url(#p721b0b01dc)" d="M 122.830182 200.06 
L 124.850545 200.06 
L 124.850545 199.037051 
L 122.830182 199.037051 
z
" style="fill:#1a1a1a;"/>
   </g>
   <g id="patch_52">
    <path clip-path="url(#p721b0b01dc)" d="M 124.850545 200.06 
L 126.870909 200.06 
L 126.870909 198.947963 
L 124.850545 198.947963 
z
" style="fill:#1a1a1a;"/>
   </g>
   <g id="patch_53">
    <path clip-path="url(#p721b0b01dc)" d="M 126.870909 200.06 
L 128.891273 200.06 
L 128.891273 198.801 
L 126.870909 198.801 
z
" style="fill:#1a1a1a;"/>
   </g>
   <g id="patch_54">
    <path clip-path="url(#p721b0b01dc)" d="M 128.891273 200.06 
L 130.911636 200.06 
L 130.911636 198.680166 
L 128.891273 198.680166 
z
" style="fill:#1a1a1a;"/>
   </g>
   <g id="patch_55">
    <path clip-path="url(#p721b0b01dc)" d="M 130.911636 200.06 
L 132.932 200.06 
L 132.932 198.390409 
L 130.911636 198.390409 
z
" style="fill:#1a1a1a;"/>
   </g>
   <g id="patch_56">
    <path clip-path="url(#p721b0b01dc)" d="M 132.932 200.06 
L 134.952364 200.06 
L 134.952364 198.208014 
L 132.932 198.208014 
z
" style="fill:#1a1a1a;"/>
   </g>
   <g id="patch_57">
    <path clip-path="url(#p721b0b01dc)" d="M 134.952364 200.06 
L 136.972727 200.06 
L 136.972727 197.513811 
L 134.952364 197.513811 
z
" style="fill:#1a1a1a;"/>
   </g>
   <g id="patch_58">
    <path clip-path="url(#p721b0b01dc)" d="M 136.972727 200.06 
L 138.993091 200.06 
L 138.993091 197.155516 
L 136.972727 197.155516 
z
" style="fill:#1a1a1a;"/>
   </g>
   <g id="patch_59">
    <path clip-path="url(#p721b0b01dc)" d="M 138.993091 200.06 
L 141.013455 200.06 
L 141.013455 196.67337 
L 138.993091 196.67337 
z
" style="fill:#1a1a1a;"/>
   </g>
   <g id="patch_60">
    <path clip-path="url(#p721b0b01dc)" d="M 141.013455 200.06 
L 143.033818 200.06 
L 143.033818 195.977111 
L 141.013455 195.977111 
z
" style="fill:#1a1a1a;"/>
   </g>
   <g id="patch_61">
    <path clip-path="url(#p721b0b01dc)" d="M 143.033818 200.06 
L 145.054182 200.06 
L 145.054182 195.117011 
L 143.033818 195.117011 
z
" style="fill:#1a1a1a;"/>
   </g>
   <g id="patch_62">
    <path clip-path="url(#p721b0b01dc)" d="M 145.054182 200.06 
L 147.074545 200.06 
L 147.074545 195.011279 
L 145.054182 195.011279 
z
" style="fill:#1a1a1a;"/>
   </g>
   <g id="patch_63">
    <path clip-path="url(#p721b0b01dc)" d="M 147.074545 200.06 
L 149.094909 200.06 
L 149.094909 194.021022 
L 147.074545 194.021022 
z
" style="fill:#1a1a1a;"/>
   </g>
   <g id="patch_64">
    <path clip-path="url(#p721b0b01dc)" d="M 149.094909 200.06 
L 151.115273 200.06 
L 151.115273 193.760792 
L 149.094909 193.760792 
z
" style="fill:#1a1a1a;"/>
   </g>
   <g id="patch_65">
    <path clip-path="url(#p721b0b01dc)" d="M 151.115273 200.06 
L 153.135636 200.06 
L 153.135636 191.408229 
L 151.115273 191.408229 
z
" style="fill:#1a1a1a;"/>
   </g>
   <g id="patch_66">
    <path clip-path="url(#p721b0b01dc)" d="M 153.135636 200.06 
L 155.156 200.06 
L 155.156 190.762715 
L 153.135636 190.762715 
z
" style="fill:#1a1a1a;"/>
   </g>
   <g id="patch_67">
    <path clip-path="url(#p721b0b01dc)" d="M 155.156 200.06 
L 157.176364 200.06 
L 157.176364 186.723082 
L 155.156 186.723082 
z
" style="fill:#1a1a1a;"/>
   </g>
   <g id="patch_68">
    <path clip-path="url(#p721b0b01dc)" d="M 157.176364 200.06 
L 159.196727 200.06 
L 159.196727 183.858981 
L 157.176364 183.858981 
z
" style="fill:#1a1a1a;"/>
   </g>
   <g id="patch_69">
    <path clip-path="url(#p721b0b01dc)" d="M 159.196727 200.06 
L 161.217091 200.06 
L 161.217091 181.23857 
L 159.196727 181.23857 
z
" style="fill:#1a1a1a;"/>
   </g>
   <g id="patch_70">
    <path clip-path="url(#p721b0b01dc)" d="M 161.217091 200.06 
L 163.237455 200.06 
L 163.237455 180.397483 
L 161.217091 180.397483 
z
" style="fill:#1a1a1a;"/>
   </g>
   <g id="patch_71">
    <path clip-path="url(#p721b0b01dc)" d="M 163.237455 200.06 
L 165.257818 200.06 
L 165.257818 175.495645 
L 163.237455 175.495645 
z
" style="fill:#1a1a1a;"/>
   </g>
   <g id="patch_72">
    <path clip-path="url(#p721b0b01dc)" d="M 165.257818 200.06 
L 167.278182 200.06 
L 167.278182 162.382747 
L 165.257818 162.382747 
z
" style="fill:#1a1a1a;"/>
   </g>
   <g id="patch_73">
    <path clip-path="url(#p721b0b01dc)" d="M 167.278182 200.06 
L 169.298545 200.06 
L 169.298545 153.399022 
L 167.278182 153.399022 
z
" style="fill:#1a1a1a;"/>
   </g>
   <g id="patch_74">
    <path clip-path="url(#p721b0b01dc)" d="M 169.298545 200.06 
L 171.318909 200.06 
L 171.318909 138.719218 
L 169.298545 138.719218 
z
" style="fill:#1a1a1a;"/>
   </g>
   <g id="patch_75">
    <path clip-path="url(#p721b0b01dc)" d="M 171.318909 200.06 
L 173.339273 200.06 
L 173.339273 137.412741 
L 171.318909 137.412741 
z
" style="fill:#1a1a1a;"/>
   </g>
   <g id="patch_76">
    <path clip-path="url(#p721b0b01dc)" d="M 173.339273 200.06 
L 175.359636 200.06 
L 175.359636 135.877508 
L 173.339273 135.877508 
z
" style="fill:#1a1a1a;"/>
   </g>
   <g id="patch_77">
    <path clip-path="url(#p721b0b01dc)" d="M 175.359636 200.06 
L 177.38 200.06 
L 177.38 134.533387 
L 175.359636 134.533387 
z
" style="fill:#1a1a1a;"/>
   </g>
   <g id="patch_78">
    <path clip-path="url(#p721b0b01dc)" d="M 177.38 200.06 
L 179.400364 200.06 
L 179.400364 97.847713 
L 177.38 97.847713 
z
" style="fill:#1a1a1a;"/>
   </g>
   <g id="patch_79">
    <path clip-path="url(#p721b0b01dc)" d="M 179.400364 200.06 
L 181.420727 200.06 
L 181.420727 135.724189 
L 179.400364 135.724189 
z
" style="fill:#1a1a1a;"/>
   </g>
   <g id="patch_80">
    <path clip-path="url(#p721b0b01dc)" d="M 181.420727 200.06 
L 183.441091 200.06 
L 183.441091 136.881877 
L 181.420727 136.881877 
z
" style="fill:#1a1a1a;"/>
   </g>
   <g id="patch_81">
    <path clip-path="url(#p721b0b01dc)" d="M 183.441091 200.06 
L 185.461455 200.06 
L 185.461455 137.417551 
L 183.441091 137.417551 
z
" style="fill:#1a1a1a;"/>
   </g>
   <g id="patch_82">
    <path clip-path="url(#p721b0b01dc)" d="M 185.461455 200.06 
L 187.481818 200.06 
L 187.481818 139.116127 
L 185.461455 139.116127 
z
" style="fill:#1a1a1a;"/>
   </g>
   <g id="patch_83">
    <path clip-path="url(#p721b0b01dc)" d="M 187.481818 200.06 
L 189.502182 200.06 
L 189.502182 160.218613 
L 187.481818 160.218613 
z
" style="fill:#1a1a1a;"/>
   </g>
   <g id="patch_84">
    <path clip-path="url(#p721b0b01dc)" d="M 189.502182 200.06 
L 191.522545 200.06 
L 191.522545 175.269841 
L 189.502182 175.269841 
z
" style="fill:#1a1a1a;"/>
   </g>
   <g id="patch_85">
    <path clip-path="url(#p721b0b01dc)" d="M 191.522545 200.06 
L 193.542909 200.06 
L 193.542909 176.055834 
L 191.522545 176.055834 
z
" style="fill:#1a1a1a;"/>
   </g>
   <g id="patch_86">
    <path clip-path="url(#p721b0b01dc)" d="M 193.542909 200.06 
L 195.563273 200.06 
L 195.563273 180.407439 
L 193.542909 180.407439 
z
" style="fill:#1a1a1a;"/>
   </g>
   <g id="patch_87">
    <path clip-path="url(#p721b0b01dc)" d="M 195.563273 200.06 
L 197.583636 200.06 
L 197.583636 182.014194 
L 195.563273 182.014194 
z
" style="fill:#1a1a1a;"/>
   </g>
   <g id="patch_88">
    <path clip-path="url(#p721b0b01dc)" d="M 197.583636 200.06 
L 199.604 200.06 
L 199.604 186.007082 
L 197.583636 186.007082 
z
" style="fill:#1a1a1a;"/>
   </g>
   <g id="patch_89">
    <path clip-path="url(#p721b0b01dc)" d="M 199.604 200.06 
L 201.624364 200.06 
L 201.624364 189.715105 
L 199.604 189.715105 
z
" style="fill:#1a1a1a;"/>
   </g>
   <g id="patch_90">
    <path clip-path="url(#p721b0b01dc)" d="M 201.624364 200.06 
L 203.644727 200.06 
L 203.644727 190.888716 
L 201.624364 190.888716 
z
" style="fill:#1a1a1a;"/>
   </g>
   <g id="patch_91">
    <path clip-path="url(#p721b0b01dc)" d="M 203.644727 200.06 
L 205.665091 200.06 
L 205.665091 193.097817 
L 203.644727 193.097817 
z
" style="fill:#1a1a1a;"/>
   </g>
   <g id="patch_92">
    <path clip-path="url(#p721b0b01dc)" d="M 205.665091 200.06 
L 207.685455 200.06 
L 207.685455 193.800517 
L 205.665091 193.800517 
z
" style="fill:#1a1a1a;"/>
   </g>
   <g id="patch_93">
    <path clip-path="url(#p721b0b01dc)" d="M 207.685455 200.06 
L 209.705818 200.06 
L 209.705818 194.482629 
L 207.685455 194.482629 
z
" style="fill:#1a1a1a;"/>
   </g>
   <g id="patch_94">
    <path clip-path="url(#p721b0b01dc)" d="M 209.705818 200.06 
L 211.726182 200.06 
L 211.726182 195.018154 
L 209.705818 195.018154 
z
" style="fill:#1a1a1a;"/>
   </g>
   <g id="patch_95">
    <path clip-path="url(#p721b0b01dc)" d="M 211.726182 200.06 
L 213.746545 200.06 
L 213.746545 195.671731 
L 211.726182 195.671731 
z
" style="fill:#1a1a1a;"/>
   </g>
   <g id="patch_96">
    <path clip-path="url(#p721b0b01dc)" d="M 213.746545 200.06 
L 215.766909 200.06 
L 215.766909 196.388279 
L 213.746545 196.388279 
z
" style="fill:#1a1a1a;"/>
   </g>
   <g id="patch_97">
    <path clip-path="url(#p721b0b01dc)" d="M 215.766909 200.06 
L 217.787273 200.06 
L 217.787273 197.079676 
L 215.766909 197.079676 
z
" style="fill:#1a1a1a;"/>
   </g>
   <g id="patch_98">
    <path clip-path="url(#p721b0b01dc)" d="M 217.787273 200.06 
L 219.807636 200.06 
L 219.807636 197.409743 
L 217.787273 197.409743 
z
" style="fill:#1a1a1a;"/>
   </g>
   <g id="patch_99">
    <path clip-path="url(#p721b0b01dc)" d="M 219.807636 200.06 
L 221.828 200.06 
L 221.828 198.021247 
L 219.807636 198.021247 
z
" style="fill:#1a1a1a;"/>
   </g>
   <g id="patch_100">
    <path clip-path="url(#p721b0b01dc)" d="M 221.828 200.06 
L 223.848364 200.06 
L 223.848364 198.38571 
L 221.828 198.38571 
z
" style="fill:#1a1a1a;"/>
   </g>
   <g id="patch_101">
    <path clip-path="url(#p721b0b01dc)" d="M 223.848364 200.06 
L 225.868727 200.06 
L 225.868727 198.579529 
L 223.848364 198.579529 
z
" style="fill:#1a1a1a;"/>
   </g>
   <g id="patch_102">
    <path clip-path="url(#p721b0b01dc)" d="M 225.868727 200.06 
L 227.889091 200.06 
L 227.889091 198.787385 
L 225.868727 198.787385 
z
" style="fill:#1a1a1a;"/>
   </g>
   <g id="patch_103">
    <path clip-path="url(#p721b0b01dc)" d="M 227.889091 200.06 
L 229.909455 200.06 
L 229.909455 198.928451 
L 227.889091 198.928451 
z
" style="fill:#1a1a1a;"/>
   </g>
   <g id="patch_104">
    <path clip-path="url(#p721b0b01dc)" d="M 229.909455 200.06 
L 231.929818 200.06 
L 231.929818 199.027607 
L 229.909455 199.027607 
z
" style="fill:#1a1a1a;"/>
   </g>
   <g id="patch_105">
    <path clip-path="url(#p721b0b01dc)" d="M 231.929818 200.06 
L 233.950182 200.06 
L 233.950182 199.045042 
L 231.929818 199.045042 
z
" style="fill:#1a1a1a;"/>
   </g>
   <g id="patch_106">
    <path clip-path="url(#p721b0b01dc)" d="M 233.950182 200.06 
L 235.970545 200.06 
L 235.970545 199.065157 
L 233.950182 199.065157 
z
" style="fill:#1a1a1a;"/>
   </g>
   <g id="patch_107">
    <path clip-path="url(#p721b0b01dc)" d="M 235.970545 200.06 
L 237.990909 200.06 
L 237.990909 199.12909 
L 235.970545 199.12909 
z
" style="fill:#1a1a1a;"/>
   </g>
   <g id="patch_108">
    <path clip-path="url(#p721b0b01dc)" d="M 237.990909 200.06 
L 240.011273 200.06 
L 240.011273 199.178464 
L 237.990909 199.178464 
z
" style="fill:#1a1a1a;"/>
   </g>
   <g id="patch_109">
    <path clip-path="url(#p721b0b01dc)" d="M 240.011273 200.06 
L 242.031636 200.06 
L 242.031636 199.223698 
L 240.011273 199.223698 
z
" style="fill:#1a1a1a;"/>
   </g>
   <g id="patch_110">
    <path clip-path="url(#p721b0b01dc)" d="M 242.031636 200.06 
L 244.052 200.06 
L 244.052 199.241138 
L 242.031636 199.241138 
z
" style="fill:#1a1a1a;"/>
   </g>
   <g id="patch_111">
    <path clip-path="url(#p721b0b01dc)" d="M 244.052 200.06 
L 246.072364 200.06 
L 246.072364 199.253577 
L 244.052 199.253577 
z
" style="fill:#1a1a1a;"/>
   </g>
   <g id="patch_112">
    <path clip-path="url(#p721b0b01dc)" d="M 246.072364 200.06 
L 248.092727 200.06 
L 248.092727 199.346657 
L 246.072364 199.346657 
z
" style="fill:#1a1a1a;"/>
   </g>
   <g id="patch_113">
    <path clip-path="url(#p721b0b01dc)" d="M 248.092727 200.06 
L 250.113091 200.06 
L 250.113091 199.428234 
L 248.092727 199.428234 
z
" style="fill:#1a1a1a;"/>
   </g>
   <g id="patch_114">
    <path clip-path="url(#p721b0b01dc)" d="M 250.113091 200.06 
L 252.133455 200.06 
L 252.133455 199.446701 
L 250.113091 199.446701 
z
" style="fill:#1a1a1a;"/>
   </g>
   <g id="patch_115">
    <path clip-path="url(#p721b0b01dc)" d="M 252.133455 200.06 
L 254.153818 200.06 
L 254.153818 199.468757 
L 252.133455 199.468757 
z
" style="fill:#1a1a1a;"/>
   </g>
   <g id="patch_116">
    <path clip-path="url(#p721b0b01dc)" d="M 254.153818 200.06 
L 256.174182 200.06 
L 256.174182 199.47755 
L 254.153818 199.47755 
z
" style="fill:#1a1a1a;"/>
   </g>
   <g id="patch_117">
    <path clip-path="url(#p721b0b01dc)" d="M 256.174182 200.06 
L 258.194545 200.06 
L 258.194545 199.498265 
L 256.174182 199.498265 
z
" style="fill:#1a1a1a;"/>
   </g>
   <g id="patch_118">
    <path clip-path="url(#p721b0b01dc)" d="M 258.194545 200.06 
L 260.214909 200.06 
L 260.214909 199.510146 
L 258.194545 199.510146 
z
" style="fill:#1a1a1a;"/>
   </g>
   <g id="patch_119">
    <path clip-path="url(#p721b0b01dc)" d="M 260.214909 200.06 
L 262.235273 200.06 
L 262.235273 199.520569 
L 260.214909 199.520569 
z
" style="fill:#1a1a1a;"/>
   </g>
   <g id="patch_120">
    <path clip-path="url(#p721b0b01dc)" d="M 262.235273 200.06 
L 264.255636 200.06 
L 264.255636 199.572316 
L 262.235273 199.572316 
z
" style="fill:#1a1a1a;"/>
   </g>
   <g id="patch_121">
    <path clip-path="url(#p721b0b01dc)" d="M 264.255636 200.06 
L 266.276 200.06 
L 266.276 199.581881 
L 264.255636 199.581881 
z
" style="fill:#1a1a1a;"/>
   </g>
   <g id="patch_122">
    <path clip-path="url(#p721b0b01dc)" d="M 266.276 200.06 
L 268.296364 200.06 
L 268.296364 199.58864 
L 266.276 199.58864 
z
" style="fill:#1a1a1a;"/>
   </g>
   <g id="patch_123">
    <path clip-path="url(#p721b0b01dc)" d="M 268.296364 200.06 
L 270.316727 200.06 
L 270.316727 199.605121 
L 268.296364 199.605121 
z
" style="fill:#1a1a1a;"/>
   </g>
   <g id="patch_124">
    <path clip-path="url(#p721b0b01dc)" d="M 270.316727 200.06 
L 272.337091 200.06 
L 272.337091 199.624709 
L 270.316727 199.624709 
z
" style="fill:#1a1a1a;"/>
   </g>
   <g id="patch_125">
    <path clip-path="url(#p721b0b01dc)" d="M 272.337091 200.06 
L 274.357455 200.06 
L 274.357455 199.640983 
L 272.337091 199.640983 
z
" style="fill:#1a1a1a;"/>
   </g>
   <g id="patch_126">
    <path clip-path="url(#p721b0b01dc)" d="M 274.357455 200.06 
L 276.377818 200.06 
L 276.377818 199.651004 
L 274.357455 199.651004 
z
" style="fill:#1a1a1a;"/>
   </g>
   <g id="patch_127">
    <path clip-path="url(#p721b0b01dc)" d="M 276.377818 200.06 
L 278.398182 200.06 
L 278.398182 199.6571 
L 276.377818 199.6571 
z
" style="fill:#1a1a1a;"/>
   </g>
   <g id="patch_128">
    <path clip-path="url(#p721b0b01dc)" d="M 278.398182 200.06 
L 280.418545 200.06 
L 280.418545 199.660819 
L 278.398182 199.660819 
z
" style="fill:#1a1a1a;"/>
   </g>
   <g id="patch_129">
    <path clip-path="url(#p721b0b01dc)" d="M 280.418545 200.06 
L 282.438909 200.06 
L 282.438909 199.682843 
L 280.418545 199.682843 
z
" style="fill:#1a1a1a;"/>
   </g>
   <g id="patch_130">
    <path clip-path="url(#p721b0b01dc)" d="M 282.438909 200.06 
L 284.459273 200.06 
L 284.459273 199.694311 
L 282.438909 199.694311 
z
" style="fill:#1a1a1a;"/>
   </g>
   <g id="patch_131">
    <path clip-path="url(#p721b0b01dc)" d="M 284.459273 200.06 
L 286.479636 200.06 
L 286.479636 199.703103 
L 284.459273 199.703103 
z
" style="fill:#1a1a1a;"/>
   </g>
   <g id="patch_132">
    <path clip-path="url(#p721b0b01dc)" d="M 286.479636 200.06 
L 288.5 200.06 
L 288.5 199.705498 
L 286.479636 199.705498 
z
" style="fill:#1a1a1a;"/>
   </g>
   <g id="patch_133">
    <path clip-path="url(#p721b0b01dc)" d="M 288.5 200.06 
L 290.520364 200.06 
L 290.520364 199.722079 
L 288.5 199.722079 
z
" style="fill:#1a1a1a;"/>
   </g>
   <g id="patch_134">
    <path clip-path="url(#p721b0b01dc)" d="M 290.520364 200.06 
L 292.540727 200.06 
L 292.540727 199.730898 
L 290.520364 199.730898 
z
" style="fill:#1a1a1a;"/>
   </g>
   <g id="patch_135">
    <path clip-path="url(#p721b0b01dc)" d="M 292.540727 200.06 
L 294.561091 200.06 
L 294.561091 199.735884 
L 292.540727 199.735884 
z
" style="fill:#1a1a1a;"/>
   </g>
   <g id="patch_136">
    <path clip-path="url(#p721b0b01dc)" d="M 294.561091 200.06 
L 296.581455 200.06 
L 296.581455 199.736692 
L 294.561091 199.736692 
z
" style="fill:#1a1a1a;"/>
   </g>
   <g id="patch_137">
    <path clip-path="url(#p721b0b01dc)" d="M 296.581455 200.06 
L 298.601818 200.06 
L 298.601818 199.740838 
L 296.581455 199.740838 
z
" style="fill:#1a1a1a;"/>
   </g>
   <g id="patch_138">
    <path clip-path="url(#p721b0b01dc)" d="M 298.601818 200.06 
L 300.622182 200.06 
L 300.622182 199.745238 
L 298.601818 199.745238 
z
" style="fill:#1a1a1a;"/>
   </g>
   <g id="patch_139">
    <path clip-path="url(#p721b0b01dc)" d="M 300.622182 200.06 
L 302.642545 200.06 
L 302.642545 199.757612 
L 300.622182 199.757612 
z
" style="fill:#1a1a1a;"/>
   </g>
   <g id="patch_140">
    <path clip-path="url(#p721b0b01dc)" d="M 302.642545 200.06 
L 304.662909 200.06 
L 304.662909 199.763386 
L 302.642545 199.763386 
z
" style="fill:#1a1a1a;"/>
   </g>
   <g id="patch_141">
    <path clip-path="url(#p721b0b01dc)" d="M 304.662909 200.06 
L 306.683273 200.06 
L 306.683273 199.766564 
L 304.662909 199.766564 
z
" style="fill:#1a1a1a;"/>
   </g>
   <g id="patch_142">
    <path clip-path="url(#p721b0b01dc)" d="M 306.683273 200.06 
L 308.703636 200.06 
L 308.703636 199.770799 
L 306.683273 199.770799 
z
" style="fill:#1a1a1a;"/>
   </g>
   <g id="patch_143">
    <path clip-path="url(#p721b0b01dc)" d="M 308.703636 200.06 
L 310.724 200.06 
L 310.724 199.771328 
L 308.703636 199.771328 
z
" style="fill:#1a1a1a;"/>
   </g>
   <g id="patch_144">
    <path clip-path="url(#p721b0b01dc)" d="M 310.724 200.06 
L 312.744364 200.06 
L 312.744364 199.774818 
L 310.724 199.774818 
z
" style="fill:#1a1a1a;"/>
   </g>
   <g id="patch_145">
    <path clip-path="url(#p721b0b01dc)" d="M 312.744364 200.06 
L 314.764727 200.06 
L 314.764727 199.780132 
L 312.744364 199.780132 
z
" style="fill:#1a1a1a;"/>
   </g>
   <g id="patch_146">
    <path clip-path="url(#p721b0b01dc)" d="M 314.764727 200.06 
L 316.785091 200.06 
L 316.785091 199.783612 
L 314.764727 199.783612 
z
" style="fill:#1a1a1a;"/>
   </g>
   <g id="patch_147">
    <path clip-path="url(#p721b0b01dc)" d="M 316.785091 200.06 
L 318.805455 200.06 
L 318.805455 199.787162 
L 316.785091 199.787162 
z
" style="fill:#1a1a1a;"/>
   </g>
   <g id="patch_148">
    <path clip-path="url(#p721b0b01dc)" d="M 318.805455 200.06 
L 320.825818 200.06 
L 320.825818 199.791415 
L 318.805455 199.791415 
z
" style="fill:#1a1a1a;"/>
   </g>
   <g id="patch_149">
    <path clip-path="url(#p721b0b01dc)" d="M 320.825818 200.06 
L 322.846182 200.06 
L 322.846182 199.795036 
L 320.825818 199.795036 
z
" style="fill:#1a1a1a;"/>
   </g>
   <g id="patch_150">
    <path clip-path="url(#p721b0b01dc)" d="M 322.846182 200.06 
L 324.866545 200.06 
L 324.866545 199.796458 
L 322.846182 199.796458 
z
" style="fill:#1a1a1a;"/>
   </g>
   <g id="patch_151">
    <path clip-path="url(#p721b0b01dc)" d="M 324.866545 200.06 
L 326.886909 200.06 
L 326.886909 199.802532 
L 324.866545 199.802532 
z
" style="fill:#1a1a1a;"/>
   </g>
   <g id="patch_152">
    <path clip-path="url(#p721b0b01dc)" d="M 326.886909 200.06 
L 328.907273 200.06 
L 328.907273 199.807551 
L 326.886909 199.807551 
z
" style="fill:#1a1a1a;"/>
   </g>
   <g id="matplotlib.axis_1"/>
   <g id="matplotlib.axis_2"/>
   <g id="patch_153">
    <path d="M 10.7 200.06 
L 10.7 10.7 
" style="fill:none;stroke:#000000;stroke-linecap:square;stroke-linejoin:miter;stroke-width:0.8;"/>
   </g>
   <g id="patch_154">
    <path d="M 344.06 200.06 
L 344.06 10.7 
" style="fill:none;stroke:#000000;stroke-linecap:square;stroke-linejoin:miter;stroke-width:0.8;"/>
   </g>
   <g id="patch_155">
    <path d="M 10.7 200.06 
L 344.06 200.06 
" style="fill:none;stroke:#000000;stroke-linecap:square;stroke-linejoin:miter;stroke-width:0.8;"/>
   </g>
   <g id="patch_156">
    <path d="M 10.7 10.7 
L 344.06 10.7 
" style="fill:none;stroke:#000000;stroke-linecap:square;stroke-linejoin:miter;stroke-width:0.8;"/>
   </g>
  </g>
 </g>
 <defs>
  <clipPath id="p721b0b01dc">
   <rect height="189.36" width="333.36" x="10.7" y="10.7"/>
  </clipPath>
 </defs>
</svg>
