<?xml version="1.0" encoding="utf-8" standalone="no"?>
<!DOCTYPE svg PUBLIC "-//W3C//DTD SVG 1.1//EN"
  "http://www.w3.org/Graphics/SVG/1.1/DTD/svg11.dtd">
<!-- Created with matplotlib (http://matplotlib.org/) -->
<svg height="210pt" version="1.1" viewBox="0 0 354 210" width="354pt" xmlns="http://www.w3.org/2000/svg" xmlns:xlink="http://www.w3.org/1999/xlink">
 <defs>
  <style type="text/css">
*{stroke-linecap:butt;stroke-linejoin:round;}
  </style>
 </defs>
 <g id="figure_1">
  <g id="patch_1">
   <path d="M 0 210.76 
L 354.76 210.76 
L 354.76 0 
L 0 0 
z
" style="fill:#ffffff;"/>
  </g>
  <g id="axes_1">
   <g id="patch_2">
    <path d="M 10.7 200.06 
L 344.06 200.06 
L 344.06 10.7 
L 10.7 10.7 
z
" style="fill:#ffffff;"/>
   </g>
   <g id="patch_3">
    <path clip-path="url(#p05b2f38ecf)" d="M 25.852727 200.06 
L 27.873091 200.06 
L 27.873091 183.1266 
L 25.852727 183.1266 
z
" style="fill:#1a1a1a;"/>
   </g>
   <g id="patch_4">
    <path clip-path="url(#p05b2f38ecf)" d="M 27.873091 200.06 
L 29.893455 200.06 
L 29.893455 182.633373 
L 27.873091 182.633373 
z
" style="fill:#1a1a1a;"/>
   </g>
   <g id="patch_5">
    <path clip-path="url(#p05b2f38ecf)" d="M 29.893455 200.06 
L 31.913818 200.06 
L 31.913818 182.423291 
L 29.893455 182.423291 
z
" style="fill:#1a1a1a;"/>
   </g>
   <g id="patch_6">
    <path clip-path="url(#p05b2f38ecf)" d="M 31.913818 200.06 
L 33.934182 200.06 
L 33.934182 181.598963 
L 31.913818 181.598963 
z
" style="fill:#1a1a1a;"/>
   </g>
   <g id="patch_7">
    <path clip-path="url(#p05b2f38ecf)" d="M 33.934182 200.06 
L 35.954545 200.06 
L 35.954545 181.032446 
L 33.934182 181.032446 
z
" style="fill:#1a1a1a;"/>
   </g>
   <g id="patch_8">
    <path clip-path="url(#p05b2f38ecf)" d="M 35.954545 200.06 
L 37.974909 200.06 
L 37.974909 180.429372 
L 35.954545 180.429372 
z
" style="fill:#1a1a1a;"/>
   </g>
   <g id="patch_9">
    <path clip-path="url(#p05b2f38ecf)" d="M 37.974909 200.06 
L 39.995273 200.06 
L 39.995273 179.699796 
L 37.974909 179.699796 
z
" style="fill:#1a1a1a;"/>
   </g>
   <g id="patch_10">
    <path clip-path="url(#p05b2f38ecf)" d="M 39.995273 200.06 
L 42.015636 200.06 
L 42.015636 179.210199 
L 39.995273 179.210199 
z
" style="fill:#1a1a1a;"/>
   </g>
   <g id="patch_11">
    <path clip-path="url(#p05b2f38ecf)" d="M 42.015636 200.06 
L 44.036 200.06 
L 44.036 178.300197 
L 42.015636 178.300197 
z
" style="fill:#1a1a1a;"/>
   </g>
   <g id="patch_12">
    <path clip-path="url(#p05b2f38ecf)" d="M 44.036 200.06 
L 46.056364 200.06 
L 46.056364 178.127892 
L 44.036 178.127892 
z
" style="fill:#1a1a1a;"/>
   </g>
   <g id="patch_13">
    <path clip-path="url(#p05b2f38ecf)" d="M 46.056364 200.06 
L 48.076727 200.06 
L 48.076727 177.260559 
L 46.056364 177.260559 
z
" style="fill:#1a1a1a;"/>
   </g>
   <g id="patch_14">
    <path clip-path="url(#p05b2f38ecf)" d="M 48.076727 200.06 
L 50.097091 200.06 
L 50.097091 176.797416 
L 48.076727 176.797416 
z
" style="fill:#1a1a1a;"/>
   </g>
   <g id="patch_15">
    <path clip-path="url(#p05b2f38ecf)" d="M 50.097091 200.06 
L 52.117455 200.06 
L 52.117455 175.716627 
L 50.097091 175.716627 
z
" style="fill:#1a1a1a;"/>
   </g>
   <g id="patch_16">
    <path clip-path="url(#p05b2f38ecf)" d="M 52.117455 200.06 
L 54.137818 200.06 
L 54.137818 175.588661 
L 52.117455 175.588661 
z
" style="fill:#1a1a1a;"/>
   </g>
   <g id="patch_17">
    <path clip-path="url(#p05b2f38ecf)" d="M 54.137818 200.06 
L 56.158182 200.06 
L 56.158182 175.48576 
L 54.137818 175.48576 
z
" style="fill:#1a1a1a;"/>
   </g>
   <g id="patch_18">
    <path clip-path="url(#p05b2f38ecf)" d="M 56.158182 200.06 
L 58.178545 200.06 
L 58.178545 175.12965 
L 56.158182 175.12965 
z
" style="fill:#1a1a1a;"/>
   </g>
   <g id="patch_19">
    <path clip-path="url(#p05b2f38ecf)" d="M 58.178545 200.06 
L 60.198909 200.06 
L 60.198909 174.508544 
L 58.178545 174.508544 
z
" style="fill:#1a1a1a;"/>
   </g>
   <g id="patch_20">
    <path clip-path="url(#p05b2f38ecf)" d="M 60.198909 200.06 
L 62.219273 200.06 
L 62.219273 174.127686 
L 60.198909 174.127686 
z
" style="fill:#1a1a1a;"/>
   </g>
   <g id="patch_21">
    <path clip-path="url(#p05b2f38ecf)" d="M 62.219273 200.06 
L 64.239636 200.06 
L 64.239636 171.594267 
L 62.219273 171.594267 
z
" style="fill:#1a1a1a;"/>
   </g>
   <g id="patch_22">
    <path clip-path="url(#p05b2f38ecf)" d="M 64.239636 200.06 
L 66.26 200.06 
L 66.26 169.610714 
L 64.239636 169.610714 
z
" style="fill:#1a1a1a;"/>
   </g>
   <g id="patch_23">
    <path clip-path="url(#p05b2f38ecf)" d="M 66.26 200.06 
L 68.280364 200.06 
L 68.280364 168.64681 
L 66.26 168.64681 
z
" style="fill:#1a1a1a;"/>
   </g>
   <g id="patch_24">
    <path clip-path="url(#p05b2f38ecf)" d="M 68.280364 200.06 
L 70.300727 200.06 
L 70.300727 167.831275 
L 68.280364 167.831275 
z
" style="fill:#1a1a1a;"/>
   </g>
   <g id="patch_25">
    <path clip-path="url(#p05b2f38ecf)" d="M 70.300727 200.06 
L 72.321091 200.06 
L 72.321091 165.833886 
L 70.300727 165.833886 
z
" style="fill:#1a1a1a;"/>
   </g>
   <g id="patch_26">
    <path clip-path="url(#p05b2f38ecf)" d="M 72.321091 200.06 
L 74.341455 200.06 
L 74.341455 165.704855 
L 72.321091 165.704855 
z
" style="fill:#1a1a1a;"/>
   </g>
   <g id="patch_27">
    <path clip-path="url(#p05b2f38ecf)" d="M 74.341455 200.06 
L 76.361818 200.06 
L 76.361818 163.810642 
L 74.341455 163.810642 
z
" style="fill:#1a1a1a;"/>
   </g>
   <g id="patch_28">
    <path clip-path="url(#p05b2f38ecf)" d="M 76.361818 200.06 
L 78.382182 200.06 
L 78.382182 161.507213 
L 76.361818 161.507213 
z
" style="fill:#1a1a1a;"/>
   </g>
   <g id="patch_29">
    <path clip-path="url(#p05b2f38ecf)" d="M 78.382182 200.06 
L 80.402545 200.06 
L 80.402545 160.786316 
L 78.382182 160.786316 
z
" style="fill:#1a1a1a;"/>
   </g>
   <g id="patch_30">
    <path clip-path="url(#p05b2f38ecf)" d="M 80.402545 200.06 
L 82.422909 200.06 
L 82.422909 159.848158 
L 80.402545 159.848158 
z
" style="fill:#1a1a1a;"/>
   </g>
   <g id="patch_31">
    <path clip-path="url(#p05b2f38ecf)" d="M 82.422909 200.06 
L 84.443273 200.06 
L 84.443273 157.326879 
L 82.422909 157.326879 
z
" style="fill:#1a1a1a;"/>
   </g>
   <g id="patch_32">
    <path clip-path="url(#p05b2f38ecf)" d="M 84.443273 200.06 
L 86.463636 200.06 
L 86.463636 154.053731 
L 84.443273 154.053731 
z
" style="fill:#1a1a1a;"/>
   </g>
   <g id="patch_33">
    <path clip-path="url(#p05b2f38ecf)" d="M 86.463636 200.06 
L 88.484 200.06 
L 88.484 152.449667 
L 86.463636 152.449667 
z
" style="fill:#1a1a1a;"/>
   </g>
   <g id="patch_34">
    <path clip-path="url(#p05b2f38ecf)" d="M 88.484 200.06 
L 90.504364 200.06 
L 90.504364 147.513867 
L 88.484 147.513867 
z
" style="fill:#1a1a1a;"/>
   </g>
   <g id="patch_35">
    <path clip-path="url(#p05b2f38ecf)" d="M 90.504364 200.06 
L 92.524727 200.06 
L 92.524727 147.132658 
L 90.504364 147.132658 
z
" style="fill:#1a1a1a;"/>
   </g>
   <g id="patch_36">
    <path clip-path="url(#p05b2f38ecf)" d="M 92.524727 200.06 
L 94.545091 200.06 
L 94.545091 146.393702 
L 92.524727 146.393702 
z
" style="fill:#1a1a1a;"/>
   </g>
   <g id="patch_37">
    <path clip-path="url(#p05b2f38ecf)" d="M 94.545091 200.06 
L 96.565455 200.06 
L 96.565455 137.696896 
L 94.545091 137.696896 
z
" style="fill:#1a1a1a;"/>
   </g>
   <g id="patch_38">
    <path clip-path="url(#p05b2f38ecf)" d="M 96.565455 200.06 
L 98.585818 200.06 
L 98.585818 134.724203 
L 96.565455 134.724203 
z
" style="fill:#1a1a1a;"/>
   </g>
   <g id="patch_39">
    <path clip-path="url(#p05b2f38ecf)" d="M 98.585818 200.06 
L 100.606182 200.06 
L 100.606182 132.636718 
L 98.585818 132.636718 
z
" style="fill:#1a1a1a;"/>
   </g>
   <g id="patch_40">
    <path clip-path="url(#p05b2f38ecf)" d="M 100.606182 200.06 
L 102.626545 200.06 
L 102.626545 130.556523 
L 100.606182 130.556523 
z
" style="fill:#1a1a1a;"/>
   </g>
   <g id="patch_41">
    <path clip-path="url(#p05b2f38ecf)" d="M 102.626545 200.06 
L 104.646909 200.06 
L 104.646909 129.407389 
L 102.626545 129.407389 
z
" style="fill:#1a1a1a;"/>
   </g>
   <g id="patch_42">
    <path clip-path="url(#p05b2f38ecf)" d="M 104.646909 200.06 
L 106.667273 200.06 
L 106.667273 124.765603 
L 104.646909 124.765603 
z
" style="fill:#1a1a1a;"/>
   </g>
   <g id="patch_43">
    <path clip-path="url(#p05b2f38ecf)" d="M 106.667273 200.06 
L 108.687636 200.06 
L 108.687636 120.649262 
L 106.667273 120.649262 
z
" style="fill:#1a1a1a;"/>
   </g>
   <g id="patch_44">
    <path clip-path="url(#p05b2f38ecf)" d="M 108.687636 200.06 
L 110.708 200.06 
L 110.708 113.249931 
L 108.687636 113.249931 
z
" style="fill:#1a1a1a;"/>
   </g>
   <g id="patch_45">
    <path clip-path="url(#p05b2f38ecf)" d="M 110.708 200.06 
L 112.728364 200.06 
L 112.728364 108.073277 
L 110.708 108.073277 
z
" style="fill:#1a1a1a;"/>
   </g>
   <g id="patch_46">
    <path clip-path="url(#p05b2f38ecf)" d="M 112.728364 200.06 
L 114.748727 200.06 
L 114.748727 107.542508 
L 112.728364 107.542508 
z
" style="fill:#1a1a1a;"/>
   </g>
   <g id="patch_47">
    <path clip-path="url(#p05b2f38ecf)" d="M 114.748727 200.06 
L 116.769091 200.06 
L 116.769091 103.708081 
L 114.748727 103.708081 
z
" style="fill:#1a1a1a;"/>
   </g>
   <g id="patch_48">
    <path clip-path="url(#p05b2f38ecf)" d="M 116.769091 200.06 
L 118.789455 200.06 
L 118.789455 97.838872 
L 116.769091 97.838872 
z
" style="fill:#1a1a1a;"/>
   </g>
   <g id="patch_49">
    <path clip-path="url(#p05b2f38ecf)" d="M 118.789455 200.06 
L 120.809818 200.06 
L 120.809818 92.545085 
L 118.789455 92.545085 
z
" style="fill:#1a1a1a;"/>
   </g>
   <g id="patch_50">
    <path clip-path="url(#p05b2f38ecf)" d="M 120.809818 200.06 
L 122.830182 200.06 
L 122.830182 84.113659 
L 120.809818 84.113659 
z
" style="fill:#1a1a1a;"/>
   </g>
   <g id="patch_51">
    <path clip-path="url(#p05b2f38ecf)" d="M 122.830182 200.06 
L 124.850545 200.06 
L 124.850545 82.982357 
L 122.830182 82.982357 
z
" style="fill:#1a1a1a;"/>
   </g>
   <g id="patch_52">
    <path clip-path="url(#p05b2f38ecf)" d="M 124.850545 200.06 
L 126.870909 200.06 
L 126.870909 77.674614 
L 124.850545 77.674614 
z
" style="fill:#1a1a1a;"/>
   </g>
   <g id="patch_53">
    <path clip-path="url(#p05b2f38ecf)" d="M 126.870909 200.06 
L 128.891273 200.06 
L 128.891273 73.626039 
L 126.870909 73.626039 
z
" style="fill:#1a1a1a;"/>
   </g>
   <g id="patch_54">
    <path clip-path="url(#p05b2f38ecf)" d="M 128.891273 200.06 
L 130.911636 200.06 
L 130.911636 70.557421 
L 128.891273 70.557421 
z
" style="fill:#1a1a1a;"/>
   </g>
   <g id="patch_55">
    <path clip-path="url(#p05b2f38ecf)" d="M 130.911636 200.06 
L 132.932 200.06 
L 132.932 63.829017 
L 130.911636 63.829017 
z
" style="fill:#1a1a1a;"/>
   </g>
   <g id="patch_56">
    <path clip-path="url(#p05b2f38ecf)" d="M 132.932 200.06 
L 134.952364 200.06 
L 134.952364 46.0306 
L 132.932 46.0306 
z
" style="fill:#1a1a1a;"/>
   </g>
   <g id="patch_57">
    <path clip-path="url(#p05b2f38ecf)" d="M 134.952364 200.06 
L 136.972727 200.06 
L 136.972727 41.859291 
L 134.952364 41.859291 
z
" style="fill:#1a1a1a;"/>
   </g>
   <g id="patch_58">
    <path clip-path="url(#p05b2f38ecf)" d="M 136.972727 200.06 
L 138.993091 200.06 
L 138.993091 39.620921 
L 136.972727 39.620921 
z
" style="fill:#1a1a1a;"/>
   </g>
   <g id="patch_59">
    <path clip-path="url(#p05b2f38ecf)" d="M 138.993091 200.06 
L 141.013455 200.06 
L 141.013455 34.293984 
L 138.993091 34.293984 
z
" style="fill:#1a1a1a;"/>
   </g>
   <g id="patch_60">
    <path clip-path="url(#p05b2f38ecf)" d="M 141.013455 200.06 
L 143.033818 200.06 
L 143.033818 31.84348 
L 141.013455 31.84348 
z
" style="fill:#1a1a1a;"/>
   </g>
   <g id="patch_61">
    <path clip-path="url(#p05b2f38ecf)" d="M 143.033818 200.06 
L 145.054182 200.06 
L 145.054182 29.215687 
L 143.033818 29.215687 
z
" style="fill:#1a1a1a;"/>
   </g>
   <g id="patch_62">
    <path clip-path="url(#p05b2f38ecf)" d="M 145.054182 200.06 
L 147.074545 200.06 
L 147.074545 24.676024 
L 145.054182 24.676024 
z
" style="fill:#1a1a1a;"/>
   </g>
   <g id="patch_63">
    <path clip-path="url(#p05b2f38ecf)" d="M 147.074545 200.06 
L 149.094909 200.06 
L 149.094909 20.89082 
L 147.074545 20.89082 
z
" style="fill:#1a1a1a;"/>
   </g>
   <g id="patch_64">
    <path clip-path="url(#p05b2f38ecf)" d="M 149.094909 200.06 
L 151.115273 200.06 
L 151.115273 19.551401 
L 149.094909 19.551401 
z
" style="fill:#1a1a1a;"/>
   </g>
   <g id="patch_65">
    <path clip-path="url(#p05b2f38ecf)" d="M 151.115273 200.06 
L 153.135636 200.06 
L 153.135636 17.650538 
L 151.115273 17.650538 
z
" style="fill:#1a1a1a;"/>
   </g>
   <g id="patch_66">
    <path clip-path="url(#p05b2f38ecf)" d="M 153.135636 200.06 
L 155.156 200.06 
L 155.156 16.786104 
L 153.135636 16.786104 
z
" style="fill:#1a1a1a;"/>
   </g>
   <g id="patch_67">
    <path clip-path="url(#p05b2f38ecf)" d="M 155.156 200.06 
L 157.176364 200.06 
L 157.176364 14.90294 
L 155.156 14.90294 
z
" style="fill:#1a1a1a;"/>
   </g>
   <g id="patch_68">
    <path clip-path="url(#p05b2f38ecf)" d="M 157.176364 200.06 
L 159.196727 200.06 
L 159.196727 13.27388 
L 157.176364 13.27388 
z
" style="fill:#1a1a1a;"/>
   </g>
   <g id="patch_69">
    <path clip-path="url(#p05b2f38ecf)" d="M 159.196727 200.06 
L 161.217091 200.06 
L 161.217091 5.544341 
L 159.196727 5.544341 
z
" style="fill:#1a1a1a;"/>
   </g>
   <g id="patch_70">
    <path clip-path="url(#p05b2f38ecf)" d="M 161.217091 200.06 
L 163.237455 200.06 
L 163.237455 5.246788 
L 161.217091 5.246788 
z
" style="fill:#1a1a1a;"/>
   </g>
   <g id="patch_71">
    <path clip-path="url(#p05b2f38ecf)" d="M 163.237455 200.06 
L 165.257818 200.06 
L 165.257818 4.680237 
L 163.237455 4.680237 
z
" style="fill:#1a1a1a;"/>
   </g>
   <g id="patch_72">
    <path clip-path="url(#p05b2f38ecf)" d="M 165.257818 200.06 
L 167.278182 200.06 
L 167.278182 4.036244 
L 165.257818 4.036244 
z
" style="fill:#1a1a1a;"/>
   </g>
   <g id="patch_73">
    <path clip-path="url(#p05b2f38ecf)" d="M 167.278182 200.06 
L 169.298545 200.06 
L 169.298545 3.68049 
L 167.278182 3.68049 
z
" style="fill:#1a1a1a;"/>
   </g>
   <g id="patch_74">
    <path clip-path="url(#p05b2f38ecf)" d="M 169.298545 200.06 
L 171.318909 200.06 
L 171.318909 3.627976 
L 169.298545 3.627976 
z
" style="fill:#1a1a1a;"/>
   </g>
   <g id="patch_75">
    <path clip-path="url(#p05b2f38ecf)" d="M 171.318909 200.06 
L 173.339273 200.06 
L 173.339273 3.394061 
L 171.318909 3.394061 
z
" style="fill:#1a1a1a;"/>
   </g>
   <g id="patch_76">
    <path clip-path="url(#p05b2f38ecf)" d="M 173.339273 200.06 
L 175.359636 200.06 
L 175.359636 3.254829 
L 173.339273 3.254829 
z
" style="fill:#1a1a1a;"/>
   </g>
   <g id="patch_77">
    <path clip-path="url(#p05b2f38ecf)" d="M 175.359636 200.06 
L 177.38 200.06 
L 177.38 3.123595 
L 175.359636 3.123595 
z
" style="fill:#1a1a1a;"/>
   </g>
   <g id="patch_78">
    <path clip-path="url(#p05b2f38ecf)" d="M 177.38 200.06 
L 179.400364 200.06 
L 179.400364 3.08459 
L 177.38 3.08459 
z
" style="fill:#1a1a1a;"/>
   </g>
   <g id="patch_79">
    <path clip-path="url(#p05b2f38ecf)" d="M 179.400364 200.06 
L 181.420727 200.06 
L 181.420727 3.250994 
L 179.400364 3.250994 
z
" style="fill:#1a1a1a;"/>
   </g>
   <g id="patch_80">
    <path clip-path="url(#p05b2f38ecf)" d="M 181.420727 200.06 
L 183.441091 200.06 
L 183.441091 3.257515 
L 181.420727 3.257515 
z
" style="fill:#1a1a1a;"/>
   </g>
   <g id="patch_81">
    <path clip-path="url(#p05b2f38ecf)" d="M 183.441091 200.06 
L 185.461455 200.06 
L 185.461455 3.415412 
L 183.441091 3.415412 
z
" style="fill:#1a1a1a;"/>
   </g>
   <g id="patch_82">
    <path clip-path="url(#p05b2f38ecf)" d="M 185.461455 200.06 
L 187.481818 200.06 
L 187.481818 3.638858 
L 185.461455 3.638858 
z
" style="fill:#1a1a1a;"/>
   </g>
   <g id="patch_83">
    <path clip-path="url(#p05b2f38ecf)" d="M 187.481818 200.06 
L 189.502182 200.06 
L 189.502182 3.708513 
L 187.481818 3.708513 
z
" style="fill:#1a1a1a;"/>
   </g>
   <g id="patch_84">
    <path clip-path="url(#p05b2f38ecf)" d="M 189.502182 200.06 
L 191.522545 200.06 
L 191.522545 4.053243 
L 189.502182 4.053243 
z
" style="fill:#1a1a1a;"/>
   </g>
   <g id="patch_85">
    <path clip-path="url(#p05b2f38ecf)" d="M 191.522545 200.06 
L 193.542909 200.06 
L 193.542909 5.048242 
L 191.522545 5.048242 
z
" style="fill:#1a1a1a;"/>
   </g>
   <g id="patch_86">
    <path clip-path="url(#p05b2f38ecf)" d="M 193.542909 200.06 
L 195.563273 200.06 
L 195.563273 5.467001 
L 193.542909 5.467001 
z
" style="fill:#1a1a1a;"/>
   </g>
   <g id="patch_87">
    <path clip-path="url(#p05b2f38ecf)" d="M 195.563273 200.06 
L 197.583636 200.06 
L 197.583636 7.90598 
L 195.563273 7.90598 
z
" style="fill:#1a1a1a;"/>
   </g>
   <g id="patch_88">
    <path clip-path="url(#p05b2f38ecf)" d="M 197.583636 200.06 
L 199.604 200.06 
L 199.604 14.000686 
L 197.583636 14.000686 
z
" style="fill:#1a1a1a;"/>
   </g>
   <g id="patch_89">
    <path clip-path="url(#p05b2f38ecf)" d="M 199.604 200.06 
L 201.624364 200.06 
L 201.624364 15.201268 
L 199.604 15.201268 
z
" style="fill:#1a1a1a;"/>
   </g>
   <g id="patch_90">
    <path clip-path="url(#p05b2f38ecf)" d="M 201.624364 200.06 
L 203.644727 200.06 
L 203.644727 17.255438 
L 201.624364 17.255438 
z
" style="fill:#1a1a1a;"/>
   </g>
   <g id="patch_91">
    <path clip-path="url(#p05b2f38ecf)" d="M 203.644727 200.06 
L 205.665091 200.06 
L 205.665091 17.983871 
L 203.644727 17.983871 
z
" style="fill:#1a1a1a;"/>
   </g>
   <g id="patch_92">
    <path clip-path="url(#p05b2f38ecf)" d="M 205.665091 200.06 
L 207.685455 200.06 
L 207.685455 19.750397 
L 205.665091 19.750397 
z
" style="fill:#1a1a1a;"/>
   </g>
   <g id="patch_93">
    <path clip-path="url(#p05b2f38ecf)" d="M 207.685455 200.06 
L 209.705818 200.06 
L 209.705818 24.385708 
L 207.685455 24.385708 
z
" style="fill:#1a1a1a;"/>
   </g>
   <g id="patch_94">
    <path clip-path="url(#p05b2f38ecf)" d="M 209.705818 200.06 
L 211.726182 200.06 
L 211.726182 27.627972 
L 209.705818 27.627972 
z
" style="fill:#1a1a1a;"/>
   </g>
   <g id="patch_95">
    <path clip-path="url(#p05b2f38ecf)" d="M 211.726182 200.06 
L 213.746545 200.06 
L 213.746545 30.664583 
L 211.726182 30.664583 
z
" style="fill:#1a1a1a;"/>
   </g>
   <g id="patch_96">
    <path clip-path="url(#p05b2f38ecf)" d="M 213.746545 200.06 
L 215.766909 200.06 
L 215.766909 34.099241 
L 213.746545 34.099241 
z
" style="fill:#1a1a1a;"/>
   </g>
   <g id="patch_97">
    <path clip-path="url(#p05b2f38ecf)" d="M 215.766909 200.06 
L 217.787273 200.06 
L 217.787273 35.581551 
L 215.766909 35.581551 
z
" style="fill:#1a1a1a;"/>
   </g>
   <g id="patch_98">
    <path clip-path="url(#p05b2f38ecf)" d="M 217.787273 200.06 
L 219.807636 200.06 
L 219.807636 39.910512 
L 217.787273 39.910512 
z
" style="fill:#1a1a1a;"/>
   </g>
   <g id="patch_99">
    <path clip-path="url(#p05b2f38ecf)" d="M 219.807636 200.06 
L 221.828 200.06 
L 221.828 44.654417 
L 219.807636 44.654417 
z
" style="fill:#1a1a1a;"/>
   </g>
   <g id="patch_100">
    <path clip-path="url(#p05b2f38ecf)" d="M 221.828 200.06 
L 223.848364 200.06 
L 223.848364 56.962499 
L 221.828 56.962499 
z
" style="fill:#1a1a1a;"/>
   </g>
   <g id="patch_101">
    <path clip-path="url(#p05b2f38ecf)" d="M 223.848364 200.06 
L 225.868727 200.06 
L 225.868727 68.224819 
L 223.848364 68.224819 
z
" style="fill:#1a1a1a;"/>
   </g>
   <g id="patch_102">
    <path clip-path="url(#p05b2f38ecf)" d="M 225.868727 200.06 
L 227.889091 200.06 
L 227.889091 73.321674 
L 225.868727 73.321674 
z
" style="fill:#1a1a1a;"/>
   </g>
   <g id="patch_103">
    <path clip-path="url(#p05b2f38ecf)" d="M 227.889091 200.06 
L 229.909455 200.06 
L 229.909455 76.562703 
L 227.889091 76.562703 
z
" style="fill:#1a1a1a;"/>
   </g>
   <g id="patch_104">
    <path clip-path="url(#p05b2f38ecf)" d="M 229.909455 200.06 
L 231.929818 200.06 
L 231.929818 78.915769 
L 229.909455 78.915769 
z
" style="fill:#1a1a1a;"/>
   </g>
   <g id="patch_105">
    <path clip-path="url(#p05b2f38ecf)" d="M 231.929818 200.06 
L 233.950182 200.06 
L 233.950182 83.493985 
L 231.929818 83.493985 
z
" style="fill:#1a1a1a;"/>
   </g>
   <g id="patch_106">
    <path clip-path="url(#p05b2f38ecf)" d="M 233.950182 200.06 
L 235.970545 200.06 
L 235.970545 84.533664 
L 233.950182 84.533664 
z
" style="fill:#1a1a1a;"/>
   </g>
   <g id="patch_107">
    <path clip-path="url(#p05b2f38ecf)" d="M 235.970545 200.06 
L 237.990909 200.06 
L 237.990909 97.388307 
L 235.970545 97.388307 
z
" style="fill:#1a1a1a;"/>
   </g>
   <g id="patch_108">
    <path clip-path="url(#p05b2f38ecf)" d="M 237.990909 200.06 
L 240.011273 200.06 
L 240.011273 103.620681 
L 237.990909 103.620681 
z
" style="fill:#1a1a1a;"/>
   </g>
   <g id="patch_109">
    <path clip-path="url(#p05b2f38ecf)" d="M 240.011273 200.06 
L 242.031636 200.06 
L 242.031636 103.865843 
L 240.011273 103.865843 
z
" style="fill:#1a1a1a;"/>
   </g>
   <g id="patch_110">
    <path clip-path="url(#p05b2f38ecf)" d="M 242.031636 200.06 
L 244.052 200.06 
L 244.052 107.650015 
L 242.031636 107.650015 
z
" style="fill:#1a1a1a;"/>
   </g>
   <g id="patch_111">
    <path clip-path="url(#p05b2f38ecf)" d="M 244.052 200.06 
L 246.072364 200.06 
L 246.072364 112.059267 
L 244.052 112.059267 
z
" style="fill:#1a1a1a;"/>
   </g>
   <g id="patch_112">
    <path clip-path="url(#p05b2f38ecf)" d="M 246.072364 200.06 
L 248.092727 200.06 
L 248.092727 115.820261 
L 246.072364 115.820261 
z
" style="fill:#1a1a1a;"/>
   </g>
   <g id="patch_113">
    <path clip-path="url(#p05b2f38ecf)" d="M 248.092727 200.06 
L 250.113091 200.06 
L 250.113091 123.75 
L 248.092727 123.75 
z
" style="fill:#1a1a1a;"/>
   </g>
   <g id="patch_114">
    <path clip-path="url(#p05b2f38ecf)" d="M 250.113091 200.06 
L 252.133455 200.06 
L 252.133455 129.042101 
L 250.113091 129.042101 
z
" style="fill:#1a1a1a;"/>
   </g>
   <g id="patch_115">
    <path clip-path="url(#p05b2f38ecf)" d="M 252.133455 200.06 
L 254.153818 200.06 
L 254.153818 130.099431 
L 252.133455 130.099431 
z
" style="fill:#1a1a1a;"/>
   </g>
   <g id="patch_116">
    <path clip-path="url(#p05b2f38ecf)" d="M 254.153818 200.06 
L 256.174182 200.06 
L 256.174182 131.28715 
L 254.153818 131.28715 
z
" style="fill:#1a1a1a;"/>
   </g>
   <g id="patch_117">
    <path clip-path="url(#p05b2f38ecf)" d="M 256.174182 200.06 
L 258.194545 200.06 
L 258.194545 133.340265 
L 256.174182 133.340265 
z
" style="fill:#1a1a1a;"/>
   </g>
   <g id="patch_118">
    <path clip-path="url(#p05b2f38ecf)" d="M 258.194545 200.06 
L 260.214909 200.06 
L 260.214909 137.663136 
L 258.194545 137.663136 
z
" style="fill:#1a1a1a;"/>
   </g>
   <g id="patch_119">
    <path clip-path="url(#p05b2f38ecf)" d="M 260.214909 200.06 
L 262.235273 200.06 
L 262.235273 138.133897 
L 260.214909 138.133897 
z
" style="fill:#1a1a1a;"/>
   </g>
   <g id="patch_120">
    <path clip-path="url(#p05b2f38ecf)" d="M 262.235273 200.06 
L 264.255636 200.06 
L 264.255636 147.037011 
L 262.235273 147.037011 
z
" style="fill:#1a1a1a;"/>
   </g>
   <g id="patch_121">
    <path clip-path="url(#p05b2f38ecf)" d="M 264.255636 200.06 
L 266.276 200.06 
L 266.276 147.446673 
L 264.255636 147.446673 
z
" style="fill:#1a1a1a;"/>
   </g>
   <g id="patch_122">
    <path clip-path="url(#p05b2f38ecf)" d="M 266.276 200.06 
L 268.296364 200.06 
L 268.296364 151.752562 
L 266.276 151.752562 
z
" style="fill:#1a1a1a;"/>
   </g>
   <g id="patch_123">
    <path clip-path="url(#p05b2f38ecf)" d="M 268.296364 200.06 
L 270.316727 200.06 
L 270.316727 153.583808 
L 268.296364 153.583808 
z
" style="fill:#1a1a1a;"/>
   </g>
   <g id="patch_124">
    <path clip-path="url(#p05b2f38ecf)" d="M 270.316727 200.06 
L 272.337091 200.06 
L 272.337091 157.281131 
L 270.316727 157.281131 
z
" style="fill:#1a1a1a;"/>
   </g>
   <g id="patch_125">
    <path clip-path="url(#p05b2f38ecf)" d="M 272.337091 200.06 
L 274.357455 200.06 
L 274.357455 158.169412 
L 272.337091 158.169412 
z
" style="fill:#1a1a1a;"/>
   </g>
   <g id="patch_126">
    <path clip-path="url(#p05b2f38ecf)" d="M 274.357455 200.06 
L 276.377818 200.06 
L 276.377818 160.755554 
L 274.357455 160.755554 
z
" style="fill:#1a1a1a;"/>
   </g>
   <g id="patch_127">
    <path clip-path="url(#p05b2f38ecf)" d="M 276.377818 200.06 
L 278.398182 200.06 
L 278.398182 160.88322 
L 276.377818 160.88322 
z
" style="fill:#1a1a1a;"/>
   </g>
   <g id="patch_128">
    <path clip-path="url(#p05b2f38ecf)" d="M 278.398182 200.06 
L 280.418545 200.06 
L 280.418545 163.70181 
L 278.398182 163.70181 
z
" style="fill:#1a1a1a;"/>
   </g>
   <g id="patch_129">
    <path clip-path="url(#p05b2f38ecf)" d="M 280.418545 200.06 
L 282.438909 200.06 
L 282.438909 165.283484 
L 280.418545 165.283484 
z
" style="fill:#1a1a1a;"/>
   </g>
   <g id="patch_130">
    <path clip-path="url(#p05b2f38ecf)" d="M 282.438909 200.06 
L 284.459273 200.06 
L 284.459273 165.749764 
L 282.438909 165.749764 
z
" style="fill:#1a1a1a;"/>
   </g>
   <g id="patch_131">
    <path clip-path="url(#p05b2f38ecf)" d="M 284.459273 200.06 
L 286.479636 200.06 
L 286.479636 166.208581 
L 284.459273 166.208581 
z
" style="fill:#1a1a1a;"/>
   </g>
   <g id="patch_132">
    <path clip-path="url(#p05b2f38ecf)" d="M 286.479636 200.06 
L 288.5 200.06 
L 288.5 167.961511 
L 286.479636 167.961511 
z
" style="fill:#1a1a1a;"/>
   </g>
   <g id="patch_133">
    <path clip-path="url(#p05b2f38ecf)" d="M 288.5 200.06 
L 290.520364 200.06 
L 290.520364 169.341911 
L 288.5 169.341911 
z
" style="fill:#1a1a1a;"/>
   </g>
   <g id="patch_134">
    <path clip-path="url(#p05b2f38ecf)" d="M 290.520364 200.06 
L 292.540727 200.06 
L 292.540727 171.22698 
L 290.520364 171.22698 
z
" style="fill:#1a1a1a;"/>
   </g>
   <g id="patch_135">
    <path clip-path="url(#p05b2f38ecf)" d="M 292.540727 200.06 
L 294.561091 200.06 
L 294.561091 172.457764 
L 292.540727 172.457764 
z
" style="fill:#1a1a1a;"/>
   </g>
   <g id="patch_136">
    <path clip-path="url(#p05b2f38ecf)" d="M 294.561091 200.06 
L 296.581455 200.06 
L 296.581455 174.287405 
L 294.561091 174.287405 
z
" style="fill:#1a1a1a;"/>
   </g>
   <g id="patch_137">
    <path clip-path="url(#p05b2f38ecf)" d="M 296.581455 200.06 
L 298.601818 200.06 
L 298.601818 175.093221 
L 296.581455 175.093221 
z
" style="fill:#1a1a1a;"/>
   </g>
   <g id="patch_138">
    <path clip-path="url(#p05b2f38ecf)" d="M 298.601818 200.06 
L 300.622182 200.06 
L 300.622182 175.208679 
L 298.601818 175.208679 
z
" style="fill:#1a1a1a;"/>
   </g>
   <g id="patch_139">
    <path clip-path="url(#p05b2f38ecf)" d="M 300.622182 200.06 
L 302.642545 200.06 
L 302.642545 175.508995 
L 300.622182 175.508995 
z
" style="fill:#1a1a1a;"/>
   </g>
   <g id="patch_140">
    <path clip-path="url(#p05b2f38ecf)" d="M 302.642545 200.06 
L 304.662909 200.06 
L 304.662909 175.667144 
L 302.642545 175.667144 
z
" style="fill:#1a1a1a;"/>
   </g>
   <g id="patch_141">
    <path clip-path="url(#p05b2f38ecf)" d="M 304.662909 200.06 
L 306.683273 200.06 
L 306.683273 176.694231 
L 304.662909 176.694231 
z
" style="fill:#1a1a1a;"/>
   </g>
   <g id="patch_142">
    <path clip-path="url(#p05b2f38ecf)" d="M 306.683273 200.06 
L 308.703636 200.06 
L 308.703636 176.934702 
L 306.683273 176.934702 
z
" style="fill:#1a1a1a;"/>
   </g>
   <g id="patch_143">
    <path clip-path="url(#p05b2f38ecf)" d="M 308.703636 200.06 
L 310.724 200.06 
L 310.724 177.599723 
L 308.703636 177.599723 
z
" style="fill:#1a1a1a;"/>
   </g>
   <g id="patch_144">
    <path clip-path="url(#p05b2f38ecf)" d="M 310.724 200.06 
L 312.744364 200.06 
L 312.744364 178.202343 
L 310.724 178.202343 
z
" style="fill:#1a1a1a;"/>
   </g>
   <g id="patch_145">
    <path clip-path="url(#p05b2f38ecf)" d="M 312.744364 200.06 
L 314.764727 200.06 
L 314.764727 178.909265 
L 312.744364 178.909265 
z
" style="fill:#1a1a1a;"/>
   </g>
   <g id="patch_146">
    <path clip-path="url(#p05b2f38ecf)" d="M 314.764727 200.06 
L 316.785091 200.06 
L 316.785091 179.29965 
L 314.764727 179.29965 
z
" style="fill:#1a1a1a;"/>
   </g>
   <g id="patch_147">
    <path clip-path="url(#p05b2f38ecf)" d="M 316.785091 200.06 
L 318.805455 200.06 
L 318.805455 180.013556 
L 316.785091 180.013556 
z
" style="fill:#1a1a1a;"/>
   </g>
   <g id="patch_148">
    <path clip-path="url(#p05b2f38ecf)" d="M 318.805455 200.06 
L 320.825818 200.06 
L 320.825818 180.619241 
L 318.805455 180.619241 
z
" style="fill:#1a1a1a;"/>
   </g>
   <g id="patch_149">
    <path clip-path="url(#p05b2f38ecf)" d="M 320.825818 200.06 
L 322.846182 200.06 
L 322.846182 181.10903 
L 320.825818 181.10903 
z
" style="fill:#1a1a1a;"/>
   </g>
   <g id="patch_150">
    <path clip-path="url(#p05b2f38ecf)" d="M 322.846182 200.06 
L 324.866545 200.06 
L 324.866545 182.333707 
L 322.846182 182.333707 
z
" style="fill:#1a1a1a;"/>
   </g>
   <g id="patch_151">
    <path clip-path="url(#p05b2f38ecf)" d="M 324.866545 200.06 
L 326.886909 200.06 
L 326.886909 182.617414 
L 324.866545 182.617414 
z
" style="fill:#1a1a1a;"/>
   </g>
   <g id="patch_152">
    <path clip-path="url(#p05b2f38ecf)" d="M 326.886909 200.06 
L 328.907273 200.06 
L 328.907273 182.862841 
L 326.886909 182.862841 
z
" style="fill:#1a1a1a;"/>
   </g>
   <g id="matplotlib.axis_1"/>
   <g id="matplotlib.axis_2"/>
   <g id="patch_153">
    <path d="M 10.7 200.06 
L 10.7 10.7 
" style="fill:none;stroke:#000000;stroke-linecap:square;stroke-linejoin:miter;stroke-width:0.8;"/>
   </g>
   <g id="patch_154">
    <path d="M 344.06 200.06 
L 344.06 10.7 
" style="fill:none;stroke:#000000;stroke-linecap:square;stroke-linejoin:miter;stroke-width:0.8;"/>
   </g>
   <g id="patch_155">
    <path d="M 10.7 200.06 
L 344.06 200.06 
" style="fill:none;stroke:#000000;stroke-linecap:square;stroke-linejoin:miter;stroke-width:0.8;"/>
   </g>
   <g id="patch_156">
    <path d="M 10.7 10.7 
L 344.06 10.7 
" style="fill:none;stroke:#000000;stroke-linecap:square;stroke-linejoin:miter;stroke-width:0.8;"/>
   </g>
  </g>
 </g>
 <defs>
  <clipPath id="p05b2f38ecf">
   <rect height="189.36" width="333.36" x="10.7" y="10.7"/>
  </clipPath>
 </defs>
</svg>
