<?xml version="1.0" encoding="utf-8" standalone="no"?>
<!DOCTYPE svg PUBLIC "-//W3C//DTD SVG 1.1//EN"
  "http://www.w3.org/Graphics/SVG/1.1/DTD/svg11.dtd">
<!-- Created with matplotlib (http://matplotlib.org/) -->
<svg height="210pt" version="1.1" viewBox="0 0 354 210" width="354pt" xmlns="http://www.w3.org/2000/svg" xmlns:xlink="http://www.w3.org/1999/xlink">
 <defs>
  <style type="text/css">
*{stroke-linecap:butt;stroke-linejoin:round;}
  </style>
 </defs>
 <g id="figure_1">
  <g id="patch_1">
   <path d="M 0 210.76 
L 354.76 210.76 
L 354.76 0 
L 0 0 
z
" style="fill:#ffffff;"/>
  </g>
  <g id="axes_1">
   <g id="patch_2">
    <path d="M 10.7 200.06 
L 344.06 200.06 
L 344.06 10.7 
L 10.7 10.7 
z
" style="fill:#ffffff;"/>
   </g>
   <g id="patch_3">
    <path clip-path="url(#p0cb0d2ec7d)" d="M 25.852727 200.06 
L 27.873091 200.06 
L 27.873091 199.839313 
L 25.852727 199.839313 
z
" style="fill:#1a1a1a;"/>
   </g>
   <g id="patch_4">
    <path clip-path="url(#p0cb0d2ec7d)" d="M 27.873091 200.06 
L 29.893455 200.06 
L 29.893455 199.838945 
L 27.873091 199.838945 
z
" style="fill:#1a1a1a;"/>
   </g>
   <g id="patch_5">
    <path clip-path="url(#p0cb0d2ec7d)" d="M 29.893455 200.06 
L 31.913818 200.06 
L 31.913818 199.837149 
L 29.893455 199.837149 
z
" style="fill:#1a1a1a;"/>
   </g>
   <g id="patch_6">
    <path clip-path="url(#p0cb0d2ec7d)" d="M 31.913818 200.06 
L 33.934182 200.06 
L 33.934182 199.8328 
L 31.913818 199.8328 
z
" style="fill:#1a1a1a;"/>
   </g>
   <g id="patch_7">
    <path clip-path="url(#p0cb0d2ec7d)" d="M 33.934182 200.06 
L 35.954545 200.06 
L 35.954545 199.831466 
L 33.934182 199.831466 
z
" style="fill:#1a1a1a;"/>
   </g>
   <g id="patch_8">
    <path clip-path="url(#p0cb0d2ec7d)" d="M 35.954545 200.06 
L 37.974909 200.06 
L 37.974909 199.82652 
L 35.954545 199.82652 
z
" style="fill:#1a1a1a;"/>
   </g>
   <g id="patch_9">
    <path clip-path="url(#p0cb0d2ec7d)" d="M 37.974909 200.06 
L 39.995273 200.06 
L 39.995273 199.823148 
L 37.974909 199.823148 
z
" style="fill:#1a1a1a;"/>
   </g>
   <g id="patch_10">
    <path clip-path="url(#p0cb0d2ec7d)" d="M 39.995273 200.06 
L 42.015636 200.06 
L 42.015636 199.80942 
L 39.995273 199.80942 
z
" style="fill:#1a1a1a;"/>
   </g>
   <g id="patch_11">
    <path clip-path="url(#p0cb0d2ec7d)" d="M 42.015636 200.06 
L 44.036 200.06 
L 44.036 199.804449 
L 42.015636 199.804449 
z
" style="fill:#1a1a1a;"/>
   </g>
   <g id="patch_12">
    <path clip-path="url(#p0cb0d2ec7d)" d="M 44.036 200.06 
L 46.056364 200.06 
L 46.056364 199.800269 
L 44.036 199.800269 
z
" style="fill:#1a1a1a;"/>
   </g>
   <g id="patch_13">
    <path clip-path="url(#p0cb0d2ec7d)" d="M 46.056364 200.06 
L 48.076727 200.06 
L 48.076727 199.794027 
L 46.056364 199.794027 
z
" style="fill:#1a1a1a;"/>
   </g>
   <g id="patch_14">
    <path clip-path="url(#p0cb0d2ec7d)" d="M 48.076727 200.06 
L 50.097091 200.06 
L 50.097091 199.789518 
L 48.076727 199.789518 
z
" style="fill:#1a1a1a;"/>
   </g>
   <g id="patch_15">
    <path clip-path="url(#p0cb0d2ec7d)" d="M 50.097091 200.06 
L 52.117455 200.06 
L 52.117455 199.77331 
L 50.097091 199.77331 
z
" style="fill:#1a1a1a;"/>
   </g>
   <g id="patch_16">
    <path clip-path="url(#p0cb0d2ec7d)" d="M 52.117455 200.06 
L 54.137818 200.06 
L 54.137818 199.769665 
L 52.117455 199.769665 
z
" style="fill:#1a1a1a;"/>
   </g>
   <g id="patch_17">
    <path clip-path="url(#p0cb0d2ec7d)" d="M 54.137818 200.06 
L 56.158182 200.06 
L 56.158182 199.766611 
L 54.137818 199.766611 
z
" style="fill:#1a1a1a;"/>
   </g>
   <g id="patch_18">
    <path clip-path="url(#p0cb0d2ec7d)" d="M 56.158182 200.06 
L 58.178545 200.06 
L 58.178545 199.756362 
L 56.158182 199.756362 
z
" style="fill:#1a1a1a;"/>
   </g>
   <g id="patch_19">
    <path clip-path="url(#p0cb0d2ec7d)" d="M 58.178545 200.06 
L 60.198909 200.06 
L 60.198909 199.746675 
L 58.178545 199.746675 
z
" style="fill:#1a1a1a;"/>
   </g>
   <g id="patch_20">
    <path clip-path="url(#p0cb0d2ec7d)" d="M 60.198909 200.06 
L 62.219273 200.06 
L 62.219273 199.738844 
L 60.198909 199.738844 
z
" style="fill:#1a1a1a;"/>
   </g>
   <g id="patch_21">
    <path clip-path="url(#p0cb0d2ec7d)" d="M 62.219273 200.06 
L 64.239636 200.06 
L 64.239636 199.726846 
L 62.219273 199.726846 
z
" style="fill:#1a1a1a;"/>
   </g>
   <g id="patch_22">
    <path clip-path="url(#p0cb0d2ec7d)" d="M 64.239636 200.06 
L 66.26 200.06 
L 66.26 199.722796 
L 64.239636 199.722796 
z
" style="fill:#1a1a1a;"/>
   </g>
   <g id="patch_23">
    <path clip-path="url(#p0cb0d2ec7d)" d="M 66.26 200.06 
L 68.280364 200.06 
L 68.280364 199.714373 
L 66.26 199.714373 
z
" style="fill:#1a1a1a;"/>
   </g>
   <g id="patch_24">
    <path clip-path="url(#p0cb0d2ec7d)" d="M 68.280364 200.06 
L 70.300727 200.06 
L 70.300727 199.702397 
L 68.280364 199.702397 
z
" style="fill:#1a1a1a;"/>
   </g>
   <g id="patch_25">
    <path clip-path="url(#p0cb0d2ec7d)" d="M 70.300727 200.06 
L 72.321091 200.06 
L 72.321091 199.675028 
L 70.300727 199.675028 
z
" style="fill:#1a1a1a;"/>
   </g>
   <g id="patch_26">
    <path clip-path="url(#p0cb0d2ec7d)" d="M 72.321091 200.06 
L 74.341455 200.06 
L 74.341455 199.666511 
L 72.321091 199.666511 
z
" style="fill:#1a1a1a;"/>
   </g>
   <g id="patch_27">
    <path clip-path="url(#p0cb0d2ec7d)" d="M 74.341455 200.06 
L 76.361818 200.06 
L 76.361818 199.634909 
L 74.341455 199.634909 
z
" style="fill:#1a1a1a;"/>
   </g>
   <g id="patch_28">
    <path clip-path="url(#p0cb0d2ec7d)" d="M 76.361818 200.06 
L 78.382182 200.06 
L 78.382182 199.608108 
L 76.361818 199.608108 
z
" style="fill:#1a1a1a;"/>
   </g>
   <g id="patch_29">
    <path clip-path="url(#p0cb0d2ec7d)" d="M 78.382182 200.06 
L 80.402545 200.06 
L 80.402545 199.602326 
L 78.382182 199.602326 
z
" style="fill:#1a1a1a;"/>
   </g>
   <g id="patch_30">
    <path clip-path="url(#p0cb0d2ec7d)" d="M 80.402545 200.06 
L 82.422909 200.06 
L 82.422909 199.582174 
L 80.402545 199.582174 
z
" style="fill:#1a1a1a;"/>
   </g>
   <g id="patch_31">
    <path clip-path="url(#p0cb0d2ec7d)" d="M 82.422909 200.06 
L 84.443273 200.06 
L 84.443273 199.522033 
L 82.422909 199.522033 
z
" style="fill:#1a1a1a;"/>
   </g>
   <g id="patch_32">
    <path clip-path="url(#p0cb0d2ec7d)" d="M 84.443273 200.06 
L 86.463636 200.06 
L 86.463636 199.519292 
L 84.443273 199.519292 
z
" style="fill:#1a1a1a;"/>
   </g>
   <g id="patch_33">
    <path clip-path="url(#p0cb0d2ec7d)" d="M 86.463636 200.06 
L 88.484 200.06 
L 88.484 199.432251 
L 86.463636 199.432251 
z
" style="fill:#1a1a1a;"/>
   </g>
   <g id="patch_34">
    <path clip-path="url(#p0cb0d2ec7d)" d="M 88.484 200.06 
L 90.504364 200.06 
L 90.504364 199.386944 
L 88.484 199.386944 
z
" style="fill:#1a1a1a;"/>
   </g>
   <g id="patch_35">
    <path clip-path="url(#p0cb0d2ec7d)" d="M 90.504364 200.06 
L 92.524727 200.06 
L 92.524727 199.367951 
L 90.504364 199.367951 
z
" style="fill:#1a1a1a;"/>
   </g>
   <g id="patch_36">
    <path clip-path="url(#p0cb0d2ec7d)" d="M 92.524727 200.06 
L 94.545091 200.06 
L 94.545091 199.35196 
L 92.524727 199.35196 
z
" style="fill:#1a1a1a;"/>
   </g>
   <g id="patch_37">
    <path clip-path="url(#p0cb0d2ec7d)" d="M 94.545091 200.06 
L 96.565455 200.06 
L 96.565455 199.336442 
L 94.545091 199.336442 
z
" style="fill:#1a1a1a;"/>
   </g>
   <g id="patch_38">
    <path clip-path="url(#p0cb0d2ec7d)" d="M 96.565455 200.06 
L 98.585818 200.06 
L 98.585818 199.317673 
L 96.565455 199.317673 
z
" style="fill:#1a1a1a;"/>
   </g>
   <g id="patch_39">
    <path clip-path="url(#p0cb0d2ec7d)" d="M 98.585818 200.06 
L 100.606182 200.06 
L 100.606182 199.276841 
L 98.585818 199.276841 
z
" style="fill:#1a1a1a;"/>
   </g>
   <g id="patch_40">
    <path clip-path="url(#p0cb0d2ec7d)" d="M 100.606182 200.06 
L 102.626545 200.06 
L 102.626545 199.253143 
L 100.606182 199.253143 
z
" style="fill:#1a1a1a;"/>
   </g>
   <g id="patch_41">
    <path clip-path="url(#p0cb0d2ec7d)" d="M 102.626545 200.06 
L 104.646909 200.06 
L 104.646909 199.166615 
L 102.626545 199.166615 
z
" style="fill:#1a1a1a;"/>
   </g>
   <g id="patch_42">
    <path clip-path="url(#p0cb0d2ec7d)" d="M 104.646909 200.06 
L 106.667273 200.06 
L 106.667273 199.150542 
L 104.646909 199.150542 
z
" style="fill:#1a1a1a;"/>
   </g>
   <g id="patch_43">
    <path clip-path="url(#p0cb0d2ec7d)" d="M 106.667273 200.06 
L 108.687636 200.06 
L 108.687636 199.125035 
L 106.667273 199.125035 
z
" style="fill:#1a1a1a;"/>
   </g>
   <g id="patch_44">
    <path clip-path="url(#p0cb0d2ec7d)" d="M 108.687636 200.06 
L 110.708 200.06 
L 110.708 199.097405 
L 108.687636 199.097405 
z
" style="fill:#1a1a1a;"/>
   </g>
   <g id="patch_45">
    <path clip-path="url(#p0cb0d2ec7d)" d="M 110.708 200.06 
L 112.728364 200.06 
L 112.728364 199.054702 
L 110.708 199.054702 
z
" style="fill:#1a1a1a;"/>
   </g>
   <g id="patch_46">
    <path clip-path="url(#p0cb0d2ec7d)" d="M 112.728364 200.06 
L 114.748727 200.06 
L 114.748727 198.975762 
L 112.728364 198.975762 
z
" style="fill:#1a1a1a;"/>
   </g>
   <g id="patch_47">
    <path clip-path="url(#p0cb0d2ec7d)" d="M 114.748727 200.06 
L 116.769091 200.06 
L 116.769091 198.95387 
L 114.748727 198.95387 
z
" style="fill:#1a1a1a;"/>
   </g>
   <g id="patch_48">
    <path clip-path="url(#p0cb0d2ec7d)" d="M 116.769091 200.06 
L 118.789455 200.06 
L 118.789455 198.868059 
L 116.769091 198.868059 
z
" style="fill:#1a1a1a;"/>
   </g>
   <g id="patch_49">
    <path clip-path="url(#p0cb0d2ec7d)" d="M 118.789455 200.06 
L 120.809818 200.06 
L 120.809818 198.819149 
L 118.789455 198.819149 
z
" style="fill:#1a1a1a;"/>
   </g>
   <g id="patch_50">
    <path clip-path="url(#p0cb0d2ec7d)" d="M 120.809818 200.06 
L 122.830182 200.06 
L 122.830182 198.674264 
L 120.809818 198.674264 
z
" style="fill:#1a1a1a;"/>
   </g>
   <g id="patch_51">
    <path clip-path="url(#p0cb0d2ec7d)" d="M 122.830182 200.06 
L 124.850545 200.06 
L 124.850545 198.597904 
L 122.830182 198.597904 
z
" style="fill:#1a1a1a;"/>
   </g>
   <g id="patch_52">
    <path clip-path="url(#p0cb0d2ec7d)" d="M 124.850545 200.06 
L 126.870909 200.06 
L 126.870909 198.461759 
L 124.850545 198.461759 
z
" style="fill:#1a1a1a;"/>
   </g>
   <g id="patch_53">
    <path clip-path="url(#p0cb0d2ec7d)" d="M 126.870909 200.06 
L 128.891273 200.06 
L 128.891273 198.253281 
L 126.870909 198.253281 
z
" style="fill:#1a1a1a;"/>
   </g>
   <g id="patch_54">
    <path clip-path="url(#p0cb0d2ec7d)" d="M 128.891273 200.06 
L 130.911636 200.06 
L 130.911636 198.018365 
L 128.891273 198.018365 
z
" style="fill:#1a1a1a;"/>
   </g>
   <g id="patch_55">
    <path clip-path="url(#p0cb0d2ec7d)" d="M 130.911636 200.06 
L 132.932 200.06 
L 132.932 197.875262 
L 130.911636 197.875262 
z
" style="fill:#1a1a1a;"/>
   </g>
   <g id="patch_56">
    <path clip-path="url(#p0cb0d2ec7d)" d="M 132.932 200.06 
L 134.952364 200.06 
L 134.952364 197.270494 
L 132.932 197.270494 
z
" style="fill:#1a1a1a;"/>
   </g>
   <g id="patch_57">
    <path clip-path="url(#p0cb0d2ec7d)" d="M 134.952364 200.06 
L 136.972727 200.06 
L 136.972727 197.093238 
L 134.952364 197.093238 
z
" style="fill:#1a1a1a;"/>
   </g>
   <g id="patch_58">
    <path clip-path="url(#p0cb0d2ec7d)" d="M 136.972727 200.06 
L 138.993091 200.06 
L 138.993091 196.997357 
L 136.972727 196.997357 
z
" style="fill:#1a1a1a;"/>
   </g>
   <g id="patch_59">
    <path clip-path="url(#p0cb0d2ec7d)" d="M 138.993091 200.06 
L 141.013455 200.06 
L 141.013455 196.751774 
L 138.993091 196.751774 
z
" style="fill:#1a1a1a;"/>
   </g>
   <g id="patch_60">
    <path clip-path="url(#p0cb0d2ec7d)" d="M 141.013455 200.06 
L 143.033818 200.06 
L 143.033818 196.673241 
L 141.013455 196.673241 
z
" style="fill:#1a1a1a;"/>
   </g>
   <g id="patch_61">
    <path clip-path="url(#p0cb0d2ec7d)" d="M 143.033818 200.06 
L 145.054182 200.06 
L 145.054182 196.528817 
L 143.033818 196.528817 
z
" style="fill:#1a1a1a;"/>
   </g>
   <g id="patch_62">
    <path clip-path="url(#p0cb0d2ec7d)" d="M 145.054182 200.06 
L 147.074545 200.06 
L 147.074545 196.279851 
L 145.054182 196.279851 
z
" style="fill:#1a1a1a;"/>
   </g>
   <g id="patch_63">
    <path clip-path="url(#p0cb0d2ec7d)" d="M 147.074545 200.06 
L 149.094909 200.06 
L 149.094909 195.659213 
L 147.074545 195.659213 
z
" style="fill:#1a1a1a;"/>
   </g>
   <g id="patch_64">
    <path clip-path="url(#p0cb0d2ec7d)" d="M 149.094909 200.06 
L 151.115273 200.06 
L 151.115273 195.314948 
L 149.094909 195.314948 
z
" style="fill:#1a1a1a;"/>
   </g>
   <g id="patch_65">
    <path clip-path="url(#p0cb0d2ec7d)" d="M 151.115273 200.06 
L 153.135636 200.06 
L 153.135636 195.275543 
L 151.115273 195.275543 
z
" style="fill:#1a1a1a;"/>
   </g>
   <g id="patch_66">
    <path clip-path="url(#p0cb0d2ec7d)" d="M 153.135636 200.06 
L 155.156 200.06 
L 155.156 194.788598 
L 153.135636 194.788598 
z
" style="fill:#1a1a1a;"/>
   </g>
   <g id="patch_67">
    <path clip-path="url(#p0cb0d2ec7d)" d="M 155.156 200.06 
L 157.176364 200.06 
L 157.176364 194.294932 
L 155.156 194.294932 
z
" style="fill:#1a1a1a;"/>
   </g>
   <g id="patch_68">
    <path clip-path="url(#p0cb0d2ec7d)" d="M 157.176364 200.06 
L 159.196727 200.06 
L 159.196727 194.018298 
L 157.176364 194.018298 
z
" style="fill:#1a1a1a;"/>
   </g>
   <g id="patch_69">
    <path clip-path="url(#p0cb0d2ec7d)" d="M 159.196727 200.06 
L 161.217091 200.06 
L 161.217091 193.69468 
L 159.196727 193.69468 
z
" style="fill:#1a1a1a;"/>
   </g>
   <g id="patch_70">
    <path clip-path="url(#p0cb0d2ec7d)" d="M 161.217091 200.06 
L 163.237455 200.06 
L 163.237455 192.428925 
L 161.217091 192.428925 
z
" style="fill:#1a1a1a;"/>
   </g>
   <g id="patch_71">
    <path clip-path="url(#p0cb0d2ec7d)" d="M 163.237455 200.06 
L 165.257818 200.06 
L 165.257818 184.485842 
L 163.237455 184.485842 
z
" style="fill:#1a1a1a;"/>
   </g>
   <g id="patch_72">
    <path clip-path="url(#p0cb0d2ec7d)" d="M 165.257818 200.06 
L 167.278182 200.06 
L 167.278182 182.327824 
L 165.257818 182.327824 
z
" style="fill:#1a1a1a;"/>
   </g>
   <g id="patch_73">
    <path clip-path="url(#p0cb0d2ec7d)" d="M 167.278182 200.06 
L 169.298545 200.06 
L 169.298545 173.312851 
L 167.278182 173.312851 
z
" style="fill:#1a1a1a;"/>
   </g>
   <g id="patch_74">
    <path clip-path="url(#p0cb0d2ec7d)" d="M 169.298545 200.06 
L 171.318909 200.06 
L 171.318909 162.167633 
L 169.298545 162.167633 
z
" style="fill:#1a1a1a;"/>
   </g>
   <g id="patch_75">
    <path clip-path="url(#p0cb0d2ec7d)" d="M 171.318909 200.06 
L 173.339273 200.06 
L 173.339273 157.748733 
L 171.318909 157.748733 
z
" style="fill:#1a1a1a;"/>
   </g>
   <g id="patch_76">
    <path clip-path="url(#p0cb0d2ec7d)" d="M 173.339273 200.06 
L 175.359636 200.06 
L 175.359636 148.20716 
L 173.339273 148.20716 
z
" style="fill:#1a1a1a;"/>
   </g>
   <g id="patch_77">
    <path clip-path="url(#p0cb0d2ec7d)" d="M 175.359636 200.06 
L 177.38 200.06 
L 177.38 138.829462 
L 175.359636 138.829462 
z
" style="fill:#1a1a1a;"/>
   </g>
   <g id="patch_78">
    <path clip-path="url(#p0cb0d2ec7d)" d="M 177.38 200.06 
L 179.400364 200.06 
L 179.400364 47.304799 
L 177.38 47.304799 
z
" style="fill:#1a1a1a;"/>
   </g>
   <g id="patch_79">
    <path clip-path="url(#p0cb0d2ec7d)" d="M 179.400364 200.06 
L 181.420727 200.06 
L 181.420727 143.757826 
L 179.400364 143.757826 
z
" style="fill:#1a1a1a;"/>
   </g>
   <g id="patch_80">
    <path clip-path="url(#p0cb0d2ec7d)" d="M 181.420727 200.06 
L 183.441091 200.06 
L 183.441091 156.858133 
L 181.420727 156.858133 
z
" style="fill:#1a1a1a;"/>
   </g>
   <g id="patch_81">
    <path clip-path="url(#p0cb0d2ec7d)" d="M 183.441091 200.06 
L 185.461455 200.06 
L 185.461455 160.904425 
L 183.441091 160.904425 
z
" style="fill:#1a1a1a;"/>
   </g>
   <g id="patch_82">
    <path clip-path="url(#p0cb0d2ec7d)" d="M 185.461455 200.06 
L 187.481818 200.06 
L 187.481818 171.222886 
L 185.461455 171.222886 
z
" style="fill:#1a1a1a;"/>
   </g>
   <g id="patch_83">
    <path clip-path="url(#p0cb0d2ec7d)" d="M 187.481818 200.06 
L 189.502182 200.06 
L 189.502182 173.781175 
L 187.481818 173.781175 
z
" style="fill:#1a1a1a;"/>
   </g>
   <g id="patch_84">
    <path clip-path="url(#p0cb0d2ec7d)" d="M 189.502182 200.06 
L 191.522545 200.06 
L 191.522545 184.088771 
L 189.502182 184.088771 
z
" style="fill:#1a1a1a;"/>
   </g>
   <g id="patch_85">
    <path clip-path="url(#p0cb0d2ec7d)" d="M 191.522545 200.06 
L 193.542909 200.06 
L 193.542909 188.91238 
L 191.522545 188.91238 
z
" style="fill:#1a1a1a;"/>
   </g>
   <g id="patch_86">
    <path clip-path="url(#p0cb0d2ec7d)" d="M 193.542909 200.06 
L 195.563273 200.06 
L 195.563273 193.049522 
L 193.542909 193.049522 
z
" style="fill:#1a1a1a;"/>
   </g>
   <g id="patch_87">
    <path clip-path="url(#p0cb0d2ec7d)" d="M 195.563273 200.06 
L 197.583636 200.06 
L 197.583636 193.817314 
L 195.563273 193.817314 
z
" style="fill:#1a1a1a;"/>
   </g>
   <g id="patch_88">
    <path clip-path="url(#p0cb0d2ec7d)" d="M 197.583636 200.06 
L 199.604 200.06 
L 199.604 194.083007 
L 197.583636 194.083007 
z
" style="fill:#1a1a1a;"/>
   </g>
   <g id="patch_89">
    <path clip-path="url(#p0cb0d2ec7d)" d="M 199.604 200.06 
L 201.624364 200.06 
L 201.624364 194.32535 
L 199.604 194.32535 
z
" style="fill:#1a1a1a;"/>
   </g>
   <g id="patch_90">
    <path clip-path="url(#p0cb0d2ec7d)" d="M 201.624364 200.06 
L 203.644727 200.06 
L 203.644727 194.939185 
L 201.624364 194.939185 
z
" style="fill:#1a1a1a;"/>
   </g>
   <g id="patch_91">
    <path clip-path="url(#p0cb0d2ec7d)" d="M 203.644727 200.06 
L 205.665091 200.06 
L 205.665091 195.297145 
L 203.644727 195.297145 
z
" style="fill:#1a1a1a;"/>
   </g>
   <g id="patch_92">
    <path clip-path="url(#p0cb0d2ec7d)" d="M 205.665091 200.06 
L 207.685455 200.06 
L 207.685455 195.35768 
L 205.665091 195.35768 
z
" style="fill:#1a1a1a;"/>
   </g>
   <g id="patch_93">
    <path clip-path="url(#p0cb0d2ec7d)" d="M 207.685455 200.06 
L 209.705818 200.06 
L 209.705818 196.181053 
L 207.685455 196.181053 
z
" style="fill:#1a1a1a;"/>
   </g>
   <g id="patch_94">
    <path clip-path="url(#p0cb0d2ec7d)" d="M 209.705818 200.06 
L 211.726182 200.06 
L 211.726182 196.476471 
L 209.705818 196.476471 
z
" style="fill:#1a1a1a;"/>
   </g>
   <g id="patch_95">
    <path clip-path="url(#p0cb0d2ec7d)" d="M 211.726182 200.06 
L 213.746545 200.06 
L 213.746545 196.549529 
L 211.726182 196.549529 
z
" style="fill:#1a1a1a;"/>
   </g>
   <g id="patch_96">
    <path clip-path="url(#p0cb0d2ec7d)" d="M 213.746545 200.06 
L 215.766909 200.06 
L 215.766909 196.70323 
L 213.746545 196.70323 
z
" style="fill:#1a1a1a;"/>
   </g>
   <g id="patch_97">
    <path clip-path="url(#p0cb0d2ec7d)" d="M 215.766909 200.06 
L 217.787273 200.06 
L 217.787273 196.789976 
L 215.766909 196.789976 
z
" style="fill:#1a1a1a;"/>
   </g>
   <g id="patch_98">
    <path clip-path="url(#p0cb0d2ec7d)" d="M 217.787273 200.06 
L 219.807636 200.06 
L 219.807636 197.007986 
L 217.787273 197.007986 
z
" style="fill:#1a1a1a;"/>
   </g>
   <g id="patch_99">
    <path clip-path="url(#p0cb0d2ec7d)" d="M 219.807636 200.06 
L 221.828 200.06 
L 221.828 197.16272 
L 219.807636 197.16272 
z
" style="fill:#1a1a1a;"/>
   </g>
   <g id="patch_100">
    <path clip-path="url(#p0cb0d2ec7d)" d="M 221.828 200.06 
L 223.848364 200.06 
L 223.848364 197.839942 
L 221.828 197.839942 
z
" style="fill:#1a1a1a;"/>
   </g>
   <g id="patch_101">
    <path clip-path="url(#p0cb0d2ec7d)" d="M 223.848364 200.06 
L 225.868727 200.06 
L 225.868727 197.947078 
L 223.848364 197.947078 
z
" style="fill:#1a1a1a;"/>
   </g>
   <g id="patch_102">
    <path clip-path="url(#p0cb0d2ec7d)" d="M 225.868727 200.06 
L 227.889091 200.06 
L 227.889091 198.133167 
L 225.868727 198.133167 
z
" style="fill:#1a1a1a;"/>
   </g>
   <g id="patch_103">
    <path clip-path="url(#p0cb0d2ec7d)" d="M 227.889091 200.06 
L 229.909455 200.06 
L 229.909455 198.271176 
L 227.889091 198.271176 
z
" style="fill:#1a1a1a;"/>
   </g>
   <g id="patch_104">
    <path clip-path="url(#p0cb0d2ec7d)" d="M 229.909455 200.06 
L 231.929818 200.06 
L 231.929818 198.518017 
L 229.909455 198.518017 
z
" style="fill:#1a1a1a;"/>
   </g>
   <g id="patch_105">
    <path clip-path="url(#p0cb0d2ec7d)" d="M 231.929818 200.06 
L 233.950182 200.06 
L 233.950182 198.646617 
L 231.929818 198.646617 
z
" style="fill:#1a1a1a;"/>
   </g>
   <g id="patch_106">
    <path clip-path="url(#p0cb0d2ec7d)" d="M 233.950182 200.06 
L 235.970545 200.06 
L 235.970545 198.724754 
L 233.950182 198.724754 
z
" style="fill:#1a1a1a;"/>
   </g>
   <g id="patch_107">
    <path clip-path="url(#p0cb0d2ec7d)" d="M 235.970545 200.06 
L 237.990909 200.06 
L 237.990909 198.85525 
L 235.970545 198.85525 
z
" style="fill:#1a1a1a;"/>
   </g>
   <g id="patch_108">
    <path clip-path="url(#p0cb0d2ec7d)" d="M 237.990909 200.06 
L 240.011273 200.06 
L 240.011273 198.892563 
L 237.990909 198.892563 
z
" style="fill:#1a1a1a;"/>
   </g>
   <g id="patch_109">
    <path clip-path="url(#p0cb0d2ec7d)" d="M 240.011273 200.06 
L 242.031636 200.06 
L 242.031636 198.957525 
L 240.011273 198.957525 
z
" style="fill:#1a1a1a;"/>
   </g>
   <g id="patch_110">
    <path clip-path="url(#p0cb0d2ec7d)" d="M 242.031636 200.06 
L 244.052 200.06 
L 244.052 198.998699 
L 242.031636 198.998699 
z
" style="fill:#1a1a1a;"/>
   </g>
   <g id="patch_111">
    <path clip-path="url(#p0cb0d2ec7d)" d="M 244.052 200.06 
L 246.072364 200.06 
L 246.072364 199.092974 
L 244.052 199.092974 
z
" style="fill:#1a1a1a;"/>
   </g>
   <g id="patch_112">
    <path clip-path="url(#p0cb0d2ec7d)" d="M 246.072364 200.06 
L 248.092727 200.06 
L 248.092727 199.098264 
L 246.072364 199.098264 
z
" style="fill:#1a1a1a;"/>
   </g>
   <g id="patch_113">
    <path clip-path="url(#p0cb0d2ec7d)" d="M 248.092727 200.06 
L 250.113091 200.06 
L 250.113091 199.133123 
L 248.092727 199.133123 
z
" style="fill:#1a1a1a;"/>
   </g>
   <g id="patch_114">
    <path clip-path="url(#p0cb0d2ec7d)" d="M 250.113091 200.06 
L 252.133455 200.06 
L 252.133455 199.154833 
L 250.113091 199.154833 
z
" style="fill:#1a1a1a;"/>
   </g>
   <g id="patch_115">
    <path clip-path="url(#p0cb0d2ec7d)" d="M 252.133455 200.06 
L 254.153818 200.06 
L 254.153818 199.204724 
L 252.133455 199.204724 
z
" style="fill:#1a1a1a;"/>
   </g>
   <g id="patch_116">
    <path clip-path="url(#p0cb0d2ec7d)" d="M 254.153818 200.06 
L 256.174182 200.06 
L 256.174182 199.276611 
L 254.153818 199.276611 
z
" style="fill:#1a1a1a;"/>
   </g>
   <g id="patch_117">
    <path clip-path="url(#p0cb0d2ec7d)" d="M 256.174182 200.06 
L 258.194545 200.06 
L 258.194545 199.311725 
L 256.174182 199.311725 
z
" style="fill:#1a1a1a;"/>
   </g>
   <g id="patch_118">
    <path clip-path="url(#p0cb0d2ec7d)" d="M 258.194545 200.06 
L 260.214909 200.06 
L 260.214909 199.334459 
L 258.194545 199.334459 
z
" style="fill:#1a1a1a;"/>
   </g>
   <g id="patch_119">
    <path clip-path="url(#p0cb0d2ec7d)" d="M 260.214909 200.06 
L 262.235273 200.06 
L 262.235273 199.338521 
L 260.214909 199.338521 
z
" style="fill:#1a1a1a;"/>
   </g>
   <g id="patch_120">
    <path clip-path="url(#p0cb0d2ec7d)" d="M 262.235273 200.06 
L 264.255636 200.06 
L 264.255636 199.363829 
L 262.235273 199.363829 
z
" style="fill:#1a1a1a;"/>
   </g>
   <g id="patch_121">
    <path clip-path="url(#p0cb0d2ec7d)" d="M 264.255636 200.06 
L 266.276 200.06 
L 266.276 199.369646 
L 264.255636 199.369646 
z
" style="fill:#1a1a1a;"/>
   </g>
   <g id="patch_122">
    <path clip-path="url(#p0cb0d2ec7d)" d="M 266.276 200.06 
L 268.296364 200.06 
L 268.296364 199.423814 
L 266.276 199.423814 
z
" style="fill:#1a1a1a;"/>
   </g>
   <g id="patch_123">
    <path clip-path="url(#p0cb0d2ec7d)" d="M 268.296364 200.06 
L 270.316727 200.06 
L 270.316727 199.470749 
L 268.296364 199.470749 
z
" style="fill:#1a1a1a;"/>
   </g>
   <g id="patch_124">
    <path clip-path="url(#p0cb0d2ec7d)" d="M 270.316727 200.06 
L 272.337091 200.06 
L 272.337091 199.521856 
L 270.316727 199.521856 
z
" style="fill:#1a1a1a;"/>
   </g>
   <g id="patch_125">
    <path clip-path="url(#p0cb0d2ec7d)" d="M 272.337091 200.06 
L 274.357455 200.06 
L 274.357455 199.574664 
L 272.337091 199.574664 
z
" style="fill:#1a1a1a;"/>
   </g>
   <g id="patch_126">
    <path clip-path="url(#p0cb0d2ec7d)" d="M 274.357455 200.06 
L 276.377818 200.06 
L 276.377818 199.582867 
L 274.357455 199.582867 
z
" style="fill:#1a1a1a;"/>
   </g>
   <g id="patch_127">
    <path clip-path="url(#p0cb0d2ec7d)" d="M 276.377818 200.06 
L 278.398182 200.06 
L 278.398182 199.602786 
L 276.377818 199.602786 
z
" style="fill:#1a1a1a;"/>
   </g>
   <g id="patch_128">
    <path clip-path="url(#p0cb0d2ec7d)" d="M 278.398182 200.06 
L 280.418545 200.06 
L 280.418545 199.616279 
L 278.398182 199.616279 
z
" style="fill:#1a1a1a;"/>
   </g>
   <g id="patch_129">
    <path clip-path="url(#p0cb0d2ec7d)" d="M 280.418545 200.06 
L 282.438909 200.06 
L 282.438909 199.66202 
L 280.418545 199.66202 
z
" style="fill:#1a1a1a;"/>
   </g>
   <g id="patch_130">
    <path clip-path="url(#p0cb0d2ec7d)" d="M 282.438909 200.06 
L 284.459273 200.06 
L 284.459273 199.672191 
L 282.438909 199.672191 
z
" style="fill:#1a1a1a;"/>
   </g>
   <g id="patch_131">
    <path clip-path="url(#p0cb0d2ec7d)" d="M 284.459273 200.06 
L 286.479636 200.06 
L 286.479636 199.682441 
L 284.459273 199.682441 
z
" style="fill:#1a1a1a;"/>
   </g>
   <g id="patch_132">
    <path clip-path="url(#p0cb0d2ec7d)" d="M 286.479636 200.06 
L 288.5 200.06 
L 288.5 199.704832 
L 286.479636 199.704832 
z
" style="fill:#1a1a1a;"/>
   </g>
   <g id="patch_133">
    <path clip-path="url(#p0cb0d2ec7d)" d="M 288.5 200.06 
L 290.520364 200.06 
L 290.520364 199.715739 
L 288.5 199.715739 
z
" style="fill:#1a1a1a;"/>
   </g>
   <g id="patch_134">
    <path clip-path="url(#p0cb0d2ec7d)" d="M 290.520364 200.06 
L 292.540727 200.06 
L 292.540727 199.722821 
L 290.520364 199.722821 
z
" style="fill:#1a1a1a;"/>
   </g>
   <g id="patch_135">
    <path clip-path="url(#p0cb0d2ec7d)" d="M 292.540727 200.06 
L 294.561091 200.06 
L 294.561091 199.736632 
L 292.540727 199.736632 
z
" style="fill:#1a1a1a;"/>
   </g>
   <g id="patch_136">
    <path clip-path="url(#p0cb0d2ec7d)" d="M 294.561091 200.06 
L 296.581455 200.06 
L 296.581455 199.739113 
L 294.561091 199.739113 
z
" style="fill:#1a1a1a;"/>
   </g>
   <g id="patch_137">
    <path clip-path="url(#p0cb0d2ec7d)" d="M 296.581455 200.06 
L 298.601818 200.06 
L 298.601818 199.753886 
L 296.581455 199.753886 
z
" style="fill:#1a1a1a;"/>
   </g>
   <g id="patch_138">
    <path clip-path="url(#p0cb0d2ec7d)" d="M 298.601818 200.06 
L 300.622182 200.06 
L 300.622182 199.763464 
L 298.601818 199.763464 
z
" style="fill:#1a1a1a;"/>
   </g>
   <g id="patch_139">
    <path clip-path="url(#p0cb0d2ec7d)" d="M 300.622182 200.06 
L 302.642545 200.06 
L 302.642545 199.767848 
L 300.622182 199.767848 
z
" style="fill:#1a1a1a;"/>
   </g>
   <g id="patch_140">
    <path clip-path="url(#p0cb0d2ec7d)" d="M 302.642545 200.06 
L 304.662909 200.06 
L 304.662909 199.771188 
L 302.642545 199.771188 
z
" style="fill:#1a1a1a;"/>
   </g>
   <g id="patch_141">
    <path clip-path="url(#p0cb0d2ec7d)" d="M 304.662909 200.06 
L 306.683273 200.06 
L 306.683273 199.78061 
L 304.662909 199.78061 
z
" style="fill:#1a1a1a;"/>
   </g>
   <g id="patch_142">
    <path clip-path="url(#p0cb0d2ec7d)" d="M 306.683273 200.06 
L 308.703636 200.06 
L 308.703636 199.793162 
L 306.683273 199.793162 
z
" style="fill:#1a1a1a;"/>
   </g>
   <g id="patch_143">
    <path clip-path="url(#p0cb0d2ec7d)" d="M 308.703636 200.06 
L 310.724 200.06 
L 310.724 199.797557 
L 308.703636 199.797557 
z
" style="fill:#1a1a1a;"/>
   </g>
   <g id="patch_144">
    <path clip-path="url(#p0cb0d2ec7d)" d="M 310.724 200.06 
L 312.744364 200.06 
L 312.744364 199.801136 
L 310.724 199.801136 
z
" style="fill:#1a1a1a;"/>
   </g>
   <g id="patch_145">
    <path clip-path="url(#p0cb0d2ec7d)" d="M 312.744364 200.06 
L 314.764727 200.06 
L 314.764727 199.809058 
L 312.744364 199.809058 
z
" style="fill:#1a1a1a;"/>
   </g>
   <g id="patch_146">
    <path clip-path="url(#p0cb0d2ec7d)" d="M 314.764727 200.06 
L 316.785091 200.06 
L 316.785091 199.819945 
L 314.764727 199.819945 
z
" style="fill:#1a1a1a;"/>
   </g>
   <g id="patch_147">
    <path clip-path="url(#p0cb0d2ec7d)" d="M 316.785091 200.06 
L 318.805455 200.06 
L 318.805455 199.8262 
L 316.785091 199.8262 
z
" style="fill:#1a1a1a;"/>
   </g>
   <g id="patch_148">
    <path clip-path="url(#p0cb0d2ec7d)" d="M 318.805455 200.06 
L 320.825818 200.06 
L 320.825818 199.82737 
L 318.805455 199.82737 
z
" style="fill:#1a1a1a;"/>
   </g>
   <g id="patch_149">
    <path clip-path="url(#p0cb0d2ec7d)" d="M 320.825818 200.06 
L 322.846182 200.06 
L 322.846182 199.83181 
L 320.825818 199.83181 
z
" style="fill:#1a1a1a;"/>
   </g>
   <g id="patch_150">
    <path clip-path="url(#p0cb0d2ec7d)" d="M 322.846182 200.06 
L 324.866545 200.06 
L 324.866545 199.834832 
L 322.846182 199.834832 
z
" style="fill:#1a1a1a;"/>
   </g>
   <g id="patch_151">
    <path clip-path="url(#p0cb0d2ec7d)" d="M 324.866545 200.06 
L 326.886909 200.06 
L 326.886909 199.838195 
L 324.866545 199.838195 
z
" style="fill:#1a1a1a;"/>
   </g>
   <g id="patch_152">
    <path clip-path="url(#p0cb0d2ec7d)" d="M 326.886909 200.06 
L 328.907273 200.06 
L 328.907273 199.839262 
L 326.886909 199.839262 
z
" style="fill:#1a1a1a;"/>
   </g>
   <g id="matplotlib.axis_1"/>
   <g id="matplotlib.axis_2"/>
   <g id="patch_153">
    <path d="M 10.7 200.06 
L 10.7 10.7 
" style="fill:none;stroke:#000000;stroke-linecap:square;stroke-linejoin:miter;stroke-width:0.8;"/>
   </g>
   <g id="patch_154">
    <path d="M 344.06 200.06 
L 344.06 10.7 
" style="fill:none;stroke:#000000;stroke-linecap:square;stroke-linejoin:miter;stroke-width:0.8;"/>
   </g>
   <g id="patch_155">
    <path d="M 10.7 200.06 
L 344.06 200.06 
" style="fill:none;stroke:#000000;stroke-linecap:square;stroke-linejoin:miter;stroke-width:0.8;"/>
   </g>
   <g id="patch_156">
    <path d="M 10.7 10.7 
L 344.06 10.7 
" style="fill:none;stroke:#000000;stroke-linecap:square;stroke-linejoin:miter;stroke-width:0.8;"/>
   </g>
  </g>
 </g>
 <defs>
  <clipPath id="p0cb0d2ec7d">
   <rect height="189.36" width="333.36" x="10.7" y="10.7"/>
  </clipPath>
 </defs>
</svg>
