<?xml version="1.0" encoding="utf-8" standalone="no"?>
<!DOCTYPE svg PUBLIC "-//W3C//DTD SVG 1.1//EN"
  "http://www.w3.org/Graphics/SVG/1.1/DTD/svg11.dtd">
<!-- Created with matplotlib (http://matplotlib.org/) -->
<svg height="210pt" version="1.1" viewBox="0 0 354 210" width="354pt" xmlns="http://www.w3.org/2000/svg" xmlns:xlink="http://www.w3.org/1999/xlink">
 <defs>
  <style type="text/css">
*{stroke-linecap:butt;stroke-linejoin:round;}
  </style>
 </defs>
 <g id="figure_1">
  <g id="patch_1">
   <path d="M 0 210.76 
L 354.76 210.76 
L 354.76 0 
L 0 0 
z
" style="fill:#ffffff;"/>
  </g>
  <g id="axes_1">
   <g id="patch_2">
    <path d="M 10.7 200.06 
L 344.06 200.06 
L 344.06 10.7 
L 10.7 10.7 
z
" style="fill:#ffffff;"/>
   </g>
   <g id="patch_3">
    <path clip-path="url(#p559b2459c1)" d="M 25.852727 200.06 
L 27.873091 200.06 
L 27.873091 199.88523 
L 25.852727 199.88523 
z
" style="fill:#1a1a1a;"/>
   </g>
   <g id="patch_4">
    <path clip-path="url(#p559b2459c1)" d="M 27.873091 200.06 
L 29.893455 200.06 
L 29.893455 199.877706 
L 27.873091 199.877706 
z
" style="fill:#1a1a1a;"/>
   </g>
   <g id="patch_5">
    <path clip-path="url(#p559b2459c1)" d="M 29.893455 200.06 
L 31.913818 200.06 
L 31.913818 199.873965 
L 29.893455 199.873965 
z
" style="fill:#1a1a1a;"/>
   </g>
   <g id="patch_6">
    <path clip-path="url(#p559b2459c1)" d="M 31.913818 200.06 
L 33.934182 200.06 
L 33.934182 199.863031 
L 31.913818 199.863031 
z
" style="fill:#1a1a1a;"/>
   </g>
   <g id="patch_7">
    <path clip-path="url(#p559b2459c1)" d="M 33.934182 200.06 
L 35.954545 200.06 
L 35.954545 199.859232 
L 33.934182 199.859232 
z
" style="fill:#1a1a1a;"/>
   </g>
   <g id="patch_8">
    <path clip-path="url(#p559b2459c1)" d="M 35.954545 200.06 
L 37.974909 200.06 
L 37.974909 199.854302 
L 35.954545 199.854302 
z
" style="fill:#1a1a1a;"/>
   </g>
   <g id="patch_9">
    <path clip-path="url(#p559b2459c1)" d="M 37.974909 200.06 
L 39.995273 200.06 
L 39.995273 199.853163 
L 37.974909 199.853163 
z
" style="fill:#1a1a1a;"/>
   </g>
   <g id="patch_10">
    <path clip-path="url(#p559b2459c1)" d="M 39.995273 200.06 
L 42.015636 200.06 
L 42.015636 199.838547 
L 39.995273 199.838547 
z
" style="fill:#1a1a1a;"/>
   </g>
   <g id="patch_11">
    <path clip-path="url(#p559b2459c1)" d="M 42.015636 200.06 
L 44.036 200.06 
L 44.036 199.830837 
L 42.015636 199.830837 
z
" style="fill:#1a1a1a;"/>
   </g>
   <g id="patch_12">
    <path clip-path="url(#p559b2459c1)" d="M 44.036 200.06 
L 46.056364 200.06 
L 46.056364 199.828924 
L 44.036 199.828924 
z
" style="fill:#1a1a1a;"/>
   </g>
   <g id="patch_13">
    <path clip-path="url(#p559b2459c1)" d="M 46.056364 200.06 
L 48.076727 200.06 
L 48.076727 199.825608 
L 46.056364 199.825608 
z
" style="fill:#1a1a1a;"/>
   </g>
   <g id="patch_14">
    <path clip-path="url(#p559b2459c1)" d="M 48.076727 200.06 
L 50.097091 200.06 
L 50.097091 199.819512 
L 48.076727 199.819512 
z
" style="fill:#1a1a1a;"/>
   </g>
   <g id="patch_15">
    <path clip-path="url(#p559b2459c1)" d="M 50.097091 200.06 
L 52.117455 200.06 
L 52.117455 199.809922 
L 50.097091 199.809922 
z
" style="fill:#1a1a1a;"/>
   </g>
   <g id="patch_16">
    <path clip-path="url(#p559b2459c1)" d="M 52.117455 200.06 
L 54.137818 200.06 
L 54.137818 199.786183 
L 52.117455 199.786183 
z
" style="fill:#1a1a1a;"/>
   </g>
   <g id="patch_17">
    <path clip-path="url(#p559b2459c1)" d="M 54.137818 200.06 
L 56.158182 200.06 
L 56.158182 199.7771 
L 54.137818 199.7771 
z
" style="fill:#1a1a1a;"/>
   </g>
   <g id="patch_18">
    <path clip-path="url(#p559b2459c1)" d="M 56.158182 200.06 
L 58.178545 200.06 
L 58.178545 199.764278 
L 56.158182 199.764278 
z
" style="fill:#1a1a1a;"/>
   </g>
   <g id="patch_19">
    <path clip-path="url(#p559b2459c1)" d="M 58.178545 200.06 
L 60.198909 200.06 
L 60.198909 199.755937 
L 58.178545 199.755937 
z
" style="fill:#1a1a1a;"/>
   </g>
   <g id="patch_20">
    <path clip-path="url(#p559b2459c1)" d="M 60.198909 200.06 
L 62.219273 200.06 
L 62.219273 199.744821 
L 60.198909 199.744821 
z
" style="fill:#1a1a1a;"/>
   </g>
   <g id="patch_21">
    <path clip-path="url(#p559b2459c1)" d="M 62.219273 200.06 
L 64.239636 200.06 
L 64.239636 199.726269 
L 62.219273 199.726269 
z
" style="fill:#1a1a1a;"/>
   </g>
   <g id="patch_22">
    <path clip-path="url(#p559b2459c1)" d="M 64.239636 200.06 
L 66.26 200.06 
L 66.26 199.717006 
L 64.239636 199.717006 
z
" style="fill:#1a1a1a;"/>
   </g>
   <g id="patch_23">
    <path clip-path="url(#p559b2459c1)" d="M 66.26 200.06 
L 68.280364 200.06 
L 68.280364 199.706865 
L 66.26 199.706865 
z
" style="fill:#1a1a1a;"/>
   </g>
   <g id="patch_24">
    <path clip-path="url(#p559b2459c1)" d="M 68.280364 200.06 
L 70.300727 200.06 
L 70.300727 199.696057 
L 68.280364 199.696057 
z
" style="fill:#1a1a1a;"/>
   </g>
   <g id="patch_25">
    <path clip-path="url(#p559b2459c1)" d="M 70.300727 200.06 
L 72.321091 200.06 
L 72.321091 199.68987 
L 70.300727 199.68987 
z
" style="fill:#1a1a1a;"/>
   </g>
   <g id="patch_26">
    <path clip-path="url(#p559b2459c1)" d="M 72.321091 200.06 
L 74.341455 200.06 
L 74.341455 199.680563 
L 72.321091 199.680563 
z
" style="fill:#1a1a1a;"/>
   </g>
   <g id="patch_27">
    <path clip-path="url(#p559b2459c1)" d="M 74.341455 200.06 
L 76.361818 200.06 
L 76.361818 199.666859 
L 74.341455 199.666859 
z
" style="fill:#1a1a1a;"/>
   </g>
   <g id="patch_28">
    <path clip-path="url(#p559b2459c1)" d="M 76.361818 200.06 
L 78.382182 200.06 
L 78.382182 199.636986 
L 76.361818 199.636986 
z
" style="fill:#1a1a1a;"/>
   </g>
   <g id="patch_29">
    <path clip-path="url(#p559b2459c1)" d="M 78.382182 200.06 
L 80.402545 200.06 
L 80.402545 199.61655 
L 78.382182 199.61655 
z
" style="fill:#1a1a1a;"/>
   </g>
   <g id="patch_30">
    <path clip-path="url(#p559b2459c1)" d="M 80.402545 200.06 
L 82.422909 200.06 
L 82.422909 199.604831 
L 80.402545 199.604831 
z
" style="fill:#1a1a1a;"/>
   </g>
   <g id="patch_31">
    <path clip-path="url(#p559b2459c1)" d="M 82.422909 200.06 
L 84.443273 200.06 
L 84.443273 199.56177 
L 82.422909 199.56177 
z
" style="fill:#1a1a1a;"/>
   </g>
   <g id="patch_32">
    <path clip-path="url(#p559b2459c1)" d="M 84.443273 200.06 
L 86.463636 200.06 
L 86.463636 199.433739 
L 84.443273 199.433739 
z
" style="fill:#1a1a1a;"/>
   </g>
   <g id="patch_33">
    <path clip-path="url(#p559b2459c1)" d="M 86.463636 200.06 
L 88.484 200.06 
L 88.484 199.404516 
L 86.463636 199.404516 
z
" style="fill:#1a1a1a;"/>
   </g>
   <g id="patch_34">
    <path clip-path="url(#p559b2459c1)" d="M 88.484 200.06 
L 90.504364 200.06 
L 90.504364 199.381364 
L 88.484 199.381364 
z
" style="fill:#1a1a1a;"/>
   </g>
   <g id="patch_35">
    <path clip-path="url(#p559b2459c1)" d="M 90.504364 200.06 
L 92.524727 200.06 
L 92.524727 199.369763 
L 90.504364 199.369763 
z
" style="fill:#1a1a1a;"/>
   </g>
   <g id="patch_36">
    <path clip-path="url(#p559b2459c1)" d="M 92.524727 200.06 
L 94.545091 200.06 
L 94.545091 199.274837 
L 92.524727 199.274837 
z
" style="fill:#1a1a1a;"/>
   </g>
   <g id="patch_37">
    <path clip-path="url(#p559b2459c1)" d="M 94.545091 200.06 
L 96.565455 200.06 
L 96.565455 199.14417 
L 94.545091 199.14417 
z
" style="fill:#1a1a1a;"/>
   </g>
   <g id="patch_38">
    <path clip-path="url(#p559b2459c1)" d="M 96.565455 200.06 
L 98.585818 200.06 
L 98.585818 199.131275 
L 96.565455 199.131275 
z
" style="fill:#1a1a1a;"/>
   </g>
   <g id="patch_39">
    <path clip-path="url(#p559b2459c1)" d="M 98.585818 200.06 
L 100.606182 200.06 
L 100.606182 199.098341 
L 98.585818 199.098341 
z
" style="fill:#1a1a1a;"/>
   </g>
   <g id="patch_40">
    <path clip-path="url(#p559b2459c1)" d="M 100.606182 200.06 
L 102.626545 200.06 
L 102.626545 199.00463 
L 100.606182 199.00463 
z
" style="fill:#1a1a1a;"/>
   </g>
   <g id="patch_41">
    <path clip-path="url(#p559b2459c1)" d="M 102.626545 200.06 
L 104.646909 200.06 
L 104.646909 198.867677 
L 102.626545 198.867677 
z
" style="fill:#1a1a1a;"/>
   </g>
   <g id="patch_42">
    <path clip-path="url(#p559b2459c1)" d="M 104.646909 200.06 
L 106.667273 200.06 
L 106.667273 198.764306 
L 104.646909 198.764306 
z
" style="fill:#1a1a1a;"/>
   </g>
   <g id="patch_43">
    <path clip-path="url(#p559b2459c1)" d="M 106.667273 200.06 
L 108.687636 200.06 
L 108.687636 198.485527 
L 106.667273 198.485527 
z
" style="fill:#1a1a1a;"/>
   </g>
   <g id="patch_44">
    <path clip-path="url(#p559b2459c1)" d="M 108.687636 200.06 
L 110.708 200.06 
L 110.708 198.351997 
L 108.687636 198.351997 
z
" style="fill:#1a1a1a;"/>
   </g>
   <g id="patch_45">
    <path clip-path="url(#p559b2459c1)" d="M 110.708 200.06 
L 112.728364 200.06 
L 112.728364 198.185605 
L 110.708 198.185605 
z
" style="fill:#1a1a1a;"/>
   </g>
   <g id="patch_46">
    <path clip-path="url(#p559b2459c1)" d="M 112.728364 200.06 
L 114.748727 200.06 
L 114.748727 197.431718 
L 112.728364 197.431718 
z
" style="fill:#1a1a1a;"/>
   </g>
   <g id="patch_47">
    <path clip-path="url(#p559b2459c1)" d="M 114.748727 200.06 
L 116.769091 200.06 
L 116.769091 197.163238 
L 114.748727 197.163238 
z
" style="fill:#1a1a1a;"/>
   </g>
   <g id="patch_48">
    <path clip-path="url(#p559b2459c1)" d="M 116.769091 200.06 
L 118.789455 200.06 
L 118.789455 196.97525 
L 116.769091 196.97525 
z
" style="fill:#1a1a1a;"/>
   </g>
   <g id="patch_49">
    <path clip-path="url(#p559b2459c1)" d="M 118.789455 200.06 
L 120.809818 200.06 
L 120.809818 196.722316 
L 118.789455 196.722316 
z
" style="fill:#1a1a1a;"/>
   </g>
   <g id="patch_50">
    <path clip-path="url(#p559b2459c1)" d="M 120.809818 200.06 
L 122.830182 200.06 
L 122.830182 196.473543 
L 120.809818 196.473543 
z
" style="fill:#1a1a1a;"/>
   </g>
   <g id="patch_51">
    <path clip-path="url(#p559b2459c1)" d="M 122.830182 200.06 
L 124.850545 200.06 
L 124.850545 196.003653 
L 122.830182 196.003653 
z
" style="fill:#1a1a1a;"/>
   </g>
   <g id="patch_52">
    <path clip-path="url(#p559b2459c1)" d="M 124.850545 200.06 
L 126.870909 200.06 
L 126.870909 195.15056 
L 124.850545 195.15056 
z
" style="fill:#1a1a1a;"/>
   </g>
   <g id="patch_53">
    <path clip-path="url(#p559b2459c1)" d="M 126.870909 200.06 
L 128.891273 200.06 
L 128.891273 194.948387 
L 126.870909 194.948387 
z
" style="fill:#1a1a1a;"/>
   </g>
   <g id="patch_54">
    <path clip-path="url(#p559b2459c1)" d="M 128.891273 200.06 
L 130.911636 200.06 
L 130.911636 194.517746 
L 128.891273 194.517746 
z
" style="fill:#1a1a1a;"/>
   </g>
   <g id="patch_55">
    <path clip-path="url(#p559b2459c1)" d="M 130.911636 200.06 
L 132.932 200.06 
L 132.932 194.139644 
L 130.911636 194.139644 
z
" style="fill:#1a1a1a;"/>
   </g>
   <g id="patch_56">
    <path clip-path="url(#p559b2459c1)" d="M 132.932 200.06 
L 134.952364 200.06 
L 134.952364 193.677047 
L 132.932 193.677047 
z
" style="fill:#1a1a1a;"/>
   </g>
   <g id="patch_57">
    <path clip-path="url(#p559b2459c1)" d="M 134.952364 200.06 
L 136.972727 200.06 
L 136.972727 193.343149 
L 134.952364 193.343149 
z
" style="fill:#1a1a1a;"/>
   </g>
   <g id="patch_58">
    <path clip-path="url(#p559b2459c1)" d="M 136.972727 200.06 
L 138.993091 200.06 
L 138.993091 192.933037 
L 136.972727 192.933037 
z
" style="fill:#1a1a1a;"/>
   </g>
   <g id="patch_59">
    <path clip-path="url(#p559b2459c1)" d="M 138.993091 200.06 
L 141.013455 200.06 
L 141.013455 192.383725 
L 138.993091 192.383725 
z
" style="fill:#1a1a1a;"/>
   </g>
   <g id="patch_60">
    <path clip-path="url(#p559b2459c1)" d="M 141.013455 200.06 
L 143.033818 200.06 
L 143.033818 189.567158 
L 141.013455 189.567158 
z
" style="fill:#1a1a1a;"/>
   </g>
   <g id="patch_61">
    <path clip-path="url(#p559b2459c1)" d="M 143.033818 200.06 
L 145.054182 200.06 
L 145.054182 189.126829 
L 143.033818 189.126829 
z
" style="fill:#1a1a1a;"/>
   </g>
   <g id="patch_62">
    <path clip-path="url(#p559b2459c1)" d="M 145.054182 200.06 
L 147.074545 200.06 
L 147.074545 188.388451 
L 145.054182 188.388451 
z
" style="fill:#1a1a1a;"/>
   </g>
   <g id="patch_63">
    <path clip-path="url(#p559b2459c1)" d="M 147.074545 200.06 
L 149.094909 200.06 
L 149.094909 187.159565 
L 147.074545 187.159565 
z
" style="fill:#1a1a1a;"/>
   </g>
   <g id="patch_64">
    <path clip-path="url(#p559b2459c1)" d="M 149.094909 200.06 
L 151.115273 200.06 
L 151.115273 186.402896 
L 149.094909 186.402896 
z
" style="fill:#1a1a1a;"/>
   </g>
   <g id="patch_65">
    <path clip-path="url(#p559b2459c1)" d="M 151.115273 200.06 
L 153.135636 200.06 
L 153.135636 185.122175 
L 151.115273 185.122175 
z
" style="fill:#1a1a1a;"/>
   </g>
   <g id="patch_66">
    <path clip-path="url(#p559b2459c1)" d="M 153.135636 200.06 
L 155.156 200.06 
L 155.156 182.141059 
L 153.135636 182.141059 
z
" style="fill:#1a1a1a;"/>
   </g>
   <g id="patch_67">
    <path clip-path="url(#p559b2459c1)" d="M 155.156 200.06 
L 157.176364 200.06 
L 157.176364 177.021849 
L 155.156 177.021849 
z
" style="fill:#1a1a1a;"/>
   </g>
   <g id="patch_68">
    <path clip-path="url(#p559b2459c1)" d="M 157.176364 200.06 
L 159.196727 200.06 
L 159.196727 172.112233 
L 157.176364 172.112233 
z
" style="fill:#1a1a1a;"/>
   </g>
   <g id="patch_69">
    <path clip-path="url(#p559b2459c1)" d="M 159.196727 200.06 
L 161.217091 200.06 
L 161.217091 163.762143 
L 159.196727 163.762143 
z
" style="fill:#1a1a1a;"/>
   </g>
   <g id="patch_70">
    <path clip-path="url(#p559b2459c1)" d="M 161.217091 200.06 
L 163.237455 200.06 
L 163.237455 155.292072 
L 161.217091 155.292072 
z
" style="fill:#1a1a1a;"/>
   </g>
   <g id="patch_71">
    <path clip-path="url(#p559b2459c1)" d="M 163.237455 200.06 
L 165.257818 200.06 
L 165.257818 153.790901 
L 163.237455 153.790901 
z
" style="fill:#1a1a1a;"/>
   </g>
   <g id="patch_72">
    <path clip-path="url(#p559b2459c1)" d="M 165.257818 200.06 
L 167.278182 200.06 
L 167.278182 129.461959 
L 165.257818 129.461959 
z
" style="fill:#1a1a1a;"/>
   </g>
   <g id="patch_73">
    <path clip-path="url(#p559b2459c1)" d="M 167.278182 200.06 
L 169.298545 200.06 
L 169.298545 121.510069 
L 167.278182 121.510069 
z
" style="fill:#1a1a1a;"/>
   </g>
   <g id="patch_74">
    <path clip-path="url(#p559b2459c1)" d="M 169.298545 200.06 
L 171.318909 200.06 
L 171.318909 119.087247 
L 169.298545 119.087247 
z
" style="fill:#1a1a1a;"/>
   </g>
   <g id="patch_75">
    <path clip-path="url(#p559b2459c1)" d="M 171.318909 200.06 
L 173.339273 200.06 
L 173.339273 118.118439 
L 171.318909 118.118439 
z
" style="fill:#1a1a1a;"/>
   </g>
   <g id="patch_76">
    <path clip-path="url(#p559b2459c1)" d="M 173.339273 200.06 
L 175.359636 200.06 
L 175.359636 113.596249 
L 173.339273 113.596249 
z
" style="fill:#1a1a1a;"/>
   </g>
   <g id="patch_77">
    <path clip-path="url(#p559b2459c1)" d="M 175.359636 200.06 
L 177.38 200.06 
L 177.38 112.536809 
L 175.359636 112.536809 
z
" style="fill:#1a1a1a;"/>
   </g>
   <g id="patch_78">
    <path clip-path="url(#p559b2459c1)" d="M 177.38 200.06 
L 179.400364 200.06 
L 179.400364 112.408259 
L 177.38 112.408259 
z
" style="fill:#1a1a1a;"/>
   </g>
   <g id="patch_79">
    <path clip-path="url(#p559b2459c1)" d="M 179.400364 200.06 
L 181.420727 200.06 
L 181.420727 112.654333 
L 179.400364 112.654333 
z
" style="fill:#1a1a1a;"/>
   </g>
   <g id="patch_80">
    <path clip-path="url(#p559b2459c1)" d="M 181.420727 200.06 
L 183.441091 200.06 
L 183.441091 115.040249 
L 181.420727 115.040249 
z
" style="fill:#1a1a1a;"/>
   </g>
   <g id="patch_81">
    <path clip-path="url(#p559b2459c1)" d="M 183.441091 200.06 
L 185.461455 200.06 
L 185.461455 119.013604 
L 183.441091 119.013604 
z
" style="fill:#1a1a1a;"/>
   </g>
   <g id="patch_82">
    <path clip-path="url(#p559b2459c1)" d="M 185.461455 200.06 
L 187.481818 200.06 
L 187.481818 119.148583 
L 185.461455 119.148583 
z
" style="fill:#1a1a1a;"/>
   </g>
   <g id="patch_83">
    <path clip-path="url(#p559b2459c1)" d="M 187.481818 200.06 
L 189.502182 200.06 
L 189.502182 127.771258 
L 187.481818 127.771258 
z
" style="fill:#1a1a1a;"/>
   </g>
   <g id="patch_84">
    <path clip-path="url(#p559b2459c1)" d="M 189.502182 200.06 
L 191.522545 200.06 
L 191.522545 146.969514 
L 189.502182 146.969514 
z
" style="fill:#1a1a1a;"/>
   </g>
   <g id="patch_85">
    <path clip-path="url(#p559b2459c1)" d="M 191.522545 200.06 
L 193.542909 200.06 
L 193.542909 153.79508 
L 191.522545 153.79508 
z
" style="fill:#1a1a1a;"/>
   </g>
   <g id="patch_86">
    <path clip-path="url(#p559b2459c1)" d="M 193.542909 200.06 
L 195.563273 200.06 
L 195.563273 160.7698 
L 193.542909 160.7698 
z
" style="fill:#1a1a1a;"/>
   </g>
   <g id="patch_87">
    <path clip-path="url(#p559b2459c1)" d="M 195.563273 200.06 
L 197.583636 200.06 
L 197.583636 166.988098 
L 195.563273 166.988098 
z
" style="fill:#1a1a1a;"/>
   </g>
   <g id="patch_88">
    <path clip-path="url(#p559b2459c1)" d="M 197.583636 200.06 
L 199.604 200.06 
L 199.604 175.574465 
L 197.583636 175.574465 
z
" style="fill:#1a1a1a;"/>
   </g>
   <g id="patch_89">
    <path clip-path="url(#p559b2459c1)" d="M 199.604 200.06 
L 201.624364 200.06 
L 201.624364 178.339252 
L 199.604 178.339252 
z
" style="fill:#1a1a1a;"/>
   </g>
   <g id="patch_90">
    <path clip-path="url(#p559b2459c1)" d="M 201.624364 200.06 
L 203.644727 200.06 
L 203.644727 184.715704 
L 201.624364 184.715704 
z
" style="fill:#1a1a1a;"/>
   </g>
   <g id="patch_91">
    <path clip-path="url(#p559b2459c1)" d="M 203.644727 200.06 
L 205.665091 200.06 
L 205.665091 186.253242 
L 203.644727 186.253242 
z
" style="fill:#1a1a1a;"/>
   </g>
   <g id="patch_92">
    <path clip-path="url(#p559b2459c1)" d="M 205.665091 200.06 
L 207.685455 200.06 
L 207.685455 186.700902 
L 205.665091 186.700902 
z
" style="fill:#1a1a1a;"/>
   </g>
   <g id="patch_93">
    <path clip-path="url(#p559b2459c1)" d="M 207.685455 200.06 
L 209.705818 200.06 
L 209.705818 187.583212 
L 207.685455 187.583212 
z
" style="fill:#1a1a1a;"/>
   </g>
   <g id="patch_94">
    <path clip-path="url(#p559b2459c1)" d="M 209.705818 200.06 
L 211.726182 200.06 
L 211.726182 188.45906 
L 209.705818 188.45906 
z
" style="fill:#1a1a1a;"/>
   </g>
   <g id="patch_95">
    <path clip-path="url(#p559b2459c1)" d="M 211.726182 200.06 
L 213.746545 200.06 
L 213.746545 189.225102 
L 211.726182 189.225102 
z
" style="fill:#1a1a1a;"/>
   </g>
   <g id="patch_96">
    <path clip-path="url(#p559b2459c1)" d="M 213.746545 200.06 
L 215.766909 200.06 
L 215.766909 190.361545 
L 213.746545 190.361545 
z
" style="fill:#1a1a1a;"/>
   </g>
   <g id="patch_97">
    <path clip-path="url(#p559b2459c1)" d="M 215.766909 200.06 
L 217.787273 200.06 
L 217.787273 192.695306 
L 215.766909 192.695306 
z
" style="fill:#1a1a1a;"/>
   </g>
   <g id="patch_98">
    <path clip-path="url(#p559b2459c1)" d="M 217.787273 200.06 
L 219.807636 200.06 
L 219.807636 192.981389 
L 217.787273 192.981389 
z
" style="fill:#1a1a1a;"/>
   </g>
   <g id="patch_99">
    <path clip-path="url(#p559b2459c1)" d="M 219.807636 200.06 
L 221.828 200.06 
L 221.828 193.608153 
L 219.807636 193.608153 
z
" style="fill:#1a1a1a;"/>
   </g>
   <g id="patch_100">
    <path clip-path="url(#p559b2459c1)" d="M 221.828 200.06 
L 223.848364 200.06 
L 223.848364 193.867211 
L 221.828 193.867211 
z
" style="fill:#1a1a1a;"/>
   </g>
   <g id="patch_101">
    <path clip-path="url(#p559b2459c1)" d="M 223.848364 200.06 
L 225.868727 200.06 
L 225.868727 194.499675 
L 223.848364 194.499675 
z
" style="fill:#1a1a1a;"/>
   </g>
   <g id="patch_102">
    <path clip-path="url(#p559b2459c1)" d="M 225.868727 200.06 
L 227.889091 200.06 
L 227.889091 194.803093 
L 225.868727 194.803093 
z
" style="fill:#1a1a1a;"/>
   </g>
   <g id="patch_103">
    <path clip-path="url(#p559b2459c1)" d="M 227.889091 200.06 
L 229.909455 200.06 
L 229.909455 194.979853 
L 227.889091 194.979853 
z
" style="fill:#1a1a1a;"/>
   </g>
   <g id="patch_104">
    <path clip-path="url(#p559b2459c1)" d="M 229.909455 200.06 
L 231.929818 200.06 
L 231.929818 195.603012 
L 229.909455 195.603012 
z
" style="fill:#1a1a1a;"/>
   </g>
   <g id="patch_105">
    <path clip-path="url(#p559b2459c1)" d="M 231.929818 200.06 
L 233.950182 200.06 
L 233.950182 196.393614 
L 231.929818 196.393614 
z
" style="fill:#1a1a1a;"/>
   </g>
   <g id="patch_106">
    <path clip-path="url(#p559b2459c1)" d="M 233.950182 200.06 
L 235.970545 200.06 
L 235.970545 196.692728 
L 233.950182 196.692728 
z
" style="fill:#1a1a1a;"/>
   </g>
   <g id="patch_107">
    <path clip-path="url(#p559b2459c1)" d="M 235.970545 200.06 
L 237.990909 200.06 
L 237.990909 196.884272 
L 235.970545 196.884272 
z
" style="fill:#1a1a1a;"/>
   </g>
   <g id="patch_108">
    <path clip-path="url(#p559b2459c1)" d="M 237.990909 200.06 
L 240.011273 200.06 
L 240.011273 197.10548 
L 237.990909 197.10548 
z
" style="fill:#1a1a1a;"/>
   </g>
   <g id="patch_109">
    <path clip-path="url(#p559b2459c1)" d="M 240.011273 200.06 
L 242.031636 200.06 
L 242.031636 197.194615 
L 240.011273 197.194615 
z
" style="fill:#1a1a1a;"/>
   </g>
   <g id="patch_110">
    <path clip-path="url(#p559b2459c1)" d="M 242.031636 200.06 
L 244.052 200.06 
L 244.052 197.63214 
L 242.031636 197.63214 
z
" style="fill:#1a1a1a;"/>
   </g>
   <g id="patch_111">
    <path clip-path="url(#p559b2459c1)" d="M 244.052 200.06 
L 246.072364 200.06 
L 246.072364 198.287193 
L 244.052 198.287193 
z
" style="fill:#1a1a1a;"/>
   </g>
   <g id="patch_112">
    <path clip-path="url(#p559b2459c1)" d="M 246.072364 200.06 
L 248.092727 200.06 
L 248.092727 198.378159 
L 246.072364 198.378159 
z
" style="fill:#1a1a1a;"/>
   </g>
   <g id="patch_113">
    <path clip-path="url(#p559b2459c1)" d="M 248.092727 200.06 
L 250.113091 200.06 
L 250.113091 198.629709 
L 248.092727 198.629709 
z
" style="fill:#1a1a1a;"/>
   </g>
   <g id="patch_114">
    <path clip-path="url(#p559b2459c1)" d="M 250.113091 200.06 
L 252.133455 200.06 
L 252.133455 198.80506 
L 250.113091 198.80506 
z
" style="fill:#1a1a1a;"/>
   </g>
   <g id="patch_115">
    <path clip-path="url(#p559b2459c1)" d="M 252.133455 200.06 
L 254.153818 200.06 
L 254.153818 198.872169 
L 252.133455 198.872169 
z
" style="fill:#1a1a1a;"/>
   </g>
   <g id="patch_116">
    <path clip-path="url(#p559b2459c1)" d="M 254.153818 200.06 
L 256.174182 200.06 
L 256.174182 199.054696 
L 254.153818 199.054696 
z
" style="fill:#1a1a1a;"/>
   </g>
   <g id="patch_117">
    <path clip-path="url(#p559b2459c1)" d="M 256.174182 200.06 
L 258.194545 200.06 
L 258.194545 199.129692 
L 256.174182 199.129692 
z
" style="fill:#1a1a1a;"/>
   </g>
   <g id="patch_118">
    <path clip-path="url(#p559b2459c1)" d="M 258.194545 200.06 
L 260.214909 200.06 
L 260.214909 199.137602 
L 258.194545 199.137602 
z
" style="fill:#1a1a1a;"/>
   </g>
   <g id="patch_119">
    <path clip-path="url(#p559b2459c1)" d="M 260.214909 200.06 
L 262.235273 200.06 
L 262.235273 199.232395 
L 260.214909 199.232395 
z
" style="fill:#1a1a1a;"/>
   </g>
   <g id="patch_120">
    <path clip-path="url(#p559b2459c1)" d="M 262.235273 200.06 
L 264.255636 200.06 
L 264.255636 199.276876 
L 262.235273 199.276876 
z
" style="fill:#1a1a1a;"/>
   </g>
   <g id="patch_121">
    <path clip-path="url(#p559b2459c1)" d="M 264.255636 200.06 
L 266.276 200.06 
L 266.276 199.376826 
L 264.255636 199.376826 
z
" style="fill:#1a1a1a;"/>
   </g>
   <g id="patch_122">
    <path clip-path="url(#p559b2459c1)" d="M 266.276 200.06 
L 268.296364 200.06 
L 268.296364 199.385426 
L 266.276 199.385426 
z
" style="fill:#1a1a1a;"/>
   </g>
   <g id="patch_123">
    <path clip-path="url(#p559b2459c1)" d="M 268.296364 200.06 
L 270.316727 200.06 
L 270.316727 199.431428 
L 268.296364 199.431428 
z
" style="fill:#1a1a1a;"/>
   </g>
   <g id="patch_124">
    <path clip-path="url(#p559b2459c1)" d="M 270.316727 200.06 
L 272.337091 200.06 
L 272.337091 199.45389 
L 270.316727 199.45389 
z
" style="fill:#1a1a1a;"/>
   </g>
   <g id="patch_125">
    <path clip-path="url(#p559b2459c1)" d="M 272.337091 200.06 
L 274.357455 200.06 
L 274.357455 199.6034 
L 272.337091 199.6034 
z
" style="fill:#1a1a1a;"/>
   </g>
   <g id="patch_126">
    <path clip-path="url(#p559b2459c1)" d="M 274.357455 200.06 
L 276.377818 200.06 
L 276.377818 199.611732 
L 274.357455 199.611732 
z
" style="fill:#1a1a1a;"/>
   </g>
   <g id="patch_127">
    <path clip-path="url(#p559b2459c1)" d="M 276.377818 200.06 
L 278.398182 200.06 
L 278.398182 199.619029 
L 276.377818 199.619029 
z
" style="fill:#1a1a1a;"/>
   </g>
   <g id="patch_128">
    <path clip-path="url(#p559b2459c1)" d="M 278.398182 200.06 
L 280.418545 200.06 
L 280.418545 199.652486 
L 278.398182 199.652486 
z
" style="fill:#1a1a1a;"/>
   </g>
   <g id="patch_129">
    <path clip-path="url(#p559b2459c1)" d="M 280.418545 200.06 
L 282.438909 200.06 
L 282.438909 199.669012 
L 280.418545 199.669012 
z
" style="fill:#1a1a1a;"/>
   </g>
   <g id="patch_130">
    <path clip-path="url(#p559b2459c1)" d="M 282.438909 200.06 
L 284.459273 200.06 
L 284.459273 199.681911 
L 282.438909 199.681911 
z
" style="fill:#1a1a1a;"/>
   </g>
   <g id="patch_131">
    <path clip-path="url(#p559b2459c1)" d="M 284.459273 200.06 
L 286.479636 200.06 
L 286.479636 199.693875 
L 284.459273 199.693875 
z
" style="fill:#1a1a1a;"/>
   </g>
   <g id="patch_132">
    <path clip-path="url(#p559b2459c1)" d="M 286.479636 200.06 
L 288.5 200.06 
L 288.5 199.704388 
L 286.479636 199.704388 
z
" style="fill:#1a1a1a;"/>
   </g>
   <g id="patch_133">
    <path clip-path="url(#p559b2459c1)" d="M 288.5 200.06 
L 290.520364 200.06 
L 290.520364 199.710777 
L 288.5 199.710777 
z
" style="fill:#1a1a1a;"/>
   </g>
   <g id="patch_134">
    <path clip-path="url(#p559b2459c1)" d="M 290.520364 200.06 
L 292.540727 200.06 
L 292.540727 199.719268 
L 290.520364 199.719268 
z
" style="fill:#1a1a1a;"/>
   </g>
   <g id="patch_135">
    <path clip-path="url(#p559b2459c1)" d="M 292.540727 200.06 
L 294.561091 200.06 
L 294.561091 199.726481 
L 292.540727 199.726481 
z
" style="fill:#1a1a1a;"/>
   </g>
   <g id="patch_136">
    <path clip-path="url(#p559b2459c1)" d="M 294.561091 200.06 
L 296.581455 200.06 
L 296.581455 199.747628 
L 294.561091 199.747628 
z
" style="fill:#1a1a1a;"/>
   </g>
   <g id="patch_137">
    <path clip-path="url(#p559b2459c1)" d="M 296.581455 200.06 
L 298.601818 200.06 
L 298.601818 199.757587 
L 296.581455 199.757587 
z
" style="fill:#1a1a1a;"/>
   </g>
   <g id="patch_138">
    <path clip-path="url(#p559b2459c1)" d="M 298.601818 200.06 
L 300.622182 200.06 
L 300.622182 199.770204 
L 298.601818 199.770204 
z
" style="fill:#1a1a1a;"/>
   </g>
   <g id="patch_139">
    <path clip-path="url(#p559b2459c1)" d="M 300.622182 200.06 
L 302.642545 200.06 
L 302.642545 199.777163 
L 300.622182 199.777163 
z
" style="fill:#1a1a1a;"/>
   </g>
   <g id="patch_140">
    <path clip-path="url(#p559b2459c1)" d="M 302.642545 200.06 
L 304.662909 200.06 
L 304.662909 199.809453 
L 302.642545 199.809453 
z
" style="fill:#1a1a1a;"/>
   </g>
   <g id="patch_141">
    <path clip-path="url(#p559b2459c1)" d="M 304.662909 200.06 
L 306.683273 200.06 
L 306.683273 199.815255 
L 304.662909 199.815255 
z
" style="fill:#1a1a1a;"/>
   </g>
   <g id="patch_142">
    <path clip-path="url(#p559b2459c1)" d="M 306.683273 200.06 
L 308.703636 200.06 
L 308.703636 199.822212 
L 306.683273 199.822212 
z
" style="fill:#1a1a1a;"/>
   </g>
   <g id="patch_143">
    <path clip-path="url(#p559b2459c1)" d="M 308.703636 200.06 
L 310.724 200.06 
L 310.724 199.828568 
L 308.703636 199.828568 
z
" style="fill:#1a1a1a;"/>
   </g>
   <g id="patch_144">
    <path clip-path="url(#p559b2459c1)" d="M 310.724 200.06 
L 312.744364 200.06 
L 312.744364 199.830575 
L 310.724 199.830575 
z
" style="fill:#1a1a1a;"/>
   </g>
   <g id="patch_145">
    <path clip-path="url(#p559b2459c1)" d="M 312.744364 200.06 
L 314.764727 200.06 
L 314.764727 199.832517 
L 312.744364 199.832517 
z
" style="fill:#1a1a1a;"/>
   </g>
   <g id="patch_146">
    <path clip-path="url(#p559b2459c1)" d="M 314.764727 200.06 
L 316.785091 200.06 
L 316.785091 199.846644 
L 314.764727 199.846644 
z
" style="fill:#1a1a1a;"/>
   </g>
   <g id="patch_147">
    <path clip-path="url(#p559b2459c1)" d="M 316.785091 200.06 
L 318.805455 200.06 
L 318.805455 199.85408 
L 316.785091 199.85408 
z
" style="fill:#1a1a1a;"/>
   </g>
   <g id="patch_148">
    <path clip-path="url(#p559b2459c1)" d="M 318.805455 200.06 
L 320.825818 200.06 
L 320.825818 199.856884 
L 318.805455 199.856884 
z
" style="fill:#1a1a1a;"/>
   </g>
   <g id="patch_149">
    <path clip-path="url(#p559b2459c1)" d="M 320.825818 200.06 
L 322.846182 200.06 
L 322.846182 199.860233 
L 320.825818 199.860233 
z
" style="fill:#1a1a1a;"/>
   </g>
   <g id="patch_150">
    <path clip-path="url(#p559b2459c1)" d="M 322.846182 200.06 
L 324.866545 200.06 
L 324.866545 199.870114 
L 322.846182 199.870114 
z
" style="fill:#1a1a1a;"/>
   </g>
   <g id="patch_151">
    <path clip-path="url(#p559b2459c1)" d="M 324.866545 200.06 
L 326.886909 200.06 
L 326.886909 199.877497 
L 324.866545 199.877497 
z
" style="fill:#1a1a1a;"/>
   </g>
   <g id="patch_152">
    <path clip-path="url(#p559b2459c1)" d="M 326.886909 200.06 
L 328.907273 200.06 
L 328.907273 199.88349 
L 326.886909 199.88349 
z
" style="fill:#1a1a1a;"/>
   </g>
   <g id="matplotlib.axis_1"/>
   <g id="matplotlib.axis_2"/>
   <g id="patch_153">
    <path d="M 10.7 200.06 
L 10.7 10.7 
" style="fill:none;stroke:#000000;stroke-linecap:square;stroke-linejoin:miter;stroke-width:0.8;"/>
   </g>
   <g id="patch_154">
    <path d="M 344.06 200.06 
L 344.06 10.7 
" style="fill:none;stroke:#000000;stroke-linecap:square;stroke-linejoin:miter;stroke-width:0.8;"/>
   </g>
   <g id="patch_155">
    <path d="M 10.7 200.06 
L 344.06 200.06 
" style="fill:none;stroke:#000000;stroke-linecap:square;stroke-linejoin:miter;stroke-width:0.8;"/>
   </g>
   <g id="patch_156">
    <path d="M 10.7 10.7 
L 344.06 10.7 
" style="fill:none;stroke:#000000;stroke-linecap:square;stroke-linejoin:miter;stroke-width:0.8;"/>
   </g>
  </g>
 </g>
 <defs>
  <clipPath id="p559b2459c1">
   <rect height="189.36" width="333.36" x="10.7" y="10.7"/>
  </clipPath>
 </defs>
</svg>
