<?xml version="1.0" encoding="utf-8" standalone="no"?>
<!DOCTYPE svg PUBLIC "-//W3C//DTD SVG 1.1//EN"
  "http://www.w3.org/Graphics/SVG/1.1/DTD/svg11.dtd">
<!-- Created with matplotlib (http://matplotlib.org/) -->
<svg height="210pt" version="1.1" viewBox="0 0 354 210" width="354pt" xmlns="http://www.w3.org/2000/svg" xmlns:xlink="http://www.w3.org/1999/xlink">
 <defs>
  <style type="text/css">
*{stroke-linecap:butt;stroke-linejoin:round;}
  </style>
 </defs>
 <g id="figure_1">
  <g id="patch_1">
   <path d="M 0 210.76 
L 354.76 210.76 
L 354.76 0 
L 0 0 
z
" style="fill:#ffffff;"/>
  </g>
  <g id="axes_1">
   <g id="patch_2">
    <path d="M 10.7 200.06 
L 344.06 200.06 
L 344.06 10.7 
L 10.7 10.7 
z
" style="fill:#ffffff;"/>
   </g>
   <g id="patch_3">
    <path clip-path="url(#pc5aca5b9d1)" d="M 25.852727 200.06 
L 27.873091 200.06 
L 27.873091 199.695366 
L 25.852727 199.695366 
z
" style="fill:#1a1a1a;"/>
   </g>
   <g id="patch_4">
    <path clip-path="url(#pc5aca5b9d1)" d="M 27.873091 200.06 
L 29.893455 200.06 
L 29.893455 199.694999 
L 27.873091 199.694999 
z
" style="fill:#1a1a1a;"/>
   </g>
   <g id="patch_5">
    <path clip-path="url(#pc5aca5b9d1)" d="M 29.893455 200.06 
L 31.913818 200.06 
L 31.913818 199.694376 
L 29.893455 199.694376 
z
" style="fill:#1a1a1a;"/>
   </g>
   <g id="patch_6">
    <path clip-path="url(#pc5aca5b9d1)" d="M 31.913818 200.06 
L 33.934182 200.06 
L 33.934182 199.692508 
L 31.913818 199.692508 
z
" style="fill:#1a1a1a;"/>
   </g>
   <g id="patch_7">
    <path clip-path="url(#pc5aca5b9d1)" d="M 33.934182 200.06 
L 35.954545 200.06 
L 35.954545 199.691716 
L 33.934182 199.691716 
z
" style="fill:#1a1a1a;"/>
   </g>
   <g id="patch_8">
    <path clip-path="url(#pc5aca5b9d1)" d="M 35.954545 200.06 
L 37.974909 200.06 
L 37.974909 199.689162 
L 35.954545 199.689162 
z
" style="fill:#1a1a1a;"/>
   </g>
   <g id="patch_9">
    <path clip-path="url(#pc5aca5b9d1)" d="M 37.974909 200.06 
L 39.995273 200.06 
L 39.995273 199.688538 
L 37.974909 199.688538 
z
" style="fill:#1a1a1a;"/>
   </g>
   <g id="patch_10">
    <path clip-path="url(#pc5aca5b9d1)" d="M 39.995273 200.06 
L 42.015636 200.06 
L 42.015636 199.685108 
L 39.995273 199.685108 
z
" style="fill:#1a1a1a;"/>
   </g>
   <g id="patch_11">
    <path clip-path="url(#pc5aca5b9d1)" d="M 42.015636 200.06 
L 44.036 200.06 
L 44.036 199.683288 
L 42.015636 199.683288 
z
" style="fill:#1a1a1a;"/>
   </g>
   <g id="patch_12">
    <path clip-path="url(#pc5aca5b9d1)" d="M 44.036 200.06 
L 46.056364 200.06 
L 46.056364 199.681604 
L 44.036 199.681604 
z
" style="fill:#1a1a1a;"/>
   </g>
   <g id="patch_13">
    <path clip-path="url(#pc5aca5b9d1)" d="M 46.056364 200.06 
L 48.076727 200.06 
L 48.076727 199.67971 
L 46.056364 199.67971 
z
" style="fill:#1a1a1a;"/>
   </g>
   <g id="patch_14">
    <path clip-path="url(#pc5aca5b9d1)" d="M 48.076727 200.06 
L 50.097091 200.06 
L 50.097091 199.678975 
L 48.076727 199.678975 
z
" style="fill:#1a1a1a;"/>
   </g>
   <g id="patch_15">
    <path clip-path="url(#pc5aca5b9d1)" d="M 50.097091 200.06 
L 52.117455 200.06 
L 52.117455 199.678223 
L 50.097091 199.678223 
z
" style="fill:#1a1a1a;"/>
   </g>
   <g id="patch_16">
    <path clip-path="url(#pc5aca5b9d1)" d="M 52.117455 200.06 
L 54.137818 200.06 
L 54.137818 199.675058 
L 52.117455 199.675058 
z
" style="fill:#1a1a1a;"/>
   </g>
   <g id="patch_17">
    <path clip-path="url(#pc5aca5b9d1)" d="M 54.137818 200.06 
L 56.158182 200.06 
L 56.158182 199.672533 
L 54.137818 199.672533 
z
" style="fill:#1a1a1a;"/>
   </g>
   <g id="patch_18">
    <path clip-path="url(#pc5aca5b9d1)" d="M 56.158182 200.06 
L 58.178545 200.06 
L 58.178545 199.67072 
L 56.158182 199.67072 
z
" style="fill:#1a1a1a;"/>
   </g>
   <g id="patch_19">
    <path clip-path="url(#pc5aca5b9d1)" d="M 58.178545 200.06 
L 60.198909 200.06 
L 60.198909 199.670306 
L 58.178545 199.670306 
z
" style="fill:#1a1a1a;"/>
   </g>
   <g id="patch_20">
    <path clip-path="url(#pc5aca5b9d1)" d="M 60.198909 200.06 
L 62.219273 200.06 
L 62.219273 199.665438 
L 60.198909 199.665438 
z
" style="fill:#1a1a1a;"/>
   </g>
   <g id="patch_21">
    <path clip-path="url(#pc5aca5b9d1)" d="M 62.219273 200.06 
L 64.239636 200.06 
L 64.239636 199.663024 
L 62.219273 199.663024 
z
" style="fill:#1a1a1a;"/>
   </g>
   <g id="patch_22">
    <path clip-path="url(#pc5aca5b9d1)" d="M 64.239636 200.06 
L 66.26 200.06 
L 66.26 199.659414 
L 64.239636 199.659414 
z
" style="fill:#1a1a1a;"/>
   </g>
   <g id="patch_23">
    <path clip-path="url(#pc5aca5b9d1)" d="M 66.26 200.06 
L 68.280364 200.06 
L 68.280364 199.656831 
L 66.26 199.656831 
z
" style="fill:#1a1a1a;"/>
   </g>
   <g id="patch_24">
    <path clip-path="url(#pc5aca5b9d1)" d="M 68.280364 200.06 
L 70.300727 200.06 
L 70.300727 199.649272 
L 68.280364 199.649272 
z
" style="fill:#1a1a1a;"/>
   </g>
   <g id="patch_25">
    <path clip-path="url(#pc5aca5b9d1)" d="M 70.300727 200.06 
L 72.321091 200.06 
L 72.321091 199.642984 
L 70.300727 199.642984 
z
" style="fill:#1a1a1a;"/>
   </g>
   <g id="patch_26">
    <path clip-path="url(#pc5aca5b9d1)" d="M 72.321091 200.06 
L 74.341455 200.06 
L 74.341455 199.638742 
L 72.321091 199.638742 
z
" style="fill:#1a1a1a;"/>
   </g>
   <g id="patch_27">
    <path clip-path="url(#pc5aca5b9d1)" d="M 74.341455 200.06 
L 76.361818 200.06 
L 76.361818 199.637007 
L 74.341455 199.637007 
z
" style="fill:#1a1a1a;"/>
   </g>
   <g id="patch_28">
    <path clip-path="url(#pc5aca5b9d1)" d="M 76.361818 200.06 
L 78.382182 200.06 
L 78.382182 199.634927 
L 76.361818 199.634927 
z
" style="fill:#1a1a1a;"/>
   </g>
   <g id="patch_29">
    <path clip-path="url(#pc5aca5b9d1)" d="M 78.382182 200.06 
L 80.402545 200.06 
L 80.402545 199.632334 
L 78.382182 199.632334 
z
" style="fill:#1a1a1a;"/>
   </g>
   <g id="patch_30">
    <path clip-path="url(#pc5aca5b9d1)" d="M 80.402545 200.06 
L 82.422909 200.06 
L 82.422909 199.629178 
L 80.402545 199.629178 
z
" style="fill:#1a1a1a;"/>
   </g>
   <g id="patch_31">
    <path clip-path="url(#pc5aca5b9d1)" d="M 82.422909 200.06 
L 84.443273 200.06 
L 84.443273 199.621764 
L 82.422909 199.621764 
z
" style="fill:#1a1a1a;"/>
   </g>
   <g id="patch_32">
    <path clip-path="url(#pc5aca5b9d1)" d="M 84.443273 200.06 
L 86.463636 200.06 
L 86.463636 199.620428 
L 84.443273 199.620428 
z
" style="fill:#1a1a1a;"/>
   </g>
   <g id="patch_33">
    <path clip-path="url(#pc5aca5b9d1)" d="M 86.463636 200.06 
L 88.484 200.06 
L 88.484 199.616836 
L 86.463636 199.616836 
z
" style="fill:#1a1a1a;"/>
   </g>
   <g id="patch_34">
    <path clip-path="url(#pc5aca5b9d1)" d="M 88.484 200.06 
L 90.504364 200.06 
L 90.504364 199.597493 
L 88.484 199.597493 
z
" style="fill:#1a1a1a;"/>
   </g>
   <g id="patch_35">
    <path clip-path="url(#pc5aca5b9d1)" d="M 90.504364 200.06 
L 92.524727 200.06 
L 92.524727 199.581674 
L 90.504364 199.581674 
z
" style="fill:#1a1a1a;"/>
   </g>
   <g id="patch_36">
    <path clip-path="url(#pc5aca5b9d1)" d="M 92.524727 200.06 
L 94.545091 200.06 
L 94.545091 199.578857 
L 92.524727 199.578857 
z
" style="fill:#1a1a1a;"/>
   </g>
   <g id="patch_37">
    <path clip-path="url(#pc5aca5b9d1)" d="M 94.545091 200.06 
L 96.565455 200.06 
L 96.565455 199.577853 
L 94.545091 199.577853 
z
" style="fill:#1a1a1a;"/>
   </g>
   <g id="patch_38">
    <path clip-path="url(#pc5aca5b9d1)" d="M 96.565455 200.06 
L 98.585818 200.06 
L 98.585818 199.574025 
L 96.565455 199.574025 
z
" style="fill:#1a1a1a;"/>
   </g>
   <g id="patch_39">
    <path clip-path="url(#pc5aca5b9d1)" d="M 98.585818 200.06 
L 100.606182 200.06 
L 100.606182 199.564119 
L 98.585818 199.564119 
z
" style="fill:#1a1a1a;"/>
   </g>
   <g id="patch_40">
    <path clip-path="url(#pc5aca5b9d1)" d="M 100.606182 200.06 
L 102.626545 200.06 
L 102.626545 199.552824 
L 100.606182 199.552824 
z
" style="fill:#1a1a1a;"/>
   </g>
   <g id="patch_41">
    <path clip-path="url(#pc5aca5b9d1)" d="M 102.626545 200.06 
L 104.646909 200.06 
L 104.646909 199.549752 
L 102.626545 199.549752 
z
" style="fill:#1a1a1a;"/>
   </g>
   <g id="patch_42">
    <path clip-path="url(#pc5aca5b9d1)" d="M 104.646909 200.06 
L 106.667273 200.06 
L 106.667273 199.546685 
L 104.646909 199.546685 
z
" style="fill:#1a1a1a;"/>
   </g>
   <g id="patch_43">
    <path clip-path="url(#pc5aca5b9d1)" d="M 106.667273 200.06 
L 108.687636 200.06 
L 108.687636 199.515372 
L 106.667273 199.515372 
z
" style="fill:#1a1a1a;"/>
   </g>
   <g id="patch_44">
    <path clip-path="url(#pc5aca5b9d1)" d="M 108.687636 200.06 
L 110.708 200.06 
L 110.708 199.501867 
L 108.687636 199.501867 
z
" style="fill:#1a1a1a;"/>
   </g>
   <g id="patch_45">
    <path clip-path="url(#pc5aca5b9d1)" d="M 110.708 200.06 
L 112.728364 200.06 
L 112.728364 199.492517 
L 110.708 199.492517 
z
" style="fill:#1a1a1a;"/>
   </g>
   <g id="patch_46">
    <path clip-path="url(#pc5aca5b9d1)" d="M 112.728364 200.06 
L 114.748727 200.06 
L 114.748727 199.485386 
L 112.728364 199.485386 
z
" style="fill:#1a1a1a;"/>
   </g>
   <g id="patch_47">
    <path clip-path="url(#pc5aca5b9d1)" d="M 114.748727 200.06 
L 116.769091 200.06 
L 116.769091 199.457 
L 114.748727 199.457 
z
" style="fill:#1a1a1a;"/>
   </g>
   <g id="patch_48">
    <path clip-path="url(#pc5aca5b9d1)" d="M 116.769091 200.06 
L 118.789455 200.06 
L 118.789455 199.443851 
L 116.769091 199.443851 
z
" style="fill:#1a1a1a;"/>
   </g>
   <g id="patch_49">
    <path clip-path="url(#pc5aca5b9d1)" d="M 118.789455 200.06 
L 120.809818 200.06 
L 120.809818 199.426406 
L 118.789455 199.426406 
z
" style="fill:#1a1a1a;"/>
   </g>
   <g id="patch_50">
    <path clip-path="url(#pc5aca5b9d1)" d="M 120.809818 200.06 
L 122.830182 200.06 
L 122.830182 199.399116 
L 120.809818 199.399116 
z
" style="fill:#1a1a1a;"/>
   </g>
   <g id="patch_51">
    <path clip-path="url(#pc5aca5b9d1)" d="M 122.830182 200.06 
L 124.850545 200.06 
L 124.850545 199.394359 
L 122.830182 199.394359 
z
" style="fill:#1a1a1a;"/>
   </g>
   <g id="patch_52">
    <path clip-path="url(#pc5aca5b9d1)" d="M 124.850545 200.06 
L 126.870909 200.06 
L 126.870909 199.329892 
L 124.850545 199.329892 
z
" style="fill:#1a1a1a;"/>
   </g>
   <g id="patch_53">
    <path clip-path="url(#pc5aca5b9d1)" d="M 126.870909 200.06 
L 128.891273 200.06 
L 128.891273 199.290278 
L 126.870909 199.290278 
z
" style="fill:#1a1a1a;"/>
   </g>
   <g id="patch_54">
    <path clip-path="url(#pc5aca5b9d1)" d="M 128.891273 200.06 
L 130.911636 200.06 
L 130.911636 199.247177 
L 128.891273 199.247177 
z
" style="fill:#1a1a1a;"/>
   </g>
   <g id="patch_55">
    <path clip-path="url(#pc5aca5b9d1)" d="M 130.911636 200.06 
L 132.932 200.06 
L 132.932 199.216677 
L 130.911636 199.216677 
z
" style="fill:#1a1a1a;"/>
   </g>
   <g id="patch_56">
    <path clip-path="url(#pc5aca5b9d1)" d="M 132.932 200.06 
L 134.952364 200.06 
L 134.952364 199.07288 
L 132.932 199.07288 
z
" style="fill:#1a1a1a;"/>
   </g>
   <g id="patch_57">
    <path clip-path="url(#pc5aca5b9d1)" d="M 134.952364 200.06 
L 136.972727 200.06 
L 136.972727 198.99501 
L 134.952364 198.99501 
z
" style="fill:#1a1a1a;"/>
   </g>
   <g id="patch_58">
    <path clip-path="url(#pc5aca5b9d1)" d="M 136.972727 200.06 
L 138.993091 200.06 
L 138.993091 198.757366 
L 136.972727 198.757366 
z
" style="fill:#1a1a1a;"/>
   </g>
   <g id="patch_59">
    <path clip-path="url(#pc5aca5b9d1)" d="M 138.993091 200.06 
L 141.013455 200.06 
L 141.013455 198.503979 
L 138.993091 198.503979 
z
" style="fill:#1a1a1a;"/>
   </g>
   <g id="patch_60">
    <path clip-path="url(#pc5aca5b9d1)" d="M 141.013455 200.06 
L 143.033818 200.06 
L 143.033818 198.371782 
L 141.013455 198.371782 
z
" style="fill:#1a1a1a;"/>
   </g>
   <g id="patch_61">
    <path clip-path="url(#pc5aca5b9d1)" d="M 143.033818 200.06 
L 145.054182 200.06 
L 145.054182 198.358133 
L 143.033818 198.358133 
z
" style="fill:#1a1a1a;"/>
   </g>
   <g id="patch_62">
    <path clip-path="url(#pc5aca5b9d1)" d="M 145.054182 200.06 
L 147.074545 200.06 
L 147.074545 198.156394 
L 145.054182 198.156394 
z
" style="fill:#1a1a1a;"/>
   </g>
   <g id="patch_63">
    <path clip-path="url(#pc5aca5b9d1)" d="M 147.074545 200.06 
L 149.094909 200.06 
L 149.094909 198.058618 
L 147.074545 198.058618 
z
" style="fill:#1a1a1a;"/>
   </g>
   <g id="patch_64">
    <path clip-path="url(#pc5aca5b9d1)" d="M 149.094909 200.06 
L 151.115273 200.06 
L 151.115273 197.567873 
L 149.094909 197.567873 
z
" style="fill:#1a1a1a;"/>
   </g>
   <g id="patch_65">
    <path clip-path="url(#pc5aca5b9d1)" d="M 151.115273 200.06 
L 153.135636 200.06 
L 153.135636 197.132183 
L 151.115273 197.132183 
z
" style="fill:#1a1a1a;"/>
   </g>
   <g id="patch_66">
    <path clip-path="url(#pc5aca5b9d1)" d="M 153.135636 200.06 
L 155.156 200.06 
L 155.156 196.588348 
L 153.135636 196.588348 
z
" style="fill:#1a1a1a;"/>
   </g>
   <g id="patch_67">
    <path clip-path="url(#pc5aca5b9d1)" d="M 155.156 200.06 
L 157.176364 200.06 
L 157.176364 195.778451 
L 155.156 195.778451 
z
" style="fill:#1a1a1a;"/>
   </g>
   <g id="patch_68">
    <path clip-path="url(#pc5aca5b9d1)" d="M 157.176364 200.06 
L 159.196727 200.06 
L 159.196727 194.628253 
L 157.176364 194.628253 
z
" style="fill:#1a1a1a;"/>
   </g>
   <g id="patch_69">
    <path clip-path="url(#pc5aca5b9d1)" d="M 159.196727 200.06 
L 161.217091 200.06 
L 161.217091 191.895715 
L 159.196727 191.895715 
z
" style="fill:#1a1a1a;"/>
   </g>
   <g id="patch_70">
    <path clip-path="url(#pc5aca5b9d1)" d="M 161.217091 200.06 
L 163.237455 200.06 
L 163.237455 189.448042 
L 161.217091 189.448042 
z
" style="fill:#1a1a1a;"/>
   </g>
   <g id="patch_71">
    <path clip-path="url(#pc5aca5b9d1)" d="M 163.237455 200.06 
L 165.257818 200.06 
L 165.257818 187.547631 
L 163.237455 187.547631 
z
" style="fill:#1a1a1a;"/>
   </g>
   <g id="patch_72">
    <path clip-path="url(#pc5aca5b9d1)" d="M 165.257818 200.06 
L 167.278182 200.06 
L 167.278182 186.661306 
L 165.257818 186.661306 
z
" style="fill:#1a1a1a;"/>
   </g>
   <g id="patch_73">
    <path clip-path="url(#pc5aca5b9d1)" d="M 167.278182 200.06 
L 169.298545 200.06 
L 169.298545 182.786436 
L 167.278182 182.786436 
z
" style="fill:#1a1a1a;"/>
   </g>
   <g id="patch_74">
    <path clip-path="url(#pc5aca5b9d1)" d="M 169.298545 200.06 
L 171.318909 200.06 
L 171.318909 180.747673 
L 169.298545 180.747673 
z
" style="fill:#1a1a1a;"/>
   </g>
   <g id="patch_75">
    <path clip-path="url(#pc5aca5b9d1)" d="M 171.318909 200.06 
L 173.339273 200.06 
L 173.339273 175.03991 
L 171.318909 175.03991 
z
" style="fill:#1a1a1a;"/>
   </g>
   <g id="patch_76">
    <path clip-path="url(#pc5aca5b9d1)" d="M 173.339273 200.06 
L 175.359636 200.06 
L 175.359636 172.910206 
L 173.339273 172.910206 
z
" style="fill:#1a1a1a;"/>
   </g>
   <g id="patch_77">
    <path clip-path="url(#pc5aca5b9d1)" d="M 175.359636 200.06 
L 177.38 200.06 
L 177.38 172.825666 
L 175.359636 172.825666 
z
" style="fill:#1a1a1a;"/>
   </g>
   <g id="patch_78">
    <path clip-path="url(#pc5aca5b9d1)" d="M 177.38 200.06 
L 179.400364 200.06 
L 179.400364 137.716058 
L 177.38 137.716058 
z
" style="fill:#1a1a1a;"/>
   </g>
   <g id="patch_79">
    <path clip-path="url(#pc5aca5b9d1)" d="M 179.400364 200.06 
L 181.420727 200.06 
L 181.420727 172.83096 
L 179.400364 172.83096 
z
" style="fill:#1a1a1a;"/>
   </g>
   <g id="patch_80">
    <path clip-path="url(#pc5aca5b9d1)" d="M 181.420727 200.06 
L 183.441091 200.06 
L 183.441091 174.19172 
L 181.420727 174.19172 
z
" style="fill:#1a1a1a;"/>
   </g>
   <g id="patch_81">
    <path clip-path="url(#pc5aca5b9d1)" d="M 183.441091 200.06 
L 185.461455 200.06 
L 185.461455 175.256624 
L 183.441091 175.256624 
z
" style="fill:#1a1a1a;"/>
   </g>
   <g id="patch_82">
    <path clip-path="url(#pc5aca5b9d1)" d="M 185.461455 200.06 
L 187.481818 200.06 
L 187.481818 180.995486 
L 185.461455 180.995486 
z
" style="fill:#1a1a1a;"/>
   </g>
   <g id="patch_83">
    <path clip-path="url(#pc5aca5b9d1)" d="M 187.481818 200.06 
L 189.502182 200.06 
L 189.502182 183.474092 
L 187.481818 183.474092 
z
" style="fill:#1a1a1a;"/>
   </g>
   <g id="patch_84">
    <path clip-path="url(#pc5aca5b9d1)" d="M 189.502182 200.06 
L 191.522545 200.06 
L 191.522545 186.888002 
L 189.502182 186.888002 
z
" style="fill:#1a1a1a;"/>
   </g>
   <g id="patch_85">
    <path clip-path="url(#pc5aca5b9d1)" d="M 191.522545 200.06 
L 193.542909 200.06 
L 193.542909 187.767329 
L 191.522545 187.767329 
z
" style="fill:#1a1a1a;"/>
   </g>
   <g id="patch_86">
    <path clip-path="url(#pc5aca5b9d1)" d="M 193.542909 200.06 
L 195.563273 200.06 
L 195.563273 190.739578 
L 193.542909 190.739578 
z
" style="fill:#1a1a1a;"/>
   </g>
   <g id="patch_87">
    <path clip-path="url(#pc5aca5b9d1)" d="M 195.563273 200.06 
L 197.583636 200.06 
L 197.583636 193.598488 
L 195.563273 193.598488 
z
" style="fill:#1a1a1a;"/>
   </g>
   <g id="patch_88">
    <path clip-path="url(#pc5aca5b9d1)" d="M 197.583636 200.06 
L 199.604 200.06 
L 199.604 194.792997 
L 197.583636 194.792997 
z
" style="fill:#1a1a1a;"/>
   </g>
   <g id="patch_89">
    <path clip-path="url(#pc5aca5b9d1)" d="M 199.604 200.06 
L 201.624364 200.06 
L 201.624364 196.133704 
L 199.604 196.133704 
z
" style="fill:#1a1a1a;"/>
   </g>
   <g id="patch_90">
    <path clip-path="url(#pc5aca5b9d1)" d="M 201.624364 200.06 
L 203.644727 200.06 
L 203.644727 196.864961 
L 201.624364 196.864961 
z
" style="fill:#1a1a1a;"/>
   </g>
   <g id="patch_91">
    <path clip-path="url(#pc5aca5b9d1)" d="M 203.644727 200.06 
L 205.665091 200.06 
L 205.665091 197.402626 
L 203.644727 197.402626 
z
" style="fill:#1a1a1a;"/>
   </g>
   <g id="patch_92">
    <path clip-path="url(#pc5aca5b9d1)" d="M 205.665091 200.06 
L 207.685455 200.06 
L 207.685455 197.871862 
L 205.665091 197.871862 
z
" style="fill:#1a1a1a;"/>
   </g>
   <g id="patch_93">
    <path clip-path="url(#pc5aca5b9d1)" d="M 207.685455 200.06 
L 209.705818 200.06 
L 209.705818 198.11231 
L 207.685455 198.11231 
z
" style="fill:#1a1a1a;"/>
   </g>
   <g id="patch_94">
    <path clip-path="url(#pc5aca5b9d1)" d="M 209.705818 200.06 
L 211.726182 200.06 
L 211.726182 198.169806 
L 209.705818 198.169806 
z
" style="fill:#1a1a1a;"/>
   </g>
   <g id="patch_95">
    <path clip-path="url(#pc5aca5b9d1)" d="M 211.726182 200.06 
L 213.746545 200.06 
L 213.746545 198.367743 
L 211.726182 198.367743 
z
" style="fill:#1a1a1a;"/>
   </g>
   <g id="patch_96">
    <path clip-path="url(#pc5aca5b9d1)" d="M 213.746545 200.06 
L 215.766909 200.06 
L 215.766909 198.435477 
L 213.746545 198.435477 
z
" style="fill:#1a1a1a;"/>
   </g>
   <g id="patch_97">
    <path clip-path="url(#pc5aca5b9d1)" d="M 215.766909 200.06 
L 217.787273 200.06 
L 217.787273 198.584982 
L 215.766909 198.584982 
z
" style="fill:#1a1a1a;"/>
   </g>
   <g id="patch_98">
    <path clip-path="url(#pc5aca5b9d1)" d="M 217.787273 200.06 
L 219.807636 200.06 
L 219.807636 198.90839 
L 217.787273 198.90839 
z
" style="fill:#1a1a1a;"/>
   </g>
   <g id="patch_99">
    <path clip-path="url(#pc5aca5b9d1)" d="M 219.807636 200.06 
L 221.828 200.06 
L 221.828 199.069952 
L 219.807636 199.069952 
z
" style="fill:#1a1a1a;"/>
   </g>
   <g id="patch_100">
    <path clip-path="url(#pc5aca5b9d1)" d="M 221.828 200.06 
L 223.848364 200.06 
L 223.848364 199.125425 
L 221.828 199.125425 
z
" style="fill:#1a1a1a;"/>
   </g>
   <g id="patch_101">
    <path clip-path="url(#pc5aca5b9d1)" d="M 223.848364 200.06 
L 225.868727 200.06 
L 225.868727 199.239133 
L 223.848364 199.239133 
z
" style="fill:#1a1a1a;"/>
   </g>
   <g id="patch_102">
    <path clip-path="url(#pc5aca5b9d1)" d="M 225.868727 200.06 
L 227.889091 200.06 
L 227.889091 199.272785 
L 225.868727 199.272785 
z
" style="fill:#1a1a1a;"/>
   </g>
   <g id="patch_103">
    <path clip-path="url(#pc5aca5b9d1)" d="M 227.889091 200.06 
L 229.909455 200.06 
L 229.909455 199.303338 
L 227.889091 199.303338 
z
" style="fill:#1a1a1a;"/>
   </g>
   <g id="patch_104">
    <path clip-path="url(#pc5aca5b9d1)" d="M 229.909455 200.06 
L 231.929818 200.06 
L 231.929818 199.332113 
L 229.909455 199.332113 
z
" style="fill:#1a1a1a;"/>
   </g>
   <g id="patch_105">
    <path clip-path="url(#pc5aca5b9d1)" d="M 231.929818 200.06 
L 233.950182 200.06 
L 233.950182 199.396926 
L 231.929818 199.396926 
z
" style="fill:#1a1a1a;"/>
   </g>
   <g id="patch_106">
    <path clip-path="url(#pc5aca5b9d1)" d="M 233.950182 200.06 
L 235.970545 200.06 
L 235.970545 199.401598 
L 233.950182 199.401598 
z
" style="fill:#1a1a1a;"/>
   </g>
   <g id="patch_107">
    <path clip-path="url(#pc5aca5b9d1)" d="M 235.970545 200.06 
L 237.990909 200.06 
L 237.990909 199.436202 
L 235.970545 199.436202 
z
" style="fill:#1a1a1a;"/>
   </g>
   <g id="patch_108">
    <path clip-path="url(#pc5aca5b9d1)" d="M 237.990909 200.06 
L 240.011273 200.06 
L 240.011273 199.444411 
L 237.990909 199.444411 
z
" style="fill:#1a1a1a;"/>
   </g>
   <g id="patch_109">
    <path clip-path="url(#pc5aca5b9d1)" d="M 240.011273 200.06 
L 242.031636 200.06 
L 242.031636 199.479312 
L 240.011273 199.479312 
z
" style="fill:#1a1a1a;"/>
   </g>
   <g id="patch_110">
    <path clip-path="url(#pc5aca5b9d1)" d="M 242.031636 200.06 
L 244.052 200.06 
L 244.052 199.488069 
L 242.031636 199.488069 
z
" style="fill:#1a1a1a;"/>
   </g>
   <g id="patch_111">
    <path clip-path="url(#pc5aca5b9d1)" d="M 244.052 200.06 
L 246.072364 200.06 
L 246.072364 199.499584 
L 244.052 199.499584 
z
" style="fill:#1a1a1a;"/>
   </g>
   <g id="patch_112">
    <path clip-path="url(#pc5aca5b9d1)" d="M 246.072364 200.06 
L 248.092727 200.06 
L 248.092727 199.504564 
L 246.072364 199.504564 
z
" style="fill:#1a1a1a;"/>
   </g>
   <g id="patch_113">
    <path clip-path="url(#pc5aca5b9d1)" d="M 248.092727 200.06 
L 250.113091 200.06 
L 250.113091 199.535824 
L 248.092727 199.535824 
z
" style="fill:#1a1a1a;"/>
   </g>
   <g id="patch_114">
    <path clip-path="url(#pc5aca5b9d1)" d="M 250.113091 200.06 
L 252.133455 200.06 
L 252.133455 199.549481 
L 250.113091 199.549481 
z
" style="fill:#1a1a1a;"/>
   </g>
   <g id="patch_115">
    <path clip-path="url(#pc5aca5b9d1)" d="M 252.133455 200.06 
L 254.153818 200.06 
L 254.153818 199.551 
L 252.133455 199.551 
z
" style="fill:#1a1a1a;"/>
   </g>
   <g id="patch_116">
    <path clip-path="url(#pc5aca5b9d1)" d="M 254.153818 200.06 
L 256.174182 200.06 
L 256.174182 199.563015 
L 254.153818 199.563015 
z
" style="fill:#1a1a1a;"/>
   </g>
   <g id="patch_117">
    <path clip-path="url(#pc5aca5b9d1)" d="M 256.174182 200.06 
L 258.194545 200.06 
L 258.194545 199.573368 
L 256.174182 199.573368 
z
" style="fill:#1a1a1a;"/>
   </g>
   <g id="patch_118">
    <path clip-path="url(#pc5aca5b9d1)" d="M 258.194545 200.06 
L 260.214909 200.06 
L 260.214909 199.575675 
L 258.194545 199.575675 
z
" style="fill:#1a1a1a;"/>
   </g>
   <g id="patch_119">
    <path clip-path="url(#pc5aca5b9d1)" d="M 260.214909 200.06 
L 262.235273 200.06 
L 262.235273 199.578118 
L 260.214909 199.578118 
z
" style="fill:#1a1a1a;"/>
   </g>
   <g id="patch_120">
    <path clip-path="url(#pc5aca5b9d1)" d="M 262.235273 200.06 
L 264.255636 200.06 
L 264.255636 199.580853 
L 262.235273 199.580853 
z
" style="fill:#1a1a1a;"/>
   </g>
   <g id="patch_121">
    <path clip-path="url(#pc5aca5b9d1)" d="M 264.255636 200.06 
L 266.276 200.06 
L 266.276 199.594678 
L 264.255636 199.594678 
z
" style="fill:#1a1a1a;"/>
   </g>
   <g id="patch_122">
    <path clip-path="url(#pc5aca5b9d1)" d="M 266.276 200.06 
L 268.296364 200.06 
L 268.296364 199.614099 
L 266.276 199.614099 
z
" style="fill:#1a1a1a;"/>
   </g>
   <g id="patch_123">
    <path clip-path="url(#pc5aca5b9d1)" d="M 268.296364 200.06 
L 270.316727 200.06 
L 270.316727 199.618495 
L 268.296364 199.618495 
z
" style="fill:#1a1a1a;"/>
   </g>
   <g id="patch_124">
    <path clip-path="url(#pc5aca5b9d1)" d="M 270.316727 200.06 
L 272.337091 200.06 
L 272.337091 199.620734 
L 270.316727 199.620734 
z
" style="fill:#1a1a1a;"/>
   </g>
   <g id="patch_125">
    <path clip-path="url(#pc5aca5b9d1)" d="M 272.337091 200.06 
L 274.357455 200.06 
L 274.357455 199.627295 
L 272.337091 199.627295 
z
" style="fill:#1a1a1a;"/>
   </g>
   <g id="patch_126">
    <path clip-path="url(#pc5aca5b9d1)" d="M 274.357455 200.06 
L 276.377818 200.06 
L 276.377818 199.630196 
L 274.357455 199.630196 
z
" style="fill:#1a1a1a;"/>
   </g>
   <g id="patch_127">
    <path clip-path="url(#pc5aca5b9d1)" d="M 276.377818 200.06 
L 278.398182 200.06 
L 278.398182 199.634825 
L 276.377818 199.634825 
z
" style="fill:#1a1a1a;"/>
   </g>
   <g id="patch_128">
    <path clip-path="url(#pc5aca5b9d1)" d="M 278.398182 200.06 
L 280.418545 200.06 
L 280.418545 199.635349 
L 278.398182 199.635349 
z
" style="fill:#1a1a1a;"/>
   </g>
   <g id="patch_129">
    <path clip-path="url(#pc5aca5b9d1)" d="M 280.418545 200.06 
L 282.438909 200.06 
L 282.438909 199.638688 
L 280.418545 199.638688 
z
" style="fill:#1a1a1a;"/>
   </g>
   <g id="patch_130">
    <path clip-path="url(#pc5aca5b9d1)" d="M 282.438909 200.06 
L 284.459273 200.06 
L 284.459273 199.639412 
L 282.438909 199.639412 
z
" style="fill:#1a1a1a;"/>
   </g>
   <g id="patch_131">
    <path clip-path="url(#pc5aca5b9d1)" d="M 284.459273 200.06 
L 286.479636 200.06 
L 286.479636 199.646266 
L 284.459273 199.646266 
z
" style="fill:#1a1a1a;"/>
   </g>
   <g id="patch_132">
    <path clip-path="url(#pc5aca5b9d1)" d="M 286.479636 200.06 
L 288.5 200.06 
L 288.5 199.651316 
L 286.479636 199.651316 
z
" style="fill:#1a1a1a;"/>
   </g>
   <g id="patch_133">
    <path clip-path="url(#pc5aca5b9d1)" d="M 288.5 200.06 
L 290.520364 200.06 
L 290.520364 199.657443 
L 288.5 199.657443 
z
" style="fill:#1a1a1a;"/>
   </g>
   <g id="patch_134">
    <path clip-path="url(#pc5aca5b9d1)" d="M 290.520364 200.06 
L 292.540727 200.06 
L 292.540727 199.662532 
L 290.520364 199.662532 
z
" style="fill:#1a1a1a;"/>
   </g>
   <g id="patch_135">
    <path clip-path="url(#pc5aca5b9d1)" d="M 292.540727 200.06 
L 294.561091 200.06 
L 294.561091 199.665348 
L 292.540727 199.665348 
z
" style="fill:#1a1a1a;"/>
   </g>
   <g id="patch_136">
    <path clip-path="url(#pc5aca5b9d1)" d="M 294.561091 200.06 
L 296.581455 200.06 
L 296.581455 199.667129 
L 294.561091 199.667129 
z
" style="fill:#1a1a1a;"/>
   </g>
   <g id="patch_137">
    <path clip-path="url(#pc5aca5b9d1)" d="M 296.581455 200.06 
L 298.601818 200.06 
L 298.601818 199.670576 
L 296.581455 199.670576 
z
" style="fill:#1a1a1a;"/>
   </g>
   <g id="patch_138">
    <path clip-path="url(#pc5aca5b9d1)" d="M 298.601818 200.06 
L 300.622182 200.06 
L 300.622182 199.671171 
L 298.601818 199.671171 
z
" style="fill:#1a1a1a;"/>
   </g>
   <g id="patch_139">
    <path clip-path="url(#pc5aca5b9d1)" d="M 300.622182 200.06 
L 302.642545 200.06 
L 302.642545 199.675004 
L 300.622182 199.675004 
z
" style="fill:#1a1a1a;"/>
   </g>
   <g id="patch_140">
    <path clip-path="url(#pc5aca5b9d1)" d="M 302.642545 200.06 
L 304.662909 200.06 
L 304.662909 199.677975 
L 302.642545 199.677975 
z
" style="fill:#1a1a1a;"/>
   </g>
   <g id="patch_141">
    <path clip-path="url(#pc5aca5b9d1)" d="M 304.662909 200.06 
L 306.683273 200.06 
L 306.683273 199.678768 
L 304.662909 199.678768 
z
" style="fill:#1a1a1a;"/>
   </g>
   <g id="patch_142">
    <path clip-path="url(#pc5aca5b9d1)" d="M 306.683273 200.06 
L 308.703636 200.06 
L 308.703636 199.679623 
L 306.683273 199.679623 
z
" style="fill:#1a1a1a;"/>
   </g>
   <g id="patch_143">
    <path clip-path="url(#pc5aca5b9d1)" d="M 308.703636 200.06 
L 310.724 200.06 
L 310.724 199.679773 
L 308.703636 199.679773 
z
" style="fill:#1a1a1a;"/>
   </g>
   <g id="patch_144">
    <path clip-path="url(#pc5aca5b9d1)" d="M 310.724 200.06 
L 312.744364 200.06 
L 312.744364 199.682193 
L 310.724 199.682193 
z
" style="fill:#1a1a1a;"/>
   </g>
   <g id="patch_145">
    <path clip-path="url(#pc5aca5b9d1)" d="M 312.744364 200.06 
L 314.764727 200.06 
L 314.764727 199.68409 
L 312.744364 199.68409 
z
" style="fill:#1a1a1a;"/>
   </g>
   <g id="patch_146">
    <path clip-path="url(#pc5aca5b9d1)" d="M 314.764727 200.06 
L 316.785091 200.06 
L 316.785091 199.687921 
L 314.764727 199.687921 
z
" style="fill:#1a1a1a;"/>
   </g>
   <g id="patch_147">
    <path clip-path="url(#pc5aca5b9d1)" d="M 316.785091 200.06 
L 318.805455 200.06 
L 318.805455 199.688545 
L 316.785091 199.688545 
z
" style="fill:#1a1a1a;"/>
   </g>
   <g id="patch_148">
    <path clip-path="url(#pc5aca5b9d1)" d="M 318.805455 200.06 
L 320.825818 200.06 
L 320.825818 199.690455 
L 318.805455 199.690455 
z
" style="fill:#1a1a1a;"/>
   </g>
   <g id="patch_149">
    <path clip-path="url(#pc5aca5b9d1)" d="M 320.825818 200.06 
L 322.846182 200.06 
L 322.846182 199.692343 
L 320.825818 199.692343 
z
" style="fill:#1a1a1a;"/>
   </g>
   <g id="patch_150">
    <path clip-path="url(#pc5aca5b9d1)" d="M 322.846182 200.06 
L 324.866545 200.06 
L 324.866545 199.69261 
L 322.846182 199.69261 
z
" style="fill:#1a1a1a;"/>
   </g>
   <g id="patch_151">
    <path clip-path="url(#pc5aca5b9d1)" d="M 324.866545 200.06 
L 326.886909 200.06 
L 326.886909 199.694521 
L 324.866545 199.694521 
z
" style="fill:#1a1a1a;"/>
   </g>
   <g id="patch_152">
    <path clip-path="url(#pc5aca5b9d1)" d="M 326.886909 200.06 
L 328.907273 200.06 
L 328.907273 199.695014 
L 326.886909 199.695014 
z
" style="fill:#1a1a1a;"/>
   </g>
   <g id="matplotlib.axis_1"/>
   <g id="matplotlib.axis_2"/>
   <g id="patch_153">
    <path d="M 10.7 200.06 
L 10.7 10.7 
" style="fill:none;stroke:#000000;stroke-linecap:square;stroke-linejoin:miter;stroke-width:0.8;"/>
   </g>
   <g id="patch_154">
    <path d="M 344.06 200.06 
L 344.06 10.7 
" style="fill:none;stroke:#000000;stroke-linecap:square;stroke-linejoin:miter;stroke-width:0.8;"/>
   </g>
   <g id="patch_155">
    <path d="M 10.7 200.06 
L 344.06 200.06 
" style="fill:none;stroke:#000000;stroke-linecap:square;stroke-linejoin:miter;stroke-width:0.8;"/>
   </g>
   <g id="patch_156">
    <path d="M 10.7 10.7 
L 344.06 10.7 
" style="fill:none;stroke:#000000;stroke-linecap:square;stroke-linejoin:miter;stroke-width:0.8;"/>
   </g>
  </g>
 </g>
 <defs>
  <clipPath id="pc5aca5b9d1">
   <rect height="189.36" width="333.36" x="10.7" y="10.7"/>
  </clipPath>
 </defs>
</svg>
