<?xml version="1.0" encoding="utf-8" standalone="no"?>
<!DOCTYPE svg PUBLIC "-//W3C//DTD SVG 1.1//EN"
  "http://www.w3.org/Graphics/SVG/1.1/DTD/svg11.dtd">
<!-- Created with matplotlib (http://matplotlib.org/) -->
<svg height="210pt" version="1.1" viewBox="0 0 354 210" width="354pt" xmlns="http://www.w3.org/2000/svg" xmlns:xlink="http://www.w3.org/1999/xlink">
 <defs>
  <style type="text/css">
*{stroke-linecap:butt;stroke-linejoin:round;}
  </style>
 </defs>
 <g id="figure_1">
  <g id="patch_1">
   <path d="M 0 210.76 
L 354.76 210.76 
L 354.76 0 
L 0 0 
z
" style="fill:#ffffff;"/>
  </g>
  <g id="axes_1">
   <g id="patch_2">
    <path d="M 10.7 200.06 
L 344.06 200.06 
L 344.06 10.7 
L 10.7 10.7 
z
" style="fill:#ffffff;"/>
   </g>
   <g id="patch_3">
    <path clip-path="url(#pe53ee66d9e)" d="M 25.852727 200.06 
L 27.873091 200.06 
L 27.873091 199.809906 
L 25.852727 199.809906 
z
" style="fill:#1a1a1a;"/>
   </g>
   <g id="patch_4">
    <path clip-path="url(#pe53ee66d9e)" d="M 27.873091 200.06 
L 29.893455 200.06 
L 29.893455 199.808742 
L 27.873091 199.808742 
z
" style="fill:#1a1a1a;"/>
   </g>
   <g id="patch_5">
    <path clip-path="url(#pe53ee66d9e)" d="M 29.893455 200.06 
L 31.913818 200.06 
L 31.913818 199.803549 
L 29.893455 199.803549 
z
" style="fill:#1a1a1a;"/>
   </g>
   <g id="patch_6">
    <path clip-path="url(#pe53ee66d9e)" d="M 31.913818 200.06 
L 33.934182 200.06 
L 33.934182 199.802029 
L 31.913818 199.802029 
z
" style="fill:#1a1a1a;"/>
   </g>
   <g id="patch_7">
    <path clip-path="url(#pe53ee66d9e)" d="M 33.934182 200.06 
L 35.954545 200.06 
L 35.954545 199.797258 
L 33.934182 199.797258 
z
" style="fill:#1a1a1a;"/>
   </g>
   <g id="patch_8">
    <path clip-path="url(#pe53ee66d9e)" d="M 35.954545 200.06 
L 37.974909 200.06 
L 37.974909 199.796157 
L 35.954545 199.796157 
z
" style="fill:#1a1a1a;"/>
   </g>
   <g id="patch_9">
    <path clip-path="url(#pe53ee66d9e)" d="M 37.974909 200.06 
L 39.995273 200.06 
L 39.995273 199.792329 
L 37.974909 199.792329 
z
" style="fill:#1a1a1a;"/>
   </g>
   <g id="patch_10">
    <path clip-path="url(#pe53ee66d9e)" d="M 39.995273 200.06 
L 42.015636 200.06 
L 42.015636 199.786 
L 39.995273 199.786 
z
" style="fill:#1a1a1a;"/>
   </g>
   <g id="patch_11">
    <path clip-path="url(#pe53ee66d9e)" d="M 42.015636 200.06 
L 44.036 200.06 
L 44.036 199.782407 
L 42.015636 199.782407 
z
" style="fill:#1a1a1a;"/>
   </g>
   <g id="patch_12">
    <path clip-path="url(#pe53ee66d9e)" d="M 44.036 200.06 
L 46.056364 200.06 
L 46.056364 199.778178 
L 44.036 199.778178 
z
" style="fill:#1a1a1a;"/>
   </g>
   <g id="patch_13">
    <path clip-path="url(#pe53ee66d9e)" d="M 46.056364 200.06 
L 48.076727 200.06 
L 48.076727 199.775233 
L 46.056364 199.775233 
z
" style="fill:#1a1a1a;"/>
   </g>
   <g id="patch_14">
    <path clip-path="url(#pe53ee66d9e)" d="M 48.076727 200.06 
L 50.097091 200.06 
L 50.097091 199.772163 
L 48.076727 199.772163 
z
" style="fill:#1a1a1a;"/>
   </g>
   <g id="patch_15">
    <path clip-path="url(#pe53ee66d9e)" d="M 50.097091 200.06 
L 52.117455 200.06 
L 52.117455 199.762169 
L 50.097091 199.762169 
z
" style="fill:#1a1a1a;"/>
   </g>
   <g id="patch_16">
    <path clip-path="url(#pe53ee66d9e)" d="M 52.117455 200.06 
L 54.137818 200.06 
L 54.137818 199.760727 
L 52.117455 199.760727 
z
" style="fill:#1a1a1a;"/>
   </g>
   <g id="patch_17">
    <path clip-path="url(#pe53ee66d9e)" d="M 54.137818 200.06 
L 56.158182 200.06 
L 56.158182 199.754701 
L 54.137818 199.754701 
z
" style="fill:#1a1a1a;"/>
   </g>
   <g id="patch_18">
    <path clip-path="url(#pe53ee66d9e)" d="M 56.158182 200.06 
L 58.178545 200.06 
L 58.178545 199.741395 
L 56.158182 199.741395 
z
" style="fill:#1a1a1a;"/>
   </g>
   <g id="patch_19">
    <path clip-path="url(#pe53ee66d9e)" d="M 58.178545 200.06 
L 60.198909 200.06 
L 60.198909 199.737115 
L 58.178545 199.737115 
z
" style="fill:#1a1a1a;"/>
   </g>
   <g id="patch_20">
    <path clip-path="url(#pe53ee66d9e)" d="M 60.198909 200.06 
L 62.219273 200.06 
L 62.219273 199.731186 
L 60.198909 199.731186 
z
" style="fill:#1a1a1a;"/>
   </g>
   <g id="patch_21">
    <path clip-path="url(#pe53ee66d9e)" d="M 62.219273 200.06 
L 64.239636 200.06 
L 64.239636 199.727694 
L 62.219273 199.727694 
z
" style="fill:#1a1a1a;"/>
   </g>
   <g id="patch_22">
    <path clip-path="url(#pe53ee66d9e)" d="M 64.239636 200.06 
L 66.26 200.06 
L 66.26 199.719672 
L 64.239636 199.719672 
z
" style="fill:#1a1a1a;"/>
   </g>
   <g id="patch_23">
    <path clip-path="url(#pe53ee66d9e)" d="M 66.26 200.06 
L 68.280364 200.06 
L 68.280364 199.70898 
L 66.26 199.70898 
z
" style="fill:#1a1a1a;"/>
   </g>
   <g id="patch_24">
    <path clip-path="url(#pe53ee66d9e)" d="M 68.280364 200.06 
L 70.300727 200.06 
L 70.300727 199.698383 
L 68.280364 199.698383 
z
" style="fill:#1a1a1a;"/>
   </g>
   <g id="patch_25">
    <path clip-path="url(#pe53ee66d9e)" d="M 70.300727 200.06 
L 72.321091 200.06 
L 72.321091 199.688783 
L 70.300727 199.688783 
z
" style="fill:#1a1a1a;"/>
   </g>
   <g id="patch_26">
    <path clip-path="url(#pe53ee66d9e)" d="M 72.321091 200.06 
L 74.341455 200.06 
L 74.341455 199.680958 
L 72.321091 199.680958 
z
" style="fill:#1a1a1a;"/>
   </g>
   <g id="patch_27">
    <path clip-path="url(#pe53ee66d9e)" d="M 74.341455 200.06 
L 76.361818 200.06 
L 76.361818 199.663325 
L 74.341455 199.663325 
z
" style="fill:#1a1a1a;"/>
   </g>
   <g id="patch_28">
    <path clip-path="url(#pe53ee66d9e)" d="M 76.361818 200.06 
L 78.382182 200.06 
L 78.382182 199.643606 
L 76.361818 199.643606 
z
" style="fill:#1a1a1a;"/>
   </g>
   <g id="patch_29">
    <path clip-path="url(#pe53ee66d9e)" d="M 78.382182 200.06 
L 80.402545 200.06 
L 80.402545 199.603479 
L 78.382182 199.603479 
z
" style="fill:#1a1a1a;"/>
   </g>
   <g id="patch_30">
    <path clip-path="url(#pe53ee66d9e)" d="M 80.402545 200.06 
L 82.422909 200.06 
L 82.422909 199.594935 
L 80.402545 199.594935 
z
" style="fill:#1a1a1a;"/>
   </g>
   <g id="patch_31">
    <path clip-path="url(#pe53ee66d9e)" d="M 82.422909 200.06 
L 84.443273 200.06 
L 84.443273 199.584098 
L 82.422909 199.584098 
z
" style="fill:#1a1a1a;"/>
   </g>
   <g id="patch_32">
    <path clip-path="url(#pe53ee66d9e)" d="M 84.443273 200.06 
L 86.463636 200.06 
L 86.463636 199.560146 
L 84.443273 199.560146 
z
" style="fill:#1a1a1a;"/>
   </g>
   <g id="patch_33">
    <path clip-path="url(#pe53ee66d9e)" d="M 86.463636 200.06 
L 88.484 200.06 
L 88.484 199.539514 
L 86.463636 199.539514 
z
" style="fill:#1a1a1a;"/>
   </g>
   <g id="patch_34">
    <path clip-path="url(#pe53ee66d9e)" d="M 88.484 200.06 
L 90.504364 200.06 
L 90.504364 199.506287 
L 88.484 199.506287 
z
" style="fill:#1a1a1a;"/>
   </g>
   <g id="patch_35">
    <path clip-path="url(#pe53ee66d9e)" d="M 90.504364 200.06 
L 92.524727 200.06 
L 92.524727 199.480286 
L 90.504364 199.480286 
z
" style="fill:#1a1a1a;"/>
   </g>
   <g id="patch_36">
    <path clip-path="url(#pe53ee66d9e)" d="M 92.524727 200.06 
L 94.545091 200.06 
L 94.545091 199.470606 
L 92.524727 199.470606 
z
" style="fill:#1a1a1a;"/>
   </g>
   <g id="patch_37">
    <path clip-path="url(#pe53ee66d9e)" d="M 94.545091 200.06 
L 96.565455 200.06 
L 96.565455 199.45193 
L 94.545091 199.45193 
z
" style="fill:#1a1a1a;"/>
   </g>
   <g id="patch_38">
    <path clip-path="url(#pe53ee66d9e)" d="M 96.565455 200.06 
L 98.585818 200.06 
L 98.585818 199.435159 
L 96.565455 199.435159 
z
" style="fill:#1a1a1a;"/>
   </g>
   <g id="patch_39">
    <path clip-path="url(#pe53ee66d9e)" d="M 98.585818 200.06 
L 100.606182 200.06 
L 100.606182 199.351018 
L 98.585818 199.351018 
z
" style="fill:#1a1a1a;"/>
   </g>
   <g id="patch_40">
    <path clip-path="url(#pe53ee66d9e)" d="M 100.606182 200.06 
L 102.626545 200.06 
L 102.626545 199.294391 
L 100.606182 199.294391 
z
" style="fill:#1a1a1a;"/>
   </g>
   <g id="patch_41">
    <path clip-path="url(#pe53ee66d9e)" d="M 102.626545 200.06 
L 104.646909 200.06 
L 104.646909 199.235357 
L 102.626545 199.235357 
z
" style="fill:#1a1a1a;"/>
   </g>
   <g id="patch_42">
    <path clip-path="url(#pe53ee66d9e)" d="M 104.646909 200.06 
L 106.667273 200.06 
L 106.667273 199.135734 
L 104.646909 199.135734 
z
" style="fill:#1a1a1a;"/>
   </g>
   <g id="patch_43">
    <path clip-path="url(#pe53ee66d9e)" d="M 106.667273 200.06 
L 108.687636 200.06 
L 108.687636 199.013573 
L 106.667273 199.013573 
z
" style="fill:#1a1a1a;"/>
   </g>
   <g id="patch_44">
    <path clip-path="url(#pe53ee66d9e)" d="M 108.687636 200.06 
L 110.708 200.06 
L 110.708 198.991757 
L 108.687636 198.991757 
z
" style="fill:#1a1a1a;"/>
   </g>
   <g id="patch_45">
    <path clip-path="url(#pe53ee66d9e)" d="M 110.708 200.06 
L 112.728364 200.06 
L 112.728364 198.955183 
L 110.708 198.955183 
z
" style="fill:#1a1a1a;"/>
   </g>
   <g id="patch_46">
    <path clip-path="url(#pe53ee66d9e)" d="M 112.728364 200.06 
L 114.748727 200.06 
L 114.748727 198.858604 
L 112.728364 198.858604 
z
" style="fill:#1a1a1a;"/>
   </g>
   <g id="patch_47">
    <path clip-path="url(#pe53ee66d9e)" d="M 114.748727 200.06 
L 116.769091 200.06 
L 116.769091 198.68434 
L 114.748727 198.68434 
z
" style="fill:#1a1a1a;"/>
   </g>
   <g id="patch_48">
    <path clip-path="url(#pe53ee66d9e)" d="M 116.769091 200.06 
L 118.789455 200.06 
L 118.789455 198.616637 
L 116.769091 198.616637 
z
" style="fill:#1a1a1a;"/>
   </g>
   <g id="patch_49">
    <path clip-path="url(#pe53ee66d9e)" d="M 118.789455 200.06 
L 120.809818 200.06 
L 120.809818 198.521566 
L 118.789455 198.521566 
z
" style="fill:#1a1a1a;"/>
   </g>
   <g id="patch_50">
    <path clip-path="url(#pe53ee66d9e)" d="M 120.809818 200.06 
L 122.830182 200.06 
L 122.830182 198.439171 
L 120.809818 198.439171 
z
" style="fill:#1a1a1a;"/>
   </g>
   <g id="patch_51">
    <path clip-path="url(#pe53ee66d9e)" d="M 122.830182 200.06 
L 124.850545 200.06 
L 124.850545 198.26935 
L 122.830182 198.26935 
z
" style="fill:#1a1a1a;"/>
   </g>
   <g id="patch_52">
    <path clip-path="url(#pe53ee66d9e)" d="M 124.850545 200.06 
L 126.870909 200.06 
L 126.870909 198.128616 
L 124.850545 198.128616 
z
" style="fill:#1a1a1a;"/>
   </g>
   <g id="patch_53">
    <path clip-path="url(#pe53ee66d9e)" d="M 126.870909 200.06 
L 128.891273 200.06 
L 128.891273 197.743478 
L 126.870909 197.743478 
z
" style="fill:#1a1a1a;"/>
   </g>
   <g id="patch_54">
    <path clip-path="url(#pe53ee66d9e)" d="M 128.891273 200.06 
L 130.911636 200.06 
L 130.911636 197.68808 
L 128.891273 197.68808 
z
" style="fill:#1a1a1a;"/>
   </g>
   <g id="patch_55">
    <path clip-path="url(#pe53ee66d9e)" d="M 130.911636 200.06 
L 132.932 200.06 
L 132.932 197.378581 
L 130.911636 197.378581 
z
" style="fill:#1a1a1a;"/>
   </g>
   <g id="patch_56">
    <path clip-path="url(#pe53ee66d9e)" d="M 132.932 200.06 
L 134.952364 200.06 
L 134.952364 196.967464 
L 132.932 196.967464 
z
" style="fill:#1a1a1a;"/>
   </g>
   <g id="patch_57">
    <path clip-path="url(#pe53ee66d9e)" d="M 134.952364 200.06 
L 136.972727 200.06 
L 136.972727 196.929221 
L 134.952364 196.929221 
z
" style="fill:#1a1a1a;"/>
   </g>
   <g id="patch_58">
    <path clip-path="url(#pe53ee66d9e)" d="M 136.972727 200.06 
L 138.993091 200.06 
L 138.993091 196.651424 
L 136.972727 196.651424 
z
" style="fill:#1a1a1a;"/>
   </g>
   <g id="patch_59">
    <path clip-path="url(#pe53ee66d9e)" d="M 138.993091 200.06 
L 141.013455 200.06 
L 141.013455 196.576835 
L 138.993091 196.576835 
z
" style="fill:#1a1a1a;"/>
   </g>
   <g id="patch_60">
    <path clip-path="url(#pe53ee66d9e)" d="M 141.013455 200.06 
L 143.033818 200.06 
L 143.033818 196.565324 
L 141.013455 196.565324 
z
" style="fill:#1a1a1a;"/>
   </g>
   <g id="patch_61">
    <path clip-path="url(#pe53ee66d9e)" d="M 143.033818 200.06 
L 145.054182 200.06 
L 145.054182 196.014574 
L 143.033818 196.014574 
z
" style="fill:#1a1a1a;"/>
   </g>
   <g id="patch_62">
    <path clip-path="url(#pe53ee66d9e)" d="M 145.054182 200.06 
L 147.074545 200.06 
L 147.074545 195.791702 
L 145.054182 195.791702 
z
" style="fill:#1a1a1a;"/>
   </g>
   <g id="patch_63">
    <path clip-path="url(#pe53ee66d9e)" d="M 147.074545 200.06 
L 149.094909 200.06 
L 149.094909 194.64808 
L 147.074545 194.64808 
z
" style="fill:#1a1a1a;"/>
   </g>
   <g id="patch_64">
    <path clip-path="url(#pe53ee66d9e)" d="M 149.094909 200.06 
L 151.115273 200.06 
L 151.115273 193.522475 
L 149.094909 193.522475 
z
" style="fill:#1a1a1a;"/>
   </g>
   <g id="patch_65">
    <path clip-path="url(#pe53ee66d9e)" d="M 151.115273 200.06 
L 153.135636 200.06 
L 153.135636 192.842436 
L 151.115273 192.842436 
z
" style="fill:#1a1a1a;"/>
   </g>
   <g id="patch_66">
    <path clip-path="url(#pe53ee66d9e)" d="M 153.135636 200.06 
L 155.156 200.06 
L 155.156 190.703094 
L 153.135636 190.703094 
z
" style="fill:#1a1a1a;"/>
   </g>
   <g id="patch_67">
    <path clip-path="url(#pe53ee66d9e)" d="M 155.156 200.06 
L 157.176364 200.06 
L 157.176364 188.425341 
L 155.156 188.425341 
z
" style="fill:#1a1a1a;"/>
   </g>
   <g id="patch_68">
    <path clip-path="url(#pe53ee66d9e)" d="M 157.176364 200.06 
L 159.196727 200.06 
L 159.196727 184.311499 
L 157.176364 184.311499 
z
" style="fill:#1a1a1a;"/>
   </g>
   <g id="patch_69">
    <path clip-path="url(#pe53ee66d9e)" d="M 159.196727 200.06 
L 161.217091 200.06 
L 161.217091 182.267562 
L 159.196727 182.267562 
z
" style="fill:#1a1a1a;"/>
   </g>
   <g id="patch_70">
    <path clip-path="url(#pe53ee66d9e)" d="M 161.217091 200.06 
L 163.237455 200.06 
L 163.237455 175.723176 
L 161.217091 175.723176 
z
" style="fill:#1a1a1a;"/>
   </g>
   <g id="patch_71">
    <path clip-path="url(#pe53ee66d9e)" d="M 163.237455 200.06 
L 165.257818 200.06 
L 165.257818 172.975341 
L 163.237455 172.975341 
z
" style="fill:#1a1a1a;"/>
   </g>
   <g id="patch_72">
    <path clip-path="url(#pe53ee66d9e)" d="M 165.257818 200.06 
L 167.278182 200.06 
L 167.278182 169.176832 
L 165.257818 169.176832 
z
" style="fill:#1a1a1a;"/>
   </g>
   <g id="patch_73">
    <path clip-path="url(#pe53ee66d9e)" d="M 167.278182 200.06 
L 169.298545 200.06 
L 169.298545 163.76694 
L 167.278182 163.76694 
z
" style="fill:#1a1a1a;"/>
   </g>
   <g id="patch_74">
    <path clip-path="url(#pe53ee66d9e)" d="M 169.298545 200.06 
L 171.318909 200.06 
L 171.318909 157.653584 
L 169.298545 157.653584 
z
" style="fill:#1a1a1a;"/>
   </g>
   <g id="patch_75">
    <path clip-path="url(#pe53ee66d9e)" d="M 171.318909 200.06 
L 173.339273 200.06 
L 173.339273 155.928323 
L 171.318909 155.928323 
z
" style="fill:#1a1a1a;"/>
   </g>
   <g id="patch_76">
    <path clip-path="url(#pe53ee66d9e)" d="M 173.339273 200.06 
L 175.359636 200.06 
L 175.359636 152.04618 
L 173.339273 152.04618 
z
" style="fill:#1a1a1a;"/>
   </g>
   <g id="patch_77">
    <path clip-path="url(#pe53ee66d9e)" d="M 175.359636 200.06 
L 177.38 200.06 
L 177.38 150.049058 
L 175.359636 150.049058 
z
" style="fill:#1a1a1a;"/>
   </g>
   <g id="patch_78">
    <path clip-path="url(#pe53ee66d9e)" d="M 177.38 200.06 
L 179.400364 200.06 
L 179.400364 120.719773 
L 177.38 120.719773 
z
" style="fill:#1a1a1a;"/>
   </g>
   <g id="patch_79">
    <path clip-path="url(#pe53ee66d9e)" d="M 179.400364 200.06 
L 181.420727 200.06 
L 181.420727 150.229817 
L 179.400364 150.229817 
z
" style="fill:#1a1a1a;"/>
   </g>
   <g id="patch_80">
    <path clip-path="url(#pe53ee66d9e)" d="M 181.420727 200.06 
L 183.441091 200.06 
L 183.441091 155.610442 
L 181.420727 155.610442 
z
" style="fill:#1a1a1a;"/>
   </g>
   <g id="patch_81">
    <path clip-path="url(#pe53ee66d9e)" d="M 183.441091 200.06 
L 185.461455 200.06 
L 185.461455 157.416299 
L 183.441091 157.416299 
z
" style="fill:#1a1a1a;"/>
   </g>
   <g id="patch_82">
    <path clip-path="url(#pe53ee66d9e)" d="M 185.461455 200.06 
L 187.481818 200.06 
L 187.481818 162.728974 
L 185.461455 162.728974 
z
" style="fill:#1a1a1a;"/>
   </g>
   <g id="patch_83">
    <path clip-path="url(#pe53ee66d9e)" d="M 187.481818 200.06 
L 189.502182 200.06 
L 189.502182 163.997882 
L 187.481818 163.997882 
z
" style="fill:#1a1a1a;"/>
   </g>
   <g id="patch_84">
    <path clip-path="url(#pe53ee66d9e)" d="M 189.502182 200.06 
L 191.522545 200.06 
L 191.522545 170.557337 
L 189.502182 170.557337 
z
" style="fill:#1a1a1a;"/>
   </g>
   <g id="patch_85">
    <path clip-path="url(#pe53ee66d9e)" d="M 191.522545 200.06 
L 193.542909 200.06 
L 193.542909 173.408422 
L 191.522545 173.408422 
z
" style="fill:#1a1a1a;"/>
   </g>
   <g id="patch_86">
    <path clip-path="url(#pe53ee66d9e)" d="M 193.542909 200.06 
L 195.563273 200.06 
L 195.563273 177.30257 
L 193.542909 177.30257 
z
" style="fill:#1a1a1a;"/>
   </g>
   <g id="patch_87">
    <path clip-path="url(#pe53ee66d9e)" d="M 195.563273 200.06 
L 197.583636 200.06 
L 197.583636 184.113709 
L 195.563273 184.113709 
z
" style="fill:#1a1a1a;"/>
   </g>
   <g id="patch_88">
    <path clip-path="url(#pe53ee66d9e)" d="M 197.583636 200.06 
L 199.604 200.06 
L 199.604 184.448644 
L 197.583636 184.448644 
z
" style="fill:#1a1a1a;"/>
   </g>
   <g id="patch_89">
    <path clip-path="url(#pe53ee66d9e)" d="M 199.604 200.06 
L 201.624364 200.06 
L 201.624364 190.087315 
L 199.604 190.087315 
z
" style="fill:#1a1a1a;"/>
   </g>
   <g id="patch_90">
    <path clip-path="url(#pe53ee66d9e)" d="M 201.624364 200.06 
L 203.644727 200.06 
L 203.644727 190.731878 
L 201.624364 190.731878 
z
" style="fill:#1a1a1a;"/>
   </g>
   <g id="patch_91">
    <path clip-path="url(#pe53ee66d9e)" d="M 203.644727 200.06 
L 205.665091 200.06 
L 205.665091 193.329586 
L 203.644727 193.329586 
z
" style="fill:#1a1a1a;"/>
   </g>
   <g id="patch_92">
    <path clip-path="url(#pe53ee66d9e)" d="M 205.665091 200.06 
L 207.685455 200.06 
L 207.685455 194.252986 
L 205.665091 194.252986 
z
" style="fill:#1a1a1a;"/>
   </g>
   <g id="patch_93">
    <path clip-path="url(#pe53ee66d9e)" d="M 207.685455 200.06 
L 209.705818 200.06 
L 209.705818 195.700096 
L 207.685455 195.700096 
z
" style="fill:#1a1a1a;"/>
   </g>
   <g id="patch_94">
    <path clip-path="url(#pe53ee66d9e)" d="M 209.705818 200.06 
L 211.726182 200.06 
L 211.726182 195.94122 
L 209.705818 195.94122 
z
" style="fill:#1a1a1a;"/>
   </g>
   <g id="patch_95">
    <path clip-path="url(#pe53ee66d9e)" d="M 211.726182 200.06 
L 213.746545 200.06 
L 213.746545 196.205317 
L 211.726182 196.205317 
z
" style="fill:#1a1a1a;"/>
   </g>
   <g id="patch_96">
    <path clip-path="url(#pe53ee66d9e)" d="M 213.746545 200.06 
L 215.766909 200.06 
L 215.766909 196.568737 
L 213.746545 196.568737 
z
" style="fill:#1a1a1a;"/>
   </g>
   <g id="patch_97">
    <path clip-path="url(#pe53ee66d9e)" d="M 215.766909 200.06 
L 217.787273 200.06 
L 217.787273 196.641239 
L 215.766909 196.641239 
z
" style="fill:#1a1a1a;"/>
   </g>
   <g id="patch_98">
    <path clip-path="url(#pe53ee66d9e)" d="M 217.787273 200.06 
L 219.807636 200.06 
L 219.807636 196.910368 
L 217.787273 196.910368 
z
" style="fill:#1a1a1a;"/>
   </g>
   <g id="patch_99">
    <path clip-path="url(#pe53ee66d9e)" d="M 219.807636 200.06 
L 221.828 200.06 
L 221.828 196.931846 
L 219.807636 196.931846 
z
" style="fill:#1a1a1a;"/>
   </g>
   <g id="patch_100">
    <path clip-path="url(#pe53ee66d9e)" d="M 221.828 200.06 
L 223.848364 200.06 
L 223.848364 197.270235 
L 221.828 197.270235 
z
" style="fill:#1a1a1a;"/>
   </g>
   <g id="patch_101">
    <path clip-path="url(#pe53ee66d9e)" d="M 223.848364 200.06 
L 225.868727 200.06 
L 225.868727 197.496494 
L 223.848364 197.496494 
z
" style="fill:#1a1a1a;"/>
   </g>
   <g id="patch_102">
    <path clip-path="url(#pe53ee66d9e)" d="M 225.868727 200.06 
L 227.889091 200.06 
L 227.889091 197.714028 
L 225.868727 197.714028 
z
" style="fill:#1a1a1a;"/>
   </g>
   <g id="patch_103">
    <path clip-path="url(#pe53ee66d9e)" d="M 227.889091 200.06 
L 229.909455 200.06 
L 229.909455 198.120187 
L 227.889091 198.120187 
z
" style="fill:#1a1a1a;"/>
   </g>
   <g id="patch_104">
    <path clip-path="url(#pe53ee66d9e)" d="M 229.909455 200.06 
L 231.929818 200.06 
L 231.929818 198.247211 
L 229.909455 198.247211 
z
" style="fill:#1a1a1a;"/>
   </g>
   <g id="patch_105">
    <path clip-path="url(#pe53ee66d9e)" d="M 231.929818 200.06 
L 233.950182 200.06 
L 233.950182 198.327698 
L 231.929818 198.327698 
z
" style="fill:#1a1a1a;"/>
   </g>
   <g id="patch_106">
    <path clip-path="url(#pe53ee66d9e)" d="M 233.950182 200.06 
L 235.970545 200.06 
L 235.970545 198.449766 
L 233.950182 198.449766 
z
" style="fill:#1a1a1a;"/>
   </g>
   <g id="patch_107">
    <path clip-path="url(#pe53ee66d9e)" d="M 235.970545 200.06 
L 237.990909 200.06 
L 237.990909 198.535711 
L 235.970545 198.535711 
z
" style="fill:#1a1a1a;"/>
   </g>
   <g id="patch_108">
    <path clip-path="url(#pe53ee66d9e)" d="M 237.990909 200.06 
L 240.011273 200.06 
L 240.011273 198.637167 
L 237.990909 198.637167 
z
" style="fill:#1a1a1a;"/>
   </g>
   <g id="patch_109">
    <path clip-path="url(#pe53ee66d9e)" d="M 240.011273 200.06 
L 242.031636 200.06 
L 242.031636 198.791372 
L 240.011273 198.791372 
z
" style="fill:#1a1a1a;"/>
   </g>
   <g id="patch_110">
    <path clip-path="url(#pe53ee66d9e)" d="M 242.031636 200.06 
L 244.052 200.06 
L 244.052 198.951191 
L 242.031636 198.951191 
z
" style="fill:#1a1a1a;"/>
   </g>
   <g id="patch_111">
    <path clip-path="url(#pe53ee66d9e)" d="M 244.052 200.06 
L 246.072364 200.06 
L 246.072364 198.98104 
L 244.052 198.98104 
z
" style="fill:#1a1a1a;"/>
   </g>
   <g id="patch_112">
    <path clip-path="url(#pe53ee66d9e)" d="M 246.072364 200.06 
L 248.092727 200.06 
L 248.092727 199.003875 
L 246.072364 199.003875 
z
" style="fill:#1a1a1a;"/>
   </g>
   <g id="patch_113">
    <path clip-path="url(#pe53ee66d9e)" d="M 248.092727 200.06 
L 250.113091 200.06 
L 250.113091 199.053771 
L 248.092727 199.053771 
z
" style="fill:#1a1a1a;"/>
   </g>
   <g id="patch_114">
    <path clip-path="url(#pe53ee66d9e)" d="M 250.113091 200.06 
L 252.133455 200.06 
L 252.133455 199.186177 
L 250.113091 199.186177 
z
" style="fill:#1a1a1a;"/>
   </g>
   <g id="patch_115">
    <path clip-path="url(#pe53ee66d9e)" d="M 252.133455 200.06 
L 254.153818 200.06 
L 254.153818 199.283984 
L 252.133455 199.283984 
z
" style="fill:#1a1a1a;"/>
   </g>
   <g id="patch_116">
    <path clip-path="url(#pe53ee66d9e)" d="M 254.153818 200.06 
L 256.174182 200.06 
L 256.174182 199.328966 
L 254.153818 199.328966 
z
" style="fill:#1a1a1a;"/>
   </g>
   <g id="patch_117">
    <path clip-path="url(#pe53ee66d9e)" d="M 256.174182 200.06 
L 258.194545 200.06 
L 258.194545 199.370648 
L 256.174182 199.370648 
z
" style="fill:#1a1a1a;"/>
   </g>
   <g id="patch_118">
    <path clip-path="url(#pe53ee66d9e)" d="M 258.194545 200.06 
L 260.214909 200.06 
L 260.214909 199.444738 
L 258.194545 199.444738 
z
" style="fill:#1a1a1a;"/>
   </g>
   <g id="patch_119">
    <path clip-path="url(#pe53ee66d9e)" d="M 260.214909 200.06 
L 262.235273 200.06 
L 262.235273 199.452318 
L 260.214909 199.452318 
z
" style="fill:#1a1a1a;"/>
   </g>
   <g id="patch_120">
    <path clip-path="url(#pe53ee66d9e)" d="M 262.235273 200.06 
L 264.255636 200.06 
L 264.255636 199.471898 
L 262.235273 199.471898 
z
" style="fill:#1a1a1a;"/>
   </g>
   <g id="patch_121">
    <path clip-path="url(#pe53ee66d9e)" d="M 264.255636 200.06 
L 266.276 200.06 
L 266.276 199.480826 
L 264.255636 199.480826 
z
" style="fill:#1a1a1a;"/>
   </g>
   <g id="patch_122">
    <path clip-path="url(#pe53ee66d9e)" d="M 266.276 200.06 
L 268.296364 200.06 
L 268.296364 199.523261 
L 266.276 199.523261 
z
" style="fill:#1a1a1a;"/>
   </g>
   <g id="patch_123">
    <path clip-path="url(#pe53ee66d9e)" d="M 268.296364 200.06 
L 270.316727 200.06 
L 270.316727 199.543462 
L 268.296364 199.543462 
z
" style="fill:#1a1a1a;"/>
   </g>
   <g id="patch_124">
    <path clip-path="url(#pe53ee66d9e)" d="M 270.316727 200.06 
L 272.337091 200.06 
L 272.337091 199.576911 
L 270.316727 199.576911 
z
" style="fill:#1a1a1a;"/>
   </g>
   <g id="patch_125">
    <path clip-path="url(#pe53ee66d9e)" d="M 272.337091 200.06 
L 274.357455 200.06 
L 274.357455 199.590549 
L 272.337091 199.590549 
z
" style="fill:#1a1a1a;"/>
   </g>
   <g id="patch_126">
    <path clip-path="url(#pe53ee66d9e)" d="M 274.357455 200.06 
L 276.377818 200.06 
L 276.377818 199.595471 
L 274.357455 199.595471 
z
" style="fill:#1a1a1a;"/>
   </g>
   <g id="patch_127">
    <path clip-path="url(#pe53ee66d9e)" d="M 276.377818 200.06 
L 278.398182 200.06 
L 278.398182 199.636427 
L 276.377818 199.636427 
z
" style="fill:#1a1a1a;"/>
   </g>
   <g id="patch_128">
    <path clip-path="url(#pe53ee66d9e)" d="M 278.398182 200.06 
L 280.418545 200.06 
L 280.418545 199.658952 
L 278.398182 199.658952 
z
" style="fill:#1a1a1a;"/>
   </g>
   <g id="patch_129">
    <path clip-path="url(#pe53ee66d9e)" d="M 280.418545 200.06 
L 282.438909 200.06 
L 282.438909 199.676251 
L 280.418545 199.676251 
z
" style="fill:#1a1a1a;"/>
   </g>
   <g id="patch_130">
    <path clip-path="url(#pe53ee66d9e)" d="M 282.438909 200.06 
L 284.459273 200.06 
L 284.459273 199.68163 
L 282.438909 199.68163 
z
" style="fill:#1a1a1a;"/>
   </g>
   <g id="patch_131">
    <path clip-path="url(#pe53ee66d9e)" d="M 284.459273 200.06 
L 286.479636 200.06 
L 286.479636 199.696974 
L 284.459273 199.696974 
z
" style="fill:#1a1a1a;"/>
   </g>
   <g id="patch_132">
    <path clip-path="url(#pe53ee66d9e)" d="M 286.479636 200.06 
L 288.5 200.06 
L 288.5 199.698926 
L 286.479636 199.698926 
z
" style="fill:#1a1a1a;"/>
   </g>
   <g id="patch_133">
    <path clip-path="url(#pe53ee66d9e)" d="M 288.5 200.06 
L 290.520364 200.06 
L 290.520364 199.710855 
L 288.5 199.710855 
z
" style="fill:#1a1a1a;"/>
   </g>
   <g id="patch_134">
    <path clip-path="url(#pe53ee66d9e)" d="M 290.520364 200.06 
L 292.540727 200.06 
L 292.540727 199.727107 
L 290.520364 199.727107 
z
" style="fill:#1a1a1a;"/>
   </g>
   <g id="patch_135">
    <path clip-path="url(#pe53ee66d9e)" d="M 292.540727 200.06 
L 294.561091 200.06 
L 294.561091 199.731035 
L 292.540727 199.731035 
z
" style="fill:#1a1a1a;"/>
   </g>
   <g id="patch_136">
    <path clip-path="url(#pe53ee66d9e)" d="M 294.561091 200.06 
L 296.581455 200.06 
L 296.581455 199.732823 
L 294.561091 199.732823 
z
" style="fill:#1a1a1a;"/>
   </g>
   <g id="patch_137">
    <path clip-path="url(#pe53ee66d9e)" d="M 296.581455 200.06 
L 298.601818 200.06 
L 298.601818 199.738082 
L 296.581455 199.738082 
z
" style="fill:#1a1a1a;"/>
   </g>
   <g id="patch_138">
    <path clip-path="url(#pe53ee66d9e)" d="M 298.601818 200.06 
L 300.622182 200.06 
L 300.622182 199.749447 
L 298.601818 199.749447 
z
" style="fill:#1a1a1a;"/>
   </g>
   <g id="patch_139">
    <path clip-path="url(#pe53ee66d9e)" d="M 300.622182 200.06 
L 302.642545 200.06 
L 302.642545 199.757639 
L 300.622182 199.757639 
z
" style="fill:#1a1a1a;"/>
   </g>
   <g id="patch_140">
    <path clip-path="url(#pe53ee66d9e)" d="M 302.642545 200.06 
L 304.662909 200.06 
L 304.662909 199.761836 
L 302.642545 199.761836 
z
" style="fill:#1a1a1a;"/>
   </g>
   <g id="patch_141">
    <path clip-path="url(#pe53ee66d9e)" d="M 304.662909 200.06 
L 306.683273 200.06 
L 306.683273 199.764056 
L 304.662909 199.764056 
z
" style="fill:#1a1a1a;"/>
   </g>
   <g id="patch_142">
    <path clip-path="url(#pe53ee66d9e)" d="M 306.683273 200.06 
L 308.703636 200.06 
L 308.703636 199.773118 
L 306.683273 199.773118 
z
" style="fill:#1a1a1a;"/>
   </g>
   <g id="patch_143">
    <path clip-path="url(#pe53ee66d9e)" d="M 308.703636 200.06 
L 310.724 200.06 
L 310.724 199.77808 
L 308.703636 199.77808 
z
" style="fill:#1a1a1a;"/>
   </g>
   <g id="patch_144">
    <path clip-path="url(#pe53ee66d9e)" d="M 310.724 200.06 
L 312.744364 200.06 
L 312.744364 199.781342 
L 310.724 199.781342 
z
" style="fill:#1a1a1a;"/>
   </g>
   <g id="patch_145">
    <path clip-path="url(#pe53ee66d9e)" d="M 312.744364 200.06 
L 314.764727 200.06 
L 314.764727 199.782417 
L 312.744364 199.782417 
z
" style="fill:#1a1a1a;"/>
   </g>
   <g id="patch_146">
    <path clip-path="url(#pe53ee66d9e)" d="M 314.764727 200.06 
L 316.785091 200.06 
L 316.785091 199.790597 
L 314.764727 199.790597 
z
" style="fill:#1a1a1a;"/>
   </g>
   <g id="patch_147">
    <path clip-path="url(#pe53ee66d9e)" d="M 316.785091 200.06 
L 318.805455 200.06 
L 318.805455 199.794716 
L 316.785091 199.794716 
z
" style="fill:#1a1a1a;"/>
   </g>
   <g id="patch_148">
    <path clip-path="url(#pe53ee66d9e)" d="M 318.805455 200.06 
L 320.825818 200.06 
L 320.825818 199.796215 
L 318.805455 199.796215 
z
" style="fill:#1a1a1a;"/>
   </g>
   <g id="patch_149">
    <path clip-path="url(#pe53ee66d9e)" d="M 320.825818 200.06 
L 322.846182 200.06 
L 322.846182 199.798246 
L 320.825818 199.798246 
z
" style="fill:#1a1a1a;"/>
   </g>
   <g id="patch_150">
    <path clip-path="url(#pe53ee66d9e)" d="M 322.846182 200.06 
L 324.866545 200.06 
L 324.866545 199.803521 
L 322.846182 199.803521 
z
" style="fill:#1a1a1a;"/>
   </g>
   <g id="patch_151">
    <path clip-path="url(#pe53ee66d9e)" d="M 324.866545 200.06 
L 326.886909 200.06 
L 326.886909 199.807788 
L 324.866545 199.807788 
z
" style="fill:#1a1a1a;"/>
   </g>
   <g id="patch_152">
    <path clip-path="url(#pe53ee66d9e)" d="M 326.886909 200.06 
L 328.907273 200.06 
L 328.907273 199.809242 
L 326.886909 199.809242 
z
" style="fill:#1a1a1a;"/>
   </g>
   <g id="matplotlib.axis_1"/>
   <g id="matplotlib.axis_2"/>
   <g id="patch_153">
    <path d="M 10.7 200.06 
L 10.7 10.7 
" style="fill:none;stroke:#000000;stroke-linecap:square;stroke-linejoin:miter;stroke-width:0.8;"/>
   </g>
   <g id="patch_154">
    <path d="M 344.06 200.06 
L 344.06 10.7 
" style="fill:none;stroke:#000000;stroke-linecap:square;stroke-linejoin:miter;stroke-width:0.8;"/>
   </g>
   <g id="patch_155">
    <path d="M 10.7 200.06 
L 344.06 200.06 
" style="fill:none;stroke:#000000;stroke-linecap:square;stroke-linejoin:miter;stroke-width:0.8;"/>
   </g>
   <g id="patch_156">
    <path d="M 10.7 10.7 
L 344.06 10.7 
" style="fill:none;stroke:#000000;stroke-linecap:square;stroke-linejoin:miter;stroke-width:0.8;"/>
   </g>
  </g>
 </g>
 <defs>
  <clipPath id="pe53ee66d9e">
   <rect height="189.36" width="333.36" x="10.7" y="10.7"/>
  </clipPath>
 </defs>
</svg>
