<?xml version="1.0" encoding="utf-8" standalone="no"?>
<!DOCTYPE svg PUBLIC "-//W3C//DTD SVG 1.1//EN"
  "http://www.w3.org/Graphics/SVG/1.1/DTD/svg11.dtd">
<!-- Created with matplotlib (http://matplotlib.org/) -->
<svg height="210pt" version="1.1" viewBox="0 0 354 210" width="354pt" xmlns="http://www.w3.org/2000/svg" xmlns:xlink="http://www.w3.org/1999/xlink">
 <defs>
  <style type="text/css">
*{stroke-linecap:butt;stroke-linejoin:round;}
  </style>
 </defs>
 <g id="figure_1">
  <g id="patch_1">
   <path d="M 0 210.76 
L 354.76 210.76 
L 354.76 0 
L 0 0 
z
" style="fill:#ffffff;"/>
  </g>
  <g id="axes_1">
   <g id="patch_2">
    <path d="M 10.7 200.06 
L 344.06 200.06 
L 344.06 10.7 
L 10.7 10.7 
z
" style="fill:#ffffff;"/>
   </g>
   <g id="patch_3">
    <path clip-path="url(#pf789b3e3ff)" d="M 25.852727 200.06 
L 27.873091 200.06 
L 27.873091 199.690685 
L 25.852727 199.690685 
z
" style="fill:#1a1a1a;"/>
   </g>
   <g id="patch_4">
    <path clip-path="url(#pf789b3e3ff)" d="M 27.873091 200.06 
L 29.893455 200.06 
L 29.893455 199.688365 
L 27.873091 199.688365 
z
" style="fill:#1a1a1a;"/>
   </g>
   <g id="patch_5">
    <path clip-path="url(#pf789b3e3ff)" d="M 29.893455 200.06 
L 31.913818 200.06 
L 31.913818 199.686923 
L 29.893455 199.686923 
z
" style="fill:#1a1a1a;"/>
   </g>
   <g id="patch_6">
    <path clip-path="url(#pf789b3e3ff)" d="M 31.913818 200.06 
L 33.934182 200.06 
L 33.934182 199.683618 
L 31.913818 199.683618 
z
" style="fill:#1a1a1a;"/>
   </g>
   <g id="patch_7">
    <path clip-path="url(#pf789b3e3ff)" d="M 33.934182 200.06 
L 35.954545 200.06 
L 35.954545 199.682434 
L 33.934182 199.682434 
z
" style="fill:#1a1a1a;"/>
   </g>
   <g id="patch_8">
    <path clip-path="url(#pf789b3e3ff)" d="M 35.954545 200.06 
L 37.974909 200.06 
L 37.974909 199.67948 
L 35.954545 199.67948 
z
" style="fill:#1a1a1a;"/>
   </g>
   <g id="patch_9">
    <path clip-path="url(#pf789b3e3ff)" d="M 37.974909 200.06 
L 39.995273 200.06 
L 39.995273 199.678783 
L 37.974909 199.678783 
z
" style="fill:#1a1a1a;"/>
   </g>
   <g id="patch_10">
    <path clip-path="url(#pf789b3e3ff)" d="M 39.995273 200.06 
L 42.015636 200.06 
L 42.015636 199.676549 
L 39.995273 199.676549 
z
" style="fill:#1a1a1a;"/>
   </g>
   <g id="patch_11">
    <path clip-path="url(#pf789b3e3ff)" d="M 42.015636 200.06 
L 44.036 200.06 
L 44.036 199.675211 
L 42.015636 199.675211 
z
" style="fill:#1a1a1a;"/>
   </g>
   <g id="patch_12">
    <path clip-path="url(#pf789b3e3ff)" d="M 44.036 200.06 
L 46.056364 200.06 
L 46.056364 199.67353 
L 44.036 199.67353 
z
" style="fill:#1a1a1a;"/>
   </g>
   <g id="patch_13">
    <path clip-path="url(#pf789b3e3ff)" d="M 46.056364 200.06 
L 48.076727 200.06 
L 48.076727 199.671929 
L 46.056364 199.671929 
z
" style="fill:#1a1a1a;"/>
   </g>
   <g id="patch_14">
    <path clip-path="url(#pf789b3e3ff)" d="M 48.076727 200.06 
L 50.097091 200.06 
L 50.097091 199.670514 
L 48.076727 199.670514 
z
" style="fill:#1a1a1a;"/>
   </g>
   <g id="patch_15">
    <path clip-path="url(#pf789b3e3ff)" d="M 50.097091 200.06 
L 52.117455 200.06 
L 52.117455 199.668782 
L 50.097091 199.668782 
z
" style="fill:#1a1a1a;"/>
   </g>
   <g id="patch_16">
    <path clip-path="url(#pf789b3e3ff)" d="M 52.117455 200.06 
L 54.137818 200.06 
L 54.137818 199.668213 
L 52.117455 199.668213 
z
" style="fill:#1a1a1a;"/>
   </g>
   <g id="patch_17">
    <path clip-path="url(#pf789b3e3ff)" d="M 54.137818 200.06 
L 56.158182 200.06 
L 56.158182 199.663134 
L 54.137818 199.663134 
z
" style="fill:#1a1a1a;"/>
   </g>
   <g id="patch_18">
    <path clip-path="url(#pf789b3e3ff)" d="M 56.158182 200.06 
L 58.178545 200.06 
L 58.178545 199.660913 
L 56.158182 199.660913 
z
" style="fill:#1a1a1a;"/>
   </g>
   <g id="patch_19">
    <path clip-path="url(#pf789b3e3ff)" d="M 58.178545 200.06 
L 60.198909 200.06 
L 60.198909 199.654388 
L 58.178545 199.654388 
z
" style="fill:#1a1a1a;"/>
   </g>
   <g id="patch_20">
    <path clip-path="url(#pf789b3e3ff)" d="M 60.198909 200.06 
L 62.219273 200.06 
L 62.219273 199.648077 
L 60.198909 199.648077 
z
" style="fill:#1a1a1a;"/>
   </g>
   <g id="patch_21">
    <path clip-path="url(#pf789b3e3ff)" d="M 62.219273 200.06 
L 64.239636 200.06 
L 64.239636 199.645528 
L 62.219273 199.645528 
z
" style="fill:#1a1a1a;"/>
   </g>
   <g id="patch_22">
    <path clip-path="url(#pf789b3e3ff)" d="M 64.239636 200.06 
L 66.26 200.06 
L 66.26 199.641494 
L 64.239636 199.641494 
z
" style="fill:#1a1a1a;"/>
   </g>
   <g id="patch_23">
    <path clip-path="url(#pf789b3e3ff)" d="M 66.26 200.06 
L 68.280364 200.06 
L 68.280364 199.639451 
L 66.26 199.639451 
z
" style="fill:#1a1a1a;"/>
   </g>
   <g id="patch_24">
    <path clip-path="url(#pf789b3e3ff)" d="M 68.280364 200.06 
L 70.300727 200.06 
L 70.300727 199.635162 
L 68.280364 199.635162 
z
" style="fill:#1a1a1a;"/>
   </g>
   <g id="patch_25">
    <path clip-path="url(#pf789b3e3ff)" d="M 70.300727 200.06 
L 72.321091 200.06 
L 72.321091 199.631267 
L 70.300727 199.631267 
z
" style="fill:#1a1a1a;"/>
   </g>
   <g id="patch_26">
    <path clip-path="url(#pf789b3e3ff)" d="M 72.321091 200.06 
L 74.341455 200.06 
L 74.341455 199.627707 
L 72.321091 199.627707 
z
" style="fill:#1a1a1a;"/>
   </g>
   <g id="patch_27">
    <path clip-path="url(#pf789b3e3ff)" d="M 74.341455 200.06 
L 76.361818 200.06 
L 76.361818 199.619202 
L 74.341455 199.619202 
z
" style="fill:#1a1a1a;"/>
   </g>
   <g id="patch_28">
    <path clip-path="url(#pf789b3e3ff)" d="M 76.361818 200.06 
L 78.382182 200.06 
L 78.382182 199.612216 
L 76.361818 199.612216 
z
" style="fill:#1a1a1a;"/>
   </g>
   <g id="patch_29">
    <path clip-path="url(#pf789b3e3ff)" d="M 78.382182 200.06 
L 80.402545 200.06 
L 80.402545 199.60641 
L 78.382182 199.60641 
z
" style="fill:#1a1a1a;"/>
   </g>
   <g id="patch_30">
    <path clip-path="url(#pf789b3e3ff)" d="M 80.402545 200.06 
L 82.422909 200.06 
L 82.422909 199.593859 
L 80.402545 199.593859 
z
" style="fill:#1a1a1a;"/>
   </g>
   <g id="patch_31">
    <path clip-path="url(#pf789b3e3ff)" d="M 82.422909 200.06 
L 84.443273 200.06 
L 84.443273 199.582818 
L 82.422909 199.582818 
z
" style="fill:#1a1a1a;"/>
   </g>
   <g id="patch_32">
    <path clip-path="url(#pf789b3e3ff)" d="M 84.443273 200.06 
L 86.463636 200.06 
L 86.463636 199.571807 
L 84.443273 199.571807 
z
" style="fill:#1a1a1a;"/>
   </g>
   <g id="patch_33">
    <path clip-path="url(#pf789b3e3ff)" d="M 86.463636 200.06 
L 88.484 200.06 
L 88.484 199.566856 
L 86.463636 199.566856 
z
" style="fill:#1a1a1a;"/>
   </g>
   <g id="patch_34">
    <path clip-path="url(#pf789b3e3ff)" d="M 88.484 200.06 
L 90.504364 200.06 
L 90.504364 199.557193 
L 88.484 199.557193 
z
" style="fill:#1a1a1a;"/>
   </g>
   <g id="patch_35">
    <path clip-path="url(#pf789b3e3ff)" d="M 90.504364 200.06 
L 92.524727 200.06 
L 92.524727 199.543325 
L 90.504364 199.543325 
z
" style="fill:#1a1a1a;"/>
   </g>
   <g id="patch_36">
    <path clip-path="url(#pf789b3e3ff)" d="M 92.524727 200.06 
L 94.545091 200.06 
L 94.545091 199.529694 
L 92.524727 199.529694 
z
" style="fill:#1a1a1a;"/>
   </g>
   <g id="patch_37">
    <path clip-path="url(#pf789b3e3ff)" d="M 94.545091 200.06 
L 96.565455 200.06 
L 96.565455 199.525652 
L 94.545091 199.525652 
z
" style="fill:#1a1a1a;"/>
   </g>
   <g id="patch_38">
    <path clip-path="url(#pf789b3e3ff)" d="M 96.565455 200.06 
L 98.585818 200.06 
L 98.585818 199.519422 
L 96.565455 199.519422 
z
" style="fill:#1a1a1a;"/>
   </g>
   <g id="patch_39">
    <path clip-path="url(#pf789b3e3ff)" d="M 98.585818 200.06 
L 100.606182 200.06 
L 100.606182 199.512961 
L 98.585818 199.512961 
z
" style="fill:#1a1a1a;"/>
   </g>
   <g id="patch_40">
    <path clip-path="url(#pf789b3e3ff)" d="M 100.606182 200.06 
L 102.626545 200.06 
L 102.626545 199.470735 
L 100.606182 199.470735 
z
" style="fill:#1a1a1a;"/>
   </g>
   <g id="patch_41">
    <path clip-path="url(#pf789b3e3ff)" d="M 102.626545 200.06 
L 104.646909 200.06 
L 104.646909 199.435102 
L 102.626545 199.435102 
z
" style="fill:#1a1a1a;"/>
   </g>
   <g id="patch_42">
    <path clip-path="url(#pf789b3e3ff)" d="M 104.646909 200.06 
L 106.667273 200.06 
L 106.667273 199.429577 
L 104.646909 199.429577 
z
" style="fill:#1a1a1a;"/>
   </g>
   <g id="patch_43">
    <path clip-path="url(#pf789b3e3ff)" d="M 106.667273 200.06 
L 108.687636 200.06 
L 108.687636 199.413297 
L 106.667273 199.413297 
z
" style="fill:#1a1a1a;"/>
   </g>
   <g id="patch_44">
    <path clip-path="url(#pf789b3e3ff)" d="M 108.687636 200.06 
L 110.708 200.06 
L 110.708 199.375972 
L 108.687636 199.375972 
z
" style="fill:#1a1a1a;"/>
   </g>
   <g id="patch_45">
    <path clip-path="url(#pf789b3e3ff)" d="M 110.708 200.06 
L 112.728364 200.06 
L 112.728364 199.367632 
L 110.708 199.367632 
z
" style="fill:#1a1a1a;"/>
   </g>
   <g id="patch_46">
    <path clip-path="url(#pf789b3e3ff)" d="M 112.728364 200.06 
L 114.748727 200.06 
L 114.748727 199.348339 
L 112.728364 199.348339 
z
" style="fill:#1a1a1a;"/>
   </g>
   <g id="patch_47">
    <path clip-path="url(#pf789b3e3ff)" d="M 114.748727 200.06 
L 116.769091 200.06 
L 116.769091 199.299569 
L 114.748727 199.299569 
z
" style="fill:#1a1a1a;"/>
   </g>
   <g id="patch_48">
    <path clip-path="url(#pf789b3e3ff)" d="M 116.769091 200.06 
L 118.789455 200.06 
L 118.789455 199.267814 
L 116.769091 199.267814 
z
" style="fill:#1a1a1a;"/>
   </g>
   <g id="patch_49">
    <path clip-path="url(#pf789b3e3ff)" d="M 118.789455 200.06 
L 120.809818 200.06 
L 120.809818 199.203019 
L 118.789455 199.203019 
z
" style="fill:#1a1a1a;"/>
   </g>
   <g id="patch_50">
    <path clip-path="url(#pf789b3e3ff)" d="M 120.809818 200.06 
L 122.830182 200.06 
L 122.830182 199.158285 
L 120.809818 199.158285 
z
" style="fill:#1a1a1a;"/>
   </g>
   <g id="patch_51">
    <path clip-path="url(#pf789b3e3ff)" d="M 122.830182 200.06 
L 124.850545 200.06 
L 124.850545 199.075758 
L 122.830182 199.075758 
z
" style="fill:#1a1a1a;"/>
   </g>
   <g id="patch_52">
    <path clip-path="url(#pf789b3e3ff)" d="M 124.850545 200.06 
L 126.870909 200.06 
L 126.870909 198.885246 
L 124.850545 198.885246 
z
" style="fill:#1a1a1a;"/>
   </g>
   <g id="patch_53">
    <path clip-path="url(#pf789b3e3ff)" d="M 126.870909 200.06 
L 128.891273 200.06 
L 128.891273 198.616856 
L 126.870909 198.616856 
z
" style="fill:#1a1a1a;"/>
   </g>
   <g id="patch_54">
    <path clip-path="url(#pf789b3e3ff)" d="M 128.891273 200.06 
L 130.911636 200.06 
L 130.911636 198.569492 
L 128.891273 198.569492 
z
" style="fill:#1a1a1a;"/>
   </g>
   <g id="patch_55">
    <path clip-path="url(#pf789b3e3ff)" d="M 130.911636 200.06 
L 132.932 200.06 
L 132.932 198.493254 
L 130.911636 198.493254 
z
" style="fill:#1a1a1a;"/>
   </g>
   <g id="patch_56">
    <path clip-path="url(#pf789b3e3ff)" d="M 132.932 200.06 
L 134.952364 200.06 
L 134.952364 198.360455 
L 132.932 198.360455 
z
" style="fill:#1a1a1a;"/>
   </g>
   <g id="patch_57">
    <path clip-path="url(#pf789b3e3ff)" d="M 134.952364 200.06 
L 136.972727 200.06 
L 136.972727 197.99217 
L 134.952364 197.99217 
z
" style="fill:#1a1a1a;"/>
   </g>
   <g id="patch_58">
    <path clip-path="url(#pf789b3e3ff)" d="M 136.972727 200.06 
L 138.993091 200.06 
L 138.993091 197.814171 
L 136.972727 197.814171 
z
" style="fill:#1a1a1a;"/>
   </g>
   <g id="patch_59">
    <path clip-path="url(#pf789b3e3ff)" d="M 138.993091 200.06 
L 141.013455 200.06 
L 141.013455 196.689218 
L 138.993091 196.689218 
z
" style="fill:#1a1a1a;"/>
   </g>
   <g id="patch_60">
    <path clip-path="url(#pf789b3e3ff)" d="M 141.013455 200.06 
L 143.033818 200.06 
L 143.033818 196.473707 
L 141.013455 196.473707 
z
" style="fill:#1a1a1a;"/>
   </g>
   <g id="patch_61">
    <path clip-path="url(#pf789b3e3ff)" d="M 143.033818 200.06 
L 145.054182 200.06 
L 145.054182 196.260303 
L 143.033818 196.260303 
z
" style="fill:#1a1a1a;"/>
   </g>
   <g id="patch_62">
    <path clip-path="url(#pf789b3e3ff)" d="M 145.054182 200.06 
L 147.074545 200.06 
L 147.074545 195.484571 
L 145.054182 195.484571 
z
" style="fill:#1a1a1a;"/>
   </g>
   <g id="patch_63">
    <path clip-path="url(#pf789b3e3ff)" d="M 147.074545 200.06 
L 149.094909 200.06 
L 149.094909 195.165866 
L 147.074545 195.165866 
z
" style="fill:#1a1a1a;"/>
   </g>
   <g id="patch_64">
    <path clip-path="url(#pf789b3e3ff)" d="M 149.094909 200.06 
L 151.115273 200.06 
L 151.115273 194.333933 
L 149.094909 194.333933 
z
" style="fill:#1a1a1a;"/>
   </g>
   <g id="patch_65">
    <path clip-path="url(#pf789b3e3ff)" d="M 151.115273 200.06 
L 153.135636 200.06 
L 153.135636 193.826756 
L 151.115273 193.826756 
z
" style="fill:#1a1a1a;"/>
   </g>
   <g id="patch_66">
    <path clip-path="url(#pf789b3e3ff)" d="M 153.135636 200.06 
L 155.156 200.06 
L 155.156 193.387463 
L 153.135636 193.387463 
z
" style="fill:#1a1a1a;"/>
   </g>
   <g id="patch_67">
    <path clip-path="url(#pf789b3e3ff)" d="M 155.156 200.06 
L 157.176364 200.06 
L 157.176364 190.808777 
L 155.156 190.808777 
z
" style="fill:#1a1a1a;"/>
   </g>
   <g id="patch_68">
    <path clip-path="url(#pf789b3e3ff)" d="M 157.176364 200.06 
L 159.196727 200.06 
L 159.196727 190.04644 
L 157.176364 190.04644 
z
" style="fill:#1a1a1a;"/>
   </g>
   <g id="patch_69">
    <path clip-path="url(#pf789b3e3ff)" d="M 159.196727 200.06 
L 161.217091 200.06 
L 161.217091 187.993832 
L 159.196727 187.993832 
z
" style="fill:#1a1a1a;"/>
   </g>
   <g id="patch_70">
    <path clip-path="url(#pf789b3e3ff)" d="M 161.217091 200.06 
L 163.237455 200.06 
L 163.237455 185.486962 
L 161.217091 185.486962 
z
" style="fill:#1a1a1a;"/>
   </g>
   <g id="patch_71">
    <path clip-path="url(#pf789b3e3ff)" d="M 163.237455 200.06 
L 165.257818 200.06 
L 165.257818 177.612079 
L 163.237455 177.612079 
z
" style="fill:#1a1a1a;"/>
   </g>
   <g id="patch_72">
    <path clip-path="url(#pf789b3e3ff)" d="M 165.257818 200.06 
L 167.278182 200.06 
L 167.278182 177.243164 
L 165.257818 177.243164 
z
" style="fill:#1a1a1a;"/>
   </g>
   <g id="patch_73">
    <path clip-path="url(#pf789b3e3ff)" d="M 167.278182 200.06 
L 169.298545 200.06 
L 169.298545 174.79733 
L 167.278182 174.79733 
z
" style="fill:#1a1a1a;"/>
   </g>
   <g id="patch_74">
    <path clip-path="url(#pf789b3e3ff)" d="M 169.298545 200.06 
L 171.318909 200.06 
L 171.318909 174.56003 
L 169.298545 174.56003 
z
" style="fill:#1a1a1a;"/>
   </g>
   <g id="patch_75">
    <path clip-path="url(#pf789b3e3ff)" d="M 171.318909 200.06 
L 173.339273 200.06 
L 173.339273 174.490349 
L 171.318909 174.490349 
z
" style="fill:#1a1a1a;"/>
   </g>
   <g id="patch_76">
    <path clip-path="url(#pf789b3e3ff)" d="M 173.339273 200.06 
L 175.359636 200.06 
L 175.359636 174.364721 
L 173.339273 174.364721 
z
" style="fill:#1a1a1a;"/>
   </g>
   <g id="patch_77">
    <path clip-path="url(#pf789b3e3ff)" d="M 175.359636 200.06 
L 177.38 200.06 
L 177.38 173.622453 
L 175.359636 173.622453 
z
" style="fill:#1a1a1a;"/>
   </g>
   <g id="patch_78">
    <path clip-path="url(#pf789b3e3ff)" d="M 177.38 200.06 
L 179.400364 200.06 
L 179.400364 157.091278 
L 177.38 157.091278 
z
" style="fill:#1a1a1a;"/>
   </g>
   <g id="patch_79">
    <path clip-path="url(#pf789b3e3ff)" d="M 179.400364 200.06 
L 181.420727 200.06 
L 181.420727 173.675039 
L 179.400364 173.675039 
z
" style="fill:#1a1a1a;"/>
   </g>
   <g id="patch_80">
    <path clip-path="url(#pf789b3e3ff)" d="M 181.420727 200.06 
L 183.441091 200.06 
L 183.441091 174.388428 
L 181.420727 174.388428 
z
" style="fill:#1a1a1a;"/>
   </g>
   <g id="patch_81">
    <path clip-path="url(#pf789b3e3ff)" d="M 183.441091 200.06 
L 185.461455 200.06 
L 185.461455 174.517538 
L 183.441091 174.517538 
z
" style="fill:#1a1a1a;"/>
   </g>
   <g id="patch_82">
    <path clip-path="url(#pf789b3e3ff)" d="M 185.461455 200.06 
L 187.481818 200.06 
L 187.481818 174.703867 
L 185.461455 174.703867 
z
" style="fill:#1a1a1a;"/>
   </g>
   <g id="patch_83">
    <path clip-path="url(#pf789b3e3ff)" d="M 187.481818 200.06 
L 189.502182 200.06 
L 189.502182 174.899905 
L 187.481818 174.899905 
z
" style="fill:#1a1a1a;"/>
   </g>
   <g id="patch_84">
    <path clip-path="url(#pf789b3e3ff)" d="M 189.502182 200.06 
L 191.522545 200.06 
L 191.522545 177.304016 
L 189.502182 177.304016 
z
" style="fill:#1a1a1a;"/>
   </g>
   <g id="patch_85">
    <path clip-path="url(#pf789b3e3ff)" d="M 191.522545 200.06 
L 193.542909 200.06 
L 193.542909 184.545526 
L 191.522545 184.545526 
z
" style="fill:#1a1a1a;"/>
   </g>
   <g id="patch_86">
    <path clip-path="url(#pf789b3e3ff)" d="M 193.542909 200.06 
L 195.563273 200.06 
L 195.563273 185.683076 
L 193.542909 185.683076 
z
" style="fill:#1a1a1a;"/>
   </g>
   <g id="patch_87">
    <path clip-path="url(#pf789b3e3ff)" d="M 195.563273 200.06 
L 197.583636 200.06 
L 197.583636 188.146093 
L 195.563273 188.146093 
z
" style="fill:#1a1a1a;"/>
   </g>
   <g id="patch_88">
    <path clip-path="url(#pf789b3e3ff)" d="M 197.583636 200.06 
L 199.604 200.06 
L 199.604 190.545752 
L 197.583636 190.545752 
z
" style="fill:#1a1a1a;"/>
   </g>
   <g id="patch_89">
    <path clip-path="url(#pf789b3e3ff)" d="M 199.604 200.06 
L 201.624364 200.06 
L 201.624364 192.217543 
L 199.604 192.217543 
z
" style="fill:#1a1a1a;"/>
   </g>
   <g id="patch_90">
    <path clip-path="url(#pf789b3e3ff)" d="M 201.624364 200.06 
L 203.644727 200.06 
L 203.644727 193.663547 
L 201.624364 193.663547 
z
" style="fill:#1a1a1a;"/>
   </g>
   <g id="patch_91">
    <path clip-path="url(#pf789b3e3ff)" d="M 203.644727 200.06 
L 205.665091 200.06 
L 205.665091 194.17563 
L 203.644727 194.17563 
z
" style="fill:#1a1a1a;"/>
   </g>
   <g id="patch_92">
    <path clip-path="url(#pf789b3e3ff)" d="M 205.665091 200.06 
L 207.685455 200.06 
L 207.685455 194.419495 
L 205.665091 194.419495 
z
" style="fill:#1a1a1a;"/>
   </g>
   <g id="patch_93">
    <path clip-path="url(#pf789b3e3ff)" d="M 207.685455 200.06 
L 209.705818 200.06 
L 209.705818 195.295124 
L 207.685455 195.295124 
z
" style="fill:#1a1a1a;"/>
   </g>
   <g id="patch_94">
    <path clip-path="url(#pf789b3e3ff)" d="M 209.705818 200.06 
L 211.726182 200.06 
L 211.726182 196.079931 
L 209.705818 196.079931 
z
" style="fill:#1a1a1a;"/>
   </g>
   <g id="patch_95">
    <path clip-path="url(#pf789b3e3ff)" d="M 211.726182 200.06 
L 213.746545 200.06 
L 213.746545 196.355294 
L 211.726182 196.355294 
z
" style="fill:#1a1a1a;"/>
   </g>
   <g id="patch_96">
    <path clip-path="url(#pf789b3e3ff)" d="M 213.746545 200.06 
L 215.766909 200.06 
L 215.766909 196.478045 
L 213.746545 196.478045 
z
" style="fill:#1a1a1a;"/>
   </g>
   <g id="patch_97">
    <path clip-path="url(#pf789b3e3ff)" d="M 215.766909 200.06 
L 217.787273 200.06 
L 217.787273 197.455631 
L 215.766909 197.455631 
z
" style="fill:#1a1a1a;"/>
   </g>
   <g id="patch_98">
    <path clip-path="url(#pf789b3e3ff)" d="M 217.787273 200.06 
L 219.807636 200.06 
L 219.807636 197.889348 
L 217.787273 197.889348 
z
" style="fill:#1a1a1a;"/>
   </g>
   <g id="patch_99">
    <path clip-path="url(#pf789b3e3ff)" d="M 219.807636 200.06 
L 221.828 200.06 
L 221.828 198.257498 
L 219.807636 198.257498 
z
" style="fill:#1a1a1a;"/>
   </g>
   <g id="patch_100">
    <path clip-path="url(#pf789b3e3ff)" d="M 221.828 200.06 
L 223.848364 200.06 
L 223.848364 198.399144 
L 221.828 198.399144 
z
" style="fill:#1a1a1a;"/>
   </g>
   <g id="patch_101">
    <path clip-path="url(#pf789b3e3ff)" d="M 223.848364 200.06 
L 225.868727 200.06 
L 225.868727 198.518887 
L 223.848364 198.518887 
z
" style="fill:#1a1a1a;"/>
   </g>
   <g id="patch_102">
    <path clip-path="url(#pf789b3e3ff)" d="M 225.868727 200.06 
L 227.889091 200.06 
L 227.889091 198.591535 
L 225.868727 198.591535 
z
" style="fill:#1a1a1a;"/>
   </g>
   <g id="patch_103">
    <path clip-path="url(#pf789b3e3ff)" d="M 227.889091 200.06 
L 229.909455 200.06 
L 229.909455 198.677033 
L 227.889091 198.677033 
z
" style="fill:#1a1a1a;"/>
   </g>
   <g id="patch_104">
    <path clip-path="url(#pf789b3e3ff)" d="M 229.909455 200.06 
L 231.929818 200.06 
L 231.929818 199.03798 
L 229.909455 199.03798 
z
" style="fill:#1a1a1a;"/>
   </g>
   <g id="patch_105">
    <path clip-path="url(#pf789b3e3ff)" d="M 231.929818 200.06 
L 233.950182 200.06 
L 233.950182 199.111808 
L 231.929818 199.111808 
z
" style="fill:#1a1a1a;"/>
   </g>
   <g id="patch_106">
    <path clip-path="url(#pf789b3e3ff)" d="M 233.950182 200.06 
L 235.970545 200.06 
L 235.970545 199.162723 
L 233.950182 199.162723 
z
" style="fill:#1a1a1a;"/>
   </g>
   <g id="patch_107">
    <path clip-path="url(#pf789b3e3ff)" d="M 235.970545 200.06 
L 237.990909 200.06 
L 237.990909 199.245789 
L 235.970545 199.245789 
z
" style="fill:#1a1a1a;"/>
   </g>
   <g id="patch_108">
    <path clip-path="url(#pf789b3e3ff)" d="M 237.990909 200.06 
L 240.011273 200.06 
L 240.011273 199.286865 
L 237.990909 199.286865 
z
" style="fill:#1a1a1a;"/>
   </g>
   <g id="patch_109">
    <path clip-path="url(#pf789b3e3ff)" d="M 240.011273 200.06 
L 242.031636 200.06 
L 242.031636 199.32871 
L 240.011273 199.32871 
z
" style="fill:#1a1a1a;"/>
   </g>
   <g id="patch_110">
    <path clip-path="url(#pf789b3e3ff)" d="M 242.031636 200.06 
L 244.052 200.06 
L 244.052 199.34846 
L 242.031636 199.34846 
z
" style="fill:#1a1a1a;"/>
   </g>
   <g id="patch_111">
    <path clip-path="url(#pf789b3e3ff)" d="M 244.052 200.06 
L 246.072364 200.06 
L 246.072364 199.37562 
L 244.052 199.37562 
z
" style="fill:#1a1a1a;"/>
   </g>
   <g id="patch_112">
    <path clip-path="url(#pf789b3e3ff)" d="M 246.072364 200.06 
L 248.092727 200.06 
L 248.092727 199.395849 
L 246.072364 199.395849 
z
" style="fill:#1a1a1a;"/>
   </g>
   <g id="patch_113">
    <path clip-path="url(#pf789b3e3ff)" d="M 248.092727 200.06 
L 250.113091 200.06 
L 250.113091 199.415421 
L 248.092727 199.415421 
z
" style="fill:#1a1a1a;"/>
   </g>
   <g id="patch_114">
    <path clip-path="url(#pf789b3e3ff)" d="M 250.113091 200.06 
L 252.133455 200.06 
L 252.133455 199.430458 
L 250.113091 199.430458 
z
" style="fill:#1a1a1a;"/>
   </g>
   <g id="patch_115">
    <path clip-path="url(#pf789b3e3ff)" d="M 252.133455 200.06 
L 254.153818 200.06 
L 254.153818 199.450626 
L 252.133455 199.450626 
z
" style="fill:#1a1a1a;"/>
   </g>
   <g id="patch_116">
    <path clip-path="url(#pf789b3e3ff)" d="M 254.153818 200.06 
L 256.174182 200.06 
L 256.174182 199.470831 
L 254.153818 199.470831 
z
" style="fill:#1a1a1a;"/>
   </g>
   <g id="patch_117">
    <path clip-path="url(#pf789b3e3ff)" d="M 256.174182 200.06 
L 258.194545 200.06 
L 258.194545 199.517997 
L 256.174182 199.517997 
z
" style="fill:#1a1a1a;"/>
   </g>
   <g id="patch_118">
    <path clip-path="url(#pf789b3e3ff)" d="M 258.194545 200.06 
L 260.214909 200.06 
L 260.214909 199.52054 
L 258.194545 199.52054 
z
" style="fill:#1a1a1a;"/>
   </g>
   <g id="patch_119">
    <path clip-path="url(#pf789b3e3ff)" d="M 260.214909 200.06 
L 262.235273 200.06 
L 262.235273 199.529341 
L 260.214909 199.529341 
z
" style="fill:#1a1a1a;"/>
   </g>
   <g id="patch_120">
    <path clip-path="url(#pf789b3e3ff)" d="M 262.235273 200.06 
L 264.255636 200.06 
L 264.255636 199.529829 
L 262.235273 199.529829 
z
" style="fill:#1a1a1a;"/>
   </g>
   <g id="patch_121">
    <path clip-path="url(#pf789b3e3ff)" d="M 264.255636 200.06 
L 266.276 200.06 
L 266.276 199.553592 
L 264.255636 199.553592 
z
" style="fill:#1a1a1a;"/>
   </g>
   <g id="patch_122">
    <path clip-path="url(#pf789b3e3ff)" d="M 266.276 200.06 
L 268.296364 200.06 
L 268.296364 199.561383 
L 266.276 199.561383 
z
" style="fill:#1a1a1a;"/>
   </g>
   <g id="patch_123">
    <path clip-path="url(#pf789b3e3ff)" d="M 268.296364 200.06 
L 270.316727 200.06 
L 270.316727 199.56963 
L 268.296364 199.56963 
z
" style="fill:#1a1a1a;"/>
   </g>
   <g id="patch_124">
    <path clip-path="url(#pf789b3e3ff)" d="M 270.316727 200.06 
L 272.337091 200.06 
L 272.337091 199.576346 
L 270.316727 199.576346 
z
" style="fill:#1a1a1a;"/>
   </g>
   <g id="patch_125">
    <path clip-path="url(#pf789b3e3ff)" d="M 272.337091 200.06 
L 274.357455 200.06 
L 274.357455 199.584744 
L 272.337091 199.584744 
z
" style="fill:#1a1a1a;"/>
   </g>
   <g id="patch_126">
    <path clip-path="url(#pf789b3e3ff)" d="M 274.357455 200.06 
L 276.377818 200.06 
L 276.377818 199.60398 
L 274.357455 199.60398 
z
" style="fill:#1a1a1a;"/>
   </g>
   <g id="patch_127">
    <path clip-path="url(#pf789b3e3ff)" d="M 276.377818 200.06 
L 278.398182 200.06 
L 278.398182 199.611045 
L 276.377818 199.611045 
z
" style="fill:#1a1a1a;"/>
   </g>
   <g id="patch_128">
    <path clip-path="url(#pf789b3e3ff)" d="M 278.398182 200.06 
L 280.418545 200.06 
L 280.418545 199.614361 
L 278.398182 199.614361 
z
" style="fill:#1a1a1a;"/>
   </g>
   <g id="patch_129">
    <path clip-path="url(#pf789b3e3ff)" d="M 280.418545 200.06 
L 282.438909 200.06 
L 282.438909 199.622672 
L 280.418545 199.622672 
z
" style="fill:#1a1a1a;"/>
   </g>
   <g id="patch_130">
    <path clip-path="url(#pf789b3e3ff)" d="M 282.438909 200.06 
L 284.459273 200.06 
L 284.459273 199.630085 
L 282.438909 199.630085 
z
" style="fill:#1a1a1a;"/>
   </g>
   <g id="patch_131">
    <path clip-path="url(#pf789b3e3ff)" d="M 284.459273 200.06 
L 286.479636 200.06 
L 286.479636 199.631538 
L 284.459273 199.631538 
z
" style="fill:#1a1a1a;"/>
   </g>
   <g id="patch_132">
    <path clip-path="url(#pf789b3e3ff)" d="M 286.479636 200.06 
L 288.5 200.06 
L 288.5 199.638251 
L 286.479636 199.638251 
z
" style="fill:#1a1a1a;"/>
   </g>
   <g id="patch_133">
    <path clip-path="url(#pf789b3e3ff)" d="M 288.5 200.06 
L 290.520364 200.06 
L 290.520364 199.639767 
L 288.5 199.639767 
z
" style="fill:#1a1a1a;"/>
   </g>
   <g id="patch_134">
    <path clip-path="url(#pf789b3e3ff)" d="M 290.520364 200.06 
L 292.540727 200.06 
L 292.540727 199.645321 
L 290.520364 199.645321 
z
" style="fill:#1a1a1a;"/>
   </g>
   <g id="patch_135">
    <path clip-path="url(#pf789b3e3ff)" d="M 292.540727 200.06 
L 294.561091 200.06 
L 294.561091 199.648031 
L 292.540727 199.648031 
z
" style="fill:#1a1a1a;"/>
   </g>
   <g id="patch_136">
    <path clip-path="url(#pf789b3e3ff)" d="M 294.561091 200.06 
L 296.581455 200.06 
L 296.581455 199.649445 
L 294.561091 199.649445 
z
" style="fill:#1a1a1a;"/>
   </g>
   <g id="patch_137">
    <path clip-path="url(#pf789b3e3ff)" d="M 296.581455 200.06 
L 298.601818 200.06 
L 298.601818 199.656661 
L 296.581455 199.656661 
z
" style="fill:#1a1a1a;"/>
   </g>
   <g id="patch_138">
    <path clip-path="url(#pf789b3e3ff)" d="M 298.601818 200.06 
L 300.622182 200.06 
L 300.622182 199.662741 
L 298.601818 199.662741 
z
" style="fill:#1a1a1a;"/>
   </g>
   <g id="patch_139">
    <path clip-path="url(#pf789b3e3ff)" d="M 300.622182 200.06 
L 302.642545 200.06 
L 302.642545 199.665238 
L 300.622182 199.665238 
z
" style="fill:#1a1a1a;"/>
   </g>
   <g id="patch_140">
    <path clip-path="url(#pf789b3e3ff)" d="M 302.642545 200.06 
L 304.662909 200.06 
L 304.662909 199.668661 
L 302.642545 199.668661 
z
" style="fill:#1a1a1a;"/>
   </g>
   <g id="patch_141">
    <path clip-path="url(#pf789b3e3ff)" d="M 304.662909 200.06 
L 306.683273 200.06 
L 306.683273 199.669588 
L 304.662909 199.669588 
z
" style="fill:#1a1a1a;"/>
   </g>
   <g id="patch_142">
    <path clip-path="url(#pf789b3e3ff)" d="M 306.683273 200.06 
L 308.703636 200.06 
L 308.703636 199.671387 
L 306.683273 199.671387 
z
" style="fill:#1a1a1a;"/>
   </g>
   <g id="patch_143">
    <path clip-path="url(#pf789b3e3ff)" d="M 308.703636 200.06 
L 310.724 200.06 
L 310.724 199.67261 
L 308.703636 199.67261 
z
" style="fill:#1a1a1a;"/>
   </g>
   <g id="patch_144">
    <path clip-path="url(#pf789b3e3ff)" d="M 310.724 200.06 
L 312.744364 200.06 
L 312.744364 199.673644 
L 310.724 199.673644 
z
" style="fill:#1a1a1a;"/>
   </g>
   <g id="patch_145">
    <path clip-path="url(#pf789b3e3ff)" d="M 312.744364 200.06 
L 314.764727 200.06 
L 314.764727 199.676161 
L 312.744364 199.676161 
z
" style="fill:#1a1a1a;"/>
   </g>
   <g id="patch_146">
    <path clip-path="url(#pf789b3e3ff)" d="M 314.764727 200.06 
L 316.785091 200.06 
L 316.785091 199.678201 
L 314.764727 199.678201 
z
" style="fill:#1a1a1a;"/>
   </g>
   <g id="patch_147">
    <path clip-path="url(#pf789b3e3ff)" d="M 316.785091 200.06 
L 318.805455 200.06 
L 318.805455 199.679377 
L 316.785091 199.679377 
z
" style="fill:#1a1a1a;"/>
   </g>
   <g id="patch_148">
    <path clip-path="url(#pf789b3e3ff)" d="M 318.805455 200.06 
L 320.825818 200.06 
L 320.825818 199.681344 
L 318.805455 199.681344 
z
" style="fill:#1a1a1a;"/>
   </g>
   <g id="patch_149">
    <path clip-path="url(#pf789b3e3ff)" d="M 320.825818 200.06 
L 322.846182 200.06 
L 322.846182 199.683188 
L 320.825818 199.683188 
z
" style="fill:#1a1a1a;"/>
   </g>
   <g id="patch_150">
    <path clip-path="url(#pf789b3e3ff)" d="M 322.846182 200.06 
L 324.866545 200.06 
L 324.866545 199.684842 
L 322.846182 199.684842 
z
" style="fill:#1a1a1a;"/>
   </g>
   <g id="patch_151">
    <path clip-path="url(#pf789b3e3ff)" d="M 324.866545 200.06 
L 326.886909 200.06 
L 326.886909 199.687114 
L 324.866545 199.687114 
z
" style="fill:#1a1a1a;"/>
   </g>
   <g id="patch_152">
    <path clip-path="url(#pf789b3e3ff)" d="M 326.886909 200.06 
L 328.907273 200.06 
L 328.907273 199.689918 
L 326.886909 199.689918 
z
" style="fill:#1a1a1a;"/>
   </g>
   <g id="matplotlib.axis_1"/>
   <g id="matplotlib.axis_2"/>
   <g id="patch_153">
    <path d="M 10.7 200.06 
L 10.7 10.7 
" style="fill:none;stroke:#000000;stroke-linecap:square;stroke-linejoin:miter;stroke-width:0.8;"/>
   </g>
   <g id="patch_154">
    <path d="M 344.06 200.06 
L 344.06 10.7 
" style="fill:none;stroke:#000000;stroke-linecap:square;stroke-linejoin:miter;stroke-width:0.8;"/>
   </g>
   <g id="patch_155">
    <path d="M 10.7 200.06 
L 344.06 200.06 
" style="fill:none;stroke:#000000;stroke-linecap:square;stroke-linejoin:miter;stroke-width:0.8;"/>
   </g>
   <g id="patch_156">
    <path d="M 10.7 10.7 
L 344.06 10.7 
" style="fill:none;stroke:#000000;stroke-linecap:square;stroke-linejoin:miter;stroke-width:0.8;"/>
   </g>
  </g>
 </g>
 <defs>
  <clipPath id="pf789b3e3ff">
   <rect height="189.36" width="333.36" x="10.7" y="10.7"/>
  </clipPath>
 </defs>
</svg>
