<?xml version="1.0" encoding="utf-8" standalone="no"?>
<!DOCTYPE svg PUBLIC "-//W3C//DTD SVG 1.1//EN"
  "http://www.w3.org/Graphics/SVG/1.1/DTD/svg11.dtd">
<!-- Created with matplotlib (http://matplotlib.org/) -->
<svg height="196pt" version="1.1" viewBox="0 0 241 196" width="241pt" xmlns="http://www.w3.org/2000/svg" xmlns:xlink="http://www.w3.org/1999/xlink">
 <defs>
  <style type="text/css">
*{stroke-linecap:butt;stroke-linejoin:round;}
  </style>
 </defs>
 <g id="figure_1">
  <g id="patch_1">
   <path d="M 0 196.205 
L 241.3325 196.205 
L 241.3325 0 
L 0 0 
z
" style="fill:#ffffff;"/>
  </g>
  <g id="axes_1">
   <g id="patch_2">
    <path d="M 63.2325 179.59875 
L 230.6325 179.59875 
L 230.6325 13.27875 
L 63.2325 13.27875 
z
" style="fill:#ffffff;"/>
   </g>
   <g id="PolyCollection_1">
    <defs>
     <path d="M 64.127687 -186.903486 
L 64.127687 -99.76625 
L 65.918061 -99.76625 
L 67.708436 -99.76625 
L 69.49881 -99.76625 
L 71.289184 -99.76625 
L 73.079559 -99.76625 
L 74.869933 -99.76625 
L 76.660307 -99.76625 
L 78.450682 -99.76625 
L 80.241056 -99.76625 
L 82.03143 -99.76625 
L 83.821805 -99.76625 
L 85.612179 -99.76625 
L 87.402553 -99.76625 
L 89.192928 -99.76625 
L 90.983302 -99.76625 
L 92.773676 -99.76625 
L 94.564051 -99.76625 
L 96.354425 -99.76625 
L 98.144799 -99.76625 
L 99.935174 -99.76625 
L 101.725548 -99.76625 
L 103.515922 -99.76625 
L 105.306297 -99.76625 
L 107.096671 -99.76625 
L 108.887045 -99.76625 
L 110.67742 -99.76625 
L 112.467794 -99.76625 
L 114.258168 -99.76625 
L 116.048543 -99.76625 
L 117.838917 -99.76625 
L 119.629291 -99.76625 
L 121.419666 -99.76625 
L 123.21004 -99.76625 
L 125.000414 -99.76625 
L 126.790789 -99.76625 
L 128.581163 -99.76625 
L 130.371537 -99.76625 
L 132.161912 -99.76625 
L 133.952286 -99.76625 
L 135.74266 -99.76625 
L 137.533035 -99.76625 
L 139.323409 -99.76625 
L 141.113783 -99.76625 
L 142.904158 -99.76625 
L 144.694532 -99.76625 
L 146.484906 -99.76625 
L 148.275281 -99.76625 
L 150.065655 -99.76625 
L 151.856029 -99.76625 
L 153.646404 -99.76625 
L 155.436778 -99.76625 
L 157.227152 -99.76625 
L 159.017527 -99.76625 
L 160.807901 -99.76625 
L 162.598275 -99.76625 
L 164.38865 -99.76625 
L 166.179024 -99.76625 
L 167.969398 -99.76625 
L 169.759773 -99.76625 
L 171.550147 -99.76625 
L 173.340521 -99.76625 
L 175.130896 -99.76625 
L 176.92127 -99.76625 
L 178.711644 -99.76625 
L 180.502019 -99.76625 
L 182.292393 -99.76625 
L 184.082767 -99.76625 
L 185.873142 -99.76625 
L 187.663516 -99.76625 
L 189.45389 -99.76625 
L 191.244265 -99.76625 
L 193.034639 -99.76625 
L 194.825013 -99.76625 
L 196.615388 -99.76625 
L 198.405762 -99.76625 
L 200.196136 -99.76625 
L 201.986511 -99.76625 
L 203.776885 -99.76625 
L 205.567259 -99.76625 
L 207.357634 -99.76625 
L 209.148008 -99.76625 
L 210.938382 -99.76625 
L 212.728757 -99.76625 
L 214.519131 -99.76625 
L 216.309505 -99.76625 
L 218.09988 -99.76625 
L 219.890254 -99.76625 
L 221.680628 -99.76625 
L 223.471003 -99.76625 
L 225.261377 -99.76625 
L 227.051751 -99.76625 
L 228.842126 -99.76625 
L 228.842126 -43.723861 
L 228.842126 -43.723861 
L 227.051751 -79.307192 
L 225.261377 -81.325361 
L 223.471003 -86.26717 
L 221.680628 -87.012299 
L 219.890254 -87.409819 
L 218.09988 -89.097194 
L 216.309505 -89.667689 
L 214.519131 -90.728402 
L 212.728757 -90.823393 
L 210.938382 -93.458236 
L 209.148008 -94.261718 
L 207.357634 -95.793736 
L 205.567259 -95.927827 
L 203.776885 -96.573259 
L 201.986511 -96.799069 
L 200.196136 -96.827664 
L 198.405762 -96.931723 
L 196.615388 -97.513239 
L 194.825013 -97.626415 
L 193.034639 -97.818096 
L 191.244265 -97.842656 
L 189.45389 -97.912246 
L 187.663516 -97.968616 
L 185.873142 -97.970475 
L 184.082767 -98.185722 
L 182.292393 -98.469513 
L 180.502019 -98.763981 
L 178.711644 -98.765171 
L 176.92127 -99.148839 
L 175.130896 -99.193254 
L 173.340521 -99.318603 
L 171.550147 -99.420144 
L 169.759773 -99.494645 
L 167.969398 -99.543556 
L 166.179024 -99.56733 
L 164.38865 -99.591975 
L 162.598275 -99.601871 
L 160.807901 -99.635927 
L 159.017527 -99.712786 
L 157.227152 -99.736028 
L 155.436778 -99.750534 
L 153.646404 -99.810234 
L 151.856029 -99.877371 
L 150.065655 -99.881793 
L 148.275281 -99.983706 
L 146.484906 -100.01053 
L 144.694532 -100.020026 
L 142.904158 -100.17525 
L 141.113783 -100.390785 
L 139.323409 -100.396585 
L 137.533035 -100.442587 
L 135.74266 -100.542358 
L 133.952286 -100.626786 
L 132.161912 -100.656801 
L 130.371537 -100.69876 
L 128.581163 -100.720531 
L 126.790789 -100.841647 
L 125.000414 -100.858795 
L 123.21004 -101.244952 
L 121.419666 -101.456524 
L 119.629291 -102.41364 
L 117.838917 -102.471973 
L 116.048543 -102.727577 
L 114.258168 -102.976482 
L 112.467794 -103.019252 
L 110.67742 -103.306361 
L 108.887045 -103.841186 
L 107.096671 -104.225335 
L 105.306297 -105.351071 
L 103.515922 -106.170202 
L 101.725548 -107.419741 
L 99.935174 -107.464964 
L 98.144799 -107.646809 
L 96.354425 -107.961052 
L 94.564051 -108.291166 
L 92.773676 -112.878879 
L 90.983302 -114.1136 
L 89.192928 -116.964194 
L 87.402553 -117.136304 
L 85.612179 -117.177728 
L 83.821805 -118.402468 
L 82.03143 -118.592268 
L 80.241056 -120.084319 
L 78.450682 -121.414197 
L 76.660307 -123.218484 
L 74.869933 -124.483783 
L 73.079559 -136.969487 
L 71.289184 -137.552122 
L 69.49881 -145.103206 
L 67.708436 -148.190936 
L 65.918061 -156.817078 
L 64.127687 -186.903486 
z
" id="m928d5a67a0" style="stroke:#582f93;"/>
    </defs>
    <g clip-path="url(#p810a6e37c3)">
     <use style="fill:#582f93;stroke:#582f93;" x="0" xlink:href="#m928d5a67a0" y="196.205"/>
    </g>
   </g>
   <g id="PolyCollection_2">
    <defs>
     <path d="M 64.843837 -168.236748 
L 64.843837 -99.76625 
L 66.634211 -99.76625 
L 68.424586 -99.76625 
L 70.21496 -99.76625 
L 72.005334 -99.76625 
L 73.795709 -99.76625 
L 75.586083 -99.76625 
L 77.376457 -99.76625 
L 79.166832 -99.76625 
L 80.957206 -99.76625 
L 82.74758 -99.76625 
L 84.537955 -99.76625 
L 86.328329 -99.76625 
L 88.118703 -99.76625 
L 89.909078 -99.76625 
L 91.699452 -99.76625 
L 93.489826 -99.76625 
L 95.280201 -99.76625 
L 97.070575 -99.76625 
L 98.860949 -99.76625 
L 100.651324 -99.76625 
L 102.441698 -99.76625 
L 104.232072 -99.76625 
L 106.022447 -99.76625 
L 107.812821 -99.76625 
L 109.603195 -99.76625 
L 111.39357 -99.76625 
L 113.183944 -99.76625 
L 114.974318 -99.76625 
L 116.764693 -99.76625 
L 118.555067 -99.76625 
L 120.345441 -99.76625 
L 122.135816 -99.76625 
L 123.92619 -99.76625 
L 125.716564 -99.76625 
L 127.506939 -99.76625 
L 129.297313 -99.76625 
L 131.087687 -99.76625 
L 132.878061 -99.76625 
L 134.668436 -99.76625 
L 136.45881 -99.76625 
L 138.249184 -99.76625 
L 140.039559 -99.76625 
L 141.829933 -99.76625 
L 143.620307 -99.76625 
L 145.410682 -99.76625 
L 147.201056 -99.76625 
L 148.99143 -99.76625 
L 150.781805 -99.76625 
L 152.572179 -99.76625 
L 154.362553 -99.76625 
L 156.152928 -99.76625 
L 157.943302 -99.76625 
L 159.733676 -99.76625 
L 161.524051 -99.76625 
L 163.314425 -99.76625 
L 165.104799 -99.76625 
L 166.895174 -99.76625 
L 168.685548 -99.76625 
L 170.475922 -99.76625 
L 172.266297 -99.76625 
L 174.056671 -99.76625 
L 175.847045 -99.76625 
L 177.63742 -99.76625 
L 179.427794 -99.76625 
L 181.218168 -99.76625 
L 183.008543 -99.76625 
L 184.798917 -99.76625 
L 186.589291 -99.76625 
L 188.379666 -99.76625 
L 190.17004 -99.76625 
L 191.960414 -99.76625 
L 193.750789 -99.76625 
L 195.541163 -99.76625 
L 197.331537 -99.76625 
L 199.121912 -99.76625 
L 200.912286 -99.76625 
L 202.70266 -99.76625 
L 204.493035 -99.76625 
L 206.283409 -99.76625 
L 208.073783 -99.76625 
L 209.864158 -99.76625 
L 211.654532 -99.76625 
L 213.444906 -99.76625 
L 215.235281 -99.76625 
L 217.025655 -99.76625 
L 218.816029 -99.76625 
L 220.606404 -99.76625 
L 222.396778 -99.76625 
L 224.187152 -99.76625 
L 225.977527 -99.76625 
L 227.767901 -99.76625 
L 229.558275 -99.76625 
L 229.558275 -54.554942 
L 229.558275 -54.554942 
L 227.767901 -91.215059 
L 225.977527 -95.775569 
L 224.187152 -92.915206 
L 222.396778 -81.653076 
L 220.606404 -89.446897 
L 218.816029 -89.809618 
L 217.025655 -95.854632 
L 215.235281 -91.074824 
L 213.444906 -93.495867 
L 211.654532 -99.174177 
L 209.864158 -94.631228 
L 208.073783 -94.366765 
L 206.283409 -92.019396 
L 204.493035 -101.004265 
L 202.70266 -85.79412 
L 200.912286 -97.321885 
L 199.121912 -95.520402 
L 197.331537 -99.3133 
L 195.541163 -98.860702 
L 193.750789 -101.36273 
L 191.960414 -101.034569 
L 190.17004 -98.696436 
L 188.379666 -99.926221 
L 186.589291 -92.268742 
L 184.798917 -98.560784 
L 183.008543 -99.039548 
L 181.218168 -97.765192 
L 179.427794 -85.790248 
L 177.63742 -99.571701 
L 175.847045 -99.548247 
L 174.056671 -100.032121 
L 172.266297 -101.156492 
L 170.475922 -99.034313 
L 168.685548 -99.157893 
L 166.895174 -99.646728 
L 165.104799 -101.037703 
L 163.314425 -100.240357 
L 161.524051 -98.689657 
L 159.733676 -100.540257 
L 157.943302 -112.547195 
L 156.152928 -98.755857 
L 154.362553 -99.574079 
L 152.572179 -94.077192 
L 150.781805 -98.540403 
L 148.99143 -100.35758 
L 147.201056 -101.798712 
L 145.410682 -99.116902 
L 143.620307 -101.698708 
L 141.829933 -97.674222 
L 140.039559 -97.974085 
L 138.249184 -100.046007 
L 136.45881 -100.27361 
L 134.668436 -100.203968 
L 132.878061 -101.700456 
L 131.087687 -99.18555 
L 129.297313 -99.660521 
L 127.506939 -98.749871 
L 125.716564 -102.671898 
L 123.92619 -99.449101 
L 122.135816 -97.141777 
L 120.345441 -100.802314 
L 118.555067 -99.852608 
L 116.764693 -99.657262 
L 114.974318 -100.5077 
L 113.183944 -100.118767 
L 111.39357 -104.563162 
L 109.603195 -101.172548 
L 107.812821 -99.195567 
L 106.022447 -108.843896 
L 104.232072 -107.849629 
L 102.441698 -107.944709 
L 100.651324 -103.32866 
L 98.860949 -100.296068 
L 97.070575 -117.248266 
L 95.280201 -99.132299 
L 93.489826 -104.807474 
L 91.699452 -108.72241 
L 89.909078 -101.935613 
L 88.118703 -111.489806 
L 86.328329 -117.807209 
L 84.537955 -110.37543 
L 82.74758 -113.039783 
L 80.957206 -105.795984 
L 79.166832 -120.151324 
L 77.376457 -125.782006 
L 75.586083 -124.189941 
L 73.795709 -138.726561 
L 72.005334 -139.008504 
L 70.21496 -117.916388 
L 68.424586 -139.279551 
L 66.634211 -154.950733 
L 64.843837 -168.236748 
z
" id="ma2b2da2bb0" style="stroke:#73c476;stroke-opacity:0.75;"/>
    </defs>
    <g clip-path="url(#p810a6e37c3)">
     <use style="fill:#73c476;fill-opacity:0.75;stroke:#73c476;stroke-opacity:0.75;" x="0" xlink:href="#ma2b2da2bb0" y="196.205"/>
    </g>
   </g>
   <g id="matplotlib.axis_1"/>
   <g id="matplotlib.axis_2">
    <g id="ytick_1">
     <g id="line2d_1">
      <defs>
       <path d="M 0 0 
L -3.5 0 
" id="m02389b926e" style="stroke:#000000;stroke-width:0.8;"/>
      </defs>
      <g>
       <use style="stroke:#000000;stroke-width:0.8;" x="63.2325" xlink:href="#m02389b926e" y="179.59875"/>
      </g>
     </g>
     <g id="text_1">
      <!-- −0.01 -->
      <defs>
       <path d="M 10.59375 35.5 
L 73.1875 35.5 
L 73.1875 27.203125 
L 10.59375 27.203125 
z
" id="DejaVuSans-2212"/>
       <path d="M 31.78125 66.40625 
Q 24.171875 66.40625 20.328125 58.90625 
Q 16.5 51.421875 16.5 36.375 
Q 16.5 21.390625 20.328125 13.890625 
Q 24.171875 6.390625 31.78125 6.390625 
Q 39.453125 6.390625 43.28125 13.890625 
Q 47.125 21.390625 47.125 36.375 
Q 47.125 51.421875 43.28125 58.90625 
Q 39.453125 66.40625 31.78125 66.40625 
z
M 31.78125 74.21875 
Q 44.046875 74.21875 50.515625 64.515625 
Q 56.984375 54.828125 56.984375 36.375 
Q 56.984375 17.96875 50.515625 8.265625 
Q 44.046875 -1.421875 31.78125 -1.421875 
Q 19.53125 -1.421875 13.0625 8.265625 
Q 6.59375 17.96875 6.59375 36.375 
Q 6.59375 54.828125 13.0625 64.515625 
Q 19.53125 74.21875 31.78125 74.21875 
z
" id="DejaVuSans-30"/>
       <path d="M 10.6875 12.40625 
L 21 12.40625 
L 21 0 
L 10.6875 0 
z
" id="DejaVuSans-2e"/>
       <path d="M 12.40625 8.296875 
L 28.515625 8.296875 
L 28.515625 63.921875 
L 10.984375 60.40625 
L 10.984375 69.390625 
L 28.421875 72.90625 
L 38.28125 72.90625 
L 38.28125 8.296875 
L 54.390625 8.296875 
L 54.390625 0 
L 12.40625 0 
z
" id="DejaVuSans-31"/>
      </defs>
      <g transform="translate(7.2 185.6775)scale(0.16 -0.16)">
       <use xlink:href="#DejaVuSans-2212"/>
       <use x="83.789062" xlink:href="#DejaVuSans-30"/>
       <use x="147.412109" xlink:href="#DejaVuSans-2e"/>
       <use x="179.199219" xlink:href="#DejaVuSans-30"/>
       <use x="242.822266" xlink:href="#DejaVuSans-31"/>
      </g>
     </g>
    </g>
    <g id="ytick_2">
     <g id="line2d_2">
      <g>
       <use style="stroke:#000000;stroke-width:0.8;" x="63.2325" xlink:href="#m02389b926e" y="96.43875"/>
      </g>
     </g>
     <g id="text_2">
      <!-- 0.00 -->
      <g transform="translate(20.6075 102.5175)scale(0.16 -0.16)">
       <use xlink:href="#DejaVuSans-30"/>
       <use x="63.623047" xlink:href="#DejaVuSans-2e"/>
       <use x="95.410156" xlink:href="#DejaVuSans-30"/>
       <use x="159.033203" xlink:href="#DejaVuSans-30"/>
      </g>
     </g>
    </g>
    <g id="ytick_3">
     <g id="line2d_3">
      <g>
       <use style="stroke:#000000;stroke-width:0.8;" x="63.2325" xlink:href="#m02389b926e" y="13.27875"/>
      </g>
     </g>
     <g id="text_3">
      <!-- 0.01 -->
      <g transform="translate(20.6075 19.3575)scale(0.16 -0.16)">
       <use xlink:href="#DejaVuSans-30"/>
       <use x="63.623047" xlink:href="#DejaVuSans-2e"/>
       <use x="95.410156" xlink:href="#DejaVuSans-30"/>
       <use x="159.033203" xlink:href="#DejaVuSans-31"/>
      </g>
     </g>
    </g>
   </g>
   <g id="patch_3">
    <path d="M 63.2325 179.59875 
L 63.2325 13.27875 
" style="fill:none;stroke:#000000;stroke-linecap:square;stroke-linejoin:miter;stroke-width:0.8;"/>
   </g>
   <g id="patch_4">
    <path d="M 230.6325 179.59875 
L 230.6325 13.27875 
" style="fill:none;stroke:#000000;stroke-linecap:square;stroke-linejoin:miter;stroke-width:0.8;"/>
   </g>
   <g id="patch_5">
    <path d="M 63.2325 179.59875 
L 230.6325 179.59875 
" style="fill:none;stroke:#000000;stroke-linecap:square;stroke-linejoin:miter;stroke-width:0.8;"/>
   </g>
   <g id="patch_6">
    <path d="M 63.2325 13.27875 
L 230.6325 13.27875 
" style="fill:none;stroke:#000000;stroke-linecap:square;stroke-linejoin:miter;stroke-width:0.8;"/>
   </g>
  </g>
 </g>
 <defs>
  <clipPath id="p810a6e37c3">
   <rect height="166.32" width="167.4" x="63.2325" y="13.27875"/>
  </clipPath>
 </defs>
</svg>
