<?xml version="1.0" encoding="utf-8" standalone="no"?>
<!DOCTYPE svg PUBLIC "-//W3C//DTD SVG 1.1//EN"
  "http://www.w3.org/Graphics/SVG/1.1/DTD/svg11.dtd">
<!-- Created with matplotlib (http://matplotlib.org/) -->
<svg height="136pt" version="1.1" viewBox="0 0 136 136" width="136pt" xmlns="http://www.w3.org/2000/svg" xmlns:xlink="http://www.w3.org/1999/xlink">
 <defs>
  <style type="text/css">
*{stroke-linecap:butt;stroke-linejoin:round;}
  </style>
 </defs>
 <g id="figure_1">
  <g id="patch_1">
   <path d="M 0 136.478125 
L 136.8875 136.478125 
L 136.8875 0 
L 0 0 
z
" style="fill:#ffffff;"/>
  </g>
  <g id="axes_1">
   <g id="patch_2">
    <path d="M 33.2875 123.399219 
L 126.1875 123.399219 
L 126.1875 10.999219 
L 33.2875 10.999219 
z
" style="fill:#ffffff;"/>
   </g>
   <g id="PolyCollection_1">
    <path clip-path="url(#p4e2e704e89)" d="M 79.913008 123.399219 
L 79.224813 123.399219 
L 79.000603 122.264201 
L 78.661126 121.129182 
L 78.161972 119.994164 
L 77.460597 118.859146 
L 76.527571 117.724128 
L 75.359484 116.58911 
L 73.990149 115.454092 
L 72.49606 114.319073 
L 70.992451 113.184055 
L 69.61837 112.049037 
L 68.512275 110.914019 
L 67.783168 109.779001 
L 67.484662 108.643983 
L 67.599672 107.508965 
L 68.041069 106.373946 
L 68.669146 105.238928 
L 69.321694 104.10391 
L 69.848607 102.968892 
L 70.141771 101.833874 
L 70.152912 100.698856 
L 69.896182 99.563837 
L 69.43686 98.428819 
L 68.871055 97.293801 
L 68.302646 96.158783 
L 67.823039 95.023765 
L 67.497326 93.888747 
L 67.358099 92.753728 
L 67.406288 91.61871 
L 67.617192 90.483692 
L 67.949448 89.348674 
L 68.354711 88.213656 
L 68.786264 87.078638 
L 69.205367 85.94362 
L 69.584796 84.808601 
L 69.909653 83.673583 
L 70.175937 82.538565 
L 70.38764 81.403547 
L 70.553231 80.268529 
L 70.682338 79.133511 
L 70.783282 77.998492 
L 70.861833 76.863474 
L 70.921164 75.728456 
L 70.962665 74.593438 
L 70.987057 73.45842 
L 70.995324 72.323402 
L 70.989213 71.188384 
L 70.971335 70.053365 
L 70.94512 68.918347 
L 70.914798 67.783329 
L 70.88544 66.648311 
L 70.862859 65.513293 
L 70.853148 64.378275 
L 70.861782 63.243256 
L 70.892453 62.108238 
L 70.946047 60.97322 
L 71.020156 59.838202 
L 71.109359 58.703184 
L 71.20615 57.568166 
L 71.302199 56.433147 
L 71.389518 55.298129 
L 71.46127 54.163111 
L 71.512112 53.028093 
L 71.53816 51.893075 
L 71.536682 50.758057 
L 71.505672 49.623039 
L 71.443411 48.48802 
L 71.348132 47.353002 
L 71.217779 46.217984 
L 71.049775 45.082966 
L 70.840612 43.947948 
L 70.585155 42.81293 
L 70.275779 41.677911 
L 69.901746 40.542893 
L 69.449377 39.407875 
L 68.903448 38.272857 
L 68.249799 37.137839 
L 67.478629 36.002821 
L 66.587524 34.867802 
L 65.583235 33.732784 
L 64.481455 32.597766 
L 63.304355 31.462748 
L 62.0761 30.32773 
L 60.816911 29.192712 
L 59.536429 28.057694 
L 58.227383 26.922675 
L 56.860925 25.787657 
L 55.385631 24.652639 
L 53.73282 23.517621 
L 51.830947 22.382603 
L 49.630638 21.247585 
L 47.138566 20.112566 
L 44.453119 18.977548 
L 41.789055 17.84253 
L 39.475603 16.707512 
L 37.916255 15.572494 
L 37.510227 14.437476 
L 38.552301 13.302457 
L 41.141839 12.167439 
L 45.134774 11.032421 
L 79.913008 11.032421 
L 79.913008 11.032421 
L 79.913008 12.167439 
L 79.913008 13.302457 
L 79.913008 14.437476 
L 79.913008 15.572494 
L 79.913008 16.707512 
L 79.913008 17.84253 
L 79.913008 18.977548 
L 79.913008 20.112566 
L 79.913008 21.247585 
L 79.913008 22.382603 
L 79.913008 23.517621 
L 79.913008 24.652639 
L 79.913008 25.787657 
L 79.913008 26.922675 
L 79.913008 28.057694 
L 79.913008 29.192712 
L 79.913008 30.32773 
L 79.913008 31.462748 
L 79.913008 32.597766 
L 79.913008 33.732784 
L 79.913008 34.867802 
L 79.913008 36.002821 
L 79.913008 37.137839 
L 79.913008 38.272857 
L 79.913008 39.407875 
L 79.913008 40.542893 
L 79.913008 41.677911 
L 79.913008 42.81293 
L 79.913008 43.947948 
L 79.913008 45.082966 
L 79.913008 46.217984 
L 79.913008 47.353002 
L 79.913008 48.48802 
L 79.913008 49.623039 
L 79.913008 50.758057 
L 79.913008 51.893075 
L 79.913008 53.028093 
L 79.913008 54.163111 
L 79.913008 55.298129 
L 79.913008 56.433147 
L 79.913008 57.568166 
L 79.913008 58.703184 
L 79.913008 59.838202 
L 79.913008 60.97322 
L 79.913008 62.108238 
L 79.913008 63.243256 
L 79.913008 64.378275 
L 79.913008 65.513293 
L 79.913008 66.648311 
L 79.913008 67.783329 
L 79.913008 68.918347 
L 79.913008 70.053365 
L 79.913008 71.188384 
L 79.913008 72.323402 
L 79.913008 73.45842 
L 79.913008 74.593438 
L 79.913008 75.728456 
L 79.913008 76.863474 
L 79.913008 77.998492 
L 79.913008 79.133511 
L 79.913008 80.268529 
L 79.913008 81.403547 
L 79.913008 82.538565 
L 79.913008 83.673583 
L 79.913008 84.808601 
L 79.913008 85.94362 
L 79.913008 87.078638 
L 79.913008 88.213656 
L 79.913008 89.348674 
L 79.913008 90.483692 
L 79.913008 91.61871 
L 79.913008 92.753728 
L 79.913008 93.888747 
L 79.913008 95.023765 
L 79.913008 96.158783 
L 79.913008 97.293801 
L 79.913008 98.428819 
L 79.913008 99.563837 
L 79.913008 100.698856 
L 79.913008 101.833874 
L 79.913008 102.968892 
L 79.913008 104.10391 
L 79.913008 105.238928 
L 79.913008 106.373946 
L 79.913008 107.508965 
L 79.913008 108.643983 
L 79.913008 109.779001 
L 79.913008 110.914019 
L 79.913008 112.049037 
L 79.913008 113.184055 
L 79.913008 114.319073 
L 79.913008 115.454092 
L 79.913008 116.58911 
L 79.913008 117.724128 
L 79.913008 118.859146 
L 79.913008 119.994164 
L 79.913008 121.129182 
L 79.913008 122.264201 
L 79.913008 123.399219 
z
" style="fill:#1f77b4;fill-opacity:0.3;"/>
   </g>
   <g id="PolyCollection_2">
    <path clip-path="url(#p4e2e704e89)" d="M 79.911213 123.399219 
L 79.911213 123.399219 
L 79.911213 122.264178 
L 79.911213 121.129138 
L 79.911213 119.994097 
L 79.911213 118.859056 
L 79.911213 117.724016 
L 79.911213 116.588975 
L 79.911213 115.453934 
L 79.911213 114.318894 
L 79.911213 113.183853 
L 79.911213 112.048813 
L 79.911213 110.913772 
L 79.911213 109.778731 
L 79.911213 108.643691 
L 79.911213 107.50865 
L 79.911213 106.373609 
L 79.911213 105.238569 
L 79.911213 104.103528 
L 79.911213 102.968488 
L 79.911213 101.833447 
L 79.911213 100.698406 
L 79.911213 99.563366 
L 79.911213 98.428325 
L 79.911213 97.293284 
L 79.911213 96.158244 
L 79.911213 95.023203 
L 79.911213 93.888163 
L 79.911213 92.753122 
L 79.911213 91.618081 
L 79.911213 90.483041 
L 79.911213 89.348 
L 79.911213 88.212959 
L 79.911213 87.077919 
L 79.911213 85.942878 
L 79.911213 84.807838 
L 79.911213 83.672797 
L 79.911213 82.537756 
L 79.911213 81.402716 
L 79.911213 80.267675 
L 79.911213 79.132634 
L 79.911213 77.997594 
L 79.911213 76.862553 
L 79.911213 75.727513 
L 79.911213 74.592472 
L 79.911213 73.457431 
L 79.911213 72.322391 
L 79.911213 71.18735 
L 79.911213 70.052309 
L 79.911213 68.917269 
L 79.911213 67.782228 
L 79.911213 66.647188 
L 79.911213 65.512147 
L 79.911213 64.377106 
L 79.911213 63.242066 
L 79.911213 62.107025 
L 79.911213 60.971984 
L 79.911213 59.836944 
L 79.911213 58.701903 
L 79.911213 57.566863 
L 79.911213 56.431822 
L 79.911213 55.296781 
L 79.911213 54.161741 
L 79.911213 53.0267 
L 79.911213 51.891659 
L 79.911213 50.756619 
L 79.911213 49.621578 
L 79.911213 48.486538 
L 79.911213 47.351497 
L 79.911213 46.216456 
L 79.911213 45.081416 
L 79.911213 43.946375 
L 79.911213 42.811334 
L 79.911213 41.676294 
L 79.911213 40.541253 
L 79.911213 39.406213 
L 79.911213 38.271172 
L 79.911213 37.136131 
L 79.911213 36.001091 
L 79.911213 34.86605 
L 79.911213 33.731009 
L 79.911213 32.595969 
L 79.911213 31.460928 
L 79.911213 30.325888 
L 79.911213 29.190847 
L 79.911213 28.055806 
L 79.911213 26.920766 
L 79.911213 25.785725 
L 79.911213 24.650684 
L 79.911213 23.515644 
L 79.911213 22.380603 
L 79.911213 21.245563 
L 79.911213 20.110522 
L 79.911213 18.975481 
L 79.911213 17.840441 
L 79.911213 16.7054 
L 79.911213 15.570359 
L 79.911213 14.435319 
L 79.911213 13.300278 
L 79.911213 12.165238 
L 79.911213 11.030197 
L 114.826917 11.030197 
L 114.826917 11.030197 
L 118.9779 12.165238 
L 121.399543 13.300278 
L 121.964773 14.435319 
L 120.874997 15.570359 
L 118.56687 16.7054 
L 115.566985 17.840441 
L 112.353868 18.975481 
L 109.270813 20.110522 
L 106.502412 21.245563 
L 104.100621 22.380603 
L 102.033925 23.515644 
L 100.235758 24.650684 
L 98.63869 25.785725 
L 97.191586 26.920766 
L 95.863515 28.055806 
L 94.640264 29.190847 
L 93.518268 30.325888 
L 92.498785 31.460928 
L 91.583421 32.595969 
L 90.771281 33.731009 
L 90.057728 34.86605 
L 89.434663 36.001091 
L 88.891988 37.136131 
L 88.419596 38.271172 
L 88.009064 39.406213 
L 87.654369 40.541253 
L 87.351457 41.676294 
L 87.097016 42.811334 
L 86.887178 43.946375 
L 86.716758 45.081416 
L 86.579322 46.216456 
L 86.467918 47.351497 
L 86.376043 48.486538 
L 86.298384 49.621578 
L 86.231107 50.756619 
L 86.171709 51.891659 
L 86.118682 53.0267 
L 86.071214 54.161741 
L 86.029088 55.296781 
L 85.992722 56.431822 
L 85.963186 57.566863 
L 85.942028 58.701903 
L 85.930868 59.836944 
L 85.930868 60.971984 
L 85.942297 62.107025 
L 85.964377 63.242066 
L 85.995487 64.377106 
L 86.033612 65.512147 
L 86.076818 66.647188 
L 86.123536 67.782228 
L 86.172541 68.917269 
L 86.222672 70.052309 
L 86.272431 71.18735 
L 86.319667 72.322391 
L 86.361514 73.457431 
L 86.394749 74.592472 
L 86.416615 75.727513 
L 86.425991 76.862553 
L 86.424628 77.997594 
L 86.417986 79.132634 
L 86.415231 80.267675 
L 86.428029 81.402716 
L 86.468136 82.537756 
L 86.544114 83.672797 
L 86.657931 84.807838 
L 86.802407 85.942878 
L 86.960347 87.077919 
L 87.105866 88.212959 
L 87.207872 89.348 
L 87.235287 90.483041 
L 87.163289 91.618081 
L 86.979641 92.753122 
L 86.689958 93.888163 
L 86.32045 95.023203 
L 85.916775 96.158244 
L 85.538089 97.293284 
L 85.246583 98.428325 
L 85.094212 99.563366 
L 85.109602 100.698406 
L 85.288624 101.833447 
L 85.591577 102.968488 
L 85.948329 104.103528 
L 86.270727 105.238569 
L 86.469629 106.373609 
L 86.472699 107.50865 
L 86.2389 108.643691 
L 85.766329 109.778731 
L 85.091586 110.913772 
L 84.280922 112.048813 
L 83.415518 113.183853 
L 82.574847 114.318894 
L 81.822482 115.453934 
L 81.197675 116.588975 
L 80.713942 117.724016 
L 80.363549 118.859056 
L 80.125265 119.994097 
L 79.97244 121.129138 
L 79.911213 122.264178 
L 79.911213 123.399219 
z
" style="fill:#ff7f0e;fill-opacity:0.3;"/>
   </g>
   <g id="matplotlib.axis_1"/>
   <g id="matplotlib.axis_2">
    <g id="ytick_1">
     <g id="line2d_1">
      <defs>
       <path d="M 0 0 
L -3.5 0 
" id="ma7303a23fc" style="stroke:#000000;stroke-width:0.8;"/>
      </defs>
      <g>
       <use style="stroke:#000000;stroke-width:0.8;" x="33.2875" xlink:href="#ma7303a23fc" y="123.399219"/>
      </g>
     </g>
     <g id="text_1">
      <!-- 0 -->
      <defs>
       <path d="M 31.78125 66.40625 
Q 24.171875 66.40625 20.328125 58.90625 
Q 16.5 51.421875 16.5 36.375 
Q 16.5 21.390625 20.328125 13.890625 
Q 24.171875 6.390625 31.78125 6.390625 
Q 39.453125 6.390625 43.28125 13.890625 
Q 47.125 21.390625 47.125 36.375 
Q 47.125 51.421875 43.28125 58.90625 
Q 39.453125 66.40625 31.78125 66.40625 
z
M 31.78125 74.21875 
Q 44.046875 74.21875 50.515625 64.515625 
Q 56.984375 54.828125 56.984375 36.375 
Q 56.984375 17.96875 50.515625 8.265625 
Q 44.046875 -1.421875 31.78125 -1.421875 
Q 19.53125 -1.421875 13.0625 8.265625 
Q 6.59375 17.96875 6.59375 36.375 
Q 6.59375 54.828125 13.0625 64.515625 
Q 19.53125 74.21875 31.78125 74.21875 
z
" id="DejaVuSans-30"/>
      </defs>
      <g transform="translate(19.925 127.198438)scale(0.1 -0.1)">
       <use xlink:href="#DejaVuSans-30"/>
      </g>
     </g>
    </g>
    <g id="ytick_2">
     <g id="line2d_2">
      <g>
       <use style="stroke:#000000;stroke-width:0.8;" x="33.2875" xlink:href="#ma7303a23fc" y="67.199219"/>
      </g>
     </g>
     <g id="text_2">
      <!-- 150 -->
      <defs>
       <path d="M 12.40625 8.296875 
L 28.515625 8.296875 
L 28.515625 63.921875 
L 10.984375 60.40625 
L 10.984375 69.390625 
L 28.421875 72.90625 
L 38.28125 72.90625 
L 38.28125 8.296875 
L 54.390625 8.296875 
L 54.390625 0 
L 12.40625 0 
z
" id="DejaVuSans-31"/>
       <path d="M 10.796875 72.90625 
L 49.515625 72.90625 
L 49.515625 64.59375 
L 19.828125 64.59375 
L 19.828125 46.734375 
Q 21.96875 47.46875 24.109375 47.828125 
Q 26.265625 48.1875 28.421875 48.1875 
Q 40.625 48.1875 47.75 41.5 
Q 54.890625 34.8125 54.890625 23.390625 
Q 54.890625 11.625 47.5625 5.09375 
Q 40.234375 -1.421875 26.90625 -1.421875 
Q 22.3125 -1.421875 17.546875 -0.640625 
Q 12.796875 0.140625 7.71875 1.703125 
L 7.71875 11.625 
Q 12.109375 9.234375 16.796875 8.0625 
Q 21.484375 6.890625 26.703125 6.890625 
Q 35.15625 6.890625 40.078125 11.328125 
Q 45.015625 15.765625 45.015625 23.390625 
Q 45.015625 31 40.078125 35.4375 
Q 35.15625 39.890625 26.703125 39.890625 
Q 22.75 39.890625 18.8125 39.015625 
Q 14.890625 38.140625 10.796875 36.28125 
z
" id="DejaVuSans-35"/>
      </defs>
      <g transform="translate(7.2 70.998437)scale(0.1 -0.1)">
       <use xlink:href="#DejaVuSans-31"/>
       <use x="63.623047" xlink:href="#DejaVuSans-35"/>
       <use x="127.246094" xlink:href="#DejaVuSans-30"/>
      </g>
     </g>
    </g>
    <g id="ytick_3">
     <g id="line2d_3">
      <g>
       <use style="stroke:#000000;stroke-width:0.8;" x="33.2875" xlink:href="#ma7303a23fc" y="10.999219"/>
      </g>
     </g>
     <g id="text_3">
      <!-- 300 -->
      <defs>
       <path d="M 40.578125 39.3125 
Q 47.65625 37.796875 51.625 33 
Q 55.609375 28.21875 55.609375 21.1875 
Q 55.609375 10.40625 48.1875 4.484375 
Q 40.765625 -1.421875 27.09375 -1.421875 
Q 22.515625 -1.421875 17.65625 -0.515625 
Q 12.796875 0.390625 7.625 2.203125 
L 7.625 11.71875 
Q 11.71875 9.328125 16.59375 8.109375 
Q 21.484375 6.890625 26.8125 6.890625 
Q 36.078125 6.890625 40.9375 10.546875 
Q 45.796875 14.203125 45.796875 21.1875 
Q 45.796875 27.640625 41.28125 31.265625 
Q 36.765625 34.90625 28.71875 34.90625 
L 20.21875 34.90625 
L 20.21875 43.015625 
L 29.109375 43.015625 
Q 36.375 43.015625 40.234375 45.921875 
Q 44.09375 48.828125 44.09375 54.296875 
Q 44.09375 59.90625 40.109375 62.90625 
Q 36.140625 65.921875 28.71875 65.921875 
Q 24.65625 65.921875 20.015625 65.03125 
Q 15.375 64.15625 9.8125 62.3125 
L 9.8125 71.09375 
Q 15.4375 72.65625 20.34375 73.4375 
Q 25.25 74.21875 29.59375 74.21875 
Q 40.828125 74.21875 47.359375 69.109375 
Q 53.90625 64.015625 53.90625 55.328125 
Q 53.90625 49.265625 50.4375 45.09375 
Q 46.96875 40.921875 40.578125 39.3125 
z
" id="DejaVuSans-33"/>
      </defs>
      <g transform="translate(7.2 14.798437)scale(0.1 -0.1)">
       <use xlink:href="#DejaVuSans-33"/>
       <use x="63.623047" xlink:href="#DejaVuSans-30"/>
       <use x="127.246094" xlink:href="#DejaVuSans-30"/>
      </g>
     </g>
    </g>
   </g>
   <g id="patch_3">
    <path d="M 33.2875 123.399219 
L 33.2875 10.999219 
" style="fill:none;stroke:#000000;stroke-linecap:square;stroke-linejoin:miter;stroke-width:0.8;"/>
   </g>
   <g id="patch_4">
    <path d="M 33.2875 123.399219 
L 126.1875 123.399219 
" style="fill:none;stroke:#000000;stroke-linecap:square;stroke-linejoin:miter;stroke-width:0.8;"/>
   </g>
  </g>
 </g>
 <defs>
  <clipPath id="p4e2e704e89">
   <rect height="112.4" width="92.9" x="33.2875" y="10.999219"/>
  </clipPath>
 </defs>
</svg>
