<?xml version="1.0" encoding="utf-8" standalone="no"?>
<!DOCTYPE svg PUBLIC "-//W3C//DTD SVG 1.1//EN"
  "http://www.w3.org/Graphics/SVG/1.1/DTD/svg11.dtd">
<!-- Created with matplotlib (http://matplotlib.org/) -->
<svg height="136pt" version="1.1" viewBox="0 0 136 136" width="136pt" xmlns="http://www.w3.org/2000/svg" xmlns:xlink="http://www.w3.org/1999/xlink">
 <defs>
  <style type="text/css">
*{stroke-linecap:butt;stroke-linejoin:round;}
  </style>
 </defs>
 <g id="figure_1">
  <g id="patch_1">
   <path d="M 0 136.478125 
L 136.8875 136.478125 
L 136.8875 0 
L 0 0 
z
" style="fill:#ffffff;"/>
  </g>
  <g id="axes_1">
   <g id="patch_2">
    <path d="M 33.2875 123.399219 
L 126.1875 123.399219 
L 126.1875 10.999219 
L 33.2875 10.999219 
z
" style="fill:#ffffff;"/>
   </g>
   <g id="PolyCollection_1">
    <path clip-path="url(#pee102b1c3b)" d="M 79.780747 123.399219 
L 79.099313 123.399219 
L 78.71697 122.277854 
L 78.06977 121.156489 
L 77.022324 120.035124 
L 75.423731 118.913759 
L 73.137456 117.792395 
L 70.081724 116.67103 
L 66.269453 115.549665 
L 61.832609 114.4283 
L 57.018356 113.306935 
L 52.154322 112.185571 
L 47.593056 111.064206 
L 43.654031 109.942841 
L 40.580226 108.821476 
L 38.516976 107.700111 
L 37.510227 106.578747 
L 37.516262 105.457382 
L 38.416621 104.336017 
L 40.036282 103.214652 
L 42.16524 102.093287 
L 44.582251 100.971922 
L 47.077152 99.850558 
L 49.467911 98.729193 
L 51.610825 97.607828 
L 53.405167 96.486463 
L 54.794721 95.365098 
L 55.767693 94.243734 
L 56.354605 93.122369 
L 56.622689 92.001004 
L 56.665724 90.879639 
L 56.589838 89.758274 
L 56.497493 88.63691 
L 56.472909 87.515545 
L 56.57199 86.39418 
L 56.818667 85.272815 
L 57.207765 84.15145 
L 57.712827 83.030085 
L 58.296247 81.908721 
L 58.918995 80.787356 
L 59.547894 79.665991 
L 60.159611 78.544626 
L 60.741566 77.423261 
L 61.290584 76.301897 
L 61.810257 75.180532 
L 62.307775 74.059167 
L 62.790765 72.937802 
L 63.26456 71.816437 
L 63.730286 70.695073 
L 64.184162 69.573708 
L 64.618205 68.452343 
L 65.022252 67.330978 
L 65.386839 66.209613 
L 65.706123 65.088248 
L 65.9799 63.966884 
L 66.213852 62.845519 
L 66.417606 61.724154 
L 66.600958 60.602789 
L 66.769452 59.481424 
L 66.920944 58.36006 
L 67.044619 57.238695 
L 67.122932 56.11733 
L 67.135806 54.995965 
L 67.065503 53.8746 
L 66.900591 52.753236 
L 66.63806 51.631871 
L 66.283627 50.510506 
L 65.850928 49.389141 
L 65.360271 48.267776 
L 64.837183 47.146411 
L 64.310409 46.025047 
L 63.808903 44.903682 
L 63.357742 43.782317 
L 62.973606 42.660952 
L 62.660961 41.539587 
L 62.41006 40.418223 
L 62.197435 39.296858 
L 61.988948 38.175493 
L 61.745015 37.054128 
L 61.427304 35.932763 
L 61.005869 34.811399 
L 60.465322 33.690034 
L 59.808571 32.568669 
L 59.057166 31.447304 
L 58.248374 30.325939 
L 57.430193 29.204574 
L 56.656063 28.08321 
L 55.980745 26.961845 
L 55.45803 25.84048 
L 55.140182 24.719115 
L 55.078352 23.59775 
L 55.322762 22.476386 
L 55.921027 21.355021 
L 56.912917 20.233656 
L 58.320825 19.112291 
L 60.137303 17.990926 
L 62.313602 16.869562 
L 64.754766 15.748197 
L 67.325823 14.626832 
L 69.869981 13.505467 
L 72.234761 12.384102 
L 79.780747 12.384102 
L 79.780747 12.384102 
L 79.780747 13.505467 
L 79.780747 14.626832 
L 79.780747 15.748197 
L 79.780747 16.869562 
L 79.780747 17.990926 
L 79.780747 19.112291 
L 79.780747 20.233656 
L 79.780747 21.355021 
L 79.780747 22.476386 
L 79.780747 23.59775 
L 79.780747 24.719115 
L 79.780747 25.84048 
L 79.780747 26.961845 
L 79.780747 28.08321 
L 79.780747 29.204574 
L 79.780747 30.325939 
L 79.780747 31.447304 
L 79.780747 32.568669 
L 79.780747 33.690034 
L 79.780747 34.811399 
L 79.780747 35.932763 
L 79.780747 37.054128 
L 79.780747 38.175493 
L 79.780747 39.296858 
L 79.780747 40.418223 
L 79.780747 41.539587 
L 79.780747 42.660952 
L 79.780747 43.782317 
L 79.780747 44.903682 
L 79.780747 46.025047 
L 79.780747 47.146411 
L 79.780747 48.267776 
L 79.780747 49.389141 
L 79.780747 50.510506 
L 79.780747 51.631871 
L 79.780747 52.753236 
L 79.780747 53.8746 
L 79.780747 54.995965 
L 79.780747 56.11733 
L 79.780747 57.238695 
L 79.780747 58.36006 
L 79.780747 59.481424 
L 79.780747 60.602789 
L 79.780747 61.724154 
L 79.780747 62.845519 
L 79.780747 63.966884 
L 79.780747 65.088248 
L 79.780747 66.209613 
L 79.780747 67.330978 
L 79.780747 68.452343 
L 79.780747 69.573708 
L 79.780747 70.695073 
L 79.780747 71.816437 
L 79.780747 72.937802 
L 79.780747 74.059167 
L 79.780747 75.180532 
L 79.780747 76.301897 
L 79.780747 77.423261 
L 79.780747 78.544626 
L 79.780747 79.665991 
L 79.780747 80.787356 
L 79.780747 81.908721 
L 79.780747 83.030085 
L 79.780747 84.15145 
L 79.780747 85.272815 
L 79.780747 86.39418 
L 79.780747 87.515545 
L 79.780747 88.63691 
L 79.780747 89.758274 
L 79.780747 90.879639 
L 79.780747 92.001004 
L 79.780747 93.122369 
L 79.780747 94.243734 
L 79.780747 95.365098 
L 79.780747 96.486463 
L 79.780747 97.607828 
L 79.780747 98.729193 
L 79.780747 99.850558 
L 79.780747 100.971922 
L 79.780747 102.093287 
L 79.780747 103.214652 
L 79.780747 104.336017 
L 79.780747 105.457382 
L 79.780747 106.578747 
L 79.780747 107.700111 
L 79.780747 108.821476 
L 79.780747 109.942841 
L 79.780747 111.064206 
L 79.780747 112.185571 
L 79.780747 113.306935 
L 79.780747 114.4283 
L 79.780747 115.549665 
L 79.780747 116.67103 
L 79.780747 117.792395 
L 79.780747 118.913759 
L 79.780747 120.035124 
L 79.780747 121.156489 
L 79.780747 122.277854 
L 79.780747 123.399219 
z
" style="fill:#1f77b4;fill-opacity:0.3;"/>
   </g>
   <g id="PolyCollection_2">
    <path clip-path="url(#pee102b1c3b)" d="M 80.019958 123.399219 
L 79.823647 123.399219 
L 79.823647 122.267951 
L 79.823647 121.136683 
L 79.823647 120.005415 
L 79.823647 118.874147 
L 79.823647 117.742879 
L 79.823647 116.611611 
L 79.823647 115.480343 
L 79.823647 114.349075 
L 79.823647 113.217807 
L 79.823647 112.086539 
L 79.823647 110.955271 
L 79.823647 109.824003 
L 79.823647 108.692735 
L 79.823647 107.561467 
L 79.823647 106.430199 
L 79.823647 105.298932 
L 79.823647 104.167664 
L 79.823647 103.036396 
L 79.823647 101.905128 
L 79.823647 100.77386 
L 79.823647 99.642592 
L 79.823647 98.511324 
L 79.823647 97.380056 
L 79.823647 96.248788 
L 79.823647 95.11752 
L 79.823647 93.986252 
L 79.823647 92.854984 
L 79.823647 91.723716 
L 79.823647 90.592448 
L 79.823647 89.46118 
L 79.823647 88.329912 
L 79.823647 87.198644 
L 79.823647 86.067376 
L 79.823647 84.936108 
L 79.823647 83.80484 
L 79.823647 82.673572 
L 79.823647 81.542305 
L 79.823647 80.411037 
L 79.823647 79.279769 
L 79.823647 78.148501 
L 79.823647 77.017233 
L 79.823647 75.885965 
L 79.823647 74.754697 
L 79.823647 73.623429 
L 79.823647 72.492161 
L 79.823647 71.360893 
L 79.823647 70.229625 
L 79.823647 69.098357 
L 79.823647 67.967089 
L 79.823647 66.835821 
L 79.823647 65.704553 
L 79.823647 64.573285 
L 79.823647 63.442017 
L 79.823647 62.310749 
L 79.823647 61.179481 
L 79.823647 60.048213 
L 79.823647 58.916946 
L 79.823647 57.785678 
L 79.823647 56.65441 
L 79.823647 55.523142 
L 79.823647 54.391874 
L 79.823647 53.260606 
L 79.823647 52.129338 
L 79.823647 50.99807 
L 79.823647 49.866802 
L 79.823647 48.735534 
L 79.823647 47.604266 
L 79.823647 46.472998 
L 79.823647 45.34173 
L 79.823647 44.210462 
L 79.823647 43.079194 
L 79.823647 41.947926 
L 79.823647 40.816658 
L 79.823647 39.68539 
L 79.823647 38.554122 
L 79.823647 37.422854 
L 79.823647 36.291586 
L 79.823647 35.160319 
L 79.823647 34.029051 
L 79.823647 32.897783 
L 79.823647 31.766515 
L 79.823647 30.635247 
L 79.823647 29.503979 
L 79.823647 28.372711 
L 79.823647 27.241443 
L 79.823647 26.110175 
L 79.823647 24.978907 
L 79.823647 23.847639 
L 79.823647 22.716371 
L 79.823647 21.585103 
L 79.823647 20.453835 
L 79.823647 19.322567 
L 79.823647 18.191299 
L 79.823647 17.060031 
L 79.823647 15.928763 
L 79.823647 14.797495 
L 79.823647 13.666227 
L 79.823647 12.534959 
L 79.823647 11.403692 
L 96.660335 11.403692 
L 96.660335 11.403692 
L 101.327908 12.534959 
L 106.093576 13.666227 
L 110.620485 14.797495 
L 114.596322 15.928763 
L 117.786683 17.060031 
L 120.067798 18.191299 
L 121.43151 19.322567 
L 121.964773 20.453835 
L 121.813337 21.585103 
L 121.142316 22.716371 
L 120.104547 23.847639 
L 118.822789 24.978907 
L 117.386204 26.110175 
L 115.857167 27.241443 
L 114.282492 28.372711 
L 112.703524 29.503979 
L 111.161576 30.635247 
L 109.697863 31.766515 
L 108.349308 32.897783 
L 107.142732 34.029051 
L 106.089953 35.160319 
L 105.185472 36.291586 
L 104.407458 37.422854 
L 103.721813 38.554122 
L 103.088489 39.68539 
L 102.468735 40.816658 
L 101.831802 41.947926 
L 101.159811 43.079194 
L 100.450057 44.210462 
L 99.714718 45.34173 
L 98.978471 46.472998 
L 98.274722 47.604266 
L 97.641085 48.735534 
L 97.114638 49.866802 
L 96.727403 50.99807 
L 96.502495 52.129338 
L 96.451353 53.260606 
L 96.572355 54.391874 
L 96.851001 55.523142 
L 97.261628 56.65441 
L 97.770542 57.785678 
L 98.340253 58.916946 
L 98.934337 60.048213 
L 99.522155 61.179481 
L 100.082498 62.310749 
L 100.605234 63.442017 
L 101.090531 64.573285 
L 101.545953 65.704553 
L 101.982453 66.835821 
L 102.410626 67.967089 
L 102.83827 69.098357 
L 103.269654 70.229625 
L 103.706128 71.360893 
L 104.147259 72.492161 
L 104.591596 73.623429 
L 105.036449 74.754697 
L 105.47649 75.885965 
L 105.901517 77.017233 
L 106.294214 78.148501 
L 106.629078 79.279769 
L 106.873692 80.411037 
L 106.993012 81.542305 
L 106.95644 82.673572 
L 106.74644 83.80484 
L 106.366776 84.936108 
L 105.84839 86.067376 
L 105.251365 87.198644 
L 104.662168 88.329912 
L 104.186056 89.46118 
L 103.935166 90.592448 
L 104.013574 91.723716 
L 104.501328 92.854984 
L 105.440059 93.986252 
L 106.822733 95.11752 
L 108.589332 96.248788 
L 110.628989 97.380056 
L 112.788026 98.511324 
L 114.882823 99.642592 
L 116.716462 100.77386 
L 118.097969 101.905128 
L 118.862186 103.036396 
L 118.887029 104.167664 
L 118.104569 105.298932 
L 116.504058 106.430199 
L 114.12851 107.561467 
L 111.0693 108.692735 
L 107.462657 109.824003 
L 103.487501 110.955271 
L 99.359142 112.086539 
L 95.312337 113.217807 
L 91.572285 114.349075 
L 88.320164 115.480343 
L 85.665151 116.611611 
L 83.633476 117.742879 
L 82.177736 118.874147 
L 81.201231 120.005415 
L 80.587279 121.136683 
L 80.224083 122.267951 
L 80.019958 123.399219 
z
" style="fill:#ff7f0e;fill-opacity:0.3;"/>
   </g>
   <g id="matplotlib.axis_1"/>
   <g id="matplotlib.axis_2">
    <g id="ytick_1">
     <g id="line2d_1">
      <defs>
       <path d="M 0 0 
L -3.5 0 
" id="mda2e2b3594" style="stroke:#000000;stroke-width:0.8;"/>
      </defs>
      <g>
       <use style="stroke:#000000;stroke-width:0.8;" x="33.2875" xlink:href="#mda2e2b3594" y="123.399219"/>
      </g>
     </g>
     <g id="text_1">
      <!-- 0 -->
      <defs>
       <path d="M 31.78125 66.40625 
Q 24.171875 66.40625 20.328125 58.90625 
Q 16.5 51.421875 16.5 36.375 
Q 16.5 21.390625 20.328125 13.890625 
Q 24.171875 6.390625 31.78125 6.390625 
Q 39.453125 6.390625 43.28125 13.890625 
Q 47.125 21.390625 47.125 36.375 
Q 47.125 51.421875 43.28125 58.90625 
Q 39.453125 66.40625 31.78125 66.40625 
z
M 31.78125 74.21875 
Q 44.046875 74.21875 50.515625 64.515625 
Q 56.984375 54.828125 56.984375 36.375 
Q 56.984375 17.96875 50.515625 8.265625 
Q 44.046875 -1.421875 31.78125 -1.421875 
Q 19.53125 -1.421875 13.0625 8.265625 
Q 6.59375 17.96875 6.59375 36.375 
Q 6.59375 54.828125 13.0625 64.515625 
Q 19.53125 74.21875 31.78125 74.21875 
z
" id="DejaVuSans-30"/>
      </defs>
      <g transform="translate(19.925 127.198438)scale(0.1 -0.1)">
       <use xlink:href="#DejaVuSans-30"/>
      </g>
     </g>
    </g>
    <g id="ytick_2">
     <g id="line2d_2">
      <g>
       <use style="stroke:#000000;stroke-width:0.8;" x="33.2875" xlink:href="#mda2e2b3594" y="67.199219"/>
      </g>
     </g>
     <g id="text_2">
      <!-- 150 -->
      <defs>
       <path d="M 12.40625 8.296875 
L 28.515625 8.296875 
L 28.515625 63.921875 
L 10.984375 60.40625 
L 10.984375 69.390625 
L 28.421875 72.90625 
L 38.28125 72.90625 
L 38.28125 8.296875 
L 54.390625 8.296875 
L 54.390625 0 
L 12.40625 0 
z
" id="DejaVuSans-31"/>
       <path d="M 10.796875 72.90625 
L 49.515625 72.90625 
L 49.515625 64.59375 
L 19.828125 64.59375 
L 19.828125 46.734375 
Q 21.96875 47.46875 24.109375 47.828125 
Q 26.265625 48.1875 28.421875 48.1875 
Q 40.625 48.1875 47.75 41.5 
Q 54.890625 34.8125 54.890625 23.390625 
Q 54.890625 11.625 47.5625 5.09375 
Q 40.234375 -1.421875 26.90625 -1.421875 
Q 22.3125 -1.421875 17.546875 -0.640625 
Q 12.796875 0.140625 7.71875 1.703125 
L 7.71875 11.625 
Q 12.109375 9.234375 16.796875 8.0625 
Q 21.484375 6.890625 26.703125 6.890625 
Q 35.15625 6.890625 40.078125 11.328125 
Q 45.015625 15.765625 45.015625 23.390625 
Q 45.015625 31 40.078125 35.4375 
Q 35.15625 39.890625 26.703125 39.890625 
Q 22.75 39.890625 18.8125 39.015625 
Q 14.890625 38.140625 10.796875 36.28125 
z
" id="DejaVuSans-35"/>
      </defs>
      <g transform="translate(7.2 70.998437)scale(0.1 -0.1)">
       <use xlink:href="#DejaVuSans-31"/>
       <use x="63.623047" xlink:href="#DejaVuSans-35"/>
       <use x="127.246094" xlink:href="#DejaVuSans-30"/>
      </g>
     </g>
    </g>
    <g id="ytick_3">
     <g id="line2d_3">
      <g>
       <use style="stroke:#000000;stroke-width:0.8;" x="33.2875" xlink:href="#mda2e2b3594" y="10.999219"/>
      </g>
     </g>
     <g id="text_3">
      <!-- 300 -->
      <defs>
       <path d="M 40.578125 39.3125 
Q 47.65625 37.796875 51.625 33 
Q 55.609375 28.21875 55.609375 21.1875 
Q 55.609375 10.40625 48.1875 4.484375 
Q 40.765625 -1.421875 27.09375 -1.421875 
Q 22.515625 -1.421875 17.65625 -0.515625 
Q 12.796875 0.390625 7.625 2.203125 
L 7.625 11.71875 
Q 11.71875 9.328125 16.59375 8.109375 
Q 21.484375 6.890625 26.8125 6.890625 
Q 36.078125 6.890625 40.9375 10.546875 
Q 45.796875 14.203125 45.796875 21.1875 
Q 45.796875 27.640625 41.28125 31.265625 
Q 36.765625 34.90625 28.71875 34.90625 
L 20.21875 34.90625 
L 20.21875 43.015625 
L 29.109375 43.015625 
Q 36.375 43.015625 40.234375 45.921875 
Q 44.09375 48.828125 44.09375 54.296875 
Q 44.09375 59.90625 40.109375 62.90625 
Q 36.140625 65.921875 28.71875 65.921875 
Q 24.65625 65.921875 20.015625 65.03125 
Q 15.375 64.15625 9.8125 62.3125 
L 9.8125 71.09375 
Q 15.4375 72.65625 20.34375 73.4375 
Q 25.25 74.21875 29.59375 74.21875 
Q 40.828125 74.21875 47.359375 69.109375 
Q 53.90625 64.015625 53.90625 55.328125 
Q 53.90625 49.265625 50.4375 45.09375 
Q 46.96875 40.921875 40.578125 39.3125 
z
" id="DejaVuSans-33"/>
      </defs>
      <g transform="translate(7.2 14.798437)scale(0.1 -0.1)">
       <use xlink:href="#DejaVuSans-33"/>
       <use x="63.623047" xlink:href="#DejaVuSans-30"/>
       <use x="127.246094" xlink:href="#DejaVuSans-30"/>
      </g>
     </g>
    </g>
   </g>
   <g id="patch_3">
    <path d="M 33.2875 123.399219 
L 33.2875 10.999219 
" style="fill:none;stroke:#000000;stroke-linecap:square;stroke-linejoin:miter;stroke-width:0.8;"/>
   </g>
   <g id="patch_4">
    <path d="M 33.2875 123.399219 
L 126.1875 123.399219 
" style="fill:none;stroke:#000000;stroke-linecap:square;stroke-linejoin:miter;stroke-width:0.8;"/>
   </g>
  </g>
 </g>
 <defs>
  <clipPath id="pee102b1c3b">
   <rect height="112.4" width="92.9" x="33.2875" y="10.999219"/>
  </clipPath>
 </defs>
</svg>
