<?xml version="1.0" encoding="utf-8" standalone="no"?>
<!DOCTYPE svg PUBLIC "-//W3C//DTD SVG 1.1//EN"
  "http://www.w3.org/Graphics/SVG/1.1/DTD/svg11.dtd">
<!-- Created with matplotlib (http://matplotlib.org/) -->
<svg height="262pt" version="1.1" viewBox="0 0 289 262" width="289pt" xmlns="http://www.w3.org/2000/svg" xmlns:xlink="http://www.w3.org/1999/xlink">
 <defs>
  <style type="text/css">
*{stroke-linecap:butt;stroke-linejoin:round;}
  </style>
 </defs>
 <g id="figure_1">
  <g id="patch_1">
   <path d="M 0 262.145 
L 289.22 262.145 
L 289.22 0 
L 0 0 
z
" style="fill:#ffffff;"/>
  </g>
  <g id="axes_1">
   <g id="patch_2">
    <path d="M 44.74 232.46 
L 267.94 232.46 
L 267.94 10.7 
L 44.74 10.7 
z
" style="fill:#ffffff;"/>
   </g>
   <g id="line2d_1">
    <path clip-path="url(#p13920a7c39)" d="M -1 49.593648 
L 0.400606 45.720206 
L 3.406667 43.641856 
L 6.412727 37.406804 
L 9.418788 33.250103 
L 12.424848 33.250103 
L 15.430909 29.093402 
L 18.43697 24.936701 
L 21.44303 29.093402 
L 24.449091 20.78 
L 27.455152 20.78 
L 30.461212 20.78 
L 33.467273 22.858351 
L 36.473333 20.78 
L 39.479394 22.858351 
L 42.485455 24.936701 
L 45.491515 20.78 
L 48.497576 24.936701 
L 51.503636 24.936701 
L 54.509697 24.936701 
L 57.515758 22.858351 
L 60.521818 22.858351 
L 63.527879 22.858351 
L 66.533939 22.858351 
L 69.54 22.858351 
L 72.546061 22.858351 
L 75.552121 24.936701 
L 78.558182 24.936701 
L 81.564242 24.936701 
L 84.570303 24.936701 
L 87.576364 24.936701 
L 90.582424 24.936701 
L 93.588485 29.093402 
L 96.594545 27.015052 
L 99.600606 27.015052 
L 102.606667 24.936701 
L 105.612727 29.093402 
L 108.618788 27.015052 
L 111.624848 29.093402 
L 114.630909 31.171753 
L 117.63697 29.093402 
L 120.64303 33.250103 
L 123.649091 33.250103 
L 126.655152 35.328454 
L 129.661212 35.328454 
L 132.667273 33.250103 
L 135.673333 31.171753 
L 138.679394 33.250103 
L 141.685455 35.328454 
L 144.691515 39.485155 
L 147.697576 41.563505 
L 150.703636 45.720206 
L 153.709697 41.563505 
L 156.715758 43.641856 
L 159.721818 49.876907 
L 162.727879 45.720206 
L 165.733939 49.876907 
L 168.74 47.798557 
L 171.746061 47.798557 
L 174.752121 56.111959 
L 177.758182 58.190309 
L 180.764242 58.190309 
L 183.770303 62.34701 
L 186.776364 66.503711 
L 189.782424 62.34701 
L 192.788485 62.34701 
L 195.794545 64.425361 
L 198.800606 74.817113 
L 201.806667 70.660412 
L 204.812727 81.052165 
L 207.818788 91.443918 
L 210.824848 87.287216 
L 213.830909 99.75732 
L 216.83697 97.678969 
L 219.84303 97.678969 
L 222.849091 101.83567 
L 225.855152 99.75732 
L 228.861212 108.070722 
L 231.867273 103.914021 
L 234.873333 112.227423 
L 237.879394 112.227423 
L 240.885455 116.384124 
L 243.891515 110.149072 
L 246.897576 120.540825 
L 249.903636 116.384124 
L 252.909697 124.697526 
L 255.915758 128.854227 
L 258.921818 130.932577 
L 261.927879 133.010928 
L 264.933939 133.010928 
L 267.94 141.32433 
" style="fill:none;stroke:#fcab8f;stroke-linecap:square;stroke-width:6;"/>
   </g>
   <g id="line2d_2">
    <path clip-path="url(#p13920a7c39)" d="M -1 91.987389 
L 0.400606 85.208866 
L 3.406667 85.208866 
L 6.412727 74.817113 
L 9.418788 66.503711 
L 12.424848 72.738763 
L 15.430909 60.26866 
L 18.43697 60.26866 
L 21.44303 51.955258 
L 24.449091 41.563505 
L 27.455152 47.798557 
L 30.461212 39.485155 
L 33.467273 35.328454 
L 36.473333 29.093402 
L 39.479394 29.093402 
L 42.485455 35.328454 
L 45.491515 24.936701 
L 48.497576 29.093402 
L 51.503636 24.936701 
L 54.509697 22.858351 
L 57.515758 22.858351 
L 60.521818 24.936701 
L 63.527879 20.78 
L 66.533939 24.936701 
L 69.54 24.936701 
L 72.546061 22.858351 
L 75.552121 27.015052 
L 78.558182 24.936701 
L 81.564242 24.936701 
L 84.570303 27.015052 
L 87.576364 31.171753 
L 90.582424 31.171753 
L 93.588485 29.093402 
L 96.594545 29.093402 
L 99.600606 37.406804 
L 102.606667 31.171753 
L 105.612727 39.485155 
L 108.618788 41.563505 
L 111.624848 49.876907 
L 114.630909 43.641856 
L 117.63697 47.798557 
L 120.64303 51.955258 
L 123.649091 58.190309 
L 126.655152 62.34701 
L 129.661212 66.503711 
L 132.667273 74.817113 
L 135.673333 81.052165 
L 138.679394 93.522268 
L 141.685455 103.914021 
L 144.691515 103.914021 
L 147.697576 122.619175 
L 150.703636 120.540825 
L 153.709697 128.854227 
L 156.715758 135.089278 
L 159.721818 135.089278 
L 162.727879 145.481031 
L 165.733939 143.40268 
L 168.74 147.559381 
L 171.746061 153.794433 
L 174.752121 155.872784 
L 177.758182 157.951134 
L 180.764242 170.421237 
L 183.770303 174.577938 
L 186.776364 172.499588 
L 189.782424 174.577938 
L 192.788485 178.734639 
L 195.794545 178.734639 
L 198.800606 182.89134 
L 201.806667 187.048041 
L 204.812727 191.204742 
L 207.818788 189.126392 
L 210.824848 191.204742 
L 213.830909 197.439794 
L 216.83697 197.439794 
L 219.84303 199.518144 
L 222.849091 199.518144 
L 225.855152 199.518144 
L 228.861212 193.283093 
L 231.867273 195.361443 
L 234.873333 199.518144 
L 237.879394 197.439794 
L 240.885455 201.596495 
L 243.891515 201.596495 
L 246.897576 199.518144 
L 249.903636 205.753196 
L 252.909697 203.674845 
L 255.915758 205.753196 
L 258.921818 209.909897 
L 261.927879 209.909897 
L 264.933939 207.831546 
L 267.94 209.909897 
" style="fill:none;stroke:#b7d4ea;stroke-linecap:square;stroke-width:6;"/>
   </g>
   <g id="matplotlib.axis_1">
    <g id="xtick_1">
     <g id="line2d_3">
      <defs>
       <path d="M 0 0 
L 0 3.5 
" id="m4ebeeba3ea" style="stroke:#000000;stroke-width:0.8;"/>
      </defs>
      <g>
       <use style="stroke:#000000;stroke-width:0.8;" x="44.74" xlink:href="#m4ebeeba3ea" y="232.46"/>
      </g>
     </g>
     <g id="text_1">
      <!-- $\mathdefault{10^{-1}}$ -->
      <defs>
       <path d="M 12.40625 8.296875 
L 28.515625 8.296875 
L 28.515625 63.921875 
L 10.984375 60.40625 
L 10.984375 69.390625 
L 28.421875 72.90625 
L 38.28125 72.90625 
L 38.28125 8.296875 
L 54.390625 8.296875 
L 54.390625 0 
L 12.40625 0 
z
" id="DejaVuSans-31"/>
       <path d="M 31.78125 66.40625 
Q 24.171875 66.40625 20.328125 58.90625 
Q 16.5 51.421875 16.5 36.375 
Q 16.5 21.390625 20.328125 13.890625 
Q 24.171875 6.390625 31.78125 6.390625 
Q 39.453125 6.390625 43.28125 13.890625 
Q 47.125 21.390625 47.125 36.375 
Q 47.125 51.421875 43.28125 58.90625 
Q 39.453125 66.40625 31.78125 66.40625 
z
M 31.78125 74.21875 
Q 44.046875 74.21875 50.515625 64.515625 
Q 56.984375 54.828125 56.984375 36.375 
Q 56.984375 17.96875 50.515625 8.265625 
Q 44.046875 -1.421875 31.78125 -1.421875 
Q 19.53125 -1.421875 13.0625 8.265625 
Q 6.59375 17.96875 6.59375 36.375 
Q 6.59375 54.828125 13.0625 64.515625 
Q 19.53125 74.21875 31.78125 74.21875 
z
" id="DejaVuSans-30"/>
       <path d="M 10.59375 35.5 
L 73.1875 35.5 
L 73.1875 27.203125 
L 10.59375 27.203125 
z
" id="DejaVuSans-2212"/>
      </defs>
      <g transform="translate(25.94 251.6175)scale(0.16 -0.16)">
       <use transform="translate(0 0.684375)" xlink:href="#DejaVuSans-31"/>
       <use transform="translate(63.623047 0.684375)" xlink:href="#DejaVuSans-30"/>
       <use transform="translate(128.203125 38.965625)scale(0.7)" xlink:href="#DejaVuSans-2212"/>
       <use transform="translate(186.855469 38.965625)scale(0.7)" xlink:href="#DejaVuSans-31"/>
      </g>
     </g>
    </g>
    <g id="xtick_2">
     <g id="line2d_4">
      <g>
       <use style="stroke:#000000;stroke-width:0.8;" x="119.14" xlink:href="#m4ebeeba3ea" y="232.46"/>
      </g>
     </g>
     <g id="text_2">
      <!-- $\mathdefault{10^{0}}$ -->
      <g transform="translate(105.06 251.6175)scale(0.16 -0.16)">
       <use transform="translate(0 0.765625)" xlink:href="#DejaVuSans-31"/>
       <use transform="translate(63.623047 0.765625)" xlink:href="#DejaVuSans-30"/>
       <use transform="translate(128.203125 39.046875)scale(0.7)" xlink:href="#DejaVuSans-30"/>
      </g>
     </g>
    </g>
    <g id="xtick_3">
     <g id="line2d_5">
      <g>
       <use style="stroke:#000000;stroke-width:0.8;" x="193.54" xlink:href="#m4ebeeba3ea" y="232.46"/>
      </g>
     </g>
     <g id="text_3">
      <!-- $\mathdefault{10^{1}}$ -->
      <g transform="translate(179.46 251.6175)scale(0.16 -0.16)">
       <use transform="translate(0 0.684375)" xlink:href="#DejaVuSans-31"/>
       <use transform="translate(63.623047 0.684375)" xlink:href="#DejaVuSans-30"/>
       <use transform="translate(128.203125 38.965625)scale(0.7)" xlink:href="#DejaVuSans-31"/>
      </g>
     </g>
    </g>
    <g id="xtick_4">
     <g id="line2d_6">
      <g>
       <use style="stroke:#000000;stroke-width:0.8;" x="267.94" xlink:href="#m4ebeeba3ea" y="232.46"/>
      </g>
     </g>
     <g id="text_4">
      <!-- $\mathdefault{10^{2}}$ -->
      <defs>
       <path d="M 19.1875 8.296875 
L 53.609375 8.296875 
L 53.609375 0 
L 7.328125 0 
L 7.328125 8.296875 
Q 12.9375 14.109375 22.625 23.890625 
Q 32.328125 33.6875 34.8125 36.53125 
Q 39.546875 41.84375 41.421875 45.53125 
Q 43.3125 49.21875 43.3125 52.78125 
Q 43.3125 58.59375 39.234375 62.25 
Q 35.15625 65.921875 28.609375 65.921875 
Q 23.96875 65.921875 18.8125 64.3125 
Q 13.671875 62.703125 7.8125 59.421875 
L 7.8125 69.390625 
Q 13.765625 71.78125 18.9375 73 
Q 24.125 74.21875 28.421875 74.21875 
Q 39.75 74.21875 46.484375 68.546875 
Q 53.21875 62.890625 53.21875 53.421875 
Q 53.21875 48.921875 51.53125 44.890625 
Q 49.859375 40.875 45.40625 35.40625 
Q 44.1875 33.984375 37.640625 27.21875 
Q 31.109375 20.453125 19.1875 8.296875 
z
" id="DejaVuSans-32"/>
      </defs>
      <g transform="translate(253.86 251.6175)scale(0.16 -0.16)">
       <use transform="translate(0 0.765625)" xlink:href="#DejaVuSans-31"/>
       <use transform="translate(63.623047 0.765625)" xlink:href="#DejaVuSans-30"/>
       <use transform="translate(128.203125 39.046875)scale(0.7)" xlink:href="#DejaVuSans-32"/>
      </g>
     </g>
    </g>
    <g id="xtick_5">
     <g id="line2d_7">
      <defs>
       <path d="M 0 0 
L 0 2 
" id="mb62f11de67" style="stroke:#000000;stroke-width:0.6;"/>
      </defs>
      <g>
       <use style="stroke:#000000;stroke-width:0.6;" x="67.136632" xlink:href="#mb62f11de67" y="232.46"/>
      </g>
     </g>
    </g>
    <g id="xtick_6">
     <g id="line2d_8">
      <g>
       <use style="stroke:#000000;stroke-width:0.6;" x="80.237821" xlink:href="#mb62f11de67" y="232.46"/>
      </g>
     </g>
    </g>
    <g id="xtick_7">
     <g id="line2d_9">
      <g>
       <use style="stroke:#000000;stroke-width:0.6;" x="89.533263" xlink:href="#mb62f11de67" y="232.46"/>
      </g>
     </g>
    </g>
    <g id="xtick_8">
     <g id="line2d_10">
      <g>
       <use style="stroke:#000000;stroke-width:0.6;" x="96.743368" xlink:href="#mb62f11de67" y="232.46"/>
      </g>
     </g>
    </g>
    <g id="xtick_9">
     <g id="line2d_11">
      <g>
       <use style="stroke:#000000;stroke-width:0.6;" x="102.634453" xlink:href="#mb62f11de67" y="232.46"/>
      </g>
     </g>
    </g>
    <g id="xtick_10">
     <g id="line2d_12">
      <g>
       <use style="stroke:#000000;stroke-width:0.6;" x="107.615294" xlink:href="#mb62f11de67" y="232.46"/>
      </g>
     </g>
    </g>
    <g id="xtick_11">
     <g id="line2d_13">
      <g>
       <use style="stroke:#000000;stroke-width:0.6;" x="111.929895" xlink:href="#mb62f11de67" y="232.46"/>
      </g>
     </g>
    </g>
    <g id="xtick_12">
     <g id="line2d_14">
      <g>
       <use style="stroke:#000000;stroke-width:0.6;" x="115.735643" xlink:href="#mb62f11de67" y="232.46"/>
      </g>
     </g>
    </g>
    <g id="xtick_13">
     <g id="line2d_15">
      <g>
       <use style="stroke:#000000;stroke-width:0.6;" x="141.536632" xlink:href="#mb62f11de67" y="232.46"/>
      </g>
     </g>
    </g>
    <g id="xtick_14">
     <g id="line2d_16">
      <g>
       <use style="stroke:#000000;stroke-width:0.6;" x="154.637821" xlink:href="#mb62f11de67" y="232.46"/>
      </g>
     </g>
    </g>
    <g id="xtick_15">
     <g id="line2d_17">
      <g>
       <use style="stroke:#000000;stroke-width:0.6;" x="163.933263" xlink:href="#mb62f11de67" y="232.46"/>
      </g>
     </g>
    </g>
    <g id="xtick_16">
     <g id="line2d_18">
      <g>
       <use style="stroke:#000000;stroke-width:0.6;" x="171.143368" xlink:href="#mb62f11de67" y="232.46"/>
      </g>
     </g>
    </g>
    <g id="xtick_17">
     <g id="line2d_19">
      <g>
       <use style="stroke:#000000;stroke-width:0.6;" x="177.034453" xlink:href="#mb62f11de67" y="232.46"/>
      </g>
     </g>
    </g>
    <g id="xtick_18">
     <g id="line2d_20">
      <g>
       <use style="stroke:#000000;stroke-width:0.6;" x="182.015294" xlink:href="#mb62f11de67" y="232.46"/>
      </g>
     </g>
    </g>
    <g id="xtick_19">
     <g id="line2d_21">
      <g>
       <use style="stroke:#000000;stroke-width:0.6;" x="186.329895" xlink:href="#mb62f11de67" y="232.46"/>
      </g>
     </g>
    </g>
    <g id="xtick_20">
     <g id="line2d_22">
      <g>
       <use style="stroke:#000000;stroke-width:0.6;" x="190.135643" xlink:href="#mb62f11de67" y="232.46"/>
      </g>
     </g>
    </g>
    <g id="xtick_21">
     <g id="line2d_23">
      <g>
       <use style="stroke:#000000;stroke-width:0.6;" x="215.936632" xlink:href="#mb62f11de67" y="232.46"/>
      </g>
     </g>
    </g>
    <g id="xtick_22">
     <g id="line2d_24">
      <g>
       <use style="stroke:#000000;stroke-width:0.6;" x="229.037821" xlink:href="#mb62f11de67" y="232.46"/>
      </g>
     </g>
    </g>
    <g id="xtick_23">
     <g id="line2d_25">
      <g>
       <use style="stroke:#000000;stroke-width:0.6;" x="238.333263" xlink:href="#mb62f11de67" y="232.46"/>
      </g>
     </g>
    </g>
    <g id="xtick_24">
     <g id="line2d_26">
      <g>
       <use style="stroke:#000000;stroke-width:0.6;" x="245.543368" xlink:href="#mb62f11de67" y="232.46"/>
      </g>
     </g>
    </g>
    <g id="xtick_25">
     <g id="line2d_27">
      <g>
       <use style="stroke:#000000;stroke-width:0.6;" x="251.434453" xlink:href="#mb62f11de67" y="232.46"/>
      </g>
     </g>
    </g>
    <g id="xtick_26">
     <g id="line2d_28">
      <g>
       <use style="stroke:#000000;stroke-width:0.6;" x="256.415294" xlink:href="#mb62f11de67" y="232.46"/>
      </g>
     </g>
    </g>
    <g id="xtick_27">
     <g id="line2d_29">
      <g>
       <use style="stroke:#000000;stroke-width:0.6;" x="260.729895" xlink:href="#mb62f11de67" y="232.46"/>
      </g>
     </g>
    </g>
    <g id="xtick_28">
     <g id="line2d_30">
      <g>
       <use style="stroke:#000000;stroke-width:0.6;" x="264.535643" xlink:href="#mb62f11de67" y="232.46"/>
      </g>
     </g>
    </g>
   </g>
   <g id="matplotlib.axis_2">
    <g id="ytick_1">
     <g id="line2d_31">
      <defs>
       <path d="M 0 0 
L -3.5 0 
" id="m61ae035ee2" style="stroke:#000000;stroke-width:0.8;"/>
      </defs>
      <g>
       <use style="stroke:#000000;stroke-width:0.8;" x="44.74" xlink:href="#m61ae035ee2" y="222.38"/>
      </g>
     </g>
     <g id="text_5">
      <!-- 0 -->
      <g transform="translate(27.56 228.45875)scale(0.16 -0.16)">
       <use xlink:href="#DejaVuSans-30"/>
      </g>
     </g>
    </g>
    <g id="ytick_2">
     <g id="line2d_32">
      <g>
       <use style="stroke:#000000;stroke-width:0.8;" x="44.74" xlink:href="#m61ae035ee2" y="118.462474"/>
      </g>
     </g>
     <g id="text_6">
      <!-- 50 -->
      <defs>
       <path d="M 10.796875 72.90625 
L 49.515625 72.90625 
L 49.515625 64.59375 
L 19.828125 64.59375 
L 19.828125 46.734375 
Q 21.96875 47.46875 24.109375 47.828125 
Q 26.265625 48.1875 28.421875 48.1875 
Q 40.625 48.1875 47.75 41.5 
Q 54.890625 34.8125 54.890625 23.390625 
Q 54.890625 11.625 47.5625 5.09375 
Q 40.234375 -1.421875 26.90625 -1.421875 
Q 22.3125 -1.421875 17.546875 -0.640625 
Q 12.796875 0.140625 7.71875 1.703125 
L 7.71875 11.625 
Q 12.109375 9.234375 16.796875 8.0625 
Q 21.484375 6.890625 26.703125 6.890625 
Q 35.15625 6.890625 40.078125 11.328125 
Q 45.015625 15.765625 45.015625 23.390625 
Q 45.015625 31 40.078125 35.4375 
Q 35.15625 39.890625 26.703125 39.890625 
Q 22.75 39.890625 18.8125 39.015625 
Q 14.890625 38.140625 10.796875 36.28125 
z
" id="DejaVuSans-35"/>
      </defs>
      <g transform="translate(17.38 124.541224)scale(0.16 -0.16)">
       <use xlink:href="#DejaVuSans-35"/>
       <use x="63.623047" xlink:href="#DejaVuSans-30"/>
      </g>
     </g>
    </g>
    <g id="ytick_3">
     <g id="line2d_33">
      <g>
       <use style="stroke:#000000;stroke-width:0.8;" x="44.74" xlink:href="#m61ae035ee2" y="14.544948"/>
      </g>
     </g>
     <g id="text_7">
      <!-- 100 -->
      <g transform="translate(7.2 20.623698)scale(0.16 -0.16)">
       <use xlink:href="#DejaVuSans-31"/>
       <use x="63.623047" xlink:href="#DejaVuSans-30"/>
       <use x="127.246094" xlink:href="#DejaVuSans-30"/>
      </g>
     </g>
    </g>
   </g>
   <g id="line2d_34">
    <path clip-path="url(#p13920a7c39)" d="M -1 147.134493 
L 0.400606 141.32433 
L 3.406667 135.089278 
L 6.412727 130.932577 
L 9.418788 122.619175 
L 12.424848 126.775876 
L 15.430909 122.619175 
L 18.43697 116.384124 
L 21.44303 120.540825 
L 24.449091 95.600619 
L 27.455152 105.992371 
L 30.461212 108.070722 
L 33.467273 108.070722 
L 36.473333 87.287216 
L 39.479394 93.522268 
L 42.485455 83.130515 
L 45.491515 72.738763 
L 48.497576 72.738763 
L 51.503636 83.130515 
L 54.509697 68.582062 
L 57.515758 66.503711 
L 60.521818 66.503711 
L 63.527879 62.34701 
L 66.533939 62.34701 
L 69.54 64.425361 
L 72.546061 62.34701 
L 75.552121 54.033608 
L 78.558182 49.876907 
L 81.564242 54.033608 
L 84.570303 56.111959 
L 87.576364 45.720206 
L 90.582424 47.798557 
L 93.588485 54.033608 
L 96.594545 43.641856 
L 99.600606 39.485155 
L 102.606667 39.485155 
L 105.612727 47.798557 
L 108.618788 43.641856 
L 111.624848 41.563505 
L 114.630909 41.563505 
L 117.63697 39.485155 
L 120.64303 41.563505 
L 123.649091 33.250103 
L 126.655152 39.485155 
L 129.661212 41.563505 
L 132.667273 37.406804 
L 135.673333 39.485155 
L 138.679394 39.485155 
L 141.685455 31.171753 
L 144.691515 31.171753 
L 147.697576 31.171753 
L 150.703636 33.250103 
L 153.709697 35.328454 
L 156.715758 31.171753 
L 159.721818 33.250103 
L 162.727879 31.171753 
L 165.733939 31.171753 
L 168.74 33.250103 
L 171.746061 33.250103 
L 174.752121 31.171753 
L 177.758182 35.328454 
L 180.764242 31.171753 
L 183.770303 35.328454 
L 186.776364 33.250103 
L 189.782424 33.250103 
L 192.788485 35.328454 
L 195.794545 33.250103 
L 198.800606 35.328454 
L 201.806667 37.406804 
L 204.812727 37.406804 
L 207.818788 37.406804 
L 210.824848 33.250103 
L 213.830909 37.406804 
L 216.83697 41.563505 
L 219.84303 37.406804 
L 222.849091 39.485155 
L 225.855152 39.485155 
L 228.861212 41.563505 
L 231.867273 41.563505 
L 234.873333 41.563505 
L 237.879394 43.641856 
L 240.885455 45.720206 
L 243.891515 45.720206 
L 246.897576 47.798557 
L 249.903636 47.798557 
L 252.909697 49.876907 
L 255.915758 49.876907 
L 258.921818 54.033608 
L 261.927879 56.111959 
L 264.933939 62.34701 
L 267.94 62.34701 
" style="fill:none;stroke:#d92523;stroke-linecap:square;stroke-width:4;"/>
   </g>
   <g id="line2d_35">
    <path clip-path="url(#p13920a7c39)" d="M -1 173.184689 
L 0.400606 168.342887 
L 3.406667 160.029485 
L 6.412727 160.029485 
L 9.418788 151.716082 
L 12.424848 157.951134 
L 15.430909 147.559381 
L 18.43697 149.637732 
L 21.44303 141.32433 
L 24.449091 141.32433 
L 27.455152 137.167629 
L 30.461212 139.245979 
L 33.467273 128.854227 
L 36.473333 122.619175 
L 39.479394 114.305773 
L 42.485455 110.149072 
L 45.491515 108.070722 
L 48.497576 103.914021 
L 51.503636 108.070722 
L 54.509697 97.678969 
L 57.515758 91.443918 
L 60.521818 91.443918 
L 63.527879 97.678969 
L 66.533939 81.052165 
L 69.54 93.522268 
L 72.546061 83.130515 
L 75.552121 85.208866 
L 78.558182 85.208866 
L 81.564242 81.052165 
L 84.570303 81.052165 
L 87.576364 85.208866 
L 90.582424 83.130515 
L 93.588485 87.287216 
L 96.594545 87.287216 
L 99.600606 78.973814 
L 102.606667 81.052165 
L 105.612727 83.130515 
L 108.618788 72.738763 
L 111.624848 83.130515 
L 114.630909 87.287216 
L 117.63697 93.522268 
L 120.64303 99.75732 
L 123.649091 108.070722 
L 126.655152 118.462474 
L 129.661212 118.462474 
L 132.667273 130.932577 
L 135.673333 143.40268 
L 138.679394 155.872784 
L 141.685455 168.342887 
L 144.691515 176.656289 
L 147.697576 184.969691 
L 150.703636 191.204742 
L 153.709697 201.596495 
L 156.715758 205.753196 
L 159.721818 214.066598 
L 162.727879 211.988247 
L 165.733939 218.223299 
L 168.74 218.223299 
L 171.746061 218.223299 
L 174.752121 220.301649 
L 177.758182 222.38 
L 180.764242 222.38 
L 183.770303 222.38 
L 186.776364 222.38 
L 189.782424 222.38 
L 192.788485 222.38 
L 195.794545 222.38 
L 198.800606 222.38 
L 201.806667 222.38 
L 204.812727 222.38 
L 207.818788 222.38 
L 210.824848 222.38 
L 213.830909 222.38 
L 216.83697 222.38 
L 219.84303 222.38 
L 222.849091 222.38 
L 225.855152 222.38 
L 228.861212 222.38 
L 231.867273 222.38 
L 234.873333 222.38 
L 237.879394 222.38 
L 240.885455 222.38 
L 243.891515 222.38 
L 246.897576 222.38 
L 249.903636 222.38 
L 252.909697 222.38 
L 255.915758 222.38 
L 258.921818 222.38 
L 261.927879 222.38 
L 264.933939 222.38 
L 267.94 222.38 
" style="fill:none;stroke:#2e7ebc;stroke-linecap:square;stroke-width:4;"/>
   </g>
   <g id="patch_3">
    <path d="M 44.74 232.46 
L 44.74 10.7 
" style="fill:none;stroke:#000000;stroke-linecap:square;stroke-linejoin:miter;stroke-width:0.8;"/>
   </g>
   <g id="patch_4">
    <path d="M 267.94 232.46 
L 267.94 10.7 
" style="fill:none;stroke:#000000;stroke-linecap:square;stroke-linejoin:miter;stroke-width:0.8;"/>
   </g>
   <g id="patch_5">
    <path d="M 44.74 232.46 
L 267.94 232.46 
" style="fill:none;stroke:#000000;stroke-linecap:square;stroke-linejoin:miter;stroke-width:0.8;"/>
   </g>
   <g id="patch_6">
    <path d="M 44.74 10.7 
L 267.94 10.7 
" style="fill:none;stroke:#000000;stroke-linecap:square;stroke-linejoin:miter;stroke-width:0.8;"/>
   </g>
  </g>
 </g>
 <defs>
  <clipPath id="p13920a7c39">
   <rect height="221.76" width="223.2" x="44.74" y="10.7"/>
  </clipPath>
 </defs>
</svg>
