<?xml version="1.0" encoding="utf-8" standalone="no"?>
<!DOCTYPE svg PUBLIC "-//W3C//DTD SVG 1.1//EN"
  "http://www.w3.org/Graphics/SVG/1.1/DTD/svg11.dtd">
<!-- Created with matplotlib (http://matplotlib.org/) -->
<svg height="211pt" version="1.1" viewBox="0 0 271 211" width="271pt" xmlns="http://www.w3.org/2000/svg" xmlns:xlink="http://www.w3.org/1999/xlink">
 <defs>
  <style type="text/css">
*{stroke-linecap:butt;stroke-linejoin:round;}
  </style>
 </defs>
 <g id="figure_1">
  <g id="patch_1">
   <path d="M 0 211.771578 
L 271.8925 211.771578 
L 271.8925 0 
L 0 0 
z
" style="fill:#ffffff;"/>
  </g>
  <g id="axes_1">
   <g id="patch_2">
    <path d="M 25.6525 180.150953 
L 248.8525 180.150953 
L 248.8525 13.830953 
L 25.6525 13.830953 
z
" style="fill:#ffffff;"/>
   </g>
   <g id="matplotlib.axis_1">
    <g id="xtick_1">
     <g id="line2d_1">
      <defs>
       <path d="M 0 0 
L 0 3.5 
" id="mb3a5a95520" style="stroke:#000000;stroke-width:0.8;"/>
      </defs>
      <g>
       <use style="stroke:#000000;stroke-width:0.8;" x="25.6525" xlink:href="#mb3a5a95520" y="180.150953"/>
      </g>
     </g>
     <g id="text_1">
      <!-- $\mathdefault{10^{0}}$ -->
      <defs>
       <path d="M 12.40625 8.296875 
L 28.515625 8.296875 
L 28.515625 63.921875 
L 10.984375 60.40625 
L 10.984375 69.390625 
L 28.421875 72.90625 
L 38.28125 72.90625 
L 38.28125 8.296875 
L 54.390625 8.296875 
L 54.390625 0 
L 12.40625 0 
z
" id="DejaVuSans-31"/>
       <path d="M 31.78125 66.40625 
Q 24.171875 66.40625 20.328125 58.90625 
Q 16.5 51.421875 16.5 36.375 
Q 16.5 21.390625 20.328125 13.890625 
Q 24.171875 6.390625 31.78125 6.390625 
Q 39.453125 6.390625 43.28125 13.890625 
Q 47.125 21.390625 47.125 36.375 
Q 47.125 51.421875 43.28125 58.90625 
Q 39.453125 66.40625 31.78125 66.40625 
z
M 31.78125 74.21875 
Q 44.046875 74.21875 50.515625 64.515625 
Q 56.984375 54.828125 56.984375 36.375 
Q 56.984375 17.96875 50.515625 8.265625 
Q 44.046875 -1.421875 31.78125 -1.421875 
Q 19.53125 -1.421875 13.0625 8.265625 
Q 6.59375 17.96875 6.59375 36.375 
Q 6.59375 54.828125 13.0625 64.515625 
Q 19.53125 74.21875 31.78125 74.21875 
z
" id="DejaVuSans-30"/>
      </defs>
      <g transform="translate(9.8125 200.828141)scale(0.18 -0.18)">
       <use transform="translate(0 0.765625)" xlink:href="#DejaVuSans-31"/>
       <use transform="translate(63.623047 0.765625)" xlink:href="#DejaVuSans-30"/>
       <use transform="translate(128.203125 39.046875)scale(0.7)" xlink:href="#DejaVuSans-30"/>
      </g>
     </g>
    </g>
    <g id="xtick_2">
     <g id="line2d_2">
      <g>
       <use style="stroke:#000000;stroke-width:0.8;" x="137.2525" xlink:href="#mb3a5a95520" y="180.150953"/>
      </g>
     </g>
     <g id="text_2">
      <!-- $\mathdefault{10^{2}}$ -->
      <defs>
       <path d="M 19.1875 8.296875 
L 53.609375 8.296875 
L 53.609375 0 
L 7.328125 0 
L 7.328125 8.296875 
Q 12.9375 14.109375 22.625 23.890625 
Q 32.328125 33.6875 34.8125 36.53125 
Q 39.546875 41.84375 41.421875 45.53125 
Q 43.3125 49.21875 43.3125 52.78125 
Q 43.3125 58.59375 39.234375 62.25 
Q 35.15625 65.921875 28.609375 65.921875 
Q 23.96875 65.921875 18.8125 64.3125 
Q 13.671875 62.703125 7.8125 59.421875 
L 7.8125 69.390625 
Q 13.765625 71.78125 18.9375 73 
Q 24.125 74.21875 28.421875 74.21875 
Q 39.75 74.21875 46.484375 68.546875 
Q 53.21875 62.890625 53.21875 53.421875 
Q 53.21875 48.921875 51.53125 44.890625 
Q 49.859375 40.875 45.40625 35.40625 
Q 44.1875 33.984375 37.640625 27.21875 
Q 31.109375 20.453125 19.1875 8.296875 
z
" id="DejaVuSans-32"/>
      </defs>
      <g transform="translate(121.4125 200.828141)scale(0.18 -0.18)">
       <use transform="translate(0 0.765625)" xlink:href="#DejaVuSans-31"/>
       <use transform="translate(63.623047 0.765625)" xlink:href="#DejaVuSans-30"/>
       <use transform="translate(128.203125 39.046875)scale(0.7)" xlink:href="#DejaVuSans-32"/>
      </g>
     </g>
    </g>
    <g id="xtick_3">
     <g id="line2d_3">
      <g>
       <use style="stroke:#000000;stroke-width:0.8;" x="248.8525" xlink:href="#mb3a5a95520" y="180.150953"/>
      </g>
     </g>
     <g id="text_3">
      <!-- $\mathdefault{10^{4}}$ -->
      <defs>
       <path d="M 37.796875 64.3125 
L 12.890625 25.390625 
L 37.796875 25.390625 
z
M 35.203125 72.90625 
L 47.609375 72.90625 
L 47.609375 25.390625 
L 58.015625 25.390625 
L 58.015625 17.1875 
L 47.609375 17.1875 
L 47.609375 0 
L 37.796875 0 
L 37.796875 17.1875 
L 4.890625 17.1875 
L 4.890625 26.703125 
z
" id="DejaVuSans-34"/>
      </defs>
      <g transform="translate(233.0125 200.828141)scale(0.18 -0.18)">
       <use transform="translate(0 0.684375)" xlink:href="#DejaVuSans-31"/>
       <use transform="translate(63.623047 0.684375)" xlink:href="#DejaVuSans-30"/>
       <use transform="translate(128.203125 38.965625)scale(0.7)" xlink:href="#DejaVuSans-34"/>
      </g>
     </g>
    </g>
    <g id="xtick_4">
     <g id="line2d_4">
      <defs>
       <path d="M 0 0 
L 0 2 
" id="madaff6e6a8" style="stroke:#000000;stroke-width:0.6;"/>
      </defs>
      <g>
       <use style="stroke:#000000;stroke-width:0.6;" x="42.449974" xlink:href="#madaff6e6a8" y="180.150953"/>
      </g>
     </g>
    </g>
    <g id="xtick_5">
     <g id="line2d_5">
      <g>
       <use style="stroke:#000000;stroke-width:0.6;" x="52.275866" xlink:href="#madaff6e6a8" y="180.150953"/>
      </g>
     </g>
    </g>
    <g id="xtick_6">
     <g id="line2d_6">
      <g>
       <use style="stroke:#000000;stroke-width:0.6;" x="59.247448" xlink:href="#madaff6e6a8" y="180.150953"/>
      </g>
     </g>
    </g>
    <g id="xtick_7">
     <g id="line2d_7">
      <g>
       <use style="stroke:#000000;stroke-width:0.6;" x="64.655026" xlink:href="#madaff6e6a8" y="180.150953"/>
      </g>
     </g>
    </g>
    <g id="xtick_8">
     <g id="line2d_8">
      <g>
       <use style="stroke:#000000;stroke-width:0.6;" x="69.07334" xlink:href="#madaff6e6a8" y="180.150953"/>
      </g>
     </g>
    </g>
    <g id="xtick_9">
     <g id="line2d_9">
      <g>
       <use style="stroke:#000000;stroke-width:0.6;" x="72.808971" xlink:href="#madaff6e6a8" y="180.150953"/>
      </g>
     </g>
    </g>
    <g id="xtick_10">
     <g id="line2d_10">
      <g>
       <use style="stroke:#000000;stroke-width:0.6;" x="76.044921" xlink:href="#madaff6e6a8" y="180.150953"/>
      </g>
     </g>
    </g>
    <g id="xtick_11">
     <g id="line2d_11">
      <g>
       <use style="stroke:#000000;stroke-width:0.6;" x="78.899232" xlink:href="#madaff6e6a8" y="180.150953"/>
      </g>
     </g>
    </g>
    <g id="xtick_12">
     <g id="line2d_12">
      <g>
       <use style="stroke:#000000;stroke-width:0.6;" x="98.249974" xlink:href="#madaff6e6a8" y="180.150953"/>
      </g>
     </g>
    </g>
    <g id="xtick_13">
     <g id="line2d_13">
      <g>
       <use style="stroke:#000000;stroke-width:0.6;" x="108.075866" xlink:href="#madaff6e6a8" y="180.150953"/>
      </g>
     </g>
    </g>
    <g id="xtick_14">
     <g id="line2d_14">
      <g>
       <use style="stroke:#000000;stroke-width:0.6;" x="115.047448" xlink:href="#madaff6e6a8" y="180.150953"/>
      </g>
     </g>
    </g>
    <g id="xtick_15">
     <g id="line2d_15">
      <g>
       <use style="stroke:#000000;stroke-width:0.6;" x="120.455026" xlink:href="#madaff6e6a8" y="180.150953"/>
      </g>
     </g>
    </g>
    <g id="xtick_16">
     <g id="line2d_16">
      <g>
       <use style="stroke:#000000;stroke-width:0.6;" x="124.87334" xlink:href="#madaff6e6a8" y="180.150953"/>
      </g>
     </g>
    </g>
    <g id="xtick_17">
     <g id="line2d_17">
      <g>
       <use style="stroke:#000000;stroke-width:0.6;" x="128.608971" xlink:href="#madaff6e6a8" y="180.150953"/>
      </g>
     </g>
    </g>
    <g id="xtick_18">
     <g id="line2d_18">
      <g>
       <use style="stroke:#000000;stroke-width:0.6;" x="131.844921" xlink:href="#madaff6e6a8" y="180.150953"/>
      </g>
     </g>
    </g>
    <g id="xtick_19">
     <g id="line2d_19">
      <g>
       <use style="stroke:#000000;stroke-width:0.6;" x="134.699232" xlink:href="#madaff6e6a8" y="180.150953"/>
      </g>
     </g>
    </g>
    <g id="xtick_20">
     <g id="line2d_20">
      <g>
       <use style="stroke:#000000;stroke-width:0.6;" x="154.049974" xlink:href="#madaff6e6a8" y="180.150953"/>
      </g>
     </g>
    </g>
    <g id="xtick_21">
     <g id="line2d_21">
      <g>
       <use style="stroke:#000000;stroke-width:0.6;" x="163.875866" xlink:href="#madaff6e6a8" y="180.150953"/>
      </g>
     </g>
    </g>
    <g id="xtick_22">
     <g id="line2d_22">
      <g>
       <use style="stroke:#000000;stroke-width:0.6;" x="170.847448" xlink:href="#madaff6e6a8" y="180.150953"/>
      </g>
     </g>
    </g>
    <g id="xtick_23">
     <g id="line2d_23">
      <g>
       <use style="stroke:#000000;stroke-width:0.6;" x="176.255026" xlink:href="#madaff6e6a8" y="180.150953"/>
      </g>
     </g>
    </g>
    <g id="xtick_24">
     <g id="line2d_24">
      <g>
       <use style="stroke:#000000;stroke-width:0.6;" x="180.67334" xlink:href="#madaff6e6a8" y="180.150953"/>
      </g>
     </g>
    </g>
    <g id="xtick_25">
     <g id="line2d_25">
      <g>
       <use style="stroke:#000000;stroke-width:0.6;" x="184.408971" xlink:href="#madaff6e6a8" y="180.150953"/>
      </g>
     </g>
    </g>
    <g id="xtick_26">
     <g id="line2d_26">
      <g>
       <use style="stroke:#000000;stroke-width:0.6;" x="187.644921" xlink:href="#madaff6e6a8" y="180.150953"/>
      </g>
     </g>
    </g>
    <g id="xtick_27">
     <g id="line2d_27">
      <g>
       <use style="stroke:#000000;stroke-width:0.6;" x="190.499232" xlink:href="#madaff6e6a8" y="180.150953"/>
      </g>
     </g>
    </g>
    <g id="xtick_28">
     <g id="line2d_28">
      <g>
       <use style="stroke:#000000;stroke-width:0.6;" x="209.849974" xlink:href="#madaff6e6a8" y="180.150953"/>
      </g>
     </g>
    </g>
    <g id="xtick_29">
     <g id="line2d_29">
      <g>
       <use style="stroke:#000000;stroke-width:0.6;" x="219.675866" xlink:href="#madaff6e6a8" y="180.150953"/>
      </g>
     </g>
    </g>
    <g id="xtick_30">
     <g id="line2d_30">
      <g>
       <use style="stroke:#000000;stroke-width:0.6;" x="226.647448" xlink:href="#madaff6e6a8" y="180.150953"/>
      </g>
     </g>
    </g>
    <g id="xtick_31">
     <g id="line2d_31">
      <g>
       <use style="stroke:#000000;stroke-width:0.6;" x="232.055026" xlink:href="#madaff6e6a8" y="180.150953"/>
      </g>
     </g>
    </g>
    <g id="xtick_32">
     <g id="line2d_32">
      <g>
       <use style="stroke:#000000;stroke-width:0.6;" x="236.47334" xlink:href="#madaff6e6a8" y="180.150953"/>
      </g>
     </g>
    </g>
    <g id="xtick_33">
     <g id="line2d_33">
      <g>
       <use style="stroke:#000000;stroke-width:0.6;" x="240.208971" xlink:href="#madaff6e6a8" y="180.150953"/>
      </g>
     </g>
    </g>
    <g id="xtick_34">
     <g id="line2d_34">
      <g>
       <use style="stroke:#000000;stroke-width:0.6;" x="243.444921" xlink:href="#madaff6e6a8" y="180.150953"/>
      </g>
     </g>
    </g>
    <g id="xtick_35">
     <g id="line2d_35">
      <g>
       <use style="stroke:#000000;stroke-width:0.6;" x="246.299232" xlink:href="#madaff6e6a8" y="180.150953"/>
      </g>
     </g>
    </g>
   </g>
   <g id="matplotlib.axis_2">
    <g id="ytick_1">
     <g id="line2d_36">
      <defs>
       <path d="M 0 0 
L -3.5 0 
" id="m6e88c4671f" style="stroke:#000000;stroke-width:0.8;"/>
      </defs>
      <g>
       <use style="stroke:#000000;stroke-width:0.8;" x="25.6525" xlink:href="#m6e88c4671f" y="180.150953"/>
      </g>
     </g>
     <g id="text_4">
      <!-- 0 -->
      <g transform="translate(7.2 186.989547)scale(0.18 -0.18)">
       <use xlink:href="#DejaVuSans-30"/>
      </g>
     </g>
    </g>
    <g id="ytick_2">
     <g id="line2d_37">
      <g>
       <use style="stroke:#000000;stroke-width:0.8;" x="25.6525" xlink:href="#m6e88c4671f" y="138.622863"/>
      </g>
     </g>
     <g id="text_5">
      <!-- 2 -->
      <g transform="translate(7.2 145.461457)scale(0.18 -0.18)">
       <use xlink:href="#DejaVuSans-32"/>
      </g>
     </g>
    </g>
    <g id="ytick_3">
     <g id="line2d_38">
      <g>
       <use style="stroke:#000000;stroke-width:0.8;" x="25.6525" xlink:href="#m6e88c4671f" y="97.094774"/>
      </g>
     </g>
     <g id="text_6">
      <!-- 4 -->
      <g transform="translate(7.2 103.933367)scale(0.18 -0.18)">
       <use xlink:href="#DejaVuSans-34"/>
      </g>
     </g>
    </g>
    <g id="ytick_4">
     <g id="line2d_39">
      <g>
       <use style="stroke:#000000;stroke-width:0.8;" x="25.6525" xlink:href="#m6e88c4671f" y="55.566684"/>
      </g>
     </g>
     <g id="text_7">
      <!-- 6 -->
      <defs>
       <path d="M 33.015625 40.375 
Q 26.375 40.375 22.484375 35.828125 
Q 18.609375 31.296875 18.609375 23.390625 
Q 18.609375 15.53125 22.484375 10.953125 
Q 26.375 6.390625 33.015625 6.390625 
Q 39.65625 6.390625 43.53125 10.953125 
Q 47.40625 15.53125 47.40625 23.390625 
Q 47.40625 31.296875 43.53125 35.828125 
Q 39.65625 40.375 33.015625 40.375 
z
M 52.59375 71.296875 
L 52.59375 62.3125 
Q 48.875 64.0625 45.09375 64.984375 
Q 41.3125 65.921875 37.59375 65.921875 
Q 27.828125 65.921875 22.671875 59.328125 
Q 17.53125 52.734375 16.796875 39.40625 
Q 19.671875 43.65625 24.015625 45.921875 
Q 28.375 48.1875 33.59375 48.1875 
Q 44.578125 48.1875 50.953125 41.515625 
Q 57.328125 34.859375 57.328125 23.390625 
Q 57.328125 12.15625 50.6875 5.359375 
Q 44.046875 -1.421875 33.015625 -1.421875 
Q 20.359375 -1.421875 13.671875 8.265625 
Q 6.984375 17.96875 6.984375 36.375 
Q 6.984375 53.65625 15.1875 63.9375 
Q 23.390625 74.21875 37.203125 74.21875 
Q 40.921875 74.21875 44.703125 73.484375 
Q 48.484375 72.75 52.59375 71.296875 
z
" id="DejaVuSans-36"/>
      </defs>
      <g transform="translate(7.2 62.405277)scale(0.18 -0.18)">
       <use xlink:href="#DejaVuSans-36"/>
      </g>
     </g>
    </g>
    <g id="ytick_5">
     <g id="line2d_40">
      <g>
       <use style="stroke:#000000;stroke-width:0.8;" x="25.6525" xlink:href="#m6e88c4671f" y="14.038594"/>
      </g>
     </g>
     <g id="text_8">
      <!-- 8 -->
      <defs>
       <path d="M 31.78125 34.625 
Q 24.75 34.625 20.71875 30.859375 
Q 16.703125 27.09375 16.703125 20.515625 
Q 16.703125 13.921875 20.71875 10.15625 
Q 24.75 6.390625 31.78125 6.390625 
Q 38.8125 6.390625 42.859375 10.171875 
Q 46.921875 13.96875 46.921875 20.515625 
Q 46.921875 27.09375 42.890625 30.859375 
Q 38.875 34.625 31.78125 34.625 
z
M 21.921875 38.8125 
Q 15.578125 40.375 12.03125 44.71875 
Q 8.5 49.078125 8.5 55.328125 
Q 8.5 64.0625 14.71875 69.140625 
Q 20.953125 74.21875 31.78125 74.21875 
Q 42.671875 74.21875 48.875 69.140625 
Q 55.078125 64.0625 55.078125 55.328125 
Q 55.078125 49.078125 51.53125 44.71875 
Q 48 40.375 41.703125 38.8125 
Q 48.828125 37.15625 52.796875 32.3125 
Q 56.78125 27.484375 56.78125 20.515625 
Q 56.78125 9.90625 50.3125 4.234375 
Q 43.84375 -1.421875 31.78125 -1.421875 
Q 19.734375 -1.421875 13.25 4.234375 
Q 6.78125 9.90625 6.78125 20.515625 
Q 6.78125 27.484375 10.78125 32.3125 
Q 14.796875 37.15625 21.921875 38.8125 
z
M 18.3125 54.390625 
Q 18.3125 48.734375 21.84375 45.5625 
Q 25.390625 42.390625 31.78125 42.390625 
Q 38.140625 42.390625 41.71875 45.5625 
Q 45.3125 48.734375 45.3125 54.390625 
Q 45.3125 60.0625 41.71875 63.234375 
Q 38.140625 66.40625 31.78125 66.40625 
Q 25.390625 66.40625 21.84375 63.234375 
Q 18.3125 60.0625 18.3125 54.390625 
z
" id="DejaVuSans-38"/>
      </defs>
      <g transform="translate(7.2 20.877187)scale(0.18 -0.18)">
       <use xlink:href="#DejaVuSans-38"/>
      </g>
     </g>
    </g>
   </g>
   <g id="line2d_41">
    <path clip-path="url(#p6a027f3884)" d="M 25.6525 173.499044 
L 30.207602 169.444145 
L 34.762704 163.415393 
L 39.317806 152.726501 
L 43.872908 140.868389 
L 48.42801 131.697766 
L 52.983112 117.809082 
L 57.538214 105.131544 
L 62.093316 96.821693 
L 66.648418 90.579965 
L 71.20352 85.550682 
L 75.758622 79.793141 
L 80.313724 74.139043 
L 84.868827 68.782471 
L 89.423929 65.03496 
L 93.979031 60.506223 
L 98.534133 56.93278 
L 103.089235 53.748728 
L 107.644337 52.070448 
L 112.199439 50.586938 
L 116.754541 48.546688 
L 121.309643 47.452666 
L 125.864745 45.287557 
L 130.419847 43.954393 
L 134.974949 43.130637 
L 139.530051 42.307442 
L 144.085153 41.333731 
L 148.640255 41.852521 
L 153.195357 42.959156 
L 157.750459 43.440038 
L 162.305561 44.797475 
L 166.860663 46.093253 
L 171.415765 47.193143 
L 175.970867 47.297966 
L 180.525969 47.663814 
L 185.081071 47.766456 
L 189.636173 47.735774 
L 194.191276 47.702176 
L 198.746378 47.81811 
L 203.30148 47.818036 
L 207.856582 47.817929 
L 212.411684 47.817786 
L 216.966786 47.817602 
L 221.521888 47.817372 
L 226.07699 47.817088 
L 230.632092 47.816742 
L 235.187194 47.816325 
L 239.742296 47.815833 
L 244.297398 47.815264 
L 248.8525 47.814631 
" style="fill:none;opacity:0.5;stroke:#73c476;stroke-linecap:square;stroke-width:0.5;"/>
   </g>
   <g id="line2d_42">
    <path clip-path="url(#p6a027f3884)" d="M 25.6525 130.76314 
L 30.207602 118.314396 
L 34.762704 108.500638 
L 39.317806 103.690821 
L 43.872908 102.50078 
L 48.42801 99.576587 
L 52.983112 94.767164 
L 57.538214 86.902476 
L 62.093316 81.087727 
L 66.648418 76.387342 
L 71.20352 70.106278 
L 75.758622 65.180423 
L 80.313724 61.536517 
L 84.868827 57.654199 
L 89.423929 54.187582 
L 93.979031 51.6263 
L 98.534133 48.821732 
L 103.089235 47.375369 
L 107.644337 46.713572 
L 112.199439 46.812965 
L 116.754541 46.155245 
L 121.309643 46.360895 
L 125.864745 45.434615 
L 130.419847 47.087387 
L 134.974949 46.80564 
L 139.530051 46.737657 
L 144.085153 47.153939 
L 148.640255 47.248627 
L 153.195357 47.185614 
L 157.750459 47.170445 
L 162.305561 47.105052 
L 166.860663 47.093344 
L 171.415765 47.093462 
L 175.970867 47.093657 
L 180.525969 47.093933 
L 185.081071 47.0943 
L 189.636173 47.094769 
L 194.191276 47.095355 
L 198.746378 47.096077 
L 203.30148 47.096959 
L 207.856582 47.098031 
L 212.411684 47.099325 
L 216.966786 47.100883 
L 221.521888 47.102754 
L 226.07699 47.104994 
L 230.632092 47.107667 
L 235.187194 47.110851 
L 239.742296 47.114633 
L 244.297398 47.119117 
L 248.8525 47.124425 
" style="fill:none;opacity:0.5;stroke:#73c476;stroke-linecap:square;stroke-width:0.5;"/>
   </g>
   <g id="line2d_43">
    <path clip-path="url(#p6a027f3884)" d="M 25.6525 112.156237 
L 30.207602 105.284543 
L 34.762704 99.901182 
L 39.317806 93.585272 
L 43.872908 87.192943 
L 48.42801 81.008837 
L 52.983112 75.283412 
L 57.538214 71.056833 
L 62.093316 65.977798 
L 66.648418 62.459737 
L 71.20352 58.734687 
L 75.758622 56.148171 
L 80.313724 53.661349 
L 84.868827 51.639284 
L 89.423929 49.734491 
L 93.979031 48.029196 
L 98.534133 46.17219 
L 103.089235 45.472937 
L 107.644337 44.205563 
L 112.199439 43.551035 
L 116.754541 44.369228 
L 121.309643 44.412477 
L 125.864745 44.49875 
L 130.419847 46.357557 
L 134.974949 47.500215 
L 139.530051 47.620437 
L 144.085153 47.695672 
L 148.640255 47.563658 
L 153.195357 47.512339 
L 157.750459 47.61303 
L 162.305561 47.54889 
L 166.860663 47.549297 
L 171.415765 47.549673 
L 175.970867 47.550032 
L 180.525969 47.550383 
L 185.081071 47.55074 
L 189.636173 47.551112 
L 194.191276 47.55151 
L 198.746378 47.551948 
L 203.30148 47.552435 
L 207.856582 47.552987 
L 212.411684 47.553614 
L 216.966786 47.554332 
L 221.521888 47.555153 
L 226.07699 47.556091 
L 230.632092 47.557159 
L 235.187194 47.558372 
L 239.742296 47.559747 
L 244.297398 47.561308 
L 248.8525 47.563102 
" style="fill:none;opacity:0.5;stroke:#73c476;stroke-linecap:square;stroke-width:0.5;"/>
   </g>
   <g id="line2d_44">
    <path clip-path="url(#p6a027f3884)" d="M 25.6525 109.765392 
L 30.207602 104.293157 
L 34.762704 95.869364 
L 39.317806 90.966592 
L 43.872908 84.345108 
L 48.42801 79.071147 
L 52.983112 73.575984 
L 57.538214 68.226102 
L 62.093316 64.914301 
L 66.648418 60.409908 
L 71.20352 56.789849 
L 75.758622 53.785462 
L 80.313724 50.646854 
L 84.868827 48.629647 
L 89.423929 47.728651 
L 93.979031 46.283037 
L 98.534133 45.163677 
L 103.089235 44.084803 
L 107.644337 44.165744 
L 112.199439 43.349364 
L 116.754541 43.487562 
L 121.309643 44.160469 
L 125.864745 44.197143 
L 130.419847 44.152397 
L 134.974949 44.180297 
L 139.530051 44.21099 
L 144.085153 44.399732 
L 148.640255 44.245904 
L 153.195357 44.327608 
L 157.750459 44.308889 
L 162.305561 44.304465 
L 166.860663 44.305065 
L 171.415765 44.305576 
L 175.970867 44.306015 
L 180.525969 44.306396 
L 185.081071 44.306731 
L 189.636173 44.30703 
L 194.191276 44.307303 
L 198.746378 44.307557 
L 203.30148 44.3078 
L 207.856582 44.308035 
L 212.411684 44.308268 
L 216.966786 44.308499 
L 221.521888 44.308728 
L 226.07699 44.308951 
L 230.632092 44.30916 
L 235.187194 44.309341 
L 239.742296 44.309476 
L 244.297398 44.309541 
L 248.8525 44.309549 
" style="fill:none;opacity:0.5;stroke:#73c476;stroke-linecap:square;stroke-width:0.5;"/>
   </g>
   <g id="line2d_45">
    <path clip-path="url(#p6a027f3884)" d="M 25.6525 174.629645 
L 30.207602 168.313532 
L 34.762704 160.047737 
L 39.317806 149.992647 
L 43.872908 136.017983 
L 48.42801 129.271846 
L 52.983112 121.16175 
L 57.538214 112.107935 
L 62.093316 105.182101 
L 66.648418 98.7932 
L 71.20352 93.363988 
L 75.758622 85.182208 
L 80.313724 78.672814 
L 84.868827 73.4787 
L 89.423929 67.922249 
L 93.979031 64.547789 
L 98.534133 59.816459 
L 103.089235 54.847863 
L 107.644337 51.329472 
L 112.199439 49.598147 
L 116.754541 47.380527 
L 121.309643 46.375783 
L 125.864745 45.043934 
L 130.419847 43.82441 
L 134.974949 43.064804 
L 139.530051 42.803476 
L 144.085153 43.135661 
L 148.640255 42.848127 
L 153.195357 43.55863 
L 157.750459 43.994049 
L 162.305561 44.275536 
L 166.860663 44.711479 
L 171.415765 44.852442 
L 175.970867 45.020005 
L 180.525969 45.217616 
L 185.081071 45.092179 
L 189.636173 45.165322 
L 194.191276 45.166321 
L 198.746378 45.167554 
L 203.30148 45.169066 
L 207.856582 45.170913 
L 212.411684 45.173164 
L 216.966786 45.175904 
L 221.521888 45.179237 
L 226.07699 45.183292 
L 230.632092 45.188226 
L 235.187194 45.194233 
L 239.742296 45.201554 
L 244.297398 45.210482 
L 248.8525 45.221383 
" style="fill:none;opacity:0.5;stroke:#73c476;stroke-linecap:square;stroke-width:0.5;"/>
   </g>
   <g id="line2d_46">
    <path clip-path="url(#p6a027f3884)" d="M 25.6525 97.405749 
L 30.207602 88.057144 
L 34.762704 80.259008 
L 39.317806 74.674281 
L 43.872908 69.416502 
L 48.42801 65.100473 
L 52.983112 60.131166 
L 57.538214 55.471467 
L 62.093316 51.938146 
L 66.648418 49.067649 
L 71.20352 47.834277 
L 75.758622 47.248507 
L 80.313724 46.629277 
L 84.868827 45.562206 
L 89.423929 44.907557 
L 93.979031 44.22923 
L 98.534133 43.986124 
L 103.089235 44.063123 
L 107.644337 43.755354 
L 112.199439 44.155513 
L 116.754541 44.073067 
L 121.309643 43.802574 
L 125.864745 43.842398 
L 130.419847 43.760149 
L 134.974949 43.757337 
L 139.530051 43.755037 
L 144.085153 43.753169 
L 148.640255 43.751664 
L 153.195357 43.75047 
L 157.750459 43.749544 
L 162.305561 43.748853 
L 166.860663 43.748372 
L 171.415765 43.748083 
L 175.970867 43.747977 
L 180.525969 43.748051 
L 185.081071 43.748306 
L 189.636173 43.748753 
L 194.191276 43.749407 
L 198.746378 43.750292 
L 203.30148 43.751442 
L 207.856582 43.752899 
L 212.411684 43.754716 
L 216.966786 43.756962 
L 221.521888 43.759721 
L 226.07699 43.763098 
L 230.632092 43.767222 
L 235.187194 43.772253 
L 239.742296 43.778387 
L 244.297398 43.785866 
L 248.8525 43.794987 
" style="fill:none;opacity:0.5;stroke:#73c476;stroke-linecap:square;stroke-width:0.5;"/>
   </g>
   <g id="line2d_47">
    <path clip-path="url(#p6a027f3884)" d="M 25.6525 172.852258 
L 30.207602 172.105538 
L 34.762704 168.157806 
L 39.317806 162.356176 
L 43.872908 153.656186 
L 48.42801 142.181883 
L 52.983112 132.319661 
L 57.538214 121.409156 
L 62.093316 108.235427 
L 66.648418 98.238298 
L 71.20352 91.558581 
L 75.758622 85.545243 
L 80.313724 81.448752 
L 84.868827 77.762959 
L 89.423929 73.099511 
L 93.979031 69.806173 
L 98.534133 65.559683 
L 103.089235 61.913932 
L 107.644337 58.427883 
L 112.199439 55.90749 
L 116.754541 51.583529 
L 121.309643 49.43117 
L 125.864745 46.776204 
L 130.419847 45.071334 
L 134.974949 45.38255 
L 139.530051 44.441593 
L 144.085153 43.963156 
L 148.640255 43.329531 
L 153.195357 43.283946 
L 157.750459 43.714736 
L 162.305561 44.777719 
L 166.860663 45.03805 
L 171.415765 46.182192 
L 175.970867 46.934243 
L 180.525969 46.904433 
L 185.081071 47.131342 
L 189.636173 47.360107 
L 194.191276 47.343481 
L 198.746378 47.299705 
L 203.30148 47.327505 
L 207.856582 47.314852 
L 212.411684 47.314717 
L 216.966786 47.314532 
L 221.521888 47.314277 
L 226.07699 47.313926 
L 230.632092 47.313442 
L 235.187194 47.312775 
L 239.742296 47.311854 
L 244.297398 47.310589 
L 248.8525 47.308861 
" style="fill:none;opacity:0.5;stroke:#73c476;stroke-linecap:square;stroke-width:0.5;"/>
   </g>
   <g id="line2d_48">
    <path clip-path="url(#p6a027f3884)" d="M 25.6525 123.739482 
L 30.207602 115.069256 
L 34.762704 108.866004 
L 39.317806 101.138916 
L 43.872908 95.378946 
L 48.42801 88.355695 
L 52.983112 81.326751 
L 57.538214 77.000687 
L 62.093316 70.837054 
L 66.648418 66.087646 
L 71.20352 61.115959 
L 75.758622 56.73759 
L 80.313724 54.463544 
L 84.868827 51.658886 
L 89.423929 49.522042 
L 93.979031 46.875793 
L 98.534133 45.055558 
L 103.089235 43.984943 
L 107.644337 42.919972 
L 112.199439 42.878616 
L 116.754541 43.391197 
L 121.309643 43.2935 
L 125.864745 43.482752 
L 130.419847 44.671557 
L 134.974949 45.254554 
L 139.530051 45.445696 
L 144.085153 45.511105 
L 148.640255 45.437132 
L 153.195357 45.266952 
L 157.750459 45.538648 
L 162.305561 45.4198 
L 166.860663 45.419963 
L 171.415765 45.420105 
L 175.970867 45.420236 
L 180.525969 45.420359 
L 185.081071 45.420481 
L 189.636173 45.420605 
L 194.191276 45.420737 
L 198.746378 45.42088 
L 203.30148 45.421038 
L 207.856582 45.421216 
L 212.411684 45.421417 
L 216.966786 45.421648 
L 221.521888 45.42191 
L 226.07699 45.422209 
L 230.632092 45.422549 
L 235.187194 45.422934 
L 239.742296 45.423369 
L 244.297398 45.423862 
L 248.8525 45.424429 
" style="fill:none;opacity:0.5;stroke:#73c476;stroke-linecap:square;stroke-width:0.5;"/>
   </g>
   <g id="line2d_49">
    <path clip-path="url(#p6a027f3884)" d="M 25.6525 164.670242 
L 30.207602 157.455741 
L 34.762704 147.578306 
L 39.317806 142.705303 
L 43.872908 136.753365 
L 48.42801 129.187533 
L 52.983112 123.318383 
L 57.538214 115.739742 
L 62.093316 107.696344 
L 66.648418 100.314102 
L 71.20352 92.398106 
L 75.758622 87.648512 
L 80.313724 82.006021 
L 84.868827 75.260828 
L 89.423929 69.222503 
L 93.979031 63.672585 
L 98.534133 59.452182 
L 103.089235 57.26912 
L 107.644337 54.136609 
L 112.199439 51.71613 
L 116.754541 49.802829 
L 121.309643 48.700078 
L 125.864745 48.32323 
L 130.419847 48.308169 
L 134.974949 47.321891 
L 139.530051 47.661316 
L 144.085153 47.708588 
L 148.640255 47.551658 
L 153.195357 47.16453 
L 157.750459 47.071123 
L 162.305561 47.092597 
L 166.860663 47.175909 
L 171.415765 47.008555 
L 175.970867 47.122599 
L 180.525969 47.109481 
L 185.081071 47.109452 
L 189.636173 47.109453 
L 194.191276 47.109485 
L 198.746378 47.109548 
L 203.30148 47.109645 
L 207.856582 47.109778 
L 212.411684 47.109951 
L 216.966786 47.110168 
L 221.521888 47.110435 
L 226.07699 47.110759 
L 230.632092 47.111144 
L 235.187194 47.111598 
L 239.742296 47.112125 
L 244.297398 47.112728 
L 248.8525 47.113406 
" style="fill:none;opacity:0.5;stroke:#73c476;stroke-linecap:square;stroke-width:0.5;"/>
   </g>
   <g id="line2d_50">
    <path clip-path="url(#p6a027f3884)" d="M 25.6525 118.745528 
L 30.207602 108.738656 
L 34.762704 100.700584 
L 39.317806 94.823962 
L 43.872908 89.717539 
L 48.42801 84.8487 
L 52.983112 81.042952 
L 57.538214 77.479773 
L 62.093316 73.522377 
L 66.648418 67.863965 
L 71.20352 62.001272 
L 75.758622 57.225784 
L 80.313724 54.358229 
L 84.868827 50.890473 
L 89.423929 48.555395 
L 93.979031 45.998146 
L 98.534133 44.39796 
L 103.089235 43.817788 
L 107.644337 43.353861 
L 112.199439 42.972656 
L 116.754541 42.988941 
L 121.309643 42.908067 
L 125.864745 43.485365 
L 130.419847 43.934648 
L 134.974949 44.687273 
L 139.530051 45.506444 
L 144.085153 46.047445 
L 148.640255 46.080491 
L 153.195357 46.358304 
L 157.750459 46.241361 
L 162.305561 46.325915 
L 166.860663 46.342861 
L 171.415765 46.363113 
L 175.970867 46.320488 
L 180.525969 46.321224 
L 185.081071 46.321884 
L 189.636173 46.322492 
L 194.191276 46.323069 
L 198.746378 46.323634 
L 203.30148 46.324206 
L 207.856582 46.324801 
L 212.411684 46.325437 
L 216.966786 46.326127 
L 221.521888 46.326889 
L 226.07699 46.327735 
L 230.632092 46.328679 
L 235.187194 46.329732 
L 239.742296 46.330901 
L 244.297398 46.332194 
L 248.8525 46.333621 
" style="fill:none;opacity:0.5;stroke:#73c476;stroke-linecap:square;stroke-width:0.5;"/>
   </g>
   <g id="line2d_51">
    <path clip-path="url(#p6a027f3884)" d="M 25.6525 172.685592 
L 30.207602 170.757294 
L 34.762704 167.373483 
L 39.317806 161.210397 
L 43.872908 153.631314 
L 48.42801 143.613354 
L 52.983112 132.525981 
L 57.538214 123.564973 
L 62.093316 115.549596 
L 66.648418 108.087068 
L 71.20352 100.049924 
L 75.758622 90.636937 
L 80.313724 86.297918 
L 84.868827 80.704206 
L 89.423929 75.597572 
L 93.979031 70.92972 
L 98.534133 66.579587 
L 103.089235 63.1729 
L 107.644337 59.003942 
L 112.199439 56.360224 
L 116.754541 52.831904 
L 121.309643 50.518354 
L 125.864745 48.476306 
L 130.419847 47.430732 
L 134.974949 45.888581 
L 139.530051 45.153089 
L 144.085153 44.439518 
L 148.640255 43.83928 
L 153.195357 45.12553 
L 157.750459 45.444093 
L 162.305561 46.03443 
L 166.860663 47.152304 
L 171.415765 47.364437 
L 175.970867 47.201869 
L 180.525969 47.360948 
L 185.081071 47.795239 
L 189.636173 47.920984 
L 194.191276 48.051213 
L 198.746378 48.089688 
L 203.30148 48.088793 
L 207.856582 48.087736 
L 212.411684 48.086476 
L 216.966786 48.084965 
L 221.521888 48.083143 
L 226.07699 48.08094 
L 230.632092 48.078271 
L 235.187194 48.075033 
L 239.742296 48.071108 
L 244.297398 48.066364 
L 248.8525 48.060659 
" style="fill:none;opacity:0.5;stroke:#73c476;stroke-linecap:square;stroke-width:0.5;"/>
   </g>
   <g id="line2d_52">
    <path clip-path="url(#p6a027f3884)" d="M 25.6525 95.74507 
L 30.207602 89.812325 
L 34.762704 84.275434 
L 39.317806 80.29856 
L 43.872908 76.472458 
L 48.42801 69.935004 
L 52.983112 65.371792 
L 57.538214 60.589335 
L 62.093316 55.407487 
L 66.648418 53.646815 
L 71.20352 50.961024 
L 75.758622 48.600715 
L 80.313724 47.842879 
L 84.868827 46.202779 
L 89.423929 45.805936 
L 93.979031 45.63451 
L 98.534133 45.025695 
L 103.089235 45.291143 
L 107.644337 46.715882 
L 112.199439 48.06743 
L 116.754541 48.208715 
L 121.309643 48.4858 
L 125.864745 48.648154 
L 130.419847 49.00067 
L 134.974949 48.972192 
L 139.530051 49.000667 
L 144.085153 49.004436 
L 148.640255 49.008734 
L 153.195357 49.012299 
L 157.750459 49.015265 
L 162.305561 49.017742 
L 166.860663 49.019819 
L 171.415765 49.021575 
L 175.970867 49.023073 
L 180.525969 49.024367 
L 185.081071 49.025506 
L 189.636173 49.02653 
L 194.191276 49.027476 
L 198.746378 49.02838 
L 203.30148 49.029274 
L 207.856582 49.030192 
L 212.411684 49.031168 
L 216.966786 49.032242 
L 221.521888 49.033457 
L 226.07699 49.034865 
L 230.632092 49.036529 
L 235.187194 49.038532 
L 239.742296 49.040978 
L 244.297398 49.044011 
L 248.8525 49.047826 
" style="fill:none;opacity:0.5;stroke:#73c476;stroke-linecap:square;stroke-width:0.5;"/>
   </g>
   <g id="line2d_53">
    <path clip-path="url(#p6a027f3884)" d="M 25.6525 138.929941 
L 30.207602 130.431191 
L 34.762704 126.13418 
L 39.317806 119.632518 
L 43.872908 112.946716 
L 48.42801 105.376971 
L 52.983112 96.964085 
L 57.538214 91.117662 
L 62.093316 86.323638 
L 66.648418 80.786857 
L 71.20352 74.969769 
L 75.758622 69.285539 
L 80.313724 64.432597 
L 84.868827 59.423696 
L 89.423929 56.180568 
L 93.979031 53.986939 
L 98.534133 50.994127 
L 103.089235 48.649585 
L 107.644337 46.438185 
L 112.199439 44.271503 
L 116.754541 43.568568 
L 121.309643 43.98459 
L 125.864745 43.440098 
L 130.419847 44.425845 
L 134.974949 44.999299 
L 139.530051 45.961683 
L 144.085153 45.915886 
L 148.640255 45.763364 
L 153.195357 46.090246 
L 157.750459 46.134628 
L 162.305561 46.117213 
L 166.860663 46.107753 
L 171.415765 46.143508 
L 175.970867 46.143661 
L 180.525969 46.143926 
L 185.081071 46.144313 
L 189.636173 46.144833 
L 194.191276 46.145505 
L 198.746378 46.14635 
L 203.30148 46.147395 
L 207.856582 46.148675 
L 212.411684 46.150229 
L 216.966786 46.152106 
L 221.521888 46.154363 
L 226.07699 46.157064 
L 230.632092 46.160284 
L 235.187194 46.164108 
L 239.742296 46.168627 
L 244.297398 46.17394 
L 248.8525 46.180149 
" style="fill:none;opacity:0.5;stroke:#73c476;stroke-linecap:square;stroke-width:0.5;"/>
   </g>
   <g id="line2d_54">
    <path clip-path="url(#p6a027f3884)" d="M 25.6525 143.293678 
L 30.207602 134.594167 
L 34.762704 127.034254 
L 39.317806 118.786127 
L 43.872908 111.367182 
L 48.42801 101.949646 
L 52.983112 93.290095 
L 57.538214 85.758694 
L 62.093316 78.401719 
L 66.648418 71.945484 
L 71.20352 67.222196 
L 75.758622 62.229831 
L 80.313724 58.861826 
L 84.868827 55.683774 
L 89.423929 52.48172 
L 93.979031 50.466528 
L 98.534133 49.050232 
L 103.089235 47.54549 
L 107.644337 46.841674 
L 112.199439 45.84532 
L 116.754541 44.883678 
L 121.309643 43.992505 
L 125.864745 43.417887 
L 130.419847 42.623134 
L 134.974949 43.257301 
L 139.530051 43.032408 
L 144.085153 42.99749 
L 148.640255 43.012311 
L 153.195357 43.203439 
L 157.750459 43.354045 
L 162.305561 43.23102 
L 166.860663 43.214775 
L 171.415765 43.215177 
L 175.970867 43.215576 
L 180.525969 43.215986 
L 185.081071 43.216422 
L 189.636173 43.2169 
L 194.191276 43.217437 
L 198.746378 43.218052 
L 203.30148 43.218766 
L 207.856582 43.219607 
L 212.411684 43.220604 
L 216.966786 43.221795 
L 221.521888 43.223224 
L 226.07699 43.224946 
L 230.632092 43.227029 
L 235.187194 43.22956 
L 239.742296 43.232649 
L 244.297398 43.23644 
L 248.8525 43.241121 
" style="fill:none;opacity:0.5;stroke:#73c476;stroke-linecap:square;stroke-width:0.5;"/>
   </g>
   <g id="line2d_55">
    <path clip-path="url(#p6a027f3884)" d="M 25.6525 179.009279 
L 30.207602 173.77399 
L 34.762704 165.368601 
L 39.317806 157.910246 
L 43.872908 146.231103 
L 48.42801 129.803759 
L 52.983112 122.310122 
L 57.538214 116.418351 
L 62.093316 111.932837 
L 66.648418 108.23522 
L 71.20352 100.895897 
L 75.758622 96.170099 
L 80.313724 91.216606 
L 84.868827 84.493101 
L 89.423929 78.26734 
L 93.979031 71.002822 
L 98.534133 64.937829 
L 103.089235 61.749972 
L 107.644337 59.002325 
L 112.199439 56.455226 
L 116.754541 53.728326 
L 121.309643 50.319709 
L 125.864745 48.077705 
L 130.419847 46.938383 
L 134.974949 45.746948 
L 139.530051 44.956163 
L 144.085153 44.572601 
L 148.640255 44.059743 
L 153.195357 44.536867 
L 157.750459 45.12454 
L 162.305561 45.174576 
L 166.860663 45.046263 
L 171.415765 45.201694 
L 175.970867 45.117975 
L 180.525969 45.190735 
L 185.081071 45.192144 
L 189.636173 45.166959 
L 194.191276 45.167792 
L 198.746378 45.168789 
L 203.30148 45.169982 
L 207.856582 45.17141 
L 212.411684 45.173118 
L 216.966786 45.175158 
L 221.521888 45.177592 
L 226.07699 45.180489 
L 230.632092 45.183929 
L 235.187194 45.187997 
L 239.742296 45.192788 
L 244.297398 45.198401 
L 248.8525 45.20493 
" style="fill:none;opacity:0.5;stroke:#73c476;stroke-linecap:square;stroke-width:0.5;"/>
   </g>
   <g id="line2d_56">
    <path clip-path="url(#p6a027f3884)" d="M 25.6525 103.164628 
L 30.207602 97.45927 
L 34.762704 92.224576 
L 39.317806 86.319069 
L 43.872908 80.466478 
L 48.42801 76.000394 
L 52.983112 71.468302 
L 57.538214 68.627819 
L 62.093316 65.685403 
L 66.648418 61.948911 
L 71.20352 56.704197 
L 75.758622 52.412705 
L 80.313724 48.181736 
L 84.868827 46.150305 
L 89.423929 45.791279 
L 93.979031 44.990177 
L 98.534133 44.594432 
L 103.089235 43.776603 
L 107.644337 43.136191 
L 112.199439 43.79227 
L 116.754541 43.987953 
L 121.309643 46.311594 
L 125.864745 46.979657 
L 130.419847 47.40136 
L 134.974949 47.583113 
L 139.530051 47.464293 
L 144.085153 47.600858 
L 148.640255 47.506923 
L 153.195357 47.53178 
L 157.750459 47.541154 
L 162.305561 47.542452 
L 166.860663 47.543487 
L 171.415765 47.544301 
L 175.970867 47.544924 
L 180.525969 47.54538 
L 185.081071 47.545686 
L 189.636173 47.545852 
L 194.191276 47.545882 
L 198.746378 47.545773 
L 203.30148 47.545519 
L 207.856582 47.545102 
L 212.411684 47.544499 
L 216.966786 47.543674 
L 221.521888 47.54258 
L 226.07699 47.541152 
L 230.632092 47.539303 
L 235.187194 47.536957 
L 239.742296 47.533895 
L 244.297398 47.529836 
L 248.8525 47.52448 
" style="fill:none;opacity:0.5;stroke:#73c476;stroke-linecap:square;stroke-width:0.5;"/>
   </g>
   <g id="line2d_57">
    <path clip-path="url(#p6a027f3884)" d="M 25.6525 147.321907 
L 30.207602 135.923894 
L 34.762704 125.647058 
L 39.317806 117.174481 
L 43.872908 108.740722 
L 48.42801 100.87526 
L 52.983112 91.684511 
L 57.538214 83.857123 
L 62.093316 76.874037 
L 66.648418 69.725763 
L 71.20352 65.174089 
L 75.758622 60.913847 
L 80.313724 57.995976 
L 84.868827 55.20307 
L 89.423929 51.886127 
L 93.979031 49.551952 
L 98.534133 47.929466 
L 103.089235 46.250071 
L 107.644337 45.124746 
L 112.199439 43.483272 
L 116.754541 42.470156 
L 121.309643 42.107868 
L 125.864745 41.374952 
L 130.419847 41.499039 
L 134.974949 41.478922 
L 139.530051 41.566866 
L 144.085153 41.432695 
L 148.640255 41.182955 
L 153.195357 41.157335 
L 157.750459 41.115495 
L 162.305561 41.109842 
L 166.860663 41.075135 
L 171.415765 41.075274 
L 175.970867 41.075531 
L 180.525969 41.075915 
L 185.081071 41.076437 
L 189.636173 41.077116 
L 194.191276 41.077975 
L 198.746378 41.079045 
L 203.30148 41.080363 
L 207.856582 41.081976 
L 212.411684 41.083942 
L 216.966786 41.086329 
L 221.521888 41.089223 
L 226.07699 41.092727 
L 230.632092 41.096967 
L 235.187194 41.102096 
L 239.742296 41.108301 
L 244.297398 41.115812 
L 248.8525 41.124913 
" style="fill:none;opacity:0.5;stroke:#73c476;stroke-linecap:square;stroke-width:0.5;"/>
   </g>
   <g id="line2d_58">
    <path clip-path="url(#p6a027f3884)" d="M 25.6525 115.404628 
L 30.207602 108.56725 
L 34.762704 99.019019 
L 39.317806 90.74956 
L 43.872908 82.692276 
L 48.42801 75.734823 
L 52.983112 70.85287 
L 57.538214 66.643954 
L 62.093316 63.33601 
L 66.648418 59.396697 
L 71.20352 55.064564 
L 75.758622 52.356109 
L 80.313724 50.116315 
L 84.868827 47.590616 
L 89.423929 46.465768 
L 93.979031 46.058211 
L 98.534133 44.592106 
L 103.089235 44.047068 
L 107.644337 43.44939 
L 112.199439 43.596005 
L 116.754541 43.243883 
L 121.309643 43.056567 
L 125.864745 43.55883 
L 130.419847 43.487936 
L 134.974949 43.40578 
L 139.530051 43.365423 
L 144.085153 43.439962 
L 148.640255 43.20996 
L 153.195357 43.173302 
L 157.750459 43.283096 
L 162.305561 43.283279 
L 166.860663 43.283466 
L 171.415765 43.283665 
L 175.970867 43.283884 
L 180.525969 43.284133 
L 185.081071 43.284421 
L 189.636173 43.284757 
L 194.191276 43.285154 
L 198.746378 43.285625 
L 203.30148 43.286186 
L 207.856582 43.286856 
L 212.411684 43.287656 
L 216.966786 43.288613 
L 221.521888 43.289755 
L 226.07699 43.291119 
L 230.632092 43.292744 
L 235.187194 43.294675 
L 239.742296 43.296967 
L 244.297398 43.29968 
L 248.8525 43.302882 
" style="fill:none;opacity:0.5;stroke:#73c476;stroke-linecap:square;stroke-width:0.5;"/>
   </g>
   <g id="line2d_59">
    <path clip-path="url(#p6a027f3884)" d="M 25.6525 140.545782 
L 30.207602 125.347252 
L 34.762704 116.112055 
L 39.317806 109.563437 
L 43.872908 101.507247 
L 48.42801 95.343817 
L 52.983112 88.613074 
L 57.538214 82.442472 
L 62.093316 77.23148 
L 66.648418 70.57635 
L 71.20352 64.776432 
L 75.758622 60.01367 
L 80.313724 56.072428 
L 84.868827 53.320309 
L 89.423929 50.315268 
L 93.979031 48.126747 
L 98.534133 46.546268 
L 103.089235 44.802698 
L 107.644337 43.959736 
L 112.199439 42.946885 
L 116.754541 41.630826 
L 121.309643 41.194891 
L 125.864745 41.467253 
L 130.419847 41.356714 
L 134.974949 41.393922 
L 139.530051 41.741238 
L 144.085153 41.885688 
L 148.640255 41.774684 
L 153.195357 41.672476 
L 157.750459 41.861272 
L 162.305561 41.83989 
L 166.860663 41.879456 
L 171.415765 41.88722 
L 175.970867 41.877994 
L 180.525969 41.87828 
L 185.081071 41.878698 
L 189.636173 41.879262 
L 194.191276 41.879994 
L 198.746378 41.880922 
L 203.30148 41.882079 
L 207.856582 41.883509 
L 212.411684 41.885268 
L 216.966786 41.887421 
L 221.521888 41.890054 
L 226.07699 41.893269 
L 230.632092 41.897197 
L 235.187194 41.901999 
L 239.742296 41.907874 
L 244.297398 41.915074 
L 248.8525 41.923914 
" style="fill:none;opacity:0.5;stroke:#73c476;stroke-linecap:square;stroke-width:0.5;"/>
   </g>
   <g id="line2d_60">
    <path clip-path="url(#p6a027f3884)" d="M 25.6525 170.740518 
L 30.207602 164.034724 
L 34.762704 154.553453 
L 39.317806 139.569172 
L 43.872908 128.674144 
L 48.42801 122.074228 
L 52.983112 116.056644 
L 57.538214 107.72397 
L 62.093316 100.231338 
L 66.648418 93.932371 
L 71.20352 88.402098 
L 75.758622 84.190032 
L 80.313724 79.700615 
L 84.868827 74.313582 
L 89.423929 69.118757 
L 93.979031 63.982104 
L 98.534133 58.397298 
L 103.089235 54.783464 
L 107.644337 51.434926 
L 112.199439 50.623213 
L 116.754541 49.330391 
L 121.309643 48.271629 
L 125.864745 47.078121 
L 130.419847 44.975719 
L 134.974949 44.500372 
L 139.530051 44.368926 
L 144.085153 44.449239 
L 148.640255 44.306329 
L 153.195357 45.800557 
L 157.750459 45.61687 
L 162.305561 45.218455 
L 166.860663 45.210136 
L 171.415765 45.164454 
L 175.970867 45.071706 
L 180.525969 45.066551 
L 185.081071 45.070708 
L 189.636173 45.071449 
L 194.191276 45.072306 
L 198.746378 45.073309 
L 203.30148 45.07449 
L 207.856582 45.075887 
L 212.411684 45.077546 
L 216.966786 45.07952 
L 221.521888 45.08187 
L 226.07699 45.084667 
L 230.632092 45.087994 
L 235.187194 45.091947 
L 239.742296 45.096636 
L 244.297398 45.102192 
L 248.8525 45.108768 
" style="fill:none;opacity:0.5;stroke:#73c476;stroke-linecap:square;stroke-width:0.5;"/>
   </g>
   <g id="line2d_61">
    <path clip-path="url(#p6a027f3884)" d="M 25.6525 114.463802 
L 30.207602 109.649415 
L 34.762704 101.797936 
L 39.317806 96.408629 
L 43.872908 90.985695 
L 48.42801 84.749026 
L 52.983112 81.064401 
L 57.538214 76.041884 
L 62.093316 70.946453 
L 66.648418 65.810686 
L 71.20352 60.455198 
L 75.758622 56.33306 
L 80.313724 53.190704 
L 84.868827 51.251048 
L 89.423929 49.408872 
L 93.979031 49.039925 
L 98.534133 48.033005 
L 103.089235 47.625603 
L 107.644337 46.619252 
L 112.199439 46.100228 
L 116.754541 45.289262 
L 121.309643 46.569044 
L 125.864745 47.401522 
L 130.419847 47.469679 
L 134.974949 47.374245 
L 139.530051 47.150343 
L 144.085153 47.29672 
L 148.640255 47.493647 
L 153.195357 47.35198 
L 157.750459 47.343131 
L 162.305561 47.344291 
L 166.860663 47.345304 
L 171.415765 47.3462 
L 175.970867 47.347004 
L 180.525969 47.347742 
L 185.081071 47.348438 
L 189.636173 47.349115 
L 194.191276 47.349795 
L 198.746378 47.350503 
L 203.30148 47.351262 
L 207.856582 47.3521 
L 212.411684 47.353046 
L 216.966786 47.354133 
L 221.521888 47.355402 
L 226.07699 47.356899 
L 230.632092 47.358682 
L 235.187194 47.36082 
L 239.742296 47.363404 
L 244.297398 47.366548 
L 248.8525 47.370406 
" style="fill:none;opacity:0.5;stroke:#73c476;stroke-linecap:square;stroke-width:0.5;"/>
   </g>
   <g id="line2d_62">
    <path clip-path="url(#p6a027f3884)" d="M 25.6525 169.054054 
L 30.207602 165.009945 
L 34.762704 157.830605 
L 39.317806 149.191882 
L 43.872908 139.415645 
L 48.42801 124.871865 
L 52.983112 116.394631 
L 57.538214 108.396541 
L 62.093316 100.37548 
L 66.648418 95.201808 
L 71.20352 88.751675 
L 75.758622 82.900741 
L 80.313724 79.461435 
L 84.868827 73.52343 
L 89.423929 69.801148 
L 93.979031 65.610696 
L 98.534133 61.261423 
L 103.089235 57.889005 
L 107.644337 53.769943 
L 112.199439 51.910281 
L 116.754541 50.353381 
L 121.309643 48.536564 
L 125.864745 47.774828 
L 130.419847 46.694516 
L 134.974949 45.165192 
L 139.530051 45.138951 
L 144.085153 44.177768 
L 148.640255 44.432971 
L 153.195357 45.515118 
L 157.750459 46.958709 
L 162.305561 47.59386 
L 166.860663 47.287847 
L 171.415765 47.611194 
L 175.970867 47.674413 
L 180.525969 47.799354 
L 185.081071 47.825073 
L 189.636173 47.833233 
L 194.191276 47.834371 
L 198.746378 47.835799 
L 203.30148 47.837569 
L 207.856582 47.839743 
L 212.411684 47.842399 
L 216.966786 47.845616 
L 221.521888 47.849497 
L 226.07699 47.854164 
L 230.632092 47.859737 
L 235.187194 47.866326 
L 239.742296 47.874069 
L 244.297398 47.883101 
L 248.8525 47.893534 
" style="fill:none;opacity:0.5;stroke:#73c476;stroke-linecap:square;stroke-width:0.5;"/>
   </g>
   <g id="line2d_63">
    <path clip-path="url(#p6a027f3884)" d="M 25.6525 168.388376 
L 30.207602 162.961996 
L 34.762704 157.112365 
L 39.317806 147.393039 
L 43.872908 134.852248 
L 48.42801 127.692175 
L 52.983112 120.462412 
L 57.538214 112.821409 
L 62.093316 105.7412 
L 66.648418 97.287466 
L 71.20352 89.263628 
L 75.758622 82.187954 
L 80.313724 77.39242 
L 84.868827 74.188046 
L 89.423929 69.91495 
L 93.979031 65.695236 
L 98.534133 60.436816 
L 103.089235 55.909257 
L 107.644337 53.170171 
L 112.199439 50.599228 
L 116.754541 50.042493 
L 121.309643 49.078084 
L 125.864745 47.226075 
L 130.419847 46.245272 
L 134.974949 45.460128 
L 139.530051 45.025395 
L 144.085153 44.928659 
L 148.640255 44.848263 
L 153.195357 45.311295 
L 157.750459 45.444515 
L 162.305561 45.360009 
L 166.860663 45.372442 
L 171.415765 45.571463 
L 175.970867 45.344171 
L 180.525969 45.408212 
L 185.081071 45.467492 
L 189.636173 45.468022 
L 194.191276 45.468671 
L 198.746378 45.469464 
L 203.30148 45.47043 
L 207.856582 45.471606 
L 212.411684 45.473038 
L 216.966786 45.474783 
L 221.521888 45.476912 
L 226.07699 45.479513 
L 230.632092 45.482697 
L 235.187194 45.486601 
L 239.742296 45.491403 
L 244.297398 45.497321 
L 248.8525 45.504636 
" style="fill:none;opacity:0.5;stroke:#73c476;stroke-linecap:square;stroke-width:0.5;"/>
   </g>
   <g id="line2d_64">
    <path clip-path="url(#p6a027f3884)" d="M 25.6525 164.153231 
L 30.207602 153.588955 
L 34.762704 141.412952 
L 39.317806 128.169739 
L 43.872908 118.671372 
L 48.42801 110.319409 
L 52.983112 102.848501 
L 57.538214 97.512284 
L 62.093316 91.796267 
L 66.648418 86.06605 
L 71.20352 79.42811 
L 75.758622 73.022941 
L 80.313724 66.268133 
L 84.868827 61.095768 
L 89.423929 56.886432 
L 93.979031 54.159146 
L 98.534133 51.59328 
L 103.089235 49.228535 
L 107.644337 47.240774 
L 112.199439 45.381505 
L 116.754541 44.283279 
L 121.309643 43.398681 
L 125.864745 41.832099 
L 130.419847 41.400158 
L 134.974949 41.334279 
L 139.530051 41.158752 
L 144.085153 40.993491 
L 148.640255 42.317006 
L 153.195357 42.628236 
L 157.750459 42.749475 
L 162.305561 42.74315 
L 166.860663 42.926005 
L 171.415765 42.91033 
L 175.970867 42.966584 
L 180.525969 42.998697 
L 185.081071 42.934057 
L 189.636173 42.934673 
L 194.191276 42.935396 
L 198.746378 42.936255 
L 203.30148 42.937282 
L 207.856582 42.938516 
L 212.411684 42.940006 
L 216.966786 42.941811 
L 221.521888 42.944004 
L 226.07699 42.946686 
L 230.632092 42.949946 
L 235.187194 42.953858 
L 239.742296 42.958547 
L 244.297398 42.964156 
L 248.8525 42.970847 
" style="fill:none;opacity:0.5;stroke:#73c476;stroke-linecap:square;stroke-width:0.5;"/>
   </g>
   <g id="line2d_65">
    <path clip-path="url(#p6a027f3884)" d="M 25.6525 177.238439 
L 30.207602 168.569397 
L 34.762704 158.940001 
L 39.317806 148.218654 
L 43.872908 135.98372 
L 48.42801 123.642927 
L 52.983112 114.044821 
L 57.538214 106.048994 
L 62.093316 97.252228 
L 66.648418 91.771621 
L 71.20352 85.68496 
L 75.758622 80.45123 
L 80.313724 76.102383 
L 84.868827 70.231073 
L 89.423929 64.603008 
L 93.979031 59.838981 
L 98.534133 55.350027 
L 103.089235 52.057109 
L 107.644337 49.450466 
L 112.199439 47.440567 
L 116.754541 45.976941 
L 121.309643 44.975014 
L 125.864745 44.559985 
L 130.419847 43.517118 
L 134.974949 42.702855 
L 139.530051 42.760598 
L 144.085153 42.28698 
L 148.640255 42.620883 
L 153.195357 42.682782 
L 157.750459 43.670841 
L 162.305561 43.921736 
L 166.860663 43.910258 
L 171.415765 43.999685 
L 175.970867 44.097324 
L 180.525969 44.044314 
L 185.081071 44.08716 
L 189.636173 44.087956 
L 194.191276 44.088827 
L 198.746378 44.089804 
L 203.30148 44.090923 
L 207.856582 44.092227 
L 212.411684 44.093765 
L 216.966786 44.095596 
L 221.521888 44.097793 
L 226.07699 44.100444 
L 230.632092 44.103659 
L 235.187194 44.107577 
L 239.742296 44.112372 
L 244.297398 44.118239 
L 248.8525 44.125241 
" style="fill:none;opacity:0.5;stroke:#73c476;stroke-linecap:square;stroke-width:0.5;"/>
   </g>
   <g id="line2d_66">
    <path clip-path="url(#p6a027f3884)" d="M 25.6525 144.52256 
L 30.207602 136.977891 
L 34.762704 128.123978 
L 39.317806 122.207207 
L 43.872908 115.875381 
L 48.42801 108.740986 
L 52.983112 104.050943 
L 57.538214 97.957907 
L 62.093316 92.805038 
L 66.648418 85.546648 
L 71.20352 78.492546 
L 75.758622 72.548892 
L 80.313724 65.989468 
L 84.868827 61.419606 
L 89.423929 57.298294 
L 93.979031 54.147201 
L 98.534133 49.147772 
L 103.089235 46.243042 
L 107.644337 44.095841 
L 112.199439 43.366147 
L 116.754541 43.689468 
L 121.309643 43.613926 
L 125.864745 43.144964 
L 130.419847 42.232638 
L 134.974949 42.424157 
L 139.530051 42.48502 
L 144.085153 42.756044 
L 148.640255 42.409957 
L 153.195357 42.572877 
L 157.750459 42.323929 
L 162.305561 42.517383 
L 166.860663 42.517734 
L 171.415765 42.518023 
L 175.970867 42.518258 
L 180.525969 42.518449 
L 185.081071 42.518601 
L 189.636173 42.51872 
L 194.191276 42.51881 
L 198.746378 42.518873 
L 203.30148 42.518912 
L 207.856582 42.518926 
L 212.411684 42.518916 
L 216.966786 42.518881 
L 221.521888 42.51882 
L 226.07699 42.518729 
L 230.632092 42.518608 
L 235.187194 42.518457 
L 239.742296 42.518281 
L 244.297398 42.518098 
L 248.8525 42.517949 
" style="fill:none;opacity:0.5;stroke:#73c476;stroke-linecap:square;stroke-width:0.5;"/>
   </g>
   <g id="line2d_67">
    <path clip-path="url(#p6a027f3884)" d="M 25.6525 124.305632 
L 30.207602 111.260753 
L 34.762704 100.974321 
L 39.317806 93.41904 
L 43.872908 87.332831 
L 48.42801 81.772932 
L 52.983112 76.416447 
L 57.538214 73.12285 
L 62.093316 70.693267 
L 66.648418 67.043161 
L 71.20352 63.152597 
L 75.758622 58.4968 
L 80.313724 53.685166 
L 84.868827 50.640491 
L 89.423929 48.66956 
L 93.979031 46.020654 
L 98.534133 45.279988 
L 103.089235 43.84222 
L 107.644337 42.659324 
L 112.199439 42.698723 
L 116.754541 41.104261 
L 121.309643 41.209934 
L 125.864745 41.518968 
L 130.419847 42.498237 
L 134.974949 43.137176 
L 139.530051 44.929525 
L 144.085153 46.714455 
L 148.640255 46.571282 
L 153.195357 47.233502 
L 157.750459 47.228562 
L 162.305561 47.435669 
L 166.860663 47.486636 
L 171.415765 47.469373 
L 175.970867 47.476084 
L 180.525969 47.476602 
L 185.081071 47.477075 
L 189.636173 47.477523 
L 194.191276 47.477962 
L 198.746378 47.478412 
L 203.30148 47.478891 
L 207.856582 47.479421 
L 212.411684 47.48003 
L 216.966786 47.480748 
L 221.521888 47.481619 
L 226.07699 47.482694 
L 230.632092 47.484044 
L 235.187194 47.485764 
L 239.742296 47.48798 
L 244.297398 47.490864 
L 248.8525 47.494651 
" style="fill:none;opacity:0.5;stroke:#73c476;stroke-linecap:square;stroke-width:0.5;"/>
   </g>
   <g id="line2d_68">
    <path clip-path="url(#p6a027f3884)" d="M 25.6525 117.210525 
L 30.207602 111.876962 
L 34.762704 104.879311 
L 39.317806 97.820296 
L 43.872908 91.502534 
L 48.42801 84.715114 
L 52.983112 78.610454 
L 57.538214 72.790161 
L 62.093316 67.252134 
L 66.648418 62.911979 
L 71.20352 57.598815 
L 75.758622 53.666261 
L 80.313724 50.183356 
L 84.868827 47.31138 
L 89.423929 46.151061 
L 93.979031 44.870789 
L 98.534133 43.947058 
L 103.089235 43.13392 
L 107.644337 41.770843 
L 112.199439 41.250378 
L 116.754541 40.853269 
L 121.309643 41.046515 
L 125.864745 41.718833 
L 130.419847 42.246026 
L 134.974949 42.229565 
L 139.530051 42.212121 
L 144.085153 42.325768 
L 148.640255 42.363157 
L 153.195357 42.326086 
L 157.750459 42.310493 
L 162.305561 42.291541 
L 166.860663 42.291824 
L 171.415765 42.292155 
L 175.970867 42.292549 
L 180.525969 42.29302 
L 185.081071 42.293588 
L 189.636173 42.294274 
L 194.191276 42.295103 
L 198.746378 42.296104 
L 203.30148 42.297315 
L 207.856582 42.298779 
L 212.411684 42.300549 
L 216.966786 42.302689 
L 221.521888 42.305277 
L 226.07699 42.308407 
L 230.632092 42.312194 
L 235.187194 42.316774 
L 239.742296 42.322316 
L 244.297398 42.329018 
L 248.8525 42.337119 
" style="fill:none;opacity:0.5;stroke:#73c476;stroke-linecap:square;stroke-width:0.5;"/>
   </g>
   <g id="line2d_69">
    <path clip-path="url(#p6a027f3884)" d="M 25.6525 121.055619 
L 30.207602 110.6022 
L 34.762704 102.303873 
L 39.317806 95.118789 
L 43.872908 88.590136 
L 48.42801 83.062952 
L 52.983112 78.778635 
L 57.538214 74.297534 
L 62.093316 68.48759 
L 66.648418 64.324102 
L 71.20352 60.221583 
L 75.758622 56.638601 
L 80.313724 53.296246 
L 84.868827 50.388365 
L 89.423929 47.880675 
L 93.979031 46.443599 
L 98.534133 45.427508 
L 103.089235 44.389559 
L 107.644337 43.515876 
L 112.199439 42.318849 
L 116.754541 41.440665 
L 121.309643 41.857638 
L 125.864745 42.253409 
L 130.419847 42.701133 
L 134.974949 43.496094 
L 139.530051 43.785118 
L 144.085153 44.019265 
L 148.640255 44.160238 
L 153.195357 44.031428 
L 157.750459 44.08723 
L 162.305561 44.09806 
L 166.860663 44.079195 
L 171.415765 44.069624 
L 175.970867 44.145038 
L 180.525969 44.145188 
L 185.081071 44.145489 
L 189.636173 44.145951 
L 194.191276 44.14659 
L 198.746378 44.147428 
L 203.30148 44.148495 
L 207.856582 44.149827 
L 212.411684 44.151468 
L 216.966786 44.153476 
L 221.521888 44.155917 
L 226.07699 44.158876 
L 230.632092 44.162454 
L 235.187194 44.166775 
L 239.742296 44.171993 
L 244.297398 44.178304 
L 248.8525 44.185957 
" style="fill:none;opacity:0.5;stroke:#73c476;stroke-linecap:square;stroke-width:0.5;"/>
   </g>
   <g id="line2d_70">
    <path clip-path="url(#p6a027f3884)" d="M 25.6525 152.986092 
L 30.207602 143.553569 
L 34.762704 131.191328 
L 39.317806 116.251201 
L 43.872908 105.92322 
L 48.42801 97.249991 
L 52.983112 91.9253 
L 57.538214 86.481964 
L 62.093316 80.659356 
L 66.648418 75.511744 
L 71.20352 70.177635 
L 75.758622 66.134804 
L 80.313724 61.158992 
L 84.868827 56.793343 
L 89.423929 53.375175 
L 93.979031 50.72292 
L 98.534133 49.925674 
L 103.089235 48.06055 
L 107.644337 46.650838 
L 112.199439 45.627445 
L 116.754541 43.873 
L 121.309643 43.04611 
L 125.864745 42.709109 
L 130.419847 41.823843 
L 134.974949 42.503277 
L 139.530051 43.190252 
L 144.085153 43.137588 
L 148.640255 43.473726 
L 153.195357 43.465245 
L 157.750459 44.173027 
L 162.305561 44.145481 
L 166.860663 44.12257 
L 171.415765 44.071644 
L 175.970867 44.04877 
L 180.525969 44.049367 
L 185.081071 44.049413 
L 189.636173 44.049561 
L 194.191276 44.049815 
L 198.746378 44.050185 
L 203.30148 44.050683 
L 207.856582 44.051326 
L 212.411684 44.052137 
L 216.966786 44.053143 
L 221.521888 44.054378 
L 226.07699 44.055887 
L 230.632092 44.057721 
L 235.187194 44.059947 
L 239.742296 44.06265 
L 244.297398 44.065966 
L 248.8525 44.069708 
" style="fill:none;opacity:0.5;stroke:#73c476;stroke-linecap:square;stroke-width:0.5;"/>
   </g>
   <g id="line2d_71">
    <path clip-path="url(#p6a027f3884)" d="M 25.6525 126.115221 
L 30.207602 118.590173 
L 34.762704 110.994608 
L 39.317806 103.298092 
L 43.872908 95.477041 
L 48.42801 88.544961 
L 52.983112 80.96002 
L 57.538214 75.010494 
L 62.093316 69.710458 
L 66.648418 63.714223 
L 71.20352 59.56358 
L 75.758622 55.064594 
L 80.313724 52.161159 
L 84.868827 49.611562 
L 89.423929 47.218685 
L 93.979031 44.754199 
L 98.534133 43.39331 
L 103.089235 42.688466 
L 107.644337 42.817029 
L 112.199439 41.900661 
L 116.754541 41.133487 
L 121.309643 41.229213 
L 125.864745 41.523741 
L 130.419847 41.765315 
L 134.974949 42.049241 
L 139.530051 42.066254 
L 144.085153 42.33055 
L 148.640255 42.467311 
L 153.195357 42.471179 
L 157.750459 42.353426 
L 162.305561 42.40743 
L 166.860663 42.407452 
L 171.415765 42.407507 
L 175.970867 42.407621 
L 180.525969 42.407795 
L 185.081071 42.408035 
L 189.636173 42.408349 
L 194.191276 42.408746 
L 198.746378 42.409242 
L 203.30148 42.409853 
L 207.856582 42.410604 
L 212.411684 42.411521 
L 216.966786 42.412641 
L 221.521888 42.414007 
L 226.07699 42.415676 
L 230.632092 42.417718 
L 235.187194 42.420224 
L 239.742296 42.423316 
L 244.297398 42.427152 
L 248.8525 42.431949 
" style="fill:none;opacity:0.5;stroke:#73c476;stroke-linecap:square;stroke-width:0.5;"/>
   </g>
   <g id="line2d_72">
    <path clip-path="url(#p6a027f3884)" d="M 25.6525 154.933741 
L 30.207602 149.088721 
L 34.762704 143.716055 
L 39.317806 137.334895 
L 43.872908 131.414015 
L 48.42801 126.175825 
L 52.983112 119.507337 
L 57.538214 110.923315 
L 62.093316 102.981321 
L 66.648418 96.409815 
L 71.20352 90.558954 
L 75.758622 84.961445 
L 80.313724 78.034736 
L 84.868827 70.97937 
L 89.423929 66.067549 
L 93.979031 60.39552 
L 98.534133 56.515366 
L 103.089235 52.674331 
L 107.644337 49.372398 
L 112.199439 48.09249 
L 116.754541 46.69609 
L 121.309643 46.520024 
L 125.864745 45.370186 
L 130.419847 44.839979 
L 134.974949 46.200133 
L 139.530051 45.673146 
L 144.085153 44.838538 
L 148.640255 44.839882 
L 153.195357 44.785004 
L 157.750459 44.7767 
L 162.305561 44.713688 
L 166.860663 44.721705 
L 171.415765 44.740136 
L 175.970867 44.740152 
L 180.525969 44.740273 
L 185.081071 44.740504 
L 189.636173 44.740852 
L 194.191276 44.741329 
L 198.746378 44.741952 
L 203.30148 44.742744 
L 207.856582 44.743732 
L 212.411684 44.744953 
L 216.966786 44.74645 
L 221.521888 44.748277 
L 226.07699 44.7505 
L 230.632092 44.753199 
L 235.187194 44.756473 
L 239.742296 44.760439 
L 244.297398 44.765241 
L 248.8525 44.771049 
" style="fill:none;opacity:0.5;stroke:#73c476;stroke-linecap:square;stroke-width:0.5;"/>
   </g>
   <g id="line2d_73">
    <path clip-path="url(#p6a027f3884)" d="M 25.6525 117.83081 
L 30.207602 108.690557 
L 34.762704 101.964906 
L 39.317806 95.672179 
L 43.872908 88.811135 
L 48.42801 82.051671 
L 52.983112 75.915804 
L 57.538214 69.780169 
L 62.093316 65.048123 
L 66.648418 61.296247 
L 71.20352 57.519207 
L 75.758622 53.786969 
L 80.313724 51.261638 
L 84.868827 48.465458 
L 89.423929 47.030728 
L 93.979031 45.683231 
L 98.534133 44.385429 
L 103.089235 43.318373 
L 107.644337 42.738182 
L 112.199439 42.189431 
L 116.754541 41.791481 
L 121.309643 42.01272 
L 125.864745 42.300314 
L 130.419847 43.156264 
L 134.974949 43.443583 
L 139.530051 43.350518 
L 144.085153 43.555896 
L 148.640255 43.428686 
L 153.195357 43.539541 
L 157.750459 43.683805 
L 162.305561 43.707709 
L 166.860663 43.69849 
L 171.415765 43.698668 
L 175.970867 43.69886 
L 180.525969 43.699073 
L 185.081071 43.699314 
L 189.636173 43.699592 
L 194.191276 43.699916 
L 198.746378 43.7003 
L 203.30148 43.700756 
L 207.856582 43.701301 
L 212.411684 43.701955 
L 216.966786 43.702743 
L 221.521888 43.703695 
L 226.07699 43.704847 
L 230.632092 43.706247 
L 235.187194 43.707955 
L 239.742296 43.710048 
L 244.297398 43.712629 
L 248.8525 43.715841 
" style="fill:none;opacity:0.5;stroke:#73c476;stroke-linecap:square;stroke-width:0.5;"/>
   </g>
   <g id="line2d_74">
    <path clip-path="url(#p6a027f3884)" d="M 25.6525 104.462591 
L 30.207602 97.39862 
L 34.762704 92.4536 
L 39.317806 84.905827 
L 43.872908 80.781666 
L 48.42801 77.416818 
L 52.983112 70.446784 
L 57.538214 66.068923 
L 62.093316 62.444606 
L 66.648418 59.569354 
L 71.20352 56.836075 
L 75.758622 53.760108 
L 80.313724 51.385455 
L 84.868827 48.584743 
L 89.423929 46.648253 
L 93.979031 45.398628 
L 98.534133 44.508331 
L 103.089235 44.465726 
L 107.644337 43.450545 
L 112.199439 42.87389 
L 116.754541 43.654726 
L 121.309643 44.060473 
L 125.864745 45.320428 
L 130.419847 46.26531 
L 134.974949 46.677825 
L 139.530051 46.629906 
L 144.085153 46.855341 
L 148.640255 47.069021 
L 153.195357 47.365869 
L 157.750459 47.290817 
L 162.305561 47.277829 
L 166.860663 47.277994 
L 171.415765 47.278119 
L 175.970867 47.27821 
L 180.525969 47.278271 
L 185.081071 47.278305 
L 189.636173 47.278315 
L 194.191276 47.278303 
L 198.746378 47.278271 
L 203.30148 47.278221 
L 207.856582 47.278157 
L 212.411684 47.278085 
L 216.966786 47.278013 
L 221.521888 47.277955 
L 226.07699 47.277935 
L 230.632092 47.277989 
L 235.187194 47.278172 
L 239.742296 47.278572 
L 244.297398 47.279324 
L 248.8525 47.280631 
" style="fill:none;opacity:0.5;stroke:#73c476;stroke-linecap:square;stroke-width:0.5;"/>
   </g>
   <g id="line2d_75">
    <path clip-path="url(#p6a027f3884)" d="M 25.6525 128.212973 
L 30.207602 118.633223 
L 34.762704 111.790572 
L 39.317806 106.411293 
L 43.872908 102.219185 
L 48.42801 98.411706 
L 52.983112 94.763879 
L 57.538214 89.882505 
L 62.093316 84.358859 
L 66.648418 78.349556 
L 71.20352 73.317005 
L 75.758622 66.779551 
L 80.313724 61.90808 
L 84.868827 59.52756 
L 89.423929 56.341223 
L 93.979031 54.606805 
L 98.534133 53.11589 
L 103.089235 49.396319 
L 107.644337 48.543618 
L 112.199439 47.724119 
L 116.754541 47.786215 
L 121.309643 47.650701 
L 125.864745 46.952304 
L 130.419847 47.787453 
L 134.974949 47.973652 
L 139.530051 48.423441 
L 144.085153 48.287261 
L 148.640255 48.278179 
L 153.195357 48.22382 
L 157.750459 48.338037 
L 162.305561 48.344675 
L 166.860663 48.343758 
L 171.415765 48.342998 
L 175.970867 48.342367 
L 180.525969 48.341841 
L 185.081071 48.341401 
L 189.636173 48.341031 
L 194.191276 48.340716 
L 198.746378 48.340444 
L 203.30148 48.340203 
L 207.856582 48.339983 
L 212.411684 48.339771 
L 216.966786 48.339555 
L 221.521888 48.339323 
L 226.07699 48.339056 
L 230.632092 48.338736 
L 235.187194 48.338339 
L 239.742296 48.33784 
L 244.297398 48.337213 
L 248.8525 48.33644 
" style="fill:none;opacity:0.5;stroke:#73c476;stroke-linecap:square;stroke-width:0.5;"/>
   </g>
   <g id="line2d_76">
    <path clip-path="url(#p6a027f3884)" d="M 25.6525 151.466218 
L 30.207602 138.899112 
L 34.762704 131.658409 
L 39.317806 122.615021 
L 43.872908 113.678536 
L 48.42801 105.157474 
L 52.983112 97.010454 
L 57.538214 90.012505 
L 62.093316 81.93653 
L 66.648418 76.224392 
L 71.20352 70.741332 
L 75.758622 66.406571 
L 80.313724 63.959902 
L 84.868827 59.662189 
L 89.423929 56.071644 
L 93.979031 52.423957 
L 98.534133 49.482666 
L 103.089235 47.686129 
L 107.644337 46.391341 
L 112.199439 44.390509 
L 116.754541 43.268702 
L 121.309643 42.263161 
L 125.864745 41.902549 
L 130.419847 42.475428 
L 134.974949 43.048604 
L 139.530051 43.998208 
L 144.085153 44.137044 
L 148.640255 44.119402 
L 153.195357 44.394813 
L 157.750459 44.602096 
L 162.305561 44.623334 
L 166.860663 44.702616 
L 171.415765 44.681404 
L 175.970867 44.682689 
L 180.525969 44.683873 
L 185.081071 44.684999 
L 189.636173 44.686106 
L 194.191276 44.68723 
L 198.746378 44.688409 
L 203.30148 44.689682 
L 207.856582 44.691089 
L 212.411684 44.692674 
L 216.966786 44.694482 
L 221.521888 44.696566 
L 226.07699 44.698981 
L 230.632092 44.701792 
L 235.187194 44.705066 
L 239.742296 44.708885 
L 244.297398 44.713342 
L 248.8525 44.718587 
" style="fill:none;opacity:0.5;stroke:#73c476;stroke-linecap:square;stroke-width:0.5;"/>
   </g>
   <g id="line2d_77">
    <path clip-path="url(#p6a027f3884)" d="M 25.6525 138.783323 
L 30.207602 131.851496 
L 34.762704 122.489011 
L 39.317806 112.504693 
L 43.872908 103.577552 
L 48.42801 96.964044 
L 52.983112 91.260638 
L 57.538214 85.348683 
L 62.093316 77.83589 
L 66.648418 71.079067 
L 71.20352 64.676462 
L 75.758622 59.731336 
L 80.313724 56.105046 
L 84.868827 53.619814 
L 89.423929 51.07889 
L 93.979031 48.610799 
L 98.534133 46.625208 
L 103.089235 44.910485 
L 107.644337 43.7655 
L 112.199439 43.755552 
L 116.754541 43.104397 
L 121.309643 43.192861 
L 125.864745 42.830395 
L 130.419847 42.679447 
L 134.974949 42.49946 
L 139.530051 42.3304 
L 144.085153 42.417699 
L 148.640255 42.443823 
L 153.195357 42.432951 
L 157.750459 42.433744 
L 162.305561 42.434436 
L 166.860663 42.435052 
L 171.415765 42.435615 
L 175.970867 42.436144 
L 180.525969 42.436659 
L 185.081071 42.437178 
L 189.636173 42.437719 
L 194.191276 42.438303 
L 198.746378 42.438951 
L 203.30148 42.439686 
L 207.856582 42.440535 
L 212.411684 42.441529 
L 216.966786 42.442706 
L 221.521888 42.444138 
L 226.07699 42.445839 
L 230.632092 42.447838 
L 235.187194 42.450182 
L 239.742296 42.45292 
L 244.297398 42.4561 
L 248.8525 42.459767 
" style="fill:none;opacity:0.5;stroke:#73c476;stroke-linecap:square;stroke-width:0.5;"/>
   </g>
   <g id="line2d_78">
    <path clip-path="url(#p6a027f3884)" d="M 25.6525 148.42254 
L 30.207602 137.743608 
L 34.762704 121.53443 
L 39.317806 112.123538 
L 43.872908 104.109514 
L 48.42801 97.41154 
L 52.983112 91.33768 
L 57.538214 87.060447 
L 62.093316 83.005597 
L 66.648418 78.553735 
L 71.20352 73.942325 
L 75.758622 69.053841 
L 80.313724 64.36086 
L 84.868827 59.453989 
L 89.423929 55.665267 
L 93.979031 51.664229 
L 98.534133 49.430048 
L 103.089235 47.882334 
L 107.644337 45.939594 
L 112.199439 45.174018 
L 116.754541 44.477133 
L 121.309643 42.867859 
L 125.864745 42.643604 
L 130.419847 42.899373 
L 134.974949 43.625567 
L 139.530051 43.559419 
L 144.085153 45.532732 
L 148.640255 46.130532 
L 153.195357 46.373555 
L 157.750459 46.457911 
L 162.305561 46.600866 
L 166.860663 46.507857 
L 171.415765 46.471584 
L 175.970867 46.563376 
L 180.525969 46.564051 
L 185.081071 46.564661 
L 189.636173 46.565228 
L 194.191276 46.565772 
L 198.746378 46.566312 
L 203.30148 46.566868 
L 207.856582 46.567459 
L 212.411684 46.568106 
L 216.966786 46.56883 
L 221.521888 46.569657 
L 226.07699 46.570616 
L 230.632092 46.571743 
L 235.187194 46.57308 
L 239.742296 46.574687 
L 244.297398 46.576641 
L 248.8525 46.579054 
" style="fill:none;opacity:0.5;stroke:#73c476;stroke-linecap:square;stroke-width:0.5;"/>
   </g>
   <g id="line2d_79">
    <path clip-path="url(#p6a027f3884)" d="M 25.6525 177.342919 
L 30.207602 172.891347 
L 34.762704 171.308038 
L 39.317806 167.308617 
L 43.872908 159.337464 
L 48.42801 150.34963 
L 52.983112 141.17037 
L 57.538214 126.669649 
L 62.093316 119.767014 
L 66.648418 111.315718 
L 71.20352 103.094267 
L 75.758622 95.897103 
L 80.313724 89.336741 
L 84.868827 84.527248 
L 89.423929 79.69268 
L 93.979031 75.362748 
L 98.534133 69.098978 
L 103.089235 64.37345 
L 107.644337 60.205838 
L 112.199439 55.420095 
L 116.754541 52.719112 
L 121.309643 49.40847 
L 125.864745 47.218338 
L 130.419847 46.406024 
L 134.974949 45.028801 
L 139.530051 43.912502 
L 144.085153 43.246942 
L 148.640255 42.241174 
L 153.195357 42.28909 
L 157.750459 41.764601 
L 162.305561 41.644677 
L 166.860663 42.951551 
L 171.415765 43.609091 
L 175.970867 44.369216 
L 180.525969 44.772312 
L 185.081071 44.82996 
L 189.636173 45.00801 
L 194.191276 45.041795 
L 198.746378 45.075308 
L 203.30148 45.078678 
L 207.856582 45.078433 
L 212.411684 45.078053 
L 216.966786 45.077521 
L 221.521888 45.076813 
L 226.07699 45.075896 
L 230.632092 45.074731 
L 235.187194 45.07327 
L 239.742296 45.071463 
L 244.297398 45.069257 
L 248.8525 45.066614 
" style="fill:none;opacity:0.5;stroke:#73c476;stroke-linecap:square;stroke-width:0.5;"/>
   </g>
   <g id="line2d_80">
    <path clip-path="url(#p6a027f3884)" d="M 25.6525 166.324538 
L 30.207602 160.203824 
L 34.762704 152.152553 
L 39.317806 139.342857 
L 43.872908 125.185805 
L 48.42801 118.663332 
L 52.983112 112.296386 
L 57.538214 105.100477 
L 62.093316 99.351484 
L 66.648418 92.348681 
L 71.20352 84.452599 
L 75.758622 79.83115 
L 80.313724 73.834456 
L 84.868827 69.820769 
L 89.423929 66.865366 
L 93.979031 63.02783 
L 98.534133 58.648047 
L 103.089235 55.906353 
L 107.644337 53.214466 
L 112.199439 51.855787 
L 116.754541 48.975849 
L 121.309643 46.463786 
L 125.864745 43.742843 
L 130.419847 42.557854 
L 134.974949 43.619231 
L 139.530051 43.812717 
L 144.085153 44.304633 
L 148.640255 44.8438 
L 153.195357 46.748158 
L 157.750459 47.039624 
L 162.305561 46.902534 
L 166.860663 46.551861 
L 171.415765 46.427814 
L 175.970867 46.468042 
L 180.525969 46.349272 
L 185.081071 46.272562 
L 189.636173 46.272512 
L 194.191276 46.272613 
L 198.746378 46.27287 
L 203.30148 46.273281 
L 207.856582 46.273857 
L 212.411684 46.274609 
L 216.966786 46.275554 
L 221.521888 46.27671 
L 226.07699 46.278095 
L 230.632092 46.279726 
L 235.187194 46.281617 
L 239.742296 46.28377 
L 244.297398 46.286173 
L 248.8525 46.288788 
" style="fill:none;opacity:0.5;stroke:#73c476;stroke-linecap:square;stroke-width:0.5;"/>
   </g>
   <g id="line2d_81">
    <path clip-path="url(#p6a027f3884)" d="M 25.6525 133.340841 
L 30.207602 121.597558 
L 34.762704 111.304248 
L 39.317806 102.138491 
L 43.872908 94.928193 
L 48.42801 89.507619 
L 52.983112 85.402629 
L 57.538214 82.695307 
L 62.093316 78.174922 
L 66.648418 72.56221 
L 71.20352 68.65392 
L 75.758622 63.520488 
L 80.313724 60.013843 
L 84.868827 56.42572 
L 89.423929 53.609054 
L 93.979031 50.761766 
L 98.534133 48.798359 
L 103.089235 46.831844 
L 107.644337 45.187915 
L 112.199439 44.228342 
L 116.754541 43.33594 
L 121.309643 44.390747 
L 125.864745 43.692659 
L 130.419847 44.440015 
L 134.974949 45.205222 
L 139.530051 45.462757 
L 144.085153 45.983302 
L 148.640255 46.586518 
L 153.195357 46.2503 
L 157.750459 46.377202 
L 162.305561 46.294157 
L 166.860663 46.305048 
L 171.415765 46.312007 
L 175.970867 46.312857 
L 180.525969 46.313778 
L 185.081071 46.314802 
L 189.636173 46.315967 
L 194.191276 46.317314 
L 198.746378 46.318891 
L 203.30148 46.320753 
L 207.856582 46.322963 
L 212.411684 46.32559 
L 216.966786 46.328717 
L 221.521888 46.332441 
L 226.07699 46.336876 
L 230.632092 46.342151 
L 235.187194 46.348389 
L 239.742296 46.355629 
L 244.297398 46.363942 
L 248.8525 46.373362 
" style="fill:none;opacity:0.5;stroke:#73c476;stroke-linecap:square;stroke-width:0.5;"/>
   </g>
   <g id="line2d_82">
    <path clip-path="url(#p6a027f3884)" d="M 25.6525 94.668249 
L 30.207602 86.969538 
L 34.762704 81.697529 
L 39.317806 76.039936 
L 43.872908 71.7503 
L 48.42801 68.13631 
L 52.983112 63.644583 
L 57.538214 60.037642 
L 62.093316 57.084604 
L 66.648418 54.493983 
L 71.20352 52.122847 
L 75.758622 49.70847 
L 80.313724 48.323247 
L 84.868827 46.473868 
L 89.423929 45.692176 
L 93.979031 44.655344 
L 98.534133 43.671688 
L 103.089235 42.846297 
L 107.644337 42.064032 
L 112.199439 42.475142 
L 116.754541 42.551517 
L 121.309643 42.880575 
L 125.864745 43.802383 
L 130.419847 43.775442 
L 134.974949 44.14554 
L 139.530051 44.367356 
L 144.085153 44.785434 
L 148.640255 44.618418 
L 153.195357 44.711787 
L 157.750459 44.712791 
L 162.305561 44.713726 
L 166.860663 44.714628 
L 171.415765 44.715531 
L 175.970867 44.716469 
L 180.525969 44.717474 
L 185.081071 44.718583 
L 189.636173 44.719836 
L 194.191276 44.721276 
L 198.746378 44.722956 
L 203.30148 44.724934 
L 207.856582 44.727278 
L 212.411684 44.730072 
L 216.966786 44.733411 
L 221.521888 44.737413 
L 226.07699 44.742215 
L 230.632092 44.74798 
L 235.187194 44.754907 
L 239.742296 44.763226 
L 244.297398 44.773217 
L 248.8525 44.785208 
" style="fill:none;opacity:0.5;stroke:#73c476;stroke-linecap:square;stroke-width:0.5;"/>
   </g>
   <g id="line2d_83">
    <path clip-path="url(#p6a027f3884)" d="M 25.6525 109.557327 
L 30.207602 102.56996 
L 34.762704 95.329962 
L 39.317806 88.653418 
L 43.872908 80.336012 
L 48.42801 75.25017 
L 52.983112 69.574754 
L 57.538214 65.142818 
L 62.093316 61.59197 
L 66.648418 58.007305 
L 71.20352 55.48948 
L 75.758622 51.821754 
L 80.313724 49.85221 
L 84.868827 47.448249 
L 89.423929 45.330582 
L 93.979031 44.508599 
L 98.534133 42.80878 
L 103.089235 42.313721 
L 107.644337 41.811499 
L 112.199439 41.015446 
L 116.754541 41.226177 
L 121.309643 41.246318 
L 125.864745 41.978746 
L 130.419847 42.917117 
L 134.974949 43.47085 
L 139.530051 43.294431 
L 144.085153 43.460205 
L 148.640255 43.725563 
L 153.195357 43.746769 
L 157.750459 43.728048 
L 162.305561 43.818366 
L 166.860663 43.818519 
L 171.415765 43.818662 
L 175.970867 43.818803 
L 180.525969 43.818944 
L 185.081071 43.819091 
L 189.636173 43.81925 
L 194.191276 43.819424 
L 198.746378 43.819621 
L 203.30148 43.819847 
L 207.856582 43.820108 
L 212.411684 43.820413 
L 216.966786 43.820772 
L 221.521888 43.821197 
L 226.07699 43.821702 
L 230.632092 43.822307 
L 235.187194 43.823035 
L 239.742296 43.823922 
L 244.297398 43.82502 
L 248.8525 43.826408 
" style="fill:none;opacity:0.5;stroke:#73c476;stroke-linecap:square;stroke-width:0.5;"/>
   </g>
   <g id="line2d_84">
    <path clip-path="url(#p6a027f3884)" d="M 25.6525 181.521422 
L 30.207602 178.158256 
L 34.762704 170.821006 
L 39.317806 162.091452 
L 43.872908 149.196296 
L 48.42801 140.28685 
L 52.983112 127.410386 
L 57.538214 112.11232 
L 62.093316 104.831212 
L 66.648418 98.153063 
L 71.20352 91.128469 
L 75.758622 84.634548 
L 80.313724 77.491635 
L 84.868827 72.471959 
L 89.423929 68.338204 
L 93.979031 64.30972 
L 98.534133 60.740876 
L 103.089235 57.599818 
L 107.644337 54.331732 
L 112.199439 52.865509 
L 116.754541 50.845081 
L 121.309643 48.749687 
L 125.864745 46.669321 
L 130.419847 44.977988 
L 134.974949 44.559008 
L 139.530051 43.543041 
L 144.085153 43.095936 
L 148.640255 43.287543 
L 153.195357 43.355214 
L 157.750459 43.746168 
L 162.305561 44.455517 
L 166.860663 45.909227 
L 171.415765 46.834212 
L 175.970867 46.840734 
L 180.525969 46.818356 
L 185.081071 46.980085 
L 189.636173 47.024881 
L 194.191276 47.025327 
L 198.746378 47.025849 
L 203.30148 47.026467 
L 207.856582 47.027203 
L 212.411684 47.028087 
L 216.966786 47.029153 
L 221.521888 47.030445 
L 226.07699 47.03202 
L 230.632092 47.033952 
L 235.187194 47.036338 
L 239.742296 47.039311 
L 244.297398 47.043055 
L 248.8525 47.04783 
" style="fill:none;opacity:0.5;stroke:#73c476;stroke-linecap:square;stroke-width:0.5;"/>
   </g>
   <g id="line2d_85">
    <path clip-path="url(#p6a027f3884)" d="M 25.6525 151.35549 
L 30.207602 138.507838 
L 34.762704 127.323165 
L 39.317806 115.319653 
L 43.872908 106.10728 
L 48.42801 99.364983 
L 52.983112 92.232942 
L 57.538214 86.324284 
L 62.093316 79.688206 
L 66.648418 74.271003 
L 71.20352 70.654914 
L 75.758622 66.382152 
L 80.313724 62.937388 
L 84.868827 58.737357 
L 89.423929 54.391908 
L 93.979031 50.879525 
L 98.534133 48.558208 
L 103.089235 46.582704 
L 107.644337 45.535479 
L 112.199439 45.119227 
L 116.754541 45.108586 
L 121.309643 44.512179 
L 125.864745 43.571461 
L 130.419847 43.037507 
L 134.974949 43.06337 
L 139.530051 43.849092 
L 144.085153 43.946567 
L 148.640255 44.654082 
L 153.195357 44.813627 
L 157.750459 44.702273 
L 162.305561 44.915304 
L 166.860663 44.803117 
L 171.415765 44.818163 
L 175.970867 44.818329 
L 180.525969 44.81848 
L 185.081071 44.818623 
L 189.636173 44.818761 
L 194.191276 44.8189 
L 198.746378 44.819044 
L 203.30148 44.819198 
L 207.856582 44.819367 
L 212.411684 44.819555 
L 216.966786 44.819769 
L 221.521888 44.820014 
L 226.07699 44.820298 
L 230.632092 44.82063 
L 235.187194 44.821021 
L 239.742296 44.821488 
L 244.297398 44.822055 
L 248.8525 44.822762 
" style="fill:none;opacity:0.5;stroke:#73c476;stroke-linecap:square;stroke-width:0.5;"/>
   </g>
   <g id="line2d_86">
    <path clip-path="url(#p6a027f3884)" d="M 25.6525 108.418376 
L 30.207602 99.252973 
L 34.762704 93.910358 
L 39.317806 90.923389 
L 43.872908 86.675816 
L 48.42801 82.882297 
L 52.983112 77.718313 
L 57.538214 71.417794 
L 62.093316 66.339277 
L 66.648418 61.82155 
L 71.20352 57.357355 
L 75.758622 55.178747 
L 80.313724 53.044474 
L 84.868827 51.279222 
L 89.423929 50.534233 
L 93.979031 48.522671 
L 98.534133 47.286884 
L 103.089235 46.14019 
L 107.644337 45.132149 
L 112.199439 45.18035 
L 116.754541 44.856975 
L 121.309643 45.533139 
L 125.864745 45.095182 
L 130.419847 46.44691 
L 134.974949 47.207198 
L 139.530051 47.83094 
L 144.085153 48.317933 
L 148.640255 48.505272 
L 153.195357 48.440709 
L 157.750459 48.406795 
L 162.305561 48.542248 
L 166.860663 48.540624 
L 171.415765 48.541225 
L 175.970867 48.541829 
L 180.525969 48.542459 
L 185.081071 48.543139 
L 189.636173 48.543897 
L 194.191276 48.54476 
L 198.746378 48.545764 
L 203.30148 48.546948 
L 207.856582 48.548362 
L 212.411684 48.550066 
L 216.966786 48.552134 
L 221.521888 48.554659 
L 226.07699 48.557759 
L 230.632092 48.561586 
L 235.187194 48.56633 
L 239.742296 48.572238 
L 244.297398 48.579627 
L 248.8525 48.588902 
" style="fill:none;opacity:0.5;stroke:#73c476;stroke-linecap:square;stroke-width:0.5;"/>
   </g>
   <g id="line2d_87">
    <path clip-path="url(#p6a027f3884)" d="M 25.6525 152.210075 
L 30.207602 139.005363 
L 34.762704 127.648487 
L 39.317806 119.094424 
L 43.872908 111.27523 
L 48.42801 103.041566 
L 52.983112 95.318973 
L 57.538214 90.425047 
L 62.093316 86.09716 
L 66.648418 81.236071 
L 71.20352 75.33961 
L 75.758622 70.007284 
L 80.313724 64.213645 
L 84.868827 59.672051 
L 89.423929 55.419558 
L 93.979031 52.015842 
L 98.534133 48.699412 
L 103.089235 46.263398 
L 107.644337 44.193935 
L 112.199439 42.663214 
L 116.754541 42.869448 
L 121.309643 41.678305 
L 125.864745 41.665222 
L 130.419847 41.749632 
L 134.974949 41.400286 
L 139.530051 41.229019 
L 144.085153 42.06711 
L 148.640255 42.46084 
L 153.195357 42.800324 
L 157.750459 42.867588 
L 162.305561 42.936775 
L 166.860663 42.996769 
L 171.415765 42.987133 
L 175.970867 42.986786 
L 180.525969 42.986553 
L 185.081071 42.986425 
L 189.636173 42.986397 
L 194.191276 42.986467 
L 198.746378 42.986636 
L 203.30148 42.986911 
L 207.856582 42.987298 
L 212.411684 42.987811 
L 216.966786 42.988463 
L 221.521888 42.989275 
L 226.07699 42.990272 
L 230.632092 42.991484 
L 235.187194 42.992949 
L 239.742296 42.994718 
L 244.297398 42.996856 
L 248.8525 42.999458 
" style="fill:none;opacity:0.5;stroke:#73c476;stroke-linecap:square;stroke-width:0.5;"/>
   </g>
   <g id="line2d_88">
    <path clip-path="url(#p6a027f3884)" d="M 25.6525 183.654595 
L 30.207602 181.377714 
L 34.762704 177.952973 
L 39.317806 172.143034 
L 43.872908 168.880532 
L 48.42801 163.347107 
L 52.983112 156.668171 
L 57.538214 148.509892 
L 62.093316 136.280184 
L 66.648418 124.513986 
L 71.20352 114.780066 
L 75.758622 105.789931 
L 80.313724 97.270644 
L 84.868827 90.475362 
L 89.423929 83.701153 
L 93.979031 77.07436 
L 98.534133 71.967756 
L 103.089235 67.231788 
L 107.644337 63.961667 
L 112.199439 60.722634 
L 116.754541 56.730843 
L 121.309643 53.356178 
L 125.864745 50.219942 
L 130.419847 48.364191 
L 134.974949 46.525531 
L 139.530051 44.463509 
L 144.085153 43.760203 
L 148.640255 43.117923 
L 153.195357 43.062051 
L 157.750459 43.280529 
L 162.305561 42.723147 
L 166.860663 42.716408 
L 171.415765 43.144775 
L 175.970867 43.663765 
L 180.525969 43.876086 
L 185.081071 43.952953 
L 189.636173 44.292261 
L 194.191276 44.277546 
L 198.746378 44.317458 
L 203.30148 44.438533 
L 207.856582 44.447962 
L 212.411684 44.448379 
L 216.966786 44.448849 
L 221.521888 44.449384 
L 226.07699 44.449998 
L 230.632092 44.450709 
L 235.187194 44.451534 
L 239.742296 44.452495 
L 244.297398 44.453621 
L 248.8525 44.45495 
" style="fill:none;opacity:0.5;stroke:#73c476;stroke-linecap:square;stroke-width:0.5;"/>
   </g>
   <g id="line2d_89">
    <path clip-path="url(#p6a027f3884)" d="M 25.6525 166.122618 
L 30.207602 157.13208 
L 34.762704 148.570857 
L 39.317806 139.285833 
L 43.872908 128.364279 
L 48.42801 118.122715 
L 52.983112 108.344606 
L 57.538214 99.741951 
L 62.093316 92.429584 
L 66.648418 86.060437 
L 71.20352 79.649745 
L 75.758622 74.335584 
L 80.313724 68.415583 
L 84.868827 64.064696 
L 89.423929 61.216279 
L 93.979031 58.535025 
L 98.534133 56.044867 
L 103.089235 52.796506 
L 107.644337 49.738364 
L 112.199439 47.943262 
L 116.754541 46.254011 
L 121.309643 45.437922 
L 125.864745 45.09586 
L 130.419847 44.91926 
L 134.974949 44.772783 
L 139.530051 44.263135 
L 144.085153 44.210719 
L 148.640255 44.225977 
L 153.195357 44.393497 
L 157.750459 44.640813 
L 162.305561 44.448877 
L 166.860663 44.338644 
L 171.415765 44.521678 
L 175.970867 44.483244 
L 180.525969 44.481031 
L 185.081071 44.481432 
L 189.636173 44.481997 
L 194.191276 44.482749 
L 198.746378 44.483716 
L 203.30148 44.484931 
L 207.856582 44.48644 
L 212.411684 44.488295 
L 216.966786 44.490565 
L 221.521888 44.493331 
L 226.07699 44.496692 
L 230.632092 44.500769 
L 235.187194 44.505711 
L 239.742296 44.511695 
L 244.297398 44.518939 
L 248.8525 44.527703 
" style="fill:none;opacity:0.5;stroke:#73c476;stroke-linecap:square;stroke-width:0.5;"/>
   </g>
   <g id="line2d_90">
    <path clip-path="url(#p6a027f3884)" d="M 25.6525 174.049426 
L 30.207602 167.431175 
L 34.762704 161.032277 
L 39.317806 150.89297 
L 43.872908 141.60396 
L 48.42801 130.513618 
L 52.983112 122.990013 
L 57.538214 116.099933 
L 62.093316 108.485809 
L 66.648418 103.687178 
L 71.20352 98.320763 
L 75.758622 91.940824 
L 80.313724 85.13727 
L 84.868827 77.614099 
L 89.423929 69.544612 
L 93.979031 62.717923 
L 98.534133 58.798757 
L 103.089235 55.330278 
L 107.644337 53.016192 
L 112.199439 51.45822 
L 116.754541 49.360861 
L 121.309643 47.64195 
L 125.864745 45.87122 
L 130.419847 45.733547 
L 134.974949 44.40578 
L 139.530051 43.376571 
L 144.085153 43.384002 
L 148.640255 43.267967 
L 153.195357 43.106085 
L 157.750459 43.179172 
L 162.305561 43.530195 
L 166.860663 43.72771 
L 171.415765 43.80731 
L 175.970867 43.7006 
L 180.525969 43.703764 
L 185.081071 43.734377 
L 189.636173 43.734443 
L 194.191276 43.73453 
L 198.746378 43.734641 
L 203.30148 43.734781 
L 207.856582 43.734953 
L 212.411684 43.735162 
L 216.966786 43.735415 
L 221.521888 43.735719 
L 226.07699 43.736083 
L 230.632092 43.73652 
L 235.187194 43.737044 
L 239.742296 43.737677 
L 244.297398 43.738447 
L 248.8525 43.739403 
" style="fill:none;opacity:0.5;stroke:#73c476;stroke-linecap:square;stroke-width:0.5;"/>
   </g>
   <g id="patch_3">
    <path d="M 25.6525 180.150953 
L 25.6525 13.830953 
" style="fill:none;stroke:#000000;stroke-linecap:square;stroke-linejoin:miter;stroke-width:0.8;"/>
   </g>
   <g id="patch_4">
    <path d="M 248.8525 180.150953 
L 248.8525 13.830953 
" style="fill:none;stroke:#000000;stroke-linecap:square;stroke-linejoin:miter;stroke-width:0.8;"/>
   </g>
   <g id="patch_5">
    <path d="M 25.6525 180.150953 
L 248.8525 180.150953 
" style="fill:none;stroke:#000000;stroke-linecap:square;stroke-linejoin:miter;stroke-width:0.8;"/>
   </g>
   <g id="patch_6">
    <path d="M 25.6525 13.830953 
L 248.8525 13.830953 
" style="fill:none;stroke:#000000;stroke-linecap:square;stroke-linejoin:miter;stroke-width:0.8;"/>
   </g>
   <g id="line2d_91">
    <path clip-path="url(#p6a027f3884)" d="M 25.6525 142.144787 
L 30.207602 134.356434 
L 34.762704 126.625157 
L 39.317806 118.803443 
L 43.872908 111.028399 
L 48.42801 103.788507 
L 52.983112 96.968901 
L 57.538214 90.422115 
L 62.093316 84.412767 
L 66.648418 78.872524 
L 71.20352 73.501992 
L 75.758622 68.645565 
L 80.313724 64.481152 
L 84.868827 60.603259 
L 89.423929 57.32545 
L 93.979031 54.375241 
L 98.534133 51.739736 
L 103.089235 49.645298 
L 107.644337 47.930806 
L 112.199439 46.814229 
L 116.754541 45.786317 
L 121.309643 45.191379 
L 125.864745 44.609948 
L 130.419847 44.485684 
L 134.974949 44.461205 
L 139.530051 44.407466 
L 144.085153 44.471907 
L 148.640255 44.491533 
L 153.195357 44.701885 
L 157.750459 44.840088 
L 162.305561 44.929037 
L 166.860663 45.036381 
L 171.415765 45.141419 
L 175.970867 45.182994 
L 180.525969 45.211064 
L 185.081071 45.230485 
L 189.636173 45.24969 
L 194.191276 45.252159 
L 198.746378 45.256414 
L 203.30148 45.26012 
L 207.856582 45.260839 
L 212.411684 45.261779 
L 216.966786 45.262902 
L 221.521888 45.264247 
L 226.07699 45.265861 
L 230.632092 45.267796 
L 235.187194 45.270117 
L 239.742296 45.272901 
L 244.297398 45.276243 
L 248.8525 45.280256 
" style="fill:none;stroke:#008000;stroke-linecap:square;stroke-width:2;"/>
   </g>
  </g>
 </g>
 <defs>
  <clipPath id="p6a027f3884">
   <rect height="166.32" width="223.2" x="25.6525" y="13.830953"/>
  </clipPath>
 </defs>
</svg>
