<?xml version="1.0" encoding="utf-8" standalone="no"?>
<!DOCTYPE svg PUBLIC "-//W3C//DTD SVG 1.1//EN"
  "http://www.w3.org/Graphics/SVG/1.1/DTD/svg11.dtd">
<!-- Created with matplotlib (http://matplotlib.org/) -->
<svg height="354pt" version="1.1" viewBox="0 0 413 354" width="413pt" xmlns="http://www.w3.org/2000/svg" xmlns:xlink="http://www.w3.org/1999/xlink">
 <defs>
  <style type="text/css">
*{stroke-linecap:butt;stroke-linejoin:round;}
  </style>
 </defs>
 <g id="figure_1">
  <g id="patch_1">
   <path d="M 0 354.04 
L 413.122187 354.04 
L 413.122187 0 
L 0 0 
z
" style="fill:#ffffff;"/>
  </g>
  <g id="axes_1">
   <g id="patch_2">
    <path d="M 67.622187 343.34 
L 402.422188 343.34 
L 402.422188 10.7 
L 67.622187 10.7 
z
" style="fill:#ffffff;"/>
   </g>
   <g id="PolyCollection_1">
    <defs>
     <path d="M 82.840369 -132.004854 
L 82.840369 -155.381504 
L 86.14867 -155.381504 
L 89.45697 -155.381504 
L 92.765271 -155.381504 
L 96.073571 -155.381504 
L 99.381871 -155.381504 
L 102.690172 -155.381504 
L 105.998472 -155.381504 
L 109.306772 -155.381504 
L 112.615073 -155.381504 
L 115.923373 -155.381504 
L 119.231674 -155.381504 
L 122.539974 -155.381504 
L 125.848274 -155.381504 
L 129.156575 -155.381504 
L 132.464875 -155.381504 
L 135.773176 -155.381504 
L 139.081476 -155.381504 
L 142.389776 -155.381504 
L 145.698077 -155.381504 
L 149.006377 -155.381504 
L 152.314678 -155.381504 
L 155.622978 -155.381504 
L 158.931278 -155.381504 
L 162.239579 -155.381504 
L 165.547879 -155.381504 
L 168.85618 -155.381504 
L 172.16448 -155.381504 
L 175.47278 -155.381504 
L 178.781081 -155.381504 
L 182.089381 -155.381504 
L 185.397682 -155.381504 
L 188.705982 -155.381504 
L 192.014282 -155.381504 
L 195.322583 -155.381504 
L 198.630883 -155.381504 
L 201.939184 -155.381504 
L 205.247484 -155.381504 
L 208.555784 -155.381504 
L 211.864085 -155.381504 
L 215.172385 -155.381504 
L 218.480686 -155.381504 
L 221.788986 -155.381504 
L 225.097286 -155.381504 
L 228.405587 -155.381504 
L 231.713887 -155.381504 
L 235.022188 -155.381504 
L 238.330488 -155.381504 
L 241.638788 -155.381504 
L 244.947089 -155.381504 
L 248.255389 -155.381504 
L 251.563689 -155.381504 
L 254.87199 -155.381504 
L 258.18029 -155.381504 
L 261.488591 -155.381504 
L 264.796891 -155.381504 
L 268.105191 -155.381504 
L 271.413492 -155.381504 
L 274.721792 -155.381504 
L 278.030093 -155.381504 
L 281.338393 -155.381504 
L 284.646693 -155.381504 
L 287.954994 -155.381504 
L 291.263294 -155.381504 
L 294.571595 -155.381504 
L 297.879895 -155.381504 
L 301.188195 -155.381504 
L 304.496496 -155.381504 
L 307.804796 -155.381504 
L 311.113097 -155.381504 
L 314.421397 -155.381504 
L 317.729697 -155.381504 
L 321.037998 -155.381504 
L 324.346298 -155.381504 
L 327.654599 -155.381504 
L 330.962899 -155.381504 
L 334.271199 -155.381504 
L 337.5795 -155.381504 
L 340.8878 -155.381504 
L 344.196101 -155.381504 
L 347.504401 -155.381504 
L 350.812701 -155.381504 
L 354.121002 -155.381504 
L 357.429302 -155.381504 
L 360.737603 -155.381504 
L 364.045903 -155.381504 
L 367.354203 -155.381504 
L 370.662504 -155.381504 
L 373.970804 -155.381504 
L 377.279104 -155.381504 
L 380.587405 -155.381504 
L 383.895705 -155.381504 
L 387.204006 -155.381504 
L 387.204006 -207.977962 
L 387.204006 -207.977962 
L 383.895705 -199.337794 
L 380.587405 -197.079338 
L 377.279104 -185.149503 
L 373.970804 -178.714594 
L 370.662504 -177.781828 
L 367.354203 -176.781738 
L 364.045903 -175.32044 
L 360.737603 -175.1352 
L 357.429302 -172.881935 
L 354.121002 -170.358772 
L 350.812701 -169.348781 
L 347.504401 -168.886045 
L 344.196101 -168.599535 
L 340.8878 -168.293315 
L 337.5795 -167.700642 
L 334.271199 -165.386163 
L 330.962899 -162.716135 
L 327.654599 -162.517977 
L 324.346298 -162.001812 
L 321.037998 -161.302695 
L 317.729697 -156.424712 
L 314.421397 -156.379727 
L 311.113097 -156.216242 
L 307.804796 -156.119342 
L 304.496496 -155.860782 
L 301.188195 -155.465491 
L 297.879895 -155.438275 
L 294.571595 -155.432325 
L 291.263294 -155.428418 
L 287.954994 -155.427959 
L 284.646693 -155.416198 
L 281.338393 -155.413393 
L 278.030093 -155.410436 
L 274.721792 -155.407504 
L 271.413492 -155.406738 
L 268.105191 -155.401532 
L 264.796891 -155.399879 
L 261.488591 -155.397074 
L 258.18029 -155.394815 
L 254.87199 -155.392448 
L 251.563689 -155.389297 
L 248.255389 -155.389179 
L 244.947089 -155.387841 
L 241.638788 -155.385645 
L 238.330488 -155.385065 
L 235.022188 -155.383771 
L 231.713887 -155.381912 
L 228.405587 -155.380353 
L 225.097286 -155.379206 
L 221.788986 -155.376403 
L 218.480686 -155.373391 
L 215.172385 -155.370465 
L 211.864085 -155.367833 
L 208.555784 -155.367736 
L 205.247484 -155.363518 
L 201.939184 -155.362244 
L 198.630883 -155.358642 
L 195.322583 -155.353851 
L 192.014282 -155.350663 
L 188.705982 -155.350585 
L 185.397682 -155.346732 
L 182.089381 -155.333781 
L 178.781081 -155.333594 
L 175.47278 -155.332329 
L 172.16448 -155.307876 
L 168.85618 -155.298687 
L 165.547879 -155.215885 
L 162.239579 -154.955971 
L 158.931278 -154.775592 
L 155.622978 -154.660352 
L 152.314678 -154.621119 
L 149.006377 -154.556162 
L 145.698077 -154.544201 
L 142.389776 -154.532213 
L 139.081476 -154.41543 
L 135.773176 -154.114324 
L 132.464875 -151.878788 
L 129.156575 -151.242143 
L 125.848274 -151.071772 
L 122.539974 -150.402206 
L 119.231674 -149.679969 
L 115.923373 -148.770305 
L 112.615073 -148.065885 
L 109.306772 -147.595094 
L 105.998472 -145.505717 
L 102.690172 -142.997812 
L 99.381871 -139.254395 
L 96.073571 -137.927772 
L 92.765271 -137.013602 
L 89.45697 -134.675005 
L 86.14867 -133.530986 
L 82.840369 -132.004854 
z
" id="m93f7d1ddc9" style="stroke:#4a98c9;"/>
    </defs>
    <g clip-path="url(#pf0f8c5e1e0)">
     <use style="fill:#4a98c9;stroke:#4a98c9;" x="0" xlink:href="#m93f7d1ddc9" y="354.04"/>
    </g>
   </g>
   <g id="PolyCollection_2">
    <defs>
     <path d="M 82.840369 -25.82 
L 82.840369 -155.381504 
L 86.14867 -155.381504 
L 89.45697 -155.381504 
L 92.765271 -155.381504 
L 96.073571 -155.381504 
L 99.381871 -155.381504 
L 102.690172 -155.381504 
L 105.998472 -155.381504 
L 109.306772 -155.381504 
L 112.615073 -155.381504 
L 115.923373 -155.381504 
L 119.231674 -155.381504 
L 122.539974 -155.381504 
L 125.848274 -155.381504 
L 129.156575 -155.381504 
L 132.464875 -155.381504 
L 135.773176 -155.381504 
L 139.081476 -155.381504 
L 142.389776 -155.381504 
L 145.698077 -155.381504 
L 149.006377 -155.381504 
L 152.314678 -155.381504 
L 155.622978 -155.381504 
L 158.931278 -155.381504 
L 162.239579 -155.381504 
L 165.547879 -155.381504 
L 168.85618 -155.381504 
L 172.16448 -155.381504 
L 175.47278 -155.381504 
L 178.781081 -155.381504 
L 182.089381 -155.381504 
L 185.397682 -155.381504 
L 188.705982 -155.381504 
L 192.014282 -155.381504 
L 195.322583 -155.381504 
L 198.630883 -155.381504 
L 201.939184 -155.381504 
L 205.247484 -155.381504 
L 208.555784 -155.381504 
L 211.864085 -155.381504 
L 215.172385 -155.381504 
L 218.480686 -155.381504 
L 221.788986 -155.381504 
L 225.097286 -155.381504 
L 228.405587 -155.381504 
L 231.713887 -155.381504 
L 235.022188 -155.381504 
L 238.330488 -155.381504 
L 241.638788 -155.381504 
L 244.947089 -155.381504 
L 248.255389 -155.381504 
L 251.563689 -155.381504 
L 254.87199 -155.381504 
L 258.18029 -155.381504 
L 261.488591 -155.381504 
L 264.796891 -155.381504 
L 268.105191 -155.381504 
L 271.413492 -155.381504 
L 274.721792 -155.381504 
L 278.030093 -155.381504 
L 281.338393 -155.381504 
L 284.646693 -155.381504 
L 287.954994 -155.381504 
L 291.263294 -155.381504 
L 294.571595 -155.381504 
L 297.879895 -155.381504 
L 301.188195 -155.381504 
L 304.496496 -155.381504 
L 307.804796 -155.381504 
L 311.113097 -155.381504 
L 314.421397 -155.381504 
L 317.729697 -155.381504 
L 321.037998 -155.381504 
L 324.346298 -155.381504 
L 327.654599 -155.381504 
L 330.962899 -155.381504 
L 334.271199 -155.381504 
L 337.5795 -155.381504 
L 340.8878 -155.381504 
L 344.196101 -155.381504 
L 347.504401 -155.381504 
L 350.812701 -155.381504 
L 354.121002 -155.381504 
L 357.429302 -155.381504 
L 360.737603 -155.381504 
L 364.045903 -155.381504 
L 367.354203 -155.381504 
L 370.662504 -155.381504 
L 373.970804 -155.381504 
L 377.279104 -155.381504 
L 380.587405 -155.381504 
L 383.895705 -155.381504 
L 387.204006 -155.381504 
L 387.204006 -328.22 
L 387.204006 -328.22 
L 383.895705 -315.347258 
L 380.587405 -283.66161 
L 377.279104 -280.057984 
L 373.970804 -272.744609 
L 370.662504 -266.139395 
L 367.354203 -239.760496 
L 364.045903 -234.716683 
L 360.737603 -227.207188 
L 357.429302 -223.045343 
L 354.121002 -205.815402 
L 350.812701 -203.227183 
L 347.504401 -202.175212 
L 344.196101 -195.625207 
L 340.8878 -192.708242 
L 337.5795 -190.16665 
L 334.271199 -175.581118 
L 330.962899 -171.595082 
L 327.654599 -170.414092 
L 324.346298 -170.268013 
L 321.037998 -158.215532 
L 317.729697 -157.877711 
L 314.421397 -156.639275 
L 311.113097 -156.423742 
L 307.804796 -155.977229 
L 304.496496 -155.929675 
L 301.188195 -155.610435 
L 297.879895 -155.539468 
L 294.571595 -155.498307 
L 291.263294 -155.49183 
L 287.954994 -155.455804 
L 284.646693 -155.443789 
L 281.338393 -155.436454 
L 278.030093 -155.433446 
L 274.721792 -155.42991 
L 271.413492 -155.423564 
L 268.105191 -155.418005 
L 264.796891 -155.417223 
L 261.488591 -155.404312 
L 258.18029 -155.396581 
L 254.87199 -155.395792 
L 251.563689 -155.391503 
L 248.255389 -155.386791 
L 244.947089 -155.386337 
L 241.638788 -155.385929 
L 238.330488 -155.385122 
L 235.022188 -155.384489 
L 231.713887 -155.381123 
L 228.405587 -155.371841 
L 225.097286 -155.367803 
L 221.788986 -155.367728 
L 218.480686 -155.366822 
L 215.172385 -155.365547 
L 211.864085 -155.362843 
L 208.555784 -155.362099 
L 205.247484 -155.361102 
L 201.939184 -155.360309 
L 198.630883 -155.349328 
L 195.322583 -155.346484 
L 192.014282 -155.344394 
L 188.705982 -155.328407 
L 185.397682 -155.325446 
L 182.089381 -155.315255 
L 178.781081 -155.279447 
L 175.47278 -155.258126 
L 172.16448 -155.23563 
L 168.85618 -155.142441 
L 165.547879 -155.130544 
L 162.239579 -155.066892 
L 158.931278 -155.042714 
L 155.622978 -154.954007 
L 152.314678 -154.663932 
L 149.006377 -154.374994 
L 145.698077 -153.239253 
L 142.389776 -152.666622 
L 139.081476 -149.582056 
L 135.773176 -148.436125 
L 132.464875 -142.176572 
L 129.156575 -140.453282 
L 125.848274 -138.491521 
L 122.539974 -137.792544 
L 119.231674 -136.106415 
L 115.923373 -135.006326 
L 112.615073 -132.236973 
L 109.306772 -128.955484 
L 105.998472 -125.463443 
L 102.690172 -123.291289 
L 99.381871 -121.1901 
L 96.073571 -119.926993 
L 92.765271 -104.533671 
L 89.45697 -76.572757 
L 86.14867 -69.122939 
L 82.840369 -25.82 
z
" id="mb29692c85a" style="stroke:#f14432;stroke-opacity:0.8;"/>
    </defs>
    <g clip-path="url(#pf0f8c5e1e0)">
     <use style="fill:#f14432;fill-opacity:0.8;stroke:#f14432;stroke-opacity:0.8;" x="0" xlink:href="#mb29692c85a" y="354.04"/>
    </g>
   </g>
   <g id="matplotlib.axis_1"/>
   <g id="matplotlib.axis_2">
    <g id="ytick_1">
     <g id="line2d_1">
      <defs>
       <path d="M 0 0 
L -3.5 0 
" id="m1fa81ea3a5" style="stroke:#000000;stroke-width:0.8;"/>
      </defs>
      <g>
       <use style="stroke:#000000;stroke-width:0.8;" x="67.622187" xlink:href="#m1fa81ea3a5" y="313.845786"/>
      </g>
     </g>
     <g id="text_1">
      <!-- −0.4 -->
      <defs>
       <path d="M 10.59375 35.5 
L 73.1875 35.5 
L 73.1875 27.203125 
L 10.59375 27.203125 
z
" id="DejaVuSans-2212"/>
       <path d="M 31.78125 66.40625 
Q 24.171875 66.40625 20.328125 58.90625 
Q 16.5 51.421875 16.5 36.375 
Q 16.5 21.390625 20.328125 13.890625 
Q 24.171875 6.390625 31.78125 6.390625 
Q 39.453125 6.390625 43.28125 13.890625 
Q 47.125 21.390625 47.125 36.375 
Q 47.125 51.421875 43.28125 58.90625 
Q 39.453125 66.40625 31.78125 66.40625 
z
M 31.78125 74.21875 
Q 44.046875 74.21875 50.515625 64.515625 
Q 56.984375 54.828125 56.984375 36.375 
Q 56.984375 17.96875 50.515625 8.265625 
Q 44.046875 -1.421875 31.78125 -1.421875 
Q 19.53125 -1.421875 13.0625 8.265625 
Q 6.59375 17.96875 6.59375 36.375 
Q 6.59375 54.828125 13.0625 64.515625 
Q 19.53125 74.21875 31.78125 74.21875 
z
" id="DejaVuSans-30"/>
       <path d="M 10.6875 12.40625 
L 21 12.40625 
L 21 0 
L 10.6875 0 
z
" id="DejaVuSans-2e"/>
       <path d="M 37.796875 64.3125 
L 12.890625 25.390625 
L 37.796875 25.390625 
z
M 35.203125 72.90625 
L 47.609375 72.90625 
L 47.609375 25.390625 
L 58.015625 25.390625 
L 58.015625 17.1875 
L 47.609375 17.1875 
L 47.609375 0 
L 37.796875 0 
L 37.796875 17.1875 
L 4.890625 17.1875 
L 4.890625 26.703125 
z
" id="DejaVuSans-34"/>
      </defs>
      <g transform="translate(7.2 322.204067)scale(0.22 -0.22)">
       <use xlink:href="#DejaVuSans-2212"/>
       <use x="83.789062" xlink:href="#DejaVuSans-30"/>
       <use x="147.412109" xlink:href="#DejaVuSans-2e"/>
       <use x="179.199219" xlink:href="#DejaVuSans-34"/>
      </g>
     </g>
    </g>
    <g id="ytick_2">
     <g id="line2d_2">
      <g>
       <use style="stroke:#000000;stroke-width:0.8;" x="67.622187" xlink:href="#m1fa81ea3a5" y="256.252141"/>
      </g>
     </g>
     <g id="text_2">
      <!-- −0.2 -->
      <defs>
       <path d="M 19.1875 8.296875 
L 53.609375 8.296875 
L 53.609375 0 
L 7.328125 0 
L 7.328125 8.296875 
Q 12.9375 14.109375 22.625 23.890625 
Q 32.328125 33.6875 34.8125 36.53125 
Q 39.546875 41.84375 41.421875 45.53125 
Q 43.3125 49.21875 43.3125 52.78125 
Q 43.3125 58.59375 39.234375 62.25 
Q 35.15625 65.921875 28.609375 65.921875 
Q 23.96875 65.921875 18.8125 64.3125 
Q 13.671875 62.703125 7.8125 59.421875 
L 7.8125 69.390625 
Q 13.765625 71.78125 18.9375 73 
Q 24.125 74.21875 28.421875 74.21875 
Q 39.75 74.21875 46.484375 68.546875 
Q 53.21875 62.890625 53.21875 53.421875 
Q 53.21875 48.921875 51.53125 44.890625 
Q 49.859375 40.875 45.40625 35.40625 
Q 44.1875 33.984375 37.640625 27.21875 
Q 31.109375 20.453125 19.1875 8.296875 
z
" id="DejaVuSans-32"/>
      </defs>
      <g transform="translate(7.2 264.610422)scale(0.22 -0.22)">
       <use xlink:href="#DejaVuSans-2212"/>
       <use x="83.789062" xlink:href="#DejaVuSans-30"/>
       <use x="147.412109" xlink:href="#DejaVuSans-2e"/>
       <use x="179.199219" xlink:href="#DejaVuSans-32"/>
      </g>
     </g>
    </g>
    <g id="ytick_3">
     <g id="line2d_3">
      <g>
       <use style="stroke:#000000;stroke-width:0.8;" x="67.622187" xlink:href="#m1fa81ea3a5" y="198.658496"/>
      </g>
     </g>
     <g id="text_3">
      <!-- 0.0 -->
      <g transform="translate(25.635312 207.016777)scale(0.22 -0.22)">
       <use xlink:href="#DejaVuSans-30"/>
       <use x="63.623047" xlink:href="#DejaVuSans-2e"/>
       <use x="95.410156" xlink:href="#DejaVuSans-30"/>
      </g>
     </g>
    </g>
    <g id="ytick_4">
     <g id="line2d_4">
      <g>
       <use style="stroke:#000000;stroke-width:0.8;" x="67.622187" xlink:href="#m1fa81ea3a5" y="141.064851"/>
      </g>
     </g>
     <g id="text_4">
      <!-- 0.2 -->
      <g transform="translate(25.635312 149.423132)scale(0.22 -0.22)">
       <use xlink:href="#DejaVuSans-30"/>
       <use x="63.623047" xlink:href="#DejaVuSans-2e"/>
       <use x="95.410156" xlink:href="#DejaVuSans-32"/>
      </g>
     </g>
    </g>
    <g id="ytick_5">
     <g id="line2d_5">
      <g>
       <use style="stroke:#000000;stroke-width:0.8;" x="67.622187" xlink:href="#m1fa81ea3a5" y="83.471206"/>
      </g>
     </g>
     <g id="text_5">
      <!-- 0.4 -->
      <g transform="translate(25.635312 91.829487)scale(0.22 -0.22)">
       <use xlink:href="#DejaVuSans-30"/>
       <use x="63.623047" xlink:href="#DejaVuSans-2e"/>
       <use x="95.410156" xlink:href="#DejaVuSans-34"/>
      </g>
     </g>
    </g>
    <g id="ytick_6">
     <g id="line2d_6">
      <g>
       <use style="stroke:#000000;stroke-width:0.8;" x="67.622187" xlink:href="#m1fa81ea3a5" y="25.87756"/>
      </g>
     </g>
     <g id="text_6">
      <!-- 0.6 -->
      <defs>
       <path d="M 33.015625 40.375 
Q 26.375 40.375 22.484375 35.828125 
Q 18.609375 31.296875 18.609375 23.390625 
Q 18.609375 15.53125 22.484375 10.953125 
Q 26.375 6.390625 33.015625 6.390625 
Q 39.65625 6.390625 43.53125 10.953125 
Q 47.40625 15.53125 47.40625 23.390625 
Q 47.40625 31.296875 43.53125 35.828125 
Q 39.65625 40.375 33.015625 40.375 
z
M 52.59375 71.296875 
L 52.59375 62.3125 
Q 48.875 64.0625 45.09375 64.984375 
Q 41.3125 65.921875 37.59375 65.921875 
Q 27.828125 65.921875 22.671875 59.328125 
Q 17.53125 52.734375 16.796875 39.40625 
Q 19.671875 43.65625 24.015625 45.921875 
Q 28.375 48.1875 33.59375 48.1875 
Q 44.578125 48.1875 50.953125 41.515625 
Q 57.328125 34.859375 57.328125 23.390625 
Q 57.328125 12.15625 50.6875 5.359375 
Q 44.046875 -1.421875 33.015625 -1.421875 
Q 20.359375 -1.421875 13.671875 8.265625 
Q 6.984375 17.96875 6.984375 36.375 
Q 6.984375 53.65625 15.1875 63.9375 
Q 23.390625 74.21875 37.203125 74.21875 
Q 40.921875 74.21875 44.703125 73.484375 
Q 48.484375 72.75 52.59375 71.296875 
z
" id="DejaVuSans-36"/>
      </defs>
      <g transform="translate(25.635312 34.235842)scale(0.22 -0.22)">
       <use xlink:href="#DejaVuSans-30"/>
       <use x="63.623047" xlink:href="#DejaVuSans-2e"/>
       <use x="95.410156" xlink:href="#DejaVuSans-36"/>
      </g>
     </g>
    </g>
   </g>
   <g id="patch_3">
    <path d="M 67.622187 343.34 
L 67.622187 10.7 
" style="fill:none;stroke:#000000;stroke-linecap:square;stroke-linejoin:miter;stroke-width:0.8;"/>
   </g>
   <g id="patch_4">
    <path d="M 402.422188 343.34 
L 402.422188 10.7 
" style="fill:none;stroke:#000000;stroke-linecap:square;stroke-linejoin:miter;stroke-width:0.8;"/>
   </g>
   <g id="patch_5">
    <path d="M 67.622187 343.34 
L 402.422188 343.34 
" style="fill:none;stroke:#000000;stroke-linecap:square;stroke-linejoin:miter;stroke-width:0.8;"/>
   </g>
   <g id="patch_6">
    <path d="M 67.622187 10.7 
L 402.422188 10.7 
" style="fill:none;stroke:#000000;stroke-linecap:square;stroke-linejoin:miter;stroke-width:0.8;"/>
   </g>
  </g>
 </g>
 <defs>
  <clipPath id="pf0f8c5e1e0">
   <rect height="332.64" width="334.8" x="67.622187" y="10.7"/>
  </clipPath>
 </defs>
</svg>
