<?xml version="1.0" encoding="utf-8" standalone="no"?>
<!DOCTYPE svg PUBLIC "-//W3C//DTD SVG 1.1//EN"
  "http://www.w3.org/Graphics/SVG/1.1/DTD/svg11.dtd">
<!-- Created with matplotlib (http://matplotlib.org/) -->
<svg height="354pt" version="1.1" viewBox="0 0 455 354" width="455pt" xmlns="http://www.w3.org/2000/svg" xmlns:xlink="http://www.w3.org/1999/xlink">
 <defs>
  <style type="text/css">
*{stroke-linecap:butt;stroke-linejoin:round;}
  </style>
 </defs>
 <g id="figure_1">
  <g id="patch_1">
   <path d="M 0 354.04 
L 455.114687 354.04 
L 455.114687 0 
L 0 0 
z
" style="fill:#ffffff;"/>
  </g>
  <g id="axes_1">
   <g id="patch_2">
    <path d="M 109.614687 343.34 
L 444.414688 343.34 
L 444.414688 10.7 
L 109.614687 10.7 
z
" style="fill:#ffffff;"/>
   </g>
   <g id="PolyCollection_1">
    <defs>
     <path d="M 124.832869 -25.82 
L 124.832869 -178.760433 
L 128.14117 -178.760433 
L 131.44947 -178.760433 
L 134.757771 -178.760433 
L 138.066071 -178.760433 
L 141.374371 -178.760433 
L 144.682672 -178.760433 
L 147.990972 -178.760433 
L 151.299272 -178.760433 
L 154.607573 -178.760433 
L 157.915873 -178.760433 
L 161.224174 -178.760433 
L 164.532474 -178.760433 
L 167.840774 -178.760433 
L 171.149075 -178.760433 
L 174.457375 -178.760433 
L 177.765676 -178.760433 
L 181.073976 -178.760433 
L 184.382276 -178.760433 
L 187.690577 -178.760433 
L 190.998877 -178.760433 
L 194.307178 -178.760433 
L 197.615478 -178.760433 
L 200.923778 -178.760433 
L 204.232079 -178.760433 
L 207.540379 -178.760433 
L 210.84868 -178.760433 
L 214.15698 -178.760433 
L 217.46528 -178.760433 
L 220.773581 -178.760433 
L 224.081881 -178.760433 
L 227.390182 -178.760433 
L 230.698482 -178.760433 
L 234.006782 -178.760433 
L 237.315083 -178.760433 
L 240.623383 -178.760433 
L 243.931684 -178.760433 
L 247.239984 -178.760433 
L 250.548284 -178.760433 
L 253.856585 -178.760433 
L 257.164885 -178.760433 
L 260.473186 -178.760433 
L 263.781486 -178.760433 
L 267.089786 -178.760433 
L 270.398087 -178.760433 
L 273.706387 -178.760433 
L 277.014688 -178.760433 
L 280.322988 -178.760433 
L 283.631288 -178.760433 
L 286.939589 -178.760433 
L 290.247889 -178.760433 
L 293.556189 -178.760433 
L 296.86449 -178.760433 
L 300.17279 -178.760433 
L 303.481091 -178.760433 
L 306.789391 -178.760433 
L 310.097691 -178.760433 
L 313.405992 -178.760433 
L 316.714292 -178.760433 
L 320.022593 -178.760433 
L 323.330893 -178.760433 
L 326.639193 -178.760433 
L 329.947494 -178.760433 
L 333.255794 -178.760433 
L 336.564095 -178.760433 
L 339.872395 -178.760433 
L 343.180695 -178.760433 
L 346.488996 -178.760433 
L 349.797296 -178.760433 
L 353.105597 -178.760433 
L 356.413897 -178.760433 
L 359.722197 -178.760433 
L 363.030498 -178.760433 
L 366.338798 -178.760433 
L 369.647099 -178.760433 
L 372.955399 -178.760433 
L 376.263699 -178.760433 
L 379.572 -178.760433 
L 382.8803 -178.760433 
L 386.188601 -178.760433 
L 389.496901 -178.760433 
L 392.805201 -178.760433 
L 396.113502 -178.760433 
L 399.421802 -178.760433 
L 402.730103 -178.760433 
L 406.038403 -178.760433 
L 409.346703 -178.760433 
L 412.655004 -178.760433 
L 415.963304 -178.760433 
L 419.271604 -178.760433 
L 422.579905 -178.760433 
L 425.888205 -178.760433 
L 429.196506 -178.760433 
L 429.196506 -328.22 
L 429.196506 -328.22 
L 425.888205 -324.099174 
L 422.579905 -322.714296 
L 419.271604 -310.747809 
L 415.963304 -300.300427 
L 412.655004 -290.826588 
L 409.346703 -288.665371 
L 406.038403 -283.073253 
L 402.730103 -277.948993 
L 399.421802 -275.937692 
L 396.113502 -273.832857 
L 392.805201 -258.694187 
L 389.496901 -250.396281 
L 386.188601 -249.296926 
L 382.8803 -243.87593 
L 379.572 -243.388428 
L 376.263699 -241.981585 
L 372.955399 -241.707096 
L 369.647099 -240.784798 
L 366.338798 -240.645979 
L 363.030498 -239.352791 
L 359.722197 -235.637148 
L 356.413897 -219.158399 
L 353.105597 -216.889954 
L 349.797296 -216.4135 
L 346.488996 -216.105615 
L 343.180695 -207.157911 
L 339.872395 -204.706448 
L 336.564095 -204.553034 
L 333.255794 -203.979804 
L 329.947494 -203.420298 
L 326.639193 -202.905215 
L 323.330893 -200.069823 
L 320.022593 -199.538474 
L 316.714292 -193.864417 
L 313.405992 -193.202166 
L 310.097691 -190.91427 
L 306.789391 -190.642475 
L 303.481091 -189.242038 
L 300.17279 -189.052625 
L 296.86449 -188.551223 
L 293.556189 -188.538132 
L 290.247889 -185.062595 
L 286.939589 -184.239638 
L 283.631288 -180.279417 
L 280.322988 -180.101791 
L 277.014688 -179.738882 
L 273.706387 -177.71231 
L 270.398087 -176.776142 
L 267.089786 -175.242378 
L 263.781486 -174.96526 
L 260.473186 -174.439115 
L 257.164885 -174.085551 
L 253.856585 -173.716051 
L 250.548284 -173.396498 
L 247.239984 -171.659374 
L 243.931684 -170.333668 
L 240.623383 -168.599085 
L 237.315083 -168.454264 
L 234.006782 -166.965469 
L 230.698482 -166.486947 
L 227.390182 -165.367165 
L 224.081881 -165.304503 
L 220.773581 -160.018978 
L 217.46528 -158.198192 
L 214.15698 -154.849364 
L 210.84868 -153.016955 
L 207.540379 -151.127548 
L 204.232079 -150.312731 
L 200.923778 -148.108435 
L 197.615478 -147.457369 
L 194.307178 -144.239763 
L 190.998877 -142.427102 
L 187.690577 -139.237189 
L 184.382276 -138.428558 
L 181.073976 -137.371149 
L 177.765676 -136.575857 
L 174.457375 -132.046632 
L 171.149075 -128.307484 
L 167.840774 -121.762232 
L 164.532474 -118.691998 
L 161.224174 -116.535203 
L 157.915873 -113.11446 
L 154.607573 -108.860994 
L 151.299272 -107.841386 
L 147.990972 -103.030747 
L 144.682672 -102.943816 
L 141.374371 -94.831392 
L 138.066071 -81.614291 
L 134.757771 -69.747665 
L 131.44947 -57.505636 
L 128.14117 -54.468827 
L 124.832869 -25.82 
z
" id="m86721b5d8c" style="stroke:#4a98c9;"/>
    </defs>
    <g clip-path="url(#peaf53d4941)">
     <use style="fill:#4a98c9;stroke:#4a98c9;" x="0" xlink:href="#m86721b5d8c" y="354.04"/>
    </g>
   </g>
   <g id="PolyCollection_2">
    <defs>
     <path d="M 124.832869 -25.82 
L 124.832869 -178.760433 
L 128.14117 -178.760433 
L 131.44947 -178.760433 
L 134.757771 -178.760433 
L 138.066071 -178.760433 
L 141.374371 -178.760433 
L 144.682672 -178.760433 
L 147.990972 -178.760433 
L 151.299272 -178.760433 
L 154.607573 -178.760433 
L 157.915873 -178.760433 
L 161.224174 -178.760433 
L 164.532474 -178.760433 
L 167.840774 -178.760433 
L 171.149075 -178.760433 
L 174.457375 -178.760433 
L 177.765676 -178.760433 
L 181.073976 -178.760433 
L 184.382276 -178.760433 
L 187.690577 -178.760433 
L 190.998877 -178.760433 
L 194.307178 -178.760433 
L 197.615478 -178.760433 
L 200.923778 -178.760433 
L 204.232079 -178.760433 
L 207.540379 -178.760433 
L 210.84868 -178.760433 
L 214.15698 -178.760433 
L 217.46528 -178.760433 
L 220.773581 -178.760433 
L 224.081881 -178.760433 
L 227.390182 -178.760433 
L 230.698482 -178.760433 
L 234.006782 -178.760433 
L 237.315083 -178.760433 
L 240.623383 -178.760433 
L 243.931684 -178.760433 
L 247.239984 -178.760433 
L 250.548284 -178.760433 
L 253.856585 -178.760433 
L 257.164885 -178.760433 
L 260.473186 -178.760433 
L 263.781486 -178.760433 
L 267.089786 -178.760433 
L 270.398087 -178.760433 
L 273.706387 -178.760433 
L 277.014688 -178.760433 
L 280.322988 -178.760433 
L 283.631288 -178.760433 
L 286.939589 -178.760433 
L 290.247889 -178.760433 
L 293.556189 -178.760433 
L 296.86449 -178.760433 
L 300.17279 -178.760433 
L 303.481091 -178.760433 
L 306.789391 -178.760433 
L 310.097691 -178.760433 
L 313.405992 -178.760433 
L 316.714292 -178.760433 
L 320.022593 -178.760433 
L 323.330893 -178.760433 
L 326.639193 -178.760433 
L 329.947494 -178.760433 
L 333.255794 -178.760433 
L 336.564095 -178.760433 
L 339.872395 -178.760433 
L 343.180695 -178.760433 
L 346.488996 -178.760433 
L 349.797296 -178.760433 
L 353.105597 -178.760433 
L 356.413897 -178.760433 
L 359.722197 -178.760433 
L 363.030498 -178.760433 
L 366.338798 -178.760433 
L 369.647099 -178.760433 
L 372.955399 -178.760433 
L 376.263699 -178.760433 
L 379.572 -178.760433 
L 382.8803 -178.760433 
L 386.188601 -178.760433 
L 389.496901 -178.760433 
L 392.805201 -178.760433 
L 396.113502 -178.760433 
L 399.421802 -178.760433 
L 402.730103 -178.760433 
L 406.038403 -178.760433 
L 409.346703 -178.760433 
L 412.655004 -178.760433 
L 415.963304 -178.760433 
L 419.271604 -178.760433 
L 422.579905 -178.760433 
L 425.888205 -178.760433 
L 429.196506 -178.760433 
L 429.196506 -328.22 
L 429.196506 -328.22 
L 425.888205 -324.099174 
L 422.579905 -322.714296 
L 419.271604 -310.747809 
L 415.963304 -300.300427 
L 412.655004 -290.826588 
L 409.346703 -288.665371 
L 406.038403 -283.073253 
L 402.730103 -277.948993 
L 399.421802 -275.937692 
L 396.113502 -273.832857 
L 392.805201 -258.694187 
L 389.496901 -250.396281 
L 386.188601 -249.296926 
L 382.8803 -243.87593 
L 379.572 -243.388428 
L 376.263699 -241.981585 
L 372.955399 -241.707096 
L 369.647099 -240.784798 
L 366.338798 -240.645979 
L 363.030498 -239.352791 
L 359.722197 -235.637148 
L 356.413897 -219.158399 
L 353.105597 -216.889954 
L 349.797296 -216.4135 
L 346.488996 -216.105615 
L 343.180695 -207.157911 
L 339.872395 -204.706448 
L 336.564095 -204.553034 
L 333.255794 -203.979804 
L 329.947494 -203.420298 
L 326.639193 -202.905215 
L 323.330893 -200.069823 
L 320.022593 -199.538474 
L 316.714292 -193.864417 
L 313.405992 -193.202166 
L 310.097691 -190.91427 
L 306.789391 -190.642475 
L 303.481091 -189.242038 
L 300.17279 -189.052625 
L 296.86449 -188.551223 
L 293.556189 -188.538132 
L 290.247889 -185.062595 
L 286.939589 -184.239638 
L 283.631288 -180.279417 
L 280.322988 -180.101791 
L 277.014688 -179.738882 
L 273.706387 -177.71231 
L 270.398087 -176.776142 
L 267.089786 -175.242378 
L 263.781486 -174.96526 
L 260.473186 -174.439115 
L 257.164885 -174.085551 
L 253.856585 -173.716051 
L 250.548284 -173.396498 
L 247.239984 -171.659374 
L 243.931684 -170.333668 
L 240.623383 -168.599085 
L 237.315083 -168.454264 
L 234.006782 -166.965469 
L 230.698482 -166.486947 
L 227.390182 -165.367165 
L 224.081881 -165.304503 
L 220.773581 -160.018978 
L 217.46528 -158.198192 
L 214.15698 -154.849364 
L 210.84868 -153.016955 
L 207.540379 -151.127548 
L 204.232079 -150.312731 
L 200.923778 -148.108435 
L 197.615478 -147.457369 
L 194.307178 -144.239763 
L 190.998877 -142.427102 
L 187.690577 -139.237189 
L 184.382276 -138.428558 
L 181.073976 -137.371149 
L 177.765676 -136.575857 
L 174.457375 -132.046632 
L 171.149075 -128.307484 
L 167.840774 -121.762232 
L 164.532474 -118.691998 
L 161.224174 -116.535203 
L 157.915873 -113.11446 
L 154.607573 -108.860994 
L 151.299272 -107.841386 
L 147.990972 -103.030747 
L 144.682672 -102.943816 
L 141.374371 -94.831392 
L 138.066071 -81.614291 
L 134.757771 -69.747665 
L 131.44947 -57.505636 
L 128.14117 -54.468827 
L 124.832869 -25.82 
z
" id="m0773710952" style="stroke:#f14432;stroke-opacity:0.8;"/>
    </defs>
    <g clip-path="url(#peaf53d4941)">
     <use style="fill:#f14432;fill-opacity:0.8;stroke:#f14432;stroke-opacity:0.8;" x="0" xlink:href="#m0773710952" y="354.04"/>
    </g>
   </g>
   <g id="matplotlib.axis_1"/>
   <g id="matplotlib.axis_2">
    <g id="ytick_1">
     <g id="line2d_1">
      <defs>
       <path d="M 0 0 
L -3.5 0 
" id="m570ada9086" style="stroke:#000000;stroke-width:0.8;"/>
      </defs>
      <g>
       <use style="stroke:#000000;stroke-width:0.8;" x="109.614687" xlink:href="#m570ada9086" y="316.897004"/>
      </g>
     </g>
     <g id="text_1">
      <!-- −0.0002 -->
      <defs>
       <path d="M 10.59375 35.5 
L 73.1875 35.5 
L 73.1875 27.203125 
L 10.59375 27.203125 
z
" id="DejaVuSans-2212"/>
       <path d="M 31.78125 66.40625 
Q 24.171875 66.40625 20.328125 58.90625 
Q 16.5 51.421875 16.5 36.375 
Q 16.5 21.390625 20.328125 13.890625 
Q 24.171875 6.390625 31.78125 6.390625 
Q 39.453125 6.390625 43.28125 13.890625 
Q 47.125 21.390625 47.125 36.375 
Q 47.125 51.421875 43.28125 58.90625 
Q 39.453125 66.40625 31.78125 66.40625 
z
M 31.78125 74.21875 
Q 44.046875 74.21875 50.515625 64.515625 
Q 56.984375 54.828125 56.984375 36.375 
Q 56.984375 17.96875 50.515625 8.265625 
Q 44.046875 -1.421875 31.78125 -1.421875 
Q 19.53125 -1.421875 13.0625 8.265625 
Q 6.59375 17.96875 6.59375 36.375 
Q 6.59375 54.828125 13.0625 64.515625 
Q 19.53125 74.21875 31.78125 74.21875 
z
" id="DejaVuSans-30"/>
       <path d="M 10.6875 12.40625 
L 21 12.40625 
L 21 0 
L 10.6875 0 
z
" id="DejaVuSans-2e"/>
       <path d="M 19.1875 8.296875 
L 53.609375 8.296875 
L 53.609375 0 
L 7.328125 0 
L 7.328125 8.296875 
Q 12.9375 14.109375 22.625 23.890625 
Q 32.328125 33.6875 34.8125 36.53125 
Q 39.546875 41.84375 41.421875 45.53125 
Q 43.3125 49.21875 43.3125 52.78125 
Q 43.3125 58.59375 39.234375 62.25 
Q 35.15625 65.921875 28.609375 65.921875 
Q 23.96875 65.921875 18.8125 64.3125 
Q 13.671875 62.703125 7.8125 59.421875 
L 7.8125 69.390625 
Q 13.765625 71.78125 18.9375 73 
Q 24.125 74.21875 28.421875 74.21875 
Q 39.75 74.21875 46.484375 68.546875 
Q 53.21875 62.890625 53.21875 53.421875 
Q 53.21875 48.921875 51.53125 44.890625 
Q 49.859375 40.875 45.40625 35.40625 
Q 44.1875 33.984375 37.640625 27.21875 
Q 31.109375 20.453125 19.1875 8.296875 
z
" id="DejaVuSans-32"/>
      </defs>
      <g transform="translate(7.2 325.255286)scale(0.22 -0.22)">
       <use xlink:href="#DejaVuSans-2212"/>
       <use x="83.789062" xlink:href="#DejaVuSans-30"/>
       <use x="147.412109" xlink:href="#DejaVuSans-2e"/>
       <use x="179.199219" xlink:href="#DejaVuSans-30"/>
       <use x="242.822266" xlink:href="#DejaVuSans-30"/>
       <use x="306.445312" xlink:href="#DejaVuSans-30"/>
       <use x="370.068359" xlink:href="#DejaVuSans-32"/>
      </g>
     </g>
    </g>
    <g id="ytick_2">
     <g id="line2d_2">
      <g>
       <use style="stroke:#000000;stroke-width:0.8;" x="109.614687" xlink:href="#m570ada9086" y="246.088286"/>
      </g>
     </g>
     <g id="text_2">
      <!-- −0.0001 -->
      <defs>
       <path d="M 12.40625 8.296875 
L 28.515625 8.296875 
L 28.515625 63.921875 
L 10.984375 60.40625 
L 10.984375 69.390625 
L 28.421875 72.90625 
L 38.28125 72.90625 
L 38.28125 8.296875 
L 54.390625 8.296875 
L 54.390625 0 
L 12.40625 0 
z
" id="DejaVuSans-31"/>
      </defs>
      <g transform="translate(7.2 254.446567)scale(0.22 -0.22)">
       <use xlink:href="#DejaVuSans-2212"/>
       <use x="83.789062" xlink:href="#DejaVuSans-30"/>
       <use x="147.412109" xlink:href="#DejaVuSans-2e"/>
       <use x="179.199219" xlink:href="#DejaVuSans-30"/>
       <use x="242.822266" xlink:href="#DejaVuSans-30"/>
       <use x="306.445312" xlink:href="#DejaVuSans-30"/>
       <use x="370.068359" xlink:href="#DejaVuSans-31"/>
      </g>
     </g>
    </g>
    <g id="ytick_3">
     <g id="line2d_3">
      <g>
       <use style="stroke:#000000;stroke-width:0.8;" x="109.614687" xlink:href="#m570ada9086" y="175.279567"/>
      </g>
     </g>
     <g id="text_3">
      <!-- 0.0000 -->
      <g transform="translate(25.635312 183.637848)scale(0.22 -0.22)">
       <use xlink:href="#DejaVuSans-30"/>
       <use x="63.623047" xlink:href="#DejaVuSans-2e"/>
       <use x="95.410156" xlink:href="#DejaVuSans-30"/>
       <use x="159.033203" xlink:href="#DejaVuSans-30"/>
       <use x="222.65625" xlink:href="#DejaVuSans-30"/>
       <use x="286.279297" xlink:href="#DejaVuSans-30"/>
      </g>
     </g>
    </g>
    <g id="ytick_4">
     <g id="line2d_4">
      <g>
       <use style="stroke:#000000;stroke-width:0.8;" x="109.614687" xlink:href="#m570ada9086" y="104.470848"/>
      </g>
     </g>
     <g id="text_4">
      <!-- 0.0001 -->
      <g transform="translate(25.635312 112.829129)scale(0.22 -0.22)">
       <use xlink:href="#DejaVuSans-30"/>
       <use x="63.623047" xlink:href="#DejaVuSans-2e"/>
       <use x="95.410156" xlink:href="#DejaVuSans-30"/>
       <use x="159.033203" xlink:href="#DejaVuSans-30"/>
       <use x="222.65625" xlink:href="#DejaVuSans-30"/>
       <use x="286.279297" xlink:href="#DejaVuSans-31"/>
      </g>
     </g>
    </g>
    <g id="ytick_5">
     <g id="line2d_5">
      <g>
       <use style="stroke:#000000;stroke-width:0.8;" x="109.614687" xlink:href="#m570ada9086" y="33.662129"/>
      </g>
     </g>
     <g id="text_5">
      <!-- 0.0002 -->
      <g transform="translate(25.635312 42.02041)scale(0.22 -0.22)">
       <use xlink:href="#DejaVuSans-30"/>
       <use x="63.623047" xlink:href="#DejaVuSans-2e"/>
       <use x="95.410156" xlink:href="#DejaVuSans-30"/>
       <use x="159.033203" xlink:href="#DejaVuSans-30"/>
       <use x="222.65625" xlink:href="#DejaVuSans-30"/>
       <use x="286.279297" xlink:href="#DejaVuSans-32"/>
      </g>
     </g>
    </g>
   </g>
   <g id="patch_3">
    <path d="M 109.614687 343.34 
L 109.614687 10.7 
" style="fill:none;stroke:#000000;stroke-linecap:square;stroke-linejoin:miter;stroke-width:0.8;"/>
   </g>
   <g id="patch_4">
    <path d="M 444.414688 343.34 
L 444.414688 10.7 
" style="fill:none;stroke:#000000;stroke-linecap:square;stroke-linejoin:miter;stroke-width:0.8;"/>
   </g>
   <g id="patch_5">
    <path d="M 109.614687 343.34 
L 444.414688 343.34 
" style="fill:none;stroke:#000000;stroke-linecap:square;stroke-linejoin:miter;stroke-width:0.8;"/>
   </g>
   <g id="patch_6">
    <path d="M 109.614687 10.7 
L 444.414688 10.7 
" style="fill:none;stroke:#000000;stroke-linecap:square;stroke-linejoin:miter;stroke-width:0.8;"/>
   </g>
  </g>
 </g>
 <defs>
  <clipPath id="peaf53d4941">
   <rect height="332.64" width="334.8" x="109.614687" y="10.7"/>
  </clipPath>
 </defs>
</svg>
