<?xml version="1.0" encoding="utf-8" standalone="no"?>
<!DOCTYPE svg PUBLIC "-//W3C//DTD SVG 1.1//EN"
  "http://www.w3.org/Graphics/SVG/1.1/DTD/svg11.dtd">
<!-- Created with matplotlib (http://matplotlib.org/) -->
<svg height="355pt" version="1.1" viewBox="0 0 392 355" width="392pt" xmlns="http://www.w3.org/2000/svg" xmlns:xlink="http://www.w3.org/1999/xlink">
 <defs>
  <style type="text/css">
*{stroke-linecap:butt;stroke-linejoin:round;}
  </style>
 </defs>
 <g id="figure_1">
  <g id="patch_1">
   <path d="M -0 355.657145 
L 392.132812 355.657145 
L 392.132812 0 
L -0 0 
z
" style="fill:#ffffff;"/>
  </g>
  <g id="axes_1">
   <g id="patch_2">
    <path d="M 46.632812 343.34 
L 381.432813 343.34 
L 381.432813 10.7 
L 46.632812 10.7 
z
" style="fill:#ffffff;"/>
   </g>
   <g id="PolyCollection_1">
    <defs>
     <path d="M 61.850994 -72.055917 
L 61.850994 -148.587192 
L 65.159295 -148.587192 
L 68.467595 -148.587192 
L 71.775896 -148.587192 
L 75.084196 -148.587192 
L 78.392496 -148.587192 
L 81.700797 -148.587192 
L 85.009097 -148.587192 
L 88.317397 -148.587192 
L 91.625698 -148.587192 
L 94.933998 -148.587192 
L 98.242299 -148.587192 
L 101.550599 -148.587192 
L 104.858899 -148.587192 
L 108.1672 -148.587192 
L 111.4755 -148.587192 
L 114.783801 -148.587192 
L 118.092101 -148.587192 
L 121.400401 -148.587192 
L 124.708702 -148.587192 
L 128.017002 -148.587192 
L 131.325303 -148.587192 
L 134.633603 -148.587192 
L 137.941903 -148.587192 
L 141.250204 -148.587192 
L 144.558504 -148.587192 
L 147.866805 -148.587192 
L 151.175105 -148.587192 
L 154.483405 -148.587192 
L 157.791706 -148.587192 
L 161.100006 -148.587192 
L 164.408307 -148.587192 
L 167.716607 -148.587192 
L 171.024907 -148.587192 
L 174.333208 -148.587192 
L 177.641508 -148.587192 
L 180.949809 -148.587192 
L 184.258109 -148.587192 
L 187.566409 -148.587192 
L 190.87471 -148.587192 
L 194.18301 -148.587192 
L 197.491311 -148.587192 
L 200.799611 -148.587192 
L 204.107911 -148.587192 
L 207.416212 -148.587192 
L 210.724512 -148.587192 
L 214.032813 -148.587192 
L 217.341113 -148.587192 
L 220.649413 -148.587192 
L 223.957714 -148.587192 
L 227.266014 -148.587192 
L 230.574314 -148.587192 
L 233.882615 -148.587192 
L 237.190915 -148.587192 
L 240.499216 -148.587192 
L 243.807516 -148.587192 
L 247.115816 -148.587192 
L 250.424117 -148.587192 
L 253.732417 -148.587192 
L 257.040718 -148.587192 
L 260.349018 -148.587192 
L 263.657318 -148.587192 
L 266.965619 -148.587192 
L 270.273919 -148.587192 
L 273.58222 -148.587192 
L 276.89052 -148.587192 
L 280.19882 -148.587192 
L 283.507121 -148.587192 
L 286.815421 -148.587192 
L 290.123722 -148.587192 
L 293.432022 -148.587192 
L 296.740322 -148.587192 
L 300.048623 -148.587192 
L 303.356923 -148.587192 
L 306.665224 -148.587192 
L 309.973524 -148.587192 
L 313.281824 -148.587192 
L 316.590125 -148.587192 
L 319.898425 -148.587192 
L 323.206726 -148.587192 
L 326.515026 -148.587192 
L 329.823326 -148.587192 
L 333.131627 -148.587192 
L 336.439927 -148.587192 
L 339.748228 -148.587192 
L 343.056528 -148.587192 
L 346.364828 -148.587192 
L 349.673129 -148.587192 
L 352.981429 -148.587192 
L 356.289729 -148.587192 
L 359.59803 -148.587192 
L 362.90633 -148.587192 
L 366.214631 -148.587192 
L 366.214631 -238.024155 
L 366.214631 -238.024155 
L 362.90633 -233.746449 
L 359.59803 -227.580633 
L 356.289729 -208.355633 
L 352.981429 -193.342999 
L 349.673129 -191.3253 
L 346.364828 -184.073037 
L 343.056528 -180.504671 
L 339.748228 -176.612673 
L 336.439927 -169.326334 
L 333.131627 -167.131898 
L 329.823326 -166.230727 
L 326.515026 -163.892727 
L 323.206726 -163.844061 
L 319.898425 -163.344452 
L 316.590125 -162.15661 
L 313.281824 -162.071462 
L 309.973524 -161.110744 
L 306.665224 -160.065271 
L 303.356923 -158.09922 
L 300.048623 -156.826113 
L 296.740322 -156.433979 
L 293.432022 -154.695473 
L 290.123722 -152.544024 
L 286.815421 -152.179739 
L 283.507121 -151.347731 
L 280.19882 -150.934632 
L 276.89052 -150.495455 
L 273.58222 -150.434475 
L 270.273919 -150.295087 
L 266.965619 -150.294264 
L 263.657318 -150.202083 
L 260.349018 -150.016504 
L 257.040718 -149.849254 
L 253.732417 -149.821837 
L 250.424117 -149.79212 
L 247.115816 -149.536057 
L 243.807516 -149.358723 
L 240.499216 -149.244757 
L 237.190915 -149.115173 
L 233.882615 -148.923161 
L 230.574314 -148.796143 
L 227.266014 -148.754134 
L 223.957714 -148.704607 
L 220.649413 -148.696582 
L 217.341113 -148.689699 
L 214.032813 -148.663065 
L 210.724512 -148.654175 
L 207.416212 -148.653865 
L 204.107911 -148.617914 
L 200.799611 -148.610229 
L 197.491311 -148.588095 
L 194.18301 -148.546181 
L 190.87471 -148.507711 
L 187.566409 -148.504355 
L 184.258109 -148.496627 
L 180.949809 -148.484923 
L 177.641508 -148.426472 
L 174.333208 -148.368028 
L 171.024907 -148.336344 
L 167.716607 -148.272044 
L 164.408307 -148.229961 
L 161.100006 -148.189992 
L 157.791706 -148.151833 
L 154.483405 -148.028623 
L 151.175105 -147.885372 
L 147.866805 -147.756235 
L 144.558504 -147.661888 
L 141.250204 -147.616944 
L 137.941903 -147.579548 
L 134.633603 -147.23402 
L 131.325303 -147.08328 
L 128.017002 -146.953961 
L 124.708702 -146.329783 
L 121.400401 -146.284829 
L 118.092101 -142.143992 
L 114.783801 -139.948104 
L 111.4755 -138.356534 
L 108.1672 -134.040981 
L 104.858899 -131.841316 
L 101.550599 -128.843529 
L 98.242299 -126.794908 
L 94.933998 -126.705699 
L 91.625698 -125.574184 
L 88.317397 -123.805205 
L 85.009097 -121.496813 
L 81.700797 -121.300205 
L 78.392496 -121.0198 
L 75.084196 -119.019375 
L 71.775896 -87.769504 
L 68.467595 -87.764996 
L 65.159295 -86.133971 
L 61.850994 -72.055917 
z
" id="m551c824f78" style="stroke:#4a98c9;"/>
    </defs>
    <g clip-path="url(#p159c04c838)">
     <use style="fill:#4a98c9;stroke:#4a98c9;" x="0" xlink:href="#m551c824f78" y="355.657145"/>
    </g>
   </g>
   <g id="PolyCollection_2">
    <defs>
     <path d="M 61.850994 -27.437145 
L 61.850994 -148.587192 
L 65.159295 -148.587192 
L 68.467595 -148.587192 
L 71.775896 -148.587192 
L 75.084196 -148.587192 
L 78.392496 -148.587192 
L 81.700797 -148.587192 
L 85.009097 -148.587192 
L 88.317397 -148.587192 
L 91.625698 -148.587192 
L 94.933998 -148.587192 
L 98.242299 -148.587192 
L 101.550599 -148.587192 
L 104.858899 -148.587192 
L 108.1672 -148.587192 
L 111.4755 -148.587192 
L 114.783801 -148.587192 
L 118.092101 -148.587192 
L 121.400401 -148.587192 
L 124.708702 -148.587192 
L 128.017002 -148.587192 
L 131.325303 -148.587192 
L 134.633603 -148.587192 
L 137.941903 -148.587192 
L 141.250204 -148.587192 
L 144.558504 -148.587192 
L 147.866805 -148.587192 
L 151.175105 -148.587192 
L 154.483405 -148.587192 
L 157.791706 -148.587192 
L 161.100006 -148.587192 
L 164.408307 -148.587192 
L 167.716607 -148.587192 
L 171.024907 -148.587192 
L 174.333208 -148.587192 
L 177.641508 -148.587192 
L 180.949809 -148.587192 
L 184.258109 -148.587192 
L 187.566409 -148.587192 
L 190.87471 -148.587192 
L 194.18301 -148.587192 
L 197.491311 -148.587192 
L 200.799611 -148.587192 
L 204.107911 -148.587192 
L 207.416212 -148.587192 
L 210.724512 -148.587192 
L 214.032813 -148.587192 
L 217.341113 -148.587192 
L 220.649413 -148.587192 
L 223.957714 -148.587192 
L 227.266014 -148.587192 
L 230.574314 -148.587192 
L 233.882615 -148.587192 
L 237.190915 -148.587192 
L 240.499216 -148.587192 
L 243.807516 -148.587192 
L 247.115816 -148.587192 
L 250.424117 -148.587192 
L 253.732417 -148.587192 
L 257.040718 -148.587192 
L 260.349018 -148.587192 
L 263.657318 -148.587192 
L 266.965619 -148.587192 
L 270.273919 -148.587192 
L 273.58222 -148.587192 
L 276.89052 -148.587192 
L 280.19882 -148.587192 
L 283.507121 -148.587192 
L 286.815421 -148.587192 
L 290.123722 -148.587192 
L 293.432022 -148.587192 
L 296.740322 -148.587192 
L 300.048623 -148.587192 
L 303.356923 -148.587192 
L 306.665224 -148.587192 
L 309.973524 -148.587192 
L 313.281824 -148.587192 
L 316.590125 -148.587192 
L 319.898425 -148.587192 
L 323.206726 -148.587192 
L 326.515026 -148.587192 
L 329.823326 -148.587192 
L 333.131627 -148.587192 
L 336.439927 -148.587192 
L 339.748228 -148.587192 
L 343.056528 -148.587192 
L 346.364828 -148.587192 
L 349.673129 -148.587192 
L 352.981429 -148.587192 
L 356.289729 -148.587192 
L 359.59803 -148.587192 
L 362.90633 -148.587192 
L 366.214631 -148.587192 
L 366.214631 -329.837145 
L 366.214631 -329.837145 
L 362.90633 -329.752059 
L 359.59803 -290.993214 
L 356.289729 -276.05842 
L 352.981429 -260.659337 
L 349.673129 -251.102612 
L 346.364828 -250.971044 
L 343.056528 -247.574717 
L 339.748228 -243.020664 
L 336.439927 -242.325084 
L 333.131627 -230.942066 
L 329.823326 -216.011315 
L 326.515026 -214.088114 
L 323.206726 -204.022227 
L 319.898425 -203.662986 
L 316.590125 -196.727881 
L 313.281824 -192.253948 
L 309.973524 -190.237494 
L 306.665224 -180.339865 
L 303.356923 -177.245152 
L 300.048623 -176.522799 
L 296.740322 -169.698781 
L 293.432022 -162.479707 
L 290.123722 -161.458435 
L 286.815421 -160.82961 
L 283.507121 -158.485834 
L 280.19882 -153.249142 
L 276.89052 -152.928057 
L 273.58222 -152.258478 
L 270.273919 -151.881192 
L 266.965619 -151.756097 
L 263.657318 -151.740396 
L 260.349018 -151.721224 
L 257.040718 -151.401327 
L 253.732417 -150.618817 
L 250.424117 -150.521288 
L 247.115816 -150.352694 
L 243.807516 -150.20487 
L 240.499216 -150.05666 
L 237.190915 -149.972408 
L 233.882615 -149.745186 
L 230.574314 -149.705832 
L 227.266014 -149.578741 
L 223.957714 -149.496084 
L 220.649413 -149.255984 
L 217.341113 -149.010651 
L 214.032813 -148.885204 
L 210.724512 -148.826902 
L 207.416212 -148.745426 
L 204.107911 -148.650501 
L 200.799611 -148.638815 
L 197.491311 -148.636535 
L 194.18301 -148.481344 
L 190.87471 -148.463466 
L 187.566409 -148.400657 
L 184.258109 -148.372046 
L 180.949809 -148.297059 
L 177.641508 -148.276979 
L 174.333208 -148.079647 
L 171.024907 -148.040454 
L 167.716607 -148.017307 
L 164.408307 -147.983033 
L 161.100006 -147.936008 
L 157.791706 -147.882137 
L 154.483405 -147.847497 
L 151.175105 -147.6714 
L 147.866805 -147.648063 
L 144.558504 -147.554188 
L 141.250204 -147.258772 
L 137.941903 -146.816485 
L 134.633603 -143.637031 
L 131.325303 -141.424633 
L 128.017002 -138.76745 
L 124.708702 -129.900935 
L 121.400401 -129.437537 
L 118.092101 -123.927086 
L 114.783801 -123.802196 
L 111.4755 -122.18678 
L 108.1672 -119.031301 
L 104.858899 -116.920225 
L 101.550599 -116.451141 
L 98.242299 -114.029108 
L 94.933998 -103.400928 
L 91.625698 -100.467295 
L 88.317397 -86.366957 
L 85.009097 -70.721235 
L 81.700797 -68.053929 
L 78.392496 -53.872728 
L 75.084196 -51.636667 
L 71.775896 -47.192838 
L 68.467595 -41.629639 
L 65.159295 -34.28027 
L 61.850994 -27.437145 
z
" id="mdf00ec3441" style="stroke:#f14432;stroke-opacity:0.8;"/>
    </defs>
    <g clip-path="url(#p159c04c838)">
     <use style="fill:#f14432;fill-opacity:0.8;stroke:#f14432;stroke-opacity:0.8;" x="0" xlink:href="#mdf00ec3441" y="355.657145"/>
    </g>
   </g>
   <g id="matplotlib.axis_1"/>
   <g id="matplotlib.axis_2">
    <g id="ytick_1">
     <g id="line2d_1">
      <defs>
       <path d="M 0 0 
L -3.5 0 
" id="m3350d5f753" style="stroke:#000000;stroke-width:0.8;"/>
      </defs>
      <g>
       <use style="stroke:#000000;stroke-width:0.8;" x="46.632812" xlink:href="#m3350d5f753" y="335.523551"/>
      </g>
     </g>
     <g id="text_1">
      <!-- −6 -->
      <defs>
       <path d="M 10.59375 35.5 
L 73.1875 35.5 
L 73.1875 27.203125 
L 10.59375 27.203125 
z
" id="DejaVuSans-2212"/>
       <path d="M 33.015625 40.375 
Q 26.375 40.375 22.484375 35.828125 
Q 18.609375 31.296875 18.609375 23.390625 
Q 18.609375 15.53125 22.484375 10.953125 
Q 26.375 6.390625 33.015625 6.390625 
Q 39.65625 6.390625 43.53125 10.953125 
Q 47.40625 15.53125 47.40625 23.390625 
Q 47.40625 31.296875 43.53125 35.828125 
Q 39.65625 40.375 33.015625 40.375 
z
M 52.59375 71.296875 
L 52.59375 62.3125 
Q 48.875 64.0625 45.09375 64.984375 
Q 41.3125 65.921875 37.59375 65.921875 
Q 27.828125 65.921875 22.671875 59.328125 
Q 17.53125 52.734375 16.796875 39.40625 
Q 19.671875 43.65625 24.015625 45.921875 
Q 28.375 48.1875 33.59375 48.1875 
Q 44.578125 48.1875 50.953125 41.515625 
Q 57.328125 34.859375 57.328125 23.390625 
Q 57.328125 12.15625 50.6875 5.359375 
Q 44.046875 -1.421875 33.015625 -1.421875 
Q 20.359375 -1.421875 13.671875 8.265625 
Q 6.984375 17.96875 6.984375 36.375 
Q 6.984375 53.65625 15.1875 63.9375 
Q 23.390625 74.21875 37.203125 74.21875 
Q 40.921875 74.21875 44.703125 73.484375 
Q 48.484375 72.75 52.59375 71.296875 
z
" id="DejaVuSans-36"/>
      </defs>
      <g transform="translate(7.2 343.881832)scale(0.22 -0.22)">
       <use xlink:href="#DejaVuSans-2212"/>
       <use x="83.789062" xlink:href="#DejaVuSans-36"/>
      </g>
     </g>
    </g>
    <g id="ytick_2">
     <g id="line2d_2">
      <g>
       <use style="stroke:#000000;stroke-width:0.8;" x="46.632812" xlink:href="#m3350d5f753" y="292.705685"/>
      </g>
     </g>
     <g id="text_2">
      <!-- −4 -->
      <defs>
       <path d="M 37.796875 64.3125 
L 12.890625 25.390625 
L 37.796875 25.390625 
z
M 35.203125 72.90625 
L 47.609375 72.90625 
L 47.609375 25.390625 
L 58.015625 25.390625 
L 58.015625 17.1875 
L 47.609375 17.1875 
L 47.609375 0 
L 37.796875 0 
L 37.796875 17.1875 
L 4.890625 17.1875 
L 4.890625 26.703125 
z
" id="DejaVuSans-34"/>
      </defs>
      <g transform="translate(7.2 301.063966)scale(0.22 -0.22)">
       <use xlink:href="#DejaVuSans-2212"/>
       <use x="83.789062" xlink:href="#DejaVuSans-34"/>
      </g>
     </g>
    </g>
    <g id="ytick_3">
     <g id="line2d_3">
      <g>
       <use style="stroke:#000000;stroke-width:0.8;" x="46.632812" xlink:href="#m3350d5f753" y="249.887819"/>
      </g>
     </g>
     <g id="text_3">
      <!-- −2 -->
      <defs>
       <path d="M 19.1875 8.296875 
L 53.609375 8.296875 
L 53.609375 0 
L 7.328125 0 
L 7.328125 8.296875 
Q 12.9375 14.109375 22.625 23.890625 
Q 32.328125 33.6875 34.8125 36.53125 
Q 39.546875 41.84375 41.421875 45.53125 
Q 43.3125 49.21875 43.3125 52.78125 
Q 43.3125 58.59375 39.234375 62.25 
Q 35.15625 65.921875 28.609375 65.921875 
Q 23.96875 65.921875 18.8125 64.3125 
Q 13.671875 62.703125 7.8125 59.421875 
L 7.8125 69.390625 
Q 13.765625 71.78125 18.9375 73 
Q 24.125 74.21875 28.421875 74.21875 
Q 39.75 74.21875 46.484375 68.546875 
Q 53.21875 62.890625 53.21875 53.421875 
Q 53.21875 48.921875 51.53125 44.890625 
Q 49.859375 40.875 45.40625 35.40625 
Q 44.1875 33.984375 37.640625 27.21875 
Q 31.109375 20.453125 19.1875 8.296875 
z
" id="DejaVuSans-32"/>
      </defs>
      <g transform="translate(7.2 258.2461)scale(0.22 -0.22)">
       <use xlink:href="#DejaVuSans-2212"/>
       <use x="83.789062" xlink:href="#DejaVuSans-32"/>
      </g>
     </g>
    </g>
    <g id="ytick_4">
     <g id="line2d_4">
      <g>
       <use style="stroke:#000000;stroke-width:0.8;" x="46.632812" xlink:href="#m3350d5f753" y="207.069953"/>
      </g>
     </g>
     <g id="text_4">
      <!-- 0 -->
      <defs>
       <path d="M 31.78125 66.40625 
Q 24.171875 66.40625 20.328125 58.90625 
Q 16.5 51.421875 16.5 36.375 
Q 16.5 21.390625 20.328125 13.890625 
Q 24.171875 6.390625 31.78125 6.390625 
Q 39.453125 6.390625 43.28125 13.890625 
Q 47.125 21.390625 47.125 36.375 
Q 47.125 51.421875 43.28125 58.90625 
Q 39.453125 66.40625 31.78125 66.40625 
z
M 31.78125 74.21875 
Q 44.046875 74.21875 50.515625 64.515625 
Q 56.984375 54.828125 56.984375 36.375 
Q 56.984375 17.96875 50.515625 8.265625 
Q 44.046875 -1.421875 31.78125 -1.421875 
Q 19.53125 -1.421875 13.0625 8.265625 
Q 6.59375 17.96875 6.59375 36.375 
Q 6.59375 54.828125 13.0625 64.515625 
Q 19.53125 74.21875 31.78125 74.21875 
z
" id="DejaVuSans-30"/>
      </defs>
      <g transform="translate(25.635312 215.428234)scale(0.22 -0.22)">
       <use xlink:href="#DejaVuSans-30"/>
      </g>
     </g>
    </g>
    <g id="ytick_5">
     <g id="line2d_5">
      <g>
       <use style="stroke:#000000;stroke-width:0.8;" x="46.632812" xlink:href="#m3350d5f753" y="164.252087"/>
      </g>
     </g>
     <g id="text_5">
      <!-- 2 -->
      <g transform="translate(25.635312 172.610368)scale(0.22 -0.22)">
       <use xlink:href="#DejaVuSans-32"/>
      </g>
     </g>
    </g>
    <g id="ytick_6">
     <g id="line2d_6">
      <g>
       <use style="stroke:#000000;stroke-width:0.8;" x="46.632812" xlink:href="#m3350d5f753" y="121.434221"/>
      </g>
     </g>
     <g id="text_6">
      <!-- 4 -->
      <g transform="translate(25.635312 129.792502)scale(0.22 -0.22)">
       <use xlink:href="#DejaVuSans-34"/>
      </g>
     </g>
    </g>
    <g id="ytick_7">
     <g id="line2d_7">
      <g>
       <use style="stroke:#000000;stroke-width:0.8;" x="46.632812" xlink:href="#m3350d5f753" y="78.616355"/>
      </g>
     </g>
     <g id="text_7">
      <!-- 6 -->
      <g transform="translate(25.635312 86.974636)scale(0.22 -0.22)">
       <use xlink:href="#DejaVuSans-36"/>
      </g>
     </g>
    </g>
    <g id="ytick_8">
     <g id="line2d_8">
      <g>
       <use style="stroke:#000000;stroke-width:0.8;" x="46.632812" xlink:href="#m3350d5f753" y="35.798489"/>
      </g>
     </g>
     <g id="text_8">
      <!-- 8 -->
      <defs>
       <path d="M 31.78125 34.625 
Q 24.75 34.625 20.71875 30.859375 
Q 16.703125 27.09375 16.703125 20.515625 
Q 16.703125 13.921875 20.71875 10.15625 
Q 24.75 6.390625 31.78125 6.390625 
Q 38.8125 6.390625 42.859375 10.171875 
Q 46.921875 13.96875 46.921875 20.515625 
Q 46.921875 27.09375 42.890625 30.859375 
Q 38.875 34.625 31.78125 34.625 
z
M 21.921875 38.8125 
Q 15.578125 40.375 12.03125 44.71875 
Q 8.5 49.078125 8.5 55.328125 
Q 8.5 64.0625 14.71875 69.140625 
Q 20.953125 74.21875 31.78125 74.21875 
Q 42.671875 74.21875 48.875 69.140625 
Q 55.078125 64.0625 55.078125 55.328125 
Q 55.078125 49.078125 51.53125 44.71875 
Q 48 40.375 41.703125 38.8125 
Q 48.828125 37.15625 52.796875 32.3125 
Q 56.78125 27.484375 56.78125 20.515625 
Q 56.78125 9.90625 50.3125 4.234375 
Q 43.84375 -1.421875 31.78125 -1.421875 
Q 19.734375 -1.421875 13.25 4.234375 
Q 6.78125 9.90625 6.78125 20.515625 
Q 6.78125 27.484375 10.78125 32.3125 
Q 14.796875 37.15625 21.921875 38.8125 
z
M 18.3125 54.390625 
Q 18.3125 48.734375 21.84375 45.5625 
Q 25.390625 42.390625 31.78125 42.390625 
Q 38.140625 42.390625 41.71875 45.5625 
Q 45.3125 48.734375 45.3125 54.390625 
Q 45.3125 60.0625 41.71875 63.234375 
Q 38.140625 66.40625 31.78125 66.40625 
Q 25.390625 66.40625 21.84375 63.234375 
Q 18.3125 60.0625 18.3125 54.390625 
z
" id="DejaVuSans-38"/>
      </defs>
      <g transform="translate(25.635312 44.15677)scale(0.22 -0.22)">
       <use xlink:href="#DejaVuSans-38"/>
      </g>
     </g>
    </g>
   </g>
   <g id="patch_3">
    <path d="M 46.632812 343.34 
L 46.632812 10.7 
" style="fill:none;stroke:#000000;stroke-linecap:square;stroke-linejoin:miter;stroke-width:0.8;"/>
   </g>
   <g id="patch_4">
    <path d="M 381.432813 343.34 
L 381.432813 10.7 
" style="fill:none;stroke:#000000;stroke-linecap:square;stroke-linejoin:miter;stroke-width:0.8;"/>
   </g>
   <g id="patch_5">
    <path d="M 46.632812 343.34 
L 381.432813 343.34 
" style="fill:none;stroke:#000000;stroke-linecap:square;stroke-linejoin:miter;stroke-width:0.8;"/>
   </g>
   <g id="patch_6">
    <path d="M 46.632812 10.7 
L 381.432813 10.7 
" style="fill:none;stroke:#000000;stroke-linecap:square;stroke-linejoin:miter;stroke-width:0.8;"/>
   </g>
  </g>
 </g>
 <defs>
  <clipPath id="p159c04c838">
   <rect height="332.64" width="334.8" x="46.632812" y="10.7"/>
  </clipPath>
 </defs>
</svg>
