<?xml version="1.0" encoding="utf-8" standalone="no"?>
<!DOCTYPE svg PUBLIC "-//W3C//DTD SVG 1.1//EN"
  "http://www.w3.org/Graphics/SVG/1.1/DTD/svg11.dtd">
<!-- Created with matplotlib (http://matplotlib.org/) -->
<svg height="354pt" version="1.1" viewBox="0 0 427 354" width="427pt" xmlns="http://www.w3.org/2000/svg" xmlns:xlink="http://www.w3.org/1999/xlink">
 <defs>
  <style type="text/css">
*{stroke-linecap:butt;stroke-linejoin:round;}
  </style>
 </defs>
 <g id="figure_1">
  <g id="patch_1">
   <path d="M 0 354.04 
L 427.119687 354.04 
L 427.119687 0 
L 0 0 
z
" style="fill:#ffffff;"/>
  </g>
  <g id="axes_1">
   <g id="patch_2">
    <path d="M 81.619687 343.34 
L 416.419688 343.34 
L 416.419688 10.7 
L 81.619687 10.7 
z
" style="fill:#ffffff;"/>
   </g>
   <g id="PolyCollection_1">
    <defs>
     <path d="M 96.837869 -78.124014 
L 96.837869 -144.311002 
L 100.14617 -144.311002 
L 103.45447 -144.311002 
L 106.762771 -144.311002 
L 110.071071 -144.311002 
L 113.379371 -144.311002 
L 116.687672 -144.311002 
L 119.995972 -144.311002 
L 123.304272 -144.311002 
L 126.612573 -144.311002 
L 129.920873 -144.311002 
L 133.229174 -144.311002 
L 136.537474 -144.311002 
L 139.845774 -144.311002 
L 143.154075 -144.311002 
L 146.462375 -144.311002 
L 149.770676 -144.311002 
L 153.078976 -144.311002 
L 156.387276 -144.311002 
L 159.695577 -144.311002 
L 163.003877 -144.311002 
L 166.312178 -144.311002 
L 169.620478 -144.311002 
L 172.928778 -144.311002 
L 176.237079 -144.311002 
L 179.545379 -144.311002 
L 182.85368 -144.311002 
L 186.16198 -144.311002 
L 189.47028 -144.311002 
L 192.778581 -144.311002 
L 196.086881 -144.311002 
L 199.395182 -144.311002 
L 202.703482 -144.311002 
L 206.011782 -144.311002 
L 209.320083 -144.311002 
L 212.628383 -144.311002 
L 215.936684 -144.311002 
L 219.244984 -144.311002 
L 222.553284 -144.311002 
L 225.861585 -144.311002 
L 229.169885 -144.311002 
L 232.478186 -144.311002 
L 235.786486 -144.311002 
L 239.094786 -144.311002 
L 242.403087 -144.311002 
L 245.711387 -144.311002 
L 249.019688 -144.311002 
L 252.327988 -144.311002 
L 255.636288 -144.311002 
L 258.944589 -144.311002 
L 262.252889 -144.311002 
L 265.561189 -144.311002 
L 268.86949 -144.311002 
L 272.17779 -144.311002 
L 275.486091 -144.311002 
L 278.794391 -144.311002 
L 282.102691 -144.311002 
L 285.410992 -144.311002 
L 288.719292 -144.311002 
L 292.027593 -144.311002 
L 295.335893 -144.311002 
L 298.644193 -144.311002 
L 301.952494 -144.311002 
L 305.260794 -144.311002 
L 308.569095 -144.311002 
L 311.877395 -144.311002 
L 315.185695 -144.311002 
L 318.493996 -144.311002 
L 321.802296 -144.311002 
L 325.110597 -144.311002 
L 328.418897 -144.311002 
L 331.727197 -144.311002 
L 335.035498 -144.311002 
L 338.343798 -144.311002 
L 341.652099 -144.311002 
L 344.960399 -144.311002 
L 348.268699 -144.311002 
L 351.577 -144.311002 
L 354.8853 -144.311002 
L 358.193601 -144.311002 
L 361.501901 -144.311002 
L 364.810201 -144.311002 
L 368.118502 -144.311002 
L 371.426802 -144.311002 
L 374.735103 -144.311002 
L 378.043403 -144.311002 
L 381.351703 -144.311002 
L 384.660004 -144.311002 
L 387.968304 -144.311002 
L 391.276604 -144.311002 
L 394.584905 -144.311002 
L 397.893205 -144.311002 
L 401.201506 -144.311002 
L 401.201506 -252.338501 
L 401.201506 -252.338501 
L 397.893205 -244.066163 
L 394.584905 -235.900356 
L 391.276604 -235.184633 
L 387.968304 -233.676484 
L 384.660004 -231.618764 
L 381.351703 -215.997638 
L 378.043403 -200.359758 
L 374.735103 -194.097044 
L 371.426802 -193.931494 
L 368.118502 -193.517409 
L 364.810201 -189.379254 
L 361.501901 -177.207642 
L 358.193601 -174.022975 
L 354.8853 -173.555271 
L 351.577 -171.838517 
L 348.268699 -170.339948 
L 344.960399 -169.338511 
L 341.652099 -168.474765 
L 338.343798 -167.541034 
L 335.035498 -165.90771 
L 331.727197 -160.415382 
L 328.418897 -160.373375 
L 325.110597 -159.856435 
L 321.802296 -158.235195 
L 318.493996 -157.660759 
L 315.185695 -156.74179 
L 311.877395 -151.755538 
L 308.569095 -148.48697 
L 305.260794 -147.315714 
L 301.952494 -146.99276 
L 298.644193 -146.20122 
L 295.335893 -145.527589 
L 292.027593 -145.108264 
L 288.719292 -144.991436 
L 285.410992 -144.839902 
L 282.102691 -144.812774 
L 278.794391 -144.73063 
L 275.486091 -144.693276 
L 272.17779 -144.614948 
L 268.86949 -144.614778 
L 265.561189 -144.587794 
L 262.252889 -144.493455 
L 258.944589 -144.469989 
L 255.636288 -144.453988 
L 252.327988 -144.4459 
L 249.019688 -144.427839 
L 245.711387 -144.402139 
L 242.403087 -144.396329 
L 239.094786 -144.371343 
L 235.786486 -144.367936 
L 232.478186 -144.367049 
L 229.169885 -144.353932 
L 225.861585 -144.342717 
L 222.553284 -144.302398 
L 219.244984 -144.279987 
L 215.936684 -144.252093 
L 212.628383 -144.237971 
L 209.320083 -144.233953 
L 206.011782 -144.207128 
L 202.703482 -144.195617 
L 199.395182 -144.166017 
L 196.086881 -144.158705 
L 192.778581 -144.116757 
L 189.47028 -144.090307 
L 186.16198 -144.078481 
L 182.85368 -144.054246 
L 179.545379 -144.04128 
L 176.237079 -143.979234 
L 172.928778 -143.956671 
L 169.620478 -143.843988 
L 166.312178 -143.767115 
L 163.003877 -143.758787 
L 159.695577 -143.729656 
L 156.387276 -143.659136 
L 153.078976 -143.533546 
L 149.770676 -143.522389 
L 146.462375 -140.972254 
L 143.154075 -139.827265 
L 139.845774 -137.114899 
L 136.537474 -134.765291 
L 133.229174 -132.217664 
L 129.920873 -127.053122 
L 126.612573 -123.194119 
L 123.304272 -115.624548 
L 119.995972 -114.280375 
L 116.687672 -113.487283 
L 113.379371 -111.772396 
L 110.071071 -108.232898 
L 106.762771 -106.522774 
L 103.45447 -86.893661 
L 100.14617 -78.934977 
L 96.837869 -78.124014 
z
" id="md8def9d61f" style="stroke:#4a98c9;"/>
    </defs>
    <g clip-path="url(#p956bda150e)">
     <use style="fill:#4a98c9;stroke:#4a98c9;" x="0" xlink:href="#md8def9d61f" y="354.04"/>
    </g>
   </g>
   <g id="PolyCollection_2">
    <defs>
     <path d="M 96.837869 -25.82 
L 96.837869 -144.311002 
L 100.14617 -144.311002 
L 103.45447 -144.311002 
L 106.762771 -144.311002 
L 110.071071 -144.311002 
L 113.379371 -144.311002 
L 116.687672 -144.311002 
L 119.995972 -144.311002 
L 123.304272 -144.311002 
L 126.612573 -144.311002 
L 129.920873 -144.311002 
L 133.229174 -144.311002 
L 136.537474 -144.311002 
L 139.845774 -144.311002 
L 143.154075 -144.311002 
L 146.462375 -144.311002 
L 149.770676 -144.311002 
L 153.078976 -144.311002 
L 156.387276 -144.311002 
L 159.695577 -144.311002 
L 163.003877 -144.311002 
L 166.312178 -144.311002 
L 169.620478 -144.311002 
L 172.928778 -144.311002 
L 176.237079 -144.311002 
L 179.545379 -144.311002 
L 182.85368 -144.311002 
L 186.16198 -144.311002 
L 189.47028 -144.311002 
L 192.778581 -144.311002 
L 196.086881 -144.311002 
L 199.395182 -144.311002 
L 202.703482 -144.311002 
L 206.011782 -144.311002 
L 209.320083 -144.311002 
L 212.628383 -144.311002 
L 215.936684 -144.311002 
L 219.244984 -144.311002 
L 222.553284 -144.311002 
L 225.861585 -144.311002 
L 229.169885 -144.311002 
L 232.478186 -144.311002 
L 235.786486 -144.311002 
L 239.094786 -144.311002 
L 242.403087 -144.311002 
L 245.711387 -144.311002 
L 249.019688 -144.311002 
L 252.327988 -144.311002 
L 255.636288 -144.311002 
L 258.944589 -144.311002 
L 262.252889 -144.311002 
L 265.561189 -144.311002 
L 268.86949 -144.311002 
L 272.17779 -144.311002 
L 275.486091 -144.311002 
L 278.794391 -144.311002 
L 282.102691 -144.311002 
L 285.410992 -144.311002 
L 288.719292 -144.311002 
L 292.027593 -144.311002 
L 295.335893 -144.311002 
L 298.644193 -144.311002 
L 301.952494 -144.311002 
L 305.260794 -144.311002 
L 308.569095 -144.311002 
L 311.877395 -144.311002 
L 315.185695 -144.311002 
L 318.493996 -144.311002 
L 321.802296 -144.311002 
L 325.110597 -144.311002 
L 328.418897 -144.311002 
L 331.727197 -144.311002 
L 335.035498 -144.311002 
L 338.343798 -144.311002 
L 341.652099 -144.311002 
L 344.960399 -144.311002 
L 348.268699 -144.311002 
L 351.577 -144.311002 
L 354.8853 -144.311002 
L 358.193601 -144.311002 
L 361.501901 -144.311002 
L 364.810201 -144.311002 
L 368.118502 -144.311002 
L 371.426802 -144.311002 
L 374.735103 -144.311002 
L 378.043403 -144.311002 
L 381.351703 -144.311002 
L 384.660004 -144.311002 
L 387.968304 -144.311002 
L 391.276604 -144.311002 
L 394.584905 -144.311002 
L 397.893205 -144.311002 
L 401.201506 -144.311002 
L 401.201506 -328.22 
L 401.201506 -328.22 
L 397.893205 -299.599172 
L 394.584905 -295.631925 
L 391.276604 -284.055805 
L 387.968304 -262.931747 
L 384.660004 -256.201841 
L 381.351703 -246.841495 
L 378.043403 -229.392559 
L 374.735103 -227.856411 
L 371.426802 -222.964862 
L 368.118502 -220.467581 
L 364.810201 -203.460545 
L 361.501901 -196.831338 
L 358.193601 -187.608864 
L 354.8853 -181.494101 
L 351.577 -180.541156 
L 348.268699 -180.148712 
L 344.960399 -178.472226 
L 341.652099 -167.972016 
L 338.343798 -163.946861 
L 335.035498 -160.334863 
L 331.727197 -157.566896 
L 328.418897 -157.438967 
L 325.110597 -157.290707 
L 321.802296 -156.795638 
L 318.493996 -156.682372 
L 315.185695 -155.981094 
L 311.877395 -150.224676 
L 308.569095 -149.188745 
L 305.260794 -148.694617 
L 301.952494 -147.974403 
L 298.644193 -146.944915 
L 295.335893 -145.682412 
L 292.027593 -144.947405 
L 288.719292 -144.880416 
L 285.410992 -144.737264 
L 282.102691 -144.54422 
L 278.794391 -144.460255 
L 275.486091 -144.440076 
L 272.17779 -144.434552 
L 268.86949 -144.400106 
L 265.561189 -144.382958 
L 262.252889 -144.375279 
L 258.944589 -144.350839 
L 255.636288 -144.343647 
L 252.327988 -144.328081 
L 249.019688 -144.323114 
L 245.711387 -144.304991 
L 242.403087 -144.2842 
L 239.094786 -144.280959 
L 235.786486 -144.277951 
L 232.478186 -144.272754 
L 229.169885 -144.268725 
L 225.861585 -144.265623 
L 222.553284 -144.260844 
L 219.244984 -144.251487 
L 215.936684 -144.250053 
L 212.628383 -144.23275 
L 209.320083 -144.186929 
L 206.011782 -144.1661 
L 202.703482 -144.157688 
L 199.395182 -144.141507 
L 196.086881 -144.125447 
L 192.778581 -144.122457 
L 189.47028 -144.117465 
L 186.16198 -144.111308 
L 182.85368 -144.038958 
L 179.545379 -143.943229 
L 176.237079 -143.919652 
L 172.928778 -143.823889 
L 169.620478 -143.771597 
L 166.312178 -143.263638 
L 163.003877 -142.728762 
L 159.695577 -142.647924 
L 156.387276 -142.454154 
L 153.078976 -142.322785 
L 149.770676 -141.539675 
L 146.462375 -141.09235 
L 143.154075 -138.563786 
L 139.845774 -137.792768 
L 136.537474 -128.511334 
L 133.229174 -115.273245 
L 129.920873 -114.304849 
L 126.612573 -112.517468 
L 123.304272 -109.382537 
L 119.995972 -109.372276 
L 116.687672 -103.761365 
L 113.379371 -86.619707 
L 110.071071 -77.149923 
L 106.762771 -68.255184 
L 103.45447 -48.660196 
L 100.14617 -26.319193 
L 96.837869 -25.82 
z
" id="m73fbef7dcf" style="stroke:#f14432;stroke-opacity:0.8;"/>
    </defs>
    <g clip-path="url(#p956bda150e)">
     <use style="fill:#f14432;fill-opacity:0.8;stroke:#f14432;stroke-opacity:0.8;" x="0" xlink:href="#m73fbef7dcf" y="354.04"/>
    </g>
   </g>
   <g id="matplotlib.axis_1"/>
   <g id="matplotlib.axis_2">
    <g id="ytick_1">
     <g id="line2d_1">
      <defs>
       <path d="M 0 0 
L -3.5 0 
" id="me23c18c385" style="stroke:#000000;stroke-width:0.8;"/>
      </defs>
      <g>
       <use style="stroke:#000000;stroke-width:0.8;" x="81.619687" xlink:href="#me23c18c385" y="324.775878"/>
      </g>
     </g>
     <g id="text_1">
      <!-- −0.10 -->
      <defs>
       <path d="M 10.59375 35.5 
L 73.1875 35.5 
L 73.1875 27.203125 
L 10.59375 27.203125 
z
" id="DejaVuSans-2212"/>
       <path d="M 31.78125 66.40625 
Q 24.171875 66.40625 20.328125 58.90625 
Q 16.5 51.421875 16.5 36.375 
Q 16.5 21.390625 20.328125 13.890625 
Q 24.171875 6.390625 31.78125 6.390625 
Q 39.453125 6.390625 43.28125 13.890625 
Q 47.125 21.390625 47.125 36.375 
Q 47.125 51.421875 43.28125 58.90625 
Q 39.453125 66.40625 31.78125 66.40625 
z
M 31.78125 74.21875 
Q 44.046875 74.21875 50.515625 64.515625 
Q 56.984375 54.828125 56.984375 36.375 
Q 56.984375 17.96875 50.515625 8.265625 
Q 44.046875 -1.421875 31.78125 -1.421875 
Q 19.53125 -1.421875 13.0625 8.265625 
Q 6.59375 17.96875 6.59375 36.375 
Q 6.59375 54.828125 13.0625 64.515625 
Q 19.53125 74.21875 31.78125 74.21875 
z
" id="DejaVuSans-30"/>
       <path d="M 10.6875 12.40625 
L 21 12.40625 
L 21 0 
L 10.6875 0 
z
" id="DejaVuSans-2e"/>
       <path d="M 12.40625 8.296875 
L 28.515625 8.296875 
L 28.515625 63.921875 
L 10.984375 60.40625 
L 10.984375 69.390625 
L 28.421875 72.90625 
L 38.28125 72.90625 
L 38.28125 8.296875 
L 54.390625 8.296875 
L 54.390625 0 
L 12.40625 0 
z
" id="DejaVuSans-31"/>
      </defs>
      <g transform="translate(7.2 333.13416)scale(0.22 -0.22)">
       <use xlink:href="#DejaVuSans-2212"/>
       <use x="83.789062" xlink:href="#DejaVuSans-30"/>
       <use x="147.412109" xlink:href="#DejaVuSans-2e"/>
       <use x="179.199219" xlink:href="#DejaVuSans-31"/>
       <use x="242.822266" xlink:href="#DejaVuSans-30"/>
      </g>
     </g>
    </g>
    <g id="ytick_2">
     <g id="line2d_2">
      <g>
       <use style="stroke:#000000;stroke-width:0.8;" x="81.619687" xlink:href="#me23c18c385" y="267.252438"/>
      </g>
     </g>
     <g id="text_2">
      <!-- −0.05 -->
      <defs>
       <path d="M 10.796875 72.90625 
L 49.515625 72.90625 
L 49.515625 64.59375 
L 19.828125 64.59375 
L 19.828125 46.734375 
Q 21.96875 47.46875 24.109375 47.828125 
Q 26.265625 48.1875 28.421875 48.1875 
Q 40.625 48.1875 47.75 41.5 
Q 54.890625 34.8125 54.890625 23.390625 
Q 54.890625 11.625 47.5625 5.09375 
Q 40.234375 -1.421875 26.90625 -1.421875 
Q 22.3125 -1.421875 17.546875 -0.640625 
Q 12.796875 0.140625 7.71875 1.703125 
L 7.71875 11.625 
Q 12.109375 9.234375 16.796875 8.0625 
Q 21.484375 6.890625 26.703125 6.890625 
Q 35.15625 6.890625 40.078125 11.328125 
Q 45.015625 15.765625 45.015625 23.390625 
Q 45.015625 31 40.078125 35.4375 
Q 35.15625 39.890625 26.703125 39.890625 
Q 22.75 39.890625 18.8125 39.015625 
Q 14.890625 38.140625 10.796875 36.28125 
z
" id="DejaVuSans-35"/>
      </defs>
      <g transform="translate(7.2 275.610719)scale(0.22 -0.22)">
       <use xlink:href="#DejaVuSans-2212"/>
       <use x="83.789062" xlink:href="#DejaVuSans-30"/>
       <use x="147.412109" xlink:href="#DejaVuSans-2e"/>
       <use x="179.199219" xlink:href="#DejaVuSans-30"/>
       <use x="242.822266" xlink:href="#DejaVuSans-35"/>
      </g>
     </g>
    </g>
    <g id="ytick_3">
     <g id="line2d_3">
      <g>
       <use style="stroke:#000000;stroke-width:0.8;" x="81.619687" xlink:href="#me23c18c385" y="209.728998"/>
      </g>
     </g>
     <g id="text_3">
      <!-- 0.00 -->
      <g transform="translate(25.635312 218.087279)scale(0.22 -0.22)">
       <use xlink:href="#DejaVuSans-30"/>
       <use x="63.623047" xlink:href="#DejaVuSans-2e"/>
       <use x="95.410156" xlink:href="#DejaVuSans-30"/>
       <use x="159.033203" xlink:href="#DejaVuSans-30"/>
      </g>
     </g>
    </g>
    <g id="ytick_4">
     <g id="line2d_4">
      <g>
       <use style="stroke:#000000;stroke-width:0.8;" x="81.619687" xlink:href="#me23c18c385" y="152.205558"/>
      </g>
     </g>
     <g id="text_4">
      <!-- 0.05 -->
      <g transform="translate(25.635312 160.563839)scale(0.22 -0.22)">
       <use xlink:href="#DejaVuSans-30"/>
       <use x="63.623047" xlink:href="#DejaVuSans-2e"/>
       <use x="95.410156" xlink:href="#DejaVuSans-30"/>
       <use x="159.033203" xlink:href="#DejaVuSans-35"/>
      </g>
     </g>
    </g>
    <g id="ytick_5">
     <g id="line2d_5">
      <g>
       <use style="stroke:#000000;stroke-width:0.8;" x="81.619687" xlink:href="#me23c18c385" y="94.682118"/>
      </g>
     </g>
     <g id="text_5">
      <!-- 0.10 -->
      <g transform="translate(25.635312 103.040399)scale(0.22 -0.22)">
       <use xlink:href="#DejaVuSans-30"/>
       <use x="63.623047" xlink:href="#DejaVuSans-2e"/>
       <use x="95.410156" xlink:href="#DejaVuSans-31"/>
       <use x="159.033203" xlink:href="#DejaVuSans-30"/>
      </g>
     </g>
    </g>
    <g id="ytick_6">
     <g id="line2d_6">
      <g>
       <use style="stroke:#000000;stroke-width:0.8;" x="81.619687" xlink:href="#me23c18c385" y="37.158678"/>
      </g>
     </g>
     <g id="text_6">
      <!-- 0.15 -->
      <g transform="translate(25.635312 45.516959)scale(0.22 -0.22)">
       <use xlink:href="#DejaVuSans-30"/>
       <use x="63.623047" xlink:href="#DejaVuSans-2e"/>
       <use x="95.410156" xlink:href="#DejaVuSans-31"/>
       <use x="159.033203" xlink:href="#DejaVuSans-35"/>
      </g>
     </g>
    </g>
   </g>
   <g id="patch_3">
    <path d="M 81.619687 343.34 
L 81.619687 10.7 
" style="fill:none;stroke:#000000;stroke-linecap:square;stroke-linejoin:miter;stroke-width:0.8;"/>
   </g>
   <g id="patch_4">
    <path d="M 416.419688 343.34 
L 416.419688 10.7 
" style="fill:none;stroke:#000000;stroke-linecap:square;stroke-linejoin:miter;stroke-width:0.8;"/>
   </g>
   <g id="patch_5">
    <path d="M 81.619687 343.34 
L 416.419688 343.34 
" style="fill:none;stroke:#000000;stroke-linecap:square;stroke-linejoin:miter;stroke-width:0.8;"/>
   </g>
   <g id="patch_6">
    <path d="M 81.619687 10.7 
L 416.419688 10.7 
" style="fill:none;stroke:#000000;stroke-linecap:square;stroke-linejoin:miter;stroke-width:0.8;"/>
   </g>
  </g>
 </g>
 <defs>
  <clipPath id="p956bda150e">
   <rect height="332.64" width="334.8" x="81.619687" y="10.7"/>
  </clipPath>
 </defs>
</svg>
