<?xml version="1.0" encoding="utf-8" standalone="no"?>
<!DOCTYPE svg PUBLIC "-//W3C//DTD SVG 1.1//EN"
  "http://www.w3.org/Graphics/SVG/1.1/DTD/svg11.dtd">
<!-- Created with matplotlib (http://matplotlib.org/) -->
<svg height="354pt" version="1.1" viewBox="0 0 420 354" width="420pt" xmlns="http://www.w3.org/2000/svg" xmlns:xlink="http://www.w3.org/1999/xlink">
 <defs>
  <style type="text/css">
*{stroke-linecap:butt;stroke-linejoin:round;}
  </style>
 </defs>
 <g id="figure_1">
  <g id="patch_1">
   <path d="M 0 354.04 
L 420.127812 354.04 
L 420.127812 0 
L 0 0 
z
" style="fill:#ffffff;"/>
  </g>
  <g id="axes_1">
   <g id="patch_2">
    <path d="M 74.627813 343.34 
L 409.427813 343.34 
L 409.427813 10.7 
L 74.627813 10.7 
z
" style="fill:#ffffff;"/>
   </g>
   <g id="PolyCollection_1">
    <defs>
     <path d="M 89.845994 -26.901283 
L 89.845994 -147.360667 
L 93.154295 -147.360667 
L 96.462595 -147.360667 
L 99.770896 -147.360667 
L 103.079196 -147.360667 
L 106.387496 -147.360667 
L 109.695797 -147.360667 
L 113.004097 -147.360667 
L 116.312397 -147.360667 
L 119.620698 -147.360667 
L 122.928998 -147.360667 
L 126.237299 -147.360667 
L 129.545599 -147.360667 
L 132.853899 -147.360667 
L 136.1622 -147.360667 
L 139.4705 -147.360667 
L 142.778801 -147.360667 
L 146.087101 -147.360667 
L 149.395401 -147.360667 
L 152.703702 -147.360667 
L 156.012002 -147.360667 
L 159.320303 -147.360667 
L 162.628603 -147.360667 
L 165.936903 -147.360667 
L 169.245204 -147.360667 
L 172.553504 -147.360667 
L 175.861805 -147.360667 
L 179.170105 -147.360667 
L 182.478405 -147.360667 
L 185.786706 -147.360667 
L 189.095006 -147.360667 
L 192.403307 -147.360667 
L 195.711607 -147.360667 
L 199.019907 -147.360667 
L 202.328208 -147.360667 
L 205.636508 -147.360667 
L 208.944809 -147.360667 
L 212.253109 -147.360667 
L 215.561409 -147.360667 
L 218.86971 -147.360667 
L 222.17801 -147.360667 
L 225.486311 -147.360667 
L 228.794611 -147.360667 
L 232.102911 -147.360667 
L 235.411212 -147.360667 
L 238.719512 -147.360667 
L 242.027813 -147.360667 
L 245.336113 -147.360667 
L 248.644413 -147.360667 
L 251.952714 -147.360667 
L 255.261014 -147.360667 
L 258.569314 -147.360667 
L 261.877615 -147.360667 
L 265.185915 -147.360667 
L 268.494216 -147.360667 
L 271.802516 -147.360667 
L 275.110816 -147.360667 
L 278.419117 -147.360667 
L 281.727417 -147.360667 
L 285.035718 -147.360667 
L 288.344018 -147.360667 
L 291.652318 -147.360667 
L 294.960619 -147.360667 
L 298.268919 -147.360667 
L 301.57722 -147.360667 
L 304.88552 -147.360667 
L 308.19382 -147.360667 
L 311.502121 -147.360667 
L 314.810421 -147.360667 
L 318.118722 -147.360667 
L 321.427022 -147.360667 
L 324.735322 -147.360667 
L 328.043623 -147.360667 
L 331.351923 -147.360667 
L 334.660224 -147.360667 
L 337.968524 -147.360667 
L 341.276824 -147.360667 
L 344.585125 -147.360667 
L 347.893425 -147.360667 
L 351.201726 -147.360667 
L 354.510026 -147.360667 
L 357.818326 -147.360667 
L 361.126627 -147.360667 
L 364.434927 -147.360667 
L 367.743228 -147.360667 
L 371.051528 -147.360667 
L 374.359828 -147.360667 
L 377.668129 -147.360667 
L 380.976429 -147.360667 
L 384.284729 -147.360667 
L 387.59303 -147.360667 
L 390.90133 -147.360667 
L 394.209631 -147.360667 
L 394.209631 -326.75875 
L 394.209631 -326.75875 
L 390.90133 -266.480953 
L 387.59303 -228.884161 
L 384.284729 -221.381016 
L 380.976429 -219.154433 
L 377.668129 -207.716979 
L 374.359828 -199.821674 
L 371.051528 -196.112777 
L 367.743228 -195.640697 
L 364.434927 -195.002245 
L 361.126627 -194.317707 
L 357.818326 -192.965675 
L 354.510026 -192.836096 
L 351.201726 -187.19651 
L 347.893425 -184.704905 
L 344.585125 -182.08518 
L 341.276824 -181.389389 
L 337.968524 -176.989127 
L 334.660224 -174.910208 
L 331.351923 -173.912759 
L 328.043623 -173.533078 
L 324.735322 -166.266169 
L 321.427022 -160.475543 
L 318.118722 -157.694529 
L 314.810421 -153.615784 
L 311.502121 -153.163093 
L 308.19382 -152.174172 
L 304.88552 -152.084853 
L 301.57722 -152.015657 
L 298.268919 -150.433794 
L 294.960619 -148.400355 
L 291.652318 -148.209924 
L 288.344018 -148.190376 
L 285.035718 -147.614476 
L 281.727417 -147.431848 
L 278.419117 -147.418035 
L 275.110816 -147.409317 
L 271.802516 -147.405916 
L 268.494216 -147.405778 
L 265.185915 -147.391712 
L 261.877615 -147.388862 
L 258.569314 -147.386049 
L 255.261014 -147.377119 
L 251.952714 -147.375372 
L 248.644413 -147.372167 
L 245.336113 -147.371254 
L 242.027813 -147.368502 
L 238.719512 -147.368413 
L 235.411212 -147.367163 
L 232.102911 -147.364734 
L 228.794611 -147.36277 
L 225.486311 -147.362004 
L 222.17801 -147.360825 
L 218.86971 -147.360477 
L 215.561409 -147.358886 
L 212.253109 -147.358056 
L 208.944809 -147.356264 
L 205.636508 -147.353655 
L 202.328208 -147.352879 
L 199.019907 -147.346983 
L 195.711607 -147.346949 
L 192.403307 -147.344075 
L 189.095006 -147.341458 
L 185.786706 -147.334695 
L 182.478405 -147.326141 
L 179.170105 -147.3171 
L 175.861805 -147.31144 
L 172.553504 -147.308977 
L 169.245204 -147.299962 
L 165.936903 -147.292707 
L 162.628603 -147.288836 
L 159.320303 -147.282137 
L 156.012002 -147.270544 
L 152.703702 -147.242341 
L 149.395401 -147.054473 
L 146.087101 -142.7226 
L 142.778801 -139.667701 
L 139.4705 -138.365349 
L 136.1622 -136.284419 
L 132.853899 -134.026986 
L 129.545599 -132.231958 
L 126.237299 -131.430416 
L 122.928998 -122.584787 
L 119.620698 -114.068764 
L 116.312397 -109.899724 
L 113.004097 -103.361913 
L 109.695797 -99.0924 
L 106.387496 -98.176053 
L 103.079196 -94.742486 
L 99.770896 -89.471071 
L 96.462595 -75.951908 
L 93.154295 -42.189456 
L 89.845994 -26.901283 
z
" id="m12899e23ec" style="stroke:#4a98c9;"/>
    </defs>
    <g clip-path="url(#pb94001aab6)">
     <use style="fill:#4a98c9;stroke:#4a98c9;" x="0" xlink:href="#m12899e23ec" y="354.04"/>
    </g>
   </g>
   <g id="PolyCollection_2">
    <defs>
     <path d="M 89.845994 -25.82 
L 89.845994 -147.360667 
L 93.154295 -147.360667 
L 96.462595 -147.360667 
L 99.770896 -147.360667 
L 103.079196 -147.360667 
L 106.387496 -147.360667 
L 109.695797 -147.360667 
L 113.004097 -147.360667 
L 116.312397 -147.360667 
L 119.620698 -147.360667 
L 122.928998 -147.360667 
L 126.237299 -147.360667 
L 129.545599 -147.360667 
L 132.853899 -147.360667 
L 136.1622 -147.360667 
L 139.4705 -147.360667 
L 142.778801 -147.360667 
L 146.087101 -147.360667 
L 149.395401 -147.360667 
L 152.703702 -147.360667 
L 156.012002 -147.360667 
L 159.320303 -147.360667 
L 162.628603 -147.360667 
L 165.936903 -147.360667 
L 169.245204 -147.360667 
L 172.553504 -147.360667 
L 175.861805 -147.360667 
L 179.170105 -147.360667 
L 182.478405 -147.360667 
L 185.786706 -147.360667 
L 189.095006 -147.360667 
L 192.403307 -147.360667 
L 195.711607 -147.360667 
L 199.019907 -147.360667 
L 202.328208 -147.360667 
L 205.636508 -147.360667 
L 208.944809 -147.360667 
L 212.253109 -147.360667 
L 215.561409 -147.360667 
L 218.86971 -147.360667 
L 222.17801 -147.360667 
L 225.486311 -147.360667 
L 228.794611 -147.360667 
L 232.102911 -147.360667 
L 235.411212 -147.360667 
L 238.719512 -147.360667 
L 242.027813 -147.360667 
L 245.336113 -147.360667 
L 248.644413 -147.360667 
L 251.952714 -147.360667 
L 255.261014 -147.360667 
L 258.569314 -147.360667 
L 261.877615 -147.360667 
L 265.185915 -147.360667 
L 268.494216 -147.360667 
L 271.802516 -147.360667 
L 275.110816 -147.360667 
L 278.419117 -147.360667 
L 281.727417 -147.360667 
L 285.035718 -147.360667 
L 288.344018 -147.360667 
L 291.652318 -147.360667 
L 294.960619 -147.360667 
L 298.268919 -147.360667 
L 301.57722 -147.360667 
L 304.88552 -147.360667 
L 308.19382 -147.360667 
L 311.502121 -147.360667 
L 314.810421 -147.360667 
L 318.118722 -147.360667 
L 321.427022 -147.360667 
L 324.735322 -147.360667 
L 328.043623 -147.360667 
L 331.351923 -147.360667 
L 334.660224 -147.360667 
L 337.968524 -147.360667 
L 341.276824 -147.360667 
L 344.585125 -147.360667 
L 347.893425 -147.360667 
L 351.201726 -147.360667 
L 354.510026 -147.360667 
L 357.818326 -147.360667 
L 361.126627 -147.360667 
L 364.434927 -147.360667 
L 367.743228 -147.360667 
L 371.051528 -147.360667 
L 374.359828 -147.360667 
L 377.668129 -147.360667 
L 380.976429 -147.360667 
L 384.284729 -147.360667 
L 387.59303 -147.360667 
L 390.90133 -147.360667 
L 394.209631 -147.360667 
L 394.209631 -328.22 
L 394.209631 -328.22 
L 390.90133 -267.06578 
L 387.59303 -228.931951 
L 384.284729 -221.272159 
L 380.976429 -220.697962 
L 377.668129 -209.167343 
L 374.359828 -201.302036 
L 371.051528 -198.337313 
L 367.743228 -196.722613 
L 364.434927 -196.309801 
L 361.126627 -194.137732 
L 357.818326 -192.559677 
L 354.510026 -192.038509 
L 351.201726 -187.353403 
L 347.893425 -184.039822 
L 344.585125 -182.811607 
L 341.276824 -182.806242 
L 337.968524 -177.372008 
L 334.660224 -174.712903 
L 331.351923 -174.220556 
L 328.043623 -172.6214 
L 324.735322 -164.759872 
L 321.427022 -159.992656 
L 318.118722 -157.104043 
L 314.810421 -154.689731 
L 311.502121 -153.953197 
L 308.19382 -153.567608 
L 304.88552 -152.739279 
L 301.57722 -152.424033 
L 298.268919 -149.805104 
L 294.960619 -148.89343 
L 291.652318 -148.358447 
L 288.344018 -147.93909 
L 285.035718 -147.612318 
L 281.727417 -147.597325 
L 278.419117 -147.579808 
L 275.110816 -147.550938 
L 271.802516 -147.533187 
L 268.494216 -147.528345 
L 265.185915 -147.508353 
L 261.877615 -147.470103 
L 258.569314 -147.46697 
L 255.261014 -147.441328 
L 251.952714 -147.441152 
L 248.644413 -147.432031 
L 245.336113 -147.431746 
L 242.027813 -147.431086 
L 238.719512 -147.418972 
L 235.411212 -147.410439 
L 232.102911 -147.410129 
L 228.794611 -147.406234 
L 225.486311 -147.399139 
L 222.17801 -147.387363 
L 218.86971 -147.384999 
L 215.561409 -147.38014 
L 212.253109 -147.366933 
L 208.944809 -147.365178 
L 205.636508 -147.345392 
L 202.328208 -147.332791 
L 199.019907 -147.332112 
L 195.711607 -147.315103 
L 192.403307 -147.303303 
L 189.095006 -147.302293 
L 185.786706 -147.255602 
L 182.478405 -147.253888 
L 179.170105 -147.253155 
L 175.861805 -147.24595 
L 172.553504 -147.239409 
L 169.245204 -147.195953 
L 165.936903 -147.194176 
L 162.628603 -147.193917 
L 159.320303 -147.145926 
L 156.012002 -147.074315 
L 152.703702 -147.016909 
L 149.395401 -145.778666 
L 146.087101 -143.119354 
L 142.778801 -141.791196 
L 139.4705 -137.643923 
L 136.1622 -137.124245 
L 132.853899 -135.557753 
L 129.545599 -133.067464 
L 126.237299 -131.360107 
L 122.928998 -122.698982 
L 119.620698 -113.079284 
L 116.312397 -111.73417 
L 113.004097 -103.43588 
L 109.695797 -98.895535 
L 106.387496 -97.782468 
L 103.079196 -93.447212 
L 99.770896 -87.657042 
L 96.462595 -76.748267 
L 93.154295 -41.097794 
L 89.845994 -25.82 
z
" id="mcfe326238b" style="stroke:#f14432;stroke-opacity:0.8;"/>
    </defs>
    <g clip-path="url(#pb94001aab6)">
     <use style="fill:#f14432;fill-opacity:0.8;stroke:#f14432;stroke-opacity:0.8;" x="0" xlink:href="#mcfe326238b" y="354.04"/>
    </g>
   </g>
   <g id="matplotlib.axis_1"/>
   <g id="matplotlib.axis_2">
    <g id="ytick_1">
     <g id="line2d_1">
      <defs>
       <path d="M 0 0 
L -3.5 0 
" id="mb0734533ea" style="stroke:#000000;stroke-width:0.8;"/>
      </defs>
      <g>
       <use style="stroke:#000000;stroke-width:0.8;" x="74.627813" xlink:href="#mb0734533ea" y="329.542747"/>
      </g>
     </g>
     <g id="text_1">
      <!-- −750 -->
      <defs>
       <path d="M 10.59375 35.5 
L 73.1875 35.5 
L 73.1875 27.203125 
L 10.59375 27.203125 
z
" id="DejaVuSans-2212"/>
       <path d="M 8.203125 72.90625 
L 55.078125 72.90625 
L 55.078125 68.703125 
L 28.609375 0 
L 18.3125 0 
L 43.21875 64.59375 
L 8.203125 64.59375 
z
" id="DejaVuSans-37"/>
       <path d="M 10.796875 72.90625 
L 49.515625 72.90625 
L 49.515625 64.59375 
L 19.828125 64.59375 
L 19.828125 46.734375 
Q 21.96875 47.46875 24.109375 47.828125 
Q 26.265625 48.1875 28.421875 48.1875 
Q 40.625 48.1875 47.75 41.5 
Q 54.890625 34.8125 54.890625 23.390625 
Q 54.890625 11.625 47.5625 5.09375 
Q 40.234375 -1.421875 26.90625 -1.421875 
Q 22.3125 -1.421875 17.546875 -0.640625 
Q 12.796875 0.140625 7.71875 1.703125 
L 7.71875 11.625 
Q 12.109375 9.234375 16.796875 8.0625 
Q 21.484375 6.890625 26.703125 6.890625 
Q 35.15625 6.890625 40.078125 11.328125 
Q 45.015625 15.765625 45.015625 23.390625 
Q 45.015625 31 40.078125 35.4375 
Q 35.15625 39.890625 26.703125 39.890625 
Q 22.75 39.890625 18.8125 39.015625 
Q 14.890625 38.140625 10.796875 36.28125 
z
" id="DejaVuSans-35"/>
       <path d="M 31.78125 66.40625 
Q 24.171875 66.40625 20.328125 58.90625 
Q 16.5 51.421875 16.5 36.375 
Q 16.5 21.390625 20.328125 13.890625 
Q 24.171875 6.390625 31.78125 6.390625 
Q 39.453125 6.390625 43.28125 13.890625 
Q 47.125 21.390625 47.125 36.375 
Q 47.125 51.421875 43.28125 58.90625 
Q 39.453125 66.40625 31.78125 66.40625 
z
M 31.78125 74.21875 
Q 44.046875 74.21875 50.515625 64.515625 
Q 56.984375 54.828125 56.984375 36.375 
Q 56.984375 17.96875 50.515625 8.265625 
Q 44.046875 -1.421875 31.78125 -1.421875 
Q 19.53125 -1.421875 13.0625 8.265625 
Q 6.59375 17.96875 6.59375 36.375 
Q 6.59375 54.828125 13.0625 64.515625 
Q 19.53125 74.21875 31.78125 74.21875 
z
" id="DejaVuSans-30"/>
      </defs>
      <g transform="translate(7.2 337.901028)scale(0.22 -0.22)">
       <use xlink:href="#DejaVuSans-2212"/>
       <use x="83.789062" xlink:href="#DejaVuSans-37"/>
       <use x="147.412109" xlink:href="#DejaVuSans-35"/>
       <use x="211.035156" xlink:href="#DejaVuSans-30"/>
      </g>
     </g>
    </g>
    <g id="ytick_2">
     <g id="line2d_2">
      <g>
       <use style="stroke:#000000;stroke-width:0.8;" x="74.627813" xlink:href="#mb0734533ea" y="288.588275"/>
      </g>
     </g>
     <g id="text_2">
      <!-- −500 -->
      <g transform="translate(7.2 296.946557)scale(0.22 -0.22)">
       <use xlink:href="#DejaVuSans-2212"/>
       <use x="83.789062" xlink:href="#DejaVuSans-35"/>
       <use x="147.412109" xlink:href="#DejaVuSans-30"/>
       <use x="211.035156" xlink:href="#DejaVuSans-30"/>
      </g>
     </g>
    </g>
    <g id="ytick_3">
     <g id="line2d_3">
      <g>
       <use style="stroke:#000000;stroke-width:0.8;" x="74.627813" xlink:href="#mb0734533ea" y="247.633804"/>
      </g>
     </g>
     <g id="text_3">
      <!-- −250 -->
      <defs>
       <path d="M 19.1875 8.296875 
L 53.609375 8.296875 
L 53.609375 0 
L 7.328125 0 
L 7.328125 8.296875 
Q 12.9375 14.109375 22.625 23.890625 
Q 32.328125 33.6875 34.8125 36.53125 
Q 39.546875 41.84375 41.421875 45.53125 
Q 43.3125 49.21875 43.3125 52.78125 
Q 43.3125 58.59375 39.234375 62.25 
Q 35.15625 65.921875 28.609375 65.921875 
Q 23.96875 65.921875 18.8125 64.3125 
Q 13.671875 62.703125 7.8125 59.421875 
L 7.8125 69.390625 
Q 13.765625 71.78125 18.9375 73 
Q 24.125 74.21875 28.421875 74.21875 
Q 39.75 74.21875 46.484375 68.546875 
Q 53.21875 62.890625 53.21875 53.421875 
Q 53.21875 48.921875 51.53125 44.890625 
Q 49.859375 40.875 45.40625 35.40625 
Q 44.1875 33.984375 37.640625 27.21875 
Q 31.109375 20.453125 19.1875 8.296875 
z
" id="DejaVuSans-32"/>
      </defs>
      <g transform="translate(7.2 255.992085)scale(0.22 -0.22)">
       <use xlink:href="#DejaVuSans-2212"/>
       <use x="83.789062" xlink:href="#DejaVuSans-32"/>
       <use x="147.412109" xlink:href="#DejaVuSans-35"/>
       <use x="211.035156" xlink:href="#DejaVuSans-30"/>
      </g>
     </g>
    </g>
    <g id="ytick_4">
     <g id="line2d_4">
      <g>
       <use style="stroke:#000000;stroke-width:0.8;" x="74.627813" xlink:href="#mb0734533ea" y="206.679333"/>
      </g>
     </g>
     <g id="text_4">
      <!-- 0 -->
      <g transform="translate(53.630313 215.037614)scale(0.22 -0.22)">
       <use xlink:href="#DejaVuSans-30"/>
      </g>
     </g>
    </g>
    <g id="ytick_5">
     <g id="line2d_5">
      <g>
       <use style="stroke:#000000;stroke-width:0.8;" x="74.627813" xlink:href="#mb0734533ea" y="165.724861"/>
      </g>
     </g>
     <g id="text_5">
      <!-- 250 -->
      <g transform="translate(25.635313 174.083143)scale(0.22 -0.22)">
       <use xlink:href="#DejaVuSans-32"/>
       <use x="63.623047" xlink:href="#DejaVuSans-35"/>
       <use x="127.246094" xlink:href="#DejaVuSans-30"/>
      </g>
     </g>
    </g>
    <g id="ytick_6">
     <g id="line2d_6">
      <g>
       <use style="stroke:#000000;stroke-width:0.8;" x="74.627813" xlink:href="#mb0734533ea" y="124.77039"/>
      </g>
     </g>
     <g id="text_6">
      <!-- 500 -->
      <g transform="translate(25.635313 133.128671)scale(0.22 -0.22)">
       <use xlink:href="#DejaVuSans-35"/>
       <use x="63.623047" xlink:href="#DejaVuSans-30"/>
       <use x="127.246094" xlink:href="#DejaVuSans-30"/>
      </g>
     </g>
    </g>
    <g id="ytick_7">
     <g id="line2d_7">
      <g>
       <use style="stroke:#000000;stroke-width:0.8;" x="74.627813" xlink:href="#mb0734533ea" y="83.815919"/>
      </g>
     </g>
     <g id="text_7">
      <!-- 750 -->
      <g transform="translate(25.635313 92.1742)scale(0.22 -0.22)">
       <use xlink:href="#DejaVuSans-37"/>
       <use x="63.623047" xlink:href="#DejaVuSans-35"/>
       <use x="127.246094" xlink:href="#DejaVuSans-30"/>
      </g>
     </g>
    </g>
    <g id="ytick_8">
     <g id="line2d_8">
      <g>
       <use style="stroke:#000000;stroke-width:0.8;" x="74.627813" xlink:href="#mb0734533ea" y="42.861447"/>
      </g>
     </g>
     <g id="text_8">
      <!-- 1000 -->
      <defs>
       <path d="M 12.40625 8.296875 
L 28.515625 8.296875 
L 28.515625 63.921875 
L 10.984375 60.40625 
L 10.984375 69.390625 
L 28.421875 72.90625 
L 38.28125 72.90625 
L 38.28125 8.296875 
L 54.390625 8.296875 
L 54.390625 0 
L 12.40625 0 
z
" id="DejaVuSans-31"/>
      </defs>
      <g transform="translate(11.637813 51.219729)scale(0.22 -0.22)">
       <use xlink:href="#DejaVuSans-31"/>
       <use x="63.623047" xlink:href="#DejaVuSans-30"/>
       <use x="127.246094" xlink:href="#DejaVuSans-30"/>
       <use x="190.869141" xlink:href="#DejaVuSans-30"/>
      </g>
     </g>
    </g>
   </g>
   <g id="patch_3">
    <path d="M 74.627813 343.34 
L 74.627813 10.7 
" style="fill:none;stroke:#000000;stroke-linecap:square;stroke-linejoin:miter;stroke-width:0.8;"/>
   </g>
   <g id="patch_4">
    <path d="M 409.427813 343.34 
L 409.427813 10.7 
" style="fill:none;stroke:#000000;stroke-linecap:square;stroke-linejoin:miter;stroke-width:0.8;"/>
   </g>
   <g id="patch_5">
    <path d="M 74.627813 343.34 
L 409.427813 343.34 
" style="fill:none;stroke:#000000;stroke-linecap:square;stroke-linejoin:miter;stroke-width:0.8;"/>
   </g>
   <g id="patch_6">
    <path d="M 74.627813 10.7 
L 409.427813 10.7 
" style="fill:none;stroke:#000000;stroke-linecap:square;stroke-linejoin:miter;stroke-width:0.8;"/>
   </g>
  </g>
 </g>
 <defs>
  <clipPath id="pb94001aab6">
   <rect height="332.64" width="334.8" x="74.627813" y="10.7"/>
  </clipPath>
 </defs>
</svg>
