<?xml version="1.0" encoding="utf-8" standalone="no"?>
<!DOCTYPE svg PUBLIC "-//W3C//DTD SVG 1.1//EN"
  "http://www.w3.org/Graphics/SVG/1.1/DTD/svg11.dtd">
<!-- Created with matplotlib (http://matplotlib.org/) -->
<svg height="209pt" version="1.1" viewBox="0 0 497 209" width="497pt" xmlns="http://www.w3.org/2000/svg" xmlns:xlink="http://www.w3.org/1999/xlink">
 <defs>
  <style type="text/css">
*{stroke-linecap:butt;stroke-linejoin:round;}
  </style>
 </defs>
 <g id="figure_1">
  <g id="patch_1">
   <path d="M 0 209.920625 
L 497.806803 209.920625 
L 497.806803 0 
L 0 0 
z
" style="fill:#ffffff;"/>
  </g>
  <g id="axes_1">
   <g id="patch_2">
    <path d="M 45.88 178.3 
L 487.106803 178.3 
L 487.106803 10.7 
L 45.88 10.7 
z
" style="fill:#ffffff;"/>
   </g>
   <g id="QuadMesh_1">
    <path clip-path="url(#pc553692971)" d="M 45.88 178.3 
L 51.1327 178.3 
L 51.1327 144.78 
L 45.88 144.78 
L 45.88 178.3 
" style="fill:#270000;"/>
    <path clip-path="url(#pc553692971)" d="M 51.1327 178.3 
L 56.3854 178.3 
L 56.3854 144.78 
L 51.1327 144.78 
L 51.1327 178.3 
" style="fill:#270000;"/>
    <path clip-path="url(#pc553692971)" d="M 56.3854 178.3 
L 61.6381 178.3 
L 61.6381 144.78 
L 56.3854 144.78 
L 56.3854 178.3 
" style="fill:#270000;"/>
    <path clip-path="url(#pc553692971)" d="M 61.6381 178.3 
L 66.8908 178.3 
L 66.8908 144.78 
L 61.6381 144.78 
L 61.6381 178.3 
" style="fill:#270000;"/>
    <path clip-path="url(#pc553692971)" d="M 66.8908 178.3 
L 72.1435 178.3 
L 72.1435 144.78 
L 66.8908 144.78 
L 66.8908 178.3 
" style="fill:#270000;"/>
    <path clip-path="url(#pc553692971)" d="M 72.1435 178.3 
L 77.3962 178.3 
L 77.3962 144.78 
L 72.1435 144.78 
L 72.1435 178.3 
" style="fill:#270000;"/>
    <path clip-path="url(#pc553692971)" d="M 77.3962 178.3 
L 82.6489 178.3 
L 82.6489 144.78 
L 77.3962 144.78 
L 77.3962 178.3 
" style="fill:#270000;"/>
    <path clip-path="url(#pc553692971)" d="M 82.6489 178.3 
L 87.9016 178.3 
L 87.9016 144.78 
L 82.6489 144.78 
L 82.6489 178.3 
" style="fill:#270000;"/>
    <path clip-path="url(#pc553692971)" d="M 87.9016 178.3 
L 93.1543 178.3 
L 93.1543 144.78 
L 87.9016 144.78 
L 87.9016 178.3 
" style="fill:#270000;"/>
    <path clip-path="url(#pc553692971)" d="M 93.1543 178.3 
L 98.407 178.3 
L 98.407 144.78 
L 93.1543 144.78 
L 93.1543 178.3 
" style="fill:#270000;"/>
    <path clip-path="url(#pc553692971)" d="M 98.407 178.3 
L 103.6597 178.3 
L 103.6597 144.78 
L 98.407 144.78 
L 98.407 178.3 
" style="fill:#270000;"/>
    <path clip-path="url(#pc553692971)" d="M 103.6597 178.3 
L 108.9124 178.3 
L 108.9124 144.78 
L 103.6597 144.78 
L 103.6597 178.3 
" style="fill:#270000;"/>
    <path clip-path="url(#pc553692971)" d="M 108.9124 178.3 
L 114.1651 178.3 
L 114.1651 144.78 
L 108.9124 144.78 
L 108.9124 178.3 
" style="fill:#270000;"/>
    <path clip-path="url(#pc553692971)" d="M 114.1651 178.3 
L 119.417801 178.3 
L 119.417801 144.78 
L 114.1651 144.78 
L 114.1651 178.3 
" style="fill:#270000;"/>
    <path clip-path="url(#pc553692971)" d="M 119.417801 178.3 
L 124.670501 178.3 
L 124.670501 144.78 
L 119.417801 144.78 
L 119.417801 178.3 
" style="fill:#270000;"/>
    <path clip-path="url(#pc553692971)" d="M 124.670501 178.3 
L 129.923201 178.3 
L 129.923201 144.78 
L 124.670501 144.78 
L 124.670501 178.3 
" style="fill:#270000;"/>
    <path clip-path="url(#pc553692971)" d="M 129.923201 178.3 
L 135.175901 178.3 
L 135.175901 144.78 
L 129.923201 144.78 
L 129.923201 178.3 
" style="fill:#270000;"/>
    <path clip-path="url(#pc553692971)" d="M 135.175901 178.3 
L 140.428601 178.3 
L 140.428601 144.78 
L 135.175901 144.78 
L 135.175901 178.3 
" style="fill:#270000;"/>
    <path clip-path="url(#pc553692971)" d="M 140.428601 178.3 
L 145.681301 178.3 
L 145.681301 144.78 
L 140.428601 144.78 
L 140.428601 178.3 
" style="fill:#270000;"/>
    <path clip-path="url(#pc553692971)" d="M 145.681301 178.3 
L 150.934001 178.3 
L 150.934001 144.78 
L 145.681301 144.78 
L 145.681301 178.3 
" style="fill:#270000;"/>
    <path clip-path="url(#pc553692971)" d="M 150.934001 178.3 
L 156.186701 178.3 
L 156.186701 144.78 
L 150.934001 144.78 
L 150.934001 178.3 
" style="fill:#270000;"/>
    <path clip-path="url(#pc553692971)" d="M 156.186701 178.3 
L 161.439401 178.3 
L 161.439401 144.78 
L 156.186701 144.78 
L 156.186701 178.3 
" style="fill:#270000;"/>
    <path clip-path="url(#pc553692971)" d="M 161.439401 178.3 
L 166.692101 178.3 
L 166.692101 144.78 
L 161.439401 144.78 
L 161.439401 178.3 
" style="fill:#270000;"/>
    <path clip-path="url(#pc553692971)" d="M 166.692101 178.3 
L 171.944801 178.3 
L 171.944801 144.78 
L 166.692101 144.78 
L 166.692101 178.3 
" style="fill:#a30000;"/>
    <path clip-path="url(#pc553692971)" d="M 171.944801 178.3 
L 177.197501 178.3 
L 177.197501 144.78 
L 171.944801 144.78 
L 171.944801 178.3 
" style="fill:#c00000;"/>
    <path clip-path="url(#pc553692971)" d="M 177.197501 178.3 
L 182.450201 178.3 
L 182.450201 144.78 
L 177.197501 144.78 
L 177.197501 178.3 
" style="fill:#c00000;"/>
    <path clip-path="url(#pc553692971)" d="M 182.450201 178.3 
L 187.702901 178.3 
L 187.702901 144.78 
L 182.450201 144.78 
L 182.450201 178.3 
" style="fill:#c00000;"/>
    <path clip-path="url(#pc553692971)" d="M 187.702901 178.3 
L 192.955601 178.3 
L 192.955601 144.78 
L 187.702901 144.78 
L 187.702901 178.3 
" style="fill:#c00000;"/>
    <path clip-path="url(#pc553692971)" d="M 192.955601 178.3 
L 198.208301 178.3 
L 198.208301 144.78 
L 192.955601 144.78 
L 192.955601 178.3 
" style="fill:#df0000;"/>
    <path clip-path="url(#pc553692971)" d="M 198.208301 178.3 
L 203.461001 178.3 
L 203.461001 144.78 
L 198.208301 144.78 
L 198.208301 178.3 
" style="fill:#df0000;"/>
    <path clip-path="url(#pc553692971)" d="M 203.461001 178.3 
L 208.713701 178.3 
L 208.713701 144.78 
L 203.461001 144.78 
L 203.461001 178.3 
" style="fill:#df0000;"/>
    <path clip-path="url(#pc553692971)" d="M 208.713701 178.3 
L 213.966401 178.3 
L 213.966401 144.78 
L 208.713701 144.78 
L 208.713701 178.3 
" style="fill:#df0000;"/>
    <path clip-path="url(#pc553692971)" d="M 213.966401 178.3 
L 219.219101 178.3 
L 219.219101 144.78 
L 213.966401 144.78 
L 213.966401 178.3 
" style="fill:#df0000;"/>
    <path clip-path="url(#pc553692971)" d="M 219.219101 178.3 
L 224.471801 178.3 
L 224.471801 144.78 
L 219.219101 144.78 
L 219.219101 178.3 
" style="fill:#df0000;"/>
    <path clip-path="url(#pc553692971)" d="M 224.471801 178.3 
L 229.724501 178.3 
L 229.724501 144.78 
L 224.471801 144.78 
L 224.471801 178.3 
" style="fill:#ff0000;"/>
    <path clip-path="url(#pc553692971)" d="M 229.724501 178.3 
L 234.977201 178.3 
L 234.977201 144.78 
L 229.724501 144.78 
L 229.724501 178.3 
" style="fill:#df0000;"/>
    <path clip-path="url(#pc553692971)" d="M 234.977201 178.3 
L 240.229901 178.3 
L 240.229901 144.78 
L 234.977201 144.78 
L 234.977201 178.3 
" style="fill:#ff0000;"/>
    <path clip-path="url(#pc553692971)" d="M 240.229901 178.3 
L 245.482601 178.3 
L 245.482601 144.78 
L 240.229901 144.78 
L 240.229901 178.3 
" style="fill:#ff0000;"/>
    <path clip-path="url(#pc553692971)" d="M 245.482601 178.3 
L 250.735301 178.3 
L 250.735301 144.78 
L 245.482601 144.78 
L 245.482601 178.3 
" style="fill:#ff0000;"/>
    <path clip-path="url(#pc553692971)" d="M 250.735301 178.3 
L 255.988001 178.3 
L 255.988001 144.78 
L 250.735301 144.78 
L 250.735301 178.3 
" style="fill:#ff0000;"/>
    <path clip-path="url(#pc553692971)" d="M 255.988001 178.3 
L 261.240702 178.3 
L 261.240702 144.78 
L 255.988001 144.78 
L 255.988001 178.3 
" style="fill:#ff0000;"/>
    <path clip-path="url(#pc553692971)" d="M 261.240702 178.3 
L 266.493402 178.3 
L 266.493402 144.78 
L 261.240702 144.78 
L 261.240702 178.3 
" style="fill:#ff0000;"/>
    <path clip-path="url(#pc553692971)" d="M 266.493402 178.3 
L 271.746102 178.3 
L 271.746102 144.78 
L 266.493402 144.78 
L 266.493402 178.3 
" style="fill:#ff0000;"/>
    <path clip-path="url(#pc553692971)" d="M 271.746102 178.3 
L 276.998802 178.3 
L 276.998802 144.78 
L 271.746102 144.78 
L 271.746102 178.3 
" style="fill:#ff0000;"/>
    <path clip-path="url(#pc553692971)" d="M 276.998802 178.3 
L 282.251502 178.3 
L 282.251502 144.78 
L 276.998802 144.78 
L 276.998802 178.3 
" style="fill:#ff1d00;"/>
    <path clip-path="url(#pc553692971)" d="M 282.251502 178.3 
L 287.504202 178.3 
L 287.504202 144.78 
L 282.251502 144.78 
L 282.251502 178.3 
" style="fill:#ff1d00;"/>
    <path clip-path="url(#pc553692971)" d="M 287.504202 178.3 
L 292.756902 178.3 
L 292.756902 144.78 
L 287.504202 144.78 
L 287.504202 178.3 
" style="fill:#ff3c00;"/>
    <path clip-path="url(#pc553692971)" d="M 292.756902 178.3 
L 298.009602 178.3 
L 298.009602 144.78 
L 292.756902 144.78 
L 292.756902 178.3 
" style="fill:#ff3c00;"/>
    <path clip-path="url(#pc553692971)" d="M 298.009602 178.3 
L 303.262302 178.3 
L 303.262302 144.78 
L 298.009602 144.78 
L 298.009602 178.3 
" style="fill:#ff3c00;"/>
    <path clip-path="url(#pc553692971)" d="M 303.262302 178.3 
L 308.515002 178.3 
L 308.515002 144.78 
L 303.262302 144.78 
L 303.262302 178.3 
" style="fill:#ff5c00;"/>
    <path clip-path="url(#pc553692971)" d="M 308.515002 178.3 
L 313.767702 178.3 
L 313.767702 144.78 
L 308.515002 144.78 
L 308.515002 178.3 
" style="fill:#ff5c00;"/>
    <path clip-path="url(#pc553692971)" d="M 313.767702 178.3 
L 319.020402 178.3 
L 319.020402 144.78 
L 313.767702 144.78 
L 313.767702 178.3 
" style="fill:#ff5c00;"/>
    <path clip-path="url(#pc553692971)" d="M 319.020402 178.3 
L 324.273102 178.3 
L 324.273102 144.78 
L 319.020402 144.78 
L 319.020402 178.3 
" style="fill:#ff5c00;"/>
    <path clip-path="url(#pc553692971)" d="M 324.273102 178.3 
L 329.525802 178.3 
L 329.525802 144.78 
L 324.273102 144.78 
L 324.273102 178.3 
" style="fill:#ff5c00;"/>
    <path clip-path="url(#pc553692971)" d="M 329.525802 178.3 
L 334.778502 178.3 
L 334.778502 144.78 
L 329.525802 144.78 
L 329.525802 178.3 
" style="fill:#ff7900;"/>
    <path clip-path="url(#pc553692971)" d="M 334.778502 178.3 
L 340.031202 178.3 
L 340.031202 144.78 
L 334.778502 144.78 
L 334.778502 178.3 
" style="fill:#ff5c00;"/>
    <path clip-path="url(#pc553692971)" d="M 340.031202 178.3 
L 345.283902 178.3 
L 345.283902 144.78 
L 340.031202 144.78 
L 340.031202 178.3 
" style="fill:#ff5c00;"/>
    <path clip-path="url(#pc553692971)" d="M 345.283902 178.3 
L 350.536602 178.3 
L 350.536602 144.78 
L 345.283902 144.78 
L 345.283902 178.3 
" style="fill:#ff5c00;"/>
    <path clip-path="url(#pc553692971)" d="M 350.536602 178.3 
L 355.789302 178.3 
L 355.789302 144.78 
L 350.536602 144.78 
L 350.536602 178.3 
" style="fill:#ff7900;"/>
    <path clip-path="url(#pc553692971)" d="M 355.789302 178.3 
L 361.042002 178.3 
L 361.042002 144.78 
L 355.789302 144.78 
L 355.789302 178.3 
" style="fill:#ff9800;"/>
    <path clip-path="url(#pc553692971)" d="M 361.042002 178.3 
L 366.294702 178.3 
L 366.294702 144.78 
L 361.042002 144.78 
L 361.042002 178.3 
" style="fill:#ff9800;"/>
    <path clip-path="url(#pc553692971)" d="M 366.294702 178.3 
L 371.547402 178.3 
L 371.547402 144.78 
L 366.294702 144.78 
L 366.294702 178.3 
" style="fill:#ff9800;"/>
    <path clip-path="url(#pc553692971)" d="M 371.547402 178.3 
L 376.800102 178.3 
L 376.800102 144.78 
L 371.547402 144.78 
L 371.547402 178.3 
" style="fill:#ff9800;"/>
    <path clip-path="url(#pc553692971)" d="M 376.800102 178.3 
L 382.052802 178.3 
L 382.052802 144.78 
L 376.800102 144.78 
L 376.800102 178.3 
" style="fill:#ffd400;"/>
    <path clip-path="url(#pc553692971)" d="M 382.052802 178.3 
L 387.305502 178.3 
L 387.305502 144.78 
L 382.052802 144.78 
L 382.052802 178.3 
" style="fill:#ffd400;"/>
    <path clip-path="url(#pc553692971)" d="M 387.305502 178.3 
L 392.558202 178.3 
L 392.558202 144.78 
L 387.305502 144.78 
L 387.305502 178.3 
" style="fill:#ffd400;"/>
    <path clip-path="url(#pc553692971)" d="M 392.558202 178.3 
L 397.810902 178.3 
L 397.810902 144.78 
L 392.558202 144.78 
L 392.558202 178.3 
" style="fill:#ffd400;"/>
    <path clip-path="url(#pc553692971)" d="M 397.810902 178.3 
L 403.063603 178.3 
L 403.063603 144.78 
L 397.810902 144.78 
L 397.810902 178.3 
" style="fill:#ffd400;"/>
    <path clip-path="url(#pc553692971)" d="M 403.063603 178.3 
L 408.316303 178.3 
L 408.316303 144.78 
L 403.063603 144.78 
L 403.063603 178.3 
" style="fill:#ffd400;"/>
    <path clip-path="url(#pc553692971)" d="M 408.316303 178.3 
L 413.569003 178.3 
L 413.569003 144.78 
L 408.316303 144.78 
L 408.316303 178.3 
" style="fill:#ffd400;"/>
    <path clip-path="url(#pc553692971)" d="M 413.569003 178.3 
L 418.821703 178.3 
L 418.821703 144.78 
L 413.569003 144.78 
L 413.569003 178.3 
" style="fill:#ffd400;"/>
    <path clip-path="url(#pc553692971)" d="M 418.821703 178.3 
L 424.074403 178.3 
L 424.074403 144.78 
L 418.821703 144.78 
L 418.821703 178.3 
" style="fill:#ffd400;"/>
    <path clip-path="url(#pc553692971)" d="M 424.074403 178.3 
L 429.327103 178.3 
L 429.327103 144.78 
L 424.074403 144.78 
L 424.074403 178.3 
" style="fill:#fff400;"/>
    <path clip-path="url(#pc553692971)" d="M 429.327103 178.3 
L 434.579803 178.3 
L 434.579803 144.78 
L 429.327103 144.78 
L 429.327103 178.3 
" style="fill:#fff400;"/>
    <path clip-path="url(#pc553692971)" d="M 434.579803 178.3 
L 439.832503 178.3 
L 439.832503 144.78 
L 434.579803 144.78 
L 434.579803 178.3 
" style="fill:#fff400;"/>
    <path clip-path="url(#pc553692971)" d="M 439.832503 178.3 
L 445.085203 178.3 
L 445.085203 144.78 
L 439.832503 144.78 
L 439.832503 178.3 
" style="fill:#fff400;"/>
    <path clip-path="url(#pc553692971)" d="M 445.085203 178.3 
L 450.337903 178.3 
L 450.337903 144.78 
L 445.085203 144.78 
L 445.085203 178.3 
" style="fill:#fff400;"/>
    <path clip-path="url(#pc553692971)" d="M 450.337903 178.3 
L 455.590603 178.3 
L 455.590603 144.78 
L 450.337903 144.78 
L 450.337903 178.3 
" style="fill:#fff400;"/>
    <path clip-path="url(#pc553692971)" d="M 455.590603 178.3 
L 460.843303 178.3 
L 460.843303 144.78 
L 455.590603 144.78 
L 455.590603 178.3 
" style="fill:#fff400;"/>
    <path clip-path="url(#pc553692971)" d="M 460.843303 178.3 
L 466.096003 178.3 
L 466.096003 144.78 
L 460.843303 144.78 
L 460.843303 178.3 
" style="fill:#fff400;"/>
    <path clip-path="url(#pc553692971)" d="M 466.096003 178.3 
L 471.348703 178.3 
L 471.348703 144.78 
L 466.096003 144.78 
L 466.096003 178.3 
" style="fill:#fff400;"/>
    <path clip-path="url(#pc553692971)" d="M 471.348703 178.3 
L 476.601403 178.3 
L 476.601403 144.78 
L 471.348703 144.78 
L 471.348703 178.3 
" style="fill:#fff400;"/>
    <path clip-path="url(#pc553692971)" d="M 476.601403 178.3 
L 481.854103 178.3 
L 481.854103 144.78 
L 476.601403 144.78 
L 476.601403 178.3 
" style="fill:#fff400;"/>
    <path clip-path="url(#pc553692971)" d="M 481.854103 178.3 
L 487.106803 178.3 
L 487.106803 144.78 
L 481.854103 144.78 
L 481.854103 178.3 
" style="fill:#fff400;"/>
    <path clip-path="url(#pc553692971)" d="M 45.88 144.78 
L 51.1327 144.78 
L 51.1327 111.26 
L 45.88 111.26 
L 45.88 144.78 
" style="fill:#270000;"/>
    <path clip-path="url(#pc553692971)" d="M 51.1327 144.78 
L 56.3854 144.78 
L 56.3854 111.26 
L 51.1327 111.26 
L 51.1327 144.78 
" style="fill:#270000;"/>
    <path clip-path="url(#pc553692971)" d="M 56.3854 144.78 
L 61.6381 144.78 
L 61.6381 111.26 
L 56.3854 111.26 
L 56.3854 144.78 
" style="fill:#270000;"/>
    <path clip-path="url(#pc553692971)" d="M 61.6381 144.78 
L 66.8908 144.78 
L 66.8908 111.26 
L 61.6381 111.26 
L 61.6381 144.78 
" style="fill:#270000;"/>
    <path clip-path="url(#pc553692971)" d="M 66.8908 144.78 
L 72.1435 144.78 
L 72.1435 111.26 
L 66.8908 111.26 
L 66.8908 144.78 
" style="fill:#270000;"/>
    <path clip-path="url(#pc553692971)" d="M 72.1435 144.78 
L 77.3962 144.78 
L 77.3962 111.26 
L 72.1435 111.26 
L 72.1435 144.78 
" style="fill:#270000;"/>
    <path clip-path="url(#pc553692971)" d="M 77.3962 144.78 
L 82.6489 144.78 
L 82.6489 111.26 
L 77.3962 111.26 
L 77.3962 144.78 
" style="fill:#270000;"/>
    <path clip-path="url(#pc553692971)" d="M 82.6489 144.78 
L 87.9016 144.78 
L 87.9016 111.26 
L 82.6489 111.26 
L 82.6489 144.78 
" style="fill:#270000;"/>
    <path clip-path="url(#pc553692971)" d="M 87.9016 144.78 
L 93.1543 144.78 
L 93.1543 111.26 
L 87.9016 111.26 
L 87.9016 144.78 
" style="fill:#270000;"/>
    <path clip-path="url(#pc553692971)" d="M 93.1543 144.78 
L 98.407 144.78 
L 98.407 111.26 
L 93.1543 111.26 
L 93.1543 144.78 
" style="fill:#270000;"/>
    <path clip-path="url(#pc553692971)" d="M 98.407 144.78 
L 103.6597 144.78 
L 103.6597 111.26 
L 98.407 111.26 
L 98.407 144.78 
" style="fill:#270000;"/>
    <path clip-path="url(#pc553692971)" d="M 103.6597 144.78 
L 108.9124 144.78 
L 108.9124 111.26 
L 103.6597 111.26 
L 103.6597 144.78 
" style="fill:#270000;"/>
    <path clip-path="url(#pc553692971)" d="M 108.9124 144.78 
L 114.1651 144.78 
L 114.1651 111.26 
L 108.9124 111.26 
L 108.9124 144.78 
" style="fill:#270000;"/>
    <path clip-path="url(#pc553692971)" d="M 114.1651 144.78 
L 119.417801 144.78 
L 119.417801 111.26 
L 114.1651 111.26 
L 114.1651 144.78 
" style="fill:#270000;"/>
    <path clip-path="url(#pc553692971)" d="M 119.417801 144.78 
L 124.670501 144.78 
L 124.670501 111.26 
L 119.417801 111.26 
L 119.417801 144.78 
" style="fill:#270000;"/>
    <path clip-path="url(#pc553692971)" d="M 124.670501 144.78 
L 129.923201 144.78 
L 129.923201 111.26 
L 124.670501 111.26 
L 124.670501 144.78 
" style="fill:#270000;"/>
    <path clip-path="url(#pc553692971)" d="M 129.923201 144.78 
L 135.175901 144.78 
L 135.175901 111.26 
L 129.923201 111.26 
L 129.923201 144.78 
" style="fill:#270000;"/>
    <path clip-path="url(#pc553692971)" d="M 135.175901 144.78 
L 140.428601 144.78 
L 140.428601 111.26 
L 135.175901 111.26 
L 135.175901 144.78 
" style="fill:#270000;"/>
    <path clip-path="url(#pc553692971)" d="M 140.428601 144.78 
L 145.681301 144.78 
L 145.681301 111.26 
L 140.428601 111.26 
L 140.428601 144.78 
" style="fill:#270000;"/>
    <path clip-path="url(#pc553692971)" d="M 145.681301 144.78 
L 150.934001 144.78 
L 150.934001 111.26 
L 145.681301 111.26 
L 145.681301 144.78 
" style="fill:#270000;"/>
    <path clip-path="url(#pc553692971)" d="M 150.934001 144.78 
L 156.186701 144.78 
L 156.186701 111.26 
L 150.934001 111.26 
L 150.934001 144.78 
" style="fill:#270000;"/>
    <path clip-path="url(#pc553692971)" d="M 156.186701 144.78 
L 161.439401 144.78 
L 161.439401 111.26 
L 156.186701 111.26 
L 156.186701 144.78 
" style="fill:#270000;"/>
    <path clip-path="url(#pc553692971)" d="M 161.439401 144.78 
L 166.692101 144.78 
L 166.692101 111.26 
L 161.439401 111.26 
L 161.439401 144.78 
" style="fill:#270000;"/>
    <path clip-path="url(#pc553692971)" d="M 166.692101 144.78 
L 171.944801 144.78 
L 171.944801 111.26 
L 166.692101 111.26 
L 166.692101 144.78 
" style="fill:#a30000;"/>
    <path clip-path="url(#pc553692971)" d="M 171.944801 144.78 
L 177.197501 144.78 
L 177.197501 111.26 
L 171.944801 111.26 
L 171.944801 144.78 
" style="fill:#df0000;"/>
    <path clip-path="url(#pc553692971)" d="M 177.197501 144.78 
L 182.450201 144.78 
L 182.450201 111.26 
L 177.197501 111.26 
L 177.197501 144.78 
" style="fill:#df0000;"/>
    <path clip-path="url(#pc553692971)" d="M 182.450201 144.78 
L 187.702901 144.78 
L 187.702901 111.26 
L 182.450201 111.26 
L 182.450201 144.78 
" style="fill:#df0000;"/>
    <path clip-path="url(#pc553692971)" d="M 187.702901 144.78 
L 192.955601 144.78 
L 192.955601 111.26 
L 187.702901 111.26 
L 187.702901 144.78 
" style="fill:#df0000;"/>
    <path clip-path="url(#pc553692971)" d="M 192.955601 144.78 
L 198.208301 144.78 
L 198.208301 111.26 
L 192.955601 111.26 
L 192.955601 144.78 
" style="fill:#ff0000;"/>
    <path clip-path="url(#pc553692971)" d="M 198.208301 144.78 
L 203.461001 144.78 
L 203.461001 111.26 
L 198.208301 111.26 
L 198.208301 144.78 
" style="fill:#ff0000;"/>
    <path clip-path="url(#pc553692971)" d="M 203.461001 144.78 
L 208.713701 144.78 
L 208.713701 111.26 
L 203.461001 111.26 
L 203.461001 144.78 
" style="fill:#ff0000;"/>
    <path clip-path="url(#pc553692971)" d="M 208.713701 144.78 
L 213.966401 144.78 
L 213.966401 111.26 
L 208.713701 111.26 
L 208.713701 144.78 
" style="fill:#ff0000;"/>
    <path clip-path="url(#pc553692971)" d="M 213.966401 144.78 
L 219.219101 144.78 
L 219.219101 111.26 
L 213.966401 111.26 
L 213.966401 144.78 
" style="fill:#ff0000;"/>
    <path clip-path="url(#pc553692971)" d="M 219.219101 144.78 
L 224.471801 144.78 
L 224.471801 111.26 
L 219.219101 111.26 
L 219.219101 144.78 
" style="fill:#ff0000;"/>
    <path clip-path="url(#pc553692971)" d="M 224.471801 144.78 
L 229.724501 144.78 
L 229.724501 111.26 
L 224.471801 111.26 
L 224.471801 144.78 
" style="fill:#ff1d00;"/>
    <path clip-path="url(#pc553692971)" d="M 229.724501 144.78 
L 234.977201 144.78 
L 234.977201 111.26 
L 229.724501 111.26 
L 229.724501 144.78 
" style="fill:#ff3c00;"/>
    <path clip-path="url(#pc553692971)" d="M 234.977201 144.78 
L 240.229901 144.78 
L 240.229901 111.26 
L 234.977201 111.26 
L 234.977201 144.78 
" style="fill:#ff3c00;"/>
    <path clip-path="url(#pc553692971)" d="M 240.229901 144.78 
L 245.482601 144.78 
L 245.482601 111.26 
L 240.229901 111.26 
L 240.229901 144.78 
" style="fill:#ff5c00;"/>
    <path clip-path="url(#pc553692971)" d="M 245.482601 144.78 
L 250.735301 144.78 
L 250.735301 111.26 
L 245.482601 111.26 
L 245.482601 144.78 
" style="fill:#ff5c00;"/>
    <path clip-path="url(#pc553692971)" d="M 250.735301 144.78 
L 255.988001 144.78 
L 255.988001 111.26 
L 250.735301 111.26 
L 250.735301 144.78 
" style="fill:#ff5c00;"/>
    <path clip-path="url(#pc553692971)" d="M 255.988001 144.78 
L 261.240702 144.78 
L 261.240702 111.26 
L 255.988001 111.26 
L 255.988001 144.78 
" style="fill:#ff7900;"/>
    <path clip-path="url(#pc553692971)" d="M 261.240702 144.78 
L 266.493402 144.78 
L 266.493402 111.26 
L 261.240702 111.26 
L 261.240702 144.78 
" style="fill:#ff5c00;"/>
    <path clip-path="url(#pc553692971)" d="M 266.493402 144.78 
L 271.746102 144.78 
L 271.746102 111.26 
L 266.493402 111.26 
L 266.493402 144.78 
" style="fill:#ff5c00;"/>
    <path clip-path="url(#pc553692971)" d="M 271.746102 144.78 
L 276.998802 144.78 
L 276.998802 111.26 
L 271.746102 111.26 
L 271.746102 144.78 
" style="fill:#ff9800;"/>
    <path clip-path="url(#pc553692971)" d="M 276.998802 144.78 
L 282.251502 144.78 
L 282.251502 111.26 
L 276.998802 111.26 
L 276.998802 144.78 
" style="fill:#ff9800;"/>
    <path clip-path="url(#pc553692971)" d="M 282.251502 144.78 
L 287.504202 144.78 
L 287.504202 111.26 
L 282.251502 111.26 
L 282.251502 144.78 
" style="fill:#ffb500;"/>
    <path clip-path="url(#pc553692971)" d="M 287.504202 144.78 
L 292.756902 144.78 
L 292.756902 111.26 
L 287.504202 111.26 
L 287.504202 144.78 
" style="fill:#ffd400;"/>
    <path clip-path="url(#pc553692971)" d="M 292.756902 144.78 
L 298.009602 144.78 
L 298.009602 111.26 
L 292.756902 111.26 
L 292.756902 144.78 
" style="fill:#ffd400;"/>
    <path clip-path="url(#pc553692971)" d="M 298.009602 144.78 
L 303.262302 144.78 
L 303.262302 111.26 
L 298.009602 111.26 
L 298.009602 144.78 
" style="fill:#ffd400;"/>
    <path clip-path="url(#pc553692971)" d="M 303.262302 144.78 
L 308.515002 144.78 
L 308.515002 111.26 
L 303.262302 111.26 
L 303.262302 144.78 
" style="fill:#fff400;"/>
    <path clip-path="url(#pc553692971)" d="M 308.515002 144.78 
L 313.767702 144.78 
L 313.767702 111.26 
L 308.515002 111.26 
L 308.515002 144.78 
" style="fill:#ffd400;"/>
    <path clip-path="url(#pc553692971)" d="M 313.767702 144.78 
L 319.020402 144.78 
L 319.020402 111.26 
L 313.767702 111.26 
L 313.767702 144.78 
" style="fill:#fff400;"/>
    <path clip-path="url(#pc553692971)" d="M 319.020402 144.78 
L 324.273102 144.78 
L 324.273102 111.26 
L 319.020402 111.26 
L 319.020402 144.78 
" style="fill:#fff400;"/>
    <path clip-path="url(#pc553692971)" d="M 324.273102 144.78 
L 329.525802 144.78 
L 329.525802 111.26 
L 324.273102 111.26 
L 324.273102 144.78 
" style="fill:#fff400;"/>
    <path clip-path="url(#pc553692971)" d="M 329.525802 144.78 
L 334.778502 144.78 
L 334.778502 111.26 
L 329.525802 111.26 
L 329.525802 144.78 
" style="fill:#fff400;"/>
    <path clip-path="url(#pc553692971)" d="M 334.778502 144.78 
L 340.031202 144.78 
L 340.031202 111.26 
L 334.778502 111.26 
L 334.778502 144.78 
" style="fill:#fff400;"/>
    <path clip-path="url(#pc553692971)" d="M 340.031202 144.78 
L 345.283902 144.78 
L 345.283902 111.26 
L 340.031202 111.26 
L 340.031202 144.78 
" style="fill:#fff400;"/>
    <path clip-path="url(#pc553692971)" d="M 345.283902 144.78 
L 350.536602 144.78 
L 350.536602 111.26 
L 345.283902 111.26 
L 345.283902 144.78 
" style="fill:#fff400;"/>
    <path clip-path="url(#pc553692971)" d="M 350.536602 144.78 
L 355.789302 144.78 
L 355.789302 111.26 
L 350.536602 111.26 
L 350.536602 144.78 
" style="fill:#fff400;"/>
    <path clip-path="url(#pc553692971)" d="M 355.789302 144.78 
L 361.042002 144.78 
L 361.042002 111.26 
L 355.789302 111.26 
L 355.789302 144.78 
" style="fill:#ffff1b;"/>
    <path clip-path="url(#pc553692971)" d="M 361.042002 144.78 
L 366.294702 144.78 
L 366.294702 111.26 
L 361.042002 111.26 
L 361.042002 144.78 
" style="fill:#ffff1b;"/>
    <path clip-path="url(#pc553692971)" d="M 366.294702 144.78 
L 371.547402 144.78 
L 371.547402 111.26 
L 366.294702 111.26 
L 366.294702 144.78 
" style="fill:#ffff1b;"/>
    <path clip-path="url(#pc553692971)" d="M 371.547402 144.78 
L 376.800102 144.78 
L 376.800102 111.26 
L 371.547402 111.26 
L 371.547402 144.78 
" style="fill:#ffff1b;"/>
    <path clip-path="url(#pc553692971)" d="M 376.800102 144.78 
L 382.052802 144.78 
L 382.052802 111.26 
L 376.800102 111.26 
L 376.800102 144.78 
" style="fill:#ffff1b;"/>
    <path clip-path="url(#pc553692971)" d="M 382.052802 144.78 
L 387.305502 144.78 
L 387.305502 111.26 
L 382.052802 111.26 
L 382.052802 144.78 
" style="fill:#ffff1b;"/>
    <path clip-path="url(#pc553692971)" d="M 387.305502 144.78 
L 392.558202 144.78 
L 392.558202 111.26 
L 387.305502 111.26 
L 387.305502 144.78 
" style="fill:#ffff1b;"/>
    <path clip-path="url(#pc553692971)" d="M 392.558202 144.78 
L 397.810902 144.78 
L 397.810902 111.26 
L 392.558202 111.26 
L 392.558202 144.78 
" style="fill:#ffff1b;"/>
    <path clip-path="url(#pc553692971)" d="M 397.810902 144.78 
L 403.063603 144.78 
L 403.063603 111.26 
L 397.810902 111.26 
L 397.810902 144.78 
" style="fill:#ffff1b;"/>
    <path clip-path="url(#pc553692971)" d="M 403.063603 144.78 
L 408.316303 144.78 
L 408.316303 111.26 
L 403.063603 111.26 
L 403.063603 144.78 
" style="fill:#ffff1b;"/>
    <path clip-path="url(#pc553692971)" d="M 408.316303 144.78 
L 413.569003 144.78 
L 413.569003 111.26 
L 408.316303 111.26 
L 408.316303 144.78 
" style="fill:#ffff1b;"/>
    <path clip-path="url(#pc553692971)" d="M 413.569003 144.78 
L 418.821703 144.78 
L 418.821703 111.26 
L 413.569003 111.26 
L 413.569003 144.78 
" style="fill:#ffff1b;"/>
    <path clip-path="url(#pc553692971)" d="M 418.821703 144.78 
L 424.074403 144.78 
L 424.074403 111.26 
L 418.821703 111.26 
L 418.821703 144.78 
" style="fill:#ffff1b;"/>
    <path clip-path="url(#pc553692971)" d="M 424.074403 144.78 
L 429.327103 144.78 
L 429.327103 111.26 
L 424.074403 111.26 
L 424.074403 144.78 
" style="fill:#ffff1b;"/>
    <path clip-path="url(#pc553692971)" d="M 429.327103 144.78 
L 434.579803 144.78 
L 434.579803 111.26 
L 429.327103 111.26 
L 429.327103 144.78 
" style="fill:#ffff1b;"/>
    <path clip-path="url(#pc553692971)" d="M 434.579803 144.78 
L 439.832503 144.78 
L 439.832503 111.26 
L 434.579803 111.26 
L 434.579803 144.78 
" style="fill:#ffff1b;"/>
    <path clip-path="url(#pc553692971)" d="M 439.832503 144.78 
L 445.085203 144.78 
L 445.085203 111.26 
L 439.832503 111.26 
L 439.832503 144.78 
" style="fill:#ffff1b;"/>
    <path clip-path="url(#pc553692971)" d="M 445.085203 144.78 
L 450.337903 144.78 
L 450.337903 111.26 
L 445.085203 111.26 
L 445.085203 144.78 
" style="fill:#ffff1b;"/>
    <path clip-path="url(#pc553692971)" d="M 450.337903 144.78 
L 455.590603 144.78 
L 455.590603 111.26 
L 450.337903 111.26 
L 450.337903 144.78 
" style="fill:#ffff1b;"/>
    <path clip-path="url(#pc553692971)" d="M 455.590603 144.78 
L 460.843303 144.78 
L 460.843303 111.26 
L 455.590603 111.26 
L 455.590603 144.78 
" style="fill:#ffff1b;"/>
    <path clip-path="url(#pc553692971)" d="M 460.843303 144.78 
L 466.096003 144.78 
L 466.096003 111.26 
L 460.843303 111.26 
L 460.843303 144.78 
" style="fill:#ffff1b;"/>
    <path clip-path="url(#pc553692971)" d="M 466.096003 144.78 
L 471.348703 144.78 
L 471.348703 111.26 
L 466.096003 111.26 
L 466.096003 144.78 
" style="fill:#ffff1b;"/>
    <path clip-path="url(#pc553692971)" d="M 471.348703 144.78 
L 476.601403 144.78 
L 476.601403 111.26 
L 471.348703 111.26 
L 471.348703 144.78 
" style="fill:#ffff1b;"/>
    <path clip-path="url(#pc553692971)" d="M 476.601403 144.78 
L 481.854103 144.78 
L 481.854103 111.26 
L 476.601403 111.26 
L 476.601403 144.78 
" style="fill:#ffff1b;"/>
    <path clip-path="url(#pc553692971)" d="M 481.854103 144.78 
L 487.106803 144.78 
L 487.106803 111.26 
L 481.854103 111.26 
L 481.854103 144.78 
" style="fill:#ffff1b;"/>
    <path clip-path="url(#pc553692971)" d="M 45.88 111.26 
L 51.1327 111.26 
L 51.1327 77.74 
L 45.88 77.74 
L 45.88 111.26 
" style="fill:#270000;"/>
    <path clip-path="url(#pc553692971)" d="M 51.1327 111.26 
L 56.3854 111.26 
L 56.3854 77.74 
L 51.1327 77.74 
L 51.1327 111.26 
" style="fill:#270000;"/>
    <path clip-path="url(#pc553692971)" d="M 56.3854 111.26 
L 61.6381 111.26 
L 61.6381 77.74 
L 56.3854 77.74 
L 56.3854 111.26 
" style="fill:#270000;"/>
    <path clip-path="url(#pc553692971)" d="M 61.6381 111.26 
L 66.8908 111.26 
L 66.8908 77.74 
L 61.6381 77.74 
L 61.6381 111.26 
" style="fill:#270000;"/>
    <path clip-path="url(#pc553692971)" d="M 66.8908 111.26 
L 72.1435 111.26 
L 72.1435 77.74 
L 66.8908 77.74 
L 66.8908 111.26 
" style="fill:#270000;"/>
    <path clip-path="url(#pc553692971)" d="M 72.1435 111.26 
L 77.3962 111.26 
L 77.3962 77.74 
L 72.1435 77.74 
L 72.1435 111.26 
" style="fill:#270000;"/>
    <path clip-path="url(#pc553692971)" d="M 77.3962 111.26 
L 82.6489 111.26 
L 82.6489 77.74 
L 77.3962 77.74 
L 77.3962 111.26 
" style="fill:#270000;"/>
    <path clip-path="url(#pc553692971)" d="M 82.6489 111.26 
L 87.9016 111.26 
L 87.9016 77.74 
L 82.6489 77.74 
L 82.6489 111.26 
" style="fill:#270000;"/>
    <path clip-path="url(#pc553692971)" d="M 87.9016 111.26 
L 93.1543 111.26 
L 93.1543 77.74 
L 87.9016 77.74 
L 87.9016 111.26 
" style="fill:#270000;"/>
    <path clip-path="url(#pc553692971)" d="M 93.1543 111.26 
L 98.407 111.26 
L 98.407 77.74 
L 93.1543 77.74 
L 93.1543 111.26 
" style="fill:#270000;"/>
    <path clip-path="url(#pc553692971)" d="M 98.407 111.26 
L 103.6597 111.26 
L 103.6597 77.74 
L 98.407 77.74 
L 98.407 111.26 
" style="fill:#270000;"/>
    <path clip-path="url(#pc553692971)" d="M 103.6597 111.26 
L 108.9124 111.26 
L 108.9124 77.74 
L 103.6597 77.74 
L 103.6597 111.26 
" style="fill:#270000;"/>
    <path clip-path="url(#pc553692971)" d="M 108.9124 111.26 
L 114.1651 111.26 
L 114.1651 77.74 
L 108.9124 77.74 
L 108.9124 111.26 
" style="fill:#270000;"/>
    <path clip-path="url(#pc553692971)" d="M 114.1651 111.26 
L 119.417801 111.26 
L 119.417801 77.74 
L 114.1651 77.74 
L 114.1651 111.26 
" style="fill:#270000;"/>
    <path clip-path="url(#pc553692971)" d="M 119.417801 111.26 
L 124.670501 111.26 
L 124.670501 77.74 
L 119.417801 77.74 
L 119.417801 111.26 
" style="fill:#270000;"/>
    <path clip-path="url(#pc553692971)" d="M 124.670501 111.26 
L 129.923201 111.26 
L 129.923201 77.74 
L 124.670501 77.74 
L 124.670501 111.26 
" style="fill:#270000;"/>
    <path clip-path="url(#pc553692971)" d="M 129.923201 111.26 
L 135.175901 111.26 
L 135.175901 77.74 
L 129.923201 77.74 
L 129.923201 111.26 
" style="fill:#270000;"/>
    <path clip-path="url(#pc553692971)" d="M 135.175901 111.26 
L 140.428601 111.26 
L 140.428601 77.74 
L 135.175901 77.74 
L 135.175901 111.26 
" style="fill:#270000;"/>
    <path clip-path="url(#pc553692971)" d="M 140.428601 111.26 
L 145.681301 111.26 
L 145.681301 77.74 
L 140.428601 77.74 
L 140.428601 111.26 
" style="fill:#270000;"/>
    <path clip-path="url(#pc553692971)" d="M 145.681301 111.26 
L 150.934001 111.26 
L 150.934001 77.74 
L 145.681301 77.74 
L 145.681301 111.26 
" style="fill:#270000;"/>
    <path clip-path="url(#pc553692971)" d="M 150.934001 111.26 
L 156.186701 111.26 
L 156.186701 77.74 
L 150.934001 77.74 
L 150.934001 111.26 
" style="fill:#270000;"/>
    <path clip-path="url(#pc553692971)" d="M 156.186701 111.26 
L 161.439401 111.26 
L 161.439401 77.74 
L 156.186701 77.74 
L 156.186701 111.26 
" style="fill:#270000;"/>
    <path clip-path="url(#pc553692971)" d="M 161.439401 111.26 
L 166.692101 111.26 
L 166.692101 77.74 
L 161.439401 77.74 
L 161.439401 111.26 
" style="fill:#270000;"/>
    <path clip-path="url(#pc553692971)" d="M 166.692101 111.26 
L 171.944801 111.26 
L 171.944801 77.74 
L 166.692101 77.74 
L 166.692101 111.26 
" style="fill:#c00000;"/>
    <path clip-path="url(#pc553692971)" d="M 171.944801 111.26 
L 177.197501 111.26 
L 177.197501 77.74 
L 171.944801 77.74 
L 171.944801 111.26 
" style="fill:#df0000;"/>
    <path clip-path="url(#pc553692971)" d="M 177.197501 111.26 
L 182.450201 111.26 
L 182.450201 77.74 
L 177.197501 77.74 
L 177.197501 111.26 
" style="fill:#ff0000;"/>
    <path clip-path="url(#pc553692971)" d="M 182.450201 111.26 
L 187.702901 111.26 
L 187.702901 77.74 
L 182.450201 77.74 
L 182.450201 111.26 
" style="fill:#ff0000;"/>
    <path clip-path="url(#pc553692971)" d="M 187.702901 111.26 
L 192.955601 111.26 
L 192.955601 77.74 
L 187.702901 77.74 
L 187.702901 111.26 
" style="fill:#ff0000;"/>
    <path clip-path="url(#pc553692971)" d="M 192.955601 111.26 
L 198.208301 111.26 
L 198.208301 77.74 
L 192.955601 77.74 
L 192.955601 111.26 
" style="fill:#ff3c00;"/>
    <path clip-path="url(#pc553692971)" d="M 198.208301 111.26 
L 203.461001 111.26 
L 203.461001 77.74 
L 198.208301 77.74 
L 198.208301 111.26 
" style="fill:#ff3c00;"/>
    <path clip-path="url(#pc553692971)" d="M 203.461001 111.26 
L 208.713701 111.26 
L 208.713701 77.74 
L 203.461001 77.74 
L 203.461001 111.26 
" style="fill:#ff5c00;"/>
    <path clip-path="url(#pc553692971)" d="M 208.713701 111.26 
L 213.966401 111.26 
L 213.966401 77.74 
L 208.713701 77.74 
L 208.713701 111.26 
" style="fill:#ff5c00;"/>
    <path clip-path="url(#pc553692971)" d="M 213.966401 111.26 
L 219.219101 111.26 
L 219.219101 77.74 
L 213.966401 77.74 
L 213.966401 111.26 
" style="fill:#ff5c00;"/>
    <path clip-path="url(#pc553692971)" d="M 219.219101 111.26 
L 224.471801 111.26 
L 224.471801 77.74 
L 219.219101 77.74 
L 219.219101 111.26 
" style="fill:#ff7900;"/>
    <path clip-path="url(#pc553692971)" d="M 224.471801 111.26 
L 229.724501 111.26 
L 229.724501 77.74 
L 224.471801 77.74 
L 224.471801 111.26 
" style="fill:#ff9800;"/>
    <path clip-path="url(#pc553692971)" d="M 229.724501 111.26 
L 234.977201 111.26 
L 234.977201 77.74 
L 229.724501 77.74 
L 229.724501 111.26 
" style="fill:#ffb500;"/>
    <path clip-path="url(#pc553692971)" d="M 234.977201 111.26 
L 240.229901 111.26 
L 240.229901 77.74 
L 234.977201 77.74 
L 234.977201 111.26 
" style="fill:#ffd400;"/>
    <path clip-path="url(#pc553692971)" d="M 240.229901 111.26 
L 245.482601 111.26 
L 245.482601 77.74 
L 240.229901 77.74 
L 240.229901 111.26 
" style="fill:#ffd400;"/>
    <path clip-path="url(#pc553692971)" d="M 245.482601 111.26 
L 250.735301 111.26 
L 250.735301 77.74 
L 245.482601 77.74 
L 245.482601 111.26 
" style="fill:#fff400;"/>
    <path clip-path="url(#pc553692971)" d="M 250.735301 111.26 
L 255.988001 111.26 
L 255.988001 77.74 
L 250.735301 77.74 
L 250.735301 111.26 
" style="fill:#fff400;"/>
    <path clip-path="url(#pc553692971)" d="M 255.988001 111.26 
L 261.240702 111.26 
L 261.240702 77.74 
L 255.988001 77.74 
L 255.988001 111.26 
" style="fill:#fff400;"/>
    <path clip-path="url(#pc553692971)" d="M 261.240702 111.26 
L 266.493402 111.26 
L 266.493402 77.74 
L 261.240702 77.74 
L 261.240702 111.26 
" style="fill:#fff400;"/>
    <path clip-path="url(#pc553692971)" d="M 266.493402 111.26 
L 271.746102 111.26 
L 271.746102 77.74 
L 266.493402 77.74 
L 266.493402 111.26 
" style="fill:#fff400;"/>
    <path clip-path="url(#pc553692971)" d="M 271.746102 111.26 
L 276.998802 111.26 
L 276.998802 77.74 
L 271.746102 77.74 
L 271.746102 111.26 
" style="fill:#ffff1b;"/>
    <path clip-path="url(#pc553692971)" d="M 276.998802 111.26 
L 282.251502 111.26 
L 282.251502 77.74 
L 276.998802 77.74 
L 276.998802 111.26 
" style="fill:#ffff1b;"/>
    <path clip-path="url(#pc553692971)" d="M 282.251502 111.26 
L 287.504202 111.26 
L 287.504202 77.74 
L 282.251502 77.74 
L 282.251502 111.26 
" style="fill:#ffff1b;"/>
    <path clip-path="url(#pc553692971)" d="M 287.504202 111.26 
L 292.756902 111.26 
L 292.756902 77.74 
L 287.504202 77.74 
L 287.504202 111.26 
" style="fill:#ffff1b;"/>
    <path clip-path="url(#pc553692971)" d="M 292.756902 111.26 
L 298.009602 111.26 
L 298.009602 77.74 
L 292.756902 77.74 
L 292.756902 111.26 
" style="fill:#ffff1b;"/>
    <path clip-path="url(#pc553692971)" d="M 298.009602 111.26 
L 303.262302 111.26 
L 303.262302 77.74 
L 298.009602 77.74 
L 298.009602 111.26 
" style="fill:#ffff1b;"/>
    <path clip-path="url(#pc553692971)" d="M 303.262302 111.26 
L 308.515002 111.26 
L 308.515002 77.74 
L 303.262302 77.74 
L 303.262302 111.26 
" style="fill:#ffff1b;"/>
    <path clip-path="url(#pc553692971)" d="M 308.515002 111.26 
L 313.767702 111.26 
L 313.767702 77.74 
L 308.515002 77.74 
L 308.515002 111.26 
" style="fill:#ffff1b;"/>
    <path clip-path="url(#pc553692971)" d="M 313.767702 111.26 
L 319.020402 111.26 
L 319.020402 77.74 
L 313.767702 77.74 
L 313.767702 111.26 
" style="fill:#ffff1b;"/>
    <path clip-path="url(#pc553692971)" d="M 319.020402 111.26 
L 324.273102 111.26 
L 324.273102 77.74 
L 319.020402 77.74 
L 319.020402 111.26 
" style="fill:#ffff1b;"/>
    <path clip-path="url(#pc553692971)" d="M 324.273102 111.26 
L 329.525802 111.26 
L 329.525802 77.74 
L 324.273102 77.74 
L 324.273102 111.26 
" style="fill:#ffff1b;"/>
    <path clip-path="url(#pc553692971)" d="M 329.525802 111.26 
L 334.778502 111.26 
L 334.778502 77.74 
L 329.525802 77.74 
L 329.525802 111.26 
" style="fill:#ffff1b;"/>
    <path clip-path="url(#pc553692971)" d="M 334.778502 111.26 
L 340.031202 111.26 
L 340.031202 77.74 
L 334.778502 77.74 
L 334.778502 111.26 
" style="fill:#ffff1b;"/>
    <path clip-path="url(#pc553692971)" d="M 340.031202 111.26 
L 345.283902 111.26 
L 345.283902 77.74 
L 340.031202 77.74 
L 340.031202 111.26 
" style="fill:#ffff1b;"/>
    <path clip-path="url(#pc553692971)" d="M 345.283902 111.26 
L 350.536602 111.26 
L 350.536602 77.74 
L 345.283902 77.74 
L 345.283902 111.26 
" style="fill:#ffff1b;"/>
    <path clip-path="url(#pc553692971)" d="M 350.536602 111.26 
L 355.789302 111.26 
L 355.789302 77.74 
L 350.536602 77.74 
L 350.536602 111.26 
" style="fill:#ffff1b;"/>
    <path clip-path="url(#pc553692971)" d="M 355.789302 111.26 
L 361.042002 111.26 
L 361.042002 77.74 
L 355.789302 77.74 
L 355.789302 111.26 
" style="fill:#ffff1b;"/>
    <path clip-path="url(#pc553692971)" d="M 361.042002 111.26 
L 366.294702 111.26 
L 366.294702 77.74 
L 361.042002 77.74 
L 361.042002 111.26 
" style="fill:#ffff1b;"/>
    <path clip-path="url(#pc553692971)" d="M 366.294702 111.26 
L 371.547402 111.26 
L 371.547402 77.74 
L 366.294702 77.74 
L 366.294702 111.26 
" style="fill:#ffff1b;"/>
    <path clip-path="url(#pc553692971)" d="M 371.547402 111.26 
L 376.800102 111.26 
L 376.800102 77.74 
L 371.547402 77.74 
L 371.547402 111.26 
" style="fill:#ffff1b;"/>
    <path clip-path="url(#pc553692971)" d="M 376.800102 111.26 
L 382.052802 111.26 
L 382.052802 77.74 
L 376.800102 77.74 
L 376.800102 111.26 
" style="fill:#ffff1b;"/>
    <path clip-path="url(#pc553692971)" d="M 382.052802 111.26 
L 387.305502 111.26 
L 387.305502 77.74 
L 382.052802 77.74 
L 382.052802 111.26 
" style="fill:#ffff1b;"/>
    <path clip-path="url(#pc553692971)" d="M 387.305502 111.26 
L 392.558202 111.26 
L 392.558202 77.74 
L 387.305502 77.74 
L 387.305502 111.26 
" style="fill:#ffff1b;"/>
    <path clip-path="url(#pc553692971)" d="M 392.558202 111.26 
L 397.810902 111.26 
L 397.810902 77.74 
L 392.558202 77.74 
L 392.558202 111.26 
" style="fill:#ffff1b;"/>
    <path clip-path="url(#pc553692971)" d="M 397.810902 111.26 
L 403.063603 111.26 
L 403.063603 77.74 
L 397.810902 77.74 
L 397.810902 111.26 
" style="fill:#ffff1b;"/>
    <path clip-path="url(#pc553692971)" d="M 403.063603 111.26 
L 408.316303 111.26 
L 408.316303 77.74 
L 403.063603 77.74 
L 403.063603 111.26 
" style="fill:#ffff1b;"/>
    <path clip-path="url(#pc553692971)" d="M 408.316303 111.26 
L 413.569003 111.26 
L 413.569003 77.74 
L 408.316303 77.74 
L 408.316303 111.26 
" style="fill:#ffff1b;"/>
    <path clip-path="url(#pc553692971)" d="M 413.569003 111.26 
L 418.821703 111.26 
L 418.821703 77.74 
L 413.569003 77.74 
L 413.569003 111.26 
" style="fill:#ffff1b;"/>
    <path clip-path="url(#pc553692971)" d="M 418.821703 111.26 
L 424.074403 111.26 
L 424.074403 77.74 
L 418.821703 77.74 
L 418.821703 111.26 
" style="fill:#ffff1b;"/>
    <path clip-path="url(#pc553692971)" d="M 424.074403 111.26 
L 429.327103 111.26 
L 429.327103 77.74 
L 424.074403 77.74 
L 424.074403 111.26 
" style="fill:#ffff1b;"/>
    <path clip-path="url(#pc553692971)" d="M 429.327103 111.26 
L 434.579803 111.26 
L 434.579803 77.74 
L 429.327103 77.74 
L 429.327103 111.26 
" style="fill:#ffff1b;"/>
    <path clip-path="url(#pc553692971)" d="M 434.579803 111.26 
L 439.832503 111.26 
L 439.832503 77.74 
L 434.579803 77.74 
L 434.579803 111.26 
" style="fill:#ffff1b;"/>
    <path clip-path="url(#pc553692971)" d="M 439.832503 111.26 
L 445.085203 111.26 
L 445.085203 77.74 
L 439.832503 77.74 
L 439.832503 111.26 
" style="fill:#ffff1b;"/>
    <path clip-path="url(#pc553692971)" d="M 445.085203 111.26 
L 450.337903 111.26 
L 450.337903 77.74 
L 445.085203 77.74 
L 445.085203 111.26 
" style="fill:#ffff1b;"/>
    <path clip-path="url(#pc553692971)" d="M 450.337903 111.26 
L 455.590603 111.26 
L 455.590603 77.74 
L 450.337903 77.74 
L 450.337903 111.26 
" style="fill:#ffff1b;"/>
    <path clip-path="url(#pc553692971)" d="M 455.590603 111.26 
L 460.843303 111.26 
L 460.843303 77.74 
L 455.590603 77.74 
L 455.590603 111.26 
" style="fill:#ffff1b;"/>
    <path clip-path="url(#pc553692971)" d="M 460.843303 111.26 
L 466.096003 111.26 
L 466.096003 77.74 
L 460.843303 77.74 
L 460.843303 111.26 
" style="fill:#ffff1b;"/>
    <path clip-path="url(#pc553692971)" d="M 466.096003 111.26 
L 471.348703 111.26 
L 471.348703 77.74 
L 466.096003 77.74 
L 466.096003 111.26 
" style="fill:#ffff1b;"/>
    <path clip-path="url(#pc553692971)" d="M 471.348703 111.26 
L 476.601403 111.26 
L 476.601403 77.74 
L 471.348703 77.74 
L 471.348703 111.26 
" style="fill:#ffff1b;"/>
    <path clip-path="url(#pc553692971)" d="M 476.601403 111.26 
L 481.854103 111.26 
L 481.854103 77.74 
L 476.601403 77.74 
L 476.601403 111.26 
" style="fill:#ffff1b;"/>
    <path clip-path="url(#pc553692971)" d="M 481.854103 111.26 
L 487.106803 111.26 
L 487.106803 77.74 
L 481.854103 77.74 
L 481.854103 111.26 
" style="fill:#ffff1b;"/>
    <path clip-path="url(#pc553692971)" d="M 45.88 77.74 
L 51.1327 77.74 
L 51.1327 44.22 
L 45.88 44.22 
L 45.88 77.74 
" style="fill:#270000;"/>
    <path clip-path="url(#pc553692971)" d="M 51.1327 77.74 
L 56.3854 77.74 
L 56.3854 44.22 
L 51.1327 44.22 
L 51.1327 77.74 
" style="fill:#270000;"/>
    <path clip-path="url(#pc553692971)" d="M 56.3854 77.74 
L 61.6381 77.74 
L 61.6381 44.22 
L 56.3854 44.22 
L 56.3854 77.74 
" style="fill:#270000;"/>
    <path clip-path="url(#pc553692971)" d="M 61.6381 77.74 
L 66.8908 77.74 
L 66.8908 44.22 
L 61.6381 44.22 
L 61.6381 77.74 
" style="fill:#270000;"/>
    <path clip-path="url(#pc553692971)" d="M 66.8908 77.74 
L 72.1435 77.74 
L 72.1435 44.22 
L 66.8908 44.22 
L 66.8908 77.74 
" style="fill:#270000;"/>
    <path clip-path="url(#pc553692971)" d="M 72.1435 77.74 
L 77.3962 77.74 
L 77.3962 44.22 
L 72.1435 44.22 
L 72.1435 77.74 
" style="fill:#270000;"/>
    <path clip-path="url(#pc553692971)" d="M 77.3962 77.74 
L 82.6489 77.74 
L 82.6489 44.22 
L 77.3962 44.22 
L 77.3962 77.74 
" style="fill:#270000;"/>
    <path clip-path="url(#pc553692971)" d="M 82.6489 77.74 
L 87.9016 77.74 
L 87.9016 44.22 
L 82.6489 44.22 
L 82.6489 77.74 
" style="fill:#270000;"/>
    <path clip-path="url(#pc553692971)" d="M 87.9016 77.74 
L 93.1543 77.74 
L 93.1543 44.22 
L 87.9016 44.22 
L 87.9016 77.74 
" style="fill:#270000;"/>
    <path clip-path="url(#pc553692971)" d="M 93.1543 77.74 
L 98.407 77.74 
L 98.407 44.22 
L 93.1543 44.22 
L 93.1543 77.74 
" style="fill:#270000;"/>
    <path clip-path="url(#pc553692971)" d="M 98.407 77.74 
L 103.6597 77.74 
L 103.6597 44.22 
L 98.407 44.22 
L 98.407 77.74 
" style="fill:#270000;"/>
    <path clip-path="url(#pc553692971)" d="M 103.6597 77.74 
L 108.9124 77.74 
L 108.9124 44.22 
L 103.6597 44.22 
L 103.6597 77.74 
" style="fill:#270000;"/>
    <path clip-path="url(#pc553692971)" d="M 108.9124 77.74 
L 114.1651 77.74 
L 114.1651 44.22 
L 108.9124 44.22 
L 108.9124 77.74 
" style="fill:#270000;"/>
    <path clip-path="url(#pc553692971)" d="M 114.1651 77.74 
L 119.417801 77.74 
L 119.417801 44.22 
L 114.1651 44.22 
L 114.1651 77.74 
" style="fill:#270000;"/>
    <path clip-path="url(#pc553692971)" d="M 119.417801 77.74 
L 124.670501 77.74 
L 124.670501 44.22 
L 119.417801 44.22 
L 119.417801 77.74 
" style="fill:#270000;"/>
    <path clip-path="url(#pc553692971)" d="M 124.670501 77.74 
L 129.923201 77.74 
L 129.923201 44.22 
L 124.670501 44.22 
L 124.670501 77.74 
" style="fill:#270000;"/>
    <path clip-path="url(#pc553692971)" d="M 129.923201 77.74 
L 135.175901 77.74 
L 135.175901 44.22 
L 129.923201 44.22 
L 129.923201 77.74 
" style="fill:#270000;"/>
    <path clip-path="url(#pc553692971)" d="M 135.175901 77.74 
L 140.428601 77.74 
L 140.428601 44.22 
L 135.175901 44.22 
L 135.175901 77.74 
" style="fill:#270000;"/>
    <path clip-path="url(#pc553692971)" d="M 140.428601 77.74 
L 145.681301 77.74 
L 145.681301 44.22 
L 140.428601 44.22 
L 140.428601 77.74 
" style="fill:#270000;"/>
    <path clip-path="url(#pc553692971)" d="M 145.681301 77.74 
L 150.934001 77.74 
L 150.934001 44.22 
L 145.681301 44.22 
L 145.681301 77.74 
" style="fill:#270000;"/>
    <path clip-path="url(#pc553692971)" d="M 150.934001 77.74 
L 156.186701 77.74 
L 156.186701 44.22 
L 150.934001 44.22 
L 150.934001 77.74 
" style="fill:#270000;"/>
    <path clip-path="url(#pc553692971)" d="M 156.186701 77.74 
L 161.439401 77.74 
L 161.439401 44.22 
L 156.186701 44.22 
L 156.186701 77.74 
" style="fill:#270000;"/>
    <path clip-path="url(#pc553692971)" d="M 161.439401 77.74 
L 166.692101 77.74 
L 166.692101 44.22 
L 161.439401 44.22 
L 161.439401 77.74 
" style="fill:#270000;"/>
    <path clip-path="url(#pc553692971)" d="M 166.692101 77.74 
L 171.944801 77.74 
L 171.944801 44.22 
L 166.692101 44.22 
L 166.692101 77.74 
" style="fill:#df0000;"/>
    <path clip-path="url(#pc553692971)" d="M 171.944801 77.74 
L 177.197501 77.74 
L 177.197501 44.22 
L 171.944801 44.22 
L 171.944801 77.74 
" style="fill:#ff0000;"/>
    <path clip-path="url(#pc553692971)" d="M 177.197501 77.74 
L 182.450201 77.74 
L 182.450201 44.22 
L 177.197501 44.22 
L 177.197501 77.74 
" style="fill:#ff3c00;"/>
    <path clip-path="url(#pc553692971)" d="M 182.450201 77.74 
L 187.702901 77.74 
L 187.702901 44.22 
L 182.450201 44.22 
L 182.450201 77.74 
" style="fill:#ff5c00;"/>
    <path clip-path="url(#pc553692971)" d="M 187.702901 77.74 
L 192.955601 77.74 
L 192.955601 44.22 
L 187.702901 44.22 
L 187.702901 77.74 
" style="fill:#ff9800;"/>
    <path clip-path="url(#pc553692971)" d="M 192.955601 77.74 
L 198.208301 77.74 
L 198.208301 44.22 
L 192.955601 44.22 
L 192.955601 77.74 
" style="fill:#ff9800;"/>
    <path clip-path="url(#pc553692971)" d="M 198.208301 77.74 
L 203.461001 77.74 
L 203.461001 44.22 
L 198.208301 44.22 
L 198.208301 77.74 
" style="fill:#ffd400;"/>
    <path clip-path="url(#pc553692971)" d="M 203.461001 77.74 
L 208.713701 77.74 
L 208.713701 44.22 
L 203.461001 44.22 
L 203.461001 77.74 
" style="fill:#ffd400;"/>
    <path clip-path="url(#pc553692971)" d="M 208.713701 77.74 
L 213.966401 77.74 
L 213.966401 44.22 
L 208.713701 44.22 
L 208.713701 77.74 
" style="fill:#fff400;"/>
    <path clip-path="url(#pc553692971)" d="M 213.966401 77.74 
L 219.219101 77.74 
L 219.219101 44.22 
L 213.966401 44.22 
L 213.966401 77.74 
" style="fill:#fff400;"/>
    <path clip-path="url(#pc553692971)" d="M 219.219101 77.74 
L 224.471801 77.74 
L 224.471801 44.22 
L 219.219101 44.22 
L 219.219101 77.74 
" style="fill:#fff400;"/>
    <path clip-path="url(#pc553692971)" d="M 224.471801 77.74 
L 229.724501 77.74 
L 229.724501 44.22 
L 224.471801 44.22 
L 224.471801 77.74 
" style="fill:#ffff1b;"/>
    <path clip-path="url(#pc553692971)" d="M 229.724501 77.74 
L 234.977201 77.74 
L 234.977201 44.22 
L 229.724501 44.22 
L 229.724501 77.74 
" style="fill:#ffff1b;"/>
    <path clip-path="url(#pc553692971)" d="M 234.977201 77.74 
L 240.229901 77.74 
L 240.229901 44.22 
L 234.977201 44.22 
L 234.977201 77.74 
" style="fill:#ffff1b;"/>
    <path clip-path="url(#pc553692971)" d="M 240.229901 77.74 
L 245.482601 77.74 
L 245.482601 44.22 
L 240.229901 44.22 
L 240.229901 77.74 
" style="fill:#ffff1b;"/>
    <path clip-path="url(#pc553692971)" d="M 245.482601 77.74 
L 250.735301 77.74 
L 250.735301 44.22 
L 245.482601 44.22 
L 245.482601 77.74 
" style="fill:#ffff1b;"/>
    <path clip-path="url(#pc553692971)" d="M 250.735301 77.74 
L 255.988001 77.74 
L 255.988001 44.22 
L 250.735301 44.22 
L 250.735301 77.74 
" style="fill:#ffff1b;"/>
    <path clip-path="url(#pc553692971)" d="M 255.988001 77.74 
L 261.240702 77.74 
L 261.240702 44.22 
L 255.988001 44.22 
L 255.988001 77.74 
" style="fill:#ffff1b;"/>
    <path clip-path="url(#pc553692971)" d="M 261.240702 77.74 
L 266.493402 77.74 
L 266.493402 44.22 
L 261.240702 44.22 
L 261.240702 77.74 
" style="fill:#ffff1b;"/>
    <path clip-path="url(#pc553692971)" d="M 266.493402 77.74 
L 271.746102 77.74 
L 271.746102 44.22 
L 266.493402 44.22 
L 266.493402 77.74 
" style="fill:#ffff1b;"/>
    <path clip-path="url(#pc553692971)" d="M 271.746102 77.74 
L 276.998802 77.74 
L 276.998802 44.22 
L 271.746102 44.22 
L 271.746102 77.74 
" style="fill:#ffff1b;"/>
    <path clip-path="url(#pc553692971)" d="M 276.998802 77.74 
L 282.251502 77.74 
L 282.251502 44.22 
L 276.998802 44.22 
L 276.998802 77.74 
" style="fill:#ffff1b;"/>
    <path clip-path="url(#pc553692971)" d="M 282.251502 77.74 
L 287.504202 77.74 
L 287.504202 44.22 
L 282.251502 44.22 
L 282.251502 77.74 
" style="fill:#ffff1b;"/>
    <path clip-path="url(#pc553692971)" d="M 287.504202 77.74 
L 292.756902 77.74 
L 292.756902 44.22 
L 287.504202 44.22 
L 287.504202 77.74 
" style="fill:#ffff1b;"/>
    <path clip-path="url(#pc553692971)" d="M 292.756902 77.74 
L 298.009602 77.74 
L 298.009602 44.22 
L 292.756902 44.22 
L 292.756902 77.74 
" style="fill:#ffff1b;"/>
    <path clip-path="url(#pc553692971)" d="M 298.009602 77.74 
L 303.262302 77.74 
L 303.262302 44.22 
L 298.009602 44.22 
L 298.009602 77.74 
" style="fill:#ffff1b;"/>
    <path clip-path="url(#pc553692971)" d="M 303.262302 77.74 
L 308.515002 77.74 
L 308.515002 44.22 
L 303.262302 44.22 
L 303.262302 77.74 
" style="fill:#ffff1b;"/>
    <path clip-path="url(#pc553692971)" d="M 308.515002 77.74 
L 313.767702 77.74 
L 313.767702 44.22 
L 308.515002 44.22 
L 308.515002 77.74 
" style="fill:#ffff1b;"/>
    <path clip-path="url(#pc553692971)" d="M 313.767702 77.74 
L 319.020402 77.74 
L 319.020402 44.22 
L 313.767702 44.22 
L 313.767702 77.74 
" style="fill:#ffff1b;"/>
    <path clip-path="url(#pc553692971)" d="M 319.020402 77.74 
L 324.273102 77.74 
L 324.273102 44.22 
L 319.020402 44.22 
L 319.020402 77.74 
" style="fill:#ffff1b;"/>
    <path clip-path="url(#pc553692971)" d="M 324.273102 77.74 
L 329.525802 77.74 
L 329.525802 44.22 
L 324.273102 44.22 
L 324.273102 77.74 
" style="fill:#ffff1b;"/>
    <path clip-path="url(#pc553692971)" d="M 329.525802 77.74 
L 334.778502 77.74 
L 334.778502 44.22 
L 329.525802 44.22 
L 329.525802 77.74 
" style="fill:#ffff1b;"/>
    <path clip-path="url(#pc553692971)" d="M 334.778502 77.74 
L 340.031202 77.74 
L 340.031202 44.22 
L 334.778502 44.22 
L 334.778502 77.74 
" style="fill:#ffff1b;"/>
    <path clip-path="url(#pc553692971)" d="M 340.031202 77.74 
L 345.283902 77.74 
L 345.283902 44.22 
L 340.031202 44.22 
L 340.031202 77.74 
" style="fill:#ffff1b;"/>
    <path clip-path="url(#pc553692971)" d="M 345.283902 77.74 
L 350.536602 77.74 
L 350.536602 44.22 
L 345.283902 44.22 
L 345.283902 77.74 
" style="fill:#ffff1b;"/>
    <path clip-path="url(#pc553692971)" d="M 350.536602 77.74 
L 355.789302 77.74 
L 355.789302 44.22 
L 350.536602 44.22 
L 350.536602 77.74 
" style="fill:#ffff1b;"/>
    <path clip-path="url(#pc553692971)" d="M 355.789302 77.74 
L 361.042002 77.74 
L 361.042002 44.22 
L 355.789302 44.22 
L 355.789302 77.74 
" style="fill:#ffff1b;"/>
    <path clip-path="url(#pc553692971)" d="M 361.042002 77.74 
L 366.294702 77.74 
L 366.294702 44.22 
L 361.042002 44.22 
L 361.042002 77.74 
" style="fill:#ffff1b;"/>
    <path clip-path="url(#pc553692971)" d="M 366.294702 77.74 
L 371.547402 77.74 
L 371.547402 44.22 
L 366.294702 44.22 
L 366.294702 77.74 
" style="fill:#ffff1b;"/>
    <path clip-path="url(#pc553692971)" d="M 371.547402 77.74 
L 376.800102 77.74 
L 376.800102 44.22 
L 371.547402 44.22 
L 371.547402 77.74 
" style="fill:#ffff1b;"/>
    <path clip-path="url(#pc553692971)" d="M 376.800102 77.74 
L 382.052802 77.74 
L 382.052802 44.22 
L 376.800102 44.22 
L 376.800102 77.74 
" style="fill:#ffff1b;"/>
    <path clip-path="url(#pc553692971)" d="M 382.052802 77.74 
L 387.305502 77.74 
L 387.305502 44.22 
L 382.052802 44.22 
L 382.052802 77.74 
" style="fill:#ffff1b;"/>
    <path clip-path="url(#pc553692971)" d="M 387.305502 77.74 
L 392.558202 77.74 
L 392.558202 44.22 
L 387.305502 44.22 
L 387.305502 77.74 
" style="fill:#ffff1b;"/>
    <path clip-path="url(#pc553692971)" d="M 392.558202 77.74 
L 397.810902 77.74 
L 397.810902 44.22 
L 392.558202 44.22 
L 392.558202 77.74 
" style="fill:#ffff1b;"/>
    <path clip-path="url(#pc553692971)" d="M 397.810902 77.74 
L 403.063603 77.74 
L 403.063603 44.22 
L 397.810902 44.22 
L 397.810902 77.74 
" style="fill:#ffff1b;"/>
    <path clip-path="url(#pc553692971)" d="M 403.063603 77.74 
L 408.316303 77.74 
L 408.316303 44.22 
L 403.063603 44.22 
L 403.063603 77.74 
" style="fill:#ffff1b;"/>
    <path clip-path="url(#pc553692971)" d="M 408.316303 77.74 
L 413.569003 77.74 
L 413.569003 44.22 
L 408.316303 44.22 
L 408.316303 77.74 
" style="fill:#ffff1b;"/>
    <path clip-path="url(#pc553692971)" d="M 413.569003 77.74 
L 418.821703 77.74 
L 418.821703 44.22 
L 413.569003 44.22 
L 413.569003 77.74 
" style="fill:#ffff1b;"/>
    <path clip-path="url(#pc553692971)" d="M 418.821703 77.74 
L 424.074403 77.74 
L 424.074403 44.22 
L 418.821703 44.22 
L 418.821703 77.74 
" style="fill:#ffff1b;"/>
    <path clip-path="url(#pc553692971)" d="M 424.074403 77.74 
L 429.327103 77.74 
L 429.327103 44.22 
L 424.074403 44.22 
L 424.074403 77.74 
" style="fill:#ffff1b;"/>
    <path clip-path="url(#pc553692971)" d="M 429.327103 77.74 
L 434.579803 77.74 
L 434.579803 44.22 
L 429.327103 44.22 
L 429.327103 77.74 
" style="fill:#ffff1b;"/>
    <path clip-path="url(#pc553692971)" d="M 434.579803 77.74 
L 439.832503 77.74 
L 439.832503 44.22 
L 434.579803 44.22 
L 434.579803 77.74 
" style="fill:#ffff1b;"/>
    <path clip-path="url(#pc553692971)" d="M 439.832503 77.74 
L 445.085203 77.74 
L 445.085203 44.22 
L 439.832503 44.22 
L 439.832503 77.74 
" style="fill:#ffff1b;"/>
    <path clip-path="url(#pc553692971)" d="M 445.085203 77.74 
L 450.337903 77.74 
L 450.337903 44.22 
L 445.085203 44.22 
L 445.085203 77.74 
" style="fill:#ffff1b;"/>
    <path clip-path="url(#pc553692971)" d="M 450.337903 77.74 
L 455.590603 77.74 
L 455.590603 44.22 
L 450.337903 44.22 
L 450.337903 77.74 
" style="fill:#ffff1b;"/>
    <path clip-path="url(#pc553692971)" d="M 455.590603 77.74 
L 460.843303 77.74 
L 460.843303 44.22 
L 455.590603 44.22 
L 455.590603 77.74 
" style="fill:#ffff1b;"/>
    <path clip-path="url(#pc553692971)" d="M 460.843303 77.74 
L 466.096003 77.74 
L 466.096003 44.22 
L 460.843303 44.22 
L 460.843303 77.74 
" style="fill:#ffff1b;"/>
    <path clip-path="url(#pc553692971)" d="M 466.096003 77.74 
L 471.348703 77.74 
L 471.348703 44.22 
L 466.096003 44.22 
L 466.096003 77.74 
" style="fill:#ffff1b;"/>
    <path clip-path="url(#pc553692971)" d="M 471.348703 77.74 
L 476.601403 77.74 
L 476.601403 44.22 
L 471.348703 44.22 
L 471.348703 77.74 
" style="fill:#ffff1b;"/>
    <path clip-path="url(#pc553692971)" d="M 476.601403 77.74 
L 481.854103 77.74 
L 481.854103 44.22 
L 476.601403 44.22 
L 476.601403 77.74 
" style="fill:#ffff1b;"/>
    <path clip-path="url(#pc553692971)" d="M 481.854103 77.74 
L 487.106803 77.74 
L 487.106803 44.22 
L 481.854103 44.22 
L 481.854103 77.74 
" style="fill:#ffff1b;"/>
    <path clip-path="url(#pc553692971)" d="M 45.88 44.22 
L 51.1327 44.22 
L 51.1327 10.7 
L 45.88 10.7 
L 45.88 44.22 
" style="fill:#270000;"/>
    <path clip-path="url(#pc553692971)" d="M 51.1327 44.22 
L 56.3854 44.22 
L 56.3854 10.7 
L 51.1327 10.7 
L 51.1327 44.22 
" style="fill:#270000;"/>
    <path clip-path="url(#pc553692971)" d="M 56.3854 44.22 
L 61.6381 44.22 
L 61.6381 10.7 
L 56.3854 10.7 
L 56.3854 44.22 
" style="fill:#270000;"/>
    <path clip-path="url(#pc553692971)" d="M 61.6381 44.22 
L 66.8908 44.22 
L 66.8908 10.7 
L 61.6381 10.7 
L 61.6381 44.22 
" style="fill:#270000;"/>
    <path clip-path="url(#pc553692971)" d="M 66.8908 44.22 
L 72.1435 44.22 
L 72.1435 10.7 
L 66.8908 10.7 
L 66.8908 44.22 
" style="fill:#270000;"/>
    <path clip-path="url(#pc553692971)" d="M 72.1435 44.22 
L 77.3962 44.22 
L 77.3962 10.7 
L 72.1435 10.7 
L 72.1435 44.22 
" style="fill:#270000;"/>
    <path clip-path="url(#pc553692971)" d="M 77.3962 44.22 
L 82.6489 44.22 
L 82.6489 10.7 
L 77.3962 10.7 
L 77.3962 44.22 
" style="fill:#270000;"/>
    <path clip-path="url(#pc553692971)" d="M 82.6489 44.22 
L 87.9016 44.22 
L 87.9016 10.7 
L 82.6489 10.7 
L 82.6489 44.22 
" style="fill:#270000;"/>
    <path clip-path="url(#pc553692971)" d="M 87.9016 44.22 
L 93.1543 44.22 
L 93.1543 10.7 
L 87.9016 10.7 
L 87.9016 44.22 
" style="fill:#270000;"/>
    <path clip-path="url(#pc553692971)" d="M 93.1543 44.22 
L 98.407 44.22 
L 98.407 10.7 
L 93.1543 10.7 
L 93.1543 44.22 
" style="fill:#270000;"/>
    <path clip-path="url(#pc553692971)" d="M 98.407 44.22 
L 103.6597 44.22 
L 103.6597 10.7 
L 98.407 10.7 
L 98.407 44.22 
" style="fill:#270000;"/>
    <path clip-path="url(#pc553692971)" d="M 103.6597 44.22 
L 108.9124 44.22 
L 108.9124 10.7 
L 103.6597 10.7 
L 103.6597 44.22 
" style="fill:#270000;"/>
    <path clip-path="url(#pc553692971)" d="M 108.9124 44.22 
L 114.1651 44.22 
L 114.1651 10.7 
L 108.9124 10.7 
L 108.9124 44.22 
" style="fill:#270000;"/>
    <path clip-path="url(#pc553692971)" d="M 114.1651 44.22 
L 119.417801 44.22 
L 119.417801 10.7 
L 114.1651 10.7 
L 114.1651 44.22 
" style="fill:#270000;"/>
    <path clip-path="url(#pc553692971)" d="M 119.417801 44.22 
L 124.670501 44.22 
L 124.670501 10.7 
L 119.417801 10.7 
L 119.417801 44.22 
" style="fill:#270000;"/>
    <path clip-path="url(#pc553692971)" d="M 124.670501 44.22 
L 129.923201 44.22 
L 129.923201 10.7 
L 124.670501 10.7 
L 124.670501 44.22 
" style="fill:#270000;"/>
    <path clip-path="url(#pc553692971)" d="M 129.923201 44.22 
L 135.175901 44.22 
L 135.175901 10.7 
L 129.923201 10.7 
L 129.923201 44.22 
" style="fill:#270000;"/>
    <path clip-path="url(#pc553692971)" d="M 135.175901 44.22 
L 140.428601 44.22 
L 140.428601 10.7 
L 135.175901 10.7 
L 135.175901 44.22 
" style="fill:#270000;"/>
    <path clip-path="url(#pc553692971)" d="M 140.428601 44.22 
L 145.681301 44.22 
L 145.681301 10.7 
L 140.428601 10.7 
L 140.428601 44.22 
" style="fill:#270000;"/>
    <path clip-path="url(#pc553692971)" d="M 145.681301 44.22 
L 150.934001 44.22 
L 150.934001 10.7 
L 145.681301 10.7 
L 145.681301 44.22 
" style="fill:#270000;"/>
    <path clip-path="url(#pc553692971)" d="M 150.934001 44.22 
L 156.186701 44.22 
L 156.186701 10.7 
L 150.934001 10.7 
L 150.934001 44.22 
" style="fill:#270000;"/>
    <path clip-path="url(#pc553692971)" d="M 156.186701 44.22 
L 161.439401 44.22 
L 161.439401 10.7 
L 156.186701 10.7 
L 156.186701 44.22 
" style="fill:#270000;"/>
    <path clip-path="url(#pc553692971)" d="M 161.439401 44.22 
L 166.692101 44.22 
L 166.692101 10.7 
L 161.439401 10.7 
L 161.439401 44.22 
" style="fill:#270000;"/>
    <path clip-path="url(#pc553692971)" d="M 166.692101 44.22 
L 171.944801 44.22 
L 171.944801 10.7 
L 166.692101 10.7 
L 166.692101 44.22 
" style="fill:#ff5c00;"/>
    <path clip-path="url(#pc553692971)" d="M 171.944801 44.22 
L 177.197501 44.22 
L 177.197501 10.7 
L 171.944801 10.7 
L 171.944801 44.22 
" style="fill:#ff5c00;"/>
    <path clip-path="url(#pc553692971)" d="M 177.197501 44.22 
L 182.450201 44.22 
L 182.450201 10.7 
L 177.197501 10.7 
L 177.197501 44.22 
" style="fill:#ffd400;"/>
    <path clip-path="url(#pc553692971)" d="M 182.450201 44.22 
L 187.702901 44.22 
L 187.702901 10.7 
L 182.450201 10.7 
L 182.450201 44.22 
" style="fill:#fff400;"/>
    <path clip-path="url(#pc553692971)" d="M 187.702901 44.22 
L 192.955601 44.22 
L 192.955601 10.7 
L 187.702901 10.7 
L 187.702901 44.22 
" style="fill:#fff400;"/>
    <path clip-path="url(#pc553692971)" d="M 192.955601 44.22 
L 198.208301 44.22 
L 198.208301 10.7 
L 192.955601 10.7 
L 192.955601 44.22 
" style="fill:#ffff1b;"/>
    <path clip-path="url(#pc553692971)" d="M 198.208301 44.22 
L 203.461001 44.22 
L 203.461001 10.7 
L 198.208301 10.7 
L 198.208301 44.22 
" style="fill:#ffff1b;"/>
    <path clip-path="url(#pc553692971)" d="M 203.461001 44.22 
L 208.713701 44.22 
L 208.713701 10.7 
L 203.461001 10.7 
L 203.461001 44.22 
" style="fill:#ffff1b;"/>
    <path clip-path="url(#pc553692971)" d="M 208.713701 44.22 
L 213.966401 44.22 
L 213.966401 10.7 
L 208.713701 10.7 
L 208.713701 44.22 
" style="fill:#ffff1b;"/>
    <path clip-path="url(#pc553692971)" d="M 213.966401 44.22 
L 219.219101 44.22 
L 219.219101 10.7 
L 213.966401 10.7 
L 213.966401 44.22 
" style="fill:#ffff1b;"/>
    <path clip-path="url(#pc553692971)" d="M 219.219101 44.22 
L 224.471801 44.22 
L 224.471801 10.7 
L 219.219101 10.7 
L 219.219101 44.22 
" style="fill:#ffff1b;"/>
    <path clip-path="url(#pc553692971)" d="M 224.471801 44.22 
L 229.724501 44.22 
L 229.724501 10.7 
L 224.471801 10.7 
L 224.471801 44.22 
" style="fill:#ffff1b;"/>
    <path clip-path="url(#pc553692971)" d="M 229.724501 44.22 
L 234.977201 44.22 
L 234.977201 10.7 
L 229.724501 10.7 
L 229.724501 44.22 
" style="fill:#ffff1b;"/>
    <path clip-path="url(#pc553692971)" d="M 234.977201 44.22 
L 240.229901 44.22 
L 240.229901 10.7 
L 234.977201 10.7 
L 234.977201 44.22 
" style="fill:#ffff1b;"/>
    <path clip-path="url(#pc553692971)" d="M 240.229901 44.22 
L 245.482601 44.22 
L 245.482601 10.7 
L 240.229901 10.7 
L 240.229901 44.22 
" style="fill:#ffff1b;"/>
    <path clip-path="url(#pc553692971)" d="M 245.482601 44.22 
L 250.735301 44.22 
L 250.735301 10.7 
L 245.482601 10.7 
L 245.482601 44.22 
" style="fill:#ffff1b;"/>
    <path clip-path="url(#pc553692971)" d="M 250.735301 44.22 
L 255.988001 44.22 
L 255.988001 10.7 
L 250.735301 10.7 
L 250.735301 44.22 
" style="fill:#ffff1b;"/>
    <path clip-path="url(#pc553692971)" d="M 255.988001 44.22 
L 261.240702 44.22 
L 261.240702 10.7 
L 255.988001 10.7 
L 255.988001 44.22 
" style="fill:#ffff1b;"/>
    <path clip-path="url(#pc553692971)" d="M 261.240702 44.22 
L 266.493402 44.22 
L 266.493402 10.7 
L 261.240702 10.7 
L 261.240702 44.22 
" style="fill:#ffff1b;"/>
    <path clip-path="url(#pc553692971)" d="M 266.493402 44.22 
L 271.746102 44.22 
L 271.746102 10.7 
L 266.493402 10.7 
L 266.493402 44.22 
" style="fill:#ffff1b;"/>
    <path clip-path="url(#pc553692971)" d="M 271.746102 44.22 
L 276.998802 44.22 
L 276.998802 10.7 
L 271.746102 10.7 
L 271.746102 44.22 
" style="fill:#ffff1b;"/>
    <path clip-path="url(#pc553692971)" d="M 276.998802 44.22 
L 282.251502 44.22 
L 282.251502 10.7 
L 276.998802 10.7 
L 276.998802 44.22 
" style="fill:#ffff1b;"/>
    <path clip-path="url(#pc553692971)" d="M 282.251502 44.22 
L 287.504202 44.22 
L 287.504202 10.7 
L 282.251502 10.7 
L 282.251502 44.22 
" style="fill:#ffff1b;"/>
    <path clip-path="url(#pc553692971)" d="M 287.504202 44.22 
L 292.756902 44.22 
L 292.756902 10.7 
L 287.504202 10.7 
L 287.504202 44.22 
" style="fill:#ffff1b;"/>
    <path clip-path="url(#pc553692971)" d="M 292.756902 44.22 
L 298.009602 44.22 
L 298.009602 10.7 
L 292.756902 10.7 
L 292.756902 44.22 
" style="fill:#ffff1b;"/>
    <path clip-path="url(#pc553692971)" d="M 298.009602 44.22 
L 303.262302 44.22 
L 303.262302 10.7 
L 298.009602 10.7 
L 298.009602 44.22 
" style="fill:#ffff1b;"/>
    <path clip-path="url(#pc553692971)" d="M 303.262302 44.22 
L 308.515002 44.22 
L 308.515002 10.7 
L 303.262302 10.7 
L 303.262302 44.22 
" style="fill:#ffff1b;"/>
    <path clip-path="url(#pc553692971)" d="M 308.515002 44.22 
L 313.767702 44.22 
L 313.767702 10.7 
L 308.515002 10.7 
L 308.515002 44.22 
" style="fill:#ffff1b;"/>
    <path clip-path="url(#pc553692971)" d="M 313.767702 44.22 
L 319.020402 44.22 
L 319.020402 10.7 
L 313.767702 10.7 
L 313.767702 44.22 
" style="fill:#ffff1b;"/>
    <path clip-path="url(#pc553692971)" d="M 319.020402 44.22 
L 324.273102 44.22 
L 324.273102 10.7 
L 319.020402 10.7 
L 319.020402 44.22 
" style="fill:#ffff1b;"/>
    <path clip-path="url(#pc553692971)" d="M 324.273102 44.22 
L 329.525802 44.22 
L 329.525802 10.7 
L 324.273102 10.7 
L 324.273102 44.22 
" style="fill:#ffff1b;"/>
    <path clip-path="url(#pc553692971)" d="M 329.525802 44.22 
L 334.778502 44.22 
L 334.778502 10.7 
L 329.525802 10.7 
L 329.525802 44.22 
" style="fill:#ffff1b;"/>
    <path clip-path="url(#pc553692971)" d="M 334.778502 44.22 
L 340.031202 44.22 
L 340.031202 10.7 
L 334.778502 10.7 
L 334.778502 44.22 
" style="fill:#ffff1b;"/>
    <path clip-path="url(#pc553692971)" d="M 340.031202 44.22 
L 345.283902 44.22 
L 345.283902 10.7 
L 340.031202 10.7 
L 340.031202 44.22 
" style="fill:#ffff1b;"/>
    <path clip-path="url(#pc553692971)" d="M 345.283902 44.22 
L 350.536602 44.22 
L 350.536602 10.7 
L 345.283902 10.7 
L 345.283902 44.22 
" style="fill:#ffff1b;"/>
    <path clip-path="url(#pc553692971)" d="M 350.536602 44.22 
L 355.789302 44.22 
L 355.789302 10.7 
L 350.536602 10.7 
L 350.536602 44.22 
" style="fill:#ffff1b;"/>
    <path clip-path="url(#pc553692971)" d="M 355.789302 44.22 
L 361.042002 44.22 
L 361.042002 10.7 
L 355.789302 10.7 
L 355.789302 44.22 
" style="fill:#ffff1b;"/>
    <path clip-path="url(#pc553692971)" d="M 361.042002 44.22 
L 366.294702 44.22 
L 366.294702 10.7 
L 361.042002 10.7 
L 361.042002 44.22 
" style="fill:#ffff1b;"/>
    <path clip-path="url(#pc553692971)" d="M 366.294702 44.22 
L 371.547402 44.22 
L 371.547402 10.7 
L 366.294702 10.7 
L 366.294702 44.22 
" style="fill:#ffff1b;"/>
    <path clip-path="url(#pc553692971)" d="M 371.547402 44.22 
L 376.800102 44.22 
L 376.800102 10.7 
L 371.547402 10.7 
L 371.547402 44.22 
" style="fill:#ffff1b;"/>
    <path clip-path="url(#pc553692971)" d="M 376.800102 44.22 
L 382.052802 44.22 
L 382.052802 10.7 
L 376.800102 10.7 
L 376.800102 44.22 
" style="fill:#ffff1b;"/>
    <path clip-path="url(#pc553692971)" d="M 382.052802 44.22 
L 387.305502 44.22 
L 387.305502 10.7 
L 382.052802 10.7 
L 382.052802 44.22 
" style="fill:#ffff1b;"/>
    <path clip-path="url(#pc553692971)" d="M 387.305502 44.22 
L 392.558202 44.22 
L 392.558202 10.7 
L 387.305502 10.7 
L 387.305502 44.22 
" style="fill:#ffff1b;"/>
    <path clip-path="url(#pc553692971)" d="M 392.558202 44.22 
L 397.810902 44.22 
L 397.810902 10.7 
L 392.558202 10.7 
L 392.558202 44.22 
" style="fill:#ffff1b;"/>
    <path clip-path="url(#pc553692971)" d="M 397.810902 44.22 
L 403.063603 44.22 
L 403.063603 10.7 
L 397.810902 10.7 
L 397.810902 44.22 
" style="fill:#ffff1b;"/>
    <path clip-path="url(#pc553692971)" d="M 403.063603 44.22 
L 408.316303 44.22 
L 408.316303 10.7 
L 403.063603 10.7 
L 403.063603 44.22 
" style="fill:#ffff1b;"/>
    <path clip-path="url(#pc553692971)" d="M 408.316303 44.22 
L 413.569003 44.22 
L 413.569003 10.7 
L 408.316303 10.7 
L 408.316303 44.22 
" style="fill:#ffff1b;"/>
    <path clip-path="url(#pc553692971)" d="M 413.569003 44.22 
L 418.821703 44.22 
L 418.821703 10.7 
L 413.569003 10.7 
L 413.569003 44.22 
" style="fill:#ffff1b;"/>
    <path clip-path="url(#pc553692971)" d="M 418.821703 44.22 
L 424.074403 44.22 
L 424.074403 10.7 
L 418.821703 10.7 
L 418.821703 44.22 
" style="fill:#ffff1b;"/>
    <path clip-path="url(#pc553692971)" d="M 424.074403 44.22 
L 429.327103 44.22 
L 429.327103 10.7 
L 424.074403 10.7 
L 424.074403 44.22 
" style="fill:#ffff1b;"/>
    <path clip-path="url(#pc553692971)" d="M 429.327103 44.22 
L 434.579803 44.22 
L 434.579803 10.7 
L 429.327103 10.7 
L 429.327103 44.22 
" style="fill:#ffff1b;"/>
    <path clip-path="url(#pc553692971)" d="M 434.579803 44.22 
L 439.832503 44.22 
L 439.832503 10.7 
L 434.579803 10.7 
L 434.579803 44.22 
" style="fill:#ffff1b;"/>
    <path clip-path="url(#pc553692971)" d="M 439.832503 44.22 
L 445.085203 44.22 
L 445.085203 10.7 
L 439.832503 10.7 
L 439.832503 44.22 
" style="fill:#ffff1b;"/>
    <path clip-path="url(#pc553692971)" d="M 445.085203 44.22 
L 450.337903 44.22 
L 450.337903 10.7 
L 445.085203 10.7 
L 445.085203 44.22 
" style="fill:#ffff1b;"/>
    <path clip-path="url(#pc553692971)" d="M 450.337903 44.22 
L 455.590603 44.22 
L 455.590603 10.7 
L 450.337903 10.7 
L 450.337903 44.22 
" style="fill:#ffff1b;"/>
    <path clip-path="url(#pc553692971)" d="M 455.590603 44.22 
L 460.843303 44.22 
L 460.843303 10.7 
L 455.590603 10.7 
L 455.590603 44.22 
" style="fill:#ffff1b;"/>
    <path clip-path="url(#pc553692971)" d="M 460.843303 44.22 
L 466.096003 44.22 
L 466.096003 10.7 
L 460.843303 10.7 
L 460.843303 44.22 
" style="fill:#ffff1b;"/>
    <path clip-path="url(#pc553692971)" d="M 466.096003 44.22 
L 471.348703 44.22 
L 471.348703 10.7 
L 466.096003 10.7 
L 466.096003 44.22 
" style="fill:#ffff1b;"/>
    <path clip-path="url(#pc553692971)" d="M 471.348703 44.22 
L 476.601403 44.22 
L 476.601403 10.7 
L 471.348703 10.7 
L 471.348703 44.22 
" style="fill:#ffff1b;"/>
    <path clip-path="url(#pc553692971)" d="M 476.601403 44.22 
L 481.854103 44.22 
L 481.854103 10.7 
L 476.601403 10.7 
L 476.601403 44.22 
" style="fill:#ffff1b;"/>
    <path clip-path="url(#pc553692971)" d="M 481.854103 44.22 
L 487.106803 44.22 
L 487.106803 10.7 
L 481.854103 10.7 
L 481.854103 44.22 
" style="fill:#ffff1b;"/>
   </g>
   <g id="matplotlib.axis_1">
    <g id="xtick_1">
     <g id="line2d_1">
      <defs>
       <path d="M 0 0 
L 0 3.5 
" id="mcfd6b65ab4" style="stroke:#000000;stroke-width:0.8;"/>
      </defs>
      <g>
       <use style="stroke:#000000;stroke-width:0.8;" x="45.88" xlink:href="#mcfd6b65ab4" y="178.3"/>
      </g>
     </g>
     <g id="text_1">
      <!-- 0.0 -->
      <defs>
       <path d="M 31.78125 66.40625 
Q 24.171875 66.40625 20.328125 58.90625 
Q 16.5 51.421875 16.5 36.375 
Q 16.5 21.390625 20.328125 13.890625 
Q 24.171875 6.390625 31.78125 6.390625 
Q 39.453125 6.390625 43.28125 13.890625 
Q 47.125 21.390625 47.125 36.375 
Q 47.125 51.421875 43.28125 58.90625 
Q 39.453125 66.40625 31.78125 66.40625 
z
M 31.78125 74.21875 
Q 44.046875 74.21875 50.515625 64.515625 
Q 56.984375 54.828125 56.984375 36.375 
Q 56.984375 17.96875 50.515625 8.265625 
Q 44.046875 -1.421875 31.78125 -1.421875 
Q 19.53125 -1.421875 13.0625 8.265625 
Q 6.59375 17.96875 6.59375 36.375 
Q 6.59375 54.828125 13.0625 64.515625 
Q 19.53125 74.21875 31.78125 74.21875 
z
" id="DejaVuSans-30"/>
       <path d="M 10.6875 12.40625 
L 21 12.40625 
L 21 0 
L 10.6875 0 
z
" id="DejaVuSans-2e"/>
      </defs>
      <g transform="translate(31.567188 198.977187)scale(0.18 -0.18)">
       <use xlink:href="#DejaVuSans-30"/>
       <use x="63.623047" xlink:href="#DejaVuSans-2e"/>
       <use x="95.410156" xlink:href="#DejaVuSans-30"/>
      </g>
     </g>
    </g>
    <g id="xtick_2">
     <g id="line2d_2">
      <g>
       <use style="stroke:#000000;stroke-width:0.8;" x="150.934001" xlink:href="#mcfd6b65ab4" y="178.3"/>
      </g>
     </g>
     <g id="text_2">
      <!-- 0.5 -->
      <defs>
       <path d="M 10.796875 72.90625 
L 49.515625 72.90625 
L 49.515625 64.59375 
L 19.828125 64.59375 
L 19.828125 46.734375 
Q 21.96875 47.46875 24.109375 47.828125 
Q 26.265625 48.1875 28.421875 48.1875 
Q 40.625 48.1875 47.75 41.5 
Q 54.890625 34.8125 54.890625 23.390625 
Q 54.890625 11.625 47.5625 5.09375 
Q 40.234375 -1.421875 26.90625 -1.421875 
Q 22.3125 -1.421875 17.546875 -0.640625 
Q 12.796875 0.140625 7.71875 1.703125 
L 7.71875 11.625 
Q 12.109375 9.234375 16.796875 8.0625 
Q 21.484375 6.890625 26.703125 6.890625 
Q 35.15625 6.890625 40.078125 11.328125 
Q 45.015625 15.765625 45.015625 23.390625 
Q 45.015625 31 40.078125 35.4375 
Q 35.15625 39.890625 26.703125 39.890625 
Q 22.75 39.890625 18.8125 39.015625 
Q 14.890625 38.140625 10.796875 36.28125 
z
" id="DejaVuSans-35"/>
      </defs>
      <g transform="translate(136.621188 198.977187)scale(0.18 -0.18)">
       <use xlink:href="#DejaVuSans-30"/>
       <use x="63.623047" xlink:href="#DejaVuSans-2e"/>
       <use x="95.410156" xlink:href="#DejaVuSans-35"/>
      </g>
     </g>
    </g>
    <g id="xtick_3">
     <g id="line2d_3">
      <g>
       <use style="stroke:#000000;stroke-width:0.8;" x="255.988001" xlink:href="#mcfd6b65ab4" y="178.3"/>
      </g>
     </g>
     <g id="text_3">
      <!-- 1.0 -->
      <defs>
       <path d="M 12.40625 8.296875 
L 28.515625 8.296875 
L 28.515625 63.921875 
L 10.984375 60.40625 
L 10.984375 69.390625 
L 28.421875 72.90625 
L 38.28125 72.90625 
L 38.28125 8.296875 
L 54.390625 8.296875 
L 54.390625 0 
L 12.40625 0 
z
" id="DejaVuSans-31"/>
      </defs>
      <g transform="translate(241.675189 198.977187)scale(0.18 -0.18)">
       <use xlink:href="#DejaVuSans-31"/>
       <use x="63.623047" xlink:href="#DejaVuSans-2e"/>
       <use x="95.410156" xlink:href="#DejaVuSans-30"/>
      </g>
     </g>
    </g>
    <g id="xtick_4">
     <g id="line2d_4">
      <g>
       <use style="stroke:#000000;stroke-width:0.8;" x="361.042002" xlink:href="#mcfd6b65ab4" y="178.3"/>
      </g>
     </g>
     <g id="text_4">
      <!-- 1.5 -->
      <g transform="translate(346.72919 198.977187)scale(0.18 -0.18)">
       <use xlink:href="#DejaVuSans-31"/>
       <use x="63.623047" xlink:href="#DejaVuSans-2e"/>
       <use x="95.410156" xlink:href="#DejaVuSans-35"/>
      </g>
     </g>
    </g>
    <g id="xtick_5">
     <g id="line2d_5">
      <g>
       <use style="stroke:#000000;stroke-width:0.8;" x="466.096003" xlink:href="#mcfd6b65ab4" y="178.3"/>
      </g>
     </g>
     <g id="text_5">
      <!-- 2.0 -->
      <defs>
       <path d="M 19.1875 8.296875 
L 53.609375 8.296875 
L 53.609375 0 
L 7.328125 0 
L 7.328125 8.296875 
Q 12.9375 14.109375 22.625 23.890625 
Q 32.328125 33.6875 34.8125 36.53125 
Q 39.546875 41.84375 41.421875 45.53125 
Q 43.3125 49.21875 43.3125 52.78125 
Q 43.3125 58.59375 39.234375 62.25 
Q 35.15625 65.921875 28.609375 65.921875 
Q 23.96875 65.921875 18.8125 64.3125 
Q 13.671875 62.703125 7.8125 59.421875 
L 7.8125 69.390625 
Q 13.765625 71.78125 18.9375 73 
Q 24.125 74.21875 28.421875 74.21875 
Q 39.75 74.21875 46.484375 68.546875 
Q 53.21875 62.890625 53.21875 53.421875 
Q 53.21875 48.921875 51.53125 44.890625 
Q 49.859375 40.875 45.40625 35.40625 
Q 44.1875 33.984375 37.640625 27.21875 
Q 31.109375 20.453125 19.1875 8.296875 
z
" id="DejaVuSans-32"/>
      </defs>
      <g transform="translate(451.78319 198.977187)scale(0.18 -0.18)">
       <use xlink:href="#DejaVuSans-32"/>
       <use x="63.623047" xlink:href="#DejaVuSans-2e"/>
       <use x="95.410156" xlink:href="#DejaVuSans-30"/>
      </g>
     </g>
    </g>
   </g>
   <g id="matplotlib.axis_2">
    <g id="ytick_1">
     <g id="line2d_6">
      <defs>
       <path d="M 0 0 
L -3.5 0 
" id="m44bab6f481" style="stroke:#000000;stroke-width:0.8;"/>
      </defs>
      <g>
       <use style="stroke:#000000;stroke-width:0.8;" x="45.88" xlink:href="#m44bab6f481" y="178.3"/>
      </g>
     </g>
     <g id="text_6">
      <!-- $\mathdefault{10^{0}}$ -->
      <g transform="translate(7.2 185.138594)scale(0.18 -0.18)">
       <use transform="translate(0 0.765625)" xlink:href="#DejaVuSans-31"/>
       <use transform="translate(63.623047 0.765625)" xlink:href="#DejaVuSans-30"/>
       <use transform="translate(128.203125 39.046875)scale(0.7)" xlink:href="#DejaVuSans-30"/>
      </g>
     </g>
    </g>
    <g id="ytick_2">
     <g id="line2d_7">
      <g>
       <use style="stroke:#000000;stroke-width:0.8;" x="45.88" xlink:href="#m44bab6f481" y="27.46"/>
      </g>
     </g>
     <g id="text_7">
      <!-- $\mathdefault{10^{1}}$ -->
      <g transform="translate(7.2 34.298594)scale(0.18 -0.18)">
       <use transform="translate(0 0.684375)" xlink:href="#DejaVuSans-31"/>
       <use transform="translate(63.623047 0.684375)" xlink:href="#DejaVuSans-30"/>
       <use transform="translate(128.203125 38.965625)scale(0.7)" xlink:href="#DejaVuSans-31"/>
      </g>
     </g>
    </g>
    <g id="ytick_3">
     <g id="line2d_8">
      <defs>
       <path d="M 0 0 
L -2 0 
" id="m2d6de4c35e" style="stroke:#000000;stroke-width:0.6;"/>
      </defs>
      <g>
       <use style="stroke:#000000;stroke-width:0.6;" x="45.88" xlink:href="#m2d6de4c35e" y="132.892635"/>
      </g>
     </g>
    </g>
    <g id="ytick_4">
     <g id="line2d_9">
      <g>
       <use style="stroke:#000000;stroke-width:0.6;" x="45.88" xlink:href="#m2d6de4c35e" y="106.33103"/>
      </g>
     </g>
    </g>
    <g id="ytick_5">
     <g id="line2d_10">
      <g>
       <use style="stroke:#000000;stroke-width:0.6;" x="45.88" xlink:href="#m2d6de4c35e" y="87.485271"/>
      </g>
     </g>
    </g>
    <g id="ytick_6">
     <g id="line2d_11">
      <g>
       <use style="stroke:#000000;stroke-width:0.6;" x="45.88" xlink:href="#m2d6de4c35e" y="72.867365"/>
      </g>
     </g>
    </g>
    <g id="ytick_7">
     <g id="line2d_12">
      <g>
       <use style="stroke:#000000;stroke-width:0.6;" x="45.88" xlink:href="#m2d6de4c35e" y="60.923665"/>
      </g>
     </g>
    </g>
    <g id="ytick_8">
     <g id="line2d_13">
      <g>
       <use style="stroke:#000000;stroke-width:0.6;" x="45.88" xlink:href="#m2d6de4c35e" y="50.825412"/>
      </g>
     </g>
    </g>
    <g id="ytick_9">
     <g id="line2d_14">
      <g>
       <use style="stroke:#000000;stroke-width:0.6;" x="45.88" xlink:href="#m2d6de4c35e" y="42.077906"/>
      </g>
     </g>
    </g>
    <g id="ytick_10">
     <g id="line2d_15">
      <g>
       <use style="stroke:#000000;stroke-width:0.6;" x="45.88" xlink:href="#m2d6de4c35e" y="34.36206"/>
      </g>
     </g>
    </g>
   </g>
   <g id="patch_3">
    <path d="M 45.88 178.3 
L 45.88 10.7 
" style="fill:none;stroke:#000000;stroke-linecap:square;stroke-linejoin:miter;stroke-width:0.8;"/>
   </g>
   <g id="patch_4">
    <path d="M 487.106803 178.3 
L 487.106803 10.7 
" style="fill:none;stroke:#000000;stroke-linecap:square;stroke-linejoin:miter;stroke-width:0.8;"/>
   </g>
   <g id="patch_5">
    <path d="M 45.88 178.3 
L 487.106803 178.3 
" style="fill:none;stroke:#000000;stroke-linecap:square;stroke-linejoin:miter;stroke-width:0.8;"/>
   </g>
   <g id="patch_6">
    <path d="M 45.88 10.7 
L 487.106803 10.7 
" style="fill:none;stroke:#000000;stroke-linecap:square;stroke-linejoin:miter;stroke-width:0.8;"/>
   </g>
  </g>
 </g>
 <defs>
  <clipPath id="pc553692971">
   <rect height="167.6" width="441.226803" x="45.88" y="10.7"/>
  </clipPath>
 </defs>
</svg>
