<?xml version="1.0" encoding="utf-8" standalone="no"?>
<!DOCTYPE svg PUBLIC "-//W3C//DTD SVG 1.1//EN"
  "http://www.w3.org/Graphics/SVG/1.1/DTD/svg11.dtd">
<!-- Created with matplotlib (http://matplotlib.org/) -->
<svg height="136pt" version="1.1" viewBox="0 0 137 136" width="137pt" xmlns="http://www.w3.org/2000/svg" xmlns:xlink="http://www.w3.org/1999/xlink">
 <defs>
  <style type="text/css">
*{stroke-linecap:butt;stroke-linejoin:round;}
  </style>
 </defs>
 <g id="figure_1">
  <g id="patch_1">
   <path d="M 0 136.237344 
L 137.7875 136.237344 
L 137.7875 0 
L 0 0 
z
" style="fill:#ffffff;"/>
  </g>
  <g id="axes_1">
   <g id="patch_2">
    <path d="M 33.2875 112.359219 
L 127.0875 112.359219 
L 127.0875 10.999219 
L 33.2875 10.999219 
z
" style="fill:#ffffff;"/>
   </g>
   <g id="PolyCollection_1">
    <path clip-path="url(#p99ebabc121)" d="M 82.118827 112.359219 
L 78.256173 112.359219 
L 77.892041 111.353705 
L 77.441358 110.348191 
L 76.853315 109.342677 
L 76.092901 108.337163 
L 75.156755 107.331649 
L 74.077111 106.326135 
L 72.913009 105.320621 
L 71.734163 104.315107 
L 70.604989 103.309593 
L 69.574013 102.304079 
L 68.669795 101.298565 
L 67.90166 100.293051 
L 67.26312 99.287537 
L 66.736671 98.282023 
L 66.299375 97.276509 
L 65.928412 96.270995 
L 65.605372 95.26548 
L 65.318204 94.259966 
L 65.060663 93.254452 
L 64.830228 92.248938 
L 64.625959 91.243424 
L 64.447366 90.23791 
L 64.294398 89.232396 
L 64.167822 88.226882 
L 64.069099 87.221368 
L 63.999313 86.215854 
L 63.957498 85.21034 
L 63.939272 84.204826 
L 63.936814 83.199312 
L 63.940757 82.193798 
L 63.943701 81.188284 
L 63.943932 80.18277 
L 63.947242 79.177256 
L 63.965043 78.171742 
L 64.008613 77.166228 
L 64.081692 76.160714 
L 64.175276 75.1552 
L 64.26805 74.149686 
L 64.333236 73.144172 
L 64.349048 72.138658 
L 64.307729 71.133144 
L 64.218694 70.12763 
L 64.104445 69.122116 
L 63.99167 68.116602 
L 63.902084 67.111088 
L 63.846856 66.105574 
L 63.825782 65.10006 
L 63.82962 64.094546 
L 63.842954 63.089032 
L 63.84601 62.083518 
L 63.81578 61.078004 
L 63.728107 60.07249 
L 63.562102 59.066976 
L 63.306535 58.061462 
L 62.965819 57.055948 
L 62.562034 56.050434 
L 62.130162 55.04492 
L 61.706464 54.039406 
L 61.313677 53.033892 
L 60.949473 52.028378 
L 60.584396 51.022864 
L 60.171611 50.01735 
L 59.665051 49.011836 
L 59.037968 48.006322 
L 58.293352 47.000808 
L 57.461677 45.995294 
L 56.587842 44.98978 
L 55.714361 43.984266 
L 54.86905 42.978752 
L 54.061977 41.973238 
L 53.290817 40.967724 
L 52.549404 39.96221 
L 51.83373 38.956696 
L 51.142529 37.951182 
L 50.473433 36.945668 
L 49.81789 35.940154 
L 49.157882 34.93464 
L 48.465858 33.929126 
L 47.70779 32.923612 
L 46.848443 31.918098 
L 45.857977 30.912584 
L 44.719487 29.90707 
L 43.437537 28.901556 
L 42.047538 27.896042 
L 40.624631 26.890527 
L 39.288963 25.885013 
L 38.203196 24.879499 
L 37.558856 23.873985 
L 37.551136 22.868471 
L 38.345924 21.862957 
L 40.046332 20.857443 
L 42.66721 19.851929 
L 46.124198 18.846415 
L 50.239883 17.840901 
L 54.765448 16.835387 
L 59.413547 15.829873 
L 63.897001 14.824359 
L 67.96727 13.818845 
L 71.445911 12.813331 
L 88.929089 12.813331 
L 88.929089 12.813331 
L 92.40773 13.818845 
L 96.477999 14.824359 
L 100.961453 15.829873 
L 105.609552 16.835387 
L 110.135117 17.840901 
L 114.250802 18.846415 
L 117.70779 19.851929 
L 120.328668 20.857443 
L 122.029076 21.862957 
L 122.823864 22.868471 
L 122.816144 23.873985 
L 122.171804 24.879499 
L 121.086037 25.885013 
L 119.750369 26.890527 
L 118.327462 27.896042 
L 116.937463 28.901556 
L 115.655513 29.90707 
L 114.517023 30.912584 
L 113.526557 31.918098 
L 112.66721 32.923612 
L 111.909142 33.929126 
L 111.217118 34.93464 
L 110.55711 35.940154 
L 109.901567 36.945668 
L 109.232471 37.951182 
L 108.54127 38.956696 
L 107.825596 39.96221 
L 107.084183 40.967724 
L 106.313023 41.973238 
L 105.50595 42.978752 
L 104.660639 43.984266 
L 103.787158 44.98978 
L 102.913323 45.995294 
L 102.081648 47.000808 
L 101.337032 48.006322 
L 100.709949 49.011836 
L 100.203389 50.01735 
L 99.790604 51.022864 
L 99.425527 52.028378 
L 99.061323 53.033892 
L 98.668536 54.039406 
L 98.244838 55.04492 
L 97.812966 56.050434 
L 97.409181 57.055948 
L 97.068465 58.061462 
L 96.812898 59.066976 
L 96.646893 60.07249 
L 96.55922 61.078004 
L 96.52899 62.083518 
L 96.532046 63.089032 
L 96.54538 64.094546 
L 96.549218 65.10006 
L 96.528144 66.105574 
L 96.472916 67.111088 
L 96.38333 68.116602 
L 96.270555 69.122116 
L 96.156306 70.12763 
L 96.067271 71.133144 
L 96.025952 72.138658 
L 96.041764 73.144172 
L 96.10695 74.149686 
L 96.199724 75.1552 
L 96.293308 76.160714 
L 96.366387 77.166228 
L 96.409957 78.171742 
L 96.427758 79.177256 
L 96.431068 80.18277 
L 96.431299 81.188284 
L 96.434243 82.193798 
L 96.438186 83.199312 
L 96.435728 84.204826 
L 96.417502 85.21034 
L 96.375687 86.215854 
L 96.305901 87.221368 
L 96.207178 88.226882 
L 96.080602 89.232396 
L 95.927634 90.23791 
L 95.749041 91.243424 
L 95.544772 92.248938 
L 95.314337 93.254452 
L 95.056796 94.259966 
L 94.769628 95.26548 
L 94.446588 96.270995 
L 94.075625 97.276509 
L 93.638329 98.282023 
L 93.11188 99.287537 
L 92.47334 100.293051 
L 91.705205 101.298565 
L 90.800987 102.304079 
L 89.770011 103.309593 
L 88.640837 104.315107 
L 87.461991 105.320621 
L 86.297889 106.326135 
L 85.218245 107.331649 
L 84.282099 108.337163 
L 83.521685 109.342677 
L 82.933642 110.348191 
L 82.482959 111.353705 
L 82.118827 112.359219 
z
" style="fill:#1f77b4;fill-opacity:0.3;"/>
   </g>
   <g id="matplotlib.axis_1">
    <g id="xtick_1">
     <g id="line2d_1">
      <defs>
       <path d="M 0 0 
L 0 3.5 
" id="m88f0a8d80c" style="stroke:#000000;stroke-width:0.8;"/>
      </defs>
      <g>
       <use style="stroke:#000000;stroke-width:0.8;" x="46.078409" xlink:href="#m88f0a8d80c" y="112.359219"/>
      </g>
     </g>
     <g id="text_1">
      <!-- 0.8 -->
      <defs>
       <path d="M 31.78125 66.40625 
Q 24.171875 66.40625 20.328125 58.90625 
Q 16.5 51.421875 16.5 36.375 
Q 16.5 21.390625 20.328125 13.890625 
Q 24.171875 6.390625 31.78125 6.390625 
Q 39.453125 6.390625 43.28125 13.890625 
Q 47.125 21.390625 47.125 36.375 
Q 47.125 51.421875 43.28125 58.90625 
Q 39.453125 66.40625 31.78125 66.40625 
z
M 31.78125 74.21875 
Q 44.046875 74.21875 50.515625 64.515625 
Q 56.984375 54.828125 56.984375 36.375 
Q 56.984375 17.96875 50.515625 8.265625 
Q 44.046875 -1.421875 31.78125 -1.421875 
Q 19.53125 -1.421875 13.0625 8.265625 
Q 6.59375 17.96875 6.59375 36.375 
Q 6.59375 54.828125 13.0625 64.515625 
Q 19.53125 74.21875 31.78125 74.21875 
z
" id="DejaVuSans-30"/>
       <path d="M 10.6875 12.40625 
L 21 12.40625 
L 21 0 
L 10.6875 0 
z
" id="DejaVuSans-2e"/>
       <path d="M 31.78125 34.625 
Q 24.75 34.625 20.71875 30.859375 
Q 16.703125 27.09375 16.703125 20.515625 
Q 16.703125 13.921875 20.71875 10.15625 
Q 24.75 6.390625 31.78125 6.390625 
Q 38.8125 6.390625 42.859375 10.171875 
Q 46.921875 13.96875 46.921875 20.515625 
Q 46.921875 27.09375 42.890625 30.859375 
Q 38.875 34.625 31.78125 34.625 
z
M 21.921875 38.8125 
Q 15.578125 40.375 12.03125 44.71875 
Q 8.5 49.078125 8.5 55.328125 
Q 8.5 64.0625 14.71875 69.140625 
Q 20.953125 74.21875 31.78125 74.21875 
Q 42.671875 74.21875 48.875 69.140625 
Q 55.078125 64.0625 55.078125 55.328125 
Q 55.078125 49.078125 51.53125 44.71875 
Q 48 40.375 41.703125 38.8125 
Q 48.828125 37.15625 52.796875 32.3125 
Q 56.78125 27.484375 56.78125 20.515625 
Q 56.78125 9.90625 50.3125 4.234375 
Q 43.84375 -1.421875 31.78125 -1.421875 
Q 19.734375 -1.421875 13.25 4.234375 
Q 6.78125 9.90625 6.78125 20.515625 
Q 6.78125 27.484375 10.78125 32.3125 
Q 14.796875 37.15625 21.921875 38.8125 
z
M 18.3125 54.390625 
Q 18.3125 48.734375 21.84375 45.5625 
Q 25.390625 42.390625 31.78125 42.390625 
Q 38.140625 42.390625 41.71875 45.5625 
Q 45.3125 48.734375 45.3125 54.390625 
Q 45.3125 60.0625 41.71875 63.234375 
Q 38.140625 66.40625 31.78125 66.40625 
Q 25.390625 66.40625 21.84375 63.234375 
Q 18.3125 60.0625 18.3125 54.390625 
z
" id="DejaVuSans-38"/>
      </defs>
      <g transform="translate(38.126847 126.957656)scale(0.1 -0.1)">
       <use xlink:href="#DejaVuSans-30"/>
       <use x="63.623047" xlink:href="#DejaVuSans-2e"/>
       <use x="95.410156" xlink:href="#DejaVuSans-38"/>
      </g>
     </g>
    </g>
    <g id="xtick_2">
     <g id="line2d_2">
      <g>
       <use style="stroke:#000000;stroke-width:0.8;" x="80.1875" xlink:href="#m88f0a8d80c" y="112.359219"/>
      </g>
     </g>
     <g id="text_2">
      <!-- 1.0 -->
      <defs>
       <path d="M 12.40625 8.296875 
L 28.515625 8.296875 
L 28.515625 63.921875 
L 10.984375 60.40625 
L 10.984375 69.390625 
L 28.421875 72.90625 
L 38.28125 72.90625 
L 38.28125 8.296875 
L 54.390625 8.296875 
L 54.390625 0 
L 12.40625 0 
z
" id="DejaVuSans-31"/>
      </defs>
      <g transform="translate(72.235938 126.957656)scale(0.1 -0.1)">
       <use xlink:href="#DejaVuSans-31"/>
       <use x="63.623047" xlink:href="#DejaVuSans-2e"/>
       <use x="95.410156" xlink:href="#DejaVuSans-30"/>
      </g>
     </g>
    </g>
    <g id="xtick_3">
     <g id="line2d_3">
      <g>
       <use style="stroke:#000000;stroke-width:0.8;" x="114.296591" xlink:href="#m88f0a8d80c" y="112.359219"/>
      </g>
     </g>
     <g id="text_3">
      <!-- 1.2 -->
      <defs>
       <path d="M 19.1875 8.296875 
L 53.609375 8.296875 
L 53.609375 0 
L 7.328125 0 
L 7.328125 8.296875 
Q 12.9375 14.109375 22.625 23.890625 
Q 32.328125 33.6875 34.8125 36.53125 
Q 39.546875 41.84375 41.421875 45.53125 
Q 43.3125 49.21875 43.3125 52.78125 
Q 43.3125 58.59375 39.234375 62.25 
Q 35.15625 65.921875 28.609375 65.921875 
Q 23.96875 65.921875 18.8125 64.3125 
Q 13.671875 62.703125 7.8125 59.421875 
L 7.8125 69.390625 
Q 13.765625 71.78125 18.9375 73 
Q 24.125 74.21875 28.421875 74.21875 
Q 39.75 74.21875 46.484375 68.546875 
Q 53.21875 62.890625 53.21875 53.421875 
Q 53.21875 48.921875 51.53125 44.890625 
Q 49.859375 40.875 45.40625 35.40625 
Q 44.1875 33.984375 37.640625 27.21875 
Q 31.109375 20.453125 19.1875 8.296875 
z
" id="DejaVuSans-32"/>
      </defs>
      <g transform="translate(106.345028 126.957656)scale(0.1 -0.1)">
       <use xlink:href="#DejaVuSans-31"/>
       <use x="63.623047" xlink:href="#DejaVuSans-2e"/>
       <use x="95.410156" xlink:href="#DejaVuSans-32"/>
      </g>
     </g>
    </g>
   </g>
   <g id="matplotlib.axis_2">
    <g id="ytick_1">
     <g id="line2d_4">
      <defs>
       <path d="M 0 0 
L -3.5 0 
" id="mf8884d8c4c" style="stroke:#000000;stroke-width:0.8;"/>
      </defs>
      <g>
       <use style="stroke:#000000;stroke-width:0.8;" x="33.2875" xlink:href="#mf8884d8c4c" y="112.359219"/>
      </g>
     </g>
     <g id="text_4">
      <!-- 0 -->
      <g transform="translate(19.925 116.158437)scale(0.1 -0.1)">
       <use xlink:href="#DejaVuSans-30"/>
      </g>
     </g>
    </g>
    <g id="ytick_2">
     <g id="line2d_5">
      <g>
       <use style="stroke:#000000;stroke-width:0.8;" x="33.2875" xlink:href="#mf8884d8c4c" y="61.679219"/>
      </g>
     </g>
     <g id="text_5">
      <!-- 150 -->
      <defs>
       <path d="M 10.796875 72.90625 
L 49.515625 72.90625 
L 49.515625 64.59375 
L 19.828125 64.59375 
L 19.828125 46.734375 
Q 21.96875 47.46875 24.109375 47.828125 
Q 26.265625 48.1875 28.421875 48.1875 
Q 40.625 48.1875 47.75 41.5 
Q 54.890625 34.8125 54.890625 23.390625 
Q 54.890625 11.625 47.5625 5.09375 
Q 40.234375 -1.421875 26.90625 -1.421875 
Q 22.3125 -1.421875 17.546875 -0.640625 
Q 12.796875 0.140625 7.71875 1.703125 
L 7.71875 11.625 
Q 12.109375 9.234375 16.796875 8.0625 
Q 21.484375 6.890625 26.703125 6.890625 
Q 35.15625 6.890625 40.078125 11.328125 
Q 45.015625 15.765625 45.015625 23.390625 
Q 45.015625 31 40.078125 35.4375 
Q 35.15625 39.890625 26.703125 39.890625 
Q 22.75 39.890625 18.8125 39.015625 
Q 14.890625 38.140625 10.796875 36.28125 
z
" id="DejaVuSans-35"/>
      </defs>
      <g transform="translate(7.2 65.478437)scale(0.1 -0.1)">
       <use xlink:href="#DejaVuSans-31"/>
       <use x="63.623047" xlink:href="#DejaVuSans-35"/>
       <use x="127.246094" xlink:href="#DejaVuSans-30"/>
      </g>
     </g>
    </g>
    <g id="ytick_3">
     <g id="line2d_6">
      <g>
       <use style="stroke:#000000;stroke-width:0.8;" x="33.2875" xlink:href="#mf8884d8c4c" y="10.999219"/>
      </g>
     </g>
     <g id="text_6">
      <!-- 300 -->
      <defs>
       <path d="M 40.578125 39.3125 
Q 47.65625 37.796875 51.625 33 
Q 55.609375 28.21875 55.609375 21.1875 
Q 55.609375 10.40625 48.1875 4.484375 
Q 40.765625 -1.421875 27.09375 -1.421875 
Q 22.515625 -1.421875 17.65625 -0.515625 
Q 12.796875 0.390625 7.625 2.203125 
L 7.625 11.71875 
Q 11.71875 9.328125 16.59375 8.109375 
Q 21.484375 6.890625 26.8125 6.890625 
Q 36.078125 6.890625 40.9375 10.546875 
Q 45.796875 14.203125 45.796875 21.1875 
Q 45.796875 27.640625 41.28125 31.265625 
Q 36.765625 34.90625 28.71875 34.90625 
L 20.21875 34.90625 
L 20.21875 43.015625 
L 29.109375 43.015625 
Q 36.375 43.015625 40.234375 45.921875 
Q 44.09375 48.828125 44.09375 54.296875 
Q 44.09375 59.90625 40.109375 62.90625 
Q 36.140625 65.921875 28.71875 65.921875 
Q 24.65625 65.921875 20.015625 65.03125 
Q 15.375 64.15625 9.8125 62.3125 
L 9.8125 71.09375 
Q 15.4375 72.65625 20.34375 73.4375 
Q 25.25 74.21875 29.59375 74.21875 
Q 40.828125 74.21875 47.359375 69.109375 
Q 53.90625 64.015625 53.90625 55.328125 
Q 53.90625 49.265625 50.4375 45.09375 
Q 46.96875 40.921875 40.578125 39.3125 
z
" id="DejaVuSans-33"/>
      </defs>
      <g transform="translate(7.2 14.798438)scale(0.1 -0.1)">
       <use xlink:href="#DejaVuSans-33"/>
       <use x="63.623047" xlink:href="#DejaVuSans-30"/>
       <use x="127.246094" xlink:href="#DejaVuSans-30"/>
      </g>
     </g>
    </g>
   </g>
   <g id="patch_3">
    <path d="M 33.2875 112.359219 
L 33.2875 10.999219 
" style="fill:none;stroke:#000000;stroke-linecap:square;stroke-linejoin:miter;stroke-width:0.8;"/>
   </g>
   <g id="patch_4">
    <path d="M 33.2875 112.359219 
L 127.0875 112.359219 
" style="fill:none;stroke:#000000;stroke-linecap:square;stroke-linejoin:miter;stroke-width:0.8;"/>
   </g>
  </g>
 </g>
 <defs>
  <clipPath id="p99ebabc121">
   <rect height="101.36" width="93.8" x="33.2875" y="10.999219"/>
  </clipPath>
 </defs>
</svg>
