<?xml version="1.0" encoding="utf-8" standalone="no"?>
<!DOCTYPE svg PUBLIC "-//W3C//DTD SVG 1.1//EN"
  "http://www.w3.org/Graphics/SVG/1.1/DTD/svg11.dtd">
<!-- Created with matplotlib (http://matplotlib.org/) -->
<svg height="206pt" version="1.1" viewBox="0 0 1430 206" width="1430pt" xmlns="http://www.w3.org/2000/svg" xmlns:xlink="http://www.w3.org/1999/xlink">
 <defs>
  <style type="text/css">
*{stroke-linecap:butt;stroke-linejoin:round;}
  </style>
 </defs>
 <g id="figure_1">
  <g id="patch_1">
   <path d="M 0 206.705 
L 1430.08 206.705 
L 1430.08 0 
L 0 0 
z
" style="fill:#ffffff;"/>
  </g>
  <g id="axes_1">
   <g id="patch_2">
    <path d="M 24.38 177.02 
L 1419.38 177.02 
L 1419.38 10.7 
L 24.38 10.7 
z
" style="fill:#ffffff;"/>
   </g>
   <g id="matplotlib.axis_1">
    <g id="xtick_1">
     <g id="line2d_1">
      <defs>
       <path d="M 0 0 
L 0 3.5 
" id="m1afc15d4f5" style="stroke:#000000;stroke-width:0.8;"/>
      </defs>
      <g>
       <use style="stroke:#000000;stroke-width:0.8;" x="24.38" xlink:href="#m1afc15d4f5" y="177.02"/>
      </g>
     </g>
     <g id="text_1">
      <!-- 0 -->
      <defs>
       <path d="M 31.78125 66.40625 
Q 24.171875 66.40625 20.328125 58.90625 
Q 16.5 51.421875 16.5 36.375 
Q 16.5 21.390625 20.328125 13.890625 
Q 24.171875 6.390625 31.78125 6.390625 
Q 39.453125 6.390625 43.28125 13.890625 
Q 47.125 21.390625 47.125 36.375 
Q 47.125 51.421875 43.28125 58.90625 
Q 39.453125 66.40625 31.78125 66.40625 
z
M 31.78125 74.21875 
Q 44.046875 74.21875 50.515625 64.515625 
Q 56.984375 54.828125 56.984375 36.375 
Q 56.984375 17.96875 50.515625 8.265625 
Q 44.046875 -1.421875 31.78125 -1.421875 
Q 19.53125 -1.421875 13.0625 8.265625 
Q 6.59375 17.96875 6.59375 36.375 
Q 6.59375 54.828125 13.0625 64.515625 
Q 19.53125 74.21875 31.78125 74.21875 
z
" id="DejaVuSans-30"/>
      </defs>
      <g transform="translate(19.29 196.1775)scale(0.16 -0.16)">
       <use xlink:href="#DejaVuSans-30"/>
      </g>
     </g>
    </g>
    <g id="xtick_2">
     <g id="line2d_2">
      <g>
       <use style="stroke:#000000;stroke-width:0.8;" x="254.146241" xlink:href="#m1afc15d4f5" y="177.02"/>
      </g>
     </g>
     <g id="text_2">
      <!-- 5 -->
      <defs>
       <path d="M 10.796875 72.90625 
L 49.515625 72.90625 
L 49.515625 64.59375 
L 19.828125 64.59375 
L 19.828125 46.734375 
Q 21.96875 47.46875 24.109375 47.828125 
Q 26.265625 48.1875 28.421875 48.1875 
Q 40.625 48.1875 47.75 41.5 
Q 54.890625 34.8125 54.890625 23.390625 
Q 54.890625 11.625 47.5625 5.09375 
Q 40.234375 -1.421875 26.90625 -1.421875 
Q 22.3125 -1.421875 17.546875 -0.640625 
Q 12.796875 0.140625 7.71875 1.703125 
L 7.71875 11.625 
Q 12.109375 9.234375 16.796875 8.0625 
Q 21.484375 6.890625 26.703125 6.890625 
Q 35.15625 6.890625 40.078125 11.328125 
Q 45.015625 15.765625 45.015625 23.390625 
Q 45.015625 31 40.078125 35.4375 
Q 35.15625 39.890625 26.703125 39.890625 
Q 22.75 39.890625 18.8125 39.015625 
Q 14.890625 38.140625 10.796875 36.28125 
z
" id="DejaVuSans-35"/>
      </defs>
      <g transform="translate(249.056241 196.1775)scale(0.16 -0.16)">
       <use xlink:href="#DejaVuSans-35"/>
      </g>
     </g>
    </g>
    <g id="xtick_3">
     <g id="line2d_3">
      <g>
       <use style="stroke:#000000;stroke-width:0.8;" x="483.912483" xlink:href="#m1afc15d4f5" y="177.02"/>
      </g>
     </g>
     <g id="text_3">
      <!-- 10 -->
      <defs>
       <path d="M 12.40625 8.296875 
L 28.515625 8.296875 
L 28.515625 63.921875 
L 10.984375 60.40625 
L 10.984375 69.390625 
L 28.421875 72.90625 
L 38.28125 72.90625 
L 38.28125 8.296875 
L 54.390625 8.296875 
L 54.390625 0 
L 12.40625 0 
z
" id="DejaVuSans-31"/>
      </defs>
      <g transform="translate(473.732483 196.1775)scale(0.16 -0.16)">
       <use xlink:href="#DejaVuSans-31"/>
       <use x="63.623047" xlink:href="#DejaVuSans-30"/>
      </g>
     </g>
    </g>
    <g id="xtick_4">
     <g id="line2d_4">
      <g>
       <use style="stroke:#000000;stroke-width:0.8;" x="713.678724" xlink:href="#m1afc15d4f5" y="177.02"/>
      </g>
     </g>
     <g id="text_4">
      <!-- 15 -->
      <g transform="translate(703.498724 196.1775)scale(0.16 -0.16)">
       <use xlink:href="#DejaVuSans-31"/>
       <use x="63.623047" xlink:href="#DejaVuSans-35"/>
      </g>
     </g>
    </g>
    <g id="xtick_5">
     <g id="line2d_5">
      <g>
       <use style="stroke:#000000;stroke-width:0.8;" x="943.444965" xlink:href="#m1afc15d4f5" y="177.02"/>
      </g>
     </g>
     <g id="text_5">
      <!-- 20 -->
      <defs>
       <path d="M 19.1875 8.296875 
L 53.609375 8.296875 
L 53.609375 0 
L 7.328125 0 
L 7.328125 8.296875 
Q 12.9375 14.109375 22.625 23.890625 
Q 32.328125 33.6875 34.8125 36.53125 
Q 39.546875 41.84375 41.421875 45.53125 
Q 43.3125 49.21875 43.3125 52.78125 
Q 43.3125 58.59375 39.234375 62.25 
Q 35.15625 65.921875 28.609375 65.921875 
Q 23.96875 65.921875 18.8125 64.3125 
Q 13.671875 62.703125 7.8125 59.421875 
L 7.8125 69.390625 
Q 13.765625 71.78125 18.9375 73 
Q 24.125 74.21875 28.421875 74.21875 
Q 39.75 74.21875 46.484375 68.546875 
Q 53.21875 62.890625 53.21875 53.421875 
Q 53.21875 48.921875 51.53125 44.890625 
Q 49.859375 40.875 45.40625 35.40625 
Q 44.1875 33.984375 37.640625 27.21875 
Q 31.109375 20.453125 19.1875 8.296875 
z
" id="DejaVuSans-32"/>
      </defs>
      <g transform="translate(933.264965 196.1775)scale(0.16 -0.16)">
       <use xlink:href="#DejaVuSans-32"/>
       <use x="63.623047" xlink:href="#DejaVuSans-30"/>
      </g>
     </g>
    </g>
    <g id="xtick_6">
     <g id="line2d_6">
      <g>
       <use style="stroke:#000000;stroke-width:0.8;" x="1173.211206" xlink:href="#m1afc15d4f5" y="177.02"/>
      </g>
     </g>
     <g id="text_6">
      <!-- 25 -->
      <g transform="translate(1163.031206 196.1775)scale(0.16 -0.16)">
       <use xlink:href="#DejaVuSans-32"/>
       <use x="63.623047" xlink:href="#DejaVuSans-35"/>
      </g>
     </g>
    </g>
    <g id="xtick_7">
     <g id="line2d_7">
      <g>
       <use style="stroke:#000000;stroke-width:0.8;" x="1402.977448" xlink:href="#m1afc15d4f5" y="177.02"/>
      </g>
     </g>
     <g id="text_7">
      <!-- 30 -->
      <defs>
       <path d="M 40.578125 39.3125 
Q 47.65625 37.796875 51.625 33 
Q 55.609375 28.21875 55.609375 21.1875 
Q 55.609375 10.40625 48.1875 4.484375 
Q 40.765625 -1.421875 27.09375 -1.421875 
Q 22.515625 -1.421875 17.65625 -0.515625 
Q 12.796875 0.390625 7.625 2.203125 
L 7.625 11.71875 
Q 11.71875 9.328125 16.59375 8.109375 
Q 21.484375 6.890625 26.8125 6.890625 
Q 36.078125 6.890625 40.9375 10.546875 
Q 45.796875 14.203125 45.796875 21.1875 
Q 45.796875 27.640625 41.28125 31.265625 
Q 36.765625 34.90625 28.71875 34.90625 
L 20.21875 34.90625 
L 20.21875 43.015625 
L 29.109375 43.015625 
Q 36.375 43.015625 40.234375 45.921875 
Q 44.09375 48.828125 44.09375 54.296875 
Q 44.09375 59.90625 40.109375 62.90625 
Q 36.140625 65.921875 28.71875 65.921875 
Q 24.65625 65.921875 20.015625 65.03125 
Q 15.375 64.15625 9.8125 62.3125 
L 9.8125 71.09375 
Q 15.4375 72.65625 20.34375 73.4375 
Q 25.25 74.21875 29.59375 74.21875 
Q 40.828125 74.21875 47.359375 69.109375 
Q 53.90625 64.015625 53.90625 55.328125 
Q 53.90625 49.265625 50.4375 45.09375 
Q 46.96875 40.921875 40.578125 39.3125 
z
" id="DejaVuSans-33"/>
      </defs>
      <g transform="translate(1392.797448 196.1775)scale(0.16 -0.16)">
       <use xlink:href="#DejaVuSans-33"/>
       <use x="63.623047" xlink:href="#DejaVuSans-30"/>
      </g>
     </g>
    </g>
   </g>
   <g id="matplotlib.axis_2">
    <g id="ytick_1">
     <g id="line2d_8">
      <defs>
       <path d="M 0 0 
L -3.5 0 
" id="mc8a5975254" style="stroke:#000000;stroke-width:0.8;"/>
      </defs>
      <g>
       <use style="stroke:#000000;stroke-width:0.8;" x="24.38" xlink:href="#mc8a5975254" y="155.825011"/>
      </g>
     </g>
     <g id="text_8">
      <!-- 1 -->
      <g transform="translate(7.2 161.903761)scale(0.16 -0.16)">
       <use xlink:href="#DejaVuSans-31"/>
      </g>
     </g>
    </g>
    <g id="ytick_2">
     <g id="line2d_9">
      <g>
       <use style="stroke:#000000;stroke-width:0.8;" x="24.38" xlink:href="#mc8a5975254" y="88.877364"/>
      </g>
     </g>
     <g id="text_9">
      <!-- 2 -->
      <g transform="translate(7.2 94.956114)scale(0.16 -0.16)">
       <use xlink:href="#DejaVuSans-32"/>
      </g>
     </g>
    </g>
    <g id="ytick_3">
     <g id="line2d_10">
      <g>
       <use style="stroke:#000000;stroke-width:0.8;" x="24.38" xlink:href="#mc8a5975254" y="21.929716"/>
      </g>
     </g>
     <g id="text_10">
      <!-- 3 -->
      <g transform="translate(7.2 28.008466)scale(0.16 -0.16)">
       <use xlink:href="#DejaVuSans-33"/>
      </g>
     </g>
    </g>
   </g>
   <g id="line2d_11">
    <path clip-path="url(#p58d3f54f58)" d="M 24.38 155.825011 
L 51.973087 156.079399 
L 56.061088 156.060549 
L 121.467725 156.687437 
L 130.665727 156.099932 
L 136.797729 155.79692 
L 145.995271 155.838378 
L 154.171273 155.370137 
L 167.456817 154.527328 
L 195.050364 154.763924 
L 214.467909 153.803246 
L 218.55591 153.773661 
L 247.170998 154.073226 
L 251.258999 154.030087 
L 267.610543 153.286847 
L 279.874546 153.386294 
L 293.160089 152.759611 
L 320.753636 153.152506 
L 416.819361 154.476824 
L 473.028456 155.10407 
L 486.313999 154.513622 
L 521.061088 154.883084 
L 534.347092 154.398957 
L 563.984179 154.674238 
L 569.094181 154.596218 
L 582.380184 154.622489 
L 620.193274 155.025401 
L 623.259274 154.957847 
L 627.346816 154.853883 
L 640.632819 154.840909 
L 662.094364 155.006974 
L 672.313907 154.881944 
L 690.709452 155.036596 
L 697.863454 154.799278 
L 727.501001 154.730609 
L 746.918546 154.893122 
L 759.18209 154.365567 
L 779.621635 154.519079 
L 793.929638 154.222808 
L 835.830729 154.649629 
L 847.072272 153.95003 
L 853.204274 153.648114 
L 859.336275 153.678994 
L 873.643819 153.77434 
L 881.819361 153.44933 
L 894.083364 152.93722 
L 902.259366 152.627088 
L 914.52291 151.998184 
L 927.808453 150.978455 
L 935.984455 150.987177 
L 946.203998 150.570756 
L 953.358 150.586871 
L 957.446001 150.522917 
L 1006.501093 151.310946 
L 1021.830637 151.50261 
L 1037.160181 150.944549 
L 1061.687728 151.268637 
L 1078.039272 150.411851 
L 1085.193274 150.44533 
L 1090.303275 150.358753 
L 1115.852362 150.712765 
L 1127.094364 150.064966 
L 1137.313907 149.272648 
L 1147.53391 148.514078 
L 1158.775453 147.774589 
L 1179.215458 146.270861 
L 1185.347 145.98456 
L 1191.479001 146.08612 
L 1196.589002 146.091288 
L 1202.720544 145.733397 
L 1217.028548 144.61225 
L 1230.314091 143.66111 
L 1263.017639 141.617315 
L 1270.171182 141.399821 
L 1281.413184 141.186796 
L 1291.632727 140.933679 
L 1303.89673 141.124223 
L 1316.160273 140.984707 
L 1332.511818 140.660109 
L 1342.73182 140.108929 
L 1367.259366 138.780216 
L 1373.390908 138.654346 
L 1394.852454 139.209911 
L 1405.072456 139.385665 
L 1414.269999 139.167176 
L 1419.38 138.970966 
L 1419.38 138.970966 
" style="fill:none;opacity:0.8;stroke:#fdcab5;stroke-linecap:square;stroke-width:3;"/>
   </g>
   <g id="line2d_12">
    <path clip-path="url(#p58d3f54f58)" d="M 24.38 155.825011 
L 36.643543 156.98143 
L 47.885546 157.718169 
L 50.951547 157.468282 
L 51.973087 157.514475 
L 52.995088 157.275656 
L 55.039088 157.241566 
L 61.17109 157.673317 
L 75.478633 158.663969 
L 79.566634 158.84349 
L 80.588635 158.652283 
L 82.632635 158.665701 
L 92.852638 159.196916 
L 109.204182 160.032282 
L 110.226182 159.93589 
L 120.445725 160.339394 
L 121.467725 160.218215 
L 124.533726 158.717572 
L 132.709728 154.320803 
L 135.775729 152.996857 
L 137.81927 153.153752 
L 143.951271 153.870547 
L 144.973271 153.881421 
L 148.039272 152.845895 
L 151.105273 151.481717 
L 155.193274 149.504906 
L 159.280815 147.412365 
L 162.346816 145.93181 
L 166.434817 144.397593 
L 167.456817 144.195136 
L 186.874362 147.587893 
L 193.006364 148.450958 
L 195.050364 147.803245 
L 202.203906 145.198884 
L 206.291907 143.870932 
L 214.467909 141.836949 
L 215.489909 141.754316 
L 218.55591 142.061755 
L 227.753453 143.739841 
L 229.797453 144.042826 
L 232.863454 144.195767 
L 248.192998 146.472743 
L 250.236998 146.487663 
L 251.258999 146.270724 
L 255.347 144.727934 
L 261.479001 142.348679 
L 264.544542 141.451405 
L 265.566543 141.313805 
L 266.588543 141.371108 
L 276.808545 143.257096 
L 278.852546 143.493587 
L 280.896546 142.830266 
L 288.050088 140.338974 
L 292.138089 139.209156 
L 299.292091 140.574957 
L 310.533634 142.573842 
L 323.819637 144.719492 
L 336.083181 146.505398 
L 348.347183 148.066562 
L 360.610727 149.389023 
L 376.962271 150.995455 
L 391.270275 152.192916 
L 410.68782 153.62126 
L 431.127365 154.891691 
L 451.56691 155.954067 
L 472.006455 156.804054 
L 474.050456 156.009054 
L 479.159998 153.700079 
L 482.225998 152.374743 
L 484.269999 151.559437 
L 485.291999 151.427592 
L 499.599543 152.75817 
L 500.621543 152.654747 
L 519.017547 154.195346 
L 521.061088 154.174291 
L 523.105089 153.386462 
L 528.21509 151.199377 
L 530.259091 150.393853 
L 531.281091 150.13148 
L 534.347092 150.345881 
L 547.632635 151.819322 
L 558.874638 152.875846 
L 560.918638 152.772245 
L 562.962179 152.845076 
L 566.02818 152.050493 
L 568.07218 152.029412 
L 571.138181 151.984347 
L 572.160181 151.980987 
L 574.204182 151.524679 
L 576.248182 151.640516 
L 590.555726 153.03344 
L 605.88527 154.311076 
L 618.149273 155.148105 
L 619.171273 155.203774 
L 622.237274 154.310521 
L 625.303275 154.217496 
L 627.346816 153.387694 
L 629.390816 153.306099 
L 630.412817 153.306253 
L 631.434817 153.192546 
L 632.456817 152.781085 
L 636.544818 153.042852 
L 637.566818 152.961977 
L 658.006364 154.698016 
L 660.050364 154.554291 
L 663.116365 154.103064 
L 665.160365 153.30182 
L 668.226366 152.967551 
L 670.269907 153.048877 
L 677.423909 153.696521 
L 679.467909 153.77666 
L 687.643911 154.311323 
L 690.709452 154.344842 
L 692.753453 153.538961 
L 695.819453 153.135876 
L 697.863454 152.402198 
L 698.885454 152.366715 
L 703.995455 152.693403 
L 706.039456 152.552585 
L 708.083456 152.318866 
L 711.149457 152.336518 
L 712.170998 152.032913 
L 716.258999 151.35648 
L 717.280999 151.431169 
L 718.302999 151.231304 
L 729.545002 152.425565 
L 734.654543 152.833448 
L 745.896546 153.775313 
L 746.918546 153.527249 
L 757.138089 149.648842 
L 758.160089 149.338455 
L 770.424092 150.858137 
L 771.446093 150.694695 
L 775.533634 151.058228 
L 779.621635 151.138544 
L 781.665636 150.703751 
L 782.687636 150.724991 
L 784.731636 150.178203 
L 785.753636 149.819474 
L 788.819637 149.188728 
L 789.841637 148.828451 
L 790.863638 148.799661 
L 796.99518 149.559708 
L 805.171182 150.509206 
L 823.566726 152.398995 
L 833.786729 153.304783 
L 834.808729 153.339529 
L 836.852729 152.513967 
L 840.940271 150.508965 
L 847.072272 147.453973 
L 850.138273 146.17169 
L 851.160273 145.85559 
L 854.226274 145.345203 
L 860.357816 146.135961 
L 870.577818 147.623119 
L 871.599819 147.687594 
L 875.68782 146.967029 
L 877.73182 146.50015 
L 880.797821 145.461144 
L 883.863362 144.418368 
L 885.907362 143.730663 
L 891.017364 142.198738 
L 894.083364 142.002395 
L 896.127365 141.847143 
L 900.215366 140.862967 
L 905.324907 139.611461 
L 909.412908 138.5538 
L 911.456909 138.01937 
L 913.500909 137.181539 
L 916.56691 135.481144 
L 923.720912 131.403604 
L 925.764453 130.437167 
L 926.786453 130.073813 
L 927.808453 129.89106 
L 933.940455 131.38318 
L 937.006455 130.880634 
L 944.160457 129.532253 
L 945.182457 129.460524 
L 947.225998 129.886019 
L 950.291999 130.534753 
L 952.336 130.821762 
L 953.358 130.780274 
L 955.402 130.498152 
L 958.468001 131.125954 
L 985.039548 136.921133 
L 993.21509 138.402362 
L 1006.501093 140.68557 
L 1018.764637 142.560221 
L 1020.808637 142.7527 
L 1021.830637 142.600533 
L 1024.896638 141.563368 
L 1033.07218 138.6032 
L 1034.094181 138.404725 
L 1036.138181 138.670241 
L 1050.446185 141.086938 
L 1060.665727 142.579555 
L 1062.709728 141.818095 
L 1067.819729 139.360815 
L 1071.90773 137.327654 
L 1074.973271 136.035355 
L 1075.995271 135.777471 
L 1081.105273 136.712038 
L 1084.171273 137.126727 
L 1088.259274 136.320525 
L 1092.347275 137.0199 
L 1103.588818 139.061507 
L 1113.808821 140.734826 
L 1114.830821 140.815565 
L 1116.874362 140.151389 
L 1121.984363 138.032576 
L 1127.094364 135.862317 
L 1130.160365 134.336233 
L 1134.248366 131.969854 
L 1141.401908 127.750316 
L 1144.467909 126.267381 
L 1147.53391 125.142238 
L 1153.665911 123.345437 
L 1156.731912 122.013244 
L 1165.929455 117.706321 
L 1177.171457 113.523014 
L 1180.236998 112.706676 
L 1182.280999 112.383999 
L 1184.324999 112.292807 
L 1185.347 112.365387 
L 1187.391 112.886986 
L 1194.545002 114.917064 
L 1195.567002 115.084251 
L 1197.611003 114.922789 
L 1199.655003 114.508218 
L 1202.720544 113.561587 
L 1205.786545 112.360937 
L 1210.896546 110.117811 
L 1218.050548 106.872467 
L 1222.138089 105.321035 
L 1224.18209 104.691308 
L 1231.336091 102.97498 
L 1251.775637 98.298579 
L 1256.885638 97.584476 
L 1261.995639 97.214297 
L 1266.083181 97.291721 
L 1270.171182 97.756399 
L 1277.325183 99.003633 
L 1280.391184 99.111607 
L 1287.544726 99.381562 
L 1290.610727 99.590346 
L 1300.830729 102.615634 
L 1304.91873 103.420484 
L 1311.050272 104.143048 
L 1318.204274 104.829746 
L 1327.402276 105.593684 
L 1330.467817 105.473094 
L 1333.533818 105.081966 
L 1336.599819 104.460949 
L 1342.73182 102.87498 
L 1358.061364 99.061684 
L 1361.127365 98.458726 
L 1364.193366 98.091382 
L 1368.281367 97.938492 
L 1371.346908 98.053879 
L 1372.368908 98.14224 
L 1374.412908 98.689472 
L 1399.962455 106.501163 
L 1403.028456 107.201418 
L 1404.050456 107.368243 
L 1407.116457 107.393539 
L 1411.204458 107.122043 
L 1415.291999 106.795822 
L 1419.38 106.099267 
L 1419.38 106.099267 
" style="fill:none;opacity:0.8;stroke:#fc8a6a;stroke-linecap:square;stroke-width:2.625;"/>
   </g>
   <g id="line2d_13">
    <path clip-path="url(#p58d3f54f58)" d="M 24.38 155.825011 
L 28.468001 156.942445 
L 33.577543 158.09744 
L 38.687544 159.00595 
L 44.819545 159.871806 
L 46.863546 160.061658 
L 47.885546 159.959407 
L 48.907546 159.65833 
L 49.929546 159.16299 
L 50.951547 159.060829 
L 51.973087 159.149591 
L 52.995088 158.425035 
L 54.017088 158.290025 
L 55.039088 158.28177 
L 58.105089 158.772718 
L 68.325091 160.416017 
L 74.456633 161.165993 
L 79.566634 161.469503 
L 80.588635 160.854067 
L 81.610635 160.705066 
L 96.940179 162.146305 
L 107.160181 162.955232 
L 109.204182 163.071038 
L 110.226182 162.725548 
L 119.423725 163.315614 
L 120.445725 163.28787 
L 121.467725 162.881791 
L 123.511726 160.069697 
L 131.687728 148.165105 
L 133.731728 145.830558 
L 134.753728 144.821667 
L 135.775729 144.019559 
L 136.797729 144.389603 
L 141.907271 147.066967 
L 143.951271 148.025821 
L 144.973271 148.229631 
L 147.017272 146.713051 
L 149.061272 144.866742 
L 154.171273 139.320787 
L 157.237274 135.585193 
L 161.324816 131.275734 
L 162.346816 130.404829 
L 165.412817 128.424464 
L 166.434817 127.936347 
L 167.456817 127.837294 
L 174.610819 132.978912 
L 178.69882 135.646137 
L 182.786361 138.082851 
L 186.874362 140.284388 
L 190.962363 142.251977 
L 191.984363 142.679845 
L 193.006364 142.942236 
L 195.050364 141.18965 
L 197.094364 139.21894 
L 202.203906 134.713679 
L 205.269907 132.528699 
L 206.291907 131.858595 
L 212.423909 128.929511 
L 213.445909 128.568868 
L 214.467909 128.355073 
L 215.489909 128.401463 
L 217.53391 129.199834 
L 224.687452 133.764927 
L 227.753453 135.513862 
L 228.775453 136.07737 
L 229.797453 136.465608 
L 231.841454 136.732727 
L 232.863454 137.006812 
L 234.907454 137.898515 
L 235.929455 138.227856 
L 244.104997 141.797934 
L 247.170998 142.976914 
L 248.192998 143.131235 
L 250.236998 143.004929 
L 251.258999 142.321847 
L 254.324999 139.057847 
L 259.435001 133.607761 
L 261.479001 131.860621 
L 263.523002 130.448597 
L 264.544542 129.929604 
L 265.566543 129.765981 
L 266.588543 130.114997 
L 271.698544 133.397183 
L 275.786545 135.745749 
L 277.830545 136.713749 
L 278.852546 136.993863 
L 279.874546 136.161735 
L 282.940547 133.276361 
L 288.050088 128.992204 
L 291.116089 127.059 
L 292.138089 126.661626 
L 302.358092 133.09104 
L 306.446093 135.265051 
L 312.577635 138.054449 
L 317.687636 140.187496 
L 324.841637 142.746164 
L 329.951179 144.332071 
L 336.083181 145.995982 
L 343.237182 147.671506 
L 349.369184 148.889147 
L 354.478725 149.714916 
L 370.830729 152.240567 
L 382.072272 153.691451 
L 390.248274 154.549011 
L 406.599819 156.158195 
L 421.929363 157.420168 
L 439.302907 158.629532 
L 452.58891 159.374818 
L 472.006455 160.247147 
L 473.028456 159.200074 
L 477.116457 153.983527 
L 481.203998 149.014101 
L 484.269999 146.008639 
L 485.291999 145.874945 
L 491.424 148.533231 
L 495.512001 150.025398 
L 499.599543 151.16916 
L 500.621543 150.928344 
L 506.753545 152.664987 
L 511.863546 153.893051 
L 517.995547 155.12521 
L 519.017547 155.275993 
L 520.039088 155.288185 
L 521.061088 155.12668 
L 523.105089 152.837082 
L 525.149089 150.283458 
L 529.23709 145.853788 
L 530.259091 144.896462 
L 531.281091 144.343376 
L 533.325091 144.989569 
L 542.522634 148.761184 
L 547.632635 150.445937 
L 552.742636 151.873877 
L 556.830637 152.830779 
L 558.874638 153.243269 
L 559.896638 152.945113 
L 560.918638 152.86227 
L 561.940639 153.052469 
L 562.962179 153.003319 
L 565.00618 151.466452 
L 566.02818 150.700934 
L 567.05018 150.779894 
L 570.116181 150.479552 
L 571.138181 150.657102 
L 572.160181 150.675826 
L 574.204182 149.442199 
L 575.226182 149.552911 
L 583.402184 152.01688 
L 588.511726 153.295955 
L 594.643727 154.577007 
L 601.797729 155.806455 
L 609.973271 156.952936 
L 616.105273 157.639808 
L 619.171273 157.857104 
L 620.193274 156.886385 
L 621.215274 155.702699 
L 622.237274 155.138235 
L 625.303275 154.83391 
L 626.324816 153.530467 
L 627.346816 152.472538 
L 628.368816 152.287315 
L 630.412817 152.396012 
L 631.434817 152.120796 
L 632.456817 150.987151 
L 635.522818 151.856409 
L 636.544818 151.962757 
L 637.566818 151.780444 
L 644.72082 153.780563 
L 649.830362 154.948097 
L 655.962363 156.111741 
L 658.006364 156.448959 
L 659.028364 156.28051 
L 662.094364 155.089794 
L 663.116365 154.540952 
L 665.160365 152.269379 
L 666.182365 152.00141 
L 667.204366 151.549002 
L 668.226366 151.495491 
L 669.247907 151.564762 
L 677.423909 153.853159 
L 678.445909 153.880557 
L 685.599911 155.281247 
L 690.709452 155.404104 
L 692.753453 153.074033 
L 694.797453 152.521934 
L 695.819453 152.021054 
L 697.863454 150.034661 
L 698.885454 150.029158 
L 701.951455 150.983134 
L 702.973455 150.990993 
L 703.995455 151.27906 
L 705.017456 151.243057 
L 708.083456 150.438192 
L 709.105457 150.43601 
L 711.149457 150.676122 
L 712.170998 149.86454 
L 716.258999 148.302386 
L 717.280999 148.604752 
L 718.302999 148.132997 
L 723.413 150.062938 
L 726.479001 151.030431 
L 729.545002 151.961786 
L 731.589002 152.395386 
L 733.632543 152.804402 
L 741.808545 154.610709 
L 744.874546 155.219108 
L 745.896546 155.201433 
L 746.918546 154.431299 
L 753.050548 147.562814 
L 755.094089 145.690916 
L 758.160089 143.355517 
L 765.314091 146.715934 
L 769.402092 148.345935 
L 770.424092 148.689244 
L 771.446093 148.259199 
L 774.512093 149.23083 
L 778.599635 149.94292 
L 779.621635 149.649502 
L 781.665636 148.449995 
L 782.687636 148.549036 
L 783.709636 147.91557 
L 785.753636 146.130474 
L 787.797637 145.163592 
L 788.819637 144.65654 
L 789.841637 143.747754 
L 790.863638 143.80511 
L 795.973639 146.006436 
L 800.06118 147.658993 
L 804.149181 148.957766 
L 806.193182 149.576892 
L 807.215182 149.745245 
L 814.369184 151.689139 
L 819.478725 152.89672 
L 825.610727 154.103722 
L 832.764729 155.250325 
L 833.786729 155.400673 
L 834.808729 155.397665 
L 836.852729 152.912918 
L 846.050272 140.509958 
L 848.094273 138.193514 
L 849.116273 137.217288 
L 850.138273 136.408882 
L 851.160273 135.816571 
L 852.182274 135.57778 
L 853.204274 135.014916 
L 854.226274 135.273799 
L 861.379816 139.134345 
L 865.467817 141.288662 
L 869.555818 143.166979 
L 870.577818 143.601116 
L 871.599819 143.817814 
L 873.643819 142.919198 
L 876.70982 141.539501 
L 877.73182 140.847172 
L 879.775821 139.061305 
L 883.863362 135.821616 
L 884.885362 134.931153 
L 891.017364 131.229369 
L 893.061364 131.478419 
L 895.105365 131.40564 
L 896.127365 131.486044 
L 898.171365 130.520295 
L 902.259366 128.742495 
L 903.280907 128.279362 
L 904.302907 127.974854 
L 906.346908 126.984274 
L 908.390908 125.941558 
L 910.434909 125.345764 
L 911.456909 124.759232 
L 912.478909 123.979791 
L 913.500909 122.953164 
L 915.54491 120.320902 
L 921.676911 112.094715 
L 923.720912 109.854264 
L 924.742453 108.882006 
L 925.764453 108.101791 
L 926.786453 107.611833 
L 927.808453 107.608778 
L 933.940455 112.933209 
L 935.984455 112.757945 
L 938.028456 112.329425 
L 942.116457 111.332536 
L 944.160457 111.149333 
L 945.182457 111.252394 
L 946.203998 111.944096 
L 949.269999 114.390101 
L 951.313999 115.621743 
L 952.336 116.130127 
L 953.358 116.176243 
L 955.402 115.729082 
L 957.446001 117.07671 
L 965.622003 122.858289 
L 969.709544 125.476785 
L 973.797545 127.858657 
L 977.885546 130.019941 
L 982.995547 132.442808 
L 987.083548 134.164942 
L 989.127089 134.94499 
L 990.149089 135.1918 
L 996.281091 137.353582 
L 1002.413092 139.314004 
L 1009.566634 141.321291 
L 1016.720636 143.081272 
L 1019.786637 143.763922 
L 1020.808637 143.687896 
L 1021.830637 143.04591 
L 1023.874638 140.865071 
L 1028.984639 135.131259 
L 1031.02818 133.063096 
L 1033.07218 131.310057 
L 1034.094181 130.857239 
L 1035.116181 131.233269 
L 1043.292183 135.582089 
L 1047.380184 137.441806 
L 1051.468185 139.080459 
L 1057.599727 141.170705 
L 1060.665727 142.102726 
L 1061.687728 141.044425 
L 1063.731728 138.367013 
L 1070.88573 128.624137 
L 1072.92973 126.283256 
L 1073.951271 125.193769 
L 1074.973271 124.348959 
L 1075.995271 123.886457 
L 1080.083272 126.646974 
L 1083.149273 128.273583 
L 1084.171273 128.728098 
L 1088.259274 126.991993 
L 1091.325275 128.714941 
L 1095.412817 131.138624 
L 1099.500818 133.326472 
L 1103.588818 135.290015 
L 1108.69882 137.460343 
L 1113.808821 139.352223 
L 1114.830821 139.466864 
L 1115.852362 138.51024 
L 1117.896362 136.206074 
L 1121.984363 131.38049 
L 1129.138365 123.299792 
L 1131.182365 120.550991 
L 1139.357908 108.885344 
L 1141.401908 106.478348 
L 1143.445909 104.52893 
L 1144.467909 103.764116 
L 1146.51191 102.650362 
L 1147.53391 102.229763 
L 1149.57791 101.759801 
L 1151.621911 101.264893 
L 1152.643911 100.878336 
L 1154.687911 99.616777 
L 1156.731912 97.9955 
L 1163.885454 91.810499 
L 1165.929455 90.397928 
L 1176.149457 85.031648 
L 1178.193457 84.355568 
L 1180.236998 83.947226 
L 1181.258999 83.902198 
L 1182.280999 84.01558 
L 1184.324999 84.600112 
L 1185.347 85.140832 
L 1186.369 85.979934 
L 1192.501001 91.830552 
L 1194.545002 93.593365 
L 1195.567002 94.203401 
L 1196.589002 94.24002 
L 1197.611003 94.116059 
L 1198.633003 93.818095 
L 1200.676544 92.770321 
L 1202.720544 91.344089 
L 1204.764545 89.64469 
L 1210.896546 83.87307 
L 1213.962547 80.925744 
L 1217.028548 78.17323 
L 1219.072548 76.646807 
L 1221.116549 75.349051 
L 1223.160089 74.318795 
L 1225.20409 73.718139 
L 1230.314091 72.540899 
L 1237.468093 70.936786 
L 1243.599635 69.180931 
L 1247.687636 68.015585 
L 1249.731636 67.545409 
L 1252.797637 67.181401 
L 1254.841637 67.0079 
L 1257.907638 67.123096 
L 1259.951639 67.222919 
L 1261.995639 67.590952 
L 1265.06118 68.418744 
L 1267.105181 69.303369 
L 1270.171182 70.894567 
L 1276.303183 74.936135 
L 1279.369184 75.581163 
L 1286.522726 76.761449 
L 1290.610727 77.832461 
L 1293.676728 80.719658 
L 1297.764729 84.384471 
L 1299.808729 85.921597 
L 1301.852729 87.015221 
L 1304.91873 88.376693 
L 1310.028272 89.578848 
L 1312.072272 89.745115 
L 1315.138273 90.277356 
L 1320.248274 91.128515 
L 1321.270275 91.403804 
L 1324.336275 91.761347 
L 1326.380276 91.975411 
L 1327.402276 92.074336 
L 1329.445817 91.758517 
L 1331.489817 91.103143 
L 1333.533818 90.201879 
L 1335.577818 89.073732 
L 1340.68782 85.69069 
L 1343.75382 83.722614 
L 1347.841821 81.476776 
L 1351.929363 79.341828 
L 1354.995363 77.768073 
L 1357.039364 76.847512 
L 1360.105365 75.747103 
L 1362.149365 75.329966 
L 1364.193366 75.197311 
L 1366.237366 75.340284 
L 1369.303367 75.845955 
L 1370.325367 76.102822 
L 1372.368908 76.899887 
L 1373.390908 77.692822 
L 1378.500909 82.527408 
L 1383.610911 87.269824 
L 1387.698912 90.803921 
L 1391.786913 94.082918 
L 1395.874454 97.10283 
L 1399.962455 99.817382 
L 1402.006455 100.825871 
L 1404.050456 101.317184 
L 1406.094456 100.898339 
L 1409.160457 99.71817 
L 1412.226458 98.499493 
L 1413.248458 98.206792 
L 1415.291999 97.310917 
L 1418.358 95.620339 
L 1419.38 94.988816 
L 1419.38 94.988816 
" style="fill:none;opacity:0.8;stroke:#f14432;stroke-linecap:square;stroke-width:2.25;"/>
   </g>
   <g id="line2d_14">
    <path clip-path="url(#p58d3f54f58)" d="M 24.38 155.825011 
L 25.402 156.671426 
L 26.424 157.417025 
L 28.468001 158.654306 
L 30.511542 159.635692 
L 33.577543 160.77876 
L 36.643543 161.658908 
L 38.687544 162.065804 
L 41.753545 162.616758 
L 45.841546 163.26859 
L 46.863546 163.21469 
L 47.885546 162.723448 
L 48.907546 161.715016 
L 49.929546 160.237662 
L 50.951547 160.00725 
L 51.973087 160.324555 
L 52.995088 158.277277 
L 54.017088 158.071094 
L 55.039088 158.217419 
L 61.17109 161.234355 
L 64.23709 162.280332 
L 67.303091 163.065731 
L 71.391092 163.859505 
L 74.456633 164.326542 
L 79.566634 164.420937 
L 80.588635 162.528047 
L 81.610635 162.123983 
L 83.654635 162.650389 
L 86.720636 163.172323 
L 89.786637 164.010236 
L 93.874638 164.767692 
L 98.984179 165.403091 
L 106.138181 166.083178 
L 109.204182 166.240588 
L 110.226182 165.134196 
L 112.270183 165.476262 
L 114.314183 165.670269 
L 119.423725 166.267661 
L 120.445725 166.0969 
L 121.467725 164.861491 
L 127.599727 142.111927 
L 129.643727 135.811112 
L 130.665727 133.155666 
L 131.687728 130.848539 
L 132.709728 128.968861 
L 133.731728 127.390012 
L 134.753728 126.122477 
L 135.775729 125.404769 
L 136.797729 127.312232 
L 138.84127 131.652196 
L 140.88527 135.578014 
L 142.929271 139.013656 
L 143.951271 140.516781 
L 144.973271 141.199916 
L 148.039272 135.317073 
L 150.083272 130.547958 
L 151.105273 128.035866 
L 155.193274 119.060792 
L 156.215274 116.541419 
L 157.237274 114.507484 
L 161.324816 107.721367 
L 162.346816 106.651718 
L 164.390816 105.475232 
L 165.412817 104.947095 
L 166.434817 104.741246 
L 167.456817 105.459194 
L 170.522818 113.047427 
L 172.566818 117.648384 
L 174.610819 121.771978 
L 176.654819 125.410353 
L 178.69882 128.600759 
L 180.742361 131.398456 
L 182.786361 133.859995 
L 184.830362 136.036949 
L 186.874362 137.973999 
L 189.940363 140.509586 
L 191.984363 141.877229 
L 193.006364 141.990946 
L 197.094364 130.517805 
L 199.138365 126.001104 
L 200.160365 123.792098 
L 202.203906 120.32728 
L 204.247907 117.723178 
L 206.291907 115.644569 
L 211.401908 112.935142 
L 212.423909 112.256497 
L 213.445909 111.989139 
L 214.467909 112.08311 
L 215.489909 112.807494 
L 216.51191 114.439215 
L 217.53391 115.814477 
L 220.599911 121.997697 
L 222.643451 125.437321 
L 224.687452 128.573299 
L 225.709452 130.000048 
L 228.775453 133.564931 
L 229.797453 134.103267 
L 231.841454 133.753613 
L 232.863454 134.120047 
L 233.885454 135.129717 
L 234.907454 135.941335 
L 235.929455 136.447765 
L 238.995455 139.188516 
L 243.083456 142.308553 
L 246.148997 144.304488 
L 247.170998 144.814477 
L 248.192998 144.685953 
L 250.236998 143.363191 
L 251.258999 141.061662 
L 254.324999 131.871662 
L 256.369 126.522954 
L 258.413 121.61098 
L 259.435001 119.764907 
L 260.457001 118.169769 
L 261.479001 116.832214 
L 263.523002 114.895973 
L 264.544542 114.419655 
L 265.566543 114.829485 
L 266.588543 116.404676 
L 268.632543 120.86749 
L 270.676544 124.881016 
L 272.720544 128.386509 
L 274.764545 131.408684 
L 276.808545 133.902495 
L 277.830545 134.760172 
L 278.852546 135.1162 
L 282.940547 124.218761 
L 286.006088 117.962179 
L 287.028088 116.267405 
L 288.050088 114.97777 
L 290.094089 112.896441 
L 291.116089 111.952894 
L 292.138089 111.637141 
L 295.20409 118.202465 
L 297.24809 122.262401 
L 299.292091 125.829572 
L 301.336091 128.84361 
L 303.380092 131.461363 
L 305.424092 133.758314 
L 309.511634 137.325707 
L 311.555634 138.924227 
L 312.577635 139.465689 
L 315.643635 141.594686 
L 317.687636 142.851562 
L 324.841637 146.456645 
L 328.929179 148.149964 
L 333.01718 149.624229 
L 338.127181 151.23145 
L 344.259182 152.893108 
L 350.390724 154.224132 
L 351.412725 154.230642 
L 358.566726 155.626163 
L 363.676728 156.605712 
L 373.89627 158.280457 
L 383.094273 159.532415 
L 387.182274 160.001034 
L 389.226274 160.132387 
L 393.313815 160.56686 
L 404.555818 161.740151 
L 416.819361 162.775299 
L 432.149365 163.834341 
L 446.456909 164.629258 
L 454.632911 164.848224 
L 455.654911 164.764554 
L 465.874454 165.228474 
L 470.984455 165.480409 
L 472.006455 165.465892 
L 473.028456 162.369335 
L 475.072456 155.172963 
L 477.116457 148.897839 
L 480.181998 140.556617 
L 482.225998 136.935524 
L 483.247999 135.242785 
L 484.269999 133.927348 
L 485.291999 134.655183 
L 488.358 140.209007 
L 490.402 143.372494 
L 492.446001 146.051072 
L 494.490001 148.269078 
L 496.534002 149.964701 
L 497.556002 150.396643 
L 499.599543 151.939644 
L 500.621543 151.045092 
L 502.665544 152.522473 
L 504.709544 153.839809 
L 507.775545 155.454432 
L 510.841546 156.747365 
L 513.907546 157.808958 
L 517.995547 158.970003 
L 519.017547 159.128442 
L 520.039088 158.892336 
L 521.061088 158.196043 
L 523.105089 151.554003 
L 525.149089 144.925269 
L 526.17109 142.305596 
L 529.23709 135.569857 
L 530.259091 133.913398 
L 531.281091 133.442723 
L 534.347092 138.236467 
L 536.391092 141.470958 
L 538.435093 144.217048 
L 540.479093 146.522069 
L 542.522634 148.454747 
L 544.566634 150.086068 
L 546.610635 151.475809 
L 549.676636 153.20965 
L 552.742636 154.626742 
L 555.808637 155.754455 
L 558.874638 156.639715 
L 559.896638 155.460011 
L 560.918638 155.02321 
L 561.940639 155.436527 
L 562.962179 155.129856 
L 566.02818 148.623602 
L 567.05018 149.154307 
L 569.094181 149.095082 
L 570.116181 149.022968 
L 571.138181 149.716892 
L 572.160181 149.908947 
L 574.204182 146.736694 
L 575.226182 147.341963 
L 577.270183 149.541262 
L 580.336183 152.155831 
L 582.380184 153.588551 
L 584.423725 154.7762 
L 587.489725 156.218592 
L 590.555726 157.368111 
L 594.643727 158.591469 
L 598.731728 159.578467 
L 603.841729 160.586241 
L 609.973271 161.568487 
L 615.083272 162.239785 
L 619.171273 162.359664 
L 620.193274 159.414824 
L 621.215274 156.04318 
L 622.237274 154.704875 
L 624.281275 154.96918 
L 625.303275 154.759663 
L 626.324816 151.224841 
L 627.346816 148.64189 
L 628.368816 148.726603 
L 630.412817 149.96672 
L 631.434817 149.580996 
L 632.456817 146.696379 
L 634.500818 149.154 
L 635.522818 150.154039 
L 636.544818 150.650157 
L 637.566818 150.299674 
L 640.632819 153.14768 
L 642.676819 154.647994 
L 644.72082 155.882751 
L 646.76482 156.910156 
L 649.830362 158.163864 
L 652.896362 159.16847 
L 656.984363 160.241365 
L 658.006364 160.463712 
L 659.028364 159.723431 
L 662.094364 156.090567 
L 663.116365 154.632725 
L 664.138365 151.324878 
L 665.160365 148.674744 
L 666.182365 148.484252 
L 667.204366 147.742944 
L 668.226366 148.099053 
L 669.247907 148.715455 
L 672.313907 151.990831 
L 674.357908 153.714761 
L 676.401908 155.102146 
L 677.423909 155.690225 
L 678.445909 155.602982 
L 682.53391 157.253533 
L 684.57791 158.01512 
L 685.599911 158.403574 
L 686.621911 158.254279 
L 687.643911 158.3694 
L 689.687911 158.253468 
L 690.709452 157.83155 
L 692.753453 151.193423 
L 694.797453 150.330835 
L 695.819453 149.265926 
L 697.863454 144.488093 
L 698.885454 145.06609 
L 700.929455 147.622373 
L 701.951455 148.744831 
L 702.973455 148.956507 
L 703.995455 149.922436 
L 705.017456 149.909863 
L 708.083456 148.061347 
L 709.105457 148.261688 
L 710.127457 148.903622 
L 711.149457 149.228997 
L 712.170998 147.016423 
L 714.214998 145.031823 
L 716.258999 143.876579 
L 717.280999 145.030459 
L 718.302999 143.964917 
L 720.347 146.68608 
L 722.391 148.947927 
L 723.413 149.917921 
L 724.435001 150.603911 
L 726.479001 152.230821 
L 729.545002 154.14964 
L 730.567002 154.313677 
L 732.610543 155.263416 
L 733.632543 155.393158 
L 738.742544 157.376009 
L 740.786545 157.95316 
L 744.874546 159.138244 
L 745.896546 158.785306 
L 746.918546 156.341229 
L 748.962547 149.768418 
L 752.028548 141.468038 
L 753.050548 139.032969 
L 754.072089 137.121524 
L 755.094089 135.613013 
L 757.138089 133.007903 
L 758.160089 132.057749 
L 761.22609 137.718077 
L 763.270091 140.961256 
L 765.314091 143.713685 
L 767.358092 146.021477 
L 769.402092 147.961817 
L 770.424092 148.722844 
L 771.446093 147.242955 
L 773.490093 148.878482 
L 774.512093 149.567948 
L 775.533634 149.797279 
L 776.555634 149.883908 
L 777.577635 150.167493 
L 778.599635 150.7793 
L 779.621635 149.707258 
L 781.665636 146.178724 
L 782.687636 146.604491 
L 783.709636 144.904058 
L 785.753636 140.374386 
L 786.775637 139.608718 
L 788.819637 137.768862 
L 789.841637 135.734153 
L 790.863638 136.465923 
L 793.929638 141.080781 
L 795.973639 143.695905 
L 798.01718 145.988457 
L 800.06118 147.902406 
L 802.105181 149.298895 
L 806.193182 151.59552 
L 807.215182 151.720275 
L 810.281183 153.249127 
L 814.369184 154.969529 
L 817.435184 156.070223 
L 821.522726 157.26643 
L 825.610727 158.233225 
L 832.764729 159.559882 
L 833.786729 159.734535 
L 834.808729 159.466041 
L 841.962271 134.605502 
L 844.006272 128.961982 
L 846.050272 124.490865 
L 847.072272 122.493101 
L 848.094273 120.809023 
L 849.116273 119.527491 
L 850.138273 118.695291 
L 851.160273 118.3927 
L 852.182274 118.902727 
L 853.204274 118.486844 
L 854.226274 120.011818 
L 857.292275 125.936839 
L 861.379816 132.968686 
L 863.423817 135.971001 
L 865.467817 138.542369 
L 867.511818 140.686781 
L 869.555818 142.560865 
L 870.577818 143.400272 
L 871.599819 143.553732 
L 874.665819 138.863763 
L 876.70982 136.35853 
L 877.73182 134.580463 
L 878.75382 132.134518 
L 880.797821 128.552915 
L 882.841362 125.443089 
L 884.885362 121.979208 
L 887.951363 119.231745 
L 888.973363 118.0692 
L 889.995363 117.172913 
L 891.017364 116.696353 
L 892.039364 117.807574 
L 893.061364 118.652426 
L 895.105365 119.477873 
L 896.127365 120.124514 
L 897.149365 119.080511 
L 899.193366 117.575779 
L 901.237366 116.432942 
L 902.259366 115.32933 
L 903.280907 114.599764 
L 904.302907 114.318041 
L 905.324907 113.609888 
L 907.368908 111.794838 
L 908.390908 110.98597 
L 909.412908 110.875616 
L 910.434909 110.526857 
L 911.456909 109.471383 
L 912.478909 107.901841 
L 913.500909 105.673215 
L 915.54491 99.762026 
L 917.58891 93.842694 
L 919.632911 88.418955 
L 920.654911 85.875113 
L 921.676911 83.641785 
L 922.698912 81.837584 
L 923.720912 80.293451 
L 924.742453 79.043096 
L 925.764453 78.305286 
L 926.786453 78.283775 
L 927.808453 79.365775 
L 932.918454 93.685915 
L 933.940455 96.168307 
L 934.962455 95.986268 
L 935.984455 95.65555 
L 938.028456 94.681927 
L 940.072456 93.603372 
L 941.094456 93.18014 
L 942.116457 92.97227 
L 943.138457 92.969741 
L 944.160457 93.12017 
L 945.182457 93.710587 
L 946.203998 95.862794 
L 948.247999 100.775071 
L 949.269999 102.917794 
L 950.291999 104.547977 
L 951.313999 105.902117 
L 952.336 106.977411 
L 953.358 106.621614 
L 954.38 105.45773 
L 955.402 104.694789 
L 957.446001 108.342743 
L 959.490001 112.067658 
L 964.600002 120.188191 
L 966.643543 122.806464 
L 968.687544 125.12679 
L 970.731544 127.200367 
L 973.797545 129.943397 
L 976.863546 132.33991 
L 979.929546 134.465321 
L 984.017547 136.965447 
L 987.083548 138.592663 
L 989.127089 139.545426 
L 990.149089 139.596277 
L 994.23709 141.562656 
L 1001.391092 144.583756 
L 1006.501093 146.417545 
L 1012.632635 148.345902 
L 1018.764637 150.034468 
L 1019.786637 150.27602 
L 1020.808637 149.64442 
L 1021.830637 147.43516 
L 1025.918638 134.844892 
L 1027.962639 129.482293 
L 1030.006639 125.03327 
L 1031.02818 123.18319 
L 1032.05018 121.597034 
L 1033.07218 120.342077 
L 1034.094181 120.118024 
L 1035.116181 121.821421 
L 1038.182182 127.695034 
L 1040.226182 131.124445 
L 1042.270183 134.068783 
L 1044.314183 136.576851 
L 1046.358184 138.713986 
L 1048.402184 140.524878 
L 1050.446185 142.093784 
L 1052.489725 143.400775 
L 1056.577726 145.671593 
L 1060.665727 147.512602 
L 1061.687728 144.075697 
L 1065.775729 128.944444 
L 1067.819729 122.159251 
L 1069.86373 115.992624 
L 1071.90773 111.430134 
L 1073.951271 107.927255 
L 1074.973271 106.955113 
L 1075.995271 106.963379 
L 1079.061272 114.284673 
L 1080.083272 116.419818 
L 1082.127273 120.059732 
L 1083.149273 121.625633 
L 1084.171273 122.961105 
L 1086.215274 120.737774 
L 1088.259274 118.631859 
L 1093.369276 127.367036 
L 1095.412817 130.306218 
L 1097.456817 132.829255 
L 1099.500818 135.01028 
L 1101.544818 136.913625 
L 1103.588818 138.591392 
L 1106.654819 140.772758 
L 1109.72082 142.64104 
L 1112.786821 144.26873 
L 1113.808821 144.752198 
L 1114.830821 144.510051 
L 1116.874362 137.883989 
L 1119.940363 127.818345 
L 1121.984363 122.370275 
L 1124.028364 117.804901 
L 1128.116365 109.006629 
L 1130.160365 104.116039 
L 1137.313907 84.80188 
L 1139.357908 80.39475 
L 1140.379908 78.620671 
L 1141.401908 77.086372 
L 1142.423909 75.851082 
L 1143.445909 74.988965 
L 1144.467909 74.436509 
L 1145.489909 74.218129 
L 1146.51191 74.202993 
L 1147.53391 74.316593 
L 1150.599911 75.634834 
L 1151.621911 75.786056 
L 1152.643911 75.610969 
L 1153.665911 74.893723 
L 1154.687911 73.865458 
L 1156.731912 71.175927 
L 1161.841454 63.777542 
L 1163.885454 61.318513 
L 1164.907454 60.311857 
L 1165.929455 59.632073 
L 1167.973455 58.872624 
L 1171.039456 57.04712 
L 1175.127457 54.828256 
L 1176.149457 54.462067 
L 1177.171457 54.27878 
L 1178.193457 54.280266 
L 1180.236998 54.663384 
L 1181.258999 55.210782 
L 1182.280999 56.116206 
L 1183.302999 57.297204 
L 1184.324999 58.654111 
L 1185.347 60.470859 
L 1186.369 63.025488 
L 1189.435001 71.693319 
L 1191.479001 77.046639 
L 1193.523002 81.685928 
L 1194.545002 83.531477 
L 1195.567002 84.408127 
L 1196.589002 83.532876 
L 1197.611003 82.367644 
L 1198.633003 80.887096 
L 1200.676544 77.198402 
L 1203.742544 71.016071 
L 1207.830545 62.623763 
L 1211.918546 54.897941 
L 1213.962547 51.515872 
L 1216.006547 48.528121 
L 1217.028548 47.088305 
L 1218.050548 45.968604 
L 1220.094548 44.30254 
L 1221.116549 43.62607 
L 1223.160089 42.800049 
L 1224.18209 42.813461 
L 1228.270091 43.398233 
L 1229.292091 43.320519 
L 1231.336091 43.443079 
L 1235.424092 43.216162 
L 1237.468093 42.986145 
L 1241.556094 41.949911 
L 1245.643635 40.588964 
L 1248.709636 39.920057 
L 1249.731636 39.850357 
L 1251.775637 40.061998 
L 1254.841637 40.607065 
L 1256.885638 41.471753 
L 1258.929638 42.350113 
L 1259.951639 42.789891 
L 1260.973639 43.442293 
L 1264.03964 45.965846 
L 1265.06118 46.923085 
L 1267.105181 49.456286 
L 1270.171182 53.653487 
L 1272.215182 57.405902 
L 1273.237182 58.448555 
L 1274.259182 60.418391 
L 1275.281183 62.107414 
L 1276.303183 63.324168 
L 1277.325183 63.368892 
L 1278.347183 63.563671 
L 1279.369184 63.420308 
L 1282.435184 63.549258 
L 1283.457185 63.757789 
L 1285.501185 63.943801 
L 1288.566726 65.61966 
L 1290.610727 66.66178 
L 1294.698728 77.045668 
L 1296.742728 81.389462 
L 1297.764729 83.309706 
L 1298.786729 84.946469 
L 1299.808729 86.103533 
L 1300.830729 86.802289 
L 1303.89673 88.319121 
L 1304.91873 88.506973 
L 1305.94073 88.349268 
L 1310.028272 88.379146 
L 1311.050272 87.97084 
L 1312.072272 87.789259 
L 1313.094273 87.990163 
L 1314.116273 87.9485 
L 1316.160273 88.218106 
L 1317.182274 88.340479 
L 1319.226274 88.760974 
L 1320.248274 88.955326 
L 1321.270275 89.472815 
L 1322.292275 89.57751 
L 1323.314275 89.435364 
L 1324.336275 89.629369 
L 1325.358275 89.559017 
L 1326.380276 89.751391 
L 1327.402276 89.80366 
L 1329.445817 88.480042 
L 1331.489817 86.427107 
L 1333.533818 83.970684 
L 1335.577818 81.165328 
L 1338.643819 76.650872 
L 1341.70982 72.368167 
L 1343.75382 70.070228 
L 1345.797821 68.128092 
L 1347.841821 66.440448 
L 1349.885362 64.82205 
L 1353.973363 61.467297 
L 1356.017364 60.05327 
L 1358.061364 59.007664 
L 1359.083364 58.582212 
L 1360.105365 58.305578 
L 1361.127365 58.180103 
L 1362.149365 58.260503 
L 1363.171365 58.46976 
L 1364.193366 58.834801 
L 1366.237366 59.969681 
L 1368.281367 61.332733 
L 1370.325367 62.974435 
L 1372.368908 65.349566 
L 1373.390908 67.621122 
L 1377.478909 78.132039 
L 1379.52291 82.975796 
L 1381.56691 87.316842 
L 1383.610911 91.177543 
L 1385.654911 94.629518 
L 1387.698912 97.73531 
L 1389.742912 100.544225 
L 1392.808453 104.286792 
L 1395.874454 107.579508 
L 1398.940455 110.428315 
L 1399.962455 111.224433 
L 1400.984455 111.777846 
L 1402.006455 111.97374 
L 1403.028456 111.719329 
L 1404.050456 111.284919 
L 1410.182457 101.899784 
L 1411.204458 100.569402 
L 1412.226458 99.530529 
L 1413.248458 98.750869 
L 1414.269999 97.667505 
L 1417.336 93.750269 
L 1419.38 90.945965 
L 1419.38 90.945965 
" style="fill:none;opacity:0.8;stroke:#bc141a;stroke-linecap:square;stroke-width:1.875;"/>
   </g>
   <g id="line2d_15">
    <path clip-path="url(#p58d3f54f58)" d="M 24.38 155.825011 
L 25.402 158.235631 
L 26.424 159.796946 
L 27.446001 160.900079 
L 28.468001 161.739934 
L 30.511542 162.97201 
L 32.555542 163.86083 
L 35.621543 164.850982 
L 36.643543 165.119862 
L 37.665544 165.139107 
L 39.709544 165.641444 
L 45.841546 166.555336 
L 46.863546 166.115305 
L 47.885546 164.569102 
L 48.907546 161.904896 
L 49.929546 158.408222 
L 50.951547 158.950696 
L 51.973087 160.552541 
L 52.995088 154.973144 
L 54.017088 155.675143 
L 55.039088 156.892274 
L 56.061088 158.726062 
L 57.083089 160.314709 
L 58.105089 161.532519 
L 60.149089 163.2636 
L 62.19309 164.439976 
L 64.23709 165.246836 
L 67.303091 166.108311 
L 70.369092 166.736194 
L 74.456633 167.351554 
L 77.522634 166.944295 
L 79.566634 166.846352 
L 80.588635 161.342352 
L 81.610635 161.276732 
L 82.632635 162.849532 
L 83.654635 163.728937 
L 85.698636 164.681809 
L 86.720636 164.962103 
L 87.742636 165.705006 
L 88.764637 166.217763 
L 90.808637 166.858538 
L 93.874638 167.474573 
L 97.962179 167.959667 
L 103.07218 168.499527 
L 107.160181 168.73339 
L 109.204182 168.726463 
L 110.226182 165.445161 
L 111.248182 166.532515 
L 112.270183 167.190763 
L 113.292183 167.35286 
L 115.336183 167.959942 
L 119.423725 168.59489 
L 120.445725 167.940076 
L 121.467725 164.423153 
L 122.489725 153.944005 
L 123.511726 144.801147 
L 125.555726 130.03611 
L 126.577726 124.218834 
L 128.621727 114.800118 
L 129.643727 110.700712 
L 130.665727 107.536681 
L 131.687728 105.072605 
L 132.709728 103.473484 
L 133.731728 102.328325 
L 134.753728 101.686234 
L 135.775729 102.174212 
L 138.84127 121.657359 
L 139.86327 126.452886 
L 140.88527 130.398044 
L 141.907271 133.688931 
L 142.929271 136.465813 
L 143.951271 138.77123 
L 144.973271 138.505424 
L 145.995271 131.489664 
L 147.017272 126.210066 
L 151.105273 108.226913 
L 152.127273 105.07672 
L 153.149273 102.302874 
L 154.171273 98.926446 
L 156.215274 90.690559 
L 157.237274 88.2109 
L 158.258815 86.414546 
L 160.302815 82.016238 
L 161.324816 80.402337 
L 162.346816 79.879339 
L 163.368816 80.286192 
L 164.390816 80.502381 
L 165.412817 80.573064 
L 166.434817 81.365053 
L 167.456817 84.405786 
L 169.500818 99.419079 
L 170.522818 105.403944 
L 171.544818 110.380239 
L 172.566818 114.577033 
L 173.588818 118.175542 
L 174.610819 121.311345 
L 176.654819 126.570169 
L 178.69882 130.872231 
L 180.742361 134.496858 
L 182.786361 137.608013 
L 184.830362 140.312718 
L 186.874362 142.686848 
L 188.918363 144.787434 
L 190.962363 146.598175 
L 191.984363 147.1734 
L 193.006364 146.323064 
L 194.028364 137.228882 
L 195.050364 129.527954 
L 196.072364 123.065395 
L 197.094364 118.59065 
L 198.116365 115.046459 
L 200.160365 108.64782 
L 202.203906 104.416288 
L 204.247907 101.753204 
L 206.291907 99.733335 
L 207.313907 99.91664 
L 208.335908 99.803602 
L 210.379908 99.129218 
L 212.423909 97.52312 
L 213.445909 97.810178 
L 214.467909 98.895258 
L 215.489909 101.449395 
L 216.51191 106.18498 
L 217.53391 109.468642 
L 219.57791 119.903709 
L 220.599911 123.682532 
L 221.621911 126.587274 
L 223.665452 131.483599 
L 224.687452 133.702152 
L 225.709452 135.638577 
L 226.731452 136.950135 
L 228.775453 140.028342 
L 229.797453 139.674759 
L 230.819453 137.553383 
L 231.841454 136.463106 
L 232.863454 137.192083 
L 233.885454 139.651184 
L 234.907454 141.078901 
L 235.929455 141.475973 
L 237.973455 144.972051 
L 238.995455 146.217039 
L 243.083456 150.35592 
L 245.126997 151.955711 
L 246.148997 152.645324 
L 247.170998 153.060896 
L 248.192998 151.683137 
L 249.214998 149.101023 
L 250.236998 147.424389 
L 251.258999 141.036557 
L 252.280999 133.223502 
L 253.302999 126.727068 
L 255.347 117.032721 
L 257.391 109.165669 
L 258.413 105.902127 
L 259.435001 103.842996 
L 260.457001 102.180598 
L 261.479001 100.9538 
L 263.523002 99.687656 
L 264.544542 100.028861 
L 265.566543 102.408278 
L 266.588543 107.42693 
L 267.610543 114.051928 
L 268.632543 119.524596 
L 269.654543 123.931398 
L 270.676544 127.543874 
L 271.698544 130.56353 
L 272.720544 133.145352 
L 273.742544 135.390094 
L 274.764545 137.361777 
L 275.786545 139.017007 
L 276.808545 140.420303 
L 277.830545 140.965407 
L 278.852546 140.296637 
L 279.874546 131.216381 
L 280.896546 123.356478 
L 281.918546 117.494909 
L 282.940547 113.24227 
L 286.006088 103.865052 
L 287.028088 101.74108 
L 288.050088 100.542931 
L 291.116089 97.758884 
L 292.138089 98.381239 
L 293.160089 105.350157 
L 295.20409 116.997459 
L 296.22609 121.562775 
L 297.24809 125.277022 
L 298.270091 128.397408 
L 299.292091 131.069549 
L 301.336091 135.222371 
L 303.380092 138.620548 
L 305.424092 141.49312 
L 307.467633 143.324473 
L 310.533634 146.604168 
L 311.555634 147.513646 
L 312.577635 147.778912 
L 314.621635 149.751551 
L 316.665636 151.354752 
L 317.687636 152.047123 
L 318.709636 152.527071 
L 320.753636 153.815169 
L 323.819637 155.418047 
L 326.885638 156.799014 
L 330.973179 158.345953 
L 335.06118 159.64961 
L 340.171182 161.022216 
L 344.259182 161.957296 
L 350.390724 162.939486 
L 351.412725 162.519686 
L 354.478725 163.269556 
L 357.544726 163.701721 
L 359.588727 164.177253 
L 362.654727 164.640639 
L 372.87427 165.936568 
L 381.050272 166.710123 
L 387.182274 167.119474 
L 388.204274 166.893605 
L 389.226274 167.050889 
L 391.270275 167.181853 
L 396.379816 167.625239 
L 404.555818 168.120191 
L 417.841362 168.679217 
L 435.214906 169.181396 
L 448.500909 169.363084 
L 454.632911 169.153954 
L 455.654911 168.832427 
L 457.698452 168.912098 
L 459.742453 168.944464 
L 466.896454 169.373736 
L 470.984455 169.42914 
L 472.006455 169.285119 
L 474.050456 150.966703 
L 475.072456 144.24738 
L 476.094456 138.683062 
L 478.137997 129.846822 
L 479.159998 125.595152 
L 480.181998 122.098498 
L 483.247999 116.905067 
L 484.269999 115.897543 
L 485.291999 119.813166 
L 486.313999 126.15817 
L 487.336 131.671465 
L 488.358 136.046273 
L 489.38 139.547381 
L 490.402 142.398809 
L 491.424 144.760297 
L 492.446001 146.760267 
L 493.468001 148.480108 
L 494.490001 149.903998 
L 495.512001 151.067764 
L 496.534002 151.926407 
L 497.556002 151.914521 
L 498.577543 153.378319 
L 499.599543 154.495949 
L 500.621543 150.820928 
L 501.643543 153.018665 
L 502.665544 154.587903 
L 503.687544 155.861929 
L 504.709544 156.879792 
L 506.753545 158.444537 
L 508.797545 159.659668 
L 510.841546 160.651267 
L 513.907546 161.866882 
L 516.973547 162.855691 
L 517.995547 163.145887 
L 519.017547 163.144834 
L 520.039088 162.085876 
L 521.061088 160.012878 
L 522.083089 151.005264 
L 523.105089 143.058513 
L 524.127089 136.062733 
L 525.149089 130.791777 
L 526.17109 127.256237 
L 527.19309 124.408771 
L 528.21509 120.929203 
L 529.23709 118.592526 
L 530.259091 116.959558 
L 531.281091 118.142155 
L 533.325091 128.706817 
L 535.369092 137.438771 
L 536.391092 140.653942 
L 537.413092 143.247517 
L 538.435093 145.398552 
L 539.457093 147.224809 
L 541.500634 150.179059 
L 543.544634 152.495002 
L 545.588635 154.378137 
L 547.632635 155.946067 
L 549.676636 157.274606 
L 552.742636 158.928245 
L 554.786637 159.786899 
L 557.852638 160.731922 
L 558.874638 161.010729 
L 559.896638 157.093084 
L 560.918638 156.301613 
L 561.940639 157.891448 
L 562.962179 156.966016 
L 563.984179 150.856379 
L 565.00618 145.553249 
L 566.02818 141.982063 
L 567.05018 145.217329 
L 568.07218 146.285597 
L 569.094181 146.717597 
L 570.116181 146.980004 
L 571.138181 149.272128 
L 572.160181 149.63443 
L 573.182182 144.919677 
L 574.204182 141.383136 
L 575.226182 144.229347 
L 576.248182 147.813165 
L 577.270183 150.725671 
L 579.314183 154.239622 
L 580.336183 155.618355 
L 581.358184 156.734974 
L 583.402184 158.463895 
L 585.445725 159.778754 
L 587.489725 160.827085 
L 590.555726 162.081285 
L 593.621727 163.070791 
L 597.709728 164.124531 
L 601.797729 164.962538 
L 606.907271 165.796187 
L 613.039272 166.580012 
L 615.083272 166.762145 
L 617.127273 166.418347 
L 619.171273 166.414084 
L 621.215274 149.583206 
L 622.237274 148.65713 
L 623.259274 150.946752 
L 624.281275 152.63401 
L 625.303275 152.764358 
L 626.324816 143.268486 
L 627.346816 138.344919 
L 628.368816 140.925261 
L 629.390816 144.165894 
L 630.412817 146.430123 
L 631.434817 145.549913 
L 632.456817 137.850982 
L 633.478817 142.78514 
L 634.500818 146.599249 
L 635.522818 149.259117 
L 636.544818 150.038343 
L 637.566818 148.47752 
L 638.588818 151.379155 
L 639.610819 153.70922 
L 640.632819 155.390234 
L 641.654819 156.690959 
L 643.69882 158.627507 
L 645.74282 160.060615 
L 647.786361 161.185856 
L 650.852362 162.507336 
L 653.918363 163.535115 
L 656.984363 164.361707 
L 658.006364 164.57528 
L 659.028364 162.038446 
L 660.050364 158.823671 
L 661.072364 156.217283 
L 662.094364 153.928101 
L 663.116365 151.115386 
L 664.138365 143.071804 
L 665.160365 138.32482 
L 666.182365 140.376274 
L 667.204366 140.16746 
L 669.247907 144.957006 
L 670.269907 148.295876 
L 671.291907 151.235977 
L 672.313907 153.3898 
L 673.335908 155.023345 
L 674.357908 156.270033 
L 676.401908 158.21555 
L 677.423909 158.959227 
L 678.445909 157.781043 
L 680.489909 159.491015 
L 681.51191 160.030952 
L 683.55591 160.845191 
L 684.57791 161.576761 
L 685.599911 162.121249 
L 686.621911 161.10007 
L 687.643911 161.218037 
L 688.665911 160.949534 
L 689.687911 160.524047 
L 690.709452 159.280448 
L 691.731452 149.479944 
L 692.753453 142.389003 
L 693.775453 143.985955 
L 694.797453 144.506415 
L 695.819453 142.950154 
L 696.841454 137.631095 
L 697.863454 133.152077 
L 698.885454 136.737126 
L 699.907454 141.449373 
L 700.929455 145.166024 
L 701.951455 147.951793 
L 702.973455 147.670179 
L 703.995455 150.053269 
L 705.017456 149.169615 
L 706.039456 146.949033 
L 707.061456 145.105858 
L 708.083456 144.364731 
L 709.105457 145.498567 
L 710.127457 147.540223 
L 711.149457 148.247518 
L 712.170998 141.69897 
L 713.192998 140.239853 
L 714.214998 138.416949 
L 715.236998 137.870297 
L 716.258999 137.476585 
L 717.280999 141.489161 
L 718.302999 138.433237 
L 719.324999 143.032685 
L 720.347 146.516342 
L 721.369 149.089997 
L 722.391 151.028447 
L 723.413 152.582963 
L 724.435001 153.287677 
L 725.457001 154.665003 
L 726.479001 155.772212 
L 728.523002 157.459139 
L 729.545002 158.158117 
L 730.567002 157.687211 
L 731.589002 158.520011 
L 732.610543 159.136555 
L 733.632543 158.808605 
L 734.654543 159.526337 
L 738.742544 161.710613 
L 739.764545 161.780575 
L 741.808545 162.654645 
L 744.874546 163.62531 
L 745.896546 162.133831 
L 746.918546 155.024543 
L 747.940547 146.527728 
L 748.962547 139.990125 
L 749.984547 135.268161 
L 751.006547 131.430148 
L 752.028548 126.581079 
L 753.050548 123.249643 
L 754.072089 121.220922 
L 755.094089 119.955263 
L 756.116089 118.924836 
L 757.138089 117.536832 
L 758.160089 116.983016 
L 760.20409 129.360968 
L 761.22609 134.052391 
L 762.24809 137.765185 
L 763.270091 140.756207 
L 764.292091 143.218245 
L 765.314091 145.276864 
L 766.336091 147.033533 
L 768.380092 149.920813 
L 769.402092 151.118533 
L 770.424092 151.92062 
L 771.446093 146.336859 
L 772.468093 148.890282 
L 773.490093 150.767175 
L 774.512093 152.039567 
L 775.533634 151.855282 
L 776.555634 151.523516 
L 777.577635 151.979726 
L 778.599635 153.357533 
L 779.621635 149.610372 
L 780.643635 144.814464 
L 781.665636 141.018082 
L 782.687636 143.584469 
L 783.709636 139.481076 
L 785.753636 130.06486 
L 786.775637 130.237903 
L 788.819637 128.453597 
L 789.841637 124.199876 
L 790.863638 127.800334 
L 791.885638 132.861007 
L 792.907638 137.359792 
L 793.929638 140.81334 
L 794.951639 143.582892 
L 796.99518 147.723551 
L 798.01718 149.346037 
L 800.06118 151.937117 
L 802.105181 153.395691 
L 804.149181 154.700938 
L 805.171182 155.492008 
L 806.193182 156.103693 
L 807.215182 155.574943 
L 808.237182 156.560262 
L 810.281183 158.016917 
L 813.347183 159.627745 
L 815.391184 160.578856 
L 818.456725 161.68789 
L 821.522726 162.555532 
L 825.610727 163.467356 
L 833.786729 164.804289 
L 834.808729 163.697919 
L 835.830729 153.300602 
L 836.852729 144.31457 
L 837.87473 136.432469 
L 838.89673 129.846249 
L 840.940271 118.776903 
L 841.962271 114.146244 
L 844.006272 106.651353 
L 845.028272 103.959136 
L 847.072272 99.35285 
L 848.094273 97.755499 
L 849.116273 96.990581 
L 850.138273 97.102233 
L 851.160273 98.238225 
L 852.182274 101.07686 
L 853.204274 100.808955 
L 854.226274 105.88844 
L 855.248274 111.869518 
L 856.270275 117.00737 
L 857.292275 121.110055 
L 860.357816 131.340093 
L 861.379816 134.085528 
L 862.401816 136.413183 
L 864.445817 140.251977 
L 865.467817 141.864536 
L 867.511818 144.509117 
L 869.555818 146.822395 
L 870.577818 147.836243 
L 871.599819 146.859905 
L 872.621819 141.359565 
L 873.643819 136.892525 
L 874.665819 134.017148 
L 875.68782 131.720472 
L 876.70982 129.884123 
L 877.73182 126.353224 
L 878.75382 121.240147 
L 879.775821 118.333103 
L 880.797821 115.92772 
L 881.819361 113.930884 
L 882.841362 111.622965 
L 884.885362 106.266337 
L 885.907362 105.839252 
L 886.929363 105.112564 
L 887.951363 104.217394 
L 888.973363 102.512806 
L 889.995363 101.60351 
L 891.017364 101.729145 
L 892.039364 105.829747 
L 893.061364 108.475978 
L 895.105365 110.52041 
L 896.127365 112.202118 
L 897.149365 108.844196 
L 898.171365 107.065718 
L 899.193366 105.870657 
L 901.237366 104.40189 
L 902.259366 102.183999 
L 903.280907 101.298689 
L 904.302907 101.597739 
L 905.324907 100.48538 
L 906.346908 98.861606 
L 907.368908 97.513277 
L 908.390908 96.44484 
L 909.412908 97.28316 
L 910.434909 97.138857 
L 911.456909 94.964977 
L 912.478909 91.686618 
L 913.500909 86.975338 
L 916.56691 69.788309 
L 918.610911 60.857373 
L 920.654911 53.438039 
L 921.676911 50.676238 
L 922.698912 48.950215 
L 923.720912 47.667286 
L 924.742453 46.928884 
L 925.764453 47.302193 
L 926.786453 49.208068 
L 927.808453 53.531063 
L 929.852454 70.852699 
L 930.874454 78.257401 
L 931.896454 84.610276 
L 932.918454 90.083313 
L 933.940455 94.319462 
L 934.962455 89.521222 
L 935.984455 86.194879 
L 937.006455 83.8864 
L 938.028456 82.170351 
L 939.050456 80.769564 
L 940.072456 79.824774 
L 941.094456 79.228391 
L 942.116457 79.260728 
L 943.138457 79.776976 
L 944.160457 80.575631 
L 945.182457 82.460874 
L 948.247999 100.81993 
L 949.269999 104.823624 
L 950.291999 106.79482 
L 951.313999 108.20591 
L 952.336 109.073023 
L 953.358 105.877782 
L 954.38 101.504786 
L 955.402 99.416885 
L 957.446001 109.644857 
L 958.468001 114.097508 
L 959.490001 117.598034 
L 960.512001 120.37202 
L 961.534002 123.590092 
L 962.556002 126.163736 
L 963.578002 128.34488 
L 965.622003 131.970822 
L 967.665544 134.958206 
L 969.709544 137.528758 
L 971.753545 139.780956 
L 973.797545 141.786429 
L 976.863546 144.424402 
L 979.929546 146.708845 
L 982.995547 148.71085 
L 986.061548 150.415978 
L 988.105089 151.374086 
L 989.127089 151.744472 
L 990.149089 150.965071 
L 991.17109 151.877976 
L 993.21509 153.10971 
L 996.281091 154.560205 
L 999.347092 155.902568 
L 1003.435093 157.350349 
L 1008.545094 158.895509 
L 1013.654635 160.198204 
L 1018.764637 161.316171 
L 1019.786637 161.463875 
L 1020.808637 159.097073 
L 1021.830637 152.700369 
L 1022.852638 144.508905 
L 1023.874638 137.529662 
L 1024.896638 131.600821 
L 1025.918638 126.682435 
L 1026.940639 122.335523 
L 1027.962639 118.634634 
L 1028.984639 115.497437 
L 1030.006639 112.724532 
L 1031.02818 110.533458 
L 1032.05018 108.836847 
L 1033.07218 107.793587 
L 1034.094181 109.177466 
L 1037.160181 126.10794 
L 1038.182182 130.36131 
L 1039.204182 133.836449 
L 1040.226182 136.698725 
L 1041.248182 139.104141 
L 1042.270183 141.16573 
L 1044.314183 144.548838 
L 1046.358184 147.230883 
L 1048.402184 149.37596 
L 1050.446185 151.181722 
L 1051.468185 151.943044 
L 1053.511726 153.178966 
L 1055.555726 154.532349 
L 1058.621727 156.091407 
L 1060.665727 157.029436 
L 1062.709728 136.196895 
L 1063.731728 127.447404 
L 1064.753728 120.329608 
L 1065.775729 114.55901 
L 1066.797729 109.848117 
L 1067.819729 103.850598 
L 1068.841729 99.03358 
L 1069.86373 95.156793 
L 1070.88573 92.471565 
L 1071.90773 90.166042 
L 1073.951271 86.788085 
L 1074.973271 86.791586 
L 1075.995271 88.895575 
L 1078.039272 104.054674 
L 1079.061272 110.152358 
L 1080.083272 114.758084 
L 1082.127273 121.10495 
L 1083.149273 123.449759 
L 1084.171273 125.171353 
L 1085.193274 119.639348 
L 1086.215274 116.097759 
L 1087.237274 113.476113 
L 1088.259274 111.306211 
L 1089.281275 116.98091 
L 1091.325275 126.189919 
L 1092.347275 129.965671 
L 1093.369276 132.952674 
L 1094.390816 135.410521 
L 1095.412817 137.495787 
L 1097.456817 140.908054 
L 1099.500818 143.646487 
L 1101.544818 145.933825 
L 1103.588818 147.892451 
L 1105.632819 149.597563 
L 1108.69882 151.786671 
L 1111.76482 153.632652 
L 1113.808821 154.669749 
L 1114.830821 153.053289 
L 1115.852362 143.31655 
L 1116.874362 134.689853 
L 1117.896362 127.324145 
L 1118.918363 120.899071 
L 1119.940363 115.656642 
L 1121.984363 107.940788 
L 1123.006364 104.756014 
L 1125.050364 99.125015 
L 1127.094364 93.032758 
L 1129.138365 85.81441 
L 1130.160365 81.753058 
L 1133.226366 68.074156 
L 1136.292367 55.611582 
L 1137.313907 52.071218 
L 1138.335908 49.142029 
L 1139.357908 46.829222 
L 1140.379908 45.150195 
L 1141.401908 43.897474 
L 1142.423909 43.226812 
L 1143.445909 43.300682 
L 1144.467909 43.892516 
L 1145.489909 45.062745 
L 1147.53391 47.881462 
L 1149.57791 51.879822 
L 1150.599911 53.310412 
L 1151.621911 53.948905 
L 1152.643911 53.723632 
L 1153.665911 52.16052 
L 1154.687911 50.109736 
L 1159.797453 37.990385 
L 1160.819453 36.174454 
L 1162.863454 33.07707 
L 1163.885454 31.819902 
L 1164.907454 30.964551 
L 1165.929455 30.889634 
L 1167.973455 31.721269 
L 1170.017456 30.687745 
L 1172.061456 29.928623 
L 1173.083456 29.679527 
L 1175.127457 28.742809 
L 1176.149457 28.85159 
L 1177.171457 29.360904 
L 1178.193457 30.234571 
L 1180.236998 32.515291 
L 1181.258999 34.426904 
L 1182.280999 37.115696 
L 1184.324999 43.65914 
L 1185.347 48.183958 
L 1186.369 54.873408 
L 1187.391 62.711282 
L 1189.435001 75.026807 
L 1190.457001 80.051498 
L 1191.479001 84.298122 
L 1192.501001 87.926853 
L 1193.523002 90.698842 
L 1194.545002 92.432758 
L 1195.567002 91.200249 
L 1196.589002 85.625643 
L 1199.655003 71.919829 
L 1202.720544 59.744701 
L 1205.786545 48.473601 
L 1207.830545 42.14525 
L 1211.918546 30.570225 
L 1213.962547 26.070575 
L 1214.984547 24.086007 
L 1217.028548 20.530189 
L 1218.050548 19.53267 
L 1219.072548 18.975256 
L 1221.116549 18.26 
L 1223.160089 18.618603 
L 1226.22609 21.882408 
L 1228.270091 23.590378 
L 1229.292091 23.670639 
L 1230.314091 24.264399 
L 1231.336091 24.714106 
L 1234.402092 25.291056 
L 1236.446093 25.578293 
L 1237.468093 25.511917 
L 1241.556094 24.522888 
L 1244.621635 23.317772 
L 1245.643635 23.130274 
L 1248.709636 23.017265 
L 1249.731636 23.350932 
L 1250.753636 23.958037 
L 1252.797637 25.495808 
L 1253.819637 25.882346 
L 1254.841637 26.752831 
L 1257.907638 30.373802 
L 1258.929638 31.173932 
L 1259.951639 32.147393 
L 1260.973639 33.703874 
L 1265.06118 41.105484 
L 1268.127181 49.127564 
L 1270.171182 54.514249 
L 1272.215182 62.332081 
L 1273.237182 62.911862 
L 1274.259182 67.13728 
L 1275.281183 69.970321 
L 1276.303183 71.153261 
L 1277.325183 68.917803 
L 1278.347183 68.127255 
L 1279.369184 66.700173 
L 1280.391184 66.169059 
L 1282.435184 65.690611 
L 1283.457185 65.973569 
L 1284.479185 65.790435 
L 1285.501185 65.826545 
L 1287.544726 68.510611 
L 1289.588727 69.84486 
L 1290.610727 70.834249 
L 1292.654727 84.766021 
L 1293.676728 90.391022 
L 1294.698728 94.891661 
L 1295.720728 98.511442 
L 1296.742728 101.488049 
L 1297.764729 104.003881 
L 1298.786729 105.696478 
L 1299.808729 106.067723 
L 1301.852729 104.825307 
L 1302.87473 104.554872 
L 1303.89673 105.044099 
L 1304.91873 104.288202 
L 1305.94073 102.788621 
L 1307.984271 101.744766 
L 1309.006272 101.410962 
L 1310.028272 100.80248 
L 1311.050272 99.242004 
L 1312.072272 98.609365 
L 1313.094273 99.097222 
L 1314.116273 98.68706 
L 1315.138273 98.955831 
L 1317.182274 98.907048 
L 1318.204274 99.271692 
L 1320.248274 99.493194 
L 1321.270275 100.574135 
L 1322.292275 100.252736 
L 1323.314275 99.350471 
L 1324.336275 99.640107 
L 1325.358275 99.077237 
L 1326.380276 99.393557 
L 1327.402276 99.216437 
L 1330.467817 92.829104 
L 1334.555818 82.482274 
L 1338.643819 71.764548 
L 1341.70982 64.824503 
L 1342.73182 63.134354 
L 1344.775821 60.418172 
L 1346.819821 58.064919 
L 1348.863821 56.237761 
L 1352.951363 51.369952 
L 1353.973363 50.329892 
L 1356.017364 48.65136 
L 1358.061364 47.776497 
L 1359.083364 47.486895 
L 1360.105365 47.533606 
L 1361.127365 47.883784 
L 1362.149365 48.667608 
L 1363.171365 49.633043 
L 1364.193366 50.870732 
L 1369.303367 58.748843 
L 1370.325367 60.578733 
L 1371.346908 63.337823 
L 1372.368908 65.668939 
L 1373.390908 71.442405 
L 1375.434909 84.051391 
L 1376.456909 89.286317 
L 1378.500909 97.874552 
L 1379.52291 101.441418 
L 1381.56691 107.399004 
L 1383.610911 112.306819 
L 1385.654911 116.509729 
L 1387.698912 120.186893 
L 1389.742912 123.435542 
L 1391.786913 126.324674 
L 1394.852454 130.132409 
L 1396.896454 132.269971 
L 1398.940455 134.150447 
L 1399.962455 134.788121 
L 1400.984455 134.788087 
L 1402.006455 133.920898 
L 1404.050456 130.131317 
L 1405.072456 125.158234 
L 1406.094456 121.526779 
L 1407.116457 117.463738 
L 1409.160457 111.107703 
L 1410.182457 108.465652 
L 1411.204458 106.232522 
L 1412.226458 104.760217 
L 1413.248458 103.842376 
L 1414.269999 101.872126 
L 1419.38 89.635421 
L 1419.38 89.635421 
" style="fill:none;opacity:0.8;stroke:#67000d;stroke-linecap:square;stroke-width:1.5;"/>
   </g>
   <g id="patch_3">
    <path d="M 24.38 177.02 
L 24.38 10.7 
" style="fill:none;stroke:#000000;stroke-linecap:square;stroke-linejoin:miter;stroke-width:0.8;"/>
   </g>
   <g id="patch_4">
    <path d="M 1419.38 177.02 
L 1419.38 10.7 
" style="fill:none;stroke:#000000;stroke-linecap:square;stroke-linejoin:miter;stroke-width:0.8;"/>
   </g>
   <g id="patch_5">
    <path d="M 24.38 177.02 
L 1419.38 177.02 
" style="fill:none;stroke:#000000;stroke-linecap:square;stroke-linejoin:miter;stroke-width:0.8;"/>
   </g>
   <g id="patch_6">
    <path d="M 24.38 10.7 
L 1419.38 10.7 
" style="fill:none;stroke:#000000;stroke-linecap:square;stroke-linejoin:miter;stroke-width:0.8;"/>
   </g>
  </g>
 </g>
 <defs>
  <clipPath id="p58d3f54f58">
   <rect height="166.32" width="1395" x="24.38" y="10.7"/>
  </clipPath>
 </defs>
</svg>
