<?xml version="1.0" encoding="utf-8" standalone="no"?>
<!DOCTYPE svg PUBLIC "-//W3C//DTD SVG 1.1//EN"
  "http://www.w3.org/Graphics/SVG/1.1/DTD/svg11.dtd">
<!-- Created with matplotlib (http://matplotlib.org/) -->
<svg height="104pt" version="1.1" viewBox="0 0 133 104" width="133pt" xmlns="http://www.w3.org/2000/svg" xmlns:xlink="http://www.w3.org/1999/xlink">
 <defs>
  <style type="text/css">
*{stroke-linecap:butt;stroke-linejoin:round;}
  </style>
 </defs>
 <g id="figure_1">
  <g id="patch_1">
   <path d="M 0 104.56 
L 133 104.56 
L 133 0 
L 0 0 
z
" style="fill:#ffffff;"/>
  </g>
  <g id="axes_1">
   <g id="patch_2">
    <path d="M 10.7 93.86 
L 122.3 93.86 
L 122.3 10.7 
L 10.7 10.7 
z
" style="fill:#ffffff;"/>
   </g>
   <g id="patch_3">
    <path clip-path="url(#paa53e7f1bb)" d="M 15.772727 87.400971 
L 16.383899 87.400971 
L 16.383899 87.115032 
L 15.772727 87.115032 
z
" style="fill:#1d1d1d;"/>
   </g>
   <g id="patch_4">
    <path clip-path="url(#paa53e7f1bb)" d="M 16.282037 87.400971 
L 16.893209 87.400971 
L 16.893209 87.114308 
L 16.282037 87.114308 
z
" style="fill:#1d1d1d;"/>
   </g>
   <g id="patch_5">
    <path clip-path="url(#paa53e7f1bb)" d="M 16.791347 87.400971 
L 17.402519 87.400971 
L 17.402519 87.114274 
L 16.791347 87.114274 
z
" style="fill:#1d1d1d;"/>
   </g>
   <g id="patch_6">
    <path clip-path="url(#paa53e7f1bb)" d="M 17.300657 87.400971 
L 17.911829 87.400971 
L 17.911829 87.113988 
L 17.300657 87.113988 
z
" style="fill:#1d1d1d;"/>
   </g>
   <g id="patch_7">
    <path clip-path="url(#paa53e7f1bb)" d="M 17.809967 87.400971 
L 18.421139 87.400971 
L 18.421139 87.113783 
L 17.809967 87.113783 
z
" style="fill:#1d1d1d;"/>
   </g>
   <g id="patch_8">
    <path clip-path="url(#paa53e7f1bb)" d="M 18.319277 87.400971 
L 18.930449 87.400971 
L 18.930449 87.113447 
L 18.319277 87.113447 
z
" style="fill:#1d1d1d;"/>
   </g>
   <g id="patch_9">
    <path clip-path="url(#paa53e7f1bb)" d="M 18.828587 87.400971 
L 19.439759 87.400971 
L 19.439759 87.111824 
L 18.828587 87.111824 
z
" style="fill:#1d1d1d;"/>
   </g>
   <g id="patch_10">
    <path clip-path="url(#paa53e7f1bb)" d="M 19.337897 87.400971 
L 19.949069 87.400971 
L 19.949069 87.111331 
L 19.337897 87.111331 
z
" style="fill:#1d1d1d;"/>
   </g>
   <g id="patch_11">
    <path clip-path="url(#paa53e7f1bb)" d="M 19.847207 87.400971 
L 20.458379 87.400971 
L 20.458379 87.109794 
L 19.847207 87.109794 
z
" style="fill:#1d1d1d;"/>
   </g>
   <g id="patch_12">
    <path clip-path="url(#paa53e7f1bb)" d="M 20.356517 87.400971 
L 20.967689 87.400971 
L 20.967689 87.108947 
L 20.356517 87.108947 
z
" style="fill:#1d1d1d;"/>
   </g>
   <g id="patch_13">
    <path clip-path="url(#paa53e7f1bb)" d="M 20.865827 87.400971 
L 21.476999 87.400971 
L 21.476999 87.108713 
L 20.865827 87.108713 
z
" style="fill:#1d1d1d;"/>
   </g>
   <g id="patch_14">
    <path clip-path="url(#paa53e7f1bb)" d="M 21.375137 87.400971 
L 21.986309 87.400971 
L 21.986309 87.108514 
L 21.375137 87.108514 
z
" style="fill:#1d1d1d;"/>
   </g>
   <g id="patch_15">
    <path clip-path="url(#paa53e7f1bb)" d="M 21.884447 87.400971 
L 22.495619 87.400971 
L 22.495619 87.108015 
L 21.884447 87.108015 
z
" style="fill:#1d1d1d;"/>
   </g>
   <g id="patch_16">
    <path clip-path="url(#paa53e7f1bb)" d="M 22.393757 87.400971 
L 23.004929 87.400971 
L 23.004929 87.107243 
L 22.393757 87.107243 
z
" style="fill:#1d1d1d;"/>
   </g>
   <g id="patch_17">
    <path clip-path="url(#paa53e7f1bb)" d="M 22.903067 87.400971 
L 23.514239 87.400971 
L 23.514239 87.107181 
L 22.903067 87.107181 
z
" style="fill:#1d1d1d;"/>
   </g>
   <g id="patch_18">
    <path clip-path="url(#paa53e7f1bb)" d="M 23.412377 87.400971 
L 24.023549 87.400971 
L 24.023549 87.104531 
L 23.412377 87.104531 
z
" style="fill:#1d1d1d;"/>
   </g>
   <g id="patch_19">
    <path clip-path="url(#paa53e7f1bb)" d="M 23.921687 87.400971 
L 24.532859 87.400971 
L 24.532859 87.103894 
L 23.921687 87.103894 
z
" style="fill:#1d1d1d;"/>
   </g>
   <g id="patch_20">
    <path clip-path="url(#paa53e7f1bb)" d="M 24.430997 87.400971 
L 25.042169 87.400971 
L 25.042169 87.100828 
L 24.430997 87.100828 
z
" style="fill:#1d1d1d;"/>
   </g>
   <g id="patch_21">
    <path clip-path="url(#paa53e7f1bb)" d="M 24.940307 87.400971 
L 25.551479 87.400971 
L 25.551479 87.092723 
L 24.940307 87.092723 
z
" style="fill:#1d1d1d;"/>
   </g>
   <g id="patch_22">
    <path clip-path="url(#paa53e7f1bb)" d="M 25.449617 87.400971 
L 26.060789 87.400971 
L 26.060789 87.092267 
L 25.449617 87.092267 
z
" style="fill:#1d1d1d;"/>
   </g>
   <g id="patch_23">
    <path clip-path="url(#paa53e7f1bb)" d="M 25.958927 87.400971 
L 26.570099 87.400971 
L 26.570099 87.091122 
L 25.958927 87.091122 
z
" style="fill:#1d1d1d;"/>
   </g>
   <g id="patch_24">
    <path clip-path="url(#paa53e7f1bb)" d="M 26.468237 87.400971 
L 27.079409 87.400971 
L 27.079409 87.085402 
L 26.468237 87.085402 
z
" style="fill:#1d1d1d;"/>
   </g>
   <g id="patch_25">
    <path clip-path="url(#paa53e7f1bb)" d="M 26.977547 87.400971 
L 27.588719 87.400971 
L 27.588719 87.085032 
L 26.977547 87.085032 
z
" style="fill:#1d1d1d;"/>
   </g>
   <g id="patch_26">
    <path clip-path="url(#paa53e7f1bb)" d="M 27.486857 87.400971 
L 28.098028 87.400971 
L 28.098028 87.083364 
L 27.486857 87.083364 
z
" style="fill:#1d1d1d;"/>
   </g>
   <g id="patch_27">
    <path clip-path="url(#paa53e7f1bb)" d="M 27.996166 87.400971 
L 28.607338 87.400971 
L 28.607338 87.082715 
L 27.996166 87.082715 
z
" style="fill:#1d1d1d;"/>
   </g>
   <g id="patch_28">
    <path clip-path="url(#paa53e7f1bb)" d="M 28.505476 87.400971 
L 29.116648 87.400971 
L 29.116648 87.081896 
L 28.505476 87.081896 
z
" style="fill:#1d1d1d;"/>
   </g>
   <g id="patch_29">
    <path clip-path="url(#paa53e7f1bb)" d="M 29.014786 87.400971 
L 29.625958 87.400971 
L 29.625958 87.07913 
L 29.014786 87.07913 
z
" style="fill:#1d1d1d;"/>
   </g>
   <g id="patch_30">
    <path clip-path="url(#paa53e7f1bb)" d="M 29.524096 87.400971 
L 30.135268 87.400971 
L 30.135268 87.075631 
L 29.524096 87.075631 
z
" style="fill:#1d1d1d;"/>
   </g>
   <g id="patch_31">
    <path clip-path="url(#paa53e7f1bb)" d="M 30.033406 87.400971 
L 30.644578 87.400971 
L 30.644578 87.070739 
L 30.033406 87.070739 
z
" style="fill:#1d1d1d;"/>
   </g>
   <g id="patch_32">
    <path clip-path="url(#paa53e7f1bb)" d="M 30.542716 87.400971 
L 31.153888 87.400971 
L 31.153888 87.069684 
L 30.542716 87.069684 
z
" style="fill:#1d1d1d;"/>
   </g>
   <g id="patch_33">
    <path clip-path="url(#paa53e7f1bb)" d="M 31.052026 87.400971 
L 31.663198 87.400971 
L 31.663198 87.062203 
L 31.052026 87.062203 
z
" style="fill:#1d1d1d;"/>
   </g>
   <g id="patch_34">
    <path clip-path="url(#paa53e7f1bb)" d="M 31.561336 87.400971 
L 32.172508 87.400971 
L 32.172508 87.061668 
L 31.561336 87.061668 
z
" style="fill:#1d1d1d;"/>
   </g>
   <g id="patch_35">
    <path clip-path="url(#paa53e7f1bb)" d="M 32.070646 87.400971 
L 32.681818 87.400971 
L 32.681818 87.049839 
L 32.070646 87.049839 
z
" style="fill:#1d1d1d;"/>
   </g>
   <g id="patch_36">
    <path clip-path="url(#paa53e7f1bb)" d="M 32.579956 87.400971 
L 33.191128 87.400971 
L 33.191128 87.04471 
L 32.579956 87.04471 
z
" style="fill:#1d1d1d;"/>
   </g>
   <g id="patch_37">
    <path clip-path="url(#paa53e7f1bb)" d="M 33.089266 87.400971 
L 33.700438 87.400971 
L 33.700438 87.040355 
L 33.089266 87.040355 
z
" style="fill:#1d1d1d;"/>
   </g>
   <g id="patch_38">
    <path clip-path="url(#paa53e7f1bb)" d="M 33.598576 87.400971 
L 34.209748 87.400971 
L 34.209748 87.035361 
L 33.598576 87.035361 
z
" style="fill:#1d1d1d;"/>
   </g>
   <g id="patch_39">
    <path clip-path="url(#paa53e7f1bb)" d="M 34.107886 87.400971 
L 34.719058 87.400971 
L 34.719058 87.033985 
L 34.107886 87.033985 
z
" style="fill:#1d1d1d;"/>
   </g>
   <g id="patch_40">
    <path clip-path="url(#paa53e7f1bb)" d="M 34.617196 87.400971 
L 35.228368 87.400971 
L 35.228368 87.0301 
L 34.617196 87.0301 
z
" style="fill:#1d1d1d;"/>
   </g>
   <g id="patch_41">
    <path clip-path="url(#paa53e7f1bb)" d="M 35.126506 87.400971 
L 35.737678 87.400971 
L 35.737678 87.029563 
L 35.126506 87.029563 
z
" style="fill:#1d1d1d;"/>
   </g>
   <g id="patch_42">
    <path clip-path="url(#paa53e7f1bb)" d="M 35.635816 87.400971 
L 36.246988 87.400971 
L 36.246988 87.026901 
L 35.635816 87.026901 
z
" style="fill:#1d1d1d;"/>
   </g>
   <g id="patch_43">
    <path clip-path="url(#paa53e7f1bb)" d="M 36.145126 87.400971 
L 36.756298 87.400971 
L 36.756298 87.026212 
L 36.145126 87.026212 
z
" style="fill:#1d1d1d;"/>
   </g>
   <g id="patch_44">
    <path clip-path="url(#paa53e7f1bb)" d="M 36.654436 87.400971 
L 37.265608 87.400971 
L 37.265608 87.018314 
L 36.654436 87.018314 
z
" style="fill:#1d1d1d;"/>
   </g>
   <g id="patch_45">
    <path clip-path="url(#paa53e7f1bb)" d="M 37.163746 87.400971 
L 37.774918 87.400971 
L 37.774918 87.018288 
L 37.163746 87.018288 
z
" style="fill:#1d1d1d;"/>
   </g>
   <g id="patch_46">
    <path clip-path="url(#paa53e7f1bb)" d="M 37.673056 87.400971 
L 38.284228 87.400971 
L 38.284228 87.015019 
L 37.673056 87.015019 
z
" style="fill:#1d1d1d;"/>
   </g>
   <g id="patch_47">
    <path clip-path="url(#paa53e7f1bb)" d="M 38.182366 87.400971 
L 38.793538 87.400971 
L 38.793538 87.004569 
L 38.182366 87.004569 
z
" style="fill:#1d1d1d;"/>
   </g>
   <g id="patch_48">
    <path clip-path="url(#paa53e7f1bb)" d="M 38.691676 87.400971 
L 39.302848 87.400971 
L 39.302848 86.989899 
L 38.691676 86.989899 
z
" style="fill:#1d1d1d;"/>
   </g>
   <g id="patch_49">
    <path clip-path="url(#paa53e7f1bb)" d="M 39.200986 87.400971 
L 39.812158 87.400971 
L 39.812158 86.989087 
L 39.200986 86.989087 
z
" style="fill:#1d1d1d;"/>
   </g>
   <g id="patch_50">
    <path clip-path="url(#paa53e7f1bb)" d="M 39.710296 87.400971 
L 40.321468 87.400971 
L 40.321468 86.976085 
L 39.710296 86.976085 
z
" style="fill:#1d1d1d;"/>
   </g>
   <g id="patch_51">
    <path clip-path="url(#paa53e7f1bb)" d="M 40.219606 87.400971 
L 40.830778 87.400971 
L 40.830778 86.974618 
L 40.219606 86.974618 
z
" style="fill:#1d1d1d;"/>
   </g>
   <g id="patch_52">
    <path clip-path="url(#paa53e7f1bb)" d="M 40.728916 87.400971 
L 41.340088 87.400971 
L 41.340088 86.967999 
L 40.728916 86.967999 
z
" style="fill:#1d1d1d;"/>
   </g>
   <g id="patch_53">
    <path clip-path="url(#paa53e7f1bb)" d="M 41.238226 87.400971 
L 41.849398 87.400971 
L 41.849398 86.955126 
L 41.238226 86.955126 
z
" style="fill:#1d1d1d;"/>
   </g>
   <g id="patch_54">
    <path clip-path="url(#paa53e7f1bb)" d="M 41.747536 87.400971 
L 42.358708 87.400971 
L 42.358708 86.949724 
L 41.747536 86.949724 
z
" style="fill:#1d1d1d;"/>
   </g>
   <g id="patch_55">
    <path clip-path="url(#paa53e7f1bb)" d="M 42.256846 87.400971 
L 42.868018 87.400971 
L 42.868018 86.947478 
L 42.256846 86.947478 
z
" style="fill:#1d1d1d;"/>
   </g>
   <g id="patch_56">
    <path clip-path="url(#paa53e7f1bb)" d="M 42.766156 87.400971 
L 43.377327 87.400971 
L 43.377327 86.938366 
L 42.766156 86.938366 
z
" style="fill:#1d1d1d;"/>
   </g>
   <g id="patch_57">
    <path clip-path="url(#paa53e7f1bb)" d="M 43.275465 87.400971 
L 43.886637 87.400971 
L 43.886637 86.934429 
L 43.275465 86.934429 
z
" style="fill:#1d1d1d;"/>
   </g>
   <g id="patch_58">
    <path clip-path="url(#paa53e7f1bb)" d="M 43.784775 87.400971 
L 44.395947 87.400971 
L 44.395947 86.932227 
L 43.784775 86.932227 
z
" style="fill:#1d1d1d;"/>
   </g>
   <g id="patch_59">
    <path clip-path="url(#paa53e7f1bb)" d="M 44.294085 87.400971 
L 44.905257 87.400971 
L 44.905257 86.931548 
L 44.294085 86.931548 
z
" style="fill:#1d1d1d;"/>
   </g>
   <g id="patch_60">
    <path clip-path="url(#paa53e7f1bb)" d="M 44.803395 87.400971 
L 45.414567 87.400971 
L 45.414567 86.921563 
L 44.803395 86.921563 
z
" style="fill:#1d1d1d;"/>
   </g>
   <g id="patch_61">
    <path clip-path="url(#paa53e7f1bb)" d="M 45.312705 87.400971 
L 45.923877 87.400971 
L 45.923877 86.887221 
L 45.312705 86.887221 
z
" style="fill:#1d1d1d;"/>
   </g>
   <g id="patch_62">
    <path clip-path="url(#paa53e7f1bb)" d="M 45.822015 87.400971 
L 46.433187 87.400971 
L 46.433187 86.870803 
L 45.822015 86.870803 
z
" style="fill:#1d1d1d;"/>
   </g>
   <g id="patch_63">
    <path clip-path="url(#paa53e7f1bb)" d="M 46.331325 87.400971 
L 46.942497 87.400971 
L 46.942497 86.834236 
L 46.331325 86.834236 
z
" style="fill:#1d1d1d;"/>
   </g>
   <g id="patch_64">
    <path clip-path="url(#paa53e7f1bb)" d="M 46.840635 87.400971 
L 47.451807 87.400971 
L 47.451807 86.817357 
L 46.840635 86.817357 
z
" style="fill:#1d1d1d;"/>
   </g>
   <g id="patch_65">
    <path clip-path="url(#paa53e7f1bb)" d="M 47.349945 87.400971 
L 47.961117 87.400971 
L 47.961117 86.804393 
L 47.349945 86.804393 
z
" style="fill:#1d1d1d;"/>
   </g>
   <g id="patch_66">
    <path clip-path="url(#paa53e7f1bb)" d="M 47.859255 87.400971 
L 48.470427 87.400971 
L 48.470427 86.788423 
L 47.859255 86.788423 
z
" style="fill:#1d1d1d;"/>
   </g>
   <g id="patch_67">
    <path clip-path="url(#paa53e7f1bb)" d="M 48.368565 87.400971 
L 48.979737 87.400971 
L 48.979737 86.776779 
L 48.368565 86.776779 
z
" style="fill:#1d1d1d;"/>
   </g>
   <g id="patch_68">
    <path clip-path="url(#paa53e7f1bb)" d="M 48.877875 87.400971 
L 49.489047 87.400971 
L 49.489047 86.735501 
L 48.877875 86.735501 
z
" style="fill:#1d1d1d;"/>
   </g>
   <g id="patch_69">
    <path clip-path="url(#paa53e7f1bb)" d="M 49.387185 87.400971 
L 49.998357 87.400971 
L 49.998357 86.711141 
L 49.387185 86.711141 
z
" style="fill:#1d1d1d;"/>
   </g>
   <g id="patch_70">
    <path clip-path="url(#paa53e7f1bb)" d="M 49.896495 87.400971 
L 50.507667 87.400971 
L 50.507667 86.709663 
L 49.896495 86.709663 
z
" style="fill:#1d1d1d;"/>
   </g>
   <g id="patch_71">
    <path clip-path="url(#paa53e7f1bb)" d="M 50.405805 87.400971 
L 51.016977 87.400971 
L 51.016977 86.707724 
L 50.405805 86.707724 
z
" style="fill:#1d1d1d;"/>
   </g>
   <g id="patch_72">
    <path clip-path="url(#paa53e7f1bb)" d="M 50.915115 87.400971 
L 51.526287 87.400971 
L 51.526287 86.706483 
L 50.915115 86.706483 
z
" style="fill:#1d1d1d;"/>
   </g>
   <g id="patch_73">
    <path clip-path="url(#paa53e7f1bb)" d="M 51.424425 87.400971 
L 52.035597 87.400971 
L 52.035597 86.695395 
L 51.424425 86.695395 
z
" style="fill:#1d1d1d;"/>
   </g>
   <g id="patch_74">
    <path clip-path="url(#paa53e7f1bb)" d="M 51.933735 87.400971 
L 52.544907 87.400971 
L 52.544907 86.648789 
L 51.933735 86.648789 
z
" style="fill:#1d1d1d;"/>
   </g>
   <g id="patch_75">
    <path clip-path="url(#paa53e7f1bb)" d="M 52.443045 87.400971 
L 53.054217 87.400971 
L 53.054217 86.642722 
L 52.443045 86.642722 
z
" style="fill:#1d1d1d;"/>
   </g>
   <g id="patch_76">
    <path clip-path="url(#paa53e7f1bb)" d="M 52.952355 87.400971 
L 53.563527 87.400971 
L 53.563527 86.607016 
L 52.952355 86.607016 
z
" style="fill:#1d1d1d;"/>
   </g>
   <g id="patch_77">
    <path clip-path="url(#paa53e7f1bb)" d="M 53.461665 87.400971 
L 54.072837 87.400971 
L 54.072837 86.603021 
L 53.461665 86.603021 
z
" style="fill:#1d1d1d;"/>
   </g>
   <g id="patch_78">
    <path clip-path="url(#paa53e7f1bb)" d="M 53.970975 87.400971 
L 54.582147 87.400971 
L 54.582147 86.540049 
L 53.970975 86.540049 
z
" style="fill:#1d1d1d;"/>
   </g>
   <g id="patch_79">
    <path clip-path="url(#paa53e7f1bb)" d="M 54.480285 87.400971 
L 55.091457 87.400971 
L 55.091457 86.531343 
L 54.480285 86.531343 
z
" style="fill:#1d1d1d;"/>
   </g>
   <g id="patch_80">
    <path clip-path="url(#paa53e7f1bb)" d="M 54.989595 87.400971 
L 55.600767 87.400971 
L 55.600767 86.514662 
L 54.989595 86.514662 
z
" style="fill:#1d1d1d;"/>
   </g>
   <g id="patch_81">
    <path clip-path="url(#paa53e7f1bb)" d="M 55.498905 87.400971 
L 56.110077 87.400971 
L 56.110077 86.478405 
L 55.498905 86.478405 
z
" style="fill:#1d1d1d;"/>
   </g>
   <g id="patch_82">
    <path clip-path="url(#paa53e7f1bb)" d="M 56.008215 87.400971 
L 56.619387 87.400971 
L 56.619387 86.371207 
L 56.008215 86.371207 
z
" style="fill:#1d1d1d;"/>
   </g>
   <g id="patch_83">
    <path clip-path="url(#paa53e7f1bb)" d="M 56.517525 87.400971 
L 57.128697 87.400971 
L 57.128697 86.36779 
L 56.517525 86.36779 
z
" style="fill:#1d1d1d;"/>
   </g>
   <g id="patch_84">
    <path clip-path="url(#paa53e7f1bb)" d="M 57.026835 87.400971 
L 57.638007 87.400971 
L 57.638007 86.289884 
L 57.026835 86.289884 
z
" style="fill:#1d1d1d;"/>
   </g>
   <g id="patch_85">
    <path clip-path="url(#paa53e7f1bb)" d="M 57.536145 87.400971 
L 58.147317 87.400971 
L 58.147317 86.164963 
L 57.536145 86.164963 
z
" style="fill:#1d1d1d;"/>
   </g>
   <g id="patch_86">
    <path clip-path="url(#paa53e7f1bb)" d="M 58.045455 87.400971 
L 58.656627 87.400971 
L 58.656627 86.159285 
L 58.045455 86.159285 
z
" style="fill:#1d1d1d;"/>
   </g>
   <g id="patch_87">
    <path clip-path="url(#paa53e7f1bb)" d="M 58.554765 87.400971 
L 59.165936 87.400971 
L 59.165936 86.146482 
L 58.554765 86.146482 
z
" style="fill:#1d1d1d;"/>
   </g>
   <g id="patch_88">
    <path clip-path="url(#paa53e7f1bb)" d="M 59.064074 87.400971 
L 59.675246 87.400971 
L 59.675246 85.925213 
L 59.064074 85.925213 
z
" style="fill:#1d1d1d;"/>
   </g>
   <g id="patch_89">
    <path clip-path="url(#paa53e7f1bb)" d="M 59.573384 87.400971 
L 60.184556 87.400971 
L 60.184556 85.859011 
L 59.573384 85.859011 
z
" style="fill:#1d1d1d;"/>
   </g>
   <g id="patch_90">
    <path clip-path="url(#paa53e7f1bb)" d="M 60.082694 87.400971 
L 60.693866 87.400971 
L 60.693866 85.796296 
L 60.082694 85.796296 
z
" style="fill:#1d1d1d;"/>
   </g>
   <g id="patch_91">
    <path clip-path="url(#paa53e7f1bb)" d="M 60.592004 87.400971 
L 61.203176 87.400971 
L 61.203176 85.724469 
L 60.592004 85.724469 
z
" style="fill:#1d1d1d;"/>
   </g>
   <g id="patch_92">
    <path clip-path="url(#paa53e7f1bb)" d="M 61.101314 87.400971 
L 61.712486 87.400971 
L 61.712486 85.713716 
L 61.101314 85.713716 
z
" style="fill:#1d1d1d;"/>
   </g>
   <g id="patch_93">
    <path clip-path="url(#paa53e7f1bb)" d="M 61.610624 87.400971 
L 62.221796 87.400971 
L 62.221796 85.690643 
L 61.610624 85.690643 
z
" style="fill:#1d1d1d;"/>
   </g>
   <g id="patch_94">
    <path clip-path="url(#paa53e7f1bb)" d="M 62.119934 87.400971 
L 62.731106 87.400971 
L 62.731106 85.649117 
L 62.119934 85.649117 
z
" style="fill:#1d1d1d;"/>
   </g>
   <g id="patch_95">
    <path clip-path="url(#paa53e7f1bb)" d="M 62.629244 87.400971 
L 63.240416 87.400971 
L 63.240416 85.629382 
L 62.629244 85.629382 
z
" style="fill:#1d1d1d;"/>
   </g>
   <g id="patch_96">
    <path clip-path="url(#paa53e7f1bb)" d="M 63.138554 87.400971 
L 63.749726 87.400971 
L 63.749726 85.565975 
L 63.138554 85.565975 
z
" style="fill:#1d1d1d;"/>
   </g>
   <g id="patch_97">
    <path clip-path="url(#paa53e7f1bb)" d="M 63.647864 87.400971 
L 64.259036 87.400971 
L 64.259036 85.485186 
L 63.647864 85.485186 
z
" style="fill:#1d1d1d;"/>
   </g>
   <g id="patch_98">
    <path clip-path="url(#paa53e7f1bb)" d="M 64.157174 87.400971 
L 64.768346 87.400971 
L 64.768346 80.500589 
L 64.157174 80.500589 
z
" style="fill:#1d1d1d;"/>
   </g>
   <g id="patch_99">
    <path clip-path="url(#paa53e7f1bb)" d="M 64.666484 87.400971 
L 65.277656 87.400971 
L 65.277656 74.489861 
L 64.666484 74.489861 
z
" style="fill:#1d1d1d;"/>
   </g>
   <g id="patch_100">
    <path clip-path="url(#paa53e7f1bb)" d="M 65.175794 87.400971 
L 65.786966 87.400971 
L 65.786966 63.165526 
L 65.175794 63.165526 
z
" style="fill:#1d1d1d;"/>
   </g>
   <g id="patch_101">
    <path clip-path="url(#paa53e7f1bb)" d="M 65.685104 87.400971 
L 66.296276 87.400971 
L 66.296276 53.447998 
L 65.685104 53.447998 
z
" style="fill:#1d1d1d;"/>
   </g>
   <g id="patch_102">
    <path clip-path="url(#paa53e7f1bb)" d="M 66.194414 87.400971 
L 66.805586 87.400971 
L 66.805586 52.772671 
L 66.194414 52.772671 
z
" style="fill:#1d1d1d;"/>
   </g>
   <g id="patch_103">
    <path clip-path="url(#paa53e7f1bb)" d="M 66.194414 87.400971 
L 66.805586 87.400971 
L 66.805586 52.772671 
L 66.194414 52.772671 
z
" style="fill:#1d1d1d;"/>
   </g>
   <g id="patch_104">
    <path clip-path="url(#paa53e7f1bb)" d="M 66.703724 87.400971 
L 67.314896 87.400971 
L 67.314896 74.144441 
L 66.703724 74.144441 
z
" style="fill:#1d1d1d;"/>
   </g>
   <g id="patch_105">
    <path clip-path="url(#paa53e7f1bb)" d="M 67.213034 87.400971 
L 67.824206 87.400971 
L 67.824206 76.135223 
L 67.213034 76.135223 
z
" style="fill:#1d1d1d;"/>
   </g>
   <g id="patch_106">
    <path clip-path="url(#paa53e7f1bb)" d="M 67.722344 87.400971 
L 68.333516 87.400971 
L 68.333516 77.924921 
L 67.722344 77.924921 
z
" style="fill:#1d1d1d;"/>
   </g>
   <g id="patch_107">
    <path clip-path="url(#paa53e7f1bb)" d="M 68.231654 87.400971 
L 68.842826 87.400971 
L 68.842826 81.074684 
L 68.231654 81.074684 
z
" style="fill:#1d1d1d;"/>
   </g>
   <g id="patch_108">
    <path clip-path="url(#paa53e7f1bb)" d="M 68.740964 87.400971 
L 69.352136 87.400971 
L 69.352136 81.895149 
L 68.740964 81.895149 
z
" style="fill:#1d1d1d;"/>
   </g>
   <g id="patch_109">
    <path clip-path="url(#paa53e7f1bb)" d="M 69.250274 87.400971 
L 69.861446 87.400971 
L 69.861446 82.616393 
L 69.250274 82.616393 
z
" style="fill:#1d1d1d;"/>
   </g>
   <g id="patch_110">
    <path clip-path="url(#paa53e7f1bb)" d="M 69.759584 87.400971 
L 70.370756 87.400971 
L 70.370756 84.54414 
L 69.759584 84.54414 
z
" style="fill:#1d1d1d;"/>
   </g>
   <g id="patch_111">
    <path clip-path="url(#paa53e7f1bb)" d="M 70.268894 87.400971 
L 70.880066 87.400971 
L 70.880066 84.566528 
L 70.268894 84.566528 
z
" style="fill:#1d1d1d;"/>
   </g>
   <g id="patch_112">
    <path clip-path="url(#paa53e7f1bb)" d="M 70.778204 87.400971 
L 71.389376 87.400971 
L 71.389376 84.828017 
L 70.778204 84.828017 
z
" style="fill:#1d1d1d;"/>
   </g>
   <g id="patch_113">
    <path clip-path="url(#paa53e7f1bb)" d="M 71.287514 87.400971 
L 71.898686 87.400971 
L 71.898686 84.86168 
L 71.287514 84.86168 
z
" style="fill:#1d1d1d;"/>
   </g>
   <g id="patch_114">
    <path clip-path="url(#paa53e7f1bb)" d="M 71.796824 87.400971 
L 72.407996 87.400971 
L 72.407996 84.880317 
L 71.796824 84.880317 
z
" style="fill:#1d1d1d;"/>
   </g>
   <g id="patch_115">
    <path clip-path="url(#paa53e7f1bb)" d="M 72.306134 87.400971 
L 72.917306 87.400971 
L 72.917306 85.325618 
L 72.306134 85.325618 
z
" style="fill:#1d1d1d;"/>
   </g>
   <g id="patch_116">
    <path clip-path="url(#paa53e7f1bb)" d="M 72.815444 87.400971 
L 73.426616 87.400971 
L 73.426616 85.853615 
L 72.815444 85.853615 
z
" style="fill:#1d1d1d;"/>
   </g>
   <g id="patch_117">
    <path clip-path="url(#paa53e7f1bb)" d="M 73.324754 87.400971 
L 73.935926 87.400971 
L 73.935926 86.231594 
L 73.324754 86.231594 
z
" style="fill:#1d1d1d;"/>
   </g>
   <g id="patch_118">
    <path clip-path="url(#paa53e7f1bb)" d="M 73.834064 87.400971 
L 74.445235 87.400971 
L 74.445235 86.311318 
L 73.834064 86.311318 
z
" style="fill:#1d1d1d;"/>
   </g>
   <g id="patch_119">
    <path clip-path="url(#paa53e7f1bb)" d="M 74.343373 87.400971 
L 74.954545 87.400971 
L 74.954545 86.330994 
L 74.343373 86.330994 
z
" style="fill:#1d1d1d;"/>
   </g>
   <g id="patch_120">
    <path clip-path="url(#paa53e7f1bb)" d="M 74.852683 87.400971 
L 75.463855 87.400971 
L 75.463855 86.35841 
L 74.852683 86.35841 
z
" style="fill:#1d1d1d;"/>
   </g>
   <g id="patch_121">
    <path clip-path="url(#paa53e7f1bb)" d="M 75.361993 87.400971 
L 75.973165 87.400971 
L 75.973165 86.426203 
L 75.361993 86.426203 
z
" style="fill:#1d1d1d;"/>
   </g>
   <g id="patch_122">
    <path clip-path="url(#paa53e7f1bb)" d="M 75.871303 87.400971 
L 76.482475 87.400971 
L 76.482475 86.504528 
L 75.871303 86.504528 
z
" style="fill:#1d1d1d;"/>
   </g>
   <g id="patch_123">
    <path clip-path="url(#paa53e7f1bb)" d="M 76.380613 87.400971 
L 76.991785 87.400971 
L 76.991785 86.509288 
L 76.380613 86.509288 
z
" style="fill:#1d1d1d;"/>
   </g>
   <g id="patch_124">
    <path clip-path="url(#paa53e7f1bb)" d="M 76.889923 87.400971 
L 77.501095 87.400971 
L 77.501095 86.526147 
L 76.889923 86.526147 
z
" style="fill:#1d1d1d;"/>
   </g>
   <g id="patch_125">
    <path clip-path="url(#paa53e7f1bb)" d="M 77.399233 87.400971 
L 78.010405 87.400971 
L 78.010405 86.550217 
L 77.399233 86.550217 
z
" style="fill:#1d1d1d;"/>
   </g>
   <g id="patch_126">
    <path clip-path="url(#paa53e7f1bb)" d="M 77.908543 87.400971 
L 78.519715 87.400971 
L 78.519715 86.58177 
L 77.908543 86.58177 
z
" style="fill:#1d1d1d;"/>
   </g>
   <g id="patch_127">
    <path clip-path="url(#paa53e7f1bb)" d="M 78.417853 87.400971 
L 79.029025 87.400971 
L 79.029025 86.599096 
L 78.417853 86.599096 
z
" style="fill:#1d1d1d;"/>
   </g>
   <g id="patch_128">
    <path clip-path="url(#paa53e7f1bb)" d="M 78.927163 87.400971 
L 79.538335 87.400971 
L 79.538335 86.640545 
L 78.927163 86.640545 
z
" style="fill:#1d1d1d;"/>
   </g>
   <g id="patch_129">
    <path clip-path="url(#paa53e7f1bb)" d="M 79.436473 87.400971 
L 80.047645 87.400971 
L 80.047645 86.651867 
L 79.436473 86.651867 
z
" style="fill:#1d1d1d;"/>
   </g>
   <g id="patch_130">
    <path clip-path="url(#paa53e7f1bb)" d="M 79.945783 87.400971 
L 80.556955 87.400971 
L 80.556955 86.664325 
L 79.945783 86.664325 
z
" style="fill:#1d1d1d;"/>
   </g>
   <g id="patch_131">
    <path clip-path="url(#paa53e7f1bb)" d="M 80.455093 87.400971 
L 81.066265 87.400971 
L 81.066265 86.670785 
L 80.455093 86.670785 
z
" style="fill:#1d1d1d;"/>
   </g>
   <g id="patch_132">
    <path clip-path="url(#paa53e7f1bb)" d="M 80.964403 87.400971 
L 81.575575 87.400971 
L 81.575575 86.691619 
L 80.964403 86.691619 
z
" style="fill:#1d1d1d;"/>
   </g>
   <g id="patch_133">
    <path clip-path="url(#paa53e7f1bb)" d="M 81.473713 87.400971 
L 82.084885 87.400971 
L 82.084885 86.730233 
L 81.473713 86.730233 
z
" style="fill:#1d1d1d;"/>
   </g>
   <g id="patch_134">
    <path clip-path="url(#paa53e7f1bb)" d="M 81.983023 87.400971 
L 82.594195 87.400971 
L 82.594195 86.73517 
L 81.983023 86.73517 
z
" style="fill:#1d1d1d;"/>
   </g>
   <g id="patch_135">
    <path clip-path="url(#paa53e7f1bb)" d="M 82.492333 87.400971 
L 83.103505 87.400971 
L 83.103505 86.737246 
L 82.492333 86.737246 
z
" style="fill:#1d1d1d;"/>
   </g>
   <g id="patch_136">
    <path clip-path="url(#paa53e7f1bb)" d="M 83.001643 87.400971 
L 83.612815 87.400971 
L 83.612815 86.746922 
L 83.001643 86.746922 
z
" style="fill:#1d1d1d;"/>
   </g>
   <g id="patch_137">
    <path clip-path="url(#paa53e7f1bb)" d="M 83.510953 87.400971 
L 84.122125 87.400971 
L 84.122125 86.763768 
L 83.510953 86.763768 
z
" style="fill:#1d1d1d;"/>
   </g>
   <g id="patch_138">
    <path clip-path="url(#paa53e7f1bb)" d="M 84.020263 87.400971 
L 84.631435 87.400971 
L 84.631435 86.789262 
L 84.020263 86.789262 
z
" style="fill:#1d1d1d;"/>
   </g>
   <g id="patch_139">
    <path clip-path="url(#paa53e7f1bb)" d="M 84.529573 87.400971 
L 85.140745 87.400971 
L 85.140745 86.822644 
L 84.529573 86.822644 
z
" style="fill:#1d1d1d;"/>
   </g>
   <g id="patch_140">
    <path clip-path="url(#paa53e7f1bb)" d="M 85.038883 87.400971 
L 85.650055 87.400971 
L 85.650055 86.825435 
L 85.038883 86.825435 
z
" style="fill:#1d1d1d;"/>
   </g>
   <g id="patch_141">
    <path clip-path="url(#paa53e7f1bb)" d="M 85.548193 87.400971 
L 86.159365 87.400971 
L 86.159365 86.83279 
L 85.548193 86.83279 
z
" style="fill:#1d1d1d;"/>
   </g>
   <g id="patch_142">
    <path clip-path="url(#paa53e7f1bb)" d="M 86.057503 87.400971 
L 86.668675 87.400971 
L 86.668675 86.855088 
L 86.057503 86.855088 
z
" style="fill:#1d1d1d;"/>
   </g>
   <g id="patch_143">
    <path clip-path="url(#paa53e7f1bb)" d="M 86.566813 87.400971 
L 87.177985 87.400971 
L 87.177985 86.863324 
L 86.566813 86.863324 
z
" style="fill:#1d1d1d;"/>
   </g>
   <g id="patch_144">
    <path clip-path="url(#paa53e7f1bb)" d="M 87.076123 87.400971 
L 87.687295 87.400971 
L 87.687295 86.86644 
L 87.076123 86.86644 
z
" style="fill:#1d1d1d;"/>
   </g>
   <g id="patch_145">
    <path clip-path="url(#paa53e7f1bb)" d="M 87.585433 87.400971 
L 88.196605 87.400971 
L 88.196605 86.868698 
L 87.585433 86.868698 
z
" style="fill:#1d1d1d;"/>
   </g>
   <g id="patch_146">
    <path clip-path="url(#paa53e7f1bb)" d="M 88.094743 87.400971 
L 88.705915 87.400971 
L 88.705915 86.869201 
L 88.094743 86.869201 
z
" style="fill:#1d1d1d;"/>
   </g>
   <g id="patch_147">
    <path clip-path="url(#paa53e7f1bb)" d="M 88.604053 87.400971 
L 89.215225 87.400971 
L 89.215225 86.874473 
L 88.604053 86.874473 
z
" style="fill:#1d1d1d;"/>
   </g>
   <g id="patch_148">
    <path clip-path="url(#paa53e7f1bb)" d="M 89.113363 87.400971 
L 89.724535 87.400971 
L 89.724535 86.878113 
L 89.113363 86.878113 
z
" style="fill:#1d1d1d;"/>
   </g>
   <g id="patch_149">
    <path clip-path="url(#paa53e7f1bb)" d="M 89.622673 87.400971 
L 90.233844 87.400971 
L 90.233844 86.910266 
L 89.622673 86.910266 
z
" style="fill:#1d1d1d;"/>
   </g>
   <g id="patch_150">
    <path clip-path="url(#paa53e7f1bb)" d="M 90.131982 87.400971 
L 90.743154 87.400971 
L 90.743154 86.933902 
L 90.131982 86.933902 
z
" style="fill:#1d1d1d;"/>
   </g>
   <g id="patch_151">
    <path clip-path="url(#paa53e7f1bb)" d="M 90.641292 87.400971 
L 91.252464 87.400971 
L 91.252464 86.936355 
L 90.641292 86.936355 
z
" style="fill:#1d1d1d;"/>
   </g>
   <g id="patch_152">
    <path clip-path="url(#paa53e7f1bb)" d="M 91.150602 87.400971 
L 91.761774 87.400971 
L 91.761774 86.945522 
L 91.150602 86.945522 
z
" style="fill:#1d1d1d;"/>
   </g>
   <g id="patch_153">
    <path clip-path="url(#paa53e7f1bb)" d="M 91.659912 87.400971 
L 92.271084 87.400971 
L 92.271084 86.96027 
L 91.659912 86.96027 
z
" style="fill:#1d1d1d;"/>
   </g>
   <g id="patch_154">
    <path clip-path="url(#paa53e7f1bb)" d="M 92.169222 87.400971 
L 92.780394 87.400971 
L 92.780394 86.973907 
L 92.169222 86.973907 
z
" style="fill:#1d1d1d;"/>
   </g>
   <g id="patch_155">
    <path clip-path="url(#paa53e7f1bb)" d="M 92.678532 87.400971 
L 93.289704 87.400971 
L 93.289704 86.977431 
L 92.678532 86.977431 
z
" style="fill:#1d1d1d;"/>
   </g>
   <g id="patch_156">
    <path clip-path="url(#paa53e7f1bb)" d="M 93.187842 87.400971 
L 93.799014 87.400971 
L 93.799014 86.978457 
L 93.187842 86.978457 
z
" style="fill:#1d1d1d;"/>
   </g>
   <g id="patch_157">
    <path clip-path="url(#paa53e7f1bb)" d="M 93.697152 87.400971 
L 94.308324 87.400971 
L 94.308324 86.983665 
L 93.697152 86.983665 
z
" style="fill:#1d1d1d;"/>
   </g>
   <g id="patch_158">
    <path clip-path="url(#paa53e7f1bb)" d="M 94.206462 87.400971 
L 94.817634 87.400971 
L 94.817634 86.983778 
L 94.206462 86.983778 
z
" style="fill:#1d1d1d;"/>
   </g>
   <g id="patch_159">
    <path clip-path="url(#paa53e7f1bb)" d="M 94.715772 87.400971 
L 95.326944 87.400971 
L 95.326944 86.995981 
L 94.715772 86.995981 
z
" style="fill:#1d1d1d;"/>
   </g>
   <g id="patch_160">
    <path clip-path="url(#paa53e7f1bb)" d="M 95.225082 87.400971 
L 95.836254 87.400971 
L 95.836254 86.998824 
L 95.225082 86.998824 
z
" style="fill:#1d1d1d;"/>
   </g>
   <g id="patch_161">
    <path clip-path="url(#paa53e7f1bb)" d="M 95.734392 87.400971 
L 96.345564 87.400971 
L 96.345564 86.999599 
L 95.734392 86.999599 
z
" style="fill:#1d1d1d;"/>
   </g>
   <g id="patch_162">
    <path clip-path="url(#paa53e7f1bb)" d="M 96.243702 87.400971 
L 96.854874 87.400971 
L 96.854874 87.00494 
L 96.243702 87.00494 
z
" style="fill:#1d1d1d;"/>
   </g>
   <g id="patch_163">
    <path clip-path="url(#paa53e7f1bb)" d="M 96.753012 87.400971 
L 97.364184 87.400971 
L 97.364184 87.00584 
L 96.753012 87.00584 
z
" style="fill:#1d1d1d;"/>
   </g>
   <g id="patch_164">
    <path clip-path="url(#paa53e7f1bb)" d="M 97.262322 87.400971 
L 97.873494 87.400971 
L 97.873494 87.00619 
L 97.262322 87.00619 
z
" style="fill:#1d1d1d;"/>
   </g>
   <g id="patch_165">
    <path clip-path="url(#paa53e7f1bb)" d="M 97.771632 87.400971 
L 98.382804 87.400971 
L 98.382804 87.020098 
L 97.771632 87.020098 
z
" style="fill:#1d1d1d;"/>
   </g>
   <g id="patch_166">
    <path clip-path="url(#paa53e7f1bb)" d="M 98.280942 87.400971 
L 98.892114 87.400971 
L 98.892114 87.021119 
L 98.280942 87.021119 
z
" style="fill:#1d1d1d;"/>
   </g>
   <g id="patch_167">
    <path clip-path="url(#paa53e7f1bb)" d="M 98.790252 87.400971 
L 99.401424 87.400971 
L 99.401424 87.024 
L 98.790252 87.024 
z
" style="fill:#1d1d1d;"/>
   </g>
   <g id="patch_168">
    <path clip-path="url(#paa53e7f1bb)" d="M 99.299562 87.400971 
L 99.910734 87.400971 
L 99.910734 87.028087 
L 99.299562 87.028087 
z
" style="fill:#1d1d1d;"/>
   </g>
   <g id="patch_169">
    <path clip-path="url(#paa53e7f1bb)" d="M 99.808872 87.400971 
L 100.420044 87.400971 
L 100.420044 87.03808 
L 99.808872 87.03808 
z
" style="fill:#1d1d1d;"/>
   </g>
   <g id="patch_170">
    <path clip-path="url(#paa53e7f1bb)" d="M 100.318182 87.400971 
L 100.929354 87.400971 
L 100.929354 87.040252 
L 100.318182 87.040252 
z
" style="fill:#1d1d1d;"/>
   </g>
   <g id="patch_171">
    <path clip-path="url(#paa53e7f1bb)" d="M 100.827492 87.400971 
L 101.438664 87.400971 
L 101.438664 87.042111 
L 100.827492 87.042111 
z
" style="fill:#1d1d1d;"/>
   </g>
   <g id="patch_172">
    <path clip-path="url(#paa53e7f1bb)" d="M 101.336802 87.400971 
L 101.947974 87.400971 
L 101.947974 87.042758 
L 101.336802 87.042758 
z
" style="fill:#1d1d1d;"/>
   </g>
   <g id="patch_173">
    <path clip-path="url(#paa53e7f1bb)" d="M 101.846112 87.400971 
L 102.457284 87.400971 
L 102.457284 87.044003 
L 101.846112 87.044003 
z
" style="fill:#1d1d1d;"/>
   </g>
   <g id="patch_174">
    <path clip-path="url(#paa53e7f1bb)" d="M 102.355422 87.400971 
L 102.966594 87.400971 
L 102.966594 87.045247 
L 102.355422 87.045247 
z
" style="fill:#1d1d1d;"/>
   </g>
   <g id="patch_175">
    <path clip-path="url(#paa53e7f1bb)" d="M 102.864732 87.400971 
L 103.475904 87.400971 
L 103.475904 87.046269 
L 102.864732 87.046269 
z
" style="fill:#1d1d1d;"/>
   </g>
   <g id="patch_176">
    <path clip-path="url(#paa53e7f1bb)" d="M 103.374042 87.400971 
L 103.985214 87.400971 
L 103.985214 87.049138 
L 103.374042 87.049138 
z
" style="fill:#1d1d1d;"/>
   </g>
   <g id="patch_177">
    <path clip-path="url(#paa53e7f1bb)" d="M 103.883352 87.400971 
L 104.494524 87.400971 
L 104.494524 87.049966 
L 103.883352 87.049966 
z
" style="fill:#1d1d1d;"/>
   </g>
   <g id="patch_178">
    <path clip-path="url(#paa53e7f1bb)" d="M 104.392662 87.400971 
L 105.003834 87.400971 
L 105.003834 87.052611 
L 104.392662 87.052611 
z
" style="fill:#1d1d1d;"/>
   </g>
   <g id="patch_179">
    <path clip-path="url(#paa53e7f1bb)" d="M 104.901972 87.400971 
L 105.513143 87.400971 
L 105.513143 87.053655 
L 104.901972 87.053655 
z
" style="fill:#1d1d1d;"/>
   </g>
   <g id="patch_180">
    <path clip-path="url(#paa53e7f1bb)" d="M 105.411281 87.400971 
L 106.022453 87.400971 
L 106.022453 87.058139 
L 105.411281 87.058139 
z
" style="fill:#1d1d1d;"/>
   </g>
   <g id="patch_181">
    <path clip-path="url(#paa53e7f1bb)" d="M 105.920591 87.400971 
L 106.531763 87.400971 
L 106.531763 87.063391 
L 105.920591 87.063391 
z
" style="fill:#1d1d1d;"/>
   </g>
   <g id="patch_182">
    <path clip-path="url(#paa53e7f1bb)" d="M 106.429901 87.400971 
L 107.041073 87.400971 
L 107.041073 87.064668 
L 106.429901 87.064668 
z
" style="fill:#1d1d1d;"/>
   </g>
   <g id="patch_183">
    <path clip-path="url(#paa53e7f1bb)" d="M 106.939211 87.400971 
L 107.550383 87.400971 
L 107.550383 87.065295 
L 106.939211 87.065295 
z
" style="fill:#1d1d1d;"/>
   </g>
   <g id="patch_184">
    <path clip-path="url(#paa53e7f1bb)" d="M 107.448521 87.400971 
L 108.059693 87.400971 
L 108.059693 87.065922 
L 107.448521 87.065922 
z
" style="fill:#1d1d1d;"/>
   </g>
   <g id="patch_185">
    <path clip-path="url(#paa53e7f1bb)" d="M 107.957831 87.400971 
L 108.569003 87.400971 
L 108.569003 87.067616 
L 107.957831 87.067616 
z
" style="fill:#1d1d1d;"/>
   </g>
   <g id="patch_186">
    <path clip-path="url(#paa53e7f1bb)" d="M 108.467141 87.400971 
L 109.078313 87.400971 
L 109.078313 87.069774 
L 108.467141 87.069774 
z
" style="fill:#1d1d1d;"/>
   </g>
   <g id="patch_187">
    <path clip-path="url(#paa53e7f1bb)" d="M 108.976451 87.400971 
L 109.587623 87.400971 
L 109.587623 87.073886 
L 108.976451 87.073886 
z
" style="fill:#1d1d1d;"/>
   </g>
   <g id="patch_188">
    <path clip-path="url(#paa53e7f1bb)" d="M 109.485761 87.400971 
L 110.096933 87.400971 
L 110.096933 87.075328 
L 109.485761 87.075328 
z
" style="fill:#1d1d1d;"/>
   </g>
   <g id="patch_189">
    <path clip-path="url(#paa53e7f1bb)" d="M 109.995071 87.400971 
L 110.606243 87.400971 
L 110.606243 87.076023 
L 109.995071 87.076023 
z
" style="fill:#1d1d1d;"/>
   </g>
   <g id="patch_190">
    <path clip-path="url(#paa53e7f1bb)" d="M 110.504381 87.400971 
L 111.115553 87.400971 
L 111.115553 87.081871 
L 110.504381 87.081871 
z
" style="fill:#1d1d1d;"/>
   </g>
   <g id="patch_191">
    <path clip-path="url(#paa53e7f1bb)" d="M 111.013691 87.400971 
L 111.624863 87.400971 
L 111.624863 87.083735 
L 111.013691 87.083735 
z
" style="fill:#1d1d1d;"/>
   </g>
   <g id="patch_192">
    <path clip-path="url(#paa53e7f1bb)" d="M 111.523001 87.400971 
L 112.134173 87.400971 
L 112.134173 87.087716 
L 111.523001 87.087716 
z
" style="fill:#1d1d1d;"/>
   </g>
   <g id="patch_193">
    <path clip-path="url(#paa53e7f1bb)" d="M 112.032311 87.400971 
L 112.643483 87.400971 
L 112.643483 87.088406 
L 112.032311 87.088406 
z
" style="fill:#1d1d1d;"/>
   </g>
   <g id="patch_194">
    <path clip-path="url(#paa53e7f1bb)" d="M 112.541621 87.400971 
L 113.152793 87.400971 
L 113.152793 87.090371 
L 112.541621 87.090371 
z
" style="fill:#1d1d1d;"/>
   </g>
   <g id="patch_195">
    <path clip-path="url(#paa53e7f1bb)" d="M 113.050931 87.400971 
L 113.662103 87.400971 
L 113.662103 87.091337 
L 113.050931 87.091337 
z
" style="fill:#1d1d1d;"/>
   </g>
   <g id="patch_196">
    <path clip-path="url(#paa53e7f1bb)" d="M 113.560241 87.400971 
L 114.171413 87.400971 
L 114.171413 87.092744 
L 113.560241 87.092744 
z
" style="fill:#1d1d1d;"/>
   </g>
   <g id="patch_197">
    <path clip-path="url(#paa53e7f1bb)" d="M 114.069551 87.400971 
L 114.680723 87.400971 
L 114.680723 87.098858 
L 114.069551 87.098858 
z
" style="fill:#1d1d1d;"/>
   </g>
   <g id="patch_198">
    <path clip-path="url(#paa53e7f1bb)" d="M 114.578861 87.400971 
L 115.190033 87.400971 
L 115.190033 87.100878 
L 114.578861 87.100878 
z
" style="fill:#1d1d1d;"/>
   </g>
   <g id="patch_199">
    <path clip-path="url(#paa53e7f1bb)" d="M 115.088171 87.400971 
L 115.699343 87.400971 
L 115.699343 87.101031 
L 115.088171 87.101031 
z
" style="fill:#1d1d1d;"/>
   </g>
   <g id="patch_200">
    <path clip-path="url(#paa53e7f1bb)" d="M 115.597481 87.400971 
L 116.208653 87.400971 
L 116.208653 87.110857 
L 115.597481 87.110857 
z
" style="fill:#1d1d1d;"/>
   </g>
   <g id="patch_201">
    <path clip-path="url(#paa53e7f1bb)" d="M 116.106791 87.400971 
L 116.717963 87.400971 
L 116.717963 87.112122 
L 116.106791 87.112122 
z
" style="fill:#1d1d1d;"/>
   </g>
   <g id="patch_202">
    <path clip-path="url(#paa53e7f1bb)" d="M 116.616101 87.400971 
L 117.227273 87.400971 
L 117.227273 87.112412 
L 116.616101 87.112412 
z
" style="fill:#1d1d1d;"/>
   </g>
   <g id="matplotlib.axis_1"/>
   <g id="matplotlib.axis_2"/>
   <g id="patch_203">
    <path d="M 10.7 93.86 
L 10.7 10.7 
" style="fill:none;stroke:#000000;stroke-linecap:square;stroke-linejoin:miter;stroke-width:0.8;"/>
   </g>
   <g id="patch_204">
    <path d="M 122.3 93.86 
L 122.3 10.7 
" style="fill:none;stroke:#000000;stroke-linecap:square;stroke-linejoin:miter;stroke-width:0.8;"/>
   </g>
   <g id="patch_205">
    <path d="M 10.7 93.86 
L 122.3 93.86 
" style="fill:none;stroke:#000000;stroke-linecap:square;stroke-linejoin:miter;stroke-width:0.8;"/>
   </g>
   <g id="patch_206">
    <path d="M 10.7 10.7 
L 122.3 10.7 
" style="fill:none;stroke:#000000;stroke-linecap:square;stroke-linejoin:miter;stroke-width:0.8;"/>
   </g>
  </g>
 </g>
 <defs>
  <clipPath id="paa53e7f1bb">
   <rect height="83.16" width="111.6" x="10.7" y="10.7"/>
  </clipPath>
 </defs>
</svg>
