<?xml version="1.0" encoding="utf-8" standalone="no"?>
<!DOCTYPE svg PUBLIC "-//W3C//DTD SVG 1.1//EN"
  "http://www.w3.org/Graphics/SVG/1.1/DTD/svg11.dtd">
<!-- Created with matplotlib (http://matplotlib.org/) -->
<svg height="104pt" version="1.1" viewBox="0 0 133 104" width="133pt" xmlns="http://www.w3.org/2000/svg" xmlns:xlink="http://www.w3.org/1999/xlink">
 <defs>
  <style type="text/css">
*{stroke-linecap:butt;stroke-linejoin:round;}
  </style>
 </defs>
 <g id="figure_1">
  <g id="patch_1">
   <path d="M 0 104.56 
L 133 104.56 
L 133 0 
L 0 0 
z
" style="fill:#ffffff;"/>
  </g>
  <g id="axes_1">
   <g id="patch_2">
    <path d="M 10.7 93.86 
L 122.3 93.86 
L 122.3 10.7 
L 10.7 10.7 
z
" style="fill:#ffffff;"/>
   </g>
   <g id="patch_3">
    <path clip-path="url(#pe39c7a9901)" d="M 15.772727 87.400971 
L 16.383899 87.400971 
L 16.383899 87.158037 
L 15.772727 87.158037 
z
" style="fill:#1d1d1d;"/>
   </g>
   <g id="patch_4">
    <path clip-path="url(#pe39c7a9901)" d="M 16.282037 87.400971 
L 16.893209 87.400971 
L 16.893209 87.156249 
L 16.282037 87.156249 
z
" style="fill:#1d1d1d;"/>
   </g>
   <g id="patch_5">
    <path clip-path="url(#pe39c7a9901)" d="M 16.791347 87.400971 
L 17.402519 87.400971 
L 17.402519 87.156202 
L 16.791347 87.156202 
z
" style="fill:#1d1d1d;"/>
   </g>
   <g id="patch_6">
    <path clip-path="url(#pe39c7a9901)" d="M 17.300657 87.400971 
L 17.911829 87.400971 
L 17.911829 87.154752 
L 17.300657 87.154752 
z
" style="fill:#1d1d1d;"/>
   </g>
   <g id="patch_7">
    <path clip-path="url(#pe39c7a9901)" d="M 17.809967 87.400971 
L 18.421139 87.400971 
L 18.421139 87.151708 
L 17.809967 87.151708 
z
" style="fill:#1d1d1d;"/>
   </g>
   <g id="patch_8">
    <path clip-path="url(#pe39c7a9901)" d="M 18.319277 87.400971 
L 18.930449 87.400971 
L 18.930449 87.151386 
L 18.319277 87.151386 
z
" style="fill:#1d1d1d;"/>
   </g>
   <g id="patch_9">
    <path clip-path="url(#pe39c7a9901)" d="M 18.828587 87.400971 
L 19.439759 87.400971 
L 19.439759 87.151005 
L 18.828587 87.151005 
z
" style="fill:#1d1d1d;"/>
   </g>
   <g id="patch_10">
    <path clip-path="url(#pe39c7a9901)" d="M 19.337897 87.400971 
L 19.949069 87.400971 
L 19.949069 87.14924 
L 19.337897 87.14924 
z
" style="fill:#1d1d1d;"/>
   </g>
   <g id="patch_11">
    <path clip-path="url(#pe39c7a9901)" d="M 19.847207 87.400971 
L 20.458379 87.400971 
L 20.458379 87.146237 
L 19.847207 87.146237 
z
" style="fill:#1d1d1d;"/>
   </g>
   <g id="patch_12">
    <path clip-path="url(#pe39c7a9901)" d="M 20.356517 87.400971 
L 20.967689 87.400971 
L 20.967689 87.145888 
L 20.356517 87.145888 
z
" style="fill:#1d1d1d;"/>
   </g>
   <g id="patch_13">
    <path clip-path="url(#pe39c7a9901)" d="M 20.865827 87.400971 
L 21.476999 87.400971 
L 21.476999 87.145213 
L 20.865827 87.145213 
z
" style="fill:#1d1d1d;"/>
   </g>
   <g id="patch_14">
    <path clip-path="url(#pe39c7a9901)" d="M 21.375137 87.400971 
L 21.986309 87.400971 
L 21.986309 87.140022 
L 21.375137 87.140022 
z
" style="fill:#1d1d1d;"/>
   </g>
   <g id="patch_15">
    <path clip-path="url(#pe39c7a9901)" d="M 21.884447 87.400971 
L 22.495619 87.400971 
L 22.495619 87.139814 
L 21.884447 87.139814 
z
" style="fill:#1d1d1d;"/>
   </g>
   <g id="patch_16">
    <path clip-path="url(#pe39c7a9901)" d="M 22.393757 87.400971 
L 23.004929 87.400971 
L 23.004929 87.139791 
L 22.393757 87.139791 
z
" style="fill:#1d1d1d;"/>
   </g>
   <g id="patch_17">
    <path clip-path="url(#pe39c7a9901)" d="M 22.903067 87.400971 
L 23.514239 87.400971 
L 23.514239 87.139217 
L 22.903067 87.139217 
z
" style="fill:#1d1d1d;"/>
   </g>
   <g id="patch_18">
    <path clip-path="url(#pe39c7a9901)" d="M 23.412377 87.400971 
L 24.023549 87.400971 
L 24.023549 87.137963 
L 23.412377 87.137963 
z
" style="fill:#1d1d1d;"/>
   </g>
   <g id="patch_19">
    <path clip-path="url(#pe39c7a9901)" d="M 23.921687 87.400971 
L 24.532859 87.400971 
L 24.532859 87.136921 
L 23.921687 87.136921 
z
" style="fill:#1d1d1d;"/>
   </g>
   <g id="patch_20">
    <path clip-path="url(#pe39c7a9901)" d="M 24.430997 87.400971 
L 25.042169 87.400971 
L 25.042169 87.136613 
L 24.430997 87.136613 
z
" style="fill:#1d1d1d;"/>
   </g>
   <g id="patch_21">
    <path clip-path="url(#pe39c7a9901)" d="M 24.940307 87.400971 
L 25.551479 87.400971 
L 25.551479 87.134206 
L 24.940307 87.134206 
z
" style="fill:#1d1d1d;"/>
   </g>
   <g id="patch_22">
    <path clip-path="url(#pe39c7a9901)" d="M 25.449617 87.400971 
L 26.060789 87.400971 
L 26.060789 87.132344 
L 25.449617 87.132344 
z
" style="fill:#1d1d1d;"/>
   </g>
   <g id="patch_23">
    <path clip-path="url(#pe39c7a9901)" d="M 25.958927 87.400971 
L 26.570099 87.400971 
L 26.570099 87.125765 
L 25.958927 87.125765 
z
" style="fill:#1d1d1d;"/>
   </g>
   <g id="patch_24">
    <path clip-path="url(#pe39c7a9901)" d="M 26.468237 87.400971 
L 27.079409 87.400971 
L 27.079409 87.125635 
L 26.468237 87.125635 
z
" style="fill:#1d1d1d;"/>
   </g>
   <g id="patch_25">
    <path clip-path="url(#pe39c7a9901)" d="M 26.977547 87.400971 
L 27.588719 87.400971 
L 27.588719 87.123049 
L 26.977547 87.123049 
z
" style="fill:#1d1d1d;"/>
   </g>
   <g id="patch_26">
    <path clip-path="url(#pe39c7a9901)" d="M 27.486857 87.400971 
L 28.098028 87.400971 
L 28.098028 87.120536 
L 27.486857 87.120536 
z
" style="fill:#1d1d1d;"/>
   </g>
   <g id="patch_27">
    <path clip-path="url(#pe39c7a9901)" d="M 27.996166 87.400971 
L 28.607338 87.400971 
L 28.607338 87.117181 
L 27.996166 87.117181 
z
" style="fill:#1d1d1d;"/>
   </g>
   <g id="patch_28">
    <path clip-path="url(#pe39c7a9901)" d="M 28.505476 87.400971 
L 29.116648 87.400971 
L 29.116648 87.114713 
L 28.505476 87.114713 
z
" style="fill:#1d1d1d;"/>
   </g>
   <g id="patch_29">
    <path clip-path="url(#pe39c7a9901)" d="M 29.014786 87.400971 
L 29.625958 87.400971 
L 29.625958 87.114146 
L 29.014786 87.114146 
z
" style="fill:#1d1d1d;"/>
   </g>
   <g id="patch_30">
    <path clip-path="url(#pe39c7a9901)" d="M 29.524096 87.400971 
L 30.135268 87.400971 
L 30.135268 87.113896 
L 29.524096 87.113896 
z
" style="fill:#1d1d1d;"/>
   </g>
   <g id="patch_31">
    <path clip-path="url(#pe39c7a9901)" d="M 30.033406 87.400971 
L 30.644578 87.400971 
L 30.644578 87.11088 
L 30.033406 87.11088 
z
" style="fill:#1d1d1d;"/>
   </g>
   <g id="patch_32">
    <path clip-path="url(#pe39c7a9901)" d="M 30.542716 87.400971 
L 31.153888 87.400971 
L 31.153888 87.109422 
L 30.542716 87.109422 
z
" style="fill:#1d1d1d;"/>
   </g>
   <g id="patch_33">
    <path clip-path="url(#pe39c7a9901)" d="M 31.052026 87.400971 
L 31.663198 87.400971 
L 31.663198 87.107218 
L 31.052026 87.107218 
z
" style="fill:#1d1d1d;"/>
   </g>
   <g id="patch_34">
    <path clip-path="url(#pe39c7a9901)" d="M 31.561336 87.400971 
L 32.172508 87.400971 
L 32.172508 87.104873 
L 31.561336 87.104873 
z
" style="fill:#1d1d1d;"/>
   </g>
   <g id="patch_35">
    <path clip-path="url(#pe39c7a9901)" d="M 32.070646 87.400971 
L 32.681818 87.400971 
L 32.681818 87.100855 
L 32.070646 87.100855 
z
" style="fill:#1d1d1d;"/>
   </g>
   <g id="patch_36">
    <path clip-path="url(#pe39c7a9901)" d="M 32.579956 87.400971 
L 33.191128 87.400971 
L 33.191128 87.100369 
L 32.579956 87.100369 
z
" style="fill:#1d1d1d;"/>
   </g>
   <g id="patch_37">
    <path clip-path="url(#pe39c7a9901)" d="M 33.089266 87.400971 
L 33.700438 87.400971 
L 33.700438 87.099967 
L 33.089266 87.099967 
z
" style="fill:#1d1d1d;"/>
   </g>
   <g id="patch_38">
    <path clip-path="url(#pe39c7a9901)" d="M 33.598576 87.400971 
L 34.209748 87.400971 
L 34.209748 87.09925 
L 33.598576 87.09925 
z
" style="fill:#1d1d1d;"/>
   </g>
   <g id="patch_39">
    <path clip-path="url(#pe39c7a9901)" d="M 34.107886 87.400971 
L 34.719058 87.400971 
L 34.719058 87.096433 
L 34.107886 87.096433 
z
" style="fill:#1d1d1d;"/>
   </g>
   <g id="patch_40">
    <path clip-path="url(#pe39c7a9901)" d="M 34.617196 87.400971 
L 35.228368 87.400971 
L 35.228368 87.094516 
L 34.617196 87.094516 
z
" style="fill:#1d1d1d;"/>
   </g>
   <g id="patch_41">
    <path clip-path="url(#pe39c7a9901)" d="M 35.126506 87.400971 
L 35.737678 87.400971 
L 35.737678 87.089914 
L 35.126506 87.089914 
z
" style="fill:#1d1d1d;"/>
   </g>
   <g id="patch_42">
    <path clip-path="url(#pe39c7a9901)" d="M 35.635816 87.400971 
L 36.246988 87.400971 
L 36.246988 87.084586 
L 35.635816 87.084586 
z
" style="fill:#1d1d1d;"/>
   </g>
   <g id="patch_43">
    <path clip-path="url(#pe39c7a9901)" d="M 36.145126 87.400971 
L 36.756298 87.400971 
L 36.756298 87.078811 
L 36.145126 87.078811 
z
" style="fill:#1d1d1d;"/>
   </g>
   <g id="patch_44">
    <path clip-path="url(#pe39c7a9901)" d="M 36.654436 87.400971 
L 37.265608 87.400971 
L 37.265608 87.07814 
L 36.654436 87.07814 
z
" style="fill:#1d1d1d;"/>
   </g>
   <g id="patch_45">
    <path clip-path="url(#pe39c7a9901)" d="M 37.163746 87.400971 
L 37.774918 87.400971 
L 37.774918 87.077186 
L 37.163746 87.077186 
z
" style="fill:#1d1d1d;"/>
   </g>
   <g id="patch_46">
    <path clip-path="url(#pe39c7a9901)" d="M 37.673056 87.400971 
L 38.284228 87.400971 
L 38.284228 87.065718 
L 37.673056 87.065718 
z
" style="fill:#1d1d1d;"/>
   </g>
   <g id="patch_47">
    <path clip-path="url(#pe39c7a9901)" d="M 38.182366 87.400971 
L 38.793538 87.400971 
L 38.793538 87.061947 
L 38.182366 87.061947 
z
" style="fill:#1d1d1d;"/>
   </g>
   <g id="patch_48">
    <path clip-path="url(#pe39c7a9901)" d="M 38.691676 87.400971 
L 39.302848 87.400971 
L 39.302848 87.057366 
L 38.691676 87.057366 
z
" style="fill:#1d1d1d;"/>
   </g>
   <g id="patch_49">
    <path clip-path="url(#pe39c7a9901)" d="M 39.200986 87.400971 
L 39.812158 87.400971 
L 39.812158 87.054222 
L 39.200986 87.054222 
z
" style="fill:#1d1d1d;"/>
   </g>
   <g id="patch_50">
    <path clip-path="url(#pe39c7a9901)" d="M 39.710296 87.400971 
L 40.321468 87.400971 
L 40.321468 87.049482 
L 39.710296 87.049482 
z
" style="fill:#1d1d1d;"/>
   </g>
   <g id="patch_51">
    <path clip-path="url(#pe39c7a9901)" d="M 40.219606 87.400971 
L 40.830778 87.400971 
L 40.830778 87.048206 
L 40.219606 87.048206 
z
" style="fill:#1d1d1d;"/>
   </g>
   <g id="patch_52">
    <path clip-path="url(#pe39c7a9901)" d="M 40.728916 87.400971 
L 41.340088 87.400971 
L 41.340088 87.043995 
L 40.728916 87.043995 
z
" style="fill:#1d1d1d;"/>
   </g>
   <g id="patch_53">
    <path clip-path="url(#pe39c7a9901)" d="M 41.238226 87.400971 
L 41.849398 87.400971 
L 41.849398 87.043467 
L 41.238226 87.043467 
z
" style="fill:#1d1d1d;"/>
   </g>
   <g id="patch_54">
    <path clip-path="url(#pe39c7a9901)" d="M 41.747536 87.400971 
L 42.358708 87.400971 
L 42.358708 87.035005 
L 41.747536 87.035005 
z
" style="fill:#1d1d1d;"/>
   </g>
   <g id="patch_55">
    <path clip-path="url(#pe39c7a9901)" d="M 42.256846 87.400971 
L 42.868018 87.400971 
L 42.868018 87.012237 
L 42.256846 87.012237 
z
" style="fill:#1d1d1d;"/>
   </g>
   <g id="patch_56">
    <path clip-path="url(#pe39c7a9901)" d="M 42.766156 87.400971 
L 43.377327 87.400971 
L 43.377327 87.010723 
L 42.766156 87.010723 
z
" style="fill:#1d1d1d;"/>
   </g>
   <g id="patch_57">
    <path clip-path="url(#pe39c7a9901)" d="M 43.275465 87.400971 
L 43.886637 87.400971 
L 43.886637 87.009811 
L 43.275465 87.009811 
z
" style="fill:#1d1d1d;"/>
   </g>
   <g id="patch_58">
    <path clip-path="url(#pe39c7a9901)" d="M 43.784775 87.400971 
L 44.395947 87.400971 
L 44.395947 87.007347 
L 43.784775 87.007347 
z
" style="fill:#1d1d1d;"/>
   </g>
   <g id="patch_59">
    <path clip-path="url(#pe39c7a9901)" d="M 44.294085 87.400971 
L 44.905257 87.400971 
L 44.905257 87.004014 
L 44.294085 87.004014 
z
" style="fill:#1d1d1d;"/>
   </g>
   <g id="patch_60">
    <path clip-path="url(#pe39c7a9901)" d="M 44.803395 87.400971 
L 45.414567 87.400971 
L 45.414567 86.996055 
L 44.803395 86.996055 
z
" style="fill:#1d1d1d;"/>
   </g>
   <g id="patch_61">
    <path clip-path="url(#pe39c7a9901)" d="M 45.312705 87.400971 
L 45.923877 87.400971 
L 45.923877 86.994941 
L 45.312705 86.994941 
z
" style="fill:#1d1d1d;"/>
   </g>
   <g id="patch_62">
    <path clip-path="url(#pe39c7a9901)" d="M 45.822015 87.400971 
L 46.433187 87.400971 
L 46.433187 86.992484 
L 45.822015 86.992484 
z
" style="fill:#1d1d1d;"/>
   </g>
   <g id="patch_63">
    <path clip-path="url(#pe39c7a9901)" d="M 46.331325 87.400971 
L 46.942497 87.400971 
L 46.942497 86.982007 
L 46.331325 86.982007 
z
" style="fill:#1d1d1d;"/>
   </g>
   <g id="patch_64">
    <path clip-path="url(#pe39c7a9901)" d="M 46.840635 87.400971 
L 47.451807 87.400971 
L 47.451807 86.979401 
L 46.840635 86.979401 
z
" style="fill:#1d1d1d;"/>
   </g>
   <g id="patch_65">
    <path clip-path="url(#pe39c7a9901)" d="M 47.349945 87.400971 
L 47.961117 87.400971 
L 47.961117 86.978088 
L 47.349945 86.978088 
z
" style="fill:#1d1d1d;"/>
   </g>
   <g id="patch_66">
    <path clip-path="url(#pe39c7a9901)" d="M 47.859255 87.400971 
L 48.470427 87.400971 
L 48.470427 86.967343 
L 47.859255 86.967343 
z
" style="fill:#1d1d1d;"/>
   </g>
   <g id="patch_67">
    <path clip-path="url(#pe39c7a9901)" d="M 48.368565 87.400971 
L 48.979737 87.400971 
L 48.979737 86.957159 
L 48.368565 86.957159 
z
" style="fill:#1d1d1d;"/>
   </g>
   <g id="patch_68">
    <path clip-path="url(#pe39c7a9901)" d="M 48.877875 87.400971 
L 49.489047 87.400971 
L 49.489047 86.934722 
L 48.877875 86.934722 
z
" style="fill:#1d1d1d;"/>
   </g>
   <g id="patch_69">
    <path clip-path="url(#pe39c7a9901)" d="M 49.387185 87.400971 
L 49.998357 87.400971 
L 49.998357 86.934183 
L 49.387185 86.934183 
z
" style="fill:#1d1d1d;"/>
   </g>
   <g id="patch_70">
    <path clip-path="url(#pe39c7a9901)" d="M 49.896495 87.400971 
L 50.507667 87.400971 
L 50.507667 86.924301 
L 49.896495 86.924301 
z
" style="fill:#1d1d1d;"/>
   </g>
   <g id="patch_71">
    <path clip-path="url(#pe39c7a9901)" d="M 50.405805 87.400971 
L 51.016977 87.400971 
L 51.016977 86.92358 
L 50.405805 86.92358 
z
" style="fill:#1d1d1d;"/>
   </g>
   <g id="patch_72">
    <path clip-path="url(#pe39c7a9901)" d="M 50.915115 87.400971 
L 51.526287 87.400971 
L 51.526287 86.90346 
L 50.915115 86.90346 
z
" style="fill:#1d1d1d;"/>
   </g>
   <g id="patch_73">
    <path clip-path="url(#pe39c7a9901)" d="M 51.424425 87.400971 
L 52.035597 87.400971 
L 52.035597 86.886309 
L 51.424425 86.886309 
z
" style="fill:#1d1d1d;"/>
   </g>
   <g id="patch_74">
    <path clip-path="url(#pe39c7a9901)" d="M 51.933735 87.400971 
L 52.544907 87.400971 
L 52.544907 86.869385 
L 51.933735 86.869385 
z
" style="fill:#1d1d1d;"/>
   </g>
   <g id="patch_75">
    <path clip-path="url(#pe39c7a9901)" d="M 52.443045 87.400971 
L 53.054217 87.400971 
L 53.054217 86.837142 
L 52.443045 86.837142 
z
" style="fill:#1d1d1d;"/>
   </g>
   <g id="patch_76">
    <path clip-path="url(#pe39c7a9901)" d="M 52.952355 87.400971 
L 53.563527 87.400971 
L 53.563527 86.784095 
L 52.952355 86.784095 
z
" style="fill:#1d1d1d;"/>
   </g>
   <g id="patch_77">
    <path clip-path="url(#pe39c7a9901)" d="M 53.461665 87.400971 
L 54.072837 87.400971 
L 54.072837 86.750912 
L 53.461665 86.750912 
z
" style="fill:#1d1d1d;"/>
   </g>
   <g id="patch_78">
    <path clip-path="url(#pe39c7a9901)" d="M 53.970975 87.400971 
L 54.582147 87.400971 
L 54.582147 86.708926 
L 53.970975 86.708926 
z
" style="fill:#1d1d1d;"/>
   </g>
   <g id="patch_79">
    <path clip-path="url(#pe39c7a9901)" d="M 54.480285 87.400971 
L 55.091457 87.400971 
L 55.091457 86.673468 
L 54.480285 86.673468 
z
" style="fill:#1d1d1d;"/>
   </g>
   <g id="patch_80">
    <path clip-path="url(#pe39c7a9901)" d="M 54.989595 87.400971 
L 55.600767 87.400971 
L 55.600767 86.669821 
L 54.989595 86.669821 
z
" style="fill:#1d1d1d;"/>
   </g>
   <g id="patch_81">
    <path clip-path="url(#pe39c7a9901)" d="M 55.498905 87.400971 
L 56.110077 87.400971 
L 56.110077 86.624636 
L 55.498905 86.624636 
z
" style="fill:#1d1d1d;"/>
   </g>
   <g id="patch_82">
    <path clip-path="url(#pe39c7a9901)" d="M 56.008215 87.400971 
L 56.619387 87.400971 
L 56.619387 86.512136 
L 56.008215 86.512136 
z
" style="fill:#1d1d1d;"/>
   </g>
   <g id="patch_83">
    <path clip-path="url(#pe39c7a9901)" d="M 56.517525 87.400971 
L 57.128697 87.400971 
L 57.128697 86.504635 
L 56.517525 86.504635 
z
" style="fill:#1d1d1d;"/>
   </g>
   <g id="patch_84">
    <path clip-path="url(#pe39c7a9901)" d="M 57.026835 87.400971 
L 57.638007 87.400971 
L 57.638007 86.486836 
L 57.026835 86.486836 
z
" style="fill:#1d1d1d;"/>
   </g>
   <g id="patch_85">
    <path clip-path="url(#pe39c7a9901)" d="M 57.536145 87.400971 
L 58.147317 87.400971 
L 58.147317 86.447257 
L 57.536145 86.447257 
z
" style="fill:#1d1d1d;"/>
   </g>
   <g id="patch_86">
    <path clip-path="url(#pe39c7a9901)" d="M 58.045455 87.400971 
L 58.656627 87.400971 
L 58.656627 86.341553 
L 58.045455 86.341553 
z
" style="fill:#1d1d1d;"/>
   </g>
   <g id="patch_87">
    <path clip-path="url(#pe39c7a9901)" d="M 58.554765 87.400971 
L 59.165936 87.400971 
L 59.165936 86.317415 
L 58.554765 86.317415 
z
" style="fill:#1d1d1d;"/>
   </g>
   <g id="patch_88">
    <path clip-path="url(#pe39c7a9901)" d="M 59.064074 87.400971 
L 59.675246 87.400971 
L 59.675246 86.276798 
L 59.064074 86.276798 
z
" style="fill:#1d1d1d;"/>
   </g>
   <g id="patch_89">
    <path clip-path="url(#pe39c7a9901)" d="M 59.573384 87.400971 
L 60.184556 87.400971 
L 60.184556 86.24675 
L 59.573384 86.24675 
z
" style="fill:#1d1d1d;"/>
   </g>
   <g id="patch_90">
    <path clip-path="url(#pe39c7a9901)" d="M 60.082694 87.400971 
L 60.693866 87.400971 
L 60.693866 86.187506 
L 60.082694 86.187506 
z
" style="fill:#1d1d1d;"/>
   </g>
   <g id="patch_91">
    <path clip-path="url(#pe39c7a9901)" d="M 60.592004 87.400971 
L 61.203176 87.400971 
L 61.203176 86.184306 
L 60.592004 86.184306 
z
" style="fill:#1d1d1d;"/>
   </g>
   <g id="patch_92">
    <path clip-path="url(#pe39c7a9901)" d="M 61.101314 87.400971 
L 61.712486 87.400971 
L 61.712486 86.136509 
L 61.101314 86.136509 
z
" style="fill:#1d1d1d;"/>
   </g>
   <g id="patch_93">
    <path clip-path="url(#pe39c7a9901)" d="M 61.610624 87.400971 
L 62.221796 87.400971 
L 62.221796 86.136194 
L 61.610624 86.136194 
z
" style="fill:#1d1d1d;"/>
   </g>
   <g id="patch_94">
    <path clip-path="url(#pe39c7a9901)" d="M 62.119934 87.400971 
L 62.731106 87.400971 
L 62.731106 85.998691 
L 62.119934 85.998691 
z
" style="fill:#1d1d1d;"/>
   </g>
   <g id="patch_95">
    <path clip-path="url(#pe39c7a9901)" d="M 62.629244 87.400971 
L 63.240416 87.400971 
L 63.240416 85.973545 
L 62.629244 85.973545 
z
" style="fill:#1d1d1d;"/>
   </g>
   <g id="patch_96">
    <path clip-path="url(#pe39c7a9901)" d="M 63.138554 87.400971 
L 63.749726 87.400971 
L 63.749726 85.684016 
L 63.138554 85.684016 
z
" style="fill:#1d1d1d;"/>
   </g>
   <g id="patch_97">
    <path clip-path="url(#pe39c7a9901)" d="M 63.647864 87.400971 
L 64.259036 87.400971 
L 64.259036 85.664163 
L 63.647864 85.664163 
z
" style="fill:#1d1d1d;"/>
   </g>
   <g id="patch_98">
    <path clip-path="url(#pe39c7a9901)" d="M 64.157174 87.400971 
L 64.768346 87.400971 
L 64.768346 85.071397 
L 64.157174 85.071397 
z
" style="fill:#1d1d1d;"/>
   </g>
   <g id="patch_99">
    <path clip-path="url(#pe39c7a9901)" d="M 64.666484 87.400971 
L 65.277656 87.400971 
L 65.277656 83.201306 
L 64.666484 83.201306 
z
" style="fill:#1d1d1d;"/>
   </g>
   <g id="patch_100">
    <path clip-path="url(#pe39c7a9901)" d="M 65.175794 87.400971 
L 65.786966 87.400971 
L 65.786966 83.057183 
L 65.175794 83.057183 
z
" style="fill:#1d1d1d;"/>
   </g>
   <g id="patch_101">
    <path clip-path="url(#pe39c7a9901)" d="M 65.685104 87.400971 
L 66.296276 87.400971 
L 66.296276 82.420506 
L 65.685104 82.420506 
z
" style="fill:#1d1d1d;"/>
   </g>
   <g id="patch_102">
    <path clip-path="url(#pe39c7a9901)" d="M 66.194414 87.400971 
L 66.805586 87.400971 
L 66.805586 82.2426 
L 66.194414 82.2426 
z
" style="fill:#1d1d1d;"/>
   </g>
   <g id="patch_103">
    <path clip-path="url(#pe39c7a9901)" d="M 66.194414 87.400971 
L 66.805586 87.400971 
L 66.805586 82.2426 
L 66.194414 82.2426 
z
" style="fill:#1d1d1d;"/>
   </g>
   <g id="patch_104">
    <path clip-path="url(#pe39c7a9901)" d="M 66.703724 87.400971 
L 67.314896 87.400971 
L 67.314896 51.597604 
L 66.703724 51.597604 
z
" style="fill:#1d1d1d;"/>
   </g>
   <g id="patch_105">
    <path clip-path="url(#pe39c7a9901)" d="M 67.213034 87.400971 
L 67.824206 87.400971 
L 67.824206 80.610535 
L 67.213034 80.610535 
z
" style="fill:#1d1d1d;"/>
   </g>
   <g id="patch_106">
    <path clip-path="url(#pe39c7a9901)" d="M 67.722344 87.400971 
L 68.333516 87.400971 
L 68.333516 80.887293 
L 67.722344 80.887293 
z
" style="fill:#1d1d1d;"/>
   </g>
   <g id="patch_107">
    <path clip-path="url(#pe39c7a9901)" d="M 68.231654 87.400971 
L 68.842826 87.400971 
L 68.842826 82.043343 
L 68.231654 82.043343 
z
" style="fill:#1d1d1d;"/>
   </g>
   <g id="patch_108">
    <path clip-path="url(#pe39c7a9901)" d="M 68.740964 87.400971 
L 69.352136 87.400971 
L 69.352136 82.423503 
L 68.740964 82.423503 
z
" style="fill:#1d1d1d;"/>
   </g>
   <g id="patch_109">
    <path clip-path="url(#pe39c7a9901)" d="M 69.250274 87.400971 
L 69.861446 87.400971 
L 69.861446 85.423097 
L 69.250274 85.423097 
z
" style="fill:#1d1d1d;"/>
   </g>
   <g id="patch_110">
    <path clip-path="url(#pe39c7a9901)" d="M 69.759584 87.400971 
L 70.370756 87.400971 
L 70.370756 85.515553 
L 69.759584 85.515553 
z
" style="fill:#1d1d1d;"/>
   </g>
   <g id="patch_111">
    <path clip-path="url(#pe39c7a9901)" d="M 70.268894 87.400971 
L 70.880066 87.400971 
L 70.880066 85.980783 
L 70.268894 85.980783 
z
" style="fill:#1d1d1d;"/>
   </g>
   <g id="patch_112">
    <path clip-path="url(#pe39c7a9901)" d="M 70.778204 87.400971 
L 71.389376 87.400971 
L 71.389376 86.162842 
L 70.778204 86.162842 
z
" style="fill:#1d1d1d;"/>
   </g>
   <g id="patch_113">
    <path clip-path="url(#pe39c7a9901)" d="M 71.287514 87.400971 
L 71.898686 87.400971 
L 71.898686 86.292078 
L 71.287514 86.292078 
z
" style="fill:#1d1d1d;"/>
   </g>
   <g id="patch_114">
    <path clip-path="url(#pe39c7a9901)" d="M 71.796824 87.400971 
L 72.407996 87.400971 
L 72.407996 86.424071 
L 71.796824 86.424071 
z
" style="fill:#1d1d1d;"/>
   </g>
   <g id="patch_115">
    <path clip-path="url(#pe39c7a9901)" d="M 72.306134 87.400971 
L 72.917306 87.400971 
L 72.917306 86.491715 
L 72.306134 86.491715 
z
" style="fill:#1d1d1d;"/>
   </g>
   <g id="patch_116">
    <path clip-path="url(#pe39c7a9901)" d="M 72.815444 87.400971 
L 73.426616 87.400971 
L 73.426616 86.582651 
L 72.815444 86.582651 
z
" style="fill:#1d1d1d;"/>
   </g>
   <g id="patch_117">
    <path clip-path="url(#pe39c7a9901)" d="M 73.324754 87.400971 
L 73.935926 87.400971 
L 73.935926 86.612498 
L 73.324754 86.612498 
z
" style="fill:#1d1d1d;"/>
   </g>
   <g id="patch_118">
    <path clip-path="url(#pe39c7a9901)" d="M 73.834064 87.400971 
L 74.445235 87.400971 
L 74.445235 86.614335 
L 73.834064 86.614335 
z
" style="fill:#1d1d1d;"/>
   </g>
   <g id="patch_119">
    <path clip-path="url(#pe39c7a9901)" d="M 74.343373 87.400971 
L 74.954545 87.400971 
L 74.954545 86.646838 
L 74.343373 86.646838 
z
" style="fill:#1d1d1d;"/>
   </g>
   <g id="patch_120">
    <path clip-path="url(#pe39c7a9901)" d="M 74.852683 87.400971 
L 75.463855 87.400971 
L 75.463855 86.673824 
L 74.852683 86.673824 
z
" style="fill:#1d1d1d;"/>
   </g>
   <g id="patch_121">
    <path clip-path="url(#pe39c7a9901)" d="M 75.361993 87.400971 
L 75.973165 87.400971 
L 75.973165 86.676715 
L 75.361993 86.676715 
z
" style="fill:#1d1d1d;"/>
   </g>
   <g id="patch_122">
    <path clip-path="url(#pe39c7a9901)" d="M 75.871303 87.400971 
L 76.482475 87.400971 
L 76.482475 86.678833 
L 75.871303 86.678833 
z
" style="fill:#1d1d1d;"/>
   </g>
   <g id="patch_123">
    <path clip-path="url(#pe39c7a9901)" d="M 76.380613 87.400971 
L 76.991785 87.400971 
L 76.991785 86.678969 
L 76.380613 86.678969 
z
" style="fill:#1d1d1d;"/>
   </g>
   <g id="patch_124">
    <path clip-path="url(#pe39c7a9901)" d="M 76.889923 87.400971 
L 77.501095 87.400971 
L 77.501095 86.72631 
L 76.889923 86.72631 
z
" style="fill:#1d1d1d;"/>
   </g>
   <g id="patch_125">
    <path clip-path="url(#pe39c7a9901)" d="M 77.399233 87.400971 
L 78.010405 87.400971 
L 78.010405 86.768908 
L 77.399233 86.768908 
z
" style="fill:#1d1d1d;"/>
   </g>
   <g id="patch_126">
    <path clip-path="url(#pe39c7a9901)" d="M 77.908543 87.400971 
L 78.519715 87.400971 
L 78.519715 86.796153 
L 77.908543 86.796153 
z
" style="fill:#1d1d1d;"/>
   </g>
   <g id="patch_127">
    <path clip-path="url(#pe39c7a9901)" d="M 78.417853 87.400971 
L 79.029025 87.400971 
L 79.029025 86.801478 
L 78.417853 86.801478 
z
" style="fill:#1d1d1d;"/>
   </g>
   <g id="patch_128">
    <path clip-path="url(#pe39c7a9901)" d="M 78.927163 87.400971 
L 79.538335 87.400971 
L 79.538335 86.819959 
L 78.927163 86.819959 
z
" style="fill:#1d1d1d;"/>
   </g>
   <g id="patch_129">
    <path clip-path="url(#pe39c7a9901)" d="M 79.436473 87.400971 
L 80.047645 87.400971 
L 80.047645 86.827833 
L 79.436473 86.827833 
z
" style="fill:#1d1d1d;"/>
   </g>
   <g id="patch_130">
    <path clip-path="url(#pe39c7a9901)" d="M 79.945783 87.400971 
L 80.556955 87.400971 
L 80.556955 86.903619 
L 79.945783 86.903619 
z
" style="fill:#1d1d1d;"/>
   </g>
   <g id="patch_131">
    <path clip-path="url(#pe39c7a9901)" d="M 80.455093 87.400971 
L 81.066265 87.400971 
L 81.066265 86.903929 
L 80.455093 86.903929 
z
" style="fill:#1d1d1d;"/>
   </g>
   <g id="patch_132">
    <path clip-path="url(#pe39c7a9901)" d="M 80.964403 87.400971 
L 81.575575 87.400971 
L 81.575575 86.947212 
L 80.964403 86.947212 
z
" style="fill:#1d1d1d;"/>
   </g>
   <g id="patch_133">
    <path clip-path="url(#pe39c7a9901)" d="M 81.473713 87.400971 
L 82.084885 87.400971 
L 82.084885 86.948849 
L 81.473713 86.948849 
z
" style="fill:#1d1d1d;"/>
   </g>
   <g id="patch_134">
    <path clip-path="url(#pe39c7a9901)" d="M 81.983023 87.400971 
L 82.594195 87.400971 
L 82.594195 86.959995 
L 81.983023 86.959995 
z
" style="fill:#1d1d1d;"/>
   </g>
   <g id="patch_135">
    <path clip-path="url(#pe39c7a9901)" d="M 82.492333 87.400971 
L 83.103505 87.400971 
L 83.103505 86.964794 
L 82.492333 86.964794 
z
" style="fill:#1d1d1d;"/>
   </g>
   <g id="patch_136">
    <path clip-path="url(#pe39c7a9901)" d="M 83.001643 87.400971 
L 83.612815 87.400971 
L 83.612815 86.977366 
L 83.001643 86.977366 
z
" style="fill:#1d1d1d;"/>
   </g>
   <g id="patch_137">
    <path clip-path="url(#pe39c7a9901)" d="M 83.510953 87.400971 
L 84.122125 87.400971 
L 84.122125 86.977606 
L 83.510953 86.977606 
z
" style="fill:#1d1d1d;"/>
   </g>
   <g id="patch_138">
    <path clip-path="url(#pe39c7a9901)" d="M 84.020263 87.400971 
L 84.631435 87.400971 
L 84.631435 86.980518 
L 84.020263 86.980518 
z
" style="fill:#1d1d1d;"/>
   </g>
   <g id="patch_139">
    <path clip-path="url(#pe39c7a9901)" d="M 84.529573 87.400971 
L 85.140745 87.400971 
L 85.140745 86.983091 
L 84.529573 86.983091 
z
" style="fill:#1d1d1d;"/>
   </g>
   <g id="patch_140">
    <path clip-path="url(#pe39c7a9901)" d="M 85.038883 87.400971 
L 85.650055 87.400971 
L 85.650055 86.983359 
L 85.038883 86.983359 
z
" style="fill:#1d1d1d;"/>
   </g>
   <g id="patch_141">
    <path clip-path="url(#pe39c7a9901)" d="M 85.548193 87.400971 
L 86.159365 87.400971 
L 86.159365 86.992671 
L 85.548193 86.992671 
z
" style="fill:#1d1d1d;"/>
   </g>
   <g id="patch_142">
    <path clip-path="url(#pe39c7a9901)" d="M 86.057503 87.400971 
L 86.668675 87.400971 
L 86.668675 86.997328 
L 86.057503 86.997328 
z
" style="fill:#1d1d1d;"/>
   </g>
   <g id="patch_143">
    <path clip-path="url(#pe39c7a9901)" d="M 86.566813 87.400971 
L 87.177985 87.400971 
L 87.177985 87.000186 
L 86.566813 87.000186 
z
" style="fill:#1d1d1d;"/>
   </g>
   <g id="patch_144">
    <path clip-path="url(#pe39c7a9901)" d="M 87.076123 87.400971 
L 87.687295 87.400971 
L 87.687295 87.001275 
L 87.076123 87.001275 
z
" style="fill:#1d1d1d;"/>
   </g>
   <g id="patch_145">
    <path clip-path="url(#pe39c7a9901)" d="M 87.585433 87.400971 
L 88.196605 87.400971 
L 88.196605 87.00289 
L 87.585433 87.00289 
z
" style="fill:#1d1d1d;"/>
   </g>
   <g id="patch_146">
    <path clip-path="url(#pe39c7a9901)" d="M 88.094743 87.400971 
L 88.705915 87.400971 
L 88.705915 87.010185 
L 88.094743 87.010185 
z
" style="fill:#1d1d1d;"/>
   </g>
   <g id="patch_147">
    <path clip-path="url(#pe39c7a9901)" d="M 88.604053 87.400971 
L 89.215225 87.400971 
L 89.215225 87.012441 
L 88.604053 87.012441 
z
" style="fill:#1d1d1d;"/>
   </g>
   <g id="patch_148">
    <path clip-path="url(#pe39c7a9901)" d="M 89.113363 87.400971 
L 89.724535 87.400971 
L 89.724535 87.021613 
L 89.113363 87.021613 
z
" style="fill:#1d1d1d;"/>
   </g>
   <g id="patch_149">
    <path clip-path="url(#pe39c7a9901)" d="M 89.622673 87.400971 
L 90.233844 87.400971 
L 90.233844 87.027642 
L 89.622673 87.027642 
z
" style="fill:#1d1d1d;"/>
   </g>
   <g id="patch_150">
    <path clip-path="url(#pe39c7a9901)" d="M 90.131982 87.400971 
L 90.743154 87.400971 
L 90.743154 87.028409 
L 90.131982 87.028409 
z
" style="fill:#1d1d1d;"/>
   </g>
   <g id="patch_151">
    <path clip-path="url(#pe39c7a9901)" d="M 90.641292 87.400971 
L 91.252464 87.400971 
L 91.252464 87.037804 
L 90.641292 87.037804 
z
" style="fill:#1d1d1d;"/>
   </g>
   <g id="patch_152">
    <path clip-path="url(#pe39c7a9901)" d="M 91.150602 87.400971 
L 91.761774 87.400971 
L 91.761774 87.044912 
L 91.150602 87.044912 
z
" style="fill:#1d1d1d;"/>
   </g>
   <g id="patch_153">
    <path clip-path="url(#pe39c7a9901)" d="M 91.659912 87.400971 
L 92.271084 87.400971 
L 92.271084 87.046457 
L 91.659912 87.046457 
z
" style="fill:#1d1d1d;"/>
   </g>
   <g id="patch_154">
    <path clip-path="url(#pe39c7a9901)" d="M 92.169222 87.400971 
L 92.780394 87.400971 
L 92.780394 87.046511 
L 92.169222 87.046511 
z
" style="fill:#1d1d1d;"/>
   </g>
   <g id="patch_155">
    <path clip-path="url(#pe39c7a9901)" d="M 92.678532 87.400971 
L 93.289704 87.400971 
L 93.289704 87.047745 
L 92.678532 87.047745 
z
" style="fill:#1d1d1d;"/>
   </g>
   <g id="patch_156">
    <path clip-path="url(#pe39c7a9901)" d="M 93.187842 87.400971 
L 93.799014 87.400971 
L 93.799014 87.052348 
L 93.187842 87.052348 
z
" style="fill:#1d1d1d;"/>
   </g>
   <g id="patch_157">
    <path clip-path="url(#pe39c7a9901)" d="M 93.697152 87.400971 
L 94.308324 87.400971 
L 94.308324 87.052518 
L 93.697152 87.052518 
z
" style="fill:#1d1d1d;"/>
   </g>
   <g id="patch_158">
    <path clip-path="url(#pe39c7a9901)" d="M 94.206462 87.400971 
L 94.817634 87.400971 
L 94.817634 87.058733 
L 94.206462 87.058733 
z
" style="fill:#1d1d1d;"/>
   </g>
   <g id="patch_159">
    <path clip-path="url(#pe39c7a9901)" d="M 94.715772 87.400971 
L 95.326944 87.400971 
L 95.326944 87.061367 
L 94.715772 87.061367 
z
" style="fill:#1d1d1d;"/>
   </g>
   <g id="patch_160">
    <path clip-path="url(#pe39c7a9901)" d="M 95.225082 87.400971 
L 95.836254 87.400971 
L 95.836254 87.061384 
L 95.225082 87.061384 
z
" style="fill:#1d1d1d;"/>
   </g>
   <g id="patch_161">
    <path clip-path="url(#pe39c7a9901)" d="M 95.734392 87.400971 
L 96.345564 87.400971 
L 96.345564 87.063751 
L 95.734392 87.063751 
z
" style="fill:#1d1d1d;"/>
   </g>
   <g id="patch_162">
    <path clip-path="url(#pe39c7a9901)" d="M 96.243702 87.400971 
L 96.854874 87.400971 
L 96.854874 87.076121 
L 96.243702 87.076121 
z
" style="fill:#1d1d1d;"/>
   </g>
   <g id="patch_163">
    <path clip-path="url(#pe39c7a9901)" d="M 96.753012 87.400971 
L 97.364184 87.400971 
L 97.364184 87.078534 
L 96.753012 87.078534 
z
" style="fill:#1d1d1d;"/>
   </g>
   <g id="patch_164">
    <path clip-path="url(#pe39c7a9901)" d="M 97.262322 87.400971 
L 97.873494 87.400971 
L 97.873494 87.080266 
L 97.262322 87.080266 
z
" style="fill:#1d1d1d;"/>
   </g>
   <g id="patch_165">
    <path clip-path="url(#pe39c7a9901)" d="M 97.771632 87.400971 
L 98.382804 87.400971 
L 98.382804 87.083357 
L 97.771632 87.083357 
z
" style="fill:#1d1d1d;"/>
   </g>
   <g id="patch_166">
    <path clip-path="url(#pe39c7a9901)" d="M 98.280942 87.400971 
L 98.892114 87.400971 
L 98.892114 87.088417 
L 98.280942 87.088417 
z
" style="fill:#1d1d1d;"/>
   </g>
   <g id="patch_167">
    <path clip-path="url(#pe39c7a9901)" d="M 98.790252 87.400971 
L 99.401424 87.400971 
L 99.401424 87.091112 
L 98.790252 87.091112 
z
" style="fill:#1d1d1d;"/>
   </g>
   <g id="patch_168">
    <path clip-path="url(#pe39c7a9901)" d="M 99.299562 87.400971 
L 99.910734 87.400971 
L 99.910734 87.09504 
L 99.299562 87.09504 
z
" style="fill:#1d1d1d;"/>
   </g>
   <g id="patch_169">
    <path clip-path="url(#pe39c7a9901)" d="M 99.808872 87.400971 
L 100.420044 87.400971 
L 100.420044 87.097438 
L 99.808872 87.097438 
z
" style="fill:#1d1d1d;"/>
   </g>
   <g id="patch_170">
    <path clip-path="url(#pe39c7a9901)" d="M 100.318182 87.400971 
L 100.929354 87.400971 
L 100.929354 87.097662 
L 100.318182 87.097662 
z
" style="fill:#1d1d1d;"/>
   </g>
   <g id="patch_171">
    <path clip-path="url(#pe39c7a9901)" d="M 100.827492 87.400971 
L 101.438664 87.400971 
L 101.438664 87.11095 
L 100.827492 87.11095 
z
" style="fill:#1d1d1d;"/>
   </g>
   <g id="patch_172">
    <path clip-path="url(#pe39c7a9901)" d="M 101.336802 87.400971 
L 101.947974 87.400971 
L 101.947974 87.111971 
L 101.336802 87.111971 
z
" style="fill:#1d1d1d;"/>
   </g>
   <g id="patch_173">
    <path clip-path="url(#pe39c7a9901)" d="M 101.846112 87.400971 
L 102.457284 87.400971 
L 102.457284 87.114008 
L 101.846112 87.114008 
z
" style="fill:#1d1d1d;"/>
   </g>
   <g id="patch_174">
    <path clip-path="url(#pe39c7a9901)" d="M 102.355422 87.400971 
L 102.966594 87.400971 
L 102.966594 87.116255 
L 102.355422 87.116255 
z
" style="fill:#1d1d1d;"/>
   </g>
   <g id="patch_175">
    <path clip-path="url(#pe39c7a9901)" d="M 102.864732 87.400971 
L 103.475904 87.400971 
L 103.475904 87.117279 
L 102.864732 87.117279 
z
" style="fill:#1d1d1d;"/>
   </g>
   <g id="patch_176">
    <path clip-path="url(#pe39c7a9901)" d="M 103.374042 87.400971 
L 103.985214 87.400971 
L 103.985214 87.123232 
L 103.374042 87.123232 
z
" style="fill:#1d1d1d;"/>
   </g>
   <g id="patch_177">
    <path clip-path="url(#pe39c7a9901)" d="M 103.883352 87.400971 
L 104.494524 87.400971 
L 104.494524 87.123737 
L 103.883352 87.123737 
z
" style="fill:#1d1d1d;"/>
   </g>
   <g id="patch_178">
    <path clip-path="url(#pe39c7a9901)" d="M 104.392662 87.400971 
L 105.003834 87.400971 
L 105.003834 87.123765 
L 104.392662 87.123765 
z
" style="fill:#1d1d1d;"/>
   </g>
   <g id="patch_179">
    <path clip-path="url(#pe39c7a9901)" d="M 104.901972 87.400971 
L 105.513143 87.400971 
L 105.513143 87.124099 
L 104.901972 87.124099 
z
" style="fill:#1d1d1d;"/>
   </g>
   <g id="patch_180">
    <path clip-path="url(#pe39c7a9901)" d="M 105.411281 87.400971 
L 106.022453 87.400971 
L 106.022453 87.125941 
L 105.411281 87.125941 
z
" style="fill:#1d1d1d;"/>
   </g>
   <g id="patch_181">
    <path clip-path="url(#pe39c7a9901)" d="M 105.920591 87.400971 
L 106.531763 87.400971 
L 106.531763 87.126116 
L 105.920591 87.126116 
z
" style="fill:#1d1d1d;"/>
   </g>
   <g id="patch_182">
    <path clip-path="url(#pe39c7a9901)" d="M 106.429901 87.400971 
L 107.041073 87.400971 
L 107.041073 87.126935 
L 106.429901 87.126935 
z
" style="fill:#1d1d1d;"/>
   </g>
   <g id="patch_183">
    <path clip-path="url(#pe39c7a9901)" d="M 106.939211 87.400971 
L 107.550383 87.400971 
L 107.550383 87.127527 
L 106.939211 87.127527 
z
" style="fill:#1d1d1d;"/>
   </g>
   <g id="patch_184">
    <path clip-path="url(#pe39c7a9901)" d="M 107.448521 87.400971 
L 108.059693 87.400971 
L 108.059693 87.128739 
L 107.448521 87.128739 
z
" style="fill:#1d1d1d;"/>
   </g>
   <g id="patch_185">
    <path clip-path="url(#pe39c7a9901)" d="M 107.957831 87.400971 
L 108.569003 87.400971 
L 108.569003 87.129237 
L 107.957831 87.129237 
z
" style="fill:#1d1d1d;"/>
   </g>
   <g id="patch_186">
    <path clip-path="url(#pe39c7a9901)" d="M 108.467141 87.400971 
L 109.078313 87.400971 
L 109.078313 87.132958 
L 108.467141 87.132958 
z
" style="fill:#1d1d1d;"/>
   </g>
   <g id="patch_187">
    <path clip-path="url(#pe39c7a9901)" d="M 108.976451 87.400971 
L 109.587623 87.400971 
L 109.587623 87.135086 
L 108.976451 87.135086 
z
" style="fill:#1d1d1d;"/>
   </g>
   <g id="patch_188">
    <path clip-path="url(#pe39c7a9901)" d="M 109.485761 87.400971 
L 110.096933 87.400971 
L 110.096933 87.140313 
L 109.485761 87.140313 
z
" style="fill:#1d1d1d;"/>
   </g>
   <g id="patch_189">
    <path clip-path="url(#pe39c7a9901)" d="M 109.995071 87.400971 
L 110.606243 87.400971 
L 110.606243 87.141361 
L 109.995071 87.141361 
z
" style="fill:#1d1d1d;"/>
   </g>
   <g id="patch_190">
    <path clip-path="url(#pe39c7a9901)" d="M 110.504381 87.400971 
L 111.115553 87.400971 
L 111.115553 87.14156 
L 110.504381 87.14156 
z
" style="fill:#1d1d1d;"/>
   </g>
   <g id="patch_191">
    <path clip-path="url(#pe39c7a9901)" d="M 111.013691 87.400971 
L 111.624863 87.400971 
L 111.624863 87.141854 
L 111.013691 87.141854 
z
" style="fill:#1d1d1d;"/>
   </g>
   <g id="patch_192">
    <path clip-path="url(#pe39c7a9901)" d="M 111.523001 87.400971 
L 112.134173 87.400971 
L 112.134173 87.14395 
L 111.523001 87.14395 
z
" style="fill:#1d1d1d;"/>
   </g>
   <g id="patch_193">
    <path clip-path="url(#pe39c7a9901)" d="M 112.032311 87.400971 
L 112.643483 87.400971 
L 112.643483 87.145342 
L 112.032311 87.145342 
z
" style="fill:#1d1d1d;"/>
   </g>
   <g id="patch_194">
    <path clip-path="url(#pe39c7a9901)" d="M 112.541621 87.400971 
L 113.152793 87.400971 
L 113.152793 87.145549 
L 112.541621 87.145549 
z
" style="fill:#1d1d1d;"/>
   </g>
   <g id="patch_195">
    <path clip-path="url(#pe39c7a9901)" d="M 113.050931 87.400971 
L 113.662103 87.400971 
L 113.662103 87.14721 
L 113.050931 87.14721 
z
" style="fill:#1d1d1d;"/>
   </g>
   <g id="patch_196">
    <path clip-path="url(#pe39c7a9901)" d="M 113.560241 87.400971 
L 114.171413 87.400971 
L 114.171413 87.147602 
L 113.560241 87.147602 
z
" style="fill:#1d1d1d;"/>
   </g>
   <g id="patch_197">
    <path clip-path="url(#pe39c7a9901)" d="M 114.069551 87.400971 
L 114.680723 87.400971 
L 114.680723 87.14946 
L 114.069551 87.14946 
z
" style="fill:#1d1d1d;"/>
   </g>
   <g id="patch_198">
    <path clip-path="url(#pe39c7a9901)" d="M 114.578861 87.400971 
L 115.190033 87.400971 
L 115.190033 87.151968 
L 114.578861 87.151968 
z
" style="fill:#1d1d1d;"/>
   </g>
   <g id="patch_199">
    <path clip-path="url(#pe39c7a9901)" d="M 115.088171 87.400971 
L 115.699343 87.400971 
L 115.699343 87.154776 
L 115.088171 87.154776 
z
" style="fill:#1d1d1d;"/>
   </g>
   <g id="patch_200">
    <path clip-path="url(#pe39c7a9901)" d="M 115.597481 87.400971 
L 116.208653 87.400971 
L 116.208653 87.155425 
L 115.597481 87.155425 
z
" style="fill:#1d1d1d;"/>
   </g>
   <g id="patch_201">
    <path clip-path="url(#pe39c7a9901)" d="M 116.106791 87.400971 
L 116.717963 87.400971 
L 116.717963 87.156227 
L 116.106791 87.156227 
z
" style="fill:#1d1d1d;"/>
   </g>
   <g id="patch_202">
    <path clip-path="url(#pe39c7a9901)" d="M 116.616101 87.400971 
L 117.227273 87.400971 
L 117.227273 87.157395 
L 116.616101 87.157395 
z
" style="fill:#1d1d1d;"/>
   </g>
   <g id="matplotlib.axis_1"/>
   <g id="matplotlib.axis_2"/>
   <g id="patch_203">
    <path d="M 10.7 93.86 
L 10.7 10.7 
" style="fill:none;stroke:#000000;stroke-linecap:square;stroke-linejoin:miter;stroke-width:0.8;"/>
   </g>
   <g id="patch_204">
    <path d="M 122.3 93.86 
L 122.3 10.7 
" style="fill:none;stroke:#000000;stroke-linecap:square;stroke-linejoin:miter;stroke-width:0.8;"/>
   </g>
   <g id="patch_205">
    <path d="M 10.7 93.86 
L 122.3 93.86 
" style="fill:none;stroke:#000000;stroke-linecap:square;stroke-linejoin:miter;stroke-width:0.8;"/>
   </g>
   <g id="patch_206">
    <path d="M 10.7 10.7 
L 122.3 10.7 
" style="fill:none;stroke:#000000;stroke-linecap:square;stroke-linejoin:miter;stroke-width:0.8;"/>
   </g>
  </g>
 </g>
 <defs>
  <clipPath id="pe39c7a9901">
   <rect height="83.16" width="111.6" x="10.7" y="10.7"/>
  </clipPath>
 </defs>
</svg>
