<?xml version="1.0" encoding="utf-8" standalone="no"?>
<!DOCTYPE svg PUBLIC "-//W3C//DTD SVG 1.1//EN"
  "http://www.w3.org/Graphics/SVG/1.1/DTD/svg11.dtd">
<!-- Created with matplotlib (http://matplotlib.org/) -->
<svg height="165pt" version="1.1" viewBox="0 0 313 165" width="313pt" xmlns="http://www.w3.org/2000/svg" xmlns:xlink="http://www.w3.org/1999/xlink">
 <defs>
  <style type="text/css">
*{stroke-linecap:butt;stroke-linejoin:round;}
  </style>
 </defs>
 <g id="figure_1">
  <g id="patch_1">
   <path d="M 0 165.322293 
L 313.038095 165.322293 
L 313.038095 0 
L 0 0 
z
" style="fill:#ffffff;"/>
  </g>
  <g id="axes_1">
   <g id="patch_2">
    <path d="M 23.338095 149.3 
L 302.338095 149.3 
L 302.338095 10.7 
L 23.338095 10.7 
z
" style="fill:#ffffff;"/>
   </g>
   <g id="patch_3">
    <path clip-path="url(#p1cf4047e07)" d="M 46.047398 149.3 
L 46.047398 10.7 
L 91.466002 10.7 
L 91.466002 149.3 
z
" style="fill:#fee7dc;stroke:#fee7dc;stroke-linejoin:miter;"/>
   </g>
   <g id="patch_4">
    <path clip-path="url(#p1cf4047e07)" d="M 136.884607 149.3 
L 136.884607 10.7 
L 182.303212 10.7 
L 182.303212 149.3 
z
" style="fill:#fdd4c2;stroke:#fdd4c2;stroke-linejoin:miter;"/>
   </g>
   <g id="patch_5">
    <path clip-path="url(#p1cf4047e07)" d="M 227.721816 149.3 
L 227.721816 10.7 
L 273.140421 10.7 
L 273.140421 149.3 
z
" style="fill:#fcbba1;stroke:#fcbba1;stroke-linejoin:miter;"/>
   </g>
   <g id="line2d_1">
    <path clip-path="url(#p1cf4047e07)" d="M 0.628793 146.78 
L 41.721816 146.696104 
L 42.803212 146.554911 
L 43.884607 146.291126 
L 48.210188 144.824823 
L 50.372979 144.624771 
L 57.942747 144.599734 
L 87.140421 144.683629 
L 88.221816 144.824823 
L 89.303212 145.088608 
L 93.628793 146.554911 
L 95.791584 146.754963 
L 103.361351 146.78 
L 129.31484 146.756812 
L 130.396235 146.654711 
L 131.47763 146.250895 
L 132.559026 145.007054 
L 133.640421 142.023234 
L 134.721816 136.448724 
L 135.803212 128.337861 
L 136.884607 119.147048 
L 137.966002 111.036185 
L 139.047398 105.461675 
L 140.128793 102.477855 
L 141.210188 101.234014 
L 142.291584 100.830198 
L 144.454374 100.707993 
L 174.733444 100.728097 
L 175.81484 100.830198 
L 176.896235 101.234014 
L 177.97763 102.477855 
L 179.059026 105.461675 
L 180.140421 111.036185 
L 181.221816 119.147048 
L 182.303212 128.337861 
L 183.384607 136.448724 
L 184.466002 142.023234 
L 185.547398 145.007054 
L 186.628793 146.250895 
L 187.710188 146.654711 
L 189.872979 146.776917 
L 219.070654 146.773917 
L 220.152049 146.734253 
L 221.233444 146.532821 
L 222.31484 145.73614 
L 223.396235 143.282192 
L 224.47763 137.395477 
L 225.559026 126.397646 
L 226.640421 110.395895 
L 227.721816 92.263537 
L 228.803212 76.261786 
L 229.884607 65.263955 
L 230.966002 59.37724 
L 232.047398 56.923292 
L 233.128793 56.126612 
L 234.210188 55.925179 
L 237.454374 55.879432 
L 265.570654 55.925179 
L 266.652049 56.126612 
L 267.733444 56.923292 
L 268.81484 59.37724 
L 269.896235 65.263955 
L 270.97763 76.261786 
L 272.059026 92.263537 
L 273.140421 110.395895 
L 274.221816 126.397646 
L 275.303212 137.395477 
L 276.384607 143.282192 
L 277.466002 145.73614 
L 278.547398 146.532821 
L 279.628793 146.734253 
L 282.872979 146.78 
L 314.038095 146.78 
L 314.038095 146.78 
" style="fill:none;stroke:#cccccc;stroke-linecap:square;stroke-width:1.75;"/>
   </g>
   <g id="line2d_2">
    <path clip-path="url(#p1cf4047e07)" d="M 0.628793 146.78 
L 38.47763 146.750675 
L 39.559026 146.62155 
L 40.640421 146.110852 
L 41.721816 144.53779 
L 42.803212 140.764213 
L 43.884607 133.714242 
L 44.966002 123.456594 
L 46.047398 111.833157 
L 47.128793 101.575509 
L 48.210188 94.525538 
L 49.291584 90.751961 
L 50.372979 89.1789 
L 51.454374 88.668201 
L 53.617165 88.51365 
L 82.81484 88.51365 
L 84.97763 88.668201 
L 86.059026 89.1789 
L 87.140421 90.751961 
L 88.221816 94.525538 
L 89.303212 101.575509 
L 90.384607 111.833157 
L 91.466002 123.456594 
L 92.547398 133.714242 
L 93.628793 140.764213 
L 94.710188 144.53779 
L 95.791584 146.110852 
L 96.872979 146.62155 
L 99.03577 146.776101 
L 128.233444 146.773357 
L 129.31484 146.730037 
L 130.396235 146.510044 
L 131.47763 145.639952 
L 132.559026 142.95988 
L 133.640421 136.530723 
L 134.721816 124.519475 
L 135.803212 107.043213 
L 136.884607 87.240013 
L 137.966002 69.76375 
L 139.047398 57.752503 
L 140.128793 51.323345 
L 141.210188 48.643273 
L 142.291584 47.773182 
L 143.372979 47.553188 
L 146.617165 47.503225 
L 174.733444 47.553188 
L 175.81484 47.773182 
L 176.896235 48.643273 
L 177.97763 51.323345 
L 179.059026 57.752503 
L 180.140421 69.76375 
L 181.221816 87.240013 
L 182.303212 107.043213 
L 183.384607 124.519475 
L 184.466002 136.530723 
L 185.547398 142.95988 
L 186.628793 145.639952 
L 187.710188 146.510044 
L 188.791584 146.730037 
L 192.03577 146.78 
L 220.152049 146.729342 
L 221.233444 146.506285 
L 222.31484 145.624078 
L 223.396235 142.90669 
L 224.47763 136.388014 
L 225.559026 124.209525 
L 226.640421 106.489928 
L 227.721816 86.410994 
L 228.803212 68.691397 
L 229.884607 56.512907 
L 230.966002 49.994232 
L 232.047398 47.276844 
L 233.128793 46.394637 
L 234.210188 46.17158 
L 237.454374 46.120922 
L 265.570654 46.17158 
L 266.652049 46.394637 
L 267.733444 47.276844 
L 268.81484 49.994232 
L 269.896235 56.512907 
L 270.97763 68.691397 
L 272.059026 86.410994 
L 273.140421 106.489928 
L 274.221816 124.209525 
L 275.303212 136.388014 
L 276.384607 142.90669 
L 277.466002 145.624078 
L 278.547398 146.506285 
L 279.628793 146.729342 
L 282.872979 146.78 
L 314.038095 146.78 
L 314.038095 146.78 
" style="fill:none;stroke:#cccccc;stroke-linecap:square;stroke-width:1.75;"/>
   </g>
   <g id="line2d_3">
    <path clip-path="url(#p1cf4047e07)" d="M 0.628793 146.78 
L 41.721816 146.712643 
L 43.884607 146.387499 
L 48.210188 145.210253 
L 50.372979 145.049638 
L 59.024142 145.029536 
L 87.140421 145.096893 
L 89.303212 145.422037 
L 93.628793 146.599283 
L 95.791584 146.759898 
L 104.442747 146.78 
L 130.396235 146.674032 
L 131.47763 146.33249 
L 132.559026 145.280465 
L 133.640421 142.756788 
L 134.721816 138.041939 
L 135.803212 131.181873 
L 136.884607 123.408401 
L 137.966002 116.548336 
L 139.047398 111.833486 
L 140.128793 109.309809 
L 141.210188 108.257784 
L 142.291584 107.916242 
L 144.454374 107.812882 
L 174.733444 107.829886 
L 175.81484 107.916242 
L 176.896235 108.257784 
L 177.97763 109.309809 
L 179.059026 111.833486 
L 180.140421 116.548336 
L 181.221816 123.408401 
L 182.303212 131.181873 
L 183.384607 138.041939 
L 184.466002 142.756788 
L 185.547398 145.280465 
L 186.628793 146.33249 
L 187.710188 146.674032 
L 189.872979 146.777392 
L 219.070654 146.774113 
L 220.152049 146.735723 
L 221.233444 146.540763 
L 222.31484 145.769684 
L 223.396235 143.394591 
L 224.47763 137.69704 
L 225.559026 127.052614 
L 226.640421 111.565064 
L 227.721816 94.015372 
L 228.803212 78.527823 
L 229.884607 67.883396 
L 230.966002 62.185845 
L 232.047398 59.810753 
L 233.128793 59.039673 
L 234.210188 58.844713 
L 238.53577 58.800436 
L 265.570654 58.844713 
L 266.652049 59.039673 
L 267.733444 59.810753 
L 268.81484 62.185845 
L 269.896235 67.883396 
L 270.97763 78.527823 
L 272.059026 94.015372 
L 273.140421 111.565064 
L 274.221816 127.052614 
L 275.303212 137.69704 
L 276.384607 143.394591 
L 277.466002 145.769684 
L 278.547398 146.540763 
L 279.628793 146.735723 
L 283.954374 146.78 
L 314.038095 146.78 
L 314.038095 146.78 
" style="fill:none;stroke:#cccccc;stroke-linecap:square;stroke-width:1.75;"/>
   </g>
   <g id="line2d_4">
    <path clip-path="url(#p1cf4047e07)" d="M 0.628793 146.78 
L 41.721816 146.719643 
L 43.884607 146.428288 
L 48.210188 145.373384 
L 50.372979 145.22946 
L 60.105537 145.211447 
L 87.140421 145.271804 
L 89.303212 145.563159 
L 93.628793 146.618063 
L 95.791584 146.761987 
L 105.524142 146.78 
L 130.396235 146.683745 
L 131.47763 146.373508 
L 132.559026 145.417909 
L 133.640421 143.125547 
L 134.721816 138.842851 
L 135.803212 132.611566 
L 136.884607 125.550594 
L 137.966002 119.319308 
L 139.047398 115.036612 
L 140.128793 112.74425 
L 141.210188 111.788652 
L 142.291584 111.478414 
L 144.454374 111.384528 
L 174.733444 111.399974 
L 175.81484 111.478414 
L 176.896235 111.788652 
L 177.97763 112.74425 
L 179.059026 115.036612 
L 180.140421 119.319308 
L 181.221816 125.550594 
L 182.303212 132.611566 
L 183.384607 138.842851 
L 184.466002 143.125547 
L 185.547398 145.417909 
L 186.628793 146.373508 
L 187.710188 146.683745 
L 189.872979 146.777631 
L 220.152049 146.736637 
L 221.233444 146.545703 
L 222.31484 145.790546 
L 223.396235 143.464497 
L 224.47763 137.884595 
L 225.559026 127.459965 
L 226.640421 112.292219 
L 227.721816 95.104911 
L 228.803212 79.937165 
L 229.884607 69.512536 
L 230.966002 63.932634 
L 232.047398 61.606585 
L 233.128793 60.851427 
L 234.210188 60.660494 
L 238.53577 60.617131 
L 265.570654 60.660494 
L 266.652049 60.851427 
L 267.733444 61.606585 
L 268.81484 63.932634 
L 269.896235 69.512536 
L 270.97763 79.937165 
L 272.059026 95.104911 
L 273.140421 112.292219 
L 274.221816 127.459965 
L 275.303212 137.884595 
L 276.384607 143.464497 
L 277.466002 145.790546 
L 278.547398 146.545703 
L 279.628793 146.736637 
L 283.954374 146.78 
L 314.038095 146.78 
L 314.038095 146.78 
" style="fill:none;stroke:#cccccc;stroke-linecap:square;stroke-width:1.75;"/>
   </g>
   <g id="line2d_5">
    <path clip-path="url(#p1cf4047e07)" d="M 0.628793 146.78 
L 39.559026 146.74637 
L 40.640421 146.637977 
L 41.721816 146.304104 
L 42.803212 145.503185 
L 43.884607 144.00687 
L 44.966002 141.829745 
L 46.047398 139.36274 
L 47.128793 137.185615 
L 48.210188 135.6893 
L 49.291584 134.888381 
L 50.372979 134.554508 
L 52.53577 134.418709 
L 75.245072 134.412485 
L 84.97763 134.446115 
L 86.059026 134.554508 
L 87.140421 134.888381 
L 88.221816 135.6893 
L 89.303212 137.185615 
L 90.384607 139.36274 
L 91.466002 141.829745 
L 92.547398 144.00687 
L 93.628793 145.503185 
L 94.710188 146.304104 
L 95.791584 146.637977 
L 97.954374 146.773776 
L 120.663677 146.78 
L 129.31484 146.73607 
L 130.396235 146.542638 
L 131.47763 145.777598 
L 132.559026 143.421112 
L 133.640421 137.768194 
L 134.721816 127.207154 
L 135.803212 111.840932 
L 136.884607 94.42872 
L 137.966002 79.062498 
L 139.047398 68.501458 
L 140.128793 62.84854 
L 141.210188 60.492054 
L 142.291584 59.727014 
L 143.372979 59.533582 
L 147.698561 59.489652 
L 174.733444 59.533582 
L 175.81484 59.727014 
L 176.896235 60.492054 
L 177.97763 62.84854 
L 179.059026 68.501458 
L 180.140421 79.062498 
L 181.221816 94.42872 
L 182.303212 111.840932 
L 183.384607 127.207154 
L 184.466002 137.768194 
L 185.547398 143.421112 
L 186.628793 145.777598 
L 187.710188 146.542638 
L 188.791584 146.73607 
L 193.117165 146.78 
L 220.152049 146.729978 
L 221.233444 146.509721 
L 222.31484 145.638588 
L 223.396235 142.95531 
L 224.47763 136.51846 
L 225.559026 124.492841 
L 226.640421 106.995669 
L 227.721816 87.168776 
L 228.803212 69.671604 
L 229.884607 57.645985 
L 230.966002 51.209135 
L 232.047398 48.525857 
L 233.128793 47.654724 
L 234.210188 47.434467 
L 237.454374 47.384445 
L 265.570654 47.434467 
L 266.652049 47.654724 
L 267.733444 48.525857 
L 268.81484 51.209135 
L 269.896235 57.645985 
L 270.97763 69.671604 
L 272.059026 87.168776 
L 273.140421 106.995669 
L 274.221816 124.492841 
L 275.303212 136.51846 
L 276.384607 142.95531 
L 277.466002 145.638588 
L 278.547398 146.509721 
L 279.628793 146.729978 
L 282.872979 146.78 
L 314.038095 146.78 
L 314.038095 146.78 
" style="fill:none;stroke:#cccccc;stroke-linecap:square;stroke-width:1.75;"/>
   </g>
   <g id="line2d_6">
    <path clip-path="url(#p1cf4047e07)" d="M 0.628793 146.78 
L 40.640421 146.739454 
L 41.721816 146.644138 
L 42.803212 146.415487 
L 43.884607 145.98831 
L 48.210188 143.61376 
L 49.291584 143.385109 
L 51.454374 143.258849 
L 67.675305 143.249248 
L 86.059026 143.289793 
L 87.140421 143.385109 
L 88.221816 143.61376 
L 89.303212 144.040937 
L 93.628793 146.415487 
L 94.710188 146.644138 
L 96.872979 146.770399 
L 113.093909 146.78 
L 129.31484 146.749408 
L 130.396235 146.614705 
L 131.47763 146.081946 
L 132.559026 144.440932 
L 133.640421 140.504345 
L 134.721816 133.149833 
L 135.803212 122.44908 
L 136.884607 110.323538 
L 137.966002 99.622785 
L 139.047398 92.268272 
L 140.128793 88.331685 
L 141.210188 86.690671 
L 142.291584 86.157912 
L 144.454374 85.996685 
L 173.652049 85.996685 
L 175.81484 86.157912 
L 176.896235 86.690671 
L 177.97763 88.331685 
L 179.059026 92.268272 
L 180.140421 99.622785 
L 181.221816 110.323538 
L 182.303212 122.44908 
L 183.384607 133.149833 
L 184.466002 140.504345 
L 185.547398 144.440932 
L 186.628793 146.081946 
L 187.710188 146.614705 
L 189.872979 146.775932 
L 217.989258 146.78 
L 220.152049 146.732152 
L 221.233444 146.521471 
L 222.31484 145.688209 
L 223.396235 143.121583 
L 224.47763 136.964566 
L 225.559026 125.461743 
L 226.640421 108.725236 
L 227.721816 89.760289 
L 228.803212 73.023781 
L 229.884607 61.520959 
L 230.966002 55.363942 
L 232.047398 52.797316 
L 233.128793 51.964054 
L 234.210188 51.753372 
L 237.454374 51.705525 
L 265.570654 51.753372 
L 266.652049 51.964054 
L 267.733444 52.797316 
L 268.81484 55.363942 
L 269.896235 61.520959 
L 270.97763 73.023781 
L 272.059026 89.760289 
L 273.140421 108.725236 
L 274.221816 125.461743 
L 275.303212 136.964566 
L 276.384607 143.121583 
L 277.466002 145.688209 
L 278.547398 146.521471 
L 279.628793 146.732152 
L 282.872979 146.78 
L 314.038095 146.78 
L 314.038095 146.78 
" style="fill:none;stroke:#cccccc;stroke-linecap:square;stroke-width:1.75;"/>
   </g>
   <g id="line2d_7">
    <path clip-path="url(#p1cf4047e07)" d="M 0.628793 146.78 
L 40.640421 146.681013 
L 41.721816 146.448309 
L 42.803212 145.890081 
L 43.884607 144.847175 
L 44.966002 143.329755 
L 47.128793 140.092873 
L 48.210188 139.049967 
L 49.291584 138.49174 
L 50.372979 138.259036 
L 52.53577 138.164386 
L 83.896235 138.164386 
L 86.059026 138.259036 
L 87.140421 138.49174 
L 88.221816 139.049967 
L 89.303212 140.092873 
L 90.384607 141.610293 
L 92.547398 144.847175 
L 93.628793 145.890081 
L 94.710188 146.448309 
L 95.791584 146.681013 
L 97.954374 146.775662 
L 128.233444 146.77454 
L 129.31484 146.738934 
L 130.396235 146.558114 
L 131.47763 145.842955 
L 132.559026 143.640112 
L 133.640421 138.355767 
L 134.721816 128.48331 
L 135.803212 114.118971 
L 136.884607 97.842041 
L 137.966002 83.477701 
L 139.047398 73.605245 
L 140.128793 68.320899 
L 141.210188 66.118056 
L 142.291584 65.402898 
L 143.372979 65.222078 
L 147.698561 65.181012 
L 174.733444 65.222078 
L 175.81484 65.402898 
L 176.896235 66.118056 
L 177.97763 68.320899 
L 179.059026 73.605245 
L 180.140421 83.477701 
L 181.221816 97.842041 
L 182.303212 114.118971 
L 183.384607 128.48331 
L 184.466002 138.355767 
L 185.547398 143.640112 
L 186.628793 145.842955 
L 187.710188 146.558114 
L 188.791584 146.738934 
L 193.117165 146.78 
L 220.152049 146.730338 
L 221.233444 146.511668 
L 222.31484 145.646813 
L 223.396235 142.982869 
L 224.47763 136.592401 
L 225.559026 124.653435 
L 226.640421 107.282342 
L 227.721816 87.598315 
L 228.803212 70.227222 
L 229.884607 58.288256 
L 230.966002 51.897788 
L 232.047398 49.233845 
L 233.128793 48.368989 
L 234.210188 48.150319 
L 237.454374 48.100658 
L 265.570654 48.150319 
L 266.652049 48.368989 
L 267.733444 49.233845 
L 268.81484 51.897788 
L 269.896235 58.288256 
L 270.97763 70.227222 
L 272.059026 87.598315 
L 273.140421 107.282342 
L 274.221816 124.653435 
L 275.303212 136.592401 
L 276.384607 142.982869 
L 277.466002 145.646813 
L 278.547398 146.511668 
L 279.628793 146.730338 
L 282.872979 146.78 
L 314.038095 146.78 
L 314.038095 146.78 
" style="fill:none;stroke:#cccccc;stroke-linecap:square;stroke-width:1.75;"/>
   </g>
   <g id="line2d_8">
    <path clip-path="url(#p1cf4047e07)" d="M 0.628793 146.78 
L 41.721816 146.736289 
L 43.884607 146.525286 
L 48.210188 145.761309 
L 51.454374 145.647122 
L 86.059026 145.657078 
L 88.221816 145.761309 
L 90.384607 146.098718 
L 92.547398 146.525286 
L 94.710188 146.736289 
L 100.117165 146.78 
L 130.396235 146.711865 
L 131.47763 146.49226 
L 132.559026 145.815831 
L 133.640421 144.19316 
L 134.721816 141.161611 
L 135.803212 136.750734 
L 136.884607 131.752555 
L 137.966002 127.341678 
L 139.047398 124.31013 
L 140.128793 122.687459 
L 141.210188 122.011029 
L 142.291584 121.791424 
L 145.53577 121.723289 
L 175.81484 121.791424 
L 176.896235 122.011029 
L 177.97763 122.687459 
L 179.059026 124.31013 
L 180.140421 127.341678 
L 181.221816 131.752555 
L 182.303212 136.750734 
L 183.384607 141.161611 
L 184.466002 144.19316 
L 185.547398 145.815831 
L 186.628793 146.49226 
L 187.710188 146.711865 
L 190.954374 146.78 
L 220.152049 146.740346 
L 221.233444 146.565744 
L 222.31484 145.87518 
L 223.396235 143.748093 
L 224.47763 138.645476 
L 225.559026 129.112533 
L 226.640421 115.242182 
L 227.721816 99.525015 
L 228.803212 85.654664 
L 229.884607 76.121721 
L 230.966002 71.019104 
L 232.047398 68.892016 
L 233.128793 68.201452 
L 234.210188 68.02685 
L 238.53577 67.987197 
L 265.570654 68.02685 
L 266.652049 68.201452 
L 267.733444 68.892016 
L 268.81484 71.019104 
L 269.896235 76.121721 
L 270.97763 85.654664 
L 272.059026 99.525015 
L 273.140421 115.242182 
L 274.221816 129.112533 
L 275.303212 138.645476 
L 276.384607 143.748093 
L 277.466002 145.87518 
L 278.547398 146.565744 
L 279.628793 146.740346 
L 283.954374 146.78 
L 314.038095 146.78 
L 314.038095 146.78 
" style="fill:none;stroke:#cccccc;stroke-linecap:square;stroke-width:1.75;"/>
   </g>
   <g id="line2d_9">
    <path clip-path="url(#p1cf4047e07)" d="M 0.628793 146.78 
L 40.640421 146.7232 
L 41.721816 146.589672 
L 42.803212 146.269356 
L 43.884607 145.670927 
L 47.128793 142.942865 
L 48.210188 142.344435 
L 49.291584 142.024119 
L 51.454374 141.847241 
L 63.349723 141.833792 
L 86.059026 141.890592 
L 87.140421 142.024119 
L 88.221816 142.344435 
L 89.303212 142.942865 
L 92.547398 145.670927 
L 93.628793 146.269356 
L 94.710188 146.589672 
L 96.872979 146.76655 
L 108.768328 146.78 
L 129.31484 146.744882 
L 130.396235 146.590252 
L 131.47763 145.978677 
L 132.559026 144.094894 
L 133.640421 139.575933 
L 134.721816 131.133404 
L 135.803212 118.849595 
L 136.884607 104.930217 
L 137.966002 92.646409 
L 139.047398 84.203879 
L 140.128793 79.684918 
L 141.210188 77.801135 
L 142.291584 77.18956 
L 143.372979 77.03493 
L 147.698561 76.999812 
L 174.733444 77.03493 
L 175.81484 77.18956 
L 176.896235 77.801135 
L 177.97763 79.684918 
L 179.059026 84.203879 
L 180.140421 92.646409 
L 181.221816 104.930217 
L 182.303212 118.849595 
L 183.384607 131.133404 
L 184.466002 139.575933 
L 185.547398 144.094894 
L 186.628793 145.978677 
L 187.710188 146.590252 
L 188.791584 146.744882 
L 193.117165 146.78 
L 220.152049 146.731252 
L 221.233444 146.516605 
L 222.31484 145.667659 
L 223.396235 143.052721 
L 224.47763 136.779813 
L 225.559026 125.060477 
L 226.640421 108.008944 
L 227.721816 88.687026 
L 228.803212 71.635493 
L 229.884607 59.916157 
L 230.966002 53.643248 
L 232.047398 51.028311 
L 233.128793 50.179365 
L 234.210188 49.964718 
L 237.454374 49.91597 
L 265.570654 49.964718 
L 266.652049 50.179365 
L 267.733444 51.028311 
L 268.81484 53.643248 
L 269.896235 59.916157 
L 270.97763 71.635493 
L 272.059026 88.687026 
L 273.140421 108.008944 
L 274.221816 125.060477 
L 275.303212 136.779813 
L 276.384607 143.052721 
L 277.466002 145.667659 
L 278.547398 146.516605 
L 279.628793 146.731252 
L 282.872979 146.78 
L 314.038095 146.78 
L 314.038095 146.78 
" style="fill:none;stroke:#cccccc;stroke-linecap:square;stroke-width:1.75;"/>
   </g>
   <g id="line2d_10">
    <path clip-path="url(#p1cf4047e07)" d="M 0.628793 146.78 
L 39.559026 146.737186 
L 40.640421 146.599193 
L 41.721816 146.174145 
L 42.803212 145.154509 
L 43.884607 143.249576 
L 44.966002 140.477916 
L 46.047398 137.337214 
L 47.128793 134.565554 
L 48.210188 132.660621 
L 49.291584 131.640985 
L 50.372979 131.215937 
L 52.53577 131.043054 
L 70.919491 131.03513 
L 84.97763 131.077944 
L 86.059026 131.215937 
L 87.140421 131.640985 
L 88.221816 132.660621 
L 89.303212 134.565554 
L 90.384607 137.337214 
L 91.466002 140.477916 
L 92.547398 143.249576 
L 93.628793 145.154509 
L 94.710188 146.174145 
L 95.791584 146.599193 
L 97.954374 146.772076 
L 116.338095 146.78 
L 129.31484 146.734543 
L 130.396235 146.53439 
L 131.47763 145.742768 
L 132.559026 143.304402 
L 133.640421 137.455066 
L 134.721816 126.527067 
L 135.803212 110.626922 
L 136.884607 92.609697 
L 137.966002 76.709552 
L 139.047398 65.781553 
L 140.128793 59.932216 
L 141.210188 57.49385 
L 142.291584 56.702229 
L 143.372979 56.502075 
L 146.617165 56.456619 
L 174.733444 56.502075 
L 175.81484 56.702229 
L 176.896235 57.49385 
L 177.97763 59.932216 
L 179.059026 65.781553 
L 180.140421 76.709552 
L 181.221816 92.609697 
L 182.303212 110.626922 
L 183.384607 126.527067 
L 184.466002 137.455066 
L 185.547398 143.304402 
L 186.628793 145.742768 
L 187.710188 146.53439 
L 188.791584 146.734543 
L 192.03577 146.78 
L 220.152049 146.729802 
L 221.233444 146.508773 
L 222.31484 145.634587 
L 223.396235 142.941905 
L 224.47763 136.482495 
L 225.559026 124.414729 
L 226.640421 106.856232 
L 227.721816 86.959849 
L 228.803212 69.401353 
L 229.884607 57.333586 
L 230.966002 50.874176 
L 232.047398 48.181494 
L 233.128793 47.307308 
L 234.210188 47.086279 
L 237.454374 47.036081 
L 265.570654 47.086279 
L 266.652049 47.307308 
L 267.733444 48.181494 
L 268.81484 50.874176 
L 269.896235 57.333586 
L 270.97763 69.401353 
L 272.059026 86.959849 
L 273.140421 106.856232 
L 274.221816 124.414729 
L 275.303212 136.482495 
L 276.384607 142.941905 
L 277.466002 145.634587 
L 278.547398 146.508773 
L 279.628793 146.729802 
L 282.872979 146.78 
L 314.038095 146.78 
L 314.038095 146.78 
" style="fill:none;stroke:#cccccc;stroke-linecap:square;stroke-width:1.75;"/>
   </g>
   <g id="line2d_11">
    <path clip-path="url(#p1cf4047e07)" d="M 0.628793 146.78 
L 41.721816 146.728409 
L 43.884607 146.479368 
L 48.210188 145.577671 
L 50.372979 145.454649 
L 61.186933 145.439253 
L 87.140421 145.490844 
L 89.303212 145.739884 
L 93.628793 146.641582 
L 95.791584 146.764603 
L 106.605537 146.78 
L 130.396235 146.697553 
L 131.47763 146.431819 
L 132.559026 145.6133 
L 133.640421 143.649775 
L 134.721816 139.981428 
L 135.803212 134.644015 
L 136.884607 128.595933 
L 137.966002 123.25852 
L 139.047398 119.590173 
L 140.128793 117.626649 
L 141.210188 116.80813 
L 142.291584 116.542396 
L 144.454374 116.461977 
L 174.733444 116.475208 
L 175.81484 116.542396 
L 176.896235 116.80813 
L 177.97763 117.626649 
L 179.059026 119.590173 
L 180.140421 123.25852 
L 181.221816 128.595933 
L 182.303212 134.644015 
L 183.384607 139.981428 
L 184.466002 143.649775 
L 185.547398 145.6133 
L 186.628793 146.431819 
L 187.710188 146.697553 
L 189.872979 146.777971 
L 220.152049 146.738218 
L 221.233444 146.554247 
L 222.31484 145.826627 
L 223.396235 143.585398 
L 224.47763 138.20897 
L 225.559026 128.164479 
L 226.640421 113.549832 
L 227.721816 96.989266 
L 228.803212 82.374619 
L 229.884607 72.330128 
L 230.966002 66.9537 
L 232.047398 64.712471 
L 233.128793 63.984851 
L 234.210188 63.800879 
L 238.53577 63.759098 
L 265.570654 63.800879 
L 266.652049 63.984851 
L 267.733444 64.712471 
L 268.81484 66.9537 
L 269.896235 72.330128 
L 270.97763 82.374619 
L 272.059026 96.989266 
L 273.140421 113.549832 
L 274.221816 128.164479 
L 275.303212 138.20897 
L 276.384607 143.585398 
L 277.466002 145.826627 
L 278.547398 146.554247 
L 279.628793 146.738218 
L 283.954374 146.78 
L 314.038095 146.78 
L 314.038095 146.78 
" style="fill:none;stroke:#cccccc;stroke-linecap:square;stroke-width:1.75;"/>
   </g>
   <g id="line2d_12">
    <path clip-path="url(#p1cf4047e07)" d="M 0.628793 146.78 
L 40.640421 146.68403 
L 41.721816 146.458419 
L 42.803212 145.917208 
L 43.884607 144.906091 
L 44.966002 143.434925 
L 47.128793 140.29671 
L 48.210188 139.285594 
L 49.291584 138.744382 
L 50.372979 138.518771 
L 52.53577 138.427007 
L 83.896235 138.427007 
L 86.059026 138.518771 
L 87.140421 138.744382 
L 88.221816 139.285594 
L 89.303212 140.29671 
L 90.384607 141.767876 
L 92.547398 144.906091 
L 93.628793 145.917208 
L 94.710188 146.458419 
L 95.791584 146.68403 
L 97.954374 146.775794 
L 128.233444 146.774577 
L 129.31484 146.739215 
L 130.396235 146.559632 
L 131.47763 145.849367 
L 132.559026 143.661596 
L 133.640421 138.413408 
L 134.721816 128.6085 
L 135.803212 114.342444 
L 136.884607 98.176885 
L 137.966002 83.910829 
L 139.047398 74.105922 
L 140.128793 68.857733 
L 141.210188 66.669963 
L 142.291584 65.959698 
L 143.372979 65.780115 
L 147.698561 65.73933 
L 174.733444 65.780115 
L 175.81484 65.959698 
L 176.896235 66.669963 
L 177.97763 68.857733 
L 179.059026 74.105922 
L 180.140421 83.910829 
L 181.221816 98.176885 
L 182.303212 114.342444 
L 183.384607 128.6085 
L 184.466002 138.413408 
L 185.547398 143.661596 
L 186.628793 145.849367 
L 187.710188 146.559632 
L 188.791584 146.739215 
L 193.117165 146.78 
L 220.152049 146.730376 
L 221.233444 146.511873 
L 222.31484 145.647675 
L 223.396235 142.985759 
L 224.47763 136.600155 
L 225.559026 124.670275 
L 226.640421 107.312403 
L 227.721816 87.643358 
L 228.803212 70.285485 
L 229.884607 58.355606 
L 230.966002 51.970002 
L 232.047398 49.308086 
L 233.128793 48.443888 
L 234.210188 48.225385 
L 237.454374 48.175761 
L 265.570654 48.225385 
L 266.652049 48.443888 
L 267.733444 49.308086 
L 268.81484 51.970002 
L 269.896235 58.355606 
L 270.97763 70.285485 
L 272.059026 87.643358 
L 273.140421 107.312403 
L 274.221816 124.670275 
L 275.303212 136.600155 
L 276.384607 142.985759 
L 277.466002 145.647675 
L 278.547398 146.511873 
L 279.628793 146.730376 
L 282.872979 146.78 
L 314.038095 146.78 
L 314.038095 146.78 
" style="fill:none;stroke:#cccccc;stroke-linecap:square;stroke-width:1.75;"/>
   </g>
   <g id="line2d_13">
    <path clip-path="url(#p1cf4047e07)" d="M 0.628793 146.78 
L 39.559026 146.744351 
L 40.640421 146.629451 
L 41.721816 146.275534 
L 42.803212 145.426531 
L 43.884607 143.840384 
L 44.966002 141.532555 
L 46.047398 138.917441 
L 47.128793 136.609611 
L 48.210188 135.023465 
L 49.291584 134.174462 
L 50.372979 133.820545 
L 52.53577 133.676593 
L 74.163677 133.669996 
L 84.97763 133.705645 
L 86.059026 133.820545 
L 87.140421 134.174462 
L 88.221816 135.023465 
L 89.303212 136.609611 
L 90.384607 138.917441 
L 91.466002 141.532555 
L 92.547398 143.840384 
L 93.628793 145.426531 
L 94.710188 146.275534 
L 95.791584 146.629451 
L 97.954374 146.773402 
L 119.582281 146.78 
L 129.31484 146.735674 
L 130.396235 146.540502 
L 131.47763 145.768578 
L 132.559026 143.390886 
L 133.640421 137.687099 
L 134.721816 127.031023 
L 135.803212 111.526524 
L 136.884607 93.957624 
L 137.966002 78.453124 
L 139.047398 67.797048 
L 140.128793 62.093261 
L 141.210188 59.715569 
L 142.291584 58.943646 
L 143.372979 58.748473 
L 147.698561 58.704147 
L 174.733444 58.748473 
L 175.81484 58.943646 
L 176.896235 59.715569 
L 177.97763 62.093261 
L 179.059026 67.797048 
L 180.140421 78.453124 
L 181.221816 93.957624 
L 182.303212 111.526524 
L 183.384607 127.031023 
L 184.466002 137.687099 
L 185.547398 143.390886 
L 186.628793 145.768578 
L 187.710188 146.540502 
L 188.791584 146.735674 
L 193.117165 146.78 
L 220.152049 146.729931 
L 221.233444 146.50947 
L 222.31484 145.637528 
L 223.396235 142.951758 
L 224.47763 136.508931 
L 225.559026 124.472146 
L 226.640421 106.958727 
L 227.721816 87.113422 
L 228.803212 69.600003 
L 229.884607 57.563218 
L 230.966002 51.120391 
L 232.047398 48.434621 
L 233.128793 47.562679 
L 234.210188 47.342218 
L 237.454374 47.292149 
L 265.570654 47.342218 
L 266.652049 47.562679 
L 267.733444 48.434621 
L 268.81484 51.120391 
L 269.896235 57.563218 
L 270.97763 69.600003 
L 272.059026 87.113422 
L 273.140421 106.958727 
L 274.221816 124.472146 
L 275.303212 136.508931 
L 276.384607 142.951758 
L 277.466002 145.637528 
L 278.547398 146.50947 
L 279.628793 146.729931 
L 282.872979 146.78 
L 314.038095 146.78 
L 314.038095 146.78 
" style="fill:none;stroke:#cccccc;stroke-linecap:square;stroke-width:1.75;"/>
   </g>
   <g id="line2d_14">
    <path clip-path="url(#p1cf4047e07)" d="M 0.628793 146.78 
L 38.47763 146.74601 
L 39.559026 146.596347 
L 40.640421 146.004418 
L 41.721816 144.181148 
L 42.803212 139.80735 
L 43.884607 131.636019 
L 44.966002 119.746804 
L 46.047398 106.274558 
L 47.128793 94.385343 
L 48.210188 86.214012 
L 49.291584 81.840215 
L 50.372979 80.016944 
L 51.454374 79.425015 
L 52.53577 79.275352 
L 56.861351 79.241362 
L 83.896235 79.275352 
L 84.97763 79.425015 
L 86.059026 80.016944 
L 87.140421 81.840215 
L 88.221816 86.214012 
L 89.303212 94.385343 
L 90.384607 106.274558 
L 91.466002 119.746804 
L 92.547398 131.636019 
L 93.628793 139.80735 
L 94.710188 144.181148 
L 95.791584 146.004418 
L 96.872979 146.596347 
L 97.954374 146.74601 
L 102.279956 146.78 
L 129.31484 146.72979 
L 130.396235 146.508707 
L 131.47763 145.634308 
L 132.559026 142.94097 
L 133.640421 136.479986 
L 134.721816 124.40928 
L 135.803212 106.846507 
L 136.884607 86.945277 
L 137.966002 69.382503 
L 139.047398 57.311797 
L 140.128793 50.850814 
L 141.210188 48.157475 
L 142.291584 47.283076 
L 143.372979 47.061994 
L 146.617165 47.011784 
L 174.733444 47.061994 
L 175.81484 47.283076 
L 176.896235 48.157475 
L 177.97763 50.850814 
L 179.059026 57.311797 
L 180.140421 69.382503 
L 181.221816 86.945277 
L 182.303212 106.846507 
L 183.384607 124.40928 
L 184.466002 136.479986 
L 185.547398 142.94097 
L 186.628793 145.634308 
L 187.710188 146.508707 
L 188.791584 146.72979 
L 192.03577 146.78 
L 220.152049 146.729319 
L 221.233444 146.50616 
L 222.31484 145.623551 
L 223.396235 142.904924 
L 224.47763 136.383276 
L 225.559026 124.199234 
L 226.640421 106.471558 
L 227.721816 86.383469 
L 228.803212 68.655793 
L 229.884607 56.471751 
L 230.966002 49.950103 
L 232.047398 47.231476 
L 233.128793 46.348867 
L 234.210188 46.125708 
L 237.454374 46.075027 
L 265.570654 46.125708 
L 266.652049 46.348867 
L 267.733444 47.231476 
L 268.81484 49.950103 
L 269.896235 56.471751 
L 270.97763 68.655793 
L 272.059026 86.383469 
L 273.140421 106.471558 
L 274.221816 124.199234 
L 275.303212 136.383276 
L 276.384607 142.904924 
L 277.466002 145.623551 
L 278.547398 146.50616 
L 279.628793 146.729319 
L 282.872979 146.78 
L 314.038095 146.78 
L 314.038095 146.78 
" style="fill:none;stroke:#cccccc;stroke-linecap:square;stroke-width:1.75;"/>
   </g>
   <g id="line2d_15">
    <path clip-path="url(#p1cf4047e07)" d="M 0.628793 146.78 
L 41.721816 146.735575 
L 43.884607 146.521125 
L 48.210188 145.744671 
L 51.454374 145.628618 
L 86.059026 145.638737 
L 88.221816 145.744671 
L 90.384607 146.08759 
L 92.547398 146.521125 
L 94.710188 146.735575 
L 99.03577 146.779923 
L 130.396235 146.710483 
L 131.47763 146.486426 
L 132.559026 145.796279 
L 133.640421 144.140703 
L 134.721816 141.04768 
L 135.803212 136.547357 
L 136.884607 131.447824 
L 137.966002 126.947502 
L 139.047398 123.854479 
L 140.128793 122.198902 
L 141.210188 121.508756 
L 142.291584 121.284698 
L 145.53577 121.215181 
L 175.81484 121.284698 
L 176.896235 121.508756 
L 177.97763 122.198902 
L 179.059026 123.854479 
L 180.140421 126.947502 
L 181.221816 131.447824 
L 182.303212 136.547357 
L 183.384607 141.04768 
L 184.466002 144.140703 
L 185.547398 145.796279 
L 186.628793 146.486426 
L 187.710188 146.710483 
L 190.954374 146.78 
L 220.152049 146.740113 
L 221.233444 146.564484 
L 222.31484 145.869859 
L 223.396235 143.730264 
L 224.47763 138.597641 
L 225.559026 129.00864 
L 226.640421 115.056725 
L 227.721816 99.247134 
L 228.803212 85.295219 
L 229.884607 75.706217 
L 230.966002 70.573594 
L 232.047398 68.433999 
L 233.128793 67.739374 
L 234.210188 67.563745 
L 238.53577 67.523858 
L 265.570654 67.563745 
L 266.652049 67.739374 
L 267.733444 68.433999 
L 268.81484 70.573594 
L 269.896235 75.706217 
L 270.97763 85.295219 
L 272.059026 99.247134 
L 273.140421 115.056725 
L 274.221816 129.00864 
L 275.303212 138.597641 
L 276.384607 143.730264 
L 277.466002 145.869859 
L 278.547398 146.564484 
L 279.628793 146.740113 
L 283.954374 146.78 
L 314.038095 146.78 
L 314.038095 146.78 
" style="fill:none;stroke:#cccccc;stroke-linecap:square;stroke-width:1.75;"/>
   </g>
   <g id="line2d_16">
    <path clip-path="url(#p1cf4047e07)" d="M 0.628793 146.78 
L 41.721816 146.717108 
L 43.884607 146.413518 
L 48.210188 145.314311 
L 50.372979 145.164343 
L 60.105537 145.145574 
L 87.140421 145.208466 
L 89.303212 145.512056 
L 93.628793 146.611263 
L 95.791584 146.761231 
L 105.524142 146.78 
L 130.396235 146.680105 
L 131.47763 146.358136 
L 132.559026 145.366401 
L 133.640421 142.987351 
L 134.721816 138.542702 
L 135.803212 132.075776 
L 136.884607 124.747789 
L 137.966002 118.280862 
L 139.047398 113.836213 
L 140.128793 111.457164 
L 141.210188 110.465429 
L 142.291584 110.143459 
L 144.454374 110.046023 
L 174.733444 110.062053 
L 175.81484 110.143459 
L 176.896235 110.465429 
L 177.97763 111.457164 
L 179.059026 113.836213 
L 180.140421 118.280862 
L 181.221816 124.747789 
L 182.303212 132.075776 
L 183.384607 138.542702 
L 184.466002 142.987351 
L 185.547398 145.366401 
L 186.628793 146.358136 
L 187.710188 146.680105 
L 189.872979 146.777542 
L 220.152049 146.736278 
L 221.233444 146.543763 
L 222.31484 145.782351 
L 223.396235 143.437037 
L 224.47763 137.810921 
L 225.559026 127.299952 
L 226.640421 112.006582 
L 227.721816 94.676925 
L 228.803212 79.383555 
L 229.884607 68.872586 
L 230.966002 63.24647 
L 232.047398 60.901156 
L 233.128793 60.139744 
L 234.210188 59.947229 
L 238.53577 59.903507 
L 265.570654 59.947229 
L 266.652049 60.139744 
L 267.733444 60.901156 
L 268.81484 63.24647 
L 269.896235 68.872586 
L 270.97763 79.383555 
L 272.059026 94.676925 
L 273.140421 112.006582 
L 274.221816 127.299952 
L 275.303212 137.810921 
L 276.384607 143.437037 
L 277.466002 145.782351 
L 278.547398 146.543763 
L 279.628793 146.736278 
L 283.954374 146.78 
L 314.038095 146.78 
L 314.038095 146.78 
" style="fill:none;stroke:#cccccc;stroke-linecap:square;stroke-width:1.75;"/>
   </g>
   <g id="line2d_17">
    <path clip-path="url(#p1cf4047e07)" d="M 0.628793 146.78 
L 39.559026 146.749704 
L 40.640421 146.652056 
L 41.721816 146.351281 
L 42.803212 145.629759 
L 43.884607 144.281777 
L 44.966002 142.320476 
L 46.047398 140.09803 
L 47.128793 138.136729 
L 48.210188 136.788747 
L 49.291584 136.067225 
L 50.372979 135.76645 
L 52.53577 135.644113 
L 78.489258 135.638506 
L 84.97763 135.668802 
L 86.059026 135.76645 
L 87.140421 136.067225 
L 88.221816 136.788747 
L 89.303212 138.136729 
L 90.384607 140.09803 
L 91.466002 142.320476 
L 92.547398 144.281777 
L 93.628793 145.629759 
L 94.710188 146.351281 
L 95.791584 146.652056 
L 97.954374 146.774393 
L 123.907863 146.78 
L 129.31484 146.736823 
L 130.396235 146.546706 
L 131.47763 145.794778 
L 132.559026 143.478679 
L 133.640421 137.922644 
L 134.721816 127.542606 
L 135.803212 112.439739 
L 136.884607 95.325949 
L 137.966002 80.223083 
L 139.047398 69.843044 
L 140.128793 64.28701 
L 141.210188 61.970911 
L 142.291584 61.218983 
L 143.372979 61.028866 
L 147.698561 60.985689 
L 174.733444 61.028866 
L 175.81484 61.218983 
L 176.896235 61.970911 
L 177.97763 64.28701 
L 179.059026 69.843044 
L 180.140421 80.223083 
L 181.221816 95.325949 
L 182.303212 112.439739 
L 183.384607 127.542606 
L 184.466002 137.922644 
L 185.547398 143.478679 
L 186.628793 145.794778 
L 187.710188 146.546706 
L 188.791584 146.736823 
L 193.117165 146.78 
L 220.152049 146.730068 
L 221.233444 146.51021 
L 222.31484 145.640655 
L 223.396235 142.962235 
L 224.47763 136.537041 
L 225.559026 124.533199 
L 226.640421 107.067711 
L 227.721816 87.27672 
L 228.803212 69.811232 
L 229.884607 57.80739 
L 230.966002 51.382196 
L 232.047398 48.703776 
L 233.128793 47.834221 
L 234.210188 47.614363 
L 237.454374 47.564431 
L 265.570654 47.614363 
L 266.652049 47.834221 
L 267.733444 48.703776 
L 268.81484 51.382196 
L 269.896235 57.80739 
L 270.97763 69.811232 
L 272.059026 87.27672 
L 273.140421 107.067711 
L 274.221816 124.533199 
L 275.303212 136.537041 
L 276.384607 142.962235 
L 277.466002 145.640655 
L 278.547398 146.51021 
L 279.628793 146.730068 
L 282.872979 146.78 
L 314.038095 146.78 
L 314.038095 146.78 
" style="fill:none;stroke:#cccccc;stroke-linecap:square;stroke-width:1.75;"/>
   </g>
   <g id="line2d_18">
    <path clip-path="url(#p1cf4047e07)" d="M 0.628793 146.78 
L 41.721816 146.697686 
L 42.803212 146.559155 
L 43.884607 146.300344 
L 48.210188 144.861691 
L 50.372979 144.665411 
L 57.942747 144.640846 
L 87.140421 144.72316 
L 88.221816 144.861691 
L 89.303212 145.120502 
L 93.628793 146.559155 
L 95.791584 146.755435 
L 103.361351 146.78 
L 129.31484 146.757119 
L 130.396235 146.656372 
L 131.47763 146.257908 
L 132.559026 145.030552 
L 133.640421 142.086279 
L 134.721816 136.585652 
L 135.803212 128.582287 
L 136.884607 119.513287 
L 137.966002 111.509922 
L 139.047398 106.009295 
L 140.128793 103.065022 
L 141.210188 101.837666 
L 142.291584 101.439202 
L 144.454374 101.318616 
L 174.733444 101.338454 
L 175.81484 101.439202 
L 176.896235 101.837666 
L 177.97763 103.065022 
L 179.059026 106.009295 
L 180.140421 111.509922 
L 181.221816 119.513287 
L 182.303212 128.582287 
L 183.384607 136.585652 
L 184.466002 142.086279 
L 185.547398 145.030552 
L 186.628793 146.257908 
L 187.710188 146.656372 
L 189.872979 146.776958 
L 219.070654 146.773932 
L 220.152049 146.734364 
L 221.233444 146.533423 
L 222.31484 145.738683 
L 223.396235 143.290713 
L 224.47763 137.418339 
L 225.559026 126.447299 
L 226.640421 110.48453 
L 227.721816 92.396344 
L 228.803212 76.433575 
L 229.884607 65.462535 
L 230.966002 59.590161 
L 232.047398 57.142191 
L 233.128793 56.347452 
L 234.210188 56.14651 
L 237.454374 56.100874 
L 265.570654 56.14651 
L 266.652049 56.347452 
L 267.733444 57.142191 
L 268.81484 59.590161 
L 269.896235 65.462535 
L 270.97763 76.433575 
L 272.059026 92.396344 
L 273.140421 110.48453 
L 274.221816 126.447299 
L 275.303212 137.418339 
L 276.384607 143.290713 
L 277.466002 145.738683 
L 278.547398 146.533423 
L 279.628793 146.734364 
L 282.872979 146.78 
L 314.038095 146.78 
L 314.038095 146.78 
" style="fill:none;stroke:#cccccc;stroke-linecap:square;stroke-width:1.75;"/>
   </g>
   <g id="line2d_19">
    <path clip-path="url(#p1cf4047e07)" d="M 0.628793 146.78 
L 40.640421 146.741709 
L 41.721816 146.651692 
L 42.803212 146.435753 
L 43.884607 146.032325 
L 48.210188 143.78979 
L 49.291584 143.573851 
L 51.454374 143.45461 
L 68.7567 143.445543 
L 86.059026 143.483834 
L 87.140421 143.573851 
L 88.221816 143.78979 
L 89.303212 144.193218 
L 93.628793 146.435753 
L 94.710188 146.651692 
L 96.872979 146.770933 
L 114.175305 146.78 
L 129.31484 146.750237 
L 130.396235 146.619184 
L 131.47763 146.100862 
L 132.559026 144.504316 
L 133.640421 140.674401 
L 134.721816 133.519178 
L 135.803212 123.10839 
L 136.884607 111.311421 
L 137.966002 100.900633 
L 139.047398 93.74541 
L 140.128793 89.915495 
L 141.210188 88.318949 
L 142.291584 87.800626 
L 144.454374 87.643768 
L 173.652049 87.643768 
L 175.81484 87.800626 
L 176.896235 88.318949 
L 177.97763 89.915495 
L 179.059026 93.74541 
L 180.140421 100.900633 
L 181.221816 111.311421 
L 182.303212 123.10839 
L 183.384607 133.519178 
L 184.466002 140.674401 
L 185.547398 144.504316 
L 186.628793 146.100862 
L 187.710188 146.619184 
L 189.872979 146.776043 
L 219.070654 146.773663 
L 220.152049 146.732343 
L 221.233444 146.5225 
L 222.31484 145.692556 
L 223.396235 143.136148 
L 224.47763 137.003643 
L 225.559026 125.546616 
L 226.640421 108.876741 
L 227.721816 89.987297 
L 228.803212 73.317422 
L 229.884607 61.860395 
L 230.966002 55.727891 
L 232.047398 53.171483 
L 233.128793 52.341539 
L 234.210188 52.131696 
L 237.454374 52.084039 
L 265.570654 52.131696 
L 266.652049 52.341539 
L 267.733444 53.171483 
L 268.81484 55.727891 
L 269.896235 61.860395 
L 270.97763 73.317422 
L 272.059026 89.987297 
L 273.140421 108.876741 
L 274.221816 125.546616 
L 275.303212 137.003643 
L 276.384607 143.136148 
L 277.466002 145.692556 
L 278.547398 146.5225 
L 279.628793 146.732343 
L 282.872979 146.78 
L 314.038095 146.78 
L 314.038095 146.78 
" style="fill:none;stroke:#cccccc;stroke-linecap:square;stroke-width:1.75;"/>
   </g>
   <g id="line2d_20">
    <path clip-path="url(#p1cf4047e07)" d="M 0.628793 146.78 
L 41.721816 146.68431 
L 42.803212 146.523267 
L 43.884607 146.222398 
L 48.210188 144.549958 
L 50.372979 144.321782 
L 56.861351 144.293225 
L 87.140421 144.388914 
L 88.221816 144.549958 
L 89.303212 144.850827 
L 93.628793 146.523267 
L 95.791584 146.751443 
L 102.279956 146.78 
L 129.31484 146.754711 
L 130.396235 146.643362 
L 131.47763 146.202965 
L 132.559026 144.846448 
L 133.640421 141.592334 
L 134.721816 135.512847 
L 135.803212 126.667246 
L 136.884607 116.643867 
L 137.966002 107.798266 
L 139.047398 101.718779 
L 140.128793 98.464665 
L 141.210188 97.108148 
L 142.291584 96.667751 
L 144.454374 96.534476 
L 173.652049 96.534476 
L 175.81484 96.667751 
L 176.896235 97.108148 
L 177.97763 98.464665 
L 179.059026 101.718779 
L 180.140421 107.798266 
L 181.221816 116.643867 
L 182.303212 126.667246 
L 183.384607 135.512847 
L 184.466002 141.592334 
L 185.547398 144.846448 
L 186.628793 146.202965 
L 187.710188 146.643362 
L 189.872979 146.776638 
L 219.070654 146.773824 
L 220.152049 146.733552 
L 221.233444 146.529034 
L 222.31484 145.720149 
L 223.396235 143.228607 
L 224.47763 137.25171 
L 225.559026 126.085396 
L 226.640421 109.838505 
L 227.721816 91.428365 
L 228.803212 75.181474 
L 229.884607 64.01516 
L 230.966002 58.038263 
L 232.047398 55.546722 
L 233.128793 54.737836 
L 234.210188 54.533318 
L 237.454374 54.48687 
L 265.570654 54.533318 
L 266.652049 54.737836 
L 267.733444 55.546722 
L 268.81484 58.038263 
L 269.896235 64.01516 
L 270.97763 75.181474 
L 272.059026 91.428365 
L 273.140421 109.838505 
L 274.221816 126.085396 
L 275.303212 137.25171 
L 276.384607 143.228607 
L 277.466002 145.720149 
L 278.547398 146.529034 
L 279.628793 146.733552 
L 282.872979 146.78 
L 314.038095 146.78 
L 314.038095 146.78 
" style="fill:none;stroke:#cccccc;stroke-linecap:square;stroke-width:1.75;"/>
   </g>
   <g id="line2d_21">
    <path clip-path="url(#p1cf4047e07)" d="M 0.628793 146.78 
L 40.640421 146.720657 
L 41.721816 146.581149 
L 42.803212 146.246489 
L 43.884607 145.621262 
L 47.128793 142.771036 
L 48.210188 142.145809 
L 49.291584 141.811149 
L 51.454374 141.62635 
L 62.268328 141.612298 
L 86.059026 141.671642 
L 87.140421 141.811149 
L 88.221816 142.145809 
L 89.303212 142.771036 
L 92.547398 145.621262 
L 93.628793 146.246489 
L 94.710188 146.581149 
L 96.872979 146.765948 
L 107.686933 146.78 
L 129.31484 146.744343 
L 130.396235 146.587339 
L 131.47763 145.966375 
L 132.559026 144.053671 
L 133.640421 139.465334 
L 134.721816 130.893191 
L 135.803212 118.420796 
L 136.884607 104.287722 
L 137.966002 91.815328 
L 139.047398 83.243185 
L 140.128793 78.654847 
L 141.210188 76.742143 
L 142.291584 76.12118 
L 143.372979 75.964175 
L 147.698561 75.928518 
L 174.733444 75.964175 
L 175.81484 76.12118 
L 176.896235 76.742143 
L 177.97763 78.654847 
L 179.059026 83.243185 
L 180.140421 91.815328 
L 181.221816 104.287722 
L 182.303212 118.420796 
L 183.384607 130.893191 
L 184.466002 139.465334 
L 185.547398 144.053671 
L 186.628793 145.966375 
L 187.710188 146.587339 
L 188.791584 146.744343 
L 193.117165 146.78 
L 220.152049 146.731158 
L 221.233444 146.516097 
L 222.31484 145.665517 
L 223.396235 143.045544 
L 224.47763 136.760556 
L 225.559026 125.018654 
L 226.640421 107.934286 
L 227.721816 88.575161 
L 228.803212 71.490793 
L 229.884607 59.74889 
L 230.966002 53.463903 
L 232.047398 50.84393 
L 233.128793 49.99335 
L 234.210188 49.778289 
L 237.454374 49.729447 
L 265.570654 49.778289 
L 266.652049 49.99335 
L 267.733444 50.84393 
L 268.81484 53.463903 
L 269.896235 59.74889 
L 270.97763 71.490793 
L 272.059026 88.575161 
L 273.140421 107.934286 
L 274.221816 125.018654 
L 275.303212 136.760556 
L 276.384607 143.045544 
L 277.466002 145.665517 
L 278.547398 146.516097 
L 279.628793 146.731158 
L 282.872979 146.78 
L 314.038095 146.78 
L 314.038095 146.78 
" style="fill:none;stroke:#cccccc;stroke-linecap:square;stroke-width:1.75;"/>
   </g>
   <g id="line2d_22">
    <path clip-path="url(#p1cf4047e07)" d="M 0.628793 146.78 
L 39.559026 146.74412 
L 40.640421 146.628476 
L 41.721816 146.272268 
L 42.803212 145.41777 
L 43.884607 143.821357 
L 44.966002 141.498589 
L 46.047398 138.866549 
L 47.128793 136.543781 
L 48.210188 134.947368 
L 49.291584 134.092869 
L 50.372979 133.736661 
L 52.53577 133.591778 
L 74.163677 133.585138 
L 84.97763 133.621018 
L 86.059026 133.736661 
L 87.140421 134.092869 
L 88.221816 134.947368 
L 89.303212 136.543781 
L 90.384607 138.866549 
L 91.466002 141.498589 
L 92.547398 143.821357 
L 93.628793 145.41777 
L 94.710188 146.272268 
L 95.791584 146.628476 
L 97.954374 146.773359 
L 119.582281 146.78 
L 129.31484 146.735632 
L 130.396235 146.540271 
L 131.47763 145.767604 
L 132.559026 143.387624 
L 133.640421 137.678346 
L 134.721816 127.012012 
L 135.803212 111.492588 
L 136.884607 93.906776 
L 137.966002 78.387351 
L 139.047398 67.721017 
L 140.128793 62.01174 
L 141.210188 59.631759 
L 142.291584 58.859092 
L 143.372979 58.663732 
L 147.698561 58.619364 
L 174.733444 58.663732 
L 175.81484 58.859092 
L 176.896235 59.631759 
L 177.97763 62.01174 
L 179.059026 67.721017 
L 180.140421 78.387351 
L 181.221816 93.906776 
L 182.303212 111.492588 
L 183.384607 127.012012 
L 184.466002 137.678346 
L 185.547398 143.387624 
L 186.628793 145.767604 
L 187.710188 146.540271 
L 188.791584 146.735632 
L 193.117165 146.78 
L 220.152049 146.729926 
L 221.233444 146.509443 
L 222.31484 145.637415 
L 223.396235 142.951378 
L 224.47763 136.507912 
L 225.559026 124.469932 
L 226.640421 106.954775 
L 227.721816 87.107501 
L 228.803212 69.592344 
L 229.884607 57.554364 
L 230.966002 51.110897 
L 232.047398 48.424861 
L 233.128793 47.552833 
L 234.210188 47.332349 
L 237.454374 47.282276 
L 265.570654 47.332349 
L 266.652049 47.552833 
L 267.733444 48.424861 
L 268.81484 51.110897 
L 269.896235 57.554364 
L 270.97763 69.592344 
L 272.059026 87.107501 
L 273.140421 106.954775 
L 274.221816 124.469932 
L 275.303212 136.507912 
L 276.384607 142.951378 
L 277.466002 145.637415 
L 278.547398 146.509443 
L 279.628793 146.729926 
L 282.872979 146.78 
L 314.038095 146.78 
L 314.038095 146.78 
" style="fill:none;stroke:#cccccc;stroke-linecap:square;stroke-width:1.75;"/>
   </g>
   <g id="line2d_23">
    <path clip-path="url(#p1cf4047e07)" d="M 0.628793 146.78 
L 40.640421 146.688062 
L 41.721816 146.471932 
L 42.803212 145.953461 
L 43.884607 144.984831 
L 44.966002 143.575483 
L 47.128793 140.569133 
L 48.210188 139.600503 
L 49.291584 139.082032 
L 50.372979 138.865902 
L 52.53577 138.777993 
L 83.896235 138.777993 
L 86.059026 138.865902 
L 87.140421 139.082032 
L 88.221816 139.600503 
L 89.303212 140.569133 
L 90.384607 141.978482 
L 92.547398 144.984831 
L 93.628793 145.953461 
L 94.710188 146.471932 
L 95.791584 146.688062 
L 97.954374 146.775971 
L 128.233444 146.77463 
L 129.31484 146.739614 
L 130.396235 146.561789 
L 131.47763 145.858478 
L 132.559026 143.692127 
L 133.640421 138.49532 
L 134.721816 128.786407 
L 135.803212 114.660023 
L 136.884607 98.652732 
L 137.966002 84.526347 
L 139.047398 74.817434 
L 140.128793 69.620627 
L 141.210188 67.454276 
L 142.291584 66.750965 
L 143.372979 66.57314 
L 147.698561 66.532754 
L 174.733444 66.57314 
L 175.81484 66.750965 
L 176.896235 67.454276 
L 177.97763 69.620627 
L 179.059026 74.817434 
L 180.140421 84.526347 
L 181.221816 98.652732 
L 182.303212 114.660023 
L 183.384607 128.786407 
L 184.466002 138.49532 
L 185.547398 143.692127 
L 186.628793 145.858478 
L 187.710188 146.561789 
L 188.791584 146.739614 
L 193.117165 146.78 
L 220.152049 146.73043 
L 221.233444 146.512167 
L 222.31484 145.648919 
L 223.396235 142.989928 
L 224.47763 136.611339 
L 225.559026 124.694567 
L 226.640421 107.355766 
L 227.721816 87.70833 
L 228.803212 70.369529 
L 229.884607 58.452756 
L 230.966002 52.074168 
L 232.047398 49.415177 
L 233.128793 48.551929 
L 234.210188 48.333665 
L 237.454374 48.284096 
L 265.570654 48.333665 
L 266.652049 48.551929 
L 267.733444 49.415177 
L 268.81484 52.074168 
L 269.896235 58.452756 
L 270.97763 70.369529 
L 272.059026 87.70833 
L 273.140421 107.355766 
L 274.221816 124.694567 
L 275.303212 136.611339 
L 276.384607 142.989928 
L 277.466002 145.648919 
L 278.547398 146.512167 
L 279.628793 146.73043 
L 282.872979 146.78 
L 314.038095 146.78 
L 314.038095 146.78 
" style="fill:none;stroke:#cccccc;stroke-linecap:square;stroke-width:1.75;"/>
   </g>
   <g id="line2d_24">
    <path clip-path="url(#p1cf4047e07)" d="M 0.628793 146.78 
L 40.640421 146.700029 
L 41.721816 146.512029 
L 42.803212 146.06104 
L 43.884607 145.218482 
L 47.128793 141.37751 
L 48.210188 140.534953 
L 49.291584 140.083964 
L 50.372979 139.895964 
L 53.617165 139.816459 
L 86.059026 139.895964 
L 87.140421 140.083964 
L 88.221816 140.534953 
L 89.303212 141.37751 
L 92.547398 145.218482 
L 93.628793 146.06104 
L 94.710188 146.512029 
L 95.791584 146.700029 
L 99.03577 146.779534 
L 129.31484 146.74099 
L 130.396235 146.569222 
L 131.47763 145.889867 
L 132.559026 143.797307 
L 133.640421 138.777517 
L 134.721816 129.399313 
L 135.803212 115.754108 
L 136.884607 100.292064 
L 137.966002 86.646859 
L 139.047398 77.268655 
L 140.128793 72.248865 
L 141.210188 70.156305 
L 142.291584 69.47695 
L 143.372979 69.305182 
L 147.698561 69.266172 
L 174.733444 69.305182 
L 175.81484 69.47695 
L 176.896235 70.156305 
L 177.97763 72.248865 
L 179.059026 77.268655 
L 180.140421 86.646859 
L 181.221816 100.292064 
L 182.303212 115.754108 
L 183.384607 129.399313 
L 184.466002 138.777517 
L 185.547398 143.797307 
L 186.628793 145.889867 
L 187.710188 146.569222 
L 188.791584 146.74099 
L 193.117165 146.78 
L 220.152049 146.730626 
L 221.233444 146.513223 
L 222.31484 145.653378 
L 223.396235 143.004871 
L 224.47763 136.65143 
L 225.559026 124.781641 
L 226.640421 107.5112 
L 227.721816 87.941226 
L 228.803212 70.670785 
L 229.884607 58.800996 
L 230.966002 52.447555 
L 232.047398 49.799047 
L 233.128793 48.939203 
L 234.210188 48.7218 
L 237.454374 48.672426 
L 265.570654 48.7218 
L 266.652049 48.939203 
L 267.733444 49.799047 
L 268.81484 52.447555 
L 269.896235 58.800996 
L 270.97763 70.670785 
L 272.059026 87.941226 
L 273.140421 107.5112 
L 274.221816 124.781641 
L 275.303212 136.65143 
L 276.384607 143.004871 
L 277.466002 145.653378 
L 278.547398 146.513223 
L 279.628793 146.730626 
L 282.872979 146.78 
L 314.038095 146.78 
L 314.038095 146.78 
" style="fill:none;stroke:#cccccc;stroke-linecap:square;stroke-width:1.75;"/>
   </g>
   <g id="line2d_25">
    <path clip-path="url(#p1cf4047e07)" d="M 0.628793 146.78 
L 40.640421 146.686955 
L 41.721816 146.46822 
L 42.803212 145.943503 
L 43.884607 144.963201 
L 44.966002 143.536872 
L 47.128793 140.494298 
L 48.210188 139.513997 
L 49.291584 138.98928 
L 50.372979 138.770545 
L 52.53577 138.681577 
L 83.896235 138.681577 
L 86.059026 138.770545 
L 87.140421 138.98928 
L 88.221816 139.513997 
L 89.303212 140.494298 
L 90.384607 141.920628 
L 92.547398 144.963201 
L 93.628793 145.943503 
L 94.710188 146.46822 
L 95.791584 146.686955 
L 97.954374 146.775922 
L 128.233444 146.774615 
L 129.31484 146.739502 
L 130.396235 146.561181 
L 131.47763 145.85591 
L 132.559026 143.683522 
L 133.640421 138.472234 
L 134.721816 128.736265 
L 135.803212 114.570515 
L 136.884607 98.518616 
L 137.966002 84.352866 
L 139.047398 74.616898 
L 140.128793 69.405609 
L 141.210188 67.233221 
L 142.291584 66.52795 
L 143.372979 66.349629 
L 147.698561 66.309131 
L 174.733444 66.349629 
L 175.81484 66.52795 
L 176.896235 67.233221 
L 177.97763 69.405609 
L 179.059026 74.616898 
L 180.140421 84.352866 
L 181.221816 98.518616 
L 182.303212 114.570515 
L 183.384607 128.736265 
L 184.466002 138.472234 
L 185.547398 143.683522 
L 186.628793 145.85591 
L 187.710188 146.561181 
L 188.791584 146.739502 
L 193.117165 146.78 
L 220.152049 146.730415 
L 221.233444 146.512084 
L 222.31484 145.648566 
L 223.396235 142.988745 
L 224.47763 136.608167 
L 225.559026 124.687677 
L 226.640421 107.343467 
L 227.721816 87.689902 
L 228.803212 70.345692 
L 229.884607 58.425202 
L 230.966002 52.044624 
L 232.047398 49.384803 
L 233.128793 48.521285 
L 234.210188 48.302954 
L 237.454374 48.253369 
L 265.570654 48.302954 
L 266.652049 48.521285 
L 267.733444 49.384803 
L 268.81484 52.044624 
L 269.896235 58.425202 
L 270.97763 70.345692 
L 272.059026 87.689902 
L 273.140421 107.343467 
L 274.221816 124.687677 
L 275.303212 136.608167 
L 276.384607 142.988745 
L 277.466002 145.648566 
L 278.547398 146.512084 
L 279.628793 146.730415 
L 282.872979 146.78 
L 314.038095 146.78 
L 314.038095 146.78 
" style="fill:none;stroke:#cccccc;stroke-linecap:square;stroke-width:1.75;"/>
   </g>
   <g id="line2d_26">
    <path clip-path="url(#p1cf4047e07)" d="M 0.628793 146.78 
L 39.559026 146.725935 
L 40.640421 146.551679 
L 41.721816 146.014932 
L 42.803212 144.727342 
L 43.884607 142.321809 
L 44.966002 138.821778 
L 46.047398 134.855723 
L 47.128793 131.355693 
L 48.210188 128.950159 
L 49.291584 127.66257 
L 50.372979 127.125823 
L 51.454374 126.951566 
L 54.698561 126.897501 
L 84.97763 126.951566 
L 86.059026 127.125823 
L 87.140421 127.66257 
L 88.221816 128.950159 
L 89.303212 131.355693 
L 90.384607 134.855723 
L 91.466002 138.821778 
L 92.547398 142.321809 
L 93.628793 144.727342 
L 94.710188 146.014932 
L 95.791584 146.551679 
L 96.872979 146.725935 
L 100.117165 146.78 
L 129.31484 146.733325 
L 130.396235 146.527806 
L 131.47763 145.714963 
L 132.559026 143.21123 
L 133.640421 137.205087 
L 134.721816 125.984135 
L 135.803212 109.657746 
L 136.884607 91.157524 
L 137.966002 74.831135 
L 139.047398 63.610183 
L 140.128793 57.60404 
L 141.210188 55.100307 
L 142.291584 54.287464 
L 143.372979 54.081945 
L 146.617165 54.03527 
L 174.733444 54.081945 
L 175.81484 54.287464 
L 176.896235 55.100307 
L 177.97763 57.60404 
L 179.059026 63.610183 
L 180.140421 74.831135 
L 181.221816 91.157524 
L 182.303212 109.657746 
L 183.384607 125.984135 
L 184.466002 137.205087 
L 185.547398 143.21123 
L 186.628793 145.714963 
L 187.710188 146.527806 
L 188.791584 146.733325 
L 192.03577 146.78 
L 220.152049 146.72967 
L 221.233444 146.508058 
L 222.31484 145.631564 
L 223.396235 142.931774 
L 224.47763 136.455313 
L 225.559026 124.355692 
L 226.640421 106.750848 
L 227.721816 86.801945 
L 228.803212 69.1971 
L 229.884607 57.09748 
L 230.966002 50.621019 
L 232.047398 47.921229 
L 233.128793 47.044735 
L 234.210188 46.823123 
L 237.454374 46.772793 
L 265.570654 46.823123 
L 266.652049 47.044735 
L 267.733444 47.921229 
L 268.81484 50.621019 
L 269.896235 57.09748 
L 270.97763 69.1971 
L 272.059026 86.801945 
L 273.140421 106.750848 
L 274.221816 124.355692 
L 275.303212 136.455313 
L 276.384607 142.931774 
L 277.466002 145.631564 
L 278.547398 146.508058 
L 279.628793 146.72967 
L 282.872979 146.78 
L 314.038095 146.78 
L 314.038095 146.78 
" style="fill:none;stroke:#cccccc;stroke-linecap:square;stroke-width:1.75;"/>
   </g>
   <g id="line2d_27">
    <path clip-path="url(#p1cf4047e07)" d="M 0.628793 146.78 
L 41.721816 146.720408 
L 43.884607 146.432744 
L 48.210188 145.391205 
L 50.372979 145.249105 
L 60.105537 145.231321 
L 87.140421 145.290913 
L 89.303212 145.578576 
L 93.628793 146.620115 
L 95.791584 146.762216 
L 105.524142 146.78 
L 130.396235 146.684872 
L 131.47763 146.378268 
L 132.559026 145.43386 
L 133.640421 143.168344 
L 134.721816 138.935802 
L 135.803212 132.777491 
L 136.884607 125.799209 
L 137.966002 119.640897 
L 139.047398 115.408355 
L 140.128793 113.142839 
L 141.210188 112.198431 
L 142.291584 111.891827 
L 144.454374 111.79904 
L 174.733444 111.814305 
L 175.81484 111.891827 
L 176.896235 112.198431 
L 177.97763 113.142839 
L 179.059026 115.408355 
L 180.140421 119.640897 
L 181.221816 125.799209 
L 182.303212 132.777491 
L 183.384607 138.935802 
L 184.466002 143.168344 
L 185.547398 145.43386 
L 186.628793 146.378268 
L 187.710188 146.684872 
L 189.872979 146.777659 
L 220.152049 146.736753 
L 221.233444 146.546328 
L 222.31484 145.793183 
L 223.396235 143.473335 
L 224.47763 137.908307 
L 225.559026 127.511467 
L 226.640421 112.384153 
L 227.721816 95.242662 
L 228.803212 80.115348 
L 229.884607 69.718508 
L 230.966002 64.15348 
L 232.047398 61.833632 
L 233.128793 61.080487 
L 234.210188 60.890062 
L 238.53577 60.846815 
L 265.570654 60.890062 
L 266.652049 61.080487 
L 267.733444 61.833632 
L 268.81484 64.15348 
L 269.896235 69.718508 
L 270.97763 80.115348 
L 272.059026 95.242662 
L 273.140421 112.384153 
L 274.221816 127.511467 
L 275.303212 137.908307 
L 276.384607 143.473335 
L 277.466002 145.793183 
L 278.547398 146.546328 
L 279.628793 146.736753 
L 283.954374 146.78 
L 314.038095 146.78 
L 314.038095 146.78 
" style="fill:none;stroke:#cccccc;stroke-linecap:square;stroke-width:1.75;"/>
   </g>
   <g id="line2d_28">
    <path clip-path="url(#p1cf4047e07)" d="M 0.628793 146.78 
L 39.559026 146.751266 
L 40.640421 146.658653 
L 41.721816 146.373384 
L 42.803212 145.68906 
L 43.884607 144.410575 
L 44.966002 142.550389 
L 46.047398 140.442523 
L 47.128793 138.582338 
L 48.210188 137.303853 
L 49.291584 136.619529 
L 50.372979 136.33426 
L 52.53577 136.218231 
L 79.570654 136.212913 
L 84.97763 136.241647 
L 86.059026 136.33426 
L 87.140421 136.619529 
L 88.221816 137.303853 
L 89.303212 138.582338 
L 90.384607 140.442523 
L 91.466002 142.550389 
L 92.547398 144.410575 
L 93.628793 145.68906 
L 94.710188 146.373384 
L 95.791584 146.658653 
L 97.954374 146.774682 
L 124.989258 146.78 
L 129.31484 146.737227 
L 130.396235 146.548892 
L 131.47763 145.804009 
L 132.559026 143.509611 
L 133.640421 138.005636 
L 134.721816 127.722856 
L 135.803212 112.761499 
L 136.884607 95.808061 
L 137.966002 80.846704 
L 139.047398 70.563924 
L 140.128793 65.059948 
L 141.210188 62.76555 
L 142.291584 62.020668 
L 143.372979 61.832332 
L 147.698561 61.78956 
L 174.733444 61.832332 
L 175.81484 62.020668 
L 176.896235 62.76555 
L 177.97763 65.059948 
L 179.059026 70.563924 
L 180.140421 80.846704 
L 181.221816 95.808061 
L 182.303212 112.761499 
L 183.384607 127.722856 
L 184.466002 138.005636 
L 185.547398 143.509611 
L 186.628793 145.804009 
L 187.710188 146.548892 
L 188.791584 146.737227 
L 193.117165 146.78 
L 220.152049 146.730118 
L 221.233444 146.51048 
L 222.31484 145.641792 
L 223.396235 142.966047 
L 224.47763 136.547269 
L 225.559026 124.555412 
L 226.640421 107.107362 
L 227.721816 87.336132 
L 228.803212 69.888083 
L 229.884607 57.896226 
L 230.966002 51.477447 
L 232.047398 48.801702 
L 233.128793 47.933015 
L 234.210188 47.713377 
L 237.454374 47.663495 
L 265.570654 47.713377 
L 266.652049 47.933015 
L 267.733444 48.801702 
L 268.81484 51.477447 
L 269.896235 57.896226 
L 270.97763 69.888083 
L 272.059026 87.336132 
L 273.140421 107.107362 
L 274.221816 124.555412 
L 275.303212 136.547269 
L 276.384607 142.966047 
L 277.466002 145.641792 
L 278.547398 146.51048 
L 279.628793 146.730118 
L 282.872979 146.78 
L 314.038095 146.78 
L 314.038095 146.78 
" style="fill:none;stroke:#cccccc;stroke-linecap:square;stroke-width:1.75;"/>
   </g>
   <g id="line2d_29">
    <path clip-path="url(#p1cf4047e07)" d="M 0.628793 146.78 
L 41.721816 146.706721 
L 43.884607 146.352987 
L 48.210188 145.072229 
L 50.372979 144.897491 
L 57.942747 144.875622 
L 87.140421 144.948902 
L 89.303212 145.302635 
L 93.628793 146.583393 
L 95.791584 146.758131 
L 103.361351 146.78 
L 129.31484 146.759009 
L 130.396235 146.666582 
L 131.47763 146.301028 
L 132.559026 145.17504 
L 133.640421 142.473935 
L 134.721816 137.427607 
L 135.803212 130.085243 
L 136.884607 121.765255 
L 137.966002 114.422891 
L 139.047398 109.376563 
L 140.128793 106.675459 
L 141.210188 105.549471 
L 142.291584 105.183916 
L 144.454374 105.073289 
L 174.733444 105.091489 
L 175.81484 105.183916 
L 176.896235 105.549471 
L 177.97763 106.675459 
L 179.059026 109.376563 
L 180.140421 114.422891 
L 181.221816 121.765255 
L 182.303212 130.085243 
L 183.384607 137.427607 
L 184.466002 142.473935 
L 185.547398 145.17504 
L 186.628793 146.301028 
L 187.710188 146.666582 
L 189.872979 146.777209 
L 219.070654 146.774031 
L 220.152049 146.735108 
L 221.233444 146.53744 
L 222.31484 145.75565 
L 223.396235 143.347565 
L 224.47763 137.57087 
L 225.559026 126.778582 
L 226.640421 111.075896 
L 227.721816 93.282422 
L 228.803212 77.579737 
L 229.884607 66.787449 
L 230.966002 61.010754 
L 232.047398 58.602669 
L 233.128793 57.820879 
L 234.210188 57.623211 
L 238.53577 57.578319 
L 265.570654 57.623211 
L 266.652049 57.820879 
L 267.733444 58.602669 
L 268.81484 61.010754 
L 269.896235 66.787449 
L 270.97763 77.579737 
L 272.059026 93.282422 
L 273.140421 111.075896 
L 274.221816 126.778582 
L 275.303212 137.57087 
L 276.384607 143.347565 
L 277.466002 145.75565 
L 278.547398 146.53744 
L 279.628793 146.735108 
L 283.954374 146.78 
L 314.038095 146.78 
L 314.038095 146.78 
" style="fill:none;stroke:#cccccc;stroke-linecap:square;stroke-width:1.75;"/>
   </g>
   <g id="line2d_30">
    <path clip-path="url(#p1cf4047e07)" d="M 0.628793 146.78 
L 41.721816 146.673445 
L 42.803212 146.494117 
L 43.884607 146.159087 
L 48.210188 144.296757 
L 50.372979 144.042673 
L 55.779956 144.010874 
L 87.140421 144.117428 
L 88.221816 144.296757 
L 89.303212 144.631786 
L 93.628793 146.494117 
L 95.791584 146.748201 
L 101.198561 146.78 
L 129.31484 146.753032 
L 130.396235 146.634288 
L 131.47763 146.164644 
L 132.559026 144.71804 
L 133.640421 141.247818 
L 134.721816 134.764589 
L 135.803212 125.331546 
L 136.884607 114.642509 
L 137.966002 105.209466 
L 139.047398 98.726237 
L 140.128793 95.256015 
L 141.210188 93.809411 
L 142.291584 93.339767 
L 144.454374 93.19764 
L 173.652049 93.19764 
L 175.81484 93.339767 
L 176.896235 93.809411 
L 177.97763 95.256015 
L 179.059026 98.726237 
L 180.140421 105.209466 
L 181.221816 114.642509 
L 182.303212 125.331546 
L 183.384607 134.764589 
L 184.466002 141.247818 
L 185.547398 144.71804 
L 186.628793 146.164644 
L 187.710188 146.634288 
L 189.872979 146.776414 
L 219.070654 146.773758 
L 220.152049 146.733058 
L 221.233444 146.526366 
L 222.31484 145.708883 
L 223.396235 143.190856 
L 224.47763 137.150424 
L 225.559026 125.865412 
L 226.640421 109.445817 
L 227.721816 90.839977 
L 228.803212 74.420382 
L 229.884607 63.13537 
L 230.966002 57.094938 
L 232.047398 54.576911 
L 233.128793 53.759428 
L 234.210188 53.552736 
L 237.454374 53.505794 
L 265.570654 53.552736 
L 266.652049 53.759428 
L 267.733444 54.576911 
L 268.81484 57.094938 
L 269.896235 63.13537 
L 270.97763 74.420382 
L 272.059026 90.839977 
L 273.140421 109.445817 
L 274.221816 125.865412 
L 275.303212 137.150424 
L 276.384607 143.190856 
L 277.466002 145.708883 
L 278.547398 146.526366 
L 279.628793 146.733058 
L 282.872979 146.78 
L 314.038095 146.78 
L 314.038095 146.78 
" style="fill:none;stroke:#cccccc;stroke-linecap:square;stroke-width:1.75;"/>
   </g>
   <g id="line2d_31">
    <path clip-path="url(#p1cf4047e07)" d="M 0.628793 146.78 
L 39.559026 146.726673 
L 40.640421 146.554794 
L 41.721816 146.025371 
L 42.803212 144.75535 
L 43.884607 142.38264 
L 44.966002 138.930366 
L 46.047398 135.018427 
L 47.128793 131.566154 
L 48.210188 129.193443 
L 49.291584 127.923423 
L 50.372979 127.393999 
L 51.454374 127.222121 
L 54.698561 127.168793 
L 84.97763 127.222121 
L 86.059026 127.393999 
L 87.140421 127.923423 
L 88.221816 129.193443 
L 89.303212 131.566154 
L 90.384607 135.018427 
L 91.466002 138.930366 
L 92.547398 142.38264 
L 93.628793 144.75535 
L 94.710188 146.025371 
L 95.791584 146.554794 
L 96.872979 146.726673 
L 100.117165 146.78 
L 129.31484 146.73339 
L 130.396235 146.528159 
L 131.47763 145.716455 
L 132.559026 143.21623 
L 133.640421 137.218503 
L 134.721816 126.013272 
L 135.803212 109.709758 
L 136.884607 91.235456 
L 137.966002 74.931942 
L 139.047398 63.726712 
L 140.128793 57.728984 
L 141.210188 55.228759 
L 142.291584 54.417055 
L 143.372979 54.211824 
L 146.617165 54.165214 
L 174.733444 54.211824 
L 175.81484 54.417055 
L 176.896235 55.228759 
L 177.97763 57.728984 
L 179.059026 63.726712 
L 180.140421 74.931942 
L 181.221816 91.235456 
L 182.303212 109.709758 
L 183.384607 126.013272 
L 184.466002 137.218503 
L 185.547398 143.21623 
L 186.628793 145.716455 
L 187.710188 146.528159 
L 188.791584 146.73339 
L 192.03577 146.78 
L 220.152049 146.729677 
L 221.233444 146.508095 
L 222.31484 145.631723 
L 223.396235 142.932305 
L 224.47763 136.456739 
L 225.559026 124.358789 
L 226.640421 106.756376 
L 227.721816 86.810229 
L 228.803212 69.207816 
L 229.884607 57.109866 
L 230.966002 50.634301 
L 232.047398 47.934883 
L 233.128793 47.058511 
L 234.210188 46.836929 
L 237.454374 46.786606 
L 265.570654 46.836929 
L 266.652049 47.058511 
L 267.733444 47.934883 
L 268.81484 50.634301 
L 269.896235 57.109866 
L 270.97763 69.207816 
L 272.059026 86.810229 
L 273.140421 106.756376 
L 274.221816 124.358789 
L 275.303212 136.456739 
L 276.384607 142.932305 
L 277.466002 145.631723 
L 278.547398 146.508095 
L 279.628793 146.729677 
L 282.872979 146.78 
L 314.038095 146.78 
L 314.038095 146.78 
" style="fill:none;stroke:#cccccc;stroke-linecap:square;stroke-width:1.75;"/>
   </g>
   <g id="line2d_32">
    <path clip-path="url(#p1cf4047e07)" d="M 0.628793 146.78 
L 41.721816 146.7127 
L 43.884607 146.387832 
L 48.210188 145.211584 
L 50.372979 145.051105 
L 59.024142 145.031021 
L 87.140421 145.098321 
L 89.303212 145.423189 
L 93.628793 146.599436 
L 95.791584 146.759916 
L 104.442747 146.78 
L 130.396235 146.674108 
L 131.47763 146.332807 
L 132.559026 145.281527 
L 133.640421 142.759639 
L 134.721816 138.048131 
L 135.803212 131.192927 
L 136.884607 123.424964 
L 137.966002 116.56976 
L 139.047398 111.858252 
L 140.128793 109.336364 
L 141.210188 108.285084 
L 142.291584 107.943784 
L 144.454374 107.840497 
L 174.733444 107.857489 
L 175.81484 107.943784 
L 176.896235 108.285084 
L 177.97763 109.336364 
L 179.059026 111.858252 
L 180.140421 116.56976 
L 181.221816 123.424964 
L 182.303212 131.192927 
L 183.384607 138.048131 
L 184.466002 142.759639 
L 185.547398 145.281527 
L 186.628793 146.332807 
L 187.710188 146.674108 
L 189.872979 146.777394 
L 219.070654 146.774114 
L 220.152049 146.735729 
L 221.233444 146.540799 
L 222.31484 145.769833 
L 223.396235 143.395092 
L 224.47763 137.698385 
L 225.559026 127.055533 
L 226.640421 111.570276 
L 227.721816 94.023181 
L 228.803212 78.537924 
L 229.884607 67.895073 
L 230.966002 62.198365 
L 232.047398 59.823624 
L 233.128793 59.052659 
L 234.210188 58.857728 
L 238.53577 58.813457 
L 265.570654 58.857728 
L 266.652049 59.052659 
L 267.733444 59.823624 
L 268.81484 62.198365 
L 269.896235 67.895073 
L 270.97763 78.537924 
L 272.059026 94.023181 
L 273.140421 111.570276 
L 274.221816 127.055533 
L 275.303212 137.698385 
L 276.384607 143.395092 
L 277.466002 145.769833 
L 278.547398 146.540799 
L 279.628793 146.735729 
L 283.954374 146.78 
L 314.038095 146.78 
L 314.038095 146.78 
" style="fill:none;stroke:#cccccc;stroke-linecap:square;stroke-width:1.75;"/>
   </g>
   <g id="line2d_33">
    <path clip-path="url(#p1cf4047e07)" d="M 0.628793 146.78 
L 40.640421 146.683966 
L 41.721816 146.458205 
L 42.803212 145.916634 
L 43.884607 144.904845 
L 44.966002 143.4327 
L 47.128793 140.292398 
L 48.210188 139.280609 
L 49.291584 138.739037 
L 50.372979 138.513277 
L 52.53577 138.421451 
L 83.896235 138.421451 
L 86.059026 138.513277 
L 87.140421 138.739037 
L 88.221816 139.280609 
L 89.303212 140.292398 
L 90.384607 141.764542 
L 92.547398 144.904845 
L 93.628793 145.916634 
L 94.710188 146.458205 
L 95.791584 146.683966 
L 97.954374 146.775791 
L 128.233444 146.774576 
L 129.31484 146.739209 
L 130.396235 146.559599 
L 131.47763 145.849228 
L 132.559026 143.66113 
L 133.640421 138.412157 
L 134.721816 128.605784 
L 135.803212 114.337596 
L 136.884607 98.16962 
L 137.966002 83.901432 
L 139.047398 74.095059 
L 140.128793 68.846086 
L 141.210188 66.657989 
L 142.291584 65.947617 
L 143.372979 65.768007 
L 147.698561 65.727216 
L 174.733444 65.768007 
L 175.81484 65.947617 
L 176.896235 66.657989 
L 177.97763 68.846086 
L 179.059026 74.095059 
L 180.140421 83.901432 
L 181.221816 98.16962 
L 182.303212 114.337596 
L 183.384607 128.605784 
L 184.466002 138.412157 
L 185.547398 143.66113 
L 186.628793 145.849228 
L 187.710188 146.559599 
L 188.791584 146.739209 
L 193.117165 146.78 
L 220.152049 146.730375 
L 221.233444 146.511868 
L 222.31484 145.647656 
L 223.396235 142.985696 
L 224.47763 136.599986 
L 225.559026 124.669908 
L 226.640421 107.311747 
L 227.721816 87.642374 
L 228.803212 70.284214 
L 229.884607 58.354136 
L 230.966002 51.968426 
L 232.047398 49.306466 
L 233.128793 48.442254 
L 234.210188 48.223747 
L 237.454374 48.174122 
L 265.570654 48.223747 
L 266.652049 48.442254 
L 267.733444 49.306466 
L 268.81484 51.968426 
L 269.896235 58.354136 
L 270.97763 70.284214 
L 272.059026 87.642374 
L 273.140421 107.311747 
L 274.221816 124.669908 
L 275.303212 136.599986 
L 276.384607 142.985696 
L 277.466002 145.647656 
L 278.547398 146.511868 
L 279.628793 146.730375 
L 282.872979 146.78 
L 314.038095 146.78 
L 314.038095 146.78 
" style="fill:none;stroke:#cccccc;stroke-linecap:square;stroke-width:1.75;"/>
   </g>
   <g id="line2d_34">
    <path clip-path="url(#p1cf4047e07)" d="M 0.628793 146.78 
L 40.640421 146.678135 
L 41.721816 146.438667 
L 42.803212 145.864213 
L 43.884607 144.790991 
L 44.966002 143.229463 
L 47.128793 139.898491 
L 48.210188 138.825269 
L 49.291584 138.250815 
L 50.372979 138.011347 
L 52.53577 137.913946 
L 82.81484 137.910076 
L 86.059026 138.011347 
L 87.140421 138.250815 
L 88.221816 138.825269 
L 89.303212 139.898491 
L 90.384607 141.460019 
L 92.547398 144.790991 
L 93.628793 145.864213 
L 94.710188 146.438667 
L 95.791584 146.678135 
L 97.954374 146.775536 
L 128.233444 146.774506 
L 129.31484 146.738679 
L 130.396235 146.556736 
L 131.47763 145.837138 
L 132.559026 143.620621 
L 133.640421 138.303472 
L 134.721816 128.36973 
L 135.803212 113.916221 
L 136.884607 97.538249 
L 137.966002 83.084739 
L 139.047398 73.150997 
L 140.128793 67.833848 
L 141.210188 65.617331 
L 142.291584 64.897733 
L 143.372979 64.71579 
L 147.698561 64.674469 
L 174.733444 64.71579 
L 175.81484 64.897733 
L 176.896235 65.617331 
L 177.97763 67.833848 
L 179.059026 73.150997 
L 180.140421 83.084739 
L 181.221816 97.538249 
L 182.303212 113.916221 
L 183.384607 128.36973 
L 184.466002 138.303472 
L 185.547398 143.620621 
L 186.628793 145.837138 
L 187.710188 146.556736 
L 188.791584 146.738679 
L 193.117165 146.78 
L 220.152049 146.730304 
L 221.233444 146.511485 
L 222.31484 145.646039 
L 223.396235 142.980278 
L 224.47763 136.585448 
L 225.559026 124.638334 
L 226.640421 107.255386 
L 227.721816 87.557924 
L 228.803212 70.174976 
L 229.884607 58.227862 
L 230.966002 51.833032 
L 232.047398 49.167271 
L 233.128793 48.301825 
L 234.210188 48.083006 
L 237.454374 48.03331 
L 265.570654 48.083006 
L 266.652049 48.301825 
L 267.733444 49.167271 
L 268.81484 51.833032 
L 269.896235 58.227862 
L 270.97763 70.174976 
L 272.059026 87.557924 
L 273.140421 107.255386 
L 274.221816 124.638334 
L 275.303212 136.585448 
L 276.384607 142.980278 
L 277.466002 145.646039 
L 278.547398 146.511485 
L 279.628793 146.730304 
L 282.872979 146.78 
L 314.038095 146.78 
L 314.038095 146.78 
" style="fill:none;stroke:#cccccc;stroke-linecap:square;stroke-width:1.75;"/>
   </g>
   <g id="line2d_35">
    <path clip-path="url(#p1cf4047e07)" d="M 0.628793 146.78 
L 40.640421 146.711133 
L 41.721816 146.549237 
L 42.803212 146.160868 
L 43.884607 145.4353 
L 47.128793 142.127649 
L 48.210188 141.402081 
L 49.291584 141.013712 
L 51.454374 140.799256 
L 61.186933 140.782949 
L 86.059026 140.851816 
L 87.140421 141.013712 
L 88.221816 141.402081 
L 89.303212 142.127649 
L 92.547398 145.4353 
L 93.628793 146.160868 
L 94.710188 146.549237 
L 96.872979 146.763693 
L 106.605537 146.78 
L 129.31484 146.7426 
L 130.396235 146.577922 
L 131.47763 145.926608 
L 132.559026 143.920419 
L 133.640421 139.107823 
L 134.721816 130.116709 
L 135.803212 117.034715 
L 136.884607 102.210874 
L 137.966002 89.12888 
L 139.047398 80.137766 
L 140.128793 75.32517 
L 141.210188 73.318981 
L 142.291584 72.667667 
L 143.372979 72.502989 
L 147.698561 72.465589 
L 174.733444 72.502989 
L 175.81484 72.667667 
L 176.896235 73.318981 
L 177.97763 75.32517 
L 179.059026 80.137766 
L 180.140421 89.12888 
L 181.221816 102.210874 
L 182.303212 117.034715 
L 183.384607 130.116709 
L 184.466002 139.107823 
L 185.547398 143.920419 
L 186.628793 145.926608 
L 187.710188 146.577922 
L 188.791584 146.7426 
L 193.117165 146.78 
L 220.152049 146.730871 
L 221.233444 146.514546 
L 222.31484 145.658967 
L 223.396235 143.023597 
L 224.47763 136.701673 
L 225.559026 124.890764 
L 226.640421 107.705993 
L 227.721816 88.233096 
L 228.803212 71.048325 
L 229.884607 59.237416 
L 230.966002 52.915492 
L 232.047398 50.280122 
L 233.128793 49.424543 
L 234.210188 49.208218 
L 237.454374 49.159089 
L 265.570654 49.208218 
L 266.652049 49.424543 
L 267.733444 50.280122 
L 268.81484 52.915492 
L 269.896235 59.237416 
L 270.97763 71.048325 
L 272.059026 88.233096 
L 273.140421 107.705993 
L 274.221816 124.890764 
L 275.303212 136.701673 
L 276.384607 143.023597 
L 277.466002 145.658967 
L 278.547398 146.514546 
L 279.628793 146.730871 
L 282.872979 146.78 
L 314.038095 146.78 
L 314.038095 146.78 
" style="fill:none;stroke:#cccccc;stroke-linecap:square;stroke-width:1.75;"/>
   </g>
   <g id="line2d_36">
    <path clip-path="url(#p1cf4047e07)" d="M 0.628793 146.78 
L 41.721816 146.7195 
L 43.884607 146.427456 
L 48.210188 145.370057 
L 50.372979 145.225792 
L 60.105537 145.207737 
L 87.140421 145.268237 
L 89.303212 145.560281 
L 93.628793 146.61768 
L 95.791584 146.761945 
L 105.524142 146.78 
L 130.396235 146.683536 
L 131.47763 146.372626 
L 132.559026 145.414953 
L 133.640421 143.117616 
L 134.721816 138.825625 
L 135.803212 132.580816 
L 136.884607 125.50452 
L 137.966002 119.259711 
L 139.047398 114.96772 
L 140.128793 112.670383 
L 141.210188 111.712711 
L 142.291584 111.4018 
L 144.454374 111.30771 
L 174.733444 111.323189 
L 175.81484 111.4018 
L 176.896235 111.712711 
L 177.97763 112.670383 
L 179.059026 114.96772 
L 180.140421 119.259711 
L 181.221816 125.50452 
L 182.303212 132.580816 
L 183.384607 138.825625 
L 184.466002 143.117616 
L 185.547398 145.414953 
L 186.628793 146.372626 
L 187.710188 146.683536 
L 189.872979 146.777626 
L 220.152049 146.736616 
L 221.233444 146.545589 
L 222.31484 145.790062 
L 223.396235 143.462877 
L 224.47763 137.880248 
L 225.559026 127.450525 
L 226.640421 112.275368 
L 227.721816 95.079662 
L 228.803212 79.904504 
L 229.884607 69.474781 
L 230.966002 63.892153 
L 232.047398 61.564967 
L 233.128793 60.80944 
L 234.210188 60.618413 
L 238.53577 60.575029 
L 265.570654 60.618413 
L 266.652049 60.80944 
L 267.733444 61.564967 
L 268.81484 63.892153 
L 269.896235 69.474781 
L 270.97763 79.904504 
L 272.059026 95.079662 
L 273.140421 112.275368 
L 274.221816 127.450525 
L 275.303212 137.880248 
L 276.384607 143.462877 
L 277.466002 145.790062 
L 278.547398 146.545589 
L 279.628793 146.736616 
L 283.954374 146.78 
L 314.038095 146.78 
L 314.038095 146.78 
" style="fill:none;stroke:#cccccc;stroke-linecap:square;stroke-width:1.75;"/>
   </g>
   <g id="line2d_37">
    <path clip-path="url(#p1cf4047e07)" d="M 0.628793 146.78 
L 41.721816 146.713071 
L 43.884607 146.389992 
L 48.210188 145.220223 
L 50.372979 145.060628 
L 59.024142 145.040654 
L 87.140421 145.107584 
L 89.303212 145.430662 
L 93.628793 146.600431 
L 95.791584 146.760026 
L 104.442747 146.78 
L 130.396235 146.674596 
L 131.47763 146.334872 
L 132.559026 145.288447 
L 133.640421 142.778203 
L 134.721816 138.088451 
L 135.803212 131.264901 
L 136.884607 123.532807 
L 137.966002 116.709257 
L 139.047398 112.019505 
L 140.128793 109.509261 
L 141.210188 108.462836 
L 142.291584 108.123112 
L 144.454374 108.020302 
L 174.733444 108.037216 
L 175.81484 108.123112 
L 176.896235 108.462836 
L 177.97763 109.509261 
L 179.059026 112.019505 
L 180.140421 116.709257 
L 181.221816 123.532807 
L 182.303212 131.264901 
L 183.384607 138.088451 
L 184.466002 142.778203 
L 185.547398 145.288447 
L 186.628793 146.334872 
L 187.710188 146.674596 
L 189.872979 146.777406 
L 219.070654 146.774119 
L 220.152049 146.735772 
L 221.233444 146.54103 
L 222.31484 145.770811 
L 223.396235 143.398369 
L 224.47763 137.707175 
L 225.559026 127.074625 
L 226.640421 111.604357 
L 227.721816 94.074246 
L 228.803212 78.603977 
L 229.884607 67.971427 
L 230.966002 62.280234 
L 232.047398 59.907791 
L 233.128793 59.137572 
L 234.210188 58.94283 
L 238.53577 58.898602 
L 265.570654 58.94283 
L 266.652049 59.137572 
L 267.733444 59.907791 
L 268.81484 62.280234 
L 269.896235 67.971427 
L 270.97763 78.603977 
L 272.059026 94.074246 
L 273.140421 111.604357 
L 274.221816 127.074625 
L 275.303212 137.707175 
L 276.384607 143.398369 
L 277.466002 145.770811 
L 278.547398 146.54103 
L 279.628793 146.735772 
L 283.954374 146.78 
L 314.038095 146.78 
L 314.038095 146.78 
" style="fill:none;stroke:#cccccc;stroke-linecap:square;stroke-width:1.75;"/>
   </g>
   <g id="matplotlib.axis_1"/>
   <g id="matplotlib.axis_2">
    <g id="ytick_1">
     <g id="line2d_38">
      <defs>
       <path d="M 0 0 
L -3.5 0 
" id="me8dadd4484" style="stroke:#000000;stroke-width:0.8;"/>
      </defs>
      <g>
       <use style="stroke:#000000;stroke-width:0.8;" x="23.338095" xlink:href="#me8dadd4484" y="146.78"/>
      </g>
     </g>
     <g id="text_1">
      <!-- $0$ -->
      <defs>
       <path d="M 42 31.640625 
C 42 37.75 41.90625 48.125 37.703125 56.109375 
C 34 63.109375 28.09375 65.59375 22.90625 65.59375 
C 18.09375 65.59375 12 63.40625 8.203125 56.203125 
C 4.203125 48.71875 3.796875 39.4375 3.796875 31.640625 
C 3.796875 25.953125 3.90625 17.28125 7 9.671875 
C 11.296875 -0.609375 19 -2 22.90625 -2 
C 27.5 -2 34.5 -0.109375 38.59375 9.375 
C 41.59375 16.28125 42 24.359375 42 31.640625 
z
M 22.90625 -0.40625 
C 16.5 -0.40625 12.703125 5.078125 11.296875 12.6875 
C 10.203125 18.5625 10.203125 27.15625 10.203125 32.75 
C 10.203125 40.4375 10.203125 46.828125 11.5 52.921875 
C 13.40625 61.390625 19 64 22.90625 64 
C 27 64 32.296875 61.296875 34.203125 53.125 
C 35.5 47.4375 35.59375 40.734375 35.59375 32.75 
C 35.59375 26.25 35.59375 18.265625 34.40625 12.375 
C 32.296875 1.484375 26.40625 -0.40625 22.90625 -0.40625 
z
" id="CMR17-48"/>
      </defs>
      <g transform="translate(7.2 153.87832)scale(0.2 -0.2)">
       <use transform="scale(0.996264)" xlink:href="#CMR17-48"/>
      </g>
     </g>
    </g>
    <g id="ytick_2">
     <g id="line2d_39">
      <g>
       <use style="stroke:#000000;stroke-width:0.8;" x="23.338095" xlink:href="#me8dadd4484" y="45.98"/>
      </g>
     </g>
     <g id="text_2">
      <!-- $1$ -->
      <defs>
       <path d="M 26.59375 63.40625 
C 26.59375 65.5 26.5 65.5 25.09375 65.5 
C 21.203125 61.1875 15.296875 59.796875 9.703125 59.796875 
C 9.40625 59.796875 8.90625 59.796875 8.796875 59.5 
C 8.703125 59.296875 8.703125 59.09375 8.703125 57 
C 11.796875 57 17 57.59375 21 59.984375 
L 21 7.203125 
C 21 3.6875 20.796875 2.5 12.203125 2.5 
L 9.203125 2.5 
L 9.203125 0 
C 14 0 19 0 23.796875 0 
C 28.59375 0 33.59375 0 38.40625 0 
L 38.40625 2.5 
L 35.40625 2.5 
C 26.796875 2.5 26.59375 3.59375 26.59375 7.15625 
z
" id="CMR17-49"/>
      </defs>
      <g transform="translate(7.2 53.07832)scale(0.2 -0.2)">
       <use transform="scale(0.996264)" xlink:href="#CMR17-49"/>
      </g>
     </g>
    </g>
   </g>
   <g id="line2d_40">
    <path clip-path="url(#p1cf4047e07)" d="M 0.628793 146.78 
L 38.47763 146.748698 
L 39.559026 146.61087 
L 40.640421 146.065748 
L 41.721816 144.386656 
L 42.803212 140.358724 
L 43.884607 132.833555 
L 44.966002 121.884499 
L 46.047398 109.477593 
L 47.128793 98.528537 
L 48.210188 91.003368 
L 49.291584 86.975436 
L 50.372979 85.296343 
L 51.454374 84.751222 
L 53.617165 84.586254 
L 81.733444 84.582092 
L 83.896235 84.613394 
L 84.97763 84.751222 
L 86.059026 85.296343 
L 87.140421 86.975436 
L 88.221816 91.003368 
L 89.303212 98.528537 
L 90.384607 109.477593 
L 91.466002 121.884499 
L 92.547398 132.833555 
L 93.628793 140.358724 
L 94.710188 144.386656 
L 95.791584 146.065748 
L 96.872979 146.61087 
L 99.03577 146.775838 
L 127.152049 146.78 
L 129.31484 146.729924 
L 130.396235 146.50943 
L 131.47763 145.63736 
L 132.559026 142.951197 
L 133.640421 136.507425 
L 134.721816 124.468874 
L 135.803212 106.952886 
L 136.884607 87.104672 
L 137.966002 69.588684 
L 139.047398 57.550133 
L 140.128793 51.106361 
L 141.210188 48.420198 
L 142.291584 47.548128 
L 143.372979 47.327634 
L 146.617165 47.277558 
L 174.733444 47.327634 
L 175.81484 47.548128 
L 176.896235 48.420198 
L 177.97763 51.106361 
L 179.059026 57.550133 
L 180.140421 69.588684 
L 181.221816 87.104672 
L 182.303212 106.952886 
L 183.384607 124.468874 
L 184.466002 136.507425 
L 185.547398 142.951197 
L 186.628793 145.63736 
L 187.710188 146.50943 
L 188.791584 146.729924 
L 192.03577 146.78 
L 220.152049 146.729331 
L 221.233444 146.506228 
L 222.31484 145.623836 
L 223.396235 142.905877 
L 224.47763 136.385833 
L 225.559026 124.204788 
L 226.640421 106.481472 
L 227.721816 86.398324 
L 228.803212 68.675008 
L 229.884607 56.493962 
L 230.966002 49.973919 
L 232.047398 47.25596 
L 233.128793 46.373568 
L 234.210188 46.150465 
L 237.454374 46.099796 
L 265.570654 46.150465 
L 266.652049 46.373568 
L 267.733444 47.25596 
L 268.81484 49.973919 
L 269.896235 56.493962 
L 270.97763 68.675008 
L 272.059026 86.398324 
L 273.140421 106.481472 
L 274.221816 124.204788 
L 275.303212 136.385833 
L 276.384607 142.905877 
L 277.466002 145.623836 
L 278.547398 146.506228 
L 279.628793 146.729331 
L 282.872979 146.78 
L 314.038095 146.78 
L 314.038095 146.78 
" style="fill:none;stroke:#1764ab;stroke-linecap:square;stroke-width:2;"/>
   </g>
   <g id="patch_6">
    <path d="M 23.338095 149.3 
L 23.338095 10.7 
" style="fill:none;stroke:#000000;stroke-linecap:square;stroke-linejoin:miter;stroke-width:0.8;"/>
   </g>
   <g id="patch_7">
    <path d="M 302.338095 149.3 
L 302.338095 10.7 
" style="fill:none;stroke:#000000;stroke-linecap:square;stroke-linejoin:miter;stroke-width:0.8;"/>
   </g>
   <g id="patch_8">
    <path d="M 23.338095 149.3 
L 302.338095 149.3 
" style="fill:none;stroke:#000000;stroke-linecap:square;stroke-linejoin:miter;stroke-width:0.8;"/>
   </g>
   <g id="patch_9">
    <path d="M 23.338095 10.7 
L 302.338095 10.7 
" style="fill:none;stroke:#000000;stroke-linecap:square;stroke-linejoin:miter;stroke-width:0.8;"/>
   </g>
   <g id="line2d_41">
    <path clip-path="url(#p1cf4047e07)" d="M 0.628793 146.78 
L 41.721816 146.689705 
L 42.803212 146.53774 
L 43.884607 146.253834 
L 48.210188 144.67568 
L 50.372979 144.460367 
L 56.861351 144.43342 
L 87.140421 144.523715 
L 88.221816 144.67568 
L 89.303212 144.959586 
L 93.628793 146.53774 
L 95.791584 146.753053 
L 102.279956 146.78 
L 129.31484 146.755633 
L 130.396235 146.648339 
L 131.47763 146.223985 
L 132.559026 144.916882 
L 133.640421 141.781304 
L 134.721816 135.923274 
L 135.803212 127.39989 
L 136.884607 117.741631 
L 137.966002 109.218247 
L 139.047398 103.360217 
L 140.128793 100.224639 
L 141.210188 98.917536 
L 142.291584 98.493182 
L 144.454374 98.364761 
L 173.652049 98.364761 
L 175.81484 98.493182 
L 176.896235 98.917536 
L 177.97763 100.224639 
L 179.059026 103.360217 
L 180.140421 109.218247 
L 181.221816 117.741631 
L 182.303212 127.39989 
L 183.384607 135.923274 
L 184.466002 141.781304 
L 185.547398 144.916882 
L 186.628793 146.223985 
L 187.710188 146.648339 
L 189.872979 146.77676 
L 219.070654 146.773863 
L 220.152049 146.733847 
L 221.233444 146.530627 
L 222.31484 145.726879 
L 223.396235 143.251158 
L 224.47763 137.312213 
L 225.559026 126.216803 
L 226.640421 110.073077 
L 227.721816 91.779838 
L 228.803212 75.636112 
L 229.884607 64.540702 
L 230.966002 58.601757 
L 232.047398 56.126037 
L 233.128793 55.322288 
L 234.210188 55.119068 
L 237.454374 55.072915 
L 265.570654 55.119068 
L 266.652049 55.322288 
L 267.733444 56.126037 
L 268.81484 58.601757 
L 269.896235 64.540702 
L 270.97763 75.636112 
L 272.059026 91.779838 
L 273.140421 110.073077 
L 274.221816 126.216803 
L 275.303212 137.312213 
L 276.384607 143.251158 
L 277.466002 145.726879 
L 278.547398 146.530627 
L 279.628793 146.733847 
L 282.872979 146.78 
L 314.038095 146.78 
L 314.038095 146.78 
" style="fill:none;stroke:#c54102;stroke-linecap:square;stroke-width:2;"/>
   </g>
   <g id="line2d_42">
    <path clip-path="url(#p1cf4047e07)" d="M 0.628793 146.78 
L 39.559026 146.733032 
L 40.640421 146.581651 
L 41.721816 146.115364 
L 42.803212 144.9968 
L 43.884607 142.907047 
L 44.966002 139.866474 
L 46.047398 136.421053 
L 47.128793 133.38048 
L 48.210188 131.290727 
L 49.291584 130.172163 
L 50.372979 129.705876 
L 51.454374 129.554495 
L 55.779956 129.507527 
L 84.97763 129.554495 
L 86.059026 129.705876 
L 87.140421 130.172163 
L 88.221816 131.290727 
L 89.303212 133.38048 
L 90.384607 136.421053 
L 91.466002 139.866474 
L 92.547398 142.907047 
L 93.628793 144.9968 
L 94.710188 146.115364 
L 95.791584 146.581651 
L 96.872979 146.733032 
L 101.198561 146.78 
L 129.31484 146.734032 
L 130.396235 146.531625 
L 131.47763 145.73109 
L 132.559026 143.265268 
L 133.640421 137.350071 
L 134.721816 126.299027 
L 135.803212 110.219853 
L 136.884607 91.999762 
L 137.966002 75.920588 
L 139.047398 64.869544 
L 140.128793 58.954346 
L 141.210188 56.488525 
L 142.291584 55.68799 
L 143.372979 55.485583 
L 146.617165 55.439615 
L 174.733444 55.485583 
L 175.81484 55.68799 
L 176.896235 56.488525 
L 177.97763 58.954346 
L 179.059026 64.869544 
L 180.140421 75.920588 
L 181.221816 91.999762 
L 182.303212 110.219853 
L 183.384607 126.299027 
L 184.466002 137.350071 
L 185.547398 143.265268 
L 186.628793 145.73109 
L 187.710188 146.531625 
L 188.791584 146.734032 
L 192.03577 146.78 
L 220.152049 146.729746 
L 221.233444 146.508469 
L 222.31484 145.6333 
L 223.396235 142.93759 
L 224.47763 136.470919 
L 225.559026 124.389587 
L 226.640421 106.811353 
L 227.721816 86.892604 
L 228.803212 69.31437 
L 229.884607 57.233038 
L 230.966002 50.766367 
L 232.047398 48.070658 
L 233.128793 47.195489 
L 234.210188 46.974212 
L 237.454374 46.923958 
L 265.570654 46.974212 
L 266.652049 47.195489 
L 267.733444 48.070658 
L 268.81484 50.766367 
L 269.896235 57.233038 
L 270.97763 69.31437 
L 272.059026 86.892604 
L 273.140421 106.811353 
L 274.221816 124.389587 
L 275.303212 136.470919 
L 276.384607 142.93759 
L 277.466002 145.6333 
L 278.547398 146.508469 
L 279.628793 146.729746 
L 282.872979 146.78 
L 314.038095 146.78 
L 314.038095 146.78 
" style="fill:none;stroke:#157f3b;stroke-linecap:square;stroke-width:2;"/>
   </g>
  </g>
 </g>
 <defs>
  <clipPath id="p1cf4047e07">
   <rect height="138.6" width="279" x="23.338095" y="10.7"/>
  </clipPath>
 </defs>
</svg>
