<?xml version="1.0" encoding="utf-8" standalone="no"?>
<!DOCTYPE svg PUBLIC "-//W3C//DTD SVG 1.1//EN"
  "http://www.w3.org/Graphics/SVG/1.1/DTD/svg11.dtd">
<!-- Created with matplotlib (http://matplotlib.org/) -->
<svg height="160pt" version="1.1" viewBox="0 0 300 160" width="300pt" xmlns="http://www.w3.org/2000/svg" xmlns:xlink="http://www.w3.org/1999/xlink">
 <defs>
  <style type="text/css">
*{stroke-linecap:butt;stroke-linejoin:round;}
  </style>
 </defs>
 <g id="figure_1">
  <g id="patch_1">
   <path d="M 0 160 
L 300.4 160 
L 300.4 0 
L 0 0 
z
" style="fill:#ffffff;"/>
  </g>
  <g id="axes_1">
   <g id="patch_2">
    <path d="M 10.7 149.3 
L 289.7 149.3 
L 289.7 10.7 
L 10.7 10.7 
z
" style="fill:#ffffff;"/>
   </g>
   <g id="patch_3">
    <path clip-path="url(#p5c90d98306)" d="M 33.409302 149.3 
L 33.409302 10.7 
L 78.827907 10.7 
L 78.827907 149.3 
z
" style="fill:#fed9c9;stroke:#fed9c9;stroke-linejoin:miter;"/>
   </g>
   <g id="patch_4">
    <path clip-path="url(#p5c90d98306)" d="M 124.246512 149.3 
L 124.246512 10.7 
L 169.665116 10.7 
L 169.665116 149.3 
z
" style="fill:#fed9c9;stroke:#fed9c9;stroke-linejoin:miter;"/>
   </g>
   <g id="patch_5">
    <path clip-path="url(#p5c90d98306)" d="M 215.083721 149.3 
L 215.083721 10.7 
L 260.502326 10.7 
L 260.502326 149.3 
z
" style="fill:#fed9c9;stroke:#fed9c9;stroke-linejoin:miter;"/>
   </g>
   <g id="line2d_1">
    <path clip-path="url(#p5c90d98306)" d="M -1 146 
L 26.92093 145.973602 
L 28.002326 145.888519 
L 29.083721 145.626446 
L 30.165116 144.997764 
L 31.246512 143.823232 
L 32.327907 142.114297 
L 34.490698 138.468887 
L 35.572093 137.294354 
L 36.653488 136.665673 
L 37.734884 136.403599 
L 39.897674 136.297004 
L 69.095349 136.292118 
L 73.42093 136.403599 
L 74.502326 136.665673 
L 75.583721 137.294354 
L 76.665116 138.468887 
L 77.746512 140.177821 
L 79.909302 143.823232 
L 80.990698 144.997764 
L 82.072093 145.626446 
L 83.153488 145.888519 
L 85.316279 145.995114 
L 114.513953 146 
L 116.676744 145.94811 
L 117.75814 145.719627 
L 118.839535 144.815961 
L 119.92093 142.032474 
L 121.002326 135.355235 
L 122.083721 122.880511 
L 123.165116 104.729894 
L 124.246512 84.162551 
L 125.327907 66.011935 
L 126.409302 53.537211 
L 127.490698 46.859972 
L 128.572093 44.076485 
L 129.653488 43.172819 
L 130.734884 42.944336 
L 133.97907 42.892446 
L 162.095349 42.944336 
L 163.176744 43.172819 
L 164.25814 44.076485 
L 165.339535 46.859972 
L 166.42093 53.537211 
L 167.502326 66.011935 
L 168.583721 84.162551 
L 169.665116 104.729894 
L 170.746512 122.880511 
L 171.827907 135.355235 
L 172.909302 142.032474 
L 173.990698 144.815961 
L 175.072093 145.719627 
L 176.153488 145.94811 
L 179.397674 146 
L 207.513953 145.935258 
L 208.595349 145.650187 
L 209.676744 144.522712 
L 210.75814 141.049842 
L 211.839535 132.71886 
L 212.92093 117.154538 
L 214.002326 94.508582 
L 215.083721 68.847352 
L 216.165116 46.201397 
L 217.246512 30.637074 
L 218.327907 22.306093 
L 219.409302 18.833223 
L 220.490698 17.705747 
L 221.572093 17.420677 
L 224.816279 17.355935 
L 252.932558 17.420677 
L 254.013953 17.705747 
L 255.095349 18.833223 
L 256.176744 22.306093 
L 257.25814 30.637074 
L 258.339535 46.201397 
L 259.42093 68.847352 
L 260.502326 94.508582 
L 261.583721 117.154538 
L 262.665116 132.71886 
L 263.746512 141.049842 
L 264.827907 144.522712 
L 265.909302 145.650187 
L 266.990698 145.935258 
L 270.234884 146 
L 301.4 146 
L 301.4 146 
" style="fill:none;stroke:#b2b2b2;stroke-linecap:square;stroke-width:1.5;"/>
   </g>
   <g id="line2d_2">
    <path clip-path="url(#p5c90d98306)" d="M -1 146 
L 25.839535 145.956185 
L 26.92093 145.763258 
L 28.002326 145.000216 
L 29.083721 142.649884 
L 30.165116 137.011731 
L 31.246512 126.478274 
L 32.327907 111.152184 
L 33.409302 93.785449 
L 34.490698 78.459359 
L 35.572093 67.925901 
L 36.653488 62.287748 
L 37.734884 59.937416 
L 38.816279 59.174375 
L 39.897674 58.981448 
L 44.223256 58.937632 
L 71.25814 58.981448 
L 72.339535 59.174375 
L 73.42093 59.937416 
L 74.502326 62.287748 
L 75.583721 67.925901 
L 76.665116 78.459359 
L 77.746512 93.785449 
L 78.827907 111.152184 
L 79.909302 126.478274 
L 80.990698 137.011731 
L 82.072093 142.649884 
L 83.153488 145.000216 
L 84.234884 145.763258 
L 85.316279 145.956185 
L 89.64186 146 
L 116.676744 145.934283 
L 117.75814 145.644918 
L 118.839535 144.50046 
L 119.92093 140.975279 
L 121.002326 132.518809 
L 122.083721 116.720045 
L 123.165116 93.732978 
L 124.246512 67.685218 
L 125.327907 44.698151 
L 126.409302 28.899386 
L 127.490698 20.442917 
L 128.572093 16.917736 
L 129.653488 15.773277 
L 130.734884 15.483913 
L 133.97907 15.418196 
L 162.095349 15.483913 
L 163.176744 15.773277 
L 164.25814 16.917736 
L 165.339535 20.442917 
L 166.42093 28.899386 
L 167.502326 44.698151 
L 168.583721 67.685218 
L 169.665116 93.732978 
L 170.746512 116.720045 
L 171.827907 132.518809 
L 172.909302 140.975279 
L 173.990698 144.50046 
L 175.072093 145.644918 
L 176.153488 145.934283 
L 179.397674 146 
L 207.513953 145.933636 
L 208.595349 145.641424 
L 209.676744 144.485703 
L 210.75814 140.925832 
L 211.839535 132.386145 
L 212.92093 116.431909 
L 214.002326 93.218633 
L 215.083721 66.914545 
L 216.165116 43.701269 
L 217.246512 27.747034 
L 218.327907 19.207347 
L 219.409302 15.647476 
L 220.490698 14.491755 
L 221.572093 14.199543 
L 224.816279 14.133179 
L 252.932558 14.199543 
L 254.013953 14.491755 
L 255.095349 15.647476 
L 256.176744 19.207347 
L 257.25814 27.747034 
L 258.339535 43.701269 
L 259.42093 66.914545 
L 260.502326 93.218633 
L 261.583721 116.431909 
L 262.665116 132.386145 
L 263.746512 140.925832 
L 264.827907 144.485703 
L 265.909302 145.641424 
L 266.990698 145.933636 
L 270.234884 146 
L 301.4 146 
L 301.4 146 
" style="fill:none;stroke:#b2b2b2;stroke-linecap:square;stroke-width:1.5;"/>
   </g>
   <g id="line2d_3">
    <path clip-path="url(#p5c90d98306)" d="M -1 146 
L 28.002326 145.933386 
L 29.083721 145.776789 
L 30.165116 145.40113 
L 31.246512 144.699308 
L 34.490698 141.499906 
L 35.572093 140.798084 
L 36.653488 140.422425 
L 38.816279 140.214987 
L 48.548837 140.199214 
L 73.42093 140.265827 
L 74.502326 140.422425 
L 75.583721 140.798084 
L 76.665116 141.499906 
L 79.909302 144.699308 
L 80.990698 145.40113 
L 82.072093 145.776789 
L 84.234884 145.984226 
L 93.967442 146 
L 116.676744 145.955885 
L 117.75814 145.76164 
L 118.839535 144.993383 
L 119.92093 142.626988 
L 121.002326 136.950301 
L 122.083721 126.344853 
L 123.165116 110.914017 
L 124.246512 93.42859 
L 125.327907 77.997754 
L 126.409302 67.392306 
L 127.490698 61.715619 
L 128.572093 59.349224 
L 129.653488 58.580968 
L 130.734884 58.386722 
L 135.060465 58.342607 
L 162.095349 58.386722 
L 163.176744 58.580968 
L 164.25814 59.349224 
L 165.339535 61.715619 
L 166.42093 67.392306 
L 167.502326 77.997754 
L 168.583721 93.42859 
L 169.665116 110.914017 
L 170.746512 126.344853 
L 171.827907 136.950301 
L 172.909302 142.626988 
L 173.990698 144.993383 
L 175.072093 145.76164 
L 176.153488 145.955885 
L 180.47907 146 
L 207.513953 145.936559 
L 208.595349 145.65722 
L 209.676744 144.55241 
L 210.75814 141.149356 
L 211.839535 132.985853 
L 212.92093 117.734422 
L 214.002326 95.543722 
L 215.083721 70.398363 
L 216.165116 48.207663 
L 217.246512 32.956232 
L 218.327907 24.792729 
L 219.409302 21.389675 
L 220.490698 20.284865 
L 221.572093 20.005525 
L 224.816279 19.942085 
L 252.932558 20.005525 
L 254.013953 20.284865 
L 255.095349 21.389675 
L 256.176744 24.792729 
L 257.25814 32.956232 
L 258.339535 48.207663 
L 259.42093 70.398363 
L 260.502326 95.543722 
L 261.583721 117.734422 
L 262.665116 132.985853 
L 263.746512 141.149356 
L 264.827907 144.55241 
L 265.909302 145.65722 
L 266.990698 145.936559 
L 270.234884 146 
L 301.4 146 
L 301.4 146 
" style="fill:none;stroke:#b2b2b2;stroke-linecap:square;stroke-width:1.5;"/>
   </g>
   <g id="line2d_4">
    <path clip-path="url(#p5c90d98306)" d="M -1 146 
L 28.002326 145.938878 
L 29.083721 145.795191 
L 30.165116 145.450504 
L 31.246512 144.806543 
L 34.490698 141.870917 
L 35.572093 141.226956 
L 36.653488 140.882269 
L 38.816279 140.691933 
L 49.630233 140.67746 
L 73.42093 140.738582 
L 74.502326 140.882269 
L 75.583721 141.226956 
L 76.665116 141.870917 
L 79.909302 144.806543 
L 80.990698 145.450504 
L 82.072093 145.795191 
L 84.234884 145.985527 
L 95.048837 146 
L 116.676744 145.95739 
L 117.75814 145.769773 
L 118.839535 145.027731 
L 119.92093 142.74208 
L 121.002326 137.259089 
L 122.083721 127.015514 
L 123.165116 112.111199 
L 124.246512 95.222398 
L 125.327907 80.318084 
L 126.409302 70.074508 
L 127.490698 64.591517 
L 128.572093 62.305867 
L 129.653488 61.563824 
L 130.734884 61.376207 
L 135.060465 61.333597 
L 162.095349 61.376207 
L 163.176744 61.563824 
L 164.25814 62.305867 
L 165.339535 64.591517 
L 166.42093 70.074508 
L 167.502326 80.318084 
L 168.583721 95.222398 
L 169.665116 112.111199 
L 170.746512 127.015514 
L 171.827907 137.259089 
L 172.909302 142.74208 
L 173.990698 145.027731 
L 175.072093 145.769773 
L 176.153488 145.95739 
L 180.47907 146 
L 207.513953 145.936859 
L 208.595349 145.658839 
L 209.676744 144.559246 
L 210.75814 141.172263 
L 211.839535 133.047312 
L 212.92093 117.867906 
L 214.002326 95.782001 
L 215.083721 70.755392 
L 216.165116 48.669486 
L 217.246512 33.49008 
L 218.327907 25.36513 
L 219.409302 21.978147 
L 220.490698 20.878554 
L 221.572093 20.600534 
L 224.816279 20.537393 
L 252.932558 20.600534 
L 254.013953 20.878554 
L 255.095349 21.978147 
L 256.176744 25.36513 
L 257.25814 33.49008 
L 258.339535 48.669486 
L 259.42093 70.755392 
L 260.502326 95.782001 
L 261.583721 117.867906 
L 262.665116 133.047312 
L 263.746512 141.172263 
L 264.827907 144.559246 
L 265.909302 145.658839 
L 266.990698 145.936859 
L 270.234884 146 
L 301.4 146 
L 301.4 146 
" style="fill:none;stroke:#b2b2b2;stroke-linecap:square;stroke-width:1.5;"/>
   </g>
   <g id="line2d_5">
    <path clip-path="url(#p5c90d98306)" d="M -1 146 
L 26.92093 145.956115 
L 28.002326 145.81467 
L 29.083721 145.37899 
L 30.165116 144.333846 
L 31.246512 142.38126 
L 32.327907 139.540265 
L 33.409302 136.320996 
L 34.490698 133.480001 
L 35.572093 131.527416 
L 36.653488 130.482272 
L 37.734884 130.046591 
L 39.897674 129.869384 
L 57.2 129.861262 
L 72.339535 129.905147 
L 73.42093 130.046591 
L 74.502326 130.482272 
L 75.583721 131.527416 
L 76.665116 133.480001 
L 77.746512 136.320996 
L 78.827907 139.540265 
L 79.909302 142.38126 
L 80.990698 144.333846 
L 82.072093 145.37899 
L 83.153488 145.81467 
L 85.316279 145.991878 
L 102.618605 146 
L 116.676744 145.942519 
L 117.75814 145.68942 
L 118.839535 144.688393 
L 119.92093 141.605014 
L 121.002326 134.208371 
L 122.083721 120.389624 
L 123.165116 100.283465 
L 124.246512 77.500202 
L 125.327907 57.394043 
L 126.409302 43.575296 
L 127.490698 36.178654 
L 128.572093 33.095274 
L 129.653488 32.094248 
L 130.734884 31.841148 
L 133.97907 31.783667 
L 162.095349 31.841148 
L 163.176744 32.094248 
L 164.25814 33.095274 
L 165.339535 36.178654 
L 166.42093 43.575296 
L 167.502326 57.394043 
L 168.583721 77.500202 
L 169.665116 100.283465 
L 170.746512 120.389624 
L 171.827907 134.208371 
L 172.909302 141.605014 
L 173.990698 144.688393 
L 175.072093 145.68942 
L 176.153488 145.942519 
L 179.397674 146 
L 207.513953 145.934518 
L 208.595349 145.646188 
L 209.676744 144.505821 
L 210.75814 140.993244 
L 211.839535 132.567009 
L 212.92093 116.824729 
L 214.002326 93.919848 
L 215.083721 67.965217 
L 216.165116 45.060335 
L 217.246512 29.318056 
L 218.327907 20.891821 
L 219.409302 17.379244 
L 220.490698 16.238877 
L 221.572093 15.950547 
L 224.816279 15.885064 
L 252.932558 15.950547 
L 254.013953 16.238877 
L 255.095349 17.379244 
L 256.176744 20.891821 
L 257.25814 29.318056 
L 258.339535 45.060335 
L 259.42093 67.965217 
L 260.502326 93.919848 
L 261.583721 116.824729 
L 262.665116 132.567009 
L 263.746512 140.993244 
L 264.827907 144.505821 
L 265.909302 145.646188 
L 266.990698 145.934518 
L 270.234884 146 
L 301.4 146 
L 301.4 146 
" style="fill:none;stroke:#b2b2b2;stroke-linecap:square;stroke-width:1.5;"/>
   </g>
   <g id="line2d_6">
    <path clip-path="url(#p5c90d98306)" d="M -1 146 
L 28.002326 145.941614 
L 29.083721 145.804359 
L 30.165116 145.475102 
L 31.246512 144.859967 
L 34.490698 142.05575 
L 35.572093 141.440616 
L 36.653488 141.111358 
L 38.816279 140.929543 
L 50.711628 140.915717 
L 73.42093 140.974103 
L 74.502326 141.111358 
L 75.583721 141.440616 
L 76.665116 142.05575 
L 79.909302 144.859967 
L 80.990698 145.475102 
L 82.072093 145.804359 
L 84.234884 145.986175 
L 96.130233 146 
L 116.676744 145.958214 
L 117.75814 145.774222 
L 118.839535 145.046521 
L 119.92093 142.805043 
L 121.002326 137.428018 
L 122.083721 127.382412 
L 123.165116 112.766142 
L 124.246512 96.203738 
L 125.327907 81.587468 
L 126.409302 71.541862 
L 127.490698 66.164837 
L 128.572093 63.923359 
L 129.653488 63.195658 
L 130.734884 63.011666 
L 135.060465 62.96988 
L 162.095349 63.011666 
L 163.176744 63.195658 
L 164.25814 63.923359 
L 165.339535 66.164837 
L 166.42093 71.541862 
L 167.502326 81.587468 
L 168.583721 96.203738 
L 169.665116 112.766142 
L 170.746512 127.382412 
L 171.827907 137.428018 
L 172.909302 142.805043 
L 173.990698 145.046521 
L 175.072093 145.774222 
L 176.153488 145.958214 
L 180.47907 146 
L 207.513953 145.937031 
L 208.595349 145.659767 
L 209.676744 144.563166 
L 210.75814 141.185399 
L 211.839535 133.082557 
L 212.92093 117.944455 
L 214.002326 95.918646 
L 215.083721 70.960135 
L 216.165116 48.934327 
L 217.246512 33.796225 
L 218.327907 25.693383 
L 219.409302 22.315616 
L 220.490698 21.219015 
L 221.572093 20.941751 
L 224.816279 20.878782 
L 252.932558 20.941751 
L 254.013953 21.219015 
L 255.095349 22.315616 
L 256.176744 25.693383 
L 257.25814 33.796225 
L 258.339535 48.934327 
L 259.42093 70.960135 
L 260.502326 95.918646 
L 261.583721 117.944455 
L 262.665116 133.082557 
L 263.746512 141.185399 
L 264.827907 144.563166 
L 265.909302 145.659767 
L 266.990698 145.937031 
L 270.234884 146 
L 301.4 146 
L 301.4 146 
" style="fill:none;stroke:#b2b2b2;stroke-linecap:square;stroke-width:1.5;"/>
   </g>
   <g id="line2d_7">
    <path clip-path="url(#p5c90d98306)" d="M -1 146 
L 28.002326 145.961142 
L 29.083721 145.869793 
L 30.165116 145.650657 
L 31.246512 145.241258 
L 35.572093 142.965529 
L 36.653488 142.746393 
L 38.816279 142.625387 
L 56.118605 142.616186 
L 73.42093 142.655044 
L 74.502326 142.746393 
L 75.583721 142.965529 
L 76.665116 143.374928 
L 80.990698 145.650657 
L 82.072093 145.869793 
L 84.234884 145.990799 
L 101.537209 146 
L 116.676744 145.966125 
L 117.75814 145.816968 
L 118.839535 145.227041 
L 119.92093 143.409939 
L 121.002326 139.050937 
L 122.083721 130.907248 
L 123.165116 119.058251 
L 124.246512 105.631579 
L 125.327907 93.782582 
L 126.409302 85.638893 
L 127.490698 81.279891 
L 128.572093 79.462788 
L 129.653488 78.872862 
L 130.734884 78.723705 
L 135.060465 78.68983 
L 162.095349 78.723705 
L 163.176744 78.872862 
L 164.25814 79.462788 
L 165.339535 81.279891 
L 166.42093 85.638893 
L 167.502326 93.782582 
L 168.583721 105.631579 
L 169.665116 119.058251 
L 170.746512 130.907248 
L 171.827907 139.050937 
L 172.909302 143.409939 
L 173.990698 145.227041 
L 175.072093 145.816968 
L 176.153488 145.966125 
L 180.47907 146 
L 207.513953 145.939039 
L 208.595349 145.670616 
L 209.676744 144.608982 
L 210.75814 141.338921 
L 211.839535 133.494452 
L 212.92093 118.839054 
L 214.002326 97.515576 
L 215.083721 73.35291 
L 216.165116 52.029431 
L 217.246512 37.374034 
L 218.327907 29.529564 
L 219.409302 26.259503 
L 220.490698 25.19787 
L 221.572093 24.929447 
L 224.816279 24.868485 
L 252.932558 24.929447 
L 254.013953 25.19787 
L 255.095349 26.259503 
L 256.176744 29.529564 
L 257.25814 37.374034 
L 258.339535 52.029431 
L 259.42093 73.35291 
L 260.502326 97.515576 
L 261.583721 118.839054 
L 262.665116 133.494452 
L 263.746512 141.338921 
L 264.827907 144.608982 
L 265.909302 145.670616 
L 266.990698 145.939039 
L 270.234884 146 
L 301.4 146 
L 301.4 146 
" style="fill:none;stroke:#b2b2b2;stroke-linecap:square;stroke-width:1.5;"/>
   </g>
   <g id="line2d_8">
    <path clip-path="url(#p5c90d98306)" d="M -1 146 
L 29.083721 145.909614 
L 30.165116 145.757498 
L 31.246512 145.473306 
L 35.572093 143.89357 
L 37.734884 143.678042 
L 44.223256 143.651068 
L 74.502326 143.741453 
L 75.583721 143.89357 
L 76.665116 144.177761 
L 80.990698 145.757498 
L 83.153488 145.973026 
L 89.64186 146 
L 116.676744 145.973823 
L 117.75814 145.858564 
L 118.839535 145.402703 
L 119.92093 143.998553 
L 121.002326 140.630171 
L 122.083721 134.337207 
L 123.165116 125.180997 
L 124.246512 114.805652 
L 125.327907 105.649442 
L 126.409302 99.356477 
L 127.490698 95.988096 
L 128.572093 94.583946 
L 129.653488 94.128085 
L 131.816279 93.990129 
L 161.013953 93.990129 
L 163.176744 94.128085 
L 164.25814 94.583946 
L 165.339535 95.988096 
L 166.42093 99.356477 
L 167.502326 105.649442 
L 168.583721 114.805652 
L 169.665116 125.180997 
L 170.746512 134.337207 
L 171.827907 140.630171 
L 172.909302 143.998553 
L 173.990698 145.402703 
L 175.072093 145.858564 
L 177.234884 145.996519 
L 206.432558 145.992278 
L 207.513953 145.941927 
L 208.595349 145.686219 
L 209.676744 144.674877 
L 210.75814 141.559722 
L 211.839535 134.086856 
L 212.92093 120.125703 
L 214.002326 99.812346 
L 215.083721 76.794296 
L 216.165116 56.480939 
L 217.246512 42.519786 
L 218.327907 35.04692 
L 219.409302 31.931765 
L 220.490698 30.920423 
L 221.572093 30.664715 
L 224.816279 30.606642 
L 252.932558 30.664715 
L 254.013953 30.920423 
L 255.095349 31.931765 
L 256.176744 35.04692 
L 257.25814 42.519786 
L 258.339535 56.480939 
L 259.42093 76.794296 
L 260.502326 99.812346 
L 261.583721 120.125703 
L 262.665116 134.086856 
L 263.746512 141.559722 
L 264.827907 144.674877 
L 265.909302 145.686219 
L 266.990698 145.941927 
L 270.234884 146 
L 301.4 146 
L 301.4 146 
" style="fill:none;stroke:#b2b2b2;stroke-linecap:square;stroke-width:1.5;"/>
   </g>
   <g id="line2d_9">
    <path clip-path="url(#p5c90d98306)" d="M -1 146 
L 28.002326 145.959547 
L 29.083721 145.864449 
L 30.165116 145.63632 
L 31.246512 145.210119 
L 35.572093 142.840995 
L 36.653488 142.612866 
L 38.816279 142.486894 
L 55.037209 142.477315 
L 73.42093 142.517768 
L 74.502326 142.612866 
L 75.583721 142.840995 
L 76.665116 143.267196 
L 80.990698 145.63632 
L 82.072093 145.864449 
L 84.234884 145.990421 
L 100.455814 146 
L 116.676744 145.965303 
L 117.75814 145.812528 
L 118.839535 145.208289 
L 119.92093 143.347102 
L 121.002326 138.882346 
L 122.083721 130.541085 
L 123.165116 118.404622 
L 124.246512 104.652207 
L 125.327907 92.515743 
L 126.409302 84.174482 
L 127.490698 79.709727 
L 128.572093 77.84854 
L 129.653488 77.244301 
L 130.734884 77.091525 
L 135.060465 77.056828 
L 162.095349 77.091525 
L 163.176744 77.244301 
L 164.25814 77.84854 
L 165.339535 79.709727 
L 166.42093 84.174482 
L 167.502326 92.515743 
L 168.583721 104.652207 
L 169.665116 118.404622 
L 170.746512 130.541085 
L 171.827907 138.882346 
L 172.909302 143.347102 
L 173.990698 145.208289 
L 175.072093 145.812528 
L 176.153488 145.965303 
L 180.47907 146 
L 207.513953 145.938794 
L 208.595349 145.669295 
L 209.676744 144.603403 
L 210.75814 141.320227 
L 211.839535 133.444297 
L 212.92093 118.730121 
L 214.002326 97.321122 
L 215.083721 73.061548 
L 216.165116 51.65255 
L 217.246512 36.938374 
L 218.327907 29.062444 
L 219.409302 25.779267 
L 220.490698 24.713376 
L 221.572093 24.443877 
L 224.816279 24.382671 
L 252.932558 24.443877 
L 254.013953 24.713376 
L 255.095349 25.779267 
L 256.176744 29.062444 
L 257.25814 36.938374 
L 258.339535 51.65255 
L 259.42093 73.061548 
L 260.502326 97.321122 
L 261.583721 118.730121 
L 262.665116 133.444297 
L 263.746512 141.320227 
L 264.827907 144.603403 
L 265.909302 145.669295 
L 266.990698 145.938794 
L 270.234884 146 
L 301.4 146 
L 301.4 146 
" style="fill:none;stroke:#b2b2b2;stroke-linecap:square;stroke-width:1.5;"/>
   </g>
   <g id="line2d_10">
    <path clip-path="url(#p5c90d98306)" d="M -1 146 
L 26.92093 145.960059 
L 28.002326 145.831326 
L 29.083721 145.434802 
L 30.165116 144.483589 
L 31.246512 142.706488 
L 32.327907 140.120823 
L 33.409302 137.19088 
L 34.490698 134.605214 
L 35.572093 132.828114 
L 36.653488 131.876901 
L 37.734884 131.480376 
L 39.897674 131.319095 
L 59.362791 131.311703 
L 72.339535 131.351643 
L 73.42093 131.480376 
L 74.502326 131.876901 
L 75.583721 132.828114 
L 76.665116 134.605214 
L 77.746512 137.19088 
L 78.827907 140.120823 
L 79.909302 142.706488 
L 80.990698 144.483589 
L 82.072093 145.434802 
L 83.153488 145.831326 
L 85.316279 145.992608 
L 104.781395 146 
L 116.676744 145.943408 
L 117.75814 145.694226 
L 118.839535 144.708689 
L 119.92093 141.673023 
L 121.002326 134.390839 
L 122.083721 120.785928 
L 123.165116 100.9909 
L 124.246512 78.560194 
L 125.327907 58.765165 
L 126.409302 45.160255 
L 127.490698 37.878071 
L 128.572093 34.842405 
L 129.653488 33.856868 
L 130.734884 33.607685 
L 133.97907 33.551094 
L 162.095349 33.607685 
L 163.176744 33.856868 
L 164.25814 34.842405 
L 165.339535 37.878071 
L 166.42093 45.160255 
L 167.502326 58.765165 
L 168.583721 78.560194 
L 169.665116 100.9909 
L 170.746512 120.785928 
L 171.827907 134.390839 
L 172.909302 141.673023 
L 173.990698 144.708689 
L 175.072093 145.694226 
L 176.153488 145.943408 
L 179.397674 146 
L 207.513953 145.934627 
L 208.595349 145.646777 
L 209.676744 144.508308 
L 210.75814 141.001577 
L 211.839535 132.589368 
L 212.92093 116.873291 
L 214.002326 94.006534 
L 215.083721 68.095105 
L 216.165116 45.228348 
L 217.246512 29.512271 
L 218.327907 21.100062 
L 219.409302 17.593331 
L 220.490698 16.454862 
L 221.572093 16.167012 
L 224.816279 16.101639 
L 252.932558 16.167012 
L 254.013953 16.454862 
L 255.095349 17.593331 
L 256.176744 21.100062 
L 257.25814 29.512271 
L 258.339535 45.228348 
L 259.42093 68.095105 
L 260.502326 94.006534 
L 261.583721 116.873291 
L 262.665116 132.589368 
L 263.746512 141.001577 
L 264.827907 144.508308 
L 265.909302 145.646777 
L 266.990698 145.934627 
L 270.234884 146 
L 301.4 146 
L 301.4 146 
" style="fill:none;stroke:#b2b2b2;stroke-linecap:square;stroke-width:1.5;"/>
   </g>
   <g id="line2d_11">
    <path clip-path="url(#p5c90d98306)" d="M -1 146 
L 28.002326 145.966802 
L 30.165116 145.701542 
L 31.246512 145.351776 
L 35.572093 143.407527 
L 37.734884 143.142267 
L 43.14186 143.109069 
L 73.42093 143.142267 
L 75.583721 143.407527 
L 76.665116 143.757294 
L 80.990698 145.701542 
L 83.153488 145.966802 
L 88.560465 146 
L 116.676744 145.969403 
L 117.75814 145.834677 
L 118.839535 145.301829 
L 119.92093 143.660539 
L 121.002326 139.723289 
L 122.083721 132.367537 
L 123.165116 121.664982 
L 124.246512 109.537398 
L 125.327907 98.834843 
L 126.409302 91.479091 
L 127.490698 87.541841 
L 128.572093 85.900551 
L 129.653488 85.367703 
L 131.816279 85.206448 
L 161.013953 85.206448 
L 163.176744 85.367703 
L 164.25814 85.900551 
L 165.339535 87.541841 
L 166.42093 91.479091 
L 167.502326 98.834843 
L 168.583721 109.537398 
L 169.665116 121.664982 
L 170.746512 132.367537 
L 171.827907 139.723289 
L 172.909302 143.660539 
L 173.990698 145.301829 
L 175.072093 145.834677 
L 177.234884 145.995932 
L 205.351163 146 
L 207.513953 145.940122 
L 208.595349 145.676467 
L 209.676744 144.633691 
L 210.75814 141.421717 
L 211.839535 133.716591 
L 212.92093 119.321522 
L 214.002326 98.376819 
L 215.083721 74.643361 
L 216.165116 53.698658 
L 217.246512 39.303588 
L 218.327907 31.598462 
L 219.409302 28.386488 
L 220.490698 27.343712 
L 221.572093 27.080058 
L 224.816279 27.020179 
L 252.932558 27.080058 
L 254.013953 27.343712 
L 255.095349 28.386488 
L 256.176744 31.598462 
L 257.25814 39.303588 
L 258.339535 53.698658 
L 259.42093 74.643361 
L 260.502326 98.376819 
L 261.583721 119.321522 
L 262.665116 133.716591 
L 263.746512 141.421717 
L 264.827907 144.633691 
L 265.909302 145.676467 
L 266.990698 145.940122 
L 270.234884 146 
L 301.4 146 
L 301.4 146 
" style="fill:none;stroke:#b2b2b2;stroke-linecap:square;stroke-width:1.5;"/>
   </g>
   <g id="line2d_12">
    <path clip-path="url(#p5c90d98306)" d="M -1 146 
L 26.92093 145.970146 
L 28.002326 145.873923 
L 29.083721 145.577536 
L 30.165116 144.866541 
L 31.246512 143.538227 
L 32.327907 141.605542 
L 33.409302 139.415522 
L 34.490698 137.482837 
L 35.572093 136.154523 
L 36.653488 135.443528 
L 37.734884 135.147141 
L 39.897674 135.02659 
L 65.851163 135.021064 
L 72.339535 135.050919 
L 73.42093 135.147141 
L 74.502326 135.443528 
L 75.583721 136.154523 
L 76.665116 137.482837 
L 77.746512 139.415522 
L 78.827907 141.605542 
L 79.909302 143.538227 
L 80.990698 144.866541 
L 82.072093 145.577536 
L 83.153488 145.873923 
L 85.316279 145.994475 
L 111.269767 146 
L 116.676744 145.946573 
L 117.75814 145.711322 
L 118.839535 144.780889 
L 119.92093 141.914954 
L 121.002326 135.039932 
L 122.083721 122.195701 
L 123.165116 103.507455 
L 124.246512 82.330898 
L 125.327907 63.642652 
L 126.409302 50.79842 
L 127.490698 43.923399 
L 128.572093 41.057463 
L 129.653488 40.12703 
L 130.734884 39.89178 
L 133.97907 39.838353 
L 162.095349 39.89178 
L 163.176744 40.12703 
L 164.25814 41.057463 
L 165.339535 43.923399 
L 166.42093 50.79842 
L 167.502326 63.642652 
L 168.583721 82.330898 
L 169.665116 103.507455 
L 170.746512 122.195701 
L 171.827907 135.039932 
L 172.909302 141.914954 
L 173.990698 144.780889 
L 175.072093 145.711322 
L 176.153488 145.946573 
L 179.397674 146 
L 207.513953 145.935041 
L 208.595349 145.649013 
L 209.676744 144.517754 
L 210.75814 141.033229 
L 211.839535 132.674287 
L 212.92093 117.057729 
L 214.002326 94.335771 
L 215.083721 68.588419 
L 216.165116 45.866461 
L 217.246512 30.249903 
L 218.327907 21.890962 
L 219.409302 18.406437 
L 220.490698 17.275177 
L 221.572093 16.98915 
L 224.816279 16.924191 
L 252.932558 16.98915 
L 254.013953 17.275177 
L 255.095349 18.406437 
L 256.176744 21.890962 
L 257.25814 30.249903 
L 258.339535 45.866461 
L 259.42093 68.588419 
L 260.502326 94.335771 
L 261.583721 117.057729 
L 262.665116 132.674287 
L 263.746512 141.033229 
L 264.827907 144.517754 
L 265.909302 145.649013 
L 266.990698 145.935041 
L 270.234884 146 
L 301.4 146 
L 301.4 146 
" style="fill:none;stroke:#b2b2b2;stroke-linecap:square;stroke-width:1.5;"/>
   </g>
   <g id="line2d_13">
    <path clip-path="url(#p5c90d98306)" d="M -1 146 
L 25.839535 145.978819 
L 26.92093 145.885555 
L 28.002326 145.516688 
L 29.083721 144.380497 
L 30.165116 141.654918 
L 31.246512 136.562866 
L 32.327907 129.153974 
L 33.409302 120.7586 
L 34.490698 113.349708 
L 35.572093 108.257655 
L 36.653488 105.532076 
L 37.734884 104.395886 
L 38.816279 104.027019 
L 40.97907 103.91539 
L 71.25814 103.933755 
L 72.339535 104.027019 
L 73.42093 104.395886 
L 74.502326 105.532076 
L 75.583721 108.257655 
L 76.665116 113.349708 
L 77.746512 120.7586 
L 78.827907 129.153974 
L 79.909302 136.562866 
L 80.990698 141.654918 
L 82.072093 144.380497 
L 83.153488 145.516688 
L 84.234884 145.885555 
L 86.397674 145.997184 
L 115.595349 145.99155 
L 116.676744 145.936447 
L 117.75814 145.65661 
L 118.839535 144.549837 
L 119.92093 141.140733 
L 121.002326 132.962719 
L 122.083721 117.684178 
L 123.165116 95.454031 
L 124.246512 70.263974 
L 125.327907 48.033828 
L 126.409302 32.755286 
L 127.490698 24.577272 
L 128.572093 21.168169 
L 129.653488 20.061395 
L 130.734884 19.781558 
L 133.97907 19.718005 
L 162.095349 19.781558 
L 163.176744 20.061395 
L 164.25814 21.168169 
L 165.339535 24.577272 
L 166.42093 32.755286 
L 167.502326 48.033828 
L 168.583721 70.263974 
L 169.665116 95.454031 
L 170.746512 117.684178 
L 171.827907 132.962719 
L 172.909302 141.140733 
L 173.990698 144.549837 
L 175.072093 145.65661 
L 176.153488 145.936447 
L 179.397674 146 
L 207.513953 145.933848 
L 208.595349 145.642567 
L 209.676744 144.49053 
L 210.75814 140.942008 
L 211.839535 132.429544 
L 212.92093 116.526168 
L 214.002326 93.386893 
L 215.083721 67.16666 
L 216.165116 44.027385 
L 217.246512 28.124009 
L 218.327907 19.611546 
L 219.409302 16.063023 
L 220.490698 14.910986 
L 221.572093 14.619706 
L 224.816279 14.553553 
L 252.932558 14.619706 
L 254.013953 14.910986 
L 255.095349 16.063023 
L 256.176744 19.611546 
L 257.25814 28.124009 
L 258.339535 44.027385 
L 259.42093 67.16666 
L 260.502326 93.386893 
L 261.583721 116.526168 
L 262.665116 132.429544 
L 263.746512 140.942008 
L 264.827907 144.49053 
L 265.909302 145.642567 
L 266.990698 145.933848 
L 270.234884 146 
L 301.4 146 
L 301.4 146 
" style="fill:none;stroke:#b2b2b2;stroke-linecap:square;stroke-width:1.5;"/>
   </g>
   <g id="line2d_14">
    <path clip-path="url(#p5c90d98306)" d="M -1 146 
L 26.92093 145.950087 
L 28.002326 145.789213 
L 29.083721 145.293687 
L 30.165116 144.104981 
L 31.246512 141.884186 
L 32.327907 138.652948 
L 33.409302 134.991477 
L 34.490698 131.760239 
L 35.572093 129.539444 
L 36.653488 128.350738 
L 37.734884 127.855212 
L 38.816279 127.694338 
L 42.060465 127.644425 
L 72.339535 127.694338 
L 73.42093 127.855212 
L 74.502326 128.350738 
L 75.583721 129.539444 
L 76.665116 131.760239 
L 77.746512 134.991477 
L 78.827907 138.652948 
L 79.909302 141.884186 
L 80.990698 144.104981 
L 82.072093 145.293687 
L 83.153488 145.789213 
L 84.234884 145.950087 
L 87.47907 146 
L 116.676744 145.941402 
L 117.75814 145.683384 
L 118.839535 144.662902 
L 119.92093 141.519597 
L 121.002326 133.9792 
L 122.083721 119.891884 
L 123.165116 99.39496 
L 124.246512 76.168903 
L 125.327907 55.671979 
L 126.409302 41.584663 
L 127.490698 34.044267 
L 128.572093 30.900962 
L 129.653488 29.88048 
L 130.734884 29.622462 
L 133.97907 29.563863 
L 162.095349 29.622462 
L 163.176744 29.88048 
L 164.25814 30.900962 
L 165.339535 34.044267 
L 166.42093 41.584663 
L 167.502326 55.671979 
L 168.583721 76.168903 
L 169.665116 99.39496 
L 170.746512 119.891884 
L 171.827907 133.9792 
L 172.909302 141.519597 
L 173.990698 144.662902 
L 175.072093 145.683384 
L 176.153488 145.941402 
L 179.397674 146 
L 207.513953 145.934385 
L 208.595349 145.645471 
L 209.676744 144.502794 
L 210.75814 140.9831 
L 211.839535 132.539793 
L 212.92093 116.765618 
L 214.002326 93.814331 
L 215.083721 67.807114 
L 216.165116 44.855826 
L 217.246512 29.081652 
L 218.327907 20.638345 
L 219.409302 17.118651 
L 220.490698 15.975974 
L 221.572093 15.68706 
L 224.816279 15.621445 
L 252.932558 15.68706 
L 254.013953 15.975974 
L 255.095349 17.118651 
L 256.176744 20.638345 
L 257.25814 29.081652 
L 258.339535 44.855826 
L 259.42093 67.807114 
L 260.502326 93.814331 
L 261.583721 116.765618 
L 262.665116 132.539793 
L 263.746512 140.9831 
L 264.827907 144.502794 
L 265.909302 145.645471 
L 266.990698 145.934385 
L 270.234884 146 
L 301.4 146 
L 301.4 146 
" style="fill:none;stroke:#b2b2b2;stroke-linecap:square;stroke-width:1.5;"/>
   </g>
   <g id="line2d_15">
    <path clip-path="url(#p5c90d98306)" d="M -1 146 
L 28.002326 145.952991 
L 29.083721 145.84248 
L 30.165116 145.577379 
L 31.246512 145.082104 
L 35.572093 142.32902 
L 36.653488 142.063918 
L 38.816279 141.91753 
L 52.874419 141.906398 
L 73.42093 141.953407 
L 74.502326 142.063918 
L 75.583721 142.32902 
L 76.665116 142.824294 
L 80.990698 145.577379 
L 82.072093 145.84248 
L 84.234884 145.988869 
L 98.293023 146 
L 116.676744 145.962305 
L 117.75814 145.796325 
L 118.839535 145.139864 
L 119.92093 143.117821 
L 121.002326 138.267193 
L 122.083721 129.205027 
L 123.165116 116.019653 
L 124.246512 101.078666 
L 125.327907 87.893292 
L 126.409302 78.831125 
L 127.490698 73.980497 
L 128.572093 71.958454 
L 129.653488 71.301993 
L 130.734884 71.136014 
L 135.060465 71.098318 
L 162.095349 71.136014 
L 163.176744 71.301993 
L 164.25814 71.958454 
L 165.339535 73.980497 
L 166.42093 78.831125 
L 167.502326 87.893292 
L 168.583721 101.078666 
L 169.665116 116.019653 
L 170.746512 129.205027 
L 171.827907 138.267193 
L 172.909302 143.117821 
L 173.990698 145.139864 
L 175.072093 145.796325 
L 176.153488 145.962305 
L 180.47907 146 
L 207.513953 145.937979 
L 208.595349 145.664891 
L 209.676744 144.584808 
L 210.75814 141.257916 
L 211.839535 133.277118 
L 212.92093 118.367024 
L 214.002326 96.672966 
L 215.083721 72.090377 
L 216.165116 50.396318 
L 217.246512 35.486224 
L 218.327907 27.505426 
L 219.409302 24.178534 
L 220.490698 23.098451 
L 221.572093 22.825363 
L 224.816279 22.763342 
L 252.932558 22.825363 
L 254.013953 23.098451 
L 255.095349 24.178534 
L 256.176744 27.505426 
L 257.25814 35.486224 
L 258.339535 50.396318 
L 259.42093 72.090377 
L 260.502326 96.672966 
L 261.583721 118.367024 
L 262.665116 133.277118 
L 263.746512 141.257916 
L 264.827907 144.584808 
L 265.909302 145.664891 
L 266.990698 145.937979 
L 270.234884 146 
L 301.4 146 
L 301.4 146 
" style="fill:none;stroke:#b2b2b2;stroke-linecap:square;stroke-width:1.5;"/>
   </g>
   <g id="line2d_16">
    <path clip-path="url(#p5c90d98306)" d="M -1 146 
L 28.002326 145.962454 
L 29.083721 145.874188 
L 30.165116 145.66245 
L 31.246512 145.266871 
L 35.572093 143.067966 
L 36.653488 142.856228 
L 38.816279 142.739307 
L 56.118605 142.730416 
L 73.42093 142.767962 
L 74.502326 142.856228 
L 75.583721 143.067966 
L 76.665116 143.463545 
L 80.990698 145.66245 
L 82.072093 145.874188 
L 84.234884 145.991109 
L 101.537209 146 
L 116.676744 145.966832 
L 117.75814 145.820789 
L 118.839535 145.243178 
L 119.92093 143.46401 
L 121.002326 139.196008 
L 122.083721 131.222331 
L 123.165116 119.620699 
L 124.246512 106.474328 
L 125.327907 94.872696 
L 126.409302 86.899019 
L 127.490698 82.631017 
L 128.572093 80.851849 
L 129.653488 80.274238 
L 130.734884 80.128195 
L 136.14186 80.095027 
L 162.095349 80.128195 
L 163.176744 80.274238 
L 164.25814 80.851849 
L 165.339535 82.631017 
L 166.42093 86.899019 
L 167.502326 94.872696 
L 168.583721 106.474328 
L 169.665116 119.620699 
L 170.746512 131.222331 
L 171.827907 139.196008 
L 172.909302 143.46401 
L 173.990698 145.243178 
L 175.072093 145.820789 
L 176.153488 145.966832 
L 181.560465 146 
L 207.513953 145.939257 
L 208.595349 145.671796 
L 209.676744 144.613968 
L 210.75814 141.355627 
L 211.839535 133.539275 
L 212.92093 118.936406 
L 214.002326 97.689356 
L 215.083721 73.613295 
L 216.165116 52.366246 
L 217.246512 37.763377 
L 218.327907 29.947024 
L 219.409302 26.688683 
L 220.490698 25.630855 
L 221.572093 25.363394 
L 224.816279 25.302651 
L 252.932558 25.363394 
L 254.013953 25.630855 
L 255.095349 26.688683 
L 256.176744 29.947024 
L 257.25814 37.763377 
L 258.339535 52.366246 
L 259.42093 73.613295 
L 260.502326 97.689356 
L 261.583721 118.936406 
L 262.665116 133.539275 
L 263.746512 141.355627 
L 264.827907 144.613968 
L 265.909302 145.671796 
L 266.990698 145.939257 
L 270.234884 146 
L 301.4 146 
L 301.4 146 
" style="fill:none;stroke:#b2b2b2;stroke-linecap:square;stroke-width:1.5;"/>
   </g>
   <g id="line2d_17">
    <path clip-path="url(#p5c90d98306)" d="M -1 146 
L 29.083721 145.90114 
L 30.165116 145.734763 
L 31.246512 145.423928 
L 35.572093 143.696089 
L 37.734884 143.460354 
L 44.223256 143.430851 
L 74.502326 143.529711 
L 75.583721 143.696089 
L 76.665116 144.006923 
L 80.990698 145.734763 
L 83.153488 145.970497 
L 89.64186 146 
L 116.676744 145.971907 
L 117.75814 145.848206 
L 118.839535 145.358962 
L 119.92093 143.851985 
L 121.002326 140.236934 
L 122.083721 133.483129 
L 123.165116 123.656401 
L 124.246512 112.521259 
L 125.327907 102.694532 
L 126.409302 95.940727 
L 127.490698 92.325676 
L 128.572093 90.818698 
L 129.653488 90.329454 
L 131.816279 90.181396 
L 161.013953 90.181396 
L 163.176744 90.329454 
L 164.25814 90.818698 
L 165.339535 92.325676 
L 166.42093 95.940727 
L 167.502326 102.694532 
L 168.583721 112.521259 
L 169.665116 123.656401 
L 170.746512 133.483129 
L 171.827907 140.236934 
L 172.909302 143.851985 
L 173.990698 145.358962 
L 175.072093 145.848206 
L 177.234884 145.996265 
L 206.432558 145.992167 
L 207.513953 145.941087 
L 208.595349 145.681684 
L 209.676744 144.655725 
L 210.75814 141.495547 
L 211.839535 133.914675 
L 212.92093 119.751743 
L 214.002326 99.144797 
L 215.083721 75.794068 
L 216.165116 55.187123 
L 217.246512 41.02419 
L 218.327907 33.443318 
L 219.409302 30.283141 
L 220.490698 29.257181 
L 221.572093 28.997778 
L 224.816279 28.938865 
L 252.932558 28.997778 
L 254.013953 29.257181 
L 255.095349 30.283141 
L 256.176744 33.443318 
L 257.25814 41.02419 
L 258.339535 55.187123 
L 259.42093 75.794068 
L 260.502326 99.144797 
L 261.583721 119.751743 
L 262.665116 133.914675 
L 263.746512 141.495547 
L 264.827907 144.655725 
L 265.909302 145.681684 
L 266.990698 145.941087 
L 270.234884 146 
L 301.4 146 
L 301.4 146 
" style="fill:none;stroke:#b2b2b2;stroke-linecap:square;stroke-width:1.5;"/>
   </g>
   <g id="line2d_18">
    <path clip-path="url(#p5c90d98306)" d="M -1 146 
L 26.92093 145.960949 
L 28.002326 145.835083 
L 29.083721 145.447388 
L 30.165116 144.517357 
L 31.246512 142.77983 
L 32.327907 140.251743 
L 33.409302 137.387046 
L 34.490698 134.858959 
L 35.572093 133.121432 
L 36.653488 132.191401 
L 37.734884 131.803706 
L 39.897674 131.646016 
L 59.362791 131.638789 
L 72.339535 131.67784 
L 73.42093 131.803706 
L 74.502326 132.191401 
L 75.583721 133.121432 
L 76.665116 134.858959 
L 77.746512 137.387046 
L 78.827907 140.251743 
L 79.909302 142.77983 
L 80.990698 144.517357 
L 82.072093 145.447388 
L 83.153488 145.835083 
L 85.316279 145.992773 
L 104.781395 146 
L 116.676744 145.94363 
L 117.75814 145.695426 
L 118.839535 144.713757 
L 119.92093 141.690004 
L 121.002326 134.436399 
L 122.083721 120.88488 
L 123.165116 101.167536 
L 124.246512 78.824859 
L 125.327907 59.107515 
L 126.409302 45.555996 
L 127.490698 38.30239 
L 128.572093 35.278638 
L 129.653488 34.296969 
L 130.734884 34.048764 
L 133.97907 33.992395 
L 162.095349 34.048764 
L 163.176744 34.296969 
L 164.25814 35.278638 
L 165.339535 38.30239 
L 166.42093 45.555996 
L 167.502326 59.107515 
L 168.583721 78.824859 
L 169.665116 101.167536 
L 170.746512 120.88488 
L 171.827907 134.436399 
L 172.909302 141.690004 
L 173.990698 144.713757 
L 175.072093 145.695426 
L 176.153488 145.94363 
L 179.397674 146 
L 207.513953 145.934654 
L 208.595349 145.646926 
L 209.676744 144.50894 
L 210.75814 141.003695 
L 211.839535 132.595049 
L 212.92093 116.885631 
L 214.002326 94.028562 
L 215.083721 68.128109 
L 216.165116 45.27104 
L 217.246512 29.561622 
L 218.327907 21.152976 
L 219.409302 17.647731 
L 220.490698 16.509745 
L 221.572093 16.222017 
L 224.816279 16.156671 
L 252.932558 16.222017 
L 254.013953 16.509745 
L 255.095349 17.647731 
L 256.176744 21.152976 
L 257.25814 29.561622 
L 258.339535 45.27104 
L 259.42093 68.128109 
L 260.502326 94.028562 
L 261.583721 116.885631 
L 262.665116 132.595049 
L 263.746512 141.003695 
L 264.827907 144.50894 
L 265.909302 145.646926 
L 266.990698 145.934654 
L 270.234884 146 
L 301.4 146 
L 301.4 146 
" style="fill:none;stroke:#b2b2b2;stroke-linecap:square;stroke-width:1.5;"/>
   </g>
   <g id="line2d_19">
    <path clip-path="url(#p5c90d98306)" d="M -1 146 
L 29.083721 145.898007 
L 30.165116 145.726357 
L 31.246512 145.40567 
L 35.572093 143.623072 
L 37.734884 143.379866 
L 44.223256 143.349428 
L 74.502326 143.451421 
L 75.583721 143.623072 
L 76.665116 143.943758 
L 80.990698 145.726357 
L 83.153488 145.969562 
L 89.64186 146 
L 116.676744 145.971242 
L 117.75814 145.844614 
L 118.839535 145.343792 
L 119.92093 143.80115 
L 121.002326 140.100546 
L 122.083721 133.186907 
L 123.165116 123.127622 
L 124.246512 111.728958 
L 125.327907 101.669672 
L 126.409302 94.756033 
L 127.490698 91.055429 
L 128.572093 89.512788 
L 129.653488 89.011965 
L 131.816279 88.860403 
L 161.013953 88.860403 
L 163.176744 89.011965 
L 164.25814 89.512788 
L 165.339535 91.055429 
L 166.42093 94.756033 
L 167.502326 101.669672 
L 168.583721 111.728958 
L 169.665116 123.127622 
L 170.746512 133.186907 
L 171.827907 140.100546 
L 172.909302 143.80115 
L 173.990698 145.343792 
L 175.072093 145.844614 
L 177.234884 145.996176 
L 206.432558 145.992131 
L 207.513953 145.940817 
L 208.595349 145.680226 
L 209.676744 144.649569 
L 210.75814 141.47492 
L 211.839535 133.859333 
L 212.92093 119.631544 
L 214.002326 98.930234 
L 215.083721 75.472575 
L 216.165116 54.771264 
L 217.246512 40.543475 
L 218.327907 32.927889 
L 219.409302 29.75324 
L 220.490698 28.722582 
L 221.572093 28.461991 
L 224.816279 28.402809 
L 252.932558 28.461991 
L 254.013953 28.722582 
L 255.095349 29.75324 
L 256.176744 32.927889 
L 257.25814 40.543475 
L 258.339535 54.771264 
L 259.42093 75.472575 
L 260.502326 98.930234 
L 261.583721 119.631544 
L 262.665116 133.859333 
L 263.746512 141.47492 
L 264.827907 144.649569 
L 265.909302 145.680226 
L 266.990698 145.940817 
L 270.234884 146 
L 301.4 146 
L 301.4 146 
" style="fill:none;stroke:#b2b2b2;stroke-linecap:square;stroke-width:1.5;"/>
   </g>
   <g id="line2d_20">
    <path clip-path="url(#p5c90d98306)" d="M -1 146 
L 26.92093 145.964693 
L 28.002326 145.850896 
L 29.083721 145.500375 
L 30.165116 144.659519 
L 31.246512 143.088594 
L 32.327907 140.802911 
L 33.409302 138.212893 
L 34.490698 135.927211 
L 35.572093 134.356286 
L 36.653488 133.51543 
L 37.734884 133.164909 
L 39.897674 133.022339 
L 61.525581 133.015805 
L 72.339535 133.051112 
L 73.42093 133.164909 
L 74.502326 133.51543 
L 75.583721 134.356286 
L 76.665116 135.927211 
L 77.746512 138.212893 
L 78.827907 140.802911 
L 79.909302 143.088594 
L 80.990698 144.659519 
L 82.072093 145.500375 
L 83.153488 145.850896 
L 85.316279 145.993466 
L 106.944186 146 
L 116.676744 145.94467 
L 117.75814 145.701044 
L 118.839535 144.737483 
L 119.92093 141.769507 
L 121.002326 134.649703 
L 122.083721 121.348157 
L 123.165116 101.994523 
L 124.246512 80.063981 
L 125.327907 60.710347 
L 126.409302 47.408801 
L 127.490698 40.288997 
L 128.572093 37.321021 
L 129.653488 36.35746 
L 130.734884 36.113834 
L 133.97907 36.058504 
L 162.095349 36.113834 
L 163.176744 36.35746 
L 164.25814 37.321021 
L 165.339535 40.288997 
L 166.42093 47.408801 
L 167.502326 60.710347 
L 168.583721 80.063981 
L 169.665116 101.994523 
L 170.746512 121.348157 
L 171.827907 134.649703 
L 172.909302 141.769507 
L 173.990698 144.737483 
L 175.072093 145.701044 
L 176.153488 145.94467 
L 179.397674 146 
L 207.513953 145.934787 
L 208.595349 145.647641 
L 209.676744 144.511959 
L 210.75814 141.013812 
L 211.839535 132.622192 
L 212.92093 116.944583 
L 214.002326 94.133796 
L 215.083721 68.285788 
L 216.165116 45.475 
L 217.246512 29.797391 
L 218.327907 21.405772 
L 219.409302 17.907624 
L 220.490698 16.771942 
L 221.572093 16.484796 
L 224.816279 16.419583 
L 252.932558 16.484796 
L 254.013953 16.771942 
L 255.095349 17.907624 
L 256.176744 21.405772 
L 257.25814 29.797391 
L 258.339535 45.475 
L 259.42093 68.285788 
L 260.502326 94.133796 
L 261.583721 116.944583 
L 262.665116 132.622192 
L 263.746512 141.013812 
L 264.827907 144.511959 
L 265.909302 145.647641 
L 266.990698 145.934787 
L 270.234884 146 
L 301.4 146 
L 301.4 146 
" style="fill:none;stroke:#b2b2b2;stroke-linecap:square;stroke-width:1.5;"/>
   </g>
   <g id="line2d_21">
    <path clip-path="url(#p5c90d98306)" d="M -1 146 
L 26.92093 145.957862 
L 28.002326 145.82205 
L 29.083721 145.403717 
L 30.165116 144.400189 
L 31.246512 142.525351 
L 32.327907 139.797479 
L 33.409302 136.706395 
L 34.490698 133.978522 
L 35.572093 132.103685 
L 36.653488 131.100156 
L 37.734884 130.681824 
L 39.897674 130.511672 
L 58.281395 130.503873 
L 72.339535 130.546011 
L 73.42093 130.681824 
L 74.502326 131.100156 
L 75.583721 132.103685 
L 76.665116 133.978522 
L 77.746512 136.706395 
L 78.827907 139.797479 
L 79.909302 142.525351 
L 80.990698 144.400189 
L 82.072093 145.403717 
L 83.153488 145.82205 
L 85.316279 145.992201 
L 103.7 146 
L 116.676744 145.942895 
L 117.75814 145.691452 
L 118.839535 144.696975 
L 119.92093 141.633771 
L 121.002326 134.285526 
L 122.083721 120.557198 
L 123.165116 100.582598 
L 124.246512 77.948411 
L 125.327907 57.973811 
L 126.409302 44.245482 
L 127.490698 36.897238 
L 128.572093 33.834033 
L 129.653488 32.839557 
L 130.734884 32.588114 
L 133.97907 32.531009 
L 162.095349 32.588114 
L 163.176744 32.839557 
L 164.25814 33.834033 
L 165.339535 36.897238 
L 166.42093 44.245482 
L 167.502326 57.973811 
L 168.583721 77.948411 
L 169.665116 100.582598 
L 170.746512 120.557198 
L 171.827907 134.285526 
L 172.909302 141.633771 
L 173.990698 144.696975 
L 175.072093 145.691452 
L 176.153488 145.942895 
L 179.397674 146 
L 207.513953 145.934563 
L 208.595349 145.646435 
L 209.676744 144.506864 
L 210.75814 140.996739 
L 211.839535 132.576387 
L 212.92093 116.845097 
L 214.002326 93.956206 
L 215.083721 68.019695 
L 216.165116 45.130804 
L 217.246512 29.399515 
L 218.327907 20.979163 
L 219.409302 17.469038 
L 220.490698 16.329467 
L 221.572093 16.041338 
L 224.816279 15.975902 
L 252.932558 16.041338 
L 254.013953 16.329467 
L 255.095349 17.469038 
L 256.176744 20.979163 
L 257.25814 29.399515 
L 258.339535 45.130804 
L 259.42093 68.019695 
L 260.502326 93.956206 
L 261.583721 116.845097 
L 262.665116 132.576387 
L 263.746512 140.996739 
L 264.827907 144.506864 
L 265.909302 145.646435 
L 266.990698 145.934563 
L 270.234884 146 
L 301.4 146 
L 301.4 146 
" style="fill:none;stroke:#b2b2b2;stroke-linecap:square;stroke-width:1.5;"/>
   </g>
   <g id="line2d_22">
    <path clip-path="url(#p5c90d98306)" d="M -1 146 
L 26.92093 145.927758 
L 28.002326 145.694916 
L 29.083721 144.977713 
L 30.165116 143.257232 
L 31.246512 140.042949 
L 32.327907 135.366196 
L 33.409302 130.06674 
L 34.490698 125.389987 
L 35.572093 122.175705 
L 36.653488 120.455223 
L 37.734884 119.73802 
L 38.816279 119.505178 
L 42.060465 119.432936 
L 72.339535 119.505178 
L 73.42093 119.73802 
L 74.502326 120.455223 
L 75.583721 122.175705 
L 76.665116 125.389987 
L 77.746512 130.06674 
L 78.827907 135.366196 
L 79.909302 140.042949 
L 80.990698 143.257232 
L 82.072093 144.977713 
L 83.153488 145.694916 
L 84.234884 145.927758 
L 87.47907 146 
L 116.676744 145.938763 
L 117.75814 145.669125 
L 118.839535 144.602686 
L 119.92093 141.317824 
L 121.002326 133.43785 
L 122.083721 118.716119 
L 123.165116 97.296128 
L 124.246512 73.024098 
L 125.327907 51.604107 
L 126.409302 36.882376 
L 127.490698 29.002402 
L 128.572093 25.71754 
L 129.653488 24.651101 
L 130.734884 24.381463 
L 133.97907 24.320226 
L 162.095349 24.381463 
L 163.176744 24.651101 
L 164.25814 25.71754 
L 165.339535 29.002402 
L 166.42093 36.882376 
L 167.502326 51.604107 
L 168.583721 73.024098 
L 169.665116 97.296128 
L 170.746512 118.716119 
L 171.827907 133.43785 
L 172.909302 141.317824 
L 173.990698 144.602686 
L 175.072093 145.669125 
L 176.153488 145.938763 
L 179.397674 146 
L 207.513953 145.934089 
L 208.595349 145.643872 
L 209.676744 144.496039 
L 210.75814 140.960467 
L 211.839535 132.479069 
L 212.92093 116.633732 
L 214.002326 93.578903 
L 215.083721 67.454359 
L 216.165116 44.39953 
L 217.246512 28.554193 
L 218.327907 20.072795 
L 219.409302 16.537223 
L 220.490698 15.38939 
L 221.572093 15.099173 
L 224.816279 15.033262 
L 252.932558 15.099173 
L 254.013953 15.38939 
L 255.095349 16.537223 
L 256.176744 20.072795 
L 257.25814 28.554193 
L 258.339535 44.39953 
L 259.42093 67.454359 
L 260.502326 93.578903 
L 261.583721 116.633732 
L 262.665116 132.479069 
L 263.746512 140.960467 
L 264.827907 144.496039 
L 265.909302 145.643872 
L 266.990698 145.934089 
L 270.234884 146 
L 301.4 146 
L 301.4 146 
" style="fill:none;stroke:#b2b2b2;stroke-linecap:square;stroke-width:1.5;"/>
   </g>
   <g id="line2d_23">
    <path clip-path="url(#p5c90d98306)" d="M -1 146 
L 28.002326 145.964297 
L 29.083721 145.880366 
L 30.165116 145.679025 
L 31.246512 145.30287 
L 35.572093 143.211939 
L 36.653488 143.010598 
L 38.816279 142.899418 
L 57.2 142.890964 
L 73.42093 142.926666 
L 74.502326 143.010598 
L 75.583721 143.211939 
L 76.665116 143.588093 
L 80.990698 145.679025 
L 82.072093 145.880366 
L 84.234884 145.991546 
L 102.618605 146 
L 116.676744 145.967878 
L 117.75814 145.826437 
L 118.839535 145.267028 
L 119.92093 143.543926 
L 121.002326 139.41042 
L 122.083721 131.688015 
L 123.165116 120.451981 
L 124.246512 107.719887 
L 125.327907 96.483854 
L 126.409302 88.761448 
L 127.490698 84.627943 
L 128.572093 82.904841 
L 129.653488 82.345432 
L 130.734884 82.203991 
L 136.14186 82.171869 
L 162.095349 82.203991 
L 163.176744 82.345432 
L 164.25814 82.904841 
L 165.339535 84.627943 
L 166.42093 88.761448 
L 167.502326 96.483854 
L 168.583721 107.719887 
L 169.665116 120.451981 
L 170.746512 131.688015 
L 171.827907 139.41042 
L 172.909302 143.543926 
L 173.990698 145.267028 
L 175.072093 145.826437 
L 176.153488 145.967878 
L 181.560465 146 
L 207.513953 145.939595 
L 208.595349 145.67362 
L 209.676744 144.621671 
L 210.75814 141.38144 
L 211.839535 133.60853 
L 212.92093 119.086821 
L 214.002326 97.957859 
L 215.083721 74.015609 
L 216.165116 52.886647 
L 217.246512 38.364938 
L 218.327907 30.592027 
L 219.409302 27.351796 
L 220.490698 26.299847 
L 221.572093 26.033873 
L 224.816279 25.973468 
L 252.932558 26.033873 
L 254.013953 26.299847 
L 255.095349 27.351796 
L 256.176744 30.592027 
L 257.25814 38.364938 
L 258.339535 52.886647 
L 259.42093 74.015609 
L 260.502326 97.957859 
L 261.583721 119.086821 
L 262.665116 133.60853 
L 263.746512 141.38144 
L 264.827907 144.621671 
L 265.909302 145.67362 
L 266.990698 145.939595 
L 270.234884 146 
L 301.4 146 
L 301.4 146 
" style="fill:none;stroke:#b2b2b2;stroke-linecap:square;stroke-width:1.5;"/>
   </g>
   <g id="line2d_24">
    <path clip-path="url(#p5c90d98306)" d="M -1 146 
L 28.002326 145.937112 
L 29.083721 145.789273 
L 30.165116 145.434624 
L 31.246512 144.772054 
L 34.490698 141.751591 
L 35.572093 141.089021 
L 36.653488 140.734373 
L 38.816279 140.538537 
L 49.630233 140.523645 
L 73.42093 140.586533 
L 74.502326 140.734373 
L 75.583721 141.089021 
L 76.665116 141.751591 
L 79.909302 144.772054 
L 80.990698 145.434624 
L 82.072093 145.789273 
L 84.234884 145.985109 
L 95.048837 146 
L 116.676744 145.956886 
L 117.75814 145.767047 
L 118.839535 145.016218 
L 119.92093 142.703503 
L 121.002326 137.155588 
L 122.083721 126.790719 
L 123.165116 111.709923 
L 124.246512 94.621143 
L 125.327907 79.540347 
L 126.409302 69.175478 
L 127.490698 63.627563 
L 128.572093 61.314848 
L 129.653488 60.564019 
L 130.734884 60.37418 
L 135.060465 60.331066 
L 162.095349 60.37418 
L 163.176744 60.564019 
L 164.25814 61.314848 
L 165.339535 63.627563 
L 166.42093 69.175478 
L 167.502326 79.540347 
L 168.583721 94.621143 
L 169.665116 111.709923 
L 170.746512 126.790719 
L 171.827907 137.155588 
L 172.909302 142.703503 
L 173.990698 145.016218 
L 175.072093 145.767047 
L 176.153488 145.956886 
L 180.47907 146 
L 207.513953 145.936757 
L 208.595349 145.658285 
L 209.676744 144.556908 
L 210.75814 141.16443 
L 211.839535 133.026296 
L 212.92093 117.822262 
L 214.002326 95.700522 
L 215.083721 70.633307 
L 216.165116 48.511567 
L 217.246512 33.307532 
L 218.327907 25.169399 
L 219.409302 21.77692 
L 220.490698 20.675544 
L 221.572093 20.397072 
L 224.816279 20.333829 
L 252.932558 20.397072 
L 254.013953 20.675544 
L 255.095349 21.77692 
L 256.176744 25.169399 
L 257.25814 33.307532 
L 258.339535 48.511567 
L 259.42093 70.633307 
L 260.502326 95.700522 
L 261.583721 117.822262 
L 262.665116 133.026296 
L 263.746512 141.16443 
L 264.827907 144.556908 
L 265.909302 145.658285 
L 266.990698 145.936757 
L 270.234884 146 
L 301.4 146 
L 301.4 146 
" style="fill:none;stroke:#b2b2b2;stroke-linecap:square;stroke-width:1.5;"/>
   </g>
   <g id="line2d_25">
    <path clip-path="url(#p5c90d98306)" d="M -1 146 
L 29.083721 145.905996 
L 30.165116 145.747789 
L 31.246512 145.452219 
L 35.572093 143.809235 
L 37.734884 143.585078 
L 44.223256 143.557024 
L 74.502326 143.651028 
L 75.583721 143.809235 
L 76.665116 144.104805 
L 80.990698 145.747789 
L 83.153488 145.971946 
L 89.64186 146 
L 116.676744 145.972983 
L 117.75814 145.854021 
L 118.839535 145.383518 
L 119.92093 143.934267 
L 121.002326 140.457693 
L 122.083721 133.962599 
L 123.165116 124.512293 
L 124.246512 113.803694 
L 125.327907 104.353387 
L 126.409302 97.858293 
L 127.490698 94.38172 
L 128.572093 92.932469 
L 129.653488 92.461966 
L 131.816279 92.319579 
L 161.013953 92.319579 
L 163.176744 92.461966 
L 164.25814 92.932469 
L 165.339535 94.38172 
L 166.42093 97.858293 
L 167.502326 104.353387 
L 168.583721 113.803694 
L 169.665116 124.512293 
L 170.746512 133.962599 
L 171.827907 140.457693 
L 172.909302 143.934267 
L 173.990698 145.383518 
L 175.072093 145.854021 
L 177.234884 145.996408 
L 206.432558 145.992228 
L 207.513953 145.941547 
L 208.595349 145.684166 
L 209.676744 144.666206 
L 210.75814 141.53067 
L 211.839535 134.008909 
L 212.92093 119.95641 
L 214.002326 99.510145 
L 215.083721 76.341491 
L 216.165116 55.895225 
L 217.246512 41.842726 
L 218.327907 34.320966 
L 219.409302 31.185429 
L 220.490698 30.16747 
L 221.572093 29.910089 
L 224.816279 29.851636 
L 252.932558 29.910089 
L 254.013953 30.16747 
L 255.095349 31.185429 
L 256.176744 34.320966 
L 257.25814 41.842726 
L 258.339535 55.895225 
L 259.42093 76.341491 
L 260.502326 99.510145 
L 261.583721 119.95641 
L 262.665116 134.008909 
L 263.746512 141.53067 
L 264.827907 144.666206 
L 265.909302 145.684166 
L 266.990698 145.941547 
L 270.234884 146 
L 301.4 146 
L 301.4 146 
" style="fill:none;stroke:#b2b2b2;stroke-linecap:square;stroke-width:1.5;"/>
   </g>
   <g id="line2d_26">
    <path clip-path="url(#p5c90d98306)" d="M -1 146 
L 25.839535 145.976956 
L 26.92093 145.875492 
L 28.002326 145.47419 
L 29.083721 144.238095 
L 30.165116 141.272858 
L 31.246512 135.733065 
L 32.327907 127.672713 
L 33.409302 118.539138 
L 34.490698 110.478787 
L 35.572093 104.938994 
L 36.653488 101.973756 
L 37.734884 100.737661 
L 38.816279 100.33636 
L 40.97907 100.214915 
L 71.25814 100.234895 
L 72.339535 100.33636 
L 73.42093 100.737661 
L 74.502326 101.973756 
L 75.583721 104.938994 
L 76.665116 110.478787 
L 77.746512 118.539138 
L 78.827907 127.672713 
L 79.909302 135.733065 
L 80.990698 141.272858 
L 82.072093 144.238095 
L 83.153488 145.47419 
L 84.234884 145.875492 
L 86.397674 145.996936 
L 115.595349 145.991506 
L 116.676744 145.936116 
L 117.75814 145.654821 
L 118.839535 144.54228 
L 119.92093 141.115414 
L 121.002326 132.894788 
L 122.083721 117.536637 
L 123.165116 95.190659 
L 124.246512 69.869349 
L 125.327907 47.523372 
L 126.409302 32.165221 
L 127.490698 23.944595 
L 128.572093 20.517728 
L 129.653488 19.405188 
L 130.734884 19.123893 
L 133.97907 19.060009 
L 162.095349 19.123893 
L 163.176744 19.405188 
L 164.25814 20.517728 
L 165.339535 23.944595 
L 166.42093 32.165221 
L 167.502326 47.523372 
L 168.583721 69.869349 
L 169.665116 95.190659 
L 170.746512 117.536637 
L 171.827907 132.894788 
L 172.909302 141.115414 
L 173.990698 144.54228 
L 175.072093 145.654821 
L 176.153488 145.936116 
L 179.397674 146 
L 207.513953 145.933814 
L 208.595349 145.642388 
L 209.676744 144.489772 
L 210.75814 140.939468 
L 211.839535 132.42273 
L 212.92093 116.511368 
L 214.002326 93.360474 
L 215.083721 67.127074 
L 216.165116 43.97618 
L 217.246512 28.064818 
L 218.327907 19.54808 
L 219.409302 15.997776 
L 220.490698 14.84516 
L 221.572093 14.553734 
L 224.816279 14.487548 
L 252.932558 14.553734 
L 254.013953 14.84516 
L 255.095349 15.997776 
L 256.176744 19.54808 
L 257.25814 28.064818 
L 258.339535 43.97618 
L 259.42093 67.127074 
L 260.502326 93.360474 
L 261.583721 116.511368 
L 262.665116 132.42273 
L 263.746512 140.939468 
L 264.827907 144.489772 
L 265.909302 145.642388 
L 266.990698 145.933814 
L 270.234884 146 
L 301.4 146 
L 301.4 146 
" style="fill:none;stroke:#b2b2b2;stroke-linecap:square;stroke-width:1.5;"/>
   </g>
   <g id="line2d_27">
    <path clip-path="url(#p5c90d98306)" d="M -1 146 
L 28.002326 145.950727 
L 29.083721 145.834895 
L 30.165116 145.557028 
L 31.246512 145.037905 
L 34.490698 142.671374 
L 35.572093 142.15225 
L 36.653488 141.874384 
L 38.816279 141.720946 
L 51.793023 141.709279 
L 73.42093 141.758552 
L 74.502326 141.874384 
L 75.583721 142.15225 
L 76.665116 142.671374 
L 79.909302 145.037905 
L 80.990698 145.557028 
L 82.072093 145.834895 
L 84.234884 145.988333 
L 97.211628 146 
L 116.676744 145.961391 
L 117.75814 145.791391 
L 118.839535 145.119027 
L 119.92093 143.047999 
L 121.002326 138.079862 
L 122.083721 128.79816 
L 123.165116 115.293363 
L 124.246512 99.990423 
L 125.327907 86.485627 
L 126.409302 77.203924 
L 127.490698 72.235787 
L 128.572093 70.16476 
L 129.653488 69.492395 
L 130.734884 69.322395 
L 135.060465 69.283786 
L 162.095349 69.322395 
L 163.176744 69.492395 
L 164.25814 70.16476 
L 165.339535 72.235787 
L 166.42093 77.203924 
L 167.502326 86.485627 
L 168.583721 99.990423 
L 169.665116 115.293363 
L 170.746512 128.79816 
L 171.827907 138.079862 
L 172.909302 143.047999 
L 173.990698 145.119027 
L 175.072093 145.791391 
L 176.153488 145.961391 
L 180.47907 146 
L 207.513953 145.937753 
L 208.595349 145.663667 
L 209.676744 144.579636 
L 210.75814 141.240587 
L 211.839535 133.230625 
L 212.92093 118.266045 
L 214.002326 96.492709 
L 215.083721 71.820288 
L 216.165116 50.046953 
L 217.246512 35.082373 
L 218.327907 27.07241 
L 219.409302 23.733361 
L 220.490698 22.649331 
L 221.572093 22.375245 
L 224.816279 22.312998 
L 252.932558 22.375245 
L 254.013953 22.649331 
L 255.095349 23.733361 
L 256.176744 27.07241 
L 257.25814 35.082373 
L 258.339535 50.046953 
L 259.42093 71.820288 
L 260.502326 96.492709 
L 261.583721 118.266045 
L 262.665116 133.230625 
L 263.746512 141.240587 
L 264.827907 144.579636 
L 265.909302 145.663667 
L 266.990698 145.937753 
L 270.234884 146 
L 301.4 146 
L 301.4 146 
" style="fill:none;stroke:#b2b2b2;stroke-linecap:square;stroke-width:1.5;"/>
   </g>
   <g id="line2d_28">
    <path clip-path="url(#p5c90d98306)" d="M -1 146 
L 26.92093 145.969066 
L 28.002326 145.869365 
L 29.083721 145.562264 
L 30.165116 144.825565 
L 31.246512 143.449231 
L 32.327907 141.446676 
L 33.409302 139.177485 
L 34.490698 137.174931 
L 35.572093 135.798596 
L 36.653488 135.061898 
L 37.734884 134.754796 
L 39.897674 134.629886 
L 64.769767 134.624161 
L 72.339535 134.655095 
L 73.42093 134.754796 
L 74.502326 135.061898 
L 75.583721 135.798596 
L 76.665116 137.174931 
L 77.746512 139.177485 
L 78.827907 141.446676 
L 79.909302 143.449231 
L 80.990698 144.825565 
L 82.072093 145.562264 
L 83.153488 145.869365 
L 85.316279 145.994275 
L 110.188372 146 
L 116.676744 145.946151 
L 117.75814 145.709047 
L 118.839535 144.771281 
L 119.92093 141.882759 
L 121.002326 134.953555 
L 122.083721 122.008098 
L 123.165116 103.172569 
L 124.246512 81.829118 
L 125.327907 62.993589 
L 126.409302 50.048132 
L 127.490698 43.118928 
L 128.572093 40.230406 
L 129.653488 39.29264 
L 130.734884 39.055536 
L 133.97907 39.001687 
L 162.095349 39.055536 
L 163.176744 39.29264 
L 164.25814 40.230406 
L 165.339535 43.118928 
L 166.42093 50.048132 
L 167.502326 62.993589 
L 168.583721 81.829118 
L 169.665116 103.172569 
L 170.746512 122.008098 
L 171.827907 134.953555 
L 172.909302 141.882759 
L 173.990698 144.771281 
L 175.072093 145.709047 
L 176.153488 145.946151 
L 179.397674 146 
L 207.513953 145.934983 
L 208.595349 145.648702 
L 209.676744 144.51644 
L 210.75814 141.028825 
L 211.839535 132.662473 
L 212.92093 117.032069 
L 214.002326 94.289966 
L 215.083721 68.519788 
L 216.165116 45.777684 
L 217.246512 30.147281 
L 218.327907 21.780929 
L 219.409302 18.293314 
L 220.490698 17.161052 
L 221.572093 16.874771 
L 224.816279 16.809754 
L 252.932558 16.874771 
L 254.013953 17.161052 
L 255.095349 18.293314 
L 256.176744 21.780929 
L 257.25814 30.147281 
L 258.339535 45.777684 
L 259.42093 68.519788 
L 260.502326 94.289966 
L 261.583721 117.032069 
L 262.665116 132.662473 
L 263.746512 141.028825 
L 264.827907 144.51644 
L 265.909302 145.648702 
L 266.990698 145.934983 
L 270.234884 146 
L 301.4 146 
L 301.4 146 
" style="fill:none;stroke:#b2b2b2;stroke-linecap:square;stroke-width:1.5;"/>
   </g>
   <g id="line2d_29">
    <path clip-path="url(#p5c90d98306)" d="M -1 146 
L 28.002326 145.944733 
L 29.083721 145.81481 
L 30.165116 145.503141 
L 31.246512 144.920866 
L 34.490698 142.266445 
L 35.572093 141.68417 
L 36.653488 141.372501 
L 38.816279 141.200398 
L 50.711628 141.187311 
L 73.42093 141.242578 
L 74.502326 141.372501 
L 75.583721 141.68417 
L 76.665116 142.266445 
L 79.909302 144.920866 
L 80.990698 145.503141 
L 82.072093 145.81481 
L 84.234884 145.986913 
L 96.130233 146 
L 116.676744 145.959221 
L 117.75814 145.779662 
L 118.839535 145.069494 
L 119.92093 142.882021 
L 121.002326 137.634547 
L 122.083721 127.830975 
L 123.165116 113.566862 
L 124.246512 97.403505 
L 125.327907 83.139392 
L 126.409302 73.33582 
L 127.490698 68.088346 
L 128.572093 65.900874 
L 129.653488 65.190705 
L 130.734884 65.011147 
L 135.060465 64.970367 
L 162.095349 65.011147 
L 163.176744 65.190705 
L 164.25814 65.900874 
L 165.339535 68.088346 
L 166.42093 73.33582 
L 167.502326 83.139392 
L 168.583721 97.403505 
L 169.665116 113.566862 
L 170.746512 127.830975 
L 171.827907 137.634547 
L 172.909302 142.882021 
L 173.990698 145.069494 
L 175.072093 145.779662 
L 176.153488 145.959221 
L 180.47907 146 
L 207.513953 145.937249 
L 208.595349 145.660946 
L 209.676744 144.568145 
L 210.75814 141.202082 
L 211.839535 133.127316 
L 212.92093 118.041666 
L 214.002326 96.092177 
L 215.083721 71.220146 
L 216.165116 49.270656 
L 217.246512 34.185007 
L 218.327907 26.110241 
L 219.409302 22.744178 
L 220.490698 21.651377 
L 221.572093 21.375074 
L 224.816279 21.312323 
L 252.932558 21.375074 
L 254.013953 21.651377 
L 255.095349 22.744178 
L 256.176744 26.110241 
L 257.25814 34.185007 
L 258.339535 49.270656 
L 259.42093 71.220146 
L 260.502326 96.092177 
L 261.583721 118.041666 
L 262.665116 133.127316 
L 263.746512 141.202082 
L 264.827907 144.568145 
L 265.909302 145.660946 
L 266.990698 145.937249 
L 270.234884 146 
L 301.4 146 
L 301.4 146 
" style="fill:none;stroke:#b2b2b2;stroke-linecap:square;stroke-width:1.5;"/>
   </g>
   <g id="line2d_30">
    <path clip-path="url(#p5c90d98306)" d="M -1 146 
L 26.92093 145.926747 
L 28.002326 145.690647 
L 29.083721 144.963408 
L 30.165116 143.218853 
L 31.246512 139.959595 
L 32.327907 135.217402 
L 33.409302 129.843793 
L 34.490698 125.1016 
L 35.572093 121.842342 
L 36.653488 120.097786 
L 37.734884 119.370548 
L 38.816279 119.134448 
L 42.060465 119.061195 
L 72.339535 119.134448 
L 73.42093 119.370548 
L 74.502326 120.097786 
L 75.583721 121.842342 
L 76.665116 125.1016 
L 77.746512 129.843793 
L 78.827907 135.217402 
L 79.909302 139.959595 
L 80.990698 143.218853 
L 82.072093 144.963408 
L 83.153488 145.690647 
L 84.234884 145.926747 
L 87.47907 146 
L 116.676744 145.938678 
L 117.75814 145.668669 
L 118.839535 144.600763 
L 119.92093 141.311379 
L 121.002326 133.420557 
L 122.083721 118.678561 
L 123.165116 97.229083 
L 124.246512 72.92364 
L 125.327907 51.474162 
L 126.409302 36.732166 
L 127.490698 28.841344 
L 128.572093 25.55196 
L 129.653488 24.484054 
L 130.734884 24.214044 
L 133.97907 24.152723 
L 162.095349 24.214044 
L 163.176744 24.484054 
L 164.25814 25.55196 
L 165.339535 28.841344 
L 166.42093 36.732166 
L 167.502326 51.474162 
L 168.583721 72.92364 
L 169.665116 97.229083 
L 170.746512 118.678561 
L 171.827907 133.420557 
L 172.909302 141.311379 
L 173.990698 144.600763 
L 175.072093 145.668669 
L 176.153488 145.938678 
L 179.397674 146 
L 207.513953 145.93408 
L 208.595349 145.643822 
L 209.676744 144.495832 
L 210.75814 140.959773 
L 211.839535 132.477207 
L 212.92093 116.629688 
L 214.002326 93.571684 
L 215.083721 67.443543 
L 216.165116 44.385539 
L 217.246512 28.53802 
L 218.327907 20.055455 
L 219.409302 16.519395 
L 220.490698 15.371405 
L 221.572093 15.081148 
L 224.816279 15.015227 
L 252.932558 15.081148 
L 254.013953 15.371405 
L 255.095349 16.519395 
L 256.176744 20.055455 
L 257.25814 28.53802 
L 258.339535 44.385539 
L 259.42093 67.443543 
L 260.502326 93.571684 
L 261.583721 116.629688 
L 262.665116 132.477207 
L 263.746512 140.959773 
L 264.827907 144.495832 
L 265.909302 145.643822 
L 266.990698 145.93408 
L 270.234884 146 
L 301.4 146 
L 301.4 146 
" style="fill:none;stroke:#b2b2b2;stroke-linecap:square;stroke-width:1.5;"/>
   </g>
   <g id="line2d_31">
    <path clip-path="url(#p5c90d98306)" d="M -1 146 
L 28.002326 145.953343 
L 29.083721 145.84366 
L 30.165116 145.580543 
L 31.246512 145.088977 
L 35.572093 142.356505 
L 36.653488 142.093388 
L 38.816279 141.948096 
L 52.874419 141.937048 
L 73.42093 141.983705 
L 74.502326 142.093388 
L 75.583721 142.356505 
L 76.665116 142.848071 
L 80.990698 145.580543 
L 82.072093 145.84366 
L 84.234884 145.988952 
L 98.293023 146 
L 116.676744 145.962452 
L 117.75814 145.79712 
L 118.839535 145.143221 
L 119.92093 143.129072 
L 121.002326 138.297377 
L 122.083721 129.270584 
L 123.165116 116.136677 
L 124.246512 101.25401 
L 125.327907 88.120103 
L 126.409302 79.093309 
L 127.490698 74.261615 
L 128.572093 72.247465 
L 129.653488 71.593566 
L 130.734884 71.428235 
L 135.060465 71.390687 
L 162.095349 71.428235 
L 163.176744 71.593566 
L 164.25814 72.247465 
L 165.339535 74.261615 
L 166.42093 79.093309 
L 167.502326 88.120103 
L 168.583721 101.25401 
L 169.665116 116.136677 
L 170.746512 129.270584 
L 171.827907 138.297377 
L 172.909302 143.129072 
L 173.990698 145.143221 
L 175.072093 145.79712 
L 176.153488 145.962452 
L 180.47907 146 
L 207.513953 145.938017 
L 208.595349 145.665093 
L 209.676744 144.585661 
L 210.75814 141.260776 
L 211.839535 133.28479 
L 212.92093 118.383686 
L 214.002326 96.702709 
L 215.083721 72.134943 
L 216.165116 50.453965 
L 217.246512 35.552862 
L 218.327907 27.576876 
L 219.409302 24.251991 
L 220.490698 23.172558 
L 221.572093 22.899635 
L 224.816279 22.837652 
L 252.932558 22.899635 
L 254.013953 23.172558 
L 255.095349 24.251991 
L 256.176744 27.576876 
L 257.25814 35.552862 
L 258.339535 50.453965 
L 259.42093 72.134943 
L 260.502326 96.702709 
L 261.583721 118.383686 
L 262.665116 133.28479 
L 263.746512 141.260776 
L 264.827907 144.585661 
L 265.909302 145.665093 
L 266.990698 145.938017 
L 270.234884 146 
L 301.4 146 
L 301.4 146 
" style="fill:none;stroke:#b2b2b2;stroke-linecap:square;stroke-width:1.5;"/>
   </g>
   <g id="line2d_32">
    <path clip-path="url(#p5c90d98306)" d="M -1 146 
L 28.002326 145.923001 
L 29.083721 145.741988 
L 30.165116 145.307761 
L 31.246512 144.496519 
L 34.490698 140.798304 
L 35.572093 139.987061 
L 36.653488 139.552834 
L 37.734884 139.371821 
L 40.97907 139.295271 
L 73.42093 139.371821 
L 74.502326 139.552834 
L 75.583721 139.987061 
L 76.665116 140.798304 
L 79.909302 144.496519 
L 80.990698 145.307761 
L 82.072093 145.741988 
L 83.153488 145.923001 
L 86.397674 145.999551 
L 116.676744 145.95348 
L 117.75814 145.748642 
L 118.839535 144.938495 
L 119.92093 142.443066 
L 121.002326 136.456843 
L 122.083721 125.273107 
L 123.165116 109.000866 
L 124.246512 90.562001 
L 125.327907 74.28976 
L 126.409302 63.106023 
L 127.490698 57.1198 
L 128.572093 54.624371 
L 129.653488 53.814224 
L 130.734884 53.609387 
L 133.97907 53.562867 
L 162.095349 53.609387 
L 163.176744 53.814224 
L 164.25814 54.624371 
L 165.339535 57.1198 
L 166.42093 63.106023 
L 167.502326 74.28976 
L 168.583721 90.562001 
L 169.665116 109.000866 
L 170.746512 125.273107 
L 171.827907 136.456843 
L 172.909302 142.443066 
L 173.990698 144.938495 
L 175.072093 145.748642 
L 176.153488 145.95348 
L 179.397674 146 
L 207.513953 145.936116 
L 208.595349 145.654824 
L 209.676744 144.542291 
L 210.75814 141.11545 
L 211.839535 132.894886 
L 212.92093 117.536849 
L 214.002326 95.191038 
L 215.083721 69.869916 
L 216.165116 47.524105 
L 217.246512 32.166068 
L 218.327907 23.945504 
L 219.409302 20.518662 
L 220.490698 19.40613 
L 221.572093 19.124838 
L 224.816279 19.060954 
L 252.932558 19.124838 
L 254.013953 19.40613 
L 255.095349 20.518662 
L 256.176744 23.945504 
L 257.25814 32.166068 
L 258.339535 47.524105 
L 259.42093 69.869916 
L 260.502326 95.191038 
L 261.583721 117.536849 
L 262.665116 132.894886 
L 263.746512 141.11545 
L 264.827907 144.542291 
L 265.909302 145.654824 
L 266.990698 145.936116 
L 270.234884 146 
L 301.4 146 
L 301.4 146 
" style="fill:none;stroke:#b2b2b2;stroke-linecap:square;stroke-width:1.5;"/>
   </g>
   <g id="line2d_33">
    <path clip-path="url(#p5c90d98306)" d="M -1 146 
L 25.839535 145.959604 
L 26.92093 145.781733 
L 28.002326 145.078238 
L 29.083721 142.911322 
L 30.165116 137.71316 
L 31.246512 128.001716 
L 32.327907 113.871648 
L 33.409302 97.860184 
L 34.490698 83.730116 
L 35.572093 74.018672 
L 36.653488 68.82051 
L 37.734884 66.653594 
L 38.816279 65.950099 
L 39.897674 65.772228 
L 44.223256 65.731832 
L 71.25814 65.772228 
L 72.339535 65.950099 
L 73.42093 66.653594 
L 74.502326 68.82051 
L 75.583721 74.018672 
L 76.665116 83.730116 
L 77.746512 97.860184 
L 78.827907 113.871648 
L 79.909302 128.001716 
L 80.990698 137.71316 
L 82.072093 142.911322 
L 83.153488 145.078238 
L 84.234884 145.781733 
L 85.316279 145.959604 
L 89.64186 146 
L 116.676744 145.934458 
L 117.75814 145.645867 
L 118.839535 144.504466 
L 119.92093 140.988704 
L 121.002326 132.554829 
L 122.083721 116.798276 
L 123.165116 93.872627 
L 124.246512 67.894463 
L 125.327907 44.968814 
L 126.409302 29.212261 
L 127.490698 20.778386 
L 128.572093 17.262623 
L 129.653488 16.121223 
L 130.734884 15.832631 
L 133.97907 15.76709 
L 162.095349 15.832631 
L 163.176744 16.121223 
L 164.25814 17.262623 
L 165.339535 20.778386 
L 166.42093 29.212261 
L 167.502326 44.968814 
L 168.583721 67.894463 
L 169.665116 93.872627 
L 170.746512 116.798276 
L 171.827907 132.554829 
L 172.909302 140.988704 
L 173.990698 144.504466 
L 175.072093 145.645867 
L 176.153488 145.934458 
L 179.397674 146 
L 207.513953 145.933653 
L 208.595349 145.641514 
L 209.676744 144.486084 
L 210.75814 140.927108 
L 211.839535 132.389569 
L 212.92093 116.439346 
L 214.002326 93.231909 
L 215.083721 66.934438 
L 216.165116 43.727 
L 217.246512 27.776778 
L 218.327907 19.239239 
L 219.409302 15.680263 
L 220.490698 14.524833 
L 221.572093 14.232694 
L 224.816279 14.166347 
L 252.932558 14.232694 
L 254.013953 14.524833 
L 255.095349 15.680263 
L 256.176744 19.239239 
L 257.25814 27.776778 
L 258.339535 43.727 
L 259.42093 66.934438 
L 260.502326 93.231909 
L 261.583721 116.439346 
L 262.665116 132.389569 
L 263.746512 140.927108 
L 264.827907 144.486084 
L 265.909302 145.641514 
L 266.990698 145.933653 
L 270.234884 146 
L 301.4 146 
L 301.4 146 
" style="fill:none;stroke:#b2b2b2;stroke-linecap:square;stroke-width:1.5;"/>
   </g>
   <g id="line2d_34">
    <path clip-path="url(#p5c90d98306)" d="M -1 146 
L 26.92093 145.899346 
L 28.002326 145.57493 
L 29.083721 144.575658 
L 30.165116 142.17853 
L 31.246512 137.700104 
L 32.327907 131.184033 
L 33.409302 123.800357 
L 34.490698 117.284286 
L 35.572093 112.805861 
L 36.653488 110.408732 
L 37.734884 109.40946 
L 38.816279 109.085044 
L 40.97907 108.986867 
L 71.25814 109.003019 
L 72.339535 109.085044 
L 73.42093 109.40946 
L 74.502326 110.408732 
L 75.583721 112.805861 
L 76.665116 117.284286 
L 77.746512 123.800357 
L 78.827907 131.184033 
L 79.909302 137.700104 
L 80.990698 142.17853 
L 82.072093 144.575658 
L 83.153488 145.57493 
L 84.234884 145.899346 
L 86.397674 145.997523 
L 115.595349 145.991624 
L 116.676744 145.937002 
L 117.75814 145.659611 
L 118.839535 144.562508 
L 119.92093 141.183192 
L 121.002326 133.076635 
L 122.083721 117.931593 
L 123.165116 95.895687 
L 124.246512 70.925733 
L 125.327907 48.889827 
L 126.409302 33.744785 
L 127.490698 25.638228 
L 128.572093 22.258912 
L 129.653488 21.161809 
L 130.734884 20.884418 
L 133.97907 20.82142 
L 162.095349 20.884418 
L 163.176744 21.161809 
L 164.25814 22.258912 
L 165.339535 25.638228 
L 166.42093 33.744785 
L 167.502326 48.889827 
L 168.583721 70.925733 
L 169.665116 95.895687 
L 170.746512 117.931593 
L 171.827907 133.076635 
L 172.909302 141.183192 
L 173.990698 144.562508 
L 175.072093 145.659611 
L 176.153488 145.937002 
L 179.397674 146 
L 207.513953 145.933904 
L 208.595349 145.642872 
L 209.676744 144.491818 
L 210.75814 140.946321 
L 211.839535 132.441117 
L 212.92093 116.551304 
L 214.002326 93.431762 
L 215.083721 67.233889 
L 216.165116 44.114348 
L 217.246512 28.224535 
L 218.327907 19.719331 
L 219.409302 16.173834 
L 220.490698 15.02278 
L 221.572093 14.731748 
L 224.816279 14.665652 
L 252.932558 14.731748 
L 254.013953 15.02278 
L 255.095349 16.173834 
L 256.176744 19.719331 
L 257.25814 28.224535 
L 258.339535 44.114348 
L 259.42093 67.233889 
L 260.502326 93.431762 
L 261.583721 116.551304 
L 262.665116 132.441117 
L 263.746512 140.946321 
L 264.827907 144.491818 
L 265.909302 145.642872 
L 266.990698 145.933904 
L 270.234884 146 
L 301.4 146 
L 301.4 146 
" style="fill:none;stroke:#b2b2b2;stroke-linecap:square;stroke-width:1.5;"/>
   </g>
   <g id="line2d_35">
    <path clip-path="url(#p5c90d98306)" d="M -1 146 
L 26.92093 145.935802 
L 28.002326 145.728886 
L 29.083721 145.091539 
L 30.165116 143.562625 
L 31.246512 140.706236 
L 32.327907 136.550215 
L 33.409302 131.840827 
L 34.490698 127.684806 
L 35.572093 124.828417 
L 36.653488 123.299503 
L 37.734884 122.662156 
L 38.816279 122.45524 
L 42.060465 122.391042 
L 72.339535 122.45524 
L 73.42093 122.662156 
L 74.502326 123.299503 
L 75.583721 124.828417 
L 76.665116 127.684806 
L 77.746512 131.840827 
L 78.827907 136.550215 
L 79.909302 140.706236 
L 80.990698 143.562625 
L 82.072093 145.091539 
L 83.153488 145.728886 
L 84.234884 145.935802 
L 87.47907 146 
L 116.676744 145.93952 
L 117.75814 145.673217 
L 118.839535 144.619966 
L 119.92093 141.375726 
L 121.002326 133.593198 
L 122.083721 119.053523 
L 123.165116 97.89842 
L 124.246512 73.926547 
L 125.327907 52.771444 
L 126.409302 38.231768 
L 127.490698 30.449241 
L 128.572093 27.205001 
L 129.653488 26.15175 
L 130.734884 25.885447 
L 133.97907 25.824967 
L 162.095349 25.885447 
L 163.176744 26.15175 
L 164.25814 27.205001 
L 165.339535 30.449241 
L 166.42093 38.231768 
L 167.502326 52.771444 
L 168.583721 73.926547 
L 169.665116 97.89842 
L 170.746512 119.053523 
L 171.827907 133.593198 
L 172.909302 141.375726 
L 173.990698 144.619966 
L 175.072093 145.673217 
L 176.153488 145.93952 
L 179.397674 146 
L 207.513953 145.934172 
L 208.595349 145.644318 
L 209.676744 144.497923 
L 210.75814 140.966779 
L 211.839535 132.496005 
L 212.92093 116.670515 
L 214.002326 93.644564 
L 215.083721 67.552743 
L 216.165116 44.526791 
L 217.246512 28.701302 
L 218.327907 20.230527 
L 219.409302 16.699383 
L 220.490698 15.552989 
L 221.572093 15.263135 
L 224.816279 15.197306 
L 252.932558 15.263135 
L 254.013953 15.552989 
L 255.095349 16.699383 
L 256.176744 20.230527 
L 257.25814 28.701302 
L 258.339535 44.526791 
L 259.42093 67.552743 
L 260.502326 93.644564 
L 261.583721 116.670515 
L 262.665116 132.496005 
L 263.746512 140.966779 
L 264.827907 144.497923 
L 265.909302 145.644318 
L 266.990698 145.934172 
L 270.234884 146 
L 301.4 146 
L 301.4 146 
" style="fill:none;stroke:#b2b2b2;stroke-linecap:square;stroke-width:1.5;"/>
   </g>
   <g id="line2d_36">
    <path clip-path="url(#p5c90d98306)" d="M -1 146 
L 28.002326 145.962247 
L 29.083721 145.873496 
L 30.165116 145.660593 
L 31.246512 145.262837 
L 35.572093 143.051832 
L 36.653488 142.838929 
L 38.816279 142.721365 
L 56.118605 142.712425 
L 73.42093 142.750178 
L 74.502326 142.838929 
L 75.583721 143.051832 
L 76.665116 143.449588 
L 80.990698 145.660593 
L 82.072093 145.873496 
L 84.234884 145.99106 
L 101.537209 146 
L 116.676744 145.966719 
L 117.75814 145.820177 
L 118.839535 145.240592 
L 119.92093 143.455345 
L 121.002326 139.172761 
L 122.083721 131.171839 
L 123.165116 119.530567 
L 124.246512 106.339277 
L 125.327907 94.698005 
L 126.409302 86.697084 
L 127.490698 82.414499 
L 128.572093 80.629252 
L 129.653488 80.049667 
L 130.734884 79.903125 
L 136.14186 79.869844 
L 162.095349 79.903125 
L 163.176744 80.049667 
L 164.25814 80.629252 
L 165.339535 82.414499 
L 166.42093 86.697084 
L 167.502326 94.698005 
L 168.583721 106.339277 
L 169.665116 119.530567 
L 170.746512 131.171839 
L 171.827907 139.172761 
L 172.909302 143.455345 
L 173.990698 145.240592 
L 175.072093 145.820177 
L 176.153488 145.966719 
L 181.560465 146 
L 207.513953 145.939222 
L 208.595349 145.671604 
L 209.676744 144.613157 
L 210.75814 141.35291 
L 211.839535 133.531985 
L 212.92093 118.920572 
L 214.002326 97.661092 
L 215.083721 73.570945 
L 216.165116 52.311465 
L 217.246512 37.700052 
L 218.327907 29.879127 
L 219.409302 26.61888 
L 220.490698 25.560433 
L 221.572093 25.292815 
L 224.816279 25.232037 
L 252.932558 25.292815 
L 254.013953 25.560433 
L 255.095349 26.61888 
L 256.176744 29.879127 
L 257.25814 37.700052 
L 258.339535 52.311465 
L 259.42093 73.570945 
L 260.502326 97.661092 
L 261.583721 118.920572 
L 262.665116 133.531985 
L 263.746512 141.35291 
L 264.827907 144.613157 
L 265.909302 145.671604 
L 266.990698 145.939222 
L 270.234884 146 
L 301.4 146 
L 301.4 146 
" style="fill:none;stroke:#b2b2b2;stroke-linecap:square;stroke-width:1.5;"/>
   </g>
   <g id="line2d_37">
    <path clip-path="url(#p5c90d98306)" d="M -1 146 
L 28.002326 145.926144 
L 29.083721 145.752519 
L 30.165116 145.336015 
L 31.246512 144.557883 
L 34.490698 141.010609 
L 35.572093 140.232477 
L 36.653488 139.815973 
L 37.734884 139.642349 
L 40.97907 139.568922 
L 73.42093 139.642349 
L 74.502326 139.815973 
L 75.583721 140.232477 
L 76.665116 141.010609 
L 79.909302 144.557883 
L 80.990698 145.336015 
L 82.072093 145.752519 
L 83.153488 145.926144 
L 86.397674 145.99957 
L 116.676744 145.954154 
L 117.75814 145.752288 
L 118.839535 144.953893 
L 119.92093 142.494663 
L 121.002326 136.595276 
L 122.083721 125.57377 
L 123.165116 109.537573 
L 124.246512 91.366182 
L 125.327907 75.329985 
L 126.409302 64.308479 
L 127.490698 58.409092 
L 128.572093 55.949862 
L 129.653488 55.151467 
L 130.734884 54.949601 
L 133.97907 54.903755 
L 162.095349 54.949601 
L 163.176744 55.151467 
L 164.25814 55.949862 
L 165.339535 58.409092 
L 166.42093 64.308479 
L 167.502326 75.329985 
L 168.583721 91.366182 
L 169.665116 109.537573 
L 170.746512 125.57377 
L 171.827907 136.595276 
L 172.909302 142.494663 
L 173.990698 144.953893 
L 175.072093 145.752288 
L 176.153488 145.954154 
L 179.397674 146 
L 207.513953 145.936236 
L 208.595349 145.655474 
L 209.676744 144.545036 
L 210.75814 141.124647 
L 211.839535 132.919561 
L 212.92093 117.590442 
L 214.002326 95.286706 
L 215.083721 70.013261 
L 216.165116 47.709524 
L 217.246512 32.380406 
L 218.327907 24.175319 
L 219.409302 20.754931 
L 220.490698 19.644493 
L 221.572093 19.36373 
L 224.816279 19.299967 
L 252.932558 19.36373 
L 254.013953 19.644493 
L 255.095349 20.754931 
L 256.176744 24.175319 
L 257.25814 32.380406 
L 258.339535 47.709524 
L 259.42093 70.013261 
L 260.502326 95.286706 
L 261.583721 117.590442 
L 262.665116 132.919561 
L 263.746512 141.124647 
L 264.827907 144.545036 
L 265.909302 145.655474 
L 266.990698 145.936236 
L 270.234884 146 
L 301.4 146 
L 301.4 146 
" style="fill:none;stroke:#b2b2b2;stroke-linecap:square;stroke-width:1.5;"/>
   </g>
   <g id="matplotlib.axis_1"/>
   <g id="matplotlib.axis_2"/>
   <g id="line2d_38">
    <path clip-path="url(#p5c90d98306)" d="M -1 146 
L 25.839535 145.960514 
L 26.92093 145.786651 
L 28.002326 145.099011 
L 29.083721 142.980929 
L 30.165116 137.899916 
L 31.246512 128.407332 
L 32.327907 114.595705 
L 33.409302 98.94508 
L 34.490698 85.133453 
L 35.572093 75.640869 
L 36.653488 70.559855 
L 37.734884 68.441774 
L 38.816279 67.754133 
L 39.897674 67.580271 
L 44.223256 67.540785 
L 71.25814 67.580271 
L 72.339535 67.754133 
L 73.42093 68.441774 
L 74.502326 70.559855 
L 75.583721 75.640869 
L 76.665116 85.133453 
L 77.746512 98.94508 
L 78.827907 114.595705 
L 79.909302 128.407332 
L 80.990698 137.899916 
L 82.072093 142.980929 
L 83.153488 145.099011 
L 84.234884 145.786651 
L 85.316279 145.960514 
L 89.64186 146 
L 116.676744 145.93451 
L 117.75814 145.646146 
L 118.839535 144.505647 
L 119.92093 140.99266 
L 121.002326 132.565442 
L 122.083721 116.821326 
L 123.165116 93.913773 
L 124.246512 67.956115 
L 125.327907 45.048562 
L 126.409302 29.304446 
L 127.490698 20.877229 
L 128.572093 17.364242 
L 129.653488 16.223742 
L 130.734884 15.935378 
L 133.97907 15.869888 
L 162.095349 15.935378 
L 163.176744 16.223742 
L 164.25814 17.364242 
L 165.339535 20.877229 
L 166.42093 29.304446 
L 167.502326 45.048562 
L 168.583721 67.956115 
L 169.665116 93.913773 
L 170.746512 116.821326 
L 171.827907 132.565442 
L 172.909302 140.99266 
L 173.990698 144.505647 
L 175.072093 145.646146 
L 176.153488 145.93451 
L 179.397674 146 
L 207.513953 145.933658 
L 208.595349 145.641541 
L 209.676744 144.486196 
L 210.75814 140.927485 
L 211.839535 132.390581 
L 212.92093 116.441545 
L 214.002326 93.235833 
L 215.083721 66.940317 
L 216.165116 43.734606 
L 217.246512 27.785569 
L 218.327907 19.248665 
L 219.409302 15.689954 
L 220.490698 14.53461 
L 221.572093 14.242493 
L 224.816279 14.17615 
L 252.932558 14.242493 
L 254.013953 14.53461 
L 255.095349 15.689954 
L 256.176744 19.248665 
L 257.25814 27.785569 
L 258.339535 43.734606 
L 259.42093 66.940317 
L 260.502326 93.235833 
L 261.583721 116.441545 
L 262.665116 132.390581 
L 263.746512 140.927485 
L 264.827907 144.486196 
L 265.909302 145.641541 
L 266.990698 145.933658 
L 270.234884 146 
L 301.4 146 
L 301.4 146 
" style="fill:none;stroke:#084a91;stroke-linecap:square;stroke-width:1.2;"/>
   </g>
   <g id="patch_6">
    <path d="M 10.7 149.3 
L 10.7 10.7 
" style="fill:none;stroke:#000000;stroke-linecap:square;stroke-linejoin:miter;stroke-width:0.8;"/>
   </g>
   <g id="patch_7">
    <path d="M 289.7 149.3 
L 289.7 10.7 
" style="fill:none;stroke:#000000;stroke-linecap:square;stroke-linejoin:miter;stroke-width:0.8;"/>
   </g>
   <g id="patch_8">
    <path d="M 10.7 149.3 
L 289.7 149.3 
" style="fill:none;stroke:#000000;stroke-linecap:square;stroke-linejoin:miter;stroke-width:0.8;"/>
   </g>
   <g id="patch_9">
    <path d="M 10.7 10.7 
L 289.7 10.7 
" style="fill:none;stroke:#000000;stroke-linecap:square;stroke-linejoin:miter;stroke-width:0.8;"/>
   </g>
   <g id="line2d_39">
    <path clip-path="url(#p5c90d98306)" d="M -1 146 
L 28.002326 145.923834 
L 29.083721 145.74478 
L 30.165116 145.315251 
L 31.246512 144.512785 
L 34.490698 140.854582 
L 35.572093 140.052116 
L 36.653488 139.622587 
L 37.734884 139.443533 
L 40.97907 139.367811 
L 73.42093 139.443533 
L 74.502326 139.622587 
L 75.583721 140.052116 
L 76.665116 140.854582 
L 79.909302 144.512785 
L 80.990698 145.315251 
L 82.072093 145.74478 
L 83.153488 145.923834 
L 86.397674 145.999556 
L 116.676744 145.953654 
L 117.75814 145.749587 
L 118.839535 144.942484 
L 119.92093 142.456433 
L 121.002326 136.492705 
L 122.083721 125.350996 
L 123.165116 109.139904 
L 124.246512 90.77033 
L 125.327907 74.559238 
L 126.409302 63.417528 
L 127.490698 57.453801 
L 128.572093 54.967749 
L 129.653488 54.160646 
L 130.734884 53.956579 
L 133.97907 53.910233 
L 162.095349 53.956579 
L 163.176744 54.160646 
L 164.25814 54.967749 
L 165.339535 57.453801 
L 166.42093 63.417528 
L 167.502326 74.559238 
L 168.583721 90.77033 
L 169.665116 109.139904 
L 170.746512 125.350996 
L 171.827907 136.492705 
L 172.909302 142.456433 
L 173.990698 144.942484 
L 175.072093 145.749587 
L 176.153488 145.953654 
L 179.397674 146 
L 207.513953 145.936147 
L 208.595349 145.654991 
L 209.676744 144.542996 
L 210.75814 141.11781 
L 211.839535 132.901217 
L 212.92093 117.550601 
L 214.002326 95.215587 
L 215.083721 69.906699 
L 216.165116 47.571684 
L 217.246512 32.221068 
L 218.327907 24.004475 
L 219.409302 20.57929 
L 220.490698 19.467295 
L 221.572093 19.186139 
L 224.816279 19.122286 
L 252.932558 19.186139 
L 254.013953 19.467295 
L 255.095349 20.57929 
L 256.176744 24.004475 
L 257.25814 32.221068 
L 258.339535 47.571684 
L 259.42093 69.906699 
L 260.502326 95.215587 
L 261.583721 117.550601 
L 262.665116 132.901217 
L 263.746512 141.11781 
L 264.827907 144.542996 
L 265.909302 145.654991 
L 266.990698 145.936147 
L 270.234884 146 
L 301.4 146 
L 301.4 146 
" style="fill:none;stroke:#9e3303;stroke-linecap:square;stroke-width:1.2;"/>
   </g>
   <g id="line2d_40">
    <path clip-path="url(#p5c90d98306)" d="M -1 146 
L 26.92093 145.973528 
L 28.002326 145.888204 
L 29.083721 145.625391 
L 30.165116 144.994934 
L 31.246512 143.817084 
L 32.327907 142.103324 
L 34.490698 138.447619 
L 35.572093 137.26977 
L 36.653488 136.639313 
L 37.734884 136.376499 
L 39.897674 136.269603 
L 69.095349 136.264704 
L 73.42093 136.376499 
L 74.502326 136.639313 
L 75.583721 137.26977 
L 76.665116 138.447619 
L 77.746512 140.161379 
L 79.909302 143.817084 
L 80.990698 144.994934 
L 82.072093 145.625391 
L 83.153488 145.888204 
L 85.316279 145.995101 
L 114.513953 146 
L 116.676744 145.948073 
L 117.75814 145.719429 
L 118.839535 144.815126 
L 119.92093 142.029675 
L 121.002326 135.347727 
L 122.083721 122.864204 
L 123.165116 104.700785 
L 124.246512 84.118935 
L 125.327907 65.955516 
L 126.409302 53.471993 
L 127.490698 46.790045 
L 128.572093 44.004594 
L 129.653488 43.100291 
L 130.734884 42.871647 
L 133.97907 42.81972 
L 162.095349 42.871647 
L 163.176744 43.100291 
L 164.25814 44.004594 
L 165.339535 46.790045 
L 166.42093 53.471993 
L 167.502326 65.955516 
L 168.583721 84.118935 
L 169.665116 104.700785 
L 170.746512 122.864204 
L 171.827907 135.347727 
L 172.909302 142.029675 
L 173.990698 144.815126 
L 175.072093 145.719429 
L 176.153488 145.948073 
L 179.397674 146 
L 207.513953 145.935253 
L 208.595349 145.650159 
L 209.676744 144.522591 
L 210.75814 141.049436 
L 211.839535 132.717772 
L 212.92093 117.152173 
L 214.002326 94.504361 
L 215.083721 68.841028 
L 216.165116 46.193216 
L 217.246512 30.627618 
L 218.327907 22.295953 
L 219.409302 18.822799 
L 220.490698 17.695231 
L 221.572093 17.410137 
L 224.816279 17.34539 
L 252.932558 17.410137 
L 254.013953 17.695231 
L 255.095349 18.822799 
L 256.176744 22.295953 
L 257.25814 30.627618 
L 258.339535 46.193216 
L 259.42093 68.841028 
L 260.502326 94.504361 
L 261.583721 117.152173 
L 262.665116 132.717772 
L 263.746512 141.049436 
L 264.827907 144.522591 
L 265.909302 145.650159 
L 266.990698 145.935253 
L 270.234884 146 
L 301.4 146 
L 301.4 146 
" style="fill:none;stroke:#006428;stroke-linecap:square;stroke-width:1.2;"/>
   </g>
  </g>
 </g>
 <defs>
  <clipPath id="p5c90d98306">
   <rect height="138.6" width="279" x="10.7" y="10.7"/>
  </clipPath>
 </defs>
</svg>
