<?xml version="1.0" encoding="utf-8" standalone="no"?>
<!DOCTYPE svg PUBLIC "-//W3C//DTD SVG 1.1//EN"
  "http://www.w3.org/Graphics/SVG/1.1/DTD/svg11.dtd">
<!-- Created with matplotlib (http://matplotlib.org/) -->
<svg height="160pt" version="1.1" viewBox="0 0 300 160" width="300pt" xmlns="http://www.w3.org/2000/svg" xmlns:xlink="http://www.w3.org/1999/xlink">
 <defs>
  <style type="text/css">
*{stroke-linecap:butt;stroke-linejoin:round;}
  </style>
 </defs>
 <g id="figure_1">
  <g id="patch_1">
   <path d="M 0 160 
L 300.4 160 
L 300.4 0 
L 0 0 
z
" style="fill:#ffffff;"/>
  </g>
  <g id="axes_1">
   <g id="patch_2">
    <path d="M 10.7 149.3 
L 289.7 149.3 
L 289.7 10.7 
L 10.7 10.7 
z
" style="fill:#ffffff;"/>
   </g>
   <g id="patch_3">
    <path clip-path="url(#p20b949e3fc)" d="M 33.409302 149.3 
L 33.409302 10.7 
L 78.827907 10.7 
L 78.827907 149.3 
z
" style="fill:#fee7dc;stroke:#fee7dc;stroke-linejoin:miter;"/>
   </g>
   <g id="patch_4">
    <path clip-path="url(#p20b949e3fc)" d="M 124.246512 149.3 
L 124.246512 10.7 
L 169.665116 10.7 
L 169.665116 149.3 
z
" style="fill:#fdd4c2;stroke:#fdd4c2;stroke-linejoin:miter;"/>
   </g>
   <g id="patch_5">
    <path clip-path="url(#p20b949e3fc)" d="M 215.083721 149.3 
L 215.083721 10.7 
L 260.502326 10.7 
L 260.502326 149.3 
z
" style="fill:#fcbba1;stroke:#fcbba1;stroke-linejoin:miter;"/>
   </g>
   <g id="line2d_1">
    <path clip-path="url(#p20b949e3fc)" d="M -1 146 
L 29.083721 145.906671 
L 30.165116 145.749601 
L 31.246512 145.456154 
L 35.572093 143.824974 
L 37.734884 143.602427 
L 44.223256 143.574575 
L 74.502326 143.667904 
L 75.583721 143.824974 
L 76.665116 144.118421 
L 80.990698 145.749601 
L 83.153488 145.972148 
L 89.64186 146 
L 116.676744 145.973137 
L 117.75814 145.854855 
L 118.839535 145.387039 
L 119.92093 143.946066 
L 121.002326 140.489352 
L 122.083721 134.031359 
L 123.165116 124.635035 
L 124.246512 113.987605 
L 125.327907 104.591281 
L 126.409302 98.133288 
L 127.490698 94.676573 
L 128.572093 93.235601 
L 129.653488 92.767785 
L 131.816279 92.626212 
L 161.013953 92.626212 
L 163.176744 92.767785 
L 164.25814 93.235601 
L 165.339535 94.676573 
L 166.42093 98.133288 
L 167.502326 104.591281 
L 168.583721 113.987605 
L 169.665116 124.635035 
L 170.746512 134.031359 
L 171.827907 140.489352 
L 172.909302 143.946066 
L 173.990698 145.387039 
L 175.072093 145.854855 
L 177.234884 145.996428 
L 206.432558 145.992237 
L 207.513953 145.941615 
L 208.595349 145.684535 
L 209.676744 144.667765 
L 210.75814 141.535893 
L 211.839535 134.022922 
L 212.92093 119.986845 
L 214.002326 99.564472 
L 215.083721 76.422893 
L 216.165116 56.000521 
L 217.246512 41.964443 
L 218.327907 34.451472 
L 219.409302 31.3196 
L 220.490698 30.30283 
L 221.572093 30.04575 
L 224.816279 29.987365 
L 252.932558 30.04575 
L 254.013953 30.30283 
L 255.095349 31.3196 
L 256.176744 34.451472 
L 257.25814 41.964443 
L 258.339535 56.000521 
L 259.42093 76.422893 
L 260.502326 99.564472 
L 261.583721 119.986845 
L 262.665116 134.022922 
L 263.746512 141.535893 
L 264.827907 144.667765 
L 265.909302 145.684535 
L 266.990698 145.941615 
L 270.234884 146 
L 301.4 146 
L 301.4 146 
" style="fill:none;stroke:#cccccc;stroke-linecap:square;stroke-width:1.75;"/>
   </g>
   <g id="line2d_2">
    <path clip-path="url(#p20b949e3fc)" d="M -1 146 
L 25.839535 145.976847 
L 26.92093 145.874901 
L 28.002326 145.471695 
L 29.083721 144.229733 
L 30.165116 141.250421 
L 31.246512 135.684334 
L 32.327907 127.585726 
L 33.409302 118.4088 
L 34.490698 110.310191 
L 35.572093 104.744105 
L 36.653488 101.764793 
L 37.734884 100.522831 
L 38.816279 100.119625 
L 40.97907 99.997604 
L 71.25814 100.017679 
L 72.339535 100.119625 
L 73.42093 100.522831 
L 74.502326 101.764793 
L 75.583721 104.744105 
L 76.665116 110.310191 
L 77.746512 118.4088 
L 78.827907 127.585726 
L 79.909302 135.684334 
L 80.990698 141.250421 
L 82.072093 144.229733 
L 83.153488 145.471695 
L 84.234884 145.874901 
L 86.397674 145.996921 
L 115.595349 145.991503 
L 116.676744 145.936098 
L 117.75814 145.654725 
L 118.839535 144.541873 
L 119.92093 141.114048 
L 121.002326 132.891123 
L 122.083721 117.528677 
L 123.165116 95.176449 
L 124.246512 69.848058 
L 125.327907 47.495831 
L 126.409302 32.133384 
L 127.490698 23.91046 
L 128.572093 20.482635 
L 129.653488 19.369783 
L 130.734884 19.08841 
L 133.97907 19.024507 
L 162.095349 19.08841 
L 163.176744 19.369783 
L 164.25814 20.482635 
L 165.339535 23.91046 
L 166.42093 32.133384 
L 167.502326 47.495831 
L 168.583721 69.848058 
L 169.665116 95.176449 
L 170.746512 117.528677 
L 171.827907 132.891123 
L 172.909302 141.114048 
L 173.990698 144.541873 
L 175.072093 145.654725 
L 176.153488 145.936098 
L 179.397674 146 
L 207.513953 145.933813 
L 208.595349 145.642378 
L 209.676744 144.489732 
L 210.75814 140.939331 
L 211.839535 132.422364 
L 212.92093 116.510574 
L 214.002326 93.359056 
L 215.083721 67.124949 
L 216.165116 43.973431 
L 217.246512 28.06164 
L 218.327907 19.544673 
L 219.409302 15.994273 
L 220.490698 14.841626 
L 221.572093 14.550192 
L 224.816279 14.484004 
L 252.932558 14.550192 
L 254.013953 14.841626 
L 255.095349 15.994273 
L 256.176744 19.544673 
L 257.25814 28.06164 
L 258.339535 43.973431 
L 259.42093 67.124949 
L 260.502326 93.359056 
L 261.583721 116.510574 
L 262.665116 132.422364 
L 263.746512 140.939331 
L 264.827907 144.489732 
L 265.909302 145.642378 
L 266.990698 145.933813 
L 270.234884 146 
L 301.4 146 
L 301.4 146 
" style="fill:none;stroke:#cccccc;stroke-linecap:square;stroke-width:1.75;"/>
   </g>
   <g id="line2d_3">
    <path clip-path="url(#p20b949e3fc)" d="M -1 146 
L 28.002326 145.941681 
L 29.083721 145.804583 
L 30.165116 145.475702 
L 31.246512 144.861271 
L 34.490698 142.060262 
L 35.572093 141.445831 
L 36.653488 141.11695 
L 38.816279 140.935343 
L 50.711628 140.921533 
L 73.42093 140.979852 
L 74.502326 141.11695 
L 75.583721 141.445831 
L 76.665116 142.060262 
L 79.909302 144.861271 
L 80.990698 145.475702 
L 82.072093 145.804583 
L 84.234884 145.98619 
L 96.130233 146 
L 116.676744 145.958235 
L 117.75814 145.774334 
L 118.839535 145.046995 
L 119.92093 142.806632 
L 121.002326 137.43228 
L 122.083721 127.391668 
L 123.165116 112.782664 
L 124.246512 96.228495 
L 125.327907 81.619491 
L 126.409302 71.57888 
L 127.490698 66.204528 
L 128.572093 63.964164 
L 129.653488 63.236825 
L 130.734884 63.052925 
L 135.060465 63.011159 
L 162.095349 63.052925 
L 163.176744 63.236825 
L 164.25814 63.964164 
L 165.339535 66.204528 
L 166.42093 71.57888 
L 167.502326 81.619491 
L 168.583721 96.228495 
L 169.665116 112.782664 
L 170.746512 127.391668 
L 171.827907 137.43228 
L 172.909302 142.806632 
L 173.990698 145.046995 
L 175.072093 145.774334 
L 176.153488 145.958235 
L 180.47907 146 
L 207.513953 145.937035 
L 208.595349 145.659791 
L 209.676744 144.563267 
L 210.75814 141.185736 
L 211.839535 133.083462 
L 212.92093 117.94642 
L 214.002326 95.922154 
L 215.083721 70.965391 
L 216.165116 48.941125 
L 217.246512 33.804083 
L 218.327907 25.701809 
L 219.409302 22.324278 
L 220.490698 21.227754 
L 221.572093 20.95051 
L 224.816279 20.887545 
L 252.932558 20.95051 
L 254.013953 21.227754 
L 255.095349 22.324278 
L 256.176744 25.701809 
L 257.25814 33.804083 
L 258.339535 48.941125 
L 259.42093 70.965391 
L 260.502326 95.922154 
L 261.583721 117.94642 
L 262.665116 133.083462 
L 263.746512 141.185736 
L 264.827907 144.563267 
L 265.909302 145.659791 
L 266.990698 145.937035 
L 270.234884 146 
L 301.4 146 
L 301.4 146 
" style="fill:none;stroke:#cccccc;stroke-linecap:square;stroke-width:1.75;"/>
   </g>
   <g id="line2d_4">
    <path clip-path="url(#p20b949e3fc)" d="M -1 146 
L 28.002326 145.959305 
L 29.083721 145.863637 
L 30.165116 145.634142 
L 31.246512 145.205389 
L 35.572093 142.822078 
L 36.653488 142.592583 
L 38.816279 142.465856 
L 55.037209 142.45622 
L 73.42093 142.496915 
L 74.502326 142.592583 
L 75.583721 142.822078 
L 76.665116 143.250831 
L 80.990698 145.634142 
L 82.072093 145.863637 
L 84.234884 145.990364 
L 100.455814 146 
L 116.676744 145.965182 
L 117.75814 145.811872 
L 118.839535 145.205519 
L 119.92093 143.337822 
L 121.002326 138.857448 
L 122.083721 130.487009 
L 123.165116 118.308091 
L 124.246512 104.507569 
L 125.327907 92.328651 
L 126.409302 83.958212 
L 127.490698 79.477838 
L 128.572093 77.610141 
L 129.653488 77.003788 
L 130.734884 76.850478 
L 135.060465 76.81566 
L 162.095349 76.850478 
L 163.176744 77.003788 
L 164.25814 77.610141 
L 165.339535 79.477838 
L 166.42093 83.958212 
L 167.502326 92.328651 
L 168.583721 104.507569 
L 169.665116 118.308091 
L 170.746512 130.487009 
L 171.827907 138.857448 
L 172.909302 143.337822 
L 173.990698 145.205519 
L 175.072093 145.811872 
L 176.153488 145.965182 
L 180.47907 146 
L 207.513953 145.938759 
L 208.595349 145.669104 
L 209.676744 144.602598 
L 210.75814 141.317529 
L 211.839535 133.437059 
L 212.92093 118.714401 
L 214.002326 97.293061 
L 215.083721 73.019502 
L 216.165116 51.598161 
L 217.246512 36.875504 
L 218.327907 28.995033 
L 219.409302 25.709964 
L 220.490698 24.643458 
L 221.572093 24.373804 
L 224.816279 24.312562 
L 252.932558 24.373804 
L 254.013953 24.643458 
L 255.095349 25.709964 
L 256.176744 28.995033 
L 257.25814 36.875504 
L 258.339535 51.598161 
L 259.42093 73.019502 
L 260.502326 97.293061 
L 261.583721 118.714401 
L 262.665116 133.437059 
L 263.746512 141.317529 
L 264.827907 144.602598 
L 265.909302 145.669104 
L 266.990698 145.938759 
L 270.234884 146 
L 301.4 146 
L 301.4 146 
" style="fill:none;stroke:#cccccc;stroke-linecap:square;stroke-width:1.75;"/>
   </g>
   <g id="line2d_5">
    <path clip-path="url(#p20b949e3fc)" d="M -1 146 
L 26.92093 145.913908 
L 28.002326 145.636425 
L 29.083721 144.781718 
L 30.165116 142.731382 
L 31.246512 138.900851 
L 32.327907 133.327461 
L 33.409302 127.011983 
L 34.490698 121.438593 
L 35.572093 117.608062 
L 36.653488 115.557727 
L 37.734884 114.703019 
L 38.816279 114.425537 
L 40.97907 114.341563 
L 71.25814 114.355378 
L 72.339535 114.425537 
L 73.42093 114.703019 
L 74.502326 115.557727 
L 75.583721 117.608062 
L 76.665116 121.438593 
L 77.746512 127.011983 
L 78.827907 133.327461 
L 79.909302 138.900851 
L 80.990698 142.731382 
L 82.072093 144.781718 
L 83.153488 145.636425 
L 84.234884 145.913908 
L 86.397674 145.997881 
L 115.595349 145.991725 
L 116.676744 145.937769 
L 117.75814 145.663754 
L 118.839535 144.580004 
L 119.92093 141.241819 
L 121.002326 133.233931 
L 122.083721 118.273225 
L 123.165116 96.505526 
L 124.246512 71.839492 
L 125.327907 50.071794 
L 126.409302 35.111088 
L 127.490698 27.103199 
L 128.572093 23.765015 
L 129.653488 22.681265 
L 130.734884 22.40725 
L 133.97907 22.345019 
L 162.095349 22.40725 
L 163.176744 22.681265 
L 164.25814 23.765015 
L 165.339535 27.103199 
L 166.42093 35.111088 
L 167.502326 50.071794 
L 168.583721 71.839492 
L 169.665116 96.505526 
L 170.746512 118.273225 
L 171.827907 133.233931 
L 172.909302 141.241819 
L 173.990698 144.580004 
L 175.072093 145.663754 
L 176.153488 145.937769 
L 179.397674 146 
L 207.513953 145.933983 
L 208.595349 145.643301 
L 209.676744 144.493629 
L 210.75814 140.952392 
L 211.839535 132.457405 
L 212.92093 116.586679 
L 214.002326 93.494909 
L 215.083721 67.328507 
L 216.165116 44.236737 
L 217.246512 28.366012 
L 218.327907 19.871024 
L 219.409302 16.329787 
L 220.490698 15.180115 
L 221.572093 14.889433 
L 224.816279 14.823416 
L 252.932558 14.889433 
L 254.013953 15.180115 
L 255.095349 16.329787 
L 256.176744 19.871024 
L 257.25814 28.366012 
L 258.339535 44.236737 
L 259.42093 67.328507 
L 260.502326 93.494909 
L 261.583721 116.586679 
L 262.665116 132.457405 
L 263.746512 140.952392 
L 264.827907 144.493629 
L 265.909302 145.643301 
L 266.990698 145.933983 
L 270.234884 146 
L 301.4 146 
L 301.4 146 
" style="fill:none;stroke:#cccccc;stroke-linecap:square;stroke-width:1.75;"/>
   </g>
   <g id="line2d_6">
    <path clip-path="url(#p20b949e3fc)" d="M -1 146 
L 28.002326 145.917952 
L 29.083721 145.72507 
L 30.165116 145.26237 
L 31.246512 144.397932 
L 34.490698 140.457216 
L 35.572093 139.592779 
L 36.653488 139.130079 
L 37.734884 138.937196 
L 40.97907 138.855626 
L 73.42093 138.937196 
L 74.502326 139.130079 
L 75.583721 139.592779 
L 76.665116 140.457216 
L 79.909302 144.397932 
L 80.990698 145.26237 
L 82.072093 145.72507 
L 83.153488 145.917952 
L 86.397674 145.999522 
L 116.676744 145.952478 
L 117.75814 145.743231 
L 118.839535 144.915641 
L 119.92093 142.366487 
L 121.002326 136.251384 
L 122.083721 124.826867 
L 123.165116 108.204293 
L 124.246512 89.368449 
L 125.327907 72.745875 
L 126.409302 61.321358 
L 127.490698 55.206254 
L 128.572093 52.6571 
L 129.653488 51.829511 
L 130.734884 51.620264 
L 133.97907 51.572742 
L 162.095349 51.620264 
L 163.176744 51.829511 
L 164.25814 52.6571 
L 165.339535 55.206254 
L 166.42093 61.321358 
L 167.502326 72.745875 
L 168.583721 89.368449 
L 169.665116 108.204293 
L 170.746512 124.826867 
L 171.827907 136.251384 
L 172.909302 142.366487 
L 173.990698 144.915641 
L 175.072093 145.743231 
L 176.153488 145.952478 
L 179.397674 146 
L 207.513953 145.935943 
L 208.595349 145.653889 
L 209.676744 144.538344 
L 210.75814 141.102224 
L 211.839535 132.859399 
L 212.92093 117.459776 
L 214.002326 95.053457 
L 215.083721 69.663771 
L 216.165116 47.257451 
L 217.246512 31.857828 
L 218.327907 23.615004 
L 219.409302 20.178883 
L 220.490698 19.063338 
L 221.572093 18.781284 
L 224.816279 18.717227 
L 252.932558 18.781284 
L 254.013953 19.063338 
L 255.095349 20.178883 
L 256.176744 23.615004 
L 257.25814 31.857828 
L 258.339535 47.257451 
L 259.42093 69.663771 
L 260.502326 95.053457 
L 261.583721 117.459776 
L 262.665116 132.859399 
L 263.746512 141.102224 
L 264.827907 144.538344 
L 265.909302 145.653889 
L 266.990698 145.935943 
L 270.234884 146 
L 301.4 146 
L 301.4 146 
" style="fill:none;stroke:#cccccc;stroke-linecap:square;stroke-width:1.75;"/>
   </g>
   <g id="line2d_7">
    <path clip-path="url(#p20b949e3fc)" d="M -1 146 
L 28.002326 145.92828 
L 29.083721 145.759677 
L 30.165116 145.355221 
L 31.246512 144.599596 
L 34.490698 141.154928 
L 35.572093 140.399304 
L 36.653488 139.994847 
L 37.734884 139.826245 
L 40.97907 139.754943 
L 73.42093 139.826245 
L 74.502326 139.994847 
L 75.583721 140.399304 
L 76.665116 141.154928 
L 79.909302 144.599596 
L 80.990698 145.355221 
L 82.072093 145.759677 
L 83.153488 145.92828 
L 86.397674 145.999582 
L 116.676744 145.954638 
L 117.75814 145.754902 
L 118.839535 144.964929 
L 119.92093 142.531642 
L 121.002326 136.694489 
L 122.083721 125.789253 
L 123.165116 109.922227 
L 124.246512 91.942532 
L 125.327907 76.075506 
L 126.409302 65.17027 
L 127.490698 59.333117 
L 128.572093 56.89983 
L 129.653488 56.109857 
L 130.734884 55.910121 
L 133.97907 55.864759 
L 162.095349 55.910121 
L 163.176744 56.109857 
L 164.25814 56.89983 
L 165.339535 59.333117 
L 166.42093 65.17027 
L 167.502326 76.075506 
L 168.583721 91.942532 
L 169.665116 109.922227 
L 170.746512 125.789253 
L 171.827907 136.694489 
L 172.909302 142.531642 
L 173.990698 144.964929 
L 175.072093 145.754902 
L 176.153488 145.954638 
L 179.397674 146 
L 207.513953 145.936324 
L 208.595349 145.65595 
L 209.676744 144.547047 
L 210.75814 141.131386 
L 211.839535 132.937641 
L 212.92093 117.62971 
L 214.002326 95.356802 
L 215.083721 70.118291 
L 216.165116 47.845383 
L 217.246512 32.537452 
L 218.327907 24.343707 
L 219.409302 20.928046 
L 220.490698 19.819143 
L 221.572093 19.538769 
L 224.816279 19.475093 
L 252.932558 19.538769 
L 254.013953 19.819143 
L 255.095349 20.928046 
L 256.176744 24.343707 
L 257.25814 32.537452 
L 258.339535 47.845383 
L 259.42093 70.118291 
L 260.502326 95.356802 
L 261.583721 117.62971 
L 262.665116 132.937641 
L 263.746512 141.131386 
L 264.827907 144.547047 
L 265.909302 145.65595 
L 266.990698 145.936324 
L 270.234884 146 
L 301.4 146 
L 301.4 146 
" style="fill:none;stroke:#cccccc;stroke-linecap:square;stroke-width:1.75;"/>
   </g>
   <g id="line2d_8">
    <path clip-path="url(#p20b949e3fc)" d="M -1 146 
L 28.002326 145.945883 
L 29.083721 145.818663 
L 30.165116 145.513477 
L 31.246512 144.943316 
L 34.490698 142.344117 
L 35.572093 141.773956 
L 36.653488 141.46877 
L 38.816279 141.300248 
L 50.711628 141.287433 
L 73.42093 141.34155 
L 74.502326 141.46877 
L 75.583721 141.773956 
L 76.665116 142.344117 
L 79.909302 144.943316 
L 80.990698 145.513477 
L 82.072093 145.818663 
L 84.234884 145.987185 
L 96.130233 146 
L 116.676744 145.959612 
L 117.75814 145.781775 
L 118.839535 145.078417 
L 119.92093 142.911921 
L 121.002326 137.714767 
L 122.083721 128.005205 
L 123.165116 113.877877 
L 124.246512 97.869516 
L 125.327907 83.742187 
L 126.409302 74.032626 
L 127.490698 68.835472 
L 128.572093 66.668976 
L 129.653488 65.965618 
L 130.734884 65.787781 
L 135.060465 65.747393 
L 162.095349 65.787781 
L 163.176744 65.965618 
L 164.25814 66.668976 
L 165.339535 68.835472 
L 166.42093 74.032626 
L 167.502326 83.742187 
L 168.583721 97.869516 
L 169.665116 113.877877 
L 170.746512 128.005205 
L 171.827907 137.714767 
L 172.909302 142.911921 
L 173.990698 145.078417 
L 175.072093 145.781775 
L 176.153488 145.959612 
L 180.47907 146 
L 207.513953 145.937336 
L 208.595349 145.661417 
L 209.676744 144.570136 
L 210.75814 141.208755 
L 211.839535 133.145219 
L 212.92093 118.080551 
L 214.002326 96.161589 
L 215.083721 71.324151 
L 216.165116 49.405189 
L 217.246512 34.340521 
L 218.327907 26.276985 
L 219.409302 22.915604 
L 220.490698 21.824323 
L 221.572093 21.548404 
L 224.816279 21.48574 
L 252.932558 21.548404 
L 254.013953 21.824323 
L 255.095349 22.915604 
L 256.176744 26.276985 
L 257.25814 34.340521 
L 258.339535 49.405189 
L 259.42093 71.324151 
L 260.502326 96.161589 
L 261.583721 118.080551 
L 262.665116 133.145219 
L 263.746512 141.208755 
L 264.827907 144.570136 
L 265.909302 145.661417 
L 266.990698 145.937336 
L 270.234884 146 
L 301.4 146 
L 301.4 146 
" style="fill:none;stroke:#cccccc;stroke-linecap:square;stroke-width:1.75;"/>
   </g>
   <g id="line2d_9">
    <path clip-path="url(#p20b949e3fc)" d="M -1 146 
L 28.002326 145.929229 
L 29.083721 145.762859 
L 30.165116 145.363756 
L 31.246512 144.618134 
L 34.490698 141.219064 
L 35.572093 140.473442 
L 36.653488 140.07434 
L 38.816279 139.853956 
L 48.548837 139.837198 
L 73.42093 139.907969 
L 74.502326 140.07434 
L 75.583721 140.473442 
L 76.665116 141.219064 
L 79.909302 144.618134 
L 80.990698 145.363756 
L 82.072093 145.762859 
L 84.234884 145.983242 
L 93.967442 146 
L 116.676744 145.95486 
L 117.75814 145.7561 
L 118.839535 144.969991 
L 119.92093 142.548602 
L 121.002326 136.739994 
L 122.083721 125.888084 
L 123.165116 110.098649 
L 124.246512 92.206875 
L 125.327907 76.41744 
L 126.409302 65.565531 
L 127.490698 59.756922 
L 128.572093 57.335534 
L 129.653488 56.549424 
L 130.734884 56.350665 
L 133.97907 56.305525 
L 162.095349 56.350665 
L 163.176744 56.549424 
L 164.25814 57.335534 
L 165.339535 59.756922 
L 166.42093 65.565531 
L 167.502326 76.41744 
L 168.583721 92.206875 
L 169.665116 110.098649 
L 170.746512 125.888084 
L 171.827907 136.739994 
L 172.909302 142.548602 
L 173.990698 144.969991 
L 175.072093 145.7561 
L 176.153488 145.95486 
L 179.397674 146 
L 207.513953 145.936365 
L 208.595349 145.656171 
L 209.676744 144.547982 
L 210.75814 141.134519 
L 211.839535 132.946047 
L 212.92093 117.647967 
L 214.002326 95.389391 
L 215.083721 70.167121 
L 216.165116 47.908546 
L 217.246512 32.610466 
L 218.327907 24.421994 
L 219.409302 21.008531 
L 220.490698 19.900342 
L 221.572093 19.620147 
L 224.816279 19.556513 
L 252.932558 19.620147 
L 254.013953 19.900342 
L 255.095349 21.008531 
L 256.176744 24.421994 
L 257.25814 32.610466 
L 258.339535 47.908546 
L 259.42093 70.167121 
L 260.502326 95.389391 
L 261.583721 117.647967 
L 262.665116 132.946047 
L 263.746512 141.134519 
L 264.827907 144.547982 
L 265.909302 145.656171 
L 266.990698 145.936365 
L 270.234884 146 
L 301.4 146 
L 301.4 146 
" style="fill:none;stroke:#cccccc;stroke-linecap:square;stroke-width:1.75;"/>
   </g>
   <g id="line2d_10">
    <path clip-path="url(#p20b949e3fc)" d="M -1 146 
L 26.92093 145.891778 
L 28.002326 145.542971 
L 29.083721 144.468568 
L 30.165116 141.891208 
L 31.246512 137.076068 
L 32.327907 130.070079 
L 33.409302 122.131254 
L 34.490698 115.125266 
L 35.572093 110.310125 
L 36.653488 107.732766 
L 37.734884 106.658363 
L 38.816279 106.309555 
L 40.97907 106.203997 
L 71.25814 106.221363 
L 72.339535 106.309555 
L 73.42093 106.658363 
L 74.502326 107.732766 
L 75.583721 110.310125 
L 76.665116 115.125266 
L 77.746512 122.131254 
L 78.827907 130.070079 
L 79.909302 137.076068 
L 80.990698 141.891208 
L 82.072093 144.468568 
L 83.153488 145.542971 
L 84.234884 145.891778 
L 86.397674 145.997337 
L 115.595349 145.991581 
L 116.676744 145.936681 
L 117.75814 145.657875 
L 118.839535 144.555176 
L 119.92093 141.158624 
L 121.002326 133.010721 
L 122.083721 117.788433 
L 123.165116 95.640135 
L 124.246512 70.542826 
L 125.327907 48.394528 
L 126.409302 33.172241 
L 127.490698 25.024337 
L 128.572093 21.627786 
L 129.653488 20.525087 
L 130.734884 20.246281 
L 133.97907 20.182962 
L 162.095349 20.246281 
L 163.176744 20.525087 
L 164.25814 21.627786 
L 165.339535 25.024337 
L 166.42093 33.172241 
L 167.502326 48.394528 
L 168.583721 70.542826 
L 169.665116 95.640135 
L 170.746512 117.788433 
L 171.827907 133.010721 
L 172.909302 141.158624 
L 173.990698 144.555176 
L 175.072093 145.657875 
L 176.153488 145.936681 
L 179.397674 146 
L 207.513953 145.933871 
L 208.595349 145.642695 
L 209.676744 144.49107 
L 210.75814 140.943817 
L 211.839535 132.434398 
L 212.92093 116.536711 
L 214.002326 93.405713 
L 215.083721 67.194859 
L 216.165116 44.063861 
L 217.246512 28.166174 
L 218.327907 19.656755 
L 219.409302 16.109501 
L 220.490698 14.957877 
L 221.572093 14.666701 
L 224.816279 14.600572 
L 252.932558 14.666701 
L 254.013953 14.957877 
L 255.095349 16.109501 
L 256.176744 19.656755 
L 257.25814 28.166174 
L 258.339535 44.063861 
L 259.42093 67.194859 
L 260.502326 93.405713 
L 261.583721 116.536711 
L 262.665116 132.434398 
L 263.746512 140.943817 
L 264.827907 144.49107 
L 265.909302 145.642695 
L 266.990698 145.933871 
L 270.234884 146 
L 301.4 146 
L 301.4 146 
" style="fill:none;stroke:#cccccc;stroke-linecap:square;stroke-width:1.75;"/>
   </g>
   <g id="line2d_11">
    <path clip-path="url(#p20b949e3fc)" d="M -1 146 
L 29.083721 145.894911 
L 30.165116 145.718048 
L 31.246512 145.387626 
L 35.572093 143.550905 
L 37.734884 143.300315 
L 43.14186 143.268953 
L 74.502326 143.374042 
L 75.583721 143.550905 
L 76.665116 143.881327 
L 80.990698 145.718048 
L 83.153488 145.968638 
L 88.560465 146 
L 116.676744 145.970606 
L 117.75814 145.84118 
L 118.839535 145.329288 
L 119.92093 143.752551 
L 121.002326 139.970155 
L 122.083721 132.903709 
L 123.165116 122.622092 
L 124.246512 110.971492 
L 125.327907 100.689875 
L 126.409302 93.623429 
L 127.490698 89.841033 
L 128.572093 88.264296 
L 129.653488 87.752405 
L 131.816279 87.597492 
L 161.013953 87.597492 
L 163.176744 87.752405 
L 164.25814 88.264296 
L 165.339535 89.841033 
L 166.42093 93.623429 
L 167.502326 100.689875 
L 168.583721 110.971492 
L 169.665116 122.622092 
L 170.746512 132.903709 
L 171.827907 139.970155 
L 172.909302 143.752551 
L 173.990698 145.329288 
L 175.072093 145.84118 
L 177.234884 145.996092 
L 206.432558 145.992098 
L 207.513953 145.940569 
L 208.595349 145.678883 
L 209.676744 144.643897 
L 210.75814 141.455915 
L 211.839535 133.808343 
L 212.92093 119.520797 
L 214.002326 98.732541 
L 215.083721 75.17636 
L 216.165116 54.388104 
L 217.246512 40.100559 
L 218.327907 32.452987 
L 219.409302 29.265004 
L 220.490698 28.230018 
L 221.572093 27.968332 
L 224.816279 27.908901 
L 252.932558 27.968332 
L 254.013953 28.230018 
L 255.095349 29.265004 
L 256.176744 32.452987 
L 257.25814 40.100559 
L 258.339535 54.388104 
L 259.42093 75.17636 
L 260.502326 98.732541 
L 261.583721 119.520797 
L 262.665116 133.808343 
L 263.746512 141.455915 
L 264.827907 144.643897 
L 265.909302 145.678883 
L 266.990698 145.940569 
L 270.234884 146 
L 301.4 146 
L 301.4 146 
" style="fill:none;stroke:#cccccc;stroke-linecap:square;stroke-width:1.75;"/>
   </g>
   <g id="line2d_12">
    <path clip-path="url(#p20b949e3fc)" d="M -1 146 
L 25.839535 145.96699 
L 26.92093 145.82164 
L 28.002326 145.246771 
L 29.083721 143.476048 
L 30.165116 139.228306 
L 31.246512 131.292479 
L 32.327907 119.745918 
L 33.409302 106.661951 
L 34.490698 95.11539 
L 35.572093 87.179563 
L 36.653488 82.931821 
L 37.734884 81.161099 
L 38.816279 80.586229 
L 39.897674 80.440879 
L 45.304651 80.407869 
L 71.25814 80.440879 
L 72.339535 80.586229 
L 73.42093 81.161099 
L 74.502326 82.931821 
L 75.583721 87.179563 
L 76.665116 95.11539 
L 77.746512 106.661951 
L 78.827907 119.745918 
L 79.909302 131.292479 
L 80.990698 139.228306 
L 82.072093 143.476048 
L 83.153488 145.246771 
L 84.234884 145.82164 
L 85.316279 145.96699 
L 90.723256 146 
L 116.676744 145.934958 
L 117.75814 145.648565 
L 118.839535 144.515861 
L 119.92093 141.026886 
L 121.002326 132.657269 
L 122.083721 117.020767 
L 123.165116 94.269791 
L 124.246512 68.489558 
L 125.327907 45.738582 
L 126.409302 30.10208 
L 127.490698 21.732463 
L 128.572093 18.243488 
L 129.653488 17.110784 
L 130.734884 16.824391 
L 133.97907 16.759349 
L 162.095349 16.824391 
L 163.176744 17.110784 
L 164.25814 18.243488 
L 165.339535 21.732463 
L 166.42093 30.10208 
L 167.502326 45.738582 
L 168.583721 68.489558 
L 169.665116 94.269791 
L 170.746512 117.020767 
L 171.827907 132.657269 
L 172.909302 141.026886 
L 173.990698 144.515861 
L 175.072093 145.648565 
L 176.153488 145.934958 
L 179.397674 146 
L 207.513953 145.933701 
L 208.595349 145.641773 
L 209.676744 144.487177 
L 210.75814 140.930772 
L 211.839535 132.3994 
L 212.92093 116.460697 
L 214.002326 93.270023 
L 215.083721 66.991545 
L 216.165116 43.80087 
L 217.246512 27.862168 
L 218.327907 19.330796 
L 219.409302 15.77439 
L 220.490698 14.619795 
L 221.572093 14.327867 
L 224.816279 14.261568 
L 252.932558 14.327867 
L 254.013953 14.619795 
L 255.095349 15.77439 
L 256.176744 19.330796 
L 257.25814 27.862168 
L 258.339535 43.80087 
L 259.42093 66.991545 
L 260.502326 93.270023 
L 261.583721 116.460697 
L 262.665116 132.3994 
L 263.746512 140.930772 
L 264.827907 144.487177 
L 265.909302 145.641773 
L 266.990698 145.933701 
L 270.234884 146 
L 301.4 146 
L 301.4 146 
" style="fill:none;stroke:#cccccc;stroke-linecap:square;stroke-width:1.75;"/>
   </g>
   <g id="line2d_13">
    <path clip-path="url(#p20b949e3fc)" d="M -1 146 
L 25.839535 145.974044 
L 26.92093 145.859753 
L 28.002326 145.407724 
L 29.083721 144.015379 
L 30.165116 140.675315 
L 31.246512 134.435254 
L 32.327907 125.356019 
L 33.409302 115.067898 
L 34.490698 105.988662 
L 35.572093 99.748602 
L 36.653488 96.408538 
L 37.734884 95.016192 
L 38.816279 94.564163 
L 40.97907 94.427367 
L 70.176744 94.427367 
L 72.339535 94.564163 
L 73.42093 95.016192 
L 74.502326 96.408538 
L 75.583721 99.748602 
L 76.665116 105.988662 
L 77.746512 115.067898 
L 78.827907 125.356019 
L 79.909302 134.435254 
L 80.990698 140.675315 
L 82.072093 144.015379 
L 83.153488 145.407724 
L 84.234884 145.859753 
L 86.397674 145.996549 
L 115.595349 145.991449 
L 116.676744 145.935689 
L 117.75814 145.652516 
L 118.839535 144.532547 
L 119.92093 141.082799 
L 121.002326 132.807284 
L 122.083721 117.346586 
L 123.165116 94.851403 
L 124.246512 69.361021 
L 125.327907 46.865838 
L 126.409302 31.40514 
L 127.490698 23.129624 
L 128.572093 19.679876 
L 129.653488 18.559907 
L 130.734884 18.276735 
L 133.97907 18.212424 
L 162.095349 18.276735 
L 163.176744 18.559907 
L 164.25814 19.679876 
L 165.339535 23.129624 
L 166.42093 31.40514 
L 167.502326 46.865838 
L 168.583721 69.361021 
L 169.665116 94.851403 
L 170.746512 117.346586 
L 171.827907 132.807284 
L 172.909302 141.082799 
L 173.990698 144.532547 
L 175.072093 145.652516 
L 176.153488 145.935689 
L 179.397674 146 
L 207.513953 145.933772 
L 208.595349 145.642159 
L 209.676744 144.488807 
L 210.75814 140.936231 
L 211.839535 132.414046 
L 212.92093 116.492508 
L 214.002326 93.326807 
L 215.083721 67.076628 
L 216.165116 43.910927 
L 217.246512 27.989389 
L 218.327907 19.467204 
L 219.409302 15.914628 
L 220.490698 14.761276 
L 221.572093 14.469663 
L 224.816279 14.403435 
L 252.932558 14.469663 
L 254.013953 14.761276 
L 255.095349 15.914628 
L 256.176744 19.467204 
L 257.25814 27.989389 
L 258.339535 43.910927 
L 259.42093 67.076628 
L 260.502326 93.326807 
L 261.583721 116.492508 
L 262.665116 132.414046 
L 263.746512 140.936231 
L 264.827907 144.488807 
L 265.909302 145.642159 
L 266.990698 145.933772 
L 270.234884 146 
L 301.4 146 
L 301.4 146 
" style="fill:none;stroke:#cccccc;stroke-linecap:square;stroke-width:1.75;"/>
   </g>
   <g id="line2d_14">
    <path clip-path="url(#p20b949e3fc)" d="M -1 146 
L 26.92093 145.910014 
L 28.002326 145.619983 
L 29.083721 144.726622 
L 30.165116 142.583562 
L 31.246512 138.579798 
L 32.327907 132.754356 
L 33.409302 126.153265 
L 34.490698 120.327823 
L 35.572093 116.324059 
L 36.653488 114.180998 
L 37.734884 113.287638 
L 38.816279 112.997606 
L 40.97907 112.909835 
L 71.25814 112.924275 
L 72.339535 112.997606 
L 73.42093 113.287638 
L 74.502326 114.180998 
L 75.583721 116.324059 
L 76.665116 120.327823 
L 77.746512 126.153265 
L 78.827907 132.754356 
L 79.909302 138.579798 
L 80.990698 142.583562 
L 82.072093 144.726622 
L 83.153488 145.619983 
L 84.234884 145.910014 
L 86.397674 145.997786 
L 115.595349 145.991695 
L 116.676744 145.937541 
L 117.75814 145.662523 
L 118.839535 144.574806 
L 119.92093 141.224402 
L 121.002326 133.1872 
L 122.083721 118.171731 
L 123.165116 96.324352 
L 124.246512 71.568028 
L 125.327907 49.720649 
L 126.409302 34.705179 
L 127.490698 26.667978 
L 128.572093 23.317573 
L 129.653488 22.229856 
L 130.734884 21.954839 
L 133.97907 21.892379 
L 162.095349 21.954839 
L 163.176744 22.229856 
L 164.25814 23.317573 
L 165.339535 26.667978 
L 166.42093 34.705179 
L 167.502326 49.720649 
L 168.583721 71.568028 
L 169.665116 96.324352 
L 170.746512 118.171731 
L 171.827907 133.1872 
L 172.909302 141.224402 
L 173.990698 144.574806 
L 175.072093 145.662523 
L 176.153488 145.937541 
L 179.397674 146 
L 207.513953 145.93396 
L 208.595349 145.643172 
L 209.676744 144.493087 
L 210.75814 140.950574 
L 211.839535 132.452528 
L 212.92093 116.576087 
L 214.002326 93.476003 
L 215.083721 67.300177 
L 216.165116 44.200093 
L 217.246512 28.323652 
L 218.327907 19.825606 
L 219.409302 16.283093 
L 220.490698 15.133008 
L 221.572093 14.842221 
L 224.816279 14.77618 
L 252.932558 14.842221 
L 254.013953 15.133008 
L 255.095349 16.283093 
L 256.176744 19.825606 
L 257.25814 28.323652 
L 258.339535 44.200093 
L 259.42093 67.300177 
L 260.502326 93.476003 
L 261.583721 116.576087 
L 262.665116 132.452528 
L 263.746512 140.950574 
L 264.827907 144.493087 
L 265.909302 145.643172 
L 266.990698 145.93396 
L 270.234884 146 
L 301.4 146 
L 301.4 146 
" style="fill:none;stroke:#cccccc;stroke-linecap:square;stroke-width:1.75;"/>
   </g>
   <g id="line2d_15">
    <path clip-path="url(#p20b949e3fc)" d="M -1 146 
L 28.002326 145.902364 
L 29.083721 145.672837 
L 30.165116 145.122231 
L 31.246512 144.093563 
L 32.327907 142.59686 
L 34.490698 139.40417 
L 35.572093 138.375502 
L 36.653488 137.824896 
L 37.734884 137.595369 
L 39.897674 137.502012 
L 71.25814 137.502012 
L 73.42093 137.595369 
L 74.502326 137.824896 
L 75.583721 138.375502 
L 76.665116 139.40417 
L 77.746512 140.900873 
L 79.909302 144.093563 
L 80.990698 145.122231 
L 82.072093 145.672837 
L 83.153488 145.902364 
L 85.316279 145.995721 
L 115.595349 145.993339 
L 116.676744 145.949904 
L 117.75814 145.729324 
L 118.839535 144.856912 
L 119.92093 142.169695 
L 121.002326 135.723397 
L 122.083721 123.680125 
L 123.165116 106.157269 
L 124.246512 86.301271 
L 125.327907 68.778415 
L 126.409302 56.735144 
L 127.490698 50.288845 
L 128.572093 47.601628 
L 129.653488 46.729216 
L 130.734884 46.508636 
L 133.97907 46.45854 
L 162.095349 46.508636 
L 163.176744 46.729216 
L 164.25814 47.601628 
L 165.339535 50.288845 
L 166.42093 56.735144 
L 167.502326 68.778415 
L 168.583721 86.301271 
L 169.665116 106.157269 
L 170.746512 123.680125 
L 171.827907 135.723397 
L 172.909302 142.169695 
L 173.990698 144.856912 
L 175.072093 145.729324 
L 176.153488 145.949904 
L 179.397674 146 
L 207.513953 145.935527 
L 208.595349 145.651639 
L 209.676744 144.528842 
L 210.75814 141.070383 
L 211.839535 132.773971 
L 212.92093 117.274233 
L 214.002326 94.722247 
L 215.083721 69.167499 
L 216.165116 46.615514 
L 217.246512 31.115776 
L 218.327907 22.819364 
L 219.409302 19.360905 
L 220.490698 18.238108 
L 221.572093 17.95422 
L 224.816279 17.889746 
L 252.932558 17.95422 
L 254.013953 18.238108 
L 255.095349 19.360905 
L 256.176744 22.819364 
L 257.25814 31.115776 
L 258.339535 46.615514 
L 259.42093 69.167499 
L 260.502326 94.722247 
L 261.583721 117.274233 
L 262.665116 132.773971 
L 263.746512 141.070383 
L 264.827907 144.528842 
L 265.909302 145.651639 
L 266.990698 145.935527 
L 270.234884 146 
L 301.4 146 
L 301.4 146 
" style="fill:none;stroke:#cccccc;stroke-linecap:square;stroke-width:1.75;"/>
   </g>
   <g id="line2d_16">
    <path clip-path="url(#p20b949e3fc)" d="M -1 146 
L 28.002326 145.939284 
L 29.083721 145.79655 
L 30.165116 145.454149 
L 31.246512 144.81446 
L 34.490698 141.898307 
L 35.572093 141.258618 
L 36.653488 140.916217 
L 38.816279 140.727144 
L 49.630233 140.712767 
L 73.42093 140.773483 
L 74.502326 140.916217 
L 75.583721 141.258618 
L 76.665116 141.898307 
L 79.909302 144.81446 
L 80.990698 145.454149 
L 82.072093 145.79655 
L 84.234884 145.985623 
L 95.048837 146 
L 116.676744 145.957509 
L 117.75814 145.770414 
L 118.839535 145.03044 
L 119.92093 142.751158 
L 121.002326 137.283446 
L 122.083721 127.068414 
L 123.165116 112.20563 
L 124.246512 95.36389 
L 125.327907 80.501106 
L 126.409302 70.286074 
L 127.490698 64.818362 
L 128.572093 62.53908 
L 129.653488 61.799106 
L 130.734884 61.612011 
L 135.060465 61.56952 
L 162.095349 61.612011 
L 163.176744 61.799106 
L 164.25814 62.53908 
L 165.339535 64.818362 
L 166.42093 70.286074 
L 167.502326 80.501106 
L 168.583721 95.36389 
L 169.665116 112.20563 
L 170.746512 127.068414 
L 171.827907 137.283446 
L 172.909302 142.751158 
L 173.990698 145.03044 
L 175.072093 145.770414 
L 176.153488 145.957509 
L 180.47907 146 
L 207.513953 145.936883 
L 208.595349 145.65897 
L 209.676744 144.559803 
L 210.75814 141.17413 
L 211.839535 133.052321 
L 212.92093 117.878784 
L 214.002326 95.801419 
L 215.083721 70.784487 
L 216.165116 48.707122 
L 217.246512 33.533586 
L 218.327907 25.411777 
L 219.409302 22.026103 
L 220.490698 20.926936 
L 221.572093 20.649023 
L 224.816279 20.585906 
L 252.932558 20.649023 
L 254.013953 20.926936 
L 255.095349 22.026103 
L 256.176744 25.411777 
L 257.25814 33.533586 
L 258.339535 48.707122 
L 259.42093 70.784487 
L 260.502326 95.801419 
L 261.583721 117.878784 
L 262.665116 133.052321 
L 263.746512 141.17413 
L 264.827907 144.559803 
L 265.909302 145.65897 
L 266.990698 145.936883 
L 270.234884 146 
L 301.4 146 
L 301.4 146 
" style="fill:none;stroke:#cccccc;stroke-linecap:square;stroke-width:1.75;"/>
   </g>
   <g id="line2d_17">
    <path clip-path="url(#p20b949e3fc)" d="M -1 146 
L 28.002326 145.964627 
L 29.083721 145.881472 
L 30.165116 145.681992 
L 31.246512 145.309316 
L 35.572093 143.237715 
L 36.653488 143.038236 
L 38.816279 142.928084 
L 57.2 142.919708 
L 73.42093 142.95508 
L 74.502326 143.038236 
L 75.583721 143.237715 
L 76.665116 143.610392 
L 80.990698 145.681992 
L 82.072093 145.881472 
L 84.234884 145.991624 
L 102.618605 146 
L 116.676744 145.968071 
L 117.75814 145.827484 
L 118.839535 145.27145 
L 119.92093 143.558745 
L 121.002326 139.450179 
L 122.083721 131.774368 
L 123.165116 120.606128 
L 124.246512 107.950854 
L 125.327907 96.782614 
L 126.409302 89.106803 
L 127.490698 84.998237 
L 128.572093 83.285532 
L 129.653488 82.729498 
L 130.734884 82.588911 
L 136.14186 82.556982 
L 162.095349 82.588911 
L 163.176744 82.729498 
L 164.25814 83.285532 
L 165.339535 84.998237 
L 166.42093 89.106803 
L 167.502326 96.782614 
L 168.583721 107.950854 
L 169.665116 120.606128 
L 170.746512 131.774368 
L 171.827907 139.450179 
L 172.909302 143.558745 
L 173.990698 145.27145 
L 175.072093 145.827484 
L 176.153488 145.968071 
L 181.560465 146 
L 207.513953 145.939659 
L 208.595349 145.67397 
L 209.676744 144.623146 
L 210.75814 141.386381 
L 211.839535 133.621786 
L 212.92093 119.115612 
L 214.002326 98.009254 
L 215.083721 74.092617 
L 216.165116 52.986259 
L 217.246512 38.480086 
L 218.327907 30.71549 
L 219.409302 27.478726 
L 220.490698 26.427902 
L 221.572093 26.162212 
L 224.816279 26.101871 
L 252.932558 26.162212 
L 254.013953 26.427902 
L 255.095349 27.478726 
L 256.176744 30.71549 
L 257.25814 38.480086 
L 258.339535 52.986259 
L 259.42093 74.092617 
L 260.502326 98.009254 
L 261.583721 119.115612 
L 262.665116 133.621786 
L 263.746512 141.386381 
L 264.827907 144.623146 
L 265.909302 145.67397 
L 266.990698 145.939659 
L 270.234884 146 
L 301.4 146 
L 301.4 146 
" style="fill:none;stroke:#cccccc;stroke-linecap:square;stroke-width:1.75;"/>
   </g>
   <g id="line2d_18">
    <path clip-path="url(#p20b949e3fc)" d="M -1 146 
L 28.002326 145.894887 
L 29.083721 145.647783 
L 30.165116 145.055012 
L 31.246512 143.947569 
L 32.327907 142.33625 
L 34.490698 138.899066 
L 35.572093 137.791624 
L 36.653488 137.198852 
L 37.734884 136.951748 
L 39.897674 136.851242 
L 70.176744 136.847248 
L 73.42093 136.951748 
L 74.502326 137.198852 
L 75.583721 137.791624 
L 76.665116 138.899066 
L 77.746512 140.510386 
L 79.909302 143.947569 
L 80.990698 145.055012 
L 82.072093 145.647783 
L 83.153488 145.894887 
L 85.316279 145.995393 
L 114.513953 146 
L 116.676744 145.948888 
L 117.75814 145.723832 
L 118.839535 144.833718 
L 119.92093 142.091975 
L 121.002326 135.514874 
L 122.083721 123.227232 
L 123.165116 105.348819 
L 124.246512 85.089923 
L 125.327907 67.21151 
L 126.409302 54.923868 
L 127.490698 48.346768 
L 128.572093 45.605024 
L 129.653488 44.714911 
L 130.734884 44.489855 
L 133.97907 44.438742 
L 162.095349 44.489855 
L 163.176744 44.714911 
L 164.25814 45.605024 
L 165.339535 48.346768 
L 166.42093 54.923868 
L 167.502326 67.21151 
L 168.583721 85.089923 
L 169.665116 105.348819 
L 170.746512 123.227232 
L 171.827907 135.514874 
L 172.909302 142.091975 
L 173.990698 144.833718 
L 175.072093 145.723832 
L 176.153488 145.948888 
L 179.397674 146 
L 207.513953 145.935372 
L 208.595349 145.650806 
L 209.676744 144.525323 
L 210.75814 141.058591 
L 211.839535 132.742335 
L 212.92093 117.205523 
L 214.002326 94.599594 
L 215.083721 68.983721 
L 216.165116 46.377793 
L 217.246512 30.840981 
L 218.327907 22.524724 
L 219.409302 19.057993 
L 220.490698 17.93251 
L 221.572093 17.647943 
L 224.816279 17.583316 
L 252.932558 17.647943 
L 254.013953 17.93251 
L 255.095349 19.057993 
L 256.176744 22.524724 
L 257.25814 30.840981 
L 258.339535 46.377793 
L 259.42093 68.983721 
L 260.502326 94.599594 
L 261.583721 117.205523 
L 262.665116 132.742335 
L 263.746512 141.058591 
L 264.827907 144.525323 
L 265.909302 145.650806 
L 266.990698 145.935372 
L 270.234884 146 
L 301.4 146 
L 301.4 146 
" style="fill:none;stroke:#cccccc;stroke-linecap:square;stroke-width:1.75;"/>
   </g>
   <g id="line2d_19">
    <path clip-path="url(#p20b949e3fc)" d="M -1 146 
L 29.083721 145.905221 
L 30.165116 145.74571 
L 31.246512 145.447705 
L 35.572093 143.791184 
L 37.734884 143.56518 
L 44.223256 143.536895 
L 74.502326 143.631674 
L 75.583721 143.791184 
L 76.665116 144.089189 
L 80.990698 145.74571 
L 83.153488 145.971715 
L 89.64186 146 
L 116.676744 145.972807 
L 117.75814 145.853072 
L 118.839535 145.379512 
L 119.92093 143.920842 
L 121.002326 140.421676 
L 122.083721 133.884372 
L 123.165116 124.372652 
L 124.246512 113.594461 
L 125.327907 104.082741 
L 126.409302 97.545437 
L 127.490698 94.046271 
L 128.572093 92.587602 
L 129.653488 92.114041 
L 131.816279 91.970729 
L 161.013953 91.970729 
L 163.176744 92.114041 
L 164.25814 92.587602 
L 165.339535 94.046271 
L 166.42093 97.545437 
L 167.502326 104.082741 
L 168.583721 113.594461 
L 169.665116 124.372652 
L 170.746512 133.884372 
L 171.827907 140.421676 
L 172.909302 143.920842 
L 173.990698 145.379512 
L 175.072093 145.853072 
L 177.234884 145.996384 
L 206.432558 145.992218 
L 207.513953 145.94147 
L 208.595349 145.68375 
L 209.676744 144.664451 
L 210.75814 141.524786 
L 211.839535 133.993124 
L 212.92093 119.922125 
L 214.002326 99.448943 
L 215.083721 76.249789 
L 216.165116 55.776607 
L 217.246512 41.705608 
L 218.327907 34.173945 
L 219.409302 31.034281 
L 220.490698 30.014982 
L 221.572093 29.757262 
L 224.816279 29.698732 
L 252.932558 29.757262 
L 254.013953 30.014982 
L 255.095349 31.034281 
L 256.176744 34.173945 
L 257.25814 41.705608 
L 258.339535 55.776607 
L 259.42093 76.249789 
L 260.502326 99.448943 
L 261.583721 119.922125 
L 262.665116 133.993124 
L 263.746512 141.524786 
L 264.827907 144.664451 
L 265.909302 145.68375 
L 266.990698 145.94147 
L 270.234884 146 
L 301.4 146 
L 301.4 146 
" style="fill:none;stroke:#cccccc;stroke-linecap:square;stroke-width:1.75;"/>
   </g>
   <g id="line2d_20">
    <path clip-path="url(#p20b949e3fc)" d="M -1 146 
L 28.002326 145.949058 
L 29.083721 145.829301 
L 30.165116 145.542018 
L 31.246512 145.005304 
L 34.490698 142.558583 
L 35.572093 142.021869 
L 36.653488 141.734586 
L 38.816279 141.57595 
L 51.793023 141.563887 
L 73.42093 141.614829 
L 74.502326 141.734586 
L 75.583721 142.021869 
L 76.665116 142.558583 
L 79.909302 145.005304 
L 80.990698 145.542018 
L 82.072093 145.829301 
L 84.234884 145.987937 
L 97.211628 146 
L 116.676744 145.960753 
L 117.75814 145.787939 
L 118.839535 145.104449 
L 119.92093 142.99915 
L 121.002326 137.948802 
L 122.083721 128.513509 
L 123.165116 114.785238 
L 124.246512 99.22907 
L 125.327907 85.500799 
L 126.409302 76.065506 
L 127.490698 71.015157 
L 128.572093 68.909859 
L 129.653488 68.226368 
L 130.734884 68.053555 
L 135.060465 68.014308 
L 162.095349 68.053555 
L 163.176744 68.226368 
L 164.25814 68.909859 
L 165.339535 71.015157 
L 166.42093 76.065506 
L 167.502326 85.500799 
L 168.583721 99.22907 
L 169.665116 114.785238 
L 170.746512 128.513509 
L 171.827907 137.948802 
L 172.909302 142.99915 
L 173.990698 145.104449 
L 175.072093 145.787939 
L 176.153488 145.960753 
L 180.47907 146 
L 207.513953 145.937599 
L 208.595349 145.662839 
L 209.676744 144.576141 
L 210.75814 141.228875 
L 211.839535 133.199201 
L 212.92093 118.197796 
L 214.002326 96.37088 
L 215.083721 71.637743 
L 216.165116 49.810827 
L 217.246512 34.809422 
L 218.327907 26.779748 
L 219.409302 23.432482 
L 220.490698 22.345784 
L 221.572093 22.071024 
L 224.816279 22.008623 
L 252.932558 22.071024 
L 254.013953 22.345784 
L 255.095349 23.432482 
L 256.176744 26.779748 
L 257.25814 34.809422 
L 258.339535 49.810827 
L 259.42093 71.637743 
L 260.502326 96.37088 
L 261.583721 118.197796 
L 262.665116 133.199201 
L 263.746512 141.228875 
L 264.827907 144.576141 
L 265.909302 145.662839 
L 266.990698 145.937599 
L 270.234884 146 
L 301.4 146 
L 301.4 146 
" style="fill:none;stroke:#cccccc;stroke-linecap:square;stroke-width:1.75;"/>
   </g>
   <g id="line2d_21">
    <path clip-path="url(#p20b949e3fc)" d="M -1 146 
L 26.92093 145.969878 
L 28.002326 145.87279 
L 29.083721 145.573741 
L 30.165116 144.856357 
L 31.246512 143.516109 
L 32.327907 141.56606 
L 33.409302 139.356364 
L 34.490698 137.406315 
L 35.572093 136.066067 
L 36.653488 135.348684 
L 37.734884 135.049634 
L 39.897674 134.927999 
L 65.851163 134.922424 
L 72.339535 134.952547 
L 73.42093 135.049634 
L 74.502326 135.348684 
L 75.583721 136.066067 
L 76.665116 137.406315 
L 77.746512 139.356364 
L 78.827907 141.56606 
L 79.909302 143.516109 
L 80.990698 144.856357 
L 82.072093 145.573741 
L 83.153488 145.87279 
L 85.316279 145.994425 
L 111.269767 146 
L 116.676744 145.946466 
L 117.75814 145.710744 
L 118.839535 144.778448 
L 119.92093 141.906773 
L 121.002326 135.017984 
L 122.083721 122.148031 
L 123.165116 103.422361 
L 124.246512 82.203396 
L 125.327907 63.477725 
L 126.409302 50.607773 
L 127.490698 43.718983 
L 128.572093 40.847309 
L 129.653488 39.915013 
L 130.734884 39.679291 
L 133.97907 39.625757 
L 162.095349 39.679291 
L 163.176744 39.915013 
L 164.25814 40.847309 
L 165.339535 43.718983 
L 166.42093 50.607773 
L 167.502326 63.477725 
L 168.583721 82.203396 
L 169.665116 103.422361 
L 170.746512 122.148031 
L 171.827907 135.017984 
L 172.909302 141.906773 
L 173.990698 144.778448 
L 175.072093 145.710744 
L 176.153488 145.946466 
L 179.397674 146 
L 207.513953 145.935026 
L 208.595349 145.648934 
L 209.676744 144.517418 
L 210.75814 141.032104 
L 211.839535 132.67127 
L 212.92093 117.051175 
L 214.002326 94.324071 
L 215.083721 68.570889 
L 216.165116 45.843785 
L 217.246512 30.223691 
L 218.327907 21.862856 
L 219.409302 18.377542 
L 220.490698 17.246026 
L 221.572093 16.959934 
L 224.816279 16.89496 
L 252.932558 16.959934 
L 254.013953 17.246026 
L 255.095349 18.377542 
L 256.176744 21.862856 
L 257.25814 30.223691 
L 258.339535 45.843785 
L 259.42093 68.570889 
L 260.502326 94.324071 
L 261.583721 117.051175 
L 262.665116 132.67127 
L 263.746512 141.032104 
L 264.827907 144.517418 
L 265.909302 145.648934 
L 266.990698 145.935026 
L 270.234884 146 
L 301.4 146 
L 301.4 146 
" style="fill:none;stroke:#cccccc;stroke-linecap:square;stroke-width:1.75;"/>
   </g>
   <g id="line2d_22">
    <path clip-path="url(#p20b949e3fc)" d="M -1 146 
L 26.92093 145.951455 
L 28.002326 145.794989 
L 29.083721 145.313042 
L 30.165116 144.15691 
L 31.246512 141.996972 
L 32.327907 138.854281 
L 33.409302 135.293145 
L 34.490698 132.150454 
L 35.572093 129.990516 
L 36.653488 128.834384 
L 37.734884 128.352437 
L 38.816279 128.195971 
L 43.14186 128.147426 
L 72.339535 128.195971 
L 73.42093 128.352437 
L 74.502326 128.834384 
L 75.583721 129.990516 
L 76.665116 132.150454 
L 77.746512 135.293145 
L 78.827907 138.854281 
L 79.909302 141.996972 
L 80.990698 144.15691 
L 82.072093 145.313042 
L 83.153488 145.794989 
L 84.234884 145.951455 
L 88.560465 146 
L 116.676744 145.941634 
L 117.75814 145.684636 
L 118.839535 144.668192 
L 119.92093 141.537323 
L 121.002326 134.026759 
L 122.083721 119.995178 
L 123.165116 99.579348 
L 124.246512 76.445181 
L 125.327907 56.029351 
L 126.409302 41.99777 
L 127.490698 34.487206 
L 128.572093 31.356337 
L 129.653488 30.339893 
L 130.734884 30.082895 
L 133.97907 30.024529 
L 162.095349 30.082895 
L 163.176744 30.339893 
L 164.25814 31.356337 
L 165.339535 34.487206 
L 166.42093 41.99777 
L 167.502326 56.029351 
L 168.583721 76.445181 
L 169.665116 99.579348 
L 170.746512 119.995178 
L 171.827907 134.026759 
L 172.909302 141.537323 
L 173.990698 144.668192 
L 175.072093 145.684636 
L 176.153488 145.941634 
L 179.397674 146 
L 207.513953 145.934412 
L 208.595349 145.645618 
L 209.676744 144.503413 
L 210.75814 140.985176 
L 211.839535 132.545363 
L 212.92093 116.777718 
L 214.002326 93.835929 
L 215.083721 67.839476 
L 216.165116 44.897688 
L 217.246512 29.130042 
L 218.327907 20.69023 
L 219.409302 17.171992 
L 220.490698 16.029788 
L 221.572093 15.740993 
L 224.816279 15.675406 
L 252.932558 15.740993 
L 254.013953 16.029788 
L 255.095349 17.171992 
L 256.176744 20.69023 
L 257.25814 29.130042 
L 258.339535 44.897688 
L 259.42093 67.839476 
L 260.502326 93.835929 
L 261.583721 116.777718 
L 262.665116 132.545363 
L 263.746512 140.985176 
L 264.827907 144.503413 
L 265.909302 145.645618 
L 266.990698 145.934412 
L 270.234884 146 
L 301.4 146 
L 301.4 146 
" style="fill:none;stroke:#cccccc;stroke-linecap:square;stroke-width:1.75;"/>
   </g>
   <g id="line2d_23">
    <path clip-path="url(#p20b949e3fc)" d="M -1 146 
L 28.002326 145.936862 
L 29.083721 145.788434 
L 30.165116 145.432375 
L 31.246512 144.767168 
L 34.490698 141.734687 
L 35.572093 141.06948 
L 36.653488 140.713421 
L 38.816279 140.516806 
L 49.630233 140.501855 
L 73.42093 140.564993 
L 74.502326 140.713421 
L 75.583721 141.06948 
L 76.665116 141.734687 
L 79.909302 144.767168 
L 80.990698 145.432375 
L 82.072093 145.788434 
L 84.234884 145.985049 
L 95.048837 146 
L 116.676744 145.956816 
L 117.75814 145.766669 
L 118.839535 145.014624 
L 119.92093 142.698162 
L 121.002326 137.14126 
L 122.083721 126.759598 
L 123.165116 111.654371 
L 124.246512 94.537905 
L 125.327907 79.432677 
L 126.409302 69.051016 
L 127.490698 63.494113 
L 128.572093 61.177651 
L 129.653488 60.425606 
L 130.734884 60.235459 
L 135.060465 60.192275 
L 162.095349 60.235459 
L 163.176744 60.425606 
L 164.25814 61.177651 
L 165.339535 63.494113 
L 166.42093 69.051016 
L 167.502326 79.432677 
L 168.583721 94.537905 
L 169.665116 111.654371 
L 170.746512 126.759598 
L 171.827907 137.14126 
L 172.909302 142.698162 
L 173.990698 145.014624 
L 175.072093 145.766669 
L 176.153488 145.956816 
L 180.47907 146 
L 207.513953 145.936743 
L 208.595349 145.658209 
L 209.676744 144.556589 
L 210.75814 141.163358 
L 211.839535 133.023421 
L 212.92093 117.816016 
L 214.002326 95.689372 
L 215.083721 70.616601 
L 216.165116 48.489957 
L 217.246512 33.282553 
L 218.327907 25.142615 
L 219.409302 21.749385 
L 220.490698 20.647764 
L 221.572093 20.369231 
L 224.816279 20.305973 
L 252.932558 20.369231 
L 254.013953 20.647764 
L 255.095349 21.749385 
L 256.176744 25.142615 
L 257.25814 33.282553 
L 258.339535 48.489957 
L 259.42093 70.616601 
L 260.502326 95.689372 
L 261.583721 117.816016 
L 262.665116 133.023421 
L 263.746512 141.163358 
L 264.827907 144.556589 
L 265.909302 145.658209 
L 266.990698 145.936743 
L 270.234884 146 
L 301.4 146 
L 301.4 146 
" style="fill:none;stroke:#cccccc;stroke-linecap:square;stroke-width:1.75;"/>
   </g>
   <g id="line2d_24">
    <path clip-path="url(#p20b949e3fc)" d="M -1 146 
L 28.002326 145.949079 
L 29.083721 145.82937 
L 30.165116 145.542205 
L 31.246512 145.005709 
L 34.490698 142.559985 
L 35.572093 142.023489 
L 36.653488 141.736324 
L 38.816279 141.577752 
L 51.793023 141.565694 
L 73.42093 141.616616 
L 74.502326 141.736324 
L 75.583721 142.023489 
L 76.665116 142.559985 
L 79.909302 145.005709 
L 80.990698 145.542205 
L 82.072093 145.82937 
L 84.234884 145.987942 
L 97.211628 146 
L 116.676744 145.96076 
L 117.75814 145.787981 
L 118.839535 145.104626 
L 119.92093 142.999744 
L 121.002326 137.950396 
L 122.083721 128.51697 
L 123.165116 114.791417 
L 124.246512 99.238328 
L 125.327907 85.512776 
L 126.409302 76.07935 
L 127.490698 71.030001 
L 128.572093 68.92512 
L 129.653488 68.241765 
L 130.734884 68.068985 
L 135.060465 68.029746 
L 162.095349 68.068985 
L 163.176744 68.241765 
L 164.25814 68.92512 
L 165.339535 71.030001 
L 166.42093 76.07935 
L 167.502326 85.512776 
L 168.583721 99.238328 
L 169.665116 114.791417 
L 170.746512 128.51697 
L 171.827907 137.950396 
L 172.909302 142.999744 
L 173.990698 145.104626 
L 175.072093 145.787981 
L 176.153488 145.96076 
L 180.47907 146 
L 207.513953 145.937601 
L 208.595349 145.662849 
L 209.676744 144.576183 
L 210.75814 141.229015 
L 211.839535 133.199578 
L 212.92093 118.198614 
L 214.002326 96.372341 
L 215.083721 71.639933 
L 216.165116 49.813659 
L 217.246512 34.812695 
L 218.327907 26.783258 
L 219.409302 23.436091 
L 220.490698 22.349424 
L 221.572093 22.074672 
L 224.816279 22.012273 
L 252.932558 22.074672 
L 254.013953 22.349424 
L 255.095349 23.436091 
L 256.176744 26.783258 
L 257.25814 34.812695 
L 258.339535 49.813659 
L 259.42093 71.639933 
L 260.502326 96.372341 
L 261.583721 118.198614 
L 262.665116 133.199578 
L 263.746512 141.229015 
L 264.827907 144.576183 
L 265.909302 145.662849 
L 266.990698 145.937601 
L 270.234884 146 
L 301.4 146 
L 301.4 146 
" style="fill:none;stroke:#cccccc;stroke-linecap:square;stroke-width:1.75;"/>
   </g>
   <g id="line2d_25">
    <path clip-path="url(#p20b949e3fc)" d="M -1 146 
L 28.002326 145.949676 
L 29.083721 145.831372 
L 30.165116 145.547576 
L 31.246512 145.017375 
L 34.490698 142.600346 
L 35.572093 142.070145 
L 36.653488 141.786349 
L 38.816279 141.629638 
L 51.793023 141.617722 
L 73.42093 141.668046 
L 74.502326 141.786349 
L 75.583721 142.070145 
L 76.665116 142.600346 
L 79.909302 145.017375 
L 80.990698 145.547576 
L 82.072093 145.831372 
L 84.234884 145.988084 
L 97.211628 146 
L 116.676744 145.960986 
L 117.75814 145.7892 
L 118.839535 145.109772 
L 119.92093 143.016987 
L 121.002326 137.996657 
L 122.083721 128.617445 
L 123.165116 114.970773 
L 124.246512 99.507067 
L 125.327907 85.860395 
L 126.409302 76.481184 
L 127.490698 71.460853 
L 128.572093 69.368068 
L 129.653488 68.688641 
L 130.734884 68.516854 
L 135.060465 68.47784 
L 162.095349 68.516854 
L 163.176744 68.688641 
L 164.25814 69.368068 
L 165.339535 71.460853 
L 166.42093 76.481184 
L 167.502326 85.860395 
L 168.583721 99.507067 
L 169.665116 114.970773 
L 170.746512 128.617445 
L 171.827907 137.996657 
L 172.909302 143.016987 
L 173.990698 145.109772 
L 175.072093 145.7892 
L 176.153488 145.960986 
L 180.47907 146 
L 207.513953 145.937655 
L 208.595349 145.663139 
L 209.676744 144.577406 
L 210.75814 141.233113 
L 211.839535 133.210573 
L 212.92093 118.222494 
L 214.002326 96.414967 
L 215.083721 71.703803 
L 216.165116 49.896276 
L 217.246512 34.908197 
L 218.327907 26.885657 
L 219.409302 23.541364 
L 220.490698 22.455632 
L 221.572093 22.181115 
L 224.816279 22.11877 
L 252.932558 22.181115 
L 254.013953 22.455632 
L 255.095349 23.541364 
L 256.176744 26.885657 
L 257.25814 34.908197 
L 258.339535 49.896276 
L 259.42093 71.703803 
L 260.502326 96.414967 
L 261.583721 118.222494 
L 262.665116 133.210573 
L 263.746512 141.233113 
L 264.827907 144.577406 
L 265.909302 145.663139 
L 266.990698 145.937655 
L 270.234884 146 
L 301.4 146 
L 301.4 146 
" style="fill:none;stroke:#cccccc;stroke-linecap:square;stroke-width:1.75;"/>
   </g>
   <g id="line2d_26">
    <path clip-path="url(#p20b949e3fc)" d="M -1 146 
L 25.839535 145.964724 
L 26.92093 145.809398 
L 28.002326 145.195071 
L 29.083721 143.30281 
L 30.165116 138.763511 
L 31.246512 130.282986 
L 32.327907 117.943894 
L 33.409302 103.961871 
L 34.490698 91.622779 
L 35.572093 83.142254 
L 36.653488 78.602955 
L 37.734884 76.710694 
L 38.816279 76.096367 
L 39.897674 75.941041 
L 44.223256 75.905765 
L 71.25814 75.941041 
L 72.339535 76.096367 
L 73.42093 76.710694 
L 74.502326 78.602955 
L 75.583721 83.142254 
L 76.665116 91.622779 
L 77.746512 103.961871 
L 78.827907 117.943894 
L 79.909302 130.282986 
L 80.990698 138.763511 
L 82.072093 143.30281 
L 83.153488 145.195071 
L 84.234884 145.809398 
L 85.316279 145.964724 
L 89.64186 146 
L 116.676744 145.934783 
L 117.75814 145.647621 
L 118.839535 144.511873 
L 119.92093 141.013525 
L 121.002326 132.621423 
L 122.083721 116.942912 
L 123.165116 94.130813 
L 124.246512 68.281319 
L 125.327907 45.46922 
L 126.409302 29.790709 
L 127.490698 21.398607 
L 128.572093 17.900258 
L 129.653488 16.764511 
L 130.734884 16.477349 
L 133.97907 16.412132 
L 162.095349 16.477349 
L 163.176744 16.764511 
L 164.25814 17.900258 
L 165.339535 21.398607 
L 166.42093 29.790709 
L 167.502326 45.46922 
L 168.583721 68.281319 
L 169.665116 94.130813 
L 170.746512 116.942912 
L 171.827907 132.621423 
L 172.909302 141.013525 
L 173.990698 144.511873 
L 175.072093 145.647621 
L 176.153488 145.934783 
L 179.397674 146 
L 207.513953 145.933684 
L 208.595349 145.641682 
L 209.676744 144.486793 
L 210.75814 140.929484 
L 211.839535 132.395944 
L 212.92093 116.453192 
L 214.002326 93.256625 
L 215.083721 66.971471 
L 216.165116 43.774904 
L 217.246512 27.832153 
L 218.327907 19.298612 
L 219.409302 15.741304 
L 220.490698 14.586415 
L 221.572093 14.294413 
L 224.816279 14.228097 
L 252.932558 14.294413 
L 254.013953 14.586415 
L 255.095349 15.741304 
L 256.176744 19.298612 
L 257.25814 27.832153 
L 258.339535 43.774904 
L 259.42093 66.971471 
L 260.502326 93.256625 
L 261.583721 116.453192 
L 262.665116 132.395944 
L 263.746512 140.929484 
L 264.827907 144.486793 
L 265.909302 145.641682 
L 266.990698 145.933684 
L 270.234884 146 
L 301.4 146 
L 301.4 146 
" style="fill:none;stroke:#cccccc;stroke-linecap:square;stroke-width:1.75;"/>
   </g>
   <g id="line2d_27">
    <path clip-path="url(#p20b949e3fc)" d="M -1 146 
L 29.083721 145.918981 
L 30.165116 145.782628 
L 31.246512 145.527888 
L 35.572093 144.11186 
L 37.734884 143.918667 
L 45.304651 143.894488 
L 74.502326 143.975507 
L 75.583721 144.11186 
L 76.665116 144.366601 
L 80.990698 145.782628 
L 83.153488 145.975821 
L 90.723256 146 
L 116.676744 145.97617 
L 117.75814 145.87124 
L 118.839535 145.456237 
L 119.92093 144.177937 
L 121.002326 141.111455 
L 122.083721 135.382513 
L 123.165116 127.04695 
L 124.246512 117.601521 
L 125.327907 109.265959 
L 126.409302 103.537016 
L 127.490698 100.470534 
L 128.572093 99.192234 
L 129.653488 98.777231 
L 131.816279 98.65164 
L 162.095349 98.672302 
L 163.176744 98.777231 
L 164.25814 99.192234 
L 165.339535 100.470534 
L 166.42093 103.537016 
L 167.502326 109.265959 
L 168.583721 117.601521 
L 169.665116 127.04695 
L 170.746512 135.382513 
L 171.827907 141.111455 
L 172.909302 144.177937 
L 173.990698 145.456237 
L 175.072093 145.87124 
L 177.234884 145.996831 
L 206.432558 145.992434 
L 207.513953 145.943098 
L 208.595349 145.69255 
L 209.676744 144.701614 
L 210.75814 141.649314 
L 211.839535 134.327228 
L 212.92093 120.64777 
L 214.002326 100.744277 
L 215.083721 78.190664 
L 216.165116 58.287171 
L 217.246512 44.607713 
L 218.327907 37.285627 
L 219.409302 34.233328 
L 220.490698 33.242391 
L 221.572093 32.991843 
L 224.816279 32.934942 
L 252.932558 32.991843 
L 254.013953 33.242391 
L 255.095349 34.233328 
L 256.176744 37.285627 
L 257.25814 44.607713 
L 258.339535 58.287171 
L 259.42093 78.190664 
L 260.502326 100.744277 
L 261.583721 120.64777 
L 262.665116 134.327228 
L 263.746512 141.649314 
L 264.827907 144.701614 
L 265.909302 145.69255 
L 266.990698 145.943098 
L 270.234884 146 
L 301.4 146 
L 301.4 146 
" style="fill:none;stroke:#cccccc;stroke-linecap:square;stroke-width:1.75;"/>
   </g>
   <g id="line2d_28">
    <path clip-path="url(#p20b949e3fc)" d="M -1 146 
L 26.92093 145.953593 
L 28.002326 145.80402 
L 29.083721 145.343303 
L 30.165116 144.238099 
L 31.246512 142.173306 
L 32.327907 139.169051 
L 33.409302 135.764783 
L 34.490698 132.760527 
L 35.572093 130.695735 
L 36.653488 129.590531 
L 37.734884 129.129813 
L 39.897674 128.942422 
L 57.2 128.933834 
L 72.339535 128.98024 
L 73.42093 129.129813 
L 74.502326 129.590531 
L 75.583721 130.695735 
L 76.665116 132.760527 
L 77.746512 135.764783 
L 78.827907 139.169051 
L 79.909302 142.173306 
L 80.990698 144.238099 
L 82.072093 145.343303 
L 83.153488 145.80402 
L 85.316279 145.991411 
L 102.618605 146 
L 116.676744 145.94202 
L 117.75814 145.686726 
L 118.839535 144.677016 
L 119.92093 141.56689 
L 121.002326 134.106085 
L 122.083721 120.167468 
L 123.165116 99.8869 
L 124.246512 76.906005 
L 125.327907 56.625436 
L 126.409302 42.686819 
L 127.490698 35.226015 
L 128.572093 32.115889 
L 129.653488 31.106179 
L 130.734884 30.850884 
L 133.97907 30.792904 
L 162.095349 30.850884 
L 163.176744 31.106179 
L 164.25814 32.115889 
L 165.339535 35.226015 
L 166.42093 42.686819 
L 167.502326 56.625436 
L 168.583721 76.906005 
L 169.665116 99.8869 
L 170.746512 120.167468 
L 171.827907 134.106085 
L 172.909302 141.56689 
L 173.990698 144.677016 
L 175.072093 145.686726 
L 176.153488 145.94202 
L 179.397674 146 
L 207.513953 145.934458 
L 208.595349 145.645865 
L 209.676744 144.504457 
L 210.75814 140.988673 
L 211.839535 132.554745 
L 212.92093 116.798093 
L 214.002326 93.8723 
L 215.083721 67.893974 
L 216.165116 44.968181 
L 217.246512 29.211529 
L 218.327907 20.777602 
L 219.409302 17.261817 
L 220.490698 16.120409 
L 221.572093 15.831816 
L 224.816279 15.766274 
L 252.932558 15.831816 
L 254.013953 16.120409 
L 255.095349 17.261817 
L 256.176744 20.777602 
L 257.25814 29.211529 
L 258.339535 44.968181 
L 259.42093 67.893974 
L 260.502326 93.8723 
L 261.583721 116.798093 
L 262.665116 132.554745 
L 263.746512 140.988673 
L 264.827907 144.504457 
L 265.909302 145.645865 
L 266.990698 145.934458 
L 270.234884 146 
L 301.4 146 
L 301.4 146 
" style="fill:none;stroke:#cccccc;stroke-linecap:square;stroke-width:1.75;"/>
   </g>
   <g id="line2d_29">
    <path clip-path="url(#p20b949e3fc)" d="M -1 146 
L 26.92093 145.967217 
L 28.002326 145.861553 
L 29.083721 145.536086 
L 30.165116 144.75533 
L 31.246512 143.296687 
L 32.327907 141.174374 
L 33.409302 138.769478 
L 34.490698 136.647165 
L 35.572093 135.188522 
L 36.653488 134.407767 
L 37.734884 134.0823 
L 39.897674 133.94992 
L 63.688372 133.943853 
L 72.339535 133.976636 
L 73.42093 134.0823 
L 74.502326 134.407767 
L 75.583721 135.188522 
L 76.665116 136.647165 
L 77.746512 138.769478 
L 78.827907 141.174374 
L 79.909302 143.296687 
L 80.990698 144.75533 
L 82.072093 145.536086 
L 83.153488 145.861553 
L 85.316279 145.993933 
L 109.106977 146 
L 116.676744 145.945484 
L 117.75814 145.705442 
L 118.839535 144.756056 
L 119.92093 141.831741 
L 121.002326 134.816675 
L 122.083721 121.710805 
L 123.165116 102.641878 
L 124.246512 81.033952 
L 125.327907 61.965025 
L 126.409302 48.859155 
L 127.490698 41.844089 
L 128.572093 38.919774 
L 129.653488 37.970388 
L 130.734884 37.730346 
L 133.97907 37.67583 
L 162.095349 37.730346 
L 163.176744 37.970388 
L 164.25814 38.919774 
L 165.339535 41.844089 
L 166.42093 48.859155 
L 167.502326 61.965025 
L 168.583721 81.033952 
L 169.665116 102.641878 
L 170.746512 121.710805 
L 171.827907 134.816675 
L 172.909302 141.831741 
L 173.990698 144.756056 
L 175.072093 145.705442 
L 176.153488 145.945484 
L 179.397674 146 
L 207.513953 145.934893 
L 208.595349 145.648218 
L 209.676744 144.514394 
L 210.75814 141.021971 
L 211.839535 132.644085 
L 212.92093 116.992132 
L 214.002326 94.218675 
L 215.083721 68.412968 
L 216.165116 45.639511 
L 217.246512 29.987558 
L 218.327907 21.609671 
L 219.409302 18.117248 
L 220.490698 16.983425 
L 221.572093 16.696749 
L 224.816279 16.631643 
L 252.932558 16.696749 
L 254.013953 16.983425 
L 255.095349 18.117248 
L 256.176744 21.609671 
L 257.25814 29.987558 
L 258.339535 45.639511 
L 259.42093 68.412968 
L 260.502326 94.218675 
L 261.583721 116.992132 
L 262.665116 132.644085 
L 263.746512 141.021971 
L 264.827907 144.514394 
L 265.909302 145.648218 
L 266.990698 145.934893 
L 270.234884 146 
L 301.4 146 
L 301.4 146 
" style="fill:none;stroke:#cccccc;stroke-linecap:square;stroke-width:1.75;"/>
   </g>
   <g id="line2d_30">
    <path clip-path="url(#p20b949e3fc)" d="M -1 146 
L 28.002326 145.93748 
L 29.083721 145.790506 
L 30.165116 145.437935 
L 31.246512 144.779244 
L 34.490698 141.776466 
L 35.572093 141.117775 
L 36.653488 140.765204 
L 38.816279 140.570514 
L 49.630233 140.55571 
L 73.42093 140.61823 
L 74.502326 140.765204 
L 75.583721 141.117775 
L 76.665116 141.776466 
L 79.909302 144.779244 
L 80.990698 145.437935 
L 82.072093 145.790506 
L 84.234884 145.985196 
L 95.048837 146 
L 116.676744 145.956989 
L 117.75814 145.767606 
L 118.839535 145.01858 
L 119.92093 142.711417 
L 121.002326 137.176822 
L 122.083721 126.836836 
L 123.165116 111.792245 
L 124.246512 94.744491 
L 125.327907 79.6999 
L 126.409302 69.359915 
L 127.490698 63.825319 
L 128.572093 61.518157 
L 129.653488 60.76913 
L 130.734884 60.579747 
L 135.060465 60.536736 
L 162.095349 60.579747 
L 163.176744 60.76913 
L 164.25814 61.518157 
L 165.339535 63.825319 
L 166.42093 69.359915 
L 167.502326 79.6999 
L 168.583721 94.744491 
L 169.665116 111.792245 
L 170.746512 126.836836 
L 171.827907 137.176822 
L 172.909302 142.711417 
L 173.990698 145.01858 
L 175.072093 145.767606 
L 176.153488 145.956989 
L 180.47907 146 
L 207.513953 145.936777 
L 208.595349 145.658398 
L 209.676744 144.557384 
L 210.75814 141.166024 
L 211.839535 133.030573 
L 212.92093 117.83155 
L 214.002326 95.717102 
L 215.083721 70.65815 
L 216.165116 48.543702 
L 217.246512 33.344679 
L 218.327907 25.209228 
L 219.409302 21.817868 
L 220.490698 20.716854 
L 221.572093 20.438474 
L 224.816279 20.375252 
L 252.932558 20.438474 
L 254.013953 20.716854 
L 255.095349 21.817868 
L 256.176744 25.209228 
L 257.25814 33.344679 
L 258.339535 48.543702 
L 259.42093 70.65815 
L 260.502326 95.717102 
L 261.583721 117.83155 
L 262.665116 133.030573 
L 263.746512 141.166024 
L 264.827907 144.557384 
L 265.909302 145.658398 
L 266.990698 145.936777 
L 270.234884 146 
L 301.4 146 
L 301.4 146 
" style="fill:none;stroke:#cccccc;stroke-linecap:square;stroke-width:1.75;"/>
   </g>
   <g id="line2d_31">
    <path clip-path="url(#p20b949e3fc)" d="M -1 146 
L 28.002326 145.907492 
L 29.083721 145.690021 
L 30.165116 145.168334 
L 31.246512 144.193696 
L 32.327907 142.775604 
L 34.490698 139.750606 
L 35.572093 138.775967 
L 36.653488 138.254281 
L 37.734884 138.036809 
L 39.897674 137.948355 
L 71.25814 137.948355 
L 73.42093 138.036809 
L 74.502326 138.254281 
L 75.583721 138.775967 
L 76.665116 139.750606 
L 77.746512 141.168697 
L 79.909302 144.193696 
L 80.990698 145.168334 
L 82.072093 145.690021 
L 83.153488 145.907492 
L 85.316279 145.995946 
L 115.595349 145.993442 
L 116.676744 145.950676 
L 117.75814 145.733493 
L 118.839535 144.87452 
L 119.92093 142.228697 
L 121.002326 135.881697 
L 122.083721 124.023939 
L 123.165116 106.771003 
L 124.246512 87.220866 
L 125.327907 69.96793 
L 126.409302 58.110172 
L 127.490698 51.763172 
L 128.572093 49.117349 
L 129.653488 48.258375 
L 130.734884 48.041193 
L 133.97907 47.991869 
L 162.095349 48.041193 
L 163.176744 48.258375 
L 164.25814 49.117349 
L 165.339535 51.763172 
L 166.42093 58.110172 
L 167.502326 69.96793 
L 168.583721 87.220866 
L 169.665116 106.771003 
L 170.746512 124.023939 
L 171.827907 135.881697 
L 172.909302 142.228697 
L 173.990698 144.87452 
L 175.072093 145.733493 
L 176.153488 145.950676 
L 179.397674 146 
L 207.513953 145.935647 
L 208.595349 145.652292 
L 209.676744 144.531599 
L 210.75814 141.079621 
L 211.839535 132.798757 
L 212.92093 117.328065 
L 214.002326 94.818343 
L 215.083721 69.311485 
L 216.165116 46.801762 
L 217.246512 31.331071 
L 218.327907 23.050207 
L 219.409302 19.598229 
L 220.490698 18.477536 
L 221.572093 18.19418 
L 224.816279 18.129828 
L 252.932558 18.19418 
L 254.013953 18.477536 
L 255.095349 19.598229 
L 256.176744 23.050207 
L 257.25814 31.331071 
L 258.339535 46.801762 
L 259.42093 69.311485 
L 260.502326 94.818343 
L 261.583721 117.328065 
L 262.665116 132.798757 
L 263.746512 141.079621 
L 264.827907 144.531599 
L 265.909302 145.652292 
L 266.990698 145.935647 
L 270.234884 146 
L 301.4 146 
L 301.4 146 
" style="fill:none;stroke:#cccccc;stroke-linecap:square;stroke-width:1.75;"/>
   </g>
   <g id="line2d_32">
    <path clip-path="url(#p20b949e3fc)" d="M -1 146 
L 28.002326 145.890183 
L 29.083721 145.63202 
L 30.165116 145.012719 
L 31.246512 143.855714 
L 32.327907 142.17228 
L 34.490698 138.581267 
L 35.572093 137.424261 
L 36.653488 136.804961 
L 37.734884 136.546798 
L 39.897674 136.441793 
L 69.095349 136.43698 
L 73.42093 136.546798 
L 74.502326 136.804961 
L 75.583721 137.424261 
L 76.665116 138.581267 
L 77.746512 140.2647 
L 79.909302 143.855714 
L 80.990698 145.012719 
L 82.072093 145.63202 
L 83.153488 145.890183 
L 85.316279 145.995187 
L 114.513953 146 
L 116.676744 145.948306 
L 117.75814 145.720687 
L 118.839535 144.820439 
L 119.92093 142.047477 
L 121.002326 135.395489 
L 122.083721 122.967939 
L 123.165116 104.88596 
L 124.246512 84.396394 
L 125.327907 66.314415 
L 126.409302 53.886865 
L 127.490698 47.234877 
L 128.572093 44.461916 
L 129.653488 43.561667 
L 130.734884 43.334049 
L 133.97907 43.282354 
L 162.095349 43.334049 
L 163.176744 43.561667 
L 164.25814 44.461916 
L 165.339535 47.234877 
L 166.42093 53.886865 
L 167.502326 66.314415 
L 168.583721 84.396394 
L 169.665116 104.88596 
L 170.746512 122.967939 
L 171.827907 135.395489 
L 172.909302 142.047477 
L 173.990698 144.820439 
L 175.072093 145.720687 
L 176.153488 145.948306 
L 179.397674 146 
L 207.513953 145.935286 
L 208.595349 145.650342 
L 209.676744 144.523363 
L 210.75814 141.052026 
L 211.839535 132.72472 
L 212.92093 117.167265 
L 214.002326 94.531302 
L 215.083721 68.881395 
L 216.165116 46.245431 
L 217.246512 30.687976 
L 218.327907 22.36067 
L 219.409302 18.889333 
L 220.490698 17.762355 
L 221.572093 17.47741 
L 224.816279 17.412697 
L 252.932558 17.47741 
L 254.013953 17.762355 
L 255.095349 18.889333 
L 256.176744 22.36067 
L 257.25814 30.687976 
L 258.339535 46.245431 
L 259.42093 68.881395 
L 260.502326 94.531302 
L 261.583721 117.167265 
L 262.665116 132.72472 
L 263.746512 141.052026 
L 264.827907 144.523363 
L 265.909302 145.650342 
L 266.990698 145.935286 
L 270.234884 146 
L 301.4 146 
L 301.4 146 
" style="fill:none;stroke:#cccccc;stroke-linecap:square;stroke-width:1.75;"/>
   </g>
   <g id="line2d_33">
    <path clip-path="url(#p20b949e3fc)" d="M -1 146 
L 28.002326 145.914727 
L 29.083721 145.714263 
L 30.165116 145.233376 
L 31.246512 144.33496 
L 34.490698 140.239349 
L 35.572093 139.340934 
L 36.653488 138.860047 
L 37.734884 138.659583 
L 40.97907 138.574807 
L 73.42093 138.659583 
L 74.502326 138.860047 
L 75.583721 139.340934 
L 76.665116 140.239349 
L 79.909302 144.33496 
L 80.990698 145.233376 
L 82.072093 145.714263 
L 83.153488 145.914727 
L 86.397674 145.999503 
L 116.676744 145.951886 
L 117.75814 145.740032 
L 118.839535 144.902134 
L 119.92093 142.321227 
L 121.002326 136.129953 
L 122.083721 124.56313 
L 123.165116 107.733502 
L 124.246512 88.663034 
L 125.327907 71.833406 
L 126.409302 60.266583 
L 127.490698 54.075309 
L 128.572093 51.494402 
L 129.653488 50.656504 
L 130.734884 50.44465 
L 133.97907 50.396536 
L 162.095349 50.44465 
L 163.176744 50.656504 
L 164.25814 51.494402 
L 165.339535 54.075309 
L 166.42093 60.266583 
L 167.502326 71.833406 
L 168.583721 88.663034 
L 169.665116 107.733502 
L 170.746512 124.56313 
L 171.827907 136.129953 
L 172.909302 142.321227 
L 173.990698 144.902134 
L 175.072093 145.740032 
L 176.153488 145.951886 
L 179.397674 146 
L 207.513953 145.935844 
L 208.595349 145.653353 
L 209.676744 144.536079 
L 210.75814 141.094635 
L 211.839535 132.839039 
L 212.92093 117.415554 
L 214.002326 94.974517 
L 215.083721 69.545491 
L 216.165116 47.104453 
L 217.246512 31.680969 
L 218.327907 23.425373 
L 219.409302 19.983928 
L 220.490698 18.866655 
L 221.572093 18.584164 
L 224.816279 18.520008 
L 252.932558 18.584164 
L 254.013953 18.866655 
L 255.095349 19.983928 
L 256.176744 23.425373 
L 257.25814 31.680969 
L 258.339535 47.104453 
L 259.42093 69.545491 
L 260.502326 94.974517 
L 261.583721 117.415554 
L 262.665116 132.839039 
L 263.746512 141.094635 
L 264.827907 144.536079 
L 265.909302 145.653353 
L 266.990698 145.935844 
L 270.234884 146 
L 301.4 146 
L 301.4 146 
" style="fill:none;stroke:#cccccc;stroke-linecap:square;stroke-width:1.75;"/>
   </g>
   <g id="line2d_34">
    <path clip-path="url(#p20b949e3fc)" d="M -1 146 
L 26.92093 145.944981 
L 28.002326 145.767649 
L 29.083721 145.22143 
L 30.165116 143.911119 
L 31.246512 141.463134 
L 32.327907 137.901337 
L 33.409302 133.865293 
L 34.490698 130.303497 
L 35.572093 127.855512 
L 36.653488 126.5452 
L 37.734884 125.998981 
L 38.816279 125.82165 
L 42.060465 125.766631 
L 72.339535 125.82165 
L 73.42093 125.998981 
L 74.502326 126.5452 
L 75.583721 127.855512 
L 76.665116 130.303497 
L 77.746512 133.865293 
L 78.827907 137.901337 
L 79.909302 141.463134 
L 80.990698 143.911119 
L 82.072093 145.22143 
L 83.153488 145.767649 
L 84.234884 145.944981 
L 87.47907 146 
L 116.676744 145.940628 
L 117.75814 145.679203 
L 118.839535 144.645247 
L 119.92093 141.460439 
L 121.002326 133.820481 
L 122.083721 119.547161 
L 123.165116 98.779603 
L 124.246512 75.246876 
L 125.327907 54.479318 
L 126.409302 40.205998 
L 127.490698 32.56604 
L 128.572093 29.381232 
L 129.653488 28.347276 
L 130.734884 28.085851 
L 133.97907 28.026479 
L 162.095349 28.085851 
L 163.176744 28.347276 
L 164.25814 29.381232 
L 165.339535 32.56604 
L 166.42093 40.205998 
L 167.502326 54.479318 
L 168.583721 75.246876 
L 169.665116 98.779603 
L 170.746512 119.547161 
L 171.827907 133.820481 
L 172.909302 141.460439 
L 173.990698 144.645247 
L 175.072093 145.679203 
L 176.153488 145.940628 
L 179.397674 146 
L 207.513953 145.934296 
L 208.595349 145.644989 
L 209.676744 144.500757 
L 210.75814 140.976276 
L 211.839535 132.521485 
L 212.92093 116.725855 
L 214.002326 93.74335 
L 215.083721 67.70076 
L 216.165116 44.718255 
L 217.246512 28.922626 
L 218.327907 20.467834 
L 219.409302 16.943353 
L 220.490698 15.799122 
L 221.572093 15.509815 
L 224.816279 15.44411 
L 252.932558 15.509815 
L 254.013953 15.799122 
L 255.095349 16.943353 
L 256.176744 20.467834 
L 257.25814 28.922626 
L 258.339535 44.718255 
L 259.42093 67.70076 
L 260.502326 93.74335 
L 261.583721 116.725855 
L 262.665116 132.521485 
L 263.746512 140.976276 
L 264.827907 144.500757 
L 265.909302 145.644989 
L 266.990698 145.934296 
L 270.234884 146 
L 301.4 146 
L 301.4 146 
" style="fill:none;stroke:#cccccc;stroke-linecap:square;stroke-width:1.75;"/>
   </g>
   <g id="line2d_35">
    <path clip-path="url(#p20b949e3fc)" d="M -1 146 
L 28.002326 145.889078 
L 29.083721 145.628318 
L 30.165116 145.002788 
L 31.246512 143.834143 
L 32.327907 142.133775 
L 34.490698 138.506637 
L 35.572093 137.337993 
L 36.653488 136.712462 
L 37.734884 136.451702 
L 39.897674 136.345641 
L 69.095349 136.34078 
L 73.42093 136.451702 
L 74.502326 136.712462 
L 75.583721 137.337993 
L 76.665116 138.506637 
L 77.746512 140.207005 
L 79.909302 143.834143 
L 80.990698 145.002788 
L 82.072093 145.628318 
L 83.153488 145.889078 
L 85.316279 145.995139 
L 114.513953 146 
L 116.676744 145.948175 
L 117.75814 145.71998 
L 118.839535 144.817453 
L 119.92093 142.037473 
L 121.002326 135.368648 
L 122.083721 122.909642 
L 123.165116 104.781895 
L 124.246512 84.240467 
L 125.327907 66.112721 
L 126.409302 53.653715 
L 127.490698 46.98489 
L 128.572093 44.20491 
L 129.653488 43.302383 
L 130.734884 43.074188 
L 133.97907 43.022363 
L 162.095349 43.074188 
L 163.176744 43.302383 
L 164.25814 44.20491 
L 165.339535 46.98489 
L 166.42093 53.653715 
L 167.502326 66.112721 
L 168.583721 84.240467 
L 169.665116 104.781895 
L 170.746512 122.909642 
L 171.827907 135.368648 
L 172.909302 142.037473 
L 173.990698 144.817453 
L 175.072093 145.71998 
L 176.153488 145.948175 
L 179.397674 146 
L 207.513953 145.935267 
L 208.595349 145.650239 
L 209.676744 144.522928 
L 210.75814 141.050568 
L 211.839535 132.720809 
L 212.92093 117.158769 
L 214.002326 94.516135 
L 215.083721 68.85867 
L 216.165116 46.216036 
L 217.246512 30.653997 
L 218.327907 22.324237 
L 219.409302 18.851877 
L 220.490698 17.724566 
L 221.572093 17.439538 
L 224.816279 17.374805 
L 252.932558 17.439538 
L 254.013953 17.724566 
L 255.095349 18.851877 
L 256.176744 22.324237 
L 257.25814 30.653997 
L 258.339535 46.216036 
L 259.42093 68.85867 
L 260.502326 94.516135 
L 261.583721 117.158769 
L 262.665116 132.720809 
L 263.746512 141.050568 
L 264.827907 144.522928 
L 265.909302 145.650239 
L 266.990698 145.935267 
L 270.234884 146 
L 301.4 146 
L 301.4 146 
" style="fill:none;stroke:#cccccc;stroke-linecap:square;stroke-width:1.75;"/>
   </g>
   <g id="line2d_36">
    <path clip-path="url(#p20b949e3fc)" d="M -1 146 
L 28.002326 145.963626 
L 29.083721 145.878116 
L 30.165116 145.672989 
L 31.246512 145.289761 
L 35.572093 143.159511 
L 36.653488 142.954384 
L 38.816279 142.841113 
L 57.2 142.8325 
L 73.42093 142.868874 
L 74.502326 142.954384 
L 75.583721 143.159511 
L 76.665116 143.542739 
L 80.990698 145.672989 
L 82.072093 145.878116 
L 84.234884 145.991387 
L 102.618605 146 
L 116.676744 145.96749 
L 117.75814 145.824341 
L 118.839535 145.258178 
L 119.92093 143.514273 
L 121.002326 139.330862 
L 122.083721 131.515221 
L 123.165116 120.143531 
L 124.246512 107.257718 
L 125.327907 95.886028 
L 126.409302 88.070387 
L 127.490698 83.886976 
L 128.572093 82.143071 
L 129.653488 81.576907 
L 130.734884 81.433759 
L 136.14186 81.401249 
L 162.095349 81.433759 
L 163.176744 81.576907 
L 164.25814 82.143071 
L 165.339535 83.886976 
L 166.42093 88.070387 
L 167.502326 95.886028 
L 168.583721 107.257718 
L 169.665116 120.143531 
L 170.746512 131.515221 
L 171.827907 139.330862 
L 172.909302 143.514273 
L 173.990698 145.258178 
L 175.072093 145.824341 
L 176.153488 145.96749 
L 181.560465 146 
L 207.513953 145.939467 
L 208.595349 145.672932 
L 209.676744 144.618765 
L 210.75814 141.371701 
L 211.839535 133.582399 
L 212.92093 119.030068 
L 214.002326 97.85655 
L 215.083721 73.863812 
L 216.165116 52.690294 
L 217.246512 38.137963 
L 218.327907 30.348661 
L 219.409302 27.101597 
L 220.490698 26.04743 
L 221.572093 25.780894 
L 224.816279 25.720362 
L 252.932558 25.780894 
L 254.013953 26.04743 
L 255.095349 27.101597 
L 256.176744 30.348661 
L 257.25814 38.137963 
L 258.339535 52.690294 
L 259.42093 73.863812 
L 260.502326 97.85655 
L 261.583721 119.030068 
L 262.665116 133.582399 
L 263.746512 141.371701 
L 264.827907 144.618765 
L 265.909302 145.672932 
L 266.990698 145.939467 
L 270.234884 146 
L 301.4 146 
L 301.4 146 
" style="fill:none;stroke:#cccccc;stroke-linecap:square;stroke-width:1.75;"/>
   </g>
   <g id="line2d_37">
    <path clip-path="url(#p20b949e3fc)" d="M -1 146 
L 28.002326 145.921492 
L 29.083721 145.736931 
L 30.165116 145.294192 
L 31.246512 144.467048 
L 34.490698 140.696341 
L 35.572093 139.869197 
L 36.653488 139.426459 
L 37.734884 139.241898 
L 40.97907 139.163847 
L 73.42093 139.241898 
L 74.502326 139.426459 
L 75.583721 139.869197 
L 76.665116 140.696341 
L 79.909302 144.467048 
L 80.990698 145.294192 
L 82.072093 145.736931 
L 83.153488 145.921492 
L 86.397674 145.999543 
L 116.676744 145.95317 
L 117.75814 145.74697 
L 118.839535 144.931431 
L 119.92093 142.419395 
L 121.002326 136.393334 
L 122.083721 125.13517 
L 123.165116 108.754638 
L 124.246512 90.193063 
L 125.327907 73.812531 
L 126.409302 62.554367 
L 127.490698 56.528306 
L 128.572093 54.016271 
L 129.653488 53.200732 
L 130.734884 52.994531 
L 133.97907 52.947701 
L 162.095349 52.994531 
L 163.176744 53.200732 
L 164.25814 54.016271 
L 165.339535 56.528306 
L 166.42093 62.554367 
L 167.502326 73.812531 
L 168.583721 90.193063 
L 169.665116 108.754638 
L 170.746512 125.13517 
L 171.827907 136.393334 
L 172.909302 142.419395 
L 173.990698 144.931431 
L 175.072093 145.74697 
L 176.153488 145.95317 
L 179.397674 146 
L 207.513953 145.936062 
L 208.595349 145.654531 
L 209.676744 144.541055 
L 210.75814 141.111309 
L 211.839535 132.883774 
L 212.92093 117.512716 
L 214.002326 95.147958 
L 215.083721 69.805368 
L 216.165116 47.44061 
L 217.246512 32.069552 
L 218.327907 23.842017 
L 219.409302 20.41227 
L 220.490698 19.298795 
L 221.572093 19.017264 
L 224.816279 18.953326 
L 252.932558 19.017264 
L 254.013953 19.298795 
L 255.095349 20.41227 
L 256.176744 23.842017 
L 257.25814 32.069552 
L 258.339535 47.44061 
L 259.42093 69.805368 
L 260.502326 95.147958 
L 261.583721 117.512716 
L 262.665116 132.883774 
L 263.746512 141.111309 
L 264.827907 144.541055 
L 265.909302 145.654531 
L 266.990698 145.936062 
L 270.234884 146 
L 301.4 146 
L 301.4 146 
" style="fill:none;stroke:#cccccc;stroke-linecap:square;stroke-width:1.75;"/>
   </g>
   <g id="matplotlib.axis_1"/>
   <g id="matplotlib.axis_2"/>
   <g id="line2d_38">
    <path clip-path="url(#p20b949e3fc)" d="M -1 146 
L 25.839535 145.949606 
L 26.92093 145.727712 
L 28.002326 144.850105 
L 29.083721 142.146884 
L 30.165116 135.662195 
L 31.246512 123.547201 
L 32.327907 105.919989 
L 33.409302 85.945741 
L 34.490698 68.318529 
L 35.572093 56.203535 
L 36.653488 49.718846 
L 37.734884 47.015625 
L 38.816279 46.138018 
L 39.897674 45.916124 
L 43.14186 45.86573 
L 71.25814 45.916124 
L 72.339535 46.138018 
L 73.42093 47.015625 
L 74.502326 49.718846 
L 75.583721 56.203535 
L 76.665116 68.318529 
L 77.746512 85.945741 
L 78.827907 105.919989 
L 79.909302 123.547201 
L 80.990698 135.662195 
L 82.072093 142.146884 
L 83.153488 144.850105 
L 84.234884 145.727712 
L 85.316279 145.949606 
L 88.560465 146 
L 116.676744 145.93401 
L 117.75814 145.643447 
L 118.839535 144.494247 
L 119.92093 140.954462 
L 121.002326 132.462959 
L 122.083721 116.598743 
L 123.165116 93.516445 
L 124.246512 67.360775 
L 125.327907 44.278477 
L 126.409302 28.414261 
L 127.490698 19.922758 
L 128.572093 16.382973 
L 129.653488 15.233773 
L 130.734884 14.943209 
L 133.97907 14.87722 
L 162.095349 14.943209 
L 163.176744 15.233773 
L 164.25814 16.382973 
L 165.339535 19.922758 
L 166.42093 28.414261 
L 167.502326 44.278477 
L 168.583721 67.360775 
L 169.665116 93.516445 
L 170.746512 116.598743 
L 171.827907 132.462959 
L 172.909302 140.954462 
L 173.990698 144.494247 
L 175.072093 145.643447 
L 176.153488 145.93401 
L 179.397674 146 
L 207.513953 145.93361 
L 208.595349 145.641285 
L 209.676744 144.485116 
L 210.75814 140.923865 
L 211.839535 132.380868 
L 212.92093 116.420449 
L 214.002326 93.198175 
L 215.083721 66.883892 
L 216.165116 43.661619 
L 217.246512 27.701199 
L 218.327907 19.158203 
L 219.409302 15.596952 
L 220.490698 14.440783 
L 221.572093 14.148457 
L 224.816279 14.082068 
L 252.932558 14.148457 
L 254.013953 14.440783 
L 255.095349 15.596952 
L 256.176744 19.158203 
L 257.25814 27.701199 
L 258.339535 43.661619 
L 259.42093 66.883892 
L 260.502326 93.198175 
L 261.583721 116.420449 
L 262.665116 132.380868 
L 263.746512 140.923865 
L 264.827907 144.485116 
L 265.909302 145.641285 
L 266.990698 145.93361 
L 270.234884 146 
L 301.4 146 
L 301.4 146 
" style="fill:none;stroke:#1764ab;stroke-linecap:square;stroke-width:2;"/>
   </g>
   <g id="patch_6">
    <path d="M 10.7 149.3 
L 10.7 10.7 
" style="fill:none;stroke:#000000;stroke-linecap:square;stroke-linejoin:miter;stroke-width:0.8;"/>
   </g>
   <g id="patch_7">
    <path d="M 289.7 149.3 
L 289.7 10.7 
" style="fill:none;stroke:#000000;stroke-linecap:square;stroke-linejoin:miter;stroke-width:0.8;"/>
   </g>
   <g id="patch_8">
    <path d="M 10.7 149.3 
L 289.7 149.3 
" style="fill:none;stroke:#000000;stroke-linecap:square;stroke-linejoin:miter;stroke-width:0.8;"/>
   </g>
   <g id="patch_9">
    <path d="M 10.7 10.7 
L 289.7 10.7 
" style="fill:none;stroke:#000000;stroke-linecap:square;stroke-linejoin:miter;stroke-width:0.8;"/>
   </g>
   <g id="line2d_39">
    <path clip-path="url(#p20b949e3fc)" d="M -1 146 
L 26.92093 145.954179 
L 28.002326 145.806493 
L 29.083721 145.351588 
L 30.165116 144.260327 
L 31.246512 142.221585 
L 32.327907 139.255231 
L 33.409302 135.893913 
L 34.490698 132.92756 
L 35.572093 130.888817 
L 36.653488 129.797557 
L 37.734884 129.342652 
L 39.897674 129.157625 
L 57.2 129.149144 
L 72.339535 129.194966 
L 73.42093 129.342652 
L 74.502326 129.797557 
L 75.583721 130.888817 
L 76.665116 132.92756 
L 77.746512 135.893913 
L 78.827907 139.255231 
L 79.909302 142.221585 
L 80.990698 144.260327 
L 82.072093 145.351588 
L 83.153488 145.806493 
L 85.316279 145.99152 
L 102.618605 146 
L 116.676744 145.942132 
L 117.75814 145.687328 
L 118.839535 144.679558 
L 119.92093 141.57541 
L 121.002326 134.128945 
L 122.083721 120.217118 
L 123.165116 99.975528 
L 124.246512 77.038801 
L 125.327907 56.797212 
L 126.409302 42.885384 
L 127.490698 35.438919 
L 128.572093 32.334771 
L 129.653488 31.327001 
L 130.734884 31.072197 
L 133.97907 31.014329 
L 162.095349 31.072197 
L 163.176744 31.327001 
L 164.25814 32.334771 
L 165.339535 35.438919 
L 166.42093 42.885384 
L 167.502326 56.797212 
L 168.583721 77.038801 
L 169.665116 99.975528 
L 170.746512 120.217118 
L 171.827907 134.128945 
L 172.909302 141.57541 
L 173.990698 144.679558 
L 175.072093 145.687328 
L 176.153488 145.942132 
L 179.397674 146 
L 207.513953 145.934471 
L 208.595349 145.645937 
L 209.676744 144.50476 
L 210.75814 140.989688 
L 211.839535 132.557469 
L 212.92093 116.80401 
L 214.002326 93.882863 
L 215.083721 67.9098 
L 216.165116 44.988653 
L 217.246512 29.235194 
L 218.327907 20.802975 
L 219.409302 17.287903 
L 220.490698 16.146726 
L 221.572093 15.858192 
L 224.816279 15.792663 
L 252.932558 15.858192 
L 254.013953 16.146726 
L 255.095349 17.287903 
L 256.176744 20.802975 
L 257.25814 29.235194 
L 258.339535 44.988653 
L 259.42093 67.9098 
L 260.502326 93.882863 
L 261.583721 116.80401 
L 262.665116 132.557469 
L 263.746512 140.989688 
L 264.827907 144.50476 
L 265.909302 145.645937 
L 266.990698 145.934471 
L 270.234884 146 
L 301.4 146 
L 301.4 146 
" style="fill:none;stroke:#c54102;stroke-linecap:square;stroke-width:2;"/>
   </g>
   <g id="line2d_40">
    <path clip-path="url(#p20b949e3fc)" d="M -1 146 
L 28.002326 145.890443 
L 29.083721 145.632894 
L 30.165116 145.015063 
L 31.246512 143.860804 
L 32.327907 142.181368 
L 34.490698 138.59888 
L 35.572093 137.444621 
L 36.653488 136.826791 
L 37.734884 136.569241 
L 39.897674 136.464486 
L 69.095349 136.459684 
L 73.42093 136.569241 
L 74.502326 136.826791 
L 75.583721 137.444621 
L 76.665116 138.59888 
L 77.746512 140.278317 
L 79.909302 143.860804 
L 80.990698 145.015063 
L 82.072093 145.632894 
L 83.153488 145.890443 
L 85.316279 145.995199 
L 114.513953 146 
L 116.676744 145.948337 
L 117.75814 145.720856 
L 118.839535 144.82115 
L 119.92093 142.049862 
L 121.002326 135.401888 
L 122.083721 122.981837 
L 123.165116 104.910769 
L 124.246512 84.433566 
L 125.327907 66.362498 
L 126.409302 53.942447 
L 127.490698 47.294472 
L 128.572093 44.523184 
L 129.653488 43.623479 
L 130.734884 43.395998 
L 133.97907 43.344335 
L 162.095349 43.395998 
L 163.176744 43.623479 
L 164.25814 44.523184 
L 165.339535 47.294472 
L 166.42093 53.942447 
L 167.502326 66.362498 
L 168.583721 84.433566 
L 169.665116 104.910769 
L 170.746512 122.981837 
L 171.827907 135.401888 
L 172.909302 142.049862 
L 173.990698 144.82115 
L 175.072093 145.720856 
L 176.153488 145.948337 
L 179.397674 146 
L 207.513953 145.935291 
L 208.595349 145.650366 
L 209.676744 144.523467 
L 210.75814 141.052375 
L 211.839535 132.725656 
L 212.92093 117.169296 
L 214.002326 94.534927 
L 215.083721 68.886827 
L 216.165116 46.252458 
L 217.246512 30.696099 
L 218.327907 22.36938 
L 219.409302 18.898287 
L 220.490698 17.771388 
L 221.572093 17.486464 
L 224.816279 17.421755 
L 252.932558 17.486464 
L 254.013953 17.771388 
L 255.095349 18.898287 
L 256.176744 22.36938 
L 257.25814 30.696099 
L 258.339535 46.252458 
L 259.42093 68.886827 
L 260.502326 94.534927 
L 261.583721 117.169296 
L 262.665116 132.725656 
L 263.746512 141.052375 
L 264.827907 144.523467 
L 265.909302 145.650366 
L 266.990698 145.935291 
L 270.234884 146 
L 301.4 146 
L 301.4 146 
" style="fill:none;stroke:#157f3b;stroke-linecap:square;stroke-width:2;"/>
   </g>
  </g>
 </g>
 <defs>
  <clipPath id="p20b949e3fc">
   <rect height="138.6" width="279" x="10.7" y="10.7"/>
  </clipPath>
 </defs>
</svg>
