<?xml version="1.0" encoding="utf-8" standalone="no"?>
<!DOCTYPE svg PUBLIC "-//W3C//DTD SVG 1.1//EN"
  "http://www.w3.org/Graphics/SVG/1.1/DTD/svg11.dtd">
<!-- Created with matplotlib (http://matplotlib.org/) -->
<svg height="160pt" version="1.1" viewBox="0 0 300 160" width="300pt" xmlns="http://www.w3.org/2000/svg" xmlns:xlink="http://www.w3.org/1999/xlink">
 <defs>
  <style type="text/css">
*{stroke-linecap:butt;stroke-linejoin:round;}
  </style>
 </defs>
 <g id="figure_1">
  <g id="patch_1">
   <path d="M 0 160 
L 300.4 160 
L 300.4 0 
L 0 0 
z
" style="fill:#ffffff;"/>
  </g>
  <g id="axes_1">
   <g id="patch_2">
    <path d="M 10.7 149.3 
L 289.7 149.3 
L 289.7 10.7 
L 10.7 10.7 
z
" style="fill:#ffffff;"/>
   </g>
   <g id="patch_3">
    <path clip-path="url(#p0b6f7304a9)" d="M 33.409302 149.3 
L 33.409302 10.7 
L 78.827907 10.7 
L 78.827907 149.3 
z
" style="fill:#fed9c9;stroke:#fed9c9;stroke-linejoin:miter;"/>
   </g>
   <g id="patch_4">
    <path clip-path="url(#p0b6f7304a9)" d="M 124.246512 149.3 
L 124.246512 10.7 
L 169.665116 10.7 
L 169.665116 149.3 
z
" style="fill:#fed9c9;stroke:#fed9c9;stroke-linejoin:miter;"/>
   </g>
   <g id="patch_5">
    <path clip-path="url(#p0b6f7304a9)" d="M 215.083721 149.3 
L 215.083721 10.7 
L 260.502326 10.7 
L 260.502326 149.3 
z
" style="fill:#fed9c9;stroke:#fed9c9;stroke-linejoin:miter;"/>
   </g>
   <g id="line2d_1">
    <path clip-path="url(#p0b6f7304a9)" d="M -1 146 
L 28.002326 145.950019 
L 29.083721 145.832521 
L 30.165116 145.550657 
L 31.246512 145.024068 
L 34.490698 142.623501 
L 35.572093 142.096911 
L 36.653488 141.815048 
L 38.816279 141.659404 
L 51.793023 141.647568 
L 73.42093 141.69755 
L 74.502326 141.815048 
L 75.583721 142.096911 
L 76.665116 142.623501 
L 79.909302 145.024068 
L 80.990698 145.550657 
L 82.072093 145.832521 
L 84.234884 145.988165 
L 97.211628 146 
L 116.676744 145.961117 
L 117.75814 145.789907 
L 118.839535 145.11276 
L 119.92093 143.027002 
L 121.002326 138.023526 
L 122.083721 128.675803 
L 123.165116 115.074946 
L 124.246512 99.663156 
L 125.327907 86.0623 
L 126.409302 76.714577 
L 127.490698 71.711101 
L 128.572093 69.625342 
L 129.653488 68.948195 
L 130.734884 68.776986 
L 135.060465 68.738103 
L 162.095349 68.776986 
L 163.176744 68.948195 
L 164.25814 69.625342 
L 165.339535 71.711101 
L 166.42093 76.714577 
L 167.502326 86.0623 
L 168.583721 99.663156 
L 169.665116 115.074946 
L 170.746512 128.675803 
L 171.827907 138.023526 
L 172.909302 143.027002 
L 173.990698 145.11276 
L 175.072093 145.789907 
L 176.153488 145.961117 
L 180.47907 146 
L 207.513953 145.937686 
L 208.595349 145.663308 
L 209.676744 144.578122 
L 210.75814 141.235512 
L 211.839535 133.217009 
L 212.92093 118.236472 
L 214.002326 96.439921 
L 215.083721 71.741191 
L 216.165116 49.944639 
L 217.246512 34.964103 
L 218.327907 26.9456 
L 219.409302 23.60299 
L 220.490698 22.517804 
L 221.572093 22.243426 
L 224.816279 22.181112 
L 252.932558 22.243426 
L 254.013953 22.517804 
L 255.095349 23.60299 
L 256.176744 26.9456 
L 257.25814 34.964103 
L 258.339535 49.944639 
L 259.42093 71.741191 
L 260.502326 96.439921 
L 261.583721 118.236472 
L 262.665116 133.217009 
L 263.746512 141.235512 
L 264.827907 144.578122 
L 265.909302 145.663308 
L 266.990698 145.937686 
L 270.234884 146 
L 301.4 146 
L 301.4 146 
" style="fill:none;stroke:#b2b2b2;stroke-linecap:square;stroke-width:1.5;"/>
   </g>
   <g id="line2d_2">
    <path clip-path="url(#p0b6f7304a9)" d="M -1 146 
L 25.839535 145.969467 
L 26.92093 145.835026 
L 28.002326 145.303301 
L 29.083721 143.665474 
L 30.165116 139.736529 
L 31.246512 132.396295 
L 32.327907 121.716316 
L 33.409302 109.614315 
L 34.490698 98.934337 
L 35.572093 91.594103 
L 36.653488 87.665158 
L 37.734884 86.02733 
L 38.816279 85.495606 
L 40.97907 85.334691 
L 70.176744 85.334691 
L 72.339535 85.495606 
L 73.42093 86.02733 
L 74.502326 87.665158 
L 75.583721 91.594103 
L 76.665116 98.934337 
L 77.746512 109.614315 
L 78.827907 121.716316 
L 79.909302 132.396295 
L 80.990698 139.736529 
L 82.072093 143.665474 
L 83.153488 145.303301 
L 84.234884 145.835026 
L 86.397674 145.99594 
L 114.513953 146 
L 116.676744 145.935177 
L 117.75814 145.649752 
L 118.839535 144.520874 
L 119.92093 141.043684 
L 121.002326 132.702339 
L 122.083721 117.118655 
L 123.165116 94.444529 
L 124.246512 68.751378 
L 125.327907 46.077252 
L 126.409302 30.493568 
L 127.490698 22.152223 
L 128.572093 18.675033 
L 129.653488 17.546155 
L 130.734884 17.26073 
L 133.97907 17.195907 
L 162.095349 17.26073 
L 163.176744 17.546155 
L 164.25814 18.675033 
L 165.339535 22.152223 
L 166.42093 30.493568 
L 167.502326 46.077252 
L 168.583721 68.751378 
L 169.665116 94.444529 
L 170.746512 117.118655 
L 171.827907 132.702339 
L 172.909302 141.043684 
L 173.990698 144.520874 
L 175.072093 145.649752 
L 176.153488 145.935177 
L 179.397674 146 
L 207.513953 145.933722 
L 208.595349 145.641888 
L 209.676744 144.487663 
L 210.75814 140.932401 
L 211.839535 132.403768 
L 212.92093 116.470186 
L 214.002326 93.28696 
L 215.083721 67.016924 
L 216.165116 43.833698 
L 217.246512 27.900116 
L 218.327907 19.371484 
L 219.409302 15.816221 
L 220.490698 14.661996 
L 221.572093 14.370162 
L 224.816279 14.303884 
L 252.932558 14.370162 
L 254.013953 14.661996 
L 255.095349 15.816221 
L 256.176744 19.371484 
L 257.25814 27.900116 
L 258.339535 43.833698 
L 259.42093 67.016924 
L 260.502326 93.28696 
L 261.583721 116.470186 
L 262.665116 132.403768 
L 263.746512 140.932401 
L 264.827907 144.487663 
L 265.909302 145.641888 
L 266.990698 145.933722 
L 270.234884 146 
L 301.4 146 
L 301.4 146 
" style="fill:none;stroke:#b2b2b2;stroke-linecap:square;stroke-width:1.5;"/>
   </g>
   <g id="line2d_3">
    <path clip-path="url(#p0b6f7304a9)" d="M -1 146 
L 26.92093 145.946302 
L 28.002326 145.773228 
L 29.083721 145.240121 
L 30.165116 143.961267 
L 31.246512 141.572051 
L 32.327907 138.095763 
L 33.409302 134.156613 
L 34.490698 130.680325 
L 35.572093 128.29111 
L 36.653488 127.012255 
L 37.734884 126.479149 
L 38.816279 126.306075 
L 42.060465 126.252376 
L 72.339535 126.306075 
L 73.42093 126.479149 
L 74.502326 127.012255 
L 75.583721 128.29111 
L 76.665116 130.680325 
L 77.746512 134.156613 
L 78.827907 138.095763 
L 79.909302 141.572051 
L 80.990698 143.961267 
L 82.072093 145.240121 
L 83.153488 145.773228 
L 84.234884 145.946302 
L 87.47907 146 
L 116.676744 145.940815 
L 117.75814 145.680216 
L 118.839535 144.649525 
L 119.92093 141.474772 
L 121.002326 133.858936 
L 122.083721 119.630682 
L 123.165116 98.928695 
L 124.246512 75.47027 
L 125.327907 54.768283 
L 126.409302 40.540028 
L 127.490698 32.924193 
L 128.572093 29.74944 
L 129.653488 28.718749 
L 130.734884 28.458149 
L 133.97907 28.398965 
L 162.095349 28.458149 
L 163.176744 28.718749 
L 164.25814 29.74944 
L 165.339535 32.924193 
L 166.42093 40.540028 
L 167.502326 54.768283 
L 168.583721 75.47027 
L 169.665116 98.928695 
L 170.746512 119.630682 
L 171.827907 133.858936 
L 172.909302 141.474772 
L 173.990698 144.649525 
L 175.072093 145.680216 
L 176.153488 145.940815 
L 179.397674 146 
L 207.513953 145.934317 
L 208.595349 145.645104 
L 209.676744 144.501246 
L 210.75814 140.977914 
L 211.839535 132.525881 
L 212.92093 116.735403 
L 214.002326 93.760394 
L 215.083721 67.726298 
L 216.165116 44.751289 
L 217.246512 28.960811 
L 218.327907 20.508778 
L 219.409302 16.985446 
L 220.490698 15.841588 
L 221.572093 15.552375 
L 224.816279 15.486692 
L 252.932558 15.552375 
L 254.013953 15.841588 
L 255.095349 16.985446 
L 256.176744 20.508778 
L 257.25814 28.960811 
L 258.339535 44.751289 
L 259.42093 67.726298 
L 260.502326 93.760394 
L 261.583721 116.735403 
L 262.665116 132.525881 
L 263.746512 140.977914 
L 264.827907 144.501246 
L 265.909302 145.645104 
L 266.990698 145.934317 
L 270.234884 146 
L 301.4 146 
L 301.4 146 
" style="fill:none;stroke:#b2b2b2;stroke-linecap:square;stroke-width:1.5;"/>
   </g>
   <g id="line2d_4">
    <path clip-path="url(#p0b6f7304a9)" d="M -1 146 
L 28.002326 145.957209 
L 29.083721 145.856614 
L 30.165116 145.6153 
L 31.246512 145.164465 
L 35.572093 142.658408 
L 36.653488 142.417094 
L 38.816279 142.28384 
L 53.955814 142.273708 
L 73.42093 142.316499 
L 74.502326 142.417094 
L 75.583721 142.658408 
L 76.665116 143.109243 
L 80.990698 145.6153 
L 82.072093 145.856614 
L 84.234884 145.989867 
L 99.374419 146 
L 116.676744 145.964168 
L 117.75814 145.806392 
L 118.839535 145.182379 
L 119.92093 143.260281 
L 121.002326 138.649408 
L 122.083721 130.035163 
L 123.165116 117.50151 
L 124.246512 103.299021 
L 125.327907 90.765369 
L 126.409302 82.151124 
L 127.490698 77.540251 
L 128.572093 75.618153 
L 129.653488 74.994139 
L 130.734884 74.836364 
L 135.060465 74.800532 
L 162.095349 74.836364 
L 163.176744 74.994139 
L 164.25814 75.618153 
L 165.339535 77.540251 
L 166.42093 82.151124 
L 167.502326 90.765369 
L 168.583721 103.299021 
L 169.665116 117.50151 
L 170.746512 130.035163 
L 171.827907 138.649408 
L 172.909302 143.260281 
L 173.990698 145.182379 
L 175.072093 145.806392 
L 176.153488 145.964168 
L 180.47907 146 
L 207.513953 145.938472 
L 208.595349 145.667554 
L 209.676744 144.596052 
L 210.75814 141.295593 
L 211.839535 133.378204 
L 212.92093 118.586573 
L 214.002326 97.064878 
L 215.083721 72.677602 
L 216.165116 51.155907 
L 217.246512 36.364277 
L 218.327907 28.446887 
L 219.409302 25.146428 
L 220.490698 24.074926 
L 221.572093 23.804008 
L 224.816279 23.74248 
L 252.932558 23.804008 
L 254.013953 24.074926 
L 255.095349 25.146428 
L 256.176744 28.446887 
L 257.25814 36.364277 
L 258.339535 51.155907 
L 259.42093 72.677602 
L 260.502326 97.064878 
L 261.583721 118.586573 
L 262.665116 133.378204 
L 263.746512 141.295593 
L 264.827907 144.596052 
L 265.909302 145.667554 
L 266.990698 145.938472 
L 270.234884 146 
L 301.4 146 
L 301.4 146 
" style="fill:none;stroke:#b2b2b2;stroke-linecap:square;stroke-width:1.5;"/>
   </g>
   <g id="line2d_5">
    <path clip-path="url(#p0b6f7304a9)" d="M -1 146 
L 26.92093 145.909324 
L 28.002326 145.617066 
L 29.083721 144.716848 
L 30.165116 142.557337 
L 31.246512 138.52284 
L 32.327907 132.652682 
L 33.409302 126.000922 
L 34.490698 120.130764 
L 35.572093 116.096267 
L 36.653488 113.936756 
L 37.734884 113.036538 
L 38.816279 112.744281 
L 40.97907 112.655835 
L 71.25814 112.670386 
L 72.339535 112.744281 
L 73.42093 113.036538 
L 74.502326 113.936756 
L 75.583721 116.096267 
L 76.665116 120.130764 
L 77.746512 126.000922 
L 78.827907 132.652682 
L 79.909302 138.52284 
L 80.990698 142.557337 
L 82.072093 144.716848 
L 83.153488 145.617066 
L 84.234884 145.909324 
L 86.397674 145.997769 
L 115.595349 145.99169 
L 116.676744 145.937502 
L 117.75814 145.662315 
L 118.839535 144.573928 
L 119.92093 141.221458 
L 121.002326 133.179303 
L 122.083721 118.154579 
L 123.165116 96.293734 
L 124.246512 71.522151 
L 125.327907 49.661306 
L 126.409302 34.636581 
L 127.490698 26.594426 
L 128.572093 23.241957 
L 129.653488 22.153569 
L 130.734884 21.878382 
L 133.97907 21.815884 
L 162.095349 21.878382 
L 163.176744 22.153569 
L 164.25814 23.241957 
L 165.339535 26.594426 
L 166.42093 34.636581 
L 167.502326 49.661306 
L 168.583721 71.522151 
L 169.665116 96.293734 
L 170.746512 118.154579 
L 171.827907 133.179303 
L 172.909302 141.221458 
L 173.990698 144.573928 
L 175.072093 145.662315 
L 176.153488 145.937502 
L 179.397674 146 
L 207.513953 145.933956 
L 208.595349 145.643151 
L 209.676744 144.492996 
L 210.75814 140.950268 
L 211.839535 132.451707 
L 212.92093 116.574304 
L 214.002326 93.47282 
L 215.083721 67.295408 
L 216.165116 44.193924 
L 217.246512 28.316521 
L 218.327907 19.81796 
L 219.409302 16.275233 
L 220.490698 15.125077 
L 221.572093 14.834273 
L 224.816279 14.768228 
L 252.932558 14.834273 
L 254.013953 15.125077 
L 255.095349 16.275233 
L 256.176744 19.81796 
L 257.25814 28.316521 
L 258.339535 44.193924 
L 259.42093 67.295408 
L 260.502326 93.47282 
L 261.583721 116.574304 
L 262.665116 132.451707 
L 263.746512 140.950268 
L 264.827907 144.492996 
L 265.909302 145.643151 
L 266.990698 145.933956 
L 270.234884 146 
L 301.4 146 
L 301.4 146 
" style="fill:none;stroke:#b2b2b2;stroke-linecap:square;stroke-width:1.5;"/>
   </g>
   <g id="line2d_6">
    <path clip-path="url(#p0b6f7304a9)" d="M -1 146 
L 28.002326 145.962856 
L 29.083721 145.875536 
L 30.165116 145.666066 
L 31.246512 145.274726 
L 35.572093 143.099378 
L 36.653488 142.889908 
L 38.816279 142.77424 
L 56.118605 142.765444 
L 73.42093 142.802588 
L 74.502326 142.889908 
L 75.583721 143.099378 
L 76.665116 143.490719 
L 80.990698 145.666066 
L 82.072093 145.875536 
L 84.234884 145.991205 
L 101.537209 146 
L 116.676744 145.967055 
L 117.75814 145.821993 
L 118.839535 145.248262 
L 119.92093 143.481045 
L 121.002326 139.241712 
L 122.083721 131.321595 
L 123.165116 119.797893 
L 124.246512 106.739828 
L 125.327907 95.216126 
L 126.409302 87.29601 
L 127.490698 83.056677 
L 128.572093 81.28946 
L 129.653488 80.715728 
L 130.734884 80.570666 
L 136.14186 80.537722 
L 162.095349 80.570666 
L 163.176744 80.715728 
L 164.25814 81.28946 
L 165.339535 83.056677 
L 166.42093 87.29601 
L 167.502326 95.216126 
L 168.583721 106.739828 
L 169.665116 119.797893 
L 170.746512 131.321595 
L 171.827907 139.241712 
L 172.909302 143.481045 
L 173.990698 145.248262 
L 175.072093 145.821993 
L 176.153488 145.967055 
L 181.560465 146 
L 207.513953 145.939328 
L 208.595349 145.672177 
L 209.676744 144.615576 
L 210.75814 141.361015 
L 211.839535 133.553729 
L 212.92093 118.967799 
L 214.002326 97.745396 
L 215.083721 73.697262 
L 216.165116 52.474859 
L 217.246512 37.888929 
L 218.327907 30.081643 
L 219.409302 26.827082 
L 220.490698 25.770481 
L 221.572093 25.50333 
L 224.816279 25.442658 
L 252.932558 25.50333 
L 254.013953 25.770481 
L 255.095349 26.827082 
L 256.176744 30.081643 
L 257.25814 37.888929 
L 258.339535 52.474859 
L 259.42093 73.697262 
L 260.502326 97.745396 
L 261.583721 118.967799 
L 262.665116 133.553729 
L 263.746512 141.361015 
L 264.827907 144.615576 
L 265.909302 145.672177 
L 266.990698 145.939328 
L 270.234884 146 
L 301.4 146 
L 301.4 146 
" style="fill:none;stroke:#b2b2b2;stroke-linecap:square;stroke-width:1.5;"/>
   </g>
   <g id="line2d_7">
    <path clip-path="url(#p0b6f7304a9)" d="M -1 146 
L 28.002326 145.92986 
L 29.083721 145.764971 
L 30.165116 145.369424 
L 31.246512 144.630445 
L 34.490698 141.261658 
L 35.572093 140.522679 
L 36.653488 140.127132 
L 38.816279 139.908712 
L 48.548837 139.892103 
L 73.42093 139.962244 
L 74.502326 140.127132 
L 75.583721 140.522679 
L 76.665116 141.261658 
L 79.909302 144.630445 
L 80.990698 145.369424 
L 82.072093 145.764971 
L 84.234884 145.983391 
L 93.967442 146 
L 116.676744 145.95501 
L 117.75814 145.756909 
L 118.839535 144.973408 
L 119.92093 142.560052 
L 121.002326 136.770714 
L 122.083721 125.954805 
L 123.165116 110.217751 
L 124.246512 92.385333 
L 125.327907 76.648279 
L 126.409302 65.83237 
L 127.490698 60.043032 
L 128.572093 57.629676 
L 129.653488 56.846175 
L 130.734884 56.648074 
L 135.060465 56.603084 
L 162.095349 56.648074 
L 163.176744 56.846175 
L 164.25814 57.629676 
L 165.339535 60.043032 
L 166.42093 65.83237 
L 167.502326 76.648279 
L 168.583721 92.385333 
L 169.665116 110.217751 
L 170.746512 125.954805 
L 171.827907 136.770714 
L 172.909302 142.560052 
L 173.990698 144.973408 
L 175.072093 145.756909 
L 176.153488 145.95501 
L 180.47907 146 
L 207.513953 145.936393 
L 208.595349 145.656322 
L 209.676744 144.548618 
L 210.75814 141.136649 
L 211.839535 132.951762 
L 212.92093 117.660381 
L 214.002326 95.411551 
L 215.083721 70.200325 
L 216.165116 47.951495 
L 217.246512 32.660113 
L 218.327907 24.475227 
L 219.409302 21.063258 
L 220.490698 19.955554 
L 221.572093 19.675483 
L 224.816279 19.611876 
L 252.932558 19.675483 
L 254.013953 19.955554 
L 255.095349 21.063258 
L 256.176744 24.475227 
L 257.25814 32.660113 
L 258.339535 47.951495 
L 259.42093 70.200325 
L 260.502326 95.411551 
L 261.583721 117.660381 
L 262.665116 132.951762 
L 263.746512 141.136649 
L 264.827907 144.548618 
L 265.909302 145.656322 
L 266.990698 145.936393 
L 270.234884 146 
L 301.4 146 
L 301.4 146 
" style="fill:none;stroke:#b2b2b2;stroke-linecap:square;stroke-width:1.5;"/>
   </g>
   <g id="line2d_8">
    <path clip-path="url(#p0b6f7304a9)" d="M -1 146 
L 29.083721 145.897071 
L 30.165116 145.723845 
L 31.246512 145.400216 
L 35.572093 143.601259 
L 37.734884 143.355822 
L 44.223256 143.325104 
L 74.502326 143.428033 
L 75.583721 143.601259 
L 76.665116 143.924888 
L 80.990698 145.723845 
L 83.153488 145.969283 
L 89.64186 146 
L 116.676744 145.971047 
L 117.75814 145.843564 
L 118.839535 145.339358 
L 119.92093 143.786292 
L 121.002326 140.060682 
L 122.083721 133.100327 
L 123.165116 122.973069 
L 124.246512 111.497382 
L 125.327907 101.370124 
L 126.409302 94.409768 
L 127.490698 90.684159 
L 128.572093 89.131093 
L 129.653488 88.626887 
L 131.816279 88.4743 
L 161.013953 88.4743 
L 163.176744 88.626887 
L 164.25814 89.131093 
L 165.339535 90.684159 
L 166.42093 94.409768 
L 167.502326 101.370124 
L 168.583721 111.497382 
L 169.665116 122.973069 
L 170.746512 133.100327 
L 171.827907 140.060682 
L 172.909302 143.786292 
L 173.990698 145.339358 
L 175.072093 145.843564 
L 177.234884 145.99615 
L 206.432558 145.992121 
L 207.513953 145.94074 
L 208.595349 145.679811 
L 209.676744 144.647813 
L 210.75814 141.469037 
L 211.839535 133.84355 
L 212.92093 119.597264 
L 214.002326 98.869041 
L 215.083721 75.380887 
L 216.165116 54.652664 
L 217.246512 40.406378 
L 218.327907 32.780891 
L 219.409302 29.602115 
L 220.490698 28.570118 
L 221.572093 28.309188 
L 224.816279 28.249928 
L 252.932558 28.309188 
L 254.013953 28.570118 
L 255.095349 29.602115 
L 256.176744 32.780891 
L 257.25814 40.406378 
L 258.339535 54.652664 
L 259.42093 75.380887 
L 260.502326 98.869041 
L 261.583721 119.597264 
L 262.665116 133.84355 
L 263.746512 141.469037 
L 264.827907 144.647813 
L 265.909302 145.679811 
L 266.990698 145.94074 
L 270.234884 146 
L 301.4 146 
L 301.4 146 
" style="fill:none;stroke:#b2b2b2;stroke-linecap:square;stroke-width:1.5;"/>
   </g>
   <g id="line2d_9">
    <path clip-path="url(#p0b6f7304a9)" d="M -1 146 
L 28.002326 145.893558 
L 29.083721 145.643329 
L 30.165116 145.043062 
L 31.246512 143.921614 
L 32.327907 142.289918 
L 34.490698 138.809268 
L 35.572093 137.68782 
L 36.653488 137.087553 
L 37.734884 136.837324 
L 39.897674 136.735547 
L 70.176744 136.731502 
L 73.42093 136.837324 
L 74.502326 137.087553 
L 75.583721 137.68782 
L 76.665116 138.809268 
L 77.746512 140.440964 
L 79.909302 143.921614 
L 80.990698 145.043062 
L 82.072093 145.643329 
L 83.153488 145.893558 
L 85.316279 145.995335 
L 114.513953 146 
L 116.676744 145.948719 
L 117.75814 145.72292 
L 118.839535 144.82987 
L 119.92093 142.07908 
L 121.002326 135.480277 
L 122.083721 123.152091 
L 123.165116 105.214686 
L 124.246512 84.888943 
L 125.327907 66.951538 
L 126.409302 54.623352 
L 127.490698 48.02455 
L 128.572093 45.273759 
L 129.653488 44.380709 
L 130.734884 44.15491 
L 133.97907 44.103629 
L 162.095349 44.15491 
L 163.176744 44.380709 
L 164.25814 45.273759 
L 165.339535 48.02455 
L 166.42093 54.623352 
L 167.502326 66.951538 
L 168.583721 84.888943 
L 169.665116 105.214686 
L 170.746512 123.152091 
L 171.827907 135.480277 
L 172.909302 142.07908 
L 173.990698 144.82987 
L 175.072093 145.72292 
L 176.153488 145.948719 
L 179.397674 146 
L 207.513953 145.935347 
L 208.595349 145.65067 
L 209.676744 144.524751 
L 210.75814 141.056675 
L 211.839535 132.737194 
L 212.92093 117.194357 
L 214.002326 94.579662 
L 215.083721 68.953856 
L 216.165116 46.339161 
L 217.246512 30.796324 
L 218.327907 22.476842 
L 219.409302 19.008767 
L 220.490698 17.882847 
L 221.572093 17.59817 
L 224.816279 17.533518 
L 252.932558 17.59817 
L 254.013953 17.882847 
L 255.095349 19.008767 
L 256.176744 22.476842 
L 257.25814 30.796324 
L 258.339535 46.339161 
L 259.42093 68.953856 
L 260.502326 94.579662 
L 261.583721 117.194357 
L 262.665116 132.737194 
L 263.746512 141.056675 
L 264.827907 144.524751 
L 265.909302 145.65067 
L 266.990698 145.935347 
L 270.234884 146 
L 301.4 146 
L 301.4 146 
" style="fill:none;stroke:#b2b2b2;stroke-linecap:square;stroke-width:1.5;"/>
   </g>
   <g id="line2d_10">
    <path clip-path="url(#p0b6f7304a9)" d="M -1 146 
L 26.92093 145.89937 
L 28.002326 145.575033 
L 29.083721 144.576003 
L 30.165116 142.179454 
L 31.246512 137.702111 
L 32.327907 131.187616 
L 33.409302 123.805727 
L 34.490698 117.291232 
L 35.572093 112.813889 
L 36.653488 110.41734 
L 37.734884 109.41831 
L 38.816279 109.093973 
L 40.97907 108.995819 
L 71.25814 109.011967 
L 72.339535 109.093973 
L 73.42093 109.41831 
L 74.502326 110.41734 
L 75.583721 112.813889 
L 76.665116 117.291232 
L 77.746512 123.805727 
L 78.827907 131.187616 
L 79.909302 137.702111 
L 80.990698 142.179454 
L 82.072093 144.576003 
L 83.153488 145.575033 
L 84.234884 145.89937 
L 86.397674 145.997524 
L 115.595349 145.991624 
L 116.676744 145.937003 
L 117.75814 145.659617 
L 118.839535 144.562533 
L 119.92093 141.183277 
L 121.002326 133.076862 
L 122.083721 117.932086 
L 123.165116 95.896567 
L 124.246512 70.927053 
L 125.327907 48.891534 
L 126.409302 33.746758 
L 127.490698 25.640343 
L 128.572093 22.261087 
L 129.653488 21.164003 
L 130.734884 20.886617 
L 133.97907 20.82362 
L 162.095349 20.886617 
L 163.176744 21.164003 
L 164.25814 22.261087 
L 165.339535 25.640343 
L 166.42093 33.746758 
L 167.502326 48.891534 
L 168.583721 70.927053 
L 169.665116 95.896567 
L 170.746512 117.932086 
L 171.827907 133.076862 
L 172.909302 141.183277 
L 173.990698 144.562533 
L 175.072093 145.659617 
L 176.153488 145.937003 
L 179.397674 146 
L 207.513953 145.933904 
L 208.595349 145.642873 
L 209.676744 144.49182 
L 210.75814 140.94633 
L 211.839535 132.44114 
L 212.92093 116.551354 
L 214.002326 93.431852 
L 215.083721 67.234025 
L 216.165116 44.114523 
L 217.246512 28.224737 
L 218.327907 19.719547 
L 219.409302 16.174057 
L 220.490698 15.023005 
L 221.572093 14.731973 
L 224.816279 14.665877 
L 252.932558 14.731973 
L 254.013953 15.023005 
L 255.095349 16.174057 
L 256.176744 19.719547 
L 257.25814 28.224737 
L 258.339535 44.114523 
L 259.42093 67.234025 
L 260.502326 93.431852 
L 261.583721 116.551354 
L 262.665116 132.44114 
L 263.746512 140.94633 
L 264.827907 144.49182 
L 265.909302 145.642873 
L 266.990698 145.933904 
L 270.234884 146 
L 301.4 146 
L 301.4 146 
" style="fill:none;stroke:#b2b2b2;stroke-linecap:square;stroke-width:1.5;"/>
   </g>
   <g id="line2d_11">
    <path clip-path="url(#p0b6f7304a9)" d="M -1 146 
L 28.002326 145.965082 
L 29.083721 145.882994 
L 30.165116 145.686077 
L 31.246512 145.318187 
L 35.572093 143.273195 
L 36.653488 143.076277 
L 38.816279 142.96754 
L 57.2 142.959272 
L 73.42093 142.99419 
L 74.502326 143.076277 
L 75.583721 143.273195 
L 76.665116 143.641085 
L 80.990698 145.686077 
L 82.072093 145.882994 
L 84.234884 145.991732 
L 102.618605 146 
L 116.676744 145.968342 
L 117.75814 145.828944 
L 118.839535 145.277616 
L 119.92093 143.579407 
L 121.002326 139.505615 
L 122.083721 131.89477 
L 123.165116 120.821056 
L 124.246512 108.272894 
L 125.327907 97.19918 
L 126.409302 89.588334 
L 127.490698 85.514543 
L 128.572093 83.816334 
L 129.653488 83.265006 
L 131.816279 83.098159 
L 159.932558 83.09395 
L 162.095349 83.125608 
L 163.176744 83.265006 
L 164.25814 83.816334 
L 165.339535 85.514543 
L 166.42093 89.588334 
L 167.502326 97.19918 
L 168.583721 108.272894 
L 169.665116 120.821056 
L 170.746512 131.89477 
L 171.827907 139.505615 
L 172.909302 143.579407 
L 173.990698 145.277616 
L 175.072093 145.828944 
L 177.234884 145.995791 
L 205.351163 146 
L 207.513953 145.939751 
L 208.595349 145.674462 
L 209.676744 144.625227 
L 210.75814 141.393354 
L 211.839535 133.640494 
L 212.92093 119.156245 
L 214.002326 98.081787 
L 215.083721 74.201298 
L 216.165116 53.12684 
L 217.246512 38.642591 
L 218.327907 30.889731 
L 219.409302 27.657858 
L 220.490698 26.608623 
L 221.572093 26.343334 
L 224.816279 26.283085 
L 252.932558 26.343334 
L 254.013953 26.608623 
L 255.095349 27.657858 
L 256.176744 30.889731 
L 257.25814 38.642591 
L 258.339535 53.12684 
L 259.42093 74.201298 
L 260.502326 98.081787 
L 261.583721 119.156245 
L 262.665116 133.640494 
L 263.746512 141.393354 
L 264.827907 144.625227 
L 265.909302 145.674462 
L 266.990698 145.939751 
L 270.234884 146 
L 301.4 146 
L 301.4 146 
" style="fill:none;stroke:#b2b2b2;stroke-linecap:square;stroke-width:1.5;"/>
   </g>
   <g id="line2d_12">
    <path clip-path="url(#p0b6f7304a9)" d="M -1 146 
L 25.839535 145.967242 
L 26.92093 145.823005 
L 28.002326 145.252536 
L 29.083721 143.495368 
L 30.165116 139.28014 
L 31.246512 131.405057 
L 32.327907 119.946879 
L 33.409302 106.963062 
L 34.490698 95.504884 
L 35.572093 87.629801 
L 36.653488 83.414573 
L 37.734884 81.657404 
L 38.816279 81.086935 
L 39.897674 80.942698 
L 45.304651 80.909941 
L 71.25814 80.942698 
L 72.339535 81.086935 
L 73.42093 81.657404 
L 74.502326 83.414573 
L 75.583721 87.629801 
L 76.665116 95.504884 
L 77.746512 106.963062 
L 78.827907 119.946879 
L 79.909302 131.405057 
L 80.990698 139.28014 
L 82.072093 143.495368 
L 83.153488 145.252536 
L 84.234884 145.823005 
L 85.316279 145.967242 
L 90.723256 146 
L 116.676744 145.934979 
L 117.75814 145.648678 
L 118.839535 144.516338 
L 119.92093 141.028486 
L 121.002326 132.661564 
L 122.083721 117.030095 
L 123.165116 94.286442 
L 124.246512 68.514507 
L 125.327907 45.770854 
L 126.409302 30.139385 
L 127.490698 21.772463 
L 128.572093 18.284611 
L 129.653488 17.152271 
L 130.734884 16.86597 
L 133.97907 16.800949 
L 162.095349 16.86597 
L 163.176744 17.152271 
L 164.25814 18.284611 
L 165.339535 21.772463 
L 166.42093 30.139385 
L 167.502326 45.770854 
L 168.583721 68.514507 
L 169.665116 94.286442 
L 170.746512 117.030095 
L 171.827907 132.661564 
L 172.909302 141.028486 
L 173.990698 144.516338 
L 175.072093 145.648678 
L 176.153488 145.934979 
L 179.397674 146 
L 207.513953 145.933703 
L 208.595349 145.641784 
L 209.676744 144.487224 
L 210.75814 140.930927 
L 211.839535 132.399815 
L 212.92093 116.461599 
L 214.002326 93.271632 
L 215.083721 66.993957 
L 216.165116 43.80399 
L 217.246512 27.865774 
L 218.327907 19.334662 
L 219.409302 15.778365 
L 220.490698 14.623805 
L 221.572093 14.331886 
L 224.816279 14.265589 
L 252.932558 14.331886 
L 254.013953 14.623805 
L 255.095349 15.778365 
L 256.176744 19.334662 
L 257.25814 27.865774 
L 258.339535 43.80399 
L 259.42093 66.993957 
L 260.502326 93.271632 
L 261.583721 116.461599 
L 262.665116 132.399815 
L 263.746512 140.930927 
L 264.827907 144.487224 
L 265.909302 145.641784 
L 266.990698 145.933703 
L 270.234884 146 
L 301.4 146 
L 301.4 146 
" style="fill:none;stroke:#b2b2b2;stroke-linecap:square;stroke-width:1.5;"/>
   </g>
   <g id="line2d_13">
    <path clip-path="url(#p0b6f7304a9)" d="M -1 146 
L 26.92093 145.906876 
L 28.002326 145.60673 
L 29.083721 144.682216 
L 30.165116 142.464422 
L 31.246512 138.321037 
L 32.327907 132.292448 
L 33.409302 125.461161 
L 34.490698 119.432572 
L 35.572093 115.289187 
L 36.653488 113.071393 
L 37.734884 112.146879 
L 38.816279 111.846733 
L 40.97907 111.755901 
L 71.25814 111.770844 
L 72.339535 111.846733 
L 73.42093 112.146879 
L 74.502326 113.071393 
L 75.583721 115.289187 
L 76.665116 119.432572 
L 77.746512 125.461161 
L 78.827907 132.292448 
L 79.909302 138.321037 
L 80.990698 142.464422 
L 82.072093 144.682216 
L 83.153488 145.60673 
L 84.234884 145.906876 
L 86.397674 145.997708 
L 115.595349 145.991672 
L 116.676744 145.93737 
L 117.75814 145.661601 
L 118.839535 144.570914 
L 119.92093 141.21136 
L 121.002326 133.152208 
L 122.083721 118.09573 
L 123.165116 96.188685 
L 124.246512 71.36475 
L 125.327907 49.457705 
L 126.409302 34.401227 
L 127.490698 26.342075 
L 128.572093 22.982521 
L 129.653488 21.891834 
L 130.734884 21.616065 
L 133.97907 21.553435 
L 162.095349 21.616065 
L 163.176744 21.891834 
L 164.25814 22.982521 
L 165.339535 26.342075 
L 166.42093 34.401227 
L 167.502326 49.457705 
L 168.583721 71.36475 
L 169.665116 96.188685 
L 170.746512 118.09573 
L 171.827907 133.152208 
L 172.909302 141.21136 
L 173.990698 144.570914 
L 175.072093 145.661601 
L 176.153488 145.93737 
L 179.397674 146 
L 207.513953 145.933942 
L 208.595349 145.643077 
L 209.676744 144.492683 
L 210.75814 140.949221 
L 211.839535 132.448897 
L 212.92093 116.568202 
L 214.002326 93.461927 
L 215.083721 67.279086 
L 216.165116 44.172811 
L 217.246512 28.292116 
L 218.327907 19.791792 
L 219.409302 16.24833 
L 220.490698 15.097936 
L 221.572093 14.807071 
L 224.816279 14.741013 
L 252.932558 14.807071 
L 254.013953 15.097936 
L 255.095349 16.24833 
L 256.176744 19.791792 
L 257.25814 28.292116 
L 258.339535 44.172811 
L 259.42093 67.279086 
L 260.502326 93.461927 
L 261.583721 116.568202 
L 262.665116 132.448897 
L 263.746512 140.949221 
L 264.827907 144.492683 
L 265.909302 145.643077 
L 266.990698 145.933942 
L 270.234884 146 
L 301.4 146 
L 301.4 146 
" style="fill:none;stroke:#b2b2b2;stroke-linecap:square;stroke-width:1.5;"/>
   </g>
   <g id="line2d_14">
    <path clip-path="url(#p0b6f7304a9)" d="M -1 146 
L 26.92093 145.943848 
L 28.002326 145.762865 
L 29.083721 145.205397 
L 30.165116 143.868102 
L 31.246512 141.369705 
L 32.327907 137.73456 
L 33.409302 133.6154 
L 34.490698 129.980255 
L 35.572093 127.481858 
L 36.653488 126.144563 
L 37.734884 125.587095 
L 38.816279 125.406112 
L 42.060465 125.34996 
L 72.339535 125.406112 
L 73.42093 125.587095 
L 74.502326 126.144563 
L 75.583721 127.481858 
L 76.665116 129.980255 
L 77.746512 133.6154 
L 78.827907 137.73456 
L 79.909302 141.369705 
L 80.990698 143.868102 
L 82.072093 145.205397 
L 83.153488 145.762865 
L 84.234884 145.943848 
L 87.47907 146 
L 116.676744 145.940474 
L 117.75814 145.678368 
L 118.839535 144.641723 
L 119.92093 141.448629 
L 121.002326 133.788796 
L 122.083721 119.478344 
L 123.165116 98.656759 
L 124.246512 75.062812 
L 125.327907 54.241227 
L 126.409302 39.930775 
L 127.490698 32.270942 
L 128.572093 29.077848 
L 129.653488 28.041202 
L 130.734884 27.779097 
L 133.97907 27.719571 
L 162.095349 27.779097 
L 163.176744 28.041202 
L 164.25814 29.077848 
L 165.339535 32.270942 
L 166.42093 39.930775 
L 167.502326 54.241227 
L 168.583721 75.062812 
L 169.665116 98.656759 
L 170.746512 119.478344 
L 171.827907 133.788796 
L 172.909302 141.448629 
L 173.990698 144.641723 
L 175.072093 145.678368 
L 176.153488 145.940474 
L 179.397674 146 
L 207.513953 145.934278 
L 208.595349 145.644894 
L 209.676744 144.500356 
L 210.75814 140.974933 
L 211.839535 132.517881 
L 212.92093 116.718029 
L 214.002326 93.72938 
L 215.083721 67.679827 
L 216.165116 44.691178 
L 217.246512 28.891326 
L 218.327907 20.434274 
L 219.409302 16.90885 
L 220.490698 15.764313 
L 221.572093 15.474929 
L 224.816279 15.409207 
L 252.932558 15.474929 
L 254.013953 15.764313 
L 255.095349 16.90885 
L 256.176744 20.434274 
L 257.25814 28.891326 
L 258.339535 44.691178 
L 259.42093 67.679827 
L 260.502326 93.72938 
L 261.583721 116.718029 
L 262.665116 132.517881 
L 263.746512 140.974933 
L 264.827907 144.500356 
L 265.909302 145.644894 
L 266.990698 145.934278 
L 270.234884 146 
L 301.4 146 
L 301.4 146 
" style="fill:none;stroke:#b2b2b2;stroke-linecap:square;stroke-width:1.5;"/>
   </g>
   <g id="line2d_15">
    <path clip-path="url(#p0b6f7304a9)" d="M -1 146 
L 28.002326 145.966801 
L 30.165116 145.701536 
L 31.246512 145.351762 
L 35.572093 143.407474 
L 37.734884 143.142209 
L 43.14186 143.10901 
L 73.42093 143.142209 
L 75.583721 143.407474 
L 76.665116 143.757248 
L 80.990698 145.701536 
L 83.153488 145.966801 
L 88.560465 146 
L 116.676744 145.969402 
L 117.75814 145.834675 
L 118.839535 145.301819 
L 119.92093 143.660506 
L 121.002326 139.7232 
L 122.083721 132.367345 
L 123.165116 121.664639 
L 124.246512 109.536884 
L 125.327907 98.834178 
L 126.409302 91.478323 
L 127.490698 87.541018 
L 128.572093 85.899705 
L 129.653488 85.366848 
L 131.816279 85.205592 
L 161.013953 85.205592 
L 163.176744 85.366848 
L 164.25814 85.899705 
L 165.339535 87.541018 
L 166.42093 91.478323 
L 167.502326 98.834178 
L 168.583721 109.536884 
L 169.665116 121.664639 
L 170.746512 132.367345 
L 171.827907 139.7232 
L 172.909302 143.660506 
L 173.990698 145.301819 
L 175.072093 145.834675 
L 177.234884 145.995932 
L 205.351163 146 
L 207.513953 145.940121 
L 208.595349 145.676466 
L 209.676744 144.633688 
L 210.75814 141.421705 
L 211.839535 133.71656 
L 212.92093 119.321452 
L 214.002326 98.376695 
L 215.083721 74.643176 
L 216.165116 53.698419 
L 217.246512 39.303312 
L 218.327907 31.598166 
L 219.409302 28.386183 
L 220.490698 27.343405 
L 221.572093 27.07975 
L 224.816279 27.019871 
L 252.932558 27.07975 
L 254.013953 27.343405 
L 255.095349 28.386183 
L 256.176744 31.598166 
L 257.25814 39.303312 
L 258.339535 53.698419 
L 259.42093 74.643176 
L 260.502326 98.376695 
L 261.583721 119.321452 
L 262.665116 133.71656 
L 263.746512 141.421705 
L 264.827907 144.633688 
L 265.909302 145.676466 
L 266.990698 145.940121 
L 270.234884 146 
L 301.4 146 
L 301.4 146 
" style="fill:none;stroke:#b2b2b2;stroke-linecap:square;stroke-width:1.5;"/>
   </g>
   <g id="line2d_16">
    <path clip-path="url(#p0b6f7304a9)" d="M -1 146 
L 25.839535 145.97809 
L 26.92093 145.881619 
L 28.002326 145.500068 
L 29.083721 144.324806 
L 30.165116 141.5055 
L 31.246512 136.238344 
L 32.327907 128.574676 
L 33.409302 119.890603 
L 34.490698 112.226936 
L 35.572093 106.959779 
L 36.653488 104.140474 
L 37.734884 102.965212 
L 38.816279 102.583661 
L 40.97907 102.468193 
L 71.25814 102.487189 
L 72.339535 102.583661 
L 73.42093 102.965212 
L 74.502326 104.140474 
L 75.583721 106.959779 
L 76.665116 112.226936 
L 77.746512 119.890603 
L 78.827907 128.574676 
L 79.909302 136.238344 
L 80.990698 141.5055 
L 82.072093 144.324806 
L 83.153488 145.500068 
L 84.234884 145.881619 
L 86.397674 145.997087 
L 115.595349 145.991532 
L 116.676744 145.936311 
L 117.75814 145.655876 
L 118.839535 144.546736 
L 119.92093 141.130343 
L 121.002326 132.934844 
L 122.083721 117.623635 
L 123.165116 95.345957 
L 124.246512 70.102042 
L 125.327907 47.824364 
L 126.409302 32.513155 
L 127.490698 24.317656 
L 128.572093 20.901263 
L 129.653488 19.792123 
L 130.734884 19.511688 
L 133.97907 19.447999 
L 162.095349 19.511688 
L 163.176744 19.792123 
L 164.25814 20.901263 
L 165.339535 24.317656 
L 166.42093 32.513155 
L 167.502326 47.824364 
L 168.583721 70.102042 
L 169.665116 95.345957 
L 170.746512 117.623635 
L 171.827907 132.934844 
L 172.909302 141.130343 
L 173.990698 144.546736 
L 175.072093 145.655876 
L 176.153488 145.936311 
L 179.397674 146 
L 207.513953 145.933834 
L 208.595349 145.642493 
L 209.676744 144.490219 
L 210.75814 140.940963 
L 211.839535 132.42674 
L 212.92093 116.520078 
L 214.002326 93.376022 
L 215.083721 67.150371 
L 216.165116 44.006314 
L 217.246512 28.099653 
L 218.327907 19.58543 
L 219.409302 16.036174 
L 220.490698 14.8839 
L 221.572093 14.592559 
L 224.816279 14.526393 
L 252.932558 14.592559 
L 254.013953 14.8839 
L 255.095349 16.036174 
L 256.176744 19.58543 
L 257.25814 28.099653 
L 258.339535 44.006314 
L 259.42093 67.150371 
L 260.502326 93.376022 
L 261.583721 116.520078 
L 262.665116 132.42674 
L 263.746512 140.940963 
L 264.827907 144.490219 
L 265.909302 145.642493 
L 266.990698 145.933834 
L 270.234884 146 
L 301.4 146 
L 301.4 146 
" style="fill:none;stroke:#b2b2b2;stroke-linecap:square;stroke-width:1.5;"/>
   </g>
   <g id="line2d_17">
    <path clip-path="url(#p0b6f7304a9)" d="M -1 146 
L 29.083721 145.89917 
L 30.165116 145.729475 
L 31.246512 145.412443 
L 35.572093 143.650156 
L 37.734884 143.409722 
L 44.223256 143.379631 
L 74.502326 143.480461 
L 75.583721 143.650156 
L 76.665116 143.967188 
L 80.990698 145.729475 
L 83.153488 145.969909 
L 89.64186 146 
L 116.676744 145.971486 
L 117.75814 145.845932 
L 118.839535 145.349359 
L 119.92093 143.819807 
L 121.002326 140.150601 
L 122.083721 133.295622 
L 123.165116 123.321686 
L 124.246512 112.019737 
L 125.327907 102.045801 
L 126.409302 95.190822 
L 127.490698 91.521616 
L 128.572093 89.992063 
L 129.653488 89.49549 
L 131.816279 89.345214 
L 161.013953 89.345214 
L 163.176744 89.49549 
L 164.25814 89.992063 
L 165.339535 91.521616 
L 166.42093 95.190822 
L 167.502326 102.045801 
L 168.583721 112.019737 
L 169.665116 123.321686 
L 170.746512 133.295622 
L 171.827907 140.150601 
L 172.909302 143.819807 
L 173.990698 145.349359 
L 175.072093 145.845932 
L 177.234884 145.996209 
L 206.432558 145.992144 
L 207.513953 145.940915 
L 208.595349 145.680755 
L 209.676744 144.651801 
L 210.75814 141.482399 
L 211.839535 133.8794 
L 212.92093 119.675127 
L 214.002326 99.008032 
L 215.083721 75.589146 
L 216.165116 54.922051 
L 217.246512 40.717778 
L 218.327907 33.114779 
L 219.409302 29.945377 
L 220.490698 28.916423 
L 221.572093 28.656263 
L 224.816279 28.597178 
L 252.932558 28.656263 
L 254.013953 28.916423 
L 255.095349 29.945377 
L 256.176744 33.114779 
L 257.25814 40.717778 
L 258.339535 54.922051 
L 259.42093 75.589146 
L 260.502326 99.008032 
L 261.583721 119.675127 
L 262.665116 133.8794 
L 263.746512 141.482399 
L 264.827907 144.651801 
L 265.909302 145.680755 
L 266.990698 145.940915 
L 270.234884 146 
L 301.4 146 
L 301.4 146 
" style="fill:none;stroke:#b2b2b2;stroke-linecap:square;stroke-width:1.5;"/>
   </g>
   <g id="line2d_18">
    <path clip-path="url(#p0b6f7304a9)" d="M -1 146 
L 28.002326 145.925176 
L 29.083721 145.749276 
L 30.165116 145.327315 
L 31.246512 144.538987 
L 34.490698 140.945234 
L 35.572093 140.156906 
L 36.653488 139.734945 
L 37.734884 139.559045 
L 40.97907 139.484657 
L 73.42093 139.559045 
L 74.502326 139.734945 
L 75.583721 140.156906 
L 76.665116 140.945234 
L 79.909302 144.538987 
L 80.990698 145.327315 
L 82.072093 145.749276 
L 83.153488 145.925176 
L 86.397674 145.999564 
L 116.676744 145.953942 
L 117.75814 145.751141 
L 118.839535 144.949049 
L 119.92093 142.47843 
L 121.002326 136.551724 
L 122.083721 125.479179 
L 123.165116 109.368721 
L 124.246512 91.11318 
L 125.327907 75.002722 
L 126.409302 63.930177 
L 127.490698 58.003471 
L 128.572093 55.532852 
L 129.653488 54.73076 
L 130.734884 54.527959 
L 133.97907 54.481901 
L 162.095349 54.527959 
L 163.176744 54.73076 
L 164.25814 55.532852 
L 165.339535 58.003471 
L 166.42093 63.930177 
L 167.502326 75.002722 
L 168.583721 91.11318 
L 169.665116 109.368721 
L 170.746512 125.479179 
L 171.827907 136.551724 
L 172.909302 142.47843 
L 173.990698 144.949049 
L 175.072093 145.751141 
L 176.153488 145.953942 
L 179.397674 146 
L 207.513953 145.936198 
L 208.595349 145.655267 
L 209.676744 144.544165 
L 210.75814 141.121728 
L 211.839535 132.91173 
L 212.92093 117.573433 
L 214.002326 95.256343 
L 215.083721 69.967767 
L 216.165116 47.650676 
L 217.246512 32.31238 
L 218.327907 24.102381 
L 219.409302 20.679944 
L 220.490698 19.568842 
L 221.572093 19.287911 
L 224.816279 19.224109 
L 252.932558 19.287911 
L 254.013953 19.568842 
L 255.095349 20.679944 
L 256.176744 24.102381 
L 257.25814 32.31238 
L 258.339535 47.650676 
L 259.42093 69.967767 
L 260.502326 95.256343 
L 261.583721 117.573433 
L 262.665116 132.91173 
L 263.746512 141.121728 
L 264.827907 144.544165 
L 265.909302 145.655267 
L 266.990698 145.936198 
L 270.234884 146 
L 301.4 146 
L 301.4 146 
" style="fill:none;stroke:#b2b2b2;stroke-linecap:square;stroke-width:1.5;"/>
   </g>
   <g id="line2d_19">
    <path clip-path="url(#p0b6f7304a9)" d="M -1 146 
L 28.002326 145.95442 
L 29.083721 145.847268 
L 30.165116 145.590224 
L 31.246512 145.110002 
L 35.572093 142.440592 
L 36.653488 142.183548 
L 38.816279 142.041609 
L 52.874419 142.030816 
L 73.42093 142.076396 
L 74.502326 142.183548 
L 75.583721 142.440592 
L 76.665116 142.920814 
L 80.990698 145.590224 
L 82.072093 145.847268 
L 84.234884 145.989207 
L 98.293023 146 
L 116.676744 145.962911 
L 117.75814 145.799601 
L 118.839535 145.1537 
L 119.92093 143.164182 
L 121.002326 138.391577 
L 122.083721 129.475178 
L 123.165116 116.501894 
L 124.246512 101.801237 
L 125.327907 88.827953 
L 126.409302 79.911553 
L 127.490698 75.138949 
L 128.572093 73.149431 
L 129.653488 72.503529 
L 130.734884 72.34022 
L 135.060465 72.303131 
L 162.095349 72.34022 
L 163.176744 72.503529 
L 164.25814 73.149431 
L 165.339535 75.138949 
L 166.42093 79.911553 
L 167.502326 88.827953 
L 168.583721 101.801237 
L 169.665116 116.501894 
L 170.746512 129.475178 
L 171.827907 138.391577 
L 172.909302 143.164182 
L 173.990698 145.1537 
L 175.072093 145.799601 
L 176.153488 145.962911 
L 180.47907 146 
L 207.513953 145.938135 
L 208.595349 145.665733 
L 209.676744 144.588361 
L 210.75814 141.269824 
L 211.839535 133.309065 
L 212.92093 118.436411 
L 214.002326 96.796826 
L 215.083721 72.275965 
L 216.165116 50.63638 
L 217.246512 35.763726 
L 218.327907 27.802967 
L 219.409302 24.48443 
L 220.490698 23.407058 
L 221.572093 23.134656 
L 224.816279 23.072791 
L 252.932558 23.134656 
L 254.013953 23.407058 
L 255.095349 24.48443 
L 256.176744 27.802967 
L 257.25814 35.763726 
L 258.339535 50.63638 
L 259.42093 72.275965 
L 260.502326 96.796826 
L 261.583721 118.436411 
L 262.665116 133.309065 
L 263.746512 141.269824 
L 264.827907 144.588361 
L 265.909302 145.665733 
L 266.990698 145.938135 
L 270.234884 146 
L 301.4 146 
L 301.4 146 
" style="fill:none;stroke:#b2b2b2;stroke-linecap:square;stroke-width:1.5;"/>
   </g>
   <g id="line2d_20">
    <path clip-path="url(#p0b6f7304a9)" d="M -1 146 
L 29.083721 145.912566 
L 30.165116 145.765416 
L 31.246512 145.490504 
L 35.572093 143.962349 
L 37.734884 143.753858 
L 44.223256 143.727765 
L 74.502326 143.815199 
L 75.583721 143.962349 
L 76.665116 144.237261 
L 80.990698 145.765416 
L 83.153488 145.973907 
L 89.64186 146 
L 116.676744 145.974535 
L 117.75814 145.86241 
L 118.839535 145.418944 
L 119.92093 144.052975 
L 121.002326 140.776185 
L 122.083721 134.654335 
L 123.165116 125.747095 
L 124.246512 115.653871 
L 125.327907 106.746631 
L 126.409302 100.624781 
L 127.490698 97.347991 
L 128.572093 95.982022 
L 129.653488 95.538556 
L 131.816279 95.404352 
L 161.013953 95.404352 
L 163.176744 95.538556 
L 164.25814 95.982022 
L 165.339535 97.347991 
L 166.42093 100.624781 
L 167.502326 106.746631 
L 168.583721 115.653871 
L 169.665116 125.747095 
L 170.746512 134.654335 
L 171.827907 140.776185 
L 172.909302 144.052975 
L 173.990698 145.418944 
L 175.072093 145.86241 
L 177.234884 145.996614 
L 206.432558 145.992323 
L 207.513953 145.942264 
L 208.595349 145.688042 
L 209.676744 144.682573 
L 210.75814 141.585512 
L 211.839535 134.156049 
L 212.92093 120.275986 
L 214.002326 100.080612 
L 215.083721 77.196255 
L 216.165116 57.000881 
L 217.246512 43.120817 
L 218.327907 35.691355 
L 219.409302 32.594294 
L 220.490698 31.588825 
L 221.572093 31.334603 
L 224.816279 31.276867 
L 252.932558 31.334603 
L 254.013953 31.588825 
L 255.095349 32.594294 
L 256.176744 35.691355 
L 257.25814 43.120817 
L 258.339535 57.000881 
L 259.42093 77.196255 
L 260.502326 100.080612 
L 261.583721 120.275986 
L 262.665116 134.156049 
L 263.746512 141.585512 
L 264.827907 144.682573 
L 265.909302 145.688042 
L 266.990698 145.942264 
L 270.234884 146 
L 301.4 146 
L 301.4 146 
" style="fill:none;stroke:#b2b2b2;stroke-linecap:square;stroke-width:1.5;"/>
   </g>
   <g id="line2d_21">
    <path clip-path="url(#p0b6f7304a9)" d="M -1 146 
L 28.002326 145.921083 
L 29.083721 145.735561 
L 30.165116 145.290518 
L 31.246512 144.459067 
L 34.490698 140.668731 
L 35.572093 139.83728 
L 36.653488 139.392237 
L 37.734884 139.206715 
L 40.97907 139.128258 
L 73.42093 139.206715 
L 74.502326 139.392237 
L 75.583721 139.83728 
L 76.665116 140.668731 
L 79.909302 144.459067 
L 80.990698 145.290518 
L 82.072093 145.735561 
L 83.153488 145.921083 
L 86.397674 145.99954 
L 116.676744 145.953088 
L 117.75814 145.746525 
L 118.839535 144.929553 
L 119.92093 142.413103 
L 121.002326 136.376452 
L 122.083721 125.098504 
L 123.165116 108.689186 
L 124.246512 90.094993 
L 125.327907 73.685675 
L 126.409302 62.407727 
L 127.490698 56.371076 
L 128.572093 53.854625 
L 129.653488 53.037654 
L 130.734884 52.831091 
L 133.97907 52.784179 
L 162.095349 52.831091 
L 163.176744 53.037654 
L 164.25814 53.854625 
L 165.339535 56.371076 
L 166.42093 62.407727 
L 167.502326 73.685675 
L 168.583721 90.094993 
L 169.665116 108.689186 
L 170.746512 125.098504 
L 171.827907 136.376452 
L 172.909302 142.413103 
L 173.990698 144.929553 
L 175.072093 145.746525 
L 176.153488 145.953088 
L 179.397674 146 
L 207.513953 145.936048 
L 208.595349 145.654454 
L 209.676744 144.540729 
L 210.75814 141.110216 
L 211.839535 132.880842 
L 212.92093 117.506348 
L 214.002326 95.136591 
L 215.083721 69.788335 
L 216.165116 47.418578 
L 217.246512 32.044084 
L 218.327907 23.81471 
L 219.409302 20.384197 
L 220.490698 19.270472 
L 221.572093 18.988879 
L 224.816279 18.924926 
L 252.932558 18.988879 
L 254.013953 19.270472 
L 255.095349 20.384197 
L 256.176744 23.81471 
L 257.25814 32.044084 
L 258.339535 47.418578 
L 259.42093 69.788335 
L 260.502326 95.136591 
L 261.583721 117.506348 
L 262.665116 132.880842 
L 263.746512 141.110216 
L 264.827907 144.540729 
L 265.909302 145.654454 
L 266.990698 145.936048 
L 270.234884 146 
L 301.4 146 
L 301.4 146 
" style="fill:none;stroke:#b2b2b2;stroke-linecap:square;stroke-width:1.5;"/>
   </g>
   <g id="line2d_22">
    <path clip-path="url(#p0b6f7304a9)" d="M -1 146 
L 26.92093 145.931754 
L 28.002326 145.711791 
L 29.083721 145.034259 
L 30.165116 143.408942 
L 31.246512 140.372452 
L 32.327907 135.954384 
L 33.409302 130.948057 
L 34.490698 126.529989 
L 35.572093 123.493498 
L 36.653488 121.868182 
L 37.734884 121.190649 
L 38.816279 120.970686 
L 42.060465 120.90244 
L 72.339535 120.970686 
L 73.42093 121.190649 
L 74.502326 121.868182 
L 75.583721 123.493498 
L 76.665116 126.529989 
L 77.746512 130.948057 
L 78.827907 135.954384 
L 79.909302 140.372452 
L 80.990698 143.408942 
L 82.072093 145.034259 
L 83.153488 145.711791 
L 84.234884 145.931754 
L 87.47907 146 
L 116.676744 145.939118 
L 117.75814 145.671047 
L 118.839535 144.610803 
L 119.92093 141.345021 
L 121.002326 133.510817 
L 122.083721 118.874598 
L 123.165116 97.579024 
L 124.246512 73.447978 
L 125.327907 52.152405 
L 126.409302 37.516185 
L 127.490698 29.681982 
L 128.572093 26.4162 
L 129.653488 25.355956 
L 130.734884 25.087884 
L 133.97907 25.027002 
L 162.095349 25.087884 
L 163.176744 25.355956 
L 164.25814 26.4162 
L 165.339535 29.681982 
L 166.42093 37.516185 
L 167.502326 52.152405 
L 168.583721 73.447978 
L 169.665116 97.579024 
L 170.746512 118.874598 
L 171.827907 133.510817 
L 172.909302 141.345021 
L 173.990698 144.610803 
L 175.072093 145.671047 
L 176.153488 145.939118 
L 179.397674 146 
L 207.513953 145.934128 
L 208.595349 145.64408 
L 209.676744 144.496919 
L 210.75814 140.963414 
L 211.839535 132.486976 
L 212.92093 116.650906 
L 214.002326 93.60956 
L 215.083721 67.500294 
L 216.165116 44.458948 
L 217.246512 28.622878 
L 218.327907 20.14644 
L 219.409302 16.612935 
L 220.490698 15.465774 
L 221.572093 15.175727 
L 224.816279 15.109854 
L 252.932558 15.175727 
L 254.013953 15.465774 
L 255.095349 16.612935 
L 256.176744 20.14644 
L 257.25814 28.622878 
L 258.339535 44.458948 
L 259.42093 67.500294 
L 260.502326 93.60956 
L 261.583721 116.650906 
L 262.665116 132.486976 
L 263.746512 140.963414 
L 264.827907 144.496919 
L 265.909302 145.64408 
L 266.990698 145.934128 
L 270.234884 146 
L 301.4 146 
L 301.4 146 
" style="fill:none;stroke:#b2b2b2;stroke-linecap:square;stroke-width:1.5;"/>
   </g>
   <g id="line2d_23">
    <path clip-path="url(#p0b6f7304a9)" d="M -1 146 
L 28.002326 145.94948 
L 29.083721 145.830716 
L 30.165116 145.545816 
L 31.246512 145.013552 
L 34.490698 142.587117 
L 35.572093 142.054853 
L 36.653488 141.769953 
L 38.816279 141.612631 
L 51.793023 141.600669 
L 73.42093 141.651189 
L 74.502326 141.769953 
L 75.583721 142.054853 
L 76.665116 142.587117 
L 79.909302 145.013552 
L 80.990698 145.545816 
L 82.072093 145.830716 
L 84.234884 145.988037 
L 97.211628 146 
L 116.676744 145.960911 
L 117.75814 145.788798 
L 118.839535 145.108076 
L 119.92093 143.011305 
L 121.002326 137.981414 
L 122.083721 128.584339 
L 123.165116 114.911676 
L 124.246512 99.418518 
L 125.327907 85.745855 
L 126.409302 76.34878 
L 127.490698 71.318889 
L 128.572093 69.222118 
L 129.653488 68.541396 
L 130.734884 68.369283 
L 135.060465 68.330194 
L 162.095349 68.369283 
L 163.176744 68.541396 
L 164.25814 69.222118 
L 165.339535 71.318889 
L 166.42093 76.34878 
L 167.502326 85.745855 
L 168.583721 99.418518 
L 169.665116 114.911676 
L 170.746512 128.584339 
L 171.827907 137.981414 
L 172.909302 143.011305 
L 173.990698 145.108076 
L 175.072093 145.788798 
L 176.153488 145.960911 
L 180.47907 146 
L 207.513953 145.937637 
L 208.595349 145.663043 
L 209.676744 144.577002 
L 210.75814 141.231759 
L 211.839535 133.206938 
L 212.92093 118.214599 
L 214.002326 96.400875 
L 215.083721 71.682688 
L 216.165116 49.868964 
L 217.246512 34.876625 
L 218.327907 26.851805 
L 219.409302 23.506562 
L 220.490698 22.42052 
L 221.572093 22.145926 
L 224.816279 22.083563 
L 252.932558 22.145926 
L 254.013953 22.42052 
L 255.095349 23.506562 
L 256.176744 26.851805 
L 257.25814 34.876625 
L 258.339535 49.868964 
L 259.42093 71.682688 
L 260.502326 96.400875 
L 261.583721 118.214599 
L 262.665116 133.206938 
L 263.746512 141.231759 
L 264.827907 144.577002 
L 265.909302 145.663043 
L 266.990698 145.937637 
L 270.234884 146 
L 301.4 146 
L 301.4 146 
" style="fill:none;stroke:#b2b2b2;stroke-linecap:square;stroke-width:1.5;"/>
   </g>
   <g id="line2d_24">
    <path clip-path="url(#p0b6f7304a9)" d="M -1 146 
L 28.002326 145.919795 
L 29.083721 145.731246 
L 30.165116 145.278941 
L 31.246512 144.433924 
L 34.490698 140.581742 
L 35.572093 139.736725 
L 36.653488 139.28442 
L 37.734884 139.095871 
L 40.97907 139.016133 
L 73.42093 139.095871 
L 74.502326 139.28442 
L 75.583721 139.736725 
L 76.665116 140.581742 
L 79.909302 144.433924 
L 80.990698 145.278941 
L 82.072093 145.731246 
L 83.153488 145.919795 
L 86.397674 145.999533 
L 116.676744 145.952833 
L 117.75814 145.745146 
L 118.839535 144.923732 
L 119.92093 142.393597 
L 121.002326 136.324118 
L 122.083721 124.98484 
L 123.165116 108.486287 
L 124.246512 89.790977 
L 125.327907 73.292424 
L 126.409302 61.953146 
L 127.490698 55.883667 
L 128.572093 53.353532 
L 129.653488 52.532118 
L 130.734884 52.324431 
L 133.97907 52.277264 
L 162.095349 52.324431 
L 163.176744 52.532118 
L 164.25814 53.353532 
L 165.339535 55.883667 
L 166.42093 61.953146 
L 167.502326 73.292424 
L 168.583721 89.790977 
L 169.665116 108.486287 
L 170.746512 124.98484 
L 171.827907 136.324118 
L 172.909302 142.393597 
L 173.990698 144.923732 
L 175.072093 145.745146 
L 176.153488 145.952833 
L 179.397674 146 
L 207.513953 145.936003 
L 208.595349 145.654216 
L 209.676744 144.539725 
L 210.75814 141.10685 
L 211.839535 132.87181 
L 212.92093 117.486732 
L 214.002326 95.101574 
L 215.083721 69.735868 
L 216.165116 47.35071 
L 217.246512 31.965632 
L 218.327907 23.730593 
L 219.409302 20.297718 
L 220.490698 19.183226 
L 221.572093 18.901439 
L 224.816279 18.837442 
L 252.932558 18.901439 
L 254.013953 19.183226 
L 255.095349 20.297718 
L 256.176744 23.730593 
L 257.25814 31.965632 
L 258.339535 47.35071 
L 259.42093 69.735868 
L 260.502326 95.101574 
L 261.583721 117.486732 
L 262.665116 132.87181 
L 263.746512 141.10685 
L 264.827907 144.539725 
L 265.909302 145.654216 
L 266.990698 145.936003 
L 270.234884 146 
L 301.4 146 
L 301.4 146 
" style="fill:none;stroke:#b2b2b2;stroke-linecap:square;stroke-width:1.5;"/>
   </g>
   <g id="line2d_25">
    <path clip-path="url(#p0b6f7304a9)" d="M -1 146 
L 28.002326 145.896339 
L 29.083721 145.652648 
L 30.165116 145.068065 
L 31.246512 143.975919 
L 32.327907 142.386857 
L 34.490698 138.99715 
L 35.572093 137.905004 
L 36.653488 137.320421 
L 37.734884 137.07673 
L 39.897674 136.977612 
L 70.176744 136.973673 
L 73.42093 137.07673 
L 74.502326 137.320421 
L 75.583721 137.905004 
L 76.665116 138.99715 
L 77.746512 140.586213 
L 79.909302 143.975919 
L 80.990698 145.068065 
L 82.072093 145.652648 
L 83.153488 145.896339 
L 85.316279 145.995457 
L 114.513953 146 
L 116.676744 145.949076 
L 117.75814 145.724848 
L 118.839535 144.838012 
L 119.92093 142.106363 
L 121.002326 135.553477 
L 122.083721 123.311074 
L 123.165116 105.498484 
L 124.246512 85.314175 
L 125.327907 67.501584 
L 126.409302 55.259182 
L 127.490698 48.706296 
L 128.572093 45.974647 
L 129.653488 45.08781 
L 130.734884 44.863583 
L 133.97907 44.812659 
L 162.095349 44.863583 
L 163.176744 45.08781 
L 164.25814 45.974647 
L 165.339535 48.706296 
L 166.42093 55.259182 
L 167.502326 67.501584 
L 168.583721 85.314175 
L 169.665116 105.498484 
L 170.746512 123.311074 
L 171.827907 135.553477 
L 172.909302 142.106363 
L 173.990698 144.838012 
L 175.072093 145.724848 
L 176.153488 145.949076 
L 179.397674 146 
L 207.513953 145.9354 
L 208.595349 145.650958 
L 209.676744 144.525965 
L 210.75814 141.060743 
L 211.839535 132.748107 
L 212.92093 117.218059 
L 214.002326 94.621973 
L 215.083721 69.017252 
L 216.165116 46.421166 
L 217.246512 30.891118 
L 218.327907 22.578482 
L 219.409302 19.11326 
L 220.490698 17.988267 
L 221.572093 17.703825 
L 224.816279 17.639225 
L 252.932558 17.703825 
L 254.013953 17.988267 
L 255.095349 19.11326 
L 256.176744 22.578482 
L 257.25814 30.891118 
L 258.339535 46.421166 
L 259.42093 69.017252 
L 260.502326 94.621973 
L 261.583721 117.218059 
L 262.665116 132.748107 
L 263.746512 141.060743 
L 264.827907 144.525965 
L 265.909302 145.650958 
L 266.990698 145.9354 
L 270.234884 146 
L 301.4 146 
L 301.4 146 
" style="fill:none;stroke:#b2b2b2;stroke-linecap:square;stroke-width:1.5;"/>
   </g>
   <g id="line2d_26">
    <path clip-path="url(#p0b6f7304a9)" d="M -1 146 
L 25.839535 145.968248 
L 26.92093 145.82844 
L 28.002326 145.275489 
L 29.083721 143.572281 
L 30.165116 139.486495 
L 31.246512 131.853242 
L 32.327907 120.746924 
L 33.409302 108.161818 
L 34.490698 97.0555 
L 35.572093 89.422247 
L 36.653488 85.336462 
L 37.734884 83.633253 
L 38.816279 83.080302 
L 39.897674 82.940494 
L 45.304651 82.908742 
L 71.25814 82.940494 
L 72.339535 83.080302 
L 73.42093 83.633253 
L 74.502326 85.336462 
L 75.583721 89.422247 
L 76.665116 97.0555 
L 77.746512 108.161818 
L 78.827907 120.746924 
L 79.909302 131.853242 
L 80.990698 139.486495 
L 82.072093 143.572281 
L 83.153488 145.275489 
L 84.234884 145.82844 
L 85.316279 145.968248 
L 90.723256 146 
L 116.676744 145.935065 
L 117.75814 145.649146 
L 118.839535 144.518313 
L 119.92093 141.035103 
L 121.002326 132.679317 
L 122.083721 117.068652 
L 123.165116 94.35527 
L 124.246512 68.617636 
L 125.327907 45.904253 
L 126.409302 30.293589 
L 127.490698 21.937803 
L 128.572093 18.454593 
L 129.653488 17.32376 
L 130.734884 17.037841 
L 133.97907 16.972906 
L 162.095349 17.037841 
L 163.176744 17.32376 
L 164.25814 18.454593 
L 165.339535 21.937803 
L 166.42093 30.293589 
L 167.502326 45.904253 
L 168.583721 68.617636 
L 169.665116 94.35527 
L 170.746512 117.068652 
L 171.827907 132.679317 
L 172.909302 141.035103 
L 173.990698 144.518313 
L 175.072093 145.649146 
L 176.153488 145.935065 
L 179.397674 146 
L 207.513953 145.933711 
L 208.595349 145.641829 
L 209.676744 144.487415 
L 210.75814 140.931568 
L 211.839535 132.401533 
L 212.92093 116.465332 
L 214.002326 93.278295 
L 215.083721 67.003941 
L 216.165116 43.816904 
L 217.246512 27.880702 
L 218.327907 19.350668 
L 219.409302 15.794821 
L 220.490698 14.640406 
L 221.572093 14.348525 
L 224.816279 14.282236 
L 252.932558 14.348525 
L 254.013953 14.640406 
L 255.095349 15.794821 
L 256.176744 19.350668 
L 257.25814 27.880702 
L 258.339535 43.816904 
L 259.42093 67.003941 
L 260.502326 93.278295 
L 261.583721 116.465332 
L 262.665116 132.401533 
L 263.746512 140.931568 
L 264.827907 144.487415 
L 265.909302 145.641829 
L 266.990698 145.933711 
L 270.234884 146 
L 301.4 146 
L 301.4 146 
" style="fill:none;stroke:#b2b2b2;stroke-linecap:square;stroke-width:1.5;"/>
   </g>
   <g id="line2d_27">
    <path clip-path="url(#p0b6f7304a9)" d="M -1 146 
L 28.002326 145.955461 
L 29.083721 145.850756 
L 30.165116 145.599583 
L 31.246512 145.130329 
L 35.572093 142.521885 
L 36.653488 142.270711 
L 38.816279 142.132014 
L 53.955814 142.121467 
L 73.42093 142.166007 
L 74.502326 142.270711 
L 75.583721 142.521885 
L 76.665116 142.991139 
L 80.990698 145.599583 
L 82.072093 145.850756 
L 84.234884 145.989453 
L 99.374419 146 
L 116.676744 145.963368 
L 117.75814 145.802073 
L 118.839535 145.164136 
L 119.92093 143.199152 
L 121.002326 138.485401 
L 122.083721 129.678955 
L 123.165116 116.865651 
L 124.246512 102.346275 
L 125.327907 89.532972 
L 126.409302 80.726525 
L 127.490698 76.012774 
L 128.572093 74.04779 
L 129.653488 73.409854 
L 130.734884 73.248558 
L 135.060465 73.211926 
L 162.095349 73.248558 
L 163.176744 73.409854 
L 164.25814 74.04779 
L 165.339535 76.012774 
L 166.42093 80.726525 
L 167.502326 89.532972 
L 168.583721 102.346275 
L 169.665116 116.865651 
L 170.746512 129.678955 
L 171.827907 138.485401 
L 172.909302 143.199152 
L 173.990698 145.164136 
L 175.072093 145.802073 
L 176.153488 145.963368 
L 180.47907 146 
L 207.513953 145.938255 
L 208.595349 145.666383 
L 209.676744 144.591108 
L 210.75814 141.279027 
L 211.839535 133.333758 
L 212.92093 118.490041 
L 214.002326 96.89256 
L 215.083721 72.419409 
L 216.165116 50.821928 
L 217.246512 35.978211 
L 218.327907 28.032942 
L 219.409302 24.720861 
L 220.490698 23.645586 
L 221.572093 23.373714 
L 224.816279 23.311969 
L 252.932558 23.373714 
L 254.013953 23.645586 
L 255.095349 24.720861 
L 256.176744 28.032942 
L 257.25814 35.978211 
L 258.339535 50.821928 
L 259.42093 72.419409 
L 260.502326 96.89256 
L 261.583721 118.490041 
L 262.665116 133.333758 
L 263.746512 141.279027 
L 264.827907 144.591108 
L 265.909302 145.666383 
L 266.990698 145.938255 
L 270.234884 146 
L 301.4 146 
L 301.4 146 
" style="fill:none;stroke:#b2b2b2;stroke-linecap:square;stroke-width:1.5;"/>
   </g>
   <g id="line2d_28">
    <path clip-path="url(#p0b6f7304a9)" d="M -1 146 
L 26.92093 145.960942 
L 28.002326 145.835054 
L 29.083721 145.447293 
L 30.165116 144.517101 
L 31.246512 142.779274 
L 32.327907 140.250752 
L 33.409302 137.38556 
L 34.490698 134.857037 
L 35.572093 133.11921 
L 36.653488 132.189019 
L 37.734884 131.801257 
L 39.897674 131.64354 
L 59.362791 131.636312 
L 72.339535 131.67537 
L 73.42093 131.801257 
L 74.502326 132.189019 
L 75.583721 133.11921 
L 76.665116 134.857037 
L 77.746512 137.38556 
L 78.827907 140.250752 
L 79.909302 142.779274 
L 80.990698 144.517101 
L 82.072093 145.447293 
L 83.153488 145.835054 
L 85.316279 145.992771 
L 104.781395 146 
L 116.676744 145.943629 
L 117.75814 145.695416 
L 118.839535 144.713718 
L 119.92093 141.689873 
L 121.002326 134.436047 
L 122.083721 120.884116 
L 123.165116 101.166172 
L 124.246512 78.822815 
L 125.327907 59.104871 
L 126.409302 45.55294 
L 127.490698 38.299114 
L 128.572093 35.275269 
L 129.653488 34.293571 
L 130.734884 34.045358 
L 133.97907 33.988987 
L 162.095349 34.045358 
L 163.176744 34.293571 
L 164.25814 35.275269 
L 165.339535 38.299114 
L 166.42093 45.55294 
L 167.502326 59.104871 
L 168.583721 78.822815 
L 169.665116 101.166172 
L 170.746512 120.884116 
L 171.827907 134.436047 
L 172.909302 141.689873 
L 173.990698 144.713718 
L 175.072093 145.695416 
L 176.153488 145.943629 
L 179.397674 146 
L 207.513953 145.934654 
L 208.595349 145.646925 
L 209.676744 144.508935 
L 210.75814 141.003678 
L 211.839535 132.595005 
L 212.92093 116.885535 
L 214.002326 94.028391 
L 215.083721 68.127854 
L 216.165116 45.270709 
L 217.246512 29.561239 
L 218.327907 21.152566 
L 219.409302 17.647309 
L 220.490698 16.509319 
L 221.572093 16.22159 
L 224.816279 16.156244 
L 252.932558 16.22159 
L 254.013953 16.509319 
L 255.095349 17.647309 
L 256.176744 21.152566 
L 257.25814 29.561239 
L 258.339535 45.270709 
L 259.42093 68.127854 
L 260.502326 94.028391 
L 261.583721 116.885535 
L 262.665116 132.595005 
L 263.746512 141.003678 
L 264.827907 144.508935 
L 265.909302 145.646925 
L 266.990698 145.934654 
L 270.234884 146 
L 301.4 146 
L 301.4 146 
" style="fill:none;stroke:#b2b2b2;stroke-linecap:square;stroke-width:1.5;"/>
   </g>
   <g id="line2d_29">
    <path clip-path="url(#p0b6f7304a9)" d="M -1 146 
L 28.002326 145.932101 
L 29.083721 145.772481 
L 30.165116 145.389574 
L 31.246512 144.674208 
L 34.490698 141.413067 
L 35.572093 140.697701 
L 36.653488 140.314794 
L 38.816279 140.103353 
L 48.548837 140.087275 
L 73.42093 140.155174 
L 74.502326 140.314794 
L 75.583721 140.697701 
L 76.665116 141.413067 
L 79.909302 144.674208 
L 80.990698 145.389574 
L 82.072093 145.772481 
L 84.234884 145.983922 
L 93.967442 146 
L 116.676744 145.955558 
L 117.75814 145.759874 
L 118.839535 144.985928 
L 119.92093 142.602005 
L 121.002326 136.883272 
L 122.083721 126.199272 
L 123.165116 110.654143 
L 124.246512 93.039205 
L 125.327907 77.494077 
L 126.409302 66.810077 
L 127.490698 61.091343 
L 128.572093 58.707421 
L 129.653488 57.933474 
L 130.734884 57.73779 
L 135.060465 57.693349 
L 162.095349 57.73779 
L 163.176744 57.933474 
L 164.25814 58.707421 
L 165.339535 61.091343 
L 166.42093 66.810077 
L 167.502326 77.494077 
L 168.583721 93.039205 
L 169.665116 110.654143 
L 170.746512 126.199272 
L 171.827907 136.883272 
L 172.909302 142.602005 
L 173.990698 144.985928 
L 175.072093 145.759874 
L 176.153488 145.955558 
L 180.47907 146 
L 207.513953 145.936497 
L 208.595349 145.656881 
L 209.676744 144.550979 
L 210.75814 141.144562 
L 211.839535 132.972992 
L 212.92093 117.706489 
L 214.002326 95.493859 
L 215.083721 70.323651 
L 216.165116 48.111021 
L 217.246512 32.844518 
L 218.327907 24.672948 
L 219.409302 21.266531 
L 220.490698 20.160629 
L 221.572093 19.881013 
L 224.816279 19.81751 
L 252.932558 19.881013 
L 254.013953 20.160629 
L 255.095349 21.266531 
L 256.176744 24.672948 
L 257.25814 32.844518 
L 258.339535 48.111021 
L 259.42093 70.323651 
L 260.502326 95.493859 
L 261.583721 117.706489 
L 262.665116 132.972992 
L 263.746512 141.144562 
L 264.827907 144.550979 
L 265.909302 145.656881 
L 266.990698 145.936497 
L 270.234884 146 
L 301.4 146 
L 301.4 146 
" style="fill:none;stroke:#b2b2b2;stroke-linecap:square;stroke-width:1.5;"/>
   </g>
   <g id="line2d_30">
    <path clip-path="url(#p0b6f7304a9)" d="M -1 146 
L 28.002326 145.923046 
L 29.083721 145.742141 
L 30.165116 145.30817 
L 31.246512 144.497407 
L 34.490698 140.801377 
L 35.572093 139.990614 
L 36.653488 139.556644 
L 37.734884 139.375738 
L 40.97907 139.299233 
L 73.42093 139.375738 
L 74.502326 139.556644 
L 75.583721 139.990614 
L 76.665116 140.801377 
L 79.909302 144.497407 
L 80.990698 145.30817 
L 82.072093 145.742141 
L 83.153488 145.923046 
L 86.397674 145.999552 
L 116.676744 145.953489 
L 117.75814 145.748694 
L 118.839535 144.938711 
L 119.92093 142.443791 
L 121.002326 136.458787 
L 122.083721 125.277328 
L 123.165116 109.008401 
L 124.246512 90.573291 
L 125.327907 74.304364 
L 126.409302 63.122905 
L 127.490698 57.137902 
L 128.572093 54.642981 
L 129.653488 53.832999 
L 130.734884 53.628203 
L 133.97907 53.581692 
L 162.095349 53.628203 
L 163.176744 53.832999 
L 164.25814 54.642981 
L 165.339535 57.137902 
L 166.42093 63.122905 
L 167.502326 74.304364 
L 168.583721 90.573291 
L 169.665116 109.008401 
L 170.746512 125.277328 
L 171.827907 136.458787 
L 172.909302 142.443791 
L 173.990698 144.938711 
L 175.072093 145.748694 
L 176.153488 145.953489 
L 179.397674 146 
L 207.513953 145.936118 
L 208.595349 145.654833 
L 209.676744 144.542329 
L 210.75814 141.115578 
L 211.839535 132.895228 
L 212.92093 117.537592 
L 214.002326 95.192364 
L 215.083721 69.871903 
L 216.165116 47.526675 
L 217.246512 32.16904 
L 218.327907 23.94869 
L 219.409302 20.521938 
L 220.490698 19.409435 
L 221.572093 19.12815 
L 224.816279 19.064267 
L 252.932558 19.12815 
L 254.013953 19.409435 
L 255.095349 20.521938 
L 256.176744 23.94869 
L 257.25814 32.16904 
L 258.339535 47.526675 
L 259.42093 69.871903 
L 260.502326 95.192364 
L 261.583721 117.537592 
L 262.665116 132.895228 
L 263.746512 141.115578 
L 264.827907 144.542329 
L 265.909302 145.654833 
L 266.990698 145.936118 
L 270.234884 146 
L 301.4 146 
L 301.4 146 
" style="fill:none;stroke:#b2b2b2;stroke-linecap:square;stroke-width:1.5;"/>
   </g>
   <g id="line2d_31">
    <path clip-path="url(#p0b6f7304a9)" d="M -1 146 
L 28.002326 145.934984 
L 29.083721 145.782141 
L 30.165116 145.41549 
L 31.246512 144.730496 
L 34.490698 141.607813 
L 35.572093 140.922819 
L 36.653488 140.556168 
L 38.816279 140.353704 
L 49.630233 140.338309 
L 73.42093 140.403325 
L 74.502326 140.556168 
L 75.583721 140.922819 
L 76.665116 141.607813 
L 79.909302 144.730496 
L 80.990698 145.41549 
L 82.072093 145.782141 
L 84.234884 145.984605 
L 95.048837 146 
L 116.676744 145.956304 
L 117.75814 145.763903 
L 118.839535 145.002943 
L 119.92093 142.659021 
L 121.002326 137.036245 
L 122.083721 126.531515 
L 123.165116 111.247225 
L 124.246512 93.927854 
L 125.327907 78.643563 
L 126.409302 68.138834 
L 127.490698 62.516057 
L 128.572093 60.172135 
L 129.653488 59.411175 
L 130.734884 59.218774 
L 135.060465 59.175078 
L 162.095349 59.218774 
L 163.176744 59.411175 
L 164.25814 60.172135 
L 165.339535 62.516057 
L 166.42093 68.138834 
L 167.502326 78.643563 
L 168.583721 93.927854 
L 169.665116 111.247225 
L 170.746512 126.531515 
L 171.827907 137.036245 
L 172.909302 142.659021 
L 173.990698 145.002943 
L 175.072093 145.763903 
L 176.153488 145.956304 
L 180.47907 146 
L 207.513953 145.936641 
L 208.595349 145.657661 
L 209.676744 144.554271 
L 210.75814 141.155593 
L 211.839535 133.002588 
L 212.92093 117.77077 
L 214.002326 95.608605 
L 215.083721 70.495582 
L 216.165116 48.333417 
L 217.246512 33.101599 
L 218.327907 24.948594 
L 219.409302 21.549916 
L 220.490698 20.446527 
L 221.572093 20.167546 
L 224.816279 20.104187 
L 252.932558 20.167546 
L 254.013953 20.446527 
L 255.095349 21.549916 
L 256.176744 24.948594 
L 257.25814 33.101599 
L 258.339535 48.333417 
L 259.42093 70.495582 
L 260.502326 95.608605 
L 261.583721 117.77077 
L 262.665116 133.002588 
L 263.746512 141.155593 
L 264.827907 144.554271 
L 265.909302 145.657661 
L 266.990698 145.936641 
L 270.234884 146 
L 301.4 146 
L 301.4 146 
" style="fill:none;stroke:#b2b2b2;stroke-linecap:square;stroke-width:1.5;"/>
   </g>
   <g id="line2d_32">
    <path clip-path="url(#p0b6f7304a9)" d="M -1 146 
L 28.002326 145.944932 
L 29.083721 145.815476 
L 30.165116 145.504926 
L 31.246512 144.924743 
L 34.490698 142.279861 
L 35.572093 141.699678 
L 36.653488 141.389128 
L 38.816279 141.217644 
L 50.711628 141.204604 
L 73.42093 141.259672 
L 74.502326 141.389128 
L 75.583721 141.699678 
L 76.665116 142.279861 
L 79.909302 144.924743 
L 80.990698 145.504926 
L 82.072093 145.815476 
L 84.234884 145.98696 
L 96.130233 146 
L 116.676744 145.959287 
L 117.75814 145.780023 
L 118.839535 145.071017 
L 119.92093 142.887124 
L 121.002326 137.648239 
L 122.083721 127.860713 
L 123.165116 113.619946 
L 124.246512 97.483044 
L 125.327907 83.242277 
L 126.409302 73.454751 
L 127.490698 68.215866 
L 128.572093 66.031974 
L 129.653488 65.322968 
L 130.734884 65.143703 
L 135.060465 65.10299 
L 162.095349 65.143703 
L 163.176744 65.322968 
L 164.25814 66.031974 
L 165.339535 68.215866 
L 166.42093 73.454751 
L 167.502326 83.242277 
L 168.583721 97.483044 
L 169.665116 113.619946 
L 170.746512 127.860713 
L 171.827907 137.648239 
L 172.909302 142.887124 
L 173.990698 145.071017 
L 175.072093 145.780023 
L 176.153488 145.959287 
L 180.47907 146 
L 207.513953 145.937264 
L 208.595349 145.661026 
L 209.676744 144.568483 
L 210.75814 141.203213 
L 211.839535 133.13035 
L 212.92093 118.048258 
L 214.002326 96.103942 
L 215.083721 71.237776 
L 216.165116 49.29346 
L 217.246512 34.211368 
L 218.327907 26.138505 
L 219.409302 22.773236 
L 220.490698 21.680692 
L 221.572093 21.404454 
L 224.816279 21.341718 
L 252.932558 21.404454 
L 254.013953 21.680692 
L 255.095349 22.773236 
L 256.176744 26.138505 
L 257.25814 34.211368 
L 258.339535 49.29346 
L 259.42093 71.237776 
L 260.502326 96.103942 
L 261.583721 118.048258 
L 262.665116 133.13035 
L 263.746512 141.203213 
L 264.827907 144.568483 
L 265.909302 145.661026 
L 266.990698 145.937264 
L 270.234884 146 
L 301.4 146 
L 301.4 146 
" style="fill:none;stroke:#b2b2b2;stroke-linecap:square;stroke-width:1.5;"/>
   </g>
   <g id="line2d_33">
    <path clip-path="url(#p0b6f7304a9)" d="M -1 146 
L 25.839535 145.960021 
L 26.92093 145.783985 
L 28.002326 145.087751 
L 29.083721 142.943199 
L 30.165116 137.798685 
L 31.246512 128.187468 
L 32.327907 114.203229 
L 33.409302 98.357011 
L 34.490698 84.372773 
L 35.572093 74.761556 
L 36.653488 69.617042 
L 37.734884 67.47249 
L 38.816279 66.776256 
L 39.897674 66.60022 
L 44.223256 66.560241 
L 71.25814 66.60022 
L 72.339535 66.776256 
L 73.42093 67.47249 
L 74.502326 69.617042 
L 75.583721 74.761556 
L 76.665116 84.372773 
L 77.746512 98.357011 
L 78.827907 114.203229 
L 79.909302 128.187468 
L 80.990698 137.798685 
L 82.072093 142.943199 
L 83.153488 145.087751 
L 84.234884 145.783985 
L 85.316279 145.960021 
L 89.64186 146 
L 116.676744 145.934482 
L 117.75814 145.645993 
L 118.839535 144.505 
L 119.92093 140.990494 
L 121.002326 132.559631 
L 122.083721 116.808705 
L 123.165116 93.891243 
L 124.246512 67.922357 
L 125.327907 45.004896 
L 126.409302 29.25397 
L 127.490698 20.823107 
L 128.572093 17.308601 
L 129.653488 16.167607 
L 130.734884 15.879119 
L 133.97907 15.813601 
L 162.095349 15.879119 
L 163.176744 16.167607 
L 164.25814 17.308601 
L 165.339535 20.823107 
L 166.42093 29.25397 
L 167.502326 45.004896 
L 168.583721 67.922357 
L 169.665116 93.891243 
L 170.746512 116.808705 
L 171.827907 132.559631 
L 172.909302 140.990494 
L 173.990698 144.505 
L 175.072093 145.645993 
L 176.153488 145.934482 
L 179.397674 146 
L 207.513953 145.933655 
L 208.595349 145.641526 
L 209.676744 144.486135 
L 210.75814 140.927279 
L 211.839535 132.390027 
L 212.92093 116.440341 
L 214.002326 93.233684 
L 215.083721 66.937097 
L 216.165116 43.73044 
L 217.246512 27.780754 
L 218.327907 19.243502 
L 219.409302 15.684646 
L 220.490698 14.529254 
L 221.572093 14.237126 
L 224.816279 14.170781 
L 252.932558 14.237126 
L 254.013953 14.529254 
L 255.095349 15.684646 
L 256.176744 19.243502 
L 257.25814 27.780754 
L 258.339535 43.73044 
L 259.42093 66.937097 
L 260.502326 93.233684 
L 261.583721 116.440341 
L 262.665116 132.390027 
L 263.746512 140.927279 
L 264.827907 144.486135 
L 265.909302 145.641526 
L 266.990698 145.933655 
L 270.234884 146 
L 301.4 146 
L 301.4 146 
" style="fill:none;stroke:#b2b2b2;stroke-linecap:square;stroke-width:1.5;"/>
   </g>
   <g id="line2d_34">
    <path clip-path="url(#p0b6f7304a9)" d="M -1 146 
L 26.92093 145.967816 
L 28.002326 145.864084 
L 29.083721 145.544568 
L 30.165116 144.778089 
L 31.246512 143.346116 
L 32.327907 141.262609 
L 33.409302 138.901686 
L 34.490698 136.818179 
L 35.572093 135.386207 
L 36.653488 134.619727 
L 37.734884 134.300211 
L 39.897674 134.170252 
L 63.688372 134.164295 
L 72.339535 134.196479 
L 73.42093 134.300211 
L 74.502326 134.619727 
L 75.583721 135.386207 
L 76.665116 136.818179 
L 77.746512 138.901686 
L 78.827907 141.262609 
L 79.909302 143.346116 
L 80.990698 144.778089 
L 82.072093 145.544568 
L 83.153488 145.864084 
L 85.316279 145.994044 
L 109.106977 146 
L 116.676744 145.945693 
L 117.75814 145.706572 
L 118.839535 144.760828 
L 119.92093 141.847732 
L 121.002326 134.859577 
L 122.083721 121.803986 
L 123.165116 102.808213 
L 124.246512 81.283182 
L 125.327907 62.287408 
L 126.409302 49.231817 
L 127.490698 42.243662 
L 128.572093 39.330566 
L 129.653488 38.384822 
L 130.734884 38.145701 
L 133.97907 38.091394 
L 162.095349 38.145701 
L 163.176744 38.384822 
L 164.25814 39.330566 
L 165.339535 42.243662 
L 166.42093 49.231817 
L 167.502326 62.287408 
L 168.583721 81.283182 
L 169.665116 102.808213 
L 170.746512 121.803986 
L 171.827907 134.859577 
L 172.909302 141.847732 
L 173.990698 144.760828 
L 175.072093 145.706572 
L 176.153488 145.945693 
L 179.397674 146 
L 207.513953 145.934921 
L 208.595349 145.648369 
L 209.676744 144.51503 
L 210.75814 141.024103 
L 211.839535 132.649805 
L 212.92093 117.004555 
L 214.002326 94.240852 
L 215.083721 68.446196 
L 216.165116 45.682492 
L 217.246512 30.037243 
L 218.327907 21.662944 
L 219.409302 18.172017 
L 220.490698 17.038679 
L 221.572093 16.752126 
L 224.816279 16.687047 
L 252.932558 16.752126 
L 254.013953 17.038679 
L 255.095349 18.172017 
L 256.176744 21.662944 
L 257.25814 30.037243 
L 258.339535 45.682492 
L 259.42093 68.446196 
L 260.502326 94.240852 
L 261.583721 117.004555 
L 262.665116 132.649805 
L 263.746512 141.024103 
L 264.827907 144.51503 
L 265.909302 145.648369 
L 266.990698 145.934921 
L 270.234884 146 
L 301.4 146 
L 301.4 146 
" style="fill:none;stroke:#b2b2b2;stroke-linecap:square;stroke-width:1.5;"/>
   </g>
   <g id="line2d_35">
    <path clip-path="url(#p0b6f7304a9)" d="M -1 146 
L 26.92093 145.966022 
L 28.002326 145.856509 
L 29.083721 145.519185 
L 30.165116 144.709986 
L 31.246512 143.198204 
L 32.327907 140.998573 
L 33.409302 138.506065 
L 34.490698 136.306435 
L 35.572093 134.794652 
L 36.653488 133.985454 
L 37.734884 133.648129 
L 39.897674 133.510927 
L 62.606977 133.504638 
L 72.339535 133.538616 
L 73.42093 133.648129 
L 74.502326 133.985454 
L 75.583721 134.794652 
L 76.665116 136.306435 
L 77.746512 138.506065 
L 78.827907 140.998573 
L 79.909302 143.198204 
L 80.990698 144.709986 
L 82.072093 145.519185 
L 83.153488 145.856509 
L 85.316279 145.993712 
L 108.025581 146 
L 116.676744 145.945086 
L 117.75814 145.703291 
L 118.839535 144.746974 
L 119.92093 141.801309 
L 121.002326 134.735027 
L 122.083721 121.533474 
L 123.165116 102.325327 
L 124.246512 80.559646 
L 125.327907 61.351499 
L 126.409302 48.149946 
L 127.490698 41.083664 
L 128.572093 38.137999 
L 129.653488 37.181682 
L 130.734884 36.939887 
L 133.97907 36.884973 
L 162.095349 36.939887 
L 163.176744 37.181682 
L 164.25814 38.137999 
L 165.339535 41.083664 
L 166.42093 48.149946 
L 167.502326 61.351499 
L 168.583721 80.559646 
L 169.665116 102.325327 
L 170.746512 121.533474 
L 171.827907 134.735027 
L 172.909302 141.801309 
L 173.990698 144.746974 
L 175.072093 145.703291 
L 176.153488 145.945086 
L 179.397674 146 
L 207.513953 145.934841 
L 208.595349 145.647934 
L 209.676744 144.513195 
L 210.75814 141.017954 
L 211.839535 132.633307 
L 212.92093 116.968723 
L 214.002326 94.176889 
L 215.083721 68.350356 
L 216.165116 45.558522 
L 217.246512 29.893938 
L 218.327907 21.509291 
L 219.409302 18.01405 
L 220.490698 16.879311 
L 221.572093 16.592404 
L 224.816279 16.527245 
L 252.932558 16.592404 
L 254.013953 16.879311 
L 255.095349 18.01405 
L 256.176744 21.509291 
L 257.25814 29.893938 
L 258.339535 45.558522 
L 259.42093 68.350356 
L 260.502326 94.176889 
L 261.583721 116.968723 
L 262.665116 132.633307 
L 263.746512 141.017954 
L 264.827907 144.513195 
L 265.909302 145.647934 
L 266.990698 145.934841 
L 270.234884 146 
L 301.4 146 
L 301.4 146 
" style="fill:none;stroke:#b2b2b2;stroke-linecap:square;stroke-width:1.5;"/>
   </g>
   <g id="line2d_36">
    <path clip-path="url(#p0b6f7304a9)" d="M -1 146 
L 29.083721 145.913459 
L 30.165116 145.767814 
L 31.246512 145.495713 
L 35.572093 143.983181 
L 37.734884 143.776821 
L 44.223256 143.750995 
L 74.502326 143.837536 
L 75.583721 143.983181 
L 76.665116 144.255282 
L 80.990698 145.767814 
L 83.153488 145.974173 
L 89.64186 146 
L 116.676744 145.974756 
L 117.75814 145.863601 
L 118.839535 145.423974 
L 119.92093 144.069827 
L 121.002326 140.821398 
L 122.083721 134.752535 
L 123.165116 125.92239 
L 124.246512 115.916526 
L 125.327907 107.086381 
L 126.409302 101.017517 
L 127.490698 97.769089 
L 128.572093 96.414942 
L 129.653488 95.975315 
L 131.816279 95.842272 
L 161.013953 95.842272 
L 163.176744 95.975315 
L 164.25814 96.414942 
L 165.339535 97.769089 
L 166.42093 101.017517 
L 167.502326 107.086381 
L 168.583721 115.916526 
L 169.665116 125.92239 
L 170.746512 134.752535 
L 171.827907 140.821398 
L 172.909302 144.069827 
L 173.990698 145.423974 
L 175.072093 145.863601 
L 177.234884 145.996643 
L 206.432558 145.992337 
L 207.513953 145.942371 
L 208.595349 145.688623 
L 209.676744 144.685026 
L 210.75814 141.593733 
L 211.839535 134.178105 
L 212.92093 120.323889 
L 214.002326 100.166123 
L 215.083721 77.324381 
L 216.165116 57.166615 
L 217.246512 43.312398 
L 218.327907 35.896771 
L 219.409302 32.805477 
L 220.490698 31.801881 
L 221.572093 31.548132 
L 224.816279 31.490504 
L 252.932558 31.548132 
L 254.013953 31.801881 
L 255.095349 32.805477 
L 256.176744 35.896771 
L 257.25814 43.312398 
L 258.339535 57.166615 
L 259.42093 77.324381 
L 260.502326 100.166123 
L 261.583721 120.323889 
L 262.665116 134.178105 
L 263.746512 141.593733 
L 264.827907 144.685026 
L 265.909302 145.688623 
L 266.990698 145.942371 
L 270.234884 146 
L 301.4 146 
L 301.4 146 
" style="fill:none;stroke:#b2b2b2;stroke-linecap:square;stroke-width:1.5;"/>
   </g>
   <g id="line2d_37">
    <path clip-path="url(#p0b6f7304a9)" d="M -1 146 
L 28.002326 145.935221 
L 29.083721 145.782937 
L 30.165116 145.417626 
L 31.246512 144.735136 
L 34.490698 141.623864 
L 35.572093 140.941373 
L 36.653488 140.576062 
L 38.816279 140.374339 
L 49.630233 140.359 
L 73.42093 140.423778 
L 74.502326 140.576062 
L 75.583721 140.941373 
L 76.665116 141.623864 
L 79.909302 144.735136 
L 80.990698 145.417626 
L 82.072093 145.782937 
L 84.234884 145.984661 
L 95.048837 146 
L 116.676744 145.956368 
L 117.75814 145.764247 
L 118.839535 145.004394 
L 119.92093 142.663883 
L 121.002326 137.049289 
L 122.083721 126.559846 
L 123.165116 111.297797 
L 124.246512 94.00363 
L 125.327907 78.741581 
L 126.409302 68.252138 
L 127.490698 62.637544 
L 128.572093 60.297033 
L 129.653488 59.53718 
L 130.734884 59.345059 
L 135.060465 59.301427 
L 162.095349 59.345059 
L 163.176744 59.53718 
L 164.25814 60.297033 
L 165.339535 62.637544 
L 166.42093 68.252138 
L 167.502326 78.741581 
L 168.583721 94.00363 
L 169.665116 111.297797 
L 170.746512 126.559846 
L 171.827907 137.049289 
L 172.909302 142.663883 
L 173.990698 145.004394 
L 175.072093 145.764247 
L 176.153488 145.956368 
L 180.47907 146 
L 207.513953 145.936654 
L 208.595349 145.657728 
L 209.676744 144.554557 
L 210.75814 141.156549 
L 211.839535 133.005153 
L 212.92093 117.77634 
L 214.002326 95.618548 
L 215.083721 70.51048 
L 216.165116 48.352688 
L 217.246512 33.123874 
L 218.327907 24.972478 
L 219.409302 21.574471 
L 220.490698 20.471299 
L 221.572093 20.192374 
L 224.816279 20.129027 
L 252.932558 20.192374 
L 254.013953 20.471299 
L 255.095349 21.574471 
L 256.176744 24.972478 
L 257.25814 33.123874 
L 258.339535 48.352688 
L 259.42093 70.51048 
L 260.502326 95.618548 
L 261.583721 117.77634 
L 262.665116 133.005153 
L 263.746512 141.156549 
L 264.827907 144.554557 
L 265.909302 145.657728 
L 266.990698 145.936654 
L 270.234884 146 
L 301.4 146 
L 301.4 146 
" style="fill:none;stroke:#b2b2b2;stroke-linecap:square;stroke-width:1.5;"/>
   </g>
   <g id="matplotlib.axis_1"/>
   <g id="matplotlib.axis_2"/>
   <g id="line2d_38">
    <path clip-path="url(#p0b6f7304a9)" d="M -1 146 
L 25.839535 145.9681 
L 26.92093 145.827637 
L 28.002326 145.272097 
L 29.083721 143.560913 
L 30.165116 139.455995 
L 31.246512 131.786999 
L 32.327907 120.628676 
L 33.409302 107.984639 
L 34.490698 96.826316 
L 35.572093 89.15732 
L 36.653488 85.052402 
L 37.734884 83.341218 
L 38.816279 82.785678 
L 39.897674 82.645215 
L 45.304651 82.613315 
L 71.25814 82.645215 
L 72.339535 82.785678 
L 73.42093 83.341218 
L 74.502326 85.052402 
L 75.583721 89.15732 
L 76.665116 96.826316 
L 77.746512 107.984639 
L 78.827907 120.628676 
L 79.909302 131.786999 
L 80.990698 139.455995 
L 82.072093 143.560913 
L 83.153488 145.272097 
L 84.234884 145.827637 
L 85.316279 145.9681 
L 90.723256 146 
L 116.676744 145.935052 
L 117.75814 145.649075 
L 118.839535 144.518014 
L 119.92093 141.0341 
L 121.002326 132.676625 
L 122.083721 117.062806 
L 123.165116 94.344833 
L 124.246512 68.601997 
L 125.327907 45.884025 
L 126.409302 30.270206 
L 127.490698 21.912731 
L 128.572093 18.428817 
L 129.653488 17.297755 
L 130.734884 17.011778 
L 133.97907 16.94683 
L 162.095349 17.011778 
L 163.176744 17.297755 
L 164.25814 18.428817 
L 165.339535 21.912731 
L 166.42093 30.270206 
L 167.502326 45.884025 
L 168.583721 68.601997 
L 169.665116 94.344833 
L 170.746512 117.062806 
L 171.827907 132.676625 
L 172.909302 141.0341 
L 173.990698 144.518014 
L 175.072093 145.649075 
L 176.153488 145.935052 
L 179.397674 146 
L 207.513953 145.93371 
L 208.595349 145.641822 
L 209.676744 144.487386 
L 210.75814 140.93147 
L 211.839535 132.401273 
L 212.92093 116.464765 
L 214.002326 93.277284 
L 215.083721 67.002425 
L 216.165116 43.814944 
L 217.246512 27.878436 
L 218.327907 19.348239 
L 219.409302 15.792323 
L 220.490698 14.637886 
L 221.572093 14.345999 
L 224.816279 14.279709 
L 252.932558 14.345999 
L 254.013953 14.637886 
L 255.095349 15.792323 
L 256.176744 19.348239 
L 257.25814 27.878436 
L 258.339535 43.814944 
L 259.42093 67.002425 
L 260.502326 93.277284 
L 261.583721 116.464765 
L 262.665116 132.401273 
L 263.746512 140.93147 
L 264.827907 144.487386 
L 265.909302 145.641822 
L 266.990698 145.93371 
L 270.234884 146 
L 301.4 146 
L 301.4 146 
" style="fill:none;stroke:#084a91;stroke-linecap:square;stroke-width:1.2;"/>
   </g>
   <g id="patch_6">
    <path d="M 10.7 149.3 
L 10.7 10.7 
" style="fill:none;stroke:#000000;stroke-linecap:square;stroke-linejoin:miter;stroke-width:0.8;"/>
   </g>
   <g id="patch_7">
    <path d="M 289.7 149.3 
L 289.7 10.7 
" style="fill:none;stroke:#000000;stroke-linecap:square;stroke-linejoin:miter;stroke-width:0.8;"/>
   </g>
   <g id="patch_8">
    <path d="M 10.7 149.3 
L 289.7 149.3 
" style="fill:none;stroke:#000000;stroke-linecap:square;stroke-linejoin:miter;stroke-width:0.8;"/>
   </g>
   <g id="patch_9">
    <path d="M 10.7 10.7 
L 289.7 10.7 
" style="fill:none;stroke:#000000;stroke-linecap:square;stroke-linejoin:miter;stroke-width:0.8;"/>
   </g>
   <g id="line2d_39">
    <path clip-path="url(#p0b6f7304a9)" d="M -1 146 
L 28.002326 145.898526 
L 29.083721 145.659976 
L 30.165116 145.087726 
L 31.246512 144.01862 
L 32.327907 142.463082 
L 34.490698 139.144887 
L 35.572093 138.075782 
L 36.653488 137.503531 
L 37.734884 137.264981 
L 39.897674 137.167954 
L 70.176744 137.164099 
L 73.42093 137.264981 
L 74.502326 137.503531 
L 75.583721 138.075782 
L 76.665116 139.144887 
L 77.746512 140.700425 
L 79.909302 144.01862 
L 80.990698 145.087726 
L 82.072093 145.659976 
L 83.153488 145.898526 
L 85.316279 145.995553 
L 115.595349 145.993268 
L 116.676744 145.949367 
L 117.75814 145.726424 
L 118.839535 144.844665 
L 119.92093 142.128656 
L 121.002326 135.613288 
L 122.083721 123.440979 
L 123.165116 105.730375 
L 124.246512 85.66163 
L 125.327907 67.951026 
L 126.409302 55.778717 
L 127.490698 49.26335 
L 128.572093 46.54734 
L 129.653488 45.665581 
L 130.734884 45.442638 
L 133.97907 45.392005 
L 162.095349 45.442638 
L 163.176744 45.665581 
L 164.25814 46.54734 
L 165.339535 49.26335 
L 166.42093 55.778717 
L 167.502326 67.951026 
L 168.583721 85.66163 
L 169.665116 105.730375 
L 170.746512 123.440979 
L 171.827907 135.613288 
L 172.909302 142.128656 
L 173.990698 144.844665 
L 175.072093 145.726424 
L 176.153488 145.949367 
L 179.397674 146 
L 207.513953 145.935444 
L 208.595349 145.651195 
L 209.676744 144.526968 
L 210.75814 141.064104 
L 211.839535 132.757125 
L 212.92093 117.237646 
L 214.002326 94.656937 
L 215.083721 69.069642 
L 216.165116 46.488933 
L 217.246512 30.969454 
L 218.327907 22.662475 
L 219.409302 19.199611 
L 220.490698 18.075384 
L 221.572093 17.791135 
L 224.816279 17.726579 
L 252.932558 17.791135 
L 254.013953 18.075384 
L 255.095349 19.199611 
L 256.176744 22.662475 
L 257.25814 30.969454 
L 258.339535 46.488933 
L 259.42093 69.069642 
L 260.502326 94.656937 
L 261.583721 117.237646 
L 262.665116 132.757125 
L 263.746512 141.064104 
L 264.827907 144.526968 
L 265.909302 145.651195 
L 266.990698 145.935444 
L 270.234884 146 
L 301.4 146 
L 301.4 146 
" style="fill:none;stroke:#9e3303;stroke-linecap:square;stroke-width:1.2;"/>
   </g>
   <g id="line2d_40">
    <path clip-path="url(#p0b6f7304a9)" d="M -1 146 
L 28.002326 145.901967 
L 29.083721 145.671508 
L 30.165116 145.118666 
L 31.246512 144.085821 
L 32.327907 142.583039 
L 34.490698 139.377384 
L 35.572093 138.344538 
L 36.653488 137.791696 
L 37.734884 137.561237 
L 39.897674 137.467501 
L 71.25814 137.467501 
L 73.42093 137.561237 
L 74.502326 137.791696 
L 75.583721 138.344538 
L 76.665116 139.377384 
L 77.746512 140.880165 
L 79.909302 144.085821 
L 80.990698 145.118666 
L 82.072093 145.671508 
L 83.153488 145.901967 
L 85.316279 145.995704 
L 115.595349 145.993331 
L 116.676744 145.949847 
L 117.75814 145.729016 
L 118.839535 144.855612 
L 119.92093 142.165337 
L 121.002326 135.711705 
L 122.083721 123.654731 
L 123.165116 106.111938 
L 124.246512 86.233349 
L 125.327907 68.690557 
L 126.409302 56.633583 
L 127.490698 50.17995 
L 128.572093 47.489676 
L 129.653488 46.616272 
L 130.734884 46.39544 
L 133.97907 46.345288 
L 162.095349 46.39544 
L 163.176744 46.616272 
L 164.25814 47.489676 
L 165.339535 50.17995 
L 166.42093 56.633583 
L 167.502326 68.690557 
L 168.583721 86.233349 
L 169.665116 106.111938 
L 170.746512 123.654731 
L 171.827907 135.711705 
L 172.909302 142.165337 
L 173.990698 144.855612 
L 175.072093 145.729016 
L 176.153488 145.949847 
L 179.397674 146 
L 207.513953 145.935518 
L 208.595349 145.651591 
L 209.676744 144.528641 
L 210.75814 141.06971 
L 211.839535 132.772167 
L 212.92093 117.270315 
L 214.002326 94.715253 
L 215.083721 69.15702 
L 216.165116 46.601959 
L 217.246512 31.100107 
L 218.327907 22.802563 
L 219.409302 19.343632 
L 220.490698 18.220682 
L 221.572093 17.936756 
L 224.816279 17.872273 
L 252.932558 17.936756 
L 254.013953 18.220682 
L 255.095349 19.343632 
L 256.176744 22.802563 
L 257.25814 31.100107 
L 258.339535 46.601959 
L 259.42093 69.15702 
L 260.502326 94.715253 
L 261.583721 117.270315 
L 262.665116 132.772167 
L 263.746512 141.06971 
L 264.827907 144.528641 
L 265.909302 145.651591 
L 266.990698 145.935518 
L 270.234884 146 
L 301.4 146 
L 301.4 146 
" style="fill:none;stroke:#006428;stroke-linecap:square;stroke-width:1.2;"/>
   </g>
  </g>
 </g>
 <defs>
  <clipPath id="p0b6f7304a9">
   <rect height="138.6" width="279" x="10.7" y="10.7"/>
  </clipPath>
 </defs>
</svg>
