<?xml version="1.0" encoding="utf-8" standalone="no"?>
<!DOCTYPE svg PUBLIC "-//W3C//DTD SVG 1.1//EN"
  "http://www.w3.org/Graphics/SVG/1.1/DTD/svg11.dtd">
<!-- Created with matplotlib (http://matplotlib.org/) -->
<svg height="160pt" version="1.1" viewBox="0 0 300 160" width="300pt" xmlns="http://www.w3.org/2000/svg" xmlns:xlink="http://www.w3.org/1999/xlink">
 <defs>
  <style type="text/css">
*{stroke-linecap:butt;stroke-linejoin:round;}
  </style>
 </defs>
 <g id="figure_1">
  <g id="patch_1">
   <path d="M 0 160 
L 300.4 160 
L 300.4 0 
L 0 0 
z
" style="fill:#ffffff;"/>
  </g>
  <g id="axes_1">
   <g id="patch_2">
    <path d="M 10.7 149.3 
L 289.7 149.3 
L 289.7 10.7 
L 10.7 10.7 
z
" style="fill:#ffffff;"/>
   </g>
   <g id="patch_3">
    <path clip-path="url(#p44cdb913bc)" d="M 33.409302 149.3 
L 33.409302 10.7 
L 78.827907 10.7 
L 78.827907 149.3 
z
" style="fill:#fed9c9;stroke:#fed9c9;stroke-linejoin:miter;"/>
   </g>
   <g id="patch_4">
    <path clip-path="url(#p44cdb913bc)" d="M 124.246512 149.3 
L 124.246512 10.7 
L 169.665116 10.7 
L 169.665116 149.3 
z
" style="fill:#fed9c9;stroke:#fed9c9;stroke-linejoin:miter;"/>
   </g>
   <g id="patch_5">
    <path clip-path="url(#p44cdb913bc)" d="M 215.083721 149.3 
L 215.083721 10.7 
L 260.502326 10.7 
L 260.502326 149.3 
z
" style="fill:#fed9c9;stroke:#fed9c9;stroke-linejoin:miter;"/>
   </g>
   <g id="line2d_1">
    <path clip-path="url(#p44cdb913bc)" d="M -1 146 
L 28.002326 145.941383 
L 29.083721 145.803585 
L 30.165116 145.473025 
L 31.246512 144.855457 
L 34.490698 142.040146 
L 35.572093 141.422578 
L 36.653488 141.092018 
L 38.816279 140.909483 
L 50.711628 140.895603 
L 73.42093 140.954219 
L 74.502326 141.092018 
L 75.583721 141.422578 
L 76.665116 142.040146 
L 79.909302 144.855457 
L 80.990698 145.473025 
L 82.072093 145.803585 
L 84.234884 145.98612 
L 96.130233 146 
L 116.676744 145.958142 
L 117.75814 145.773835 
L 118.839535 145.044887 
L 119.92093 142.799569 
L 121.002326 137.413332 
L 122.083721 127.350515 
L 123.165116 112.709203 
L 124.246512 96.118422 
L 125.327907 81.47711 
L 126.409302 71.414293 
L 127.490698 66.028055 
L 128.572093 63.782737 
L 129.653488 63.053789 
L 130.734884 62.869483 
L 135.060465 62.827625 
L 162.095349 62.869483 
L 163.176744 63.053789 
L 164.25814 63.782737 
L 165.339535 66.028055 
L 166.42093 71.414293 
L 167.502326 81.47711 
L 168.583721 96.118422 
L 169.665116 112.709203 
L 170.746512 127.350515 
L 171.827907 137.413332 
L 172.909302 142.799569 
L 173.990698 145.044887 
L 175.072093 145.773835 
L 176.153488 145.958142 
L 180.47907 146 
L 207.513953 145.937016 
L 208.595349 145.659685 
L 209.676744 144.56282 
L 210.75814 141.184239 
L 211.839535 133.079445 
L 212.92093 117.937696 
L 214.002326 95.906582 
L 215.083721 70.942059 
L 216.165116 48.910944 
L 217.246512 33.769195 
L 218.327907 25.664401 
L 219.409302 22.28582 
L 220.490698 21.188956 
L 221.572093 20.911625 
L 224.816279 20.84864 
L 252.932558 20.911625 
L 254.013953 21.188956 
L 255.095349 22.28582 
L 256.176744 25.664401 
L 257.25814 33.769195 
L 258.339535 48.910944 
L 259.42093 70.942059 
L 260.502326 95.906582 
L 261.583721 117.937696 
L 262.665116 133.079445 
L 263.746512 141.184239 
L 264.827907 144.56282 
L 265.909302 145.659685 
L 266.990698 145.937016 
L 270.234884 146 
L 301.4 146 
L 301.4 146 
" style="fill:none;stroke:#b2b2b2;stroke-linecap:square;stroke-width:1.5;"/>
   </g>
   <g id="line2d_2">
    <path clip-path="url(#p44cdb913bc)" d="M -1 146 
L 26.92093 145.896081 
L 28.002326 145.561139 
L 29.083721 144.529448 
L 30.165116 142.05455 
L 31.246512 137.43083 
L 32.327907 130.703358 
L 33.409302 123.080134 
L 34.490698 116.352662 
L 35.572093 111.728942 
L 36.653488 109.254044 
L 37.734884 108.222353 
L 38.816279 107.887411 
L 40.97907 107.786049 
L 71.25814 107.802725 
L 72.339535 107.887411 
L 73.42093 108.222353 
L 74.502326 109.254044 
L 75.583721 111.728942 
L 76.665116 116.352662 
L 77.746512 123.080134 
L 78.827907 130.703358 
L 79.909302 137.43083 
L 80.990698 142.05455 
L 82.072093 144.529448 
L 83.153488 145.561139 
L 84.234884 145.896081 
L 86.397674 145.997443 
L 115.595349 145.991604 
L 116.676744 145.936858 
L 117.75814 145.658832 
L 118.839535 144.55922 
L 119.92093 141.172176 
L 121.002326 133.04708 
L 122.083721 117.867402 
L 123.165116 95.781101 
L 124.246512 70.754042 
L 125.327907 48.667741 
L 126.409302 33.488063 
L 127.490698 25.362967 
L 128.572093 21.975923 
L 129.653488 20.876311 
L 130.734884 20.598285 
L 133.97907 20.535143 
L 162.095349 20.598285 
L 163.176744 20.876311 
L 164.25814 21.975923 
L 165.339535 25.362967 
L 166.42093 33.488063 
L 167.502326 48.667741 
L 168.583721 70.754042 
L 169.665116 95.781101 
L 170.746512 117.867402 
L 171.827907 133.04708 
L 172.909302 141.172176 
L 173.990698 144.55922 
L 175.072093 145.658832 
L 176.153488 145.936858 
L 179.397674 146 
L 207.513953 145.933889 
L 208.595349 145.642792 
L 209.676744 144.491482 
L 210.75814 140.945195 
L 211.839535 132.438097 
L 212.92093 116.544744 
L 214.002326 93.420052 
L 215.083721 67.216344 
L 216.165116 44.091652 
L 217.246512 28.1983 
L 218.327907 19.691201 
L 219.409302 16.144915 
L 220.490698 14.993604 
L 221.572093 14.702507 
L 224.816279 14.636396 
L 252.932558 14.702507 
L 254.013953 14.993604 
L 255.095349 16.144915 
L 256.176744 19.691201 
L 257.25814 28.1983 
L 258.339535 44.091652 
L 259.42093 67.216344 
L 260.502326 93.420052 
L 261.583721 116.544744 
L 262.665116 132.438097 
L 263.746512 140.945195 
L 264.827907 144.491482 
L 265.909302 145.642792 
L 266.990698 145.933889 
L 270.234884 146 
L 301.4 146 
L 301.4 146 
" style="fill:none;stroke:#b2b2b2;stroke-linecap:square;stroke-width:1.5;"/>
   </g>
   <g id="line2d_3">
    <path clip-path="url(#p44cdb913bc)" d="M -1 146 
L 26.92093 145.959633 
L 28.002326 145.829527 
L 29.083721 145.428773 
L 30.165116 144.467415 
L 31.246512 142.67136 
L 32.327907 140.058116 
L 33.409302 137.096923 
L 34.490698 134.483679 
L 35.572093 132.687625 
L 36.653488 131.726266 
L 37.734884 131.325512 
L 39.897674 131.16251 
L 59.362791 131.15504 
L 72.339535 131.195406 
L 73.42093 131.325512 
L 74.502326 131.726266 
L 75.583721 132.687625 
L 76.665116 134.483679 
L 77.746512 137.096923 
L 78.827907 140.058116 
L 79.909302 142.67136 
L 80.990698 144.467415 
L 82.072093 145.428773 
L 83.153488 145.829527 
L 85.316279 145.992529 
L 104.781395 146 
L 116.676744 145.943305 
L 117.75814 145.693667 
L 118.839535 144.706331 
L 119.92093 141.665121 
L 121.002326 134.369636 
L 122.083721 120.739878 
L 123.165116 100.908696 
L 124.246512 78.437023 
L 125.327907 58.605841 
L 126.409302 44.976082 
L 127.490698 37.680598 
L 128.572093 34.639387 
L 129.653488 33.652051 
L 130.734884 33.402413 
L 133.97907 33.345718 
L 162.095349 33.402413 
L 163.176744 33.652051 
L 164.25814 34.639387 
L 165.339535 37.680598 
L 166.42093 44.976082 
L 167.502326 58.605841 
L 168.583721 78.437023 
L 169.665116 100.908696 
L 170.746512 120.739878 
L 171.827907 134.369636 
L 172.909302 141.665121 
L 173.990698 144.706331 
L 175.072093 145.693667 
L 176.153488 145.943305 
L 179.397674 146 
L 207.513953 145.934614 
L 208.595349 145.646707 
L 209.676744 144.508015 
L 210.75814 141.000597 
L 211.839535 132.586737 
L 212.92093 116.867578 
L 214.002326 93.996336 
L 215.083721 68.079824 
L 216.165116 45.208582 
L 217.246512 29.489423 
L 218.327907 21.075563 
L 219.409302 17.568144 
L 220.490698 16.429452 
L 221.572093 16.141546 
L 224.816279 16.07616 
L 252.932558 16.141546 
L 254.013953 16.429452 
L 255.095349 17.568144 
L 256.176744 21.075563 
L 257.25814 29.489423 
L 258.339535 45.208582 
L 259.42093 68.079824 
L 260.502326 93.996336 
L 261.583721 116.867578 
L 262.665116 132.586737 
L 263.746512 141.000597 
L 264.827907 144.508015 
L 265.909302 145.646707 
L 266.990698 145.934614 
L 270.234884 146 
L 301.4 146 
L 301.4 146 
" style="fill:none;stroke:#b2b2b2;stroke-linecap:square;stroke-width:1.5;"/>
   </g>
   <g id="line2d_4">
    <path clip-path="url(#p44cdb913bc)" d="M -1 146 
L 26.92093 145.947524 
L 28.002326 145.778387 
L 29.083721 145.257411 
L 30.165116 144.007654 
L 31.246512 141.672802 
L 32.327907 138.275611 
L 33.409302 134.426089 
L 34.490698 131.028898 
L 35.572093 128.694045 
L 36.653488 127.444288 
L 37.734884 126.923312 
L 38.816279 126.754176 
L 42.060465 126.701699 
L 72.339535 126.754176 
L 73.42093 126.923312 
L 74.502326 127.444288 
L 75.583721 128.694045 
L 76.665116 131.028898 
L 77.746512 134.426089 
L 78.827907 138.275611 
L 79.909302 141.672802 
L 80.990698 144.007654 
L 82.072093 145.257411 
L 83.153488 145.778387 
L 84.234884 145.947524 
L 87.47907 146 
L 116.676744 145.940996 
L 117.75814 145.681194 
L 118.839535 144.653653 
L 119.92093 141.488607 
L 121.002326 133.896054 
L 122.083721 119.711299 
L 123.165116 99.072601 
L 124.246512 75.685893 
L 125.327907 55.047196 
L 126.409302 40.86244 
L 127.490698 33.269888 
L 128.572093 30.104841 
L 129.653488 29.077301 
L 130.734884 28.817498 
L 133.97907 28.758494 
L 162.095349 28.817498 
L 163.176744 29.077301 
L 164.25814 30.104841 
L 165.339535 33.269888 
L 166.42093 40.86244 
L 167.502326 55.047196 
L 168.583721 75.685893 
L 169.665116 99.072601 
L 170.746512 119.711299 
L 171.827907 133.896054 
L 172.909302 141.488607 
L 173.990698 144.653653 
L 175.072093 145.681194 
L 176.153488 145.940996 
L 179.397674 146 
L 207.513953 145.934338 
L 208.595349 145.645217 
L 209.676744 144.501721 
L 210.75814 140.979505 
L 211.839535 132.530148 
L 212.92093 116.744671 
L 214.002326 93.776938 
L 215.083721 67.751086 
L 216.165116 44.783353 
L 217.246512 28.997876 
L 218.327907 20.548519 
L 219.409302 17.026303 
L 220.490698 15.882807 
L 221.572093 15.593686 
L 224.816279 15.528024 
L 252.932558 15.593686 
L 254.013953 15.882807 
L 255.095349 17.026303 
L 256.176744 20.548519 
L 257.25814 28.997876 
L 258.339535 44.783353 
L 259.42093 67.751086 
L 260.502326 93.776938 
L 261.583721 116.744671 
L 262.665116 132.530148 
L 263.746512 140.979505 
L 264.827907 144.501721 
L 265.909302 145.645217 
L 266.990698 145.934338 
L 270.234884 146 
L 301.4 146 
L 301.4 146 
" style="fill:none;stroke:#b2b2b2;stroke-linecap:square;stroke-width:1.5;"/>
   </g>
   <g id="line2d_5">
    <path clip-path="url(#p44cdb913bc)" d="M -1 146 
L 26.92093 145.915909 
L 28.002326 145.644877 
L 29.083721 144.810041 
L 30.165116 142.807372 
L 31.246512 139.065894 
L 32.327907 133.622076 
L 33.409302 127.453422 
L 34.490698 122.009603 
L 35.572093 118.268125 
L 36.653488 116.265457 
L 37.734884 115.43062 
L 38.816279 115.159588 
L 40.97907 115.077567 
L 71.25814 115.091061 
L 72.339535 115.159588 
L 73.42093 115.43062 
L 74.502326 116.265457 
L 75.583721 118.268125 
L 76.665116 122.009603 
L 77.746512 127.453422 
L 78.827907 133.622076 
L 79.909302 139.065894 
L 80.990698 142.807372 
L 82.072093 144.810041 
L 83.153488 145.644877 
L 84.234884 145.915909 
L 86.397674 145.997931 
L 115.595349 145.991742 
L 116.676744 145.937894 
L 117.75814 145.664428 
L 118.839535 144.582851 
L 119.92093 141.251359 
L 121.002326 133.259524 
L 122.083721 118.328812 
L 123.165116 96.604754 
L 124.246512 71.988171 
L 125.327907 50.264113 
L 126.409302 35.333401 
L 127.490698 27.341567 
L 128.572093 24.010075 
L 129.653488 22.928497 
L 130.734884 22.655032 
L 133.97907 22.592925 
L 162.095349 22.655032 
L 163.176744 22.928497 
L 164.25814 24.010075 
L 165.339535 27.341567 
L 166.42093 35.333401 
L 167.502326 50.264113 
L 168.583721 71.988171 
L 169.665116 96.604754 
L 170.746512 118.328812 
L 171.827907 133.259524 
L 172.909302 141.251359 
L 173.990698 144.582851 
L 175.072093 145.664428 
L 176.153488 145.937894 
L 179.397674 146 
L 207.513953 145.933996 
L 208.595349 145.643372 
L 209.676744 144.493928 
L 210.75814 140.953392 
L 211.839535 132.460089 
L 212.92093 116.59251 
L 214.002326 93.505318 
L 215.083721 67.344102 
L 216.165116 44.25691 
L 217.246512 28.389331 
L 218.327907 19.896027 
L 219.409302 16.355492 
L 220.490698 15.206048 
L 221.572093 14.915423 
L 224.816279 14.84942 
L 252.932558 14.915423 
L 254.013953 15.206048 
L 255.095349 16.355492 
L 256.176744 19.896027 
L 257.25814 28.389331 
L 258.339535 44.25691 
L 259.42093 67.344102 
L 260.502326 93.505318 
L 261.583721 116.59251 
L 262.665116 132.460089 
L 263.746512 140.953392 
L 264.827907 144.493928 
L 265.909302 145.643372 
L 266.990698 145.933996 
L 270.234884 146 
L 301.4 146 
L 301.4 146 
" style="fill:none;stroke:#b2b2b2;stroke-linecap:square;stroke-width:1.5;"/>
   </g>
   <g id="line2d_6">
    <path clip-path="url(#p44cdb913bc)" d="M -1 146 
L 28.002326 145.920011 
L 29.083721 145.731969 
L 30.165116 145.280881 
L 31.246512 144.438136 
L 34.490698 140.596314 
L 35.572093 139.75357 
L 36.653488 139.302481 
L 37.734884 139.11444 
L 40.97907 139.034917 
L 73.42093 139.11444 
L 74.502326 139.302481 
L 75.583721 139.75357 
L 76.665116 140.596314 
L 79.909302 144.438136 
L 80.990698 145.280881 
L 82.072093 145.731969 
L 83.153488 145.920011 
L 86.397674 145.999534 
L 116.676744 145.952875 
L 117.75814 145.745375 
L 118.839535 144.924697 
L 119.92093 142.396831 
L 121.002326 136.332796 
L 122.083721 125.003688 
L 123.165116 108.519932 
L 124.246512 89.841389 
L 125.327907 73.357633 
L 126.409302 62.028524 
L 127.490698 55.964489 
L 128.572093 53.436623 
L 129.653488 52.615945 
L 130.734884 52.408446 
L 133.97907 52.36132 
L 162.095349 52.408446 
L 163.176744 52.615945 
L 164.25814 53.436623 
L 165.339535 55.964489 
L 166.42093 62.028524 
L 167.502326 73.357633 
L 168.583721 89.841389 
L 169.665116 108.519932 
L 170.746512 125.003688 
L 171.827907 136.332796 
L 172.909302 142.396831 
L 173.990698 144.924697 
L 175.072093 145.745375 
L 176.153488 145.952875 
L 179.397674 146 
L 207.513953 145.936011 
L 208.595349 145.654255 
L 209.676744 144.539891 
L 210.75814 141.107406 
L 211.839535 132.873302 
L 212.92093 117.489972 
L 214.002326 95.107358 
L 215.083721 69.744533 
L 216.165116 47.36192 
L 217.246512 31.978589 
L 218.327907 23.744486 
L 219.409302 20.312001 
L 220.490698 19.197636 
L 221.572093 18.91588 
L 224.816279 18.851891 
L 252.932558 18.91588 
L 254.013953 19.197636 
L 255.095349 20.312001 
L 256.176744 23.744486 
L 257.25814 31.978589 
L 258.339535 47.36192 
L 259.42093 69.744533 
L 260.502326 95.107358 
L 261.583721 117.489972 
L 262.665116 132.873302 
L 263.746512 141.107406 
L 264.827907 144.539891 
L 265.909302 145.654255 
L 266.990698 145.936011 
L 270.234884 146 
L 301.4 146 
L 301.4 146 
" style="fill:none;stroke:#b2b2b2;stroke-linecap:square;stroke-width:1.5;"/>
   </g>
   <g id="line2d_7">
    <path clip-path="url(#p44cdb913bc)" d="M -1 146 
L 28.002326 145.916272 
L 29.083721 145.719441 
L 30.165116 145.247268 
L 31.246512 144.365133 
L 34.490698 140.343739 
L 35.572093 139.461603 
L 36.653488 138.98943 
L 37.734884 138.792599 
L 40.97907 138.709359 
L 73.42093 138.792599 
L 74.502326 138.98943 
L 75.583721 139.461603 
L 76.665116 140.343739 
L 79.909302 144.365133 
L 80.990698 145.247268 
L 82.072093 145.719441 
L 83.153488 145.916272 
L 86.397674 145.999512 
L 116.676744 145.952165 
L 117.75814 145.741541 
L 118.839535 144.908507 
L 119.92093 142.34258 
L 121.002326 136.187241 
L 122.083721 124.687554 
L 123.165116 107.955608 
L 124.246512 88.995829 
L 125.327907 72.263884 
L 126.409302 60.764197 
L 127.490698 54.608858 
L 128.572093 52.042931 
L 129.653488 51.209896 
L 130.734884 50.999272 
L 133.97907 50.951437 
L 162.095349 50.999272 
L 163.176744 51.209896 
L 164.25814 52.042931 
L 165.339535 54.608858 
L 166.42093 60.764197 
L 167.502326 72.263884 
L 168.583721 88.995829 
L 169.665116 107.955608 
L 170.746512 124.687554 
L 171.827907 136.187241 
L 172.909302 142.34258 
L 173.990698 144.908507 
L 175.072093 145.741541 
L 176.153488 145.952165 
L 179.397674 146 
L 207.513953 145.93589 
L 208.595349 145.653604 
L 209.676744 144.537142 
L 210.75814 141.098194 
L 211.839535 132.848589 
L 212.92093 117.436297 
L 214.002326 95.011544 
L 215.083721 69.600971 
L 216.165116 47.176218 
L 217.246512 31.763926 
L 218.327907 23.51432 
L 219.409302 20.075373 
L 220.490698 18.958911 
L 221.572093 18.676625 
L 224.816279 18.612515 
L 252.932558 18.676625 
L 254.013953 18.958911 
L 255.095349 20.075373 
L 256.176744 23.51432 
L 257.25814 31.763926 
L 258.339535 47.176218 
L 259.42093 69.600971 
L 260.502326 95.011544 
L 261.583721 117.436297 
L 262.665116 132.848589 
L 263.746512 141.098194 
L 264.827907 144.537142 
L 265.909302 145.653604 
L 266.990698 145.93589 
L 270.234884 146 
L 301.4 146 
L 301.4 146 
" style="fill:none;stroke:#b2b2b2;stroke-linecap:square;stroke-width:1.5;"/>
   </g>
   <g id="line2d_8">
    <path clip-path="url(#p44cdb913bc)" d="M -1 146 
L 28.002326 145.936949 
L 29.083721 145.788727 
L 30.165116 145.433159 
L 31.246512 144.768872 
L 34.490698 141.740583 
L 35.572093 141.076295 
L 36.653488 140.720728 
L 38.816279 140.524385 
L 49.630233 140.509454 
L 73.42093 140.572505 
L 74.502326 140.720728 
L 75.583721 141.076295 
L 76.665116 141.740583 
L 79.909302 144.768872 
L 80.990698 145.433159 
L 82.072093 145.788727 
L 84.234884 145.98507 
L 95.048837 146 
L 116.676744 145.95684 
L 117.75814 145.766801 
L 118.839535 145.015179 
L 119.92093 142.700022 
L 121.002326 137.146248 
L 122.083721 126.770432 
L 123.165116 111.673709 
L 124.246512 94.566881 
L 125.327907 79.470158 
L 126.409302 69.094342 
L 127.490698 63.540568 
L 128.572093 61.225411 
L 129.653488 60.473789 
L 130.734884 60.283749 
L 135.060465 60.24059 
L 162.095349 60.283749 
L 163.176744 60.473789 
L 164.25814 61.225411 
L 165.339535 63.540568 
L 166.42093 69.094342 
L 167.502326 79.470158 
L 168.583721 94.566881 
L 169.665116 111.673709 
L 170.746512 126.770432 
L 171.827907 137.146248 
L 172.909302 142.700022 
L 173.990698 145.015179 
L 175.072093 145.766801 
L 176.153488 145.95684 
L 180.47907 146 
L 207.513953 145.936747 
L 208.595349 145.658236 
L 209.676744 144.5567 
L 210.75814 141.163731 
L 211.839535 133.024421 
L 212.92093 117.818188 
L 214.002326 95.69325 
L 215.083721 70.622411 
L 216.165116 48.497473 
L 217.246512 33.29124 
L 218.327907 25.15193 
L 219.409302 21.758961 
L 220.490698 20.657425 
L 221.572093 20.378914 
L 224.816279 20.315661 
L 252.932558 20.378914 
L 254.013953 20.657425 
L 255.095349 21.758961 
L 256.176744 25.15193 
L 257.25814 33.29124 
L 258.339535 48.497473 
L 259.42093 70.622411 
L 260.502326 95.69325 
L 261.583721 117.818188 
L 262.665116 133.024421 
L 263.746512 141.163731 
L 264.827907 144.5567 
L 265.909302 145.658236 
L 266.990698 145.936747 
L 270.234884 146 
L 301.4 146 
L 301.4 146 
" style="fill:none;stroke:#b2b2b2;stroke-linecap:square;stroke-width:1.5;"/>
   </g>
   <g id="line2d_9">
    <path clip-path="url(#p44cdb913bc)" d="M -1 146 
L 28.002326 145.891767 
L 29.083721 145.637329 
L 30.165116 145.026963 
L 31.246512 143.886649 
L 32.327907 142.227502 
L 34.490698 138.688295 
L 35.572093 137.547982 
L 36.653488 136.937616 
L 37.734884 136.683177 
L 39.897674 136.579688 
L 70.176744 136.575575 
L 73.42093 136.683177 
L 74.502326 136.937616 
L 75.583721 137.547982 
L 76.665116 138.688295 
L 77.746512 140.347442 
L 79.909302 143.886649 
L 80.990698 145.026963 
L 82.072093 145.637329 
L 83.153488 145.891767 
L 85.316279 145.995257 
L 114.513953 146 
L 116.676744 145.948497 
L 117.75814 145.721722 
L 118.839535 144.824806 
L 119.92093 142.062113 
L 121.002326 135.434757 
L 122.083721 123.053226 
L 123.165116 105.038205 
L 124.246512 84.624511 
L 125.327907 66.609489 
L 126.409302 54.227958 
L 127.490698 47.600602 
L 128.572093 44.837909 
L 129.653488 43.940994 
L 130.734884 43.714218 
L 133.97907 43.662716 
L 162.095349 43.714218 
L 163.176744 43.940994 
L 164.25814 44.837909 
L 165.339535 47.600602 
L 166.42093 54.227958 
L 167.502326 66.609489 
L 168.583721 84.624511 
L 169.665116 105.038205 
L 170.746512 123.053226 
L 171.827907 135.434757 
L 172.909302 142.062113 
L 173.990698 144.824806 
L 175.072093 145.721722 
L 176.153488 145.948497 
L 179.397674 146 
L 207.513953 145.935315 
L 208.595349 145.650493 
L 209.676744 144.524004 
L 210.75814 141.054171 
L 211.839535 132.730475 
L 212.92093 117.179764 
L 214.002326 94.553613 
L 215.083721 68.914825 
L 216.165116 46.288675 
L 217.246512 30.737964 
L 218.327907 22.414268 
L 219.409302 18.944435 
L 220.490698 17.817946 
L 221.572093 17.533124 
L 224.816279 17.468439 
L 252.932558 17.533124 
L 254.013953 17.817946 
L 255.095349 18.944435 
L 256.176744 22.414268 
L 257.25814 30.737964 
L 258.339535 46.288675 
L 259.42093 68.914825 
L 260.502326 94.553613 
L 261.583721 117.179764 
L 262.665116 132.730475 
L 263.746512 141.054171 
L 264.827907 144.524004 
L 265.909302 145.650493 
L 266.990698 145.935315 
L 270.234884 146 
L 301.4 146 
L 301.4 146 
" style="fill:none;stroke:#b2b2b2;stroke-linecap:square;stroke-width:1.5;"/>
   </g>
   <g id="line2d_10">
    <path clip-path="url(#p44cdb913bc)" d="M -1 146 
L 26.92093 145.942157 
L 28.002326 145.755722 
L 29.083721 145.181465 
L 30.165116 143.803892 
L 31.246512 141.230247 
L 32.327907 137.485617 
L 33.409302 133.242394 
L 34.490698 129.497763 
L 35.572093 126.924118 
L 36.653488 125.546546 
L 37.734884 124.972288 
L 38.816279 124.785854 
L 42.060465 124.72801 
L 72.339535 124.785854 
L 73.42093 124.972288 
L 74.502326 125.546546 
L 75.583721 126.924118 
L 76.665116 129.497763 
L 77.746512 133.242394 
L 78.827907 137.485617 
L 79.909302 141.230247 
L 80.990698 143.803892 
L 82.072093 145.181465 
L 83.153488 145.755722 
L 84.234884 145.942157 
L 87.47907 146 
L 116.676744 145.940253 
L 117.75814 145.677178 
L 118.839535 144.636695 
L 119.92093 141.431781 
L 121.002326 133.743592 
L 122.083721 119.380165 
L 123.165116 98.481502 
L 124.246512 74.800214 
L 125.327907 53.90155 
L 126.409302 39.538123 
L 127.490698 31.849935 
L 128.572093 28.645021 
L 129.653488 27.604538 
L 130.734884 27.341462 
L 133.97907 27.281715 
L 162.095349 27.341462 
L 163.176744 27.604538 
L 164.25814 28.645021 
L 165.339535 31.849935 
L 166.42093 39.538123 
L 167.502326 53.90155 
L 168.583721 74.800214 
L 169.665116 98.481502 
L 170.746512 119.380165 
L 171.827907 133.743592 
L 172.909302 141.431781 
L 173.990698 144.636695 
L 175.072093 145.677178 
L 176.153488 145.940253 
L 179.397674 146 
L 207.513953 145.934253 
L 208.595349 145.644759 
L 209.676744 144.499788 
L 210.75814 140.973028 
L 211.839535 132.51277 
L 212.92093 116.706927 
L 214.002326 93.709561 
L 215.083721 67.650132 
L 216.165116 44.652766 
L 217.246512 28.846924 
L 218.327907 20.386666 
L 219.409302 16.859905 
L 220.490698 15.714934 
L 221.572093 15.42544 
L 224.816279 15.359693 
L 252.932558 15.42544 
L 254.013953 15.714934 
L 255.095349 16.859905 
L 256.176744 20.386666 
L 257.25814 28.846924 
L 258.339535 44.652766 
L 259.42093 67.650132 
L 260.502326 93.709561 
L 261.583721 116.706927 
L 262.665116 132.51277 
L 263.746512 140.973028 
L 264.827907 144.499788 
L 265.909302 145.644759 
L 266.990698 145.934253 
L 270.234884 146 
L 301.4 146 
L 301.4 146 
" style="fill:none;stroke:#b2b2b2;stroke-linecap:square;stroke-width:1.5;"/>
   </g>
   <g id="line2d_11">
    <path clip-path="url(#p44cdb913bc)" d="M -1 146 
L 28.002326 145.939261 
L 29.083721 145.796473 
L 30.165116 145.453943 
L 31.246512 144.814013 
L 34.490698 141.896759 
L 35.572093 141.256829 
L 36.653488 140.914299 
L 38.816279 140.725155 
L 49.630233 140.710772 
L 73.42093 140.771511 
L 74.502326 140.914299 
L 75.583721 141.256829 
L 76.665116 141.896759 
L 79.909302 144.814013 
L 80.990698 145.453943 
L 82.072093 145.796473 
L 84.234884 145.985617 
L 95.048837 146 
L 116.676744 145.957502 
L 117.75814 145.770378 
L 118.839535 145.030286 
L 119.92093 142.750643 
L 121.002326 137.282063 
L 122.083721 127.065411 
L 123.165116 112.20027 
L 124.246512 95.355859 
L 125.327907 80.490718 
L 126.409302 70.274066 
L 127.490698 64.805487 
L 128.572093 62.525844 
L 129.653488 61.785752 
L 130.734884 61.598627 
L 135.060465 61.55613 
L 162.095349 61.598627 
L 163.176744 61.785752 
L 164.25814 62.525844 
L 165.339535 64.805487 
L 166.42093 70.274066 
L 167.502326 80.490718 
L 168.583721 95.355859 
L 169.665116 112.20027 
L 170.746512 127.065411 
L 171.827907 137.282063 
L 172.909302 142.750643 
L 173.990698 145.030286 
L 175.072093 145.770378 
L 176.153488 145.957502 
L 180.47907 146 
L 207.513953 145.936882 
L 208.595349 145.658963 
L 209.676744 144.559771 
L 210.75814 141.174023 
L 211.839535 133.052036 
L 212.92093 117.878166 
L 214.002326 95.800315 
L 215.083721 70.782832 
L 216.165116 48.704981 
L 217.246512 33.531111 
L 218.327907 25.409123 
L 219.409302 22.023375 
L 220.490698 20.924184 
L 221.572093 20.646265 
L 224.816279 20.583147 
L 252.932558 20.646265 
L 254.013953 20.924184 
L 255.095349 22.023375 
L 256.176744 25.409123 
L 257.25814 33.531111 
L 258.339535 48.704981 
L 259.42093 70.782832 
L 260.502326 95.800315 
L 261.583721 117.878166 
L 262.665116 133.052036 
L 263.746512 141.174023 
L 264.827907 144.559771 
L 265.909302 145.658963 
L 266.990698 145.936882 
L 270.234884 146 
L 301.4 146 
L 301.4 146 
" style="fill:none;stroke:#b2b2b2;stroke-linecap:square;stroke-width:1.5;"/>
   </g>
   <g id="line2d_12">
    <path clip-path="url(#p44cdb913bc)" d="M -1 146 
L 26.92093 145.929553 
L 28.002326 145.702497 
L 29.083721 145.003116 
L 30.165116 143.325386 
L 31.246512 140.190976 
L 32.327907 135.630435 
L 33.409302 130.462665 
L 34.490698 125.902124 
L 35.572093 122.767714 
L 36.653488 121.089984 
L 37.734884 120.390603 
L 38.816279 120.163547 
L 42.060465 120.0931 
L 72.339535 120.163547 
L 73.42093 120.390603 
L 74.502326 121.089984 
L 75.583721 122.767714 
L 76.665116 125.902124 
L 77.746512 130.462665 
L 78.827907 135.630435 
L 79.909302 140.190976 
L 80.990698 143.325386 
L 82.072093 145.003116 
L 83.153488 145.702497 
L 84.234884 145.929553 
L 87.47907 146 
L 116.676744 145.938918 
L 117.75814 145.669963 
L 118.839535 144.606228 
L 119.92093 141.32969 
L 121.002326 133.469686 
L 122.083721 118.785266 
L 123.165116 97.41956 
L 124.246512 73.209043 
L 125.327907 51.843337 
L 126.409302 37.158917 
L 127.490698 29.298913 
L 128.572093 26.022376 
L 129.653488 24.95864 
L 130.734884 24.689685 
L 133.97907 24.628603 
L 162.095349 24.689685 
L 163.176744 24.95864 
L 164.25814 26.022376 
L 165.339535 29.298913 
L 166.42093 37.158917 
L 167.502326 51.843337 
L 168.583721 73.209043 
L 169.665116 97.41956 
L 170.746512 118.785266 
L 171.827907 133.469686 
L 172.909302 141.32969 
L 173.990698 144.606228 
L 175.072093 145.669963 
L 176.153488 145.938918 
L 179.397674 146 
L 207.513953 145.934106 
L 208.595349 145.643962 
L 209.676744 144.496422 
L 210.75814 140.961749 
L 211.839535 132.482509 
L 212.92093 116.641203 
L 214.002326 93.592239 
L 215.083721 67.474342 
L 216.165116 44.425378 
L 217.246512 28.584072 
L 218.327907 20.104832 
L 219.409302 16.570159 
L 220.490698 15.422619 
L 221.572093 15.132475 
L 224.816279 15.066581 
L 252.932558 15.132475 
L 254.013953 15.422619 
L 255.095349 16.570159 
L 256.176744 20.104832 
L 257.25814 28.584072 
L 258.339535 44.425378 
L 259.42093 67.474342 
L 260.502326 93.592239 
L 261.583721 116.641203 
L 262.665116 132.482509 
L 263.746512 140.961749 
L 264.827907 144.496422 
L 265.909302 145.643962 
L 266.990698 145.934106 
L 270.234884 146 
L 301.4 146 
L 301.4 146 
" style="fill:none;stroke:#b2b2b2;stroke-linecap:square;stroke-width:1.5;"/>
   </g>
   <g id="line2d_13">
    <path clip-path="url(#p44cdb913bc)" d="M -1 146 
L 25.839535 145.969808 
L 26.92093 145.836868 
L 28.002326 145.311078 
L 29.083721 143.691532 
L 30.165116 139.806444 
L 31.246512 132.548143 
L 32.327907 121.987378 
L 33.409302 110.020463 
L 34.490698 99.459698 
L 35.572093 92.201397 
L 36.653488 88.316309 
L 37.734884 86.696763 
L 38.816279 86.170974 
L 40.97907 86.011856 
L 70.176744 86.011856 
L 72.339535 86.170974 
L 73.42093 86.696763 
L 74.502326 88.316309 
L 75.583721 92.201397 
L 76.665116 99.459698 
L 77.746512 110.020463 
L 78.827907 121.987378 
L 79.909302 132.548143 
L 80.990698 139.806444 
L 82.072093 143.691532 
L 83.153488 145.311078 
L 84.234884 145.836868 
L 86.397674 145.995986 
L 114.513953 146 
L 116.676744 145.93521 
L 117.75814 145.64993 
L 118.839535 144.521626 
L 119.92093 141.046203 
L 121.002326 132.709098 
L 122.083721 117.133334 
L 123.165116 94.470731 
L 124.246512 68.790638 
L 125.327907 46.128036 
L 126.409302 30.552272 
L 127.490698 22.215166 
L 128.572093 18.739744 
L 129.653488 17.611439 
L 130.734884 17.326159 
L 133.97907 17.26137 
L 162.095349 17.326159 
L 163.176744 17.611439 
L 164.25814 18.739744 
L 165.339535 22.215166 
L 166.42093 30.552272 
L 167.502326 46.128036 
L 168.583721 68.790638 
L 169.665116 94.470731 
L 170.746512 117.133334 
L 171.827907 132.709098 
L 172.909302 141.046203 
L 173.990698 144.521626 
L 175.072093 145.64993 
L 176.153488 145.93521 
L 179.397674 146 
L 207.513953 145.933725 
L 208.595349 145.641905 
L 209.676744 144.487736 
L 210.75814 140.932646 
L 211.839535 132.404426 
L 212.92093 116.471614 
L 214.002326 93.289509 
L 215.083721 67.020743 
L 216.165116 43.838638 
L 217.246512 27.905826 
L 218.327907 19.377607 
L 219.409302 15.822516 
L 220.490698 14.668347 
L 221.572093 14.376527 
L 224.816279 14.310252 
L 252.932558 14.376527 
L 254.013953 14.668347 
L 255.095349 15.822516 
L 256.176744 19.377607 
L 257.25814 27.905826 
L 258.339535 43.838638 
L 259.42093 67.020743 
L 260.502326 93.289509 
L 261.583721 116.471614 
L 262.665116 132.404426 
L 263.746512 140.932646 
L 264.827907 144.487736 
L 265.909302 145.641905 
L 266.990698 145.933725 
L 270.234884 146 
L 301.4 146 
L 301.4 146 
" style="fill:none;stroke:#b2b2b2;stroke-linecap:square;stroke-width:1.5;"/>
   </g>
   <g id="line2d_14">
    <path clip-path="url(#p44cdb913bc)" d="M -1 146 
L 26.92093 145.959627 
L 28.002326 145.8295 
L 29.083721 145.428681 
L 30.165116 144.467166 
L 31.246512 142.670821 
L 32.327907 140.057153 
L 33.409302 137.09548 
L 34.490698 134.481813 
L 35.572093 132.685467 
L 36.653488 131.723953 
L 37.734884 131.323134 
L 39.897674 131.160106 
L 59.362791 131.152633 
L 72.339535 131.193007 
L 73.42093 131.323134 
L 74.502326 131.723953 
L 75.583721 132.685467 
L 76.665116 134.481813 
L 77.746512 137.09548 
L 78.827907 140.057153 
L 79.909302 142.670821 
L 80.990698 144.467166 
L 82.072093 145.428681 
L 83.153488 145.8295 
L 85.316279 145.992528 
L 104.781395 146 
L 116.676744 145.943303 
L 117.75814 145.693659 
L 118.839535 144.706295 
L 119.92093 141.665 
L 121.002326 134.369314 
L 122.083721 120.739177 
L 123.165116 100.907445 
L 124.246512 78.435148 
L 125.327907 58.603416 
L 126.409302 44.97328 
L 127.490698 37.677593 
L 128.572093 34.636298 
L 129.653488 33.648935 
L 130.734884 33.39929 
L 133.97907 33.342593 
L 162.095349 33.39929 
L 163.176744 33.648935 
L 164.25814 34.636298 
L 165.339535 37.677593 
L 166.42093 44.97328 
L 167.502326 58.603416 
L 168.583721 78.435148 
L 169.665116 100.907445 
L 170.746512 120.739177 
L 171.827907 134.369314 
L 172.909302 141.665 
L 173.990698 144.706295 
L 175.072093 145.693659 
L 176.153488 145.943303 
L 179.397674 146 
L 207.513953 145.934614 
L 208.595349 145.646706 
L 209.676744 144.508011 
L 210.75814 141.000582 
L 211.839535 132.586697 
L 212.92093 116.867491 
L 214.002326 93.996181 
L 215.083721 68.079592 
L 216.165116 45.208282 
L 217.246512 29.489076 
L 218.327907 21.075191 
L 219.409302 17.567762 
L 220.490698 16.429066 
L 221.572093 16.141159 
L 224.816279 16.075773 
L 252.932558 16.141159 
L 254.013953 16.429066 
L 255.095349 17.567762 
L 256.176744 21.075191 
L 257.25814 29.489076 
L 258.339535 45.208282 
L 259.42093 68.079592 
L 260.502326 93.996181 
L 261.583721 116.867491 
L 262.665116 132.586697 
L 263.746512 141.000582 
L 264.827907 144.508011 
L 265.909302 145.646706 
L 266.990698 145.934614 
L 270.234884 146 
L 301.4 146 
L 301.4 146 
" style="fill:none;stroke:#b2b2b2;stroke-linecap:square;stroke-width:1.5;"/>
   </g>
   <g id="line2d_15">
    <path clip-path="url(#p44cdb913bc)" d="M -1 146 
L 28.002326 145.962708 
L 29.083721 145.87504 
L 30.165116 145.664737 
L 31.246512 145.271837 
L 35.572093 143.087827 
L 36.653488 142.877524 
L 38.816279 142.761395 
L 56.118605 142.752564 
L 73.42093 142.789856 
L 74.502326 142.877524 
L 75.583721 143.087827 
L 76.665116 143.480727 
L 80.990698 145.664737 
L 82.072093 145.87504 
L 84.234884 145.991169 
L 101.537209 146 
L 116.676744 145.966973 
L 117.75814 145.821549 
L 118.839535 145.246385 
L 119.92093 143.474756 
L 121.002326 139.224838 
L 122.083721 131.284947 
L 123.165116 119.732473 
L 124.246512 106.641806 
L 125.327907 95.089332 
L 126.409302 87.149441 
L 127.490698 82.899523 
L 128.572093 81.127894 
L 129.653488 80.55273 
L 130.734884 80.407306 
L 136.14186 80.374279 
L 162.095349 80.407306 
L 163.176744 80.55273 
L 164.25814 81.127894 
L 165.339535 82.899523 
L 166.42093 87.149441 
L 167.502326 95.089332 
L 168.583721 106.641806 
L 169.665116 119.732473 
L 170.746512 131.284947 
L 171.827907 139.224838 
L 172.909302 143.474756 
L 173.990698 145.246385 
L 175.072093 145.821549 
L 176.153488 145.966973 
L 181.560465 146 
L 207.513953 145.939302 
L 208.595349 145.672036 
L 209.676744 144.61498 
L 210.75814 141.359019 
L 211.839535 133.548374 
L 212.92093 118.956167 
L 214.002326 97.724632 
L 215.083721 73.666151 
L 216.165116 52.434616 
L 217.246512 37.84241 
L 218.327907 30.031765 
L 219.409302 26.775804 
L 220.490698 25.718748 
L 221.572093 25.451482 
L 224.816279 25.390784 
L 252.932558 25.451482 
L 254.013953 25.718748 
L 255.095349 26.775804 
L 256.176744 30.031765 
L 257.25814 37.84241 
L 258.339535 52.434616 
L 259.42093 73.666151 
L 260.502326 97.724632 
L 261.583721 118.956167 
L 262.665116 133.548374 
L 263.746512 141.359019 
L 264.827907 144.61498 
L 265.909302 145.672036 
L 266.990698 145.939302 
L 270.234884 146 
L 301.4 146 
L 301.4 146 
" style="fill:none;stroke:#b2b2b2;stroke-linecap:square;stroke-width:1.5;"/>
   </g>
   <g id="line2d_16">
    <path clip-path="url(#p44cdb913bc)" d="M -1 146 
L 25.839535 145.977259 
L 26.92093 145.877126 
L 28.002326 145.481095 
L 29.083721 144.26123 
L 30.165116 141.334929 
L 31.246512 135.867877 
L 32.327907 127.913364 
L 33.409302 118.899719 
L 34.490698 110.945206 
L 35.572093 105.478154 
L 36.653488 102.551853 
L 37.734884 101.331988 
L 38.816279 100.935957 
L 40.97907 100.816107 
L 71.25814 100.835824 
L 72.339535 100.935957 
L 73.42093 101.331988 
L 74.502326 102.551853 
L 75.583721 105.478154 
L 76.665116 110.945206 
L 77.746512 118.899719 
L 78.827907 127.913364 
L 79.909302 135.867877 
L 80.990698 141.334929 
L 82.072093 144.26123 
L 83.153488 145.481095 
L 84.234884 145.877126 
L 86.397674 145.996976 
L 115.595349 145.991512 
L 116.676744 145.936166 
L 117.75814 145.655093 
L 118.839535 144.543428 
L 119.92093 141.119258 
L 121.002326 132.905103 
L 122.083721 117.55904 
L 123.165116 95.23065 
L 124.246512 69.92927 
L 125.327907 47.60088 
L 126.409302 32.254817 
L 127.490698 24.040661 
L 128.572093 20.616492 
L 129.653488 19.504827 
L 130.734884 19.223754 
L 133.97907 19.15992 
L 162.095349 19.223754 
L 163.176744 19.504827 
L 164.25814 20.616492 
L 165.339535 24.040661 
L 166.42093 32.254817 
L 167.502326 47.60088 
L 168.583721 69.92927 
L 169.665116 95.23065 
L 170.746512 117.55904 
L 171.827907 132.905103 
L 172.909302 141.119258 
L 173.990698 144.543428 
L 175.072093 145.655093 
L 176.153488 145.936166 
L 179.397674 146 
L 207.513953 145.933819 
L 208.595349 145.642415 
L 209.676744 144.489887 
L 210.75814 140.939852 
L 211.839535 132.42376 
L 212.92093 116.513607 
L 214.002326 93.36447 
L 215.083721 67.133061 
L 216.165116 43.983924 
L 217.246512 28.07377 
L 218.327907 19.557678 
L 219.409302 16.007643 
L 220.490698 14.855116 
L 221.572093 14.563711 
L 224.816279 14.49753 
L 252.932558 14.563711 
L 254.013953 14.855116 
L 255.095349 16.007643 
L 256.176744 19.557678 
L 257.25814 28.07377 
L 258.339535 43.983924 
L 259.42093 67.133061 
L 260.502326 93.36447 
L 261.583721 116.513607 
L 262.665116 132.42376 
L 263.746512 140.939852 
L 264.827907 144.489887 
L 265.909302 145.642415 
L 266.990698 145.933819 
L 270.234884 146 
L 301.4 146 
L 301.4 146 
" style="fill:none;stroke:#b2b2b2;stroke-linecap:square;stroke-width:1.5;"/>
   </g>
   <g id="line2d_17">
    <path clip-path="url(#p44cdb913bc)" d="M -1 146 
L 29.083721 145.920679 
L 30.165116 145.787184 
L 32.327907 145.174905 
L 34.490698 144.400835 
L 35.572093 144.151433 
L 37.734884 143.962289 
L 45.304651 143.938617 
L 74.502326 144.017938 
L 75.583721 144.151433 
L 77.746512 144.763712 
L 79.909302 145.537782 
L 80.990698 145.787184 
L 83.153488 145.976328 
L 90.723256 146 
L 116.676744 145.976624 
L 117.75814 145.873693 
L 118.839535 145.466594 
L 119.92093 144.212642 
L 121.002326 141.204568 
L 122.083721 135.584745 
L 123.165116 127.407951 
L 124.246512 118.142429 
L 125.327907 109.965635 
L 126.409302 104.345812 
L 127.490698 101.337737 
L 128.572093 100.083785 
L 129.653488 99.676687 
L 131.816279 99.553488 
L 162.095349 99.573756 
L 163.176744 99.676687 
L 164.25814 100.083785 
L 165.339535 101.337737 
L 166.42093 104.345812 
L 167.502326 109.965635 
L 168.583721 118.142429 
L 169.665116 127.407951 
L 170.746512 135.584745 
L 171.827907 141.204568 
L 172.909302 144.212642 
L 173.990698 145.466594 
L 175.072093 145.873693 
L 177.234884 145.996892 
L 206.432558 145.992467 
L 207.513953 145.943346 
L 208.595349 145.69389 
L 209.676744 144.707272 
L 210.75814 141.668273 
L 211.839535 134.378094 
L 212.92093 120.758246 
L 214.002326 100.941485 
L 215.083721 78.486153 
L 216.165116 58.669391 
L 217.246512 45.049544 
L 218.327907 37.759365 
L 219.409302 34.720366 
L 220.490698 33.733748 
L 221.572093 33.484291 
L 224.816279 33.427638 
L 252.932558 33.484291 
L 254.013953 33.733748 
L 255.095349 34.720366 
L 256.176744 37.759365 
L 257.25814 45.049544 
L 258.339535 58.669391 
L 259.42093 78.486153 
L 260.502326 100.941485 
L 261.583721 120.758246 
L 262.665116 134.378094 
L 263.746512 141.668273 
L 264.827907 144.707272 
L 265.909302 145.69389 
L 266.990698 145.943346 
L 270.234884 146 
L 301.4 146 
L 301.4 146 
" style="fill:none;stroke:#b2b2b2;stroke-linecap:square;stroke-width:1.5;"/>
   </g>
   <g id="line2d_18">
    <path clip-path="url(#p44cdb913bc)" d="M -1 146 
L 28.002326 145.939552 
L 29.083721 145.797449 
L 30.165116 145.456561 
L 31.246512 144.819699 
L 34.490698 141.916432 
L 35.572093 141.279569 
L 36.653488 140.938682 
L 38.816279 140.750444 
L 49.630233 140.736131 
L 73.42093 140.796578 
L 74.502326 140.938682 
L 75.583721 141.279569 
L 76.665116 141.916432 
L 79.909302 144.819699 
L 80.990698 145.456561 
L 82.072093 145.797449 
L 84.234884 145.985686 
L 95.048837 146 
L 116.676744 145.957588 
L 117.75814 145.770842 
L 118.839535 145.032247 
L 119.92093 142.757212 
L 121.002326 137.299689 
L 122.083721 127.103693 
L 123.165116 112.268607 
L 124.246512 95.458251 
L 125.327907 80.623165 
L 126.409302 70.427169 
L 127.490698 64.969645 
L 128.572093 62.694611 
L 129.653488 61.956016 
L 130.734884 61.76927 
L 135.060465 61.726858 
L 162.095349 61.76927 
L 163.176744 61.956016 
L 164.25814 62.694611 
L 165.339535 64.969645 
L 166.42093 70.427169 
L 167.502326 80.623165 
L 168.583721 95.458251 
L 169.665116 112.268607 
L 170.746512 127.103693 
L 171.827907 137.299689 
L 172.909302 142.757212 
L 173.990698 145.032247 
L 175.072093 145.770842 
L 176.153488 145.957588 
L 180.47907 146 
L 207.513953 145.9369 
L 208.595349 145.659059 
L 209.676744 144.560176 
L 210.75814 141.17538 
L 211.839535 133.055675 
L 212.92093 117.886068 
L 214.002326 95.814422 
L 215.083721 70.80397 
L 216.165116 48.732323 
L 217.246512 33.562717 
L 218.327907 25.443012 
L 219.409302 22.058215 
L 220.490698 20.959333 
L 221.572093 20.681492 
L 224.816279 20.618392 
L 252.932558 20.681492 
L 254.013953 20.959333 
L 255.095349 22.058215 
L 256.176744 25.443012 
L 257.25814 33.562717 
L 258.339535 48.732323 
L 259.42093 70.80397 
L 260.502326 95.814422 
L 261.583721 117.886068 
L 262.665116 133.055675 
L 263.746512 141.17538 
L 264.827907 144.560176 
L 265.909302 145.659059 
L 266.990698 145.9369 
L 270.234884 146 
L 301.4 146 
L 301.4 146 
" style="fill:none;stroke:#b2b2b2;stroke-linecap:square;stroke-width:1.5;"/>
   </g>
   <g id="line2d_19">
    <path clip-path="url(#p44cdb913bc)" d="M -1 146 
L 29.083721 145.908214 
L 30.165116 145.753739 
L 31.246512 145.465144 
L 35.572093 143.860926 
L 37.734884 143.642057 
L 44.223256 143.614665 
L 74.502326 143.706452 
L 75.583721 143.860926 
L 76.665116 144.149521 
L 80.990698 145.753739 
L 83.153488 145.972608 
L 89.64186 146 
L 116.676744 145.973494 
L 117.75814 145.856783 
L 118.839535 145.395184 
L 119.92093 143.973357 
L 121.002326 140.562573 
L 122.083721 134.190388 
L 123.165116 124.918914 
L 124.246512 114.412958 
L 125.327907 105.141484 
L 126.409302 98.769299 
L 127.490698 95.358515 
L 128.572093 93.936688 
L 129.653488 93.475089 
L 131.816279 93.335396 
L 161.013953 93.335396 
L 163.176744 93.475089 
L 164.25814 93.936688 
L 165.339535 95.358515 
L 166.42093 98.769299 
L 167.502326 105.141484 
L 168.583721 114.412958 
L 169.665116 124.918914 
L 170.746512 134.190388 
L 171.827907 140.562573 
L 172.909302 143.973357 
L 173.990698 145.395184 
L 175.072093 145.856783 
L 177.234884 145.996476 
L 206.432558 145.992258 
L 207.513953 145.941775 
L 208.595349 145.685402 
L 209.676744 144.671426 
L 210.75814 141.54816 
L 211.839535 134.055833 
L 212.92093 120.058324 
L 214.002326 99.692069 
L 215.083721 76.614079 
L 216.165116 56.247824 
L 217.246512 42.250315 
L 218.327907 34.757989 
L 219.409302 31.634723 
L 220.490698 30.620746 
L 221.572093 30.364373 
L 224.816279 30.306148 
L 252.932558 30.364373 
L 254.013953 30.620746 
L 255.095349 31.634723 
L 256.176744 34.757989 
L 257.25814 42.250315 
L 258.339535 56.247824 
L 259.42093 76.614079 
L 260.502326 99.692069 
L 261.583721 120.058324 
L 262.665116 134.055833 
L 263.746512 141.54816 
L 264.827907 144.671426 
L 265.909302 145.685402 
L 266.990698 145.941775 
L 270.234884 146 
L 301.4 146 
L 301.4 146 
" style="fill:none;stroke:#b2b2b2;stroke-linecap:square;stroke-width:1.5;"/>
   </g>
   <g id="line2d_20">
    <path clip-path="url(#p44cdb913bc)" d="M -1 146 
L 28.002326 145.912539 
L 29.083721 145.706931 
L 30.165116 145.213703 
L 31.246512 144.292232 
L 32.327907 142.9515 
L 34.490698 140.09152 
L 35.572093 139.17005 
L 36.653488 138.676822 
L 37.734884 138.471214 
L 39.897674 138.387586 
L 71.25814 138.387586 
L 73.42093 138.471214 
L 74.502326 138.676822 
L 75.583721 139.17005 
L 76.665116 140.09152 
L 77.746512 141.432252 
L 79.909302 144.292232 
L 80.990698 145.213703 
L 82.072093 145.706931 
L 83.153488 145.912539 
L 85.316279 145.996167 
L 115.595349 145.993552 
L 116.676744 145.951504 
L 117.75814 145.737966 
L 118.839535 144.893409 
L 119.92093 142.291989 
L 121.002326 136.051508 
L 122.083721 124.392755 
L 123.165116 107.429368 
L 124.246512 88.207333 
L 125.327907 71.243947 
L 126.409302 59.585193 
L 127.490698 53.344712 
L 128.572093 50.743292 
L 129.653488 49.898735 
L 130.734884 49.685198 
L 133.97907 49.636701 
L 162.095349 49.685198 
L 163.176744 49.898735 
L 164.25814 50.743292 
L 165.339535 53.344712 
L 166.42093 59.585193 
L 167.502326 71.243947 
L 168.583721 88.207333 
L 169.665116 107.429368 
L 170.746512 124.392755 
L 171.827907 136.051508 
L 172.909302 142.291989 
L 173.990698 144.893409 
L 175.072093 145.737966 
L 176.153488 145.951504 
L 179.397674 146 
L 207.513953 145.935781 
L 208.595349 145.653012 
L 209.676744 144.534642 
L 210.75814 141.089819 
L 211.839535 132.826119 
L 212.92093 117.387493 
L 214.002326 94.924426 
L 215.083721 69.470435 
L 216.165116 47.007368 
L 217.246512 31.568742 
L 218.327907 23.305042 
L 219.409302 19.860219 
L 220.490698 18.741848 
L 221.572093 18.45908 
L 224.816279 18.394861 
L 252.932558 18.45908 
L 254.013953 18.741848 
L 255.095349 19.860219 
L 256.176744 23.305042 
L 257.25814 31.568742 
L 258.339535 47.007368 
L 259.42093 69.470435 
L 260.502326 94.924426 
L 261.583721 117.387493 
L 262.665116 132.826119 
L 263.746512 141.089819 
L 264.827907 144.534642 
L 265.909302 145.653012 
L 266.990698 145.935781 
L 270.234884 146 
L 301.4 146 
L 301.4 146 
" style="fill:none;stroke:#b2b2b2;stroke-linecap:square;stroke-width:1.5;"/>
   </g>
   <g id="line2d_21">
    <path clip-path="url(#p44cdb913bc)" d="M -1 146 
L 26.92093 145.960248 
L 28.002326 145.832125 
L 29.083721 145.437477 
L 30.165116 144.490765 
L 31.246512 142.722075 
L 32.327907 140.148645 
L 33.409302 137.232568 
L 34.490698 134.659139 
L 35.572093 132.890449 
L 36.653488 131.943737 
L 37.734884 131.549089 
L 39.897674 131.388571 
L 59.362791 131.381214 
L 72.339535 131.420966 
L 73.42093 131.549089 
L 74.502326 131.943737 
L 75.583721 132.890449 
L 76.665116 134.659139 
L 77.746512 137.232568 
L 78.827907 140.148645 
L 79.909302 142.722075 
L 80.990698 144.490765 
L 82.072093 145.437477 
L 83.153488 145.832125 
L 85.316279 145.992643 
L 104.781395 146 
L 116.676744 145.943455 
L 117.75814 145.694477 
L 118.839535 144.70975 
L 119.92093 141.676577 
L 121.002326 134.400373 
L 122.083721 120.806636 
L 123.165116 101.027864 
L 124.246512 78.615579 
L 125.327907 58.836807 
L 126.409302 45.243069 
L 127.490698 37.966866 
L 128.572093 34.933693 
L 129.653488 33.948966 
L 130.734884 33.699988 
L 133.97907 33.643443 
L 162.095349 33.699988 
L 163.176744 33.948966 
L 164.25814 34.933693 
L 165.339535 37.966866 
L 166.42093 45.243069 
L 167.502326 58.836807 
L 168.583721 78.615579 
L 169.665116 101.027864 
L 170.746512 120.806636 
L 171.827907 134.400373 
L 172.909302 141.676577 
L 173.990698 144.70975 
L 175.072093 145.694477 
L 176.153488 145.943455 
L 179.397674 146 
L 207.513953 145.934632 
L 208.595349 145.646808 
L 209.676744 144.50844 
L 210.75814 141.002019 
L 211.839535 132.590553 
L 212.92093 116.875866 
L 214.002326 94.011131 
L 215.083721 68.101992 
L 216.165116 45.237257 
L 217.246512 29.52257 
L 218.327907 21.111104 
L 219.409302 17.604683 
L 220.490698 16.466315 
L 221.572093 16.178491 
L 224.816279 16.113123 
L 252.932558 16.178491 
L 254.013953 16.466315 
L 255.095349 17.604683 
L 256.176744 21.111104 
L 257.25814 29.52257 
L 258.339535 45.237257 
L 259.42093 68.101992 
L 260.502326 94.011131 
L 261.583721 116.875866 
L 262.665116 132.590553 
L 263.746512 141.002019 
L 264.827907 144.50844 
L 265.909302 145.646808 
L 266.990698 145.934632 
L 270.234884 146 
L 301.4 146 
L 301.4 146 
" style="fill:none;stroke:#b2b2b2;stroke-linecap:square;stroke-width:1.5;"/>
   </g>
   <g id="line2d_22">
    <path clip-path="url(#p44cdb913bc)" d="M -1 146 
L 25.839535 145.952526 
L 26.92093 145.743489 
L 28.002326 144.916733 
L 29.083721 142.370143 
L 30.165116 136.261194 
L 31.246512 124.848173 
L 32.327907 108.242326 
L 33.409302 89.425435 
L 34.490698 72.819588 
L 35.572093 61.406567 
L 36.653488 55.297618 
L 37.734884 52.751028 
L 38.816279 51.924272 
L 39.897674 51.715235 
L 43.14186 51.667761 
L 71.25814 51.715235 
L 72.339535 51.924272 
L 73.42093 52.751028 
L 74.502326 55.297618 
L 75.583721 61.406567 
L 76.665116 72.819588 
L 77.746512 89.425435 
L 78.827907 108.242326 
L 79.909302 124.848173 
L 80.990698 136.261194 
L 82.072093 142.370143 
L 83.153488 144.916733 
L 84.234884 145.743489 
L 85.316279 145.952526 
L 88.560465 146 
L 116.676744 145.934122 
L 117.75814 145.644051 
L 118.839535 144.496797 
L 119.92093 140.963006 
L 121.002326 132.485882 
L 122.083721 116.648529 
L 123.165116 93.605317 
L 124.246512 67.493937 
L 125.327907 44.450725 
L 126.409302 28.613373 
L 127.490698 20.136249 
L 128.572093 16.602458 
L 129.653488 15.455204 
L 130.734884 15.165133 
L 133.97907 15.099255 
L 162.095349 15.165133 
L 163.176744 15.455204 
L 164.25814 16.602458 
L 165.339535 20.136249 
L 166.42093 28.613373 
L 167.502326 44.450725 
L 168.583721 67.493937 
L 169.665116 93.605317 
L 170.746512 116.648529 
L 171.827907 132.485882 
L 172.909302 140.963006 
L 173.990698 144.496797 
L 175.072093 145.644051 
L 176.153488 145.934122 
L 179.397674 146 
L 207.513953 145.933621 
L 208.595349 145.641342 
L 209.676744 144.485356 
L 210.75814 140.924671 
L 211.839535 132.383029 
L 212.92093 116.425142 
L 214.002326 93.206553 
L 215.083721 66.896445 
L 216.165116 43.677857 
L 217.246512 27.71997 
L 218.327907 19.178328 
L 219.409302 15.617642 
L 220.490698 14.461657 
L 221.572093 14.169378 
L 224.816279 14.102999 
L 252.932558 14.169378 
L 254.013953 14.461657 
L 255.095349 15.617642 
L 256.176744 19.178328 
L 257.25814 27.71997 
L 258.339535 43.677857 
L 259.42093 66.896445 
L 260.502326 93.206553 
L 261.583721 116.425142 
L 262.665116 132.383029 
L 263.746512 140.924671 
L 264.827907 144.485356 
L 265.909302 145.641342 
L 266.990698 145.933621 
L 270.234884 146 
L 301.4 146 
L 301.4 146 
" style="fill:none;stroke:#b2b2b2;stroke-linecap:square;stroke-width:1.5;"/>
   </g>
   <g id="line2d_23">
    <path clip-path="url(#p44cdb913bc)" d="M -1 146 
L 28.002326 145.931983 
L 29.083721 145.772085 
L 30.165116 145.38851 
L 31.246512 144.671897 
L 34.490698 141.405071 
L 35.572093 140.688459 
L 36.653488 140.304883 
L 38.816279 140.093074 
L 48.548837 140.076968 
L 73.42093 140.144985 
L 74.502326 140.304883 
L 75.583721 140.688459 
L 76.665116 141.405071 
L 79.909302 144.671897 
L 80.990698 145.38851 
L 82.072093 145.772085 
L 84.234884 145.983894 
L 93.967442 146 
L 116.676744 145.955529 
L 117.75814 145.759714 
L 118.839535 144.985251 
L 119.92093 142.599739 
L 121.002326 136.877193 
L 122.083721 126.186068 
L 123.165116 110.630574 
L 124.246512 93.00389 
L 125.327907 77.448396 
L 126.409302 66.757272 
L 127.490698 61.034726 
L 128.572093 58.649213 
L 129.653488 57.874751 
L 130.734884 57.678936 
L 135.060465 57.634465 
L 162.095349 57.678936 
L 163.176744 57.874751 
L 164.25814 58.649213 
L 165.339535 61.034726 
L 166.42093 66.757272 
L 167.502326 77.448396 
L 168.583721 93.00389 
L 169.665116 110.630574 
L 170.746512 126.186068 
L 171.827907 136.877193 
L 172.909302 142.599739 
L 173.990698 144.985251 
L 175.072093 145.759714 
L 176.153488 145.955529 
L 180.47907 146 
L 207.513953 145.936491 
L 208.595349 145.65685 
L 209.676744 144.55085 
L 210.75814 141.14413 
L 211.839535 132.971834 
L 212.92093 117.703974 
L 214.002326 95.489368 
L 215.083721 70.316922 
L 216.165116 48.102317 
L 217.246512 32.834457 
L 218.327907 24.66216 
L 219.409302 21.25544 
L 220.490698 20.14944 
L 221.572093 19.8698 
L 224.816279 19.806291 
L 252.932558 19.8698 
L 254.013953 20.14944 
L 255.095349 21.25544 
L 256.176744 24.66216 
L 257.25814 32.834457 
L 258.339535 48.102317 
L 259.42093 70.316922 
L 260.502326 95.489368 
L 261.583721 117.703974 
L 262.665116 132.971834 
L 263.746512 141.14413 
L 264.827907 144.55085 
L 265.909302 145.65685 
L 266.990698 145.936491 
L 270.234884 146 
L 301.4 146 
L 301.4 146 
" style="fill:none;stroke:#b2b2b2;stroke-linecap:square;stroke-width:1.5;"/>
   </g>
   <g id="line2d_24">
    <path clip-path="url(#p44cdb913bc)" d="M -1 146 
L 28.002326 145.907896 
L 29.083721 145.691374 
L 30.165116 145.171964 
L 31.246512 144.201579 
L 32.327907 142.789676 
L 34.490698 139.777879 
L 35.572093 138.807494 
L 36.653488 138.288084 
L 37.734884 138.071562 
L 39.897674 137.983494 
L 71.25814 137.983494 
L 73.42093 138.071562 
L 74.502326 138.288084 
L 75.583721 138.807494 
L 76.665116 139.777879 
L 77.746512 141.189782 
L 79.909302 144.201579 
L 80.990698 145.171964 
L 82.072093 145.691374 
L 83.153488 145.907896 
L 85.316279 145.995964 
L 115.595349 145.99345 
L 116.676744 145.95074 
L 117.75814 145.733837 
L 118.839535 144.875972 
L 119.92093 142.233561 
L 121.002326 135.894745 
L 122.083721 124.052279 
L 123.165116 106.821593 
L 124.246512 87.296668 
L 125.327907 70.065982 
L 126.409302 58.223516 
L 127.490698 51.884701 
L 128.572093 49.242289 
L 129.653488 48.384424 
L 130.734884 48.167522 
L 133.97907 48.118261 
L 162.095349 48.167522 
L 163.176744 48.384424 
L 164.25814 49.242289 
L 165.339535 51.884701 
L 166.42093 58.223516 
L 167.502326 70.065982 
L 168.583721 87.296668 
L 169.665116 106.821593 
L 170.746512 124.052279 
L 171.827907 135.894745 
L 172.909302 142.233561 
L 173.990698 144.875972 
L 175.072093 145.733837 
L 176.153488 145.95074 
L 179.397674 146 
L 207.513953 145.935657 
L 208.595349 145.652346 
L 209.676744 144.531829 
L 210.75814 141.080394 
L 211.839535 132.80083 
L 212.92093 117.332569 
L 214.002326 94.826383 
L 215.083721 69.323532 
L 216.165116 46.817345 
L 217.246512 31.349084 
L 218.327907 23.06952 
L 219.409302 19.618085 
L 220.490698 18.497568 
L 221.572093 18.214257 
L 224.816279 18.149914 
L 252.932558 18.214257 
L 254.013953 18.497568 
L 255.095349 19.618085 
L 256.176744 23.06952 
L 257.25814 31.349084 
L 258.339535 46.817345 
L 259.42093 69.323532 
L 260.502326 94.826383 
L 261.583721 117.332569 
L 262.665116 132.80083 
L 263.746512 141.080394 
L 264.827907 144.531829 
L 265.909302 145.652346 
L 266.990698 145.935657 
L 270.234884 146 
L 301.4 146 
L 301.4 146 
" style="fill:none;stroke:#b2b2b2;stroke-linecap:square;stroke-width:1.5;"/>
   </g>
   <g id="line2d_25">
    <path clip-path="url(#p44cdb913bc)" d="M -1 146 
L 26.92093 145.932035 
L 28.002326 145.712976 
L 29.083721 145.038229 
L 30.165116 143.419594 
L 31.246512 140.395585 
L 32.327907 135.995679 
L 33.409302 131.009932 
L 34.490698 126.610026 
L 35.572093 123.586018 
L 36.653488 121.967383 
L 37.734884 121.292635 
L 38.816279 121.073577 
L 42.060465 121.005611 
L 72.339535 121.073577 
L 73.42093 121.292635 
L 74.502326 121.967383 
L 75.583721 123.586018 
L 76.665116 126.610026 
L 77.746512 131.009932 
L 78.827907 135.995679 
L 79.909302 140.395585 
L 80.990698 143.419594 
L 82.072093 145.038229 
L 83.153488 145.712976 
L 84.234884 145.932035 
L 87.47907 146 
L 116.676744 145.939145 
L 117.75814 145.67119 
L 118.839535 144.611405 
L 119.92093 141.34704 
L 121.002326 133.516236 
L 122.083721 118.886367 
L 123.165116 97.600034 
L 124.246512 73.479458 
L 125.327907 52.193124 
L 126.409302 37.563256 
L 127.490698 29.732451 
L 128.572093 26.468086 
L 129.653488 25.408302 
L 130.734884 25.140347 
L 133.97907 25.079491 
L 162.095349 25.140347 
L 163.176744 25.408302 
L 164.25814 26.468086 
L 165.339535 29.732451 
L 166.42093 37.563256 
L 167.502326 52.193124 
L 168.583721 73.479458 
L 169.665116 97.600034 
L 170.746512 118.886367 
L 171.827907 133.516236 
L 172.909302 141.34704 
L 173.990698 144.611405 
L 175.072093 145.67119 
L 176.153488 145.939145 
L 179.397674 146 
L 207.513953 145.93413 
L 208.595349 145.644095 
L 209.676744 144.496984 
L 210.75814 140.963634 
L 211.839535 132.487567 
L 212.92093 116.652189 
L 214.002326 93.61185 
L 215.083721 67.503725 
L 216.165116 44.463386 
L 217.246512 28.628008 
L 218.327907 20.151941 
L 219.409302 16.61859 
L 220.490698 15.471479 
L 221.572093 15.181444 
L 224.816279 15.115574 
L 252.932558 15.181444 
L 254.013953 15.471479 
L 255.095349 16.61859 
L 256.176744 20.151941 
L 257.25814 28.628008 
L 258.339535 44.463386 
L 259.42093 67.503725 
L 260.502326 93.61185 
L 261.583721 116.652189 
L 262.665116 132.487567 
L 263.746512 140.963634 
L 264.827907 144.496984 
L 265.909302 145.644095 
L 266.990698 145.93413 
L 270.234884 146 
L 301.4 146 
L 301.4 146 
" style="fill:none;stroke:#b2b2b2;stroke-linecap:square;stroke-width:1.5;"/>
   </g>
   <g id="line2d_26">
    <path clip-path="url(#p44cdb913bc)" d="M -1 146 
L 25.839535 145.964055 
L 26.92093 145.805782 
L 28.002326 145.179802 
L 29.083721 143.251648 
L 30.165116 138.626245 
L 31.246512 129.984856 
L 32.327907 117.411709 
L 33.409302 103.164467 
L 34.490698 90.591319 
L 35.572093 81.94993 
L 36.653488 77.324528 
L 37.734884 75.396373 
L 38.816279 74.770393 
L 39.897674 74.61212 
L 44.223256 74.576175 
L 71.25814 74.61212 
L 72.339535 74.770393 
L 73.42093 75.396373 
L 74.502326 77.324528 
L 75.583721 81.94993 
L 76.665116 90.591319 
L 77.746512 103.164467 
L 78.827907 117.411709 
L 79.909302 129.984856 
L 80.990698 138.626245 
L 82.072093 143.251648 
L 83.153488 145.179802 
L 84.234884 145.805782 
L 85.316279 145.964055 
L 89.64186 146 
L 116.676744 145.934735 
L 117.75814 145.647364 
L 118.839535 144.510789 
L 119.92093 141.009891 
L 121.002326 132.611675 
L 122.083721 116.92174 
L 123.165116 94.093019 
L 124.246512 68.22469 
L 125.327907 45.39597 
L 126.409302 29.706035 
L 127.490698 21.307818 
L 128.572093 17.80692 
L 129.653488 16.670345 
L 130.734884 16.382974 
L 133.97907 16.31771 
L 162.095349 16.382974 
L 163.176744 16.670345 
L 164.25814 17.80692 
L 165.339535 21.307818 
L 166.42093 29.706035 
L 167.502326 45.39597 
L 168.583721 68.22469 
L 169.665116 94.093019 
L 170.746512 116.92174 
L 171.827907 132.611675 
L 172.909302 141.009891 
L 173.990698 144.510789 
L 175.072093 145.647364 
L 176.153488 145.934735 
L 179.397674 146 
L 207.513953 145.933679 
L 208.595349 145.641657 
L 209.676744 144.486689 
L 210.75814 140.929135 
L 211.839535 132.395007 
L 212.92093 116.451158 
L 214.002326 93.252993 
L 215.083721 66.966029 
L 216.165116 43.767865 
L 217.246512 27.824015 
L 218.327907 19.289888 
L 219.409302 15.732334 
L 220.490698 14.577365 
L 221.572093 14.285344 
L 224.816279 14.219023 
L 252.932558 14.285344 
L 254.013953 14.577365 
L 255.095349 15.732334 
L 256.176744 19.289888 
L 257.25814 27.824015 
L 258.339535 43.767865 
L 259.42093 66.966029 
L 260.502326 93.252993 
L 261.583721 116.451158 
L 262.665116 132.395007 
L 263.746512 140.929135 
L 264.827907 144.486689 
L 265.909302 145.641657 
L 266.990698 145.933679 
L 270.234884 146 
L 301.4 146 
L 301.4 146 
" style="fill:none;stroke:#b2b2b2;stroke-linecap:square;stroke-width:1.5;"/>
   </g>
   <g id="line2d_27">
    <path clip-path="url(#p44cdb913bc)" d="M -1 146 
L 28.002326 145.964656 
L 29.083721 145.881566 
L 30.165116 145.682246 
L 31.246512 145.309866 
L 35.572093 143.239918 
L 36.653488 143.040597 
L 38.816279 142.930533 
L 57.2 142.922164 
L 73.42093 142.957508 
L 74.502326 143.040597 
L 75.583721 143.239918 
L 76.665116 143.612297 
L 80.990698 145.682246 
L 82.072093 145.881566 
L 84.234884 145.991631 
L 102.618605 146 
L 116.676744 145.968088 
L 117.75814 145.827574 
L 118.839535 145.27183 
L 119.92093 143.560019 
L 121.002326 139.453596 
L 122.083721 131.781789 
L 123.165116 120.619376 
L 124.246512 107.970705 
L 125.327907 96.808292 
L 126.409302 89.136485 
L 127.490698 85.030062 
L 128.572093 83.318251 
L 129.653488 82.762507 
L 130.734884 82.621993 
L 136.14186 82.590081 
L 162.095349 82.621993 
L 163.176744 82.762507 
L 164.25814 83.318251 
L 165.339535 85.030062 
L 166.42093 89.136485 
L 167.502326 96.808292 
L 168.583721 107.970705 
L 169.665116 120.619376 
L 170.746512 131.781789 
L 171.827907 139.453596 
L 172.909302 143.560019 
L 173.990698 145.27183 
L 175.072093 145.827574 
L 176.153488 145.968088 
L 181.560465 146 
L 207.513953 145.939665 
L 208.595349 145.674 
L 209.676744 144.623273 
L 210.75814 141.386808 
L 211.839535 133.622931 
L 212.92093 119.1181 
L 214.002326 98.013696 
L 215.083721 74.099272 
L 216.165116 52.994867 
L 217.246512 38.490036 
L 218.327907 30.72616 
L 219.409302 27.489694 
L 220.490698 26.438968 
L 221.572093 26.173303 
L 224.816279 26.112968 
L 252.932558 26.173303 
L 254.013953 26.438968 
L 255.095349 27.489694 
L 256.176744 30.72616 
L 257.25814 38.490036 
L 258.339535 52.994867 
L 259.42093 74.099272 
L 260.502326 98.013696 
L 261.583721 119.1181 
L 262.665116 133.622931 
L 263.746512 141.386808 
L 264.827907 144.623273 
L 265.909302 145.674 
L 266.990698 145.939665 
L 270.234884 146 
L 301.4 146 
L 301.4 146 
" style="fill:none;stroke:#b2b2b2;stroke-linecap:square;stroke-width:1.5;"/>
   </g>
   <g id="line2d_28">
    <path clip-path="url(#p44cdb913bc)" d="M -1 146 
L 26.92093 145.942622 
L 28.002326 145.757689 
L 29.083721 145.188055 
L 30.165116 143.821573 
L 31.246512 141.268649 
L 32.327907 137.554167 
L 33.409302 133.345108 
L 34.490698 129.630626 
L 35.572093 127.077702 
L 36.653488 125.71122 
L 37.734884 125.141586 
L 38.816279 124.956653 
L 42.060465 124.899275 
L 72.339535 124.956653 
L 73.42093 125.141586 
L 74.502326 125.71122 
L 75.583721 127.077702 
L 76.665116 129.630626 
L 77.746512 133.345108 
L 78.827907 137.554167 
L 79.909302 141.268649 
L 80.990698 143.821573 
L 82.072093 145.188055 
L 83.153488 145.757689 
L 84.234884 145.942622 
L 87.47907 146 
L 116.676744 145.940313 
L 117.75814 145.677499 
L 118.839535 144.638053 
L 119.92093 141.436331 
L 121.002326 133.755799 
L 122.083721 119.406678 
L 123.165116 98.528829 
L 124.246512 74.871127 
L 125.327907 53.993278 
L 126.409302 39.644157 
L 127.490698 31.963626 
L 128.572093 28.761904 
L 129.653488 27.722457 
L 130.734884 27.459644 
L 133.97907 27.399956 
L 162.095349 27.459644 
L 163.176744 27.722457 
L 164.25814 28.761904 
L 165.339535 31.963626 
L 166.42093 39.644157 
L 167.502326 53.993278 
L 168.583721 74.871127 
L 169.665116 98.528829 
L 170.746512 119.406678 
L 171.827907 133.755799 
L 172.909302 141.436331 
L 173.990698 144.638053 
L 175.072093 145.677499 
L 176.153488 145.940313 
L 179.397674 146 
L 207.513953 145.93426 
L 208.595349 145.644795 
L 209.676744 144.499941 
L 210.75814 140.973541 
L 211.839535 132.514147 
L 212.92093 116.709918 
L 214.002326 93.7149 
L 215.083721 67.658132 
L 216.165116 44.663114 
L 217.246512 28.858885 
L 218.327907 20.399491 
L 219.409302 16.873091 
L 220.490698 15.728236 
L 221.572093 15.438772 
L 224.816279 15.373032 
L 252.932558 15.438772 
L 254.013953 15.728236 
L 255.095349 16.873091 
L 256.176744 20.399491 
L 257.25814 28.858885 
L 258.339535 44.663114 
L 259.42093 67.658132 
L 260.502326 93.7149 
L 261.583721 116.709918 
L 262.665116 132.514147 
L 263.746512 140.973541 
L 264.827907 144.499941 
L 265.909302 145.644795 
L 266.990698 145.93426 
L 270.234884 146 
L 301.4 146 
L 301.4 146 
" style="fill:none;stroke:#b2b2b2;stroke-linecap:square;stroke-width:1.5;"/>
   </g>
   <g id="line2d_29">
    <path clip-path="url(#p44cdb913bc)" d="M -1 146 
L 26.92093 145.953724 
L 28.002326 145.804571 
L 29.083721 145.345148 
L 30.165116 144.243051 
L 31.246512 142.184061 
L 32.327907 139.188249 
L 33.409302 135.793549 
L 34.490698 132.797737 
L 35.572093 130.738747 
L 36.653488 129.636649 
L 37.734884 129.177227 
L 39.897674 128.990362 
L 57.2 128.981797 
L 72.339535 129.028074 
L 73.42093 129.177227 
L 74.502326 129.636649 
L 75.583721 130.738747 
L 76.665116 132.797737 
L 77.746512 135.793549 
L 78.827907 139.188249 
L 79.909302 142.184061 
L 80.990698 144.243051 
L 82.072093 145.345148 
L 83.153488 145.804571 
L 85.316279 145.991435 
L 102.618605 146 
L 116.676744 145.942045 
L 117.75814 145.686859 
L 118.839535 144.677577 
L 119.92093 141.568771 
L 121.002326 134.111133 
L 122.083721 120.178432 
L 123.165116 99.906471 
L 124.246512 76.93533 
L 125.327907 56.663369 
L 126.409302 42.730667 
L 127.490698 35.27303 
L 128.572093 32.164224 
L 129.653488 31.154942 
L 130.734884 30.899756 
L 133.97907 30.841801 
L 162.095349 30.899756 
L 163.176744 31.154942 
L 164.25814 32.164224 
L 165.339535 35.27303 
L 166.42093 42.730667 
L 167.502326 56.663369 
L 168.583721 76.93533 
L 169.665116 99.906471 
L 170.746512 120.178432 
L 171.827907 134.111133 
L 172.909302 141.568771 
L 173.990698 144.677577 
L 175.072093 145.686859 
L 176.153488 145.942045 
L 179.397674 146 
L 207.513953 145.934461 
L 208.595349 145.645881 
L 209.676744 144.504524 
L 210.75814 140.988896 
L 211.839535 132.555346 
L 212.92093 116.799398 
L 214.002326 93.87463 
L 215.083721 67.897464 
L 216.165116 44.972696 
L 217.246512 29.216748 
L 218.327907 20.783197 
L 219.409302 17.26757 
L 220.490698 16.126213 
L 221.572093 15.837633 
L 224.816279 15.772094 
L 252.932558 15.837633 
L 254.013953 16.126213 
L 255.095349 17.26757 
L 256.176744 20.783197 
L 257.25814 29.216748 
L 258.339535 44.972696 
L 259.42093 67.897464 
L 260.502326 93.87463 
L 261.583721 116.799398 
L 262.665116 132.555346 
L 263.746512 140.988896 
L 264.827907 144.504524 
L 265.909302 145.645881 
L 266.990698 145.934461 
L 270.234884 146 
L 301.4 146 
L 301.4 146 
" style="fill:none;stroke:#b2b2b2;stroke-linecap:square;stroke-width:1.5;"/>
   </g>
   <g id="line2d_30">
    <path clip-path="url(#p44cdb913bc)" d="M -1 146 
L 28.002326 145.94476 
L 29.083721 145.8149 
L 30.165116 145.503381 
L 31.246512 144.921387 
L 34.490698 142.268248 
L 35.572093 141.686254 
L 36.653488 141.374735 
L 38.816279 141.202715 
L 50.711628 141.189635 
L 73.42093 141.244875 
L 74.502326 141.374735 
L 75.583721 141.686254 
L 76.665116 142.268248 
L 79.909302 144.921387 
L 80.990698 145.503381 
L 82.072093 145.8149 
L 84.234884 145.98692 
L 96.130233 146 
L 116.676744 145.95923 
L 117.75814 145.77971 
L 118.839535 145.069698 
L 119.92093 142.882705 
L 121.002326 137.636383 
L 122.083721 127.834963 
L 123.165116 113.573981 
L 124.246512 97.414171 
L 125.327907 83.153188 
L 126.409302 73.351768 
L 127.490698 68.105446 
L 128.572093 65.918454 
L 129.653488 65.208441 
L 130.734884 65.028922 
L 135.060465 64.988151 
L 162.095349 65.028922 
L 163.176744 65.208441 
L 164.25814 65.918454 
L 165.339535 68.105446 
L 166.42093 73.351768 
L 167.502326 83.153188 
L 168.583721 97.414171 
L 169.665116 113.573981 
L 170.746512 127.834963 
L 171.827907 137.636383 
L 172.909302 142.882705 
L 173.990698 145.069698 
L 175.072093 145.77971 
L 176.153488 145.95923 
L 180.47907 146 
L 207.513953 145.937251 
L 208.595349 145.660956 
L 209.676744 144.56819 
L 210.75814 141.202233 
L 211.839535 133.127722 
L 212.92093 118.042549 
L 214.002326 96.093752 
L 215.083721 71.222507 
L 216.165116 49.27371 
L 217.246512 34.188538 
L 218.327907 26.114026 
L 219.409302 22.748069 
L 220.490698 21.655303 
L 221.572093 21.379009 
L 224.816279 21.31626 
L 252.932558 21.379009 
L 254.013953 21.655303 
L 255.095349 22.748069 
L 256.176744 26.114026 
L 257.25814 34.188538 
L 258.339535 49.27371 
L 259.42093 71.222507 
L 260.502326 96.093752 
L 261.583721 118.042549 
L 262.665116 133.127722 
L 263.746512 141.202233 
L 264.827907 144.56819 
L 265.909302 145.660956 
L 266.990698 145.937251 
L 270.234884 146 
L 301.4 146 
L 301.4 146 
" style="fill:none;stroke:#b2b2b2;stroke-linecap:square;stroke-width:1.5;"/>
   </g>
   <g id="line2d_31">
    <path clip-path="url(#p44cdb913bc)" d="M -1 146 
L 28.002326 145.936463 
L 29.083721 145.787099 
L 30.165116 145.428793 
L 31.246512 144.759389 
L 34.490698 141.707775 
L 35.572093 141.038371 
L 36.653488 140.680065 
L 38.816279 140.482209 
L 49.630233 140.467164 
L 73.42093 140.530701 
L 74.502326 140.680065 
L 75.583721 141.038371 
L 76.665116 141.707775 
L 79.909302 144.759389 
L 80.990698 145.428793 
L 82.072093 145.787099 
L 84.234884 145.984955 
L 95.048837 146 
L 116.676744 145.956706 
L 117.75814 145.766073 
L 118.839535 145.012105 
L 119.92093 142.689722 
L 121.002326 137.118614 
L 122.083721 126.710414 
L 123.165116 111.566572 
L 124.246512 94.406351 
L 125.327907 79.262509 
L 126.409302 68.854309 
L 127.490698 63.283201 
L 128.572093 60.960817 
L 129.653488 60.20685 
L 130.734884 60.016217 
L 135.060465 59.972923 
L 162.095349 60.016217 
L 163.176744 60.20685 
L 164.25814 60.960817 
L 165.339535 63.283201 
L 166.42093 68.854309 
L 167.502326 79.262509 
L 168.583721 94.406351 
L 169.665116 111.566572 
L 170.746512 126.710414 
L 171.827907 137.118614 
L 172.909302 142.689722 
L 173.990698 145.012105 
L 175.072093 145.766073 
L 176.153488 145.956706 
L 180.47907 146 
L 207.513953 145.93672 
L 208.595349 145.65809 
L 209.676744 144.556085 
L 210.75814 141.16167 
L 211.839535 133.018892 
L 212.92093 117.80618 
L 214.002326 95.671815 
L 215.083721 70.590293 
L 216.165116 48.455928 
L 217.246512 33.243216 
L 218.327907 25.100438 
L 219.409302 21.706023 
L 220.490698 20.604018 
L 221.572093 20.325388 
L 224.816279 20.262108 
L 252.932558 20.325388 
L 254.013953 20.604018 
L 255.095349 21.706023 
L 256.176744 25.100438 
L 257.25814 33.243216 
L 258.339535 48.455928 
L 259.42093 70.590293 
L 260.502326 95.671815 
L 261.583721 117.80618 
L 262.665116 133.018892 
L 263.746512 141.16167 
L 264.827907 144.556085 
L 265.909302 145.65809 
L 266.990698 145.93672 
L 270.234884 146 
L 301.4 146 
L 301.4 146 
" style="fill:none;stroke:#b2b2b2;stroke-linecap:square;stroke-width:1.5;"/>
   </g>
   <g id="line2d_32">
    <path clip-path="url(#p44cdb913bc)" d="M -1 146 
L 26.92093 145.972979 
L 28.002326 145.885886 
L 29.083721 145.617622 
L 30.165116 144.974091 
L 31.246512 143.771816 
L 32.327907 142.022516 
L 33.409302 140.0403 
L 34.490698 138.291 
L 35.572093 137.088725 
L 36.653488 136.445194 
L 37.734884 136.17693 
L 39.897674 136.067817 
L 68.013953 136.062816 
L 72.339535 136.089838 
L 73.42093 136.17693 
L 74.502326 136.445194 
L 75.583721 137.088725 
L 76.665116 138.291 
L 77.746512 140.0403 
L 78.827907 142.022516 
L 79.909302 143.771816 
L 80.990698 144.974091 
L 82.072093 145.617622 
L 83.153488 145.885886 
L 85.316279 145.994999 
L 113.432558 146 
L 116.676744 145.947808 
L 117.75814 145.718 
L 118.839535 144.809092 
L 119.92093 142.009456 
L 121.002326 135.293479 
L 122.083721 122.746381 
L 123.165116 104.490462 
L 124.246512 83.803796 
L 125.327907 65.547877 
L 126.409302 53.000779 
L 127.490698 46.284802 
L 128.572093 43.485166 
L 129.653488 42.576258 
L 130.734884 42.34645 
L 133.97907 42.294258 
L 162.095349 42.34645 
L 163.176744 42.576258 
L 164.25814 43.485166 
L 165.339535 46.284802 
L 166.42093 53.000779 
L 167.502326 65.547877 
L 168.583721 83.803796 
L 169.665116 104.490462 
L 170.746512 122.746381 
L 171.827907 135.293479 
L 172.909302 142.009456 
L 173.990698 144.809092 
L 175.072093 145.718 
L 176.153488 145.947808 
L 179.397674 146 
L 207.513953 145.935214 
L 208.595349 145.649953 
L 209.676744 144.52172 
L 210.75814 141.046519 
L 211.839535 132.709946 
L 212.92093 117.135177 
L 214.002326 94.474022 
L 215.083721 68.795568 
L 216.165116 46.134413 
L 217.246512 30.559644 
L 218.327907 22.22307 
L 219.409302 18.74787 
L 220.490698 17.619637 
L 221.572093 17.334375 
L 224.816279 17.26959 
L 252.932558 17.334375 
L 254.013953 17.619637 
L 255.095349 18.74787 
L 256.176744 22.22307 
L 257.25814 30.559644 
L 258.339535 46.134413 
L 259.42093 68.795568 
L 260.502326 94.474022 
L 261.583721 117.135177 
L 262.665116 132.709946 
L 263.746512 141.046519 
L 264.827907 144.52172 
L 265.909302 145.649953 
L 266.990698 145.935214 
L 270.234884 146 
L 301.4 146 
L 301.4 146 
" style="fill:none;stroke:#b2b2b2;stroke-linecap:square;stroke-width:1.5;"/>
   </g>
   <g id="line2d_33">
    <path clip-path="url(#p44cdb913bc)" d="M -1 146 
L 28.002326 145.91432 
L 29.083721 145.712899 
L 30.165116 145.229717 
L 31.246512 144.327013 
L 32.327907 143.013587 
L 34.490698 140.211854 
L 35.572093 139.30915 
L 36.653488 138.825968 
L 37.734884 138.624547 
L 40.97907 138.539366 
L 73.42093 138.624547 
L 74.502326 138.825968 
L 75.583721 139.30915 
L 76.665116 140.211854 
L 77.746512 141.52528 
L 79.909302 144.327013 
L 80.990698 145.229717 
L 82.072093 145.712899 
L 83.153488 145.91432 
L 86.397674 145.999501 
L 116.676744 145.951814 
L 117.75814 145.739642 
L 118.839535 144.900486 
L 119.92093 142.315702 
L 121.002326 136.115129 
L 122.083721 124.530933 
L 123.165116 107.676028 
L 124.246512 88.576918 
L 125.327907 71.722013 
L 126.409302 60.137817 
L 127.490698 53.937244 
L 128.572093 51.352461 
L 129.653488 50.513305 
L 130.734884 50.301133 
L 133.97907 50.252946 
L 162.095349 50.301133 
L 163.176744 50.513305 
L 164.25814 51.352461 
L 165.339535 53.937244 
L 166.42093 60.137817 
L 167.502326 71.722013 
L 168.583721 88.576918 
L 169.665116 107.676028 
L 170.746512 124.530933 
L 171.827907 136.115129 
L 172.909302 142.315702 
L 173.990698 144.900486 
L 175.072093 145.739642 
L 176.153488 145.951814 
L 179.397674 146 
L 207.513953 145.935832 
L 208.595349 145.653288 
L 209.676744 144.535806 
L 210.75814 141.09372 
L 211.839535 132.836583 
L 212.92093 117.410221 
L 214.002326 94.964997 
L 215.083721 69.531227 
L 216.165116 47.086003 
L 217.246512 31.659641 
L 218.327907 23.402504 
L 219.409302 19.960418 
L 220.490698 18.842936 
L 221.572093 18.560392 
L 224.816279 18.496224 
L 252.932558 18.560392 
L 254.013953 18.842936 
L 255.095349 19.960418 
L 256.176744 23.402504 
L 257.25814 31.659641 
L 258.339535 47.086003 
L 259.42093 69.531227 
L 260.502326 94.964997 
L 261.583721 117.410221 
L 262.665116 132.836583 
L 263.746512 141.09372 
L 264.827907 144.535806 
L 265.909302 145.653288 
L 266.990698 145.935832 
L 270.234884 146 
L 301.4 146 
L 301.4 146 
" style="fill:none;stroke:#b2b2b2;stroke-linecap:square;stroke-width:1.5;"/>
   </g>
   <g id="line2d_34">
    <path clip-path="url(#p44cdb913bc)" d="M -1 146 
L 26.92093 145.907394 
L 28.002326 145.608916 
L 29.083721 144.689541 
L 30.165116 142.484075 
L 31.246512 138.363721 
L 32.327907 132.368642 
L 33.409302 125.575327 
L 34.490698 119.580248 
L 35.572093 115.459894 
L 36.653488 113.254428 
L 37.734884 112.335053 
L 38.816279 112.036575 
L 40.97907 111.946248 
L 71.25814 111.961108 
L 72.339535 112.036575 
L 73.42093 112.335053 
L 74.502326 113.254428 
L 75.583721 115.459894 
L 76.665116 119.580248 
L 77.746512 125.575327 
L 78.827907 132.368642 
L 79.909302 138.363721 
L 80.990698 142.484075 
L 82.072093 144.689541 
L 83.153488 145.608916 
L 84.234884 145.907394 
L 86.397674 145.997721 
L 115.595349 145.991676 
L 116.676744 145.937398 
L 117.75814 145.661749 
L 118.839535 144.571539 
L 119.92093 141.213454 
L 121.002326 133.157827 
L 122.083721 118.107934 
L 123.165116 96.210469 
L 124.246512 71.397391 
L 125.327907 49.499926 
L 126.409302 34.450034 
L 127.490698 26.394406 
L 128.572093 23.036321 
L 129.653488 21.946111 
L 130.734884 21.670463 
L 133.97907 21.60786 
L 162.095349 21.670463 
L 163.176744 21.946111 
L 164.25814 23.036321 
L 165.339535 26.394406 
L 166.42093 34.450034 
L 167.502326 49.499926 
L 168.583721 71.397391 
L 169.665116 96.210469 
L 170.746512 118.107934 
L 171.827907 133.157827 
L 172.909302 141.213454 
L 173.990698 144.571539 
L 175.072093 145.661749 
L 176.153488 145.937398 
L 179.397674 146 
L 207.513953 145.933945 
L 208.595349 145.643092 
L 209.676744 144.492748 
L 210.75814 140.949438 
L 211.839535 132.449479 
L 212.92093 116.569466 
L 214.002326 93.464182 
L 215.083721 67.282466 
L 216.165116 44.177183 
L 217.246512 28.297169 
L 218.327907 19.79721 
L 219.409302 16.2539 
L 220.490698 15.103556 
L 221.572093 14.812703 
L 224.816279 14.746648 
L 252.932558 14.812703 
L 254.013953 15.103556 
L 255.095349 16.2539 
L 256.176744 19.79721 
L 257.25814 28.297169 
L 258.339535 44.177183 
L 259.42093 67.282466 
L 260.502326 93.464182 
L 261.583721 116.569466 
L 262.665116 132.449479 
L 263.746512 140.949438 
L 264.827907 144.492748 
L 265.909302 145.643092 
L 266.990698 145.933945 
L 270.234884 146 
L 301.4 146 
L 301.4 146 
" style="fill:none;stroke:#b2b2b2;stroke-linecap:square;stroke-width:1.5;"/>
   </g>
   <g id="line2d_35">
    <path clip-path="url(#p44cdb913bc)" d="M -1 146 
L 26.92093 145.950262 
L 28.002326 145.789951 
L 29.083721 145.296161 
L 30.165116 144.111619 
L 31.246512 141.898603 
L 32.327907 138.678683 
L 33.409302 135.030037 
L 34.490698 131.810117 
L 35.572093 129.597101 
L 36.653488 128.412559 
L 37.734884 127.918768 
L 38.816279 127.758458 
L 42.060465 127.70872 
L 72.339535 127.758458 
L 73.42093 127.918768 
L 74.502326 128.412559 
L 75.583721 129.597101 
L 76.665116 131.810117 
L 77.746512 135.030037 
L 78.827907 138.678683 
L 79.909302 141.898603 
L 80.990698 144.111619 
L 82.072093 145.296161 
L 83.153488 145.789951 
L 84.234884 145.950262 
L 87.47907 146 
L 116.676744 145.941431 
L 117.75814 145.68354 
L 118.839535 144.663564 
L 119.92093 141.521814 
L 121.002326 133.985149 
L 122.083721 119.904805 
L 123.165116 99.418025 
L 124.246512 76.203462 
L 125.327907 55.716682 
L 126.409302 41.636338 
L 127.490698 34.099673 
L 128.572093 30.957924 
L 129.653488 29.937947 
L 130.734884 29.680056 
L 133.97907 29.621487 
L 162.095349 29.680056 
L 163.176744 29.937947 
L 164.25814 30.957924 
L 165.339535 34.099673 
L 166.42093 41.636338 
L 167.502326 55.716682 
L 168.583721 76.203462 
L 169.665116 99.418025 
L 170.746512 119.904805 
L 171.827907 133.985149 
L 172.909302 141.521814 
L 173.990698 144.663564 
L 175.072093 145.68354 
L 176.153488 145.941431 
L 179.397674 146 
L 207.513953 145.934388 
L 208.595349 145.645489 
L 209.676744 144.502871 
L 210.75814 140.983358 
L 211.839535 132.540487 
L 212.92093 116.767127 
L 214.002326 93.817024 
L 215.083721 67.81115 
L 216.165116 44.861046 
L 217.246512 29.087686 
L 218.327907 20.644815 
L 219.409302 17.125303 
L 220.490698 15.982684 
L 221.572093 15.693785 
L 224.816279 15.628173 
L 252.932558 15.693785 
L 254.013953 15.982684 
L 255.095349 17.125303 
L 256.176744 20.644815 
L 257.25814 29.087686 
L 258.339535 44.861046 
L 259.42093 67.81115 
L 260.502326 93.817024 
L 261.583721 116.767127 
L 262.665116 132.540487 
L 263.746512 140.983358 
L 264.827907 144.502871 
L 265.909302 145.645489 
L 266.990698 145.934388 
L 270.234884 146 
L 301.4 146 
L 301.4 146 
" style="fill:none;stroke:#b2b2b2;stroke-linecap:square;stroke-width:1.5;"/>
   </g>
   <g id="line2d_36">
    <path clip-path="url(#p44cdb913bc)" d="M -1 146 
L 28.002326 145.947711 
L 29.083721 145.824788 
L 30.165116 145.52991 
L 31.246512 144.979006 
L 34.490698 142.467598 
L 35.572093 141.916694 
L 36.653488 141.621816 
L 38.816279 141.458985 
L 51.793023 141.446604 
L 73.42093 141.498893 
L 74.502326 141.621816 
L 75.583721 141.916694 
L 76.665116 142.467598 
L 79.909302 144.979006 
L 80.990698 145.52991 
L 82.072093 145.824788 
L 84.234884 145.987618 
L 97.211628 146 
L 116.676744 145.960257 
L 117.75814 145.785262 
L 118.839535 145.093145 
L 119.92093 142.961274 
L 121.002326 137.847181 
L 122.083721 128.292796 
L 123.165116 114.391249 
L 124.246512 98.638733 
L 125.327907 84.737186 
L 126.409302 75.182802 
L 127.490698 70.068708 
L 128.572093 67.936837 
L 129.653488 67.24472 
L 130.734884 67.069725 
L 135.060465 67.029982 
L 162.095349 67.069725 
L 163.176744 67.24472 
L 164.25814 67.936837 
L 165.339535 70.068708 
L 166.42093 75.182802 
L 167.502326 84.737186 
L 168.583721 98.638733 
L 169.665116 114.391249 
L 170.746512 128.292796 
L 171.827907 137.847181 
L 172.909302 142.961274 
L 173.990698 145.093145 
L 175.072093 145.785262 
L 176.153488 145.960257 
L 180.47907 146 
L 207.513953 145.937484 
L 208.595349 145.662213 
L 209.676744 144.573497 
L 210.75814 141.220016 
L 211.839535 133.175434 
L 212.92093 118.146176 
L 214.002326 96.278734 
L 215.083721 71.499676 
L 216.165116 49.632234 
L 217.246512 34.602975 
L 218.327907 26.558393 
L 219.409302 23.204912 
L 220.490698 22.116196 
L 221.572093 21.840926 
L 224.816279 21.778409 
L 252.932558 21.840926 
L 254.013953 22.116196 
L 255.095349 23.204912 
L 256.176744 26.558393 
L 257.25814 34.602975 
L 258.339535 49.632234 
L 259.42093 71.499676 
L 260.502326 96.278734 
L 261.583721 118.146176 
L 262.665116 133.175434 
L 263.746512 141.220016 
L 264.827907 144.573497 
L 265.909302 145.662213 
L 266.990698 145.937484 
L 270.234884 146 
L 301.4 146 
L 301.4 146 
" style="fill:none;stroke:#b2b2b2;stroke-linecap:square;stroke-width:1.5;"/>
   </g>
   <g id="line2d_37">
    <path clip-path="url(#p44cdb913bc)" d="M -1 146 
L 28.002326 145.928354 
L 29.083721 145.759924 
L 30.165116 145.355883 
L 31.246512 144.601035 
L 34.490698 141.159906 
L 35.572093 140.405058 
L 36.653488 140.001017 
L 37.734884 139.832588 
L 40.97907 139.761359 
L 73.42093 139.832588 
L 74.502326 140.001017 
L 75.583721 140.405058 
L 76.665116 141.159906 
L 79.909302 144.601035 
L 80.990698 145.355883 
L 82.072093 145.759924 
L 83.153488 145.928354 
L 86.397674 145.999583 
L 116.676744 145.954655 
L 117.75814 145.754994 
L 118.839535 144.965318 
L 119.92093 142.532946 
L 121.002326 136.697989 
L 122.083721 125.796854 
L 123.165116 109.935796 
L 124.246512 91.962863 
L 125.327907 76.101805 
L 126.409302 65.20067 
L 127.490698 59.365713 
L 128.572093 56.933341 
L 129.653488 56.143666 
L 130.734884 55.944005 
L 133.97907 55.89866 
L 162.095349 55.944005 
L 163.176744 56.143666 
L 164.25814 56.933341 
L 165.339535 59.365713 
L 166.42093 65.20067 
L 167.502326 76.101805 
L 168.583721 91.962863 
L 169.665116 109.935796 
L 170.746512 125.796854 
L 171.827907 136.697989 
L 172.909302 142.532946 
L 173.990698 144.965318 
L 175.072093 145.754994 
L 176.153488 145.954655 
L 179.397674 146 
L 207.513953 145.936328 
L 208.595349 145.655967 
L 209.676744 144.547119 
L 210.75814 141.131626 
L 211.839535 132.938285 
L 212.92093 117.631109 
L 214.002326 95.359299 
L 215.083721 70.122032 
L 216.165116 47.850222 
L 217.246512 32.543046 
L 218.327907 24.349705 
L 219.409302 20.934212 
L 220.490698 19.825364 
L 221.572093 19.545003 
L 224.816279 19.481331 
L 252.932558 19.545003 
L 254.013953 19.825364 
L 255.095349 20.934212 
L 256.176744 24.349705 
L 257.25814 32.543046 
L 258.339535 47.850222 
L 259.42093 70.122032 
L 260.502326 95.359299 
L 261.583721 117.631109 
L 262.665116 132.938285 
L 263.746512 141.131626 
L 264.827907 144.547119 
L 265.909302 145.655967 
L 266.990698 145.936328 
L 270.234884 146 
L 301.4 146 
L 301.4 146 
" style="fill:none;stroke:#b2b2b2;stroke-linecap:square;stroke-width:1.5;"/>
   </g>
   <g id="matplotlib.axis_1"/>
   <g id="matplotlib.axis_2"/>
   <g id="line2d_38">
    <path clip-path="url(#p44cdb913bc)" d="M -1 146 
L 25.839535 145.961751 
L 26.92093 145.793333 
L 28.002326 145.127229 
L 29.083721 143.075484 
L 30.165116 138.153604 
L 31.246512 128.958321 
L 32.327907 115.579263 
L 33.409302 100.418805 
L 34.490698 87.039747 
L 35.572093 77.844464 
L 36.653488 72.922584 
L 37.734884 70.870839 
L 38.816279 70.204735 
L 39.897674 70.036317 
L 44.223256 69.998068 
L 71.25814 70.036317 
L 72.339535 70.204735 
L 73.42093 70.870839 
L 74.502326 72.922584 
L 75.583721 77.844464 
L 76.665116 87.039747 
L 77.746512 100.418805 
L 78.827907 115.579263 
L 79.909302 128.958321 
L 80.990698 138.153604 
L 82.072093 143.075484 
L 83.153488 145.127229 
L 84.234884 145.793333 
L 85.316279 145.961751 
L 89.64186 146 
L 116.676744 145.934584 
L 117.75814 145.646547 
L 118.839535 144.507338 
L 119.92093 140.998326 
L 121.002326 132.580645 
L 122.083721 116.854345 
L 123.165116 93.972715 
L 124.246512 68.044431 
L 125.327907 45.162801 
L 126.409302 29.436502 
L 127.490698 21.01882 
L 128.572093 17.509809 
L 129.653488 16.370599 
L 130.734884 16.082562 
L 133.97907 16.017146 
L 162.095349 16.082562 
L 163.176744 16.370599 
L 164.25814 17.509809 
L 165.339535 21.01882 
L 166.42093 29.436502 
L 167.502326 45.162801 
L 168.583721 68.044431 
L 169.665116 93.972715 
L 170.746512 116.854345 
L 171.827907 132.580645 
L 172.909302 140.998326 
L 173.990698 144.507338 
L 175.072093 145.646547 
L 176.153488 145.934584 
L 179.397674 146 
L 207.513953 145.933665 
L 208.595349 145.641579 
L 209.676744 144.486358 
L 210.75814 140.928027 
L 211.839535 132.392034 
L 212.92093 116.444699 
L 214.002326 93.241464 
L 215.083721 66.948754 
L 216.165116 43.74552 
L 217.246512 27.798185 
L 218.327907 19.262192 
L 219.409302 15.703861 
L 220.490698 14.548639 
L 221.572093 14.256554 
L 224.816279 14.190219 
L 252.932558 14.256554 
L 254.013953 14.548639 
L 255.095349 15.703861 
L 256.176744 19.262192 
L 257.25814 27.798185 
L 258.339535 43.74552 
L 259.42093 66.948754 
L 260.502326 93.241464 
L 261.583721 116.444699 
L 262.665116 132.392034 
L 263.746512 140.928027 
L 264.827907 144.486358 
L 265.909302 145.641579 
L 266.990698 145.933665 
L 270.234884 146 
L 301.4 146 
L 301.4 146 
" style="fill:none;stroke:#084a91;stroke-linecap:square;stroke-width:1.2;"/>
   </g>
   <g id="patch_6">
    <path d="M 10.7 149.3 
L 10.7 10.7 
" style="fill:none;stroke:#000000;stroke-linecap:square;stroke-linejoin:miter;stroke-width:0.8;"/>
   </g>
   <g id="patch_7">
    <path d="M 289.7 149.3 
L 289.7 10.7 
" style="fill:none;stroke:#000000;stroke-linecap:square;stroke-linejoin:miter;stroke-width:0.8;"/>
   </g>
   <g id="patch_8">
    <path d="M 10.7 149.3 
L 289.7 149.3 
" style="fill:none;stroke:#000000;stroke-linecap:square;stroke-linejoin:miter;stroke-width:0.8;"/>
   </g>
   <g id="patch_9">
    <path d="M 10.7 10.7 
L 289.7 10.7 
" style="fill:none;stroke:#000000;stroke-linecap:square;stroke-linejoin:miter;stroke-width:0.8;"/>
   </g>
   <g id="line2d_39">
    <path clip-path="url(#p44cdb913bc)" d="M -1 146 
L 26.92093 145.920306 
L 28.002326 145.663446 
L 29.083721 144.87226 
L 30.165116 142.974306 
L 31.246512 139.428459 
L 32.327907 134.269282 
L 33.409302 128.42317 
L 34.490698 123.263993 
L 35.572093 119.718146 
L 36.653488 117.820191 
L 37.734884 117.029006 
L 38.816279 116.772146 
L 40.97907 116.694413 
L 71.25814 116.707201 
L 72.339535 116.772146 
L 73.42093 117.029006 
L 74.502326 117.820191 
L 75.583721 119.718146 
L 76.665116 123.263993 
L 77.746512 128.42317 
L 78.827907 134.269282 
L 79.909302 139.428459 
L 80.990698 142.974306 
L 82.072093 144.87226 
L 83.153488 145.663446 
L 84.234884 145.920306 
L 86.397674 145.998039 
L 115.595349 145.991781 
L 116.676744 145.938188 
L 117.75814 145.666019 
L 118.839535 144.589572 
L 119.92093 141.273879 
L 121.002326 133.319945 
L 122.083721 118.46004 
L 123.165116 96.839007 
L 124.246512 72.339166 
L 125.327907 50.718132 
L 126.409302 35.858227 
L 127.490698 27.904294 
L 128.572093 24.588601 
L 129.653488 23.512153 
L 130.734884 23.239984 
L 133.97907 23.178172 
L 162.095349 23.239984 
L 163.176744 23.512153 
L 164.25814 24.588601 
L 165.339535 27.904294 
L 166.42093 35.858227 
L 167.502326 50.718132 
L 168.583721 72.339166 
L 169.665116 96.839007 
L 170.746512 118.46004 
L 171.827907 133.319945 
L 172.909302 141.273879 
L 173.990698 144.589572 
L 175.072093 145.666019 
L 176.153488 145.938188 
L 179.397674 146 
L 207.513953 145.934028 
L 208.595349 145.64354 
L 209.676744 144.494637 
L 210.75814 140.955769 
L 211.839535 132.466466 
L 212.92093 116.606359 
L 214.002326 93.53004 
L 215.083721 67.381145 
L 216.165116 44.304826 
L 217.246512 28.444719 
L 218.327907 19.955416 
L 219.409302 16.416548 
L 220.490698 15.267646 
L 221.572093 14.977158 
L 224.816279 14.911185 
L 252.932558 14.977158 
L 254.013953 15.267646 
L 255.095349 16.416548 
L 256.176744 19.955416 
L 257.25814 28.444719 
L 258.339535 44.304826 
L 259.42093 67.381145 
L 260.502326 93.53004 
L 261.583721 116.606359 
L 262.665116 132.466466 
L 263.746512 140.955769 
L 264.827907 144.494637 
L 265.909302 145.64354 
L 266.990698 145.934028 
L 270.234884 146 
L 301.4 146 
L 301.4 146 
" style="fill:none;stroke:#9e3303;stroke-linecap:square;stroke-width:1.2;"/>
   </g>
   <g id="line2d_40">
    <path clip-path="url(#p44cdb913bc)" d="M -1 146 
L 28.002326 145.905714 
L 29.083721 145.684062 
L 30.165116 145.152348 
L 31.246512 144.158975 
L 32.327907 142.713625 
L 34.490698 139.630481 
L 35.572093 138.637107 
L 36.653488 138.105393 
L 37.734884 137.883742 
L 39.897674 137.793588 
L 71.25814 137.793588 
L 73.42093 137.883742 
L 74.502326 138.105393 
L 75.583721 138.637107 
L 76.665116 139.630481 
L 77.746512 141.07583 
L 79.909302 144.158975 
L 80.990698 145.152348 
L 82.072093 145.684062 
L 83.153488 145.905714 
L 85.316279 145.995868 
L 115.595349 145.993405 
L 116.676744 145.950401 
L 117.75814 145.732007 
L 118.839535 144.868244 
L 119.92093 142.207666 
L 121.002326 135.825271 
L 122.083721 123.901388 
L 123.165116 106.55224 
L 124.246512 86.893081 
L 125.327907 69.543933 
L 126.409302 57.62005 
L 127.490698 51.237655 
L 128.572093 48.577077 
L 129.653488 47.713314 
L 130.734884 47.49492 
L 133.97907 47.445321 
L 162.095349 47.49492 
L 163.176744 47.713314 
L 164.25814 48.577077 
L 165.339535 51.237655 
L 166.42093 57.62005 
L 167.502326 69.543933 
L 168.583721 86.893081 
L 169.665116 106.55224 
L 170.746512 123.901388 
L 171.827907 135.825271 
L 172.909302 142.207666 
L 173.990698 144.868244 
L 175.072093 145.732007 
L 176.153488 145.950401 
L 179.397674 146 
L 207.513953 145.935604 
L 208.595349 145.652057 
L 209.676744 144.530607 
L 210.75814 141.076299 
L 211.839535 132.789844 
L 212.92093 117.308707 
L 214.002326 94.783787 
L 215.083721 69.259708 
L 216.165116 46.734787 
L 217.246512 31.25365 
L 218.327907 22.967195 
L 219.409302 19.512887 
L 220.490698 18.391437 
L 221.572093 18.10789 
L 224.816279 18.043494 
L 252.932558 18.10789 
L 254.013953 18.391437 
L 255.095349 19.512887 
L 256.176744 22.967195 
L 257.25814 31.25365 
L 258.339535 46.734787 
L 259.42093 69.259708 
L 260.502326 94.783787 
L 261.583721 117.308707 
L 262.665116 132.789844 
L 263.746512 141.076299 
L 264.827907 144.530607 
L 265.909302 145.652057 
L 266.990698 145.935604 
L 270.234884 146 
L 301.4 146 
L 301.4 146 
" style="fill:none;stroke:#006428;stroke-linecap:square;stroke-width:1.2;"/>
   </g>
  </g>
 </g>
 <defs>
  <clipPath id="p44cdb913bc">
   <rect height="138.6" width="279" x="10.7" y="10.7"/>
  </clipPath>
 </defs>
</svg>
