<?xml version="1.0" encoding="utf-8" standalone="no"?>
<!DOCTYPE svg PUBLIC "-//W3C//DTD SVG 1.1//EN"
  "http://www.w3.org/Graphics/SVG/1.1/DTD/svg11.dtd">
<!-- Created with matplotlib (http://matplotlib.org/) -->
<svg height="110pt" version="1.1" viewBox="0 0 257 110" width="257pt" xmlns="http://www.w3.org/2000/svg" xmlns:xlink="http://www.w3.org/1999/xlink">
 <defs>
  <style type="text/css">
*{stroke-linecap:butt;stroke-linejoin:round;}
  </style>
 </defs>
 <g id="figure_1">
  <g id="patch_1">
   <path d="M 0 110.46834 
L 257.238095 110.46834 
L 257.238095 0 
L 0 0 
z
" style="fill:#ffffff;"/>
  </g>
  <g id="axes_1">
   <g id="patch_2">
    <path d="M 23.338095 93.86 
L 246.538095 93.86 
L 246.538095 10.7 
L 23.338095 10.7 
z
" style="fill:#ffffff;"/>
   </g>
   <g id="line2d_1">
    <path clip-path="url(#p14e61398ec)" d="M 41.938095 90.155324 
L 79.138095 90.155324 
" style="fill:none;stroke:#cccccc;stroke-linecap:square;stroke-width:1.75;"/>
   </g>
   <g id="line2d_2">
    <path clip-path="url(#p14e61398ec)" d="M 116.338095 55.178872 
L 153.538095 55.178872 
" style="fill:none;stroke:#cccccc;stroke-linecap:square;stroke-width:1.75;"/>
   </g>
   <g id="line2d_3">
    <path clip-path="url(#p14e61398ec)" d="M 190.738095 21.683261 
L 227.938095 21.683261 
" style="fill:none;stroke:#cccccc;stroke-linecap:square;stroke-width:1.75;"/>
   </g>
   <g id="line2d_4">
    <path clip-path="url(#p14e61398ec)" d="M 41.938095 80.43975 
L 79.138095 80.43975 
" style="fill:none;stroke:#cccccc;stroke-linecap:square;stroke-width:1.75;"/>
   </g>
   <g id="line2d_5">
    <path clip-path="url(#p14e61398ec)" d="M 116.338095 23.06055 
L 153.538095 23.06055 
" style="fill:none;stroke:#cccccc;stroke-linecap:square;stroke-width:1.75;"/>
   </g>
   <g id="line2d_6">
    <path clip-path="url(#p14e61398ec)" d="M 190.738095 15.429076 
L 227.938095 15.429076 
" style="fill:none;stroke:#cccccc;stroke-linecap:square;stroke-width:1.75;"/>
   </g>
   <g id="line2d_7">
    <path clip-path="url(#p14e61398ec)" d="M 41.938095 89.103987 
L 79.138095 89.103987 
" style="fill:none;stroke:#cccccc;stroke-linecap:square;stroke-width:1.75;"/>
   </g>
   <g id="line2d_8">
    <path clip-path="url(#p14e61398ec)" d="M 116.338095 44.392212 
L 153.538095 44.392212 
" style="fill:none;stroke:#cccccc;stroke-linecap:square;stroke-width:1.75;"/>
   </g>
   <g id="line2d_9">
    <path clip-path="url(#p14e61398ec)" d="M 190.738095 18.766929 
L 227.938095 18.766929 
" style="fill:none;stroke:#cccccc;stroke-linecap:square;stroke-width:1.75;"/>
   </g>
   <g id="line2d_10">
    <path clip-path="url(#p14e61398ec)" d="M 41.938095 81.173108 
L 79.138095 81.173108 
" style="fill:none;stroke:#cccccc;stroke-linecap:square;stroke-width:1.75;"/>
   </g>
   <g id="line2d_11">
    <path clip-path="url(#p14e61398ec)" d="M 116.338095 23.677725 
L 153.538095 23.677725 
" style="fill:none;stroke:#cccccc;stroke-linecap:square;stroke-width:1.75;"/>
   </g>
   <g id="line2d_12">
    <path clip-path="url(#p14e61398ec)" d="M 190.738095 15.499197 
L 227.938095 15.499197 
" style="fill:none;stroke:#cccccc;stroke-linecap:square;stroke-width:1.75;"/>
   </g>
   <g id="line2d_13">
    <path clip-path="url(#p14e61398ec)" d="M 41.938095 88.549448 
L 79.138095 88.549448 
" style="fill:none;stroke:#cccccc;stroke-linecap:square;stroke-width:1.75;"/>
   </g>
   <g id="line2d_14">
    <path clip-path="url(#p14e61398ec)" d="M 116.338095 40.657727 
L 153.538095 40.657727 
" style="fill:none;stroke:#cccccc;stroke-linecap:square;stroke-width:1.75;"/>
   </g>
   <g id="line2d_15">
    <path clip-path="url(#p14e61398ec)" d="M 190.738095 18.007247 
L 227.938095 18.007247 
" style="fill:none;stroke:#cccccc;stroke-linecap:square;stroke-width:1.75;"/>
   </g>
   <g id="line2d_16">
    <path clip-path="url(#p14e61398ec)" d="M 41.938095 89.889128 
L 79.138095 89.889128 
" style="fill:none;stroke:#cccccc;stroke-linecap:square;stroke-width:1.75;"/>
   </g>
   <g id="line2d_17">
    <path clip-path="url(#p14e61398ec)" d="M 116.338095 51.804479 
L 153.538095 51.804479 
" style="fill:none;stroke:#cccccc;stroke-linecap:square;stroke-width:1.75;"/>
   </g>
   <g id="line2d_18">
    <path clip-path="url(#p14e61398ec)" d="M 190.738095 20.628584 
L 227.938095 20.628584 
" style="fill:none;stroke:#cccccc;stroke-linecap:square;stroke-width:1.75;"/>
   </g>
   <g id="line2d_19">
    <path clip-path="url(#p14e61398ec)" d="M 41.938095 90.294113 
L 79.138095 90.294113 
" style="fill:none;stroke:#cccccc;stroke-linecap:square;stroke-width:1.75;"/>
   </g>
   <g id="line2d_20">
    <path clip-path="url(#p14e61398ec)" d="M 116.338095 57.181489 
L 153.538095 57.181489 
" style="fill:none;stroke:#cccccc;stroke-linecap:square;stroke-width:1.75;"/>
   </g>
   <g id="line2d_21">
    <path clip-path="url(#p14e61398ec)" d="M 190.738095 22.389081 
L 227.938095 22.389081 
" style="fill:none;stroke:#cccccc;stroke-linecap:square;stroke-width:1.75;"/>
   </g>
   <g id="line2d_22">
    <path clip-path="url(#p14e61398ec)" d="M 41.938095 90.387069 
L 79.138095 90.387069 
" style="fill:none;stroke:#cccccc;stroke-linecap:square;stroke-width:1.75;"/>
   </g>
   <g id="line2d_23">
    <path clip-path="url(#p14e61398ec)" d="M 116.338095 58.632389 
L 153.538095 58.632389 
" style="fill:none;stroke:#cccccc;stroke-linecap:square;stroke-width:1.75;"/>
   </g>
   <g id="line2d_24">
    <path clip-path="url(#p14e61398ec)" d="M 190.738095 22.943868 
L 227.938095 22.943868 
" style="fill:none;stroke:#cccccc;stroke-linecap:square;stroke-width:1.75;"/>
   </g>
   <g id="line2d_25">
    <path clip-path="url(#p14e61398ec)" d="M 41.938095 89.001643 
L 79.138095 89.001643 
" style="fill:none;stroke:#cccccc;stroke-linecap:square;stroke-width:1.75;"/>
   </g>
   <g id="line2d_26">
    <path clip-path="url(#p14e61398ec)" d="M 116.338095 43.629152 
L 153.538095 43.629152 
" style="fill:none;stroke:#cccccc;stroke-linecap:square;stroke-width:1.75;"/>
   </g>
   <g id="line2d_27">
    <path clip-path="url(#p14e61398ec)" d="M 190.738095 18.603421 
L 227.938095 18.603421 
" style="fill:none;stroke:#cccccc;stroke-linecap:square;stroke-width:1.75;"/>
   </g>
   <g id="line2d_28">
    <path clip-path="url(#p14e61398ec)" d="M 41.938095 85.803385 
L 79.138095 85.803385 
" style="fill:none;stroke:#cccccc;stroke-linecap:square;stroke-width:1.75;"/>
   </g>
   <g id="line2d_29">
    <path clip-path="url(#p14e61398ec)" d="M 116.338095 30.391446 
L 153.538095 30.391446 
" style="fill:none;stroke:#cccccc;stroke-linecap:square;stroke-width:1.75;"/>
   </g>
   <g id="line2d_30">
    <path clip-path="url(#p14e61398ec)" d="M 190.738095 16.343127 
L 227.938095 16.343127 
" style="fill:none;stroke:#cccccc;stroke-linecap:square;stroke-width:1.75;"/>
   </g>
   <g id="line2d_31">
    <path clip-path="url(#p14e61398ec)" d="M 41.938095 90.192545 
L 79.138095 90.192545 
" style="fill:none;stroke:#cccccc;stroke-linecap:square;stroke-width:1.75;"/>
   </g>
   <g id="line2d_32">
    <path clip-path="url(#p14e61398ec)" d="M 116.338095 55.697943 
L 153.538095 55.697943 
" style="fill:none;stroke:#cccccc;stroke-linecap:square;stroke-width:1.75;"/>
   </g>
   <g id="line2d_33">
    <path clip-path="url(#p14e61398ec)" d="M 190.738095 21.859983 
L 227.938095 21.859983 
" style="fill:none;stroke:#cccccc;stroke-linecap:square;stroke-width:1.75;"/>
   </g>
   <g id="line2d_34">
    <path clip-path="url(#p14e61398ec)" d="M 41.938095 81.776852 
L 79.138095 81.776852 
" style="fill:none;stroke:#cccccc;stroke-linecap:square;stroke-width:1.75;"/>
   </g>
   <g id="line2d_35">
    <path clip-path="url(#p14e61398ec)" d="M 116.338095 24.245175 
L 153.538095 24.245175 
" style="fill:none;stroke:#cccccc;stroke-linecap:square;stroke-width:1.75;"/>
   </g>
   <g id="line2d_36">
    <path clip-path="url(#p14e61398ec)" d="M 190.738095 15.564686 
L 227.938095 15.564686 
" style="fill:none;stroke:#cccccc;stroke-linecap:square;stroke-width:1.75;"/>
   </g>
   <g id="line2d_37">
    <path clip-path="url(#p14e61398ec)" d="M 41.938095 49.25246 
L 79.138095 49.25246 
" style="fill:none;stroke:#cccccc;stroke-linecap:square;stroke-width:1.75;"/>
   </g>
   <g id="line2d_38">
    <path clip-path="url(#p14e61398ec)" d="M 116.338095 15.86794 
L 153.538095 15.86794 
" style="fill:none;stroke:#cccccc;stroke-linecap:square;stroke-width:1.75;"/>
   </g>
   <g id="line2d_39">
    <path clip-path="url(#p14e61398ec)" d="M 190.738095 14.688369 
L 227.938095 14.688369 
" style="fill:none;stroke:#cccccc;stroke-linecap:square;stroke-width:1.75;"/>
   </g>
   <g id="line2d_40">
    <path clip-path="url(#p14e61398ec)" d="M 41.938095 83.307769 
L 79.138095 83.307769 
" style="fill:none;stroke:#cccccc;stroke-linecap:square;stroke-width:1.75;"/>
   </g>
   <g id="line2d_41">
    <path clip-path="url(#p14e61398ec)" d="M 116.338095 25.993845 
L 153.538095 25.993845 
" style="fill:none;stroke:#cccccc;stroke-linecap:square;stroke-width:1.75;"/>
   </g>
   <g id="line2d_42">
    <path clip-path="url(#p14e61398ec)" d="M 190.738095 15.772875 
L 227.938095 15.772875 
" style="fill:none;stroke:#cccccc;stroke-linecap:square;stroke-width:1.75;"/>
   </g>
   <g id="line2d_43">
    <path clip-path="url(#p14e61398ec)" d="M 41.938095 89.125258 
L 79.138095 89.125258 
" style="fill:none;stroke:#cccccc;stroke-linecap:square;stroke-width:1.75;"/>
   </g>
   <g id="line2d_44">
    <path clip-path="url(#p14e61398ec)" d="M 116.338095 44.555588 
L 153.538095 44.555588 
" style="fill:none;stroke:#cccccc;stroke-linecap:square;stroke-width:1.75;"/>
   </g>
   <g id="line2d_45">
    <path clip-path="url(#p14e61398ec)" d="M 190.738095 18.80253 
L 227.938095 18.80253 
" style="fill:none;stroke:#cccccc;stroke-linecap:square;stroke-width:1.75;"/>
   </g>
   <g id="line2d_46">
    <path clip-path="url(#p14e61398ec)" d="M 41.938095 90.002004 
L 79.138095 90.002004 
" style="fill:none;stroke:#cccccc;stroke-linecap:square;stroke-width:1.75;"/>
   </g>
   <g id="line2d_47">
    <path clip-path="url(#p14e61398ec)" d="M 116.338095 53.167228 
L 153.538095 53.167228 
" style="fill:none;stroke:#cccccc;stroke-linecap:square;stroke-width:1.75;"/>
   </g>
   <g id="line2d_48">
    <path clip-path="url(#p14e61398ec)" d="M 190.738095 21.035945 
L 227.938095 21.035945 
" style="fill:none;stroke:#cccccc;stroke-linecap:square;stroke-width:1.75;"/>
   </g>
   <g id="line2d_49">
    <path clip-path="url(#p14e61398ec)" d="M 41.938095 90.328341 
L 79.138095 90.328341 
" style="fill:none;stroke:#cccccc;stroke-linecap:square;stroke-width:1.75;"/>
   </g>
   <g id="line2d_50">
    <path clip-path="url(#p14e61398ec)" d="M 116.338095 57.704902 
L 153.538095 57.704902 
" style="fill:none;stroke:#cccccc;stroke-linecap:square;stroke-width:1.75;"/>
   </g>
   <g id="line2d_51">
    <path clip-path="url(#p14e61398ec)" d="M 190.738095 22.584759 
L 227.938095 22.584759 
" style="fill:none;stroke:#cccccc;stroke-linecap:square;stroke-width:1.75;"/>
   </g>
   <g id="line2d_52">
    <path clip-path="url(#p14e61398ec)" d="M 41.938095 86.274201 
L 79.138095 86.274201 
" style="fill:none;stroke:#cccccc;stroke-linecap:square;stroke-width:1.75;"/>
   </g>
   <g id="line2d_53">
    <path clip-path="url(#p14e61398ec)" d="M 116.338095 31.575265 
L 153.538095 31.575265 
" style="fill:none;stroke:#cccccc;stroke-linecap:square;stroke-width:1.75;"/>
   </g>
   <g id="line2d_54">
    <path clip-path="url(#p14e61398ec)" d="M 190.738095 16.509287 
L 227.938095 16.509287 
" style="fill:none;stroke:#cccccc;stroke-linecap:square;stroke-width:1.75;"/>
   </g>
   <g id="line2d_55">
    <path clip-path="url(#p14e61398ec)" d="M 41.938095 90.485012 
L 79.138095 90.485012 
" style="fill:none;stroke:#cccccc;stroke-linecap:square;stroke-width:1.75;"/>
   </g>
   <g id="line2d_56">
    <path clip-path="url(#p14e61398ec)" d="M 116.338095 60.267714 
L 153.538095 60.267714 
" style="fill:none;stroke:#cccccc;stroke-linecap:square;stroke-width:1.75;"/>
   </g>
   <g id="line2d_57">
    <path clip-path="url(#p14e61398ec)" d="M 190.738095 23.618609 
L 227.938095 23.618609 
" style="fill:none;stroke:#cccccc;stroke-linecap:square;stroke-width:1.75;"/>
   </g>
   <g id="line2d_58">
    <path clip-path="url(#p14e61398ec)" d="M 41.938095 83.003901 
L 79.138095 83.003901 
" style="fill:none;stroke:#cccccc;stroke-linecap:square;stroke-width:1.75;"/>
   </g>
   <g id="line2d_59">
    <path clip-path="url(#p14e61398ec)" d="M 116.338095 25.605079 
L 153.538095 25.605079 
" style="fill:none;stroke:#cccccc;stroke-linecap:square;stroke-width:1.75;"/>
   </g>
   <g id="line2d_60">
    <path clip-path="url(#p14e61398ec)" d="M 190.738095 15.725736 
L 227.938095 15.725736 
" style="fill:none;stroke:#cccccc;stroke-linecap:square;stroke-width:1.75;"/>
   </g>
   <g id="line2d_61">
    <path clip-path="url(#p14e61398ec)" d="M 41.938095 89.466794 
L 79.138095 89.466794 
" style="fill:none;stroke:#cccccc;stroke-linecap:square;stroke-width:1.75;"/>
   </g>
   <g id="line2d_62">
    <path clip-path="url(#p14e61398ec)" d="M 116.338095 47.432231 
L 153.538095 47.432231 
" style="fill:none;stroke:#cccccc;stroke-linecap:square;stroke-width:1.75;"/>
   </g>
   <g id="line2d_63">
    <path clip-path="url(#p14e61398ec)" d="M 190.738095 19.466102 
L 227.938095 19.466102 
" style="fill:none;stroke:#cccccc;stroke-linecap:square;stroke-width:1.75;"/>
   </g>
   <g id="line2d_64">
    <path clip-path="url(#p14e61398ec)" d="M 41.938095 84.776474 
L 79.138095 84.776474 
" style="fill:none;stroke:#cccccc;stroke-linecap:square;stroke-width:1.75;"/>
   </g>
   <g id="line2d_65">
    <path clip-path="url(#p14e61398ec)" d="M 116.338095 28.26724 
L 153.538095 28.26724 
" style="fill:none;stroke:#cccccc;stroke-linecap:square;stroke-width:1.75;"/>
   </g>
   <g id="line2d_66">
    <path clip-path="url(#p14e61398ec)" d="M 190.738095 16.058859 
L 227.938095 16.058859 
" style="fill:none;stroke:#cccccc;stroke-linecap:square;stroke-width:1.75;"/>
   </g>
   <g id="line2d_67">
    <path clip-path="url(#p14e61398ec)" d="M 41.938095 89.986064 
L 79.138095 89.986064 
" style="fill:none;stroke:#cccccc;stroke-linecap:square;stroke-width:1.75;"/>
   </g>
   <g id="line2d_68">
    <path clip-path="url(#p14e61398ec)" d="M 116.338095 52.969023 
L 153.538095 52.969023 
" style="fill:none;stroke:#cccccc;stroke-linecap:square;stroke-width:1.75;"/>
   </g>
   <g id="line2d_69">
    <path clip-path="url(#p14e61398ec)" d="M 190.738095 20.975208 
L 227.938095 20.975208 
" style="fill:none;stroke:#cccccc;stroke-linecap:square;stroke-width:1.75;"/>
   </g>
   <g id="line2d_70">
    <path clip-path="url(#p14e61398ec)" d="M 41.938095 89.455857 
L 79.138095 89.455857 
" style="fill:none;stroke:#cccccc;stroke-linecap:square;stroke-width:1.75;"/>
   </g>
   <g id="line2d_71">
    <path clip-path="url(#p14e61398ec)" d="M 116.338095 47.332029 
L 153.538095 47.332029 
" style="fill:none;stroke:#cccccc;stroke-linecap:square;stroke-width:1.75;"/>
   </g>
   <g id="line2d_72">
    <path clip-path="url(#p14e61398ec)" d="M 190.738095 19.441753 
L 227.938095 19.441753 
" style="fill:none;stroke:#cccccc;stroke-linecap:square;stroke-width:1.75;"/>
   </g>
   <g id="line2d_73">
    <path clip-path="url(#p14e61398ec)" d="M 41.938095 87.590348 
L 79.138095 87.590348 
" style="fill:none;stroke:#cccccc;stroke-linecap:square;stroke-width:1.75;"/>
   </g>
   <g id="line2d_74">
    <path clip-path="url(#p14e61398ec)" d="M 116.338095 35.934503 
L 153.538095 35.934503 
" style="fill:none;stroke:#cccccc;stroke-linecap:square;stroke-width:1.75;"/>
   </g>
   <g id="line2d_75">
    <path clip-path="url(#p14e61398ec)" d="M 190.738095 17.174666 
L 227.938095 17.174666 
" style="fill:none;stroke:#cccccc;stroke-linecap:square;stroke-width:1.75;"/>
   </g>
   <g id="line2d_76">
    <path clip-path="url(#p14e61398ec)" d="M 41.938095 44.157373 
L 79.138095 44.157373 
" style="fill:none;stroke:#cccccc;stroke-linecap:square;stroke-width:1.75;"/>
   </g>
   <g id="line2d_77">
    <path clip-path="url(#p14e61398ec)" d="M 116.338095 15.5618 
L 153.538095 15.5618 
" style="fill:none;stroke:#cccccc;stroke-linecap:square;stroke-width:1.75;"/>
   </g>
   <g id="line2d_78">
    <path clip-path="url(#p14e61398ec)" d="M 190.738095 14.659665 
L 227.938095 14.659665 
" style="fill:none;stroke:#cccccc;stroke-linecap:square;stroke-width:1.75;"/>
   </g>
   <g id="line2d_79">
    <path clip-path="url(#p14e61398ec)" d="M 41.938095 90.72379 
L 79.138095 90.72379 
" style="fill:none;stroke:#cccccc;stroke-linecap:square;stroke-width:1.75;"/>
   </g>
   <g id="line2d_80">
    <path clip-path="url(#p14e61398ec)" d="M 116.338095 64.791716 
L 153.538095 64.791716 
" style="fill:none;stroke:#cccccc;stroke-linecap:square;stroke-width:1.75;"/>
   </g>
   <g id="line2d_81">
    <path clip-path="url(#p14e61398ec)" d="M 190.738095 25.818337 
L 227.938095 25.818337 
" style="fill:none;stroke:#cccccc;stroke-linecap:square;stroke-width:1.75;"/>
   </g>
   <g id="line2d_82">
    <path clip-path="url(#p14e61398ec)" d="M 41.938095 84.153765 
L 79.138095 84.153765 
" style="fill:none;stroke:#cccccc;stroke-linecap:square;stroke-width:1.75;"/>
   </g>
   <g id="line2d_83">
    <path clip-path="url(#p14e61398ec)" d="M 116.338095 27.213439 
L 153.538095 27.213439 
" style="fill:none;stroke:#cccccc;stroke-linecap:square;stroke-width:1.75;"/>
   </g>
   <g id="line2d_84">
    <path clip-path="url(#p14e61398ec)" d="M 190.738095 15.924052 
L 227.938095 15.924052 
" style="fill:none;stroke:#cccccc;stroke-linecap:square;stroke-width:1.75;"/>
   </g>
   <g id="line2d_85">
    <path clip-path="url(#p14e61398ec)" d="M 41.938095 91.010941 
L 79.138095 91.010941 
" style="fill:none;stroke:#cccccc;stroke-linecap:square;stroke-width:1.75;"/>
   </g>
   <g id="line2d_86">
    <path clip-path="url(#p14e61398ec)" d="M 116.338095 71.525835 
L 153.538095 71.525835 
" style="fill:none;stroke:#cccccc;stroke-linecap:square;stroke-width:1.75;"/>
   </g>
   <g id="line2d_87">
    <path clip-path="url(#p14e61398ec)" d="M 190.738095 30.419654 
L 227.938095 30.419654 
" style="fill:none;stroke:#cccccc;stroke-linecap:square;stroke-width:1.75;"/>
   </g>
   <g id="line2d_88">
    <path clip-path="url(#p14e61398ec)" d="M 41.938095 89.192016 
L 79.138095 89.192016 
" style="fill:none;stroke:#cccccc;stroke-linecap:square;stroke-width:1.75;"/>
   </g>
   <g id="line2d_89">
    <path clip-path="url(#p14e61398ec)" d="M 116.338095 45.079542 
L 153.538095 45.079542 
" style="fill:none;stroke:#cccccc;stroke-linecap:square;stroke-width:1.75;"/>
   </g>
   <g id="line2d_90">
    <path clip-path="url(#p14e61398ec)" d="M 190.738095 18.918149 
L 227.938095 18.918149 
" style="fill:none;stroke:#cccccc;stroke-linecap:square;stroke-width:1.75;"/>
   </g>
   <g id="line2d_91">
    <path clip-path="url(#p14e61398ec)" d="M 41.938095 89.560204 
L 79.138095 89.560204 
" style="fill:none;stroke:#cccccc;stroke-linecap:square;stroke-width:1.75;"/>
   </g>
   <g id="line2d_92">
    <path clip-path="url(#p14e61398ec)" d="M 116.338095 48.312426 
L 153.538095 48.312426 
" style="fill:none;stroke:#cccccc;stroke-linecap:square;stroke-width:1.75;"/>
   </g>
   <g id="line2d_93">
    <path clip-path="url(#p14e61398ec)" d="M 190.738095 19.6841 
L 227.938095 19.6841 
" style="fill:none;stroke:#cccccc;stroke-linecap:square;stroke-width:1.75;"/>
   </g>
   <g id="line2d_94">
    <path clip-path="url(#p14e61398ec)" d="M 41.938095 89.953832 
L 79.138095 89.953832 
" style="fill:none;stroke:#cccccc;stroke-linecap:square;stroke-width:1.75;"/>
   </g>
   <g id="line2d_95">
    <path clip-path="url(#p14e61398ec)" d="M 116.338095 52.574144 
L 153.538095 52.574144 
" style="fill:none;stroke:#cccccc;stroke-linecap:square;stroke-width:1.75;"/>
   </g>
   <g id="line2d_96">
    <path clip-path="url(#p14e61398ec)" d="M 190.738095 20.855737 
L 227.938095 20.855737 
" style="fill:none;stroke:#cccccc;stroke-linecap:square;stroke-width:1.75;"/>
   </g>
   <g id="line2d_97">
    <path clip-path="url(#p14e61398ec)" d="M 41.938095 88.818085 
L 79.138095 88.818085 
" style="fill:none;stroke:#cccccc;stroke-linecap:square;stroke-width:1.75;"/>
   </g>
   <g id="line2d_98">
    <path clip-path="url(#p14e61398ec)" d="M 116.338095 42.349406 
L 153.538095 42.349406 
" style="fill:none;stroke:#cccccc;stroke-linecap:square;stroke-width:1.75;"/>
   </g>
   <g id="line2d_99">
    <path clip-path="url(#p14e61398ec)" d="M 190.738095 18.339032 
L 227.938095 18.339032 
" style="fill:none;stroke:#cccccc;stroke-linecap:square;stroke-width:1.75;"/>
   </g>
   <g id="line2d_100">
    <path clip-path="url(#p14e61398ec)" d="M 41.938095 76.940412 
L 79.138095 76.940412 
" style="fill:none;stroke:#cccccc;stroke-linecap:square;stroke-width:1.75;"/>
   </g>
   <g id="line2d_101">
    <path clip-path="url(#p14e61398ec)" d="M 116.338095 20.881154 
L 153.538095 20.881154 
" style="fill:none;stroke:#cccccc;stroke-linecap:square;stroke-width:1.75;"/>
   </g>
   <g id="line2d_102">
    <path clip-path="url(#p14e61398ec)" d="M 190.738095 15.190292 
L 227.938095 15.190292 
" style="fill:none;stroke:#cccccc;stroke-linecap:square;stroke-width:1.75;"/>
   </g>
   <g id="line2d_103">
    <path clip-path="url(#p14e61398ec)" d="M 41.938095 84.819526 
L 79.138095 84.819526 
" style="fill:none;stroke:#cccccc;stroke-linecap:square;stroke-width:1.75;"/>
   </g>
   <g id="line2d_104">
    <path clip-path="url(#p14e61398ec)" d="M 116.338095 28.345868 
L 153.538095 28.345868 
" style="fill:none;stroke:#cccccc;stroke-linecap:square;stroke-width:1.75;"/>
   </g>
   <g id="line2d_105">
    <path clip-path="url(#p14e61398ec)" d="M 190.738095 16.069078 
L 227.938095 16.069078 
" style="fill:none;stroke:#cccccc;stroke-linecap:square;stroke-width:1.75;"/>
   </g>
   <g id="line2d_106">
    <path clip-path="url(#p14e61398ec)" d="M 41.938095 90.359505 
L 79.138095 90.359505 
" style="fill:none;stroke:#cccccc;stroke-linecap:square;stroke-width:1.75;"/>
   </g>
   <g id="line2d_107">
    <path clip-path="url(#p14e61398ec)" d="M 116.338095 58.192336 
L 153.538095 58.192336 
" style="fill:none;stroke:#cccccc;stroke-linecap:square;stroke-width:1.75;"/>
   </g>
   <g id="line2d_108">
    <path clip-path="url(#p14e61398ec)" d="M 190.738095 22.771466 
L 227.938095 22.771466 
" style="fill:none;stroke:#cccccc;stroke-linecap:square;stroke-width:1.75;"/>
   </g>
   <g id="line2d_109">
    <path clip-path="url(#p14e61398ec)" d="M 41.938095 90.599268 
L 79.138095 90.599268 
" style="fill:none;stroke:#cccccc;stroke-linecap:square;stroke-width:1.75;"/>
   </g>
   <g id="line2d_110">
    <path clip-path="url(#p14e61398ec)" d="M 116.338095 62.329716 
L 153.538095 62.329716 
" style="fill:none;stroke:#cccccc;stroke-linecap:square;stroke-width:1.75;"/>
   </g>
   <g id="line2d_111">
    <path clip-path="url(#p14e61398ec)" d="M 190.738095 24.554469 
L 227.938095 24.554469 
" style="fill:none;stroke:#cccccc;stroke-linecap:square;stroke-width:1.75;"/>
   </g>
   <g id="matplotlib.axis_1"/>
   <g id="matplotlib.axis_2">
    <g id="ytick_1">
     <g id="line2d_112">
      <defs>
       <path d="M 0 0 
L -3.5 0 
" id="mca23bf84c6" style="stroke:#000000;stroke-width:0.8;"/>
      </defs>
      <g>
       <use style="stroke:#000000;stroke-width:0.8;" x="23.338095" xlink:href="#mca23bf84c6" y="91.926047"/>
      </g>
     </g>
     <g id="text_1">
      <!-- $0$ -->
      <defs>
       <path d="M 42 31.640625 
C 42 37.75 41.90625 48.125 37.703125 56.109375 
C 34 63.109375 28.09375 65.59375 22.90625 65.59375 
C 18.09375 65.59375 12 63.40625 8.203125 56.203125 
C 4.203125 48.71875 3.796875 39.4375 3.796875 31.640625 
C 3.796875 25.953125 3.90625 17.28125 7 9.671875 
C 11.296875 -0.609375 19 -2 22.90625 -2 
C 27.5 -2 34.5 -0.109375 38.59375 9.375 
C 41.59375 16.28125 42 24.359375 42 31.640625 
z
M 22.90625 -0.40625 
C 16.5 -0.40625 12.703125 5.078125 11.296875 12.6875 
C 10.203125 18.5625 10.203125 27.15625 10.203125 32.75 
C 10.203125 40.4375 10.203125 46.828125 11.5 52.921875 
C 13.40625 61.390625 19 64 22.90625 64 
C 27 64 32.296875 61.296875 34.203125 53.125 
C 35.5 47.4375 35.59375 40.734375 35.59375 32.75 
C 35.59375 26.25 35.59375 18.265625 34.40625 12.375 
C 32.296875 1.484375 26.40625 -0.40625 22.90625 -0.40625 
z
" id="CMR17-48"/>
      </defs>
      <g transform="translate(7.2 99.024367)scale(0.2 -0.2)">
       <use transform="scale(0.996264)" xlink:href="#CMR17-48"/>
      </g>
     </g>
    </g>
    <g id="ytick_2">
     <g id="line2d_113">
      <g>
       <use style="stroke:#000000;stroke-width:0.8;" x="23.338095" xlink:href="#mca23bf84c6" y="14.567907"/>
      </g>
     </g>
     <g id="text_2">
      <!-- $1$ -->
      <defs>
       <path d="M 26.59375 63.40625 
C 26.59375 65.5 26.5 65.5 25.09375 65.5 
C 21.203125 61.1875 15.296875 59.796875 9.703125 59.796875 
C 9.40625 59.796875 8.90625 59.796875 8.796875 59.5 
C 8.703125 59.296875 8.703125 59.09375 8.703125 57 
C 11.796875 57 17 57.59375 21 59.984375 
L 21 7.203125 
C 21 3.6875 20.796875 2.5 12.203125 2.5 
L 9.203125 2.5 
L 9.203125 0 
C 14 0 19 0 23.796875 0 
C 28.59375 0 33.59375 0 38.40625 0 
L 38.40625 2.5 
L 35.40625 2.5 
C 26.796875 2.5 26.59375 3.59375 26.59375 7.15625 
z
" id="CMR17-49"/>
      </defs>
      <g transform="translate(7.2 21.666227)scale(0.2 -0.2)">
       <use transform="scale(0.996264)" xlink:href="#CMR17-49"/>
      </g>
     </g>
    </g>
   </g>
   <g id="line2d_114">
    <path clip-path="url(#p14e61398ec)" d="M 41.938095 65.958351 
L 79.138095 65.958351 
" style="fill:none;stroke:#1764ab;stroke-linecap:square;stroke-width:2;"/>
   </g>
   <g id="line2d_115">
    <path clip-path="url(#p14e61398ec)" d="M 116.338095 17.674352 
L 153.538095 17.674352 
" style="fill:none;stroke:#1764ab;stroke-linecap:square;stroke-width:2;"/>
   </g>
   <g id="line2d_116">
    <path clip-path="url(#p14e61398ec)" d="M 190.738095 14.862122 
L 227.938095 14.862122 
" style="fill:none;stroke:#1764ab;stroke-linecap:square;stroke-width:2;"/>
   </g>
   <g id="patch_3">
    <path d="M 23.338095 93.86 
L 23.338095 10.7 
" style="fill:none;stroke:#000000;stroke-linecap:square;stroke-linejoin:miter;stroke-width:0.8;"/>
   </g>
   <g id="patch_4">
    <path d="M 246.538095 93.86 
L 246.538095 10.7 
" style="fill:none;stroke:#000000;stroke-linecap:square;stroke-linejoin:miter;stroke-width:0.8;"/>
   </g>
   <g id="patch_5">
    <path d="M 23.338095 93.86 
L 246.538095 93.86 
" style="fill:none;stroke:#000000;stroke-linecap:square;stroke-linejoin:miter;stroke-width:0.8;"/>
   </g>
   <g id="patch_6">
    <path d="M 23.338095 10.7 
L 246.538095 10.7 
" style="fill:none;stroke:#000000;stroke-linecap:square;stroke-linejoin:miter;stroke-width:0.8;"/>
   </g>
   <g id="line2d_117">
    <path clip-path="url(#p14e61398ec)" d="M 41.938095 87.826857 
L 79.138095 87.826857 
" style="fill:none;stroke:#c54102;stroke-linecap:square;stroke-width:2;"/>
   </g>
   <g id="line2d_118">
    <path clip-path="url(#p14e61398ec)" d="M 116.338095 36.943252 
L 153.538095 36.943252 
" style="fill:none;stroke:#c54102;stroke-linecap:square;stroke-width:2;"/>
   </g>
   <g id="line2d_119">
    <path clip-path="url(#p14e61398ec)" d="M 190.738095 17.341891 
L 227.938095 17.341891 
" style="fill:none;stroke:#c54102;stroke-linecap:square;stroke-width:2;"/>
   </g>
   <g id="line2d_120">
    <path clip-path="url(#p14e61398ec)" d="M 41.938095 88.712998 
L 79.138095 88.712998 
" style="fill:none;stroke:#157f3b;stroke-linecap:square;stroke-width:2;"/>
   </g>
   <g id="line2d_121">
    <path clip-path="url(#p14e61398ec)" d="M 116.338095 41.663646 
L 153.538095 41.663646 
" style="fill:none;stroke:#157f3b;stroke-linecap:square;stroke-width:2;"/>
   </g>
   <g id="line2d_122">
    <path clip-path="url(#p14e61398ec)" d="M 190.738095 18.202189 
L 227.938095 18.202189 
" style="fill:none;stroke:#157f3b;stroke-linecap:square;stroke-width:2;"/>
   </g>
  </g>
 </g>
 <defs>
  <clipPath id="p14e61398ec">
   <rect height="83.16" width="223.2" x="23.338095" y="10.7"/>
  </clipPath>
 </defs>
</svg>
