<?xml version="1.0" encoding="utf-8" standalone="no"?>
<!DOCTYPE svg PUBLIC "-//W3C//DTD SVG 1.1//EN"
  "http://www.w3.org/Graphics/SVG/1.1/DTD/svg11.dtd">
<!-- Created with matplotlib (http://matplotlib.org/) -->
<svg height="110pt" version="1.1" viewBox="0 0 257 110" width="257pt" xmlns="http://www.w3.org/2000/svg" xmlns:xlink="http://www.w3.org/1999/xlink">
 <defs>
  <style type="text/css">
*{stroke-linecap:butt;stroke-linejoin:round;}
  </style>
 </defs>
 <g id="figure_1">
  <g id="patch_1">
   <path d="M 0 110.46834 
L 257.238095 110.46834 
L 257.238095 0 
L 0 0 
z
" style="fill:#ffffff;"/>
  </g>
  <g id="axes_1">
   <g id="patch_2">
    <path d="M 23.338095 93.86 
L 246.538095 93.86 
L 246.538095 10.7 
L 23.338095 10.7 
z
" style="fill:#ffffff;"/>
   </g>
   <g id="line2d_1">
    <path clip-path="url(#pb446a67aa4)" d="M 41.938095 90.889939 
L 79.138095 90.889939 
" style="fill:none;stroke:#cccccc;stroke-linecap:square;stroke-width:1.75;"/>
   </g>
   <g id="line2d_2">
    <path clip-path="url(#pb446a67aa4)" d="M 116.338095 68.486068 
L 153.538095 68.486068 
" style="fill:none;stroke:#cccccc;stroke-linecap:square;stroke-width:1.75;"/>
   </g>
   <g id="line2d_3">
    <path clip-path="url(#pb446a67aa4)" d="M 190.738095 28.09366 
L 227.938095 28.09366 
" style="fill:none;stroke:#cccccc;stroke-linecap:square;stroke-width:1.75;"/>
   </g>
   <g id="line2d_4">
    <path clip-path="url(#pb446a67aa4)" d="M 41.938095 51.897879 
L 79.138095 51.897879 
" style="fill:none;stroke:#cccccc;stroke-linecap:square;stroke-width:1.75;"/>
   </g>
   <g id="line2d_5">
    <path clip-path="url(#pb446a67aa4)" d="M 116.338095 16.056664 
L 153.538095 16.056664 
" style="fill:none;stroke:#cccccc;stroke-linecap:square;stroke-width:1.75;"/>
   </g>
   <g id="line2d_6">
    <path clip-path="url(#pb446a67aa4)" d="M 190.738095 14.706169 
L 227.938095 14.706169 
" style="fill:none;stroke:#cccccc;stroke-linecap:square;stroke-width:1.75;"/>
   </g>
   <g id="line2d_7">
    <path clip-path="url(#pb446a67aa4)" d="M 41.938095 90.644363 
L 79.138095 90.644363 
" style="fill:none;stroke:#cccccc;stroke-linecap:square;stroke-width:1.75;"/>
   </g>
   <g id="line2d_8">
    <path clip-path="url(#pb446a67aa4)" d="M 116.338095 63.193869 
L 153.538095 63.193869 
" style="fill:none;stroke:#cccccc;stroke-linecap:square;stroke-width:1.75;"/>
   </g>
   <g id="line2d_9">
    <path clip-path="url(#pb446a67aa4)" d="M 190.738095 24.978454 
L 227.938095 24.978454 
" style="fill:none;stroke:#cccccc;stroke-linecap:square;stroke-width:1.75;"/>
   </g>
   <g id="line2d_10">
    <path clip-path="url(#pb446a67aa4)" d="M 41.938095 89.970995 
L 79.138095 89.970995 
" style="fill:none;stroke:#cccccc;stroke-linecap:square;stroke-width:1.75;"/>
   </g>
   <g id="line2d_11">
    <path clip-path="url(#pb446a67aa4)" d="M 116.338095 52.783426 
L 153.538095 52.783426 
" style="fill:none;stroke:#cccccc;stroke-linecap:square;stroke-width:1.75;"/>
   </g>
   <g id="line2d_12">
    <path clip-path="url(#pb446a67aa4)" d="M 190.738095 20.918803 
L 227.938095 20.918803 
" style="fill:none;stroke:#cccccc;stroke-linecap:square;stroke-width:1.75;"/>
   </g>
   <g id="line2d_13">
    <path clip-path="url(#pb446a67aa4)" d="M 41.938095 75.103104 
L 79.138095 75.103104 
" style="fill:none;stroke:#cccccc;stroke-linecap:square;stroke-width:1.75;"/>
   </g>
   <g id="line2d_14">
    <path clip-path="url(#pb446a67aa4)" d="M 116.338095 20.073889 
L 153.538095 20.073889 
" style="fill:none;stroke:#cccccc;stroke-linecap:square;stroke-width:1.75;"/>
   </g>
   <g id="line2d_15">
    <path clip-path="url(#pb446a67aa4)" d="M 190.738095 15.105178 
L 227.938095 15.105178 
" style="fill:none;stroke:#cccccc;stroke-linecap:square;stroke-width:1.75;"/>
   </g>
   <g id="line2d_16">
    <path clip-path="url(#pb446a67aa4)" d="M 41.938095 89.958696 
L 79.138095 89.958696 
" style="fill:none;stroke:#cccccc;stroke-linecap:square;stroke-width:1.75;"/>
   </g>
   <g id="line2d_17">
    <path clip-path="url(#pb446a67aa4)" d="M 116.338095 52.633229 
L 153.538095 52.633229 
" style="fill:none;stroke:#cccccc;stroke-linecap:square;stroke-width:1.75;"/>
   </g>
   <g id="line2d_18">
    <path clip-path="url(#pb446a67aa4)" d="M 190.738095 20.873485 
L 227.938095 20.873485 
" style="fill:none;stroke:#cccccc;stroke-linecap:square;stroke-width:1.75;"/>
   </g>
   <g id="line2d_19">
    <path clip-path="url(#pb446a67aa4)" d="M 41.938095 88.571636 
L 79.138095 88.571636 
" style="fill:none;stroke:#cccccc;stroke-linecap:square;stroke-width:1.75;"/>
   </g>
   <g id="line2d_20">
    <path clip-path="url(#pb446a67aa4)" d="M 116.338095 40.790044 
L 153.538095 40.790044 
" style="fill:none;stroke:#cccccc;stroke-linecap:square;stroke-width:1.75;"/>
   </g>
   <g id="line2d_21">
    <path clip-path="url(#pb446a67aa4)" d="M 190.738095 18.032507 
L 227.938095 18.032507 
" style="fill:none;stroke:#cccccc;stroke-linecap:square;stroke-width:1.75;"/>
   </g>
   <g id="line2d_22">
    <path clip-path="url(#pb446a67aa4)" d="M 41.938095 90.37924 
L 79.138095 90.37924 
" style="fill:none;stroke:#cccccc;stroke-linecap:square;stroke-width:1.75;"/>
   </g>
   <g id="line2d_23">
    <path clip-path="url(#pb446a67aa4)" d="M 116.338095 58.506534 
L 153.538095 58.506534 
" style="fill:none;stroke:#cccccc;stroke-linecap:square;stroke-width:1.75;"/>
   </g>
   <g id="line2d_24">
    <path clip-path="url(#pb446a67aa4)" d="M 190.738095 22.894181 
L 227.938095 22.894181 
" style="fill:none;stroke:#cccccc;stroke-linecap:square;stroke-width:1.75;"/>
   </g>
   <g id="line2d_25">
    <path clip-path="url(#pb446a67aa4)" d="M 41.938095 85.590806 
L 79.138095 85.590806 
" style="fill:none;stroke:#cccccc;stroke-linecap:square;stroke-width:1.75;"/>
   </g>
   <g id="line2d_26">
    <path clip-path="url(#pb446a67aa4)" d="M 116.338095 29.904799 
L 153.538095 29.904799 
" style="fill:none;stroke:#cccccc;stroke-linecap:square;stroke-width:1.75;"/>
   </g>
   <g id="line2d_27">
    <path clip-path="url(#pb446a67aa4)" d="M 190.738095 16.276466 
L 227.938095 16.276466 
" style="fill:none;stroke:#cccccc;stroke-linecap:square;stroke-width:1.75;"/>
   </g>
   <g id="line2d_28">
    <path clip-path="url(#pb446a67aa4)" d="M 41.938095 85.694142 
L 79.138095 85.694142 
" style="fill:none;stroke:#cccccc;stroke-linecap:square;stroke-width:1.75;"/>
   </g>
   <g id="line2d_29">
    <path clip-path="url(#pb446a67aa4)" d="M 116.338095 30.137929 
L 153.538095 30.137929 
" style="fill:none;stroke:#cccccc;stroke-linecap:square;stroke-width:1.75;"/>
   </g>
   <g id="line2d_30">
    <path clip-path="url(#pb446a67aa4)" d="M 190.738095 16.308283 
L 227.938095 16.308283 
" style="fill:none;stroke:#cccccc;stroke-linecap:square;stroke-width:1.75;"/>
   </g>
   <g id="line2d_31">
    <path clip-path="url(#pb446a67aa4)" d="M 41.938095 90.767673 
L 79.138095 90.767673 
" style="fill:none;stroke:#cccccc;stroke-linecap:square;stroke-width:1.75;"/>
   </g>
   <g id="line2d_32">
    <path clip-path="url(#pb446a67aa4)" d="M 116.338095 65.718877 
L 153.538095 65.718877 
" style="fill:none;stroke:#cccccc;stroke-linecap:square;stroke-width:1.75;"/>
   </g>
   <g id="line2d_33">
    <path clip-path="url(#pb446a67aa4)" d="M 190.738095 26.342322 
L 227.938095 26.342322 
" style="fill:none;stroke:#cccccc;stroke-linecap:square;stroke-width:1.75;"/>
   </g>
   <g id="line2d_34">
    <path clip-path="url(#pb446a67aa4)" d="M 41.938095 53.845656 
L 79.138095 53.845656 
" style="fill:none;stroke:#cccccc;stroke-linecap:square;stroke-width:1.75;"/>
   </g>
   <g id="line2d_35">
    <path clip-path="url(#pb446a67aa4)" d="M 116.338095 16.211826 
L 153.538095 16.211826 
" style="fill:none;stroke:#cccccc;stroke-linecap:square;stroke-width:1.75;"/>
   </g>
   <g id="line2d_36">
    <path clip-path="url(#pb446a67aa4)" d="M 190.738095 14.720864 
L 227.938095 14.720864 
" style="fill:none;stroke:#cccccc;stroke-linecap:square;stroke-width:1.75;"/>
   </g>
   <g id="line2d_37">
    <path clip-path="url(#pb446a67aa4)" d="M 41.938095 69.261389 
L 79.138095 69.261389 
" style="fill:none;stroke:#cccccc;stroke-linecap:square;stroke-width:1.75;"/>
   </g>
   <g id="line2d_38">
    <path clip-path="url(#pb446a67aa4)" d="M 116.338095 18.329754 
L 153.538095 18.329754 
" style="fill:none;stroke:#cccccc;stroke-linecap:square;stroke-width:1.75;"/>
   </g>
   <g id="line2d_39">
    <path clip-path="url(#pb446a67aa4)" d="M 190.738095 14.92708 
L 227.938095 14.92708 
" style="fill:none;stroke:#cccccc;stroke-linecap:square;stroke-width:1.75;"/>
   </g>
   <g id="line2d_40">
    <path clip-path="url(#pb446a67aa4)" d="M 41.938095 79.427904 
L 79.138095 79.427904 
" style="fill:none;stroke:#cccccc;stroke-linecap:square;stroke-width:1.75;"/>
   </g>
   <g id="line2d_41">
    <path clip-path="url(#pb446a67aa4)" d="M 116.338095 22.316736 
L 153.538095 22.316736 
" style="fill:none;stroke:#cccccc;stroke-linecap:square;stroke-width:1.75;"/>
   </g>
   <g id="line2d_42">
    <path clip-path="url(#pb446a67aa4)" d="M 190.738095 15.346061 
L 227.938095 15.346061 
" style="fill:none;stroke:#cccccc;stroke-linecap:square;stroke-width:1.75;"/>
   </g>
   <g id="line2d_43">
    <path clip-path="url(#pb446a67aa4)" d="M 41.938095 90.372491 
L 79.138095 90.372491 
" style="fill:none;stroke:#cccccc;stroke-linecap:square;stroke-width:1.75;"/>
   </g>
   <g id="line2d_44">
    <path clip-path="url(#pb446a67aa4)" d="M 116.338095 58.3986 
L 153.538095 58.3986 
" style="fill:none;stroke:#cccccc;stroke-linecap:square;stroke-width:1.75;"/>
   </g>
   <g id="line2d_45">
    <path clip-path="url(#pb446a67aa4)" d="M 190.738095 22.851813 
L 227.938095 22.851813 
" style="fill:none;stroke:#cccccc;stroke-linecap:square;stroke-width:1.75;"/>
   </g>
   <g id="line2d_46">
    <path clip-path="url(#pb446a67aa4)" d="M 41.938095 90.46019 
L 79.138095 90.46019 
" style="fill:none;stroke:#cccccc;stroke-linecap:square;stroke-width:1.75;"/>
   </g>
   <g id="line2d_47">
    <path clip-path="url(#pb446a67aa4)" d="M 116.338095 59.842304 
L 153.538095 59.842304 
" style="fill:none;stroke:#cccccc;stroke-linecap:square;stroke-width:1.75;"/>
   </g>
   <g id="line2d_48">
    <path clip-path="url(#pb446a67aa4)" d="M 190.738095 23.437702 
L 227.938095 23.437702 
" style="fill:none;stroke:#cccccc;stroke-linecap:square;stroke-width:1.75;"/>
   </g>
   <g id="line2d_49">
    <path clip-path="url(#pb446a67aa4)" d="M 41.938095 90.9878 
L 79.138095 90.9878 
" style="fill:none;stroke:#cccccc;stroke-linecap:square;stroke-width:1.75;"/>
   </g>
   <g id="line2d_50">
    <path clip-path="url(#pb446a67aa4)" d="M 116.338095 70.919044 
L 153.538095 70.919044 
" style="fill:none;stroke:#cccccc;stroke-linecap:square;stroke-width:1.75;"/>
   </g>
   <g id="line2d_51">
    <path clip-path="url(#pb446a67aa4)" d="M 190.738095 29.91555 
L 227.938095 29.91555 
" style="fill:none;stroke:#cccccc;stroke-linecap:square;stroke-width:1.75;"/>
   </g>
   <g id="line2d_52">
    <path clip-path="url(#pb446a67aa4)" d="M 41.938095 88.988329 
L 79.138095 88.988329 
" style="fill:none;stroke:#cccccc;stroke-linecap:square;stroke-width:1.75;"/>
   </g>
   <g id="line2d_53">
    <path clip-path="url(#pb446a67aa4)" d="M 116.338095 43.532598 
L 153.538095 43.532598 
" style="fill:none;stroke:#cccccc;stroke-linecap:square;stroke-width:1.75;"/>
   </g>
   <g id="line2d_54">
    <path clip-path="url(#pb446a67aa4)" d="M 190.738095 18.58305 
L 227.938095 18.58305 
" style="fill:none;stroke:#cccccc;stroke-linecap:square;stroke-width:1.75;"/>
   </g>
   <g id="line2d_55">
    <path clip-path="url(#pb446a67aa4)" d="M 41.938095 90.897838 
L 79.138095 90.897838 
" style="fill:none;stroke:#cccccc;stroke-linecap:square;stroke-width:1.75;"/>
   </g>
   <g id="line2d_56">
    <path clip-path="url(#pb446a67aa4)" d="M 116.338095 68.674832 
L 153.538095 68.674832 
" style="fill:none;stroke:#cccccc;stroke-linecap:square;stroke-width:1.75;"/>
   </g>
   <g id="line2d_57">
    <path clip-path="url(#pb446a67aa4)" d="M 190.738095 28.224657 
L 227.938095 28.224657 
" style="fill:none;stroke:#cccccc;stroke-linecap:square;stroke-width:1.75;"/>
   </g>
   <g id="line2d_58">
    <path clip-path="url(#pb446a67aa4)" d="M 41.938095 90.887134 
L 79.138095 90.887134 
" style="fill:none;stroke:#cccccc;stroke-linecap:square;stroke-width:1.75;"/>
   </g>
   <g id="line2d_59">
    <path clip-path="url(#pb446a67aa4)" d="M 116.338095 68.419328 
L 153.538095 68.419328 
" style="fill:none;stroke:#cccccc;stroke-linecap:square;stroke-width:1.75;"/>
   </g>
   <g id="line2d_60">
    <path clip-path="url(#pb446a67aa4)" d="M 190.738095 28.047727 
L 227.938095 28.047727 
" style="fill:none;stroke:#cccccc;stroke-linecap:square;stroke-width:1.75;"/>
   </g>
   <g id="line2d_61">
    <path clip-path="url(#pb446a67aa4)" d="M 41.938095 89.072767 
L 79.138095 89.072767 
" style="fill:none;stroke:#cccccc;stroke-linecap:square;stroke-width:1.75;"/>
   </g>
   <g id="line2d_62">
    <path clip-path="url(#pb446a67aa4)" d="M 116.338095 44.155454 
L 153.538095 44.155454 
" style="fill:none;stroke:#cccccc;stroke-linecap:square;stroke-width:1.75;"/>
   </g>
   <g id="line2d_63">
    <path clip-path="url(#pb446a67aa4)" d="M 190.738095 18.715713 
L 227.938095 18.715713 
" style="fill:none;stroke:#cccccc;stroke-linecap:square;stroke-width:1.75;"/>
   </g>
   <g id="line2d_64">
    <path clip-path="url(#pb446a67aa4)" d="M 41.938095 83.704729 
L 79.138095 83.704729 
" style="fill:none;stroke:#cccccc;stroke-linecap:square;stroke-width:1.75;"/>
   </g>
   <g id="line2d_65">
    <path clip-path="url(#pb446a67aa4)" d="M 116.338095 26.539109 
L 153.538095 26.539109 
" style="fill:none;stroke:#cccccc;stroke-linecap:square;stroke-width:1.75;"/>
   </g>
   <g id="line2d_66">
    <path clip-path="url(#pb446a67aa4)" d="M 190.738095 15.839838 
L 227.938095 15.839838 
" style="fill:none;stroke:#cccccc;stroke-linecap:square;stroke-width:1.75;"/>
   </g>
   <g id="line2d_67">
    <path clip-path="url(#pb446a67aa4)" d="M 41.938095 88.906955 
L 79.138095 88.906955 
" style="fill:none;stroke:#cccccc;stroke-linecap:square;stroke-width:1.75;"/>
   </g>
   <g id="line2d_68">
    <path clip-path="url(#pb446a67aa4)" d="M 116.338095 42.955403 
L 153.538095 42.955403 
" style="fill:none;stroke:#cccccc;stroke-linecap:square;stroke-width:1.75;"/>
   </g>
   <g id="line2d_69">
    <path clip-path="url(#pb446a67aa4)" d="M 190.738095 18.462731 
L 227.938095 18.462731 
" style="fill:none;stroke:#cccccc;stroke-linecap:square;stroke-width:1.75;"/>
   </g>
   <g id="line2d_70">
    <path clip-path="url(#pb446a67aa4)" d="M 41.938095 87.689113 
L 79.138095 87.689113 
" style="fill:none;stroke:#cccccc;stroke-linecap:square;stroke-width:1.75;"/>
   </g>
   <g id="line2d_71">
    <path clip-path="url(#pb446a67aa4)" d="M 116.338095 36.345268 
L 153.538095 36.345268 
" style="fill:none;stroke:#cccccc;stroke-linecap:square;stroke-width:1.75;"/>
   </g>
   <g id="line2d_72">
    <path clip-path="url(#pb446a67aa4)" d="M 190.738095 17.242113 
L 227.938095 17.242113 
" style="fill:none;stroke:#cccccc;stroke-linecap:square;stroke-width:1.75;"/>
   </g>
   <g id="line2d_73">
    <path clip-path="url(#pb446a67aa4)" d="M 41.938095 90.783186 
L 79.138095 90.783186 
" style="fill:none;stroke:#cccccc;stroke-linecap:square;stroke-width:1.75;"/>
   </g>
   <g id="line2d_74">
    <path clip-path="url(#pb446a67aa4)" d="M 116.338095 66.054599 
L 153.538095 66.054599 
" style="fill:none;stroke:#cccccc;stroke-linecap:square;stroke-width:1.75;"/>
   </g>
   <g id="line2d_75">
    <path clip-path="url(#pb446a67aa4)" d="M 190.738095 26.539261 
L 227.938095 26.539261 
" style="fill:none;stroke:#cccccc;stroke-linecap:square;stroke-width:1.75;"/>
   </g>
   <g id="line2d_76">
    <path clip-path="url(#pb446a67aa4)" d="M 41.938095 80.580475 
L 79.138095 80.580475 
" style="fill:none;stroke:#cccccc;stroke-linecap:square;stroke-width:1.75;"/>
   </g>
   <g id="line2d_77">
    <path clip-path="url(#pb446a67aa4)" d="M 116.338095 23.173429 
L 153.538095 23.173429 
" style="fill:none;stroke:#cccccc;stroke-linecap:square;stroke-width:1.75;"/>
   </g>
   <g id="line2d_78">
    <path clip-path="url(#pb446a67aa4)" d="M 190.738095 15.441816 
L 227.938095 15.441816 
" style="fill:none;stroke:#cccccc;stroke-linecap:square;stroke-width:1.75;"/>
   </g>
   <g id="line2d_79">
    <path clip-path="url(#pb446a67aa4)" d="M 41.938095 88.574257 
L 79.138095 88.574257 
" style="fill:none;stroke:#cccccc;stroke-linecap:square;stroke-width:1.75;"/>
   </g>
   <g id="line2d_80">
    <path clip-path="url(#pb446a67aa4)" d="M 116.338095 40.80576 
L 153.538095 40.80576 
" style="fill:none;stroke:#cccccc;stroke-linecap:square;stroke-width:1.75;"/>
   </g>
   <g id="line2d_81">
    <path clip-path="url(#pb446a67aa4)" d="M 190.738095 18.035515 
L 227.938095 18.035515 
" style="fill:none;stroke:#cccccc;stroke-linecap:square;stroke-width:1.75;"/>
   </g>
   <g id="line2d_82">
    <path clip-path="url(#pb446a67aa4)" d="M 41.938095 87.253968 
L 79.138095 87.253968 
" style="fill:none;stroke:#cccccc;stroke-linecap:square;stroke-width:1.75;"/>
   </g>
   <g id="line2d_83">
    <path clip-path="url(#pb446a67aa4)" d="M 116.338095 34.637493 
L 153.538095 34.637493 
" style="fill:none;stroke:#cccccc;stroke-linecap:square;stroke-width:1.75;"/>
   </g>
   <g id="line2d_84">
    <path clip-path="url(#pb446a67aa4)" d="M 190.738095 16.96732 
L 227.938095 16.96732 
" style="fill:none;stroke:#cccccc;stroke-linecap:square;stroke-width:1.75;"/>
   </g>
   <g id="line2d_85">
    <path clip-path="url(#pb446a67aa4)" d="M 41.938095 90.785727 
L 79.138095 90.785727 
" style="fill:none;stroke:#cccccc;stroke-linecap:square;stroke-width:1.75;"/>
   </g>
   <g id="line2d_86">
    <path clip-path="url(#pb446a67aa4)" d="M 116.338095 66.110009 
L 153.538095 66.110009 
" style="fill:none;stroke:#cccccc;stroke-linecap:square;stroke-width:1.75;"/>
   </g>
   <g id="line2d_87">
    <path clip-path="url(#pb446a67aa4)" d="M 190.738095 26.572149 
L 227.938095 26.572149 
" style="fill:none;stroke:#cccccc;stroke-linecap:square;stroke-width:1.75;"/>
   </g>
   <g id="line2d_88">
    <path clip-path="url(#pb446a67aa4)" d="M 41.938095 89.85951 
L 79.138095 89.85951 
" style="fill:none;stroke:#cccccc;stroke-linecap:square;stroke-width:1.75;"/>
   </g>
   <g id="line2d_89">
    <path clip-path="url(#pb446a67aa4)" d="M 116.338095 51.462062 
L 153.538095 51.462062 
" style="fill:none;stroke:#cccccc;stroke-linecap:square;stroke-width:1.75;"/>
   </g>
   <g id="line2d_90">
    <path clip-path="url(#pb446a67aa4)" d="M 190.738095 20.529875 
L 227.938095 20.529875 
" style="fill:none;stroke:#cccccc;stroke-linecap:square;stroke-width:1.75;"/>
   </g>
   <g id="line2d_91">
    <path clip-path="url(#pb446a67aa4)" d="M 41.938095 90.319198 
L 79.138095 90.319198 
" style="fill:none;stroke:#cccccc;stroke-linecap:square;stroke-width:1.75;"/>
   </g>
   <g id="line2d_92">
    <path clip-path="url(#pb446a67aa4)" d="M 116.338095 57.563878 
L 153.538095 57.563878 
" style="fill:none;stroke:#cccccc;stroke-linecap:square;stroke-width:1.75;"/>
   </g>
   <g id="line2d_93">
    <path clip-path="url(#pb446a67aa4)" d="M 190.738095 22.531554 
L 227.938095 22.531554 
" style="fill:none;stroke:#cccccc;stroke-linecap:square;stroke-width:1.75;"/>
   </g>
   <g id="line2d_94">
    <path clip-path="url(#pb446a67aa4)" d="M 41.938095 90.301596 
L 79.138095 90.301596 
" style="fill:none;stroke:#cccccc;stroke-linecap:square;stroke-width:1.75;"/>
   </g>
   <g id="line2d_95">
    <path clip-path="url(#pb446a67aa4)" d="M 116.338095 57.294881 
L 153.538095 57.294881 
" style="fill:none;stroke:#cccccc;stroke-linecap:square;stroke-width:1.75;"/>
   </g>
   <g id="line2d_96">
    <path clip-path="url(#pb446a67aa4)" d="M 190.738095 22.431059 
L 227.938095 22.431059 
" style="fill:none;stroke:#cccccc;stroke-linecap:square;stroke-width:1.75;"/>
   </g>
   <g id="line2d_97">
    <path clip-path="url(#pb446a67aa4)" d="M 41.938095 88.405911 
L 79.138095 88.405911 
" style="fill:none;stroke:#cccccc;stroke-linecap:square;stroke-width:1.75;"/>
   </g>
   <g id="line2d_98">
    <path clip-path="url(#pb446a67aa4)" d="M 116.338095 39.831177 
L 153.538095 39.831177 
" style="fill:none;stroke:#cccccc;stroke-linecap:square;stroke-width:1.75;"/>
   </g>
   <g id="line2d_99">
    <path clip-path="url(#pb446a67aa4)" d="M 190.738095 17.852002 
L 227.938095 17.852002 
" style="fill:none;stroke:#cccccc;stroke-linecap:square;stroke-width:1.75;"/>
   </g>
   <g id="line2d_100">
    <path clip-path="url(#pb446a67aa4)" d="M 41.938095 65.339695 
L 79.138095 65.339695 
" style="fill:none;stroke:#cccccc;stroke-linecap:square;stroke-width:1.75;"/>
   </g>
   <g id="line2d_101">
    <path clip-path="url(#pb446a67aa4)" d="M 116.338095 17.568861 
L 153.538095 17.568861 
" style="fill:none;stroke:#cccccc;stroke-linecap:square;stroke-width:1.75;"/>
   </g>
   <g id="line2d_102">
    <path clip-path="url(#pb446a67aa4)" d="M 190.738095 14.851764 
L 227.938095 14.851764 
" style="fill:none;stroke:#cccccc;stroke-linecap:square;stroke-width:1.75;"/>
   </g>
   <g id="line2d_103">
    <path clip-path="url(#pb446a67aa4)" d="M 41.938095 66.050541 
L 79.138095 66.050541 
" style="fill:none;stroke:#cccccc;stroke-linecap:square;stroke-width:1.75;"/>
   </g>
   <g id="line2d_104">
    <path clip-path="url(#pb446a67aa4)" d="M 116.338095 17.690483 
L 153.538095 17.690483 
" style="fill:none;stroke:#cccccc;stroke-linecap:square;stroke-width:1.75;"/>
   </g>
   <g id="line2d_105">
    <path clip-path="url(#pb446a67aa4)" d="M 190.738095 14.863708 
L 227.938095 14.863708 
" style="fill:none;stroke:#cccccc;stroke-linecap:square;stroke-width:1.75;"/>
   </g>
   <g id="line2d_106">
    <path clip-path="url(#pb446a67aa4)" d="M 41.938095 89.420835 
L 79.138095 89.420835 
" style="fill:none;stroke:#cccccc;stroke-linecap:square;stroke-width:1.75;"/>
   </g>
   <g id="line2d_107">
    <path clip-path="url(#pb446a67aa4)" d="M 116.338095 47.015036 
L 153.538095 47.015036 
" style="fill:none;stroke:#cccccc;stroke-linecap:square;stroke-width:1.75;"/>
   </g>
   <g id="line2d_108">
    <path clip-path="url(#pb446a67aa4)" d="M 190.738095 19.365339 
L 227.938095 19.365339 
" style="fill:none;stroke:#cccccc;stroke-linecap:square;stroke-width:1.75;"/>
   </g>
   <g id="line2d_109">
    <path clip-path="url(#pb446a67aa4)" d="M 41.938095 83.084099 
L 79.138095 83.084099 
" style="fill:none;stroke:#cccccc;stroke-linecap:square;stroke-width:1.75;"/>
   </g>
   <g id="line2d_110">
    <path clip-path="url(#pb446a67aa4)" d="M 116.338095 25.70542 
L 153.538095 25.70542 
" style="fill:none;stroke:#cccccc;stroke-linecap:square;stroke-width:1.75;"/>
   </g>
   <g id="line2d_111">
    <path clip-path="url(#pb446a67aa4)" d="M 190.738095 15.737855 
L 227.938095 15.737855 
" style="fill:none;stroke:#cccccc;stroke-linecap:square;stroke-width:1.75;"/>
   </g>
   <g id="matplotlib.axis_1"/>
   <g id="matplotlib.axis_2">
    <g id="ytick_1">
     <g id="line2d_112">
      <defs>
       <path d="M 0 0 
L -3.5 0 
" id="ma1a45441ce" style="stroke:#000000;stroke-width:0.8;"/>
      </defs>
      <g>
       <use style="stroke:#000000;stroke-width:0.8;" x="23.338095" xlink:href="#ma1a45441ce" y="91.926047"/>
      </g>
     </g>
     <g id="text_1">
      <!-- $0$ -->
      <defs>
       <path d="M 42 31.640625 
C 42 37.75 41.90625 48.125 37.703125 56.109375 
C 34 63.109375 28.09375 65.59375 22.90625 65.59375 
C 18.09375 65.59375 12 63.40625 8.203125 56.203125 
C 4.203125 48.71875 3.796875 39.4375 3.796875 31.640625 
C 3.796875 25.953125 3.90625 17.28125 7 9.671875 
C 11.296875 -0.609375 19 -2 22.90625 -2 
C 27.5 -2 34.5 -0.109375 38.59375 9.375 
C 41.59375 16.28125 42 24.359375 42 31.640625 
z
M 22.90625 -0.40625 
C 16.5 -0.40625 12.703125 5.078125 11.296875 12.6875 
C 10.203125 18.5625 10.203125 27.15625 10.203125 32.75 
C 10.203125 40.4375 10.203125 46.828125 11.5 52.921875 
C 13.40625 61.390625 19 64 22.90625 64 
C 27 64 32.296875 61.296875 34.203125 53.125 
C 35.5 47.4375 35.59375 40.734375 35.59375 32.75 
C 35.59375 26.25 35.59375 18.265625 34.40625 12.375 
C 32.296875 1.484375 26.40625 -0.40625 22.90625 -0.40625 
z
" id="CMR17-48"/>
      </defs>
      <g transform="translate(7.2 99.024367)scale(0.2 -0.2)">
       <use transform="scale(0.996264)" xlink:href="#CMR17-48"/>
      </g>
     </g>
    </g>
    <g id="ytick_2">
     <g id="line2d_113">
      <g>
       <use style="stroke:#000000;stroke-width:0.8;" x="23.338095" xlink:href="#ma1a45441ce" y="14.567907"/>
      </g>
     </g>
     <g id="text_2">
      <!-- $1$ -->
      <defs>
       <path d="M 26.59375 63.40625 
C 26.59375 65.5 26.5 65.5 25.09375 65.5 
C 21.203125 61.1875 15.296875 59.796875 9.703125 59.796875 
C 9.40625 59.796875 8.90625 59.796875 8.796875 59.5 
C 8.703125 59.296875 8.703125 59.09375 8.703125 57 
C 11.796875 57 17 57.59375 21 59.984375 
L 21 7.203125 
C 21 3.6875 20.796875 2.5 12.203125 2.5 
L 9.203125 2.5 
L 9.203125 0 
C 14 0 19 0 23.796875 0 
C 28.59375 0 33.59375 0 38.40625 0 
L 38.40625 2.5 
L 35.40625 2.5 
C 26.796875 2.5 26.59375 3.59375 26.59375 7.15625 
z
" id="CMR17-49"/>
      </defs>
      <g transform="translate(7.2 21.666227)scale(0.2 -0.2)">
       <use transform="scale(0.996264)" xlink:href="#CMR17-49"/>
      </g>
     </g>
    </g>
   </g>
   <g id="line2d_114">
    <path clip-path="url(#pb446a67aa4)" d="M 41.938095 57.445892 
L 79.138095 57.445892 
" style="fill:none;stroke:#1764ab;stroke-linecap:square;stroke-width:2;"/>
   </g>
   <g id="line2d_115">
    <path clip-path="url(#pb446a67aa4)" d="M 116.338095 16.5431 
L 153.538095 16.5431 
" style="fill:none;stroke:#1764ab;stroke-linecap:square;stroke-width:2;"/>
   </g>
   <g id="line2d_116">
    <path clip-path="url(#pb446a67aa4)" d="M 190.738095 14.752423 
L 227.938095 14.752423 
" style="fill:none;stroke:#1764ab;stroke-linecap:square;stroke-width:2;"/>
   </g>
   <g id="patch_3">
    <path d="M 23.338095 93.86 
L 23.338095 10.7 
" style="fill:none;stroke:#000000;stroke-linecap:square;stroke-linejoin:miter;stroke-width:0.8;"/>
   </g>
   <g id="patch_4">
    <path d="M 246.538095 93.86 
L 246.538095 10.7 
" style="fill:none;stroke:#000000;stroke-linecap:square;stroke-linejoin:miter;stroke-width:0.8;"/>
   </g>
   <g id="patch_5">
    <path d="M 23.338095 93.86 
L 246.538095 93.86 
" style="fill:none;stroke:#000000;stroke-linecap:square;stroke-linejoin:miter;stroke-width:0.8;"/>
   </g>
   <g id="patch_6">
    <path d="M 23.338095 10.7 
L 246.538095 10.7 
" style="fill:none;stroke:#000000;stroke-linecap:square;stroke-linejoin:miter;stroke-width:0.8;"/>
   </g>
   <g id="line2d_117">
    <path clip-path="url(#pb446a67aa4)" d="M 41.938095 69.091853 
L 79.138095 69.091853 
" style="fill:none;stroke:#c54102;stroke-linecap:square;stroke-width:2;"/>
   </g>
   <g id="line2d_118">
    <path clip-path="url(#pb446a67aa4)" d="M 116.338095 18.291745 
L 153.538095 18.291745 
" style="fill:none;stroke:#c54102;stroke-linecap:square;stroke-width:2;"/>
   </g>
   <g id="line2d_119">
    <path clip-path="url(#pb446a67aa4)" d="M 190.738095 14.923284 
L 227.938095 14.923284 
" style="fill:none;stroke:#c54102;stroke-linecap:square;stroke-width:2;"/>
   </g>
   <g id="line2d_120">
    <path clip-path="url(#pb446a67aa4)" d="M 41.938095 86.595096 
L 79.138095 86.595096 
" style="fill:none;stroke:#157f3b;stroke-linecap:square;stroke-width:2;"/>
   </g>
   <g id="line2d_121">
    <path clip-path="url(#pb446a67aa4)" d="M 116.338095 32.478507 
L 153.538095 32.478507 
" style="fill:none;stroke:#157f3b;stroke-linecap:square;stroke-width:2;"/>
   </g>
   <g id="line2d_122">
    <path clip-path="url(#pb446a67aa4)" d="M 190.738095 16.640025 
L 227.938095 16.640025 
" style="fill:none;stroke:#157f3b;stroke-linecap:square;stroke-width:2;"/>
   </g>
  </g>
 </g>
 <defs>
  <clipPath id="pb446a67aa4">
   <rect height="83.16" width="223.2" x="23.338095" y="10.7"/>
  </clipPath>
 </defs>
</svg>
