<?xml version="1.0" encoding="utf-8" standalone="no"?>
<!DOCTYPE svg PUBLIC "-//W3C//DTD SVG 1.1//EN"
  "http://www.w3.org/Graphics/SVG/1.1/DTD/svg11.dtd">
<!-- Created with matplotlib (http://matplotlib.org/) -->
<svg height="110pt" version="1.1" viewBox="0 0 257 110" width="257pt" xmlns="http://www.w3.org/2000/svg" xmlns:xlink="http://www.w3.org/1999/xlink">
 <defs>
  <style type="text/css">
*{stroke-linecap:butt;stroke-linejoin:round;}
  </style>
 </defs>
 <g id="figure_1">
  <g id="patch_1">
   <path d="M 0 110.46834 
L 257.238095 110.46834 
L 257.238095 0 
L 0 0 
z
" style="fill:#ffffff;"/>
  </g>
  <g id="axes_1">
   <g id="patch_2">
    <path d="M 23.338095 93.86 
L 246.538095 93.86 
L 246.538095 10.7 
L 23.338095 10.7 
z
" style="fill:#ffffff;"/>
   </g>
   <g id="line2d_1">
    <path clip-path="url(#p7318a13520)" d="M 41.938095 90.861011 
L 79.138095 90.861011 
" style="fill:none;stroke:#cccccc;stroke-linecap:square;stroke-width:1.75;"/>
   </g>
   <g id="line2d_2">
    <path clip-path="url(#p7318a13520)" d="M 116.338095 67.80547 
L 153.538095 67.80547 
" style="fill:none;stroke:#cccccc;stroke-linecap:square;stroke-width:1.75;"/>
   </g>
   <g id="line2d_3">
    <path clip-path="url(#p7318a13520)" d="M 190.738095 27.634382 
L 227.938095 27.634382 
" style="fill:none;stroke:#cccccc;stroke-linecap:square;stroke-width:1.75;"/>
   </g>
   <g id="line2d_4">
    <path clip-path="url(#p7318a13520)" d="M 41.938095 71.842535 
L 79.138095 71.842535 
" style="fill:none;stroke:#cccccc;stroke-linecap:square;stroke-width:1.75;"/>
   </g>
   <g id="line2d_5">
    <path clip-path="url(#p7318a13520)" d="M 116.338095 18.98287 
L 153.538095 18.98287 
" style="fill:none;stroke:#cccccc;stroke-linecap:square;stroke-width:1.75;"/>
   </g>
   <g id="line2d_6">
    <path clip-path="url(#p7318a13520)" d="M 190.738095 14.992865 
L 227.938095 14.992865 
" style="fill:none;stroke:#cccccc;stroke-linecap:square;stroke-width:1.75;"/>
   </g>
   <g id="line2d_7">
    <path clip-path="url(#p7318a13520)" d="M 41.938095 85.280749 
L 79.138095 85.280749 
" style="fill:none;stroke:#cccccc;stroke-linecap:square;stroke-width:1.75;"/>
   </g>
   <g id="line2d_8">
    <path clip-path="url(#p7318a13520)" d="M 116.338095 29.241709 
L 153.538095 29.241709 
" style="fill:none;stroke:#cccccc;stroke-linecap:square;stroke-width:1.75;"/>
   </g>
   <g id="line2d_9">
    <path clip-path="url(#p7318a13520)" d="M 190.738095 16.187126 
L 227.938095 16.187126 
" style="fill:none;stroke:#cccccc;stroke-linecap:square;stroke-width:1.75;"/>
   </g>
   <g id="line2d_10">
    <path clip-path="url(#p7318a13520)" d="M 41.938095 89.918107 
L 79.138095 89.918107 
" style="fill:none;stroke:#cccccc;stroke-linecap:square;stroke-width:1.75;"/>
   </g>
   <g id="line2d_11">
    <path clip-path="url(#p7318a13520)" d="M 116.338095 52.145466 
L 153.538095 52.145466 
" style="fill:none;stroke:#cccccc;stroke-linecap:square;stroke-width:1.75;"/>
   </g>
   <g id="line2d_12">
    <path clip-path="url(#p7318a13520)" d="M 190.738095 20.728306 
L 227.938095 20.728306 
" style="fill:none;stroke:#cccccc;stroke-linecap:square;stroke-width:1.75;"/>
   </g>
   <g id="line2d_13">
    <path clip-path="url(#p7318a13520)" d="M 41.938095 88.705173 
L 79.138095 88.705173 
" style="fill:none;stroke:#cccccc;stroke-linecap:square;stroke-width:1.75;"/>
   </g>
   <g id="line2d_14">
    <path clip-path="url(#p7318a13520)" d="M 116.338095 41.613861 
L 153.538095 41.613861 
" style="fill:none;stroke:#cccccc;stroke-linecap:square;stroke-width:1.75;"/>
   </g>
   <g id="line2d_15">
    <path clip-path="url(#p7318a13520)" d="M 190.738095 18.192381 
L 227.938095 18.192381 
" style="fill:none;stroke:#cccccc;stroke-linecap:square;stroke-width:1.75;"/>
   </g>
   <g id="line2d_16">
    <path clip-path="url(#p7318a13520)" d="M 41.938095 90.424105 
L 79.138095 90.424105 
" style="fill:none;stroke:#cccccc;stroke-linecap:square;stroke-width:1.75;"/>
   </g>
   <g id="line2d_17">
    <path clip-path="url(#p7318a13520)" d="M 116.338095 59.237319 
L 153.538095 59.237319 
" style="fill:none;stroke:#cccccc;stroke-linecap:square;stroke-width:1.75;"/>
   </g>
   <g id="line2d_18">
    <path clip-path="url(#p7318a13520)" d="M 190.738095 23.187045 
L 227.938095 23.187045 
" style="fill:none;stroke:#cccccc;stroke-linecap:square;stroke-width:1.75;"/>
   </g>
   <g id="line2d_19">
    <path clip-path="url(#p7318a13520)" d="M 41.938095 86.632017 
L 79.138095 86.632017 
" style="fill:none;stroke:#cccccc;stroke-linecap:square;stroke-width:1.75;"/>
   </g>
   <g id="line2d_20">
    <path clip-path="url(#p7318a13520)" d="M 116.338095 32.588072 
L 153.538095 32.588072 
" style="fill:none;stroke:#cccccc;stroke-linecap:square;stroke-width:1.75;"/>
   </g>
   <g id="line2d_21">
    <path clip-path="url(#p7318a13520)" d="M 190.738095 16.656124 
L 227.938095 16.656124 
" style="fill:none;stroke:#cccccc;stroke-linecap:square;stroke-width:1.75;"/>
   </g>
   <g id="line2d_22">
    <path clip-path="url(#p7318a13520)" d="M 41.938095 89.053686 
L 79.138095 89.053686 
" style="fill:none;stroke:#cccccc;stroke-linecap:square;stroke-width:1.75;"/>
   </g>
   <g id="line2d_23">
    <path clip-path="url(#p7318a13520)" d="M 116.338095 44.012495 
L 153.538095 44.012495 
" style="fill:none;stroke:#cccccc;stroke-linecap:square;stroke-width:1.75;"/>
   </g>
   <g id="line2d_24">
    <path clip-path="url(#p7318a13520)" d="M 190.738095 18.684999 
L 227.938095 18.684999 
" style="fill:none;stroke:#cccccc;stroke-linecap:square;stroke-width:1.75;"/>
   </g>
   <g id="line2d_25">
    <path clip-path="url(#p7318a13520)" d="M 41.938095 89.408749 
L 79.138095 89.408749 
" style="fill:none;stroke:#cccccc;stroke-linecap:square;stroke-width:1.75;"/>
   </g>
   <g id="line2d_26">
    <path clip-path="url(#p7318a13520)" d="M 116.338095 46.906996 
L 153.538095 46.906996 
" style="fill:none;stroke:#cccccc;stroke-linecap:square;stroke-width:1.75;"/>
   </g>
   <g id="line2d_27">
    <path clip-path="url(#p7318a13520)" d="M 190.738095 19.339506 
L 227.938095 19.339506 
" style="fill:none;stroke:#cccccc;stroke-linecap:square;stroke-width:1.75;"/>
   </g>
   <g id="line2d_28">
    <path clip-path="url(#p7318a13520)" d="M 41.938095 74.228759 
L 79.138095 74.228759 
" style="fill:none;stroke:#cccccc;stroke-linecap:square;stroke-width:1.75;"/>
   </g>
   <g id="line2d_29">
    <path clip-path="url(#p7318a13520)" d="M 116.338095 19.74457 
L 153.538095 19.74457 
" style="fill:none;stroke:#cccccc;stroke-linecap:square;stroke-width:1.75;"/>
   </g>
   <g id="line2d_30">
    <path clip-path="url(#p7318a13520)" d="M 190.738095 15.070952 
L 227.938095 15.070952 
" style="fill:none;stroke:#cccccc;stroke-linecap:square;stroke-width:1.75;"/>
   </g>
   <g id="line2d_31">
    <path clip-path="url(#p7318a13520)" d="M 41.938095 91.093437 
L 79.138095 91.093437 
" style="fill:none;stroke:#cccccc;stroke-linecap:square;stroke-width:1.75;"/>
   </g>
   <g id="line2d_32">
    <path clip-path="url(#p7318a13520)" d="M 116.338095 73.796324 
L 153.538095 73.796324 
" style="fill:none;stroke:#cccccc;stroke-linecap:square;stroke-width:1.75;"/>
   </g>
   <g id="line2d_33">
    <path clip-path="url(#p7318a13520)" d="M 190.738095 32.51866 
L 227.938095 32.51866 
" style="fill:none;stroke:#cccccc;stroke-linecap:square;stroke-width:1.75;"/>
   </g>
   <g id="line2d_34">
    <path clip-path="url(#p7318a13520)" d="M 41.938095 85.714878 
L 79.138095 85.714878 
" style="fill:none;stroke:#cccccc;stroke-linecap:square;stroke-width:1.75;"/>
   </g>
   <g id="line2d_35">
    <path clip-path="url(#p7318a13520)" d="M 116.338095 30.185484 
L 153.538095 30.185484 
" style="fill:none;stroke:#cccccc;stroke-linecap:square;stroke-width:1.75;"/>
   </g>
   <g id="line2d_36">
    <path clip-path="url(#p7318a13520)" d="M 190.738095 16.3148 
L 227.938095 16.3148 
" style="fill:none;stroke:#cccccc;stroke-linecap:square;stroke-width:1.75;"/>
   </g>
   <g id="line2d_37">
    <path clip-path="url(#p7318a13520)" d="M 41.938095 66.645462 
L 79.138095 66.645462 
" style="fill:none;stroke:#cccccc;stroke-linecap:square;stroke-width:1.75;"/>
   </g>
   <g id="line2d_38">
    <path clip-path="url(#p7318a13520)" d="M 116.338095 17.797271 
L 153.538095 17.797271 
" style="fill:none;stroke:#cccccc;stroke-linecap:square;stroke-width:1.75;"/>
   </g>
   <g id="line2d_39">
    <path clip-path="url(#p7318a13520)" d="M 190.738095 14.874225 
L 227.938095 14.874225 
" style="fill:none;stroke:#cccccc;stroke-linecap:square;stroke-width:1.75;"/>
   </g>
   <g id="line2d_40">
    <path clip-path="url(#p7318a13520)" d="M 41.938095 85.88096 
L 79.138095 85.88096 
" style="fill:none;stroke:#cccccc;stroke-linecap:square;stroke-width:1.75;"/>
   </g>
   <g id="line2d_41">
    <path clip-path="url(#p7318a13520)" d="M 116.338095 30.576055 
L 153.538095 30.576055 
" style="fill:none;stroke:#cccccc;stroke-linecap:square;stroke-width:1.75;"/>
   </g>
   <g id="line2d_42">
    <path clip-path="url(#p7318a13520)" d="M 190.738095 16.368662 
L 227.938095 16.368662 
" style="fill:none;stroke:#cccccc;stroke-linecap:square;stroke-width:1.75;"/>
   </g>
   <g id="line2d_43">
    <path clip-path="url(#p7318a13520)" d="M 41.938095 90.421525 
L 79.138095 90.421525 
" style="fill:none;stroke:#cccccc;stroke-linecap:square;stroke-width:1.75;"/>
   </g>
   <g id="line2d_44">
    <path clip-path="url(#p7318a13520)" d="M 116.338095 59.194651 
L 153.538095 59.194651 
" style="fill:none;stroke:#cccccc;stroke-linecap:square;stroke-width:1.75;"/>
   </g>
   <g id="line2d_45">
    <path clip-path="url(#p7318a13520)" d="M 190.738095 23.169653 
L 227.938095 23.169653 
" style="fill:none;stroke:#cccccc;stroke-linecap:square;stroke-width:1.75;"/>
   </g>
   <g id="line2d_46">
    <path clip-path="url(#p7318a13520)" d="M 41.938095 91.041313 
L 79.138095 91.041313 
" style="fill:none;stroke:#cccccc;stroke-linecap:square;stroke-width:1.75;"/>
   </g>
   <g id="line2d_47">
    <path clip-path="url(#p7318a13520)" d="M 116.338095 72.34178 
L 153.538095 72.34178 
" style="fill:none;stroke:#cccccc;stroke-linecap:square;stroke-width:1.75;"/>
   </g>
   <g id="line2d_48">
    <path clip-path="url(#p7318a13520)" d="M 190.738095 31.133283 
L 227.938095 31.133283 
" style="fill:none;stroke:#cccccc;stroke-linecap:square;stroke-width:1.75;"/>
   </g>
   <g id="line2d_49">
    <path clip-path="url(#p7318a13520)" d="M 41.938095 90.796293 
L 79.138095 90.796293 
" style="fill:none;stroke:#cccccc;stroke-linecap:square;stroke-width:1.75;"/>
   </g>
   <g id="line2d_50">
    <path clip-path="url(#p7318a13520)" d="M 116.338095 66.341624 
L 153.538095 66.341624 
" style="fill:none;stroke:#cccccc;stroke-linecap:square;stroke-width:1.75;"/>
   </g>
   <g id="line2d_51">
    <path clip-path="url(#p7318a13520)" d="M 190.738095 26.710815 
L 227.938095 26.710815 
" style="fill:none;stroke:#cccccc;stroke-linecap:square;stroke-width:1.75;"/>
   </g>
   <g id="line2d_52">
    <path clip-path="url(#p7318a13520)" d="M 41.938095 89.158238 
L 79.138095 89.158238 
" style="fill:none;stroke:#cccccc;stroke-linecap:square;stroke-width:1.75;"/>
   </g>
   <g id="line2d_53">
    <path clip-path="url(#p7318a13520)" d="M 116.338095 44.812283 
L 153.538095 44.812283 
" style="fill:none;stroke:#cccccc;stroke-linecap:square;stroke-width:1.75;"/>
   </g>
   <g id="line2d_54">
    <path clip-path="url(#p7318a13520)" d="M 190.738095 18.858896 
L 227.938095 18.858896 
" style="fill:none;stroke:#cccccc;stroke-linecap:square;stroke-width:1.75;"/>
   </g>
   <g id="line2d_55">
    <path clip-path="url(#p7318a13520)" d="M 41.938095 90.273435 
L 79.138095 90.273435 
" style="fill:none;stroke:#cccccc;stroke-linecap:square;stroke-width:1.75;"/>
   </g>
   <g id="line2d_56">
    <path clip-path="url(#p7318a13520)" d="M 116.338095 56.871177 
L 153.538095 56.871177 
" style="fill:none;stroke:#cccccc;stroke-linecap:square;stroke-width:1.75;"/>
   </g>
   <g id="line2d_57">
    <path clip-path="url(#p7318a13520)" d="M 190.738095 22.27535 
L 227.938095 22.27535 
" style="fill:none;stroke:#cccccc;stroke-linecap:square;stroke-width:1.75;"/>
   </g>
   <g id="line2d_58">
    <path clip-path="url(#p7318a13520)" d="M 41.938095 90.891639 
L 79.138095 90.891639 
" style="fill:none;stroke:#cccccc;stroke-linecap:square;stroke-width:1.75;"/>
   </g>
   <g id="line2d_59">
    <path clip-path="url(#p7318a13520)" d="M 116.338095 68.526575 
L 153.538095 68.526575 
" style="fill:none;stroke:#cccccc;stroke-linecap:square;stroke-width:1.75;"/>
   </g>
   <g id="line2d_60">
    <path clip-path="url(#p7318a13520)" d="M 190.738095 28.121635 
L 227.938095 28.121635 
" style="fill:none;stroke:#cccccc;stroke-linecap:square;stroke-width:1.75;"/>
   </g>
   <g id="line2d_61">
    <path clip-path="url(#p7318a13520)" d="M 41.938095 87.686506 
L 79.138095 87.686506 
" style="fill:none;stroke:#cccccc;stroke-linecap:square;stroke-width:1.75;"/>
   </g>
   <g id="line2d_62">
    <path clip-path="url(#p7318a13520)" d="M 116.338095 36.334236 
L 153.538095 36.334236 
" style="fill:none;stroke:#cccccc;stroke-linecap:square;stroke-width:1.75;"/>
   </g>
   <g id="line2d_63">
    <path clip-path="url(#p7318a13520)" d="M 190.738095 17.24029 
L 227.938095 17.24029 
" style="fill:none;stroke:#cccccc;stroke-linecap:square;stroke-width:1.75;"/>
   </g>
   <g id="line2d_64">
    <path clip-path="url(#p7318a13520)" d="M 41.938095 84.806967 
L 79.138095 84.806967 
" style="fill:none;stroke:#cccccc;stroke-linecap:square;stroke-width:1.75;"/>
   </g>
   <g id="line2d_65">
    <path clip-path="url(#p7318a13520)" d="M 116.338095 28.322847 
L 153.538095 28.322847 
" style="fill:none;stroke:#cccccc;stroke-linecap:square;stroke-width:1.75;"/>
   </g>
   <g id="line2d_66">
    <path clip-path="url(#p7318a13520)" d="M 190.738095 16.066083 
L 227.938095 16.066083 
" style="fill:none;stroke:#cccccc;stroke-linecap:square;stroke-width:1.75;"/>
   </g>
   <g id="line2d_67">
    <path clip-path="url(#p7318a13520)" d="M 41.938095 90.03201 
L 79.138095 90.03201 
" style="fill:none;stroke:#cccccc;stroke-linecap:square;stroke-width:1.75;"/>
   </g>
   <g id="line2d_68">
    <path clip-path="url(#p7318a13520)" d="M 116.338095 53.545711 
L 153.538095 53.545711 
" style="fill:none;stroke:#cccccc;stroke-linecap:square;stroke-width:1.75;"/>
   </g>
   <g id="line2d_69">
    <path clip-path="url(#p7318a13520)" d="M 190.738095 21.153389 
L 227.938095 21.153389 
" style="fill:none;stroke:#cccccc;stroke-linecap:square;stroke-width:1.75;"/>
   </g>
   <g id="line2d_70">
    <path clip-path="url(#p7318a13520)" d="M 41.938095 89.831828 
L 79.138095 89.831828 
" style="fill:none;stroke:#cccccc;stroke-linecap:square;stroke-width:1.75;"/>
   </g>
   <g id="line2d_71">
    <path clip-path="url(#p7318a13520)" d="M 116.338095 51.14742 
L 153.538095 51.14742 
" style="fill:none;stroke:#cccccc;stroke-linecap:square;stroke-width:1.75;"/>
   </g>
   <g id="line2d_72">
    <path clip-path="url(#p7318a13520)" d="M 190.738095 20.44041 
L 227.938095 20.44041 
" style="fill:none;stroke:#cccccc;stroke-linecap:square;stroke-width:1.75;"/>
   </g>
   <g id="line2d_73">
    <path clip-path="url(#p7318a13520)" d="M 41.938095 87.585371 
L 79.138095 87.585371 
" style="fill:none;stroke:#cccccc;stroke-linecap:square;stroke-width:1.75;"/>
   </g>
   <g id="line2d_74">
    <path clip-path="url(#p7318a13520)" d="M 116.338095 35.914185 
L 153.538095 35.914185 
" style="fill:none;stroke:#cccccc;stroke-linecap:square;stroke-width:1.75;"/>
   </g>
   <g id="line2d_75">
    <path clip-path="url(#p7318a13520)" d="M 190.738095 17.171352 
L 227.938095 17.171352 
" style="fill:none;stroke:#cccccc;stroke-linecap:square;stroke-width:1.75;"/>
   </g>
   <g id="line2d_76">
    <path clip-path="url(#p7318a13520)" d="M 41.938095 74.656923 
L 79.138095 74.656923 
" style="fill:none;stroke:#cccccc;stroke-linecap:square;stroke-width:1.75;"/>
   </g>
   <g id="line2d_77">
    <path clip-path="url(#p7318a13520)" d="M 116.338095 19.901961 
L 153.538095 19.901961 
" style="fill:none;stroke:#cccccc;stroke-linecap:square;stroke-width:1.75;"/>
   </g>
   <g id="line2d_78">
    <path clip-path="url(#p7318a13520)" d="M 190.738095 15.087274 
L 227.938095 15.087274 
" style="fill:none;stroke:#cccccc;stroke-linecap:square;stroke-width:1.75;"/>
   </g>
   <g id="line2d_79">
    <path clip-path="url(#p7318a13520)" d="M 41.938095 90.991691 
L 79.138095 90.991691 
" style="fill:none;stroke:#cccccc;stroke-linecap:square;stroke-width:1.75;"/>
   </g>
   <g id="line2d_80">
    <path clip-path="url(#p7318a13520)" d="M 116.338095 71.020191 
L 153.538095 71.020191 
" style="fill:none;stroke:#cccccc;stroke-linecap:square;stroke-width:1.75;"/>
   </g>
   <g id="line2d_81">
    <path clip-path="url(#p7318a13520)" d="M 190.738095 29.998078 
L 227.938095 29.998078 
" style="fill:none;stroke:#cccccc;stroke-linecap:square;stroke-width:1.75;"/>
   </g>
   <g id="line2d_82">
    <path clip-path="url(#p7318a13520)" d="M 41.938095 87.98742 
L 79.138095 87.98742 
" style="fill:none;stroke:#cccccc;stroke-linecap:square;stroke-width:1.75;"/>
   </g>
   <g id="line2d_83">
    <path clip-path="url(#p7318a13520)" d="M 116.338095 37.680022 
L 153.538095 37.680022 
" style="fill:none;stroke:#cccccc;stroke-linecap:square;stroke-width:1.75;"/>
   </g>
   <g id="line2d_84">
    <path clip-path="url(#p7318a13520)" d="M 190.738095 17.467488 
L 227.938095 17.467488 
" style="fill:none;stroke:#cccccc;stroke-linecap:square;stroke-width:1.75;"/>
   </g>
   <g id="line2d_85">
    <path clip-path="url(#p7318a13520)" d="M 41.938095 89.748074 
L 79.138095 89.748074 
" style="fill:none;stroke:#cccccc;stroke-linecap:square;stroke-width:1.75;"/>
   </g>
   <g id="line2d_86">
    <path clip-path="url(#p7318a13520)" d="M 116.338095 50.225999 
L 153.538095 50.225999 
" style="fill:none;stroke:#cccccc;stroke-linecap:square;stroke-width:1.75;"/>
   </g>
   <g id="line2d_87">
    <path clip-path="url(#p7318a13520)" d="M 190.738095 20.185013 
L 227.938095 20.185013 
" style="fill:none;stroke:#cccccc;stroke-linecap:square;stroke-width:1.75;"/>
   </g>
   <g id="line2d_88">
    <path clip-path="url(#p7318a13520)" d="M 41.938095 90.136433 
L 79.138095 90.136433 
" style="fill:none;stroke:#cccccc;stroke-linecap:square;stroke-width:1.75;"/>
   </g>
   <g id="line2d_89">
    <path clip-path="url(#p7318a13520)" d="M 116.338095 54.920219 
L 153.538095 54.920219 
" style="fill:none;stroke:#cccccc;stroke-linecap:square;stroke-width:1.75;"/>
   </g>
   <g id="line2d_90">
    <path clip-path="url(#p7318a13520)" d="M 190.738095 21.596743 
L 227.938095 21.596743 
" style="fill:none;stroke:#cccccc;stroke-linecap:square;stroke-width:1.75;"/>
   </g>
   <g id="line2d_91">
    <path clip-path="url(#p7318a13520)" d="M 41.938095 74.861657 
L 79.138095 74.861657 
" style="fill:none;stroke:#cccccc;stroke-linecap:square;stroke-width:1.75;"/>
   </g>
   <g id="line2d_92">
    <path clip-path="url(#p7318a13520)" d="M 116.338095 19.979814 
L 153.538095 19.979814 
" style="fill:none;stroke:#cccccc;stroke-linecap:square;stroke-width:1.75;"/>
   </g>
   <g id="line2d_93">
    <path clip-path="url(#p7318a13520)" d="M 190.738095 15.095372 
L 227.938095 15.095372 
" style="fill:none;stroke:#cccccc;stroke-linecap:square;stroke-width:1.75;"/>
   </g>
   <g id="line2d_94">
    <path clip-path="url(#p7318a13520)" d="M 41.938095 90.031959 
L 79.138095 90.031959 
" style="fill:none;stroke:#cccccc;stroke-linecap:square;stroke-width:1.75;"/>
   </g>
   <g id="line2d_95">
    <path clip-path="url(#p7318a13520)" d="M 116.338095 53.545052 
L 153.538095 53.545052 
" style="fill:none;stroke:#cccccc;stroke-linecap:square;stroke-width:1.75;"/>
   </g>
   <g id="line2d_96">
    <path clip-path="url(#p7318a13520)" d="M 190.738095 21.153183 
L 227.938095 21.153183 
" style="fill:none;stroke:#cccccc;stroke-linecap:square;stroke-width:1.75;"/>
   </g>
   <g id="line2d_97">
    <path clip-path="url(#p7318a13520)" d="M 41.938095 89.44711 
L 79.138095 89.44711 
" style="fill:none;stroke:#cccccc;stroke-linecap:square;stroke-width:1.75;"/>
   </g>
   <g id="line2d_98">
    <path clip-path="url(#p7318a13520)" d="M 116.338095 47.252307 
L 153.538095 47.252307 
" style="fill:none;stroke:#cccccc;stroke-linecap:square;stroke-width:1.75;"/>
   </g>
   <g id="line2d_99">
    <path clip-path="url(#p7318a13520)" d="M 190.738095 19.422447 
L 227.938095 19.422447 
" style="fill:none;stroke:#cccccc;stroke-linecap:square;stroke-width:1.75;"/>
   </g>
   <g id="line2d_100">
    <path clip-path="url(#p7318a13520)" d="M 41.938095 82.302226 
L 79.138095 82.302226 
" style="fill:none;stroke:#cccccc;stroke-linecap:square;stroke-width:1.75;"/>
   </g>
   <g id="line2d_101">
    <path clip-path="url(#p7318a13520)" d="M 116.338095 24.79002 
L 153.538095 24.79002 
" style="fill:none;stroke:#cccccc;stroke-linecap:square;stroke-width:1.75;"/>
   </g>
   <g id="line2d_102">
    <path clip-path="url(#p7318a13520)" d="M 190.738095 15.628505 
L 227.938095 15.628505 
" style="fill:none;stroke:#cccccc;stroke-linecap:square;stroke-width:1.75;"/>
   </g>
   <g id="line2d_103">
    <path clip-path="url(#p7318a13520)" d="M 41.938095 86.083062 
L 79.138095 86.083062 
" style="fill:none;stroke:#cccccc;stroke-linecap:square;stroke-width:1.75;"/>
   </g>
   <g id="line2d_104">
    <path clip-path="url(#p7318a13520)" d="M 116.338095 31.075841 
L 153.538095 31.075841 
" style="fill:none;stroke:#cccccc;stroke-linecap:square;stroke-width:1.75;"/>
   </g>
   <g id="line2d_105">
    <path clip-path="url(#p7318a13520)" d="M 190.738095 16.438485 
L 227.938095 16.438485 
" style="fill:none;stroke:#cccccc;stroke-linecap:square;stroke-width:1.75;"/>
   </g>
   <g id="line2d_106">
    <path clip-path="url(#p7318a13520)" d="M 41.938095 90.65332 
L 79.138095 90.65332 
" style="fill:none;stroke:#cccccc;stroke-linecap:square;stroke-width:1.75;"/>
   </g>
   <g id="line2d_107">
    <path clip-path="url(#p7318a13520)" d="M 116.338095 63.369116 
L 153.538095 63.369116 
" style="fill:none;stroke:#cccccc;stroke-linecap:square;stroke-width:1.75;"/>
   </g>
   <g id="line2d_108">
    <path clip-path="url(#p7318a13520)" d="M 190.738095 25.066923 
L 227.938095 25.066923 
" style="fill:none;stroke:#cccccc;stroke-linecap:square;stroke-width:1.75;"/>
   </g>
   <g id="line2d_109">
    <path clip-path="url(#p7318a13520)" d="M 41.938095 90.59172 
L 79.138095 90.59172 
" style="fill:none;stroke:#cccccc;stroke-linecap:square;stroke-width:1.75;"/>
   </g>
   <g id="line2d_110">
    <path clip-path="url(#p7318a13520)" d="M 116.338095 62.187982 
L 153.538095 62.187982 
" style="fill:none;stroke:#cccccc;stroke-linecap:square;stroke-width:1.75;"/>
   </g>
   <g id="line2d_111">
    <path clip-path="url(#p7318a13520)" d="M 190.738095 24.486814 
L 227.938095 24.486814 
" style="fill:none;stroke:#cccccc;stroke-linecap:square;stroke-width:1.75;"/>
   </g>
   <g id="matplotlib.axis_1"/>
   <g id="matplotlib.axis_2">
    <g id="ytick_1">
     <g id="line2d_112">
      <defs>
       <path d="M 0 0 
L -3.5 0 
" id="m9d81acb37c" style="stroke:#000000;stroke-width:0.8;"/>
      </defs>
      <g>
       <use style="stroke:#000000;stroke-width:0.8;" x="23.338095" xlink:href="#m9d81acb37c" y="91.926047"/>
      </g>
     </g>
     <g id="text_1">
      <!-- $0$ -->
      <defs>
       <path d="M 42 31.640625 
C 42 37.75 41.90625 48.125 37.703125 56.109375 
C 34 63.109375 28.09375 65.59375 22.90625 65.59375 
C 18.09375 65.59375 12 63.40625 8.203125 56.203125 
C 4.203125 48.71875 3.796875 39.4375 3.796875 31.640625 
C 3.796875 25.953125 3.90625 17.28125 7 9.671875 
C 11.296875 -0.609375 19 -2 22.90625 -2 
C 27.5 -2 34.5 -0.109375 38.59375 9.375 
C 41.59375 16.28125 42 24.359375 42 31.640625 
z
M 22.90625 -0.40625 
C 16.5 -0.40625 12.703125 5.078125 11.296875 12.6875 
C 10.203125 18.5625 10.203125 27.15625 10.203125 32.75 
C 10.203125 40.4375 10.203125 46.828125 11.5 52.921875 
C 13.40625 61.390625 19 64 22.90625 64 
C 27 64 32.296875 61.296875 34.203125 53.125 
C 35.5 47.4375 35.59375 40.734375 35.59375 32.75 
C 35.59375 26.25 35.59375 18.265625 34.40625 12.375 
C 32.296875 1.484375 26.40625 -0.40625 22.90625 -0.40625 
z
" id="CMR17-48"/>
      </defs>
      <g transform="translate(7.2 99.024367)scale(0.2 -0.2)">
       <use transform="scale(0.996264)" xlink:href="#CMR17-48"/>
      </g>
     </g>
    </g>
    <g id="ytick_2">
     <g id="line2d_113">
      <g>
       <use style="stroke:#000000;stroke-width:0.8;" x="23.338095" xlink:href="#m9d81acb37c" y="14.567907"/>
      </g>
     </g>
     <g id="text_2">
      <!-- $1$ -->
      <defs>
       <path d="M 26.59375 63.40625 
C 26.59375 65.5 26.5 65.5 25.09375 65.5 
C 21.203125 61.1875 15.296875 59.796875 9.703125 59.796875 
C 9.40625 59.796875 8.90625 59.796875 8.796875 59.5 
C 8.703125 59.296875 8.703125 59.09375 8.703125 57 
C 11.796875 57 17 57.59375 21 59.984375 
L 21 7.203125 
C 21 3.6875 20.796875 2.5 12.203125 2.5 
L 9.203125 2.5 
L 9.203125 0 
C 14 0 19 0 23.796875 0 
C 28.59375 0 33.59375 0 38.40625 0 
L 38.40625 2.5 
L 35.40625 2.5 
C 26.796875 2.5 26.59375 3.59375 26.59375 7.15625 
z
" id="CMR17-49"/>
      </defs>
      <g transform="translate(7.2 21.666227)scale(0.2 -0.2)">
       <use transform="scale(0.996264)" xlink:href="#CMR17-49"/>
      </g>
     </g>
    </g>
   </g>
   <g id="line2d_114">
    <path clip-path="url(#p7318a13520)" d="M 41.938095 33.970888 
L 79.138095 33.970888 
" style="fill:none;stroke:#1764ab;stroke-linecap:square;stroke-width:2;"/>
   </g>
   <g id="line2d_115">
    <path clip-path="url(#p7318a13520)" d="M 116.338095 15.107597 
L 153.538095 15.107597 
" style="fill:none;stroke:#1764ab;stroke-linecap:square;stroke-width:2;"/>
   </g>
   <g id="line2d_116">
    <path clip-path="url(#p7318a13520)" d="M 190.738095 14.617463 
L 227.938095 14.617463 
" style="fill:none;stroke:#1764ab;stroke-linecap:square;stroke-width:2;"/>
   </g>
   <g id="patch_3">
    <path d="M 23.338095 93.86 
L 23.338095 10.7 
" style="fill:none;stroke:#000000;stroke-linecap:square;stroke-linejoin:miter;stroke-width:0.8;"/>
   </g>
   <g id="patch_4">
    <path d="M 246.538095 93.86 
L 246.538095 10.7 
" style="fill:none;stroke:#000000;stroke-linecap:square;stroke-linejoin:miter;stroke-width:0.8;"/>
   </g>
   <g id="patch_5">
    <path d="M 23.338095 93.86 
L 246.538095 93.86 
" style="fill:none;stroke:#000000;stroke-linecap:square;stroke-linejoin:miter;stroke-width:0.8;"/>
   </g>
   <g id="patch_6">
    <path d="M 23.338095 10.7 
L 246.538095 10.7 
" style="fill:none;stroke:#000000;stroke-linecap:square;stroke-linejoin:miter;stroke-width:0.8;"/>
   </g>
   <g id="line2d_117">
    <path clip-path="url(#p7318a13520)" d="M 41.938095 89.579231 
L 79.138095 89.579231 
" style="fill:none;stroke:#c54102;stroke-linecap:square;stroke-width:2;"/>
   </g>
   <g id="line2d_118">
    <path clip-path="url(#p7318a13520)" d="M 116.338095 48.49724 
L 153.538095 48.49724 
" style="fill:none;stroke:#c54102;stroke-linecap:square;stroke-width:2;"/>
   </g>
   <g id="line2d_119">
    <path clip-path="url(#p7318a13520)" d="M 190.738095 19.730832 
L 227.938095 19.730832 
" style="fill:none;stroke:#c54102;stroke-linecap:square;stroke-width:2;"/>
   </g>
   <g id="line2d_120">
    <path clip-path="url(#p7318a13520)" d="M 41.938095 88.981728 
L 79.138095 88.981728 
" style="fill:none;stroke:#157f3b;stroke-linecap:square;stroke-width:2;"/>
   </g>
   <g id="line2d_121">
    <path clip-path="url(#p7318a13520)" d="M 116.338095 43.484949 
L 153.538095 43.484949 
" style="fill:none;stroke:#157f3b;stroke-linecap:square;stroke-width:2;"/>
   </g>
   <g id="line2d_122">
    <path clip-path="url(#p7318a13520)" d="M 190.738095 18.573023 
L 227.938095 18.573023 
" style="fill:none;stroke:#157f3b;stroke-linecap:square;stroke-width:2;"/>
   </g>
  </g>
 </g>
 <defs>
  <clipPath id="p7318a13520">
   <rect height="83.16" width="223.2" x="23.338095" y="10.7"/>
  </clipPath>
 </defs>
</svg>
