<?xml version="1.0" encoding="utf-8" standalone="no"?>
<!DOCTYPE svg PUBLIC "-//W3C//DTD SVG 1.1//EN"
  "http://www.w3.org/Graphics/SVG/1.1/DTD/svg11.dtd">
<!-- Created with matplotlib (http://matplotlib.org/) -->
<svg height="165pt" version="1.1" viewBox="0 0 313 165" width="313pt" xmlns="http://www.w3.org/2000/svg" xmlns:xlink="http://www.w3.org/1999/xlink">
 <defs>
  <style type="text/css">
*{stroke-linecap:butt;stroke-linejoin:round;}
  </style>
 </defs>
 <g id="figure_1">
  <g id="patch_1">
   <path d="M 0 165.322293 
L 313.038095 165.322293 
L 313.038095 0 
L 0 0 
z
" style="fill:#ffffff;"/>
  </g>
  <g id="axes_1">
   <g id="patch_2">
    <path d="M 23.338095 149.3 
L 302.338095 149.3 
L 302.338095 10.7 
L 23.338095 10.7 
z
" style="fill:#ffffff;"/>
   </g>
   <g id="patch_3">
    <path clip-path="url(#p04b84a1930)" d="M 46.047398 149.3 
L 46.047398 10.7 
L 91.466002 10.7 
L 91.466002 149.3 
z
" style="fill:#fee7dc;stroke:#fee7dc;stroke-linejoin:miter;"/>
   </g>
   <g id="patch_4">
    <path clip-path="url(#p04b84a1930)" d="M 136.884607 149.3 
L 136.884607 10.7 
L 182.303212 10.7 
L 182.303212 149.3 
z
" style="fill:#fdd4c2;stroke:#fdd4c2;stroke-linejoin:miter;"/>
   </g>
   <g id="patch_5">
    <path clip-path="url(#p04b84a1930)" d="M 227.721816 149.3 
L 227.721816 10.7 
L 273.140421 10.7 
L 273.140421 149.3 
z
" style="fill:#fcbba1;stroke:#fcbba1;stroke-linejoin:miter;"/>
   </g>
   <g id="line2d_1">
    <path clip-path="url(#p04b84a1930)" d="M 0.628793 146.78 
L 41.721816 146.71279 
L 43.884607 146.388355 
L 48.210188 145.213675 
L 50.372979 145.05341 
L 59.024142 145.033352 
L 87.140421 145.100562 
L 89.303212 145.424998 
L 93.628793 146.599677 
L 95.791584 146.759942 
L 104.442747 146.78 
L 130.396235 146.674226 
L 131.47763 146.333306 
L 132.559026 145.283198 
L 133.640421 142.764122 
L 134.721816 138.057868 
L 135.803212 131.210309 
L 136.884607 123.451007 
L 137.966002 116.603448 
L 139.047398 111.897194 
L 140.128793 109.378117 
L 141.210188 108.32801 
L 142.291584 107.98709 
L 144.454374 107.883919 
L 174.733444 107.900892 
L 175.81484 107.98709 
L 176.896235 108.32801 
L 177.97763 109.378117 
L 179.059026 111.897194 
L 180.140421 116.603448 
L 181.221816 123.451007 
L 182.303212 131.210309 
L 183.384607 138.057868 
L 184.466002 142.764122 
L 185.547398 145.283198 
L 186.628793 146.333306 
L 187.710188 146.674226 
L 189.872979 146.777397 
L 219.070654 146.774115 
L 220.152049 146.73574 
L 221.233444 146.540855 
L 222.31484 145.770069 
L 223.396235 143.395881 
L 224.47763 137.700501 
L 225.559026 127.060131 
L 226.640421 111.578483 
L 227.721816 94.035478 
L 228.803212 78.553831 
L 229.884607 67.91346 
L 230.966002 62.21808 
L 232.047398 59.843893 
L 233.128793 59.073107 
L 234.210188 58.878222 
L 238.53577 58.833962 
L 265.570654 58.878222 
L 266.652049 59.073107 
L 267.733444 59.843893 
L 268.81484 62.21808 
L 269.896235 67.91346 
L 270.97763 78.553831 
L 272.059026 94.035478 
L 273.140421 111.578483 
L 274.221816 127.060131 
L 275.303212 137.700501 
L 276.384607 143.395881 
L 277.466002 145.770069 
L 278.547398 146.540855 
L 279.628793 146.73574 
L 283.954374 146.78 
L 314.038095 146.78 
L 314.038095 146.78 
" style="fill:none;stroke:#cccccc;stroke-linecap:square;stroke-width:1.75;"/>
   </g>
   <g id="line2d_2">
    <path clip-path="url(#p04b84a1930)" d="M 0.628793 146.78 
L 38.47763 146.749957 
L 39.559026 146.617671 
L 40.640421 146.094469 
L 41.721816 144.482896 
L 42.803212 140.616933 
L 43.884607 133.394363 
L 44.966002 122.885585 
L 46.047398 110.97758 
L 47.128793 100.468802 
L 48.210188 93.246232 
L 49.291584 89.380269 
L 50.372979 87.768696 
L 51.454374 87.245494 
L 53.617165 87.08716 
L 82.81484 87.08716 
L 84.97763 87.245494 
L 86.059026 87.768696 
L 87.140421 89.380269 
L 88.221816 93.246232 
L 89.303212 100.468802 
L 90.384607 110.97758 
L 91.466002 122.885585 
L 92.547398 133.394363 
L 93.628793 140.616933 
L 94.710188 144.482896 
L 95.791584 146.094469 
L 96.872979 146.617671 
L 99.03577 146.776005 
L 128.233444 146.773351 
L 129.31484 146.729995 
L 130.396235 146.509812 
L 131.47763 145.638972 
L 132.559026 142.956598 
L 133.640421 136.521916 
L 134.721816 124.500347 
L 135.803212 107.009068 
L 136.884607 87.188852 
L 137.966002 69.697573 
L 139.047398 57.676004 
L 140.128793 51.241322 
L 141.210188 48.558948 
L 142.291584 47.688108 
L 143.372979 47.467925 
L 146.617165 47.41792 
L 174.733444 47.467925 
L 175.81484 47.688108 
L 176.896235 48.558948 
L 177.97763 51.241322 
L 179.059026 57.676004 
L 180.140421 69.697573 
L 181.221816 87.188852 
L 182.303212 107.009068 
L 183.384607 124.500347 
L 184.466002 136.521916 
L 185.547398 142.956598 
L 186.628793 145.638972 
L 187.710188 146.509812 
L 188.791584 146.729995 
L 192.03577 146.78 
L 220.152049 146.729338 
L 221.233444 146.506263 
L 222.31484 145.623986 
L 223.396235 142.906382 
L 224.47763 136.387189 
L 225.559026 124.207732 
L 226.640421 106.486727 
L 227.721816 86.406198 
L 228.803212 68.685193 
L 229.884607 56.505737 
L 230.966002 49.986543 
L 232.047398 47.268939 
L 233.128793 46.386662 
L 234.210188 46.163588 
L 237.454374 46.112926 
L 265.570654 46.163588 
L 266.652049 46.386662 
L 267.733444 47.268939 
L 268.81484 49.986543 
L 269.896235 56.505737 
L 270.97763 68.685193 
L 272.059026 86.406198 
L 273.140421 106.486727 
L 274.221816 124.207732 
L 275.303212 136.387189 
L 276.384607 142.906382 
L 277.466002 145.623986 
L 278.547398 146.506263 
L 279.628793 146.729338 
L 282.872979 146.78 
L 314.038095 146.78 
L 314.038095 146.78 
" style="fill:none;stroke:#cccccc;stroke-linecap:square;stroke-width:1.75;"/>
   </g>
   <g id="line2d_3">
    <path clip-path="url(#p04b84a1930)" d="M 0.628793 146.78 
L 41.721816 146.704935 
L 43.884607 146.342581 
L 48.210188 145.03061 
L 50.372979 144.851613 
L 57.942747 144.829211 
L 87.140421 144.904277 
L 89.303212 145.266631 
L 93.628793 146.578602 
L 95.791584 146.757598 
L 103.361351 146.78 
L 129.31484 146.758616 
L 130.396235 146.664459 
L 131.47763 146.292063 
L 132.559026 145.144999 
L 133.640421 142.393337 
L 134.721816 137.252556 
L 135.803212 129.772764 
L 136.884607 121.297049 
L 137.966002 113.817257 
L 139.047398 108.676476 
L 140.128793 105.924814 
L 141.210188 104.77775 
L 142.291584 104.405353 
L 144.454374 104.292656 
L 174.733444 104.311197 
L 175.81484 104.405353 
L 176.896235 104.77775 
L 177.97763 105.924814 
L 179.059026 108.676476 
L 180.140421 113.817257 
L 181.221816 121.297049 
L 182.303212 129.772764 
L 183.384607 137.252556 
L 184.466002 142.393337 
L 185.547398 145.144999 
L 186.628793 146.292063 
L 187.710188 146.664459 
L 189.872979 146.777157 
L 219.070654 146.774009 
L 220.152049 146.734944 
L 221.233444 146.536557 
L 222.31484 145.751921 
L 223.396235 143.33507 
L 224.47763 137.537347 
L 225.559026 126.705774 
L 226.640421 110.945928 
L 227.721816 93.087683 
L 228.803212 77.327837 
L 229.884607 66.496263 
L 230.966002 60.69854 
L 232.047398 58.281689 
L 233.128793 57.497053 
L 234.210188 57.298666 
L 237.454374 57.25361 
L 265.570654 57.298666 
L 266.652049 57.497053 
L 267.733444 58.281689 
L 268.81484 60.69854 
L 269.896235 66.496263 
L 270.97763 77.327837 
L 272.059026 93.087683 
L 273.140421 110.945928 
L 274.221816 126.705774 
L 275.303212 137.537347 
L 276.384607 143.33507 
L 277.466002 145.751921 
L 278.547398 146.536557 
L 279.628793 146.734944 
L 282.872979 146.78 
L 314.038095 146.78 
L 314.038095 146.78 
" style="fill:none;stroke:#cccccc;stroke-linecap:square;stroke-width:1.75;"/>
   </g>
   <g id="line2d_4">
    <path clip-path="url(#p04b84a1930)" d="M 0.628793 146.78 
L 41.721816 146.732259 
L 43.884607 146.501805 
L 48.210188 145.667402 
L 50.372979 145.553562 
L 62.268328 145.539314 
L 87.140421 145.587055 
L 89.303212 145.817509 
L 93.628793 146.651912 
L 95.791584 146.765753 
L 107.686933 146.78 
L 130.396235 146.704296 
L 131.47763 146.460297 
L 132.559026 145.708726 
L 133.640421 143.905801 
L 134.721816 140.537494 
L 135.803212 135.636637 
L 136.884607 130.083237 
L 137.966002 125.182379 
L 139.047398 121.814072 
L 140.128793 120.011148 
L 141.210188 119.259577 
L 142.291584 119.015577 
L 145.53577 118.939874 
L 175.81484 119.015577 
L 176.896235 119.259577 
L 177.97763 120.011148 
L 179.059026 121.814072 
L 180.140421 125.182379 
L 181.221816 130.083237 
L 182.303212 135.636637 
L 183.384607 140.537494 
L 184.466002 143.905801 
L 185.547398 145.708726 
L 186.628793 146.460297 
L 187.710188 146.704296 
L 190.954374 146.78 
L 220.152049 146.739147 
L 221.233444 146.559262 
L 222.31484 145.847804 
L 223.396235 143.656359 
L 224.47763 138.399355 
L 225.559026 128.577979 
L 226.640421 114.287961 
L 227.721816 98.09525 
L 228.803212 83.805233 
L 229.884607 73.983857 
L 230.966002 68.726853 
L 232.047398 66.535408 
L 233.128793 65.82395 
L 234.210188 65.644065 
L 238.53577 65.603211 
L 265.570654 65.644065 
L 266.652049 65.82395 
L 267.733444 66.535408 
L 268.81484 68.726853 
L 269.896235 73.983857 
L 270.97763 83.805233 
L 272.059026 98.09525 
L 273.140421 114.287961 
L 274.221816 128.577979 
L 275.303212 138.399355 
L 276.384607 143.656359 
L 277.466002 145.847804 
L 278.547398 146.559262 
L 279.628793 146.739147 
L 283.954374 146.78 
L 314.038095 146.78 
L 314.038095 146.78 
" style="fill:none;stroke:#cccccc;stroke-linecap:square;stroke-width:1.75;"/>
   </g>
   <g id="line2d_5">
    <path clip-path="url(#p04b84a1930)" d="M 0.628793 146.78 
L 40.640421 146.732694 
L 41.721816 146.621485 
L 42.803212 146.354709 
L 43.884607 145.856305 
L 48.210188 143.085826 
L 49.291584 142.81905 
L 51.454374 142.671737 
L 65.512514 142.660535 
L 86.059026 142.707841 
L 87.140421 142.81905 
L 88.221816 143.085826 
L 89.303212 143.58423 
L 93.628793 146.354709 
L 94.710188 146.621485 
L 96.872979 146.768798 
L 110.931119 146.78 
L 129.31484 146.747258 
L 130.396235 146.603087 
L 131.47763 146.032882 
L 132.559026 144.276526 
L 133.640421 140.063249 
L 134.721816 132.191809 
L 135.803212 120.738932 
L 136.884607 107.761123 
L 137.966002 96.308246 
L 139.047398 88.436806 
L 140.128793 84.223528 
L 141.210188 82.467173 
L 142.291584 81.896968 
L 143.372979 81.752797 
L 148.779956 81.720055 
L 174.733444 81.752797 
L 175.81484 81.896968 
L 176.896235 82.467173 
L 177.97763 84.223528 
L 179.059026 88.436806 
L 180.140421 96.308246 
L 181.221816 107.761123 
L 182.303212 120.738932 
L 183.384607 132.191809 
L 184.466002 140.063249 
L 185.547398 144.276526 
L 186.628793 146.032882 
L 187.710188 146.603087 
L 188.791584 146.747258 
L 194.198561 146.78 
L 220.152049 146.731697 
L 221.233444 146.519013 
L 222.31484 145.677828 
L 223.396235 143.086798 
L 224.47763 136.87124 
L 225.559026 125.259048 
L 226.640421 108.363408 
L 227.721816 89.21814 
L 228.803212 72.322501 
L 229.884607 60.710309 
L 230.966002 54.49475 
L 232.047398 51.90372 
L 233.128793 51.062536 
L 234.210188 50.849851 
L 237.454374 50.801548 
L 265.570654 50.849851 
L 266.652049 51.062536 
L 267.733444 51.90372 
L 268.81484 54.49475 
L 269.896235 60.710309 
L 270.97763 72.322501 
L 272.059026 89.21814 
L 273.140421 108.363408 
L 274.221816 125.259048 
L 275.303212 136.87124 
L 276.384607 143.086798 
L 277.466002 145.677828 
L 278.547398 146.519013 
L 279.628793 146.731697 
L 282.872979 146.78 
L 314.038095 146.78 
L 314.038095 146.78 
" style="fill:none;stroke:#cccccc;stroke-linecap:square;stroke-width:1.75;"/>
   </g>
   <g id="line2d_6">
    <path clip-path="url(#p04b84a1930)" d="M 0.628793 146.78 
L 41.721816 146.709767 
L 43.884607 146.370742 
L 48.210188 145.143235 
L 50.372979 144.975762 
L 59.024142 144.954802 
L 87.140421 145.025035 
L 89.303212 145.364061 
L 93.628793 146.591568 
L 95.791584 146.75904 
L 104.442747 146.78 
L 130.396235 146.670333 
L 131.47763 146.316869 
L 132.559026 145.228122 
L 133.640421 142.616353 
L 134.721816 137.736926 
L 135.803212 130.637403 
L 136.884607 122.592588 
L 137.966002 115.493065 
L 139.047398 110.613638 
L 140.128793 108.001869 
L 141.210188 106.913122 
L 142.291584 106.559657 
L 144.454374 106.45269 
L 174.733444 106.470288 
L 175.81484 106.559657 
L 176.896235 106.913122 
L 177.97763 108.001869 
L 179.059026 110.613638 
L 180.140421 115.493065 
L 181.221816 122.592588 
L 182.303212 130.637403 
L 183.384607 137.736926 
L 184.466002 142.616353 
L 185.547398 145.228122 
L 186.628793 146.316869 
L 187.710188 146.670333 
L 189.872979 146.777301 
L 219.070654 146.774071 
L 220.152049 146.735409 
L 221.233444 146.539068 
L 222.31484 145.762523 
L 223.396235 143.370598 
L 224.47763 137.632667 
L 225.559026 126.912801 
L 226.640421 111.315487 
L 227.721816 93.641416 
L 228.803212 78.044102 
L 229.884607 67.324236 
L 230.966002 61.586305 
L 232.047398 59.19438 
L 233.128793 58.417835 
L 234.210188 58.221494 
L 238.53577 58.176903 
L 265.570654 58.221494 
L 266.652049 58.417835 
L 267.733444 59.19438 
L 268.81484 61.586305 
L 269.896235 67.324236 
L 270.97763 78.044102 
L 272.059026 93.641416 
L 273.140421 111.315487 
L 274.221816 126.912801 
L 275.303212 137.632667 
L 276.384607 143.370598 
L 277.466002 145.762523 
L 278.547398 146.539068 
L 279.628793 146.735409 
L 283.954374 146.78 
L 314.038095 146.78 
L 314.038095 146.78 
" style="fill:none;stroke:#cccccc;stroke-linecap:square;stroke-width:1.75;"/>
   </g>
   <g id="line2d_7">
    <path clip-path="url(#p04b84a1930)" d="M 0.628793 146.78 
L 40.640421 146.735186 
L 41.721816 146.629836 
L 42.803212 146.377113 
L 43.884607 145.904965 
L 48.210188 143.280434 
L 49.291584 143.027711 
L 51.454374 142.888159 
L 66.593909 142.877547 
L 86.059026 142.922361 
L 87.140421 143.027711 
L 88.221816 143.280434 
L 89.303212 143.752582 
L 93.628793 146.377113 
L 94.710188 146.629836 
L 96.872979 146.769388 
L 112.012514 146.78 
L 129.31484 146.747998 
L 130.396235 146.607085 
L 131.47763 146.049766 
L 132.559026 144.333102 
L 133.640421 140.215039 
L 134.721816 132.521484 
L 135.803212 121.327427 
L 136.884607 108.6429 
L 137.966002 97.448844 
L 139.047398 89.755289 
L 140.128793 85.637226 
L 141.210188 83.920562 
L 142.291584 83.363242 
L 143.372979 83.22233 
L 148.779956 83.190327 
L 174.733444 83.22233 
L 175.81484 83.363242 
L 176.896235 83.920562 
L 177.97763 85.637226 
L 179.059026 89.755289 
L 180.140421 97.448844 
L 181.221816 108.6429 
L 182.303212 121.327427 
L 183.384607 132.521484 
L 184.466002 140.215039 
L 185.547398 144.333102 
L 186.628793 146.049766 
L 187.710188 146.607085 
L 188.791584 146.747998 
L 194.198561 146.78 
L 220.152049 146.731848 
L 221.233444 146.519826 
L 222.31484 145.681264 
L 223.396235 143.09831 
L 224.47763 136.902126 
L 225.559026 125.326129 
L 226.640421 108.483154 
L 227.721816 89.397563 
L 228.803212 72.554587 
L 229.884607 60.978591 
L 230.966002 54.782407 
L 232.047398 52.199453 
L 233.128793 51.36089 
L 234.210188 51.148869 
L 237.454374 51.100717 
L 265.570654 51.148869 
L 266.652049 51.36089 
L 267.733444 52.199453 
L 268.81484 54.782407 
L 269.896235 60.978591 
L 270.97763 72.554587 
L 272.059026 89.397563 
L 273.140421 108.483154 
L 274.221816 125.326129 
L 275.303212 136.902126 
L 276.384607 143.09831 
L 277.466002 145.681264 
L 278.547398 146.519826 
L 279.628793 146.731848 
L 282.872979 146.78 
L 314.038095 146.78 
L 314.038095 146.78 
" style="fill:none;stroke:#cccccc;stroke-linecap:square;stroke-width:1.75;"/>
   </g>
   <g id="line2d_8">
    <path clip-path="url(#p04b84a1930)" d="M 0.628793 146.78 
L 41.721816 146.716817 
L 43.884607 146.411819 
L 48.210188 145.307517 
L 50.372979 145.156854 
L 60.105537 145.137998 
L 87.140421 145.201182 
L 89.303212 145.506179 
L 93.628793 146.610481 
L 95.791584 146.761144 
L 105.524142 146.78 
L 130.396235 146.679696 
L 131.47763 146.356407 
L 132.559026 145.360607 
L 133.640421 142.971808 
L 134.721816 138.508944 
L 135.803212 132.015515 
L 136.884607 124.657496 
L 137.966002 118.164067 
L 139.047398 113.701203 
L 140.128793 111.312404 
L 141.210188 110.316604 
L 142.291584 109.993316 
L 144.454374 109.89548 
L 174.733444 109.911575 
L 175.81484 109.993316 
L 176.896235 110.316604 
L 177.97763 111.312404 
L 179.059026 113.701203 
L 180.140421 118.164067 
L 181.221816 124.657496 
L 182.303212 132.015515 
L 183.384607 138.508944 
L 184.466002 142.971808 
L 185.547398 145.360607 
L 186.628793 146.356407 
L 187.710188 146.679696 
L 189.872979 146.777532 
L 220.152049 146.736239 
L 221.233444 146.543552 
L 222.31484 145.781459 
L 223.396235 143.434047 
L 224.47763 137.8029 
L 225.559026 127.282531 
L 226.640421 111.975485 
L 227.721816 94.63033 
L 228.803212 79.323284 
L 229.884607 68.802915 
L 230.966002 63.171768 
L 232.047398 60.824356 
L 233.128793 60.062263 
L 234.210188 59.869576 
L 238.53577 59.825815 
L 265.570654 59.869576 
L 266.652049 60.062263 
L 267.733444 60.824356 
L 268.81484 63.171768 
L 269.896235 68.802915 
L 270.97763 79.323284 
L 272.059026 94.63033 
L 273.140421 111.975485 
L 274.221816 127.282531 
L 275.303212 137.8029 
L 276.384607 143.434047 
L 277.466002 145.781459 
L 278.547398 146.543552 
L 279.628793 146.736239 
L 283.954374 146.78 
L 314.038095 146.78 
L 314.038095 146.78 
" style="fill:none;stroke:#cccccc;stroke-linecap:square;stroke-width:1.75;"/>
   </g>
   <g id="line2d_9">
    <path clip-path="url(#p04b84a1930)" d="M 0.628793 146.78 
L 40.640421 146.671673 
L 41.721816 146.417015 
L 42.803212 145.806121 
L 43.884607 144.664821 
L 44.966002 143.00424 
L 47.128793 139.461973 
L 48.210188 138.320673 
L 49.291584 137.70978 
L 50.372979 137.455121 
L 52.53577 137.351542 
L 81.733444 137.346795 
L 86.059026 137.455121 
L 87.140421 137.70978 
L 88.221816 138.320673 
L 89.303212 139.461973 
L 90.384607 141.122555 
L 92.547398 144.664821 
L 93.628793 145.806121 
L 94.710188 146.417015 
L 95.791584 146.671673 
L 97.954374 146.775253 
L 127.152049 146.78 
L 129.31484 146.738149 
L 130.396235 146.553869 
L 131.47763 145.825031 
L 132.559026 143.58005 
L 133.640421 138.194621 
L 134.721816 128.133316 
L 135.803212 113.494202 
L 136.884607 96.905914 
L 137.966002 82.266801 
L 139.047398 72.205495 
L 140.128793 66.820066 
L 141.210188 64.575086 
L 142.291584 63.846247 
L 143.372979 63.661968 
L 147.698561 63.620116 
L 174.733444 63.661968 
L 175.81484 63.846247 
L 176.896235 64.575086 
L 177.97763 66.820066 
L 179.059026 72.205495 
L 180.140421 82.266801 
L 181.221816 96.905914 
L 182.303212 113.494202 
L 183.384607 128.133316 
L 184.466002 138.194621 
L 185.547398 143.58005 
L 186.628793 145.825031 
L 187.710188 146.553869 
L 188.791584 146.738149 
L 193.117165 146.78 
L 220.152049 146.730235 
L 221.233444 146.51111 
L 222.31484 145.644456 
L 223.396235 142.974974 
L 224.47763 136.571219 
L 225.559026 124.60743 
L 226.640421 107.20022 
L 227.721816 87.475266 
L 228.803212 70.068056 
L 229.884607 58.104267 
L 230.966002 51.700512 
L 232.047398 49.03103 
L 233.128793 48.164376 
L 234.210188 47.945251 
L 237.454374 47.895486 
L 265.570654 47.945251 
L 266.652049 48.164376 
L 267.733444 49.03103 
L 268.81484 51.700512 
L 269.896235 58.104267 
L 270.97763 70.068056 
L 272.059026 87.475266 
L 273.140421 107.20022 
L 274.221816 124.60743 
L 275.303212 136.571219 
L 276.384607 142.974974 
L 277.466002 145.644456 
L 278.547398 146.51111 
L 279.628793 146.730235 
L 282.872979 146.78 
L 314.038095 146.78 
L 314.038095 146.78 
" style="fill:none;stroke:#cccccc;stroke-linecap:square;stroke-width:1.75;"/>
   </g>
   <g id="line2d_10">
    <path clip-path="url(#p04b84a1930)" d="M 0.628793 146.78 
L 39.559026 146.751549 
L 40.640421 146.659849 
L 41.721816 146.377392 
L 42.803212 145.699814 
L 43.884607 144.433932 
L 44.966002 142.592085 
L 46.047398 140.504998 
L 47.128793 138.663151 
L 48.210188 137.397268 
L 49.291584 136.719691 
L 50.372979 136.437234 
L 52.53577 136.322348 
L 79.570654 136.317083 
L 84.97763 136.345534 
L 86.059026 136.437234 
L 87.140421 136.719691 
L 88.221816 137.397268 
L 89.303212 138.663151 
L 90.384607 140.504998 
L 91.466002 142.592085 
L 92.547398 144.433932 
L 93.628793 145.699814 
L 94.710188 146.377392 
L 95.791584 146.659849 
L 97.954374 146.774734 
L 124.989258 146.78 
L 129.31484 146.737305 
L 130.396235 146.54931 
L 131.47763 145.805777 
L 132.559026 143.515534 
L 133.640421 138.021527 
L 134.721816 127.75737 
L 135.803212 112.823109 
L 136.884607 95.900375 
L 137.966002 80.966114 
L 139.047398 70.701957 
L 140.128793 65.20795 
L 141.210188 62.917707 
L 142.291584 62.174174 
L 143.372979 61.986179 
L 147.698561 61.943484 
L 174.733444 61.986179 
L 175.81484 62.174174 
L 176.896235 62.917707 
L 177.97763 65.20795 
L 179.059026 70.701957 
L 180.140421 80.966114 
L 181.221816 95.900375 
L 182.303212 112.823109 
L 183.384607 127.75737 
L 184.466002 138.021527 
L 185.547398 143.515534 
L 186.628793 145.805777 
L 187.710188 146.54931 
L 188.791584 146.737305 
L 193.117165 146.78 
L 220.152049 146.730128 
L 221.233444 146.510532 
L 222.31484 145.642012 
L 223.396235 142.966785 
L 224.47763 136.549247 
L 225.559026 124.559708 
L 226.640421 107.115032 
L 227.721816 87.347624 
L 228.803212 69.902948 
L 229.884607 57.913409 
L 230.966002 51.495871 
L 232.047398 48.820643 
L 233.128793 47.952124 
L 234.210188 47.732528 
L 237.454374 47.682656 
L 265.570654 47.732528 
L 266.652049 47.952124 
L 267.733444 48.820643 
L 268.81484 51.495871 
L 269.896235 57.913409 
L 270.97763 69.902948 
L 272.059026 87.347624 
L 273.140421 107.115032 
L 274.221816 124.559708 
L 275.303212 136.549247 
L 276.384607 142.966785 
L 277.466002 145.642012 
L 278.547398 146.510532 
L 279.628793 146.730128 
L 282.872979 146.78 
L 314.038095 146.78 
L 314.038095 146.78 
" style="fill:none;stroke:#cccccc;stroke-linecap:square;stroke-width:1.75;"/>
   </g>
   <g id="line2d_11">
    <path clip-path="url(#p04b84a1930)" d="M 0.628793 146.78 
L 40.640421 146.707689 
L 41.721816 146.537697 
L 42.803212 146.129908 
L 43.884607 145.368058 
L 47.128793 141.89501 
L 48.210188 141.13316 
L 49.291584 140.725371 
L 50.372979 140.55538 
L 53.617165 140.48349 
L 86.059026 140.55538 
L 87.140421 140.725371 
L 88.221816 141.13316 
L 89.303212 141.89501 
L 92.547398 145.368058 
L 93.628793 146.129908 
L 94.710188 146.537697 
L 95.791584 146.707689 
L 99.03577 146.779579 
L 129.31484 146.742059 
L 130.396235 146.574999 
L 131.47763 145.914262 
L 132.559026 143.87905 
L 133.640421 138.99683 
L 134.721816 129.875642 
L 135.803212 116.604391 
L 136.884607 101.566094 
L 137.966002 88.294844 
L 139.047398 79.173656 
L 140.128793 74.291435 
L 141.210188 72.256223 
L 142.291584 71.595487 
L 143.372979 71.428426 
L 147.698561 71.390485 
L 174.733444 71.428426 
L 175.81484 71.595487 
L 176.896235 72.256223 
L 177.97763 74.291435 
L 179.059026 79.173656 
L 180.140421 88.294844 
L 181.221816 101.566094 
L 182.303212 116.604391 
L 183.384607 129.875642 
L 184.466002 138.99683 
L 185.547398 143.87905 
L 186.628793 145.914262 
L 187.710188 146.574999 
L 188.791584 146.742059 
L 193.117165 146.78 
L 220.152049 146.730786 
L 221.233444 146.514091 
L 222.31484 145.657042 
L 223.396235 143.017147 
L 224.47763 136.684368 
L 225.559026 124.853179 
L 226.640421 107.638901 
L 227.721816 88.132568 
L 228.803212 70.918289 
L 229.884607 59.0871 
L 230.966002 52.754321 
L 232.047398 50.114426 
L 233.128793 49.257378 
L 234.210188 49.040682 
L 237.454374 48.991468 
L 265.570654 49.040682 
L 266.652049 49.257378 
L 267.733444 50.114426 
L 268.81484 52.754321 
L 269.896235 59.0871 
L 270.97763 70.918289 
L 272.059026 88.132568 
L 273.140421 107.638901 
L 274.221816 124.853179 
L 275.303212 136.684368 
L 276.384607 143.017147 
L 277.466002 145.657042 
L 278.547398 146.514091 
L 279.628793 146.730786 
L 282.872979 146.78 
L 314.038095 146.78 
L 314.038095 146.78 
" style="fill:none;stroke:#cccccc;stroke-linecap:square;stroke-width:1.75;"/>
   </g>
   <g id="line2d_12">
    <path clip-path="url(#p04b84a1930)" d="M 0.628793 146.78 
L 40.640421 146.710097 
L 41.721816 146.545767 
L 42.803212 146.15156 
L 43.884607 145.415084 
L 47.128793 142.057706 
L 48.210188 141.32123 
L 49.291584 140.927022 
L 51.454374 140.709342 
L 61.186933 140.69279 
L 86.059026 140.762692 
L 87.140421 140.927022 
L 88.221816 141.32123 
L 89.303212 142.057706 
L 92.547398 145.415084 
L 93.628793 146.15156 
L 94.710188 146.545767 
L 96.872979 146.763447 
L 106.605537 146.78 
L 129.31484 146.742433 
L 130.396235 146.577019 
L 131.47763 145.922796 
L 132.559026 143.907646 
L 133.640421 139.073553 
L 134.721816 130.042277 
L 135.803212 116.901849 
L 136.884607 102.011793 
L 137.966002 88.871364 
L 139.047398 79.840089 
L 140.128793 75.005995 
L 141.210188 72.990845 
L 142.291584 72.336622 
L 143.372979 72.171208 
L 147.698561 72.133642 
L 174.733444 72.171208 
L 175.81484 72.336622 
L 176.896235 72.990845 
L 177.97763 75.005995 
L 179.059026 79.840089 
L 180.140421 88.871364 
L 181.221816 102.011793 
L 182.303212 116.901849 
L 183.384607 130.042277 
L 184.466002 139.073553 
L 185.547398 143.907646 
L 186.628793 145.922796 
L 187.710188 146.577019 
L 188.791584 146.742433 
L 193.117165 146.78 
L 220.152049 146.730845 
L 221.233444 146.514404 
L 222.31484 145.658367 
L 223.396235 143.021588 
L 224.47763 136.696283 
L 225.559026 124.879057 
L 226.640421 107.685095 
L 227.721816 88.201783 
L 228.803212 71.007821 
L 229.884607 59.190595 
L 230.966002 52.86529 
L 232.047398 50.228511 
L 233.128793 49.372474 
L 234.210188 49.156034 
L 237.454374 49.106878 
L 265.570654 49.156034 
L 266.652049 49.372474 
L 267.733444 50.228511 
L 268.81484 52.86529 
L 269.896235 59.190595 
L 270.97763 71.007821 
L 272.059026 88.201783 
L 273.140421 107.685095 
L 274.221816 124.879057 
L 275.303212 136.696283 
L 276.384607 143.021588 
L 277.466002 145.658367 
L 278.547398 146.514404 
L 279.628793 146.730845 
L 282.872979 146.78 
L 314.038095 146.78 
L 314.038095 146.78 
" style="fill:none;stroke:#cccccc;stroke-linecap:square;stroke-width:1.75;"/>
   </g>
   <g id="line2d_13">
    <path clip-path="url(#p04b84a1930)" d="M 0.628793 146.78 
L 39.559026 146.687805 
L 40.640421 146.390653 
L 41.721816 145.475361 
L 42.803212 143.279688 
L 43.884607 139.177632 
L 44.966002 133.209176 
L 46.047398 126.446029 
L 47.128793 120.477573 
L 48.210188 116.375517 
L 49.291584 114.179844 
L 50.372979 113.264552 
L 51.454374 112.9674 
L 53.617165 112.877474 
L 83.896235 112.892268 
L 84.97763 112.9674 
L 86.059026 113.264552 
L 87.140421 114.179844 
L 88.221816 116.375517 
L 89.303212 120.477573 
L 90.384607 126.446029 
L 91.466002 133.209176 
L 92.547398 139.177632 
L 93.628793 143.279688 
L 94.710188 145.475361 
L 95.791584 146.390653 
L 96.872979 146.687805 
L 99.03577 146.777731 
L 129.31484 146.731302 
L 130.396235 146.516876 
L 131.47763 145.668807 
L 132.559026 143.056568 
L 133.640421 136.790134 
L 134.721816 125.082893 
L 135.803212 108.048958 
L 136.884607 88.746981 
L 137.966002 71.713046 
L 139.047398 60.005805 
L 140.128793 53.73937 
L 141.210188 51.127132 
L 142.291584 50.279062 
L 143.372979 50.064636 
L 146.617165 50.015938 
L 174.733444 50.064636 
L 175.81484 50.279062 
L 176.896235 51.127132 
L 177.97763 53.73937 
L 179.059026 60.005805 
L 180.140421 71.713046 
L 181.221816 88.746981 
L 182.303212 108.048958 
L 183.384607 125.082893 
L 184.466002 136.790134 
L 185.547398 143.056568 
L 186.628793 145.668807 
L 187.710188 146.516876 
L 188.791584 146.731302 
L 192.03577 146.78 
L 220.152049 146.729463 
L 221.233444 146.506941 
L 222.31484 145.626849 
L 223.396235 142.915974 
L 224.47763 136.412924 
L 225.559026 124.263628 
L 226.640421 106.586505 
L 227.721816 86.555701 
L 228.803212 68.878578 
L 229.884607 56.729281 
L 230.966002 50.226231 
L 232.047398 47.515357 
L 233.128793 46.635265 
L 234.210188 46.412743 
L 237.454374 46.362206 
L 265.570654 46.412743 
L 266.652049 46.635265 
L 267.733444 47.515357 
L 268.81484 50.226231 
L 269.896235 56.729281 
L 270.97763 68.878578 
L 272.059026 86.555701 
L 273.140421 106.586505 
L 274.221816 124.263628 
L 275.303212 136.412924 
L 276.384607 142.915974 
L 277.466002 145.626849 
L 278.547398 146.506941 
L 279.628793 146.729463 
L 282.872979 146.78 
L 314.038095 146.78 
L 314.038095 146.78 
" style="fill:none;stroke:#cccccc;stroke-linecap:square;stroke-width:1.75;"/>
   </g>
   <g id="line2d_14">
    <path clip-path="url(#p04b84a1930)" d="M 0.628793 146.78 
L 40.640421 146.709899 
L 41.721816 146.545104 
L 42.803212 146.149779 
L 43.884607 145.411216 
L 47.128793 142.044327 
L 48.210188 141.305764 
L 49.291584 140.91044 
L 51.454374 140.692143 
L 61.186933 140.675543 
L 86.059026 140.745644 
L 87.140421 140.91044 
L 88.221816 141.305764 
L 89.303212 142.044327 
L 92.547398 145.411216 
L 93.628793 146.149779 
L 94.710188 146.545104 
L 96.872979 146.763401 
L 106.605537 146.78 
L 129.31484 146.742402 
L 130.396235 146.576849 
L 131.47763 145.922077 
L 132.559026 143.905236 
L 133.640421 139.067088 
L 134.721816 130.028236 
L 135.803212 116.876783 
L 136.884607 101.974236 
L 137.966002 88.822784 
L 139.047398 79.783932 
L 140.128793 74.945783 
L 141.210188 72.928942 
L 142.291584 72.27417 
L 143.372979 72.108618 
L 147.698561 72.071019 
L 174.733444 72.108618 
L 175.81484 72.27417 
L 176.896235 72.928942 
L 177.97763 74.945783 
L 179.059026 79.783932 
L 180.140421 88.822784 
L 181.221816 101.974236 
L 182.303212 116.876783 
L 183.384607 130.028236 
L 184.466002 139.067088 
L 185.547398 143.905236 
L 186.628793 145.922077 
L 187.710188 146.576849 
L 188.791584 146.742402 
L 193.117165 146.78 
L 220.152049 146.73084 
L 221.233444 146.514378 
L 222.31484 145.658255 
L 223.396235 143.021211 
L 224.47763 136.695271 
L 225.559026 124.876859 
L 226.640421 107.681171 
L 227.721816 88.195904 
L 228.803212 71.000216 
L 229.884607 59.181804 
L 230.966002 52.855864 
L 232.047398 50.21882 
L 233.128793 49.362697 
L 234.210188 49.146235 
L 237.454374 49.097075 
L 265.570654 49.146235 
L 266.652049 49.362697 
L 267.733444 50.21882 
L 268.81484 52.855864 
L 269.896235 59.181804 
L 270.97763 71.000216 
L 272.059026 88.195904 
L 273.140421 107.681171 
L 274.221816 124.876859 
L 275.303212 136.695271 
L 276.384607 143.021211 
L 277.466002 145.658255 
L 278.547398 146.514378 
L 279.628793 146.73084 
L 282.872979 146.78 
L 314.038095 146.78 
L 314.038095 146.78 
" style="fill:none;stroke:#cccccc;stroke-linecap:square;stroke-width:1.75;"/>
   </g>
   <g id="line2d_15">
    <path clip-path="url(#p04b84a1930)" d="M 0.628793 146.78 
L 41.721816 146.732563 
L 43.884607 146.503578 
L 48.210188 145.674494 
L 50.372979 145.561379 
L 62.268328 145.547223 
L 87.140421 145.594659 
L 89.303212 145.823645 
L 93.628793 146.652729 
L 95.791584 146.765843 
L 107.686933 146.78 
L 130.396235 146.704849 
L 131.47763 146.462631 
L 132.559026 145.716547 
L 133.640421 143.926784 
L 134.721816 140.583067 
L 135.803212 135.717987 
L 136.884607 130.20513 
L 137.966002 125.34005 
L 139.047398 121.996333 
L 140.128793 120.20657 
L 141.210188 119.460486 
L 142.291584 119.218268 
L 145.53577 119.143117 
L 175.81484 119.218268 
L 176.896235 119.460486 
L 177.97763 120.20657 
L 179.059026 121.996333 
L 180.140421 125.34005 
L 181.221816 130.20513 
L 182.303212 135.717987 
L 183.384607 140.583067 
L 184.466002 143.926784 
L 185.547398 145.716547 
L 186.628793 146.462631 
L 187.710188 146.704849 
L 190.954374 146.78 
L 220.152049 146.739228 
L 221.233444 146.559702 
L 222.31484 145.849664 
L 223.396235 143.662593 
L 224.47763 138.416082 
L 225.559026 128.614308 
L 226.640421 114.352812 
L 227.721816 98.19242 
L 228.803212 83.930924 
L 229.884607 74.12915 
L 230.966002 68.882639 
L 232.047398 66.695568 
L 233.128793 65.98553 
L 234.210188 65.806004 
L 238.53577 65.765232 
L 265.570654 65.806004 
L 266.652049 65.98553 
L 267.733444 66.695568 
L 268.81484 68.882639 
L 269.896235 74.12915 
L 270.97763 83.930924 
L 272.059026 98.19242 
L 273.140421 114.352812 
L 274.221816 128.614308 
L 275.303212 138.416082 
L 276.384607 143.662593 
L 277.466002 145.849664 
L 278.547398 146.559702 
L 279.628793 146.739228 
L 283.954374 146.78 
L 314.038095 146.78 
L 314.038095 146.78 
" style="fill:none;stroke:#cccccc;stroke-linecap:square;stroke-width:1.75;"/>
   </g>
   <g id="line2d_16">
    <path clip-path="url(#p04b84a1930)" d="M 0.628793 146.78 
L 40.640421 146.74453 
L 41.721816 146.661144 
L 42.803212 146.461113 
L 43.884607 146.087405 
L 48.210188 144.010074 
L 49.291584 143.810042 
L 51.454374 143.699586 
L 69.838095 143.691186 
L 86.059026 143.726657 
L 87.140421 143.810042 
L 88.221816 144.010074 
L 89.303212 144.383782 
L 93.628793 146.461113 
L 94.710188 146.661144 
L 96.872979 146.771601 
L 115.2567 146.78 
L 129.31484 146.75137 
L 130.396235 146.625308 
L 131.47763 146.126722 
L 132.559026 144.590969 
L 133.640421 140.906889 
L 134.721816 134.024122 
L 135.803212 124.009755 
L 136.884607 112.66199 
L 137.966002 102.647623 
L 139.047398 95.764856 
L 140.128793 92.080776 
L 141.210188 90.545024 
L 142.291584 90.046438 
L 144.454374 89.895552 
L 173.652049 89.895552 
L 175.81484 90.046438 
L 176.896235 90.545024 
L 177.97763 92.080776 
L 179.059026 95.764856 
L 180.140421 102.647623 
L 181.221816 112.66199 
L 182.303212 124.009755 
L 183.384607 134.024122 
L 184.466002 140.906889 
L 185.547398 144.590969 
L 186.628793 146.126722 
L 187.710188 146.625308 
L 189.872979 146.776193 
L 219.070654 146.7737 
L 220.152049 146.732619 
L 221.233444 146.52399 
L 222.31484 145.698847 
L 223.396235 143.157227 
L 224.47763 137.0602 
L 225.559026 125.669452 
L 226.640421 109.096012 
L 227.721816 90.315845 
L 228.803212 73.742405 
L 229.884607 62.351658 
L 230.966002 56.25463 
L 232.047398 53.713011 
L 233.128793 52.887868 
L 234.210188 52.679239 
L 237.454374 52.631857 
L 265.570654 52.679239 
L 266.652049 52.887868 
L 267.733444 53.713011 
L 268.81484 56.25463 
L 269.896235 62.351658 
L 270.97763 73.742405 
L 272.059026 90.315845 
L 273.140421 109.096012 
L 274.221816 125.669452 
L 275.303212 137.0602 
L 276.384607 143.157227 
L 277.466002 145.698847 
L 278.547398 146.52399 
L 279.628793 146.732619 
L 282.872979 146.78 
L 314.038095 146.78 
L 314.038095 146.78 
" style="fill:none;stroke:#cccccc;stroke-linecap:square;stroke-width:1.75;"/>
   </g>
   <g id="line2d_17">
    <path clip-path="url(#p04b84a1930)" d="M 0.628793 146.78 
L 41.721816 146.703642 
L 43.884607 146.335047 
L 48.210188 145.000481 
L 50.372979 144.818402 
L 57.942747 144.795614 
L 87.140421 144.871972 
L 89.303212 145.240567 
L 93.628793 146.575133 
L 95.791584 146.757212 
L 103.361351 146.78 
L 129.31484 146.758338 
L 130.396235 146.662956 
L 131.47763 146.285714 
L 132.559026 145.123726 
L 133.640421 142.336262 
L 134.721816 137.128595 
L 135.803212 129.551483 
L 136.884607 120.96549 
L 137.966002 113.388378 
L 139.047398 108.18071 
L 140.128793 105.393246 
L 141.210188 104.231258 
L 142.291584 103.854016 
L 144.454374 103.739853 
L 174.733444 103.758635 
L 175.81484 103.854016 
L 176.896235 104.231258 
L 177.97763 105.393246 
L 179.059026 108.18071 
L 180.140421 113.388378 
L 181.221816 120.96549 
L 182.303212 129.551483 
L 183.384607 137.128595 
L 184.466002 142.336262 
L 185.547398 145.123726 
L 186.628793 146.285714 
L 187.710188 146.662956 
L 189.872979 146.77712 
L 219.070654 146.773994 
L 220.152049 146.734832 
L 221.233444 146.535948 
L 222.31484 145.749347 
L 223.396235 143.326446 
L 224.47763 137.514209 
L 225.559026 126.65552 
L 226.640421 110.856221 
L 227.721816 92.95327 
L 228.803212 77.153971 
L 229.884607 66.295283 
L 230.966002 60.483045 
L 232.047398 58.060145 
L 233.128793 57.273544 
L 234.210188 57.07466 
L 237.454374 57.029492 
L 265.570654 57.07466 
L 266.652049 57.273544 
L 267.733444 58.060145 
L 268.81484 60.483045 
L 269.896235 66.295283 
L 270.97763 77.153971 
L 272.059026 92.95327 
L 273.140421 110.856221 
L 274.221816 126.65552 
L 275.303212 137.514209 
L 276.384607 143.326446 
L 277.466002 145.749347 
L 278.547398 146.535948 
L 279.628793 146.734832 
L 282.872979 146.78 
L 314.038095 146.78 
L 314.038095 146.78 
" style="fill:none;stroke:#cccccc;stroke-linecap:square;stroke-width:1.75;"/>
   </g>
   <g id="line2d_18">
    <path clip-path="url(#p04b84a1930)" d="M 0.628793 146.78 
L 40.640421 146.740957 
L 41.721816 146.649174 
L 42.803212 146.428996 
L 43.884607 146.017651 
L 48.210188 143.731106 
L 49.291584 143.510929 
L 51.454374 143.389347 
L 67.675305 143.380102 
L 86.059026 143.419145 
L 87.140421 143.510929 
L 88.221816 143.731106 
L 89.303212 144.142451 
L 93.628793 146.428996 
L 94.710188 146.649174 
L 96.872979 146.770755 
L 113.093909 146.78 
L 129.31484 146.749953 
L 130.396235 146.617653 
L 131.47763 146.094394 
L 132.559026 144.482642 
L 133.640421 140.61625 
L 134.721816 133.39288 
L 135.803212 122.882939 
L 136.884607 110.973615 
L 137.966002 100.463674 
L 139.047398 93.240303 
L 140.128793 89.373912 
L 141.210188 87.76216 
L 142.291584 87.238901 
L 144.454374 87.080549 
L 173.652049 87.080549 
L 175.81484 87.238901 
L 176.896235 87.76216 
L 177.97763 89.373912 
L 179.059026 93.240303 
L 180.140421 100.463674 
L 181.221816 110.973615 
L 182.303212 122.882939 
L 183.384607 133.39288 
L 184.466002 140.61625 
L 185.547398 144.482642 
L 186.628793 146.094394 
L 187.710188 146.617653 
L 189.872979 146.776005 
L 219.070654 146.773655 
L 220.152049 146.732277 
L 221.233444 146.522143 
L 222.31484 145.691046 
L 223.396235 143.131089 
L 224.47763 136.990072 
L 225.559026 125.51714 
L 226.640421 108.824124 
L 227.721816 89.908458 
L 228.803212 73.215442 
L 229.884607 61.74251 
L 230.966002 55.601493 
L 232.047398 53.041536 
L 233.128793 52.210439 
L 234.210188 52.000305 
L 237.454374 51.952582 
L 265.570654 52.000305 
L 266.652049 52.210439 
L 267.733444 53.041536 
L 268.81484 55.601493 
L 269.896235 61.74251 
L 270.97763 73.215442 
L 272.059026 89.908458 
L 273.140421 108.824124 
L 274.221816 125.51714 
L 275.303212 136.990072 
L 276.384607 143.131089 
L 277.466002 145.691046 
L 278.547398 146.522143 
L 279.628793 146.732277 
L 282.872979 146.78 
L 314.038095 146.78 
L 314.038095 146.78 
" style="fill:none;stroke:#cccccc;stroke-linecap:square;stroke-width:1.75;"/>
   </g>
   <g id="line2d_19">
    <path clip-path="url(#p04b84a1930)" d="M 0.628793 146.78 
L 41.721816 146.729401 
L 43.884607 146.485153 
L 48.210188 145.600804 
L 50.372979 145.480149 
L 61.186933 145.465049 
L 87.140421 145.515647 
L 89.303212 145.759896 
L 93.628793 146.644245 
L 95.791584 146.7649 
L 106.605537 146.78 
L 130.396235 146.699248 
L 131.47763 146.438979 
L 132.559026 145.637293 
L 133.640421 143.714148 
L 134.721816 140.12124 
L 135.803212 134.893591 
L 136.884607 128.969887 
L 137.966002 123.742237 
L 139.047398 120.14933 
L 140.128793 118.226185 
L 141.210188 117.424499 
L 142.291584 117.164229 
L 144.454374 117.085465 
L 174.733444 117.098423 
L 175.81484 117.164229 
L 176.896235 117.424499 
L 177.97763 118.226185 
L 179.059026 120.14933 
L 180.140421 123.742237 
L 181.221816 128.969887 
L 182.303212 134.893591 
L 183.384607 140.12124 
L 184.466002 143.714148 
L 185.547398 145.637293 
L 186.628793 146.438979 
L 187.710188 146.699248 
L 189.872979 146.778013 
L 220.152049 146.738441 
L 221.233444 146.555448 
L 222.31484 145.8317 
L 223.396235 143.602397 
L 224.47763 138.254578 
L 225.559026 128.263536 
L 226.640421 113.726656 
L 227.721816 97.254213 
L 228.803212 82.717334 
L 229.884607 72.726292 
L 230.966002 67.378473 
L 232.047398 65.14917 
L 233.128793 64.425421 
L 234.210188 64.242429 
L 238.53577 64.20087 
L 265.570654 64.242429 
L 266.652049 64.425421 
L 267.733444 65.14917 
L 268.81484 67.378473 
L 269.896235 72.726292 
L 270.97763 82.717334 
L 272.059026 97.254213 
L 273.140421 113.726656 
L 274.221816 128.263536 
L 275.303212 138.254578 
L 276.384607 143.602397 
L 277.466002 145.8317 
L 278.547398 146.555448 
L 279.628793 146.738441 
L 283.954374 146.78 
L 314.038095 146.78 
L 314.038095 146.78 
" style="fill:none;stroke:#cccccc;stroke-linecap:square;stroke-width:1.75;"/>
   </g>
   <g id="line2d_20">
    <path clip-path="url(#p04b84a1930)" d="M 0.628793 146.78 
L 40.640421 146.743793 
L 41.721816 146.658675 
L 42.803212 146.454489 
L 43.884607 146.073018 
L 48.210188 143.952535 
L 49.291584 143.748349 
L 51.454374 143.635597 
L 69.838095 143.627024 
L 86.059026 143.663231 
L 87.140421 143.748349 
L 88.221816 143.952535 
L 89.303212 144.334006 
L 93.628793 146.454489 
L 94.710188 146.658675 
L 96.872979 146.771426 
L 115.2567 146.78 
L 129.31484 146.751063 
L 130.396235 146.623648 
L 131.47763 146.119714 
L 132.559026 144.567487 
L 133.640421 140.843887 
L 134.721816 133.887287 
L 135.803212 123.765493 
L 136.884607 112.295998 
L 137.966002 102.174205 
L 139.047398 95.217604 
L 140.128793 91.494005 
L 141.210188 89.941777 
L 142.291584 89.437843 
L 144.454374 89.285339 
L 173.652049 89.285339 
L 175.81484 89.437843 
L 176.896235 89.941777 
L 177.97763 91.494005 
L 179.059026 95.217604 
L 180.140421 102.174205 
L 181.221816 112.295998 
L 182.303212 123.765493 
L 183.384607 133.887287 
L 184.466002 140.843887 
L 185.547398 144.567487 
L 186.628793 146.119714 
L 187.710188 146.623648 
L 189.872979 146.776152 
L 219.070654 146.77369 
L 220.152049 146.732542 
L 221.233444 146.523576 
L 222.31484 145.6971 
L 223.396235 143.151375 
L 224.47763 137.044498 
L 225.559026 125.635351 
L 226.640421 109.035138 
L 227.721816 90.224634 
L 228.803212 73.624421 
L 229.884607 62.215274 
L 230.966002 56.108397 
L 232.047398 53.562672 
L 233.128793 52.736196 
L 234.210188 52.52723 
L 237.454374 52.479772 
L 265.570654 52.52723 
L 266.652049 52.736196 
L 267.733444 53.562672 
L 268.81484 56.108397 
L 269.896235 62.215274 
L 270.97763 73.624421 
L 272.059026 90.224634 
L 273.140421 109.035138 
L 274.221816 125.635351 
L 275.303212 137.044498 
L 276.384607 143.151375 
L 277.466002 145.6971 
L 278.547398 146.523576 
L 279.628793 146.732542 
L 282.872979 146.78 
L 314.038095 146.78 
L 314.038095 146.78 
" style="fill:none;stroke:#cccccc;stroke-linecap:square;stroke-width:1.75;"/>
   </g>
   <g id="line2d_21">
    <path clip-path="url(#p04b84a1930)" d="M 0.628793 146.78 
L 39.559026 146.739126 
L 40.640421 146.607385 
L 41.721816 146.201593 
L 42.803212 145.22815 
L 43.884607 143.40952 
L 44.966002 140.763427 
L 46.047398 137.765012 
L 47.128793 135.11892 
L 48.210188 133.300289 
L 49.291584 132.326846 
L 50.372979 131.921055 
L 52.53577 131.756004 
L 72.000886 131.74844 
L 84.97763 131.789314 
L 86.059026 131.921055 
L 87.140421 132.326846 
L 88.221816 133.300289 
L 89.303212 135.11892 
L 90.384607 137.765012 
L 91.466002 140.763427 
L 92.547398 143.40952 
L 93.628793 145.22815 
L 94.710188 146.201593 
L 95.791584 146.607385 
L 97.954374 146.772435 
L 117.419491 146.78 
L 129.31484 146.734814 
L 130.396235 146.535854 
L 131.47763 145.748953 
L 132.559026 143.325125 
L 133.640421 137.510663 
L 134.721816 126.647819 
L 135.803212 110.842475 
L 136.884607 92.932673 
L 137.966002 77.127328 
L 139.047398 66.264484 
L 140.128793 60.450023 
L 141.210188 58.026195 
L 142.291584 57.239293 
L 143.372979 57.040333 
L 146.617165 56.995148 
L 174.733444 57.040333 
L 175.81484 57.239293 
L 176.896235 58.026195 
L 177.97763 60.450023 
L 179.059026 66.264484 
L 180.140421 77.127328 
L 181.221816 92.932673 
L 182.303212 110.842475 
L 183.384607 126.647819 
L 184.466002 137.510663 
L 185.547398 143.325125 
L 186.628793 145.748953 
L 187.710188 146.535854 
L 188.791584 146.734814 
L 192.03577 146.78 
L 220.152049 146.729833 
L 221.233444 146.508937 
L 222.31484 145.63528 
L 223.396235 142.944225 
L 224.47763 136.48872 
L 225.559026 124.42825 
L 226.640421 106.880369 
L 227.721816 86.996014 
L 228.803212 69.448133 
L 229.884607 57.387662 
L 230.966002 50.932157 
L 232.047398 48.241103 
L 233.128793 47.367445 
L 234.210188 47.14655 
L 237.454374 47.096383 
L 265.570654 47.14655 
L 266.652049 47.367445 
L 267.733444 48.241103 
L 268.81484 50.932157 
L 269.896235 57.387662 
L 270.97763 69.448133 
L 272.059026 86.996014 
L 273.140421 106.880369 
L 274.221816 124.42825 
L 275.303212 136.48872 
L 276.384607 142.944225 
L 277.466002 145.63528 
L 278.547398 146.508937 
L 279.628793 146.729833 
L 282.872979 146.78 
L 314.038095 146.78 
L 314.038095 146.78 
" style="fill:none;stroke:#cccccc;stroke-linecap:square;stroke-width:1.75;"/>
   </g>
   <g id="line2d_22">
    <path clip-path="url(#p04b84a1930)" d="M 0.628793 146.78 
L 40.640421 146.726516 
L 41.721816 146.600785 
L 42.803212 146.299171 
L 43.884607 145.735682 
L 47.128793 143.166903 
L 48.210188 142.603414 
L 49.291584 142.3018 
L 51.454374 142.13525 
L 63.349723 142.122585 
L 86.059026 142.176069 
L 87.140421 142.3018 
L 88.221816 142.603414 
L 89.303212 143.166903 
L 92.547398 145.735682 
L 93.628793 146.299171 
L 94.710188 146.600785 
L 96.872979 146.767335 
L 108.768328 146.78 
L 129.31484 146.745642 
L 130.396235 146.594355 
L 131.47763 145.996007 
L 132.559026 144.152963 
L 133.640421 139.731732 
L 134.721816 131.471785 
L 135.803212 119.453633 
L 136.884607 105.835282 
L 137.966002 93.817129 
L 139.047398 85.557182 
L 140.128793 81.135951 
L 141.210188 79.292908 
L 142.291584 78.694559 
L 143.372979 78.543273 
L 147.698561 78.508914 
L 174.733444 78.543273 
L 175.81484 78.694559 
L 176.896235 79.292908 
L 177.97763 81.135951 
L 179.059026 85.557182 
L 180.140421 93.817129 
L 181.221816 105.835282 
L 182.303212 119.453633 
L 183.384607 131.471785 
L 184.466002 139.731732 
L 185.547398 144.152963 
L 186.628793 145.996007 
L 187.710188 146.594355 
L 188.791584 146.745642 
L 193.117165 146.78 
L 220.152049 146.731388 
L 221.233444 146.517343 
L 222.31484 145.670776 
L 223.396235 143.063167 
L 224.47763 136.807838 
L 225.559026 125.121344 
L 226.640421 108.117597 
L 227.721816 88.849827 
L 228.803212 71.84608 
L 229.884607 60.159586 
L 230.966002 53.904257 
L 232.047398 51.296648 
L 233.128793 50.450081 
L 234.210188 50.236036 
L 237.454374 50.187424 
L 265.570654 50.236036 
L 266.652049 50.450081 
L 267.733444 51.296648 
L 268.81484 53.904257 
L 269.896235 60.159586 
L 270.97763 71.84608 
L 272.059026 88.849827 
L 273.140421 108.117597 
L 274.221816 125.121344 
L 275.303212 136.807838 
L 276.384607 143.063167 
L 277.466002 145.670776 
L 278.547398 146.517343 
L 279.628793 146.731388 
L 282.872979 146.78 
L 314.038095 146.78 
L 314.038095 146.78 
" style="fill:none;stroke:#cccccc;stroke-linecap:square;stroke-width:1.75;"/>
   </g>
   <g id="line2d_23">
    <path clip-path="url(#p04b84a1930)" d="M 0.628793 146.78 
L 41.721816 146.715971 
L 43.884607 146.406892 
L 48.210188 145.287814 
L 50.372979 145.135135 
L 59.024142 145.116027 
L 87.140421 145.180055 
L 89.303212 145.489134 
L 93.628793 146.608212 
L 95.791584 146.760892 
L 104.442747 146.78 
L 130.396235 146.678519 
L 131.47763 146.351437 
L 132.559026 145.343954 
L 133.640421 142.927128 
L 134.721816 138.411902 
L 135.803212 131.842286 
L 136.884607 124.397937 
L 137.966002 117.828322 
L 139.047398 113.313096 
L 140.128793 110.89627 
L 141.210188 109.888786 
L 142.291584 109.561705 
L 144.454374 109.462721 
L 174.733444 109.479005 
L 175.81484 109.561705 
L 176.896235 109.888786 
L 177.97763 110.89627 
L 179.059026 113.313096 
L 180.140421 117.828322 
L 181.221816 124.397937 
L 182.303212 131.842286 
L 183.384607 138.411902 
L 184.466002 142.927128 
L 185.547398 145.343954 
L 186.628793 146.351437 
L 187.710188 146.678519 
L 189.872979 146.777503 
L 219.070654 146.774167 
L 220.152049 146.736128 
L 221.233444 146.542952 
L 222.31484 145.778926 
L 223.396235 143.42556 
L 224.47763 137.780129 
L 225.559026 127.233075 
L 226.640421 111.887203 
L 227.721816 94.498051 
L 228.803212 79.152178 
L 229.884607 68.605125 
L 230.966002 62.959694 
L 232.047398 60.606328 
L 233.128793 59.842302 
L 234.210188 59.649126 
L 238.53577 59.605254 
L 265.570654 59.649126 
L 266.652049 59.842302 
L 267.733444 60.606328 
L 268.81484 62.959694 
L 269.896235 68.605125 
L 270.97763 79.152178 
L 272.059026 94.498051 
L 273.140421 111.887203 
L 274.221816 127.233075 
L 275.303212 137.780129 
L 276.384607 143.42556 
L 277.466002 145.778926 
L 278.547398 146.542952 
L 279.628793 146.736128 
L 283.954374 146.78 
L 314.038095 146.78 
L 314.038095 146.78 
" style="fill:none;stroke:#cccccc;stroke-linecap:square;stroke-width:1.75;"/>
   </g>
   <g id="line2d_24">
    <path clip-path="url(#p04b84a1930)" d="M 0.628793 146.78 
L 40.640421 146.738816 
L 41.721816 146.641998 
L 42.803212 146.409746 
L 43.884607 145.97584 
L 48.210188 143.563888 
L 49.291584 143.331636 
L 51.454374 143.203386 
L 67.675305 143.193634 
L 86.059026 143.234818 
L 87.140421 143.331636 
L 88.221816 143.563888 
L 89.303212 143.997794 
L 93.628793 146.409746 
L 94.710188 146.641998 
L 96.872979 146.770248 
L 113.093909 146.78 
L 129.31484 146.749184 
L 130.396235 146.613497 
L 131.47763 146.076843 
L 132.559026 144.423832 
L 133.640421 140.458466 
L 134.721816 133.050187 
L 135.803212 122.271205 
L 136.884607 110.057018 
L 137.966002 99.278035 
L 139.047398 91.869756 
L 140.128793 87.90439 
L 141.210188 86.25138 
L 142.291584 85.714726 
L 144.454374 85.55232 
L 173.652049 85.55232 
L 175.81484 85.714726 
L 176.896235 86.25138 
L 177.97763 87.90439 
L 179.059026 91.869756 
L 180.140421 99.278035 
L 181.221816 110.057018 
L 182.303212 122.271205 
L 183.384607 133.050187 
L 184.466002 140.458466 
L 185.547398 144.423832 
L 186.628793 146.076843 
L 187.710188 146.613497 
L 189.872979 146.775903 
L 217.989258 146.78 
L 220.152049 146.732102 
L 221.233444 146.521201 
L 222.31484 145.687071 
L 223.396235 143.117769 
L 224.47763 136.954334 
L 225.559026 125.439522 
L 226.640421 108.685568 
L 227.721816 89.700852 
L 228.803212 72.946899 
L 229.884607 61.432086 
L 230.966002 55.268651 
L 232.047398 52.699349 
L 233.128793 51.865219 
L 234.210188 51.654318 
L 237.454374 51.606421 
L 265.570654 51.654318 
L 266.652049 51.865219 
L 267.733444 52.699349 
L 268.81484 55.268651 
L 269.896235 61.432086 
L 270.97763 72.946899 
L 272.059026 89.700852 
L 273.140421 108.685568 
L 274.221816 125.439522 
L 275.303212 136.954334 
L 276.384607 143.117769 
L 277.466002 145.687071 
L 278.547398 146.521201 
L 279.628793 146.732102 
L 282.872979 146.78 
L 314.038095 146.78 
L 314.038095 146.78 
" style="fill:none;stroke:#cccccc;stroke-linecap:square;stroke-width:1.75;"/>
   </g>
   <g id="line2d_25">
    <path clip-path="url(#p04b84a1930)" d="M 0.628793 146.78 
L 40.640421 146.730014 
L 41.721816 146.612506 
L 42.803212 146.330619 
L 43.884607 145.803984 
L 47.128793 143.40321 
L 48.210188 142.876575 
L 49.291584 142.594688 
L 51.454374 142.43903 
L 64.431119 142.427194 
L 86.059026 142.47718 
L 87.140421 142.594688 
L 88.221816 142.876575 
L 89.303212 143.40321 
L 92.547398 145.803984 
L 93.628793 146.330619 
L 94.710188 146.612506 
L 96.872979 146.768164 
L 109.849723 146.78 
L 129.31484 146.746521 
L 130.396235 146.599109 
L 131.47763 146.016081 
L 132.559026 144.220228 
L 133.640421 139.912201 
L 134.721816 131.863748 
L 135.803212 120.153317 
L 136.884607 106.88366 
L 137.966002 95.173229 
L 139.047398 87.124775 
L 140.128793 82.816749 
L 141.210188 81.020896 
L 142.291584 80.437868 
L 143.372979 80.290455 
L 147.698561 80.256976 
L 174.733444 80.290455 
L 175.81484 80.437868 
L 176.896235 81.020896 
L 177.97763 82.816749 
L 179.059026 87.124775 
L 180.140421 95.173229 
L 181.221816 106.88366 
L 182.303212 120.153317 
L 183.384607 131.863748 
L 184.466002 139.912201 
L 185.547398 144.220228 
L 186.628793 146.016081 
L 187.710188 146.599109 
L 188.791584 146.746521 
L 193.117165 146.78 
L 220.152049 146.731553 
L 221.233444 146.518234 
L 222.31484 145.674541 
L 223.396235 143.075784 
L 224.47763 136.841689 
L 225.559026 125.194866 
L 226.640421 108.248839 
L 227.721816 89.046475 
L 228.803212 72.100447 
L 229.884607 60.453625 
L 230.966002 54.21953 
L 232.047398 51.620772 
L 233.128793 50.777079 
L 234.210188 50.56376 
L 237.454374 50.515313 
L 265.570654 50.56376 
L 266.652049 50.777079 
L 267.733444 51.620772 
L 268.81484 54.21953 
L 269.896235 60.453625 
L 270.97763 72.100447 
L 272.059026 89.046475 
L 273.140421 108.248839 
L 274.221816 125.194866 
L 275.303212 136.841689 
L 276.384607 143.075784 
L 277.466002 145.674541 
L 278.547398 146.518234 
L 279.628793 146.731553 
L 282.872979 146.78 
L 314.038095 146.78 
L 314.038095 146.78 
" style="fill:none;stroke:#cccccc;stroke-linecap:square;stroke-width:1.75;"/>
   </g>
   <g id="line2d_26">
    <path clip-path="url(#p04b84a1930)" d="M 0.628793 146.78 
L 38.47763 146.746818 
L 39.559026 146.600709 
L 40.640421 146.022841 
L 41.721816 144.242879 
L 42.803212 139.972974 
L 43.884607 131.99574 
L 44.966002 120.388934 
L 46.047398 107.236699 
L 47.128793 95.629892 
L 48.210188 87.652659 
L 49.291584 83.382753 
L 50.372979 81.602792 
L 51.454374 81.024923 
L 52.53577 80.878815 
L 57.942747 80.845632 
L 83.896235 80.878815 
L 84.97763 81.024923 
L 86.059026 81.602792 
L 87.140421 83.382753 
L 88.221816 87.652659 
L 89.303212 95.629892 
L 90.384607 107.236699 
L 91.466002 120.388934 
L 92.547398 131.99574 
L 93.628793 139.972974 
L 94.710188 144.242879 
L 95.791584 146.022841 
L 96.872979 146.600709 
L 97.954374 146.746818 
L 103.361351 146.78 
L 129.31484 146.729828 
L 130.396235 146.508913 
L 131.47763 145.635175 
L 132.559026 142.943872 
L 133.640421 136.487773 
L 134.721816 124.426192 
L 135.803212 106.876696 
L 136.884607 86.990511 
L 137.966002 69.441015 
L 139.047398 57.379434 
L 140.128793 50.923335 
L 141.210188 48.232033 
L 142.291584 47.358295 
L 143.372979 47.137379 
L 146.617165 47.087207 
L 174.733444 47.137379 
L 175.81484 47.358295 
L 176.896235 48.232033 
L 177.97763 50.923335 
L 179.059026 57.379434 
L 180.140421 69.441015 
L 181.221816 86.990511 
L 182.303212 106.876696 
L 183.384607 124.426192 
L 184.466002 136.487773 
L 185.547398 142.943872 
L 186.628793 145.635175 
L 187.710188 146.508913 
L 188.791584 146.729828 
L 192.03577 146.78 
L 220.152049 146.729322 
L 221.233444 146.506179 
L 222.31484 145.623632 
L 223.396235 142.905194 
L 224.47763 136.384001 
L 225.559026 124.200808 
L 226.640421 106.474367 
L 227.721816 86.387677 
L 228.803212 68.661236 
L 229.884607 56.478043 
L 230.966002 49.95685 
L 232.047398 47.238412 
L 233.128793 46.355865 
L 234.210188 46.132722 
L 237.454374 46.082044 
L 265.570654 46.132722 
L 266.652049 46.355865 
L 267.733444 47.238412 
L 268.81484 49.95685 
L 269.896235 56.478043 
L 270.97763 68.661236 
L 272.059026 86.387677 
L 273.140421 106.474367 
L 274.221816 124.200808 
L 275.303212 136.384001 
L 276.384607 142.905194 
L 277.466002 145.623632 
L 278.547398 146.506179 
L 279.628793 146.729322 
L 282.872979 146.78 
L 314.038095 146.78 
L 314.038095 146.78 
" style="fill:none;stroke:#cccccc;stroke-linecap:square;stroke-width:1.75;"/>
   </g>
   <g id="line2d_27">
    <path clip-path="url(#p04b84a1930)" d="M 0.628793 146.78 
L 41.721816 146.706163 
L 43.884607 146.349737 
L 48.210188 145.059231 
L 50.372979 144.883163 
L 57.942747 144.861127 
L 87.140421 144.934965 
L 89.303212 145.29139 
L 93.628793 146.581897 
L 95.791584 146.757965 
L 103.361351 146.78 
L 129.31484 146.758885 
L 130.396235 146.665913 
L 131.47763 146.298203 
L 132.559026 145.165574 
L 133.640421 142.44854 
L 134.721816 137.372452 
L 135.803212 129.986787 
L 136.884607 121.617732 
L 137.966002 114.232068 
L 139.047398 109.155979 
L 140.128793 106.438945 
L 141.210188 105.306317 
L 142.291584 104.938606 
L 144.454374 104.827327 
L 174.733444 104.845634 
L 175.81484 104.938606 
L 176.896235 105.306317 
L 177.97763 106.438945 
L 179.059026 109.155979 
L 180.140421 114.232068 
L 181.221816 121.617732 
L 182.303212 129.986787 
L 183.384607 137.372452 
L 184.466002 142.44854 
L 185.547398 145.165574 
L 186.628793 146.298203 
L 187.710188 146.665913 
L 189.872979 146.777192 
L 219.070654 146.774024 
L 220.152049 146.735056 
L 221.233444 146.537159 
L 222.31484 145.754463 
L 223.396235 143.343587 
L 224.47763 137.560198 
L 225.559026 126.755404 
L 226.640421 111.034521 
L 227.721816 93.220427 
L 228.803212 77.499545 
L 229.884607 66.694751 
L 230.966002 60.911362 
L 232.047398 58.500486 
L 233.128793 57.71779 
L 234.210188 57.519893 
L 238.53577 57.474949 
L 265.570654 57.519893 
L 266.652049 57.71779 
L 267.733444 58.500486 
L 268.81484 60.911362 
L 269.896235 66.694751 
L 270.97763 77.499545 
L 272.059026 93.220427 
L 273.140421 111.034521 
L 274.221816 126.755404 
L 275.303212 137.560198 
L 276.384607 143.343587 
L 277.466002 145.754463 
L 278.547398 146.537159 
L 279.628793 146.735056 
L 283.954374 146.78 
L 314.038095 146.78 
L 314.038095 146.78 
" style="fill:none;stroke:#cccccc;stroke-linecap:square;stroke-width:1.75;"/>
   </g>
   <g id="line2d_28">
    <path clip-path="url(#p04b84a1930)" d="M 0.628793 146.78 
L 40.640421 146.721111 
L 41.721816 146.582674 
L 42.803212 146.250579 
L 43.884607 145.630144 
L 47.128793 142.801764 
L 48.210188 142.18133 
L 49.291584 141.849235 
L 51.454374 141.665853 
L 63.349723 141.651908 
L 86.059026 141.710797 
L 87.140421 141.849235 
L 88.221816 142.18133 
L 89.303212 142.801764 
L 92.547398 145.630144 
L 93.628793 146.250579 
L 94.710188 146.582674 
L 96.872979 146.766056 
L 108.768328 146.78 
L 129.31484 146.744437 
L 130.396235 146.587846 
L 131.47763 145.968516 
L 132.559026 144.060846 
L 133.640421 139.484585 
L 134.721816 130.935002 
L 135.803212 118.495433 
L 136.884607 104.399555 
L 137.966002 91.959986 
L 139.047398 83.410404 
L 140.128793 78.834142 
L 141.210188 76.926472 
L 142.291584 76.307143 
L 143.372979 76.150551 
L 147.698561 76.114988 
L 174.733444 76.150551 
L 175.81484 76.307143 
L 176.896235 76.926472 
L 177.97763 78.834142 
L 179.059026 83.410404 
L 180.140421 91.959986 
L 181.221816 104.399555 
L 182.303212 118.495433 
L 183.384607 130.935002 
L 184.466002 139.484585 
L 185.547398 144.060846 
L 186.628793 145.968516 
L 187.710188 146.587846 
L 188.791584 146.744437 
L 193.117165 146.78 
L 220.152049 146.731174 
L 221.233444 146.516185 
L 222.31484 145.665886 
L 223.396235 143.04678 
L 224.47763 136.763871 
L 225.559026 125.025853 
L 226.640421 107.947138 
L 227.721816 88.594418 
L 228.803212 71.515702 
L 229.884607 59.777684 
L 230.966002 53.494776 
L 232.047398 50.87567 
L 233.128793 50.025371 
L 234.210188 49.810381 
L 237.454374 49.761555 
L 265.570654 49.810381 
L 266.652049 50.025371 
L 267.733444 50.87567 
L 268.81484 53.494776 
L 269.896235 59.777684 
L 270.97763 71.515702 
L 272.059026 88.594418 
L 273.140421 107.947138 
L 274.221816 125.025853 
L 275.303212 136.763871 
L 276.384607 143.04678 
L 277.466002 145.665886 
L 278.547398 146.516185 
L 279.628793 146.731174 
L 282.872979 146.78 
L 314.038095 146.78 
L 314.038095 146.78 
" style="fill:none;stroke:#cccccc;stroke-linecap:square;stroke-width:1.75;"/>
   </g>
   <g id="line2d_29">
    <path clip-path="url(#p04b84a1930)" d="M 0.628793 146.78 
L 39.559026 146.745412 
L 40.640421 146.633931 
L 41.721816 146.290546 
L 42.803212 145.466808 
L 43.884607 143.927864 
L 44.966002 141.688713 
L 46.047398 139.151422 
L 47.128793 136.912271 
L 48.210188 135.373326 
L 49.291584 134.549589 
L 50.372979 134.206204 
L 52.53577 134.066536 
L 75.245072 134.060135 
L 84.97763 134.094723 
L 86.059026 134.206204 
L 87.140421 134.549589 
L 88.221816 135.373326 
L 89.303212 136.912271 
L 90.384607 139.151422 
L 91.466002 141.688713 
L 92.547398 143.927864 
L 93.628793 145.466808 
L 94.710188 146.290546 
L 95.791584 146.633931 
L 97.954374 146.773599 
L 120.663677 146.78 
L 129.31484 146.735877 
L 130.396235 146.541597 
L 131.47763 145.773202 
L 132.559026 143.40638 
L 133.640421 137.728669 
L 134.721816 127.121308 
L 135.803212 111.687689 
L 136.884607 94.199107 
L 137.966002 78.765489 
L 139.047398 68.158128 
L 140.128793 62.480417 
L 141.210188 60.113594 
L 142.291584 59.3452 
L 143.372979 59.150919 
L 147.698561 59.106796 
L 174.733444 59.150919 
L 175.81484 59.3452 
L 176.896235 60.113594 
L 177.97763 62.480417 
L 179.059026 68.158128 
L 180.140421 78.765489 
L 181.221816 94.199107 
L 182.303212 111.687689 
L 183.384607 127.121308 
L 184.466002 137.728669 
L 185.547398 143.40638 
L 186.628793 145.773202 
L 187.710188 146.541597 
L 188.791584 146.735877 
L 193.117165 146.78 
L 220.152049 146.729955 
L 221.233444 146.509598 
L 222.31484 145.638069 
L 223.396235 142.953571 
L 224.47763 136.513796 
L 225.559026 124.482712 
L 226.640421 106.977589 
L 227.721816 87.141685 
L 228.803212 69.636561 
L 229.884607 57.605477 
L 230.966002 51.165702 
L 232.047398 48.481204 
L 233.128793 47.609676 
L 234.210188 47.389319 
L 237.454374 47.339274 
L 265.570654 47.389319 
L 266.652049 47.609676 
L 267.733444 48.481204 
L 268.81484 51.165702 
L 269.896235 57.605477 
L 270.97763 69.636561 
L 272.059026 87.141685 
L 273.140421 106.977589 
L 274.221816 124.482712 
L 275.303212 136.513796 
L 276.384607 142.953571 
L 277.466002 145.638069 
L 278.547398 146.509598 
L 279.628793 146.729955 
L 282.872979 146.78 
L 314.038095 146.78 
L 314.038095 146.78 
" style="fill:none;stroke:#cccccc;stroke-linecap:square;stroke-width:1.75;"/>
   </g>
   <g id="line2d_30">
    <path clip-path="url(#p04b84a1930)" d="M 0.628793 146.78 
L 40.640421 146.70961 
L 41.721816 146.544136 
L 42.803212 146.147182 
L 43.884607 145.405575 
L 47.128793 142.02481 
L 48.210188 141.283203 
L 49.291584 140.886249 
L 51.454374 140.667053 
L 61.186933 140.650385 
L 86.059026 140.720774 
L 87.140421 140.886249 
L 88.221816 141.283203 
L 89.303212 142.02481 
L 92.547398 145.405575 
L 93.628793 146.147182 
L 94.710188 146.544136 
L 96.872979 146.763332 
L 106.605537 146.78 
L 129.31484 146.742356 
L 130.396235 146.576602 
L 131.47763 145.921034 
L 132.559026 143.90174 
L 133.640421 139.057708 
L 134.721816 130.007863 
L 135.803212 116.840417 
L 136.884607 101.919746 
L 137.966002 88.7523 
L 139.047398 79.702455 
L 140.128793 74.858422 
L 141.210188 72.839129 
L 142.291584 72.183561 
L 143.372979 72.017807 
L 147.698561 71.980163 
L 174.733444 72.017807 
L 175.81484 72.183561 
L 176.896235 72.839129 
L 177.97763 74.858422 
L 179.059026 79.702455 
L 180.140421 88.7523 
L 181.221816 101.919746 
L 182.303212 116.840417 
L 183.384607 130.007863 
L 184.466002 139.057708 
L 185.547398 143.90174 
L 186.628793 145.921034 
L 187.710188 146.576602 
L 188.791584 146.742356 
L 193.117165 146.78 
L 220.152049 146.730832 
L 221.233444 146.514339 
L 222.31484 145.658092 
L 223.396235 143.020664 
L 224.47763 136.693805 
L 225.559026 124.873675 
L 226.640421 107.675488 
L 227.721816 88.187389 
L 228.803212 70.989202 
L 229.884607 59.169072 
L 230.966002 52.842212 
L 232.047398 50.204785 
L 233.128793 49.348538 
L 234.210188 49.132045 
L 237.454374 49.082877 
L 265.570654 49.132045 
L 266.652049 49.348538 
L 267.733444 50.204785 
L 268.81484 52.842212 
L 269.896235 59.169072 
L 270.97763 70.989202 
L 272.059026 88.187389 
L 273.140421 107.675488 
L 274.221816 124.873675 
L 275.303212 136.693805 
L 276.384607 143.020664 
L 277.466002 145.658092 
L 278.547398 146.514339 
L 279.628793 146.730832 
L 282.872979 146.78 
L 314.038095 146.78 
L 314.038095 146.78 
" style="fill:none;stroke:#cccccc;stroke-linecap:square;stroke-width:1.75;"/>
   </g>
   <g id="line2d_31">
    <path clip-path="url(#p04b84a1930)" d="M 0.628793 146.78 
L 40.640421 146.676238 
L 41.721816 146.432309 
L 42.803212 145.847155 
L 43.884607 144.753943 
L 44.966002 143.163329 
L 47.128793 139.770314 
L 48.210188 138.677102 
L 49.291584 138.091948 
L 50.372979 137.84802 
L 52.53577 137.748805 
L 82.81484 137.744862 
L 86.059026 137.84802 
L 87.140421 138.091948 
L 88.221816 138.677102 
L 89.303212 139.770314 
L 90.384607 141.360928 
L 92.547398 144.753943 
L 93.628793 145.847155 
L 94.710188 146.432309 
L 95.791584 146.676238 
L 97.954374 146.775453 
L 127.152049 146.78 
L 129.31484 146.738518 
L 130.396235 146.555863 
L 131.47763 145.833451 
L 132.559026 143.608266 
L 133.640421 138.270325 
L 134.721816 128.297738 
L 135.803212 113.787709 
L 136.884607 97.345693 
L 137.966002 82.835664 
L 139.047398 72.863077 
L 140.128793 67.525135 
L 141.210188 65.29995 
L 142.291584 64.577539 
L 143.372979 64.394884 
L 147.698561 64.353402 
L 174.733444 64.394884 
L 175.81484 64.577539 
L 176.896235 65.29995 
L 177.97763 67.525135 
L 179.059026 72.863077 
L 180.140421 82.835664 
L 181.221816 97.345693 
L 182.303212 113.787709 
L 183.384607 128.297738 
L 184.466002 138.270325 
L 185.547398 143.608266 
L 186.628793 145.833451 
L 187.710188 146.555863 
L 188.791584 146.738518 
L 193.117165 146.78 
L 220.152049 146.730283 
L 221.233444 146.51137 
L 222.31484 145.645553 
L 223.396235 142.97865 
L 224.47763 136.581081 
L 225.559026 124.628848 
L 226.640421 107.238453 
L 227.721816 87.532553 
L 228.803212 70.142158 
L 229.884607 58.189925 
L 230.966002 51.792356 
L 232.047398 49.125453 
L 233.128793 48.259636 
L 234.210188 48.040723 
L 237.454374 47.991006 
L 265.570654 48.040723 
L 266.652049 48.259636 
L 267.733444 49.125453 
L 268.81484 51.792356 
L 269.896235 58.189925 
L 270.97763 70.142158 
L 272.059026 87.532553 
L 273.140421 107.238453 
L 274.221816 124.628848 
L 275.303212 136.581081 
L 276.384607 142.97865 
L 277.466002 145.645553 
L 278.547398 146.51137 
L 279.628793 146.730283 
L 282.872979 146.78 
L 314.038095 146.78 
L 314.038095 146.78 
" style="fill:none;stroke:#cccccc;stroke-linecap:square;stroke-width:1.75;"/>
   </g>
   <g id="line2d_32">
    <path clip-path="url(#p04b84a1930)" d="M 0.628793 146.78 
L 41.721816 146.689727 
L 42.803212 146.5378 
L 43.884607 146.253963 
L 48.210188 144.676198 
L 50.372979 144.460939 
L 56.861351 144.433998 
L 87.140421 144.524271 
L 88.221816 144.676198 
L 89.303212 144.960035 
L 93.628793 146.5378 
L 95.791584 146.75306 
L 102.279956 146.78 
L 129.31484 146.755637 
L 130.396235 146.64836 
L 131.47763 146.224075 
L 132.559026 144.917182 
L 133.640421 141.78211 
L 134.721816 135.925025 
L 135.803212 127.403017 
L 136.884607 117.746316 
L 137.966002 109.224307 
L 139.047398 103.367222 
L 140.128793 100.23215 
L 141.210188 98.925258 
L 142.291584 98.500972 
L 144.454374 98.372572 
L 173.652049 98.372572 
L 175.81484 98.500972 
L 176.896235 98.925258 
L 177.97763 100.23215 
L 179.059026 103.367222 
L 180.140421 109.224307 
L 181.221816 117.746316 
L 182.303212 127.403017 
L 183.384607 135.925025 
L 184.466002 141.78211 
L 185.547398 144.917182 
L 186.628793 146.224075 
L 187.710188 146.64836 
L 189.872979 146.776761 
L 219.070654 146.773863 
L 220.152049 146.733848 
L 221.233444 146.530634 
L 222.31484 145.726908 
L 223.396235 143.251257 
L 224.47763 137.312479 
L 225.559026 126.217382 
L 226.640421 110.07411 
L 227.721816 91.781386 
L 228.803212 75.638114 
L 229.884607 64.543016 
L 230.966002 58.604238 
L 232.047398 56.128587 
L 233.128793 55.324861 
L 234.210188 55.121647 
L 237.454374 55.075496 
L 265.570654 55.121647 
L 266.652049 55.324861 
L 267.733444 56.128587 
L 268.81484 58.604238 
L 269.896235 64.543016 
L 270.97763 75.638114 
L 272.059026 91.781386 
L 273.140421 110.07411 
L 274.221816 126.217382 
L 275.303212 137.312479 
L 276.384607 143.251257 
L 277.466002 145.726908 
L 278.547398 146.530634 
L 279.628793 146.733848 
L 282.872979 146.78 
L 314.038095 146.78 
L 314.038095 146.78 
" style="fill:none;stroke:#cccccc;stroke-linecap:square;stroke-width:1.75;"/>
   </g>
   <g id="line2d_33">
    <path clip-path="url(#p04b84a1930)" d="M 0.628793 146.78 
L 40.640421 146.701432 
L 41.721816 146.51673 
L 42.803212 146.073654 
L 43.884607 145.245879 
L 47.128793 141.472297 
L 48.210188 140.644522 
L 49.291584 140.201446 
L 50.372979 140.016745 
L 53.617165 139.938634 
L 86.059026 140.016745 
L 87.140421 140.201446 
L 88.221816 140.644522 
L 89.303212 141.472297 
L 92.547398 145.245879 
L 93.628793 146.073654 
L 94.710188 146.51673 
L 95.791584 146.701432 
L 99.03577 146.779542 
L 129.31484 146.741173 
L 130.396235 146.570213 
L 131.47763 145.89405 
L 132.559026 143.811323 
L 133.640421 138.815121 
L 134.721816 129.480987 
L 135.803212 115.899902 
L 136.884607 100.510516 
L 137.966002 86.92943 
L 139.047398 77.595296 
L 140.128793 72.599094 
L 141.210188 70.516367 
L 142.291584 69.840205 
L 143.372979 69.669244 
L 147.698561 69.630417 
L 174.733444 69.669244 
L 175.81484 69.840205 
L 176.896235 70.516367 
L 177.97763 72.599094 
L 179.059026 77.595296 
L 180.140421 86.92943 
L 181.221816 100.510516 
L 182.303212 115.899902 
L 183.384607 129.480987 
L 184.466002 138.815121 
L 185.547398 143.811323 
L 186.628793 145.89405 
L 187.710188 146.570213 
L 188.791584 146.741173 
L 193.117165 146.78 
L 220.152049 146.730653 
L 221.233444 146.513369 
L 222.31484 145.653994 
L 223.396235 143.006933 
L 224.47763 136.656963 
L 225.559026 124.793659 
L 226.640421 107.532652 
L 227.721816 87.973369 
L 228.803212 70.712362 
L 229.884607 58.849057 
L 230.966002 52.499088 
L 232.047398 49.852027 
L 233.128793 48.992652 
L 234.210188 48.775368 
L 237.454374 48.726021 
L 265.570654 48.775368 
L 266.652049 48.992652 
L 267.733444 49.852027 
L 268.81484 52.499088 
L 269.896235 58.849057 
L 270.97763 70.712362 
L 272.059026 87.973369 
L 273.140421 107.532652 
L 274.221816 124.793659 
L 275.303212 136.656963 
L 276.384607 143.006933 
L 277.466002 145.653994 
L 278.547398 146.513369 
L 279.628793 146.730653 
L 282.872979 146.78 
L 314.038095 146.78 
L 314.038095 146.78 
" style="fill:none;stroke:#cccccc;stroke-linecap:square;stroke-width:1.75;"/>
   </g>
   <g id="line2d_34">
    <path clip-path="url(#p04b84a1930)" d="M 0.628793 146.78 
L 40.640421 146.690013 
L 41.721816 146.478469 
L 42.803212 145.971001 
L 43.884607 145.022926 
L 44.966002 143.643485 
L 47.128793 140.700932 
L 48.210188 139.752857 
L 49.291584 139.245389 
L 50.372979 139.033845 
L 52.53577 138.947802 
L 83.896235 138.947802 
L 86.059026 139.033845 
L 87.140421 139.245389 
L 88.221816 139.752857 
L 89.303212 140.700932 
L 90.384607 142.080373 
L 92.547398 145.022926 
L 93.628793 145.971001 
L 94.710188 146.478469 
L 95.791584 146.690013 
L 97.954374 146.776056 
L 128.233444 146.774657 
L 129.31484 146.739818 
L 130.396235 146.56289 
L 131.47763 145.863127 
L 132.559026 143.707706 
L 133.640421 138.537118 
L 134.721816 128.877188 
L 135.803212 114.822073 
L 136.884607 98.895541 
L 137.966002 84.840426 
L 139.047398 75.180496 
L 140.128793 70.009908 
L 141.210188 67.854486 
L 142.291584 67.154723 
L 143.372979 66.977795 
L 147.698561 66.937613 
L 174.733444 66.977795 
L 175.81484 67.154723 
L 176.896235 67.854486 
L 177.97763 70.009908 
L 179.059026 75.180496 
L 180.140421 84.840426 
L 181.221816 98.895541 
L 182.303212 114.822073 
L 183.384607 128.877188 
L 184.466002 138.537118 
L 185.547398 143.707706 
L 186.628793 145.863127 
L 187.710188 146.56289 
L 188.791584 146.739818 
L 193.117165 146.78 
L 220.152049 146.730459 
L 221.233444 146.512319 
L 222.31484 145.649562 
L 223.396235 142.992083 
L 224.47763 136.617123 
L 225.559026 124.707128 
L 226.640421 107.378189 
L 227.721816 87.741927 
L 228.803212 70.412988 
L 229.884607 58.502993 
L 230.966002 52.128033 
L 232.047398 49.470554 
L 233.128793 48.607796 
L 234.210188 48.389657 
L 237.454374 48.340116 
L 265.570654 48.389657 
L 266.652049 48.607796 
L 267.733444 49.470554 
L 268.81484 52.128033 
L 269.896235 58.502993 
L 270.97763 70.412988 
L 272.059026 87.741927 
L 273.140421 107.378189 
L 274.221816 124.707128 
L 275.303212 136.617123 
L 276.384607 142.992083 
L 277.466002 145.649562 
L 278.547398 146.512319 
L 279.628793 146.730459 
L 282.872979 146.78 
L 314.038095 146.78 
L 314.038095 146.78 
" style="fill:none;stroke:#cccccc;stroke-linecap:square;stroke-width:1.75;"/>
   </g>
   <g id="line2d_35">
    <path clip-path="url(#p04b84a1930)" d="M 0.628793 146.78 
L 39.559026 146.742824 
L 40.640421 146.623002 
L 41.721816 146.253923 
L 42.803212 145.36855 
L 43.884607 143.714456 
L 44.966002 141.307763 
L 46.047398 138.580622 
L 47.128793 136.173929 
L 48.210188 134.519834 
L 49.291584 133.634461 
L 50.372979 133.265383 
L 52.53577 133.115265 
L 73.082281 133.108385 
L 84.97763 133.145561 
L 86.059026 133.265383 
L 87.140421 133.634461 
L 88.221816 134.519834 
L 89.303212 136.173929 
L 90.384607 138.580622 
L 91.466002 141.307763 
L 92.547398 143.714456 
L 93.628793 145.36855 
L 94.710188 146.253923 
L 95.791584 146.623002 
L 97.954374 146.77312 
L 118.500886 146.78 
L 129.31484 146.735401 
L 130.396235 146.539023 
L 131.47763 145.762334 
L 132.559026 143.369964 
L 133.640421 137.630967 
L 134.721816 126.909109 
L 135.803212 111.308898 
L 136.884607 93.631542 
L 137.966002 78.031331 
L 139.047398 67.309473 
L 140.128793 61.570476 
L 141.210188 59.178106 
L 142.291584 58.401417 
L 143.372979 58.205039 
L 147.698561 58.16044 
L 174.733444 58.205039 
L 175.81484 58.401417 
L 176.896235 59.178106 
L 177.97763 61.570476 
L 179.059026 67.309473 
L 180.140421 78.031331 
L 181.221816 93.631542 
L 182.303212 111.308898 
L 183.384607 126.909109 
L 184.466002 137.630967 
L 185.547398 143.369964 
L 186.628793 145.762334 
L 187.710188 146.539023 
L 188.791584 146.735401 
L 193.117165 146.78 
L 220.152049 146.729899 
L 221.233444 146.509298 
L 222.31484 145.636804 
L 223.396235 142.949333 
L 224.47763 136.502425 
L 225.559026 124.458015 
L 226.640421 106.933502 
L 227.721816 87.075627 
L 228.803212 69.551113 
L 229.884607 57.506703 
L 230.966002 51.059795 
L 232.047398 48.372324 
L 233.128793 47.49983 
L 234.210188 47.279229 
L 237.454374 47.229128 
L 265.570654 47.279229 
L 266.652049 47.49983 
L 267.733444 48.372324 
L 268.81484 51.059795 
L 269.896235 57.506703 
L 270.97763 69.551113 
L 272.059026 87.075627 
L 273.140421 106.933502 
L 274.221816 124.458015 
L 275.303212 136.502425 
L 276.384607 142.949333 
L 277.466002 145.636804 
L 278.547398 146.509298 
L 279.628793 146.729899 
L 282.872979 146.78 
L 314.038095 146.78 
L 314.038095 146.78 
" style="fill:none;stroke:#cccccc;stroke-linecap:square;stroke-width:1.75;"/>
   </g>
   <g id="line2d_36">
    <path clip-path="url(#p04b84a1930)" d="M 0.628793 146.78 
L 41.721816 146.725788 
L 43.884607 146.464098 
L 48.210188 145.516601 
L 50.372979 145.387331 
L 61.186933 145.371152 
L 87.140421 145.425364 
L 89.303212 145.687054 
L 93.628793 146.634551 
L 95.791584 146.763821 
L 106.605537 146.78 
L 130.396235 146.693212 
L 131.47763 146.413489 
L 132.559026 145.551879 
L 133.640421 143.484985 
L 134.721816 139.623518 
L 135.803212 134.005117 
L 136.884607 127.638635 
L 137.966002 122.020234 
L 139.047398 118.158767 
L 140.128793 116.091873 
L 141.210188 115.230264 
L 142.291584 114.95054 
L 144.454374 114.865888 
L 174.733444 114.879815 
L 175.81484 114.95054 
L 176.896235 115.230264 
L 177.97763 116.091873 
L 179.059026 118.158767 
L 180.140421 122.020234 
L 181.221816 127.638635 
L 182.303212 134.005117 
L 183.384607 139.623518 
L 184.466002 143.484985 
L 185.547398 145.551879 
L 186.628793 146.413489 
L 187.710188 146.693212 
L 189.872979 146.777864 
L 220.152049 146.73768 
L 221.233444 146.551336 
L 222.31484 145.814334 
L 223.396235 143.544207 
L 224.47763 138.098455 
L 225.559026 127.924451 
L 226.640421 113.121363 
L 227.721816 96.347267 
L 228.803212 81.544179 
L 229.884607 71.370175 
L 230.966002 65.924424 
L 232.047398 63.654297 
L 233.128793 62.917294 
L 234.210188 62.730951 
L 238.53577 62.688631 
L 265.570654 62.730951 
L 266.652049 62.917294 
L 267.733444 63.654297 
L 268.81484 65.924424 
L 269.896235 71.370175 
L 270.97763 81.544179 
L 272.059026 96.347267 
L 273.140421 113.121363 
L 274.221816 127.924451 
L 275.303212 138.098455 
L 276.384607 143.544207 
L 277.466002 145.814334 
L 278.547398 146.551336 
L 279.628793 146.73768 
L 283.954374 146.78 
L 314.038095 146.78 
L 314.038095 146.78 
" style="fill:none;stroke:#cccccc;stroke-linecap:square;stroke-width:1.75;"/>
   </g>
   <g id="line2d_37">
    <path clip-path="url(#p04b84a1930)" d="M 0.628793 146.78 
L 39.559026 146.752226 
L 40.640421 146.662707 
L 41.721816 146.386971 
L 42.803212 145.725514 
L 43.884607 144.48975 
L 44.966002 142.691723 
L 46.047398 140.654292 
L 47.128793 138.856266 
L 48.210188 137.620502 
L 49.291584 136.959045 
L 50.372979 136.683308 
L 52.53577 136.571156 
L 80.652049 136.566016 
L 84.97763 136.59379 
L 86.059026 136.683308 
L 87.140421 136.959045 
L 88.221816 137.620502 
L 89.303212 138.856266 
L 90.384607 140.654292 
L 91.466002 142.691723 
L 92.547398 144.48975 
L 93.628793 145.725514 
L 94.710188 146.386971 
L 95.791584 146.662707 
L 97.954374 146.77486 
L 126.070654 146.78 
L 129.31484 146.737495 
L 130.396235 146.55034 
L 131.47763 145.810126 
L 132.559026 143.530108 
L 133.640421 138.060628 
L 134.721816 127.842293 
L 135.803212 112.974705 
L 136.884607 96.127519 
L 137.966002 81.259931 
L 139.047398 71.041596 
L 140.128793 65.572116 
L 141.210188 63.292098 
L 142.291584 62.551884 
L 143.372979 62.364729 
L 147.698561 62.322224 
L 174.733444 62.364729 
L 175.81484 62.551884 
L 176.896235 63.292098 
L 177.97763 65.572116 
L 179.059026 71.041596 
L 180.140421 81.259931 
L 181.221816 96.127519 
L 182.303212 112.974705 
L 183.384607 127.842293 
L 184.466002 138.060628 
L 185.547398 143.530108 
L 186.628793 145.810126 
L 187.710188 146.55034 
L 188.791584 146.737495 
L 193.117165 146.78 
L 220.152049 146.730152 
L 221.233444 146.510661 
L 222.31484 145.642557 
L 223.396235 142.968609 
L 224.47763 136.554142 
L 225.559026 124.570339 
L 226.640421 107.13401 
L 227.721816 87.37606 
L 228.803212 69.93973 
L 229.884607 57.955928 
L 230.966002 51.54146 
L 232.047398 48.867513 
L 233.128793 47.999409 
L 234.210188 47.779918 
L 237.454374 47.730069 
L 265.570654 47.779918 
L 266.652049 47.999409 
L 267.733444 48.867513 
L 268.81484 51.54146 
L 269.896235 57.955928 
L 270.97763 69.93973 
L 272.059026 87.37606 
L 273.140421 107.13401 
L 274.221816 124.570339 
L 275.303212 136.554142 
L 276.384607 142.968609 
L 277.466002 145.642557 
L 278.547398 146.510661 
L 279.628793 146.730152 
L 282.872979 146.78 
L 314.038095 146.78 
L 314.038095 146.78 
" style="fill:none;stroke:#cccccc;stroke-linecap:square;stroke-width:1.75;"/>
   </g>
   <g id="matplotlib.axis_1"/>
   <g id="matplotlib.axis_2">
    <g id="ytick_1">
     <g id="line2d_38">
      <defs>
       <path d="M 0 0 
L -3.5 0 
" id="m867c26e0b0" style="stroke:#000000;stroke-width:0.8;"/>
      </defs>
      <g>
       <use style="stroke:#000000;stroke-width:0.8;" x="23.338095" xlink:href="#m867c26e0b0" y="146.78"/>
      </g>
     </g>
     <g id="text_1">
      <!-- $0$ -->
      <defs>
       <path d="M 42 31.640625 
C 42 37.75 41.90625 48.125 37.703125 56.109375 
C 34 63.109375 28.09375 65.59375 22.90625 65.59375 
C 18.09375 65.59375 12 63.40625 8.203125 56.203125 
C 4.203125 48.71875 3.796875 39.4375 3.796875 31.640625 
C 3.796875 25.953125 3.90625 17.28125 7 9.671875 
C 11.296875 -0.609375 19 -2 22.90625 -2 
C 27.5 -2 34.5 -0.109375 38.59375 9.375 
C 41.59375 16.28125 42 24.359375 42 31.640625 
z
M 22.90625 -0.40625 
C 16.5 -0.40625 12.703125 5.078125 11.296875 12.6875 
C 10.203125 18.5625 10.203125 27.15625 10.203125 32.75 
C 10.203125 40.4375 10.203125 46.828125 11.5 52.921875 
C 13.40625 61.390625 19 64 22.90625 64 
C 27 64 32.296875 61.296875 34.203125 53.125 
C 35.5 47.4375 35.59375 40.734375 35.59375 32.75 
C 35.59375 26.25 35.59375 18.265625 34.40625 12.375 
C 32.296875 1.484375 26.40625 -0.40625 22.90625 -0.40625 
z
" id="CMR17-48"/>
      </defs>
      <g transform="translate(7.2 153.87832)scale(0.2 -0.2)">
       <use transform="scale(0.996264)" xlink:href="#CMR17-48"/>
      </g>
     </g>
    </g>
    <g id="ytick_2">
     <g id="line2d_39">
      <g>
       <use style="stroke:#000000;stroke-width:0.8;" x="23.338095" xlink:href="#m867c26e0b0" y="45.98"/>
      </g>
     </g>
     <g id="text_2">
      <!-- $1$ -->
      <defs>
       <path d="M 26.59375 63.40625 
C 26.59375 65.5 26.5 65.5 25.09375 65.5 
C 21.203125 61.1875 15.296875 59.796875 9.703125 59.796875 
C 9.40625 59.796875 8.90625 59.796875 8.796875 59.5 
C 8.703125 59.296875 8.703125 59.09375 8.703125 57 
C 11.796875 57 17 57.59375 21 59.984375 
L 21 7.203125 
C 21 3.6875 20.796875 2.5 12.203125 2.5 
L 9.203125 2.5 
L 9.203125 0 
C 14 0 19 0 23.796875 0 
C 28.59375 0 33.59375 0 38.40625 0 
L 38.40625 2.5 
L 35.40625 2.5 
C 26.796875 2.5 26.59375 3.59375 26.59375 7.15625 
z
" id="CMR17-49"/>
      </defs>
      <g transform="translate(7.2 53.07832)scale(0.2 -0.2)">
       <use transform="scale(0.996264)" xlink:href="#CMR17-49"/>
      </g>
     </g>
    </g>
   </g>
   <g id="line2d_40">
    <path clip-path="url(#p04b84a1930)" d="M 0.628793 146.78 
L 38.47763 146.743761 
L 39.559026 146.584195 
L 40.640421 145.9531 
L 41.721816 144.00919 
L 42.803212 139.345992 
L 43.884607 130.633991 
L 44.966002 117.958104 
L 46.047398 103.594443 
L 47.128793 90.918557 
L 48.210188 82.206556 
L 49.291584 77.543358 
L 50.372979 75.599447 
L 51.454374 74.968352 
L 52.53577 74.808786 
L 56.861351 74.772548 
L 83.896235 74.808786 
L 84.97763 74.968352 
L 86.059026 75.599447 
L 87.140421 77.543358 
L 88.221816 82.206556 
L 89.303212 90.918557 
L 90.384607 103.594443 
L 91.466002 117.958104 
L 92.547398 130.633991 
L 93.628793 139.345992 
L 94.710188 144.00919 
L 95.791584 145.9531 
L 96.872979 146.584195 
L 97.954374 146.743761 
L 102.279956 146.78 
L 129.31484 146.729693 
L 130.396235 146.508183 
L 131.47763 145.632095 
L 132.559026 142.933552 
L 133.640421 136.460084 
L 134.721816 124.366053 
L 135.803212 106.769343 
L 136.884607 86.829657 
L 137.966002 69.232947 
L 139.047398 57.138916 
L 140.128793 50.665448 
L 141.210188 47.966906 
L 142.291584 47.090817 
L 143.372979 46.869307 
L 146.617165 46.819 
L 174.733444 46.869307 
L 175.81484 47.090817 
L 176.896235 47.966906 
L 177.97763 50.665448 
L 179.059026 57.138916 
L 180.140421 69.232947 
L 181.221816 86.829657 
L 182.303212 106.769343 
L 183.384607 124.366053 
L 184.466002 136.460084 
L 185.547398 142.933552 
L 186.628793 145.632095 
L 187.710188 146.508183 
L 188.791584 146.729693 
L 192.03577 146.78 
L 220.152049 146.72931 
L 221.233444 146.506112 
L 222.31484 145.623346 
L 223.396235 142.904235 
L 224.47763 136.381429 
L 225.559026 124.195223 
L 226.640421 106.464397 
L 227.721816 86.372739 
L 228.803212 68.641913 
L 229.884607 56.455707 
L 230.966002 49.9329 
L 232.047398 47.21379 
L 233.128793 46.331024 
L 234.210188 46.107826 
L 237.454374 46.057136 
L 265.570654 46.107826 
L 266.652049 46.331024 
L 267.733444 47.21379 
L 268.81484 49.9329 
L 269.896235 56.455707 
L 270.97763 68.641913 
L 272.059026 86.372739 
L 273.140421 106.464397 
L 274.221816 124.195223 
L 275.303212 136.381429 
L 276.384607 142.904235 
L 277.466002 145.623346 
L 278.547398 146.506112 
L 279.628793 146.72931 
L 282.872979 146.78 
L 314.038095 146.78 
L 314.038095 146.78 
" style="fill:none;stroke:#1764ab;stroke-linecap:square;stroke-width:2;"/>
   </g>
   <g id="patch_6">
    <path d="M 23.338095 149.3 
L 23.338095 10.7 
" style="fill:none;stroke:#000000;stroke-linecap:square;stroke-linejoin:miter;stroke-width:0.8;"/>
   </g>
   <g id="patch_7">
    <path d="M 302.338095 149.3 
L 302.338095 10.7 
" style="fill:none;stroke:#000000;stroke-linecap:square;stroke-linejoin:miter;stroke-width:0.8;"/>
   </g>
   <g id="patch_8">
    <path d="M 23.338095 149.3 
L 302.338095 149.3 
" style="fill:none;stroke:#000000;stroke-linecap:square;stroke-linejoin:miter;stroke-width:0.8;"/>
   </g>
   <g id="patch_9">
    <path d="M 23.338095 10.7 
L 302.338095 10.7 
" style="fill:none;stroke:#000000;stroke-linecap:square;stroke-linejoin:miter;stroke-width:0.8;"/>
   </g>
   <g id="line2d_41">
    <path clip-path="url(#p04b84a1930)" d="M 0.628793 146.78 
L 40.640421 146.74502 
L 41.721816 146.662788 
L 42.803212 146.465525 
L 43.884607 146.096987 
L 48.210188 144.048396 
L 49.291584 143.851132 
L 51.454374 143.742204 
L 69.838095 143.733921 
L 86.059026 143.768901 
L 87.140421 143.851132 
L 88.221816 144.048396 
L 89.303212 144.416934 
L 93.628793 146.465525 
L 94.710188 146.662788 
L 96.872979 146.771717 
L 115.2567 146.78 
L 129.31484 146.751579 
L 130.396235 146.626438 
L 131.47763 146.131495 
L 132.559026 144.606962 
L 133.640421 140.949798 
L 134.721816 134.117316 
L 135.803212 124.176113 
L 136.884607 112.911255 
L 137.966002 102.970053 
L 139.047398 96.137571 
L 140.128793 92.480407 
L 141.210188 90.955874 
L 142.291584 90.460931 
L 144.454374 90.311148 
L 173.652049 90.311148 
L 175.81484 90.460931 
L 176.896235 90.955874 
L 177.97763 92.480407 
L 179.059026 96.137571 
L 180.140421 102.970053 
L 181.221816 112.911255 
L 182.303212 124.176113 
L 183.384607 134.117316 
L 184.466002 140.949798 
L 185.547398 144.606962 
L 186.628793 146.131495 
L 187.710188 146.626438 
L 189.872979 146.776221 
L 219.070654 146.773707 
L 220.152049 146.732671 
L 221.233444 146.524276 
L 222.31484 145.700055 
L 223.396235 143.161275 
L 224.47763 137.071059 
L 225.559026 125.693038 
L 226.640421 109.138115 
L 227.721816 90.37893 
L 228.803212 73.824007 
L 229.884607 62.445986 
L 230.966002 56.35577 
L 232.047398 53.816991 
L 233.128793 52.99277 
L 234.210188 52.784374 
L 237.454374 52.737045 
L 265.570654 52.784374 
L 266.652049 52.99277 
L 267.733444 53.816991 
L 268.81484 56.35577 
L 269.896235 62.445986 
L 270.97763 73.824007 
L 272.059026 90.37893 
L 273.140421 109.138115 
L 274.221816 125.693038 
L 275.303212 137.071059 
L 276.384607 143.161275 
L 277.466002 145.700055 
L 278.547398 146.524276 
L 279.628793 146.732671 
L 282.872979 146.78 
L 314.038095 146.78 
L 314.038095 146.78 
" style="fill:none;stroke:#c54102;stroke-linecap:square;stroke-width:2;"/>
   </g>
   <g id="line2d_42">
    <path clip-path="url(#p04b84a1930)" d="M 0.628793 146.78 
L 41.721816 146.67722 
L 42.803212 146.504245 
L 43.884607 146.181084 
L 48.210188 144.384728 
L 50.372979 144.139645 
L 56.861351 144.108972 
L 87.140421 144.211752 
L 88.221816 144.384728 
L 89.303212 144.707889 
L 93.628793 146.504245 
L 95.791584 146.749327 
L 102.279956 146.78 
L 129.31484 146.753591 
L 130.396235 146.637307 
L 131.47763 146.177396 
L 132.559026 144.760769 
L 133.640421 141.362457 
L 134.721816 135.013576 
L 135.803212 125.776008 
L 136.884607 115.308471 
L 137.966002 106.070903 
L 139.047398 99.722022 
L 140.128793 96.32371 
L 141.210188 94.907083 
L 142.291584 94.447172 
L 144.454374 94.30799 
L 173.652049 94.30799 
L 175.81484 94.447172 
L 176.896235 94.907083 
L 177.97763 96.32371 
L 179.059026 99.722022 
L 180.140421 106.070903 
L 181.221816 115.308471 
L 182.303212 125.776008 
L 183.384607 135.013576 
L 184.466002 141.362457 
L 185.547398 144.760769 
L 186.628793 146.177396 
L 187.710188 146.637307 
L 189.872979 146.776489 
L 219.070654 146.773779 
L 220.152049 146.733217 
L 221.233444 146.527222 
L 222.31484 145.712497 
L 223.396235 143.202968 
L 224.47763 137.182919 
L 225.559026 125.935988 
L 226.640421 109.5718 
L 227.721816 91.028746 
L 228.803212 74.664557 
L 229.884607 63.417626 
L 230.966002 57.397578 
L 232.047398 54.888048 
L 233.128793 54.073324 
L 234.210188 53.867329 
L 237.454374 53.820546 
L 265.570654 53.867329 
L 266.652049 54.073324 
L 267.733444 54.888048 
L 268.81484 57.397578 
L 269.896235 63.417626 
L 270.97763 74.664557 
L 272.059026 91.028746 
L 273.140421 109.5718 
L 274.221816 125.935988 
L 275.303212 137.182919 
L 276.384607 143.202968 
L 277.466002 145.712497 
L 278.547398 146.527222 
L 279.628793 146.733217 
L 282.872979 146.78 
L 314.038095 146.78 
L 314.038095 146.78 
" style="fill:none;stroke:#157f3b;stroke-linecap:square;stroke-width:2;"/>
   </g>
  </g>
 </g>
 <defs>
  <clipPath id="p04b84a1930">
   <rect height="138.6" width="279" x="23.338095" y="10.7"/>
  </clipPath>
 </defs>
</svg>
