<?xml version="1.0" encoding="utf-8" standalone="no"?>
<!DOCTYPE svg PUBLIC "-//W3C//DTD SVG 1.1//EN"
  "http://www.w3.org/Graphics/SVG/1.1/DTD/svg11.dtd">
<!-- Created with matplotlib (http://matplotlib.org/) -->
<svg height="165pt" version="1.1" viewBox="0 0 313 165" width="313pt" xmlns="http://www.w3.org/2000/svg" xmlns:xlink="http://www.w3.org/1999/xlink">
 <defs>
  <style type="text/css">
*{stroke-linecap:butt;stroke-linejoin:round;}
  </style>
 </defs>
 <g id="figure_1">
  <g id="patch_1">
   <path d="M 0 165.322293 
L 313.038095 165.322293 
L 313.038095 0 
L 0 0 
z
" style="fill:#ffffff;"/>
  </g>
  <g id="axes_1">
   <g id="patch_2">
    <path d="M 23.338095 149.3 
L 302.338095 149.3 
L 302.338095 10.7 
L 23.338095 10.7 
z
" style="fill:#ffffff;"/>
   </g>
   <g id="patch_3">
    <path clip-path="url(#pa5f538ed88)" d="M 46.047398 149.3 
L 46.047398 10.7 
L 91.466002 10.7 
L 91.466002 149.3 
z
" style="fill:#fee7dc;stroke:#fee7dc;stroke-linejoin:miter;"/>
   </g>
   <g id="patch_4">
    <path clip-path="url(#pa5f538ed88)" d="M 136.884607 149.3 
L 136.884607 10.7 
L 182.303212 10.7 
L 182.303212 149.3 
z
" style="fill:#fdd4c2;stroke:#fdd4c2;stroke-linejoin:miter;"/>
   </g>
   <g id="patch_5">
    <path clip-path="url(#pa5f538ed88)" d="M 227.721816 149.3 
L 227.721816 10.7 
L 273.140421 10.7 
L 273.140421 149.3 
z
" style="fill:#fcbba1;stroke:#fcbba1;stroke-linejoin:miter;"/>
   </g>
   <g id="line2d_1">
    <path clip-path="url(#pa5f538ed88)" d="M 0.628793 146.78 
L 41.721816 146.733931 
L 43.884607 146.51155 
L 48.210188 145.706378 
L 50.372979 145.596526 
L 62.268328 145.582777 
L 87.140421 145.628846 
L 89.303212 145.851227 
L 93.628793 146.656399 
L 95.791584 146.766252 
L 107.686933 146.78 
L 130.396235 146.707371 
L 131.47763 146.473282 
L 132.559026 145.752236 
L 133.640421 144.022538 
L 134.721816 140.791035 
L 135.803212 136.089227 
L 136.884607 130.76138 
L 137.966002 126.059572 
L 139.047398 122.82807 
L 140.128793 121.098371 
L 141.210188 120.377326 
L 142.291584 120.143236 
L 145.53577 120.070608 
L 175.81484 120.143236 
L 176.896235 120.377326 
L 177.97763 121.098371 
L 179.059026 122.82807 
L 180.140421 126.059572 
L 181.221816 130.76138 
L 182.303212 136.089227 
L 183.384607 140.791035 
L 184.466002 144.022538 
L 185.547398 145.752236 
L 186.628793 146.473282 
L 187.710188 146.707371 
L 190.954374 146.78 
L 220.152049 146.739612 
L 221.233444 146.561775 
L 222.31484 145.858419 
L 223.396235 143.691929 
L 224.47763 138.49479 
L 225.559026 128.785256 
L 226.640421 114.657967 
L 227.721816 98.649652 
L 228.803212 84.522363 
L 229.884607 74.812829 
L 230.966002 69.61569 
L 232.047398 67.4492 
L 233.128793 66.745844 
L 234.210188 66.568008 
L 238.53577 66.527619 
L 265.570654 66.568008 
L 266.652049 66.745844 
L 267.733444 67.4492 
L 268.81484 69.61569 
L 269.896235 74.812829 
L 270.97763 84.522363 
L 272.059026 98.649652 
L 273.140421 114.657967 
L 274.221816 128.785256 
L 275.303212 138.49479 
L 276.384607 143.691929 
L 277.466002 145.858419 
L 278.547398 146.561775 
L 279.628793 146.739612 
L 283.954374 146.78 
L 314.038095 146.78 
L 314.038095 146.78 
" style="fill:none;stroke:#cccccc;stroke-linecap:square;stroke-width:1.75;"/>
   </g>
   <g id="line2d_2">
    <path clip-path="url(#pa5f538ed88)" d="M 0.628793 146.78 
L 39.559026 146.6798 
L 40.640421 146.356847 
L 41.721816 145.362083 
L 42.803212 142.975767 
L 43.884607 138.517543 
L 44.966002 132.030864 
L 46.047398 124.680494 
L 47.128793 118.193815 
L 48.210188 113.735591 
L 49.291584 111.349275 
L 50.372979 110.354511 
L 51.454374 110.031558 
L 53.617165 109.933824 
L 83.896235 109.949903 
L 84.97763 110.031558 
L 86.059026 110.354511 
L 87.140421 111.349275 
L 88.221816 113.735591 
L 89.303212 118.193815 
L 90.384607 124.680494 
L 91.466002 132.030864 
L 92.547398 138.517543 
L 93.628793 142.975767 
L 94.710188 145.362083 
L 95.791584 146.356847 
L 96.872979 146.6798 
L 99.03577 146.777534 
L 128.233444 146.773493 
L 129.31484 146.731064 
L 130.396235 146.515592 
L 131.47763 145.663383 
L 132.559026 143.038393 
L 133.640421 136.74137 
L 134.721816 124.976982 
L 135.803212 107.859899 
L 136.884607 88.463703 
L 137.966002 71.346619 
L 139.047398 59.582232 
L 140.128793 53.285209 
L 141.210188 50.660219 
L 142.291584 49.80801 
L 143.372979 49.592537 
L 146.617165 49.543602 
L 174.733444 49.592537 
L 175.81484 49.80801 
L 176.896235 50.660219 
L 177.97763 53.285209 
L 179.059026 59.582232 
L 180.140421 71.346619 
L 181.221816 88.463703 
L 182.303212 107.859899 
L 183.384607 124.976982 
L 184.466002 136.74137 
L 185.547398 143.038393 
L 186.628793 145.663383 
L 187.710188 146.515592 
L 188.791584 146.731064 
L 192.03577 146.78 
L 220.152049 146.72944 
L 221.233444 146.506815 
L 222.31484 145.626318 
L 223.396235 142.914196 
L 224.47763 136.408152 
L 225.559026 124.253263 
L 226.640421 106.568004 
L 227.721816 86.52798 
L 228.803212 68.84272 
L 229.884607 56.687831 
L 230.966002 50.181788 
L 232.047398 47.469665 
L 233.128793 46.589168 
L 234.210188 46.366544 
L 237.454374 46.315983 
L 265.570654 46.366544 
L 266.652049 46.589168 
L 267.733444 47.469665 
L 268.81484 50.181788 
L 269.896235 56.687831 
L 270.97763 68.84272 
L 272.059026 86.52798 
L 273.140421 106.568004 
L 274.221816 124.253263 
L 275.303212 136.408152 
L 276.384607 142.914196 
L 277.466002 145.626318 
L 278.547398 146.506815 
L 279.628793 146.72944 
L 282.872979 146.78 
L 314.038095 146.78 
L 314.038095 146.78 
" style="fill:none;stroke:#cccccc;stroke-linecap:square;stroke-width:1.75;"/>
   </g>
   <g id="line2d_3">
    <path clip-path="url(#pa5f538ed88)" d="M 0.628793 146.78 
L 41.721816 146.724761 
L 43.884607 146.458112 
L 48.210188 145.492661 
L 50.372979 145.360941 
L 61.186933 145.344456 
L 87.140421 145.399695 
L 89.303212 145.666344 
L 93.628793 146.631795 
L 95.791584 146.763515 
L 106.605537 146.78 
L 130.396235 146.691563 
L 131.47763 146.406521 
L 132.559026 145.528532 
L 133.640421 143.422345 
L 134.721816 139.48747 
L 135.803212 133.76226 
L 136.884607 127.274748 
L 137.966002 121.549538 
L 139.047398 117.614663 
L 140.128793 115.508476 
L 141.210188 114.630487 
L 142.291584 114.345446 
L 144.454374 114.259184 
L 174.733444 114.273376 
L 175.81484 114.345446 
L 176.896235 114.630487 
L 177.97763 115.508476 
L 179.059026 117.614663 
L 180.140421 121.549538 
L 181.221816 127.274748 
L 182.303212 133.76226 
L 183.384607 139.48747 
L 184.466002 143.422345 
L 185.547398 145.528532 
L 186.628793 146.406521 
L 187.710188 146.691563 
L 189.872979 146.777824 
L 220.152049 146.737486 
L 221.233444 146.550288 
L 222.31484 145.809906 
L 223.396235 143.529368 
L 224.47763 138.058643 
L 225.559026 127.837982 
L 226.640421 112.967009 
L 227.721816 96.115989 
L 228.803212 81.245015 
L 229.884607 71.024355 
L 230.966002 65.55363 
L 232.047398 63.273092 
L 233.128793 62.53271 
L 234.210188 62.345512 
L 238.53577 62.302998 
L 265.570654 62.345512 
L 266.652049 62.53271 
L 267.733444 63.273092 
L 268.81484 65.55363 
L 269.896235 71.024355 
L 270.97763 81.245015 
L 272.059026 96.115989 
L 273.140421 112.967009 
L 274.221816 127.837982 
L 275.303212 138.058643 
L 276.384607 143.529368 
L 277.466002 145.809906 
L 278.547398 146.550288 
L 279.628793 146.737486 
L 283.954374 146.78 
L 314.038095 146.78 
L 314.038095 146.78 
" style="fill:none;stroke:#cccccc;stroke-linecap:square;stroke-width:1.75;"/>
   </g>
   <g id="line2d_4">
    <path clip-path="url(#pa5f538ed88)" d="M 0.628793 146.78 
L 41.721816 146.71135 
L 43.884607 146.379962 
L 48.210188 145.180111 
L 50.372979 145.016411 
L 59.024142 144.995924 
L 87.140421 145.064574 
L 89.303212 145.395962 
L 93.628793 146.595813 
L 95.791584 146.759512 
L 104.442747 146.78 
L 130.396235 146.672349 
L 131.47763 146.325381 
L 132.559026 145.256644 
L 133.640421 142.692877 
L 134.721816 137.903131 
L 135.803212 130.93409 
L 136.884607 123.037133 
L 137.966002 116.068093 
L 139.047398 111.278346 
L 140.128793 108.714579 
L 141.210188 107.645842 
L 142.291584 107.298874 
L 144.454374 107.193873 
L 174.733444 107.211147 
L 175.81484 107.298874 
L 176.896235 107.645842 
L 177.97763 108.714579 
L 179.059026 111.278346 
L 180.140421 116.068093 
L 181.221816 123.037133 
L 182.303212 130.93409 
L 183.384607 137.903131 
L 184.466002 142.692877 
L 185.547398 145.256644 
L 186.628793 146.325381 
L 187.710188 146.672349 
L 189.872979 146.777351 
L 219.070654 146.774093 
L 220.152049 146.735578 
L 221.233444 146.53998 
L 222.31484 145.766376 
L 223.396235 143.383508 
L 224.47763 137.667303 
L 225.559026 126.988028 
L 226.640421 111.449774 
L 227.721816 93.842625 
L 228.803212 78.304371 
L 229.884607 67.625095 
L 230.966002 61.908891 
L 232.047398 59.526022 
L 233.128793 58.752418 
L 234.210188 58.55682 
L 238.53577 58.512398 
L 265.570654 58.55682 
L 266.652049 58.752418 
L 267.733444 59.526022 
L 268.81484 61.908891 
L 269.896235 67.625095 
L 270.97763 78.304371 
L 272.059026 93.842625 
L 273.140421 111.449774 
L 274.221816 126.988028 
L 275.303212 137.667303 
L 276.384607 143.383508 
L 277.466002 145.766376 
L 278.547398 146.53998 
L 279.628793 146.735578 
L 283.954374 146.78 
L 314.038095 146.78 
L 314.038095 146.78 
" style="fill:none;stroke:#cccccc;stroke-linecap:square;stroke-width:1.75;"/>
   </g>
   <g id="line2d_5">
    <path clip-path="url(#pa5f538ed88)" d="M 0.628793 146.78 
L 41.721816 146.700238 
L 42.803212 146.566 
L 43.884607 146.315211 
L 48.210188 144.921149 
L 50.372979 144.730953 
L 57.942747 144.707149 
L 87.140421 144.786911 
L 88.221816 144.921149 
L 89.303212 145.171938 
L 93.628793 146.566 
L 95.791584 146.756196 
L 103.361351 146.78 
L 129.31484 146.757629 
L 130.396235 146.659126 
L 131.47763 146.26954 
L 132.559026 145.069529 
L 133.640421 142.190854 
L 134.721816 136.81278 
L 135.803212 128.987729 
L 136.884607 120.120784 
L 137.966002 112.295733 
L 139.047398 106.917659 
L 140.128793 104.038984 
L 141.210188 102.838973 
L 142.291584 102.449387 
L 144.454374 102.331488 
L 174.733444 102.350884 
L 175.81484 102.449387 
L 176.896235 102.838973 
L 177.97763 104.038984 
L 179.059026 106.917659 
L 180.140421 112.295733 
L 181.221816 120.120784 
L 182.303212 128.987729 
L 183.384607 136.81278 
L 184.466002 142.190854 
L 185.547398 145.069529 
L 186.628793 146.26954 
L 187.710188 146.659126 
L 189.872979 146.777025 
L 219.070654 146.773957 
L 220.152049 146.734555 
L 221.233444 146.534452 
L 222.31484 145.743028 
L 223.396235 143.305272 
L 224.47763 137.457399 
L 225.559026 126.532135 
L 226.640421 110.635969 
L 227.721816 92.623253 
L 228.803212 76.727087 
L 229.884607 65.801822 
L 230.966002 59.95395 
L 232.047398 57.516194 
L 233.128793 56.72477 
L 234.210188 56.524667 
L 237.454374 56.479222 
L 265.570654 56.524667 
L 266.652049 56.72477 
L 267.733444 57.516194 
L 268.81484 59.95395 
L 269.896235 65.801822 
L 270.97763 76.727087 
L 272.059026 92.623253 
L 273.140421 110.635969 
L 274.221816 126.532135 
L 275.303212 137.457399 
L 276.384607 143.305272 
L 277.466002 145.743028 
L 278.547398 146.534452 
L 279.628793 146.734555 
L 282.872979 146.78 
L 314.038095 146.78 
L 314.038095 146.78 
" style="fill:none;stroke:#cccccc;stroke-linecap:square;stroke-width:1.75;"/>
   </g>
   <g id="line2d_6">
    <path clip-path="url(#pa5f538ed88)" d="M 0.628793 146.78 
L 41.721816 146.713878 
L 43.884607 146.394696 
L 48.210188 145.239037 
L 50.372979 145.081367 
L 59.024142 145.061634 
L 87.140421 145.127756 
L 89.303212 145.446938 
L 93.628793 146.602597 
L 95.791584 146.760267 
L 104.442747 146.78 
L 130.396235 146.675671 
L 131.47763 146.339409 
L 132.559026 145.30365 
L 133.640421 142.818994 
L 134.721816 138.177044 
L 135.803212 131.423047 
L 136.884607 123.769766 
L 137.966002 117.015769 
L 139.047398 112.373819 
L 140.128793 109.889162 
L 141.210188 108.853403 
L 142.291584 108.517142 
L 144.454374 108.41538 
L 174.733444 108.432121 
L 175.81484 108.517142 
L 176.896235 108.853403 
L 177.97763 109.889162 
L 179.059026 112.373819 
L 180.140421 117.015769 
L 181.221816 123.769766 
L 182.303212 131.423047 
L 183.384607 138.177044 
L 184.466002 142.818994 
L 185.547398 145.30365 
L 186.628793 146.339409 
L 187.710188 146.675671 
L 189.872979 146.777433 
L 219.070654 146.774132 
L 220.152049 146.735868 
L 221.233444 146.541545 
L 222.31484 145.772985 
L 223.396235 143.405654 
L 224.47763 137.726721 
L 225.559026 127.117077 
L 226.640421 111.680137 
L 227.721816 94.187792 
L 228.803212 78.750852 
L 229.884607 68.141208 
L 230.966002 62.462275 
L 232.047398 60.094944 
L 233.128793 59.326384 
L 234.210188 59.132061 
L 238.53577 59.087929 
L 265.570654 59.132061 
L 266.652049 59.326384 
L 267.733444 60.094944 
L 268.81484 62.462275 
L 269.896235 68.141208 
L 270.97763 78.750852 
L 272.059026 94.187792 
L 273.140421 111.680137 
L 274.221816 127.117077 
L 275.303212 137.726721 
L 276.384607 143.405654 
L 277.466002 145.772985 
L 278.547398 146.541545 
L 279.628793 146.735868 
L 283.954374 146.78 
L 314.038095 146.78 
L 314.038095 146.78 
" style="fill:none;stroke:#cccccc;stroke-linecap:square;stroke-width:1.75;"/>
   </g>
   <g id="line2d_7">
    <path clip-path="url(#pa5f538ed88)" d="M 0.628793 146.78 
L 41.721816 146.714458 
L 43.884607 146.398075 
L 48.210188 145.252551 
L 50.372979 145.096263 
L 59.024142 145.076703 
L 87.140421 145.142245 
L 89.303212 145.458628 
L 93.628793 146.604153 
L 95.791584 146.76044 
L 104.442747 146.78 
L 130.396235 146.676451 
L 131.47763 146.342703 
L 132.559026 145.314687 
L 133.640421 142.848605 
L 134.721816 138.241357 
L 135.803212 131.537851 
L 136.884607 123.941783 
L 137.966002 117.238277 
L 139.047398 112.631029 
L 140.128793 110.164947 
L 141.210188 109.136931 
L 142.291584 108.803183 
L 144.454374 108.702182 
L 174.733444 108.718798 
L 175.81484 108.803183 
L 176.896235 109.136931 
L 177.97763 110.164947 
L 179.059026 112.631029 
L 180.140421 117.238277 
L 181.221816 123.941783 
L 182.303212 131.537851 
L 183.384607 138.241357 
L 184.466002 142.848605 
L 185.547398 145.314687 
L 186.628793 146.342703 
L 187.710188 146.676451 
L 189.872979 146.777452 
L 219.070654 146.774141 
L 220.152049 146.735938 
L 221.233444 146.541924 
L 222.31484 145.774586 
L 223.396235 143.411018 
L 224.47763 137.741113 
L 225.559026 127.148335 
L 226.640421 111.735935 
L 227.721816 94.271398 
L 228.803212 78.858998 
L 229.884607 68.26622 
L 230.966002 62.596315 
L 232.047398 60.232747 
L 233.128793 59.465409 
L 234.210188 59.271395 
L 238.53577 59.227333 
L 265.570654 59.271395 
L 266.652049 59.465409 
L 267.733444 60.232747 
L 268.81484 62.596315 
L 269.896235 68.26622 
L 270.97763 78.858998 
L 272.059026 94.271398 
L 273.140421 111.735935 
L 274.221816 127.148335 
L 275.303212 137.741113 
L 276.384607 143.411018 
L 277.466002 145.774586 
L 278.547398 146.541924 
L 279.628793 146.735938 
L 283.954374 146.78 
L 314.038095 146.78 
L 314.038095 146.78 
" style="fill:none;stroke:#cccccc;stroke-linecap:square;stroke-width:1.75;"/>
   </g>
   <g id="line2d_8">
    <path clip-path="url(#pa5f538ed88)" d="M 0.628793 146.78 
L 40.640421 146.703614 
L 41.721816 146.524042 
L 42.803212 146.093271 
L 43.884607 145.288485 
L 47.128793 141.619704 
L 48.210188 140.814918 
L 49.291584 140.384148 
L 50.372979 140.204576 
L 53.617165 140.128634 
L 86.059026 140.204576 
L 87.140421 140.384148 
L 88.221816 140.814918 
L 89.303212 141.619704 
L 92.547398 145.288485 
L 93.628793 146.093271 
L 94.710188 146.524042 
L 95.791584 146.703614 
L 99.03577 146.779555 
L 129.31484 146.741469 
L 130.396235 146.571811 
L 131.47763 145.900799 
L 132.559026 143.833936 
L 133.640421 138.87579 
L 134.721816 129.612755 
L 135.803212 116.135117 
L 136.884607 100.862953 
L 137.966002 87.385316 
L 139.047398 78.12228 
L 140.128793 73.164134 
L 141.210188 71.097272 
L 142.291584 70.42626 
L 143.372979 70.256601 
L 147.698561 70.21807 
L 174.733444 70.256601 
L 175.81484 70.42626 
L 176.896235 71.097272 
L 177.97763 73.164134 
L 179.059026 78.12228 
L 180.140421 87.385316 
L 181.221816 100.862953 
L 182.303212 116.135117 
L 183.384607 129.612755 
L 184.466002 138.87579 
L 185.547398 143.833936 
L 186.628793 145.900799 
L 187.710188 146.571811 
L 188.791584 146.741469 
L 193.117165 146.78 
L 220.152049 146.730697 
L 221.233444 146.513607 
L 222.31484 145.654998 
L 223.396235 143.010297 
L 224.47763 136.665989 
L 225.559026 124.813261 
L 226.640421 107.567644 
L 227.721816 88.025799 
L 228.803212 70.780182 
L 229.884607 58.927454 
L 230.966002 52.583146 
L 232.047398 49.938445 
L 233.128793 49.079836 
L 234.210188 48.862746 
L 237.454374 48.813443 
L 265.570654 48.862746 
L 266.652049 49.079836 
L 267.733444 49.938445 
L 268.81484 52.583146 
L 269.896235 58.927454 
L 270.97763 70.780182 
L 272.059026 88.025799 
L 273.140421 107.567644 
L 274.221816 124.813261 
L 275.303212 136.665989 
L 276.384607 143.010297 
L 277.466002 145.654998 
L 278.547398 146.513607 
L 279.628793 146.730697 
L 282.872979 146.78 
L 314.038095 146.78 
L 314.038095 146.78 
" style="fill:none;stroke:#cccccc;stroke-linecap:square;stroke-width:1.75;"/>
   </g>
   <g id="line2d_9">
    <path clip-path="url(#pa5f538ed88)" d="M 0.628793 146.78 
L 40.640421 146.732839 
L 41.721816 146.621972 
L 42.803212 146.356015 
L 43.884607 145.859142 
L 48.210188 143.097171 
L 49.291584 142.831214 
L 51.454374 142.684353 
L 65.512514 142.673186 
L 86.059026 142.720347 
L 87.140421 142.831214 
L 88.221816 143.097171 
L 89.303212 143.594044 
L 93.628793 146.356015 
L 94.710188 146.621972 
L 96.872979 146.768833 
L 110.931119 146.78 
L 129.31484 146.747299 
L 130.396235 146.603312 
L 131.47763 146.033832 
L 132.559026 144.279708 
L 133.640421 140.071785 
L 134.721816 132.21035 
L 135.803212 120.77203 
L 136.884607 107.810715 
L 137.966002 96.372395 
L 139.047398 88.51096 
L 140.128793 84.303037 
L 141.210188 82.548913 
L 142.291584 81.979433 
L 143.372979 81.835446 
L 148.779956 81.802745 
L 174.733444 81.835446 
L 175.81484 81.979433 
L 176.896235 82.548913 
L 177.97763 84.303037 
L 179.059026 88.51096 
L 180.140421 96.372395 
L 181.221816 107.810715 
L 182.303212 120.77203 
L 183.384607 132.21035 
L 184.466002 140.071785 
L 185.547398 144.279708 
L 186.628793 146.033832 
L 187.710188 146.603312 
L 188.791584 146.747299 
L 194.198561 146.78 
L 220.152049 146.731706 
L 221.233444 146.519058 
L 222.31484 145.678018 
L 223.396235 143.087433 
L 224.47763 136.872944 
L 225.559026 125.26275 
L 226.640421 108.370018 
L 227.721816 89.228044 
L 228.803212 72.335311 
L 229.884607 60.725117 
L 230.966002 54.510628 
L 232.047398 51.920043 
L 233.128793 51.079004 
L 234.210188 50.866355 
L 237.454374 50.818061 
L 265.570654 50.866355 
L 266.652049 51.079004 
L 267.733444 51.920043 
L 268.81484 54.510628 
L 269.896235 60.725117 
L 270.97763 72.335311 
L 272.059026 89.228044 
L 273.140421 108.370018 
L 274.221816 125.26275 
L 275.303212 136.872944 
L 276.384607 143.087433 
L 277.466002 145.678018 
L 278.547398 146.519058 
L 279.628793 146.731706 
L 282.872979 146.78 
L 314.038095 146.78 
L 314.038095 146.78 
" style="fill:none;stroke:#cccccc;stroke-linecap:square;stroke-width:1.75;"/>
   </g>
   <g id="line2d_10">
    <path clip-path="url(#pa5f538ed88)" d="M 0.628793 146.78 
L 39.559026 146.728969 
L 40.640421 146.564492 
L 41.721816 146.057867 
L 42.803212 144.842537 
L 43.884607 142.572002 
L 44.966002 139.268393 
L 46.047398 135.524913 
L 47.128793 132.221303 
L 48.210188 129.950768 
L 49.291584 128.735438 
L 50.372979 128.228813 
L 51.454374 128.064336 
L 54.698561 128.013305 
L 84.97763 128.064336 
L 86.059026 128.228813 
L 87.140421 128.735438 
L 88.221816 129.950768 
L 89.303212 132.221303 
L 90.384607 135.524913 
L 91.466002 139.268393 
L 92.547398 142.572002 
L 93.628793 144.842537 
L 94.710188 146.057867 
L 95.791584 146.564492 
L 96.872979 146.728969 
L 100.117165 146.78 
L 129.31484 146.733605 
L 130.396235 146.529319 
L 131.47763 145.721354 
L 132.559026 143.232644 
L 133.640421 137.262541 
L 134.721816 126.108921 
L 135.803212 109.880498 
L 136.884607 91.491286 
L 137.966002 75.262863 
L 139.047398 64.109243 
L 140.128793 58.13914 
L 141.210188 55.65043 
L 142.291584 54.842465 
L 143.372979 54.638179 
L 146.617165 54.591784 
L 174.733444 54.638179 
L 175.81484 54.842465 
L 176.896235 55.65043 
L 177.97763 58.13914 
L 179.059026 64.109243 
L 180.140421 75.262863 
L 181.221816 91.491286 
L 182.303212 109.880498 
L 183.384607 126.108921 
L 184.466002 137.262541 
L 185.547398 143.232644 
L 186.628793 145.721354 
L 187.710188 146.529319 
L 188.791584 146.733605 
L 192.03577 146.78 
L 220.152049 146.7297 
L 221.233444 146.508219 
L 222.31484 145.632246 
L 223.396235 142.934059 
L 224.47763 136.461446 
L 225.559026 124.369012 
L 226.640421 106.774625 
L 227.721816 86.837572 
L 228.803212 69.243185 
L 229.884607 57.150751 
L 230.966002 50.678138 
L 232.047398 47.979951 
L 233.128793 47.103978 
L 234.210188 46.882498 
L 237.454374 46.832198 
L 265.570654 46.882498 
L 266.652049 47.103978 
L 267.733444 47.979951 
L 268.81484 50.678138 
L 269.896235 57.150751 
L 270.97763 69.243185 
L 272.059026 86.837572 
L 273.140421 106.774625 
L 274.221816 124.369012 
L 275.303212 136.461446 
L 276.384607 142.934059 
L 277.466002 145.632246 
L 278.547398 146.508219 
L 279.628793 146.7297 
L 282.872979 146.78 
L 314.038095 146.78 
L 314.038095 146.78 
" style="fill:none;stroke:#cccccc;stroke-linecap:square;stroke-width:1.75;"/>
   </g>
   <g id="line2d_11">
    <path clip-path="url(#pa5f538ed88)" d="M 0.628793 146.78 
L 39.559026 146.724541 
L 40.640421 146.54579 
L 41.721816 145.995201 
L 42.803212 144.674406 
L 43.884607 142.206836 
L 44.966002 138.616543 
L 46.047398 134.548208 
L 47.128793 130.957915 
L 48.210188 128.490345 
L 49.291584 127.16955 
L 50.372979 126.618961 
L 51.454374 126.440211 
L 54.698561 126.384752 
L 84.97763 126.440211 
L 86.059026 126.618961 
L 87.140421 127.16955 
L 88.221816 128.490345 
L 89.303212 130.957915 
L 90.384607 134.548208 
L 91.466002 138.616543 
L 92.547398 142.206836 
L 93.628793 144.674406 
L 94.710188 145.995201 
L 95.791584 146.54579 
L 96.872979 146.724541 
L 100.117165 146.78 
L 129.31484 146.733206 
L 130.396235 146.527162 
L 131.47763 145.712243 
L 132.559026 143.202115 
L 133.640421 137.180632 
L 134.721816 125.931021 
L 135.803212 109.562932 
L 136.884607 91.015459 
L 137.966002 74.647371 
L 139.047398 63.397759 
L 140.128793 57.376276 
L 141.210188 54.866149 
L 142.291584 54.051229 
L 143.372979 53.845186 
L 146.617165 53.798391 
L 174.733444 53.845186 
L 175.81484 54.051229 
L 176.896235 54.866149 
L 177.97763 57.376276 
L 179.059026 63.397759 
L 180.140421 74.647371 
L 181.221816 91.015459 
L 182.303212 109.562932 
L 183.384607 125.931021 
L 184.466002 137.180632 
L 185.547398 143.202115 
L 186.628793 145.712243 
L 187.710188 146.527162 
L 188.791584 146.733206 
L 192.03577 146.78 
L 220.152049 146.729657 
L 221.233444 146.507989 
L 222.31484 145.631276 
L 223.396235 142.930808 
L 224.47763 136.452723 
L 225.559026 124.350066 
L 226.640421 106.740805 
L 227.721816 86.786898 
L 228.803212 69.177636 
L 229.884607 57.07498 
L 230.966002 50.596895 
L 232.047398 47.896427 
L 233.128793 47.019713 
L 234.210188 46.798046 
L 237.454374 46.747703 
L 265.570654 46.798046 
L 266.652049 47.019713 
L 267.733444 47.896427 
L 268.81484 50.596895 
L 269.896235 57.07498 
L 270.97763 69.177636 
L 272.059026 86.786898 
L 273.140421 106.740805 
L 274.221816 124.350066 
L 275.303212 136.452723 
L 276.384607 142.930808 
L 277.466002 145.631276 
L 278.547398 146.507989 
L 279.628793 146.729657 
L 282.872979 146.78 
L 314.038095 146.78 
L 314.038095 146.78 
" style="fill:none;stroke:#cccccc;stroke-linecap:square;stroke-width:1.75;"/>
   </g>
   <g id="line2d_12">
    <path clip-path="url(#pa5f538ed88)" d="M 0.628793 146.78 
L 40.640421 146.726949 
L 41.721816 146.602236 
L 42.803212 146.303064 
L 43.884607 145.744137 
L 47.128793 143.196155 
L 48.210188 142.637228 
L 49.291584 142.338056 
L 51.454374 142.172854 
L 64.431119 142.160292 
L 86.059026 142.213343 
L 87.140421 142.338056 
L 88.221816 142.637228 
L 89.303212 143.196155 
L 92.547398 145.744137 
L 93.628793 146.303064 
L 94.710188 146.602236 
L 96.872979 146.767438 
L 109.849723 146.78 
L 129.31484 146.745746 
L 130.396235 146.594919 
L 131.47763 145.998387 
L 132.559026 144.160938 
L 133.640421 139.753127 
L 134.721816 131.518253 
L 135.803212 119.536582 
L 136.884607 105.95957 
L 137.966002 93.977899 
L 139.047398 85.743025 
L 140.128793 81.335214 
L 141.210188 79.497765 
L 142.291584 78.901233 
L 143.372979 78.750406 
L 147.698561 78.716152 
L 174.733444 78.750406 
L 175.81484 78.901233 
L 176.896235 79.497765 
L 177.97763 81.335214 
L 179.059026 85.743025 
L 180.140421 93.977899 
L 181.221816 105.95957 
L 182.303212 119.536582 
L 183.384607 131.518253 
L 184.466002 139.753127 
L 185.547398 144.160938 
L 186.628793 145.998387 
L 187.710188 146.594919 
L 188.791584 146.745746 
L 193.117165 146.78 
L 220.152049 146.731407 
L 221.233444 146.517446 
L 222.31484 145.671214 
L 223.396235 143.064633 
L 224.47763 136.811771 
L 225.559026 125.129888 
L 226.640421 108.132848 
L 227.721816 88.872678 
L 228.803212 71.875637 
L 229.884607 60.193754 
L 230.966002 53.940892 
L 232.047398 51.334312 
L 233.128793 50.488079 
L 234.210188 50.274118 
L 237.454374 50.225525 
L 265.570654 50.274118 
L 266.652049 50.488079 
L 267.733444 51.334312 
L 268.81484 53.940892 
L 269.896235 60.193754 
L 270.97763 71.875637 
L 272.059026 88.872678 
L 273.140421 108.132848 
L 274.221816 125.129888 
L 275.303212 136.811771 
L 276.384607 143.064633 
L 277.466002 145.671214 
L 278.547398 146.517446 
L 279.628793 146.731407 
L 282.872979 146.78 
L 314.038095 146.78 
L 314.038095 146.78 
" style="fill:none;stroke:#cccccc;stroke-linecap:square;stroke-width:1.75;"/>
   </g>
   <g id="line2d_13">
    <path clip-path="url(#pa5f538ed88)" d="M 0.628793 146.78 
L 39.559026 146.716096 
L 40.640421 146.510127 
L 41.721816 145.8757 
L 42.803212 144.353788 
L 43.884607 141.510482 
L 44.966002 137.373496 
L 46.047398 132.685677 
L 47.128793 128.548691 
L 48.210188 125.705385 
L 49.291584 124.183473 
L 50.372979 123.549045 
L 51.454374 123.343077 
L 54.698561 123.279173 
L 84.97763 123.343077 
L 86.059026 123.549045 
L 87.140421 124.183473 
L 88.221816 125.705385 
L 89.303212 128.548691 
L 90.384607 132.685677 
L 91.466002 137.373496 
L 92.547398 141.510482 
L 93.628793 144.353788 
L 94.710188 145.8757 
L 95.791584 146.510127 
L 96.872979 146.716096 
L 100.117165 146.78 
L 129.31484 146.732587 
L 130.396235 146.523821 
L 131.47763 145.698134 
L 132.559026 143.154838 
L 133.640421 137.053789 
L 134.721816 125.655529 
L 135.803212 109.071158 
L 136.884607 90.278604 
L 137.966002 73.694234 
L 139.047398 62.295973 
L 140.128793 56.194924 
L 141.210188 53.651629 
L 142.291584 52.825942 
L 143.372979 52.617175 
L 146.617165 52.569762 
L 174.733444 52.617175 
L 175.81484 52.825942 
L 176.896235 53.651629 
L 177.97763 56.194924 
L 179.059026 62.295973 
L 180.140421 73.694234 
L 181.221816 90.278604 
L 182.303212 109.071158 
L 183.384607 125.655529 
L 184.466002 137.053789 
L 185.547398 143.154838 
L 186.628793 145.698134 
L 187.710188 146.523821 
L 188.791584 146.732587 
L 192.03577 146.78 
L 220.152049 146.729593 
L 221.233444 146.50764 
L 222.31484 145.629803 
L 223.396235 142.925871 
L 224.47763 136.439477 
L 225.559026 124.321298 
L 226.640421 106.689452 
L 227.721816 86.709952 
L 228.803212 69.078106 
L 229.884607 56.959927 
L 230.966002 50.473533 
L 232.047398 47.769602 
L 233.128793 46.891764 
L 234.210188 46.669812 
L 237.454374 46.619404 
L 265.570654 46.669812 
L 266.652049 46.891764 
L 267.733444 47.769602 
L 268.81484 50.473533 
L 269.896235 56.959927 
L 270.97763 69.078106 
L 272.059026 86.709952 
L 273.140421 106.689452 
L 274.221816 124.321298 
L 275.303212 136.439477 
L 276.384607 142.925871 
L 277.466002 145.629803 
L 278.547398 146.50764 
L 279.628793 146.729593 
L 282.872979 146.78 
L 314.038095 146.78 
L 314.038095 146.78 
" style="fill:none;stroke:#cccccc;stroke-linecap:square;stroke-width:1.75;"/>
   </g>
   <g id="line2d_14">
    <path clip-path="url(#pa5f538ed88)" d="M 0.628793 146.78 
L 39.559026 146.748199 
L 40.640421 146.645701 
L 41.721816 146.329985 
L 42.803212 145.572623 
L 43.884607 144.157684 
L 44.966002 142.09896 
L 46.047398 139.76612 
L 47.128793 137.707396 
L 48.210188 136.292458 
L 49.291584 135.535095 
L 50.372979 135.21938 
L 52.53577 135.090966 
L 76.326468 135.085081 
L 84.97763 135.116882 
L 86.059026 135.21938 
L 87.140421 135.535095 
L 88.221816 136.292458 
L 89.303212 137.707396 
L 90.384607 139.76612 
L 91.466002 142.09896 
L 92.547398 144.157684 
L 93.628793 145.572623 
L 94.710188 146.329985 
L 95.791584 146.645701 
L 97.954374 146.774114 
L 121.745072 146.78 
L 129.31484 146.736466 
L 130.396235 146.544777 
L 131.47763 145.786634 
L 132.559026 143.451387 
L 133.640421 137.849422 
L 134.721816 127.383574 
L 135.803212 112.155855 
L 136.884607 94.900588 
L 137.966002 79.672869 
L 139.047398 69.207021 
L 140.128793 63.605056 
L 141.210188 61.26981 
L 142.291584 60.511666 
L 143.372979 60.319978 
L 147.698561 60.276443 
L 174.733444 60.319978 
L 175.81484 60.511666 
L 176.896235 61.26981 
L 177.97763 63.605056 
L 179.059026 69.207021 
L 180.140421 79.672869 
L 181.221816 94.900588 
L 182.303212 112.155855 
L 183.384607 127.383574 
L 184.466002 137.849422 
L 185.547398 143.451387 
L 186.628793 145.786634 
L 187.710188 146.544777 
L 188.791584 146.736466 
L 193.117165 146.78 
L 220.152049 146.730025 
L 221.233444 146.509976 
L 222.31484 145.639667 
L 223.396235 142.958925 
L 224.47763 136.52816 
L 225.559026 124.513909 
L 226.640421 107.033278 
L 227.721816 87.225127 
L 228.803212 69.744495 
L 229.884607 57.730244 
L 230.966002 51.299479 
L 232.047398 48.618737 
L 233.128793 47.748428 
L 234.210188 47.528379 
L 237.454374 47.478404 
L 265.570654 47.528379 
L 266.652049 47.748428 
L 267.733444 48.618737 
L 268.81484 51.299479 
L 269.896235 57.730244 
L 270.97763 69.744495 
L 272.059026 87.225127 
L 273.140421 107.033278 
L 274.221816 124.513909 
L 275.303212 136.52816 
L 276.384607 142.958925 
L 277.466002 145.639667 
L 278.547398 146.509976 
L 279.628793 146.730025 
L 282.872979 146.78 
L 314.038095 146.78 
L 314.038095 146.78 
" style="fill:none;stroke:#cccccc;stroke-linecap:square;stroke-width:1.75;"/>
   </g>
   <g id="line2d_15">
    <path clip-path="url(#pa5f538ed88)" d="M 0.628793 146.78 
L 39.559026 146.70579 
L 40.640421 146.466605 
L 41.721816 145.729863 
L 42.803212 143.962511 
L 43.884607 140.660663 
L 44.966002 135.856502 
L 46.047398 130.412674 
L 47.128793 125.608514 
L 48.210188 122.306665 
L 49.291584 120.539313 
L 50.372979 119.802571 
L 51.454374 119.563386 
L 54.698561 119.489176 
L 84.97763 119.563386 
L 86.059026 119.802571 
L 87.140421 120.539313 
L 88.221816 122.306665 
L 89.303212 125.608514 
L 90.384607 130.412674 
L 91.466002 135.856502 
L 92.547398 140.660663 
L 93.628793 143.962511 
L 94.710188 145.729863 
L 95.791584 146.466605 
L 96.872979 146.70579 
L 100.117165 146.78 
L 129.31484 146.732012 
L 130.396235 146.520714 
L 131.47763 145.685012 
L 132.559026 143.11087 
L 133.640421 136.935824 
L 134.721816 125.399319 
L 135.803212 108.613804 
L 136.884607 89.593324 
L 137.966002 72.807809 
L 139.047398 61.271304 
L 140.128793 55.096258 
L 141.210188 52.522116 
L 142.291584 51.686414 
L 143.372979 51.475116 
L 146.617165 51.427128 
L 174.733444 51.475116 
L 175.81484 51.686414 
L 176.896235 52.522116 
L 177.97763 55.096258 
L 179.059026 61.271304 
L 180.140421 72.807809 
L 181.221816 89.593324 
L 182.303212 108.613804 
L 183.384607 125.399319 
L 184.466002 136.935824 
L 185.547398 143.11087 
L 186.628793 145.685012 
L 187.710188 146.520714 
L 188.791584 146.732012 
L 192.03577 146.78 
L 220.152049 146.729534 
L 221.233444 146.507323 
L 222.31484 145.628463 
L 223.396235 142.921384 
L 224.47763 136.427437 
L 225.559026 124.295148 
L 226.640421 106.642772 
L 227.721816 86.640009 
L 228.803212 68.987633 
L 229.884607 56.855344 
L 230.966002 50.361398 
L 232.047398 47.654318 
L 233.128793 46.775458 
L 234.210188 46.553247 
L 237.454374 46.502781 
L 265.570654 46.553247 
L 266.652049 46.775458 
L 267.733444 47.654318 
L 268.81484 50.361398 
L 269.896235 56.855344 
L 270.97763 68.987633 
L 272.059026 86.640009 
L 273.140421 106.642772 
L 274.221816 124.295148 
L 275.303212 136.427437 
L 276.384607 142.921384 
L 277.466002 145.628463 
L 278.547398 146.507323 
L 279.628793 146.729534 
L 282.872979 146.78 
L 314.038095 146.78 
L 314.038095 146.78 
" style="fill:none;stroke:#cccccc;stroke-linecap:square;stroke-width:1.75;"/>
   </g>
   <g id="line2d_16">
    <path clip-path="url(#pa5f538ed88)" d="M 0.628793 146.78 
L 41.721816 146.737051 
L 43.884607 146.529728 
L 48.210188 145.779074 
L 51.454374 145.666878 
L 86.059026 145.67666 
L 88.221816 145.779074 
L 90.384607 146.110599 
L 92.547398 146.529728 
L 94.710188 146.737051 
L 100.117165 146.78 
L 130.396235 146.71336 
L 131.47763 146.498576 
L 132.559026 145.836992 
L 133.640421 144.249934 
L 134.721816 141.28492 
L 135.803212 136.970851 
L 136.884607 132.082369 
L 137.966002 127.7683 
L 139.047398 124.803286 
L 140.128793 123.216228 
L 141.210188 122.554644 
L 142.291584 122.339859 
L 145.53577 122.27322 
L 175.81484 122.339859 
L 176.896235 122.554644 
L 177.97763 123.216228 
L 179.059026 124.803286 
L 180.140421 127.7683 
L 181.221816 132.082369 
L 182.303212 136.970851 
L 183.384607 141.28492 
L 184.466002 144.249934 
L 185.547398 145.836992 
L 186.628793 146.498576 
L 187.710188 146.71336 
L 190.954374 146.78 
L 220.152049 146.740607 
L 221.233444 146.56715 
L 222.31484 145.881118 
L 223.396235 143.767988 
L 224.47763 138.698853 
L 225.559026 129.228463 
L 226.640421 115.449127 
L 227.721816 99.835094 
L 228.803212 86.055758 
L 229.884607 76.585368 
L 230.966002 71.516233 
L 232.047398 69.403104 
L 233.128793 68.717071 
L 234.210188 68.543615 
L 238.53577 68.504221 
L 265.570654 68.543615 
L 266.652049 68.717071 
L 267.733444 69.403104 
L 268.81484 71.516233 
L 269.896235 76.585368 
L 270.97763 86.055758 
L 272.059026 99.835094 
L 273.140421 115.449127 
L 274.221816 129.228463 
L 275.303212 138.698853 
L 276.384607 143.767988 
L 277.466002 145.881118 
L 278.547398 146.56715 
L 279.628793 146.740607 
L 283.954374 146.78 
L 314.038095 146.78 
L 314.038095 146.78 
" style="fill:none;stroke:#cccccc;stroke-linecap:square;stroke-width:1.75;"/>
   </g>
   <g id="line2d_17">
    <path clip-path="url(#pa5f538ed88)" d="M 0.628793 146.78 
L 41.721816 146.706477 
L 43.884607 146.351568 
L 48.210188 145.066555 
L 50.372979 144.891236 
L 57.942747 144.869294 
L 87.140421 144.942817 
L 89.303212 145.297726 
L 93.628793 146.58274 
L 95.791584 146.758058 
L 103.361351 146.78 
L 129.31484 146.758955 
L 130.396235 146.66629 
L 131.47763 146.299792 
L 132.559026 145.170898 
L 133.640421 142.462824 
L 134.721816 137.403474 
L 135.803212 130.042164 
L 136.884607 121.700707 
L 137.966002 114.339397 
L 139.047398 109.280048 
L 140.128793 106.571973 
L 141.210188 105.44308 
L 142.291584 105.076582 
L 144.454374 104.96567 
L 174.733444 104.983917 
L 175.81484 105.076582 
L 176.896235 105.44308 
L 177.97763 106.571973 
L 179.059026 109.280048 
L 180.140421 114.339397 
L 181.221816 121.700707 
L 182.303212 130.042164 
L 183.384607 137.403474 
L 184.466002 142.462824 
L 185.547398 145.170898 
L 186.628793 146.299792 
L 187.710188 146.66629 
L 189.872979 146.777202 
L 219.070654 146.774028 
L 220.152049 146.735085 
L 221.233444 146.537317 
L 222.31484 145.755129 
L 223.396235 143.34582 
L 224.47763 137.566188 
L 225.559026 126.768413 
L 226.640421 111.057744 
L 227.721816 93.255224 
L 228.803212 77.544555 
L 229.884607 66.746781 
L 230.966002 60.967148 
L 232.047398 58.557839 
L 233.128793 57.775651 
L 234.210188 57.577883 
L 238.53577 57.532968 
L 265.570654 57.577883 
L 266.652049 57.775651 
L 267.733444 58.557839 
L 268.81484 60.967148 
L 269.896235 66.746781 
L 270.97763 77.544555 
L 272.059026 93.255224 
L 273.140421 111.057744 
L 274.221816 126.768413 
L 275.303212 137.566188 
L 276.384607 143.34582 
L 277.466002 145.755129 
L 278.547398 146.537317 
L 279.628793 146.735085 
L 283.954374 146.78 
L 314.038095 146.78 
L 314.038095 146.78 
" style="fill:none;stroke:#cccccc;stroke-linecap:square;stroke-width:1.75;"/>
   </g>
   <g id="line2d_18">
    <path clip-path="url(#pa5f538ed88)" d="M 0.628793 146.78 
L 40.640421 146.745449 
L 41.721816 146.664226 
L 42.803212 146.469381 
L 43.884607 146.105363 
L 48.210188 144.081893 
L 49.291584 143.887048 
L 51.454374 143.779455 
L 69.838095 143.771273 
L 86.059026 143.805824 
L 87.140421 143.887048 
L 88.221816 144.081893 
L 89.303212 144.445911 
L 93.628793 146.469381 
L 94.710188 146.664226 
L 96.872979 146.771819 
L 115.2567 146.78 
L 129.31484 146.751765 
L 130.396235 146.627443 
L 131.47763 146.135738 
L 132.559026 144.621179 
L 133.640421 140.987942 
L 134.721816 134.200162 
L 135.803212 124.324 
L 136.884607 113.132842 
L 137.966002 103.25668 
L 139.047398 96.4689 
L 140.128793 92.835663 
L 141.210188 91.321104 
L 142.291584 90.829399 
L 144.454374 90.680596 
L 173.652049 90.680596 
L 175.81484 90.829399 
L 176.896235 91.321104 
L 177.97763 92.835663 
L 179.059026 96.4689 
L 180.140421 103.25668 
L 181.221816 113.132842 
L 182.303212 124.324 
L 183.384607 134.200162 
L 184.466002 140.987942 
L 185.547398 144.621179 
L 186.628793 146.135738 
L 187.710188 146.627443 
L 189.872979 146.776246 
L 219.070654 146.773713 
L 220.152049 146.732719 
L 221.233444 146.524533 
L 222.31484 145.701141 
L 223.396235 143.164916 
L 224.47763 137.080828 
L 225.559026 125.714256 
L 226.640421 109.17599 
L 227.721816 90.43568 
L 228.803212 73.897415 
L 229.884607 62.530842 
L 230.966002 56.446754 
L 232.047398 53.910529 
L 233.128793 53.087137 
L 234.210188 52.878951 
L 237.454374 52.83167 
L 265.570654 52.878951 
L 266.652049 53.087137 
L 267.733444 53.910529 
L 268.81484 56.446754 
L 269.896235 62.530842 
L 270.97763 73.897415 
L 272.059026 90.43568 
L 273.140421 109.17599 
L 274.221816 125.714256 
L 275.303212 137.080828 
L 276.384607 143.164916 
L 277.466002 145.701141 
L 278.547398 146.524533 
L 279.628793 146.732719 
L 282.872979 146.78 
L 314.038095 146.78 
L 314.038095 146.78 
" style="fill:none;stroke:#cccccc;stroke-linecap:square;stroke-width:1.75;"/>
   </g>
   <g id="line2d_19">
    <path clip-path="url(#pa5f538ed88)" d="M 0.628793 146.78 
L 40.640421 146.738978 
L 41.721816 146.642543 
L 42.803212 146.411207 
L 43.884607 145.979014 
L 48.210188 143.576581 
L 49.291584 143.345245 
L 51.454374 143.217502 
L 67.675305 143.207788 
L 86.059026 143.24881 
L 87.140421 143.345245 
L 88.221816 143.576581 
L 89.303212 144.008774 
L 93.628793 146.411207 
L 94.710188 146.642543 
L 96.872979 146.770286 
L 113.093909 146.78 
L 129.31484 146.749241 
L 130.396235 146.613802 
L 131.47763 146.078131 
L 132.559026 144.42815 
L 133.640421 140.470051 
L 134.721816 133.075348 
L 135.803212 122.316119 
L 136.884607 110.124315 
L 137.966002 99.365085 
L 139.047398 91.970382 
L 140.128793 88.012283 
L 141.210188 86.362302 
L 142.291584 85.826631 
L 144.454374 85.664523 
L 173.652049 85.664523 
L 175.81484 85.826631 
L 176.896235 86.362302 
L 177.97763 88.012283 
L 179.059026 91.970382 
L 180.140421 99.365085 
L 181.221816 110.124315 
L 182.303212 122.316119 
L 183.384607 133.075348 
L 184.466002 140.470051 
L 185.547398 144.42815 
L 186.628793 146.078131 
L 187.710188 146.613802 
L 189.872979 146.77591 
L 217.989258 146.78 
L 220.152049 146.732115 
L 221.233444 146.521269 
L 222.31484 145.687357 
L 223.396235 143.118728 
L 224.47763 136.956905 
L 225.559026 125.445106 
L 226.640421 108.695538 
L 227.721816 89.715789 
L 228.803212 72.966221 
L 229.884607 61.454422 
L 230.966002 55.292599 
L 232.047398 52.72397 
L 233.128793 51.890058 
L 234.210188 51.679212 
L 237.454374 51.631327 
L 265.570654 51.679212 
L 266.652049 51.890058 
L 267.733444 52.72397 
L 268.81484 55.292599 
L 269.896235 61.454422 
L 270.97763 72.966221 
L 272.059026 89.715789 
L 273.140421 108.695538 
L 274.221816 125.445106 
L 275.303212 136.956905 
L 276.384607 143.118728 
L 277.466002 145.687357 
L 278.547398 146.521269 
L 279.628793 146.732115 
L 282.872979 146.78 
L 314.038095 146.78 
L 314.038095 146.78 
" style="fill:none;stroke:#cccccc;stroke-linecap:square;stroke-width:1.75;"/>
   </g>
   <g id="line2d_20">
    <path clip-path="url(#pa5f538ed88)" d="M 0.628793 146.78 
L 40.640421 146.741364 
L 41.721816 146.650538 
L 42.803212 146.432658 
L 43.884607 146.025603 
L 48.210188 143.762907 
L 49.291584 143.545027 
L 51.454374 143.424714 
L 68.7567 143.415565 
L 86.059026 143.454201 
L 87.140421 143.545027 
L 88.221816 143.762907 
L 89.303212 144.169962 
L 93.628793 146.432658 
L 94.710188 146.650538 
L 96.872979 146.770851 
L 114.175305 146.78 
L 129.31484 146.750106 
L 130.396235 146.618478 
L 131.47763 146.097878 
L 132.559026 144.494317 
L 133.640421 140.647576 
L 134.721816 133.460916 
L 135.803212 123.004389 
L 136.884607 111.15559 
L 137.966002 100.699062 
L 139.047398 93.512403 
L 140.128793 89.665661 
L 141.210188 88.062101 
L 142.291584 87.541501 
L 144.454374 87.383954 
L 173.652049 87.383954 
L 175.81484 87.541501 
L 176.896235 88.062101 
L 177.97763 89.665661 
L 179.059026 93.512403 
L 180.140421 100.699062 
L 181.221816 111.15559 
L 182.303212 123.004389 
L 183.384607 133.460916 
L 184.466002 140.647576 
L 185.547398 144.494317 
L 186.628793 146.097878 
L 187.710188 146.618478 
L 189.872979 146.776025 
L 219.070654 146.773659 
L 220.152049 146.732312 
L 221.233444 146.522334 
L 222.31484 145.691856 
L 223.396235 143.133804 
L 224.47763 136.997355 
L 225.559026 125.532959 
L 226.640421 108.852362 
L 227.721816 89.950769 
L 228.803212 73.270171 
L 229.884607 61.805776 
L 230.966002 55.669327 
L 232.047398 53.111274 
L 233.128793 52.280796 
L 234.210188 52.070819 
L 237.454374 52.023131 
L 265.570654 52.070819 
L 266.652049 52.280796 
L 267.733444 53.111274 
L 268.81484 55.669327 
L 269.896235 61.805776 
L 270.97763 73.270171 
L 272.059026 89.950769 
L 273.140421 108.852362 
L 274.221816 125.532959 
L 275.303212 136.997355 
L 276.384607 143.133804 
L 277.466002 145.691856 
L 278.547398 146.522334 
L 279.628793 146.732312 
L 282.872979 146.78 
L 314.038095 146.78 
L 314.038095 146.78 
" style="fill:none;stroke:#cccccc;stroke-linecap:square;stroke-width:1.75;"/>
   </g>
   <g id="line2d_21">
    <path clip-path="url(#pa5f538ed88)" d="M 0.628793 146.78 
L 39.559026 146.688865 
L 40.640421 146.395131 
L 41.721816 145.490364 
L 42.803212 143.319943 
L 43.884607 139.265062 
L 44.966002 133.365244 
L 46.047398 126.679875 
L 47.128793 120.780058 
L 48.210188 116.725176 
L 49.291584 114.554755 
L 50.372979 113.649989 
L 51.454374 113.356254 
L 53.617165 113.267362 
L 83.896235 113.281986 
L 84.97763 113.356254 
L 86.059026 113.649989 
L 87.140421 114.554755 
L 88.221816 116.725176 
L 89.303212 120.780058 
L 90.384607 126.679875 
L 91.466002 133.365244 
L 92.547398 139.265062 
L 93.628793 143.319943 
L 94.710188 145.490364 
L 95.791584 146.395131 
L 96.872979 146.688865 
L 99.03577 146.777757 
L 129.31484 146.731336 
L 130.396235 146.517063 
L 131.47763 145.669593 
L 132.559026 143.059203 
L 133.640421 136.797204 
L 134.721816 125.098249 
L 135.803212 108.07637 
L 136.884607 88.788054 
L 137.966002 71.766175 
L 139.047398 60.06722 
L 140.128793 53.80522 
L 141.210188 51.194831 
L 142.291584 50.347361 
L 143.372979 50.133087 
L 146.617165 50.084424 
L 174.733444 50.133087 
L 175.81484 50.347361 
L 176.896235 51.194831 
L 177.97763 53.80522 
L 179.059026 60.06722 
L 180.140421 71.766175 
L 181.221816 88.788054 
L 182.303212 108.07637 
L 183.384607 125.098249 
L 184.466002 136.797204 
L 185.547398 143.059203 
L 186.628793 145.669593 
L 187.710188 146.517063 
L 188.791584 146.731336 
L 192.03577 146.78 
L 220.152049 146.729467 
L 221.233444 146.506959 
L 222.31484 145.626926 
L 223.396235 142.916234 
L 224.47763 136.41362 
L 225.559026 124.265138 
L 226.640421 106.589201 
L 227.721816 86.559741 
L 228.803212 68.883804 
L 229.884607 56.735322 
L 230.966002 50.232708 
L 232.047398 47.522016 
L 233.128793 46.641982 
L 234.210188 46.419475 
L 237.454374 46.368942 
L 265.570654 46.419475 
L 266.652049 46.641982 
L 267.733444 47.522016 
L 268.81484 50.232708 
L 269.896235 56.735322 
L 270.97763 68.883804 
L 272.059026 86.559741 
L 273.140421 106.589201 
L 274.221816 124.265138 
L 275.303212 136.41362 
L 276.384607 142.916234 
L 277.466002 145.626926 
L 278.547398 146.506959 
L 279.628793 146.729467 
L 282.872979 146.78 
L 314.038095 146.78 
L 314.038095 146.78 
" style="fill:none;stroke:#cccccc;stroke-linecap:square;stroke-width:1.75;"/>
   </g>
   <g id="line2d_22">
    <path clip-path="url(#pa5f538ed88)" d="M 0.628793 146.78 
L 40.640421 146.718507 
L 41.721816 146.573947 
L 42.803212 146.227166 
L 43.884607 145.579293 
L 47.128793 142.625834 
L 48.210188 141.977962 
L 49.291584 141.63118 
L 51.454374 141.439689 
L 62.268328 141.425128 
L 86.059026 141.48662 
L 87.140421 141.63118 
L 88.221816 141.977962 
L 89.303212 142.625834 
L 92.547398 145.579293 
L 93.628793 146.227166 
L 94.710188 146.573947 
L 96.872979 146.765439 
L 107.686933 146.78 
L 129.31484 146.743914 
L 130.396235 146.58502 
L 131.47763 145.956582 
L 132.559026 144.020857 
L 133.640421 139.377294 
L 134.721816 130.701977 
L 135.803212 118.079464 
L 136.884607 103.776284 
L 137.966002 91.153771 
L 139.047398 82.478454 
L 140.128793 77.834891 
L 141.210188 75.899166 
L 142.291584 75.270728 
L 143.372979 75.111834 
L 147.698561 75.075748 
L 174.733444 75.111834 
L 175.81484 75.270728 
L 176.896235 75.899166 
L 177.97763 77.834891 
L 179.059026 82.478454 
L 180.140421 91.153771 
L 181.221816 103.776284 
L 182.303212 118.079464 
L 183.384607 130.701977 
L 184.466002 139.377294 
L 185.547398 144.020857 
L 186.628793 145.956582 
L 187.710188 146.58502 
L 188.791584 146.743914 
L 193.117165 146.78 
L 220.152049 146.731085 
L 221.233444 146.515703 
L 222.31484 145.663852 
L 223.396235 143.039966 
L 224.47763 136.745591 
L 225.559026 124.986149 
L 226.640421 107.876263 
L 227.721816 88.488221 
L 228.803212 71.378335 
L 229.884607 59.618894 
L 230.966002 53.324518 
L 232.047398 50.700632 
L 233.128793 49.848781 
L 234.210188 49.633399 
L 237.454374 49.584484 
L 265.570654 49.633399 
L 266.652049 49.848781 
L 267.733444 50.700632 
L 268.81484 53.324518 
L 269.896235 59.618894 
L 270.97763 71.378335 
L 272.059026 88.488221 
L 273.140421 107.876263 
L 274.221816 124.986149 
L 275.303212 136.745591 
L 276.384607 143.039966 
L 277.466002 145.663852 
L 278.547398 146.515703 
L 279.628793 146.731085 
L 282.872979 146.78 
L 314.038095 146.78 
L 314.038095 146.78 
" style="fill:none;stroke:#cccccc;stroke-linecap:square;stroke-width:1.75;"/>
   </g>
   <g id="line2d_23">
    <path clip-path="url(#pa5f538ed88)" d="M 0.628793 146.78 
L 40.640421 146.744622 
L 41.721816 146.661453 
L 42.803212 146.461941 
L 43.884607 146.089204 
L 48.210188 144.017268 
L 49.291584 143.817756 
L 51.454374 143.707586 
L 69.838095 143.699209 
L 86.059026 143.734587 
L 87.140421 143.817756 
L 88.221816 144.017268 
L 89.303212 144.390005 
L 93.628793 146.461941 
L 94.710188 146.661453 
L 96.872979 146.771623 
L 115.2567 146.78 
L 129.31484 146.751409 
L 130.396235 146.625518 
L 131.47763 146.127611 
L 132.559026 144.593949 
L 133.640421 140.914885 
L 134.721816 134.041489 
L 135.803212 124.040757 
L 136.884607 112.708442 
L 137.966002 102.70771 
L 139.047398 95.834314 
L 140.128793 92.15525 
L 141.210188 90.621588 
L 142.291584 90.123681 
L 144.454374 89.973001 
L 173.652049 89.973001 
L 175.81484 90.123681 
L 176.896235 90.621588 
L 177.97763 92.15525 
L 179.059026 95.834314 
L 180.140421 102.70771 
L 181.221816 112.708442 
L 182.303212 124.040757 
L 183.384607 134.041489 
L 184.466002 140.914885 
L 185.547398 144.593949 
L 186.628793 146.127611 
L 187.710188 146.625518 
L 189.872979 146.776198 
L 219.070654 146.773701 
L 220.152049 146.732628 
L 221.233444 146.524043 
L 222.31484 145.699071 
L 223.396235 143.157978 
L 224.47763 137.062213 
L 225.559026 125.673825 
L 226.640421 109.103819 
L 227.721816 90.327541 
L 228.803212 73.757535 
L 229.884607 62.369147 
L 230.966002 56.273382 
L 232.047398 53.732289 
L 233.128793 52.907317 
L 234.210188 52.698732 
L 237.454374 52.65136 
L 265.570654 52.698732 
L 266.652049 52.907317 
L 267.733444 53.732289 
L 268.81484 56.273382 
L 269.896235 62.369147 
L 270.97763 73.757535 
L 272.059026 90.327541 
L 273.140421 109.103819 
L 274.221816 125.673825 
L 275.303212 137.062213 
L 276.384607 143.157978 
L 277.466002 145.699071 
L 278.547398 146.524043 
L 279.628793 146.732628 
L 282.872979 146.78 
L 314.038095 146.78 
L 314.038095 146.78 
" style="fill:none;stroke:#cccccc;stroke-linecap:square;stroke-width:1.75;"/>
   </g>
   <g id="line2d_24">
    <path clip-path="url(#pa5f538ed88)" d="M 0.628793 146.78 
L 41.721816 146.689485 
L 42.803212 146.53715 
L 43.884607 146.252551 
L 48.210188 144.670552 
L 50.372979 144.454715 
L 56.861351 144.427702 
L 87.140421 144.518217 
L 88.221816 144.670552 
L 89.303212 144.955151 
L 93.628793 146.53715 
L 95.791584 146.752987 
L 102.279956 146.78 
L 129.31484 146.755594 
L 130.396235 146.648129 
L 131.47763 146.223099 
L 132.559026 144.913913 
L 133.640421 141.77334 
L 134.721816 135.905977 
L 135.803212 127.369014 
L 136.884607 117.695367 
L 137.966002 109.158404 
L 139.047398 103.291041 
L 140.128793 100.150468 
L 141.210188 98.841282 
L 142.291584 98.416252 
L 144.454374 98.287626 
L 173.652049 98.287626 
L 175.81484 98.416252 
L 176.896235 98.841282 
L 177.97763 100.150468 
L 179.059026 103.291041 
L 180.140421 109.158404 
L 181.221816 117.695367 
L 182.303212 127.369014 
L 183.384607 135.905977 
L 184.466002 141.77334 
L 185.547398 144.913913 
L 186.628793 146.223099 
L 187.710188 146.648129 
L 189.872979 146.776755 
L 219.070654 146.773862 
L 220.152049 146.733834 
L 221.233444 146.530558 
L 222.31484 145.726587 
L 223.396235 143.250179 
L 224.47763 137.309586 
L 225.559026 126.211098 
L 226.640421 110.062893 
L 227.721816 91.764579 
L 228.803212 75.616374 
L 229.884607 64.517886 
L 230.966002 58.577293 
L 232.047398 56.100886 
L 233.128793 55.296914 
L 234.210188 55.093638 
L 237.454374 55.047472 
L 265.570654 55.093638 
L 266.652049 55.296914 
L 267.733444 56.100886 
L 268.81484 58.577293 
L 269.896235 64.517886 
L 270.97763 75.616374 
L 272.059026 91.764579 
L 273.140421 110.062893 
L 274.221816 126.211098 
L 275.303212 137.309586 
L 276.384607 143.250179 
L 277.466002 145.726587 
L 278.547398 146.530558 
L 279.628793 146.733834 
L 282.872979 146.78 
L 314.038095 146.78 
L 314.038095 146.78 
" style="fill:none;stroke:#cccccc;stroke-linecap:square;stroke-width:1.75;"/>
   </g>
   <g id="line2d_25">
    <path clip-path="url(#pa5f538ed88)" d="M 0.628793 146.78 
L 41.721816 146.73049 
L 43.884607 146.491495 
L 48.210188 145.626167 
L 50.372979 145.508108 
L 62.268328 145.493333 
L 87.140421 145.542843 
L 89.303212 145.781838 
L 93.628793 146.647165 
L 95.791584 146.765225 
L 107.686933 146.78 
L 130.396235 146.701141 
L 131.47763 146.446972 
L 132.559026 145.664078 
L 133.640421 143.786011 
L 134.721816 140.27732 
L 135.803212 135.172205 
L 136.884607 129.387353 
L 137.966002 124.282238 
L 139.047398 120.773547 
L 140.128793 118.89548 
L 141.210188 118.112586 
L 142.291584 117.858417 
L 144.454374 117.781499 
L 174.733444 117.794153 
L 175.81484 117.858417 
L 176.896235 118.112586 
L 177.97763 118.89548 
L 179.059026 120.773547 
L 180.140421 124.282238 
L 181.221816 129.387353 
L 182.303212 135.172205 
L 183.384607 140.27732 
L 184.466002 143.786011 
L 185.547398 145.664078 
L 186.628793 146.446972 
L 187.710188 146.701141 
L 189.872979 146.778059 
L 220.152049 146.738697 
L 221.233444 146.556835 
L 222.31484 145.837557 
L 223.396235 143.622023 
L 224.47763 138.307233 
L 225.559026 128.377898 
L 226.640421 113.930801 
L 227.721816 97.560096 
L 228.803212 83.112999 
L 229.884607 73.183664 
L 230.966002 67.868874 
L 232.047398 65.65334 
L 233.128793 64.934062 
L 234.210188 64.7522 
L 238.53577 64.710897 
L 265.570654 64.7522 
L 266.652049 64.934062 
L 267.733444 65.65334 
L 268.81484 67.868874 
L 269.896235 73.183664 
L 270.97763 83.112999 
L 272.059026 97.560096 
L 273.140421 113.930801 
L 274.221816 128.377898 
L 275.303212 138.307233 
L 276.384607 143.622023 
L 277.466002 145.837557 
L 278.547398 146.556835 
L 279.628793 146.738697 
L 283.954374 146.78 
L 314.038095 146.78 
L 314.038095 146.78 
" style="fill:none;stroke:#cccccc;stroke-linecap:square;stroke-width:1.75;"/>
   </g>
   <g id="line2d_26">
    <path clip-path="url(#pa5f538ed88)" d="M 0.628793 146.78 
L 38.47763 146.755904 
L 39.559026 146.649807 
L 40.640421 146.230185 
L 41.721816 144.937657 
L 42.803212 141.837043 
L 43.884607 136.044334 
L 44.966002 127.615992 
L 46.047398 118.065429 
L 47.128793 109.637087 
L 48.210188 103.844378 
L 49.291584 100.743764 
L 50.372979 99.451236 
L 51.454374 99.031614 
L 53.617165 98.904625 
L 83.896235 98.925516 
L 84.97763 99.031614 
L 86.059026 99.451236 
L 87.140421 100.743764 
L 88.221816 103.844378 
L 89.303212 109.637087 
L 90.384607 118.065429 
L 91.466002 127.615992 
L 92.547398 136.044334 
L 93.628793 141.837043 
L 94.710188 144.937657 
L 95.791584 146.230185 
L 96.872979 146.649807 
L 99.03577 146.776796 
L 128.233444 146.773408 
L 129.31484 146.730425 
L 130.396235 146.512136 
L 131.47763 145.648789 
L 132.559026 142.989492 
L 133.640421 136.61017 
L 134.721816 124.692027 
L 135.803212 107.351232 
L 136.884607 87.701536 
L 137.966002 70.360741 
L 139.047398 58.442598 
L 140.128793 52.063276 
L 141.210188 49.403979 
L 142.291584 48.540632 
L 143.372979 48.322344 
L 146.617165 48.272768 
L 174.733444 48.322344 
L 175.81484 48.540632 
L 176.896235 49.403979 
L 177.97763 52.063276 
L 179.059026 58.442598 
L 180.140421 70.360741 
L 181.221816 87.701536 
L 182.303212 107.351232 
L 183.384607 124.692027 
L 184.466002 136.61017 
L 185.547398 142.989492 
L 186.628793 145.648789 
L 187.710188 146.512136 
L 188.791584 146.730425 
L 192.03577 146.78 
L 220.152049 146.729378 
L 221.233444 146.506483 
L 222.31484 145.624913 
L 223.396235 142.909488 
L 224.47763 136.39552 
L 225.559026 124.225827 
L 226.640421 106.519029 
L 227.721816 86.454597 
L 228.803212 68.747799 
L 229.884607 56.578106 
L 230.966002 50.064138 
L 232.047398 47.348713 
L 233.128793 46.467143 
L 234.210188 46.244248 
L 237.454374 46.193626 
L 265.570654 46.244248 
L 266.652049 46.467143 
L 267.733444 47.348713 
L 268.81484 50.064138 
L 269.896235 56.578106 
L 270.97763 68.747799 
L 272.059026 86.454597 
L 273.140421 106.519029 
L 274.221816 124.225827 
L 275.303212 136.39552 
L 276.384607 142.909488 
L 277.466002 145.624913 
L 278.547398 146.506483 
L 279.628793 146.729378 
L 282.872979 146.78 
L 314.038095 146.78 
L 314.038095 146.78 
" style="fill:none;stroke:#cccccc;stroke-linecap:square;stroke-width:1.75;"/>
   </g>
   <g id="line2d_27">
    <path clip-path="url(#pa5f538ed88)" d="M 0.628793 146.78 
L 41.721816 146.717671 
L 43.884607 146.416798 
L 48.210188 145.32743 
L 50.372979 145.178804 
L 60.105537 145.160203 
L 87.140421 145.222532 
L 89.303212 145.523405 
L 93.628793 146.612773 
L 95.791584 146.761399 
L 105.524142 146.78 
L 130.396235 146.680901 
L 131.47763 146.361497 
L 132.559026 145.377662 
L 133.640421 143.017566 
L 134.721816 138.608325 
L 135.803212 132.192918 
L 136.884607 124.923309 
L 137.966002 118.507902 
L 139.047398 114.098661 
L 140.128793 111.738565 
L 141.210188 110.75473 
L 142.291584 110.435326 
L 144.454374 110.338666 
L 174.733444 110.354568 
L 175.81484 110.435326 
L 176.896235 110.75473 
L 177.97763 111.738565 
L 179.059026 114.098661 
L 180.140421 118.507902 
L 181.221816 124.923309 
L 182.303212 132.192918 
L 183.384607 138.608325 
L 184.466002 143.017566 
L 185.547398 145.377662 
L 186.628793 146.361497 
L 187.710188 146.680901 
L 189.872979 146.777561 
L 220.152049 146.736355 
L 221.233444 146.544178 
L 222.31484 145.784102 
L 223.396235 143.442904 
L 224.47763 137.826663 
L 225.559026 127.334142 
L 226.640421 112.067614 
L 227.721816 94.768372 
L 228.803212 79.501845 
L 229.884607 69.009324 
L 230.966002 63.393082 
L 232.047398 61.051885 
L 233.128793 60.291809 
L 234.210188 60.099632 
L 238.53577 60.055987 
L 265.570654 60.099632 
L 266.652049 60.291809 
L 267.733444 61.051885 
L 268.81484 63.393082 
L 269.896235 69.009324 
L 270.97763 79.501845 
L 272.059026 94.768372 
L 273.140421 112.067614 
L 274.221816 127.334142 
L 275.303212 137.826663 
L 276.384607 143.442904 
L 277.466002 145.784102 
L 278.547398 146.544178 
L 279.628793 146.736355 
L 283.954374 146.78 
L 314.038095 146.78 
L 314.038095 146.78 
" style="fill:none;stroke:#cccccc;stroke-linecap:square;stroke-width:1.75;"/>
   </g>
   <g id="line2d_28">
    <path clip-path="url(#pa5f538ed88)" d="M 0.628793 146.78 
L 40.640421 146.695787 
L 41.721816 146.497815 
L 42.803212 146.022905 
L 43.884607 145.135656 
L 47.128793 141.090953 
L 48.210188 140.203704 
L 49.291584 139.728794 
L 50.372979 139.530822 
L 53.617165 139.4471 
L 86.059026 139.530822 
L 87.140421 139.728794 
L 88.221816 140.203704 
L 89.303212 141.090953 
L 92.547398 145.135656 
L 93.628793 146.022905 
L 94.710188 146.497815 
L 95.791584 146.695787 
L 99.03577 146.779509 
L 129.31484 146.740466 
L 130.396235 146.566391 
L 131.47763 145.877911 
L 132.559026 143.757243 
L 133.640421 138.670025 
L 134.721816 129.165851 
L 135.803212 115.337359 
L 136.884607 99.667625 
L 137.966002 85.839133 
L 139.047398 76.334958 
L 140.128793 71.24774 
L 141.210188 69.127073 
L 142.291584 68.438592 
L 143.372979 68.264517 
L 147.698561 68.224983 
L 174.733444 68.264517 
L 175.81484 68.438592 
L 176.896235 69.127073 
L 177.97763 71.24774 
L 179.059026 76.334958 
L 180.140421 85.839133 
L 181.221816 99.667625 
L 182.303212 115.337359 
L 183.384607 129.165851 
L 184.466002 138.670025 
L 185.547398 143.757243 
L 186.628793 145.877911 
L 187.710188 146.566391 
L 188.791584 146.740466 
L 193.117165 146.78 
L 220.152049 146.73055 
L 221.233444 146.512813 
L 222.31484 145.651647 
L 223.396235 142.999069 
L 224.47763 136.635866 
L 225.559026 124.747837 
L 226.640421 107.450857 
L 227.721816 87.850811 
L 228.803212 70.553831 
L 229.884607 58.665802 
L 230.966002 52.302598 
L 232.047398 49.650021 
L 233.128793 48.788855 
L 234.210188 48.571118 
L 237.454374 48.521668 
L 265.570654 48.571118 
L 266.652049 48.788855 
L 267.733444 49.650021 
L 268.81484 52.302598 
L 269.896235 58.665802 
L 270.97763 70.553831 
L 272.059026 87.850811 
L 273.140421 107.450857 
L 274.221816 124.747837 
L 275.303212 136.635866 
L 276.384607 142.999069 
L 277.466002 145.651647 
L 278.547398 146.512813 
L 279.628793 146.73055 
L 282.872979 146.78 
L 314.038095 146.78 
L 314.038095 146.78 
" style="fill:none;stroke:#cccccc;stroke-linecap:square;stroke-width:1.75;"/>
   </g>
   <g id="line2d_29">
    <path clip-path="url(#pa5f538ed88)" d="M 0.628793 146.78 
L 41.721816 146.732987 
L 43.884607 146.506049 
L 48.210188 145.684374 
L 50.372979 145.572271 
L 62.268328 145.558241 
L 87.140421 145.605253 
L 89.303212 145.832192 
L 93.628793 146.653866 
L 95.791584 146.76597 
L 107.686933 146.78 
L 130.396235 146.705624 
L 131.47763 146.465904 
L 132.559026 145.727513 
L 133.640421 143.956207 
L 134.721816 140.64697 
L 135.803212 135.83206 
L 136.884607 130.376052 
L 137.966002 125.561141 
L 139.047398 122.251905 
L 140.128793 120.480599 
L 141.210188 119.742208 
L 142.291584 119.502488 
L 145.53577 119.428112 
L 175.81484 119.502488 
L 176.896235 119.742208 
L 177.97763 120.480599 
L 179.059026 122.251905 
L 180.140421 125.561141 
L 181.221816 130.376052 
L 182.303212 135.83206 
L 183.384607 140.64697 
L 184.466002 143.956207 
L 185.547398 145.727513 
L 186.628793 146.465904 
L 187.710188 146.705624 
L 190.954374 146.78 
L 220.152049 146.739344 
L 221.233444 146.560328 
L 222.31484 145.852308 
L 223.396235 143.671451 
L 224.47763 138.439847 
L 225.559026 128.665923 
L 226.640421 114.444949 
L 227.721816 98.330474 
L 228.803212 84.1095 
L 229.884607 74.335577 
L 230.966002 69.103973 
L 232.047398 66.923116 
L 233.128793 66.215095 
L 234.210188 66.036079 
L 238.53577 65.995423 
L 265.570654 66.036079 
L 266.652049 66.215095 
L 267.733444 66.923116 
L 268.81484 69.103973 
L 269.896235 74.335577 
L 270.97763 84.1095 
L 272.059026 98.330474 
L 273.140421 114.444949 
L 274.221816 128.665923 
L 275.303212 138.439847 
L 276.384607 143.671451 
L 277.466002 145.852308 
L 278.547398 146.560328 
L 279.628793 146.739344 
L 283.954374 146.78 
L 314.038095 146.78 
L 314.038095 146.78 
" style="fill:none;stroke:#cccccc;stroke-linecap:square;stroke-width:1.75;"/>
   </g>
   <g id="line2d_30">
    <path clip-path="url(#pa5f538ed88)" d="M 0.628793 146.78 
L 41.721816 146.693237 
L 42.803212 146.547217 
L 43.884607 146.274415 
L 48.210188 144.757992 
L 50.372979 144.551102 
L 56.861351 144.525209 
L 87.140421 144.611972 
L 88.221816 144.757992 
L 89.303212 145.030794 
L 93.628793 146.547217 
L 95.791584 146.754107 
L 102.279956 146.78 
L 129.31484 146.756271 
L 130.396235 146.651789 
L 131.47763 146.238556 
L 132.559026 144.965708 
L 133.640421 141.912303 
L 134.721816 136.207791 
L 135.803212 127.907776 
L 136.884607 118.502627 
L 137.966002 110.202612 
L 139.047398 104.498101 
L 140.128793 101.444696 
L 141.210188 100.171847 
L 142.291584 99.758614 
L 144.454374 99.633558 
L 174.733444 99.654132 
L 175.81484 99.758614 
L 176.896235 100.171847 
L 177.97763 101.444696 
L 179.059026 104.498101 
L 180.140421 110.202612 
L 181.221816 118.502627 
L 182.303212 127.907776 
L 183.384607 136.207791 
L 184.466002 141.912303 
L 185.547398 144.965708 
L 186.628793 146.238556 
L 187.710188 146.651789 
L 189.872979 146.776845 
L 219.070654 146.773892 
L 220.152049 146.734063 
L 221.233444 146.531793 
L 222.31484 145.731799 
L 223.396235 143.267644 
L 224.47763 137.356445 
L 225.559026 126.312871 
L 226.640421 110.244566 
L 227.721816 92.036791 
L 228.803212 75.968485 
L 229.884607 64.924911 
L 230.966002 59.013712 
L 232.047398 56.549558 
L 233.128793 55.749564 
L 234.210188 55.547294 
L 237.454374 55.501356 
L 265.570654 55.547294 
L 266.652049 55.749564 
L 267.733444 56.549558 
L 268.81484 59.013712 
L 269.896235 64.924911 
L 270.97763 75.968485 
L 272.059026 92.036791 
L 273.140421 110.244566 
L 274.221816 126.312871 
L 275.303212 137.356445 
L 276.384607 143.267644 
L 277.466002 145.731799 
L 278.547398 146.531793 
L 279.628793 146.734063 
L 282.872979 146.78 
L 314.038095 146.78 
L 314.038095 146.78 
" style="fill:none;stroke:#cccccc;stroke-linecap:square;stroke-width:1.75;"/>
   </g>
   <g id="line2d_31">
    <path clip-path="url(#pa5f538ed88)" d="M 0.628793 146.78 
L 41.721816 146.721448 
L 43.884607 146.438808 
L 48.210188 145.415456 
L 50.372979 145.275836 
L 60.105537 145.258363 
L 87.140421 145.316914 
L 89.303212 145.599555 
L 93.628793 146.622907 
L 95.791584 146.762526 
L 105.524142 146.78 
L 130.396235 146.686429 
L 131.47763 146.38484 
L 132.559026 145.455882 
L 133.640421 143.227428 
L 134.721816 139.064128 
L 135.803212 133.006561 
L 136.884607 126.14244 
L 137.966002 120.084873 
L 139.047398 115.921573 
L 140.128793 113.693119 
L 141.210188 112.764161 
L 142.291584 112.462572 
L 144.454374 112.371304 
L 174.733444 112.386319 
L 175.81484 112.462572 
L 176.896235 112.764161 
L 177.97763 113.693119 
L 179.059026 115.921573 
L 180.140421 120.084873 
L 181.221816 126.14244 
L 182.303212 133.006561 
L 183.384607 139.064128 
L 184.466002 143.227428 
L 185.547398 145.455882 
L 186.628793 146.38484 
L 187.710188 146.686429 
L 189.872979 146.777697 
L 220.152049 146.736916 
L 221.233444 146.54721 
L 222.31484 145.796906 
L 223.396235 143.48581 
L 224.47763 137.941778 
L 225.559026 127.584162 
L 226.640421 112.51392 
L 227.721816 95.437098 
L 228.803212 80.366856 
L 229.884607 70.00924 
L 230.966002 64.465208 
L 232.047398 62.154111 
L 233.128793 61.403808 
L 234.210188 61.214102 
L 238.53577 61.171018 
L 265.570654 61.214102 
L 266.652049 61.403808 
L 267.733444 62.154111 
L 268.81484 64.465208 
L 269.896235 70.00924 
L 270.97763 80.366856 
L 272.059026 95.437098 
L 273.140421 112.51392 
L 274.221816 127.584162 
L 275.303212 137.941778 
L 276.384607 143.48581 
L 277.466002 145.796906 
L 278.547398 146.54721 
L 279.628793 146.736916 
L 283.954374 146.78 
L 314.038095 146.78 
L 314.038095 146.78 
" style="fill:none;stroke:#cccccc;stroke-linecap:square;stroke-width:1.75;"/>
   </g>
   <g id="line2d_32">
    <path clip-path="url(#pa5f538ed88)" d="M 0.628793 146.78 
L 40.640421 146.718764 
L 41.721816 146.574808 
L 42.803212 146.229476 
L 43.884607 145.584311 
L 47.128793 142.643195 
L 48.210188 141.99803 
L 49.291584 141.652698 
L 51.454374 141.462007 
L 62.268328 141.447506 
L 86.059026 141.508742 
L 87.140421 141.652698 
L 88.221816 141.99803 
L 89.303212 142.643195 
L 92.547398 145.584311 
L 93.628793 146.229476 
L 94.710188 146.574808 
L 96.872979 146.7655 
L 107.686933 146.78 
L 129.31484 146.743964 
L 130.396235 146.585291 
L 131.47763 145.957725 
L 132.559026 144.024688 
L 133.640421 139.387573 
L 134.721816 130.724302 
L 135.803212 118.119317 
L 136.884607 103.835998 
L 137.966002 91.231013 
L 139.047398 82.567742 
L 140.128793 77.930627 
L 141.210188 75.99759 
L 142.291584 75.370025 
L 143.372979 75.211351 
L 147.698561 75.175315 
L 174.733444 75.211351 
L 175.81484 75.370025 
L 176.896235 75.99759 
L 177.97763 77.930627 
L 179.059026 82.567742 
L 180.140421 91.231013 
L 181.221816 103.835998 
L 182.303212 118.119317 
L 183.384607 130.724302 
L 184.466002 139.387573 
L 185.547398 144.024688 
L 186.628793 145.957725 
L 187.710188 146.585291 
L 188.791584 146.743964 
L 193.117165 146.78 
L 220.152049 146.731093 
L 221.233444 146.515749 
L 222.31484 145.664045 
L 223.396235 143.040611 
L 224.47763 136.747322 
L 225.559026 124.989909 
L 226.640421 107.882975 
L 227.721816 88.498278 
L 228.803212 71.391344 
L 229.884607 59.633931 
L 230.966002 53.340641 
L 232.047398 50.717208 
L 233.128793 49.865504 
L 234.210188 49.650159 
L 237.454374 49.601253 
L 265.570654 49.650159 
L 266.652049 49.865504 
L 267.733444 50.717208 
L 268.81484 53.340641 
L 269.896235 59.633931 
L 270.97763 71.391344 
L 272.059026 88.498278 
L 273.140421 107.882975 
L 274.221816 124.989909 
L 275.303212 136.747322 
L 276.384607 143.040611 
L 277.466002 145.664045 
L 278.547398 146.515749 
L 279.628793 146.731093 
L 282.872979 146.78 
L 314.038095 146.78 
L 314.038095 146.78 
" style="fill:none;stroke:#cccccc;stroke-linecap:square;stroke-width:1.75;"/>
   </g>
   <g id="line2d_33">
    <path clip-path="url(#pa5f538ed88)" d="M 0.628793 146.78 
L 39.559026 146.749668 
L 40.640421 146.651907 
L 41.721816 146.350782 
L 42.803212 145.628421 
L 43.884607 144.278872 
L 44.966002 142.315289 
L 46.047398 140.090259 
L 47.128793 138.126677 
L 48.210188 136.777127 
L 49.291584 136.054766 
L 50.372979 135.753641 
L 52.53577 135.631162 
L 77.407863 135.625548 
L 84.97763 135.65588 
L 86.059026 135.753641 
L 87.140421 136.054766 
L 88.221816 136.777127 
L 89.303212 138.126677 
L 90.384607 140.090259 
L 91.466002 142.315289 
L 92.547398 144.278872 
L 93.628793 145.628421 
L 94.710188 146.350782 
L 95.791584 146.651907 
L 97.954374 146.774386 
L 122.826468 146.78 
L 129.31484 146.736814 
L 130.396235 146.546659 
L 131.47763 145.794579 
L 132.559026 143.478013 
L 133.640421 137.920858 
L 134.721816 127.538726 
L 135.803212 112.432813 
L 136.884607 95.315571 
L 137.966002 80.209658 
L 139.047398 69.827526 
L 140.128793 64.270371 
L 141.210188 61.953804 
L 142.291584 61.201725 
L 143.372979 61.01157 
L 147.698561 60.968384 
L 174.733444 61.01157 
L 175.81484 61.201725 
L 176.896235 61.953804 
L 177.97763 64.270371 
L 179.059026 69.827526 
L 180.140421 80.209658 
L 181.221816 95.315571 
L 182.303212 112.432813 
L 183.384607 127.538726 
L 184.466002 137.920858 
L 185.547398 143.478013 
L 186.628793 145.794579 
L 187.710188 146.546659 
L 188.791584 146.736814 
L 193.117165 146.78 
L 220.152049 146.730067 
L 221.233444 146.510204 
L 222.31484 145.64063 
L 223.396235 142.962154 
L 224.47763 136.536823 
L 225.559026 124.532725 
L 226.640421 107.066865 
L 227.721816 87.275452 
L 228.803212 69.809592 
L 229.884607 57.805494 
L 230.966002 51.380163 
L 232.047398 48.701686 
L 233.128793 47.832112 
L 234.210188 47.61225 
L 237.454374 47.562317 
L 265.570654 47.61225 
L 266.652049 47.832112 
L 267.733444 48.701686 
L 268.81484 51.380163 
L 269.896235 57.805494 
L 270.97763 69.809592 
L 272.059026 87.275452 
L 273.140421 107.066865 
L 274.221816 124.532725 
L 275.303212 136.536823 
L 276.384607 142.962154 
L 277.466002 145.64063 
L 278.547398 146.510204 
L 279.628793 146.730067 
L 282.872979 146.78 
L 314.038095 146.78 
L 314.038095 146.78 
" style="fill:none;stroke:#cccccc;stroke-linecap:square;stroke-width:1.75;"/>
   </g>
   <g id="line2d_34">
    <path clip-path="url(#pa5f538ed88)" d="M 0.628793 146.78 
L 39.559026 146.745979 
L 40.640421 146.636328 
L 41.721816 146.298577 
L 42.803212 145.488355 
L 43.884607 143.974661 
L 44.966002 141.772249 
L 46.047398 139.276589 
L 47.128793 137.074177 
L 48.210188 135.560483 
L 49.291584 134.750261 
L 50.372979 134.41251 
L 52.53577 134.275134 
L 75.245072 134.268838 
L 84.97763 134.302858 
L 86.059026 134.41251 
L 87.140421 134.750261 
L 88.221816 135.560483 
L 89.303212 137.074177 
L 90.384607 139.276589 
L 91.466002 141.772249 
L 92.547398 143.974661 
L 93.628793 145.488355 
L 94.710188 146.298577 
L 95.791584 146.636328 
L 97.954374 146.773704 
L 120.663677 146.78 
L 129.31484 146.73599 
L 130.396235 146.542207 
L 131.47763 145.77578 
L 132.559026 143.415018 
L 133.640421 137.751844 
L 134.721816 127.171642 
L 135.803212 111.777539 
L 136.884607 94.333735 
L 137.966002 78.939632 
L 139.047398 68.359431 
L 140.128793 62.696257 
L 141.210188 60.335495 
L 142.291584 59.569067 
L 143.372979 59.375284 
L 147.698561 59.331274 
L 174.733444 59.375284 
L 175.81484 59.569067 
L 176.896235 60.335495 
L 177.97763 62.696257 
L 179.059026 68.359431 
L 180.140421 78.939632 
L 181.221816 94.333735 
L 182.303212 111.777539 
L 183.384607 127.171642 
L 184.466002 137.751844 
L 185.547398 143.415018 
L 186.628793 145.77578 
L 187.710188 146.542207 
L 188.791584 146.73599 
L 193.117165 146.78 
L 220.152049 146.729968 
L 221.233444 146.50967 
L 222.31484 145.638373 
L 223.396235 142.954589 
L 224.47763 136.516526 
L 225.559026 124.488641 
L 226.640421 106.988172 
L 227.721816 87.157543 
L 228.803212 69.657074 
L 229.884607 57.629189 
L 230.966002 51.191127 
L 232.047398 48.507343 
L 233.128793 47.636046 
L 234.210188 47.415747 
L 237.454374 47.365715 
L 265.570654 47.415747 
L 266.652049 47.636046 
L 267.733444 48.507343 
L 268.81484 51.191127 
L 269.896235 57.629189 
L 270.97763 69.657074 
L 272.059026 87.157543 
L 273.140421 106.988172 
L 274.221816 124.488641 
L 275.303212 136.516526 
L 276.384607 142.954589 
L 277.466002 145.638373 
L 278.547398 146.50967 
L 279.628793 146.729968 
L 282.872979 146.78 
L 314.038095 146.78 
L 314.038095 146.78 
" style="fill:none;stroke:#cccccc;stroke-linecap:square;stroke-width:1.75;"/>
   </g>
   <g id="line2d_35">
    <path clip-path="url(#pa5f538ed88)" d="M 0.628793 146.78 
L 40.640421 146.705854 
L 41.721816 146.531549 
L 42.803212 146.113411 
L 43.884607 145.332229 
L 47.128793 141.771047 
L 48.210188 140.989864 
L 49.291584 140.571727 
L 50.372979 140.397421 
L 53.617165 140.323707 
L 86.059026 140.397421 
L 87.140421 140.571727 
L 88.221816 140.989864 
L 89.303212 141.771047 
L 92.547398 145.332229 
L 93.628793 146.113411 
L 94.710188 146.531549 
L 95.791584 146.705854 
L 99.03577 146.779568 
L 129.31484 146.741787 
L 130.396235 146.573529 
L 131.47763 145.908055 
L 132.559026 143.85825 
L 133.640421 138.941023 
L 134.721816 129.754435 
L 135.803212 116.388029 
L 136.884607 101.241906 
L 137.966002 87.875499 
L 139.047398 78.688911 
L 140.128793 73.771684 
L 141.210188 71.72188 
L 142.291584 71.056405 
L 143.372979 70.888147 
L 147.698561 70.849934 
L 174.733444 70.888147 
L 175.81484 71.056405 
L 176.896235 71.72188 
L 177.97763 73.771684 
L 179.059026 78.688911 
L 180.140421 87.875499 
L 181.221816 101.241906 
L 182.303212 116.388029 
L 183.384607 129.754435 
L 184.466002 138.941023 
L 185.547398 143.85825 
L 186.628793 145.908055 
L 187.710188 146.573529 
L 188.791584 146.741787 
L 193.117165 146.78 
L 220.152049 146.730745 
L 221.233444 146.513866 
L 222.31484 145.656093 
L 223.396235 143.013965 
L 224.47763 136.675831 
L 225.559026 124.834639 
L 226.640421 107.605804 
L 227.721816 88.082978 
L 228.803212 70.854144 
L 229.884607 59.012951 
L 230.966002 52.674817 
L 232.047398 50.032689 
L 233.128793 49.174916 
L 234.210188 48.958037 
L 237.454374 48.908782 
L 265.570654 48.958037 
L 266.652049 49.174916 
L 267.733444 50.032689 
L 268.81484 52.674817 
L 269.896235 59.012951 
L 270.97763 70.854144 
L 272.059026 88.082978 
L 273.140421 107.605804 
L 274.221816 124.834639 
L 275.303212 136.675831 
L 276.384607 143.013965 
L 277.466002 145.656093 
L 278.547398 146.513866 
L 279.628793 146.730745 
L 282.872979 146.78 
L 314.038095 146.78 
L 314.038095 146.78 
" style="fill:none;stroke:#cccccc;stroke-linecap:square;stroke-width:1.75;"/>
   </g>
   <g id="line2d_36">
    <path clip-path="url(#pa5f538ed88)" d="M 0.628793 146.78 
L 41.721816 146.703243 
L 42.803212 146.574064 
L 44.966002 145.981579 
L 47.128793 145.232532 
L 49.291584 144.862013 
L 52.53577 144.78626 
L 87.140421 144.862013 
L 88.221816 144.991193 
L 90.384607 145.583678 
L 92.547398 146.332725 
L 94.710188 146.703243 
L 97.954374 146.778996 
L 129.31484 146.758253 
L 130.396235 146.662498 
L 131.47763 146.28378 
L 132.559026 145.117246 
L 133.640421 142.318877 
L 134.721816 137.090835 
L 135.803212 129.484078 
L 136.884607 120.864494 
L 137.966002 113.257737 
L 139.047398 108.029695 
L 140.128793 105.231325 
L 141.210188 104.064791 
L 142.291584 103.686073 
L 144.454374 103.571463 
L 174.733444 103.590318 
L 175.81484 103.686073 
L 176.896235 104.064791 
L 177.97763 105.231325 
L 179.059026 108.029695 
L 180.140421 113.257737 
L 181.221816 120.864494 
L 182.303212 129.484078 
L 183.384607 137.090835 
L 184.466002 142.318877 
L 185.547398 145.117246 
L 186.628793 146.28378 
L 187.710188 146.662498 
L 189.872979 146.777108 
L 219.070654 146.77399 
L 220.152049 146.734798 
L 221.233444 146.535765 
L 222.31484 145.748574 
L 223.396235 143.323855 
L 224.47763 137.507257 
L 225.559026 126.640421 
L 226.640421 110.829269 
L 227.721816 92.912886 
L 228.803212 77.101733 
L 229.884607 66.234898 
L 230.966002 60.4183 
L 232.047398 57.993581 
L 233.128793 57.20639 
L 234.210188 57.007357 
L 237.454374 56.962155 
L 265.570654 57.007357 
L 266.652049 57.20639 
L 267.733444 57.993581 
L 268.81484 60.4183 
L 269.896235 66.234898 
L 270.97763 77.101733 
L 272.059026 92.912886 
L 273.140421 110.829269 
L 274.221816 126.640421 
L 275.303212 137.507257 
L 276.384607 143.323855 
L 277.466002 145.748574 
L 278.547398 146.535765 
L 279.628793 146.734798 
L 282.872979 146.78 
L 314.038095 146.78 
L 314.038095 146.78 
" style="fill:none;stroke:#cccccc;stroke-linecap:square;stroke-width:1.75;"/>
   </g>
   <g id="line2d_37">
    <path clip-path="url(#pa5f538ed88)" d="M 0.628793 146.78 
L 39.559026 146.70508 
L 40.640421 146.463608 
L 41.721816 145.719822 
L 42.803212 143.935572 
L 43.884607 140.602153 
L 44.966002 135.752058 
L 46.047398 130.25618 
L 47.128793 125.406084 
L 48.210188 122.072666 
L 49.291584 120.288415 
L 50.372979 119.544629 
L 51.454374 119.303157 
L 54.698561 119.228238 
L 84.97763 119.303157 
L 86.059026 119.544629 
L 87.140421 120.288415 
L 88.221816 122.072666 
L 89.303212 125.406084 
L 90.384607 130.25618 
L 91.466002 135.752058 
L 92.547398 140.602153 
L 93.628793 143.935572 
L 94.710188 145.719822 
L 95.791584 146.463608 
L 96.872979 146.70508 
L 100.117165 146.78 
L 129.31484 146.731978 
L 130.396235 146.520529 
L 131.47763 145.684234 
L 132.559026 143.108262 
L 133.640421 136.928827 
L 134.721816 125.384123 
L 135.803212 108.586678 
L 136.884607 89.552679 
L 137.966002 72.755233 
L 139.047398 61.210529 
L 140.128793 55.031095 
L 141.210188 52.455123 
L 142.291584 51.618827 
L 143.372979 51.407379 
L 146.617165 51.359357 
L 174.733444 51.407379 
L 175.81484 51.618827 
L 176.896235 52.455123 
L 177.97763 55.031095 
L 179.059026 61.210529 
L 180.140421 72.755233 
L 181.221816 89.552679 
L 182.303212 108.586678 
L 183.384607 125.384123 
L 184.466002 136.928827 
L 185.547398 143.108262 
L 186.628793 145.684234 
L 187.710188 146.520529 
L 188.791584 146.731978 
L 192.03577 146.78 
L 220.152049 146.729531 
L 221.233444 146.507305 
L 222.31484 145.628385 
L 223.396235 142.921121 
L 224.47763 136.426731 
L 225.559026 124.293615 
L 226.640421 106.640035 
L 227.721816 86.635909 
L 228.803212 68.982329 
L 229.884607 56.849212 
L 230.966002 50.354823 
L 232.047398 47.647559 
L 233.128793 46.768639 
L 234.210188 46.546413 
L 237.454374 46.495944 
L 265.570654 46.546413 
L 266.652049 46.768639 
L 267.733444 47.647559 
L 268.81484 50.354823 
L 269.896235 56.849212 
L 270.97763 68.982329 
L 272.059026 86.635909 
L 273.140421 106.640035 
L 274.221816 124.293615 
L 275.303212 136.426731 
L 276.384607 142.921121 
L 277.466002 145.628385 
L 278.547398 146.507305 
L 279.628793 146.729531 
L 282.872979 146.78 
L 314.038095 146.78 
L 314.038095 146.78 
" style="fill:none;stroke:#cccccc;stroke-linecap:square;stroke-width:1.75;"/>
   </g>
   <g id="matplotlib.axis_1"/>
   <g id="matplotlib.axis_2">
    <g id="ytick_1">
     <g id="line2d_38">
      <defs>
       <path d="M 0 0 
L -3.5 0 
" id="ma70067b84c" style="stroke:#000000;stroke-width:0.8;"/>
      </defs>
      <g>
       <use style="stroke:#000000;stroke-width:0.8;" x="23.338095" xlink:href="#ma70067b84c" y="146.78"/>
      </g>
     </g>
     <g id="text_1">
      <!-- $0$ -->
      <defs>
       <path d="M 42 31.640625 
C 42 37.75 41.90625 48.125 37.703125 56.109375 
C 34 63.109375 28.09375 65.59375 22.90625 65.59375 
C 18.09375 65.59375 12 63.40625 8.203125 56.203125 
C 4.203125 48.71875 3.796875 39.4375 3.796875 31.640625 
C 3.796875 25.953125 3.90625 17.28125 7 9.671875 
C 11.296875 -0.609375 19 -2 22.90625 -2 
C 27.5 -2 34.5 -0.109375 38.59375 9.375 
C 41.59375 16.28125 42 24.359375 42 31.640625 
z
M 22.90625 -0.40625 
C 16.5 -0.40625 12.703125 5.078125 11.296875 12.6875 
C 10.203125 18.5625 10.203125 27.15625 10.203125 32.75 
C 10.203125 40.4375 10.203125 46.828125 11.5 52.921875 
C 13.40625 61.390625 19 64 22.90625 64 
C 27 64 32.296875 61.296875 34.203125 53.125 
C 35.5 47.4375 35.59375 40.734375 35.59375 32.75 
C 35.59375 26.25 35.59375 18.265625 34.40625 12.375 
C 32.296875 1.484375 26.40625 -0.40625 22.90625 -0.40625 
z
" id="CMR17-48"/>
      </defs>
      <g transform="translate(7.2 153.87832)scale(0.2 -0.2)">
       <use transform="scale(0.996264)" xlink:href="#CMR17-48"/>
      </g>
     </g>
    </g>
    <g id="ytick_2">
     <g id="line2d_39">
      <g>
       <use style="stroke:#000000;stroke-width:0.8;" x="23.338095" xlink:href="#ma70067b84c" y="45.98"/>
      </g>
     </g>
     <g id="text_2">
      <!-- $1$ -->
      <defs>
       <path d="M 26.59375 63.40625 
C 26.59375 65.5 26.5 65.5 25.09375 65.5 
C 21.203125 61.1875 15.296875 59.796875 9.703125 59.796875 
C 9.40625 59.796875 8.90625 59.796875 8.796875 59.5 
C 8.703125 59.296875 8.703125 59.09375 8.703125 57 
C 11.796875 57 17 57.59375 21 59.984375 
L 21 7.203125 
C 21 3.6875 20.796875 2.5 12.203125 2.5 
L 9.203125 2.5 
L 9.203125 0 
C 14 0 19 0 23.796875 0 
C 28.59375 0 33.59375 0 38.40625 0 
L 38.40625 2.5 
L 35.40625 2.5 
C 26.796875 2.5 26.59375 3.59375 26.59375 7.15625 
z
" id="CMR17-49"/>
      </defs>
      <g transform="translate(7.2 53.07832)scale(0.2 -0.2)">
       <use transform="scale(0.996264)" xlink:href="#CMR17-49"/>
      </g>
     </g>
    </g>
   </g>
   <g id="line2d_40">
    <path clip-path="url(#pa5f538ed88)" d="M 0.628793 146.78 
L 38.47763 146.737146 
L 39.559026 146.548451 
L 40.640421 145.802151 
L 41.721816 143.503383 
L 42.803212 137.988927 
L 43.884607 127.686565 
L 44.966002 112.696718 
L 46.047398 95.710996 
L 47.128793 80.721148 
L 48.210188 70.418787 
L 49.291584 64.90433 
L 50.372979 62.605563 
L 51.454374 61.859262 
L 52.53577 61.670568 
L 56.861351 61.627714 
L 83.896235 61.670568 
L 84.97763 61.859262 
L 86.059026 62.605563 
L 87.140421 64.90433 
L 88.221816 70.418787 
L 89.303212 80.721148 
L 90.384607 95.710996 
L 91.466002 112.696718 
L 92.547398 127.686565 
L 93.628793 137.988927 
L 94.710188 143.503383 
L 95.791584 145.802151 
L 96.872979 146.548451 
L 97.954374 146.737146 
L 102.279956 146.78 
L 129.31484 146.729466 
L 130.396235 146.506954 
L 131.47763 145.626903 
L 132.559026 142.916157 
L 133.640421 136.413414 
L 134.721816 124.264691 
L 135.803212 106.588404 
L 136.884607 86.558546 
L 137.966002 68.882258 
L 139.047398 56.733535 
L 140.128793 50.230792 
L 141.210188 47.520046 
L 142.291584 46.639995 
L 143.372979 46.417483 
L 146.617165 46.366949 
L 174.733444 46.417483 
L 175.81484 46.639995 
L 176.896235 47.520046 
L 177.97763 50.230792 
L 179.059026 56.733535 
L 180.140421 68.882258 
L 181.221816 86.558546 
L 182.303212 106.588404 
L 183.384607 124.264691 
L 184.466002 136.413414 
L 185.547398 142.916157 
L 186.628793 145.626903 
L 187.710188 146.506954 
L 188.791584 146.729466 
L 192.03577 146.78 
L 220.152049 146.729289 
L 221.233444 146.505998 
L 222.31484 145.622867 
L 223.396235 142.902631 
L 224.47763 136.377123 
L 225.559026 124.185871 
L 226.640421 106.447703 
L 227.721816 86.347726 
L 228.803212 68.609558 
L 229.884607 56.418306 
L 230.966002 49.892798 
L 232.047398 47.172562 
L 233.128793 46.289431 
L 234.210188 46.06614 
L 237.454374 46.015429 
L 265.570654 46.06614 
L 266.652049 46.289431 
L 267.733444 47.172562 
L 268.81484 49.892798 
L 269.896235 56.418306 
L 270.97763 68.609558 
L 272.059026 86.347726 
L 273.140421 106.447703 
L 274.221816 124.185871 
L 275.303212 136.377123 
L 276.384607 142.902631 
L 277.466002 145.622867 
L 278.547398 146.505998 
L 279.628793 146.729289 
L 282.872979 146.78 
L 314.038095 146.78 
L 314.038095 146.78 
" style="fill:none;stroke:#1764ab;stroke-linecap:square;stroke-width:2;"/>
   </g>
   <g id="patch_6">
    <path d="M 23.338095 149.3 
L 23.338095 10.7 
" style="fill:none;stroke:#000000;stroke-linecap:square;stroke-linejoin:miter;stroke-width:0.8;"/>
   </g>
   <g id="patch_7">
    <path d="M 302.338095 149.3 
L 302.338095 10.7 
" style="fill:none;stroke:#000000;stroke-linecap:square;stroke-linejoin:miter;stroke-width:0.8;"/>
   </g>
   <g id="patch_8">
    <path d="M 23.338095 149.3 
L 302.338095 149.3 
" style="fill:none;stroke:#000000;stroke-linecap:square;stroke-linejoin:miter;stroke-width:0.8;"/>
   </g>
   <g id="patch_9">
    <path d="M 23.338095 10.7 
L 302.338095 10.7 
" style="fill:none;stroke:#000000;stroke-linecap:square;stroke-linejoin:miter;stroke-width:0.8;"/>
   </g>
   <g id="line2d_41">
    <path clip-path="url(#pa5f538ed88)" d="M 0.628793 146.78 
L 39.559026 146.730988 
L 40.640421 146.573019 
L 41.721816 146.08644 
L 42.803212 144.919196 
L 43.884607 142.738499 
L 44.966002 139.565603 
L 46.047398 135.97024 
L 47.128793 132.797344 
L 48.210188 130.616647 
L 49.291584 129.449404 
L 50.372979 128.962824 
L 51.454374 128.804855 
L 55.779956 128.755843 
L 84.97763 128.804855 
L 86.059026 128.962824 
L 87.140421 129.449404 
L 88.221816 130.616647 
L 89.303212 132.797344 
L 90.384607 135.97024 
L 91.466002 139.565603 
L 92.547398 142.738499 
L 93.628793 144.919196 
L 94.710188 146.08644 
L 95.791584 146.573019 
L 96.872979 146.730988 
L 101.198561 146.78 
L 129.31484 146.733809 
L 130.396235 146.530421 
L 131.47763 145.726007 
L 132.559026 143.248238 
L 133.640421 137.30438 
L 134.721816 126.19979 
L 135.803212 110.042707 
L 136.884607 91.734333 
L 137.966002 75.57725 
L 139.047398 64.47266 
L 140.128793 58.528802 
L 141.210188 56.051033 
L 142.291584 55.246619 
L 143.372979 55.043231 
L 146.617165 54.99704 
L 174.733444 55.043231 
L 175.81484 55.246619 
L 176.896235 56.051033 
L 177.97763 58.528802 
L 179.059026 64.47266 
L 180.140421 75.57725 
L 181.221816 91.734333 
L 182.303212 110.042707 
L 183.384607 126.19979 
L 184.466002 137.30438 
L 185.547398 143.248238 
L 186.628793 145.726007 
L 187.710188 146.530421 
L 188.791584 146.733809 
L 192.03577 146.78 
L 220.152049 146.729722 
L 221.233444 146.508338 
L 222.31484 145.632748 
L 223.396235 142.93574 
L 224.47763 136.465954 
L 225.559026 124.378804 
L 226.640421 106.792104 
L 227.721816 86.863762 
L 228.803212 69.277063 
L 229.884607 57.189912 
L 230.966002 50.720127 
L 232.047398 48.023119 
L 233.128793 47.147529 
L 234.210188 46.926145 
L 237.454374 46.875867 
L 265.570654 46.926145 
L 266.652049 47.147529 
L 267.733444 48.023119 
L 268.81484 50.720127 
L 269.896235 57.189912 
L 270.97763 69.277063 
L 272.059026 86.863762 
L 273.140421 106.792104 
L 274.221816 124.378804 
L 275.303212 136.465954 
L 276.384607 142.93574 
L 277.466002 145.632748 
L 278.547398 146.508338 
L 279.628793 146.729722 
L 282.872979 146.78 
L 314.038095 146.78 
L 314.038095 146.78 
" style="fill:none;stroke:#c54102;stroke-linecap:square;stroke-width:2;"/>
   </g>
   <g id="line2d_42">
    <path clip-path="url(#pa5f538ed88)" d="M 0.628793 146.78 
L 41.721816 146.700947 
L 42.803212 146.567902 
L 44.966002 145.957688 
L 47.128793 145.186228 
L 48.210188 144.937668 
L 50.372979 144.749162 
L 57.942747 144.72557 
L 87.140421 144.804623 
L 88.221816 144.937668 
L 90.384607 145.547881 
L 92.547398 146.319341 
L 93.628793 146.567902 
L 95.791584 146.756408 
L 103.361351 146.78 
L 129.31484 146.757774 
L 130.396235 146.659909 
L 131.47763 146.272845 
L 132.559026 145.080603 
L 133.640421 142.220565 
L 134.721816 136.87731 
L 135.803212 129.10292 
L 136.884607 120.293382 
L 137.966002 112.518991 
L 139.047398 107.175736 
L 140.128793 104.315698 
L 141.210188 103.123457 
L 142.291584 102.736392 
L 144.454374 102.619257 
L 174.733444 102.638527 
L 175.81484 102.736392 
L 176.896235 103.123457 
L 177.97763 104.315698 
L 179.059026 107.175736 
L 180.140421 112.518991 
L 181.221816 120.293382 
L 182.303212 129.10292 
L 183.384607 136.87731 
L 184.466002 142.220565 
L 185.547398 145.080603 
L 186.628793 146.272845 
L 187.710188 146.659909 
L 189.872979 146.777045 
L 219.070654 146.773965 
L 220.152049 146.73461 
L 221.233444 146.534751 
L 222.31484 145.744292 
L 223.396235 143.309508 
L 224.47763 137.468765 
L 225.559026 126.556821 
L 226.640421 110.680035 
L 227.721816 92.68928 
L 228.803212 76.812494 
L 229.884607 65.900549 
L 230.966002 60.059806 
L 232.047398 57.625022 
L 233.128793 56.834564 
L 234.210188 56.634704 
L 237.454374 56.589315 
L 265.570654 56.634704 
L 266.652049 56.834564 
L 267.733444 57.625022 
L 268.81484 60.059806 
L 269.896235 65.900549 
L 270.97763 76.812494 
L 272.059026 92.68928 
L 273.140421 110.680035 
L 274.221816 126.556821 
L 275.303212 137.468765 
L 276.384607 143.309508 
L 277.466002 145.744292 
L 278.547398 146.534751 
L 279.628793 146.73461 
L 282.872979 146.78 
L 314.038095 146.78 
L 314.038095 146.78 
" style="fill:none;stroke:#157f3b;stroke-linecap:square;stroke-width:2;"/>
   </g>
  </g>
 </g>
 <defs>
  <clipPath id="pa5f538ed88">
   <rect height="138.6" width="279" x="23.338095" y="10.7"/>
  </clipPath>
 </defs>
</svg>
