<?xml version="1.0" encoding="utf-8" standalone="no"?>
<!DOCTYPE svg PUBLIC "-//W3C//DTD SVG 1.1//EN"
  "http://www.w3.org/Graphics/SVG/1.1/DTD/svg11.dtd">
<!-- Created with matplotlib (http://matplotlib.org/) -->
<svg height="165pt" version="1.1" viewBox="0 0 313 165" width="313pt" xmlns="http://www.w3.org/2000/svg" xmlns:xlink="http://www.w3.org/1999/xlink">
 <defs>
  <style type="text/css">
*{stroke-linecap:butt;stroke-linejoin:round;}
  </style>
 </defs>
 <g id="figure_1">
  <g id="patch_1">
   <path d="M 0 165.322293 
L 313.038095 165.322293 
L 313.038095 0 
L 0 0 
z
" style="fill:#ffffff;"/>
  </g>
  <g id="axes_1">
   <g id="patch_2">
    <path d="M 23.338095 149.3 
L 302.338095 149.3 
L 302.338095 10.7 
L 23.338095 10.7 
z
" style="fill:#ffffff;"/>
   </g>
   <g id="patch_3">
    <path clip-path="url(#p82e13b8f4c)" d="M 46.047398 149.3 
L 46.047398 10.7 
L 91.466002 10.7 
L 91.466002 149.3 
z
" style="fill:#fee7dc;stroke:#fee7dc;stroke-linejoin:miter;"/>
   </g>
   <g id="patch_4">
    <path clip-path="url(#p82e13b8f4c)" d="M 136.884607 149.3 
L 136.884607 10.7 
L 182.303212 10.7 
L 182.303212 149.3 
z
" style="fill:#fdd4c2;stroke:#fdd4c2;stroke-linejoin:miter;"/>
   </g>
   <g id="patch_5">
    <path clip-path="url(#p82e13b8f4c)" d="M 227.721816 149.3 
L 227.721816 10.7 
L 273.140421 10.7 
L 273.140421 149.3 
z
" style="fill:#fcbba1;stroke:#fcbba1;stroke-linejoin:miter;"/>
   </g>
   <g id="line2d_1">
    <path clip-path="url(#p82e13b8f4c)" d="M 0.628793 146.78 
L 40.640421 146.699273 
L 41.721816 146.509498 
L 42.803212 146.05425 
L 43.884607 145.203735 
L 47.128793 141.32649 
L 48.210188 140.475975 
L 49.291584 140.020727 
L 50.372979 139.830952 
L 53.617165 139.750695 
L 86.059026 139.830952 
L 87.140421 140.020727 
L 88.221816 140.475975 
L 89.303212 141.32649 
L 92.547398 145.203735 
L 93.628793 146.05425 
L 94.710188 146.509498 
L 95.791584 146.699273 
L 99.03577 146.77953 
L 129.31484 146.740893 
L 130.396235 146.568701 
L 131.47763 145.887664 
L 132.559026 143.789926 
L 133.640421 138.757712 
L 134.721816 129.356299 
L 135.803212 115.677323 
L 136.884607 100.177013 
L 137.966002 86.498038 
L 139.047398 77.096625 
L 140.128793 72.064411 
L 141.210188 69.966672 
L 142.291584 69.285636 
L 143.372979 69.113443 
L 147.698561 69.074336 
L 174.733444 69.113443 
L 175.81484 69.285636 
L 176.896235 69.966672 
L 177.97763 72.064411 
L 179.059026 77.096625 
L 180.140421 86.498038 
L 181.221816 100.177013 
L 182.303212 115.677323 
L 183.384607 129.356299 
L 184.466002 138.757712 
L 185.547398 143.789926 
L 186.628793 145.887664 
L 187.710188 146.568701 
L 188.791584 146.740893 
L 193.117165 146.78 
L 220.152049 146.730612 
L 221.233444 146.513147 
L 222.31484 145.653056 
L 223.396235 143.003791 
L 224.47763 136.648535 
L 225.559026 124.775352 
L 226.640421 107.499974 
L 227.721816 87.924405 
L 228.803212 70.649027 
L 229.884607 58.775844 
L 230.966002 52.420588 
L 232.047398 49.771323 
L 233.128793 48.911232 
L 234.210188 48.693767 
L 237.454374 48.644379 
L 265.570654 48.693767 
L 266.652049 48.911232 
L 267.733444 49.771323 
L 268.81484 52.420588 
L 269.896235 58.775844 
L 270.97763 70.649027 
L 272.059026 87.924405 
L 273.140421 107.499974 
L 274.221816 124.775352 
L 275.303212 136.648535 
L 276.384607 143.003791 
L 277.466002 145.653056 
L 278.547398 146.513147 
L 279.628793 146.730612 
L 282.872979 146.78 
L 314.038095 146.78 
L 314.038095 146.78 
" style="fill:none;stroke:#cccccc;stroke-linecap:square;stroke-width:1.75;"/>
   </g>
   <g id="line2d_2">
    <path clip-path="url(#p82e13b8f4c)" d="M 0.628793 146.78 
L 38.47763 146.75073 
L 39.559026 146.621848 
L 40.640421 146.112109 
L 41.721816 144.542002 
L 42.803212 140.775513 
L 43.884607 133.738784 
L 44.966002 123.500403 
L 46.047398 111.898799 
L 47.128793 101.660419 
L 48.210188 94.62369 
L 49.291584 90.8572 
L 50.372979 89.287094 
L 51.454374 88.777355 
L 53.617165 88.623094 
L 82.81484 88.623094 
L 84.97763 88.777355 
L 86.059026 89.287094 
L 87.140421 90.8572 
L 88.221816 94.62369 
L 89.303212 101.660419 
L 90.384607 111.898799 
L 91.466002 123.500403 
L 92.547398 133.738784 
L 93.628793 140.775513 
L 94.710188 144.542002 
L 95.791584 146.112109 
L 96.872979 146.621848 
L 99.03577 146.776108 
L 128.233444 146.773357 
L 129.31484 146.730041 
L 130.396235 146.510062 
L 131.47763 145.640029 
L 132.559026 142.960139 
L 133.640421 136.531416 
L 134.721816 124.52098 
L 135.803212 107.045899 
L 136.884607 87.244039 
L 137.966002 69.768958 
L 139.047398 57.758522 
L 140.128793 51.3298 
L 141.210188 48.649909 
L 142.291584 47.779876 
L 143.372979 47.559897 
L 146.617165 47.509938 
L 174.733444 47.559897 
L 175.81484 47.779876 
L 176.896235 48.649909 
L 177.97763 51.3298 
L 179.059026 57.758522 
L 180.140421 69.768958 
L 181.221816 87.244039 
L 182.303212 107.045899 
L 183.384607 124.52098 
L 184.466002 136.531416 
L 185.547398 142.960139 
L 186.628793 145.640029 
L 187.710188 146.510062 
L 188.791584 146.730041 
L 192.03577 146.78 
L 220.152049 146.729342 
L 221.233444 146.506287 
L 222.31484 145.624085 
L 223.396235 142.906714 
L 224.47763 136.388079 
L 225.559026 124.209666 
L 226.640421 106.49018 
L 227.721816 86.411371 
L 228.803212 68.691885 
L 229.884607 56.513472 
L 230.966002 49.994837 
L 232.047398 47.277466 
L 233.128793 46.395265 
L 234.210188 46.172209 
L 237.454374 46.121552 
L 265.570654 46.172209 
L 266.652049 46.395265 
L 267.733444 47.277466 
L 268.81484 49.994837 
L 269.896235 56.513472 
L 270.97763 68.691885 
L 272.059026 86.411371 
L 273.140421 106.49018 
L 274.221816 124.209666 
L 275.303212 136.388079 
L 276.384607 142.906714 
L 277.466002 145.624085 
L 278.547398 146.506287 
L 279.628793 146.729342 
L 282.872979 146.78 
L 314.038095 146.78 
L 314.038095 146.78 
" style="fill:none;stroke:#cccccc;stroke-linecap:square;stroke-width:1.75;"/>
   </g>
   <g id="line2d_3">
    <path clip-path="url(#p82e13b8f4c)" d="M 0.628793 146.78 
L 41.721816 146.712001 
L 43.884607 146.383757 
L 48.210188 145.195287 
L 50.372979 145.03314 
L 59.024142 145.012847 
L 87.140421 145.080846 
L 89.303212 145.40909 
L 93.628793 146.59756 
L 95.791584 146.759707 
L 104.442747 146.78 
L 130.396235 146.673193 
L 131.47763 146.328943 
L 132.559026 145.26858 
L 133.640421 142.7249 
L 134.721816 137.972681 
L 135.803212 131.058243 
L 136.884607 123.223158 
L 137.966002 116.30872 
L 139.047398 111.556501 
L 140.128793 109.012821 
L 141.210188 107.952458 
L 142.291584 107.608208 
L 144.454374 107.504029 
L 174.733444 107.521168 
L 175.81484 107.608208 
L 176.896235 107.952458 
L 177.97763 109.012821 
L 179.059026 111.556501 
L 180.140421 116.30872 
L 181.221816 123.223158 
L 182.303212 131.058243 
L 183.384607 137.972681 
L 184.466002 142.7249 
L 185.547398 145.26858 
L 186.628793 146.328943 
L 187.710188 146.673193 
L 189.872979 146.777372 
L 219.070654 146.774103 
L 220.152049 146.73565 
L 221.233444 146.54037 
L 222.31484 145.768023 
L 223.396235 143.389026 
L 224.47763 137.682109 
L 225.559026 127.020184 
L 226.640421 111.507175 
L 227.721816 93.928634 
L 228.803212 78.415625 
L 229.884607 67.7537 
L 230.966002 62.046783 
L 232.047398 59.667786 
L 233.128793 58.895439 
L 234.210188 58.700159 
L 238.53577 58.655809 
L 265.570654 58.700159 
L 266.652049 58.895439 
L 267.733444 59.667786 
L 268.81484 62.046783 
L 269.896235 67.7537 
L 270.97763 78.415625 
L 272.059026 93.928634 
L 273.140421 111.507175 
L 274.221816 127.020184 
L 275.303212 137.682109 
L 276.384607 143.389026 
L 277.466002 145.768023 
L 278.547398 146.54037 
L 279.628793 146.73565 
L 283.954374 146.78 
L 314.038095 146.78 
L 314.038095 146.78 
" style="fill:none;stroke:#cccccc;stroke-linecap:square;stroke-width:1.75;"/>
   </g>
   <g id="line2d_4">
    <path clip-path="url(#p82e13b8f4c)" d="M 0.628793 146.78 
L 41.721816 146.672753 
L 42.803212 146.49226 
L 43.884607 146.155054 
L 48.210188 144.280627 
L 50.372979 144.024893 
L 55.779956 143.992887 
L 87.140421 144.100134 
L 88.221816 144.280627 
L 89.303212 144.617833 
L 93.628793 146.49226 
L 95.791584 146.747994 
L 101.198561 146.78 
L 129.31484 146.752932 
L 130.396235 146.633748 
L 131.47763 146.162367 
L 132.559026 144.710409 
L 133.640421 141.227344 
L 134.721816 134.720121 
L 135.803212 125.252168 
L 136.884607 114.523571 
L 137.966002 105.055618 
L 139.047398 98.548395 
L 140.128793 95.065329 
L 141.210188 93.613372 
L 142.291584 93.14199 
L 144.454374 92.999337 
L 173.652049 92.999337 
L 175.81484 93.14199 
L 176.896235 93.613372 
L 177.97763 95.065329 
L 179.059026 98.548395 
L 180.140421 105.055618 
L 181.221816 114.523571 
L 182.303212 125.252168 
L 183.384607 134.720121 
L 184.466002 141.227344 
L 185.547398 144.710409 
L 186.628793 146.162367 
L 187.710188 146.633748 
L 189.872979 146.776401 
L 219.070654 146.773755 
L 220.152049 146.733031 
L 221.233444 146.526216 
L 222.31484 145.70825 
L 223.396235 143.188738 
L 224.47763 137.144741 
L 225.559026 125.853068 
L 226.640421 109.423781 
L 227.721816 90.80696 
L 228.803212 74.377673 
L 229.884607 63.086 
L 230.966002 57.042004 
L 232.047398 54.522491 
L 233.128793 53.704525 
L 234.210188 53.497711 
L 237.454374 53.450741 
L 265.570654 53.497711 
L 266.652049 53.704525 
L 267.733444 54.522491 
L 268.81484 57.042004 
L 269.896235 63.086 
L 270.97763 74.377673 
L 272.059026 90.80696 
L 273.140421 109.423781 
L 274.221816 125.853068 
L 275.303212 137.144741 
L 276.384607 143.188738 
L 277.466002 145.70825 
L 278.547398 146.526216 
L 279.628793 146.733031 
L 282.872979 146.78 
L 314.038095 146.78 
L 314.038095 146.78 
" style="fill:none;stroke:#cccccc;stroke-linecap:square;stroke-width:1.75;"/>
   </g>
   <g id="line2d_5">
    <path clip-path="url(#p82e13b8f4c)" d="M 0.628793 146.78 
L 40.640421 146.728699 
L 41.721816 146.608099 
L 42.803212 146.318795 
L 43.884607 145.778304 
L 47.128793 143.314363 
L 48.210188 142.773871 
L 49.291584 142.484567 
L 51.454374 142.324814 
L 64.431119 142.312666 
L 86.059026 142.363967 
L 87.140421 142.484567 
L 88.221816 142.773871 
L 89.303212 143.314363 
L 92.547398 145.778304 
L 93.628793 146.318795 
L 94.710188 146.608099 
L 96.872979 146.767852 
L 109.849723 146.78 
L 129.31484 146.74618 
L 130.396235 146.597266 
L 131.47763 146.0083 
L 132.559026 144.194157 
L 133.640421 139.842253 
L 134.721816 131.711827 
L 135.803212 119.882126 
L 136.884607 106.477319 
L 137.966002 94.647618 
L 139.047398 86.517191 
L 140.128793 82.165288 
L 141.210188 80.351144 
L 142.291584 79.762178 
L 143.372979 79.613264 
L 147.698561 79.579444 
L 174.733444 79.613264 
L 175.81484 79.762178 
L 176.896235 80.351144 
L 177.97763 82.165288 
L 179.059026 86.517191 
L 180.140421 94.647618 
L 181.221816 106.477319 
L 182.303212 119.882126 
L 183.384607 131.711827 
L 184.466002 139.842253 
L 185.547398 144.194157 
L 186.628793 146.0083 
L 187.710188 146.597266 
L 188.791584 146.74618 
L 193.117165 146.78 
L 220.152049 146.731488 
L 221.233444 146.517884 
L 222.31484 145.673062 
L 223.396235 143.070825 
L 224.47763 136.828386 
L 225.559026 125.165973 
L 226.640421 108.197262 
L 227.721816 88.969194 
L 228.803212 72.000483 
L 229.884607 60.33807 
L 230.966002 54.09563 
L 232.047398 51.493394 
L 233.128793 50.648572 
L 234.210188 50.434967 
L 237.454374 50.386456 
L 265.570654 50.434967 
L 266.652049 50.648572 
L 267.733444 51.493394 
L 268.81484 54.09563 
L 269.896235 60.33807 
L 270.97763 72.000483 
L 272.059026 88.969194 
L 273.140421 108.197262 
L 274.221816 125.165973 
L 275.303212 136.828386 
L 276.384607 143.070825 
L 277.466002 145.673062 
L 278.547398 146.517884 
L 279.628793 146.731488 
L 282.872979 146.78 
L 314.038095 146.78 
L 314.038095 146.78 
" style="fill:none;stroke:#cccccc;stroke-linecap:square;stroke-width:1.75;"/>
   </g>
   <g id="line2d_6">
    <path clip-path="url(#p82e13b8f4c)" d="M 0.628793 146.78 
L 41.721816 146.709722 
L 43.884607 146.370478 
L 48.210188 145.142181 
L 50.372979 144.974601 
L 59.024142 144.953627 
L 87.140421 145.023905 
L 89.303212 145.363149 
L 93.628793 146.591446 
L 95.791584 146.759027 
L 104.442747 146.78 
L 130.396235 146.670277 
L 131.47763 146.316629 
L 132.559026 145.227317 
L 133.640421 142.614193 
L 134.721816 137.732234 
L 135.803212 130.629027 
L 136.884607 122.580038 
L 137.966002 115.476831 
L 139.047398 110.594873 
L 140.128793 107.981749 
L 141.210188 106.892437 
L 142.291584 106.538789 
L 144.454374 106.431765 
L 174.733444 106.449373 
L 175.81484 106.538789 
L 176.896235 106.892437 
L 177.97763 107.981749 
L 179.059026 110.594873 
L 180.140421 115.476831 
L 181.221816 122.580038 
L 182.303212 130.629027 
L 183.384607 137.732234 
L 184.466002 142.614193 
L 185.547398 145.227317 
L 186.628793 146.316629 
L 187.710188 146.670277 
L 189.872979 146.7773 
L 219.070654 146.77407 
L 220.152049 146.735404 
L 221.233444 146.539043 
L 222.31484 145.762416 
L 223.396235 143.370239 
L 224.47763 137.631704 
L 225.559026 126.910709 
L 226.640421 111.311754 
L 227.721816 93.635822 
L 228.803212 78.036867 
L 229.884607 67.315872 
L 230.966002 61.577337 
L 232.047398 59.18516 
L 233.128793 58.408534 
L 234.210188 58.212172 
L 238.53577 58.167576 
L 265.570654 58.212172 
L 266.652049 58.408534 
L 267.733444 59.18516 
L 268.81484 61.577337 
L 269.896235 67.315872 
L 270.97763 78.036867 
L 272.059026 93.635822 
L 273.140421 111.311754 
L 274.221816 126.910709 
L 275.303212 137.631704 
L 276.384607 143.370239 
L 277.466002 145.762416 
L 278.547398 146.539043 
L 279.628793 146.735404 
L 283.954374 146.78 
L 314.038095 146.78 
L 314.038095 146.78 
" style="fill:none;stroke:#cccccc;stroke-linecap:square;stroke-width:1.75;"/>
   </g>
   <g id="line2d_7">
    <path clip-path="url(#p82e13b8f4c)" d="M 0.628793 146.78 
L 41.721816 146.706491 
L 43.884607 146.351647 
L 48.210188 145.06687 
L 50.372979 144.891584 
L 57.942747 144.869646 
L 87.140421 144.943155 
L 89.303212 145.297999 
L 93.628793 146.582776 
L 95.791584 146.758062 
L 103.361351 146.78 
L 129.31484 146.758958 
L 130.396235 146.666306 
L 131.47763 146.29986 
L 132.559026 145.171128 
L 133.640421 142.46344 
L 134.721816 137.404812 
L 135.803212 130.044553 
L 136.884607 121.704286 
L 137.966002 114.344027 
L 139.047398 109.285399 
L 140.128793 106.577711 
L 141.210188 105.448979 
L 142.291584 105.082533 
L 144.454374 104.971637 
L 174.733444 104.989881 
L 175.81484 105.082533 
L 176.896235 105.448979 
L 177.97763 106.577711 
L 179.059026 109.285399 
L 180.140421 114.344027 
L 181.221816 121.704286 
L 182.303212 130.044553 
L 183.384607 137.404812 
L 184.466002 142.46344 
L 185.547398 145.171128 
L 186.628793 146.29986 
L 187.710188 146.666306 
L 189.872979 146.777202 
L 219.070654 146.774028 
L 220.152049 146.735086 
L 221.233444 146.537324 
L 222.31484 145.755158 
L 223.396235 143.345916 
L 224.47763 137.566447 
L 225.559026 126.768976 
L 226.640421 111.058749 
L 227.721816 93.256729 
L 228.803212 77.546502 
L 229.884607 66.749031 
L 230.966002 60.969561 
L 232.047398 58.56032 
L 233.128793 57.778154 
L 234.210188 57.580391 
L 238.53577 57.535478 
L 265.570654 57.580391 
L 266.652049 57.778154 
L 267.733444 58.56032 
L 268.81484 60.969561 
L 269.896235 66.749031 
L 270.97763 77.546502 
L 272.059026 93.256729 
L 273.140421 111.058749 
L 274.221816 126.768976 
L 275.303212 137.566447 
L 276.384607 143.345916 
L 277.466002 145.755158 
L 278.547398 146.537324 
L 279.628793 146.735086 
L 283.954374 146.78 
L 314.038095 146.78 
L 314.038095 146.78 
" style="fill:none;stroke:#cccccc;stroke-linecap:square;stroke-width:1.75;"/>
   </g>
   <g id="line2d_8">
    <path clip-path="url(#p82e13b8f4c)" d="M 0.628793 146.78 
L 41.721816 146.736755 
L 43.884607 146.528001 
L 48.210188 145.772171 
L 51.454374 145.6592 
L 86.059026 145.66905 
L 88.221816 145.772171 
L 90.384607 146.105982 
L 92.547398 146.528001 
L 94.710188 146.736755 
L 100.117165 146.78 
L 130.396235 146.712777 
L 131.47763 146.496111 
L 132.559026 145.828733 
L 133.640421 144.227775 
L 134.721816 141.236793 
L 135.803212 136.88494 
L 136.884607 131.953644 
L 137.966002 127.601791 
L 139.047398 124.610809 
L 140.128793 123.009852 
L 141.210188 122.342473 
L 142.291584 122.125807 
L 145.53577 122.058584 
L 175.81484 122.125807 
L 176.896235 122.342473 
L 177.97763 123.009852 
L 179.059026 124.610809 
L 180.140421 127.601791 
L 181.221816 131.953644 
L 182.303212 136.88494 
L 183.384607 141.236793 
L 184.466002 144.227775 
L 185.547398 145.828733 
L 186.628793 146.496111 
L 187.710188 146.712777 
L 190.954374 146.78 
L 220.152049 146.740504 
L 221.233444 146.566596 
L 222.31484 145.878778 
L 223.396235 143.760147 
L 224.47763 138.677817 
L 225.559026 129.182774 
L 226.640421 115.367569 
L 227.721816 99.71289 
L 228.803212 85.897684 
L 229.884607 76.402641 
L 230.966002 71.320311 
L 232.047398 69.201681 
L 233.128793 68.513862 
L 234.210188 68.339954 
L 238.53577 68.300458 
L 265.570654 68.339954 
L 266.652049 68.513862 
L 267.733444 69.201681 
L 268.81484 71.320311 
L 269.896235 76.402641 
L 270.97763 85.897684 
L 272.059026 99.71289 
L 273.140421 115.367569 
L 274.221816 129.182774 
L 275.303212 138.677817 
L 276.384607 143.760147 
L 277.466002 145.878778 
L 278.547398 146.566596 
L 279.628793 146.740504 
L 283.954374 146.78 
L 314.038095 146.78 
L 314.038095 146.78 
" style="fill:none;stroke:#cccccc;stroke-linecap:square;stroke-width:1.75;"/>
   </g>
   <g id="line2d_9">
    <path clip-path="url(#p82e13b8f4c)" d="M 0.628793 146.78 
L 41.721816 146.71373 
L 43.884607 146.393834 
L 48.210188 145.235589 
L 50.372979 145.077566 
L 59.024142 145.057789 
L 87.140421 145.124059 
L 89.303212 145.443955 
L 93.628793 146.6022 
L 95.791584 146.760223 
L 104.442747 146.78 
L 130.396235 146.675473 
L 131.47763 146.338573 
L 132.559026 145.30085 
L 133.640421 142.811481 
L 134.721816 138.160726 
L 135.803212 131.393919 
L 136.884607 123.726122 
L 137.966002 116.959314 
L 139.047398 112.30856 
L 140.128793 109.819191 
L 141.210188 108.781467 
L 142.291584 108.444568 
L 144.454374 108.342613 
L 174.733444 108.359386 
L 175.81484 108.444568 
L 176.896235 108.781467 
L 177.97763 109.819191 
L 179.059026 112.30856 
L 180.140421 116.959314 
L 181.221816 123.726122 
L 182.303212 131.393919 
L 183.384607 138.160726 
L 184.466002 142.811481 
L 185.547398 145.30085 
L 186.628793 146.338573 
L 187.710188 146.675473 
L 189.872979 146.777428 
L 219.070654 146.77413 
L 220.152049 146.73585 
L 221.233444 146.54145 
L 222.31484 145.772582 
L 223.396235 143.404303 
L 224.47763 137.723097 
L 225.559026 127.109206 
L 226.640421 111.666086 
L 227.721816 94.166738 
L 228.803212 78.723618 
L 229.884607 68.109727 
L 230.966002 62.428521 
L 232.047398 60.060242 
L 233.128793 59.291374 
L 234.210188 59.096974 
L 238.53577 59.052824 
L 265.570654 59.096974 
L 266.652049 59.291374 
L 267.733444 60.060242 
L 268.81484 62.428521 
L 269.896235 68.109727 
L 270.97763 78.723618 
L 272.059026 94.166738 
L 273.140421 111.666086 
L 274.221816 127.109206 
L 275.303212 137.723097 
L 276.384607 143.404303 
L 277.466002 145.772582 
L 278.547398 146.54145 
L 279.628793 146.73585 
L 283.954374 146.78 
L 314.038095 146.78 
L 314.038095 146.78 
" style="fill:none;stroke:#cccccc;stroke-linecap:square;stroke-width:1.75;"/>
   </g>
   <g id="line2d_10">
    <path clip-path="url(#p82e13b8f4c)" d="M 0.628793 146.78 
L 40.640421 146.675535 
L 41.721816 146.429955 
L 42.803212 145.84084 
L 43.884607 144.740226 
L 44.966002 143.138844 
L 47.128793 139.722857 
L 48.210188 138.622244 
L 49.291584 138.033128 
L 50.372979 137.787548 
L 52.53577 137.687661 
L 82.81484 137.683692 
L 86.059026 137.787548 
L 87.140421 138.033128 
L 88.221816 138.622244 
L 89.303212 139.722857 
L 90.384607 141.324239 
L 92.547398 144.740226 
L 93.628793 145.84084 
L 94.710188 146.429955 
L 95.791584 146.675535 
L 97.954374 146.775422 
L 127.152049 146.78 
L 129.31484 146.738459 
L 130.396235 146.555547 
L 131.47763 145.832115 
L 132.559026 143.603788 
L 133.640421 138.25831 
L 134.721816 128.271642 
L 135.803212 113.741127 
L 136.884607 97.275895 
L 137.966002 82.745379 
L 139.047398 72.758712 
L 140.128793 67.413234 
L 141.210188 65.184907 
L 142.291584 64.461475 
L 143.372979 64.278563 
L 147.698561 64.237022 
L 174.733444 64.278563 
L 175.81484 64.461475 
L 176.896235 65.184907 
L 177.97763 67.413234 
L 179.059026 72.758712 
L 180.140421 82.745379 
L 181.221816 97.275895 
L 182.303212 113.741127 
L 183.384607 128.271642 
L 184.466002 138.25831 
L 185.547398 143.603788 
L 186.628793 145.832115 
L 187.710188 146.555547 
L 188.791584 146.738459 
L 193.117165 146.78 
L 220.152049 146.730275 
L 221.233444 146.511329 
L 222.31484 145.645378 
L 223.396235 142.978063 
L 224.47763 136.579505 
L 225.559026 124.625426 
L 226.640421 107.232344 
L 227.721816 87.5234 
L 228.803212 70.130318 
L 229.884607 58.176239 
L 230.966002 51.777682 
L 232.047398 49.110366 
L 233.128793 48.244416 
L 234.210188 48.025469 
L 237.454374 47.975744 
L 265.570654 48.025469 
L 266.652049 48.244416 
L 267.733444 49.110366 
L 268.81484 51.777682 
L 269.896235 58.176239 
L 270.97763 70.130318 
L 272.059026 87.5234 
L 273.140421 107.232344 
L 274.221816 124.625426 
L 275.303212 136.579505 
L 276.384607 142.978063 
L 277.466002 145.645378 
L 278.547398 146.511329 
L 279.628793 146.730275 
L 282.872979 146.78 
L 314.038095 146.78 
L 314.038095 146.78 
" style="fill:none;stroke:#cccccc;stroke-linecap:square;stroke-width:1.75;"/>
   </g>
   <g id="line2d_11">
    <path clip-path="url(#p82e13b8f4c)" d="M 0.628793 146.78 
L 41.721816 146.728314 
L 43.884607 146.478816 
L 48.210188 145.575463 
L 50.372979 145.452216 
L 61.186933 145.436791 
L 87.140421 145.488477 
L 89.303212 145.737975 
L 93.628793 146.641328 
L 95.791584 146.764575 
L 106.605537 146.78 
L 130.396235 146.697393 
L 131.47763 146.431142 
L 132.559026 145.611032 
L 133.640421 143.643691 
L 134.721816 139.968214 
L 135.803212 134.620426 
L 136.884607 128.560589 
L 137.966002 123.212801 
L 139.047398 119.537324 
L 140.128793 117.569983 
L 141.210188 116.749873 
L 142.291584 116.483622 
L 144.454374 116.403047 
L 174.733444 116.416303 
L 175.81484 116.483622 
L 176.896235 116.749873 
L 177.97763 117.569983 
L 179.059026 119.537324 
L 180.140421 123.212801 
L 181.221816 128.560589 
L 182.303212 134.620426 
L 183.384607 139.968214 
L 184.466002 143.643691 
L 185.547398 145.611032 
L 186.628793 146.431142 
L 187.710188 146.697393 
L 189.872979 146.777967 
L 220.152049 146.738198 
L 221.233444 146.554136 
L 222.31484 145.826155 
L 223.396235 143.583819 
L 224.47763 138.204732 
L 225.559026 128.155276 
L 226.640421 113.533404 
L 227.721816 96.964652 
L 228.803212 82.342779 
L 229.884607 72.293323 
L 230.966002 66.914237 
L 232.047398 64.6719 
L 233.128793 63.94392 
L 234.210188 63.759858 
L 238.53577 63.718056 
L 265.570654 63.759858 
L 266.652049 63.94392 
L 267.733444 64.6719 
L 268.81484 66.914237 
L 269.896235 72.293323 
L 270.97763 82.342779 
L 272.059026 96.964652 
L 273.140421 113.533404 
L 274.221816 128.155276 
L 275.303212 138.204732 
L 276.384607 143.583819 
L 277.466002 145.826155 
L 278.547398 146.554136 
L 279.628793 146.738198 
L 283.954374 146.78 
L 314.038095 146.78 
L 314.038095 146.78 
" style="fill:none;stroke:#cccccc;stroke-linecap:square;stroke-width:1.75;"/>
   </g>
   <g id="line2d_12">
    <path clip-path="url(#p82e13b8f4c)" d="M 0.628793 146.78 
L 40.640421 146.701504 
L 41.721816 146.516972 
L 42.803212 146.074304 
L 43.884607 145.247291 
L 47.128793 141.477183 
L 48.210188 140.650169 
L 49.291584 140.207501 
L 50.372979 140.022969 
L 53.617165 139.944931 
L 86.059026 140.022969 
L 87.140421 140.207501 
L 88.221816 140.650169 
L 89.303212 141.477183 
L 92.547398 145.247291 
L 93.628793 146.074304 
L 94.710188 146.516972 
L 95.791584 146.701504 
L 99.03577 146.779543 
L 129.31484 146.741183 
L 130.396235 146.570264 
L 131.47763 145.894269 
L 132.559026 143.812057 
L 133.640421 138.817089 
L 134.721816 129.48526 
L 135.803212 115.907529 
L 136.884607 100.521944 
L 137.966002 86.944213 
L 139.047398 77.612384 
L 140.128793 72.617416 
L 141.210188 70.535204 
L 142.291584 69.859208 
L 143.372979 69.68829 
L 147.698561 69.649473 
L 174.733444 69.68829 
L 175.81484 69.859208 
L 176.896235 70.535204 
L 177.97763 72.617416 
L 179.059026 77.612384 
L 180.140421 86.944213 
L 181.221816 100.521944 
L 182.303212 115.907529 
L 183.384607 129.48526 
L 184.466002 138.817089 
L 185.547398 143.812057 
L 186.628793 145.894269 
L 187.710188 146.570264 
L 188.791584 146.741183 
L 193.117165 146.78 
L 220.152049 146.730654 
L 221.233444 146.513376 
L 222.31484 145.654026 
L 223.396235 143.007041 
L 224.47763 136.657254 
L 225.559026 124.79429 
L 226.640421 107.533779 
L 227.721816 87.975058 
L 228.803212 70.714547 
L 229.884607 58.851583 
L 230.966002 52.501796 
L 232.047398 49.854811 
L 233.128793 48.99546 
L 234.210188 48.778183 
L 237.454374 48.728837 
L 265.570654 48.778183 
L 266.652049 48.99546 
L 267.733444 49.854811 
L 268.81484 52.501796 
L 269.896235 58.851583 
L 270.97763 70.714547 
L 272.059026 87.975058 
L 273.140421 107.533779 
L 274.221816 124.79429 
L 275.303212 136.657254 
L 276.384607 143.007041 
L 277.466002 145.654026 
L 278.547398 146.513376 
L 279.628793 146.730654 
L 282.872979 146.78 
L 314.038095 146.78 
L 314.038095 146.78 
" style="fill:none;stroke:#cccccc;stroke-linecap:square;stroke-width:1.75;"/>
   </g>
   <g id="line2d_13">
    <path clip-path="url(#p82e13b8f4c)" d="M 0.628793 146.78 
L 39.559026 146.702077 
L 40.640421 146.450923 
L 41.721816 145.677315 
L 42.803212 143.821526 
L 43.884607 140.354455 
L 44.966002 135.309897 
L 46.047398 129.593665 
L 47.128793 124.549107 
L 48.210188 121.082036 
L 49.291584 119.226247 
L 50.372979 118.452639 
L 51.454374 118.201485 
L 53.617165 118.12548 
L 83.896235 118.137984 
L 84.97763 118.201485 
L 86.059026 118.452639 
L 87.140421 119.226247 
L 88.221816 121.082036 
L 89.303212 124.549107 
L 90.384607 129.593665 
L 91.466002 135.309897 
L 92.547398 140.354455 
L 93.628793 143.821526 
L 94.710188 145.677315 
L 95.791584 146.450923 
L 96.872979 146.702077 
L 99.03577 146.778082 
L 129.31484 146.73184 
L 130.396235 146.519784 
L 131.47763 145.681087 
L 132.559026 143.097719 
L 133.640421 136.90054 
L 134.721816 125.322686 
L 135.803212 108.477008 
L 136.884607 89.388353 
L 137.966002 72.542675 
L 139.047398 60.964821 
L 140.128793 54.767642 
L 141.210188 52.184273 
L 142.291584 51.345576 
L 143.372979 51.133521 
L 146.617165 51.085361 
L 174.733444 51.133521 
L 175.81484 51.345576 
L 176.896235 52.184273 
L 177.97763 54.767642 
L 179.059026 60.964821 
L 180.140421 72.542675 
L 181.221816 89.388353 
L 182.303212 108.477008 
L 183.384607 125.322686 
L 184.466002 136.90054 
L 185.547398 143.097719 
L 186.628793 145.681087 
L 187.710188 146.519784 
L 188.791584 146.73184 
L 192.03577 146.78 
L 220.152049 146.729517 
L 221.233444 146.50723 
L 222.31484 145.628068 
L 223.396235 142.92006 
L 224.47763 136.423887 
L 225.559026 124.287437 
L 226.640421 106.629007 
L 227.721816 86.619384 
L 228.803212 68.960953 
L 229.884607 56.824504 
L 230.966002 50.32833 
L 232.047398 47.620322 
L 233.128793 46.741161 
L 234.210188 46.518874 
L 237.454374 46.46839 
L 265.570654 46.518874 
L 266.652049 46.741161 
L 267.733444 47.620322 
L 268.81484 50.32833 
L 269.896235 56.824504 
L 270.97763 68.960953 
L 272.059026 86.619384 
L 273.140421 106.629007 
L 274.221816 124.287437 
L 275.303212 136.423887 
L 276.384607 142.92006 
L 277.466002 145.628068 
L 278.547398 146.50723 
L 279.628793 146.729517 
L 282.872979 146.78 
L 314.038095 146.78 
L 314.038095 146.78 
" style="fill:none;stroke:#cccccc;stroke-linecap:square;stroke-width:1.75;"/>
   </g>
   <g id="line2d_14">
    <path clip-path="url(#p82e13b8f4c)" d="M 0.628793 146.78 
L 40.640421 146.671656 
L 41.721816 146.416955 
L 42.803212 145.805961 
L 43.884607 144.664473 
L 44.966002 143.003619 
L 47.128793 139.460769 
L 48.210188 138.319281 
L 49.291584 137.708287 
L 50.372979 137.453586 
L 52.53577 137.34999 
L 81.733444 137.345242 
L 86.059026 137.453586 
L 87.140421 137.708287 
L 88.221816 138.319281 
L 89.303212 139.460769 
L 90.384607 141.121624 
L 92.547398 144.664473 
L 93.628793 145.805961 
L 94.710188 146.416955 
L 95.791584 146.671656 
L 97.954374 146.775252 
L 127.152049 146.78 
L 129.31484 146.738147 
L 130.396235 146.553862 
L 131.47763 145.824999 
L 132.559026 143.579944 
L 133.640421 138.194336 
L 134.721816 128.132696 
L 135.803212 113.493097 
L 136.884607 96.904258 
L 137.966002 82.264658 
L 139.047398 72.203019 
L 140.128793 66.817411 
L 141.210188 64.572356 
L 142.291584 63.843493 
L 143.372979 63.659208 
L 147.698561 63.617355 
L 174.733444 63.659208 
L 175.81484 63.843493 
L 176.896235 64.572356 
L 177.97763 66.817411 
L 179.059026 72.203019 
L 180.140421 82.264658 
L 181.221816 96.904258 
L 182.303212 113.493097 
L 183.384607 128.132696 
L 184.466002 138.194336 
L 185.547398 143.579944 
L 186.628793 145.824999 
L 187.710188 146.553862 
L 188.791584 146.738147 
L 193.117165 146.78 
L 220.152049 146.730235 
L 221.233444 146.511109 
L 222.31484 145.644452 
L 223.396235 142.974961 
L 224.47763 136.571183 
L 225.559026 124.60735 
L 226.640421 107.200077 
L 227.721816 87.475052 
L 228.803212 70.067779 
L 229.884607 58.103947 
L 230.966002 51.700169 
L 232.047398 49.030677 
L 233.128793 48.16402 
L 234.210188 47.944895 
L 237.454374 47.895129 
L 265.570654 47.944895 
L 266.652049 48.16402 
L 267.733444 49.030677 
L 268.81484 51.700169 
L 269.896235 58.103947 
L 270.97763 70.067779 
L 272.059026 87.475052 
L 273.140421 107.200077 
L 274.221816 124.60735 
L 275.303212 136.571183 
L 276.384607 142.974961 
L 277.466002 145.644452 
L 278.547398 146.511109 
L 279.628793 146.730235 
L 282.872979 146.78 
L 314.038095 146.78 
L 314.038095 146.78 
" style="fill:none;stroke:#cccccc;stroke-linecap:square;stroke-width:1.75;"/>
   </g>
   <g id="line2d_15">
    <path clip-path="url(#p82e13b8f4c)" d="M 0.628793 146.78 
L 41.721816 146.692287 
L 42.803212 146.544668 
L 43.884607 146.268879 
L 48.210188 144.735852 
L 50.372979 144.526696 
L 56.861351 144.500519 
L 87.140421 144.588233 
L 88.221816 144.735852 
L 89.303212 145.01164 
L 93.628793 146.544668 
L 95.791584 146.753824 
L 102.279956 146.78 
L 129.31484 146.756097 
L 130.396235 146.650846 
L 131.47763 146.23457 
L 132.559026 144.952352 
L 133.640421 141.876471 
L 134.721816 136.129968 
L 135.803212 127.768855 
L 136.884607 118.294473 
L 137.966002 109.93336 
L 139.047398 104.186857 
L 140.128793 101.110976 
L 141.210188 99.828758 
L 142.291584 99.412482 
L 144.454374 99.286506 
L 174.733444 99.307231 
L 175.81484 99.412482 
L 176.896235 99.828758 
L 177.97763 101.110976 
L 179.059026 104.186857 
L 180.140421 109.93336 
L 181.221816 118.294473 
L 182.303212 127.768855 
L 183.384607 136.129968 
L 184.466002 141.876471 
L 185.547398 144.952352 
L 186.628793 146.23457 
L 187.710188 146.650846 
L 189.872979 146.776822 
L 219.070654 146.773884 
L 220.152049 146.734003 
L 221.233444 146.531469 
L 222.31484 145.730431 
L 223.396235 143.263062 
L 224.47763 137.344151 
L 225.559026 126.28617 
L 226.640421 110.196902 
L 227.721816 91.965372 
L 228.803212 75.876104 
L 229.884607 64.818123 
L 230.966002 58.899212 
L 232.047398 56.431843 
L 233.128793 55.630805 
L 234.210188 55.428271 
L 237.454374 55.382274 
L 265.570654 55.428271 
L 266.652049 55.630805 
L 267.733444 56.431843 
L 268.81484 58.899212 
L 269.896235 64.818123 
L 270.97763 75.876104 
L 272.059026 91.965372 
L 273.140421 110.196902 
L 274.221816 126.28617 
L 275.303212 137.344151 
L 276.384607 143.263062 
L 277.466002 145.730431 
L 278.547398 146.531469 
L 279.628793 146.734003 
L 282.872979 146.78 
L 314.038095 146.78 
L 314.038095 146.78 
" style="fill:none;stroke:#cccccc;stroke-linecap:square;stroke-width:1.75;"/>
   </g>
   <g id="line2d_16">
    <path clip-path="url(#p82e13b8f4c)" d="M 0.628793 146.78 
L 41.721816 146.721708 
L 43.884607 146.44032 
L 48.210188 145.421505 
L 50.372979 145.282504 
L 60.105537 145.265108 
L 87.140421 145.3234 
L 89.303212 145.604788 
L 93.628793 146.623603 
L 95.791584 146.762604 
L 105.524142 146.78 
L 130.396235 146.686821 
L 131.47763 146.386497 
L 132.559026 145.461434 
L 133.640421 143.242322 
L 134.721816 139.096476 
L 135.803212 133.064306 
L 136.884607 126.228961 
L 137.966002 120.196791 
L 139.047398 116.050945 
L 140.128793 113.831833 
L 141.210188 112.90677 
L 142.291584 112.606446 
L 144.454374 112.51556 
L 174.733444 112.530512 
L 175.81484 112.606446 
L 176.896235 112.90677 
L 177.97763 113.831833 
L 179.059026 116.050945 
L 180.140421 120.196791 
L 181.221816 126.228961 
L 182.303212 133.064306 
L 183.384607 139.096476 
L 184.466002 143.242322 
L 185.547398 145.461434 
L 186.628793 146.386497 
L 187.710188 146.686821 
L 189.872979 146.777707 
L 220.152049 146.736958 
L 221.233444 146.547435 
L 222.31484 145.79786 
L 223.396235 143.489006 
L 224.47763 137.950353 
L 225.559026 127.602786 
L 226.640421 112.547165 
L 227.721816 95.486912 
L 228.803212 80.431291 
L 229.884607 70.083724 
L 230.966002 64.545071 
L 232.047398 62.236217 
L 233.128793 61.486642 
L 234.210188 61.297119 
L 238.53577 61.254077 
L 265.570654 61.297119 
L 266.652049 61.486642 
L 267.733444 62.236217 
L 268.81484 64.545071 
L 269.896235 70.083724 
L 270.97763 80.431291 
L 272.059026 95.486912 
L 273.140421 112.547165 
L 274.221816 127.602786 
L 275.303212 137.950353 
L 276.384607 143.489006 
L 277.466002 145.79786 
L 278.547398 146.547435 
L 279.628793 146.736958 
L 283.954374 146.78 
L 314.038095 146.78 
L 314.038095 146.78 
" style="fill:none;stroke:#cccccc;stroke-linecap:square;stroke-width:1.75;"/>
   </g>
   <g id="line2d_17">
    <path clip-path="url(#p82e13b8f4c)" d="M 0.628793 146.78 
L 41.721816 146.723123 
L 43.884607 146.448568 
L 48.210188 145.454489 
L 50.372979 145.318864 
L 60.105537 145.30189 
L 87.140421 145.358767 
L 89.303212 145.633322 
L 93.628793 146.627401 
L 95.791584 146.763026 
L 105.524142 146.78 
L 130.396235 146.688989 
L 131.47763 146.395654 
L 132.559026 145.492119 
L 133.640421 143.324651 
L 134.721816 139.275286 
L 135.803212 133.383496 
L 136.884607 126.707223 
L 137.966002 120.815433 
L 139.047398 116.766068 
L 140.128793 114.5986 
L 141.210188 113.695064 
L 142.291584 113.401729 
L 144.454374 113.312959 
L 174.733444 113.327563 
L 175.81484 113.401729 
L 176.896235 113.695064 
L 177.97763 114.5986 
L 179.059026 116.766068 
L 180.140421 120.815433 
L 181.221816 126.707223 
L 182.303212 133.383496 
L 183.384607 139.275286 
L 184.466002 143.324651 
L 185.547398 145.492119 
L 186.628793 146.395654 
L 187.710188 146.688989 
L 189.872979 146.77776 
L 220.152049 146.737194 
L 221.233444 146.548711 
L 222.31484 145.803248 
L 223.396235 143.507059 
L 224.47763 137.998788 
L 225.559026 127.707984 
L 226.640421 112.734952 
L 227.721816 95.768284 
L 228.803212 80.795252 
L 229.884607 70.504448 
L 230.966002 64.996178 
L 232.047398 62.699989 
L 233.128793 61.954525 
L 234.210188 61.766043 
L 238.53577 61.723237 
L 265.570654 61.766043 
L 266.652049 61.954525 
L 267.733444 62.699989 
L 268.81484 64.996178 
L 269.896235 70.504448 
L 270.97763 80.795252 
L 272.059026 95.768284 
L 273.140421 112.734952 
L 274.221816 127.707984 
L 275.303212 137.998788 
L 276.384607 143.507059 
L 277.466002 145.803248 
L 278.547398 146.548711 
L 279.628793 146.737194 
L 283.954374 146.78 
L 314.038095 146.78 
L 314.038095 146.78 
" style="fill:none;stroke:#cccccc;stroke-linecap:square;stroke-width:1.75;"/>
   </g>
   <g id="line2d_18">
    <path clip-path="url(#p82e13b8f4c)" d="M 0.628793 146.78 
L 40.640421 146.718967 
L 41.721816 146.575487 
L 42.803212 146.231296 
L 43.884607 145.588264 
L 47.128793 142.656869 
L 48.210188 142.013837 
L 49.291584 141.669646 
L 51.454374 141.479585 
L 62.268328 141.465133 
L 86.059026 141.526166 
L 87.140421 141.669646 
L 88.221816 142.013837 
L 89.303212 142.656869 
L 92.547398 145.588264 
L 93.628793 146.231296 
L 94.710188 146.575487 
L 96.872979 146.765548 
L 107.686933 146.78 
L 129.31484 146.744004 
L 130.396235 146.585505 
L 131.47763 145.958631 
L 132.559026 144.027723 
L 133.640421 139.395716 
L 134.721816 130.741988 
L 135.803212 118.150887 
L 136.884607 103.883301 
L 137.966002 91.2922 
L 139.047398 82.638471 
L 140.128793 78.006464 
L 141.210188 76.075556 
L 142.291584 75.448682 
L 143.372979 75.290184 
L 147.698561 75.254187 
L 174.733444 75.290184 
L 175.81484 75.448682 
L 176.896235 76.075556 
L 177.97763 78.006464 
L 179.059026 82.638471 
L 180.140421 91.2922 
L 181.221816 103.883301 
L 182.303212 118.150887 
L 183.384607 130.741988 
L 184.466002 139.395716 
L 185.547398 144.027723 
L 186.628793 145.958631 
L 187.710188 146.585505 
L 188.791584 146.744004 
L 193.117165 146.78 
L 220.152049 146.7311 
L 221.233444 146.515785 
L 222.31484 145.664198 
L 223.396235 143.041124 
L 224.47763 136.748696 
L 225.559026 124.992894 
L 226.640421 107.888303 
L 227.721816 88.506262 
L 228.803212 71.401671 
L 229.884607 59.645869 
L 230.966002 53.353442 
L 232.047398 50.730368 
L 233.128793 49.87878 
L 234.210188 49.663465 
L 237.454374 49.614565 
L 265.570654 49.663465 
L 266.652049 49.87878 
L 267.733444 50.730368 
L 268.81484 53.353442 
L 269.896235 59.645869 
L 270.97763 71.401671 
L 272.059026 88.506262 
L 273.140421 107.888303 
L 274.221816 124.992894 
L 275.303212 136.748696 
L 276.384607 143.041124 
L 277.466002 145.664198 
L 278.547398 146.515785 
L 279.628793 146.7311 
L 282.872979 146.78 
L 314.038095 146.78 
L 314.038095 146.78 
" style="fill:none;stroke:#cccccc;stroke-linecap:square;stroke-width:1.75;"/>
   </g>
   <g id="line2d_19">
    <path clip-path="url(#p82e13b8f4c)" d="M 0.628793 146.78 
L 41.721816 146.724143 
L 43.884607 146.454512 
L 48.210188 145.478261 
L 50.372979 145.345068 
L 61.186933 145.328398 
L 87.140421 145.384255 
L 89.303212 145.653887 
L 93.628793 146.630137 
L 95.791584 146.76333 
L 106.605537 146.78 
L 130.396235 146.690584 
L 131.47763 146.402387 
L 132.559026 145.514679 
L 133.640421 143.38518 
L 134.721816 139.40675 
L 135.803212 133.618169 
L 136.884607 127.058847 
L 137.966002 121.270266 
L 139.047398 117.291836 
L 140.128793 115.162336 
L 141.210188 114.274628 
L 142.291584 113.986432 
L 144.454374 113.899216 
L 174.733444 113.913564 
L 175.81484 113.986432 
L 176.896235 114.274628 
L 177.97763 115.162336 
L 179.059026 117.291836 
L 180.140421 121.270266 
L 181.221816 127.058847 
L 182.303212 133.618169 
L 183.384607 139.40675 
L 184.466002 143.38518 
L 185.547398 145.514679 
L 186.628793 146.402387 
L 187.710188 146.690584 
L 189.872979 146.7778 
L 220.152049 146.737373 
L 221.233444 146.54968 
L 222.31484 145.807338 
L 223.396235 143.520764 
L 224.47763 138.035558 
L 225.559026 127.787845 
L 226.640421 112.877511 
L 227.721816 95.981888 
L 228.803212 81.071554 
L 229.884607 70.823841 
L 230.966002 65.338635 
L 232.047398 63.052061 
L 233.128793 62.309719 
L 234.210188 62.122026 
L 238.53577 62.079399 
L 265.570654 62.122026 
L 266.652049 62.309719 
L 267.733444 63.052061 
L 268.81484 65.338635 
L 269.896235 70.823841 
L 270.97763 81.071554 
L 272.059026 95.981888 
L 273.140421 112.877511 
L 274.221816 127.787845 
L 275.303212 138.035558 
L 276.384607 143.520764 
L 277.466002 145.807338 
L 278.547398 146.54968 
L 279.628793 146.737373 
L 283.954374 146.78 
L 314.038095 146.78 
L 314.038095 146.78 
" style="fill:none;stroke:#cccccc;stroke-linecap:square;stroke-width:1.75;"/>
   </g>
   <g id="line2d_20">
    <path clip-path="url(#p82e13b8f4c)" d="M 0.628793 146.78 
L 40.640421 146.67437 
L 41.721816 146.426051 
L 42.803212 145.830365 
L 43.884607 144.717476 
L 44.966002 143.098232 
L 47.128793 139.644145 
L 48.210188 138.531256 
L 49.291584 137.93557 
L 50.372979 137.687251 
L 52.53577 137.58625 
L 82.81484 137.582236 
L 86.059026 137.687251 
L 87.140421 137.93557 
L 88.221816 138.531256 
L 89.303212 139.644145 
L 90.384607 141.263389 
L 92.547398 144.717476 
L 93.628793 145.830365 
L 94.710188 146.426051 
L 95.791584 146.67437 
L 97.954374 146.775371 
L 127.152049 146.78 
L 129.31484 146.738363 
L 130.396235 146.55503 
L 131.47763 145.829931 
L 132.559026 143.596472 
L 133.640421 138.23868 
L 134.721816 128.229008 
L 135.803212 113.66502 
L 136.884607 97.16186 
L 137.966002 82.597872 
L 139.047398 72.5882 
L 140.128793 67.230408 
L 141.210188 64.996948 
L 142.291584 64.27185 
L 143.372979 64.088517 
L 147.698561 64.04688 
L 174.733444 64.088517 
L 175.81484 64.27185 
L 176.896235 64.996948 
L 177.97763 67.230408 
L 179.059026 72.5882 
L 180.140421 82.597872 
L 181.221816 97.16186 
L 182.303212 113.66502 
L 183.384607 128.229008 
L 184.466002 138.23868 
L 185.547398 143.596472 
L 186.628793 145.829931 
L 187.710188 146.55503 
L 188.791584 146.738363 
L 193.117165 146.78 
L 220.152049 146.730263 
L 221.233444 146.511261 
L 222.31484 145.645093 
L 223.396235 142.977106 
L 224.47763 136.57694 
L 225.559026 124.619854 
L 226.640421 107.222397 
L 227.721816 87.508496 
L 228.803212 70.111039 
L 229.884607 58.153953 
L 230.966002 51.753787 
L 232.047398 49.0858 
L 233.128793 48.219632 
L 234.210188 48.00063 
L 237.454374 47.950893 
L 265.570654 48.00063 
L 266.652049 48.219632 
L 267.733444 49.0858 
L 268.81484 51.753787 
L 269.896235 58.153953 
L 270.97763 70.111039 
L 272.059026 87.508496 
L 273.140421 107.222397 
L 274.221816 124.619854 
L 275.303212 136.57694 
L 276.384607 142.977106 
L 277.466002 145.645093 
L 278.547398 146.511261 
L 279.628793 146.730263 
L 282.872979 146.78 
L 314.038095 146.78 
L 314.038095 146.78 
" style="fill:none;stroke:#cccccc;stroke-linecap:square;stroke-width:1.75;"/>
   </g>
   <g id="line2d_21">
    <path clip-path="url(#p82e13b8f4c)" d="M 0.628793 146.78 
L 40.640421 146.692405 
L 41.721816 146.486483 
L 42.803212 145.992503 
L 43.884607 145.069626 
L 44.966002 143.726848 
L 47.128793 140.862502 
L 48.210188 139.939625 
L 49.291584 139.445645 
L 50.372979 139.239723 
L 52.53577 139.155967 
L 83.896235 139.155967 
L 86.059026 139.239723 
L 87.140421 139.445645 
L 88.221816 139.939625 
L 89.303212 140.862502 
L 90.384607 142.205281 
L 92.547398 145.069626 
L 93.628793 145.992503 
L 94.710188 146.486483 
L 95.791584 146.692405 
L 97.954374 146.776161 
L 128.233444 146.774692 
L 129.31484 146.740078 
L 130.396235 146.564295 
L 131.47763 145.869058 
L 132.559026 143.727578 
L 133.640421 138.590436 
L 134.721816 128.99299 
L 135.803212 115.028789 
L 136.884607 99.205276 
L 137.966002 85.241075 
L 139.047398 75.643629 
L 140.128793 70.506487 
L 141.210188 68.365007 
L 142.291584 67.669771 
L 143.372979 67.493987 
L 147.698561 67.454065 
L 174.733444 67.493987 
L 175.81484 67.669771 
L 176.896235 68.365007 
L 177.97763 70.506487 
L 179.059026 75.643629 
L 180.140421 85.241075 
L 181.221816 99.205276 
L 182.303212 115.028789 
L 183.384607 128.99299 
L 184.466002 138.590436 
L 185.547398 143.727578 
L 186.628793 145.869058 
L 187.710188 146.564295 
L 188.791584 146.740078 
L 193.117165 146.78 
L 220.152049 146.730495 
L 221.233444 146.512516 
L 222.31484 145.650391 
L 223.396235 142.994862 
L 224.47763 136.624577 
L 225.559026 124.723318 
L 226.640421 107.407088 
L 227.721816 87.785229 
L 228.803212 70.469 
L 229.884607 58.567741 
L 230.966002 52.197456 
L 232.047398 49.541926 
L 233.128793 48.679802 
L 234.210188 48.461823 
L 237.454374 48.412317 
L 265.570654 48.461823 
L 266.652049 48.679802 
L 267.733444 49.541926 
L 268.81484 52.197456 
L 269.896235 58.567741 
L 270.97763 70.469 
L 272.059026 87.785229 
L 273.140421 107.407088 
L 274.221816 124.723318 
L 275.303212 136.624577 
L 276.384607 142.994862 
L 277.466002 145.650391 
L 278.547398 146.512516 
L 279.628793 146.730495 
L 282.872979 146.78 
L 314.038095 146.78 
L 314.038095 146.78 
" style="fill:none;stroke:#cccccc;stroke-linecap:square;stroke-width:1.75;"/>
   </g>
   <g id="line2d_22">
    <path clip-path="url(#p82e13b8f4c)" d="M 0.628793 146.78 
L 40.640421 146.677052 
L 41.721816 146.435038 
L 42.803212 145.854477 
L 43.884607 144.769846 
L 44.966002 143.191716 
L 47.128793 139.825332 
L 48.210188 138.740701 
L 49.291584 138.16014 
L 50.372979 137.918126 
L 52.53577 137.81969 
L 82.81484 137.815778 
L 86.059026 137.918126 
L 87.140421 138.16014 
L 88.221816 138.740701 
L 89.303212 139.825332 
L 90.384607 141.403462 
L 92.547398 144.769846 
L 93.628793 145.854477 
L 94.710188 146.435038 
L 95.791584 146.677052 
L 97.954374 146.775488 
L 128.233444 146.774493 
L 129.31484 146.738586 
L 130.396235 146.556235 
L 131.47763 145.83502 
L 132.559026 143.613523 
L 133.640421 138.284427 
L 134.721816 128.328366 
L 135.803212 113.842383 
L 136.884607 97.427613 
L 137.966002 82.94163 
L 139.047398 72.985569 
L 140.128793 67.656474 
L 141.210188 65.434976 
L 142.291584 64.713762 
L 143.372979 64.53141 
L 147.698561 64.489996 
L 174.733444 64.53141 
L 175.81484 64.713762 
L 176.896235 65.434976 
L 177.97763 67.656474 
L 179.059026 72.985569 
L 180.140421 82.94163 
L 181.221816 97.427613 
L 182.303212 113.842383 
L 183.384607 128.328366 
L 184.466002 138.284427 
L 185.547398 143.613523 
L 186.628793 145.83502 
L 187.710188 146.556235 
L 188.791584 146.738586 
L 193.117165 146.78 
L 220.152049 146.730292 
L 221.233444 146.511419 
L 222.31484 145.64576 
L 223.396235 142.979341 
L 224.47763 136.582935 
L 225.559026 124.632876 
L 226.640421 107.245642 
L 227.721816 87.543325 
L 228.803212 70.156092 
L 229.884607 58.206032 
L 230.966002 51.809627 
L 232.047398 49.143208 
L 233.128793 48.277549 
L 234.210188 48.058676 
L 237.454374 48.008968 
L 265.570654 48.058676 
L 266.652049 48.277549 
L 267.733444 49.143208 
L 268.81484 51.809627 
L 269.896235 58.206032 
L 270.97763 70.156092 
L 272.059026 87.543325 
L 273.140421 107.245642 
L 274.221816 124.632876 
L 275.303212 136.582935 
L 276.384607 142.979341 
L 277.466002 145.64576 
L 278.547398 146.511419 
L 279.628793 146.730292 
L 282.872979 146.78 
L 314.038095 146.78 
L 314.038095 146.78 
" style="fill:none;stroke:#cccccc;stroke-linecap:square;stroke-width:1.75;"/>
   </g>
   <g id="line2d_23">
    <path clip-path="url(#p82e13b8f4c)" d="M 0.628793 146.78 
L 41.721816 146.714056 
L 43.884607 146.395731 
L 48.210188 145.243178 
L 50.372979 145.085932 
L 59.024142 145.066252 
L 87.140421 145.132196 
L 89.303212 145.45052 
L 93.628793 146.603074 
L 95.791584 146.76032 
L 104.442747 146.78 
L 130.396235 146.675909 
L 131.47763 146.340415 
L 132.559026 145.307022 
L 133.640421 142.82804 
L 134.721816 138.196692 
L 135.803212 131.45812 
L 136.884607 123.822318 
L 137.966002 117.083746 
L 139.047398 112.452398 
L 140.128793 109.973416 
L 141.210188 108.940022 
L 142.291584 108.604529 
L 144.454374 108.502999 
L 174.733444 108.519702 
L 175.81484 108.604529 
L 176.896235 108.940022 
L 177.97763 109.973416 
L 179.059026 112.452398 
L 180.140421 117.083746 
L 181.221816 123.822318 
L 182.303212 131.45812 
L 183.384607 138.196692 
L 184.466002 142.82804 
L 185.547398 145.307022 
L 186.628793 146.340415 
L 187.710188 146.675909 
L 189.872979 146.777438 
L 219.070654 146.774135 
L 220.152049 146.735889 
L 221.233444 146.541661 
L 222.31484 145.773472 
L 223.396235 143.407286 
L 224.47763 137.731099 
L 225.559026 127.126587 
L 226.640421 111.697113 
L 227.721816 94.213228 
L 228.803212 78.783753 
L 229.884607 68.179241 
L 230.966002 62.503055 
L 232.047398 60.136868 
L 233.128793 59.36868 
L 234.210188 59.174451 
L 238.53577 59.13034 
L 265.570654 59.174451 
L 266.652049 59.36868 
L 267.733444 60.136868 
L 268.81484 62.503055 
L 269.896235 68.179241 
L 270.97763 78.783753 
L 272.059026 94.213228 
L 273.140421 111.697113 
L 274.221816 127.126587 
L 275.303212 137.731099 
L 276.384607 143.407286 
L 277.466002 145.773472 
L 278.547398 146.541661 
L 279.628793 146.735889 
L 283.954374 146.78 
L 314.038095 146.78 
L 314.038095 146.78 
" style="fill:none;stroke:#cccccc;stroke-linecap:square;stroke-width:1.75;"/>
   </g>
   <g id="line2d_24">
    <path clip-path="url(#p82e13b8f4c)" d="M 0.628793 146.78 
L 41.721816 146.714707 
L 43.884607 146.399525 
L 48.210188 145.25835 
L 50.372979 145.102656 
L 59.024142 145.08317 
L 87.140421 145.148463 
L 89.303212 145.463645 
L 93.628793 146.60482 
L 95.791584 146.760514 
L 104.442747 146.78 
L 130.396235 146.676788 
L 131.47763 146.344125 
L 132.559026 145.319453 
L 133.640421 142.861393 
L 134.721816 138.269132 
L 135.803212 131.587432 
L 136.884607 124.016073 
L 137.966002 117.334373 
L 139.047398 112.742112 
L 140.128793 110.284052 
L 141.210188 109.25938 
L 142.291584 108.926718 
L 144.454374 108.826045 
L 174.733444 108.842607 
L 175.81484 108.926718 
L 176.896235 109.25938 
L 177.97763 110.284052 
L 179.059026 112.742112 
L 180.140421 117.334373 
L 181.221816 124.016073 
L 182.303212 131.587432 
L 183.384607 138.269132 
L 184.466002 142.861393 
L 185.547398 145.319453 
L 186.628793 146.344125 
L 187.710188 146.676788 
L 189.872979 146.77746 
L 219.070654 146.774145 
L 220.152049 146.735968 
L 221.233444 146.542089 
L 222.31484 145.775283 
L 223.396235 143.413355 
L 224.47763 137.747382 
L 225.559026 127.161952 
L 226.640421 111.760241 
L 227.721816 94.307817 
L 228.803212 78.906107 
L 229.884607 68.320676 
L 230.966002 62.654704 
L 232.047398 60.292775 
L 233.128793 59.525969 
L 234.210188 59.33209 
L 238.53577 59.288058 
L 265.570654 59.33209 
L 266.652049 59.525969 
L 267.733444 60.292775 
L 268.81484 62.654704 
L 269.896235 68.320676 
L 270.97763 78.906107 
L 272.059026 94.307817 
L 273.140421 111.760241 
L 274.221816 127.161952 
L 275.303212 137.747382 
L 276.384607 143.413355 
L 277.466002 145.775283 
L 278.547398 146.542089 
L 279.628793 146.735968 
L 283.954374 146.78 
L 314.038095 146.78 
L 314.038095 146.78 
" style="fill:none;stroke:#cccccc;stroke-linecap:square;stroke-width:1.75;"/>
   </g>
   <g id="line2d_25">
    <path clip-path="url(#p82e13b8f4c)" d="M 0.628793 146.78 
L 41.721816 146.731525 
L 43.884607 146.497526 
L 48.210188 145.65029 
L 50.372979 145.534699 
L 62.268328 145.520232 
L 87.140421 145.568707 
L 89.303212 145.802706 
L 93.628793 146.649942 
L 95.791584 146.765533 
L 107.686933 146.78 
L 130.396235 146.702975 
L 131.47763 146.454717 
L 132.559026 145.690028 
L 133.640421 143.855636 
L 134.721816 140.428539 
L 135.803212 135.442143 
L 136.884607 129.791816 
L 137.966002 124.80542 
L 139.047398 121.378324 
L 140.128793 119.543931 
L 141.210188 118.779243 
L 142.291584 118.530985 
L 145.53577 118.45396 
L 175.81484 118.530985 
L 176.896235 118.779243 
L 177.97763 119.543931 
L 179.059026 121.378324 
L 180.140421 124.80542 
L 181.221816 129.791816 
L 182.303212 135.442143 
L 183.384607 140.428539 
L 184.466002 143.855636 
L 185.547398 145.690028 
L 186.628793 146.454717 
L 187.710188 146.702975 
L 190.954374 146.78 
L 220.152049 146.738955 
L 221.233444 146.558228 
L 222.31484 145.843436 
L 223.396235 143.641724 
L 224.47763 138.36009 
L 225.559026 128.4927 
L 226.640421 114.135732 
L 227.721816 97.867156 
L 228.803212 83.510188 
L 229.884607 73.642798 
L 230.966002 68.361164 
L 232.047398 66.159452 
L 233.128793 65.444661 
L 234.210188 65.263933 
L 238.53577 65.222888 
L 265.570654 65.263933 
L 266.652049 65.444661 
L 267.733444 66.159452 
L 268.81484 68.361164 
L 269.896235 73.642798 
L 270.97763 83.510188 
L 272.059026 97.867156 
L 273.140421 114.135732 
L 274.221816 128.4927 
L 275.303212 138.36009 
L 276.384607 143.641724 
L 277.466002 145.843436 
L 278.547398 146.558228 
L 279.628793 146.738955 
L 283.954374 146.78 
L 314.038095 146.78 
L 314.038095 146.78 
" style="fill:none;stroke:#cccccc;stroke-linecap:square;stroke-width:1.75;"/>
   </g>
   <g id="line2d_26">
    <path clip-path="url(#p82e13b8f4c)" d="M 0.628793 146.78 
L 39.559026 146.738243 
L 40.640421 146.603658 
L 41.721816 146.189107 
L 42.803212 145.194651 
L 43.884607 143.336762 
L 44.966002 140.633549 
L 46.047398 137.570408 
L 47.128793 134.867195 
L 48.210188 133.009306 
L 49.291584 132.014849 
L 50.372979 131.600298 
L 52.53577 131.431685 
L 70.919491 131.423957 
L 84.97763 131.465713 
L 86.059026 131.600298 
L 87.140421 132.014849 
L 88.221816 133.009306 
L 89.303212 134.867195 
L 90.384607 137.570408 
L 91.466002 140.633549 
L 92.547398 143.336762 
L 93.628793 145.194651 
L 94.710188 146.189107 
L 95.791584 146.603658 
L 97.954374 146.772272 
L 116.338095 146.78 
L 129.31484 146.734688 
L 130.396235 146.535173 
L 131.47763 145.746075 
L 132.559026 143.315483 
L 133.640421 137.484795 
L 134.721816 126.591636 
L 135.803212 110.742183 
L 136.884607 92.782401 
L 137.966002 76.932948 
L 139.047398 66.039789 
L 140.128793 60.209101 
L 141.210188 57.778509 
L 142.291584 56.989411 
L 143.372979 56.789896 
L 146.617165 56.744584 
L 174.733444 56.789896 
L 175.81484 56.989411 
L 176.896235 57.778509 
L 177.97763 60.209101 
L 179.059026 66.039789 
L 180.140421 76.932948 
L 181.221816 92.782401 
L 182.303212 110.742183 
L 183.384607 126.591636 
L 184.466002 137.484795 
L 185.547398 143.315483 
L 186.628793 145.746075 
L 187.710188 146.535173 
L 188.791584 146.734688 
L 192.03577 146.78 
L 220.152049 146.729819 
L 221.233444 146.508861 
L 222.31484 145.634957 
L 223.396235 142.943142 
L 224.47763 136.485815 
L 225.559026 124.421941 
L 226.640421 106.869106 
L 227.721816 86.979139 
L 228.803212 69.426304 
L 229.884607 57.362429 
L 230.966002 50.905102 
L 232.047398 48.213288 
L 233.128793 47.339384 
L 234.210188 47.118426 
L 237.454374 47.068245 
L 265.570654 47.118426 
L 266.652049 47.339384 
L 267.733444 48.213288 
L 268.81484 50.905102 
L 269.896235 57.362429 
L 270.97763 69.426304 
L 272.059026 86.979139 
L 273.140421 106.869106 
L 274.221816 124.421941 
L 275.303212 136.485815 
L 276.384607 142.943142 
L 277.466002 145.634957 
L 278.547398 146.508861 
L 279.628793 146.729819 
L 282.872979 146.78 
L 314.038095 146.78 
L 314.038095 146.78 
" style="fill:none;stroke:#cccccc;stroke-linecap:square;stroke-width:1.75;"/>
   </g>
   <g id="line2d_27">
    <path clip-path="url(#p82e13b8f4c)" d="M 0.628793 146.78 
L 41.721816 146.674291 
L 42.803212 146.496386 
L 43.884607 146.164015 
L 48.210188 144.316462 
L 50.372979 144.064395 
L 55.779956 144.032848 
L 87.140421 144.138557 
L 88.221816 144.316462 
L 89.303212 144.648833 
L 93.628793 146.496386 
L 95.791584 146.748453 
L 101.198561 146.78 
L 129.31484 146.753155 
L 130.396235 146.634952 
L 131.47763 146.167451 
L 132.559026 144.727447 
L 133.640421 141.273057 
L 134.721816 134.819405 
L 135.803212 125.429398 
L 136.884607 114.789126 
L 137.966002 105.399119 
L 139.047398 98.945468 
L 140.128793 95.491077 
L 141.210188 94.051073 
L 142.291584 93.583572 
L 144.454374 93.442094 
L 173.652049 93.442094 
L 175.81484 93.583572 
L 176.896235 94.051073 
L 177.97763 95.491077 
L 179.059026 98.945468 
L 180.140421 105.399119 
L 181.221816 114.789126 
L 182.303212 125.429398 
L 183.384607 134.819405 
L 184.466002 141.273057 
L 185.547398 144.727447 
L 186.628793 146.167451 
L 187.710188 146.634952 
L 189.872979 146.776431 
L 219.070654 146.773763 
L 220.152049 146.733093 
L 221.233444 146.526552 
L 222.31484 145.709667 
L 223.396235 143.193486 
L 224.47763 137.15748 
L 225.559026 125.880736 
L 226.640421 109.473172 
L 227.721816 90.880965 
L 228.803212 74.4734 
L 229.884607 63.196656 
L 230.966002 57.16065 
L 232.047398 54.644469 
L 233.128793 53.827584 
L 234.210188 53.621043 
L 237.454374 53.574136 
L 265.570654 53.621043 
L 266.652049 53.827584 
L 267.733444 54.644469 
L 268.81484 57.16065 
L 269.896235 63.196656 
L 270.97763 74.4734 
L 272.059026 90.880965 
L 273.140421 109.473172 
L 274.221816 125.880736 
L 275.303212 137.15748 
L 276.384607 143.193486 
L 277.466002 145.709667 
L 278.547398 146.526552 
L 279.628793 146.733093 
L 282.872979 146.78 
L 314.038095 146.78 
L 314.038095 146.78 
" style="fill:none;stroke:#cccccc;stroke-linecap:square;stroke-width:1.75;"/>
   </g>
   <g id="line2d_28">
    <path clip-path="url(#p82e13b8f4c)" d="M 0.628793 146.78 
L 40.640421 146.714043 
L 41.721816 146.558987 
L 42.803212 146.187029 
L 43.884607 145.49212 
L 47.128793 142.324234 
L 48.210188 141.629325 
L 49.291584 141.257367 
L 51.454374 141.051972 
L 61.186933 141.036354 
L 86.059026 141.102312 
L 87.140421 141.257367 
L 88.221816 141.629325 
L 89.303212 142.324234 
L 92.547398 145.49212 
L 93.628793 146.187029 
L 94.710188 146.558987 
L 96.872979 146.764382 
L 106.605537 146.78 
L 129.31484 146.743091 
L 130.396235 146.580576 
L 131.47763 145.937817 
L 132.559026 143.957979 
L 133.640421 139.208595 
L 134.721816 130.335578 
L 135.803212 117.425414 
L 136.884607 102.796281 
L 137.966002 89.886117 
L 139.047398 81.0131 
L 140.128793 76.263716 
L 141.210188 74.283878 
L 142.291584 73.641119 
L 143.372979 73.478604 
L 147.698561 73.441695 
L 174.733444 73.478604 
L 175.81484 73.641119 
L 176.896235 74.283878 
L 177.97763 76.263716 
L 179.059026 81.0131 
L 180.140421 89.886117 
L 181.221816 102.796281 
L 182.303212 117.425414 
L 183.384607 130.335578 
L 184.466002 139.208595 
L 185.547398 143.957979 
L 186.628793 145.937817 
L 187.710188 146.580576 
L 188.791584 146.743091 
L 193.117165 146.78 
L 220.152049 146.730949 
L 221.233444 146.51497 
L 222.31484 145.660758 
L 223.396235 143.029598 
L 224.47763 136.717773 
L 225.559026 124.925732 
L 226.640421 107.768413 
L 227.721816 88.326624 
L 228.803212 71.169306 
L 229.884607 59.377265 
L 230.966002 53.06544 
L 232.047398 50.43428 
L 233.128793 49.580067 
L 234.210188 49.364089 
L 237.454374 49.315038 
L 265.570654 49.364089 
L 266.652049 49.580067 
L 267.733444 50.43428 
L 268.81484 53.06544 
L 269.896235 59.377265 
L 270.97763 71.169306 
L 272.059026 88.326624 
L 273.140421 107.768413 
L 274.221816 124.925732 
L 275.303212 136.717773 
L 276.384607 143.029598 
L 277.466002 145.660758 
L 278.547398 146.51497 
L 279.628793 146.730949 
L 282.872979 146.78 
L 314.038095 146.78 
L 314.038095 146.78 
" style="fill:none;stroke:#cccccc;stroke-linecap:square;stroke-width:1.75;"/>
   </g>
   <g id="line2d_29">
    <path clip-path="url(#p82e13b8f4c)" d="M 0.628793 146.78 
L 41.721816 146.672604 
L 42.803212 146.491858 
L 43.884607 146.154181 
L 48.210188 144.277136 
L 50.372979 144.021045 
L 55.779956 143.988994 
L 87.140421 144.096391 
L 88.221816 144.277136 
L 89.303212 144.614813 
L 93.628793 146.491858 
L 95.791584 146.747949 
L 101.198561 146.78 
L 129.31484 146.752911 
L 130.396235 146.633632 
L 131.47763 146.161876 
L 132.559026 144.708765 
L 133.640421 141.222934 
L 134.721816 134.710543 
L 135.803212 125.235071 
L 136.884607 114.497954 
L 137.966002 105.022481 
L 139.047398 98.510091 
L 140.128793 95.024259 
L 141.210188 93.571148 
L 142.291584 93.099392 
L 144.454374 92.956626 
L 173.652049 92.956626 
L 175.81484 93.099392 
L 176.896235 93.571148 
L 177.97763 95.024259 
L 179.059026 98.510091 
L 180.140421 105.022481 
L 181.221816 114.497954 
L 182.303212 125.235071 
L 183.384607 134.710543 
L 184.466002 141.222934 
L 185.547398 144.708765 
L 186.628793 146.161876 
L 187.710188 146.633632 
L 189.872979 146.776398 
L 219.070654 146.773754 
L 220.152049 146.733025 
L 221.233444 146.526184 
L 222.31484 145.708115 
L 223.396235 143.188283 
L 224.47763 137.143521 
L 225.559026 125.850419 
L 226.640421 109.419053 
L 227.721816 90.799876 
L 228.803212 74.368509 
L 229.884607 63.075408 
L 230.966002 57.030646 
L 232.047398 54.510814 
L 233.128793 53.692744 
L 234.210188 53.485904 
L 237.454374 53.438929 
L 265.570654 53.485904 
L 266.652049 53.692744 
L 267.733444 54.510814 
L 268.81484 57.030646 
L 269.896235 63.075408 
L 270.97763 74.368509 
L 272.059026 90.799876 
L 273.140421 109.419053 
L 274.221816 125.850419 
L 275.303212 137.143521 
L 276.384607 143.188283 
L 277.466002 145.708115 
L 278.547398 146.526184 
L 279.628793 146.733025 
L 282.872979 146.78 
L 314.038095 146.78 
L 314.038095 146.78 
" style="fill:none;stroke:#cccccc;stroke-linecap:square;stroke-width:1.75;"/>
   </g>
   <g id="line2d_30">
    <path clip-path="url(#p82e13b8f4c)" d="M 0.628793 146.78 
L 39.559026 146.726263 
L 40.640421 146.553065 
L 41.721816 146.019578 
L 42.803212 144.739809 
L 43.884607 142.348885 
L 44.966002 138.870111 
L 46.047398 134.928144 
L 47.128793 131.44937 
L 48.210188 129.058447 
L 49.291584 127.778677 
L 50.372979 127.24519 
L 51.454374 127.071992 
L 54.698561 127.018255 
L 84.97763 127.071992 
L 86.059026 127.24519 
L 87.140421 127.778677 
L 88.221816 129.058447 
L 89.303212 131.44937 
L 90.384607 134.928144 
L 91.466002 138.870111 
L 92.547398 142.348885 
L 93.628793 144.739809 
L 94.710188 146.019578 
L 95.791584 146.553065 
L 96.872979 146.726263 
L 100.117165 146.78 
L 129.31484 146.733354 
L 130.396235 146.527962 
L 131.47763 145.715622 
L 132.559026 143.21344 
L 133.640421 137.211017 
L 134.721816 125.997013 
L 135.803212 109.680735 
L 136.884607 91.191969 
L 137.966002 74.87569 
L 139.047398 63.661687 
L 140.128793 57.659263 
L 141.210188 55.157081 
L 142.291584 54.344741 
L 143.372979 54.139349 
L 146.617165 54.092703 
L 174.733444 54.139349 
L 175.81484 54.344741 
L 176.896235 55.157081 
L 177.97763 57.659263 
L 179.059026 63.661687 
L 180.140421 74.87569 
L 181.221816 91.191969 
L 182.303212 109.680735 
L 183.384607 125.997013 
L 184.466002 137.211017 
L 185.547398 143.21344 
L 186.628793 145.715622 
L 187.710188 146.527962 
L 188.791584 146.733354 
L 192.03577 146.78 
L 220.152049 146.729673 
L 221.233444 146.508074 
L 222.31484 145.631634 
L 223.396235 142.932008 
L 224.47763 136.455943 
L 225.559026 124.35706 
L 226.640421 106.753289 
L 227.721816 86.805604 
L 228.803212 69.201833 
L 229.884607 57.10295 
L 230.966002 50.626885 
L 232.047398 47.927259 
L 233.128793 47.050819 
L 234.210188 46.829221 
L 237.454374 46.778893 
L 265.570654 46.829221 
L 266.652049 47.050819 
L 267.733444 47.927259 
L 268.81484 50.626885 
L 269.896235 57.10295 
L 270.97763 69.201833 
L 272.059026 86.805604 
L 273.140421 106.753289 
L 274.221816 124.35706 
L 275.303212 136.455943 
L 276.384607 142.932008 
L 277.466002 145.631634 
L 278.547398 146.508074 
L 279.628793 146.729673 
L 282.872979 146.78 
L 314.038095 146.78 
L 314.038095 146.78 
" style="fill:none;stroke:#cccccc;stroke-linecap:square;stroke-width:1.75;"/>
   </g>
   <g id="line2d_31">
    <path clip-path="url(#p82e13b8f4c)" d="M 0.628793 146.78 
L 41.721816 146.688489 
L 42.803212 146.534477 
L 43.884607 146.246746 
L 48.210188 144.647334 
L 50.372979 144.429121 
L 56.861351 144.401811 
L 87.140421 144.493323 
L 88.221816 144.647334 
L 89.303212 144.935065 
L 93.628793 146.534477 
L 95.791584 146.75269 
L 102.279956 146.78 
L 129.31484 146.755419 
L 130.396235 146.647187 
L 131.47763 146.219119 
L 132.559026 144.900578 
L 133.640421 141.737561 
L 134.721816 135.828268 
L 135.803212 127.230297 
L 136.884607 117.48752 
L 137.966002 108.889549 
L 139.047398 102.980256 
L 140.128793 99.81724 
L 141.210188 98.498698 
L 142.291584 98.07063 
L 144.454374 97.941086 
L 173.652049 97.941086 
L 175.81484 98.07063 
L 176.896235 98.498698 
L 177.97763 99.81724 
L 179.059026 102.980256 
L 180.140421 108.889549 
L 181.221816 117.48752 
L 182.303212 127.230297 
L 183.384607 135.828268 
L 184.466002 141.737561 
L 185.547398 144.900578 
L 186.628793 146.219119 
L 187.710188 146.647187 
L 189.872979 146.776732 
L 219.070654 146.773854 
L 220.152049 146.733777 
L 221.233444 146.53025 
L 222.31484 145.725283 
L 223.396235 143.245812 
L 224.47763 137.297871 
L 225.559026 126.185653 
L 226.640421 110.017471 
L 227.721816 91.696522 
L 228.803212 75.52834 
L 229.884607 64.416122 
L 230.966002 58.468181 
L 232.047398 55.98871 
L 233.128793 55.183743 
L 234.210188 54.980216 
L 237.454374 54.933993 
L 265.570654 54.980216 
L 266.652049 55.183743 
L 267.733444 55.98871 
L 268.81484 58.468181 
L 269.896235 64.416122 
L 270.97763 75.52834 
L 272.059026 91.696522 
L 273.140421 110.017471 
L 274.221816 126.185653 
L 275.303212 137.297871 
L 276.384607 143.245812 
L 277.466002 145.725283 
L 278.547398 146.53025 
L 279.628793 146.733777 
L 282.872979 146.78 
L 314.038095 146.78 
L 314.038095 146.78 
" style="fill:none;stroke:#cccccc;stroke-linecap:square;stroke-width:1.75;"/>
   </g>
   <g id="line2d_32">
    <path clip-path="url(#p82e13b8f4c)" d="M 0.628793 146.78 
L 40.640421 146.729104 
L 41.721816 146.609455 
L 42.803212 146.322431 
L 43.884607 145.786201 
L 47.128793 143.341686 
L 48.210188 142.805456 
L 49.291584 142.518433 
L 51.454374 142.359939 
L 64.431119 142.347888 
L 86.059026 142.398784 
L 87.140421 142.518433 
L 88.221816 142.805456 
L 89.303212 143.341686 
L 92.547398 145.786201 
L 93.628793 146.322431 
L 94.710188 146.609455 
L 96.872979 146.767948 
L 109.849723 146.78 
L 129.31484 146.746284 
L 130.396235 146.597826 
L 131.47763 146.010662 
L 132.559026 144.202071 
L 133.640421 139.863486 
L 134.721816 131.757942 
L 135.803212 119.964446 
L 136.884607 106.600664 
L 137.966002 94.807167 
L 139.047398 86.701624 
L 140.128793 82.363039 
L 141.210188 80.554447 
L 142.291584 79.967284 
L 143.372979 79.818826 
L 147.698561 79.785109 
L 174.733444 79.818826 
L 175.81484 79.967284 
L 176.896235 80.554447 
L 177.97763 82.363039 
L 179.059026 86.701624 
L 180.140421 94.807167 
L 181.221816 106.600664 
L 182.303212 119.964446 
L 183.384607 131.757942 
L 184.466002 139.863486 
L 185.547398 144.202071 
L 186.628793 146.010662 
L 187.710188 146.597826 
L 188.791584 146.746284 
L 193.117165 146.78 
L 220.152049 146.731508 
L 221.233444 146.51799 
L 222.31484 145.673508 
L 223.396235 143.072321 
L 224.47763 136.832399 
L 225.559026 125.174689 
L 226.640421 108.212822 
L 227.721816 88.992508 
L 228.803212 72.03064 
L 229.884607 60.372931 
L 230.966002 54.133008 
L 232.047398 51.531822 
L 233.128793 50.68734 
L 234.210188 50.473822 
L 237.454374 50.42533 
L 265.570654 50.473822 
L 266.652049 50.68734 
L 267.733444 51.531822 
L 268.81484 54.133008 
L 269.896235 60.372931 
L 270.97763 72.03064 
L 272.059026 88.992508 
L 273.140421 108.212822 
L 274.221816 125.174689 
L 275.303212 136.832399 
L 276.384607 143.072321 
L 277.466002 145.673508 
L 278.547398 146.51799 
L 279.628793 146.731508 
L 282.872979 146.78 
L 314.038095 146.78 
L 314.038095 146.78 
" style="fill:none;stroke:#cccccc;stroke-linecap:square;stroke-width:1.75;"/>
   </g>
   <g id="line2d_33">
    <path clip-path="url(#p82e13b8f4c)" d="M 0.628793 146.78 
L 40.640421 146.716241 
L 41.721816 146.566355 
L 42.803212 146.206796 
L 43.884607 145.535052 
L 47.128793 142.47277 
L 48.210188 141.801026 
L 49.291584 141.441468 
L 51.454374 141.24292 
L 62.268328 141.227823 
L 86.059026 141.291581 
L 87.140421 141.441468 
L 88.221816 141.801026 
L 89.303212 142.47277 
L 92.547398 145.535052 
L 93.628793 146.206796 
L 94.710188 146.566355 
L 96.872979 146.764902 
L 107.686933 146.78 
L 129.31484 146.743485 
L 130.396235 146.582705 
L 131.47763 145.946807 
L 132.559026 143.988102 
L 133.640421 139.289415 
L 134.721816 130.511111 
L 135.803212 117.738754 
L 136.884607 103.265777 
L 137.966002 90.49342 
L 139.047398 81.715116 
L 140.128793 77.016428 
L 141.210188 75.057724 
L 142.291584 74.421826 
L 143.372979 74.261046 
L 147.698561 74.224531 
L 174.733444 74.261046 
L 175.81484 74.421826 
L 176.896235 75.057724 
L 177.97763 77.016428 
L 179.059026 81.715116 
L 180.140421 90.49342 
L 181.221816 103.265777 
L 182.303212 117.738754 
L 183.384607 130.511111 
L 184.466002 139.289415 
L 185.547398 143.988102 
L 186.628793 145.946807 
L 187.710188 146.582705 
L 188.791584 146.743485 
L 193.117165 146.78 
L 220.152049 146.731014 
L 221.233444 146.515318 
L 222.31484 145.662225 
L 223.396235 143.034514 
L 224.47763 136.730962 
L 225.559026 124.954377 
L 226.640421 107.819546 
L 227.721816 88.40324 
L 228.803212 71.268409 
L 229.884607 59.491824 
L 230.966002 53.188272 
L 232.047398 50.560561 
L 233.128793 49.707468 
L 234.210188 49.491772 
L 237.454374 49.442786 
L 265.570654 49.491772 
L 266.652049 49.707468 
L 267.733444 50.560561 
L 268.81484 53.188272 
L 269.896235 59.491824 
L 270.97763 71.268409 
L 272.059026 88.40324 
L 273.140421 107.819546 
L 274.221816 124.954377 
L 275.303212 136.730962 
L 276.384607 143.034514 
L 277.466002 145.662225 
L 278.547398 146.515318 
L 279.628793 146.731014 
L 282.872979 146.78 
L 314.038095 146.78 
L 314.038095 146.78 
" style="fill:none;stroke:#cccccc;stroke-linecap:square;stroke-width:1.75;"/>
   </g>
   <g id="line2d_34">
    <path clip-path="url(#p82e13b8f4c)" d="M 0.628793 146.78 
L 39.559026 146.747115 
L 40.640421 146.641126 
L 41.721816 146.314655 
L 42.803212 145.531492 
L 43.884607 144.068351 
L 44.966002 141.939493 
L 46.047398 139.527181 
L 47.128793 137.398323 
L 48.210188 135.935182 
L 49.291584 135.152019 
L 50.372979 134.825548 
L 52.53577 134.69276 
L 76.326468 134.686674 
L 84.97763 134.719558 
L 86.059026 134.825548 
L 87.140421 135.152019 
L 88.221816 135.935182 
L 89.303212 137.398323 
L 90.384607 139.527181 
L 91.466002 141.939493 
L 92.547398 144.068351 
L 93.628793 145.531492 
L 94.710188 146.314655 
L 95.791584 146.641126 
L 97.954374 146.773914 
L 121.745072 146.78 
L 129.31484 146.736227 
L 130.396235 146.543485 
L 131.47763 145.781175 
L 132.559026 143.433097 
L 133.640421 137.80035 
L 134.721816 127.276994 
L 135.803212 111.965602 
L 136.884607 94.615521 
L 137.966002 79.304128 
L 139.047398 68.780772 
L 140.128793 63.148025 
L 141.210188 60.799947 
L 142.291584 60.037638 
L 143.372979 59.844896 
L 147.698561 59.801122 
L 174.733444 59.844896 
L 175.81484 60.037638 
L 176.896235 60.799947 
L 177.97763 63.148025 
L 179.059026 68.780772 
L 180.140421 79.304128 
L 181.221816 94.615521 
L 182.303212 111.965602 
L 183.384607 127.276994 
L 184.466002 137.80035 
L 185.547398 143.433097 
L 186.628793 145.781175 
L 187.710188 146.543485 
L 188.791584 146.736227 
L 193.117165 146.78 
L 220.152049 146.729996 
L 221.233444 146.509821 
L 222.31484 145.639013 
L 223.396235 142.956734 
L 224.47763 136.522281 
L 225.559026 124.50114 
L 226.640421 107.010484 
L 227.721816 87.190974 
L 228.803212 69.700318 
L 229.884607 57.679177 
L 230.966002 51.244724 
L 232.047398 48.562445 
L 233.128793 47.691637 
L 234.210188 47.471462 
L 237.454374 47.421458 
L 265.570654 47.471462 
L 266.652049 47.691637 
L 267.733444 48.562445 
L 268.81484 51.244724 
L 269.896235 57.679177 
L 270.97763 69.700318 
L 272.059026 87.190974 
L 273.140421 107.010484 
L 274.221816 124.50114 
L 275.303212 136.522281 
L 276.384607 142.956734 
L 277.466002 145.639013 
L 278.547398 146.509821 
L 279.628793 146.729996 
L 282.872979 146.78 
L 314.038095 146.78 
L 314.038095 146.78 
" style="fill:none;stroke:#cccccc;stroke-linecap:square;stroke-width:1.75;"/>
   </g>
   <g id="line2d_35">
    <path clip-path="url(#p82e13b8f4c)" d="M 0.628793 146.78 
L 39.559026 146.740099 
L 40.640421 146.611494 
L 41.721816 146.215364 
L 42.803212 145.265096 
L 43.884607 143.489763 
L 44.966002 140.906669 
L 46.047398 137.979639 
L 47.128793 135.396545 
L 48.210188 133.621212 
L 49.291584 132.670945 
L 50.372979 132.274814 
L 52.53577 132.113693 
L 72.000886 132.106308 
L 84.97763 132.146209 
L 86.059026 132.274814 
L 87.140421 132.670945 
L 88.221816 133.621212 
L 89.303212 135.396545 
L 90.384607 137.979639 
L 91.466002 140.906669 
L 92.547398 143.489763 
L 93.628793 145.265096 
L 94.710188 146.215364 
L 95.791584 146.611494 
L 97.954374 146.772615 
L 117.419491 146.78 
L 129.31484 146.734959 
L 130.396235 146.536637 
L 131.47763 145.752258 
L 132.559026 143.336202 
L 133.640421 137.540383 
L 134.721816 126.712367 
L 135.803212 110.957697 
L 136.884607 93.105318 
L 137.966002 77.350648 
L 139.047398 66.522633 
L 140.128793 60.726813 
L 141.210188 58.310757 
L 142.291584 57.526378 
L 143.372979 57.328056 
L 147.698561 57.283015 
L 174.733444 57.328056 
L 175.81484 57.526378 
L 176.896235 58.310757 
L 177.97763 60.726813 
L 179.059026 66.522633 
L 180.140421 77.350648 
L 181.221816 93.105318 
L 182.303212 110.957697 
L 183.384607 126.712367 
L 184.466002 137.540383 
L 185.547398 143.336202 
L 186.628793 145.752258 
L 187.710188 146.536637 
L 188.791584 146.734959 
L 193.117165 146.78 
L 220.152049 146.729849 
L 221.233444 146.509026 
L 222.31484 145.635653 
L 223.396235 142.945476 
L 224.47763 136.492076 
L 225.559026 124.435538 
L 226.640421 106.893378 
L 227.721816 87.015507 
L 228.803212 69.473347 
L 229.884607 57.416809 
L 230.966002 50.963409 
L 232.047398 48.273232 
L 233.128793 47.399859 
L 234.210188 47.179036 
L 237.454374 47.128885 
L 265.570654 47.179036 
L 266.652049 47.399859 
L 267.733444 48.273232 
L 268.81484 50.963409 
L 269.896235 57.416809 
L 270.97763 69.473347 
L 272.059026 87.015507 
L 273.140421 106.893378 
L 274.221816 124.435538 
L 275.303212 136.492076 
L 276.384607 142.945476 
L 277.466002 145.635653 
L 278.547398 146.509026 
L 279.628793 146.729849 
L 282.872979 146.78 
L 314.038095 146.78 
L 314.038095 146.78 
" style="fill:none;stroke:#cccccc;stroke-linecap:square;stroke-width:1.75;"/>
   </g>
   <g id="line2d_36">
    <path clip-path="url(#p82e13b8f4c)" d="M 0.628793 146.78 
L 41.721816 146.723704 
L 43.884607 146.451954 
L 48.210188 145.468032 
L 50.372979 145.333792 
L 60.105537 145.316992 
L 87.140421 145.373288 
L 89.303212 145.645038 
L 93.628793 146.62896 
L 95.791584 146.763199 
L 105.524142 146.78 
L 130.396235 146.689894 
L 131.47763 146.399476 
L 132.559026 145.504925 
L 133.640421 143.359009 
L 134.721816 139.34991 
L 135.803212 133.516705 
L 136.884607 126.906817 
L 137.966002 121.073612 
L 139.047398 117.064513 
L 140.128793 114.918597 
L 141.210188 114.024046 
L 142.291584 113.733628 
L 144.454374 113.645739 
L 174.733444 113.660198 
L 175.81484 113.733628 
L 176.896235 114.024046 
L 177.97763 114.918597 
L 179.059026 117.064513 
L 180.140421 121.073612 
L 181.221816 126.906817 
L 182.303212 133.516705 
L 183.384607 139.34991 
L 184.466002 143.359009 
L 185.547398 145.504925 
L 186.628793 146.399476 
L 187.710188 146.689894 
L 189.872979 146.777783 
L 220.152049 146.737295 
L 221.233444 146.549258 
L 222.31484 145.805556 
L 223.396235 143.514792 
L 224.47763 138.019537 
L 225.559026 127.753047 
L 226.640421 112.815394 
L 227.721816 95.888815 
L 228.803212 80.951161 
L 229.884607 70.684672 
L 230.966002 65.189416 
L 232.047398 62.898653 
L 233.128793 62.154951 
L 234.210188 61.966914 
L 238.53577 61.924209 
L 265.570654 61.966914 
L 266.652049 62.154951 
L 267.733444 62.898653 
L 268.81484 65.189416 
L 269.896235 70.684672 
L 270.97763 80.951161 
L 272.059026 95.888815 
L 273.140421 112.815394 
L 274.221816 127.753047 
L 275.303212 138.019537 
L 276.384607 143.514792 
L 277.466002 145.805556 
L 278.547398 146.549258 
L 279.628793 146.737295 
L 283.954374 146.78 
L 314.038095 146.78 
L 314.038095 146.78 
" style="fill:none;stroke:#cccccc;stroke-linecap:square;stroke-width:1.75;"/>
   </g>
   <g id="line2d_37">
    <path clip-path="url(#p82e13b8f4c)" d="M 0.628793 146.78 
L 40.640421 146.73896 
L 41.721816 146.642483 
L 42.803212 146.411045 
L 43.884607 145.978662 
L 48.210188 143.575173 
L 49.291584 143.343735 
L 51.454374 143.215936 
L 67.675305 143.206218 
L 86.059026 143.247258 
L 87.140421 143.343735 
L 88.221816 143.575173 
L 89.303212 144.007556 
L 93.628793 146.411045 
L 94.710188 146.642483 
L 96.872979 146.770282 
L 113.093909 146.78 
L 129.31484 146.749234 
L 130.396235 146.613768 
L 131.47763 146.077988 
L 132.559026 144.42767 
L 133.640421 140.468763 
L 134.721816 133.07255 
L 135.803212 122.311125 
L 136.884607 110.116832 
L 137.966002 99.355406 
L 139.047398 91.959194 
L 140.128793 88.000286 
L 141.210188 86.349968 
L 142.291584 85.814188 
L 144.454374 85.652047 
L 173.652049 85.652047 
L 175.81484 85.814188 
L 176.896235 86.349968 
L 177.97763 88.000286 
L 179.059026 91.959194 
L 180.140421 99.355406 
L 181.221816 110.116832 
L 182.303212 122.311125 
L 183.384607 133.07255 
L 184.466002 140.468763 
L 185.547398 144.42767 
L 186.628793 146.077988 
L 187.710188 146.613768 
L 189.872979 146.775909 
L 217.989258 146.78 
L 220.152049 146.732114 
L 221.233444 146.521261 
L 222.31484 145.687325 
L 223.396235 143.118621 
L 224.47763 136.956619 
L 225.559026 125.444485 
L 226.640421 108.694427 
L 227.721816 89.714126 
L 228.803212 72.964069 
L 229.884607 61.451935 
L 230.966002 55.289933 
L 232.047398 52.721228 
L 233.128793 51.887292 
L 234.210188 51.67644 
L 237.454374 51.628554 
L 265.570654 51.67644 
L 266.652049 51.887292 
L 267.733444 52.721228 
L 268.81484 55.289933 
L 269.896235 61.451935 
L 270.97763 72.964069 
L 272.059026 89.714126 
L 273.140421 108.694427 
L 274.221816 125.444485 
L 275.303212 136.956619 
L 276.384607 143.118621 
L 277.466002 145.687325 
L 278.547398 146.521261 
L 279.628793 146.732114 
L 282.872979 146.78 
L 314.038095 146.78 
L 314.038095 146.78 
" style="fill:none;stroke:#cccccc;stroke-linecap:square;stroke-width:1.75;"/>
   </g>
   <g id="matplotlib.axis_1"/>
   <g id="matplotlib.axis_2">
    <g id="ytick_1">
     <g id="line2d_38">
      <defs>
       <path d="M 0 0 
L -3.5 0 
" id="m32d428ec26" style="stroke:#000000;stroke-width:0.8;"/>
      </defs>
      <g>
       <use style="stroke:#000000;stroke-width:0.8;" x="23.338095" xlink:href="#m32d428ec26" y="146.78"/>
      </g>
     </g>
     <g id="text_1">
      <!-- $0$ -->
      <defs>
       <path d="M 42 31.640625 
C 42 37.75 41.90625 48.125 37.703125 56.109375 
C 34 63.109375 28.09375 65.59375 22.90625 65.59375 
C 18.09375 65.59375 12 63.40625 8.203125 56.203125 
C 4.203125 48.71875 3.796875 39.4375 3.796875 31.640625 
C 3.796875 25.953125 3.90625 17.28125 7 9.671875 
C 11.296875 -0.609375 19 -2 22.90625 -2 
C 27.5 -2 34.5 -0.109375 38.59375 9.375 
C 41.59375 16.28125 42 24.359375 42 31.640625 
z
M 22.90625 -0.40625 
C 16.5 -0.40625 12.703125 5.078125 11.296875 12.6875 
C 10.203125 18.5625 10.203125 27.15625 10.203125 32.75 
C 10.203125 40.4375 10.203125 46.828125 11.5 52.921875 
C 13.40625 61.390625 19 64 22.90625 64 
C 27 64 32.296875 61.296875 34.203125 53.125 
C 35.5 47.4375 35.59375 40.734375 35.59375 32.75 
C 35.59375 26.25 35.59375 18.265625 34.40625 12.375 
C 32.296875 1.484375 26.40625 -0.40625 22.90625 -0.40625 
z
" id="CMR17-48"/>
      </defs>
      <g transform="translate(7.2 153.87832)scale(0.2 -0.2)">
       <use transform="scale(0.996264)" xlink:href="#CMR17-48"/>
      </g>
     </g>
    </g>
    <g id="ytick_2">
     <g id="line2d_39">
      <g>
       <use style="stroke:#000000;stroke-width:0.8;" x="23.338095" xlink:href="#m32d428ec26" y="45.98"/>
      </g>
     </g>
     <g id="text_2">
      <!-- $1$ -->
      <defs>
       <path d="M 26.59375 63.40625 
C 26.59375 65.5 26.5 65.5 25.09375 65.5 
C 21.203125 61.1875 15.296875 59.796875 9.703125 59.796875 
C 9.40625 59.796875 8.90625 59.796875 8.796875 59.5 
C 8.703125 59.296875 8.703125 59.09375 8.703125 57 
C 11.796875 57 17 57.59375 21 59.984375 
L 21 7.203125 
C 21 3.6875 20.796875 2.5 12.203125 2.5 
L 9.203125 2.5 
L 9.203125 0 
C 14 0 19 0 23.796875 0 
C 28.59375 0 33.59375 0 38.40625 0 
L 38.40625 2.5 
L 35.40625 2.5 
C 26.796875 2.5 26.59375 3.59375 26.59375 7.15625 
z
" id="CMR17-49"/>
      </defs>
      <g transform="translate(7.2 53.07832)scale(0.2 -0.2)">
       <use transform="scale(0.996264)" xlink:href="#CMR17-49"/>
      </g>
     </g>
    </g>
   </g>
   <g id="line2d_40">
    <path clip-path="url(#p82e13b8f4c)" d="M 0.628793 146.78 
L 38.47763 146.755685 
L 39.559026 146.648623 
L 40.640421 146.225183 
L 41.721816 144.920898 
L 42.803212 141.792079 
L 43.884607 135.946676 
L 44.966002 127.441665 
L 46.047398 117.804225 
L 47.128793 109.299214 
L 48.210188 103.453811 
L 49.291584 100.324992 
L 50.372979 99.020706 
L 51.454374 98.597267 
L 53.617165 98.469123 
L 82.81484 98.469123 
L 84.97763 98.597267 
L 86.059026 99.020706 
L 87.140421 100.324992 
L 88.221816 103.453811 
L 89.303212 109.299214 
L 90.384607 117.804225 
L 91.466002 127.441665 
L 92.547398 135.946676 
L 93.628793 141.792079 
L 94.710188 144.920898 
L 95.791584 146.225183 
L 96.872979 146.648623 
L 99.03577 146.776767 
L 128.233444 146.773406 
L 129.31484 146.730405 
L 130.396235 146.512031 
L 131.47763 145.648345 
L 132.559026 142.988004 
L 133.640421 136.606177 
L 134.721816 124.683355 
L 135.803212 107.335752 
L 136.884607 87.678342 
L 137.966002 70.330738 
L 139.047398 58.407917 
L 140.128793 52.02609 
L 141.210188 49.365749 
L 142.291584 48.502063 
L 143.372979 48.283688 
L 146.617165 48.234094 
L 174.733444 48.283688 
L 175.81484 48.502063 
L 176.896235 49.365749 
L 177.97763 52.02609 
L 179.059026 58.407917 
L 180.140421 70.330738 
L 181.221816 87.678342 
L 182.303212 107.335752 
L 183.384607 124.683355 
L 184.466002 136.606177 
L 185.547398 142.988004 
L 186.628793 145.648345 
L 187.710188 146.512031 
L 188.791584 146.730405 
L 192.03577 146.78 
L 220.152049 146.729377 
L 221.233444 146.506473 
L 222.31484 145.624871 
L 223.396235 142.909346 
L 224.47763 136.395141 
L 225.559026 124.225003 
L 226.640421 106.517556 
L 227.721816 86.452391 
L 228.803212 68.744945 
L 229.884607 56.574807 
L 230.966002 50.060601 
L 232.047398 47.345077 
L 233.128793 46.463475 
L 234.210188 46.240571 
L 237.454374 46.189947 
L 265.570654 46.240571 
L 266.652049 46.463475 
L 267.733444 47.345077 
L 268.81484 50.060601 
L 269.896235 56.574807 
L 270.97763 68.744945 
L 272.059026 86.452391 
L 273.140421 106.517556 
L 274.221816 124.225003 
L 275.303212 136.395141 
L 276.384607 142.909346 
L 277.466002 145.624871 
L 278.547398 146.506473 
L 279.628793 146.729377 
L 282.872979 146.78 
L 314.038095 146.78 
L 314.038095 146.78 
" style="fill:none;stroke:#1764ab;stroke-linecap:square;stroke-width:2;"/>
   </g>
   <g id="patch_6">
    <path d="M 23.338095 149.3 
L 23.338095 10.7 
" style="fill:none;stroke:#000000;stroke-linecap:square;stroke-linejoin:miter;stroke-width:0.8;"/>
   </g>
   <g id="patch_7">
    <path d="M 302.338095 149.3 
L 302.338095 10.7 
" style="fill:none;stroke:#000000;stroke-linecap:square;stroke-linejoin:miter;stroke-width:0.8;"/>
   </g>
   <g id="patch_8">
    <path d="M 23.338095 149.3 
L 302.338095 149.3 
" style="fill:none;stroke:#000000;stroke-linecap:square;stroke-linejoin:miter;stroke-width:0.8;"/>
   </g>
   <g id="patch_9">
    <path d="M 23.338095 10.7 
L 302.338095 10.7 
" style="fill:none;stroke:#000000;stroke-linecap:square;stroke-linejoin:miter;stroke-width:0.8;"/>
   </g>
   <g id="line2d_41">
    <path clip-path="url(#p82e13b8f4c)" d="M 0.628793 146.78 
L 41.721816 146.688113 
L 42.803212 146.533469 
L 43.884607 146.244556 
L 48.210188 144.638575 
L 50.372979 144.419466 
L 56.861351 144.392044 
L 87.140421 144.483932 
L 88.221816 144.638575 
L 89.303212 144.927488 
L 93.628793 146.533469 
L 95.791584 146.752578 
L 102.279956 146.78 
L 129.31484 146.755354 
L 130.396235 146.646835 
L 131.47763 146.217631 
L 132.559026 144.895591 
L 133.640421 141.724182 
L 134.721816 135.799209 
L 135.803212 127.178425 
L 136.884607 117.409797 
L 137.966002 108.789014 
L 139.047398 102.864041 
L 140.128793 99.692632 
L 141.210188 98.370592 
L 142.291584 97.941388 
L 144.454374 97.8115 
L 173.652049 97.8115 
L 175.81484 97.941388 
L 176.896235 98.370592 
L 177.97763 99.692632 
L 179.059026 102.864041 
L 180.140421 108.789014 
L 181.221816 117.409797 
L 182.303212 127.178425 
L 183.384607 135.799209 
L 184.466002 141.724182 
L 185.547398 144.895591 
L 186.628793 146.217631 
L 187.710188 146.646835 
L 189.872979 146.776723 
L 219.070654 146.773851 
L 220.152049 146.733756 
L 221.233444 146.530135 
L 222.31484 145.7248 
L 223.396235 143.244193 
L 224.47763 137.293526 
L 225.559026 126.176215 
L 226.640421 110.000625 
L 227.721816 91.671279 
L 228.803212 75.495688 
L 229.884607 64.378378 
L 230.966002 58.42771 
L 232.047398 55.947103 
L 233.128793 55.141768 
L 234.210188 54.938147 
L 237.454374 54.891903 
L 265.570654 54.938147 
L 266.652049 55.141768 
L 267.733444 55.947103 
L 268.81484 58.42771 
L 269.896235 64.378378 
L 270.97763 75.495688 
L 272.059026 91.671279 
L 273.140421 110.000625 
L 274.221816 126.176215 
L 275.303212 137.293526 
L 276.384607 143.244193 
L 277.466002 145.7248 
L 278.547398 146.530135 
L 279.628793 146.733756 
L 282.872979 146.78 
L 314.038095 146.78 
L 314.038095 146.78 
" style="fill:none;stroke:#c54102;stroke-linecap:square;stroke-width:2;"/>
   </g>
   <g id="line2d_42">
    <path clip-path="url(#p82e13b8f4c)" d="M 0.628793 146.78 
L 40.640421 146.737939 
L 41.721816 146.63906 
L 42.803212 146.401863 
L 43.884607 145.958719 
L 48.210188 143.495415 
L 49.291584 143.258217 
L 51.454374 143.127237 
L 66.593909 143.117277 
L 86.059026 143.159338 
L 87.140421 143.258217 
L 88.221816 143.495415 
L 89.303212 143.938558 
L 93.628793 146.401863 
L 94.710188 146.63906 
L 96.872979 146.77004 
L 112.012514 146.78 
L 129.31484 146.748885 
L 130.396235 146.611879 
L 131.47763 146.070009 
L 132.559026 144.400933 
L 133.640421 140.397028 
L 134.721816 132.916749 
L 135.803212 122.033007 
L 136.884607 109.700111 
L 137.966002 98.816369 
L 139.047398 91.33609 
L 140.128793 87.332185 
L 141.210188 85.663109 
L 142.291584 85.121239 
L 144.454374 84.957255 
L 172.570654 84.953118 
L 174.733444 84.984233 
L 175.81484 85.121239 
L 176.896235 85.663109 
L 177.97763 87.332185 
L 179.059026 91.33609 
L 180.140421 98.816369 
L 181.221816 109.700111 
L 182.303212 122.033007 
L 183.384607 132.916749 
L 184.466002 140.397028 
L 185.547398 144.400933 
L 186.628793 146.070009 
L 187.710188 146.611879 
L 189.872979 146.775863 
L 217.989258 146.78 
L 220.152049 146.732037 
L 221.233444 146.520846 
L 222.31484 145.685569 
L 223.396235 143.112737 
L 224.47763 136.940832 
L 225.559026 125.410197 
L 226.640421 108.633221 
L 227.721816 89.622417 
L 228.803212 72.845441 
L 229.884607 61.314805 
L 230.966002 55.142901 
L 232.047398 52.570068 
L 233.128793 51.734792 
L 234.210188 51.523601 
L 237.454374 51.475638 
L 265.570654 51.523601 
L 266.652049 51.734792 
L 267.733444 52.570068 
L 268.81484 55.142901 
L 269.896235 61.314805 
L 270.97763 72.845441 
L 272.059026 89.622417 
L 273.140421 108.633221 
L 274.221816 125.410197 
L 275.303212 136.940832 
L 276.384607 143.112737 
L 277.466002 145.685569 
L 278.547398 146.520846 
L 279.628793 146.732037 
L 282.872979 146.78 
L 314.038095 146.78 
L 314.038095 146.78 
" style="fill:none;stroke:#157f3b;stroke-linecap:square;stroke-width:2;"/>
   </g>
  </g>
 </g>
 <defs>
  <clipPath id="p82e13b8f4c">
   <rect height="138.6" width="279" x="23.338095" y="10.7"/>
  </clipPath>
 </defs>
</svg>
