<?xml version="1.0" encoding="utf-8" standalone="no"?>
<!DOCTYPE svg PUBLIC "-//W3C//DTD SVG 1.1//EN"
  "http://www.w3.org/Graphics/SVG/1.1/DTD/svg11.dtd">
<!-- Created with matplotlib (http://matplotlib.org/) -->
<svg height="104pt" version="1.1" viewBox="0 0 133 104" width="133pt" xmlns="http://www.w3.org/2000/svg" xmlns:xlink="http://www.w3.org/1999/xlink">
 <defs>
  <style type="text/css">
*{stroke-linecap:butt;stroke-linejoin:round;}
  </style>
 </defs>
 <g id="figure_1">
  <g id="patch_1">
   <path d="M 0 104.56 
L 133 104.56 
L 133 0 
L 0 0 
z
" style="fill:#ffffff;"/>
  </g>
  <g id="axes_1">
   <g id="patch_2">
    <path d="M 10.7 93.86 
L 122.3 93.86 
L 122.3 10.7 
L 10.7 10.7 
z
" style="fill:#ffffff;"/>
   </g>
   <g id="patch_3">
    <path clip-path="url(#p99c59f67ae)" d="M 15.772727 87.7 
L 16.383899 87.7 
L 16.383899 84.692375 
L 15.772727 84.692375 
z
" style="fill:#1d1d1d;"/>
   </g>
   <g id="patch_4">
    <path clip-path="url(#p99c59f67ae)" d="M 16.282037 87.7 
L 16.893209 87.7 
L 16.893209 84.64555 
L 16.282037 84.64555 
z
" style="fill:#1d1d1d;"/>
   </g>
   <g id="patch_5">
    <path clip-path="url(#p99c59f67ae)" d="M 16.791347 87.7 
L 17.402519 87.7 
L 17.402519 84.524009 
L 16.791347 84.524009 
z
" style="fill:#1d1d1d;"/>
   </g>
   <g id="patch_6">
    <path clip-path="url(#p99c59f67ae)" d="M 17.300657 87.7 
L 17.911829 87.7 
L 17.911829 84.448395 
L 17.300657 84.448395 
z
" style="fill:#1d1d1d;"/>
   </g>
   <g id="patch_7">
    <path clip-path="url(#p99c59f67ae)" d="M 17.809967 87.7 
L 18.421139 87.7 
L 18.421139 84.440236 
L 17.809967 84.440236 
z
" style="fill:#1d1d1d;"/>
   </g>
   <g id="patch_8">
    <path clip-path="url(#p99c59f67ae)" d="M 18.319277 87.7 
L 18.930449 87.7 
L 18.930449 84.412044 
L 18.319277 84.412044 
z
" style="fill:#1d1d1d;"/>
   </g>
   <g id="patch_9">
    <path clip-path="url(#p99c59f67ae)" d="M 18.828587 87.7 
L 19.439759 87.7 
L 19.439759 84.405196 
L 18.828587 84.405196 
z
" style="fill:#1d1d1d;"/>
   </g>
   <g id="patch_10">
    <path clip-path="url(#p99c59f67ae)" d="M 19.337897 87.7 
L 19.949069 87.7 
L 19.949069 84.262473 
L 19.337897 84.262473 
z
" style="fill:#1d1d1d;"/>
   </g>
   <g id="patch_11">
    <path clip-path="url(#p99c59f67ae)" d="M 19.847207 87.7 
L 20.458379 87.7 
L 20.458379 84.257507 
L 19.847207 84.257507 
z
" style="fill:#1d1d1d;"/>
   </g>
   <g id="patch_12">
    <path clip-path="url(#p99c59f67ae)" d="M 20.356517 87.7 
L 20.967689 87.7 
L 20.967689 84.237653 
L 20.356517 84.237653 
z
" style="fill:#1d1d1d;"/>
   </g>
   <g id="patch_13">
    <path clip-path="url(#p99c59f67ae)" d="M 20.865827 87.7 
L 21.476999 87.7 
L 21.476999 84.224412 
L 20.865827 84.224412 
z
" style="fill:#1d1d1d;"/>
   </g>
   <g id="patch_14">
    <path clip-path="url(#p99c59f67ae)" d="M 21.375137 87.7 
L 21.986309 87.7 
L 21.986309 84.110294 
L 21.375137 84.110294 
z
" style="fill:#1d1d1d;"/>
   </g>
   <g id="patch_15">
    <path clip-path="url(#p99c59f67ae)" d="M 21.884447 87.7 
L 22.495619 87.7 
L 22.495619 84.086606 
L 21.884447 84.086606 
z
" style="fill:#1d1d1d;"/>
   </g>
   <g id="patch_16">
    <path clip-path="url(#p99c59f67ae)" d="M 22.393757 87.7 
L 23.004929 87.7 
L 23.004929 84.010499 
L 22.393757 84.010499 
z
" style="fill:#1d1d1d;"/>
   </g>
   <g id="patch_17">
    <path clip-path="url(#p99c59f67ae)" d="M 22.903067 87.7 
L 23.514239 87.7 
L 23.514239 83.955345 
L 22.903067 83.955345 
z
" style="fill:#1d1d1d;"/>
   </g>
   <g id="patch_18">
    <path clip-path="url(#p99c59f67ae)" d="M 23.412377 87.7 
L 24.023549 87.7 
L 24.023549 83.94946 
L 23.412377 83.94946 
z
" style="fill:#1d1d1d;"/>
   </g>
   <g id="patch_19">
    <path clip-path="url(#p99c59f67ae)" d="M 23.921687 87.7 
L 24.532859 87.7 
L 24.532859 83.752289 
L 23.921687 83.752289 
z
" style="fill:#1d1d1d;"/>
   </g>
   <g id="patch_20">
    <path clip-path="url(#p99c59f67ae)" d="M 24.430997 87.7 
L 25.042169 87.7 
L 25.042169 83.730837 
L 24.430997 83.730837 
z
" style="fill:#1d1d1d;"/>
   </g>
   <g id="patch_21">
    <path clip-path="url(#p99c59f67ae)" d="M 24.940307 87.7 
L 25.551479 87.7 
L 25.551479 83.710356 
L 24.940307 83.710356 
z
" style="fill:#1d1d1d;"/>
   </g>
   <g id="patch_22">
    <path clip-path="url(#p99c59f67ae)" d="M 25.449617 87.7 
L 26.060789 87.7 
L 26.060789 83.686555 
L 25.449617 83.686555 
z
" style="fill:#1d1d1d;"/>
   </g>
   <g id="patch_23">
    <path clip-path="url(#p99c59f67ae)" d="M 25.958927 87.7 
L 26.570099 87.7 
L 26.570099 83.648614 
L 25.958927 83.648614 
z
" style="fill:#1d1d1d;"/>
   </g>
   <g id="patch_24">
    <path clip-path="url(#p99c59f67ae)" d="M 26.468237 87.7 
L 27.079409 87.7 
L 27.079409 83.596645 
L 26.468237 83.596645 
z
" style="fill:#1d1d1d;"/>
   </g>
   <g id="patch_25">
    <path clip-path="url(#p99c59f67ae)" d="M 26.977547 87.7 
L 27.588719 87.7 
L 27.588719 83.528903 
L 26.977547 83.528903 
z
" style="fill:#1d1d1d;"/>
   </g>
   <g id="patch_26">
    <path clip-path="url(#p99c59f67ae)" d="M 27.486857 87.7 
L 28.098028 87.7 
L 28.098028 83.524873 
L 27.486857 83.524873 
z
" style="fill:#1d1d1d;"/>
   </g>
   <g id="patch_27">
    <path clip-path="url(#p99c59f67ae)" d="M 27.996166 87.7 
L 28.607338 87.7 
L 28.607338 83.498872 
L 27.996166 83.498872 
z
" style="fill:#1d1d1d;"/>
   </g>
   <g id="patch_28">
    <path clip-path="url(#p99c59f67ae)" d="M 28.505476 87.7 
L 29.116648 87.7 
L 29.116648 83.494492 
L 28.505476 83.494492 
z
" style="fill:#1d1d1d;"/>
   </g>
   <g id="patch_29">
    <path clip-path="url(#p99c59f67ae)" d="M 29.014786 87.7 
L 29.625958 87.7 
L 29.625958 83.481297 
L 29.014786 83.481297 
z
" style="fill:#1d1d1d;"/>
   </g>
   <g id="patch_30">
    <path clip-path="url(#p99c59f67ae)" d="M 29.524096 87.7 
L 30.135268 87.7 
L 30.135268 83.415612 
L 29.524096 83.415612 
z
" style="fill:#1d1d1d;"/>
   </g>
   <g id="patch_31">
    <path clip-path="url(#p99c59f67ae)" d="M 30.033406 87.7 
L 30.644578 87.7 
L 30.644578 83.303726 
L 30.033406 83.303726 
z
" style="fill:#1d1d1d;"/>
   </g>
   <g id="patch_32">
    <path clip-path="url(#p99c59f67ae)" d="M 30.542716 87.7 
L 31.153888 87.7 
L 31.153888 83.261522 
L 30.542716 83.261522 
z
" style="fill:#1d1d1d;"/>
   </g>
   <g id="patch_33">
    <path clip-path="url(#p99c59f67ae)" d="M 31.052026 87.7 
L 31.663198 87.7 
L 31.663198 83.227203 
L 31.052026 83.227203 
z
" style="fill:#1d1d1d;"/>
   </g>
   <g id="patch_34">
    <path clip-path="url(#p99c59f67ae)" d="M 31.561336 87.7 
L 32.172508 87.7 
L 32.172508 83.175986 
L 31.561336 83.175986 
z
" style="fill:#1d1d1d;"/>
   </g>
   <g id="patch_35">
    <path clip-path="url(#p99c59f67ae)" d="M 32.070646 87.7 
L 32.681818 87.7 
L 32.681818 83.171947 
L 32.070646 83.171947 
z
" style="fill:#1d1d1d;"/>
   </g>
   <g id="patch_36">
    <path clip-path="url(#p99c59f67ae)" d="M 32.579956 87.7 
L 33.191128 87.7 
L 33.191128 83.155805 
L 32.579956 83.155805 
z
" style="fill:#1d1d1d;"/>
   </g>
   <g id="patch_37">
    <path clip-path="url(#p99c59f67ae)" d="M 33.089266 87.7 
L 33.700438 87.7 
L 33.700438 83.061546 
L 33.089266 83.061546 
z
" style="fill:#1d1d1d;"/>
   </g>
   <g id="patch_38">
    <path clip-path="url(#p99c59f67ae)" d="M 33.598576 87.7 
L 34.209748 87.7 
L 34.209748 83.058194 
L 33.598576 83.058194 
z
" style="fill:#1d1d1d;"/>
   </g>
   <g id="patch_39">
    <path clip-path="url(#p99c59f67ae)" d="M 34.107886 87.7 
L 34.719058 87.7 
L 34.719058 83.01176 
L 34.107886 83.01176 
z
" style="fill:#1d1d1d;"/>
   </g>
   <g id="patch_40">
    <path clip-path="url(#p99c59f67ae)" d="M 34.617196 87.7 
L 35.228368 87.7 
L 35.228368 83.00009 
L 34.617196 83.00009 
z
" style="fill:#1d1d1d;"/>
   </g>
   <g id="patch_41">
    <path clip-path="url(#p99c59f67ae)" d="M 35.126506 87.7 
L 35.737678 87.7 
L 35.737678 82.955636 
L 35.126506 82.955636 
z
" style="fill:#1d1d1d;"/>
   </g>
   <g id="patch_42">
    <path clip-path="url(#p99c59f67ae)" d="M 35.635816 87.7 
L 36.246988 87.7 
L 36.246988 82.946409 
L 35.635816 82.946409 
z
" style="fill:#1d1d1d;"/>
   </g>
   <g id="patch_43">
    <path clip-path="url(#p99c59f67ae)" d="M 36.145126 87.7 
L 36.756298 87.7 
L 36.756298 82.739388 
L 36.145126 82.739388 
z
" style="fill:#1d1d1d;"/>
   </g>
   <g id="patch_44">
    <path clip-path="url(#p99c59f67ae)" d="M 36.654436 87.7 
L 37.265608 87.7 
L 37.265608 82.519566 
L 36.654436 82.519566 
z
" style="fill:#1d1d1d;"/>
   </g>
   <g id="patch_45">
    <path clip-path="url(#p99c59f67ae)" d="M 37.163746 87.7 
L 37.774918 87.7 
L 37.774918 82.49843 
L 37.163746 82.49843 
z
" style="fill:#1d1d1d;"/>
   </g>
   <g id="patch_46">
    <path clip-path="url(#p99c59f67ae)" d="M 37.673056 87.7 
L 38.284228 87.7 
L 38.284228 82.477818 
L 37.673056 82.477818 
z
" style="fill:#1d1d1d;"/>
   </g>
   <g id="patch_47">
    <path clip-path="url(#p99c59f67ae)" d="M 38.182366 87.7 
L 38.793538 87.7 
L 38.793538 82.449274 
L 38.182366 82.449274 
z
" style="fill:#1d1d1d;"/>
   </g>
   <g id="patch_48">
    <path clip-path="url(#p99c59f67ae)" d="M 38.691676 87.7 
L 39.302848 87.7 
L 39.302848 82.425787 
L 38.691676 82.425787 
z
" style="fill:#1d1d1d;"/>
   </g>
   <g id="patch_49">
    <path clip-path="url(#p99c59f67ae)" d="M 39.200986 87.7 
L 39.812158 87.7 
L 39.812158 82.397139 
L 39.200986 82.397139 
z
" style="fill:#1d1d1d;"/>
   </g>
   <g id="patch_50">
    <path clip-path="url(#p99c59f67ae)" d="M 39.710296 87.7 
L 40.321468 87.7 
L 40.321468 82.375422 
L 39.710296 82.375422 
z
" style="fill:#1d1d1d;"/>
   </g>
   <g id="patch_51">
    <path clip-path="url(#p99c59f67ae)" d="M 40.219606 87.7 
L 40.830778 87.7 
L 40.830778 82.360456 
L 40.219606 82.360456 
z
" style="fill:#1d1d1d;"/>
   </g>
   <g id="patch_52">
    <path clip-path="url(#p99c59f67ae)" d="M 40.728916 87.7 
L 41.340088 87.7 
L 41.340088 82.221511 
L 40.728916 82.221511 
z
" style="fill:#1d1d1d;"/>
   </g>
   <g id="patch_53">
    <path clip-path="url(#p99c59f67ae)" d="M 41.238226 87.7 
L 41.849398 87.7 
L 41.849398 82.200494 
L 41.238226 82.200494 
z
" style="fill:#1d1d1d;"/>
   </g>
   <g id="patch_54">
    <path clip-path="url(#p99c59f67ae)" d="M 41.747536 87.7 
L 42.358708 87.7 
L 42.358708 82.175104 
L 41.747536 82.175104 
z
" style="fill:#1d1d1d;"/>
   </g>
   <g id="patch_55">
    <path clip-path="url(#p99c59f67ae)" d="M 42.256846 87.7 
L 42.868018 87.7 
L 42.868018 82.15377 
L 42.256846 82.15377 
z
" style="fill:#1d1d1d;"/>
   </g>
   <g id="patch_56">
    <path clip-path="url(#p99c59f67ae)" d="M 42.766156 87.7 
L 43.377327 87.7 
L 43.377327 81.93919 
L 42.766156 81.93919 
z
" style="fill:#1d1d1d;"/>
   </g>
   <g id="patch_57">
    <path clip-path="url(#p99c59f67ae)" d="M 43.275465 87.7 
L 43.886637 87.7 
L 43.886637 81.76986 
L 43.275465 81.76986 
z
" style="fill:#1d1d1d;"/>
   </g>
   <g id="patch_58">
    <path clip-path="url(#p99c59f67ae)" d="M 43.784775 87.7 
L 44.395947 87.7 
L 44.395947 81.718911 
L 43.784775 81.718911 
z
" style="fill:#1d1d1d;"/>
   </g>
   <g id="patch_59">
    <path clip-path="url(#p99c59f67ae)" d="M 44.294085 87.7 
L 44.905257 87.7 
L 44.905257 81.553898 
L 44.294085 81.553898 
z
" style="fill:#1d1d1d;"/>
   </g>
   <g id="patch_60">
    <path clip-path="url(#p99c59f67ae)" d="M 44.803395 87.7 
L 45.414567 87.7 
L 45.414567 81.306758 
L 44.803395 81.306758 
z
" style="fill:#1d1d1d;"/>
   </g>
   <g id="patch_61">
    <path clip-path="url(#p99c59f67ae)" d="M 45.312705 87.7 
L 45.923877 87.7 
L 45.923877 81.262197 
L 45.312705 81.262197 
z
" style="fill:#1d1d1d;"/>
   </g>
   <g id="patch_62">
    <path clip-path="url(#p99c59f67ae)" d="M 45.822015 87.7 
L 46.433187 87.7 
L 46.433187 80.435947 
L 45.822015 80.435947 
z
" style="fill:#1d1d1d;"/>
   </g>
   <g id="patch_63">
    <path clip-path="url(#p99c59f67ae)" d="M 46.331325 87.7 
L 46.942497 87.7 
L 46.942497 80.398927 
L 46.331325 80.398927 
z
" style="fill:#1d1d1d;"/>
   </g>
   <g id="patch_64">
    <path clip-path="url(#p99c59f67ae)" d="M 46.840635 87.7 
L 47.451807 87.7 
L 47.451807 80.32625 
L 46.840635 80.32625 
z
" style="fill:#1d1d1d;"/>
   </g>
   <g id="patch_65">
    <path clip-path="url(#p99c59f67ae)" d="M 47.349945 87.7 
L 47.961117 87.7 
L 47.961117 80.074923 
L 47.349945 80.074923 
z
" style="fill:#1d1d1d;"/>
   </g>
   <g id="patch_66">
    <path clip-path="url(#p99c59f67ae)" d="M 47.859255 87.7 
L 48.470427 87.7 
L 48.470427 79.994171 
L 47.859255 79.994171 
z
" style="fill:#1d1d1d;"/>
   </g>
   <g id="patch_67">
    <path clip-path="url(#p99c59f67ae)" d="M 48.368565 87.7 
L 48.979737 87.7 
L 48.979737 79.892743 
L 48.368565 79.892743 
z
" style="fill:#1d1d1d;"/>
   </g>
   <g id="patch_68">
    <path clip-path="url(#p99c59f67ae)" d="M 48.877875 87.7 
L 49.489047 87.7 
L 49.489047 79.766817 
L 48.877875 79.766817 
z
" style="fill:#1d1d1d;"/>
   </g>
   <g id="patch_69">
    <path clip-path="url(#p99c59f67ae)" d="M 49.387185 87.7 
L 49.998357 87.7 
L 49.998357 79.630129 
L 49.387185 79.630129 
z
" style="fill:#1d1d1d;"/>
   </g>
   <g id="patch_70">
    <path clip-path="url(#p99c59f67ae)" d="M 49.896495 87.7 
L 50.507667 87.7 
L 50.507667 79.528029 
L 49.896495 79.528029 
z
" style="fill:#1d1d1d;"/>
   </g>
   <g id="patch_71">
    <path clip-path="url(#p99c59f67ae)" d="M 50.405805 87.7 
L 51.016977 87.7 
L 51.016977 79.144087 
L 50.405805 79.144087 
z
" style="fill:#1d1d1d;"/>
   </g>
   <g id="patch_72">
    <path clip-path="url(#p99c59f67ae)" d="M 50.915115 87.7 
L 51.526287 87.7 
L 51.526287 78.222863 
L 50.915115 78.222863 
z
" style="fill:#1d1d1d;"/>
   </g>
   <g id="patch_73">
    <path clip-path="url(#p99c59f67ae)" d="M 51.424425 87.7 
L 52.035597 87.7 
L 52.035597 77.430982 
L 51.424425 77.430982 
z
" style="fill:#1d1d1d;"/>
   </g>
   <g id="patch_74">
    <path clip-path="url(#p99c59f67ae)" d="M 51.933735 87.7 
L 52.544907 87.7 
L 52.544907 77.427383 
L 51.933735 77.427383 
z
" style="fill:#1d1d1d;"/>
   </g>
   <g id="patch_75">
    <path clip-path="url(#p99c59f67ae)" d="M 52.443045 87.7 
L 53.054217 87.7 
L 53.054217 77.241852 
L 52.443045 77.241852 
z
" style="fill:#1d1d1d;"/>
   </g>
   <g id="patch_76">
    <path clip-path="url(#p99c59f67ae)" d="M 52.952355 87.7 
L 53.563527 87.7 
L 53.563527 76.698369 
L 52.952355 76.698369 
z
" style="fill:#1d1d1d;"/>
   </g>
   <g id="patch_77">
    <path clip-path="url(#p99c59f67ae)" d="M 53.461665 87.7 
L 54.072837 87.7 
L 54.072837 76.279637 
L 53.461665 76.279637 
z
" style="fill:#1d1d1d;"/>
   </g>
   <g id="patch_78">
    <path clip-path="url(#p99c59f67ae)" d="M 53.970975 87.7 
L 54.582147 87.7 
L 54.582147 76.054688 
L 53.970975 76.054688 
z
" style="fill:#1d1d1d;"/>
   </g>
   <g id="patch_79">
    <path clip-path="url(#p99c59f67ae)" d="M 54.480285 87.7 
L 55.091457 87.7 
L 55.091457 75.837586 
L 54.480285 75.837586 
z
" style="fill:#1d1d1d;"/>
   </g>
   <g id="patch_80">
    <path clip-path="url(#p99c59f67ae)" d="M 54.989595 87.7 
L 55.600767 87.7 
L 55.600767 75.738773 
L 54.989595 75.738773 
z
" style="fill:#1d1d1d;"/>
   </g>
   <g id="patch_81">
    <path clip-path="url(#p99c59f67ae)" d="M 55.498905 87.7 
L 56.110077 87.7 
L 56.110077 74.980489 
L 55.498905 74.980489 
z
" style="fill:#1d1d1d;"/>
   </g>
   <g id="patch_82">
    <path clip-path="url(#p99c59f67ae)" d="M 56.008215 87.7 
L 56.619387 87.7 
L 56.619387 74.718036 
L 56.008215 74.718036 
z
" style="fill:#1d1d1d;"/>
   </g>
   <g id="patch_83">
    <path clip-path="url(#p99c59f67ae)" d="M 56.517525 87.7 
L 57.128697 87.7 
L 57.128697 74.117831 
L 56.517525 74.117831 
z
" style="fill:#1d1d1d;"/>
   </g>
   <g id="patch_84">
    <path clip-path="url(#p99c59f67ae)" d="M 57.026835 87.7 
L 57.638007 87.7 
L 57.638007 72.294091 
L 57.026835 72.294091 
z
" style="fill:#1d1d1d;"/>
   </g>
   <g id="patch_85">
    <path clip-path="url(#p99c59f67ae)" d="M 57.536145 87.7 
L 58.147317 87.7 
L 58.147317 72.175815 
L 57.536145 72.175815 
z
" style="fill:#1d1d1d;"/>
   </g>
   <g id="patch_86">
    <path clip-path="url(#p99c59f67ae)" d="M 58.045455 87.7 
L 58.656627 87.7 
L 58.656627 70.04392 
L 58.045455 70.04392 
z
" style="fill:#1d1d1d;"/>
   </g>
   <g id="patch_87">
    <path clip-path="url(#p99c59f67ae)" d="M 58.554765 87.7 
L 59.165936 87.7 
L 59.165936 69.934325 
L 58.554765 69.934325 
z
" style="fill:#1d1d1d;"/>
   </g>
   <g id="patch_88">
    <path clip-path="url(#p99c59f67ae)" d="M 59.064074 87.7 
L 59.675246 87.7 
L 59.675246 66.173887 
L 59.064074 66.173887 
z
" style="fill:#1d1d1d;"/>
   </g>
   <g id="patch_89">
    <path clip-path="url(#p99c59f67ae)" d="M 59.573384 87.7 
L 60.184556 87.7 
L 60.184556 65.475457 
L 59.573384 65.475457 
z
" style="fill:#1d1d1d;"/>
   </g>
   <g id="patch_90">
    <path clip-path="url(#p99c59f67ae)" d="M 60.082694 87.7 
L 60.693866 87.7 
L 60.693866 65.213872 
L 60.082694 65.213872 
z
" style="fill:#1d1d1d;"/>
   </g>
   <g id="patch_91">
    <path clip-path="url(#p99c59f67ae)" d="M 60.592004 87.7 
L 61.203176 87.7 
L 61.203176 64.420605 
L 60.592004 64.420605 
z
" style="fill:#1d1d1d;"/>
   </g>
   <g id="patch_92">
    <path clip-path="url(#p99c59f67ae)" d="M 61.101314 87.7 
L 61.712486 87.7 
L 61.712486 61.790879 
L 61.101314 61.790879 
z
" style="fill:#1d1d1d;"/>
   </g>
   <g id="patch_93">
    <path clip-path="url(#p99c59f67ae)" d="M 61.610624 87.7 
L 62.221796 87.7 
L 62.221796 61.483808 
L 61.610624 61.483808 
z
" style="fill:#1d1d1d;"/>
   </g>
   <g id="patch_94">
    <path clip-path="url(#p99c59f67ae)" d="M 62.119934 87.7 
L 62.731106 87.7 
L 62.731106 60.671616 
L 62.119934 60.671616 
z
" style="fill:#1d1d1d;"/>
   </g>
   <g id="patch_95">
    <path clip-path="url(#p99c59f67ae)" d="M 62.629244 87.7 
L 63.240416 87.7 
L 63.240416 59.321054 
L 62.629244 59.321054 
z
" style="fill:#1d1d1d;"/>
   </g>
   <g id="patch_96">
    <path clip-path="url(#p99c59f67ae)" d="M 63.138554 87.7 
L 63.749726 87.7 
L 63.749726 56.078845 
L 63.138554 56.078845 
z
" style="fill:#1d1d1d;"/>
   </g>
   <g id="patch_97">
    <path clip-path="url(#p99c59f67ae)" d="M 63.647864 87.7 
L 64.259036 87.7 
L 64.259036 53.101795 
L 63.647864 53.101795 
z
" style="fill:#1d1d1d;"/>
   </g>
   <g id="patch_98">
    <path clip-path="url(#p99c59f67ae)" d="M 64.157174 87.7 
L 64.768346 87.7 
L 64.768346 50.446894 
L 64.157174 50.446894 
z
" style="fill:#1d1d1d;"/>
   </g>
   <g id="patch_99">
    <path clip-path="url(#p99c59f67ae)" d="M 64.666484 87.7 
L 65.277656 87.7 
L 65.277656 46.899451 
L 64.666484 46.899451 
z
" style="fill:#1d1d1d;"/>
   </g>
   <g id="patch_100">
    <path clip-path="url(#p99c59f67ae)" d="M 65.175794 87.7 
L 65.786966 87.7 
L 65.786966 44.359288 
L 65.175794 44.359288 
z
" style="fill:#1d1d1d;"/>
   </g>
   <g id="patch_101">
    <path clip-path="url(#p99c59f67ae)" d="M 65.685104 87.7 
L 66.296276 87.7 
L 66.296276 41.139314 
L 65.685104 41.139314 
z
" style="fill:#1d1d1d;"/>
   </g>
   <g id="patch_102">
    <path clip-path="url(#p99c59f67ae)" d="M 66.194414 87.7 
L 66.805586 87.7 
L 66.805586 24.373615 
L 66.194414 24.373615 
z
" style="fill:#1d1d1d;"/>
   </g>
   <g id="patch_103">
    <path clip-path="url(#p99c59f67ae)" d="M 66.194414 87.7 
L 66.805586 87.7 
L 66.805586 24.373615 
L 66.194414 24.373615 
z
" style="fill:#1d1d1d;"/>
   </g>
   <g id="patch_104">
    <path clip-path="url(#p99c59f67ae)" d="M 66.703724 87.7 
L 67.314896 87.7 
L 67.314896 19.72534 
L 66.703724 19.72534 
z
" style="fill:#1d1d1d;"/>
   </g>
   <g id="patch_105">
    <path clip-path="url(#p99c59f67ae)" d="M 67.213034 87.7 
L 67.824206 87.7 
L 67.824206 28.855024 
L 67.213034 28.855024 
z
" style="fill:#1d1d1d;"/>
   </g>
   <g id="patch_106">
    <path clip-path="url(#p99c59f67ae)" d="M 67.722344 87.7 
L 68.333516 87.7 
L 68.333516 31.247317 
L 67.722344 31.247317 
z
" style="fill:#1d1d1d;"/>
   </g>
   <g id="patch_107">
    <path clip-path="url(#p99c59f67ae)" d="M 68.231654 87.7 
L 68.842826 87.7 
L 68.842826 36.87931 
L 68.231654 36.87931 
z
" style="fill:#1d1d1d;"/>
   </g>
   <g id="patch_108">
    <path clip-path="url(#p99c59f67ae)" d="M 68.740964 87.7 
L 69.352136 87.7 
L 69.352136 48.454246 
L 68.740964 48.454246 
z
" style="fill:#1d1d1d;"/>
   </g>
   <g id="patch_109">
    <path clip-path="url(#p99c59f67ae)" d="M 69.250274 87.7 
L 69.861446 87.7 
L 69.861446 50.004338 
L 69.250274 50.004338 
z
" style="fill:#1d1d1d;"/>
   </g>
   <g id="patch_110">
    <path clip-path="url(#p99c59f67ae)" d="M 69.759584 87.7 
L 70.370756 87.7 
L 70.370756 55.761016 
L 69.759584 55.761016 
z
" style="fill:#1d1d1d;"/>
   </g>
   <g id="patch_111">
    <path clip-path="url(#p99c59f67ae)" d="M 70.268894 87.7 
L 70.880066 87.7 
L 70.880066 56.991628 
L 70.268894 56.991628 
z
" style="fill:#1d1d1d;"/>
   </g>
   <g id="patch_112">
    <path clip-path="url(#p99c59f67ae)" d="M 70.778204 87.7 
L 71.389376 87.7 
L 71.389376 57.912438 
L 70.778204 57.912438 
z
" style="fill:#1d1d1d;"/>
   </g>
   <g id="patch_113">
    <path clip-path="url(#p99c59f67ae)" d="M 71.287514 87.7 
L 71.898686 87.7 
L 71.898686 58.171128 
L 71.287514 58.171128 
z
" style="fill:#1d1d1d;"/>
   </g>
   <g id="patch_114">
    <path clip-path="url(#p99c59f67ae)" d="M 71.796824 87.7 
L 72.407996 87.7 
L 72.407996 59.733566 
L 71.796824 59.733566 
z
" style="fill:#1d1d1d;"/>
   </g>
   <g id="patch_115">
    <path clip-path="url(#p99c59f67ae)" d="M 72.306134 87.7 
L 72.917306 87.7 
L 72.917306 61.131768 
L 72.306134 61.131768 
z
" style="fill:#1d1d1d;"/>
   </g>
   <g id="patch_116">
    <path clip-path="url(#p99c59f67ae)" d="M 72.815444 87.7 
L 73.426616 87.7 
L 73.426616 61.6472 
L 72.815444 61.6472 
z
" style="fill:#1d1d1d;"/>
   </g>
   <g id="patch_117">
    <path clip-path="url(#p99c59f67ae)" d="M 73.324754 87.7 
L 73.935926 87.7 
L 73.935926 62.400618 
L 73.324754 62.400618 
z
" style="fill:#1d1d1d;"/>
   </g>
   <g id="patch_118">
    <path clip-path="url(#p99c59f67ae)" d="M 73.834064 87.7 
L 74.445235 87.7 
L 74.445235 66.94381 
L 73.834064 66.94381 
z
" style="fill:#1d1d1d;"/>
   </g>
   <g id="patch_119">
    <path clip-path="url(#p99c59f67ae)" d="M 74.343373 87.7 
L 74.954545 87.7 
L 74.954545 67.372649 
L 74.343373 67.372649 
z
" style="fill:#1d1d1d;"/>
   </g>
   <g id="patch_120">
    <path clip-path="url(#p99c59f67ae)" d="M 74.852683 87.7 
L 75.463855 87.7 
L 75.463855 67.399096 
L 74.852683 67.399096 
z
" style="fill:#1d1d1d;"/>
   </g>
   <g id="patch_121">
    <path clip-path="url(#p99c59f67ae)" d="M 75.361993 87.7 
L 75.973165 87.7 
L 75.973165 69.995369 
L 75.361993 69.995369 
z
" style="fill:#1d1d1d;"/>
   </g>
   <g id="patch_122">
    <path clip-path="url(#p99c59f67ae)" d="M 75.871303 87.7 
L 76.482475 87.7 
L 76.482475 70.666423 
L 75.871303 70.666423 
z
" style="fill:#1d1d1d;"/>
   </g>
   <g id="patch_123">
    <path clip-path="url(#p99c59f67ae)" d="M 76.380613 87.7 
L 76.991785 87.7 
L 76.991785 71.150509 
L 76.380613 71.150509 
z
" style="fill:#1d1d1d;"/>
   </g>
   <g id="patch_124">
    <path clip-path="url(#p99c59f67ae)" d="M 76.889923 87.7 
L 77.501095 87.7 
L 77.501095 72.600366 
L 76.889923 72.600366 
z
" style="fill:#1d1d1d;"/>
   </g>
   <g id="patch_125">
    <path clip-path="url(#p99c59f67ae)" d="M 77.399233 87.7 
L 78.010405 87.7 
L 78.010405 72.995361 
L 77.399233 72.995361 
z
" style="fill:#1d1d1d;"/>
   </g>
   <g id="patch_126">
    <path clip-path="url(#p99c59f67ae)" d="M 77.908543 87.7 
L 78.519715 87.7 
L 78.519715 73.67347 
L 77.908543 73.67347 
z
" style="fill:#1d1d1d;"/>
   </g>
   <g id="patch_127">
    <path clip-path="url(#p99c59f67ae)" d="M 78.417853 87.7 
L 79.029025 87.7 
L 79.029025 74.291202 
L 78.417853 74.291202 
z
" style="fill:#1d1d1d;"/>
   </g>
   <g id="patch_128">
    <path clip-path="url(#p99c59f67ae)" d="M 78.927163 87.7 
L 79.538335 87.7 
L 79.538335 76.065813 
L 78.927163 76.065813 
z
" style="fill:#1d1d1d;"/>
   </g>
   <g id="patch_129">
    <path clip-path="url(#p99c59f67ae)" d="M 79.436473 87.7 
L 80.047645 87.7 
L 80.047645 76.10795 
L 79.436473 76.10795 
z
" style="fill:#1d1d1d;"/>
   </g>
   <g id="patch_130">
    <path clip-path="url(#p99c59f67ae)" d="M 79.945783 87.7 
L 80.556955 87.7 
L 80.556955 76.140993 
L 79.945783 76.140993 
z
" style="fill:#1d1d1d;"/>
   </g>
   <g id="patch_131">
    <path clip-path="url(#p99c59f67ae)" d="M 80.455093 87.7 
L 81.066265 87.7 
L 81.066265 76.167532 
L 80.455093 76.167532 
z
" style="fill:#1d1d1d;"/>
   </g>
   <g id="patch_132">
    <path clip-path="url(#p99c59f67ae)" d="M 80.964403 87.7 
L 81.575575 87.7 
L 81.575575 77.628731 
L 80.964403 77.628731 
z
" style="fill:#1d1d1d;"/>
   </g>
   <g id="patch_133">
    <path clip-path="url(#p99c59f67ae)" d="M 81.473713 87.7 
L 82.084885 87.7 
L 82.084885 77.744979 
L 81.473713 77.744979 
z
" style="fill:#1d1d1d;"/>
   </g>
   <g id="patch_134">
    <path clip-path="url(#p99c59f67ae)" d="M 81.983023 87.7 
L 82.594195 87.7 
L 82.594195 78.172412 
L 81.983023 78.172412 
z
" style="fill:#1d1d1d;"/>
   </g>
   <g id="patch_135">
    <path clip-path="url(#p99c59f67ae)" d="M 82.492333 87.7 
L 83.103505 87.7 
L 83.103505 78.68518 
L 82.492333 78.68518 
z
" style="fill:#1d1d1d;"/>
   </g>
   <g id="patch_136">
    <path clip-path="url(#p99c59f67ae)" d="M 83.001643 87.7 
L 83.612815 87.7 
L 83.612815 78.945746 
L 83.001643 78.945746 
z
" style="fill:#1d1d1d;"/>
   </g>
   <g id="patch_137">
    <path clip-path="url(#p99c59f67ae)" d="M 83.510953 87.7 
L 84.122125 87.7 
L 84.122125 79.679526 
L 83.510953 79.679526 
z
" style="fill:#1d1d1d;"/>
   </g>
   <g id="patch_138">
    <path clip-path="url(#p99c59f67ae)" d="M 84.020263 87.7 
L 84.631435 87.7 
L 84.631435 79.886049 
L 84.020263 79.886049 
z
" style="fill:#1d1d1d;"/>
   </g>
   <g id="patch_139">
    <path clip-path="url(#p99c59f67ae)" d="M 84.529573 87.7 
L 85.140745 87.7 
L 85.140745 80.047947 
L 84.529573 80.047947 
z
" style="fill:#1d1d1d;"/>
   </g>
   <g id="patch_140">
    <path clip-path="url(#p99c59f67ae)" d="M 85.038883 87.7 
L 85.650055 87.7 
L 85.650055 80.111472 
L 85.038883 80.111472 
z
" style="fill:#1d1d1d;"/>
   </g>
   <g id="patch_141">
    <path clip-path="url(#p99c59f67ae)" d="M 85.548193 87.7 
L 86.159365 87.7 
L 86.159365 80.519301 
L 85.548193 80.519301 
z
" style="fill:#1d1d1d;"/>
   </g>
   <g id="patch_142">
    <path clip-path="url(#p99c59f67ae)" d="M 86.057503 87.7 
L 86.668675 87.7 
L 86.668675 81.112632 
L 86.057503 81.112632 
z
" style="fill:#1d1d1d;"/>
   </g>
   <g id="patch_143">
    <path clip-path="url(#p99c59f67ae)" d="M 86.566813 87.7 
L 87.177985 87.7 
L 87.177985 81.603702 
L 86.566813 81.603702 
z
" style="fill:#1d1d1d;"/>
   </g>
   <g id="patch_144">
    <path clip-path="url(#p99c59f67ae)" d="M 87.076123 87.7 
L 87.687295 87.7 
L 87.687295 81.668856 
L 87.076123 81.668856 
z
" style="fill:#1d1d1d;"/>
   </g>
   <g id="patch_145">
    <path clip-path="url(#p99c59f67ae)" d="M 87.585433 87.7 
L 88.196605 87.7 
L 88.196605 81.717722 
L 87.585433 81.717722 
z
" style="fill:#1d1d1d;"/>
   </g>
   <g id="patch_146">
    <path clip-path="url(#p99c59f67ae)" d="M 88.094743 87.7 
L 88.705915 87.7 
L 88.705915 81.934824 
L 88.094743 81.934824 
z
" style="fill:#1d1d1d;"/>
   </g>
   <g id="patch_147">
    <path clip-path="url(#p99c59f67ae)" d="M 88.604053 87.7 
L 89.215225 87.7 
L 89.215225 82.086202 
L 88.604053 82.086202 
z
" style="fill:#1d1d1d;"/>
   </g>
   <g id="patch_148">
    <path clip-path="url(#p99c59f67ae)" d="M 89.113363 87.7 
L 89.724535 87.7 
L 89.724535 82.190833 
L 89.113363 82.190833 
z
" style="fill:#1d1d1d;"/>
   </g>
   <g id="patch_149">
    <path clip-path="url(#p99c59f67ae)" d="M 89.622673 87.7 
L 90.233844 87.7 
L 90.233844 82.279367 
L 89.622673 82.279367 
z
" style="fill:#1d1d1d;"/>
   </g>
   <g id="patch_150">
    <path clip-path="url(#p99c59f67ae)" d="M 90.131982 87.7 
L 90.743154 87.7 
L 90.743154 82.348778 
L 90.131982 82.348778 
z
" style="fill:#1d1d1d;"/>
   </g>
   <g id="patch_151">
    <path clip-path="url(#p99c59f67ae)" d="M 90.641292 87.7 
L 91.252464 87.7 
L 91.252464 82.356168 
L 90.641292 82.356168 
z
" style="fill:#1d1d1d;"/>
   </g>
   <g id="patch_152">
    <path clip-path="url(#p99c59f67ae)" d="M 91.150602 87.7 
L 91.761774 87.7 
L 91.761774 82.367437 
L 91.150602 82.367437 
z
" style="fill:#1d1d1d;"/>
   </g>
   <g id="patch_153">
    <path clip-path="url(#p99c59f67ae)" d="M 91.659912 87.7 
L 92.271084 87.7 
L 92.271084 82.515921 
L 91.659912 82.515921 
z
" style="fill:#1d1d1d;"/>
   </g>
   <g id="patch_154">
    <path clip-path="url(#p99c59f67ae)" d="M 92.169222 87.7 
L 92.780394 87.7 
L 92.780394 82.534114 
L 92.169222 82.534114 
z
" style="fill:#1d1d1d;"/>
   </g>
   <g id="patch_155">
    <path clip-path="url(#p99c59f67ae)" d="M 92.678532 87.7 
L 93.289704 87.7 
L 93.289704 82.78652 
L 92.678532 82.78652 
z
" style="fill:#1d1d1d;"/>
   </g>
   <g id="patch_156">
    <path clip-path="url(#p99c59f67ae)" d="M 93.187842 87.7 
L 93.799014 87.7 
L 93.799014 82.804935 
L 93.187842 82.804935 
z
" style="fill:#1d1d1d;"/>
   </g>
   <g id="patch_157">
    <path clip-path="url(#p99c59f67ae)" d="M 93.697152 87.7 
L 94.308324 87.7 
L 94.308324 82.943768 
L 93.697152 82.943768 
z
" style="fill:#1d1d1d;"/>
   </g>
   <g id="patch_158">
    <path clip-path="url(#p99c59f67ae)" d="M 94.206462 87.7 
L 94.817634 87.7 
L 94.817634 82.957619 
L 94.206462 82.957619 
z
" style="fill:#1d1d1d;"/>
   </g>
   <g id="patch_159">
    <path clip-path="url(#p99c59f67ae)" d="M 94.715772 87.7 
L 95.326944 87.7 
L 95.326944 82.974061 
L 94.715772 82.974061 
z
" style="fill:#1d1d1d;"/>
   </g>
   <g id="patch_160">
    <path clip-path="url(#p99c59f67ae)" d="M 95.225082 87.7 
L 95.836254 87.7 
L 95.836254 83.032947 
L 95.225082 83.032947 
z
" style="fill:#1d1d1d;"/>
   </g>
   <g id="patch_161">
    <path clip-path="url(#p99c59f67ae)" d="M 95.734392 87.7 
L 96.345564 87.7 
L 96.345564 83.080728 
L 95.734392 83.080728 
z
" style="fill:#1d1d1d;"/>
   </g>
   <g id="patch_162">
    <path clip-path="url(#p99c59f67ae)" d="M 96.243702 87.7 
L 96.854874 87.7 
L 96.854874 83.137617 
L 96.243702 83.137617 
z
" style="fill:#1d1d1d;"/>
   </g>
   <g id="patch_163">
    <path clip-path="url(#p99c59f67ae)" d="M 96.753012 87.7 
L 97.364184 87.7 
L 97.364184 83.226279 
L 96.753012 83.226279 
z
" style="fill:#1d1d1d;"/>
   </g>
   <g id="patch_164">
    <path clip-path="url(#p99c59f67ae)" d="M 97.262322 87.7 
L 97.873494 87.7 
L 97.873494 83.318265 
L 97.262322 83.318265 
z
" style="fill:#1d1d1d;"/>
   </g>
   <g id="patch_165">
    <path clip-path="url(#p99c59f67ae)" d="M 97.771632 87.7 
L 98.382804 87.7 
L 98.382804 83.338105 
L 97.771632 83.338105 
z
" style="fill:#1d1d1d;"/>
   </g>
   <g id="patch_166">
    <path clip-path="url(#p99c59f67ae)" d="M 98.280942 87.7 
L 98.892114 87.7 
L 98.892114 83.339073 
L 98.280942 83.339073 
z
" style="fill:#1d1d1d;"/>
   </g>
   <g id="patch_167">
    <path clip-path="url(#p99c59f67ae)" d="M 98.790252 87.7 
L 99.401424 87.7 
L 99.401424 83.359521 
L 98.790252 83.359521 
z
" style="fill:#1d1d1d;"/>
   </g>
   <g id="patch_168">
    <path clip-path="url(#p99c59f67ae)" d="M 99.299562 87.7 
L 99.910734 87.7 
L 99.910734 83.406623 
L 99.299562 83.406623 
z
" style="fill:#1d1d1d;"/>
   </g>
   <g id="patch_169">
    <path clip-path="url(#p99c59f67ae)" d="M 99.808872 87.7 
L 100.420044 87.7 
L 100.420044 83.427095 
L 99.808872 83.427095 
z
" style="fill:#1d1d1d;"/>
   </g>
   <g id="patch_170">
    <path clip-path="url(#p99c59f67ae)" d="M 100.318182 87.7 
L 100.929354 87.7 
L 100.929354 83.446069 
L 100.318182 83.446069 
z
" style="fill:#1d1d1d;"/>
   </g>
   <g id="patch_171">
    <path clip-path="url(#p99c59f67ae)" d="M 100.827492 87.7 
L 101.438664 87.7 
L 101.438664 83.474447 
L 100.827492 83.474447 
z
" style="fill:#1d1d1d;"/>
   </g>
   <g id="patch_172">
    <path clip-path="url(#p99c59f67ae)" d="M 101.336802 87.7 
L 101.947974 87.7 
L 101.947974 83.486092 
L 101.336802 83.486092 
z
" style="fill:#1d1d1d;"/>
   </g>
   <g id="patch_173">
    <path clip-path="url(#p99c59f67ae)" d="M 101.846112 87.7 
L 102.457284 87.7 
L 102.457284 83.514183 
L 101.846112 83.514183 
z
" style="fill:#1d1d1d;"/>
   </g>
   <g id="patch_174">
    <path clip-path="url(#p99c59f67ae)" d="M 102.355422 87.7 
L 102.966594 87.7 
L 102.966594 83.588438 
L 102.355422 83.588438 
z
" style="fill:#1d1d1d;"/>
   </g>
   <g id="patch_175">
    <path clip-path="url(#p99c59f67ae)" d="M 102.864732 87.7 
L 103.475904 87.7 
L 103.475904 83.675102 
L 102.864732 83.675102 
z
" style="fill:#1d1d1d;"/>
   </g>
   <g id="patch_176">
    <path clip-path="url(#p99c59f67ae)" d="M 103.374042 87.7 
L 103.985214 87.7 
L 103.985214 83.687557 
L 103.374042 83.687557 
z
" style="fill:#1d1d1d;"/>
   </g>
   <g id="patch_177">
    <path clip-path="url(#p99c59f67ae)" d="M 103.883352 87.7 
L 104.494524 87.7 
L 104.494524 83.755877 
L 103.883352 83.755877 
z
" style="fill:#1d1d1d;"/>
   </g>
   <g id="patch_178">
    <path clip-path="url(#p99c59f67ae)" d="M 104.392662 87.7 
L 105.003834 87.7 
L 105.003834 83.767483 
L 104.392662 83.767483 
z
" style="fill:#1d1d1d;"/>
   </g>
   <g id="patch_179">
    <path clip-path="url(#p99c59f67ae)" d="M 104.901972 87.7 
L 105.513143 87.7 
L 105.513143 83.981944 
L 104.901972 83.981944 
z
" style="fill:#1d1d1d;"/>
   </g>
   <g id="patch_180">
    <path clip-path="url(#p99c59f67ae)" d="M 105.411281 87.7 
L 106.022453 87.7 
L 106.022453 84.001373 
L 105.411281 84.001373 
z
" style="fill:#1d1d1d;"/>
   </g>
   <g id="patch_181">
    <path clip-path="url(#p99c59f67ae)" d="M 105.920591 87.7 
L 106.531763 87.7 
L 106.531763 84.020646 
L 105.920591 84.020646 
z
" style="fill:#1d1d1d;"/>
   </g>
   <g id="patch_182">
    <path clip-path="url(#p99c59f67ae)" d="M 106.429901 87.7 
L 107.041073 87.7 
L 107.041073 84.069276 
L 106.429901 84.069276 
z
" style="fill:#1d1d1d;"/>
   </g>
   <g id="patch_183">
    <path clip-path="url(#p99c59f67ae)" d="M 106.939211 87.7 
L 107.550383 87.7 
L 107.550383 84.161865 
L 106.939211 84.161865 
z
" style="fill:#1d1d1d;"/>
   </g>
   <g id="patch_184">
    <path clip-path="url(#p99c59f67ae)" d="M 107.448521 87.7 
L 108.059693 87.7 
L 108.059693 84.172323 
L 107.448521 84.172323 
z
" style="fill:#1d1d1d;"/>
   </g>
   <g id="patch_185">
    <path clip-path="url(#p99c59f67ae)" d="M 107.957831 87.7 
L 108.569003 87.7 
L 108.569003 84.197447 
L 107.957831 84.197447 
z
" style="fill:#1d1d1d;"/>
   </g>
   <g id="patch_186">
    <path clip-path="url(#p99c59f67ae)" d="M 108.467141 87.7 
L 109.078313 87.7 
L 109.078313 84.206519 
L 108.467141 84.206519 
z
" style="fill:#1d1d1d;"/>
   </g>
   <g id="patch_187">
    <path clip-path="url(#p99c59f67ae)" d="M 108.976451 87.7 
L 109.587623 87.7 
L 109.587623 84.25129 
L 108.976451 84.25129 
z
" style="fill:#1d1d1d;"/>
   </g>
   <g id="patch_188">
    <path clip-path="url(#p99c59f67ae)" d="M 109.485761 87.7 
L 110.096933 87.7 
L 110.096933 84.310647 
L 109.485761 84.310647 
z
" style="fill:#1d1d1d;"/>
   </g>
   <g id="patch_189">
    <path clip-path="url(#p99c59f67ae)" d="M 109.995071 87.7 
L 110.606243 87.7 
L 110.606243 84.328103 
L 109.995071 84.328103 
z
" style="fill:#1d1d1d;"/>
   </g>
   <g id="patch_190">
    <path clip-path="url(#p99c59f67ae)" d="M 110.504381 87.7 
L 111.115553 87.7 
L 111.115553 84.354434 
L 110.504381 84.354434 
z
" style="fill:#1d1d1d;"/>
   </g>
   <g id="patch_191">
    <path clip-path="url(#p99c59f67ae)" d="M 111.013691 87.7 
L 111.624863 87.7 
L 111.624863 84.437026 
L 111.013691 84.437026 
z
" style="fill:#1d1d1d;"/>
   </g>
   <g id="patch_192">
    <path clip-path="url(#p99c59f67ae)" d="M 111.523001 87.7 
L 112.134173 87.7 
L 112.134173 84.464751 
L 111.523001 84.464751 
z
" style="fill:#1d1d1d;"/>
   </g>
   <g id="patch_193">
    <path clip-path="url(#p99c59f67ae)" d="M 112.032311 87.7 
L 112.643483 87.7 
L 112.643483 84.491334 
L 112.032311 84.491334 
z
" style="fill:#1d1d1d;"/>
   </g>
   <g id="patch_194">
    <path clip-path="url(#p99c59f67ae)" d="M 112.541621 87.7 
L 113.152793 87.7 
L 113.152793 84.496236 
L 112.541621 84.496236 
z
" style="fill:#1d1d1d;"/>
   </g>
   <g id="patch_195">
    <path clip-path="url(#p99c59f67ae)" d="M 113.050931 87.7 
L 113.662103 87.7 
L 113.662103 84.540384 
L 113.050931 84.540384 
z
" style="fill:#1d1d1d;"/>
   </g>
   <g id="patch_196">
    <path clip-path="url(#p99c59f67ae)" d="M 113.560241 87.7 
L 114.171413 87.7 
L 114.171413 84.595329 
L 113.560241 84.595329 
z
" style="fill:#1d1d1d;"/>
   </g>
   <g id="patch_197">
    <path clip-path="url(#p99c59f67ae)" d="M 114.069551 87.7 
L 114.680723 87.7 
L 114.680723 84.631533 
L 114.069551 84.631533 
z
" style="fill:#1d1d1d;"/>
   </g>
   <g id="patch_198">
    <path clip-path="url(#p99c59f67ae)" d="M 114.578861 87.7 
L 115.190033 87.7 
L 115.190033 84.666334 
L 114.578861 84.666334 
z
" style="fill:#1d1d1d;"/>
   </g>
   <g id="patch_199">
    <path clip-path="url(#p99c59f67ae)" d="M 115.088171 87.7 
L 115.699343 87.7 
L 115.699343 84.669065 
L 115.088171 84.669065 
z
" style="fill:#1d1d1d;"/>
   </g>
   <g id="patch_200">
    <path clip-path="url(#p99c59f67ae)" d="M 115.597481 87.7 
L 116.208653 87.7 
L 116.208653 84.688911 
L 115.597481 84.688911 
z
" style="fill:#1d1d1d;"/>
   </g>
   <g id="patch_201">
    <path clip-path="url(#p99c59f67ae)" d="M 116.106791 87.7 
L 116.717963 87.7 
L 116.717963 84.708588 
L 116.106791 84.708588 
z
" style="fill:#1d1d1d;"/>
   </g>
   <g id="patch_202">
    <path clip-path="url(#p99c59f67ae)" d="M 116.616101 87.7 
L 117.227273 87.7 
L 117.227273 84.715359 
L 116.616101 84.715359 
z
" style="fill:#1d1d1d;"/>
   </g>
   <g id="matplotlib.axis_1"/>
   <g id="matplotlib.axis_2"/>
   <g id="patch_203">
    <path d="M 10.7 93.86 
L 10.7 10.7 
" style="fill:none;stroke:#000000;stroke-linecap:square;stroke-linejoin:miter;stroke-width:0.8;"/>
   </g>
   <g id="patch_204">
    <path d="M 122.3 93.86 
L 122.3 10.7 
" style="fill:none;stroke:#000000;stroke-linecap:square;stroke-linejoin:miter;stroke-width:0.8;"/>
   </g>
   <g id="patch_205">
    <path d="M 10.7 93.86 
L 122.3 93.86 
" style="fill:none;stroke:#000000;stroke-linecap:square;stroke-linejoin:miter;stroke-width:0.8;"/>
   </g>
   <g id="patch_206">
    <path d="M 10.7 10.7 
L 122.3 10.7 
" style="fill:none;stroke:#000000;stroke-linecap:square;stroke-linejoin:miter;stroke-width:0.8;"/>
   </g>
  </g>
 </g>
 <defs>
  <clipPath id="p99c59f67ae">
   <rect height="83.16" width="111.6" x="10.7" y="10.7"/>
  </clipPath>
 </defs>
</svg>
