<?xml version="1.0" encoding="utf-8" standalone="no"?>
<!DOCTYPE svg PUBLIC "-//W3C//DTD SVG 1.1//EN"
  "http://www.w3.org/Graphics/SVG/1.1/DTD/svg11.dtd">
<!-- Created with matplotlib (http://matplotlib.org/) -->
<svg height="104pt" version="1.1" viewBox="0 0 133 104" width="133pt" xmlns="http://www.w3.org/2000/svg" xmlns:xlink="http://www.w3.org/1999/xlink">
 <defs>
  <style type="text/css">
*{stroke-linecap:butt;stroke-linejoin:round;}
  </style>
 </defs>
 <g id="figure_1">
  <g id="patch_1">
   <path d="M 0 104.56 
L 133 104.56 
L 133 0 
L 0 0 
z
" style="fill:#ffffff;"/>
  </g>
  <g id="axes_1">
   <g id="patch_2">
    <path d="M 10.7 93.86 
L 122.3 93.86 
L 122.3 10.7 
L 10.7 10.7 
z
" style="fill:#ffffff;"/>
   </g>
   <g id="patch_3">
    <path clip-path="url(#pb8d8480618)" d="M 15.772727 87.7 
L 16.383899 87.7 
L 16.383899 87.348097 
L 15.772727 87.348097 
z
" style="fill:#1d1d1d;"/>
   </g>
   <g id="patch_4">
    <path clip-path="url(#pb8d8480618)" d="M 16.282037 87.7 
L 16.893209 87.7 
L 16.893209 87.34604 
L 16.282037 87.34604 
z
" style="fill:#1d1d1d;"/>
   </g>
   <g id="patch_5">
    <path clip-path="url(#pb8d8480618)" d="M 16.791347 87.7 
L 17.402519 87.7 
L 17.402519 87.331622 
L 16.791347 87.331622 
z
" style="fill:#1d1d1d;"/>
   </g>
   <g id="patch_6">
    <path clip-path="url(#pb8d8480618)" d="M 17.300657 87.7 
L 17.911829 87.7 
L 17.911829 87.330564 
L 17.300657 87.330564 
z
" style="fill:#1d1d1d;"/>
   </g>
   <g id="patch_7">
    <path clip-path="url(#pb8d8480618)" d="M 17.809967 87.7 
L 18.421139 87.7 
L 18.421139 87.329585 
L 17.809967 87.329585 
z
" style="fill:#1d1d1d;"/>
   </g>
   <g id="patch_8">
    <path clip-path="url(#pb8d8480618)" d="M 18.319277 87.7 
L 18.930449 87.7 
L 18.930449 87.329462 
L 18.319277 87.329462 
z
" style="fill:#1d1d1d;"/>
   </g>
   <g id="patch_9">
    <path clip-path="url(#pb8d8480618)" d="M 18.828587 87.7 
L 19.439759 87.7 
L 19.439759 87.32938 
L 18.828587 87.32938 
z
" style="fill:#1d1d1d;"/>
   </g>
   <g id="patch_10">
    <path clip-path="url(#pb8d8480618)" d="M 19.337897 87.7 
L 19.949069 87.7 
L 19.949069 87.328694 
L 19.337897 87.328694 
z
" style="fill:#1d1d1d;"/>
   </g>
   <g id="patch_11">
    <path clip-path="url(#pb8d8480618)" d="M 19.847207 87.7 
L 20.458379 87.7 
L 20.458379 87.326902 
L 19.847207 87.326902 
z
" style="fill:#1d1d1d;"/>
   </g>
   <g id="patch_12">
    <path clip-path="url(#pb8d8480618)" d="M 20.356517 87.7 
L 20.967689 87.7 
L 20.967689 87.324092 
L 20.356517 87.324092 
z
" style="fill:#1d1d1d;"/>
   </g>
   <g id="patch_13">
    <path clip-path="url(#pb8d8480618)" d="M 20.865827 87.7 
L 21.476999 87.7 
L 21.476999 87.320004 
L 20.865827 87.320004 
z
" style="fill:#1d1d1d;"/>
   </g>
   <g id="patch_14">
    <path clip-path="url(#pb8d8480618)" d="M 21.375137 87.7 
L 21.986309 87.7 
L 21.986309 87.313327 
L 21.375137 87.313327 
z
" style="fill:#1d1d1d;"/>
   </g>
   <g id="patch_15">
    <path clip-path="url(#pb8d8480618)" d="M 21.884447 87.7 
L 22.495619 87.7 
L 22.495619 87.307724 
L 21.884447 87.307724 
z
" style="fill:#1d1d1d;"/>
   </g>
   <g id="patch_16">
    <path clip-path="url(#pb8d8480618)" d="M 22.393757 87.7 
L 23.004929 87.7 
L 23.004929 87.30114 
L 22.393757 87.30114 
z
" style="fill:#1d1d1d;"/>
   </g>
   <g id="patch_17">
    <path clip-path="url(#pb8d8480618)" d="M 22.903067 87.7 
L 23.514239 87.7 
L 23.514239 87.300101 
L 22.903067 87.300101 
z
" style="fill:#1d1d1d;"/>
   </g>
   <g id="patch_18">
    <path clip-path="url(#pb8d8480618)" d="M 23.412377 87.7 
L 24.023549 87.7 
L 24.023549 87.296039 
L 23.412377 87.296039 
z
" style="fill:#1d1d1d;"/>
   </g>
   <g id="patch_19">
    <path clip-path="url(#pb8d8480618)" d="M 23.921687 87.7 
L 24.532859 87.7 
L 24.532859 87.293681 
L 23.921687 87.293681 
z
" style="fill:#1d1d1d;"/>
   </g>
   <g id="patch_20">
    <path clip-path="url(#pb8d8480618)" d="M 24.430997 87.7 
L 25.042169 87.7 
L 25.042169 87.290162 
L 24.430997 87.290162 
z
" style="fill:#1d1d1d;"/>
   </g>
   <g id="patch_21">
    <path clip-path="url(#pb8d8480618)" d="M 24.940307 87.7 
L 25.551479 87.7 
L 25.551479 87.284808 
L 24.940307 87.284808 
z
" style="fill:#1d1d1d;"/>
   </g>
   <g id="patch_22">
    <path clip-path="url(#pb8d8480618)" d="M 25.449617 87.7 
L 26.060789 87.7 
L 26.060789 87.278272 
L 25.449617 87.278272 
z
" style="fill:#1d1d1d;"/>
   </g>
   <g id="patch_23">
    <path clip-path="url(#pb8d8480618)" d="M 25.958927 87.7 
L 26.570099 87.7 
L 26.570099 87.272872 
L 25.958927 87.272872 
z
" style="fill:#1d1d1d;"/>
   </g>
   <g id="patch_24">
    <path clip-path="url(#pb8d8480618)" d="M 26.468237 87.7 
L 27.079409 87.7 
L 27.079409 87.258264 
L 26.468237 87.258264 
z
" style="fill:#1d1d1d;"/>
   </g>
   <g id="patch_25">
    <path clip-path="url(#pb8d8480618)" d="M 26.977547 87.7 
L 27.588719 87.7 
L 27.588719 87.258225 
L 26.977547 87.258225 
z
" style="fill:#1d1d1d;"/>
   </g>
   <g id="patch_26">
    <path clip-path="url(#pb8d8480618)" d="M 27.486857 87.7 
L 28.098028 87.7 
L 28.098028 87.255621 
L 27.486857 87.255621 
z
" style="fill:#1d1d1d;"/>
   </g>
   <g id="patch_27">
    <path clip-path="url(#pb8d8480618)" d="M 27.996166 87.7 
L 28.607338 87.7 
L 28.607338 87.255506 
L 27.996166 87.255506 
z
" style="fill:#1d1d1d;"/>
   </g>
   <g id="patch_28">
    <path clip-path="url(#pb8d8480618)" d="M 28.505476 87.7 
L 29.116648 87.7 
L 29.116648 87.25391 
L 28.505476 87.25391 
z
" style="fill:#1d1d1d;"/>
   </g>
   <g id="patch_29">
    <path clip-path="url(#pb8d8480618)" d="M 29.014786 87.7 
L 29.625958 87.7 
L 29.625958 87.243583 
L 29.014786 87.243583 
z
" style="fill:#1d1d1d;"/>
   </g>
   <g id="patch_30">
    <path clip-path="url(#pb8d8480618)" d="M 29.524096 87.7 
L 30.135268 87.7 
L 30.135268 87.22907 
L 29.524096 87.22907 
z
" style="fill:#1d1d1d;"/>
   </g>
   <g id="patch_31">
    <path clip-path="url(#pb8d8480618)" d="M 30.033406 87.7 
L 30.644578 87.7 
L 30.644578 87.226415 
L 30.033406 87.226415 
z
" style="fill:#1d1d1d;"/>
   </g>
   <g id="patch_32">
    <path clip-path="url(#pb8d8480618)" d="M 30.542716 87.7 
L 31.153888 87.7 
L 31.153888 87.224363 
L 30.542716 87.224363 
z
" style="fill:#1d1d1d;"/>
   </g>
   <g id="patch_33">
    <path clip-path="url(#pb8d8480618)" d="M 31.052026 87.7 
L 31.663198 87.7 
L 31.663198 87.223661 
L 31.052026 87.223661 
z
" style="fill:#1d1d1d;"/>
   </g>
   <g id="patch_34">
    <path clip-path="url(#pb8d8480618)" d="M 31.561336 87.7 
L 32.172508 87.7 
L 32.172508 87.219628 
L 31.561336 87.219628 
z
" style="fill:#1d1d1d;"/>
   </g>
   <g id="patch_35">
    <path clip-path="url(#pb8d8480618)" d="M 32.070646 87.7 
L 32.681818 87.7 
L 32.681818 87.212838 
L 32.070646 87.212838 
z
" style="fill:#1d1d1d;"/>
   </g>
   <g id="patch_36">
    <path clip-path="url(#pb8d8480618)" d="M 32.579956 87.7 
L 33.191128 87.7 
L 33.191128 87.205861 
L 32.579956 87.205861 
z
" style="fill:#1d1d1d;"/>
   </g>
   <g id="patch_37">
    <path clip-path="url(#pb8d8480618)" d="M 33.089266 87.7 
L 33.700438 87.7 
L 33.700438 87.198511 
L 33.089266 87.198511 
z
" style="fill:#1d1d1d;"/>
   </g>
   <g id="patch_38">
    <path clip-path="url(#pb8d8480618)" d="M 33.598576 87.7 
L 34.209748 87.7 
L 34.209748 87.188891 
L 33.598576 87.188891 
z
" style="fill:#1d1d1d;"/>
   </g>
   <g id="patch_39">
    <path clip-path="url(#pb8d8480618)" d="M 34.107886 87.7 
L 34.719058 87.7 
L 34.719058 87.186901 
L 34.107886 87.186901 
z
" style="fill:#1d1d1d;"/>
   </g>
   <g id="patch_40">
    <path clip-path="url(#pb8d8480618)" d="M 34.617196 87.7 
L 35.228368 87.7 
L 35.228368 87.183802 
L 34.617196 87.183802 
z
" style="fill:#1d1d1d;"/>
   </g>
   <g id="patch_41">
    <path clip-path="url(#pb8d8480618)" d="M 35.126506 87.7 
L 35.737678 87.7 
L 35.737678 87.183163 
L 35.126506 87.183163 
z
" style="fill:#1d1d1d;"/>
   </g>
   <g id="patch_42">
    <path clip-path="url(#pb8d8480618)" d="M 35.635816 87.7 
L 36.246988 87.7 
L 36.246988 87.175083 
L 35.635816 87.175083 
z
" style="fill:#1d1d1d;"/>
   </g>
   <g id="patch_43">
    <path clip-path="url(#pb8d8480618)" d="M 36.145126 87.7 
L 36.756298 87.7 
L 36.756298 87.173713 
L 36.145126 87.173713 
z
" style="fill:#1d1d1d;"/>
   </g>
   <g id="patch_44">
    <path clip-path="url(#pb8d8480618)" d="M 36.654436 87.7 
L 37.265608 87.7 
L 37.265608 87.167373 
L 36.654436 87.167373 
z
" style="fill:#1d1d1d;"/>
   </g>
   <g id="patch_45">
    <path clip-path="url(#pb8d8480618)" d="M 37.163746 87.7 
L 37.774918 87.7 
L 37.774918 87.145827 
L 37.163746 87.145827 
z
" style="fill:#1d1d1d;"/>
   </g>
   <g id="patch_46">
    <path clip-path="url(#pb8d8480618)" d="M 37.673056 87.7 
L 38.284228 87.7 
L 38.284228 87.137935 
L 37.673056 87.137935 
z
" style="fill:#1d1d1d;"/>
   </g>
   <g id="patch_47">
    <path clip-path="url(#pb8d8480618)" d="M 38.182366 87.7 
L 38.793538 87.7 
L 38.793538 87.133652 
L 38.182366 87.133652 
z
" style="fill:#1d1d1d;"/>
   </g>
   <g id="patch_48">
    <path clip-path="url(#pb8d8480618)" d="M 38.691676 87.7 
L 39.302848 87.7 
L 39.302848 87.122433 
L 38.691676 87.122433 
z
" style="fill:#1d1d1d;"/>
   </g>
   <g id="patch_49">
    <path clip-path="url(#pb8d8480618)" d="M 39.200986 87.7 
L 39.812158 87.7 
L 39.812158 87.113718 
L 39.200986 87.113718 
z
" style="fill:#1d1d1d;"/>
   </g>
   <g id="patch_50">
    <path clip-path="url(#pb8d8480618)" d="M 39.710296 87.7 
L 40.321468 87.7 
L 40.321468 87.113336 
L 39.710296 87.113336 
z
" style="fill:#1d1d1d;"/>
   </g>
   <g id="patch_51">
    <path clip-path="url(#pb8d8480618)" d="M 40.219606 87.7 
L 40.830778 87.7 
L 40.830778 87.061813 
L 40.219606 87.061813 
z
" style="fill:#1d1d1d;"/>
   </g>
   <g id="patch_52">
    <path clip-path="url(#pb8d8480618)" d="M 40.728916 87.7 
L 41.340088 87.7 
L 41.340088 87.044789 
L 40.728916 87.044789 
z
" style="fill:#1d1d1d;"/>
   </g>
   <g id="patch_53">
    <path clip-path="url(#pb8d8480618)" d="M 41.238226 87.7 
L 41.849398 87.7 
L 41.849398 87.033136 
L 41.238226 87.033136 
z
" style="fill:#1d1d1d;"/>
   </g>
   <g id="patch_54">
    <path clip-path="url(#pb8d8480618)" d="M 41.747536 87.7 
L 42.358708 87.7 
L 42.358708 87.008885 
L 41.747536 87.008885 
z
" style="fill:#1d1d1d;"/>
   </g>
   <g id="patch_55">
    <path clip-path="url(#pb8d8480618)" d="M 42.256846 87.7 
L 42.868018 87.7 
L 42.868018 86.996899 
L 42.256846 86.996899 
z
" style="fill:#1d1d1d;"/>
   </g>
   <g id="patch_56">
    <path clip-path="url(#pb8d8480618)" d="M 42.766156 87.7 
L 43.377327 87.7 
L 43.377327 86.974307 
L 42.766156 86.974307 
z
" style="fill:#1d1d1d;"/>
   </g>
   <g id="patch_57">
    <path clip-path="url(#pb8d8480618)" d="M 43.275465 87.7 
L 43.886637 87.7 
L 43.886637 86.964074 
L 43.275465 86.964074 
z
" style="fill:#1d1d1d;"/>
   </g>
   <g id="patch_58">
    <path clip-path="url(#pb8d8480618)" d="M 43.784775 87.7 
L 44.395947 87.7 
L 44.395947 86.933887 
L 43.784775 86.933887 
z
" style="fill:#1d1d1d;"/>
   </g>
   <g id="patch_59">
    <path clip-path="url(#pb8d8480618)" d="M 44.294085 87.7 
L 44.905257 87.7 
L 44.905257 86.824377 
L 44.294085 86.824377 
z
" style="fill:#1d1d1d;"/>
   </g>
   <g id="patch_60">
    <path clip-path="url(#pb8d8480618)" d="M 44.803395 87.7 
L 45.414567 87.7 
L 45.414567 86.822636 
L 44.803395 86.822636 
z
" style="fill:#1d1d1d;"/>
   </g>
   <g id="patch_61">
    <path clip-path="url(#pb8d8480618)" d="M 45.312705 87.7 
L 45.923877 87.7 
L 45.923877 86.805289 
L 45.312705 86.805289 
z
" style="fill:#1d1d1d;"/>
   </g>
   <g id="patch_62">
    <path clip-path="url(#pb8d8480618)" d="M 45.822015 87.7 
L 46.433187 87.7 
L 46.433187 86.772589 
L 45.822015 86.772589 
z
" style="fill:#1d1d1d;"/>
   </g>
   <g id="patch_63">
    <path clip-path="url(#pb8d8480618)" d="M 46.331325 87.7 
L 46.942497 87.7 
L 46.942497 86.713148 
L 46.331325 86.713148 
z
" style="fill:#1d1d1d;"/>
   </g>
   <g id="patch_64">
    <path clip-path="url(#pb8d8480618)" d="M 46.840635 87.7 
L 47.451807 87.7 
L 47.451807 86.71091 
L 46.840635 86.71091 
z
" style="fill:#1d1d1d;"/>
   </g>
   <g id="patch_65">
    <path clip-path="url(#pb8d8480618)" d="M 47.349945 87.7 
L 47.961117 87.7 
L 47.961117 86.645085 
L 47.349945 86.645085 
z
" style="fill:#1d1d1d;"/>
   </g>
   <g id="patch_66">
    <path clip-path="url(#pb8d8480618)" d="M 47.859255 87.7 
L 48.470427 87.7 
L 48.470427 86.62656 
L 47.859255 86.62656 
z
" style="fill:#1d1d1d;"/>
   </g>
   <g id="patch_67">
    <path clip-path="url(#pb8d8480618)" d="M 48.368565 87.7 
L 48.979737 87.7 
L 48.979737 86.614308 
L 48.368565 86.614308 
z
" style="fill:#1d1d1d;"/>
   </g>
   <g id="patch_68">
    <path clip-path="url(#pb8d8480618)" d="M 48.877875 87.7 
L 49.489047 87.7 
L 49.489047 86.577378 
L 48.877875 86.577378 
z
" style="fill:#1d1d1d;"/>
   </g>
   <g id="patch_69">
    <path clip-path="url(#pb8d8480618)" d="M 49.387185 87.7 
L 49.998357 87.7 
L 49.998357 86.483707 
L 49.387185 86.483707 
z
" style="fill:#1d1d1d;"/>
   </g>
   <g id="patch_70">
    <path clip-path="url(#pb8d8480618)" d="M 49.896495 87.7 
L 50.507667 87.7 
L 50.507667 86.455002 
L 49.896495 86.455002 
z
" style="fill:#1d1d1d;"/>
   </g>
   <g id="patch_71">
    <path clip-path="url(#pb8d8480618)" d="M 50.405805 87.7 
L 51.016977 87.7 
L 51.016977 86.445652 
L 50.405805 86.445652 
z
" style="fill:#1d1d1d;"/>
   </g>
   <g id="patch_72">
    <path clip-path="url(#pb8d8480618)" d="M 50.915115 87.7 
L 51.526287 87.7 
L 51.526287 86.444278 
L 50.915115 86.444278 
z
" style="fill:#1d1d1d;"/>
   </g>
   <g id="patch_73">
    <path clip-path="url(#pb8d8480618)" d="M 51.424425 87.7 
L 52.035597 87.7 
L 52.035597 86.408022 
L 51.424425 86.408022 
z
" style="fill:#1d1d1d;"/>
   </g>
   <g id="patch_74">
    <path clip-path="url(#pb8d8480618)" d="M 51.933735 87.7 
L 52.544907 87.7 
L 52.544907 86.3789 
L 51.933735 86.3789 
z
" style="fill:#1d1d1d;"/>
   </g>
   <g id="patch_75">
    <path clip-path="url(#pb8d8480618)" d="M 52.443045 87.7 
L 53.054217 87.7 
L 53.054217 86.375653 
L 52.443045 86.375653 
z
" style="fill:#1d1d1d;"/>
   </g>
   <g id="patch_76">
    <path clip-path="url(#pb8d8480618)" d="M 52.952355 87.7 
L 53.563527 87.7 
L 53.563527 86.332278 
L 52.952355 86.332278 
z
" style="fill:#1d1d1d;"/>
   </g>
   <g id="patch_77">
    <path clip-path="url(#pb8d8480618)" d="M 53.461665 87.7 
L 54.072837 87.7 
L 54.072837 86.270092 
L 53.461665 86.270092 
z
" style="fill:#1d1d1d;"/>
   </g>
   <g id="patch_78">
    <path clip-path="url(#pb8d8480618)" d="M 53.970975 87.7 
L 54.582147 87.7 
L 54.582147 86.252582 
L 53.970975 86.252582 
z
" style="fill:#1d1d1d;"/>
   </g>
   <g id="patch_79">
    <path clip-path="url(#pb8d8480618)" d="M 54.480285 87.7 
L 55.091457 87.7 
L 55.091457 86.186584 
L 54.480285 86.186584 
z
" style="fill:#1d1d1d;"/>
   </g>
   <g id="patch_80">
    <path clip-path="url(#pb8d8480618)" d="M 54.989595 87.7 
L 55.600767 87.7 
L 55.600767 86.14012 
L 54.989595 86.14012 
z
" style="fill:#1d1d1d;"/>
   </g>
   <g id="patch_81">
    <path clip-path="url(#pb8d8480618)" d="M 55.498905 87.7 
L 56.110077 87.7 
L 56.110077 86.101848 
L 55.498905 86.101848 
z
" style="fill:#1d1d1d;"/>
   </g>
   <g id="patch_82">
    <path clip-path="url(#pb8d8480618)" d="M 56.008215 87.7 
L 56.619387 87.7 
L 56.619387 85.98196 
L 56.008215 85.98196 
z
" style="fill:#1d1d1d;"/>
   </g>
   <g id="patch_83">
    <path clip-path="url(#pb8d8480618)" d="M 56.517525 87.7 
L 57.128697 87.7 
L 57.128697 85.935725 
L 56.517525 85.935725 
z
" style="fill:#1d1d1d;"/>
   </g>
   <g id="patch_84">
    <path clip-path="url(#pb8d8480618)" d="M 57.026835 87.7 
L 57.638007 87.7 
L 57.638007 85.899969 
L 57.026835 85.899969 
z
" style="fill:#1d1d1d;"/>
   </g>
   <g id="patch_85">
    <path clip-path="url(#pb8d8480618)" d="M 57.536145 87.7 
L 58.147317 87.7 
L 58.147317 85.887198 
L 57.536145 85.887198 
z
" style="fill:#1d1d1d;"/>
   </g>
   <g id="patch_86">
    <path clip-path="url(#pb8d8480618)" d="M 58.045455 87.7 
L 58.656627 87.7 
L 58.656627 85.846875 
L 58.045455 85.846875 
z
" style="fill:#1d1d1d;"/>
   </g>
   <g id="patch_87">
    <path clip-path="url(#pb8d8480618)" d="M 58.554765 87.7 
L 59.165936 87.7 
L 59.165936 85.838499 
L 58.554765 85.838499 
z
" style="fill:#1d1d1d;"/>
   </g>
   <g id="patch_88">
    <path clip-path="url(#pb8d8480618)" d="M 59.064074 87.7 
L 59.675246 87.7 
L 59.675246 85.814425 
L 59.064074 85.814425 
z
" style="fill:#1d1d1d;"/>
   </g>
   <g id="patch_89">
    <path clip-path="url(#pb8d8480618)" d="M 59.573384 87.7 
L 60.184556 87.7 
L 60.184556 85.79253 
L 59.573384 85.79253 
z
" style="fill:#1d1d1d;"/>
   </g>
   <g id="patch_90">
    <path clip-path="url(#pb8d8480618)" d="M 60.082694 87.7 
L 60.693866 87.7 
L 60.693866 85.787994 
L 60.082694 85.787994 
z
" style="fill:#1d1d1d;"/>
   </g>
   <g id="patch_91">
    <path clip-path="url(#pb8d8480618)" d="M 60.592004 87.7 
L 61.203176 87.7 
L 61.203176 85.572632 
L 60.592004 85.572632 
z
" style="fill:#1d1d1d;"/>
   </g>
   <g id="patch_92">
    <path clip-path="url(#pb8d8480618)" d="M 61.101314 87.7 
L 61.712486 87.7 
L 61.712486 85.418297 
L 61.101314 85.418297 
z
" style="fill:#1d1d1d;"/>
   </g>
   <g id="patch_93">
    <path clip-path="url(#pb8d8480618)" d="M 61.610624 87.7 
L 62.221796 87.7 
L 62.221796 85.237461 
L 61.610624 85.237461 
z
" style="fill:#1d1d1d;"/>
   </g>
   <g id="patch_94">
    <path clip-path="url(#pb8d8480618)" d="M 62.119934 87.7 
L 62.731106 87.7 
L 62.731106 85.081458 
L 62.119934 85.081458 
z
" style="fill:#1d1d1d;"/>
   </g>
   <g id="patch_95">
    <path clip-path="url(#pb8d8480618)" d="M 62.629244 87.7 
L 63.240416 87.7 
L 63.240416 84.877681 
L 62.629244 84.877681 
z
" style="fill:#1d1d1d;"/>
   </g>
   <g id="patch_96">
    <path clip-path="url(#pb8d8480618)" d="M 63.138554 87.7 
L 63.749726 87.7 
L 63.749726 84.445258 
L 63.138554 84.445258 
z
" style="fill:#1d1d1d;"/>
   </g>
   <g id="patch_97">
    <path clip-path="url(#pb8d8480618)" d="M 63.647864 87.7 
L 64.259036 87.7 
L 64.259036 83.952072 
L 63.647864 83.952072 
z
" style="fill:#1d1d1d;"/>
   </g>
   <g id="patch_98">
    <path clip-path="url(#pb8d8480618)" d="M 64.157174 87.7 
L 64.768346 87.7 
L 64.768346 83.858567 
L 64.157174 83.858567 
z
" style="fill:#1d1d1d;"/>
   </g>
   <g id="patch_99">
    <path clip-path="url(#pb8d8480618)" d="M 64.666484 87.7 
L 65.277656 87.7 
L 65.277656 83.394781 
L 64.666484 83.394781 
z
" style="fill:#1d1d1d;"/>
   </g>
   <g id="patch_100">
    <path clip-path="url(#pb8d8480618)" d="M 65.175794 87.7 
L 65.786966 87.7 
L 65.786966 79.852402 
L 65.175794 79.852402 
z
" style="fill:#1d1d1d;"/>
   </g>
   <g id="patch_101">
    <path clip-path="url(#pb8d8480618)" d="M 65.685104 87.7 
L 66.296276 87.7 
L 66.296276 78.940954 
L 65.685104 78.940954 
z
" style="fill:#1d1d1d;"/>
   </g>
   <g id="patch_102">
    <path clip-path="url(#pb8d8480618)" d="M 66.194414 87.7 
L 66.805586 87.7 
L 66.805586 74.209009 
L 66.194414 74.209009 
z
" style="fill:#1d1d1d;"/>
   </g>
   <g id="patch_103">
    <path clip-path="url(#pb8d8480618)" d="M 66.194414 87.7 
L 66.805586 87.7 
L 66.805586 74.209009 
L 66.194414 74.209009 
z
" style="fill:#1d1d1d;"/>
   </g>
   <g id="patch_104">
    <path clip-path="url(#pb8d8480618)" d="M 66.703724 87.7 
L 67.314896 87.7 
L 67.314896 66.028331 
L 66.703724 66.028331 
z
" style="fill:#1d1d1d;"/>
   </g>
   <g id="patch_105">
    <path clip-path="url(#pb8d8480618)" d="M 67.213034 87.7 
L 67.824206 87.7 
L 67.824206 75.694847 
L 67.213034 75.694847 
z
" style="fill:#1d1d1d;"/>
   </g>
   <g id="patch_106">
    <path clip-path="url(#pb8d8480618)" d="M 67.722344 87.7 
L 68.333516 87.7 
L 68.333516 78.359204 
L 67.722344 78.359204 
z
" style="fill:#1d1d1d;"/>
   </g>
   <g id="patch_107">
    <path clip-path="url(#pb8d8480618)" d="M 68.231654 87.7 
L 68.842826 87.7 
L 68.842826 78.412715 
L 68.231654 78.412715 
z
" style="fill:#1d1d1d;"/>
   </g>
   <g id="patch_108">
    <path clip-path="url(#pb8d8480618)" d="M 68.740964 87.7 
L 69.352136 87.7 
L 69.352136 78.877504 
L 68.740964 78.877504 
z
" style="fill:#1d1d1d;"/>
   </g>
   <g id="patch_109">
    <path clip-path="url(#pb8d8480618)" d="M 69.250274 87.7 
L 69.861446 87.7 
L 69.861446 81.594451 
L 69.250274 81.594451 
z
" style="fill:#1d1d1d;"/>
   </g>
   <g id="patch_110">
    <path clip-path="url(#pb8d8480618)" d="M 69.759584 87.7 
L 70.370756 87.7 
L 70.370756 83.615364 
L 69.759584 83.615364 
z
" style="fill:#1d1d1d;"/>
   </g>
   <g id="patch_111">
    <path clip-path="url(#pb8d8480618)" d="M 70.268894 87.7 
L 70.880066 87.7 
L 70.880066 83.827788 
L 70.268894 83.827788 
z
" style="fill:#1d1d1d;"/>
   </g>
   <g id="patch_112">
    <path clip-path="url(#pb8d8480618)" d="M 70.778204 87.7 
L 71.389376 87.7 
L 71.389376 84.276671 
L 70.778204 84.276671 
z
" style="fill:#1d1d1d;"/>
   </g>
   <g id="patch_113">
    <path clip-path="url(#pb8d8480618)" d="M 71.287514 87.7 
L 71.898686 87.7 
L 71.898686 84.8613 
L 71.287514 84.8613 
z
" style="fill:#1d1d1d;"/>
   </g>
   <g id="patch_114">
    <path clip-path="url(#pb8d8480618)" d="M 71.796824 87.7 
L 72.407996 87.7 
L 72.407996 84.899059 
L 71.796824 84.899059 
z
" style="fill:#1d1d1d;"/>
   </g>
   <g id="patch_115">
    <path clip-path="url(#pb8d8480618)" d="M 72.306134 87.7 
L 72.917306 87.7 
L 72.917306 84.933947 
L 72.306134 84.933947 
z
" style="fill:#1d1d1d;"/>
   </g>
   <g id="patch_116">
    <path clip-path="url(#pb8d8480618)" d="M 72.815444 87.7 
L 73.426616 87.7 
L 73.426616 84.999224 
L 72.815444 84.999224 
z
" style="fill:#1d1d1d;"/>
   </g>
   <g id="patch_117">
    <path clip-path="url(#pb8d8480618)" d="M 73.324754 87.7 
L 73.935926 87.7 
L 73.935926 85.129518 
L 73.324754 85.129518 
z
" style="fill:#1d1d1d;"/>
   </g>
   <g id="patch_118">
    <path clip-path="url(#pb8d8480618)" d="M 73.834064 87.7 
L 74.445235 87.7 
L 74.445235 85.760135 
L 73.834064 85.760135 
z
" style="fill:#1d1d1d;"/>
   </g>
   <g id="patch_119">
    <path clip-path="url(#pb8d8480618)" d="M 74.343373 87.7 
L 74.954545 87.7 
L 74.954545 85.805151 
L 74.343373 85.805151 
z
" style="fill:#1d1d1d;"/>
   </g>
   <g id="patch_120">
    <path clip-path="url(#pb8d8480618)" d="M 74.852683 87.7 
L 75.463855 87.7 
L 75.463855 85.89891 
L 74.852683 85.89891 
z
" style="fill:#1d1d1d;"/>
   </g>
   <g id="patch_121">
    <path clip-path="url(#pb8d8480618)" d="M 75.361993 87.7 
L 75.973165 87.7 
L 75.973165 85.924215 
L 75.361993 85.924215 
z
" style="fill:#1d1d1d;"/>
   </g>
   <g id="patch_122">
    <path clip-path="url(#pb8d8480618)" d="M 75.871303 87.7 
L 76.482475 87.7 
L 76.482475 86.166259 
L 75.871303 86.166259 
z
" style="fill:#1d1d1d;"/>
   </g>
   <g id="patch_123">
    <path clip-path="url(#pb8d8480618)" d="M 76.380613 87.7 
L 76.991785 87.7 
L 76.991785 86.190761 
L 76.380613 86.190761 
z
" style="fill:#1d1d1d;"/>
   </g>
   <g id="patch_124">
    <path clip-path="url(#pb8d8480618)" d="M 76.889923 87.7 
L 77.501095 87.7 
L 77.501095 86.222491 
L 76.889923 86.222491 
z
" style="fill:#1d1d1d;"/>
   </g>
   <g id="patch_125">
    <path clip-path="url(#pb8d8480618)" d="M 77.399233 87.7 
L 78.010405 87.7 
L 78.010405 86.295685 
L 77.399233 86.295685 
z
" style="fill:#1d1d1d;"/>
   </g>
   <g id="patch_126">
    <path clip-path="url(#pb8d8480618)" d="M 77.908543 87.7 
L 78.519715 87.7 
L 78.519715 86.329438 
L 77.908543 86.329438 
z
" style="fill:#1d1d1d;"/>
   </g>
   <g id="patch_127">
    <path clip-path="url(#pb8d8480618)" d="M 78.417853 87.7 
L 79.029025 87.7 
L 79.029025 86.39671 
L 78.417853 86.39671 
z
" style="fill:#1d1d1d;"/>
   </g>
   <g id="patch_128">
    <path clip-path="url(#pb8d8480618)" d="M 78.927163 87.7 
L 79.538335 87.7 
L 79.538335 86.512138 
L 78.927163 86.512138 
z
" style="fill:#1d1d1d;"/>
   </g>
   <g id="patch_129">
    <path clip-path="url(#pb8d8480618)" d="M 79.436473 87.7 
L 80.047645 87.7 
L 80.047645 86.538425 
L 79.436473 86.538425 
z
" style="fill:#1d1d1d;"/>
   </g>
   <g id="patch_130">
    <path clip-path="url(#pb8d8480618)" d="M 79.945783 87.7 
L 80.556955 87.7 
L 80.556955 86.559301 
L 79.945783 86.559301 
z
" style="fill:#1d1d1d;"/>
   </g>
   <g id="patch_131">
    <path clip-path="url(#pb8d8480618)" d="M 80.455093 87.7 
L 81.066265 87.7 
L 81.066265 86.580369 
L 80.455093 86.580369 
z
" style="fill:#1d1d1d;"/>
   </g>
   <g id="patch_132">
    <path clip-path="url(#pb8d8480618)" d="M 80.964403 87.7 
L 81.575575 87.7 
L 81.575575 86.586724 
L 80.964403 86.586724 
z
" style="fill:#1d1d1d;"/>
   </g>
   <g id="patch_133">
    <path clip-path="url(#pb8d8480618)" d="M 81.473713 87.7 
L 82.084885 87.7 
L 82.084885 86.60192 
L 81.473713 86.60192 
z
" style="fill:#1d1d1d;"/>
   </g>
   <g id="patch_134">
    <path clip-path="url(#pb8d8480618)" d="M 81.983023 87.7 
L 82.594195 87.7 
L 82.594195 86.632418 
L 81.983023 86.632418 
z
" style="fill:#1d1d1d;"/>
   </g>
   <g id="patch_135">
    <path clip-path="url(#pb8d8480618)" d="M 82.492333 87.7 
L 83.103505 87.7 
L 83.103505 86.6406 
L 82.492333 86.6406 
z
" style="fill:#1d1d1d;"/>
   </g>
   <g id="patch_136">
    <path clip-path="url(#pb8d8480618)" d="M 83.001643 87.7 
L 83.612815 87.7 
L 83.612815 86.643445 
L 83.001643 86.643445 
z
" style="fill:#1d1d1d;"/>
   </g>
   <g id="patch_137">
    <path clip-path="url(#pb8d8480618)" d="M 83.510953 87.7 
L 84.122125 87.7 
L 84.122125 86.679953 
L 83.510953 86.679953 
z
" style="fill:#1d1d1d;"/>
   </g>
   <g id="patch_138">
    <path clip-path="url(#pb8d8480618)" d="M 84.020263 87.7 
L 84.631435 87.7 
L 84.631435 86.70672 
L 84.020263 86.70672 
z
" style="fill:#1d1d1d;"/>
   </g>
   <g id="patch_139">
    <path clip-path="url(#pb8d8480618)" d="M 84.529573 87.7 
L 85.140745 87.7 
L 85.140745 86.713849 
L 84.529573 86.713849 
z
" style="fill:#1d1d1d;"/>
   </g>
   <g id="patch_140">
    <path clip-path="url(#pb8d8480618)" d="M 85.038883 87.7 
L 85.650055 87.7 
L 85.650055 86.794842 
L 85.038883 86.794842 
z
" style="fill:#1d1d1d;"/>
   </g>
   <g id="patch_141">
    <path clip-path="url(#pb8d8480618)" d="M 85.548193 87.7 
L 86.159365 87.7 
L 86.159365 86.796347 
L 85.548193 86.796347 
z
" style="fill:#1d1d1d;"/>
   </g>
   <g id="patch_142">
    <path clip-path="url(#pb8d8480618)" d="M 86.057503 87.7 
L 86.668675 87.7 
L 86.668675 86.796562 
L 86.057503 86.796562 
z
" style="fill:#1d1d1d;"/>
   </g>
   <g id="patch_143">
    <path clip-path="url(#pb8d8480618)" d="M 86.566813 87.7 
L 87.177985 87.7 
L 87.177985 86.836902 
L 86.566813 86.836902 
z
" style="fill:#1d1d1d;"/>
   </g>
   <g id="patch_144">
    <path clip-path="url(#pb8d8480618)" d="M 87.076123 87.7 
L 87.687295 87.7 
L 87.687295 86.84204 
L 87.076123 86.84204 
z
" style="fill:#1d1d1d;"/>
   </g>
   <g id="patch_145">
    <path clip-path="url(#pb8d8480618)" d="M 87.585433 87.7 
L 88.196605 87.7 
L 88.196605 86.860595 
L 87.585433 86.860595 
z
" style="fill:#1d1d1d;"/>
   </g>
   <g id="patch_146">
    <path clip-path="url(#pb8d8480618)" d="M 88.094743 87.7 
L 88.705915 87.7 
L 88.705915 86.863654 
L 88.094743 86.863654 
z
" style="fill:#1d1d1d;"/>
   </g>
   <g id="patch_147">
    <path clip-path="url(#pb8d8480618)" d="M 88.604053 87.7 
L 89.215225 87.7 
L 89.215225 86.870801 
L 88.604053 86.870801 
z
" style="fill:#1d1d1d;"/>
   </g>
   <g id="patch_148">
    <path clip-path="url(#pb8d8480618)" d="M 89.113363 87.7 
L 89.724535 87.7 
L 89.724535 86.894144 
L 89.113363 86.894144 
z
" style="fill:#1d1d1d;"/>
   </g>
   <g id="patch_149">
    <path clip-path="url(#pb8d8480618)" d="M 89.622673 87.7 
L 90.233844 87.7 
L 90.233844 86.92436 
L 89.622673 86.92436 
z
" style="fill:#1d1d1d;"/>
   </g>
   <g id="patch_150">
    <path clip-path="url(#pb8d8480618)" d="M 90.131982 87.7 
L 90.743154 87.7 
L 90.743154 86.958581 
L 90.131982 86.958581 
z
" style="fill:#1d1d1d;"/>
   </g>
   <g id="patch_151">
    <path clip-path="url(#pb8d8480618)" d="M 90.641292 87.7 
L 91.252464 87.7 
L 91.252464 86.983543 
L 90.641292 86.983543 
z
" style="fill:#1d1d1d;"/>
   </g>
   <g id="patch_152">
    <path clip-path="url(#pb8d8480618)" d="M 91.150602 87.7 
L 91.761774 87.7 
L 91.761774 86.985586 
L 91.150602 86.985586 
z
" style="fill:#1d1d1d;"/>
   </g>
   <g id="patch_153">
    <path clip-path="url(#pb8d8480618)" d="M 91.659912 87.7 
L 92.271084 87.7 
L 92.271084 86.987531 
L 91.659912 86.987531 
z
" style="fill:#1d1d1d;"/>
   </g>
   <g id="patch_154">
    <path clip-path="url(#pb8d8480618)" d="M 92.169222 87.7 
L 92.780394 87.7 
L 92.780394 86.990423 
L 92.169222 86.990423 
z
" style="fill:#1d1d1d;"/>
   </g>
   <g id="patch_155">
    <path clip-path="url(#pb8d8480618)" d="M 92.678532 87.7 
L 93.289704 87.7 
L 93.289704 87.000601 
L 92.678532 87.000601 
z
" style="fill:#1d1d1d;"/>
   </g>
   <g id="patch_156">
    <path clip-path="url(#pb8d8480618)" d="M 93.187842 87.7 
L 93.799014 87.7 
L 93.799014 87.018155 
L 93.187842 87.018155 
z
" style="fill:#1d1d1d;"/>
   </g>
   <g id="patch_157">
    <path clip-path="url(#pb8d8480618)" d="M 93.697152 87.7 
L 94.308324 87.7 
L 94.308324 87.024143 
L 93.697152 87.024143 
z
" style="fill:#1d1d1d;"/>
   </g>
   <g id="patch_158">
    <path clip-path="url(#pb8d8480618)" d="M 94.206462 87.7 
L 94.817634 87.7 
L 94.817634 87.047973 
L 94.206462 87.047973 
z
" style="fill:#1d1d1d;"/>
   </g>
   <g id="patch_159">
    <path clip-path="url(#pb8d8480618)" d="M 94.715772 87.7 
L 95.326944 87.7 
L 95.326944 87.061169 
L 94.715772 87.061169 
z
" style="fill:#1d1d1d;"/>
   </g>
   <g id="patch_160">
    <path clip-path="url(#pb8d8480618)" d="M 95.225082 87.7 
L 95.836254 87.7 
L 95.836254 87.080894 
L 95.225082 87.080894 
z
" style="fill:#1d1d1d;"/>
   </g>
   <g id="patch_161">
    <path clip-path="url(#pb8d8480618)" d="M 95.734392 87.7 
L 96.345564 87.7 
L 96.345564 87.081198 
L 95.734392 87.081198 
z
" style="fill:#1d1d1d;"/>
   </g>
   <g id="patch_162">
    <path clip-path="url(#pb8d8480618)" d="M 96.243702 87.7 
L 96.854874 87.7 
L 96.854874 87.097808 
L 96.243702 87.097808 
z
" style="fill:#1d1d1d;"/>
   </g>
   <g id="patch_163">
    <path clip-path="url(#pb8d8480618)" d="M 96.753012 87.7 
L 97.364184 87.7 
L 97.364184 87.106602 
L 96.753012 87.106602 
z
" style="fill:#1d1d1d;"/>
   </g>
   <g id="patch_164">
    <path clip-path="url(#pb8d8480618)" d="M 97.262322 87.7 
L 97.873494 87.7 
L 97.873494 87.11868 
L 97.262322 87.11868 
z
" style="fill:#1d1d1d;"/>
   </g>
   <g id="patch_165">
    <path clip-path="url(#pb8d8480618)" d="M 97.771632 87.7 
L 98.382804 87.7 
L 98.382804 87.129032 
L 97.771632 87.129032 
z
" style="fill:#1d1d1d;"/>
   </g>
   <g id="patch_166">
    <path clip-path="url(#pb8d8480618)" d="M 98.280942 87.7 
L 98.892114 87.7 
L 98.892114 87.135619 
L 98.280942 87.135619 
z
" style="fill:#1d1d1d;"/>
   </g>
   <g id="patch_167">
    <path clip-path="url(#pb8d8480618)" d="M 98.790252 87.7 
L 99.401424 87.7 
L 99.401424 87.137977 
L 98.790252 87.137977 
z
" style="fill:#1d1d1d;"/>
   </g>
   <g id="patch_168">
    <path clip-path="url(#pb8d8480618)" d="M 99.299562 87.7 
L 99.910734 87.7 
L 99.910734 87.154618 
L 99.299562 87.154618 
z
" style="fill:#1d1d1d;"/>
   </g>
   <g id="patch_169">
    <path clip-path="url(#pb8d8480618)" d="M 99.808872 87.7 
L 100.420044 87.7 
L 100.420044 87.157374 
L 99.808872 87.157374 
z
" style="fill:#1d1d1d;"/>
   </g>
   <g id="patch_170">
    <path clip-path="url(#pb8d8480618)" d="M 100.318182 87.7 
L 100.929354 87.7 
L 100.929354 87.174922 
L 100.318182 87.174922 
z
" style="fill:#1d1d1d;"/>
   </g>
   <g id="patch_171">
    <path clip-path="url(#pb8d8480618)" d="M 100.827492 87.7 
L 101.438664 87.7 
L 101.438664 87.189083 
L 100.827492 87.189083 
z
" style="fill:#1d1d1d;"/>
   </g>
   <g id="patch_172">
    <path clip-path="url(#pb8d8480618)" d="M 101.336802 87.7 
L 101.947974 87.7 
L 101.947974 87.202639 
L 101.336802 87.202639 
z
" style="fill:#1d1d1d;"/>
   </g>
   <g id="patch_173">
    <path clip-path="url(#pb8d8480618)" d="M 101.846112 87.7 
L 102.457284 87.7 
L 102.457284 87.20462 
L 101.846112 87.20462 
z
" style="fill:#1d1d1d;"/>
   </g>
   <g id="patch_174">
    <path clip-path="url(#pb8d8480618)" d="M 102.355422 87.7 
L 102.966594 87.7 
L 102.966594 87.213898 
L 102.355422 87.213898 
z
" style="fill:#1d1d1d;"/>
   </g>
   <g id="patch_175">
    <path clip-path="url(#pb8d8480618)" d="M 102.864732 87.7 
L 103.475904 87.7 
L 103.475904 87.219647 
L 102.864732 87.219647 
z
" style="fill:#1d1d1d;"/>
   </g>
   <g id="patch_176">
    <path clip-path="url(#pb8d8480618)" d="M 103.374042 87.7 
L 103.985214 87.7 
L 103.985214 87.22502 
L 103.374042 87.22502 
z
" style="fill:#1d1d1d;"/>
   </g>
   <g id="patch_177">
    <path clip-path="url(#pb8d8480618)" d="M 103.883352 87.7 
L 104.494524 87.7 
L 104.494524 87.22754 
L 103.883352 87.22754 
z
" style="fill:#1d1d1d;"/>
   </g>
   <g id="patch_178">
    <path clip-path="url(#pb8d8480618)" d="M 104.392662 87.7 
L 105.003834 87.7 
L 105.003834 87.231874 
L 104.392662 87.231874 
z
" style="fill:#1d1d1d;"/>
   </g>
   <g id="patch_179">
    <path clip-path="url(#pb8d8480618)" d="M 104.901972 87.7 
L 105.513143 87.7 
L 105.513143 87.233176 
L 104.901972 87.233176 
z
" style="fill:#1d1d1d;"/>
   </g>
   <g id="patch_180">
    <path clip-path="url(#pb8d8480618)" d="M 105.411281 87.7 
L 106.022453 87.7 
L 106.022453 87.235243 
L 105.411281 87.235243 
z
" style="fill:#1d1d1d;"/>
   </g>
   <g id="patch_181">
    <path clip-path="url(#pb8d8480618)" d="M 105.920591 87.7 
L 106.531763 87.7 
L 106.531763 87.239783 
L 105.920591 87.239783 
z
" style="fill:#1d1d1d;"/>
   </g>
   <g id="patch_182">
    <path clip-path="url(#pb8d8480618)" d="M 106.429901 87.7 
L 107.041073 87.7 
L 107.041073 87.243698 
L 106.429901 87.243698 
z
" style="fill:#1d1d1d;"/>
   </g>
   <g id="patch_183">
    <path clip-path="url(#pb8d8480618)" d="M 106.939211 87.7 
L 107.550383 87.7 
L 107.550383 87.257363 
L 106.939211 87.257363 
z
" style="fill:#1d1d1d;"/>
   </g>
   <g id="patch_184">
    <path clip-path="url(#pb8d8480618)" d="M 107.448521 87.7 
L 108.059693 87.7 
L 108.059693 87.261249 
L 107.448521 87.261249 
z
" style="fill:#1d1d1d;"/>
   </g>
   <g id="patch_185">
    <path clip-path="url(#pb8d8480618)" d="M 107.957831 87.7 
L 108.569003 87.7 
L 108.569003 87.265177 
L 107.957831 87.265177 
z
" style="fill:#1d1d1d;"/>
   </g>
   <g id="patch_186">
    <path clip-path="url(#pb8d8480618)" d="M 108.467141 87.7 
L 109.078313 87.7 
L 109.078313 87.268706 
L 108.467141 87.268706 
z
" style="fill:#1d1d1d;"/>
   </g>
   <g id="patch_187">
    <path clip-path="url(#pb8d8480618)" d="M 108.976451 87.7 
L 109.587623 87.7 
L 109.587623 87.27291 
L 108.976451 87.27291 
z
" style="fill:#1d1d1d;"/>
   </g>
   <g id="patch_188">
    <path clip-path="url(#pb8d8480618)" d="M 109.485761 87.7 
L 110.096933 87.7 
L 110.096933 87.28567 
L 109.485761 87.28567 
z
" style="fill:#1d1d1d;"/>
   </g>
   <g id="patch_189">
    <path clip-path="url(#pb8d8480618)" d="M 109.995071 87.7 
L 110.606243 87.7 
L 110.606243 87.297231 
L 109.995071 87.297231 
z
" style="fill:#1d1d1d;"/>
   </g>
   <g id="patch_190">
    <path clip-path="url(#pb8d8480618)" d="M 110.504381 87.7 
L 111.115553 87.7 
L 111.115553 87.300667 
L 110.504381 87.300667 
z
" style="fill:#1d1d1d;"/>
   </g>
   <g id="patch_191">
    <path clip-path="url(#pb8d8480618)" d="M 111.013691 87.7 
L 111.624863 87.7 
L 111.624863 87.30194 
L 111.013691 87.30194 
z
" style="fill:#1d1d1d;"/>
   </g>
   <g id="patch_192">
    <path clip-path="url(#pb8d8480618)" d="M 111.523001 87.7 
L 112.134173 87.7 
L 112.134173 87.302539 
L 111.523001 87.302539 
z
" style="fill:#1d1d1d;"/>
   </g>
   <g id="patch_193">
    <path clip-path="url(#pb8d8480618)" d="M 112.032311 87.7 
L 112.643483 87.7 
L 112.643483 87.304272 
L 112.032311 87.304272 
z
" style="fill:#1d1d1d;"/>
   </g>
   <g id="patch_194">
    <path clip-path="url(#pb8d8480618)" d="M 112.541621 87.7 
L 113.152793 87.7 
L 113.152793 87.313372 
L 112.541621 87.313372 
z
" style="fill:#1d1d1d;"/>
   </g>
   <g id="patch_195">
    <path clip-path="url(#pb8d8480618)" d="M 113.050931 87.7 
L 113.662103 87.7 
L 113.662103 87.31925 
L 113.050931 87.31925 
z
" style="fill:#1d1d1d;"/>
   </g>
   <g id="patch_196">
    <path clip-path="url(#pb8d8480618)" d="M 113.560241 87.7 
L 114.171413 87.7 
L 114.171413 87.32247 
L 113.560241 87.32247 
z
" style="fill:#1d1d1d;"/>
   </g>
   <g id="patch_197">
    <path clip-path="url(#pb8d8480618)" d="M 114.069551 87.7 
L 114.680723 87.7 
L 114.680723 87.327245 
L 114.069551 87.327245 
z
" style="fill:#1d1d1d;"/>
   </g>
   <g id="patch_198">
    <path clip-path="url(#pb8d8480618)" d="M 114.578861 87.7 
L 115.190033 87.7 
L 115.190033 87.333918 
L 114.578861 87.333918 
z
" style="fill:#1d1d1d;"/>
   </g>
   <g id="patch_199">
    <path clip-path="url(#pb8d8480618)" d="M 115.088171 87.7 
L 115.699343 87.7 
L 115.699343 87.336255 
L 115.088171 87.336255 
z
" style="fill:#1d1d1d;"/>
   </g>
   <g id="patch_200">
    <path clip-path="url(#pb8d8480618)" d="M 115.597481 87.7 
L 116.208653 87.7 
L 116.208653 87.343141 
L 115.597481 87.343141 
z
" style="fill:#1d1d1d;"/>
   </g>
   <g id="patch_201">
    <path clip-path="url(#pb8d8480618)" d="M 116.106791 87.7 
L 116.717963 87.7 
L 116.717963 87.343312 
L 116.106791 87.343312 
z
" style="fill:#1d1d1d;"/>
   </g>
   <g id="patch_202">
    <path clip-path="url(#pb8d8480618)" d="M 116.616101 87.7 
L 117.227273 87.7 
L 117.227273 87.350512 
L 116.616101 87.350512 
z
" style="fill:#1d1d1d;"/>
   </g>
   <g id="matplotlib.axis_1"/>
   <g id="matplotlib.axis_2"/>
   <g id="patch_203">
    <path d="M 10.7 93.86 
L 10.7 10.7 
" style="fill:none;stroke:#000000;stroke-linecap:square;stroke-linejoin:miter;stroke-width:0.8;"/>
   </g>
   <g id="patch_204">
    <path d="M 122.3 93.86 
L 122.3 10.7 
" style="fill:none;stroke:#000000;stroke-linecap:square;stroke-linejoin:miter;stroke-width:0.8;"/>
   </g>
   <g id="patch_205">
    <path d="M 10.7 93.86 
L 122.3 93.86 
" style="fill:none;stroke:#000000;stroke-linecap:square;stroke-linejoin:miter;stroke-width:0.8;"/>
   </g>
   <g id="patch_206">
    <path d="M 10.7 10.7 
L 122.3 10.7 
" style="fill:none;stroke:#000000;stroke-linecap:square;stroke-linejoin:miter;stroke-width:0.8;"/>
   </g>
  </g>
 </g>
 <defs>
  <clipPath id="pb8d8480618">
   <rect height="83.16" width="111.6" x="10.7" y="10.7"/>
  </clipPath>
 </defs>
</svg>
