<?xml version="1.0" encoding="utf-8" standalone="no"?>
<!DOCTYPE svg PUBLIC "-//W3C//DTD SVG 1.1//EN"
  "http://www.w3.org/Graphics/SVG/1.1/DTD/svg11.dtd">
<!-- Created with matplotlib (http://matplotlib.org/) -->
<svg height="104pt" version="1.1" viewBox="0 0 133 104" width="133pt" xmlns="http://www.w3.org/2000/svg" xmlns:xlink="http://www.w3.org/1999/xlink">
 <defs>
  <style type="text/css">
*{stroke-linecap:butt;stroke-linejoin:round;}
  </style>
 </defs>
 <g id="figure_1">
  <g id="patch_1">
   <path d="M 0 104.56 
L 133 104.56 
L 133 0 
L 0 0 
z
" style="fill:#ffffff;"/>
  </g>
  <g id="axes_1">
   <g id="patch_2">
    <path d="M 10.7 93.86 
L 122.3 93.86 
L 122.3 10.7 
L 10.7 10.7 
z
" style="fill:#ffffff;"/>
   </g>
   <g id="matplotlib.axis_1"/>
   <g id="matplotlib.axis_2"/>
   <g id="line2d_1">
    <path clip-path="url(#pba7f2b83d9)" d="M 15.772727 89.410343 
L 16.285124 89.408977 
L 16.797521 89.395144 
L 17.309917 89.395069 
L 17.822314 89.381634 
L 18.334711 89.379181 
L 18.847107 89.376612 
L 19.359504 89.37647 
L 19.871901 89.363119 
L 20.384298 89.361151 
L 20.896694 89.35248 
L 21.409091 89.350024 
L 21.921488 89.344718 
L 22.433884 89.344419 
L 22.946281 89.342038 
L 23.458678 89.335125 
L 23.971074 89.324354 
L 24.483471 89.309182 
L 24.995868 89.305851 
L 25.508264 89.301464 
L 26.020661 89.287703 
L 26.533058 89.25749 
L 27.045455 89.248405 
L 27.557851 89.245362 
L 28.070248 89.229421 
L 28.582645 89.220467 
L 29.095041 89.212537 
L 29.607438 89.209617 
L 30.119835 89.204714 
L 30.632231 89.202899 
L 31.144628 89.194292 
L 31.657025 89.179371 
L 32.169421 89.178384 
L 32.681818 89.1682 
L 33.194215 89.154492 
L 33.706612 89.151072 
L 34.219008 89.138203 
L 34.731405 89.118386 
L 35.243802 89.094383 
L 35.756198 89.087233 
L 36.268595 89.060445 
L 36.780992 89.05554 
L 37.293388 89.04841 
L 37.805785 89.040581 
L 38.318182 89.028602 
L 38.830579 89.02276 
L 39.342975 89.001617 
L 39.855372 88.98552 
L 40.367769 88.983867 
L 40.880165 88.945551 
L 41.392562 88.945059 
L 41.904959 88.920172 
L 42.417355 88.913603 
L 42.929752 88.894064 
L 43.442149 88.759648 
L 43.954545 88.754784 
L 44.466942 88.722331 
L 44.979339 88.690489 
L 45.491736 88.645322 
L 46.004132 88.64147 
L 46.516529 88.6388 
L 47.028926 88.61308 
L 47.541322 88.606336 
L 48.053719 88.586316 
L 48.566116 88.584161 
L 49.078512 88.577967 
L 49.590909 88.38491 
L 50.103306 88.344179 
L 50.615702 88.273931 
L 51.128099 88.251643 
L 51.640496 88.07176 
L 52.152893 87.912617 
L 52.665289 87.858069 
L 53.177686 87.847617 
L 53.690083 87.77386 
L 54.202479 87.771224 
L 54.714876 87.75466 
L 55.227273 87.75259 
L 55.739669 87.662387 
L 56.252066 87.616972 
L 56.764463 87.565396 
L 57.27686 87.544628 
L 57.789256 87.105478 
L 58.301653 87.070366 
L 58.81405 86.983689 
L 59.326446 86.633973 
L 59.838843 86.28351 
L 60.35124 85.89514 
L 60.863636 85.716998 
L 61.376033 85.69786 
L 61.88843 84.137229 
L 62.400826 84.109087 
L 62.913223 83.626114 
L 63.42562 83.37258 
L 63.938017 82.243002 
L 64.450413 82.183518 
L 64.96281 79.057119 
L 65.475207 78.840082 
L 65.987603 61.334923 
L 66.5 29.469614 
" style="fill:none;stroke:#fd8c3b;stroke-linecap:square;stroke-width:3;"/>
   </g>
   <g id="line2d_2">
    <path clip-path="url(#pba7f2b83d9)" d="M 66.5 29.469614 
L 67.012397 74.464146 
L 67.524793 77.128215 
L 68.03719 79.919888 
L 68.549587 80.03894 
L 69.061983 81.902838 
L 69.57438 82.232576 
L 70.086777 83.715172 
L 70.599174 84.038692 
L 71.11157 84.471106 
L 71.623967 84.706942 
L 72.136364 85.413214 
L 72.64876 85.450735 
L 73.161157 85.670278 
L 73.673554 86.533451 
L 74.18595 86.629432 
L 74.698347 87.165356 
L 75.210744 87.243151 
L 75.72314 87.321172 
L 76.235537 87.537721 
L 76.747934 87.599826 
L 77.260331 87.709104 
L 77.772727 87.751719 
L 78.285124 87.842492 
L 78.797521 87.848332 
L 79.309917 87.943696 
L 79.822314 87.9757 
L 80.334711 88.011443 
L 80.847107 88.080161 
L 81.359504 88.089766 
L 81.871901 88.102576 
L 82.384298 88.220152 
L 82.896694 88.22325 
L 83.409091 88.24029 
L 83.921488 88.267795 
L 84.433884 88.276321 
L 84.946281 88.299132 
L 85.458678 88.348567 
L 85.971074 88.378835 
L 86.483471 88.416689 
L 86.995868 88.420432 
L 87.508264 88.42966 
L 88.020661 88.45122 
L 88.533058 88.502126 
L 89.045455 88.535675 
L 89.557851 88.600419 
L 90.070248 88.601013 
L 90.582645 88.618519 
L 91.095041 88.710133 
L 91.607438 88.788415 
L 92.119835 88.795832 
L 92.632231 88.821076 
L 93.144628 88.837695 
L 93.657025 88.852855 
L 94.169421 88.898164 
L 94.681818 88.905403 
L 95.194215 88.919834 
L 95.706612 88.936326 
L 96.219008 88.937484 
L 96.731405 88.969193 
L 97.243802 88.984978 
L 97.756198 89.005599 
L 98.268595 89.042148 
L 98.780992 89.061048 
L 99.293388 89.070138 
L 99.805785 89.109394 
L 100.318182 89.129971 
L 100.830579 89.144008 
L 101.342975 89.156619 
L 101.855372 89.161614 
L 102.367769 89.169149 
L 102.880165 89.191381 
L 103.392562 89.193481 
L 103.904959 89.20403 
L 104.417355 89.220063 
L 104.929752 89.226554 
L 105.442149 89.238761 
L 105.954545 89.239739 
L 106.466942 89.245619 
L 106.979339 89.255804 
L 107.491736 89.263324 
L 108.004132 89.277888 
L 108.516529 89.281418 
L 109.028926 89.293307 
L 109.541322 89.299289 
L 110.053719 89.302118 
L 110.566116 89.31234 
L 111.078512 89.322356 
L 111.590909 89.328816 
L 112.103306 89.330078 
L 112.615702 89.334914 
L 113.128099 89.344397 
L 113.640496 89.35073 
L 114.152893 89.367219 
L 114.665289 89.372955 
L 115.177686 89.39121 
L 115.690083 89.397469 
L 116.202479 89.404225 
L 116.714876 89.406385 
L 117.227273 89.412167 
" style="fill:none;stroke:#fd8c3b;stroke-linecap:square;stroke-width:3;"/>
   </g>
   <g id="patch_3">
    <path d="M 10.7 93.86 
L 10.7 10.7 
" style="fill:none;stroke:#000000;stroke-linecap:square;stroke-linejoin:miter;stroke-width:0.8;"/>
   </g>
   <g id="patch_4">
    <path d="M 122.3 93.86 
L 122.3 10.7 
" style="fill:none;stroke:#000000;stroke-linecap:square;stroke-linejoin:miter;stroke-width:0.8;"/>
   </g>
   <g id="patch_5">
    <path d="M 10.7 93.86 
L 122.3 93.86 
" style="fill:none;stroke:#000000;stroke-linecap:square;stroke-linejoin:miter;stroke-width:0.8;"/>
   </g>
   <g id="patch_6">
    <path d="M 10.7 10.7 
L 122.3 10.7 
" style="fill:none;stroke:#000000;stroke-linecap:square;stroke-linejoin:miter;stroke-width:0.8;"/>
   </g>
  </g>
 </g>
 <defs>
  <clipPath id="pba7f2b83d9">
   <rect height="83.16" width="111.6" x="10.7" y="10.7"/>
  </clipPath>
 </defs>
</svg>
