<?xml version="1.0" encoding="utf-8" standalone="no"?>
<!DOCTYPE svg PUBLIC "-//W3C//DTD SVG 1.1//EN"
  "http://www.w3.org/Graphics/SVG/1.1/DTD/svg11.dtd">
<!-- Created with matplotlib (http://matplotlib.org/) -->
<svg height="104pt" version="1.1" viewBox="0 0 133 104" width="133pt" xmlns="http://www.w3.org/2000/svg" xmlns:xlink="http://www.w3.org/1999/xlink">
 <defs>
  <style type="text/css">
*{stroke-linecap:butt;stroke-linejoin:round;}
  </style>
 </defs>
 <g id="figure_1">
  <g id="patch_1">
   <path d="M 0 104.56 
L 133 104.56 
L 133 0 
L 0 0 
z
" style="fill:#ffffff;"/>
  </g>
  <g id="axes_1">
   <g id="patch_2">
    <path d="M 10.7 93.86 
L 122.3 93.86 
L 122.3 10.7 
L 10.7 10.7 
z
" style="fill:#ffffff;"/>
   </g>
   <g id="patch_3">
    <path clip-path="url(#p787bfdabdb)" d="M 15.772727 87.7 
L 16.383899 87.7 
L 16.383899 86.736765 
L 15.772727 86.736765 
z
" style="fill:#1d1d1d;"/>
   </g>
   <g id="patch_4">
    <path clip-path="url(#p787bfdabdb)" d="M 16.282037 87.7 
L 16.893209 87.7 
L 16.893209 86.704707 
L 16.282037 86.704707 
z
" style="fill:#1d1d1d;"/>
   </g>
   <g id="patch_5">
    <path clip-path="url(#p787bfdabdb)" d="M 16.791347 87.7 
L 17.402519 87.7 
L 17.402519 86.697113 
L 16.791347 86.697113 
z
" style="fill:#1d1d1d;"/>
   </g>
   <g id="patch_6">
    <path clip-path="url(#p787bfdabdb)" d="M 17.300657 87.7 
L 17.911829 87.7 
L 17.911829 86.695703 
L 17.300657 86.695703 
z
" style="fill:#1d1d1d;"/>
   </g>
   <g id="patch_7">
    <path clip-path="url(#p787bfdabdb)" d="M 17.809967 87.7 
L 18.421139 87.7 
L 18.421139 86.685707 
L 17.809967 86.685707 
z
" style="fill:#1d1d1d;"/>
   </g>
   <g id="patch_8">
    <path clip-path="url(#p787bfdabdb)" d="M 18.319277 87.7 
L 18.930449 87.7 
L 18.930449 86.667934 
L 18.319277 86.667934 
z
" style="fill:#1d1d1d;"/>
   </g>
   <g id="patch_9">
    <path clip-path="url(#p787bfdabdb)" d="M 18.828587 87.7 
L 19.439759 87.7 
L 19.439759 86.630013 
L 18.828587 86.630013 
z
" style="fill:#1d1d1d;"/>
   </g>
   <g id="patch_10">
    <path clip-path="url(#p787bfdabdb)" d="M 19.337897 87.7 
L 19.949069 87.7 
L 19.949069 86.624316 
L 19.337897 86.624316 
z
" style="fill:#1d1d1d;"/>
   </g>
   <g id="patch_11">
    <path clip-path="url(#p787bfdabdb)" d="M 19.847207 87.7 
L 20.458379 87.7 
L 20.458379 86.619782 
L 19.847207 86.619782 
z
" style="fill:#1d1d1d;"/>
   </g>
   <g id="patch_12">
    <path clip-path="url(#p787bfdabdb)" d="M 20.356517 87.7 
L 20.967689 87.7 
L 20.967689 86.610722 
L 20.356517 86.610722 
z
" style="fill:#1d1d1d;"/>
   </g>
   <g id="patch_13">
    <path clip-path="url(#p787bfdabdb)" d="M 20.865827 87.7 
L 21.476999 87.7 
L 21.476999 86.60914 
L 20.865827 86.60914 
z
" style="fill:#1d1d1d;"/>
   </g>
   <g id="patch_14">
    <path clip-path="url(#p787bfdabdb)" d="M 21.375137 87.7 
L 21.986309 87.7 
L 21.986309 86.585993 
L 21.375137 86.585993 
z
" style="fill:#1d1d1d;"/>
   </g>
   <g id="patch_15">
    <path clip-path="url(#p787bfdabdb)" d="M 21.884447 87.7 
L 22.495619 87.7 
L 22.495619 86.581145 
L 21.884447 86.581145 
z
" style="fill:#1d1d1d;"/>
   </g>
   <g id="patch_16">
    <path clip-path="url(#p787bfdabdb)" d="M 22.393757 87.7 
L 23.004929 87.7 
L 23.004929 86.522076 
L 22.393757 86.522076 
z
" style="fill:#1d1d1d;"/>
   </g>
   <g id="patch_17">
    <path clip-path="url(#p787bfdabdb)" d="M 22.903067 87.7 
L 23.514239 87.7 
L 23.514239 86.512316 
L 22.903067 86.512316 
z
" style="fill:#1d1d1d;"/>
   </g>
   <g id="patch_18">
    <path clip-path="url(#p787bfdabdb)" d="M 23.412377 87.7 
L 24.023549 87.7 
L 24.023549 86.503201 
L 23.412377 86.503201 
z
" style="fill:#1d1d1d;"/>
   </g>
   <g id="patch_19">
    <path clip-path="url(#p787bfdabdb)" d="M 23.921687 87.7 
L 24.532859 87.7 
L 24.532859 86.492038 
L 23.921687 86.492038 
z
" style="fill:#1d1d1d;"/>
   </g>
   <g id="patch_20">
    <path clip-path="url(#p787bfdabdb)" d="M 24.430997 87.7 
L 25.042169 87.7 
L 25.042169 86.474533 
L 24.430997 86.474533 
z
" style="fill:#1d1d1d;"/>
   </g>
   <g id="patch_21">
    <path clip-path="url(#p787bfdabdb)" d="M 24.940307 87.7 
L 25.551479 87.7 
L 25.551479 86.47025 
L 24.940307 86.47025 
z
" style="fill:#1d1d1d;"/>
   </g>
   <g id="patch_22">
    <path clip-path="url(#p787bfdabdb)" d="M 25.449617 87.7 
L 26.060789 87.7 
L 26.060789 86.433982 
L 25.449617 86.433982 
z
" style="fill:#1d1d1d;"/>
   </g>
   <g id="patch_23">
    <path clip-path="url(#p787bfdabdb)" d="M 25.958927 87.7 
L 26.570099 87.7 
L 26.570099 86.422611 
L 25.958927 86.422611 
z
" style="fill:#1d1d1d;"/>
   </g>
   <g id="patch_24">
    <path clip-path="url(#p787bfdabdb)" d="M 26.468237 87.7 
L 27.079409 87.7 
L 27.079409 86.39002 
L 26.468237 86.39002 
z
" style="fill:#1d1d1d;"/>
   </g>
   <g id="patch_25">
    <path clip-path="url(#p787bfdabdb)" d="M 26.977547 87.7 
L 27.588719 87.7 
L 27.588719 86.373256 
L 26.977547 86.373256 
z
" style="fill:#1d1d1d;"/>
   </g>
   <g id="patch_26">
    <path clip-path="url(#p787bfdabdb)" d="M 27.486857 87.7 
L 28.098028 87.7 
L 28.098028 86.349479 
L 27.486857 86.349479 
z
" style="fill:#1d1d1d;"/>
   </g>
   <g id="patch_27">
    <path clip-path="url(#p787bfdabdb)" d="M 27.996166 87.7 
L 28.607338 87.7 
L 28.607338 86.325655 
L 27.996166 86.325655 
z
" style="fill:#1d1d1d;"/>
   </g>
   <g id="patch_28">
    <path clip-path="url(#p787bfdabdb)" d="M 28.505476 87.7 
L 29.116648 87.7 
L 29.116648 86.305809 
L 28.505476 86.305809 
z
" style="fill:#1d1d1d;"/>
   </g>
   <g id="patch_29">
    <path clip-path="url(#p787bfdabdb)" d="M 29.014786 87.7 
L 29.625958 87.7 
L 29.625958 86.298811 
L 29.014786 86.298811 
z
" style="fill:#1d1d1d;"/>
   </g>
   <g id="patch_30">
    <path clip-path="url(#p787bfdabdb)" d="M 29.524096 87.7 
L 30.135268 87.7 
L 30.135268 86.289086 
L 29.524096 86.289086 
z
" style="fill:#1d1d1d;"/>
   </g>
   <g id="patch_31">
    <path clip-path="url(#p787bfdabdb)" d="M 30.033406 87.7 
L 30.644578 87.7 
L 30.644578 86.286756 
L 30.033406 86.286756 
z
" style="fill:#1d1d1d;"/>
   </g>
   <g id="patch_32">
    <path clip-path="url(#p787bfdabdb)" d="M 30.542716 87.7 
L 31.153888 87.7 
L 31.153888 86.273446 
L 30.542716 86.273446 
z
" style="fill:#1d1d1d;"/>
   </g>
   <g id="patch_33">
    <path clip-path="url(#p787bfdabdb)" d="M 31.052026 87.7 
L 31.663198 87.7 
L 31.663198 86.23466 
L 31.052026 86.23466 
z
" style="fill:#1d1d1d;"/>
   </g>
   <g id="patch_34">
    <path clip-path="url(#p787bfdabdb)" d="M 31.561336 87.7 
L 32.172508 87.7 
L 32.172508 86.215398 
L 31.561336 86.215398 
z
" style="fill:#1d1d1d;"/>
   </g>
   <g id="patch_35">
    <path clip-path="url(#p787bfdabdb)" d="M 32.070646 87.7 
L 32.681818 87.7 
L 32.681818 86.195345 
L 32.070646 86.195345 
z
" style="fill:#1d1d1d;"/>
   </g>
   <g id="patch_36">
    <path clip-path="url(#p787bfdabdb)" d="M 32.579956 87.7 
L 33.191128 87.7 
L 33.191128 86.119155 
L 32.579956 86.119155 
z
" style="fill:#1d1d1d;"/>
   </g>
   <g id="patch_37">
    <path clip-path="url(#p787bfdabdb)" d="M 33.089266 87.7 
L 33.700438 87.7 
L 33.700438 86.059157 
L 33.089266 86.059157 
z
" style="fill:#1d1d1d;"/>
   </g>
   <g id="patch_38">
    <path clip-path="url(#p787bfdabdb)" d="M 33.598576 87.7 
L 34.209748 87.7 
L 34.209748 86.058161 
L 33.598576 86.058161 
z
" style="fill:#1d1d1d;"/>
   </g>
   <g id="patch_39">
    <path clip-path="url(#p787bfdabdb)" d="M 34.107886 87.7 
L 34.719058 87.7 
L 34.719058 85.999421 
L 34.107886 85.999421 
z
" style="fill:#1d1d1d;"/>
   </g>
   <g id="patch_40">
    <path clip-path="url(#p787bfdabdb)" d="M 34.617196 87.7 
L 35.228368 87.7 
L 35.228368 85.989235 
L 34.617196 85.989235 
z
" style="fill:#1d1d1d;"/>
   </g>
   <g id="patch_41">
    <path clip-path="url(#p787bfdabdb)" d="M 35.126506 87.7 
L 35.737678 87.7 
L 35.737678 85.900785 
L 35.126506 85.900785 
z
" style="fill:#1d1d1d;"/>
   </g>
   <g id="patch_42">
    <path clip-path="url(#p787bfdabdb)" d="M 35.635816 87.7 
L 36.246988 87.7 
L 36.246988 85.834641 
L 35.635816 85.834641 
z
" style="fill:#1d1d1d;"/>
   </g>
   <g id="patch_43">
    <path clip-path="url(#p787bfdabdb)" d="M 36.145126 87.7 
L 36.756298 87.7 
L 36.756298 85.809898 
L 36.145126 85.809898 
z
" style="fill:#1d1d1d;"/>
   </g>
   <g id="patch_44">
    <path clip-path="url(#p787bfdabdb)" d="M 36.654436 87.7 
L 37.265608 87.7 
L 37.265608 85.800061 
L 36.654436 85.800061 
z
" style="fill:#1d1d1d;"/>
   </g>
   <g id="patch_45">
    <path clip-path="url(#p787bfdabdb)" d="M 37.163746 87.7 
L 37.774918 87.7 
L 37.774918 85.783502 
L 37.163746 85.783502 
z
" style="fill:#1d1d1d;"/>
   </g>
   <g id="patch_46">
    <path clip-path="url(#p787bfdabdb)" d="M 37.673056 87.7 
L 38.284228 87.7 
L 38.284228 85.769559 
L 37.673056 85.769559 
z
" style="fill:#1d1d1d;"/>
   </g>
   <g id="patch_47">
    <path clip-path="url(#p787bfdabdb)" d="M 38.182366 87.7 
L 38.793538 87.7 
L 38.793538 85.728288 
L 38.182366 85.728288 
z
" style="fill:#1d1d1d;"/>
   </g>
   <g id="patch_48">
    <path clip-path="url(#p787bfdabdb)" d="M 38.691676 87.7 
L 39.302848 87.7 
L 39.302848 85.691381 
L 38.691676 85.691381 
z
" style="fill:#1d1d1d;"/>
   </g>
   <g id="patch_49">
    <path clip-path="url(#p787bfdabdb)" d="M 39.200986 87.7 
L 39.812158 87.7 
L 39.812158 85.677898 
L 39.200986 85.677898 
z
" style="fill:#1d1d1d;"/>
   </g>
   <g id="patch_50">
    <path clip-path="url(#p787bfdabdb)" d="M 39.710296 87.7 
L 40.321468 87.7 
L 40.321468 85.59589 
L 39.710296 85.59589 
z
" style="fill:#1d1d1d;"/>
   </g>
   <g id="patch_51">
    <path clip-path="url(#p787bfdabdb)" d="M 40.219606 87.7 
L 40.830778 87.7 
L 40.830778 85.557253 
L 40.219606 85.557253 
z
" style="fill:#1d1d1d;"/>
   </g>
   <g id="patch_52">
    <path clip-path="url(#p787bfdabdb)" d="M 40.728916 87.7 
L 41.340088 87.7 
L 41.340088 85.538743 
L 40.728916 85.538743 
z
" style="fill:#1d1d1d;"/>
   </g>
   <g id="patch_53">
    <path clip-path="url(#p787bfdabdb)" d="M 41.238226 87.7 
L 41.849398 87.7 
L 41.849398 85.534294 
L 41.238226 85.534294 
z
" style="fill:#1d1d1d;"/>
   </g>
   <g id="patch_54">
    <path clip-path="url(#p787bfdabdb)" d="M 41.747536 87.7 
L 42.358708 87.7 
L 42.358708 85.502711 
L 41.747536 85.502711 
z
" style="fill:#1d1d1d;"/>
   </g>
   <g id="patch_55">
    <path clip-path="url(#p787bfdabdb)" d="M 42.256846 87.7 
L 42.868018 87.7 
L 42.868018 85.459952 
L 42.256846 85.459952 
z
" style="fill:#1d1d1d;"/>
   </g>
   <g id="patch_56">
    <path clip-path="url(#p787bfdabdb)" d="M 42.766156 87.7 
L 43.377327 87.7 
L 43.377327 85.403477 
L 42.766156 85.403477 
z
" style="fill:#1d1d1d;"/>
   </g>
   <g id="patch_57">
    <path clip-path="url(#p787bfdabdb)" d="M 43.275465 87.7 
L 43.886637 87.7 
L 43.886637 85.388052 
L 43.275465 85.388052 
z
" style="fill:#1d1d1d;"/>
   </g>
   <g id="patch_58">
    <path clip-path="url(#p787bfdabdb)" d="M 43.784775 87.7 
L 44.395947 87.7 
L 44.395947 85.278637 
L 43.784775 85.278637 
z
" style="fill:#1d1d1d;"/>
   </g>
   <g id="patch_59">
    <path clip-path="url(#p787bfdabdb)" d="M 44.294085 87.7 
L 44.905257 87.7 
L 44.905257 85.093494 
L 44.294085 85.093494 
z
" style="fill:#1d1d1d;"/>
   </g>
   <g id="patch_60">
    <path clip-path="url(#p787bfdabdb)" d="M 44.803395 87.7 
L 45.414567 87.7 
L 45.414567 85.075435 
L 44.803395 85.075435 
z
" style="fill:#1d1d1d;"/>
   </g>
   <g id="patch_61">
    <path clip-path="url(#p787bfdabdb)" d="M 45.312705 87.7 
L 45.923877 87.7 
L 45.923877 85.038055 
L 45.312705 85.038055 
z
" style="fill:#1d1d1d;"/>
   </g>
   <g id="patch_62">
    <path clip-path="url(#p787bfdabdb)" d="M 45.822015 87.7 
L 46.433187 87.7 
L 46.433187 84.867145 
L 45.822015 84.867145 
z
" style="fill:#1d1d1d;"/>
   </g>
   <g id="patch_63">
    <path clip-path="url(#p787bfdabdb)" d="M 46.331325 87.7 
L 46.942497 87.7 
L 46.942497 84.820424 
L 46.331325 84.820424 
z
" style="fill:#1d1d1d;"/>
   </g>
   <g id="patch_64">
    <path clip-path="url(#p787bfdabdb)" d="M 46.840635 87.7 
L 47.451807 87.7 
L 47.451807 84.75696 
L 46.840635 84.75696 
z
" style="fill:#1d1d1d;"/>
   </g>
   <g id="patch_65">
    <path clip-path="url(#p787bfdabdb)" d="M 47.349945 87.7 
L 47.961117 87.7 
L 47.961117 84.744453 
L 47.349945 84.744453 
z
" style="fill:#1d1d1d;"/>
   </g>
   <g id="patch_66">
    <path clip-path="url(#p787bfdabdb)" d="M 47.859255 87.7 
L 48.470427 87.7 
L 48.470427 84.521123 
L 47.859255 84.521123 
z
" style="fill:#1d1d1d;"/>
   </g>
   <g id="patch_67">
    <path clip-path="url(#p787bfdabdb)" d="M 48.368565 87.7 
L 48.979737 87.7 
L 48.979737 84.41813 
L 48.368565 84.41813 
z
" style="fill:#1d1d1d;"/>
   </g>
   <g id="patch_68">
    <path clip-path="url(#p787bfdabdb)" d="M 48.877875 87.7 
L 49.489047 87.7 
L 49.489047 84.284484 
L 48.877875 84.284484 
z
" style="fill:#1d1d1d;"/>
   </g>
   <g id="patch_69">
    <path clip-path="url(#p787bfdabdb)" d="M 49.387185 87.7 
L 49.998357 87.7 
L 49.998357 84.264776 
L 49.387185 84.264776 
z
" style="fill:#1d1d1d;"/>
   </g>
   <g id="patch_70">
    <path clip-path="url(#p787bfdabdb)" d="M 49.896495 87.7 
L 50.507667 87.7 
L 50.507667 84.098108 
L 49.896495 84.098108 
z
" style="fill:#1d1d1d;"/>
   </g>
   <g id="patch_71">
    <path clip-path="url(#p787bfdabdb)" d="M 50.405805 87.7 
L 51.016977 87.7 
L 51.016977 84.071843 
L 50.405805 84.071843 
z
" style="fill:#1d1d1d;"/>
   </g>
   <g id="patch_72">
    <path clip-path="url(#p787bfdabdb)" d="M 50.915115 87.7 
L 51.526287 87.7 
L 51.526287 84.038146 
L 50.915115 84.038146 
z
" style="fill:#1d1d1d;"/>
   </g>
   <g id="patch_73">
    <path clip-path="url(#p787bfdabdb)" d="M 51.424425 87.7 
L 52.035597 87.7 
L 52.035597 83.92229 
L 51.424425 83.92229 
z
" style="fill:#1d1d1d;"/>
   </g>
   <g id="patch_74">
    <path clip-path="url(#p787bfdabdb)" d="M 51.933735 87.7 
L 52.544907 87.7 
L 52.544907 83.912983 
L 51.933735 83.912983 
z
" style="fill:#1d1d1d;"/>
   </g>
   <g id="patch_75">
    <path clip-path="url(#p787bfdabdb)" d="M 52.443045 87.7 
L 53.054217 87.7 
L 53.054217 83.812424 
L 52.443045 83.812424 
z
" style="fill:#1d1d1d;"/>
   </g>
   <g id="patch_76">
    <path clip-path="url(#p787bfdabdb)" d="M 52.952355 87.7 
L 53.563527 87.7 
L 53.563527 83.480756 
L 52.952355 83.480756 
z
" style="fill:#1d1d1d;"/>
   </g>
   <g id="patch_77">
    <path clip-path="url(#p787bfdabdb)" d="M 53.461665 87.7 
L 54.072837 87.7 
L 54.072837 83.39312 
L 53.461665 83.39312 
z
" style="fill:#1d1d1d;"/>
   </g>
   <g id="patch_78">
    <path clip-path="url(#p787bfdabdb)" d="M 53.970975 87.7 
L 54.582147 87.7 
L 54.582147 82.889976 
L 53.970975 82.889976 
z
" style="fill:#1d1d1d;"/>
   </g>
   <g id="patch_79">
    <path clip-path="url(#p787bfdabdb)" d="M 54.480285 87.7 
L 55.091457 87.7 
L 55.091457 82.794133 
L 54.480285 82.794133 
z
" style="fill:#1d1d1d;"/>
   </g>
   <g id="patch_80">
    <path clip-path="url(#p787bfdabdb)" d="M 54.989595 87.7 
L 55.600767 87.7 
L 55.600767 82.568514 
L 54.989595 82.568514 
z
" style="fill:#1d1d1d;"/>
   </g>
   <g id="patch_81">
    <path clip-path="url(#p787bfdabdb)" d="M 55.498905 87.7 
L 56.110077 87.7 
L 56.110077 82.414822 
L 55.498905 82.414822 
z
" style="fill:#1d1d1d;"/>
   </g>
   <g id="patch_82">
    <path clip-path="url(#p787bfdabdb)" d="M 56.008215 87.7 
L 56.619387 87.7 
L 56.619387 82.344175 
L 56.008215 82.344175 
z
" style="fill:#1d1d1d;"/>
   </g>
   <g id="patch_83">
    <path clip-path="url(#p787bfdabdb)" d="M 56.517525 87.7 
L 57.128697 87.7 
L 57.128697 82.130896 
L 56.517525 82.130896 
z
" style="fill:#1d1d1d;"/>
   </g>
   <g id="patch_84">
    <path clip-path="url(#p787bfdabdb)" d="M 57.026835 87.7 
L 57.638007 87.7 
L 57.638007 82.062371 
L 57.026835 82.062371 
z
" style="fill:#1d1d1d;"/>
   </g>
   <g id="patch_85">
    <path clip-path="url(#p787bfdabdb)" d="M 57.536145 87.7 
L 58.147317 87.7 
L 58.147317 81.97328 
L 57.536145 81.97328 
z
" style="fill:#1d1d1d;"/>
   </g>
   <g id="patch_86">
    <path clip-path="url(#p787bfdabdb)" d="M 58.045455 87.7 
L 58.656627 87.7 
L 58.656627 80.799012 
L 58.045455 80.799012 
z
" style="fill:#1d1d1d;"/>
   </g>
   <g id="patch_87">
    <path clip-path="url(#p787bfdabdb)" d="M 58.554765 87.7 
L 59.165936 87.7 
L 59.165936 80.592268 
L 58.554765 80.592268 
z
" style="fill:#1d1d1d;"/>
   </g>
   <g id="patch_88">
    <path clip-path="url(#p787bfdabdb)" d="M 59.064074 87.7 
L 59.675246 87.7 
L 59.675246 80.306698 
L 59.064074 80.306698 
z
" style="fill:#1d1d1d;"/>
   </g>
   <g id="patch_89">
    <path clip-path="url(#p787bfdabdb)" d="M 59.573384 87.7 
L 60.184556 87.7 
L 60.184556 79.384137 
L 59.573384 79.384137 
z
" style="fill:#1d1d1d;"/>
   </g>
   <g id="patch_90">
    <path clip-path="url(#p787bfdabdb)" d="M 60.082694 87.7 
L 60.693866 87.7 
L 60.693866 78.455555 
L 60.082694 78.455555 
z
" style="fill:#1d1d1d;"/>
   </g>
   <g id="patch_91">
    <path clip-path="url(#p787bfdabdb)" d="M 60.592004 87.7 
L 61.203176 87.7 
L 61.203176 78.053928 
L 60.592004 78.053928 
z
" style="fill:#1d1d1d;"/>
   </g>
   <g id="patch_92">
    <path clip-path="url(#p787bfdabdb)" d="M 61.101314 87.7 
L 61.712486 87.7 
L 61.712486 76.8921 
L 61.101314 76.8921 
z
" style="fill:#1d1d1d;"/>
   </g>
   <g id="patch_93">
    <path clip-path="url(#p787bfdabdb)" d="M 61.610624 87.7 
L 62.221796 87.7 
L 62.221796 75.880717 
L 61.610624 75.880717 
z
" style="fill:#1d1d1d;"/>
   </g>
   <g id="patch_94">
    <path clip-path="url(#p787bfdabdb)" d="M 62.119934 87.7 
L 62.731106 87.7 
L 62.731106 75.421983 
L 62.119934 75.421983 
z
" style="fill:#1d1d1d;"/>
   </g>
   <g id="patch_95">
    <path clip-path="url(#p787bfdabdb)" d="M 62.629244 87.7 
L 63.240416 87.7 
L 63.240416 72.692915 
L 62.629244 72.692915 
z
" style="fill:#1d1d1d;"/>
   </g>
   <g id="patch_96">
    <path clip-path="url(#p787bfdabdb)" d="M 63.138554 87.7 
L 63.749726 87.7 
L 63.749726 71.860321 
L 63.138554 71.860321 
z
" style="fill:#1d1d1d;"/>
   </g>
   <g id="patch_97">
    <path clip-path="url(#p787bfdabdb)" d="M 63.647864 87.7 
L 64.259036 87.7 
L 64.259036 71.534998 
L 63.647864 71.534998 
z
" style="fill:#1d1d1d;"/>
   </g>
   <g id="patch_98">
    <path clip-path="url(#p787bfdabdb)" d="M 64.157174 87.7 
L 64.768346 87.7 
L 64.768346 68.409548 
L 64.157174 68.409548 
z
" style="fill:#1d1d1d;"/>
   </g>
   <g id="patch_99">
    <path clip-path="url(#p787bfdabdb)" d="M 64.666484 87.7 
L 65.277656 87.7 
L 65.277656 68.087267 
L 64.666484 68.087267 
z
" style="fill:#1d1d1d;"/>
   </g>
   <g id="patch_100">
    <path clip-path="url(#p787bfdabdb)" d="M 65.175794 87.7 
L 65.786966 87.7 
L 65.786966 65.952519 
L 65.175794 65.952519 
z
" style="fill:#1d1d1d;"/>
   </g>
   <g id="patch_101">
    <path clip-path="url(#p787bfdabdb)" d="M 65.685104 87.7 
L 66.296276 87.7 
L 66.296276 38.213817 
L 65.685104 38.213817 
z
" style="fill:#1d1d1d;"/>
   </g>
   <g id="patch_102">
    <path clip-path="url(#p787bfdabdb)" d="M 66.194414 87.7 
L 66.805586 87.7 
L 66.805586 26.519136 
L 66.194414 26.519136 
z
" style="fill:#1d1d1d;"/>
   </g>
   <g id="patch_103">
    <path clip-path="url(#p787bfdabdb)" d="M 66.194414 87.7 
L 66.805586 87.7 
L 66.805586 26.519136 
L 66.194414 26.519136 
z
" style="fill:#1d1d1d;"/>
   </g>
   <g id="patch_104">
    <path clip-path="url(#p787bfdabdb)" d="M 66.703724 87.7 
L 67.314896 87.7 
L 67.314896 38.147512 
L 66.703724 38.147512 
z
" style="fill:#1d1d1d;"/>
   </g>
   <g id="patch_105">
    <path clip-path="url(#p787bfdabdb)" d="M 67.213034 87.7 
L 67.824206 87.7 
L 67.824206 42.844799 
L 67.213034 42.844799 
z
" style="fill:#1d1d1d;"/>
   </g>
   <g id="patch_106">
    <path clip-path="url(#p787bfdabdb)" d="M 67.722344 87.7 
L 68.333516 87.7 
L 68.333516 57.028774 
L 67.722344 57.028774 
z
" style="fill:#1d1d1d;"/>
   </g>
   <g id="patch_107">
    <path clip-path="url(#p787bfdabdb)" d="M 68.231654 87.7 
L 68.842826 87.7 
L 68.842826 66.903235 
L 68.231654 66.903235 
z
" style="fill:#1d1d1d;"/>
   </g>
   <g id="patch_108">
    <path clip-path="url(#p787bfdabdb)" d="M 68.740964 87.7 
L 69.352136 87.7 
L 69.352136 73.851186 
L 68.740964 73.851186 
z
" style="fill:#1d1d1d;"/>
   </g>
   <g id="patch_109">
    <path clip-path="url(#p787bfdabdb)" d="M 69.250274 87.7 
L 69.861446 87.7 
L 69.861446 74.123443 
L 69.250274 74.123443 
z
" style="fill:#1d1d1d;"/>
   </g>
   <g id="patch_110">
    <path clip-path="url(#p787bfdabdb)" d="M 69.759584 87.7 
L 70.370756 87.7 
L 70.370756 76.883468 
L 69.759584 76.883468 
z
" style="fill:#1d1d1d;"/>
   </g>
   <g id="patch_111">
    <path clip-path="url(#p787bfdabdb)" d="M 70.268894 87.7 
L 70.880066 87.7 
L 70.880066 77.485506 
L 70.268894 77.485506 
z
" style="fill:#1d1d1d;"/>
   </g>
   <g id="patch_112">
    <path clip-path="url(#p787bfdabdb)" d="M 70.778204 87.7 
L 71.389376 87.7 
L 71.389376 78.598621 
L 70.778204 78.598621 
z
" style="fill:#1d1d1d;"/>
   </g>
   <g id="patch_113">
    <path clip-path="url(#p787bfdabdb)" d="M 71.287514 87.7 
L 71.898686 87.7 
L 71.898686 79.020525 
L 71.287514 79.020525 
z
" style="fill:#1d1d1d;"/>
   </g>
   <g id="patch_114">
    <path clip-path="url(#p787bfdabdb)" d="M 71.796824 87.7 
L 72.407996 87.7 
L 72.407996 79.738854 
L 71.796824 79.738854 
z
" style="fill:#1d1d1d;"/>
   </g>
   <g id="patch_115">
    <path clip-path="url(#p787bfdabdb)" d="M 72.306134 87.7 
L 72.917306 87.7 
L 72.917306 79.823859 
L 72.306134 79.823859 
z
" style="fill:#1d1d1d;"/>
   </g>
   <g id="patch_116">
    <path clip-path="url(#p787bfdabdb)" d="M 72.815444 87.7 
L 73.426616 87.7 
L 73.426616 80.024305 
L 72.815444 80.024305 
z
" style="fill:#1d1d1d;"/>
   </g>
   <g id="patch_117">
    <path clip-path="url(#p787bfdabdb)" d="M 73.324754 87.7 
L 73.935926 87.7 
L 73.935926 80.412512 
L 73.324754 80.412512 
z
" style="fill:#1d1d1d;"/>
   </g>
   <g id="patch_118">
    <path clip-path="url(#p787bfdabdb)" d="M 73.834064 87.7 
L 74.445235 87.7 
L 74.445235 80.738599 
L 73.834064 80.738599 
z
" style="fill:#1d1d1d;"/>
   </g>
   <g id="patch_119">
    <path clip-path="url(#p787bfdabdb)" d="M 74.343373 87.7 
L 74.954545 87.7 
L 74.954545 80.801658 
L 74.343373 80.801658 
z
" style="fill:#1d1d1d;"/>
   </g>
   <g id="patch_120">
    <path clip-path="url(#p787bfdabdb)" d="M 74.852683 87.7 
L 75.463855 87.7 
L 75.463855 81.105557 
L 74.852683 81.105557 
z
" style="fill:#1d1d1d;"/>
   </g>
   <g id="patch_121">
    <path clip-path="url(#p787bfdabdb)" d="M 75.361993 87.7 
L 75.973165 87.7 
L 75.973165 81.424574 
L 75.361993 81.424574 
z
" style="fill:#1d1d1d;"/>
   </g>
   <g id="patch_122">
    <path clip-path="url(#p787bfdabdb)" d="M 75.871303 87.7 
L 76.482475 87.7 
L 76.482475 81.857606 
L 75.871303 81.857606 
z
" style="fill:#1d1d1d;"/>
   </g>
   <g id="patch_123">
    <path clip-path="url(#p787bfdabdb)" d="M 76.380613 87.7 
L 76.991785 87.7 
L 76.991785 82.714354 
L 76.380613 82.714354 
z
" style="fill:#1d1d1d;"/>
   </g>
   <g id="patch_124">
    <path clip-path="url(#p787bfdabdb)" d="M 76.889923 87.7 
L 77.501095 87.7 
L 77.501095 83.491495 
L 76.889923 83.491495 
z
" style="fill:#1d1d1d;"/>
   </g>
   <g id="patch_125">
    <path clip-path="url(#p787bfdabdb)" d="M 77.399233 87.7 
L 78.010405 87.7 
L 78.010405 83.544483 
L 77.399233 83.544483 
z
" style="fill:#1d1d1d;"/>
   </g>
   <g id="patch_126">
    <path clip-path="url(#p787bfdabdb)" d="M 77.908543 87.7 
L 78.519715 87.7 
L 78.519715 83.645369 
L 77.908543 83.645369 
z
" style="fill:#1d1d1d;"/>
   </g>
   <g id="patch_127">
    <path clip-path="url(#p787bfdabdb)" d="M 78.417853 87.7 
L 79.029025 87.7 
L 79.029025 83.874711 
L 78.417853 83.874711 
z
" style="fill:#1d1d1d;"/>
   </g>
   <g id="patch_128">
    <path clip-path="url(#p787bfdabdb)" d="M 78.927163 87.7 
L 79.538335 87.7 
L 79.538335 83.981927 
L 78.927163 83.981927 
z
" style="fill:#1d1d1d;"/>
   </g>
   <g id="patch_129">
    <path clip-path="url(#p787bfdabdb)" d="M 79.436473 87.7 
L 80.047645 87.7 
L 80.047645 84.036097 
L 79.436473 84.036097 
z
" style="fill:#1d1d1d;"/>
   </g>
   <g id="patch_130">
    <path clip-path="url(#p787bfdabdb)" d="M 79.945783 87.7 
L 80.556955 87.7 
L 80.556955 84.116181 
L 79.945783 84.116181 
z
" style="fill:#1d1d1d;"/>
   </g>
   <g id="patch_131">
    <path clip-path="url(#p787bfdabdb)" d="M 80.455093 87.7 
L 81.066265 87.7 
L 81.066265 84.140503 
L 80.455093 84.140503 
z
" style="fill:#1d1d1d;"/>
   </g>
   <g id="patch_132">
    <path clip-path="url(#p787bfdabdb)" d="M 80.964403 87.7 
L 81.575575 87.7 
L 81.575575 84.197121 
L 80.964403 84.197121 
z
" style="fill:#1d1d1d;"/>
   </g>
   <g id="patch_133">
    <path clip-path="url(#p787bfdabdb)" d="M 81.473713 87.7 
L 82.084885 87.7 
L 82.084885 84.273547 
L 81.473713 84.273547 
z
" style="fill:#1d1d1d;"/>
   </g>
   <g id="patch_134">
    <path clip-path="url(#p787bfdabdb)" d="M 81.983023 87.7 
L 82.594195 87.7 
L 82.594195 84.570995 
L 81.983023 84.570995 
z
" style="fill:#1d1d1d;"/>
   </g>
   <g id="patch_135">
    <path clip-path="url(#p787bfdabdb)" d="M 82.492333 87.7 
L 83.103505 87.7 
L 83.103505 84.791017 
L 82.492333 84.791017 
z
" style="fill:#1d1d1d;"/>
   </g>
   <g id="patch_136">
    <path clip-path="url(#p787bfdabdb)" d="M 83.001643 87.7 
L 83.612815 87.7 
L 83.612815 84.827764 
L 83.001643 84.827764 
z
" style="fill:#1d1d1d;"/>
   </g>
   <g id="patch_137">
    <path clip-path="url(#p787bfdabdb)" d="M 83.510953 87.7 
L 84.122125 87.7 
L 84.122125 84.907262 
L 83.510953 84.907262 
z
" style="fill:#1d1d1d;"/>
   </g>
   <g id="patch_138">
    <path clip-path="url(#p787bfdabdb)" d="M 84.020263 87.7 
L 84.631435 87.7 
L 84.631435 84.921493 
L 84.020263 84.921493 
z
" style="fill:#1d1d1d;"/>
   </g>
   <g id="patch_139">
    <path clip-path="url(#p787bfdabdb)" d="M 84.529573 87.7 
L 85.140745 87.7 
L 85.140745 84.982961 
L 84.529573 84.982961 
z
" style="fill:#1d1d1d;"/>
   </g>
   <g id="patch_140">
    <path clip-path="url(#p787bfdabdb)" d="M 85.038883 87.7 
L 85.650055 87.7 
L 85.650055 85.031214 
L 85.038883 85.031214 
z
" style="fill:#1d1d1d;"/>
   </g>
   <g id="patch_141">
    <path clip-path="url(#p787bfdabdb)" d="M 85.548193 87.7 
L 86.159365 87.7 
L 86.159365 85.193227 
L 85.548193 85.193227 
z
" style="fill:#1d1d1d;"/>
   </g>
   <g id="patch_142">
    <path clip-path="url(#p787bfdabdb)" d="M 86.057503 87.7 
L 86.668675 87.7 
L 86.668675 85.2354 
L 86.057503 85.2354 
z
" style="fill:#1d1d1d;"/>
   </g>
   <g id="patch_143">
    <path clip-path="url(#p787bfdabdb)" d="M 86.566813 87.7 
L 87.177985 87.7 
L 87.177985 85.284205 
L 86.566813 85.284205 
z
" style="fill:#1d1d1d;"/>
   </g>
   <g id="patch_144">
    <path clip-path="url(#p787bfdabdb)" d="M 87.076123 87.7 
L 87.687295 87.7 
L 87.687295 85.315791 
L 87.076123 85.315791 
z
" style="fill:#1d1d1d;"/>
   </g>
   <g id="patch_145">
    <path clip-path="url(#p787bfdabdb)" d="M 87.585433 87.7 
L 88.196605 87.7 
L 88.196605 85.342326 
L 87.585433 85.342326 
z
" style="fill:#1d1d1d;"/>
   </g>
   <g id="patch_146">
    <path clip-path="url(#p787bfdabdb)" d="M 88.094743 87.7 
L 88.705915 87.7 
L 88.705915 85.342859 
L 88.094743 85.342859 
z
" style="fill:#1d1d1d;"/>
   </g>
   <g id="patch_147">
    <path clip-path="url(#p787bfdabdb)" d="M 88.604053 87.7 
L 89.215225 87.7 
L 89.215225 85.349449 
L 88.604053 85.349449 
z
" style="fill:#1d1d1d;"/>
   </g>
   <g id="patch_148">
    <path clip-path="url(#p787bfdabdb)" d="M 89.113363 87.7 
L 89.724535 87.7 
L 89.724535 85.434735 
L 89.113363 85.434735 
z
" style="fill:#1d1d1d;"/>
   </g>
   <g id="patch_149">
    <path clip-path="url(#p787bfdabdb)" d="M 89.622673 87.7 
L 90.233844 87.7 
L 90.233844 85.54956 
L 89.622673 85.54956 
z
" style="fill:#1d1d1d;"/>
   </g>
   <g id="patch_150">
    <path clip-path="url(#p787bfdabdb)" d="M 90.131982 87.7 
L 90.743154 87.7 
L 90.743154 85.682627 
L 90.131982 85.682627 
z
" style="fill:#1d1d1d;"/>
   </g>
   <g id="patch_151">
    <path clip-path="url(#p787bfdabdb)" d="M 90.641292 87.7 
L 91.252464 87.7 
L 91.252464 85.708708 
L 90.641292 85.708708 
z
" style="fill:#1d1d1d;"/>
   </g>
   <g id="patch_152">
    <path clip-path="url(#p787bfdabdb)" d="M 91.150602 87.7 
L 91.761774 87.7 
L 91.761774 85.762077 
L 91.150602 85.762077 
z
" style="fill:#1d1d1d;"/>
   </g>
   <g id="patch_153">
    <path clip-path="url(#p787bfdabdb)" d="M 91.659912 87.7 
L 92.271084 87.7 
L 92.271084 85.811699 
L 91.659912 85.811699 
z
" style="fill:#1d1d1d;"/>
   </g>
   <g id="patch_154">
    <path clip-path="url(#p787bfdabdb)" d="M 92.169222 87.7 
L 92.780394 87.7 
L 92.780394 85.813307 
L 92.169222 85.813307 
z
" style="fill:#1d1d1d;"/>
   </g>
   <g id="patch_155">
    <path clip-path="url(#p787bfdabdb)" d="M 92.678532 87.7 
L 93.289704 87.7 
L 93.289704 85.83768 
L 92.678532 85.83768 
z
" style="fill:#1d1d1d;"/>
   </g>
   <g id="patch_156">
    <path clip-path="url(#p787bfdabdb)" d="M 93.187842 87.7 
L 93.799014 87.7 
L 93.799014 85.838035 
L 93.187842 85.838035 
z
" style="fill:#1d1d1d;"/>
   </g>
   <g id="patch_157">
    <path clip-path="url(#p787bfdabdb)" d="M 93.697152 87.7 
L 94.308324 87.7 
L 94.308324 85.931842 
L 93.697152 85.931842 
z
" style="fill:#1d1d1d;"/>
   </g>
   <g id="patch_158">
    <path clip-path="url(#p787bfdabdb)" d="M 94.206462 87.7 
L 94.817634 87.7 
L 94.817634 85.963774 
L 94.206462 85.963774 
z
" style="fill:#1d1d1d;"/>
   </g>
   <g id="patch_159">
    <path clip-path="url(#p787bfdabdb)" d="M 94.715772 87.7 
L 95.326944 87.7 
L 95.326944 85.973895 
L 94.715772 85.973895 
z
" style="fill:#1d1d1d;"/>
   </g>
   <g id="patch_160">
    <path clip-path="url(#p787bfdabdb)" d="M 95.225082 87.7 
L 95.836254 87.7 
L 95.836254 85.976767 
L 95.225082 85.976767 
z
" style="fill:#1d1d1d;"/>
   </g>
   <g id="patch_161">
    <path clip-path="url(#p787bfdabdb)" d="M 95.734392 87.7 
L 96.345564 87.7 
L 96.345564 85.984901 
L 95.734392 85.984901 
z
" style="fill:#1d1d1d;"/>
   </g>
   <g id="patch_162">
    <path clip-path="url(#p787bfdabdb)" d="M 96.243702 87.7 
L 96.854874 87.7 
L 96.854874 85.989674 
L 96.243702 85.989674 
z
" style="fill:#1d1d1d;"/>
   </g>
   <g id="patch_163">
    <path clip-path="url(#p787bfdabdb)" d="M 96.753012 87.7 
L 97.364184 87.7 
L 97.364184 86.007354 
L 96.753012 86.007354 
z
" style="fill:#1d1d1d;"/>
   </g>
   <g id="patch_164">
    <path clip-path="url(#p787bfdabdb)" d="M 97.262322 87.7 
L 97.873494 87.7 
L 97.873494 86.021005 
L 97.262322 86.021005 
z
" style="fill:#1d1d1d;"/>
   </g>
   <g id="patch_165">
    <path clip-path="url(#p787bfdabdb)" d="M 97.771632 87.7 
L 98.382804 87.7 
L 98.382804 86.029549 
L 97.771632 86.029549 
z
" style="fill:#1d1d1d;"/>
   </g>
   <g id="patch_166">
    <path clip-path="url(#p787bfdabdb)" d="M 98.280942 87.7 
L 98.892114 87.7 
L 98.892114 86.100925 
L 98.280942 86.100925 
z
" style="fill:#1d1d1d;"/>
   </g>
   <g id="patch_167">
    <path clip-path="url(#p787bfdabdb)" d="M 98.790252 87.7 
L 99.401424 87.7 
L 99.401424 86.102582 
L 98.790252 86.102582 
z
" style="fill:#1d1d1d;"/>
   </g>
   <g id="patch_168">
    <path clip-path="url(#p787bfdabdb)" d="M 99.299562 87.7 
L 99.910734 87.7 
L 99.910734 86.178035 
L 99.299562 86.178035 
z
" style="fill:#1d1d1d;"/>
   </g>
   <g id="patch_169">
    <path clip-path="url(#p787bfdabdb)" d="M 99.808872 87.7 
L 100.420044 87.7 
L 100.420044 86.204952 
L 99.808872 86.204952 
z
" style="fill:#1d1d1d;"/>
   </g>
   <g id="patch_170">
    <path clip-path="url(#p787bfdabdb)" d="M 100.318182 87.7 
L 100.929354 87.7 
L 100.929354 86.260881 
L 100.318182 86.260881 
z
" style="fill:#1d1d1d;"/>
   </g>
   <g id="patch_171">
    <path clip-path="url(#p787bfdabdb)" d="M 100.827492 87.7 
L 101.438664 87.7 
L 101.438664 86.279728 
L 100.827492 86.279728 
z
" style="fill:#1d1d1d;"/>
   </g>
   <g id="patch_172">
    <path clip-path="url(#p787bfdabdb)" d="M 101.336802 87.7 
L 101.947974 87.7 
L 101.947974 86.283697 
L 101.336802 86.283697 
z
" style="fill:#1d1d1d;"/>
   </g>
   <g id="patch_173">
    <path clip-path="url(#p787bfdabdb)" d="M 101.846112 87.7 
L 102.457284 87.7 
L 102.457284 86.337503 
L 101.846112 86.337503 
z
" style="fill:#1d1d1d;"/>
   </g>
   <g id="patch_174">
    <path clip-path="url(#p787bfdabdb)" d="M 102.355422 87.7 
L 102.966594 87.7 
L 102.966594 86.367694 
L 102.355422 86.367694 
z
" style="fill:#1d1d1d;"/>
   </g>
   <g id="patch_175">
    <path clip-path="url(#p787bfdabdb)" d="M 102.864732 87.7 
L 103.475904 87.7 
L 103.475904 86.411705 
L 102.864732 86.411705 
z
" style="fill:#1d1d1d;"/>
   </g>
   <g id="patch_176">
    <path clip-path="url(#p787bfdabdb)" d="M 103.374042 87.7 
L 103.985214 87.7 
L 103.985214 86.414085 
L 103.374042 86.414085 
z
" style="fill:#1d1d1d;"/>
   </g>
   <g id="patch_177">
    <path clip-path="url(#p787bfdabdb)" d="M 103.883352 87.7 
L 104.494524 87.7 
L 104.494524 86.442928 
L 103.883352 86.442928 
z
" style="fill:#1d1d1d;"/>
   </g>
   <g id="patch_178">
    <path clip-path="url(#p787bfdabdb)" d="M 104.392662 87.7 
L 105.003834 87.7 
L 105.003834 86.486817 
L 104.392662 86.486817 
z
" style="fill:#1d1d1d;"/>
   </g>
   <g id="patch_179">
    <path clip-path="url(#p787bfdabdb)" d="M 104.901972 87.7 
L 105.513143 87.7 
L 105.513143 86.507286 
L 104.901972 86.507286 
z
" style="fill:#1d1d1d;"/>
   </g>
   <g id="patch_180">
    <path clip-path="url(#p787bfdabdb)" d="M 105.411281 87.7 
L 106.022453 87.7 
L 106.022453 86.528738 
L 105.411281 86.528738 
z
" style="fill:#1d1d1d;"/>
   </g>
   <g id="patch_181">
    <path clip-path="url(#p787bfdabdb)" d="M 105.920591 87.7 
L 106.531763 87.7 
L 106.531763 86.544938 
L 105.920591 86.544938 
z
" style="fill:#1d1d1d;"/>
   </g>
   <g id="patch_182">
    <path clip-path="url(#p787bfdabdb)" d="M 106.429901 87.7 
L 107.041073 87.7 
L 107.041073 86.544988 
L 106.429901 86.544988 
z
" style="fill:#1d1d1d;"/>
   </g>
   <g id="patch_183">
    <path clip-path="url(#p787bfdabdb)" d="M 106.939211 87.7 
L 107.550383 87.7 
L 107.550383 86.546078 
L 106.939211 86.546078 
z
" style="fill:#1d1d1d;"/>
   </g>
   <g id="patch_184">
    <path clip-path="url(#p787bfdabdb)" d="M 107.448521 87.7 
L 108.059693 87.7 
L 108.059693 86.554144 
L 107.448521 86.554144 
z
" style="fill:#1d1d1d;"/>
   </g>
   <g id="patch_185">
    <path clip-path="url(#p787bfdabdb)" d="M 107.957831 87.7 
L 108.569003 87.7 
L 108.569003 86.554279 
L 107.957831 86.554279 
z
" style="fill:#1d1d1d;"/>
   </g>
   <g id="patch_186">
    <path clip-path="url(#p787bfdabdb)" d="M 108.467141 87.7 
L 109.078313 87.7 
L 109.078313 86.556206 
L 108.467141 86.556206 
z
" style="fill:#1d1d1d;"/>
   </g>
   <g id="patch_187">
    <path clip-path="url(#p787bfdabdb)" d="M 108.976451 87.7 
L 109.587623 87.7 
L 109.587623 86.576761 
L 108.976451 86.576761 
z
" style="fill:#1d1d1d;"/>
   </g>
   <g id="patch_188">
    <path clip-path="url(#p787bfdabdb)" d="M 109.485761 87.7 
L 110.096933 87.7 
L 110.096933 86.606492 
L 109.485761 86.606492 
z
" style="fill:#1d1d1d;"/>
   </g>
   <g id="patch_189">
    <path clip-path="url(#p787bfdabdb)" d="M 109.995071 87.7 
L 110.606243 87.7 
L 110.606243 86.60935 
L 109.995071 86.60935 
z
" style="fill:#1d1d1d;"/>
   </g>
   <g id="patch_190">
    <path clip-path="url(#p787bfdabdb)" d="M 110.504381 87.7 
L 111.115553 87.7 
L 111.115553 86.622571 
L 110.504381 86.622571 
z
" style="fill:#1d1d1d;"/>
   </g>
   <g id="patch_191">
    <path clip-path="url(#p787bfdabdb)" d="M 111.013691 87.7 
L 111.624863 87.7 
L 111.624863 86.62332 
L 111.013691 86.62332 
z
" style="fill:#1d1d1d;"/>
   </g>
   <g id="patch_192">
    <path clip-path="url(#p787bfdabdb)" d="M 111.523001 87.7 
L 112.134173 87.7 
L 112.134173 86.628291 
L 111.523001 86.628291 
z
" style="fill:#1d1d1d;"/>
   </g>
   <g id="patch_193">
    <path clip-path="url(#p787bfdabdb)" d="M 112.032311 87.7 
L 112.643483 87.7 
L 112.643483 86.636657 
L 112.032311 86.636657 
z
" style="fill:#1d1d1d;"/>
   </g>
   <g id="patch_194">
    <path clip-path="url(#p787bfdabdb)" d="M 112.541621 87.7 
L 113.152793 87.7 
L 113.152793 86.650148 
L 112.541621 86.650148 
z
" style="fill:#1d1d1d;"/>
   </g>
   <g id="patch_195">
    <path clip-path="url(#p787bfdabdb)" d="M 113.050931 87.7 
L 113.662103 87.7 
L 113.662103 86.659151 
L 113.050931 86.659151 
z
" style="fill:#1d1d1d;"/>
   </g>
   <g id="patch_196">
    <path clip-path="url(#p787bfdabdb)" d="M 113.560241 87.7 
L 114.171413 87.7 
L 114.171413 86.676064 
L 113.560241 86.676064 
z
" style="fill:#1d1d1d;"/>
   </g>
   <g id="patch_197">
    <path clip-path="url(#p787bfdabdb)" d="M 114.069551 87.7 
L 114.680723 87.7 
L 114.680723 86.681626 
L 114.069551 86.681626 
z
" style="fill:#1d1d1d;"/>
   </g>
   <g id="patch_198">
    <path clip-path="url(#p787bfdabdb)" d="M 114.578861 87.7 
L 115.190033 87.7 
L 115.190033 86.682285 
L 114.578861 86.682285 
z
" style="fill:#1d1d1d;"/>
   </g>
   <g id="patch_199">
    <path clip-path="url(#p787bfdabdb)" d="M 115.088171 87.7 
L 115.699343 87.7 
L 115.699343 86.690712 
L 115.088171 86.690712 
z
" style="fill:#1d1d1d;"/>
   </g>
   <g id="patch_200">
    <path clip-path="url(#p787bfdabdb)" d="M 115.597481 87.7 
L 116.208653 87.7 
L 116.208653 86.728673 
L 115.597481 86.728673 
z
" style="fill:#1d1d1d;"/>
   </g>
   <g id="patch_201">
    <path clip-path="url(#p787bfdabdb)" d="M 116.106791 87.7 
L 116.717963 87.7 
L 116.717963 86.733461 
L 116.106791 86.733461 
z
" style="fill:#1d1d1d;"/>
   </g>
   <g id="patch_202">
    <path clip-path="url(#p787bfdabdb)" d="M 116.616101 87.7 
L 117.227273 87.7 
L 117.227273 86.737141 
L 116.616101 86.737141 
z
" style="fill:#1d1d1d;"/>
   </g>
   <g id="matplotlib.axis_1"/>
   <g id="matplotlib.axis_2"/>
   <g id="patch_203">
    <path d="M 10.7 93.86 
L 10.7 10.7 
" style="fill:none;stroke:#000000;stroke-linecap:square;stroke-linejoin:miter;stroke-width:0.8;"/>
   </g>
   <g id="patch_204">
    <path d="M 122.3 93.86 
L 122.3 10.7 
" style="fill:none;stroke:#000000;stroke-linecap:square;stroke-linejoin:miter;stroke-width:0.8;"/>
   </g>
   <g id="patch_205">
    <path d="M 10.7 93.86 
L 122.3 93.86 
" style="fill:none;stroke:#000000;stroke-linecap:square;stroke-linejoin:miter;stroke-width:0.8;"/>
   </g>
   <g id="patch_206">
    <path d="M 10.7 10.7 
L 122.3 10.7 
" style="fill:none;stroke:#000000;stroke-linecap:square;stroke-linejoin:miter;stroke-width:0.8;"/>
   </g>
  </g>
 </g>
 <defs>
  <clipPath id="p787bfdabdb">
   <rect height="83.16" width="111.6" x="10.7" y="10.7"/>
  </clipPath>
 </defs>
</svg>
