<?xml version="1.0" encoding="utf-8" standalone="no"?>
<!DOCTYPE svg PUBLIC "-//W3C//DTD SVG 1.1//EN"
  "http://www.w3.org/Graphics/SVG/1.1/DTD/svg11.dtd">
<!-- Created with matplotlib (http://matplotlib.org/) -->
<svg height="187pt" version="1.1" viewBox="0 0 187 187" width="187pt" xmlns="http://www.w3.org/2000/svg" xmlns:xlink="http://www.w3.org/1999/xlink">
 <defs>
  <style type="text/css">
*{stroke-linecap:butt;stroke-linejoin:round;}
  </style>
 </defs>
 <g id="figure_1">
  <g id="patch_1">
   <path d="M 0 187 
L 187 187 
L 187 -0 
L 0 -0 
z
" style="fill:#ffffff;"/>
  </g>
  <g id="axes_1">
   <g id="patch_2">
    <path d="M 3.5 183.5 
L 183.5 183.5 
L 183.5 3.5 
L 3.5 3.5 
z
" style="fill:#ffffff;"/>
   </g>
   <g id="matplotlib.axis_1"/>
   <g id="matplotlib.axis_2"/>
   <g id="line2d_1">
    <path clip-path="url(#pe8f462e70f)" d="M 7.1 181.662534 
L 10.7 178.672365 
L 14.3 178.992976 
L 17.9 174.365661 
L 21.5 164.963395 
L 25.1 162.118855 
L 28.7 162.393699 
L 32.3 159.348644 
L 35.9 157.015544 
L 39.5 151.333531 
L 43.1 145.08465 
L 46.7 139.325824 
L 50.3 149.234884 
L 53.9 138.317578 
L 57.5 143.685878 
L 61.1 138.176371 
L 64.7 139.250539 
L 68.3 128.843003 
L 71.9 145.054923 
L 75.5 84.557893 
L 79.1 133.317458 
L 82.7 104.594275 
L 86.3 107.00611 
L 89.9 120.089116 
L 93.5 80.654356 
L 97.1 114.50641 
L 100.7 100.614624 
L 104.3 39.47024 
L 107.9 121.476199 
L 111.5 87.154485 
L 115.1 72.017517 
L 118.7 86.85194 
L 122.3 115.968862 
L 125.9 77.356195 
L 129.5 19.097894 
L 133.1 63.944347 
L 136.7 52.898228 
" style="fill:none;stroke:#60ca60;stroke-linecap:square;stroke-width:2;"/>
    <defs>
     <path d="M 0 3 
C 0.795609 3 1.55874 2.683901 2.12132 2.12132 
C 2.683901 1.55874 3 0.795609 3 0 
C 3 -0.795609 2.683901 -1.55874 2.12132 -2.12132 
C 1.55874 -2.683901 0.795609 -3 0 -3 
C -0.795609 -3 -1.55874 -2.683901 -2.12132 -2.12132 
C -2.683901 -1.55874 -3 -0.795609 -3 0 
C -3 0.795609 -2.683901 1.55874 -2.12132 2.12132 
C -1.55874 2.683901 -0.795609 3 0 3 
z
" id="m819f3a7d4f" style="stroke:#60ca60;"/>
    </defs>
    <g clip-path="url(#pe8f462e70f)">
     <use style="fill:#60ca60;stroke:#60ca60;" x="7.1" xlink:href="#m819f3a7d4f" y="181.662534"/>
     <use style="fill:#60ca60;stroke:#60ca60;" x="10.7" xlink:href="#m819f3a7d4f" y="178.672365"/>
     <use style="fill:#60ca60;stroke:#60ca60;" x="14.3" xlink:href="#m819f3a7d4f" y="178.992976"/>
     <use style="fill:#60ca60;stroke:#60ca60;" x="17.9" xlink:href="#m819f3a7d4f" y="174.365661"/>
     <use style="fill:#60ca60;stroke:#60ca60;" x="21.5" xlink:href="#m819f3a7d4f" y="164.963395"/>
     <use style="fill:#60ca60;stroke:#60ca60;" x="25.1" xlink:href="#m819f3a7d4f" y="162.118855"/>
     <use style="fill:#60ca60;stroke:#60ca60;" x="28.7" xlink:href="#m819f3a7d4f" y="162.393699"/>
     <use style="fill:#60ca60;stroke:#60ca60;" x="32.3" xlink:href="#m819f3a7d4f" y="159.348644"/>
     <use style="fill:#60ca60;stroke:#60ca60;" x="35.9" xlink:href="#m819f3a7d4f" y="157.015544"/>
     <use style="fill:#60ca60;stroke:#60ca60;" x="39.5" xlink:href="#m819f3a7d4f" y="151.333531"/>
     <use style="fill:#60ca60;stroke:#60ca60;" x="43.1" xlink:href="#m819f3a7d4f" y="145.08465"/>
     <use style="fill:#60ca60;stroke:#60ca60;" x="46.7" xlink:href="#m819f3a7d4f" y="139.325824"/>
     <use style="fill:#60ca60;stroke:#60ca60;" x="50.3" xlink:href="#m819f3a7d4f" y="149.234884"/>
     <use style="fill:#60ca60;stroke:#60ca60;" x="53.9" xlink:href="#m819f3a7d4f" y="138.317578"/>
     <use style="fill:#60ca60;stroke:#60ca60;" x="57.5" xlink:href="#m819f3a7d4f" y="143.685878"/>
     <use style="fill:#60ca60;stroke:#60ca60;" x="61.1" xlink:href="#m819f3a7d4f" y="138.176371"/>
     <use style="fill:#60ca60;stroke:#60ca60;" x="64.7" xlink:href="#m819f3a7d4f" y="139.250539"/>
     <use style="fill:#60ca60;stroke:#60ca60;" x="68.3" xlink:href="#m819f3a7d4f" y="128.843003"/>
     <use style="fill:#60ca60;stroke:#60ca60;" x="71.9" xlink:href="#m819f3a7d4f" y="145.054923"/>
     <use style="fill:#60ca60;stroke:#60ca60;" x="75.5" xlink:href="#m819f3a7d4f" y="84.557893"/>
     <use style="fill:#60ca60;stroke:#60ca60;" x="79.1" xlink:href="#m819f3a7d4f" y="133.317458"/>
     <use style="fill:#60ca60;stroke:#60ca60;" x="82.7" xlink:href="#m819f3a7d4f" y="104.594275"/>
     <use style="fill:#60ca60;stroke:#60ca60;" x="86.3" xlink:href="#m819f3a7d4f" y="107.00611"/>
     <use style="fill:#60ca60;stroke:#60ca60;" x="89.9" xlink:href="#m819f3a7d4f" y="120.089116"/>
     <use style="fill:#60ca60;stroke:#60ca60;" x="93.5" xlink:href="#m819f3a7d4f" y="80.654356"/>
     <use style="fill:#60ca60;stroke:#60ca60;" x="97.1" xlink:href="#m819f3a7d4f" y="114.50641"/>
     <use style="fill:#60ca60;stroke:#60ca60;" x="100.7" xlink:href="#m819f3a7d4f" y="100.614624"/>
     <use style="fill:#60ca60;stroke:#60ca60;" x="104.3" xlink:href="#m819f3a7d4f" y="39.47024"/>
     <use style="fill:#60ca60;stroke:#60ca60;" x="107.9" xlink:href="#m819f3a7d4f" y="121.476199"/>
     <use style="fill:#60ca60;stroke:#60ca60;" x="111.5" xlink:href="#m819f3a7d4f" y="87.154485"/>
     <use style="fill:#60ca60;stroke:#60ca60;" x="115.1" xlink:href="#m819f3a7d4f" y="72.017517"/>
     <use style="fill:#60ca60;stroke:#60ca60;" x="118.7" xlink:href="#m819f3a7d4f" y="86.85194"/>
     <use style="fill:#60ca60;stroke:#60ca60;" x="122.3" xlink:href="#m819f3a7d4f" y="115.968862"/>
     <use style="fill:#60ca60;stroke:#60ca60;" x="125.9" xlink:href="#m819f3a7d4f" y="77.356195"/>
     <use style="fill:#60ca60;stroke:#60ca60;" x="129.5" xlink:href="#m819f3a7d4f" y="19.097894"/>
     <use style="fill:#60ca60;stroke:#60ca60;" x="133.1" xlink:href="#m819f3a7d4f" y="63.944347"/>
     <use style="fill:#60ca60;stroke:#60ca60;" x="136.7" xlink:href="#m819f3a7d4f" y="52.898228"/>
    </g>
   </g>
   <g id="patch_3">
    <path d="M 3.5 183.5 
L 3.5 3.5 
" style="fill:none;stroke:#000000;stroke-linecap:square;stroke-linejoin:miter;stroke-width:0.8;"/>
   </g>
   <g id="patch_4">
    <path d="M 183.5 183.5 
L 183.5 3.5 
" style="fill:none;stroke:#000000;stroke-linecap:square;stroke-linejoin:miter;stroke-width:0.8;"/>
   </g>
   <g id="patch_5">
    <path d="M 3.5 183.5 
L 183.5 183.5 
" style="fill:none;stroke:#000000;stroke-linecap:square;stroke-linejoin:miter;stroke-width:0.8;"/>
   </g>
   <g id="patch_6">
    <path d="M 3.5 3.5 
L 183.5 3.5 
" style="fill:none;stroke:#000000;stroke-linecap:square;stroke-linejoin:miter;stroke-width:0.8;"/>
   </g>
  </g>
 </g>
 <defs>
  <clipPath id="pe8f462e70f">
   <rect height="180" width="180" x="3.5" y="3.5"/>
  </clipPath>
 </defs>
</svg>
