<?xml version="1.0" encoding="utf-8" standalone="no"?>
<!DOCTYPE svg PUBLIC "-//W3C//DTD SVG 1.1//EN"
  "http://www.w3.org/Graphics/SVG/1.1/DTD/svg11.dtd">
<!-- Created with matplotlib (http://matplotlib.org/) -->
<svg height="187pt" version="1.1" viewBox="0 0 187 187" width="187pt" xmlns="http://www.w3.org/2000/svg" xmlns:xlink="http://www.w3.org/1999/xlink">
 <defs>
  <style type="text/css">
*{stroke-linecap:butt;stroke-linejoin:round;}
  </style>
 </defs>
 <g id="figure_1">
  <g id="patch_1">
   <path d="M 0 187 
L 187 187 
L 187 -0 
L 0 -0 
z
" style="fill:#ffffff;"/>
  </g>
  <g id="axes_1">
   <g id="patch_2">
    <path d="M 3.5 183.5 
L 183.5 183.5 
L 183.5 3.5 
L 3.5 3.5 
z
" style="fill:#ffffff;"/>
   </g>
   <g id="matplotlib.axis_1"/>
   <g id="matplotlib.axis_2"/>
   <g id="line2d_1">
    <path clip-path="url(#p5cce4fb103)" d="M 7.1 181.66723 
L 10.7 173.685065 
L 14.3 180.407511 
L 17.9 176.907069 
L 21.5 169.412542 
L 25.1 168.400746 
L 28.7 169.147638 
L 32.3 157.355148 
L 35.9 156.628542 
L 39.5 166.871653 
L 43.1 161.148105 
L 46.7 140.608444 
L 50.3 155.994133 
L 53.9 145.503505 
L 57.5 165.822567 
L 61.1 147.259342 
L 64.7 147.267477 
L 68.3 136.601187 
L 71.9 124.992602 
L 75.5 105.992549 
L 79.1 120.534453 
L 82.7 94.614057 
L 86.3 99.230566 
L 89.9 89.578518 
L 93.5 96.369287 
L 97.1 83.88136 
L 100.7 63.560785 
L 104.3 59.552919 
L 107.9 47.693568 
L 111.5 58.314421 
L 115.1 31.913412 
L 118.7 8.30734 
L 122.3 83.609493 
L 125.9 10.453339 
L 129.5 42.397621 
L 133.1 52.068623 
L 136.7 8.380907 
L 140.3 21.313882 
L 143.9 64.073773 
L 147.5 7.060294 
" style="fill:none;stroke:#1fa188;stroke-linecap:square;stroke-width:2;"/>
    <defs>
     <path d="M 0 3 
C 0.795609 3 1.55874 2.683901 2.12132 2.12132 
C 2.683901 1.55874 3 0.795609 3 0 
C 3 -0.795609 2.683901 -1.55874 2.12132 -2.12132 
C 1.55874 -2.683901 0.795609 -3 0 -3 
C -0.795609 -3 -1.55874 -2.683901 -2.12132 -2.12132 
C -2.683901 -1.55874 -3 -0.795609 -3 0 
C -3 0.795609 -2.683901 1.55874 -2.12132 2.12132 
C -1.55874 2.683901 -0.795609 3 0 3 
z
" id="m5499d1cec5" style="stroke:#1fa188;"/>
    </defs>
    <g clip-path="url(#p5cce4fb103)">
     <use style="fill:#1fa188;stroke:#1fa188;" x="7.1" xlink:href="#m5499d1cec5" y="181.66723"/>
     <use style="fill:#1fa188;stroke:#1fa188;" x="10.7" xlink:href="#m5499d1cec5" y="173.685065"/>
     <use style="fill:#1fa188;stroke:#1fa188;" x="14.3" xlink:href="#m5499d1cec5" y="180.407511"/>
     <use style="fill:#1fa188;stroke:#1fa188;" x="17.9" xlink:href="#m5499d1cec5" y="176.907069"/>
     <use style="fill:#1fa188;stroke:#1fa188;" x="21.5" xlink:href="#m5499d1cec5" y="169.412542"/>
     <use style="fill:#1fa188;stroke:#1fa188;" x="25.1" xlink:href="#m5499d1cec5" y="168.400746"/>
     <use style="fill:#1fa188;stroke:#1fa188;" x="28.7" xlink:href="#m5499d1cec5" y="169.147638"/>
     <use style="fill:#1fa188;stroke:#1fa188;" x="32.3" xlink:href="#m5499d1cec5" y="157.355148"/>
     <use style="fill:#1fa188;stroke:#1fa188;" x="35.9" xlink:href="#m5499d1cec5" y="156.628542"/>
     <use style="fill:#1fa188;stroke:#1fa188;" x="39.5" xlink:href="#m5499d1cec5" y="166.871653"/>
     <use style="fill:#1fa188;stroke:#1fa188;" x="43.1" xlink:href="#m5499d1cec5" y="161.148105"/>
     <use style="fill:#1fa188;stroke:#1fa188;" x="46.7" xlink:href="#m5499d1cec5" y="140.608444"/>
     <use style="fill:#1fa188;stroke:#1fa188;" x="50.3" xlink:href="#m5499d1cec5" y="155.994133"/>
     <use style="fill:#1fa188;stroke:#1fa188;" x="53.9" xlink:href="#m5499d1cec5" y="145.503505"/>
     <use style="fill:#1fa188;stroke:#1fa188;" x="57.5" xlink:href="#m5499d1cec5" y="165.822567"/>
     <use style="fill:#1fa188;stroke:#1fa188;" x="61.1" xlink:href="#m5499d1cec5" y="147.259342"/>
     <use style="fill:#1fa188;stroke:#1fa188;" x="64.7" xlink:href="#m5499d1cec5" y="147.267477"/>
     <use style="fill:#1fa188;stroke:#1fa188;" x="68.3" xlink:href="#m5499d1cec5" y="136.601187"/>
     <use style="fill:#1fa188;stroke:#1fa188;" x="71.9" xlink:href="#m5499d1cec5" y="124.992602"/>
     <use style="fill:#1fa188;stroke:#1fa188;" x="75.5" xlink:href="#m5499d1cec5" y="105.992549"/>
     <use style="fill:#1fa188;stroke:#1fa188;" x="79.1" xlink:href="#m5499d1cec5" y="120.534453"/>
     <use style="fill:#1fa188;stroke:#1fa188;" x="82.7" xlink:href="#m5499d1cec5" y="94.614057"/>
     <use style="fill:#1fa188;stroke:#1fa188;" x="86.3" xlink:href="#m5499d1cec5" y="99.230566"/>
     <use style="fill:#1fa188;stroke:#1fa188;" x="89.9" xlink:href="#m5499d1cec5" y="89.578518"/>
     <use style="fill:#1fa188;stroke:#1fa188;" x="93.5" xlink:href="#m5499d1cec5" y="96.369287"/>
     <use style="fill:#1fa188;stroke:#1fa188;" x="97.1" xlink:href="#m5499d1cec5" y="83.88136"/>
     <use style="fill:#1fa188;stroke:#1fa188;" x="100.7" xlink:href="#m5499d1cec5" y="63.560785"/>
     <use style="fill:#1fa188;stroke:#1fa188;" x="104.3" xlink:href="#m5499d1cec5" y="59.552919"/>
     <use style="fill:#1fa188;stroke:#1fa188;" x="107.9" xlink:href="#m5499d1cec5" y="47.693568"/>
     <use style="fill:#1fa188;stroke:#1fa188;" x="111.5" xlink:href="#m5499d1cec5" y="58.314421"/>
     <use style="fill:#1fa188;stroke:#1fa188;" x="115.1" xlink:href="#m5499d1cec5" y="31.913412"/>
     <use style="fill:#1fa188;stroke:#1fa188;" x="118.7" xlink:href="#m5499d1cec5" y="8.30734"/>
     <use style="fill:#1fa188;stroke:#1fa188;" x="122.3" xlink:href="#m5499d1cec5" y="83.609493"/>
     <use style="fill:#1fa188;stroke:#1fa188;" x="125.9" xlink:href="#m5499d1cec5" y="10.453339"/>
     <use style="fill:#1fa188;stroke:#1fa188;" x="129.5" xlink:href="#m5499d1cec5" y="42.397621"/>
     <use style="fill:#1fa188;stroke:#1fa188;" x="133.1" xlink:href="#m5499d1cec5" y="52.068623"/>
     <use style="fill:#1fa188;stroke:#1fa188;" x="136.7" xlink:href="#m5499d1cec5" y="8.380907"/>
     <use style="fill:#1fa188;stroke:#1fa188;" x="140.3" xlink:href="#m5499d1cec5" y="21.313882"/>
     <use style="fill:#1fa188;stroke:#1fa188;" x="143.9" xlink:href="#m5499d1cec5" y="64.073773"/>
     <use style="fill:#1fa188;stroke:#1fa188;" x="147.5" xlink:href="#m5499d1cec5" y="7.060294"/>
    </g>
   </g>
   <g id="patch_3">
    <path d="M 3.5 183.5 
L 3.5 3.5 
" style="fill:none;stroke:#000000;stroke-linecap:square;stroke-linejoin:miter;stroke-width:0.8;"/>
   </g>
   <g id="patch_4">
    <path d="M 183.5 183.5 
L 183.5 3.5 
" style="fill:none;stroke:#000000;stroke-linecap:square;stroke-linejoin:miter;stroke-width:0.8;"/>
   </g>
   <g id="patch_5">
    <path d="M 3.5 183.5 
L 183.5 183.5 
" style="fill:none;stroke:#000000;stroke-linecap:square;stroke-linejoin:miter;stroke-width:0.8;"/>
   </g>
   <g id="patch_6">
    <path d="M 3.5 3.5 
L 183.5 3.5 
" style="fill:none;stroke:#000000;stroke-linecap:square;stroke-linejoin:miter;stroke-width:0.8;"/>
   </g>
  </g>
 </g>
 <defs>
  <clipPath id="p5cce4fb103">
   <rect height="180" width="180" x="3.5" y="3.5"/>
  </clipPath>
 </defs>
</svg>
