<?xml version="1.0" encoding="utf-8" standalone="no"?>
<!DOCTYPE svg PUBLIC "-//W3C//DTD SVG 1.1//EN"
  "http://www.w3.org/Graphics/SVG/1.1/DTD/svg11.dtd">
<!-- Created with matplotlib (http://matplotlib.org/) -->
<svg height="210pt" version="1.1" viewBox="0 0 354 210" width="354pt" xmlns="http://www.w3.org/2000/svg" xmlns:xlink="http://www.w3.org/1999/xlink">
 <defs>
  <style type="text/css">
*{stroke-linecap:butt;stroke-linejoin:round;}
  </style>
 </defs>
 <g id="figure_1">
  <g id="patch_1">
   <path d="M 0 210.76 
L 354.76 210.76 
L 354.76 0 
L 0 0 
z
" style="fill:#ffffff;"/>
  </g>
  <g id="axes_1">
   <g id="patch_2">
    <path d="M 10.7 200.06 
L 344.06 200.06 
L 344.06 10.7 
L 10.7 10.7 
z
" style="fill:#ffffff;"/>
   </g>
   <g id="patch_3">
    <path clip-path="url(#p92ca7fe4c1)" d="M 25.852727 200.06 
L 27.873091 200.06 
L 27.873091 198.314769 
L 25.852727 198.314769 
z
" style="fill:#1a1a1a;"/>
   </g>
   <g id="patch_4">
    <path clip-path="url(#p92ca7fe4c1)" d="M 27.873091 200.06 
L 29.893455 200.06 
L 29.893455 198.23966 
L 27.873091 198.23966 
z
" style="fill:#1a1a1a;"/>
   </g>
   <g id="patch_5">
    <path clip-path="url(#p92ca7fe4c1)" d="M 29.893455 200.06 
L 31.913818 200.06 
L 31.913818 198.213928 
L 29.893455 198.213928 
z
" style="fill:#1a1a1a;"/>
   </g>
   <g id="patch_6">
    <path clip-path="url(#p92ca7fe4c1)" d="M 31.913818 200.06 
L 33.934182 200.06 
L 33.934182 198.137592 
L 31.913818 198.137592 
z
" style="fill:#1a1a1a;"/>
   </g>
   <g id="patch_7">
    <path clip-path="url(#p92ca7fe4c1)" d="M 33.934182 200.06 
L 35.954545 200.06 
L 35.954545 198.075609 
L 33.934182 198.075609 
z
" style="fill:#1a1a1a;"/>
   </g>
   <g id="patch_8">
    <path clip-path="url(#p92ca7fe4c1)" d="M 35.954545 200.06 
L 37.974909 200.06 
L 37.974909 198.022903 
L 35.954545 198.022903 
z
" style="fill:#1a1a1a;"/>
   </g>
   <g id="patch_9">
    <path clip-path="url(#p92ca7fe4c1)" d="M 37.974909 200.06 
L 39.995273 200.06 
L 39.995273 198.004173 
L 37.974909 198.004173 
z
" style="fill:#1a1a1a;"/>
   </g>
   <g id="patch_10">
    <path clip-path="url(#p92ca7fe4c1)" d="M 39.995273 200.06 
L 42.015636 200.06 
L 42.015636 197.894773 
L 39.995273 197.894773 
z
" style="fill:#1a1a1a;"/>
   </g>
   <g id="patch_11">
    <path clip-path="url(#p92ca7fe4c1)" d="M 42.015636 200.06 
L 44.036 200.06 
L 44.036 197.884698 
L 42.015636 197.884698 
z
" style="fill:#1a1a1a;"/>
   </g>
   <g id="patch_12">
    <path clip-path="url(#p92ca7fe4c1)" d="M 44.036 200.06 
L 46.056364 200.06 
L 46.056364 197.808904 
L 44.036 197.808904 
z
" style="fill:#1a1a1a;"/>
   </g>
   <g id="patch_13">
    <path clip-path="url(#p92ca7fe4c1)" d="M 46.056364 200.06 
L 48.076727 200.06 
L 48.076727 197.70136 
L 46.056364 197.70136 
z
" style="fill:#1a1a1a;"/>
   </g>
   <g id="patch_14">
    <path clip-path="url(#p92ca7fe4c1)" d="M 48.076727 200.06 
L 50.097091 200.06 
L 50.097091 197.679952 
L 48.076727 197.679952 
z
" style="fill:#1a1a1a;"/>
   </g>
   <g id="patch_15">
    <path clip-path="url(#p92ca7fe4c1)" d="M 50.097091 200.06 
L 52.117455 200.06 
L 52.117455 197.525608 
L 50.097091 197.525608 
z
" style="fill:#1a1a1a;"/>
   </g>
   <g id="patch_16">
    <path clip-path="url(#p92ca7fe4c1)" d="M 52.117455 200.06 
L 54.137818 200.06 
L 54.137818 197.442306 
L 52.117455 197.442306 
z
" style="fill:#1a1a1a;"/>
   </g>
   <g id="patch_17">
    <path clip-path="url(#p92ca7fe4c1)" d="M 54.137818 200.06 
L 56.158182 200.06 
L 56.158182 197.319641 
L 54.137818 197.319641 
z
" style="fill:#1a1a1a;"/>
   </g>
   <g id="patch_18">
    <path clip-path="url(#p92ca7fe4c1)" d="M 56.158182 200.06 
L 58.178545 200.06 
L 58.178545 197.24725 
L 56.158182 197.24725 
z
" style="fill:#1a1a1a;"/>
   </g>
   <g id="patch_19">
    <path clip-path="url(#p92ca7fe4c1)" d="M 58.178545 200.06 
L 60.198909 200.06 
L 60.198909 196.960001 
L 58.178545 196.960001 
z
" style="fill:#1a1a1a;"/>
   </g>
   <g id="patch_20">
    <path clip-path="url(#p92ca7fe4c1)" d="M 60.198909 200.06 
L 62.219273 200.06 
L 62.219273 196.926745 
L 60.198909 196.926745 
z
" style="fill:#1a1a1a;"/>
   </g>
   <g id="patch_21">
    <path clip-path="url(#p92ca7fe4c1)" d="M 62.219273 200.06 
L 64.239636 200.06 
L 64.239636 196.883097 
L 62.219273 196.883097 
z
" style="fill:#1a1a1a;"/>
   </g>
   <g id="patch_22">
    <path clip-path="url(#p92ca7fe4c1)" d="M 64.239636 200.06 
L 66.26 200.06 
L 66.26 196.831756 
L 64.239636 196.831756 
z
" style="fill:#1a1a1a;"/>
   </g>
   <g id="patch_23">
    <path clip-path="url(#p92ca7fe4c1)" d="M 66.26 200.06 
L 68.280364 200.06 
L 68.280364 196.72338 
L 66.26 196.72338 
z
" style="fill:#1a1a1a;"/>
   </g>
   <g id="patch_24">
    <path clip-path="url(#p92ca7fe4c1)" d="M 68.280364 200.06 
L 70.300727 200.06 
L 70.300727 196.489317 
L 68.280364 196.489317 
z
" style="fill:#1a1a1a;"/>
   </g>
   <g id="patch_25">
    <path clip-path="url(#p92ca7fe4c1)" d="M 70.300727 200.06 
L 72.321091 200.06 
L 72.321091 196.345914 
L 70.300727 196.345914 
z
" style="fill:#1a1a1a;"/>
   </g>
   <g id="patch_26">
    <path clip-path="url(#p92ca7fe4c1)" d="M 72.321091 200.06 
L 74.341455 200.06 
L 74.341455 196.216326 
L 72.321091 196.216326 
z
" style="fill:#1a1a1a;"/>
   </g>
   <g id="patch_27">
    <path clip-path="url(#p92ca7fe4c1)" d="M 74.341455 200.06 
L 76.361818 200.06 
L 76.361818 196.088465 
L 74.341455 196.088465 
z
" style="fill:#1a1a1a;"/>
   </g>
   <g id="patch_28">
    <path clip-path="url(#p92ca7fe4c1)" d="M 76.361818 200.06 
L 78.382182 200.06 
L 78.382182 196.025697 
L 76.361818 196.025697 
z
" style="fill:#1a1a1a;"/>
   </g>
   <g id="patch_29">
    <path clip-path="url(#p92ca7fe4c1)" d="M 78.382182 200.06 
L 80.402545 200.06 
L 80.402545 195.834637 
L 78.382182 195.834637 
z
" style="fill:#1a1a1a;"/>
   </g>
   <g id="patch_30">
    <path clip-path="url(#p92ca7fe4c1)" d="M 80.402545 200.06 
L 82.422909 200.06 
L 82.422909 195.627824 
L 80.402545 195.627824 
z
" style="fill:#1a1a1a;"/>
   </g>
   <g id="patch_31">
    <path clip-path="url(#p92ca7fe4c1)" d="M 82.422909 200.06 
L 84.443273 200.06 
L 84.443273 195.589777 
L 82.422909 195.589777 
z
" style="fill:#1a1a1a;"/>
   </g>
   <g id="patch_32">
    <path clip-path="url(#p92ca7fe4c1)" d="M 84.443273 200.06 
L 86.463636 200.06 
L 86.463636 195.422812 
L 84.443273 195.422812 
z
" style="fill:#1a1a1a;"/>
   </g>
   <g id="patch_33">
    <path clip-path="url(#p92ca7fe4c1)" d="M 86.463636 200.06 
L 88.484 200.06 
L 88.484 195.177966 
L 86.463636 195.177966 
z
" style="fill:#1a1a1a;"/>
   </g>
   <g id="patch_34">
    <path clip-path="url(#p92ca7fe4c1)" d="M 88.484 200.06 
L 90.504364 200.06 
L 90.504364 194.992558 
L 88.484 194.992558 
z
" style="fill:#1a1a1a;"/>
   </g>
   <g id="patch_35">
    <path clip-path="url(#p92ca7fe4c1)" d="M 90.504364 200.06 
L 92.524727 200.06 
L 92.524727 194.728214 
L 90.504364 194.728214 
z
" style="fill:#1a1a1a;"/>
   </g>
   <g id="patch_36">
    <path clip-path="url(#p92ca7fe4c1)" d="M 92.524727 200.06 
L 94.545091 200.06 
L 94.545091 193.80181 
L 92.524727 193.80181 
z
" style="fill:#1a1a1a;"/>
   </g>
   <g id="patch_37">
    <path clip-path="url(#p92ca7fe4c1)" d="M 94.545091 200.06 
L 96.565455 200.06 
L 96.565455 193.456763 
L 94.545091 193.456763 
z
" style="fill:#1a1a1a;"/>
   </g>
   <g id="patch_38">
    <path clip-path="url(#p92ca7fe4c1)" d="M 96.565455 200.06 
L 98.585818 200.06 
L 98.585818 193.025061 
L 96.565455 193.025061 
z
" style="fill:#1a1a1a;"/>
   </g>
   <g id="patch_39">
    <path clip-path="url(#p92ca7fe4c1)" d="M 98.585818 200.06 
L 100.606182 200.06 
L 100.606182 192.760654 
L 98.585818 192.760654 
z
" style="fill:#1a1a1a;"/>
   </g>
   <g id="patch_40">
    <path clip-path="url(#p92ca7fe4c1)" d="M 100.606182 200.06 
L 102.626545 200.06 
L 102.626545 192.117577 
L 100.606182 192.117577 
z
" style="fill:#1a1a1a;"/>
   </g>
   <g id="patch_41">
    <path clip-path="url(#p92ca7fe4c1)" d="M 102.626545 200.06 
L 104.646909 200.06 
L 104.646909 191.750335 
L 102.626545 191.750335 
z
" style="fill:#1a1a1a;"/>
   </g>
   <g id="patch_42">
    <path clip-path="url(#p92ca7fe4c1)" d="M 104.646909 200.06 
L 106.667273 200.06 
L 106.667273 191.440506 
L 104.646909 191.440506 
z
" style="fill:#1a1a1a;"/>
   </g>
   <g id="patch_43">
    <path clip-path="url(#p92ca7fe4c1)" d="M 106.667273 200.06 
L 108.687636 200.06 
L 108.687636 191.326192 
L 106.667273 191.326192 
z
" style="fill:#1a1a1a;"/>
   </g>
   <g id="patch_44">
    <path clip-path="url(#p92ca7fe4c1)" d="M 108.687636 200.06 
L 110.708 200.06 
L 110.708 191.105466 
L 108.687636 191.105466 
z
" style="fill:#1a1a1a;"/>
   </g>
   <g id="patch_45">
    <path clip-path="url(#p92ca7fe4c1)" d="M 110.708 200.06 
L 112.728364 200.06 
L 112.728364 190.546805 
L 110.708 190.546805 
z
" style="fill:#1a1a1a;"/>
   </g>
   <g id="patch_46">
    <path clip-path="url(#p92ca7fe4c1)" d="M 112.728364 200.06 
L 114.748727 200.06 
L 114.748727 189.3625 
L 112.728364 189.3625 
z
" style="fill:#1a1a1a;"/>
   </g>
   <g id="patch_47">
    <path clip-path="url(#p92ca7fe4c1)" d="M 114.748727 200.06 
L 116.769091 200.06 
L 116.769091 187.67295 
L 114.748727 187.67295 
z
" style="fill:#1a1a1a;"/>
   </g>
   <g id="patch_48">
    <path clip-path="url(#p92ca7fe4c1)" d="M 116.769091 200.06 
L 118.789455 200.06 
L 118.789455 186.354422 
L 116.769091 186.354422 
z
" style="fill:#1a1a1a;"/>
   </g>
   <g id="patch_49">
    <path clip-path="url(#p92ca7fe4c1)" d="M 118.789455 200.06 
L 120.809818 200.06 
L 120.809818 185.743273 
L 118.789455 185.743273 
z
" style="fill:#1a1a1a;"/>
   </g>
   <g id="patch_50">
    <path clip-path="url(#p92ca7fe4c1)" d="M 120.809818 200.06 
L 122.830182 200.06 
L 122.830182 185.673204 
L 120.809818 185.673204 
z
" style="fill:#1a1a1a;"/>
   </g>
   <g id="patch_51">
    <path clip-path="url(#p92ca7fe4c1)" d="M 122.830182 200.06 
L 124.850545 200.06 
L 124.850545 184.860839 
L 122.830182 184.860839 
z
" style="fill:#1a1a1a;"/>
   </g>
   <g id="patch_52">
    <path clip-path="url(#p92ca7fe4c1)" d="M 124.850545 200.06 
L 126.870909 200.06 
L 126.870909 184.61582 
L 124.850545 184.61582 
z
" style="fill:#1a1a1a;"/>
   </g>
   <g id="patch_53">
    <path clip-path="url(#p92ca7fe4c1)" d="M 126.870909 200.06 
L 128.891273 200.06 
L 128.891273 184.341869 
L 126.870909 184.341869 
z
" style="fill:#1a1a1a;"/>
   </g>
   <g id="patch_54">
    <path clip-path="url(#p92ca7fe4c1)" d="M 128.891273 200.06 
L 130.911636 200.06 
L 130.911636 183.704906 
L 128.891273 183.704906 
z
" style="fill:#1a1a1a;"/>
   </g>
   <g id="patch_55">
    <path clip-path="url(#p92ca7fe4c1)" d="M 130.911636 200.06 
L 132.932 200.06 
L 132.932 182.603228 
L 130.911636 182.603228 
z
" style="fill:#1a1a1a;"/>
   </g>
   <g id="patch_56">
    <path clip-path="url(#p92ca7fe4c1)" d="M 132.932 200.06 
L 134.952364 200.06 
L 134.952364 182.495007 
L 132.932 182.495007 
z
" style="fill:#1a1a1a;"/>
   </g>
   <g id="patch_57">
    <path clip-path="url(#p92ca7fe4c1)" d="M 134.952364 200.06 
L 136.972727 200.06 
L 136.972727 182.32577 
L 134.952364 182.32577 
z
" style="fill:#1a1a1a;"/>
   </g>
   <g id="patch_58">
    <path clip-path="url(#p92ca7fe4c1)" d="M 136.972727 200.06 
L 138.993091 200.06 
L 138.993091 180.359538 
L 136.972727 180.359538 
z
" style="fill:#1a1a1a;"/>
   </g>
   <g id="patch_59">
    <path clip-path="url(#p92ca7fe4c1)" d="M 138.993091 200.06 
L 141.013455 200.06 
L 141.013455 176.973543 
L 138.993091 176.973543 
z
" style="fill:#1a1a1a;"/>
   </g>
   <g id="patch_60">
    <path clip-path="url(#p92ca7fe4c1)" d="M 141.013455 200.06 
L 143.033818 200.06 
L 143.033818 175.942111 
L 141.013455 175.942111 
z
" style="fill:#1a1a1a;"/>
   </g>
   <g id="patch_61">
    <path clip-path="url(#p92ca7fe4c1)" d="M 143.033818 200.06 
L 145.054182 200.06 
L 145.054182 173.03001 
L 143.033818 173.03001 
z
" style="fill:#1a1a1a;"/>
   </g>
   <g id="patch_62">
    <path clip-path="url(#p92ca7fe4c1)" d="M 145.054182 200.06 
L 147.074545 200.06 
L 147.074545 169.660155 
L 145.054182 169.660155 
z
" style="fill:#1a1a1a;"/>
   </g>
   <g id="patch_63">
    <path clip-path="url(#p92ca7fe4c1)" d="M 147.074545 200.06 
L 149.094909 200.06 
L 149.094909 168.93424 
L 147.074545 168.93424 
z
" style="fill:#1a1a1a;"/>
   </g>
   <g id="patch_64">
    <path clip-path="url(#p92ca7fe4c1)" d="M 149.094909 200.06 
L 151.115273 200.06 
L 151.115273 165.290933 
L 149.094909 165.290933 
z
" style="fill:#1a1a1a;"/>
   </g>
   <g id="patch_65">
    <path clip-path="url(#p92ca7fe4c1)" d="M 151.115273 200.06 
L 153.135636 200.06 
L 153.135636 160.813868 
L 151.115273 160.813868 
z
" style="fill:#1a1a1a;"/>
   </g>
   <g id="patch_66">
    <path clip-path="url(#p92ca7fe4c1)" d="M 153.135636 200.06 
L 155.156 200.06 
L 155.156 143.143522 
L 153.135636 143.143522 
z
" style="fill:#1a1a1a;"/>
   </g>
   <g id="patch_67">
    <path clip-path="url(#p92ca7fe4c1)" d="M 155.156 200.06 
L 157.176364 200.06 
L 157.176364 139.74476 
L 155.156 139.74476 
z
" style="fill:#1a1a1a;"/>
   </g>
   <g id="patch_68">
    <path clip-path="url(#p92ca7fe4c1)" d="M 157.176364 200.06 
L 159.196727 200.06 
L 159.196727 128.261717 
L 157.176364 128.261717 
z
" style="fill:#1a1a1a;"/>
   </g>
   <g id="patch_69">
    <path clip-path="url(#p92ca7fe4c1)" d="M 159.196727 200.06 
L 161.217091 200.06 
L 161.217091 126.124529 
L 159.196727 126.124529 
z
" style="fill:#1a1a1a;"/>
   </g>
   <g id="patch_70">
    <path clip-path="url(#p92ca7fe4c1)" d="M 161.217091 200.06 
L 163.237455 200.06 
L 163.237455 123.261949 
L 161.217091 123.261949 
z
" style="fill:#1a1a1a;"/>
   </g>
   <g id="patch_71">
    <path clip-path="url(#p92ca7fe4c1)" d="M 163.237455 200.06 
L 165.257818 200.06 
L 165.257818 106.75569 
L 163.237455 106.75569 
z
" style="fill:#1a1a1a;"/>
   </g>
   <g id="patch_72">
    <path clip-path="url(#p92ca7fe4c1)" d="M 165.257818 200.06 
L 167.278182 200.06 
L 167.278182 81.903274 
L 165.257818 81.903274 
z
" style="fill:#1a1a1a;"/>
   </g>
   <g id="patch_73">
    <path clip-path="url(#p92ca7fe4c1)" d="M 167.278182 200.06 
L 169.298545 200.06 
L 169.298545 69.708496 
L 167.278182 69.708496 
z
" style="fill:#1a1a1a;"/>
   </g>
   <g id="patch_74">
    <path clip-path="url(#p92ca7fe4c1)" d="M 169.298545 200.06 
L 171.318909 200.06 
L 171.318909 63.617692 
L 169.298545 63.617692 
z
" style="fill:#1a1a1a;"/>
   </g>
   <g id="patch_75">
    <path clip-path="url(#p92ca7fe4c1)" d="M 171.318909 200.06 
L 173.339273 200.06 
L 173.339273 36.117309 
L 171.318909 36.117309 
z
" style="fill:#1a1a1a;"/>
   </g>
   <g id="patch_76">
    <path clip-path="url(#p92ca7fe4c1)" d="M 173.339273 200.06 
L 175.359636 200.06 
L 175.359636 22.437133 
L 173.339273 22.437133 
z
" style="fill:#1a1a1a;"/>
   </g>
   <g id="patch_77">
    <path clip-path="url(#p92ca7fe4c1)" d="M 175.359636 200.06 
L 177.38 200.06 
L 177.38 21.197617 
L 175.359636 21.197617 
z
" style="fill:#1a1a1a;"/>
   </g>
   <g id="patch_78">
    <path clip-path="url(#p92ca7fe4c1)" d="M 177.38 200.06 
L 179.400364 200.06 
L 179.400364 20.6324 
L 177.38 20.6324 
z
" style="fill:#1a1a1a;"/>
   </g>
   <g id="patch_79">
    <path clip-path="url(#p92ca7fe4c1)" d="M 179.400364 200.06 
L 181.420727 200.06 
L 181.420727 22.411609 
L 179.400364 22.411609 
z
" style="fill:#1a1a1a;"/>
   </g>
   <g id="patch_80">
    <path clip-path="url(#p92ca7fe4c1)" d="M 181.420727 200.06 
L 183.441091 200.06 
L 183.441091 30.448834 
L 181.420727 30.448834 
z
" style="fill:#1a1a1a;"/>
   </g>
   <g id="patch_81">
    <path clip-path="url(#p92ca7fe4c1)" d="M 183.441091 200.06 
L 185.461455 200.06 
L 185.461455 58.816832 
L 183.441091 58.816832 
z
" style="fill:#1a1a1a;"/>
   </g>
   <g id="patch_82">
    <path clip-path="url(#p92ca7fe4c1)" d="M 185.461455 200.06 
L 187.481818 200.06 
L 187.481818 69.247607 
L 185.461455 69.247607 
z
" style="fill:#1a1a1a;"/>
   </g>
   <g id="patch_83">
    <path clip-path="url(#p92ca7fe4c1)" d="M 187.481818 200.06 
L 189.502182 200.06 
L 189.502182 79.797784 
L 187.481818 79.797784 
z
" style="fill:#1a1a1a;"/>
   </g>
   <g id="patch_84">
    <path clip-path="url(#p92ca7fe4c1)" d="M 189.502182 200.06 
L 191.522545 200.06 
L 191.522545 89.463288 
L 189.502182 89.463288 
z
" style="fill:#1a1a1a;"/>
   </g>
   <g id="patch_85">
    <path clip-path="url(#p92ca7fe4c1)" d="M 191.522545 200.06 
L 193.542909 200.06 
L 193.542909 108.038552 
L 191.522545 108.038552 
z
" style="fill:#1a1a1a;"/>
   </g>
   <g id="patch_86">
    <path clip-path="url(#p92ca7fe4c1)" d="M 193.542909 200.06 
L 195.563273 200.06 
L 195.563273 123.547584 
L 193.542909 123.547584 
z
" style="fill:#1a1a1a;"/>
   </g>
   <g id="patch_87">
    <path clip-path="url(#p92ca7fe4c1)" d="M 195.563273 200.06 
L 197.583636 200.06 
L 197.583636 127.332414 
L 195.563273 127.332414 
z
" style="fill:#1a1a1a;"/>
   </g>
   <g id="patch_88">
    <path clip-path="url(#p92ca7fe4c1)" d="M 197.583636 200.06 
L 199.604 200.06 
L 199.604 130.095456 
L 197.583636 130.095456 
z
" style="fill:#1a1a1a;"/>
   </g>
   <g id="patch_89">
    <path clip-path="url(#p92ca7fe4c1)" d="M 199.604 200.06 
L 201.624364 200.06 
L 201.624364 141.212324 
L 199.604 141.212324 
z
" style="fill:#1a1a1a;"/>
   </g>
   <g id="patch_90">
    <path clip-path="url(#p92ca7fe4c1)" d="M 201.624364 200.06 
L 203.644727 200.06 
L 203.644727 148.461366 
L 201.624364 148.461366 
z
" style="fill:#1a1a1a;"/>
   </g>
   <g id="patch_91">
    <path clip-path="url(#p92ca7fe4c1)" d="M 203.644727 200.06 
L 205.665091 200.06 
L 205.665091 162.430571 
L 203.644727 162.430571 
z
" style="fill:#1a1a1a;"/>
   </g>
   <g id="patch_92">
    <path clip-path="url(#p92ca7fe4c1)" d="M 205.665091 200.06 
L 207.685455 200.06 
L 207.685455 168.077282 
L 205.665091 168.077282 
z
" style="fill:#1a1a1a;"/>
   </g>
   <g id="patch_93">
    <path clip-path="url(#p92ca7fe4c1)" d="M 207.685455 200.06 
L 209.705818 200.06 
L 209.705818 169.287327 
L 207.685455 169.287327 
z
" style="fill:#1a1a1a;"/>
   </g>
   <g id="patch_94">
    <path clip-path="url(#p92ca7fe4c1)" d="M 209.705818 200.06 
L 211.726182 200.06 
L 211.726182 171.995603 
L 209.705818 171.995603 
z
" style="fill:#1a1a1a;"/>
   </g>
   <g id="patch_95">
    <path clip-path="url(#p92ca7fe4c1)" d="M 211.726182 200.06 
L 213.746545 200.06 
L 213.746545 174.716917 
L 211.726182 174.716917 
z
" style="fill:#1a1a1a;"/>
   </g>
   <g id="patch_96">
    <path clip-path="url(#p92ca7fe4c1)" d="M 213.746545 200.06 
L 215.766909 200.06 
L 215.766909 176.802253 
L 213.746545 176.802253 
z
" style="fill:#1a1a1a;"/>
   </g>
   <g id="patch_97">
    <path clip-path="url(#p92ca7fe4c1)" d="M 215.766909 200.06 
L 217.787273 200.06 
L 217.787273 178.120857 
L 215.766909 178.120857 
z
" style="fill:#1a1a1a;"/>
   </g>
   <g id="patch_98">
    <path clip-path="url(#p92ca7fe4c1)" d="M 217.787273 200.06 
L 219.807636 200.06 
L 219.807636 182.047307 
L 217.787273 182.047307 
z
" style="fill:#1a1a1a;"/>
   </g>
   <g id="patch_99">
    <path clip-path="url(#p92ca7fe4c1)" d="M 219.807636 200.06 
L 221.828 200.06 
L 221.828 182.43196 
L 219.807636 182.43196 
z
" style="fill:#1a1a1a;"/>
   </g>
   <g id="patch_100">
    <path clip-path="url(#p92ca7fe4c1)" d="M 221.828 200.06 
L 223.848364 200.06 
L 223.848364 182.564888 
L 221.828 182.564888 
z
" style="fill:#1a1a1a;"/>
   </g>
   <g id="patch_101">
    <path clip-path="url(#p92ca7fe4c1)" d="M 223.848364 200.06 
L 225.868727 200.06 
L 225.868727 183.086782 
L 223.848364 183.086782 
z
" style="fill:#1a1a1a;"/>
   </g>
   <g id="patch_102">
    <path clip-path="url(#p92ca7fe4c1)" d="M 225.868727 200.06 
L 227.889091 200.06 
L 227.889091 184.281865 
L 225.868727 184.281865 
z
" style="fill:#1a1a1a;"/>
   </g>
   <g id="patch_103">
    <path clip-path="url(#p92ca7fe4c1)" d="M 227.889091 200.06 
L 229.909455 200.06 
L 229.909455 184.356407 
L 227.889091 184.356407 
z
" style="fill:#1a1a1a;"/>
   </g>
   <g id="patch_104">
    <path clip-path="url(#p92ca7fe4c1)" d="M 229.909455 200.06 
L 231.929818 200.06 
L 231.929818 184.666871 
L 229.909455 184.666871 
z
" style="fill:#1a1a1a;"/>
   </g>
   <g id="patch_105">
    <path clip-path="url(#p92ca7fe4c1)" d="M 231.929818 200.06 
L 233.950182 200.06 
L 233.950182 185.114977 
L 231.929818 185.114977 
z
" style="fill:#1a1a1a;"/>
   </g>
   <g id="patch_106">
    <path clip-path="url(#p92ca7fe4c1)" d="M 233.950182 200.06 
L 235.970545 200.06 
L 235.970545 185.714554 
L 233.950182 185.714554 
z
" style="fill:#1a1a1a;"/>
   </g>
   <g id="patch_107">
    <path clip-path="url(#p92ca7fe4c1)" d="M 235.970545 200.06 
L 237.990909 200.06 
L 237.990909 185.944111 
L 235.970545 185.944111 
z
" style="fill:#1a1a1a;"/>
   </g>
   <g id="patch_108">
    <path clip-path="url(#p92ca7fe4c1)" d="M 237.990909 200.06 
L 240.011273 200.06 
L 240.011273 186.690439 
L 237.990909 186.690439 
z
" style="fill:#1a1a1a;"/>
   </g>
   <g id="patch_109">
    <path clip-path="url(#p92ca7fe4c1)" d="M 240.011273 200.06 
L 242.031636 200.06 
L 242.031636 188.987102 
L 240.011273 188.987102 
z
" style="fill:#1a1a1a;"/>
   </g>
   <g id="patch_110">
    <path clip-path="url(#p92ca7fe4c1)" d="M 242.031636 200.06 
L 244.052 200.06 
L 244.052 190.389607 
L 242.031636 190.389607 
z
" style="fill:#1a1a1a;"/>
   </g>
   <g id="patch_111">
    <path clip-path="url(#p92ca7fe4c1)" d="M 244.052 200.06 
L 246.072364 200.06 
L 246.072364 190.690758 
L 244.052 190.690758 
z
" style="fill:#1a1a1a;"/>
   </g>
   <g id="patch_112">
    <path clip-path="url(#p92ca7fe4c1)" d="M 246.072364 200.06 
L 248.092727 200.06 
L 248.092727 191.116597 
L 246.072364 191.116597 
z
" style="fill:#1a1a1a;"/>
   </g>
   <g id="patch_113">
    <path clip-path="url(#p92ca7fe4c1)" d="M 248.092727 200.06 
L 250.113091 200.06 
L 250.113091 191.340398 
L 248.092727 191.340398 
z
" style="fill:#1a1a1a;"/>
   </g>
   <g id="patch_114">
    <path clip-path="url(#p92ca7fe4c1)" d="M 250.113091 200.06 
L 252.133455 200.06 
L 252.133455 191.628116 
L 250.113091 191.628116 
z
" style="fill:#1a1a1a;"/>
   </g>
   <g id="patch_115">
    <path clip-path="url(#p92ca7fe4c1)" d="M 252.133455 200.06 
L 254.153818 200.06 
L 254.153818 191.85438 
L 252.133455 191.85438 
z
" style="fill:#1a1a1a;"/>
   </g>
   <g id="patch_116">
    <path clip-path="url(#p92ca7fe4c1)" d="M 254.153818 200.06 
L 256.174182 200.06 
L 256.174182 192.309028 
L 254.153818 192.309028 
z
" style="fill:#1a1a1a;"/>
   </g>
   <g id="patch_117">
    <path clip-path="url(#p92ca7fe4c1)" d="M 256.174182 200.06 
L 258.194545 200.06 
L 258.194545 192.941666 
L 256.174182 192.941666 
z
" style="fill:#1a1a1a;"/>
   </g>
   <g id="patch_118">
    <path clip-path="url(#p92ca7fe4c1)" d="M 258.194545 200.06 
L 260.214909 200.06 
L 260.214909 193.174873 
L 258.194545 193.174873 
z
" style="fill:#1a1a1a;"/>
   </g>
   <g id="patch_119">
    <path clip-path="url(#p92ca7fe4c1)" d="M 260.214909 200.06 
L 262.235273 200.06 
L 262.235273 193.579797 
L 260.214909 193.579797 
z
" style="fill:#1a1a1a;"/>
   </g>
   <g id="patch_120">
    <path clip-path="url(#p92ca7fe4c1)" d="M 262.235273 200.06 
L 264.255636 200.06 
L 264.255636 194.677595 
L 262.235273 194.677595 
z
" style="fill:#1a1a1a;"/>
   </g>
   <g id="patch_121">
    <path clip-path="url(#p92ca7fe4c1)" d="M 264.255636 200.06 
L 266.276 200.06 
L 266.276 194.778456 
L 264.255636 194.778456 
z
" style="fill:#1a1a1a;"/>
   </g>
   <g id="patch_122">
    <path clip-path="url(#p92ca7fe4c1)" d="M 266.276 200.06 
L 268.296364 200.06 
L 268.296364 195.089178 
L 266.276 195.089178 
z
" style="fill:#1a1a1a;"/>
   </g>
   <g id="patch_123">
    <path clip-path="url(#p92ca7fe4c1)" d="M 268.296364 200.06 
L 270.316727 200.06 
L 270.316727 195.229171 
L 268.296364 195.229171 
z
" style="fill:#1a1a1a;"/>
   </g>
   <g id="patch_124">
    <path clip-path="url(#p92ca7fe4c1)" d="M 270.316727 200.06 
L 272.337091 200.06 
L 272.337091 195.441735 
L 270.316727 195.441735 
z
" style="fill:#1a1a1a;"/>
   </g>
   <g id="patch_125">
    <path clip-path="url(#p92ca7fe4c1)" d="M 272.337091 200.06 
L 274.357455 200.06 
L 274.357455 195.605737 
L 272.337091 195.605737 
z
" style="fill:#1a1a1a;"/>
   </g>
   <g id="patch_126">
    <path clip-path="url(#p92ca7fe4c1)" d="M 274.357455 200.06 
L 276.377818 200.06 
L 276.377818 195.645744 
L 274.357455 195.645744 
z
" style="fill:#1a1a1a;"/>
   </g>
   <g id="patch_127">
    <path clip-path="url(#p92ca7fe4c1)" d="M 276.377818 200.06 
L 278.398182 200.06 
L 278.398182 195.929864 
L 276.377818 195.929864 
z
" style="fill:#1a1a1a;"/>
   </g>
   <g id="patch_128">
    <path clip-path="url(#p92ca7fe4c1)" d="M 278.398182 200.06 
L 280.418545 200.06 
L 280.418545 196.065424 
L 278.398182 196.065424 
z
" style="fill:#1a1a1a;"/>
   </g>
   <g id="patch_129">
    <path clip-path="url(#p92ca7fe4c1)" d="M 280.418545 200.06 
L 282.438909 200.06 
L 282.438909 196.129513 
L 280.418545 196.129513 
z
" style="fill:#1a1a1a;"/>
   </g>
   <g id="patch_130">
    <path clip-path="url(#p92ca7fe4c1)" d="M 282.438909 200.06 
L 284.459273 200.06 
L 284.459273 196.234632 
L 282.438909 196.234632 
z
" style="fill:#1a1a1a;"/>
   </g>
   <g id="patch_131">
    <path clip-path="url(#p92ca7fe4c1)" d="M 284.459273 200.06 
L 286.479636 200.06 
L 286.479636 196.471373 
L 284.459273 196.471373 
z
" style="fill:#1a1a1a;"/>
   </g>
   <g id="patch_132">
    <path clip-path="url(#p92ca7fe4c1)" d="M 286.479636 200.06 
L 288.5 200.06 
L 288.5 196.625551 
L 286.479636 196.625551 
z
" style="fill:#1a1a1a;"/>
   </g>
   <g id="patch_133">
    <path clip-path="url(#p92ca7fe4c1)" d="M 288.5 200.06 
L 290.520364 200.06 
L 290.520364 196.735199 
L 288.5 196.735199 
z
" style="fill:#1a1a1a;"/>
   </g>
   <g id="patch_134">
    <path clip-path="url(#p92ca7fe4c1)" d="M 290.520364 200.06 
L 292.540727 200.06 
L 292.540727 196.84512 
L 290.520364 196.84512 
z
" style="fill:#1a1a1a;"/>
   </g>
   <g id="patch_135">
    <path clip-path="url(#p92ca7fe4c1)" d="M 292.540727 200.06 
L 294.561091 200.06 
L 294.561091 196.922636 
L 292.540727 196.922636 
z
" style="fill:#1a1a1a;"/>
   </g>
   <g id="patch_136">
    <path clip-path="url(#p92ca7fe4c1)" d="M 294.561091 200.06 
L 296.581455 200.06 
L 296.581455 196.933617 
L 294.561091 196.933617 
z
" style="fill:#1a1a1a;"/>
   </g>
   <g id="patch_137">
    <path clip-path="url(#p92ca7fe4c1)" d="M 296.581455 200.06 
L 298.601818 200.06 
L 298.601818 197.125774 
L 296.581455 197.125774 
z
" style="fill:#1a1a1a;"/>
   </g>
   <g id="patch_138">
    <path clip-path="url(#p92ca7fe4c1)" d="M 298.601818 200.06 
L 300.622182 200.06 
L 300.622182 197.310782 
L 298.601818 197.310782 
z
" style="fill:#1a1a1a;"/>
   </g>
   <g id="patch_139">
    <path clip-path="url(#p92ca7fe4c1)" d="M 300.622182 200.06 
L 302.642545 200.06 
L 302.642545 197.341319 
L 300.622182 197.341319 
z
" style="fill:#1a1a1a;"/>
   </g>
   <g id="patch_140">
    <path clip-path="url(#p92ca7fe4c1)" d="M 302.642545 200.06 
L 304.662909 200.06 
L 304.662909 197.472396 
L 302.642545 197.472396 
z
" style="fill:#1a1a1a;"/>
   </g>
   <g id="patch_141">
    <path clip-path="url(#p92ca7fe4c1)" d="M 304.662909 200.06 
L 306.683273 200.06 
L 306.683273 197.635536 
L 304.662909 197.635536 
z
" style="fill:#1a1a1a;"/>
   </g>
   <g id="patch_142">
    <path clip-path="url(#p92ca7fe4c1)" d="M 306.683273 200.06 
L 308.703636 200.06 
L 308.703636 197.698295 
L 306.683273 197.698295 
z
" style="fill:#1a1a1a;"/>
   </g>
   <g id="patch_143">
    <path clip-path="url(#p92ca7fe4c1)" d="M 308.703636 200.06 
L 310.724 200.06 
L 310.724 197.736998 
L 308.703636 197.736998 
z
" style="fill:#1a1a1a;"/>
   </g>
   <g id="patch_144">
    <path clip-path="url(#p92ca7fe4c1)" d="M 310.724 200.06 
L 312.744364 200.06 
L 312.744364 197.86905 
L 310.724 197.86905 
z
" style="fill:#1a1a1a;"/>
   </g>
   <g id="patch_145">
    <path clip-path="url(#p92ca7fe4c1)" d="M 312.744364 200.06 
L 314.764727 200.06 
L 314.764727 197.892265 
L 312.744364 197.892265 
z
" style="fill:#1a1a1a;"/>
   </g>
   <g id="patch_146">
    <path clip-path="url(#p92ca7fe4c1)" d="M 314.764727 200.06 
L 316.785091 200.06 
L 316.785091 197.95467 
L 314.764727 197.95467 
z
" style="fill:#1a1a1a;"/>
   </g>
   <g id="patch_147">
    <path clip-path="url(#p92ca7fe4c1)" d="M 316.785091 200.06 
L 318.805455 200.06 
L 318.805455 198.015171 
L 316.785091 198.015171 
z
" style="fill:#1a1a1a;"/>
   </g>
   <g id="patch_148">
    <path clip-path="url(#p92ca7fe4c1)" d="M 318.805455 200.06 
L 320.825818 200.06 
L 320.825818 198.075363 
L 318.805455 198.075363 
z
" style="fill:#1a1a1a;"/>
   </g>
   <g id="patch_149">
    <path clip-path="url(#p92ca7fe4c1)" d="M 320.825818 200.06 
L 322.846182 200.06 
L 322.846182 198.082681 
L 320.825818 198.082681 
z
" style="fill:#1a1a1a;"/>
   </g>
   <g id="patch_150">
    <path clip-path="url(#p92ca7fe4c1)" d="M 322.846182 200.06 
L 324.866545 200.06 
L 324.866545 198.166913 
L 322.846182 198.166913 
z
" style="fill:#1a1a1a;"/>
   </g>
   <g id="patch_151">
    <path clip-path="url(#p92ca7fe4c1)" d="M 324.866545 200.06 
L 326.886909 200.06 
L 326.886909 198.216981 
L 324.866545 198.216981 
z
" style="fill:#1a1a1a;"/>
   </g>
   <g id="patch_152">
    <path clip-path="url(#p92ca7fe4c1)" d="M 326.886909 200.06 
L 328.907273 200.06 
L 328.907273 198.274775 
L 326.886909 198.274775 
z
" style="fill:#1a1a1a;"/>
   </g>
   <g id="matplotlib.axis_1"/>
   <g id="matplotlib.axis_2"/>
   <g id="patch_153">
    <path d="M 10.7 200.06 
L 10.7 10.7 
" style="fill:none;stroke:#000000;stroke-linecap:square;stroke-linejoin:miter;stroke-width:0.8;"/>
   </g>
   <g id="patch_154">
    <path d="M 344.06 200.06 
L 344.06 10.7 
" style="fill:none;stroke:#000000;stroke-linecap:square;stroke-linejoin:miter;stroke-width:0.8;"/>
   </g>
   <g id="patch_155">
    <path d="M 10.7 200.06 
L 344.06 200.06 
" style="fill:none;stroke:#000000;stroke-linecap:square;stroke-linejoin:miter;stroke-width:0.8;"/>
   </g>
   <g id="patch_156">
    <path d="M 10.7 10.7 
L 344.06 10.7 
" style="fill:none;stroke:#000000;stroke-linecap:square;stroke-linejoin:miter;stroke-width:0.8;"/>
   </g>
  </g>
 </g>
 <defs>
  <clipPath id="p92ca7fe4c1">
   <rect height="189.36" width="333.36" x="10.7" y="10.7"/>
  </clipPath>
 </defs>
</svg>
