<?xml version="1.0" encoding="utf-8" standalone="no"?>
<!DOCTYPE svg PUBLIC "-//W3C//DTD SVG 1.1//EN"
  "http://www.w3.org/Graphics/SVG/1.1/DTD/svg11.dtd">
<!-- Created with matplotlib (http://matplotlib.org/) -->
<svg height="210pt" version="1.1" viewBox="0 0 354 210" width="354pt" xmlns="http://www.w3.org/2000/svg" xmlns:xlink="http://www.w3.org/1999/xlink">
 <defs>
  <style type="text/css">
*{stroke-linecap:butt;stroke-linejoin:round;}
  </style>
 </defs>
 <g id="figure_1">
  <g id="patch_1">
   <path d="M 0 210.76 
L 354.76 210.76 
L 354.76 0 
L 0 0 
z
" style="fill:#ffffff;"/>
  </g>
  <g id="axes_1">
   <g id="patch_2">
    <path d="M 10.7 200.06 
L 344.06 200.06 
L 344.06 10.7 
L 10.7 10.7 
z
" style="fill:#ffffff;"/>
   </g>
   <g id="patch_3">
    <path clip-path="url(#p0b23ca65a6)" d="M 25.852727 200.06 
L 27.873091 200.06 
L 27.873091 199.882209 
L 25.852727 199.882209 
z
" style="fill:#1a1a1a;"/>
   </g>
   <g id="patch_4">
    <path clip-path="url(#p0b23ca65a6)" d="M 27.873091 200.06 
L 29.893455 200.06 
L 29.893455 199.870893 
L 27.873091 199.870893 
z
" style="fill:#1a1a1a;"/>
   </g>
   <g id="patch_5">
    <path clip-path="url(#p0b23ca65a6)" d="M 29.893455 200.06 
L 31.913818 200.06 
L 31.913818 199.862129 
L 29.893455 199.862129 
z
" style="fill:#1a1a1a;"/>
   </g>
   <g id="patch_6">
    <path clip-path="url(#p0b23ca65a6)" d="M 31.913818 200.06 
L 33.934182 200.06 
L 33.934182 199.8567 
L 31.913818 199.8567 
z
" style="fill:#1a1a1a;"/>
   </g>
   <g id="patch_7">
    <path clip-path="url(#p0b23ca65a6)" d="M 33.934182 200.06 
L 35.954545 200.06 
L 35.954545 199.852343 
L 33.934182 199.852343 
z
" style="fill:#1a1a1a;"/>
   </g>
   <g id="patch_8">
    <path clip-path="url(#p0b23ca65a6)" d="M 35.954545 200.06 
L 37.974909 200.06 
L 37.974909 199.836583 
L 35.954545 199.836583 
z
" style="fill:#1a1a1a;"/>
   </g>
   <g id="patch_9">
    <path clip-path="url(#p0b23ca65a6)" d="M 37.974909 200.06 
L 39.995273 200.06 
L 39.995273 199.833643 
L 37.974909 199.833643 
z
" style="fill:#1a1a1a;"/>
   </g>
   <g id="patch_10">
    <path clip-path="url(#p0b23ca65a6)" d="M 39.995273 200.06 
L 42.015636 200.06 
L 42.015636 199.811217 
L 39.995273 199.811217 
z
" style="fill:#1a1a1a;"/>
   </g>
   <g id="patch_11">
    <path clip-path="url(#p0b23ca65a6)" d="M 42.015636 200.06 
L 44.036 200.06 
L 44.036 199.805885 
L 42.015636 199.805885 
z
" style="fill:#1a1a1a;"/>
   </g>
   <g id="patch_12">
    <path clip-path="url(#p0b23ca65a6)" d="M 44.036 200.06 
L 46.056364 200.06 
L 46.056364 199.790344 
L 44.036 199.790344 
z
" style="fill:#1a1a1a;"/>
   </g>
   <g id="patch_13">
    <path clip-path="url(#p0b23ca65a6)" d="M 46.056364 200.06 
L 48.076727 200.06 
L 48.076727 199.788477 
L 46.056364 199.788477 
z
" style="fill:#1a1a1a;"/>
   </g>
   <g id="patch_14">
    <path clip-path="url(#p0b23ca65a6)" d="M 48.076727 200.06 
L 50.097091 200.06 
L 50.097091 199.77651 
L 48.076727 199.77651 
z
" style="fill:#1a1a1a;"/>
   </g>
   <g id="patch_15">
    <path clip-path="url(#p0b23ca65a6)" d="M 50.097091 200.06 
L 52.117455 200.06 
L 52.117455 199.772811 
L 50.097091 199.772811 
z
" style="fill:#1a1a1a;"/>
   </g>
   <g id="patch_16">
    <path clip-path="url(#p0b23ca65a6)" d="M 52.117455 200.06 
L 54.137818 200.06 
L 54.137818 199.761927 
L 52.117455 199.761927 
z
" style="fill:#1a1a1a;"/>
   </g>
   <g id="patch_17">
    <path clip-path="url(#p0b23ca65a6)" d="M 54.137818 200.06 
L 56.158182 200.06 
L 56.158182 199.749215 
L 54.137818 199.749215 
z
" style="fill:#1a1a1a;"/>
   </g>
   <g id="patch_18">
    <path clip-path="url(#p0b23ca65a6)" d="M 56.158182 200.06 
L 58.178545 200.06 
L 58.178545 199.741055 
L 56.158182 199.741055 
z
" style="fill:#1a1a1a;"/>
   </g>
   <g id="patch_19">
    <path clip-path="url(#p0b23ca65a6)" d="M 58.178545 200.06 
L 60.198909 200.06 
L 60.198909 199.729549 
L 58.178545 199.729549 
z
" style="fill:#1a1a1a;"/>
   </g>
   <g id="patch_20">
    <path clip-path="url(#p0b23ca65a6)" d="M 60.198909 200.06 
L 62.219273 200.06 
L 62.219273 199.718434 
L 60.198909 199.718434 
z
" style="fill:#1a1a1a;"/>
   </g>
   <g id="patch_21">
    <path clip-path="url(#p0b23ca65a6)" d="M 62.219273 200.06 
L 64.239636 200.06 
L 64.239636 199.684926 
L 62.219273 199.684926 
z
" style="fill:#1a1a1a;"/>
   </g>
   <g id="patch_22">
    <path clip-path="url(#p0b23ca65a6)" d="M 64.239636 200.06 
L 66.26 200.06 
L 66.26 199.612017 
L 64.239636 199.612017 
z
" style="fill:#1a1a1a;"/>
   </g>
   <g id="patch_23">
    <path clip-path="url(#p0b23ca65a6)" d="M 66.26 200.06 
L 68.280364 200.06 
L 68.280364 199.600515 
L 66.26 199.600515 
z
" style="fill:#1a1a1a;"/>
   </g>
   <g id="patch_24">
    <path clip-path="url(#p0b23ca65a6)" d="M 68.280364 200.06 
L 70.300727 200.06 
L 70.300727 199.544866 
L 68.280364 199.544866 
z
" style="fill:#1a1a1a;"/>
   </g>
   <g id="patch_25">
    <path clip-path="url(#p0b23ca65a6)" d="M 70.300727 200.06 
L 72.321091 200.06 
L 72.321091 199.531947 
L 70.300727 199.531947 
z
" style="fill:#1a1a1a;"/>
   </g>
   <g id="patch_26">
    <path clip-path="url(#p0b23ca65a6)" d="M 72.321091 200.06 
L 74.341455 200.06 
L 74.341455 199.519226 
L 72.321091 199.519226 
z
" style="fill:#1a1a1a;"/>
   </g>
   <g id="patch_27">
    <path clip-path="url(#p0b23ca65a6)" d="M 74.341455 200.06 
L 76.361818 200.06 
L 76.361818 199.514003 
L 74.341455 199.514003 
z
" style="fill:#1a1a1a;"/>
   </g>
   <g id="patch_28">
    <path clip-path="url(#p0b23ca65a6)" d="M 76.361818 200.06 
L 78.382182 200.06 
L 78.382182 199.489099 
L 76.361818 199.489099 
z
" style="fill:#1a1a1a;"/>
   </g>
   <g id="patch_29">
    <path clip-path="url(#p0b23ca65a6)" d="M 78.382182 200.06 
L 80.402545 200.06 
L 80.402545 199.435812 
L 78.382182 199.435812 
z
" style="fill:#1a1a1a;"/>
   </g>
   <g id="patch_30">
    <path clip-path="url(#p0b23ca65a6)" d="M 80.402545 200.06 
L 82.422909 200.06 
L 82.422909 199.417766 
L 80.402545 199.417766 
z
" style="fill:#1a1a1a;"/>
   </g>
   <g id="patch_31">
    <path clip-path="url(#p0b23ca65a6)" d="M 82.422909 200.06 
L 84.443273 200.06 
L 84.443273 199.377381 
L 82.422909 199.377381 
z
" style="fill:#1a1a1a;"/>
   </g>
   <g id="patch_32">
    <path clip-path="url(#p0b23ca65a6)" d="M 84.443273 200.06 
L 86.463636 200.06 
L 86.463636 199.355837 
L 84.443273 199.355837 
z
" style="fill:#1a1a1a;"/>
   </g>
   <g id="patch_33">
    <path clip-path="url(#p0b23ca65a6)" d="M 86.463636 200.06 
L 88.484 200.06 
L 88.484 199.3316 
L 86.463636 199.3316 
z
" style="fill:#1a1a1a;"/>
   </g>
   <g id="patch_34">
    <path clip-path="url(#p0b23ca65a6)" d="M 88.484 200.06 
L 90.504364 200.06 
L 90.504364 199.29378 
L 88.484 199.29378 
z
" style="fill:#1a1a1a;"/>
   </g>
   <g id="patch_35">
    <path clip-path="url(#p0b23ca65a6)" d="M 90.504364 200.06 
L 92.524727 200.06 
L 92.524727 199.271801 
L 90.504364 199.271801 
z
" style="fill:#1a1a1a;"/>
   </g>
   <g id="patch_36">
    <path clip-path="url(#p0b23ca65a6)" d="M 92.524727 200.06 
L 94.545091 200.06 
L 94.545091 199.235259 
L 92.524727 199.235259 
z
" style="fill:#1a1a1a;"/>
   </g>
   <g id="patch_37">
    <path clip-path="url(#p0b23ca65a6)" d="M 94.545091 200.06 
L 96.565455 200.06 
L 96.565455 199.226978 
L 94.545091 199.226978 
z
" style="fill:#1a1a1a;"/>
   </g>
   <g id="patch_38">
    <path clip-path="url(#p0b23ca65a6)" d="M 96.565455 200.06 
L 98.585818 200.06 
L 98.585818 199.172691 
L 96.565455 199.172691 
z
" style="fill:#1a1a1a;"/>
   </g>
   <g id="patch_39">
    <path clip-path="url(#p0b23ca65a6)" d="M 98.585818 200.06 
L 100.606182 200.06 
L 100.606182 199.118113 
L 98.585818 199.118113 
z
" style="fill:#1a1a1a;"/>
   </g>
   <g id="patch_40">
    <path clip-path="url(#p0b23ca65a6)" d="M 100.606182 200.06 
L 102.626545 200.06 
L 102.626545 199.093922 
L 100.606182 199.093922 
z
" style="fill:#1a1a1a;"/>
   </g>
   <g id="patch_41">
    <path clip-path="url(#p0b23ca65a6)" d="M 102.626545 200.06 
L 104.646909 200.06 
L 104.646909 199.074393 
L 102.626545 199.074393 
z
" style="fill:#1a1a1a;"/>
   </g>
   <g id="patch_42">
    <path clip-path="url(#p0b23ca65a6)" d="M 104.646909 200.06 
L 106.667273 200.06 
L 106.667273 199.0398 
L 104.646909 199.0398 
z
" style="fill:#1a1a1a;"/>
   </g>
   <g id="patch_43">
    <path clip-path="url(#p0b23ca65a6)" d="M 106.667273 200.06 
L 108.687636 200.06 
L 108.687636 198.990924 
L 106.667273 198.990924 
z
" style="fill:#1a1a1a;"/>
   </g>
   <g id="patch_44">
    <path clip-path="url(#p0b23ca65a6)" d="M 108.687636 200.06 
L 110.708 200.06 
L 110.708 198.799617 
L 108.687636 198.799617 
z
" style="fill:#1a1a1a;"/>
   </g>
   <g id="patch_45">
    <path clip-path="url(#p0b23ca65a6)" d="M 110.708 200.06 
L 112.728364 200.06 
L 112.728364 198.761983 
L 110.708 198.761983 
z
" style="fill:#1a1a1a;"/>
   </g>
   <g id="patch_46">
    <path clip-path="url(#p0b23ca65a6)" d="M 112.728364 200.06 
L 114.748727 200.06 
L 114.748727 198.724202 
L 112.728364 198.724202 
z
" style="fill:#1a1a1a;"/>
   </g>
   <g id="patch_47">
    <path clip-path="url(#p0b23ca65a6)" d="M 114.748727 200.06 
L 116.769091 200.06 
L 116.769091 198.458698 
L 114.748727 198.458698 
z
" style="fill:#1a1a1a;"/>
   </g>
   <g id="patch_48">
    <path clip-path="url(#p0b23ca65a6)" d="M 116.769091 200.06 
L 118.789455 200.06 
L 118.789455 198.412171 
L 116.769091 198.412171 
z
" style="fill:#1a1a1a;"/>
   </g>
   <g id="patch_49">
    <path clip-path="url(#p0b23ca65a6)" d="M 118.789455 200.06 
L 120.809818 200.06 
L 120.809818 198.377751 
L 118.789455 198.377751 
z
" style="fill:#1a1a1a;"/>
   </g>
   <g id="patch_50">
    <path clip-path="url(#p0b23ca65a6)" d="M 120.809818 200.06 
L 122.830182 200.06 
L 122.830182 198.297492 
L 120.809818 198.297492 
z
" style="fill:#1a1a1a;"/>
   </g>
   <g id="patch_51">
    <path clip-path="url(#p0b23ca65a6)" d="M 122.830182 200.06 
L 124.850545 200.06 
L 124.850545 198.18876 
L 122.830182 198.18876 
z
" style="fill:#1a1a1a;"/>
   </g>
   <g id="patch_52">
    <path clip-path="url(#p0b23ca65a6)" d="M 124.850545 200.06 
L 126.870909 200.06 
L 126.870909 198.051565 
L 124.850545 198.051565 
z
" style="fill:#1a1a1a;"/>
   </g>
   <g id="patch_53">
    <path clip-path="url(#p0b23ca65a6)" d="M 126.870909 200.06 
L 128.891273 200.06 
L 128.891273 197.615944 
L 126.870909 197.615944 
z
" style="fill:#1a1a1a;"/>
   </g>
   <g id="patch_54">
    <path clip-path="url(#p0b23ca65a6)" d="M 128.891273 200.06 
L 130.911636 200.06 
L 130.911636 197.148056 
L 128.891273 197.148056 
z
" style="fill:#1a1a1a;"/>
   </g>
   <g id="patch_55">
    <path clip-path="url(#p0b23ca65a6)" d="M 130.911636 200.06 
L 132.932 200.06 
L 132.932 196.557857 
L 130.911636 196.557857 
z
" style="fill:#1a1a1a;"/>
   </g>
   <g id="patch_56">
    <path clip-path="url(#p0b23ca65a6)" d="M 132.932 200.06 
L 134.952364 200.06 
L 134.952364 196.285643 
L 132.932 196.285643 
z
" style="fill:#1a1a1a;"/>
   </g>
   <g id="patch_57">
    <path clip-path="url(#p0b23ca65a6)" d="M 134.952364 200.06 
L 136.972727 200.06 
L 136.972727 195.726466 
L 134.952364 195.726466 
z
" style="fill:#1a1a1a;"/>
   </g>
   <g id="patch_58">
    <path clip-path="url(#p0b23ca65a6)" d="M 136.972727 200.06 
L 138.993091 200.06 
L 138.993091 195.456524 
L 136.972727 195.456524 
z
" style="fill:#1a1a1a;"/>
   </g>
   <g id="patch_59">
    <path clip-path="url(#p0b23ca65a6)" d="M 138.993091 200.06 
L 141.013455 200.06 
L 141.013455 195.020598 
L 138.993091 195.020598 
z
" style="fill:#1a1a1a;"/>
   </g>
   <g id="patch_60">
    <path clip-path="url(#p0b23ca65a6)" d="M 141.013455 200.06 
L 143.033818 200.06 
L 143.033818 194.190968 
L 141.013455 194.190968 
z
" style="fill:#1a1a1a;"/>
   </g>
   <g id="patch_61">
    <path clip-path="url(#p0b23ca65a6)" d="M 143.033818 200.06 
L 145.054182 200.06 
L 145.054182 193.132423 
L 143.033818 193.132423 
z
" style="fill:#1a1a1a;"/>
   </g>
   <g id="patch_62">
    <path clip-path="url(#p0b23ca65a6)" d="M 145.054182 200.06 
L 147.074545 200.06 
L 147.074545 191.412199 
L 145.054182 191.412199 
z
" style="fill:#1a1a1a;"/>
   </g>
   <g id="patch_63">
    <path clip-path="url(#p0b23ca65a6)" d="M 147.074545 200.06 
L 149.094909 200.06 
L 149.094909 188.239346 
L 147.074545 188.239346 
z
" style="fill:#1a1a1a;"/>
   </g>
   <g id="patch_64">
    <path clip-path="url(#p0b23ca65a6)" d="M 149.094909 200.06 
L 151.115273 200.06 
L 151.115273 184.822447 
L 149.094909 184.822447 
z
" style="fill:#1a1a1a;"/>
   </g>
   <g id="patch_65">
    <path clip-path="url(#p0b23ca65a6)" d="M 151.115273 200.06 
L 153.135636 200.06 
L 153.135636 181.634239 
L 151.115273 181.634239 
z
" style="fill:#1a1a1a;"/>
   </g>
   <g id="patch_66">
    <path clip-path="url(#p0b23ca65a6)" d="M 153.135636 200.06 
L 155.156 200.06 
L 155.156 181.007781 
L 153.135636 181.007781 
z
" style="fill:#1a1a1a;"/>
   </g>
   <g id="patch_67">
    <path clip-path="url(#p0b23ca65a6)" d="M 155.156 200.06 
L 157.176364 200.06 
L 157.176364 178.922806 
L 155.156 178.922806 
z
" style="fill:#1a1a1a;"/>
   </g>
   <g id="patch_68">
    <path clip-path="url(#p0b23ca65a6)" d="M 157.176364 200.06 
L 159.196727 200.06 
L 159.196727 175.251787 
L 157.176364 175.251787 
z
" style="fill:#1a1a1a;"/>
   </g>
   <g id="patch_69">
    <path clip-path="url(#p0b23ca65a6)" d="M 159.196727 200.06 
L 161.217091 200.06 
L 161.217091 169.098752 
L 159.196727 169.098752 
z
" style="fill:#1a1a1a;"/>
   </g>
   <g id="patch_70">
    <path clip-path="url(#p0b23ca65a6)" d="M 161.217091 200.06 
L 163.237455 200.06 
L 163.237455 167.855517 
L 161.217091 167.855517 
z
" style="fill:#1a1a1a;"/>
   </g>
   <g id="patch_71">
    <path clip-path="url(#p0b23ca65a6)" d="M 163.237455 200.06 
L 165.257818 200.06 
L 165.257818 162.68428 
L 163.237455 162.68428 
z
" style="fill:#1a1a1a;"/>
   </g>
   <g id="patch_72">
    <path clip-path="url(#p0b23ca65a6)" d="M 165.257818 200.06 
L 167.278182 200.06 
L 167.278182 152.976197 
L 165.257818 152.976197 
z
" style="fill:#1a1a1a;"/>
   </g>
   <g id="patch_73">
    <path clip-path="url(#p0b23ca65a6)" d="M 167.278182 200.06 
L 169.298545 200.06 
L 169.298545 150.67548 
L 167.278182 150.67548 
z
" style="fill:#1a1a1a;"/>
   </g>
   <g id="patch_74">
    <path clip-path="url(#p0b23ca65a6)" d="M 169.298545 200.06 
L 171.318909 200.06 
L 171.318909 142.043609 
L 169.298545 142.043609 
z
" style="fill:#1a1a1a;"/>
   </g>
   <g id="patch_75">
    <path clip-path="url(#p0b23ca65a6)" d="M 171.318909 200.06 
L 173.339273 200.06 
L 173.339273 114.548764 
L 171.318909 114.548764 
z
" style="fill:#1a1a1a;"/>
   </g>
   <g id="patch_76">
    <path clip-path="url(#p0b23ca65a6)" d="M 173.339273 200.06 
L 175.359636 200.06 
L 175.359636 110.769487 
L 173.339273 110.769487 
z
" style="fill:#1a1a1a;"/>
   </g>
   <g id="patch_77">
    <path clip-path="url(#p0b23ca65a6)" d="M 175.359636 200.06 
L 177.38 200.06 
L 177.38 109.787522 
L 175.359636 109.787522 
z
" style="fill:#1a1a1a;"/>
   </g>
   <g id="patch_78">
    <path clip-path="url(#p0b23ca65a6)" d="M 177.38 200.06 
L 179.400364 200.06 
L 179.400364 109.78626 
L 177.38 109.78626 
z
" style="fill:#1a1a1a;"/>
   </g>
   <g id="patch_79">
    <path clip-path="url(#p0b23ca65a6)" d="M 179.400364 200.06 
L 181.420727 200.06 
L 181.420727 110.595876 
L 179.400364 110.595876 
z
" style="fill:#1a1a1a;"/>
   </g>
   <g id="patch_80">
    <path clip-path="url(#p0b23ca65a6)" d="M 181.420727 200.06 
L 183.441091 200.06 
L 183.441091 111.229785 
L 181.420727 111.229785 
z
" style="fill:#1a1a1a;"/>
   </g>
   <g id="patch_81">
    <path clip-path="url(#p0b23ca65a6)" d="M 183.441091 200.06 
L 185.461455 200.06 
L 185.461455 130.829527 
L 183.441091 130.829527 
z
" style="fill:#1a1a1a;"/>
   </g>
   <g id="patch_82">
    <path clip-path="url(#p0b23ca65a6)" d="M 185.461455 200.06 
L 187.481818 200.06 
L 187.481818 142.890061 
L 185.461455 142.890061 
z
" style="fill:#1a1a1a;"/>
   </g>
   <g id="patch_83">
    <path clip-path="url(#p0b23ca65a6)" d="M 187.481818 200.06 
L 189.502182 200.06 
L 189.502182 150.873319 
L 187.481818 150.873319 
z
" style="fill:#1a1a1a;"/>
   </g>
   <g id="patch_84">
    <path clip-path="url(#p0b23ca65a6)" d="M 189.502182 200.06 
L 191.522545 200.06 
L 191.522545 162.676544 
L 189.502182 162.676544 
z
" style="fill:#1a1a1a;"/>
   </g>
   <g id="patch_85">
    <path clip-path="url(#p0b23ca65a6)" d="M 191.522545 200.06 
L 193.542909 200.06 
L 193.542909 167.494846 
L 191.522545 167.494846 
z
" style="fill:#1a1a1a;"/>
   </g>
   <g id="patch_86">
    <path clip-path="url(#p0b23ca65a6)" d="M 193.542909 200.06 
L 195.563273 200.06 
L 195.563273 168.772505 
L 193.542909 168.772505 
z
" style="fill:#1a1a1a;"/>
   </g>
   <g id="patch_87">
    <path clip-path="url(#p0b23ca65a6)" d="M 195.563273 200.06 
L 197.583636 200.06 
L 197.583636 170.475458 
L 195.563273 170.475458 
z
" style="fill:#1a1a1a;"/>
   </g>
   <g id="patch_88">
    <path clip-path="url(#p0b23ca65a6)" d="M 197.583636 200.06 
L 199.604 200.06 
L 199.604 175.632751 
L 197.583636 175.632751 
z
" style="fill:#1a1a1a;"/>
   </g>
   <g id="patch_89">
    <path clip-path="url(#p0b23ca65a6)" d="M 199.604 200.06 
L 201.624364 200.06 
L 201.624364 180.135203 
L 199.604 180.135203 
z
" style="fill:#1a1a1a;"/>
   </g>
   <g id="patch_90">
    <path clip-path="url(#p0b23ca65a6)" d="M 201.624364 200.06 
L 203.644727 200.06 
L 203.644727 181.110264 
L 201.624364 181.110264 
z
" style="fill:#1a1a1a;"/>
   </g>
   <g id="patch_91">
    <path clip-path="url(#p0b23ca65a6)" d="M 203.644727 200.06 
L 205.665091 200.06 
L 205.665091 183.943169 
L 203.644727 183.943169 
z
" style="fill:#1a1a1a;"/>
   </g>
   <g id="patch_92">
    <path clip-path="url(#p0b23ca65a6)" d="M 205.665091 200.06 
L 207.685455 200.06 
L 207.685455 187.106279 
L 205.665091 187.106279 
z
" style="fill:#1a1a1a;"/>
   </g>
   <g id="patch_93">
    <path clip-path="url(#p0b23ca65a6)" d="M 207.685455 200.06 
L 209.705818 200.06 
L 209.705818 191.306778 
L 207.685455 191.306778 
z
" style="fill:#1a1a1a;"/>
   </g>
   <g id="patch_94">
    <path clip-path="url(#p0b23ca65a6)" d="M 209.705818 200.06 
L 211.726182 200.06 
L 211.726182 192.488832 
L 209.705818 192.488832 
z
" style="fill:#1a1a1a;"/>
   </g>
   <g id="patch_95">
    <path clip-path="url(#p0b23ca65a6)" d="M 211.726182 200.06 
L 213.746545 200.06 
L 213.746545 193.356987 
L 211.726182 193.356987 
z
" style="fill:#1a1a1a;"/>
   </g>
   <g id="patch_96">
    <path clip-path="url(#p0b23ca65a6)" d="M 213.746545 200.06 
L 215.766909 200.06 
L 215.766909 194.497401 
L 213.746545 194.497401 
z
" style="fill:#1a1a1a;"/>
   </g>
   <g id="patch_97">
    <path clip-path="url(#p0b23ca65a6)" d="M 215.766909 200.06 
L 217.787273 200.06 
L 217.787273 195.214121 
L 215.766909 195.214121 
z
" style="fill:#1a1a1a;"/>
   </g>
   <g id="patch_98">
    <path clip-path="url(#p0b23ca65a6)" d="M 217.787273 200.06 
L 219.807636 200.06 
L 219.807636 195.690817 
L 217.787273 195.690817 
z
" style="fill:#1a1a1a;"/>
   </g>
   <g id="patch_99">
    <path clip-path="url(#p0b23ca65a6)" d="M 219.807636 200.06 
L 221.828 200.06 
L 221.828 195.740805 
L 219.807636 195.740805 
z
" style="fill:#1a1a1a;"/>
   </g>
   <g id="patch_100">
    <path clip-path="url(#p0b23ca65a6)" d="M 221.828 200.06 
L 223.848364 200.06 
L 223.848364 196.373504 
L 221.828 196.373504 
z
" style="fill:#1a1a1a;"/>
   </g>
   <g id="patch_101">
    <path clip-path="url(#p0b23ca65a6)" d="M 223.848364 200.06 
L 225.868727 200.06 
L 225.868727 196.690249 
L 223.848364 196.690249 
z
" style="fill:#1a1a1a;"/>
   </g>
   <g id="patch_102">
    <path clip-path="url(#p0b23ca65a6)" d="M 225.868727 200.06 
L 227.889091 200.06 
L 227.889091 197.281136 
L 225.868727 197.281136 
z
" style="fill:#1a1a1a;"/>
   </g>
   <g id="patch_103">
    <path clip-path="url(#p0b23ca65a6)" d="M 227.889091 200.06 
L 229.909455 200.06 
L 229.909455 197.682071 
L 227.889091 197.682071 
z
" style="fill:#1a1a1a;"/>
   </g>
   <g id="patch_104">
    <path clip-path="url(#p0b23ca65a6)" d="M 229.909455 200.06 
L 231.929818 200.06 
L 231.929818 198.154044 
L 229.909455 198.154044 
z
" style="fill:#1a1a1a;"/>
   </g>
   <g id="patch_105">
    <path clip-path="url(#p0b23ca65a6)" d="M 231.929818 200.06 
L 233.950182 200.06 
L 233.950182 198.217521 
L 231.929818 198.217521 
z
" style="fill:#1a1a1a;"/>
   </g>
   <g id="patch_106">
    <path clip-path="url(#p0b23ca65a6)" d="M 233.950182 200.06 
L 235.970545 200.06 
L 235.970545 198.307914 
L 233.950182 198.307914 
z
" style="fill:#1a1a1a;"/>
   </g>
   <g id="patch_107">
    <path clip-path="url(#p0b23ca65a6)" d="M 235.970545 200.06 
L 237.990909 200.06 
L 237.990909 198.389348 
L 235.970545 198.389348 
z
" style="fill:#1a1a1a;"/>
   </g>
   <g id="patch_108">
    <path clip-path="url(#p0b23ca65a6)" d="M 237.990909 200.06 
L 240.011273 200.06 
L 240.011273 198.439205 
L 237.990909 198.439205 
z
" style="fill:#1a1a1a;"/>
   </g>
   <g id="patch_109">
    <path clip-path="url(#p0b23ca65a6)" d="M 240.011273 200.06 
L 242.031636 200.06 
L 242.031636 198.5577 
L 240.011273 198.5577 
z
" style="fill:#1a1a1a;"/>
   </g>
   <g id="patch_110">
    <path clip-path="url(#p0b23ca65a6)" d="M 242.031636 200.06 
L 244.052 200.06 
L 244.052 198.760364 
L 242.031636 198.760364 
z
" style="fill:#1a1a1a;"/>
   </g>
   <g id="patch_111">
    <path clip-path="url(#p0b23ca65a6)" d="M 244.052 200.06 
L 246.072364 200.06 
L 246.072364 198.796832 
L 244.052 198.796832 
z
" style="fill:#1a1a1a;"/>
   </g>
   <g id="patch_112">
    <path clip-path="url(#p0b23ca65a6)" d="M 246.072364 200.06 
L 248.092727 200.06 
L 248.092727 198.842955 
L 246.072364 198.842955 
z
" style="fill:#1a1a1a;"/>
   </g>
   <g id="patch_113">
    <path clip-path="url(#p0b23ca65a6)" d="M 248.092727 200.06 
L 250.113091 200.06 
L 250.113091 199.006672 
L 248.092727 199.006672 
z
" style="fill:#1a1a1a;"/>
   </g>
   <g id="patch_114">
    <path clip-path="url(#p0b23ca65a6)" d="M 250.113091 200.06 
L 252.133455 200.06 
L 252.133455 199.074129 
L 250.113091 199.074129 
z
" style="fill:#1a1a1a;"/>
   </g>
   <g id="patch_115">
    <path clip-path="url(#p0b23ca65a6)" d="M 252.133455 200.06 
L 254.153818 200.06 
L 254.153818 199.093249 
L 252.133455 199.093249 
z
" style="fill:#1a1a1a;"/>
   </g>
   <g id="patch_116">
    <path clip-path="url(#p0b23ca65a6)" d="M 254.153818 200.06 
L 256.174182 200.06 
L 256.174182 199.11775 
L 254.153818 199.11775 
z
" style="fill:#1a1a1a;"/>
   </g>
   <g id="patch_117">
    <path clip-path="url(#p0b23ca65a6)" d="M 256.174182 200.06 
L 258.194545 200.06 
L 258.194545 199.138127 
L 256.174182 199.138127 
z
" style="fill:#1a1a1a;"/>
   </g>
   <g id="patch_118">
    <path clip-path="url(#p0b23ca65a6)" d="M 258.194545 200.06 
L 260.214909 200.06 
L 260.214909 199.207613 
L 258.194545 199.207613 
z
" style="fill:#1a1a1a;"/>
   </g>
   <g id="patch_119">
    <path clip-path="url(#p0b23ca65a6)" d="M 260.214909 200.06 
L 262.235273 200.06 
L 262.235273 199.229424 
L 260.214909 199.229424 
z
" style="fill:#1a1a1a;"/>
   </g>
   <g id="patch_120">
    <path clip-path="url(#p0b23ca65a6)" d="M 262.235273 200.06 
L 264.255636 200.06 
L 264.255636 199.269193 
L 262.235273 199.269193 
z
" style="fill:#1a1a1a;"/>
   </g>
   <g id="patch_121">
    <path clip-path="url(#p0b23ca65a6)" d="M 264.255636 200.06 
L 266.276 200.06 
L 266.276 199.289174 
L 264.255636 199.289174 
z
" style="fill:#1a1a1a;"/>
   </g>
   <g id="patch_122">
    <path clip-path="url(#p0b23ca65a6)" d="M 266.276 200.06 
L 268.296364 200.06 
L 268.296364 199.316193 
L 266.276 199.316193 
z
" style="fill:#1a1a1a;"/>
   </g>
   <g id="patch_123">
    <path clip-path="url(#p0b23ca65a6)" d="M 268.296364 200.06 
L 270.316727 200.06 
L 270.316727 199.352914 
L 268.296364 199.352914 
z
" style="fill:#1a1a1a;"/>
   </g>
   <g id="patch_124">
    <path clip-path="url(#p0b23ca65a6)" d="M 270.316727 200.06 
L 272.337091 200.06 
L 272.337091 199.362819 
L 270.316727 199.362819 
z
" style="fill:#1a1a1a;"/>
   </g>
   <g id="patch_125">
    <path clip-path="url(#p0b23ca65a6)" d="M 272.337091 200.06 
L 274.357455 200.06 
L 274.357455 199.412044 
L 272.337091 199.412044 
z
" style="fill:#1a1a1a;"/>
   </g>
   <g id="patch_126">
    <path clip-path="url(#p0b23ca65a6)" d="M 274.357455 200.06 
L 276.377818 200.06 
L 276.377818 199.418178 
L 274.357455 199.418178 
z
" style="fill:#1a1a1a;"/>
   </g>
   <g id="patch_127">
    <path clip-path="url(#p0b23ca65a6)" d="M 276.377818 200.06 
L 278.398182 200.06 
L 278.398182 199.484502 
L 276.377818 199.484502 
z
" style="fill:#1a1a1a;"/>
   </g>
   <g id="patch_128">
    <path clip-path="url(#p0b23ca65a6)" d="M 278.398182 200.06 
L 280.418545 200.06 
L 280.418545 199.489241 
L 278.398182 199.489241 
z
" style="fill:#1a1a1a;"/>
   </g>
   <g id="patch_129">
    <path clip-path="url(#p0b23ca65a6)" d="M 280.418545 200.06 
L 282.438909 200.06 
L 282.438909 199.514712 
L 280.418545 199.514712 
z
" style="fill:#1a1a1a;"/>
   </g>
   <g id="patch_130">
    <path clip-path="url(#p0b23ca65a6)" d="M 282.438909 200.06 
L 284.459273 200.06 
L 284.459273 199.522921 
L 282.438909 199.522921 
z
" style="fill:#1a1a1a;"/>
   </g>
   <g id="patch_131">
    <path clip-path="url(#p0b23ca65a6)" d="M 284.459273 200.06 
L 286.479636 200.06 
L 286.479636 199.544724 
L 284.459273 199.544724 
z
" style="fill:#1a1a1a;"/>
   </g>
   <g id="patch_132">
    <path clip-path="url(#p0b23ca65a6)" d="M 286.479636 200.06 
L 288.5 200.06 
L 288.5 199.592252 
L 286.479636 199.592252 
z
" style="fill:#1a1a1a;"/>
   </g>
   <g id="patch_133">
    <path clip-path="url(#p0b23ca65a6)" d="M 288.5 200.06 
L 290.520364 200.06 
L 290.520364 199.608362 
L 288.5 199.608362 
z
" style="fill:#1a1a1a;"/>
   </g>
   <g id="patch_134">
    <path clip-path="url(#p0b23ca65a6)" d="M 290.520364 200.06 
L 292.540727 200.06 
L 292.540727 199.631252 
L 290.520364 199.631252 
z
" style="fill:#1a1a1a;"/>
   </g>
   <g id="patch_135">
    <path clip-path="url(#p0b23ca65a6)" d="M 292.540727 200.06 
L 294.561091 200.06 
L 294.561091 199.691533 
L 292.540727 199.691533 
z
" style="fill:#1a1a1a;"/>
   </g>
   <g id="patch_136">
    <path clip-path="url(#p0b23ca65a6)" d="M 294.561091 200.06 
L 296.581455 200.06 
L 296.581455 199.725743 
L 294.561091 199.725743 
z
" style="fill:#1a1a1a;"/>
   </g>
   <g id="patch_137">
    <path clip-path="url(#p0b23ca65a6)" d="M 296.581455 200.06 
L 298.601818 200.06 
L 298.601818 199.739487 
L 296.581455 199.739487 
z
" style="fill:#1a1a1a;"/>
   </g>
   <g id="patch_138">
    <path clip-path="url(#p0b23ca65a6)" d="M 298.601818 200.06 
L 300.622182 200.06 
L 300.622182 199.747636 
L 298.601818 199.747636 
z
" style="fill:#1a1a1a;"/>
   </g>
   <g id="patch_139">
    <path clip-path="url(#p0b23ca65a6)" d="M 300.622182 200.06 
L 302.642545 200.06 
L 302.642545 199.759095 
L 300.622182 199.759095 
z
" style="fill:#1a1a1a;"/>
   </g>
   <g id="patch_140">
    <path clip-path="url(#p0b23ca65a6)" d="M 302.642545 200.06 
L 304.662909 200.06 
L 304.662909 199.767289 
L 302.642545 199.767289 
z
" style="fill:#1a1a1a;"/>
   </g>
   <g id="patch_141">
    <path clip-path="url(#p0b23ca65a6)" d="M 304.662909 200.06 
L 306.683273 200.06 
L 306.683273 199.775813 
L 304.662909 199.775813 
z
" style="fill:#1a1a1a;"/>
   </g>
   <g id="patch_142">
    <path clip-path="url(#p0b23ca65a6)" d="M 306.683273 200.06 
L 308.703636 200.06 
L 308.703636 199.784151 
L 306.683273 199.784151 
z
" style="fill:#1a1a1a;"/>
   </g>
   <g id="patch_143">
    <path clip-path="url(#p0b23ca65a6)" d="M 308.703636 200.06 
L 310.724 200.06 
L 310.724 199.789114 
L 308.703636 199.789114 
z
" style="fill:#1a1a1a;"/>
   </g>
   <g id="patch_144">
    <path clip-path="url(#p0b23ca65a6)" d="M 310.724 200.06 
L 312.744364 200.06 
L 312.744364 199.795662 
L 310.724 199.795662 
z
" style="fill:#1a1a1a;"/>
   </g>
   <g id="patch_145">
    <path clip-path="url(#p0b23ca65a6)" d="M 312.744364 200.06 
L 314.764727 200.06 
L 314.764727 199.807434 
L 312.744364 199.807434 
z
" style="fill:#1a1a1a;"/>
   </g>
   <g id="patch_146">
    <path clip-path="url(#p0b23ca65a6)" d="M 314.764727 200.06 
L 316.785091 200.06 
L 316.785091 199.829691 
L 314.764727 199.829691 
z
" style="fill:#1a1a1a;"/>
   </g>
   <g id="patch_147">
    <path clip-path="url(#p0b23ca65a6)" d="M 316.785091 200.06 
L 318.805455 200.06 
L 318.805455 199.835082 
L 316.785091 199.835082 
z
" style="fill:#1a1a1a;"/>
   </g>
   <g id="patch_148">
    <path clip-path="url(#p0b23ca65a6)" d="M 318.805455 200.06 
L 320.825818 200.06 
L 320.825818 199.843869 
L 318.805455 199.843869 
z
" style="fill:#1a1a1a;"/>
   </g>
   <g id="patch_149">
    <path clip-path="url(#p0b23ca65a6)" d="M 320.825818 200.06 
L 322.846182 200.06 
L 322.846182 199.856165 
L 320.825818 199.856165 
z
" style="fill:#1a1a1a;"/>
   </g>
   <g id="patch_150">
    <path clip-path="url(#p0b23ca65a6)" d="M 322.846182 200.06 
L 324.866545 200.06 
L 324.866545 199.858143 
L 322.846182 199.858143 
z
" style="fill:#1a1a1a;"/>
   </g>
   <g id="patch_151">
    <path clip-path="url(#p0b23ca65a6)" d="M 324.866545 200.06 
L 326.886909 200.06 
L 326.886909 199.865677 
L 324.866545 199.865677 
z
" style="fill:#1a1a1a;"/>
   </g>
   <g id="patch_152">
    <path clip-path="url(#p0b23ca65a6)" d="M 326.886909 200.06 
L 328.907273 200.06 
L 328.907273 199.876075 
L 326.886909 199.876075 
z
" style="fill:#1a1a1a;"/>
   </g>
   <g id="matplotlib.axis_1"/>
   <g id="matplotlib.axis_2"/>
   <g id="patch_153">
    <path d="M 10.7 200.06 
L 10.7 10.7 
" style="fill:none;stroke:#000000;stroke-linecap:square;stroke-linejoin:miter;stroke-width:0.8;"/>
   </g>
   <g id="patch_154">
    <path d="M 344.06 200.06 
L 344.06 10.7 
" style="fill:none;stroke:#000000;stroke-linecap:square;stroke-linejoin:miter;stroke-width:0.8;"/>
   </g>
   <g id="patch_155">
    <path d="M 10.7 200.06 
L 344.06 200.06 
" style="fill:none;stroke:#000000;stroke-linecap:square;stroke-linejoin:miter;stroke-width:0.8;"/>
   </g>
   <g id="patch_156">
    <path d="M 10.7 10.7 
L 344.06 10.7 
" style="fill:none;stroke:#000000;stroke-linecap:square;stroke-linejoin:miter;stroke-width:0.8;"/>
   </g>
  </g>
 </g>
 <defs>
  <clipPath id="p0b23ca65a6">
   <rect height="189.36" width="333.36" x="10.7" y="10.7"/>
  </clipPath>
 </defs>
</svg>
