<?xml version="1.0" encoding="utf-8" standalone="no"?>
<!DOCTYPE svg PUBLIC "-//W3C//DTD SVG 1.1//EN"
  "http://www.w3.org/Graphics/SVG/1.1/DTD/svg11.dtd">
<!-- Created with matplotlib (http://matplotlib.org/) -->
<svg height="210pt" version="1.1" viewBox="0 0 354 210" width="354pt" xmlns="http://www.w3.org/2000/svg" xmlns:xlink="http://www.w3.org/1999/xlink">
 <defs>
  <style type="text/css">
*{stroke-linecap:butt;stroke-linejoin:round;}
  </style>
 </defs>
 <g id="figure_1">
  <g id="patch_1">
   <path d="M 0 210.76 
L 354.76 210.76 
L 354.76 0 
L 0 0 
z
" style="fill:#ffffff;"/>
  </g>
  <g id="axes_1">
   <g id="patch_2">
    <path d="M 10.7 200.06 
L 344.06 200.06 
L 344.06 10.7 
L 10.7 10.7 
z
" style="fill:#ffffff;"/>
   </g>
   <g id="patch_3">
    <path clip-path="url(#pdd402f7710)" d="M 25.852727 200.06 
L 27.873091 200.06 
L 27.873091 199.921305 
L 25.852727 199.921305 
z
" style="fill:#1a1a1a;"/>
   </g>
   <g id="patch_4">
    <path clip-path="url(#pdd402f7710)" d="M 27.873091 200.06 
L 29.893455 200.06 
L 29.893455 199.920518 
L 27.873091 199.920518 
z
" style="fill:#1a1a1a;"/>
   </g>
   <g id="patch_5">
    <path clip-path="url(#pdd402f7710)" d="M 29.893455 200.06 
L 31.913818 200.06 
L 31.913818 199.916992 
L 29.893455 199.916992 
z
" style="fill:#1a1a1a;"/>
   </g>
   <g id="patch_6">
    <path clip-path="url(#pdd402f7710)" d="M 31.913818 200.06 
L 33.934182 200.06 
L 33.934182 199.916727 
L 31.913818 199.916727 
z
" style="fill:#1a1a1a;"/>
   </g>
   <g id="patch_7">
    <path clip-path="url(#pdd402f7710)" d="M 33.934182 200.06 
L 35.954545 200.06 
L 35.954545 199.911205 
L 33.934182 199.911205 
z
" style="fill:#1a1a1a;"/>
   </g>
   <g id="patch_8">
    <path clip-path="url(#pdd402f7710)" d="M 35.954545 200.06 
L 37.974909 200.06 
L 37.974909 199.910591 
L 35.954545 199.910591 
z
" style="fill:#1a1a1a;"/>
   </g>
   <g id="patch_9">
    <path clip-path="url(#pdd402f7710)" d="M 37.974909 200.06 
L 39.995273 200.06 
L 39.995273 199.905219 
L 37.974909 199.905219 
z
" style="fill:#1a1a1a;"/>
   </g>
   <g id="patch_10">
    <path clip-path="url(#pdd402f7710)" d="M 39.995273 200.06 
L 42.015636 200.06 
L 42.015636 199.895534 
L 39.995273 199.895534 
z
" style="fill:#1a1a1a;"/>
   </g>
   <g id="patch_11">
    <path clip-path="url(#pdd402f7710)" d="M 42.015636 200.06 
L 44.036 200.06 
L 44.036 199.892866 
L 42.015636 199.892866 
z
" style="fill:#1a1a1a;"/>
   </g>
   <g id="patch_12">
    <path clip-path="url(#pdd402f7710)" d="M 44.036 200.06 
L 46.056364 200.06 
L 46.056364 199.87596 
L 44.036 199.87596 
z
" style="fill:#1a1a1a;"/>
   </g>
   <g id="patch_13">
    <path clip-path="url(#pdd402f7710)" d="M 46.056364 200.06 
L 48.076727 200.06 
L 48.076727 199.875233 
L 46.056364 199.875233 
z
" style="fill:#1a1a1a;"/>
   </g>
   <g id="patch_14">
    <path clip-path="url(#pdd402f7710)" d="M 48.076727 200.06 
L 50.097091 200.06 
L 50.097091 199.864063 
L 48.076727 199.864063 
z
" style="fill:#1a1a1a;"/>
   </g>
   <g id="patch_15">
    <path clip-path="url(#pdd402f7710)" d="M 50.097091 200.06 
L 52.117455 200.06 
L 52.117455 199.855005 
L 50.097091 199.855005 
z
" style="fill:#1a1a1a;"/>
   </g>
   <g id="patch_16">
    <path clip-path="url(#pdd402f7710)" d="M 52.117455 200.06 
L 54.137818 200.06 
L 54.137818 199.852463 
L 52.117455 199.852463 
z
" style="fill:#1a1a1a;"/>
   </g>
   <g id="patch_17">
    <path clip-path="url(#pdd402f7710)" d="M 54.137818 200.06 
L 56.158182 200.06 
L 56.158182 199.842613 
L 54.137818 199.842613 
z
" style="fill:#1a1a1a;"/>
   </g>
   <g id="patch_18">
    <path clip-path="url(#pdd402f7710)" d="M 56.158182 200.06 
L 58.178545 200.06 
L 58.178545 199.840649 
L 56.158182 199.840649 
z
" style="fill:#1a1a1a;"/>
   </g>
   <g id="patch_19">
    <path clip-path="url(#pdd402f7710)" d="M 58.178545 200.06 
L 60.198909 200.06 
L 60.198909 199.837186 
L 58.178545 199.837186 
z
" style="fill:#1a1a1a;"/>
   </g>
   <g id="patch_20">
    <path clip-path="url(#pdd402f7710)" d="M 60.198909 200.06 
L 62.219273 200.06 
L 62.219273 199.824781 
L 60.198909 199.824781 
z
" style="fill:#1a1a1a;"/>
   </g>
   <g id="patch_21">
    <path clip-path="url(#pdd402f7710)" d="M 62.219273 200.06 
L 64.239636 200.06 
L 64.239636 199.81426 
L 62.219273 199.81426 
z
" style="fill:#1a1a1a;"/>
   </g>
   <g id="patch_22">
    <path clip-path="url(#pdd402f7710)" d="M 64.239636 200.06 
L 66.26 200.06 
L 66.26 199.797502 
L 64.239636 199.797502 
z
" style="fill:#1a1a1a;"/>
   </g>
   <g id="patch_23">
    <path clip-path="url(#pdd402f7710)" d="M 66.26 200.06 
L 68.280364 200.06 
L 68.280364 199.793138 
L 66.26 199.793138 
z
" style="fill:#1a1a1a;"/>
   </g>
   <g id="patch_24">
    <path clip-path="url(#pdd402f7710)" d="M 68.280364 200.06 
L 70.300727 200.06 
L 70.300727 199.784338 
L 68.280364 199.784338 
z
" style="fill:#1a1a1a;"/>
   </g>
   <g id="patch_25">
    <path clip-path="url(#pdd402f7710)" d="M 70.300727 200.06 
L 72.321091 200.06 
L 72.321091 199.763709 
L 70.300727 199.763709 
z
" style="fill:#1a1a1a;"/>
   </g>
   <g id="patch_26">
    <path clip-path="url(#pdd402f7710)" d="M 72.321091 200.06 
L 74.341455 200.06 
L 74.341455 199.762423 
L 72.321091 199.762423 
z
" style="fill:#1a1a1a;"/>
   </g>
   <g id="patch_27">
    <path clip-path="url(#pdd402f7710)" d="M 74.341455 200.06 
L 76.361818 200.06 
L 76.361818 199.757007 
L 74.341455 199.757007 
z
" style="fill:#1a1a1a;"/>
   </g>
   <g id="patch_28">
    <path clip-path="url(#pdd402f7710)" d="M 76.361818 200.06 
L 78.382182 200.06 
L 78.382182 199.738871 
L 76.361818 199.738871 
z
" style="fill:#1a1a1a;"/>
   </g>
   <g id="patch_29">
    <path clip-path="url(#pdd402f7710)" d="M 78.382182 200.06 
L 80.402545 200.06 
L 80.402545 199.734705 
L 78.382182 199.734705 
z
" style="fill:#1a1a1a;"/>
   </g>
   <g id="patch_30">
    <path clip-path="url(#pdd402f7710)" d="M 80.402545 200.06 
L 82.422909 200.06 
L 82.422909 199.721713 
L 80.402545 199.721713 
z
" style="fill:#1a1a1a;"/>
   </g>
   <g id="patch_31">
    <path clip-path="url(#pdd402f7710)" d="M 82.422909 200.06 
L 84.443273 200.06 
L 84.443273 199.714999 
L 82.422909 199.714999 
z
" style="fill:#1a1a1a;"/>
   </g>
   <g id="patch_32">
    <path clip-path="url(#pdd402f7710)" d="M 84.443273 200.06 
L 86.463636 200.06 
L 86.463636 199.687804 
L 84.443273 199.687804 
z
" style="fill:#1a1a1a;"/>
   </g>
   <g id="patch_33">
    <path clip-path="url(#pdd402f7710)" d="M 86.463636 200.06 
L 88.484 200.06 
L 88.484 199.65092 
L 86.463636 199.65092 
z
" style="fill:#1a1a1a;"/>
   </g>
   <g id="patch_34">
    <path clip-path="url(#pdd402f7710)" d="M 88.484 200.06 
L 90.504364 200.06 
L 90.504364 199.607052 
L 88.484 199.607052 
z
" style="fill:#1a1a1a;"/>
   </g>
   <g id="patch_35">
    <path clip-path="url(#pdd402f7710)" d="M 90.504364 200.06 
L 92.524727 200.06 
L 92.524727 199.598127 
L 90.504364 199.598127 
z
" style="fill:#1a1a1a;"/>
   </g>
   <g id="patch_36">
    <path clip-path="url(#pdd402f7710)" d="M 92.524727 200.06 
L 94.545091 200.06 
L 94.545091 199.591508 
L 92.524727 199.591508 
z
" style="fill:#1a1a1a;"/>
   </g>
   <g id="patch_37">
    <path clip-path="url(#pdd402f7710)" d="M 94.545091 200.06 
L 96.565455 200.06 
L 96.565455 199.571198 
L 94.545091 199.571198 
z
" style="fill:#1a1a1a;"/>
   </g>
   <g id="patch_38">
    <path clip-path="url(#pdd402f7710)" d="M 96.565455 200.06 
L 98.585818 200.06 
L 98.585818 199.556136 
L 96.565455 199.556136 
z
" style="fill:#1a1a1a;"/>
   </g>
   <g id="patch_39">
    <path clip-path="url(#pdd402f7710)" d="M 98.585818 200.06 
L 100.606182 200.06 
L 100.606182 199.533354 
L 98.585818 199.533354 
z
" style="fill:#1a1a1a;"/>
   </g>
   <g id="patch_40">
    <path clip-path="url(#pdd402f7710)" d="M 100.606182 200.06 
L 102.626545 200.06 
L 102.626545 199.508539 
L 100.606182 199.508539 
z
" style="fill:#1a1a1a;"/>
   </g>
   <g id="patch_41">
    <path clip-path="url(#pdd402f7710)" d="M 102.626545 200.06 
L 104.646909 200.06 
L 104.646909 199.452206 
L 102.626545 199.452206 
z
" style="fill:#1a1a1a;"/>
   </g>
   <g id="patch_42">
    <path clip-path="url(#pdd402f7710)" d="M 104.646909 200.06 
L 106.667273 200.06 
L 106.667273 199.42166 
L 104.646909 199.42166 
z
" style="fill:#1a1a1a;"/>
   </g>
   <g id="patch_43">
    <path clip-path="url(#pdd402f7710)" d="M 106.667273 200.06 
L 108.687636 200.06 
L 108.687636 199.387335 
L 106.667273 199.387335 
z
" style="fill:#1a1a1a;"/>
   </g>
   <g id="patch_44">
    <path clip-path="url(#pdd402f7710)" d="M 108.687636 200.06 
L 110.708 200.06 
L 110.708 199.369754 
L 108.687636 199.369754 
z
" style="fill:#1a1a1a;"/>
   </g>
   <g id="patch_45">
    <path clip-path="url(#pdd402f7710)" d="M 110.708 200.06 
L 112.728364 200.06 
L 112.728364 199.34905 
L 110.708 199.34905 
z
" style="fill:#1a1a1a;"/>
   </g>
   <g id="patch_46">
    <path clip-path="url(#pdd402f7710)" d="M 112.728364 200.06 
L 114.748727 200.06 
L 114.748727 199.291334 
L 112.728364 199.291334 
z
" style="fill:#1a1a1a;"/>
   </g>
   <g id="patch_47">
    <path clip-path="url(#pdd402f7710)" d="M 114.748727 200.06 
L 116.769091 200.06 
L 116.769091 199.25302 
L 114.748727 199.25302 
z
" style="fill:#1a1a1a;"/>
   </g>
   <g id="patch_48">
    <path clip-path="url(#pdd402f7710)" d="M 116.769091 200.06 
L 118.789455 200.06 
L 118.789455 199.229593 
L 116.769091 199.229593 
z
" style="fill:#1a1a1a;"/>
   </g>
   <g id="patch_49">
    <path clip-path="url(#pdd402f7710)" d="M 118.789455 200.06 
L 120.809818 200.06 
L 120.809818 199.159112 
L 118.789455 199.159112 
z
" style="fill:#1a1a1a;"/>
   </g>
   <g id="patch_50">
    <path clip-path="url(#pdd402f7710)" d="M 120.809818 200.06 
L 122.830182 200.06 
L 122.830182 199.11166 
L 120.809818 199.11166 
z
" style="fill:#1a1a1a;"/>
   </g>
   <g id="patch_51">
    <path clip-path="url(#pdd402f7710)" d="M 122.830182 200.06 
L 124.850545 200.06 
L 124.850545 199.004115 
L 122.830182 199.004115 
z
" style="fill:#1a1a1a;"/>
   </g>
   <g id="patch_52">
    <path clip-path="url(#pdd402f7710)" d="M 124.850545 200.06 
L 126.870909 200.06 
L 126.870909 198.951468 
L 124.850545 198.951468 
z
" style="fill:#1a1a1a;"/>
   </g>
   <g id="patch_53">
    <path clip-path="url(#pdd402f7710)" d="M 126.870909 200.06 
L 128.891273 200.06 
L 128.891273 198.930588 
L 126.870909 198.930588 
z
" style="fill:#1a1a1a;"/>
   </g>
   <g id="patch_54">
    <path clip-path="url(#pdd402f7710)" d="M 128.891273 200.06 
L 130.911636 200.06 
L 130.911636 198.668566 
L 128.891273 198.668566 
z
" style="fill:#1a1a1a;"/>
   </g>
   <g id="patch_55">
    <path clip-path="url(#pdd402f7710)" d="M 130.911636 200.06 
L 132.932 200.06 
L 132.932 198.557115 
L 130.911636 198.557115 
z
" style="fill:#1a1a1a;"/>
   </g>
   <g id="patch_56">
    <path clip-path="url(#pdd402f7710)" d="M 132.932 200.06 
L 134.952364 200.06 
L 134.952364 198.040597 
L 132.932 198.040597 
z
" style="fill:#1a1a1a;"/>
   </g>
   <g id="patch_57">
    <path clip-path="url(#pdd402f7710)" d="M 134.952364 200.06 
L 136.972727 200.06 
L 136.972727 197.772652 
L 134.952364 197.772652 
z
" style="fill:#1a1a1a;"/>
   </g>
   <g id="patch_58">
    <path clip-path="url(#pdd402f7710)" d="M 136.972727 200.06 
L 138.993091 200.06 
L 138.993091 197.356123 
L 136.972727 197.356123 
z
" style="fill:#1a1a1a;"/>
   </g>
   <g id="patch_59">
    <path clip-path="url(#pdd402f7710)" d="M 138.993091 200.06 
L 141.013455 200.06 
L 141.013455 196.790059 
L 138.993091 196.790059 
z
" style="fill:#1a1a1a;"/>
   </g>
   <g id="patch_60">
    <path clip-path="url(#pdd402f7710)" d="M 141.013455 200.06 
L 143.033818 200.06 
L 143.033818 196.441279 
L 141.013455 196.441279 
z
" style="fill:#1a1a1a;"/>
   </g>
   <g id="patch_61">
    <path clip-path="url(#pdd402f7710)" d="M 143.033818 200.06 
L 145.054182 200.06 
L 145.054182 196.378787 
L 143.033818 196.378787 
z
" style="fill:#1a1a1a;"/>
   </g>
   <g id="patch_62">
    <path clip-path="url(#pdd402f7710)" d="M 145.054182 200.06 
L 147.074545 200.06 
L 147.074545 194.651586 
L 145.054182 194.651586 
z
" style="fill:#1a1a1a;"/>
   </g>
   <g id="patch_63">
    <path clip-path="url(#pdd402f7710)" d="M 147.074545 200.06 
L 149.094909 200.06 
L 149.094909 194.428803 
L 147.074545 194.428803 
z
" style="fill:#1a1a1a;"/>
   </g>
   <g id="patch_64">
    <path clip-path="url(#pdd402f7710)" d="M 149.094909 200.06 
L 151.115273 200.06 
L 151.115273 192.053986 
L 149.094909 192.053986 
z
" style="fill:#1a1a1a;"/>
   </g>
   <g id="patch_65">
    <path clip-path="url(#pdd402f7710)" d="M 151.115273 200.06 
L 153.135636 200.06 
L 153.135636 190.623222 
L 151.115273 190.623222 
z
" style="fill:#1a1a1a;"/>
   </g>
   <g id="patch_66">
    <path clip-path="url(#pdd402f7710)" d="M 153.135636 200.06 
L 155.156 200.06 
L 155.156 189.763452 
L 153.135636 189.763452 
z
" style="fill:#1a1a1a;"/>
   </g>
   <g id="patch_67">
    <path clip-path="url(#pdd402f7710)" d="M 155.156 200.06 
L 157.176364 200.06 
L 157.176364 188.982171 
L 155.156 188.982171 
z
" style="fill:#1a1a1a;"/>
   </g>
   <g id="patch_68">
    <path clip-path="url(#pdd402f7710)" d="M 157.176364 200.06 
L 159.196727 200.06 
L 159.196727 185.003018 
L 157.176364 185.003018 
z
" style="fill:#1a1a1a;"/>
   </g>
   <g id="patch_69">
    <path clip-path="url(#pdd402f7710)" d="M 159.196727 200.06 
L 161.217091 200.06 
L 161.217091 182.021539 
L 159.196727 182.021539 
z
" style="fill:#1a1a1a;"/>
   </g>
   <g id="patch_70">
    <path clip-path="url(#pdd402f7710)" d="M 161.217091 200.06 
L 163.237455 200.06 
L 163.237455 179.931496 
L 161.217091 179.931496 
z
" style="fill:#1a1a1a;"/>
   </g>
   <g id="patch_71">
    <path clip-path="url(#pdd402f7710)" d="M 163.237455 200.06 
L 165.257818 200.06 
L 165.257818 176.378241 
L 163.237455 176.378241 
z
" style="fill:#1a1a1a;"/>
   </g>
   <g id="patch_72">
    <path clip-path="url(#pdd402f7710)" d="M 165.257818 200.06 
L 167.278182 200.06 
L 167.278182 173.66227 
L 165.257818 173.66227 
z
" style="fill:#1a1a1a;"/>
   </g>
   <g id="patch_73">
    <path clip-path="url(#pdd402f7710)" d="M 167.278182 200.06 
L 169.298545 200.06 
L 169.298545 169.745906 
L 167.278182 169.745906 
z
" style="fill:#1a1a1a;"/>
   </g>
   <g id="patch_74">
    <path clip-path="url(#pdd402f7710)" d="M 169.298545 200.06 
L 171.318909 200.06 
L 171.318909 166.355326 
L 169.298545 166.355326 
z
" style="fill:#1a1a1a;"/>
   </g>
   <g id="patch_75">
    <path clip-path="url(#pdd402f7710)" d="M 171.318909 200.06 
L 173.339273 200.06 
L 173.339273 163.684062 
L 171.318909 163.684062 
z
" style="fill:#1a1a1a;"/>
   </g>
   <g id="patch_76">
    <path clip-path="url(#pdd402f7710)" d="M 173.339273 200.06 
L 175.359636 200.06 
L 175.359636 150.13797 
L 173.339273 150.13797 
z
" style="fill:#1a1a1a;"/>
   </g>
   <g id="patch_77">
    <path clip-path="url(#pdd402f7710)" d="M 175.359636 200.06 
L 177.38 200.06 
L 177.38 131.073717 
L 175.359636 131.073717 
z
" style="fill:#1a1a1a;"/>
   </g>
   <g id="patch_78">
    <path clip-path="url(#pdd402f7710)" d="M 177.38 200.06 
L 179.400364 200.06 
L 179.400364 131.070429 
L 177.38 131.070429 
z
" style="fill:#1a1a1a;"/>
   </g>
   <g id="patch_79">
    <path clip-path="url(#pdd402f7710)" d="M 179.400364 200.06 
L 181.420727 200.06 
L 181.420727 133.836364 
L 179.400364 133.836364 
z
" style="fill:#1a1a1a;"/>
   </g>
   <g id="patch_80">
    <path clip-path="url(#pdd402f7710)" d="M 181.420727 200.06 
L 183.441091 200.06 
L 183.441091 155.005719 
L 181.420727 155.005719 
z
" style="fill:#1a1a1a;"/>
   </g>
   <g id="patch_81">
    <path clip-path="url(#pdd402f7710)" d="M 183.441091 200.06 
L 185.461455 200.06 
L 185.461455 164.015974 
L 183.441091 164.015974 
z
" style="fill:#1a1a1a;"/>
   </g>
   <g id="patch_82">
    <path clip-path="url(#pdd402f7710)" d="M 185.461455 200.06 
L 187.481818 200.06 
L 187.481818 168.85577 
L 185.461455 168.85577 
z
" style="fill:#1a1a1a;"/>
   </g>
   <g id="patch_83">
    <path clip-path="url(#pdd402f7710)" d="M 187.481818 200.06 
L 189.502182 200.06 
L 189.502182 173.447981 
L 187.481818 173.447981 
z
" style="fill:#1a1a1a;"/>
   </g>
   <g id="patch_84">
    <path clip-path="url(#pdd402f7710)" d="M 189.502182 200.06 
L 191.522545 200.06 
L 191.522545 173.803962 
L 189.502182 173.803962 
z
" style="fill:#1a1a1a;"/>
   </g>
   <g id="patch_85">
    <path clip-path="url(#pdd402f7710)" d="M 191.522545 200.06 
L 193.542909 200.06 
L 193.542909 177.89146 
L 191.522545 177.89146 
z
" style="fill:#1a1a1a;"/>
   </g>
   <g id="patch_86">
    <path clip-path="url(#pdd402f7710)" d="M 193.542909 200.06 
L 195.563273 200.06 
L 195.563273 180.854285 
L 193.542909 180.854285 
z
" style="fill:#1a1a1a;"/>
   </g>
   <g id="patch_87">
    <path clip-path="url(#pdd402f7710)" d="M 195.563273 200.06 
L 197.583636 200.06 
L 197.583636 183.802524 
L 195.563273 183.802524 
z
" style="fill:#1a1a1a;"/>
   </g>
   <g id="patch_88">
    <path clip-path="url(#pdd402f7710)" d="M 197.583636 200.06 
L 199.604 200.06 
L 199.604 186.67071 
L 197.583636 186.67071 
z
" style="fill:#1a1a1a;"/>
   </g>
   <g id="patch_89">
    <path clip-path="url(#pdd402f7710)" d="M 199.604 200.06 
L 201.624364 200.06 
L 201.624364 189.080536 
L 199.604 189.080536 
z
" style="fill:#1a1a1a;"/>
   </g>
   <g id="patch_90">
    <path clip-path="url(#pdd402f7710)" d="M 201.624364 200.06 
L 203.644727 200.06 
L 203.644727 190.128922 
L 201.624364 190.128922 
z
" style="fill:#1a1a1a;"/>
   </g>
   <g id="patch_91">
    <path clip-path="url(#pdd402f7710)" d="M 203.644727 200.06 
L 205.665091 200.06 
L 205.665091 191.793918 
L 203.644727 191.793918 
z
" style="fill:#1a1a1a;"/>
   </g>
   <g id="patch_92">
    <path clip-path="url(#pdd402f7710)" d="M 205.665091 200.06 
L 207.685455 200.06 
L 207.685455 193.508492 
L 205.665091 193.508492 
z
" style="fill:#1a1a1a;"/>
   </g>
   <g id="patch_93">
    <path clip-path="url(#pdd402f7710)" d="M 207.685455 200.06 
L 209.705818 200.06 
L 209.705818 194.537772 
L 207.685455 194.537772 
z
" style="fill:#1a1a1a;"/>
   </g>
   <g id="patch_94">
    <path clip-path="url(#pdd402f7710)" d="M 209.705818 200.06 
L 211.726182 200.06 
L 211.726182 196.103817 
L 209.705818 196.103817 
z
" style="fill:#1a1a1a;"/>
   </g>
   <g id="patch_95">
    <path clip-path="url(#pdd402f7710)" d="M 211.726182 200.06 
L 213.746545 200.06 
L 213.746545 196.381637 
L 211.726182 196.381637 
z
" style="fill:#1a1a1a;"/>
   </g>
   <g id="patch_96">
    <path clip-path="url(#pdd402f7710)" d="M 213.746545 200.06 
L 215.766909 200.06 
L 215.766909 196.597935 
L 213.746545 196.597935 
z
" style="fill:#1a1a1a;"/>
   </g>
   <g id="patch_97">
    <path clip-path="url(#pdd402f7710)" d="M 215.766909 200.06 
L 217.787273 200.06 
L 217.787273 196.828937 
L 215.766909 196.828937 
z
" style="fill:#1a1a1a;"/>
   </g>
   <g id="patch_98">
    <path clip-path="url(#pdd402f7710)" d="M 217.787273 200.06 
L 219.807636 200.06 
L 219.807636 197.70701 
L 217.787273 197.70701 
z
" style="fill:#1a1a1a;"/>
   </g>
   <g id="patch_99">
    <path clip-path="url(#pdd402f7710)" d="M 219.807636 200.06 
L 221.828 200.06 
L 221.828 197.813824 
L 219.807636 197.813824 
z
" style="fill:#1a1a1a;"/>
   </g>
   <g id="patch_100">
    <path clip-path="url(#pdd402f7710)" d="M 221.828 200.06 
L 223.848364 200.06 
L 223.848364 198.187204 
L 221.828 198.187204 
z
" style="fill:#1a1a1a;"/>
   </g>
   <g id="patch_101">
    <path clip-path="url(#pdd402f7710)" d="M 223.848364 200.06 
L 225.868727 200.06 
L 225.868727 198.623912 
L 223.848364 198.623912 
z
" style="fill:#1a1a1a;"/>
   </g>
   <g id="patch_102">
    <path clip-path="url(#pdd402f7710)" d="M 225.868727 200.06 
L 227.889091 200.06 
L 227.889091 198.760778 
L 225.868727 198.760778 
z
" style="fill:#1a1a1a;"/>
   </g>
   <g id="patch_103">
    <path clip-path="url(#pdd402f7710)" d="M 227.889091 200.06 
L 229.909455 200.06 
L 229.909455 198.941142 
L 227.889091 198.941142 
z
" style="fill:#1a1a1a;"/>
   </g>
   <g id="patch_104">
    <path clip-path="url(#pdd402f7710)" d="M 229.909455 200.06 
L 231.929818 200.06 
L 231.929818 198.99237 
L 229.909455 198.99237 
z
" style="fill:#1a1a1a;"/>
   </g>
   <g id="patch_105">
    <path clip-path="url(#pdd402f7710)" d="M 231.929818 200.06 
L 233.950182 200.06 
L 233.950182 199.083403 
L 231.929818 199.083403 
z
" style="fill:#1a1a1a;"/>
   </g>
   <g id="patch_106">
    <path clip-path="url(#pdd402f7710)" d="M 233.950182 200.06 
L 235.970545 200.06 
L 235.970545 199.149219 
L 233.950182 199.149219 
z
" style="fill:#1a1a1a;"/>
   </g>
   <g id="patch_107">
    <path clip-path="url(#pdd402f7710)" d="M 235.970545 200.06 
L 237.990909 200.06 
L 237.990909 199.224847 
L 235.970545 199.224847 
z
" style="fill:#1a1a1a;"/>
   </g>
   <g id="patch_108">
    <path clip-path="url(#pdd402f7710)" d="M 237.990909 200.06 
L 240.011273 200.06 
L 240.011273 199.248293 
L 237.990909 199.248293 
z
" style="fill:#1a1a1a;"/>
   </g>
   <g id="patch_109">
    <path clip-path="url(#pdd402f7710)" d="M 240.011273 200.06 
L 242.031636 200.06 
L 242.031636 199.264354 
L 240.011273 199.264354 
z
" style="fill:#1a1a1a;"/>
   </g>
   <g id="patch_110">
    <path clip-path="url(#pdd402f7710)" d="M 242.031636 200.06 
L 244.052 200.06 
L 244.052 199.305805 
L 242.031636 199.305805 
z
" style="fill:#1a1a1a;"/>
   </g>
   <g id="patch_111">
    <path clip-path="url(#pdd402f7710)" d="M 244.052 200.06 
L 246.072364 200.06 
L 246.072364 199.362266 
L 244.052 199.362266 
z
" style="fill:#1a1a1a;"/>
   </g>
   <g id="patch_112">
    <path clip-path="url(#pdd402f7710)" d="M 246.072364 200.06 
L 248.092727 200.06 
L 248.092727 199.383667 
L 246.072364 199.383667 
z
" style="fill:#1a1a1a;"/>
   </g>
   <g id="patch_113">
    <path clip-path="url(#pdd402f7710)" d="M 248.092727 200.06 
L 250.113091 200.06 
L 250.113091 199.394173 
L 248.092727 199.394173 
z
" style="fill:#1a1a1a;"/>
   </g>
   <g id="patch_114">
    <path clip-path="url(#pdd402f7710)" d="M 250.113091 200.06 
L 252.133455 200.06 
L 252.133455 199.451187 
L 250.113091 199.451187 
z
" style="fill:#1a1a1a;"/>
   </g>
   <g id="patch_115">
    <path clip-path="url(#pdd402f7710)" d="M 252.133455 200.06 
L 254.153818 200.06 
L 254.153818 199.482344 
L 252.133455 199.482344 
z
" style="fill:#1a1a1a;"/>
   </g>
   <g id="patch_116">
    <path clip-path="url(#pdd402f7710)" d="M 254.153818 200.06 
L 256.174182 200.06 
L 256.174182 199.51324 
L 254.153818 199.51324 
z
" style="fill:#1a1a1a;"/>
   </g>
   <g id="patch_117">
    <path clip-path="url(#pdd402f7710)" d="M 256.174182 200.06 
L 258.194545 200.06 
L 258.194545 199.539167 
L 256.174182 199.539167 
z
" style="fill:#1a1a1a;"/>
   </g>
   <g id="patch_118">
    <path clip-path="url(#pdd402f7710)" d="M 258.194545 200.06 
L 260.214909 200.06 
L 260.214909 199.564043 
L 258.194545 199.564043 
z
" style="fill:#1a1a1a;"/>
   </g>
   <g id="patch_119">
    <path clip-path="url(#pdd402f7710)" d="M 260.214909 200.06 
L 262.235273 200.06 
L 262.235273 199.58408 
L 260.214909 199.58408 
z
" style="fill:#1a1a1a;"/>
   </g>
   <g id="patch_120">
    <path clip-path="url(#pdd402f7710)" d="M 262.235273 200.06 
L 264.255636 200.06 
L 264.255636 199.591894 
L 262.235273 199.591894 
z
" style="fill:#1a1a1a;"/>
   </g>
   <g id="patch_121">
    <path clip-path="url(#pdd402f7710)" d="M 264.255636 200.06 
L 266.276 200.06 
L 266.276 199.603895 
L 264.255636 199.603895 
z
" style="fill:#1a1a1a;"/>
   </g>
   <g id="patch_122">
    <path clip-path="url(#pdd402f7710)" d="M 266.276 200.06 
L 268.296364 200.06 
L 268.296364 199.62636 
L 266.276 199.62636 
z
" style="fill:#1a1a1a;"/>
   </g>
   <g id="patch_123">
    <path clip-path="url(#pdd402f7710)" d="M 268.296364 200.06 
L 270.316727 200.06 
L 270.316727 199.654846 
L 268.296364 199.654846 
z
" style="fill:#1a1a1a;"/>
   </g>
   <g id="patch_124">
    <path clip-path="url(#pdd402f7710)" d="M 270.316727 200.06 
L 272.337091 200.06 
L 272.337091 199.692665 
L 270.316727 199.692665 
z
" style="fill:#1a1a1a;"/>
   </g>
   <g id="patch_125">
    <path clip-path="url(#pdd402f7710)" d="M 272.337091 200.06 
L 274.357455 200.06 
L 274.357455 199.716041 
L 272.337091 199.716041 
z
" style="fill:#1a1a1a;"/>
   </g>
   <g id="patch_126">
    <path clip-path="url(#pdd402f7710)" d="M 274.357455 200.06 
L 276.377818 200.06 
L 276.377818 199.728734 
L 274.357455 199.728734 
z
" style="fill:#1a1a1a;"/>
   </g>
   <g id="patch_127">
    <path clip-path="url(#pdd402f7710)" d="M 276.377818 200.06 
L 278.398182 200.06 
L 278.398182 199.738274 
L 276.377818 199.738274 
z
" style="fill:#1a1a1a;"/>
   </g>
   <g id="patch_128">
    <path clip-path="url(#pdd402f7710)" d="M 278.398182 200.06 
L 280.418545 200.06 
L 280.418545 199.745612 
L 278.398182 199.745612 
z
" style="fill:#1a1a1a;"/>
   </g>
   <g id="patch_129">
    <path clip-path="url(#pdd402f7710)" d="M 280.418545 200.06 
L 282.438909 200.06 
L 282.438909 199.761025 
L 280.418545 199.761025 
z
" style="fill:#1a1a1a;"/>
   </g>
   <g id="patch_130">
    <path clip-path="url(#pdd402f7710)" d="M 282.438909 200.06 
L 284.459273 200.06 
L 284.459273 199.762463 
L 282.438909 199.762463 
z
" style="fill:#1a1a1a;"/>
   </g>
   <g id="patch_131">
    <path clip-path="url(#pdd402f7710)" d="M 284.459273 200.06 
L 286.479636 200.06 
L 286.479636 199.782787 
L 284.459273 199.782787 
z
" style="fill:#1a1a1a;"/>
   </g>
   <g id="patch_132">
    <path clip-path="url(#pdd402f7710)" d="M 286.479636 200.06 
L 288.5 200.06 
L 288.5 199.79024 
L 286.479636 199.79024 
z
" style="fill:#1a1a1a;"/>
   </g>
   <g id="patch_133">
    <path clip-path="url(#pdd402f7710)" d="M 288.5 200.06 
L 290.520364 200.06 
L 290.520364 199.793843 
L 288.5 199.793843 
z
" style="fill:#1a1a1a;"/>
   </g>
   <g id="patch_134">
    <path clip-path="url(#pdd402f7710)" d="M 290.520364 200.06 
L 292.540727 200.06 
L 292.540727 199.798308 
L 290.520364 199.798308 
z
" style="fill:#1a1a1a;"/>
   </g>
   <g id="patch_135">
    <path clip-path="url(#pdd402f7710)" d="M 292.540727 200.06 
L 294.561091 200.06 
L 294.561091 199.824389 
L 292.540727 199.824389 
z
" style="fill:#1a1a1a;"/>
   </g>
   <g id="patch_136">
    <path clip-path="url(#pdd402f7710)" d="M 294.561091 200.06 
L 296.581455 200.06 
L 296.581455 199.835822 
L 294.561091 199.835822 
z
" style="fill:#1a1a1a;"/>
   </g>
   <g id="patch_137">
    <path clip-path="url(#pdd402f7710)" d="M 296.581455 200.06 
L 298.601818 200.06 
L 298.601818 199.837675 
L 296.581455 199.837675 
z
" style="fill:#1a1a1a;"/>
   </g>
   <g id="patch_138">
    <path clip-path="url(#pdd402f7710)" d="M 298.601818 200.06 
L 300.622182 200.06 
L 300.622182 199.842226 
L 298.601818 199.842226 
z
" style="fill:#1a1a1a;"/>
   </g>
   <g id="patch_139">
    <path clip-path="url(#pdd402f7710)" d="M 300.622182 200.06 
L 302.642545 200.06 
L 302.642545 199.842629 
L 300.622182 199.842629 
z
" style="fill:#1a1a1a;"/>
   </g>
   <g id="patch_140">
    <path clip-path="url(#pdd402f7710)" d="M 302.642545 200.06 
L 304.662909 200.06 
L 304.662909 199.853038 
L 302.642545 199.853038 
z
" style="fill:#1a1a1a;"/>
   </g>
   <g id="patch_141">
    <path clip-path="url(#pdd402f7710)" d="M 304.662909 200.06 
L 306.683273 200.06 
L 306.683273 199.858883 
L 304.662909 199.858883 
z
" style="fill:#1a1a1a;"/>
   </g>
   <g id="patch_142">
    <path clip-path="url(#pdd402f7710)" d="M 306.683273 200.06 
L 308.703636 200.06 
L 308.703636 199.865724 
L 306.683273 199.865724 
z
" style="fill:#1a1a1a;"/>
   </g>
   <g id="patch_143">
    <path clip-path="url(#pdd402f7710)" d="M 308.703636 200.06 
L 310.724 200.06 
L 310.724 199.87548 
L 308.703636 199.87548 
z
" style="fill:#1a1a1a;"/>
   </g>
   <g id="patch_144">
    <path clip-path="url(#pdd402f7710)" d="M 310.724 200.06 
L 312.744364 200.06 
L 312.744364 199.876917 
L 310.724 199.876917 
z
" style="fill:#1a1a1a;"/>
   </g>
   <g id="patch_145">
    <path clip-path="url(#pdd402f7710)" d="M 312.744364 200.06 
L 314.764727 200.06 
L 314.764727 199.893203 
L 312.744364 199.893203 
z
" style="fill:#1a1a1a;"/>
   </g>
   <g id="patch_146">
    <path clip-path="url(#pdd402f7710)" d="M 314.764727 200.06 
L 316.785091 200.06 
L 316.785091 199.89805 
L 314.764727 199.89805 
z
" style="fill:#1a1a1a;"/>
   </g>
   <g id="patch_147">
    <path clip-path="url(#pdd402f7710)" d="M 316.785091 200.06 
L 318.805455 200.06 
L 318.805455 199.906727 
L 316.785091 199.906727 
z
" style="fill:#1a1a1a;"/>
   </g>
   <g id="patch_148">
    <path clip-path="url(#pdd402f7710)" d="M 318.805455 200.06 
L 320.825818 200.06 
L 320.825818 199.910772 
L 318.805455 199.910772 
z
" style="fill:#1a1a1a;"/>
   </g>
   <g id="patch_149">
    <path clip-path="url(#pdd402f7710)" d="M 320.825818 200.06 
L 322.846182 200.06 
L 322.846182 199.913727 
L 320.825818 199.913727 
z
" style="fill:#1a1a1a;"/>
   </g>
   <g id="patch_150">
    <path clip-path="url(#pdd402f7710)" d="M 322.846182 200.06 
L 324.866545 200.06 
L 324.866545 199.916838 
L 322.846182 199.916838 
z
" style="fill:#1a1a1a;"/>
   </g>
   <g id="patch_151">
    <path clip-path="url(#pdd402f7710)" d="M 324.866545 200.06 
L 326.886909 200.06 
L 326.886909 199.918624 
L 324.866545 199.918624 
z
" style="fill:#1a1a1a;"/>
   </g>
   <g id="patch_152">
    <path clip-path="url(#pdd402f7710)" d="M 326.886909 200.06 
L 328.907273 200.06 
L 328.907273 199.921182 
L 326.886909 199.921182 
z
" style="fill:#1a1a1a;"/>
   </g>
   <g id="matplotlib.axis_1"/>
   <g id="matplotlib.axis_2"/>
   <g id="patch_153">
    <path d="M 10.7 200.06 
L 10.7 10.7 
" style="fill:none;stroke:#000000;stroke-linecap:square;stroke-linejoin:miter;stroke-width:0.8;"/>
   </g>
   <g id="patch_154">
    <path d="M 344.06 200.06 
L 344.06 10.7 
" style="fill:none;stroke:#000000;stroke-linecap:square;stroke-linejoin:miter;stroke-width:0.8;"/>
   </g>
   <g id="patch_155">
    <path d="M 10.7 200.06 
L 344.06 200.06 
" style="fill:none;stroke:#000000;stroke-linecap:square;stroke-linejoin:miter;stroke-width:0.8;"/>
   </g>
   <g id="patch_156">
    <path d="M 10.7 10.7 
L 344.06 10.7 
" style="fill:none;stroke:#000000;stroke-linecap:square;stroke-linejoin:miter;stroke-width:0.8;"/>
   </g>
  </g>
 </g>
 <defs>
  <clipPath id="pdd402f7710">
   <rect height="189.36" width="333.36" x="10.7" y="10.7"/>
  </clipPath>
 </defs>
</svg>
