<?xml version="1.0" encoding="utf-8" standalone="no"?>
<!DOCTYPE svg PUBLIC "-//W3C//DTD SVG 1.1//EN"
  "http://www.w3.org/Graphics/SVG/1.1/DTD/svg11.dtd">
<!-- Created with matplotlib (http://matplotlib.org/) -->
<svg height="210pt" version="1.1" viewBox="0 0 354 210" width="354pt" xmlns="http://www.w3.org/2000/svg" xmlns:xlink="http://www.w3.org/1999/xlink">
 <defs>
  <style type="text/css">
*{stroke-linecap:butt;stroke-linejoin:round;}
  </style>
 </defs>
 <g id="figure_1">
  <g id="patch_1">
   <path d="M 0 210.76 
L 354.76 210.76 
L 354.76 0 
L 0 0 
z
" style="fill:#ffffff;"/>
  </g>
  <g id="axes_1">
   <g id="patch_2">
    <path d="M 10.7 200.06 
L 344.06 200.06 
L 344.06 10.7 
L 10.7 10.7 
z
" style="fill:#ffffff;"/>
   </g>
   <g id="patch_3">
    <path clip-path="url(#p7c9eae11cc)" d="M 25.852727 200.06 
L 27.873091 200.06 
L 27.873091 199.819459 
L 25.852727 199.819459 
z
" style="fill:#1a1a1a;"/>
   </g>
   <g id="patch_4">
    <path clip-path="url(#p7c9eae11cc)" d="M 27.873091 200.06 
L 29.893455 200.06 
L 29.893455 199.819016 
L 27.873091 199.819016 
z
" style="fill:#1a1a1a;"/>
   </g>
   <g id="patch_5">
    <path clip-path="url(#p7c9eae11cc)" d="M 29.893455 200.06 
L 31.913818 200.06 
L 31.913818 199.816856 
L 29.893455 199.816856 
z
" style="fill:#1a1a1a;"/>
   </g>
   <g id="patch_6">
    <path clip-path="url(#p7c9eae11cc)" d="M 31.913818 200.06 
L 33.934182 200.06 
L 33.934182 199.811623 
L 31.913818 199.811623 
z
" style="fill:#1a1a1a;"/>
   </g>
   <g id="patch_7">
    <path clip-path="url(#p7c9eae11cc)" d="M 33.934182 200.06 
L 35.954545 200.06 
L 35.954545 199.810017 
L 33.934182 199.810017 
z
" style="fill:#1a1a1a;"/>
   </g>
   <g id="patch_8">
    <path clip-path="url(#p7c9eae11cc)" d="M 35.954545 200.06 
L 37.974909 200.06 
L 37.974909 199.804067 
L 35.954545 199.804067 
z
" style="fill:#1a1a1a;"/>
   </g>
   <g id="patch_9">
    <path clip-path="url(#p7c9eae11cc)" d="M 37.974909 200.06 
L 39.995273 200.06 
L 39.995273 199.80001 
L 37.974909 199.80001 
z
" style="fill:#1a1a1a;"/>
   </g>
   <g id="patch_10">
    <path clip-path="url(#p7c9eae11cc)" d="M 39.995273 200.06 
L 42.015636 200.06 
L 42.015636 199.783494 
L 39.995273 199.783494 
z
" style="fill:#1a1a1a;"/>
   </g>
   <g id="patch_11">
    <path clip-path="url(#p7c9eae11cc)" d="M 42.015636 200.06 
L 44.036 200.06 
L 44.036 199.777514 
L 42.015636 199.777514 
z
" style="fill:#1a1a1a;"/>
   </g>
   <g id="patch_12">
    <path clip-path="url(#p7c9eae11cc)" d="M 44.036 200.06 
L 46.056364 200.06 
L 46.056364 199.772484 
L 44.036 199.772484 
z
" style="fill:#1a1a1a;"/>
   </g>
   <g id="patch_13">
    <path clip-path="url(#p7c9eae11cc)" d="M 46.056364 200.06 
L 48.076727 200.06 
L 48.076727 199.764975 
L 46.056364 199.764975 
z
" style="fill:#1a1a1a;"/>
   </g>
   <g id="patch_14">
    <path clip-path="url(#p7c9eae11cc)" d="M 48.076727 200.06 
L 50.097091 200.06 
L 50.097091 199.759551 
L 48.076727 199.759551 
z
" style="fill:#1a1a1a;"/>
   </g>
   <g id="patch_15">
    <path clip-path="url(#p7c9eae11cc)" d="M 50.097091 200.06 
L 52.117455 200.06 
L 52.117455 199.740051 
L 50.097091 199.740051 
z
" style="fill:#1a1a1a;"/>
   </g>
   <g id="patch_16">
    <path clip-path="url(#p7c9eae11cc)" d="M 52.117455 200.06 
L 54.137818 200.06 
L 54.137818 199.735666 
L 52.117455 199.735666 
z
" style="fill:#1a1a1a;"/>
   </g>
   <g id="patch_17">
    <path clip-path="url(#p7c9eae11cc)" d="M 54.137818 200.06 
L 56.158182 200.06 
L 56.158182 199.731992 
L 54.137818 199.731992 
z
" style="fill:#1a1a1a;"/>
   </g>
   <g id="patch_18">
    <path clip-path="url(#p7c9eae11cc)" d="M 56.158182 200.06 
L 58.178545 200.06 
L 58.178545 199.719663 
L 56.158182 199.719663 
z
" style="fill:#1a1a1a;"/>
   </g>
   <g id="patch_19">
    <path clip-path="url(#p7c9eae11cc)" d="M 58.178545 200.06 
L 60.198909 200.06 
L 60.198909 199.70801 
L 58.178545 199.70801 
z
" style="fill:#1a1a1a;"/>
   </g>
   <g id="patch_20">
    <path clip-path="url(#p7c9eae11cc)" d="M 60.198909 200.06 
L 62.219273 200.06 
L 62.219273 199.69859 
L 60.198909 199.69859 
z
" style="fill:#1a1a1a;"/>
   </g>
   <g id="patch_21">
    <path clip-path="url(#p7c9eae11cc)" d="M 62.219273 200.06 
L 64.239636 200.06 
L 64.239636 199.684157 
L 62.219273 199.684157 
z
" style="fill:#1a1a1a;"/>
   </g>
   <g id="patch_22">
    <path clip-path="url(#p7c9eae11cc)" d="M 64.239636 200.06 
L 66.26 200.06 
L 66.26 199.679286 
L 64.239636 199.679286 
z
" style="fill:#1a1a1a;"/>
   </g>
   <g id="patch_23">
    <path clip-path="url(#p7c9eae11cc)" d="M 66.26 200.06 
L 68.280364 200.06 
L 68.280364 199.669154 
L 66.26 199.669154 
z
" style="fill:#1a1a1a;"/>
   </g>
   <g id="patch_24">
    <path clip-path="url(#p7c9eae11cc)" d="M 68.280364 200.06 
L 70.300727 200.06 
L 70.300727 199.630745 
L 68.280364 199.630745 
z
" style="fill:#1a1a1a;"/>
   </g>
   <g id="patch_25">
    <path clip-path="url(#p7c9eae11cc)" d="M 70.300727 200.06 
L 72.321091 200.06 
L 72.321091 199.618417 
L 70.300727 199.618417 
z
" style="fill:#1a1a1a;"/>
   </g>
   <g id="patch_26">
    <path clip-path="url(#p7c9eae11cc)" d="M 72.321091 200.06 
L 74.341455 200.06 
L 74.341455 199.606184 
L 72.321091 199.606184 
z
" style="fill:#1a1a1a;"/>
   </g>
   <g id="patch_27">
    <path clip-path="url(#p7c9eae11cc)" d="M 74.341455 200.06 
L 76.361818 200.06 
L 76.361818 199.551172 
L 74.341455 199.551172 
z
" style="fill:#1a1a1a;"/>
   </g>
   <g id="patch_28">
    <path clip-path="url(#p7c9eae11cc)" d="M 76.361818 200.06 
L 78.382182 200.06 
L 78.382182 199.534945 
L 76.361818 199.534945 
z
" style="fill:#1a1a1a;"/>
   </g>
   <g id="patch_29">
    <path clip-path="url(#p7c9eae11cc)" d="M 78.382182 200.06 
L 80.402545 200.06 
L 80.402545 199.520187 
L 78.382182 199.520187 
z
" style="fill:#1a1a1a;"/>
   </g>
   <g id="patch_30">
    <path clip-path="url(#p7c9eae11cc)" d="M 80.402545 200.06 
L 82.422909 200.06 
L 82.422909 199.510158 
L 80.402545 199.510158 
z
" style="fill:#1a1a1a;"/>
   </g>
   <g id="patch_31">
    <path clip-path="url(#p7c9eae11cc)" d="M 82.422909 200.06 
L 84.443273 200.06 
L 84.443273 199.43784 
L 82.422909 199.43784 
z
" style="fill:#1a1a1a;"/>
   </g>
   <g id="patch_32">
    <path clip-path="url(#p7c9eae11cc)" d="M 84.443273 200.06 
L 86.463636 200.06 
L 86.463636 199.434545 
L 84.443273 199.434545 
z
" style="fill:#1a1a1a;"/>
   </g>
   <g id="patch_33">
    <path clip-path="url(#p7c9eae11cc)" d="M 86.463636 200.06 
L 88.484 200.06 
L 88.484 199.329896 
L 86.463636 199.329896 
z
" style="fill:#1a1a1a;"/>
   </g>
   <g id="patch_34">
    <path clip-path="url(#p7c9eae11cc)" d="M 88.484 200.06 
L 90.504364 200.06 
L 90.504364 199.275432 
L 88.484 199.275432 
z
" style="fill:#1a1a1a;"/>
   </g>
   <g id="patch_35">
    <path clip-path="url(#p7c9eae11cc)" d="M 90.504364 200.06 
L 92.524727 200.06 
L 92.524727 199.252602 
L 90.504364 199.252602 
z
" style="fill:#1a1a1a;"/>
   </g>
   <g id="patch_36">
    <path clip-path="url(#p7c9eae11cc)" d="M 92.524727 200.06 
L 94.545091 200.06 
L 94.545091 199.233381 
L 92.524727 199.233381 
z
" style="fill:#1a1a1a;"/>
   </g>
   <g id="patch_37">
    <path clip-path="url(#p7c9eae11cc)" d="M 94.545091 200.06 
L 96.565455 200.06 
L 96.565455 199.214729 
L 94.545091 199.214729 
z
" style="fill:#1a1a1a;"/>
   </g>
   <g id="patch_38">
    <path clip-path="url(#p7c9eae11cc)" d="M 96.565455 200.06 
L 98.585818 200.06 
L 98.585818 199.192171 
L 96.565455 199.192171 
z
" style="fill:#1a1a1a;"/>
   </g>
   <g id="patch_39">
    <path clip-path="url(#p7c9eae11cc)" d="M 98.585818 200.06 
L 100.606182 200.06 
L 100.606182 199.143096 
L 98.585818 199.143096 
z
" style="fill:#1a1a1a;"/>
   </g>
   <g id="patch_40">
    <path clip-path="url(#p7c9eae11cc)" d="M 100.606182 200.06 
L 102.626545 200.06 
L 102.626545 199.114617 
L 100.606182 199.114617 
z
" style="fill:#1a1a1a;"/>
   </g>
   <g id="patch_41">
    <path clip-path="url(#p7c9eae11cc)" d="M 102.626545 200.06 
L 104.646909 200.06 
L 104.646909 199.010643 
L 102.626545 199.010643 
z
" style="fill:#1a1a1a;"/>
   </g>
   <g id="patch_42">
    <path clip-path="url(#p7c9eae11cc)" d="M 104.646909 200.06 
L 106.667273 200.06 
L 106.667273 198.991331 
L 104.646909 198.991331 
z
" style="fill:#1a1a1a;"/>
   </g>
   <g id="patch_43">
    <path clip-path="url(#p7c9eae11cc)" d="M 106.667273 200.06 
L 108.687636 200.06 
L 108.687636 198.960686 
L 106.667273 198.960686 
z
" style="fill:#1a1a1a;"/>
   </g>
   <g id="patch_44">
    <path clip-path="url(#p7c9eae11cc)" d="M 108.687636 200.06 
L 110.708 200.06 
L 110.708 198.927492 
L 108.687636 198.927492 
z
" style="fill:#1a1a1a;"/>
   </g>
   <g id="patch_45">
    <path clip-path="url(#p7c9eae11cc)" d="M 110.708 200.06 
L 112.728364 200.06 
L 112.728364 198.876192 
L 110.708 198.876192 
z
" style="fill:#1a1a1a;"/>
   </g>
   <g id="patch_46">
    <path clip-path="url(#p7c9eae11cc)" d="M 112.728364 200.06 
L 114.748727 200.06 
L 114.748727 198.781373 
L 112.728364 198.781373 
z
" style="fill:#1a1a1a;"/>
   </g>
   <g id="patch_47">
    <path clip-path="url(#p7c9eae11cc)" d="M 114.748727 200.06 
L 116.769091 200.06 
L 116.769091 198.75508 
L 114.748727 198.75508 
z
" style="fill:#1a1a1a;"/>
   </g>
   <g id="patch_48">
    <path clip-path="url(#p7c9eae11cc)" d="M 116.769091 200.06 
L 118.789455 200.06 
L 118.789455 198.65203 
L 116.769091 198.65203 
z
" style="fill:#1a1a1a;"/>
   </g>
   <g id="patch_49">
    <path clip-path="url(#p7c9eae11cc)" d="M 118.789455 200.06 
L 120.809818 200.06 
L 120.809818 198.593303 
L 118.789455 198.593303 
z
" style="fill:#1a1a1a;"/>
   </g>
   <g id="patch_50">
    <path clip-path="url(#p7c9eae11cc)" d="M 120.809818 200.06 
L 122.830182 200.06 
L 122.830182 198.419369 
L 120.809818 198.419369 
z
" style="fill:#1a1a1a;"/>
   </g>
   <g id="patch_51">
    <path clip-path="url(#p7c9eae11cc)" d="M 122.830182 200.06 
L 124.850545 200.06 
L 124.850545 198.32772 
L 122.830182 198.32772 
z
" style="fill:#1a1a1a;"/>
   </g>
   <g id="patch_52">
    <path clip-path="url(#p7c9eae11cc)" d="M 124.850545 200.06 
L 126.870909 200.06 
L 126.870909 198.164351 
L 124.850545 198.164351 
z
" style="fill:#1a1a1a;"/>
   </g>
   <g id="patch_53">
    <path clip-path="url(#p7c9eae11cc)" d="M 126.870909 200.06 
L 128.891273 200.06 
L 128.891273 197.914273 
L 126.870909 197.914273 
z
" style="fill:#1a1a1a;"/>
   </g>
   <g id="patch_54">
    <path clip-path="url(#p7c9eae11cc)" d="M 128.891273 200.06 
L 130.911636 200.06 
L 130.911636 197.632609 
L 128.891273 197.632609 
z
" style="fill:#1a1a1a;"/>
   </g>
   <g id="patch_55">
    <path clip-path="url(#p7c9eae11cc)" d="M 130.911636 200.06 
L 132.932 200.06 
L 132.932 197.461093 
L 130.911636 197.461093 
z
" style="fill:#1a1a1a;"/>
   </g>
   <g id="patch_56">
    <path clip-path="url(#p7c9eae11cc)" d="M 132.932 200.06 
L 134.952364 200.06 
L 134.952364 196.736808 
L 132.932 196.736808 
z
" style="fill:#1a1a1a;"/>
   </g>
   <g id="patch_57">
    <path clip-path="url(#p7c9eae11cc)" d="M 134.952364 200.06 
L 136.972727 200.06 
L 136.972727 196.52469 
L 134.952364 196.52469 
z
" style="fill:#1a1a1a;"/>
   </g>
   <g id="patch_58">
    <path clip-path="url(#p7c9eae11cc)" d="M 136.972727 200.06 
L 138.993091 200.06 
L 138.993091 196.409984 
L 136.972727 196.409984 
z
" style="fill:#1a1a1a;"/>
   </g>
   <g id="patch_59">
    <path clip-path="url(#p7c9eae11cc)" d="M 138.993091 200.06 
L 141.013455 200.06 
L 141.013455 196.116285 
L 138.993091 196.116285 
z
" style="fill:#1a1a1a;"/>
   </g>
   <g id="patch_60">
    <path clip-path="url(#p7c9eae11cc)" d="M 141.013455 200.06 
L 143.033818 200.06 
L 143.033818 196.022396 
L 141.013455 196.022396 
z
" style="fill:#1a1a1a;"/>
   </g>
   <g id="patch_61">
    <path clip-path="url(#p7c9eae11cc)" d="M 143.033818 200.06 
L 145.054182 200.06 
L 145.054182 195.849772 
L 143.033818 195.849772 
z
" style="fill:#1a1a1a;"/>
   </g>
   <g id="patch_62">
    <path clip-path="url(#p7c9eae11cc)" d="M 145.054182 200.06 
L 147.074545 200.06 
L 147.074545 195.552312 
L 145.054182 195.552312 
z
" style="fill:#1a1a1a;"/>
   </g>
   <g id="patch_63">
    <path clip-path="url(#p7c9eae11cc)" d="M 147.074545 200.06 
L 149.094909 200.06 
L 149.094909 194.811439 
L 147.074545 194.811439 
z
" style="fill:#1a1a1a;"/>
   </g>
   <g id="patch_64">
    <path clip-path="url(#p7c9eae11cc)" d="M 149.094909 200.06 
L 151.115273 200.06 
L 151.115273 194.400884 
L 149.094909 194.400884 
z
" style="fill:#1a1a1a;"/>
   </g>
   <g id="patch_65">
    <path clip-path="url(#p7c9eae11cc)" d="M 151.115273 200.06 
L 153.135636 200.06 
L 153.135636 194.35391 
L 151.115273 194.35391 
z
" style="fill:#1a1a1a;"/>
   </g>
   <g id="patch_66">
    <path clip-path="url(#p7c9eae11cc)" d="M 153.135636 200.06 
L 155.156 200.06 
L 155.156 193.773737 
L 153.135636 193.773737 
z
" style="fill:#1a1a1a;"/>
   </g>
   <g id="patch_67">
    <path clip-path="url(#p7c9eae11cc)" d="M 155.156 200.06 
L 157.176364 200.06 
L 157.176364 193.186141 
L 155.156 193.186141 
z
" style="fill:#1a1a1a;"/>
   </g>
   <g id="patch_68">
    <path clip-path="url(#p7c9eae11cc)" d="M 157.176364 200.06 
L 159.196727 200.06 
L 159.196727 192.85713 
L 157.176364 192.85713 
z
" style="fill:#1a1a1a;"/>
   </g>
   <g id="patch_69">
    <path clip-path="url(#p7c9eae11cc)" d="M 159.196727 200.06 
L 161.217091 200.06 
L 161.217091 192.472473 
L 159.196727 192.472473 
z
" style="fill:#1a1a1a;"/>
   </g>
   <g id="patch_70">
    <path clip-path="url(#p7c9eae11cc)" d="M 161.217091 200.06 
L 163.237455 200.06 
L 163.237455 190.970398 
L 161.217091 190.970398 
z
" style="fill:#1a1a1a;"/>
   </g>
   <g id="patch_71">
    <path clip-path="url(#p7c9eae11cc)" d="M 163.237455 200.06 
L 165.257818 200.06 
L 165.257818 181.631532 
L 163.237455 181.631532 
z
" style="fill:#1a1a1a;"/>
   </g>
   <g id="patch_72">
    <path clip-path="url(#p7c9eae11cc)" d="M 165.257818 200.06 
L 167.278182 200.06 
L 167.278182 179.119993 
L 165.257818 179.119993 
z
" style="fill:#1a1a1a;"/>
   </g>
   <g id="patch_73">
    <path clip-path="url(#p7c9eae11cc)" d="M 167.278182 200.06 
L 169.298545 200.06 
L 169.298545 168.744672 
L 167.278182 168.744672 
z
" style="fill:#1a1a1a;"/>
   </g>
   <g id="patch_74">
    <path clip-path="url(#p7c9eae11cc)" d="M 169.298545 200.06 
L 171.318909 200.06 
L 171.318909 156.171759 
L 169.298545 156.171759 
z
" style="fill:#1a1a1a;"/>
   </g>
   <g id="patch_75">
    <path clip-path="url(#p7c9eae11cc)" d="M 171.318909 200.06 
L 173.339273 200.06 
L 173.339273 151.262708 
L 171.318909 151.262708 
z
" style="fill:#1a1a1a;"/>
   </g>
   <g id="patch_76">
    <path clip-path="url(#p7c9eae11cc)" d="M 173.339273 200.06 
L 175.359636 200.06 
L 175.359636 140.806213 
L 173.339273 140.806213 
z
" style="fill:#1a1a1a;"/>
   </g>
   <g id="patch_77">
    <path clip-path="url(#p7c9eae11cc)" d="M 175.359636 200.06 
L 177.38 200.06 
L 177.38 130.716077 
L 175.359636 130.716077 
z
" style="fill:#1a1a1a;"/>
   </g>
   <g id="patch_78">
    <path clip-path="url(#p7c9eae11cc)" d="M 177.38 200.06 
L 179.400364 200.06 
L 179.400364 108.409086 
L 177.38 108.409086 
z
" style="fill:#1a1a1a;"/>
   </g>
   <g id="patch_79">
    <path clip-path="url(#p7c9eae11cc)" d="M 179.400364 200.06 
L 181.420727 200.06 
L 181.420727 135.996084 
L 179.400364 135.996084 
z
" style="fill:#1a1a1a;"/>
   </g>
   <g id="patch_80">
    <path clip-path="url(#p7c9eae11cc)" d="M 181.420727 200.06 
L 183.441091 200.06 
L 183.441091 150.278456 
L 181.420727 150.278456 
z
" style="fill:#1a1a1a;"/>
   </g>
   <g id="patch_81">
    <path clip-path="url(#p7c9eae11cc)" d="M 183.441091 200.06 
L 185.461455 200.06 
L 185.461455 154.764088 
L 183.441091 154.764088 
z
" style="fill:#1a1a1a;"/>
   </g>
   <g id="patch_82">
    <path clip-path="url(#p7c9eae11cc)" d="M 185.461455 200.06 
L 187.481818 200.06 
L 187.481818 166.365818 
L 185.461455 166.365818 
z
" style="fill:#1a1a1a;"/>
   </g>
   <g id="patch_83">
    <path clip-path="url(#p7c9eae11cc)" d="M 187.481818 200.06 
L 189.502182 200.06 
L 189.502182 169.279087 
L 187.481818 169.279087 
z
" style="fill:#1a1a1a;"/>
   </g>
   <g id="patch_84">
    <path clip-path="url(#p7c9eae11cc)" d="M 189.502182 200.06 
L 191.522545 200.06 
L 191.522545 181.168596 
L 189.502182 181.168596 
z
" style="fill:#1a1a1a;"/>
   </g>
   <g id="patch_85">
    <path clip-path="url(#p7c9eae11cc)" d="M 191.522545 200.06 
L 193.542909 200.06 
L 193.542909 186.817446 
L 191.522545 186.817446 
z
" style="fill:#1a1a1a;"/>
   </g>
   <g id="patch_86">
    <path clip-path="url(#p7c9eae11cc)" d="M 193.542909 200.06 
L 195.563273 200.06 
L 195.563273 191.706381 
L 193.542909 191.706381 
z
" style="fill:#1a1a1a;"/>
   </g>
   <g id="patch_87">
    <path clip-path="url(#p7c9eae11cc)" d="M 195.563273 200.06 
L 197.583636 200.06 
L 197.583636 192.618207 
L 195.563273 192.618207 
z
" style="fill:#1a1a1a;"/>
   </g>
   <g id="patch_88">
    <path clip-path="url(#p7c9eae11cc)" d="M 197.583636 200.06 
L 199.604 200.06 
L 199.604 192.934074 
L 197.583636 192.934074 
z
" style="fill:#1a1a1a;"/>
   </g>
   <g id="patch_89">
    <path clip-path="url(#p7c9eae11cc)" d="M 199.604 200.06 
L 201.624364 200.06 
L 201.624364 193.22233 
L 199.604 193.22233 
z
" style="fill:#1a1a1a;"/>
   </g>
   <g id="patch_90">
    <path clip-path="url(#p7c9eae11cc)" d="M 201.624364 200.06 
L 203.644727 200.06 
L 203.644727 193.953094 
L 201.624364 193.953094 
z
" style="fill:#1a1a1a;"/>
   </g>
   <g id="patch_91">
    <path clip-path="url(#p7c9eae11cc)" d="M 203.644727 200.06 
L 205.665091 200.06 
L 205.665091 194.379661 
L 203.644727 194.379661 
z
" style="fill:#1a1a1a;"/>
   </g>
   <g id="patch_92">
    <path clip-path="url(#p7c9eae11cc)" d="M 205.665091 200.06 
L 207.685455 200.06 
L 207.685455 194.451829 
L 205.665091 194.451829 
z
" style="fill:#1a1a1a;"/>
   </g>
   <g id="patch_93">
    <path clip-path="url(#p7c9eae11cc)" d="M 207.685455 200.06 
L 209.705818 200.06 
L 209.705818 195.434311 
L 207.685455 195.434311 
z
" style="fill:#1a1a1a;"/>
   </g>
   <g id="patch_94">
    <path clip-path="url(#p7c9eae11cc)" d="M 209.705818 200.06 
L 211.726182 200.06 
L 211.726182 195.787218 
L 209.705818 195.787218 
z
" style="fill:#1a1a1a;"/>
   </g>
   <g id="patch_95">
    <path clip-path="url(#p7c9eae11cc)" d="M 211.726182 200.06 
L 213.746545 200.06 
L 213.746545 195.874525 
L 211.726182 195.874525 
z
" style="fill:#1a1a1a;"/>
   </g>
   <g id="patch_96">
    <path clip-path="url(#p7c9eae11cc)" d="M 213.746545 200.06 
L 215.766909 200.06 
L 215.766909 196.058247 
L 213.746545 196.058247 
z
" style="fill:#1a1a1a;"/>
   </g>
   <g id="patch_97">
    <path clip-path="url(#p7c9eae11cc)" d="M 215.766909 200.06 
L 217.787273 200.06 
L 217.787273 196.161962 
L 215.766909 196.161962 
z
" style="fill:#1a1a1a;"/>
   </g>
   <g id="patch_98">
    <path clip-path="url(#p7c9eae11cc)" d="M 217.787273 200.06 
L 219.807636 200.06 
L 219.807636 196.422698 
L 217.787273 196.422698 
z
" style="fill:#1a1a1a;"/>
   </g>
   <g id="patch_99">
    <path clip-path="url(#p7c9eae11cc)" d="M 219.807636 200.06 
L 221.828 200.06 
L 221.828 196.607828 
L 219.807636 196.607828 
z
" style="fill:#1a1a1a;"/>
   </g>
   <g id="patch_100">
    <path clip-path="url(#p7c9eae11cc)" d="M 221.828 200.06 
L 223.848364 200.06 
L 223.848364 197.418769 
L 221.828 197.418769 
z
" style="fill:#1a1a1a;"/>
   </g>
   <g id="patch_101">
    <path clip-path="url(#p7c9eae11cc)" d="M 223.848364 200.06 
L 225.868727 200.06 
L 225.868727 197.547162 
L 223.848364 197.547162 
z
" style="fill:#1a1a1a;"/>
   </g>
   <g id="patch_102">
    <path clip-path="url(#p7c9eae11cc)" d="M 225.868727 200.06 
L 227.889091 200.06 
L 227.889091 197.77024 
L 225.868727 197.77024 
z
" style="fill:#1a1a1a;"/>
   </g>
   <g id="patch_103">
    <path clip-path="url(#p7c9eae11cc)" d="M 227.889091 200.06 
L 229.909455 200.06 
L 229.909455 197.935734 
L 227.889091 197.935734 
z
" style="fill:#1a1a1a;"/>
   </g>
   <g id="patch_104">
    <path clip-path="url(#p7c9eae11cc)" d="M 229.909455 200.06 
L 231.929818 200.06 
L 231.929818 198.231852 
L 229.909455 198.231852 
z
" style="fill:#1a1a1a;"/>
   </g>
   <g id="patch_105">
    <path clip-path="url(#p7c9eae11cc)" d="M 231.929818 200.06 
L 233.950182 200.06 
L 233.950182 198.386185 
L 231.929818 198.386185 
z
" style="fill:#1a1a1a;"/>
   </g>
   <g id="patch_106">
    <path clip-path="url(#p7c9eae11cc)" d="M 233.950182 200.06 
L 235.970545 200.06 
L 235.970545 198.479976 
L 233.950182 198.479976 
z
" style="fill:#1a1a1a;"/>
   </g>
   <g id="patch_107">
    <path clip-path="url(#p7c9eae11cc)" d="M 235.970545 200.06 
L 237.990909 200.06 
L 237.990909 198.63665 
L 235.970545 198.63665 
z
" style="fill:#1a1a1a;"/>
   </g>
   <g id="patch_108">
    <path clip-path="url(#p7c9eae11cc)" d="M 237.990909 200.06 
L 240.011273 200.06 
L 240.011273 198.681455 
L 237.990909 198.681455 
z
" style="fill:#1a1a1a;"/>
   </g>
   <g id="patch_109">
    <path clip-path="url(#p7c9eae11cc)" d="M 240.011273 200.06 
L 242.031636 200.06 
L 242.031636 198.75947 
L 240.011273 198.75947 
z
" style="fill:#1a1a1a;"/>
   </g>
   <g id="patch_110">
    <path clip-path="url(#p7c9eae11cc)" d="M 242.031636 200.06 
L 244.052 200.06 
L 244.052 198.808922 
L 242.031636 198.808922 
z
" style="fill:#1a1a1a;"/>
   </g>
   <g id="patch_111">
    <path clip-path="url(#p7c9eae11cc)" d="M 244.052 200.06 
L 246.072364 200.06 
L 246.072364 198.922168 
L 244.052 198.922168 
z
" style="fill:#1a1a1a;"/>
   </g>
   <g id="patch_112">
    <path clip-path="url(#p7c9eae11cc)" d="M 246.072364 200.06 
L 248.092727 200.06 
L 248.092727 198.928524 
L 246.072364 198.928524 
z
" style="fill:#1a1a1a;"/>
   </g>
   <g id="patch_113">
    <path clip-path="url(#p7c9eae11cc)" d="M 248.092727 200.06 
L 250.113091 200.06 
L 250.113091 198.970403 
L 248.092727 198.970403 
z
" style="fill:#1a1a1a;"/>
   </g>
   <g id="patch_114">
    <path clip-path="url(#p7c9eae11cc)" d="M 250.113091 200.06 
L 252.133455 200.06 
L 252.133455 198.996487 
L 250.113091 198.996487 
z
" style="fill:#1a1a1a;"/>
   </g>
   <g id="patch_115">
    <path clip-path="url(#p7c9eae11cc)" d="M 252.133455 200.06 
L 254.153818 200.06 
L 254.153818 199.056433 
L 252.133455 199.056433 
z
" style="fill:#1a1a1a;"/>
   </g>
   <g id="patch_116">
    <path clip-path="url(#p7c9eae11cc)" d="M 254.153818 200.06 
L 256.174182 200.06 
L 256.174182 199.142821 
L 254.153818 199.142821 
z
" style="fill:#1a1a1a;"/>
   </g>
   <g id="patch_117">
    <path clip-path="url(#p7c9eae11cc)" d="M 256.174182 200.06 
L 258.194545 200.06 
L 258.194545 199.185021 
L 256.174182 199.185021 
z
" style="fill:#1a1a1a;"/>
   </g>
   <g id="patch_118">
    <path clip-path="url(#p7c9eae11cc)" d="M 258.194545 200.06 
L 260.214909 200.06 
L 260.214909 199.212346 
L 258.194545 199.212346 
z
" style="fill:#1a1a1a;"/>
   </g>
   <g id="patch_119">
    <path clip-path="url(#p7c9eae11cc)" d="M 260.214909 200.06 
L 262.235273 200.06 
L 262.235273 199.217228 
L 260.214909 199.217228 
z
" style="fill:#1a1a1a;"/>
   </g>
   <g id="patch_120">
    <path clip-path="url(#p7c9eae11cc)" d="M 262.235273 200.06 
L 264.255636 200.06 
L 264.255636 199.247648 
L 262.235273 199.247648 
z
" style="fill:#1a1a1a;"/>
   </g>
   <g id="patch_121">
    <path clip-path="url(#p7c9eae11cc)" d="M 264.255636 200.06 
L 266.276 200.06 
L 266.276 199.254639 
L 264.255636 199.254639 
z
" style="fill:#1a1a1a;"/>
   </g>
   <g id="patch_122">
    <path clip-path="url(#p7c9eae11cc)" d="M 266.276 200.06 
L 268.296364 200.06 
L 268.296364 199.319754 
L 266.276 199.319754 
z
" style="fill:#1a1a1a;"/>
   </g>
   <g id="patch_123">
    <path clip-path="url(#p7c9eae11cc)" d="M 268.296364 200.06 
L 270.316727 200.06 
L 270.316727 199.376179 
L 268.296364 199.376179 
z
" style="fill:#1a1a1a;"/>
   </g>
   <g id="patch_124">
    <path clip-path="url(#p7c9eae11cc)" d="M 270.316727 200.06 
L 272.337091 200.06 
L 272.337091 199.437628 
L 270.316727 199.437628 
z
" style="fill:#1a1a1a;"/>
   </g>
   <g id="patch_125">
    <path clip-path="url(#p7c9eae11cc)" d="M 272.337091 200.06 
L 274.357455 200.06 
L 274.357455 199.501127 
L 272.337091 199.501127 
z
" style="fill:#1a1a1a;"/>
   </g>
   <g id="patch_126">
    <path clip-path="url(#p7c9eae11cc)" d="M 274.357455 200.06 
L 276.377818 200.06 
L 276.377818 199.510991 
L 274.357455 199.510991 
z
" style="fill:#1a1a1a;"/>
   </g>
   <g id="patch_127">
    <path clip-path="url(#p7c9eae11cc)" d="M 276.377818 200.06 
L 278.398182 200.06 
L 278.398182 199.534392 
L 276.377818 199.534392 
z
" style="fill:#1a1a1a;"/>
   </g>
   <g id="patch_128">
    <path clip-path="url(#p7c9eae11cc)" d="M 278.398182 200.06 
L 280.418545 200.06 
L 280.418545 199.541345 
L 278.398182 199.541345 
z
" style="fill:#1a1a1a;"/>
   </g>
   <g id="patch_129">
    <path clip-path="url(#p7c9eae11cc)" d="M 280.418545 200.06 
L 282.438909 200.06 
L 282.438909 199.573577 
L 280.418545 199.573577 
z
" style="fill:#1a1a1a;"/>
   </g>
   <g id="patch_130">
    <path clip-path="url(#p7c9eae11cc)" d="M 282.438909 200.06 
L 284.459273 200.06 
L 284.459273 199.611585 
L 282.438909 199.611585 
z
" style="fill:#1a1a1a;"/>
   </g>
   <g id="patch_131">
    <path clip-path="url(#p7c9eae11cc)" d="M 284.459273 200.06 
L 286.479636 200.06 
L 286.479636 199.621829 
L 284.459273 199.621829 
z
" style="fill:#1a1a1a;"/>
   </g>
   <g id="patch_132">
    <path clip-path="url(#p7c9eae11cc)" d="M 286.479636 200.06 
L 288.5 200.06 
L 288.5 199.654749 
L 286.479636 199.654749 
z
" style="fill:#1a1a1a;"/>
   </g>
   <g id="patch_133">
    <path clip-path="url(#p7c9eae11cc)" d="M 288.5 200.06 
L 290.520364 200.06 
L 290.520364 199.670797 
L 288.5 199.670797 
z
" style="fill:#1a1a1a;"/>
   </g>
   <g id="patch_134">
    <path clip-path="url(#p7c9eae11cc)" d="M 290.520364 200.06 
L 292.540727 200.06 
L 292.540727 199.679316 
L 290.520364 199.679316 
z
" style="fill:#1a1a1a;"/>
   </g>
   <g id="patch_135">
    <path clip-path="url(#p7c9eae11cc)" d="M 292.540727 200.06 
L 294.561091 200.06 
L 294.561091 199.695929 
L 292.540727 199.695929 
z
" style="fill:#1a1a1a;"/>
   </g>
   <g id="patch_136">
    <path clip-path="url(#p7c9eae11cc)" d="M 294.561091 200.06 
L 296.581455 200.06 
L 296.581455 199.698914 
L 294.561091 199.698914 
z
" style="fill:#1a1a1a;"/>
   </g>
   <g id="patch_137">
    <path clip-path="url(#p7c9eae11cc)" d="M 296.581455 200.06 
L 298.601818 200.06 
L 298.601818 199.716685 
L 296.581455 199.716685 
z
" style="fill:#1a1a1a;"/>
   </g>
   <g id="patch_138">
    <path clip-path="url(#p7c9eae11cc)" d="M 298.601818 200.06 
L 300.622182 200.06 
L 300.622182 199.728207 
L 298.601818 199.728207 
z
" style="fill:#1a1a1a;"/>
   </g>
   <g id="patch_139">
    <path clip-path="url(#p7c9eae11cc)" d="M 300.622182 200.06 
L 302.642545 200.06 
L 302.642545 199.73348 
L 300.622182 199.73348 
z
" style="fill:#1a1a1a;"/>
   </g>
   <g id="patch_140">
    <path clip-path="url(#p7c9eae11cc)" d="M 302.642545 200.06 
L 304.662909 200.06 
L 304.662909 199.737499 
L 302.642545 199.737499 
z
" style="fill:#1a1a1a;"/>
   </g>
   <g id="patch_141">
    <path clip-path="url(#p7c9eae11cc)" d="M 304.662909 200.06 
L 306.683273 200.06 
L 306.683273 199.748833 
L 304.662909 199.748833 
z
" style="fill:#1a1a1a;"/>
   </g>
   <g id="patch_142">
    <path clip-path="url(#p7c9eae11cc)" d="M 306.683273 200.06 
L 308.703636 200.06 
L 308.703636 199.763934 
L 306.683273 199.763934 
z
" style="fill:#1a1a1a;"/>
   </g>
   <g id="patch_143">
    <path clip-path="url(#p7c9eae11cc)" d="M 308.703636 200.06 
L 310.724 200.06 
L 310.724 199.769222 
L 308.703636 199.769222 
z
" style="fill:#1a1a1a;"/>
   </g>
   <g id="patch_144">
    <path clip-path="url(#p7c9eae11cc)" d="M 310.724 200.06 
L 312.744364 200.06 
L 312.744364 199.773528 
L 310.724 199.773528 
z
" style="fill:#1a1a1a;"/>
   </g>
   <g id="patch_145">
    <path clip-path="url(#p7c9eae11cc)" d="M 312.744364 200.06 
L 314.764727 200.06 
L 314.764727 199.783058 
L 312.744364 199.783058 
z
" style="fill:#1a1a1a;"/>
   </g>
   <g id="patch_146">
    <path clip-path="url(#p7c9eae11cc)" d="M 314.764727 200.06 
L 316.785091 200.06 
L 316.785091 199.796157 
L 314.764727 199.796157 
z
" style="fill:#1a1a1a;"/>
   </g>
   <g id="patch_147">
    <path clip-path="url(#p7c9eae11cc)" d="M 316.785091 200.06 
L 318.805455 200.06 
L 318.805455 199.803682 
L 316.785091 199.803682 
z
" style="fill:#1a1a1a;"/>
   </g>
   <g id="patch_148">
    <path clip-path="url(#p7c9eae11cc)" d="M 318.805455 200.06 
L 320.825818 200.06 
L 320.825818 199.80509 
L 318.805455 199.80509 
z
" style="fill:#1a1a1a;"/>
   </g>
   <g id="patch_149">
    <path clip-path="url(#p7c9eae11cc)" d="M 320.825818 200.06 
L 322.846182 200.06 
L 322.846182 199.810432 
L 320.825818 199.810432 
z
" style="fill:#1a1a1a;"/>
   </g>
   <g id="patch_150">
    <path clip-path="url(#p7c9eae11cc)" d="M 322.846182 200.06 
L 324.866545 200.06 
L 324.866545 199.814068 
L 322.846182 199.814068 
z
" style="fill:#1a1a1a;"/>
   </g>
   <g id="patch_151">
    <path clip-path="url(#p7c9eae11cc)" d="M 324.866545 200.06 
L 326.886909 200.06 
L 326.886909 199.818113 
L 324.866545 199.818113 
z
" style="fill:#1a1a1a;"/>
   </g>
   <g id="patch_152">
    <path clip-path="url(#p7c9eae11cc)" d="M 326.886909 200.06 
L 328.907273 200.06 
L 328.907273 199.819398 
L 326.886909 199.819398 
z
" style="fill:#1a1a1a;"/>
   </g>
   <g id="matplotlib.axis_1"/>
   <g id="matplotlib.axis_2"/>
   <g id="patch_153">
    <path d="M 10.7 200.06 
L 10.7 10.7 
" style="fill:none;stroke:#000000;stroke-linecap:square;stroke-linejoin:miter;stroke-width:0.8;"/>
   </g>
   <g id="patch_154">
    <path d="M 344.06 200.06 
L 344.06 10.7 
" style="fill:none;stroke:#000000;stroke-linecap:square;stroke-linejoin:miter;stroke-width:0.8;"/>
   </g>
   <g id="patch_155">
    <path d="M 10.7 200.06 
L 344.06 200.06 
" style="fill:none;stroke:#000000;stroke-linecap:square;stroke-linejoin:miter;stroke-width:0.8;"/>
   </g>
   <g id="patch_156">
    <path d="M 10.7 10.7 
L 344.06 10.7 
" style="fill:none;stroke:#000000;stroke-linecap:square;stroke-linejoin:miter;stroke-width:0.8;"/>
   </g>
  </g>
 </g>
 <defs>
  <clipPath id="p7c9eae11cc">
   <rect height="189.36" width="333.36" x="10.7" y="10.7"/>
  </clipPath>
 </defs>
</svg>
