<?xml version="1.0" encoding="utf-8" standalone="no"?>
<!DOCTYPE svg PUBLIC "-//W3C//DTD SVG 1.1//EN"
  "http://www.w3.org/Graphics/SVG/1.1/DTD/svg11.dtd">
<!-- Created with matplotlib (http://matplotlib.org/) -->
<svg height="354pt" version="1.1" viewBox="0 0 392 354" width="392pt" xmlns="http://www.w3.org/2000/svg" xmlns:xlink="http://www.w3.org/1999/xlink">
 <defs>
  <style type="text/css">
*{stroke-linecap:butt;stroke-linejoin:round;}
  </style>
 </defs>
 <g id="figure_1">
  <g id="patch_1">
   <path d="M -0 354.04 
L 392.132812 354.04 
L 392.132812 0 
L -0 0 
z
" style="fill:#ffffff;"/>
  </g>
  <g id="axes_1">
   <g id="patch_2">
    <path d="M 46.632812 343.34 
L 381.432813 343.34 
L 381.432813 10.7 
L 46.632812 10.7 
z
" style="fill:#ffffff;"/>
   </g>
   <g id="PolyCollection_1">
    <defs>
     <path d="M 61.850994 -140.342836 
L 61.850994 -143.8665 
L 65.159295 -143.8665 
L 68.467595 -143.8665 
L 71.775896 -143.8665 
L 75.084196 -143.8665 
L 78.392496 -143.8665 
L 81.700797 -143.8665 
L 85.009097 -143.8665 
L 88.317397 -143.8665 
L 91.625698 -143.8665 
L 94.933998 -143.8665 
L 98.242299 -143.8665 
L 101.550599 -143.8665 
L 104.858899 -143.8665 
L 108.1672 -143.8665 
L 111.4755 -143.8665 
L 114.783801 -143.8665 
L 118.092101 -143.8665 
L 121.400401 -143.8665 
L 124.708702 -143.8665 
L 128.017002 -143.8665 
L 131.325303 -143.8665 
L 134.633603 -143.8665 
L 137.941903 -143.8665 
L 141.250204 -143.8665 
L 144.558504 -143.8665 
L 147.866805 -143.8665 
L 151.175105 -143.8665 
L 154.483405 -143.8665 
L 157.791706 -143.8665 
L 161.100006 -143.8665 
L 164.408307 -143.8665 
L 167.716607 -143.8665 
L 171.024907 -143.8665 
L 174.333208 -143.8665 
L 177.641508 -143.8665 
L 180.949809 -143.8665 
L 184.258109 -143.8665 
L 187.566409 -143.8665 
L 190.87471 -143.8665 
L 194.18301 -143.8665 
L 197.491311 -143.8665 
L 200.799611 -143.8665 
L 204.107911 -143.8665 
L 207.416212 -143.8665 
L 210.724512 -143.8665 
L 214.032813 -143.8665 
L 217.341113 -143.8665 
L 220.649413 -143.8665 
L 223.957714 -143.8665 
L 227.266014 -143.8665 
L 230.574314 -143.8665 
L 233.882615 -143.8665 
L 237.190915 -143.8665 
L 240.499216 -143.8665 
L 243.807516 -143.8665 
L 247.115816 -143.8665 
L 250.424117 -143.8665 
L 253.732417 -143.8665 
L 257.040718 -143.8665 
L 260.349018 -143.8665 
L 263.657318 -143.8665 
L 266.965619 -143.8665 
L 270.273919 -143.8665 
L 273.58222 -143.8665 
L 276.89052 -143.8665 
L 280.19882 -143.8665 
L 283.507121 -143.8665 
L 286.815421 -143.8665 
L 290.123722 -143.8665 
L 293.432022 -143.8665 
L 296.740322 -143.8665 
L 300.048623 -143.8665 
L 303.356923 -143.8665 
L 306.665224 -143.8665 
L 309.973524 -143.8665 
L 313.281824 -143.8665 
L 316.590125 -143.8665 
L 319.898425 -143.8665 
L 323.206726 -143.8665 
L 326.515026 -143.8665 
L 329.823326 -143.8665 
L 333.131627 -143.8665 
L 336.439927 -143.8665 
L 339.748228 -143.8665 
L 343.056528 -143.8665 
L 346.364828 -143.8665 
L 349.673129 -143.8665 
L 352.981429 -143.8665 
L 356.289729 -143.8665 
L 359.59803 -143.8665 
L 362.90633 -143.8665 
L 366.214631 -143.8665 
L 366.214631 -147.924909 
L 366.214631 -147.924909 
L 362.90633 -147.669169 
L 359.59803 -147.500564 
L 356.289729 -147.473069 
L 352.981429 -147.328288 
L 349.673129 -147.054643 
L 346.364828 -146.239104 
L 343.056528 -145.946695 
L 339.748228 -145.914071 
L 336.439927 -145.57752 
L 333.131627 -145.479221 
L 329.823326 -145.468016 
L 326.515026 -145.405325 
L 323.206726 -145.351277 
L 319.898425 -145.206397 
L 316.590125 -145.116431 
L 313.281824 -144.863662 
L 309.973524 -144.851433 
L 306.665224 -144.707983 
L 303.356923 -144.698309 
L 300.048623 -144.675451 
L 296.740322 -144.602912 
L 293.432022 -144.56504 
L 290.123722 -144.279457 
L 286.815421 -144.143317 
L 283.507121 -144.097932 
L 280.19882 -144.085865 
L 276.89052 -143.967325 
L 273.58222 -143.911854 
L 270.273919 -143.891271 
L 266.965619 -143.886357 
L 263.657318 -143.883904 
L 260.349018 -143.880886 
L 257.040718 -143.87929 
L 253.732417 -143.878936 
L 250.424117 -143.876769 
L 247.115816 -143.872817 
L 243.807516 -143.871572 
L 240.499216 -143.871201 
L 237.190915 -143.87109 
L 233.882615 -143.870648 
L 230.574314 -143.870562 
L 227.266014 -143.870442 
L 223.957714 -143.870301 
L 220.649413 -143.870083 
L 217.341113 -143.870046 
L 214.032813 -143.86895 
L 210.724512 -143.868111 
L 207.416212 -143.866826 
L 204.107911 -143.866826 
L 200.799611 -143.866648 
L 197.491311 -143.866576 
L 194.18301 -143.865828 
L 190.87471 -143.865622 
L 187.566409 -143.864709 
L 184.258109 -143.863927 
L 180.949809 -143.86349 
L 177.641508 -143.861345 
L 174.333208 -143.860201 
L 171.024907 -143.860178 
L 167.716607 -143.859578 
L 164.408307 -143.859049 
L 161.100006 -143.858501 
L 157.791706 -143.857473 
L 154.483405 -143.856453 
L 151.175105 -143.856329 
L 147.866805 -143.852501 
L 144.558504 -143.850772 
L 141.250204 -143.849699 
L 137.941903 -143.842274 
L 134.633603 -143.84157 
L 131.325303 -143.831105 
L 128.017002 -143.787221 
L 124.708702 -143.730837 
L 121.400401 -143.654536 
L 118.092101 -143.601283 
L 114.783801 -143.51938 
L 111.4755 -143.489062 
L 108.1672 -143.41045 
L 104.858899 -143.372212 
L 101.550599 -143.250841 
L 98.242299 -143.195144 
L 94.933998 -143.055474 
L 91.625698 -143.030836 
L 88.317397 -143.021506 
L 85.009097 -142.981991 
L 81.700797 -142.978524 
L 78.392496 -142.825117 
L 75.084196 -142.254184 
L 71.775896 -142.077304 
L 68.467595 -140.826802 
L 65.159295 -140.437206 
L 61.850994 -140.342836 
z
" id="mae09305d92" style="stroke:#4a98c9;"/>
    </defs>
    <g clip-path="url(#p1cac55e7f9)">
     <use style="fill:#4a98c9;stroke:#4a98c9;" x="0" xlink:href="#mae09305d92" y="354.04"/>
    </g>
   </g>
   <g id="PolyCollection_2">
    <defs>
     <path d="M 61.850994 -25.82 
L 61.850994 -143.8665 
L 65.159295 -143.8665 
L 68.467595 -143.8665 
L 71.775896 -143.8665 
L 75.084196 -143.8665 
L 78.392496 -143.8665 
L 81.700797 -143.8665 
L 85.009097 -143.8665 
L 88.317397 -143.8665 
L 91.625698 -143.8665 
L 94.933998 -143.8665 
L 98.242299 -143.8665 
L 101.550599 -143.8665 
L 104.858899 -143.8665 
L 108.1672 -143.8665 
L 111.4755 -143.8665 
L 114.783801 -143.8665 
L 118.092101 -143.8665 
L 121.400401 -143.8665 
L 124.708702 -143.8665 
L 128.017002 -143.8665 
L 131.325303 -143.8665 
L 134.633603 -143.8665 
L 137.941903 -143.8665 
L 141.250204 -143.8665 
L 144.558504 -143.8665 
L 147.866805 -143.8665 
L 151.175105 -143.8665 
L 154.483405 -143.8665 
L 157.791706 -143.8665 
L 161.100006 -143.8665 
L 164.408307 -143.8665 
L 167.716607 -143.8665 
L 171.024907 -143.8665 
L 174.333208 -143.8665 
L 177.641508 -143.8665 
L 180.949809 -143.8665 
L 184.258109 -143.8665 
L 187.566409 -143.8665 
L 190.87471 -143.8665 
L 194.18301 -143.8665 
L 197.491311 -143.8665 
L 200.799611 -143.8665 
L 204.107911 -143.8665 
L 207.416212 -143.8665 
L 210.724512 -143.8665 
L 214.032813 -143.8665 
L 217.341113 -143.8665 
L 220.649413 -143.8665 
L 223.957714 -143.8665 
L 227.266014 -143.8665 
L 230.574314 -143.8665 
L 233.882615 -143.8665 
L 237.190915 -143.8665 
L 240.499216 -143.8665 
L 243.807516 -143.8665 
L 247.115816 -143.8665 
L 250.424117 -143.8665 
L 253.732417 -143.8665 
L 257.040718 -143.8665 
L 260.349018 -143.8665 
L 263.657318 -143.8665 
L 266.965619 -143.8665 
L 270.273919 -143.8665 
L 273.58222 -143.8665 
L 276.89052 -143.8665 
L 280.19882 -143.8665 
L 283.507121 -143.8665 
L 286.815421 -143.8665 
L 290.123722 -143.8665 
L 293.432022 -143.8665 
L 296.740322 -143.8665 
L 300.048623 -143.8665 
L 303.356923 -143.8665 
L 306.665224 -143.8665 
L 309.973524 -143.8665 
L 313.281824 -143.8665 
L 316.590125 -143.8665 
L 319.898425 -143.8665 
L 323.206726 -143.8665 
L 326.515026 -143.8665 
L 329.823326 -143.8665 
L 333.131627 -143.8665 
L 336.439927 -143.8665 
L 339.748228 -143.8665 
L 343.056528 -143.8665 
L 346.364828 -143.8665 
L 349.673129 -143.8665 
L 352.981429 -143.8665 
L 356.289729 -143.8665 
L 359.59803 -143.8665 
L 362.90633 -143.8665 
L 366.214631 -143.8665 
L 366.214631 -328.22 
L 366.214631 -328.22 
L 362.90633 -309.013995 
L 359.59803 -304.772027 
L 356.289729 -291.618574 
L 352.981429 -270.42977 
L 349.673129 -269.405959 
L 346.364828 -248.860447 
L 343.056528 -238.500116 
L 339.748228 -233.204156 
L 336.439927 -229.424361 
L 333.131627 -225.715243 
L 329.823326 -210.115962 
L 326.515026 -203.513322 
L 323.206726 -184.311453 
L 319.898425 -180.067119 
L 316.590125 -176.20429 
L 313.281824 -171.778391 
L 309.973524 -170.011665 
L 306.665224 -168.349718 
L 303.356923 -162.12498 
L 300.048623 -161.685928 
L 296.740322 -158.067519 
L 293.432022 -155.641145 
L 290.123722 -155.010102 
L 286.815421 -154.178839 
L 283.507121 -152.834835 
L 280.19882 -148.738649 
L 276.89052 -148.255964 
L 273.58222 -147.391599 
L 270.273919 -146.753156 
L 266.965619 -144.341009 
L 263.657318 -144.038764 
L 260.349018 -143.943201 
L 257.040718 -143.9325 
L 253.732417 -143.922107 
L 250.424117 -143.921171 
L 247.115816 -143.915827 
L 243.807516 -143.914431 
L 240.499216 -143.908096 
L 237.190915 -143.906084 
L 233.882615 -143.899749 
L 230.574314 -143.898514 
L 227.266014 -143.88925 
L 223.957714 -143.889009 
L 220.649413 -143.883389 
L 217.341113 -143.882233 
L 214.032813 -143.880568 
L 210.724512 -143.875662 
L 207.416212 -143.869798 
L 204.107911 -143.863527 
L 200.799611 -143.862875 
L 197.491311 -143.861947 
L 194.18301 -143.857726 
L 190.87471 -143.854086 
L 187.566409 -143.851509 
L 184.258109 -143.847739 
L 180.949809 -143.847682 
L 177.641508 -143.844706 
L 174.333208 -143.842815 
L 171.024907 -143.842803 
L 167.716607 -143.842143 
L 164.408307 -143.836976 
L 161.100006 -143.835492 
L 157.791706 -143.834029 
L 154.483405 -143.829956 
L 151.175105 -143.82934 
L 147.866805 -143.823953 
L 144.558504 -143.81724 
L 141.250204 -143.816692 
L 137.941903 -143.811821 
L 134.633603 -143.804965 
L 131.325303 -143.793495 
L 128.017002 -143.781987 
L 124.708702 -143.777749 
L 121.400401 -143.74488 
L 118.092101 -143.720841 
L 114.783801 -143.405393 
L 111.4755 -143.049671 
L 108.1672 -138.994623 
L 104.858899 -132.297809 
L 101.550599 -130.749662 
L 98.242299 -126.456635 
L 94.933998 -125.778369 
L 91.625698 -117.815536 
L 88.317397 -112.212514 
L 85.009097 -109.920961 
L 81.700797 -90.519915 
L 78.392496 -88.078055 
L 75.084196 -74.767848 
L 71.775896 -58.250223 
L 68.467595 -55.1655 
L 65.159295 -39.683881 
L 61.850994 -25.82 
z
" id="m2aec067d82" style="stroke:#f14432;stroke-opacity:0.8;"/>
    </defs>
    <g clip-path="url(#p1cac55e7f9)">
     <use style="fill:#f14432;fill-opacity:0.8;stroke:#f14432;stroke-opacity:0.8;" x="0" xlink:href="#m2aec067d82" y="354.04"/>
    </g>
   </g>
   <g id="matplotlib.axis_1"/>
   <g id="matplotlib.axis_2">
    <g id="ytick_1">
     <g id="line2d_1">
      <defs>
       <path d="M 0 0 
L -3.5 0 
" id="mc70b05a66d" style="stroke:#000000;stroke-width:0.8;"/>
      </defs>
      <g>
       <use style="stroke:#000000;stroke-width:0.8;" x="46.632812" xlink:href="#mc70b05a66d" y="331.647771"/>
      </g>
     </g>
     <g id="text_1">
      <!-- −4 -->
      <defs>
       <path d="M 10.59375 35.5 
L 73.1875 35.5 
L 73.1875 27.203125 
L 10.59375 27.203125 
z
" id="DejaVuSans-2212"/>
       <path d="M 37.796875 64.3125 
L 12.890625 25.390625 
L 37.796875 25.390625 
z
M 35.203125 72.90625 
L 47.609375 72.90625 
L 47.609375 25.390625 
L 58.015625 25.390625 
L 58.015625 17.1875 
L 47.609375 17.1875 
L 47.609375 0 
L 37.796875 0 
L 37.796875 17.1875 
L 4.890625 17.1875 
L 4.890625 26.703125 
z
" id="DejaVuSans-34"/>
      </defs>
      <g transform="translate(7.2 340.006052)scale(0.22 -0.22)">
       <use xlink:href="#DejaVuSans-2212"/>
       <use x="83.789062" xlink:href="#DejaVuSans-34"/>
      </g>
     </g>
    </g>
    <g id="ytick_2">
     <g id="line2d_2">
      <g>
       <use style="stroke:#000000;stroke-width:0.8;" x="46.632812" xlink:href="#mc70b05a66d" y="270.910635"/>
      </g>
     </g>
     <g id="text_2">
      <!-- −2 -->
      <defs>
       <path d="M 19.1875 8.296875 
L 53.609375 8.296875 
L 53.609375 0 
L 7.328125 0 
L 7.328125 8.296875 
Q 12.9375 14.109375 22.625 23.890625 
Q 32.328125 33.6875 34.8125 36.53125 
Q 39.546875 41.84375 41.421875 45.53125 
Q 43.3125 49.21875 43.3125 52.78125 
Q 43.3125 58.59375 39.234375 62.25 
Q 35.15625 65.921875 28.609375 65.921875 
Q 23.96875 65.921875 18.8125 64.3125 
Q 13.671875 62.703125 7.8125 59.421875 
L 7.8125 69.390625 
Q 13.765625 71.78125 18.9375 73 
Q 24.125 74.21875 28.421875 74.21875 
Q 39.75 74.21875 46.484375 68.546875 
Q 53.21875 62.890625 53.21875 53.421875 
Q 53.21875 48.921875 51.53125 44.890625 
Q 49.859375 40.875 45.40625 35.40625 
Q 44.1875 33.984375 37.640625 27.21875 
Q 31.109375 20.453125 19.1875 8.296875 
z
" id="DejaVuSans-32"/>
      </defs>
      <g transform="translate(7.2 279.268916)scale(0.22 -0.22)">
       <use xlink:href="#DejaVuSans-2212"/>
       <use x="83.789062" xlink:href="#DejaVuSans-32"/>
      </g>
     </g>
    </g>
    <g id="ytick_3">
     <g id="line2d_3">
      <g>
       <use style="stroke:#000000;stroke-width:0.8;" x="46.632812" xlink:href="#mc70b05a66d" y="210.1735"/>
      </g>
     </g>
     <g id="text_3">
      <!-- 0 -->
      <defs>
       <path d="M 31.78125 66.40625 
Q 24.171875 66.40625 20.328125 58.90625 
Q 16.5 51.421875 16.5 36.375 
Q 16.5 21.390625 20.328125 13.890625 
Q 24.171875 6.390625 31.78125 6.390625 
Q 39.453125 6.390625 43.28125 13.890625 
Q 47.125 21.390625 47.125 36.375 
Q 47.125 51.421875 43.28125 58.90625 
Q 39.453125 66.40625 31.78125 66.40625 
z
M 31.78125 74.21875 
Q 44.046875 74.21875 50.515625 64.515625 
Q 56.984375 54.828125 56.984375 36.375 
Q 56.984375 17.96875 50.515625 8.265625 
Q 44.046875 -1.421875 31.78125 -1.421875 
Q 19.53125 -1.421875 13.0625 8.265625 
Q 6.59375 17.96875 6.59375 36.375 
Q 6.59375 54.828125 13.0625 64.515625 
Q 19.53125 74.21875 31.78125 74.21875 
z
" id="DejaVuSans-30"/>
      </defs>
      <g transform="translate(25.635312 218.531781)scale(0.22 -0.22)">
       <use xlink:href="#DejaVuSans-30"/>
      </g>
     </g>
    </g>
    <g id="ytick_4">
     <g id="line2d_4">
      <g>
       <use style="stroke:#000000;stroke-width:0.8;" x="46.632812" xlink:href="#mc70b05a66d" y="149.436364"/>
      </g>
     </g>
     <g id="text_4">
      <!-- 2 -->
      <g transform="translate(25.635312 157.794645)scale(0.22 -0.22)">
       <use xlink:href="#DejaVuSans-32"/>
      </g>
     </g>
    </g>
    <g id="ytick_5">
     <g id="line2d_5">
      <g>
       <use style="stroke:#000000;stroke-width:0.8;" x="46.632812" xlink:href="#mc70b05a66d" y="88.699229"/>
      </g>
     </g>
     <g id="text_5">
      <!-- 4 -->
      <g transform="translate(25.635312 97.05751)scale(0.22 -0.22)">
       <use xlink:href="#DejaVuSans-34"/>
      </g>
     </g>
    </g>
    <g id="ytick_6">
     <g id="line2d_6">
      <g>
       <use style="stroke:#000000;stroke-width:0.8;" x="46.632812" xlink:href="#mc70b05a66d" y="27.962093"/>
      </g>
     </g>
     <g id="text_6">
      <!-- 6 -->
      <defs>
       <path d="M 33.015625 40.375 
Q 26.375 40.375 22.484375 35.828125 
Q 18.609375 31.296875 18.609375 23.390625 
Q 18.609375 15.53125 22.484375 10.953125 
Q 26.375 6.390625 33.015625 6.390625 
Q 39.65625 6.390625 43.53125 10.953125 
Q 47.40625 15.53125 47.40625 23.390625 
Q 47.40625 31.296875 43.53125 35.828125 
Q 39.65625 40.375 33.015625 40.375 
z
M 52.59375 71.296875 
L 52.59375 62.3125 
Q 48.875 64.0625 45.09375 64.984375 
Q 41.3125 65.921875 37.59375 65.921875 
Q 27.828125 65.921875 22.671875 59.328125 
Q 17.53125 52.734375 16.796875 39.40625 
Q 19.671875 43.65625 24.015625 45.921875 
Q 28.375 48.1875 33.59375 48.1875 
Q 44.578125 48.1875 50.953125 41.515625 
Q 57.328125 34.859375 57.328125 23.390625 
Q 57.328125 12.15625 50.6875 5.359375 
Q 44.046875 -1.421875 33.015625 -1.421875 
Q 20.359375 -1.421875 13.671875 8.265625 
Q 6.984375 17.96875 6.984375 36.375 
Q 6.984375 53.65625 15.1875 63.9375 
Q 23.390625 74.21875 37.203125 74.21875 
Q 40.921875 74.21875 44.703125 73.484375 
Q 48.484375 72.75 52.59375 71.296875 
z
" id="DejaVuSans-36"/>
      </defs>
      <g transform="translate(25.635312 36.320374)scale(0.22 -0.22)">
       <use xlink:href="#DejaVuSans-36"/>
      </g>
     </g>
    </g>
   </g>
   <g id="patch_3">
    <path d="M 46.632812 343.34 
L 46.632812 10.7 
" style="fill:none;stroke:#000000;stroke-linecap:square;stroke-linejoin:miter;stroke-width:0.8;"/>
   </g>
   <g id="patch_4">
    <path d="M 381.432813 343.34 
L 381.432813 10.7 
" style="fill:none;stroke:#000000;stroke-linecap:square;stroke-linejoin:miter;stroke-width:0.8;"/>
   </g>
   <g id="patch_5">
    <path d="M 46.632812 343.34 
L 381.432813 343.34 
" style="fill:none;stroke:#000000;stroke-linecap:square;stroke-linejoin:miter;stroke-width:0.8;"/>
   </g>
   <g id="patch_6">
    <path d="M 46.632812 10.7 
L 381.432813 10.7 
" style="fill:none;stroke:#000000;stroke-linecap:square;stroke-linejoin:miter;stroke-width:0.8;"/>
   </g>
  </g>
 </g>
 <defs>
  <clipPath id="p1cac55e7f9">
   <rect height="332.64" width="334.8" x="46.632812" y="10.7"/>
  </clipPath>
 </defs>
</svg>
