<?xml version="1.0" encoding="utf-8" standalone="no"?>
<!DOCTYPE svg PUBLIC "-//W3C//DTD SVG 1.1//EN"
  "http://www.w3.org/Graphics/SVG/1.1/DTD/svg11.dtd">
<!-- Created with matplotlib (http://matplotlib.org/) -->
<svg height="354pt" version="1.1" viewBox="0 0 455 354" width="455pt" xmlns="http://www.w3.org/2000/svg" xmlns:xlink="http://www.w3.org/1999/xlink">
 <defs>
  <style type="text/css">
*{stroke-linecap:butt;stroke-linejoin:round;}
  </style>
 </defs>
 <g id="figure_1">
  <g id="patch_1">
   <path d="M 0 354.04 
L 455.114687 354.04 
L 455.114687 0 
L 0 0 
z
" style="fill:#ffffff;"/>
  </g>
  <g id="axes_1">
   <g id="patch_2">
    <path d="M 109.614687 343.34 
L 444.414688 343.34 
L 444.414688 10.7 
L 109.614687 10.7 
z
" style="fill:#ffffff;"/>
   </g>
   <g id="PolyCollection_1">
    <defs>
     <path d="M 124.832869 -25.82 
L 124.832869 -200.069399 
L 128.14117 -200.069399 
L 131.44947 -200.069399 
L 134.757771 -200.069399 
L 138.066071 -200.069399 
L 141.374371 -200.069399 
L 144.682672 -200.069399 
L 147.990972 -200.069399 
L 151.299272 -200.069399 
L 154.607573 -200.069399 
L 157.915873 -200.069399 
L 161.224174 -200.069399 
L 164.532474 -200.069399 
L 167.840774 -200.069399 
L 171.149075 -200.069399 
L 174.457375 -200.069399 
L 177.765676 -200.069399 
L 181.073976 -200.069399 
L 184.382276 -200.069399 
L 187.690577 -200.069399 
L 190.998877 -200.069399 
L 194.307178 -200.069399 
L 197.615478 -200.069399 
L 200.923778 -200.069399 
L 204.232079 -200.069399 
L 207.540379 -200.069399 
L 210.84868 -200.069399 
L 214.15698 -200.069399 
L 217.46528 -200.069399 
L 220.773581 -200.069399 
L 224.081881 -200.069399 
L 227.390182 -200.069399 
L 230.698482 -200.069399 
L 234.006782 -200.069399 
L 237.315083 -200.069399 
L 240.623383 -200.069399 
L 243.931684 -200.069399 
L 247.239984 -200.069399 
L 250.548284 -200.069399 
L 253.856585 -200.069399 
L 257.164885 -200.069399 
L 260.473186 -200.069399 
L 263.781486 -200.069399 
L 267.089786 -200.069399 
L 270.398087 -200.069399 
L 273.706387 -200.069399 
L 277.014688 -200.069399 
L 280.322988 -200.069399 
L 283.631288 -200.069399 
L 286.939589 -200.069399 
L 290.247889 -200.069399 
L 293.556189 -200.069399 
L 296.86449 -200.069399 
L 300.17279 -200.069399 
L 303.481091 -200.069399 
L 306.789391 -200.069399 
L 310.097691 -200.069399 
L 313.405992 -200.069399 
L 316.714292 -200.069399 
L 320.022593 -200.069399 
L 323.330893 -200.069399 
L 326.639193 -200.069399 
L 329.947494 -200.069399 
L 333.255794 -200.069399 
L 336.564095 -200.069399 
L 339.872395 -200.069399 
L 343.180695 -200.069399 
L 346.488996 -200.069399 
L 349.797296 -200.069399 
L 353.105597 -200.069399 
L 356.413897 -200.069399 
L 359.722197 -200.069399 
L 363.030498 -200.069399 
L 366.338798 -200.069399 
L 369.647099 -200.069399 
L 372.955399 -200.069399 
L 376.263699 -200.069399 
L 379.572 -200.069399 
L 382.8803 -200.069399 
L 386.188601 -200.069399 
L 389.496901 -200.069399 
L 392.805201 -200.069399 
L 396.113502 -200.069399 
L 399.421802 -200.069399 
L 402.730103 -200.069399 
L 406.038403 -200.069399 
L 409.346703 -200.069399 
L 412.655004 -200.069399 
L 415.963304 -200.069399 
L 419.271604 -200.069399 
L 422.579905 -200.069399 
L 425.888205 -200.069399 
L 429.196506 -200.069399 
L 429.196506 -328.22 
L 429.196506 -328.22 
L 425.888205 -300.147181 
L 422.579905 -299.885654 
L 419.271604 -297.466251 
L 415.963304 -278.815037 
L 412.655004 -270.924862 
L 409.346703 -267.168312 
L 406.038403 -267.158895 
L 402.730103 -265.507662 
L 399.421802 -257.554647 
L 396.113502 -256.389916 
L 392.805201 -255.419789 
L 389.496901 -252.244634 
L 386.188601 -250.769091 
L 382.8803 -249.903898 
L 379.572 -247.566976 
L 376.263699 -245.368871 
L 372.955399 -244.88764 
L 369.647099 -244.283675 
L 366.338798 -242.243972 
L 363.030498 -241.785735 
L 359.722197 -241.122625 
L 356.413897 -240.946276 
L 353.105597 -240.718919 
L 349.797296 -239.668595 
L 346.488996 -239.273086 
L 343.180695 -234.188371 
L 339.872395 -230.388192 
L 336.564095 -229.890017 
L 333.255794 -227.080573 
L 329.947494 -223.956216 
L 326.639193 -223.757175 
L 323.330893 -222.390695 
L 320.022593 -220.101827 
L 316.714292 -219.945182 
L 313.405992 -219.279025 
L 310.097691 -219.15914 
L 306.789391 -219.095054 
L 303.481091 -218.794147 
L 300.17279 -216.932825 
L 296.86449 -216.242215 
L 293.556189 -215.368078 
L 290.247889 -215.31358 
L 286.939589 -215.099551 
L 283.631288 -215.011668 
L 280.322988 -214.83991 
L 277.014688 -214.448176 
L 273.706387 -213.948185 
L 270.398087 -213.766234 
L 267.089786 -209.738171 
L 263.781486 -209.368684 
L 260.473186 -207.424727 
L 257.164885 -206.087512 
L 253.856585 -204.025765 
L 250.548284 -203.656579 
L 247.239984 -202.968377 
L 243.931684 -202.938406 
L 240.623383 -202.834021 
L 237.315083 -200.913306 
L 234.006782 -200.900741 
L 230.698482 -200.02354 
L 227.390182 -199.034182 
L 224.081881 -198.738503 
L 220.773581 -197.628347 
L 217.46528 -197.100241 
L 214.15698 -196.856582 
L 210.84868 -195.54346 
L 207.540379 -194.866524 
L 204.232079 -194.814414 
L 200.923778 -192.396728 
L 197.615478 -191.187357 
L 194.307178 -189.667697 
L 190.998877 -188.85212 
L 187.690577 -188.099326 
L 184.382276 -187.209845 
L 181.073976 -187.016526 
L 177.765676 -182.494 
L 174.457375 -182.308409 
L 171.149075 -179.73685 
L 167.840774 -178.946577 
L 164.532474 -177.859184 
L 161.224174 -176.388935 
L 157.915873 -175.360823 
L 154.607573 -174.486332 
L 151.299272 -174.293549 
L 147.990972 -172.298871 
L 144.682672 -166.998701 
L 141.374371 -164.85855 
L 138.066071 -151.975262 
L 134.757771 -145.955894 
L 131.44947 -139.02485 
L 128.14117 -75.605543 
L 124.832869 -25.82 
z
" id="m76fbf85c90" style="stroke:#4a98c9;"/>
    </defs>
    <g clip-path="url(#pc4f125b607)">
     <use style="fill:#4a98c9;stroke:#4a98c9;" x="0" xlink:href="#m76fbf85c90" y="354.04"/>
    </g>
   </g>
   <g id="PolyCollection_2">
    <defs>
     <path d="M 124.832869 -25.82 
L 124.832869 -200.069399 
L 128.14117 -200.069399 
L 131.44947 -200.069399 
L 134.757771 -200.069399 
L 138.066071 -200.069399 
L 141.374371 -200.069399 
L 144.682672 -200.069399 
L 147.990972 -200.069399 
L 151.299272 -200.069399 
L 154.607573 -200.069399 
L 157.915873 -200.069399 
L 161.224174 -200.069399 
L 164.532474 -200.069399 
L 167.840774 -200.069399 
L 171.149075 -200.069399 
L 174.457375 -200.069399 
L 177.765676 -200.069399 
L 181.073976 -200.069399 
L 184.382276 -200.069399 
L 187.690577 -200.069399 
L 190.998877 -200.069399 
L 194.307178 -200.069399 
L 197.615478 -200.069399 
L 200.923778 -200.069399 
L 204.232079 -200.069399 
L 207.540379 -200.069399 
L 210.84868 -200.069399 
L 214.15698 -200.069399 
L 217.46528 -200.069399 
L 220.773581 -200.069399 
L 224.081881 -200.069399 
L 227.390182 -200.069399 
L 230.698482 -200.069399 
L 234.006782 -200.069399 
L 237.315083 -200.069399 
L 240.623383 -200.069399 
L 243.931684 -200.069399 
L 247.239984 -200.069399 
L 250.548284 -200.069399 
L 253.856585 -200.069399 
L 257.164885 -200.069399 
L 260.473186 -200.069399 
L 263.781486 -200.069399 
L 267.089786 -200.069399 
L 270.398087 -200.069399 
L 273.706387 -200.069399 
L 277.014688 -200.069399 
L 280.322988 -200.069399 
L 283.631288 -200.069399 
L 286.939589 -200.069399 
L 290.247889 -200.069399 
L 293.556189 -200.069399 
L 296.86449 -200.069399 
L 300.17279 -200.069399 
L 303.481091 -200.069399 
L 306.789391 -200.069399 
L 310.097691 -200.069399 
L 313.405992 -200.069399 
L 316.714292 -200.069399 
L 320.022593 -200.069399 
L 323.330893 -200.069399 
L 326.639193 -200.069399 
L 329.947494 -200.069399 
L 333.255794 -200.069399 
L 336.564095 -200.069399 
L 339.872395 -200.069399 
L 343.180695 -200.069399 
L 346.488996 -200.069399 
L 349.797296 -200.069399 
L 353.105597 -200.069399 
L 356.413897 -200.069399 
L 359.722197 -200.069399 
L 363.030498 -200.069399 
L 366.338798 -200.069399 
L 369.647099 -200.069399 
L 372.955399 -200.069399 
L 376.263699 -200.069399 
L 379.572 -200.069399 
L 382.8803 -200.069399 
L 386.188601 -200.069399 
L 389.496901 -200.069399 
L 392.805201 -200.069399 
L 396.113502 -200.069399 
L 399.421802 -200.069399 
L 402.730103 -200.069399 
L 406.038403 -200.069399 
L 409.346703 -200.069399 
L 412.655004 -200.069399 
L 415.963304 -200.069399 
L 419.271604 -200.069399 
L 422.579905 -200.069399 
L 425.888205 -200.069399 
L 429.196506 -200.069399 
L 429.196506 -328.22 
L 429.196506 -328.22 
L 425.888205 -300.147181 
L 422.579905 -299.885654 
L 419.271604 -297.466251 
L 415.963304 -278.815037 
L 412.655004 -270.924862 
L 409.346703 -267.168312 
L 406.038403 -267.158895 
L 402.730103 -265.507662 
L 399.421802 -257.554647 
L 396.113502 -256.389916 
L 392.805201 -255.419789 
L 389.496901 -252.244634 
L 386.188601 -250.769091 
L 382.8803 -249.903898 
L 379.572 -247.566976 
L 376.263699 -245.368871 
L 372.955399 -244.88764 
L 369.647099 -244.283675 
L 366.338798 -242.243972 
L 363.030498 -241.785735 
L 359.722197 -241.122625 
L 356.413897 -240.946276 
L 353.105597 -240.718919 
L 349.797296 -239.668595 
L 346.488996 -239.273086 
L 343.180695 -234.188371 
L 339.872395 -230.388192 
L 336.564095 -229.890017 
L 333.255794 -227.080573 
L 329.947494 -223.956216 
L 326.639193 -223.757175 
L 323.330893 -222.390695 
L 320.022593 -220.101827 
L 316.714292 -219.945182 
L 313.405992 -219.279025 
L 310.097691 -219.15914 
L 306.789391 -219.095054 
L 303.481091 -218.794147 
L 300.17279 -216.932825 
L 296.86449 -216.242215 
L 293.556189 -215.368078 
L 290.247889 -215.31358 
L 286.939589 -215.099551 
L 283.631288 -215.011668 
L 280.322988 -214.83991 
L 277.014688 -214.448176 
L 273.706387 -213.948185 
L 270.398087 -213.766234 
L 267.089786 -209.738171 
L 263.781486 -209.368684 
L 260.473186 -207.424727 
L 257.164885 -206.087512 
L 253.856585 -204.025765 
L 250.548284 -203.656579 
L 247.239984 -202.968377 
L 243.931684 -202.938406 
L 240.623383 -202.834021 
L 237.315083 -200.913306 
L 234.006782 -200.900741 
L 230.698482 -200.02354 
L 227.390182 -199.034182 
L 224.081881 -198.738503 
L 220.773581 -197.628347 
L 217.46528 -197.100241 
L 214.15698 -196.856582 
L 210.84868 -195.54346 
L 207.540379 -194.866524 
L 204.232079 -194.814414 
L 200.923778 -192.396728 
L 197.615478 -191.187357 
L 194.307178 -189.667697 
L 190.998877 -188.85212 
L 187.690577 -188.099326 
L 184.382276 -187.209845 
L 181.073976 -187.016526 
L 177.765676 -182.494 
L 174.457375 -182.308409 
L 171.149075 -179.73685 
L 167.840774 -178.946577 
L 164.532474 -177.859184 
L 161.224174 -176.388935 
L 157.915873 -175.360823 
L 154.607573 -174.486332 
L 151.299272 -174.293549 
L 147.990972 -172.298871 
L 144.682672 -166.998701 
L 141.374371 -164.85855 
L 138.066071 -151.975262 
L 134.757771 -145.955894 
L 131.44947 -139.02485 
L 128.14117 -75.605543 
L 124.832869 -25.82 
z
" id="m915b341ee5" style="stroke:#f14432;stroke-opacity:0.8;"/>
    </defs>
    <g clip-path="url(#pc4f125b607)">
     <use style="fill:#f14432;fill-opacity:0.8;stroke:#f14432;stroke-opacity:0.8;" x="0" xlink:href="#m915b341ee5" y="354.04"/>
    </g>
   </g>
   <g id="matplotlib.axis_1"/>
   <g id="matplotlib.axis_2">
    <g id="ytick_1">
     <g id="line2d_1">
      <defs>
       <path d="M 0 0 
L -3.5 0 
" id="m6eaa8adf96" style="stroke:#000000;stroke-width:0.8;"/>
      </defs>
      <g>
       <use style="stroke:#000000;stroke-width:0.8;" x="109.614687" xlink:href="#m6eaa8adf96" y="316.97958"/>
      </g>
     </g>
     <g id="text_1">
      <!-- −0.0006 -->
      <defs>
       <path d="M 10.59375 35.5 
L 73.1875 35.5 
L 73.1875 27.203125 
L 10.59375 27.203125 
z
" id="DejaVuSans-2212"/>
       <path d="M 31.78125 66.40625 
Q 24.171875 66.40625 20.328125 58.90625 
Q 16.5 51.421875 16.5 36.375 
Q 16.5 21.390625 20.328125 13.890625 
Q 24.171875 6.390625 31.78125 6.390625 
Q 39.453125 6.390625 43.28125 13.890625 
Q 47.125 21.390625 47.125 36.375 
Q 47.125 51.421875 43.28125 58.90625 
Q 39.453125 66.40625 31.78125 66.40625 
z
M 31.78125 74.21875 
Q 44.046875 74.21875 50.515625 64.515625 
Q 56.984375 54.828125 56.984375 36.375 
Q 56.984375 17.96875 50.515625 8.265625 
Q 44.046875 -1.421875 31.78125 -1.421875 
Q 19.53125 -1.421875 13.0625 8.265625 
Q 6.59375 17.96875 6.59375 36.375 
Q 6.59375 54.828125 13.0625 64.515625 
Q 19.53125 74.21875 31.78125 74.21875 
z
" id="DejaVuSans-30"/>
       <path d="M 10.6875 12.40625 
L 21 12.40625 
L 21 0 
L 10.6875 0 
z
" id="DejaVuSans-2e"/>
       <path d="M 33.015625 40.375 
Q 26.375 40.375 22.484375 35.828125 
Q 18.609375 31.296875 18.609375 23.390625 
Q 18.609375 15.53125 22.484375 10.953125 
Q 26.375 6.390625 33.015625 6.390625 
Q 39.65625 6.390625 43.53125 10.953125 
Q 47.40625 15.53125 47.40625 23.390625 
Q 47.40625 31.296875 43.53125 35.828125 
Q 39.65625 40.375 33.015625 40.375 
z
M 52.59375 71.296875 
L 52.59375 62.3125 
Q 48.875 64.0625 45.09375 64.984375 
Q 41.3125 65.921875 37.59375 65.921875 
Q 27.828125 65.921875 22.671875 59.328125 
Q 17.53125 52.734375 16.796875 39.40625 
Q 19.671875 43.65625 24.015625 45.921875 
Q 28.375 48.1875 33.59375 48.1875 
Q 44.578125 48.1875 50.953125 41.515625 
Q 57.328125 34.859375 57.328125 23.390625 
Q 57.328125 12.15625 50.6875 5.359375 
Q 44.046875 -1.421875 33.015625 -1.421875 
Q 20.359375 -1.421875 13.671875 8.265625 
Q 6.984375 17.96875 6.984375 36.375 
Q 6.984375 53.65625 15.1875 63.9375 
Q 23.390625 74.21875 37.203125 74.21875 
Q 40.921875 74.21875 44.703125 73.484375 
Q 48.484375 72.75 52.59375 71.296875 
z
" id="DejaVuSans-36"/>
      </defs>
      <g transform="translate(7.2 325.337861)scale(0.22 -0.22)">
       <use xlink:href="#DejaVuSans-2212"/>
       <use x="83.789062" xlink:href="#DejaVuSans-30"/>
       <use x="147.412109" xlink:href="#DejaVuSans-2e"/>
       <use x="179.199219" xlink:href="#DejaVuSans-30"/>
       <use x="242.822266" xlink:href="#DejaVuSans-30"/>
       <use x="306.445312" xlink:href="#DejaVuSans-30"/>
       <use x="370.068359" xlink:href="#DejaVuSans-36"/>
      </g>
     </g>
    </g>
    <g id="ytick_2">
     <g id="line2d_2">
      <g>
       <use style="stroke:#000000;stroke-width:0.8;" x="109.614687" xlink:href="#m6eaa8adf96" y="262.643253"/>
      </g>
     </g>
     <g id="text_2">
      <!-- −0.0004 -->
      <defs>
       <path d="M 37.796875 64.3125 
L 12.890625 25.390625 
L 37.796875 25.390625 
z
M 35.203125 72.90625 
L 47.609375 72.90625 
L 47.609375 25.390625 
L 58.015625 25.390625 
L 58.015625 17.1875 
L 47.609375 17.1875 
L 47.609375 0 
L 37.796875 0 
L 37.796875 17.1875 
L 4.890625 17.1875 
L 4.890625 26.703125 
z
" id="DejaVuSans-34"/>
      </defs>
      <g transform="translate(7.2 271.001535)scale(0.22 -0.22)">
       <use xlink:href="#DejaVuSans-2212"/>
       <use x="83.789062" xlink:href="#DejaVuSans-30"/>
       <use x="147.412109" xlink:href="#DejaVuSans-2e"/>
       <use x="179.199219" xlink:href="#DejaVuSans-30"/>
       <use x="242.822266" xlink:href="#DejaVuSans-30"/>
       <use x="306.445312" xlink:href="#DejaVuSans-30"/>
       <use x="370.068359" xlink:href="#DejaVuSans-34"/>
      </g>
     </g>
    </g>
    <g id="ytick_3">
     <g id="line2d_3">
      <g>
       <use style="stroke:#000000;stroke-width:0.8;" x="109.614687" xlink:href="#m6eaa8adf96" y="208.306927"/>
      </g>
     </g>
     <g id="text_3">
      <!-- −0.0002 -->
      <defs>
       <path d="M 19.1875 8.296875 
L 53.609375 8.296875 
L 53.609375 0 
L 7.328125 0 
L 7.328125 8.296875 
Q 12.9375 14.109375 22.625 23.890625 
Q 32.328125 33.6875 34.8125 36.53125 
Q 39.546875 41.84375 41.421875 45.53125 
Q 43.3125 49.21875 43.3125 52.78125 
Q 43.3125 58.59375 39.234375 62.25 
Q 35.15625 65.921875 28.609375 65.921875 
Q 23.96875 65.921875 18.8125 64.3125 
Q 13.671875 62.703125 7.8125 59.421875 
L 7.8125 69.390625 
Q 13.765625 71.78125 18.9375 73 
Q 24.125 74.21875 28.421875 74.21875 
Q 39.75 74.21875 46.484375 68.546875 
Q 53.21875 62.890625 53.21875 53.421875 
Q 53.21875 48.921875 51.53125 44.890625 
Q 49.859375 40.875 45.40625 35.40625 
Q 44.1875 33.984375 37.640625 27.21875 
Q 31.109375 20.453125 19.1875 8.296875 
z
" id="DejaVuSans-32"/>
      </defs>
      <g transform="translate(7.2 216.665208)scale(0.22 -0.22)">
       <use xlink:href="#DejaVuSans-2212"/>
       <use x="83.789062" xlink:href="#DejaVuSans-30"/>
       <use x="147.412109" xlink:href="#DejaVuSans-2e"/>
       <use x="179.199219" xlink:href="#DejaVuSans-30"/>
       <use x="242.822266" xlink:href="#DejaVuSans-30"/>
       <use x="306.445312" xlink:href="#DejaVuSans-30"/>
       <use x="370.068359" xlink:href="#DejaVuSans-32"/>
      </g>
     </g>
    </g>
    <g id="ytick_4">
     <g id="line2d_4">
      <g>
       <use style="stroke:#000000;stroke-width:0.8;" x="109.614687" xlink:href="#m6eaa8adf96" y="153.970601"/>
      </g>
     </g>
     <g id="text_4">
      <!-- 0.0000 -->
      <g transform="translate(25.635312 162.328882)scale(0.22 -0.22)">
       <use xlink:href="#DejaVuSans-30"/>
       <use x="63.623047" xlink:href="#DejaVuSans-2e"/>
       <use x="95.410156" xlink:href="#DejaVuSans-30"/>
       <use x="159.033203" xlink:href="#DejaVuSans-30"/>
       <use x="222.65625" xlink:href="#DejaVuSans-30"/>
       <use x="286.279297" xlink:href="#DejaVuSans-30"/>
      </g>
     </g>
    </g>
    <g id="ytick_5">
     <g id="line2d_5">
      <g>
       <use style="stroke:#000000;stroke-width:0.8;" x="109.614687" xlink:href="#m6eaa8adf96" y="99.634274"/>
      </g>
     </g>
     <g id="text_5">
      <!-- 0.0002 -->
      <g transform="translate(25.635312 107.992555)scale(0.22 -0.22)">
       <use xlink:href="#DejaVuSans-30"/>
       <use x="63.623047" xlink:href="#DejaVuSans-2e"/>
       <use x="95.410156" xlink:href="#DejaVuSans-30"/>
       <use x="159.033203" xlink:href="#DejaVuSans-30"/>
       <use x="222.65625" xlink:href="#DejaVuSans-30"/>
       <use x="286.279297" xlink:href="#DejaVuSans-32"/>
      </g>
     </g>
    </g>
    <g id="ytick_6">
     <g id="line2d_6">
      <g>
       <use style="stroke:#000000;stroke-width:0.8;" x="109.614687" xlink:href="#m6eaa8adf96" y="45.297948"/>
      </g>
     </g>
     <g id="text_6">
      <!-- 0.0004 -->
      <g transform="translate(25.635312 53.656229)scale(0.22 -0.22)">
       <use xlink:href="#DejaVuSans-30"/>
       <use x="63.623047" xlink:href="#DejaVuSans-2e"/>
       <use x="95.410156" xlink:href="#DejaVuSans-30"/>
       <use x="159.033203" xlink:href="#DejaVuSans-30"/>
       <use x="222.65625" xlink:href="#DejaVuSans-30"/>
       <use x="286.279297" xlink:href="#DejaVuSans-34"/>
      </g>
     </g>
    </g>
   </g>
   <g id="patch_3">
    <path d="M 109.614687 343.34 
L 109.614687 10.7 
" style="fill:none;stroke:#000000;stroke-linecap:square;stroke-linejoin:miter;stroke-width:0.8;"/>
   </g>
   <g id="patch_4">
    <path d="M 444.414688 343.34 
L 444.414688 10.7 
" style="fill:none;stroke:#000000;stroke-linecap:square;stroke-linejoin:miter;stroke-width:0.8;"/>
   </g>
   <g id="patch_5">
    <path d="M 109.614687 343.34 
L 444.414688 343.34 
" style="fill:none;stroke:#000000;stroke-linecap:square;stroke-linejoin:miter;stroke-width:0.8;"/>
   </g>
   <g id="patch_6">
    <path d="M 109.614687 10.7 
L 444.414688 10.7 
" style="fill:none;stroke:#000000;stroke-linecap:square;stroke-linejoin:miter;stroke-width:0.8;"/>
   </g>
  </g>
 </g>
 <defs>
  <clipPath id="pc4f125b607">
   <rect height="332.64" width="334.8" x="109.614687" y="10.7"/>
  </clipPath>
 </defs>
</svg>
