<?xml version="1.0" encoding="utf-8" standalone="no"?>
<!DOCTYPE svg PUBLIC "-//W3C//DTD SVG 1.1//EN"
  "http://www.w3.org/Graphics/SVG/1.1/DTD/svg11.dtd">
<!-- Created with matplotlib (http://matplotlib.org/) -->
<svg height="354pt" version="1.1" viewBox="0 0 455 354" width="455pt" xmlns="http://www.w3.org/2000/svg" xmlns:xlink="http://www.w3.org/1999/xlink">
 <defs>
  <style type="text/css">
*{stroke-linecap:butt;stroke-linejoin:round;}
  </style>
 </defs>
 <g id="figure_1">
  <g id="patch_1">
   <path d="M 0 354.04 
L 455.114687 354.04 
L 455.114687 0 
L 0 0 
z
" style="fill:#ffffff;"/>
  </g>
  <g id="axes_1">
   <g id="patch_2">
    <path d="M 109.614687 343.34 
L 444.414688 343.34 
L 444.414688 10.7 
L 109.614687 10.7 
z
" style="fill:#ffffff;"/>
   </g>
   <g id="PolyCollection_1">
    <defs>
     <path d="M 124.832869 -25.82 
L 124.832869 -148.538061 
L 128.14117 -148.538061 
L 131.44947 -148.538061 
L 134.757771 -148.538061 
L 138.066071 -148.538061 
L 141.374371 -148.538061 
L 144.682672 -148.538061 
L 147.990972 -148.538061 
L 151.299272 -148.538061 
L 154.607573 -148.538061 
L 157.915873 -148.538061 
L 161.224174 -148.538061 
L 164.532474 -148.538061 
L 167.840774 -148.538061 
L 171.149075 -148.538061 
L 174.457375 -148.538061 
L 177.765676 -148.538061 
L 181.073976 -148.538061 
L 184.382276 -148.538061 
L 187.690577 -148.538061 
L 190.998877 -148.538061 
L 194.307178 -148.538061 
L 197.615478 -148.538061 
L 200.923778 -148.538061 
L 204.232079 -148.538061 
L 207.540379 -148.538061 
L 210.84868 -148.538061 
L 214.15698 -148.538061 
L 217.46528 -148.538061 
L 220.773581 -148.538061 
L 224.081881 -148.538061 
L 227.390182 -148.538061 
L 230.698482 -148.538061 
L 234.006782 -148.538061 
L 237.315083 -148.538061 
L 240.623383 -148.538061 
L 243.931684 -148.538061 
L 247.239984 -148.538061 
L 250.548284 -148.538061 
L 253.856585 -148.538061 
L 257.164885 -148.538061 
L 260.473186 -148.538061 
L 263.781486 -148.538061 
L 267.089786 -148.538061 
L 270.398087 -148.538061 
L 273.706387 -148.538061 
L 277.014688 -148.538061 
L 280.322988 -148.538061 
L 283.631288 -148.538061 
L 286.939589 -148.538061 
L 290.247889 -148.538061 
L 293.556189 -148.538061 
L 296.86449 -148.538061 
L 300.17279 -148.538061 
L 303.481091 -148.538061 
L 306.789391 -148.538061 
L 310.097691 -148.538061 
L 313.405992 -148.538061 
L 316.714292 -148.538061 
L 320.022593 -148.538061 
L 323.330893 -148.538061 
L 326.639193 -148.538061 
L 329.947494 -148.538061 
L 333.255794 -148.538061 
L 336.564095 -148.538061 
L 339.872395 -148.538061 
L 343.180695 -148.538061 
L 346.488996 -148.538061 
L 349.797296 -148.538061 
L 353.105597 -148.538061 
L 356.413897 -148.538061 
L 359.722197 -148.538061 
L 363.030498 -148.538061 
L 366.338798 -148.538061 
L 369.647099 -148.538061 
L 372.955399 -148.538061 
L 376.263699 -148.538061 
L 379.572 -148.538061 
L 382.8803 -148.538061 
L 386.188601 -148.538061 
L 389.496901 -148.538061 
L 392.805201 -148.538061 
L 396.113502 -148.538061 
L 399.421802 -148.538061 
L 402.730103 -148.538061 
L 406.038403 -148.538061 
L 409.346703 -148.538061 
L 412.655004 -148.538061 
L 415.963304 -148.538061 
L 419.271604 -148.538061 
L 422.579905 -148.538061 
L 425.888205 -148.538061 
L 429.196506 -148.538061 
L 429.196506 -328.22 
L 429.196506 -328.22 
L 425.888205 -273.361958 
L 422.579905 -237.75806 
L 419.271604 -237.106785 
L 415.963304 -235.881268 
L 412.655004 -235.175324 
L 409.346703 -223.730328 
L 406.038403 -219.399899 
L 402.730103 -218.990183 
L 399.421802 -214.525706 
L 396.113502 -214.462126 
L 392.805201 -208.864524 
L 389.496901 -207.285283 
L 386.188601 -203.719743 
L 382.8803 -202.504366 
L 379.572 -202.342796 
L 376.263699 -194.266872 
L 372.955399 -192.865397 
L 369.647099 -190.781871 
L 366.338798 -188.271928 
L 363.030498 -187.5751 
L 359.722197 -187.525522 
L 356.413897 -186.235808 
L 353.105597 -182.822557 
L 349.797296 -175.216565 
L 346.488996 -174.952977 
L 343.180695 -174.543912 
L 339.872395 -172.516075 
L 336.564095 -170.175868 
L 333.255794 -165.626968 
L 329.947494 -164.463684 
L 326.639193 -162.871501 
L 323.330893 -161.687296 
L 320.022593 -160.802881 
L 316.714292 -159.596282 
L 313.405992 -157.853626 
L 310.097691 -157.233381 
L 306.789391 -156.397914 
L 303.481091 -155.481125 
L 300.17279 -154.696099 
L 296.86449 -154.319517 
L 293.556189 -154.144547 
L 290.247889 -154.103236 
L 286.939589 -153.707807 
L 283.631288 -151.820013 
L 280.322988 -151.298107 
L 277.014688 -151.255509 
L 273.706387 -150.150923 
L 270.398087 -150.087128 
L 267.089786 -149.589595 
L 263.781486 -147.100755 
L 260.473186 -146.701899 
L 257.164885 -144.893747 
L 253.856585 -142.96807 
L 250.548284 -142.464729 
L 247.239984 -142.253965 
L 243.931684 -142.151451 
L 240.623383 -141.888268 
L 237.315083 -141.654322 
L 234.006782 -138.323532 
L 230.698482 -137.966632 
L 227.390182 -137.106564 
L 224.081881 -135.866605 
L 220.773581 -135.276649 
L 217.46528 -133.784259 
L 214.15698 -133.761874 
L 210.84868 -132.700135 
L 207.540379 -131.691468 
L 204.232079 -130.613004 
L 200.923778 -127.688028 
L 197.615478 -123.472367 
L 194.307178 -121.812419 
L 190.998877 -121.256984 
L 187.690577 -120.011939 
L 184.382276 -119.430555 
L 181.073976 -115.985532 
L 177.765676 -114.665535 
L 174.457375 -114.660343 
L 171.149075 -109.604991 
L 167.840774 -104.744704 
L 164.532474 -99.961975 
L 161.224174 -97.557058 
L 157.915873 -97.314531 
L 154.607573 -96.018268 
L 151.299272 -90.947389 
L 147.990972 -86.934863 
L 144.682672 -80.907396 
L 141.374371 -77.170783 
L 138.066071 -72.78171 
L 134.757771 -45.387604 
L 131.44947 -34.469149 
L 128.14117 -34.101854 
L 124.832869 -25.82 
z
" id="m4e9777651a" style="stroke:#4a98c9;"/>
    </defs>
    <g clip-path="url(#pbdbd5ca74c)">
     <use style="fill:#4a98c9;stroke:#4a98c9;" x="0" xlink:href="#m4e9777651a" y="354.04"/>
    </g>
   </g>
   <g id="PolyCollection_2">
    <defs>
     <path d="M 124.832869 -25.82 
L 124.832869 -148.538061 
L 128.14117 -148.538061 
L 131.44947 -148.538061 
L 134.757771 -148.538061 
L 138.066071 -148.538061 
L 141.374371 -148.538061 
L 144.682672 -148.538061 
L 147.990972 -148.538061 
L 151.299272 -148.538061 
L 154.607573 -148.538061 
L 157.915873 -148.538061 
L 161.224174 -148.538061 
L 164.532474 -148.538061 
L 167.840774 -148.538061 
L 171.149075 -148.538061 
L 174.457375 -148.538061 
L 177.765676 -148.538061 
L 181.073976 -148.538061 
L 184.382276 -148.538061 
L 187.690577 -148.538061 
L 190.998877 -148.538061 
L 194.307178 -148.538061 
L 197.615478 -148.538061 
L 200.923778 -148.538061 
L 204.232079 -148.538061 
L 207.540379 -148.538061 
L 210.84868 -148.538061 
L 214.15698 -148.538061 
L 217.46528 -148.538061 
L 220.773581 -148.538061 
L 224.081881 -148.538061 
L 227.390182 -148.538061 
L 230.698482 -148.538061 
L 234.006782 -148.538061 
L 237.315083 -148.538061 
L 240.623383 -148.538061 
L 243.931684 -148.538061 
L 247.239984 -148.538061 
L 250.548284 -148.538061 
L 253.856585 -148.538061 
L 257.164885 -148.538061 
L 260.473186 -148.538061 
L 263.781486 -148.538061 
L 267.089786 -148.538061 
L 270.398087 -148.538061 
L 273.706387 -148.538061 
L 277.014688 -148.538061 
L 280.322988 -148.538061 
L 283.631288 -148.538061 
L 286.939589 -148.538061 
L 290.247889 -148.538061 
L 293.556189 -148.538061 
L 296.86449 -148.538061 
L 300.17279 -148.538061 
L 303.481091 -148.538061 
L 306.789391 -148.538061 
L 310.097691 -148.538061 
L 313.405992 -148.538061 
L 316.714292 -148.538061 
L 320.022593 -148.538061 
L 323.330893 -148.538061 
L 326.639193 -148.538061 
L 329.947494 -148.538061 
L 333.255794 -148.538061 
L 336.564095 -148.538061 
L 339.872395 -148.538061 
L 343.180695 -148.538061 
L 346.488996 -148.538061 
L 349.797296 -148.538061 
L 353.105597 -148.538061 
L 356.413897 -148.538061 
L 359.722197 -148.538061 
L 363.030498 -148.538061 
L 366.338798 -148.538061 
L 369.647099 -148.538061 
L 372.955399 -148.538061 
L 376.263699 -148.538061 
L 379.572 -148.538061 
L 382.8803 -148.538061 
L 386.188601 -148.538061 
L 389.496901 -148.538061 
L 392.805201 -148.538061 
L 396.113502 -148.538061 
L 399.421802 -148.538061 
L 402.730103 -148.538061 
L 406.038403 -148.538061 
L 409.346703 -148.538061 
L 412.655004 -148.538061 
L 415.963304 -148.538061 
L 419.271604 -148.538061 
L 422.579905 -148.538061 
L 425.888205 -148.538061 
L 429.196506 -148.538061 
L 429.196506 -328.22 
L 429.196506 -328.22 
L 425.888205 -273.361958 
L 422.579905 -237.75806 
L 419.271604 -237.106785 
L 415.963304 -235.881268 
L 412.655004 -235.175324 
L 409.346703 -223.730328 
L 406.038403 -219.399899 
L 402.730103 -218.990183 
L 399.421802 -214.525706 
L 396.113502 -214.462126 
L 392.805201 -208.864524 
L 389.496901 -207.285283 
L 386.188601 -203.719743 
L 382.8803 -202.504366 
L 379.572 -202.342796 
L 376.263699 -194.266872 
L 372.955399 -192.865397 
L 369.647099 -190.781871 
L 366.338798 -188.271928 
L 363.030498 -187.5751 
L 359.722197 -187.525522 
L 356.413897 -186.235808 
L 353.105597 -182.822557 
L 349.797296 -175.216565 
L 346.488996 -174.952977 
L 343.180695 -174.543912 
L 339.872395 -172.516075 
L 336.564095 -170.175868 
L 333.255794 -165.626968 
L 329.947494 -164.463684 
L 326.639193 -162.871501 
L 323.330893 -161.687296 
L 320.022593 -160.802881 
L 316.714292 -159.596282 
L 313.405992 -157.853626 
L 310.097691 -157.233381 
L 306.789391 -156.397914 
L 303.481091 -155.481125 
L 300.17279 -154.696099 
L 296.86449 -154.319517 
L 293.556189 -154.144547 
L 290.247889 -154.103236 
L 286.939589 -153.707807 
L 283.631288 -151.820013 
L 280.322988 -151.298107 
L 277.014688 -151.255509 
L 273.706387 -150.150923 
L 270.398087 -150.087128 
L 267.089786 -149.589595 
L 263.781486 -147.100755 
L 260.473186 -146.701899 
L 257.164885 -144.893747 
L 253.856585 -142.96807 
L 250.548284 -142.464729 
L 247.239984 -142.253965 
L 243.931684 -142.151451 
L 240.623383 -141.888268 
L 237.315083 -141.654322 
L 234.006782 -138.323532 
L 230.698482 -137.966632 
L 227.390182 -137.106564 
L 224.081881 -135.866605 
L 220.773581 -135.276649 
L 217.46528 -133.784259 
L 214.15698 -133.761874 
L 210.84868 -132.700135 
L 207.540379 -131.691468 
L 204.232079 -130.613004 
L 200.923778 -127.688028 
L 197.615478 -123.472367 
L 194.307178 -121.812419 
L 190.998877 -121.256984 
L 187.690577 -120.011939 
L 184.382276 -119.430555 
L 181.073976 -115.985532 
L 177.765676 -114.665535 
L 174.457375 -114.660343 
L 171.149075 -109.604991 
L 167.840774 -104.744704 
L 164.532474 -99.961975 
L 161.224174 -97.557058 
L 157.915873 -97.314531 
L 154.607573 -96.018268 
L 151.299272 -90.947389 
L 147.990972 -86.934863 
L 144.682672 -80.907396 
L 141.374371 -77.170783 
L 138.066071 -72.78171 
L 134.757771 -45.387604 
L 131.44947 -34.469149 
L 128.14117 -34.101854 
L 124.832869 -25.82 
z
" id="m0032fda848" style="stroke:#f14432;stroke-opacity:0.8;"/>
    </defs>
    <g clip-path="url(#pbdbd5ca74c)">
     <use style="fill:#f14432;fill-opacity:0.8;stroke:#f14432;stroke-opacity:0.8;" x="0" xlink:href="#m0032fda848" y="354.04"/>
    </g>
   </g>
   <g id="matplotlib.axis_1"/>
   <g id="matplotlib.axis_2">
    <g id="ytick_1">
     <g id="line2d_1">
      <defs>
       <path d="M 0 0 
L -3.5 0 
" id="m28d086a168" style="stroke:#000000;stroke-width:0.8;"/>
      </defs>
      <g>
       <use style="stroke:#000000;stroke-width:0.8;" x="109.614687" xlink:href="#m28d086a168" y="331.232828"/>
      </g>
     </g>
     <g id="text_1">
      <!-- −0.0003 -->
      <defs>
       <path d="M 10.59375 35.5 
L 73.1875 35.5 
L 73.1875 27.203125 
L 10.59375 27.203125 
z
" id="DejaVuSans-2212"/>
       <path d="M 31.78125 66.40625 
Q 24.171875 66.40625 20.328125 58.90625 
Q 16.5 51.421875 16.5 36.375 
Q 16.5 21.390625 20.328125 13.890625 
Q 24.171875 6.390625 31.78125 6.390625 
Q 39.453125 6.390625 43.28125 13.890625 
Q 47.125 21.390625 47.125 36.375 
Q 47.125 51.421875 43.28125 58.90625 
Q 39.453125 66.40625 31.78125 66.40625 
z
M 31.78125 74.21875 
Q 44.046875 74.21875 50.515625 64.515625 
Q 56.984375 54.828125 56.984375 36.375 
Q 56.984375 17.96875 50.515625 8.265625 
Q 44.046875 -1.421875 31.78125 -1.421875 
Q 19.53125 -1.421875 13.0625 8.265625 
Q 6.59375 17.96875 6.59375 36.375 
Q 6.59375 54.828125 13.0625 64.515625 
Q 19.53125 74.21875 31.78125 74.21875 
z
" id="DejaVuSans-30"/>
       <path d="M 10.6875 12.40625 
L 21 12.40625 
L 21 0 
L 10.6875 0 
z
" id="DejaVuSans-2e"/>
       <path d="M 40.578125 39.3125 
Q 47.65625 37.796875 51.625 33 
Q 55.609375 28.21875 55.609375 21.1875 
Q 55.609375 10.40625 48.1875 4.484375 
Q 40.765625 -1.421875 27.09375 -1.421875 
Q 22.515625 -1.421875 17.65625 -0.515625 
Q 12.796875 0.390625 7.625 2.203125 
L 7.625 11.71875 
Q 11.71875 9.328125 16.59375 8.109375 
Q 21.484375 6.890625 26.8125 6.890625 
Q 36.078125 6.890625 40.9375 10.546875 
Q 45.796875 14.203125 45.796875 21.1875 
Q 45.796875 27.640625 41.28125 31.265625 
Q 36.765625 34.90625 28.71875 34.90625 
L 20.21875 34.90625 
L 20.21875 43.015625 
L 29.109375 43.015625 
Q 36.375 43.015625 40.234375 45.921875 
Q 44.09375 48.828125 44.09375 54.296875 
Q 44.09375 59.90625 40.109375 62.90625 
Q 36.140625 65.921875 28.71875 65.921875 
Q 24.65625 65.921875 20.015625 65.03125 
Q 15.375 64.15625 9.8125 62.3125 
L 9.8125 71.09375 
Q 15.4375 72.65625 20.34375 73.4375 
Q 25.25 74.21875 29.59375 74.21875 
Q 40.828125 74.21875 47.359375 69.109375 
Q 53.90625 64.015625 53.90625 55.328125 
Q 53.90625 49.265625 50.4375 45.09375 
Q 46.96875 40.921875 40.578125 39.3125 
z
" id="DejaVuSans-33"/>
      </defs>
      <g transform="translate(7.2 339.591109)scale(0.22 -0.22)">
       <use xlink:href="#DejaVuSans-2212"/>
       <use x="83.789062" xlink:href="#DejaVuSans-30"/>
       <use x="147.412109" xlink:href="#DejaVuSans-2e"/>
       <use x="179.199219" xlink:href="#DejaVuSans-30"/>
       <use x="242.822266" xlink:href="#DejaVuSans-30"/>
       <use x="306.445312" xlink:href="#DejaVuSans-30"/>
       <use x="370.068359" xlink:href="#DejaVuSans-33"/>
      </g>
     </g>
    </g>
    <g id="ytick_2">
     <g id="line2d_2">
      <g>
       <use style="stroke:#000000;stroke-width:0.8;" x="109.614687" xlink:href="#m28d086a168" y="289.322532"/>
      </g>
     </g>
     <g id="text_2">
      <!-- −0.0002 -->
      <defs>
       <path d="M 19.1875 8.296875 
L 53.609375 8.296875 
L 53.609375 0 
L 7.328125 0 
L 7.328125 8.296875 
Q 12.9375 14.109375 22.625 23.890625 
Q 32.328125 33.6875 34.8125 36.53125 
Q 39.546875 41.84375 41.421875 45.53125 
Q 43.3125 49.21875 43.3125 52.78125 
Q 43.3125 58.59375 39.234375 62.25 
Q 35.15625 65.921875 28.609375 65.921875 
Q 23.96875 65.921875 18.8125 64.3125 
Q 13.671875 62.703125 7.8125 59.421875 
L 7.8125 69.390625 
Q 13.765625 71.78125 18.9375 73 
Q 24.125 74.21875 28.421875 74.21875 
Q 39.75 74.21875 46.484375 68.546875 
Q 53.21875 62.890625 53.21875 53.421875 
Q 53.21875 48.921875 51.53125 44.890625 
Q 49.859375 40.875 45.40625 35.40625 
Q 44.1875 33.984375 37.640625 27.21875 
Q 31.109375 20.453125 19.1875 8.296875 
z
" id="DejaVuSans-32"/>
      </defs>
      <g transform="translate(7.2 297.680813)scale(0.22 -0.22)">
       <use xlink:href="#DejaVuSans-2212"/>
       <use x="83.789062" xlink:href="#DejaVuSans-30"/>
       <use x="147.412109" xlink:href="#DejaVuSans-2e"/>
       <use x="179.199219" xlink:href="#DejaVuSans-30"/>
       <use x="242.822266" xlink:href="#DejaVuSans-30"/>
       <use x="306.445312" xlink:href="#DejaVuSans-30"/>
       <use x="370.068359" xlink:href="#DejaVuSans-32"/>
      </g>
     </g>
    </g>
    <g id="ytick_3">
     <g id="line2d_3">
      <g>
       <use style="stroke:#000000;stroke-width:0.8;" x="109.614687" xlink:href="#m28d086a168" y="247.412236"/>
      </g>
     </g>
     <g id="text_3">
      <!-- −0.0001 -->
      <defs>
       <path d="M 12.40625 8.296875 
L 28.515625 8.296875 
L 28.515625 63.921875 
L 10.984375 60.40625 
L 10.984375 69.390625 
L 28.421875 72.90625 
L 38.28125 72.90625 
L 38.28125 8.296875 
L 54.390625 8.296875 
L 54.390625 0 
L 12.40625 0 
z
" id="DejaVuSans-31"/>
      </defs>
      <g transform="translate(7.2 255.770517)scale(0.22 -0.22)">
       <use xlink:href="#DejaVuSans-2212"/>
       <use x="83.789062" xlink:href="#DejaVuSans-30"/>
       <use x="147.412109" xlink:href="#DejaVuSans-2e"/>
       <use x="179.199219" xlink:href="#DejaVuSans-30"/>
       <use x="242.822266" xlink:href="#DejaVuSans-30"/>
       <use x="306.445312" xlink:href="#DejaVuSans-30"/>
       <use x="370.068359" xlink:href="#DejaVuSans-31"/>
      </g>
     </g>
    </g>
    <g id="ytick_4">
     <g id="line2d_4">
      <g>
       <use style="stroke:#000000;stroke-width:0.8;" x="109.614687" xlink:href="#m28d086a168" y="205.501939"/>
      </g>
     </g>
     <g id="text_4">
      <!-- 0.0000 -->
      <g transform="translate(25.635312 213.860221)scale(0.22 -0.22)">
       <use xlink:href="#DejaVuSans-30"/>
       <use x="63.623047" xlink:href="#DejaVuSans-2e"/>
       <use x="95.410156" xlink:href="#DejaVuSans-30"/>
       <use x="159.033203" xlink:href="#DejaVuSans-30"/>
       <use x="222.65625" xlink:href="#DejaVuSans-30"/>
       <use x="286.279297" xlink:href="#DejaVuSans-30"/>
      </g>
     </g>
    </g>
    <g id="ytick_5">
     <g id="line2d_5">
      <g>
       <use style="stroke:#000000;stroke-width:0.8;" x="109.614687" xlink:href="#m28d086a168" y="163.591643"/>
      </g>
     </g>
     <g id="text_5">
      <!-- 0.0001 -->
      <g transform="translate(25.635312 171.949925)scale(0.22 -0.22)">
       <use xlink:href="#DejaVuSans-30"/>
       <use x="63.623047" xlink:href="#DejaVuSans-2e"/>
       <use x="95.410156" xlink:href="#DejaVuSans-30"/>
       <use x="159.033203" xlink:href="#DejaVuSans-30"/>
       <use x="222.65625" xlink:href="#DejaVuSans-30"/>
       <use x="286.279297" xlink:href="#DejaVuSans-31"/>
      </g>
     </g>
    </g>
    <g id="ytick_6">
     <g id="line2d_6">
      <g>
       <use style="stroke:#000000;stroke-width:0.8;" x="109.614687" xlink:href="#m28d086a168" y="121.681347"/>
      </g>
     </g>
     <g id="text_6">
      <!-- 0.0002 -->
      <g transform="translate(25.635312 130.039628)scale(0.22 -0.22)">
       <use xlink:href="#DejaVuSans-30"/>
       <use x="63.623047" xlink:href="#DejaVuSans-2e"/>
       <use x="95.410156" xlink:href="#DejaVuSans-30"/>
       <use x="159.033203" xlink:href="#DejaVuSans-30"/>
       <use x="222.65625" xlink:href="#DejaVuSans-30"/>
       <use x="286.279297" xlink:href="#DejaVuSans-32"/>
      </g>
     </g>
    </g>
    <g id="ytick_7">
     <g id="line2d_7">
      <g>
       <use style="stroke:#000000;stroke-width:0.8;" x="109.614687" xlink:href="#m28d086a168" y="79.771051"/>
      </g>
     </g>
     <g id="text_7">
      <!-- 0.0003 -->
      <g transform="translate(25.635312 88.129332)scale(0.22 -0.22)">
       <use xlink:href="#DejaVuSans-30"/>
       <use x="63.623047" xlink:href="#DejaVuSans-2e"/>
       <use x="95.410156" xlink:href="#DejaVuSans-30"/>
       <use x="159.033203" xlink:href="#DejaVuSans-30"/>
       <use x="222.65625" xlink:href="#DejaVuSans-30"/>
       <use x="286.279297" xlink:href="#DejaVuSans-33"/>
      </g>
     </g>
    </g>
    <g id="ytick_8">
     <g id="line2d_8">
      <g>
       <use style="stroke:#000000;stroke-width:0.8;" x="109.614687" xlink:href="#m28d086a168" y="37.860755"/>
      </g>
     </g>
     <g id="text_8">
      <!-- 0.0004 -->
      <defs>
       <path d="M 37.796875 64.3125 
L 12.890625 25.390625 
L 37.796875 25.390625 
z
M 35.203125 72.90625 
L 47.609375 72.90625 
L 47.609375 25.390625 
L 58.015625 25.390625 
L 58.015625 17.1875 
L 47.609375 17.1875 
L 47.609375 0 
L 37.796875 0 
L 37.796875 17.1875 
L 4.890625 17.1875 
L 4.890625 26.703125 
z
" id="DejaVuSans-34"/>
      </defs>
      <g transform="translate(25.635312 46.219036)scale(0.22 -0.22)">
       <use xlink:href="#DejaVuSans-30"/>
       <use x="63.623047" xlink:href="#DejaVuSans-2e"/>
       <use x="95.410156" xlink:href="#DejaVuSans-30"/>
       <use x="159.033203" xlink:href="#DejaVuSans-30"/>
       <use x="222.65625" xlink:href="#DejaVuSans-30"/>
       <use x="286.279297" xlink:href="#DejaVuSans-34"/>
      </g>
     </g>
    </g>
   </g>
   <g id="patch_3">
    <path d="M 109.614687 343.34 
L 109.614687 10.7 
" style="fill:none;stroke:#000000;stroke-linecap:square;stroke-linejoin:miter;stroke-width:0.8;"/>
   </g>
   <g id="patch_4">
    <path d="M 444.414688 343.34 
L 444.414688 10.7 
" style="fill:none;stroke:#000000;stroke-linecap:square;stroke-linejoin:miter;stroke-width:0.8;"/>
   </g>
   <g id="patch_5">
    <path d="M 109.614687 343.34 
L 444.414688 343.34 
" style="fill:none;stroke:#000000;stroke-linecap:square;stroke-linejoin:miter;stroke-width:0.8;"/>
   </g>
   <g id="patch_6">
    <path d="M 109.614687 10.7 
L 444.414688 10.7 
" style="fill:none;stroke:#000000;stroke-linecap:square;stroke-linejoin:miter;stroke-width:0.8;"/>
   </g>
  </g>
 </g>
 <defs>
  <clipPath id="pbdbd5ca74c">
   <rect height="332.64" width="334.8" x="109.614687" y="10.7"/>
  </clipPath>
 </defs>
</svg>
