<?xml version="1.0" encoding="utf-8" standalone="no"?>
<!DOCTYPE svg PUBLIC "-//W3C//DTD SVG 1.1//EN"
  "http://www.w3.org/Graphics/SVG/1.1/DTD/svg11.dtd">
<!-- Created with matplotlib (http://matplotlib.org/) -->
<svg height="359pt" version="1.1" viewBox="0 0 427 359" width="427pt" xmlns="http://www.w3.org/2000/svg" xmlns:xlink="http://www.w3.org/1999/xlink">
 <defs>
  <style type="text/css">
*{stroke-linecap:butt;stroke-linejoin:round;}
  </style>
 </defs>
 <g id="figure_1">
  <g id="patch_1">
   <path d="M 0 359.055115 
L 427.119687 359.055115 
L 427.119687 0 
L 0 0 
z
" style="fill:#ffffff;"/>
  </g>
  <g id="axes_1">
   <g id="patch_2">
    <path d="M 81.619687 343.34 
L 416.419688 343.34 
L 416.419688 10.7 
L 81.619687 10.7 
z
" style="fill:#ffffff;"/>
   </g>
   <g id="PolyCollection_1">
    <defs>
     <path d="M 96.837869 -30.835115 
L 96.837869 -90.729141 
L 100.14617 -90.729141 
L 103.45447 -90.729141 
L 106.762771 -90.729141 
L 110.071071 -90.729141 
L 113.379371 -90.729141 
L 116.687672 -90.729141 
L 119.995972 -90.729141 
L 123.304272 -90.729141 
L 126.612573 -90.729141 
L 129.920873 -90.729141 
L 133.229174 -90.729141 
L 136.537474 -90.729141 
L 139.845774 -90.729141 
L 143.154075 -90.729141 
L 146.462375 -90.729141 
L 149.770676 -90.729141 
L 153.078976 -90.729141 
L 156.387276 -90.729141 
L 159.695577 -90.729141 
L 163.003877 -90.729141 
L 166.312178 -90.729141 
L 169.620478 -90.729141 
L 172.928778 -90.729141 
L 176.237079 -90.729141 
L 179.545379 -90.729141 
L 182.85368 -90.729141 
L 186.16198 -90.729141 
L 189.47028 -90.729141 
L 192.778581 -90.729141 
L 196.086881 -90.729141 
L 199.395182 -90.729141 
L 202.703482 -90.729141 
L 206.011782 -90.729141 
L 209.320083 -90.729141 
L 212.628383 -90.729141 
L 215.936684 -90.729141 
L 219.244984 -90.729141 
L 222.553284 -90.729141 
L 225.861585 -90.729141 
L 229.169885 -90.729141 
L 232.478186 -90.729141 
L 235.786486 -90.729141 
L 239.094786 -90.729141 
L 242.403087 -90.729141 
L 245.711387 -90.729141 
L 249.019688 -90.729141 
L 252.327988 -90.729141 
L 255.636288 -90.729141 
L 258.944589 -90.729141 
L 262.252889 -90.729141 
L 265.561189 -90.729141 
L 268.86949 -90.729141 
L 272.17779 -90.729141 
L 275.486091 -90.729141 
L 278.794391 -90.729141 
L 282.102691 -90.729141 
L 285.410992 -90.729141 
L 288.719292 -90.729141 
L 292.027593 -90.729141 
L 295.335893 -90.729141 
L 298.644193 -90.729141 
L 301.952494 -90.729141 
L 305.260794 -90.729141 
L 308.569095 -90.729141 
L 311.877395 -90.729141 
L 315.185695 -90.729141 
L 318.493996 -90.729141 
L 321.802296 -90.729141 
L 325.110597 -90.729141 
L 328.418897 -90.729141 
L 331.727197 -90.729141 
L 335.035498 -90.729141 
L 338.343798 -90.729141 
L 341.652099 -90.729141 
L 344.960399 -90.729141 
L 348.268699 -90.729141 
L 351.577 -90.729141 
L 354.8853 -90.729141 
L 358.193601 -90.729141 
L 361.501901 -90.729141 
L 364.810201 -90.729141 
L 368.118502 -90.729141 
L 371.426802 -90.729141 
L 374.735103 -90.729141 
L 378.043403 -90.729141 
L 381.351703 -90.729141 
L 384.660004 -90.729141 
L 387.968304 -90.729141 
L 391.276604 -90.729141 
L 394.584905 -90.729141 
L 397.893205 -90.729141 
L 401.201506 -90.729141 
L 401.201506 -333.235115 
L 401.201506 -333.235115 
L 397.893205 -236.160103 
L 394.584905 -232.124329 
L 391.276604 -222.21209 
L 387.968304 -189.115003 
L 384.660004 -174.624616 
L 381.351703 -170.779981 
L 378.043403 -154.485953 
L 374.735103 -138.032796 
L 371.426802 -125.7598 
L 368.118502 -122.413142 
L 364.810201 -117.657793 
L 361.501901 -114.382923 
L 358.193601 -111.797951 
L 354.8853 -111.659554 
L 351.577 -111.312302 
L 348.268699 -110.115855 
L 344.960399 -109.384628 
L 341.652099 -107.024958 
L 338.343798 -101.020432 
L 335.035498 -100.813488 
L 331.727197 -100.389113 
L 328.418897 -99.491017 
L 325.110597 -98.131018 
L 321.802296 -95.16282 
L 318.493996 -94.788327 
L 315.185695 -94.518735 
L 311.877395 -94.465058 
L 308.569095 -94.021288 
L 305.260794 -94.009723 
L 301.952494 -92.874508 
L 298.644193 -92.062645 
L 295.335893 -91.877535 
L 292.027593 -91.876884 
L 288.719292 -91.859576 
L 285.410992 -91.789041 
L 282.102691 -91.75489 
L 278.794391 -91.526232 
L 275.486091 -91.501415 
L 272.17779 -91.441012 
L 268.86949 -91.394687 
L 265.561189 -91.288691 
L 262.252889 -91.269099 
L 258.944589 -91.229677 
L 255.636288 -91.081564 
L 252.327988 -91.029573 
L 249.019688 -91.017769 
L 245.711387 -90.969842 
L 242.403087 -90.964559 
L 239.094786 -90.95213 
L 235.786486 -90.886287 
L 232.478186 -90.853076 
L 229.169885 -90.834935 
L 225.861585 -90.795058 
L 222.553284 -90.789206 
L 219.244984 -90.781758 
L 215.936684 -90.779282 
L 212.628383 -90.773692 
L 209.320083 -90.76357 
L 206.011782 -90.729394 
L 202.703482 -90.726046 
L 199.395182 -90.620837 
L 196.086881 -90.614939 
L 192.778581 -90.599725 
L 189.47028 -90.577401 
L 186.16198 -90.573418 
L 182.85368 -90.553641 
L 179.545379 -90.549816 
L 176.237079 -90.546039 
L 172.928778 -90.420571 
L 169.620478 -90.319144 
L 166.312178 -90.276925 
L 163.003877 -90.249278 
L 159.695577 -90.248345 
L 156.387276 -90.031714 
L 153.078976 -89.709529 
L 149.770676 -89.218106 
L 146.462375 -87.599172 
L 143.154075 -87.292954 
L 139.845774 -85.723455 
L 136.537474 -82.84532 
L 133.229174 -78.775943 
L 129.920873 -78.146158 
L 126.612573 -78.095834 
L 123.304272 -76.196811 
L 119.995972 -73.416735 
L 116.687672 -73.202113 
L 113.379371 -72.688386 
L 110.071071 -67.636242 
L 106.762771 -67.109208 
L 103.45447 -64.519188 
L 100.14617 -53.194948 
L 96.837869 -30.835115 
z
" id="mbbe7bbe4ba" style="stroke:#4a98c9;"/>
    </defs>
    <g clip-path="url(#p9e657bc2cb)">
     <use style="fill:#4a98c9;stroke:#4a98c9;" x="0" xlink:href="#mbbe7bbe4ba" y="359.055115"/>
    </g>
   </g>
   <g id="PolyCollection_2">
    <defs>
     <path d="M 96.837869 -51.419675 
L 96.837869 -90.729141 
L 100.14617 -90.729141 
L 103.45447 -90.729141 
L 106.762771 -90.729141 
L 110.071071 -90.729141 
L 113.379371 -90.729141 
L 116.687672 -90.729141 
L 119.995972 -90.729141 
L 123.304272 -90.729141 
L 126.612573 -90.729141 
L 129.920873 -90.729141 
L 133.229174 -90.729141 
L 136.537474 -90.729141 
L 139.845774 -90.729141 
L 143.154075 -90.729141 
L 146.462375 -90.729141 
L 149.770676 -90.729141 
L 153.078976 -90.729141 
L 156.387276 -90.729141 
L 159.695577 -90.729141 
L 163.003877 -90.729141 
L 166.312178 -90.729141 
L 169.620478 -90.729141 
L 172.928778 -90.729141 
L 176.237079 -90.729141 
L 179.545379 -90.729141 
L 182.85368 -90.729141 
L 186.16198 -90.729141 
L 189.47028 -90.729141 
L 192.778581 -90.729141 
L 196.086881 -90.729141 
L 199.395182 -90.729141 
L 202.703482 -90.729141 
L 206.011782 -90.729141 
L 209.320083 -90.729141 
L 212.628383 -90.729141 
L 215.936684 -90.729141 
L 219.244984 -90.729141 
L 222.553284 -90.729141 
L 225.861585 -90.729141 
L 229.169885 -90.729141 
L 232.478186 -90.729141 
L 235.786486 -90.729141 
L 239.094786 -90.729141 
L 242.403087 -90.729141 
L 245.711387 -90.729141 
L 249.019688 -90.729141 
L 252.327988 -90.729141 
L 255.636288 -90.729141 
L 258.944589 -90.729141 
L 262.252889 -90.729141 
L 265.561189 -90.729141 
L 268.86949 -90.729141 
L 272.17779 -90.729141 
L 275.486091 -90.729141 
L 278.794391 -90.729141 
L 282.102691 -90.729141 
L 285.410992 -90.729141 
L 288.719292 -90.729141 
L 292.027593 -90.729141 
L 295.335893 -90.729141 
L 298.644193 -90.729141 
L 301.952494 -90.729141 
L 305.260794 -90.729141 
L 308.569095 -90.729141 
L 311.877395 -90.729141 
L 315.185695 -90.729141 
L 318.493996 -90.729141 
L 321.802296 -90.729141 
L 325.110597 -90.729141 
L 328.418897 -90.729141 
L 331.727197 -90.729141 
L 335.035498 -90.729141 
L 338.343798 -90.729141 
L 341.652099 -90.729141 
L 344.960399 -90.729141 
L 348.268699 -90.729141 
L 351.577 -90.729141 
L 354.8853 -90.729141 
L 358.193601 -90.729141 
L 361.501901 -90.729141 
L 364.810201 -90.729141 
L 368.118502 -90.729141 
L 371.426802 -90.729141 
L 374.735103 -90.729141 
L 378.043403 -90.729141 
L 381.351703 -90.729141 
L 384.660004 -90.729141 
L 387.968304 -90.729141 
L 391.276604 -90.729141 
L 394.584905 -90.729141 
L 397.893205 -90.729141 
L 401.201506 -90.729141 
L 401.201506 -223.121961 
L 401.201506 -223.121961 
L 397.893205 -163.835744 
L 394.584905 -159.668614 
L 391.276604 -158.417933 
L 387.968304 -136.177934 
L 384.660004 -135.37144 
L 381.351703 -135.244111 
L 378.043403 -129.380734 
L 374.735103 -126.410504 
L 371.426802 -125.069218 
L 368.118502 -113.193077 
L 364.810201 -113.17616 
L 361.501901 -108.570156 
L 358.193601 -103.119216 
L 354.8853 -102.917762 
L 351.577 -102.239104 
L 348.268699 -101.756847 
L 344.960399 -100.507164 
L 341.652099 -100.179056 
L 338.343798 -98.987811 
L 335.035498 -97.382617 
L 331.727197 -96.606323 
L 328.418897 -96.583345 
L 325.110597 -96.115427 
L 321.802296 -96.029933 
L 318.493996 -95.100996 
L 315.185695 -94.900504 
L 311.877395 -94.48347 
L 308.569095 -94.401404 
L 305.260794 -92.705236 
L 301.952494 -91.912783 
L 298.644193 -91.704319 
L 295.335893 -91.337376 
L 292.027593 -91.306557 
L 288.719292 -91.201129 
L 285.410992 -91.173228 
L 282.102691 -91.104093 
L 278.794391 -91.094055 
L 275.486091 -91.046136 
L 272.17779 -91.038957 
L 268.86949 -90.964579 
L 265.561189 -90.959572 
L 262.252889 -90.949813 
L 258.944589 -90.926904 
L 255.636288 -90.874362 
L 252.327988 -90.861881 
L 249.019688 -90.853389 
L 245.711387 -90.807529 
L 242.403087 -90.800811 
L 239.094786 -90.777031 
L 235.786486 -90.759863 
L 232.478186 -90.748813 
L 229.169885 -90.745819 
L 225.861585 -90.739229 
L 222.553284 -90.731723 
L 219.244984 -90.719627 
L 215.936684 -90.718793 
L 212.628383 -90.715542 
L 209.320083 -90.706729 
L 206.011782 -90.698809 
L 202.703482 -90.67719 
L 199.395182 -90.676194 
L 196.086881 -90.675458 
L 192.778581 -90.673406 
L 189.47028 -90.669064 
L 186.16198 -90.665237 
L 182.85368 -90.620446 
L 179.545379 -90.616034 
L 176.237079 -90.589438 
L 172.928778 -90.538787 
L 169.620478 -90.534748 
L 166.312178 -90.530101 
L 163.003877 -90.460764 
L 159.695577 -90.409901 
L 156.387276 -89.251525 
L 153.078976 -89.214596 
L 149.770676 -88.916493 
L 146.462375 -88.680754 
L 143.154075 -88.19607 
L 139.845774 -86.740256 
L 136.537474 -85.01597 
L 133.229174 -84.235529 
L 129.920873 -82.416599 
L 126.612573 -81.355402 
L 123.304272 -79.853468 
L 119.995972 -79.449008 
L 116.687672 -79.421098 
L 113.379371 -78.741521 
L 110.071071 -78.193475 
L 106.762771 -76.584594 
L 103.45447 -62.86173 
L 100.14617 -57.61764 
L 96.837869 -51.419675 
z
" id="m273d298a26" style="stroke:#f14432;stroke-opacity:0.8;"/>
    </defs>
    <g clip-path="url(#p9e657bc2cb)">
     <use style="fill:#f14432;fill-opacity:0.8;stroke:#f14432;stroke-opacity:0.8;" x="0" xlink:href="#m273d298a26" y="359.055115"/>
    </g>
   </g>
   <g id="matplotlib.axis_1"/>
   <g id="matplotlib.axis_2">
    <g id="ytick_1">
     <g id="line2d_1">
      <defs>
       <path d="M 0 0 
L -3.5 0 
" id="ma53bda9eb3" style="stroke:#000000;stroke-width:0.8;"/>
      </defs>
      <g>
       <use style="stroke:#000000;stroke-width:0.8;" x="81.619687" xlink:href="#ma53bda9eb3" y="338.921521"/>
      </g>
     </g>
     <g id="text_1">
      <!-- −0.05 -->
      <defs>
       <path d="M 10.59375 35.5 
L 73.1875 35.5 
L 73.1875 27.203125 
L 10.59375 27.203125 
z
" id="DejaVuSans-2212"/>
       <path d="M 31.78125 66.40625 
Q 24.171875 66.40625 20.328125 58.90625 
Q 16.5 51.421875 16.5 36.375 
Q 16.5 21.390625 20.328125 13.890625 
Q 24.171875 6.390625 31.78125 6.390625 
Q 39.453125 6.390625 43.28125 13.890625 
Q 47.125 21.390625 47.125 36.375 
Q 47.125 51.421875 43.28125 58.90625 
Q 39.453125 66.40625 31.78125 66.40625 
z
M 31.78125 74.21875 
Q 44.046875 74.21875 50.515625 64.515625 
Q 56.984375 54.828125 56.984375 36.375 
Q 56.984375 17.96875 50.515625 8.265625 
Q 44.046875 -1.421875 31.78125 -1.421875 
Q 19.53125 -1.421875 13.0625 8.265625 
Q 6.59375 17.96875 6.59375 36.375 
Q 6.59375 54.828125 13.0625 64.515625 
Q 19.53125 74.21875 31.78125 74.21875 
z
" id="DejaVuSans-30"/>
       <path d="M 10.6875 12.40625 
L 21 12.40625 
L 21 0 
L 10.6875 0 
z
" id="DejaVuSans-2e"/>
       <path d="M 10.796875 72.90625 
L 49.515625 72.90625 
L 49.515625 64.59375 
L 19.828125 64.59375 
L 19.828125 46.734375 
Q 21.96875 47.46875 24.109375 47.828125 
Q 26.265625 48.1875 28.421875 48.1875 
Q 40.625 48.1875 47.75 41.5 
Q 54.890625 34.8125 54.890625 23.390625 
Q 54.890625 11.625 47.5625 5.09375 
Q 40.234375 -1.421875 26.90625 -1.421875 
Q 22.3125 -1.421875 17.546875 -0.640625 
Q 12.796875 0.140625 7.71875 1.703125 
L 7.71875 11.625 
Q 12.109375 9.234375 16.796875 8.0625 
Q 21.484375 6.890625 26.703125 6.890625 
Q 35.15625 6.890625 40.078125 11.328125 
Q 45.015625 15.765625 45.015625 23.390625 
Q 45.015625 31 40.078125 35.4375 
Q 35.15625 39.890625 26.703125 39.890625 
Q 22.75 39.890625 18.8125 39.015625 
Q 14.890625 38.140625 10.796875 36.28125 
z
" id="DejaVuSans-35"/>
      </defs>
      <g transform="translate(7.2 347.279803)scale(0.22 -0.22)">
       <use xlink:href="#DejaVuSans-2212"/>
       <use x="83.789062" xlink:href="#DejaVuSans-30"/>
       <use x="147.412109" xlink:href="#DejaVuSans-2e"/>
       <use x="179.199219" xlink:href="#DejaVuSans-30"/>
       <use x="242.822266" xlink:href="#DejaVuSans-35"/>
      </g>
     </g>
    </g>
    <g id="ytick_2">
     <g id="line2d_2">
      <g>
       <use style="stroke:#000000;stroke-width:0.8;" x="81.619687" xlink:href="#ma53bda9eb3" y="268.325974"/>
      </g>
     </g>
     <g id="text_2">
      <!-- 0.00 -->
      <g transform="translate(25.635312 276.684255)scale(0.22 -0.22)">
       <use xlink:href="#DejaVuSans-30"/>
       <use x="63.623047" xlink:href="#DejaVuSans-2e"/>
       <use x="95.410156" xlink:href="#DejaVuSans-30"/>
       <use x="159.033203" xlink:href="#DejaVuSans-30"/>
      </g>
     </g>
    </g>
    <g id="ytick_3">
     <g id="line2d_3">
      <g>
       <use style="stroke:#000000;stroke-width:0.8;" x="81.619687" xlink:href="#ma53bda9eb3" y="197.730426"/>
      </g>
     </g>
     <g id="text_3">
      <!-- 0.05 -->
      <g transform="translate(25.635312 206.088708)scale(0.22 -0.22)">
       <use xlink:href="#DejaVuSans-30"/>
       <use x="63.623047" xlink:href="#DejaVuSans-2e"/>
       <use x="95.410156" xlink:href="#DejaVuSans-30"/>
       <use x="159.033203" xlink:href="#DejaVuSans-35"/>
      </g>
     </g>
    </g>
    <g id="ytick_4">
     <g id="line2d_4">
      <g>
       <use style="stroke:#000000;stroke-width:0.8;" x="81.619687" xlink:href="#ma53bda9eb3" y="127.134879"/>
      </g>
     </g>
     <g id="text_4">
      <!-- 0.10 -->
      <defs>
       <path d="M 12.40625 8.296875 
L 28.515625 8.296875 
L 28.515625 63.921875 
L 10.984375 60.40625 
L 10.984375 69.390625 
L 28.421875 72.90625 
L 38.28125 72.90625 
L 38.28125 8.296875 
L 54.390625 8.296875 
L 54.390625 0 
L 12.40625 0 
z
" id="DejaVuSans-31"/>
      </defs>
      <g transform="translate(25.635312 135.49316)scale(0.22 -0.22)">
       <use xlink:href="#DejaVuSans-30"/>
       <use x="63.623047" xlink:href="#DejaVuSans-2e"/>
       <use x="95.410156" xlink:href="#DejaVuSans-31"/>
       <use x="159.033203" xlink:href="#DejaVuSans-30"/>
      </g>
     </g>
    </g>
    <g id="ytick_5">
     <g id="line2d_5">
      <g>
       <use style="stroke:#000000;stroke-width:0.8;" x="81.619687" xlink:href="#ma53bda9eb3" y="56.539331"/>
      </g>
     </g>
     <g id="text_5">
      <!-- 0.15 -->
      <g transform="translate(25.635312 64.897613)scale(0.22 -0.22)">
       <use xlink:href="#DejaVuSans-30"/>
       <use x="63.623047" xlink:href="#DejaVuSans-2e"/>
       <use x="95.410156" xlink:href="#DejaVuSans-31"/>
       <use x="159.033203" xlink:href="#DejaVuSans-35"/>
      </g>
     </g>
    </g>
   </g>
   <g id="patch_3">
    <path d="M 81.619687 343.34 
L 81.619687 10.7 
" style="fill:none;stroke:#000000;stroke-linecap:square;stroke-linejoin:miter;stroke-width:0.8;"/>
   </g>
   <g id="patch_4">
    <path d="M 416.419688 343.34 
L 416.419688 10.7 
" style="fill:none;stroke:#000000;stroke-linecap:square;stroke-linejoin:miter;stroke-width:0.8;"/>
   </g>
   <g id="patch_5">
    <path d="M 81.619687 343.34 
L 416.419688 343.34 
" style="fill:none;stroke:#000000;stroke-linecap:square;stroke-linejoin:miter;stroke-width:0.8;"/>
   </g>
   <g id="patch_6">
    <path d="M 81.619687 10.7 
L 416.419688 10.7 
" style="fill:none;stroke:#000000;stroke-linecap:square;stroke-linejoin:miter;stroke-width:0.8;"/>
   </g>
  </g>
 </g>
 <defs>
  <clipPath id="p9e657bc2cb">
   <rect height="332.64" width="334.8" x="81.619687" y="10.7"/>
  </clipPath>
 </defs>
</svg>
