<?xml version="1.0" encoding="utf-8" standalone="no"?>
<!DOCTYPE svg PUBLIC "-//W3C//DTD SVG 1.1//EN"
  "http://www.w3.org/Graphics/SVG/1.1/DTD/svg11.dtd">
<!-- Created with matplotlib (http://matplotlib.org/) -->
<svg height="354pt" version="1.1" viewBox="0 0 427 354" width="427pt" xmlns="http://www.w3.org/2000/svg" xmlns:xlink="http://www.w3.org/1999/xlink">
 <defs>
  <style type="text/css">
*{stroke-linecap:butt;stroke-linejoin:round;}
  </style>
 </defs>
 <g id="figure_1">
  <g id="patch_1">
   <path d="M 0 354.04 
L 427.119687 354.04 
L 427.119687 0 
L 0 0 
z
" style="fill:#ffffff;"/>
  </g>
  <g id="axes_1">
   <g id="patch_2">
    <path d="M 81.619687 343.34 
L 416.419688 343.34 
L 416.419688 10.7 
L 81.619687 10.7 
z
" style="fill:#ffffff;"/>
   </g>
   <g id="PolyCollection_1">
    <defs>
     <path d="M 96.837869 -25.82 
L 96.837869 -144.564022 
L 100.14617 -144.564022 
L 103.45447 -144.564022 
L 106.762771 -144.564022 
L 110.071071 -144.564022 
L 113.379371 -144.564022 
L 116.687672 -144.564022 
L 119.995972 -144.564022 
L 123.304272 -144.564022 
L 126.612573 -144.564022 
L 129.920873 -144.564022 
L 133.229174 -144.564022 
L 136.537474 -144.564022 
L 139.845774 -144.564022 
L 143.154075 -144.564022 
L 146.462375 -144.564022 
L 149.770676 -144.564022 
L 153.078976 -144.564022 
L 156.387276 -144.564022 
L 159.695577 -144.564022 
L 163.003877 -144.564022 
L 166.312178 -144.564022 
L 169.620478 -144.564022 
L 172.928778 -144.564022 
L 176.237079 -144.564022 
L 179.545379 -144.564022 
L 182.85368 -144.564022 
L 186.16198 -144.564022 
L 189.47028 -144.564022 
L 192.778581 -144.564022 
L 196.086881 -144.564022 
L 199.395182 -144.564022 
L 202.703482 -144.564022 
L 206.011782 -144.564022 
L 209.320083 -144.564022 
L 212.628383 -144.564022 
L 215.936684 -144.564022 
L 219.244984 -144.564022 
L 222.553284 -144.564022 
L 225.861585 -144.564022 
L 229.169885 -144.564022 
L 232.478186 -144.564022 
L 235.786486 -144.564022 
L 239.094786 -144.564022 
L 242.403087 -144.564022 
L 245.711387 -144.564022 
L 249.019688 -144.564022 
L 252.327988 -144.564022 
L 255.636288 -144.564022 
L 258.944589 -144.564022 
L 262.252889 -144.564022 
L 265.561189 -144.564022 
L 268.86949 -144.564022 
L 272.17779 -144.564022 
L 275.486091 -144.564022 
L 278.794391 -144.564022 
L 282.102691 -144.564022 
L 285.410992 -144.564022 
L 288.719292 -144.564022 
L 292.027593 -144.564022 
L 295.335893 -144.564022 
L 298.644193 -144.564022 
L 301.952494 -144.564022 
L 305.260794 -144.564022 
L 308.569095 -144.564022 
L 311.877395 -144.564022 
L 315.185695 -144.564022 
L 318.493996 -144.564022 
L 321.802296 -144.564022 
L 325.110597 -144.564022 
L 328.418897 -144.564022 
L 331.727197 -144.564022 
L 335.035498 -144.564022 
L 338.343798 -144.564022 
L 341.652099 -144.564022 
L 344.960399 -144.564022 
L 348.268699 -144.564022 
L 351.577 -144.564022 
L 354.8853 -144.564022 
L 358.193601 -144.564022 
L 361.501901 -144.564022 
L 364.810201 -144.564022 
L 368.118502 -144.564022 
L 371.426802 -144.564022 
L 374.735103 -144.564022 
L 378.043403 -144.564022 
L 381.351703 -144.564022 
L 384.660004 -144.564022 
L 387.968304 -144.564022 
L 391.276604 -144.564022 
L 394.584905 -144.564022 
L 397.893205 -144.564022 
L 401.201506 -144.564022 
L 401.201506 -292.811405 
L 401.201506 -292.811405 
L 397.893205 -278.184314 
L 394.584905 -274.908599 
L 391.276604 -269.60856 
L 387.968304 -265.713327 
L 384.660004 -265.072589 
L 381.351703 -262.297485 
L 378.043403 -236.332857 
L 374.735103 -235.600281 
L 371.426802 -234.980978 
L 368.118502 -217.523673 
L 364.810201 -213.28724 
L 361.501901 -202.483487 
L 358.193601 -194.523885 
L 354.8853 -190.552007 
L 351.577 -190.383324 
L 348.268699 -183.745525 
L 344.960399 -179.365484 
L 341.652099 -177.694199 
L 338.343798 -176.525747 
L 335.035498 -173.242139 
L 331.727197 -172.663534 
L 328.418897 -168.789331 
L 325.110597 -165.845118 
L 321.802296 -165.020375 
L 318.493996 -164.957568 
L 315.185695 -161.942613 
L 311.877395 -159.493595 
L 308.569095 -156.339677 
L 305.260794 -155.03649 
L 301.952494 -153.77822 
L 298.644193 -153.178474 
L 295.335893 -153.048367 
L 292.027593 -150.755462 
L 288.719292 -149.673371 
L 285.410992 -148.380873 
L 282.102691 -146.962369 
L 278.794391 -146.784104 
L 275.486091 -146.30873 
L 272.17779 -145.86048 
L 268.86949 -145.705261 
L 265.561189 -145.375752 
L 262.252889 -145.371559 
L 258.944589 -145.211957 
L 255.636288 -145.133983 
L 252.327988 -145.089513 
L 249.019688 -145.000693 
L 245.711387 -144.897564 
L 242.403087 -144.845001 
L 239.094786 -144.83666 
L 235.786486 -144.77862 
L 232.478186 -144.762767 
L 229.169885 -144.756503 
L 225.861585 -144.709097 
L 222.553284 -144.708381 
L 219.244984 -144.679079 
L 215.936684 -144.65945 
L 212.628383 -144.650151 
L 209.320083 -144.628452 
L 206.011782 -144.607794 
L 202.703482 -144.58011 
L 199.395182 -144.573173 
L 196.086881 -144.570186 
L 192.778581 -144.568388 
L 189.47028 -144.510334 
L 186.16198 -144.437216 
L 182.85368 -144.398466 
L 179.545379 -144.378957 
L 176.237079 -144.347727 
L 172.928778 -144.339554 
L 169.620478 -144.299593 
L 166.312178 -144.262568 
L 163.003877 -144.240208 
L 159.695577 -144.230301 
L 156.387276 -144.166797 
L 153.078976 -144.150819 
L 149.770676 -144.088045 
L 146.462375 -144.067787 
L 143.154075 -143.922228 
L 139.845774 -143.672313 
L 136.537474 -137.222797 
L 133.229174 -136.70807 
L 129.920873 -136.534497 
L 126.612573 -135.650298 
L 123.304272 -133.491696 
L 119.995972 -120.03325 
L 116.687672 -117.50867 
L 113.379371 -111.75486 
L 110.071071 -101.870209 
L 106.762771 -98.29734 
L 103.45447 -97.79862 
L 100.14617 -45.518646 
L 96.837869 -25.82 
z
" id="m7a6b1475e5" style="stroke:#4a98c9;"/>
    </defs>
    <g clip-path="url(#p4fbd418e9f)">
     <use style="fill:#4a98c9;stroke:#4a98c9;" x="0" xlink:href="#m7a6b1475e5" y="354.04"/>
    </g>
   </g>
   <g id="PolyCollection_2">
    <defs>
     <path d="M 96.837869 -30.723403 
L 96.837869 -144.564022 
L 100.14617 -144.564022 
L 103.45447 -144.564022 
L 106.762771 -144.564022 
L 110.071071 -144.564022 
L 113.379371 -144.564022 
L 116.687672 -144.564022 
L 119.995972 -144.564022 
L 123.304272 -144.564022 
L 126.612573 -144.564022 
L 129.920873 -144.564022 
L 133.229174 -144.564022 
L 136.537474 -144.564022 
L 139.845774 -144.564022 
L 143.154075 -144.564022 
L 146.462375 -144.564022 
L 149.770676 -144.564022 
L 153.078976 -144.564022 
L 156.387276 -144.564022 
L 159.695577 -144.564022 
L 163.003877 -144.564022 
L 166.312178 -144.564022 
L 169.620478 -144.564022 
L 172.928778 -144.564022 
L 176.237079 -144.564022 
L 179.545379 -144.564022 
L 182.85368 -144.564022 
L 186.16198 -144.564022 
L 189.47028 -144.564022 
L 192.778581 -144.564022 
L 196.086881 -144.564022 
L 199.395182 -144.564022 
L 202.703482 -144.564022 
L 206.011782 -144.564022 
L 209.320083 -144.564022 
L 212.628383 -144.564022 
L 215.936684 -144.564022 
L 219.244984 -144.564022 
L 222.553284 -144.564022 
L 225.861585 -144.564022 
L 229.169885 -144.564022 
L 232.478186 -144.564022 
L 235.786486 -144.564022 
L 239.094786 -144.564022 
L 242.403087 -144.564022 
L 245.711387 -144.564022 
L 249.019688 -144.564022 
L 252.327988 -144.564022 
L 255.636288 -144.564022 
L 258.944589 -144.564022 
L 262.252889 -144.564022 
L 265.561189 -144.564022 
L 268.86949 -144.564022 
L 272.17779 -144.564022 
L 275.486091 -144.564022 
L 278.794391 -144.564022 
L 282.102691 -144.564022 
L 285.410992 -144.564022 
L 288.719292 -144.564022 
L 292.027593 -144.564022 
L 295.335893 -144.564022 
L 298.644193 -144.564022 
L 301.952494 -144.564022 
L 305.260794 -144.564022 
L 308.569095 -144.564022 
L 311.877395 -144.564022 
L 315.185695 -144.564022 
L 318.493996 -144.564022 
L 321.802296 -144.564022 
L 325.110597 -144.564022 
L 328.418897 -144.564022 
L 331.727197 -144.564022 
L 335.035498 -144.564022 
L 338.343798 -144.564022 
L 341.652099 -144.564022 
L 344.960399 -144.564022 
L 348.268699 -144.564022 
L 351.577 -144.564022 
L 354.8853 -144.564022 
L 358.193601 -144.564022 
L 361.501901 -144.564022 
L 364.810201 -144.564022 
L 368.118502 -144.564022 
L 371.426802 -144.564022 
L 374.735103 -144.564022 
L 378.043403 -144.564022 
L 381.351703 -144.564022 
L 384.660004 -144.564022 
L 387.968304 -144.564022 
L 391.276604 -144.564022 
L 394.584905 -144.564022 
L 397.893205 -144.564022 
L 401.201506 -144.564022 
L 401.201506 -328.22 
L 401.201506 -328.22 
L 397.893205 -249.348515 
L 394.584905 -248.965091 
L 391.276604 -244.248309 
L 387.968304 -242.822809 
L 384.660004 -226.333298 
L 381.351703 -220.599738 
L 378.043403 -208.64604 
L 374.735103 -208.042621 
L 371.426802 -207.701297 
L 368.118502 -203.199725 
L 364.810201 -201.989774 
L 361.501901 -200.602848 
L 358.193601 -198.160629 
L 354.8853 -197.473177 
L 351.577 -195.137152 
L 348.268699 -185.027995 
L 344.960399 -184.202628 
L 341.652099 -182.909554 
L 338.343798 -180.938661 
L 335.035498 -171.173217 
L 331.727197 -170.372714 
L 328.418897 -166.965968 
L 325.110597 -160.952804 
L 321.802296 -155.864516 
L 318.493996 -155.490106 
L 315.185695 -152.483442 
L 311.877395 -152.253323 
L 308.569095 -150.085696 
L 305.260794 -147.763852 
L 301.952494 -147.718815 
L 298.644193 -147.192082 
L 295.335893 -146.786377 
L 292.027593 -146.402986 
L 288.719292 -146.379708 
L 285.410992 -146.04115 
L 282.102691 -145.680846 
L 278.794391 -145.534247 
L 275.486091 -145.118069 
L 272.17779 -145.071076 
L 268.86949 -144.982216 
L 265.561189 -144.905913 
L 262.252889 -144.772357 
L 258.944589 -144.760414 
L 255.636288 -144.749802 
L 252.327988 -144.733616 
L 249.019688 -144.705119 
L 245.711387 -144.695854 
L 242.403087 -144.646361 
L 239.094786 -144.615263 
L 235.786486 -144.613619 
L 232.478186 -144.557449 
L 229.169885 -144.539435 
L 225.861585 -144.51697 
L 222.553284 -144.514382 
L 219.244984 -144.513714 
L 215.936684 -144.510387 
L 212.628383 -144.461369 
L 209.320083 -144.443718 
L 206.011782 -144.425974 
L 202.703482 -144.395649 
L 199.395182 -144.388967 
L 196.086881 -144.365877 
L 192.778581 -144.339171 
L 189.47028 -144.304851 
L 186.16198 -144.294422 
L 182.85368 -144.294169 
L 179.545379 -144.201912 
L 176.237079 -144.197239 
L 172.928778 -144.035514 
L 169.620478 -143.995893 
L 166.312178 -143.897568 
L 163.003877 -143.788562 
L 159.695577 -143.754155 
L 156.387276 -143.624864 
L 153.078976 -143.624599 
L 149.770676 -143.59494 
L 146.462375 -142.101733 
L 143.154075 -141.992212 
L 139.845774 -141.579931 
L 136.537474 -133.230636 
L 133.229174 -131.421382 
L 129.920873 -129.731632 
L 126.612573 -128.603755 
L 123.304272 -127.912971 
L 119.995972 -125.548225 
L 116.687672 -119.150571 
L 113.379371 -102.625565 
L 110.071071 -82.482273 
L 106.762771 -80.433465 
L 103.45447 -72.137954 
L 100.14617 -51.035309 
L 96.837869 -30.723403 
z
" id="m1bddb4d23c" style="stroke:#f14432;stroke-opacity:0.8;"/>
    </defs>
    <g clip-path="url(#p4fbd418e9f)">
     <use style="fill:#f14432;fill-opacity:0.8;stroke:#f14432;stroke-opacity:0.8;" x="0" xlink:href="#m1bddb4d23c" y="354.04"/>
    </g>
   </g>
   <g id="matplotlib.axis_1"/>
   <g id="matplotlib.axis_2">
    <g id="ytick_1">
     <g id="line2d_1">
      <defs>
       <path d="M 0 0 
L -3.5 0 
" id="m718ccb0fdd" style="stroke:#000000;stroke-width:0.8;"/>
      </defs>
      <g>
       <use style="stroke:#000000;stroke-width:0.8;" x="81.619687" xlink:href="#m718ccb0fdd" y="301.614909"/>
      </g>
     </g>
     <g id="text_1">
      <!-- −0.04 -->
      <defs>
       <path d="M 10.59375 35.5 
L 73.1875 35.5 
L 73.1875 27.203125 
L 10.59375 27.203125 
z
" id="DejaVuSans-2212"/>
       <path d="M 31.78125 66.40625 
Q 24.171875 66.40625 20.328125 58.90625 
Q 16.5 51.421875 16.5 36.375 
Q 16.5 21.390625 20.328125 13.890625 
Q 24.171875 6.390625 31.78125 6.390625 
Q 39.453125 6.390625 43.28125 13.890625 
Q 47.125 21.390625 47.125 36.375 
Q 47.125 51.421875 43.28125 58.90625 
Q 39.453125 66.40625 31.78125 66.40625 
z
M 31.78125 74.21875 
Q 44.046875 74.21875 50.515625 64.515625 
Q 56.984375 54.828125 56.984375 36.375 
Q 56.984375 17.96875 50.515625 8.265625 
Q 44.046875 -1.421875 31.78125 -1.421875 
Q 19.53125 -1.421875 13.0625 8.265625 
Q 6.59375 17.96875 6.59375 36.375 
Q 6.59375 54.828125 13.0625 64.515625 
Q 19.53125 74.21875 31.78125 74.21875 
z
" id="DejaVuSans-30"/>
       <path d="M 10.6875 12.40625 
L 21 12.40625 
L 21 0 
L 10.6875 0 
z
" id="DejaVuSans-2e"/>
       <path d="M 37.796875 64.3125 
L 12.890625 25.390625 
L 37.796875 25.390625 
z
M 35.203125 72.90625 
L 47.609375 72.90625 
L 47.609375 25.390625 
L 58.015625 25.390625 
L 58.015625 17.1875 
L 47.609375 17.1875 
L 47.609375 0 
L 37.796875 0 
L 37.796875 17.1875 
L 4.890625 17.1875 
L 4.890625 26.703125 
z
" id="DejaVuSans-34"/>
      </defs>
      <g transform="translate(7.2 309.97319)scale(0.22 -0.22)">
       <use xlink:href="#DejaVuSans-2212"/>
       <use x="83.789062" xlink:href="#DejaVuSans-30"/>
       <use x="147.412109" xlink:href="#DejaVuSans-2e"/>
       <use x="179.199219" xlink:href="#DejaVuSans-30"/>
       <use x="242.822266" xlink:href="#DejaVuSans-34"/>
      </g>
     </g>
    </g>
    <g id="ytick_2">
     <g id="line2d_2">
      <g>
       <use style="stroke:#000000;stroke-width:0.8;" x="81.619687" xlink:href="#m718ccb0fdd" y="255.545443"/>
      </g>
     </g>
     <g id="text_2">
      <!-- −0.02 -->
      <defs>
       <path d="M 19.1875 8.296875 
L 53.609375 8.296875 
L 53.609375 0 
L 7.328125 0 
L 7.328125 8.296875 
Q 12.9375 14.109375 22.625 23.890625 
Q 32.328125 33.6875 34.8125 36.53125 
Q 39.546875 41.84375 41.421875 45.53125 
Q 43.3125 49.21875 43.3125 52.78125 
Q 43.3125 58.59375 39.234375 62.25 
Q 35.15625 65.921875 28.609375 65.921875 
Q 23.96875 65.921875 18.8125 64.3125 
Q 13.671875 62.703125 7.8125 59.421875 
L 7.8125 69.390625 
Q 13.765625 71.78125 18.9375 73 
Q 24.125 74.21875 28.421875 74.21875 
Q 39.75 74.21875 46.484375 68.546875 
Q 53.21875 62.890625 53.21875 53.421875 
Q 53.21875 48.921875 51.53125 44.890625 
Q 49.859375 40.875 45.40625 35.40625 
Q 44.1875 33.984375 37.640625 27.21875 
Q 31.109375 20.453125 19.1875 8.296875 
z
" id="DejaVuSans-32"/>
      </defs>
      <g transform="translate(7.2 263.903725)scale(0.22 -0.22)">
       <use xlink:href="#DejaVuSans-2212"/>
       <use x="83.789062" xlink:href="#DejaVuSans-30"/>
       <use x="147.412109" xlink:href="#DejaVuSans-2e"/>
       <use x="179.199219" xlink:href="#DejaVuSans-30"/>
       <use x="242.822266" xlink:href="#DejaVuSans-32"/>
      </g>
     </g>
    </g>
    <g id="ytick_3">
     <g id="line2d_3">
      <g>
       <use style="stroke:#000000;stroke-width:0.8;" x="81.619687" xlink:href="#m718ccb0fdd" y="209.475978"/>
      </g>
     </g>
     <g id="text_3">
      <!-- 0.00 -->
      <g transform="translate(25.635312 217.83426)scale(0.22 -0.22)">
       <use xlink:href="#DejaVuSans-30"/>
       <use x="63.623047" xlink:href="#DejaVuSans-2e"/>
       <use x="95.410156" xlink:href="#DejaVuSans-30"/>
       <use x="159.033203" xlink:href="#DejaVuSans-30"/>
      </g>
     </g>
    </g>
    <g id="ytick_4">
     <g id="line2d_4">
      <g>
       <use style="stroke:#000000;stroke-width:0.8;" x="81.619687" xlink:href="#m718ccb0fdd" y="163.406513"/>
      </g>
     </g>
     <g id="text_4">
      <!-- 0.02 -->
      <g transform="translate(25.635312 171.764794)scale(0.22 -0.22)">
       <use xlink:href="#DejaVuSans-30"/>
       <use x="63.623047" xlink:href="#DejaVuSans-2e"/>
       <use x="95.410156" xlink:href="#DejaVuSans-30"/>
       <use x="159.033203" xlink:href="#DejaVuSans-32"/>
      </g>
     </g>
    </g>
    <g id="ytick_5">
     <g id="line2d_5">
      <g>
       <use style="stroke:#000000;stroke-width:0.8;" x="81.619687" xlink:href="#m718ccb0fdd" y="117.337048"/>
      </g>
     </g>
     <g id="text_5">
      <!-- 0.04 -->
      <g transform="translate(25.635312 125.695329)scale(0.22 -0.22)">
       <use xlink:href="#DejaVuSans-30"/>
       <use x="63.623047" xlink:href="#DejaVuSans-2e"/>
       <use x="95.410156" xlink:href="#DejaVuSans-30"/>
       <use x="159.033203" xlink:href="#DejaVuSans-34"/>
      </g>
     </g>
    </g>
    <g id="ytick_6">
     <g id="line2d_6">
      <g>
       <use style="stroke:#000000;stroke-width:0.8;" x="81.619687" xlink:href="#m718ccb0fdd" y="71.267583"/>
      </g>
     </g>
     <g id="text_6">
      <!-- 0.06 -->
      <defs>
       <path d="M 33.015625 40.375 
Q 26.375 40.375 22.484375 35.828125 
Q 18.609375 31.296875 18.609375 23.390625 
Q 18.609375 15.53125 22.484375 10.953125 
Q 26.375 6.390625 33.015625 6.390625 
Q 39.65625 6.390625 43.53125 10.953125 
Q 47.40625 15.53125 47.40625 23.390625 
Q 47.40625 31.296875 43.53125 35.828125 
Q 39.65625 40.375 33.015625 40.375 
z
M 52.59375 71.296875 
L 52.59375 62.3125 
Q 48.875 64.0625 45.09375 64.984375 
Q 41.3125 65.921875 37.59375 65.921875 
Q 27.828125 65.921875 22.671875 59.328125 
Q 17.53125 52.734375 16.796875 39.40625 
Q 19.671875 43.65625 24.015625 45.921875 
Q 28.375 48.1875 33.59375 48.1875 
Q 44.578125 48.1875 50.953125 41.515625 
Q 57.328125 34.859375 57.328125 23.390625 
Q 57.328125 12.15625 50.6875 5.359375 
Q 44.046875 -1.421875 33.015625 -1.421875 
Q 20.359375 -1.421875 13.671875 8.265625 
Q 6.984375 17.96875 6.984375 36.375 
Q 6.984375 53.65625 15.1875 63.9375 
Q 23.390625 74.21875 37.203125 74.21875 
Q 40.921875 74.21875 44.703125 73.484375 
Q 48.484375 72.75 52.59375 71.296875 
z
" id="DejaVuSans-36"/>
      </defs>
      <g transform="translate(25.635312 79.625864)scale(0.22 -0.22)">
       <use xlink:href="#DejaVuSans-30"/>
       <use x="63.623047" xlink:href="#DejaVuSans-2e"/>
       <use x="95.410156" xlink:href="#DejaVuSans-30"/>
       <use x="159.033203" xlink:href="#DejaVuSans-36"/>
      </g>
     </g>
    </g>
    <g id="ytick_7">
     <g id="line2d_7">
      <g>
       <use style="stroke:#000000;stroke-width:0.8;" x="81.619687" xlink:href="#m718ccb0fdd" y="25.198117"/>
      </g>
     </g>
     <g id="text_7">
      <!-- 0.08 -->
      <defs>
       <path d="M 31.78125 34.625 
Q 24.75 34.625 20.71875 30.859375 
Q 16.703125 27.09375 16.703125 20.515625 
Q 16.703125 13.921875 20.71875 10.15625 
Q 24.75 6.390625 31.78125 6.390625 
Q 38.8125 6.390625 42.859375 10.171875 
Q 46.921875 13.96875 46.921875 20.515625 
Q 46.921875 27.09375 42.890625 30.859375 
Q 38.875 34.625 31.78125 34.625 
z
M 21.921875 38.8125 
Q 15.578125 40.375 12.03125 44.71875 
Q 8.5 49.078125 8.5 55.328125 
Q 8.5 64.0625 14.71875 69.140625 
Q 20.953125 74.21875 31.78125 74.21875 
Q 42.671875 74.21875 48.875 69.140625 
Q 55.078125 64.0625 55.078125 55.328125 
Q 55.078125 49.078125 51.53125 44.71875 
Q 48 40.375 41.703125 38.8125 
Q 48.828125 37.15625 52.796875 32.3125 
Q 56.78125 27.484375 56.78125 20.515625 
Q 56.78125 9.90625 50.3125 4.234375 
Q 43.84375 -1.421875 31.78125 -1.421875 
Q 19.734375 -1.421875 13.25 4.234375 
Q 6.78125 9.90625 6.78125 20.515625 
Q 6.78125 27.484375 10.78125 32.3125 
Q 14.796875 37.15625 21.921875 38.8125 
z
M 18.3125 54.390625 
Q 18.3125 48.734375 21.84375 45.5625 
Q 25.390625 42.390625 31.78125 42.390625 
Q 38.140625 42.390625 41.71875 45.5625 
Q 45.3125 48.734375 45.3125 54.390625 
Q 45.3125 60.0625 41.71875 63.234375 
Q 38.140625 66.40625 31.78125 66.40625 
Q 25.390625 66.40625 21.84375 63.234375 
Q 18.3125 60.0625 18.3125 54.390625 
z
" id="DejaVuSans-38"/>
      </defs>
      <g transform="translate(25.635312 33.556399)scale(0.22 -0.22)">
       <use xlink:href="#DejaVuSans-30"/>
       <use x="63.623047" xlink:href="#DejaVuSans-2e"/>
       <use x="95.410156" xlink:href="#DejaVuSans-30"/>
       <use x="159.033203" xlink:href="#DejaVuSans-38"/>
      </g>
     </g>
    </g>
   </g>
   <g id="patch_3">
    <path d="M 81.619687 343.34 
L 81.619687 10.7 
" style="fill:none;stroke:#000000;stroke-linecap:square;stroke-linejoin:miter;stroke-width:0.8;"/>
   </g>
   <g id="patch_4">
    <path d="M 416.419688 343.34 
L 416.419688 10.7 
" style="fill:none;stroke:#000000;stroke-linecap:square;stroke-linejoin:miter;stroke-width:0.8;"/>
   </g>
   <g id="patch_5">
    <path d="M 81.619687 343.34 
L 416.419688 343.34 
" style="fill:none;stroke:#000000;stroke-linecap:square;stroke-linejoin:miter;stroke-width:0.8;"/>
   </g>
   <g id="patch_6">
    <path d="M 81.619687 10.7 
L 416.419688 10.7 
" style="fill:none;stroke:#000000;stroke-linecap:square;stroke-linejoin:miter;stroke-width:0.8;"/>
   </g>
  </g>
 </g>
 <defs>
  <clipPath id="p4fbd418e9f">
   <rect height="332.64" width="334.8" x="81.619687" y="10.7"/>
  </clipPath>
 </defs>
</svg>
