<?xml version="1.0" encoding="utf-8" standalone="no"?>
<!DOCTYPE svg PUBLIC "-//W3C//DTD SVG 1.1//EN"
  "http://www.w3.org/Graphics/SVG/1.1/DTD/svg11.dtd">
<!-- Created with matplotlib (http://matplotlib.org/) -->
<svg height="355pt" version="1.1" viewBox="0 0 455 355" width="455pt" xmlns="http://www.w3.org/2000/svg" xmlns:xlink="http://www.w3.org/1999/xlink">
 <defs>
  <style type="text/css">
*{stroke-linecap:butt;stroke-linejoin:round;}
  </style>
 </defs>
 <g id="figure_1">
  <g id="patch_1">
   <path d="M 0 355.697289 
L 455.114687 355.697289 
L 455.114687 0 
L 0 0 
z
" style="fill:#ffffff;"/>
  </g>
  <g id="axes_1">
   <g id="patch_2">
    <path d="M 109.614687 343.34 
L 444.414688 343.34 
L 444.414688 10.7 
L 109.614687 10.7 
z
" style="fill:#ffffff;"/>
   </g>
   <g id="PolyCollection_1">
    <defs>
     <path d="M 124.832869 -27.477289 
L 124.832869 -170.643544 
L 128.14117 -170.643544 
L 131.44947 -170.643544 
L 134.757771 -170.643544 
L 138.066071 -170.643544 
L 141.374371 -170.643544 
L 144.682672 -170.643544 
L 147.990972 -170.643544 
L 151.299272 -170.643544 
L 154.607573 -170.643544 
L 157.915873 -170.643544 
L 161.224174 -170.643544 
L 164.532474 -170.643544 
L 167.840774 -170.643544 
L 171.149075 -170.643544 
L 174.457375 -170.643544 
L 177.765676 -170.643544 
L 181.073976 -170.643544 
L 184.382276 -170.643544 
L 187.690577 -170.643544 
L 190.998877 -170.643544 
L 194.307178 -170.643544 
L 197.615478 -170.643544 
L 200.923778 -170.643544 
L 204.232079 -170.643544 
L 207.540379 -170.643544 
L 210.84868 -170.643544 
L 214.15698 -170.643544 
L 217.46528 -170.643544 
L 220.773581 -170.643544 
L 224.081881 -170.643544 
L 227.390182 -170.643544 
L 230.698482 -170.643544 
L 234.006782 -170.643544 
L 237.315083 -170.643544 
L 240.623383 -170.643544 
L 243.931684 -170.643544 
L 247.239984 -170.643544 
L 250.548284 -170.643544 
L 253.856585 -170.643544 
L 257.164885 -170.643544 
L 260.473186 -170.643544 
L 263.781486 -170.643544 
L 267.089786 -170.643544 
L 270.398087 -170.643544 
L 273.706387 -170.643544 
L 277.014688 -170.643544 
L 280.322988 -170.643544 
L 283.631288 -170.643544 
L 286.939589 -170.643544 
L 290.247889 -170.643544 
L 293.556189 -170.643544 
L 296.86449 -170.643544 
L 300.17279 -170.643544 
L 303.481091 -170.643544 
L 306.789391 -170.643544 
L 310.097691 -170.643544 
L 313.405992 -170.643544 
L 316.714292 -170.643544 
L 320.022593 -170.643544 
L 323.330893 -170.643544 
L 326.639193 -170.643544 
L 329.947494 -170.643544 
L 333.255794 -170.643544 
L 336.564095 -170.643544 
L 339.872395 -170.643544 
L 343.180695 -170.643544 
L 346.488996 -170.643544 
L 349.797296 -170.643544 
L 353.105597 -170.643544 
L 356.413897 -170.643544 
L 359.722197 -170.643544 
L 363.030498 -170.643544 
L 366.338798 -170.643544 
L 369.647099 -170.643544 
L 372.955399 -170.643544 
L 376.263699 -170.643544 
L 379.572 -170.643544 
L 382.8803 -170.643544 
L 386.188601 -170.643544 
L 389.496901 -170.643544 
L 392.805201 -170.643544 
L 396.113502 -170.643544 
L 399.421802 -170.643544 
L 402.730103 -170.643544 
L 406.038403 -170.643544 
L 409.346703 -170.643544 
L 412.655004 -170.643544 
L 415.963304 -170.643544 
L 419.271604 -170.643544 
L 422.579905 -170.643544 
L 425.888205 -170.643544 
L 429.196506 -170.643544 
L 429.196506 -329.877289 
L 429.196506 -329.877289 
L 425.888205 -319.972859 
L 422.579905 -317.578418 
L 419.271604 -296.10337 
L 415.963304 -273.248514 
L 412.655004 -270.823067 
L 409.346703 -266.928487 
L 406.038403 -266.204807 
L 402.730103 -254.794917 
L 399.421802 -231.943986 
L 396.113502 -228.171881 
L 392.805201 -227.856292 
L 389.496901 -225.037391 
L 386.188601 -219.402715 
L 382.8803 -214.323168 
L 379.572 -208.125624 
L 376.263699 -206.444721 
L 372.955399 -205.064037 
L 369.647099 -203.20306 
L 366.338798 -202.943746 
L 363.030498 -200.731209 
L 359.722197 -200.275079 
L 356.413897 -197.272145 
L 353.105597 -195.888059 
L 349.797296 -191.187315 
L 346.488996 -190.60463 
L 343.180695 -188.404455 
L 339.872395 -186.338686 
L 336.564095 -183.447595 
L 333.255794 -181.703543 
L 329.947494 -180.567893 
L 326.639193 -178.567671 
L 323.330893 -175.090458 
L 320.022593 -174.912796 
L 316.714292 -174.467604 
L 313.405992 -174.282224 
L 310.097691 -173.563379 
L 306.789391 -172.817089 
L 303.481091 -172.639675 
L 300.17279 -172.460235 
L 296.86449 -171.880089 
L 293.556189 -171.304182 
L 290.247889 -171.21769 
L 286.939589 -171.182002 
L 283.631288 -171.154746 
L 280.322988 -171.129913 
L 277.014688 -171.098934 
L 273.706387 -170.998849 
L 270.398087 -170.843966 
L 267.089786 -170.789825 
L 263.781486 -170.770878 
L 260.473186 -170.763945 
L 257.164885 -170.698013 
L 253.856585 -170.683179 
L 250.548284 -170.61836 
L 247.239984 -170.445961 
L 243.931684 -170.357998 
L 240.623383 -170.331641 
L 237.315083 -170.321581 
L 234.006782 -170.283491 
L 230.698482 -170.240502 
L 227.390182 -170.220047 
L 224.081881 -170.151401 
L 220.773581 -170.07819 
L 217.46528 -169.981333 
L 214.15698 -169.91356 
L 210.84868 -169.879268 
L 207.540379 -169.687979 
L 204.232079 -169.493422 
L 200.923778 -169.469679 
L 197.615478 -169.243817 
L 194.307178 -169.217104 
L 190.998877 -169.094152 
L 187.690577 -169.061972 
L 184.382276 -168.654576 
L 181.073976 -167.325763 
L 177.765676 -166.996671 
L 174.457375 -166.371754 
L 171.149075 -166.283863 
L 167.840774 -163.656326 
L 164.532474 -162.835514 
L 161.224174 -155.588233 
L 157.915873 -152.47517 
L 154.607573 -150.266995 
L 151.299272 -141.959737 
L 147.990972 -139.711201 
L 144.682672 -130.775497 
L 141.374371 -88.453743 
L 138.066071 -88.425715 
L 134.757771 -83.015869 
L 131.44947 -63.452478 
L 128.14117 -38.233412 
L 124.832869 -27.477289 
z
" id="m65d0237086" style="stroke:#4a98c9;"/>
    </defs>
    <g clip-path="url(#p2289e3e8e0)">
     <use style="fill:#4a98c9;stroke:#4a98c9;" x="0" xlink:href="#m65d0237086" y="355.697289"/>
    </g>
   </g>
   <g id="PolyCollection_2">
    <defs>
     <path d="M 124.832869 -98.279315 
L 124.832869 -170.643544 
L 128.14117 -170.643544 
L 131.44947 -170.643544 
L 134.757771 -170.643544 
L 138.066071 -170.643544 
L 141.374371 -170.643544 
L 144.682672 -170.643544 
L 147.990972 -170.643544 
L 151.299272 -170.643544 
L 154.607573 -170.643544 
L 157.915873 -170.643544 
L 161.224174 -170.643544 
L 164.532474 -170.643544 
L 167.840774 -170.643544 
L 171.149075 -170.643544 
L 174.457375 -170.643544 
L 177.765676 -170.643544 
L 181.073976 -170.643544 
L 184.382276 -170.643544 
L 187.690577 -170.643544 
L 190.998877 -170.643544 
L 194.307178 -170.643544 
L 197.615478 -170.643544 
L 200.923778 -170.643544 
L 204.232079 -170.643544 
L 207.540379 -170.643544 
L 210.84868 -170.643544 
L 214.15698 -170.643544 
L 217.46528 -170.643544 
L 220.773581 -170.643544 
L 224.081881 -170.643544 
L 227.390182 -170.643544 
L 230.698482 -170.643544 
L 234.006782 -170.643544 
L 237.315083 -170.643544 
L 240.623383 -170.643544 
L 243.931684 -170.643544 
L 247.239984 -170.643544 
L 250.548284 -170.643544 
L 253.856585 -170.643544 
L 257.164885 -170.643544 
L 260.473186 -170.643544 
L 263.781486 -170.643544 
L 267.089786 -170.643544 
L 270.398087 -170.643544 
L 273.706387 -170.643544 
L 277.014688 -170.643544 
L 280.322988 -170.643544 
L 283.631288 -170.643544 
L 286.939589 -170.643544 
L 290.247889 -170.643544 
L 293.556189 -170.643544 
L 296.86449 -170.643544 
L 300.17279 -170.643544 
L 303.481091 -170.643544 
L 306.789391 -170.643544 
L 310.097691 -170.643544 
L 313.405992 -170.643544 
L 316.714292 -170.643544 
L 320.022593 -170.643544 
L 323.330893 -170.643544 
L 326.639193 -170.643544 
L 329.947494 -170.643544 
L 333.255794 -170.643544 
L 336.564095 -170.643544 
L 339.872395 -170.643544 
L 343.180695 -170.643544 
L 346.488996 -170.643544 
L 349.797296 -170.643544 
L 353.105597 -170.643544 
L 356.413897 -170.643544 
L 359.722197 -170.643544 
L 363.030498 -170.643544 
L 366.338798 -170.643544 
L 369.647099 -170.643544 
L 372.955399 -170.643544 
L 376.263699 -170.643544 
L 379.572 -170.643544 
L 382.8803 -170.643544 
L 386.188601 -170.643544 
L 389.496901 -170.643544 
L 392.805201 -170.643544 
L 396.113502 -170.643544 
L 399.421802 -170.643544 
L 402.730103 -170.643544 
L 406.038403 -170.643544 
L 409.346703 -170.643544 
L 412.655004 -170.643544 
L 415.963304 -170.643544 
L 419.271604 -170.643544 
L 422.579905 -170.643544 
L 425.888205 -170.643544 
L 429.196506 -170.643544 
L 429.196506 -253.917596 
L 429.196506 -253.917596 
L 425.888205 -245.017187 
L 422.579905 -238.57094 
L 419.271604 -229.846282 
L 415.963304 -223.935198 
L 412.655004 -221.903186 
L 409.346703 -209.955524 
L 406.038403 -208.521589 
L 402.730103 -205.506475 
L 399.421802 -204.303988 
L 396.113502 -202.991159 
L 392.805201 -202.401761 
L 389.496901 -201.875111 
L 386.188601 -200.891894 
L 382.8803 -198.745645 
L 379.572 -196.749296 
L 376.263699 -194.09476 
L 372.955399 -193.200985 
L 369.647099 -192.755825 
L 366.338798 -189.858697 
L 363.030498 -188.164304 
L 359.722197 -186.234198 
L 356.413897 -183.539904 
L 353.105597 -182.700317 
L 349.797296 -182.125878 
L 346.488996 -180.724299 
L 343.180695 -179.969306 
L 339.872395 -178.073861 
L 336.564095 -176.116676 
L 333.255794 -175.22717 
L 329.947494 -174.926809 
L 326.639193 -174.873243 
L 323.330893 -174.433392 
L 320.022593 -174.220592 
L 316.714292 -174.176467 
L 313.405992 -174.048175 
L 310.097691 -173.53892 
L 306.789391 -172.941201 
L 303.481091 -172.735498 
L 300.17279 -172.038065 
L 296.86449 -171.690377 
L 293.556189 -171.52688 
L 290.247889 -171.494501 
L 286.939589 -171.470032 
L 283.631288 -171.18124 
L 280.322988 -171.132234 
L 277.014688 -170.967206 
L 273.706387 -170.927359 
L 270.398087 -170.844391 
L 267.089786 -170.759045 
L 263.781486 -170.552166 
L 260.473186 -170.522828 
L 257.164885 -170.499694 
L 253.856585 -170.491425 
L 250.548284 -170.441765 
L 247.239984 -170.401113 
L 243.931684 -170.370718 
L 240.623383 -170.355402 
L 237.315083 -170.33479 
L 234.006782 -170.330744 
L 230.698482 -170.263788 
L 227.390182 -170.197819 
L 224.081881 -170.119748 
L 220.773581 -169.92711 
L 217.46528 -169.807472 
L 214.15698 -169.680534 
L 210.84868 -169.596092 
L 207.540379 -169.530211 
L 204.232079 -169.111206 
L 200.923778 -169.022422 
L 197.615478 -168.901694 
L 194.307178 -168.834388 
L 190.998877 -168.763769 
L 187.690577 -168.589596 
L 184.382276 -168.397664 
L 181.073976 -168.292344 
L 177.765676 -165.818957 
L 174.457375 -164.610503 
L 171.149075 -163.780723 
L 167.840774 -163.75874 
L 164.532474 -162.591115 
L 161.224174 -161.605104 
L 157.915873 -158.736677 
L 154.607573 -157.720166 
L 151.299272 -150.731165 
L 147.990972 -150.076407 
L 144.682672 -146.652483 
L 141.374371 -137.85399 
L 138.066071 -135.2517 
L 134.757771 -124.647981 
L 131.44947 -119.190416 
L 128.14117 -111.558371 
L 124.832869 -98.279315 
z
" id="mb9b3b68068" style="stroke:#f14432;stroke-opacity:0.8;"/>
    </defs>
    <g clip-path="url(#p2289e3e8e0)">
     <use style="fill:#f14432;fill-opacity:0.8;stroke:#f14432;stroke-opacity:0.8;" x="0" xlink:href="#mb9b3b68068" y="355.697289"/>
    </g>
   </g>
   <g id="matplotlib.axis_1"/>
   <g id="matplotlib.axis_2">
    <g id="ytick_1">
     <g id="line2d_1">
      <defs>
       <path d="M 0 0 
L -3.5 0 
" id="m20c007ae31" style="stroke:#000000;stroke-width:0.8;"/>
      </defs>
      <g>
       <use style="stroke:#000000;stroke-width:0.8;" x="109.614687" xlink:href="#m20c007ae31" y="335.563695"/>
      </g>
     </g>
     <g id="text_1">
      <!-- −0.0100 -->
      <defs>
       <path d="M 10.59375 35.5 
L 73.1875 35.5 
L 73.1875 27.203125 
L 10.59375 27.203125 
z
" id="DejaVuSans-2212"/>
       <path d="M 31.78125 66.40625 
Q 24.171875 66.40625 20.328125 58.90625 
Q 16.5 51.421875 16.5 36.375 
Q 16.5 21.390625 20.328125 13.890625 
Q 24.171875 6.390625 31.78125 6.390625 
Q 39.453125 6.390625 43.28125 13.890625 
Q 47.125 21.390625 47.125 36.375 
Q 47.125 51.421875 43.28125 58.90625 
Q 39.453125 66.40625 31.78125 66.40625 
z
M 31.78125 74.21875 
Q 44.046875 74.21875 50.515625 64.515625 
Q 56.984375 54.828125 56.984375 36.375 
Q 56.984375 17.96875 50.515625 8.265625 
Q 44.046875 -1.421875 31.78125 -1.421875 
Q 19.53125 -1.421875 13.0625 8.265625 
Q 6.59375 17.96875 6.59375 36.375 
Q 6.59375 54.828125 13.0625 64.515625 
Q 19.53125 74.21875 31.78125 74.21875 
z
" id="DejaVuSans-30"/>
       <path d="M 10.6875 12.40625 
L 21 12.40625 
L 21 0 
L 10.6875 0 
z
" id="DejaVuSans-2e"/>
       <path d="M 12.40625 8.296875 
L 28.515625 8.296875 
L 28.515625 63.921875 
L 10.984375 60.40625 
L 10.984375 69.390625 
L 28.421875 72.90625 
L 38.28125 72.90625 
L 38.28125 8.296875 
L 54.390625 8.296875 
L 54.390625 0 
L 12.40625 0 
z
" id="DejaVuSans-31"/>
      </defs>
      <g transform="translate(7.2 343.921977)scale(0.22 -0.22)">
       <use xlink:href="#DejaVuSans-2212"/>
       <use x="83.789062" xlink:href="#DejaVuSans-30"/>
       <use x="147.412109" xlink:href="#DejaVuSans-2e"/>
       <use x="179.199219" xlink:href="#DejaVuSans-30"/>
       <use x="242.822266" xlink:href="#DejaVuSans-31"/>
       <use x="306.445312" xlink:href="#DejaVuSans-30"/>
       <use x="370.068359" xlink:href="#DejaVuSans-30"/>
      </g>
     </g>
    </g>
    <g id="ytick_2">
     <g id="line2d_2">
      <g>
       <use style="stroke:#000000;stroke-width:0.8;" x="109.614687" xlink:href="#m20c007ae31" y="297.936208"/>
      </g>
     </g>
     <g id="text_2">
      <!-- −0.0075 -->
      <defs>
       <path d="M 8.203125 72.90625 
L 55.078125 72.90625 
L 55.078125 68.703125 
L 28.609375 0 
L 18.3125 0 
L 43.21875 64.59375 
L 8.203125 64.59375 
z
" id="DejaVuSans-37"/>
       <path d="M 10.796875 72.90625 
L 49.515625 72.90625 
L 49.515625 64.59375 
L 19.828125 64.59375 
L 19.828125 46.734375 
Q 21.96875 47.46875 24.109375 47.828125 
Q 26.265625 48.1875 28.421875 48.1875 
Q 40.625 48.1875 47.75 41.5 
Q 54.890625 34.8125 54.890625 23.390625 
Q 54.890625 11.625 47.5625 5.09375 
Q 40.234375 -1.421875 26.90625 -1.421875 
Q 22.3125 -1.421875 17.546875 -0.640625 
Q 12.796875 0.140625 7.71875 1.703125 
L 7.71875 11.625 
Q 12.109375 9.234375 16.796875 8.0625 
Q 21.484375 6.890625 26.703125 6.890625 
Q 35.15625 6.890625 40.078125 11.328125 
Q 45.015625 15.765625 45.015625 23.390625 
Q 45.015625 31 40.078125 35.4375 
Q 35.15625 39.890625 26.703125 39.890625 
Q 22.75 39.890625 18.8125 39.015625 
Q 14.890625 38.140625 10.796875 36.28125 
z
" id="DejaVuSans-35"/>
      </defs>
      <g transform="translate(7.2 306.294489)scale(0.22 -0.22)">
       <use xlink:href="#DejaVuSans-2212"/>
       <use x="83.789062" xlink:href="#DejaVuSans-30"/>
       <use x="147.412109" xlink:href="#DejaVuSans-2e"/>
       <use x="179.199219" xlink:href="#DejaVuSans-30"/>
       <use x="242.822266" xlink:href="#DejaVuSans-30"/>
       <use x="306.445312" xlink:href="#DejaVuSans-37"/>
       <use x="370.068359" xlink:href="#DejaVuSans-35"/>
      </g>
     </g>
    </g>
    <g id="ytick_3">
     <g id="line2d_3">
      <g>
       <use style="stroke:#000000;stroke-width:0.8;" x="109.614687" xlink:href="#m20c007ae31" y="260.30872"/>
      </g>
     </g>
     <g id="text_3">
      <!-- −0.0050 -->
      <g transform="translate(7.2 268.667002)scale(0.22 -0.22)">
       <use xlink:href="#DejaVuSans-2212"/>
       <use x="83.789062" xlink:href="#DejaVuSans-30"/>
       <use x="147.412109" xlink:href="#DejaVuSans-2e"/>
       <use x="179.199219" xlink:href="#DejaVuSans-30"/>
       <use x="242.822266" xlink:href="#DejaVuSans-30"/>
       <use x="306.445312" xlink:href="#DejaVuSans-35"/>
       <use x="370.068359" xlink:href="#DejaVuSans-30"/>
      </g>
     </g>
    </g>
    <g id="ytick_4">
     <g id="line2d_4">
      <g>
       <use style="stroke:#000000;stroke-width:0.8;" x="109.614687" xlink:href="#m20c007ae31" y="222.681233"/>
      </g>
     </g>
     <g id="text_4">
      <!-- −0.0025 -->
      <defs>
       <path d="M 19.1875 8.296875 
L 53.609375 8.296875 
L 53.609375 0 
L 7.328125 0 
L 7.328125 8.296875 
Q 12.9375 14.109375 22.625 23.890625 
Q 32.328125 33.6875 34.8125 36.53125 
Q 39.546875 41.84375 41.421875 45.53125 
Q 43.3125 49.21875 43.3125 52.78125 
Q 43.3125 58.59375 39.234375 62.25 
Q 35.15625 65.921875 28.609375 65.921875 
Q 23.96875 65.921875 18.8125 64.3125 
Q 13.671875 62.703125 7.8125 59.421875 
L 7.8125 69.390625 
Q 13.765625 71.78125 18.9375 73 
Q 24.125 74.21875 28.421875 74.21875 
Q 39.75 74.21875 46.484375 68.546875 
Q 53.21875 62.890625 53.21875 53.421875 
Q 53.21875 48.921875 51.53125 44.890625 
Q 49.859375 40.875 45.40625 35.40625 
Q 44.1875 33.984375 37.640625 27.21875 
Q 31.109375 20.453125 19.1875 8.296875 
z
" id="DejaVuSans-32"/>
      </defs>
      <g transform="translate(7.2 231.039514)scale(0.22 -0.22)">
       <use xlink:href="#DejaVuSans-2212"/>
       <use x="83.789062" xlink:href="#DejaVuSans-30"/>
       <use x="147.412109" xlink:href="#DejaVuSans-2e"/>
       <use x="179.199219" xlink:href="#DejaVuSans-30"/>
       <use x="242.822266" xlink:href="#DejaVuSans-30"/>
       <use x="306.445312" xlink:href="#DejaVuSans-32"/>
       <use x="370.068359" xlink:href="#DejaVuSans-35"/>
      </g>
     </g>
    </g>
    <g id="ytick_5">
     <g id="line2d_5">
      <g>
       <use style="stroke:#000000;stroke-width:0.8;" x="109.614687" xlink:href="#m20c007ae31" y="185.053746"/>
      </g>
     </g>
     <g id="text_5">
      <!-- 0.0000 -->
      <g transform="translate(25.635312 193.412027)scale(0.22 -0.22)">
       <use xlink:href="#DejaVuSans-30"/>
       <use x="63.623047" xlink:href="#DejaVuSans-2e"/>
       <use x="95.410156" xlink:href="#DejaVuSans-30"/>
       <use x="159.033203" xlink:href="#DejaVuSans-30"/>
       <use x="222.65625" xlink:href="#DejaVuSans-30"/>
       <use x="286.279297" xlink:href="#DejaVuSans-30"/>
      </g>
     </g>
    </g>
    <g id="ytick_6">
     <g id="line2d_6">
      <g>
       <use style="stroke:#000000;stroke-width:0.8;" x="109.614687" xlink:href="#m20c007ae31" y="147.426258"/>
      </g>
     </g>
     <g id="text_6">
      <!-- 0.0025 -->
      <g transform="translate(25.635312 155.784539)scale(0.22 -0.22)">
       <use xlink:href="#DejaVuSans-30"/>
       <use x="63.623047" xlink:href="#DejaVuSans-2e"/>
       <use x="95.410156" xlink:href="#DejaVuSans-30"/>
       <use x="159.033203" xlink:href="#DejaVuSans-30"/>
       <use x="222.65625" xlink:href="#DejaVuSans-32"/>
       <use x="286.279297" xlink:href="#DejaVuSans-35"/>
      </g>
     </g>
    </g>
    <g id="ytick_7">
     <g id="line2d_7">
      <g>
       <use style="stroke:#000000;stroke-width:0.8;" x="109.614687" xlink:href="#m20c007ae31" y="109.798771"/>
      </g>
     </g>
     <g id="text_7">
      <!-- 0.0050 -->
      <g transform="translate(25.635312 118.157052)scale(0.22 -0.22)">
       <use xlink:href="#DejaVuSans-30"/>
       <use x="63.623047" xlink:href="#DejaVuSans-2e"/>
       <use x="95.410156" xlink:href="#DejaVuSans-30"/>
       <use x="159.033203" xlink:href="#DejaVuSans-30"/>
       <use x="222.65625" xlink:href="#DejaVuSans-35"/>
       <use x="286.279297" xlink:href="#DejaVuSans-30"/>
      </g>
     </g>
    </g>
    <g id="ytick_8">
     <g id="line2d_8">
      <g>
       <use style="stroke:#000000;stroke-width:0.8;" x="109.614687" xlink:href="#m20c007ae31" y="72.171283"/>
      </g>
     </g>
     <g id="text_8">
      <!-- 0.0075 -->
      <g transform="translate(25.635312 80.529564)scale(0.22 -0.22)">
       <use xlink:href="#DejaVuSans-30"/>
       <use x="63.623047" xlink:href="#DejaVuSans-2e"/>
       <use x="95.410156" xlink:href="#DejaVuSans-30"/>
       <use x="159.033203" xlink:href="#DejaVuSans-30"/>
       <use x="222.65625" xlink:href="#DejaVuSans-37"/>
       <use x="286.279297" xlink:href="#DejaVuSans-35"/>
      </g>
     </g>
    </g>
    <g id="ytick_9">
     <g id="line2d_9">
      <g>
       <use style="stroke:#000000;stroke-width:0.8;" x="109.614687" xlink:href="#m20c007ae31" y="34.543796"/>
      </g>
     </g>
     <g id="text_9">
      <!-- 0.0100 -->
      <g transform="translate(25.635312 42.902077)scale(0.22 -0.22)">
       <use xlink:href="#DejaVuSans-30"/>
       <use x="63.623047" xlink:href="#DejaVuSans-2e"/>
       <use x="95.410156" xlink:href="#DejaVuSans-30"/>
       <use x="159.033203" xlink:href="#DejaVuSans-31"/>
       <use x="222.65625" xlink:href="#DejaVuSans-30"/>
       <use x="286.279297" xlink:href="#DejaVuSans-30"/>
      </g>
     </g>
    </g>
   </g>
   <g id="patch_3">
    <path d="M 109.614687 343.34 
L 109.614687 10.7 
" style="fill:none;stroke:#000000;stroke-linecap:square;stroke-linejoin:miter;stroke-width:0.8;"/>
   </g>
   <g id="patch_4">
    <path d="M 444.414688 343.34 
L 444.414688 10.7 
" style="fill:none;stroke:#000000;stroke-linecap:square;stroke-linejoin:miter;stroke-width:0.8;"/>
   </g>
   <g id="patch_5">
    <path d="M 109.614687 343.34 
L 444.414688 343.34 
" style="fill:none;stroke:#000000;stroke-linecap:square;stroke-linejoin:miter;stroke-width:0.8;"/>
   </g>
   <g id="patch_6">
    <path d="M 109.614687 10.7 
L 444.414688 10.7 
" style="fill:none;stroke:#000000;stroke-linecap:square;stroke-linejoin:miter;stroke-width:0.8;"/>
   </g>
  </g>
 </g>
 <defs>
  <clipPath id="p2289e3e8e0">
   <rect height="332.64" width="334.8" x="109.614687" y="10.7"/>
  </clipPath>
 </defs>
</svg>
