<?xml version="1.0" encoding="utf-8" standalone="no"?>
<!DOCTYPE svg PUBLIC "-//W3C//DTD SVG 1.1//EN"
  "http://www.w3.org/Graphics/SVG/1.1/DTD/svg11.dtd">
<!-- Created with matplotlib (http://matplotlib.org/) -->
<svg height="354pt" version="1.1" viewBox="0 0 392 354" width="392pt" xmlns="http://www.w3.org/2000/svg" xmlns:xlink="http://www.w3.org/1999/xlink">
 <defs>
  <style type="text/css">
*{stroke-linecap:butt;stroke-linejoin:round;}
  </style>
 </defs>
 <g id="figure_1">
  <g id="patch_1">
   <path d="M -0 354.04 
L 392.132812 354.04 
L 392.132812 0 
L -0 0 
z
" style="fill:#ffffff;"/>
  </g>
  <g id="axes_1">
   <g id="patch_2">
    <path d="M 46.632812 343.34 
L 381.432813 343.34 
L 381.432813 10.7 
L 46.632812 10.7 
z
" style="fill:#ffffff;"/>
   </g>
   <g id="PolyCollection_1">
    <defs>
     <path d="M 61.850994 -130.916773 
L 61.850994 -136.223769 
L 65.159295 -136.223769 
L 68.467595 -136.223769 
L 71.775896 -136.223769 
L 75.084196 -136.223769 
L 78.392496 -136.223769 
L 81.700797 -136.223769 
L 85.009097 -136.223769 
L 88.317397 -136.223769 
L 91.625698 -136.223769 
L 94.933998 -136.223769 
L 98.242299 -136.223769 
L 101.550599 -136.223769 
L 104.858899 -136.223769 
L 108.1672 -136.223769 
L 111.4755 -136.223769 
L 114.783801 -136.223769 
L 118.092101 -136.223769 
L 121.400401 -136.223769 
L 124.708702 -136.223769 
L 128.017002 -136.223769 
L 131.325303 -136.223769 
L 134.633603 -136.223769 
L 137.941903 -136.223769 
L 141.250204 -136.223769 
L 144.558504 -136.223769 
L 147.866805 -136.223769 
L 151.175105 -136.223769 
L 154.483405 -136.223769 
L 157.791706 -136.223769 
L 161.100006 -136.223769 
L 164.408307 -136.223769 
L 167.716607 -136.223769 
L 171.024907 -136.223769 
L 174.333208 -136.223769 
L 177.641508 -136.223769 
L 180.949809 -136.223769 
L 184.258109 -136.223769 
L 187.566409 -136.223769 
L 190.87471 -136.223769 
L 194.18301 -136.223769 
L 197.491311 -136.223769 
L 200.799611 -136.223769 
L 204.107911 -136.223769 
L 207.416212 -136.223769 
L 210.724512 -136.223769 
L 214.032813 -136.223769 
L 217.341113 -136.223769 
L 220.649413 -136.223769 
L 223.957714 -136.223769 
L 227.266014 -136.223769 
L 230.574314 -136.223769 
L 233.882615 -136.223769 
L 237.190915 -136.223769 
L 240.499216 -136.223769 
L 243.807516 -136.223769 
L 247.115816 -136.223769 
L 250.424117 -136.223769 
L 253.732417 -136.223769 
L 257.040718 -136.223769 
L 260.349018 -136.223769 
L 263.657318 -136.223769 
L 266.965619 -136.223769 
L 270.273919 -136.223769 
L 273.58222 -136.223769 
L 276.89052 -136.223769 
L 280.19882 -136.223769 
L 283.507121 -136.223769 
L 286.815421 -136.223769 
L 290.123722 -136.223769 
L 293.432022 -136.223769 
L 296.740322 -136.223769 
L 300.048623 -136.223769 
L 303.356923 -136.223769 
L 306.665224 -136.223769 
L 309.973524 -136.223769 
L 313.281824 -136.223769 
L 316.590125 -136.223769 
L 319.898425 -136.223769 
L 323.206726 -136.223769 
L 326.515026 -136.223769 
L 329.823326 -136.223769 
L 333.131627 -136.223769 
L 336.439927 -136.223769 
L 339.748228 -136.223769 
L 343.056528 -136.223769 
L 346.364828 -136.223769 
L 349.673129 -136.223769 
L 352.981429 -136.223769 
L 356.289729 -136.223769 
L 359.59803 -136.223769 
L 362.90633 -136.223769 
L 366.214631 -136.223769 
L 366.214631 -150.893402 
L 366.214631 -150.893402 
L 362.90633 -144.061644 
L 359.59803 -140.920846 
L 356.289729 -140.465705 
L 352.981429 -139.271024 
L 349.673129 -139.205212 
L 346.364828 -139.192836 
L 343.056528 -139.172408 
L 339.748228 -139.148858 
L 336.439927 -138.911633 
L 333.131627 -138.839227 
L 329.823326 -138.681934 
L 326.515026 -138.471143 
L 323.206726 -138.376307 
L 319.898425 -138.335714 
L 316.590125 -137.780628 
L 313.281824 -137.769091 
L 309.973524 -137.510814 
L 306.665224 -137.410917 
L 303.356923 -137.353046 
L 300.048623 -137.24874 
L 296.740322 -137.211426 
L 293.432022 -137.12199 
L 290.123722 -137.0285 
L 286.815421 -136.984443 
L 283.507121 -136.966594 
L 280.19882 -136.908338 
L 276.89052 -136.86773 
L 273.58222 -136.840198 
L 270.273919 -136.693823 
L 266.965619 -136.612802 
L 263.657318 -136.509114 
L 260.349018 -136.443373 
L 257.040718 -136.317172 
L 253.732417 -136.31606 
L 250.424117 -136.31065 
L 247.115816 -136.284914 
L 243.807516 -136.279357 
L 240.499216 -136.270113 
L 237.190915 -136.266182 
L 233.882615 -136.259967 
L 230.574314 -136.258859 
L 227.266014 -136.255166 
L 223.957714 -136.24753 
L 220.649413 -136.246854 
L 217.341113 -136.243377 
L 214.032813 -136.239703 
L 210.724512 -136.239455 
L 207.416212 -136.238915 
L 204.107911 -136.238744 
L 200.799611 -136.235961 
L 197.491311 -136.234757 
L 194.18301 -136.233303 
L 190.87471 -136.232778 
L 187.566409 -136.232563 
L 184.258109 -136.232467 
L 180.949809 -136.230887 
L 177.641508 -136.229995 
L 174.333208 -136.226449 
L 171.024907 -136.225656 
L 167.716607 -136.225541 
L 164.408307 -136.223904 
L 161.100006 -136.220079 
L 157.791706 -136.218495 
L 154.483405 -136.214982 
L 151.175105 -136.210993 
L 147.866805 -136.20825 
L 144.558504 -136.204934 
L 141.250204 -136.203872 
L 137.941903 -136.20138 
L 134.633603 -136.1956 
L 131.325303 -136.192908 
L 128.017002 -136.179503 
L 124.708702 -136.17795 
L 121.400401 -136.001402 
L 118.092101 -135.92232 
L 114.783801 -135.669097 
L 111.4755 -135.565235 
L 108.1672 -135.550335 
L 104.858899 -135.518707 
L 101.550599 -135.468147 
L 98.242299 -134.69831 
L 94.933998 -134.674189 
L 91.625698 -134.293442 
L 88.317397 -134.131383 
L 85.009097 -134.081568 
L 81.700797 -133.791619 
L 78.392496 -133.781204 
L 75.084196 -133.734311 
L 71.775896 -133.48181 
L 68.467595 -133.231621 
L 65.159295 -133.067708 
L 61.850994 -130.916773 
z
" id="me003f18fc1" style="stroke:#4a98c9;"/>
    </defs>
    <g clip-path="url(#pf432b4b8ca)">
     <use style="fill:#4a98c9;stroke:#4a98c9;" x="0" xlink:href="#me003f18fc1" y="354.04"/>
    </g>
   </g>
   <g id="PolyCollection_2">
    <defs>
     <path d="M 61.850994 -25.82 
L 61.850994 -136.223769 
L 65.159295 -136.223769 
L 68.467595 -136.223769 
L 71.775896 -136.223769 
L 75.084196 -136.223769 
L 78.392496 -136.223769 
L 81.700797 -136.223769 
L 85.009097 -136.223769 
L 88.317397 -136.223769 
L 91.625698 -136.223769 
L 94.933998 -136.223769 
L 98.242299 -136.223769 
L 101.550599 -136.223769 
L 104.858899 -136.223769 
L 108.1672 -136.223769 
L 111.4755 -136.223769 
L 114.783801 -136.223769 
L 118.092101 -136.223769 
L 121.400401 -136.223769 
L 124.708702 -136.223769 
L 128.017002 -136.223769 
L 131.325303 -136.223769 
L 134.633603 -136.223769 
L 137.941903 -136.223769 
L 141.250204 -136.223769 
L 144.558504 -136.223769 
L 147.866805 -136.223769 
L 151.175105 -136.223769 
L 154.483405 -136.223769 
L 157.791706 -136.223769 
L 161.100006 -136.223769 
L 164.408307 -136.223769 
L 167.716607 -136.223769 
L 171.024907 -136.223769 
L 174.333208 -136.223769 
L 177.641508 -136.223769 
L 180.949809 -136.223769 
L 184.258109 -136.223769 
L 187.566409 -136.223769 
L 190.87471 -136.223769 
L 194.18301 -136.223769 
L 197.491311 -136.223769 
L 200.799611 -136.223769 
L 204.107911 -136.223769 
L 207.416212 -136.223769 
L 210.724512 -136.223769 
L 214.032813 -136.223769 
L 217.341113 -136.223769 
L 220.649413 -136.223769 
L 223.957714 -136.223769 
L 227.266014 -136.223769 
L 230.574314 -136.223769 
L 233.882615 -136.223769 
L 237.190915 -136.223769 
L 240.499216 -136.223769 
L 243.807516 -136.223769 
L 247.115816 -136.223769 
L 250.424117 -136.223769 
L 253.732417 -136.223769 
L 257.040718 -136.223769 
L 260.349018 -136.223769 
L 263.657318 -136.223769 
L 266.965619 -136.223769 
L 270.273919 -136.223769 
L 273.58222 -136.223769 
L 276.89052 -136.223769 
L 280.19882 -136.223769 
L 283.507121 -136.223769 
L 286.815421 -136.223769 
L 290.123722 -136.223769 
L 293.432022 -136.223769 
L 296.740322 -136.223769 
L 300.048623 -136.223769 
L 303.356923 -136.223769 
L 306.665224 -136.223769 
L 309.973524 -136.223769 
L 313.281824 -136.223769 
L 316.590125 -136.223769 
L 319.898425 -136.223769 
L 323.206726 -136.223769 
L 326.515026 -136.223769 
L 329.823326 -136.223769 
L 333.131627 -136.223769 
L 336.439927 -136.223769 
L 339.748228 -136.223769 
L 343.056528 -136.223769 
L 346.364828 -136.223769 
L 349.673129 -136.223769 
L 352.981429 -136.223769 
L 356.289729 -136.223769 
L 359.59803 -136.223769 
L 362.90633 -136.223769 
L 366.214631 -136.223769 
L 366.214631 -328.22 
L 366.214631 -328.22 
L 362.90633 -229.528319 
L 359.59803 -213.469155 
L 356.289729 -198.097344 
L 352.981429 -192.503071 
L 349.673129 -191.981968 
L 346.364828 -191.275394 
L 343.056528 -184.990895 
L 339.748228 -184.270796 
L 336.439927 -180.065219 
L 333.131627 -170.339909 
L 329.823326 -165.518771 
L 326.515026 -164.337132 
L 323.206726 -163.677904 
L 319.898425 -163.046579 
L 316.590125 -160.167176 
L 313.281824 -159.488596 
L 309.973524 -155.758723 
L 306.665224 -153.394141 
L 303.356923 -152.375989 
L 300.048623 -151.239827 
L 296.740322 -150.393937 
L 293.432022 -149.073799 
L 290.123722 -148.903674 
L 286.815421 -143.71106 
L 283.507121 -142.103126 
L 280.19882 -140.932284 
L 276.89052 -139.542967 
L 273.58222 -136.546859 
L 270.273919 -136.373073 
L 266.965619 -136.366081 
L 263.657318 -136.32089 
L 260.349018 -136.311966 
L 257.040718 -136.278234 
L 253.732417 -136.266426 
L 250.424117 -136.264078 
L 247.115816 -136.26348 
L 243.807516 -136.262462 
L 240.499216 -136.252337 
L 237.190915 -136.243629 
L 233.882615 -136.236731 
L 230.574314 -136.234031 
L 227.266014 -136.233698 
L 223.957714 -136.232625 
L 220.649413 -136.231972 
L 217.341113 -136.231141 
L 214.032813 -136.230145 
L 210.724512 -136.229777 
L 207.416212 -136.229003 
L 204.107911 -136.22849 
L 200.799611 -136.227666 
L 197.491311 -136.2271 
L 194.18301 -136.225049 
L 190.87471 -136.224567 
L 187.566409 -136.223847 
L 184.258109 -136.22372 
L 180.949809 -136.223346 
L 177.641508 -136.2206 
L 174.333208 -136.219155 
L 171.024907 -136.218894 
L 167.716607 -136.217026 
L 164.408307 -136.216985 
L 161.100006 -136.216833 
L 157.791706 -136.216147 
L 154.483405 -136.202207 
L 151.175105 -136.201589 
L 147.866805 -136.188891 
L 144.558504 -136.184671 
L 141.250204 -136.182763 
L 137.941903 -136.1734 
L 134.633603 -136.1675 
L 131.325303 -135.454754 
L 128.017002 -135.315694 
L 124.708702 -131.900502 
L 121.400401 -131.212778 
L 118.092101 -129.500692 
L 114.783801 -128.029242 
L 111.4755 -127.559317 
L 108.1672 -127.439082 
L 104.858899 -126.601113 
L 101.550599 -126.208139 
L 98.242299 -119.353961 
L 94.933998 -111.068691 
L 91.625698 -111.043537 
L 88.317397 -109.699867 
L 85.009097 -107.250772 
L 81.700797 -102.851616 
L 78.392496 -98.592405 
L 75.084196 -97.422979 
L 71.775896 -97.136071 
L 68.467595 -93.922397 
L 65.159295 -76.476157 
L 61.850994 -25.82 
z
" id="m1ab3d6ec24" style="stroke:#f14432;stroke-opacity:0.8;"/>
    </defs>
    <g clip-path="url(#pf432b4b8ca)">
     <use style="fill:#f14432;fill-opacity:0.8;stroke:#f14432;stroke-opacity:0.8;" x="0" xlink:href="#m1ab3d6ec24" y="354.04"/>
    </g>
   </g>
   <g id="matplotlib.axis_1"/>
   <g id="matplotlib.axis_2">
    <g id="ytick_1">
     <g id="line2d_1">
      <defs>
       <path d="M 0 0 
L -3.5 0 
" id="m32f84c8b4e" style="stroke:#000000;stroke-width:0.8;"/>
      </defs>
      <g>
       <use style="stroke:#000000;stroke-width:0.8;" x="46.632812" xlink:href="#m32f84c8b4e" y="331.642857"/>
      </g>
     </g>
     <g id="text_1">
      <!-- −2 -->
      <defs>
       <path d="M 10.59375 35.5 
L 73.1875 35.5 
L 73.1875 27.203125 
L 10.59375 27.203125 
z
" id="DejaVuSans-2212"/>
       <path d="M 19.1875 8.296875 
L 53.609375 8.296875 
L 53.609375 0 
L 7.328125 0 
L 7.328125 8.296875 
Q 12.9375 14.109375 22.625 23.890625 
Q 32.328125 33.6875 34.8125 36.53125 
Q 39.546875 41.84375 41.421875 45.53125 
Q 43.3125 49.21875 43.3125 52.78125 
Q 43.3125 58.59375 39.234375 62.25 
Q 35.15625 65.921875 28.609375 65.921875 
Q 23.96875 65.921875 18.8125 64.3125 
Q 13.671875 62.703125 7.8125 59.421875 
L 7.8125 69.390625 
Q 13.765625 71.78125 18.9375 73 
Q 24.125 74.21875 28.421875 74.21875 
Q 39.75 74.21875 46.484375 68.546875 
Q 53.21875 62.890625 53.21875 53.421875 
Q 53.21875 48.921875 51.53125 44.890625 
Q 49.859375 40.875 45.40625 35.40625 
Q 44.1875 33.984375 37.640625 27.21875 
Q 31.109375 20.453125 19.1875 8.296875 
z
" id="DejaVuSans-32"/>
      </defs>
      <g transform="translate(7.2 340.001139)scale(0.22 -0.22)">
       <use xlink:href="#DejaVuSans-2212"/>
       <use x="83.789062" xlink:href="#DejaVuSans-32"/>
      </g>
     </g>
    </g>
    <g id="ytick_2">
     <g id="line2d_2">
      <g>
       <use style="stroke:#000000;stroke-width:0.8;" x="46.632812" xlink:href="#m32f84c8b4e" y="274.729544"/>
      </g>
     </g>
     <g id="text_2">
      <!-- −1 -->
      <defs>
       <path d="M 12.40625 8.296875 
L 28.515625 8.296875 
L 28.515625 63.921875 
L 10.984375 60.40625 
L 10.984375 69.390625 
L 28.421875 72.90625 
L 38.28125 72.90625 
L 38.28125 8.296875 
L 54.390625 8.296875 
L 54.390625 0 
L 12.40625 0 
z
" id="DejaVuSans-31"/>
      </defs>
      <g transform="translate(7.2 283.087826)scale(0.22 -0.22)">
       <use xlink:href="#DejaVuSans-2212"/>
       <use x="83.789062" xlink:href="#DejaVuSans-31"/>
      </g>
     </g>
    </g>
    <g id="ytick_3">
     <g id="line2d_3">
      <g>
       <use style="stroke:#000000;stroke-width:0.8;" x="46.632812" xlink:href="#m32f84c8b4e" y="217.816231"/>
      </g>
     </g>
     <g id="text_3">
      <!-- 0 -->
      <defs>
       <path d="M 31.78125 66.40625 
Q 24.171875 66.40625 20.328125 58.90625 
Q 16.5 51.421875 16.5 36.375 
Q 16.5 21.390625 20.328125 13.890625 
Q 24.171875 6.390625 31.78125 6.390625 
Q 39.453125 6.390625 43.28125 13.890625 
Q 47.125 21.390625 47.125 36.375 
Q 47.125 51.421875 43.28125 58.90625 
Q 39.453125 66.40625 31.78125 66.40625 
z
M 31.78125 74.21875 
Q 44.046875 74.21875 50.515625 64.515625 
Q 56.984375 54.828125 56.984375 36.375 
Q 56.984375 17.96875 50.515625 8.265625 
Q 44.046875 -1.421875 31.78125 -1.421875 
Q 19.53125 -1.421875 13.0625 8.265625 
Q 6.59375 17.96875 6.59375 36.375 
Q 6.59375 54.828125 13.0625 64.515625 
Q 19.53125 74.21875 31.78125 74.21875 
z
" id="DejaVuSans-30"/>
      </defs>
      <g transform="translate(25.635312 226.174513)scale(0.22 -0.22)">
       <use xlink:href="#DejaVuSans-30"/>
      </g>
     </g>
    </g>
    <g id="ytick_4">
     <g id="line2d_4">
      <g>
       <use style="stroke:#000000;stroke-width:0.8;" x="46.632812" xlink:href="#m32f84c8b4e" y="160.902918"/>
      </g>
     </g>
     <g id="text_4">
      <!-- 1 -->
      <g transform="translate(25.635312 169.2612)scale(0.22 -0.22)">
       <use xlink:href="#DejaVuSans-31"/>
      </g>
     </g>
    </g>
    <g id="ytick_5">
     <g id="line2d_5">
      <g>
       <use style="stroke:#000000;stroke-width:0.8;" x="46.632812" xlink:href="#m32f84c8b4e" y="103.989606"/>
      </g>
     </g>
     <g id="text_5">
      <!-- 2 -->
      <g transform="translate(25.635312 112.347887)scale(0.22 -0.22)">
       <use xlink:href="#DejaVuSans-32"/>
      </g>
     </g>
    </g>
    <g id="ytick_6">
     <g id="line2d_6">
      <g>
       <use style="stroke:#000000;stroke-width:0.8;" x="46.632812" xlink:href="#m32f84c8b4e" y="47.076293"/>
      </g>
     </g>
     <g id="text_6">
      <!-- 3 -->
      <defs>
       <path d="M 40.578125 39.3125 
Q 47.65625 37.796875 51.625 33 
Q 55.609375 28.21875 55.609375 21.1875 
Q 55.609375 10.40625 48.1875 4.484375 
Q 40.765625 -1.421875 27.09375 -1.421875 
Q 22.515625 -1.421875 17.65625 -0.515625 
Q 12.796875 0.390625 7.625 2.203125 
L 7.625 11.71875 
Q 11.71875 9.328125 16.59375 8.109375 
Q 21.484375 6.890625 26.8125 6.890625 
Q 36.078125 6.890625 40.9375 10.546875 
Q 45.796875 14.203125 45.796875 21.1875 
Q 45.796875 27.640625 41.28125 31.265625 
Q 36.765625 34.90625 28.71875 34.90625 
L 20.21875 34.90625 
L 20.21875 43.015625 
L 29.109375 43.015625 
Q 36.375 43.015625 40.234375 45.921875 
Q 44.09375 48.828125 44.09375 54.296875 
Q 44.09375 59.90625 40.109375 62.90625 
Q 36.140625 65.921875 28.71875 65.921875 
Q 24.65625 65.921875 20.015625 65.03125 
Q 15.375 64.15625 9.8125 62.3125 
L 9.8125 71.09375 
Q 15.4375 72.65625 20.34375 73.4375 
Q 25.25 74.21875 29.59375 74.21875 
Q 40.828125 74.21875 47.359375 69.109375 
Q 53.90625 64.015625 53.90625 55.328125 
Q 53.90625 49.265625 50.4375 45.09375 
Q 46.96875 40.921875 40.578125 39.3125 
z
" id="DejaVuSans-33"/>
      </defs>
      <g transform="translate(25.635312 55.434574)scale(0.22 -0.22)">
       <use xlink:href="#DejaVuSans-33"/>
      </g>
     </g>
    </g>
   </g>
   <g id="patch_3">
    <path d="M 46.632812 343.34 
L 46.632812 10.7 
" style="fill:none;stroke:#000000;stroke-linecap:square;stroke-linejoin:miter;stroke-width:0.8;"/>
   </g>
   <g id="patch_4">
    <path d="M 381.432813 343.34 
L 381.432813 10.7 
" style="fill:none;stroke:#000000;stroke-linecap:square;stroke-linejoin:miter;stroke-width:0.8;"/>
   </g>
   <g id="patch_5">
    <path d="M 46.632812 343.34 
L 381.432813 343.34 
" style="fill:none;stroke:#000000;stroke-linecap:square;stroke-linejoin:miter;stroke-width:0.8;"/>
   </g>
   <g id="patch_6">
    <path d="M 46.632812 10.7 
L 381.432813 10.7 
" style="fill:none;stroke:#000000;stroke-linecap:square;stroke-linejoin:miter;stroke-width:0.8;"/>
   </g>
  </g>
 </g>
 <defs>
  <clipPath id="pf432b4b8ca">
   <rect height="332.64" width="334.8" x="46.632812" y="10.7"/>
  </clipPath>
 </defs>
</svg>
