<?xml version="1.0" encoding="utf-8" standalone="no"?>
<!DOCTYPE svg PUBLIC "-//W3C//DTD SVG 1.1//EN"
  "http://www.w3.org/Graphics/SVG/1.1/DTD/svg11.dtd">
<!-- Created with matplotlib (http://matplotlib.org/) -->
<svg height="354pt" version="1.1" viewBox="0 0 455 354" width="455pt" xmlns="http://www.w3.org/2000/svg" xmlns:xlink="http://www.w3.org/1999/xlink">
 <defs>
  <style type="text/css">
*{stroke-linecap:butt;stroke-linejoin:round;}
  </style>
 </defs>
 <g id="figure_1">
  <g id="patch_1">
   <path d="M 0 354.04 
L 455.114687 354.04 
L 455.114687 0 
L 0 0 
z
" style="fill:#ffffff;"/>
  </g>
  <g id="axes_1">
   <g id="patch_2">
    <path d="M 109.614687 343.34 
L 444.414688 343.34 
L 444.414688 10.7 
L 109.614687 10.7 
z
" style="fill:#ffffff;"/>
   </g>
   <g id="PolyCollection_1">
    <defs>
     <path d="M 124.832869 -25.82 
L 124.832869 -144.45251 
L 128.14117 -144.45251 
L 131.44947 -144.45251 
L 134.757771 -144.45251 
L 138.066071 -144.45251 
L 141.374371 -144.45251 
L 144.682672 -144.45251 
L 147.990972 -144.45251 
L 151.299272 -144.45251 
L 154.607573 -144.45251 
L 157.915873 -144.45251 
L 161.224174 -144.45251 
L 164.532474 -144.45251 
L 167.840774 -144.45251 
L 171.149075 -144.45251 
L 174.457375 -144.45251 
L 177.765676 -144.45251 
L 181.073976 -144.45251 
L 184.382276 -144.45251 
L 187.690577 -144.45251 
L 190.998877 -144.45251 
L 194.307178 -144.45251 
L 197.615478 -144.45251 
L 200.923778 -144.45251 
L 204.232079 -144.45251 
L 207.540379 -144.45251 
L 210.84868 -144.45251 
L 214.15698 -144.45251 
L 217.46528 -144.45251 
L 220.773581 -144.45251 
L 224.081881 -144.45251 
L 227.390182 -144.45251 
L 230.698482 -144.45251 
L 234.006782 -144.45251 
L 237.315083 -144.45251 
L 240.623383 -144.45251 
L 243.931684 -144.45251 
L 247.239984 -144.45251 
L 250.548284 -144.45251 
L 253.856585 -144.45251 
L 257.164885 -144.45251 
L 260.473186 -144.45251 
L 263.781486 -144.45251 
L 267.089786 -144.45251 
L 270.398087 -144.45251 
L 273.706387 -144.45251 
L 277.014688 -144.45251 
L 280.322988 -144.45251 
L 283.631288 -144.45251 
L 286.939589 -144.45251 
L 290.247889 -144.45251 
L 293.556189 -144.45251 
L 296.86449 -144.45251 
L 300.17279 -144.45251 
L 303.481091 -144.45251 
L 306.789391 -144.45251 
L 310.097691 -144.45251 
L 313.405992 -144.45251 
L 316.714292 -144.45251 
L 320.022593 -144.45251 
L 323.330893 -144.45251 
L 326.639193 -144.45251 
L 329.947494 -144.45251 
L 333.255794 -144.45251 
L 336.564095 -144.45251 
L 339.872395 -144.45251 
L 343.180695 -144.45251 
L 346.488996 -144.45251 
L 349.797296 -144.45251 
L 353.105597 -144.45251 
L 356.413897 -144.45251 
L 359.722197 -144.45251 
L 363.030498 -144.45251 
L 366.338798 -144.45251 
L 369.647099 -144.45251 
L 372.955399 -144.45251 
L 376.263699 -144.45251 
L 379.572 -144.45251 
L 382.8803 -144.45251 
L 386.188601 -144.45251 
L 389.496901 -144.45251 
L 392.805201 -144.45251 
L 396.113502 -144.45251 
L 399.421802 -144.45251 
L 402.730103 -144.45251 
L 406.038403 -144.45251 
L 409.346703 -144.45251 
L 412.655004 -144.45251 
L 415.963304 -144.45251 
L 419.271604 -144.45251 
L 422.579905 -144.45251 
L 425.888205 -144.45251 
L 429.196506 -144.45251 
L 429.196506 -328.22 
L 429.196506 -328.22 
L 425.888205 -262.689071 
L 422.579905 -256.745865 
L 419.271604 -251.679599 
L 415.963304 -236.265332 
L 412.655004 -230.957983 
L 409.346703 -229.134207 
L 406.038403 -225.56033 
L 402.730103 -225.328187 
L 399.421802 -224.713712 
L 396.113502 -220.705511 
L 392.805201 -218.945801 
L 389.496901 -218.184572 
L 386.188601 -217.864372 
L 382.8803 -211.850784 
L 379.572 -202.101092 
L 376.263699 -201.180068 
L 372.955399 -196.921745 
L 369.647099 -192.08191 
L 366.338798 -190.589019 
L 363.030498 -190.058315 
L 359.722197 -185.155571 
L 356.413897 -179.651458 
L 353.105597 -177.46669 
L 349.797296 -176.456808 
L 346.488996 -175.252972 
L 343.180695 -171.593859 
L 339.872395 -170.90479 
L 336.564095 -169.161211 
L 333.255794 -168.628965 
L 329.947494 -167.503663 
L 326.639193 -167.471423 
L 323.330893 -167.381676 
L 320.022593 -165.971354 
L 316.714292 -165.781026 
L 313.405992 -165.668928 
L 310.097691 -165.33632 
L 306.789391 -165.320383 
L 303.481091 -164.450379 
L 300.17279 -164.192551 
L 296.86449 -163.605244 
L 293.556189 -159.753599 
L 290.247889 -159.525597 
L 286.939589 -158.763525 
L 283.631288 -156.902654 
L 280.322988 -155.547342 
L 277.014688 -155.324028 
L 273.706387 -154.968864 
L 270.398087 -153.775003 
L 267.089786 -152.479114 
L 263.781486 -151.528142 
L 260.473186 -150.370574 
L 257.164885 -146.30575 
L 253.856585 -146.154137 
L 250.548284 -142.940366 
L 247.239984 -142.028879 
L 243.931684 -141.546632 
L 240.623383 -140.365791 
L 237.315083 -140.335321 
L 234.006782 -138.622944 
L 230.698482 -136.688318 
L 227.390182 -134.027784 
L 224.081881 -131.724062 
L 220.773581 -129.609315 
L 217.46528 -128.716114 
L 214.15698 -127.710242 
L 210.84868 -126.499933 
L 207.540379 -126.261525 
L 204.232079 -124.768871 
L 200.923778 -124.688306 
L 197.615478 -124.495716 
L 194.307178 -123.87261 
L 190.998877 -120.439155 
L 187.690577 -119.646536 
L 184.382276 -118.231242 
L 181.073976 -117.828426 
L 177.765676 -117.714451 
L 174.457375 -116.307632 
L 171.149075 -112.855943 
L 167.840774 -107.864817 
L 164.532474 -106.55564 
L 161.224174 -104.599377 
L 157.915873 -95.857935 
L 154.607573 -93.691086 
L 151.299272 -93.602208 
L 147.990972 -87.895786 
L 144.682672 -82.170785 
L 141.374371 -71.929497 
L 138.066071 -64.891278 
L 134.757771 -58.749067 
L 131.44947 -43.305704 
L 128.14117 -29.239948 
L 124.832869 -25.82 
z
" id="m8f458e3877" style="stroke:#4a98c9;"/>
    </defs>
    <g clip-path="url(#p011151cdda)">
     <use style="fill:#4a98c9;stroke:#4a98c9;" x="0" xlink:href="#m8f458e3877" y="354.04"/>
    </g>
   </g>
   <g id="PolyCollection_2">
    <defs>
     <path d="M 124.832869 -25.82 
L 124.832869 -144.45251 
L 128.14117 -144.45251 
L 131.44947 -144.45251 
L 134.757771 -144.45251 
L 138.066071 -144.45251 
L 141.374371 -144.45251 
L 144.682672 -144.45251 
L 147.990972 -144.45251 
L 151.299272 -144.45251 
L 154.607573 -144.45251 
L 157.915873 -144.45251 
L 161.224174 -144.45251 
L 164.532474 -144.45251 
L 167.840774 -144.45251 
L 171.149075 -144.45251 
L 174.457375 -144.45251 
L 177.765676 -144.45251 
L 181.073976 -144.45251 
L 184.382276 -144.45251 
L 187.690577 -144.45251 
L 190.998877 -144.45251 
L 194.307178 -144.45251 
L 197.615478 -144.45251 
L 200.923778 -144.45251 
L 204.232079 -144.45251 
L 207.540379 -144.45251 
L 210.84868 -144.45251 
L 214.15698 -144.45251 
L 217.46528 -144.45251 
L 220.773581 -144.45251 
L 224.081881 -144.45251 
L 227.390182 -144.45251 
L 230.698482 -144.45251 
L 234.006782 -144.45251 
L 237.315083 -144.45251 
L 240.623383 -144.45251 
L 243.931684 -144.45251 
L 247.239984 -144.45251 
L 250.548284 -144.45251 
L 253.856585 -144.45251 
L 257.164885 -144.45251 
L 260.473186 -144.45251 
L 263.781486 -144.45251 
L 267.089786 -144.45251 
L 270.398087 -144.45251 
L 273.706387 -144.45251 
L 277.014688 -144.45251 
L 280.322988 -144.45251 
L 283.631288 -144.45251 
L 286.939589 -144.45251 
L 290.247889 -144.45251 
L 293.556189 -144.45251 
L 296.86449 -144.45251 
L 300.17279 -144.45251 
L 303.481091 -144.45251 
L 306.789391 -144.45251 
L 310.097691 -144.45251 
L 313.405992 -144.45251 
L 316.714292 -144.45251 
L 320.022593 -144.45251 
L 323.330893 -144.45251 
L 326.639193 -144.45251 
L 329.947494 -144.45251 
L 333.255794 -144.45251 
L 336.564095 -144.45251 
L 339.872395 -144.45251 
L 343.180695 -144.45251 
L 346.488996 -144.45251 
L 349.797296 -144.45251 
L 353.105597 -144.45251 
L 356.413897 -144.45251 
L 359.722197 -144.45251 
L 363.030498 -144.45251 
L 366.338798 -144.45251 
L 369.647099 -144.45251 
L 372.955399 -144.45251 
L 376.263699 -144.45251 
L 379.572 -144.45251 
L 382.8803 -144.45251 
L 386.188601 -144.45251 
L 389.496901 -144.45251 
L 392.805201 -144.45251 
L 396.113502 -144.45251 
L 399.421802 -144.45251 
L 402.730103 -144.45251 
L 406.038403 -144.45251 
L 409.346703 -144.45251 
L 412.655004 -144.45251 
L 415.963304 -144.45251 
L 419.271604 -144.45251 
L 422.579905 -144.45251 
L 425.888205 -144.45251 
L 429.196506 -144.45251 
L 429.196506 -328.22 
L 429.196506 -328.22 
L 425.888205 -262.689071 
L 422.579905 -256.745865 
L 419.271604 -251.679599 
L 415.963304 -236.265332 
L 412.655004 -230.957983 
L 409.346703 -229.134207 
L 406.038403 -225.56033 
L 402.730103 -225.328187 
L 399.421802 -224.713712 
L 396.113502 -220.705511 
L 392.805201 -218.945801 
L 389.496901 -218.184572 
L 386.188601 -217.864372 
L 382.8803 -211.850784 
L 379.572 -202.101092 
L 376.263699 -201.180068 
L 372.955399 -196.921745 
L 369.647099 -192.08191 
L 366.338798 -190.589019 
L 363.030498 -190.058315 
L 359.722197 -185.155571 
L 356.413897 -179.651458 
L 353.105597 -177.46669 
L 349.797296 -176.456808 
L 346.488996 -175.252972 
L 343.180695 -171.593859 
L 339.872395 -170.90479 
L 336.564095 -169.161211 
L 333.255794 -168.628965 
L 329.947494 -167.503663 
L 326.639193 -167.471423 
L 323.330893 -167.381676 
L 320.022593 -165.971354 
L 316.714292 -165.781026 
L 313.405992 -165.668928 
L 310.097691 -165.33632 
L 306.789391 -165.320383 
L 303.481091 -164.450379 
L 300.17279 -164.192551 
L 296.86449 -163.605244 
L 293.556189 -159.753599 
L 290.247889 -159.525597 
L 286.939589 -158.763525 
L 283.631288 -156.902654 
L 280.322988 -155.547342 
L 277.014688 -155.324028 
L 273.706387 -154.968864 
L 270.398087 -153.775003 
L 267.089786 -152.479114 
L 263.781486 -151.528142 
L 260.473186 -150.370574 
L 257.164885 -146.30575 
L 253.856585 -146.154137 
L 250.548284 -142.940366 
L 247.239984 -142.028879 
L 243.931684 -141.546632 
L 240.623383 -140.365791 
L 237.315083 -140.335321 
L 234.006782 -138.622944 
L 230.698482 -136.688318 
L 227.390182 -134.027784 
L 224.081881 -131.724062 
L 220.773581 -129.609315 
L 217.46528 -128.716114 
L 214.15698 -127.710242 
L 210.84868 -126.499933 
L 207.540379 -126.261525 
L 204.232079 -124.768871 
L 200.923778 -124.688306 
L 197.615478 -124.495716 
L 194.307178 -123.87261 
L 190.998877 -120.439155 
L 187.690577 -119.646536 
L 184.382276 -118.231242 
L 181.073976 -117.828426 
L 177.765676 -117.714451 
L 174.457375 -116.307632 
L 171.149075 -112.855943 
L 167.840774 -107.864817 
L 164.532474 -106.55564 
L 161.224174 -104.599377 
L 157.915873 -95.857935 
L 154.607573 -93.691086 
L 151.299272 -93.602208 
L 147.990972 -87.895786 
L 144.682672 -82.170785 
L 141.374371 -71.929497 
L 138.066071 -64.891278 
L 134.757771 -58.749067 
L 131.44947 -43.305704 
L 128.14117 -29.239948 
L 124.832869 -25.82 
z
" id="m428c769d84" style="stroke:#f14432;stroke-opacity:0.8;"/>
    </defs>
    <g clip-path="url(#p011151cdda)">
     <use style="fill:#f14432;fill-opacity:0.8;stroke:#f14432;stroke-opacity:0.8;" x="0" xlink:href="#m428c769d84" y="354.04"/>
    </g>
   </g>
   <g id="matplotlib.axis_1"/>
   <g id="matplotlib.axis_2">
    <g id="ytick_1">
     <g id="line2d_1">
      <defs>
       <path d="M 0 0 
L -3.5 0 
" id="m8b927c2e9b" style="stroke:#000000;stroke-width:0.8;"/>
      </defs>
      <g>
       <use style="stroke:#000000;stroke-width:0.8;" x="109.614687" xlink:href="#m8b927c2e9b" y="278.073678"/>
      </g>
     </g>
     <g id="text_1">
      <!-- −0.0002 -->
      <defs>
       <path d="M 10.59375 35.5 
L 73.1875 35.5 
L 73.1875 27.203125 
L 10.59375 27.203125 
z
" id="DejaVuSans-2212"/>
       <path d="M 31.78125 66.40625 
Q 24.171875 66.40625 20.328125 58.90625 
Q 16.5 51.421875 16.5 36.375 
Q 16.5 21.390625 20.328125 13.890625 
Q 24.171875 6.390625 31.78125 6.390625 
Q 39.453125 6.390625 43.28125 13.890625 
Q 47.125 21.390625 47.125 36.375 
Q 47.125 51.421875 43.28125 58.90625 
Q 39.453125 66.40625 31.78125 66.40625 
z
M 31.78125 74.21875 
Q 44.046875 74.21875 50.515625 64.515625 
Q 56.984375 54.828125 56.984375 36.375 
Q 56.984375 17.96875 50.515625 8.265625 
Q 44.046875 -1.421875 31.78125 -1.421875 
Q 19.53125 -1.421875 13.0625 8.265625 
Q 6.59375 17.96875 6.59375 36.375 
Q 6.59375 54.828125 13.0625 64.515625 
Q 19.53125 74.21875 31.78125 74.21875 
z
" id="DejaVuSans-30"/>
       <path d="M 10.6875 12.40625 
L 21 12.40625 
L 21 0 
L 10.6875 0 
z
" id="DejaVuSans-2e"/>
       <path d="M 19.1875 8.296875 
L 53.609375 8.296875 
L 53.609375 0 
L 7.328125 0 
L 7.328125 8.296875 
Q 12.9375 14.109375 22.625 23.890625 
Q 32.328125 33.6875 34.8125 36.53125 
Q 39.546875 41.84375 41.421875 45.53125 
Q 43.3125 49.21875 43.3125 52.78125 
Q 43.3125 58.59375 39.234375 62.25 
Q 35.15625 65.921875 28.609375 65.921875 
Q 23.96875 65.921875 18.8125 64.3125 
Q 13.671875 62.703125 7.8125 59.421875 
L 7.8125 69.390625 
Q 13.765625 71.78125 18.9375 73 
Q 24.125 74.21875 28.421875 74.21875 
Q 39.75 74.21875 46.484375 68.546875 
Q 53.21875 62.890625 53.21875 53.421875 
Q 53.21875 48.921875 51.53125 44.890625 
Q 49.859375 40.875 45.40625 35.40625 
Q 44.1875 33.984375 37.640625 27.21875 
Q 31.109375 20.453125 19.1875 8.296875 
z
" id="DejaVuSans-32"/>
      </defs>
      <g transform="translate(7.2 286.431959)scale(0.22 -0.22)">
       <use xlink:href="#DejaVuSans-2212"/>
       <use x="83.789062" xlink:href="#DejaVuSans-30"/>
       <use x="147.412109" xlink:href="#DejaVuSans-2e"/>
       <use x="179.199219" xlink:href="#DejaVuSans-30"/>
       <use x="242.822266" xlink:href="#DejaVuSans-30"/>
       <use x="306.445312" xlink:href="#DejaVuSans-30"/>
       <use x="370.068359" xlink:href="#DejaVuSans-32"/>
      </g>
     </g>
    </g>
    <g id="ytick_2">
     <g id="line2d_2">
      <g>
       <use style="stroke:#000000;stroke-width:0.8;" x="109.614687" xlink:href="#m8b927c2e9b" y="209.58749"/>
      </g>
     </g>
     <g id="text_2">
      <!-- 0.0000 -->
      <g transform="translate(25.635312 217.945771)scale(0.22 -0.22)">
       <use xlink:href="#DejaVuSans-30"/>
       <use x="63.623047" xlink:href="#DejaVuSans-2e"/>
       <use x="95.410156" xlink:href="#DejaVuSans-30"/>
       <use x="159.033203" xlink:href="#DejaVuSans-30"/>
       <use x="222.65625" xlink:href="#DejaVuSans-30"/>
       <use x="286.279297" xlink:href="#DejaVuSans-30"/>
      </g>
     </g>
    </g>
    <g id="ytick_3">
     <g id="line2d_3">
      <g>
       <use style="stroke:#000000;stroke-width:0.8;" x="109.614687" xlink:href="#m8b927c2e9b" y="141.101301"/>
      </g>
     </g>
     <g id="text_3">
      <!-- 0.0002 -->
      <g transform="translate(25.635312 149.459582)scale(0.22 -0.22)">
       <use xlink:href="#DejaVuSans-30"/>
       <use x="63.623047" xlink:href="#DejaVuSans-2e"/>
       <use x="95.410156" xlink:href="#DejaVuSans-30"/>
       <use x="159.033203" xlink:href="#DejaVuSans-30"/>
       <use x="222.65625" xlink:href="#DejaVuSans-30"/>
       <use x="286.279297" xlink:href="#DejaVuSans-32"/>
      </g>
     </g>
    </g>
    <g id="ytick_4">
     <g id="line2d_4">
      <g>
       <use style="stroke:#000000;stroke-width:0.8;" x="109.614687" xlink:href="#m8b927c2e9b" y="72.615112"/>
      </g>
     </g>
     <g id="text_4">
      <!-- 0.0004 -->
      <defs>
       <path d="M 37.796875 64.3125 
L 12.890625 25.390625 
L 37.796875 25.390625 
z
M 35.203125 72.90625 
L 47.609375 72.90625 
L 47.609375 25.390625 
L 58.015625 25.390625 
L 58.015625 17.1875 
L 47.609375 17.1875 
L 47.609375 0 
L 37.796875 0 
L 37.796875 17.1875 
L 4.890625 17.1875 
L 4.890625 26.703125 
z
" id="DejaVuSans-34"/>
      </defs>
      <g transform="translate(25.635312 80.973394)scale(0.22 -0.22)">
       <use xlink:href="#DejaVuSans-30"/>
       <use x="63.623047" xlink:href="#DejaVuSans-2e"/>
       <use x="95.410156" xlink:href="#DejaVuSans-30"/>
       <use x="159.033203" xlink:href="#DejaVuSans-30"/>
       <use x="222.65625" xlink:href="#DejaVuSans-30"/>
       <use x="286.279297" xlink:href="#DejaVuSans-34"/>
      </g>
     </g>
    </g>
   </g>
   <g id="patch_3">
    <path d="M 109.614687 343.34 
L 109.614687 10.7 
" style="fill:none;stroke:#000000;stroke-linecap:square;stroke-linejoin:miter;stroke-width:0.8;"/>
   </g>
   <g id="patch_4">
    <path d="M 444.414688 343.34 
L 444.414688 10.7 
" style="fill:none;stroke:#000000;stroke-linecap:square;stroke-linejoin:miter;stroke-width:0.8;"/>
   </g>
   <g id="patch_5">
    <path d="M 109.614687 343.34 
L 444.414688 343.34 
" style="fill:none;stroke:#000000;stroke-linecap:square;stroke-linejoin:miter;stroke-width:0.8;"/>
   </g>
   <g id="patch_6">
    <path d="M 109.614687 10.7 
L 444.414688 10.7 
" style="fill:none;stroke:#000000;stroke-linecap:square;stroke-linejoin:miter;stroke-width:0.8;"/>
   </g>
  </g>
 </g>
 <defs>
  <clipPath id="p011151cdda">
   <rect height="332.64" width="334.8" x="109.614687" y="10.7"/>
  </clipPath>
 </defs>
</svg>
