<?xml version="1.0" encoding="utf-8" standalone="no"?>
<!DOCTYPE svg PUBLIC "-//W3C//DTD SVG 1.1//EN"
  "http://www.w3.org/Graphics/SVG/1.1/DTD/svg11.dtd">
<!-- Created with matplotlib (http://matplotlib.org/) -->
<svg height="367pt" version="1.1" viewBox="0 0 427 367" width="427pt" xmlns="http://www.w3.org/2000/svg" xmlns:xlink="http://www.w3.org/1999/xlink">
 <defs>
  <style type="text/css">
*{stroke-linecap:butt;stroke-linejoin:round;}
  </style>
 </defs>
 <g id="figure_1">
  <g id="patch_1">
   <path d="M 0 367.08607 
L 427.119687 367.08607 
L 427.119687 0 
L 0 0 
z
" style="fill:#ffffff;"/>
  </g>
  <g id="axes_1">
   <g id="patch_2">
    <path d="M 81.619687 347.184292 
L 416.419688 347.184292 
L 416.419688 14.544292 
L 81.619687 14.544292 
z
" style="fill:#ffffff;"/>
   </g>
   <g id="PolyCollection_1">
    <defs>
     <path d="M 96.837869 -35.021779 
L 96.837869 -162.159677 
L 100.14617 -162.159677 
L 103.45447 -162.159677 
L 106.762771 -162.159677 
L 110.071071 -162.159677 
L 113.379371 -162.159677 
L 116.687672 -162.159677 
L 119.995972 -162.159677 
L 123.304272 -162.159677 
L 126.612573 -162.159677 
L 129.920873 -162.159677 
L 133.229174 -162.159677 
L 136.537474 -162.159677 
L 139.845774 -162.159677 
L 143.154075 -162.159677 
L 146.462375 -162.159677 
L 149.770676 -162.159677 
L 153.078976 -162.159677 
L 156.387276 -162.159677 
L 159.695577 -162.159677 
L 163.003877 -162.159677 
L 166.312178 -162.159677 
L 169.620478 -162.159677 
L 172.928778 -162.159677 
L 176.237079 -162.159677 
L 179.545379 -162.159677 
L 182.85368 -162.159677 
L 186.16198 -162.159677 
L 189.47028 -162.159677 
L 192.778581 -162.159677 
L 196.086881 -162.159677 
L 199.395182 -162.159677 
L 202.703482 -162.159677 
L 206.011782 -162.159677 
L 209.320083 -162.159677 
L 212.628383 -162.159677 
L 215.936684 -162.159677 
L 219.244984 -162.159677 
L 222.553284 -162.159677 
L 225.861585 -162.159677 
L 229.169885 -162.159677 
L 232.478186 -162.159677 
L 235.786486 -162.159677 
L 239.094786 -162.159677 
L 242.403087 -162.159677 
L 245.711387 -162.159677 
L 249.019688 -162.159677 
L 252.327988 -162.159677 
L 255.636288 -162.159677 
L 258.944589 -162.159677 
L 262.252889 -162.159677 
L 265.561189 -162.159677 
L 268.86949 -162.159677 
L 272.17779 -162.159677 
L 275.486091 -162.159677 
L 278.794391 -162.159677 
L 282.102691 -162.159677 
L 285.410992 -162.159677 
L 288.719292 -162.159677 
L 292.027593 -162.159677 
L 295.335893 -162.159677 
L 298.644193 -162.159677 
L 301.952494 -162.159677 
L 305.260794 -162.159677 
L 308.569095 -162.159677 
L 311.877395 -162.159677 
L 315.185695 -162.159677 
L 318.493996 -162.159677 
L 321.802296 -162.159677 
L 325.110597 -162.159677 
L 328.418897 -162.159677 
L 331.727197 -162.159677 
L 335.035498 -162.159677 
L 338.343798 -162.159677 
L 341.652099 -162.159677 
L 344.960399 -162.159677 
L 348.268699 -162.159677 
L 351.577 -162.159677 
L 354.8853 -162.159677 
L 358.193601 -162.159677 
L 361.501901 -162.159677 
L 364.810201 -162.159677 
L 368.118502 -162.159677 
L 371.426802 -162.159677 
L 374.735103 -162.159677 
L 378.043403 -162.159677 
L 381.351703 -162.159677 
L 384.660004 -162.159677 
L 387.968304 -162.159677 
L 391.276604 -162.159677 
L 394.584905 -162.159677 
L 397.893205 -162.159677 
L 401.201506 -162.159677 
L 401.201506 -337.421779 
L 401.201506 -337.421779 
L 397.893205 -276.609007 
L 394.584905 -256.341026 
L 391.276604 -255.726787 
L 387.968304 -238.780888 
L 384.660004 -238.089924 
L 381.351703 -227.445662 
L 378.043403 -201.606989 
L 374.735103 -198.104112 
L 371.426802 -194.861307 
L 368.118502 -193.020821 
L 364.810201 -192.734916 
L 361.501901 -190.549115 
L 358.193601 -188.714836 
L 354.8853 -185.435261 
L 351.577 -182.373024 
L 348.268699 -180.384386 
L 344.960399 -180.073543 
L 341.652099 -174.918616 
L 338.343798 -174.361284 
L 335.035498 -174.338262 
L 331.727197 -174.19951 
L 328.418897 -172.949478 
L 325.110597 -171.407868 
L 321.802296 -170.724398 
L 318.493996 -169.940601 
L 315.185695 -167.831789 
L 311.877395 -167.35066 
L 308.569095 -167.170337 
L 305.260794 -165.348834 
L 301.952494 -164.406674 
L 298.644193 -164.086962 
L 295.335893 -163.564278 
L 292.027593 -163.235225 
L 288.719292 -162.767779 
L 285.410992 -162.74515 
L 282.102691 -162.738331 
L 278.794391 -162.719474 
L 275.486091 -162.706556 
L 272.17779 -162.684713 
L 268.86949 -162.564196 
L 265.561189 -162.552027 
L 262.252889 -162.543209 
L 258.944589 -162.452427 
L 255.636288 -162.446891 
L 252.327988 -162.432396 
L 249.019688 -162.426289 
L 245.711387 -162.418553 
L 242.403087 -162.395549 
L 239.094786 -162.263093 
L 235.786486 -162.256017 
L 232.478186 -162.249731 
L 229.169885 -162.158335 
L 225.861585 -162.145386 
L 222.553284 -162.120832 
L 219.244984 -162.085659 
L 215.936684 -162.085103 
L 212.628383 -162.076405 
L 209.320083 -162.029556 
L 206.011782 -162.013101 
L 202.703482 -162.012135 
L 199.395182 -161.999657 
L 196.086881 -161.954025 
L 192.778581 -161.900039 
L 189.47028 -161.865086 
L 186.16198 -161.827595 
L 182.85368 -161.820867 
L 179.545379 -161.625522 
L 176.237079 -161.60691 
L 172.928778 -161.53161 
L 169.620478 -161.508065 
L 166.312178 -161.324861 
L 163.003877 -161.223376 
L 159.695577 -161.120846 
L 156.387276 -161.078446 
L 153.078976 -156.996789 
L 149.770676 -156.300898 
L 146.462375 -155.06852 
L 143.154075 -152.959054 
L 139.845774 -152.856775 
L 136.537474 -150.596755 
L 133.229174 -150.277003 
L 129.920873 -149.333709 
L 126.612573 -147.113342 
L 123.304272 -143.199558 
L 119.995972 -141.946085 
L 116.687672 -136.48494 
L 113.379371 -131.072539 
L 110.071071 -128.32756 
L 106.762771 -109.712941 
L 103.45447 -89.808061 
L 100.14617 -61.065026 
L 96.837869 -35.021779 
z
" id="m6d08805827" style="stroke:#4a98c9;"/>
    </defs>
    <g clip-path="url(#p967d9c602c)">
     <use style="fill:#4a98c9;stroke:#4a98c9;" x="0" xlink:href="#m6d08805827" y="367.08607"/>
    </g>
   </g>
   <g id="PolyCollection_2">
    <defs>
     <path d="M 96.837869 -99.566702 
L 96.837869 -162.159677 
L 100.14617 -162.159677 
L 103.45447 -162.159677 
L 106.762771 -162.159677 
L 110.071071 -162.159677 
L 113.379371 -162.159677 
L 116.687672 -162.159677 
L 119.995972 -162.159677 
L 123.304272 -162.159677 
L 126.612573 -162.159677 
L 129.920873 -162.159677 
L 133.229174 -162.159677 
L 136.537474 -162.159677 
L 139.845774 -162.159677 
L 143.154075 -162.159677 
L 146.462375 -162.159677 
L 149.770676 -162.159677 
L 153.078976 -162.159677 
L 156.387276 -162.159677 
L 159.695577 -162.159677 
L 163.003877 -162.159677 
L 166.312178 -162.159677 
L 169.620478 -162.159677 
L 172.928778 -162.159677 
L 176.237079 -162.159677 
L 179.545379 -162.159677 
L 182.85368 -162.159677 
L 186.16198 -162.159677 
L 189.47028 -162.159677 
L 192.778581 -162.159677 
L 196.086881 -162.159677 
L 199.395182 -162.159677 
L 202.703482 -162.159677 
L 206.011782 -162.159677 
L 209.320083 -162.159677 
L 212.628383 -162.159677 
L 215.936684 -162.159677 
L 219.244984 -162.159677 
L 222.553284 -162.159677 
L 225.861585 -162.159677 
L 229.169885 -162.159677 
L 232.478186 -162.159677 
L 235.786486 -162.159677 
L 239.094786 -162.159677 
L 242.403087 -162.159677 
L 245.711387 -162.159677 
L 249.019688 -162.159677 
L 252.327988 -162.159677 
L 255.636288 -162.159677 
L 258.944589 -162.159677 
L 262.252889 -162.159677 
L 265.561189 -162.159677 
L 268.86949 -162.159677 
L 272.17779 -162.159677 
L 275.486091 -162.159677 
L 278.794391 -162.159677 
L 282.102691 -162.159677 
L 285.410992 -162.159677 
L 288.719292 -162.159677 
L 292.027593 -162.159677 
L 295.335893 -162.159677 
L 298.644193 -162.159677 
L 301.952494 -162.159677 
L 305.260794 -162.159677 
L 308.569095 -162.159677 
L 311.877395 -162.159677 
L 315.185695 -162.159677 
L 318.493996 -162.159677 
L 321.802296 -162.159677 
L 325.110597 -162.159677 
L 328.418897 -162.159677 
L 331.727197 -162.159677 
L 335.035498 -162.159677 
L 338.343798 -162.159677 
L 341.652099 -162.159677 
L 344.960399 -162.159677 
L 348.268699 -162.159677 
L 351.577 -162.159677 
L 354.8853 -162.159677 
L 358.193601 -162.159677 
L 361.501901 -162.159677 
L 364.810201 -162.159677 
L 368.118502 -162.159677 
L 371.426802 -162.159677 
L 374.735103 -162.159677 
L 378.043403 -162.159677 
L 381.351703 -162.159677 
L 384.660004 -162.159677 
L 387.968304 -162.159677 
L 391.276604 -162.159677 
L 394.584905 -162.159677 
L 397.893205 -162.159677 
L 401.201506 -162.159677 
L 401.201506 -246.016303 
L 401.201506 -246.016303 
L 397.893205 -213.798818 
L 394.584905 -206.398341 
L 391.276604 -204.506419 
L 387.968304 -197.211201 
L 384.660004 -194.244957 
L 381.351703 -191.294302 
L 378.043403 -190.212036 
L 374.735103 -189.785666 
L 371.426802 -189.470138 
L 368.118502 -186.564999 
L 364.810201 -186.323177 
L 361.501901 -183.282843 
L 358.193601 -179.672037 
L 354.8853 -179.433599 
L 351.577 -176.430763 
L 348.268699 -174.979157 
L 344.960399 -171.183526 
L 341.652099 -169.087734 
L 338.343798 -168.680679 
L 335.035498 -167.883232 
L 331.727197 -167.04567 
L 328.418897 -166.138787 
L 325.110597 -166.047561 
L 321.802296 -165.497352 
L 318.493996 -163.85382 
L 315.185695 -163.752883 
L 311.877395 -163.508373 
L 308.569095 -163.387799 
L 305.260794 -163.370467 
L 301.952494 -163.030024 
L 298.644193 -162.933685 
L 295.335893 -162.865795 
L 292.027593 -162.583974 
L 288.719292 -162.535426 
L 285.410992 -162.440146 
L 282.102691 -162.376508 
L 278.794391 -162.333258 
L 275.486091 -162.292589 
L 272.17779 -162.252627 
L 268.86949 -162.24541 
L 265.561189 -162.206935 
L 262.252889 -162.177843 
L 258.944589 -162.176421 
L 255.636288 -162.167487 
L 252.327988 -162.165172 
L 249.019688 -162.162242 
L 245.711387 -162.14801 
L 242.403087 -162.13059 
L 239.094786 -162.123627 
L 235.786486 -162.110511 
L 232.478186 -162.092816 
L 229.169885 -162.067075 
L 225.861585 -162.060496 
L 222.553284 -162.054171 
L 219.244984 -161.961345 
L 215.936684 -161.936874 
L 212.628383 -161.927115 
L 209.320083 -161.913286 
L 206.011782 -161.909137 
L 202.703482 -161.809365 
L 199.395182 -161.805951 
L 196.086881 -161.752708 
L 192.778581 -161.714932 
L 189.47028 -161.644387 
L 186.16198 -161.642437 
L 182.85368 -161.604528 
L 179.545379 -161.417713 
L 176.237079 -161.364322 
L 172.928778 -161.169031 
L 169.620478 -161.121595 
L 166.312178 -160.969876 
L 163.003877 -160.944746 
L 159.695577 -160.815522 
L 156.387276 -160.810403 
L 153.078976 -160.600295 
L 149.770676 -160.422275 
L 146.462375 -160.073833 
L 143.154075 -157.559763 
L 139.845774 -156.281464 
L 136.537474 -156.024942 
L 133.229174 -154.871324 
L 129.920873 -154.493779 
L 126.612573 -153.648369 
L 123.304272 -151.751509 
L 119.995972 -149.875395 
L 116.687672 -144.861553 
L 113.379371 -141.519821 
L 110.071071 -141.236779 
L 106.762771 -132.545245 
L 103.45447 -130.379248 
L 100.14617 -122.272826 
L 96.837869 -99.566702 
z
" id="m22baf4e57b" style="stroke:#f14432;stroke-opacity:0.8;"/>
    </defs>
    <g clip-path="url(#p967d9c602c)">
     <use style="fill:#f14432;fill-opacity:0.8;stroke:#f14432;stroke-opacity:0.8;" x="0" xlink:href="#m22baf4e57b" y="367.08607"/>
    </g>
   </g>
   <g id="matplotlib.axis_1"/>
   <g id="matplotlib.axis_2">
    <g id="ytick_1">
     <g id="line2d_1">
      <defs>
       <path d="M 0 0 
L -3.5 0 
" id="mbe75146ab8" style="stroke:#000000;stroke-width:0.8;"/>
      </defs>
      <g>
       <use style="stroke:#000000;stroke-width:0.8;" x="81.619687" xlink:href="#mbe75146ab8" y="346.952477"/>
      </g>
     </g>
     <g id="text_1">
      <!-- −0.06 -->
      <defs>
       <path d="M 10.59375 35.5 
L 73.1875 35.5 
L 73.1875 27.203125 
L 10.59375 27.203125 
z
" id="DejaVuSans-2212"/>
       <path d="M 31.78125 66.40625 
Q 24.171875 66.40625 20.328125 58.90625 
Q 16.5 51.421875 16.5 36.375 
Q 16.5 21.390625 20.328125 13.890625 
Q 24.171875 6.390625 31.78125 6.390625 
Q 39.453125 6.390625 43.28125 13.890625 
Q 47.125 21.390625 47.125 36.375 
Q 47.125 51.421875 43.28125 58.90625 
Q 39.453125 66.40625 31.78125 66.40625 
z
M 31.78125 74.21875 
Q 44.046875 74.21875 50.515625 64.515625 
Q 56.984375 54.828125 56.984375 36.375 
Q 56.984375 17.96875 50.515625 8.265625 
Q 44.046875 -1.421875 31.78125 -1.421875 
Q 19.53125 -1.421875 13.0625 8.265625 
Q 6.59375 17.96875 6.59375 36.375 
Q 6.59375 54.828125 13.0625 64.515625 
Q 19.53125 74.21875 31.78125 74.21875 
z
" id="DejaVuSans-30"/>
       <path d="M 10.6875 12.40625 
L 21 12.40625 
L 21 0 
L 10.6875 0 
z
" id="DejaVuSans-2e"/>
       <path d="M 33.015625 40.375 
Q 26.375 40.375 22.484375 35.828125 
Q 18.609375 31.296875 18.609375 23.390625 
Q 18.609375 15.53125 22.484375 10.953125 
Q 26.375 6.390625 33.015625 6.390625 
Q 39.65625 6.390625 43.53125 10.953125 
Q 47.40625 15.53125 47.40625 23.390625 
Q 47.40625 31.296875 43.53125 35.828125 
Q 39.65625 40.375 33.015625 40.375 
z
M 52.59375 71.296875 
L 52.59375 62.3125 
Q 48.875 64.0625 45.09375 64.984375 
Q 41.3125 65.921875 37.59375 65.921875 
Q 27.828125 65.921875 22.671875 59.328125 
Q 17.53125 52.734375 16.796875 39.40625 
Q 19.671875 43.65625 24.015625 45.921875 
Q 28.375 48.1875 33.59375 48.1875 
Q 44.578125 48.1875 50.953125 41.515625 
Q 57.328125 34.859375 57.328125 23.390625 
Q 57.328125 12.15625 50.6875 5.359375 
Q 44.046875 -1.421875 33.015625 -1.421875 
Q 20.359375 -1.421875 13.671875 8.265625 
Q 6.984375 17.96875 6.984375 36.375 
Q 6.984375 53.65625 15.1875 63.9375 
Q 23.390625 74.21875 37.203125 74.21875 
Q 40.921875 74.21875 44.703125 73.484375 
Q 48.484375 72.75 52.59375 71.296875 
z
" id="DejaVuSans-36"/>
      </defs>
      <g transform="translate(7.2 355.310758)scale(0.22 -0.22)">
       <use xlink:href="#DejaVuSans-2212"/>
       <use x="83.789062" xlink:href="#DejaVuSans-30"/>
       <use x="147.412109" xlink:href="#DejaVuSans-2e"/>
       <use x="179.199219" xlink:href="#DejaVuSans-30"/>
       <use x="242.822266" xlink:href="#DejaVuSans-36"/>
      </g>
     </g>
    </g>
    <g id="ytick_2">
     <g id="line2d_2">
      <g>
       <use style="stroke:#000000;stroke-width:0.8;" x="81.619687" xlink:href="#mbe75146ab8" y="299.610449"/>
      </g>
     </g>
     <g id="text_2">
      <!-- −0.04 -->
      <defs>
       <path d="M 37.796875 64.3125 
L 12.890625 25.390625 
L 37.796875 25.390625 
z
M 35.203125 72.90625 
L 47.609375 72.90625 
L 47.609375 25.390625 
L 58.015625 25.390625 
L 58.015625 17.1875 
L 47.609375 17.1875 
L 47.609375 0 
L 37.796875 0 
L 37.796875 17.1875 
L 4.890625 17.1875 
L 4.890625 26.703125 
z
" id="DejaVuSans-34"/>
      </defs>
      <g transform="translate(7.2 307.96873)scale(0.22 -0.22)">
       <use xlink:href="#DejaVuSans-2212"/>
       <use x="83.789062" xlink:href="#DejaVuSans-30"/>
       <use x="147.412109" xlink:href="#DejaVuSans-2e"/>
       <use x="179.199219" xlink:href="#DejaVuSans-30"/>
       <use x="242.822266" xlink:href="#DejaVuSans-34"/>
      </g>
     </g>
    </g>
    <g id="ytick_3">
     <g id="line2d_3">
      <g>
       <use style="stroke:#000000;stroke-width:0.8;" x="81.619687" xlink:href="#mbe75146ab8" y="252.268421"/>
      </g>
     </g>
     <g id="text_3">
      <!-- −0.02 -->
      <defs>
       <path d="M 19.1875 8.296875 
L 53.609375 8.296875 
L 53.609375 0 
L 7.328125 0 
L 7.328125 8.296875 
Q 12.9375 14.109375 22.625 23.890625 
Q 32.328125 33.6875 34.8125 36.53125 
Q 39.546875 41.84375 41.421875 45.53125 
Q 43.3125 49.21875 43.3125 52.78125 
Q 43.3125 58.59375 39.234375 62.25 
Q 35.15625 65.921875 28.609375 65.921875 
Q 23.96875 65.921875 18.8125 64.3125 
Q 13.671875 62.703125 7.8125 59.421875 
L 7.8125 69.390625 
Q 13.765625 71.78125 18.9375 73 
Q 24.125 74.21875 28.421875 74.21875 
Q 39.75 74.21875 46.484375 68.546875 
Q 53.21875 62.890625 53.21875 53.421875 
Q 53.21875 48.921875 51.53125 44.890625 
Q 49.859375 40.875 45.40625 35.40625 
Q 44.1875 33.984375 37.640625 27.21875 
Q 31.109375 20.453125 19.1875 8.296875 
z
" id="DejaVuSans-32"/>
      </defs>
      <g transform="translate(7.2 260.626702)scale(0.22 -0.22)">
       <use xlink:href="#DejaVuSans-2212"/>
       <use x="83.789062" xlink:href="#DejaVuSans-30"/>
       <use x="147.412109" xlink:href="#DejaVuSans-2e"/>
       <use x="179.199219" xlink:href="#DejaVuSans-30"/>
       <use x="242.822266" xlink:href="#DejaVuSans-32"/>
      </g>
     </g>
    </g>
    <g id="ytick_4">
     <g id="line2d_4">
      <g>
       <use style="stroke:#000000;stroke-width:0.8;" x="81.619687" xlink:href="#mbe75146ab8" y="204.926393"/>
      </g>
     </g>
     <g id="text_4">
      <!-- 0.00 -->
      <g transform="translate(25.635312 213.284674)scale(0.22 -0.22)">
       <use xlink:href="#DejaVuSans-30"/>
       <use x="63.623047" xlink:href="#DejaVuSans-2e"/>
       <use x="95.410156" xlink:href="#DejaVuSans-30"/>
       <use x="159.033203" xlink:href="#DejaVuSans-30"/>
      </g>
     </g>
    </g>
    <g id="ytick_5">
     <g id="line2d_5">
      <g>
       <use style="stroke:#000000;stroke-width:0.8;" x="81.619687" xlink:href="#mbe75146ab8" y="157.584365"/>
      </g>
     </g>
     <g id="text_5">
      <!-- 0.02 -->
      <g transform="translate(25.635312 165.942646)scale(0.22 -0.22)">
       <use xlink:href="#DejaVuSans-30"/>
       <use x="63.623047" xlink:href="#DejaVuSans-2e"/>
       <use x="95.410156" xlink:href="#DejaVuSans-30"/>
       <use x="159.033203" xlink:href="#DejaVuSans-32"/>
      </g>
     </g>
    </g>
    <g id="ytick_6">
     <g id="line2d_6">
      <g>
       <use style="stroke:#000000;stroke-width:0.8;" x="81.619687" xlink:href="#mbe75146ab8" y="110.242337"/>
      </g>
     </g>
     <g id="text_6">
      <!-- 0.04 -->
      <g transform="translate(25.635312 118.600618)scale(0.22 -0.22)">
       <use xlink:href="#DejaVuSans-30"/>
       <use x="63.623047" xlink:href="#DejaVuSans-2e"/>
       <use x="95.410156" xlink:href="#DejaVuSans-30"/>
       <use x="159.033203" xlink:href="#DejaVuSans-34"/>
      </g>
     </g>
    </g>
    <g id="ytick_7">
     <g id="line2d_7">
      <g>
       <use style="stroke:#000000;stroke-width:0.8;" x="81.619687" xlink:href="#mbe75146ab8" y="62.900309"/>
      </g>
     </g>
     <g id="text_7">
      <!-- 0.06 -->
      <g transform="translate(25.635312 71.25859)scale(0.22 -0.22)">
       <use xlink:href="#DejaVuSans-30"/>
       <use x="63.623047" xlink:href="#DejaVuSans-2e"/>
       <use x="95.410156" xlink:href="#DejaVuSans-30"/>
       <use x="159.033203" xlink:href="#DejaVuSans-36"/>
      </g>
     </g>
    </g>
    <g id="ytick_8">
     <g id="line2d_8">
      <g>
       <use style="stroke:#000000;stroke-width:0.8;" x="81.619687" xlink:href="#mbe75146ab8" y="15.558281"/>
      </g>
     </g>
     <g id="text_8">
      <!-- 0.08 -->
      <defs>
       <path d="M 31.78125 34.625 
Q 24.75 34.625 20.71875 30.859375 
Q 16.703125 27.09375 16.703125 20.515625 
Q 16.703125 13.921875 20.71875 10.15625 
Q 24.75 6.390625 31.78125 6.390625 
Q 38.8125 6.390625 42.859375 10.171875 
Q 46.921875 13.96875 46.921875 20.515625 
Q 46.921875 27.09375 42.890625 30.859375 
Q 38.875 34.625 31.78125 34.625 
z
M 21.921875 38.8125 
Q 15.578125 40.375 12.03125 44.71875 
Q 8.5 49.078125 8.5 55.328125 
Q 8.5 64.0625 14.71875 69.140625 
Q 20.953125 74.21875 31.78125 74.21875 
Q 42.671875 74.21875 48.875 69.140625 
Q 55.078125 64.0625 55.078125 55.328125 
Q 55.078125 49.078125 51.53125 44.71875 
Q 48 40.375 41.703125 38.8125 
Q 48.828125 37.15625 52.796875 32.3125 
Q 56.78125 27.484375 56.78125 20.515625 
Q 56.78125 9.90625 50.3125 4.234375 
Q 43.84375 -1.421875 31.78125 -1.421875 
Q 19.734375 -1.421875 13.25 4.234375 
Q 6.78125 9.90625 6.78125 20.515625 
Q 6.78125 27.484375 10.78125 32.3125 
Q 14.796875 37.15625 21.921875 38.8125 
z
M 18.3125 54.390625 
Q 18.3125 48.734375 21.84375 45.5625 
Q 25.390625 42.390625 31.78125 42.390625 
Q 38.140625 42.390625 41.71875 45.5625 
Q 45.3125 48.734375 45.3125 54.390625 
Q 45.3125 60.0625 41.71875 63.234375 
Q 38.140625 66.40625 31.78125 66.40625 
Q 25.390625 66.40625 21.84375 63.234375 
Q 18.3125 60.0625 18.3125 54.390625 
z
" id="DejaVuSans-38"/>
      </defs>
      <g transform="translate(25.635312 23.916562)scale(0.22 -0.22)">
       <use xlink:href="#DejaVuSans-30"/>
       <use x="63.623047" xlink:href="#DejaVuSans-2e"/>
       <use x="95.410156" xlink:href="#DejaVuSans-30"/>
       <use x="159.033203" xlink:href="#DejaVuSans-38"/>
      </g>
     </g>
    </g>
   </g>
   <g id="patch_3">
    <path d="M 81.619687 347.184292 
L 81.619687 14.544292 
" style="fill:none;stroke:#000000;stroke-linecap:square;stroke-linejoin:miter;stroke-width:0.8;"/>
   </g>
   <g id="patch_4">
    <path d="M 416.419688 347.184292 
L 416.419688 14.544292 
" style="fill:none;stroke:#000000;stroke-linecap:square;stroke-linejoin:miter;stroke-width:0.8;"/>
   </g>
   <g id="patch_5">
    <path d="M 81.619687 347.184292 
L 416.419688 347.184292 
" style="fill:none;stroke:#000000;stroke-linecap:square;stroke-linejoin:miter;stroke-width:0.8;"/>
   </g>
   <g id="patch_6">
    <path d="M 81.619687 14.544292 
L 416.419688 14.544292 
" style="fill:none;stroke:#000000;stroke-linecap:square;stroke-linejoin:miter;stroke-width:0.8;"/>
   </g>
  </g>
 </g>
 <defs>
  <clipPath id="p967d9c602c">
   <rect height="332.64" width="334.8" x="81.619687" y="14.544292"/>
  </clipPath>
 </defs>
</svg>
