<?xml version="1.0" encoding="utf-8" standalone="no"?>
<!DOCTYPE svg PUBLIC "-//W3C//DTD SVG 1.1//EN"
  "http://www.w3.org/Graphics/SVG/1.1/DTD/svg11.dtd">
<!-- Created with matplotlib (http://matplotlib.org/) -->
<svg height="363pt" version="1.1" viewBox="0 0 413 363" width="413pt" xmlns="http://www.w3.org/2000/svg" xmlns:xlink="http://www.w3.org/1999/xlink">
 <defs>
  <style type="text/css">
*{stroke-linecap:butt;stroke-linejoin:round;}
  </style>
 </defs>
 <g id="figure_1">
  <g id="patch_1">
   <path d="M 0 363.705537 
L 413.122187 363.705537 
L 413.122187 0 
L 0 0 
z
" style="fill:#ffffff;"/>
  </g>
  <g id="axes_1">
   <g id="patch_2">
    <path d="M 67.622187 343.34 
L 402.422188 343.34 
L 402.422188 10.7 
L 67.622187 10.7 
z
" style="fill:#ffffff;"/>
   </g>
   <g id="PolyCollection_1">
    <defs>
     <path d="M 82.840369 -187.009902 
L 82.840369 -204.000986 
L 86.14867 -204.000986 
L 89.45697 -204.000986 
L 92.765271 -204.000986 
L 96.073571 -204.000986 
L 99.381871 -204.000986 
L 102.690172 -204.000986 
L 105.998472 -204.000986 
L 109.306772 -204.000986 
L 112.615073 -204.000986 
L 115.923373 -204.000986 
L 119.231674 -204.000986 
L 122.539974 -204.000986 
L 125.848274 -204.000986 
L 129.156575 -204.000986 
L 132.464875 -204.000986 
L 135.773176 -204.000986 
L 139.081476 -204.000986 
L 142.389776 -204.000986 
L 145.698077 -204.000986 
L 149.006377 -204.000986 
L 152.314678 -204.000986 
L 155.622978 -204.000986 
L 158.931278 -204.000986 
L 162.239579 -204.000986 
L 165.547879 -204.000986 
L 168.85618 -204.000986 
L 172.16448 -204.000986 
L 175.47278 -204.000986 
L 178.781081 -204.000986 
L 182.089381 -204.000986 
L 185.397682 -204.000986 
L 188.705982 -204.000986 
L 192.014282 -204.000986 
L 195.322583 -204.000986 
L 198.630883 -204.000986 
L 201.939184 -204.000986 
L 205.247484 -204.000986 
L 208.555784 -204.000986 
L 211.864085 -204.000986 
L 215.172385 -204.000986 
L 218.480686 -204.000986 
L 221.788986 -204.000986 
L 225.097286 -204.000986 
L 228.405587 -204.000986 
L 231.713887 -204.000986 
L 235.022188 -204.000986 
L 238.330488 -204.000986 
L 241.638788 -204.000986 
L 244.947089 -204.000986 
L 248.255389 -204.000986 
L 251.563689 -204.000986 
L 254.87199 -204.000986 
L 258.18029 -204.000986 
L 261.488591 -204.000986 
L 264.796891 -204.000986 
L 268.105191 -204.000986 
L 271.413492 -204.000986 
L 274.721792 -204.000986 
L 278.030093 -204.000986 
L 281.338393 -204.000986 
L 284.646693 -204.000986 
L 287.954994 -204.000986 
L 291.263294 -204.000986 
L 294.571595 -204.000986 
L 297.879895 -204.000986 
L 301.188195 -204.000986 
L 304.496496 -204.000986 
L 307.804796 -204.000986 
L 311.113097 -204.000986 
L 314.421397 -204.000986 
L 317.729697 -204.000986 
L 321.037998 -204.000986 
L 324.346298 -204.000986 
L 327.654599 -204.000986 
L 330.962899 -204.000986 
L 334.271199 -204.000986 
L 337.5795 -204.000986 
L 340.8878 -204.000986 
L 344.196101 -204.000986 
L 347.504401 -204.000986 
L 350.812701 -204.000986 
L 354.121002 -204.000986 
L 357.429302 -204.000986 
L 360.737603 -204.000986 
L 364.045903 -204.000986 
L 367.354203 -204.000986 
L 370.662504 -204.000986 
L 373.970804 -204.000986 
L 377.279104 -204.000986 
L 380.587405 -204.000986 
L 383.895705 -204.000986 
L 387.204006 -204.000986 
L 387.204006 -216.078881 
L 387.204006 -216.078881 
L 383.895705 -215.444974 
L 380.587405 -213.202288 
L 377.279104 -212.913705 
L 373.970804 -212.683278 
L 370.662504 -212.509056 
L 367.354203 -211.354087 
L 364.045903 -210.57956 
L 360.737603 -210.203077 
L 357.429302 -209.881823 
L 354.121002 -209.723145 
L 350.812701 -209.577616 
L 347.504401 -209.553126 
L 344.196101 -209.175861 
L 340.8878 -208.859219 
L 337.5795 -208.332124 
L 334.271199 -208.237217 
L 330.962899 -207.935742 
L 327.654599 -207.36836 
L 324.346298 -207.221306 
L 321.037998 -207.209248 
L 317.729697 -207.093022 
L 314.421397 -206.296277 
L 311.113097 -205.587195 
L 307.804796 -205.368176 
L 304.496496 -204.64047 
L 301.188195 -204.584452 
L 297.879895 -204.48729 
L 294.571595 -204.417282 
L 291.263294 -204.40215 
L 287.954994 -204.391442 
L 284.646693 -204.33964 
L 281.338393 -204.147476 
L 278.030093 -204.142298 
L 274.721792 -204.141089 
L 271.413492 -204.070608 
L 268.105191 -204.067115 
L 264.796891 -204.066098 
L 261.488591 -204.06059 
L 258.18029 -204.058662 
L 254.87199 -204.055897 
L 251.563689 -204.052653 
L 248.255389 -204.041264 
L 244.947089 -204.040308 
L 241.638788 -204.039461 
L 238.330488 -204.038434 
L 235.022188 -204.038038 
L 231.713887 -204.029848 
L 228.405587 -204.023028 
L 225.097286 -204.019402 
L 221.788986 -204.016334 
L 218.480686 -204.014062 
L 215.172385 -204.009141 
L 211.864085 -204.008285 
L 208.555784 -204.006583 
L 205.247484 -204.005348 
L 201.939184 -204.004859 
L 198.630883 -204.00158 
L 195.322583 -203.998516 
L 192.014282 -203.995362 
L 188.705982 -203.991092 
L 185.397682 -203.990935 
L 182.089381 -203.990168 
L 178.781081 -203.988232 
L 175.47278 -203.983262 
L 172.16448 -203.982596 
L 168.85618 -203.97159 
L 165.547879 -203.971 
L 162.239579 -203.967403 
L 158.931278 -203.960444 
L 155.622978 -203.958588 
L 152.314678 -203.939645 
L 149.006377 -203.938091 
L 145.698077 -203.932566 
L 142.389776 -203.910321 
L 139.081476 -203.874107 
L 135.773176 -203.857013 
L 132.464875 -203.813774 
L 129.156575 -203.729829 
L 125.848274 -203.705504 
L 122.539974 -202.779862 
L 119.231674 -202.331091 
L 115.923373 -202.095407 
L 112.615073 -201.862743 
L 109.306772 -200.954008 
L 105.998472 -199.978133 
L 102.690172 -199.477845 
L 99.381871 -197.844165 
L 96.073571 -196.9539 
L 92.765271 -196.652184 
L 89.45697 -195.93485 
L 86.14867 -194.499805 
L 82.840369 -187.009902 
z
" id="m49c6c47293" style="stroke:#4a98c9;"/>
    </defs>
    <g clip-path="url(#p33eb979eff)">
     <use style="fill:#4a98c9;stroke:#4a98c9;" x="0" xlink:href="#m49c6c47293" y="363.705537"/>
    </g>
   </g>
   <g id="PolyCollection_2">
    <defs>
     <path d="M 82.840369 -35.485537 
L 82.840369 -204.000986 
L 86.14867 -204.000986 
L 89.45697 -204.000986 
L 92.765271 -204.000986 
L 96.073571 -204.000986 
L 99.381871 -204.000986 
L 102.690172 -204.000986 
L 105.998472 -204.000986 
L 109.306772 -204.000986 
L 112.615073 -204.000986 
L 115.923373 -204.000986 
L 119.231674 -204.000986 
L 122.539974 -204.000986 
L 125.848274 -204.000986 
L 129.156575 -204.000986 
L 132.464875 -204.000986 
L 135.773176 -204.000986 
L 139.081476 -204.000986 
L 142.389776 -204.000986 
L 145.698077 -204.000986 
L 149.006377 -204.000986 
L 152.314678 -204.000986 
L 155.622978 -204.000986 
L 158.931278 -204.000986 
L 162.239579 -204.000986 
L 165.547879 -204.000986 
L 168.85618 -204.000986 
L 172.16448 -204.000986 
L 175.47278 -204.000986 
L 178.781081 -204.000986 
L 182.089381 -204.000986 
L 185.397682 -204.000986 
L 188.705982 -204.000986 
L 192.014282 -204.000986 
L 195.322583 -204.000986 
L 198.630883 -204.000986 
L 201.939184 -204.000986 
L 205.247484 -204.000986 
L 208.555784 -204.000986 
L 211.864085 -204.000986 
L 215.172385 -204.000986 
L 218.480686 -204.000986 
L 221.788986 -204.000986 
L 225.097286 -204.000986 
L 228.405587 -204.000986 
L 231.713887 -204.000986 
L 235.022188 -204.000986 
L 238.330488 -204.000986 
L 241.638788 -204.000986 
L 244.947089 -204.000986 
L 248.255389 -204.000986 
L 251.563689 -204.000986 
L 254.87199 -204.000986 
L 258.18029 -204.000986 
L 261.488591 -204.000986 
L 264.796891 -204.000986 
L 268.105191 -204.000986 
L 271.413492 -204.000986 
L 274.721792 -204.000986 
L 278.030093 -204.000986 
L 281.338393 -204.000986 
L 284.646693 -204.000986 
L 287.954994 -204.000986 
L 291.263294 -204.000986 
L 294.571595 -204.000986 
L 297.879895 -204.000986 
L 301.188195 -204.000986 
L 304.496496 -204.000986 
L 307.804796 -204.000986 
L 311.113097 -204.000986 
L 314.421397 -204.000986 
L 317.729697 -204.000986 
L 321.037998 -204.000986 
L 324.346298 -204.000986 
L 327.654599 -204.000986 
L 330.962899 -204.000986 
L 334.271199 -204.000986 
L 337.5795 -204.000986 
L 340.8878 -204.000986 
L 344.196101 -204.000986 
L 347.504401 -204.000986 
L 350.812701 -204.000986 
L 354.121002 -204.000986 
L 357.429302 -204.000986 
L 360.737603 -204.000986 
L 364.045903 -204.000986 
L 367.354203 -204.000986 
L 370.662504 -204.000986 
L 373.970804 -204.000986 
L 377.279104 -204.000986 
L 380.587405 -204.000986 
L 383.895705 -204.000986 
L 387.204006 -204.000986 
L 387.204006 -337.885537 
L 387.204006 -337.885537 
L 383.895705 -327.972642 
L 380.587405 -319.853637 
L 377.279104 -316.738759 
L 373.970804 -315.405654 
L 370.662504 -309.103239 
L 367.354203 -308.930223 
L 364.045903 -295.949531 
L 360.737603 -288.85532 
L 357.429302 -288.683674 
L 354.121002 -282.349546 
L 350.812701 -280.198731 
L 347.504401 -274.846774 
L 344.196101 -270.868753 
L 340.8878 -269.549724 
L 337.5795 -258.13754 
L 334.271199 -255.585179 
L 330.962899 -252.843399 
L 327.654599 -251.346418 
L 324.346298 -247.171674 
L 321.037998 -242.299782 
L 317.729697 -237.108666 
L 314.421397 -232.868251 
L 311.113097 -226.652247 
L 307.804796 -219.669021 
L 304.496496 -215.837114 
L 301.188195 -213.334921 
L 297.879895 -208.8923 
L 294.571595 -208.232311 
L 291.263294 -207.432431 
L 287.954994 -206.90998 
L 284.646693 -206.753981 
L 281.338393 -205.416702 
L 278.030093 -205.241107 
L 274.721792 -204.840834 
L 271.413492 -204.411804 
L 268.105191 -204.33147 
L 264.796891 -204.271208 
L 261.488591 -204.183164 
L 258.18029 -204.145439 
L 254.87199 -204.140729 
L 251.563689 -204.126709 
L 248.255389 -204.112914 
L 244.947089 -204.066927 
L 241.638788 -204.0611 
L 238.330488 -204.05492 
L 235.022188 -204.040359 
L 231.713887 -204.036583 
L 228.405587 -204.034092 
L 225.097286 -204.027417 
L 221.788986 -204.024727 
L 218.480686 -204.02284 
L 215.172385 -204.022834 
L 211.864085 -204.020821 
L 208.555784 -204.01713 
L 205.247484 -204.005901 
L 201.939184 -204.002754 
L 198.630883 -204.001083 
L 195.322583 -204.000084 
L 192.014282 -203.996061 
L 188.705982 -203.996028 
L 185.397682 -203.98965 
L 182.089381 -203.989643 
L 178.781081 -203.986727 
L 175.47278 -203.982654 
L 172.16448 -203.978049 
L 168.85618 -203.977208 
L 165.547879 -203.954038 
L 162.239579 -203.94989 
L 158.931278 -203.936113 
L 155.622978 -203.930995 
L 152.314678 -203.925895 
L 149.006377 -203.922487 
L 145.698077 -203.868588 
L 142.389776 -203.852214 
L 139.081476 -203.836782 
L 135.773176 -203.814275 
L 132.464875 -203.671534 
L 129.156575 -203.644801 
L 125.848274 -201.703889 
L 122.539974 -200.497133 
L 119.231674 -198.133707 
L 115.923373 -184.946193 
L 112.615073 -168.560468 
L 109.306772 -147.220753 
L 105.998472 -142.790223 
L 102.690172 -130.566164 
L 99.381871 -117.153112 
L 96.073571 -97.863383 
L 92.765271 -88.777458 
L 89.45697 -82.716973 
L 86.14867 -70.829093 
L 82.840369 -35.485537 
z
" id="ma8654d8108" style="stroke:#f14432;stroke-opacity:0.8;"/>
    </defs>
    <g clip-path="url(#p33eb979eff)">
     <use style="fill:#f14432;fill-opacity:0.8;stroke:#f14432;stroke-opacity:0.8;" x="0" xlink:href="#ma8654d8108" y="363.705537"/>
    </g>
   </g>
   <g id="matplotlib.axis_1"/>
   <g id="matplotlib.axis_2">
    <g id="ytick_1">
     <g id="line2d_1">
      <defs>
       <path d="M 0 0 
L -3.5 0 
" id="me7b17a84a9" style="stroke:#000000;stroke-width:0.8;"/>
      </defs>
      <g>
       <use style="stroke:#000000;stroke-width:0.8;" x="67.622187" xlink:href="#me7b17a84a9" y="343.571944"/>
      </g>
     </g>
     <g id="text_1">
      <!-- −1.5 -->
      <defs>
       <path d="M 10.59375 35.5 
L 73.1875 35.5 
L 73.1875 27.203125 
L 10.59375 27.203125 
z
" id="DejaVuSans-2212"/>
       <path d="M 12.40625 8.296875 
L 28.515625 8.296875 
L 28.515625 63.921875 
L 10.984375 60.40625 
L 10.984375 69.390625 
L 28.421875 72.90625 
L 38.28125 72.90625 
L 38.28125 8.296875 
L 54.390625 8.296875 
L 54.390625 0 
L 12.40625 0 
z
" id="DejaVuSans-31"/>
       <path d="M 10.6875 12.40625 
L 21 12.40625 
L 21 0 
L 10.6875 0 
z
" id="DejaVuSans-2e"/>
       <path d="M 10.796875 72.90625 
L 49.515625 72.90625 
L 49.515625 64.59375 
L 19.828125 64.59375 
L 19.828125 46.734375 
Q 21.96875 47.46875 24.109375 47.828125 
Q 26.265625 48.1875 28.421875 48.1875 
Q 40.625 48.1875 47.75 41.5 
Q 54.890625 34.8125 54.890625 23.390625 
Q 54.890625 11.625 47.5625 5.09375 
Q 40.234375 -1.421875 26.90625 -1.421875 
Q 22.3125 -1.421875 17.546875 -0.640625 
Q 12.796875 0.140625 7.71875 1.703125 
L 7.71875 11.625 
Q 12.109375 9.234375 16.796875 8.0625 
Q 21.484375 6.890625 26.703125 6.890625 
Q 35.15625 6.890625 40.078125 11.328125 
Q 45.015625 15.765625 45.015625 23.390625 
Q 45.015625 31 40.078125 35.4375 
Q 35.15625 39.890625 26.703125 39.890625 
Q 22.75 39.890625 18.8125 39.015625 
Q 14.890625 38.140625 10.796875 36.28125 
z
" id="DejaVuSans-35"/>
      </defs>
      <g transform="translate(7.2 351.930225)scale(0.22 -0.22)">
       <use xlink:href="#DejaVuSans-2212"/>
       <use x="83.789062" xlink:href="#DejaVuSans-31"/>
       <use x="147.412109" xlink:href="#DejaVuSans-2e"/>
       <use x="179.199219" xlink:href="#DejaVuSans-35"/>
      </g>
     </g>
    </g>
    <g id="ytick_2">
     <g id="line2d_2">
      <g>
       <use style="stroke:#000000;stroke-width:0.8;" x="67.622187" xlink:href="#me7b17a84a9" y="282.282813"/>
      </g>
     </g>
     <g id="text_2">
      <!-- −1.0 -->
      <defs>
       <path d="M 31.78125 66.40625 
Q 24.171875 66.40625 20.328125 58.90625 
Q 16.5 51.421875 16.5 36.375 
Q 16.5 21.390625 20.328125 13.890625 
Q 24.171875 6.390625 31.78125 6.390625 
Q 39.453125 6.390625 43.28125 13.890625 
Q 47.125 21.390625 47.125 36.375 
Q 47.125 51.421875 43.28125 58.90625 
Q 39.453125 66.40625 31.78125 66.40625 
z
M 31.78125 74.21875 
Q 44.046875 74.21875 50.515625 64.515625 
Q 56.984375 54.828125 56.984375 36.375 
Q 56.984375 17.96875 50.515625 8.265625 
Q 44.046875 -1.421875 31.78125 -1.421875 
Q 19.53125 -1.421875 13.0625 8.265625 
Q 6.59375 17.96875 6.59375 36.375 
Q 6.59375 54.828125 13.0625 64.515625 
Q 19.53125 74.21875 31.78125 74.21875 
z
" id="DejaVuSans-30"/>
      </defs>
      <g transform="translate(7.2 290.641094)scale(0.22 -0.22)">
       <use xlink:href="#DejaVuSans-2212"/>
       <use x="83.789062" xlink:href="#DejaVuSans-31"/>
       <use x="147.412109" xlink:href="#DejaVuSans-2e"/>
       <use x="179.199219" xlink:href="#DejaVuSans-30"/>
      </g>
     </g>
    </g>
    <g id="ytick_3">
     <g id="line2d_3">
      <g>
       <use style="stroke:#000000;stroke-width:0.8;" x="67.622187" xlink:href="#me7b17a84a9" y="220.993682"/>
      </g>
     </g>
     <g id="text_3">
      <!-- −0.5 -->
      <g transform="translate(7.2 229.351963)scale(0.22 -0.22)">
       <use xlink:href="#DejaVuSans-2212"/>
       <use x="83.789062" xlink:href="#DejaVuSans-30"/>
       <use x="147.412109" xlink:href="#DejaVuSans-2e"/>
       <use x="179.199219" xlink:href="#DejaVuSans-35"/>
      </g>
     </g>
    </g>
    <g id="ytick_4">
     <g id="line2d_4">
      <g>
       <use style="stroke:#000000;stroke-width:0.8;" x="67.622187" xlink:href="#me7b17a84a9" y="159.704551"/>
      </g>
     </g>
     <g id="text_4">
      <!-- 0.0 -->
      <g transform="translate(25.635312 168.062832)scale(0.22 -0.22)">
       <use xlink:href="#DejaVuSans-30"/>
       <use x="63.623047" xlink:href="#DejaVuSans-2e"/>
       <use x="95.410156" xlink:href="#DejaVuSans-30"/>
      </g>
     </g>
    </g>
    <g id="ytick_5">
     <g id="line2d_5">
      <g>
       <use style="stroke:#000000;stroke-width:0.8;" x="67.622187" xlink:href="#me7b17a84a9" y="98.41542"/>
      </g>
     </g>
     <g id="text_5">
      <!-- 0.5 -->
      <g transform="translate(25.635312 106.773701)scale(0.22 -0.22)">
       <use xlink:href="#DejaVuSans-30"/>
       <use x="63.623047" xlink:href="#DejaVuSans-2e"/>
       <use x="95.410156" xlink:href="#DejaVuSans-35"/>
      </g>
     </g>
    </g>
    <g id="ytick_6">
     <g id="line2d_6">
      <g>
       <use style="stroke:#000000;stroke-width:0.8;" x="67.622187" xlink:href="#me7b17a84a9" y="37.126289"/>
      </g>
     </g>
     <g id="text_6">
      <!-- 1.0 -->
      <g transform="translate(25.635312 45.48457)scale(0.22 -0.22)">
       <use xlink:href="#DejaVuSans-31"/>
       <use x="63.623047" xlink:href="#DejaVuSans-2e"/>
       <use x="95.410156" xlink:href="#DejaVuSans-30"/>
      </g>
     </g>
    </g>
   </g>
   <g id="patch_3">
    <path d="M 67.622187 343.34 
L 67.622187 10.7 
" style="fill:none;stroke:#000000;stroke-linecap:square;stroke-linejoin:miter;stroke-width:0.8;"/>
   </g>
   <g id="patch_4">
    <path d="M 402.422188 343.34 
L 402.422188 10.7 
" style="fill:none;stroke:#000000;stroke-linecap:square;stroke-linejoin:miter;stroke-width:0.8;"/>
   </g>
   <g id="patch_5">
    <path d="M 67.622187 343.34 
L 402.422188 343.34 
" style="fill:none;stroke:#000000;stroke-linecap:square;stroke-linejoin:miter;stroke-width:0.8;"/>
   </g>
   <g id="patch_6">
    <path d="M 67.622187 10.7 
L 402.422188 10.7 
" style="fill:none;stroke:#000000;stroke-linecap:square;stroke-linejoin:miter;stroke-width:0.8;"/>
   </g>
  </g>
 </g>
 <defs>
  <clipPath id="p33eb979eff">
   <rect height="332.64" width="334.8" x="67.622187" y="10.7"/>
  </clipPath>
 </defs>
</svg>
