<?xml version="1.0" encoding="utf-8" standalone="no"?>
<!DOCTYPE svg PUBLIC "-//W3C//DTD SVG 1.1//EN"
  "http://www.w3.org/Graphics/SVG/1.1/DTD/svg11.dtd">
<!-- Created with matplotlib (http://matplotlib.org/) -->
<svg height="210pt" version="1.1" viewBox="0 0 210 210" width="210pt" xmlns="http://www.w3.org/2000/svg" xmlns:xlink="http://www.w3.org/1999/xlink">
 <defs>
  <style type="text/css">
*{stroke-linecap:butt;stroke-linejoin:round;}
  </style>
 </defs>
 <g id="figure_1">
  <g id="patch_1">
   <path d="M 0 210.76 
L 210.76 210.76 
L 210.76 0 
L 0 0 
z
" style="fill:#ffffff;"/>
  </g>
  <g id="axes_1">
   <g id="patch_2">
    <path d="M 10.7 200.06 
L 200.06 200.06 
L 200.06 10.7 
L 10.7 10.7 
z
" style="fill:#ffffff;"/>
   </g>
   <g id="matplotlib.axis_1"/>
   <g id="matplotlib.axis_2"/>
   <g id="line2d_1">
    <path clip-path="url(#p755113d601)" d="M 19.307273 197.005806 
L 191.452727 197.005806 
L 191.452727 197.005806 
" style="fill:none;opacity:0.7;stroke:#000004;stroke-linecap:square;stroke-width:2;"/>
   </g>
   <g id="line2d_2">
    <path clip-path="url(#p755113d601)" d="M 19.307273 197.005806 
L 62.386716 197.005806 
L 62.559034 193.183819 
L 63.075987 189.482773 
L 64.626847 177.108968 
L 65.1438 174.766537 
L 65.660753 173.426703 
L 66.005389 172.976964 
L 66.350025 172.795428 
L 66.69466 172.814061 
L 67.211613 173.092431 
L 68.24552 174.050656 
L 69.79638 175.449377 
L 70.830287 176.099484 
L 72.036511 176.590149 
L 73.415053 176.907451 
L 75.482867 177.125067 
L 79.446175 177.255485 
L 108.912514 177.633237 
L 147.16706 178.176926 
L 147.684013 178.417738 
L 148.028649 178.80407 
L 148.373284 179.551252 
L 148.71792 180.85311 
L 149.234873 184.042114 
L 150.26878 192.516667 
L 150.441097 197.005806 
L 191.452727 197.005806 
L 191.452727 197.005806 
" style="fill:none;opacity:0.7;stroke:#050417;stroke-linecap:square;stroke-width:2;"/>
   </g>
   <g id="line2d_3">
    <path clip-path="url(#p755113d601)" d="M 19.307273 197.005806 
L 65.660753 197.005806 
L 65.833071 193.314864 
L 66.69466 193.248746 
L 67.556249 193.324191 
L 67.728567 197.005806 
L 191.452727 197.005806 
L 191.452727 197.005806 
" style="fill:none;opacity:0.7;stroke:#110a30;stroke-linecap:square;stroke-width:2;"/>
   </g>
   <g id="line2d_4">
    <path clip-path="url(#p755113d601)" d="M 19.307273 197.005806 
L 63.248305 197.005806 
L 63.420622 193.098888 
L 64.454529 189.985195 
L 65.1438 188.695746 
L 65.660753 188.172449 
L 66.177707 187.940272 
L 66.866978 187.929167 
L 67.900885 188.219708 
L 70.313333 188.984627 
L 72.036511 189.270025 
L 74.44896 189.427411 
L 79.618493 189.482761 
L 147.684013 189.627796 
L 148.200966 189.920132 
L 148.545602 190.333374 
L 149.062555 191.42686 
L 149.579509 193.000717 
L 149.751826 197.005806 
L 191.452727 197.005806 
L 191.452727 197.005806 
" style="fill:none;opacity:0.7;stroke:#210c4a;stroke-linecap:square;stroke-width:2;"/>
   </g>
   <g id="line2d_5">
    <path clip-path="url(#p755113d601)" d="M 19.307273 197.005806 
L 61.008174 197.005806 
L 61.352809 190.131341 
L 61.697445 183.826017 
L 62.04208 173.648244 
L 62.559034 151.353061 
L 63.937576 87.377709 
L 64.454529 72.854144 
L 64.971482 64.313398 
L 65.316118 61.32895 
L 65.660753 60.010659 
L 65.833071 59.847775 
L 66.005389 59.953077 
L 66.350025 60.80225 
L 66.866978 63.150991 
L 69.79638 78.934726 
L 70.657969 81.814286 
L 71.519558 83.917553 
L 72.381147 85.441082 
L 73.242735 86.557046 
L 74.276642 87.542185 
L 75.655184 88.502629 
L 77.55068 89.507351 
L 80.824717 90.94367 
L 131.141507 112.010757 
L 143.376069 116.743601 
L 146.822424 118.136544 
L 147.339378 118.571677 
L 147.684013 119.118586 
L 148.028649 120.144506 
L 148.373284 122.118554 
L 148.71792 125.767543 
L 149.062555 131.876177 
L 149.579509 146.129183 
L 151.130369 197.005806 
L 191.452727 197.005806 
L 191.452727 197.005806 
" style="fill:none;opacity:0.7;stroke:#340a5f;stroke-linecap:square;stroke-width:2;"/>
   </g>
   <g id="line2d_6">
    <path clip-path="url(#p755113d601)" d="M 19.307273 197.005806 
L 62.386716 197.005806 
L 62.559034 193.183819 
L 63.075987 189.482773 
L 64.626847 177.108968 
L 65.1438 174.766537 
L 65.660753 173.426703 
L 66.005389 172.976964 
L 66.350025 172.795428 
L 66.69466 172.814061 
L 67.211613 173.092431 
L 68.24552 174.050656 
L 69.79638 175.449377 
L 70.830287 176.099484 
L 72.036511 176.590149 
L 73.415053 176.907451 
L 75.482867 177.125067 
L 79.446175 177.255485 
L 108.912514 177.633237 
L 147.16706 178.176926 
L 147.684013 178.417738 
L 148.028649 178.80407 
L 148.373284 179.551252 
L 148.71792 180.85311 
L 149.234873 184.042114 
L 150.26878 192.516667 
L 150.441097 197.005806 
L 191.452727 197.005806 
L 191.452727 197.005806 
" style="fill:none;opacity:0.7;stroke:#450a69;stroke-linecap:square;stroke-width:2;"/>
   </g>
   <g id="line2d_7">
    <path clip-path="url(#p755113d601)" d="M 19.307273 197.005806 
L 60.835856 197.005806 
L 61.180491 191.289923 
L 61.525127 185.842224 
L 61.869762 176.642438 
L 62.386716 155.180858 
L 63.937576 81.098427 
L 64.454529 66.795972 
L 64.971482 58.570367 
L 65.316118 55.798349 
L 65.660753 54.676666 
L 65.833071 54.603843 
L 66.005389 54.793125 
L 66.350025 55.79155 
L 66.866978 58.319144 
L 69.624062 73.779526 
L 70.485651 76.852554 
L 71.34724 79.09551 
L 72.208829 80.712412 
L 73.070418 81.886437 
L 74.104324 82.908922 
L 75.310549 83.779722 
L 77.033726 84.718271 
L 79.790811 85.929962 
L 96.505635 92.890156 
L 136.138722 109.574015 
L 146.994742 114.045518 
L 147.511695 114.603973 
L 147.856331 115.348326 
L 148.200966 116.771557 
L 148.545602 119.485879 
L 148.890238 124.330527 
L 149.407191 136.936316 
L 150.26878 167.783099 
L 151.130369 197.005806 
L 191.452727 197.005806 
L 191.452727 197.005806 
" style="fill:none;opacity:0.7;stroke:#57106e;stroke-linecap:square;stroke-width:2;"/>
   </g>
   <g id="line2d_8">
    <path clip-path="url(#p755113d601)" d="M 19.307273 197.005806 
L 191.452727 197.005806 
L 191.452727 197.005806 
" style="fill:none;opacity:0.7;stroke:#69166e;stroke-linecap:square;stroke-width:2;"/>
   </g>
   <g id="line2d_9">
    <path clip-path="url(#p755113d601)" d="M 19.307273 197.005806 
L 191.452727 197.005806 
L 191.452727 197.005806 
" style="fill:none;opacity:0.7;stroke:#7a1d6d;stroke-linecap:square;stroke-width:2;"/>
   </g>
   <g id="line2d_10">
    <path clip-path="url(#p755113d601)" d="M 19.307273 197.005806 
L 61.008174 197.005806 
L 61.352809 189.862931 
L 61.697445 183.34633 
L 62.04208 172.893228 
L 62.559034 150.185008 
L 63.765258 92.100288 
L 64.282211 75.448585 
L 64.799165 65.093563 
L 65.1438 61.162977 
L 65.488436 59.112585 
L 65.833071 58.516578 
L 66.005389 58.64209 
L 66.350025 59.527641 
L 66.866978 61.920884 
L 69.79638 77.803319 
L 70.657969 80.687708 
L 71.519558 82.792077 
L 72.381147 84.314682 
L 73.242735 85.428666 
L 74.276642 86.410777 
L 75.655184 87.36682 
L 77.55068 88.365552 
L 80.824717 89.792321 
L 101.330532 98.492894 
L 122.697936 107.484729 
L 136.31104 112.967795 
L 146.994742 117.229373 
L 147.511695 117.783806 
L 147.856331 118.528033 
L 148.200966 119.953146 
L 148.545602 122.664392 
L 148.890238 127.474379 
L 149.407191 139.850346 
L 150.441097 175.600916 
L 151.130369 197.005806 
L 191.452727 197.005806 
L 191.452727 197.005806 
" style="fill:none;opacity:0.7;stroke:#8c2369;stroke-linecap:square;stroke-width:2;"/>
   </g>
   <g id="line2d_11">
    <path clip-path="url(#p755113d601)" d="M 19.307273 197.005806 
L 62.04208 197.005806 
L 62.214398 192.349352 
L 62.559034 188.867001 
L 63.075987 181.221905 
L 64.454529 159.234631 
L 64.971482 154.234283 
L 65.488436 151.287036 
L 65.833071 150.251856 
L 66.177707 149.788279 
L 66.522342 149.757141 
L 66.866978 150.036979 
L 67.383931 150.825316 
L 70.313333 156.137812 
L 71.174922 157.094629 
L 72.208829 157.896604 
L 73.415053 158.498781 
L 74.793595 158.922848 
L 76.861409 159.303526 
L 80.824717 159.759483 
L 99.779672 161.530021 
L 120.974758 163.286602 
L 143.893022 164.960293 
L 146.994742 165.278887 
L 147.511695 165.557982 
L 147.856331 165.989598 
L 148.200966 166.843869 
L 148.545602 168.426902 
L 148.890238 171.042761 
L 149.407191 176.990416 
L 150.958051 197.005806 
L 191.452727 197.005806 
L 191.452727 197.005806 
" style="fill:none;opacity:0.7;stroke:#9b2964;stroke-linecap:square;stroke-width:2;"/>
   </g>
   <g id="line2d_12">
    <path clip-path="url(#p755113d601)" d="M 19.307273 197.005806 
L 191.452727 197.005806 
L 191.452727 197.005806 
" style="fill:none;opacity:0.7;stroke:#ad305d;stroke-linecap:square;stroke-width:2;"/>
   </g>
   <g id="line2d_13">
    <path clip-path="url(#p755113d601)" d="M 19.307273 197.005806 
L 191.452727 197.005806 
L 191.452727 197.005806 
" style="fill:none;opacity:0.7;stroke:#bd3853;stroke-linecap:square;stroke-width:2;"/>
   </g>
   <g id="line2d_14">
    <path clip-path="url(#p755113d601)" d="M 19.307273 197.005806 
L 191.452727 197.005806 
L 191.452727 197.005806 
" style="fill:none;opacity:0.7;stroke:#cc4248;stroke-linecap:square;stroke-width:2;"/>
   </g>
   <g id="line2d_15">
    <path clip-path="url(#p755113d601)" d="M 19.307273 197.005806 
L 191.452727 197.005806 
L 191.452727 197.005806 
" style="fill:none;opacity:0.7;stroke:#d94d3d;stroke-linecap:square;stroke-width:2;"/>
   </g>
   <g id="line2d_16">
    <path clip-path="url(#p755113d601)" d="M 19.307273 197.005806 
L 191.452727 197.005806 
L 191.452727 197.005806 
" style="fill:none;opacity:0.7;stroke:#e55c30;stroke-linecap:square;stroke-width:2;"/>
   </g>
   <g id="line2d_17">
    <path clip-path="url(#p755113d601)" d="M 19.307273 197.005806 
L 62.04208 197.005806 
L 62.214398 193.06574 
L 62.559034 190.110582 
L 63.075987 183.547489 
L 64.454529 164.336989 
L 64.971482 159.907599 
L 65.488436 157.272973 
L 65.833071 156.333484 
L 66.177707 155.898129 
L 66.522342 155.845308 
L 66.866978 156.0685 
L 67.383931 156.732126 
L 70.485651 161.492395 
L 71.519558 162.391023 
L 72.553464 162.98816 
L 73.759689 163.430872 
L 75.482867 163.796826 
L 78.239951 164.115129 
L 85.649615 164.661929 
L 110.291057 166.277665 
L 137.172629 167.814693 
L 146.994742 168.425487 
L 147.511695 168.677561 
L 147.856331 169.072185 
L 148.200966 169.855517 
L 148.545602 171.305522 
L 148.890238 173.692953 
L 149.407191 179.088871 
L 150.441097 191.916273 
L 150.613415 197.005806 
L 191.452727 197.005806 
L 191.452727 197.005806 
" style="fill:none;opacity:0.7;stroke:#ef6c23;stroke-linecap:square;stroke-width:2;"/>
   </g>
   <g id="line2d_18">
    <path clip-path="url(#p755113d601)" d="M 19.307273 197.005806 
L 191.452727 197.005806 
L 191.452727 197.005806 
" style="fill:none;opacity:0.7;stroke:#f67e14;stroke-linecap:square;stroke-width:2;"/>
   </g>
   <g id="line2d_19">
    <path clip-path="url(#p755113d601)" d="M 19.307273 197.005806 
L 191.452727 197.005806 
L 191.452727 197.005806 
" style="fill:none;opacity:0.7;stroke:#fa9207;stroke-linecap:square;stroke-width:2;"/>
   </g>
   <g id="line2d_20">
    <path clip-path="url(#p755113d601)" d="M 19.307273 197.005806 
L 191.452727 197.005806 
L 191.452727 197.005806 
" style="fill:none;opacity:0.7;stroke:#fca50a;stroke-linecap:square;stroke-width:2;"/>
   </g>
   <g id="patch_3">
    <path d="M 10.7 200.06 
L 10.7 10.7 
" style="fill:none;stroke:#000000;stroke-linecap:square;stroke-linejoin:miter;stroke-width:0.8;"/>
   </g>
   <g id="patch_4">
    <path d="M 200.06 200.06 
L 200.06 10.7 
" style="fill:none;stroke:#000000;stroke-linecap:square;stroke-linejoin:miter;stroke-width:0.8;"/>
   </g>
   <g id="patch_5">
    <path d="M 10.7 200.06 
L 200.06 200.06 
" style="fill:none;stroke:#000000;stroke-linecap:square;stroke-linejoin:miter;stroke-width:0.8;"/>
   </g>
   <g id="patch_6">
    <path d="M 10.7 10.7 
L 200.06 10.7 
" style="fill:none;stroke:#000000;stroke-linecap:square;stroke-linejoin:miter;stroke-width:0.8;"/>
   </g>
  </g>
 </g>
 <defs>
  <clipPath id="p755113d601">
   <rect height="189.36" width="189.36" x="10.7" y="10.7"/>
  </clipPath>
 </defs>
</svg>
