<?xml version="1.0" encoding="utf-8" standalone="no"?>
<!DOCTYPE svg PUBLIC "-//W3C//DTD SVG 1.1//EN"
  "http://www.w3.org/Graphics/SVG/1.1/DTD/svg11.dtd">
<!-- Created with matplotlib (http://matplotlib.org/) -->
<svg height="210pt" version="1.1" viewBox="0 0 210 210" width="210pt" xmlns="http://www.w3.org/2000/svg" xmlns:xlink="http://www.w3.org/1999/xlink">
 <defs>
  <style type="text/css">
*{stroke-linecap:butt;stroke-linejoin:round;}
  </style>
 </defs>
 <g id="figure_1">
  <g id="patch_1">
   <path d="M 0 210.76 
L 210.76 210.76 
L 210.76 0 
L 0 0 
z
" style="fill:#ffffff;"/>
  </g>
  <g id="axes_1">
   <g id="patch_2">
    <path d="M 10.7 200.06 
L 200.06 200.06 
L 200.06 10.7 
L 10.7 10.7 
z
" style="fill:#ffffff;"/>
   </g>
   <g id="matplotlib.axis_1"/>
   <g id="matplotlib.axis_2"/>
   <g id="line2d_1">
    <path clip-path="url(#p55c384359f)" d="M 19.307273 191.826957 
L 62.559034 191.826957 
L 62.731351 160.652594 
L 63.420622 122.108677 
L 64.454529 64.630079 
L 64.971482 45.792346 
L 65.488436 34.255762 
L 65.833071 29.945783 
L 66.177707 27.74721 
L 66.350025 27.28341 
L 66.522342 27.166087 
L 66.69466 27.342489 
L 67.039296 28.388139 
L 67.556249 31.102169 
L 70.141016 46.823726 
L 71.002604 50.164387 
L 71.864193 52.516907 
L 72.553464 53.843184 
L 73.415053 54.991133 
L 74.276642 55.739363 
L 75.310549 56.295261 
L 76.516773 56.662642 
L 78.239951 56.92266 
L 80.997035 57.074554 
L 123.559525 58.274552 
L 146.305471 58.971565 
L 146.822424 59.227812 
L 147.16706 59.658104 
L 147.511695 60.583649 
L 147.856331 62.53519 
L 148.200966 66.458223 
L 148.545602 73.693825 
L 148.890238 85.449512 
L 149.407191 111.440114 
L 150.096462 152.58693 
L 150.26878 191.826957 
L 191.452727 191.826957 
L 191.452727 191.826957 
" style="fill:none;opacity:0.7;stroke:#6f196e;stroke-linecap:square;stroke-width:2;"/>
   </g>
   <g id="line2d_2">
    <path clip-path="url(#p55c384359f)" d="M 19.307273 191.826957 
L 63.765258 191.826957 
L 63.937576 93.127424 
L 64.626847 58.988931 
L 65.1438 42.131375 
L 65.660753 32.289036 
L 66.005389 28.865394 
L 66.350025 27.354869 
L 66.522342 27.166087 
L 66.69466 27.281922 
L 67.039296 28.235026 
L 67.556249 30.866909 
L 70.313333 47.352476 
L 71.174922 50.500664 
L 72.036511 52.694417 
L 72.725782 53.919476 
L 73.587371 54.968546 
L 74.44896 55.641725 
L 75.482867 56.129504 
L 76.689091 56.436519 
L 78.412269 56.629084 
L 81.169353 56.690012 
L 146.305471 56.806844 
L 146.822424 57.075158 
L 147.16706 57.539929 
L 147.511695 58.548929 
L 147.856331 60.679389 
L 148.200966 64.943054 
L 148.545602 72.730691 
L 148.890238 85.210969 
L 149.062555 93.27112 
L 149.234873 191.826957 
L 191.452727 191.826957 
L 191.452727 191.826957 
" style="fill:none;opacity:0.7;stroke:#7d1e6d;stroke-linecap:square;stroke-width:2;"/>
   </g>
   <g id="line2d_3">
    <path clip-path="url(#p55c384359f)" d="M 19.307273 191.826957 
L 62.903669 191.826957 
L 63.075987 143.52077 
L 64.626847 58.01893 
L 65.1438 41.532594 
L 65.660753 31.987143 
L 66.005389 28.71175 
L 66.350025 27.312033 
L 66.522342 27.166087 
L 66.69466 27.31731 
L 67.039296 28.321743 
L 67.556249 30.992377 
L 70.141016 46.639972 
L 71.002604 49.967199 
L 71.864193 52.304101 
L 72.553464 53.615989 
L 73.415053 54.743831 
L 74.276642 55.470098 
L 75.310549 55.997924 
L 76.516773 56.331083 
L 78.239951 56.540845 
L 80.824717 56.611111 
L 146.477789 56.7763 
L 146.822424 56.97641 
L 147.16706 57.416957 
L 147.511695 58.374524 
L 147.856331 60.401328 
L 148.200966 64.475903 
L 148.545602 71.971926 
L 148.890238 84.098657 
L 149.407191 110.743265 
L 149.924144 142.314466 
L 150.096462 191.826957 
L 191.452727 191.826957 
L 191.452727 191.826957 
" style="fill:none;opacity:0.7;stroke:#9b2964;stroke-linecap:square;stroke-width:2;"/>
   </g>
   <g id="line2d_4">
    <path clip-path="url(#p55c384359f)" d="M 19.307273 191.826957 
L 61.352809 191.826957 
L 61.697445 182.900235 
L 62.04208 174.587625 
L 62.559034 153.135386 
L 64.626847 45.778573 
L 65.1438 34.075358 
L 65.488436 29.756523 
L 65.833071 27.622072 
L 66.005389 27.214016 
L 66.177707 27.166087 
L 66.350025 27.423929 
L 66.69466 28.662483 
L 67.211613 31.720448 
L 69.968698 50.291682 
L 70.830287 54.0277 
L 71.691876 56.789061 
L 72.553464 58.814519 
L 73.415053 60.318329 
L 74.44896 61.666163 
L 75.655184 62.855134 
L 77.206044 64.062547 
L 79.618493 65.629467 
L 86.166568 69.446969 
L 95.127093 74.439874 
L 103.915299 79.083643 
L 112.703505 83.477686 
L 121.491712 87.626575 
L 130.452236 91.611953 
L 139.585078 95.429619 
L 146.822424 98.455195 
L 147.339378 99.037353 
L 147.684013 99.824607 
L 148.028649 101.342625 
L 148.373284 104.259951 
L 148.71792 109.514461 
L 149.062555 117.930203 
L 149.579509 136.315777 
L 150.958051 191.826957 
L 191.452727 191.826957 
L 191.452727 191.826957 
" style="fill:none;opacity:0.7;stroke:#ab2f5e;stroke-linecap:square;stroke-width:2;"/>
   </g>
   <g id="line2d_5">
    <path clip-path="url(#p55c384359f)" d="M 19.307273 191.826957 
L 62.386716 191.826957 
L 62.559034 166.593912 
L 63.075987 140.776188 
L 64.454529 62.991349 
L 64.971482 44.647782 
L 65.488436 33.574464 
L 65.833071 29.530179 
L 66.177707 27.558125 
L 66.350025 27.19332 
L 66.522342 27.166087 
L 66.69466 27.424257 
L 67.039296 28.611077 
L 67.556249 31.490891 
L 69.968698 46.832784 
L 70.830287 50.505509 
L 71.691876 53.148957 
L 72.553464 54.992561 
L 73.415053 56.259176 
L 74.276642 57.129158 
L 75.310549 57.833967 
L 76.516773 58.377278 
L 78.239951 58.890027 
L 80.997035 59.44479 
L 97.194906 62.192292 
L 115.632907 65.099481 
L 134.932498 67.915646 
L 146.477789 69.635807 
L 146.994742 70.019957 
L 147.339378 70.609337 
L 147.684013 71.826015 
L 148.028649 74.307653 
L 148.373284 79.101611 
L 148.71792 87.47815 
L 149.234873 108.13086 
L 150.441097 171.994705 
L 150.613415 191.826957 
L 191.452727 191.826957 
L 191.452727 191.826957 
" style="fill:none;opacity:0.7;stroke:#b93556;stroke-linecap:square;stroke-width:2;"/>
   </g>
   <g id="line2d_6">
    <path clip-path="url(#p55c384359f)" d="M 19.307273 191.826957 
L 64.626847 191.826957 
L 64.799165 52.77218 
L 65.316118 38.27935 
L 65.833071 30.36728 
L 66.177707 27.926666 
L 66.522342 27.166087 
L 66.69466 27.273277 
L 67.039296 28.215148 
L 67.556249 30.84174 
L 70.313333 47.375721 
L 71.174922 50.538155 
L 72.036511 52.742452 
L 72.208829 53.08906 
L 72.381147 191.826957 
L 191.452727 191.826957 
L 191.452727 191.826957 
" style="fill:none;opacity:0.7;stroke:#fcb216;stroke-linecap:square;stroke-width:2;"/>
   </g>
   <g id="patch_3">
    <path d="M 10.7 200.06 
L 10.7 10.7 
" style="fill:none;stroke:#000000;stroke-linecap:square;stroke-linejoin:miter;stroke-width:0.8;"/>
   </g>
   <g id="patch_4">
    <path d="M 200.06 200.06 
L 200.06 10.7 
" style="fill:none;stroke:#000000;stroke-linecap:square;stroke-linejoin:miter;stroke-width:0.8;"/>
   </g>
   <g id="patch_5">
    <path d="M 10.7 200.06 
L 200.06 200.06 
" style="fill:none;stroke:#000000;stroke-linecap:square;stroke-linejoin:miter;stroke-width:0.8;"/>
   </g>
   <g id="patch_6">
    <path d="M 10.7 10.7 
L 200.06 10.7 
" style="fill:none;stroke:#000000;stroke-linecap:square;stroke-linejoin:miter;stroke-width:0.8;"/>
   </g>
  </g>
 </g>
 <defs>
  <clipPath id="p55c384359f">
   <rect height="189.36" width="189.36" x="10.7" y="10.7"/>
  </clipPath>
 </defs>
</svg>
