<?xml version="1.0" encoding="utf-8" standalone="no"?>
<!DOCTYPE svg PUBLIC "-//W3C//DTD SVG 1.1//EN"
  "http://www.w3.org/Graphics/SVG/1.1/DTD/svg11.dtd">
<!-- Created with matplotlib (http://matplotlib.org/) -->
<svg height="210pt" version="1.1" viewBox="0 0 210 210" width="210pt" xmlns="http://www.w3.org/2000/svg" xmlns:xlink="http://www.w3.org/1999/xlink">
 <defs>
  <style type="text/css">
*{stroke-linecap:butt;stroke-linejoin:round;}
  </style>
 </defs>
 <g id="figure_1">
  <g id="patch_1">
   <path d="M 0 210.76 
L 210.76 210.76 
L 210.76 0 
L 0 0 
z
" style="fill:#ffffff;"/>
  </g>
  <g id="axes_1">
   <g id="patch_2">
    <path d="M 10.7 200.06 
L 200.06 200.06 
L 200.06 10.7 
L 10.7 10.7 
z
" style="fill:#ffffff;"/>
   </g>
   <g id="matplotlib.axis_1"/>
   <g id="matplotlib.axis_2"/>
   <g id="line2d_1">
    <path clip-path="url(#p4f1ba8cd59)" d="M 19.307273 191.826957 
L 62.214398 191.826957 
L 62.386716 171.457122 
L 62.903669 148.922945 
L 64.799165 49.408192 
L 65.316118 36.263797 
L 65.833071 29.413506 
L 66.177707 27.51085 
L 66.350025 27.172155 
L 66.522342 27.166087 
L 66.69466 27.441053 
L 67.039296 28.650522 
L 67.556249 31.54413 
L 69.968698 46.850379 
L 70.830287 50.515407 
L 71.691876 53.159829 
L 72.553464 55.011848 
L 73.415053 56.292528 
L 74.276642 57.180564 
L 75.310549 57.910473 
L 76.516773 58.485845 
L 78.239951 59.046803 
L 80.997035 59.680278 
L 95.644046 62.572058 
L 112.014234 65.582843 
L 129.246011 68.523679 
L 146.650106 71.475183 
L 146.994742 71.766353 
L 147.339378 72.342015 
L 147.684013 73.522118 
L 148.028649 75.92236 
L 148.373284 80.557226 
L 148.71792 88.664737 
L 149.234873 108.70436 
L 150.441097 170.943339 
L 150.613415 191.826957 
L 191.452727 191.826957 
L 191.452727 191.826957 
" style="fill:none;opacity:0.7;stroke:#510e6c;stroke-linecap:square;stroke-width:2;"/>
   </g>
   <g id="line2d_2">
    <path clip-path="url(#p4f1ba8cd59)" d="M 19.307273 191.826957 
L 62.214398 191.826957 
L 62.386716 171.457122 
L 62.903669 148.922945 
L 64.799165 49.408192 
L 65.316118 36.263797 
L 65.833071 29.413506 
L 66.177707 27.51085 
L 66.350025 27.172155 
L 66.522342 27.166087 
L 66.69466 27.441053 
L 67.039296 28.650522 
L 67.556249 31.54413 
L 69.968698 46.850379 
L 70.830287 50.515407 
L 71.691876 53.159829 
L 72.553464 55.011848 
L 73.415053 56.292528 
L 74.276642 57.180564 
L 75.310549 57.910473 
L 76.516773 58.485845 
L 78.239951 59.046803 
L 80.997035 59.680278 
L 95.644046 62.572058 
L 112.014234 65.582843 
L 129.246011 68.523679 
L 146.650106 71.475183 
L 146.994742 71.766353 
L 147.339378 72.342015 
L 147.684013 73.522118 
L 148.028649 75.92236 
L 148.373284 80.557226 
L 148.71792 88.664737 
L 149.234873 108.70436 
L 150.441097 170.943339 
L 150.613415 191.826957 
L 191.452727 191.826957 
L 191.452727 191.826957 
" style="fill:none;opacity:0.7;stroke:#8d2369;stroke-linecap:square;stroke-width:2;"/>
   </g>
   <g id="line2d_3">
    <path clip-path="url(#p4f1ba8cd59)" d="M 19.307273 191.826957 
L 61.697445 191.826957 
L 62.04208 178.628471 
L 62.386716 168.006014 
L 62.903669 143.19416 
L 64.454529 57.562746 
L 64.971482 41.080729 
L 65.488436 31.63679 
L 65.833071 28.478339 
L 66.177707 27.227669 
L 66.350025 27.166087 
L 66.522342 27.407089 
L 66.866978 28.604151 
L 67.383931 31.58605 
L 69.968698 48.840721 
L 70.830287 52.666389 
L 71.691876 55.480648 
L 72.553464 57.518595 
L 73.415053 59.000453 
L 74.44896 60.288067 
L 75.655184 61.375836 
L 77.206044 62.425424 
L 79.446175 63.636902 
L 84.443391 65.975806 
L 93.231597 69.876851 
L 102.364439 73.686684 
L 111.841916 77.395491 
L 121.664029 80.995313 
L 131.830778 84.47994 
L 142.342162 87.844799 
L 146.477789 89.204731 
L 146.994742 89.585641 
L 147.339378 90.078736 
L 147.684013 91.025036 
L 148.028649 92.89672 
L 148.373284 96.49903 
L 148.71792 102.88235 
L 149.234873 119.126543 
L 150.613415 178.879914 
L 150.785733 191.826957 
L 191.452727 191.826957 
L 191.452727 191.826957 
" style="fill:none;opacity:0.7;stroke:#b93556;stroke-linecap:square;stroke-width:2;"/>
   </g>
   <g id="line2d_4">
    <path clip-path="url(#p4f1ba8cd59)" d="M 19.307273 191.826957 
L 62.903669 191.826957 
L 63.075987 141.508084 
L 64.626847 57.641703 
L 65.1438 41.39867 
L 65.660753 31.970859 
L 66.005389 28.722673 
L 66.350025 27.321109 
L 66.522342 27.166087 
L 66.69466 27.30406 
L 67.039296 28.272657 
L 67.556249 30.875758 
L 70.141016 46.213529 
L 71.002604 49.480951 
L 71.864193 51.776665 
L 72.553464 53.065737 
L 73.415053 54.174158 
L 74.276642 54.88803 
L 75.310549 55.406918 
L 76.516773 55.734475 
L 78.239951 55.940743 
L 80.997035 56.010298 
L 146.477789 56.174296 
L 146.822424 56.373294 
L 147.16706 56.811321 
L 147.511695 57.763081 
L 147.856331 59.776175 
L 148.200966 63.817905 
L 148.545602 71.237974 
L 148.890238 83.208849 
L 149.407191 109.414035 
L 149.924144 140.353511 
L 150.096462 191.826957 
L 191.452727 191.826957 
L 191.452727 191.826957 
" style="fill:none;opacity:0.7;stroke:#c73e4c;stroke-linecap:square;stroke-width:2;"/>
   </g>
   <g id="line2d_5">
    <path clip-path="url(#p4f1ba8cd59)" d="M 19.307273 191.826957 
L 60.835856 191.826957 
L 61.180491 183.953735 
L 61.525127 176.670306 
L 61.869762 164.80177 
L 62.386716 138.463454 
L 63.765258 61.339444 
L 64.282211 43.538158 
L 64.799165 32.948545 
L 65.1438 29.175091 
L 65.488436 27.431472 
L 65.660753 27.166087 
L 65.833071 27.229273 
L 66.177707 28.140224 
L 66.69466 30.834591 
L 67.900885 39.301102 
L 68.934791 45.929947 
L 69.79638 50.212219 
L 70.657969 53.395854 
L 71.519558 55.69286 
L 72.381147 57.336028 
L 73.242735 58.523527 
L 74.276642 59.555548 
L 75.482867 60.435245 
L 77.206044 61.38784 
L 79.963129 62.62343 
L 90.991466 67.384228 
L 103.05371 72.854868 
L 120.974758 81.260173 
L 144.409975 92.210085 
L 146.822424 93.421466 
L 147.339378 93.915421 
L 147.684013 94.519445 
L 148.028649 95.640386 
L 148.373284 97.801101 
L 148.71792 101.851261 
L 149.062555 108.798271 
L 149.579509 125.638928 
L 151.302686 191.826957 
L 191.452727 191.826957 
L 191.452727 191.826957 
" style="fill:none;opacity:0.7;stroke:#d34743;stroke-linecap:square;stroke-width:2;"/>
   </g>
   <g id="line2d_6">
    <path clip-path="url(#p4f1ba8cd59)" d="M 19.307273 191.826957 
L 62.04208 191.826957 
L 62.214398 175.618408 
L 62.559034 163.487538 
L 63.075987 136.857409 
L 64.454529 60.276994 
L 64.971482 42.862463 
L 65.488436 32.598749 
L 65.833071 28.994092 
L 66.177707 27.380186 
L 66.350025 27.166087 
L 66.522342 27.272334 
L 66.866978 28.247495 
L 67.383931 30.993825 
L 70.313333 49.4986 
L 71.174922 52.831446 
L 72.036511 55.23492 
L 72.8981 56.943635 
L 73.759689 58.163112 
L 74.793595 59.20031 
L 75.99982 60.054194 
L 77.55068 60.855277 
L 79.963129 61.814491 
L 87.372793 64.330206 
L 98.228812 67.810413 
L 109.601785 71.22184 
L 121.491712 74.553236 
L 133.898591 77.79531 
L 146.650106 81.070207 
L 146.994742 81.357716 
L 147.339378 81.891733 
L 147.684013 82.950914 
L 148.028649 85.075859 
L 148.373284 89.17178 
L 148.71792 96.378453 
L 149.234873 114.427965 
L 150.613415 178.853738 
L 150.785733 191.826957 
L 191.452727 191.826957 
L 191.452727 191.826957 
" style="fill:none;opacity:0.7;stroke:#de5238;stroke-linecap:square;stroke-width:2;"/>
   </g>
   <g id="line2d_7">
    <path clip-path="url(#p4f1ba8cd59)" d="M 19.307273 191.826957 
L 63.420622 191.826957 
L 63.59294 110.771978 
L 64.454529 64.853581 
L 64.971482 46.143349 
L 65.488436 34.560498 
L 65.833071 30.166593 
L 66.177707 27.862453 
L 66.522342 27.166087 
L 66.69466 27.283881 
L 67.039296 28.21396 
L 67.556249 30.765454 
L 70.313333 46.694202 
L 71.174922 49.732791 
L 72.036511 51.849769 
L 72.725782 53.031804 
L 73.587371 54.043935 
L 74.44896 54.693354 
L 75.482867 55.163882 
L 76.689091 55.46002 
L 78.412269 55.645744 
L 81.341671 55.704547 
L 146.305471 55.81637 
L 146.822424 56.073507 
L 147.16706 56.518961 
L 147.511695 57.486227 
L 147.856331 59.529413 
L 148.200966 63.621545 
L 148.545602 71.104946 
L 148.890238 83.116624 
L 149.407191 109.232956 
L 149.579509 191.826957 
L 191.452727 191.826957 
L 191.452727 191.826957 
" style="fill:none;opacity:0.7;stroke:#e8602d;stroke-linecap:square;stroke-width:2;"/>
   </g>
   <g id="line2d_8">
    <path clip-path="url(#p4f1ba8cd59)" d="M 19.307273 191.826957 
L 62.04208 191.826957 
L 62.214398 175.618408 
L 62.559034 163.487538 
L 63.075987 136.857409 
L 64.454529 60.276994 
L 64.971482 42.862463 
L 65.488436 32.598749 
L 65.833071 28.994092 
L 66.177707 27.380186 
L 66.350025 27.166087 
L 66.522342 27.272334 
L 66.866978 28.247495 
L 67.383931 30.993825 
L 70.313333 49.4986 
L 71.174922 52.831446 
L 72.036511 55.23492 
L 72.8981 56.943635 
L 73.759689 58.163112 
L 74.793595 59.20031 
L 75.99982 60.054194 
L 77.55068 60.855277 
L 79.963129 61.814491 
L 87.372793 64.330206 
L 98.228812 67.810413 
L 109.601785 71.22184 
L 121.491712 74.553236 
L 133.898591 77.79531 
L 146.650106 81.070207 
L 146.994742 81.357716 
L 147.339378 81.891733 
L 147.684013 82.950914 
L 148.028649 85.075859 
L 148.373284 89.17178 
L 148.71792 96.378453 
L 149.234873 114.427965 
L 150.613415 178.853738 
L 150.785733 191.826957 
L 191.452727 191.826957 
L 191.452727 191.826957 
" style="fill:none;opacity:0.7;stroke:#f98e09;stroke-linecap:square;stroke-width:2;"/>
   </g>
   <g id="patch_3">
    <path d="M 10.7 200.06 
L 10.7 10.7 
" style="fill:none;stroke:#000000;stroke-linecap:square;stroke-linejoin:miter;stroke-width:0.8;"/>
   </g>
   <g id="patch_4">
    <path d="M 200.06 200.06 
L 200.06 10.7 
" style="fill:none;stroke:#000000;stroke-linecap:square;stroke-linejoin:miter;stroke-width:0.8;"/>
   </g>
   <g id="patch_5">
    <path d="M 10.7 200.06 
L 200.06 200.06 
" style="fill:none;stroke:#000000;stroke-linecap:square;stroke-linejoin:miter;stroke-width:0.8;"/>
   </g>
   <g id="patch_6">
    <path d="M 10.7 10.7 
L 200.06 10.7 
" style="fill:none;stroke:#000000;stroke-linecap:square;stroke-linejoin:miter;stroke-width:0.8;"/>
   </g>
  </g>
 </g>
 <defs>
  <clipPath id="p4f1ba8cd59">
   <rect height="189.36" width="189.36" x="10.7" y="10.7"/>
  </clipPath>
 </defs>
</svg>
