<?xml version="1.0" encoding="utf-8" standalone="no"?>
<!DOCTYPE svg PUBLIC "-//W3C//DTD SVG 1.1//EN"
  "http://www.w3.org/Graphics/SVG/1.1/DTD/svg11.dtd">
<!-- Created with matplotlib (http://matplotlib.org/) -->
<svg height="210pt" version="1.1" viewBox="0 0 210 210" width="210pt" xmlns="http://www.w3.org/2000/svg" xmlns:xlink="http://www.w3.org/1999/xlink">
 <defs>
  <style type="text/css">
*{stroke-linecap:butt;stroke-linejoin:round;}
  </style>
 </defs>
 <g id="figure_1">
  <g id="patch_1">
   <path d="M 0 210.76 
L 210.76 210.76 
L 210.76 0 
L 0 0 
z
" style="fill:#ffffff;"/>
  </g>
  <g id="axes_1">
   <g id="patch_2">
    <path d="M 10.7 200.06 
L 200.06 200.06 
L 200.06 10.7 
L 10.7 10.7 
z
" style="fill:#ffffff;"/>
   </g>
   <g id="matplotlib.axis_1"/>
   <g id="matplotlib.axis_2"/>
   <g id="line2d_1">
    <path clip-path="url(#p91dc05805a)" d="M 19.307273 191.826957 
L 61.352809 191.826957 
L 61.697445 182.562612 
L 62.04208 174.337538 
L 62.559034 153.050239 
L 64.626847 45.879385 
L 65.1438 34.141208 
L 65.488436 29.798516 
L 65.833071 27.641848 
L 66.005389 27.223572 
L 66.177707 27.166087 
L 66.350025 27.415055 
L 66.69466 28.637893 
L 67.211613 31.677022 
L 69.968698 50.206373 
L 70.830287 53.938328 
L 71.691876 56.696891 
L 72.553464 58.72015 
L 73.415053 60.22202 
L 74.44896 61.567634 
L 75.655184 62.754009 
L 77.206044 63.957981 
L 79.618493 65.519365 
L 85.994251 69.222092 
L 94.782457 74.101567 
L 103.570663 78.728688 
L 112.35887 83.105135 
L 121.147076 87.236058 
L 130.1076 91.203198 
L 139.240442 95.002715 
L 146.822424 98.146816 
L 147.339378 98.728755 
L 147.684013 99.517064 
L 148.028649 101.038067 
L 148.373284 103.961187 
L 148.71792 109.223716 
L 149.062555 117.645723 
L 149.579509 136.024298 
L 150.958051 191.826957 
L 191.452727 191.826957 
L 191.452727 191.826957 
" style="fill:none;opacity:0.7;stroke:#510e6c;stroke-linecap:square;stroke-width:2;"/>
   </g>
   <g id="line2d_2">
    <path clip-path="url(#p91dc05805a)" d="M 19.307273 191.826957 
L 63.59294 191.826957 
L 63.765258 100.317683 
L 64.454529 64.757818 
L 64.971482 46.113334 
L 65.488436 34.561402 
L 65.833071 30.174181 
L 66.177707 27.86895 
L 66.522342 27.166087 
L 66.69466 27.279216 
L 67.039296 28.198108 
L 67.556249 30.730391 
L 70.313333 46.575831 
L 71.174922 49.60078 
L 72.036511 51.708533 
L 72.725782 52.885521 
L 73.587371 53.893397 
L 74.44896 54.540124 
L 75.482867 55.008726 
L 76.689091 55.303665 
L 78.584586 55.498579 
L 81.686306 55.547438 
L 146.305471 55.659163 
L 146.822424 55.916412 
L 147.16706 56.36203 
L 147.511695 57.329511 
L 147.856331 59.372568 
L 148.200966 63.46227 
L 148.545602 70.934945 
L 148.890238 82.916274 
L 149.234873 99.403284 
L 149.407191 191.826957 
L 191.452727 191.826957 
L 191.452727 191.826957 
" style="fill:none;opacity:0.7;stroke:#6f196e;stroke-linecap:square;stroke-width:2;"/>
   </g>
   <g id="line2d_3">
    <path clip-path="url(#p91dc05805a)" d="M 19.307273 191.826957 
L 61.697445 191.826957 
L 62.04208 178.183162 
L 62.386716 167.287376 
L 62.903669 142.112017 
L 64.454529 56.77514 
L 64.971482 40.572783 
L 65.488436 31.367468 
L 65.833071 28.33579 
L 66.177707 27.186092 
L 66.350025 27.166087 
L 66.522342 27.443282 
L 66.866978 28.698421 
L 67.383931 31.738533 
L 69.968698 49.059027 
L 70.830287 52.888724 
L 71.691876 55.710334 
L 72.553464 57.759655 
L 73.415053 59.256403 
L 74.44896 60.56534 
L 75.655184 61.681074 
L 77.206044 62.769188 
L 79.446175 64.037903 
L 84.443391 66.50426 
L 93.059279 70.539587 
L 101.847486 74.411624 
L 110.980328 78.191379 
L 120.457805 81.868735 
L 130.1076 85.374976 
L 140.102031 88.772259 
L 146.650106 91.018313 
L 147.16706 91.50307 
L 147.511695 92.164773 
L 147.856331 93.456163 
L 148.200966 95.989092 
L 148.545602 100.702474 
L 148.890238 108.591975 
L 149.407191 126.921022 
L 150.613415 178.805425 
L 150.785733 191.826957 
L 191.452727 191.826957 
L 191.452727 191.826957 
" style="fill:none;opacity:0.7;stroke:#7d1e6d;stroke-linecap:square;stroke-width:2;"/>
   </g>
   <g id="line2d_4">
    <path clip-path="url(#p91dc05805a)" d="M 19.307273 191.826957 
L 61.352809 191.826957 
L 61.697445 182.562612 
L 62.04208 174.337538 
L 62.559034 153.050239 
L 64.626847 45.879385 
L 65.1438 34.141208 
L 65.488436 29.798516 
L 65.833071 27.641848 
L 66.005389 27.223572 
L 66.177707 27.166087 
L 66.350025 27.415055 
L 66.69466 28.637893 
L 67.211613 31.677022 
L 69.968698 50.206373 
L 70.830287 53.938328 
L 71.691876 56.696891 
L 72.553464 58.72015 
L 73.415053 60.22202 
L 74.44896 61.567634 
L 75.655184 62.754009 
L 77.206044 63.957981 
L 79.618493 65.519365 
L 85.994251 69.222092 
L 94.782457 74.101567 
L 103.570663 78.728688 
L 112.35887 83.105135 
L 121.147076 87.236058 
L 130.1076 91.203198 
L 139.240442 95.002715 
L 146.822424 98.146816 
L 147.339378 98.728755 
L 147.684013 99.517064 
L 148.028649 101.038067 
L 148.373284 103.961187 
L 148.71792 109.223716 
L 149.062555 117.645723 
L 149.579509 136.024298 
L 150.958051 191.826957 
L 191.452727 191.826957 
L 191.452727 191.826957 
" style="fill:none;opacity:0.7;stroke:#8d2369;stroke-linecap:square;stroke-width:2;"/>
   </g>
   <g id="line2d_5">
    <path clip-path="url(#p91dc05805a)" d="M 19.307273 191.826957 
L 61.869762 191.826957 
L 62.214398 174.770723 
L 62.559034 162.153789 
L 63.248305 124.526539 
L 64.282211 66.237138 
L 64.799165 46.728601 
L 65.316118 34.671017 
L 65.660753 30.132025 
L 66.005389 27.798451 
L 66.177707 27.299374 
L 66.350025 27.166087 
L 66.522342 27.344055 
L 66.866978 28.438227 
L 67.383931 31.312976 
L 70.141016 49.261011 
L 71.002604 52.846517 
L 71.864193 55.460861 
L 72.725782 57.339987 
L 73.587371 58.69708 
L 74.621278 59.867986 
L 75.827502 60.849517 
L 77.378362 61.789301 
L 79.618493 62.8651 
L 85.30498 65.217586 
L 94.782457 68.930729 
L 104.60457 72.5411 
L 114.771319 76.042687 
L 125.45502 79.484629 
L 136.483358 82.80294 
L 146.650106 85.824364 
L 147.16706 86.32377 
L 147.511695 87.032477 
L 147.856331 88.437747 
L 148.200966 91.208003 
L 148.545602 96.35016 
L 148.890238 104.892776 
L 149.407191 124.489943 
L 150.958051 191.826957 
L 191.452727 191.826957 
L 191.452727 191.826957 
" style="fill:none;opacity:0.7;stroke:#ab2f5e;stroke-linecap:square;stroke-width:2;"/>
   </g>
   <g id="line2d_6">
    <path clip-path="url(#p91dc05805a)" d="M 19.307273 191.826957 
L 63.765258 191.826957 
L 63.937576 90.294423 
L 64.626847 57.637868 
L 65.1438 41.504436 
L 65.660753 32.080139 
L 66.005389 28.799257 
L 66.350025 27.349041 
L 66.522342 27.166087 
L 66.69466 27.27471 
L 67.039296 28.182612 
L 67.556249 30.695751 
L 70.313333 46.456781 
L 71.174922 49.467787 
L 72.036511 51.566093 
L 72.725782 52.737906 
L 73.587371 53.741414 
L 74.44896 54.385376 
L 75.482867 54.851997 
L 76.689091 55.145703 
L 78.584586 55.339816 
L 81.686306 55.388537 
L 146.305471 55.500283 
L 146.822424 55.757573 
L 147.16706 56.203228 
L 147.511695 57.170658 
L 147.856331 59.213035 
L 148.200966 63.299274 
L 148.545602 70.759535 
L 148.890238 82.70828 
L 149.062555 90.421668 
L 149.234873 191.826957 
L 191.452727 191.826957 
L 191.452727 191.826957 
" style="fill:none;opacity:0.7;stroke:#b93556;stroke-linecap:square;stroke-width:2;"/>
   </g>
   <g id="line2d_7">
    <path clip-path="url(#p91dc05805a)" d="M 19.307273 191.826957 
L 61.352809 191.826957 
L 61.697445 182.812404 
L 62.04208 174.773631 
L 62.559034 153.795399 
L 63.59294 92.618529 
L 64.282211 58.395025 
L 64.799165 41.563839 
L 65.316118 31.856925 
L 65.660753 28.579542 
L 66.005389 27.252036 
L 66.177707 27.166087 
L 66.350025 27.391008 
L 66.69466 28.577429 
L 67.211613 31.585312 
L 69.968698 50.137678 
L 70.830287 53.886914 
L 71.691876 56.658735 
L 72.553464 58.691188 
L 73.415053 60.198878 
L 74.44896 61.548181 
L 75.655184 62.735822 
L 77.206044 63.938595 
L 79.618493 65.495174 
L 85.994251 69.177585 
L 94.782457 74.021097 
L 103.398346 78.518614 
L 112.186552 82.854097 
L 120.974758 86.942125 
L 129.935283 90.865058 
L 139.068124 94.620213 
L 146.822424 97.79673 
L 147.339378 98.382972 
L 147.684013 99.181108 
L 148.028649 100.72388 
L 148.373284 103.688965 
L 148.71792 109.019841 
L 149.062555 117.531763 
L 149.579509 136.045705 
L 150.958051 191.826957 
L 191.452727 191.826957 
L 191.452727 191.826957 
" style="fill:none;opacity:0.7;stroke:#ef6e21;stroke-linecap:square;stroke-width:2;"/>
   </g>
   <g id="line2d_8">
    <path clip-path="url(#p91dc05805a)" d="M 19.307273 191.826957 
L 62.386716 191.826957 
L 62.559034 165.730666 
L 63.075987 140.481614 
L 64.454529 63.371201 
L 64.971482 44.993332 
L 65.488436 33.822543 
L 65.833071 29.697854 
L 66.177707 27.641626 
L 66.350025 27.234786 
L 66.522342 27.166087 
L 66.69466 27.383645 
L 67.039296 28.492569 
L 67.556249 31.265362 
L 70.141016 47.059192 
L 71.002604 50.424389 
L 71.864193 52.81297 
L 72.725782 54.454992 
L 73.587371 55.564002 
L 74.44896 56.309248 
L 75.482867 56.894244 
L 76.861409 57.370686 
L 78.756904 57.755766 
L 82.030942 58.153241 
L 106.327748 60.690563 
L 132.347731 63.183849 
L 146.305471 64.531155 
L 146.822424 64.799414 
L 147.16706 65.216252 
L 147.511695 66.087786 
L 147.856331 67.902976 
L 148.200966 71.537764 
L 148.545602 78.248129 
L 148.890238 89.191635 
L 149.407191 113.537391 
L 150.26878 161.53995 
L 150.441097 191.826957 
L 191.452727 191.826957 
L 191.452727 191.826957 
" style="fill:none;opacity:0.7;stroke:#fca108;stroke-linecap:square;stroke-width:2;"/>
   </g>
   <g id="line2d_9">
    <path clip-path="url(#p91dc05805a)" d="M 19.307273 191.826957 
L 61.869762 191.826957 
L 62.214398 175.375565 
L 62.559034 163.111754 
L 63.075987 136.325375 
L 64.454529 59.880308 
L 64.971482 42.600062 
L 65.488436 32.455933 
L 65.833071 28.917077 
L 66.177707 27.357269 
L 66.350025 27.166087 
L 66.522342 27.292718 
L 66.866978 28.301832 
L 67.383931 31.085106 
L 70.313333 49.665086 
L 71.174922 53.010815 
L 72.036511 55.428426 
L 72.8981 57.152732 
L 73.759689 58.389031 
L 74.793595 59.447576 
L 75.99982 60.327326 
L 77.55068 61.16232 
L 79.963129 62.17423 
L 87.372793 64.846489 
L 97.884177 68.423884 
L 108.740197 71.88252 
L 120.11317 75.269724 
L 132.003096 78.574362 
L 144.409975 81.788223 
L 146.477789 82.41233 
L 146.994742 82.79595 
L 147.339378 83.323075 
L 147.684013 84.362999 
L 148.028649 86.444572 
L 148.373284 90.455832 
L 148.71792 97.521054 
L 149.234873 115.258637 
L 150.613415 178.855348 
L 150.785733 191.826957 
L 191.452727 191.826957 
L 191.452727 191.826957 
" style="fill:none;opacity:0.7;stroke:#fac42a;stroke-linecap:square;stroke-width:2;"/>
   </g>
   <g id="line2d_10">
    <path clip-path="url(#p91dc05805a)" d="M 19.307273 191.826957 
L 63.59294 191.826957 
L 63.765258 100.208287 
L 64.454529 64.717304 
L 64.971482 46.101187 
L 65.488436 34.56238 
L 65.833071 30.177852 
L 66.177707 27.871949 
L 66.522342 27.166087 
L 66.69466 27.27711 
L 67.039296 28.191004 
L 67.556249 30.714777 
L 70.313333 46.523691 
L 71.174922 49.542693 
L 72.036511 51.646429 
L 72.725782 52.821222 
L 73.587371 53.827247 
L 74.44896 54.472805 
L 75.482867 54.94057 
L 76.689091 55.234989 
L 78.584586 55.429566 
L 81.686306 55.47837 
L 146.305471 55.590128 
L 146.822424 55.84745 
L 147.16706 56.29318 
L 147.511695 57.26084 
L 147.856331 59.304006 
L 148.200966 63.392937 
L 148.545602 70.861332 
L 148.890238 82.829815 
L 149.234873 99.290426 
L 149.407191 191.826957 
L 191.452727 191.826957 
L 191.452727 191.826957 
" style="fill:none;opacity:0.7;stroke:#f6d746;stroke-linecap:square;stroke-width:2;"/>
   </g>
   <g id="patch_3">
    <path d="M 10.7 200.06 
L 10.7 10.7 
" style="fill:none;stroke:#000000;stroke-linecap:square;stroke-linejoin:miter;stroke-width:0.8;"/>
   </g>
   <g id="patch_4">
    <path d="M 200.06 200.06 
L 200.06 10.7 
" style="fill:none;stroke:#000000;stroke-linecap:square;stroke-linejoin:miter;stroke-width:0.8;"/>
   </g>
   <g id="patch_5">
    <path d="M 10.7 200.06 
L 200.06 200.06 
" style="fill:none;stroke:#000000;stroke-linecap:square;stroke-linejoin:miter;stroke-width:0.8;"/>
   </g>
   <g id="patch_6">
    <path d="M 10.7 10.7 
L 200.06 10.7 
" style="fill:none;stroke:#000000;stroke-linecap:square;stroke-linejoin:miter;stroke-width:0.8;"/>
   </g>
  </g>
 </g>
 <defs>
  <clipPath id="p91dc05805a">
   <rect height="189.36" width="189.36" x="10.7" y="10.7"/>
  </clipPath>
 </defs>
</svg>
