<?xml version="1.0" encoding="utf-8" standalone="no"?>
<!DOCTYPE svg PUBLIC "-//W3C//DTD SVG 1.1//EN"
  "http://www.w3.org/Graphics/SVG/1.1/DTD/svg11.dtd">
<!-- Created with matplotlib (http://matplotlib.org/) -->
<svg height="210pt" version="1.1" viewBox="0 0 210 210" width="210pt" xmlns="http://www.w3.org/2000/svg" xmlns:xlink="http://www.w3.org/1999/xlink">
 <defs>
  <style type="text/css">
*{stroke-linecap:butt;stroke-linejoin:round;}
  </style>
 </defs>
 <g id="figure_1">
  <g id="patch_1">
   <path d="M 0 210.76 
L 210.76 210.76 
L 210.76 0 
L 0 0 
z
" style="fill:#ffffff;"/>
  </g>
  <g id="axes_1">
   <g id="patch_2">
    <path d="M 10.7 200.06 
L 200.06 200.06 
L 200.06 10.7 
L 10.7 10.7 
z
" style="fill:#ffffff;"/>
   </g>
   <g id="matplotlib.axis_1"/>
   <g id="matplotlib.axis_2"/>
   <g id="line2d_1">
    <path clip-path="url(#p24a7a84583)" d="M 19.307273 197.005806 
L 63.248305 197.005806 
L 63.420622 192.813307 
L 64.626847 186.679452 
L 65.660753 181.925824 
L 66.350025 179.565051 
L 67.039296 177.905217 
L 67.728567 176.88176 
L 68.24552 176.469402 
L 68.762473 176.307623 
L 69.279427 176.348974 
L 69.968698 176.645044 
L 70.830287 177.278466 
L 72.381147 178.764528 
L 74.793595 181.056828 
L 76.344455 182.233271 
L 77.895315 183.137235 
L 79.618493 183.86197 
L 81.513989 184.396026 
L 83.75412 184.782019 
L 86.683522 185.047373 
L 91.163784 185.208481 
L 100.985897 185.285103 
L 147.511695 185.513416 
L 148.028649 185.701143 
L 148.373284 185.988947 
L 148.71792 186.506778 
L 149.234873 187.871518 
L 149.924144 190.742468 
L 150.441097 193.336523 
L 150.613415 197.005806 
L 191.452727 197.005806 
L 191.452727 197.005806 
" style="fill:none;opacity:0.7;stroke:#000004;stroke-linecap:square;stroke-width:2;"/>
   </g>
   <g id="line2d_2">
    <path clip-path="url(#p24a7a84583)" d="M 19.307273 197.005806 
L 60.49122 197.005806 
L 60.835856 191.206979 
L 61.180491 186.035874 
L 61.697445 173.060216 
L 62.386716 147.230805 
L 64.282211 69.679932 
L 64.971482 49.834636 
L 65.660753 35.885562 
L 66.177707 28.985087 
L 66.69466 24.739223 
L 67.039296 23.183249 
L 67.383931 22.505283 
L 67.556249 22.458612 
L 67.728567 22.587815 
L 68.073202 23.319505 
L 68.590156 25.409805 
L 69.279427 29.574325 
L 70.313333 37.571063 
L 73.587371 64.119522 
L 74.793595 71.918483 
L 75.99982 78.31556 
L 77.206044 83.416225 
L 78.239951 86.891743 
L 79.273857 89.671816 
L 80.307764 91.877276 
L 81.341671 93.61714 
L 82.547895 95.18336 
L 83.75412 96.366986 
L 85.132662 97.37538 
L 86.683522 98.200492 
L 88.406699 98.862504 
L 90.64683 99.48105 
L 93.920868 100.136993 
L 98.745766 100.868307 
L 108.912514 102.465838 
L 118.906945 104.262283 
L 128.729058 106.252142 
L 138.723489 108.503466 
L 146.994742 110.567817 
L 147.684013 110.885713 
L 148.028649 111.19061 
L 148.373284 111.750571 
L 148.71792 112.835176 
L 149.062555 114.914141 
L 149.407191 118.637865 
L 149.751826 124.613112 
L 150.26878 138.15411 
L 151.130369 168.990413 
L 151.81964 197.005806 
L 191.452727 197.005806 
L 191.452727 197.005806 
" style="fill:none;opacity:0.7;stroke:#050417;stroke-linecap:square;stroke-width:2;"/>
   </g>
   <g id="line2d_3">
    <path clip-path="url(#p24a7a84583)" d="M 19.307273 197.005806 
L 64.454529 197.005806 
L 64.626847 193.192341 
L 65.660753 191.361084 
L 66.522342 190.258977 
L 67.211613 189.675587 
L 67.900885 189.327762 
L 68.762473 189.160871 
L 69.79638 189.242977 
L 71.174922 189.629762 
L 76.861409 191.523968 
L 79.273857 191.97135 
L 82.20326 192.275166 
L 86.338886 192.457298 
L 94.265504 192.534188 
L 141.997527 192.538741 
L 147.856331 192.617451 
L 148.545602 192.864471 
L 149.062555 193.319271 
L 149.234873 197.005806 
L 191.452727 197.005806 
L 191.452727 197.005806 
" style="fill:none;opacity:0.7;stroke:#110a30;stroke-linecap:square;stroke-width:2;"/>
   </g>
   <g id="line2d_4">
    <path clip-path="url(#p24a7a84583)" d="M 19.307273 197.005806 
L 63.248305 197.005806 
L 63.420622 192.8564 
L 64.626847 186.780886 
L 65.660753 182.071454 
L 66.350025 179.732296 
L 67.039296 178.087419 
L 67.728567 177.072929 
L 68.24552 176.663975 
L 68.762473 176.503269 
L 69.279427 176.543812 
L 69.968698 176.836585 
L 70.830287 177.463484 
L 72.381147 178.93473 
L 74.793595 181.204485 
L 76.344455 182.369355 
L 77.895315 183.264365 
L 79.618493 183.981819 
L 81.513989 184.510367 
L 83.75412 184.892178 
L 86.683522 185.154329 
L 91.336102 185.316066 
L 101.50285 185.388021 
L 147.511695 185.602955 
L 148.028649 185.789277 
L 148.373284 186.074993 
L 148.71792 186.589056 
L 149.234873 187.943673 
L 149.924144 190.792747 
L 150.26878 192.491119 
L 150.441097 197.005806 
L 191.452727 197.005806 
L 191.452727 197.005806 
" style="fill:none;opacity:0.7;stroke:#210c4a;stroke-linecap:square;stroke-width:2;"/>
   </g>
   <g id="line2d_5">
    <path clip-path="url(#p24a7a84583)" d="M 19.307273 197.005806 
L 63.075987 197.005806 
L 63.248305 193.327874 
L 64.109894 188.886187 
L 65.488436 181.720767 
L 66.350025 178.478529 
L 67.039296 176.721915 
L 67.728567 175.640545 
L 68.24552 175.206302 
L 68.762473 175.037755 
L 69.279427 175.084531 
L 69.968698 175.40221 
L 70.830287 176.078203 
L 72.381147 177.660769 
L 74.793595 180.099772 
L 76.344455 181.351516 
L 77.895315 182.313765 
L 79.446175 183.020897 
L 81.169353 183.570012 
L 83.237166 183.992958 
L 85.994251 184.305957 
L 89.957559 184.50297 
L 97.539541 184.613134 
L 147.684013 184.982295 
L 148.200966 185.26191 
L 148.545602 185.67139 
L 148.890238 186.367208 
L 149.407191 188.05717 
L 150.096462 191.30414 
L 150.441097 193.142556 
L 150.613415 197.005806 
L 191.452727 197.005806 
L 191.452727 197.005806 
" style="fill:none;opacity:0.7;stroke:#340a5f;stroke-linecap:square;stroke-width:2;"/>
   </g>
   <g id="line2d_6">
    <path clip-path="url(#p24a7a84583)" d="M 19.307273 197.005806 
L 60.49122 197.005806 
L 60.835856 191.206979 
L 61.180491 186.035874 
L 61.697445 173.060216 
L 62.386716 147.230805 
L 64.282211 69.679932 
L 64.971482 49.834636 
L 65.660753 35.885562 
L 66.177707 28.985087 
L 66.69466 24.739223 
L 67.039296 23.183249 
L 67.383931 22.505283 
L 67.556249 22.458612 
L 67.728567 22.587815 
L 68.073202 23.319505 
L 68.590156 25.409805 
L 69.279427 29.574325 
L 70.313333 37.571063 
L 73.587371 64.119522 
L 74.793595 71.918483 
L 75.99982 78.31556 
L 77.206044 83.416225 
L 78.239951 86.891743 
L 79.273857 89.671816 
L 80.307764 91.877276 
L 81.341671 93.61714 
L 82.547895 95.18336 
L 83.75412 96.366986 
L 85.132662 97.37538 
L 86.683522 98.200492 
L 88.406699 98.862504 
L 90.64683 99.48105 
L 93.920868 100.136993 
L 98.745766 100.868307 
L 108.912514 102.465838 
L 118.906945 104.262283 
L 128.729058 106.252142 
L 138.723489 108.503466 
L 146.994742 110.567817 
L 147.684013 110.885713 
L 148.028649 111.19061 
L 148.373284 111.750571 
L 148.71792 112.835176 
L 149.062555 114.914141 
L 149.407191 118.637865 
L 149.751826 124.613112 
L 150.26878 138.15411 
L 151.130369 168.990413 
L 151.81964 197.005806 
L 191.452727 197.005806 
L 191.452727 197.005806 
" style="fill:none;opacity:0.7;stroke:#450a69;stroke-linecap:square;stroke-width:2;"/>
   </g>
   <g id="line2d_7">
    <path clip-path="url(#p24a7a84583)" d="M 19.307273 197.005806 
L 64.971482 197.005806 
L 65.1438 193.103796 
L 66.177707 191.815227 
L 67.039296 191.115883 
L 67.900885 190.729155 
L 68.762473 190.591409 
L 69.79638 190.658048 
L 71.34724 191.02442 
L 76.689091 192.495132 
L 79.273857 192.895742 
L 82.547895 193.164494 
L 87.372793 193.31251 
L 89.957559 193.340009 
L 90.129877 197.005806 
L 191.452727 197.005806 
L 191.452727 197.005806 
" style="fill:none;opacity:0.7;stroke:#57106e;stroke-linecap:square;stroke-width:2;"/>
   </g>
   <g id="line2d_8">
    <path clip-path="url(#p24a7a84583)" d="M 19.307273 197.005806 
L 64.799165 197.005806 
L 64.971482 193.320258 
L 66.005389 191.940382 
L 66.866978 191.164816 
L 67.728567 190.715328 
L 68.590156 190.53146 
L 69.624062 190.563047 
L 71.002604 190.859344 
L 77.55068 192.603573 
L 80.307764 192.959 
L 83.926437 193.184793 
L 89.785242 193.297617 
L 107.70629 193.320605 
L 147.16706 193.334504 
L 147.339378 197.005806 
L 191.452727 197.005806 
L 191.452727 197.005806 
" style="fill:none;opacity:0.7;stroke:#69166e;stroke-linecap:square;stroke-width:2;"/>
   </g>
   <g id="line2d_9">
    <path clip-path="url(#p24a7a84583)" d="M 19.307273 197.005806 
L 63.075987 197.005806 
L 63.248305 192.991909 
L 64.109894 188.17799 
L 65.488436 180.43002 
L 66.350025 176.930261 
L 67.039296 175.036981 
L 67.556249 174.102623 
L 68.073202 173.52971 
L 68.590156 173.262635 
L 69.107109 173.245982 
L 69.624062 173.42782 
L 70.313333 173.899251 
L 71.34724 174.913942 
L 75.655184 179.537412 
L 77.206044 180.720074 
L 78.756904 181.605716 
L 80.307764 182.245355 
L 82.20326 182.775394 
L 84.443391 183.158433 
L 87.545111 183.436358 
L 92.370008 183.610916 
L 103.570663 183.730033 
L 147.511695 184.139238 
L 148.028649 184.348412 
L 148.373284 184.667997 
L 148.71792 185.243194 
L 149.234873 186.762425 
L 149.924144 189.968406 
L 150.441097 192.871375 
L 150.613415 197.005806 
L 191.452727 197.005806 
L 191.452727 197.005806 
" style="fill:none;opacity:0.7;stroke:#7a1d6d;stroke-linecap:square;stroke-width:2;"/>
   </g>
   <g id="line2d_10">
    <path clip-path="url(#p24a7a84583)" d="M 19.307273 197.005806 
L 64.109894 197.005806 
L 64.282211 193.019564 
L 65.488436 190.185063 
L 66.350025 188.691455 
L 67.039296 187.876649 
L 67.728567 187.37009 
L 68.417838 187.121858 
L 69.279427 187.090993 
L 70.313333 187.332993 
L 71.864193 187.987724 
L 75.482867 189.604447 
L 77.55068 190.251225 
L 79.790811 190.713187 
L 82.547895 191.038111 
L 86.338886 191.237886 
L 93.059279 191.330229 
L 120.802441 191.340508 
L 147.856331 191.438713 
L 148.373284 191.63206 
L 148.890238 192.087235 
L 149.407191 192.901342 
L 149.579509 193.247891 
L 149.751826 197.005806 
L 191.452727 197.005806 
L 191.452727 197.005806 
" style="fill:none;opacity:0.7;stroke:#8c2369;stroke-linecap:square;stroke-width:2;"/>
   </g>
   <g id="line2d_11">
    <path clip-path="url(#p24a7a84583)" d="M 19.307273 197.005806 
L 61.869762 197.005806 
L 62.214398 190.946355 
L 62.731351 183.532211 
L 63.420622 168.534741 
L 65.316118 122.981754 
L 66.005389 111.336106 
L 66.69466 103.204542 
L 67.211613 99.232178 
L 67.728567 96.845999 
L 68.073202 96.017005 
L 68.417838 95.712774 
L 68.762473 95.862997 
L 69.107109 96.401019 
L 69.624062 97.800761 
L 70.313333 100.488417 
L 71.34724 105.559592 
L 74.621278 122.280924 
L 75.99982 127.864582 
L 77.206044 131.841993 
L 78.412269 135.046023 
L 79.618493 137.588755 
L 80.824717 139.589987 
L 82.030942 141.161293 
L 83.237166 142.399046 
L 84.615708 143.506213 
L 86.166568 144.468845 
L 88.062064 145.371489 
L 90.474513 146.254298 
L 93.920868 147.247609 
L 98.745766 148.394784 
L 111.324963 151.074694 
L 124.248796 153.601242 
L 137.689582 155.999383 
L 147.339378 157.727135 
L 147.856331 158.122937 
L 148.200966 158.691419 
L 148.545602 159.758261 
L 148.890238 161.628099 
L 149.234873 164.563501 
L 149.751826 171.055389 
L 150.785733 188.516601 
L 150.958051 191.544828 
L 151.130369 197.005806 
L 191.452727 197.005806 
L 191.452727 197.005806 
" style="fill:none;opacity:0.7;stroke:#9b2964;stroke-linecap:square;stroke-width:2;"/>
   </g>
   <g id="line2d_12">
    <path clip-path="url(#p24a7a84583)" d="M 19.307273 197.005806 
L 63.420622 197.005806 
L 63.59294 193.122371 
L 66.005389 184.135394 
L 66.69466 182.538196 
L 67.383931 181.475868 
L 68.073202 180.878328 
L 68.590156 180.682038 
L 69.279427 180.683981 
L 69.968698 180.91144 
L 71.002604 181.522918 
L 73.070418 183.114908 
L 75.138231 184.598261 
L 76.861409 185.559285 
L 78.584586 186.262562 
L 80.480082 186.791211 
L 82.720213 187.177848 
L 85.649615 187.443471 
L 90.129877 187.598008 
L 99.607355 187.648678 
L 147.684013 187.754637 
L 148.200966 187.97414 
L 148.545602 188.295764 
L 148.890238 188.840587 
L 149.407191 190.156658 
L 150.096462 192.669539 
L 150.26878 197.005806 
L 191.452727 197.005806 
L 191.452727 197.005806 
" style="fill:none;opacity:0.7;stroke:#ad305d;stroke-linecap:square;stroke-width:2;"/>
   </g>
   <g id="line2d_13">
    <path clip-path="url(#p24a7a84583)" d="M 19.307273 197.005806 
L 63.420622 197.005806 
L 63.59294 193.107899 
L 66.005389 184.089756 
L 66.69466 182.487111 
L 67.383931 181.42119 
L 68.073202 180.821658 
L 68.590156 180.62474 
L 69.279427 180.626747 
L 69.968698 180.85504 
L 71.002604 181.468684 
L 73.070418 183.066236 
L 75.138231 184.554738 
L 76.861409 185.519088 
L 78.584586 186.224796 
L 80.480082 186.755269 
L 82.720213 187.143241 
L 85.649615 187.409779 
L 90.129877 187.564848 
L 99.607355 187.615693 
L 147.684013 187.721985 
L 148.200966 187.942188 
L 148.545602 188.26485 
L 148.890238 188.811463 
L 149.407191 190.131951 
L 150.096462 192.653452 
L 150.26878 197.005806 
L 191.452727 197.005806 
L 191.452727 197.005806 
" style="fill:none;opacity:0.7;stroke:#bd3853;stroke-linecap:square;stroke-width:2;"/>
   </g>
   <g id="line2d_14">
    <path clip-path="url(#p24a7a84583)" d="M 19.307273 197.005806 
L 61.525127 197.005806 
L 61.869762 191.488529 
L 62.214398 186.904843 
L 62.731351 176.132122 
L 63.59294 150.638466 
L 64.971482 108.958451 
L 65.833071 90.048308 
L 66.522342 79.844116 
L 67.039296 74.84326 
L 67.556249 71.822205 
L 67.900885 70.759461 
L 68.24552 70.352303 
L 68.417838 70.367033 
L 68.762473 70.78036 
L 69.107109 71.639121 
L 69.624062 73.601726 
L 70.313333 77.139458 
L 71.519558 84.710669 
L 74.104324 101.234801 
L 75.482867 108.511675 
L 76.689091 113.745218 
L 77.895315 117.985781 
L 79.10154 121.363495 
L 80.307764 124.027001 
L 81.513989 126.119133 
L 82.720213 127.765559 
L 84.098755 129.234811 
L 85.477297 130.381599 
L 87.200475 131.500831 
L 89.268288 132.546109 
L 91.853055 133.590033 
L 95.644046 134.865942 
L 101.50285 136.576146 
L 115.288272 140.398936 
L 128.212105 143.752271 
L 140.791302 146.787252 
L 147.16706 148.337641 
L 147.684013 148.678567 
L 148.028649 149.135368 
L 148.373284 149.995603 
L 148.71792 151.579288 
L 149.062555 154.268125 
L 149.579509 160.891776 
L 150.26878 173.883232 
L 151.302686 197.005806 
L 191.452727 197.005806 
L 191.452727 197.005806 
" style="fill:none;opacity:0.7;stroke:#cc4248;stroke-linecap:square;stroke-width:2;"/>
   </g>
   <g id="line2d_15">
    <path clip-path="url(#p24a7a84583)" d="M 19.307273 197.005806 
L 62.731351 197.005806 
L 62.903669 192.556493 
L 63.420622 188.649814 
L 66.177707 165.113614 
L 66.866978 161.829488 
L 67.383931 160.177153 
L 67.900885 159.135052 
L 68.417838 158.613491 
L 68.762473 158.509818 
L 69.279427 158.655419 
L 69.79638 159.090642 
L 70.485651 159.998423 
L 71.519558 161.783598 
L 75.138231 168.381159 
L 76.516773 170.307823 
L 77.895315 171.830386 
L 79.273857 172.996551 
L 80.6524 173.871077 
L 82.20326 174.586063 
L 83.926437 175.13802 
L 86.166568 175.603485 
L 89.095971 175.964714 
L 93.74855 176.283389 
L 103.226028 176.665985 
L 139.585078 177.882562 
L 147.339378 178.204194 
L 147.856331 178.414588 
L 148.200966 178.73833 
L 148.545602 179.348387 
L 148.890238 180.391213 
L 149.407191 182.955967 
L 150.096462 187.95828 
L 150.613415 192.26511 
L 150.785733 197.005806 
L 191.452727 197.005806 
L 191.452727 197.005806 
" style="fill:none;opacity:0.7;stroke:#d94d3d;stroke-linecap:square;stroke-width:2;"/>
   </g>
   <g id="line2d_16">
    <path clip-path="url(#p24a7a84583)" d="M 19.307273 197.005806 
L 63.420622 197.005806 
L 63.59294 193.122371 
L 66.005389 184.135394 
L 66.69466 182.538196 
L 67.383931 181.475868 
L 68.073202 180.878328 
L 68.590156 180.682038 
L 69.279427 180.683981 
L 69.968698 180.91144 
L 71.002604 181.522918 
L 73.070418 183.114908 
L 75.138231 184.598261 
L 76.861409 185.559285 
L 78.584586 186.262562 
L 80.480082 186.791211 
L 82.720213 187.177848 
L 85.649615 187.443471 
L 90.129877 187.598008 
L 99.607355 187.648678 
L 147.684013 187.754637 
L 148.200966 187.97414 
L 148.545602 188.295764 
L 148.890238 188.840587 
L 149.407191 190.156658 
L 150.096462 192.669539 
L 150.26878 197.005806 
L 191.452727 197.005806 
L 191.452727 197.005806 
" style="fill:none;opacity:0.7;stroke:#e55c30;stroke-linecap:square;stroke-width:2;"/>
   </g>
   <g id="line2d_17">
    <path clip-path="url(#p24a7a84583)" d="M 19.307273 197.005806 
L 63.765258 197.005806 
L 63.937576 192.88975 
L 65.660753 187.629893 
L 66.522342 185.829265 
L 67.211613 184.878405 
L 67.900885 184.313472 
L 68.590156 184.066246 
L 69.279427 184.06511 
L 70.141016 184.30974 
L 71.34724 184.924142 
L 75.99982 187.579305 
L 77.895315 188.292974 
L 79.963129 188.817094 
L 82.375577 189.185287 
L 85.649615 189.433748 
L 90.819148 189.565323 
L 103.742981 189.597124 
L 147.684013 189.682927 
L 148.200966 189.86032 
L 148.71792 190.313113 
L 149.234873 191.207176 
L 149.924144 193.068557 
L 150.096462 197.005806 
L 191.452727 197.005806 
L 191.452727 197.005806 
" style="fill:none;opacity:0.7;stroke:#ef6c23;stroke-linecap:square;stroke-width:2;"/>
   </g>
   <g id="line2d_18">
    <path clip-path="url(#p24a7a84583)" d="M 19.307273 197.005806 
L 63.937576 197.005806 
L 64.109894 193.117776 
L 65.488436 189.550748 
L 66.350025 187.922995 
L 67.039296 187.035365 
L 67.728567 186.483826 
L 68.417838 186.213882 
L 69.107109 186.165351 
L 69.968698 186.329741 
L 71.174922 186.815218 
L 76.689091 189.365633 
L 78.756904 189.929348 
L 81.169353 190.338445 
L 84.271073 190.612282 
L 88.923653 190.765815 
L 99.090401 190.816228 
L 147.856331 190.92282 
L 148.373284 191.132821 
L 148.890238 191.62775 
L 149.407191 192.514067 
L 149.751826 193.301931 
L 149.924144 197.005806 
L 191.452727 197.005806 
L 191.452727 197.005806 
" style="fill:none;opacity:0.7;stroke:#f67e14;stroke-linecap:square;stroke-width:2;"/>
   </g>
   <g id="line2d_19">
    <path clip-path="url(#p24a7a84583)" d="M 19.307273 197.005806 
L 61.525127 197.005806 
L 61.869762 191.579493 
L 62.214398 187.054969 
L 62.731351 176.392445 
L 63.59294 151.081862 
L 64.971482 109.598976 
L 65.833071 90.750589 
L 66.522342 80.569749 
L 67.039296 75.574759 
L 67.556249 72.551874 
L 67.900885 71.48453 
L 68.24552 71.07062 
L 68.417838 71.081299 
L 68.762473 71.485414 
L 69.107109 72.333765 
L 69.624062 74.279156 
L 70.313333 77.792232 
L 71.519558 85.319576 
L 74.104324 101.763038 
L 75.482867 109.007825 
L 76.689091 114.21925 
L 77.895315 118.44245 
L 79.10154 121.806696 
L 80.307764 124.459818 
L 81.513989 126.543947 
L 82.720213 128.184169 
L 84.098755 129.647944 
L 85.477297 130.790473 
L 87.200475 131.905518 
L 89.268288 132.946779 
L 91.853055 133.986462 
L 95.644046 135.256697 
L 101.50285 136.95824 
L 115.115954 140.711634 
L 128.039787 144.043811 
L 140.618984 147.057537 
L 147.16706 148.63525 
L 147.684013 148.975035 
L 148.028649 149.430838 
L 148.373284 150.28942 
L 148.71792 151.869606 
L 149.062555 154.550685 
L 149.579509 161.148159 
L 150.26878 174.072575 
L 151.302686 197.005806 
L 191.452727 197.005806 
L 191.452727 197.005806 
" style="fill:none;opacity:0.7;stroke:#fa9207;stroke-linecap:square;stroke-width:2;"/>
   </g>
   <g id="line2d_20">
    <path clip-path="url(#p24a7a84583)" d="M 19.307273 197.005806 
L 65.316118 197.005806 
L 65.488436 193.294666 
L 66.350025 192.465082 
L 67.211613 191.925931 
L 68.073202 191.643346 
L 69.107109 191.563206 
L 70.313333 191.703133 
L 72.553464 192.247441 
L 75.99982 193.060596 
L 77.55068 193.317132 
L 77.722998 197.005806 
L 191.452727 197.005806 
L 191.452727 197.005806 
" style="fill:none;opacity:0.7;stroke:#fca50a;stroke-linecap:square;stroke-width:2;"/>
   </g>
   <g id="patch_3">
    <path d="M 10.7 200.06 
L 10.7 10.7 
" style="fill:none;stroke:#000000;stroke-linecap:square;stroke-linejoin:miter;stroke-width:0.8;"/>
   </g>
   <g id="patch_4">
    <path d="M 200.06 200.06 
L 200.06 10.7 
" style="fill:none;stroke:#000000;stroke-linecap:square;stroke-linejoin:miter;stroke-width:0.8;"/>
   </g>
   <g id="patch_5">
    <path d="M 10.7 200.06 
L 200.06 200.06 
" style="fill:none;stroke:#000000;stroke-linecap:square;stroke-linejoin:miter;stroke-width:0.8;"/>
   </g>
   <g id="patch_6">
    <path d="M 10.7 10.7 
L 200.06 10.7 
" style="fill:none;stroke:#000000;stroke-linecap:square;stroke-linejoin:miter;stroke-width:0.8;"/>
   </g>
  </g>
 </g>
 <defs>
  <clipPath id="p24a7a84583">
   <rect height="189.36" width="189.36" x="10.7" y="10.7"/>
  </clipPath>
 </defs>
</svg>
