<?xml version="1.0" encoding="utf-8" standalone="no"?>
<!DOCTYPE svg PUBLIC "-//W3C//DTD SVG 1.1//EN"
  "http://www.w3.org/Graphics/SVG/1.1/DTD/svg11.dtd">
<!-- Created with matplotlib (http://matplotlib.org/) -->
<svg height="210pt" version="1.1" viewBox="0 0 210 210" width="210pt" xmlns="http://www.w3.org/2000/svg" xmlns:xlink="http://www.w3.org/1999/xlink">
 <defs>
  <style type="text/css">
*{stroke-linecap:butt;stroke-linejoin:round;}
  </style>
 </defs>
 <g id="figure_1">
  <g id="patch_1">
   <path d="M 0 210.76 
L 210.76 210.76 
L 210.76 0 
L 0 0 
z
" style="fill:#ffffff;"/>
  </g>
  <g id="axes_1">
   <g id="patch_2">
    <path d="M 10.7 200.06 
L 200.06 200.06 
L 200.06 10.7 
L 10.7 10.7 
z
" style="fill:#ffffff;"/>
   </g>
   <g id="matplotlib.axis_1"/>
   <g id="matplotlib.axis_2"/>
   <g id="line2d_1">
    <path clip-path="url(#p850a44f3fb)" d="M 19.307273 197.005806 
L 191.452727 197.005806 
L 191.452727 197.005806 
" style="fill:none;opacity:0.7;stroke:#000004;stroke-linecap:square;stroke-width:2;"/>
   </g>
   <g id="line2d_2">
    <path clip-path="url(#p850a44f3fb)" d="M 19.307273 197.005806 
L 60.835856 197.005806 
L 61.180491 191.46884 
L 61.525127 185.856247 
L 61.869762 176.428329 
L 62.386716 154.602111 
L 63.937576 80.197448 
L 64.454529 65.961519 
L 64.971482 57.814994 
L 65.316118 55.092813 
L 65.660753 54.015513 
L 65.833071 53.962502 
L 66.005389 54.16996 
L 66.350025 55.199936 
L 66.866978 57.76384 
L 69.451744 72.555432 
L 70.313333 75.81774 
L 71.174922 78.208323 
L 72.036511 79.93121 
L 72.8981 81.177099 
L 73.932007 82.253076 
L 75.138231 83.157001 
L 76.689091 84.028164 
L 79.273857 85.186433 
L 101.158215 94.285505 
L 136.138722 109.035295 
L 146.994742 113.542804 
L 147.511695 114.101958 
L 147.856331 114.84577 
L 148.200966 116.267377 
L 148.545602 118.980524 
L 148.890238 123.831553 
L 149.234873 131.535351 
L 149.751826 148.181042 
L 151.130369 197.005806 
L 191.452727 197.005806 
L 191.452727 197.005806 
" style="fill:none;opacity:0.7;stroke:#050417;stroke-linecap:square;stroke-width:2;"/>
   </g>
   <g id="line2d_3">
    <path clip-path="url(#p850a44f3fb)" d="M 19.307273 197.005806 
L 191.452727 197.005806 
L 191.452727 197.005806 
" style="fill:none;opacity:0.7;stroke:#110a30;stroke-linecap:square;stroke-width:2;"/>
   </g>
   <g id="line2d_4">
    <path clip-path="url(#p850a44f3fb)" d="M 19.307273 197.005806 
L 191.452727 197.005806 
L 191.452727 197.005806 
" style="fill:none;opacity:0.7;stroke:#210c4a;stroke-linecap:square;stroke-width:2;"/>
   </g>
   <g id="line2d_5">
    <path clip-path="url(#p850a44f3fb)" d="M 19.307273 197.005806 
L 65.488436 197.005806 
L 65.660753 193.286008 
L 66.350025 193.165164 
L 67.383931 193.224824 
L 68.073202 193.329254 
L 68.24552 197.005806 
L 191.452727 197.005806 
L 191.452727 197.005806 
" style="fill:none;opacity:0.7;stroke:#340a5f;stroke-linecap:square;stroke-width:2;"/>
   </g>
   <g id="line2d_6">
    <path clip-path="url(#p850a44f3fb)" d="M 19.307273 197.005806 
L 60.835856 197.005806 
L 61.180491 191.46884 
L 61.525127 185.856247 
L 61.869762 176.428329 
L 62.386716 154.602111 
L 63.937576 80.197448 
L 64.454529 65.961519 
L 64.971482 57.814994 
L 65.316118 55.092813 
L 65.660753 54.015513 
L 65.833071 53.962502 
L 66.005389 54.16996 
L 66.350025 55.199936 
L 66.866978 57.76384 
L 69.451744 72.555432 
L 70.313333 75.81774 
L 71.174922 78.208323 
L 72.036511 79.93121 
L 72.8981 81.177099 
L 73.932007 82.253076 
L 75.138231 83.157001 
L 76.689091 84.028164 
L 79.273857 85.186433 
L 101.158215 94.285505 
L 136.138722 109.035295 
L 146.994742 113.542804 
L 147.511695 114.101958 
L 147.856331 114.84577 
L 148.200966 116.267377 
L 148.545602 118.980524 
L 148.890238 123.831553 
L 149.234873 131.535351 
L 149.751826 148.181042 
L 151.130369 197.005806 
L 191.452727 197.005806 
L 191.452727 197.005806 
" style="fill:none;opacity:0.7;stroke:#450a69;stroke-linecap:square;stroke-width:2;"/>
   </g>
   <g id="line2d_7">
    <path clip-path="url(#p850a44f3fb)" d="M 19.307273 197.005806 
L 191.452727 197.005806 
L 191.452727 197.005806 
" style="fill:none;opacity:0.7;stroke:#57106e;stroke-linecap:square;stroke-width:2;"/>
   </g>
   <g id="line2d_8">
    <path clip-path="url(#p850a44f3fb)" d="M 19.307273 197.005806 
L 191.452727 197.005806 
L 191.452727 197.005806 
" style="fill:none;opacity:0.7;stroke:#69166e;stroke-linecap:square;stroke-width:2;"/>
   </g>
   <g id="line2d_9">
    <path clip-path="url(#p850a44f3fb)" d="M 19.307273 197.005806 
L 64.799165 197.005806 
L 64.971482 193.315315 
L 65.660753 192.927177 
L 66.350025 192.795404 
L 67.383931 192.860779 
L 70.313333 193.321939 
L 70.485651 197.005806 
L 191.452727 197.005806 
L 191.452727 197.005806 
" style="fill:none;opacity:0.7;stroke:#7a1d6d;stroke-linecap:square;stroke-width:2;"/>
   </g>
   <g id="line2d_10">
    <path clip-path="url(#p850a44f3fb)" d="M 19.307273 197.005806 
L 191.452727 197.005806 
L 191.452727 197.005806 
" style="fill:none;opacity:0.7;stroke:#8c2369;stroke-linecap:square;stroke-width:2;"/>
   </g>
   <g id="line2d_11">
    <path clip-path="url(#p850a44f3fb)" d="M 19.307273 197.005806 
L 62.386716 197.005806 
L 62.559034 192.233315 
L 63.075987 187.248977 
L 64.454529 172.282457 
L 64.971482 168.76225 
L 65.488436 166.640884 
L 65.833071 165.868228 
L 66.177707 165.493599 
L 66.522342 165.422286 
L 66.866978 165.570869 
L 67.383931 166.057638 
L 68.934791 168.080464 
L 69.968698 169.225431 
L 71.002604 170.051387 
L 72.036511 170.604532 
L 73.242735 171.006961 
L 74.965913 171.317506 
L 77.722998 171.542354 
L 85.132662 171.8348 
L 123.731843 173.113786 
L 147.16706 173.921232 
L 147.684013 174.219148 
L 148.028649 174.691055 
L 148.373284 175.602481 
L 148.71792 177.195873 
L 149.234873 181.129211 
L 150.441097 193.317864 
L 150.613415 197.005806 
L 191.452727 197.005806 
L 191.452727 197.005806 
" style="fill:none;opacity:0.7;stroke:#9b2964;stroke-linecap:square;stroke-width:2;"/>
   </g>
   <g id="line2d_12">
    <path clip-path="url(#p850a44f3fb)" d="M 19.307273 197.005806 
L 191.452727 197.005806 
L 191.452727 197.005806 
" style="fill:none;opacity:0.7;stroke:#ad305d;stroke-linecap:square;stroke-width:2;"/>
   </g>
   <g id="line2d_13">
    <path clip-path="url(#p850a44f3fb)" d="M 19.307273 197.005806 
L 191.452727 197.005806 
L 191.452727 197.005806 
" style="fill:none;opacity:0.7;stroke:#bd3853;stroke-linecap:square;stroke-width:2;"/>
   </g>
   <g id="line2d_14">
    <path clip-path="url(#p850a44f3fb)" d="M 19.307273 197.005806 
L 62.04208 197.005806 
L 62.386716 190.56226 
L 62.903669 183.196338 
L 64.626847 154.4522 
L 65.1438 149.895308 
L 65.660753 147.407027 
L 66.005389 146.645148 
L 66.350025 146.417661 
L 66.69466 146.583852 
L 67.211613 147.316705 
L 68.073202 149.131757 
L 69.451744 152.019338 
L 70.485651 153.639749 
L 71.34724 154.614157 
L 72.381147 155.430095 
L 73.587371 156.047263 
L 74.965913 156.49045 
L 77.033726 156.903746 
L 80.997035 157.425828 
L 98.40113 159.339513 
L 117.356085 161.199956 
L 137.8619 162.986413 
L 146.994742 163.828017 
L 147.511695 164.122713 
L 147.856331 164.575273 
L 148.200966 165.469487 
L 148.545602 167.127632 
L 148.890238 169.873519 
L 149.407191 176.139294 
L 150.441097 191.239115 
L 150.613415 197.005806 
L 191.452727 197.005806 
L 191.452727 197.005806 
" style="fill:none;opacity:0.7;stroke:#cc4248;stroke-linecap:square;stroke-width:2;"/>
   </g>
   <g id="line2d_15">
    <path clip-path="url(#p850a44f3fb)" d="M 19.307273 197.005806 
L 63.59294 197.005806 
L 63.765258 192.999985 
L 64.626847 190.943323 
L 65.1438 190.162374 
L 65.660753 189.706894 
L 66.177707 189.504323 
L 66.866978 189.4937 
L 67.900885 189.745114 
L 70.485651 190.441979 
L 72.381147 190.687277 
L 75.310549 190.812895 
L 83.409484 190.841837 
L 147.511695 190.927599 
L 148.028649 191.10831 
L 148.545602 191.582946 
L 149.062555 192.534098 
L 149.234873 192.956205 
L 149.407191 197.005806 
L 191.452727 197.005806 
L 191.452727 197.005806 
" style="fill:none;opacity:0.7;stroke:#d94d3d;stroke-linecap:square;stroke-width:2;"/>
   </g>
   <g id="line2d_16">
    <path clip-path="url(#p850a44f3fb)" d="M 19.307273 197.005806 
L 191.452727 197.005806 
L 191.452727 197.005806 
" style="fill:none;opacity:0.7;stroke:#e55c30;stroke-linecap:square;stroke-width:2;"/>
   </g>
   <g id="line2d_17">
    <path clip-path="url(#p850a44f3fb)" d="M 19.307273 197.005806 
L 191.452727 197.005806 
L 191.452727 197.005806 
" style="fill:none;opacity:0.7;stroke:#ef6c23;stroke-linecap:square;stroke-width:2;"/>
   </g>
   <g id="line2d_18">
    <path clip-path="url(#p850a44f3fb)" d="M 19.307273 197.005806 
L 191.452727 197.005806 
L 191.452727 197.005806 
" style="fill:none;opacity:0.7;stroke:#f67e14;stroke-linecap:square;stroke-width:2;"/>
   </g>
   <g id="line2d_19">
    <path clip-path="url(#p850a44f3fb)" d="M 19.307273 197.005806 
L 62.04208 197.005806 
L 62.386716 190.676519 
L 62.903669 183.423372 
L 64.626847 155.049777 
L 65.1438 150.542842 
L 65.660753 148.078657 
L 66.005389 147.322103 
L 66.350025 147.093758 
L 66.69466 147.254677 
L 67.211613 147.974449 
L 68.073202 149.762114 
L 69.451744 152.60894 
L 70.485651 154.206675 
L 71.34724 155.167161 
L 72.381147 155.97094 
L 73.587371 156.578169 
L 74.965913 157.013295 
L 77.033726 157.417665 
L 80.997035 157.926168 
L 98.573448 159.805161 
L 117.873038 161.645555 
L 138.723489 163.408521 
L 146.994742 164.16253 
L 147.511695 164.454418 
L 147.856331 164.903226 
L 148.200966 165.790292 
L 148.545602 167.434978 
L 148.890238 170.157503 
L 149.407191 176.365885 
L 150.441097 191.313343 
L 150.613415 197.005806 
L 191.452727 197.005806 
L 191.452727 197.005806 
" style="fill:none;opacity:0.7;stroke:#fa9207;stroke-linecap:square;stroke-width:2;"/>
   </g>
   <g id="line2d_20">
    <path clip-path="url(#p850a44f3fb)" d="M 19.307273 197.005806 
L 191.452727 197.005806 
L 191.452727 197.005806 
" style="fill:none;opacity:0.7;stroke:#fca50a;stroke-linecap:square;stroke-width:2;"/>
   </g>
   <g id="patch_3">
    <path d="M 10.7 200.06 
L 10.7 10.7 
" style="fill:none;stroke:#000000;stroke-linecap:square;stroke-linejoin:miter;stroke-width:0.8;"/>
   </g>
   <g id="patch_4">
    <path d="M 200.06 200.06 
L 200.06 10.7 
" style="fill:none;stroke:#000000;stroke-linecap:square;stroke-linejoin:miter;stroke-width:0.8;"/>
   </g>
   <g id="patch_5">
    <path d="M 10.7 200.06 
L 200.06 200.06 
" style="fill:none;stroke:#000000;stroke-linecap:square;stroke-linejoin:miter;stroke-width:0.8;"/>
   </g>
   <g id="patch_6">
    <path d="M 10.7 10.7 
L 200.06 10.7 
" style="fill:none;stroke:#000000;stroke-linecap:square;stroke-linejoin:miter;stroke-width:0.8;"/>
   </g>
  </g>
 </g>
 <defs>
  <clipPath id="p850a44f3fb">
   <rect height="189.36" width="189.36" x="10.7" y="10.7"/>
  </clipPath>
 </defs>
</svg>
