<?xml version="1.0" encoding="utf-8" standalone="no"?>
<!DOCTYPE svg PUBLIC "-//W3C//DTD SVG 1.1//EN"
  "http://www.w3.org/Graphics/SVG/1.1/DTD/svg11.dtd">
<!-- Created with matplotlib (http://matplotlib.org/) -->
<svg height="210pt" version="1.1" viewBox="0 0 210 210" width="210pt" xmlns="http://www.w3.org/2000/svg" xmlns:xlink="http://www.w3.org/1999/xlink">
 <defs>
  <style type="text/css">
*{stroke-linecap:butt;stroke-linejoin:round;}
  </style>
 </defs>
 <g id="figure_1">
  <g id="patch_1">
   <path d="M 0 210.76 
L 210.76 210.76 
L 210.76 0 
L 0 0 
z
" style="fill:#ffffff;"/>
  </g>
  <g id="axes_1">
   <g id="patch_2">
    <path d="M 10.7 200.06 
L 200.06 200.06 
L 200.06 10.7 
L 10.7 10.7 
z
" style="fill:#ffffff;"/>
   </g>
   <g id="matplotlib.axis_1"/>
   <g id="matplotlib.axis_2"/>
   <g id="line2d_1">
    <path clip-path="url(#pca8262e297)" d="M 19.307273 197.005806 
L 61.525127 197.005806 
L 61.869762 191.340553 
L 62.214398 186.35608 
L 62.731351 174.176777 
L 64.454529 125.291297 
L 64.971482 117.404796 
L 65.488436 113.072816 
L 65.833071 111.735623 
L 66.177707 111.326569 
L 66.350025 111.393205 
L 66.69466 111.934216 
L 67.211613 113.433743 
L 70.141016 123.573725 
L 71.002604 125.444705 
L 71.864193 126.82238 
L 72.725782 127.830734 
L 73.759689 128.704832 
L 74.965913 129.434254 
L 76.689091 130.189454 
L 79.446175 131.116335 
L 87.200475 133.35465 
L 98.40113 136.381831 
L 109.774103 139.226316 
L 121.664029 141.968295 
L 133.898591 144.560284 
L 147.16706 147.343426 
L 147.511695 147.662608 
L 147.856331 148.273878 
L 148.200966 149.465696 
L 148.545602 151.691467 
L 148.890238 155.455549 
L 149.407191 164.353899 
L 150.958051 197.005806 
L 191.452727 197.005806 
L 191.452727 197.005806 
" style="fill:none;opacity:0.7;stroke:#000004;stroke-linecap:square;stroke-width:2;"/>
   </g>
   <g id="line2d_2">
    <path clip-path="url(#pca8262e297)" d="M 19.307273 197.005806 
L 191.452727 197.005806 
L 191.452727 197.005806 
" style="fill:none;opacity:0.7;stroke:#050417;stroke-linecap:square;stroke-width:2;"/>
   </g>
   <g id="line2d_3">
    <path clip-path="url(#pca8262e297)" d="M 19.307273 197.005806 
L 191.452727 197.005806 
L 191.452727 197.005806 
" style="fill:none;opacity:0.7;stroke:#110a30;stroke-linecap:square;stroke-width:2;"/>
   </g>
   <g id="line2d_4">
    <path clip-path="url(#pca8262e297)" d="M 19.307273 197.005806 
L 191.452727 197.005806 
L 191.452727 197.005806 
" style="fill:none;opacity:0.7;stroke:#210c4a;stroke-linecap:square;stroke-width:2;"/>
   </g>
   <g id="line2d_5">
    <path clip-path="url(#pca8262e297)" d="M 19.307273 197.005806 
L 191.452727 197.005806 
L 191.452727 197.005806 
" style="fill:none;opacity:0.7;stroke:#340a5f;stroke-linecap:square;stroke-width:2;"/>
   </g>
   <g id="line2d_6">
    <path clip-path="url(#pca8262e297)" d="M 19.307273 197.005806 
L 191.452727 197.005806 
L 191.452727 197.005806 
" style="fill:none;opacity:0.7;stroke:#450a69;stroke-linecap:square;stroke-width:2;"/>
   </g>
   <g id="line2d_7">
    <path clip-path="url(#pca8262e297)" d="M 19.307273 197.005806 
L 191.452727 197.005806 
L 191.452727 197.005806 
" style="fill:none;opacity:0.7;stroke:#57106e;stroke-linecap:square;stroke-width:2;"/>
   </g>
   <g id="line2d_8">
    <path clip-path="url(#pca8262e297)" d="M 19.307273 197.005806 
L 191.452727 197.005806 
L 191.452727 197.005806 
" style="fill:none;opacity:0.7;stroke:#69166e;stroke-linecap:square;stroke-width:2;"/>
   </g>
   <g id="line2d_9">
    <path clip-path="url(#pca8262e297)" d="M 19.307273 197.005806 
L 191.452727 197.005806 
L 191.452727 197.005806 
" style="fill:none;opacity:0.7;stroke:#7a1d6d;stroke-linecap:square;stroke-width:2;"/>
   </g>
   <g id="line2d_10">
    <path clip-path="url(#pca8262e297)" d="M 19.307273 197.005806 
L 64.282211 197.005806 
L 64.454529 193.128025 
L 65.1438 192.38432 
L 65.833071 192.02011 
L 66.522342 191.922741 
L 67.556249 192.035453 
L 71.34724 192.653121 
L 74.276642 192.791965 
L 81.513989 192.827589 
L 147.684013 192.91202 
L 148.200966 193.082467 
L 148.545602 193.322563 
L 148.71792 197.005806 
L 191.452727 197.005806 
L 191.452727 197.005806 
" style="fill:none;opacity:0.7;stroke:#8c2369;stroke-linecap:square;stroke-width:2;"/>
   </g>
   <g id="line2d_11">
    <path clip-path="url(#pca8262e297)" d="M 19.307273 197.005806 
L 191.452727 197.005806 
L 191.452727 197.005806 
" style="fill:none;opacity:0.7;stroke:#9b2964;stroke-linecap:square;stroke-width:2;"/>
   </g>
   <g id="line2d_12">
    <path clip-path="url(#pca8262e297)" d="M 19.307273 197.005806 
L 64.454529 197.005806 
L 64.626847 193.25012 
L 65.316118 192.662595 
L 66.005389 192.400523 
L 66.866978 192.365191 
L 68.417838 192.614236 
L 71.002604 192.990776 
L 73.932007 193.140365 
L 80.824717 193.180163 
L 147.856331 193.29328 
L 148.028649 197.005806 
L 191.452727 197.005806 
L 191.452727 197.005806 
" style="fill:none;opacity:0.7;stroke:#ad305d;stroke-linecap:square;stroke-width:2;"/>
   </g>
   <g id="line2d_13">
    <path clip-path="url(#pca8262e297)" d="M 19.307273 197.005806 
L 191.452727 197.005806 
L 191.452727 197.005806 
" style="fill:none;opacity:0.7;stroke:#bd3853;stroke-linecap:square;stroke-width:2;"/>
   </g>
   <g id="line2d_14">
    <path clip-path="url(#pca8262e297)" d="M 19.307273 197.005806 
L 63.765258 197.005806 
L 63.937576 193.240576 
L 64.626847 191.951622 
L 65.316118 191.164137 
L 65.833071 190.868195 
L 66.522342 190.749378 
L 67.383931 190.851453 
L 71.691876 191.683392 
L 74.44896 191.824042 
L 81.169353 191.863624 
L 147.684013 191.966923 
L 148.200966 192.175616 
L 148.71792 192.682118 
L 149.062555 193.245759 
L 149.234873 197.005806 
L 191.452727 197.005806 
L 191.452727 197.005806 
" style="fill:none;opacity:0.7;stroke:#cc4248;stroke-linecap:square;stroke-width:2;"/>
   </g>
   <g id="line2d_15">
    <path clip-path="url(#pca8262e297)" d="M 19.307273 197.005806 
L 63.59294 197.005806 
L 63.765258 192.996553 
L 64.626847 191.016091 
L 65.1438 190.263853 
L 65.660753 189.824998 
L 66.177707 189.629709 
L 66.866978 189.61925 
L 68.073202 189.912734 
L 70.485651 190.532047 
L 72.553464 190.781328 
L 75.655184 190.894619 
L 85.477297 190.917092 
L 147.511695 190.999784 
L 148.028649 191.174002 
L 148.545602 191.631447 
L 149.062555 192.547735 
L 149.234873 192.954244 
L 149.407191 197.005806 
L 191.452727 197.005806 
L 191.452727 197.005806 
" style="fill:none;opacity:0.7;stroke:#d94d3d;stroke-linecap:square;stroke-width:2;"/>
   </g>
   <g id="line2d_16">
    <path clip-path="url(#pca8262e297)" d="M 19.307273 197.005806 
L 64.454529 197.005806 
L 64.626847 193.25012 
L 65.316118 192.662595 
L 66.005389 192.400523 
L 66.866978 192.365191 
L 68.417838 192.614236 
L 71.002604 192.990776 
L 73.932007 193.140365 
L 80.824717 193.180163 
L 147.856331 193.29328 
L 148.028649 197.005806 
L 191.452727 197.005806 
L 191.452727 197.005806 
" style="fill:none;opacity:0.7;stroke:#e55c30;stroke-linecap:square;stroke-width:2;"/>
   </g>
   <g id="line2d_17">
    <path clip-path="url(#pca8262e297)" d="M 19.307273 197.005806 
L 63.420622 197.005806 
L 63.59294 193.032257 
L 64.454529 190.650608 
L 65.1438 189.441804 
L 65.660753 188.950929 
L 66.177707 188.732887 
L 66.866978 188.721972 
L 67.900885 188.993745 
L 70.485651 189.746017 
L 72.381147 190.010713 
L 75.138231 190.142761 
L 82.20326 190.177467 
L 147.511695 190.269749 
L 148.028649 190.464258 
L 148.373284 190.755059 
L 148.71792 191.255556 
L 149.234873 192.456232 
L 149.407191 192.952499 
L 149.579509 197.005806 
L 191.452727 197.005806 
L 191.452727 197.005806 
" style="fill:none;opacity:0.7;stroke:#ef6c23;stroke-linecap:square;stroke-width:2;"/>
   </g>
   <g id="line2d_18">
    <path clip-path="url(#pca8262e297)" d="M 19.307273 197.005806 
L 191.452727 197.005806 
L 191.452727 197.005806 
" style="fill:none;opacity:0.7;stroke:#f67e14;stroke-linecap:square;stroke-width:2;"/>
   </g>
   <g id="line2d_19">
    <path clip-path="url(#pca8262e297)" d="M 19.307273 197.005806 
L 191.452727 197.005806 
L 191.452727 197.005806 
" style="fill:none;opacity:0.7;stroke:#fa9207;stroke-linecap:square;stroke-width:2;"/>
   </g>
   <g id="line2d_20">
    <path clip-path="url(#pca8262e297)" d="M 19.307273 197.005806 
L 191.452727 197.005806 
L 191.452727 197.005806 
" style="fill:none;opacity:0.7;stroke:#fca50a;stroke-linecap:square;stroke-width:2;"/>
   </g>
   <g id="patch_3">
    <path d="M 10.7 200.06 
L 10.7 10.7 
" style="fill:none;stroke:#000000;stroke-linecap:square;stroke-linejoin:miter;stroke-width:0.8;"/>
   </g>
   <g id="patch_4">
    <path d="M 200.06 200.06 
L 200.06 10.7 
" style="fill:none;stroke:#000000;stroke-linecap:square;stroke-linejoin:miter;stroke-width:0.8;"/>
   </g>
   <g id="patch_5">
    <path d="M 10.7 200.06 
L 200.06 200.06 
" style="fill:none;stroke:#000000;stroke-linecap:square;stroke-linejoin:miter;stroke-width:0.8;"/>
   </g>
   <g id="patch_6">
    <path d="M 10.7 10.7 
L 200.06 10.7 
" style="fill:none;stroke:#000000;stroke-linecap:square;stroke-linejoin:miter;stroke-width:0.8;"/>
   </g>
  </g>
 </g>
 <defs>
  <clipPath id="pca8262e297">
   <rect height="189.36" width="189.36" x="10.7" y="10.7"/>
  </clipPath>
 </defs>
</svg>
