<?xml version="1.0" encoding="utf-8" standalone="no"?>
<!DOCTYPE svg PUBLIC "-//W3C//DTD SVG 1.1//EN"
  "http://www.w3.org/Graphics/SVG/1.1/DTD/svg11.dtd">
<!-- Created with matplotlib (http://matplotlib.org/) -->
<svg height="210pt" version="1.1" viewBox="0 0 210 210" width="210pt" xmlns="http://www.w3.org/2000/svg" xmlns:xlink="http://www.w3.org/1999/xlink">
 <defs>
  <style type="text/css">
*{stroke-linecap:butt;stroke-linejoin:round;}
  </style>
 </defs>
 <g id="figure_1">
  <g id="patch_1">
   <path d="M 0 210.76 
L 210.76 210.76 
L 210.76 0 
L 0 0 
z
" style="fill:#ffffff;"/>
  </g>
  <g id="axes_1">
   <g id="patch_2">
    <path d="M 10.7 200.06 
L 200.06 200.06 
L 200.06 10.7 
L 10.7 10.7 
z
" style="fill:#ffffff;"/>
   </g>
   <g id="matplotlib.axis_1"/>
   <g id="matplotlib.axis_2"/>
   <g id="line2d_1">
    <path clip-path="url(#p13cb79ff9c)" d="M 19.307273 191.826957 
L 63.075987 191.826957 
L 63.248305 133.412661 
L 64.454529 65.48287 
L 64.971482 46.410938 
L 65.488436 34.63064 
L 65.833071 30.175493 
L 66.177707 27.851688 
L 66.522342 27.166087 
L 66.69466 27.297678 
L 67.039296 28.267201 
L 67.556249 30.895803 
L 70.313333 47.206738 
L 71.174922 50.312137 
L 72.036511 52.474909 
L 72.725782 53.682233 
L 73.587371 54.715836 
L 74.44896 55.37893 
L 75.482867 55.859302 
L 76.689091 56.161596 
L 78.412269 56.351147 
L 81.169353 56.410845 
L 146.305471 56.523771 
L 146.822424 56.783156 
L 147.16706 57.232592 
L 147.511695 58.208863 
L 147.856331 60.272626 
L 148.200966 64.411714 
L 148.545602 71.997732 
L 148.890238 84.209331 
L 149.407191 110.862648 
L 149.751826 131.731556 
L 149.924144 191.826957 
L 191.452727 191.826957 
L 191.452727 191.826957 
" style="fill:none;opacity:0.7;stroke:#420a68;stroke-linecap:square;stroke-width:2;"/>
   </g>
   <g id="line2d_2">
    <path clip-path="url(#p13cb79ff9c)" d="M 19.307273 191.826957 
L 63.075987 191.826957 
L 63.248305 133.404567 
L 64.454529 65.475465 
L 64.971482 46.405795 
L 65.488436 34.627658 
L 65.833071 30.173722 
L 66.177707 27.850909 
L 66.522342 27.166087 
L 66.69466 27.297994 
L 67.039296 28.268021 
L 67.556249 30.897112 
L 70.313333 47.208255 
L 71.174922 50.313519 
L 72.036511 52.476176 
L 72.725782 53.683427 
L 73.587371 54.716963 
L 74.44896 55.38001 
L 75.482867 55.860348 
L 76.689091 56.162618 
L 78.412269 56.352153 
L 81.169353 56.411842 
L 146.305471 56.52472 
L 146.822424 56.783996 
L 147.16706 57.233246 
L 147.511695 58.209125 
L 147.856331 60.272101 
L 148.200966 64.409776 
L 148.545602 71.993686 
L 148.890238 84.202903 
L 149.407191 110.853969 
L 149.751826 131.723031 
L 149.924144 191.826957 
L 191.452727 191.826957 
L 191.452727 191.826957 
" style="fill:none;opacity:0.7;stroke:#510e6c;stroke-linecap:square;stroke-width:2;"/>
   </g>
   <g id="line2d_3">
    <path clip-path="url(#p13cb79ff9c)" d="M 19.307273 191.826957 
L 63.075987 191.826957 
L 63.248305 133.404567 
L 64.454529 65.475465 
L 64.971482 46.405795 
L 65.488436 34.627658 
L 65.833071 30.173722 
L 66.177707 27.850909 
L 66.522342 27.166087 
L 66.69466 27.297994 
L 67.039296 28.268021 
L 67.556249 30.897112 
L 70.313333 47.208255 
L 71.174922 50.313519 
L 72.036511 52.476176 
L 72.725782 53.683427 
L 73.587371 54.716963 
L 74.44896 55.38001 
L 75.482867 55.860348 
L 76.689091 56.162618 
L 78.412269 56.352153 
L 81.169353 56.411842 
L 146.305471 56.52472 
L 146.822424 56.783996 
L 147.16706 57.233246 
L 147.511695 58.209125 
L 147.856331 60.272101 
L 148.200966 64.409776 
L 148.545602 71.993686 
L 148.890238 84.202903 
L 149.407191 110.853969 
L 149.751826 131.723031 
L 149.924144 191.826957 
L 191.452727 191.826957 
L 191.452727 191.826957 
" style="fill:none;opacity:0.7;stroke:#8d2369;stroke-linecap:square;stroke-width:2;"/>
   </g>
   <g id="line2d_4">
    <path clip-path="url(#p13cb79ff9c)" d="M 19.307273 191.826957 
L 63.937576 191.826957 
L 64.109894 82.819833 
L 64.799165 52.252395 
L 65.316118 38.036039 
L 65.833071 30.285652 
L 66.177707 27.901497 
L 66.522342 27.166087 
L 66.69466 27.276595 
L 67.039296 28.210954 
L 67.556249 30.801853 
L 70.313333 47.064857 
L 71.174922 50.172637 
L 72.036511 52.33849 
L 72.725782 53.548066 
L 73.587371 54.583939 
L 74.44896 55.248684 
L 75.482867 55.730375 
L 76.689091 56.033571 
L 78.412269 56.223753 
L 81.169353 56.283988 
L 146.305471 56.39984 
L 146.822424 56.665894 
L 147.16706 57.126718 
L 147.511695 58.127023 
L 147.856331 60.238571 
L 148.200966 64.462353 
L 148.545602 72.171268 
L 148.890238 84.513155 
L 149.062555 191.826957 
L 191.452727 191.826957 
L 191.452727 191.826957 
" style="fill:none;opacity:0.7;stroke:#9b2964;stroke-linecap:square;stroke-width:2;"/>
   </g>
   <g id="line2d_5">
    <path clip-path="url(#p13cb79ff9c)" d="M 19.307273 191.826957 
L 62.214398 191.826957 
L 62.386716 171.70908 
L 62.903669 148.676516 
L 64.626847 54.862466 
L 65.1438 39.476547 
L 65.660753 30.886288 
L 66.005389 28.133842 
L 66.350025 27.166087 
L 66.522342 27.204642 
L 66.866978 28.069123 
L 67.383931 30.699227 
L 68.590156 39.029953 
L 69.624062 45.54753 
L 70.485651 49.736195 
L 71.34724 52.823829 
L 72.208829 55.021803 
L 73.070418 56.562663 
L 73.932007 57.644518 
L 74.965913 58.545389 
L 76.172138 59.266147 
L 77.722998 59.919304 
L 80.135446 60.67049 
L 89.440606 63.093122 
L 102.709075 66.344053 
L 116.666814 69.532279 
L 131.141507 72.610319 
L 146.650106 75.86022 
L 146.994742 76.151735 
L 147.339378 76.712759 
L 147.684013 77.847017 
L 148.028649 80.140902 
L 148.373284 84.566944 
L 148.71792 92.327123 
L 149.234873 111.609244 
L 150.441097 172.047113 
L 150.613415 191.826957 
L 191.452727 191.826957 
L 191.452727 191.826957 
" style="fill:none;opacity:0.7;stroke:#ab2f5e;stroke-linecap:square;stroke-width:2;"/>
   </g>
   <g id="line2d_6">
    <path clip-path="url(#p13cb79ff9c)" d="M 19.307273 191.826957 
L 62.559034 191.826957 
L 62.731351 159.882684 
L 63.420622 121.396947 
L 64.454529 64.219821 
L 64.971482 45.533679 
L 65.488436 34.116484 
L 65.833071 29.866476 
L 66.177707 27.713621 
L 66.350025 27.267987 
L 66.522342 27.166087 
L 66.69466 27.35546 
L 67.039296 28.420826 
L 67.556249 31.152671 
L 70.141016 46.893155 
L 71.002604 50.241029 
L 71.864193 52.604769 
L 72.725782 54.215308 
L 73.587371 55.287724 
L 74.44896 55.992745 
L 75.482867 56.526338 
L 76.689091 56.893226 
L 78.412269 57.177341 
L 81.169353 57.389693 
L 114.943636 59.185208 
L 146.477789 60.869419 
L 146.822424 61.07157 
L 147.16706 61.497457 
L 147.511695 62.404978 
L 147.856331 64.310847 
L 148.200966 68.13723 
L 148.545602 75.196685 
L 148.890238 86.679984 
L 149.407191 112.118678 
L 150.26878 162.002441 
L 150.441097 191.826957 
L 191.452727 191.826957 
L 191.452727 191.826957 
" style="fill:none;opacity:0.7;stroke:#b93556;stroke-linecap:square;stroke-width:2;"/>
   </g>
   <g id="line2d_7">
    <path clip-path="url(#p13cb79ff9c)" d="M 19.307273 191.826957 
L 61.008174 191.826957 
L 61.352809 184.821917 
L 61.697445 178.027856 
L 62.04208 166.748712 
L 62.559034 141.072776 
L 63.937576 63.021467 
L 64.454529 44.554188 
L 64.971482 33.437395 
L 65.316118 29.411989 
L 65.660753 27.493123 
L 65.833071 27.166087 
L 66.005389 27.183081 
L 66.177707 27.491194 
L 66.522342 28.792189 
L 67.039296 31.8694 
L 69.624062 49.148442 
L 70.485651 52.95429 
L 71.34724 55.760245 
L 72.208829 57.802546 
L 73.070418 59.300061 
L 74.104324 60.618584 
L 75.310549 61.755227 
L 76.861409 62.882545 
L 79.273857 64.3233 
L 89.268288 69.718213 
L 106.672383 78.949445 
L 119.079263 85.278446 
L 130.1076 90.655724 
L 140.446667 95.450713 
L 146.822424 98.415526 
L 147.339378 98.950695 
L 147.684013 99.633034 
L 148.028649 100.920089 
L 148.373284 103.395176 
L 148.71792 107.942194 
L 149.062555 115.473879 
L 149.579509 132.765034 
L 151.130369 191.826957 
L 191.452727 191.826957 
L 191.452727 191.826957 
" style="fill:none;opacity:0.7;stroke:#c73e4c;stroke-linecap:square;stroke-width:2;"/>
   </g>
   <g id="line2d_8">
    <path clip-path="url(#p13cb79ff9c)" d="M 19.307273 191.826957 
L 61.525127 191.826957 
L 61.869762 180.497312 
L 62.214398 170.679738 
L 62.731351 146.932835 
L 64.454529 53.342194 
L 64.971482 38.448415 
L 65.488436 30.334269 
L 65.833071 27.871117 
L 66.005389 27.329167 
L 66.177707 27.166087 
L 66.350025 27.326109 
L 66.69466 28.41497 
L 67.211613 31.340768 
L 70.141016 50.815278 
L 71.002604 54.395465 
L 71.864193 57.032693 
L 72.725782 58.965052 
L 73.587371 60.400888 
L 74.621278 61.690989 
L 75.827502 62.83361 
L 77.55068 64.116453 
L 80.135446 65.715805 
L 87.545111 69.871722 
L 95.988681 74.366643 
L 104.60457 78.698682 
L 113.220459 82.782922 
L 122.008665 86.704832 
L 130.969189 90.46274 
L 140.274349 94.122321 
L 146.650106 96.616098 
L 147.16706 97.082127 
L 147.511695 97.68577 
L 147.856331 98.837322 
L 148.200966 101.079818 
L 148.545602 105.27133 
L 148.890238 112.376363 
L 149.407191 129.240025 
L 150.958051 191.826957 
L 191.452727 191.826957 
L 191.452727 191.826957 
" style="fill:none;opacity:0.7;stroke:#d34743;stroke-linecap:square;stroke-width:2;"/>
   </g>
   <g id="line2d_9">
    <path clip-path="url(#p13cb79ff9c)" d="M 19.307273 191.826957 
L 62.559034 191.826957 
L 62.731351 159.948209 
L 63.420622 121.493529 
L 64.454529 64.297185 
L 64.971482 45.588717 
L 65.488436 34.149801 
L 65.833071 29.887021 
L 66.177707 27.723069 
L 66.350025 27.272512 
L 66.522342 27.166087 
L 66.69466 27.35131 
L 67.039296 28.409396 
L 67.556249 31.132451 
L 70.141016 46.847593 
L 71.002604 50.189139 
L 71.864193 52.546579 
L 72.725782 54.150717 
L 73.587371 55.216608 
L 74.44896 55.914997 
L 75.482867 56.440535 
L 76.689091 56.797949 
L 78.412269 57.068483 
L 81.169353 57.259176 
L 117.873038 58.931874 
L 146.477789 60.280158 
L 146.822424 60.481483 
L 147.16706 60.908161 
L 147.511695 61.81991 
L 147.856331 63.736965 
L 148.200966 67.587267 
L 148.545602 74.690219 
L 148.890238 86.240113 
L 149.407191 111.811139 
L 150.26878 161.915955 
L 150.441097 191.826957 
L 191.452727 191.826957 
L 191.452727 191.826957 
" style="fill:none;opacity:0.7;stroke:#de5238;stroke-linecap:square;stroke-width:2;"/>
   </g>
   <g id="line2d_10">
    <path clip-path="url(#p13cb79ff9c)" d="M 19.307273 191.826957 
L 61.008174 191.826957 
L 61.352809 183.909397 
L 61.697445 176.415729 
L 62.04208 164.282796 
L 62.559034 137.595706 
L 63.937576 60.552971 
L 64.454529 42.98576 
L 64.971482 32.628758 
L 65.316118 28.995115 
L 65.660753 27.375507 
L 65.833071 27.166087 
L 66.005389 27.281354 
L 66.350025 28.285596 
L 66.866978 31.096364 
L 69.79638 50.10322 
L 70.657969 53.578563 
L 71.519558 56.118414 
L 72.381147 57.959187 
L 73.242735 59.30828 
L 74.276642 60.499952 
L 75.482867 61.534944 
L 77.206044 62.676751 
L 79.790811 64.091519 
L 120.974758 85.092341 
L 133.20932 91.011263 
L 144.237658 96.102646 
L 146.822424 97.38656 
L 147.339378 97.910979 
L 147.684013 98.571077 
L 148.028649 99.810027 
L 148.373284 102.193813 
L 148.71792 106.59727 
L 149.062555 113.960488 
L 149.579509 131.110508 
L 151.130369 191.826957 
L 191.452727 191.826957 
L 191.452727 191.826957 
" style="fill:none;opacity:0.7;stroke:#ef6e21;stroke-linecap:square;stroke-width:2;"/>
   </g>
   <g id="line2d_11">
    <path clip-path="url(#p13cb79ff9c)" d="M 19.307273 191.826957 
L 62.903669 191.826957 
L 63.075987 143.031367 
L 64.626847 57.962782 
L 65.1438 41.526086 
L 65.660753 31.998447 
L 66.005389 28.722973 
L 66.350025 27.316879 
L 66.522342 27.166087 
L 66.69466 27.311668 
L 67.039296 28.303185 
L 67.556249 30.952538 
L 70.141016 46.515852 
L 71.002604 49.828016 
L 71.864193 52.154723 
L 72.553464 53.461031 
L 73.415053 54.584168 
L 74.276642 55.307457 
L 75.310549 55.833153 
L 76.516773 56.164985 
L 78.239951 56.373927 
L 80.997035 56.44429 
L 146.477789 56.60941 
L 146.822424 56.809781 
L 147.16706 57.250867 
L 147.511695 58.209452 
L 147.856331 60.237751 
L 148.200966 64.312864 
L 148.545602 71.802613 
L 148.890238 83.903733 
L 149.407191 110.446471 
L 149.924144 141.844613 
L 150.096462 191.826957 
L 191.452727 191.826957 
L 191.452727 191.826957 
" style="fill:none;opacity:0.7;stroke:#f67e14;stroke-linecap:square;stroke-width:2;"/>
   </g>
   <g id="line2d_12">
    <path clip-path="url(#p13cb79ff9c)" d="M 19.307273 191.826957 
L 62.559034 191.826957 
L 62.731351 159.948209 
L 63.420622 121.493529 
L 64.454529 64.297185 
L 64.971482 45.588717 
L 65.488436 34.149801 
L 65.833071 29.887021 
L 66.177707 27.723069 
L 66.350025 27.272512 
L 66.522342 27.166087 
L 66.69466 27.35131 
L 67.039296 28.409396 
L 67.556249 31.132451 
L 70.141016 46.847593 
L 71.002604 50.189139 
L 71.864193 52.546579 
L 72.725782 54.150717 
L 73.587371 55.216608 
L 74.44896 55.914997 
L 75.482867 56.440535 
L 76.689091 56.797949 
L 78.412269 57.068483 
L 81.169353 57.259176 
L 117.873038 58.931874 
L 146.477789 60.280158 
L 146.822424 60.481483 
L 147.16706 60.908161 
L 147.511695 61.81991 
L 147.856331 63.736965 
L 148.200966 67.587267 
L 148.545602 74.690219 
L 148.890238 86.240113 
L 149.407191 111.811139 
L 150.26878 161.915955 
L 150.441097 191.826957 
L 191.452727 191.826957 
L 191.452727 191.826957 
" style="fill:none;opacity:0.7;stroke:#f98e09;stroke-linecap:square;stroke-width:2;"/>
   </g>
   <g id="line2d_13">
    <path clip-path="url(#p13cb79ff9c)" d="M 19.307273 191.826957 
L 61.525127 191.826957 
L 61.869762 180.050408 
L 62.214398 169.953377 
L 62.731351 145.812166 
L 64.454529 52.610243 
L 64.971482 38.007204 
L 65.488436 30.126665 
L 65.833071 27.781496 
L 66.005389 27.287696 
L 66.177707 27.166087 
L 66.350025 27.3614 
L 66.69466 28.504452 
L 67.211613 31.478557 
L 69.968698 50.090502 
L 70.830287 53.866967 
L 71.691876 56.659181 
L 72.553464 58.705586 
L 73.415053 60.222062 
L 74.44896 61.576968 
L 75.655184 62.766677 
L 77.206044 63.968048 
L 79.618493 65.518333 
L 85.821933 69.077907 
L 94.437821 73.790619 
L 103.05371 78.248526 
L 111.669599 82.458065 
L 120.457805 86.504872 
L 129.418329 90.385363 
L 138.551171 94.098083 
L 146.822424 97.436563 
L 147.339378 98.029647 
L 147.684013 98.842232 
L 148.028649 100.416526 
L 148.373284 103.442401 
L 148.71792 108.873598 
L 149.062555 117.521548 
L 149.579509 136.256402 
L 150.958051 191.826957 
L 191.452727 191.826957 
L 191.452727 191.826957 
" style="fill:none;opacity:0.7;stroke:#fca108;stroke-linecap:square;stroke-width:2;"/>
   </g>
   <g id="line2d_14">
    <path clip-path="url(#p13cb79ff9c)" d="M 19.307273 191.826957 
L 63.248305 191.826957 
L 63.420622 123.10882 
L 64.454529 65.584426 
L 64.971482 46.48192 
L 65.488436 34.67204 
L 65.833071 30.200171 
L 66.177707 27.862584 
L 66.522342 27.166087 
L 66.69466 27.29323 
L 67.039296 28.255626 
L 67.556249 30.877202 
L 70.313333 47.184219 
L 71.174922 50.291326 
L 72.036511 52.455591 
L 72.725782 53.663861 
L 73.587371 54.698348 
L 74.44896 55.362049 
L 75.482867 55.842888 
L 76.689091 56.145492 
L 78.412269 56.33525 
L 81.169353 56.395086 
L 146.305471 56.508675 
L 146.822424 56.769571 
L 147.16706 57.22159 
L 147.511695 58.203329 
L 147.856331 60.278021 
L 148.200966 64.436705 
L 148.545602 72.051865 
L 148.890238 84.296122 
L 149.407191 110.979284 
L 149.579509 121.2947 
L 149.751826 191.826957 
L 191.452727 191.826957 
L 191.452727 191.826957 
" style="fill:none;opacity:0.7;stroke:#fcb216;stroke-linecap:square;stroke-width:2;"/>
   </g>
   <g id="line2d_15">
    <path clip-path="url(#p13cb79ff9c)" d="M 19.307273 191.826957 
L 62.214398 191.826957 
L 62.386716 172.142786 
L 62.903669 149.392131 
L 64.799165 49.378613 
L 65.316118 36.219424 
L 65.833071 29.380828 
L 66.177707 27.494813 
L 66.350025 27.166087 
L 66.522342 27.17074 
L 66.69466 27.456962 
L 67.039296 28.68985 
L 67.556249 31.618903 
L 69.968698 47.057021 
L 70.830287 50.753895 
L 71.691876 53.424513 
L 72.553464 55.298704 
L 73.415053 56.598799 
L 74.276642 57.504409 
L 75.310549 58.253845 
L 76.516773 58.850686 
L 78.239951 59.440958 
L 80.997035 60.119512 
L 94.954775 63.094174 
L 110.463374 66.176256 
L 126.661245 69.167901 
L 143.720704 72.091339 
L 146.305471 72.602784 
L 146.822424 72.889189 
L 147.16706 73.2959 
L 147.511695 74.115412 
L 147.856331 75.793886 
L 148.200966 79.137052 
L 148.545602 85.318425 
L 148.890238 95.455992 
L 149.407191 118.219091 
L 150.441097 171.834066 
L 150.613415 191.826957 
L 191.452727 191.826957 
L 191.452727 191.826957 
" style="fill:none;opacity:0.7;stroke:#fac42a;stroke-linecap:square;stroke-width:2;"/>
   </g>
   <g id="line2d_16">
    <path clip-path="url(#p13cb79ff9c)" d="M 19.307273 191.826957 
L 62.559034 191.826957 
L 62.731351 159.593057 
L 63.420622 120.97544 
L 64.454529 63.885284 
L 64.971482 45.296492 
L 65.488436 33.973365 
L 65.833071 29.778405 
L 66.177707 27.673208 
L 66.350025 27.24865 
L 66.522342 27.166087 
L 66.69466 27.373157 
L 67.039296 28.469467 
L 67.556249 31.238459 
L 70.141016 47.084364 
L 71.002604 50.458388 
L 71.864193 52.848223 
L 72.725782 54.485346 
L 73.587371 55.584914 
L 74.44896 56.317559 
L 75.482867 56.884732 
L 76.689091 57.29113 
L 78.584586 57.657205 
L 81.513989 57.965099 
L 108.912514 60.280521 
L 139.068124 62.60757 
L 146.305471 63.2339 
L 146.822424 63.500463 
L 147.16706 63.922925 
L 147.511695 64.812871 
L 147.856331 66.672536 
L 148.200966 70.400271 
L 148.545602 77.280364 
L 148.890238 88.488982 
L 149.407191 113.381719 
L 150.26878 162.353803 
L 150.441097 191.826957 
L 191.452727 191.826957 
L 191.452727 191.826957 
" style="fill:none;opacity:0.7;stroke:#f6d746;stroke-linecap:square;stroke-width:2;"/>
   </g>
   <g id="patch_3">
    <path d="M 10.7 200.06 
L 10.7 10.7 
" style="fill:none;stroke:#000000;stroke-linecap:square;stroke-linejoin:miter;stroke-width:0.8;"/>
   </g>
   <g id="patch_4">
    <path d="M 200.06 200.06 
L 200.06 10.7 
" style="fill:none;stroke:#000000;stroke-linecap:square;stroke-linejoin:miter;stroke-width:0.8;"/>
   </g>
   <g id="patch_5">
    <path d="M 10.7 200.06 
L 200.06 200.06 
" style="fill:none;stroke:#000000;stroke-linecap:square;stroke-linejoin:miter;stroke-width:0.8;"/>
   </g>
   <g id="patch_6">
    <path d="M 10.7 10.7 
L 200.06 10.7 
" style="fill:none;stroke:#000000;stroke-linecap:square;stroke-linejoin:miter;stroke-width:0.8;"/>
   </g>
  </g>
 </g>
 <defs>
  <clipPath id="p13cb79ff9c">
   <rect height="189.36" width="189.36" x="10.7" y="10.7"/>
  </clipPath>
 </defs>
</svg>
