<?xml version="1.0" encoding="utf-8" standalone="no"?>
<!DOCTYPE svg PUBLIC "-//W3C//DTD SVG 1.1//EN"
  "http://www.w3.org/Graphics/SVG/1.1/DTD/svg11.dtd">
<!-- Created with matplotlib (http://matplotlib.org/) -->
<svg height="210pt" version="1.1" viewBox="0 0 210 210" width="210pt" xmlns="http://www.w3.org/2000/svg" xmlns:xlink="http://www.w3.org/1999/xlink">
 <defs>
  <style type="text/css">
*{stroke-linecap:butt;stroke-linejoin:round;}
  </style>
 </defs>
 <g id="figure_1">
  <g id="patch_1">
   <path d="M 0 210.76 
L 210.76 210.76 
L 210.76 0 
L 0 0 
z
" style="fill:#ffffff;"/>
  </g>
  <g id="axes_1">
   <g id="patch_2">
    <path d="M 10.7 200.06 
L 200.06 200.06 
L 200.06 10.7 
L 10.7 10.7 
z
" style="fill:#ffffff;"/>
   </g>
   <g id="matplotlib.axis_1"/>
   <g id="matplotlib.axis_2"/>
   <g id="line2d_1">
    <path clip-path="url(#p0eb736c3c3)" d="M 19.307273 191.826957 
L 63.765258 191.826957 
L 63.937576 89.774541 
L 64.626847 57.381452 
L 65.1438 41.380848 
L 65.660753 32.035793 
L 66.005389 28.783423 
L 66.350025 27.34674 
L 66.522342 27.166087 
L 66.69466 27.274594 
L 67.039296 28.176505 
L 67.556249 30.670935 
L 70.313333 46.30791 
L 71.174922 49.294805 
L 72.036511 51.376258 
L 72.725782 52.53864 
L 73.587371 53.53406 
L 74.44896 54.172824 
L 75.482867 54.635675 
L 76.689091 54.927005 
L 78.584586 55.119545 
L 81.686306 55.16786 
L 146.305471 55.278609 
L 146.822424 55.533606 
L 147.16706 55.975296 
L 147.511695 56.934143 
L 147.856331 58.958509 
L 148.200966 63.009111 
L 148.545602 70.405461 
L 148.890238 82.254243 
L 149.234873 98.544044 
L 149.407191 191.826957 
L 191.452727 191.826957 
L 191.452727 191.826957 
" style="fill:none;opacity:0.7;stroke:#6f196e;stroke-linecap:square;stroke-width:2;"/>
   </g>
   <g id="line2d_2">
    <path clip-path="url(#p0eb736c3c3)" d="M 19.307273 191.826957 
L 66.177707 191.826957 
L 66.350025 27.352345 
L 66.522342 27.166087 
L 66.69466 27.259895 
L 66.866978 27.588638 
L 67.039296 191.826957 
L 191.452727 191.826957 
L 191.452727 191.826957 
" style="fill:none;opacity:0.7;stroke:#c73e4c;stroke-linecap:square;stroke-width:2;"/>
   </g>
   <g id="line2d_3">
    <path clip-path="url(#p0eb736c3c3)" d="M 19.307273 191.826957 
L 61.697445 191.826957 
L 62.04208 177.626594 
L 62.386716 166.471474 
L 62.903669 140.969185 
L 64.282211 63.042157 
L 64.799165 44.564096 
L 65.316118 33.43805 
L 65.660753 29.410047 
L 66.005389 27.491743 
L 66.177707 27.166087 
L 66.350025 27.185117 
L 66.522342 27.495855 
L 66.866978 28.803595 
L 67.383931 31.893673 
L 69.968698 49.246871 
L 70.830287 53.072737 
L 71.691876 55.894895 
L 72.553464 57.949539 
L 73.415053 59.455644 
L 74.44896 60.779731 
L 75.655184 61.916642 
L 77.206044 63.034968 
L 79.446175 64.349435 
L 84.615708 67.005763 
L 93.059279 71.125132 
L 101.675168 75.08345 
L 110.635692 78.953221 
L 119.768534 82.65497 
L 129.246011 86.25523 
L 139.068124 89.745765 
L 146.650106 92.420025 
L 147.16706 92.899723 
L 147.511695 93.546594 
L 147.856331 94.802554 
L 148.200966 97.261976 
L 148.545602 101.842736 
L 148.890238 109.53059 
L 149.407191 127.471176 
L 150.613415 178.6106 
L 150.785733 191.826957 
L 191.452727 191.826957 
L 191.452727 191.826957 
" style="fill:none;opacity:0.7;stroke:#d34743;stroke-linecap:square;stroke-width:2;"/>
   </g>
   <g id="line2d_4">
    <path clip-path="url(#p0eb736c3c3)" d="M 19.307273 191.826957 
L 64.626847 191.826957 
L 64.799165 50.848459 
L 65.316118 37.44794 
L 65.833071 30.130072 
L 66.177707 27.871448 
L 66.522342 27.166087 
L 66.69466 27.264139 
L 67.039296 28.132956 
L 67.556249 30.558738 
L 70.313333 45.837796 
L 71.174922 48.760761 
L 72.036511 50.798211 
L 72.8981 52.166184 
L 73.759689 53.059576 
L 74.621278 53.630729 
L 75.655184 54.04326 
L 77.033726 54.326602 
L 79.10154 54.486306 
L 83.237166 54.511297 
L 146.305471 54.620659 
L 146.822424 54.872714 
L 147.16706 55.309244 
L 147.339378 191.826957 
L 191.452727 191.826957 
L 191.452727 191.826957 
" style="fill:none;opacity:0.7;stroke:#e8602d;stroke-linecap:square;stroke-width:2;"/>
   </g>
   <g id="line2d_5">
    <path clip-path="url(#p0eb736c3c3)" d="M 19.307273 191.826957 
L 61.008174 191.826957 
L 61.352809 184.748065 
L 61.697445 178.157057 
L 62.04208 167.139234 
L 62.559034 141.813079 
L 64.109894 56.570745 
L 64.626847 40.450025 
L 65.1438 31.307609 
L 65.488436 28.306071 
L 65.833071 27.178025 
L 66.005389 27.166087 
L 66.177707 27.449758 
L 66.522342 28.713809 
L 67.039296 31.759723 
L 69.624062 49.069615 
L 70.485651 52.900209 
L 71.34724 55.727829 
L 72.208829 57.788114 
L 73.070418 59.300357 
L 74.104324 60.633239 
L 75.310549 61.783472 
L 76.861409 62.925194 
L 79.273857 64.384908 
L 88.406699 69.369413 
L 104.432252 77.940985 
L 116.494496 84.144981 
L 127.350516 89.481911 
L 137.517265 94.236897 
L 146.994742 98.646492 
L 147.339378 99.04218 
L 147.684013 99.729625 
L 148.028649 101.028214 
L 148.373284 103.525184 
L 148.71792 108.105356 
L 149.062555 115.671993 
L 149.579509 132.974412 
L 151.130369 191.826957 
L 191.452727 191.826957 
L 191.452727 191.826957 
" style="fill:none;opacity:0.7;stroke:#ef6e21;stroke-linecap:square;stroke-width:2;"/>
   </g>
   <g id="line2d_6">
    <path clip-path="url(#p0eb736c3c3)" d="M 19.307273 191.826957 
L 62.386716 191.826957 
L 62.559034 165.286543 
L 63.075987 139.951327 
L 64.454529 63.007962 
L 64.971482 44.749492 
L 65.488436 33.68266 
L 65.833071 29.614566 
L 66.177707 27.604641 
L 66.350025 27.217377 
L 66.522342 27.166087 
L 66.69466 27.399069 
L 67.039296 28.533628 
L 67.556249 31.334523 
L 70.141016 47.192211 
L 71.002604 50.573681 
L 71.864193 52.980123 
L 72.725782 54.641697 
L 73.587371 55.77166 
L 74.44896 56.538886 
L 75.482867 57.15115 
L 76.861409 57.664776 
L 78.756904 58.101511 
L 82.030942 58.587943 
L 102.881392 61.312435 
L 125.110385 63.991466 
L 146.477789 66.509273 
L 146.994742 66.887026 
L 147.339378 67.480043 
L 147.684013 68.714814 
L 148.028649 71.242105 
L 148.373284 76.12678 
L 148.71792 84.650867 
L 149.234873 105.605614 
L 150.441097 170.073178 
L 150.613415 191.826957 
L 191.452727 191.826957 
L 191.452727 191.826957 
" style="fill:none;opacity:0.7;stroke:#f67e14;stroke-linecap:square;stroke-width:2;"/>
   </g>
   <g id="line2d_7">
    <path clip-path="url(#p0eb736c3c3)" d="M 19.307273 191.826957 
L 62.731351 191.826957 
L 62.903669 150.122389 
L 64.971482 45.815055 
L 65.488436 34.350553 
L 65.833071 30.034364 
L 66.177707 27.800911 
L 66.350025 27.312089 
L 66.522342 27.166087 
L 66.69466 27.31103 
L 67.039296 28.28835 
L 67.556249 30.894658 
L 70.141016 46.189369 
L 71.002604 49.443258 
L 71.864193 51.72888 
L 72.553464 53.012065 
L 73.415053 54.115287 
L 74.276642 54.82573 
L 75.310549 55.342075 
L 76.516773 55.667999 
L 78.239951 55.873215 
L 80.997035 55.94229 
L 146.477789 56.10413 
L 146.822424 56.300521 
L 147.16706 56.732863 
L 147.511695 57.672501 
L 147.856331 59.660969 
L 148.200966 63.657011 
L 148.545602 71.004249 
L 148.890238 82.881106 
L 149.407191 108.949605 
L 150.096462 149.881875 
L 150.26878 191.826957 
L 191.452727 191.826957 
L 191.452727 191.826957 
" style="fill:none;opacity:0.7;stroke:#fca108;stroke-linecap:square;stroke-width:2;"/>
   </g>
   <g id="patch_3">
    <path d="M 10.7 200.06 
L 10.7 10.7 
" style="fill:none;stroke:#000000;stroke-linecap:square;stroke-linejoin:miter;stroke-width:0.8;"/>
   </g>
   <g id="patch_4">
    <path d="M 200.06 200.06 
L 200.06 10.7 
" style="fill:none;stroke:#000000;stroke-linecap:square;stroke-linejoin:miter;stroke-width:0.8;"/>
   </g>
   <g id="patch_5">
    <path d="M 10.7 200.06 
L 200.06 200.06 
" style="fill:none;stroke:#000000;stroke-linecap:square;stroke-linejoin:miter;stroke-width:0.8;"/>
   </g>
   <g id="patch_6">
    <path d="M 10.7 10.7 
L 200.06 10.7 
" style="fill:none;stroke:#000000;stroke-linecap:square;stroke-linejoin:miter;stroke-width:0.8;"/>
   </g>
  </g>
 </g>
 <defs>
  <clipPath id="p0eb736c3c3">
   <rect height="189.36" width="189.36" x="10.7" y="10.7"/>
  </clipPath>
 </defs>
</svg>
