<?xml version="1.0" encoding="utf-8" standalone="no"?>
<!DOCTYPE svg PUBLIC "-//W3C//DTD SVG 1.1//EN"
  "http://www.w3.org/Graphics/SVG/1.1/DTD/svg11.dtd">
<!-- Created with matplotlib (http://matplotlib.org/) -->
<svg height="210pt" version="1.1" viewBox="0 0 210 210" width="210pt" xmlns="http://www.w3.org/2000/svg" xmlns:xlink="http://www.w3.org/1999/xlink">
 <defs>
  <style type="text/css">
*{stroke-linecap:butt;stroke-linejoin:round;}
  </style>
 </defs>
 <g id="figure_1">
  <g id="patch_1">
   <path d="M 0 210.76 
L 210.76 210.76 
L 210.76 0 
L 0 0 
z
" style="fill:#ffffff;"/>
  </g>
  <g id="axes_1">
   <g id="patch_2">
    <path d="M 10.7 200.06 
L 200.06 200.06 
L 200.06 10.7 
L 10.7 10.7 
z
" style="fill:#ffffff;"/>
   </g>
   <g id="matplotlib.axis_1"/>
   <g id="matplotlib.axis_2"/>
   <g id="line2d_1">
    <path clip-path="url(#p3a664cac5a)" d="M 19.307273 191.826957 
L 62.04208 191.826957 
L 62.386716 170.824565 
L 62.903669 146.970461 
L 64.626847 53.458362 
L 65.1438 38.579697 
L 65.660753 30.435677 
L 66.005389 27.929461 
L 66.350025 27.166087 
L 66.522342 27.292203 
L 66.866978 28.305734 
L 67.383931 31.104954 
L 70.313333 49.802929 
L 71.174922 53.170024 
L 72.036511 55.602798 
L 72.8981 57.337597 
L 73.759689 58.581088 
L 74.793595 59.645381 
L 75.99982 60.529428 
L 77.55068 61.367948 
L 79.963129 62.383447 
L 87.200475 65.003337 
L 97.711859 68.596246 
L 108.567879 72.070247 
L 119.940852 75.472869 
L 131.65846 78.746438 
L 144.06534 81.978358 
L 146.477789 82.692398 
L 146.994742 83.078619 
L 147.339378 83.609705 
L 147.684013 84.65778 
L 148.028649 86.755949 
L 148.373284 90.799214 
L 148.71792 97.920236 
L 149.234873 115.794858 
L 150.441097 172.830359 
L 150.613415 191.826957 
L 191.452727 191.826957 
L 191.452727 191.826957 
" style="fill:none;opacity:0.7;stroke:#7d1e6d;stroke-linecap:square;stroke-width:2;"/>
   </g>
   <g id="line2d_2">
    <path clip-path="url(#p3a664cac5a)" d="M 19.307273 191.826957 
L 61.352809 191.826957 
L 61.697445 181.954356 
L 62.04208 172.946492 
L 62.559034 150.392953 
L 64.454529 49.530378 
L 64.971482 36.191934 
L 65.316118 30.989816 
L 65.660753 28.153608 
L 66.005389 27.166087 
L 66.177707 27.215401 
L 66.522342 28.135627 
L 67.039296 30.915018 
L 68.24552 39.754874 
L 69.451744 47.767279 
L 70.313333 52.107456 
L 71.174922 55.358598 
L 72.036511 57.746051 
L 72.8981 59.502489 
L 73.932007 61.045994 
L 74.965913 62.199275 
L 76.344455 63.393782 
L 78.412269 64.838722 
L 81.858624 66.917309 
L 91.853055 72.658876 
L 101.330532 77.849362 
L 110.635692 82.691154 
L 119.768534 87.192489 
L 128.901376 91.445181 
L 138.034218 95.4532 
L 146.822424 99.243573 
L 147.339378 99.8122 
L 147.684013 100.568479 
L 148.028649 102.017897 
L 148.373284 104.803274 
L 148.71792 109.844413 
L 149.062555 117.984696 
L 149.579509 135.980305 
L 150.958051 191.826957 
L 191.452727 191.826957 
L 191.452727 191.826957 
" style="fill:none;opacity:0.7;stroke:#ab2f5e;stroke-linecap:square;stroke-width:2;"/>
   </g>
   <g id="line2d_3">
    <path clip-path="url(#p3a664cac5a)" d="M 19.307273 191.826957 
L 62.731351 191.826957 
L 62.903669 153.181309 
L 64.971482 46.205919 
L 65.488436 34.483962 
L 65.833071 30.077662 
L 66.177707 27.80385 
L 66.350025 27.309592 
L 66.522342 27.166087 
L 66.69466 27.320183 
L 67.039296 28.33126 
L 67.556249 31.012939 
L 70.141016 46.704776 
L 71.002604 50.039962 
L 71.864193 52.382259 
L 72.553464 53.697104 
L 73.415053 54.827442 
L 74.276642 55.555288 
L 75.310549 56.084247 
L 76.516773 56.41811 
L 78.239951 56.628308 
L 80.824717 56.698679 
L 146.477789 56.863774 
L 146.822424 57.063775 
L 147.16706 57.504096 
L 147.511695 58.46125 
L 147.856331 60.487512 
L 148.200966 64.562233 
L 148.545602 72.062176 
L 148.890238 84.203043 
L 149.407191 110.901783 
L 150.096462 152.91124 
L 150.26878 191.826957 
L 191.452727 191.826957 
L 191.452727 191.826957 
" style="fill:none;opacity:0.7;stroke:#f67e14;stroke-linecap:square;stroke-width:2;"/>
   </g>
   <g id="line2d_4">
    <path clip-path="url(#p3a664cac5a)" d="M 19.307273 191.826957 
L 61.008174 191.826957 
L 61.352809 184.051991 
L 61.697445 176.557968 
L 62.04208 164.421863 
L 62.559034 137.720107 
L 63.937576 60.602087 
L 64.454529 43.012261 
L 64.971482 32.640073 
L 65.316118 29.000089 
L 65.660753 27.376643 
L 65.833071 27.166087 
L 66.005389 27.280658 
L 66.350025 28.284596 
L 66.866978 31.096881 
L 69.79638 50.122396 
L 70.657969 53.601712 
L 71.519558 56.144576 
L 72.381147 57.987613 
L 73.242735 59.338429 
L 74.276642 60.531685 
L 75.482867 61.568115 
L 77.206044 62.711577 
L 79.790811 64.128461 
L 120.802441 85.070744 
L 133.037002 90.999392 
L 144.06534 96.099445 
L 146.822424 97.462344 
L 147.339378 97.987375 
L 147.684013 98.648301 
L 148.028649 99.888844 
L 148.373284 102.275673 
L 148.71792 106.684535 
L 149.062555 114.05619 
L 149.579509 131.223728 
L 151.130369 191.826957 
L 191.452727 191.826957 
L 191.452727 191.826957 
" style="fill:none;opacity:0.7;stroke:#fcb216;stroke-linecap:square;stroke-width:2;"/>
   </g>
   <g id="line2d_5">
    <path clip-path="url(#p3a664cac5a)" d="M 19.307273 191.826957 
L 61.008174 191.826957 
L 61.352809 184.43945 
L 61.697445 177.23531 
L 62.04208 165.44795 
L 62.559034 139.149214 
L 63.937576 61.599463 
L 64.454529 43.643894 
L 64.971482 32.96483 
L 65.316118 29.167218 
L 65.660753 27.423713 
L 65.833071 27.166087 
L 66.005389 27.241403 
L 66.350025 28.187542 
L 66.866978 30.954687 
L 68.073202 39.633896 
L 69.107109 46.450063 
L 69.968698 50.878096 
L 70.830287 54.196162 
L 71.691876 56.617493 
L 72.553464 58.376879 
L 73.415053 59.674402 
L 74.44896 60.832405 
L 75.655184 61.853035 
L 77.378362 62.998909 
L 80.135446 64.529116 
L 112.703505 81.493874 
L 125.282703 87.764642 
L 136.483358 93.103029 
L 146.994742 98.062652 
L 147.339378 98.451739 
L 147.684013 99.121594 
L 148.028649 100.381384 
L 148.373284 102.804707 
L 148.71792 107.270922 
L 149.062555 114.709599 
L 149.579509 131.930743 
L 151.130369 191.826957 
L 191.452727 191.826957 
L 191.452727 191.826957 
" style="fill:none;opacity:0.7;stroke:#f6d746;stroke-linecap:square;stroke-width:2;"/>
   </g>
   <g id="patch_3">
    <path d="M 10.7 200.06 
L 10.7 10.7 
" style="fill:none;stroke:#000000;stroke-linecap:square;stroke-linejoin:miter;stroke-width:0.8;"/>
   </g>
   <g id="patch_4">
    <path d="M 200.06 200.06 
L 200.06 10.7 
" style="fill:none;stroke:#000000;stroke-linecap:square;stroke-linejoin:miter;stroke-width:0.8;"/>
   </g>
   <g id="patch_5">
    <path d="M 10.7 200.06 
L 200.06 200.06 
" style="fill:none;stroke:#000000;stroke-linecap:square;stroke-linejoin:miter;stroke-width:0.8;"/>
   </g>
   <g id="patch_6">
    <path d="M 10.7 10.7 
L 200.06 10.7 
" style="fill:none;stroke:#000000;stroke-linecap:square;stroke-linejoin:miter;stroke-width:0.8;"/>
   </g>
  </g>
 </g>
 <defs>
  <clipPath id="p3a664cac5a">
   <rect height="189.36" width="189.36" x="10.7" y="10.7"/>
  </clipPath>
 </defs>
</svg>
