<?xml version="1.0" encoding="utf-8" standalone="no"?>
<!DOCTYPE svg PUBLIC "-//W3C//DTD SVG 1.1//EN"
  "http://www.w3.org/Graphics/SVG/1.1/DTD/svg11.dtd">
<!-- Created with matplotlib (http://matplotlib.org/) -->
<svg height="210pt" version="1.1" viewBox="0 0 210 210" width="210pt" xmlns="http://www.w3.org/2000/svg" xmlns:xlink="http://www.w3.org/1999/xlink">
 <defs>
  <style type="text/css">
*{stroke-linecap:butt;stroke-linejoin:round;}
  </style>
 </defs>
 <g id="figure_1">
  <g id="patch_1">
   <path d="M 0 210.76 
L 210.76 210.76 
L 210.76 0 
L 0 0 
z
" style="fill:#ffffff;"/>
  </g>
  <g id="axes_1">
   <g id="patch_2">
    <path d="M 10.7 200.06 
L 200.06 200.06 
L 200.06 10.7 
L 10.7 10.7 
z
" style="fill:#ffffff;"/>
   </g>
   <g id="matplotlib.axis_1"/>
   <g id="matplotlib.axis_2"/>
   <g id="line2d_1">
    <path clip-path="url(#pdaf6748650)" d="M 19.307273 197.005806 
L 61.697445 197.005806 
L 62.04208 191.479633 
L 62.386716 186.932902 
L 62.903669 176.417681 
L 64.454529 140.71988 
L 64.971482 133.934305 
L 65.488436 130.076321 
L 65.833071 128.804053 
L 66.177707 128.319732 
L 66.350025 128.309919 
L 66.69466 128.643267 
L 67.211613 129.748043 
L 68.24552 132.83918 
L 69.451744 136.263322 
L 70.313333 138.155064 
L 71.174922 139.576766 
L 72.036511 140.615392 
L 73.070418 141.494049 
L 74.276642 142.188905 
L 75.827502 142.790687 
L 78.239951 143.443967 
L 83.064848 144.465507 
L 95.816364 146.941653 
L 109.25715 149.322924 
L 123.387207 151.598174 
L 138.378853 153.783714 
L 146.994742 155.074336 
L 147.511695 155.437684 
L 147.856331 155.979068 
L 148.200966 157.041087 
L 148.545602 159.01717 
L 148.890238 162.324048 
L 149.407191 170.003581 
L 150.613415 191.728694 
L 150.785733 197.005806 
L 191.452727 197.005806 
L 191.452727 197.005806 
" style="fill:none;opacity:0.7;stroke:#000004;stroke-linecap:square;stroke-width:2;"/>
   </g>
   <g id="line2d_2">
    <path clip-path="url(#pdaf6748650)" d="M 19.307273 197.005806 
L 63.765258 197.005806 
L 63.937576 192.987075 
L 64.626847 191.635944 
L 65.316118 190.810722 
L 65.833071 190.500719 
L 66.522342 190.376415 
L 67.383931 190.483628 
L 71.691876 191.355954 
L 74.44896 191.503391 
L 80.997035 191.544872 
L 147.684013 191.653022 
L 148.200966 191.871543 
L 148.71792 192.402099 
L 149.062555 192.992746 
L 149.234873 197.005806 
L 191.452727 197.005806 
L 191.452727 197.005806 
" style="fill:none;opacity:0.7;stroke:#050417;stroke-linecap:square;stroke-width:2;"/>
   </g>
   <g id="line2d_3">
    <path clip-path="url(#pdaf6748650)" d="M 19.307273 197.005806 
L 62.731351 197.005806 
L 62.903669 192.61689 
L 64.799165 181.638983 
L 65.316118 180.126183 
L 65.833071 179.313333 
L 66.350025 179.018526 
L 66.866978 179.066495 
L 67.556249 179.424949 
L 70.485651 181.283 
L 71.691876 181.695177 
L 73.242735 181.982658 
L 75.482867 182.146315 
L 80.135446 182.207237 
L 147.339378 182.357596 
L 147.856331 182.634584 
L 148.200966 183.069828 
L 148.545602 183.872365 
L 148.890238 185.174721 
L 149.407191 188.048542 
L 150.096462 192.588115 
L 150.26878 197.005806 
L 191.452727 197.005806 
L 191.452727 197.005806 
" style="fill:none;opacity:0.7;stroke:#110a30;stroke-linecap:square;stroke-width:2;"/>
   </g>
   <g id="line2d_4">
    <path clip-path="url(#pdaf6748650)" d="M 19.307273 197.005806 
L 62.731351 197.005806 
L 62.903669 192.641647 
L 64.799165 181.722572 
L 65.316118 180.217528 
L 65.833071 179.408707 
L 66.350025 179.115202 
L 66.866978 179.162685 
L 67.556249 179.518978 
L 70.485651 181.366458 
L 71.864193 181.819246 
L 73.415053 182.082231 
L 75.827502 182.236058 
L 81.169353 182.284786 
L 147.16706 182.382608 
L 147.684013 182.57243 
L 148.028649 182.880486 
L 148.373284 183.477062 
L 148.71792 184.513607 
L 149.234873 187.036469 
L 150.096462 192.609738 
L 150.26878 197.005806 
L 191.452727 197.005806 
L 191.452727 197.005806 
" style="fill:none;opacity:0.7;stroke:#210c4a;stroke-linecap:square;stroke-width:2;"/>
   </g>
   <g id="line2d_5">
    <path clip-path="url(#pdaf6748650)" d="M 19.307273 197.005806 
L 62.04208 197.005806 
L 62.214398 192.888074 
L 62.559034 189.682316 
L 63.075987 182.601695 
L 64.454529 162.049717 
L 64.971482 157.342029 
L 65.488436 154.554 
L 65.833071 153.566914 
L 66.177707 153.116763 
L 66.522342 153.073457 
L 66.866978 153.323238 
L 67.383931 154.046236 
L 70.313333 158.975242 
L 71.34724 160.00865 
L 72.381147 160.701372 
L 73.587371 161.218276 
L 75.138231 161.615175 
L 77.55068 161.966371 
L 82.892531 162.453195 
L 104.776888 164.172805 
L 128.55674 165.815554 
L 147.16706 167.115595 
L 147.684013 167.490773 
L 148.028649 168.075107 
L 148.373284 169.201832 
L 148.71792 171.181666 
L 149.234873 176.125563 
L 150.441097 191.757293 
L 150.613415 197.005806 
L 191.452727 197.005806 
L 191.452727 197.005806 
" style="fill:none;opacity:0.7;stroke:#340a5f;stroke-linecap:square;stroke-width:2;"/>
   </g>
   <g id="line2d_6">
    <path clip-path="url(#pdaf6748650)" d="M 19.307273 197.005806 
L 63.765258 197.005806 
L 63.937576 192.987075 
L 64.626847 191.635944 
L 65.316118 190.810722 
L 65.833071 190.500719 
L 66.522342 190.376415 
L 67.383931 190.483628 
L 71.691876 191.355954 
L 74.44896 191.503391 
L 80.997035 191.544872 
L 147.684013 191.653022 
L 148.200966 191.871543 
L 148.71792 192.402099 
L 149.062555 192.992746 
L 149.234873 197.005806 
L 191.452727 197.005806 
L 191.452727 197.005806 
" style="fill:none;opacity:0.7;stroke:#450a69;stroke-linecap:square;stroke-width:2;"/>
   </g>
   <g id="line2d_7">
    <path clip-path="url(#pdaf6748650)" d="M 19.307273 197.005806 
L 62.386716 197.005806 
L 62.559034 192.938683 
L 63.075987 188.843161 
L 64.454529 176.368381 
L 64.971482 173.401352 
L 65.488436 171.60029 
L 65.833071 170.936671 
L 66.177707 170.60724 
L 66.522342 170.533079 
L 67.039296 170.751066 
L 67.728567 171.380429 
L 69.968698 173.634033 
L 71.002604 174.311274 
L 72.208829 174.818897 
L 73.587371 175.148189 
L 75.655184 175.379908 
L 79.618493 175.535706 
L 109.429468 176.100342 
L 147.16706 176.845408 
L 147.684013 177.104754 
L 148.028649 177.5191 
L 148.373284 178.320091 
L 148.71792 179.717187 
L 149.234873 183.147833 
L 150.26878 192.300378 
L 150.441097 197.005806 
L 191.452727 197.005806 
L 191.452727 197.005806 
" style="fill:none;opacity:0.7;stroke:#57106e;stroke-linecap:square;stroke-width:2;"/>
   </g>
   <g id="line2d_8">
    <path clip-path="url(#pdaf6748650)" d="M 19.307273 197.005806 
L 63.937576 197.005806 
L 64.109894 193.338991 
L 64.799165 192.319147 
L 65.488436 191.737119 
L 66.177707 191.506456 
L 67.039296 191.516642 
L 68.762473 191.865544 
L 71.002604 192.231172 
L 73.587371 192.39632 
L 78.929222 192.451938 
L 148.028649 192.644075 
L 148.545602 192.983413 
L 148.71792 193.168856 
L 148.890238 197.005806 
L 191.452727 197.005806 
L 191.452727 197.005806 
" style="fill:none;opacity:0.7;stroke:#69166e;stroke-linecap:square;stroke-width:2;"/>
   </g>
   <g id="line2d_9">
    <path clip-path="url(#pdaf6748650)" d="M 19.307273 197.005806 
L 62.903669 197.005806 
L 63.075987 192.698339 
L 64.626847 185.248464 
L 65.1438 183.809874 
L 65.660753 182.97626 
L 66.177707 182.610656 
L 66.69466 182.566837 
L 67.383931 182.799058 
L 71.002604 184.539176 
L 72.553464 184.857269 
L 74.621278 185.037207 
L 78.584586 185.114171 
L 103.742981 185.118504 
L 147.339378 185.222916 
L 147.856331 185.45009 
L 148.200966 185.806435 
L 148.545602 186.461551 
L 149.062555 188.208844 
L 149.924144 192.59407 
L 150.096462 197.005806 
L 191.452727 197.005806 
L 191.452727 197.005806 
" style="fill:none;opacity:0.7;stroke:#7a1d6d;stroke-linecap:square;stroke-width:2;"/>
   </g>
   <g id="line2d_10">
    <path clip-path="url(#pdaf6748650)" d="M 19.307273 197.005806 
L 191.452727 197.005806 
L 191.452727 197.005806 
" style="fill:none;opacity:0.7;stroke:#8c2369;stroke-linecap:square;stroke-width:2;"/>
   </g>
   <g id="line2d_11">
    <path clip-path="url(#pdaf6748650)" d="M 19.307273 197.005806 
L 61.525127 197.005806 
L 61.869762 191.602511 
L 62.214398 186.875732 
L 62.731351 175.236133 
L 64.454529 127.851254 
L 64.971482 120.126014 
L 65.488436 115.85605 
L 65.833071 114.521495 
L 66.177707 114.093976 
L 66.350025 114.145653 
L 66.69466 114.648877 
L 67.211613 116.08033 
L 68.590156 121.159153 
L 69.624062 124.520452 
L 70.485651 126.672992 
L 71.34724 128.280808 
L 72.208829 129.458118 
L 73.242735 130.465353 
L 74.44896 131.280952 
L 75.99982 132.01524 
L 78.239951 132.800411 
L 82.547895 134.033448 
L 93.74855 137.00554 
L 105.293841 139.837872 
L 117.183767 142.525182 
L 129.590647 145.099554 
L 142.51448 147.552642 
L 146.822424 148.417374 
L 147.339378 148.725458 
L 147.684013 149.156154 
L 148.028649 149.996587 
L 148.373284 151.612473 
L 148.71792 154.498815 
L 149.234873 161.976614 
L 150.26878 183.770974 
L 150.613415 190.447109 
L 150.785733 197.005806 
L 191.452727 197.005806 
L 191.452727 197.005806 
" style="fill:none;opacity:0.7;stroke:#9b2964;stroke-linecap:square;stroke-width:2;"/>
   </g>
   <g id="line2d_12">
    <path clip-path="url(#pdaf6748650)" d="M 19.307273 197.005806 
L 191.452727 197.005806 
L 191.452727 197.005806 
" style="fill:none;opacity:0.7;stroke:#ad305d;stroke-linecap:square;stroke-width:2;"/>
   </g>
   <g id="line2d_13">
    <path clip-path="url(#pdaf6748650)" d="M 19.307273 197.005806 
L 61.869762 197.005806 
L 62.214398 190.860317 
L 62.731351 183.23989 
L 63.765258 161.099379 
L 64.454529 148.740212 
L 64.971482 142.66181 
L 65.488436 139.149964 
L 65.833071 137.958028 
L 66.177707 137.467187 
L 66.522342 137.503311 
L 66.866978 137.915585 
L 67.383931 138.974667 
L 70.141016 145.512501 
L 71.002604 146.817025 
L 71.864193 147.769866 
L 72.8981 148.569315 
L 74.104324 149.189131 
L 75.655184 149.707199 
L 78.067633 150.241277 
L 83.064848 151.066157 
L 97.884177 153.278709 
L 113.565094 155.391539 
L 130.279918 157.41601 
L 147.16706 159.433946 
L 147.511695 159.686369 
L 147.856331 160.184763 
L 148.200966 161.165927 
L 148.545602 162.988298 
L 148.890238 166.021602 
L 149.407191 173.002543 
L 150.958051 197.005806 
L 191.452727 197.005806 
L 191.452727 197.005806 
" style="fill:none;opacity:0.7;stroke:#bd3853;stroke-linecap:square;stroke-width:2;"/>
   </g>
   <g id="line2d_14">
    <path clip-path="url(#pdaf6748650)" d="M 19.307273 197.005806 
L 191.452727 197.005806 
L 191.452727 197.005806 
" style="fill:none;opacity:0.7;stroke:#cc4248;stroke-linecap:square;stroke-width:2;"/>
   </g>
   <g id="line2d_15">
    <path clip-path="url(#pdaf6748650)" d="M 19.307273 197.005806 
L 191.452727 197.005806 
L 191.452727 197.005806 
" style="fill:none;opacity:0.7;stroke:#d94d3d;stroke-linecap:square;stroke-width:2;"/>
   </g>
   <g id="line2d_16">
    <path clip-path="url(#pdaf6748650)" d="M 19.307273 197.005806 
L 191.452727 197.005806 
L 191.452727 197.005806 
" style="fill:none;opacity:0.7;stroke:#e55c30;stroke-linecap:square;stroke-width:2;"/>
   </g>
   <g id="line2d_17">
    <path clip-path="url(#pdaf6748650)" d="M 19.307273 197.005806 
L 61.697445 197.005806 
L 62.04208 190.010601 
L 62.386716 184.402554 
L 62.903669 171.781175 
L 64.282211 134.131379 
L 64.799165 125.360051 
L 65.316118 120.133758 
L 65.660753 118.272275 
L 66.005389 117.415956 
L 66.177707 117.288639 
L 66.350025 117.324565 
L 66.69466 117.786802 
L 67.211613 119.142719 
L 68.417838 123.406096 
L 69.624062 127.248366 
L 70.485651 129.322542 
L 71.34724 130.871575 
L 72.208829 132.00483 
L 73.242735 132.972631 
L 74.44896 133.75385 
L 75.99982 134.453908 
L 78.412269 135.249144 
L 83.064848 136.495633 
L 94.610139 139.367284 
L 106.500066 142.092294 
L 118.734627 144.668179 
L 131.65846 147.158693 
L 145.443882 149.582097 
L 146.822424 149.901376 
L 147.339378 150.20067 
L 147.684013 150.621772 
L 148.028649 151.445336 
L 148.373284 153.029002 
L 148.71792 155.853752 
L 149.234873 163.148581 
L 150.26878 184.29482 
L 150.613415 190.750411 
L 150.785733 197.005806 
L 191.452727 197.005806 
L 191.452727 197.005806 
" style="fill:none;opacity:0.7;stroke:#ef6c23;stroke-linecap:square;stroke-width:2;"/>
   </g>
   <g id="line2d_18">
    <path clip-path="url(#pdaf6748650)" d="M 19.307273 197.005806 
L 191.452727 197.005806 
L 191.452727 197.005806 
" style="fill:none;opacity:0.7;stroke:#f67e14;stroke-linecap:square;stroke-width:2;"/>
   </g>
   <g id="line2d_19">
    <path clip-path="url(#pdaf6748650)" d="M 19.307273 197.005806 
L 191.452727 197.005806 
L 191.452727 197.005806 
" style="fill:none;opacity:0.7;stroke:#fa9207;stroke-linecap:square;stroke-width:2;"/>
   </g>
   <g id="line2d_20">
    <path clip-path="url(#pdaf6748650)" d="M 19.307273 197.005806 
L 191.452727 197.005806 
L 191.452727 197.005806 
" style="fill:none;opacity:0.7;stroke:#fca50a;stroke-linecap:square;stroke-width:2;"/>
   </g>
   <g id="patch_3">
    <path d="M 10.7 200.06 
L 10.7 10.7 
" style="fill:none;stroke:#000000;stroke-linecap:square;stroke-linejoin:miter;stroke-width:0.8;"/>
   </g>
   <g id="patch_4">
    <path d="M 200.06 200.06 
L 200.06 10.7 
" style="fill:none;stroke:#000000;stroke-linecap:square;stroke-linejoin:miter;stroke-width:0.8;"/>
   </g>
   <g id="patch_5">
    <path d="M 10.7 200.06 
L 200.06 200.06 
" style="fill:none;stroke:#000000;stroke-linecap:square;stroke-linejoin:miter;stroke-width:0.8;"/>
   </g>
   <g id="patch_6">
    <path d="M 10.7 10.7 
L 200.06 10.7 
" style="fill:none;stroke:#000000;stroke-linecap:square;stroke-linejoin:miter;stroke-width:0.8;"/>
   </g>
  </g>
 </g>
 <defs>
  <clipPath id="pdaf6748650">
   <rect height="189.36" width="189.36" x="10.7" y="10.7"/>
  </clipPath>
 </defs>
</svg>
