<?xml version="1.0" encoding="utf-8" standalone="no"?>
<!DOCTYPE svg PUBLIC "-//W3C//DTD SVG 1.1//EN"
  "http://www.w3.org/Graphics/SVG/1.1/DTD/svg11.dtd">
<!-- Created with matplotlib (http://matplotlib.org/) -->
<svg height="210pt" version="1.1" viewBox="0 0 210 210" width="210pt" xmlns="http://www.w3.org/2000/svg" xmlns:xlink="http://www.w3.org/1999/xlink">
 <defs>
  <style type="text/css">
*{stroke-linecap:butt;stroke-linejoin:round;}
  </style>
 </defs>
 <g id="figure_1">
  <g id="patch_1">
   <path d="M 0 210.76 
L 210.76 210.76 
L 210.76 0 
L 0 0 
z
" style="fill:#ffffff;"/>
  </g>
  <g id="axes_1">
   <g id="patch_2">
    <path d="M 10.7 200.06 
L 200.06 200.06 
L 200.06 10.7 
L 10.7 10.7 
z
" style="fill:#ffffff;"/>
   </g>
   <g id="matplotlib.axis_1"/>
   <g id="matplotlib.axis_2"/>
   <g id="line2d_1">
    <path clip-path="url(#p4bf371e62a)" d="M 19.307273 191.826957 
L 53.426192 191.826957 
L 53.598509 185.552181 
L 54.287781 183.246866 
L 54.977052 180.174302 
L 55.666323 176.125787 
L 56.355594 170.87111 
L 57.217183 162.26342 
L 58.078771 151.100663 
L 59.112678 134.356667 
L 60.663538 104.623096 
L 62.386716 72.57908 
L 63.420622 57.326792 
L 64.282211 47.555246 
L 65.1438 40.29791 
L 65.833071 36.041549 
L 66.522342 32.908638 
L 67.211613 30.67344 
L 67.900885 29.137628 
L 68.590156 28.136506 
L 69.279427 27.53845 
L 69.968698 27.241042 
L 70.657969 27.166087 
L 71.519558 27.296981 
L 72.553464 27.67773 
L 74.104324 28.520884 
L 76.516773 30.136862 
L 83.237166 35.041287 
L 91.680737 41.065768 
L 99.779672 46.56831 
L 107.70629 51.689011 
L 115.805225 56.654899 
L 123.904161 61.359579 
L 137.689582 69.261336 
L 139.240442 70.545499 
L 140.446667 71.86655 
L 141.480573 73.390233 
L 142.342162 75.088969 
L 143.203751 77.355736 
L 144.06534 80.413053 
L 144.926929 84.534162 
L 145.788518 90.018436 
L 146.650106 97.12957 
L 147.684013 107.96443 
L 148.890238 123.303412 
L 151.475004 157.326788 
L 152.508911 167.84026 
L 153.3705 174.62516 
L 154.232088 179.749553 
L 155.093677 183.488871 
L 155.610631 185.195898 
L 155.782948 191.826957 
L 191.452727 191.826957 
L 191.452727 191.826957 
" style="fill:none;opacity:0.7;stroke:#b93556;stroke-linecap:square;stroke-width:2;"/>
   </g>
   <g id="line2d_2">
    <path clip-path="url(#p4bf371e62a)" d="M 19.307273 191.826957 
L 57.561818 191.826957 
L 57.734136 171.8553 
L 58.595725 163.500986 
L 59.457314 152.662106 
L 60.49122 136.364164 
L 62.04208 107.263694 
L 63.765258 75.60051 
L 64.799165 60.381664 
L 65.660753 50.530236 
L 66.522342 43.105566 
L 67.383931 37.727873 
L 68.073202 34.601636 
L 68.762473 32.288457 
L 69.451744 30.604442 
L 70.141016 29.398894 
L 70.830287 28.552575 
L 71.691876 27.861777 
L 72.553464 27.457738 
L 73.587371 27.223949 
L 74.965913 27.173526 
L 76.861409 27.360386 
L 80.135446 27.95099 
L 121.664029 36.239342 
L 134.243227 38.659062 
L 136.31104 39.287681 
L 137.689582 39.914447 
L 138.723489 40.595267 
L 139.585078 41.386455 
L 140.446667 42.482832 
L 141.308256 44.022403 
L 141.997527 45.700062 
L 142.686798 47.911313 
L 143.376069 50.813666 
L 144.06534 54.591398 
L 144.754611 59.444966 
L 145.6162 67.31597 
L 146.477789 77.430131 
L 147.511695 92.483095 
L 149.234873 122.015677 
L 150.785733 147.403209 
L 151.81964 160.973934 
L 152.681229 169.762285 
L 152.853546 171.254249 
L 153.025864 191.826957 
L 191.452727 191.826957 
L 191.452727 191.826957 
" style="fill:none;opacity:0.7;stroke:#de5238;stroke-linecap:square;stroke-width:2;"/>
   </g>
   <g id="line2d_3">
    <path clip-path="url(#p4bf371e62a)" d="M 19.307273 191.826957 
L 52.909238 191.826957 
L 53.081556 186.107695 
L 53.770827 183.998209 
L 54.460098 181.178579 
L 55.149369 177.449186 
L 55.83864 172.584546 
L 56.527912 166.352809 
L 57.3895 156.348185 
L 58.251089 143.744709 
L 59.457314 122.29057 
L 62.386716 67.771402 
L 63.420622 53.662426 
L 64.282211 44.81764 
L 65.1438 38.354145 
L 65.833071 34.612703 
L 66.522342 31.890084 
L 67.211613 29.972721 
L 67.900885 28.677896 
L 68.590156 27.856492 
L 69.279427 27.390722 
L 69.968698 27.189658 
L 70.830287 27.207067 
L 71.864193 27.497228 
L 73.242735 28.164442 
L 75.138231 29.355418 
L 78.756904 31.943341 
L 92.714644 42.074465 
L 101.330532 48.008569 
L 109.774103 53.5566 
L 118.045356 58.729929 
L 126.488927 63.746302 
L 137.172629 70.052827 
L 138.895807 71.394931 
L 140.102031 72.600463 
L 141.135938 73.947111 
L 141.997527 75.415609 
L 142.859115 77.347395 
L 143.720704 79.93307 
L 144.582293 83.416546 
L 145.443882 88.084389 
L 146.305471 94.22643 
L 147.16706 102.054273 
L 148.200966 113.670278 
L 149.751826 134.183691 
L 151.475004 156.362282 
L 152.508911 167.04097 
L 153.3705 173.988389 
L 154.232088 179.264906 
L 155.093677 183.131303 
L 155.955266 185.890689 
L 156.127584 191.826957 
L 191.452727 191.826957 
L 191.452727 191.826957 
" style="fill:none;opacity:0.7;stroke:#e8602d;stroke-linecap:square;stroke-width:2;"/>
   </g>
   <g id="line2d_4">
    <path clip-path="url(#p4bf371e62a)" d="M 19.307273 191.826957 
L 57.561818 191.826957 
L 57.734136 171.8553 
L 58.595725 163.500986 
L 59.457314 152.662106 
L 60.49122 136.364164 
L 62.04208 107.263694 
L 63.765258 75.60051 
L 64.799165 60.381664 
L 65.660753 50.530236 
L 66.522342 43.105566 
L 67.383931 37.727873 
L 68.073202 34.601636 
L 68.762473 32.288457 
L 69.451744 30.604442 
L 70.141016 29.398894 
L 70.830287 28.552575 
L 71.691876 27.861777 
L 72.553464 27.457738 
L 73.587371 27.223949 
L 74.965913 27.173526 
L 76.861409 27.360386 
L 80.135446 27.95099 
L 121.664029 36.239342 
L 134.243227 38.659062 
L 136.31104 39.287681 
L 137.689582 39.914447 
L 138.723489 40.595267 
L 139.585078 41.386455 
L 140.446667 42.482832 
L 141.308256 44.022403 
L 141.997527 45.700062 
L 142.686798 47.911313 
L 143.376069 50.813666 
L 144.06534 54.591398 
L 144.754611 59.444966 
L 145.6162 67.31597 
L 146.477789 77.430131 
L 147.511695 92.483095 
L 149.234873 122.015677 
L 150.785733 147.403209 
L 151.81964 160.973934 
L 152.681229 169.762285 
L 152.853546 171.254249 
L 153.025864 191.826957 
L 191.452727 191.826957 
L 191.452727 191.826957 
" style="fill:none;opacity:0.7;stroke:#f98e09;stroke-linecap:square;stroke-width:2;"/>
   </g>
   <g id="line2d_5">
    <path clip-path="url(#p4bf371e62a)" d="M 19.307273 191.826957 
L 55.321687 191.826957 
L 55.494005 181.872315 
L 56.183276 178.326961 
L 56.872547 173.691706 
L 57.561818 167.736084 
L 58.423407 158.125254 
L 59.284996 145.909643 
L 60.318903 128.082696 
L 63.937576 62.195862 
L 64.799165 51.428676 
L 65.660753 43.261996 
L 66.522342 37.361422 
L 67.211613 33.97082 
L 67.900885 31.512635 
L 68.590156 29.782487 
L 69.279427 28.609473 
L 69.968698 27.856475 
L 70.657969 27.416592 
L 71.34724 27.208153 
L 72.208829 27.180933 
L 73.242735 27.3802 
L 74.621278 27.884747 
L 76.689091 28.898589 
L 81.169353 31.409747 
L 90.991466 36.892151 
L 99.262719 41.242839 
L 107.878608 45.520835 
L 116.666814 49.635022 
L 125.799656 53.664529 
L 135.794087 58.056979 
L 137.689582 59.170882 
L 138.895807 60.102972 
L 139.929713 61.156739 
L 140.791302 62.318394 
L 141.652891 63.86321 
L 142.51448 65.957015 
L 143.203751 68.174515 
L 143.893022 71.025546 
L 144.582293 74.671994 
L 145.443882 80.607413 
L 146.305471 88.34087 
L 147.339378 100.161981 
L 148.545602 116.930198 
L 151.130369 154.160428 
L 152.164275 165.665732 
L 153.025864 173.090063 
L 153.887453 178.69691 
L 154.576724 182.074718 
L 154.749042 191.826957 
L 191.452727 191.826957 
L 191.452727 191.826957 
" style="fill:none;opacity:0.7;stroke:#fca108;stroke-linecap:square;stroke-width:2;"/>
   </g>
   <g id="line2d_6">
    <path clip-path="url(#p4bf371e62a)" d="M 19.307273 191.826957 
L 53.081556 191.826957 
L 53.253874 185.86428 
L 53.943145 183.670036 
L 54.632416 180.740736 
L 55.321687 176.872636 
L 56.010958 171.837908 
L 56.872547 163.555622 
L 57.734136 152.752285 
L 58.768043 136.409963 
L 60.146585 110.380182 
L 62.04208 74.605507 
L 63.075987 58.944805 
L 63.937576 48.811774 
L 64.799165 41.225485 
L 65.660753 35.816112 
L 66.350025 32.752041 
L 67.039296 30.56846 
L 67.728567 29.070347 
L 68.417838 28.096169 
L 69.107109 27.517018 
L 69.79638 27.232664 
L 70.485651 27.166607 
L 71.34724 27.304679 
L 72.553464 27.771682 
L 74.104324 28.64472 
L 76.689091 30.404601 
L 84.788026 36.355257 
L 93.74855 42.764281 
L 102.192121 48.529062 
L 110.463374 53.909333 
L 118.734627 59.024072 
L 127.00588 63.87876 
L 137.000311 69.719959 
L 138.723489 71.02903 
L 139.929713 72.195516 
L 140.96362 73.490501 
L 141.825209 74.896479 
L 142.686798 76.740816 
L 143.548387 79.20604 
L 144.409975 82.528139 
L 145.271564 86.989134 
L 146.133153 92.883365 
L 146.994742 100.443202 
L 148.028649 111.770545 
L 149.407191 129.756612 
L 151.475004 156.638661 
L 152.508911 167.267391 
L 153.3705 174.167705 
L 154.232088 179.400776 
L 155.093677 183.231142 
L 155.955266 185.962647 
L 156.127584 191.826957 
L 191.452727 191.826957 
L 191.452727 191.826957 
" style="fill:none;opacity:0.7;stroke:#fcb216;stroke-linecap:square;stroke-width:2;"/>
   </g>
   <g id="patch_3">
    <path d="M 10.7 200.06 
L 10.7 10.7 
" style="fill:none;stroke:#000000;stroke-linecap:square;stroke-linejoin:miter;stroke-width:0.8;"/>
   </g>
   <g id="patch_4">
    <path d="M 200.06 200.06 
L 200.06 10.7 
" style="fill:none;stroke:#000000;stroke-linecap:square;stroke-linejoin:miter;stroke-width:0.8;"/>
   </g>
   <g id="patch_5">
    <path d="M 10.7 200.06 
L 200.06 200.06 
" style="fill:none;stroke:#000000;stroke-linecap:square;stroke-linejoin:miter;stroke-width:0.8;"/>
   </g>
   <g id="patch_6">
    <path d="M 10.7 10.7 
L 200.06 10.7 
" style="fill:none;stroke:#000000;stroke-linecap:square;stroke-linejoin:miter;stroke-width:0.8;"/>
   </g>
  </g>
 </g>
 <defs>
  <clipPath id="p4bf371e62a">
   <rect height="189.36" width="189.36" x="10.7" y="10.7"/>
  </clipPath>
 </defs>
</svg>
