<?xml version="1.0" encoding="utf-8" standalone="no"?>
<!DOCTYPE svg PUBLIC "-//W3C//DTD SVG 1.1//EN"
  "http://www.w3.org/Graphics/SVG/1.1/DTD/svg11.dtd">
<!-- Created with matplotlib (http://matplotlib.org/) -->
<svg height="210pt" version="1.1" viewBox="0 0 210 210" width="210pt" xmlns="http://www.w3.org/2000/svg" xmlns:xlink="http://www.w3.org/1999/xlink">
 <defs>
  <style type="text/css">
*{stroke-linecap:butt;stroke-linejoin:round;}
  </style>
 </defs>
 <g id="figure_1">
  <g id="patch_1">
   <path d="M 0 210.76 
L 210.76 210.76 
L 210.76 0 
L 0 0 
z
" style="fill:#ffffff;"/>
  </g>
  <g id="axes_1">
   <g id="patch_2">
    <path d="M 10.7 200.06 
L 200.06 200.06 
L 200.06 10.7 
L 10.7 10.7 
z
" style="fill:#ffffff;"/>
   </g>
   <g id="matplotlib.axis_1"/>
   <g id="matplotlib.axis_2"/>
   <g id="line2d_1">
    <path clip-path="url(#paad56278d5)" d="M 19.307273 191.826957 
L 64.454529 191.826957 
L 64.626847 109.038878 
L 65.660753 71.903759 
L 66.350025 53.332284 
L 67.039296 40.193153 
L 67.556249 33.633411 
L 68.073202 29.536004 
L 68.417838 27.988827 
L 68.762473 27.258775 
L 68.934791 27.166087 
L 69.107109 27.237405 
L 69.451744 27.821799 
L 69.79638 28.916012 
L 70.313333 31.322718 
L 71.174922 36.751946 
L 72.8981 49.814521 
L 74.621278 62.357414 
L 75.99982 70.759557 
L 77.206044 76.729634 
L 78.239951 80.874922 
L 79.273857 84.225008 
L 80.307764 86.893554 
L 81.341671 88.993906 
L 82.375577 90.630457 
L 83.409484 91.894695 
L 84.615708 93.001662 
L 85.821933 93.806712 
L 87.200475 94.456181 
L 88.751335 94.944206 
L 90.64683 95.312119 
L 93.231597 95.577528 
L 97.022588 95.725341 
L 109.601785 95.730986 
L 146.650106 95.833783 
L 147.16706 96.069357 
L 147.511695 96.473033 
L 147.856331 97.331687 
L 148.200966 99.075947 
L 148.545602 102.352221 
L 148.890238 107.856432 
L 149.062555 191.826957 
L 191.452727 191.826957 
L 191.452727 191.826957 
" style="fill:none;opacity:0.7;stroke:#61136e;stroke-linecap:square;stroke-width:2;"/>
   </g>
   <g id="line2d_2">
    <path clip-path="url(#paad56278d5)" d="M 19.307273 191.826957 
L 62.559034 191.826957 
L 62.731351 176.094053 
L 63.248305 161.249505 
L 64.109894 127.685216 
L 65.488436 74.738688 
L 66.177707 55.181296 
L 66.866978 41.240138 
L 67.383931 34.228825 
L 67.900885 29.809761 
L 68.24552 28.116174 
L 68.590156 27.289662 
L 68.762473 27.166087 
L 68.934791 27.217297 
L 69.279427 27.791419 
L 69.624062 28.911297 
L 70.141016 31.413714 
L 71.002604 37.119383 
L 72.553464 49.559973 
L 74.44896 64.404327 
L 75.827502 73.470587 
L 77.033726 79.965388 
L 78.239951 85.189374 
L 79.273857 88.776718 
L 80.307764 91.66712 
L 81.341671 93.977769 
L 82.375577 95.815924 
L 83.581802 97.48732 
L 84.788026 98.766028 
L 86.166568 99.871601 
L 87.717428 100.792951 
L 89.440606 101.547723 
L 91.680737 102.267681 
L 94.782457 103.003008 
L 98.745766 103.714579 
L 115.46059 106.298669 
L 133.381638 108.841964 
L 146.994742 110.802084 
L 147.339378 111.050485 
L 147.684013 111.537301 
L 148.028649 112.512898 
L 148.373284 114.412338 
L 148.71792 117.837724 
L 149.062555 123.352319 
L 149.579509 135.879311 
L 150.441097 164.470449 
L 150.613415 170.614881 
L 150.785733 191.826957 
L 191.452727 191.826957 
L 191.452727 191.826957 
" style="fill:none;opacity:0.7;stroke:#6f196e;stroke-linecap:square;stroke-width:2;"/>
   </g>
   <g id="line2d_3">
    <path clip-path="url(#paad56278d5)" d="M 19.307273 191.826957 
L 62.386716 191.826957 
L 62.559034 178.728156 
L 63.075987 165.095852 
L 63.765258 139.484368 
L 65.488436 72.598355 
L 66.177707 53.492115 
L 66.866978 40.040144 
L 67.383931 33.388021 
L 67.900885 29.307424 
L 68.24552 27.824618 
L 68.590156 27.195828 
L 68.762473 27.166087 
L 68.934791 27.307769 
L 69.279427 28.052839 
L 69.79638 30.140204 
L 70.485651 34.271841 
L 71.519558 42.189806 
L 74.793595 68.554985 
L 76.172138 77.360756 
L 77.378362 83.612853 
L 78.584586 88.62418 
L 79.618493 92.066478 
L 80.6524 94.849149 
L 81.686306 97.087769 
L 82.892531 99.149209 
L 84.098755 100.749905 
L 85.30498 102.002456 
L 86.683522 103.120043 
L 88.234382 104.093865 
L 90.129877 105.014403 
L 92.542326 105.928128 
L 95.988681 106.975474 
L 100.641261 108.139917 
L 113.048141 111.024257 
L 125.971974 113.79898 
L 139.585078 116.492912 
L 146.822424 117.9348 
L 147.339378 118.250493 
L 147.684013 118.691309 
L 148.028649 119.552283 
L 148.373284 121.21498 
L 148.71792 124.221548 
L 149.062555 129.103014 
L 149.579509 140.332971 
L 150.441097 166.349759 
L 150.785733 177.593698 
L 150.958051 191.826957 
L 191.452727 191.826957 
L 191.452727 191.826957 
" style="fill:none;opacity:0.7;stroke:#9b2964;stroke-linecap:square;stroke-width:2;"/>
   </g>
   <g id="line2d_4">
    <path clip-path="url(#paad56278d5)" d="M 19.307273 191.826957 
L 61.525127 191.826957 
L 61.869762 184.413745 
L 62.214398 178.514459 
L 62.731351 164.608402 
L 63.59294 131.588221 
L 64.971482 77.456319 
L 65.833071 52.857039 
L 66.522342 39.568578 
L 67.039296 33.048174 
L 67.556249 29.101425 
L 67.900885 27.707355 
L 68.24552 27.166087 
L 68.417838 27.179495 
L 68.762473 27.705869 
L 69.107109 28.812055 
L 69.624062 31.349575 
L 70.313333 35.93279 
L 71.519558 45.754261 
L 74.104324 67.211211 
L 75.482867 76.665317 
L 76.689091 83.466099 
L 77.895315 88.977334 
L 79.10154 93.367678 
L 80.307764 96.830026 
L 81.513989 99.549841 
L 82.720213 101.690353 
L 83.926437 103.387622 
L 85.30498 104.923673 
L 86.855839 106.284196 
L 88.579017 107.487843 
L 90.819148 108.751718 
L 93.74855 110.123343 
L 97.711859 111.72272 
L 109.601785 116.090288 
L 121.147076 120.102777 
L 132.347731 123.762619 
L 143.376069 127.135238 
L 146.994742 128.279137 
L 147.511695 128.627464 
L 147.856331 129.066452 
L 148.200966 129.881902 
L 148.545602 131.412742 
L 148.890238 134.13437 
L 149.234873 138.501709 
L 149.751826 148.44112 
L 150.613415 171.224272 
L 151.302686 191.826957 
L 191.452727 191.826957 
L 191.452727 191.826957 
" style="fill:none;opacity:0.7;stroke:#c73e4c;stroke-linecap:square;stroke-width:2;"/>
   </g>
   <g id="line2d_5">
    <path clip-path="url(#paad56278d5)" d="M 19.307273 191.826957 
L 63.937576 191.826957 
L 64.109894 130.257452 
L 65.488436 77.448528 
L 66.350025 53.329669 
L 67.039296 40.169895 
L 67.556249 33.607176 
L 68.073202 29.514873 
L 68.417838 27.974578 
L 68.762473 27.253579 
L 68.934791 27.166087 
L 69.107109 27.242978 
L 69.451744 27.839458 
L 69.968698 29.66396 
L 70.657969 33.389699 
L 71.691876 40.629658 
L 74.965913 64.833602 
L 76.172138 71.939951 
L 77.378362 77.751558 
L 78.412269 81.771852 
L 79.446175 85.012158 
L 80.480082 87.587534 
L 81.513989 89.61079 
L 82.547895 91.184786 
L 83.581802 92.399052 
L 84.788026 93.460924 
L 85.994251 94.232263 
L 87.372793 94.853861 
L 89.095971 95.360807 
L 91.163784 95.717565 
L 93.920868 95.956363 
L 97.884177 96.066341 
L 146.822424 96.219086 
L 147.16706 96.40289 
L 147.511695 96.803422 
L 147.856331 97.655851 
L 148.200966 99.3892 
L 148.545602 102.650137 
L 148.890238 108.139812 
L 149.407191 121.291753 
L 149.579509 126.888603 
L 149.751826 191.826957 
L 191.452727 191.826957 
L 191.452727 191.826957 
" style="fill:none;opacity:0.7;stroke:#d34743;stroke-linecap:square;stroke-width:2;"/>
   </g>
   <g id="line2d_6">
    <path clip-path="url(#paad56278d5)" d="M 19.307273 191.826957 
L 63.59294 191.826957 
L 63.765258 144.188473 
L 65.660753 71.87967 
L 66.350025 53.25338 
L 67.039296 40.102634 
L 67.556249 33.554194 
L 68.073202 29.480094 
L 68.417838 27.953281 
L 68.762473 27.246389 
L 68.934791 27.166087 
L 69.107109 27.250214 
L 69.451744 27.861193 
L 69.968698 29.707167 
L 70.657969 33.460314 
L 71.691876 40.737466 
L 74.965913 65.023496 
L 76.172138 72.148295 
L 77.378362 77.973717 
L 78.412269 82.002945 
L 79.446175 85.250085 
L 80.480082 87.830654 
L 81.513989 89.857832 
L 82.547895 91.434775 
L 83.581802 92.651244 
L 84.788026 93.714987 
L 85.994251 94.487648 
L 87.372793 95.110282 
L 89.095971 95.618048 
L 91.163784 95.975367 
L 93.920868 96.214527 
L 97.884177 96.324508 
L 146.822424 96.475171 
L 147.16706 96.656508 
L 147.511695 97.051801 
L 147.856331 97.893683 
L 148.200966 99.607838 
L 148.545602 102.839411 
L 148.890238 108.294443 
L 149.407191 121.410301 
L 149.924144 139.563655 
L 150.096462 191.826957 
L 191.452727 191.826957 
L 191.452727 191.826957 
" style="fill:none;opacity:0.7;stroke:#e8602d;stroke-linecap:square;stroke-width:2;"/>
   </g>
   <g id="line2d_7">
    <path clip-path="url(#paad56278d5)" d="M 19.307273 191.826957 
L 62.903669 191.826957 
L 63.075987 167.748359 
L 63.765258 143.280039 
L 65.660753 70.688749 
L 66.350025 52.260622 
L 67.039296 39.363334 
L 67.556249 33.01923 
L 68.073202 29.150684 
L 68.417838 27.75839 
L 68.762473 27.182495 
L 68.934791 27.166087 
L 69.107109 27.312927 
L 69.451744 28.045546 
L 69.968698 30.063958 
L 70.657969 34.027772 
L 71.691876 41.581114 
L 74.793595 65.346213 
L 75.99982 72.828202 
L 77.206044 78.985832 
L 78.412269 83.904715 
L 79.446175 87.258244 
L 80.480082 89.93925 
L 81.513989 92.062456 
L 82.547895 93.732153 
L 83.75412 95.227004 
L 84.960344 96.346529 
L 86.338886 97.28664 
L 87.889746 98.037501 
L 89.612924 98.616696 
L 91.853055 99.123028 
L 94.954775 99.579434 
L 99.090401 99.963332 
L 127.695152 102.078444 
L 146.822424 103.51052 
L 147.339378 103.841736 
L 147.684013 104.369742 
L 148.028649 105.452514 
L 148.373284 107.576153 
L 148.71792 111.399703 
L 149.062555 117.517698 
L 149.579509 131.288056 
L 150.441097 162.378841 
L 150.613415 169.025645 
L 150.785733 191.826957 
L 191.452727 191.826957 
L 191.452727 191.826957 
" style="fill:none;opacity:0.7;stroke:#fac42a;stroke-linecap:square;stroke-width:2;"/>
   </g>
   <g id="patch_3">
    <path d="M 10.7 200.06 
L 10.7 10.7 
" style="fill:none;stroke:#000000;stroke-linecap:square;stroke-linejoin:miter;stroke-width:0.8;"/>
   </g>
   <g id="patch_4">
    <path d="M 200.06 200.06 
L 200.06 10.7 
" style="fill:none;stroke:#000000;stroke-linecap:square;stroke-linejoin:miter;stroke-width:0.8;"/>
   </g>
   <g id="patch_5">
    <path d="M 10.7 200.06 
L 200.06 200.06 
" style="fill:none;stroke:#000000;stroke-linecap:square;stroke-linejoin:miter;stroke-width:0.8;"/>
   </g>
   <g id="patch_6">
    <path d="M 10.7 10.7 
L 200.06 10.7 
" style="fill:none;stroke:#000000;stroke-linecap:square;stroke-linejoin:miter;stroke-width:0.8;"/>
   </g>
  </g>
 </g>
 <defs>
  <clipPath id="paad56278d5">
   <rect height="189.36" width="189.36" x="10.7" y="10.7"/>
  </clipPath>
 </defs>
</svg>
