<?xml version="1.0" encoding="utf-8" standalone="no"?>
<!DOCTYPE svg PUBLIC "-//W3C//DTD SVG 1.1//EN"
  "http://www.w3.org/Graphics/SVG/1.1/DTD/svg11.dtd">
<!-- Created with matplotlib (http://matplotlib.org/) -->
<svg height="210pt" version="1.1" viewBox="0 0 210 210" width="210pt" xmlns="http://www.w3.org/2000/svg" xmlns:xlink="http://www.w3.org/1999/xlink">
 <defs>
  <style type="text/css">
*{stroke-linecap:butt;stroke-linejoin:round;}
  </style>
 </defs>
 <g id="figure_1">
  <g id="patch_1">
   <path d="M 0 210.76 
L 210.76 210.76 
L 210.76 0 
L 0 0 
z
" style="fill:#ffffff;"/>
  </g>
  <g id="axes_1">
   <g id="patch_2">
    <path d="M 10.7 200.06 
L 200.06 200.06 
L 200.06 10.7 
L 10.7 10.7 
z
" style="fill:#ffffff;"/>
   </g>
   <g id="matplotlib.axis_1"/>
   <g id="matplotlib.axis_2"/>
   <g id="line2d_1">
    <path clip-path="url(#p4f55f08bff)" d="M 19.307273 197.005806 
L 191.452727 197.005806 
L 191.452727 197.005806 
" style="fill:none;opacity:0.7;stroke:#000004;stroke-linecap:square;stroke-width:2;"/>
   </g>
   <g id="line2d_2">
    <path clip-path="url(#p4f55f08bff)" d="M 19.307273 197.005806 
L 191.452727 197.005806 
L 191.452727 197.005806 
" style="fill:none;opacity:0.7;stroke:#050417;stroke-linecap:square;stroke-width:2;"/>
   </g>
   <g id="line2d_3">
    <path clip-path="url(#p4f55f08bff)" d="M 19.307273 197.005806 
L 191.452727 197.005806 
L 191.452727 197.005806 
" style="fill:none;opacity:0.7;stroke:#110a30;stroke-linecap:square;stroke-width:2;"/>
   </g>
   <g id="line2d_4">
    <path clip-path="url(#p4f55f08bff)" d="M 19.307273 197.005806 
L 191.452727 197.005806 
L 191.452727 197.005806 
" style="fill:none;opacity:0.7;stroke:#210c4a;stroke-linecap:square;stroke-width:2;"/>
   </g>
   <g id="line2d_5">
    <path clip-path="url(#p4f55f08bff)" d="M 19.307273 197.005806 
L 191.452727 197.005806 
L 191.452727 197.005806 
" style="fill:none;opacity:0.7;stroke:#340a5f;stroke-linecap:square;stroke-width:2;"/>
   </g>
   <g id="line2d_6">
    <path clip-path="url(#p4f55f08bff)" d="M 19.307273 197.005806 
L 191.452727 197.005806 
L 191.452727 197.005806 
" style="fill:none;opacity:0.7;stroke:#450a69;stroke-linecap:square;stroke-width:2;"/>
   </g>
   <g id="line2d_7">
    <path clip-path="url(#p4f55f08bff)" d="M 19.307273 197.005806 
L 191.452727 197.005806 
L 191.452727 197.005806 
" style="fill:none;opacity:0.7;stroke:#57106e;stroke-linecap:square;stroke-width:2;"/>
   </g>
   <g id="line2d_8">
    <path clip-path="url(#p4f55f08bff)" d="M 19.307273 197.005806 
L 191.452727 197.005806 
L 191.452727 197.005806 
" style="fill:none;opacity:0.7;stroke:#69166e;stroke-linecap:square;stroke-width:2;"/>
   </g>
   <g id="line2d_9">
    <path clip-path="url(#p4f55f08bff)" d="M 19.307273 197.005806 
L 61.869762 197.005806 
L 62.214398 190.511724 
L 62.731351 182.393624 
L 64.799165 141.58442 
L 65.316118 137.107774 
L 65.660753 135.445405 
L 66.005389 134.612523 
L 66.350025 134.417277 
L 66.69466 134.688633 
L 67.211613 135.663277 
L 68.24552 138.453578 
L 69.451744 141.56985 
L 70.313333 143.294295 
L 71.174922 144.588965 
L 72.036511 145.532154 
L 73.070418 146.325933 
L 74.276642 146.947997 
L 75.827502 147.479154 
L 78.239951 148.04493 
L 83.409484 148.974876 
L 97.367224 151.26605 
L 112.186552 153.470315 
L 127.867469 155.575394 
L 144.582293 157.593086 
L 146.822424 157.930978 
L 147.339378 158.181044 
L 147.684013 158.545988 
L 148.028649 159.268746 
L 148.373284 160.659954 
L 148.71792 163.123444 
L 149.234873 169.382621 
L 150.613415 192.337663 
L 150.785733 197.005806 
L 191.452727 197.005806 
L 191.452727 197.005806 
" style="fill:none;opacity:0.7;stroke:#7a1d6d;stroke-linecap:square;stroke-width:2;"/>
   </g>
   <g id="line2d_10">
    <path clip-path="url(#p4f55f08bff)" d="M 19.307273 197.005806 
L 63.248305 197.005806 
L 63.420622 192.909931 
L 64.454529 189.416335 
L 64.971482 188.256656 
L 65.488436 187.539894 
L 66.005389 187.183458 
L 66.522342 187.084757 
L 67.211613 187.196859 
L 68.762473 187.790797 
L 70.485651 188.343965 
L 72.208829 188.641785 
L 74.621278 188.803687 
L 79.790811 188.859857 
L 147.684013 189.021526 
L 148.200966 189.34802 
L 148.545602 189.810013 
L 149.062555 191.03439 
L 149.579509 192.799745 
L 149.751826 197.005806 
L 191.452727 197.005806 
L 191.452727 197.005806 
" style="fill:none;opacity:0.7;stroke:#8c2369;stroke-linecap:square;stroke-width:2;"/>
   </g>
   <g id="line2d_11">
    <path clip-path="url(#p4f55f08bff)" d="M 19.307273 197.005806 
L 191.452727 197.005806 
L 191.452727 197.005806 
" style="fill:none;opacity:0.7;stroke:#9b2964;stroke-linecap:square;stroke-width:2;"/>
   </g>
   <g id="line2d_12">
    <path clip-path="url(#p4f55f08bff)" d="M 19.307273 197.005806 
L 191.452727 197.005806 
L 191.452727 197.005806 
" style="fill:none;opacity:0.7;stroke:#ad305d;stroke-linecap:square;stroke-width:2;"/>
   </g>
   <g id="line2d_13">
    <path clip-path="url(#p4f55f08bff)" d="M 19.307273 197.005806 
L 61.525127 197.005806 
L 61.869762 191.10042 
L 62.214398 185.900132 
L 62.731351 173.275326 
L 64.454529 123.189727 
L 64.971482 115.17976 
L 65.488436 110.802893 
L 65.833071 109.466086 
L 66.177707 109.073774 
L 66.350025 109.153179 
L 66.69466 109.725701 
L 67.211613 111.280936 
L 70.141016 121.691384 
L 71.002604 123.607814 
L 71.864193 125.019332 
L 72.725782 126.053213 
L 73.759689 126.950613 
L 74.965913 127.701042 
L 76.689091 128.480298 
L 79.446175 129.439897 
L 87.028157 131.713155 
L 98.056495 134.816164 
L 109.429468 137.782048 
L 120.974758 140.563118 
L 133.037002 143.237997 
L 147.16706 146.311176 
L 147.511695 146.635618 
L 147.856331 147.2554 
L 148.200966 148.462864 
L 148.545602 150.719069 
L 148.890238 154.540325 
L 149.407191 163.596904 
L 150.958051 197.005806 
L 191.452727 197.005806 
L 191.452727 197.005806 
" style="fill:none;opacity:0.7;stroke:#bd3853;stroke-linecap:square;stroke-width:2;"/>
   </g>
   <g id="line2d_14">
    <path clip-path="url(#p4f55f08bff)" d="M 19.307273 197.005806 
L 191.452727 197.005806 
L 191.452727 197.005806 
" style="fill:none;opacity:0.7;stroke:#cc4248;stroke-linecap:square;stroke-width:2;"/>
   </g>
   <g id="line2d_15">
    <path clip-path="url(#p4f55f08bff)" d="M 19.307273 197.005806 
L 191.452727 197.005806 
L 191.452727 197.005806 
" style="fill:none;opacity:0.7;stroke:#d94d3d;stroke-linecap:square;stroke-width:2;"/>
   </g>
   <g id="line2d_16">
    <path clip-path="url(#p4f55f08bff)" d="M 19.307273 197.005806 
L 191.452727 197.005806 
L 191.452727 197.005806 
" style="fill:none;opacity:0.7;stroke:#e55c30;stroke-linecap:square;stroke-width:2;"/>
   </g>
   <g id="line2d_17">
    <path clip-path="url(#p4f55f08bff)" d="M 19.307273 197.005806 
L 61.869762 197.005806 
L 62.214398 190.731683 
L 62.731351 182.851019 
L 64.799165 142.964681 
L 65.316118 138.564509 
L 65.660753 136.925252 
L 66.005389 136.098844 
L 66.350025 135.897792 
L 66.69466 136.154755 
L 67.211613 137.098074 
L 68.24552 139.814446 
L 69.451744 142.854241 
L 70.313333 144.536958 
L 71.174922 145.799907 
L 72.036511 146.719271 
L 73.070418 147.491892 
L 74.276642 148.095869 
L 75.827502 148.609556 
L 78.412269 149.1871 
L 84.098755 150.157522 
L 98.40113 152.39168 
L 113.565094 154.53492 
L 129.762965 156.597536 
L 147.16706 158.768816 
L 147.511695 159.025858 
L 147.856331 159.532318 
L 148.200966 160.528703 
L 148.545602 162.379921 
L 148.890238 165.464201 
L 149.407191 172.57389 
L 150.958051 197.005806 
L 191.452727 197.005806 
L 191.452727 197.005806 
" style="fill:none;opacity:0.7;stroke:#ef6c23;stroke-linecap:square;stroke-width:2;"/>
   </g>
   <g id="line2d_18">
    <path clip-path="url(#p4f55f08bff)" d="M 19.307273 197.005806 
L 191.452727 197.005806 
L 191.452727 197.005806 
" style="fill:none;opacity:0.7;stroke:#f67e14;stroke-linecap:square;stroke-width:2;"/>
   </g>
   <g id="line2d_19">
    <path clip-path="url(#p4f55f08bff)" d="M 19.307273 197.005806 
L 191.452727 197.005806 
L 191.452727 197.005806 
" style="fill:none;opacity:0.7;stroke:#fa9207;stroke-linecap:square;stroke-width:2;"/>
   </g>
   <g id="line2d_20">
    <path clip-path="url(#p4f55f08bff)" d="M 19.307273 197.005806 
L 61.180491 197.005806 
L 61.525127 190.442572 
L 61.869762 184.313726 
L 62.386716 168.406945 
L 63.420622 122.384173 
L 64.109894 96.76169 
L 64.626847 84.18338 
L 65.1438 76.93718 
L 65.488436 74.492905 
L 65.833071 73.504029 
L 66.005389 73.440561 
L 66.177707 73.608826 
L 66.522342 74.494087 
L 67.039296 76.735922 
L 69.79638 90.52507 
L 70.657969 93.298986 
L 71.519558 95.343103 
L 72.381147 96.835866 
L 73.242735 97.937918 
L 74.276642 98.918732 
L 75.655184 99.883282 
L 77.55068 100.899017 
L 80.6524 102.279679 
L 96.85027 109.026653 
L 109.946421 114.249225 
L 121.664029 118.687911 
L 132.864685 122.696027 
L 143.893022 126.405137 
L 146.822424 127.456675 
L 147.339378 127.866379 
L 147.684013 128.395839 
L 148.028649 129.399675 
L 148.373284 131.329398 
L 148.71792 134.855946 
L 149.062555 140.645115 
L 149.579509 153.757752 
L 150.958051 197.005806 
L 191.452727 197.005806 
L 191.452727 197.005806 
" style="fill:none;opacity:0.7;stroke:#fca50a;stroke-linecap:square;stroke-width:2;"/>
   </g>
   <g id="patch_3">
    <path d="M 10.7 200.06 
L 10.7 10.7 
" style="fill:none;stroke:#000000;stroke-linecap:square;stroke-linejoin:miter;stroke-width:0.8;"/>
   </g>
   <g id="patch_4">
    <path d="M 200.06 200.06 
L 200.06 10.7 
" style="fill:none;stroke:#000000;stroke-linecap:square;stroke-linejoin:miter;stroke-width:0.8;"/>
   </g>
   <g id="patch_5">
    <path d="M 10.7 200.06 
L 200.06 200.06 
" style="fill:none;stroke:#000000;stroke-linecap:square;stroke-linejoin:miter;stroke-width:0.8;"/>
   </g>
   <g id="patch_6">
    <path d="M 10.7 10.7 
L 200.06 10.7 
" style="fill:none;stroke:#000000;stroke-linecap:square;stroke-linejoin:miter;stroke-width:0.8;"/>
   </g>
  </g>
 </g>
 <defs>
  <clipPath id="p4f55f08bff">
   <rect height="189.36" width="189.36" x="10.7" y="10.7"/>
  </clipPath>
 </defs>
</svg>
