<?xml version="1.0" encoding="utf-8" standalone="no"?>
<!DOCTYPE svg PUBLIC "-//W3C//DTD SVG 1.1//EN"
  "http://www.w3.org/Graphics/SVG/1.1/DTD/svg11.dtd">
<!-- Created with matplotlib (http://matplotlib.org/) -->
<svg height="210pt" version="1.1" viewBox="0 0 210 210" width="210pt" xmlns="http://www.w3.org/2000/svg" xmlns:xlink="http://www.w3.org/1999/xlink">
 <defs>
  <style type="text/css">
*{stroke-linecap:butt;stroke-linejoin:round;}
  </style>
 </defs>
 <g id="figure_1">
  <g id="patch_1">
   <path d="M 0 210.76 
L 210.76 210.76 
L 210.76 0 
L 0 0 
z
" style="fill:#ffffff;"/>
  </g>
  <g id="axes_1">
   <g id="patch_2">
    <path d="M 10.7 200.06 
L 200.06 200.06 
L 200.06 10.7 
L 10.7 10.7 
z
" style="fill:#ffffff;"/>
   </g>
   <g id="matplotlib.axis_1"/>
   <g id="matplotlib.axis_2"/>
   <g id="line2d_1">
    <path clip-path="url(#pe4a449b103)" d="M 19.307273 191.826957 
L 64.282211 191.826957 
L 64.454529 64.361809 
L 64.971482 45.957436 
L 65.488436 34.530754 
L 65.833071 30.178992 
L 66.177707 27.881377 
L 66.522342 27.166087 
L 66.69466 27.267552 
L 67.039296 28.155606 
L 67.556249 30.630704 
L 70.313333 46.206622 
L 71.174922 49.185538 
L 72.036511 51.261885 
L 72.725782 52.421585 
L 73.587371 53.414817 
L 74.44896 54.05224 
L 75.482867 54.514158 
L 76.689091 54.804923 
L 78.584586 54.997116 
L 81.686306 55.045448 
L 146.305471 55.156816 
L 146.822424 55.413219 
L 147.16706 55.857291 
L 147.511695 56.82108 
L 147.856331 58.854899 
L 148.200966 62.920819 
L 148.373284 191.826957 
L 191.452727 191.826957 
L 191.452727 191.826957 
" style="fill:none;opacity:0.7;stroke:#510e6c;stroke-linecap:square;stroke-width:2;"/>
   </g>
   <g id="line2d_2">
    <path clip-path="url(#pe4a449b103)" d="M 19.307273 191.826957 
L 61.697445 191.826957 
L 62.04208 178.532277 
L 62.386716 167.855748 
L 62.903669 142.971807 
L 64.454529 57.402145 
L 64.971482 40.977189 
L 65.488436 31.581898 
L 65.833071 28.449286 
L 66.177707 27.219194 
L 66.350025 27.166087 
L 66.522342 27.414468 
L 66.866978 28.623376 
L 67.383931 31.617169 
L 69.968698 48.885654 
L 70.830287 52.712342 
L 71.691876 55.528315 
L 72.553464 57.568805 
L 73.415053 59.053928 
L 74.44896 60.346166 
L 75.655184 61.439959 
L 77.206044 62.49781 
L 79.446175 63.72153 
L 84.443391 66.087616 
L 93.231597 70.033848 
L 102.364439 73.88701 
L 111.669599 77.570995 
L 121.319394 81.152117 
L 131.313825 84.623469 
L 141.652891 87.979793 
L 146.477789 89.567048 
L 146.994742 89.947697 
L 147.339378 90.438758 
L 147.684013 91.379585 
L 148.028649 93.239079 
L 148.373284 96.817692 
L 148.71792 103.161558 
L 149.234873 119.31983 
L 150.613415 178.858755 
L 150.785733 191.826957 
L 191.452727 191.826957 
L 191.452727 191.826957 
" style="fill:none;opacity:0.7;stroke:#7d1e6d;stroke-linecap:square;stroke-width:2;"/>
   </g>
   <g id="line2d_3">
    <path clip-path="url(#pe4a449b103)" d="M 19.307273 191.826957 
L 64.282211 191.826957 
L 64.454529 64.361809 
L 64.971482 45.957436 
L 65.488436 34.530754 
L 65.833071 30.178992 
L 66.177707 27.881377 
L 66.522342 27.166087 
L 66.69466 27.267552 
L 67.039296 28.155606 
L 67.556249 30.630704 
L 70.313333 46.206622 
L 71.174922 49.185538 
L 72.036511 51.261885 
L 72.725782 52.421585 
L 73.587371 53.414817 
L 74.44896 54.05224 
L 75.482867 54.514158 
L 76.689091 54.804923 
L 78.584586 54.997116 
L 81.686306 55.045448 
L 146.305471 55.156816 
L 146.822424 55.413219 
L 147.16706 55.857291 
L 147.511695 56.82108 
L 147.856331 58.854899 
L 148.200966 62.920819 
L 148.373284 191.826957 
L 191.452727 191.826957 
L 191.452727 191.826957 
" style="fill:none;opacity:0.7;stroke:#8d2369;stroke-linecap:square;stroke-width:2;"/>
   </g>
   <g id="line2d_4">
    <path clip-path="url(#pe4a449b103)" d="M 19.307273 191.826957 
L 61.697445 191.826957 
L 62.04208 177.822966 
L 62.386716 166.702327 
L 62.903669 141.234716 
L 64.282211 63.204248 
L 64.799165 44.665313 
L 65.316118 33.489698 
L 65.660753 29.43657 
L 66.005389 27.499215 
L 66.177707 27.166087 
L 66.350025 27.178867 
L 66.522342 27.48446 
L 66.866978 28.784763 
L 67.383931 31.869204 
L 69.968698 49.230742 
L 70.830287 53.060315 
L 71.691876 55.884724 
L 72.553464 57.940276 
L 73.415053 59.446227 
L 74.44896 60.769133 
L 75.655184 61.903791 
L 77.206044 63.018474 
L 79.446175 64.327097 
L 84.615708 66.969373 
L 93.059279 71.066597 
L 101.675168 75.003622 
L 110.635692 78.852736 
L 119.768534 82.535031 
L 129.246011 86.116801 
L 139.068124 89.589943 
L 146.650106 92.252815 
L 147.16706 92.733673 
L 147.511695 93.383346 
L 147.856331 94.645771 
L 148.200966 97.118481 
L 148.545602 101.723291 
L 148.890238 109.448167 
L 149.407191 127.462015 
L 150.613415 178.751986 
L 150.785733 191.826957 
L 191.452727 191.826957 
L 191.452727 191.826957 
" style="fill:none;opacity:0.7;stroke:#9b2964;stroke-linecap:square;stroke-width:2;"/>
   </g>
   <g id="line2d_5">
    <path clip-path="url(#pe4a449b103)" d="M 19.307273 191.826957 
L 61.697445 191.826957 
L 62.04208 178.37072 
L 62.386716 167.590236 
L 62.903669 142.567188 
L 64.454529 57.104445 
L 64.971482 40.784808 
L 65.488436 31.47969 
L 65.833071 28.395111 
L 66.177707 27.20337 
L 66.350025 27.166087 
L 66.522342 27.428265 
L 66.866978 28.659374 
L 67.383931 31.675558 
L 69.968698 48.970559 
L 70.830287 52.799164 
L 71.691876 55.618254 
L 72.553464 57.663343 
L 73.415053 59.154365 
L 74.44896 60.454965 
L 75.655184 61.559658 
L 77.206044 62.632472 
L 79.446175 63.878382 
L 84.443391 66.293809 
L 93.059279 70.245615 
L 102.019803 74.11051 
L 111.324963 77.877412 
L 120.802441 81.473945 
L 130.624554 84.964332 
L 140.791302 88.342527 
L 146.650106 90.331038 
L 147.16706 90.817946 
L 147.511695 91.486287 
L 147.856331 92.793659 
L 148.200966 95.359818 
L 148.545602 100.13314 
L 148.890238 108.113662 
L 149.407191 126.617862 
L 150.613415 178.838902 
L 150.785733 191.826957 
L 191.452727 191.826957 
L 191.452727 191.826957 
" style="fill:none;opacity:0.7;stroke:#c73e4c;stroke-linecap:square;stroke-width:2;"/>
   </g>
   <g id="line2d_6">
    <path clip-path="url(#pe4a449b103)" d="M 19.307273 191.826957 
L 63.075987 191.826957 
L 63.248305 131.505522 
L 64.454529 64.826252 
L 64.971482 46.091033 
L 65.488436 34.513422 
L 65.833071 30.132189 
L 66.177707 27.844433 
L 66.522342 27.166087 
L 66.69466 27.293049 
L 67.039296 28.241158 
L 67.556249 30.817787 
L 70.313333 46.825866 
L 71.174922 49.874819 
L 72.036511 51.99843 
L 72.725782 53.183948 
L 73.587371 54.19892 
L 74.44896 54.850081 
L 75.482867 55.321822 
L 76.689091 55.618693 
L 78.412269 55.804849 
L 81.341671 55.863648 
L 146.305471 55.974684 
L 146.822424 56.230031 
L 147.16706 56.672453 
L 147.511695 57.633417 
L 147.856331 59.664511 
L 148.200966 63.736933 
L 148.545602 71.197421 
L 148.890238 83.199905 
L 149.407191 109.3763 
L 149.751826 129.858485 
L 149.924144 191.826957 
L 191.452727 191.826957 
L 191.452727 191.826957 
" style="fill:none;opacity:0.7;stroke:#d34743;stroke-linecap:square;stroke-width:2;"/>
   </g>
   <g id="line2d_7">
    <path clip-path="url(#pe4a449b103)" d="M 19.307273 191.826957 
L 63.248305 191.826957 
L 63.420622 121.109655 
L 64.454529 64.839646 
L 64.971482 46.127797 
L 65.488436 34.548531 
L 65.833071 30.158351 
L 66.177707 27.85832 
L 66.522342 27.166087 
L 66.69466 27.285885 
L 67.039296 28.219759 
L 67.556249 30.77628 
L 70.313333 46.719237 
L 71.174922 49.75948 
L 72.036511 51.877481 
L 72.725782 53.060038 
L 73.587371 54.072585 
L 74.44896 54.722253 
L 75.482867 55.192951 
L 76.689091 55.489188 
L 78.412269 55.674969 
L 81.341671 55.733758 
L 146.305471 55.845383 
L 146.822424 56.102068 
L 147.16706 56.546754 
L 147.511695 57.512415 
L 147.856331 59.552484 
L 148.200966 63.63938 
L 148.545602 71.116135 
L 148.890238 83.123279 
L 149.407191 109.247488 
L 149.579509 119.33575 
L 149.751826 191.826957 
L 191.452727 191.826957 
L 191.452727 191.826957 
" style="fill:none;opacity:0.7;stroke:#fca108;stroke-linecap:square;stroke-width:2;"/>
   </g>
   <g id="patch_3">
    <path d="M 10.7 200.06 
L 10.7 10.7 
" style="fill:none;stroke:#000000;stroke-linecap:square;stroke-linejoin:miter;stroke-width:0.8;"/>
   </g>
   <g id="patch_4">
    <path d="M 200.06 200.06 
L 200.06 10.7 
" style="fill:none;stroke:#000000;stroke-linecap:square;stroke-linejoin:miter;stroke-width:0.8;"/>
   </g>
   <g id="patch_5">
    <path d="M 10.7 200.06 
L 200.06 200.06 
" style="fill:none;stroke:#000000;stroke-linecap:square;stroke-linejoin:miter;stroke-width:0.8;"/>
   </g>
   <g id="patch_6">
    <path d="M 10.7 10.7 
L 200.06 10.7 
" style="fill:none;stroke:#000000;stroke-linecap:square;stroke-linejoin:miter;stroke-width:0.8;"/>
   </g>
  </g>
 </g>
 <defs>
  <clipPath id="pe4a449b103">
   <rect height="189.36" width="189.36" x="10.7" y="10.7"/>
  </clipPath>
 </defs>
</svg>
