<?xml version="1.0" encoding="utf-8" standalone="no"?>
<!DOCTYPE svg PUBLIC "-//W3C//DTD SVG 1.1//EN"
  "http://www.w3.org/Graphics/SVG/1.1/DTD/svg11.dtd">
<!-- Created with matplotlib (http://matplotlib.org/) -->
<svg height="210pt" version="1.1" viewBox="0 0 210 210" width="210pt" xmlns="http://www.w3.org/2000/svg" xmlns:xlink="http://www.w3.org/1999/xlink">
 <defs>
  <style type="text/css">
*{stroke-linecap:butt;stroke-linejoin:round;}
  </style>
 </defs>
 <g id="figure_1">
  <g id="patch_1">
   <path d="M 0 210.76 
L 210.76 210.76 
L 210.76 0 
L 0 0 
z
" style="fill:#ffffff;"/>
  </g>
  <g id="axes_1">
   <g id="patch_2">
    <path d="M 10.7 200.06 
L 200.06 200.06 
L 200.06 10.7 
L 10.7 10.7 
z
" style="fill:#ffffff;"/>
   </g>
   <g id="matplotlib.axis_1"/>
   <g id="matplotlib.axis_2"/>
   <g id="line2d_1">
    <path clip-path="url(#pa0effc01c9)" d="M 19.307273 197.005806 
L 56.527912 197.005806 
L 56.700229 193.172145 
L 57.561818 191.455027 
L 58.423407 189.139991 
L 59.284996 186.143086 
L 60.318903 181.650791 
L 61.869762 173.679039 
L 63.59294 165.108721 
L 64.626847 161.032255 
L 65.488436 158.414657 
L 66.350025 156.459198 
L 67.211613 155.059113 
L 68.073202 154.092648 
L 68.934791 153.448435 
L 69.968698 152.974506 
L 71.174922 152.691633 
L 72.725782 152.57671 
L 75.138231 152.661487 
L 79.963129 153.11449 
L 106.844701 155.821629 
L 128.212105 157.706282 
L 136.827993 158.5335 
L 139.068124 158.946055 
L 140.618984 159.444859 
L 141.825209 160.07641 
L 142.859115 160.901301 
L 143.720704 161.883872 
L 144.582293 163.231219 
L 145.443882 165.040034 
L 146.305471 167.389722 
L 147.339378 170.952997 
L 148.71792 176.690235 
L 150.958051 186.057137 
L 151.991957 189.422106 
L 152.853546 191.594689 
L 153.715135 193.235985 
L 153.887453 197.005806 
L 191.452727 197.005806 
L 191.452727 197.005806 
" style="fill:none;opacity:0.7;stroke:#000004;stroke-linecap:square;stroke-width:2;"/>
   </g>
   <g id="line2d_2">
    <path clip-path="url(#pa0effc01c9)" d="M 19.307273 197.005806 
L 191.452727 197.005806 
L 191.452727 197.005806 
" style="fill:none;opacity:0.7;stroke:#050417;stroke-linecap:square;stroke-width:2;"/>
   </g>
   <g id="line2d_3">
    <path clip-path="url(#pa0effc01c9)" d="M 19.307273 197.005806 
L 63.59294 197.005806 
L 63.765258 193.28096 
L 65.316118 192.466758 
L 66.69466 191.979297 
L 68.417838 191.626259 
L 70.657969 191.419904 
L 74.621278 191.319754 
L 89.785242 191.300469 
L 140.102031 191.410893 
L 142.686798 191.651767 
L 144.409975 192.028809 
L 145.788518 192.543296 
L 147.16706 193.28096 
L 147.339378 197.005806 
L 191.452727 197.005806 
L 191.452727 197.005806 
" style="fill:none;opacity:0.7;stroke:#110a30;stroke-linecap:square;stroke-width:2;"/>
   </g>
   <g id="line2d_4">
    <path clip-path="url(#pa0effc01c9)" d="M 19.307273 197.005806 
L 65.660753 197.005806 
L 65.833071 193.329939 
L 67.556249 192.948401 
L 69.79638 192.714799 
L 73.415053 192.602359 
L 84.960344 192.575923 
L 140.446667 192.677578 
L 143.031433 192.897171 
L 144.926929 193.280874 
L 145.099247 193.329939 
L 145.271564 197.005806 
L 191.452727 197.005806 
L 191.452727 197.005806 
" style="fill:none;opacity:0.7;stroke:#210c4a;stroke-linecap:square;stroke-width:2;"/>
   </g>
   <g id="line2d_5">
    <path clip-path="url(#pa0effc01c9)" d="M 19.307273 197.005806 
L 191.452727 197.005806 
L 191.452727 197.005806 
" style="fill:none;opacity:0.7;stroke:#340a5f;stroke-linecap:square;stroke-width:2;"/>
   </g>
   <g id="line2d_6">
    <path clip-path="url(#pa0effc01c9)" d="M 19.307273 197.005806 
L 191.452727 197.005806 
L 191.452727 197.005806 
" style="fill:none;opacity:0.7;stroke:#450a69;stroke-linecap:square;stroke-width:2;"/>
   </g>
   <g id="line2d_7">
    <path clip-path="url(#pa0effc01c9)" d="M 19.307273 197.005806 
L 191.452727 197.005806 
L 191.452727 197.005806 
" style="fill:none;opacity:0.7;stroke:#57106e;stroke-linecap:square;stroke-width:2;"/>
   </g>
   <g id="line2d_8">
    <path clip-path="url(#pa0effc01c9)" d="M 19.307273 197.005806 
L 191.452727 197.005806 
L 191.452727 197.005806 
" style="fill:none;opacity:0.7;stroke:#69166e;stroke-linecap:square;stroke-width:2;"/>
   </g>
   <g id="line2d_9">
    <path clip-path="url(#pa0effc01c9)" d="M 19.307273 197.005806 
L 60.835856 197.005806 
L 61.008174 193.171775 
L 65.1438 188.362735 
L 66.350025 187.505277 
L 67.556249 186.936067 
L 68.934791 186.541864 
L 70.830287 186.267711 
L 73.759689 186.117499 
L 80.6524 186.066831 
L 137.344947 186.121877 
L 140.618984 186.321511 
L 142.342162 186.620515 
L 143.720704 187.073517 
L 144.926929 187.717994 
L 145.960835 188.511922 
L 147.16706 189.740447 
L 148.890238 191.883108 
L 149.924144 193.171775 
L 150.096462 197.005806 
L 191.452727 197.005806 
L 191.452727 197.005806 
" style="fill:none;opacity:0.7;stroke:#7a1d6d;stroke-linecap:square;stroke-width:2;"/>
   </g>
   <g id="line2d_10">
    <path clip-path="url(#pa0effc01c9)" d="M 19.307273 197.005806 
L 59.801949 197.005806 
L 59.974267 193.332338 
L 61.180491 191.559164 
L 64.799165 185.912505 
L 65.833071 184.826792 
L 66.866978 184.043331 
L 68.073202 183.436575 
L 69.451744 183.024828 
L 71.174922 182.759429 
L 73.932007 182.598367 
L 79.963129 182.539221 
L 134.587862 182.555987 
L 139.240442 182.7122 
L 141.308256 182.988362 
L 142.686798 183.371248 
L 143.893022 183.938516 
L 144.926929 184.676409 
L 145.960835 185.709204 
L 146.994742 187.059654 
L 148.373284 189.25272 
L 150.613415 192.863255 
L 150.958051 193.332338 
L 151.130369 197.005806 
L 191.452727 197.005806 
L 191.452727 197.005806 
" style="fill:none;opacity:0.7;stroke:#8c2369;stroke-linecap:square;stroke-width:2;"/>
   </g>
   <g id="line2d_11">
    <path clip-path="url(#pa0effc01c9)" d="M 19.307273 197.005806 
L 66.350025 197.005806 
L 66.522342 193.331418 
L 68.417838 193.028664 
L 71.002604 192.860264 
L 76.344455 192.789918 
L 116.666814 192.783375 
L 140.618984 192.888565 
L 143.203751 193.114179 
L 144.409975 193.331418 
L 144.582293 197.005806 
L 191.452727 197.005806 
L 191.452727 197.005806 
" style="fill:none;opacity:0.7;stroke:#9b2964;stroke-linecap:square;stroke-width:2;"/>
   </g>
   <g id="line2d_12">
    <path clip-path="url(#pa0effc01c9)" d="M 19.307273 197.005806 
L 191.452727 197.005806 
L 191.452727 197.005806 
" style="fill:none;opacity:0.7;stroke:#ad305d;stroke-linecap:square;stroke-width:2;"/>
   </g>
   <g id="line2d_13">
    <path clip-path="url(#pa0effc01c9)" d="M 19.307273 197.005806 
L 58.595725 197.005806 
L 58.768043 193.265988 
L 59.629631 191.811046 
L 60.663538 189.630595 
L 62.386716 185.314823 
L 63.937576 181.573418 
L 64.971482 179.564083 
L 66.005389 178.03949 
L 67.039296 176.959233 
L 68.073202 176.230677 
L 69.279427 175.695994 
L 70.657969 175.350641 
L 72.553464 175.128415 
L 75.655184 175.025989 
L 83.926437 175.063702 
L 137.689582 175.65096 
L 140.102031 175.917886 
L 141.652891 176.306242 
L 142.859115 176.842051 
L 143.893022 177.560996 
L 144.754611 178.413931 
L 145.6162 179.554568 
L 146.650106 181.349323 
L 147.856331 183.989134 
L 151.130369 191.639932 
L 151.991957 193.115016 
L 152.164275 197.005806 
L 191.452727 197.005806 
L 191.452727 197.005806 
" style="fill:none;opacity:0.7;stroke:#bd3853;stroke-linecap:square;stroke-width:2;"/>
   </g>
   <g id="line2d_14">
    <path clip-path="url(#pa0effc01c9)" d="M 19.307273 197.005806 
L 56.700229 197.005806 
L 56.872547 193.249809 
L 57.734136 191.578288 
L 58.595725 189.33626 
L 59.457314 186.453363 
L 60.49122 182.172657 
L 62.386716 173.005147 
L 63.765258 166.810908 
L 64.799165 163.118953 
L 65.660753 160.766881 
L 66.522342 159.018801 
L 67.383931 157.771436 
L 68.24552 156.911888 
L 69.107109 156.338977 
L 70.141016 155.916527 
L 71.34724 155.662299 
L 73.070418 155.552595 
L 75.655184 155.640891 
L 81.686306 156.13913 
L 106.844701 158.288007 
L 131.313825 160.129703 
L 137.172629 160.672305 
L 139.41276 161.089314 
L 140.791302 161.542455 
L 141.997527 162.179831 
L 143.031433 163.017237 
L 143.893022 164.015664 
L 144.754611 165.38154 
L 145.6162 167.20524 
L 146.477789 169.553726 
L 147.511695 173.067511 
L 149.062555 179.322716 
L 150.785733 186.135008 
L 151.81964 189.430154 
L 152.681229 191.578793 
L 153.542817 193.213125 
L 153.715135 197.005806 
L 191.452727 197.005806 
L 191.452727 197.005806 
" style="fill:none;opacity:0.7;stroke:#cc4248;stroke-linecap:square;stroke-width:2;"/>
   </g>
   <g id="line2d_15">
    <path clip-path="url(#pa0effc01c9)" d="M 19.307273 197.005806 
L 191.452727 197.005806 
L 191.452727 197.005806 
" style="fill:none;opacity:0.7;stroke:#d94d3d;stroke-linecap:square;stroke-width:2;"/>
   </g>
   <g id="line2d_16">
    <path clip-path="url(#pa0effc01c9)" d="M 19.307273 197.005806 
L 191.452727 197.005806 
L 191.452727 197.005806 
" style="fill:none;opacity:0.7;stroke:#e55c30;stroke-linecap:square;stroke-width:2;"/>
   </g>
   <g id="line2d_17">
    <path clip-path="url(#pa0effc01c9)" d="M 19.307273 197.005806 
L 68.934791 197.005806 
L 69.107109 193.329392 
L 72.381147 193.201293 
L 81.169353 193.164523 
L 140.446667 193.252897 
L 141.825209 193.329392 
L 141.997527 197.005806 
L 191.452727 197.005806 
L 191.452727 197.005806 
" style="fill:none;opacity:0.7;stroke:#ef6c23;stroke-linecap:square;stroke-width:2;"/>
   </g>
   <g id="line2d_18">
    <path clip-path="url(#pa0effc01c9)" d="M 19.307273 197.005806 
L 191.452727 197.005806 
L 191.452727 197.005806 
" style="fill:none;opacity:0.7;stroke:#f67e14;stroke-linecap:square;stroke-width:2;"/>
   </g>
   <g id="line2d_19">
    <path clip-path="url(#pa0effc01c9)" d="M 19.307273 197.005806 
L 59.974267 197.005806 
L 60.146585 193.203674 
L 61.352809 191.426098 
L 64.454529 186.606821 
L 65.488436 185.441052 
L 66.522342 184.581245 
L 67.556249 183.983022 
L 68.762473 183.531924 
L 70.313333 183.205298 
L 72.553464 182.997163 
L 76.516773 182.899352 
L 92.025373 182.880747 
L 138.206536 182.988279 
L 140.791302 183.231666 
L 142.342162 183.583491 
L 143.548387 184.067201 
L 144.582293 184.704785 
L 145.6162 185.613485 
L 146.650106 186.831302 
L 147.856331 188.607573 
L 150.785733 193.203674 
L 150.958051 197.005806 
L 191.452727 197.005806 
L 191.452727 197.005806 
" style="fill:none;opacity:0.7;stroke:#fa9207;stroke-linecap:square;stroke-width:2;"/>
   </g>
   <g id="line2d_20">
    <path clip-path="url(#pa0effc01c9)" d="M 19.307273 197.005806 
L 58.595725 197.005806 
L 58.768043 193.167948 
L 59.629631 191.677507 
L 60.663538 189.444992 
L 62.386716 185.030194 
L 63.937576 181.207261 
L 64.971482 179.155793 
L 66.005389 177.600765 
L 67.039296 176.499927 
L 68.073202 175.758139 
L 69.107109 175.27573 
L 70.485651 174.896617 
L 72.208829 174.666497 
L 74.965913 174.54759 
L 81.341671 174.562054 
L 136.827993 175.195359 
L 139.585078 175.433928 
L 141.308256 175.802073 
L 142.51448 176.275136 
L 143.548387 176.914092 
L 144.409975 177.679664 
L 145.271564 178.717291 
L 146.133153 180.072569 
L 147.16706 182.132923 
L 148.545602 185.448223 
L 150.613415 190.468674 
L 151.647322 192.470821 
L 152.164275 193.293038 
L 152.336593 197.005806 
L 191.452727 197.005806 
L 191.452727 197.005806 
" style="fill:none;opacity:0.7;stroke:#fca50a;stroke-linecap:square;stroke-width:2;"/>
   </g>
   <g id="patch_3">
    <path d="M 10.7 200.06 
L 10.7 10.7 
" style="fill:none;stroke:#000000;stroke-linecap:square;stroke-linejoin:miter;stroke-width:0.8;"/>
   </g>
   <g id="patch_4">
    <path d="M 200.06 200.06 
L 200.06 10.7 
" style="fill:none;stroke:#000000;stroke-linecap:square;stroke-linejoin:miter;stroke-width:0.8;"/>
   </g>
   <g id="patch_5">
    <path d="M 10.7 200.06 
L 200.06 200.06 
" style="fill:none;stroke:#000000;stroke-linecap:square;stroke-linejoin:miter;stroke-width:0.8;"/>
   </g>
   <g id="patch_6">
    <path d="M 10.7 10.7 
L 200.06 10.7 
" style="fill:none;stroke:#000000;stroke-linecap:square;stroke-linejoin:miter;stroke-width:0.8;"/>
   </g>
  </g>
 </g>
 <defs>
  <clipPath id="pa0effc01c9">
   <rect height="189.36" width="189.36" x="10.7" y="10.7"/>
  </clipPath>
 </defs>
</svg>
