<?xml version="1.0" encoding="utf-8" standalone="no"?>
<!DOCTYPE svg PUBLIC "-//W3C//DTD SVG 1.1//EN"
  "http://www.w3.org/Graphics/SVG/1.1/DTD/svg11.dtd">
<!-- Created with matplotlib (http://matplotlib.org/) -->
<svg height="210pt" version="1.1" viewBox="0 0 210 210" width="210pt" xmlns="http://www.w3.org/2000/svg" xmlns:xlink="http://www.w3.org/1999/xlink">
 <defs>
  <style type="text/css">
*{stroke-linecap:butt;stroke-linejoin:round;}
  </style>
 </defs>
 <g id="figure_1">
  <g id="patch_1">
   <path d="M 0 210.76 
L 210.76 210.76 
L 210.76 0 
L 0 0 
z
" style="fill:#ffffff;"/>
  </g>
  <g id="axes_1">
   <g id="patch_2">
    <path d="M 10.7 200.06 
L 200.06 200.06 
L 200.06 10.7 
L 10.7 10.7 
z
" style="fill:#ffffff;"/>
   </g>
   <g id="matplotlib.axis_1"/>
   <g id="matplotlib.axis_2"/>
   <g id="line2d_1">
    <path clip-path="url(#p3b010def4f)" d="M 19.307273 197.005806 
L 62.386716 197.005806 
L 62.559034 193.212061 
L 63.075987 189.183205 
L 63.765258 181.527473 
L 65.488436 161.302193 
L 66.177707 155.479754 
L 66.866978 151.360591 
L 67.383931 149.310162 
L 67.900885 148.038856 
L 68.417838 147.430331 
L 68.762473 147.334642 
L 69.107109 147.447757 
L 69.624062 147.940701 
L 70.313333 149.0549 
L 71.34724 151.330006 
L 75.310549 160.696793 
L 76.689091 163.136565 
L 77.895315 164.84523 
L 79.10154 166.201836 
L 80.480082 167.393648 
L 81.858624 168.283264 
L 83.409484 169.014228 
L 85.30498 169.63599 
L 87.545111 170.125047 
L 90.64683 170.560825 
L 95.816364 171.027242 
L 107.017019 171.755881 
L 132.347731 173.219922 
L 147.339378 174.093869 
L 147.856331 174.344877 
L 148.200966 174.725464 
L 148.545602 175.441629 
L 148.890238 176.670674 
L 149.407191 179.717865 
L 150.096462 185.71881 
L 150.785733 192.663334 
L 150.958051 197.005806 
L 191.452727 197.005806 
L 191.452727 197.005806 
" style="fill:none;opacity:0.7;stroke:#000004;stroke-linecap:square;stroke-width:2;"/>
   </g>
   <g id="line2d_2">
    <path clip-path="url(#p3b010def4f)" d="M 19.307273 197.005806 
L 63.075987 197.005806 
L 63.248305 193.008866 
L 64.109894 188.46622 
L 65.488436 181.142489 
L 66.350025 177.830159 
L 67.039296 176.036291 
L 67.728567 174.932673 
L 68.24552 174.490057 
L 68.762473 174.318968 
L 69.279427 174.367904 
L 69.968698 174.694001 
L 70.830287 175.386508 
L 72.381147 177.006438 
L 74.793595 179.502184 
L 76.344455 180.783043 
L 77.895315 181.767831 
L 79.446175 182.491745 
L 81.169353 183.054191 
L 83.237166 183.487844 
L 85.821933 183.795256 
L 89.612924 184.002317 
L 96.677952 184.124371 
L 144.237658 184.381062 
L 147.511695 184.489368 
L 148.028649 184.689528 
L 148.373284 184.995791 
L 148.71792 185.54694 
L 149.234873 187.001315 
L 149.924144 190.066358 
L 150.441097 192.839198 
L 150.613415 197.005806 
L 191.452727 197.005806 
L 191.452727 197.005806 
" style="fill:none;opacity:0.7;stroke:#050417;stroke-linecap:square;stroke-width:2;"/>
   </g>
   <g id="line2d_3">
    <path clip-path="url(#p3b010def4f)" d="M 19.307273 197.005806 
L 191.452727 197.005806 
L 191.452727 197.005806 
" style="fill:none;opacity:0.7;stroke:#110a30;stroke-linecap:square;stroke-width:2;"/>
   </g>
   <g id="line2d_4">
    <path clip-path="url(#p3b010def4f)" d="M 19.307273 197.005806 
L 63.765258 197.005806 
L 63.937576 192.878931 
L 65.660753 187.882274 
L 66.522342 186.170875 
L 67.211613 185.266851 
L 67.900885 184.729499 
L 68.590156 184.494049 
L 69.279427 184.492481 
L 70.141016 184.724402 
L 71.34724 185.307629 
L 76.172138 187.901118 
L 78.067633 188.557884 
L 80.135446 189.037648 
L 82.720213 189.39054 
L 86.166568 189.613332 
L 91.853055 189.725959 
L 108.912514 189.746656 
L 147.684013 189.828452 
L 148.200966 189.997494 
L 148.71792 190.428672 
L 149.234873 191.279274 
L 149.924144 193.048524 
L 150.096462 197.005806 
L 191.452727 197.005806 
L 191.452727 197.005806 
" style="fill:none;opacity:0.7;stroke:#210c4a;stroke-linecap:square;stroke-width:2;"/>
   </g>
   <g id="line2d_5">
    <path clip-path="url(#p3b010def4f)" d="M 19.307273 197.005806 
L 62.903669 197.005806 
L 63.075987 193.027554 
L 63.765258 188.952914 
L 65.660753 176.871333 
L 66.350025 173.805521 
L 67.039296 171.66041 
L 67.556249 170.605637 
L 68.073202 169.962858 
L 68.590156 169.668421 
L 69.107109 169.658997 
L 69.624062 169.875298 
L 70.313333 170.423819 
L 71.34724 171.595269 
L 75.655184 176.90859 
L 77.033726 178.134318 
L 78.412269 179.087075 
L 79.963129 179.881959 
L 81.686306 180.497703 
L 83.75412 180.97432 
L 86.338886 181.318384 
L 89.957559 181.55691 
L 96.677952 181.735793 
L 132.003096 182.185581 
L 147.511695 182.470338 
L 148.028649 182.701688 
L 148.373284 183.053933 
L 148.71792 183.688166 
L 149.234873 185.367275 
L 149.924144 188.922646 
L 150.613415 193.252946 
L 150.785733 197.005806 
L 191.452727 197.005806 
L 191.452727 197.005806 
" style="fill:none;opacity:0.7;stroke:#340a5f;stroke-linecap:square;stroke-width:2;"/>
   </g>
   <g id="line2d_6">
    <path clip-path="url(#p3b010def4f)" d="M 19.307273 197.005806 
L 63.075987 197.005806 
L 63.248305 193.008866 
L 64.109894 188.46622 
L 65.488436 181.142489 
L 66.350025 177.830159 
L 67.039296 176.036291 
L 67.728567 174.932673 
L 68.24552 174.490057 
L 68.762473 174.318968 
L 69.279427 174.367904 
L 69.968698 174.694001 
L 70.830287 175.386508 
L 72.381147 177.006438 
L 74.793595 179.502184 
L 76.344455 180.783043 
L 77.895315 181.767831 
L 79.446175 182.491745 
L 81.169353 183.054191 
L 83.237166 183.487844 
L 85.821933 183.795256 
L 89.612924 184.002317 
L 96.677952 184.124371 
L 144.237658 184.381062 
L 147.511695 184.489368 
L 148.028649 184.689528 
L 148.373284 184.995791 
L 148.71792 185.54694 
L 149.234873 187.001315 
L 149.924144 190.066358 
L 150.441097 192.839198 
L 150.613415 197.005806 
L 191.452727 197.005806 
L 191.452727 197.005806 
" style="fill:none;opacity:0.7;stroke:#450a69;stroke-linecap:square;stroke-width:2;"/>
   </g>
   <g id="line2d_7">
    <path clip-path="url(#p3b010def4f)" d="M 19.307273 197.005806 
L 191.452727 197.005806 
L 191.452727 197.005806 
" style="fill:none;opacity:0.7;stroke:#57106e;stroke-linecap:square;stroke-width:2;"/>
   </g>
   <g id="line2d_8">
    <path clip-path="url(#p3b010def4f)" d="M 19.307273 197.005806 
L 191.452727 197.005806 
L 191.452727 197.005806 
" style="fill:none;opacity:0.7;stroke:#69166e;stroke-linecap:square;stroke-width:2;"/>
   </g>
   <g id="line2d_9">
    <path clip-path="url(#p3b010def4f)" d="M 19.307273 197.005806 
L 63.248305 197.005806 
L 63.420622 193.158585 
L 64.626847 187.806819 
L 65.660753 183.647645 
L 66.522342 181.157674 
L 67.211613 179.84606 
L 67.900885 179.069638 
L 68.417838 178.781602 
L 68.934791 178.698732 
L 69.624062 178.837817 
L 70.485651 179.294575 
L 71.691876 180.227972 
L 75.310549 183.183073 
L 76.861409 184.124397 
L 78.584586 184.9006 
L 80.480082 185.484005 
L 82.720213 185.910655 
L 85.477297 186.192061 
L 89.612924 186.3637 
L 97.711859 186.430058 
L 147.684013 186.546212 
L 148.200966 186.786407 
L 148.545602 187.138903 
L 148.890238 187.73703 
L 149.407191 189.185033 
L 150.096462 191.956165 
L 150.26878 192.732831 
L 150.441097 197.005806 
L 191.452727 197.005806 
L 191.452727 197.005806 
" style="fill:none;opacity:0.7;stroke:#7a1d6d;stroke-linecap:square;stroke-width:2;"/>
   </g>
   <g id="line2d_10">
    <path clip-path="url(#p3b010def4f)" d="M 19.307273 197.005806 
L 63.420622 197.005806 
L 63.59294 192.679397 
L 66.005389 183.231031 
L 66.69466 181.553271 
L 67.383931 180.437814 
L 68.073202 179.810854 
L 68.590156 179.605298 
L 69.279427 179.608236 
L 69.968698 179.848069 
L 71.002604 180.491662 
L 73.070418 182.166022 
L 75.138231 183.725603 
L 76.861409 184.735868 
L 78.584586 185.475122 
L 80.480082 186.030783 
L 82.720213 186.437159 
L 85.649615 186.716332 
L 89.957559 186.875553 
L 98.918084 186.931984 
L 147.684013 187.042869 
L 148.200966 187.272679 
L 148.545602 187.609631 
L 148.890238 188.18087 
L 149.407191 189.562204 
L 150.096462 192.202627 
L 150.26878 192.942236 
L 150.441097 197.005806 
L 191.452727 197.005806 
L 191.452727 197.005806 
" style="fill:none;opacity:0.7;stroke:#8c2369;stroke-linecap:square;stroke-width:2;"/>
   </g>
   <g id="line2d_11">
    <path clip-path="url(#p3b010def4f)" d="M 19.307273 197.005806 
L 191.452727 197.005806 
L 191.452727 197.005806 
" style="fill:none;opacity:0.7;stroke:#9b2964;stroke-linecap:square;stroke-width:2;"/>
   </g>
   <g id="line2d_12">
    <path clip-path="url(#p3b010def4f)" d="M 19.307273 197.005806 
L 64.282211 197.005806 
L 64.454529 193.139616 
L 65.660753 190.867268 
L 66.522342 189.715002 
L 67.211613 189.105164 
L 67.900885 188.741659 
L 68.762473 188.567389 
L 69.624062 188.622191 
L 70.830287 188.937677 
L 73.415053 189.935527 
L 75.99982 190.812684 
L 78.239951 191.334374 
L 80.824717 191.702222 
L 84.271073 191.945211 
L 89.612924 192.069791 
L 103.915299 192.100457 
L 147.856331 192.182619 
L 148.545602 192.44057 
L 149.062555 192.915738 
L 149.234873 193.142085 
L 149.407191 197.005806 
L 191.452727 197.005806 
L 191.452727 197.005806 
" style="fill:none;opacity:0.7;stroke:#ad305d;stroke-linecap:square;stroke-width:2;"/>
   </g>
   <g id="line2d_13">
    <path clip-path="url(#p3b010def4f)" d="M 19.307273 197.005806 
L 61.180491 197.005806 
L 61.525127 190.613279 
L 61.869762 185.380619 
L 62.386716 172.8319 
L 63.075987 149.050235 
L 64.799165 86.308053 
L 65.488436 68.244639 
L 66.177707 55.459742 
L 66.69466 49.090976 
L 67.211613 45.137201 
L 67.556249 43.665571 
L 67.900885 42.998492 
L 68.073202 42.933406 
L 68.24552 43.030132 
L 68.590156 43.659821 
L 69.107109 45.522071 
L 69.79638 49.284982 
L 70.830287 56.573553 
L 74.276642 82.169225 
L 75.482867 89.265372 
L 76.689091 95.107295 
L 77.895315 99.798888 
L 79.10154 103.504527 
L 80.135446 106.031065 
L 81.341671 108.369285 
L 82.547895 110.191283 
L 83.75412 111.619812 
L 85.132662 112.895692 
L 86.683522 114.008261 
L 88.579017 115.061975 
L 90.991466 116.1146 
L 94.437821 117.344125 
L 99.435037 118.88068 
L 118.734627 124.794087 
L 147.511695 133.78186 
L 147.856331 134.132433 
L 148.200966 134.766288 
L 148.545602 135.959434 
L 148.890238 138.141679 
L 149.234873 141.80495 
L 149.751826 150.677367 
L 150.441097 167.754016 
L 151.475004 197.005806 
L 191.452727 197.005806 
L 191.452727 197.005806 
" style="fill:none;opacity:0.7;stroke:#bd3853;stroke-linecap:square;stroke-width:2;"/>
   </g>
   <g id="line2d_14">
    <path clip-path="url(#p3b010def4f)" d="M 19.307273 197.005806 
L 62.04208 197.005806 
L 62.214398 192.446881 
L 62.559034 189.016248 
L 63.075987 181.281108 
L 63.937576 163.81337 
L 65.316118 136.340956 
L 66.005389 126.24529 
L 66.69466 119.095086 
L 67.211613 115.53661 
L 67.728567 113.334497 
L 68.073202 112.521205 
L 68.417838 112.160856 
L 68.762473 112.194154 
L 69.107109 112.564602 
L 69.624062 113.637996 
L 70.313333 115.791852 
L 71.34724 119.95221 
L 74.793595 134.564515 
L 76.172138 139.149407 
L 77.378362 142.404987 
L 78.584586 145.020725 
L 79.790811 147.091365 
L 80.997035 148.716784 
L 82.20326 149.989362 
L 83.581802 151.112968 
L 85.132662 152.068216 
L 86.855839 152.864799 
L 89.095971 153.636122 
L 92.025373 154.392844 
L 96.505635 155.300429 
L 105.810794 156.866598 
L 120.11317 159.074886 
L 135.104816 161.161971 
L 147.339378 162.841375 
L 147.856331 163.196874 
L 148.200966 163.715777 
L 148.545602 164.689916 
L 148.890238 166.384466 
L 149.407191 170.700807 
L 150.096462 179.483994 
L 150.958051 192.494712 
L 151.130369 197.005806 
L 191.452727 197.005806 
L 191.452727 197.005806 
" style="fill:none;opacity:0.7;stroke:#cc4248;stroke-linecap:square;stroke-width:2;"/>
   </g>
   <g id="line2d_15">
    <path clip-path="url(#p3b010def4f)" d="M 19.307273 197.005806 
L 62.731351 197.005806 
L 62.903669 192.395106 
L 63.420622 188.54102 
L 66.177707 165.295475 
L 66.866978 162.049066 
L 67.383931 160.414934 
L 67.900885 159.383544 
L 68.417838 158.866364 
L 68.762473 158.762668 
L 69.279427 158.904635 
L 69.79638 159.332793 
L 70.485651 160.227333 
L 71.519558 161.987858 
L 75.138231 168.497757 
L 76.516773 170.398982 
L 77.895315 171.901297 
L 79.273857 173.051745 
L 80.6524 173.91424 
L 82.20326 174.619077 
L 83.926437 175.162804 
L 86.166568 175.620738 
L 89.095971 175.97524 
L 93.74855 176.286494 
L 103.398346 176.663749 
L 140.446667 177.863035 
L 147.339378 178.151654 
L 147.856331 178.360139 
L 148.200966 178.68118 
L 148.545602 179.286202 
L 148.890238 180.320248 
L 149.407191 182.862513 
L 150.096462 187.818861 
L 150.613415 192.08494 
L 150.785733 197.005806 
L 191.452727 197.005806 
L 191.452727 197.005806 
" style="fill:none;opacity:0.7;stroke:#d94d3d;stroke-linecap:square;stroke-width:2;"/>
   </g>
   <g id="line2d_16">
    <path clip-path="url(#p3b010def4f)" d="M 19.307273 197.005806 
L 64.282211 197.005806 
L 64.454529 193.139616 
L 65.660753 190.867268 
L 66.522342 189.715002 
L 67.211613 189.105164 
L 67.900885 188.741659 
L 68.762473 188.567389 
L 69.624062 188.622191 
L 70.830287 188.937677 
L 73.415053 189.935527 
L 75.99982 190.812684 
L 78.239951 191.334374 
L 80.824717 191.702222 
L 84.271073 191.945211 
L 89.612924 192.069791 
L 103.915299 192.100457 
L 147.856331 192.182619 
L 148.545602 192.44057 
L 149.062555 192.915738 
L 149.234873 193.142085 
L 149.407191 197.005806 
L 191.452727 197.005806 
L 191.452727 197.005806 
" style="fill:none;opacity:0.7;stroke:#e55c30;stroke-linecap:square;stroke-width:2;"/>
   </g>
   <g id="line2d_17">
    <path clip-path="url(#p3b010def4f)" d="M 19.307273 197.005806 
L 191.452727 197.005806 
L 191.452727 197.005806 
" style="fill:none;opacity:0.7;stroke:#ef6c23;stroke-linecap:square;stroke-width:2;"/>
   </g>
   <g id="line2d_18">
    <path clip-path="url(#p3b010def4f)" d="M 19.307273 197.005806 
L 63.420622 197.005806 
L 63.59294 192.915739 
L 66.005389 183.975212 
L 66.69466 182.386129 
L 67.383931 181.329156 
L 68.073202 180.734581 
L 68.590156 180.539227 
L 69.279427 180.541073 
L 69.968698 180.767289 
L 71.002604 181.375536 
L 73.070418 182.959236 
L 75.138231 184.434916 
L 76.861409 185.390982 
L 78.584586 186.090636 
L 80.480082 186.616565 
L 82.720213 187.001215 
L 85.649615 187.265474 
L 90.129877 187.419217 
L 99.779672 187.469629 
L 147.684013 187.57509 
L 148.200966 187.793553 
L 148.545602 188.113629 
L 148.890238 188.655787 
L 149.407191 189.96528 
L 150.096462 192.465315 
L 150.26878 193.165184 
L 150.441097 197.005806 
L 191.452727 197.005806 
L 191.452727 197.005806 
" style="fill:none;opacity:0.7;stroke:#f67e14;stroke-linecap:square;stroke-width:2;"/>
   </g>
   <g id="line2d_19">
    <path clip-path="url(#p3b010def4f)" d="M 19.307273 197.005806 
L 61.352809 197.005806 
L 61.697445 191.367428 
L 62.04208 186.721337 
L 62.559034 175.494135 
L 63.248305 154.052668 
L 64.971482 97.116899 
L 65.660753 80.688285 
L 66.350025 69.062696 
L 66.866978 63.278307 
L 67.383931 59.697214 
L 67.728567 58.372596 
L 68.073202 57.782728 
L 68.24552 57.733022 
L 68.417838 57.831158 
L 68.762473 58.426074 
L 69.279427 60.157294 
L 69.968698 63.635958 
L 71.002604 70.358404 
L 74.44896 93.965606 
L 75.655184 100.526829 
L 76.861409 105.94089 
L 78.067633 110.302294 
L 79.273857 113.760991 
L 80.480082 116.479348 
L 81.686306 118.609535 
L 82.892531 120.283483 
L 84.098755 121.610067 
L 85.477297 122.811284 
L 87.028157 123.877401 
L 88.923653 124.909001 
L 91.336102 125.963902 
L 94.954775 127.277803 
L 100.124308 128.902767 
L 118.734627 134.497348 
L 133.20932 138.61673 
L 147.511695 142.64506 
L 147.856331 142.994371 
L 148.200966 143.635937 
L 148.545602 144.841281 
L 148.890238 147.007218 
L 149.234873 150.54138 
L 149.751826 158.767492 
L 150.613415 178.118756 
L 151.475004 197.005806 
L 191.452727 197.005806 
L 191.452727 197.005806 
" style="fill:none;opacity:0.7;stroke:#fa9207;stroke-linecap:square;stroke-width:2;"/>
   </g>
   <g id="line2d_20">
    <path clip-path="url(#p3b010def4f)" d="M 19.307273 197.005806 
L 63.075987 197.005806 
L 63.248305 192.825012 
L 64.109894 188.078741 
L 65.488436 180.436395 
L 66.350025 176.983238 
L 67.039296 175.114642 
L 67.556249 174.19213 
L 68.073202 173.626134 
L 68.590156 173.361826 
L 69.107109 173.344564 
L 69.79638 173.618046 
L 70.657969 174.289627 
L 72.036511 175.754655 
L 74.793595 178.760041 
L 76.344455 180.099769 
L 77.895315 181.130152 
L 79.446175 181.888054 
L 81.169353 182.477546 
L 83.237166 182.932991 
L 85.821933 183.257287 
L 89.612924 183.478343 
L 96.505635 183.613037 
L 135.104816 183.879073 
L 147.511695 184.052594 
L 148.028649 184.259551 
L 148.373284 184.575872 
L 148.71792 185.145179 
L 149.234873 186.648516 
L 149.924144 189.819919 
L 150.441097 192.690939 
L 150.613415 197.005806 
L 191.452727 197.005806 
L 191.452727 197.005806 
" style="fill:none;opacity:0.7;stroke:#fca50a;stroke-linecap:square;stroke-width:2;"/>
   </g>
   <g id="patch_3">
    <path d="M 10.7 200.06 
L 10.7 10.7 
" style="fill:none;stroke:#000000;stroke-linecap:square;stroke-linejoin:miter;stroke-width:0.8;"/>
   </g>
   <g id="patch_4">
    <path d="M 200.06 200.06 
L 200.06 10.7 
" style="fill:none;stroke:#000000;stroke-linecap:square;stroke-linejoin:miter;stroke-width:0.8;"/>
   </g>
   <g id="patch_5">
    <path d="M 10.7 200.06 
L 200.06 200.06 
" style="fill:none;stroke:#000000;stroke-linecap:square;stroke-linejoin:miter;stroke-width:0.8;"/>
   </g>
   <g id="patch_6">
    <path d="M 10.7 10.7 
L 200.06 10.7 
" style="fill:none;stroke:#000000;stroke-linecap:square;stroke-linejoin:miter;stroke-width:0.8;"/>
   </g>
  </g>
 </g>
 <defs>
  <clipPath id="p3b010def4f">
   <rect height="189.36" width="189.36" x="10.7" y="10.7"/>
  </clipPath>
 </defs>
</svg>
