<?xml version="1.0" encoding="utf-8" standalone="no"?>
<!DOCTYPE svg PUBLIC "-//W3C//DTD SVG 1.1//EN"
  "http://www.w3.org/Graphics/SVG/1.1/DTD/svg11.dtd">
<!-- Created with matplotlib (http://matplotlib.org/) -->
<svg height="210pt" version="1.1" viewBox="0 0 210 210" width="210pt" xmlns="http://www.w3.org/2000/svg" xmlns:xlink="http://www.w3.org/1999/xlink">
 <defs>
  <style type="text/css">
*{stroke-linecap:butt;stroke-linejoin:round;}
  </style>
 </defs>
 <g id="figure_1">
  <g id="patch_1">
   <path d="M 0 210.76 
L 210.76 210.76 
L 210.76 0 
L 0 0 
z
" style="fill:#ffffff;"/>
  </g>
  <g id="axes_1">
   <g id="patch_2">
    <path d="M 10.7 200.06 
L 200.06 200.06 
L 200.06 10.7 
L 10.7 10.7 
z
" style="fill:#ffffff;"/>
   </g>
   <g id="matplotlib.axis_1"/>
   <g id="matplotlib.axis_2"/>
   <g id="line2d_1">
    <path clip-path="url(#p54a4b58832)" d="M 19.307273 191.826957 
L 57.561818 191.826957 
L 57.734136 171.906211 
L 58.595725 163.498895 
L 59.457314 152.598665 
L 60.49122 136.224213 
L 62.04208 107.034061 
L 63.765258 75.351511 
L 64.799165 60.155411 
L 65.660753 50.33127 
L 66.522342 42.93549 
L 67.383931 37.585147 
L 68.073202 34.478804 
L 68.762473 32.183628 
L 69.451744 30.515878 
L 70.141016 29.32511 
L 70.830287 28.492358 
L 71.691876 27.817188 
L 72.553464 27.427671 
L 73.587371 27.21027 
L 74.965913 27.180527 
L 76.861409 27.394503 
L 80.135446 28.030048 
L 118.217674 36.134298 
L 134.76018 39.491642 
L 136.655676 40.135426 
L 138.034218 40.837913 
L 139.068124 41.609191 
L 139.929713 42.510883 
L 140.791302 43.764519 
L 141.480573 45.124344 
L 142.169844 46.9155 
L 142.859115 49.272596 
L 143.548387 52.359244 
L 144.237658 56.364086 
L 145.099247 62.966028 
L 145.960835 71.663232 
L 146.822424 82.631 
L 148.028649 101.406836 
L 151.130369 152.53491 
L 152.164275 164.988149 
L 152.853546 171.471729 
L 153.025864 191.826957 
L 191.452727 191.826957 
L 191.452727 191.826957 
" style="fill:none;opacity:0.7;stroke:#61136e;stroke-linecap:square;stroke-width:2;"/>
   </g>
   <g id="line2d_2">
    <path clip-path="url(#p54a4b58832)" d="M 19.307273 191.826957 
L 52.219967 191.826957 
L 52.392285 186.684093 
L 53.081556 184.761001 
L 53.770827 182.183673 
L 54.460098 178.762685 
L 55.149369 174.279532 
L 55.83864 168.501809 
L 56.700229 159.145542 
L 57.561818 147.213392 
L 58.595725 129.707185 
L 62.386716 61.191042 
L 63.248305 50.640322 
L 64.109894 42.64879 
L 64.971482 36.881381 
L 65.660753 33.573774 
L 66.350025 31.184658 
L 67.039296 29.515426 
L 67.728567 28.399653 
L 68.417838 27.703349 
L 69.107109 27.321616 
L 69.79638 27.17394 
L 70.657969 27.227182 
L 71.691876 27.529968 
L 73.070418 28.183746 
L 75.138231 29.441978 
L 79.10154 32.178274 
L 98.40113 45.73754 
L 108.567879 52.547786 
L 118.045356 58.627411 
L 127.178198 64.220717 
L 137.000311 70.210172 
L 138.895807 71.677478 
L 140.102031 72.861592 
L 141.135938 74.16214 
L 141.997527 75.562593 
L 142.859115 77.388417 
L 143.720704 79.817837 
L 144.582293 83.082231 
L 145.443882 87.45982 
L 146.305471 93.244019 
L 147.16706 100.671916 
L 148.200966 111.830218 
L 149.579509 129.62924 
L 151.647322 156.426902 
L 152.681229 167.087301 
L 153.542817 174.027912 
L 154.404406 179.301909 
L 155.265995 183.167911 
L 156.127584 185.927767 
L 156.472219 186.78615 
L 156.644537 191.826957 
L 191.452727 191.826957 
L 191.452727 191.826957 
" style="fill:none;opacity:0.7;stroke:#6f196e;stroke-linecap:square;stroke-width:2;"/>
   </g>
   <g id="line2d_3">
    <path clip-path="url(#p54a4b58832)" d="M 19.307273 191.826957 
L 51.530696 191.826957 
L 51.703014 187.208083 
L 52.392285 185.474309 
L 53.081556 183.14453 
L 53.770827 180.041151 
L 54.460098 175.955156 
L 55.149369 170.657119 
L 56.010958 161.999232 
L 56.872547 150.81529 
L 57.906454 134.10971 
L 59.457314 104.617486 
L 61.180491 72.98068 
L 62.214398 57.910224 
L 63.075987 48.213533 
L 63.937576 40.962113 
L 64.799165 35.777605 
L 65.488436 32.82292 
L 66.177707 30.697878 
L 66.866978 29.218794 
L 67.556249 28.23422 
L 68.24552 27.623519 
L 68.934791 27.292909 
L 69.79638 27.166087 
L 70.657969 27.263799 
L 71.864193 27.646804 
L 73.415053 28.388962 
L 75.827502 29.810068 
L 80.824717 33.070927 
L 111.152645 53.146339 
L 122.353301 60.211748 
L 138.206536 70.135098 
L 139.757396 71.505901 
L 140.96362 72.891235 
L 141.997527 74.466564 
L 142.859115 76.204999 
L 143.720704 78.50759 
L 144.582293 81.595905 
L 145.443882 85.741864 
L 146.305471 91.242598 
L 147.16706 98.35773 
L 148.200966 109.17123 
L 149.407191 124.429775 
L 151.991957 158.059722 
L 153.025864 168.388406 
L 153.887453 175.037687 
L 154.749042 180.051095 
L 155.610631 183.704785 
L 156.472219 186.302149 
L 156.816855 187.108148 
L 156.989173 191.826957 
L 191.452727 191.826957 
L 191.452727 191.826957 
" style="fill:none;opacity:0.7;stroke:#7d1e6d;stroke-linecap:square;stroke-width:2;"/>
   </g>
   <g id="line2d_4">
    <path clip-path="url(#p54a4b58832)" d="M 19.307273 191.826957 
L 50.841425 191.826957 
L 51.013743 187.545172 
L 51.703014 185.93633 
L 52.392285 183.77077 
L 53.081556 180.8796 
L 53.770827 177.061565 
L 54.460098 172.091516 
L 55.321687 163.92219 
L 56.183276 153.280886 
L 57.217183 137.196101 
L 58.595725 111.579708 
L 60.663538 73.408507 
L 61.697445 58.402179 
L 62.559034 48.720371 
L 63.420622 41.451396 
L 64.282211 36.223966 
L 64.971482 33.222006 
L 65.660753 31.042066 
L 66.350025 29.503273 
L 67.039296 28.456258 
L 67.728567 27.781846 
L 68.417838 27.387222 
L 69.279427 27.180878 
L 70.141016 27.200238 
L 71.34724 27.476098 
L 72.8981 28.085179 
L 75.310549 29.309353 
L 79.790811 31.889744 
L 89.785242 37.953655 
L 111.841916 51.653915 
L 128.039787 61.573865 
L 136.655676 66.885292 
L 138.723489 68.418199 
L 140.102031 69.690986 
L 141.135938 70.900922 
L 142.169844 72.474852 
L 143.031433 74.210002 
L 143.893022 76.507445 
L 144.754611 79.589751 
L 145.6162 83.731654 
L 146.477789 89.236138 
L 147.339378 96.372864 
L 148.373284 107.255746 
L 149.579509 122.685625 
L 152.164275 156.9835 
L 153.198182 167.594734 
L 154.059771 174.444742 
L 154.92136 179.619185 
L 155.782948 183.39547 
L 156.644537 186.082667 
L 157.161491 187.29079 
L 157.333808 191.826957 
L 191.452727 191.826957 
L 191.452727 191.826957 
" style="fill:none;opacity:0.7;stroke:#c73e4c;stroke-linecap:square;stroke-width:2;"/>
   </g>
   <g id="line2d_5">
    <path clip-path="url(#p54a4b58832)" d="M 19.307273 191.826957 
L 51.358378 191.826957 
L 51.530696 187.179345 
L 52.219967 185.43815 
L 52.909238 183.098759 
L 53.598509 179.983211 
L 54.287781 175.8823 
L 54.977052 170.566795 
L 55.83864 161.886844 
L 56.700229 150.684036 
L 57.734136 133.969618 
L 59.457314 101.151775 
L 61.008174 72.972202 
L 62.04208 57.957929 
L 62.903669 48.294711 
L 63.765258 41.061934 
L 64.626847 35.882411 
L 65.316118 32.923749 
L 66.005389 30.789371 
L 66.69466 29.297028 
L 67.383931 28.29645 
L 68.073202 27.667914 
L 68.762473 27.31831 
L 69.624062 27.166842 
L 70.485651 27.239482 
L 71.691876 27.587391 
L 73.242735 28.285227 
L 75.655184 29.640199 
L 80.480082 32.665547 
L 97.539541 43.757454 
L 114.426683 54.610598 
L 126.316609 61.988272 
L 137.172629 68.719788 
L 139.068124 70.204393 
L 140.446667 71.586079 
L 141.480573 72.937329 
L 142.342162 74.394787 
L 143.203751 76.297012 
L 144.06534 78.82948 
L 144.926929 82.23181 
L 145.788518 86.789598 
L 146.650106 92.798925 
L 147.511695 100.489148 
L 148.545602 111.977375 
L 150.096462 132.502697 
L 151.81964 155.041619 
L 152.853546 166.022988 
L 153.715135 173.2125 
L 154.576724 178.696737 
L 155.438313 182.728452 
L 156.299902 185.612626 
L 156.989173 187.287918 
L 157.161491 191.826957 
L 191.452727 191.826957 
L 191.452727 191.826957 
" style="fill:none;opacity:0.7;stroke:#de5238;stroke-linecap:square;stroke-width:2;"/>
   </g>
   <g id="line2d_6">
    <path clip-path="url(#p54a4b58832)" d="M 19.307273 191.826957 
L 51.358378 191.826957 
L 51.530696 187.179345 
L 52.219967 185.43815 
L 52.909238 183.098759 
L 53.598509 179.983211 
L 54.287781 175.8823 
L 54.977052 170.566795 
L 55.83864 161.886844 
L 56.700229 150.684036 
L 57.734136 133.969618 
L 59.457314 101.151775 
L 61.008174 72.972202 
L 62.04208 57.957929 
L 62.903669 48.294711 
L 63.765258 41.061934 
L 64.626847 35.882411 
L 65.316118 32.923749 
L 66.005389 30.789371 
L 66.69466 29.297028 
L 67.383931 28.29645 
L 68.073202 27.667914 
L 68.762473 27.31831 
L 69.624062 27.166842 
L 70.485651 27.239482 
L 71.691876 27.587391 
L 73.242735 28.285227 
L 75.655184 29.640199 
L 80.480082 32.665547 
L 97.539541 43.757454 
L 114.426683 54.610598 
L 126.316609 61.988272 
L 137.172629 68.719788 
L 139.068124 70.204393 
L 140.446667 71.586079 
L 141.480573 72.937329 
L 142.342162 74.394787 
L 143.203751 76.297012 
L 144.06534 78.82948 
L 144.926929 82.23181 
L 145.788518 86.789598 
L 146.650106 92.798925 
L 147.511695 100.489148 
L 148.545602 111.977375 
L 150.096462 132.502697 
L 151.81964 155.041619 
L 152.853546 166.022988 
L 153.715135 173.2125 
L 154.576724 178.696737 
L 155.438313 182.728452 
L 156.299902 185.612626 
L 156.989173 187.287918 
L 157.161491 191.826957 
L 191.452727 191.826957 
L 191.452727 191.826957 
" style="fill:none;opacity:0.7;stroke:#f98e09;stroke-linecap:square;stroke-width:2;"/>
   </g>
   <g id="patch_3">
    <path d="M 10.7 200.06 
L 10.7 10.7 
" style="fill:none;stroke:#000000;stroke-linecap:square;stroke-linejoin:miter;stroke-width:0.8;"/>
   </g>
   <g id="patch_4">
    <path d="M 200.06 200.06 
L 200.06 10.7 
" style="fill:none;stroke:#000000;stroke-linecap:square;stroke-linejoin:miter;stroke-width:0.8;"/>
   </g>
   <g id="patch_5">
    <path d="M 10.7 200.06 
L 200.06 200.06 
" style="fill:none;stroke:#000000;stroke-linecap:square;stroke-linejoin:miter;stroke-width:0.8;"/>
   </g>
   <g id="patch_6">
    <path d="M 10.7 10.7 
L 200.06 10.7 
" style="fill:none;stroke:#000000;stroke-linecap:square;stroke-linejoin:miter;stroke-width:0.8;"/>
   </g>
  </g>
 </g>
 <defs>
  <clipPath id="p54a4b58832">
   <rect height="189.36" width="189.36" x="10.7" y="10.7"/>
  </clipPath>
 </defs>
</svg>
