<?xml version="1.0" encoding="utf-8" standalone="no"?>
<!DOCTYPE svg PUBLIC "-//W3C//DTD SVG 1.1//EN"
  "http://www.w3.org/Graphics/SVG/1.1/DTD/svg11.dtd">
<!-- Created with matplotlib (http://matplotlib.org/) -->
<svg height="210pt" version="1.1" viewBox="0 0 210 210" width="210pt" xmlns="http://www.w3.org/2000/svg" xmlns:xlink="http://www.w3.org/1999/xlink">
 <defs>
  <style type="text/css">
*{stroke-linecap:butt;stroke-linejoin:round;}
  </style>
 </defs>
 <g id="figure_1">
  <g id="patch_1">
   <path d="M 0 210.76 
L 210.76 210.76 
L 210.76 0 
L 0 0 
z
" style="fill:#ffffff;"/>
  </g>
  <g id="axes_1">
   <g id="patch_2">
    <path d="M 10.7 200.06 
L 200.06 200.06 
L 200.06 10.7 
L 10.7 10.7 
z
" style="fill:#ffffff;"/>
   </g>
   <g id="matplotlib.axis_1"/>
   <g id="matplotlib.axis_2"/>
   <g id="line2d_1">
    <path clip-path="url(#ped6371a99a)" d="M 19.307273 191.826957 
L 63.59294 191.826957 
L 63.765258 104.131661 
L 64.454529 66.683845 
L 64.971482 47.066224 
L 65.488436 34.920964 
L 65.833071 30.313362 
L 66.177707 27.896844 
L 66.522342 27.166087 
L 66.69466 27.2893 
L 67.039296 28.263937 
L 67.556249 30.938462 
L 70.313333 47.637814 
L 71.174922 50.82356 
L 72.036511 53.043081 
L 72.725782 54.282379 
L 73.587371 55.343547 
L 74.44896 56.024432 
L 75.482867 56.517761 
L 76.689091 56.828249 
L 78.412269 57.022974 
L 81.169353 57.08449 
L 146.305471 57.201909 
L 146.822424 57.471586 
L 147.16706 57.938763 
L 147.511695 58.953187 
L 147.856331 61.095949 
L 148.200966 65.387361 
L 148.545602 73.23476 
L 148.890238 85.829789 
L 149.407191 113.211853 
L 149.579509 191.826957 
L 191.452727 191.826957 
L 191.452727 191.826957 
" style="fill:none;opacity:0.7;stroke:#420a68;stroke-linecap:square;stroke-width:2;"/>
   </g>
   <g id="line2d_2">
    <path clip-path="url(#ped6371a99a)" d="M 19.307273 191.826957 
L 64.282211 191.826957 
L 64.454529 67.436808 
L 64.971482 47.500559 
L 65.488436 35.128383 
L 65.833071 30.419411 
L 66.177707 27.935805 
L 66.522342 27.166087 
L 66.69466 27.278425 
L 67.039296 28.244913 
L 67.556249 30.931865 
L 70.313333 47.819778 
L 71.174922 51.048319 
L 72.036511 53.2985 
L 72.725782 54.555232 
L 73.587371 55.631529 
L 74.44896 56.322238 
L 75.482867 56.822757 
L 76.689091 57.137812 
L 78.412269 57.335441 
L 81.169353 57.398074 
L 146.305471 57.518761 
L 146.822424 57.795916 
L 147.16706 58.275947 
L 147.511695 59.31786 
L 147.856331 61.516883 
L 148.200966 65.914333 
L 148.373284 191.826957 
L 191.452727 191.826957 
L 191.452727 191.826957 
" style="fill:none;opacity:0.7;stroke:#510e6c;stroke-linecap:square;stroke-width:2;"/>
   </g>
   <g id="line2d_3">
    <path clip-path="url(#ped6371a99a)" d="M 19.307273 191.826957 
L 64.454529 191.826957 
L 64.626847 59.946687 
L 65.1438 42.609149 
L 65.660753 32.471167 
L 66.005389 28.93606 
L 66.350025 27.367655 
L 66.522342 27.166087 
L 66.69466 27.277954 
L 67.039296 28.244356 
L 67.556249 30.932693 
L 70.313333 47.83443 
L 71.174922 51.065927 
L 72.036511 53.318206 
L 72.725782 54.576125 
L 73.587371 55.653447 
L 74.44896 56.344819 
L 75.482867 56.845822 
L 76.689091 57.161185 
L 78.412269 57.359008 
L 81.169353 57.421711 
L 146.305471 57.542587 
L 146.822424 57.820172 
L 147.16706 58.300946 
L 147.511695 59.34445 
L 147.856331 61.546749 
L 148.028649 63.389293 
L 148.200966 191.826957 
L 191.452727 191.826957 
L 191.452727 191.826957 
" style="fill:none;opacity:0.7;stroke:#6f196e;stroke-linecap:square;stroke-width:2;"/>
   </g>
   <g id="line2d_4">
    <path clip-path="url(#ped6371a99a)" d="M 19.307273 191.826957 
L 64.282211 191.826957 
L 64.454529 67.436808 
L 64.971482 47.500559 
L 65.488436 35.128383 
L 65.833071 30.419411 
L 66.177707 27.935805 
L 66.522342 27.166087 
L 66.69466 27.278425 
L 67.039296 28.244913 
L 67.556249 30.931865 
L 70.313333 47.819778 
L 71.174922 51.048319 
L 72.036511 53.2985 
L 72.725782 54.555232 
L 73.587371 55.631529 
L 74.44896 56.322238 
L 75.482867 56.822757 
L 76.689091 57.137812 
L 78.412269 57.335441 
L 81.169353 57.398074 
L 146.305471 57.518761 
L 146.822424 57.795916 
L 147.16706 58.275947 
L 147.511695 59.31786 
L 147.856331 61.516883 
L 148.200966 65.914333 
L 148.373284 191.826957 
L 191.452727 191.826957 
L 191.452727 191.826957 
" style="fill:none;opacity:0.7;stroke:#8d2369;stroke-linecap:square;stroke-width:2;"/>
   </g>
   <g id="line2d_5">
    <path clip-path="url(#ped6371a99a)" d="M 19.307273 191.826957 
L 60.835856 191.826957 
L 61.180491 185.25694 
L 61.525127 178.646419 
L 61.869762 167.602822 
L 62.386716 142.23454 
L 63.937576 56.841498 
L 64.454529 40.652162 
L 64.971482 31.435438 
L 65.316118 28.382894 
L 65.660753 27.203579 
L 65.833071 27.166087 
L 66.005389 27.424328 
L 66.350025 28.638049 
L 66.866978 31.610163 
L 69.451744 48.584508 
L 70.313333 52.313247 
L 71.174922 55.042472 
L 72.036511 57.007179 
L 72.8981 58.426213 
L 73.932007 59.649967 
L 75.138231 60.676259 
L 76.689091 61.663587 
L 79.10154 62.893737 
L 102.019803 73.723989 
L 139.068124 91.572418 
L 146.822424 95.256041 
L 147.339378 95.763616 
L 147.684013 96.390874 
L 148.028649 97.559773 
L 148.373284 99.811116 
L 148.71792 104.007001 
L 149.062555 111.131984 
L 149.579509 128.129792 
L 151.130369 191.826957 
L 191.452727 191.826957 
L 191.452727 191.826957 
" style="fill:none;opacity:0.7;stroke:#c73e4c;stroke-linecap:square;stroke-width:2;"/>
   </g>
   <g id="line2d_6">
    <path clip-path="url(#ped6371a99a)" d="M 19.307273 191.826957 
L 61.352809 191.826957 
L 61.697445 182.44134 
L 62.04208 173.690742 
L 62.559034 151.529355 
L 64.454529 50.189953 
L 64.971482 36.562695 
L 65.488436 29.458493 
L 65.833071 27.502144 
L 66.005389 27.166087 
L 66.177707 27.179712 
L 66.350025 27.489478 
L 66.69466 28.806431 
L 67.211613 31.931045 
L 69.79638 49.569443 
L 70.657969 53.484605 
L 71.519558 56.387862 
L 72.381147 58.516917 
L 73.242735 60.092631 
L 74.276642 61.496231 
L 75.482867 62.723007 
L 77.033726 63.955465 
L 79.446175 65.541706 
L 85.649615 69.188467 
L 94.954775 74.439381 
L 104.087617 79.340433 
L 113.048141 83.90013 
L 122.008665 88.213003 
L 130.969189 92.282759 
L 140.102031 96.187566 
L 146.822424 99.071111 
L 147.339378 99.64506 
L 147.684013 100.413033 
L 148.028649 101.888138 
L 148.373284 104.722868 
L 148.71792 109.844034 
L 149.062555 118.088195 
L 149.579509 136.232325 
L 150.958051 191.826957 
L 191.452727 191.826957 
L 191.452727 191.826957 
" style="fill:none;opacity:0.7;stroke:#de5238;stroke-linecap:square;stroke-width:2;"/>
   </g>
   <g id="line2d_7">
    <path clip-path="url(#ped6371a99a)" d="M 19.307273 191.826957 
L 63.937576 191.826957 
L 64.109894 84.563454 
L 64.799165 53.022821 
L 65.316118 38.361434 
L 65.833071 30.373535 
L 66.177707 27.919452 
L 66.522342 27.166087 
L 66.69466 27.282604 
L 67.039296 28.251184 
L 67.556249 30.930043 
L 70.313333 47.72329 
L 71.174922 50.931058 
L 72.036511 53.16643 
L 72.725782 54.414768 
L 73.587371 55.483797 
L 74.44896 56.169797 
L 75.482867 56.666875 
L 76.689091 56.979748 
L 78.412269 57.175993 
L 81.169353 57.238109 
L 146.305471 57.357356 
L 146.822424 57.631213 
L 147.16706 58.105572 
L 147.511695 59.13534 
L 147.856331 61.309433 
L 148.200966 65.659622 
L 148.545602 73.602992 
L 148.890238 86.328041 
L 149.062555 191.826957 
L 191.452727 191.826957 
L 191.452727 191.826957 
" style="fill:none;opacity:0.7;stroke:#ef6e21;stroke-linecap:square;stroke-width:2;"/>
   </g>
   <g id="line2d_8">
    <path clip-path="url(#ped6371a99a)" d="M 19.307273 191.826957 
L 61.352809 191.826957 
L 61.697445 182.44134 
L 62.04208 173.690742 
L 62.559034 151.529355 
L 64.454529 50.189953 
L 64.971482 36.562695 
L 65.488436 29.458493 
L 65.833071 27.502144 
L 66.005389 27.166087 
L 66.177707 27.179712 
L 66.350025 27.489478 
L 66.69466 28.806431 
L 67.211613 31.931045 
L 69.79638 49.569443 
L 70.657969 53.484605 
L 71.519558 56.387862 
L 72.381147 58.516917 
L 73.242735 60.092631 
L 74.276642 61.496231 
L 75.482867 62.723007 
L 77.033726 63.955465 
L 79.446175 65.541706 
L 85.649615 69.188467 
L 94.954775 74.439381 
L 104.087617 79.340433 
L 113.048141 83.90013 
L 122.008665 88.213003 
L 130.969189 92.282759 
L 140.102031 96.187566 
L 146.822424 99.071111 
L 147.339378 99.64506 
L 147.684013 100.413033 
L 148.028649 101.888138 
L 148.373284 104.722868 
L 148.71792 109.844034 
L 149.062555 118.088195 
L 149.579509 136.232325 
L 150.958051 191.826957 
L 191.452727 191.826957 
L 191.452727 191.826957 
" style="fill:none;opacity:0.7;stroke:#f98e09;stroke-linecap:square;stroke-width:2;"/>
   </g>
   <g id="line2d_9">
    <path clip-path="url(#ped6371a99a)" d="M 19.307273 191.826957 
L 61.008174 191.826957 
L 61.352809 184.900966 
L 61.697445 177.987902 
L 62.04208 166.556583 
L 62.559034 140.677732 
L 63.937576 62.669117 
L 64.454529 44.321664 
L 64.971482 33.31327 
L 65.316118 29.346465 
L 65.660753 27.474164 
L 65.833071 27.166087 
L 66.005389 27.199368 
L 66.177707 27.521287 
L 66.522342 28.843289 
L 67.039296 31.938627 
L 69.451744 48.307196 
L 70.313333 52.324275 
L 71.174922 55.29962 
L 72.036511 57.465692 
L 72.8981 59.048274 
L 73.932007 60.430998 
L 75.138231 61.608209 
L 76.689091 62.757396 
L 78.929222 64.109338 
L 85.477297 67.632243 
L 106.672383 78.868831 
L 119.423898 85.371821 
L 130.624554 90.835511 
L 140.96362 95.636091 
L 146.822424 98.379093 
L 147.339378 98.913349 
L 147.684013 99.593056 
L 148.028649 100.874082 
L 148.373284 103.33774 
L 148.71792 107.867726 
L 149.062555 115.382499 
L 149.579509 132.674228 
L 151.130369 191.826957 
L 191.452727 191.826957 
L 191.452727 191.826957 
" style="fill:none;opacity:0.7;stroke:#fca108;stroke-linecap:square;stroke-width:2;"/>
   </g>
   <g id="line2d_10">
    <path clip-path="url(#ped6371a99a)" d="M 19.307273 191.826957 
L 62.386716 191.826957 
L 62.559034 167.420816 
L 63.075987 141.623833 
L 64.454529 63.458176 
L 64.971482 44.942961 
L 65.488436 33.73369 
L 65.833071 29.620909 
L 66.177707 27.596563 
L 66.350025 27.210969 
L 66.522342 27.166087 
L 66.69466 27.409422 
L 67.039296 28.573739 
L 67.556249 31.433407 
L 70.141016 47.584041 
L 71.002604 51.029065 
L 71.864193 53.483342 
L 72.725782 55.18094 
L 73.587371 56.338577 
L 74.44896 57.127809 
L 75.482867 57.761667 
L 76.861409 58.299337 
L 78.756904 58.764809 
L 82.030942 59.296227 
L 101.675168 62.120018 
L 122.525618 64.890303 
L 144.754611 67.614848 
L 146.305471 67.88852 
L 146.822424 68.167018 
L 147.16706 68.585513 
L 147.511695 69.44903 
L 147.856331 71.236949 
L 148.200966 74.810407 
L 148.545602 81.410755 
L 148.890238 92.195137 
L 149.407191 116.26178 
L 150.26878 163.90605 
L 150.441097 191.826957 
L 191.452727 191.826957 
L 191.452727 191.826957 
" style="fill:none;opacity:0.7;stroke:#fcb216;stroke-linecap:square;stroke-width:2;"/>
   </g>
   <g id="patch_3">
    <path d="M 10.7 200.06 
L 10.7 10.7 
" style="fill:none;stroke:#000000;stroke-linecap:square;stroke-linejoin:miter;stroke-width:0.8;"/>
   </g>
   <g id="patch_4">
    <path d="M 200.06 200.06 
L 200.06 10.7 
" style="fill:none;stroke:#000000;stroke-linecap:square;stroke-linejoin:miter;stroke-width:0.8;"/>
   </g>
   <g id="patch_5">
    <path d="M 10.7 200.06 
L 200.06 200.06 
" style="fill:none;stroke:#000000;stroke-linecap:square;stroke-linejoin:miter;stroke-width:0.8;"/>
   </g>
   <g id="patch_6">
    <path d="M 10.7 10.7 
L 200.06 10.7 
" style="fill:none;stroke:#000000;stroke-linecap:square;stroke-linejoin:miter;stroke-width:0.8;"/>
   </g>
  </g>
 </g>
 <defs>
  <clipPath id="ped6371a99a">
   <rect height="189.36" width="189.36" x="10.7" y="10.7"/>
  </clipPath>
 </defs>
</svg>
