<?xml version="1.0" encoding="utf-8" standalone="no"?>
<!DOCTYPE svg PUBLIC "-//W3C//DTD SVG 1.1//EN"
  "http://www.w3.org/Graphics/SVG/1.1/DTD/svg11.dtd">
<!-- Created with matplotlib (http://matplotlib.org/) -->
<svg height="136pt" version="1.1" viewBox="0 0 137 136" width="137pt" xmlns="http://www.w3.org/2000/svg" xmlns:xlink="http://www.w3.org/1999/xlink">
 <defs>
  <style type="text/css">
*{stroke-linecap:butt;stroke-linejoin:round;}
  </style>
 </defs>
 <g id="figure_1">
  <g id="patch_1">
   <path d="M 0 136.237344 
L 137.7875 136.237344 
L 137.7875 0 
L 0 0 
z
" style="fill:#ffffff;"/>
  </g>
  <g id="axes_1">
   <g id="patch_2">
    <path d="M 33.2875 112.359219 
L 127.0875 112.359219 
L 127.0875 10.999219 
L 33.2875 10.999219 
z
" style="fill:#ffffff;"/>
   </g>
   <g id="PolyCollection_1">
    <path clip-path="url(#p602ad2bfa4)" d="M 81.043819 112.359219 
L 79.331181 112.359219 
L 79.144974 111.352195 
L 78.898169 110.345172 
L 78.557052 109.338148 
L 78.099057 108.331124 
L 77.522783 107.324101 
L 76.849092 106.317077 
L 76.113405 105.310054 
L 75.354128 104.30303 
L 74.603236 103.296007 
L 73.882277 102.288983 
L 73.20321 101.28196 
L 72.571288 100.274936 
L 71.987672 99.267912 
L 71.451191 98.260889 
L 70.959838 97.253865 
L 70.512342 96.246842 
L 70.109237 95.239818 
L 69.752546 94.232795 
L 69.444018 93.225771 
L 69.182947 92.218747 
L 68.965016 91.211724 
L 68.782914 90.2047 
L 68.628304 89.197677 
L 68.494083 88.190653 
L 68.375925 87.18363 
L 68.272611 86.176606 
L 68.185191 85.169583 
L 68.115258 84.162559 
L 68.062777 83.155535 
L 68.024035 82.148512 
L 67.990568 81.141488 
L 67.950015 80.134465 
L 67.889313 79.127441 
L 67.799307 78.120418 
L 67.678568 77.113394 
L 67.534044 76.10637 
L 67.377886 75.099347 
L 67.222169 74.092323 
L 67.074611 73.0853 
L 66.9375 72.078276 
L 66.809729 71.071253 
L 66.689892 70.064229 
L 66.578145 69.057206 
L 66.475816 68.050182 
L 66.383384 67.043158 
L 66.298354 66.036135 
L 66.214394 65.029111 
L 66.122313 64.022088 
L 66.012498 63.015064 
L 65.877607 62.008041 
L 65.71401 61.001017 
L 65.520781 59.993993 
L 65.296308 58.98697 
L 65.034245 57.979946 
L 64.721627 56.972923 
L 64.341344 55.965899 
L 63.878756 54.958876 
L 63.329437 53.951852 
L 62.703921 52.944829 
L 62.026905 51.937805 
L 61.331409 50.930781 
L 60.650828 49.923758 
L 60.012056 48.916734 
L 59.4314 47.909711 
L 58.913191 46.902687 
L 58.450054 45.895664 
L 58.023945 44.88864 
L 57.607847 43.881616 
L 57.168915 42.874593 
L 56.67391 41.867569 
L 56.096547 40.860546 
L 55.424245 39.853522 
L 54.660528 38.846499 
L 53.820642 37.839475 
L 52.921682 36.832452 
L 51.972396 35.825428 
L 50.968612 34.818404 
L 49.896973 33.811381 
L 48.744387 32.804357 
L 47.507001 31.797334 
L 46.193415 30.79031 
L 44.82151 29.783287 
L 43.41358 28.776263 
L 41.996649 27.769239 
L 40.612171 26.762216 
L 39.332978 25.755192 
L 38.27875 24.748169 
L 37.618396 23.741145 
L 37.551136 22.734122 
L 38.267088 21.727098 
L 39.898749 20.720075 
L 42.480788 19.713051 
L 45.932812 18.706027 
L 50.069512 17.699004 
L 54.631391 16.69198 
L 59.324211 15.684957 
L 63.857905 14.677933 
L 67.981044 13.67091 
L 71.509159 12.663886 
L 88.865841 12.663886 
L 88.865841 12.663886 
L 92.393956 13.67091 
L 96.517095 14.677933 
L 101.050789 15.684957 
L 105.743609 16.69198 
L 110.305488 17.699004 
L 114.442188 18.706027 
L 117.894212 19.713051 
L 120.476251 20.720075 
L 122.107912 21.727098 
L 122.823864 22.734122 
L 122.756604 23.741145 
L 122.09625 24.748169 
L 121.042022 25.755192 
L 119.762829 26.762216 
L 118.378351 27.769239 
L 116.96142 28.776263 
L 115.55349 29.783287 
L 114.181585 30.79031 
L 112.867999 31.797334 
L 111.630613 32.804357 
L 110.478027 33.811381 
L 109.406388 34.818404 
L 108.402604 35.825428 
L 107.453318 36.832452 
L 106.554358 37.839475 
L 105.714472 38.846499 
L 104.950755 39.853522 
L 104.278453 40.860546 
L 103.70109 41.867569 
L 103.206085 42.874593 
L 102.767153 43.881616 
L 102.351055 44.88864 
L 101.924946 45.895664 
L 101.461809 46.902687 
L 100.9436 47.909711 
L 100.362944 48.916734 
L 99.724172 49.923758 
L 99.043591 50.930781 
L 98.348095 51.937805 
L 97.671079 52.944829 
L 97.045563 53.951852 
L 96.496244 54.958876 
L 96.033656 55.965899 
L 95.653373 56.972923 
L 95.340755 57.979946 
L 95.078692 58.98697 
L 94.854219 59.993993 
L 94.66099 61.001017 
L 94.497393 62.008041 
L 94.362502 63.015064 
L 94.252687 64.022088 
L 94.160606 65.029111 
L 94.076646 66.036135 
L 93.991616 67.043158 
L 93.899184 68.050182 
L 93.796855 69.057206 
L 93.685108 70.064229 
L 93.565271 71.071253 
L 93.4375 72.078276 
L 93.300389 73.0853 
L 93.152831 74.092323 
L 92.997114 75.099347 
L 92.840956 76.10637 
L 92.696432 77.113394 
L 92.575693 78.120418 
L 92.485687 79.127441 
L 92.424985 80.134465 
L 92.384432 81.141488 
L 92.350965 82.148512 
L 92.312223 83.155535 
L 92.259742 84.162559 
L 92.189809 85.169583 
L 92.102389 86.176606 
L 91.999075 87.18363 
L 91.880917 88.190653 
L 91.746696 89.197677 
L 91.592086 90.2047 
L 91.409984 91.211724 
L 91.192053 92.218747 
L 90.930982 93.225771 
L 90.622454 94.232795 
L 90.265763 95.239818 
L 89.862658 96.246842 
L 89.415162 97.253865 
L 88.923809 98.260889 
L 88.387328 99.267912 
L 87.803712 100.274936 
L 87.17179 101.28196 
L 86.492723 102.288983 
L 85.771764 103.296007 
L 85.020872 104.30303 
L 84.261595 105.310054 
L 83.525908 106.317077 
L 82.852217 107.324101 
L 82.275943 108.331124 
L 81.817948 109.338148 
L 81.476831 110.345172 
L 81.230026 111.352195 
L 81.043819 112.359219 
z
" style="fill:#1f77b4;fill-opacity:0.3;"/>
   </g>
   <g id="matplotlib.axis_1">
    <g id="xtick_1">
     <g id="line2d_1">
      <defs>
       <path d="M 0 0 
L 0 3.5 
" id="mfa8405cd01" style="stroke:#000000;stroke-width:0.8;"/>
      </defs>
      <g>
       <use style="stroke:#000000;stroke-width:0.8;" x="46.078409" xlink:href="#mfa8405cd01" y="112.359219"/>
      </g>
     </g>
     <g id="text_1">
      <!-- 0.8 -->
      <defs>
       <path d="M 31.78125 66.40625 
Q 24.171875 66.40625 20.328125 58.90625 
Q 16.5 51.421875 16.5 36.375 
Q 16.5 21.390625 20.328125 13.890625 
Q 24.171875 6.390625 31.78125 6.390625 
Q 39.453125 6.390625 43.28125 13.890625 
Q 47.125 21.390625 47.125 36.375 
Q 47.125 51.421875 43.28125 58.90625 
Q 39.453125 66.40625 31.78125 66.40625 
z
M 31.78125 74.21875 
Q 44.046875 74.21875 50.515625 64.515625 
Q 56.984375 54.828125 56.984375 36.375 
Q 56.984375 17.96875 50.515625 8.265625 
Q 44.046875 -1.421875 31.78125 -1.421875 
Q 19.53125 -1.421875 13.0625 8.265625 
Q 6.59375 17.96875 6.59375 36.375 
Q 6.59375 54.828125 13.0625 64.515625 
Q 19.53125 74.21875 31.78125 74.21875 
z
" id="DejaVuSans-30"/>
       <path d="M 10.6875 12.40625 
L 21 12.40625 
L 21 0 
L 10.6875 0 
z
" id="DejaVuSans-2e"/>
       <path d="M 31.78125 34.625 
Q 24.75 34.625 20.71875 30.859375 
Q 16.703125 27.09375 16.703125 20.515625 
Q 16.703125 13.921875 20.71875 10.15625 
Q 24.75 6.390625 31.78125 6.390625 
Q 38.8125 6.390625 42.859375 10.171875 
Q 46.921875 13.96875 46.921875 20.515625 
Q 46.921875 27.09375 42.890625 30.859375 
Q 38.875 34.625 31.78125 34.625 
z
M 21.921875 38.8125 
Q 15.578125 40.375 12.03125 44.71875 
Q 8.5 49.078125 8.5 55.328125 
Q 8.5 64.0625 14.71875 69.140625 
Q 20.953125 74.21875 31.78125 74.21875 
Q 42.671875 74.21875 48.875 69.140625 
Q 55.078125 64.0625 55.078125 55.328125 
Q 55.078125 49.078125 51.53125 44.71875 
Q 48 40.375 41.703125 38.8125 
Q 48.828125 37.15625 52.796875 32.3125 
Q 56.78125 27.484375 56.78125 20.515625 
Q 56.78125 9.90625 50.3125 4.234375 
Q 43.84375 -1.421875 31.78125 -1.421875 
Q 19.734375 -1.421875 13.25 4.234375 
Q 6.78125 9.90625 6.78125 20.515625 
Q 6.78125 27.484375 10.78125 32.3125 
Q 14.796875 37.15625 21.921875 38.8125 
z
M 18.3125 54.390625 
Q 18.3125 48.734375 21.84375 45.5625 
Q 25.390625 42.390625 31.78125 42.390625 
Q 38.140625 42.390625 41.71875 45.5625 
Q 45.3125 48.734375 45.3125 54.390625 
Q 45.3125 60.0625 41.71875 63.234375 
Q 38.140625 66.40625 31.78125 66.40625 
Q 25.390625 66.40625 21.84375 63.234375 
Q 18.3125 60.0625 18.3125 54.390625 
z
" id="DejaVuSans-38"/>
      </defs>
      <g transform="translate(38.126847 126.957656)scale(0.1 -0.1)">
       <use xlink:href="#DejaVuSans-30"/>
       <use x="63.623047" xlink:href="#DejaVuSans-2e"/>
       <use x="95.410156" xlink:href="#DejaVuSans-38"/>
      </g>
     </g>
    </g>
    <g id="xtick_2">
     <g id="line2d_2">
      <g>
       <use style="stroke:#000000;stroke-width:0.8;" x="80.1875" xlink:href="#mfa8405cd01" y="112.359219"/>
      </g>
     </g>
     <g id="text_2">
      <!-- 1.0 -->
      <defs>
       <path d="M 12.40625 8.296875 
L 28.515625 8.296875 
L 28.515625 63.921875 
L 10.984375 60.40625 
L 10.984375 69.390625 
L 28.421875 72.90625 
L 38.28125 72.90625 
L 38.28125 8.296875 
L 54.390625 8.296875 
L 54.390625 0 
L 12.40625 0 
z
" id="DejaVuSans-31"/>
      </defs>
      <g transform="translate(72.235938 126.957656)scale(0.1 -0.1)">
       <use xlink:href="#DejaVuSans-31"/>
       <use x="63.623047" xlink:href="#DejaVuSans-2e"/>
       <use x="95.410156" xlink:href="#DejaVuSans-30"/>
      </g>
     </g>
    </g>
    <g id="xtick_3">
     <g id="line2d_3">
      <g>
       <use style="stroke:#000000;stroke-width:0.8;" x="114.296591" xlink:href="#mfa8405cd01" y="112.359219"/>
      </g>
     </g>
     <g id="text_3">
      <!-- 1.2 -->
      <defs>
       <path d="M 19.1875 8.296875 
L 53.609375 8.296875 
L 53.609375 0 
L 7.328125 0 
L 7.328125 8.296875 
Q 12.9375 14.109375 22.625 23.890625 
Q 32.328125 33.6875 34.8125 36.53125 
Q 39.546875 41.84375 41.421875 45.53125 
Q 43.3125 49.21875 43.3125 52.78125 
Q 43.3125 58.59375 39.234375 62.25 
Q 35.15625 65.921875 28.609375 65.921875 
Q 23.96875 65.921875 18.8125 64.3125 
Q 13.671875 62.703125 7.8125 59.421875 
L 7.8125 69.390625 
Q 13.765625 71.78125 18.9375 73 
Q 24.125 74.21875 28.421875 74.21875 
Q 39.75 74.21875 46.484375 68.546875 
Q 53.21875 62.890625 53.21875 53.421875 
Q 53.21875 48.921875 51.53125 44.890625 
Q 49.859375 40.875 45.40625 35.40625 
Q 44.1875 33.984375 37.640625 27.21875 
Q 31.109375 20.453125 19.1875 8.296875 
z
" id="DejaVuSans-32"/>
      </defs>
      <g transform="translate(106.345028 126.957656)scale(0.1 -0.1)">
       <use xlink:href="#DejaVuSans-31"/>
       <use x="63.623047" xlink:href="#DejaVuSans-2e"/>
       <use x="95.410156" xlink:href="#DejaVuSans-32"/>
      </g>
     </g>
    </g>
   </g>
   <g id="matplotlib.axis_2">
    <g id="ytick_1">
     <g id="line2d_4">
      <defs>
       <path d="M 0 0 
L -3.5 0 
" id="m63f6752e49" style="stroke:#000000;stroke-width:0.8;"/>
      </defs>
      <g>
       <use style="stroke:#000000;stroke-width:0.8;" x="33.2875" xlink:href="#m63f6752e49" y="112.359219"/>
      </g>
     </g>
     <g id="text_4">
      <!-- 0 -->
      <g transform="translate(19.925 116.158437)scale(0.1 -0.1)">
       <use xlink:href="#DejaVuSans-30"/>
      </g>
     </g>
    </g>
    <g id="ytick_2">
     <g id="line2d_5">
      <g>
       <use style="stroke:#000000;stroke-width:0.8;" x="33.2875" xlink:href="#m63f6752e49" y="61.679219"/>
      </g>
     </g>
     <g id="text_5">
      <!-- 150 -->
      <defs>
       <path d="M 10.796875 72.90625 
L 49.515625 72.90625 
L 49.515625 64.59375 
L 19.828125 64.59375 
L 19.828125 46.734375 
Q 21.96875 47.46875 24.109375 47.828125 
Q 26.265625 48.1875 28.421875 48.1875 
Q 40.625 48.1875 47.75 41.5 
Q 54.890625 34.8125 54.890625 23.390625 
Q 54.890625 11.625 47.5625 5.09375 
Q 40.234375 -1.421875 26.90625 -1.421875 
Q 22.3125 -1.421875 17.546875 -0.640625 
Q 12.796875 0.140625 7.71875 1.703125 
L 7.71875 11.625 
Q 12.109375 9.234375 16.796875 8.0625 
Q 21.484375 6.890625 26.703125 6.890625 
Q 35.15625 6.890625 40.078125 11.328125 
Q 45.015625 15.765625 45.015625 23.390625 
Q 45.015625 31 40.078125 35.4375 
Q 35.15625 39.890625 26.703125 39.890625 
Q 22.75 39.890625 18.8125 39.015625 
Q 14.890625 38.140625 10.796875 36.28125 
z
" id="DejaVuSans-35"/>
      </defs>
      <g transform="translate(7.2 65.478437)scale(0.1 -0.1)">
       <use xlink:href="#DejaVuSans-31"/>
       <use x="63.623047" xlink:href="#DejaVuSans-35"/>
       <use x="127.246094" xlink:href="#DejaVuSans-30"/>
      </g>
     </g>
    </g>
    <g id="ytick_3">
     <g id="line2d_6">
      <g>
       <use style="stroke:#000000;stroke-width:0.8;" x="33.2875" xlink:href="#m63f6752e49" y="10.999219"/>
      </g>
     </g>
     <g id="text_6">
      <!-- 300 -->
      <defs>
       <path d="M 40.578125 39.3125 
Q 47.65625 37.796875 51.625 33 
Q 55.609375 28.21875 55.609375 21.1875 
Q 55.609375 10.40625 48.1875 4.484375 
Q 40.765625 -1.421875 27.09375 -1.421875 
Q 22.515625 -1.421875 17.65625 -0.515625 
Q 12.796875 0.390625 7.625 2.203125 
L 7.625 11.71875 
Q 11.71875 9.328125 16.59375 8.109375 
Q 21.484375 6.890625 26.8125 6.890625 
Q 36.078125 6.890625 40.9375 10.546875 
Q 45.796875 14.203125 45.796875 21.1875 
Q 45.796875 27.640625 41.28125 31.265625 
Q 36.765625 34.90625 28.71875 34.90625 
L 20.21875 34.90625 
L 20.21875 43.015625 
L 29.109375 43.015625 
Q 36.375 43.015625 40.234375 45.921875 
Q 44.09375 48.828125 44.09375 54.296875 
Q 44.09375 59.90625 40.109375 62.90625 
Q 36.140625 65.921875 28.71875 65.921875 
Q 24.65625 65.921875 20.015625 65.03125 
Q 15.375 64.15625 9.8125 62.3125 
L 9.8125 71.09375 
Q 15.4375 72.65625 20.34375 73.4375 
Q 25.25 74.21875 29.59375 74.21875 
Q 40.828125 74.21875 47.359375 69.109375 
Q 53.90625 64.015625 53.90625 55.328125 
Q 53.90625 49.265625 50.4375 45.09375 
Q 46.96875 40.921875 40.578125 39.3125 
z
" id="DejaVuSans-33"/>
      </defs>
      <g transform="translate(7.2 14.798438)scale(0.1 -0.1)">
       <use xlink:href="#DejaVuSans-33"/>
       <use x="63.623047" xlink:href="#DejaVuSans-30"/>
       <use x="127.246094" xlink:href="#DejaVuSans-30"/>
      </g>
     </g>
    </g>
   </g>
   <g id="patch_3">
    <path d="M 33.2875 112.359219 
L 33.2875 10.999219 
" style="fill:none;stroke:#000000;stroke-linecap:square;stroke-linejoin:miter;stroke-width:0.8;"/>
   </g>
   <g id="patch_4">
    <path d="M 33.2875 112.359219 
L 127.0875 112.359219 
" style="fill:none;stroke:#000000;stroke-linecap:square;stroke-linejoin:miter;stroke-width:0.8;"/>
   </g>
  </g>
 </g>
 <defs>
  <clipPath id="p602ad2bfa4">
   <rect height="101.36" width="93.8" x="33.2875" y="10.999219"/>
  </clipPath>
 </defs>
</svg>
