<?xml version="1.0" encoding="utf-8" standalone="no"?>
<!DOCTYPE svg PUBLIC "-//W3C//DTD SVG 1.1//EN"
  "http://www.w3.org/Graphics/SVG/1.1/DTD/svg11.dtd">
<!-- Created with matplotlib (http://matplotlib.org/) -->
<svg height="210pt" version="1.1" viewBox="0 0 354 210" width="354pt" xmlns="http://www.w3.org/2000/svg" xmlns:xlink="http://www.w3.org/1999/xlink">
 <defs>
  <style type="text/css">
*{stroke-linecap:butt;stroke-linejoin:round;}
  </style>
 </defs>
 <g id="figure_1">
  <g id="patch_1">
   <path d="M 0 210.76 
L 354.76 210.76 
L 354.76 0 
L 0 0 
z
" style="fill:#ffffff;"/>
  </g>
  <g id="axes_1">
   <g id="patch_2">
    <path d="M 10.7 200.06 
L 344.06 200.06 
L 344.06 10.7 
L 10.7 10.7 
z
" style="fill:#ffffff;"/>
   </g>
   <g id="patch_3">
    <path clip-path="url(#pe57f770a5b)" d="M 25.852727 200.06 
L 27.873091 200.06 
L 27.873091 183.321375 
L 25.852727 183.321375 
z
" style="fill:#1a1a1a;"/>
   </g>
   <g id="patch_4">
    <path clip-path="url(#pe57f770a5b)" d="M 27.873091 200.06 
L 29.893455 200.06 
L 29.893455 183.061549 
L 27.873091 183.061549 
z
" style="fill:#1a1a1a;"/>
   </g>
   <g id="patch_5">
    <path clip-path="url(#pe57f770a5b)" d="M 29.893455 200.06 
L 31.913818 200.06 
L 31.913818 182.217125 
L 29.893455 182.217125 
z
" style="fill:#1a1a1a;"/>
   </g>
   <g id="patch_6">
    <path clip-path="url(#pe57f770a5b)" d="M 31.913818 200.06 
L 33.934182 200.06 
L 33.934182 181.749281 
L 31.913818 181.749281 
z
" style="fill:#1a1a1a;"/>
   </g>
   <g id="patch_7">
    <path clip-path="url(#pe57f770a5b)" d="M 33.934182 200.06 
L 35.954545 200.06 
L 35.954545 181.145338 
L 33.934182 181.145338 
z
" style="fill:#1a1a1a;"/>
   </g>
   <g id="patch_8">
    <path clip-path="url(#pe57f770a5b)" d="M 35.954545 200.06 
L 37.974909 200.06 
L 37.974909 180.714916 
L 35.954545 180.714916 
z
" style="fill:#1a1a1a;"/>
   </g>
   <g id="patch_9">
    <path clip-path="url(#pe57f770a5b)" d="M 37.974909 200.06 
L 39.995273 200.06 
L 39.995273 180.455995 
L 37.974909 180.455995 
z
" style="fill:#1a1a1a;"/>
   </g>
   <g id="patch_10">
    <path clip-path="url(#pe57f770a5b)" d="M 39.995273 200.06 
L 42.015636 200.06 
L 42.015636 179.502181 
L 39.995273 179.502181 
z
" style="fill:#1a1a1a;"/>
   </g>
   <g id="patch_11">
    <path clip-path="url(#pe57f770a5b)" d="M 42.015636 200.06 
L 44.036 200.06 
L 44.036 179.172586 
L 42.015636 179.172586 
z
" style="fill:#1a1a1a;"/>
   </g>
   <g id="patch_12">
    <path clip-path="url(#pe57f770a5b)" d="M 44.036 200.06 
L 46.056364 200.06 
L 46.056364 178.589381 
L 44.036 178.589381 
z
" style="fill:#1a1a1a;"/>
   </g>
   <g id="patch_13">
    <path clip-path="url(#pe57f770a5b)" d="M 46.056364 200.06 
L 48.076727 200.06 
L 48.076727 178.090786 
L 46.056364 178.090786 
z
" style="fill:#1a1a1a;"/>
   </g>
   <g id="patch_14">
    <path clip-path="url(#pe57f770a5b)" d="M 48.076727 200.06 
L 50.097091 200.06 
L 50.097091 177.776661 
L 48.076727 177.776661 
z
" style="fill:#1a1a1a;"/>
   </g>
   <g id="patch_15">
    <path clip-path="url(#pe57f770a5b)" d="M 50.097091 200.06 
L 52.117455 200.06 
L 52.117455 176.363165 
L 50.097091 176.363165 
z
" style="fill:#1a1a1a;"/>
   </g>
   <g id="patch_16">
    <path clip-path="url(#pe57f770a5b)" d="M 52.117455 200.06 
L 54.137818 200.06 
L 54.137818 175.654715 
L 52.117455 175.654715 
z
" style="fill:#1a1a1a;"/>
   </g>
   <g id="patch_17">
    <path clip-path="url(#pe57f770a5b)" d="M 54.137818 200.06 
L 56.158182 200.06 
L 56.158182 173.510138 
L 54.137818 173.510138 
z
" style="fill:#1a1a1a;"/>
   </g>
   <g id="patch_18">
    <path clip-path="url(#pe57f770a5b)" d="M 56.158182 200.06 
L 58.178545 200.06 
L 58.178545 171.401264 
L 56.158182 171.401264 
z
" style="fill:#1a1a1a;"/>
   </g>
   <g id="patch_19">
    <path clip-path="url(#pe57f770a5b)" d="M 58.178545 200.06 
L 60.198909 200.06 
L 60.198909 170.934252 
L 58.178545 170.934252 
z
" style="fill:#1a1a1a;"/>
   </g>
   <g id="patch_20">
    <path clip-path="url(#pe57f770a5b)" d="M 60.198909 200.06 
L 62.219273 200.06 
L 62.219273 170.614625 
L 60.198909 170.614625 
z
" style="fill:#1a1a1a;"/>
   </g>
   <g id="patch_21">
    <path clip-path="url(#pe57f770a5b)" d="M 62.219273 200.06 
L 64.239636 200.06 
L 64.239636 170.468839 
L 62.219273 170.468839 
z
" style="fill:#1a1a1a;"/>
   </g>
   <g id="patch_22">
    <path clip-path="url(#pe57f770a5b)" d="M 64.239636 200.06 
L 66.26 200.06 
L 66.26 169.543675 
L 64.239636 169.543675 
z
" style="fill:#1a1a1a;"/>
   </g>
   <g id="patch_23">
    <path clip-path="url(#pe57f770a5b)" d="M 66.26 200.06 
L 68.280364 200.06 
L 68.280364 169.148501 
L 66.26 169.148501 
z
" style="fill:#1a1a1a;"/>
   </g>
   <g id="patch_24">
    <path clip-path="url(#pe57f770a5b)" d="M 68.280364 200.06 
L 70.300727 200.06 
L 70.300727 168.706369 
L 68.280364 168.706369 
z
" style="fill:#1a1a1a;"/>
   </g>
   <g id="patch_25">
    <path clip-path="url(#pe57f770a5b)" d="M 70.300727 200.06 
L 72.321091 200.06 
L 72.321091 168.057411 
L 70.300727 168.057411 
z
" style="fill:#1a1a1a;"/>
   </g>
   <g id="patch_26">
    <path clip-path="url(#pe57f770a5b)" d="M 72.321091 200.06 
L 74.341455 200.06 
L 74.341455 165.897489 
L 72.321091 165.897489 
z
" style="fill:#1a1a1a;"/>
   </g>
   <g id="patch_27">
    <path clip-path="url(#pe57f770a5b)" d="M 74.341455 200.06 
L 76.361818 200.06 
L 76.361818 165.029784 
L 74.341455 165.029784 
z
" style="fill:#1a1a1a;"/>
   </g>
   <g id="patch_28">
    <path clip-path="url(#pe57f770a5b)" d="M 76.361818 200.06 
L 78.382182 200.06 
L 78.382182 164.362382 
L 76.361818 164.362382 
z
" style="fill:#1a1a1a;"/>
   </g>
   <g id="patch_29">
    <path clip-path="url(#pe57f770a5b)" d="M 78.382182 200.06 
L 80.402545 200.06 
L 80.402545 163.428297 
L 78.382182 163.428297 
z
" style="fill:#1a1a1a;"/>
   </g>
   <g id="patch_30">
    <path clip-path="url(#pe57f770a5b)" d="M 80.402545 200.06 
L 82.422909 200.06 
L 82.422909 162.278495 
L 80.402545 162.278495 
z
" style="fill:#1a1a1a;"/>
   </g>
   <g id="patch_31">
    <path clip-path="url(#pe57f770a5b)" d="M 82.422909 200.06 
L 84.443273 200.06 
L 84.443273 160.679374 
L 82.422909 160.679374 
z
" style="fill:#1a1a1a;"/>
   </g>
   <g id="patch_32">
    <path clip-path="url(#pe57f770a5b)" d="M 84.443273 200.06 
L 86.463636 200.06 
L 86.463636 160.518158 
L 84.443273 160.518158 
z
" style="fill:#1a1a1a;"/>
   </g>
   <g id="patch_33">
    <path clip-path="url(#pe57f770a5b)" d="M 86.463636 200.06 
L 88.484 200.06 
L 88.484 157.674805 
L 86.463636 157.674805 
z
" style="fill:#1a1a1a;"/>
   </g>
   <g id="patch_34">
    <path clip-path="url(#pe57f770a5b)" d="M 88.484 200.06 
L 90.504364 200.06 
L 90.504364 155.574995 
L 88.484 155.574995 
z
" style="fill:#1a1a1a;"/>
   </g>
   <g id="patch_35">
    <path clip-path="url(#pe57f770a5b)" d="M 90.504364 200.06 
L 92.524727 200.06 
L 92.524727 154.394961 
L 90.504364 154.394961 
z
" style="fill:#1a1a1a;"/>
   </g>
   <g id="patch_36">
    <path clip-path="url(#pe57f770a5b)" d="M 92.524727 200.06 
L 94.545091 200.06 
L 94.545091 150.839548 
L 92.524727 150.839548 
z
" style="fill:#1a1a1a;"/>
   </g>
   <g id="patch_37">
    <path clip-path="url(#pe57f770a5b)" d="M 94.545091 200.06 
L 96.565455 200.06 
L 96.565455 150.064924 
L 94.545091 150.064924 
z
" style="fill:#1a1a1a;"/>
   </g>
   <g id="patch_38">
    <path clip-path="url(#pe57f770a5b)" d="M 96.565455 200.06 
L 98.585818 200.06 
L 98.585818 146.644855 
L 96.565455 146.644855 
z
" style="fill:#1a1a1a;"/>
   </g>
   <g id="patch_39">
    <path clip-path="url(#pe57f770a5b)" d="M 98.585818 200.06 
L 100.606182 200.06 
L 100.606182 141.859621 
L 98.585818 141.859621 
z
" style="fill:#1a1a1a;"/>
   </g>
   <g id="patch_40">
    <path clip-path="url(#pe57f770a5b)" d="M 100.606182 200.06 
L 102.626545 200.06 
L 102.626545 141.333541 
L 100.606182 141.333541 
z
" style="fill:#1a1a1a;"/>
   </g>
   <g id="patch_41">
    <path clip-path="url(#pe57f770a5b)" d="M 102.626545 200.06 
L 104.646909 200.06 
L 104.646909 140.599812 
L 102.626545 140.599812 
z
" style="fill:#1a1a1a;"/>
   </g>
   <g id="patch_42">
    <path clip-path="url(#pe57f770a5b)" d="M 104.646909 200.06 
L 106.667273 200.06 
L 106.667273 135.991158 
L 104.646909 135.991158 
z
" style="fill:#1a1a1a;"/>
   </g>
   <g id="patch_43">
    <path clip-path="url(#pe57f770a5b)" d="M 106.667273 200.06 
L 108.687636 200.06 
L 108.687636 130.441294 
L 106.667273 130.441294 
z
" style="fill:#1a1a1a;"/>
   </g>
   <g id="patch_44">
    <path clip-path="url(#pe57f770a5b)" d="M 108.687636 200.06 
L 110.708 200.06 
L 110.708 128.687437 
L 108.687636 128.687437 
z
" style="fill:#1a1a1a;"/>
   </g>
   <g id="patch_45">
    <path clip-path="url(#pe57f770a5b)" d="M 110.708 200.06 
L 112.728364 200.06 
L 112.728364 127.707498 
L 110.708 127.707498 
z
" style="fill:#1a1a1a;"/>
   </g>
   <g id="patch_46">
    <path clip-path="url(#pe57f770a5b)" d="M 112.728364 200.06 
L 114.748727 200.06 
L 114.748727 126.898531 
L 112.728364 126.898531 
z
" style="fill:#1a1a1a;"/>
   </g>
   <g id="patch_47">
    <path clip-path="url(#pe57f770a5b)" d="M 114.748727 200.06 
L 116.769091 200.06 
L 116.769091 126.516339 
L 114.748727 126.516339 
z
" style="fill:#1a1a1a;"/>
   </g>
   <g id="patch_48">
    <path clip-path="url(#pe57f770a5b)" d="M 116.769091 200.06 
L 118.789455 200.06 
L 118.789455 119.220745 
L 116.769091 119.220745 
z
" style="fill:#1a1a1a;"/>
   </g>
   <g id="patch_49">
    <path clip-path="url(#pe57f770a5b)" d="M 118.789455 200.06 
L 120.809818 200.06 
L 120.809818 118.98 
L 118.789455 118.98 
z
" style="fill:#1a1a1a;"/>
   </g>
   <g id="patch_50">
    <path clip-path="url(#pe57f770a5b)" d="M 120.809818 200.06 
L 122.830182 200.06 
L 122.830182 110.334126 
L 120.809818 110.334126 
z
" style="fill:#1a1a1a;"/>
   </g>
   <g id="patch_51">
    <path clip-path="url(#pe57f770a5b)" d="M 122.830182 200.06 
L 124.850545 200.06 
L 124.850545 104.206367 
L 122.830182 104.206367 
z
" style="fill:#1a1a1a;"/>
   </g>
   <g id="patch_52">
    <path clip-path="url(#pe57f770a5b)" d="M 124.850545 200.06 
L 126.870909 200.06 
L 126.870909 102.624443 
L 124.850545 102.624443 
z
" style="fill:#1a1a1a;"/>
   </g>
   <g id="patch_53">
    <path clip-path="url(#pe57f770a5b)" d="M 126.870909 200.06 
L 128.891273 200.06 
L 128.891273 99.286007 
L 126.870909 99.286007 
z
" style="fill:#1a1a1a;"/>
   </g>
   <g id="patch_54">
    <path clip-path="url(#pe57f770a5b)" d="M 128.891273 200.06 
L 130.911636 200.06 
L 130.911636 96.518418 
L 128.891273 96.518418 
z
" style="fill:#1a1a1a;"/>
   </g>
   <g id="patch_55">
    <path clip-path="url(#pe57f770a5b)" d="M 130.911636 200.06 
L 132.932 200.06 
L 132.932 92.792842 
L 130.911636 92.792842 
z
" style="fill:#1a1a1a;"/>
   </g>
   <g id="patch_56">
    <path clip-path="url(#pe57f770a5b)" d="M 132.932 200.06 
L 134.952364 200.06 
L 134.952364 87.592052 
L 132.932 87.592052 
z
" style="fill:#1a1a1a;"/>
   </g>
   <g id="patch_57">
    <path clip-path="url(#pe57f770a5b)" d="M 134.952364 200.06 
L 136.972727 200.06 
L 136.972727 68.098812 
L 134.952364 68.098812 
z
" style="fill:#1a1a1a;"/>
   </g>
   <g id="patch_58">
    <path clip-path="url(#pe57f770a5b)" d="M 136.972727 200.06 
L 138.993091 200.06 
L 138.993091 65.361205 
L 136.972727 65.361205 
z
" style="fill:#1a1a1a;"/>
   </g>
   <g id="patch_59">
    <path clip-path="url(#pe57f770a5b)" d="M 138.993091 200.06 
L 141.013455 200.06 
L 141.013455 63.09256 
L 138.993091 63.09256 
z
" style="fill:#1a1a1a;"/>
   </g>
   <g id="patch_60">
    <path clip-path="url(#pe57f770a5b)" d="M 141.013455 200.06 
L 143.033818 200.06 
L 143.033818 60.042502 
L 141.013455 60.042502 
z
" style="fill:#1a1a1a;"/>
   </g>
   <g id="patch_61">
    <path clip-path="url(#pe57f770a5b)" d="M 143.033818 200.06 
L 145.054182 200.06 
L 145.054182 50.883462 
L 143.033818 50.883462 
z
" style="fill:#1a1a1a;"/>
   </g>
   <g id="patch_62">
    <path clip-path="url(#pe57f770a5b)" d="M 145.054182 200.06 
L 147.074545 200.06 
L 147.074545 46.764619 
L 145.054182 46.764619 
z
" style="fill:#1a1a1a;"/>
   </g>
   <g id="patch_63">
    <path clip-path="url(#pe57f770a5b)" d="M 147.074545 200.06 
L 149.094909 200.06 
L 149.094909 44.794232 
L 147.074545 44.794232 
z
" style="fill:#1a1a1a;"/>
   </g>
   <g id="patch_64">
    <path clip-path="url(#pe57f770a5b)" d="M 149.094909 200.06 
L 151.115273 200.06 
L 151.115273 40.903829 
L 149.094909 40.903829 
z
" style="fill:#1a1a1a;"/>
   </g>
   <g id="patch_65">
    <path clip-path="url(#pe57f770a5b)" d="M 151.115273 200.06 
L 153.135636 200.06 
L 153.135636 33.767582 
L 151.115273 33.767582 
z
" style="fill:#1a1a1a;"/>
   </g>
   <g id="patch_66">
    <path clip-path="url(#pe57f770a5b)" d="M 153.135636 200.06 
L 155.156 200.06 
L 155.156 31.773321 
L 153.135636 31.773321 
z
" style="fill:#1a1a1a;"/>
   </g>
   <g id="patch_67">
    <path clip-path="url(#pe57f770a5b)" d="M 155.156 200.06 
L 157.176364 200.06 
L 157.176364 31.52847 
L 155.156 31.52847 
z
" style="fill:#1a1a1a;"/>
   </g>
   <g id="patch_68">
    <path clip-path="url(#pe57f770a5b)" d="M 157.176364 200.06 
L 159.196727 200.06 
L 159.196727 21.375917 
L 157.176364 21.375917 
z
" style="fill:#1a1a1a;"/>
   </g>
   <g id="patch_69">
    <path clip-path="url(#pe57f770a5b)" d="M 159.196727 200.06 
L 161.217091 200.06 
L 161.217091 16.748415 
L 159.196727 16.748415 
z
" style="fill:#1a1a1a;"/>
   </g>
   <g id="patch_70">
    <path clip-path="url(#pe57f770a5b)" d="M 161.217091 200.06 
L 163.237455 200.06 
L 163.237455 10.604628 
L 161.217091 10.604628 
z
" style="fill:#1a1a1a;"/>
   </g>
   <g id="patch_71">
    <path clip-path="url(#pe57f770a5b)" d="M 163.237455 200.06 
L 165.257818 200.06 
L 165.257818 7.128546 
L 163.237455 7.128546 
z
" style="fill:#1a1a1a;"/>
   </g>
   <g id="patch_72">
    <path clip-path="url(#pe57f770a5b)" d="M 165.257818 200.06 
L 167.278182 200.06 
L 167.278182 5.939591 
L 165.257818 5.939591 
z
" style="fill:#1a1a1a;"/>
   </g>
   <g id="patch_73">
    <path clip-path="url(#pe57f770a5b)" d="M 167.278182 200.06 
L 169.298545 200.06 
L 169.298545 4.581449 
L 167.278182 4.581449 
z
" style="fill:#1a1a1a;"/>
   </g>
   <g id="patch_74">
    <path clip-path="url(#pe57f770a5b)" d="M 169.298545 200.06 
L 171.318909 200.06 
L 171.318909 4.076315 
L 169.298545 4.076315 
z
" style="fill:#1a1a1a;"/>
   </g>
   <g id="patch_75">
    <path clip-path="url(#pe57f770a5b)" d="M 171.318909 200.06 
L 173.339273 200.06 
L 173.339273 3.612238 
L 171.318909 3.612238 
z
" style="fill:#1a1a1a;"/>
   </g>
   <g id="patch_76">
    <path clip-path="url(#pe57f770a5b)" d="M 173.339273 200.06 
L 175.359636 200.06 
L 175.359636 3.420728 
L 173.339273 3.420728 
z
" style="fill:#1a1a1a;"/>
   </g>
   <g id="patch_77">
    <path clip-path="url(#pe57f770a5b)" d="M 175.359636 200.06 
L 177.38 200.06 
L 177.38 3.081378 
L 175.359636 3.081378 
z
" style="fill:#1a1a1a;"/>
   </g>
   <g id="patch_78">
    <path clip-path="url(#pe57f770a5b)" d="M 177.38 200.06 
L 179.400364 200.06 
L 179.400364 3.043754 
L 177.38 3.043754 
z
" style="fill:#1a1a1a;"/>
   </g>
   <g id="patch_79">
    <path clip-path="url(#pe57f770a5b)" d="M 179.400364 200.06 
L 181.420727 200.06 
L 181.420727 3.276449 
L 179.400364 3.276449 
z
" style="fill:#1a1a1a;"/>
   </g>
   <g id="patch_80">
    <path clip-path="url(#pe57f770a5b)" d="M 181.420727 200.06 
L 183.441091 200.06 
L 183.441091 3.569699 
L 181.420727 3.569699 
z
" style="fill:#1a1a1a;"/>
   </g>
   <g id="patch_81">
    <path clip-path="url(#pe57f770a5b)" d="M 183.441091 200.06 
L 185.461455 200.06 
L 185.461455 3.963262 
L 183.441091 3.963262 
z
" style="fill:#1a1a1a;"/>
   </g>
   <g id="patch_82">
    <path clip-path="url(#pe57f770a5b)" d="M 185.461455 200.06 
L 187.481818 200.06 
L 187.481818 4.500959 
L 185.461455 4.500959 
z
" style="fill:#1a1a1a;"/>
   </g>
   <g id="patch_83">
    <path clip-path="url(#pe57f770a5b)" d="M 187.481818 200.06 
L 189.502182 200.06 
L 189.502182 5.636655 
L 187.481818 5.636655 
z
" style="fill:#1a1a1a;"/>
   </g>
   <g id="patch_84">
    <path clip-path="url(#pe57f770a5b)" d="M 189.502182 200.06 
L 191.522545 200.06 
L 191.522545 6.079887 
L 189.502182 6.079887 
z
" style="fill:#1a1a1a;"/>
   </g>
   <g id="patch_85">
    <path clip-path="url(#pe57f770a5b)" d="M 191.522545 200.06 
L 193.542909 200.06 
L 193.542909 9.459656 
L 191.522545 9.459656 
z
" style="fill:#1a1a1a;"/>
   </g>
   <g id="patch_86">
    <path clip-path="url(#pe57f770a5b)" d="M 193.542909 200.06 
L 195.563273 200.06 
L 195.563273 16.103126 
L 193.542909 16.103126 
z
" style="fill:#1a1a1a;"/>
   </g>
   <g id="patch_87">
    <path clip-path="url(#pe57f770a5b)" d="M 195.563273 200.06 
L 197.583636 200.06 
L 197.583636 18.570367 
L 195.563273 18.570367 
z
" style="fill:#1a1a1a;"/>
   </g>
   <g id="patch_88">
    <path clip-path="url(#pe57f770a5b)" d="M 197.583636 200.06 
L 199.604 200.06 
L 199.604 26.943453 
L 197.583636 26.943453 
z
" style="fill:#1a1a1a;"/>
   </g>
   <g id="patch_89">
    <path clip-path="url(#pe57f770a5b)" d="M 199.604 200.06 
L 201.624364 200.06 
L 201.624364 31.73586 
L 199.604 31.73586 
z
" style="fill:#1a1a1a;"/>
   </g>
   <g id="patch_90">
    <path clip-path="url(#pe57f770a5b)" d="M 201.624364 200.06 
L 203.644727 200.06 
L 203.644727 33.618191 
L 201.624364 33.618191 
z
" style="fill:#1a1a1a;"/>
   </g>
   <g id="patch_91">
    <path clip-path="url(#pe57f770a5b)" d="M 203.644727 200.06 
L 205.665091 200.06 
L 205.665091 38.149999 
L 203.644727 38.149999 
z
" style="fill:#1a1a1a;"/>
   </g>
   <g id="patch_92">
    <path clip-path="url(#pe57f770a5b)" d="M 205.665091 200.06 
L 207.685455 200.06 
L 207.685455 43.140467 
L 205.665091 43.140467 
z
" style="fill:#1a1a1a;"/>
   </g>
   <g id="patch_93">
    <path clip-path="url(#pe57f770a5b)" d="M 207.685455 200.06 
L 209.705818 200.06 
L 209.705818 45.871724 
L 207.685455 45.871724 
z
" style="fill:#1a1a1a;"/>
   </g>
   <g id="patch_94">
    <path clip-path="url(#pe57f770a5b)" d="M 209.705818 200.06 
L 211.726182 200.06 
L 211.726182 47.624991 
L 209.705818 47.624991 
z
" style="fill:#1a1a1a;"/>
   </g>
   <g id="patch_95">
    <path clip-path="url(#pe57f770a5b)" d="M 211.726182 200.06 
L 213.746545 200.06 
L 213.746545 55.586498 
L 211.726182 55.586498 
z
" style="fill:#1a1a1a;"/>
   </g>
   <g id="patch_96">
    <path clip-path="url(#pe57f770a5b)" d="M 213.746545 200.06 
L 215.766909 200.06 
L 215.766909 60.163371 
L 213.746545 60.163371 
z
" style="fill:#1a1a1a;"/>
   </g>
   <g id="patch_97">
    <path clip-path="url(#pe57f770a5b)" d="M 215.766909 200.06 
L 217.787273 200.06 
L 217.787273 65.115685 
L 215.766909 65.115685 
z
" style="fill:#1a1a1a;"/>
   </g>
   <g id="patch_98">
    <path clip-path="url(#pe57f770a5b)" d="M 217.787273 200.06 
L 219.807636 200.06 
L 219.807636 65.37027 
L 217.787273 65.37027 
z
" style="fill:#1a1a1a;"/>
   </g>
   <g id="patch_99">
    <path clip-path="url(#pe57f770a5b)" d="M 219.807636 200.06 
L 221.828 200.06 
L 221.828 74.125805 
L 219.807636 74.125805 
z
" style="fill:#1a1a1a;"/>
   </g>
   <g id="patch_100">
    <path clip-path="url(#pe57f770a5b)" d="M 221.828 200.06 
L 223.848364 200.06 
L 223.848364 92.378002 
L 221.828 92.378002 
z
" style="fill:#1a1a1a;"/>
   </g>
   <g id="patch_101">
    <path clip-path="url(#pe57f770a5b)" d="M 223.848364 200.06 
L 225.868727 200.06 
L 225.868727 94.955079 
L 223.848364 94.955079 
z
" style="fill:#1a1a1a;"/>
   </g>
   <g id="patch_102">
    <path clip-path="url(#pe57f770a5b)" d="M 225.868727 200.06 
L 227.889091 200.06 
L 227.889091 98.952576 
L 225.868727 98.952576 
z
" style="fill:#1a1a1a;"/>
   </g>
   <g id="patch_103">
    <path clip-path="url(#pe57f770a5b)" d="M 227.889091 200.06 
L 229.909455 200.06 
L 229.909455 100.961276 
L 227.889091 100.961276 
z
" style="fill:#1a1a1a;"/>
   </g>
   <g id="patch_104">
    <path clip-path="url(#pe57f770a5b)" d="M 229.909455 200.06 
L 231.929818 200.06 
L 231.929818 103.585116 
L 229.909455 103.585116 
z
" style="fill:#1a1a1a;"/>
   </g>
   <g id="patch_105">
    <path clip-path="url(#pe57f770a5b)" d="M 231.929818 200.06 
L 233.950182 200.06 
L 233.950182 104.819667 
L 231.929818 104.819667 
z
" style="fill:#1a1a1a;"/>
   </g>
   <g id="patch_106">
    <path clip-path="url(#pe57f770a5b)" d="M 233.950182 200.06 
L 235.970545 200.06 
L 235.970545 112.686467 
L 233.950182 112.686467 
z
" style="fill:#1a1a1a;"/>
   </g>
   <g id="patch_107">
    <path clip-path="url(#pe57f770a5b)" d="M 235.970545 200.06 
L 237.990909 200.06 
L 237.990909 119.058403 
L 235.970545 119.058403 
z
" style="fill:#1a1a1a;"/>
   </g>
   <g id="patch_108">
    <path clip-path="url(#pe57f770a5b)" d="M 237.990909 200.06 
L 240.011273 200.06 
L 240.011273 121.435642 
L 237.990909 121.435642 
z
" style="fill:#1a1a1a;"/>
   </g>
   <g id="patch_109">
    <path clip-path="url(#pe57f770a5b)" d="M 240.011273 200.06 
L 242.031636 200.06 
L 242.031636 126.842775 
L 240.011273 126.842775 
z
" style="fill:#1a1a1a;"/>
   </g>
   <g id="patch_110">
    <path clip-path="url(#pe57f770a5b)" d="M 242.031636 200.06 
L 244.052 200.06 
L 244.052 127.198271 
L 242.031636 127.198271 
z
" style="fill:#1a1a1a;"/>
   </g>
   <g id="patch_111">
    <path clip-path="url(#pe57f770a5b)" d="M 244.052 200.06 
L 246.072364 200.06 
L 246.072364 128.267174 
L 244.052 128.267174 
z
" style="fill:#1a1a1a;"/>
   </g>
   <g id="patch_112">
    <path clip-path="url(#pe57f770a5b)" d="M 246.072364 200.06 
L 248.092727 200.06 
L 248.092727 129.09159 
L 246.072364 129.09159 
z
" style="fill:#1a1a1a;"/>
   </g>
   <g id="patch_113">
    <path clip-path="url(#pe57f770a5b)" d="M 248.092727 200.06 
L 250.113091 200.06 
L 250.113091 134.319748 
L 248.092727 134.319748 
z
" style="fill:#1a1a1a;"/>
   </g>
   <g id="patch_114">
    <path clip-path="url(#pe57f770a5b)" d="M 250.113091 200.06 
L 252.133455 200.06 
L 252.133455 136.78777 
L 250.113091 136.78777 
z
" style="fill:#1a1a1a;"/>
   </g>
   <g id="patch_115">
    <path clip-path="url(#pe57f770a5b)" d="M 252.133455 200.06 
L 254.153818 200.06 
L 254.153818 140.851657 
L 252.133455 140.851657 
z
" style="fill:#1a1a1a;"/>
   </g>
   <g id="patch_116">
    <path clip-path="url(#pe57f770a5b)" d="M 254.153818 200.06 
L 256.174182 200.06 
L 256.174182 141.3645 
L 254.153818 141.3645 
z
" style="fill:#1a1a1a;"/>
   </g>
   <g id="patch_117">
    <path clip-path="url(#pe57f770a5b)" d="M 256.174182 200.06 
L 258.194545 200.06 
L 258.194545 145.916122 
L 256.174182 145.916122 
z
" style="fill:#1a1a1a;"/>
   </g>
   <g id="patch_118">
    <path clip-path="url(#pe57f770a5b)" d="M 258.194545 200.06 
L 260.214909 200.06 
L 260.214909 150.006485 
L 258.194545 150.006485 
z
" style="fill:#1a1a1a;"/>
   </g>
   <g id="patch_119">
    <path clip-path="url(#pe57f770a5b)" d="M 260.214909 200.06 
L 262.235273 200.06 
L 262.235273 150.178074 
L 260.214909 150.178074 
z
" style="fill:#1a1a1a;"/>
   </g>
   <g id="patch_120">
    <path clip-path="url(#pe57f770a5b)" d="M 262.235273 200.06 
L 264.255636 200.06 
L 264.255636 151.420104 
L 262.235273 151.420104 
z
" style="fill:#1a1a1a;"/>
   </g>
   <g id="patch_121">
    <path clip-path="url(#pe57f770a5b)" d="M 264.255636 200.06 
L 266.276 200.06 
L 266.276 154.697314 
L 264.255636 154.697314 
z
" style="fill:#1a1a1a;"/>
   </g>
   <g id="patch_122">
    <path clip-path="url(#pe57f770a5b)" d="M 266.276 200.06 
L 268.296364 200.06 
L 268.296364 157.070591 
L 266.276 157.070591 
z
" style="fill:#1a1a1a;"/>
   </g>
   <g id="patch_123">
    <path clip-path="url(#pe57f770a5b)" d="M 268.296364 200.06 
L 270.316727 200.06 
L 270.316727 160.198411 
L 268.296364 160.198411 
z
" style="fill:#1a1a1a;"/>
   </g>
   <g id="patch_124">
    <path clip-path="url(#pe57f770a5b)" d="M 270.316727 200.06 
L 272.337091 200.06 
L 272.337091 160.664704 
L 270.316727 160.664704 
z
" style="fill:#1a1a1a;"/>
   </g>
   <g id="patch_125">
    <path clip-path="url(#pe57f770a5b)" d="M 272.337091 200.06 
L 274.357455 200.06 
L 274.357455 161.82956 
L 272.337091 161.82956 
z
" style="fill:#1a1a1a;"/>
   </g>
   <g id="patch_126">
    <path clip-path="url(#pe57f770a5b)" d="M 274.357455 200.06 
L 276.377818 200.06 
L 276.377818 163.292173 
L 274.357455 163.292173 
z
" style="fill:#1a1a1a;"/>
   </g>
   <g id="patch_127">
    <path clip-path="url(#pe57f770a5b)" d="M 276.377818 200.06 
L 278.398182 200.06 
L 278.398182 164.348841 
L 276.377818 164.348841 
z
" style="fill:#1a1a1a;"/>
   </g>
   <g id="patch_128">
    <path clip-path="url(#pe57f770a5b)" d="M 278.398182 200.06 
L 280.418545 200.06 
L 280.418545 164.389404 
L 278.398182 164.389404 
z
" style="fill:#1a1a1a;"/>
   </g>
   <g id="patch_129">
    <path clip-path="url(#pe57f770a5b)" d="M 280.418545 200.06 
L 282.438909 200.06 
L 282.438909 165.571975 
L 280.418545 165.571975 
z
" style="fill:#1a1a1a;"/>
   </g>
   <g id="patch_130">
    <path clip-path="url(#pe57f770a5b)" d="M 282.438909 200.06 
L 284.459273 200.06 
L 284.459273 166.218103 
L 282.438909 166.218103 
z
" style="fill:#1a1a1a;"/>
   </g>
   <g id="patch_131">
    <path clip-path="url(#pe57f770a5b)" d="M 284.459273 200.06 
L 286.479636 200.06 
L 286.479636 168.176486 
L 284.459273 168.176486 
z
" style="fill:#1a1a1a;"/>
   </g>
   <g id="patch_132">
    <path clip-path="url(#pe57f770a5b)" d="M 286.479636 200.06 
L 288.5 200.06 
L 288.5 168.752979 
L 286.479636 168.752979 
z
" style="fill:#1a1a1a;"/>
   </g>
   <g id="patch_133">
    <path clip-path="url(#pe57f770a5b)" d="M 288.5 200.06 
L 290.520364 200.06 
L 290.520364 169.268367 
L 288.5 169.268367 
z
" style="fill:#1a1a1a;"/>
   </g>
   <g id="patch_134">
    <path clip-path="url(#pe57f770a5b)" d="M 290.520364 200.06 
L 292.540727 200.06 
L 292.540727 169.714878 
L 290.520364 169.714878 
z
" style="fill:#1a1a1a;"/>
   </g>
   <g id="patch_135">
    <path clip-path="url(#pe57f770a5b)" d="M 292.540727 200.06 
L 294.561091 200.06 
L 294.561091 170.524703 
L 292.540727 170.524703 
z
" style="fill:#1a1a1a;"/>
   </g>
   <g id="patch_136">
    <path clip-path="url(#pe57f770a5b)" d="M 294.561091 200.06 
L 296.581455 200.06 
L 296.581455 170.826551 
L 294.561091 170.826551 
z
" style="fill:#1a1a1a;"/>
   </g>
   <g id="patch_137">
    <path clip-path="url(#pe57f770a5b)" d="M 296.581455 200.06 
L 298.601818 200.06 
L 298.601818 171.033647 
L 296.581455 171.033647 
z
" style="fill:#1a1a1a;"/>
   </g>
   <g id="patch_138">
    <path clip-path="url(#pe57f770a5b)" d="M 298.601818 200.06 
L 300.622182 200.06 
L 300.622182 173.460671 
L 298.601818 173.460671 
z
" style="fill:#1a1a1a;"/>
   </g>
   <g id="patch_139">
    <path clip-path="url(#pe57f770a5b)" d="M 300.622182 200.06 
L 302.642545 200.06 
L 302.642545 174.967736 
L 300.622182 174.967736 
z
" style="fill:#1a1a1a;"/>
   </g>
   <g id="patch_140">
    <path clip-path="url(#pe57f770a5b)" d="M 302.642545 200.06 
L 304.662909 200.06 
L 304.662909 175.764435 
L 302.642545 175.764435 
z
" style="fill:#1a1a1a;"/>
   </g>
   <g id="patch_141">
    <path clip-path="url(#pe57f770a5b)" d="M 304.662909 200.06 
L 306.683273 200.06 
L 306.683273 176.478554 
L 304.662909 176.478554 
z
" style="fill:#1a1a1a;"/>
   </g>
   <g id="patch_142">
    <path clip-path="url(#pe57f770a5b)" d="M 306.683273 200.06 
L 308.703636 200.06 
L 308.703636 178.040681 
L 306.683273 178.040681 
z
" style="fill:#1a1a1a;"/>
   </g>
   <g id="patch_143">
    <path clip-path="url(#pe57f770a5b)" d="M 308.703636 200.06 
L 310.724 200.06 
L 310.724 178.405822 
L 308.703636 178.405822 
z
" style="fill:#1a1a1a;"/>
   </g>
   <g id="patch_144">
    <path clip-path="url(#pe57f770a5b)" d="M 310.724 200.06 
L 312.744364 200.06 
L 312.744364 178.656223 
L 310.724 178.656223 
z
" style="fill:#1a1a1a;"/>
   </g>
   <g id="patch_145">
    <path clip-path="url(#pe57f770a5b)" d="M 312.744364 200.06 
L 314.764727 200.06 
L 314.764727 179.313282 
L 312.744364 179.313282 
z
" style="fill:#1a1a1a;"/>
   </g>
   <g id="patch_146">
    <path clip-path="url(#pe57f770a5b)" d="M 314.764727 200.06 
L 316.785091 200.06 
L 316.785091 179.862061 
L 314.764727 179.862061 
z
" style="fill:#1a1a1a;"/>
   </g>
   <g id="patch_147">
    <path clip-path="url(#pe57f770a5b)" d="M 316.785091 200.06 
L 318.805455 200.06 
L 318.805455 180.696218 
L 316.785091 180.696218 
z
" style="fill:#1a1a1a;"/>
   </g>
   <g id="patch_148">
    <path clip-path="url(#pe57f770a5b)" d="M 318.805455 200.06 
L 320.825818 200.06 
L 320.825818 180.967806 
L 318.805455 180.967806 
z
" style="fill:#1a1a1a;"/>
   </g>
   <g id="patch_149">
    <path clip-path="url(#pe57f770a5b)" d="M 320.825818 200.06 
L 322.846182 200.06 
L 322.846182 181.256498 
L 320.825818 181.256498 
z
" style="fill:#1a1a1a;"/>
   </g>
   <g id="patch_150">
    <path clip-path="url(#pe57f770a5b)" d="M 322.846182 200.06 
L 324.866545 200.06 
L 324.866545 181.764693 
L 322.846182 181.764693 
z
" style="fill:#1a1a1a;"/>
   </g>
   <g id="patch_151">
    <path clip-path="url(#pe57f770a5b)" d="M 324.866545 200.06 
L 326.886909 200.06 
L 326.886909 182.4632 
L 324.866545 182.4632 
z
" style="fill:#1a1a1a;"/>
   </g>
   <g id="patch_152">
    <path clip-path="url(#pe57f770a5b)" d="M 326.886909 200.06 
L 328.907273 200.06 
L 328.907273 183.293108 
L 326.886909 183.293108 
z
" style="fill:#1a1a1a;"/>
   </g>
   <g id="matplotlib.axis_1"/>
   <g id="matplotlib.axis_2"/>
   <g id="patch_153">
    <path d="M 10.7 200.06 
L 10.7 10.7 
" style="fill:none;stroke:#000000;stroke-linecap:square;stroke-linejoin:miter;stroke-width:0.8;"/>
   </g>
   <g id="patch_154">
    <path d="M 344.06 200.06 
L 344.06 10.7 
" style="fill:none;stroke:#000000;stroke-linecap:square;stroke-linejoin:miter;stroke-width:0.8;"/>
   </g>
   <g id="patch_155">
    <path d="M 10.7 200.06 
L 344.06 200.06 
" style="fill:none;stroke:#000000;stroke-linecap:square;stroke-linejoin:miter;stroke-width:0.8;"/>
   </g>
   <g id="patch_156">
    <path d="M 10.7 10.7 
L 344.06 10.7 
" style="fill:none;stroke:#000000;stroke-linecap:square;stroke-linejoin:miter;stroke-width:0.8;"/>
   </g>
  </g>
 </g>
 <defs>
  <clipPath id="pe57f770a5b">
   <rect height="189.36" width="333.36" x="10.7" y="10.7"/>
  </clipPath>
 </defs>
</svg>
