<?xml version="1.0" encoding="utf-8" standalone="no"?>
<!DOCTYPE svg PUBLIC "-//W3C//DTD SVG 1.1//EN"
  "http://www.w3.org/Graphics/SVG/1.1/DTD/svg11.dtd">
<!-- Created with matplotlib (http://matplotlib.org/) -->
<svg height="210pt" version="1.1" viewBox="0 0 354 210" width="354pt" xmlns="http://www.w3.org/2000/svg" xmlns:xlink="http://www.w3.org/1999/xlink">
 <defs>
  <style type="text/css">
*{stroke-linecap:butt;stroke-linejoin:round;}
  </style>
 </defs>
 <g id="figure_1">
  <g id="patch_1">
   <path d="M 0 210.76 
L 354.76 210.76 
L 354.76 0 
L 0 0 
z
" style="fill:#ffffff;"/>
  </g>
  <g id="axes_1">
   <g id="patch_2">
    <path d="M 10.7 200.06 
L 344.06 200.06 
L 344.06 10.7 
L 10.7 10.7 
z
" style="fill:#ffffff;"/>
   </g>
   <g id="patch_3">
    <path clip-path="url(#p89793aa47b)" d="M 25.852727 200.06 
L 27.873091 200.06 
L 27.873091 199.907127 
L 25.852727 199.907127 
z
" style="fill:#1a1a1a;"/>
   </g>
   <g id="patch_4">
    <path clip-path="url(#p89793aa47b)" d="M 27.873091 200.06 
L 29.893455 200.06 
L 29.893455 199.898306 
L 27.873091 199.898306 
z
" style="fill:#1a1a1a;"/>
   </g>
   <g id="patch_5">
    <path clip-path="url(#p89793aa47b)" d="M 29.893455 200.06 
L 31.913818 200.06 
L 31.913818 199.876174 
L 29.893455 199.876174 
z
" style="fill:#1a1a1a;"/>
   </g>
   <g id="patch_6">
    <path clip-path="url(#p89793aa47b)" d="M 31.913818 200.06 
L 33.934182 200.06 
L 33.934182 199.869462 
L 31.913818 199.869462 
z
" style="fill:#1a1a1a;"/>
   </g>
   <g id="patch_7">
    <path clip-path="url(#p89793aa47b)" d="M 33.934182 200.06 
L 35.954545 200.06 
L 35.954545 199.865337 
L 33.934182 199.865337 
z
" style="fill:#1a1a1a;"/>
   </g>
   <g id="patch_8">
    <path clip-path="url(#p89793aa47b)" d="M 35.954545 200.06 
L 37.974909 200.06 
L 37.974909 199.847261 
L 35.954545 199.847261 
z
" style="fill:#1a1a1a;"/>
   </g>
   <g id="patch_9">
    <path clip-path="url(#p89793aa47b)" d="M 37.974909 200.06 
L 39.995273 200.06 
L 39.995273 199.842083 
L 37.974909 199.842083 
z
" style="fill:#1a1a1a;"/>
   </g>
   <g id="patch_10">
    <path clip-path="url(#p89793aa47b)" d="M 39.995273 200.06 
L 42.015636 200.06 
L 42.015636 199.827098 
L 39.995273 199.827098 
z
" style="fill:#1a1a1a;"/>
   </g>
   <g id="patch_11">
    <path clip-path="url(#p89793aa47b)" d="M 42.015636 200.06 
L 44.036 200.06 
L 44.036 199.790157 
L 42.015636 199.790157 
z
" style="fill:#1a1a1a;"/>
   </g>
   <g id="patch_12">
    <path clip-path="url(#p89793aa47b)" d="M 44.036 200.06 
L 46.056364 200.06 
L 46.056364 199.758046 
L 44.036 199.758046 
z
" style="fill:#1a1a1a;"/>
   </g>
   <g id="patch_13">
    <path clip-path="url(#p89793aa47b)" d="M 46.056364 200.06 
L 48.076727 200.06 
L 48.076727 199.749601 
L 46.056364 199.749601 
z
" style="fill:#1a1a1a;"/>
   </g>
   <g id="patch_14">
    <path clip-path="url(#p89793aa47b)" d="M 48.076727 200.06 
L 50.097091 200.06 
L 50.097091 199.717787 
L 48.076727 199.717787 
z
" style="fill:#1a1a1a;"/>
   </g>
   <g id="patch_15">
    <path clip-path="url(#p89793aa47b)" d="M 50.097091 200.06 
L 52.117455 200.06 
L 52.117455 199.686781 
L 50.097091 199.686781 
z
" style="fill:#1a1a1a;"/>
   </g>
   <g id="patch_16">
    <path clip-path="url(#p89793aa47b)" d="M 52.117455 200.06 
L 54.137818 200.06 
L 54.137818 199.672034 
L 52.117455 199.672034 
z
" style="fill:#1a1a1a;"/>
   </g>
   <g id="patch_17">
    <path clip-path="url(#p89793aa47b)" d="M 54.137818 200.06 
L 56.158182 200.06 
L 56.158182 199.664609 
L 54.137818 199.664609 
z
" style="fill:#1a1a1a;"/>
   </g>
   <g id="patch_18">
    <path clip-path="url(#p89793aa47b)" d="M 56.158182 200.06 
L 58.178545 200.06 
L 58.178545 199.659573 
L 56.158182 199.659573 
z
" style="fill:#1a1a1a;"/>
   </g>
   <g id="patch_19">
    <path clip-path="url(#p89793aa47b)" d="M 58.178545 200.06 
L 60.198909 200.06 
L 60.198909 199.604304 
L 58.178545 199.604304 
z
" style="fill:#1a1a1a;"/>
   </g>
   <g id="patch_20">
    <path clip-path="url(#p89793aa47b)" d="M 60.198909 200.06 
L 62.219273 200.06 
L 62.219273 199.565059 
L 60.198909 199.565059 
z
" style="fill:#1a1a1a;"/>
   </g>
   <g id="patch_21">
    <path clip-path="url(#p89793aa47b)" d="M 62.219273 200.06 
L 64.239636 200.06 
L 64.239636 199.557812 
L 62.219273 199.557812 
z
" style="fill:#1a1a1a;"/>
   </g>
   <g id="patch_22">
    <path clip-path="url(#p89793aa47b)" d="M 64.239636 200.06 
L 66.26 200.06 
L 66.26 199.542109 
L 64.239636 199.542109 
z
" style="fill:#1a1a1a;"/>
   </g>
   <g id="patch_23">
    <path clip-path="url(#p89793aa47b)" d="M 66.26 200.06 
L 68.280364 200.06 
L 68.280364 199.532811 
L 66.26 199.532811 
z
" style="fill:#1a1a1a;"/>
   </g>
   <g id="patch_24">
    <path clip-path="url(#p89793aa47b)" d="M 68.280364 200.06 
L 70.300727 200.06 
L 70.300727 199.491258 
L 68.280364 199.491258 
z
" style="fill:#1a1a1a;"/>
   </g>
   <g id="patch_25">
    <path clip-path="url(#p89793aa47b)" d="M 70.300727 200.06 
L 72.321091 200.06 
L 72.321091 199.455593 
L 70.300727 199.455593 
z
" style="fill:#1a1a1a;"/>
   </g>
   <g id="patch_26">
    <path clip-path="url(#p89793aa47b)" d="M 72.321091 200.06 
L 74.341455 200.06 
L 74.341455 199.427737 
L 72.321091 199.427737 
z
" style="fill:#1a1a1a;"/>
   </g>
   <g id="patch_27">
    <path clip-path="url(#p89793aa47b)" d="M 74.341455 200.06 
L 76.361818 200.06 
L 76.361818 199.402172 
L 74.341455 199.402172 
z
" style="fill:#1a1a1a;"/>
   </g>
   <g id="patch_28">
    <path clip-path="url(#p89793aa47b)" d="M 76.361818 200.06 
L 78.382182 200.06 
L 78.382182 199.356311 
L 76.361818 199.356311 
z
" style="fill:#1a1a1a;"/>
   </g>
   <g id="patch_29">
    <path clip-path="url(#p89793aa47b)" d="M 78.382182 200.06 
L 80.402545 200.06 
L 80.402545 199.320345 
L 78.382182 199.320345 
z
" style="fill:#1a1a1a;"/>
   </g>
   <g id="patch_30">
    <path clip-path="url(#p89793aa47b)" d="M 80.402545 200.06 
L 82.422909 200.06 
L 82.422909 199.270443 
L 80.402545 199.270443 
z
" style="fill:#1a1a1a;"/>
   </g>
   <g id="patch_31">
    <path clip-path="url(#p89793aa47b)" d="M 82.422909 200.06 
L 84.443273 200.06 
L 84.443273 199.21393 
L 82.422909 199.21393 
z
" style="fill:#1a1a1a;"/>
   </g>
   <g id="patch_32">
    <path clip-path="url(#p89793aa47b)" d="M 84.443273 200.06 
L 86.463636 200.06 
L 86.463636 199.128076 
L 84.443273 199.128076 
z
" style="fill:#1a1a1a;"/>
   </g>
   <g id="patch_33">
    <path clip-path="url(#p89793aa47b)" d="M 86.463636 200.06 
L 88.484 200.06 
L 88.484 199.124067 
L 86.463636 199.124067 
z
" style="fill:#1a1a1a;"/>
   </g>
   <g id="patch_34">
    <path clip-path="url(#p89793aa47b)" d="M 88.484 200.06 
L 90.504364 200.06 
L 90.504364 199.051644 
L 88.484 199.051644 
z
" style="fill:#1a1a1a;"/>
   </g>
   <g id="patch_35">
    <path clip-path="url(#p89793aa47b)" d="M 90.504364 200.06 
L 92.524727 200.06 
L 92.524727 199.021687 
L 90.504364 199.021687 
z
" style="fill:#1a1a1a;"/>
   </g>
   <g id="patch_36">
    <path clip-path="url(#p89793aa47b)" d="M 92.524727 200.06 
L 94.545091 200.06 
L 94.545091 198.95872 
L 92.524727 198.95872 
z
" style="fill:#1a1a1a;"/>
   </g>
   <g id="patch_37">
    <path clip-path="url(#p89793aa47b)" d="M 94.545091 200.06 
L 96.565455 200.06 
L 96.565455 198.945524 
L 94.545091 198.945524 
z
" style="fill:#1a1a1a;"/>
   </g>
   <g id="patch_38">
    <path clip-path="url(#p89793aa47b)" d="M 96.565455 200.06 
L 98.585818 200.06 
L 98.585818 198.854344 
L 96.565455 198.854344 
z
" style="fill:#1a1a1a;"/>
   </g>
   <g id="patch_39">
    <path clip-path="url(#p89793aa47b)" d="M 98.585818 200.06 
L 100.606182 200.06 
L 100.606182 198.450366 
L 98.585818 198.450366 
z
" style="fill:#1a1a1a;"/>
   </g>
   <g id="patch_40">
    <path clip-path="url(#p89793aa47b)" d="M 100.606182 200.06 
L 102.626545 200.06 
L 102.626545 198.110937 
L 100.606182 198.110937 
z
" style="fill:#1a1a1a;"/>
   </g>
   <g id="patch_41">
    <path clip-path="url(#p89793aa47b)" d="M 102.626545 200.06 
L 104.646909 200.06 
L 104.646909 197.986394 
L 102.626545 197.986394 
z
" style="fill:#1a1a1a;"/>
   </g>
   <g id="patch_42">
    <path clip-path="url(#p89793aa47b)" d="M 104.646909 200.06 
L 106.667273 200.06 
L 106.667273 197.906077 
L 104.646909 197.906077 
z
" style="fill:#1a1a1a;"/>
   </g>
   <g id="patch_43">
    <path clip-path="url(#p89793aa47b)" d="M 106.667273 200.06 
L 108.687636 200.06 
L 108.687636 197.811895 
L 106.667273 197.811895 
z
" style="fill:#1a1a1a;"/>
   </g>
   <g id="patch_44">
    <path clip-path="url(#p89793aa47b)" d="M 108.687636 200.06 
L 110.708 200.06 
L 110.708 197.380984 
L 108.687636 197.380984 
z
" style="fill:#1a1a1a;"/>
   </g>
   <g id="patch_45">
    <path clip-path="url(#p89793aa47b)" d="M 110.708 200.06 
L 112.728364 200.06 
L 112.728364 197.27261 
L 110.708 197.27261 
z
" style="fill:#1a1a1a;"/>
   </g>
   <g id="patch_46">
    <path clip-path="url(#p89793aa47b)" d="M 112.728364 200.06 
L 114.748727 200.06 
L 114.748727 197.242627 
L 112.728364 197.242627 
z
" style="fill:#1a1a1a;"/>
   </g>
   <g id="patch_47">
    <path clip-path="url(#p89793aa47b)" d="M 114.748727 200.06 
L 116.769091 200.06 
L 116.769091 196.820136 
L 114.748727 196.820136 
z
" style="fill:#1a1a1a;"/>
   </g>
   <g id="patch_48">
    <path clip-path="url(#p89793aa47b)" d="M 116.769091 200.06 
L 118.789455 200.06 
L 118.789455 196.612919 
L 116.769091 196.612919 
z
" style="fill:#1a1a1a;"/>
   </g>
   <g id="patch_49">
    <path clip-path="url(#p89793aa47b)" d="M 118.789455 200.06 
L 120.809818 200.06 
L 120.809818 196.165175 
L 118.789455 196.165175 
z
" style="fill:#1a1a1a;"/>
   </g>
   <g id="patch_50">
    <path clip-path="url(#p89793aa47b)" d="M 120.809818 200.06 
L 122.830182 200.06 
L 122.830182 195.976443 
L 120.809818 195.976443 
z
" style="fill:#1a1a1a;"/>
   </g>
   <g id="patch_51">
    <path clip-path="url(#p89793aa47b)" d="M 122.830182 200.06 
L 124.850545 200.06 
L 124.850545 195.488672 
L 122.830182 195.488672 
z
" style="fill:#1a1a1a;"/>
   </g>
   <g id="patch_52">
    <path clip-path="url(#p89793aa47b)" d="M 124.850545 200.06 
L 126.870909 200.06 
L 126.870909 194.653972 
L 124.850545 194.653972 
z
" style="fill:#1a1a1a;"/>
   </g>
   <g id="patch_53">
    <path clip-path="url(#p89793aa47b)" d="M 126.870909 200.06 
L 128.891273 200.06 
L 128.891273 194.29354 
L 126.870909 194.29354 
z
" style="fill:#1a1a1a;"/>
   </g>
   <g id="patch_54">
    <path clip-path="url(#p89793aa47b)" d="M 128.891273 200.06 
L 130.911636 200.06 
L 130.911636 193.120048 
L 128.891273 193.120048 
z
" style="fill:#1a1a1a;"/>
   </g>
   <g id="patch_55">
    <path clip-path="url(#p89793aa47b)" d="M 130.911636 200.06 
L 132.932 200.06 
L 132.932 192.759667 
L 130.911636 192.759667 
z
" style="fill:#1a1a1a;"/>
   </g>
   <g id="patch_56">
    <path clip-path="url(#p89793aa47b)" d="M 132.932 200.06 
L 134.952364 200.06 
L 134.952364 189.547153 
L 132.932 189.547153 
z
" style="fill:#1a1a1a;"/>
   </g>
   <g id="patch_57">
    <path clip-path="url(#p89793aa47b)" d="M 134.952364 200.06 
L 136.972727 200.06 
L 136.972727 189.263675 
L 134.952364 189.263675 
z
" style="fill:#1a1a1a;"/>
   </g>
   <g id="patch_58">
    <path clip-path="url(#p89793aa47b)" d="M 136.972727 200.06 
L 138.993091 200.06 
L 138.993091 188.552073 
L 136.972727 188.552073 
z
" style="fill:#1a1a1a;"/>
   </g>
   <g id="patch_59">
    <path clip-path="url(#p89793aa47b)" d="M 138.993091 200.06 
L 141.013455 200.06 
L 141.013455 187.275649 
L 138.993091 187.275649 
z
" style="fill:#1a1a1a;"/>
   </g>
   <g id="patch_60">
    <path clip-path="url(#p89793aa47b)" d="M 141.013455 200.06 
L 143.033818 200.06 
L 143.033818 183.461606 
L 141.013455 183.461606 
z
" style="fill:#1a1a1a;"/>
   </g>
   <g id="patch_61">
    <path clip-path="url(#p89793aa47b)" d="M 143.033818 200.06 
L 145.054182 200.06 
L 145.054182 179.360807 
L 143.033818 179.360807 
z
" style="fill:#1a1a1a;"/>
   </g>
   <g id="patch_62">
    <path clip-path="url(#p89793aa47b)" d="M 145.054182 200.06 
L 147.074545 200.06 
L 147.074545 175.113199 
L 145.054182 175.113199 
z
" style="fill:#1a1a1a;"/>
   </g>
   <g id="patch_63">
    <path clip-path="url(#p89793aa47b)" d="M 147.074545 200.06 
L 149.094909 200.06 
L 149.094909 170.167611 
L 147.074545 170.167611 
z
" style="fill:#1a1a1a;"/>
   </g>
   <g id="patch_64">
    <path clip-path="url(#p89793aa47b)" d="M 149.094909 200.06 
L 151.115273 200.06 
L 151.115273 166.365685 
L 149.094909 166.365685 
z
" style="fill:#1a1a1a;"/>
   </g>
   <g id="patch_65">
    <path clip-path="url(#p89793aa47b)" d="M 151.115273 200.06 
L 153.135636 200.06 
L 153.135636 164.082898 
L 151.115273 164.082898 
z
" style="fill:#1a1a1a;"/>
   </g>
   <g id="patch_66">
    <path clip-path="url(#p89793aa47b)" d="M 153.135636 200.06 
L 155.156 200.06 
L 155.156 162.440051 
L 153.135636 162.440051 
z
" style="fill:#1a1a1a;"/>
   </g>
   <g id="patch_67">
    <path clip-path="url(#p89793aa47b)" d="M 155.156 200.06 
L 157.176364 200.06 
L 157.176364 155.194643 
L 155.156 155.194643 
z
" style="fill:#1a1a1a;"/>
   </g>
   <g id="patch_68">
    <path clip-path="url(#p89793aa47b)" d="M 157.176364 200.06 
L 159.196727 200.06 
L 159.196727 145.17179 
L 157.176364 145.17179 
z
" style="fill:#1a1a1a;"/>
   </g>
   <g id="patch_69">
    <path clip-path="url(#p89793aa47b)" d="M 159.196727 200.06 
L 161.217091 200.06 
L 161.217091 139.528719 
L 159.196727 139.528719 
z
" style="fill:#1a1a1a;"/>
   </g>
   <g id="patch_70">
    <path clip-path="url(#p89793aa47b)" d="M 161.217091 200.06 
L 163.237455 200.06 
L 163.237455 138.040698 
L 161.217091 138.040698 
z
" style="fill:#1a1a1a;"/>
   </g>
   <g id="patch_71">
    <path clip-path="url(#p89793aa47b)" d="M 163.237455 200.06 
L 165.257818 200.06 
L 165.257818 132.298145 
L 163.237455 132.298145 
z
" style="fill:#1a1a1a;"/>
   </g>
   <g id="patch_72">
    <path clip-path="url(#p89793aa47b)" d="M 165.257818 200.06 
L 167.278182 200.06 
L 167.278182 117.067363 
L 165.257818 117.067363 
z
" style="fill:#1a1a1a;"/>
   </g>
   <g id="patch_73">
    <path clip-path="url(#p89793aa47b)" d="M 167.278182 200.06 
L 169.298545 200.06 
L 169.298545 103.009369 
L 167.278182 103.009369 
z
" style="fill:#1a1a1a;"/>
   </g>
   <g id="patch_74">
    <path clip-path="url(#p89793aa47b)" d="M 169.298545 200.06 
L 171.318909 200.06 
L 171.318909 100.560745 
L 169.298545 100.560745 
z
" style="fill:#1a1a1a;"/>
   </g>
   <g id="patch_75">
    <path clip-path="url(#p89793aa47b)" d="M 171.318909 200.06 
L 173.339273 200.06 
L 173.339273 93.408635 
L 171.318909 93.408635 
z
" style="fill:#1a1a1a;"/>
   </g>
   <g id="patch_76">
    <path clip-path="url(#p89793aa47b)" d="M 173.339273 200.06 
L 175.359636 200.06 
L 175.359636 89.481258 
L 173.339273 89.481258 
z
" style="fill:#1a1a1a;"/>
   </g>
   <g id="patch_77">
    <path clip-path="url(#p89793aa47b)" d="M 175.359636 200.06 
L 177.38 200.06 
L 177.38 86.079056 
L 175.359636 86.079056 
z
" style="fill:#1a1a1a;"/>
   </g>
   <g id="patch_78">
    <path clip-path="url(#p89793aa47b)" d="M 177.38 200.06 
L 179.400364 200.06 
L 179.400364 84.95261 
L 177.38 84.95261 
z
" style="fill:#1a1a1a;"/>
   </g>
   <g id="patch_79">
    <path clip-path="url(#p89793aa47b)" d="M 179.400364 200.06 
L 181.420727 200.06 
L 181.420727 87.243214 
L 179.400364 87.243214 
z
" style="fill:#1a1a1a;"/>
   </g>
   <g id="patch_80">
    <path clip-path="url(#p89793aa47b)" d="M 181.420727 200.06 
L 183.441091 200.06 
L 183.441091 92.682773 
L 181.420727 92.682773 
z
" style="fill:#1a1a1a;"/>
   </g>
   <g id="patch_81">
    <path clip-path="url(#p89793aa47b)" d="M 183.441091 200.06 
L 185.461455 200.06 
L 185.461455 95.533709 
L 183.441091 95.533709 
z
" style="fill:#1a1a1a;"/>
   </g>
   <g id="patch_82">
    <path clip-path="url(#p89793aa47b)" d="M 185.461455 200.06 
L 187.481818 200.06 
L 187.481818 102.396601 
L 185.461455 102.396601 
z
" style="fill:#1a1a1a;"/>
   </g>
   <g id="patch_83">
    <path clip-path="url(#p89793aa47b)" d="M 187.481818 200.06 
L 189.502182 200.06 
L 189.502182 112.657474 
L 187.481818 112.657474 
z
" style="fill:#1a1a1a;"/>
   </g>
   <g id="patch_84">
    <path clip-path="url(#p89793aa47b)" d="M 189.502182 200.06 
L 191.522545 200.06 
L 191.522545 125.993444 
L 189.502182 125.993444 
z
" style="fill:#1a1a1a;"/>
   </g>
   <g id="patch_85">
    <path clip-path="url(#p89793aa47b)" d="M 191.522545 200.06 
L 193.542909 200.06 
L 193.542909 132.540306 
L 191.522545 132.540306 
z
" style="fill:#1a1a1a;"/>
   </g>
   <g id="patch_86">
    <path clip-path="url(#p89793aa47b)" d="M 193.542909 200.06 
L 195.563273 200.06 
L 195.563273 138.189484 
L 193.542909 138.189484 
z
" style="fill:#1a1a1a;"/>
   </g>
   <g id="patch_87">
    <path clip-path="url(#p89793aa47b)" d="M 195.563273 200.06 
L 197.583636 200.06 
L 197.583636 142.841887 
L 195.563273 142.841887 
z
" style="fill:#1a1a1a;"/>
   </g>
   <g id="patch_88">
    <path clip-path="url(#p89793aa47b)" d="M 197.583636 200.06 
L 199.604 200.06 
L 199.604 145.350806 
L 197.583636 145.350806 
z
" style="fill:#1a1a1a;"/>
   </g>
   <g id="patch_89">
    <path clip-path="url(#p89793aa47b)" d="M 199.604 200.06 
L 201.624364 200.06 
L 201.624364 160.819779 
L 199.604 160.819779 
z
" style="fill:#1a1a1a;"/>
   </g>
   <g id="patch_90">
    <path clip-path="url(#p89793aa47b)" d="M 201.624364 200.06 
L 203.644727 200.06 
L 203.644727 162.546607 
L 201.624364 162.546607 
z
" style="fill:#1a1a1a;"/>
   </g>
   <g id="patch_91">
    <path clip-path="url(#p89793aa47b)" d="M 203.644727 200.06 
L 205.665091 200.06 
L 205.665091 165.772862 
L 203.644727 165.772862 
z
" style="fill:#1a1a1a;"/>
   </g>
   <g id="patch_92">
    <path clip-path="url(#p89793aa47b)" d="M 205.665091 200.06 
L 207.685455 200.06 
L 207.685455 169.112148 
L 205.665091 169.112148 
z
" style="fill:#1a1a1a;"/>
   </g>
   <g id="patch_93">
    <path clip-path="url(#p89793aa47b)" d="M 207.685455 200.06 
L 209.705818 200.06 
L 209.705818 174.173015 
L 207.685455 174.173015 
z
" style="fill:#1a1a1a;"/>
   </g>
   <g id="patch_94">
    <path clip-path="url(#p89793aa47b)" d="M 209.705818 200.06 
L 211.726182 200.06 
L 211.726182 178.871331 
L 209.705818 178.871331 
z
" style="fill:#1a1a1a;"/>
   </g>
   <g id="patch_95">
    <path clip-path="url(#p89793aa47b)" d="M 211.726182 200.06 
L 213.746545 200.06 
L 213.746545 179.388914 
L 211.726182 179.388914 
z
" style="fill:#1a1a1a;"/>
   </g>
   <g id="patch_96">
    <path clip-path="url(#p89793aa47b)" d="M 213.746545 200.06 
L 215.766909 200.06 
L 215.766909 185.716381 
L 213.746545 185.716381 
z
" style="fill:#1a1a1a;"/>
   </g>
   <g id="patch_97">
    <path clip-path="url(#p89793aa47b)" d="M 215.766909 200.06 
L 217.787273 200.06 
L 217.787273 187.276748 
L 215.766909 187.276748 
z
" style="fill:#1a1a1a;"/>
   </g>
   <g id="patch_98">
    <path clip-path="url(#p89793aa47b)" d="M 217.787273 200.06 
L 219.807636 200.06 
L 219.807636 188.977401 
L 217.787273 188.977401 
z
" style="fill:#1a1a1a;"/>
   </g>
   <g id="patch_99">
    <path clip-path="url(#p89793aa47b)" d="M 219.807636 200.06 
L 221.828 200.06 
L 221.828 189.514392 
L 219.807636 189.514392 
z
" style="fill:#1a1a1a;"/>
   </g>
   <g id="patch_100">
    <path clip-path="url(#p89793aa47b)" d="M 221.828 200.06 
L 223.848364 200.06 
L 223.848364 191.345294 
L 221.828 191.345294 
z
" style="fill:#1a1a1a;"/>
   </g>
   <g id="patch_101">
    <path clip-path="url(#p89793aa47b)" d="M 223.848364 200.06 
L 225.868727 200.06 
L 225.868727 192.883881 
L 223.848364 192.883881 
z
" style="fill:#1a1a1a;"/>
   </g>
   <g id="patch_102">
    <path clip-path="url(#p89793aa47b)" d="M 225.868727 200.06 
L 227.889091 200.06 
L 227.889091 193.279748 
L 225.868727 193.279748 
z
" style="fill:#1a1a1a;"/>
   </g>
   <g id="patch_103">
    <path clip-path="url(#p89793aa47b)" d="M 227.889091 200.06 
L 229.909455 200.06 
L 229.909455 194.339242 
L 227.889091 194.339242 
z
" style="fill:#1a1a1a;"/>
   </g>
   <g id="patch_104">
    <path clip-path="url(#p89793aa47b)" d="M 229.909455 200.06 
L 231.929818 200.06 
L 231.929818 195.220671 
L 229.909455 195.220671 
z
" style="fill:#1a1a1a;"/>
   </g>
   <g id="patch_105">
    <path clip-path="url(#p89793aa47b)" d="M 231.929818 200.06 
L 233.950182 200.06 
L 233.950182 195.554605 
L 231.929818 195.554605 
z
" style="fill:#1a1a1a;"/>
   </g>
   <g id="patch_106">
    <path clip-path="url(#p89793aa47b)" d="M 233.950182 200.06 
L 235.970545 200.06 
L 235.970545 196.125841 
L 233.950182 196.125841 
z
" style="fill:#1a1a1a;"/>
   </g>
   <g id="patch_107">
    <path clip-path="url(#p89793aa47b)" d="M 235.970545 200.06 
L 237.990909 200.06 
L 237.990909 196.167965 
L 235.970545 196.167965 
z
" style="fill:#1a1a1a;"/>
   </g>
   <g id="patch_108">
    <path clip-path="url(#p89793aa47b)" d="M 237.990909 200.06 
L 240.011273 200.06 
L 240.011273 196.619863 
L 237.990909 196.619863 
z
" style="fill:#1a1a1a;"/>
   </g>
   <g id="patch_109">
    <path clip-path="url(#p89793aa47b)" d="M 240.011273 200.06 
L 242.031636 200.06 
L 242.031636 196.980529 
L 240.011273 196.980529 
z
" style="fill:#1a1a1a;"/>
   </g>
   <g id="patch_110">
    <path clip-path="url(#p89793aa47b)" d="M 242.031636 200.06 
L 244.052 200.06 
L 244.052 197.245483 
L 242.031636 197.245483 
z
" style="fill:#1a1a1a;"/>
   </g>
   <g id="patch_111">
    <path clip-path="url(#p89793aa47b)" d="M 244.052 200.06 
L 246.072364 200.06 
L 246.072364 197.368529 
L 244.052 197.368529 
z
" style="fill:#1a1a1a;"/>
   </g>
   <g id="patch_112">
    <path clip-path="url(#p89793aa47b)" d="M 246.072364 200.06 
L 248.092727 200.06 
L 248.092727 197.452092 
L 246.072364 197.452092 
z
" style="fill:#1a1a1a;"/>
   </g>
   <g id="patch_113">
    <path clip-path="url(#p89793aa47b)" d="M 248.092727 200.06 
L 250.113091 200.06 
L 250.113091 197.885733 
L 248.092727 197.885733 
z
" style="fill:#1a1a1a;"/>
   </g>
   <g id="patch_114">
    <path clip-path="url(#p89793aa47b)" d="M 250.113091 200.06 
L 252.133455 200.06 
L 252.133455 197.937411 
L 250.113091 197.937411 
z
" style="fill:#1a1a1a;"/>
   </g>
   <g id="patch_115">
    <path clip-path="url(#p89793aa47b)" d="M 252.133455 200.06 
L 254.153818 200.06 
L 254.153818 198.014759 
L 252.133455 198.014759 
z
" style="fill:#1a1a1a;"/>
   </g>
   <g id="patch_116">
    <path clip-path="url(#p89793aa47b)" d="M 254.153818 200.06 
L 256.174182 200.06 
L 256.174182 198.227626 
L 254.153818 198.227626 
z
" style="fill:#1a1a1a;"/>
   </g>
   <g id="patch_117">
    <path clip-path="url(#p89793aa47b)" d="M 256.174182 200.06 
L 258.194545 200.06 
L 258.194545 198.668918 
L 256.174182 198.668918 
z
" style="fill:#1a1a1a;"/>
   </g>
   <g id="patch_118">
    <path clip-path="url(#p89793aa47b)" d="M 258.194545 200.06 
L 260.214909 200.06 
L 260.214909 198.871041 
L 258.194545 198.871041 
z
" style="fill:#1a1a1a;"/>
   </g>
   <g id="patch_119">
    <path clip-path="url(#p89793aa47b)" d="M 260.214909 200.06 
L 262.235273 200.06 
L 262.235273 198.949852 
L 260.214909 198.949852 
z
" style="fill:#1a1a1a;"/>
   </g>
   <g id="patch_120">
    <path clip-path="url(#p89793aa47b)" d="M 262.235273 200.06 
L 264.255636 200.06 
L 264.255636 198.969477 
L 262.235273 198.969477 
z
" style="fill:#1a1a1a;"/>
   </g>
   <g id="patch_121">
    <path clip-path="url(#p89793aa47b)" d="M 264.255636 200.06 
L 266.276 200.06 
L 266.276 199.03248 
L 264.255636 199.03248 
z
" style="fill:#1a1a1a;"/>
   </g>
   <g id="patch_122">
    <path clip-path="url(#p89793aa47b)" d="M 266.276 200.06 
L 268.296364 200.06 
L 268.296364 199.061353 
L 266.276 199.061353 
z
" style="fill:#1a1a1a;"/>
   </g>
   <g id="patch_123">
    <path clip-path="url(#p89793aa47b)" d="M 268.296364 200.06 
L 270.316727 200.06 
L 270.316727 199.124795 
L 268.296364 199.124795 
z
" style="fill:#1a1a1a;"/>
   </g>
   <g id="patch_124">
    <path clip-path="url(#p89793aa47b)" d="M 270.316727 200.06 
L 272.337091 200.06 
L 272.337091 199.179148 
L 270.316727 199.179148 
z
" style="fill:#1a1a1a;"/>
   </g>
   <g id="patch_125">
    <path clip-path="url(#p89793aa47b)" d="M 272.337091 200.06 
L 274.357455 200.06 
L 274.357455 199.228525 
L 272.337091 199.228525 
z
" style="fill:#1a1a1a;"/>
   </g>
   <g id="patch_126">
    <path clip-path="url(#p89793aa47b)" d="M 274.357455 200.06 
L 276.377818 200.06 
L 276.377818 199.307433 
L 274.357455 199.307433 
z
" style="fill:#1a1a1a;"/>
   </g>
   <g id="patch_127">
    <path clip-path="url(#p89793aa47b)" d="M 276.377818 200.06 
L 278.398182 200.06 
L 278.398182 199.325828 
L 276.377818 199.325828 
z
" style="fill:#1a1a1a;"/>
   </g>
   <g id="patch_128">
    <path clip-path="url(#p89793aa47b)" d="M 278.398182 200.06 
L 280.418545 200.06 
L 280.418545 199.370423 
L 278.398182 199.370423 
z
" style="fill:#1a1a1a;"/>
   </g>
   <g id="patch_129">
    <path clip-path="url(#p89793aa47b)" d="M 280.418545 200.06 
L 282.438909 200.06 
L 282.438909 199.417641 
L 280.418545 199.417641 
z
" style="fill:#1a1a1a;"/>
   </g>
   <g id="patch_130">
    <path clip-path="url(#p89793aa47b)" d="M 282.438909 200.06 
L 284.459273 200.06 
L 284.459273 199.449246 
L 282.438909 199.449246 
z
" style="fill:#1a1a1a;"/>
   </g>
   <g id="patch_131">
    <path clip-path="url(#p89793aa47b)" d="M 284.459273 200.06 
L 286.479636 200.06 
L 286.479636 199.484389 
L 284.459273 199.484389 
z
" style="fill:#1a1a1a;"/>
   </g>
   <g id="patch_132">
    <path clip-path="url(#p89793aa47b)" d="M 286.479636 200.06 
L 288.5 200.06 
L 288.5 199.503827 
L 286.479636 199.503827 
z
" style="fill:#1a1a1a;"/>
   </g>
   <g id="patch_133">
    <path clip-path="url(#p89793aa47b)" d="M 288.5 200.06 
L 290.520364 200.06 
L 290.520364 199.54075 
L 288.5 199.54075 
z
" style="fill:#1a1a1a;"/>
   </g>
   <g id="patch_134">
    <path clip-path="url(#p89793aa47b)" d="M 290.520364 200.06 
L 292.540727 200.06 
L 292.540727 199.557373 
L 290.520364 199.557373 
z
" style="fill:#1a1a1a;"/>
   </g>
   <g id="patch_135">
    <path clip-path="url(#p89793aa47b)" d="M 292.540727 200.06 
L 294.561091 200.06 
L 294.561091 199.559019 
L 292.540727 199.559019 
z
" style="fill:#1a1a1a;"/>
   </g>
   <g id="patch_136">
    <path clip-path="url(#p89793aa47b)" d="M 294.561091 200.06 
L 296.581455 200.06 
L 296.581455 199.574648 
L 294.561091 199.574648 
z
" style="fill:#1a1a1a;"/>
   </g>
   <g id="patch_137">
    <path clip-path="url(#p89793aa47b)" d="M 296.581455 200.06 
L 298.601818 200.06 
L 298.601818 199.604793 
L 296.581455 199.604793 
z
" style="fill:#1a1a1a;"/>
   </g>
   <g id="patch_138">
    <path clip-path="url(#p89793aa47b)" d="M 298.601818 200.06 
L 300.622182 200.06 
L 300.622182 199.663221 
L 298.601818 199.663221 
z
" style="fill:#1a1a1a;"/>
   </g>
   <g id="patch_139">
    <path clip-path="url(#p89793aa47b)" d="M 300.622182 200.06 
L 302.642545 200.06 
L 302.642545 199.670238 
L 300.622182 199.670238 
z
" style="fill:#1a1a1a;"/>
   </g>
   <g id="patch_140">
    <path clip-path="url(#p89793aa47b)" d="M 302.642545 200.06 
L 304.662909 200.06 
L 304.662909 199.681044 
L 302.642545 199.681044 
z
" style="fill:#1a1a1a;"/>
   </g>
   <g id="patch_141">
    <path clip-path="url(#p89793aa47b)" d="M 304.662909 200.06 
L 306.683273 200.06 
L 306.683273 199.694239 
L 304.662909 199.694239 
z
" style="fill:#1a1a1a;"/>
   </g>
   <g id="patch_142">
    <path clip-path="url(#p89793aa47b)" d="M 306.683273 200.06 
L 308.703636 200.06 
L 308.703636 199.73686 
L 306.683273 199.73686 
z
" style="fill:#1a1a1a;"/>
   </g>
   <g id="patch_143">
    <path clip-path="url(#p89793aa47b)" d="M 308.703636 200.06 
L 310.724 200.06 
L 310.724 199.749627 
L 308.703636 199.749627 
z
" style="fill:#1a1a1a;"/>
   </g>
   <g id="patch_144">
    <path clip-path="url(#p89793aa47b)" d="M 310.724 200.06 
L 312.744364 200.06 
L 312.744364 199.788551 
L 310.724 199.788551 
z
" style="fill:#1a1a1a;"/>
   </g>
   <g id="patch_145">
    <path clip-path="url(#p89793aa47b)" d="M 312.744364 200.06 
L 314.764727 200.06 
L 314.764727 199.791877 
L 312.744364 199.791877 
z
" style="fill:#1a1a1a;"/>
   </g>
   <g id="patch_146">
    <path clip-path="url(#p89793aa47b)" d="M 314.764727 200.06 
L 316.785091 200.06 
L 316.785091 199.829245 
L 314.764727 199.829245 
z
" style="fill:#1a1a1a;"/>
   </g>
   <g id="patch_147">
    <path clip-path="url(#p89793aa47b)" d="M 316.785091 200.06 
L 318.805455 200.06 
L 318.805455 199.84283 
L 316.785091 199.84283 
z
" style="fill:#1a1a1a;"/>
   </g>
   <g id="patch_148">
    <path clip-path="url(#p89793aa47b)" d="M 318.805455 200.06 
L 320.825818 200.06 
L 320.825818 199.865181 
L 318.805455 199.865181 
z
" style="fill:#1a1a1a;"/>
   </g>
   <g id="patch_149">
    <path clip-path="url(#p89793aa47b)" d="M 320.825818 200.06 
L 322.846182 200.06 
L 322.846182 199.866874 
L 320.825818 199.866874 
z
" style="fill:#1a1a1a;"/>
   </g>
   <g id="patch_150">
    <path clip-path="url(#p89793aa47b)" d="M 322.846182 200.06 
L 324.866545 200.06 
L 324.866545 199.869523 
L 322.846182 199.869523 
z
" style="fill:#1a1a1a;"/>
   </g>
   <g id="patch_151">
    <path clip-path="url(#p89793aa47b)" d="M 324.866545 200.06 
L 326.886909 200.06 
L 326.886909 199.883963 
L 324.866545 199.883963 
z
" style="fill:#1a1a1a;"/>
   </g>
   <g id="patch_152">
    <path clip-path="url(#p89793aa47b)" d="M 326.886909 200.06 
L 328.907273 200.06 
L 328.907273 199.900962 
L 326.886909 199.900962 
z
" style="fill:#1a1a1a;"/>
   </g>
   <g id="matplotlib.axis_1"/>
   <g id="matplotlib.axis_2"/>
   <g id="patch_153">
    <path d="M 10.7 200.06 
L 10.7 10.7 
" style="fill:none;stroke:#000000;stroke-linecap:square;stroke-linejoin:miter;stroke-width:0.8;"/>
   </g>
   <g id="patch_154">
    <path d="M 344.06 200.06 
L 344.06 10.7 
" style="fill:none;stroke:#000000;stroke-linecap:square;stroke-linejoin:miter;stroke-width:0.8;"/>
   </g>
   <g id="patch_155">
    <path d="M 10.7 200.06 
L 344.06 200.06 
" style="fill:none;stroke:#000000;stroke-linecap:square;stroke-linejoin:miter;stroke-width:0.8;"/>
   </g>
   <g id="patch_156">
    <path d="M 10.7 10.7 
L 344.06 10.7 
" style="fill:none;stroke:#000000;stroke-linecap:square;stroke-linejoin:miter;stroke-width:0.8;"/>
   </g>
  </g>
 </g>
 <defs>
  <clipPath id="p89793aa47b">
   <rect height="189.36" width="333.36" x="10.7" y="10.7"/>
  </clipPath>
 </defs>
</svg>
