<?xml version="1.0" encoding="utf-8" standalone="no"?>
<!DOCTYPE svg PUBLIC "-//W3C//DTD SVG 1.1//EN"
  "http://www.w3.org/Graphics/SVG/1.1/DTD/svg11.dtd">
<!-- Created with matplotlib (http://matplotlib.org/) -->
<svg height="210pt" version="1.1" viewBox="0 0 354 210" width="354pt" xmlns="http://www.w3.org/2000/svg" xmlns:xlink="http://www.w3.org/1999/xlink">
 <defs>
  <style type="text/css">
*{stroke-linecap:butt;stroke-linejoin:round;}
  </style>
 </defs>
 <g id="figure_1">
  <g id="patch_1">
   <path d="M 0 210.76 
L 354.76 210.76 
L 354.76 0 
L 0 0 
z
" style="fill:#ffffff;"/>
  </g>
  <g id="axes_1">
   <g id="patch_2">
    <path d="M 10.7 200.06 
L 344.06 200.06 
L 344.06 10.7 
L 10.7 10.7 
z
" style="fill:#ffffff;"/>
   </g>
   <g id="patch_3">
    <path clip-path="url(#p991205e5e3)" d="M 25.852727 200.06 
L 27.873091 200.06 
L 27.873091 199.909016 
L 25.852727 199.909016 
z
" style="fill:#1a1a1a;"/>
   </g>
   <g id="patch_4">
    <path clip-path="url(#p991205e5e3)" d="M 27.873091 200.06 
L 29.893455 200.06 
L 29.893455 199.899901 
L 27.873091 199.899901 
z
" style="fill:#1a1a1a;"/>
   </g>
   <g id="patch_5">
    <path clip-path="url(#p991205e5e3)" d="M 29.893455 200.06 
L 31.913818 200.06 
L 31.913818 199.896776 
L 29.893455 199.896776 
z
" style="fill:#1a1a1a;"/>
   </g>
   <g id="patch_6">
    <path clip-path="url(#p991205e5e3)" d="M 31.913818 200.06 
L 33.934182 200.06 
L 33.934182 199.887504 
L 31.913818 199.887504 
z
" style="fill:#1a1a1a;"/>
   </g>
   <g id="patch_7">
    <path clip-path="url(#p991205e5e3)" d="M 33.934182 200.06 
L 35.954545 200.06 
L 35.954545 199.87997 
L 33.934182 199.87997 
z
" style="fill:#1a1a1a;"/>
   </g>
   <g id="patch_8">
    <path clip-path="url(#p991205e5e3)" d="M 35.954545 200.06 
L 37.974909 200.06 
L 37.974909 199.87356 
L 35.954545 199.87356 
z
" style="fill:#1a1a1a;"/>
   </g>
   <g id="patch_9">
    <path clip-path="url(#p991205e5e3)" d="M 37.974909 200.06 
L 39.995273 200.06 
L 39.995273 199.871281 
L 37.974909 199.871281 
z
" style="fill:#1a1a1a;"/>
   </g>
   <g id="patch_10">
    <path clip-path="url(#p991205e5e3)" d="M 39.995273 200.06 
L 42.015636 200.06 
L 42.015636 199.857965 
L 39.995273 199.857965 
z
" style="fill:#1a1a1a;"/>
   </g>
   <g id="patch_11">
    <path clip-path="url(#p991205e5e3)" d="M 42.015636 200.06 
L 44.036 200.06 
L 44.036 199.856738 
L 42.015636 199.856738 
z
" style="fill:#1a1a1a;"/>
   </g>
   <g id="patch_12">
    <path clip-path="url(#p991205e5e3)" d="M 44.036 200.06 
L 46.056364 200.06 
L 46.056364 199.847504 
L 44.036 199.847504 
z
" style="fill:#1a1a1a;"/>
   </g>
   <g id="patch_13">
    <path clip-path="url(#p991205e5e3)" d="M 46.056364 200.06 
L 48.076727 200.06 
L 48.076727 199.834391 
L 46.056364 199.834391 
z
" style="fill:#1a1a1a;"/>
   </g>
   <g id="patch_14">
    <path clip-path="url(#p991205e5e3)" d="M 48.076727 200.06 
L 50.097091 200.06 
L 50.097091 199.83178 
L 48.076727 199.83178 
z
" style="fill:#1a1a1a;"/>
   </g>
   <g id="patch_15">
    <path clip-path="url(#p991205e5e3)" d="M 50.097091 200.06 
L 52.117455 200.06 
L 52.117455 199.812935 
L 50.097091 199.812935 
z
" style="fill:#1a1a1a;"/>
   </g>
   <g id="patch_16">
    <path clip-path="url(#p991205e5e3)" d="M 52.117455 200.06 
L 54.137818 200.06 
L 54.137818 199.802753 
L 52.117455 199.802753 
z
" style="fill:#1a1a1a;"/>
   </g>
   <g id="patch_17">
    <path clip-path="url(#p991205e5e3)" d="M 54.137818 200.06 
L 56.158182 200.06 
L 56.158182 199.787746 
L 54.137818 199.787746 
z
" style="fill:#1a1a1a;"/>
   </g>
   <g id="patch_18">
    <path clip-path="url(#p991205e5e3)" d="M 56.158182 200.06 
L 58.178545 200.06 
L 58.178545 199.778882 
L 56.158182 199.778882 
z
" style="fill:#1a1a1a;"/>
   </g>
   <g id="patch_19">
    <path clip-path="url(#p991205e5e3)" d="M 58.178545 200.06 
L 60.198909 200.06 
L 60.198909 199.743653 
L 58.178545 199.743653 
z
" style="fill:#1a1a1a;"/>
   </g>
   <g id="patch_20">
    <path clip-path="url(#p991205e5e3)" d="M 60.198909 200.06 
L 62.219273 200.06 
L 62.219273 199.739569 
L 60.198909 199.739569 
z
" style="fill:#1a1a1a;"/>
   </g>
   <g id="patch_21">
    <path clip-path="url(#p991205e5e3)" d="M 62.219273 200.06 
L 64.239636 200.06 
L 64.239636 199.734206 
L 62.219273 199.734206 
z
" style="fill:#1a1a1a;"/>
   </g>
   <g id="patch_22">
    <path clip-path="url(#p991205e5e3)" d="M 64.239636 200.06 
L 66.26 200.06 
L 66.26 199.727895 
L 64.239636 199.727895 
z
" style="fill:#1a1a1a;"/>
   </g>
   <g id="patch_23">
    <path clip-path="url(#p991205e5e3)" d="M 66.26 200.06 
L 68.280364 200.06 
L 68.280364 199.714565 
L 66.26 199.714565 
z
" style="fill:#1a1a1a;"/>
   </g>
   <g id="patch_24">
    <path clip-path="url(#p991205e5e3)" d="M 68.280364 200.06 
L 70.300727 200.06 
L 70.300727 199.68573 
L 68.280364 199.68573 
z
" style="fill:#1a1a1a;"/>
   </g>
   <g id="patch_25">
    <path clip-path="url(#p991205e5e3)" d="M 70.300727 200.06 
L 72.321091 200.06 
L 72.321091 199.668034 
L 70.300727 199.668034 
z
" style="fill:#1a1a1a;"/>
   </g>
   <g id="patch_26">
    <path clip-path="url(#p991205e5e3)" d="M 72.321091 200.06 
L 74.341455 200.06 
L 74.341455 199.652024 
L 72.321091 199.652024 
z
" style="fill:#1a1a1a;"/>
   </g>
   <g id="patch_27">
    <path clip-path="url(#p991205e5e3)" d="M 74.341455 200.06 
L 76.361818 200.06 
L 76.361818 199.636208 
L 74.341455 199.636208 
z
" style="fill:#1a1a1a;"/>
   </g>
   <g id="patch_28">
    <path clip-path="url(#p991205e5e3)" d="M 76.361818 200.06 
L 78.382182 200.06 
L 78.382182 199.628437 
L 76.361818 199.628437 
z
" style="fill:#1a1a1a;"/>
   </g>
   <g id="patch_29">
    <path clip-path="url(#p991205e5e3)" d="M 78.382182 200.06 
L 80.402545 200.06 
L 80.402545 199.604757 
L 78.382182 199.604757 
z
" style="fill:#1a1a1a;"/>
   </g>
   <g id="patch_30">
    <path clip-path="url(#p991205e5e3)" d="M 80.402545 200.06 
L 82.422909 200.06 
L 82.422909 199.579078 
L 80.402545 199.579078 
z
" style="fill:#1a1a1a;"/>
   </g>
   <g id="patch_31">
    <path clip-path="url(#p991205e5e3)" d="M 82.422909 200.06 
L 84.443273 200.06 
L 84.443273 199.574348 
L 82.422909 199.574348 
z
" style="fill:#1a1a1a;"/>
   </g>
   <g id="patch_32">
    <path clip-path="url(#p991205e5e3)" d="M 84.443273 200.06 
L 86.463636 200.06 
L 86.463636 199.553575 
L 84.443273 199.553575 
z
" style="fill:#1a1a1a;"/>
   </g>
   <g id="patch_33">
    <path clip-path="url(#p991205e5e3)" d="M 86.463636 200.06 
L 88.484 200.06 
L 88.484 199.523056 
L 86.463636 199.523056 
z
" style="fill:#1a1a1a;"/>
   </g>
   <g id="patch_34">
    <path clip-path="url(#p991205e5e3)" d="M 88.484 200.06 
L 90.504364 200.06 
L 90.504364 199.4999 
L 88.484 199.4999 
z
" style="fill:#1a1a1a;"/>
   </g>
   <g id="patch_35">
    <path clip-path="url(#p991205e5e3)" d="M 90.504364 200.06 
L 92.524727 200.06 
L 92.524727 199.466818 
L 90.504364 199.466818 
z
" style="fill:#1a1a1a;"/>
   </g>
   <g id="patch_36">
    <path clip-path="url(#p991205e5e3)" d="M 92.524727 200.06 
L 94.545091 200.06 
L 94.545091 199.350256 
L 92.524727 199.350256 
z
" style="fill:#1a1a1a;"/>
   </g>
   <g id="patch_37">
    <path clip-path="url(#p991205e5e3)" d="M 94.545091 200.06 
L 96.565455 200.06 
L 96.565455 199.30659 
L 94.545091 199.30659 
z
" style="fill:#1a1a1a;"/>
   </g>
   <g id="patch_38">
    <path clip-path="url(#p991205e5e3)" d="M 96.565455 200.06 
L 98.585818 200.06 
L 98.585818 199.251764 
L 96.565455 199.251764 
z
" style="fill:#1a1a1a;"/>
   </g>
   <g id="patch_39">
    <path clip-path="url(#p991205e5e3)" d="M 98.585818 200.06 
L 100.606182 200.06 
L 100.606182 199.218078 
L 98.585818 199.218078 
z
" style="fill:#1a1a1a;"/>
   </g>
   <g id="patch_40">
    <path clip-path="url(#p991205e5e3)" d="M 100.606182 200.06 
L 102.626545 200.06 
L 102.626545 199.135808 
L 100.606182 199.135808 
z
" style="fill:#1a1a1a;"/>
   </g>
   <g id="patch_41">
    <path clip-path="url(#p991205e5e3)" d="M 102.626545 200.06 
L 104.646909 200.06 
L 104.646909 199.088608 
L 102.626545 199.088608 
z
" style="fill:#1a1a1a;"/>
   </g>
   <g id="patch_42">
    <path clip-path="url(#p991205e5e3)" d="M 104.646909 200.06 
L 106.667273 200.06 
L 106.667273 199.048663 
L 104.646909 199.048663 
z
" style="fill:#1a1a1a;"/>
   </g>
   <g id="patch_43">
    <path clip-path="url(#p991205e5e3)" d="M 106.667273 200.06 
L 108.687636 200.06 
L 108.687636 199.033897 
L 106.667273 199.033897 
z
" style="fill:#1a1a1a;"/>
   </g>
   <g id="patch_44">
    <path clip-path="url(#p991205e5e3)" d="M 108.687636 200.06 
L 110.708 200.06 
L 110.708 199.00534 
L 108.687636 199.00534 
z
" style="fill:#1a1a1a;"/>
   </g>
   <g id="patch_45">
    <path clip-path="url(#p991205e5e3)" d="M 110.708 200.06 
L 112.728364 200.06 
L 112.728364 198.932803 
L 110.708 198.932803 
z
" style="fill:#1a1a1a;"/>
   </g>
   <g id="patch_46">
    <path clip-path="url(#p991205e5e3)" d="M 112.728364 200.06 
L 114.748727 200.06 
L 114.748727 198.777788 
L 112.728364 198.777788 
z
" style="fill:#1a1a1a;"/>
   </g>
   <g id="patch_47">
    <path clip-path="url(#p991205e5e3)" d="M 114.748727 200.06 
L 116.769091 200.06 
L 116.769091 198.553671 
L 114.748727 198.553671 
z
" style="fill:#1a1a1a;"/>
   </g>
   <g id="patch_48">
    <path clip-path="url(#p991205e5e3)" d="M 116.769091 200.06 
L 118.789455 200.06 
L 118.789455 198.376293 
L 116.769091 198.376293 
z
" style="fill:#1a1a1a;"/>
   </g>
   <g id="patch_49">
    <path clip-path="url(#p991205e5e3)" d="M 118.789455 200.06 
L 120.809818 200.06 
L 120.809818 198.293329 
L 118.789455 198.293329 
z
" style="fill:#1a1a1a;"/>
   </g>
   <g id="patch_50">
    <path clip-path="url(#p991205e5e3)" d="M 120.809818 200.06 
L 122.830182 200.06 
L 122.830182 198.283787 
L 120.809818 198.283787 
z
" style="fill:#1a1a1a;"/>
   </g>
   <g id="patch_51">
    <path clip-path="url(#p991205e5e3)" d="M 122.830182 200.06 
L 124.850545 200.06 
L 124.850545 198.17269 
L 122.830182 198.17269 
z
" style="fill:#1a1a1a;"/>
   </g>
   <g id="patch_52">
    <path clip-path="url(#p991205e5e3)" d="M 124.850545 200.06 
L 126.870909 200.06 
L 126.870909 198.139014 
L 124.850545 198.139014 
z
" style="fill:#1a1a1a;"/>
   </g>
   <g id="patch_53">
    <path clip-path="url(#p991205e5e3)" d="M 126.870909 200.06 
L 128.891273 200.06 
L 128.891273 198.101268 
L 126.870909 198.101268 
z
" style="fill:#1a1a1a;"/>
   </g>
   <g id="patch_54">
    <path clip-path="url(#p991205e5e3)" d="M 128.891273 200.06 
L 130.911636 200.06 
L 130.911636 198.013125 
L 128.891273 198.013125 
z
" style="fill:#1a1a1a;"/>
   </g>
   <g id="patch_55">
    <path clip-path="url(#p991205e5e3)" d="M 130.911636 200.06 
L 132.932 200.06 
L 132.932 197.859406 
L 130.911636 197.859406 
z
" style="fill:#1a1a1a;"/>
   </g>
   <g id="patch_56">
    <path clip-path="url(#p991205e5e3)" d="M 132.932 200.06 
L 134.952364 200.06 
L 134.952364 197.844218 
L 132.932 197.844218 
z
" style="fill:#1a1a1a;"/>
   </g>
   <g id="patch_57">
    <path clip-path="url(#p991205e5e3)" d="M 134.952364 200.06 
L 136.972727 200.06 
L 136.972727 197.820436 
L 134.952364 197.820436 
z
" style="fill:#1a1a1a;"/>
   </g>
   <g id="patch_58">
    <path clip-path="url(#p991205e5e3)" d="M 136.972727 200.06 
L 138.993091 200.06 
L 138.993091 197.541269 
L 136.972727 197.541269 
z
" style="fill:#1a1a1a;"/>
   </g>
   <g id="patch_59">
    <path clip-path="url(#p991205e5e3)" d="M 138.993091 200.06 
L 141.013455 200.06 
L 141.013455 197.047861 
L 138.993091 197.047861 
z
" style="fill:#1a1a1a;"/>
   </g>
   <g id="patch_60">
    <path clip-path="url(#p991205e5e3)" d="M 141.013455 200.06 
L 143.033818 200.06 
L 143.033818 196.894276 
L 141.013455 196.894276 
z
" style="fill:#1a1a1a;"/>
   </g>
   <g id="patch_61">
    <path clip-path="url(#p991205e5e3)" d="M 143.033818 200.06 
L 145.054182 200.06 
L 145.054182 196.452067 
L 143.033818 196.452067 
z
" style="fill:#1a1a1a;"/>
   </g>
   <g id="patch_62">
    <path clip-path="url(#p991205e5e3)" d="M 145.054182 200.06 
L 147.074545 200.06 
L 147.074545 195.923936 
L 145.054182 195.923936 
z
" style="fill:#1a1a1a;"/>
   </g>
   <g id="patch_63">
    <path clip-path="url(#p991205e5e3)" d="M 147.074545 200.06 
L 149.094909 200.06 
L 149.094909 195.807782 
L 147.074545 195.807782 
z
" style="fill:#1a1a1a;"/>
   </g>
   <g id="patch_64">
    <path clip-path="url(#p991205e5e3)" d="M 149.094909 200.06 
L 151.115273 200.06 
L 151.115273 195.21151 
L 149.094909 195.21151 
z
" style="fill:#1a1a1a;"/>
   </g>
   <g id="patch_65">
    <path clip-path="url(#p991205e5e3)" d="M 151.115273 200.06 
L 153.135636 200.06 
L 153.135636 194.446968 
L 151.115273 194.446968 
z
" style="fill:#1a1a1a;"/>
   </g>
   <g id="patch_66">
    <path clip-path="url(#p991205e5e3)" d="M 153.135636 200.06 
L 155.156 200.06 
L 155.156 191.034807 
L 153.135636 191.034807 
z
" style="fill:#1a1a1a;"/>
   </g>
   <g id="patch_67">
    <path clip-path="url(#p991205e5e3)" d="M 155.156 200.06 
L 157.176364 200.06 
L 157.176364 190.295181 
L 155.156 190.295181 
z
" style="fill:#1a1a1a;"/>
   </g>
   <g id="patch_68">
    <path clip-path="url(#p991205e5e3)" d="M 157.176364 200.06 
L 159.196727 200.06 
L 159.196727 187.555535 
L 157.176364 187.555535 
z
" style="fill:#1a1a1a;"/>
   </g>
   <g id="patch_69">
    <path clip-path="url(#p991205e5e3)" d="M 159.196727 200.06 
L 161.217091 200.06 
L 161.217091 187.000051 
L 159.196727 187.000051 
z
" style="fill:#1a1a1a;"/>
   </g>
   <g id="patch_70">
    <path clip-path="url(#p991205e5e3)" d="M 161.217091 200.06 
L 163.237455 200.06 
L 163.237455 186.23114 
L 161.217091 186.23114 
z
" style="fill:#1a1a1a;"/>
   </g>
   <g id="patch_71">
    <path clip-path="url(#p991205e5e3)" d="M 163.237455 200.06 
L 165.257818 200.06 
L 165.257818 181.15158 
L 163.237455 181.15158 
z
" style="fill:#1a1a1a;"/>
   </g>
   <g id="patch_72">
    <path clip-path="url(#p991205e5e3)" d="M 165.257818 200.06 
L 167.278182 200.06 
L 167.278182 170.577868 
L 165.257818 170.577868 
z
" style="fill:#1a1a1a;"/>
   </g>
   <g id="patch_73">
    <path clip-path="url(#p991205e5e3)" d="M 167.278182 200.06 
L 169.298545 200.06 
L 169.298545 163.385514 
L 167.278182 163.385514 
z
" style="fill:#1a1a1a;"/>
   </g>
   <g id="patch_74">
    <path clip-path="url(#p991205e5e3)" d="M 169.298545 200.06 
L 171.318909 200.06 
L 171.318909 159.061958 
L 169.298545 159.061958 
z
" style="fill:#1a1a1a;"/>
   </g>
   <g id="patch_75">
    <path clip-path="url(#p991205e5e3)" d="M 171.318909 200.06 
L 173.339273 200.06 
L 173.339273 129.019804 
L 171.318909 129.019804 
z
" style="fill:#1a1a1a;"/>
   </g>
   <g id="patch_76">
    <path clip-path="url(#p991205e5e3)" d="M 173.339273 200.06 
L 175.359636 200.06 
L 175.359636 101.424186 
L 173.339273 101.424186 
z
" style="fill:#1a1a1a;"/>
   </g>
   <g id="patch_77">
    <path clip-path="url(#p991205e5e3)" d="M 175.359636 200.06 
L 177.38 200.06 
L 177.38 98.136938 
L 175.359636 98.136938 
z
" style="fill:#1a1a1a;"/>
   </g>
   <g id="patch_78">
    <path clip-path="url(#p991205e5e3)" d="M 177.38 200.06 
L 179.400364 200.06 
L 179.400364 96.580206 
L 177.38 96.580206 
z
" style="fill:#1a1a1a;"/>
   </g>
   <g id="patch_79">
    <path clip-path="url(#p991205e5e3)" d="M 179.400364 200.06 
L 181.420727 200.06 
L 181.420727 101.358184 
L 179.400364 101.358184 
z
" style="fill:#1a1a1a;"/>
   </g>
   <g id="patch_80">
    <path clip-path="url(#p991205e5e3)" d="M 181.420727 200.06 
L 183.441091 200.06 
L 183.441091 119.202249 
L 181.420727 119.202249 
z
" style="fill:#1a1a1a;"/>
   </g>
   <g id="patch_81">
    <path clip-path="url(#p991205e5e3)" d="M 183.441091 200.06 
L 185.461455 200.06 
L 185.461455 155.217524 
L 183.441091 155.217524 
z
" style="fill:#1a1a1a;"/>
   </g>
   <g id="patch_82">
    <path clip-path="url(#p991205e5e3)" d="M 185.461455 200.06 
L 187.481818 200.06 
L 187.481818 163.077648 
L 185.461455 163.077648 
z
" style="fill:#1a1a1a;"/>
   </g>
   <g id="patch_83">
    <path clip-path="url(#p991205e5e3)" d="M 187.481818 200.06 
L 189.502182 200.06 
L 189.502182 169.45426 
L 187.481818 169.45426 
z
" style="fill:#1a1a1a;"/>
   </g>
   <g id="patch_84">
    <path clip-path="url(#p991205e5e3)" d="M 189.502182 200.06 
L 191.522545 200.06 
L 191.522545 174.275199 
L 189.502182 174.275199 
z
" style="fill:#1a1a1a;"/>
   </g>
   <g id="patch_85">
    <path clip-path="url(#p991205e5e3)" d="M 191.522545 200.06 
L 193.542909 200.06 
L 193.542909 181.59113 
L 191.522545 181.59113 
z
" style="fill:#1a1a1a;"/>
   </g>
   <g id="patch_86">
    <path clip-path="url(#p991205e5e3)" d="M 193.542909 200.06 
L 195.563273 200.06 
L 195.563273 186.309184 
L 193.542909 186.309184 
z
" style="fill:#1a1a1a;"/>
   </g>
   <g id="patch_87">
    <path clip-path="url(#p991205e5e3)" d="M 195.563273 200.06 
L 197.583636 200.06 
L 197.583636 187.315896 
L 195.563273 187.315896 
z
" style="fill:#1a1a1a;"/>
   </g>
   <g id="patch_88">
    <path clip-path="url(#p991205e5e3)" d="M 197.583636 200.06 
L 199.604 200.06 
L 199.604 188.02004 
L 197.583636 188.02004 
z
" style="fill:#1a1a1a;"/>
   </g>
   <g id="patch_89">
    <path clip-path="url(#p991205e5e3)" d="M 199.604 200.06 
L 201.624364 200.06 
L 201.624364 190.618231 
L 199.604 190.618231 
z
" style="fill:#1a1a1a;"/>
   </g>
   <g id="patch_90">
    <path clip-path="url(#p991205e5e3)" d="M 201.624364 200.06 
L 203.644727 200.06 
L 203.644727 192.134308 
L 201.624364 192.134308 
z
" style="fill:#1a1a1a;"/>
   </g>
   <g id="patch_91">
    <path clip-path="url(#p991205e5e3)" d="M 203.644727 200.06 
L 205.665091 200.06 
L 205.665091 194.727236 
L 203.644727 194.727236 
z
" style="fill:#1a1a1a;"/>
   </g>
   <g id="patch_92">
    <path clip-path="url(#p991205e5e3)" d="M 205.665091 200.06 
L 207.685455 200.06 
L 207.685455 195.669541 
L 205.665091 195.669541 
z
" style="fill:#1a1a1a;"/>
   </g>
   <g id="patch_93">
    <path clip-path="url(#p991205e5e3)" d="M 207.685455 200.06 
L 209.705818 200.06 
L 209.705818 195.864387 
L 207.685455 195.864387 
z
" style="fill:#1a1a1a;"/>
   </g>
   <g id="patch_94">
    <path clip-path="url(#p991205e5e3)" d="M 209.705818 200.06 
L 211.726182 200.06 
L 211.726182 196.291863 
L 209.705818 196.291863 
z
" style="fill:#1a1a1a;"/>
   </g>
   <g id="patch_95">
    <path clip-path="url(#p991205e5e3)" d="M 211.726182 200.06 
L 213.746545 200.06 
L 213.746545 196.70979 
L 211.726182 196.70979 
z
" style="fill:#1a1a1a;"/>
   </g>
   <g id="patch_96">
    <path clip-path="url(#p991205e5e3)" d="M 213.746545 200.06 
L 215.766909 200.06 
L 215.766909 197.022463 
L 213.746545 197.022463 
z
" style="fill:#1a1a1a;"/>
   </g>
   <g id="patch_97">
    <path clip-path="url(#p991205e5e3)" d="M 215.766909 200.06 
L 217.787273 200.06 
L 217.787273 197.21688 
L 215.766909 197.21688 
z
" style="fill:#1a1a1a;"/>
   </g>
   <g id="patch_98">
    <path clip-path="url(#p991205e5e3)" d="M 217.787273 200.06 
L 219.807636 200.06 
L 219.807636 197.78122 
L 217.787273 197.78122 
z
" style="fill:#1a1a1a;"/>
   </g>
   <g id="patch_99">
    <path clip-path="url(#p991205e5e3)" d="M 219.807636 200.06 
L 221.828 200.06 
L 221.828 197.835363 
L 219.807636 197.835363 
z
" style="fill:#1a1a1a;"/>
   </g>
   <g id="patch_100">
    <path clip-path="url(#p991205e5e3)" d="M 221.828 200.06 
L 223.848364 200.06 
L 223.848364 197.854027 
L 221.828 197.854027 
z
" style="fill:#1a1a1a;"/>
   </g>
   <g id="patch_101">
    <path clip-path="url(#p991205e5e3)" d="M 223.848364 200.06 
L 225.868727 200.06 
L 225.868727 197.927076 
L 223.848364 197.927076 
z
" style="fill:#1a1a1a;"/>
   </g>
   <g id="patch_102">
    <path clip-path="url(#p991205e5e3)" d="M 225.868727 200.06 
L 227.889091 200.06 
L 227.889091 198.092988 
L 225.868727 198.092988 
z
" style="fill:#1a1a1a;"/>
   </g>
   <g id="patch_103">
    <path clip-path="url(#p991205e5e3)" d="M 227.889091 200.06 
L 229.909455 200.06 
L 229.909455 198.103274 
L 227.889091 198.103274 
z
" style="fill:#1a1a1a;"/>
   </g>
   <g id="patch_104">
    <path clip-path="url(#p991205e5e3)" d="M 229.909455 200.06 
L 231.929818 200.06 
L 231.929818 198.146037 
L 229.909455 198.146037 
z
" style="fill:#1a1a1a;"/>
   </g>
   <g id="patch_105">
    <path clip-path="url(#p991205e5e3)" d="M 231.929818 200.06 
L 233.950182 200.06 
L 233.950182 198.207537 
L 231.929818 198.207537 
z
" style="fill:#1a1a1a;"/>
   </g>
   <g id="patch_106">
    <path clip-path="url(#p991205e5e3)" d="M 233.950182 200.06 
L 235.970545 200.06 
L 235.970545 198.289419 
L 233.950182 198.289419 
z
" style="fill:#1a1a1a;"/>
   </g>
   <g id="patch_107">
    <path clip-path="url(#p991205e5e3)" d="M 235.970545 200.06 
L 237.990909 200.06 
L 237.990909 198.320646 
L 235.970545 198.320646 
z
" style="fill:#1a1a1a;"/>
   </g>
   <g id="patch_108">
    <path clip-path="url(#p991205e5e3)" d="M 237.990909 200.06 
L 240.011273 200.06 
L 240.011273 198.421705 
L 237.990909 198.421705 
z
" style="fill:#1a1a1a;"/>
   </g>
   <g id="patch_109">
    <path clip-path="url(#p991205e5e3)" d="M 240.011273 200.06 
L 242.031636 200.06 
L 242.031636 198.728296 
L 240.011273 198.728296 
z
" style="fill:#1a1a1a;"/>
   </g>
   <g id="patch_110">
    <path clip-path="url(#p991205e5e3)" d="M 242.031636 200.06 
L 244.052 200.06 
L 244.052 198.912325 
L 242.031636 198.912325 
z
" style="fill:#1a1a1a;"/>
   </g>
   <g id="patch_111">
    <path clip-path="url(#p991205e5e3)" d="M 244.052 200.06 
L 246.072364 200.06 
L 246.072364 198.95153 
L 244.052 198.95153 
z
" style="fill:#1a1a1a;"/>
   </g>
   <g id="patch_112">
    <path clip-path="url(#p991205e5e3)" d="M 246.072364 200.06 
L 248.092727 200.06 
L 248.092727 199.006781 
L 246.072364 199.006781 
z
" style="fill:#1a1a1a;"/>
   </g>
   <g id="patch_113">
    <path clip-path="url(#p991205e5e3)" d="M 248.092727 200.06 
L 250.113091 200.06 
L 250.113091 199.035733 
L 248.092727 199.035733 
z
" style="fill:#1a1a1a;"/>
   </g>
   <g id="patch_114">
    <path clip-path="url(#p991205e5e3)" d="M 250.113091 200.06 
L 252.133455 200.06 
L 252.133455 199.072864 
L 250.113091 199.072864 
z
" style="fill:#1a1a1a;"/>
   </g>
   <g id="patch_115">
    <path clip-path="url(#p991205e5e3)" d="M 252.133455 200.06 
L 254.153818 200.06 
L 254.153818 199.101997 
L 252.133455 199.101997 
z
" style="fill:#1a1a1a;"/>
   </g>
   <g id="patch_116">
    <path clip-path="url(#p991205e5e3)" d="M 254.153818 200.06 
L 256.174182 200.06 
L 256.174182 199.160351 
L 254.153818 199.160351 
z
" style="fill:#1a1a1a;"/>
   </g>
   <g id="patch_117">
    <path clip-path="url(#p991205e5e3)" d="M 256.174182 200.06 
L 258.194545 200.06 
L 258.194545 199.241148 
L 256.174182 199.241148 
z
" style="fill:#1a1a1a;"/>
   </g>
   <g id="patch_118">
    <path clip-path="url(#p991205e5e3)" d="M 258.194545 200.06 
L 260.214909 200.06 
L 260.214909 199.270815 
L 258.194545 199.270815 
z
" style="fill:#1a1a1a;"/>
   </g>
   <g id="patch_119">
    <path clip-path="url(#p991205e5e3)" d="M 260.214909 200.06 
L 262.235273 200.06 
L 262.235273 199.322176 
L 260.214909 199.322176 
z
" style="fill:#1a1a1a;"/>
   </g>
   <g id="patch_120">
    <path clip-path="url(#p991205e5e3)" d="M 262.235273 200.06 
L 264.255636 200.06 
L 264.255636 199.460475 
L 262.235273 199.460475 
z
" style="fill:#1a1a1a;"/>
   </g>
   <g id="patch_121">
    <path clip-path="url(#p991205e5e3)" d="M 264.255636 200.06 
L 266.276 200.06 
L 266.276 199.473112 
L 264.255636 199.473112 
z
" style="fill:#1a1a1a;"/>
   </g>
   <g id="patch_122">
    <path clip-path="url(#p991205e5e3)" d="M 266.276 200.06 
L 268.296364 200.06 
L 268.296364 199.511971 
L 266.276 199.511971 
z
" style="fill:#1a1a1a;"/>
   </g>
   <g id="patch_123">
    <path clip-path="url(#p991205e5e3)" d="M 268.296364 200.06 
L 270.316727 200.06 
L 270.316727 199.529444 
L 268.296364 199.529444 
z
" style="fill:#1a1a1a;"/>
   </g>
   <g id="patch_124">
    <path clip-path="url(#p991205e5e3)" d="M 270.316727 200.06 
L 272.337091 200.06 
L 272.337091 199.555931 
L 270.316727 199.555931 
z
" style="fill:#1a1a1a;"/>
   </g>
   <g id="patch_125">
    <path clip-path="url(#p991205e5e3)" d="M 272.337091 200.06 
L 274.357455 200.06 
L 274.357455 199.576332 
L 272.337091 199.576332 
z
" style="fill:#1a1a1a;"/>
   </g>
   <g id="patch_126">
    <path clip-path="url(#p991205e5e3)" d="M 274.357455 200.06 
L 276.377818 200.06 
L 276.377818 199.581305 
L 274.357455 199.581305 
z
" style="fill:#1a1a1a;"/>
   </g>
   <g id="patch_127">
    <path clip-path="url(#p991205e5e3)" d="M 276.377818 200.06 
L 278.398182 200.06 
L 278.398182 199.616564 
L 276.377818 199.616564 
z
" style="fill:#1a1a1a;"/>
   </g>
   <g id="patch_128">
    <path clip-path="url(#p991205e5e3)" d="M 278.398182 200.06 
L 280.418545 200.06 
L 280.418545 199.633356 
L 278.398182 199.633356 
z
" style="fill:#1a1a1a;"/>
   </g>
   <g id="patch_129">
    <path clip-path="url(#p991205e5e3)" d="M 280.418545 200.06 
L 282.438909 200.06 
L 282.438909 199.641287 
L 280.418545 199.641287 
z
" style="fill:#1a1a1a;"/>
   </g>
   <g id="patch_130">
    <path clip-path="url(#p991205e5e3)" d="M 282.438909 200.06 
L 284.459273 200.06 
L 284.459273 199.654286 
L 282.438909 199.654286 
z
" style="fill:#1a1a1a;"/>
   </g>
   <g id="patch_131">
    <path clip-path="url(#p991205e5e3)" d="M 284.459273 200.06 
L 286.479636 200.06 
L 286.479636 199.683517 
L 284.459273 199.683517 
z
" style="fill:#1a1a1a;"/>
   </g>
   <g id="patch_132">
    <path clip-path="url(#p991205e5e3)" d="M 286.479636 200.06 
L 288.5 200.06 
L 288.5 199.702521 
L 286.479636 199.702521 
z
" style="fill:#1a1a1a;"/>
   </g>
   <g id="patch_133">
    <path clip-path="url(#p991205e5e3)" d="M 288.5 200.06 
L 290.520364 200.06 
L 290.520364 199.716019 
L 288.5 199.716019 
z
" style="fill:#1a1a1a;"/>
   </g>
   <g id="patch_134">
    <path clip-path="url(#p991205e5e3)" d="M 290.520364 200.06 
L 292.540727 200.06 
L 292.540727 199.729538 
L 290.520364 199.729538 
z
" style="fill:#1a1a1a;"/>
   </g>
   <g id="patch_135">
    <path clip-path="url(#p991205e5e3)" d="M 292.540727 200.06 
L 294.561091 200.06 
L 294.561091 199.739064 
L 292.540727 199.739064 
z
" style="fill:#1a1a1a;"/>
   </g>
   <g id="patch_136">
    <path clip-path="url(#p991205e5e3)" d="M 294.561091 200.06 
L 296.581455 200.06 
L 296.581455 199.740413 
L 294.561091 199.740413 
z
" style="fill:#1a1a1a;"/>
   </g>
   <g id="patch_137">
    <path clip-path="url(#p991205e5e3)" d="M 296.581455 200.06 
L 298.601818 200.06 
L 298.601818 199.763995 
L 296.581455 199.763995 
z
" style="fill:#1a1a1a;"/>
   </g>
   <g id="patch_138">
    <path clip-path="url(#p991205e5e3)" d="M 298.601818 200.06 
L 300.622182 200.06 
L 300.622182 199.786662 
L 298.601818 199.786662 
z
" style="fill:#1a1a1a;"/>
   </g>
   <g id="patch_139">
    <path clip-path="url(#p991205e5e3)" d="M 300.622182 200.06 
L 302.642545 200.06 
L 302.642545 199.790399 
L 300.622182 199.790399 
z
" style="fill:#1a1a1a;"/>
   </g>
   <g id="patch_140">
    <path clip-path="url(#p991205e5e3)" d="M 302.642545 200.06 
L 304.662909 200.06 
L 304.662909 199.806432 
L 302.642545 199.806432 
z
" style="fill:#1a1a1a;"/>
   </g>
   <g id="patch_141">
    <path clip-path="url(#p991205e5e3)" d="M 304.662909 200.06 
L 306.683273 200.06 
L 306.683273 199.826359 
L 304.662909 199.826359 
z
" style="fill:#1a1a1a;"/>
   </g>
   <g id="patch_142">
    <path clip-path="url(#p991205e5e3)" d="M 306.683273 200.06 
L 308.703636 200.06 
L 308.703636 199.834017 
L 306.683273 199.834017 
z
" style="fill:#1a1a1a;"/>
   </g>
   <g id="patch_143">
    <path clip-path="url(#p991205e5e3)" d="M 308.703636 200.06 
L 310.724 200.06 
L 310.724 199.838738 
L 308.703636 199.838738 
z
" style="fill:#1a1a1a;"/>
   </g>
   <g id="patch_144">
    <path clip-path="url(#p991205e5e3)" d="M 310.724 200.06 
L 312.744364 200.06 
L 312.744364 199.854832 
L 310.724 199.854832 
z
" style="fill:#1a1a1a;"/>
   </g>
   <g id="patch_145">
    <path clip-path="url(#p991205e5e3)" d="M 312.744364 200.06 
L 314.764727 200.06 
L 314.764727 199.85766 
L 312.744364 199.85766 
z
" style="fill:#1a1a1a;"/>
   </g>
   <g id="patch_146">
    <path clip-path="url(#p991205e5e3)" d="M 314.764727 200.06 
L 316.785091 200.06 
L 316.785091 199.865258 
L 314.764727 199.865258 
z
" style="fill:#1a1a1a;"/>
   </g>
   <g id="patch_147">
    <path clip-path="url(#p991205e5e3)" d="M 316.785091 200.06 
L 318.805455 200.06 
L 318.805455 199.872619 
L 316.785091 199.872619 
z
" style="fill:#1a1a1a;"/>
   </g>
   <g id="patch_148">
    <path clip-path="url(#p991205e5e3)" d="M 318.805455 200.06 
L 320.825818 200.06 
L 320.825818 199.87994 
L 318.805455 199.87994 
z
" style="fill:#1a1a1a;"/>
   </g>
   <g id="patch_149">
    <path clip-path="url(#p991205e5e3)" d="M 320.825818 200.06 
L 322.846182 200.06 
L 322.846182 199.880829 
L 320.825818 199.880829 
z
" style="fill:#1a1a1a;"/>
   </g>
   <g id="patch_150">
    <path clip-path="url(#p991205e5e3)" d="M 322.846182 200.06 
L 324.866545 200.06 
L 324.866545 199.891066 
L 322.846182 199.891066 
z
" style="fill:#1a1a1a;"/>
   </g>
   <g id="patch_151">
    <path clip-path="url(#p991205e5e3)" d="M 324.866545 200.06 
L 326.886909 200.06 
L 326.886909 199.897147 
L 324.866545 199.897147 
z
" style="fill:#1a1a1a;"/>
   </g>
   <g id="patch_152">
    <path clip-path="url(#p991205e5e3)" d="M 326.886909 200.06 
L 328.907273 200.06 
L 328.907273 199.904163 
L 326.886909 199.904163 
z
" style="fill:#1a1a1a;"/>
   </g>
   <g id="matplotlib.axis_1"/>
   <g id="matplotlib.axis_2"/>
   <g id="patch_153">
    <path d="M 10.7 200.06 
L 10.7 10.7 
" style="fill:none;stroke:#000000;stroke-linecap:square;stroke-linejoin:miter;stroke-width:0.8;"/>
   </g>
   <g id="patch_154">
    <path d="M 344.06 200.06 
L 344.06 10.7 
" style="fill:none;stroke:#000000;stroke-linecap:square;stroke-linejoin:miter;stroke-width:0.8;"/>
   </g>
   <g id="patch_155">
    <path d="M 10.7 200.06 
L 344.06 200.06 
" style="fill:none;stroke:#000000;stroke-linecap:square;stroke-linejoin:miter;stroke-width:0.8;"/>
   </g>
   <g id="patch_156">
    <path d="M 10.7 10.7 
L 344.06 10.7 
" style="fill:none;stroke:#000000;stroke-linecap:square;stroke-linejoin:miter;stroke-width:0.8;"/>
   </g>
  </g>
 </g>
 <defs>
  <clipPath id="p991205e5e3">
   <rect height="189.36" width="333.36" x="10.7" y="10.7"/>
  </clipPath>
 </defs>
</svg>
