<?xml version="1.0" encoding="utf-8" standalone="no"?>
<!DOCTYPE svg PUBLIC "-//W3C//DTD SVG 1.1//EN"
  "http://www.w3.org/Graphics/SVG/1.1/DTD/svg11.dtd">
<!-- Created with matplotlib (http://matplotlib.org/) -->
<svg height="210pt" version="1.1" viewBox="0 0 354 210" width="354pt" xmlns="http://www.w3.org/2000/svg" xmlns:xlink="http://www.w3.org/1999/xlink">
 <defs>
  <style type="text/css">
*{stroke-linecap:butt;stroke-linejoin:round;}
  </style>
 </defs>
 <g id="figure_1">
  <g id="patch_1">
   <path d="M 0 210.76 
L 354.76 210.76 
L 354.76 0 
L 0 0 
z
" style="fill:#ffffff;"/>
  </g>
  <g id="axes_1">
   <g id="patch_2">
    <path d="M 10.7 200.06 
L 344.06 200.06 
L 344.06 10.7 
L 10.7 10.7 
z
" style="fill:#ffffff;"/>
   </g>
   <g id="patch_3">
    <path clip-path="url(#p607f91ccc3)" d="M 25.852727 200.06 
L 27.873091 200.06 
L 27.873091 199.986926 
L 25.852727 199.986926 
z
" style="fill:#1a1a1a;"/>
   </g>
   <g id="patch_4">
    <path clip-path="url(#p607f91ccc3)" d="M 27.873091 200.06 
L 29.893455 200.06 
L 29.893455 199.981094 
L 27.873091 199.981094 
z
" style="fill:#1a1a1a;"/>
   </g>
   <g id="patch_5">
    <path clip-path="url(#p607f91ccc3)" d="M 29.893455 200.06 
L 31.913818 200.06 
L 31.913818 199.97959 
L 29.893455 199.97959 
z
" style="fill:#1a1a1a;"/>
   </g>
   <g id="patch_6">
    <path clip-path="url(#p607f91ccc3)" d="M 31.913818 200.06 
L 33.934182 200.06 
L 33.934182 199.976242 
L 31.913818 199.976242 
z
" style="fill:#1a1a1a;"/>
   </g>
   <g id="patch_7">
    <path clip-path="url(#p607f91ccc3)" d="M 33.934182 200.06 
L 35.954545 200.06 
L 35.954545 199.967043 
L 33.934182 199.967043 
z
" style="fill:#1a1a1a;"/>
   </g>
   <g id="patch_8">
    <path clip-path="url(#p607f91ccc3)" d="M 35.954545 200.06 
L 37.974909 200.06 
L 37.974909 199.965813 
L 35.954545 199.965813 
z
" style="fill:#1a1a1a;"/>
   </g>
   <g id="patch_9">
    <path clip-path="url(#p607f91ccc3)" d="M 37.974909 200.06 
L 39.995273 200.06 
L 39.995273 199.956569 
L 37.974909 199.956569 
z
" style="fill:#1a1a1a;"/>
   </g>
   <g id="patch_10">
    <path clip-path="url(#p607f91ccc3)" d="M 39.995273 200.06 
L 42.015636 200.06 
L 42.015636 199.952241 
L 39.995273 199.952241 
z
" style="fill:#1a1a1a;"/>
   </g>
   <g id="patch_11">
    <path clip-path="url(#p607f91ccc3)" d="M 42.015636 200.06 
L 44.036 200.06 
L 44.036 199.948392 
L 42.015636 199.948392 
z
" style="fill:#1a1a1a;"/>
   </g>
   <g id="patch_12">
    <path clip-path="url(#p607f91ccc3)" d="M 44.036 200.06 
L 46.056364 200.06 
L 46.056364 199.941474 
L 44.036 199.941474 
z
" style="fill:#1a1a1a;"/>
   </g>
   <g id="patch_13">
    <path clip-path="url(#p607f91ccc3)" d="M 46.056364 200.06 
L 48.076727 200.06 
L 48.076727 199.938849 
L 46.056364 199.938849 
z
" style="fill:#1a1a1a;"/>
   </g>
   <g id="patch_14">
    <path clip-path="url(#p607f91ccc3)" d="M 48.076727 200.06 
L 50.097091 200.06 
L 50.097091 199.922187 
L 48.076727 199.922187 
z
" style="fill:#1a1a1a;"/>
   </g>
   <g id="patch_15">
    <path clip-path="url(#p607f91ccc3)" d="M 50.097091 200.06 
L 52.117455 200.06 
L 52.117455 199.910434 
L 50.097091 199.910434 
z
" style="fill:#1a1a1a;"/>
   </g>
   <g id="patch_16">
    <path clip-path="url(#p607f91ccc3)" d="M 52.117455 200.06 
L 54.137818 200.06 
L 54.137818 199.902788 
L 52.117455 199.902788 
z
" style="fill:#1a1a1a;"/>
   </g>
   <g id="patch_17">
    <path clip-path="url(#p607f91ccc3)" d="M 54.137818 200.06 
L 56.158182 200.06 
L 56.158182 199.894331 
L 54.137818 199.894331 
z
" style="fill:#1a1a1a;"/>
   </g>
   <g id="patch_18">
    <path clip-path="url(#p607f91ccc3)" d="M 56.158182 200.06 
L 58.178545 200.06 
L 58.178545 199.880349 
L 56.158182 199.880349 
z
" style="fill:#1a1a1a;"/>
   </g>
   <g id="patch_19">
    <path clip-path="url(#p607f91ccc3)" d="M 58.178545 200.06 
L 60.198909 200.06 
L 60.198909 199.861952 
L 58.178545 199.861952 
z
" style="fill:#1a1a1a;"/>
   </g>
   <g id="patch_20">
    <path clip-path="url(#p607f91ccc3)" d="M 60.198909 200.06 
L 62.219273 200.06 
L 62.219273 199.857204 
L 60.198909 199.857204 
z
" style="fill:#1a1a1a;"/>
   </g>
   <g id="patch_21">
    <path clip-path="url(#p607f91ccc3)" d="M 62.219273 200.06 
L 64.239636 200.06 
L 64.239636 199.850885 
L 62.219273 199.850885 
z
" style="fill:#1a1a1a;"/>
   </g>
   <g id="patch_22">
    <path clip-path="url(#p607f91ccc3)" d="M 64.239636 200.06 
L 66.26 200.06 
L 66.26 199.839493 
L 64.239636 199.839493 
z
" style="fill:#1a1a1a;"/>
   </g>
   <g id="patch_23">
    <path clip-path="url(#p607f91ccc3)" d="M 66.26 200.06 
L 68.280364 200.06 
L 68.280364 199.820101 
L 66.26 199.820101 
z
" style="fill:#1a1a1a;"/>
   </g>
   <g id="patch_24">
    <path clip-path="url(#p607f91ccc3)" d="M 68.280364 200.06 
L 70.300727 200.06 
L 70.300727 199.797703 
L 68.280364 199.797703 
z
" style="fill:#1a1a1a;"/>
   </g>
   <g id="patch_25">
    <path clip-path="url(#p607f91ccc3)" d="M 70.300727 200.06 
L 72.321091 200.06 
L 72.321091 199.787959 
L 70.300727 199.787959 
z
" style="fill:#1a1a1a;"/>
   </g>
   <g id="patch_26">
    <path clip-path="url(#p607f91ccc3)" d="M 72.321091 200.06 
L 74.341455 200.06 
L 74.341455 199.773886 
L 72.321091 199.773886 
z
" style="fill:#1a1a1a;"/>
   </g>
   <g id="patch_27">
    <path clip-path="url(#p607f91ccc3)" d="M 74.341455 200.06 
L 76.361818 200.06 
L 76.361818 199.716765 
L 74.341455 199.716765 
z
" style="fill:#1a1a1a;"/>
   </g>
   <g id="patch_28">
    <path clip-path="url(#p607f91ccc3)" d="M 76.361818 200.06 
L 78.382182 200.06 
L 78.382182 199.680592 
L 76.361818 199.680592 
z
" style="fill:#1a1a1a;"/>
   </g>
   <g id="patch_29">
    <path clip-path="url(#p607f91ccc3)" d="M 78.382182 200.06 
L 80.402545 200.06 
L 80.402545 199.664087 
L 78.382182 199.664087 
z
" style="fill:#1a1a1a;"/>
   </g>
   <g id="patch_30">
    <path clip-path="url(#p607f91ccc3)" d="M 80.402545 200.06 
L 82.422909 200.06 
L 82.422909 199.605221 
L 80.402545 199.605221 
z
" style="fill:#1a1a1a;"/>
   </g>
   <g id="patch_31">
    <path clip-path="url(#p607f91ccc3)" d="M 82.422909 200.06 
L 84.443273 200.06 
L 84.443273 199.577101 
L 82.422909 199.577101 
z
" style="fill:#1a1a1a;"/>
   </g>
   <g id="patch_32">
    <path clip-path="url(#p607f91ccc3)" d="M 84.443273 200.06 
L 86.463636 200.06 
L 86.463636 199.557531 
L 84.443273 199.557531 
z
" style="fill:#1a1a1a;"/>
   </g>
   <g id="patch_33">
    <path clip-path="url(#p607f91ccc3)" d="M 86.463636 200.06 
L 88.484 200.06 
L 88.484 199.544138 
L 86.463636 199.544138 
z
" style="fill:#1a1a1a;"/>
   </g>
   <g id="patch_34">
    <path clip-path="url(#p607f91ccc3)" d="M 88.484 200.06 
L 90.504364 200.06 
L 90.504364 199.515644 
L 88.484 199.515644 
z
" style="fill:#1a1a1a;"/>
   </g>
   <g id="patch_35">
    <path clip-path="url(#p607f91ccc3)" d="M 90.504364 200.06 
L 92.524727 200.06 
L 92.524727 199.509933 
L 90.504364 199.509933 
z
" style="fill:#1a1a1a;"/>
   </g>
   <g id="patch_36">
    <path clip-path="url(#p607f91ccc3)" d="M 92.524727 200.06 
L 94.545091 200.06 
L 94.545091 199.478096 
L 92.524727 199.478096 
z
" style="fill:#1a1a1a;"/>
   </g>
   <g id="patch_37">
    <path clip-path="url(#p607f91ccc3)" d="M 94.545091 200.06 
L 96.565455 200.06 
L 96.565455 199.442027 
L 94.545091 199.442027 
z
" style="fill:#1a1a1a;"/>
   </g>
   <g id="patch_38">
    <path clip-path="url(#p607f91ccc3)" d="M 96.565455 200.06 
L 98.585818 200.06 
L 98.585818 199.434585 
L 96.565455 199.434585 
z
" style="fill:#1a1a1a;"/>
   </g>
   <g id="patch_39">
    <path clip-path="url(#p607f91ccc3)" d="M 98.585818 200.06 
L 100.606182 200.06 
L 100.606182 199.417694 
L 98.585818 199.417694 
z
" style="fill:#1a1a1a;"/>
   </g>
   <g id="patch_40">
    <path clip-path="url(#p607f91ccc3)" d="M 100.606182 200.06 
L 102.626545 200.06 
L 102.626545 199.397373 
L 100.606182 199.397373 
z
" style="fill:#1a1a1a;"/>
   </g>
   <g id="patch_41">
    <path clip-path="url(#p607f91ccc3)" d="M 102.626545 200.06 
L 104.646909 200.06 
L 104.646909 199.394689 
L 102.626545 199.394689 
z
" style="fill:#1a1a1a;"/>
   </g>
   <g id="patch_42">
    <path clip-path="url(#p607f91ccc3)" d="M 104.646909 200.06 
L 106.667273 200.06 
L 106.667273 199.330292 
L 104.646909 199.330292 
z
" style="fill:#1a1a1a;"/>
   </g>
   <g id="patch_43">
    <path clip-path="url(#p607f91ccc3)" d="M 106.667273 200.06 
L 108.687636 200.06 
L 108.687636 199.311767 
L 106.667273 199.311767 
z
" style="fill:#1a1a1a;"/>
   </g>
   <g id="patch_44">
    <path clip-path="url(#p607f91ccc3)" d="M 108.687636 200.06 
L 110.708 200.06 
L 110.708 199.216485 
L 108.687636 199.216485 
z
" style="fill:#1a1a1a;"/>
   </g>
   <g id="patch_45">
    <path clip-path="url(#p607f91ccc3)" d="M 110.708 200.06 
L 112.728364 200.06 
L 112.728364 199.120531 
L 110.708 199.120531 
z
" style="fill:#1a1a1a;"/>
   </g>
   <g id="patch_46">
    <path clip-path="url(#p607f91ccc3)" d="M 112.728364 200.06 
L 114.748727 200.06 
L 114.748727 199.032733 
L 112.728364 199.032733 
z
" style="fill:#1a1a1a;"/>
   </g>
   <g id="patch_47">
    <path clip-path="url(#p607f91ccc3)" d="M 114.748727 200.06 
L 116.769091 200.06 
L 116.769091 199.006667 
L 114.748727 199.006667 
z
" style="fill:#1a1a1a;"/>
   </g>
   <g id="patch_48">
    <path clip-path="url(#p607f91ccc3)" d="M 116.769091 200.06 
L 118.789455 200.06 
L 118.789455 198.827613 
L 116.769091 198.827613 
z
" style="fill:#1a1a1a;"/>
   </g>
   <g id="patch_49">
    <path clip-path="url(#p607f91ccc3)" d="M 118.789455 200.06 
L 120.809818 200.06 
L 120.809818 198.60757 
L 118.789455 198.60757 
z
" style="fill:#1a1a1a;"/>
   </g>
   <g id="patch_50">
    <path clip-path="url(#p607f91ccc3)" d="M 120.809818 200.06 
L 122.830182 200.06 
L 122.830182 198.540726 
L 120.809818 198.540726 
z
" style="fill:#1a1a1a;"/>
   </g>
   <g id="patch_51">
    <path clip-path="url(#p607f91ccc3)" d="M 122.830182 200.06 
L 124.850545 200.06 
L 124.850545 198.373099 
L 122.830182 198.373099 
z
" style="fill:#1a1a1a;"/>
   </g>
   <g id="patch_52">
    <path clip-path="url(#p607f91ccc3)" d="M 124.850545 200.06 
L 126.870909 200.06 
L 126.870909 198.180331 
L 124.850545 198.180331 
z
" style="fill:#1a1a1a;"/>
   </g>
   <g id="patch_53">
    <path clip-path="url(#p607f91ccc3)" d="M 126.870909 200.06 
L 128.891273 200.06 
L 128.891273 198.00483 
L 126.870909 198.00483 
z
" style="fill:#1a1a1a;"/>
   </g>
   <g id="patch_54">
    <path clip-path="url(#p607f91ccc3)" d="M 128.891273 200.06 
L 130.911636 200.06 
L 130.911636 197.942831 
L 128.891273 197.942831 
z
" style="fill:#1a1a1a;"/>
   </g>
   <g id="patch_55">
    <path clip-path="url(#p607f91ccc3)" d="M 130.911636 200.06 
L 132.932 200.06 
L 132.932 197.819795 
L 130.911636 197.819795 
z
" style="fill:#1a1a1a;"/>
   </g>
   <g id="patch_56">
    <path clip-path="url(#p607f91ccc3)" d="M 132.932 200.06 
L 134.952364 200.06 
L 134.952364 197.323079 
L 132.932 197.323079 
z
" style="fill:#1a1a1a;"/>
   </g>
   <g id="patch_57">
    <path clip-path="url(#p607f91ccc3)" d="M 134.952364 200.06 
L 136.972727 200.06 
L 136.972727 197.07026 
L 134.952364 197.07026 
z
" style="fill:#1a1a1a;"/>
   </g>
   <g id="patch_58">
    <path clip-path="url(#p607f91ccc3)" d="M 136.972727 200.06 
L 138.993091 200.06 
L 138.993091 196.693392 
L 136.972727 196.693392 
z
" style="fill:#1a1a1a;"/>
   </g>
   <g id="patch_59">
    <path clip-path="url(#p607f91ccc3)" d="M 138.993091 200.06 
L 141.013455 200.06 
L 141.013455 196.63336 
L 138.993091 196.63336 
z
" style="fill:#1a1a1a;"/>
   </g>
   <g id="patch_60">
    <path clip-path="url(#p607f91ccc3)" d="M 141.013455 200.06 
L 143.033818 200.06 
L 143.033818 195.634238 
L 141.013455 195.634238 
z
" style="fill:#1a1a1a;"/>
   </g>
   <g id="patch_61">
    <path clip-path="url(#p607f91ccc3)" d="M 143.033818 200.06 
L 145.054182 200.06 
L 145.054182 194.701696 
L 143.033818 194.701696 
z
" style="fill:#1a1a1a;"/>
   </g>
   <g id="patch_62">
    <path clip-path="url(#p607f91ccc3)" d="M 145.054182 200.06 
L 147.074545 200.06 
L 147.074545 194.459328 
L 145.054182 194.459328 
z
" style="fill:#1a1a1a;"/>
   </g>
   <g id="patch_63">
    <path clip-path="url(#p607f91ccc3)" d="M 147.074545 200.06 
L 149.094909 200.06 
L 149.094909 194.003469 
L 147.074545 194.003469 
z
" style="fill:#1a1a1a;"/>
   </g>
   <g id="patch_64">
    <path clip-path="url(#p607f91ccc3)" d="M 149.094909 200.06 
L 151.115273 200.06 
L 151.115273 192.78545 
L 149.094909 192.78545 
z
" style="fill:#1a1a1a;"/>
   </g>
   <g id="patch_65">
    <path clip-path="url(#p607f91ccc3)" d="M 151.115273 200.06 
L 153.135636 200.06 
L 153.135636 189.805815 
L 151.115273 189.805815 
z
" style="fill:#1a1a1a;"/>
   </g>
   <g id="patch_66">
    <path clip-path="url(#p607f91ccc3)" d="M 153.135636 200.06 
L 155.156 200.06 
L 155.156 188.809948 
L 153.135636 188.809948 
z
" style="fill:#1a1a1a;"/>
   </g>
   <g id="patch_67">
    <path clip-path="url(#p607f91ccc3)" d="M 155.156 200.06 
L 157.176364 200.06 
L 157.176364 187.131831 
L 155.156 187.131831 
z
" style="fill:#1a1a1a;"/>
   </g>
   <g id="patch_68">
    <path clip-path="url(#p607f91ccc3)" d="M 157.176364 200.06 
L 159.196727 200.06 
L 159.196727 185.797277 
L 157.176364 185.797277 
z
" style="fill:#1a1a1a;"/>
   </g>
   <g id="patch_69">
    <path clip-path="url(#p607f91ccc3)" d="M 159.196727 200.06 
L 161.217091 200.06 
L 161.217091 181.654916 
L 159.196727 181.654916 
z
" style="fill:#1a1a1a;"/>
   </g>
   <g id="patch_70">
    <path clip-path="url(#p607f91ccc3)" d="M 161.217091 200.06 
L 163.237455 200.06 
L 163.237455 173.635548 
L 161.217091 173.635548 
z
" style="fill:#1a1a1a;"/>
   </g>
   <g id="patch_71">
    <path clip-path="url(#p607f91ccc3)" d="M 163.237455 200.06 
L 165.257818 200.06 
L 165.257818 144.54718 
L 163.237455 144.54718 
z
" style="fill:#1a1a1a;"/>
   </g>
   <g id="patch_72">
    <path clip-path="url(#p607f91ccc3)" d="M 165.257818 200.06 
L 167.278182 200.06 
L 167.278182 137.230994 
L 165.257818 137.230994 
z
" style="fill:#1a1a1a;"/>
   </g>
   <g id="patch_73">
    <path clip-path="url(#p607f91ccc3)" d="M 167.278182 200.06 
L 169.298545 200.06 
L 169.298545 134.533906 
L 167.278182 134.533906 
z
" style="fill:#1a1a1a;"/>
   </g>
   <g id="patch_74">
    <path clip-path="url(#p607f91ccc3)" d="M 169.298545 200.06 
L 171.318909 200.06 
L 171.318909 134.088976 
L 169.298545 134.088976 
z
" style="fill:#1a1a1a;"/>
   </g>
   <g id="patch_75">
    <path clip-path="url(#p607f91ccc3)" d="M 171.318909 200.06 
L 173.339273 200.06 
L 173.339273 108.668471 
L 171.318909 108.668471 
z
" style="fill:#1a1a1a;"/>
   </g>
   <g id="patch_76">
    <path clip-path="url(#p607f91ccc3)" d="M 173.339273 200.06 
L 175.359636 200.06 
L 175.359636 107.530768 
L 173.339273 107.530768 
z
" style="fill:#1a1a1a;"/>
   </g>
   <g id="patch_77">
    <path clip-path="url(#p607f91ccc3)" d="M 175.359636 200.06 
L 177.38 200.06 
L 177.38 107.321723 
L 175.359636 107.321723 
z
" style="fill:#1a1a1a;"/>
   </g>
   <g id="patch_78">
    <path clip-path="url(#p607f91ccc3)" d="M 177.38 200.06 
L 179.400364 200.06 
L 179.400364 106.675787 
L 177.38 106.675787 
z
" style="fill:#1a1a1a;"/>
   </g>
   <g id="patch_79">
    <path clip-path="url(#p607f91ccc3)" d="M 179.400364 200.06 
L 181.420727 200.06 
L 181.420727 107.458874 
L 179.400364 107.458874 
z
" style="fill:#1a1a1a;"/>
   </g>
   <g id="patch_80">
    <path clip-path="url(#p607f91ccc3)" d="M 181.420727 200.06 
L 183.441091 200.06 
L 183.441091 108.037367 
L 181.420727 108.037367 
z
" style="fill:#1a1a1a;"/>
   </g>
   <g id="patch_81">
    <path clip-path="url(#p607f91ccc3)" d="M 183.441091 200.06 
L 185.461455 200.06 
L 185.461455 125.01061 
L 183.441091 125.01061 
z
" style="fill:#1a1a1a;"/>
   </g>
   <g id="patch_82">
    <path clip-path="url(#p607f91ccc3)" d="M 185.461455 200.06 
L 187.481818 200.06 
L 187.481818 134.377947 
L 185.461455 134.377947 
z
" style="fill:#1a1a1a;"/>
   </g>
   <g id="patch_83">
    <path clip-path="url(#p607f91ccc3)" d="M 187.481818 200.06 
L 189.502182 200.06 
L 189.502182 135.828508 
L 187.481818 135.828508 
z
" style="fill:#1a1a1a;"/>
   </g>
   <g id="patch_84">
    <path clip-path="url(#p607f91ccc3)" d="M 189.502182 200.06 
L 191.522545 200.06 
L 191.522545 138.737628 
L 189.502182 138.737628 
z
" style="fill:#1a1a1a;"/>
   </g>
   <g id="patch_85">
    <path clip-path="url(#p607f91ccc3)" d="M 191.522545 200.06 
L 193.542909 200.06 
L 193.542909 171.784506 
L 191.522545 171.784506 
z
" style="fill:#1a1a1a;"/>
   </g>
   <g id="patch_86">
    <path clip-path="url(#p607f91ccc3)" d="M 193.542909 200.06 
L 195.563273 200.06 
L 195.563273 175.143017 
L 193.542909 175.143017 
z
" style="fill:#1a1a1a;"/>
   </g>
   <g id="patch_87">
    <path clip-path="url(#p607f91ccc3)" d="M 195.563273 200.06 
L 197.583636 200.06 
L 197.583636 185.382886 
L 195.563273 185.382886 
z
" style="fill:#1a1a1a;"/>
   </g>
   <g id="patch_88">
    <path clip-path="url(#p607f91ccc3)" d="M 197.583636 200.06 
L 199.604 200.06 
L 199.604 186.739837 
L 197.583636 186.739837 
z
" style="fill:#1a1a1a;"/>
   </g>
   <g id="patch_89">
    <path clip-path="url(#p607f91ccc3)" d="M 199.604 200.06 
L 201.624364 200.06 
L 201.624364 188.537723 
L 199.604 188.537723 
z
" style="fill:#1a1a1a;"/>
   </g>
   <g id="patch_90">
    <path clip-path="url(#p607f91ccc3)" d="M 201.624364 200.06 
L 203.644727 200.06 
L 203.644727 189.221946 
L 201.624364 189.221946 
z
" style="fill:#1a1a1a;"/>
   </g>
   <g id="patch_91">
    <path clip-path="url(#p607f91ccc3)" d="M 203.644727 200.06 
L 205.665091 200.06 
L 205.665091 190.585811 
L 203.644727 190.585811 
z
" style="fill:#1a1a1a;"/>
   </g>
   <g id="patch_92">
    <path clip-path="url(#p607f91ccc3)" d="M 205.665091 200.06 
L 207.685455 200.06 
L 207.685455 193.18899 
L 205.665091 193.18899 
z
" style="fill:#1a1a1a;"/>
   </g>
   <g id="patch_93">
    <path clip-path="url(#p607f91ccc3)" d="M 207.685455 200.06 
L 209.705818 200.06 
L 209.705818 194.005928 
L 207.685455 194.005928 
z
" style="fill:#1a1a1a;"/>
   </g>
   <g id="patch_94">
    <path clip-path="url(#p607f91ccc3)" d="M 209.705818 200.06 
L 211.726182 200.06 
L 211.726182 194.617879 
L 209.705818 194.617879 
z
" style="fill:#1a1a1a;"/>
   </g>
   <g id="patch_95">
    <path clip-path="url(#p607f91ccc3)" d="M 211.726182 200.06 
L 213.746545 200.06 
L 213.746545 194.96335 
L 211.726182 194.96335 
z
" style="fill:#1a1a1a;"/>
   </g>
   <g id="patch_96">
    <path clip-path="url(#p607f91ccc3)" d="M 213.746545 200.06 
L 215.766909 200.06 
L 215.766909 195.6399 
L 213.746545 195.6399 
z
" style="fill:#1a1a1a;"/>
   </g>
   <g id="patch_97">
    <path clip-path="url(#p607f91ccc3)" d="M 215.766909 200.06 
L 217.787273 200.06 
L 217.787273 196.692795 
L 215.766909 196.692795 
z
" style="fill:#1a1a1a;"/>
   </g>
   <g id="patch_98">
    <path clip-path="url(#p607f91ccc3)" d="M 217.787273 200.06 
L 219.807636 200.06 
L 219.807636 196.836214 
L 217.787273 196.836214 
z
" style="fill:#1a1a1a;"/>
   </g>
   <g id="patch_99">
    <path clip-path="url(#p607f91ccc3)" d="M 219.807636 200.06 
L 221.828 200.06 
L 221.828 197.309135 
L 219.807636 197.309135 
z
" style="fill:#1a1a1a;"/>
   </g>
   <g id="patch_100">
    <path clip-path="url(#p607f91ccc3)" d="M 221.828 200.06 
L 223.848364 200.06 
L 223.848364 197.352269 
L 221.828 197.352269 
z
" style="fill:#1a1a1a;"/>
   </g>
   <g id="patch_101">
    <path clip-path="url(#p607f91ccc3)" d="M 223.848364 200.06 
L 225.868727 200.06 
L 225.868727 197.922376 
L 223.848364 197.922376 
z
" style="fill:#1a1a1a;"/>
   </g>
   <g id="patch_102">
    <path clip-path="url(#p607f91ccc3)" d="M 225.868727 200.06 
L 227.889091 200.06 
L 227.889091 197.976023 
L 225.868727 197.976023 
z
" style="fill:#1a1a1a;"/>
   </g>
   <g id="patch_103">
    <path clip-path="url(#p607f91ccc3)" d="M 227.889091 200.06 
L 229.909455 200.06 
L 229.909455 198.115823 
L 227.889091 198.115823 
z
" style="fill:#1a1a1a;"/>
   </g>
   <g id="patch_104">
    <path clip-path="url(#p607f91ccc3)" d="M 229.909455 200.06 
L 231.929818 200.06 
L 231.929818 198.263494 
L 229.909455 198.263494 
z
" style="fill:#1a1a1a;"/>
   </g>
   <g id="patch_105">
    <path clip-path="url(#p607f91ccc3)" d="M 231.929818 200.06 
L 233.950182 200.06 
L 233.950182 198.474781 
L 231.929818 198.474781 
z
" style="fill:#1a1a1a;"/>
   </g>
   <g id="patch_106">
    <path clip-path="url(#p607f91ccc3)" d="M 233.950182 200.06 
L 235.970545 200.06 
L 235.970545 198.575189 
L 233.950182 198.575189 
z
" style="fill:#1a1a1a;"/>
   </g>
   <g id="patch_107">
    <path clip-path="url(#p607f91ccc3)" d="M 235.970545 200.06 
L 237.990909 200.06 
L 237.990909 198.757079 
L 235.970545 198.757079 
z
" style="fill:#1a1a1a;"/>
   </g>
   <g id="patch_108">
    <path clip-path="url(#p607f91ccc3)" d="M 237.990909 200.06 
L 240.011273 200.06 
L 240.011273 198.870713 
L 237.990909 198.870713 
z
" style="fill:#1a1a1a;"/>
   </g>
   <g id="patch_109">
    <path clip-path="url(#p607f91ccc3)" d="M 240.011273 200.06 
L 242.031636 200.06 
L 242.031636 199.008865 
L 240.011273 199.008865 
z
" style="fill:#1a1a1a;"/>
   </g>
   <g id="patch_110">
    <path clip-path="url(#p607f91ccc3)" d="M 242.031636 200.06 
L 244.052 200.06 
L 244.052 199.053633 
L 242.031636 199.053633 
z
" style="fill:#1a1a1a;"/>
   </g>
   <g id="patch_111">
    <path clip-path="url(#p607f91ccc3)" d="M 244.052 200.06 
L 246.072364 200.06 
L 246.072364 199.189228 
L 244.052 199.189228 
z
" style="fill:#1a1a1a;"/>
   </g>
   <g id="patch_112">
    <path clip-path="url(#p607f91ccc3)" d="M 246.072364 200.06 
L 248.092727 200.06 
L 248.092727 199.230719 
L 246.072364 199.230719 
z
" style="fill:#1a1a1a;"/>
   </g>
   <g id="patch_113">
    <path clip-path="url(#p607f91ccc3)" d="M 248.092727 200.06 
L 250.113091 200.06 
L 250.113091 199.324713 
L 248.092727 199.324713 
z
" style="fill:#1a1a1a;"/>
   </g>
   <g id="patch_114">
    <path clip-path="url(#p607f91ccc3)" d="M 250.113091 200.06 
L 252.133455 200.06 
L 252.133455 199.352502 
L 250.113091 199.352502 
z
" style="fill:#1a1a1a;"/>
   </g>
   <g id="patch_115">
    <path clip-path="url(#p607f91ccc3)" d="M 252.133455 200.06 
L 254.153818 200.06 
L 254.153818 199.39735 
L 252.133455 199.39735 
z
" style="fill:#1a1a1a;"/>
   </g>
   <g id="patch_116">
    <path clip-path="url(#p607f91ccc3)" d="M 254.153818 200.06 
L 256.174182 200.06 
L 256.174182 199.410065 
L 254.153818 199.410065 
z
" style="fill:#1a1a1a;"/>
   </g>
   <g id="patch_117">
    <path clip-path="url(#p607f91ccc3)" d="M 256.174182 200.06 
L 258.194545 200.06 
L 258.194545 199.428311 
L 256.174182 199.428311 
z
" style="fill:#1a1a1a;"/>
   </g>
   <g id="patch_118">
    <path clip-path="url(#p607f91ccc3)" d="M 258.194545 200.06 
L 260.214909 200.06 
L 260.214909 199.439888 
L 258.194545 199.439888 
z
" style="fill:#1a1a1a;"/>
   </g>
   <g id="patch_119">
    <path clip-path="url(#p607f91ccc3)" d="M 260.214909 200.06 
L 262.235273 200.06 
L 262.235273 199.457494 
L 260.214909 199.457494 
z
" style="fill:#1a1a1a;"/>
   </g>
   <g id="patch_120">
    <path clip-path="url(#p607f91ccc3)" d="M 262.235273 200.06 
L 264.255636 200.06 
L 264.255636 199.494903 
L 262.235273 199.494903 
z
" style="fill:#1a1a1a;"/>
   </g>
   <g id="patch_121">
    <path clip-path="url(#p607f91ccc3)" d="M 264.255636 200.06 
L 266.276 200.06 
L 266.276 199.511086 
L 264.255636 199.511086 
z
" style="fill:#1a1a1a;"/>
   </g>
   <g id="patch_122">
    <path clip-path="url(#p607f91ccc3)" d="M 266.276 200.06 
L 268.296364 200.06 
L 268.296364 199.531409 
L 266.276 199.531409 
z
" style="fill:#1a1a1a;"/>
   </g>
   <g id="patch_123">
    <path clip-path="url(#p607f91ccc3)" d="M 268.296364 200.06 
L 270.316727 200.06 
L 270.316727 199.552462 
L 268.296364 199.552462 
z
" style="fill:#1a1a1a;"/>
   </g>
   <g id="patch_124">
    <path clip-path="url(#p607f91ccc3)" d="M 270.316727 200.06 
L 272.337091 200.06 
L 272.337091 199.573055 
L 270.316727 199.573055 
z
" style="fill:#1a1a1a;"/>
   </g>
   <g id="patch_125">
    <path clip-path="url(#p607f91ccc3)" d="M 272.337091 200.06 
L 274.357455 200.06 
L 274.357455 199.600361 
L 272.337091 199.600361 
z
" style="fill:#1a1a1a;"/>
   </g>
   <g id="patch_126">
    <path clip-path="url(#p607f91ccc3)" d="M 274.357455 200.06 
L 276.377818 200.06 
L 276.377818 199.651021 
L 274.357455 199.651021 
z
" style="fill:#1a1a1a;"/>
   </g>
   <g id="patch_127">
    <path clip-path="url(#p607f91ccc3)" d="M 276.377818 200.06 
L 278.398182 200.06 
L 278.398182 199.66714 
L 276.377818 199.66714 
z
" style="fill:#1a1a1a;"/>
   </g>
   <g id="patch_128">
    <path clip-path="url(#p607f91ccc3)" d="M 278.398182 200.06 
L 280.418545 200.06 
L 280.418545 199.682971 
L 278.398182 199.682971 
z
" style="fill:#1a1a1a;"/>
   </g>
   <g id="patch_129">
    <path clip-path="url(#p607f91ccc3)" d="M 280.418545 200.06 
L 282.438909 200.06 
L 282.438909 199.771171 
L 280.418545 199.771171 
z
" style="fill:#1a1a1a;"/>
   </g>
   <g id="patch_130">
    <path clip-path="url(#p607f91ccc3)" d="M 282.438909 200.06 
L 284.459273 200.06 
L 284.459273 199.785936 
L 282.438909 199.785936 
z
" style="fill:#1a1a1a;"/>
   </g>
   <g id="patch_131">
    <path clip-path="url(#p607f91ccc3)" d="M 284.459273 200.06 
L 286.479636 200.06 
L 286.479636 199.794154 
L 284.459273 199.794154 
z
" style="fill:#1a1a1a;"/>
   </g>
   <g id="patch_132">
    <path clip-path="url(#p607f91ccc3)" d="M 286.479636 200.06 
L 288.5 200.06 
L 288.5 199.800686 
L 286.479636 199.800686 
z
" style="fill:#1a1a1a;"/>
   </g>
   <g id="patch_133">
    <path clip-path="url(#p607f91ccc3)" d="M 288.5 200.06 
L 290.520364 200.06 
L 290.520364 199.821627 
L 288.5 199.821627 
z
" style="fill:#1a1a1a;"/>
   </g>
   <g id="patch_134">
    <path clip-path="url(#p607f91ccc3)" d="M 290.520364 200.06 
L 292.540727 200.06 
L 292.540727 199.849878 
L 290.520364 199.849878 
z
" style="fill:#1a1a1a;"/>
   </g>
   <g id="patch_135">
    <path clip-path="url(#p607f91ccc3)" d="M 292.540727 200.06 
L 294.561091 200.06 
L 294.561091 199.854561 
L 292.540727 199.854561 
z
" style="fill:#1a1a1a;"/>
   </g>
   <g id="patch_136">
    <path clip-path="url(#p607f91ccc3)" d="M 294.561091 200.06 
L 296.581455 200.06 
L 296.581455 199.859829 
L 294.561091 199.859829 
z
" style="fill:#1a1a1a;"/>
   </g>
   <g id="patch_137">
    <path clip-path="url(#p607f91ccc3)" d="M 296.581455 200.06 
L 298.601818 200.06 
L 298.601818 199.878767 
L 296.581455 199.878767 
z
" style="fill:#1a1a1a;"/>
   </g>
   <g id="patch_138">
    <path clip-path="url(#p607f91ccc3)" d="M 298.601818 200.06 
L 300.622182 200.06 
L 300.622182 199.880472 
L 298.601818 199.880472 
z
" style="fill:#1a1a1a;"/>
   </g>
   <g id="patch_139">
    <path clip-path="url(#p607f91ccc3)" d="M 300.622182 200.06 
L 302.642545 200.06 
L 302.642545 199.896104 
L 300.622182 199.896104 
z
" style="fill:#1a1a1a;"/>
   </g>
   <g id="patch_140">
    <path clip-path="url(#p607f91ccc3)" d="M 302.642545 200.06 
L 304.662909 200.06 
L 304.662909 199.905549 
L 302.642545 199.905549 
z
" style="fill:#1a1a1a;"/>
   </g>
   <g id="patch_141">
    <path clip-path="url(#p607f91ccc3)" d="M 304.662909 200.06 
L 306.683273 200.06 
L 306.683273 199.92133 
L 304.662909 199.92133 
z
" style="fill:#1a1a1a;"/>
   </g>
   <g id="patch_142">
    <path clip-path="url(#p607f91ccc3)" d="M 306.683273 200.06 
L 308.703636 200.06 
L 308.703636 199.931395 
L 306.683273 199.931395 
z
" style="fill:#1a1a1a;"/>
   </g>
   <g id="patch_143">
    <path clip-path="url(#p607f91ccc3)" d="M 308.703636 200.06 
L 310.724 200.06 
L 310.724 199.939878 
L 308.703636 199.939878 
z
" style="fill:#1a1a1a;"/>
   </g>
   <g id="patch_144">
    <path clip-path="url(#p607f91ccc3)" d="M 310.724 200.06 
L 312.744364 200.06 
L 312.744364 199.9465 
L 310.724 199.9465 
z
" style="fill:#1a1a1a;"/>
   </g>
   <g id="patch_145">
    <path clip-path="url(#p607f91ccc3)" d="M 312.744364 200.06 
L 314.764727 200.06 
L 314.764727 199.948474 
L 312.744364 199.948474 
z
" style="fill:#1a1a1a;"/>
   </g>
   <g id="patch_146">
    <path clip-path="url(#p607f91ccc3)" d="M 314.764727 200.06 
L 316.785091 200.06 
L 316.785091 199.95308 
L 314.764727 199.95308 
z
" style="fill:#1a1a1a;"/>
   </g>
   <g id="patch_147">
    <path clip-path="url(#p607f91ccc3)" d="M 316.785091 200.06 
L 318.805455 200.06 
L 318.805455 199.961341 
L 316.785091 199.961341 
z
" style="fill:#1a1a1a;"/>
   </g>
   <g id="patch_148">
    <path clip-path="url(#p607f91ccc3)" d="M 318.805455 200.06 
L 320.825818 200.06 
L 320.825818 199.966398 
L 318.805455 199.966398 
z
" style="fill:#1a1a1a;"/>
   </g>
   <g id="patch_149">
    <path clip-path="url(#p607f91ccc3)" d="M 320.825818 200.06 
L 322.846182 200.06 
L 322.846182 199.974136 
L 320.825818 199.974136 
z
" style="fill:#1a1a1a;"/>
   </g>
   <g id="patch_150">
    <path clip-path="url(#p607f91ccc3)" d="M 322.846182 200.06 
L 324.866545 200.06 
L 324.866545 199.977663 
L 322.846182 199.977663 
z
" style="fill:#1a1a1a;"/>
   </g>
   <g id="patch_151">
    <path clip-path="url(#p607f91ccc3)" d="M 324.866545 200.06 
L 326.886909 200.06 
L 326.886909 199.979599 
L 324.866545 199.979599 
z
" style="fill:#1a1a1a;"/>
   </g>
   <g id="patch_152">
    <path clip-path="url(#p607f91ccc3)" d="M 326.886909 200.06 
L 328.907273 200.06 
L 328.907273 199.984105 
L 326.886909 199.984105 
z
" style="fill:#1a1a1a;"/>
   </g>
   <g id="matplotlib.axis_1"/>
   <g id="matplotlib.axis_2"/>
   <g id="patch_153">
    <path d="M 10.7 200.06 
L 10.7 10.7 
" style="fill:none;stroke:#000000;stroke-linecap:square;stroke-linejoin:miter;stroke-width:0.8;"/>
   </g>
   <g id="patch_154">
    <path d="M 344.06 200.06 
L 344.06 10.7 
" style="fill:none;stroke:#000000;stroke-linecap:square;stroke-linejoin:miter;stroke-width:0.8;"/>
   </g>
   <g id="patch_155">
    <path d="M 10.7 200.06 
L 344.06 200.06 
" style="fill:none;stroke:#000000;stroke-linecap:square;stroke-linejoin:miter;stroke-width:0.8;"/>
   </g>
   <g id="patch_156">
    <path d="M 10.7 10.7 
L 344.06 10.7 
" style="fill:none;stroke:#000000;stroke-linecap:square;stroke-linejoin:miter;stroke-width:0.8;"/>
   </g>
  </g>
 </g>
 <defs>
  <clipPath id="p607f91ccc3">
   <rect height="189.36" width="333.36" x="10.7" y="10.7"/>
  </clipPath>
 </defs>
</svg>
