<?xml version="1.0" encoding="utf-8" standalone="no"?>
<!DOCTYPE svg PUBLIC "-//W3C//DTD SVG 1.1//EN"
  "http://www.w3.org/Graphics/SVG/1.1/DTD/svg11.dtd">
<!-- Created with matplotlib (http://matplotlib.org/) -->
<svg height="210pt" version="1.1" viewBox="0 0 354 210" width="354pt" xmlns="http://www.w3.org/2000/svg" xmlns:xlink="http://www.w3.org/1999/xlink">
 <defs>
  <style type="text/css">
*{stroke-linecap:butt;stroke-linejoin:round;}
  </style>
 </defs>
 <g id="figure_1">
  <g id="patch_1">
   <path d="M 0 210.76 
L 354.76 210.76 
L 354.76 0 
L 0 0 
z
" style="fill:#ffffff;"/>
  </g>
  <g id="axes_1">
   <g id="patch_2">
    <path d="M 10.7 200.06 
L 344.06 200.06 
L 344.06 10.7 
L 10.7 10.7 
z
" style="fill:#ffffff;"/>
   </g>
   <g id="patch_3">
    <path clip-path="url(#p22be6d4544)" d="M 25.852727 200.06 
L 27.873091 200.06 
L 27.873091 200.008006 
L 25.852727 200.008006 
z
" style="fill:#1a1a1a;"/>
   </g>
   <g id="patch_4">
    <path clip-path="url(#p22be6d4544)" d="M 27.873091 200.06 
L 29.893455 200.06 
L 29.893455 200.004159 
L 27.873091 200.004159 
z
" style="fill:#1a1a1a;"/>
   </g>
   <g id="patch_5">
    <path clip-path="url(#p22be6d4544)" d="M 29.893455 200.06 
L 31.913818 200.06 
L 31.913818 199.998283 
L 29.893455 199.998283 
z
" style="fill:#1a1a1a;"/>
   </g>
   <g id="patch_6">
    <path clip-path="url(#p22be6d4544)" d="M 31.913818 200.06 
L 33.934182 200.06 
L 33.934182 199.996069 
L 31.913818 199.996069 
z
" style="fill:#1a1a1a;"/>
   </g>
   <g id="patch_7">
    <path clip-path="url(#p22be6d4544)" d="M 33.934182 200.06 
L 35.954545 200.06 
L 35.954545 199.992401 
L 33.934182 199.992401 
z
" style="fill:#1a1a1a;"/>
   </g>
   <g id="patch_8">
    <path clip-path="url(#p22be6d4544)" d="M 35.954545 200.06 
L 37.974909 200.06 
L 37.974909 199.985067 
L 35.954545 199.985067 
z
" style="fill:#1a1a1a;"/>
   </g>
   <g id="patch_9">
    <path clip-path="url(#p22be6d4544)" d="M 37.974909 200.06 
L 39.995273 200.06 
L 39.995273 199.981448 
L 37.974909 199.981448 
z
" style="fill:#1a1a1a;"/>
   </g>
   <g id="patch_10">
    <path clip-path="url(#p22be6d4544)" d="M 39.995273 200.06 
L 42.015636 200.06 
L 42.015636 199.978178 
L 39.995273 199.978178 
z
" style="fill:#1a1a1a;"/>
   </g>
   <g id="patch_11">
    <path clip-path="url(#p22be6d4544)" d="M 42.015636 200.06 
L 44.036 200.06 
L 44.036 199.965074 
L 42.015636 199.965074 
z
" style="fill:#1a1a1a;"/>
   </g>
   <g id="patch_12">
    <path clip-path="url(#p22be6d4544)" d="M 44.036 200.06 
L 46.056364 200.06 
L 46.056364 199.952726 
L 44.036 199.952726 
z
" style="fill:#1a1a1a;"/>
   </g>
   <g id="patch_13">
    <path clip-path="url(#p22be6d4544)" d="M 46.056364 200.06 
L 48.076727 200.06 
L 48.076727 199.917837 
L 46.056364 199.917837 
z
" style="fill:#1a1a1a;"/>
   </g>
   <g id="patch_14">
    <path clip-path="url(#p22be6d4544)" d="M 48.076727 200.06 
L 50.097091 200.06 
L 50.097091 199.915719 
L 48.076727 199.915719 
z
" style="fill:#1a1a1a;"/>
   </g>
   <g id="patch_15">
    <path clip-path="url(#p22be6d4544)" d="M 50.097091 200.06 
L 52.117455 200.06 
L 52.117455 199.9106 
L 50.097091 199.9106 
z
" style="fill:#1a1a1a;"/>
   </g>
   <g id="patch_16">
    <path clip-path="url(#p22be6d4544)" d="M 52.117455 200.06 
L 54.137818 200.06 
L 54.137818 199.898274 
L 52.117455 199.898274 
z
" style="fill:#1a1a1a;"/>
   </g>
   <g id="patch_17">
    <path clip-path="url(#p22be6d4544)" d="M 54.137818 200.06 
L 56.158182 200.06 
L 56.158182 199.884331 
L 54.137818 199.884331 
z
" style="fill:#1a1a1a;"/>
   </g>
   <g id="patch_18">
    <path clip-path="url(#p22be6d4544)" d="M 56.158182 200.06 
L 58.178545 200.06 
L 58.178545 199.874687 
L 56.158182 199.874687 
z
" style="fill:#1a1a1a;"/>
   </g>
   <g id="patch_19">
    <path clip-path="url(#p22be6d4544)" d="M 58.178545 200.06 
L 60.198909 200.06 
L 60.198909 199.867645 
L 58.178545 199.867645 
z
" style="fill:#1a1a1a;"/>
   </g>
   <g id="patch_20">
    <path clip-path="url(#p22be6d4544)" d="M 60.198909 200.06 
L 62.219273 200.06 
L 62.219273 199.854163 
L 60.198909 199.854163 
z
" style="fill:#1a1a1a;"/>
   </g>
   <g id="patch_21">
    <path clip-path="url(#p22be6d4544)" d="M 62.219273 200.06 
L 64.239636 200.06 
L 64.239636 199.836703 
L 62.219273 199.836703 
z
" style="fill:#1a1a1a;"/>
   </g>
   <g id="patch_22">
    <path clip-path="url(#p22be6d4544)" d="M 64.239636 200.06 
L 66.26 200.06 
L 66.26 199.806453 
L 64.239636 199.806453 
z
" style="fill:#1a1a1a;"/>
   </g>
   <g id="patch_23">
    <path clip-path="url(#p22be6d4544)" d="M 66.26 200.06 
L 68.280364 200.06 
L 68.280364 199.782444 
L 66.26 199.782444 
z
" style="fill:#1a1a1a;"/>
   </g>
   <g id="patch_24">
    <path clip-path="url(#p22be6d4544)" d="M 68.280364 200.06 
L 70.300727 200.06 
L 70.300727 199.772005 
L 68.280364 199.772005 
z
" style="fill:#1a1a1a;"/>
   </g>
   <g id="patch_25">
    <path clip-path="url(#p22be6d4544)" d="M 70.300727 200.06 
L 72.321091 200.06 
L 72.321091 199.762437 
L 70.300727 199.762437 
z
" style="fill:#1a1a1a;"/>
   </g>
   <g id="patch_26">
    <path clip-path="url(#p22be6d4544)" d="M 72.321091 200.06 
L 74.341455 200.06 
L 74.341455 199.710256 
L 72.321091 199.710256 
z
" style="fill:#1a1a1a;"/>
   </g>
   <g id="patch_27">
    <path clip-path="url(#p22be6d4544)" d="M 74.341455 200.06 
L 76.361818 200.06 
L 76.361818 199.693643 
L 74.341455 199.693643 
z
" style="fill:#1a1a1a;"/>
   </g>
   <g id="patch_28">
    <path clip-path="url(#p22be6d4544)" d="M 76.361818 200.06 
L 78.382182 200.06 
L 78.382182 199.665446 
L 76.361818 199.665446 
z
" style="fill:#1a1a1a;"/>
   </g>
   <g id="patch_29">
    <path clip-path="url(#p22be6d4544)" d="M 78.382182 200.06 
L 80.402545 200.06 
L 80.402545 199.649807 
L 78.382182 199.649807 
z
" style="fill:#1a1a1a;"/>
   </g>
   <g id="patch_30">
    <path clip-path="url(#p22be6d4544)" d="M 80.402545 200.06 
L 82.422909 200.06 
L 82.422909 199.634467 
L 80.402545 199.634467 
z
" style="fill:#1a1a1a;"/>
   </g>
   <g id="patch_31">
    <path clip-path="url(#p22be6d4544)" d="M 82.422909 200.06 
L 84.443273 200.06 
L 84.443273 199.619733 
L 82.422909 199.619733 
z
" style="fill:#1a1a1a;"/>
   </g>
   <g id="patch_32">
    <path clip-path="url(#p22be6d4544)" d="M 84.443273 200.06 
L 86.463636 200.06 
L 86.463636 199.59268 
L 84.443273 199.59268 
z
" style="fill:#1a1a1a;"/>
   </g>
   <g id="patch_33">
    <path clip-path="url(#p22be6d4544)" d="M 86.463636 200.06 
L 88.484 200.06 
L 88.484 199.552492 
L 86.463636 199.552492 
z
" style="fill:#1a1a1a;"/>
   </g>
   <g id="patch_34">
    <path clip-path="url(#p22be6d4544)" d="M 88.484 200.06 
L 90.504364 200.06 
L 90.504364 199.539416 
L 88.484 199.539416 
z
" style="fill:#1a1a1a;"/>
   </g>
   <g id="patch_35">
    <path clip-path="url(#p22be6d4544)" d="M 90.504364 200.06 
L 92.524727 200.06 
L 92.524727 199.482695 
L 90.504364 199.482695 
z
" style="fill:#1a1a1a;"/>
   </g>
   <g id="patch_36">
    <path clip-path="url(#p22be6d4544)" d="M 92.524727 200.06 
L 94.545091 200.06 
L 94.545091 199.39044 
L 92.524727 199.39044 
z
" style="fill:#1a1a1a;"/>
   </g>
   <g id="patch_37">
    <path clip-path="url(#p22be6d4544)" d="M 94.545091 200.06 
L 96.565455 200.06 
L 96.565455 199.337609 
L 94.545091 199.337609 
z
" style="fill:#1a1a1a;"/>
   </g>
   <g id="patch_38">
    <path clip-path="url(#p22be6d4544)" d="M 96.565455 200.06 
L 98.585818 200.06 
L 98.585818 199.256364 
L 96.565455 199.256364 
z
" style="fill:#1a1a1a;"/>
   </g>
   <g id="patch_39">
    <path clip-path="url(#p22be6d4544)" d="M 98.585818 200.06 
L 100.606182 200.06 
L 100.606182 199.202919 
L 98.585818 199.202919 
z
" style="fill:#1a1a1a;"/>
   </g>
   <g id="patch_40">
    <path clip-path="url(#p22be6d4544)" d="M 100.606182 200.06 
L 102.626545 200.06 
L 102.626545 199.155082 
L 100.606182 199.155082 
z
" style="fill:#1a1a1a;"/>
   </g>
   <g id="patch_41">
    <path clip-path="url(#p22be6d4544)" d="M 102.626545 200.06 
L 104.646909 200.06 
L 104.646909 199.119758 
L 102.626545 199.119758 
z
" style="fill:#1a1a1a;"/>
   </g>
   <g id="patch_42">
    <path clip-path="url(#p22be6d4544)" d="M 104.646909 200.06 
L 106.667273 200.06 
L 106.667273 198.874056 
L 104.646909 198.874056 
z
" style="fill:#1a1a1a;"/>
   </g>
   <g id="patch_43">
    <path clip-path="url(#p22be6d4544)" d="M 106.667273 200.06 
L 108.687636 200.06 
L 108.687636 198.752166 
L 106.667273 198.752166 
z
" style="fill:#1a1a1a;"/>
   </g>
   <g id="patch_44">
    <path clip-path="url(#p22be6d4544)" d="M 108.687636 200.06 
L 110.708 200.06 
L 110.708 198.702551 
L 108.687636 198.702551 
z
" style="fill:#1a1a1a;"/>
   </g>
   <g id="patch_45">
    <path clip-path="url(#p22be6d4544)" d="M 110.708 200.06 
L 112.728364 200.06 
L 112.728364 198.675991 
L 110.708 198.675991 
z
" style="fill:#1a1a1a;"/>
   </g>
   <g id="patch_46">
    <path clip-path="url(#p22be6d4544)" d="M 112.728364 200.06 
L 114.748727 200.06 
L 114.748727 198.124332 
L 112.728364 198.124332 
z
" style="fill:#1a1a1a;"/>
   </g>
   <g id="patch_47">
    <path clip-path="url(#p22be6d4544)" d="M 114.748727 200.06 
L 116.769091 200.06 
L 116.769091 197.947161 
L 114.748727 197.947161 
z
" style="fill:#1a1a1a;"/>
   </g>
   <g id="patch_48">
    <path clip-path="url(#p22be6d4544)" d="M 116.769091 200.06 
L 118.789455 200.06 
L 118.789455 197.871408 
L 116.769091 197.871408 
z
" style="fill:#1a1a1a;"/>
   </g>
   <g id="patch_49">
    <path clip-path="url(#p22be6d4544)" d="M 118.789455 200.06 
L 120.809818 200.06 
L 120.809818 197.831163 
L 118.789455 197.831163 
z
" style="fill:#1a1a1a;"/>
   </g>
   <g id="patch_50">
    <path clip-path="url(#p22be6d4544)" d="M 120.809818 200.06 
L 122.830182 200.06 
L 122.830182 197.661469 
L 120.809818 197.661469 
z
" style="fill:#1a1a1a;"/>
   </g>
   <g id="patch_51">
    <path clip-path="url(#p22be6d4544)" d="M 122.830182 200.06 
L 124.850545 200.06 
L 124.850545 197.308229 
L 122.830182 197.308229 
z
" style="fill:#1a1a1a;"/>
   </g>
   <g id="patch_52">
    <path clip-path="url(#p22be6d4544)" d="M 124.850545 200.06 
L 126.870909 200.06 
L 126.870909 197.048103 
L 124.850545 197.048103 
z
" style="fill:#1a1a1a;"/>
   </g>
   <g id="patch_53">
    <path clip-path="url(#p22be6d4544)" d="M 126.870909 200.06 
L 128.891273 200.06 
L 128.891273 196.04399 
L 126.870909 196.04399 
z
" style="fill:#1a1a1a;"/>
   </g>
   <g id="patch_54">
    <path clip-path="url(#p22be6d4544)" d="M 128.891273 200.06 
L 130.911636 200.06 
L 130.911636 195.488386 
L 128.891273 195.488386 
z
" style="fill:#1a1a1a;"/>
   </g>
   <g id="patch_55">
    <path clip-path="url(#p22be6d4544)" d="M 130.911636 200.06 
L 132.932 200.06 
L 132.932 195.443261 
L 130.911636 195.443261 
z
" style="fill:#1a1a1a;"/>
   </g>
   <g id="patch_56">
    <path clip-path="url(#p22be6d4544)" d="M 132.932 200.06 
L 134.952364 200.06 
L 134.952364 194.869104 
L 132.932 194.869104 
z
" style="fill:#1a1a1a;"/>
   </g>
   <g id="patch_57">
    <path clip-path="url(#p22be6d4544)" d="M 134.952364 200.06 
L 136.972727 200.06 
L 136.972727 194.532171 
L 134.952364 194.532171 
z
" style="fill:#1a1a1a;"/>
   </g>
   <g id="patch_58">
    <path clip-path="url(#p22be6d4544)" d="M 136.972727 200.06 
L 138.993091 200.06 
L 138.993091 193.759397 
L 136.972727 193.759397 
z
" style="fill:#1a1a1a;"/>
   </g>
   <g id="patch_59">
    <path clip-path="url(#p22be6d4544)" d="M 138.993091 200.06 
L 141.013455 200.06 
L 141.013455 193.353011 
L 138.993091 193.353011 
z
" style="fill:#1a1a1a;"/>
   </g>
   <g id="patch_60">
    <path clip-path="url(#p22be6d4544)" d="M 141.013455 200.06 
L 143.033818 200.06 
L 143.033818 193.13198 
L 141.013455 193.13198 
z
" style="fill:#1a1a1a;"/>
   </g>
   <g id="patch_61">
    <path clip-path="url(#p22be6d4544)" d="M 143.033818 200.06 
L 145.054182 200.06 
L 145.054182 192.079326 
L 143.033818 192.079326 
z
" style="fill:#1a1a1a;"/>
   </g>
   <g id="patch_62">
    <path clip-path="url(#p22be6d4544)" d="M 145.054182 200.06 
L 147.074545 200.06 
L 147.074545 191.449654 
L 145.054182 191.449654 
z
" style="fill:#1a1a1a;"/>
   </g>
   <g id="patch_63">
    <path clip-path="url(#p22be6d4544)" d="M 147.074545 200.06 
L 149.094909 200.06 
L 149.094909 189.690119 
L 147.074545 189.690119 
z
" style="fill:#1a1a1a;"/>
   </g>
   <g id="patch_64">
    <path clip-path="url(#p22be6d4544)" d="M 149.094909 200.06 
L 151.115273 200.06 
L 151.115273 188.056445 
L 149.094909 188.056445 
z
" style="fill:#1a1a1a;"/>
   </g>
   <g id="patch_65">
    <path clip-path="url(#p22be6d4544)" d="M 151.115273 200.06 
L 153.135636 200.06 
L 153.135636 183.87326 
L 151.115273 183.87326 
z
" style="fill:#1a1a1a;"/>
   </g>
   <g id="patch_66">
    <path clip-path="url(#p22be6d4544)" d="M 153.135636 200.06 
L 155.156 200.06 
L 155.156 182.37199 
L 153.135636 182.37199 
z
" style="fill:#1a1a1a;"/>
   </g>
   <g id="patch_67">
    <path clip-path="url(#p22be6d4544)" d="M 155.156 200.06 
L 157.176364 200.06 
L 157.176364 180.63865 
L 155.156 180.63865 
z
" style="fill:#1a1a1a;"/>
   </g>
   <g id="patch_68">
    <path clip-path="url(#p22be6d4544)" d="M 157.176364 200.06 
L 159.196727 200.06 
L 159.196727 175.074267 
L 157.176364 175.074267 
z
" style="fill:#1a1a1a;"/>
   </g>
   <g id="patch_69">
    <path clip-path="url(#p22be6d4544)" d="M 159.196727 200.06 
L 161.217091 200.06 
L 161.217091 163.713538 
L 159.196727 163.713538 
z
" style="fill:#1a1a1a;"/>
   </g>
   <g id="patch_70">
    <path clip-path="url(#p22be6d4544)" d="M 161.217091 200.06 
L 163.237455 200.06 
L 163.237455 153.750317 
L 161.217091 153.750317 
z
" style="fill:#1a1a1a;"/>
   </g>
   <g id="patch_71">
    <path clip-path="url(#p22be6d4544)" d="M 163.237455 200.06 
L 165.257818 200.06 
L 165.257818 150.824574 
L 163.237455 150.824574 
z
" style="fill:#1a1a1a;"/>
   </g>
   <g id="patch_72">
    <path clip-path="url(#p22be6d4544)" d="M 165.257818 200.06 
L 167.278182 200.06 
L 167.278182 143.772468 
L 165.257818 143.772468 
z
" style="fill:#1a1a1a;"/>
   </g>
   <g id="patch_73">
    <path clip-path="url(#p22be6d4544)" d="M 167.278182 200.06 
L 169.298545 200.06 
L 169.298545 115.679056 
L 167.278182 115.679056 
z
" style="fill:#1a1a1a;"/>
   </g>
   <g id="patch_74">
    <path clip-path="url(#p22be6d4544)" d="M 169.298545 200.06 
L 171.318909 200.06 
L 171.318909 93.10626 
L 169.298545 93.10626 
z
" style="fill:#1a1a1a;"/>
   </g>
   <g id="patch_75">
    <path clip-path="url(#p22be6d4544)" d="M 171.318909 200.06 
L 173.339273 200.06 
L 173.339273 90.785541 
L 171.318909 90.785541 
z
" style="fill:#1a1a1a;"/>
   </g>
   <g id="patch_76">
    <path clip-path="url(#p22be6d4544)" d="M 173.339273 200.06 
L 175.359636 200.06 
L 175.359636 90.124236 
L 173.339273 90.124236 
z
" style="fill:#1a1a1a;"/>
   </g>
   <g id="patch_77">
    <path clip-path="url(#p22be6d4544)" d="M 175.359636 200.06 
L 177.38 200.06 
L 177.38 89.780435 
L 175.359636 89.780435 
z
" style="fill:#1a1a1a;"/>
   </g>
   <g id="patch_78">
    <path clip-path="url(#p22be6d4544)" d="M 177.38 200.06 
L 179.400364 200.06 
L 179.400364 89.779575 
L 177.38 89.779575 
z
" style="fill:#1a1a1a;"/>
   </g>
   <g id="patch_79">
    <path clip-path="url(#p22be6d4544)" d="M 179.400364 200.06 
L 181.420727 200.06 
L 181.420727 89.812151 
L 179.400364 89.812151 
z
" style="fill:#1a1a1a;"/>
   </g>
   <g id="patch_80">
    <path clip-path="url(#p22be6d4544)" d="M 181.420727 200.06 
L 183.441091 200.06 
L 183.441091 90.155822 
L 181.420727 90.155822 
z
" style="fill:#1a1a1a;"/>
   </g>
   <g id="patch_81">
    <path clip-path="url(#p22be6d4544)" d="M 183.441091 200.06 
L 185.461455 200.06 
L 185.461455 92.370336 
L 183.441091 92.370336 
z
" style="fill:#1a1a1a;"/>
   </g>
   <g id="patch_82">
    <path clip-path="url(#p22be6d4544)" d="M 185.461455 200.06 
L 187.481818 200.06 
L 187.481818 97.012793 
L 185.461455 97.012793 
z
" style="fill:#1a1a1a;"/>
   </g>
   <g id="patch_83">
    <path clip-path="url(#p22be6d4544)" d="M 187.481818 200.06 
L 189.502182 200.06 
L 189.502182 116.125523 
L 187.481818 116.125523 
z
" style="fill:#1a1a1a;"/>
   </g>
   <g id="patch_84">
    <path clip-path="url(#p22be6d4544)" d="M 189.502182 200.06 
L 191.522545 200.06 
L 191.522545 149.945925 
L 189.502182 149.945925 
z
" style="fill:#1a1a1a;"/>
   </g>
   <g id="patch_85">
    <path clip-path="url(#p22be6d4544)" d="M 191.522545 200.06 
L 193.542909 200.06 
L 193.542909 152.697041 
L 191.522545 152.697041 
z
" style="fill:#1a1a1a;"/>
   </g>
   <g id="patch_86">
    <path clip-path="url(#p22be6d4544)" d="M 193.542909 200.06 
L 195.563273 200.06 
L 195.563273 157.58523 
L 193.542909 157.58523 
z
" style="fill:#1a1a1a;"/>
   </g>
   <g id="patch_87">
    <path clip-path="url(#p22be6d4544)" d="M 195.563273 200.06 
L 197.583636 200.06 
L 197.583636 174.812807 
L 195.563273 174.812807 
z
" style="fill:#1a1a1a;"/>
   </g>
   <g id="patch_88">
    <path clip-path="url(#p22be6d4544)" d="M 197.583636 200.06 
L 199.604 200.06 
L 199.604 178.091669 
L 197.583636 178.091669 
z
" style="fill:#1a1a1a;"/>
   </g>
   <g id="patch_89">
    <path clip-path="url(#p22be6d4544)" d="M 199.604 200.06 
L 201.624364 200.06 
L 201.624364 181.549399 
L 199.604 181.549399 
z
" style="fill:#1a1a1a;"/>
   </g>
   <g id="patch_90">
    <path clip-path="url(#p22be6d4544)" d="M 201.624364 200.06 
L 203.644727 200.06 
L 203.644727 183.495311 
L 201.624364 183.495311 
z
" style="fill:#1a1a1a;"/>
   </g>
   <g id="patch_91">
    <path clip-path="url(#p22be6d4544)" d="M 203.644727 200.06 
L 205.665091 200.06 
L 205.665091 186.147901 
L 203.644727 186.147901 
z
" style="fill:#1a1a1a;"/>
   </g>
   <g id="patch_92">
    <path clip-path="url(#p22be6d4544)" d="M 205.665091 200.06 
L 207.685455 200.06 
L 207.685455 188.96407 
L 205.665091 188.96407 
z
" style="fill:#1a1a1a;"/>
   </g>
   <g id="patch_93">
    <path clip-path="url(#p22be6d4544)" d="M 207.685455 200.06 
L 209.705818 200.06 
L 209.705818 190.471022 
L 207.685455 190.471022 
z
" style="fill:#1a1a1a;"/>
   </g>
   <g id="patch_94">
    <path clip-path="url(#p22be6d4544)" d="M 209.705818 200.06 
L 211.726182 200.06 
L 211.726182 191.964835 
L 209.705818 191.964835 
z
" style="fill:#1a1a1a;"/>
   </g>
   <g id="patch_95">
    <path clip-path="url(#p22be6d4544)" d="M 211.726182 200.06 
L 213.746545 200.06 
L 213.746545 192.195012 
L 211.726182 192.195012 
z
" style="fill:#1a1a1a;"/>
   </g>
   <g id="patch_96">
    <path clip-path="url(#p22be6d4544)" d="M 213.746545 200.06 
L 215.766909 200.06 
L 215.766909 193.190716 
L 213.746545 193.190716 
z
" style="fill:#1a1a1a;"/>
   </g>
   <g id="patch_97">
    <path clip-path="url(#p22be6d4544)" d="M 215.766909 200.06 
L 217.787273 200.06 
L 217.787273 193.434583 
L 215.766909 193.434583 
z
" style="fill:#1a1a1a;"/>
   </g>
   <g id="patch_98">
    <path clip-path="url(#p22be6d4544)" d="M 217.787273 200.06 
L 219.807636 200.06 
L 219.807636 193.924464 
L 217.787273 193.924464 
z
" style="fill:#1a1a1a;"/>
   </g>
   <g id="patch_99">
    <path clip-path="url(#p22be6d4544)" d="M 219.807636 200.06 
L 221.828 200.06 
L 221.828 194.823973 
L 219.807636 194.823973 
z
" style="fill:#1a1a1a;"/>
   </g>
   <g id="patch_100">
    <path clip-path="url(#p22be6d4544)" d="M 221.828 200.06 
L 223.848364 200.06 
L 223.848364 195.334943 
L 221.828 195.334943 
z
" style="fill:#1a1a1a;"/>
   </g>
   <g id="patch_101">
    <path clip-path="url(#p22be6d4544)" d="M 223.848364 200.06 
L 225.868727 200.06 
L 225.868727 195.450477 
L 223.848364 195.450477 
z
" style="fill:#1a1a1a;"/>
   </g>
   <g id="patch_102">
    <path clip-path="url(#p22be6d4544)" d="M 225.868727 200.06 
L 227.889091 200.06 
L 227.889091 195.695616 
L 225.868727 195.695616 
z
" style="fill:#1a1a1a;"/>
   </g>
   <g id="patch_103">
    <path clip-path="url(#p22be6d4544)" d="M 227.889091 200.06 
L 229.909455 200.06 
L 229.909455 196.81962 
L 227.889091 196.81962 
z
" style="fill:#1a1a1a;"/>
   </g>
   <g id="patch_104">
    <path clip-path="url(#p22be6d4544)" d="M 229.909455 200.06 
L 231.929818 200.06 
L 231.929818 197.185864 
L 229.909455 197.185864 
z
" style="fill:#1a1a1a;"/>
   </g>
   <g id="patch_105">
    <path clip-path="url(#p22be6d4544)" d="M 231.929818 200.06 
L 233.950182 200.06 
L 233.950182 197.33194 
L 231.929818 197.33194 
z
" style="fill:#1a1a1a;"/>
   </g>
   <g id="patch_106">
    <path clip-path="url(#p22be6d4544)" d="M 233.950182 200.06 
L 235.970545 200.06 
L 235.970545 197.785253 
L 233.950182 197.785253 
z
" style="fill:#1a1a1a;"/>
   </g>
   <g id="patch_107">
    <path clip-path="url(#p22be6d4544)" d="M 235.970545 200.06 
L 237.990909 200.06 
L 237.990909 197.864102 
L 235.970545 197.864102 
z
" style="fill:#1a1a1a;"/>
   </g>
   <g id="patch_108">
    <path clip-path="url(#p22be6d4544)" d="M 237.990909 200.06 
L 240.011273 200.06 
L 240.011273 197.894582 
L 237.990909 197.894582 
z
" style="fill:#1a1a1a;"/>
   </g>
   <g id="patch_109">
    <path clip-path="url(#p22be6d4544)" d="M 240.011273 200.06 
L 242.031636 200.06 
L 242.031636 197.998603 
L 240.011273 197.998603 
z
" style="fill:#1a1a1a;"/>
   </g>
   <g id="patch_110">
    <path clip-path="url(#p22be6d4544)" d="M 242.031636 200.06 
L 244.052 200.06 
L 244.052 198.42347 
L 242.031636 198.42347 
z
" style="fill:#1a1a1a;"/>
   </g>
   <g id="patch_111">
    <path clip-path="url(#p22be6d4544)" d="M 244.052 200.06 
L 246.072364 200.06 
L 246.072364 198.683683 
L 244.052 198.683683 
z
" style="fill:#1a1a1a;"/>
   </g>
   <g id="patch_112">
    <path clip-path="url(#p22be6d4544)" d="M 246.072364 200.06 
L 248.092727 200.06 
L 248.092727 198.729937 
L 246.072364 198.729937 
z
" style="fill:#1a1a1a;"/>
   </g>
   <g id="patch_113">
    <path clip-path="url(#p22be6d4544)" d="M 248.092727 200.06 
L 250.113091 200.06 
L 250.113091 198.850442 
L 248.092727 198.850442 
z
" style="fill:#1a1a1a;"/>
   </g>
   <g id="patch_114">
    <path clip-path="url(#p22be6d4544)" d="M 250.113091 200.06 
L 252.133455 200.06 
L 252.133455 199.113146 
L 250.113091 199.113146 
z
" style="fill:#1a1a1a;"/>
   </g>
   <g id="patch_115">
    <path clip-path="url(#p22be6d4544)" d="M 252.133455 200.06 
L 254.153818 200.06 
L 254.153818 199.145702 
L 252.133455 199.145702 
z
" style="fill:#1a1a1a;"/>
   </g>
   <g id="patch_116">
    <path clip-path="url(#p22be6d4544)" d="M 254.153818 200.06 
L 256.174182 200.06 
L 256.174182 199.201918 
L 254.153818 199.201918 
z
" style="fill:#1a1a1a;"/>
   </g>
   <g id="patch_117">
    <path clip-path="url(#p22be6d4544)" d="M 256.174182 200.06 
L 258.194545 200.06 
L 258.194545 199.249368 
L 256.174182 199.249368 
z
" style="fill:#1a1a1a;"/>
   </g>
   <g id="patch_118">
    <path clip-path="url(#p22be6d4544)" d="M 258.194545 200.06 
L 260.214909 200.06 
L 260.214909 199.331274 
L 258.194545 199.331274 
z
" style="fill:#1a1a1a;"/>
   </g>
   <g id="patch_119">
    <path clip-path="url(#p22be6d4544)" d="M 260.214909 200.06 
L 262.235273 200.06 
L 262.235273 199.380573 
L 260.214909 199.380573 
z
" style="fill:#1a1a1a;"/>
   </g>
   <g id="patch_120">
    <path clip-path="url(#p22be6d4544)" d="M 262.235273 200.06 
L 264.255636 200.06 
L 264.255636 199.482505 
L 262.235273 199.482505 
z
" style="fill:#1a1a1a;"/>
   </g>
   <g id="patch_121">
    <path clip-path="url(#p22be6d4544)" d="M 264.255636 200.06 
L 266.276 200.06 
L 266.276 199.503139 
L 264.255636 199.503139 
z
" style="fill:#1a1a1a;"/>
   </g>
   <g id="patch_122">
    <path clip-path="url(#p22be6d4544)" d="M 266.276 200.06 
L 268.296364 200.06 
L 268.296364 199.544234 
L 266.276 199.544234 
z
" style="fill:#1a1a1a;"/>
   </g>
   <g id="patch_123">
    <path clip-path="url(#p22be6d4544)" d="M 268.296364 200.06 
L 270.316727 200.06 
L 270.316727 199.562685 
L 268.296364 199.562685 
z
" style="fill:#1a1a1a;"/>
   </g>
   <g id="patch_124">
    <path clip-path="url(#p22be6d4544)" d="M 270.316727 200.06 
L 272.337091 200.06 
L 272.337091 199.601844 
L 270.316727 199.601844 
z
" style="fill:#1a1a1a;"/>
   </g>
   <g id="patch_125">
    <path clip-path="url(#p22be6d4544)" d="M 272.337091 200.06 
L 274.357455 200.06 
L 274.357455 199.633809 
L 272.337091 199.633809 
z
" style="fill:#1a1a1a;"/>
   </g>
   <g id="patch_126">
    <path clip-path="url(#p22be6d4544)" d="M 274.357455 200.06 
L 276.377818 200.06 
L 276.377818 199.645701 
L 274.357455 199.645701 
z
" style="fill:#1a1a1a;"/>
   </g>
   <g id="patch_127">
    <path clip-path="url(#p22be6d4544)" d="M 276.377818 200.06 
L 278.398182 200.06 
L 278.398182 199.657659 
L 276.377818 199.657659 
z
" style="fill:#1a1a1a;"/>
   </g>
   <g id="patch_128">
    <path clip-path="url(#p22be6d4544)" d="M 278.398182 200.06 
L 280.418545 200.06 
L 280.418545 199.671795 
L 278.398182 199.671795 
z
" style="fill:#1a1a1a;"/>
   </g>
   <g id="patch_129">
    <path clip-path="url(#p22be6d4544)" d="M 280.418545 200.06 
L 282.438909 200.06 
L 282.438909 199.694409 
L 280.418545 199.694409 
z
" style="fill:#1a1a1a;"/>
   </g>
   <g id="patch_130">
    <path clip-path="url(#p22be6d4544)" d="M 282.438909 200.06 
L 284.459273 200.06 
L 284.459273 199.716438 
L 282.438909 199.716438 
z
" style="fill:#1a1a1a;"/>
   </g>
   <g id="patch_131">
    <path clip-path="url(#p22be6d4544)" d="M 284.459273 200.06 
L 286.479636 200.06 
L 286.479636 199.765421 
L 284.459273 199.765421 
z
" style="fill:#1a1a1a;"/>
   </g>
   <g id="patch_132">
    <path clip-path="url(#p22be6d4544)" d="M 286.479636 200.06 
L 288.5 200.06 
L 288.5 199.779019 
L 286.479636 199.779019 
z
" style="fill:#1a1a1a;"/>
   </g>
   <g id="patch_133">
    <path clip-path="url(#p22be6d4544)" d="M 288.5 200.06 
L 290.520364 200.06 
L 290.520364 199.805974 
L 288.5 199.805974 
z
" style="fill:#1a1a1a;"/>
   </g>
   <g id="patch_134">
    <path clip-path="url(#p22be6d4544)" d="M 290.520364 200.06 
L 292.540727 200.06 
L 292.540727 199.827825 
L 290.520364 199.827825 
z
" style="fill:#1a1a1a;"/>
   </g>
   <g id="patch_135">
    <path clip-path="url(#p22be6d4544)" d="M 292.540727 200.06 
L 294.561091 200.06 
L 294.561091 199.838681 
L 292.540727 199.838681 
z
" style="fill:#1a1a1a;"/>
   </g>
   <g id="patch_136">
    <path clip-path="url(#p22be6d4544)" d="M 294.561091 200.06 
L 296.581455 200.06 
L 296.581455 199.867523 
L 294.561091 199.867523 
z
" style="fill:#1a1a1a;"/>
   </g>
   <g id="patch_137">
    <path clip-path="url(#p22be6d4544)" d="M 296.581455 200.06 
L 298.601818 200.06 
L 298.601818 199.871582 
L 296.581455 199.871582 
z
" style="fill:#1a1a1a;"/>
   </g>
   <g id="patch_138">
    <path clip-path="url(#p22be6d4544)" d="M 298.601818 200.06 
L 300.622182 200.06 
L 300.622182 199.882593 
L 298.601818 199.882593 
z
" style="fill:#1a1a1a;"/>
   </g>
   <g id="patch_139">
    <path clip-path="url(#p22be6d4544)" d="M 300.622182 200.06 
L 302.642545 200.06 
L 302.642545 199.895101 
L 300.622182 199.895101 
z
" style="fill:#1a1a1a;"/>
   </g>
   <g id="patch_140">
    <path clip-path="url(#p22be6d4544)" d="M 302.642545 200.06 
L 304.662909 200.06 
L 304.662909 199.90722 
L 302.642545 199.90722 
z
" style="fill:#1a1a1a;"/>
   </g>
   <g id="patch_141">
    <path clip-path="url(#p22be6d4544)" d="M 304.662909 200.06 
L 306.683273 200.06 
L 306.683273 199.911566 
L 304.662909 199.911566 
z
" style="fill:#1a1a1a;"/>
   </g>
   <g id="patch_142">
    <path clip-path="url(#p22be6d4544)" d="M 306.683273 200.06 
L 308.703636 200.06 
L 308.703636 199.917742 
L 306.683273 199.917742 
z
" style="fill:#1a1a1a;"/>
   </g>
   <g id="patch_143">
    <path clip-path="url(#p22be6d4544)" d="M 308.703636 200.06 
L 310.724 200.06 
L 310.724 199.952518 
L 308.703636 199.952518 
z
" style="fill:#1a1a1a;"/>
   </g>
   <g id="patch_144">
    <path clip-path="url(#p22be6d4544)" d="M 310.724 200.06 
L 312.744364 200.06 
L 312.744364 199.953358 
L 310.724 199.953358 
z
" style="fill:#1a1a1a;"/>
   </g>
   <g id="patch_145">
    <path clip-path="url(#p22be6d4544)" d="M 312.744364 200.06 
L 314.764727 200.06 
L 314.764727 199.967642 
L 312.744364 199.967642 
z
" style="fill:#1a1a1a;"/>
   </g>
   <g id="patch_146">
    <path clip-path="url(#p22be6d4544)" d="M 314.764727 200.06 
L 316.785091 200.06 
L 316.785091 199.978423 
L 314.764727 199.978423 
z
" style="fill:#1a1a1a;"/>
   </g>
   <g id="patch_147">
    <path clip-path="url(#p22be6d4544)" d="M 316.785091 200.06 
L 318.805455 200.06 
L 318.805455 199.984164 
L 316.785091 199.984164 
z
" style="fill:#1a1a1a;"/>
   </g>
   <g id="patch_148">
    <path clip-path="url(#p22be6d4544)" d="M 318.805455 200.06 
L 320.825818 200.06 
L 320.825818 199.988336 
L 318.805455 199.988336 
z
" style="fill:#1a1a1a;"/>
   </g>
   <g id="patch_149">
    <path clip-path="url(#p22be6d4544)" d="M 320.825818 200.06 
L 322.846182 200.06 
L 322.846182 199.994203 
L 320.825818 199.994203 
z
" style="fill:#1a1a1a;"/>
   </g>
   <g id="patch_150">
    <path clip-path="url(#p22be6d4544)" d="M 322.846182 200.06 
L 324.866545 200.06 
L 324.866545 199.997191 
L 322.846182 199.997191 
z
" style="fill:#1a1a1a;"/>
   </g>
   <g id="patch_151">
    <path clip-path="url(#p22be6d4544)" d="M 324.866545 200.06 
L 326.886909 200.06 
L 326.886909 200.002151 
L 324.866545 200.002151 
z
" style="fill:#1a1a1a;"/>
   </g>
   <g id="patch_152">
    <path clip-path="url(#p22be6d4544)" d="M 326.886909 200.06 
L 328.907273 200.06 
L 328.907273 200.005215 
L 326.886909 200.005215 
z
" style="fill:#1a1a1a;"/>
   </g>
   <g id="matplotlib.axis_1"/>
   <g id="matplotlib.axis_2"/>
   <g id="patch_153">
    <path d="M 10.7 200.06 
L 10.7 10.7 
" style="fill:none;stroke:#000000;stroke-linecap:square;stroke-linejoin:miter;stroke-width:0.8;"/>
   </g>
   <g id="patch_154">
    <path d="M 344.06 200.06 
L 344.06 10.7 
" style="fill:none;stroke:#000000;stroke-linecap:square;stroke-linejoin:miter;stroke-width:0.8;"/>
   </g>
   <g id="patch_155">
    <path d="M 10.7 200.06 
L 344.06 200.06 
" style="fill:none;stroke:#000000;stroke-linecap:square;stroke-linejoin:miter;stroke-width:0.8;"/>
   </g>
   <g id="patch_156">
    <path d="M 10.7 10.7 
L 344.06 10.7 
" style="fill:none;stroke:#000000;stroke-linecap:square;stroke-linejoin:miter;stroke-width:0.8;"/>
   </g>
  </g>
 </g>
 <defs>
  <clipPath id="p22be6d4544">
   <rect height="189.36" width="333.36" x="10.7" y="10.7"/>
  </clipPath>
 </defs>
</svg>
