<?xml version="1.0" encoding="utf-8" standalone="no"?>
<!DOCTYPE svg PUBLIC "-//W3C//DTD SVG 1.1//EN"
  "http://www.w3.org/Graphics/SVG/1.1/DTD/svg11.dtd">
<!-- Created with matplotlib (http://matplotlib.org/) -->
<svg height="210pt" version="1.1" viewBox="0 0 354 210" width="354pt" xmlns="http://www.w3.org/2000/svg" xmlns:xlink="http://www.w3.org/1999/xlink">
 <defs>
  <style type="text/css">
*{stroke-linecap:butt;stroke-linejoin:round;}
  </style>
 </defs>
 <g id="figure_1">
  <g id="patch_1">
   <path d="M 0 210.76 
L 354.76 210.76 
L 354.76 0 
L 0 0 
z
" style="fill:#ffffff;"/>
  </g>
  <g id="axes_1">
   <g id="patch_2">
    <path d="M 10.7 200.06 
L 344.06 200.06 
L 344.06 10.7 
L 10.7 10.7 
z
" style="fill:#ffffff;"/>
   </g>
   <g id="patch_3">
    <path clip-path="url(#pe21e4ab453)" d="M 25.852727 200.06 
L 27.873091 200.06 
L 27.873091 198.428166 
L 25.852727 198.428166 
z
" style="fill:#1a1a1a;"/>
   </g>
   <g id="patch_4">
    <path clip-path="url(#pe21e4ab453)" d="M 27.873091 200.06 
L 29.893455 200.06 
L 29.893455 198.393947 
L 27.873091 198.393947 
z
" style="fill:#1a1a1a;"/>
   </g>
   <g id="patch_5">
    <path clip-path="url(#pe21e4ab453)" d="M 29.893455 200.06 
L 31.913818 200.06 
L 31.913818 198.275206 
L 29.893455 198.275206 
z
" style="fill:#1a1a1a;"/>
   </g>
   <g id="patch_6">
    <path clip-path="url(#pe21e4ab453)" d="M 31.913818 200.06 
L 33.934182 200.06 
L 33.934182 198.230724 
L 31.913818 198.230724 
z
" style="fill:#1a1a1a;"/>
   </g>
   <g id="patch_7">
    <path clip-path="url(#pe21e4ab453)" d="M 33.934182 200.06 
L 35.954545 200.06 
L 35.954545 198.165373 
L 33.934182 198.165373 
z
" style="fill:#1a1a1a;"/>
   </g>
   <g id="patch_8">
    <path clip-path="url(#pe21e4ab453)" d="M 35.954545 200.06 
L 37.974909 200.06 
L 37.974909 197.993174 
L 35.954545 197.993174 
z
" style="fill:#1a1a1a;"/>
   </g>
   <g id="patch_9">
    <path clip-path="url(#pe21e4ab453)" d="M 37.974909 200.06 
L 39.995273 200.06 
L 39.995273 197.941735 
L 37.974909 197.941735 
z
" style="fill:#1a1a1a;"/>
   </g>
   <g id="patch_10">
    <path clip-path="url(#pe21e4ab453)" d="M 39.995273 200.06 
L 42.015636 200.06 
L 42.015636 197.856352 
L 39.995273 197.856352 
z
" style="fill:#1a1a1a;"/>
   </g>
   <g id="patch_11">
    <path clip-path="url(#pe21e4ab453)" d="M 42.015636 200.06 
L 44.036 200.06 
L 44.036 197.836405 
L 42.015636 197.836405 
z
" style="fill:#1a1a1a;"/>
   </g>
   <g id="patch_12">
    <path clip-path="url(#pe21e4ab453)" d="M 44.036 200.06 
L 46.056364 200.06 
L 46.056364 197.824462 
L 44.036 197.824462 
z
" style="fill:#1a1a1a;"/>
   </g>
   <g id="patch_13">
    <path clip-path="url(#pe21e4ab453)" d="M 46.056364 200.06 
L 48.076727 200.06 
L 48.076727 197.727298 
L 46.056364 197.727298 
z
" style="fill:#1a1a1a;"/>
   </g>
   <g id="patch_14">
    <path clip-path="url(#pe21e4ab453)" d="M 48.076727 200.06 
L 50.097091 200.06 
L 50.097091 197.601958 
L 48.076727 197.601958 
z
" style="fill:#1a1a1a;"/>
   </g>
   <g id="patch_15">
    <path clip-path="url(#pe21e4ab453)" d="M 50.097091 200.06 
L 52.117455 200.06 
L 52.117455 197.404478 
L 50.097091 197.404478 
z
" style="fill:#1a1a1a;"/>
   </g>
   <g id="patch_16">
    <path clip-path="url(#pe21e4ab453)" d="M 52.117455 200.06 
L 54.137818 200.06 
L 54.137818 197.222821 
L 52.117455 197.222821 
z
" style="fill:#1a1a1a;"/>
   </g>
   <g id="patch_17">
    <path clip-path="url(#pe21e4ab453)" d="M 54.137818 200.06 
L 56.158182 200.06 
L 56.158182 196.972532 
L 54.137818 196.972532 
z
" style="fill:#1a1a1a;"/>
   </g>
   <g id="patch_18">
    <path clip-path="url(#pe21e4ab453)" d="M 56.158182 200.06 
L 58.178545 200.06 
L 58.178545 196.874549 
L 56.158182 196.874549 
z
" style="fill:#1a1a1a;"/>
   </g>
   <g id="patch_19">
    <path clip-path="url(#pe21e4ab453)" d="M 58.178545 200.06 
L 60.198909 200.06 
L 60.198909 196.738873 
L 58.178545 196.738873 
z
" style="fill:#1a1a1a;"/>
   </g>
   <g id="patch_20">
    <path clip-path="url(#pe21e4ab453)" d="M 60.198909 200.06 
L 62.219273 200.06 
L 62.219273 196.388452 
L 60.198909 196.388452 
z
" style="fill:#1a1a1a;"/>
   </g>
   <g id="patch_21">
    <path clip-path="url(#pe21e4ab453)" d="M 62.219273 200.06 
L 64.239636 200.06 
L 64.239636 196.269636 
L 62.219273 196.269636 
z
" style="fill:#1a1a1a;"/>
   </g>
   <g id="patch_22">
    <path clip-path="url(#pe21e4ab453)" d="M 64.239636 200.06 
L 66.26 200.06 
L 66.26 196.137598 
L 64.239636 196.137598 
z
" style="fill:#1a1a1a;"/>
   </g>
   <g id="patch_23">
    <path clip-path="url(#pe21e4ab453)" d="M 66.26 200.06 
L 68.280364 200.06 
L 68.280364 196.066361 
L 66.26 196.066361 
z
" style="fill:#1a1a1a;"/>
   </g>
   <g id="patch_24">
    <path clip-path="url(#pe21e4ab453)" d="M 68.280364 200.06 
L 70.300727 200.06 
L 70.300727 195.59613 
L 68.280364 195.59613 
z
" style="fill:#1a1a1a;"/>
   </g>
   <g id="patch_25">
    <path clip-path="url(#pe21e4ab453)" d="M 70.300727 200.06 
L 72.321091 200.06 
L 72.321091 195.46892 
L 70.300727 195.46892 
z
" style="fill:#1a1a1a;"/>
   </g>
   <g id="patch_26">
    <path clip-path="url(#pe21e4ab453)" d="M 72.321091 200.06 
L 74.341455 200.06 
L 74.341455 195.347257 
L 72.321091 195.347257 
z
" style="fill:#1a1a1a;"/>
   </g>
   <g id="patch_27">
    <path clip-path="url(#pe21e4ab453)" d="M 74.341455 200.06 
L 76.361818 200.06 
L 76.361818 195.186585 
L 74.341455 195.186585 
z
" style="fill:#1a1a1a;"/>
   </g>
   <g id="patch_28">
    <path clip-path="url(#pe21e4ab453)" d="M 76.361818 200.06 
L 78.382182 200.06 
L 78.382182 194.62095 
L 76.361818 194.62095 
z
" style="fill:#1a1a1a;"/>
   </g>
   <g id="patch_29">
    <path clip-path="url(#pe21e4ab453)" d="M 78.382182 200.06 
L 80.402545 200.06 
L 80.402545 194.24731 
L 78.382182 194.24731 
z
" style="fill:#1a1a1a;"/>
   </g>
   <g id="patch_30">
    <path clip-path="url(#pe21e4ab453)" d="M 80.402545 200.06 
L 82.422909 200.06 
L 82.422909 194.005483 
L 80.402545 194.005483 
z
" style="fill:#1a1a1a;"/>
   </g>
   <g id="patch_31">
    <path clip-path="url(#pe21e4ab453)" d="M 82.422909 200.06 
L 84.443273 200.06 
L 84.443273 193.452539 
L 82.422909 193.452539 
z
" style="fill:#1a1a1a;"/>
   </g>
   <g id="patch_32">
    <path clip-path="url(#pe21e4ab453)" d="M 84.443273 200.06 
L 86.463636 200.06 
L 86.463636 193.041823 
L 84.443273 193.041823 
z
" style="fill:#1a1a1a;"/>
   </g>
   <g id="patch_33">
    <path clip-path="url(#pe21e4ab453)" d="M 86.463636 200.06 
L 88.484 200.06 
L 88.484 192.974269 
L 86.463636 192.974269 
z
" style="fill:#1a1a1a;"/>
   </g>
   <g id="patch_34">
    <path clip-path="url(#pe21e4ab453)" d="M 88.484 200.06 
L 90.504364 200.06 
L 90.504364 192.8232 
L 88.484 192.8232 
z
" style="fill:#1a1a1a;"/>
   </g>
   <g id="patch_35">
    <path clip-path="url(#pe21e4ab453)" d="M 90.504364 200.06 
L 92.524727 200.06 
L 92.524727 192.299932 
L 90.504364 192.299932 
z
" style="fill:#1a1a1a;"/>
   </g>
   <g id="patch_36">
    <path clip-path="url(#pe21e4ab453)" d="M 92.524727 200.06 
L 94.545091 200.06 
L 94.545091 191.820869 
L 92.524727 191.820869 
z
" style="fill:#1a1a1a;"/>
   </g>
   <g id="patch_37">
    <path clip-path="url(#pe21e4ab453)" d="M 94.545091 200.06 
L 96.565455 200.06 
L 96.565455 190.354642 
L 94.545091 190.354642 
z
" style="fill:#1a1a1a;"/>
   </g>
   <g id="patch_38">
    <path clip-path="url(#pe21e4ab453)" d="M 96.565455 200.06 
L 98.585818 200.06 
L 98.585818 189.058412 
L 96.565455 189.058412 
z
" style="fill:#1a1a1a;"/>
   </g>
   <g id="patch_39">
    <path clip-path="url(#pe21e4ab453)" d="M 98.585818 200.06 
L 100.606182 200.06 
L 100.606182 188.660765 
L 98.585818 188.660765 
z
" style="fill:#1a1a1a;"/>
   </g>
   <g id="patch_40">
    <path clip-path="url(#pe21e4ab453)" d="M 100.606182 200.06 
L 102.626545 200.06 
L 102.626545 186.247817 
L 100.606182 186.247817 
z
" style="fill:#1a1a1a;"/>
   </g>
   <g id="patch_41">
    <path clip-path="url(#pe21e4ab453)" d="M 102.626545 200.06 
L 104.646909 200.06 
L 104.646909 185.487827 
L 102.626545 185.487827 
z
" style="fill:#1a1a1a;"/>
   </g>
   <g id="patch_42">
    <path clip-path="url(#pe21e4ab453)" d="M 104.646909 200.06 
L 106.667273 200.06 
L 106.667273 184.898078 
L 104.646909 184.898078 
z
" style="fill:#1a1a1a;"/>
   </g>
   <g id="patch_43">
    <path clip-path="url(#pe21e4ab453)" d="M 106.667273 200.06 
L 108.687636 200.06 
L 108.687636 183.90529 
L 106.667273 183.90529 
z
" style="fill:#1a1a1a;"/>
   </g>
   <g id="patch_44">
    <path clip-path="url(#pe21e4ab453)" d="M 108.687636 200.06 
L 110.708 200.06 
L 110.708 182.703493 
L 108.687636 182.703493 
z
" style="fill:#1a1a1a;"/>
   </g>
   <g id="patch_45">
    <path clip-path="url(#pe21e4ab453)" d="M 110.708 200.06 
L 112.728364 200.06 
L 112.728364 180.47755 
L 110.708 180.47755 
z
" style="fill:#1a1a1a;"/>
   </g>
   <g id="patch_46">
    <path clip-path="url(#pe21e4ab453)" d="M 112.728364 200.06 
L 114.748727 200.06 
L 114.748727 180.229399 
L 112.728364 180.229399 
z
" style="fill:#1a1a1a;"/>
   </g>
   <g id="patch_47">
    <path clip-path="url(#pe21e4ab453)" d="M 114.748727 200.06 
L 116.769091 200.06 
L 116.769091 178.669305 
L 114.748727 178.669305 
z
" style="fill:#1a1a1a;"/>
   </g>
   <g id="patch_48">
    <path clip-path="url(#pe21e4ab453)" d="M 116.769091 200.06 
L 118.789455 200.06 
L 118.789455 177.725573 
L 116.769091 177.725573 
z
" style="fill:#1a1a1a;"/>
   </g>
   <g id="patch_49">
    <path clip-path="url(#pe21e4ab453)" d="M 118.789455 200.06 
L 120.809818 200.06 
L 120.809818 177.620841 
L 118.789455 177.620841 
z
" style="fill:#1a1a1a;"/>
   </g>
   <g id="patch_50">
    <path clip-path="url(#pe21e4ab453)" d="M 120.809818 200.06 
L 122.830182 200.06 
L 122.830182 176.584704 
L 120.809818 176.584704 
z
" style="fill:#1a1a1a;"/>
   </g>
   <g id="patch_51">
    <path clip-path="url(#pe21e4ab453)" d="M 122.830182 200.06 
L 124.850545 200.06 
L 124.850545 176.256922 
L 122.830182 176.256922 
z
" style="fill:#1a1a1a;"/>
   </g>
   <g id="patch_52">
    <path clip-path="url(#pe21e4ab453)" d="M 124.850545 200.06 
L 126.870909 200.06 
L 126.870909 173.310974 
L 124.850545 173.310974 
z
" style="fill:#1a1a1a;"/>
   </g>
   <g id="patch_53">
    <path clip-path="url(#pe21e4ab453)" d="M 126.870909 200.06 
L 128.891273 200.06 
L 128.891273 166.474679 
L 126.870909 166.474679 
z
" style="fill:#1a1a1a;"/>
   </g>
   <g id="patch_54">
    <path clip-path="url(#pe21e4ab453)" d="M 128.891273 200.06 
L 130.911636 200.06 
L 130.911636 159.517649 
L 128.891273 159.517649 
z
" style="fill:#1a1a1a;"/>
   </g>
   <g id="patch_55">
    <path clip-path="url(#pe21e4ab453)" d="M 130.911636 200.06 
L 132.932 200.06 
L 132.932 155.345381 
L 130.911636 155.345381 
z
" style="fill:#1a1a1a;"/>
   </g>
   <g id="patch_56">
    <path clip-path="url(#pe21e4ab453)" d="M 132.932 200.06 
L 134.952364 200.06 
L 134.952364 149.997626 
L 132.932 149.997626 
z
" style="fill:#1a1a1a;"/>
   </g>
   <g id="patch_57">
    <path clip-path="url(#pe21e4ab453)" d="M 134.952364 200.06 
L 136.972727 200.06 
L 136.972727 147.195306 
L 134.952364 147.195306 
z
" style="fill:#1a1a1a;"/>
   </g>
   <g id="patch_58">
    <path clip-path="url(#pe21e4ab453)" d="M 136.972727 200.06 
L 138.993091 200.06 
L 138.993091 145.053335 
L 136.972727 145.053335 
z
" style="fill:#1a1a1a;"/>
   </g>
   <g id="patch_59">
    <path clip-path="url(#pe21e4ab453)" d="M 138.993091 200.06 
L 141.013455 200.06 
L 141.013455 134.434229 
L 138.993091 134.434229 
z
" style="fill:#1a1a1a;"/>
   </g>
   <g id="patch_60">
    <path clip-path="url(#pe21e4ab453)" d="M 141.013455 200.06 
L 143.033818 200.06 
L 143.033818 130.534722 
L 141.013455 130.534722 
z
" style="fill:#1a1a1a;"/>
   </g>
   <g id="patch_61">
    <path clip-path="url(#pe21e4ab453)" d="M 143.033818 200.06 
L 145.054182 200.06 
L 145.054182 126.330415 
L 143.033818 126.330415 
z
" style="fill:#1a1a1a;"/>
   </g>
   <g id="patch_62">
    <path clip-path="url(#pe21e4ab453)" d="M 145.054182 200.06 
L 147.074545 200.06 
L 147.074545 121.921445 
L 145.054182 121.921445 
z
" style="fill:#1a1a1a;"/>
   </g>
   <g id="patch_63">
    <path clip-path="url(#pe21e4ab453)" d="M 147.074545 200.06 
L 149.094909 200.06 
L 149.094909 114.30644 
L 147.074545 114.30644 
z
" style="fill:#1a1a1a;"/>
   </g>
   <g id="patch_64">
    <path clip-path="url(#pe21e4ab453)" d="M 149.094909 200.06 
L 151.115273 200.06 
L 151.115273 109.70703 
L 149.094909 109.70703 
z
" style="fill:#1a1a1a;"/>
   </g>
   <g id="patch_65">
    <path clip-path="url(#pe21e4ab453)" d="M 151.115273 200.06 
L 153.135636 200.06 
L 153.135636 104.810785 
L 151.115273 104.810785 
z
" style="fill:#1a1a1a;"/>
   </g>
   <g id="patch_66">
    <path clip-path="url(#pe21e4ab453)" d="M 153.135636 200.06 
L 155.156 200.06 
L 155.156 101.214776 
L 153.135636 101.214776 
z
" style="fill:#1a1a1a;"/>
   </g>
   <g id="patch_67">
    <path clip-path="url(#pe21e4ab453)" d="M 155.156 200.06 
L 157.176364 200.06 
L 157.176364 97.522941 
L 155.156 97.522941 
z
" style="fill:#1a1a1a;"/>
   </g>
   <g id="patch_68">
    <path clip-path="url(#pe21e4ab453)" d="M 157.176364 200.06 
L 159.196727 200.06 
L 159.196727 96.936406 
L 157.176364 96.936406 
z
" style="fill:#1a1a1a;"/>
   </g>
   <g id="patch_69">
    <path clip-path="url(#pe21e4ab453)" d="M 159.196727 200.06 
L 161.217091 200.06 
L 161.217091 90.846128 
L 159.196727 90.846128 
z
" style="fill:#1a1a1a;"/>
   </g>
   <g id="patch_70">
    <path clip-path="url(#pe21e4ab453)" d="M 161.217091 200.06 
L 163.237455 200.06 
L 163.237455 83.027548 
L 161.217091 83.027548 
z
" style="fill:#1a1a1a;"/>
   </g>
   <g id="patch_71">
    <path clip-path="url(#pe21e4ab453)" d="M 163.237455 200.06 
L 165.257818 200.06 
L 165.257818 61.82282 
L 163.237455 61.82282 
z
" style="fill:#1a1a1a;"/>
   </g>
   <g id="patch_72">
    <path clip-path="url(#pe21e4ab453)" d="M 165.257818 200.06 
L 167.278182 200.06 
L 167.278182 51.895511 
L 165.257818 51.895511 
z
" style="fill:#1a1a1a;"/>
   </g>
   <g id="patch_73">
    <path clip-path="url(#pe21e4ab453)" d="M 167.278182 200.06 
L 169.298545 200.06 
L 169.298545 41.531432 
L 167.278182 41.531432 
z
" style="fill:#1a1a1a;"/>
   </g>
   <g id="patch_74">
    <path clip-path="url(#pe21e4ab453)" d="M 169.298545 200.06 
L 171.318909 200.06 
L 171.318909 37.824931 
L 169.298545 37.824931 
z
" style="fill:#1a1a1a;"/>
   </g>
   <g id="patch_75">
    <path clip-path="url(#pe21e4ab453)" d="M 171.318909 200.06 
L 173.339273 200.06 
L 173.339273 32.694261 
L 171.318909 32.694261 
z
" style="fill:#1a1a1a;"/>
   </g>
   <g id="patch_76">
    <path clip-path="url(#pe21e4ab453)" d="M 173.339273 200.06 
L 175.359636 200.06 
L 175.359636 28.12508 
L 173.339273 28.12508 
z
" style="fill:#1a1a1a;"/>
   </g>
   <g id="patch_77">
    <path clip-path="url(#pe21e4ab453)" d="M 175.359636 200.06 
L 177.38 200.06 
L 177.38 25.891421 
L 175.359636 25.891421 
z
" style="fill:#1a1a1a;"/>
   </g>
   <g id="patch_78">
    <path clip-path="url(#pe21e4ab453)" d="M 177.38 200.06 
L 179.400364 200.06 
L 179.400364 23.860993 
L 177.38 23.860993 
z
" style="fill:#1a1a1a;"/>
   </g>
   <g id="patch_79">
    <path clip-path="url(#pe21e4ab453)" d="M 179.400364 200.06 
L 181.420727 200.06 
L 181.420727 26.67763 
L 179.400364 26.67763 
z
" style="fill:#1a1a1a;"/>
   </g>
   <g id="patch_80">
    <path clip-path="url(#pe21e4ab453)" d="M 181.420727 200.06 
L 183.441091 200.06 
L 183.441091 28.395402 
L 181.420727 28.395402 
z
" style="fill:#1a1a1a;"/>
   </g>
   <g id="patch_81">
    <path clip-path="url(#pe21e4ab453)" d="M 183.441091 200.06 
L 185.461455 200.06 
L 185.461455 33.904494 
L 183.441091 33.904494 
z
" style="fill:#1a1a1a;"/>
   </g>
   <g id="patch_82">
    <path clip-path="url(#pe21e4ab453)" d="M 185.461455 200.06 
L 187.481818 200.06 
L 187.481818 39.175878 
L 185.461455 39.175878 
z
" style="fill:#1a1a1a;"/>
   </g>
   <g id="patch_83">
    <path clip-path="url(#pe21e4ab453)" d="M 187.481818 200.06 
L 189.502182 200.06 
L 189.502182 43.194019 
L 187.481818 43.194019 
z
" style="fill:#1a1a1a;"/>
   </g>
   <g id="patch_84">
    <path clip-path="url(#pe21e4ab453)" d="M 189.502182 200.06 
L 191.522545 200.06 
L 191.522545 60.28964 
L 189.502182 60.28964 
z
" style="fill:#1a1a1a;"/>
   </g>
   <g id="patch_85">
    <path clip-path="url(#pe21e4ab453)" d="M 191.522545 200.06 
L 193.542909 200.06 
L 193.542909 72.89094 
L 191.522545 72.89094 
z
" style="fill:#1a1a1a;"/>
   </g>
   <g id="patch_86">
    <path clip-path="url(#pe21e4ab453)" d="M 193.542909 200.06 
L 195.563273 200.06 
L 195.563273 83.091209 
L 193.542909 83.091209 
z
" style="fill:#1a1a1a;"/>
   </g>
   <g id="patch_87">
    <path clip-path="url(#pe21e4ab453)" d="M 195.563273 200.06 
L 197.583636 200.06 
L 197.583636 95.243317 
L 195.563273 95.243317 
z
" style="fill:#1a1a1a;"/>
   </g>
   <g id="patch_88">
    <path clip-path="url(#pe21e4ab453)" d="M 197.583636 200.06 
L 199.604 200.06 
L 199.604 97.190051 
L 197.583636 97.190051 
z
" style="fill:#1a1a1a;"/>
   </g>
   <g id="patch_89">
    <path clip-path="url(#pe21e4ab453)" d="M 199.604 200.06 
L 201.624364 200.06 
L 201.624364 100.727126 
L 199.604 100.727126 
z
" style="fill:#1a1a1a;"/>
   </g>
   <g id="patch_90">
    <path clip-path="url(#pe21e4ab453)" d="M 201.624364 200.06 
L 203.644727 200.06 
L 203.644727 103.238395 
L 201.624364 103.238395 
z
" style="fill:#1a1a1a;"/>
   </g>
   <g id="patch_91">
    <path clip-path="url(#pe21e4ab453)" d="M 203.644727 200.06 
L 205.665091 200.06 
L 205.665091 108.642993 
L 203.644727 108.642993 
z
" style="fill:#1a1a1a;"/>
   </g>
   <g id="patch_92">
    <path clip-path="url(#pe21e4ab453)" d="M 205.665091 200.06 
L 207.685455 200.06 
L 207.685455 112.868152 
L 205.665091 112.868152 
z
" style="fill:#1a1a1a;"/>
   </g>
   <g id="patch_93">
    <path clip-path="url(#pe21e4ab453)" d="M 207.685455 200.06 
L 209.705818 200.06 
L 209.705818 118.03486 
L 207.685455 118.03486 
z
" style="fill:#1a1a1a;"/>
   </g>
   <g id="patch_94">
    <path clip-path="url(#pe21e4ab453)" d="M 209.705818 200.06 
L 211.726182 200.06 
L 211.726182 122.190044 
L 209.705818 122.190044 
z
" style="fill:#1a1a1a;"/>
   </g>
   <g id="patch_95">
    <path clip-path="url(#pe21e4ab453)" d="M 211.726182 200.06 
L 213.746545 200.06 
L 213.746545 126.948416 
L 211.726182 126.948416 
z
" style="fill:#1a1a1a;"/>
   </g>
   <g id="patch_96">
    <path clip-path="url(#pe21e4ab453)" d="M 213.746545 200.06 
L 215.766909 200.06 
L 215.766909 134.30498 
L 213.746545 134.30498 
z
" style="fill:#1a1a1a;"/>
   </g>
   <g id="patch_97">
    <path clip-path="url(#pe21e4ab453)" d="M 215.766909 200.06 
L 217.787273 200.06 
L 217.787273 137.821478 
L 215.766909 137.821478 
z
" style="fill:#1a1a1a;"/>
   </g>
   <g id="patch_98">
    <path clip-path="url(#pe21e4ab453)" d="M 217.787273 200.06 
L 219.807636 200.06 
L 219.807636 146.613924 
L 217.787273 146.613924 
z
" style="fill:#1a1a1a;"/>
   </g>
   <g id="patch_99">
    <path clip-path="url(#pe21e4ab453)" d="M 219.807636 200.06 
L 221.828 200.06 
L 221.828 148.376808 
L 219.807636 148.376808 
z
" style="fill:#1a1a1a;"/>
   </g>
   <g id="patch_100">
    <path clip-path="url(#pe21e4ab453)" d="M 221.828 200.06 
L 223.848364 200.06 
L 223.848364 153.419021 
L 221.828 153.419021 
z
" style="fill:#1a1a1a;"/>
   </g>
   <g id="patch_101">
    <path clip-path="url(#pe21e4ab453)" d="M 223.848364 200.06 
L 225.868727 200.06 
L 225.868727 159.013634 
L 223.848364 159.013634 
z
" style="fill:#1a1a1a;"/>
   </g>
   <g id="patch_102">
    <path clip-path="url(#pe21e4ab453)" d="M 225.868727 200.06 
L 227.889091 200.06 
L 227.889091 160.841457 
L 225.868727 160.841457 
z
" style="fill:#1a1a1a;"/>
   </g>
   <g id="patch_103">
    <path clip-path="url(#pe21e4ab453)" d="M 227.889091 200.06 
L 229.909455 200.06 
L 229.909455 166.760428 
L 227.889091 166.760428 
z
" style="fill:#1a1a1a;"/>
   </g>
   <g id="patch_104">
    <path clip-path="url(#pe21e4ab453)" d="M 229.909455 200.06 
L 231.929818 200.06 
L 231.929818 173.520249 
L 229.909455 173.520249 
z
" style="fill:#1a1a1a;"/>
   </g>
   <g id="patch_105">
    <path clip-path="url(#pe21e4ab453)" d="M 231.929818 200.06 
L 233.950182 200.06 
L 233.950182 176.569109 
L 231.929818 176.569109 
z
" style="fill:#1a1a1a;"/>
   </g>
   <g id="patch_106">
    <path clip-path="url(#pe21e4ab453)" d="M 233.950182 200.06 
L 235.970545 200.06 
L 235.970545 177.326019 
L 233.950182 177.326019 
z
" style="fill:#1a1a1a;"/>
   </g>
   <g id="patch_107">
    <path clip-path="url(#pe21e4ab453)" d="M 235.970545 200.06 
L 237.990909 200.06 
L 237.990909 177.705229 
L 235.970545 177.705229 
z
" style="fill:#1a1a1a;"/>
   </g>
   <g id="patch_108">
    <path clip-path="url(#pe21e4ab453)" d="M 237.990909 200.06 
L 240.011273 200.06 
L 240.011273 178.400145 
L 237.990909 178.400145 
z
" style="fill:#1a1a1a;"/>
   </g>
   <g id="patch_109">
    <path clip-path="url(#pe21e4ab453)" d="M 240.011273 200.06 
L 242.031636 200.06 
L 242.031636 179.732285 
L 240.011273 179.732285 
z
" style="fill:#1a1a1a;"/>
   </g>
   <g id="patch_110">
    <path clip-path="url(#pe21e4ab453)" d="M 242.031636 200.06 
L 244.052 200.06 
L 244.052 180.338752 
L 242.031636 180.338752 
z
" style="fill:#1a1a1a;"/>
   </g>
   <g id="patch_111">
    <path clip-path="url(#pe21e4ab453)" d="M 244.052 200.06 
L 246.072364 200.06 
L 246.072364 181.671688 
L 244.052 181.671688 
z
" style="fill:#1a1a1a;"/>
   </g>
   <g id="patch_112">
    <path clip-path="url(#pe21e4ab453)" d="M 246.072364 200.06 
L 248.092727 200.06 
L 248.092727 183.33303 
L 246.072364 183.33303 
z
" style="fill:#1a1a1a;"/>
   </g>
   <g id="patch_113">
    <path clip-path="url(#pe21e4ab453)" d="M 248.092727 200.06 
L 250.113091 200.06 
L 250.113091 184.70273 
L 248.092727 184.70273 
z
" style="fill:#1a1a1a;"/>
   </g>
   <g id="patch_114">
    <path clip-path="url(#pe21e4ab453)" d="M 250.113091 200.06 
L 252.133455 200.06 
L 252.133455 185.131995 
L 250.113091 185.131995 
z
" style="fill:#1a1a1a;"/>
   </g>
   <g id="patch_115">
    <path clip-path="url(#pe21e4ab453)" d="M 252.133455 200.06 
L 254.153818 200.06 
L 254.153818 185.839659 
L 252.133455 185.839659 
z
" style="fill:#1a1a1a;"/>
   </g>
   <g id="patch_116">
    <path clip-path="url(#pe21e4ab453)" d="M 254.153818 200.06 
L 256.174182 200.06 
L 256.174182 188.348006 
L 254.153818 188.348006 
z
" style="fill:#1a1a1a;"/>
   </g>
   <g id="patch_117">
    <path clip-path="url(#pe21e4ab453)" d="M 256.174182 200.06 
L 258.194545 200.06 
L 258.194545 188.937511 
L 256.174182 188.937511 
z
" style="fill:#1a1a1a;"/>
   </g>
   <g id="patch_118">
    <path clip-path="url(#pe21e4ab453)" d="M 258.194545 200.06 
L 260.214909 200.06 
L 260.214909 190.256775 
L 258.194545 190.256775 
z
" style="fill:#1a1a1a;"/>
   </g>
   <g id="patch_119">
    <path clip-path="url(#pe21e4ab453)" d="M 260.214909 200.06 
L 262.235273 200.06 
L 262.235273 190.566137 
L 260.214909 190.566137 
z
" style="fill:#1a1a1a;"/>
   </g>
   <g id="patch_120">
    <path clip-path="url(#pe21e4ab453)" d="M 262.235273 200.06 
L 264.255636 200.06 
L 264.255636 191.882456 
L 262.235273 191.882456 
z
" style="fill:#1a1a1a;"/>
   </g>
   <g id="patch_121">
    <path clip-path="url(#pe21e4ab453)" d="M 264.255636 200.06 
L 266.276 200.06 
L 266.276 192.682487 
L 264.255636 192.682487 
z
" style="fill:#1a1a1a;"/>
   </g>
   <g id="patch_122">
    <path clip-path="url(#pe21e4ab453)" d="M 266.276 200.06 
L 268.296364 200.06 
L 268.296364 192.828221 
L 266.276 192.828221 
z
" style="fill:#1a1a1a;"/>
   </g>
   <g id="patch_123">
    <path clip-path="url(#pe21e4ab453)" d="M 268.296364 200.06 
L 270.316727 200.06 
L 270.316727 193.002926 
L 268.296364 193.002926 
z
" style="fill:#1a1a1a;"/>
   </g>
   <g id="patch_124">
    <path clip-path="url(#pe21e4ab453)" d="M 270.316727 200.06 
L 272.337091 200.06 
L 272.337091 193.098126 
L 270.316727 193.098126 
z
" style="fill:#1a1a1a;"/>
   </g>
   <g id="patch_125">
    <path clip-path="url(#pe21e4ab453)" d="M 272.337091 200.06 
L 274.357455 200.06 
L 274.357455 193.496628 
L 272.337091 193.496628 
z
" style="fill:#1a1a1a;"/>
   </g>
   <g id="patch_126">
    <path clip-path="url(#pe21e4ab453)" d="M 274.357455 200.06 
L 276.377818 200.06 
L 276.377818 194.070311 
L 274.357455 194.070311 
z
" style="fill:#1a1a1a;"/>
   </g>
   <g id="patch_127">
    <path clip-path="url(#pe21e4ab453)" d="M 276.377818 200.06 
L 278.398182 200.06 
L 278.398182 194.47498 
L 276.377818 194.47498 
z
" style="fill:#1a1a1a;"/>
   </g>
   <g id="patch_128">
    <path clip-path="url(#pe21e4ab453)" d="M 278.398182 200.06 
L 280.418545 200.06 
L 280.418545 194.759972 
L 278.398182 194.759972 
z
" style="fill:#1a1a1a;"/>
   </g>
   <g id="patch_129">
    <path clip-path="url(#pe21e4ab453)" d="M 280.418545 200.06 
L 282.438909 200.06 
L 282.438909 195.326832 
L 280.418545 195.326832 
z
" style="fill:#1a1a1a;"/>
   </g>
   <g id="patch_130">
    <path clip-path="url(#pe21e4ab453)" d="M 282.438909 200.06 
L 284.459273 200.06 
L 284.459273 195.459492 
L 282.438909 195.459492 
z
" style="fill:#1a1a1a;"/>
   </g>
   <g id="patch_131">
    <path clip-path="url(#pe21e4ab453)" d="M 284.459273 200.06 
L 286.479636 200.06 
L 286.479636 195.588414 
L 284.459273 195.588414 
z
" style="fill:#1a1a1a;"/>
   </g>
   <g id="patch_132">
    <path clip-path="url(#pe21e4ab453)" d="M 286.479636 200.06 
L 288.5 200.06 
L 288.5 195.968391 
L 286.479636 195.968391 
z
" style="fill:#1a1a1a;"/>
   </g>
   <g id="patch_133">
    <path clip-path="url(#pe21e4ab453)" d="M 288.5 200.06 
L 290.520364 200.06 
L 290.520364 196.083458 
L 288.5 196.083458 
z
" style="fill:#1a1a1a;"/>
   </g>
   <g id="patch_134">
    <path clip-path="url(#pe21e4ab453)" d="M 290.520364 200.06 
L 292.540727 200.06 
L 292.540727 196.207514 
L 290.520364 196.207514 
z
" style="fill:#1a1a1a;"/>
   </g>
   <g id="patch_135">
    <path clip-path="url(#pe21e4ab453)" d="M 292.540727 200.06 
L 294.561091 200.06 
L 294.561091 196.33725 
L 292.540727 196.33725 
z
" style="fill:#1a1a1a;"/>
   </g>
   <g id="patch_136">
    <path clip-path="url(#pe21e4ab453)" d="M 294.561091 200.06 
L 296.581455 200.06 
L 296.581455 196.441318 
L 294.561091 196.441318 
z
" style="fill:#1a1a1a;"/>
   </g>
   <g id="patch_137">
    <path clip-path="url(#pe21e4ab453)" d="M 296.581455 200.06 
L 298.601818 200.06 
L 298.601818 196.798847 
L 296.581455 196.798847 
z
" style="fill:#1a1a1a;"/>
   </g>
   <g id="patch_138">
    <path clip-path="url(#pe21e4ab453)" d="M 298.601818 200.06 
L 300.622182 200.06 
L 300.622182 196.922118 
L 298.601818 196.922118 
z
" style="fill:#1a1a1a;"/>
   </g>
   <g id="patch_139">
    <path clip-path="url(#pe21e4ab453)" d="M 300.622182 200.06 
L 302.642545 200.06 
L 302.642545 197.178058 
L 300.622182 197.178058 
z
" style="fill:#1a1a1a;"/>
   </g>
   <g id="patch_140">
    <path clip-path="url(#pe21e4ab453)" d="M 302.642545 200.06 
L 304.662909 200.06 
L 304.662909 197.324628 
L 302.642545 197.324628 
z
" style="fill:#1a1a1a;"/>
   </g>
   <g id="patch_141">
    <path clip-path="url(#pe21e4ab453)" d="M 304.662909 200.06 
L 306.683273 200.06 
L 306.683273 197.409685 
L 304.662909 197.409685 
z
" style="fill:#1a1a1a;"/>
   </g>
   <g id="patch_142">
    <path clip-path="url(#pe21e4ab453)" d="M 306.683273 200.06 
L 308.703636 200.06 
L 308.703636 197.690928 
L 306.683273 197.690928 
z
" style="fill:#1a1a1a;"/>
   </g>
   <g id="patch_143">
    <path clip-path="url(#pe21e4ab453)" d="M 308.703636 200.06 
L 310.724 200.06 
L 310.724 197.799647 
L 308.703636 197.799647 
z
" style="fill:#1a1a1a;"/>
   </g>
   <g id="patch_144">
    <path clip-path="url(#pe21e4ab453)" d="M 310.724 200.06 
L 312.744364 200.06 
L 312.744364 197.82823 
L 310.724 197.82823 
z
" style="fill:#1a1a1a;"/>
   </g>
   <g id="patch_145">
    <path clip-path="url(#pe21e4ab453)" d="M 312.744364 200.06 
L 314.764727 200.06 
L 314.764727 197.838685 
L 312.744364 197.838685 
z
" style="fill:#1a1a1a;"/>
   </g>
   <g id="patch_146">
    <path clip-path="url(#pe21e4ab453)" d="M 314.764727 200.06 
L 316.785091 200.06 
L 316.785091 197.879819 
L 314.764727 197.879819 
z
" style="fill:#1a1a1a;"/>
   </g>
   <g id="patch_147">
    <path clip-path="url(#pe21e4ab453)" d="M 316.785091 200.06 
L 318.805455 200.06 
L 318.805455 197.962423 
L 316.785091 197.962423 
z
" style="fill:#1a1a1a;"/>
   </g>
   <g id="patch_148">
    <path clip-path="url(#pe21e4ab453)" d="M 318.805455 200.06 
L 320.825818 200.06 
L 320.825818 198.074343 
L 318.805455 198.074343 
z
" style="fill:#1a1a1a;"/>
   </g>
   <g id="patch_149">
    <path clip-path="url(#pe21e4ab453)" d="M 320.825818 200.06 
L 322.846182 200.06 
L 322.846182 198.210605 
L 320.825818 198.210605 
z
" style="fill:#1a1a1a;"/>
   </g>
   <g id="patch_150">
    <path clip-path="url(#pe21e4ab453)" d="M 322.846182 200.06 
L 324.866545 200.06 
L 324.866545 198.273577 
L 322.846182 198.273577 
z
" style="fill:#1a1a1a;"/>
   </g>
   <g id="patch_151">
    <path clip-path="url(#pe21e4ab453)" d="M 324.866545 200.06 
L 326.886909 200.06 
L 326.886909 198.375882 
L 324.866545 198.375882 
z
" style="fill:#1a1a1a;"/>
   </g>
   <g id="patch_152">
    <path clip-path="url(#pe21e4ab453)" d="M 326.886909 200.06 
L 328.907273 200.06 
L 328.907273 198.400063 
L 326.886909 198.400063 
z
" style="fill:#1a1a1a;"/>
   </g>
   <g id="matplotlib.axis_1"/>
   <g id="matplotlib.axis_2"/>
   <g id="patch_153">
    <path d="M 10.7 200.06 
L 10.7 10.7 
" style="fill:none;stroke:#000000;stroke-linecap:square;stroke-linejoin:miter;stroke-width:0.8;"/>
   </g>
   <g id="patch_154">
    <path d="M 344.06 200.06 
L 344.06 10.7 
" style="fill:none;stroke:#000000;stroke-linecap:square;stroke-linejoin:miter;stroke-width:0.8;"/>
   </g>
   <g id="patch_155">
    <path d="M 10.7 200.06 
L 344.06 200.06 
" style="fill:none;stroke:#000000;stroke-linecap:square;stroke-linejoin:miter;stroke-width:0.8;"/>
   </g>
   <g id="patch_156">
    <path d="M 10.7 10.7 
L 344.06 10.7 
" style="fill:none;stroke:#000000;stroke-linecap:square;stroke-linejoin:miter;stroke-width:0.8;"/>
   </g>
  </g>
 </g>
 <defs>
  <clipPath id="pe21e4ab453">
   <rect height="189.36" width="333.36" x="10.7" y="10.7"/>
  </clipPath>
 </defs>
</svg>
