<?xml version="1.0" encoding="utf-8" standalone="no"?>
<!DOCTYPE svg PUBLIC "-//W3C//DTD SVG 1.1//EN"
  "http://www.w3.org/Graphics/SVG/1.1/DTD/svg11.dtd">
<!-- Created with matplotlib (http://matplotlib.org/) -->
<svg height="210pt" version="1.1" viewBox="0 0 354 210" width="354pt" xmlns="http://www.w3.org/2000/svg" xmlns:xlink="http://www.w3.org/1999/xlink">
 <defs>
  <style type="text/css">
*{stroke-linecap:butt;stroke-linejoin:round;}
  </style>
 </defs>
 <g id="figure_1">
  <g id="patch_1">
   <path d="M 0 210.76 
L 354.76 210.76 
L 354.76 0 
L 0 0 
z
" style="fill:#ffffff;"/>
  </g>
  <g id="axes_1">
   <g id="patch_2">
    <path d="M 10.7 200.06 
L 344.06 200.06 
L 344.06 10.7 
L 10.7 10.7 
z
" style="fill:#ffffff;"/>
   </g>
   <g id="patch_3">
    <path clip-path="url(#p022d914694)" d="M 25.852727 200.06 
L 27.873091 200.06 
L 27.873091 199.946103 
L 25.852727 199.946103 
z
" style="fill:#1a1a1a;"/>
   </g>
   <g id="patch_4">
    <path clip-path="url(#p022d914694)" d="M 27.873091 200.06 
L 29.893455 200.06 
L 29.893455 199.931486 
L 27.873091 199.931486 
z
" style="fill:#1a1a1a;"/>
   </g>
   <g id="patch_5">
    <path clip-path="url(#p022d914694)" d="M 29.893455 200.06 
L 31.913818 200.06 
L 31.913818 199.929841 
L 29.893455 199.929841 
z
" style="fill:#1a1a1a;"/>
   </g>
   <g id="patch_6">
    <path clip-path="url(#p022d914694)" d="M 31.913818 200.06 
L 33.934182 200.06 
L 33.934182 199.913538 
L 31.913818 199.913538 
z
" style="fill:#1a1a1a;"/>
   </g>
   <g id="patch_7">
    <path clip-path="url(#p022d914694)" d="M 33.934182 200.06 
L 35.954545 200.06 
L 35.954545 199.887329 
L 33.934182 199.887329 
z
" style="fill:#1a1a1a;"/>
   </g>
   <g id="patch_8">
    <path clip-path="url(#p022d914694)" d="M 35.954545 200.06 
L 37.974909 200.06 
L 37.974909 199.877001 
L 35.954545 199.877001 
z
" style="fill:#1a1a1a;"/>
   </g>
   <g id="patch_9">
    <path clip-path="url(#p022d914694)" d="M 37.974909 200.06 
L 39.995273 200.06 
L 39.995273 199.862704 
L 37.974909 199.862704 
z
" style="fill:#1a1a1a;"/>
   </g>
   <g id="patch_10">
    <path clip-path="url(#p022d914694)" d="M 39.995273 200.06 
L 42.015636 200.06 
L 42.015636 199.85608 
L 39.995273 199.85608 
z
" style="fill:#1a1a1a;"/>
   </g>
   <g id="patch_11">
    <path clip-path="url(#p022d914694)" d="M 42.015636 200.06 
L 44.036 200.06 
L 44.036 199.851991 
L 42.015636 199.851991 
z
" style="fill:#1a1a1a;"/>
   </g>
   <g id="patch_12">
    <path clip-path="url(#p022d914694)" d="M 44.036 200.06 
L 46.056364 200.06 
L 46.056364 199.84852 
L 44.036 199.84852 
z
" style="fill:#1a1a1a;"/>
   </g>
   <g id="patch_13">
    <path clip-path="url(#p022d914694)" d="M 46.056364 200.06 
L 48.076727 200.06 
L 48.076727 199.830729 
L 46.056364 199.830729 
z
" style="fill:#1a1a1a;"/>
   </g>
   <g id="patch_14">
    <path clip-path="url(#p022d914694)" d="M 48.076727 200.06 
L 50.097091 200.06 
L 50.097091 199.823595 
L 48.076727 199.823595 
z
" style="fill:#1a1a1a;"/>
   </g>
   <g id="patch_15">
    <path clip-path="url(#p022d914694)" d="M 50.097091 200.06 
L 52.117455 200.06 
L 52.117455 199.800399 
L 50.097091 199.800399 
z
" style="fill:#1a1a1a;"/>
   </g>
   <g id="patch_16">
    <path clip-path="url(#p022d914694)" d="M 52.117455 200.06 
L 54.137818 200.06 
L 54.137818 199.796435 
L 52.117455 199.796435 
z
" style="fill:#1a1a1a;"/>
   </g>
   <g id="patch_17">
    <path clip-path="url(#p022d914694)" d="M 54.137818 200.06 
L 56.158182 200.06 
L 56.158182 199.747003 
L 54.137818 199.747003 
z
" style="fill:#1a1a1a;"/>
   </g>
   <g id="patch_18">
    <path clip-path="url(#p022d914694)" d="M 56.158182 200.06 
L 58.178545 200.06 
L 58.178545 199.722186 
L 56.158182 199.722186 
z
" style="fill:#1a1a1a;"/>
   </g>
   <g id="patch_19">
    <path clip-path="url(#p022d914694)" d="M 58.178545 200.06 
L 60.198909 200.06 
L 60.198909 199.714388 
L 58.178545 199.714388 
z
" style="fill:#1a1a1a;"/>
   </g>
   <g id="patch_20">
    <path clip-path="url(#p022d914694)" d="M 60.198909 200.06 
L 62.219273 200.06 
L 62.219273 199.686628 
L 60.198909 199.686628 
z
" style="fill:#1a1a1a;"/>
   </g>
   <g id="patch_21">
    <path clip-path="url(#p022d914694)" d="M 62.219273 200.06 
L 64.239636 200.06 
L 64.239636 199.660992 
L 62.219273 199.660992 
z
" style="fill:#1a1a1a;"/>
   </g>
   <g id="patch_22">
    <path clip-path="url(#p022d914694)" d="M 64.239636 200.06 
L 66.26 200.06 
L 66.26 199.617403 
L 64.239636 199.617403 
z
" style="fill:#1a1a1a;"/>
   </g>
   <g id="patch_23">
    <path clip-path="url(#p022d914694)" d="M 66.26 200.06 
L 68.280364 200.06 
L 68.280364 199.588215 
L 66.26 199.588215 
z
" style="fill:#1a1a1a;"/>
   </g>
   <g id="patch_24">
    <path clip-path="url(#p022d914694)" d="M 68.280364 200.06 
L 70.300727 200.06 
L 70.300727 199.563839 
L 68.280364 199.563839 
z
" style="fill:#1a1a1a;"/>
   </g>
   <g id="patch_25">
    <path clip-path="url(#p022d914694)" d="M 70.300727 200.06 
L 72.321091 200.06 
L 72.321091 199.500123 
L 70.300727 199.500123 
z
" style="fill:#1a1a1a;"/>
   </g>
   <g id="patch_26">
    <path clip-path="url(#p022d914694)" d="M 72.321091 200.06 
L 74.341455 200.06 
L 74.341455 199.476326 
L 72.321091 199.476326 
z
" style="fill:#1a1a1a;"/>
   </g>
   <g id="patch_27">
    <path clip-path="url(#p022d914694)" d="M 74.341455 200.06 
L 76.361818 200.06 
L 76.361818 199.409259 
L 74.341455 199.409259 
z
" style="fill:#1a1a1a;"/>
   </g>
   <g id="patch_28">
    <path clip-path="url(#p022d914694)" d="M 76.361818 200.06 
L 78.382182 200.06 
L 78.382182 199.400059 
L 76.361818 199.400059 
z
" style="fill:#1a1a1a;"/>
   </g>
   <g id="patch_29">
    <path clip-path="url(#p022d914694)" d="M 78.382182 200.06 
L 80.402545 200.06 
L 80.402545 199.366421 
L 78.382182 199.366421 
z
" style="fill:#1a1a1a;"/>
   </g>
   <g id="patch_30">
    <path clip-path="url(#p022d914694)" d="M 80.402545 200.06 
L 82.422909 200.06 
L 82.422909 199.31097 
L 80.402545 199.31097 
z
" style="fill:#1a1a1a;"/>
   </g>
   <g id="patch_31">
    <path clip-path="url(#p022d914694)" d="M 82.422909 200.06 
L 84.443273 200.06 
L 84.443273 199.285438 
L 82.422909 199.285438 
z
" style="fill:#1a1a1a;"/>
   </g>
   <g id="patch_32">
    <path clip-path="url(#p022d914694)" d="M 84.443273 200.06 
L 86.463636 200.06 
L 86.463636 199.261037 
L 84.443273 199.261037 
z
" style="fill:#1a1a1a;"/>
   </g>
   <g id="patch_33">
    <path clip-path="url(#p022d914694)" d="M 86.463636 200.06 
L 88.484 200.06 
L 88.484 198.993366 
L 86.463636 198.993366 
z
" style="fill:#1a1a1a;"/>
   </g>
   <g id="patch_34">
    <path clip-path="url(#p022d914694)" d="M 88.484 200.06 
L 90.504364 200.06 
L 90.504364 198.946693 
L 88.484 198.946693 
z
" style="fill:#1a1a1a;"/>
   </g>
   <g id="patch_35">
    <path clip-path="url(#p022d914694)" d="M 90.504364 200.06 
L 92.524727 200.06 
L 92.524727 198.884341 
L 90.504364 198.884341 
z
" style="fill:#1a1a1a;"/>
   </g>
   <g id="patch_36">
    <path clip-path="url(#p022d914694)" d="M 92.524727 200.06 
L 94.545091 200.06 
L 94.545091 198.825065 
L 92.524727 198.825065 
z
" style="fill:#1a1a1a;"/>
   </g>
   <g id="patch_37">
    <path clip-path="url(#p022d914694)" d="M 94.545091 200.06 
L 96.565455 200.06 
L 96.565455 198.783388 
L 94.545091 198.783388 
z
" style="fill:#1a1a1a;"/>
   </g>
   <g id="patch_38">
    <path clip-path="url(#p022d914694)" d="M 96.565455 200.06 
L 98.585818 200.06 
L 98.585818 198.739287 
L 96.565455 198.739287 
z
" style="fill:#1a1a1a;"/>
   </g>
   <g id="patch_39">
    <path clip-path="url(#p022d914694)" d="M 98.585818 200.06 
L 100.606182 200.06 
L 100.606182 198.637917 
L 98.585818 198.637917 
z
" style="fill:#1a1a1a;"/>
   </g>
   <g id="patch_40">
    <path clip-path="url(#p022d914694)" d="M 100.606182 200.06 
L 102.626545 200.06 
L 102.626545 198.491596 
L 100.606182 198.491596 
z
" style="fill:#1a1a1a;"/>
   </g>
   <g id="patch_41">
    <path clip-path="url(#p022d914694)" d="M 102.626545 200.06 
L 104.646909 200.06 
L 104.646909 198.178783 
L 102.626545 198.178783 
z
" style="fill:#1a1a1a;"/>
   </g>
   <g id="patch_42">
    <path clip-path="url(#p022d914694)" d="M 104.646909 200.06 
L 106.667273 200.06 
L 106.667273 198.152009 
L 104.646909 198.152009 
z
" style="fill:#1a1a1a;"/>
   </g>
   <g id="patch_43">
    <path clip-path="url(#p022d914694)" d="M 106.667273 200.06 
L 108.687636 200.06 
L 108.687636 197.964376 
L 106.667273 197.964376 
z
" style="fill:#1a1a1a;"/>
   </g>
   <g id="patch_44">
    <path clip-path="url(#p022d914694)" d="M 108.687636 200.06 
L 110.708 200.06 
L 110.708 197.869467 
L 108.687636 197.869467 
z
" style="fill:#1a1a1a;"/>
   </g>
   <g id="patch_45">
    <path clip-path="url(#p022d914694)" d="M 110.708 200.06 
L 112.728364 200.06 
L 112.728364 197.524052 
L 110.708 197.524052 
z
" style="fill:#1a1a1a;"/>
   </g>
   <g id="patch_46">
    <path clip-path="url(#p022d914694)" d="M 112.728364 200.06 
L 114.748727 200.06 
L 114.748727 197.199262 
L 112.728364 197.199262 
z
" style="fill:#1a1a1a;"/>
   </g>
   <g id="patch_47">
    <path clip-path="url(#p022d914694)" d="M 114.748727 200.06 
L 116.769091 200.06 
L 116.769091 196.881796 
L 114.748727 196.881796 
z
" style="fill:#1a1a1a;"/>
   </g>
   <g id="patch_48">
    <path clip-path="url(#p022d914694)" d="M 116.769091 200.06 
L 118.789455 200.06 
L 118.789455 196.432807 
L 116.769091 196.432807 
z
" style="fill:#1a1a1a;"/>
   </g>
   <g id="patch_49">
    <path clip-path="url(#p022d914694)" d="M 118.789455 200.06 
L 120.809818 200.06 
L 120.809818 196.014713 
L 118.789455 196.014713 
z
" style="fill:#1a1a1a;"/>
   </g>
   <g id="patch_50">
    <path clip-path="url(#p022d914694)" d="M 120.809818 200.06 
L 122.830182 200.06 
L 122.830182 195.732466 
L 120.809818 195.732466 
z
" style="fill:#1a1a1a;"/>
   </g>
   <g id="patch_51">
    <path clip-path="url(#p022d914694)" d="M 122.830182 200.06 
L 124.850545 200.06 
L 124.850545 195.10372 
L 122.830182 195.10372 
z
" style="fill:#1a1a1a;"/>
   </g>
   <g id="patch_52">
    <path clip-path="url(#p022d914694)" d="M 124.850545 200.06 
L 126.870909 200.06 
L 126.870909 194.910406 
L 124.850545 194.910406 
z
" style="fill:#1a1a1a;"/>
   </g>
   <g id="patch_53">
    <path clip-path="url(#p022d914694)" d="M 126.870909 200.06 
L 128.891273 200.06 
L 128.891273 194.454727 
L 126.870909 194.454727 
z
" style="fill:#1a1a1a;"/>
   </g>
   <g id="patch_54">
    <path clip-path="url(#p022d914694)" d="M 128.891273 200.06 
L 130.911636 200.06 
L 130.911636 193.30776 
L 128.891273 193.30776 
z
" style="fill:#1a1a1a;"/>
   </g>
   <g id="patch_55">
    <path clip-path="url(#p022d914694)" d="M 130.911636 200.06 
L 132.932 200.06 
L 132.932 193.225606 
L 130.911636 193.225606 
z
" style="fill:#1a1a1a;"/>
   </g>
   <g id="patch_56">
    <path clip-path="url(#p022d914694)" d="M 132.932 200.06 
L 134.952364 200.06 
L 134.952364 191.789958 
L 132.932 191.789958 
z
" style="fill:#1a1a1a;"/>
   </g>
   <g id="patch_57">
    <path clip-path="url(#p022d914694)" d="M 134.952364 200.06 
L 136.972727 200.06 
L 136.972727 189.824156 
L 134.952364 189.824156 
z
" style="fill:#1a1a1a;"/>
   </g>
   <g id="patch_58">
    <path clip-path="url(#p022d914694)" d="M 136.972727 200.06 
L 138.993091 200.06 
L 138.993091 189.308209 
L 136.972727 189.308209 
z
" style="fill:#1a1a1a;"/>
   </g>
   <g id="patch_59">
    <path clip-path="url(#p022d914694)" d="M 138.993091 200.06 
L 141.013455 200.06 
L 141.013455 187.938625 
L 138.993091 187.938625 
z
" style="fill:#1a1a1a;"/>
   </g>
   <g id="patch_60">
    <path clip-path="url(#p022d914694)" d="M 141.013455 200.06 
L 143.033818 200.06 
L 143.033818 185.155168 
L 141.013455 185.155168 
z
" style="fill:#1a1a1a;"/>
   </g>
   <g id="patch_61">
    <path clip-path="url(#p022d914694)" d="M 143.033818 200.06 
L 145.054182 200.06 
L 145.054182 184.557556 
L 143.033818 184.557556 
z
" style="fill:#1a1a1a;"/>
   </g>
   <g id="patch_62">
    <path clip-path="url(#p022d914694)" d="M 145.054182 200.06 
L 147.074545 200.06 
L 147.074545 183.676863 
L 145.054182 183.676863 
z
" style="fill:#1a1a1a;"/>
   </g>
   <g id="patch_63">
    <path clip-path="url(#p022d914694)" d="M 147.074545 200.06 
L 149.094909 200.06 
L 149.094909 182.357814 
L 147.074545 182.357814 
z
" style="fill:#1a1a1a;"/>
   </g>
   <g id="patch_64">
    <path clip-path="url(#p022d914694)" d="M 149.094909 200.06 
L 151.115273 200.06 
L 151.115273 178.54351 
L 149.094909 178.54351 
z
" style="fill:#1a1a1a;"/>
   </g>
   <g id="patch_65">
    <path clip-path="url(#p022d914694)" d="M 151.115273 200.06 
L 153.135636 200.06 
L 153.135636 177.13721 
L 151.115273 177.13721 
z
" style="fill:#1a1a1a;"/>
   </g>
   <g id="patch_66">
    <path clip-path="url(#p022d914694)" d="M 153.135636 200.06 
L 155.156 200.06 
L 155.156 176.469869 
L 153.135636 176.469869 
z
" style="fill:#1a1a1a;"/>
   </g>
   <g id="patch_67">
    <path clip-path="url(#p022d914694)" d="M 155.156 200.06 
L 157.176364 200.06 
L 157.176364 165.975041 
L 155.156 165.975041 
z
" style="fill:#1a1a1a;"/>
   </g>
   <g id="patch_68">
    <path clip-path="url(#p022d914694)" d="M 157.176364 200.06 
L 159.196727 200.06 
L 159.196727 153.222973 
L 157.176364 153.222973 
z
" style="fill:#1a1a1a;"/>
   </g>
   <g id="patch_69">
    <path clip-path="url(#p022d914694)" d="M 159.196727 200.06 
L 161.217091 200.06 
L 161.217091 139.760164 
L 159.196727 139.760164 
z
" style="fill:#1a1a1a;"/>
   </g>
   <g id="patch_70">
    <path clip-path="url(#p022d914694)" d="M 161.217091 200.06 
L 163.237455 200.06 
L 163.237455 125.710248 
L 161.217091 125.710248 
z
" style="fill:#1a1a1a;"/>
   </g>
   <g id="patch_71">
    <path clip-path="url(#p022d914694)" d="M 163.237455 200.06 
L 165.257818 200.06 
L 165.257818 120.990614 
L 163.237455 120.990614 
z
" style="fill:#1a1a1a;"/>
   </g>
   <g id="patch_72">
    <path clip-path="url(#p022d914694)" d="M 165.257818 200.06 
L 167.278182 200.06 
L 167.278182 100.874503 
L 165.257818 100.874503 
z
" style="fill:#1a1a1a;"/>
   </g>
   <g id="patch_73">
    <path clip-path="url(#p022d914694)" d="M 167.278182 200.06 
L 169.298545 200.06 
L 169.298545 85.86499 
L 167.278182 85.86499 
z
" style="fill:#1a1a1a;"/>
   </g>
   <g id="patch_74">
    <path clip-path="url(#p022d914694)" d="M 169.298545 200.06 
L 171.318909 200.06 
L 171.318909 72.735275 
L 169.298545 72.735275 
z
" style="fill:#1a1a1a;"/>
   </g>
   <g id="patch_75">
    <path clip-path="url(#p022d914694)" d="M 171.318909 200.06 
L 173.339273 200.06 
L 173.339273 69.122235 
L 171.318909 69.122235 
z
" style="fill:#1a1a1a;"/>
   </g>
   <g id="patch_76">
    <path clip-path="url(#p022d914694)" d="M 173.339273 200.06 
L 175.359636 200.06 
L 175.359636 68.098644 
L 173.339273 68.098644 
z
" style="fill:#1a1a1a;"/>
   </g>
   <g id="patch_77">
    <path clip-path="url(#p022d914694)" d="M 175.359636 200.06 
L 177.38 200.06 
L 177.38 64.037261 
L 175.359636 64.037261 
z
" style="fill:#1a1a1a;"/>
   </g>
   <g id="patch_78">
    <path clip-path="url(#p022d914694)" d="M 177.38 200.06 
L 179.400364 200.06 
L 179.400364 62.529629 
L 177.38 62.529629 
z
" style="fill:#1a1a1a;"/>
   </g>
   <g id="patch_79">
    <path clip-path="url(#p022d914694)" d="M 179.400364 200.06 
L 181.420727 200.06 
L 181.420727 66.991756 
L 179.400364 66.991756 
z
" style="fill:#1a1a1a;"/>
   </g>
   <g id="patch_80">
    <path clip-path="url(#p022d914694)" d="M 181.420727 200.06 
L 183.441091 200.06 
L 183.441091 68.26011 
L 181.420727 68.26011 
z
" style="fill:#1a1a1a;"/>
   </g>
   <g id="patch_81">
    <path clip-path="url(#p022d914694)" d="M 183.441091 200.06 
L 185.461455 200.06 
L 185.461455 69.330752 
L 183.441091 69.330752 
z
" style="fill:#1a1a1a;"/>
   </g>
   <g id="patch_82">
    <path clip-path="url(#p022d914694)" d="M 185.461455 200.06 
L 187.481818 200.06 
L 187.481818 73.877467 
L 185.461455 73.877467 
z
" style="fill:#1a1a1a;"/>
   </g>
   <g id="patch_83">
    <path clip-path="url(#p022d914694)" d="M 187.481818 200.06 
L 189.502182 200.06 
L 189.502182 88.657011 
L 187.481818 88.657011 
z
" style="fill:#1a1a1a;"/>
   </g>
   <g id="patch_84">
    <path clip-path="url(#p022d914694)" d="M 189.502182 200.06 
L 191.522545 200.06 
L 191.522545 107.58671 
L 189.502182 107.58671 
z
" style="fill:#1a1a1a;"/>
   </g>
   <g id="patch_85">
    <path clip-path="url(#p022d914694)" d="M 191.522545 200.06 
L 193.542909 200.06 
L 193.542909 125.023011 
L 191.522545 125.023011 
z
" style="fill:#1a1a1a;"/>
   </g>
   <g id="patch_86">
    <path clip-path="url(#p022d914694)" d="M 193.542909 200.06 
L 195.563273 200.06 
L 195.563273 137.938362 
L 193.542909 137.938362 
z
" style="fill:#1a1a1a;"/>
   </g>
   <g id="patch_87">
    <path clip-path="url(#p022d914694)" d="M 195.563273 200.06 
L 197.583636 200.06 
L 197.583636 140.961638 
L 195.563273 140.961638 
z
" style="fill:#1a1a1a;"/>
   </g>
   <g id="patch_88">
    <path clip-path="url(#p022d914694)" d="M 197.583636 200.06 
L 199.604 200.06 
L 199.604 163.883112 
L 197.583636 163.883112 
z
" style="fill:#1a1a1a;"/>
   </g>
   <g id="patch_89">
    <path clip-path="url(#p022d914694)" d="M 199.604 200.06 
L 201.624364 200.06 
L 201.624364 172.813391 
L 199.604 172.813391 
z
" style="fill:#1a1a1a;"/>
   </g>
   <g id="patch_90">
    <path clip-path="url(#p022d914694)" d="M 201.624364 200.06 
L 203.644727 200.06 
L 203.644727 177.136515 
L 201.624364 177.136515 
z
" style="fill:#1a1a1a;"/>
   </g>
   <g id="patch_91">
    <path clip-path="url(#p022d914694)" d="M 203.644727 200.06 
L 205.665091 200.06 
L 205.665091 178.248379 
L 203.644727 178.248379 
z
" style="fill:#1a1a1a;"/>
   </g>
   <g id="patch_92">
    <path clip-path="url(#p022d914694)" d="M 205.665091 200.06 
L 207.685455 200.06 
L 207.685455 180.783827 
L 205.665091 180.783827 
z
" style="fill:#1a1a1a;"/>
   </g>
   <g id="patch_93">
    <path clip-path="url(#p022d914694)" d="M 207.685455 200.06 
L 209.705818 200.06 
L 209.705818 182.608345 
L 207.685455 182.608345 
z
" style="fill:#1a1a1a;"/>
   </g>
   <g id="patch_94">
    <path clip-path="url(#p022d914694)" d="M 209.705818 200.06 
L 211.726182 200.06 
L 211.726182 183.886719 
L 209.705818 183.886719 
z
" style="fill:#1a1a1a;"/>
   </g>
   <g id="patch_95">
    <path clip-path="url(#p022d914694)" d="M 211.726182 200.06 
L 213.746545 200.06 
L 213.746545 185.122248 
L 211.726182 185.122248 
z
" style="fill:#1a1a1a;"/>
   </g>
   <g id="patch_96">
    <path clip-path="url(#p022d914694)" d="M 213.746545 200.06 
L 215.766909 200.06 
L 215.766909 185.305391 
L 213.746545 185.305391 
z
" style="fill:#1a1a1a;"/>
   </g>
   <g id="patch_97">
    <path clip-path="url(#p022d914694)" d="M 215.766909 200.06 
L 217.787273 200.06 
L 217.787273 188.933607 
L 215.766909 188.933607 
z
" style="fill:#1a1a1a;"/>
   </g>
   <g id="patch_98">
    <path clip-path="url(#p022d914694)" d="M 217.787273 200.06 
L 219.807636 200.06 
L 219.807636 189.309021 
L 217.787273 189.309021 
z
" style="fill:#1a1a1a;"/>
   </g>
   <g id="patch_99">
    <path clip-path="url(#p022d914694)" d="M 219.807636 200.06 
L 221.828 200.06 
L 221.828 190.689809 
L 219.807636 190.689809 
z
" style="fill:#1a1a1a;"/>
   </g>
   <g id="patch_100">
    <path clip-path="url(#p022d914694)" d="M 221.828 200.06 
L 223.848364 200.06 
L 223.848364 192.001037 
L 221.828 192.001037 
z
" style="fill:#1a1a1a;"/>
   </g>
   <g id="patch_101">
    <path clip-path="url(#p022d914694)" d="M 223.848364 200.06 
L 225.868727 200.06 
L 225.868727 193.271863 
L 223.848364 193.271863 
z
" style="fill:#1a1a1a;"/>
   </g>
   <g id="patch_102">
    <path clip-path="url(#p022d914694)" d="M 225.868727 200.06 
L 227.889091 200.06 
L 227.889091 194.138282 
L 225.868727 194.138282 
z
" style="fill:#1a1a1a;"/>
   </g>
   <g id="patch_103">
    <path clip-path="url(#p022d914694)" d="M 227.889091 200.06 
L 229.909455 200.06 
L 229.909455 194.886978 
L 227.889091 194.886978 
z
" style="fill:#1a1a1a;"/>
   </g>
   <g id="patch_104">
    <path clip-path="url(#p022d914694)" d="M 229.909455 200.06 
L 231.929818 200.06 
L 231.929818 195.065682 
L 229.909455 195.065682 
z
" style="fill:#1a1a1a;"/>
   </g>
   <g id="patch_105">
    <path clip-path="url(#p022d914694)" d="M 231.929818 200.06 
L 233.950182 200.06 
L 233.950182 195.220508 
L 231.929818 195.220508 
z
" style="fill:#1a1a1a;"/>
   </g>
   <g id="patch_106">
    <path clip-path="url(#p022d914694)" d="M 233.950182 200.06 
L 235.970545 200.06 
L 235.970545 195.849464 
L 233.950182 195.849464 
z
" style="fill:#1a1a1a;"/>
   </g>
   <g id="patch_107">
    <path clip-path="url(#p022d914694)" d="M 235.970545 200.06 
L 237.990909 200.06 
L 237.990909 196.190998 
L 235.970545 196.190998 
z
" style="fill:#1a1a1a;"/>
   </g>
   <g id="patch_108">
    <path clip-path="url(#p022d914694)" d="M 237.990909 200.06 
L 240.011273 200.06 
L 240.011273 196.754614 
L 237.990909 196.754614 
z
" style="fill:#1a1a1a;"/>
   </g>
   <g id="patch_109">
    <path clip-path="url(#p022d914694)" d="M 240.011273 200.06 
L 242.031636 200.06 
L 242.031636 197.125187 
L 240.011273 197.125187 
z
" style="fill:#1a1a1a;"/>
   </g>
   <g id="patch_110">
    <path clip-path="url(#p022d914694)" d="M 242.031636 200.06 
L 244.052 200.06 
L 244.052 197.369923 
L 242.031636 197.369923 
z
" style="fill:#1a1a1a;"/>
   </g>
   <g id="patch_111">
    <path clip-path="url(#p022d914694)" d="M 244.052 200.06 
L 246.072364 200.06 
L 246.072364 197.709484 
L 244.052 197.709484 
z
" style="fill:#1a1a1a;"/>
   </g>
   <g id="patch_112">
    <path clip-path="url(#p022d914694)" d="M 246.072364 200.06 
L 248.092727 200.06 
L 248.092727 197.943616 
L 246.072364 197.943616 
z
" style="fill:#1a1a1a;"/>
   </g>
   <g id="patch_113">
    <path clip-path="url(#p022d914694)" d="M 248.092727 200.06 
L 250.113091 200.06 
L 250.113091 197.971771 
L 248.092727 197.971771 
z
" style="fill:#1a1a1a;"/>
   </g>
   <g id="patch_114">
    <path clip-path="url(#p022d914694)" d="M 250.113091 200.06 
L 252.133455 200.06 
L 252.133455 198.15266 
L 250.113091 198.15266 
z
" style="fill:#1a1a1a;"/>
   </g>
   <g id="patch_115">
    <path clip-path="url(#p022d914694)" d="M 252.133455 200.06 
L 254.153818 200.06 
L 254.153818 198.290944 
L 252.133455 198.290944 
z
" style="fill:#1a1a1a;"/>
   </g>
   <g id="patch_116">
    <path clip-path="url(#p022d914694)" d="M 254.153818 200.06 
L 256.174182 200.06 
L 256.174182 198.612448 
L 254.153818 198.612448 
z
" style="fill:#1a1a1a;"/>
   </g>
   <g id="patch_117">
    <path clip-path="url(#p022d914694)" d="M 256.174182 200.06 
L 258.194545 200.06 
L 258.194545 198.699041 
L 256.174182 198.699041 
z
" style="fill:#1a1a1a;"/>
   </g>
   <g id="patch_118">
    <path clip-path="url(#p022d914694)" d="M 258.194545 200.06 
L 260.214909 200.06 
L 260.214909 198.739953 
L 258.194545 198.739953 
z
" style="fill:#1a1a1a;"/>
   </g>
   <g id="patch_119">
    <path clip-path="url(#p022d914694)" d="M 260.214909 200.06 
L 262.235273 200.06 
L 262.235273 198.801004 
L 260.214909 198.801004 
z
" style="fill:#1a1a1a;"/>
   </g>
   <g id="patch_120">
    <path clip-path="url(#p022d914694)" d="M 262.235273 200.06 
L 264.255636 200.06 
L 264.255636 198.874091 
L 262.235273 198.874091 
z
" style="fill:#1a1a1a;"/>
   </g>
   <g id="patch_121">
    <path clip-path="url(#p022d914694)" d="M 264.255636 200.06 
L 266.276 200.06 
L 266.276 198.925968 
L 264.255636 198.925968 
z
" style="fill:#1a1a1a;"/>
   </g>
   <g id="patch_122">
    <path clip-path="url(#p022d914694)" d="M 266.276 200.06 
L 268.296364 200.06 
L 268.296364 198.963395 
L 266.276 198.963395 
z
" style="fill:#1a1a1a;"/>
   </g>
   <g id="patch_123">
    <path clip-path="url(#p022d914694)" d="M 268.296364 200.06 
L 270.316727 200.06 
L 270.316727 199.250581 
L 268.296364 199.250581 
z
" style="fill:#1a1a1a;"/>
   </g>
   <g id="patch_124">
    <path clip-path="url(#p022d914694)" d="M 270.316727 200.06 
L 272.337091 200.06 
L 272.337091 199.264305 
L 270.316727 199.264305 
z
" style="fill:#1a1a1a;"/>
   </g>
   <g id="patch_125">
    <path clip-path="url(#p022d914694)" d="M 272.337091 200.06 
L 274.357455 200.06 
L 274.357455 199.302557 
L 272.337091 199.302557 
z
" style="fill:#1a1a1a;"/>
   </g>
   <g id="patch_126">
    <path clip-path="url(#p022d914694)" d="M 274.357455 200.06 
L 276.377818 200.06 
L 276.377818 199.348125 
L 274.357455 199.348125 
z
" style="fill:#1a1a1a;"/>
   </g>
   <g id="patch_127">
    <path clip-path="url(#p022d914694)" d="M 276.377818 200.06 
L 278.398182 200.06 
L 278.398182 199.377619 
L 276.377818 199.377619 
z
" style="fill:#1a1a1a;"/>
   </g>
   <g id="patch_128">
    <path clip-path="url(#p022d914694)" d="M 278.398182 200.06 
L 280.418545 200.06 
L 280.418545 199.406992 
L 278.398182 199.406992 
z
" style="fill:#1a1a1a;"/>
   </g>
   <g id="patch_129">
    <path clip-path="url(#p022d914694)" d="M 280.418545 200.06 
L 282.438909 200.06 
L 282.438909 199.439708 
L 280.418545 199.439708 
z
" style="fill:#1a1a1a;"/>
   </g>
   <g id="patch_130">
    <path clip-path="url(#p022d914694)" d="M 282.438909 200.06 
L 284.459273 200.06 
L 284.459273 199.495987 
L 282.438909 199.495987 
z
" style="fill:#1a1a1a;"/>
   </g>
   <g id="patch_131">
    <path clip-path="url(#p022d914694)" d="M 284.459273 200.06 
L 286.479636 200.06 
L 286.479636 199.561882 
L 284.459273 199.561882 
z
" style="fill:#1a1a1a;"/>
   </g>
   <g id="patch_132">
    <path clip-path="url(#p022d914694)" d="M 286.479636 200.06 
L 288.5 200.06 
L 288.5 199.573836 
L 286.479636 199.573836 
z
" style="fill:#1a1a1a;"/>
   </g>
   <g id="patch_133">
    <path clip-path="url(#p022d914694)" d="M 288.5 200.06 
L 290.520364 200.06 
L 290.520364 199.594243 
L 288.5 199.594243 
z
" style="fill:#1a1a1a;"/>
   </g>
   <g id="patch_134">
    <path clip-path="url(#p022d914694)" d="M 290.520364 200.06 
L 292.540727 200.06 
L 292.540727 199.64485 
L 290.520364 199.64485 
z
" style="fill:#1a1a1a;"/>
   </g>
   <g id="patch_135">
    <path clip-path="url(#p022d914694)" d="M 292.540727 200.06 
L 294.561091 200.06 
L 294.561091 199.681975 
L 292.540727 199.681975 
z
" style="fill:#1a1a1a;"/>
   </g>
   <g id="patch_136">
    <path clip-path="url(#p022d914694)" d="M 294.561091 200.06 
L 296.581455 200.06 
L 296.581455 199.691774 
L 294.561091 199.691774 
z
" style="fill:#1a1a1a;"/>
   </g>
   <g id="patch_137">
    <path clip-path="url(#p022d914694)" d="M 296.581455 200.06 
L 298.601818 200.06 
L 298.601818 199.72056 
L 296.581455 199.72056 
z
" style="fill:#1a1a1a;"/>
   </g>
   <g id="patch_138">
    <path clip-path="url(#p022d914694)" d="M 298.601818 200.06 
L 300.622182 200.06 
L 300.622182 199.7308 
L 298.601818 199.7308 
z
" style="fill:#1a1a1a;"/>
   </g>
   <g id="patch_139">
    <path clip-path="url(#p022d914694)" d="M 300.622182 200.06 
L 302.642545 200.06 
L 302.642545 199.754456 
L 300.622182 199.754456 
z
" style="fill:#1a1a1a;"/>
   </g>
   <g id="patch_140">
    <path clip-path="url(#p022d914694)" d="M 302.642545 200.06 
L 304.662909 200.06 
L 304.662909 199.800364 
L 302.642545 199.800364 
z
" style="fill:#1a1a1a;"/>
   </g>
   <g id="patch_141">
    <path clip-path="url(#p022d914694)" d="M 304.662909 200.06 
L 306.683273 200.06 
L 306.683273 199.816304 
L 304.662909 199.816304 
z
" style="fill:#1a1a1a;"/>
   </g>
   <g id="patch_142">
    <path clip-path="url(#p022d914694)" d="M 306.683273 200.06 
L 308.703636 200.06 
L 308.703636 199.827259 
L 306.683273 199.827259 
z
" style="fill:#1a1a1a;"/>
   </g>
   <g id="patch_143">
    <path clip-path="url(#p022d914694)" d="M 308.703636 200.06 
L 310.724 200.06 
L 310.724 199.842221 
L 308.703636 199.842221 
z
" style="fill:#1a1a1a;"/>
   </g>
   <g id="patch_144">
    <path clip-path="url(#p022d914694)" d="M 310.724 200.06 
L 312.744364 200.06 
L 312.744364 199.848866 
L 310.724 199.848866 
z
" style="fill:#1a1a1a;"/>
   </g>
   <g id="patch_145">
    <path clip-path="url(#p022d914694)" d="M 312.744364 200.06 
L 314.764727 200.06 
L 314.764727 199.854724 
L 312.744364 199.854724 
z
" style="fill:#1a1a1a;"/>
   </g>
   <g id="patch_146">
    <path clip-path="url(#p022d914694)" d="M 314.764727 200.06 
L 316.785091 200.06 
L 316.785091 199.861591 
L 314.764727 199.861591 
z
" style="fill:#1a1a1a;"/>
   </g>
   <g id="patch_147">
    <path clip-path="url(#p022d914694)" d="M 316.785091 200.06 
L 318.805455 200.06 
L 318.805455 199.867571 
L 316.785091 199.867571 
z
" style="fill:#1a1a1a;"/>
   </g>
   <g id="patch_148">
    <path clip-path="url(#p022d914694)" d="M 318.805455 200.06 
L 320.825818 200.06 
L 320.825818 199.878061 
L 318.805455 199.878061 
z
" style="fill:#1a1a1a;"/>
   </g>
   <g id="patch_149">
    <path clip-path="url(#p022d914694)" d="M 320.825818 200.06 
L 322.846182 200.06 
L 322.846182 199.899877 
L 320.825818 199.899877 
z
" style="fill:#1a1a1a;"/>
   </g>
   <g id="patch_150">
    <path clip-path="url(#p022d914694)" d="M 322.846182 200.06 
L 324.866545 200.06 
L 324.866545 199.917319 
L 322.846182 199.917319 
z
" style="fill:#1a1a1a;"/>
   </g>
   <g id="patch_151">
    <path clip-path="url(#p022d914694)" d="M 324.866545 200.06 
L 326.886909 200.06 
L 326.886909 199.930912 
L 324.866545 199.930912 
z
" style="fill:#1a1a1a;"/>
   </g>
   <g id="patch_152">
    <path clip-path="url(#p022d914694)" d="M 326.886909 200.06 
L 328.907273 200.06 
L 328.907273 199.935496 
L 326.886909 199.935496 
z
" style="fill:#1a1a1a;"/>
   </g>
   <g id="matplotlib.axis_1"/>
   <g id="matplotlib.axis_2"/>
   <g id="patch_153">
    <path d="M 10.7 200.06 
L 10.7 10.7 
" style="fill:none;stroke:#000000;stroke-linecap:square;stroke-linejoin:miter;stroke-width:0.8;"/>
   </g>
   <g id="patch_154">
    <path d="M 344.06 200.06 
L 344.06 10.7 
" style="fill:none;stroke:#000000;stroke-linecap:square;stroke-linejoin:miter;stroke-width:0.8;"/>
   </g>
   <g id="patch_155">
    <path d="M 10.7 200.06 
L 344.06 200.06 
" style="fill:none;stroke:#000000;stroke-linecap:square;stroke-linejoin:miter;stroke-width:0.8;"/>
   </g>
   <g id="patch_156">
    <path d="M 10.7 10.7 
L 344.06 10.7 
" style="fill:none;stroke:#000000;stroke-linecap:square;stroke-linejoin:miter;stroke-width:0.8;"/>
   </g>
  </g>
 </g>
 <defs>
  <clipPath id="p022d914694">
   <rect height="189.36" width="333.36" x="10.7" y="10.7"/>
  </clipPath>
 </defs>
</svg>
