<?xml version="1.0" encoding="utf-8" standalone="no"?>
<!DOCTYPE svg PUBLIC "-//W3C//DTD SVG 1.1//EN"
  "http://www.w3.org/Graphics/SVG/1.1/DTD/svg11.dtd">
<!-- Created with matplotlib (http://matplotlib.org/) -->
<svg height="354pt" version="1.1" viewBox="0 0 427 354" width="427pt" xmlns="http://www.w3.org/2000/svg" xmlns:xlink="http://www.w3.org/1999/xlink">
 <defs>
  <style type="text/css">
*{stroke-linecap:butt;stroke-linejoin:round;}
  </style>
 </defs>
 <g id="figure_1">
  <g id="patch_1">
   <path d="M 0 354.04 
L 427.119687 354.04 
L 427.119687 0 
L 0 0 
z
" style="fill:#ffffff;"/>
  </g>
  <g id="axes_1">
   <g id="patch_2">
    <path d="M 81.619687 343.34 
L 416.419688 343.34 
L 416.419688 10.7 
L 81.619687 10.7 
z
" style="fill:#ffffff;"/>
   </g>
   <g id="PolyCollection_1">
    <defs>
     <path d="M 96.837869 -25.82 
L 96.837869 -204.94538 
L 100.14617 -204.94538 
L 103.45447 -204.94538 
L 106.762771 -204.94538 
L 110.071071 -204.94538 
L 113.379371 -204.94538 
L 116.687672 -204.94538 
L 119.995972 -204.94538 
L 123.304272 -204.94538 
L 126.612573 -204.94538 
L 129.920873 -204.94538 
L 133.229174 -204.94538 
L 136.537474 -204.94538 
L 139.845774 -204.94538 
L 143.154075 -204.94538 
L 146.462375 -204.94538 
L 149.770676 -204.94538 
L 153.078976 -204.94538 
L 156.387276 -204.94538 
L 159.695577 -204.94538 
L 163.003877 -204.94538 
L 166.312178 -204.94538 
L 169.620478 -204.94538 
L 172.928778 -204.94538 
L 176.237079 -204.94538 
L 179.545379 -204.94538 
L 182.85368 -204.94538 
L 186.16198 -204.94538 
L 189.47028 -204.94538 
L 192.778581 -204.94538 
L 196.086881 -204.94538 
L 199.395182 -204.94538 
L 202.703482 -204.94538 
L 206.011782 -204.94538 
L 209.320083 -204.94538 
L 212.628383 -204.94538 
L 215.936684 -204.94538 
L 219.244984 -204.94538 
L 222.553284 -204.94538 
L 225.861585 -204.94538 
L 229.169885 -204.94538 
L 232.478186 -204.94538 
L 235.786486 -204.94538 
L 239.094786 -204.94538 
L 242.403087 -204.94538 
L 245.711387 -204.94538 
L 249.019688 -204.94538 
L 252.327988 -204.94538 
L 255.636288 -204.94538 
L 258.944589 -204.94538 
L 262.252889 -204.94538 
L 265.561189 -204.94538 
L 268.86949 -204.94538 
L 272.17779 -204.94538 
L 275.486091 -204.94538 
L 278.794391 -204.94538 
L 282.102691 -204.94538 
L 285.410992 -204.94538 
L 288.719292 -204.94538 
L 292.027593 -204.94538 
L 295.335893 -204.94538 
L 298.644193 -204.94538 
L 301.952494 -204.94538 
L 305.260794 -204.94538 
L 308.569095 -204.94538 
L 311.877395 -204.94538 
L 315.185695 -204.94538 
L 318.493996 -204.94538 
L 321.802296 -204.94538 
L 325.110597 -204.94538 
L 328.418897 -204.94538 
L 331.727197 -204.94538 
L 335.035498 -204.94538 
L 338.343798 -204.94538 
L 341.652099 -204.94538 
L 344.960399 -204.94538 
L 348.268699 -204.94538 
L 351.577 -204.94538 
L 354.8853 -204.94538 
L 358.193601 -204.94538 
L 361.501901 -204.94538 
L 364.810201 -204.94538 
L 368.118502 -204.94538 
L 371.426802 -204.94538 
L 374.735103 -204.94538 
L 378.043403 -204.94538 
L 381.351703 -204.94538 
L 384.660004 -204.94538 
L 387.968304 -204.94538 
L 391.276604 -204.94538 
L 394.584905 -204.94538 
L 397.893205 -204.94538 
L 401.201506 -204.94538 
L 401.201506 -328.22 
L 401.201506 -328.22 
L 397.893205 -315.875802 
L 394.584905 -302.499479 
L 391.276604 -296.132883 
L 387.968304 -280.418933 
L 384.660004 -279.027567 
L 381.351703 -270.233481 
L 378.043403 -259.473218 
L 374.735103 -255.824399 
L 371.426802 -254.655916 
L 368.118502 -251.133747 
L 364.810201 -246.213586 
L 361.501901 -238.596821 
L 358.193601 -238.519985 
L 354.8853 -236.979288 
L 351.577 -236.620913 
L 348.268699 -236.050467 
L 344.960399 -233.585648 
L 341.652099 -229.655794 
L 338.343798 -226.704576 
L 335.035498 -225.286892 
L 331.727197 -223.932341 
L 328.418897 -223.760553 
L 325.110597 -220.959401 
L 321.802296 -219.619149 
L 318.493996 -218.898243 
L 315.185695 -216.802414 
L 311.877395 -215.813281 
L 308.569095 -213.304719 
L 305.260794 -212.337887 
L 301.952494 -211.849641 
L 298.644193 -208.27437 
L 295.335893 -207.276696 
L 292.027593 -206.957582 
L 288.719292 -206.855971 
L 285.410992 -206.234441 
L 282.102691 -205.840387 
L 278.794391 -205.823102 
L 275.486091 -205.721347 
L 272.17779 -205.719808 
L 268.86949 -205.703135 
L 265.561189 -205.695567 
L 262.252889 -205.306742 
L 258.944589 -205.27882 
L 255.636288 -205.257683 
L 252.327988 -205.189137 
L 249.019688 -205.182124 
L 245.711387 -205.17762 
L 242.403087 -205.142505 
L 239.094786 -205.077308 
L 235.786486 -204.990281 
L 232.478186 -204.977741 
L 229.169885 -204.827408 
L 225.861585 -204.80702 
L 222.553284 -204.805835 
L 219.244984 -204.803731 
L 215.936684 -204.67093 
L 212.628383 -204.62151 
L 209.320083 -204.497908 
L 206.011782 -204.468847 
L 202.703482 -204.443021 
L 199.395182 -204.410167 
L 196.086881 -204.406638 
L 192.778581 -204.383684 
L 189.47028 -204.364502 
L 186.16198 -204.20493 
L 182.85368 -204.197782 
L 179.545379 -204.044229 
L 176.237079 -203.969781 
L 172.928778 -203.857753 
L 169.620478 -203.841111 
L 166.312178 -203.344432 
L 163.003877 -203.249335 
L 159.695577 -201.45608 
L 156.387276 -198.893854 
L 153.078976 -198.820639 
L 149.770676 -197.53944 
L 146.462375 -197.405553 
L 143.154075 -195.943846 
L 139.845774 -191.593423 
L 136.537474 -191.159431 
L 133.229174 -190.988194 
L 129.920873 -181.898806 
L 126.612573 -180.738939 
L 123.304272 -177.443096 
L 119.995972 -169.959636 
L 116.687672 -168.40991 
L 113.379371 -151.587522 
L 110.071071 -145.602006 
L 106.762771 -126.107731 
L 103.45447 -100.318041 
L 100.14617 -83.351992 
L 96.837869 -25.82 
z
" id="m63321610be" style="stroke:#4a98c9;"/>
    </defs>
    <g clip-path="url(#p2ef03feb2d)">
     <use style="fill:#4a98c9;stroke:#4a98c9;" x="0" xlink:href="#m63321610be" y="354.04"/>
    </g>
   </g>
   <g id="PolyCollection_2">
    <defs>
     <path d="M 96.837869 -158.029869 
L 96.837869 -204.94538 
L 100.14617 -204.94538 
L 103.45447 -204.94538 
L 106.762771 -204.94538 
L 110.071071 -204.94538 
L 113.379371 -204.94538 
L 116.687672 -204.94538 
L 119.995972 -204.94538 
L 123.304272 -204.94538 
L 126.612573 -204.94538 
L 129.920873 -204.94538 
L 133.229174 -204.94538 
L 136.537474 -204.94538 
L 139.845774 -204.94538 
L 143.154075 -204.94538 
L 146.462375 -204.94538 
L 149.770676 -204.94538 
L 153.078976 -204.94538 
L 156.387276 -204.94538 
L 159.695577 -204.94538 
L 163.003877 -204.94538 
L 166.312178 -204.94538 
L 169.620478 -204.94538 
L 172.928778 -204.94538 
L 176.237079 -204.94538 
L 179.545379 -204.94538 
L 182.85368 -204.94538 
L 186.16198 -204.94538 
L 189.47028 -204.94538 
L 192.778581 -204.94538 
L 196.086881 -204.94538 
L 199.395182 -204.94538 
L 202.703482 -204.94538 
L 206.011782 -204.94538 
L 209.320083 -204.94538 
L 212.628383 -204.94538 
L 215.936684 -204.94538 
L 219.244984 -204.94538 
L 222.553284 -204.94538 
L 225.861585 -204.94538 
L 229.169885 -204.94538 
L 232.478186 -204.94538 
L 235.786486 -204.94538 
L 239.094786 -204.94538 
L 242.403087 -204.94538 
L 245.711387 -204.94538 
L 249.019688 -204.94538 
L 252.327988 -204.94538 
L 255.636288 -204.94538 
L 258.944589 -204.94538 
L 262.252889 -204.94538 
L 265.561189 -204.94538 
L 268.86949 -204.94538 
L 272.17779 -204.94538 
L 275.486091 -204.94538 
L 278.794391 -204.94538 
L 282.102691 -204.94538 
L 285.410992 -204.94538 
L 288.719292 -204.94538 
L 292.027593 -204.94538 
L 295.335893 -204.94538 
L 298.644193 -204.94538 
L 301.952494 -204.94538 
L 305.260794 -204.94538 
L 308.569095 -204.94538 
L 311.877395 -204.94538 
L 315.185695 -204.94538 
L 318.493996 -204.94538 
L 321.802296 -204.94538 
L 325.110597 -204.94538 
L 328.418897 -204.94538 
L 331.727197 -204.94538 
L 335.035498 -204.94538 
L 338.343798 -204.94538 
L 341.652099 -204.94538 
L 344.960399 -204.94538 
L 348.268699 -204.94538 
L 351.577 -204.94538 
L 354.8853 -204.94538 
L 358.193601 -204.94538 
L 361.501901 -204.94538 
L 364.810201 -204.94538 
L 368.118502 -204.94538 
L 371.426802 -204.94538 
L 374.735103 -204.94538 
L 378.043403 -204.94538 
L 381.351703 -204.94538 
L 384.660004 -204.94538 
L 387.968304 -204.94538 
L 391.276604 -204.94538 
L 394.584905 -204.94538 
L 397.893205 -204.94538 
L 401.201506 -204.94538 
L 401.201506 -237.835682 
L 401.201506 -237.835682 
L 397.893205 -233.157603 
L 394.584905 -232.280544 
L 391.276604 -225.020161 
L 387.968304 -222.595743 
L 384.660004 -222.268406 
L 381.351703 -221.347262 
L 378.043403 -220.530668 
L 374.735103 -218.788418 
L 371.426802 -218.031797 
L 368.118502 -216.10702 
L 364.810201 -215.9221 
L 361.501901 -215.17819 
L 358.193601 -214.804979 
L 354.8853 -214.268516 
L 351.577 -213.796034 
L 348.268699 -213.56876 
L 344.960399 -213.551522 
L 341.652099 -213.188943 
L 338.343798 -211.561775 
L 335.035498 -211.41353 
L 331.727197 -211.154276 
L 328.418897 -210.971404 
L 325.110597 -210.524997 
L 321.802296 -209.671115 
L 318.493996 -209.09681 
L 315.185695 -209.020266 
L 311.877395 -208.222925 
L 308.569095 -207.856586 
L 305.260794 -207.02357 
L 301.952494 -206.854094 
L 298.644193 -206.648555 
L 295.335893 -206.22451 
L 292.027593 -206.154698 
L 288.719292 -206.098718 
L 285.410992 -205.783208 
L 282.102691 -205.723234 
L 278.794391 -205.696981 
L 275.486091 -205.681486 
L 272.17779 -205.645587 
L 268.86949 -205.615122 
L 265.561189 -205.355505 
L 262.252889 -205.334212 
L 258.944589 -205.320817 
L 255.636288 -205.222402 
L 252.327988 -205.113135 
L 249.019688 -205.106705 
L 245.711387 -205.092047 
L 242.403087 -205.083275 
L 239.094786 -204.945362 
L 235.786486 -204.920433 
L 232.478186 -204.862433 
L 229.169885 -204.834487 
L 225.861585 -204.797051 
L 222.553284 -204.7872 
L 219.244984 -204.784557 
L 215.936684 -204.754705 
L 212.628383 -204.735449 
L 209.320083 -204.71778 
L 206.011782 -204.664593 
L 202.703482 -204.646866 
L 199.395182 -204.621325 
L 196.086881 -204.618782 
L 192.778581 -204.552526 
L 189.47028 -204.546671 
L 186.16198 -204.540156 
L 182.85368 -204.436016 
L 179.545379 -204.372521 
L 176.237079 -204.29611 
L 172.928778 -204.275201 
L 169.620478 -204.20543 
L 166.312178 -203.994909 
L 163.003877 -203.942105 
L 159.695577 -203.855256 
L 156.387276 -203.853168 
L 153.078976 -203.821889 
L 149.770676 -202.547179 
L 146.462375 -202.437671 
L 143.154075 -202.363657 
L 139.845774 -201.236544 
L 136.537474 -201.099439 
L 133.229174 -199.56888 
L 129.920873 -198.405253 
L 126.612573 -197.970271 
L 123.304272 -195.115939 
L 119.995972 -193.977861 
L 116.687672 -193.678651 
L 113.379371 -192.391059 
L 110.071071 -188.253218 
L 106.762771 -183.431024 
L 103.45447 -183.309792 
L 100.14617 -171.387398 
L 96.837869 -158.029869 
z
" id="m70ad9773f4" style="stroke:#f14432;stroke-opacity:0.8;"/>
    </defs>
    <g clip-path="url(#p2ef03feb2d)">
     <use style="fill:#f14432;fill-opacity:0.8;stroke:#f14432;stroke-opacity:0.8;" x="0" xlink:href="#m70ad9773f4" y="354.04"/>
    </g>
   </g>
   <g id="matplotlib.axis_1"/>
   <g id="matplotlib.axis_2">
    <g id="ytick_1">
     <g id="line2d_1">
      <defs>
       <path d="M 0 0 
L -3.5 0 
" id="m805581562e" style="stroke:#000000;stroke-width:0.8;"/>
      </defs>
      <g>
       <use style="stroke:#000000;stroke-width:0.8;" x="81.619687" xlink:href="#m805581562e" y="321.244858"/>
      </g>
     </g>
     <g id="text_1">
      <!-- −0.03 -->
      <defs>
       <path d="M 10.59375 35.5 
L 73.1875 35.5 
L 73.1875 27.203125 
L 10.59375 27.203125 
z
" id="DejaVuSans-2212"/>
       <path d="M 31.78125 66.40625 
Q 24.171875 66.40625 20.328125 58.90625 
Q 16.5 51.421875 16.5 36.375 
Q 16.5 21.390625 20.328125 13.890625 
Q 24.171875 6.390625 31.78125 6.390625 
Q 39.453125 6.390625 43.28125 13.890625 
Q 47.125 21.390625 47.125 36.375 
Q 47.125 51.421875 43.28125 58.90625 
Q 39.453125 66.40625 31.78125 66.40625 
z
M 31.78125 74.21875 
Q 44.046875 74.21875 50.515625 64.515625 
Q 56.984375 54.828125 56.984375 36.375 
Q 56.984375 17.96875 50.515625 8.265625 
Q 44.046875 -1.421875 31.78125 -1.421875 
Q 19.53125 -1.421875 13.0625 8.265625 
Q 6.59375 17.96875 6.59375 36.375 
Q 6.59375 54.828125 13.0625 64.515625 
Q 19.53125 74.21875 31.78125 74.21875 
z
" id="DejaVuSans-30"/>
       <path d="M 10.6875 12.40625 
L 21 12.40625 
L 21 0 
L 10.6875 0 
z
" id="DejaVuSans-2e"/>
       <path d="M 40.578125 39.3125 
Q 47.65625 37.796875 51.625 33 
Q 55.609375 28.21875 55.609375 21.1875 
Q 55.609375 10.40625 48.1875 4.484375 
Q 40.765625 -1.421875 27.09375 -1.421875 
Q 22.515625 -1.421875 17.65625 -0.515625 
Q 12.796875 0.390625 7.625 2.203125 
L 7.625 11.71875 
Q 11.71875 9.328125 16.59375 8.109375 
Q 21.484375 6.890625 26.8125 6.890625 
Q 36.078125 6.890625 40.9375 10.546875 
Q 45.796875 14.203125 45.796875 21.1875 
Q 45.796875 27.640625 41.28125 31.265625 
Q 36.765625 34.90625 28.71875 34.90625 
L 20.21875 34.90625 
L 20.21875 43.015625 
L 29.109375 43.015625 
Q 36.375 43.015625 40.234375 45.921875 
Q 44.09375 48.828125 44.09375 54.296875 
Q 44.09375 59.90625 40.109375 62.90625 
Q 36.140625 65.921875 28.71875 65.921875 
Q 24.65625 65.921875 20.015625 65.03125 
Q 15.375 64.15625 9.8125 62.3125 
L 9.8125 71.09375 
Q 15.4375 72.65625 20.34375 73.4375 
Q 25.25 74.21875 29.59375 74.21875 
Q 40.828125 74.21875 47.359375 69.109375 
Q 53.90625 64.015625 53.90625 55.328125 
Q 53.90625 49.265625 50.4375 45.09375 
Q 46.96875 40.921875 40.578125 39.3125 
z
" id="DejaVuSans-33"/>
      </defs>
      <g transform="translate(7.2 329.603139)scale(0.22 -0.22)">
       <use xlink:href="#DejaVuSans-2212"/>
       <use x="83.789062" xlink:href="#DejaVuSans-30"/>
       <use x="147.412109" xlink:href="#DejaVuSans-2e"/>
       <use x="179.199219" xlink:href="#DejaVuSans-30"/>
       <use x="242.822266" xlink:href="#DejaVuSans-33"/>
      </g>
     </g>
    </g>
    <g id="ytick_2">
     <g id="line2d_2">
      <g>
       <use style="stroke:#000000;stroke-width:0.8;" x="81.619687" xlink:href="#m805581562e" y="263.861445"/>
      </g>
     </g>
     <g id="text_2">
      <!-- −0.02 -->
      <defs>
       <path d="M 19.1875 8.296875 
L 53.609375 8.296875 
L 53.609375 0 
L 7.328125 0 
L 7.328125 8.296875 
Q 12.9375 14.109375 22.625 23.890625 
Q 32.328125 33.6875 34.8125 36.53125 
Q 39.546875 41.84375 41.421875 45.53125 
Q 43.3125 49.21875 43.3125 52.78125 
Q 43.3125 58.59375 39.234375 62.25 
Q 35.15625 65.921875 28.609375 65.921875 
Q 23.96875 65.921875 18.8125 64.3125 
Q 13.671875 62.703125 7.8125 59.421875 
L 7.8125 69.390625 
Q 13.765625 71.78125 18.9375 73 
Q 24.125 74.21875 28.421875 74.21875 
Q 39.75 74.21875 46.484375 68.546875 
Q 53.21875 62.890625 53.21875 53.421875 
Q 53.21875 48.921875 51.53125 44.890625 
Q 49.859375 40.875 45.40625 35.40625 
Q 44.1875 33.984375 37.640625 27.21875 
Q 31.109375 20.453125 19.1875 8.296875 
z
" id="DejaVuSans-32"/>
      </defs>
      <g transform="translate(7.2 272.219726)scale(0.22 -0.22)">
       <use xlink:href="#DejaVuSans-2212"/>
       <use x="83.789062" xlink:href="#DejaVuSans-30"/>
       <use x="147.412109" xlink:href="#DejaVuSans-2e"/>
       <use x="179.199219" xlink:href="#DejaVuSans-30"/>
       <use x="242.822266" xlink:href="#DejaVuSans-32"/>
      </g>
     </g>
    </g>
    <g id="ytick_3">
     <g id="line2d_3">
      <g>
       <use style="stroke:#000000;stroke-width:0.8;" x="81.619687" xlink:href="#m805581562e" y="206.478033"/>
      </g>
     </g>
     <g id="text_3">
      <!-- −0.01 -->
      <defs>
       <path d="M 12.40625 8.296875 
L 28.515625 8.296875 
L 28.515625 63.921875 
L 10.984375 60.40625 
L 10.984375 69.390625 
L 28.421875 72.90625 
L 38.28125 72.90625 
L 38.28125 8.296875 
L 54.390625 8.296875 
L 54.390625 0 
L 12.40625 0 
z
" id="DejaVuSans-31"/>
      </defs>
      <g transform="translate(7.2 214.836314)scale(0.22 -0.22)">
       <use xlink:href="#DejaVuSans-2212"/>
       <use x="83.789062" xlink:href="#DejaVuSans-30"/>
       <use x="147.412109" xlink:href="#DejaVuSans-2e"/>
       <use x="179.199219" xlink:href="#DejaVuSans-30"/>
       <use x="242.822266" xlink:href="#DejaVuSans-31"/>
      </g>
     </g>
    </g>
    <g id="ytick_4">
     <g id="line2d_4">
      <g>
       <use style="stroke:#000000;stroke-width:0.8;" x="81.619687" xlink:href="#m805581562e" y="149.09462"/>
      </g>
     </g>
     <g id="text_4">
      <!-- 0.00 -->
      <g transform="translate(25.635312 157.452901)scale(0.22 -0.22)">
       <use xlink:href="#DejaVuSans-30"/>
       <use x="63.623047" xlink:href="#DejaVuSans-2e"/>
       <use x="95.410156" xlink:href="#DejaVuSans-30"/>
       <use x="159.033203" xlink:href="#DejaVuSans-30"/>
      </g>
     </g>
    </g>
    <g id="ytick_5">
     <g id="line2d_5">
      <g>
       <use style="stroke:#000000;stroke-width:0.8;" x="81.619687" xlink:href="#m805581562e" y="91.711208"/>
      </g>
     </g>
     <g id="text_5">
      <!-- 0.01 -->
      <g transform="translate(25.635312 100.069489)scale(0.22 -0.22)">
       <use xlink:href="#DejaVuSans-30"/>
       <use x="63.623047" xlink:href="#DejaVuSans-2e"/>
       <use x="95.410156" xlink:href="#DejaVuSans-30"/>
       <use x="159.033203" xlink:href="#DejaVuSans-31"/>
      </g>
     </g>
    </g>
    <g id="ytick_6">
     <g id="line2d_6">
      <g>
       <use style="stroke:#000000;stroke-width:0.8;" x="81.619687" xlink:href="#m805581562e" y="34.327795"/>
      </g>
     </g>
     <g id="text_6">
      <!-- 0.02 -->
      <g transform="translate(25.635312 42.686076)scale(0.22 -0.22)">
       <use xlink:href="#DejaVuSans-30"/>
       <use x="63.623047" xlink:href="#DejaVuSans-2e"/>
       <use x="95.410156" xlink:href="#DejaVuSans-30"/>
       <use x="159.033203" xlink:href="#DejaVuSans-32"/>
      </g>
     </g>
    </g>
   </g>
   <g id="patch_3">
    <path d="M 81.619687 343.34 
L 81.619687 10.7 
" style="fill:none;stroke:#000000;stroke-linecap:square;stroke-linejoin:miter;stroke-width:0.8;"/>
   </g>
   <g id="patch_4">
    <path d="M 416.419688 343.34 
L 416.419688 10.7 
" style="fill:none;stroke:#000000;stroke-linecap:square;stroke-linejoin:miter;stroke-width:0.8;"/>
   </g>
   <g id="patch_5">
    <path d="M 81.619687 343.34 
L 416.419688 343.34 
" style="fill:none;stroke:#000000;stroke-linecap:square;stroke-linejoin:miter;stroke-width:0.8;"/>
   </g>
   <g id="patch_6">
    <path d="M 81.619687 10.7 
L 416.419688 10.7 
" style="fill:none;stroke:#000000;stroke-linecap:square;stroke-linejoin:miter;stroke-width:0.8;"/>
   </g>
  </g>
 </g>
 <defs>
  <clipPath id="p2ef03feb2d">
   <rect height="332.64" width="334.8" x="81.619687" y="10.7"/>
  </clipPath>
 </defs>
</svg>
