<?xml version="1.0" encoding="utf-8" standalone="no"?>
<!DOCTYPE svg PUBLIC "-//W3C//DTD SVG 1.1//EN"
  "http://www.w3.org/Graphics/SVG/1.1/DTD/svg11.dtd">
<!-- Created with matplotlib (http://matplotlib.org/) -->
<svg height="361pt" version="1.1" viewBox="0 0 439 361" width="439pt" xmlns="http://www.w3.org/2000/svg" xmlns:xlink="http://www.w3.org/1999/xlink">
 <defs>
  <style type="text/css">
*{stroke-linecap:butt;stroke-linejoin:round;}
  </style>
 </defs>
 <g id="figure_1">
  <g id="patch_1">
   <path d="M -0 361.971794 
L 439.17183 361.971794 
L 439.17183 0 
L -0 0 
z
" style="fill:#ffffff;"/>
  </g>
  <g id="axes_1">
   <g id="patch_2">
    <path d="M 109.614688 343.34 
L 428.47183 343.34 
L 428.47183 10.7 
L 109.614688 10.7 
z
" style="fill:#ffffff;"/>
   </g>
   <g id="matplotlib.axis_1"/>
   <g id="matplotlib.axis_2">
    <g id="ytick_1">
     <g id="line2d_1">
      <defs>
       <path d="M 0 0 
L -3.5 0 
" id="m4ee9db7c52" style="stroke:#000000;stroke-width:0.8;"/>
      </defs>
      <g>
       <use style="stroke:#000000;stroke-width:0.8;" x="109.614688" xlink:href="#m4ee9db7c52" y="341.8382"/>
      </g>
     </g>
     <g id="text_1">
      <!-- −0.0003 -->
      <defs>
       <path d="M 10.59375 35.5 
L 73.1875 35.5 
L 73.1875 27.203125 
L 10.59375 27.203125 
z
" id="DejaVuSans-2212"/>
       <path d="M 31.78125 66.40625 
Q 24.171875 66.40625 20.328125 58.90625 
Q 16.5 51.421875 16.5 36.375 
Q 16.5 21.390625 20.328125 13.890625 
Q 24.171875 6.390625 31.78125 6.390625 
Q 39.453125 6.390625 43.28125 13.890625 
Q 47.125 21.390625 47.125 36.375 
Q 47.125 51.421875 43.28125 58.90625 
Q 39.453125 66.40625 31.78125 66.40625 
z
M 31.78125 74.21875 
Q 44.046875 74.21875 50.515625 64.515625 
Q 56.984375 54.828125 56.984375 36.375 
Q 56.984375 17.96875 50.515625 8.265625 
Q 44.046875 -1.421875 31.78125 -1.421875 
Q 19.53125 -1.421875 13.0625 8.265625 
Q 6.59375 17.96875 6.59375 36.375 
Q 6.59375 54.828125 13.0625 64.515625 
Q 19.53125 74.21875 31.78125 74.21875 
z
" id="DejaVuSans-30"/>
       <path d="M 10.6875 12.40625 
L 21 12.40625 
L 21 0 
L 10.6875 0 
z
" id="DejaVuSans-2e"/>
       <path d="M 40.578125 39.3125 
Q 47.65625 37.796875 51.625 33 
Q 55.609375 28.21875 55.609375 21.1875 
Q 55.609375 10.40625 48.1875 4.484375 
Q 40.765625 -1.421875 27.09375 -1.421875 
Q 22.515625 -1.421875 17.65625 -0.515625 
Q 12.796875 0.390625 7.625 2.203125 
L 7.625 11.71875 
Q 11.71875 9.328125 16.59375 8.109375 
Q 21.484375 6.890625 26.8125 6.890625 
Q 36.078125 6.890625 40.9375 10.546875 
Q 45.796875 14.203125 45.796875 21.1875 
Q 45.796875 27.640625 41.28125 31.265625 
Q 36.765625 34.90625 28.71875 34.90625 
L 20.21875 34.90625 
L 20.21875 43.015625 
L 29.109375 43.015625 
Q 36.375 43.015625 40.234375 45.921875 
Q 44.09375 48.828125 44.09375 54.296875 
Q 44.09375 59.90625 40.109375 62.90625 
Q 36.140625 65.921875 28.71875 65.921875 
Q 24.65625 65.921875 20.015625 65.03125 
Q 15.375 64.15625 9.8125 62.3125 
L 9.8125 71.09375 
Q 15.4375 72.65625 20.34375 73.4375 
Q 25.25 74.21875 29.59375 74.21875 
Q 40.828125 74.21875 47.359375 69.109375 
Q 53.90625 64.015625 53.90625 55.328125 
Q 53.90625 49.265625 50.4375 45.09375 
Q 46.96875 40.921875 40.578125 39.3125 
z
" id="DejaVuSans-33"/>
      </defs>
      <g transform="translate(7.2 350.196482)scale(0.22 -0.22)">
       <use xlink:href="#DejaVuSans-2212"/>
       <use x="83.789062" xlink:href="#DejaVuSans-30"/>
       <use x="147.412109" xlink:href="#DejaVuSans-2e"/>
       <use x="179.199219" xlink:href="#DejaVuSans-30"/>
       <use x="242.822266" xlink:href="#DejaVuSans-30"/>
       <use x="306.445312" xlink:href="#DejaVuSans-30"/>
       <use x="370.068359" xlink:href="#DejaVuSans-33"/>
      </g>
     </g>
    </g>
    <g id="ytick_2">
     <g id="line2d_2">
      <g>
       <use style="stroke:#000000;stroke-width:0.8;" x="109.614688" xlink:href="#m4ee9db7c52" y="272.880801"/>
      </g>
     </g>
     <g id="text_2">
      <!-- −0.0002 -->
      <defs>
       <path d="M 19.1875 8.296875 
L 53.609375 8.296875 
L 53.609375 0 
L 7.328125 0 
L 7.328125 8.296875 
Q 12.9375 14.109375 22.625 23.890625 
Q 32.328125 33.6875 34.8125 36.53125 
Q 39.546875 41.84375 41.421875 45.53125 
Q 43.3125 49.21875 43.3125 52.78125 
Q 43.3125 58.59375 39.234375 62.25 
Q 35.15625 65.921875 28.609375 65.921875 
Q 23.96875 65.921875 18.8125 64.3125 
Q 13.671875 62.703125 7.8125 59.421875 
L 7.8125 69.390625 
Q 13.765625 71.78125 18.9375 73 
Q 24.125 74.21875 28.421875 74.21875 
Q 39.75 74.21875 46.484375 68.546875 
Q 53.21875 62.890625 53.21875 53.421875 
Q 53.21875 48.921875 51.53125 44.890625 
Q 49.859375 40.875 45.40625 35.40625 
Q 44.1875 33.984375 37.640625 27.21875 
Q 31.109375 20.453125 19.1875 8.296875 
z
" id="DejaVuSans-32"/>
      </defs>
      <g transform="translate(7.2 281.239083)scale(0.22 -0.22)">
       <use xlink:href="#DejaVuSans-2212"/>
       <use x="83.789062" xlink:href="#DejaVuSans-30"/>
       <use x="147.412109" xlink:href="#DejaVuSans-2e"/>
       <use x="179.199219" xlink:href="#DejaVuSans-30"/>
       <use x="242.822266" xlink:href="#DejaVuSans-30"/>
       <use x="306.445312" xlink:href="#DejaVuSans-30"/>
       <use x="370.068359" xlink:href="#DejaVuSans-32"/>
      </g>
     </g>
    </g>
    <g id="ytick_3">
     <g id="line2d_3">
      <g>
       <use style="stroke:#000000;stroke-width:0.8;" x="109.614688" xlink:href="#m4ee9db7c52" y="203.923403"/>
      </g>
     </g>
     <g id="text_3">
      <!-- −0.0001 -->
      <defs>
       <path d="M 12.40625 8.296875 
L 28.515625 8.296875 
L 28.515625 63.921875 
L 10.984375 60.40625 
L 10.984375 69.390625 
L 28.421875 72.90625 
L 38.28125 72.90625 
L 38.28125 8.296875 
L 54.390625 8.296875 
L 54.390625 0 
L 12.40625 0 
z
" id="DejaVuSans-31"/>
      </defs>
      <g transform="translate(7.2 212.281684)scale(0.22 -0.22)">
       <use xlink:href="#DejaVuSans-2212"/>
       <use x="83.789062" xlink:href="#DejaVuSans-30"/>
       <use x="147.412109" xlink:href="#DejaVuSans-2e"/>
       <use x="179.199219" xlink:href="#DejaVuSans-30"/>
       <use x="242.822266" xlink:href="#DejaVuSans-30"/>
       <use x="306.445312" xlink:href="#DejaVuSans-30"/>
       <use x="370.068359" xlink:href="#DejaVuSans-31"/>
      </g>
     </g>
    </g>
    <g id="ytick_4">
     <g id="line2d_4">
      <g>
       <use style="stroke:#000000;stroke-width:0.8;" x="109.614688" xlink:href="#m4ee9db7c52" y="134.966004"/>
      </g>
     </g>
     <g id="text_4">
      <!-- 0.0000 -->
      <g transform="translate(25.635312 143.324285)scale(0.22 -0.22)">
       <use xlink:href="#DejaVuSans-30"/>
       <use x="63.623047" xlink:href="#DejaVuSans-2e"/>
       <use x="95.410156" xlink:href="#DejaVuSans-30"/>
       <use x="159.033203" xlink:href="#DejaVuSans-30"/>
       <use x="222.65625" xlink:href="#DejaVuSans-30"/>
       <use x="286.279297" xlink:href="#DejaVuSans-30"/>
      </g>
     </g>
    </g>
    <g id="ytick_5">
     <g id="line2d_5">
      <g>
       <use style="stroke:#000000;stroke-width:0.8;" x="109.614688" xlink:href="#m4ee9db7c52" y="66.008605"/>
      </g>
     </g>
     <g id="text_5">
      <!-- 0.0001 -->
      <g transform="translate(25.635312 74.366886)scale(0.22 -0.22)">
       <use xlink:href="#DejaVuSans-30"/>
       <use x="63.623047" xlink:href="#DejaVuSans-2e"/>
       <use x="95.410156" xlink:href="#DejaVuSans-30"/>
       <use x="159.033203" xlink:href="#DejaVuSans-30"/>
       <use x="222.65625" xlink:href="#DejaVuSans-30"/>
       <use x="286.279297" xlink:href="#DejaVuSans-31"/>
      </g>
     </g>
    </g>
   </g>
   <g id="patch_3">
    <path clip-path="url(#pda03c0e407)" d="M 124.108194 134.966004 
L 138.6017 134.966004 
L 138.6017 205.729745 
L 124.108194 205.729745 
z
" style="fill:#d92523;"/>
   </g>
   <g id="patch_4">
    <path clip-path="url(#pda03c0e407)" d="M 138.6017 134.966004 
L 153.095207 134.966004 
L 153.095207 156.703683 
L 138.6017 156.703683 
z
" style="fill:#d92523;"/>
   </g>
   <g id="patch_5">
    <path clip-path="url(#pda03c0e407)" d="M 153.095207 134.966004 
L 167.588713 134.966004 
L 167.588713 99.438342 
L 153.095207 99.438342 
z
" style="fill:#d92523;"/>
   </g>
   <g id="patch_6">
    <path clip-path="url(#pda03c0e407)" d="M 167.588713 134.966004 
L 182.08222 134.966004 
L 182.08222 99.804184 
L 167.588713 99.804184 
z
" style="fill:#d92523;"/>
   </g>
   <g id="patch_7">
    <path clip-path="url(#pda03c0e407)" d="M 182.08222 134.966004 
L 196.575726 134.966004 
L 196.575726 328.22 
L 182.08222 328.22 
z
" style="fill:#d92523;"/>
   </g>
   <g id="patch_8">
    <path clip-path="url(#pda03c0e407)" d="M 196.575726 134.966004 
L 211.069233 134.966004 
L 211.069233 157.187641 
L 196.575726 157.187641 
z
" style="fill:#d92523;"/>
   </g>
   <g id="patch_9">
    <path clip-path="url(#pda03c0e407)" d="M 211.069233 134.966004 
L 225.562739 134.966004 
L 225.562739 147.778043 
L 211.069233 147.778043 
z
" style="fill:#d92523;"/>
   </g>
   <g id="patch_10">
    <path clip-path="url(#pda03c0e407)" d="M 225.562739 134.966004 
L 240.056246 134.966004 
L 240.056246 146.629207 
L 225.562739 146.629207 
z
" style="fill:#d92523;"/>
   </g>
   <g id="patch_11">
    <path clip-path="url(#pda03c0e407)" d="M 240.056246 134.966004 
L 254.549752 134.966004 
L 254.549752 25.82 
L 240.056246 25.82 
z
" style="fill:#d92523;"/>
   </g>
   <g id="patch_12">
    <path clip-path="url(#pda03c0e407)" d="M 254.549752 134.966004 
L 269.043259 134.966004 
L 269.043259 117.508171 
L 254.549752 117.508171 
z
" style="fill:#d92523;"/>
   </g>
   <g id="patch_13">
    <path clip-path="url(#pda03c0e407)" d="M 269.043259 134.966004 
L 283.536765 134.966004 
L 283.536765 33.872428 
L 269.043259 33.872428 
z
" style="fill:#d92523;"/>
   </g>
   <g id="patch_14">
    <path clip-path="url(#pda03c0e407)" d="M 283.536765 134.966004 
L 298.030272 134.966004 
L 298.030272 181.10089 
L 283.536765 181.10089 
z
" style="fill:#d92523;"/>
   </g>
   <g id="patch_15">
    <path clip-path="url(#pda03c0e407)" d="M 298.030272 134.966004 
L 312.523778 134.966004 
L 312.523778 31.82117 
L 298.030272 31.82117 
z
" style="fill:#d92523;"/>
   </g>
   <g id="patch_16">
    <path clip-path="url(#pda03c0e407)" d="M 312.523778 134.966004 
L 327.017285 134.966004 
L 327.017285 51.07153 
L 312.523778 51.07153 
z
" style="fill:#d92523;"/>
   </g>
   <g id="patch_17">
    <path clip-path="url(#pda03c0e407)" d="M 327.017285 134.966004 
L 341.510791 134.966004 
L 341.510791 121.546744 
L 327.017285 121.546744 
z
" style="fill:#d92523;"/>
   </g>
   <g id="patch_18">
    <path clip-path="url(#pda03c0e407)" d="M 341.510791 134.966004 
L 356.004298 134.966004 
L 356.004298 145.460543 
L 341.510791 145.460543 
z
" style="fill:#d92523;"/>
   </g>
   <g id="patch_19">
    <path clip-path="url(#pda03c0e407)" d="M 356.004298 134.966004 
L 370.497804 134.966004 
L 370.497804 288.537826 
L 356.004298 288.537826 
z
" style="fill:#d92523;"/>
   </g>
   <g id="patch_20">
    <path clip-path="url(#pda03c0e407)" d="M 370.497804 134.966004 
L 384.991311 134.966004 
L 384.991311 116.691034 
L 370.497804 116.691034 
z
" style="fill:#d92523;"/>
   </g>
   <g id="patch_21">
    <path clip-path="url(#pda03c0e407)" d="M 384.991311 134.966004 
L 399.484817 134.966004 
L 399.484817 143.954212 
L 384.991311 143.954212 
z
" style="fill:#d92523;"/>
   </g>
   <g id="patch_22">
    <path clip-path="url(#pda03c0e407)" d="M 399.484817 134.966004 
L 413.978324 134.966004 
L 413.978324 50.690517 
L 399.484817 50.690517 
z
" style="fill:#d92523;"/>
   </g>
   <g id="patch_23">
    <path clip-path="url(#pda03c0e407)" d="M 124.108194 134.966004 
L 138.6017 134.966004 
L 138.6017 248.081062 
L 124.108194 248.081062 
z
" style="fill:#2e7ebc;"/>
   </g>
   <g id="patch_24">
    <path clip-path="url(#pda03c0e407)" d="M 138.6017 134.966004 
L 153.095207 134.966004 
L 153.095207 158.29387 
L 138.6017 158.29387 
z
" style="fill:#2e7ebc;"/>
   </g>
   <g id="patch_25">
    <path clip-path="url(#pda03c0e407)" d="M 153.095207 134.966004 
L 167.588713 134.966004 
L 167.588713 93.123801 
L 153.095207 93.123801 
z
" style="fill:#2e7ebc;"/>
   </g>
   <g id="patch_26">
    <path clip-path="url(#pda03c0e407)" d="M 167.588713 134.966004 
L 182.08222 134.966004 
L 182.08222 29.572954 
L 167.588713 29.572954 
z
" style="fill:#2e7ebc;"/>
   </g>
   <g id="patch_27">
    <path clip-path="url(#pda03c0e407)" d="M 182.08222 134.966004 
L 196.575726 134.966004 
L 196.575726 234.0155 
L 182.08222 234.0155 
z
" style="fill:#2e7ebc;"/>
   </g>
   <g id="patch_28">
    <path clip-path="url(#pda03c0e407)" d="M 196.575726 134.966004 
L 211.069233 134.966004 
L 211.069233 80.373167 
L 196.575726 80.373167 
z
" style="fill:#2e7ebc;"/>
   </g>
   <g id="patch_29">
    <path clip-path="url(#pda03c0e407)" d="M 211.069233 134.966004 
L 225.562739 134.966004 
L 225.562739 96.642673 
L 211.069233 96.642673 
z
" style="fill:#2e7ebc;"/>
   </g>
   <g id="patch_30">
    <path clip-path="url(#pda03c0e407)" d="M 225.562739 134.966004 
L 240.056246 134.966004 
L 240.056246 266.793045 
L 225.562739 266.793045 
z
" style="fill:#2e7ebc;"/>
   </g>
   <g id="patch_31">
    <path clip-path="url(#pda03c0e407)" d="M 240.056246 134.966004 
L 254.549752 134.966004 
L 254.549752 174.762183 
L 240.056246 174.762183 
z
" style="fill:#2e7ebc;"/>
   </g>
   <g id="patch_32">
    <path clip-path="url(#pda03c0e407)" d="M 254.549752 134.966004 
L 269.043259 134.966004 
L 269.043259 147.936755 
L 254.549752 147.936755 
z
" style="fill:#2e7ebc;"/>
   </g>
   <g id="patch_33">
    <path clip-path="url(#pda03c0e407)" d="M 269.043259 134.966004 
L 283.536765 134.966004 
L 283.536765 196.082218 
L 269.043259 196.082218 
z
" style="fill:#2e7ebc;"/>
   </g>
   <g id="patch_34">
    <path clip-path="url(#pda03c0e407)" d="M 283.536765 134.966004 
L 298.030272 134.966004 
L 298.030272 113.687943 
L 283.536765 113.687943 
z
" style="fill:#2e7ebc;"/>
   </g>
   <g id="patch_35">
    <path clip-path="url(#pda03c0e407)" d="M 298.030272 134.966004 
L 312.523778 134.966004 
L 312.523778 212.981397 
L 298.030272 212.981397 
z
" style="fill:#2e7ebc;"/>
   </g>
   <g id="patch_36">
    <path clip-path="url(#pda03c0e407)" d="M 312.523778 134.966004 
L 327.017285 134.966004 
L 327.017285 115.107518 
L 312.523778 115.107518 
z
" style="fill:#2e7ebc;"/>
   </g>
   <g id="patch_37">
    <path clip-path="url(#pda03c0e407)" d="M 327.017285 134.966004 
L 341.510791 134.966004 
L 341.510791 100.63351 
L 327.017285 100.63351 
z
" style="fill:#2e7ebc;"/>
   </g>
   <g id="patch_38">
    <path clip-path="url(#pda03c0e407)" d="M 341.510791 134.966004 
L 356.004298 134.966004 
L 356.004298 126.23144 
L 341.510791 126.23144 
z
" style="fill:#2e7ebc;"/>
   </g>
   <g id="patch_39">
    <path clip-path="url(#pda03c0e407)" d="M 356.004298 134.966004 
L 370.497804 134.966004 
L 370.497804 237.822881 
L 356.004298 237.822881 
z
" style="fill:#2e7ebc;"/>
   </g>
   <g id="patch_40">
    <path clip-path="url(#pda03c0e407)" d="M 370.497804 134.966004 
L 384.991311 134.966004 
L 384.991311 153.945081 
L 370.497804 153.945081 
z
" style="fill:#2e7ebc;"/>
   </g>
   <g id="patch_41">
    <path clip-path="url(#pda03c0e407)" d="M 384.991311 134.966004 
L 399.484817 134.966004 
L 399.484817 137.087455 
L 384.991311 137.087455 
z
" style="fill:#2e7ebc;"/>
   </g>
   <g id="patch_42">
    <path clip-path="url(#pda03c0e407)" d="M 399.484817 134.966004 
L 413.978324 134.966004 
L 413.978324 127.32516 
L 399.484817 127.32516 
z
" style="fill:#2e7ebc;"/>
   </g>
   <g id="patch_43">
    <path d="M 109.614688 343.34 
L 109.614688 10.7 
" style="fill:none;stroke:#000000;stroke-linecap:square;stroke-linejoin:miter;stroke-width:0.8;"/>
   </g>
   <g id="patch_44">
    <path d="M 428.47183 343.34 
L 428.47183 10.7 
" style="fill:none;stroke:#000000;stroke-linecap:square;stroke-linejoin:miter;stroke-width:0.8;"/>
   </g>
   <g id="patch_45">
    <path d="M 109.614688 343.34 
L 428.47183 343.34 
" style="fill:none;stroke:#000000;stroke-linecap:square;stroke-linejoin:miter;stroke-width:0.8;"/>
   </g>
   <g id="patch_46">
    <path d="M 109.614688 10.7 
L 428.47183 10.7 
" style="fill:none;stroke:#000000;stroke-linecap:square;stroke-linejoin:miter;stroke-width:0.8;"/>
   </g>
   <g id="patch_47">
    <path clip-path="url(#pda03c0e407)" d="M 124.108194 134.966004 
L 138.6017 134.966004 
L 138.6017 134.966004 
L 124.108194 134.966004 
z
" style="fill:none;stroke:#000000;stroke-linejoin:miter;"/>
   </g>
   <g id="patch_48">
    <path clip-path="url(#pda03c0e407)" d="M 138.6017 134.966004 
L 153.095207 134.966004 
L 153.095207 134.966004 
L 138.6017 134.966004 
z
" style="fill:none;stroke:#000000;stroke-linejoin:miter;"/>
   </g>
   <g id="patch_49">
    <path clip-path="url(#pda03c0e407)" d="M 153.095207 134.966004 
L 167.588713 134.966004 
L 167.588713 134.966004 
L 153.095207 134.966004 
z
" style="fill:none;stroke:#000000;stroke-linejoin:miter;"/>
   </g>
   <g id="patch_50">
    <path clip-path="url(#pda03c0e407)" d="M 167.588713 134.966004 
L 182.08222 134.966004 
L 182.08222 134.966004 
L 167.588713 134.966004 
z
" style="fill:none;stroke:#000000;stroke-linejoin:miter;"/>
   </g>
   <g id="patch_51">
    <path clip-path="url(#pda03c0e407)" d="M 182.08222 134.966004 
L 196.575726 134.966004 
L 196.575726 134.966004 
L 182.08222 134.966004 
z
" style="fill:none;stroke:#000000;stroke-linejoin:miter;"/>
   </g>
   <g id="patch_52">
    <path clip-path="url(#pda03c0e407)" d="M 196.575726 134.966004 
L 211.069233 134.966004 
L 211.069233 134.966004 
L 196.575726 134.966004 
z
" style="fill:none;stroke:#000000;stroke-linejoin:miter;"/>
   </g>
   <g id="patch_53">
    <path clip-path="url(#pda03c0e407)" d="M 211.069233 134.966004 
L 225.562739 134.966004 
L 225.562739 134.966004 
L 211.069233 134.966004 
z
" style="fill:none;stroke:#000000;stroke-linejoin:miter;"/>
   </g>
   <g id="patch_54">
    <path clip-path="url(#pda03c0e407)" d="M 225.562739 134.966004 
L 240.056246 134.966004 
L 240.056246 134.966004 
L 225.562739 134.966004 
z
" style="fill:none;stroke:#000000;stroke-linejoin:miter;"/>
   </g>
   <g id="patch_55">
    <path clip-path="url(#pda03c0e407)" d="M 240.056246 134.966004 
L 254.549752 134.966004 
L 254.549752 134.966004 
L 240.056246 134.966004 
z
" style="fill:none;stroke:#000000;stroke-linejoin:miter;"/>
   </g>
   <g id="patch_56">
    <path clip-path="url(#pda03c0e407)" d="M 254.549752 134.966004 
L 269.043259 134.966004 
L 269.043259 134.966004 
L 254.549752 134.966004 
z
" style="fill:none;stroke:#000000;stroke-linejoin:miter;"/>
   </g>
   <g id="patch_57">
    <path clip-path="url(#pda03c0e407)" d="M 269.043259 134.966004 
L 283.536765 134.966004 
L 283.536765 134.966004 
L 269.043259 134.966004 
z
" style="fill:none;stroke:#000000;stroke-linejoin:miter;"/>
   </g>
   <g id="patch_58">
    <path clip-path="url(#pda03c0e407)" d="M 283.536765 134.966004 
L 298.030272 134.966004 
L 298.030272 134.966004 
L 283.536765 134.966004 
z
" style="fill:none;stroke:#000000;stroke-linejoin:miter;"/>
   </g>
   <g id="patch_59">
    <path clip-path="url(#pda03c0e407)" d="M 298.030272 134.966004 
L 312.523778 134.966004 
L 312.523778 134.966004 
L 298.030272 134.966004 
z
" style="fill:none;stroke:#000000;stroke-linejoin:miter;"/>
   </g>
   <g id="patch_60">
    <path clip-path="url(#pda03c0e407)" d="M 312.523778 134.966004 
L 327.017285 134.966004 
L 327.017285 134.966004 
L 312.523778 134.966004 
z
" style="fill:none;stroke:#000000;stroke-linejoin:miter;"/>
   </g>
   <g id="patch_61">
    <path clip-path="url(#pda03c0e407)" d="M 327.017285 134.966004 
L 341.510791 134.966004 
L 341.510791 134.966004 
L 327.017285 134.966004 
z
" style="fill:none;stroke:#000000;stroke-linejoin:miter;"/>
   </g>
   <g id="patch_62">
    <path clip-path="url(#pda03c0e407)" d="M 341.510791 134.966004 
L 356.004298 134.966004 
L 356.004298 134.966004 
L 341.510791 134.966004 
z
" style="fill:none;stroke:#000000;stroke-linejoin:miter;"/>
   </g>
   <g id="patch_63">
    <path clip-path="url(#pda03c0e407)" d="M 356.004298 134.966004 
L 370.497804 134.966004 
L 370.497804 134.966004 
L 356.004298 134.966004 
z
" style="fill:none;stroke:#000000;stroke-linejoin:miter;"/>
   </g>
   <g id="patch_64">
    <path clip-path="url(#pda03c0e407)" d="M 370.497804 134.966004 
L 384.991311 134.966004 
L 384.991311 134.966004 
L 370.497804 134.966004 
z
" style="fill:none;stroke:#000000;stroke-linejoin:miter;"/>
   </g>
   <g id="patch_65">
    <path clip-path="url(#pda03c0e407)" d="M 384.991311 134.966004 
L 399.484817 134.966004 
L 399.484817 134.966004 
L 384.991311 134.966004 
z
" style="fill:none;stroke:#000000;stroke-linejoin:miter;"/>
   </g>
   <g id="patch_66">
    <path clip-path="url(#pda03c0e407)" d="M 399.484817 134.966004 
L 413.978324 134.966004 
L 413.978324 134.966004 
L 399.484817 134.966004 
z
" style="fill:none;stroke:#000000;stroke-linejoin:miter;"/>
   </g>
   <g id="patch_67">
    <path clip-path="url(#pda03c0e407)" d="M 124.108194 134.966004 
L 138.6017 134.966004 
L 138.6017 134.966004 
L 124.108194 134.966004 
z
" style="fill:none;stroke:#000000;stroke-linejoin:miter;"/>
   </g>
   <g id="patch_68">
    <path clip-path="url(#pda03c0e407)" d="M 138.6017 134.966004 
L 153.095207 134.966004 
L 153.095207 134.966004 
L 138.6017 134.966004 
z
" style="fill:none;stroke:#000000;stroke-linejoin:miter;"/>
   </g>
   <g id="patch_69">
    <path clip-path="url(#pda03c0e407)" d="M 153.095207 134.966004 
L 167.588713 134.966004 
L 167.588713 134.966004 
L 153.095207 134.966004 
z
" style="fill:none;stroke:#000000;stroke-linejoin:miter;"/>
   </g>
   <g id="patch_70">
    <path clip-path="url(#pda03c0e407)" d="M 167.588713 134.966004 
L 182.08222 134.966004 
L 182.08222 134.966004 
L 167.588713 134.966004 
z
" style="fill:none;stroke:#000000;stroke-linejoin:miter;"/>
   </g>
   <g id="patch_71">
    <path clip-path="url(#pda03c0e407)" d="M 182.08222 134.966004 
L 196.575726 134.966004 
L 196.575726 134.966004 
L 182.08222 134.966004 
z
" style="fill:none;stroke:#000000;stroke-linejoin:miter;"/>
   </g>
   <g id="patch_72">
    <path clip-path="url(#pda03c0e407)" d="M 196.575726 134.966004 
L 211.069233 134.966004 
L 211.069233 134.966004 
L 196.575726 134.966004 
z
" style="fill:none;stroke:#000000;stroke-linejoin:miter;"/>
   </g>
   <g id="patch_73">
    <path clip-path="url(#pda03c0e407)" d="M 211.069233 134.966004 
L 225.562739 134.966004 
L 225.562739 134.966004 
L 211.069233 134.966004 
z
" style="fill:none;stroke:#000000;stroke-linejoin:miter;"/>
   </g>
   <g id="patch_74">
    <path clip-path="url(#pda03c0e407)" d="M 225.562739 134.966004 
L 240.056246 134.966004 
L 240.056246 134.966004 
L 225.562739 134.966004 
z
" style="fill:none;stroke:#000000;stroke-linejoin:miter;"/>
   </g>
   <g id="patch_75">
    <path clip-path="url(#pda03c0e407)" d="M 240.056246 134.966004 
L 254.549752 134.966004 
L 254.549752 134.966004 
L 240.056246 134.966004 
z
" style="fill:none;stroke:#000000;stroke-linejoin:miter;"/>
   </g>
   <g id="patch_76">
    <path clip-path="url(#pda03c0e407)" d="M 254.549752 134.966004 
L 269.043259 134.966004 
L 269.043259 134.966004 
L 254.549752 134.966004 
z
" style="fill:none;stroke:#000000;stroke-linejoin:miter;"/>
   </g>
   <g id="patch_77">
    <path clip-path="url(#pda03c0e407)" d="M 269.043259 134.966004 
L 283.536765 134.966004 
L 283.536765 134.966004 
L 269.043259 134.966004 
z
" style="fill:none;stroke:#000000;stroke-linejoin:miter;"/>
   </g>
   <g id="patch_78">
    <path clip-path="url(#pda03c0e407)" d="M 283.536765 134.966004 
L 298.030272 134.966004 
L 298.030272 134.966004 
L 283.536765 134.966004 
z
" style="fill:none;stroke:#000000;stroke-linejoin:miter;"/>
   </g>
   <g id="patch_79">
    <path clip-path="url(#pda03c0e407)" d="M 298.030272 134.966004 
L 312.523778 134.966004 
L 312.523778 134.966004 
L 298.030272 134.966004 
z
" style="fill:none;stroke:#000000;stroke-linejoin:miter;"/>
   </g>
   <g id="patch_80">
    <path clip-path="url(#pda03c0e407)" d="M 312.523778 134.966004 
L 327.017285 134.966004 
L 327.017285 134.966004 
L 312.523778 134.966004 
z
" style="fill:none;stroke:#000000;stroke-linejoin:miter;"/>
   </g>
   <g id="patch_81">
    <path clip-path="url(#pda03c0e407)" d="M 327.017285 134.966004 
L 341.510791 134.966004 
L 341.510791 134.966004 
L 327.017285 134.966004 
z
" style="fill:none;stroke:#000000;stroke-linejoin:miter;"/>
   </g>
   <g id="patch_82">
    <path clip-path="url(#pda03c0e407)" d="M 341.510791 134.966004 
L 356.004298 134.966004 
L 356.004298 134.966004 
L 341.510791 134.966004 
z
" style="fill:none;stroke:#000000;stroke-linejoin:miter;"/>
   </g>
   <g id="patch_83">
    <path clip-path="url(#pda03c0e407)" d="M 356.004298 134.966004 
L 370.497804 134.966004 
L 370.497804 134.966004 
L 356.004298 134.966004 
z
" style="fill:none;stroke:#000000;stroke-linejoin:miter;"/>
   </g>
   <g id="patch_84">
    <path clip-path="url(#pda03c0e407)" d="M 370.497804 134.966004 
L 384.991311 134.966004 
L 384.991311 134.966004 
L 370.497804 134.966004 
z
" style="fill:none;stroke:#000000;stroke-linejoin:miter;"/>
   </g>
   <g id="patch_85">
    <path clip-path="url(#pda03c0e407)" d="M 384.991311 134.966004 
L 399.484817 134.966004 
L 399.484817 134.966004 
L 384.991311 134.966004 
z
" style="fill:none;stroke:#000000;stroke-linejoin:miter;"/>
   </g>
   <g id="patch_86">
    <path clip-path="url(#pda03c0e407)" d="M 399.484817 134.966004 
L 413.978324 134.966004 
L 413.978324 134.966004 
L 399.484817 134.966004 
z
" style="fill:none;stroke:#000000;stroke-linejoin:miter;"/>
   </g>
  </g>
 </g>
 <defs>
  <clipPath id="pda03c0e407">
   <rect height="332.64" width="318.857143" x="109.614688" y="10.7"/>
  </clipPath>
 </defs>
</svg>
