<?xml version="1.0" encoding="utf-8" standalone="no"?>
<!DOCTYPE svg PUBLIC "-//W3C//DTD SVG 1.1//EN"
  "http://www.w3.org/Graphics/SVG/1.1/DTD/svg11.dtd">
<!-- Created with matplotlib (http://matplotlib.org/) -->
<svg height="354pt" version="1.1" viewBox="0 0 217 354" width="217pt" xmlns="http://www.w3.org/2000/svg" xmlns:xlink="http://www.w3.org/1999/xlink">
 <defs>
  <style type="text/css">
*{stroke-linecap:butt;stroke-linejoin:round;}
  </style>
 </defs>
 <g id="figure_1">
  <g id="patch_1">
   <path d="M 0 354.04 
L 217.917187 354.04 
L 217.917187 0 
L 0 0 
z
" style="fill:#ffffff;"/>
  </g>
  <g id="axes_1">
   <g id="patch_2">
    <path d="M 95.617188 343.34 
L 207.217187 343.34 
L 207.217187 10.7 
L 95.617188 10.7 
z
" style="fill:#ffffff;"/>
   </g>
   <g id="matplotlib.axis_1"/>
   <g id="matplotlib.axis_2">
    <g id="ytick_1">
     <g id="line2d_1">
      <defs>
       <path d="M 0 0 
L -3.5 0 
" id="mbdaf475a0f" style="stroke:#000000;stroke-width:0.8;"/>
      </defs>
      <g>
       <use style="stroke:#000000;stroke-width:0.8;" x="95.617188" xlink:href="#mbdaf475a0f" y="320.538985"/>
      </g>
     </g>
     <g id="text_1">
      <!-- −0.004 -->
      <defs>
       <path d="M 10.59375 35.5 
L 73.1875 35.5 
L 73.1875 27.203125 
L 10.59375 27.203125 
z
" id="DejaVuSans-2212"/>
       <path d="M 31.78125 66.40625 
Q 24.171875 66.40625 20.328125 58.90625 
Q 16.5 51.421875 16.5 36.375 
Q 16.5 21.390625 20.328125 13.890625 
Q 24.171875 6.390625 31.78125 6.390625 
Q 39.453125 6.390625 43.28125 13.890625 
Q 47.125 21.390625 47.125 36.375 
Q 47.125 51.421875 43.28125 58.90625 
Q 39.453125 66.40625 31.78125 66.40625 
z
M 31.78125 74.21875 
Q 44.046875 74.21875 50.515625 64.515625 
Q 56.984375 54.828125 56.984375 36.375 
Q 56.984375 17.96875 50.515625 8.265625 
Q 44.046875 -1.421875 31.78125 -1.421875 
Q 19.53125 -1.421875 13.0625 8.265625 
Q 6.59375 17.96875 6.59375 36.375 
Q 6.59375 54.828125 13.0625 64.515625 
Q 19.53125 74.21875 31.78125 74.21875 
z
" id="DejaVuSans-30"/>
       <path d="M 10.6875 12.40625 
L 21 12.40625 
L 21 0 
L 10.6875 0 
z
" id="DejaVuSans-2e"/>
       <path d="M 37.796875 64.3125 
L 12.890625 25.390625 
L 37.796875 25.390625 
z
M 35.203125 72.90625 
L 47.609375 72.90625 
L 47.609375 25.390625 
L 58.015625 25.390625 
L 58.015625 17.1875 
L 47.609375 17.1875 
L 47.609375 0 
L 37.796875 0 
L 37.796875 17.1875 
L 4.890625 17.1875 
L 4.890625 26.703125 
z
" id="DejaVuSans-34"/>
      </defs>
      <g transform="translate(7.2 328.897267)scale(0.22 -0.22)">
       <use xlink:href="#DejaVuSans-2212"/>
       <use x="83.789062" xlink:href="#DejaVuSans-30"/>
       <use x="147.412109" xlink:href="#DejaVuSans-2e"/>
       <use x="179.199219" xlink:href="#DejaVuSans-30"/>
       <use x="242.822266" xlink:href="#DejaVuSans-30"/>
       <use x="306.445312" xlink:href="#DejaVuSans-34"/>
      </g>
     </g>
    </g>
    <g id="ytick_2">
     <g id="line2d_2">
      <g>
       <use style="stroke:#000000;stroke-width:0.8;" x="95.617188" xlink:href="#mbdaf475a0f" y="248.199057"/>
      </g>
     </g>
     <g id="text_2">
      <!-- −0.002 -->
      <defs>
       <path d="M 19.1875 8.296875 
L 53.609375 8.296875 
L 53.609375 0 
L 7.328125 0 
L 7.328125 8.296875 
Q 12.9375 14.109375 22.625 23.890625 
Q 32.328125 33.6875 34.8125 36.53125 
Q 39.546875 41.84375 41.421875 45.53125 
Q 43.3125 49.21875 43.3125 52.78125 
Q 43.3125 58.59375 39.234375 62.25 
Q 35.15625 65.921875 28.609375 65.921875 
Q 23.96875 65.921875 18.8125 64.3125 
Q 13.671875 62.703125 7.8125 59.421875 
L 7.8125 69.390625 
Q 13.765625 71.78125 18.9375 73 
Q 24.125 74.21875 28.421875 74.21875 
Q 39.75 74.21875 46.484375 68.546875 
Q 53.21875 62.890625 53.21875 53.421875 
Q 53.21875 48.921875 51.53125 44.890625 
Q 49.859375 40.875 45.40625 35.40625 
Q 44.1875 33.984375 37.640625 27.21875 
Q 31.109375 20.453125 19.1875 8.296875 
z
" id="DejaVuSans-32"/>
      </defs>
      <g transform="translate(7.2 256.557339)scale(0.22 -0.22)">
       <use xlink:href="#DejaVuSans-2212"/>
       <use x="83.789062" xlink:href="#DejaVuSans-30"/>
       <use x="147.412109" xlink:href="#DejaVuSans-2e"/>
       <use x="179.199219" xlink:href="#DejaVuSans-30"/>
       <use x="242.822266" xlink:href="#DejaVuSans-30"/>
       <use x="306.445312" xlink:href="#DejaVuSans-32"/>
      </g>
     </g>
    </g>
    <g id="ytick_3">
     <g id="line2d_3">
      <g>
       <use style="stroke:#000000;stroke-width:0.8;" x="95.617188" xlink:href="#mbdaf475a0f" y="175.859129"/>
      </g>
     </g>
     <g id="text_3">
      <!-- 0.000 -->
      <g transform="translate(25.635312 184.21741)scale(0.22 -0.22)">
       <use xlink:href="#DejaVuSans-30"/>
       <use x="63.623047" xlink:href="#DejaVuSans-2e"/>
       <use x="95.410156" xlink:href="#DejaVuSans-30"/>
       <use x="159.033203" xlink:href="#DejaVuSans-30"/>
       <use x="222.65625" xlink:href="#DejaVuSans-30"/>
      </g>
     </g>
    </g>
    <g id="ytick_4">
     <g id="line2d_4">
      <g>
       <use style="stroke:#000000;stroke-width:0.8;" x="95.617188" xlink:href="#mbdaf475a0f" y="103.519201"/>
      </g>
     </g>
     <g id="text_4">
      <!-- 0.002 -->
      <g transform="translate(25.635312 111.877482)scale(0.22 -0.22)">
       <use xlink:href="#DejaVuSans-30"/>
       <use x="63.623047" xlink:href="#DejaVuSans-2e"/>
       <use x="95.410156" xlink:href="#DejaVuSans-30"/>
       <use x="159.033203" xlink:href="#DejaVuSans-30"/>
       <use x="222.65625" xlink:href="#DejaVuSans-32"/>
      </g>
     </g>
    </g>
    <g id="ytick_5">
     <g id="line2d_5">
      <g>
       <use style="stroke:#000000;stroke-width:0.8;" x="95.617188" xlink:href="#mbdaf475a0f" y="31.179273"/>
      </g>
     </g>
     <g id="text_5">
      <!-- 0.004 -->
      <g transform="translate(25.635312 39.537554)scale(0.22 -0.22)">
       <use xlink:href="#DejaVuSans-30"/>
       <use x="63.623047" xlink:href="#DejaVuSans-2e"/>
       <use x="95.410156" xlink:href="#DejaVuSans-30"/>
       <use x="159.033203" xlink:href="#DejaVuSans-30"/>
       <use x="222.65625" xlink:href="#DejaVuSans-34"/>
      </g>
     </g>
    </g>
   </g>
   <g id="patch_3">
    <path clip-path="url(#p2a455b7d80)" d="M 100.689915 175.859129 
L 115.183421 175.859129 
L 115.183421 40.655706 
L 100.689915 40.655706 
z
" style="fill:#d92523;"/>
   </g>
   <g id="patch_4">
    <path clip-path="url(#p2a455b7d80)" d="M 115.183421 175.859129 
L 129.676928 175.859129 
L 129.676928 62.828602 
L 115.183421 62.828602 
z
" style="fill:#d92523;"/>
   </g>
   <g id="patch_5">
    <path clip-path="url(#p2a455b7d80)" d="M 129.676928 175.859129 
L 144.170434 175.859129 
L 144.170434 75.152819 
L 129.676928 75.152819 
z
" style="fill:#d92523;"/>
   </g>
   <g id="patch_6">
    <path clip-path="url(#p2a455b7d80)" d="M 144.170434 175.859129 
L 158.663941 175.859129 
L 158.663941 89.656684 
L 144.170434 89.656684 
z
" style="fill:#d92523;"/>
   </g>
   <g id="patch_7">
    <path clip-path="url(#p2a455b7d80)" d="M 158.663941 175.859129 
L 173.157447 175.859129 
L 173.157447 113.354868 
L 158.663941 113.354868 
z
" style="fill:#d92523;"/>
   </g>
   <g id="patch_8">
    <path clip-path="url(#p2a455b7d80)" d="M 173.157447 175.859129 
L 187.650954 175.859129 
L 187.650954 91.244042 
L 173.157447 91.244042 
z
" style="fill:#d92523;"/>
   </g>
   <g id="patch_9">
    <path clip-path="url(#p2a455b7d80)" d="M 187.650954 175.859129 
L 202.14446 175.859129 
L 202.14446 81.199904 
L 187.650954 81.199904 
z
" style="fill:#d92523;"/>
   </g>
   <g id="patch_10">
    <path clip-path="url(#p2a455b7d80)" d="M 100.689915 175.859129 
L 115.183421 175.859129 
L 115.183421 328.22 
L 100.689915 328.22 
z
" style="fill:#2e7ebc;"/>
   </g>
   <g id="patch_11">
    <path clip-path="url(#p2a455b7d80)" d="M 115.183421 175.859129 
L 129.676928 175.859129 
L 129.676928 297.771176 
L 115.183421 297.771176 
z
" style="fill:#2e7ebc;"/>
   </g>
   <g id="patch_12">
    <path clip-path="url(#p2a455b7d80)" d="M 129.676928 175.859129 
L 144.170434 175.859129 
L 144.170434 273.505145 
L 129.676928 273.505145 
z
" style="fill:#2e7ebc;"/>
   </g>
   <g id="patch_13">
    <path clip-path="url(#p2a455b7d80)" d="M 144.170434 175.859129 
L 158.663941 175.859129 
L 158.663941 268.533678 
L 144.170434 268.533678 
z
" style="fill:#2e7ebc;"/>
   </g>
   <g id="patch_14">
    <path clip-path="url(#p2a455b7d80)" d="M 158.663941 175.859129 
L 173.157447 175.859129 
L 173.157447 244.510916 
L 158.663941 244.510916 
z
" style="fill:#2e7ebc;"/>
   </g>
   <g id="patch_15">
    <path clip-path="url(#p2a455b7d80)" d="M 173.157447 175.859129 
L 187.650954 175.859129 
L 187.650954 288.604716 
L 173.157447 288.604716 
z
" style="fill:#2e7ebc;"/>
   </g>
   <g id="patch_16">
    <path clip-path="url(#p2a455b7d80)" d="M 187.650954 175.859129 
L 202.14446 175.859129 
L 202.14446 259.265424 
L 187.650954 259.265424 
z
" style="fill:#2e7ebc;"/>
   </g>
   <g id="patch_17">
    <path d="M 95.617188 343.34 
L 95.617188 10.7 
" style="fill:none;stroke:#000000;stroke-linecap:square;stroke-linejoin:miter;stroke-width:0.8;"/>
   </g>
   <g id="patch_18">
    <path d="M 207.217187 343.34 
L 207.217187 10.7 
" style="fill:none;stroke:#000000;stroke-linecap:square;stroke-linejoin:miter;stroke-width:0.8;"/>
   </g>
   <g id="patch_19">
    <path d="M 95.617188 343.34 
L 207.217188 343.34 
" style="fill:none;stroke:#000000;stroke-linecap:square;stroke-linejoin:miter;stroke-width:0.8;"/>
   </g>
   <g id="patch_20">
    <path d="M 95.617188 10.7 
L 207.217188 10.7 
" style="fill:none;stroke:#000000;stroke-linecap:square;stroke-linejoin:miter;stroke-width:0.8;"/>
   </g>
   <g id="patch_21">
    <path clip-path="url(#p2a455b7d80)" d="M 100.689915 175.859129 
L 115.183421 175.859129 
L 115.183421 25.82 
L 100.689915 25.82 
z
" style="fill:none;stroke:#000000;stroke-linejoin:miter;"/>
   </g>
   <g id="patch_22">
    <path clip-path="url(#p2a455b7d80)" d="M 115.183421 175.859129 
L 129.676928 175.859129 
L 129.676928 53.620272 
L 115.183421 53.620272 
z
" style="fill:none;stroke:#000000;stroke-linejoin:miter;"/>
   </g>
   <g id="patch_23">
    <path clip-path="url(#p2a455b7d80)" d="M 129.676928 175.859129 
L 144.170434 175.859129 
L 144.170434 61.940291 
L 129.676928 61.940291 
z
" style="fill:none;stroke:#000000;stroke-linejoin:miter;"/>
   </g>
   <g id="patch_24">
    <path clip-path="url(#p2a455b7d80)" d="M 144.170434 175.859129 
L 158.663941 175.859129 
L 158.663941 68.577079 
L 144.170434 68.577079 
z
" style="fill:none;stroke:#000000;stroke-linejoin:miter;"/>
   </g>
   <g id="patch_25">
    <path clip-path="url(#p2a455b7d80)" d="M 158.663941 175.859129 
L 173.157447 175.859129 
L 173.157447 69.908166 
L 158.663941 69.908166 
z
" style="fill:none;stroke:#000000;stroke-linejoin:miter;"/>
   </g>
   <g id="patch_26">
    <path clip-path="url(#p2a455b7d80)" d="M 173.157447 175.859129 
L 187.650954 175.859129 
L 187.650954 77.13584 
L 173.157447 77.13584 
z
" style="fill:none;stroke:#000000;stroke-linejoin:miter;"/>
   </g>
   <g id="patch_27">
    <path clip-path="url(#p2a455b7d80)" d="M 187.650954 175.859129 
L 202.14446 175.859129 
L 202.14446 80.851237 
L 187.650954 80.851237 
z
" style="fill:none;stroke:#000000;stroke-linejoin:miter;"/>
   </g>
   <g id="patch_28">
    <path clip-path="url(#p2a455b7d80)" d="M 100.689915 175.859129 
L 115.183421 175.859129 
L 115.183421 325.898258 
L 100.689915 325.898258 
z
" style="fill:none;stroke:#000000;stroke-linejoin:miter;"/>
   </g>
   <g id="patch_29">
    <path clip-path="url(#p2a455b7d80)" d="M 115.183421 175.859129 
L 129.676928 175.859129 
L 129.676928 298.097986 
L 115.183421 298.097986 
z
" style="fill:none;stroke:#000000;stroke-linejoin:miter;"/>
   </g>
   <g id="patch_30">
    <path clip-path="url(#p2a455b7d80)" d="M 129.676928 175.859129 
L 144.170434 175.859129 
L 144.170434 289.777968 
L 129.676928 289.777968 
z
" style="fill:none;stroke:#000000;stroke-linejoin:miter;"/>
   </g>
   <g id="patch_31">
    <path clip-path="url(#p2a455b7d80)" d="M 144.170434 175.859129 
L 158.663941 175.859129 
L 158.663941 283.14118 
L 144.170434 283.14118 
z
" style="fill:none;stroke:#000000;stroke-linejoin:miter;"/>
   </g>
   <g id="patch_32">
    <path clip-path="url(#p2a455b7d80)" d="M 158.663941 175.859129 
L 173.157447 175.859129 
L 173.157447 281.810092 
L 158.663941 281.810092 
z
" style="fill:none;stroke:#000000;stroke-linejoin:miter;"/>
   </g>
   <g id="patch_33">
    <path clip-path="url(#p2a455b7d80)" d="M 173.157447 175.859129 
L 187.650954 175.859129 
L 187.650954 274.582418 
L 173.157447 274.582418 
z
" style="fill:none;stroke:#000000;stroke-linejoin:miter;"/>
   </g>
   <g id="patch_34">
    <path clip-path="url(#p2a455b7d80)" d="M 187.650954 175.859129 
L 202.14446 175.859129 
L 202.14446 270.867021 
L 187.650954 270.867021 
z
" style="fill:none;stroke:#000000;stroke-linejoin:miter;"/>
   </g>
  </g>
 </g>
 <defs>
  <clipPath id="p2a455b7d80">
   <rect height="332.64" width="111.6" x="95.617188" y="10.7"/>
  </clipPath>
 </defs>
</svg>
