<?xml version="1.0" encoding="utf-8" standalone="no"?>
<!DOCTYPE svg PUBLIC "-//W3C//DTD SVG 1.1//EN"
  "http://www.w3.org/Graphics/SVG/1.1/DTD/svg11.dtd">
<!-- Created with matplotlib (http://matplotlib.org/) -->
<svg height="208pt" version="1.1" viewBox="0 0 216 208" width="216pt" xmlns="http://www.w3.org/2000/svg" xmlns:xlink="http://www.w3.org/1999/xlink">
 <defs>
  <style type="text/css">
*{stroke-linecap:butt;stroke-linejoin:round;}
  </style>
 </defs>
 <g id="figure_1">
  <g id="patch_1">
   <path d="M 0 208.640625 
L 216.0925 208.640625 
L 216.0925 0 
L 0 0 
z
" style="fill:#ffffff;"/>
  </g>
  <g id="axes_1">
   <g id="patch_2">
    <path d="M 25.6525 177.02 
L 193.0525 177.02 
L 193.0525 10.7 
L 25.6525 10.7 
z
" style="fill:#ffffff;"/>
   </g>
   <g id="matplotlib.axis_1">
    <g id="xtick_1">
     <g id="line2d_1">
      <defs>
       <path d="M 0 0 
L 0 3.5 
" id="mdb22c8aa14" style="stroke:#000000;stroke-width:0.8;"/>
      </defs>
      <g>
       <use style="stroke:#000000;stroke-width:0.8;" x="25.6525" xlink:href="#mdb22c8aa14" y="177.02"/>
      </g>
     </g>
     <g id="text_1">
      <!-- $\mathdefault{10^{0}}$ -->
      <defs>
       <path d="M 12.40625 8.296875 
L 28.515625 8.296875 
L 28.515625 63.921875 
L 10.984375 60.40625 
L 10.984375 69.390625 
L 28.421875 72.90625 
L 38.28125 72.90625 
L 38.28125 8.296875 
L 54.390625 8.296875 
L 54.390625 0 
L 12.40625 0 
z
" id="DejaVuSans-31"/>
       <path d="M 31.78125 66.40625 
Q 24.171875 66.40625 20.328125 58.90625 
Q 16.5 51.421875 16.5 36.375 
Q 16.5 21.390625 20.328125 13.890625 
Q 24.171875 6.390625 31.78125 6.390625 
Q 39.453125 6.390625 43.28125 13.890625 
Q 47.125 21.390625 47.125 36.375 
Q 47.125 51.421875 43.28125 58.90625 
Q 39.453125 66.40625 31.78125 66.40625 
z
M 31.78125 74.21875 
Q 44.046875 74.21875 50.515625 64.515625 
Q 56.984375 54.828125 56.984375 36.375 
Q 56.984375 17.96875 50.515625 8.265625 
Q 44.046875 -1.421875 31.78125 -1.421875 
Q 19.53125 -1.421875 13.0625 8.265625 
Q 6.59375 17.96875 6.59375 36.375 
Q 6.59375 54.828125 13.0625 64.515625 
Q 19.53125 74.21875 31.78125 74.21875 
z
" id="DejaVuSans-30"/>
      </defs>
      <g transform="translate(9.8125 197.697188)scale(0.18 -0.18)">
       <use transform="translate(0 0.765625)" xlink:href="#DejaVuSans-31"/>
       <use transform="translate(63.623047 0.765625)" xlink:href="#DejaVuSans-30"/>
       <use transform="translate(128.203125 39.046875)scale(0.7)" xlink:href="#DejaVuSans-30"/>
      </g>
     </g>
    </g>
    <g id="xtick_2">
     <g id="line2d_2">
      <g>
       <use style="stroke:#000000;stroke-width:0.8;" x="109.3525" xlink:href="#mdb22c8aa14" y="177.02"/>
      </g>
     </g>
     <g id="text_2">
      <!-- $\mathdefault{10^{2}}$ -->
      <defs>
       <path d="M 19.1875 8.296875 
L 53.609375 8.296875 
L 53.609375 0 
L 7.328125 0 
L 7.328125 8.296875 
Q 12.9375 14.109375 22.625 23.890625 
Q 32.328125 33.6875 34.8125 36.53125 
Q 39.546875 41.84375 41.421875 45.53125 
Q 43.3125 49.21875 43.3125 52.78125 
Q 43.3125 58.59375 39.234375 62.25 
Q 35.15625 65.921875 28.609375 65.921875 
Q 23.96875 65.921875 18.8125 64.3125 
Q 13.671875 62.703125 7.8125 59.421875 
L 7.8125 69.390625 
Q 13.765625 71.78125 18.9375 73 
Q 24.125 74.21875 28.421875 74.21875 
Q 39.75 74.21875 46.484375 68.546875 
Q 53.21875 62.890625 53.21875 53.421875 
Q 53.21875 48.921875 51.53125 44.890625 
Q 49.859375 40.875 45.40625 35.40625 
Q 44.1875 33.984375 37.640625 27.21875 
Q 31.109375 20.453125 19.1875 8.296875 
z
" id="DejaVuSans-32"/>
      </defs>
      <g transform="translate(93.5125 197.697188)scale(0.18 -0.18)">
       <use transform="translate(0 0.765625)" xlink:href="#DejaVuSans-31"/>
       <use transform="translate(63.623047 0.765625)" xlink:href="#DejaVuSans-30"/>
       <use transform="translate(128.203125 39.046875)scale(0.7)" xlink:href="#DejaVuSans-32"/>
      </g>
     </g>
    </g>
    <g id="xtick_3">
     <g id="line2d_3">
      <g>
       <use style="stroke:#000000;stroke-width:0.8;" x="193.0525" xlink:href="#mdb22c8aa14" y="177.02"/>
      </g>
     </g>
     <g id="text_3">
      <!-- $\mathdefault{10^{4}}$ -->
      <defs>
       <path d="M 37.796875 64.3125 
L 12.890625 25.390625 
L 37.796875 25.390625 
z
M 35.203125 72.90625 
L 47.609375 72.90625 
L 47.609375 25.390625 
L 58.015625 25.390625 
L 58.015625 17.1875 
L 47.609375 17.1875 
L 47.609375 0 
L 37.796875 0 
L 37.796875 17.1875 
L 4.890625 17.1875 
L 4.890625 26.703125 
z
" id="DejaVuSans-34"/>
      </defs>
      <g transform="translate(177.2125 197.697188)scale(0.18 -0.18)">
       <use transform="translate(0 0.684375)" xlink:href="#DejaVuSans-31"/>
       <use transform="translate(63.623047 0.684375)" xlink:href="#DejaVuSans-30"/>
       <use transform="translate(128.203125 38.965625)scale(0.7)" xlink:href="#DejaVuSans-34"/>
      </g>
     </g>
    </g>
    <g id="xtick_4">
     <g id="line2d_4">
      <defs>
       <path d="M 0 0 
L 0 2 
" id="ma80d7fddfb" style="stroke:#000000;stroke-width:0.6;"/>
      </defs>
      <g>
       <use style="stroke:#000000;stroke-width:0.6;" x="38.250605" xlink:href="#ma80d7fddfb" y="177.02"/>
      </g>
     </g>
    </g>
    <g id="xtick_5">
     <g id="line2d_5">
      <g>
       <use style="stroke:#000000;stroke-width:0.6;" x="45.620025" xlink:href="#ma80d7fddfb" y="177.02"/>
      </g>
     </g>
    </g>
    <g id="xtick_6">
     <g id="line2d_6">
      <g>
       <use style="stroke:#000000;stroke-width:0.6;" x="50.848711" xlink:href="#ma80d7fddfb" y="177.02"/>
      </g>
     </g>
    </g>
    <g id="xtick_7">
     <g id="line2d_7">
      <g>
       <use style="stroke:#000000;stroke-width:0.6;" x="54.904395" xlink:href="#ma80d7fddfb" y="177.02"/>
      </g>
     </g>
    </g>
    <g id="xtick_8">
     <g id="line2d_8">
      <g>
       <use style="stroke:#000000;stroke-width:0.6;" x="58.21813" xlink:href="#ma80d7fddfb" y="177.02"/>
      </g>
     </g>
    </g>
    <g id="xtick_9">
     <g id="line2d_9">
      <g>
       <use style="stroke:#000000;stroke-width:0.6;" x="61.019853" xlink:href="#ma80d7fddfb" y="177.02"/>
      </g>
     </g>
    </g>
    <g id="xtick_10">
     <g id="line2d_10">
      <g>
       <use style="stroke:#000000;stroke-width:0.6;" x="63.446816" xlink:href="#ma80d7fddfb" y="177.02"/>
      </g>
     </g>
    </g>
    <g id="xtick_11">
     <g id="line2d_11">
      <g>
       <use style="stroke:#000000;stroke-width:0.6;" x="65.587549" xlink:href="#ma80d7fddfb" y="177.02"/>
      </g>
     </g>
    </g>
    <g id="xtick_12">
     <g id="line2d_12">
      <g>
       <use style="stroke:#000000;stroke-width:0.6;" x="80.100605" xlink:href="#ma80d7fddfb" y="177.02"/>
      </g>
     </g>
    </g>
    <g id="xtick_13">
     <g id="line2d_13">
      <g>
       <use style="stroke:#000000;stroke-width:0.6;" x="87.470025" xlink:href="#ma80d7fddfb" y="177.02"/>
      </g>
     </g>
    </g>
    <g id="xtick_14">
     <g id="line2d_14">
      <g>
       <use style="stroke:#000000;stroke-width:0.6;" x="92.698711" xlink:href="#ma80d7fddfb" y="177.02"/>
      </g>
     </g>
    </g>
    <g id="xtick_15">
     <g id="line2d_15">
      <g>
       <use style="stroke:#000000;stroke-width:0.6;" x="96.754395" xlink:href="#ma80d7fddfb" y="177.02"/>
      </g>
     </g>
    </g>
    <g id="xtick_16">
     <g id="line2d_16">
      <g>
       <use style="stroke:#000000;stroke-width:0.6;" x="100.06813" xlink:href="#ma80d7fddfb" y="177.02"/>
      </g>
     </g>
    </g>
    <g id="xtick_17">
     <g id="line2d_17">
      <g>
       <use style="stroke:#000000;stroke-width:0.6;" x="102.869853" xlink:href="#ma80d7fddfb" y="177.02"/>
      </g>
     </g>
    </g>
    <g id="xtick_18">
     <g id="line2d_18">
      <g>
       <use style="stroke:#000000;stroke-width:0.6;" x="105.296816" xlink:href="#ma80d7fddfb" y="177.02"/>
      </g>
     </g>
    </g>
    <g id="xtick_19">
     <g id="line2d_19">
      <g>
       <use style="stroke:#000000;stroke-width:0.6;" x="107.437549" xlink:href="#ma80d7fddfb" y="177.02"/>
      </g>
     </g>
    </g>
    <g id="xtick_20">
     <g id="line2d_20">
      <g>
       <use style="stroke:#000000;stroke-width:0.6;" x="121.950605" xlink:href="#ma80d7fddfb" y="177.02"/>
      </g>
     </g>
    </g>
    <g id="xtick_21">
     <g id="line2d_21">
      <g>
       <use style="stroke:#000000;stroke-width:0.6;" x="129.320025" xlink:href="#ma80d7fddfb" y="177.02"/>
      </g>
     </g>
    </g>
    <g id="xtick_22">
     <g id="line2d_22">
      <g>
       <use style="stroke:#000000;stroke-width:0.6;" x="134.548711" xlink:href="#ma80d7fddfb" y="177.02"/>
      </g>
     </g>
    </g>
    <g id="xtick_23">
     <g id="line2d_23">
      <g>
       <use style="stroke:#000000;stroke-width:0.6;" x="138.604395" xlink:href="#ma80d7fddfb" y="177.02"/>
      </g>
     </g>
    </g>
    <g id="xtick_24">
     <g id="line2d_24">
      <g>
       <use style="stroke:#000000;stroke-width:0.6;" x="141.91813" xlink:href="#ma80d7fddfb" y="177.02"/>
      </g>
     </g>
    </g>
    <g id="xtick_25">
     <g id="line2d_25">
      <g>
       <use style="stroke:#000000;stroke-width:0.6;" x="144.719853" xlink:href="#ma80d7fddfb" y="177.02"/>
      </g>
     </g>
    </g>
    <g id="xtick_26">
     <g id="line2d_26">
      <g>
       <use style="stroke:#000000;stroke-width:0.6;" x="147.146816" xlink:href="#ma80d7fddfb" y="177.02"/>
      </g>
     </g>
    </g>
    <g id="xtick_27">
     <g id="line2d_27">
      <g>
       <use style="stroke:#000000;stroke-width:0.6;" x="149.287549" xlink:href="#ma80d7fddfb" y="177.02"/>
      </g>
     </g>
    </g>
    <g id="xtick_28">
     <g id="line2d_28">
      <g>
       <use style="stroke:#000000;stroke-width:0.6;" x="163.800605" xlink:href="#ma80d7fddfb" y="177.02"/>
      </g>
     </g>
    </g>
    <g id="xtick_29">
     <g id="line2d_29">
      <g>
       <use style="stroke:#000000;stroke-width:0.6;" x="171.170025" xlink:href="#ma80d7fddfb" y="177.02"/>
      </g>
     </g>
    </g>
    <g id="xtick_30">
     <g id="line2d_30">
      <g>
       <use style="stroke:#000000;stroke-width:0.6;" x="176.398711" xlink:href="#ma80d7fddfb" y="177.02"/>
      </g>
     </g>
    </g>
    <g id="xtick_31">
     <g id="line2d_31">
      <g>
       <use style="stroke:#000000;stroke-width:0.6;" x="180.454395" xlink:href="#ma80d7fddfb" y="177.02"/>
      </g>
     </g>
    </g>
    <g id="xtick_32">
     <g id="line2d_32">
      <g>
       <use style="stroke:#000000;stroke-width:0.6;" x="183.76813" xlink:href="#ma80d7fddfb" y="177.02"/>
      </g>
     </g>
    </g>
    <g id="xtick_33">
     <g id="line2d_33">
      <g>
       <use style="stroke:#000000;stroke-width:0.6;" x="186.569853" xlink:href="#ma80d7fddfb" y="177.02"/>
      </g>
     </g>
    </g>
    <g id="xtick_34">
     <g id="line2d_34">
      <g>
       <use style="stroke:#000000;stroke-width:0.6;" x="188.996816" xlink:href="#ma80d7fddfb" y="177.02"/>
      </g>
     </g>
    </g>
    <g id="xtick_35">
     <g id="line2d_35">
      <g>
       <use style="stroke:#000000;stroke-width:0.6;" x="191.137549" xlink:href="#ma80d7fddfb" y="177.02"/>
      </g>
     </g>
    </g>
   </g>
   <g id="matplotlib.axis_2">
    <g id="ytick_1">
     <g id="line2d_36">
      <defs>
       <path d="M 0 0 
L -3.5 0 
" id="madd206e6e8" style="stroke:#000000;stroke-width:0.8;"/>
      </defs>
      <g>
       <use style="stroke:#000000;stroke-width:0.8;" x="25.6525" xlink:href="#madd206e6e8" y="177.02"/>
      </g>
     </g>
     <g id="text_4">
      <!-- 0 -->
      <g transform="translate(7.2 183.858594)scale(0.18 -0.18)">
       <use xlink:href="#DejaVuSans-30"/>
      </g>
     </g>
    </g>
    <g id="ytick_2">
     <g id="line2d_37">
      <g>
       <use style="stroke:#000000;stroke-width:0.8;" x="25.6525" xlink:href="#madd206e6e8" y="129.567789"/>
      </g>
     </g>
     <g id="text_5">
      <!-- 2 -->
      <g transform="translate(7.2 136.406383)scale(0.18 -0.18)">
       <use xlink:href="#DejaVuSans-32"/>
      </g>
     </g>
    </g>
    <g id="ytick_3">
     <g id="line2d_38">
      <g>
       <use style="stroke:#000000;stroke-width:0.8;" x="25.6525" xlink:href="#madd206e6e8" y="82.115578"/>
      </g>
     </g>
     <g id="text_6">
      <!-- 4 -->
      <g transform="translate(7.2 88.954171)scale(0.18 -0.18)">
       <use xlink:href="#DejaVuSans-34"/>
      </g>
     </g>
    </g>
    <g id="ytick_4">
     <g id="line2d_39">
      <g>
       <use style="stroke:#000000;stroke-width:0.8;" x="25.6525" xlink:href="#madd206e6e8" y="34.663367"/>
      </g>
     </g>
     <g id="text_7">
      <!-- 6 -->
      <defs>
       <path d="M 33.015625 40.375 
Q 26.375 40.375 22.484375 35.828125 
Q 18.609375 31.296875 18.609375 23.390625 
Q 18.609375 15.53125 22.484375 10.953125 
Q 26.375 6.390625 33.015625 6.390625 
Q 39.65625 6.390625 43.53125 10.953125 
Q 47.40625 15.53125 47.40625 23.390625 
Q 47.40625 31.296875 43.53125 35.828125 
Q 39.65625 40.375 33.015625 40.375 
z
M 52.59375 71.296875 
L 52.59375 62.3125 
Q 48.875 64.0625 45.09375 64.984375 
Q 41.3125 65.921875 37.59375 65.921875 
Q 27.828125 65.921875 22.671875 59.328125 
Q 17.53125 52.734375 16.796875 39.40625 
Q 19.671875 43.65625 24.015625 45.921875 
Q 28.375 48.1875 33.59375 48.1875 
Q 44.578125 48.1875 50.953125 41.515625 
Q 57.328125 34.859375 57.328125 23.390625 
Q 57.328125 12.15625 50.6875 5.359375 
Q 44.046875 -1.421875 33.015625 -1.421875 
Q 20.359375 -1.421875 13.671875 8.265625 
Q 6.984375 17.96875 6.984375 36.375 
Q 6.984375 53.65625 15.1875 63.9375 
Q 23.390625 74.21875 37.203125 74.21875 
Q 40.921875 74.21875 44.703125 73.484375 
Q 48.484375 72.75 52.59375 71.296875 
z
" id="DejaVuSans-36"/>
      </defs>
      <g transform="translate(7.2 41.50196)scale(0.18 -0.18)">
       <use xlink:href="#DejaVuSans-36"/>
      </g>
     </g>
    </g>
   </g>
   <g id="line2d_40">
    <path clip-path="url(#pb8a7912a34)" d="M 25.6525 173.151375 
L 29.068827 172.95904 
L 32.485153 171.008878 
L 35.90148 169.511994 
L 39.317806 170.979218 
L 42.734133 170.535107 
L 46.150459 167.203412 
L 49.566786 160.286033 
L 52.983112 160.093553 
L 56.399439 148.700381 
L 59.815765 138.568316 
L 63.232092 130.096654 
L 66.648418 116.624039 
L 70.064745 108.601131 
L 73.481071 108.026999 
L 76.897398 103.192938 
L 80.313724 100.127716 
L 83.730051 102.695969 
L 87.146378 102.910208 
L 90.562704 107.442146 
L 93.979031 109.506471 
L 97.395357 109.637959 
L 100.811684 111.719849 
L 104.22801 113.197706 
L 107.644337 116.111826 
L 111.060663 117.1472 
L 114.47699 116.340783 
L 117.893316 114.701754 
L 121.309643 115.331574 
L 124.725969 114.419506 
L 128.142296 114.95356 
L 131.558622 115.661297 
L 134.974949 114.968113 
L 138.391276 114.279424 
L 141.807602 113.944128 
L 145.223929 113.754152 
L 148.640255 113.577565 
L 152.056582 113.35982 
L 155.472908 113.165977 
L 158.889235 113.033707 
L 162.305561 113.010674 
L 165.721888 112.986031 
L 169.138214 112.9871 
L 172.554541 112.988414 
L 175.970867 112.989844 
L 179.387194 112.991257 
L 182.80352 112.992515 
L 186.219847 112.993469 
L 189.636173 112.993956 
L 193.0525 112.993793 
" style="fill:none;opacity:0.5;stroke:#73d056;stroke-linecap:square;stroke-width:0.3;"/>
   </g>
   <g id="line2d_41">
    <path clip-path="url(#pb8a7912a34)" d="M 25.6525 145.355016 
L 29.068827 136.599784 
L 32.485153 127.429666 
L 35.90148 115.535299 
L 39.317806 111.632805 
L 42.734133 106.164413 
L 46.150459 107.228976 
L 49.566786 114.419835 
L 52.983112 114.148331 
L 56.399439 114.581233 
L 59.815765 116.140615 
L 63.232092 115.11109 
L 66.648418 116.669986 
L 70.064745 116.955929 
L 73.481071 113.843037 
L 76.897398 112.033981 
L 80.313724 111.79102 
L 83.730051 112.015375 
L 87.146378 115.09987 
L 90.562704 116.269665 
L 93.979031 117.598326 
L 97.395357 116.805479 
L 100.811684 118.052748 
L 104.22801 118.118673 
L 107.644337 117.127041 
L 111.060663 116.54936 
L 114.47699 116.115685 
L 117.893316 115.568703 
L 121.309643 115.218715 
L 124.725969 114.893681 
L 128.142296 114.552014 
L 131.558622 114.344253 
L 134.974949 114.246727 
L 138.391276 114.247137 
L 141.807602 114.248284 
L 145.223929 114.250046 
L 148.640255 114.252318 
L 152.056582 114.255008 
L 155.472908 114.258034 
L 158.889235 114.261322 
L 162.305561 114.2648 
L 165.721888 114.268401 
L 169.138214 114.272058 
L 172.554541 114.275699 
L 175.970867 114.279249 
L 179.387194 114.282628 
L 182.80352 114.285742 
L 186.219847 114.288486 
L 189.636173 114.290736 
L 193.0525 114.292349 
" style="fill:none;opacity:0.5;stroke:#73d056;stroke-linecap:square;stroke-width:0.3;"/>
   </g>
   <g id="line2d_42">
    <path clip-path="url(#pb8a7912a34)" d="M 25.6525 166.243137 
L 29.068827 161.40246 
L 32.485153 144.429968 
L 35.90148 132.527843 
L 39.317806 117.795384 
L 42.734133 109.217512 
L 46.150459 109.186456 
L 49.566786 111.250895 
L 52.983112 111.131134 
L 56.399439 110.198856 
L 59.815765 111.84193 
L 63.232092 111.323458 
L 66.648418 116.058954 
L 70.064745 113.755001 
L 73.481071 110.326504 
L 76.897398 108.780261 
L 80.313724 109.481048 
L 83.730051 113.752639 
L 87.146378 115.002855 
L 90.562704 117.586327 
L 93.979031 119.00098 
L 97.395357 119.677792 
L 100.811684 118.741976 
L 104.22801 118.137987 
L 107.644337 117.780205 
L 111.060663 117.305777 
L 114.47699 116.687067 
L 117.893316 116.069355 
L 121.309643 115.737538 
L 124.725969 115.527564 
L 128.142296 115.411054 
L 131.558622 115.393276 
L 134.974949 115.394014 
L 138.391276 115.395461 
L 141.807602 115.397501 
L 145.223929 115.400035 
L 148.640255 115.402972 
L 152.056582 115.406236 
L 155.472908 115.409752 
L 158.889235 115.413454 
L 162.305561 115.417275 
L 165.721888 115.421151 
L 169.138214 115.425014 
L 172.554541 115.428791 
L 175.970867 115.432404 
L 179.387194 115.435762 
L 182.80352 115.438763 
L 186.219847 115.441289 
L 189.636173 115.443198 
L 193.0525 115.444324 
" style="fill:none;opacity:0.5;stroke:#73d056;stroke-linecap:square;stroke-width:0.3;"/>
   </g>
   <g id="line2d_43">
    <path clip-path="url(#pb8a7912a34)" d="M 25.6525 138.880525 
L 29.068827 131.575545 
L 32.485153 124.728909 
L 35.90148 119.650084 
L 39.317806 120.617387 
L 42.734133 113.041824 
L 46.150459 109.608046 
L 49.566786 108.229804 
L 52.983112 104.047425 
L 56.399439 108.343092 
L 59.815765 106.540589 
L 63.232092 108.029782 
L 66.648418 109.121523 
L 70.064745 114.313282 
L 73.481071 118.153836 
L 76.897398 117.549339 
L 80.313724 117.864458 
L 83.730051 116.848853 
L 87.146378 116.001362 
L 90.562704 116.872712 
L 93.979031 115.176735 
L 97.395357 115.537588 
L 100.811684 114.748018 
L 104.22801 116.110263 
L 107.644337 116.369905 
L 111.060663 115.877485 
L 114.47699 115.385979 
L 117.893316 114.949346 
L 121.309643 114.534178 
L 124.725969 114.143509 
L 128.142296 113.941567 
L 131.558622 113.842532 
L 134.974949 113.815806 
L 138.391276 113.816851 
L 141.807602 113.818578 
L 145.223929 113.820874 
L 148.640255 113.823642 
L 152.056582 113.826796 
L 155.472908 113.830258 
L 158.889235 113.833958 
L 162.305561 113.837826 
L 165.721888 113.841797 
L 169.138214 113.845803 
L 172.554541 113.849773 
L 175.970867 113.853633 
L 179.387194 113.857297 
L 182.80352 113.86067 
L 186.219847 113.863643 
L 189.636173 113.866087 
L 193.0525 113.867852 
" style="fill:none;opacity:0.5;stroke:#73d056;stroke-linecap:square;stroke-width:0.3;"/>
   </g>
   <g id="line2d_44">
    <path clip-path="url(#pb8a7912a34)" d="M 25.6525 181.023448 
L 29.068827 181.023448 
L 32.485153 181.023448 
L 35.90148 177.564231 
L 39.317806 175.720396 
L 42.734133 165.888692 
L 46.150459 155.081843 
L 49.566786 142.624009 
L 52.983112 127.211729 
L 56.399439 120.390698 
L 59.815765 115.054927 
L 63.232092 114.941946 
L 66.648418 116.991814 
L 70.064745 112.602883 
L 73.481071 112.363069 
L 76.897398 111.371058 
L 80.313724 107.167922 
L 83.730051 112.080251 
L 87.146378 115.646802 
L 90.562704 114.470741 
L 93.979031 118.014689 
L 97.395357 117.50542 
L 100.811684 115.317629 
L 104.22801 116.383876 
L 107.644337 117.725387 
L 111.060663 115.563271 
L 114.47699 116.048715 
L 117.893316 115.467418 
L 121.309643 114.830264 
L 124.725969 116.447793 
L 128.142296 116.628428 
L 131.558622 116.627084 
L 134.974949 115.937819 
L 138.391276 115.511227 
L 141.807602 115.36035 
L 145.223929 115.252696 
L 148.640255 115.224507 
L 152.056582 115.197222 
L 155.472908 115.197373 
L 158.889235 115.198096 
L 162.305561 115.199261 
L 165.721888 115.200744 
L 169.138214 115.20243 
L 172.554541 115.204206 
L 175.970867 115.205955 
L 179.387194 115.207559 
L 182.80352 115.208888 
L 186.219847 115.209799 
L 189.636173 115.210131 
L 193.0525 115.2097 
" style="fill:none;opacity:0.5;stroke:#73d056;stroke-linecap:square;stroke-width:0.3;"/>
   </g>
   <g id="line2d_45">
    <path clip-path="url(#pb8a7912a34)" d="M 25.6525 114.783764 
L 29.068827 114.975993 
L 32.485153 116.786843 
L 35.90148 117.181846 
L 39.317806 113.074722 
L 42.734133 112.025952 
L 46.150459 114.626914 
L 49.566786 114.08687 
L 52.983112 114.803224 
L 56.399439 115.651133 
L 59.815765 112.563805 
L 63.232092 111.445011 
L 66.648418 113.837055 
L 70.064745 114.916141 
L 73.481071 115.756515 
L 76.897398 116.019239 
L 80.313724 116.179193 
L 83.730051 115.35018 
L 87.146378 115.969495 
L 90.562704 115.456141 
L 93.979031 115.025842 
L 97.395357 114.708872 
L 100.811684 114.360587 
L 104.22801 114.106632 
L 107.644337 114.08966 
L 111.060663 114.070466 
L 114.47699 114.071405 
L 117.893316 114.073024 
L 121.309643 114.075221 
L 124.725969 114.07791 
L 128.142296 114.081019 
L 131.558622 114.084486 
L 134.974949 114.088258 
L 138.391276 114.092288 
L 141.807602 114.096536 
L 145.223929 114.100964 
L 148.640255 114.105539 
L 152.056582 114.110225 
L 155.472908 114.114992 
L 158.889235 114.119804 
L 162.305561 114.124626 
L 165.721888 114.129416 
L 169.138214 114.134129 
L 172.554541 114.138713 
L 175.970867 114.143107 
L 179.387194 114.147238 
L 182.80352 114.151019 
L 186.219847 114.154348 
L 189.636173 114.157103 
L 193.0525 114.159133 
" style="fill:none;opacity:0.5;stroke:#73d056;stroke-linecap:square;stroke-width:0.3;"/>
   </g>
   <g id="line2d_46">
    <path clip-path="url(#pb8a7912a34)" d="M 25.6525 177.748978 
L 29.068827 177.70804 
L 32.485153 176.102906 
L 35.90148 176.104256 
L 39.317806 176.105348 
L 42.734133 176.106221 
L 46.150459 176.106928 
L 49.566786 174.315061 
L 52.983112 170.743268 
L 56.399439 159.843829 
L 59.815765 152.322696 
L 63.232092 150.83837 
L 66.648418 138.923625 
L 70.064745 131.568255 
L 73.481071 123.803561 
L 76.897398 108.837903 
L 80.313724 111.229726 
L 83.730051 107.904376 
L 87.146378 108.284162 
L 90.562704 113.691485 
L 93.979031 113.061052 
L 97.395357 110.512691 
L 100.811684 108.388306 
L 104.22801 109.722617 
L 107.644337 105.125194 
L 111.060663 108.933381 
L 114.47699 111.036625 
L 117.893316 108.924846 
L 121.309643 112.662715 
L 124.725969 113.754104 
L 128.142296 114.307051 
L 131.558622 119.104279 
L 134.974949 119.468447 
L 138.391276 118.897881 
L 141.807602 118.286048 
L 145.223929 117.733834 
L 148.640255 117.359712 
L 152.056582 117.01138 
L 155.472908 116.693077 
L 158.889235 116.41411 
L 162.305561 116.196792 
L 165.721888 116.05555 
L 169.138214 116.000967 
L 172.554541 116.001921 
L 175.970867 116.003089 
L 179.387194 116.004321 
L 182.80352 116.005463 
L 186.219847 116.006353 
L 189.636173 116.006815 
L 193.0525 116.006654 
" style="fill:none;opacity:0.5;stroke:#73d056;stroke-linecap:square;stroke-width:0.3;"/>
   </g>
   <g id="line2d_47">
    <path clip-path="url(#pb8a7912a34)" d="M 25.6525 162.610201 
L 29.068827 152.817978 
L 32.485153 145.094211 
L 35.90148 139.542467 
L 39.317806 137.723786 
L 42.734133 133.625593 
L 46.150459 127.660519 
L 49.566786 121.624092 
L 52.983112 112.35634 
L 56.399439 111.637874 
L 59.815765 112.077248 
L 63.232092 106.563912 
L 66.648418 108.360287 
L 70.064745 106.462785 
L 73.481071 101.743264 
L 76.897398 103.557962 
L 80.313724 103.996456 
L 83.730051 105.107719 
L 87.146378 111.196079 
L 90.562704 115.652786 
L 93.979031 118.0869 
L 97.395357 117.613517 
L 100.811684 117.09094 
L 104.22801 116.578761 
L 107.644337 116.143463 
L 111.060663 115.817665 
L 114.47699 116.78638 
L 117.893316 116.526072 
L 121.309643 116.130695 
L 124.725969 115.916394 
L 128.142296 115.733785 
L 131.558622 115.603018 
L 134.974949 115.547267 
L 138.391276 115.549242 
L 141.807602 115.551737 
L 145.223929 115.554661 
L 148.640255 115.557936 
L 152.056582 115.561489 
L 155.472908 115.565254 
L 158.889235 115.56917 
L 162.305561 115.573174 
L 165.721888 115.577205 
L 169.138214 115.581196 
L 172.554541 115.585077 
L 175.970867 115.588769 
L 179.387194 115.592183 
L 182.80352 115.595215 
L 186.219847 115.597743 
L 189.636173 115.599624 
L 193.0525 115.600689 
" style="fill:none;opacity:0.5;stroke:#73d056;stroke-linecap:square;stroke-width:0.3;"/>
   </g>
   <g id="line2d_48">
    <path clip-path="url(#pb8a7912a34)" d="M 25.6525 181.023448 
L 29.068827 181.023448 
L 32.485153 181.023448 
L 35.90148 177.618694 
L 39.317806 174.163736 
L 42.734133 161.635756 
L 46.150459 155.949016 
L 49.566786 146.30976 
L 52.983112 132.275672 
L 56.399439 129.981617 
L 59.815765 121.80402 
L 63.232092 114.024245 
L 66.648418 111.406093 
L 70.064745 106.957172 
L 73.481071 105.967657 
L 76.897398 111.428514 
L 80.313724 112.644557 
L 83.730051 112.316926 
L 87.146378 111.708029 
L 90.562704 108.956135 
L 93.979031 110.209321 
L 97.395357 114.688316 
L 100.811684 117.549474 
L 104.22801 118.781732 
L 107.644337 119.226803 
L 111.060663 117.916491 
L 114.47699 118.794639 
L 117.893316 119.512877 
L 121.309643 118.643847 
L 124.725969 119.204232 
L 128.142296 118.674068 
L 131.558622 118.443683 
L 134.974949 118.327134 
L 138.391276 118.193154 
L 141.807602 117.971414 
L 145.223929 117.790097 
L 148.640255 117.699589 
L 152.056582 117.69946 
L 155.472908 117.701205 
L 158.889235 117.703354 
L 162.305561 117.705802 
L 165.721888 117.708449 
L 169.138214 117.711197 
L 172.554541 117.713947 
L 175.970867 117.716595 
L 179.387194 117.719031 
L 182.80352 117.721131 
L 186.219847 117.722757 
L 189.636173 117.72375 
L 193.0525 117.723925 
" style="fill:none;opacity:0.5;stroke:#73d056;stroke-linecap:square;stroke-width:0.3;"/>
   </g>
   <g id="line2d_49">
    <path clip-path="url(#pb8a7912a34)" d="M 25.6525 168.654332 
L 29.068827 162.775219 
L 32.485153 156.425984 
L 35.90148 144.659172 
L 39.317806 133.89374 
L 42.734133 123.4949 
L 46.150459 113.566201 
L 49.566786 107.174384 
L 52.983112 108.969328 
L 56.399439 111.898105 
L 59.815765 109.704807 
L 63.232092 114.582536 
L 66.648418 115.019622 
L 70.064745 113.966831 
L 73.481071 117.984839 
L 76.897398 113.981905 
L 80.313724 109.772976 
L 83.730051 110.381761 
L 87.146378 110.902344 
L 90.562704 113.118596 
L 93.979031 114.103969 
L 97.395357 113.665013 
L 100.811684 113.819028 
L 104.22801 114.926976 
L 107.644337 116.672902 
L 111.060663 115.848466 
L 114.47699 115.228597 
L 117.893316 116.153374 
L 121.309643 115.932324 
L 124.725969 115.566072 
L 128.142296 115.263674 
L 131.558622 115.022564 
L 134.974949 114.753737 
L 138.391276 114.498516 
L 141.807602 114.330453 
L 145.223929 114.329446 
L 148.640255 114.331086 
L 152.056582 114.333186 
L 155.472908 114.335652 
L 158.889235 114.3384 
L 162.305561 114.34135 
L 165.721888 114.344424 
L 169.138214 114.347545 
L 172.554541 114.350634 
L 175.970867 114.353606 
L 179.387194 114.356367 
L 182.80352 114.358812 
L 186.219847 114.360824 
L 189.636173 114.362261 
L 193.0525 114.362963 
" style="fill:none;opacity:0.5;stroke:#73d056;stroke-linecap:square;stroke-width:0.3;"/>
   </g>
   <g id="line2d_50">
    <path clip-path="url(#pb8a7912a34)" d="M 25.6525 173.622086 
L 29.068827 173.610249 
L 32.485153 173.607556 
L 35.90148 174.805094 
L 39.317806 174.804996 
L 42.734133 174.804894 
L 46.150459 168.504502 
L 49.566786 165.093461 
L 52.983112 161.734247 
L 56.399439 153.860828 
L 59.815765 143.614399 
L 63.232092 133.447792 
L 66.648418 127.427228 
L 70.064745 120.84494 
L 73.481071 118.418544 
L 76.897398 115.204378 
L 80.313724 108.966398 
L 83.730051 111.968323 
L 87.146378 114.341739 
L 90.562704 112.164165 
L 93.979031 112.486239 
L 97.395357 110.841923 
L 100.811684 107.34626 
L 104.22801 110.172082 
L 107.644337 111.024663 
L 111.060663 110.73553 
L 114.47699 113.831375 
L 117.893316 112.107759 
L 121.309643 113.812192 
L 124.725969 115.383084 
L 128.142296 114.705568 
L 131.558622 117.523545 
L 134.974949 117.023022 
L 138.391276 116.528171 
L 141.807602 115.519523 
L 145.223929 115.164516 
L 148.640255 114.933946 
L 152.056582 116.112595 
L 155.472908 116.068975 
L 158.889235 115.880503 
L 162.305561 115.932359 
L 165.721888 115.959958 
L 169.138214 115.971765 
L 172.554541 115.974338 
L 175.970867 115.977049 
L 179.387194 115.979769 
L 182.80352 115.982363 
L 186.219847 115.984689 
L 189.636173 115.986589 
L 193.0525 115.987887 
" style="fill:none;opacity:0.5;stroke:#73d056;stroke-linecap:square;stroke-width:0.3;"/>
   </g>
   <g id="line2d_51">
    <path clip-path="url(#pb8a7912a34)" d="M 25.6525 120.721046 
L 29.068827 113.841941 
L 32.485153 114.56192 
L 35.90148 110.255768 
L 39.317806 111.282117 
L 42.734133 111.481303 
L 46.150459 108.440818 
L 49.566786 110.843525 
L 52.983112 109.949728 
L 56.399439 109.962185 
L 59.815765 112.123677 
L 63.232092 111.334832 
L 66.648418 109.062305 
L 70.064745 110.44549 
L 73.481071 112.157984 
L 76.897398 113.958512 
L 80.313724 116.389213 
L 83.730051 117.072368 
L 87.146378 117.457396 
L 90.562704 116.673956 
L 93.979031 116.100645 
L 97.395357 115.598444 
L 100.811684 115.024656 
L 104.22801 114.586156 
L 107.644337 114.261235 
L 111.060663 114.069138 
L 114.47699 114.023846 
L 117.893316 113.986821 
L 121.309643 113.976007 
L 124.725969 113.97668 
L 128.142296 113.978049 
L 131.558622 113.980008 
L 134.974949 113.982467 
L 138.391276 113.985347 
L 141.807602 113.98858 
L 145.223929 113.992108 
L 148.640255 113.995878 
L 152.056582 113.999842 
L 155.472908 114.003953 
L 158.889235 114.00817 
L 162.305561 114.012448 
L 165.721888 114.016742 
L 169.138214 114.021004 
L 172.554541 114.02518 
L 175.970867 114.029209 
L 179.387194 114.033022 
L 182.80352 114.036537 
L 186.219847 114.039659 
L 189.636173 114.042272 
L 193.0525 114.044241 
" style="fill:none;opacity:0.5;stroke:#73d056;stroke-linecap:square;stroke-width:0.3;"/>
   </g>
   <g id="line2d_52">
    <path clip-path="url(#pb8a7912a34)" d="M 25.6525 159.948768 
L 29.068827 150.530875 
L 32.485153 134.566313 
L 35.90148 121.595692 
L 39.317806 115.012195 
L 42.734133 109.986712 
L 46.150459 106.006481 
L 49.566786 107.474679 
L 52.983112 106.557303 
L 56.399439 109.182627 
L 59.815765 112.484606 
L 63.232092 113.343741 
L 66.648418 113.923212 
L 70.064745 112.881694 
L 73.481071 112.216962 
L 76.897398 113.652548 
L 80.313724 112.978286 
L 83.730051 114.450328 
L 87.146378 114.078552 
L 90.562704 114.586189 
L 93.979031 115.574285 
L 97.395357 116.052931 
L 100.811684 116.962372 
L 104.22801 115.480617 
L 107.644337 116.256443 
L 111.060663 115.709921 
L 114.47699 115.183073 
L 117.893316 115.913912 
L 121.309643 115.471665 
L 124.725969 115.003858 
L 128.142296 114.68904 
L 131.558622 114.619097 
L 134.974949 114.613321 
L 138.391276 114.637585 
L 141.807602 114.650686 
L 145.223929 114.652839 
L 148.640255 114.655442 
L 152.056582 114.658414 
L 155.472908 114.661678 
L 158.889235 114.665165 
L 162.305561 114.668808 
L 165.721888 114.672543 
L 169.138214 114.676303 
L 172.554541 114.680018 
L 175.970867 114.683613 
L 179.387194 114.687005 
L 182.80352 114.690098 
L 186.219847 114.692783 
L 189.636173 114.694932 
L 193.0525 114.696395 
" style="fill:none;opacity:0.5;stroke:#73d056;stroke-linecap:square;stroke-width:0.3;"/>
   </g>
   <g id="line2d_53">
    <path clip-path="url(#pb8a7912a34)" d="M 25.6525 161.30534 
L 29.068827 157.461454 
L 32.485153 144.798515 
L 35.90148 130.471668 
L 39.317806 120.711298 
L 42.734133 110.622517 
L 46.150459 110.915222 
L 49.566786 116.578379 
L 52.983112 119.606622 
L 56.399439 119.839041 
L 59.815765 118.893433 
L 63.232092 115.062247 
L 66.648418 117.428319 
L 70.064745 115.829354 
L 73.481071 112.727808 
L 76.897398 117.244676 
L 80.313724 112.289754 
L 83.730051 110.71824 
L 87.146378 109.10269 
L 90.562704 108.187212 
L 93.979031 111.193603 
L 97.395357 111.51767 
L 100.811684 117.281617 
L 104.22801 117.954309 
L 107.644337 116.308115 
L 111.060663 116.572495 
L 114.47699 115.879008 
L 117.893316 115.455815 
L 121.309643 115.149196 
L 124.725969 114.796404 
L 128.142296 114.492138 
L 131.558622 114.315623 
L 134.974949 114.235445 
L 138.391276 114.234797 
L 141.807602 114.23507 
L 145.223929 114.236116 
L 148.640255 114.237806 
L 152.056582 114.240027 
L 155.472908 114.242676 
L 158.889235 114.245665 
L 162.305561 114.248907 
L 165.721888 114.252324 
L 169.138214 114.255836 
L 172.554541 114.259365 
L 175.970867 114.262827 
L 179.387194 114.266132 
L 182.80352 114.26918 
L 186.219847 114.271859 
L 189.636173 114.274038 
L 193.0525 114.275566 
" style="fill:none;opacity:0.5;stroke:#73d056;stroke-linecap:square;stroke-width:0.3;"/>
   </g>
   <g id="line2d_54">
    <path clip-path="url(#pb8a7912a34)" d="M 25.6525 175.699125 
L 29.068827 175.707469 
L 32.485153 175.714094 
L 35.90148 175.7193 
L 39.317806 173.932872 
L 42.734133 170.412031 
L 46.150459 165.898858 
L 49.566786 159.6867 
L 52.983112 149.888979 
L 56.399439 139.599565 
L 59.815765 134.696042 
L 63.232092 131.492053 
L 66.648418 124.236152 
L 70.064745 122.316094 
L 73.481071 113.600482 
L 76.897398 105.694125 
L 80.313724 101.469116 
L 83.730051 96.222219 
L 87.146378 98.957113 
L 90.562704 105.134018 
L 93.979031 107.185551 
L 97.395357 111.900919 
L 100.811684 112.697535 
L 104.22801 111.82552 
L 107.644337 110.662046 
L 111.060663 111.225192 
L 114.47699 111.398299 
L 117.893316 113.31596 
L 121.309643 113.160854 
L 124.725969 114.393576 
L 128.142296 115.853233 
L 131.558622 116.61423 
L 134.974949 115.774314 
L 138.391276 115.010225 
L 141.807602 114.529993 
L 145.223929 114.2696 
L 148.640255 114.075078 
L 152.056582 113.906923 
L 155.472908 113.772037 
L 158.889235 113.671426 
L 162.305561 113.598616 
L 165.721888 113.59963 
L 169.138214 113.600861 
L 172.554541 113.602197 
L 175.970867 113.603531 
L 179.387194 113.604748 
L 182.80352 113.605725 
L 186.219847 113.606328 
L 189.636173 113.606405 
L 193.0525 113.605783 
" style="fill:none;opacity:0.5;stroke:#73d056;stroke-linecap:square;stroke-width:0.3;"/>
   </g>
   <g id="line2d_55">
    <path clip-path="url(#pb8a7912a34)" d="M 25.6525 145.072663 
L 29.068827 131.990516 
L 32.485153 124.289111 
L 35.90148 115.145434 
L 39.317806 110.914406 
L 42.734133 110.127843 
L 46.150459 112.554836 
L 49.566786 111.698278 
L 52.983112 113.291552 
L 56.399439 115.373937 
L 59.815765 113.745845 
L 63.232092 113.489059 
L 66.648418 111.875302 
L 70.064745 112.342422 
L 73.481071 112.586926 
L 76.897398 114.458711 
L 80.313724 116.536453 
L 83.730051 115.504017 
L 87.146378 115.444455 
L 90.562704 115.776741 
L 93.979031 117.007564 
L 97.395357 117.722544 
L 100.811684 118.574191 
L 104.22801 117.974949 
L 107.644337 117.353113 
L 111.060663 116.94438 
L 114.47699 116.681489 
L 117.893316 116.482024 
L 121.309643 116.469358 
L 124.725969 116.474448 
L 128.142296 116.475883 
L 131.558622 116.477917 
L 134.974949 116.480456 
L 138.391276 116.48342 
L 141.807602 116.486736 
L 145.223929 116.490342 
L 148.640255 116.49418 
L 152.056582 116.498197 
L 155.472908 116.50234 
L 158.889235 116.506561 
L 162.305561 116.510807 
L 165.721888 116.515024 
L 169.138214 116.519151 
L 172.554541 116.523122 
L 175.970867 116.52686 
L 179.387194 116.530277 
L 182.80352 116.533267 
L 186.219847 116.535708 
L 189.636173 116.537452 
L 193.0525 116.538323 
" style="fill:none;opacity:0.5;stroke:#73d056;stroke-linecap:square;stroke-width:0.3;"/>
   </g>
   <g id="line2d_56">
    <path clip-path="url(#pb8a7912a34)" d="M 25.6525 172.064704 
L 29.068827 165.662469 
L 32.485153 153.77107 
L 35.90148 138.5593 
L 39.317806 131.743755 
L 42.734133 127.646612 
L 46.150459 119.1646 
L 49.566786 117.586165 
L 52.983112 113.790921 
L 56.399439 111.900693 
L 59.815765 115.005984 
L 63.232092 113.862209 
L 66.648418 111.40097 
L 70.064745 110.037027 
L 73.481071 106.649332 
L 76.897398 109.652119 
L 80.313724 108.759671 
L 83.730051 111.024882 
L 87.146378 112.879805 
L 90.562704 112.314918 
L 93.979031 112.367545 
L 97.395357 113.250565 
L 100.811684 112.972471 
L 104.22801 113.421727 
L 107.644337 115.264 
L 111.060663 114.600671 
L 114.47699 115.413761 
L 117.893316 116.597686 
L 121.309643 116.306797 
L 124.725969 116.017818 
L 128.142296 115.686914 
L 131.558622 115.534819 
L 134.974949 115.435727 
L 138.391276 115.354503 
L 141.807602 115.319055 
L 145.223929 115.28845 
L 148.640255 115.290557 
L 152.056582 115.293121 
L 155.472908 115.296049 
L 158.889235 115.299257 
L 162.305561 115.302665 
L 165.721888 115.306197 
L 169.138214 115.309774 
L 172.554541 115.313317 
L 175.970867 115.316739 
L 179.387194 115.319946 
L 182.80352 115.322832 
L 186.219847 115.325274 
L 189.636173 115.32713 
L 193.0525 115.328234 
" style="fill:none;opacity:0.5;stroke:#73d056;stroke-linecap:square;stroke-width:0.3;"/>
   </g>
   <g id="line2d_57">
    <path clip-path="url(#pb8a7912a34)" d="M 25.6525 150.488312 
L 29.068827 134.342084 
L 32.485153 127.159466 
L 35.90148 120.691193 
L 39.317806 118.306852 
L 42.734133 124.352849 
L 46.150459 127.728402 
L 49.566786 131.175138 
L 52.983112 130.965038 
L 56.399439 125.795301 
L 59.815765 117.767154 
L 63.232092 109.441256 
L 66.648418 105.226816 
L 70.064745 100.83963 
L 73.481071 102.284401 
L 76.897398 105.399464 
L 80.313724 106.43341 
L 83.730051 109.342739 
L 87.146378 110.890693 
L 90.562704 111.093554 
L 93.979031 113.382829 
L 97.395357 117.015663 
L 100.811684 117.259319 
L 104.22801 116.465812 
L 107.644337 115.463608 
L 111.060663 115.744776 
L 114.47699 115.150944 
L 117.893316 114.501377 
L 121.309643 113.985689 
L 124.725969 113.738667 
L 128.142296 113.528302 
L 131.558622 113.430914 
L 134.974949 113.431023 
L 138.391276 113.43195 
L 141.807602 113.433564 
L 145.223929 113.435749 
L 148.640255 113.438407 
L 152.056582 113.441449 
L 155.472908 113.444794 
L 158.889235 113.448369 
L 162.305561 113.452102 
L 165.721888 113.455923 
L 169.138214 113.459761 
L 172.554541 113.463542 
L 175.970867 113.467184 
L 179.387194 113.470598 
L 182.80352 113.473682 
L 186.219847 113.476317 
L 189.636173 113.478364 
L 193.0525 113.479662 
" style="fill:none;opacity:0.5;stroke:#73d056;stroke-linecap:square;stroke-width:0.3;"/>
   </g>
   <g id="line2d_58">
    <path clip-path="url(#pb8a7912a34)" d="M 25.6525 179.225474 
L 29.068827 179.225474 
L 32.485153 177.429343 
L 35.90148 170.0706 
L 39.317806 158.032459 
L 42.734133 150.114816 
L 46.150459 143.898642 
L 49.566786 131.794656 
L 52.983112 123.732974 
L 56.399439 121.275487 
L 59.815765 116.723973 
L 63.232092 118.488067 
L 66.648418 121.769041 
L 70.064745 115.726257 
L 73.481071 113.931047 
L 76.897398 106.242467 
L 80.313724 104.024224 
L 83.730051 102.947841 
L 87.146378 103.552811 
L 90.562704 111.453963 
L 93.979031 112.582898 
L 97.395357 116.164224 
L 100.811684 116.955737 
L 104.22801 117.267493 
L 107.644337 118.724146 
L 111.060663 119.032225 
L 114.47699 118.568288 
L 117.893316 117.889301 
L 121.309643 117.329426 
L 124.725969 116.899529 
L 128.142296 116.549921 
L 131.558622 116.241139 
L 134.974949 115.962142 
L 138.391276 115.909868 
L 141.807602 115.887983 
L 145.223929 115.886439 
L 148.640255 115.887942 
L 152.056582 115.889955 
L 155.472908 115.892377 
L 158.889235 115.895116 
L 162.305561 115.898085 
L 165.721888 115.901203 
L 169.138214 115.904387 
L 172.554541 115.907553 
L 175.970867 115.910614 
L 179.387194 115.913472 
L 182.80352 115.916021 
L 186.219847 115.918137 
L 189.636173 115.91968 
L 193.0525 115.920482 
" style="fill:none;opacity:0.5;stroke:#73d056;stroke-linecap:square;stroke-width:0.3;"/>
   </g>
   <g id="line2d_59">
    <path clip-path="url(#pb8a7912a34)" d="M 25.6525 181.023448 
L 29.068827 181.023448 
L 32.485153 179.225474 
L 35.90148 169.60329 
L 39.317806 155.271201 
L 42.734133 142.678392 
L 46.150459 134.077047 
L 49.566786 121.283846 
L 52.983112 113.759009 
L 56.399439 110.766216 
L 59.815765 108.108498 
L 63.232092 113.80267 
L 66.648418 115.224422 
L 70.064745 115.313506 
L 73.481071 115.174214 
L 76.897398 113.066013 
L 80.313724 114.938066 
L 83.730051 113.54886 
L 87.146378 114.632062 
L 90.562704 113.531289 
L 93.979031 111.85038 
L 97.395357 111.168029 
L 100.811684 111.232769 
L 104.22801 111.488017 
L 107.644337 115.988852 
L 111.060663 116.771885 
L 114.47699 116.500786 
L 117.893316 117.763842 
L 121.309643 117.646449 
L 124.725969 117.200874 
L 128.142296 116.85419 
L 131.558622 116.47172 
L 134.974949 115.98935 
L 138.391276 115.669948 
L 141.807602 115.521189 
L 145.223929 115.399164 
L 148.640255 115.252516 
L 152.056582 115.098604 
L 155.472908 114.966406 
L 158.889235 114.914631 
L 162.305561 114.916821 
L 165.721888 114.919257 
L 169.138214 114.921843 
L 172.554541 114.924483 
L 175.970867 114.927079 
L 179.387194 114.929528 
L 182.80352 114.931715 
L 186.219847 114.933515 
L 189.636173 114.934781 
L 193.0525 114.935348 
" style="fill:none;opacity:0.5;stroke:#73d056;stroke-linecap:square;stroke-width:0.3;"/>
   </g>
   <g id="line2d_60">
    <path clip-path="url(#pb8a7912a34)" d="M 25.6525 153.685824 
L 29.068827 142.31902 
L 32.485153 135.390895 
L 35.90148 129.657187 
L 39.317806 131.408558 
L 42.734133 127.960512 
L 46.150459 122.325033 
L 49.566786 121.45394 
L 52.983112 115.668176 
L 56.399439 112.514262 
L 59.815765 117.503699 
L 63.232092 114.341131 
L 66.648418 111.728347 
L 70.064745 108.539985 
L 73.481071 102.757465 
L 76.897398 101.999807 
L 80.313724 101.819539 
L 83.730051 109.146587 
L 87.146378 111.053478 
L 90.562704 112.341139 
L 93.979031 117.761911 
L 97.395357 119.782449 
L 100.811684 118.917059 
L 104.22801 117.798288 
L 107.644337 117.20505 
L 111.060663 116.824941 
L 114.47699 116.306402 
L 117.893316 115.763126 
L 121.309643 115.223774 
L 124.725969 114.72698 
L 128.142296 114.409716 
L 131.558622 114.190744 
L 134.974949 114.051034 
L 138.391276 114.021318 
L 141.807602 114.022834 
L 145.223929 114.02502 
L 148.640255 114.027759 
L 152.056582 114.03095 
L 155.472908 114.034501 
L 158.889235 114.038329 
L 162.305561 114.042355 
L 165.721888 114.046502 
L 169.138214 114.050693 
L 172.554541 114.054848 
L 175.970867 114.058882 
L 179.387194 114.062698 
L 182.80352 114.066189 
L 186.219847 114.069233 
L 189.636173 114.071684 
L 193.0525 114.073373 
" style="fill:none;opacity:0.5;stroke:#73d056;stroke-linecap:square;stroke-width:0.3;"/>
   </g>
   <g id="line2d_61">
    <path clip-path="url(#pb8a7912a34)" d="M 25.6525 181.023448 
L 29.068827 181.023448 
L 32.485153 179.225474 
L 35.90148 177.429343 
L 39.317806 169.485598 
L 42.734133 159.874378 
L 46.150459 147.192255 
L 49.566786 130.137758 
L 52.983112 117.088877 
L 56.399439 103.844947 
L 59.815765 104.26136 
L 63.232092 103.912232 
L 66.648418 109.323611 
L 70.064745 113.655011 
L 73.481071 113.418467 
L 76.897398 115.766046 
L 80.313724 115.981734 
L 83.730051 117.081863 
L 87.146378 119.638131 
L 90.562704 120.034636 
L 93.979031 119.855069 
L 97.395357 118.853186 
L 100.811684 116.554977 
L 104.22801 116.862889 
L 107.644337 118.735585 
L 111.060663 118.569732 
L 114.47699 118.446875 
L 117.893316 117.619197 
L 121.309643 116.0953 
L 124.725969 115.464364 
L 128.142296 114.852204 
L 131.558622 114.287371 
L 134.974949 115.101617 
L 138.391276 114.597389 
L 141.807602 114.247726 
L 145.223929 114.158173 
L 148.640255 114.053661 
L 152.056582 113.971918 
L 155.472908 113.919877 
L 158.889235 113.935365 
L 162.305561 113.937651 
L 165.721888 113.94012 
L 169.138214 113.942679 
L 172.554541 113.945234 
L 175.970867 113.947683 
L 179.387194 113.949921 
L 182.80352 113.951826 
L 186.219847 113.953265 
L 189.636173 113.95408 
L 193.0525 113.954091 
" style="fill:none;opacity:0.5;stroke:#73d056;stroke-linecap:square;stroke-width:0.3;"/>
   </g>
   <g id="line2d_62">
    <path clip-path="url(#pb8a7912a34)" d="M 25.6525 181.023448 
L 29.068827 177.51005 
L 32.485153 175.677728 
L 35.90148 169.902662 
L 39.317806 157.195781 
L 42.734133 145.607007 
L 46.150459 130.465185 
L 49.566786 114.877569 
L 52.983112 107.98307 
L 56.399439 102.547104 
L 59.815765 105.748744 
L 63.232092 108.438652 
L 66.648418 114.040441 
L 70.064745 118.949048 
L 73.481071 117.611029 
L 76.897398 117.409318 
L 80.313724 115.11489 
L 83.730051 113.99224 
L 87.146378 113.067779 
L 90.562704 114.954583 
L 93.979031 114.12307 
L 97.395357 114.257051 
L 100.811684 117.378745 
L 104.22801 117.273697 
L 107.644337 118.700734 
L 111.060663 117.977062 
L 114.47699 117.26059 
L 117.893316 117.902718 
L 121.309643 117.458214 
L 124.725969 116.904146 
L 128.142296 116.481424 
L 131.558622 116.031763 
L 134.974949 115.756297 
L 138.391276 115.579543 
L 141.807602 115.361681 
L 145.223929 115.100057 
L 148.640255 114.816245 
L 152.056582 114.592448 
L 155.472908 114.497536 
L 158.889235 114.494446 
L 162.305561 114.49675 
L 165.721888 114.499336 
L 169.138214 114.502102 
L 172.554541 114.504948 
L 175.970867 114.507773 
L 179.387194 114.510469 
L 182.80352 114.512918 
L 186.219847 114.514991 
L 189.636173 114.516539 
L 193.0525 114.517391 
" style="fill:none;opacity:0.5;stroke:#73d056;stroke-linecap:square;stroke-width:0.3;"/>
   </g>
   <g id="line2d_63">
    <path clip-path="url(#pb8a7912a34)" d="M 25.6525 181.023448 
L 29.068827 181.023448 
L 32.485153 174.88237 
L 35.90148 170.018644 
L 39.317806 162.529411 
L 42.734133 153.279644 
L 46.150459 142.448841 
L 49.566786 127.37039 
L 52.983112 123.211345 
L 56.399439 120.591644 
L 59.815765 120.909806 
L 63.232092 125.470773 
L 66.648418 120.021069 
L 70.064745 114.758317 
L 73.481071 111.181413 
L 76.897398 112.075627 
L 80.313724 109.03663 
L 83.730051 108.560539 
L 87.146378 108.648048 
L 90.562704 109.94402 
L 93.979031 110.025725 
L 97.395357 110.145204 
L 100.811684 110.461332 
L 104.22801 109.228312 
L 107.644337 110.177926 
L 111.060663 112.286498 
L 114.47699 114.033205 
L 117.893316 115.334816 
L 121.309643 115.941623 
L 124.725969 116.493358 
L 128.142296 115.78709 
L 131.558622 115.263565 
L 134.974949 114.864227 
L 138.391276 114.487239 
L 141.807602 114.238877 
L 145.223929 113.947996 
L 148.640255 113.692984 
L 152.056582 113.512795 
L 155.472908 113.485996 
L 158.889235 113.487006 
L 162.305561 113.48856 
L 165.721888 113.490534 
L 169.138214 113.492814 
L 172.554541 113.495288 
L 175.970867 113.497849 
L 179.387194 113.500386 
L 182.80352 113.502782 
L 186.219847 113.504913 
L 189.636173 113.506639 
L 193.0525 113.507804 
" style="fill:none;opacity:0.5;stroke:#73d056;stroke-linecap:square;stroke-width:0.3;"/>
   </g>
   <g id="line2d_64">
    <path clip-path="url(#pb8a7912a34)" d="M 25.6525 181.023448 
L 29.068827 181.023448 
L 32.485153 179.225474 
L 35.90148 179.225474 
L 39.317806 174.783322 
L 42.734133 168.254975 
L 46.150459 160.58765 
L 49.566786 149.864705 
L 52.983112 135.325833 
L 56.399439 125.019834 
L 59.815765 118.118734 
L 63.232092 116.051769 
L 66.648418 118.981819 
L 70.064745 118.217875 
L 73.481071 116.955643 
L 76.897398 109.02302 
L 80.313724 106.749411 
L 83.730051 106.068164 
L 87.146378 108.808324 
L 90.562704 111.403417 
L 93.979031 110.650709 
L 97.395357 111.008398 
L 100.811684 108.305122 
L 104.22801 112.815082 
L 107.644337 116.574273 
L 111.060663 117.218393 
L 114.47699 121.069558 
L 117.893316 120.374501 
L 121.309643 119.527436 
L 124.725969 119.639191 
L 128.142296 118.685536 
L 131.558622 118.323177 
L 134.974949 118.002295 
L 138.391276 117.630333 
L 141.807602 117.334317 
L 145.223929 117.220069 
L 148.640255 117.192251 
L 152.056582 117.194757 
L 155.472908 117.194998 
L 158.889235 117.196915 
L 162.305561 117.19916 
L 165.721888 117.201638 
L 169.138214 117.204257 
L 172.554541 117.206928 
L 175.970867 117.209555 
L 179.387194 117.212042 
L 182.80352 117.214279 
L 186.219847 117.216148 
L 189.636173 117.21751 
L 193.0525 117.218208 
" style="fill:none;opacity:0.5;stroke:#73d056;stroke-linecap:square;stroke-width:0.3;"/>
   </g>
   <g id="line2d_65">
    <path clip-path="url(#pb8a7912a34)" d="M 25.6525 168.40156 
L 29.068827 157.682804 
L 32.485153 149.123787 
L 35.90148 135.51488 
L 39.317806 126.370393 
L 42.734133 123.001744 
L 46.150459 118.988429 
L 49.566786 116.626013 
L 52.983112 116.417753 
L 56.399439 112.224158 
L 59.815765 115.769563 
L 63.232092 115.309643 
L 66.648418 114.89566 
L 70.064745 110.466552 
L 73.481071 104.041068 
L 76.897398 106.004777 
L 80.313724 106.550305 
L 83.730051 110.254529 
L 87.146378 113.246441 
L 90.562704 114.765583 
L 93.979031 116.297191 
L 97.395357 117.235757 
L 100.811684 117.426415 
L 104.22801 116.261657 
L 107.644337 118.035195 
L 111.060663 118.576092 
L 114.47699 117.988901 
L 117.893316 117.454614 
L 121.309643 117.014356 
L 124.725969 116.672284 
L 128.142296 116.453595 
L 131.558622 116.183267 
L 134.974949 115.99949 
L 138.391276 115.989187 
L 141.807602 115.990542 
L 145.223929 115.992503 
L 148.640255 115.994968 
L 152.056582 115.997846 
L 155.472908 116.001056 
L 158.889235 116.004523 
L 162.305561 116.008176 
L 165.721888 116.011944 
L 169.138214 116.01576 
L 172.554541 116.019549 
L 175.970867 116.023234 
L 179.387194 116.026729 
L 182.80352 116.029937 
L 186.219847 116.032747 
L 189.636173 116.035029 
L 193.0525 116.036631 
" style="fill:none;opacity:0.5;stroke:#73d056;stroke-linecap:square;stroke-width:0.3;"/>
   </g>
   <g id="line2d_66">
    <path clip-path="url(#pb8a7912a34)" d="M 25.6525 175.700654 
L 29.068827 166.577846 
L 32.485153 160.294449 
L 35.90148 150.826044 
L 39.317806 136.641585 
L 42.734133 128.282065 
L 46.150459 114.996821 
L 49.566786 108.307245 
L 52.983112 107.858373 
L 56.399439 109.816852 
L 59.815765 111.995951 
L 63.232092 120.740866 
L 66.648418 117.488303 
L 70.064745 116.491271 
L 73.481071 118.102754 
L 76.897398 113.051821 
L 80.313724 113.604405 
L 83.730051 112.417629 
L 87.146378 109.610416 
L 90.562704 108.110486 
L 93.979031 110.263983 
L 97.395357 113.577155 
L 100.811684 113.120008 
L 104.22801 117.024104 
L 107.644337 118.080467 
L 111.060663 117.04196 
L 114.47699 117.675956 
L 117.893316 117.246049 
L 121.309643 117.073733 
L 124.725969 117.024246 
L 128.142296 116.840154 
L 131.558622 116.676437 
L 134.974949 116.521757 
L 138.391276 116.460364 
L 141.807602 116.466861 
L 145.223929 116.468876 
L 148.640255 116.471323 
L 152.056582 116.474119 
L 155.472908 116.477193 
L 158.889235 116.480474 
L 162.305561 116.483897 
L 165.721888 116.487399 
L 169.138214 116.490913 
L 172.554541 116.494368 
L 175.970867 116.497691 
L 179.387194 116.500795 
L 182.80352 116.503586 
L 186.219847 116.505951 
L 189.636173 116.507762 
L 193.0525 116.508865 
" style="fill:none;opacity:0.5;stroke:#73d056;stroke-linecap:square;stroke-width:0.3;"/>
   </g>
   <g id="line2d_67">
    <path clip-path="url(#pb8a7912a34)" d="M 25.6525 152.753491 
L 29.068827 146.631827 
L 32.485153 128.668576 
L 35.90148 121.233546 
L 39.317806 117.766774 
L 42.734133 105.068965 
L 46.150459 110.641022 
L 49.566786 111.966746 
L 52.983112 113.66565 
L 56.399439 118.476449 
L 59.815765 115.954306 
L 63.232092 117.387319 
L 66.648418 114.302855 
L 70.064745 114.461627 
L 73.481071 113.146794 
L 76.897398 110.408876 
L 80.313724 109.604941 
L 83.730051 112.187252 
L 87.146378 113.927723 
L 90.562704 115.046794 
L 93.979031 116.696834 
L 97.395357 117.460059 
L 100.811684 119.35479 
L 104.22801 118.343394 
L 107.644337 117.610749 
L 111.060663 117.250291 
L 114.47699 116.937587 
L 117.893316 116.606214 
L 121.309643 116.373794 
L 124.725969 116.33858 
L 128.142296 116.304642 
L 131.558622 116.267112 
L 134.974949 116.268667 
L 138.391276 116.270782 
L 141.807602 116.273367 
L 145.223929 116.276344 
L 148.640255 116.279641 
L 152.056582 116.283193 
L 155.472908 116.286943 
L 158.889235 116.290832 
L 162.305561 116.294804 
L 165.721888 116.298803 
L 169.138214 116.302768 
L 172.554541 116.306634 
L 175.970867 116.310327 
L 179.387194 116.313763 
L 182.80352 116.316848 
L 186.219847 116.319467 
L 189.636173 116.321487 
L 193.0525 116.32275 
" style="fill:none;opacity:0.5;stroke:#73d056;stroke-linecap:square;stroke-width:0.3;"/>
   </g>
   <g id="line2d_68">
    <path clip-path="url(#pb8a7912a34)" d="M 25.6525 170.198445 
L 29.068827 162.186146 
L 32.485153 152.125799 
L 35.90148 141.19744 
L 39.317806 132.734884 
L 42.734133 122.721521 
L 46.150459 115.224493 
L 49.566786 109.239638 
L 52.983112 108.518435 
L 56.399439 112.432786 
L 59.815765 117.857117 
L 63.232092 120.846738 
L 66.648418 120.168366 
L 70.064745 119.676628 
L 73.481071 115.047405 
L 76.897398 114.385659 
L 80.313724 112.396415 
L 83.730051 110.818989 
L 87.146378 110.322093 
L 90.562704 108.91991 
L 93.979031 107.955106 
L 97.395357 109.002346 
L 100.811684 108.424701 
L 104.22801 110.553123 
L 107.644337 109.582768 
L 111.060663 111.946555 
L 114.47699 112.985139 
L 117.893316 112.56702 
L 121.309643 114.141445 
L 124.725969 113.269913 
L 128.142296 112.922109 
L 131.558622 112.604021 
L 134.974949 112.534804 
L 138.391276 112.455016 
L 141.807602 112.411169 
L 145.223929 112.411175 
L 148.640255 112.413702 
L 152.056582 112.4165 
L 155.472908 112.419507 
L 158.889235 112.422663 
L 162.305561 112.425912 
L 165.721888 112.429197 
L 169.138214 112.432458 
L 172.554541 112.435633 
L 175.970867 112.438652 
L 179.387194 112.441436 
L 182.80352 112.443894 
L 186.219847 112.44592 
L 189.636173 112.447391 
L 193.0525 112.448159 
" style="fill:none;opacity:0.5;stroke:#73d056;stroke-linecap:square;stroke-width:0.3;"/>
   </g>
   <g id="line2d_69">
    <path clip-path="url(#pb8a7912a34)" d="M 25.6525 181.023448 
L 29.068827 179.225474 
L 32.485153 173.46946 
L 35.90148 163.245542 
L 39.317806 153.708398 
L 42.734133 137.227814 
L 46.150459 130.663087 
L 49.566786 122.672219 
L 52.983112 117.193387 
L 56.399439 114.763082 
L 59.815765 112.369186 
L 63.232092 110.141247 
L 66.648418 112.348195 
L 70.064745 110.523571 
L 73.481071 113.127983 
L 76.897398 113.157931 
L 80.313724 113.066913 
L 83.730051 117.807351 
L 87.146378 111.315782 
L 90.562704 114.982801 
L 93.979031 113.857087 
L 97.395357 113.573389 
L 100.811684 118.348847 
L 104.22801 116.626012 
L 107.644337 117.654005 
L 111.060663 117.068476 
L 114.47699 119.300465 
L 117.893316 120.358058 
L 121.309643 120.06651 
L 124.725969 119.714084 
L 128.142296 119.273149 
L 131.558622 118.840324 
L 134.974949 118.420513 
L 138.391276 117.964224 
L 141.807602 117.524368 
L 145.223929 117.392673 
L 148.640255 117.287224 
L 152.056582 117.270762 
L 155.472908 117.272485 
L 158.889235 117.274622 
L 162.305561 117.277068 
L 165.721888 117.279726 
L 169.138214 117.2825 
L 172.554541 117.285292 
L 175.970867 117.288 
L 179.387194 117.290517 
L 182.80352 117.292722 
L 186.219847 117.29448 
L 189.636173 117.295636 
L 193.0525 117.296009 
" style="fill:none;opacity:0.5;stroke:#73d056;stroke-linecap:square;stroke-width:0.3;"/>
   </g>
   <g id="line2d_70">
    <path clip-path="url(#pb8a7912a34)" d="M 25.6525 131.944989 
L 29.068827 120.795086 
L 32.485153 110.480558 
L 35.90148 102.955768 
L 39.317806 104.347662 
L 42.734133 107.419393 
L 46.150459 109.512142 
L 49.566786 113.556556 
L 52.983112 116.147514 
L 56.399439 119.586083 
L 59.815765 123.051062 
L 63.232092 122.816753 
L 66.648418 120.316214 
L 70.064745 119.499118 
L 73.481071 115.406065 
L 76.897398 114.31486 
L 80.313724 115.744922 
L 83.730051 112.393869 
L 87.146378 116.098878 
L 90.562704 116.313964 
L 93.979031 115.705689 
L 97.395357 117.545149 
L 100.811684 116.531585 
L 104.22801 116.274141 
L 107.644337 115.873617 
L 111.060663 115.240242 
L 114.47699 116.032709 
L 117.893316 115.473643 
L 121.309643 114.942363 
L 124.725969 114.74964 
L 128.142296 114.631241 
L 131.558622 114.592886 
L 134.974949 114.570478 
L 138.391276 114.582484 
L 141.807602 114.583906 
L 145.223929 114.585913 
L 148.640255 114.588407 
L 152.056582 114.591299 
L 155.472908 114.594508 
L 158.889235 114.59796 
L 162.305561 114.601585 
L 165.721888 114.605315 
L 169.138214 114.609078 
L 172.554541 114.612803 
L 175.970867 114.616411 
L 179.387194 114.619816 
L 182.80352 114.622919 
L 186.219847 114.625608 
L 189.636173 114.62775 
L 193.0525 114.62919 
" style="fill:none;opacity:0.5;stroke:#73d056;stroke-linecap:square;stroke-width:0.3;"/>
   </g>
   <g id="line2d_71">
    <path clip-path="url(#pb8a7912a34)" d="M 25.6525 165.330955 
L 29.068827 154.219529 
L 32.485153 142.148325 
L 35.90148 129.151268 
L 39.317806 120.404242 
L 42.734133 110.96099 
L 46.150459 111.077895 
L 49.566786 110.433354 
L 52.983112 112.88883 
L 56.399439 119.460073 
L 59.815765 118.364538 
L 63.232092 118.110188 
L 66.648418 110.155197 
L 70.064745 107.501803 
L 73.481071 108.99332 
L 76.897398 108.067854 
L 80.313724 113.529428 
L 83.730051 114.231632 
L 87.146378 113.313889 
L 90.562704 113.806432 
L 93.979031 112.018831 
L 97.395357 113.76297 
L 100.811684 115.590333 
L 104.22801 115.944259 
L 107.644337 116.262946 
L 111.060663 115.666184 
L 114.47699 114.983659 
L 117.893316 114.514362 
L 121.309643 114.241767 
L 124.725969 113.988351 
L 128.142296 113.765599 
L 131.558622 113.597029 
L 134.974949 113.493361 
L 138.391276 113.417753 
L 141.807602 113.349983 
L 145.223929 113.307644 
L 148.640255 113.310081 
L 152.056582 113.312911 
L 155.472908 113.316055 
L 158.889235 113.319441 
L 162.305561 113.322999 
L 165.721888 113.326665 
L 169.138214 113.33037 
L 172.554541 113.334046 
L 175.970867 113.337617 
L 179.387194 113.341001 
L 182.80352 113.344105 
L 186.219847 113.346821 
L 189.636173 113.349025 
L 193.0525 113.350569 
" style="fill:none;opacity:0.5;stroke:#73d056;stroke-linecap:square;stroke-width:0.3;"/>
   </g>
   <g id="line2d_72">
    <path clip-path="url(#pb8a7912a34)" d="M 25.6525 145.669281 
L 29.068827 131.560275 
L 32.485153 118.31308 
L 35.90148 111.259617 
L 39.317806 105.143828 
L 42.734133 106.954522 
L 46.150459 115.046408 
L 49.566786 115.816562 
L 52.983112 117.804877 
L 56.399439 117.874365 
L 59.815765 118.008563 
L 63.232092 116.207405 
L 66.648418 113.182203 
L 70.064745 117.163505 
L 73.481071 116.019632 
L 76.897398 115.422431 
L 80.313724 116.312965 
L 83.730051 112.56746 
L 87.146378 112.737573 
L 90.562704 113.006198 
L 93.979031 113.450082 
L 97.395357 115.756436 
L 100.811684 114.636702 
L 104.22801 115.509785 
L 107.644337 116.208493 
L 111.060663 115.341557 
L 114.47699 114.65004 
L 117.893316 114.305986 
L 121.309643 114.14052 
L 124.725969 114.032726 
L 128.142296 114.044709 
L 131.558622 114.081972 
L 134.974949 114.093169 
L 138.391276 114.094367 
L 141.807602 114.096162 
L 145.223929 114.098453 
L 148.640255 114.101154 
L 152.056582 114.104189 
L 155.472908 114.107487 
L 158.889235 114.110984 
L 162.305561 114.114618 
L 165.721888 114.118327 
L 169.138214 114.12205 
L 172.554541 114.12572 
L 175.970867 114.129266 
L 179.387194 114.132608 
L 182.80352 114.135654 
L 186.219847 114.1383 
L 189.636173 114.140422 
L 193.0525 114.141874 
" style="fill:none;opacity:0.5;stroke:#73d056;stroke-linecap:square;stroke-width:0.3;"/>
   </g>
   <g id="line2d_73">
    <path clip-path="url(#pb8a7912a34)" d="M 25.6525 142.858374 
L 29.068827 133.669543 
L 32.485153 120.388065 
L 35.90148 115.327723 
L 39.317806 116.562249 
L 42.734133 112.632309 
L 46.150459 114.491379 
L 49.566786 113.653471 
L 52.983112 113.619725 
L 56.399439 114.497448 
L 59.815765 112.703154 
L 63.232092 110.777144 
L 66.648418 106.532075 
L 70.064745 106.988057 
L 73.481071 106.238649 
L 76.897398 109.369949 
L 80.313724 111.562029 
L 83.730051 113.3885 
L 87.146378 116.143406 
L 90.562704 117.076972 
L 93.979031 118.686291 
L 97.395357 119.466913 
L 100.811684 118.666479 
L 104.22801 117.906052 
L 107.644337 117.659589 
L 111.060663 117.680054 
L 114.47699 117.469422 
L 117.893316 117.098847 
L 121.309643 116.791605 
L 124.725969 116.637465 
L 128.142296 116.626342 
L 131.558622 116.612326 
L 134.974949 116.614187 
L 138.391276 116.616583 
L 141.807602 116.619427 
L 145.223929 116.622641 
L 148.640255 116.626157 
L 152.056582 116.629912 
L 155.472908 116.633845 
L 158.889235 116.637901 
L 162.305561 116.642022 
L 165.721888 116.646149 
L 169.138214 116.650219 
L 172.554541 116.654163 
L 175.970867 116.657903 
L 179.387194 116.661351 
L 182.80352 116.664402 
L 186.219847 116.666935 
L 189.636173 116.668805 
L 193.0525 116.669841 
" style="fill:none;opacity:0.5;stroke:#73d056;stroke-linecap:square;stroke-width:0.3;"/>
   </g>
   <g id="line2d_74">
    <path clip-path="url(#pb8a7912a34)" d="M 25.6525 141.687755 
L 29.068827 127.997626 
L 32.485153 121.66882 
L 35.90148 120.005727 
L 39.317806 117.601675 
L 42.734133 116.026163 
L 46.150459 118.202403 
L 49.566786 114.850895 
L 52.983112 114.225361 
L 56.399439 114.447238 
L 59.815765 108.953886 
L 63.232092 111.325305 
L 66.648418 108.431561 
L 70.064745 110.345751 
L 73.481071 115.409007 
L 76.897398 112.335448 
L 80.313724 113.426261 
L 83.730051 114.048349 
L 87.146378 112.995994 
L 90.562704 115.550989 
L 93.979031 116.195585 
L 97.395357 117.618838 
L 100.811684 116.871747 
L 104.22801 116.53183 
L 107.644337 117.444626 
L 111.060663 117.017698 
L 114.47699 116.644408 
L 117.893316 116.325096 
L 121.309643 116.038835 
L 124.725969 115.794108 
L 128.142296 115.53218 
L 131.558622 115.298424 
L 134.974949 115.139533 
L 138.391276 115.040765 
L 141.807602 115.042681 
L 145.223929 115.045155 
L 148.640255 115.048094 
L 152.056582 115.051412 
L 155.472908 115.055036 
L 158.889235 115.058895 
L 162.305561 115.062925 
L 165.721888 115.067061 
L 169.138214 115.071237 
L 172.554541 115.075386 
L 175.970867 115.079434 
L 179.387194 115.0833 
L 182.80352 115.08689 
L 186.219847 115.090099 
L 189.636173 115.092802 
L 193.0525 115.094852 
" style="fill:none;opacity:0.5;stroke:#73d056;stroke-linecap:square;stroke-width:0.3;"/>
   </g>
   <g id="line2d_75">
    <path clip-path="url(#pb8a7912a34)" d="M 25.6525 177.893687 
L 29.068827 173.05286 
L 32.485153 158.752718 
L 35.90148 145.385324 
L 39.317806 134.375532 
L 42.734133 125.809874 
L 46.150459 121.339517 
L 49.566786 118.402913 
L 52.983112 113.941466 
L 56.399439 113.541997 
L 59.815765 111.722482 
L 63.232092 111.763307 
L 66.648418 113.064551 
L 70.064745 113.085586 
L 73.481071 113.863711 
L 76.897398 113.077419 
L 80.313724 111.12434 
L 83.730051 111.38149 
L 87.146378 111.967506 
L 90.562704 113.551351 
L 93.979031 114.865709 
L 97.395357 113.701112 
L 100.811684 112.79359 
L 104.22801 111.995961 
L 107.644337 114.384924 
L 111.060663 115.127341 
L 114.47699 117.03307 
L 117.893316 118.09592 
L 121.309643 117.517982 
L 124.725969 117.415848 
L 128.142296 117.515813 
L 131.558622 117.521132 
L 134.974949 117.365501 
L 138.391276 117.2185 
L 141.807602 117.077412 
L 145.223929 116.918574 
L 148.640255 116.806096 
L 152.056582 116.807648 
L 155.472908 116.809629 
L 158.889235 116.811943 
L 162.305561 116.8145 
L 165.721888 116.817213 
L 169.138214 116.819997 
L 172.554541 116.822764 
L 175.970867 116.825421 
L 179.387194 116.827868 
L 182.80352 116.829994 
L 186.219847 116.831672 
L 189.636173 116.832754 
L 193.0525 116.833069 
" style="fill:none;opacity:0.5;stroke:#73d056;stroke-linecap:square;stroke-width:0.3;"/>
   </g>
   <g id="line2d_76">
    <path clip-path="url(#pb8a7912a34)" d="M 25.6525 141.985828 
L 29.068827 129.250938 
L 32.485153 120.608931 
L 35.90148 114.714853 
L 39.317806 114.796545 
L 42.734133 113.898084 
L 46.150459 116.157094 
L 49.566786 114.042398 
L 52.983112 115.541119 
L 56.399439 114.839851 
L 59.815765 115.210655 
L 63.232092 114.126231 
L 66.648418 111.886384 
L 70.064745 111.068665 
L 73.481071 109.313847 
L 76.897398 110.586579 
L 80.313724 111.26417 
L 83.730051 114.675975 
L 87.146378 116.853002 
L 90.562704 119.199172 
L 93.979031 118.0541 
L 97.395357 118.789482 
L 100.811684 117.95901 
L 104.22801 117.549384 
L 107.644337 117.179563 
L 111.060663 116.819369 
L 114.47699 116.52752 
L 117.893316 116.311394 
L 121.309643 116.08912 
L 124.725969 115.871043 
L 128.142296 115.849255 
L 131.558622 115.850006 
L 134.974949 115.851481 
L 138.391276 115.853564 
L 141.807602 115.856158 
L 145.223929 115.859176 
L 148.640255 115.862542 
L 152.056582 115.866189 
L 155.472908 115.870052 
L 158.889235 115.874071 
L 162.305561 115.878188 
L 165.721888 115.882343 
L 169.138214 115.886473 
L 172.554541 115.890511 
L 175.970867 115.894381 
L 179.387194 115.897997 
L 182.80352 115.901261 
L 186.219847 115.904059 
L 189.636173 115.906252 
L 193.0525 115.907681 
" style="fill:none;opacity:0.5;stroke:#73d056;stroke-linecap:square;stroke-width:0.3;"/>
   </g>
   <g id="line2d_77">
    <path clip-path="url(#pb8a7912a34)" d="M 25.6525 181.023448 
L 29.068827 179.225474 
L 32.485153 174.222425 
L 35.90148 165.491966 
L 39.317806 158.431476 
L 42.734133 142.704697 
L 46.150459 130.859229 
L 49.566786 121.986335 
L 52.983112 115.864666 
L 56.399439 118.864599 
L 59.815765 111.909546 
L 63.232092 111.006783 
L 66.648418 109.481843 
L 70.064745 105.376297 
L 73.481071 108.851882 
L 76.897398 107.429821 
L 80.313724 107.046476 
L 83.730051 107.414096 
L 87.146378 112.673474 
L 90.562704 116.693114 
L 93.979031 117.58826 
L 97.395357 118.303312 
L 100.811684 117.320098 
L 104.22801 118.042668 
L 107.644337 119.155966 
L 111.060663 117.130651 
L 114.47699 115.528169 
L 117.893316 114.988285 
L 121.309643 114.657405 
L 124.725969 115.468251 
L 128.142296 116.327713 
L 131.558622 115.883006 
L 134.974949 115.642574 
L 138.391276 115.614808 
L 141.807602 115.635599 
L 145.223929 115.670452 
L 148.640255 115.640689 
L 152.056582 115.628175 
L 155.472908 115.6302 
L 158.889235 115.632551 
L 162.305561 115.635139 
L 165.721888 115.637881 
L 169.138214 115.640691 
L 172.554541 115.643486 
L 175.970867 115.646174 
L 179.387194 115.64866 
L 182.80352 115.650834 
L 186.219847 115.652573 
L 189.636173 115.653736 
L 193.0525 115.654156 
" style="fill:none;opacity:0.5;stroke:#73d056;stroke-linecap:square;stroke-width:0.3;"/>
   </g>
   <g id="line2d_78">
    <path clip-path="url(#pb8a7912a34)" d="M 25.6525 173.571059 
L 29.068827 173.449064 
L 32.485153 171.543094 
L 35.90148 169.648626 
L 39.317806 167.646936 
L 42.734133 165.204763 
L 46.150459 162.541408 
L 49.566786 154.556347 
L 52.983112 149.585231 
L 56.399439 140.527414 
L 59.815765 126.1043 
L 63.232092 118.575357 
L 66.648418 111.522811 
L 70.064745 111.927282 
L 73.481071 111.584442 
L 76.897398 113.943386 
L 80.313724 110.676984 
L 83.730051 106.550201 
L 87.146378 107.819303 
L 90.562704 105.487178 
L 93.979031 105.159149 
L 97.395357 107.14018 
L 100.811684 107.292976 
L 104.22801 109.824452 
L 107.644337 114.759242 
L 111.060663 112.598379 
L 114.47699 113.04618 
L 117.893316 112.582131 
L 121.309643 111.377127 
L 124.725969 114.664125 
L 128.142296 112.879474 
L 131.558622 113.450926 
L 134.974949 114.320957 
L 138.391276 113.500116 
L 141.807602 114.207417 
L 145.223929 113.727245 
L 148.640255 113.327111 
L 152.056582 112.980093 
L 155.472908 112.698152 
L 158.889235 112.451219 
L 162.305561 112.335803 
L 165.721888 112.229327 
L 169.138214 112.240761 
L 172.554541 112.24153 
L 175.970867 112.242566 
L 179.387194 112.243725 
L 182.80352 112.244863 
L 186.219847 112.245829 
L 189.636173 112.246461 
L 193.0525 112.24658 
" style="fill:none;opacity:0.5;stroke:#73d056;stroke-linecap:square;stroke-width:0.3;"/>
   </g>
   <g id="line2d_79">
    <path clip-path="url(#pb8a7912a34)" d="M 25.6525 181.023448 
L 29.068827 177.446678 
L 32.485153 171.026273 
L 35.90148 167.772053 
L 39.317806 163.111297 
L 42.734133 157.3121 
L 46.150459 142.387225 
L 49.566786 131.169607 
L 52.983112 124.572057 
L 56.399439 115.825272 
L 59.815765 117.375034 
L 63.232092 116.599116 
L 66.648418 117.904423 
L 70.064745 115.796873 
L 73.481071 116.12298 
L 76.897398 113.537954 
L 80.313724 107.264073 
L 83.730051 108.042152 
L 87.146378 108.972178 
L 90.562704 108.130088 
L 93.979031 111.65552 
L 97.395357 113.101807 
L 100.811684 110.504066 
L 104.22801 112.876228 
L 107.644337 115.126351 
L 111.060663 113.363095 
L 114.47699 114.229202 
L 117.893316 117.071038 
L 121.309643 116.925138 
L 124.725969 117.825113 
L 128.142296 117.36953 
L 131.558622 116.963111 
L 134.974949 116.677864 
L 138.391276 116.382298 
L 141.807602 116.057993 
L 145.223929 115.853616 
L 148.640255 115.751018 
L 152.056582 115.731001 
L 155.472908 115.730905 
L 158.889235 115.731525 
L 162.305561 115.732723 
L 165.721888 115.734372 
L 169.138214 115.736358 
L 172.554541 115.738569 
L 175.970867 115.740897 
L 179.387194 115.743236 
L 182.80352 115.74547 
L 186.219847 115.747481 
L 189.636173 115.749134 
L 193.0525 115.750281 
" style="fill:none;opacity:0.5;stroke:#73d056;stroke-linecap:square;stroke-width:0.3;"/>
   </g>
   <g id="line2d_80">
    <path clip-path="url(#pb8a7912a34)" d="M 25.6525 177.429343 
L 29.068827 168.260821 
L 32.485153 159.974023 
L 35.90148 144.165102 
L 39.317806 129.330708 
L 42.734133 122.069151 
L 46.150459 114.284527 
L 49.566786 112.010863 
L 52.983112 116.077415 
L 56.399439 116.149006 
L 59.815765 112.348047 
L 63.232092 114.067117 
L 66.648418 113.999963 
L 70.064745 110.894865 
L 73.481071 114.301043 
L 76.897398 113.449156 
L 80.313724 113.990969 
L 83.730051 115.508232 
L 87.146378 116.48567 
L 90.562704 117.311497 
L 93.979031 114.230393 
L 97.395357 114.355644 
L 100.811684 113.374875 
L 104.22801 114.501306 
L 107.644337 115.541233 
L 111.060663 116.410018 
L 114.47699 117.860073 
L 117.893316 117.181495 
L 121.309643 117.828694 
L 124.725969 117.501125 
L 128.142296 117.425537 
L 131.558622 117.266362 
L 134.974949 117.064146 
L 138.391276 116.991219 
L 141.807602 116.953699 
L 145.223929 116.955567 
L 148.640255 116.957952 
L 152.056582 116.96076 
L 155.472908 116.963903 
L 158.889235 116.967303 
L 162.305561 116.970881 
L 165.721888 116.974564 
L 169.138214 116.978274 
L 172.554541 116.981932 
L 175.970867 116.985452 
L 179.387194 116.988737 
L 182.80352 116.99168 
L 186.219847 116.994155 
L 189.636173 116.996018 
L 193.0525 116.997097 
" style="fill:none;opacity:0.5;stroke:#73d056;stroke-linecap:square;stroke-width:0.3;"/>
   </g>
   <g id="line2d_81">
    <path clip-path="url(#pb8a7912a34)" d="M 25.6525 161.338896 
L 29.068827 151.892374 
L 32.485153 144.010132 
L 35.90148 135.15063 
L 39.317806 126.55799 
L 42.734133 116.787903 
L 46.150459 107.736374 
L 49.566786 104.794142 
L 52.983112 104.363253 
L 56.399439 103.89073 
L 59.815765 108.19832 
L 63.232092 110.743064 
L 66.648418 110.106521 
L 70.064745 113.883795 
L 73.481071 115.460659 
L 76.897398 111.425999 
L 80.313724 114.155086 
L 83.730051 113.981109 
L 87.146378 115.328579 
L 90.562704 120.399093 
L 93.979031 119.758978 
L 97.395357 121.340071 
L 100.811684 120.641039 
L 104.22801 119.813093 
L 107.644337 119.231148 
L 111.060663 118.743363 
L 114.47699 118.249231 
L 117.893316 117.830159 
L 121.309643 117.531419 
L 124.725969 117.369711 
L 128.142296 117.270681 
L 131.558622 117.271108 
L 134.974949 117.272348 
L 138.391276 117.274274 
L 141.807602 117.276778 
L 145.223929 117.279766 
L 148.640255 117.283157 
L 152.056582 117.28688 
L 155.472908 117.29087 
L 158.889235 117.295067 
L 162.305561 117.299415 
L 165.721888 117.303856 
L 169.138214 117.308335 
L 172.554541 117.312792 
L 175.970867 117.317161 
L 179.387194 117.321369 
L 182.80352 117.325334 
L 186.219847 117.328961 
L 189.636173 117.332136 
L 193.0525 117.334726 
" style="fill:none;opacity:0.5;stroke:#73d056;stroke-linecap:square;stroke-width:0.3;"/>
   </g>
   <g id="line2d_82">
    <path clip-path="url(#pb8a7912a34)" d="M 25.6525 145.975947 
L 29.068827 129.654232 
L 32.485153 120.169978 
L 35.90148 109.97736 
L 39.317806 107.972472 
L 42.734133 109.493575 
L 46.150459 108.815743 
L 49.566786 110.379884 
L 52.983112 111.251134 
L 56.399439 110.551691 
L 59.815765 114.898857 
L 63.232092 118.367934 
L 66.648418 117.998355 
L 70.064745 117.674354 
L 73.481071 116.718933 
L 76.897398 116.286851 
L 80.313724 115.735711 
L 83.730051 118.107299 
L 87.146378 118.79711 
L 90.562704 117.436244 
L 93.979031 118.097063 
L 97.395357 116.517032 
L 100.811684 115.896771 
L 104.22801 116.833535 
L 107.644337 116.743187 
L 111.060663 117.449679 
L 114.47699 117.207694 
L 117.893316 117.040873 
L 121.309643 116.796999 
L 124.725969 116.622545 
L 128.142296 116.594197 
L 131.558622 116.588323 
L 134.974949 116.590357 
L 138.391276 116.592917 
L 141.807602 116.595918 
L 145.223929 116.599289 
L 148.640255 116.602964 
L 152.056582 116.606883 
L 155.472908 116.610992 
L 158.889235 116.615237 
L 162.305561 116.619564 
L 165.721888 116.62392 
L 169.138214 116.628247 
L 172.554541 116.632481 
L 175.970867 116.636553 
L 179.387194 116.640381 
L 182.80352 116.643871 
L 186.219847 116.646915 
L 189.636173 116.649382 
L 193.0525 116.651118 
" style="fill:none;opacity:0.5;stroke:#73d056;stroke-linecap:square;stroke-width:0.3;"/>
   </g>
   <g id="line2d_83">
    <path clip-path="url(#pb8a7912a34)" d="M 25.6525 181.023448 
L 29.068827 181.023448 
L 32.485153 174.890312 
L 35.90148 172.975946 
L 39.317806 167.819559 
L 42.734133 166.029604 
L 46.150459 166.947734 
L 49.566786 165.189281 
L 52.983112 162.633025 
L 56.399439 154.343385 
L 59.815765 150.620128 
L 63.232092 139.783973 
L 66.648418 138.40335 
L 70.064745 134.337043 
L 73.481071 125.312991 
L 76.897398 121.04148 
L 80.313724 113.570147 
L 83.730051 111.576943 
L 87.146378 111.264732 
L 90.562704 111.246997 
L 93.979031 107.04655 
L 97.395357 103.767633 
L 100.811684 102.889617 
L 104.22801 103.204744 
L 107.644337 109.58403 
L 111.060663 110.861772 
L 114.47699 110.797868 
L 117.893316 114.888329 
L 121.309643 113.199821 
L 124.725969 115.4231 
L 128.142296 117.399156 
L 131.558622 116.880502 
L 134.974949 117.783206 
L 138.391276 119.11039 
L 141.807602 118.858984 
L 145.223929 118.608741 
L 148.640255 118.457908 
L 152.056582 118.269061 
L 155.472908 118.073095 
L 158.889235 117.813239 
L 162.305561 117.567812 
L 165.721888 117.381016 
L 169.138214 117.342584 
L 172.554541 117.343939 
L 175.970867 117.345421 
L 179.387194 117.34688 
L 182.80352 117.348157 
L 186.219847 117.349085 
L 189.636173 117.349476 
L 193.0525 117.34912 
" style="fill:none;opacity:0.5;stroke:#73d056;stroke-linecap:square;stroke-width:0.3;"/>
   </g>
   <g id="line2d_84">
    <path clip-path="url(#pb8a7912a34)" d="M 25.6525 181.023448 
L 29.068827 179.225474 
L 32.485153 171.733769 
L 35.90148 161.081358 
L 39.317806 150.866682 
L 42.734133 140.209191 
L 46.150459 130.181387 
L 49.566786 124.054115 
L 52.983112 123.671509 
L 56.399439 118.256989 
L 59.815765 117.714185 
L 63.232092 119.015145 
L 66.648418 110.708563 
L 70.064745 104.763 
L 73.481071 105.895483 
L 76.897398 101.013504 
L 80.313724 104.893067 
L 83.730051 111.294722 
L 87.146378 110.555056 
L 90.562704 114.500005 
L 93.979031 116.973237 
L 97.395357 120.250748 
L 100.811684 121.914256 
L 104.22801 122.562386 
L 107.644337 121.606394 
L 111.060663 120.693352 
L 114.47699 119.992444 
L 117.893316 119.584445 
L 121.309643 119.067879 
L 124.725969 118.566955 
L 128.142296 118.255273 
L 131.558622 118.046385 
L 134.974949 117.808078 
L 138.391276 117.662083 
L 141.807602 117.623937 
L 145.223929 117.609965 
L 148.640255 117.609387 
L 152.056582 117.611475 
L 155.472908 117.613936 
L 158.889235 117.616681 
L 162.305561 117.619624 
L 165.721888 117.622681 
L 169.138214 117.625768 
L 172.554541 117.628799 
L 175.970867 117.631678 
L 179.387194 117.634304 
L 182.80352 117.636559 
L 186.219847 117.63831 
L 189.636173 117.639403 
L 193.0525 117.639655 
" style="fill:none;opacity:0.5;stroke:#73d056;stroke-linecap:square;stroke-width:0.3;"/>
   </g>
   <g id="line2d_85">
    <path clip-path="url(#pb8a7912a34)" d="M 25.6525 166.882013 
L 29.068827 160.852914 
L 32.485153 147.495772 
L 35.90148 137.313649 
L 39.317806 129.029678 
L 42.734133 122.168116 
L 46.150459 114.36468 
L 49.566786 118.763447 
L 52.983112 115.619247 
L 56.399439 115.669105 
L 59.815765 117.498739 
L 63.232092 109.900226 
L 66.648418 105.166842 
L 70.064745 106.390055 
L 73.481071 105.997537 
L 76.897398 112.1806 
L 80.313724 116.123646 
L 83.730051 116.214378 
L 87.146378 118.031003 
L 90.562704 116.55683 
L 93.979031 118.420892 
L 97.395357 118.022125 
L 100.811684 119.13889 
L 104.22801 120.243371 
L 107.644337 119.735185 
L 111.060663 119.205859 
L 114.47699 120.262364 
L 117.893316 120.140645 
L 121.309643 119.826544 
L 124.725969 119.543142 
L 128.142296 119.404176 
L 131.558622 119.398032 
L 134.974949 119.39963 
L 138.391276 119.401781 
L 141.807602 119.404395 
L 145.223929 119.407393 
L 148.640255 119.410704 
L 152.056582 119.414263 
L 155.472908 119.418008 
L 158.889235 119.42188 
L 162.305561 119.425818 
L 165.721888 119.429762 
L 169.138214 119.433646 
L 172.554541 119.437399 
L 175.970867 119.440939 
L 179.387194 119.444176 
L 182.80352 119.447002 
L 186.219847 119.449292 
L 189.636173 119.450898 
L 193.0525 119.451643 
" style="fill:none;opacity:0.5;stroke:#73d056;stroke-linecap:square;stroke-width:0.3;"/>
   </g>
   <g id="line2d_86">
    <path clip-path="url(#pb8a7912a34)" d="M 25.6525 177.429344 
L 29.068827 170.031553 
L 32.485153 160.784561 
L 35.90148 148.718043 
L 39.317806 139.891866 
L 42.734133 122.424736 
L 46.150459 118.452126 
L 49.566786 119.917919 
L 52.983112 117.378501 
L 56.399439 124.563909 
L 59.815765 122.709651 
L 63.232092 117.799255 
L 66.648418 115.574598 
L 70.064745 112.380639 
L 73.481071 110.298847 
L 76.897398 107.281251 
L 80.313724 105.417344 
L 83.730051 107.224927 
L 87.146378 108.731288 
L 90.562704 114.283058 
L 93.979031 115.648181 
L 97.395357 115.543704 
L 100.811684 116.378123 
L 104.22801 115.170082 
L 107.644337 116.678317 
L 111.060663 117.197031 
L 114.47699 117.807 
L 117.893316 117.057625 
L 121.309643 116.401822 
L 124.725969 115.948652 
L 128.142296 115.575471 
L 131.558622 115.256442 
L 134.974949 114.987097 
L 138.391276 114.774119 
L 141.807602 114.739661 
L 145.223929 114.770637 
L 148.640255 114.777187 
L 152.056582 114.778805 
L 155.472908 114.780872 
L 158.889235 114.783291 
L 162.305561 114.785973 
L 165.721888 114.788829 
L 169.138214 114.791777 
L 172.554541 114.794728 
L 175.970867 114.797594 
L 179.387194 114.800277 
L 182.80352 114.80267 
L 186.219847 114.804651 
L 189.636173 114.80608 
L 193.0525 114.806794 
" style="fill:none;opacity:0.5;stroke:#73d056;stroke-linecap:square;stroke-width:0.3;"/>
   </g>
   <g id="line2d_87">
    <path clip-path="url(#pb8a7912a34)" d="M 25.6525 181.023448 
L 29.068827 181.023448 
L 32.485153 181.023448 
L 35.90148 181.023448 
L 39.317806 181.023448 
L 42.734133 179.225474 
L 46.150459 173.275497 
L 49.566786 169.609268 
L 52.983112 166.06672 
L 56.399439 159.841636 
L 59.815765 149.244595 
L 63.232092 144.403716 
L 66.648418 132.891133 
L 70.064745 128.751748 
L 73.481071 120.40719 
L 76.897398 116.290239 
L 80.313724 119.218874 
L 83.730051 118.156519 
L 87.146378 120.441873 
L 90.562704 121.925476 
L 93.979031 119.258575 
L 97.395357 116.181822 
L 100.811684 112.25796 
L 104.22801 108.301369 
L 107.644337 106.836867 
L 111.060663 102.747121 
L 114.47699 103.064026 
L 117.893316 104.303177 
L 121.309643 104.276072 
L 124.725969 109.269441 
L 128.142296 113.141404 
L 131.558622 113.904775 
L 134.974949 115.937113 
L 138.391276 116.572482 
L 141.807602 116.200281 
L 145.223929 116.647656 
L 148.640255 116.296458 
L 152.056582 115.762757 
L 155.472908 115.374506 
L 158.889235 115.189781 
L 162.305561 115.061494 
L 165.721888 114.996809 
L 169.138214 114.996538 
L 172.554541 114.99672 
L 175.970867 114.997195 
L 179.387194 114.997805 
L 182.80352 114.998394 
L 186.219847 114.998797 
L 189.636173 114.998839 
L 193.0525 114.998329 
" style="fill:none;opacity:0.5;stroke:#73d056;stroke-linecap:square;stroke-width:0.3;"/>
   </g>
   <g id="line2d_88">
    <path clip-path="url(#pb8a7912a34)" d="M 25.6525 173.301675 
L 29.068827 168.31132 
L 32.485153 160.842504 
L 35.90148 148.036399 
L 39.317806 134.888022 
L 42.734133 121.575202 
L 46.150459 118.719696 
L 49.566786 117.600243 
L 52.983112 117.038638 
L 56.399439 119.571758 
L 59.815765 115.231684 
L 63.232092 115.668973 
L 66.648418 114.522986 
L 70.064745 110.968611 
L 73.481071 112.169088 
L 76.897398 110.357468 
L 80.313724 109.875961 
L 83.730051 113.915374 
L 87.146378 113.593004 
L 90.562704 113.419103 
L 93.979031 113.530598 
L 97.395357 113.709567 
L 100.811684 113.526519 
L 104.22801 115.149317 
L 107.644337 116.276685 
L 111.060663 116.124889 
L 114.47699 115.800213 
L 117.893316 116.686201 
L 121.309643 116.107497 
L 124.725969 115.789248 
L 128.142296 115.672042 
L 131.558622 115.643189 
L 134.974949 115.648066 
L 138.391276 115.657855 
L 141.807602 115.659405 
L 145.223929 115.661462 
L 148.640255 115.663936 
L 152.056582 115.666747 
L 155.472908 115.669826 
L 158.889235 115.673105 
L 162.305561 115.676521 
L 165.721888 115.680013 
L 169.138214 115.683518 
L 172.554541 115.686968 
L 175.970867 115.690293 
L 179.387194 115.693413 
L 182.80352 115.696236 
L 186.219847 115.698658 
L 189.636173 115.700555 
L 193.0525 115.701782 
" style="fill:none;opacity:0.5;stroke:#73d056;stroke-linecap:square;stroke-width:0.3;"/>
   </g>
   <g id="line2d_89">
    <path clip-path="url(#pb8a7912a34)" d="M 25.6525 181.023448 
L 29.068827 181.023448 
L 32.485153 177.434164 
L 35.90148 177.430269 
L 39.317806 174.315154 
L 42.734133 165.532844 
L 46.150459 153.536825 
L 49.566786 138.579761 
L 52.983112 127.469281 
L 56.399439 123.628835 
L 59.815765 120.523747 
L 63.232092 122.011138 
L 66.648418 119.314722 
L 70.064745 117.85678 
L 73.481071 113.846696 
L 76.897398 114.720753 
L 80.313724 116.432415 
L 83.730051 112.483341 
L 87.146378 111.412367 
L 90.562704 107.75527 
L 93.979031 106.381161 
L 97.395357 108.28488 
L 100.811684 109.599343 
L 104.22801 113.259988 
L 107.644337 115.844177 
L 111.060663 118.495922 
L 114.47699 120.884363 
L 117.893316 120.16728 
L 121.309643 119.239724 
L 124.725969 118.679066 
L 128.142296 119.410305 
L 131.558622 118.85416 
L 134.974949 118.533358 
L 138.391276 118.388091 
L 141.807602 118.080524 
L 145.223929 117.775628 
L 148.640255 117.553185 
L 152.056582 117.538611 
L 155.472908 117.539941 
L 158.889235 117.541806 
L 162.305561 117.544084 
L 165.721888 117.546664 
L 169.138214 117.549438 
L 172.554541 117.5523 
L 175.970867 117.555144 
L 179.387194 117.557854 
L 182.80352 117.56031 
L 186.219847 117.562374 
L 189.636173 117.563892 
L 193.0525 117.564686 
" style="fill:none;opacity:0.5;stroke:#73d056;stroke-linecap:square;stroke-width:0.3;"/>
   </g>
   <g id="line2d_90">
    <path clip-path="url(#pb8a7912a34)" d="M 25.6525 165.278845 
L 29.068827 159.668531 
L 32.485153 152.895442 
L 35.90148 145.852982 
L 39.317806 140.169208 
L 42.734133 133.993625 
L 46.150459 129.497396 
L 49.566786 125.508383 
L 52.983112 122.354937 
L 56.399439 120.338904 
L 59.815765 118.453244 
L 63.232092 117.328589 
L 66.648418 115.500994 
L 70.064745 113.981391 
L 73.481071 112.70638 
L 76.897398 111.53484 
L 80.313724 111.086594 
L 83.730051 111.654912 
L 87.146378 112.558252 
L 90.562704 113.691703 
L 93.979031 114.194547 
L 97.395357 114.7928 
L 100.811684 114.763429 
L 104.22801 115.139648 
L 107.644337 115.843358 
L 111.060663 115.702187 
L 114.47699 115.984022 
L 117.893316 115.97669 
L 121.309643 115.766384 
L 124.725969 115.90485 
L 128.142296 115.861183 
L 131.558622 115.899267 
L 134.974949 115.835756 
L 138.391276 115.718577 
L 141.807602 115.607389 
L 145.223929 115.536 
L 148.640255 115.470011 
L 152.056582 115.444886 
L 155.472908 115.409895 
L 158.889235 115.383786 
L 162.305561 115.371584 
L 165.721888 115.364599 
L 169.138214 115.366209 
L 172.554541 115.369321 
L 175.970867 115.372362 
L 179.387194 115.375233 
L 182.80352 115.377825 
L 186.219847 115.380013 
L 189.636173 115.381658 
L 193.0525 115.382593 
" style="fill:none;stroke:#73d056;stroke-linecap:square;stroke-width:2;"/>
   </g>
   <g id="patch_3">
    <path d="M 25.6525 177.02 
L 25.6525 10.7 
" style="fill:none;stroke:#000000;stroke-linecap:square;stroke-linejoin:miter;stroke-width:0.8;"/>
   </g>
   <g id="patch_4">
    <path d="M 193.0525 177.02 
L 193.0525 10.7 
" style="fill:none;stroke:#000000;stroke-linecap:square;stroke-linejoin:miter;stroke-width:0.8;"/>
   </g>
   <g id="patch_5">
    <path d="M 25.6525 177.02 
L 193.0525 177.02 
" style="fill:none;stroke:#000000;stroke-linecap:square;stroke-linejoin:miter;stroke-width:0.8;"/>
   </g>
   <g id="patch_6">
    <path d="M 25.6525 10.7 
L 193.0525 10.7 
" style="fill:none;stroke:#000000;stroke-linecap:square;stroke-linejoin:miter;stroke-width:0.8;"/>
   </g>
  </g>
 </g>
 <defs>
  <clipPath id="pb8a7912a34">
   <rect height="166.32" width="167.4" x="25.6525" y="10.7"/>
  </clipPath>
 </defs>
</svg>
