<?xml version="1.0" encoding="utf-8" standalone="no"?>
<!DOCTYPE svg PUBLIC "-//W3C//DTD SVG 1.1//EN"
  "http://www.w3.org/Graphics/SVG/1.1/DTD/svg11.dtd">
<!-- Created with matplotlib (http://matplotlib.org/) -->
<svg height="172pt" version="1.1" viewBox="0 0 194 172" width="194pt" xmlns="http://www.w3.org/2000/svg" xmlns:xlink="http://www.w3.org/1999/xlink">
 <defs>
  <style type="text/css">
*{stroke-linecap:butt;stroke-linejoin:round;}
  </style>
 </defs>
 <g id="figure_1">
  <g id="patch_1">
   <path d="M 0 172.705 
L 194.402684 172.705 
L 194.402684 0 
L 0 0 
z
" style="fill:#ffffff;"/>
  </g>
  <g id="axes_1">
   <g id="patch_2">
    <path d="M 24.38 143.02 
L 175.408124 143.02 
L 175.408124 10.7 
L 24.38 10.7 
z
" style="fill:#ffffff;"/>
   </g>
   <g id="QuadMesh_1">
    <path clip-path="url(#p8e7ced608b)" d="M 24.602178 143.02 
L 24.602178 128.317778 
L 40.103747 128.317778 
L 40.103747 143.02 
L 24.602178 143.02 
" style="fill:#0b0000;"/>
    <path clip-path="url(#p8e7ced608b)" d="M 24.602178 128.317778 
L 24.602178 113.615556 
L 40.103747 113.615556 
L 40.103747 128.317778 
L 24.602178 128.317778 
" style="fill:#590000;"/>
    <path clip-path="url(#p8e7ced608b)" d="M 24.602178 113.615556 
L 24.602178 98.913333 
L 40.103747 98.913333 
L 40.103747 113.615556 
L 24.602178 113.615556 
" style="fill:#810000;"/>
    <path clip-path="url(#p8e7ced608b)" d="M 24.602178 98.913333 
L 24.602178 84.211111 
L 40.103747 84.211111 
L 40.103747 98.913333 
L 24.602178 98.913333 
" style="fill:#cf0000;"/>
    <path clip-path="url(#p8e7ced608b)" d="M 24.602178 84.211111 
L 24.602178 69.508889 
L 40.103747 69.508889 
L 40.103747 84.211111 
L 24.602178 84.211111 
" style="fill:#ff5c00;"/>
    <path clip-path="url(#p8e7ced608b)" d="M 24.602178 69.508889 
L 24.602178 54.806667 
L 40.103747 54.806667 
L 40.103747 69.508889 
L 24.602178 69.508889 
" style="fill:#ff9500;"/>
    <path clip-path="url(#p8e7ced608b)" d="M 24.602178 54.806667 
L 24.602178 40.104444 
L 40.103747 40.104444 
L 40.103747 54.806667 
L 24.602178 54.806667 
" style="fill:#fff900;"/>
    <path clip-path="url(#p8e7ced608b)" d="M 24.602178 40.104444 
L 24.602178 25.402222 
L 40.103747 25.402222 
L 40.103747 40.104444 
L 24.602178 40.104444 
" style="fill:#ffff32;"/>
    <path clip-path="url(#p8e7ced608b)" d="M 24.602178 25.402222 
L 24.602178 10.7 
L 40.103747 10.7 
L 40.103747 25.402222 
L 24.602178 25.402222 
" style="fill:#ffffc4;"/>
    <path clip-path="url(#p8e7ced608b)" d="M 40.103747 143.02 
L 40.103747 128.317778 
L 55.605315 128.317778 
L 55.605315 143.02 
L 40.103747 143.02 
" style="fill:#0b0000;"/>
    <path clip-path="url(#p8e7ced608b)" d="M 40.103747 128.317778 
L 40.103747 113.615556 
L 55.605315 113.615556 
L 55.605315 128.317778 
L 40.103747 128.317778 
" style="fill:#590000;"/>
    <path clip-path="url(#p8e7ced608b)" d="M 40.103747 113.615556 
L 40.103747 98.913333 
L 55.605315 98.913333 
L 55.605315 113.615556 
L 40.103747 113.615556 
" style="fill:#930000;"/>
    <path clip-path="url(#p8e7ced608b)" d="M 40.103747 98.913333 
L 40.103747 84.211111 
L 55.605315 84.211111 
L 55.605315 98.913333 
L 40.103747 98.913333 
" style="fill:#cf0000;"/>
    <path clip-path="url(#p8e7ced608b)" d="M 40.103747 84.211111 
L 40.103747 69.508889 
L 55.605315 69.508889 
L 55.605315 84.211111 
L 40.103747 84.211111 
" style="fill:#ff5c00;"/>
    <path clip-path="url(#p8e7ced608b)" d="M 40.103747 69.508889 
L 40.103747 54.806667 
L 55.605315 54.806667 
L 55.605315 69.508889 
L 40.103747 69.508889 
" style="fill:#ff9500;"/>
    <path clip-path="url(#p8e7ced608b)" d="M 40.103747 54.806667 
L 40.103747 40.104444 
L 55.605315 40.104444 
L 55.605315 54.806667 
L 40.103747 54.806667 
" style="fill:#ffff32;"/>
    <path clip-path="url(#p8e7ced608b)" d="M 40.103747 40.104444 
L 40.103747 25.402222 
L 55.605315 25.402222 
L 55.605315 40.104444 
L 40.103747 40.104444 
" style="fill:#ffff32;"/>
    <path clip-path="url(#p8e7ced608b)" d="M 40.103747 25.402222 
L 40.103747 10.7 
L 55.605315 10.7 
L 55.605315 25.402222 
L 40.103747 25.402222 
" style="fill:#ffffa8;"/>
    <path clip-path="url(#p8e7ced608b)" d="M 55.605315 143.02 
L 55.605315 128.317778 
L 71.106884 128.317778 
L 71.106884 143.02 
L 55.605315 143.02 
" style="fill:#0b0000;"/>
    <path clip-path="url(#p8e7ced608b)" d="M 55.605315 128.317778 
L 55.605315 113.615556 
L 71.106884 113.615556 
L 71.106884 128.317778 
L 55.605315 128.317778 
" style="fill:#6c0000;"/>
    <path clip-path="url(#p8e7ced608b)" d="M 55.605315 113.615556 
L 55.605315 98.913333 
L 71.106884 98.913333 
L 71.106884 113.615556 
L 55.605315 113.615556 
" style="fill:#930000;"/>
    <path clip-path="url(#p8e7ced608b)" d="M 55.605315 98.913333 
L 55.605315 84.211111 
L 71.106884 84.211111 
L 71.106884 98.913333 
L 55.605315 98.913333 
" style="fill:#f70000;"/>
    <path clip-path="url(#p8e7ced608b)" d="M 55.605315 84.211111 
L 55.605315 69.508889 
L 71.106884 69.508889 
L 71.106884 84.211111 
L 55.605315 84.211111 
" style="fill:#ff8300;"/>
    <path clip-path="url(#p8e7ced608b)" d="M 55.605315 69.508889 
L 55.605315 54.806667 
L 71.106884 54.806667 
L 71.106884 69.508889 
L 55.605315 69.508889 
" style="fill:#ff9500;"/>
    <path clip-path="url(#p8e7ced608b)" d="M 55.605315 54.806667 
L 55.605315 40.104444 
L 71.106884 40.104444 
L 71.106884 54.806667 
L 55.605315 54.806667 
" style="fill:#ffff32;"/>
    <path clip-path="url(#p8e7ced608b)" d="M 55.605315 40.104444 
L 55.605315 25.402222 
L 71.106884 25.402222 
L 71.106884 40.104444 
L 55.605315 40.104444 
" style="fill:#ffff6d;"/>
    <path clip-path="url(#p8e7ced608b)" d="M 55.605315 25.402222 
L 55.605315 10.7 
L 71.106884 10.7 
L 71.106884 25.402222 
L 55.605315 25.402222 
" style="fill:#ffffc4;"/>
    <path clip-path="url(#p8e7ced608b)" d="M 71.106884 143.02 
L 71.106884 128.317778 
L 86.608452 128.317778 
L 86.608452 143.02 
L 71.106884 143.02 
" style="fill:#0b0000;"/>
    <path clip-path="url(#p8e7ced608b)" d="M 71.106884 128.317778 
L 71.106884 113.615556 
L 86.608452 113.615556 
L 86.608452 128.317778 
L 71.106884 128.317778 
" style="fill:#6c0000;"/>
    <path clip-path="url(#p8e7ced608b)" d="M 71.106884 113.615556 
L 71.106884 98.913333 
L 86.608452 98.913333 
L 86.608452 113.615556 
L 71.106884 113.615556 
" style="fill:#930000;"/>
    <path clip-path="url(#p8e7ced608b)" d="M 71.106884 98.913333 
L 71.106884 84.211111 
L 86.608452 84.211111 
L 86.608452 98.913333 
L 71.106884 98.913333 
" style="fill:#f70000;"/>
    <path clip-path="url(#p8e7ced608b)" d="M 71.106884 84.211111 
L 71.106884 69.508889 
L 86.608452 69.508889 
L 86.608452 84.211111 
L 71.106884 84.211111 
" style="fill:#ff8300;"/>
    <path clip-path="url(#p8e7ced608b)" d="M 71.106884 69.508889 
L 71.106884 54.806667 
L 86.608452 54.806667 
L 86.608452 69.508889 
L 71.106884 69.508889 
" style="fill:#ffaa00;"/>
    <path clip-path="url(#p8e7ced608b)" d="M 71.106884 54.806667 
L 71.106884 40.104444 
L 86.608452 40.104444 
L 86.608452 54.806667 
L 71.106884 54.806667 
" style="fill:#ffff13;"/>
    <path clip-path="url(#p8e7ced608b)" d="M 71.106884 40.104444 
L 71.106884 25.402222 
L 86.608452 25.402222 
L 86.608452 40.104444 
L 71.106884 40.104444 
" style="fill:#ffffa8;"/>
    <path clip-path="url(#p8e7ced608b)" d="M 71.106884 25.402222 
L 71.106884 10.7 
L 86.608452 10.7 
L 86.608452 25.402222 
L 71.106884 25.402222 
" style="fill:#ffffa8;"/>
    <path clip-path="url(#p8e7ced608b)" d="M 86.608452 143.02 
L 86.608452 128.317778 
L 102.110021 128.317778 
L 102.110021 143.02 
L 86.608452 143.02 
" style="fill:#0b0000;"/>
    <path clip-path="url(#p8e7ced608b)" d="M 86.608452 128.317778 
L 86.608452 113.615556 
L 102.110021 113.615556 
L 102.110021 128.317778 
L 86.608452 128.317778 
" style="fill:#6c0000;"/>
    <path clip-path="url(#p8e7ced608b)" d="M 86.608452 113.615556 
L 86.608452 98.913333 
L 102.110021 98.913333 
L 102.110021 113.615556 
L 86.608452 113.615556 
" style="fill:#930000;"/>
    <path clip-path="url(#p8e7ced608b)" d="M 86.608452 98.913333 
L 86.608452 84.211111 
L 102.110021 84.211111 
L 102.110021 98.913333 
L 86.608452 98.913333 
" style="fill:#f70000;"/>
    <path clip-path="url(#p8e7ced608b)" d="M 86.608452 84.211111 
L 86.608452 69.508889 
L 102.110021 69.508889 
L 102.110021 84.211111 
L 86.608452 84.211111 
" style="fill:#ff6e00;"/>
    <path clip-path="url(#p8e7ced608b)" d="M 86.608452 69.508889 
L 86.608452 54.806667 
L 102.110021 54.806667 
L 102.110021 69.508889 
L 86.608452 69.508889 
" style="fill:#ff9500;"/>
    <path clip-path="url(#p8e7ced608b)" d="M 86.608452 54.806667 
L 86.608452 40.104444 
L 102.110021 40.104444 
L 102.110021 54.806667 
L 86.608452 54.806667 
" style="fill:#ffff13;"/>
    <path clip-path="url(#p8e7ced608b)" d="M 86.608452 40.104444 
L 86.608452 25.402222 
L 102.110021 25.402222 
L 102.110021 40.104444 
L 86.608452 40.104444 
" style="fill:#ffff6d;"/>
    <path clip-path="url(#p8e7ced608b)" d="M 86.608452 25.402222 
L 86.608452 10.7 
L 102.110021 10.7 
L 102.110021 25.402222 
L 86.608452 25.402222 
" style="fill:#ffffc4;"/>
    <path clip-path="url(#p8e7ced608b)" d="M 102.110021 143.02 
L 102.110021 128.317778 
L 117.611589 128.317778 
L 117.611589 143.02 
L 102.110021 143.02 
" style="fill:#0b0000;"/>
    <path clip-path="url(#p8e7ced608b)" d="M 102.110021 128.317778 
L 102.110021 113.615556 
L 117.611589 113.615556 
L 117.611589 128.317778 
L 102.110021 128.317778 
" style="fill:#6c0000;"/>
    <path clip-path="url(#p8e7ced608b)" d="M 102.110021 113.615556 
L 102.110021 98.913333 
L 117.611589 98.913333 
L 117.611589 113.615556 
L 102.110021 113.615556 
" style="fill:#ba0000;"/>
    <path clip-path="url(#p8e7ced608b)" d="M 102.110021 98.913333 
L 102.110021 84.211111 
L 117.611589 84.211111 
L 117.611589 98.913333 
L 102.110021 98.913333 
" style="fill:#ff0a00;"/>
    <path clip-path="url(#p8e7ced608b)" d="M 102.110021 84.211111 
L 102.110021 69.508889 
L 117.611589 69.508889 
L 117.611589 84.211111 
L 102.110021 84.211111 
" style="fill:#ff9500;"/>
    <path clip-path="url(#p8e7ced608b)" d="M 102.110021 69.508889 
L 102.110021 54.806667 
L 117.611589 54.806667 
L 117.611589 69.508889 
L 102.110021 69.508889 
" style="fill:#ffe400;"/>
    <path clip-path="url(#p8e7ced608b)" d="M 102.110021 54.806667 
L 102.110021 40.104444 
L 117.611589 40.104444 
L 117.611589 54.806667 
L 102.110021 54.806667 
" style="fill:#ffff32;"/>
    <path clip-path="url(#p8e7ced608b)" d="M 102.110021 40.104444 
L 102.110021 25.402222 
L 117.611589 25.402222 
L 117.611589 40.104444 
L 102.110021 40.104444 
" style="fill:#ffff6d;"/>
    <path clip-path="url(#p8e7ced608b)" d="M 102.110021 25.402222 
L 102.110021 10.7 
L 117.611589 10.7 
L 117.611589 25.402222 
L 102.110021 25.402222 
" style="fill:#ffffc4;"/>
    <path clip-path="url(#p8e7ced608b)" d="M 117.611589 143.02 
L 117.611589 128.317778 
L 133.113158 128.317778 
L 133.113158 143.02 
L 117.611589 143.02 
" style="fill:#0b0000;"/>
    <path clip-path="url(#p8e7ced608b)" d="M 117.611589 128.317778 
L 117.611589 113.615556 
L 133.113158 113.615556 
L 133.113158 128.317778 
L 117.611589 128.317778 
" style="fill:#6c0000;"/>
    <path clip-path="url(#p8e7ced608b)" d="M 117.611589 113.615556 
L 117.611589 98.913333 
L 133.113158 98.913333 
L 133.113158 113.615556 
L 117.611589 113.615556 
" style="fill:#ba0000;"/>
    <path clip-path="url(#p8e7ced608b)" d="M 117.611589 98.913333 
L 117.611589 84.211111 
L 133.113158 84.211111 
L 133.113158 98.913333 
L 117.611589 98.913333 
" style="fill:#f70000;"/>
    <path clip-path="url(#p8e7ced608b)" d="M 117.611589 84.211111 
L 117.611589 69.508889 
L 133.113158 69.508889 
L 133.113158 84.211111 
L 117.611589 84.211111 
" style="fill:#ff5c00;"/>
    <path clip-path="url(#p8e7ced608b)" d="M 117.611589 69.508889 
L 117.611589 54.806667 
L 133.113158 54.806667 
L 133.113158 69.508889 
L 117.611589 69.508889 
" style="fill:#ff9500;"/>
    <path clip-path="url(#p8e7ced608b)" d="M 117.611589 54.806667 
L 117.611589 40.104444 
L 133.113158 40.104444 
L 133.113158 54.806667 
L 117.611589 54.806667 
" style="fill:#fff900;"/>
    <path clip-path="url(#p8e7ced608b)" d="M 117.611589 40.104444 
L 117.611589 25.402222 
L 133.113158 25.402222 
L 133.113158 40.104444 
L 117.611589 40.104444 
" style="fill:#ffff4e;"/>
    <path clip-path="url(#p8e7ced608b)" d="M 117.611589 25.402222 
L 117.611589 10.7 
L 133.113158 10.7 
L 133.113158 25.402222 
L 117.611589 25.402222 
" style="fill:#ffff89;"/>
    <path clip-path="url(#p8e7ced608b)" d="M 133.113158 143.02 
L 133.113158 128.317778 
L 148.614727 128.317778 
L 148.614727 143.02 
L 133.113158 143.02 
" style="fill:#0b0000;"/>
    <path clip-path="url(#p8e7ced608b)" d="M 133.113158 128.317778 
L 133.113158 113.615556 
L 148.614727 113.615556 
L 148.614727 128.317778 
L 133.113158 128.317778 
" style="fill:#6c0000;"/>
    <path clip-path="url(#p8e7ced608b)" d="M 133.113158 113.615556 
L 133.113158 98.913333 
L 148.614727 98.913333 
L 148.614727 113.615556 
L 133.113158 113.615556 
" style="fill:#ba0000;"/>
    <path clip-path="url(#p8e7ced608b)" d="M 133.113158 98.913333 
L 133.113158 84.211111 
L 148.614727 84.211111 
L 148.614727 98.913333 
L 133.113158 98.913333 
" style="fill:#ff0a00;"/>
    <path clip-path="url(#p8e7ced608b)" d="M 133.113158 84.211111 
L 133.113158 69.508889 
L 148.614727 69.508889 
L 148.614727 84.211111 
L 133.113158 84.211111 
" style="fill:#ff8300;"/>
    <path clip-path="url(#p8e7ced608b)" d="M 133.113158 69.508889 
L 133.113158 54.806667 
L 148.614727 54.806667 
L 148.614727 69.508889 
L 133.113158 69.508889 
" style="fill:#ffe400;"/>
    <path clip-path="url(#p8e7ced608b)" d="M 133.113158 54.806667 
L 133.113158 40.104444 
L 148.614727 40.104444 
L 148.614727 54.806667 
L 133.113158 54.806667 
" style="fill:#ffff32;"/>
    <path clip-path="url(#p8e7ced608b)" d="M 133.113158 40.104444 
L 133.113158 25.402222 
L 148.614727 25.402222 
L 148.614727 40.104444 
L 133.113158 40.104444 
" style="fill:#ffff32;"/>
    <path clip-path="url(#p8e7ced608b)" d="M 133.113158 25.402222 
L 133.113158 10.7 
L 148.614727 10.7 
L 148.614727 25.402222 
L 133.113158 25.402222 
" style="fill:#ffffc4;"/>
    <path clip-path="url(#p8e7ced608b)" d="M 148.614727 143.02 
L 148.614727 128.317778 
L 164.116295 128.317778 
L 164.116295 143.02 
L 148.614727 143.02 
" style="fill:#0b0000;"/>
    <path clip-path="url(#p8e7ced608b)" d="M 148.614727 128.317778 
L 148.614727 113.615556 
L 164.116295 113.615556 
L 164.116295 128.317778 
L 148.614727 128.317778 
" style="fill:#6c0000;"/>
    <path clip-path="url(#p8e7ced608b)" d="M 148.614727 113.615556 
L 148.614727 98.913333 
L 164.116295 98.913333 
L 164.116295 113.615556 
L 148.614727 113.615556 
" style="fill:#a80000;"/>
    <path clip-path="url(#p8e7ced608b)" d="M 148.614727 98.913333 
L 148.614727 84.211111 
L 164.116295 84.211111 
L 164.116295 98.913333 
L 148.614727 98.913333 
" style="fill:#ff0a00;"/>
    <path clip-path="url(#p8e7ced608b)" d="M 148.614727 84.211111 
L 148.614727 69.508889 
L 164.116295 69.508889 
L 164.116295 84.211111 
L 148.614727 84.211111 
" style="fill:#ff3200;"/>
    <path clip-path="url(#p8e7ced608b)" d="M 148.614727 69.508889 
L 148.614727 54.806667 
L 164.116295 54.806667 
L 164.116295 69.508889 
L 148.614727 69.508889 
" style="fill:#ff6e00;"/>
    <path clip-path="url(#p8e7ced608b)" d="M 148.614727 54.806667 
L 148.614727 40.104444 
L 164.116295 40.104444 
L 164.116295 54.806667 
L 148.614727 54.806667 
" style="fill:#ffe400;"/>
    <path clip-path="url(#p8e7ced608b)" d="M 148.614727 40.104444 
L 148.614727 25.402222 
L 164.116295 25.402222 
L 164.116295 40.104444 
L 148.614727 40.104444 
" style="fill:#ffffa8;"/>
    <path clip-path="url(#p8e7ced608b)" d="M 148.614727 25.402222 
L 148.614727 10.7 
L 164.116295 10.7 
L 164.116295 25.402222 
L 148.614727 25.402222 
" style="fill:#ffffff;"/>
    <path clip-path="url(#p8e7ced608b)" d="M 164.116295 143.02 
L 164.116295 128.317778 
L 179.617864 128.317778 
L 179.617864 143.02 
L 164.116295 143.02 
" style="fill:#320000;"/>
    <path clip-path="url(#p8e7ced608b)" d="M 164.116295 128.317778 
L 164.116295 113.615556 
L 179.617864 113.615556 
L 179.617864 128.317778 
L 164.116295 128.317778 
" style="fill:#6c0000;"/>
    <path clip-path="url(#p8e7ced608b)" d="M 164.116295 113.615556 
L 164.116295 98.913333 
L 179.617864 98.913333 
L 179.617864 113.615556 
L 164.116295 113.615556 
" style="fill:#ba0000;"/>
    <path clip-path="url(#p8e7ced608b)" d="M 164.116295 98.913333 
L 164.116295 84.211111 
L 179.617864 84.211111 
L 179.617864 98.913333 
L 164.116295 98.913333 
" style="fill:#f70000;"/>
    <path clip-path="url(#p8e7ced608b)" d="M 164.116295 84.211111 
L 164.116295 69.508889 
L 179.617864 69.508889 
L 179.617864 84.211111 
L 164.116295 84.211111 
" style="fill:#ffbd00;"/>
    <path clip-path="url(#p8e7ced608b)" d="M 164.116295 69.508889 
L 164.116295 54.806667 
L 179.617864 54.806667 
L 179.617864 69.508889 
L 164.116295 69.508889 
" style="fill:#ff9500;"/>
    <path clip-path="url(#p8e7ced608b)" d="M 164.116295 54.806667 
L 164.116295 40.104444 
L 179.617864 40.104444 
L 179.617864 54.806667 
L 164.116295 54.806667 
" style="fill:#ffff4e;"/>
    <path clip-path="url(#p8e7ced608b)" d="M 164.116295 40.104444 
L 164.116295 25.402222 
L 179.617864 25.402222 
L 179.617864 40.104444 
L 164.116295 40.104444 
" style="fill:#ffffa8;"/>
    <path clip-path="url(#p8e7ced608b)" d="M 164.116295 25.402222 
L 164.116295 10.7 
L 179.617864 10.7 
L 179.617864 25.402222 
L 164.116295 25.402222 
" style="fill:#ffffe3;"/>
   </g>
   <g id="matplotlib.axis_1">
    <g id="xtick_1">
     <g id="line2d_1">
      <defs>
       <path d="M 0 0 
L 0 3.5 
" id="m54d900c906" style="stroke:#000000;stroke-width:0.8;"/>
      </defs>
      <g>
       <use style="stroke:#000000;stroke-width:0.8;" x="25.022783" xlink:href="#m54d900c906" y="143.02"/>
      </g>
     </g>
     <g id="text_1">
      <!-- 1x -->
      <defs>
       <path d="M 12.40625 8.296875 
L 28.515625 8.296875 
L 28.515625 63.921875 
L 10.984375 60.40625 
L 10.984375 69.390625 
L 28.421875 72.90625 
L 38.28125 72.90625 
L 38.28125 8.296875 
L 54.390625 8.296875 
L 54.390625 0 
L 12.40625 0 
z
" id="DejaVuSans-31"/>
       <path d="M 54.890625 54.6875 
L 35.109375 28.078125 
L 55.90625 0 
L 45.3125 0 
L 29.390625 21.484375 
L 13.484375 0 
L 2.875 0 
L 24.125 28.609375 
L 4.6875 54.6875 
L 15.28125 54.6875 
L 29.78125 35.203125 
L 44.28125 54.6875 
z
" id="DejaVuSans-78"/>
      </defs>
      <g transform="translate(15.197783 162.1775)scale(0.16 -0.16)">
       <use xlink:href="#DejaVuSans-31"/>
       <use x="63.623047" xlink:href="#DejaVuSans-78"/>
      </g>
     </g>
    </g>
    <g id="xtick_2">
     <g id="line2d_2">
      <g>
       <use style="stroke:#000000;stroke-width:0.8;" x="95.285997" xlink:href="#m54d900c906" y="143.02"/>
      </g>
     </g>
     <g id="text_2">
      <!-- 3x -->
      <defs>
       <path d="M 40.578125 39.3125 
Q 47.65625 37.796875 51.625 33 
Q 55.609375 28.21875 55.609375 21.1875 
Q 55.609375 10.40625 48.1875 4.484375 
Q 40.765625 -1.421875 27.09375 -1.421875 
Q 22.515625 -1.421875 17.65625 -0.515625 
Q 12.796875 0.390625 7.625 2.203125 
L 7.625 11.71875 
Q 11.71875 9.328125 16.59375 8.109375 
Q 21.484375 6.890625 26.8125 6.890625 
Q 36.078125 6.890625 40.9375 10.546875 
Q 45.796875 14.203125 45.796875 21.1875 
Q 45.796875 27.640625 41.28125 31.265625 
Q 36.765625 34.90625 28.71875 34.90625 
L 20.21875 34.90625 
L 20.21875 43.015625 
L 29.109375 43.015625 
Q 36.375 43.015625 40.234375 45.921875 
Q 44.09375 48.828125 44.09375 54.296875 
Q 44.09375 59.90625 40.109375 62.90625 
Q 36.140625 65.921875 28.71875 65.921875 
Q 24.65625 65.921875 20.015625 65.03125 
Q 15.375 64.15625 9.8125 62.3125 
L 9.8125 71.09375 
Q 15.4375 72.65625 20.34375 73.4375 
Q 25.25 74.21875 29.59375 74.21875 
Q 40.828125 74.21875 47.359375 69.109375 
Q 53.90625 64.015625 53.90625 55.328125 
Q 53.90625 49.265625 50.4375 45.09375 
Q 46.96875 40.921875 40.578125 39.3125 
z
" id="DejaVuSans-33"/>
      </defs>
      <g transform="translate(85.460997 162.1775)scale(0.16 -0.16)">
       <use xlink:href="#DejaVuSans-33"/>
       <use x="63.623047" xlink:href="#DejaVuSans-78"/>
      </g>
     </g>
    </g>
    <g id="xtick_3">
     <g id="line2d_3">
      <g>
       <use style="stroke:#000000;stroke-width:0.8;" x="172.287684" xlink:href="#m54d900c906" y="143.02"/>
      </g>
     </g>
     <g id="text_3">
      <!-- 10x -->
      <defs>
       <path d="M 31.78125 66.40625 
Q 24.171875 66.40625 20.328125 58.90625 
Q 16.5 51.421875 16.5 36.375 
Q 16.5 21.390625 20.328125 13.890625 
Q 24.171875 6.390625 31.78125 6.390625 
Q 39.453125 6.390625 43.28125 13.890625 
Q 47.125 21.390625 47.125 36.375 
Q 47.125 51.421875 43.28125 58.90625 
Q 39.453125 66.40625 31.78125 66.40625 
z
M 31.78125 74.21875 
Q 44.046875 74.21875 50.515625 64.515625 
Q 56.984375 54.828125 56.984375 36.375 
Q 56.984375 17.96875 50.515625 8.265625 
Q 44.046875 -1.421875 31.78125 -1.421875 
Q 19.53125 -1.421875 13.0625 8.265625 
Q 6.59375 17.96875 6.59375 36.375 
Q 6.59375 54.828125 13.0625 64.515625 
Q 19.53125 74.21875 31.78125 74.21875 
z
" id="DejaVuSans-30"/>
      </defs>
      <g transform="translate(157.372684 162.1775)scale(0.16 -0.16)">
       <use xlink:href="#DejaVuSans-31"/>
       <use x="63.623047" xlink:href="#DejaVuSans-30"/>
       <use x="127.246094" xlink:href="#DejaVuSans-78"/>
      </g>
     </g>
    </g>
    <g id="xtick_4">
     <g id="line2d_4">
      <defs>
       <path d="M 0 0 
L 0 2 
" id="mf9ae9fd602" style="stroke:#000000;stroke-width:0.6;"/>
      </defs>
      <g>
       <use style="stroke:#000000;stroke-width:0.6;" x="69.353935" xlink:href="#mf9ae9fd602" y="143.02"/>
      </g>
     </g>
    </g>
    <g id="xtick_5">
     <g id="line2d_5">
      <g>
       <use style="stroke:#000000;stroke-width:0.6;" x="95.285997" xlink:href="#mf9ae9fd602" y="143.02"/>
      </g>
     </g>
    </g>
    <g id="xtick_6">
     <g id="line2d_6">
      <g>
       <use style="stroke:#000000;stroke-width:0.6;" x="113.685088" xlink:href="#mf9ae9fd602" y="143.02"/>
      </g>
     </g>
    </g>
    <g id="xtick_7">
     <g id="line2d_7">
      <g>
       <use style="stroke:#000000;stroke-width:0.6;" x="127.956532" xlink:href="#mf9ae9fd602" y="143.02"/>
      </g>
     </g>
    </g>
    <g id="xtick_8">
     <g id="line2d_8">
      <g>
       <use style="stroke:#000000;stroke-width:0.6;" x="139.61715" xlink:href="#mf9ae9fd602" y="143.02"/>
      </g>
     </g>
    </g>
    <g id="xtick_9">
     <g id="line2d_9">
      <g>
       <use style="stroke:#000000;stroke-width:0.6;" x="149.476062" xlink:href="#mf9ae9fd602" y="143.02"/>
      </g>
     </g>
    </g>
    <g id="xtick_10">
     <g id="line2d_10">
      <g>
       <use style="stroke:#000000;stroke-width:0.6;" x="158.016241" xlink:href="#mf9ae9fd602" y="143.02"/>
      </g>
     </g>
    </g>
    <g id="xtick_11">
     <g id="line2d_11">
      <g>
       <use style="stroke:#000000;stroke-width:0.6;" x="165.549212" xlink:href="#mf9ae9fd602" y="143.02"/>
      </g>
     </g>
    </g>
   </g>
   <g id="matplotlib.axis_2">
    <g id="ytick_1">
     <g id="line2d_12">
      <defs>
       <path d="M 0 0 
L -3.5 0 
" id="m72bcbd4613" style="stroke:#000000;stroke-width:0.8;"/>
      </defs>
      <g>
       <use style="stroke:#000000;stroke-width:0.8;" x="24.38" xlink:href="#m72bcbd4613" y="135.668889"/>
      </g>
     </g>
     <g id="text_4">
      <!-- 1 -->
      <g transform="translate(7.2 141.747639)scale(0.16 -0.16)">
       <use xlink:href="#DejaVuSans-31"/>
      </g>
     </g>
    </g>
    <g id="ytick_2">
     <g id="line2d_13">
      <g>
       <use style="stroke:#000000;stroke-width:0.8;" x="24.38" xlink:href="#m72bcbd4613" y="106.264444"/>
      </g>
     </g>
     <g id="text_5">
      <!-- 3 -->
      <g transform="translate(7.2 112.343194)scale(0.16 -0.16)">
       <use xlink:href="#DejaVuSans-33"/>
      </g>
     </g>
    </g>
    <g id="ytick_3">
     <g id="line2d_14">
      <g>
       <use style="stroke:#000000;stroke-width:0.8;" x="24.38" xlink:href="#m72bcbd4613" y="76.86"/>
      </g>
     </g>
     <g id="text_6">
      <!-- 5 -->
      <defs>
       <path d="M 10.796875 72.90625 
L 49.515625 72.90625 
L 49.515625 64.59375 
L 19.828125 64.59375 
L 19.828125 46.734375 
Q 21.96875 47.46875 24.109375 47.828125 
Q 26.265625 48.1875 28.421875 48.1875 
Q 40.625 48.1875 47.75 41.5 
Q 54.890625 34.8125 54.890625 23.390625 
Q 54.890625 11.625 47.5625 5.09375 
Q 40.234375 -1.421875 26.90625 -1.421875 
Q 22.3125 -1.421875 17.546875 -0.640625 
Q 12.796875 0.140625 7.71875 1.703125 
L 7.71875 11.625 
Q 12.109375 9.234375 16.796875 8.0625 
Q 21.484375 6.890625 26.703125 6.890625 
Q 35.15625 6.890625 40.078125 11.328125 
Q 45.015625 15.765625 45.015625 23.390625 
Q 45.015625 31 40.078125 35.4375 
Q 35.15625 39.890625 26.703125 39.890625 
Q 22.75 39.890625 18.8125 39.015625 
Q 14.890625 38.140625 10.796875 36.28125 
z
" id="DejaVuSans-35"/>
      </defs>
      <g transform="translate(7.2 82.93875)scale(0.16 -0.16)">
       <use xlink:href="#DejaVuSans-35"/>
      </g>
     </g>
    </g>
    <g id="ytick_4">
     <g id="line2d_15">
      <g>
       <use style="stroke:#000000;stroke-width:0.8;" x="24.38" xlink:href="#m72bcbd4613" y="47.455556"/>
      </g>
     </g>
     <g id="text_7">
      <!-- 7 -->
      <defs>
       <path d="M 8.203125 72.90625 
L 55.078125 72.90625 
L 55.078125 68.703125 
L 28.609375 0 
L 18.3125 0 
L 43.21875 64.59375 
L 8.203125 64.59375 
z
" id="DejaVuSans-37"/>
      </defs>
      <g transform="translate(7.2 53.534306)scale(0.16 -0.16)">
       <use xlink:href="#DejaVuSans-37"/>
      </g>
     </g>
    </g>
    <g id="ytick_5">
     <g id="line2d_16">
      <g>
       <use style="stroke:#000000;stroke-width:0.8;" x="24.38" xlink:href="#m72bcbd4613" y="18.051111"/>
      </g>
     </g>
     <g id="text_8">
      <!-- 9 -->
      <defs>
       <path d="M 10.984375 1.515625 
L 10.984375 10.5 
Q 14.703125 8.734375 18.5 7.8125 
Q 22.3125 6.890625 25.984375 6.890625 
Q 35.75 6.890625 40.890625 13.453125 
Q 46.046875 20.015625 46.78125 33.40625 
Q 43.953125 29.203125 39.59375 26.953125 
Q 35.25 24.703125 29.984375 24.703125 
Q 19.046875 24.703125 12.671875 31.3125 
Q 6.296875 37.9375 6.296875 49.421875 
Q 6.296875 60.640625 12.9375 67.421875 
Q 19.578125 74.21875 30.609375 74.21875 
Q 43.265625 74.21875 49.921875 64.515625 
Q 56.59375 54.828125 56.59375 36.375 
Q 56.59375 19.140625 48.40625 8.859375 
Q 40.234375 -1.421875 26.421875 -1.421875 
Q 22.703125 -1.421875 18.890625 -0.6875 
Q 15.09375 0.046875 10.984375 1.515625 
z
M 30.609375 32.421875 
Q 37.25 32.421875 41.125 36.953125 
Q 45.015625 41.5 45.015625 49.421875 
Q 45.015625 57.28125 41.125 61.84375 
Q 37.25 66.40625 30.609375 66.40625 
Q 23.96875 66.40625 20.09375 61.84375 
Q 16.21875 57.28125 16.21875 49.421875 
Q 16.21875 41.5 20.09375 36.953125 
Q 23.96875 32.421875 30.609375 32.421875 
z
" id="DejaVuSans-39"/>
      </defs>
      <g transform="translate(7.2 24.129861)scale(0.16 -0.16)">
       <use xlink:href="#DejaVuSans-39"/>
      </g>
     </g>
    </g>
   </g>
   <g id="patch_3">
    <path d="M 24.38 143.02 
L 24.38 10.7 
" style="fill:none;stroke:#000000;stroke-linecap:square;stroke-linejoin:miter;stroke-width:0.8;"/>
   </g>
   <g id="patch_4">
    <path d="M 175.408124 143.02 
L 175.408124 10.7 
" style="fill:none;stroke:#000000;stroke-linecap:square;stroke-linejoin:miter;stroke-width:0.8;"/>
   </g>
   <g id="patch_5">
    <path d="M 24.38 143.02 
L 175.408124 143.02 
" style="fill:none;stroke:#000000;stroke-linecap:square;stroke-linejoin:miter;stroke-width:0.8;"/>
   </g>
   <g id="patch_6">
    <path d="M 24.38 10.7 
L 175.408124 10.7 
" style="fill:none;stroke:#000000;stroke-linecap:square;stroke-linejoin:miter;stroke-width:0.8;"/>
   </g>
  </g>
 </g>
 <defs>
  <clipPath id="p8e7ced608b">
   <rect height="132.32" width="151.028124" x="24.38" y="10.7"/>
  </clipPath>
 </defs>
</svg>
