<?xml version="1.0" encoding="utf-8" standalone="no"?>
<!DOCTYPE svg PUBLIC "-//W3C//DTD SVG 1.1//EN"
  "http://www.w3.org/Graphics/SVG/1.1/DTD/svg11.dtd">
<!-- Created with matplotlib (http://matplotlib.org/) -->
<svg height="187pt" version="1.1" viewBox="0 0 187 187" width="187pt" xmlns="http://www.w3.org/2000/svg" xmlns:xlink="http://www.w3.org/1999/xlink">
 <defs>
  <style type="text/css">
*{stroke-linecap:butt;stroke-linejoin:round;}
  </style>
 </defs>
 <g id="figure_1">
  <g id="patch_1">
   <path d="M 0 187 
L 187 187 
L 187 -0 
L 0 -0 
z
" style="fill:#ffffff;"/>
  </g>
  <g id="axes_1">
   <g id="patch_2">
    <path d="M 3.5 183.5 
L 183.5 183.5 
L 183.5 3.5 
L 3.5 3.5 
z
" style="fill:#ffffff;"/>
   </g>
   <g id="matplotlib.axis_1"/>
   <g id="matplotlib.axis_2"/>
   <g id="line2d_1">
    <path clip-path="url(#paa9c8ffca3)" d="M 7.1 181.680901 
L 10.7 165.195249 
L 14.3 143.649827 
L 17.9 134.247826 
L 21.5 112.279412 
L 25.1 121.675817 
L 28.7 90.083235 
L 32.3 53.248767 
L 35.9 33.022876 
L 39.5 15.251563 
L 43.1 5.651138 
L 46.7 11.678039 
L 50.3 7.22844 
L 53.9 5.824786 
L 57.5 5.560058 
L 61.1 5.292613 
L 64.7 5.415509 
L 68.3 5.697887 
L 71.9 5.264706 
L 75.5 5.264706 
L 79.1 5.264706 
" style="fill:none;stroke:#482374;stroke-linecap:square;stroke-width:2;"/>
    <defs>
     <path d="M 0 3 
C 0.795609 3 1.55874 2.683901 2.12132 2.12132 
C 2.683901 1.55874 3 0.795609 3 0 
C 3 -0.795609 2.683901 -1.55874 2.12132 -2.12132 
C 1.55874 -2.683901 0.795609 -3 0 -3 
C -0.795609 -3 -1.55874 -2.683901 -2.12132 -2.12132 
C -2.683901 -1.55874 -3 -0.795609 -3 0 
C -3 0.795609 -2.683901 1.55874 -2.12132 2.12132 
C -1.55874 2.683901 -0.795609 3 0 3 
z
" id="m1395ce70d2" style="stroke:#482374;"/>
    </defs>
    <g clip-path="url(#paa9c8ffca3)">
     <use style="fill:#482374;stroke:#482374;" x="7.1" xlink:href="#m1395ce70d2" y="181.680901"/>
     <use style="fill:#482374;stroke:#482374;" x="10.7" xlink:href="#m1395ce70d2" y="165.195249"/>
     <use style="fill:#482374;stroke:#482374;" x="14.3" xlink:href="#m1395ce70d2" y="143.649827"/>
     <use style="fill:#482374;stroke:#482374;" x="17.9" xlink:href="#m1395ce70d2" y="134.247826"/>
     <use style="fill:#482374;stroke:#482374;" x="21.5" xlink:href="#m1395ce70d2" y="112.279412"/>
     <use style="fill:#482374;stroke:#482374;" x="25.1" xlink:href="#m1395ce70d2" y="121.675817"/>
     <use style="fill:#482374;stroke:#482374;" x="28.7" xlink:href="#m1395ce70d2" y="90.083235"/>
     <use style="fill:#482374;stroke:#482374;" x="32.3" xlink:href="#m1395ce70d2" y="53.248767"/>
     <use style="fill:#482374;stroke:#482374;" x="35.9" xlink:href="#m1395ce70d2" y="33.022876"/>
     <use style="fill:#482374;stroke:#482374;" x="39.5" xlink:href="#m1395ce70d2" y="15.251563"/>
     <use style="fill:#482374;stroke:#482374;" x="43.1" xlink:href="#m1395ce70d2" y="5.651138"/>
     <use style="fill:#482374;stroke:#482374;" x="46.7" xlink:href="#m1395ce70d2" y="11.678039"/>
     <use style="fill:#482374;stroke:#482374;" x="50.3" xlink:href="#m1395ce70d2" y="7.22844"/>
     <use style="fill:#482374;stroke:#482374;" x="53.9" xlink:href="#m1395ce70d2" y="5.824786"/>
     <use style="fill:#482374;stroke:#482374;" x="57.5" xlink:href="#m1395ce70d2" y="5.560058"/>
     <use style="fill:#482374;stroke:#482374;" x="61.1" xlink:href="#m1395ce70d2" y="5.292613"/>
     <use style="fill:#482374;stroke:#482374;" x="64.7" xlink:href="#m1395ce70d2" y="5.415509"/>
     <use style="fill:#482374;stroke:#482374;" x="68.3" xlink:href="#m1395ce70d2" y="5.697887"/>
     <use style="fill:#482374;stroke:#482374;" x="71.9" xlink:href="#m1395ce70d2" y="5.264706"/>
     <use style="fill:#482374;stroke:#482374;" x="75.5" xlink:href="#m1395ce70d2" y="5.264706"/>
     <use style="fill:#482374;stroke:#482374;" x="79.1" xlink:href="#m1395ce70d2" y="5.264706"/>
    </g>
   </g>
   <g id="patch_3">
    <path d="M 3.5 183.5 
L 3.5 3.5 
" style="fill:none;stroke:#000000;stroke-linecap:square;stroke-linejoin:miter;stroke-width:0.8;"/>
   </g>
   <g id="patch_4">
    <path d="M 183.5 183.5 
L 183.5 3.5 
" style="fill:none;stroke:#000000;stroke-linecap:square;stroke-linejoin:miter;stroke-width:0.8;"/>
   </g>
   <g id="patch_5">
    <path d="M 3.5 183.5 
L 183.5 183.5 
" style="fill:none;stroke:#000000;stroke-linecap:square;stroke-linejoin:miter;stroke-width:0.8;"/>
   </g>
   <g id="patch_6">
    <path d="M 3.5 3.5 
L 183.5 3.5 
" style="fill:none;stroke:#000000;stroke-linecap:square;stroke-linejoin:miter;stroke-width:0.8;"/>
   </g>
  </g>
 </g>
 <defs>
  <clipPath id="paa9c8ffca3">
   <rect height="180" width="180" x="3.5" y="3.5"/>
  </clipPath>
 </defs>
</svg>
