<?xml version="1.0" encoding="utf-8" standalone="no"?>
<!DOCTYPE svg PUBLIC "-//W3C//DTD SVG 1.1//EN"
  "http://www.w3.org/Graphics/SVG/1.1/DTD/svg11.dtd">
<!-- Created with matplotlib (http://matplotlib.org/) -->
<svg height="187pt" version="1.1" viewBox="0 0 187 187" width="187pt" xmlns="http://www.w3.org/2000/svg" xmlns:xlink="http://www.w3.org/1999/xlink">
 <defs>
  <style type="text/css">
*{stroke-linecap:butt;stroke-linejoin:round;}
  </style>
 </defs>
 <g id="figure_1">
  <g id="patch_1">
   <path d="M 0 187 
L 187 187 
L 187 -0 
L 0 -0 
z
" style="fill:#ffffff;"/>
  </g>
  <g id="axes_1">
   <g id="patch_2">
    <path d="M 3.5 183.5 
L 183.5 183.5 
L 183.5 3.5 
L 3.5 3.5 
z
" style="fill:#ffffff;"/>
   </g>
   <g id="matplotlib.axis_1"/>
   <g id="matplotlib.axis_2"/>
   <g id="line2d_1">
    <path clip-path="url(#p19e6b80235)" d="M 7.1 181.248457 
L 10.7 181.735294 
L 14.3 175.885924 
L 17.9 169.889706 
L 21.5 157.1375 
L 25.1 151.970221 
L 28.7 156.328281 
L 32.3 141.091912 
L 35.9 136.643137 
L 39.5 147.488971 
L 43.1 133.336765 
L 46.7 88.563235 
L 50.3 88.120294 
L 53.9 96.337647 
L 57.5 84.349599 
L 61.1 34.873824 
L 64.7 57.008088 
L 68.3 47.498529 
L 71.9 46.961949 
L 75.5 46.401261 
L 79.1 42.580147 
L 82.7 35.857537 
L 86.3 73.553529 
L 89.9 39.545321 
L 93.5 15.334559 
L 97.1 126.148845 
L 100.7 62.910784 
L 104.3 91.154596 
L 107.9 105.888511 
L 111.5 61.16414 
L 115.1 114.761898 
L 118.7 132.505147 
L 122.3 141.817647 
L 125.9 122.861397 
L 129.5 140.357668 
L 133.1 152.747479 
L 136.7 119.209191 
L 140.3 148.965686 
L 143.9 161.754136 
L 147.5 169.446324 
L 151.1 174.785221 
L 154.7 175.130672 
L 158.3 164.748424 
L 161.9 164.148676 
L 165.5 115.793831 
L 169.1 102.431488 
L 172.7 24.939728 
L 176.3 9.859041 
L 179.9 30.177961 
L 183.5 17.880331 
" style="fill:none;stroke:#375b8d;stroke-linecap:square;stroke-width:2;"/>
    <defs>
     <path d="M 0 3 
C 0.795609 3 1.55874 2.683901 2.12132 2.12132 
C 2.683901 1.55874 3 0.795609 3 0 
C 3 -0.795609 2.683901 -1.55874 2.12132 -2.12132 
C 1.55874 -2.683901 0.795609 -3 0 -3 
C -0.795609 -3 -1.55874 -2.683901 -2.12132 -2.12132 
C -2.683901 -1.55874 -3 -0.795609 -3 0 
C -3 0.795609 -2.683901 1.55874 -2.12132 2.12132 
C -1.55874 2.683901 -0.795609 3 0 3 
z
" id="m089df60e62" style="stroke:#375b8d;"/>
    </defs>
    <g clip-path="url(#p19e6b80235)">
     <use style="fill:#375b8d;stroke:#375b8d;" x="7.1" xlink:href="#m089df60e62" y="181.248457"/>
     <use style="fill:#375b8d;stroke:#375b8d;" x="10.7" xlink:href="#m089df60e62" y="181.735294"/>
     <use style="fill:#375b8d;stroke:#375b8d;" x="14.3" xlink:href="#m089df60e62" y="175.885924"/>
     <use style="fill:#375b8d;stroke:#375b8d;" x="17.9" xlink:href="#m089df60e62" y="169.889706"/>
     <use style="fill:#375b8d;stroke:#375b8d;" x="21.5" xlink:href="#m089df60e62" y="157.1375"/>
     <use style="fill:#375b8d;stroke:#375b8d;" x="25.1" xlink:href="#m089df60e62" y="151.970221"/>
     <use style="fill:#375b8d;stroke:#375b8d;" x="28.7" xlink:href="#m089df60e62" y="156.328281"/>
     <use style="fill:#375b8d;stroke:#375b8d;" x="32.3" xlink:href="#m089df60e62" y="141.091912"/>
     <use style="fill:#375b8d;stroke:#375b8d;" x="35.9" xlink:href="#m089df60e62" y="136.643137"/>
     <use style="fill:#375b8d;stroke:#375b8d;" x="39.5" xlink:href="#m089df60e62" y="147.488971"/>
     <use style="fill:#375b8d;stroke:#375b8d;" x="43.1" xlink:href="#m089df60e62" y="133.336765"/>
     <use style="fill:#375b8d;stroke:#375b8d;" x="46.7" xlink:href="#m089df60e62" y="88.563235"/>
     <use style="fill:#375b8d;stroke:#375b8d;" x="50.3" xlink:href="#m089df60e62" y="88.120294"/>
     <use style="fill:#375b8d;stroke:#375b8d;" x="53.9" xlink:href="#m089df60e62" y="96.337647"/>
     <use style="fill:#375b8d;stroke:#375b8d;" x="57.5" xlink:href="#m089df60e62" y="84.349599"/>
     <use style="fill:#375b8d;stroke:#375b8d;" x="61.1" xlink:href="#m089df60e62" y="34.873824"/>
     <use style="fill:#375b8d;stroke:#375b8d;" x="64.7" xlink:href="#m089df60e62" y="57.008088"/>
     <use style="fill:#375b8d;stroke:#375b8d;" x="68.3" xlink:href="#m089df60e62" y="47.498529"/>
     <use style="fill:#375b8d;stroke:#375b8d;" x="71.9" xlink:href="#m089df60e62" y="46.961949"/>
     <use style="fill:#375b8d;stroke:#375b8d;" x="75.5" xlink:href="#m089df60e62" y="46.401261"/>
     <use style="fill:#375b8d;stroke:#375b8d;" x="79.1" xlink:href="#m089df60e62" y="42.580147"/>
     <use style="fill:#375b8d;stroke:#375b8d;" x="82.7" xlink:href="#m089df60e62" y="35.857537"/>
     <use style="fill:#375b8d;stroke:#375b8d;" x="86.3" xlink:href="#m089df60e62" y="73.553529"/>
     <use style="fill:#375b8d;stroke:#375b8d;" x="89.9" xlink:href="#m089df60e62" y="39.545321"/>
     <use style="fill:#375b8d;stroke:#375b8d;" x="93.5" xlink:href="#m089df60e62" y="15.334559"/>
     <use style="fill:#375b8d;stroke:#375b8d;" x="97.1" xlink:href="#m089df60e62" y="126.148845"/>
     <use style="fill:#375b8d;stroke:#375b8d;" x="100.7" xlink:href="#m089df60e62" y="62.910784"/>
     <use style="fill:#375b8d;stroke:#375b8d;" x="104.3" xlink:href="#m089df60e62" y="91.154596"/>
     <use style="fill:#375b8d;stroke:#375b8d;" x="107.9" xlink:href="#m089df60e62" y="105.888511"/>
     <use style="fill:#375b8d;stroke:#375b8d;" x="111.5" xlink:href="#m089df60e62" y="61.16414"/>
     <use style="fill:#375b8d;stroke:#375b8d;" x="115.1" xlink:href="#m089df60e62" y="114.761898"/>
     <use style="fill:#375b8d;stroke:#375b8d;" x="118.7" xlink:href="#m089df60e62" y="132.505147"/>
     <use style="fill:#375b8d;stroke:#375b8d;" x="122.3" xlink:href="#m089df60e62" y="141.817647"/>
     <use style="fill:#375b8d;stroke:#375b8d;" x="125.9" xlink:href="#m089df60e62" y="122.861397"/>
     <use style="fill:#375b8d;stroke:#375b8d;" x="129.5" xlink:href="#m089df60e62" y="140.357668"/>
     <use style="fill:#375b8d;stroke:#375b8d;" x="133.1" xlink:href="#m089df60e62" y="152.747479"/>
     <use style="fill:#375b8d;stroke:#375b8d;" x="136.7" xlink:href="#m089df60e62" y="119.209191"/>
     <use style="fill:#375b8d;stroke:#375b8d;" x="140.3" xlink:href="#m089df60e62" y="148.965686"/>
     <use style="fill:#375b8d;stroke:#375b8d;" x="143.9" xlink:href="#m089df60e62" y="161.754136"/>
     <use style="fill:#375b8d;stroke:#375b8d;" x="147.5" xlink:href="#m089df60e62" y="169.446324"/>
     <use style="fill:#375b8d;stroke:#375b8d;" x="151.1" xlink:href="#m089df60e62" y="174.785221"/>
     <use style="fill:#375b8d;stroke:#375b8d;" x="154.7" xlink:href="#m089df60e62" y="175.130672"/>
     <use style="fill:#375b8d;stroke:#375b8d;" x="158.3" xlink:href="#m089df60e62" y="164.748424"/>
     <use style="fill:#375b8d;stroke:#375b8d;" x="161.9" xlink:href="#m089df60e62" y="164.148676"/>
     <use style="fill:#375b8d;stroke:#375b8d;" x="165.5" xlink:href="#m089df60e62" y="115.793831"/>
     <use style="fill:#375b8d;stroke:#375b8d;" x="169.1" xlink:href="#m089df60e62" y="102.431488"/>
     <use style="fill:#375b8d;stroke:#375b8d;" x="172.7" xlink:href="#m089df60e62" y="24.939728"/>
     <use style="fill:#375b8d;stroke:#375b8d;" x="176.3" xlink:href="#m089df60e62" y="9.859041"/>
     <use style="fill:#375b8d;stroke:#375b8d;" x="179.9" xlink:href="#m089df60e62" y="30.177961"/>
     <use style="fill:#375b8d;stroke:#375b8d;" x="183.5" xlink:href="#m089df60e62" y="17.880331"/>
    </g>
   </g>
   <g id="patch_3">
    <path d="M 3.5 183.5 
L 3.5 3.5 
" style="fill:none;stroke:#000000;stroke-linecap:square;stroke-linejoin:miter;stroke-width:0.8;"/>
   </g>
   <g id="patch_4">
    <path d="M 183.5 183.5 
L 183.5 3.5 
" style="fill:none;stroke:#000000;stroke-linecap:square;stroke-linejoin:miter;stroke-width:0.8;"/>
   </g>
   <g id="patch_5">
    <path d="M 3.5 183.5 
L 183.5 183.5 
" style="fill:none;stroke:#000000;stroke-linecap:square;stroke-linejoin:miter;stroke-width:0.8;"/>
   </g>
   <g id="patch_6">
    <path d="M 3.5 3.5 
L 183.5 3.5 
" style="fill:none;stroke:#000000;stroke-linecap:square;stroke-linejoin:miter;stroke-width:0.8;"/>
   </g>
  </g>
 </g>
 <defs>
  <clipPath id="p19e6b80235">
   <rect height="180" width="180" x="3.5" y="3.5"/>
  </clipPath>
 </defs>
</svg>
