<?xml version="1.0" encoding="utf-8" standalone="no"?>
<!DOCTYPE svg PUBLIC "-//W3C//DTD SVG 1.1//EN"
  "http://www.w3.org/Graphics/SVG/1.1/DTD/svg11.dtd">
<!-- Created with matplotlib (http://matplotlib.org/) -->
<svg height="171pt" version="1.1" viewBox="0 0 244 171" width="244pt" xmlns="http://www.w3.org/2000/svg" xmlns:xlink="http://www.w3.org/1999/xlink">
 <defs>
  <style type="text/css">
*{stroke-linecap:butt;stroke-linejoin:round;}
  </style>
 </defs>
 <g id="figure_1">
  <g id="patch_1">
   <path d="M 0 171.41082 
L 244.57 171.41082 
L 244.57 0 
L 0 0 
z
" style="fill:#ffffff;"/>
  </g>
  <g id="axes_1">
   <g id="patch_2">
    <path d="M 44.74 141.72582 
L 227.19 141.72582 
L 227.19 12.006997 
L 44.74 12.006997 
z
" style="fill:#ffffff;"/>
   </g>
   <g id="matplotlib.axis_1">
    <g id="xtick_1">
     <g id="line2d_1">
      <defs>
       <path d="M 0 0 
L 0 3.5 
" id="m3a1f6d1d1d" style="stroke:#000000;stroke-width:0.8;"/>
      </defs>
      <g>
       <use style="stroke:#000000;stroke-width:0.8;" x="44.74" xlink:href="#m3a1f6d1d1d" y="141.72582"/>
      </g>
     </g>
     <g id="text_1">
      <!-- 0 -->
      <defs>
       <path d="M 31.78125 66.40625 
Q 24.171875 66.40625 20.328125 58.90625 
Q 16.5 51.421875 16.5 36.375 
Q 16.5 21.390625 20.328125 13.890625 
Q 24.171875 6.390625 31.78125 6.390625 
Q 39.453125 6.390625 43.28125 13.890625 
Q 47.125 21.390625 47.125 36.375 
Q 47.125 51.421875 43.28125 58.90625 
Q 39.453125 66.40625 31.78125 66.40625 
z
M 31.78125 74.21875 
Q 44.046875 74.21875 50.515625 64.515625 
Q 56.984375 54.828125 56.984375 36.375 
Q 56.984375 17.96875 50.515625 8.265625 
Q 44.046875 -1.421875 31.78125 -1.421875 
Q 19.53125 -1.421875 13.0625 8.265625 
Q 6.59375 17.96875 6.59375 36.375 
Q 6.59375 54.828125 13.0625 64.515625 
Q 19.53125 74.21875 31.78125 74.21875 
z
" id="DejaVuSans-30"/>
      </defs>
      <g transform="translate(39.65 160.88332)scale(0.16 -0.16)">
       <use xlink:href="#DejaVuSans-30"/>
      </g>
     </g>
    </g>
    <g id="xtick_2">
     <g id="line2d_2">
      <g>
       <use style="stroke:#000000;stroke-width:0.8;" x="81.23" xlink:href="#m3a1f6d1d1d" y="141.72582"/>
      </g>
     </g>
     <g id="text_2">
      <!-- 10 -->
      <defs>
       <path d="M 12.40625 8.296875 
L 28.515625 8.296875 
L 28.515625 63.921875 
L 10.984375 60.40625 
L 10.984375 69.390625 
L 28.421875 72.90625 
L 38.28125 72.90625 
L 38.28125 8.296875 
L 54.390625 8.296875 
L 54.390625 0 
L 12.40625 0 
z
" id="DejaVuSans-31"/>
      </defs>
      <g transform="translate(71.05 160.88332)scale(0.16 -0.16)">
       <use xlink:href="#DejaVuSans-31"/>
       <use x="63.623047" xlink:href="#DejaVuSans-30"/>
      </g>
     </g>
    </g>
    <g id="xtick_3">
     <g id="line2d_3">
      <g>
       <use style="stroke:#000000;stroke-width:0.8;" x="117.72" xlink:href="#m3a1f6d1d1d" y="141.72582"/>
      </g>
     </g>
     <g id="text_3">
      <!-- 20 -->
      <defs>
       <path d="M 19.1875 8.296875 
L 53.609375 8.296875 
L 53.609375 0 
L 7.328125 0 
L 7.328125 8.296875 
Q 12.9375 14.109375 22.625 23.890625 
Q 32.328125 33.6875 34.8125 36.53125 
Q 39.546875 41.84375 41.421875 45.53125 
Q 43.3125 49.21875 43.3125 52.78125 
Q 43.3125 58.59375 39.234375 62.25 
Q 35.15625 65.921875 28.609375 65.921875 
Q 23.96875 65.921875 18.8125 64.3125 
Q 13.671875 62.703125 7.8125 59.421875 
L 7.8125 69.390625 
Q 13.765625 71.78125 18.9375 73 
Q 24.125 74.21875 28.421875 74.21875 
Q 39.75 74.21875 46.484375 68.546875 
Q 53.21875 62.890625 53.21875 53.421875 
Q 53.21875 48.921875 51.53125 44.890625 
Q 49.859375 40.875 45.40625 35.40625 
Q 44.1875 33.984375 37.640625 27.21875 
Q 31.109375 20.453125 19.1875 8.296875 
z
" id="DejaVuSans-32"/>
      </defs>
      <g transform="translate(107.54 160.88332)scale(0.16 -0.16)">
       <use xlink:href="#DejaVuSans-32"/>
       <use x="63.623047" xlink:href="#DejaVuSans-30"/>
      </g>
     </g>
    </g>
    <g id="xtick_4">
     <g id="line2d_4">
      <g>
       <use style="stroke:#000000;stroke-width:0.8;" x="154.21" xlink:href="#m3a1f6d1d1d" y="141.72582"/>
      </g>
     </g>
     <g id="text_4">
      <!-- 30 -->
      <defs>
       <path d="M 40.578125 39.3125 
Q 47.65625 37.796875 51.625 33 
Q 55.609375 28.21875 55.609375 21.1875 
Q 55.609375 10.40625 48.1875 4.484375 
Q 40.765625 -1.421875 27.09375 -1.421875 
Q 22.515625 -1.421875 17.65625 -0.515625 
Q 12.796875 0.390625 7.625 2.203125 
L 7.625 11.71875 
Q 11.71875 9.328125 16.59375 8.109375 
Q 21.484375 6.890625 26.8125 6.890625 
Q 36.078125 6.890625 40.9375 10.546875 
Q 45.796875 14.203125 45.796875 21.1875 
Q 45.796875 27.640625 41.28125 31.265625 
Q 36.765625 34.90625 28.71875 34.90625 
L 20.21875 34.90625 
L 20.21875 43.015625 
L 29.109375 43.015625 
Q 36.375 43.015625 40.234375 45.921875 
Q 44.09375 48.828125 44.09375 54.296875 
Q 44.09375 59.90625 40.109375 62.90625 
Q 36.140625 65.921875 28.71875 65.921875 
Q 24.65625 65.921875 20.015625 65.03125 
Q 15.375 64.15625 9.8125 62.3125 
L 9.8125 71.09375 
Q 15.4375 72.65625 20.34375 73.4375 
Q 25.25 74.21875 29.59375 74.21875 
Q 40.828125 74.21875 47.359375 69.109375 
Q 53.90625 64.015625 53.90625 55.328125 
Q 53.90625 49.265625 50.4375 45.09375 
Q 46.96875 40.921875 40.578125 39.3125 
z
" id="DejaVuSans-33"/>
      </defs>
      <g transform="translate(144.03 160.88332)scale(0.16 -0.16)">
       <use xlink:href="#DejaVuSans-33"/>
       <use x="63.623047" xlink:href="#DejaVuSans-30"/>
      </g>
     </g>
    </g>
    <g id="xtick_5">
     <g id="line2d_5">
      <g>
       <use style="stroke:#000000;stroke-width:0.8;" x="190.7" xlink:href="#m3a1f6d1d1d" y="141.72582"/>
      </g>
     </g>
     <g id="text_5">
      <!-- 40 -->
      <defs>
       <path d="M 37.796875 64.3125 
L 12.890625 25.390625 
L 37.796875 25.390625 
z
M 35.203125 72.90625 
L 47.609375 72.90625 
L 47.609375 25.390625 
L 58.015625 25.390625 
L 58.015625 17.1875 
L 47.609375 17.1875 
L 47.609375 0 
L 37.796875 0 
L 37.796875 17.1875 
L 4.890625 17.1875 
L 4.890625 26.703125 
z
" id="DejaVuSans-34"/>
      </defs>
      <g transform="translate(180.52 160.88332)scale(0.16 -0.16)">
       <use xlink:href="#DejaVuSans-34"/>
       <use x="63.623047" xlink:href="#DejaVuSans-30"/>
      </g>
     </g>
    </g>
    <g id="xtick_6">
     <g id="line2d_6">
      <g>
       <use style="stroke:#000000;stroke-width:0.8;" x="227.19" xlink:href="#m3a1f6d1d1d" y="141.72582"/>
      </g>
     </g>
     <g id="text_6">
      <!-- 50 -->
      <defs>
       <path d="M 10.796875 72.90625 
L 49.515625 72.90625 
L 49.515625 64.59375 
L 19.828125 64.59375 
L 19.828125 46.734375 
Q 21.96875 47.46875 24.109375 47.828125 
Q 26.265625 48.1875 28.421875 48.1875 
Q 40.625 48.1875 47.75 41.5 
Q 54.890625 34.8125 54.890625 23.390625 
Q 54.890625 11.625 47.5625 5.09375 
Q 40.234375 -1.421875 26.90625 -1.421875 
Q 22.3125 -1.421875 17.546875 -0.640625 
Q 12.796875 0.140625 7.71875 1.703125 
L 7.71875 11.625 
Q 12.109375 9.234375 16.796875 8.0625 
Q 21.484375 6.890625 26.703125 6.890625 
Q 35.15625 6.890625 40.078125 11.328125 
Q 45.015625 15.765625 45.015625 23.390625 
Q 45.015625 31 40.078125 35.4375 
Q 35.15625 39.890625 26.703125 39.890625 
Q 22.75 39.890625 18.8125 39.015625 
Q 14.890625 38.140625 10.796875 36.28125 
z
" id="DejaVuSans-35"/>
      </defs>
      <g transform="translate(217.01 160.88332)scale(0.16 -0.16)">
       <use xlink:href="#DejaVuSans-35"/>
       <use x="63.623047" xlink:href="#DejaVuSans-30"/>
      </g>
     </g>
    </g>
   </g>
   <g id="matplotlib.axis_2">
    <g id="ytick_1">
     <g id="line2d_7">
      <defs>
       <path d="M 0 0 
L -3.5 0 
" id="md9b0083d13" style="stroke:#000000;stroke-width:0.8;"/>
      </defs>
      <g>
       <use style="stroke:#000000;stroke-width:0.8;" x="44.74" xlink:href="#md9b0083d13" y="140.454067"/>
      </g>
     </g>
     <g id="text_7">
      <!-- 0 -->
      <g transform="translate(27.56 146.532817)scale(0.16 -0.16)">
       <use xlink:href="#DejaVuSans-30"/>
      </g>
     </g>
    </g>
    <g id="ytick_2">
     <g id="line2d_8">
      <g>
       <use style="stroke:#000000;stroke-width:0.8;" x="44.74" xlink:href="#md9b0083d13" y="76.866409"/>
      </g>
     </g>
     <g id="text_8">
      <!-- 50 -->
      <g transform="translate(17.38 82.945159)scale(0.16 -0.16)">
       <use xlink:href="#DejaVuSans-35"/>
       <use x="63.623047" xlink:href="#DejaVuSans-30"/>
      </g>
     </g>
    </g>
    <g id="ytick_3">
     <g id="line2d_9">
      <g>
       <use style="stroke:#000000;stroke-width:0.8;" x="44.74" xlink:href="#md9b0083d13" y="13.27875"/>
      </g>
     </g>
     <g id="text_9">
      <!-- 100 -->
      <g transform="translate(7.2 19.3575)scale(0.16 -0.16)">
       <use xlink:href="#DejaVuSans-31"/>
       <use x="63.623047" xlink:href="#DejaVuSans-30"/>
       <use x="127.246094" xlink:href="#DejaVuSans-30"/>
      </g>
     </g>
    </g>
   </g>
   <g id="line2d_10">
    <path clip-path="url(#pb0791b5fcd)" d="M 48.389 140.264513 
L 52.038 130.884454 
L 55.687 134.785863 
L 59.336 124.065166 
L 62.985 127.824498 
L 66.634 128.920538 
L 70.283 117.649943 
L 73.932 118.386097 
L 77.581 123.066022 
L 81.23 115.077504 
L 84.879 112.080618 
L 88.528 117.369712 
L 92.177 95.56488 
L 95.826 97.508234 
L 99.475 95.503951 
L 103.124 96.172187 
L 106.773 93.229633 
L 110.422 67.922169 
L 114.071 62.878395 
L 117.72 67.170845 
L 121.369 104.410481 
L 125.018 57.027568 
L 128.667 65.628107 
L 132.316 48.06996 
L 135.965 53.478868 
L 139.614 51.294177 
L 143.263 79.893817 
L 146.912 58.203176 
L 150.561 49.039359 
L 154.21 59.94001 
L 157.859 57.966567 
L 161.508 51.888413 
L 165.157 79.812152 
L 168.806 86.30358 
L 172.455 71.867465 
L 176.104 83.400888 
L 179.753 96.990066 
L 183.402 94.653912 
L 187.051 103.288352 
L 190.7 117.716074 
L 194.349 91.494178 
L 197.998 107.356356 
L 201.647 124.491203 
L 205.296 121.663066 
L 208.945 124.238896 
L 212.594 117.804453 
L 216.243 93.944111 
L 219.892 32.797834 
L 223.541 28.557674 
L 227.19 35.260686 
" style="fill:none;stroke:#2c728e;stroke-linecap:square;stroke-width:2;"/>
    <defs>
     <path d="M 0 3 
C 0.795609 3 1.55874 2.683901 2.12132 2.12132 
C 2.683901 1.55874 3 0.795609 3 0 
C 3 -0.795609 2.683901 -1.55874 2.12132 -2.12132 
C 1.55874 -2.683901 0.795609 -3 0 -3 
C -0.795609 -3 -1.55874 -2.683901 -2.12132 -2.12132 
C -2.683901 -1.55874 -3 -0.795609 -3 0 
C -3 0.795609 -2.683901 1.55874 -2.12132 2.12132 
C -1.55874 2.683901 -0.795609 3 0 3 
z
" id="m44bc511403" style="stroke:#2c728e;"/>
    </defs>
    <g clip-path="url(#pb0791b5fcd)">
     <use style="fill:#2c728e;stroke:#2c728e;" x="48.389" xlink:href="#m44bc511403" y="140.264513"/>
     <use style="fill:#2c728e;stroke:#2c728e;" x="52.038" xlink:href="#m44bc511403" y="130.884454"/>
     <use style="fill:#2c728e;stroke:#2c728e;" x="55.687" xlink:href="#m44bc511403" y="134.785863"/>
     <use style="fill:#2c728e;stroke:#2c728e;" x="59.336" xlink:href="#m44bc511403" y="124.065166"/>
     <use style="fill:#2c728e;stroke:#2c728e;" x="62.985" xlink:href="#m44bc511403" y="127.824498"/>
     <use style="fill:#2c728e;stroke:#2c728e;" x="66.634" xlink:href="#m44bc511403" y="128.920538"/>
     <use style="fill:#2c728e;stroke:#2c728e;" x="70.283" xlink:href="#m44bc511403" y="117.649943"/>
     <use style="fill:#2c728e;stroke:#2c728e;" x="73.932" xlink:href="#m44bc511403" y="118.386097"/>
     <use style="fill:#2c728e;stroke:#2c728e;" x="77.581" xlink:href="#m44bc511403" y="123.066022"/>
     <use style="fill:#2c728e;stroke:#2c728e;" x="81.23" xlink:href="#m44bc511403" y="115.077504"/>
     <use style="fill:#2c728e;stroke:#2c728e;" x="84.879" xlink:href="#m44bc511403" y="112.080618"/>
     <use style="fill:#2c728e;stroke:#2c728e;" x="88.528" xlink:href="#m44bc511403" y="117.369712"/>
     <use style="fill:#2c728e;stroke:#2c728e;" x="92.177" xlink:href="#m44bc511403" y="95.56488"/>
     <use style="fill:#2c728e;stroke:#2c728e;" x="95.826" xlink:href="#m44bc511403" y="97.508234"/>
     <use style="fill:#2c728e;stroke:#2c728e;" x="99.475" xlink:href="#m44bc511403" y="95.503951"/>
     <use style="fill:#2c728e;stroke:#2c728e;" x="103.124" xlink:href="#m44bc511403" y="96.172187"/>
     <use style="fill:#2c728e;stroke:#2c728e;" x="106.773" xlink:href="#m44bc511403" y="93.229633"/>
     <use style="fill:#2c728e;stroke:#2c728e;" x="110.422" xlink:href="#m44bc511403" y="67.922169"/>
     <use style="fill:#2c728e;stroke:#2c728e;" x="114.071" xlink:href="#m44bc511403" y="62.878395"/>
     <use style="fill:#2c728e;stroke:#2c728e;" x="117.72" xlink:href="#m44bc511403" y="67.170845"/>
     <use style="fill:#2c728e;stroke:#2c728e;" x="121.369" xlink:href="#m44bc511403" y="104.410481"/>
     <use style="fill:#2c728e;stroke:#2c728e;" x="125.018" xlink:href="#m44bc511403" y="57.027568"/>
     <use style="fill:#2c728e;stroke:#2c728e;" x="128.667" xlink:href="#m44bc511403" y="65.628107"/>
     <use style="fill:#2c728e;stroke:#2c728e;" x="132.316" xlink:href="#m44bc511403" y="48.06996"/>
     <use style="fill:#2c728e;stroke:#2c728e;" x="135.965" xlink:href="#m44bc511403" y="53.478868"/>
     <use style="fill:#2c728e;stroke:#2c728e;" x="139.614" xlink:href="#m44bc511403" y="51.294177"/>
     <use style="fill:#2c728e;stroke:#2c728e;" x="143.263" xlink:href="#m44bc511403" y="79.893817"/>
     <use style="fill:#2c728e;stroke:#2c728e;" x="146.912" xlink:href="#m44bc511403" y="58.203176"/>
     <use style="fill:#2c728e;stroke:#2c728e;" x="150.561" xlink:href="#m44bc511403" y="49.039359"/>
     <use style="fill:#2c728e;stroke:#2c728e;" x="154.21" xlink:href="#m44bc511403" y="59.94001"/>
     <use style="fill:#2c728e;stroke:#2c728e;" x="157.859" xlink:href="#m44bc511403" y="57.966567"/>
     <use style="fill:#2c728e;stroke:#2c728e;" x="161.508" xlink:href="#m44bc511403" y="51.888413"/>
     <use style="fill:#2c728e;stroke:#2c728e;" x="165.157" xlink:href="#m44bc511403" y="79.812152"/>
     <use style="fill:#2c728e;stroke:#2c728e;" x="168.806" xlink:href="#m44bc511403" y="86.30358"/>
     <use style="fill:#2c728e;stroke:#2c728e;" x="172.455" xlink:href="#m44bc511403" y="71.867465"/>
     <use style="fill:#2c728e;stroke:#2c728e;" x="176.104" xlink:href="#m44bc511403" y="83.400888"/>
     <use style="fill:#2c728e;stroke:#2c728e;" x="179.753" xlink:href="#m44bc511403" y="96.990066"/>
     <use style="fill:#2c728e;stroke:#2c728e;" x="183.402" xlink:href="#m44bc511403" y="94.653912"/>
     <use style="fill:#2c728e;stroke:#2c728e;" x="187.051" xlink:href="#m44bc511403" y="103.288352"/>
     <use style="fill:#2c728e;stroke:#2c728e;" x="190.7" xlink:href="#m44bc511403" y="117.716074"/>
     <use style="fill:#2c728e;stroke:#2c728e;" x="194.349" xlink:href="#m44bc511403" y="91.494178"/>
     <use style="fill:#2c728e;stroke:#2c728e;" x="197.998" xlink:href="#m44bc511403" y="107.356356"/>
     <use style="fill:#2c728e;stroke:#2c728e;" x="201.647" xlink:href="#m44bc511403" y="124.491203"/>
     <use style="fill:#2c728e;stroke:#2c728e;" x="205.296" xlink:href="#m44bc511403" y="121.663066"/>
     <use style="fill:#2c728e;stroke:#2c728e;" x="208.945" xlink:href="#m44bc511403" y="124.238896"/>
     <use style="fill:#2c728e;stroke:#2c728e;" x="212.594" xlink:href="#m44bc511403" y="117.804453"/>
     <use style="fill:#2c728e;stroke:#2c728e;" x="216.243" xlink:href="#m44bc511403" y="93.944111"/>
     <use style="fill:#2c728e;stroke:#2c728e;" x="219.892" xlink:href="#m44bc511403" y="32.797834"/>
     <use style="fill:#2c728e;stroke:#2c728e;" x="223.541" xlink:href="#m44bc511403" y="28.557674"/>
     <use style="fill:#2c728e;stroke:#2c728e;" x="227.19" xlink:href="#m44bc511403" y="35.260686"/>
    </g>
   </g>
   <g id="patch_3">
    <path d="M 44.74 141.72582 
L 44.74 12.006997 
" style="fill:none;stroke:#000000;stroke-linecap:square;stroke-linejoin:miter;stroke-width:0.8;"/>
   </g>
   <g id="patch_4">
    <path d="M 227.19 141.72582 
L 227.19 12.006997 
" style="fill:none;stroke:#000000;stroke-linecap:square;stroke-linejoin:miter;stroke-width:0.8;"/>
   </g>
   <g id="patch_5">
    <path d="M 44.74 141.72582 
L 227.19 141.72582 
" style="fill:none;stroke:#000000;stroke-linecap:square;stroke-linejoin:miter;stroke-width:0.8;"/>
   </g>
   <g id="patch_6">
    <path d="M 44.74 12.006997 
L 227.19 12.006997 
" style="fill:none;stroke:#000000;stroke-linecap:square;stroke-linejoin:miter;stroke-width:0.8;"/>
   </g>
  </g>
 </g>
 <defs>
  <clipPath id="pb0791b5fcd">
   <rect height="129.718824" width="182.45" x="44.74" y="12.006997"/>
  </clipPath>
 </defs>
</svg>
