<?xml version="1.0" encoding="utf-8" standalone="no"?>
<!DOCTYPE svg PUBLIC "-//W3C//DTD SVG 1.1//EN"
  "http://www.w3.org/Graphics/SVG/1.1/DTD/svg11.dtd">
<!-- Created with matplotlib (http://matplotlib.org/) -->
<svg height="187pt" version="1.1" viewBox="0 0 187 187" width="187pt" xmlns="http://www.w3.org/2000/svg" xmlns:xlink="http://www.w3.org/1999/xlink">
 <defs>
  <style type="text/css">
*{stroke-linecap:butt;stroke-linejoin:round;}
  </style>
 </defs>
 <g id="figure_1">
  <g id="patch_1">
   <path d="M 0 187 
L 187 187 
L 187 -0 
L 0 -0 
z
" style="fill:#ffffff;"/>
  </g>
  <g id="axes_1">
   <g id="patch_2">
    <path d="M 3.5 183.5 
L 183.5 183.5 
L 183.5 3.5 
L 3.5 3.5 
z
" style="fill:#ffffff;"/>
   </g>
   <g id="matplotlib.axis_1"/>
   <g id="matplotlib.axis_2"/>
   <g id="line2d_1">
    <path clip-path="url(#p0ac37161e6)" d="M 7.1 181.673605 
L 10.7 177.899572 
L 14.3 178.105825 
L 17.9 165.084018 
L 21.5 168.838846 
L 25.1 144.521999 
L 28.7 157.784748 
L 32.3 127.713409 
L 35.9 107.182652 
L 39.5 91.930369 
L 43.1 57.784922 
L 46.7 56.983814 
L 50.3 52.787233 
L 53.9 6.252941 
L 57.5 23.145233 
L 61.1 16.210104 
L 64.7 15.925627 
L 68.3 12.698163 
L 71.9 5.864706 
L 75.5 17.449802 
L 79.1 10.119242 
L 82.7 5.424706 
L 86.3 8.198796 
L 89.9 10.483552 
L 93.5 17.936335 
L 97.1 18.408326 
L 100.7 5.755615 
L 104.3 19.389242 
L 107.9 8.903672 
L 111.5 5.570324 
L 115.1 10.066649 
L 118.7 7.3427 
L 122.3 5.268468 
L 125.9 5.268755 
L 129.5 5.645403 
L 133.1 6.551397 
L 136.7 30.421032 
L 140.3 9.377828 
L 143.9 5.264706 
L 147.5 5.264706 
" style="fill:none;stroke:#424086;stroke-linecap:square;stroke-width:2;"/>
    <defs>
     <path d="M 0 3 
C 0.795609 3 1.55874 2.683901 2.12132 2.12132 
C 2.683901 1.55874 3 0.795609 3 0 
C 3 -0.795609 2.683901 -1.55874 2.12132 -2.12132 
C 1.55874 -2.683901 0.795609 -3 0 -3 
C -0.795609 -3 -1.55874 -2.683901 -2.12132 -2.12132 
C -2.683901 -1.55874 -3 -0.795609 -3 0 
C -3 0.795609 -2.683901 1.55874 -2.12132 2.12132 
C -1.55874 2.683901 -0.795609 3 0 3 
z
" id="m188d06e6be" style="stroke:#424086;"/>
    </defs>
    <g clip-path="url(#p0ac37161e6)">
     <use style="fill:#424086;stroke:#424086;" x="7.1" xlink:href="#m188d06e6be" y="181.673605"/>
     <use style="fill:#424086;stroke:#424086;" x="10.7" xlink:href="#m188d06e6be" y="177.899572"/>
     <use style="fill:#424086;stroke:#424086;" x="14.3" xlink:href="#m188d06e6be" y="178.105825"/>
     <use style="fill:#424086;stroke:#424086;" x="17.9" xlink:href="#m188d06e6be" y="165.084018"/>
     <use style="fill:#424086;stroke:#424086;" x="21.5" xlink:href="#m188d06e6be" y="168.838846"/>
     <use style="fill:#424086;stroke:#424086;" x="25.1" xlink:href="#m188d06e6be" y="144.521999"/>
     <use style="fill:#424086;stroke:#424086;" x="28.7" xlink:href="#m188d06e6be" y="157.784748"/>
     <use style="fill:#424086;stroke:#424086;" x="32.3" xlink:href="#m188d06e6be" y="127.713409"/>
     <use style="fill:#424086;stroke:#424086;" x="35.9" xlink:href="#m188d06e6be" y="107.182652"/>
     <use style="fill:#424086;stroke:#424086;" x="39.5" xlink:href="#m188d06e6be" y="91.930369"/>
     <use style="fill:#424086;stroke:#424086;" x="43.1" xlink:href="#m188d06e6be" y="57.784922"/>
     <use style="fill:#424086;stroke:#424086;" x="46.7" xlink:href="#m188d06e6be" y="56.983814"/>
     <use style="fill:#424086;stroke:#424086;" x="50.3" xlink:href="#m188d06e6be" y="52.787233"/>
     <use style="fill:#424086;stroke:#424086;" x="53.9" xlink:href="#m188d06e6be" y="6.252941"/>
     <use style="fill:#424086;stroke:#424086;" x="57.5" xlink:href="#m188d06e6be" y="23.145233"/>
     <use style="fill:#424086;stroke:#424086;" x="61.1" xlink:href="#m188d06e6be" y="16.210104"/>
     <use style="fill:#424086;stroke:#424086;" x="64.7" xlink:href="#m188d06e6be" y="15.925627"/>
     <use style="fill:#424086;stroke:#424086;" x="68.3" xlink:href="#m188d06e6be" y="12.698163"/>
     <use style="fill:#424086;stroke:#424086;" x="71.9" xlink:href="#m188d06e6be" y="5.864706"/>
     <use style="fill:#424086;stroke:#424086;" x="75.5" xlink:href="#m188d06e6be" y="17.449802"/>
     <use style="fill:#424086;stroke:#424086;" x="79.1" xlink:href="#m188d06e6be" y="10.119242"/>
     <use style="fill:#424086;stroke:#424086;" x="82.7" xlink:href="#m188d06e6be" y="5.424706"/>
     <use style="fill:#424086;stroke:#424086;" x="86.3" xlink:href="#m188d06e6be" y="8.198796"/>
     <use style="fill:#424086;stroke:#424086;" x="89.9" xlink:href="#m188d06e6be" y="10.483552"/>
     <use style="fill:#424086;stroke:#424086;" x="93.5" xlink:href="#m188d06e6be" y="17.936335"/>
     <use style="fill:#424086;stroke:#424086;" x="97.1" xlink:href="#m188d06e6be" y="18.408326"/>
     <use style="fill:#424086;stroke:#424086;" x="100.7" xlink:href="#m188d06e6be" y="5.755615"/>
     <use style="fill:#424086;stroke:#424086;" x="104.3" xlink:href="#m188d06e6be" y="19.389242"/>
     <use style="fill:#424086;stroke:#424086;" x="107.9" xlink:href="#m188d06e6be" y="8.903672"/>
     <use style="fill:#424086;stroke:#424086;" x="111.5" xlink:href="#m188d06e6be" y="5.570324"/>
     <use style="fill:#424086;stroke:#424086;" x="115.1" xlink:href="#m188d06e6be" y="10.066649"/>
     <use style="fill:#424086;stroke:#424086;" x="118.7" xlink:href="#m188d06e6be" y="7.3427"/>
     <use style="fill:#424086;stroke:#424086;" x="122.3" xlink:href="#m188d06e6be" y="5.268468"/>
     <use style="fill:#424086;stroke:#424086;" x="125.9" xlink:href="#m188d06e6be" y="5.268755"/>
     <use style="fill:#424086;stroke:#424086;" x="129.5" xlink:href="#m188d06e6be" y="5.645403"/>
     <use style="fill:#424086;stroke:#424086;" x="133.1" xlink:href="#m188d06e6be" y="6.551397"/>
     <use style="fill:#424086;stroke:#424086;" x="136.7" xlink:href="#m188d06e6be" y="30.421032"/>
     <use style="fill:#424086;stroke:#424086;" x="140.3" xlink:href="#m188d06e6be" y="9.377828"/>
     <use style="fill:#424086;stroke:#424086;" x="143.9" xlink:href="#m188d06e6be" y="5.264706"/>
     <use style="fill:#424086;stroke:#424086;" x="147.5" xlink:href="#m188d06e6be" y="5.264706"/>
    </g>
   </g>
   <g id="patch_3">
    <path d="M 3.5 183.5 
L 3.5 3.5 
" style="fill:none;stroke:#000000;stroke-linecap:square;stroke-linejoin:miter;stroke-width:0.8;"/>
   </g>
   <g id="patch_4">
    <path d="M 183.5 183.5 
L 183.5 3.5 
" style="fill:none;stroke:#000000;stroke-linecap:square;stroke-linejoin:miter;stroke-width:0.8;"/>
   </g>
   <g id="patch_5">
    <path d="M 3.5 183.5 
L 183.5 183.5 
" style="fill:none;stroke:#000000;stroke-linecap:square;stroke-linejoin:miter;stroke-width:0.8;"/>
   </g>
   <g id="patch_6">
    <path d="M 3.5 3.5 
L 183.5 3.5 
" style="fill:none;stroke:#000000;stroke-linecap:square;stroke-linejoin:miter;stroke-width:0.8;"/>
   </g>
  </g>
 </g>
 <defs>
  <clipPath id="p0ac37161e6">
   <rect height="180" width="180" x="3.5" y="3.5"/>
  </clipPath>
 </defs>
</svg>
