<?xml version="1.0" encoding="utf-8" standalone="no"?>
<!DOCTYPE svg PUBLIC "-//W3C//DTD SVG 1.1//EN"
  "http://www.w3.org/Graphics/SVG/1.1/DTD/svg11.dtd">
<!-- Created with matplotlib (http://matplotlib.org/) -->
<svg height="187pt" version="1.1" viewBox="0 0 187 187" width="187pt" xmlns="http://www.w3.org/2000/svg" xmlns:xlink="http://www.w3.org/1999/xlink">
 <defs>
  <style type="text/css">
*{stroke-linecap:butt;stroke-linejoin:round;}
  </style>
 </defs>
 <g id="figure_1">
  <g id="patch_1">
   <path d="M 0 187 
L 187 187 
L 187 -0 
L 0 -0 
z
" style="fill:#ffffff;"/>
  </g>
  <g id="axes_1">
   <g id="patch_2">
    <path d="M 3.5 183.5 
L 183.5 183.5 
L 183.5 3.5 
L 3.5 3.5 
z
" style="fill:#ffffff;"/>
   </g>
   <g id="matplotlib.axis_1"/>
   <g id="matplotlib.axis_2"/>
   <g id="line2d_1">
    <path clip-path="url(#pc21a187753)" d="M 7.1 181.646478 
L 10.7 163.48425 
L 14.3 148.699481 
L 17.9 141.664861 
L 21.5 127.971123 
L 25.1 139.228382 
L 28.7 95.361059 
L 32.3 64.883971 
L 35.9 33.436029 
L 39.5 11.258529 
L 43.1 19.37605 
L 46.7 9.712132 
L 50.3 33.771875 
L 53.9 15.336765 
L 57.5 5.781717 
L 61.1 18.828676 
L 64.7 9.975147 
L 68.3 5.463971 
L 71.9 15.255984 
L 75.5 12.998529 
L 79.1 9.397326 
L 82.7 5.264706 
L 86.3 5.275232 
L 89.9 5.264706 
L 93.5 5.264706 
L 97.1 5.264706 
L 100.7 5.264706 
L 104.3 5.469191 
L 107.9 13.979303 
" style="fill:none;stroke:#482374;stroke-linecap:square;stroke-width:2;"/>
    <defs>
     <path d="M 0 3 
C 0.795609 3 1.55874 2.683901 2.12132 2.12132 
C 2.683901 1.55874 3 0.795609 3 0 
C 3 -0.795609 2.683901 -1.55874 2.12132 -2.12132 
C 1.55874 -2.683901 0.795609 -3 0 -3 
C -0.795609 -3 -1.55874 -2.683901 -2.12132 -2.12132 
C -2.683901 -1.55874 -3 -0.795609 -3 0 
C -3 0.795609 -2.683901 1.55874 -2.12132 2.12132 
C -1.55874 2.683901 -0.795609 3 0 3 
z
" id="m59182931e9" style="stroke:#482374;"/>
    </defs>
    <g clip-path="url(#pc21a187753)">
     <use style="fill:#482374;stroke:#482374;" x="7.1" xlink:href="#m59182931e9" y="181.646478"/>
     <use style="fill:#482374;stroke:#482374;" x="10.7" xlink:href="#m59182931e9" y="163.48425"/>
     <use style="fill:#482374;stroke:#482374;" x="14.3" xlink:href="#m59182931e9" y="148.699481"/>
     <use style="fill:#482374;stroke:#482374;" x="17.9" xlink:href="#m59182931e9" y="141.664861"/>
     <use style="fill:#482374;stroke:#482374;" x="21.5" xlink:href="#m59182931e9" y="127.971123"/>
     <use style="fill:#482374;stroke:#482374;" x="25.1" xlink:href="#m59182931e9" y="139.228382"/>
     <use style="fill:#482374;stroke:#482374;" x="28.7" xlink:href="#m59182931e9" y="95.361059"/>
     <use style="fill:#482374;stroke:#482374;" x="32.3" xlink:href="#m59182931e9" y="64.883971"/>
     <use style="fill:#482374;stroke:#482374;" x="35.9" xlink:href="#m59182931e9" y="33.436029"/>
     <use style="fill:#482374;stroke:#482374;" x="39.5" xlink:href="#m59182931e9" y="11.258529"/>
     <use style="fill:#482374;stroke:#482374;" x="43.1" xlink:href="#m59182931e9" y="19.37605"/>
     <use style="fill:#482374;stroke:#482374;" x="46.7" xlink:href="#m59182931e9" y="9.712132"/>
     <use style="fill:#482374;stroke:#482374;" x="50.3" xlink:href="#m59182931e9" y="33.771875"/>
     <use style="fill:#482374;stroke:#482374;" x="53.9" xlink:href="#m59182931e9" y="15.336765"/>
     <use style="fill:#482374;stroke:#482374;" x="57.5" xlink:href="#m59182931e9" y="5.781717"/>
     <use style="fill:#482374;stroke:#482374;" x="61.1" xlink:href="#m59182931e9" y="18.828676"/>
     <use style="fill:#482374;stroke:#482374;" x="64.7" xlink:href="#m59182931e9" y="9.975147"/>
     <use style="fill:#482374;stroke:#482374;" x="68.3" xlink:href="#m59182931e9" y="5.463971"/>
     <use style="fill:#482374;stroke:#482374;" x="71.9" xlink:href="#m59182931e9" y="15.255984"/>
     <use style="fill:#482374;stroke:#482374;" x="75.5" xlink:href="#m59182931e9" y="12.998529"/>
     <use style="fill:#482374;stroke:#482374;" x="79.1" xlink:href="#m59182931e9" y="9.397326"/>
     <use style="fill:#482374;stroke:#482374;" x="82.7" xlink:href="#m59182931e9" y="5.264706"/>
     <use style="fill:#482374;stroke:#482374;" x="86.3" xlink:href="#m59182931e9" y="5.275232"/>
     <use style="fill:#482374;stroke:#482374;" x="89.9" xlink:href="#m59182931e9" y="5.264706"/>
     <use style="fill:#482374;stroke:#482374;" x="93.5" xlink:href="#m59182931e9" y="5.264706"/>
     <use style="fill:#482374;stroke:#482374;" x="97.1" xlink:href="#m59182931e9" y="5.264706"/>
     <use style="fill:#482374;stroke:#482374;" x="100.7" xlink:href="#m59182931e9" y="5.264706"/>
     <use style="fill:#482374;stroke:#482374;" x="104.3" xlink:href="#m59182931e9" y="5.469191"/>
     <use style="fill:#482374;stroke:#482374;" x="107.9" xlink:href="#m59182931e9" y="13.979303"/>
    </g>
   </g>
   <g id="patch_3">
    <path d="M 3.5 183.5 
L 3.5 3.5 
" style="fill:none;stroke:#000000;stroke-linecap:square;stroke-linejoin:miter;stroke-width:0.8;"/>
   </g>
   <g id="patch_4">
    <path d="M 183.5 183.5 
L 183.5 3.5 
" style="fill:none;stroke:#000000;stroke-linecap:square;stroke-linejoin:miter;stroke-width:0.8;"/>
   </g>
   <g id="patch_5">
    <path d="M 3.5 183.5 
L 183.5 183.5 
" style="fill:none;stroke:#000000;stroke-linecap:square;stroke-linejoin:miter;stroke-width:0.8;"/>
   </g>
   <g id="patch_6">
    <path d="M 3.5 3.5 
L 183.5 3.5 
" style="fill:none;stroke:#000000;stroke-linecap:square;stroke-linejoin:miter;stroke-width:0.8;"/>
   </g>
  </g>
 </g>
 <defs>
  <clipPath id="pc21a187753">
   <rect height="180" width="180" x="3.5" y="3.5"/>
  </clipPath>
 </defs>
</svg>
