<?xml version="1.0" encoding="utf-8" standalone="no"?>
<!DOCTYPE svg PUBLIC "-//W3C//DTD SVG 1.1//EN"
  "http://www.w3.org/Graphics/SVG/1.1/DTD/svg11.dtd">
<!-- Created with matplotlib (http://matplotlib.org/) -->
<svg height="187pt" version="1.1" viewBox="0 0 187 187" width="187pt" xmlns="http://www.w3.org/2000/svg" xmlns:xlink="http://www.w3.org/1999/xlink">
 <defs>
  <style type="text/css">
*{stroke-linecap:butt;stroke-linejoin:round;}
  </style>
 </defs>
 <g id="figure_1">
  <g id="patch_1">
   <path d="M 0 187 
L 187 187 
L 187 -0 
L 0 -0 
z
" style="fill:#ffffff;"/>
  </g>
  <g id="axes_1">
   <g id="patch_2">
    <path d="M 3.5 183.5 
L 183.5 183.5 
L 183.5 3.5 
L 3.5 3.5 
z
" style="fill:#ffffff;"/>
   </g>
   <g id="matplotlib.axis_1"/>
   <g id="matplotlib.axis_2"/>
   <g id="line2d_1">
    <path clip-path="url(#p5a436798ae)" d="M 7.1 181.599923 
L 10.7 171.023242 
L 14.3 176.854779 
L 17.9 175.894338 
L 21.5 165.336134 
L 25.1 169.049265 
L 28.7 163.232353 
L 32.3 153.849632 
L 35.9 162.845882 
L 39.5 160.080588 
L 43.1 157.242647 
L 46.7 154.783824 
L 50.3 147.8075 
L 53.9 151.171415 
L 57.5 156.818088 
L 61.1 131.299265 
L 64.7 156.259559 
L 68.3 126.069853 
L 71.9 125.619301 
L 75.5 146.937132 
L 79.1 129.443474 
L 82.7 133.784191 
L 86.3 116.568015 
L 89.9 132.367206 
L 93.5 107.502626 
L 97.1 116.349332 
L 100.7 86.021113 
L 104.3 66.778887 
L 107.9 86.612868 
L 111.5 87.390441 
L 115.1 70.959853 
L 118.7 55.218487 
L 122.3 61.948039 
L 125.9 49.395147 
L 129.5 44.15 
L 133.1 38.494457 
L 136.7 83.659804 
L 140.3 51.359425 
L 143.9 67.744698 
L 147.5 48.019457 
L 151.1 54.142388 
L 154.7 67.40952 
L 158.3 66.426504 
L 161.9 80.179007 
L 165.5 91.729632 
L 169.1 72.670237 
L 172.7 47.686786 
L 176.3 21.366297 
L 179.9 18.218285 
L 183.5 38.979058 
" style="fill:none;stroke:#34b679;stroke-linecap:square;stroke-width:2;"/>
    <defs>
     <path d="M 0 3 
C 0.795609 3 1.55874 2.683901 2.12132 2.12132 
C 2.683901 1.55874 3 0.795609 3 0 
C 3 -0.795609 2.683901 -1.55874 2.12132 -2.12132 
C 1.55874 -2.683901 0.795609 -3 0 -3 
C -0.795609 -3 -1.55874 -2.683901 -2.12132 -2.12132 
C -2.683901 -1.55874 -3 -0.795609 -3 0 
C -3 0.795609 -2.683901 1.55874 -2.12132 2.12132 
C -1.55874 2.683901 -0.795609 3 0 3 
z
" id="m048512edac" style="stroke:#34b679;"/>
    </defs>
    <g clip-path="url(#p5a436798ae)">
     <use style="fill:#34b679;stroke:#34b679;" x="7.1" xlink:href="#m048512edac" y="181.599923"/>
     <use style="fill:#34b679;stroke:#34b679;" x="10.7" xlink:href="#m048512edac" y="171.023242"/>
     <use style="fill:#34b679;stroke:#34b679;" x="14.3" xlink:href="#m048512edac" y="176.854779"/>
     <use style="fill:#34b679;stroke:#34b679;" x="17.9" xlink:href="#m048512edac" y="175.894338"/>
     <use style="fill:#34b679;stroke:#34b679;" x="21.5" xlink:href="#m048512edac" y="165.336134"/>
     <use style="fill:#34b679;stroke:#34b679;" x="25.1" xlink:href="#m048512edac" y="169.049265"/>
     <use style="fill:#34b679;stroke:#34b679;" x="28.7" xlink:href="#m048512edac" y="163.232353"/>
     <use style="fill:#34b679;stroke:#34b679;" x="32.3" xlink:href="#m048512edac" y="153.849632"/>
     <use style="fill:#34b679;stroke:#34b679;" x="35.9" xlink:href="#m048512edac" y="162.845882"/>
     <use style="fill:#34b679;stroke:#34b679;" x="39.5" xlink:href="#m048512edac" y="160.080588"/>
     <use style="fill:#34b679;stroke:#34b679;" x="43.1" xlink:href="#m048512edac" y="157.242647"/>
     <use style="fill:#34b679;stroke:#34b679;" x="46.7" xlink:href="#m048512edac" y="154.783824"/>
     <use style="fill:#34b679;stroke:#34b679;" x="50.3" xlink:href="#m048512edac" y="147.8075"/>
     <use style="fill:#34b679;stroke:#34b679;" x="53.9" xlink:href="#m048512edac" y="151.171415"/>
     <use style="fill:#34b679;stroke:#34b679;" x="57.5" xlink:href="#m048512edac" y="156.818088"/>
     <use style="fill:#34b679;stroke:#34b679;" x="61.1" xlink:href="#m048512edac" y="131.299265"/>
     <use style="fill:#34b679;stroke:#34b679;" x="64.7" xlink:href="#m048512edac" y="156.259559"/>
     <use style="fill:#34b679;stroke:#34b679;" x="68.3" xlink:href="#m048512edac" y="126.069853"/>
     <use style="fill:#34b679;stroke:#34b679;" x="71.9" xlink:href="#m048512edac" y="125.619301"/>
     <use style="fill:#34b679;stroke:#34b679;" x="75.5" xlink:href="#m048512edac" y="146.937132"/>
     <use style="fill:#34b679;stroke:#34b679;" x="79.1" xlink:href="#m048512edac" y="129.443474"/>
     <use style="fill:#34b679;stroke:#34b679;" x="82.7" xlink:href="#m048512edac" y="133.784191"/>
     <use style="fill:#34b679;stroke:#34b679;" x="86.3" xlink:href="#m048512edac" y="116.568015"/>
     <use style="fill:#34b679;stroke:#34b679;" x="89.9" xlink:href="#m048512edac" y="132.367206"/>
     <use style="fill:#34b679;stroke:#34b679;" x="93.5" xlink:href="#m048512edac" y="107.502626"/>
     <use style="fill:#34b679;stroke:#34b679;" x="97.1" xlink:href="#m048512edac" y="116.349332"/>
     <use style="fill:#34b679;stroke:#34b679;" x="100.7" xlink:href="#m048512edac" y="86.021113"/>
     <use style="fill:#34b679;stroke:#34b679;" x="104.3" xlink:href="#m048512edac" y="66.778887"/>
     <use style="fill:#34b679;stroke:#34b679;" x="107.9" xlink:href="#m048512edac" y="86.612868"/>
     <use style="fill:#34b679;stroke:#34b679;" x="111.5" xlink:href="#m048512edac" y="87.390441"/>
     <use style="fill:#34b679;stroke:#34b679;" x="115.1" xlink:href="#m048512edac" y="70.959853"/>
     <use style="fill:#34b679;stroke:#34b679;" x="118.7" xlink:href="#m048512edac" y="55.218487"/>
     <use style="fill:#34b679;stroke:#34b679;" x="122.3" xlink:href="#m048512edac" y="61.948039"/>
     <use style="fill:#34b679;stroke:#34b679;" x="125.9" xlink:href="#m048512edac" y="49.395147"/>
     <use style="fill:#34b679;stroke:#34b679;" x="129.5" xlink:href="#m048512edac" y="44.15"/>
     <use style="fill:#34b679;stroke:#34b679;" x="133.1" xlink:href="#m048512edac" y="38.494457"/>
     <use style="fill:#34b679;stroke:#34b679;" x="136.7" xlink:href="#m048512edac" y="83.659804"/>
     <use style="fill:#34b679;stroke:#34b679;" x="140.3" xlink:href="#m048512edac" y="51.359425"/>
     <use style="fill:#34b679;stroke:#34b679;" x="143.9" xlink:href="#m048512edac" y="67.744698"/>
     <use style="fill:#34b679;stroke:#34b679;" x="147.5" xlink:href="#m048512edac" y="48.019457"/>
     <use style="fill:#34b679;stroke:#34b679;" x="151.1" xlink:href="#m048512edac" y="54.142388"/>
     <use style="fill:#34b679;stroke:#34b679;" x="154.7" xlink:href="#m048512edac" y="67.40952"/>
     <use style="fill:#34b679;stroke:#34b679;" x="158.3" xlink:href="#m048512edac" y="66.426504"/>
     <use style="fill:#34b679;stroke:#34b679;" x="161.9" xlink:href="#m048512edac" y="80.179007"/>
     <use style="fill:#34b679;stroke:#34b679;" x="165.5" xlink:href="#m048512edac" y="91.729632"/>
     <use style="fill:#34b679;stroke:#34b679;" x="169.1" xlink:href="#m048512edac" y="72.670237"/>
     <use style="fill:#34b679;stroke:#34b679;" x="172.7" xlink:href="#m048512edac" y="47.686786"/>
     <use style="fill:#34b679;stroke:#34b679;" x="176.3" xlink:href="#m048512edac" y="21.366297"/>
     <use style="fill:#34b679;stroke:#34b679;" x="179.9" xlink:href="#m048512edac" y="18.218285"/>
     <use style="fill:#34b679;stroke:#34b679;" x="183.5" xlink:href="#m048512edac" y="38.979058"/>
    </g>
   </g>
   <g id="patch_3">
    <path d="M 3.5 183.5 
L 3.5 3.5 
" style="fill:none;stroke:#000000;stroke-linecap:square;stroke-linejoin:miter;stroke-width:0.8;"/>
   </g>
   <g id="patch_4">
    <path d="M 183.5 183.5 
L 183.5 3.5 
" style="fill:none;stroke:#000000;stroke-linecap:square;stroke-linejoin:miter;stroke-width:0.8;"/>
   </g>
   <g id="patch_5">
    <path d="M 3.5 183.5 
L 183.5 183.5 
" style="fill:none;stroke:#000000;stroke-linecap:square;stroke-linejoin:miter;stroke-width:0.8;"/>
   </g>
   <g id="patch_6">
    <path d="M 3.5 3.5 
L 183.5 3.5 
" style="fill:none;stroke:#000000;stroke-linecap:square;stroke-linejoin:miter;stroke-width:0.8;"/>
   </g>
  </g>
 </g>
 <defs>
  <clipPath id="p5a436798ae">
   <rect height="180" width="180" x="3.5" y="3.5"/>
  </clipPath>
 </defs>
</svg>
