<?xml version="1.0" encoding="utf-8" standalone="no"?>
<!DOCTYPE svg PUBLIC "-//W3C//DTD SVG 1.1//EN"
  "http://www.w3.org/Graphics/SVG/1.1/DTD/svg11.dtd">
<!-- Created with matplotlib (http://matplotlib.org/) -->
<svg height="187pt" version="1.1" viewBox="0 0 187 187" width="187pt" xmlns="http://www.w3.org/2000/svg" xmlns:xlink="http://www.w3.org/1999/xlink">
 <defs>
  <style type="text/css">
*{stroke-linecap:butt;stroke-linejoin:round;}
  </style>
 </defs>
 <g id="figure_1">
  <g id="patch_1">
   <path d="M 0 187 
L 187 187 
L 187 -0 
L 0 -0 
z
" style="fill:#ffffff;"/>
  </g>
  <g id="axes_1">
   <g id="patch_2">
    <path d="M 3.5 183.5 
L 183.5 183.5 
L 183.5 3.5 
L 3.5 3.5 
z
" style="fill:#ffffff;"/>
   </g>
   <g id="matplotlib.axis_1"/>
   <g id="matplotlib.axis_2"/>
   <g id="line2d_1">
    <path clip-path="url(#pd1891d902b)" d="M 7.1 181.664496 
L 10.7 177.065336 
L 14.3 175.899827 
L 17.9 169.853059 
L 21.5 168.929965 
L 25.1 169.546118 
L 28.7 159.892269 
L 32.3 161.961103 
L 35.9 162.555974 
L 39.5 152.617941 
L 43.1 154.221925 
L 46.7 152.565147 
L 50.3 150.357185 
L 53.9 142.814118 
L 57.5 148.870695 
L 61.1 139.537919 
L 64.7 144.052118 
L 68.3 139.332588 
L 71.9 126.094706 
L 75.5 130.732851 
L 79.1 129.65638 
L 82.7 127.162415 
L 86.3 115.195813 
L 89.9 110.132145 
L 93.5 113.561882 
L 97.1 116.58021 
L 100.7 58.04115 
L 104.3 93.861553 
L 107.9 77.510589 
L 111.5 103.575095 
L 115.1 100.416112 
L 118.7 82.511052 
L 122.3 107.428746 
L 125.9 85.107257 
L 129.5 48.483624 
L 133.1 84.729533 
L 136.7 74.322012 
L 140.3 74.823024 
L 143.9 104.82029 
L 147.5 37.449174 
L 151.1 111.147059 
M 169.1 102.323529 
M 179.9 97.029412 
" style="fill:none;stroke:#9bd93c;stroke-linecap:square;stroke-width:2;"/>
    <defs>
     <path d="M 0 3 
C 0.795609 3 1.55874 2.683901 2.12132 2.12132 
C 2.683901 1.55874 3 0.795609 3 0 
C 3 -0.795609 2.683901 -1.55874 2.12132 -2.12132 
C 1.55874 -2.683901 0.795609 -3 0 -3 
C -0.795609 -3 -1.55874 -2.683901 -2.12132 -2.12132 
C -2.683901 -1.55874 -3 -0.795609 -3 0 
C -3 0.795609 -2.683901 1.55874 -2.12132 2.12132 
C -1.55874 2.683901 -0.795609 3 0 3 
z
" id="m6ada0a987c" style="stroke:#9bd93c;"/>
    </defs>
    <g clip-path="url(#pd1891d902b)">
     <use style="fill:#9bd93c;stroke:#9bd93c;" x="7.1" xlink:href="#m6ada0a987c" y="181.664496"/>
     <use style="fill:#9bd93c;stroke:#9bd93c;" x="10.7" xlink:href="#m6ada0a987c" y="177.065336"/>
     <use style="fill:#9bd93c;stroke:#9bd93c;" x="14.3" xlink:href="#m6ada0a987c" y="175.899827"/>
     <use style="fill:#9bd93c;stroke:#9bd93c;" x="17.9" xlink:href="#m6ada0a987c" y="169.853059"/>
     <use style="fill:#9bd93c;stroke:#9bd93c;" x="21.5" xlink:href="#m6ada0a987c" y="168.929965"/>
     <use style="fill:#9bd93c;stroke:#9bd93c;" x="25.1" xlink:href="#m6ada0a987c" y="169.546118"/>
     <use style="fill:#9bd93c;stroke:#9bd93c;" x="28.7" xlink:href="#m6ada0a987c" y="159.892269"/>
     <use style="fill:#9bd93c;stroke:#9bd93c;" x="32.3" xlink:href="#m6ada0a987c" y="161.961103"/>
     <use style="fill:#9bd93c;stroke:#9bd93c;" x="35.9" xlink:href="#m6ada0a987c" y="162.555974"/>
     <use style="fill:#9bd93c;stroke:#9bd93c;" x="39.5" xlink:href="#m6ada0a987c" y="152.617941"/>
     <use style="fill:#9bd93c;stroke:#9bd93c;" x="43.1" xlink:href="#m6ada0a987c" y="154.221925"/>
     <use style="fill:#9bd93c;stroke:#9bd93c;" x="46.7" xlink:href="#m6ada0a987c" y="152.565147"/>
     <use style="fill:#9bd93c;stroke:#9bd93c;" x="50.3" xlink:href="#m6ada0a987c" y="150.357185"/>
     <use style="fill:#9bd93c;stroke:#9bd93c;" x="53.9" xlink:href="#m6ada0a987c" y="142.814118"/>
     <use style="fill:#9bd93c;stroke:#9bd93c;" x="57.5" xlink:href="#m6ada0a987c" y="148.870695"/>
     <use style="fill:#9bd93c;stroke:#9bd93c;" x="61.1" xlink:href="#m6ada0a987c" y="139.537919"/>
     <use style="fill:#9bd93c;stroke:#9bd93c;" x="64.7" xlink:href="#m6ada0a987c" y="144.052118"/>
     <use style="fill:#9bd93c;stroke:#9bd93c;" x="68.3" xlink:href="#m6ada0a987c" y="139.332588"/>
     <use style="fill:#9bd93c;stroke:#9bd93c;" x="71.9" xlink:href="#m6ada0a987c" y="126.094706"/>
     <use style="fill:#9bd93c;stroke:#9bd93c;" x="75.5" xlink:href="#m6ada0a987c" y="130.732851"/>
     <use style="fill:#9bd93c;stroke:#9bd93c;" x="79.1" xlink:href="#m6ada0a987c" y="129.65638"/>
     <use style="fill:#9bd93c;stroke:#9bd93c;" x="82.7" xlink:href="#m6ada0a987c" y="127.162415"/>
     <use style="fill:#9bd93c;stroke:#9bd93c;" x="86.3" xlink:href="#m6ada0a987c" y="115.195813"/>
     <use style="fill:#9bd93c;stroke:#9bd93c;" x="89.9" xlink:href="#m6ada0a987c" y="110.132145"/>
     <use style="fill:#9bd93c;stroke:#9bd93c;" x="93.5" xlink:href="#m6ada0a987c" y="113.561882"/>
     <use style="fill:#9bd93c;stroke:#9bd93c;" x="97.1" xlink:href="#m6ada0a987c" y="116.58021"/>
     <use style="fill:#9bd93c;stroke:#9bd93c;" x="100.7" xlink:href="#m6ada0a987c" y="58.04115"/>
     <use style="fill:#9bd93c;stroke:#9bd93c;" x="104.3" xlink:href="#m6ada0a987c" y="93.861553"/>
     <use style="fill:#9bd93c;stroke:#9bd93c;" x="107.9" xlink:href="#m6ada0a987c" y="77.510589"/>
     <use style="fill:#9bd93c;stroke:#9bd93c;" x="111.5" xlink:href="#m6ada0a987c" y="103.575095"/>
     <use style="fill:#9bd93c;stroke:#9bd93c;" x="115.1" xlink:href="#m6ada0a987c" y="100.416112"/>
     <use style="fill:#9bd93c;stroke:#9bd93c;" x="118.7" xlink:href="#m6ada0a987c" y="82.511052"/>
     <use style="fill:#9bd93c;stroke:#9bd93c;" x="122.3" xlink:href="#m6ada0a987c" y="107.428746"/>
     <use style="fill:#9bd93c;stroke:#9bd93c;" x="125.9" xlink:href="#m6ada0a987c" y="85.107257"/>
     <use style="fill:#9bd93c;stroke:#9bd93c;" x="129.5" xlink:href="#m6ada0a987c" y="48.483624"/>
     <use style="fill:#9bd93c;stroke:#9bd93c;" x="133.1" xlink:href="#m6ada0a987c" y="84.729533"/>
     <use style="fill:#9bd93c;stroke:#9bd93c;" x="136.7" xlink:href="#m6ada0a987c" y="74.322012"/>
     <use style="fill:#9bd93c;stroke:#9bd93c;" x="140.3" xlink:href="#m6ada0a987c" y="74.823024"/>
     <use style="fill:#9bd93c;stroke:#9bd93c;" x="143.9" xlink:href="#m6ada0a987c" y="104.82029"/>
     <use style="fill:#9bd93c;stroke:#9bd93c;" x="147.5" xlink:href="#m6ada0a987c" y="37.449174"/>
     <use style="fill:#9bd93c;stroke:#9bd93c;" x="151.1" xlink:href="#m6ada0a987c" y="111.147059"/>
     <use style="fill:#9bd93c;stroke:#9bd93c;" x="169.1" xlink:href="#m6ada0a987c" y="102.323529"/>
     <use style="fill:#9bd93c;stroke:#9bd93c;" x="179.9" xlink:href="#m6ada0a987c" y="97.029412"/>
    </g>
   </g>
   <g id="patch_3">
    <path d="M 3.5 183.5 
L 3.5 3.5 
" style="fill:none;stroke:#000000;stroke-linecap:square;stroke-linejoin:miter;stroke-width:0.8;"/>
   </g>
   <g id="patch_4">
    <path d="M 183.5 183.5 
L 183.5 3.5 
" style="fill:none;stroke:#000000;stroke-linecap:square;stroke-linejoin:miter;stroke-width:0.8;"/>
   </g>
   <g id="patch_5">
    <path d="M 3.5 183.5 
L 183.5 183.5 
" style="fill:none;stroke:#000000;stroke-linecap:square;stroke-linejoin:miter;stroke-width:0.8;"/>
   </g>
   <g id="patch_6">
    <path d="M 3.5 3.5 
L 183.5 3.5 
" style="fill:none;stroke:#000000;stroke-linecap:square;stroke-linejoin:miter;stroke-width:0.8;"/>
   </g>
  </g>
 </g>
 <defs>
  <clipPath id="pd1891d902b">
   <rect height="180" width="180" x="3.5" y="3.5"/>
  </clipPath>
 </defs>
</svg>
