<?xml version="1.0" encoding="utf-8" standalone="no"?>
<!DOCTYPE svg PUBLIC "-//W3C//DTD SVG 1.1//EN"
  "http://www.w3.org/Graphics/SVG/1.1/DTD/svg11.dtd">
<!-- Created with matplotlib (http://matplotlib.org/) -->
<svg height="187pt" version="1.1" viewBox="0 0 187 187" width="187pt" xmlns="http://www.w3.org/2000/svg" xmlns:xlink="http://www.w3.org/1999/xlink">
 <defs>
  <style type="text/css">
*{stroke-linecap:butt;stroke-linejoin:round;}
  </style>
 </defs>
 <g id="figure_1">
  <g id="patch_1">
   <path d="M 0 187 
L 187 187 
L 187 -0 
L 0 -0 
z
" style="fill:#ffffff;"/>
  </g>
  <g id="axes_1">
   <g id="patch_2">
    <path d="M 3.5 183.5 
L 183.5 183.5 
L 183.5 3.5 
L 3.5 3.5 
z
" style="fill:#ffffff;"/>
   </g>
   <g id="matplotlib.axis_1"/>
   <g id="matplotlib.axis_2"/>
   <g id="line2d_1">
    <path clip-path="url(#p4e037b16f2)" d="M 7.1 181.328949 
L 10.7 161.358929 
L 14.3 147.802206 
L 17.9 151.754832 
L 21.5 117.015686 
L 25.1 146.175433 
L 28.7 105.093627 
L 32.3 85.96935 
L 35.9 49.980147 
L 39.5 32.223109 
L 43.1 17.22526 
L 46.7 16.891912 
L 50.3 27.772794 
L 53.9 7.02291 
L 57.5 13.558021 
L 61.1 28.378959 
L 64.7 9.438235 
L 68.3 40.990498 
L 71.9 56.612684 
L 75.5 67.829044 
L 79.1 69.726654 
L 82.7 26.727941 
L 86.3 73.827163 
L 89.9 63.541029 
L 93.5 95.458824 
L 97.1 125.528922 
L 100.7 73.460784 
L 104.3 98.569608 
L 107.9 109.597647 
L 111.5 67.22549 
L 115.1 73.60239 
L 118.7 44.273529 
L 122.3 36.503019 
L 125.9 6.832472 
L 129.5 26.656824 
L 133.1 24.541176 
L 136.7 14.346765 
L 140.3 7.383068 
L 143.9 14.691597 
L 147.5 26.21731 
L 151.1 6.911798 
L 154.7 5.264706 
L 158.3 5.264706 
L 161.9 5.264706 
L 165.5 5.264706 
" style="fill:none;stroke:#482374;stroke-linecap:square;stroke-width:2;"/>
    <defs>
     <path d="M 0 3 
C 0.795609 3 1.55874 2.683901 2.12132 2.12132 
C 2.683901 1.55874 3 0.795609 3 0 
C 3 -0.795609 2.683901 -1.55874 2.12132 -2.12132 
C 1.55874 -2.683901 0.795609 -3 0 -3 
C -0.795609 -3 -1.55874 -2.683901 -2.12132 -2.12132 
C -2.683901 -1.55874 -3 -0.795609 -3 0 
C -3 0.795609 -2.683901 1.55874 -2.12132 2.12132 
C -1.55874 2.683901 -0.795609 3 0 3 
z
" id="mf9a03b7e0c" style="stroke:#482374;"/>
    </defs>
    <g clip-path="url(#p4e037b16f2)">
     <use style="fill:#482374;stroke:#482374;" x="7.1" xlink:href="#mf9a03b7e0c" y="181.328949"/>
     <use style="fill:#482374;stroke:#482374;" x="10.7" xlink:href="#mf9a03b7e0c" y="161.358929"/>
     <use style="fill:#482374;stroke:#482374;" x="14.3" xlink:href="#mf9a03b7e0c" y="147.802206"/>
     <use style="fill:#482374;stroke:#482374;" x="17.9" xlink:href="#mf9a03b7e0c" y="151.754832"/>
     <use style="fill:#482374;stroke:#482374;" x="21.5" xlink:href="#mf9a03b7e0c" y="117.015686"/>
     <use style="fill:#482374;stroke:#482374;" x="25.1" xlink:href="#mf9a03b7e0c" y="146.175433"/>
     <use style="fill:#482374;stroke:#482374;" x="28.7" xlink:href="#mf9a03b7e0c" y="105.093627"/>
     <use style="fill:#482374;stroke:#482374;" x="32.3" xlink:href="#mf9a03b7e0c" y="85.96935"/>
     <use style="fill:#482374;stroke:#482374;" x="35.9" xlink:href="#mf9a03b7e0c" y="49.980147"/>
     <use style="fill:#482374;stroke:#482374;" x="39.5" xlink:href="#mf9a03b7e0c" y="32.223109"/>
     <use style="fill:#482374;stroke:#482374;" x="43.1" xlink:href="#mf9a03b7e0c" y="17.22526"/>
     <use style="fill:#482374;stroke:#482374;" x="46.7" xlink:href="#mf9a03b7e0c" y="16.891912"/>
     <use style="fill:#482374;stroke:#482374;" x="50.3" xlink:href="#mf9a03b7e0c" y="27.772794"/>
     <use style="fill:#482374;stroke:#482374;" x="53.9" xlink:href="#mf9a03b7e0c" y="7.02291"/>
     <use style="fill:#482374;stroke:#482374;" x="57.5" xlink:href="#mf9a03b7e0c" y="13.558021"/>
     <use style="fill:#482374;stroke:#482374;" x="61.1" xlink:href="#mf9a03b7e0c" y="28.378959"/>
     <use style="fill:#482374;stroke:#482374;" x="64.7" xlink:href="#mf9a03b7e0c" y="9.438235"/>
     <use style="fill:#482374;stroke:#482374;" x="68.3" xlink:href="#mf9a03b7e0c" y="40.990498"/>
     <use style="fill:#482374;stroke:#482374;" x="71.9" xlink:href="#mf9a03b7e0c" y="56.612684"/>
     <use style="fill:#482374;stroke:#482374;" x="75.5" xlink:href="#mf9a03b7e0c" y="67.829044"/>
     <use style="fill:#482374;stroke:#482374;" x="79.1" xlink:href="#mf9a03b7e0c" y="69.726654"/>
     <use style="fill:#482374;stroke:#482374;" x="82.7" xlink:href="#mf9a03b7e0c" y="26.727941"/>
     <use style="fill:#482374;stroke:#482374;" x="86.3" xlink:href="#mf9a03b7e0c" y="73.827163"/>
     <use style="fill:#482374;stroke:#482374;" x="89.9" xlink:href="#mf9a03b7e0c" y="63.541029"/>
     <use style="fill:#482374;stroke:#482374;" x="93.5" xlink:href="#mf9a03b7e0c" y="95.458824"/>
     <use style="fill:#482374;stroke:#482374;" x="97.1" xlink:href="#mf9a03b7e0c" y="125.528922"/>
     <use style="fill:#482374;stroke:#482374;" x="100.7" xlink:href="#mf9a03b7e0c" y="73.460784"/>
     <use style="fill:#482374;stroke:#482374;" x="104.3" xlink:href="#mf9a03b7e0c" y="98.569608"/>
     <use style="fill:#482374;stroke:#482374;" x="107.9" xlink:href="#mf9a03b7e0c" y="109.597647"/>
     <use style="fill:#482374;stroke:#482374;" x="111.5" xlink:href="#mf9a03b7e0c" y="67.22549"/>
     <use style="fill:#482374;stroke:#482374;" x="115.1" xlink:href="#mf9a03b7e0c" y="73.60239"/>
     <use style="fill:#482374;stroke:#482374;" x="118.7" xlink:href="#mf9a03b7e0c" y="44.273529"/>
     <use style="fill:#482374;stroke:#482374;" x="122.3" xlink:href="#mf9a03b7e0c" y="36.503019"/>
     <use style="fill:#482374;stroke:#482374;" x="125.9" xlink:href="#mf9a03b7e0c" y="6.832472"/>
     <use style="fill:#482374;stroke:#482374;" x="129.5" xlink:href="#mf9a03b7e0c" y="26.656824"/>
     <use style="fill:#482374;stroke:#482374;" x="133.1" xlink:href="#mf9a03b7e0c" y="24.541176"/>
     <use style="fill:#482374;stroke:#482374;" x="136.7" xlink:href="#mf9a03b7e0c" y="14.346765"/>
     <use style="fill:#482374;stroke:#482374;" x="140.3" xlink:href="#mf9a03b7e0c" y="7.383068"/>
     <use style="fill:#482374;stroke:#482374;" x="143.9" xlink:href="#mf9a03b7e0c" y="14.691597"/>
     <use style="fill:#482374;stroke:#482374;" x="147.5" xlink:href="#mf9a03b7e0c" y="26.21731"/>
     <use style="fill:#482374;stroke:#482374;" x="151.1" xlink:href="#mf9a03b7e0c" y="6.911798"/>
     <use style="fill:#482374;stroke:#482374;" x="154.7" xlink:href="#mf9a03b7e0c" y="5.264706"/>
     <use style="fill:#482374;stroke:#482374;" x="158.3" xlink:href="#mf9a03b7e0c" y="5.264706"/>
     <use style="fill:#482374;stroke:#482374;" x="161.9" xlink:href="#mf9a03b7e0c" y="5.264706"/>
     <use style="fill:#482374;stroke:#482374;" x="165.5" xlink:href="#mf9a03b7e0c" y="5.264706"/>
    </g>
   </g>
   <g id="patch_3">
    <path d="M 3.5 183.5 
L 3.5 3.5 
" style="fill:none;stroke:#000000;stroke-linecap:square;stroke-linejoin:miter;stroke-width:0.8;"/>
   </g>
   <g id="patch_4">
    <path d="M 183.5 183.5 
L 183.5 3.5 
" style="fill:none;stroke:#000000;stroke-linecap:square;stroke-linejoin:miter;stroke-width:0.8;"/>
   </g>
   <g id="patch_5">
    <path d="M 3.5 183.5 
L 183.5 183.5 
" style="fill:none;stroke:#000000;stroke-linecap:square;stroke-linejoin:miter;stroke-width:0.8;"/>
   </g>
   <g id="patch_6">
    <path d="M 3.5 3.5 
L 183.5 3.5 
" style="fill:none;stroke:#000000;stroke-linecap:square;stroke-linejoin:miter;stroke-width:0.8;"/>
   </g>
  </g>
 </g>
 <defs>
  <clipPath id="p4e037b16f2">
   <rect height="180" width="180" x="3.5" y="3.5"/>
  </clipPath>
 </defs>
</svg>
