<?xml version="1.0" encoding="utf-8" standalone="no"?>
<!DOCTYPE svg PUBLIC "-//W3C//DTD SVG 1.1//EN"
  "http://www.w3.org/Graphics/SVG/1.1/DTD/svg11.dtd">
<!-- Created with matplotlib (http://matplotlib.org/) -->
<svg height="357pt" version="1.1" viewBox="0 0 439 357" width="439pt" xmlns="http://www.w3.org/2000/svg" xmlns:xlink="http://www.w3.org/1999/xlink">
 <defs>
  <style type="text/css">
*{stroke-linecap:butt;stroke-linejoin:round;}
  </style>
 </defs>
 <g id="figure_1">
  <g id="patch_1">
   <path d="M -0 357.116625 
L 439.17183 357.116625 
L 439.17183 -0 
L -0 -0 
z
" style="fill:#ffffff;"/>
  </g>
  <g id="axes_1">
   <g id="patch_2">
    <path d="M 109.614688 346.416625 
L 428.47183 346.416625 
L 428.47183 13.776625 
L 109.614688 13.776625 
z
" style="fill:#ffffff;"/>
   </g>
   <g id="matplotlib.axis_1"/>
   <g id="matplotlib.axis_2">
    <g id="ytick_1">
     <g id="line2d_1">
      <defs>
       <path d="M 0 0 
L -3.5 0 
" id="m4e78379276" style="stroke:#000000;stroke-width:0.8;"/>
      </defs>
      <g>
       <use style="stroke:#000000;stroke-width:0.8;" x="109.614688" xlink:href="#m4e78379276" y="323.657872"/>
      </g>
     </g>
     <g id="text_1">
      <!-- −0.0100 -->
      <defs>
       <path d="M 10.59375 35.5 
L 73.1875 35.5 
L 73.1875 27.203125 
L 10.59375 27.203125 
z
" id="DejaVuSans-2212"/>
       <path d="M 31.78125 66.40625 
Q 24.171875 66.40625 20.328125 58.90625 
Q 16.5 51.421875 16.5 36.375 
Q 16.5 21.390625 20.328125 13.890625 
Q 24.171875 6.390625 31.78125 6.390625 
Q 39.453125 6.390625 43.28125 13.890625 
Q 47.125 21.390625 47.125 36.375 
Q 47.125 51.421875 43.28125 58.90625 
Q 39.453125 66.40625 31.78125 66.40625 
z
M 31.78125 74.21875 
Q 44.046875 74.21875 50.515625 64.515625 
Q 56.984375 54.828125 56.984375 36.375 
Q 56.984375 17.96875 50.515625 8.265625 
Q 44.046875 -1.421875 31.78125 -1.421875 
Q 19.53125 -1.421875 13.0625 8.265625 
Q 6.59375 17.96875 6.59375 36.375 
Q 6.59375 54.828125 13.0625 64.515625 
Q 19.53125 74.21875 31.78125 74.21875 
z
" id="DejaVuSans-30"/>
       <path d="M 10.6875 12.40625 
L 21 12.40625 
L 21 0 
L 10.6875 0 
z
" id="DejaVuSans-2e"/>
       <path d="M 12.40625 8.296875 
L 28.515625 8.296875 
L 28.515625 63.921875 
L 10.984375 60.40625 
L 10.984375 69.390625 
L 28.421875 72.90625 
L 38.28125 72.90625 
L 38.28125 8.296875 
L 54.390625 8.296875 
L 54.390625 0 
L 12.40625 0 
z
" id="DejaVuSans-31"/>
      </defs>
      <g transform="translate(7.2 332.016154)scale(0.22 -0.22)">
       <use xlink:href="#DejaVuSans-2212"/>
       <use x="83.789062" xlink:href="#DejaVuSans-30"/>
       <use x="147.412109" xlink:href="#DejaVuSans-2e"/>
       <use x="179.199219" xlink:href="#DejaVuSans-30"/>
       <use x="242.822266" xlink:href="#DejaVuSans-31"/>
       <use x="306.445312" xlink:href="#DejaVuSans-30"/>
       <use x="370.068359" xlink:href="#DejaVuSans-30"/>
      </g>
     </g>
    </g>
    <g id="ytick_2">
     <g id="line2d_2">
      <g>
       <use style="stroke:#000000;stroke-width:0.8;" x="109.614688" xlink:href="#m4e78379276" y="285.145424"/>
      </g>
     </g>
     <g id="text_2">
      <!-- −0.0075 -->
      <defs>
       <path d="M 8.203125 72.90625 
L 55.078125 72.90625 
L 55.078125 68.703125 
L 28.609375 0 
L 18.3125 0 
L 43.21875 64.59375 
L 8.203125 64.59375 
z
" id="DejaVuSans-37"/>
       <path d="M 10.796875 72.90625 
L 49.515625 72.90625 
L 49.515625 64.59375 
L 19.828125 64.59375 
L 19.828125 46.734375 
Q 21.96875 47.46875 24.109375 47.828125 
Q 26.265625 48.1875 28.421875 48.1875 
Q 40.625 48.1875 47.75 41.5 
Q 54.890625 34.8125 54.890625 23.390625 
Q 54.890625 11.625 47.5625 5.09375 
Q 40.234375 -1.421875 26.90625 -1.421875 
Q 22.3125 -1.421875 17.546875 -0.640625 
Q 12.796875 0.140625 7.71875 1.703125 
L 7.71875 11.625 
Q 12.109375 9.234375 16.796875 8.0625 
Q 21.484375 6.890625 26.703125 6.890625 
Q 35.15625 6.890625 40.078125 11.328125 
Q 45.015625 15.765625 45.015625 23.390625 
Q 45.015625 31 40.078125 35.4375 
Q 35.15625 39.890625 26.703125 39.890625 
Q 22.75 39.890625 18.8125 39.015625 
Q 14.890625 38.140625 10.796875 36.28125 
z
" id="DejaVuSans-35"/>
      </defs>
      <g transform="translate(7.2 293.503705)scale(0.22 -0.22)">
       <use xlink:href="#DejaVuSans-2212"/>
       <use x="83.789062" xlink:href="#DejaVuSans-30"/>
       <use x="147.412109" xlink:href="#DejaVuSans-2e"/>
       <use x="179.199219" xlink:href="#DejaVuSans-30"/>
       <use x="242.822266" xlink:href="#DejaVuSans-30"/>
       <use x="306.445312" xlink:href="#DejaVuSans-37"/>
       <use x="370.068359" xlink:href="#DejaVuSans-35"/>
      </g>
     </g>
    </g>
    <g id="ytick_3">
     <g id="line2d_3">
      <g>
       <use style="stroke:#000000;stroke-width:0.8;" x="109.614688" xlink:href="#m4e78379276" y="246.632975"/>
      </g>
     </g>
     <g id="text_3">
      <!-- −0.0050 -->
      <g transform="translate(7.2 254.991256)scale(0.22 -0.22)">
       <use xlink:href="#DejaVuSans-2212"/>
       <use x="83.789062" xlink:href="#DejaVuSans-30"/>
       <use x="147.412109" xlink:href="#DejaVuSans-2e"/>
       <use x="179.199219" xlink:href="#DejaVuSans-30"/>
       <use x="242.822266" xlink:href="#DejaVuSans-30"/>
       <use x="306.445312" xlink:href="#DejaVuSans-35"/>
       <use x="370.068359" xlink:href="#DejaVuSans-30"/>
      </g>
     </g>
    </g>
    <g id="ytick_4">
     <g id="line2d_4">
      <g>
       <use style="stroke:#000000;stroke-width:0.8;" x="109.614688" xlink:href="#m4e78379276" y="208.120526"/>
      </g>
     </g>
     <g id="text_4">
      <!-- −0.0025 -->
      <defs>
       <path d="M 19.1875 8.296875 
L 53.609375 8.296875 
L 53.609375 0 
L 7.328125 0 
L 7.328125 8.296875 
Q 12.9375 14.109375 22.625 23.890625 
Q 32.328125 33.6875 34.8125 36.53125 
Q 39.546875 41.84375 41.421875 45.53125 
Q 43.3125 49.21875 43.3125 52.78125 
Q 43.3125 58.59375 39.234375 62.25 
Q 35.15625 65.921875 28.609375 65.921875 
Q 23.96875 65.921875 18.8125 64.3125 
Q 13.671875 62.703125 7.8125 59.421875 
L 7.8125 69.390625 
Q 13.765625 71.78125 18.9375 73 
Q 24.125 74.21875 28.421875 74.21875 
Q 39.75 74.21875 46.484375 68.546875 
Q 53.21875 62.890625 53.21875 53.421875 
Q 53.21875 48.921875 51.53125 44.890625 
Q 49.859375 40.875 45.40625 35.40625 
Q 44.1875 33.984375 37.640625 27.21875 
Q 31.109375 20.453125 19.1875 8.296875 
z
" id="DejaVuSans-32"/>
      </defs>
      <g transform="translate(7.2 216.478807)scale(0.22 -0.22)">
       <use xlink:href="#DejaVuSans-2212"/>
       <use x="83.789062" xlink:href="#DejaVuSans-30"/>
       <use x="147.412109" xlink:href="#DejaVuSans-2e"/>
       <use x="179.199219" xlink:href="#DejaVuSans-30"/>
       <use x="242.822266" xlink:href="#DejaVuSans-30"/>
       <use x="306.445312" xlink:href="#DejaVuSans-32"/>
       <use x="370.068359" xlink:href="#DejaVuSans-35"/>
      </g>
     </g>
    </g>
    <g id="ytick_5">
     <g id="line2d_5">
      <g>
       <use style="stroke:#000000;stroke-width:0.8;" x="109.614688" xlink:href="#m4e78379276" y="169.608077"/>
      </g>
     </g>
     <g id="text_5">
      <!-- 0.0000 -->
      <g transform="translate(25.635312 177.966358)scale(0.22 -0.22)">
       <use xlink:href="#DejaVuSans-30"/>
       <use x="63.623047" xlink:href="#DejaVuSans-2e"/>
       <use x="95.410156" xlink:href="#DejaVuSans-30"/>
       <use x="159.033203" xlink:href="#DejaVuSans-30"/>
       <use x="222.65625" xlink:href="#DejaVuSans-30"/>
       <use x="286.279297" xlink:href="#DejaVuSans-30"/>
      </g>
     </g>
    </g>
    <g id="ytick_6">
     <g id="line2d_6">
      <g>
       <use style="stroke:#000000;stroke-width:0.8;" x="109.614688" xlink:href="#m4e78379276" y="131.095628"/>
      </g>
     </g>
     <g id="text_6">
      <!-- 0.0025 -->
      <g transform="translate(25.635312 139.453909)scale(0.22 -0.22)">
       <use xlink:href="#DejaVuSans-30"/>
       <use x="63.623047" xlink:href="#DejaVuSans-2e"/>
       <use x="95.410156" xlink:href="#DejaVuSans-30"/>
       <use x="159.033203" xlink:href="#DejaVuSans-30"/>
       <use x="222.65625" xlink:href="#DejaVuSans-32"/>
       <use x="286.279297" xlink:href="#DejaVuSans-35"/>
      </g>
     </g>
    </g>
    <g id="ytick_7">
     <g id="line2d_7">
      <g>
       <use style="stroke:#000000;stroke-width:0.8;" x="109.614688" xlink:href="#m4e78379276" y="92.583179"/>
      </g>
     </g>
     <g id="text_7">
      <!-- 0.0050 -->
      <g transform="translate(25.635312 100.94146)scale(0.22 -0.22)">
       <use xlink:href="#DejaVuSans-30"/>
       <use x="63.623047" xlink:href="#DejaVuSans-2e"/>
       <use x="95.410156" xlink:href="#DejaVuSans-30"/>
       <use x="159.033203" xlink:href="#DejaVuSans-30"/>
       <use x="222.65625" xlink:href="#DejaVuSans-35"/>
       <use x="286.279297" xlink:href="#DejaVuSans-30"/>
      </g>
     </g>
    </g>
    <g id="ytick_8">
     <g id="line2d_8">
      <g>
       <use style="stroke:#000000;stroke-width:0.8;" x="109.614688" xlink:href="#m4e78379276" y="54.07073"/>
      </g>
     </g>
     <g id="text_8">
      <!-- 0.0075 -->
      <g transform="translate(25.635312 62.429011)scale(0.22 -0.22)">
       <use xlink:href="#DejaVuSans-30"/>
       <use x="63.623047" xlink:href="#DejaVuSans-2e"/>
       <use x="95.410156" xlink:href="#DejaVuSans-30"/>
       <use x="159.033203" xlink:href="#DejaVuSans-30"/>
       <use x="222.65625" xlink:href="#DejaVuSans-37"/>
       <use x="286.279297" xlink:href="#DejaVuSans-35"/>
      </g>
     </g>
    </g>
    <g id="ytick_9">
     <g id="line2d_9">
      <g>
       <use style="stroke:#000000;stroke-width:0.8;" x="109.614688" xlink:href="#m4e78379276" y="15.558281"/>
      </g>
     </g>
     <g id="text_9">
      <!-- 0.0100 -->
      <g transform="translate(25.635312 23.916562)scale(0.22 -0.22)">
       <use xlink:href="#DejaVuSans-30"/>
       <use x="63.623047" xlink:href="#DejaVuSans-2e"/>
       <use x="95.410156" xlink:href="#DejaVuSans-30"/>
       <use x="159.033203" xlink:href="#DejaVuSans-31"/>
       <use x="222.65625" xlink:href="#DejaVuSans-30"/>
       <use x="286.279297" xlink:href="#DejaVuSans-30"/>
      </g>
     </g>
    </g>
   </g>
   <g id="patch_3">
    <path clip-path="url(#pd95860f699)" d="M 124.108194 169.608077 
L 138.6017 169.608077 
L 138.6017 167.356422 
L 124.108194 167.356422 
z
" style="fill:#d92523;"/>
   </g>
   <g id="patch_4">
    <path clip-path="url(#pd95860f699)" d="M 138.6017 169.608077 
L 153.095207 169.608077 
L 153.095207 171.032554 
L 138.6017 171.032554 
z
" style="fill:#d92523;"/>
   </g>
   <g id="patch_5">
    <path clip-path="url(#pd95860f699)" d="M 153.095207 169.608077 
L 167.588713 169.608077 
L 167.588713 148.618808 
L 153.095207 148.618808 
z
" style="fill:#d92523;"/>
   </g>
   <g id="patch_6">
    <path clip-path="url(#pd95860f699)" d="M 167.588713 169.608077 
L 182.08222 169.608077 
L 182.08222 170.452854 
L 167.588713 170.452854 
z
" style="fill:#d92523;"/>
   </g>
   <g id="patch_7">
    <path clip-path="url(#pd95860f699)" d="M 182.08222 169.608077 
L 196.575726 169.608077 
L 196.575726 177.63666 
L 182.08222 177.63666 
z
" style="fill:#d92523;"/>
   </g>
   <g id="patch_8">
    <path clip-path="url(#pd95860f699)" d="M 196.575726 169.608077 
L 211.069233 169.608077 
L 211.069233 174.49109 
L 196.575726 174.49109 
z
" style="fill:#d92523;"/>
   </g>
   <g id="patch_9">
    <path clip-path="url(#pd95860f699)" d="M 211.069233 169.608077 
L 225.562739 169.608077 
L 225.562739 133.523967 
L 211.069233 133.523967 
z
" style="fill:#d92523;"/>
   </g>
   <g id="patch_10">
    <path clip-path="url(#pd95860f699)" d="M 225.562739 169.608077 
L 240.056246 169.608077 
L 240.056246 177.921605 
L 225.562739 177.921605 
z
" style="fill:#d92523;"/>
   </g>
   <g id="patch_11">
    <path clip-path="url(#pd95860f699)" d="M 240.056246 169.608077 
L 254.549752 169.608077 
L 254.549752 171.907396 
L 240.056246 171.907396 
z
" style="fill:#d92523;"/>
   </g>
   <g id="patch_12">
    <path clip-path="url(#pd95860f699)" d="M 254.549752 169.608077 
L 269.043259 169.608077 
L 269.043259 162.971651 
L 254.549752 162.971651 
z
" style="fill:#d92523;"/>
   </g>
   <g id="patch_13">
    <path clip-path="url(#pd95860f699)" d="M 269.043259 169.608077 
L 283.536765 169.608077 
L 283.536765 148.333351 
L 269.043259 148.333351 
z
" style="fill:#d92523;"/>
   </g>
   <g id="patch_14">
    <path clip-path="url(#pd95860f699)" d="M 283.536765 169.608077 
L 298.030272 169.608077 
L 298.030272 164.121734 
L 283.536765 164.121734 
z
" style="fill:#d92523;"/>
   </g>
   <g id="patch_15">
    <path clip-path="url(#pd95860f699)" d="M 298.030272 169.608077 
L 312.523778 169.608077 
L 312.523778 168.900666 
L 298.030272 168.900666 
z
" style="fill:#d92523;"/>
   </g>
   <g id="patch_16">
    <path clip-path="url(#pd95860f699)" d="M 312.523778 169.608077 
L 327.017285 169.608077 
L 327.017285 210.469412 
L 312.523778 210.469412 
z
" style="fill:#d92523;"/>
   </g>
   <g id="patch_17">
    <path clip-path="url(#pd95860f699)" d="M 327.017285 169.608077 
L 341.510791 169.608077 
L 341.510791 167.816975 
L 327.017285 167.816975 
z
" style="fill:#d92523;"/>
   </g>
   <g id="patch_18">
    <path clip-path="url(#pd95860f699)" d="M 341.510791 169.608077 
L 356.004298 169.608077 
L 356.004298 172.317666 
L 341.510791 172.317666 
z
" style="fill:#d92523;"/>
   </g>
   <g id="patch_19">
    <path clip-path="url(#pd95860f699)" d="M 356.004298 169.608077 
L 370.497804 169.608077 
L 370.497804 168.370287 
L 356.004298 168.370287 
z
" style="fill:#d92523;"/>
   </g>
   <g id="patch_20">
    <path clip-path="url(#pd95860f699)" d="M 370.497804 169.608077 
L 384.991311 169.608077 
L 384.991311 173.280791 
L 370.497804 173.280791 
z
" style="fill:#d92523;"/>
   </g>
   <g id="patch_21">
    <path clip-path="url(#pd95860f699)" d="M 384.991311 169.608077 
L 399.484817 169.608077 
L 399.484817 160.726065 
L 384.991311 160.726065 
z
" style="fill:#d92523;"/>
   </g>
   <g id="patch_22">
    <path clip-path="url(#pd95860f699)" d="M 399.484817 169.608077 
L 413.978324 169.608077 
L 413.978324 164.900666 
L 399.484817 164.900666 
z
" style="fill:#d92523;"/>
   </g>
   <g id="patch_23">
    <path clip-path="url(#pd95860f699)" d="M 124.108194 169.608077 
L 138.6017 169.608077 
L 138.6017 179.148981 
L 124.108194 179.148981 
z
" style="fill:#2e7ebc;"/>
   </g>
   <g id="patch_24">
    <path clip-path="url(#pd95860f699)" d="M 138.6017 169.608077 
L 153.095207 169.608077 
L 153.095207 168.25082 
L 138.6017 168.25082 
z
" style="fill:#2e7ebc;"/>
   </g>
   <g id="patch_25">
    <path clip-path="url(#pd95860f699)" d="M 153.095207 169.608077 
L 167.588713 169.608077 
L 167.588713 331.296625 
L 153.095207 331.296625 
z
" style="fill:#2e7ebc;"/>
   </g>
   <g id="patch_26">
    <path clip-path="url(#pd95860f699)" d="M 167.588713 169.608077 
L 182.08222 169.608077 
L 182.08222 173.904814 
L 167.588713 173.904814 
z
" style="fill:#2e7ebc;"/>
   </g>
   <g id="patch_27">
    <path clip-path="url(#pd95860f699)" d="M 182.08222 169.608077 
L 196.575726 169.608077 
L 196.575726 137.996716 
L 182.08222 137.996716 
z
" style="fill:#2e7ebc;"/>
   </g>
   <g id="patch_28">
    <path clip-path="url(#pd95860f699)" d="M 196.575726 169.608077 
L 211.069233 169.608077 
L 211.069233 161.932441 
L 196.575726 161.932441 
z
" style="fill:#2e7ebc;"/>
   </g>
   <g id="patch_29">
    <path clip-path="url(#pd95860f699)" d="M 211.069233 169.608077 
L 225.562739 169.608077 
L 225.562739 167.920905 
L 211.069233 167.920905 
z
" style="fill:#2e7ebc;"/>
   </g>
   <g id="patch_30">
    <path clip-path="url(#pd95860f699)" d="M 225.562739 169.608077 
L 240.056246 169.608077 
L 240.056246 178.160697 
L 225.562739 178.160697 
z
" style="fill:#2e7ebc;"/>
   </g>
   <g id="patch_31">
    <path clip-path="url(#pd95860f699)" d="M 240.056246 169.608077 
L 254.549752 169.608077 
L 254.549752 141.894974 
L 240.056246 141.894974 
z
" style="fill:#2e7ebc;"/>
   </g>
   <g id="patch_32">
    <path clip-path="url(#pd95860f699)" d="M 254.549752 169.608077 
L 269.043259 169.608077 
L 269.043259 182.030722 
L 254.549752 182.030722 
z
" style="fill:#2e7ebc;"/>
   </g>
   <g id="patch_33">
    <path clip-path="url(#pd95860f699)" d="M 269.043259 169.608077 
L 283.536765 169.608077 
L 283.536765 170.783571 
L 269.043259 170.783571 
z
" style="fill:#2e7ebc;"/>
   </g>
   <g id="patch_34">
    <path clip-path="url(#pd95860f699)" d="M 283.536765 169.608077 
L 298.030272 169.608077 
L 298.030272 188.231067 
L 283.536765 188.231067 
z
" style="fill:#2e7ebc;"/>
   </g>
   <g id="patch_35">
    <path clip-path="url(#pd95860f699)" d="M 298.030272 169.608077 
L 312.523778 169.608077 
L 312.523778 170.450197 
L 298.030272 170.450197 
z
" style="fill:#2e7ebc;"/>
   </g>
   <g id="patch_36">
    <path clip-path="url(#pd95860f699)" d="M 312.523778 169.608077 
L 327.017285 169.608077 
L 327.017285 28.896625 
L 312.523778 28.896625 
z
" style="fill:#2e7ebc;"/>
   </g>
   <g id="patch_37">
    <path clip-path="url(#pd95860f699)" d="M 327.017285 169.608077 
L 341.510791 169.608077 
L 341.510791 178.502977 
L 327.017285 178.502977 
z
" style="fill:#2e7ebc;"/>
   </g>
   <g id="patch_38">
    <path clip-path="url(#pd95860f699)" d="M 341.510791 169.608077 
L 356.004298 169.608077 
L 356.004298 167.17218 
L 341.510791 167.17218 
z
" style="fill:#2e7ebc;"/>
   </g>
   <g id="patch_39">
    <path clip-path="url(#pd95860f699)" d="M 356.004298 169.608077 
L 370.497804 169.608077 
L 370.497804 162.282508 
L 356.004298 162.282508 
z
" style="fill:#2e7ebc;"/>
   </g>
   <g id="patch_40">
    <path clip-path="url(#pd95860f699)" d="M 370.497804 169.608077 
L 384.991311 169.608077 
L 384.991311 182.566056 
L 370.497804 182.566056 
z
" style="fill:#2e7ebc;"/>
   </g>
   <g id="patch_41">
    <path clip-path="url(#pd95860f699)" d="M 384.991311 169.608077 
L 399.484817 169.608077 
L 399.484817 163.222544 
L 384.991311 163.222544 
z
" style="fill:#2e7ebc;"/>
   </g>
   <g id="patch_42">
    <path clip-path="url(#pd95860f699)" d="M 399.484817 169.608077 
L 413.978324 169.608077 
L 413.978324 226.027747 
L 399.484817 226.027747 
z
" style="fill:#2e7ebc;"/>
   </g>
   <g id="patch_43">
    <path d="M 109.614688 346.416625 
L 109.614688 13.776625 
" style="fill:none;stroke:#000000;stroke-linecap:square;stroke-linejoin:miter;stroke-width:0.8;"/>
   </g>
   <g id="patch_44">
    <path d="M 428.47183 346.416625 
L 428.47183 13.776625 
" style="fill:none;stroke:#000000;stroke-linecap:square;stroke-linejoin:miter;stroke-width:0.8;"/>
   </g>
   <g id="patch_45">
    <path d="M 109.614688 346.416625 
L 428.47183 346.416625 
" style="fill:none;stroke:#000000;stroke-linecap:square;stroke-linejoin:miter;stroke-width:0.8;"/>
   </g>
   <g id="patch_46">
    <path d="M 109.614688 13.776625 
L 428.47183 13.776625 
" style="fill:none;stroke:#000000;stroke-linecap:square;stroke-linejoin:miter;stroke-width:0.8;"/>
   </g>
   <g id="patch_47">
    <path clip-path="url(#pd95860f699)" d="M 124.108194 169.608077 
L 138.6017 169.608077 
L 138.6017 169.608077 
L 124.108194 169.608077 
z
" style="fill:none;stroke:#000000;stroke-linejoin:miter;"/>
   </g>
   <g id="patch_48">
    <path clip-path="url(#pd95860f699)" d="M 138.6017 169.608077 
L 153.095207 169.608077 
L 153.095207 169.608077 
L 138.6017 169.608077 
z
" style="fill:none;stroke:#000000;stroke-linejoin:miter;"/>
   </g>
   <g id="patch_49">
    <path clip-path="url(#pd95860f699)" d="M 153.095207 169.608077 
L 167.588713 169.608077 
L 167.588713 169.608077 
L 153.095207 169.608077 
z
" style="fill:none;stroke:#000000;stroke-linejoin:miter;"/>
   </g>
   <g id="patch_50">
    <path clip-path="url(#pd95860f699)" d="M 167.588713 169.608077 
L 182.08222 169.608077 
L 182.08222 169.608077 
L 167.588713 169.608077 
z
" style="fill:none;stroke:#000000;stroke-linejoin:miter;"/>
   </g>
   <g id="patch_51">
    <path clip-path="url(#pd95860f699)" d="M 182.08222 169.608077 
L 196.575726 169.608077 
L 196.575726 169.608077 
L 182.08222 169.608077 
z
" style="fill:none;stroke:#000000;stroke-linejoin:miter;"/>
   </g>
   <g id="patch_52">
    <path clip-path="url(#pd95860f699)" d="M 196.575726 169.608077 
L 211.069233 169.608077 
L 211.069233 169.608077 
L 196.575726 169.608077 
z
" style="fill:none;stroke:#000000;stroke-linejoin:miter;"/>
   </g>
   <g id="patch_53">
    <path clip-path="url(#pd95860f699)" d="M 211.069233 169.608077 
L 225.562739 169.608077 
L 225.562739 169.608077 
L 211.069233 169.608077 
z
" style="fill:none;stroke:#000000;stroke-linejoin:miter;"/>
   </g>
   <g id="patch_54">
    <path clip-path="url(#pd95860f699)" d="M 225.562739 169.608077 
L 240.056246 169.608077 
L 240.056246 169.608077 
L 225.562739 169.608077 
z
" style="fill:none;stroke:#000000;stroke-linejoin:miter;"/>
   </g>
   <g id="patch_55">
    <path clip-path="url(#pd95860f699)" d="M 240.056246 169.608077 
L 254.549752 169.608077 
L 254.549752 169.608077 
L 240.056246 169.608077 
z
" style="fill:none;stroke:#000000;stroke-linejoin:miter;"/>
   </g>
   <g id="patch_56">
    <path clip-path="url(#pd95860f699)" d="M 254.549752 169.608077 
L 269.043259 169.608077 
L 269.043259 169.608077 
L 254.549752 169.608077 
z
" style="fill:none;stroke:#000000;stroke-linejoin:miter;"/>
   </g>
   <g id="patch_57">
    <path clip-path="url(#pd95860f699)" d="M 269.043259 169.608077 
L 283.536765 169.608077 
L 283.536765 169.608077 
L 269.043259 169.608077 
z
" style="fill:none;stroke:#000000;stroke-linejoin:miter;"/>
   </g>
   <g id="patch_58">
    <path clip-path="url(#pd95860f699)" d="M 283.536765 169.608077 
L 298.030272 169.608077 
L 298.030272 169.608077 
L 283.536765 169.608077 
z
" style="fill:none;stroke:#000000;stroke-linejoin:miter;"/>
   </g>
   <g id="patch_59">
    <path clip-path="url(#pd95860f699)" d="M 298.030272 169.608077 
L 312.523778 169.608077 
L 312.523778 169.608077 
L 298.030272 169.608077 
z
" style="fill:none;stroke:#000000;stroke-linejoin:miter;"/>
   </g>
   <g id="patch_60">
    <path clip-path="url(#pd95860f699)" d="M 312.523778 169.608077 
L 327.017285 169.608077 
L 327.017285 169.608077 
L 312.523778 169.608077 
z
" style="fill:none;stroke:#000000;stroke-linejoin:miter;"/>
   </g>
   <g id="patch_61">
    <path clip-path="url(#pd95860f699)" d="M 327.017285 169.608077 
L 341.510791 169.608077 
L 341.510791 169.608077 
L 327.017285 169.608077 
z
" style="fill:none;stroke:#000000;stroke-linejoin:miter;"/>
   </g>
   <g id="patch_62">
    <path clip-path="url(#pd95860f699)" d="M 341.510791 169.608077 
L 356.004298 169.608077 
L 356.004298 169.608077 
L 341.510791 169.608077 
z
" style="fill:none;stroke:#000000;stroke-linejoin:miter;"/>
   </g>
   <g id="patch_63">
    <path clip-path="url(#pd95860f699)" d="M 356.004298 169.608077 
L 370.497804 169.608077 
L 370.497804 169.608077 
L 356.004298 169.608077 
z
" style="fill:none;stroke:#000000;stroke-linejoin:miter;"/>
   </g>
   <g id="patch_64">
    <path clip-path="url(#pd95860f699)" d="M 370.497804 169.608077 
L 384.991311 169.608077 
L 384.991311 169.608077 
L 370.497804 169.608077 
z
" style="fill:none;stroke:#000000;stroke-linejoin:miter;"/>
   </g>
   <g id="patch_65">
    <path clip-path="url(#pd95860f699)" d="M 384.991311 169.608077 
L 399.484817 169.608077 
L 399.484817 169.608077 
L 384.991311 169.608077 
z
" style="fill:none;stroke:#000000;stroke-linejoin:miter;"/>
   </g>
   <g id="patch_66">
    <path clip-path="url(#pd95860f699)" d="M 399.484817 169.608077 
L 413.978324 169.608077 
L 413.978324 169.608077 
L 399.484817 169.608077 
z
" style="fill:none;stroke:#000000;stroke-linejoin:miter;"/>
   </g>
   <g id="patch_67">
    <path clip-path="url(#pd95860f699)" d="M 124.108194 169.608077 
L 138.6017 169.608077 
L 138.6017 169.608077 
L 124.108194 169.608077 
z
" style="fill:none;stroke:#000000;stroke-linejoin:miter;"/>
   </g>
   <g id="patch_68">
    <path clip-path="url(#pd95860f699)" d="M 138.6017 169.608077 
L 153.095207 169.608077 
L 153.095207 169.608077 
L 138.6017 169.608077 
z
" style="fill:none;stroke:#000000;stroke-linejoin:miter;"/>
   </g>
   <g id="patch_69">
    <path clip-path="url(#pd95860f699)" d="M 153.095207 169.608077 
L 167.588713 169.608077 
L 167.588713 169.608077 
L 153.095207 169.608077 
z
" style="fill:none;stroke:#000000;stroke-linejoin:miter;"/>
   </g>
   <g id="patch_70">
    <path clip-path="url(#pd95860f699)" d="M 167.588713 169.608077 
L 182.08222 169.608077 
L 182.08222 169.608077 
L 167.588713 169.608077 
z
" style="fill:none;stroke:#000000;stroke-linejoin:miter;"/>
   </g>
   <g id="patch_71">
    <path clip-path="url(#pd95860f699)" d="M 182.08222 169.608077 
L 196.575726 169.608077 
L 196.575726 169.608077 
L 182.08222 169.608077 
z
" style="fill:none;stroke:#000000;stroke-linejoin:miter;"/>
   </g>
   <g id="patch_72">
    <path clip-path="url(#pd95860f699)" d="M 196.575726 169.608077 
L 211.069233 169.608077 
L 211.069233 169.608077 
L 196.575726 169.608077 
z
" style="fill:none;stroke:#000000;stroke-linejoin:miter;"/>
   </g>
   <g id="patch_73">
    <path clip-path="url(#pd95860f699)" d="M 211.069233 169.608077 
L 225.562739 169.608077 
L 225.562739 169.608077 
L 211.069233 169.608077 
z
" style="fill:none;stroke:#000000;stroke-linejoin:miter;"/>
   </g>
   <g id="patch_74">
    <path clip-path="url(#pd95860f699)" d="M 225.562739 169.608077 
L 240.056246 169.608077 
L 240.056246 169.608077 
L 225.562739 169.608077 
z
" style="fill:none;stroke:#000000;stroke-linejoin:miter;"/>
   </g>
   <g id="patch_75">
    <path clip-path="url(#pd95860f699)" d="M 240.056246 169.608077 
L 254.549752 169.608077 
L 254.549752 169.608077 
L 240.056246 169.608077 
z
" style="fill:none;stroke:#000000;stroke-linejoin:miter;"/>
   </g>
   <g id="patch_76">
    <path clip-path="url(#pd95860f699)" d="M 254.549752 169.608077 
L 269.043259 169.608077 
L 269.043259 169.608077 
L 254.549752 169.608077 
z
" style="fill:none;stroke:#000000;stroke-linejoin:miter;"/>
   </g>
   <g id="patch_77">
    <path clip-path="url(#pd95860f699)" d="M 269.043259 169.608077 
L 283.536765 169.608077 
L 283.536765 169.608077 
L 269.043259 169.608077 
z
" style="fill:none;stroke:#000000;stroke-linejoin:miter;"/>
   </g>
   <g id="patch_78">
    <path clip-path="url(#pd95860f699)" d="M 283.536765 169.608077 
L 298.030272 169.608077 
L 298.030272 169.608077 
L 283.536765 169.608077 
z
" style="fill:none;stroke:#000000;stroke-linejoin:miter;"/>
   </g>
   <g id="patch_79">
    <path clip-path="url(#pd95860f699)" d="M 298.030272 169.608077 
L 312.523778 169.608077 
L 312.523778 169.608077 
L 298.030272 169.608077 
z
" style="fill:none;stroke:#000000;stroke-linejoin:miter;"/>
   </g>
   <g id="patch_80">
    <path clip-path="url(#pd95860f699)" d="M 312.523778 169.608077 
L 327.017285 169.608077 
L 327.017285 169.608077 
L 312.523778 169.608077 
z
" style="fill:none;stroke:#000000;stroke-linejoin:miter;"/>
   </g>
   <g id="patch_81">
    <path clip-path="url(#pd95860f699)" d="M 327.017285 169.608077 
L 341.510791 169.608077 
L 341.510791 169.608077 
L 327.017285 169.608077 
z
" style="fill:none;stroke:#000000;stroke-linejoin:miter;"/>
   </g>
   <g id="patch_82">
    <path clip-path="url(#pd95860f699)" d="M 341.510791 169.608077 
L 356.004298 169.608077 
L 356.004298 169.608077 
L 341.510791 169.608077 
z
" style="fill:none;stroke:#000000;stroke-linejoin:miter;"/>
   </g>
   <g id="patch_83">
    <path clip-path="url(#pd95860f699)" d="M 356.004298 169.608077 
L 370.497804 169.608077 
L 370.497804 169.608077 
L 356.004298 169.608077 
z
" style="fill:none;stroke:#000000;stroke-linejoin:miter;"/>
   </g>
   <g id="patch_84">
    <path clip-path="url(#pd95860f699)" d="M 370.497804 169.608077 
L 384.991311 169.608077 
L 384.991311 169.608077 
L 370.497804 169.608077 
z
" style="fill:none;stroke:#000000;stroke-linejoin:miter;"/>
   </g>
   <g id="patch_85">
    <path clip-path="url(#pd95860f699)" d="M 384.991311 169.608077 
L 399.484817 169.608077 
L 399.484817 169.608077 
L 384.991311 169.608077 
z
" style="fill:none;stroke:#000000;stroke-linejoin:miter;"/>
   </g>
   <g id="patch_86">
    <path clip-path="url(#pd95860f699)" d="M 399.484817 169.608077 
L 413.978324 169.608077 
L 413.978324 169.608077 
L 399.484817 169.608077 
z
" style="fill:none;stroke:#000000;stroke-linejoin:miter;"/>
   </g>
  </g>
 </g>
 <defs>
  <clipPath id="pd95860f699">
   <rect height="332.64" width="318.857143" x="109.614688" y="13.776625"/>
  </clipPath>
 </defs>
</svg>
