<?xml version="1.0" encoding="utf-8" standalone="no"?>
<!DOCTYPE svg PUBLIC "-//W3C//DTD SVG 1.1//EN"
  "http://www.w3.org/Graphics/SVG/1.1/DTD/svg11.dtd">
<!-- Created with matplotlib (http://matplotlib.org/) -->
<svg height="354pt" version="1.1" viewBox="0 0 425 354" width="425pt" xmlns="http://www.w3.org/2000/svg" xmlns:xlink="http://www.w3.org/1999/xlink">
 <defs>
  <style type="text/css">
*{stroke-linecap:butt;stroke-linejoin:round;}
  </style>
 </defs>
 <g id="figure_1">
  <g id="patch_1">
   <path d="M 0 354.04 
L 425.17433 354.04 
L 425.17433 0 
L 0 0 
z
" style="fill:#ffffff;"/>
  </g>
  <g id="axes_1">
   <g id="patch_2">
    <path d="M 95.617188 343.34 
L 414.47433 343.34 
L 414.47433 10.7 
L 95.617188 10.7 
z
" style="fill:#ffffff;"/>
   </g>
   <g id="matplotlib.axis_1"/>
   <g id="matplotlib.axis_2">
    <g id="ytick_1">
     <g id="line2d_1">
      <defs>
       <path d="M 0 0 
L -3.5 0 
" id="mebc318c95a" style="stroke:#000000;stroke-width:0.8;"/>
      </defs>
      <g>
       <use style="stroke:#000000;stroke-width:0.8;" x="95.617188" xlink:href="#mebc318c95a" y="318.059338"/>
      </g>
     </g>
     <g id="text_1">
      <!-- −0.002 -->
      <defs>
       <path d="M 10.59375 35.5 
L 73.1875 35.5 
L 73.1875 27.203125 
L 10.59375 27.203125 
z
" id="DejaVuSans-2212"/>
       <path d="M 31.78125 66.40625 
Q 24.171875 66.40625 20.328125 58.90625 
Q 16.5 51.421875 16.5 36.375 
Q 16.5 21.390625 20.328125 13.890625 
Q 24.171875 6.390625 31.78125 6.390625 
Q 39.453125 6.390625 43.28125 13.890625 
Q 47.125 21.390625 47.125 36.375 
Q 47.125 51.421875 43.28125 58.90625 
Q 39.453125 66.40625 31.78125 66.40625 
z
M 31.78125 74.21875 
Q 44.046875 74.21875 50.515625 64.515625 
Q 56.984375 54.828125 56.984375 36.375 
Q 56.984375 17.96875 50.515625 8.265625 
Q 44.046875 -1.421875 31.78125 -1.421875 
Q 19.53125 -1.421875 13.0625 8.265625 
Q 6.59375 17.96875 6.59375 36.375 
Q 6.59375 54.828125 13.0625 64.515625 
Q 19.53125 74.21875 31.78125 74.21875 
z
" id="DejaVuSans-30"/>
       <path d="M 10.6875 12.40625 
L 21 12.40625 
L 21 0 
L 10.6875 0 
z
" id="DejaVuSans-2e"/>
       <path d="M 19.1875 8.296875 
L 53.609375 8.296875 
L 53.609375 0 
L 7.328125 0 
L 7.328125 8.296875 
Q 12.9375 14.109375 22.625 23.890625 
Q 32.328125 33.6875 34.8125 36.53125 
Q 39.546875 41.84375 41.421875 45.53125 
Q 43.3125 49.21875 43.3125 52.78125 
Q 43.3125 58.59375 39.234375 62.25 
Q 35.15625 65.921875 28.609375 65.921875 
Q 23.96875 65.921875 18.8125 64.3125 
Q 13.671875 62.703125 7.8125 59.421875 
L 7.8125 69.390625 
Q 13.765625 71.78125 18.9375 73 
Q 24.125 74.21875 28.421875 74.21875 
Q 39.75 74.21875 46.484375 68.546875 
Q 53.21875 62.890625 53.21875 53.421875 
Q 53.21875 48.921875 51.53125 44.890625 
Q 49.859375 40.875 45.40625 35.40625 
Q 44.1875 33.984375 37.640625 27.21875 
Q 31.109375 20.453125 19.1875 8.296875 
z
" id="DejaVuSans-32"/>
      </defs>
      <g transform="translate(7.2 326.417619)scale(0.22 -0.22)">
       <use xlink:href="#DejaVuSans-2212"/>
       <use x="83.789062" xlink:href="#DejaVuSans-30"/>
       <use x="147.412109" xlink:href="#DejaVuSans-2e"/>
       <use x="179.199219" xlink:href="#DejaVuSans-30"/>
       <use x="242.822266" xlink:href="#DejaVuSans-30"/>
       <use x="306.445312" xlink:href="#DejaVuSans-32"/>
      </g>
     </g>
    </g>
    <g id="ytick_2">
     <g id="line2d_2">
      <g>
       <use style="stroke:#000000;stroke-width:0.8;" x="95.617188" xlink:href="#mebc318c95a" y="253.779971"/>
      </g>
     </g>
     <g id="text_2">
      <!-- −0.001 -->
      <defs>
       <path d="M 12.40625 8.296875 
L 28.515625 8.296875 
L 28.515625 63.921875 
L 10.984375 60.40625 
L 10.984375 69.390625 
L 28.421875 72.90625 
L 38.28125 72.90625 
L 38.28125 8.296875 
L 54.390625 8.296875 
L 54.390625 0 
L 12.40625 0 
z
" id="DejaVuSans-31"/>
      </defs>
      <g transform="translate(7.2 262.138253)scale(0.22 -0.22)">
       <use xlink:href="#DejaVuSans-2212"/>
       <use x="83.789062" xlink:href="#DejaVuSans-30"/>
       <use x="147.412109" xlink:href="#DejaVuSans-2e"/>
       <use x="179.199219" xlink:href="#DejaVuSans-30"/>
       <use x="242.822266" xlink:href="#DejaVuSans-30"/>
       <use x="306.445312" xlink:href="#DejaVuSans-31"/>
      </g>
     </g>
    </g>
    <g id="ytick_3">
     <g id="line2d_3">
      <g>
       <use style="stroke:#000000;stroke-width:0.8;" x="95.617188" xlink:href="#mebc318c95a" y="189.500605"/>
      </g>
     </g>
     <g id="text_3">
      <!-- 0.000 -->
      <g transform="translate(25.635312 197.858886)scale(0.22 -0.22)">
       <use xlink:href="#DejaVuSans-30"/>
       <use x="63.623047" xlink:href="#DejaVuSans-2e"/>
       <use x="95.410156" xlink:href="#DejaVuSans-30"/>
       <use x="159.033203" xlink:href="#DejaVuSans-30"/>
       <use x="222.65625" xlink:href="#DejaVuSans-30"/>
      </g>
     </g>
    </g>
    <g id="ytick_4">
     <g id="line2d_4">
      <g>
       <use style="stroke:#000000;stroke-width:0.8;" x="95.617188" xlink:href="#mebc318c95a" y="125.221238"/>
      </g>
     </g>
     <g id="text_4">
      <!-- 0.001 -->
      <g transform="translate(25.635312 133.579519)scale(0.22 -0.22)">
       <use xlink:href="#DejaVuSans-30"/>
       <use x="63.623047" xlink:href="#DejaVuSans-2e"/>
       <use x="95.410156" xlink:href="#DejaVuSans-30"/>
       <use x="159.033203" xlink:href="#DejaVuSans-30"/>
       <use x="222.65625" xlink:href="#DejaVuSans-31"/>
      </g>
     </g>
    </g>
    <g id="ytick_5">
     <g id="line2d_5">
      <g>
       <use style="stroke:#000000;stroke-width:0.8;" x="95.617188" xlink:href="#mebc318c95a" y="60.941871"/>
      </g>
     </g>
     <g id="text_5">
      <!-- 0.002 -->
      <g transform="translate(25.635312 69.300152)scale(0.22 -0.22)">
       <use xlink:href="#DejaVuSans-30"/>
       <use x="63.623047" xlink:href="#DejaVuSans-2e"/>
       <use x="95.410156" xlink:href="#DejaVuSans-30"/>
       <use x="159.033203" xlink:href="#DejaVuSans-30"/>
       <use x="222.65625" xlink:href="#DejaVuSans-32"/>
      </g>
     </g>
    </g>
   </g>
   <g id="patch_3">
    <path clip-path="url(#pde64f5e42c)" d="M 110.110694 189.500605 
L 124.6042 189.500605 
L 124.6042 137.657601 
L 110.110694 137.657601 
z
" style="fill:#d92523;"/>
   </g>
   <g id="patch_4">
    <path clip-path="url(#pde64f5e42c)" d="M 124.6042 189.500605 
L 139.097707 189.500605 
L 139.097707 226.781419 
L 124.6042 226.781419 
z
" style="fill:#d92523;"/>
   </g>
   <g id="patch_5">
    <path clip-path="url(#pde64f5e42c)" d="M 139.097707 189.500605 
L 153.591213 189.500605 
L 153.591213 191.864877 
L 139.097707 191.864877 
z
" style="fill:#d92523;"/>
   </g>
   <g id="patch_6">
    <path clip-path="url(#pde64f5e42c)" d="M 153.591213 189.500605 
L 168.08472 189.500605 
L 168.08472 209.357864 
L 153.591213 209.357864 
z
" style="fill:#d92523;"/>
   </g>
   <g id="patch_7">
    <path clip-path="url(#pde64f5e42c)" d="M 168.08472 189.500605 
L 182.578226 189.500605 
L 182.578226 206.417178 
L 168.08472 206.417178 
z
" style="fill:#d92523;"/>
   </g>
   <g id="patch_8">
    <path clip-path="url(#pde64f5e42c)" d="M 182.578226 189.500605 
L 197.071733 189.500605 
L 197.071733 185.265994 
L 182.578226 185.265994 
z
" style="fill:#d92523;"/>
   </g>
   <g id="patch_9">
    <path clip-path="url(#pde64f5e42c)" d="M 197.071733 189.500605 
L 211.565239 189.500605 
L 211.565239 134.393187 
L 197.071733 134.393187 
z
" style="fill:#d92523;"/>
   </g>
   <g id="patch_10">
    <path clip-path="url(#pde64f5e42c)" d="M 211.565239 189.500605 
L 226.058746 189.500605 
L 226.058746 186.900271 
L 211.565239 186.900271 
z
" style="fill:#d92523;"/>
   </g>
   <g id="patch_11">
    <path clip-path="url(#pde64f5e42c)" d="M 226.058746 189.500605 
L 240.552252 189.500605 
L 240.552252 199.65228 
L 226.058746 199.65228 
z
" style="fill:#d92523;"/>
   </g>
   <g id="patch_12">
    <path clip-path="url(#pde64f5e42c)" d="M 240.552252 189.500605 
L 255.045759 189.500605 
L 255.045759 195.460474 
L 240.552252 195.460474 
z
" style="fill:#d92523;"/>
   </g>
   <g id="patch_13">
    <path clip-path="url(#pde64f5e42c)" d="M 255.045759 189.500605 
L 269.539265 189.500605 
L 269.539265 228.189304 
L 255.045759 228.189304 
z
" style="fill:#d92523;"/>
   </g>
   <g id="patch_14">
    <path clip-path="url(#pde64f5e42c)" d="M 269.539265 189.500605 
L 284.032772 189.500605 
L 284.032772 202.061432 
L 269.539265 202.061432 
z
" style="fill:#d92523;"/>
   </g>
   <g id="patch_15">
    <path clip-path="url(#pde64f5e42c)" d="M 284.032772 189.500605 
L 298.526278 189.500605 
L 298.526278 193.001955 
L 284.032772 193.001955 
z
" style="fill:#d92523;"/>
   </g>
   <g id="patch_16">
    <path clip-path="url(#pde64f5e42c)" d="M 298.526278 189.500605 
L 313.019785 189.500605 
L 313.019785 190.752412 
L 298.526278 190.752412 
z
" style="fill:#d92523;"/>
   </g>
   <g id="patch_17">
    <path clip-path="url(#pde64f5e42c)" d="M 313.019785 189.500605 
L 327.513291 189.500605 
L 327.513291 188.506177 
L 313.019785 188.506177 
z
" style="fill:#d92523;"/>
   </g>
   <g id="patch_18">
    <path clip-path="url(#pde64f5e42c)" d="M 327.513291 189.500605 
L 342.006798 189.500605 
L 342.006798 205.260588 
L 327.513291 205.260588 
z
" style="fill:#d92523;"/>
   </g>
   <g id="patch_19">
    <path clip-path="url(#pde64f5e42c)" d="M 342.006798 189.500605 
L 356.500304 189.500605 
L 356.500304 267.514389 
L 342.006798 267.514389 
z
" style="fill:#d92523;"/>
   </g>
   <g id="patch_20">
    <path clip-path="url(#pde64f5e42c)" d="M 356.500304 189.500605 
L 370.993811 189.500605 
L 370.993811 203.299635 
L 356.500304 203.299635 
z
" style="fill:#d92523;"/>
   </g>
   <g id="patch_21">
    <path clip-path="url(#pde64f5e42c)" d="M 370.993811 189.500605 
L 385.487317 189.500605 
L 385.487317 192.699476 
L 370.993811 192.699476 
z
" style="fill:#d92523;"/>
   </g>
   <g id="patch_22">
    <path clip-path="url(#pde64f5e42c)" d="M 385.487317 189.500605 
L 399.980824 189.500605 
L 399.980824 177.772527 
L 385.487317 177.772527 
z
" style="fill:#d92523;"/>
   </g>
   <g id="patch_23">
    <path clip-path="url(#pde64f5e42c)" d="M 110.110694 189.500605 
L 124.6042 189.500605 
L 124.6042 217.872556 
L 110.110694 217.872556 
z
" style="fill:#2e7ebc;"/>
   </g>
   <g id="patch_24">
    <path clip-path="url(#pde64f5e42c)" d="M 124.6042 189.500605 
L 139.097707 189.500605 
L 139.097707 192.581585 
L 124.6042 192.581585 
z
" style="fill:#2e7ebc;"/>
   </g>
   <g id="patch_25">
    <path clip-path="url(#pde64f5e42c)" d="M 139.097707 189.500605 
L 153.591213 189.500605 
L 153.591213 135.424581 
L 139.097707 135.424581 
z
" style="fill:#2e7ebc;"/>
   </g>
   <g id="patch_26">
    <path clip-path="url(#pde64f5e42c)" d="M 153.591213 189.500605 
L 168.08472 189.500605 
L 168.08472 148.144093 
L 153.591213 148.144093 
z
" style="fill:#2e7ebc;"/>
   </g>
   <g id="patch_27">
    <path clip-path="url(#pde64f5e42c)" d="M 168.08472 189.500605 
L 182.578226 189.500605 
L 182.578226 328.22 
L 168.08472 328.22 
z
" style="fill:#2e7ebc;"/>
   </g>
   <g id="patch_28">
    <path clip-path="url(#pde64f5e42c)" d="M 182.578226 189.500605 
L 197.071733 189.500605 
L 197.071733 316.277018 
L 182.578226 316.277018 
z
" style="fill:#2e7ebc;"/>
   </g>
   <g id="patch_29">
    <path clip-path="url(#pde64f5e42c)" d="M 197.071733 189.500605 
L 211.565239 189.500605 
L 211.565239 161.778642 
L 197.071733 161.778642 
z
" style="fill:#2e7ebc;"/>
   </g>
   <g id="patch_30">
    <path clip-path="url(#pde64f5e42c)" d="M 211.565239 189.500605 
L 226.058746 189.500605 
L 226.058746 87.600233 
L 211.565239 87.600233 
z
" style="fill:#2e7ebc;"/>
   </g>
   <g id="patch_31">
    <path clip-path="url(#pde64f5e42c)" d="M 226.058746 189.500605 
L 240.552252 189.500605 
L 240.552252 208.908929 
L 226.058746 208.908929 
z
" style="fill:#2e7ebc;"/>
   </g>
   <g id="patch_32">
    <path clip-path="url(#pde64f5e42c)" d="M 240.552252 189.500605 
L 255.045759 189.500605 
L 255.045759 179.651153 
L 240.552252 179.651153 
z
" style="fill:#2e7ebc;"/>
   </g>
   <g id="patch_33">
    <path clip-path="url(#pde64f5e42c)" d="M 255.045759 189.500605 
L 269.539265 189.500605 
L 269.539265 190.82693 
L 255.045759 190.82693 
z
" style="fill:#2e7ebc;"/>
   </g>
   <g id="patch_34">
    <path clip-path="url(#pde64f5e42c)" d="M 269.539265 189.500605 
L 284.032772 189.500605 
L 284.032772 230.814245 
L 269.539265 230.814245 
z
" style="fill:#2e7ebc;"/>
   </g>
   <g id="patch_35">
    <path clip-path="url(#pde64f5e42c)" d="M 284.032772 189.500605 
L 298.526278 189.500605 
L 298.526278 199.230197 
L 284.032772 199.230197 
z
" style="fill:#2e7ebc;"/>
   </g>
   <g id="patch_36">
    <path clip-path="url(#pde64f5e42c)" d="M 298.526278 189.500605 
L 313.019785 189.500605 
L 313.019785 237.104047 
L 298.526278 237.104047 
z
" style="fill:#2e7ebc;"/>
   </g>
   <g id="patch_37">
    <path clip-path="url(#pde64f5e42c)" d="M 313.019785 189.500605 
L 327.513291 189.500605 
L 327.513291 271.844914 
L 313.019785 271.844914 
z
" style="fill:#2e7ebc;"/>
   </g>
   <g id="patch_38">
    <path clip-path="url(#pde64f5e42c)" d="M 327.513291 189.500605 
L 342.006798 189.500605 
L 342.006798 182.313973 
L 327.513291 182.313973 
z
" style="fill:#2e7ebc;"/>
   </g>
   <g id="patch_39">
    <path clip-path="url(#pde64f5e42c)" d="M 342.006798 189.500605 
L 356.500304 189.500605 
L 356.500304 25.82 
L 342.006798 25.82 
z
" style="fill:#2e7ebc;"/>
   </g>
   <g id="patch_40">
    <path clip-path="url(#pde64f5e42c)" d="M 356.500304 189.500605 
L 370.993811 189.500605 
L 370.993811 178.731566 
L 356.500304 178.731566 
z
" style="fill:#2e7ebc;"/>
   </g>
   <g id="patch_41">
    <path clip-path="url(#pde64f5e42c)" d="M 370.993811 189.500605 
L 385.487317 189.500605 
L 385.487317 270.942685 
L 370.993811 270.942685 
z
" style="fill:#2e7ebc;"/>
   </g>
   <g id="patch_42">
    <path clip-path="url(#pde64f5e42c)" d="M 385.487317 189.500605 
L 399.980824 189.500605 
L 399.980824 218.724033 
L 385.487317 218.724033 
z
" style="fill:#2e7ebc;"/>
   </g>
   <g id="patch_43">
    <path d="M 95.617188 343.34 
L 95.617188 10.7 
" style="fill:none;stroke:#000000;stroke-linecap:square;stroke-linejoin:miter;stroke-width:0.8;"/>
   </g>
   <g id="patch_44">
    <path d="M 414.47433 343.34 
L 414.47433 10.7 
" style="fill:none;stroke:#000000;stroke-linecap:square;stroke-linejoin:miter;stroke-width:0.8;"/>
   </g>
   <g id="patch_45">
    <path d="M 95.617188 343.34 
L 414.47433 343.34 
" style="fill:none;stroke:#000000;stroke-linecap:square;stroke-linejoin:miter;stroke-width:0.8;"/>
   </g>
   <g id="patch_46">
    <path d="M 95.617188 10.7 
L 414.47433 10.7 
" style="fill:none;stroke:#000000;stroke-linecap:square;stroke-linejoin:miter;stroke-width:0.8;"/>
   </g>
   <g id="patch_47">
    <path clip-path="url(#pde64f5e42c)" d="M 110.110694 189.500605 
L 124.6042 189.500605 
L 124.6042 189.500605 
L 110.110694 189.500605 
z
" style="fill:none;stroke:#000000;stroke-linejoin:miter;"/>
   </g>
   <g id="patch_48">
    <path clip-path="url(#pde64f5e42c)" d="M 124.6042 189.500605 
L 139.097707 189.500605 
L 139.097707 189.500605 
L 124.6042 189.500605 
z
" style="fill:none;stroke:#000000;stroke-linejoin:miter;"/>
   </g>
   <g id="patch_49">
    <path clip-path="url(#pde64f5e42c)" d="M 139.097707 189.500605 
L 153.591213 189.500605 
L 153.591213 189.500605 
L 139.097707 189.500605 
z
" style="fill:none;stroke:#000000;stroke-linejoin:miter;"/>
   </g>
   <g id="patch_50">
    <path clip-path="url(#pde64f5e42c)" d="M 153.591213 189.500605 
L 168.08472 189.500605 
L 168.08472 189.500605 
L 153.591213 189.500605 
z
" style="fill:none;stroke:#000000;stroke-linejoin:miter;"/>
   </g>
   <g id="patch_51">
    <path clip-path="url(#pde64f5e42c)" d="M 168.08472 189.500605 
L 182.578226 189.500605 
L 182.578226 189.500605 
L 168.08472 189.500605 
z
" style="fill:none;stroke:#000000;stroke-linejoin:miter;"/>
   </g>
   <g id="patch_52">
    <path clip-path="url(#pde64f5e42c)" d="M 182.578226 189.500605 
L 197.071733 189.500605 
L 197.071733 189.500605 
L 182.578226 189.500605 
z
" style="fill:none;stroke:#000000;stroke-linejoin:miter;"/>
   </g>
   <g id="patch_53">
    <path clip-path="url(#pde64f5e42c)" d="M 197.071733 189.500605 
L 211.565239 189.500605 
L 211.565239 189.500605 
L 197.071733 189.500605 
z
" style="fill:none;stroke:#000000;stroke-linejoin:miter;"/>
   </g>
   <g id="patch_54">
    <path clip-path="url(#pde64f5e42c)" d="M 211.565239 189.500605 
L 226.058746 189.500605 
L 226.058746 189.500605 
L 211.565239 189.500605 
z
" style="fill:none;stroke:#000000;stroke-linejoin:miter;"/>
   </g>
   <g id="patch_55">
    <path clip-path="url(#pde64f5e42c)" d="M 226.058746 189.500605 
L 240.552252 189.500605 
L 240.552252 189.500605 
L 226.058746 189.500605 
z
" style="fill:none;stroke:#000000;stroke-linejoin:miter;"/>
   </g>
   <g id="patch_56">
    <path clip-path="url(#pde64f5e42c)" d="M 240.552252 189.500605 
L 255.045759 189.500605 
L 255.045759 189.500605 
L 240.552252 189.500605 
z
" style="fill:none;stroke:#000000;stroke-linejoin:miter;"/>
   </g>
   <g id="patch_57">
    <path clip-path="url(#pde64f5e42c)" d="M 255.045759 189.500605 
L 269.539265 189.500605 
L 269.539265 189.500605 
L 255.045759 189.500605 
z
" style="fill:none;stroke:#000000;stroke-linejoin:miter;"/>
   </g>
   <g id="patch_58">
    <path clip-path="url(#pde64f5e42c)" d="M 269.539265 189.500605 
L 284.032772 189.500605 
L 284.032772 189.500605 
L 269.539265 189.500605 
z
" style="fill:none;stroke:#000000;stroke-linejoin:miter;"/>
   </g>
   <g id="patch_59">
    <path clip-path="url(#pde64f5e42c)" d="M 284.032772 189.500605 
L 298.526278 189.500605 
L 298.526278 189.500605 
L 284.032772 189.500605 
z
" style="fill:none;stroke:#000000;stroke-linejoin:miter;"/>
   </g>
   <g id="patch_60">
    <path clip-path="url(#pde64f5e42c)" d="M 298.526278 189.500605 
L 313.019785 189.500605 
L 313.019785 189.500605 
L 298.526278 189.500605 
z
" style="fill:none;stroke:#000000;stroke-linejoin:miter;"/>
   </g>
   <g id="patch_61">
    <path clip-path="url(#pde64f5e42c)" d="M 313.019785 189.500605 
L 327.513291 189.500605 
L 327.513291 189.500605 
L 313.019785 189.500605 
z
" style="fill:none;stroke:#000000;stroke-linejoin:miter;"/>
   </g>
   <g id="patch_62">
    <path clip-path="url(#pde64f5e42c)" d="M 327.513291 189.500605 
L 342.006798 189.500605 
L 342.006798 189.500605 
L 327.513291 189.500605 
z
" style="fill:none;stroke:#000000;stroke-linejoin:miter;"/>
   </g>
   <g id="patch_63">
    <path clip-path="url(#pde64f5e42c)" d="M 342.006798 189.500605 
L 356.500304 189.500605 
L 356.500304 189.500605 
L 342.006798 189.500605 
z
" style="fill:none;stroke:#000000;stroke-linejoin:miter;"/>
   </g>
   <g id="patch_64">
    <path clip-path="url(#pde64f5e42c)" d="M 356.500304 189.500605 
L 370.993811 189.500605 
L 370.993811 189.500605 
L 356.500304 189.500605 
z
" style="fill:none;stroke:#000000;stroke-linejoin:miter;"/>
   </g>
   <g id="patch_65">
    <path clip-path="url(#pde64f5e42c)" d="M 370.993811 189.500605 
L 385.487317 189.500605 
L 385.487317 189.500605 
L 370.993811 189.500605 
z
" style="fill:none;stroke:#000000;stroke-linejoin:miter;"/>
   </g>
   <g id="patch_66">
    <path clip-path="url(#pde64f5e42c)" d="M 385.487317 189.500605 
L 399.980824 189.500605 
L 399.980824 189.500605 
L 385.487317 189.500605 
z
" style="fill:none;stroke:#000000;stroke-linejoin:miter;"/>
   </g>
   <g id="patch_67">
    <path clip-path="url(#pde64f5e42c)" d="M 110.110694 189.500605 
L 124.6042 189.500605 
L 124.6042 189.500605 
L 110.110694 189.500605 
z
" style="fill:none;stroke:#000000;stroke-linejoin:miter;"/>
   </g>
   <g id="patch_68">
    <path clip-path="url(#pde64f5e42c)" d="M 124.6042 189.500605 
L 139.097707 189.500605 
L 139.097707 189.500605 
L 124.6042 189.500605 
z
" style="fill:none;stroke:#000000;stroke-linejoin:miter;"/>
   </g>
   <g id="patch_69">
    <path clip-path="url(#pde64f5e42c)" d="M 139.097707 189.500605 
L 153.591213 189.500605 
L 153.591213 189.500605 
L 139.097707 189.500605 
z
" style="fill:none;stroke:#000000;stroke-linejoin:miter;"/>
   </g>
   <g id="patch_70">
    <path clip-path="url(#pde64f5e42c)" d="M 153.591213 189.500605 
L 168.08472 189.500605 
L 168.08472 189.500605 
L 153.591213 189.500605 
z
" style="fill:none;stroke:#000000;stroke-linejoin:miter;"/>
   </g>
   <g id="patch_71">
    <path clip-path="url(#pde64f5e42c)" d="M 168.08472 189.500605 
L 182.578226 189.500605 
L 182.578226 189.500605 
L 168.08472 189.500605 
z
" style="fill:none;stroke:#000000;stroke-linejoin:miter;"/>
   </g>
   <g id="patch_72">
    <path clip-path="url(#pde64f5e42c)" d="M 182.578226 189.500605 
L 197.071733 189.500605 
L 197.071733 189.500605 
L 182.578226 189.500605 
z
" style="fill:none;stroke:#000000;stroke-linejoin:miter;"/>
   </g>
   <g id="patch_73">
    <path clip-path="url(#pde64f5e42c)" d="M 197.071733 189.500605 
L 211.565239 189.500605 
L 211.565239 189.500605 
L 197.071733 189.500605 
z
" style="fill:none;stroke:#000000;stroke-linejoin:miter;"/>
   </g>
   <g id="patch_74">
    <path clip-path="url(#pde64f5e42c)" d="M 211.565239 189.500605 
L 226.058746 189.500605 
L 226.058746 189.500605 
L 211.565239 189.500605 
z
" style="fill:none;stroke:#000000;stroke-linejoin:miter;"/>
   </g>
   <g id="patch_75">
    <path clip-path="url(#pde64f5e42c)" d="M 226.058746 189.500605 
L 240.552252 189.500605 
L 240.552252 189.500605 
L 226.058746 189.500605 
z
" style="fill:none;stroke:#000000;stroke-linejoin:miter;"/>
   </g>
   <g id="patch_76">
    <path clip-path="url(#pde64f5e42c)" d="M 240.552252 189.500605 
L 255.045759 189.500605 
L 255.045759 189.500605 
L 240.552252 189.500605 
z
" style="fill:none;stroke:#000000;stroke-linejoin:miter;"/>
   </g>
   <g id="patch_77">
    <path clip-path="url(#pde64f5e42c)" d="M 255.045759 189.500605 
L 269.539265 189.500605 
L 269.539265 189.500605 
L 255.045759 189.500605 
z
" style="fill:none;stroke:#000000;stroke-linejoin:miter;"/>
   </g>
   <g id="patch_78">
    <path clip-path="url(#pde64f5e42c)" d="M 269.539265 189.500605 
L 284.032772 189.500605 
L 284.032772 189.500605 
L 269.539265 189.500605 
z
" style="fill:none;stroke:#000000;stroke-linejoin:miter;"/>
   </g>
   <g id="patch_79">
    <path clip-path="url(#pde64f5e42c)" d="M 284.032772 189.500605 
L 298.526278 189.500605 
L 298.526278 189.500605 
L 284.032772 189.500605 
z
" style="fill:none;stroke:#000000;stroke-linejoin:miter;"/>
   </g>
   <g id="patch_80">
    <path clip-path="url(#pde64f5e42c)" d="M 298.526278 189.500605 
L 313.019785 189.500605 
L 313.019785 189.500605 
L 298.526278 189.500605 
z
" style="fill:none;stroke:#000000;stroke-linejoin:miter;"/>
   </g>
   <g id="patch_81">
    <path clip-path="url(#pde64f5e42c)" d="M 313.019785 189.500605 
L 327.513291 189.500605 
L 327.513291 189.500605 
L 313.019785 189.500605 
z
" style="fill:none;stroke:#000000;stroke-linejoin:miter;"/>
   </g>
   <g id="patch_82">
    <path clip-path="url(#pde64f5e42c)" d="M 327.513291 189.500605 
L 342.006798 189.500605 
L 342.006798 189.500605 
L 327.513291 189.500605 
z
" style="fill:none;stroke:#000000;stroke-linejoin:miter;"/>
   </g>
   <g id="patch_83">
    <path clip-path="url(#pde64f5e42c)" d="M 342.006798 189.500605 
L 356.500304 189.500605 
L 356.500304 189.500605 
L 342.006798 189.500605 
z
" style="fill:none;stroke:#000000;stroke-linejoin:miter;"/>
   </g>
   <g id="patch_84">
    <path clip-path="url(#pde64f5e42c)" d="M 356.500304 189.500605 
L 370.993811 189.500605 
L 370.993811 189.500605 
L 356.500304 189.500605 
z
" style="fill:none;stroke:#000000;stroke-linejoin:miter;"/>
   </g>
   <g id="patch_85">
    <path clip-path="url(#pde64f5e42c)" d="M 370.993811 189.500605 
L 385.487317 189.500605 
L 385.487317 189.500605 
L 370.993811 189.500605 
z
" style="fill:none;stroke:#000000;stroke-linejoin:miter;"/>
   </g>
   <g id="patch_86">
    <path clip-path="url(#pde64f5e42c)" d="M 385.487317 189.500605 
L 399.980824 189.500605 
L 399.980824 189.500605 
L 385.487317 189.500605 
z
" style="fill:none;stroke:#000000;stroke-linejoin:miter;"/>
   </g>
  </g>
 </g>
 <defs>
  <clipPath id="pde64f5e42c">
   <rect height="332.64" width="318.857143" x="95.617188" y="10.7"/>
  </clipPath>
 </defs>
</svg>
