<?xml version="1.0" encoding="utf-8" standalone="no"?>
<!DOCTYPE svg PUBLIC "-//W3C//DTD SVG 1.1//EN"
  "http://www.w3.org/Graphics/SVG/1.1/DTD/svg11.dtd">
<!-- Created with matplotlib (http://matplotlib.org/) -->
<svg height="104pt" version="1.1" viewBox="0 0 133 104" width="133pt" xmlns="http://www.w3.org/2000/svg" xmlns:xlink="http://www.w3.org/1999/xlink">
 <defs>
  <style type="text/css">
*{stroke-linecap:butt;stroke-linejoin:round;}
  </style>
 </defs>
 <g id="figure_1">
  <g id="patch_1">
   <path d="M 0 104.56 
L 133 104.56 
L 133 0 
L 0 0 
z
" style="fill:#ffffff;"/>
  </g>
  <g id="axes_1">
   <g id="patch_2">
    <path d="M 10.7 93.86 
L 122.3 93.86 
L 122.3 10.7 
L 10.7 10.7 
z
" style="fill:#ffffff;"/>
   </g>
   <g id="patch_3">
    <path clip-path="url(#pa5411bb4ee)" d="M 15.772727 87.400971 
L 16.383899 87.400971 
L 16.383899 62.600425 
L 15.772727 62.600425 
z
" style="fill:#1d1d1d;"/>
   </g>
   <g id="patch_4">
    <path clip-path="url(#pa5411bb4ee)" d="M 16.282037 87.400971 
L 16.893209 87.400971 
L 16.893209 62.566499 
L 16.282037 62.566499 
z
" style="fill:#1d1d1d;"/>
   </g>
   <g id="patch_5">
    <path clip-path="url(#pa5411bb4ee)" d="M 16.791347 87.400971 
L 17.402519 87.400971 
L 17.402519 62.454916 
L 16.791347 62.454916 
z
" style="fill:#1d1d1d;"/>
   </g>
   <g id="patch_6">
    <path clip-path="url(#pa5411bb4ee)" d="M 17.300657 87.400971 
L 17.911829 87.400971 
L 17.911829 62.443768 
L 17.300657 62.443768 
z
" style="fill:#1d1d1d;"/>
   </g>
   <g id="patch_7">
    <path clip-path="url(#pa5411bb4ee)" d="M 17.809967 87.400971 
L 18.421139 87.400971 
L 18.421139 62.398968 
L 17.809967 62.398968 
z
" style="fill:#1d1d1d;"/>
   </g>
   <g id="patch_8">
    <path clip-path="url(#pa5411bb4ee)" d="M 18.319277 87.400971 
L 18.930449 87.400971 
L 18.930449 62.162869 
L 18.319277 62.162869 
z
" style="fill:#1d1d1d;"/>
   </g>
   <g id="patch_9">
    <path clip-path="url(#pa5411bb4ee)" d="M 18.828587 87.400971 
L 19.439759 87.400971 
L 19.439759 62.014921 
L 18.828587 62.014921 
z
" style="fill:#1d1d1d;"/>
   </g>
   <g id="patch_10">
    <path clip-path="url(#pa5411bb4ee)" d="M 19.337897 87.400971 
L 19.949069 87.400971 
L 19.949069 61.790687 
L 19.337897 61.790687 
z
" style="fill:#1d1d1d;"/>
   </g>
   <g id="patch_11">
    <path clip-path="url(#pa5411bb4ee)" d="M 19.847207 87.400971 
L 20.458379 87.400971 
L 20.458379 61.753538 
L 19.847207 61.753538 
z
" style="fill:#1d1d1d;"/>
   </g>
   <g id="patch_12">
    <path clip-path="url(#pa5411bb4ee)" d="M 20.356517 87.400971 
L 20.967689 87.400971 
L 20.967689 61.442641 
L 20.356517 61.442641 
z
" style="fill:#1d1d1d;"/>
   </g>
   <g id="patch_13">
    <path clip-path="url(#pa5411bb4ee)" d="M 20.865827 87.400971 
L 21.476999 87.400971 
L 21.476999 61.263237 
L 20.865827 61.263237 
z
" style="fill:#1d1d1d;"/>
   </g>
   <g id="patch_14">
    <path clip-path="url(#pa5411bb4ee)" d="M 21.375137 87.400971 
L 21.986309 87.400971 
L 21.986309 61.234873 
L 21.375137 61.234873 
z
" style="fill:#1d1d1d;"/>
   </g>
   <g id="patch_15">
    <path clip-path="url(#pa5411bb4ee)" d="M 21.884447 87.400971 
L 22.495619 87.400971 
L 22.495619 61.167845 
L 21.884447 61.167845 
z
" style="fill:#1d1d1d;"/>
   </g>
   <g id="patch_16">
    <path clip-path="url(#pa5411bb4ee)" d="M 22.393757 87.400971 
L 23.004929 87.400971 
L 23.004929 61.146158 
L 22.393757 61.146158 
z
" style="fill:#1d1d1d;"/>
   </g>
   <g id="patch_17">
    <path clip-path="url(#pa5411bb4ee)" d="M 22.903067 87.400971 
L 23.514239 87.400971 
L 23.514239 60.166773 
L 22.903067 60.166773 
z
" style="fill:#1d1d1d;"/>
   </g>
   <g id="patch_18">
    <path clip-path="url(#pa5411bb4ee)" d="M 23.412377 87.400971 
L 24.023549 87.400971 
L 24.023549 59.957691 
L 23.412377 59.957691 
z
" style="fill:#1d1d1d;"/>
   </g>
   <g id="patch_19">
    <path clip-path="url(#pa5411bb4ee)" d="M 23.921687 87.400971 
L 24.532859 87.400971 
L 24.532859 59.627433 
L 23.921687 59.627433 
z
" style="fill:#1d1d1d;"/>
   </g>
   <g id="patch_20">
    <path clip-path="url(#pa5411bb4ee)" d="M 24.430997 87.400971 
L 25.042169 87.400971 
L 25.042169 59.493501 
L 24.430997 59.493501 
z
" style="fill:#1d1d1d;"/>
   </g>
   <g id="patch_21">
    <path clip-path="url(#pa5411bb4ee)" d="M 24.940307 87.400971 
L 25.551479 87.400971 
L 25.551479 59.48852 
L 24.940307 59.48852 
z
" style="fill:#1d1d1d;"/>
   </g>
   <g id="patch_22">
    <path clip-path="url(#pa5411bb4ee)" d="M 25.449617 87.400971 
L 26.060789 87.400971 
L 26.060789 59.38059 
L 25.449617 59.38059 
z
" style="fill:#1d1d1d;"/>
   </g>
   <g id="patch_23">
    <path clip-path="url(#pa5411bb4ee)" d="M 25.958927 87.400971 
L 26.570099 87.400971 
L 26.570099 59.330869 
L 25.958927 59.330869 
z
" style="fill:#1d1d1d;"/>
   </g>
   <g id="patch_24">
    <path clip-path="url(#pa5411bb4ee)" d="M 26.468237 87.400971 
L 27.079409 87.400971 
L 27.079409 59.320178 
L 26.468237 59.320178 
z
" style="fill:#1d1d1d;"/>
   </g>
   <g id="patch_25">
    <path clip-path="url(#pa5411bb4ee)" d="M 26.977547 87.400971 
L 27.588719 87.400971 
L 27.588719 59.178756 
L 26.977547 59.178756 
z
" style="fill:#1d1d1d;"/>
   </g>
   <g id="patch_26">
    <path clip-path="url(#pa5411bb4ee)" d="M 27.486857 87.400971 
L 28.098028 87.400971 
L 28.098028 59.1275 
L 27.486857 59.1275 
z
" style="fill:#1d1d1d;"/>
   </g>
   <g id="patch_27">
    <path clip-path="url(#pa5411bb4ee)" d="M 27.996166 87.400971 
L 28.607338 87.400971 
L 28.607338 59.025455 
L 27.996166 59.025455 
z
" style="fill:#1d1d1d;"/>
   </g>
   <g id="patch_28">
    <path clip-path="url(#pa5411bb4ee)" d="M 28.505476 87.400971 
L 29.116648 87.400971 
L 29.116648 59.020935 
L 28.505476 59.020935 
z
" style="fill:#1d1d1d;"/>
   </g>
   <g id="patch_29">
    <path clip-path="url(#pa5411bb4ee)" d="M 29.014786 87.400971 
L 29.625958 87.400971 
L 29.625958 58.861999 
L 29.014786 58.861999 
z
" style="fill:#1d1d1d;"/>
   </g>
   <g id="patch_30">
    <path clip-path="url(#pa5411bb4ee)" d="M 29.524096 87.400971 
L 30.135268 87.400971 
L 30.135268 58.348175 
L 29.524096 58.348175 
z
" style="fill:#1d1d1d;"/>
   </g>
   <g id="patch_31">
    <path clip-path="url(#pa5411bb4ee)" d="M 30.033406 87.400971 
L 30.644578 87.400971 
L 30.644578 58.346398 
L 30.033406 58.346398 
z
" style="fill:#1d1d1d;"/>
   </g>
   <g id="patch_32">
    <path clip-path="url(#pa5411bb4ee)" d="M 30.542716 87.400971 
L 31.153888 87.400971 
L 31.153888 58.259719 
L 30.542716 58.259719 
z
" style="fill:#1d1d1d;"/>
   </g>
   <g id="patch_33">
    <path clip-path="url(#pa5411bb4ee)" d="M 31.052026 87.400971 
L 31.663198 87.400971 
L 31.663198 58.165587 
L 31.052026 58.165587 
z
" style="fill:#1d1d1d;"/>
   </g>
   <g id="patch_34">
    <path clip-path="url(#pa5411bb4ee)" d="M 31.561336 87.400971 
L 32.172508 87.400971 
L 32.172508 57.974119 
L 31.561336 57.974119 
z
" style="fill:#1d1d1d;"/>
   </g>
   <g id="patch_35">
    <path clip-path="url(#pa5411bb4ee)" d="M 32.070646 87.400971 
L 32.681818 87.400971 
L 32.681818 57.891609 
L 32.070646 57.891609 
z
" style="fill:#1d1d1d;"/>
   </g>
   <g id="patch_36">
    <path clip-path="url(#pa5411bb4ee)" d="M 32.579956 87.400971 
L 33.191128 87.400971 
L 33.191128 57.705481 
L 32.579956 57.705481 
z
" style="fill:#1d1d1d;"/>
   </g>
   <g id="patch_37">
    <path clip-path="url(#pa5411bb4ee)" d="M 33.089266 87.400971 
L 33.700438 87.400971 
L 33.700438 57.634859 
L 33.089266 57.634859 
z
" style="fill:#1d1d1d;"/>
   </g>
   <g id="patch_38">
    <path clip-path="url(#pa5411bb4ee)" d="M 33.598576 87.400971 
L 34.209748 87.400971 
L 34.209748 56.932638 
L 33.598576 56.932638 
z
" style="fill:#1d1d1d;"/>
   </g>
   <g id="patch_39">
    <path clip-path="url(#pa5411bb4ee)" d="M 34.107886 87.400971 
L 34.719058 87.400971 
L 34.719058 56.781942 
L 34.107886 56.781942 
z
" style="fill:#1d1d1d;"/>
   </g>
   <g id="patch_40">
    <path clip-path="url(#pa5411bb4ee)" d="M 34.617196 87.400971 
L 35.228368 87.400971 
L 35.228368 56.536731 
L 34.617196 56.536731 
z
" style="fill:#1d1d1d;"/>
   </g>
   <g id="patch_41">
    <path clip-path="url(#pa5411bb4ee)" d="M 35.126506 87.400971 
L 35.737678 87.400971 
L 35.737678 55.764502 
L 35.126506 55.764502 
z
" style="fill:#1d1d1d;"/>
   </g>
   <g id="patch_42">
    <path clip-path="url(#pa5411bb4ee)" d="M 35.635816 87.400971 
L 36.246988 87.400971 
L 36.246988 55.729949 
L 35.635816 55.729949 
z
" style="fill:#1d1d1d;"/>
   </g>
   <g id="patch_43">
    <path clip-path="url(#pa5411bb4ee)" d="M 36.145126 87.400971 
L 36.756298 87.400971 
L 36.756298 55.709099 
L 36.145126 55.709099 
z
" style="fill:#1d1d1d;"/>
   </g>
   <g id="patch_44">
    <path clip-path="url(#pa5411bb4ee)" d="M 36.654436 87.400971 
L 37.265608 87.400971 
L 37.265608 55.62438 
L 36.654436 55.62438 
z
" style="fill:#1d1d1d;"/>
   </g>
   <g id="patch_45">
    <path clip-path="url(#pa5411bb4ee)" d="M 37.163746 87.400971 
L 37.774918 87.400971 
L 37.774918 55.492597 
L 37.163746 55.492597 
z
" style="fill:#1d1d1d;"/>
   </g>
   <g id="patch_46">
    <path clip-path="url(#pa5411bb4ee)" d="M 37.673056 87.400971 
L 38.284228 87.400971 
L 38.284228 54.918197 
L 37.673056 54.918197 
z
" style="fill:#1d1d1d;"/>
   </g>
   <g id="patch_47">
    <path clip-path="url(#pa5411bb4ee)" d="M 38.182366 87.400971 
L 38.793538 87.400971 
L 38.793538 54.134007 
L 38.182366 54.134007 
z
" style="fill:#1d1d1d;"/>
   </g>
   <g id="patch_48">
    <path clip-path="url(#pa5411bb4ee)" d="M 38.691676 87.400971 
L 39.302848 87.400971 
L 39.302848 53.775324 
L 38.691676 53.775324 
z
" style="fill:#1d1d1d;"/>
   </g>
   <g id="patch_49">
    <path clip-path="url(#pa5411bb4ee)" d="M 39.200986 87.400971 
L 39.812158 87.400971 
L 39.812158 53.406628 
L 39.200986 53.406628 
z
" style="fill:#1d1d1d;"/>
   </g>
   <g id="patch_50">
    <path clip-path="url(#pa5411bb4ee)" d="M 39.710296 87.400971 
L 40.321468 87.400971 
L 40.321468 52.783595 
L 39.710296 52.783595 
z
" style="fill:#1d1d1d;"/>
   </g>
   <g id="patch_51">
    <path clip-path="url(#pa5411bb4ee)" d="M 40.219606 87.400971 
L 40.830778 87.400971 
L 40.830778 52.698003 
L 40.219606 52.698003 
z
" style="fill:#1d1d1d;"/>
   </g>
   <g id="patch_52">
    <path clip-path="url(#pa5411bb4ee)" d="M 40.728916 87.400971 
L 41.340088 87.400971 
L 41.340088 52.579105 
L 40.728916 52.579105 
z
" style="fill:#1d1d1d;"/>
   </g>
   <g id="patch_53">
    <path clip-path="url(#pa5411bb4ee)" d="M 41.238226 87.400971 
L 41.849398 87.400971 
L 41.849398 52.158611 
L 41.238226 52.158611 
z
" style="fill:#1d1d1d;"/>
   </g>
   <g id="patch_54">
    <path clip-path="url(#pa5411bb4ee)" d="M 41.747536 87.400971 
L 42.358708 87.400971 
L 42.358708 51.450772 
L 41.747536 51.450772 
z
" style="fill:#1d1d1d;"/>
   </g>
   <g id="patch_55">
    <path clip-path="url(#pa5411bb4ee)" d="M 42.256846 87.400971 
L 42.868018 87.400971 
L 42.868018 51.269274 
L 42.256846 51.269274 
z
" style="fill:#1d1d1d;"/>
   </g>
   <g id="patch_56">
    <path clip-path="url(#pa5411bb4ee)" d="M 42.766156 87.400971 
L 43.377327 87.400971 
L 43.377327 50.724336 
L 42.766156 50.724336 
z
" style="fill:#1d1d1d;"/>
   </g>
   <g id="patch_57">
    <path clip-path="url(#pa5411bb4ee)" d="M 43.275465 87.400971 
L 43.886637 87.400971 
L 43.886637 50.65814 
L 43.275465 50.65814 
z
" style="fill:#1d1d1d;"/>
   </g>
   <g id="patch_58">
    <path clip-path="url(#pa5411bb4ee)" d="M 43.784775 87.400971 
L 44.395947 87.400971 
L 44.395947 50.168134 
L 43.784775 50.168134 
z
" style="fill:#1d1d1d;"/>
   </g>
   <g id="patch_59">
    <path clip-path="url(#pa5411bb4ee)" d="M 44.294085 87.400971 
L 44.905257 87.400971 
L 44.905257 49.676886 
L 44.294085 49.676886 
z
" style="fill:#1d1d1d;"/>
   </g>
   <g id="patch_60">
    <path clip-path="url(#pa5411bb4ee)" d="M 44.803395 87.400971 
L 45.414567 87.400971 
L 45.414567 49.368738 
L 44.803395 49.368738 
z
" style="fill:#1d1d1d;"/>
   </g>
   <g id="patch_61">
    <path clip-path="url(#pa5411bb4ee)" d="M 45.312705 87.400971 
L 45.923877 87.400971 
L 45.923877 49.108622 
L 45.312705 49.108622 
z
" style="fill:#1d1d1d;"/>
   </g>
   <g id="patch_62">
    <path clip-path="url(#pa5411bb4ee)" d="M 45.822015 87.400971 
L 46.433187 87.400971 
L 46.433187 48.715465 
L 45.822015 48.715465 
z
" style="fill:#1d1d1d;"/>
   </g>
   <g id="patch_63">
    <path clip-path="url(#pa5411bb4ee)" d="M 46.331325 87.400971 
L 46.942497 87.400971 
L 46.942497 48.562319 
L 46.331325 48.562319 
z
" style="fill:#1d1d1d;"/>
   </g>
   <g id="patch_64">
    <path clip-path="url(#pa5411bb4ee)" d="M 46.840635 87.400971 
L 47.451807 87.400971 
L 47.451807 48.288332 
L 46.840635 48.288332 
z
" style="fill:#1d1d1d;"/>
   </g>
   <g id="patch_65">
    <path clip-path="url(#pa5411bb4ee)" d="M 47.349945 87.400971 
L 47.961117 87.400971 
L 47.961117 48.040392 
L 47.349945 48.040392 
z
" style="fill:#1d1d1d;"/>
   </g>
   <g id="patch_66">
    <path clip-path="url(#pa5411bb4ee)" d="M 47.859255 87.400971 
L 48.470427 87.400971 
L 48.470427 48.020846 
L 47.859255 48.020846 
z
" style="fill:#1d1d1d;"/>
   </g>
   <g id="patch_67">
    <path clip-path="url(#pa5411bb4ee)" d="M 48.368565 87.400971 
L 48.979737 87.400971 
L 48.979737 47.991548 
L 48.368565 47.991548 
z
" style="fill:#1d1d1d;"/>
   </g>
   <g id="patch_68">
    <path clip-path="url(#pa5411bb4ee)" d="M 48.877875 87.400971 
L 49.489047 87.400971 
L 49.489047 47.882713 
L 48.877875 47.882713 
z
" style="fill:#1d1d1d;"/>
   </g>
   <g id="patch_69">
    <path clip-path="url(#pa5411bb4ee)" d="M 49.387185 87.400971 
L 49.998357 87.400971 
L 49.998357 47.183392 
L 49.387185 47.183392 
z
" style="fill:#1d1d1d;"/>
   </g>
   <g id="patch_70">
    <path clip-path="url(#pa5411bb4ee)" d="M 49.896495 87.400971 
L 50.507667 87.400971 
L 50.507667 46.857162 
L 49.896495 46.857162 
z
" style="fill:#1d1d1d;"/>
   </g>
   <g id="patch_71">
    <path clip-path="url(#pa5411bb4ee)" d="M 50.405805 87.400971 
L 51.016977 87.400971 
L 51.016977 45.341096 
L 50.405805 45.341096 
z
" style="fill:#1d1d1d;"/>
   </g>
   <g id="patch_72">
    <path clip-path="url(#pa5411bb4ee)" d="M 50.915115 87.400971 
L 51.526287 87.400971 
L 51.526287 44.135791 
L 50.915115 44.135791 
z
" style="fill:#1d1d1d;"/>
   </g>
   <g id="patch_73">
    <path clip-path="url(#pa5411bb4ee)" d="M 51.424425 87.400971 
L 52.035597 87.400971 
L 52.035597 42.349626 
L 51.424425 42.349626 
z
" style="fill:#1d1d1d;"/>
   </g>
   <g id="patch_74">
    <path clip-path="url(#pa5411bb4ee)" d="M 51.933735 87.400971 
L 52.544907 87.400971 
L 52.544907 41.611716 
L 51.933735 41.611716 
z
" style="fill:#1d1d1d;"/>
   </g>
   <g id="patch_75">
    <path clip-path="url(#pa5411bb4ee)" d="M 52.443045 87.400971 
L 53.054217 87.400971 
L 53.054217 40.916433 
L 52.443045 40.916433 
z
" style="fill:#1d1d1d;"/>
   </g>
   <g id="patch_76">
    <path clip-path="url(#pa5411bb4ee)" d="M 52.952355 87.400971 
L 53.563527 87.400971 
L 53.563527 40.565233 
L 52.952355 40.565233 
z
" style="fill:#1d1d1d;"/>
   </g>
   <g id="patch_77">
    <path clip-path="url(#pa5411bb4ee)" d="M 53.461665 87.400971 
L 54.072837 87.400971 
L 54.072837 39.392178 
L 53.461665 39.392178 
z
" style="fill:#1d1d1d;"/>
   </g>
   <g id="patch_78">
    <path clip-path="url(#pa5411bb4ee)" d="M 53.970975 87.400971 
L 54.582147 87.400971 
L 54.582147 38.333292 
L 53.970975 38.333292 
z
" style="fill:#1d1d1d;"/>
   </g>
   <g id="patch_79">
    <path clip-path="url(#pa5411bb4ee)" d="M 54.480285 87.400971 
L 55.091457 87.400971 
L 55.091457 36.632178 
L 54.480285 36.632178 
z
" style="fill:#1d1d1d;"/>
   </g>
   <g id="patch_80">
    <path clip-path="url(#pa5411bb4ee)" d="M 54.989595 87.400971 
L 55.600767 87.400971 
L 55.600767 34.483641 
L 54.989595 34.483641 
z
" style="fill:#1d1d1d;"/>
   </g>
   <g id="patch_81">
    <path clip-path="url(#pa5411bb4ee)" d="M 55.498905 87.400971 
L 56.110077 87.400971 
L 56.110077 33.900324 
L 55.498905 33.900324 
z
" style="fill:#1d1d1d;"/>
   </g>
   <g id="patch_82">
    <path clip-path="url(#pa5411bb4ee)" d="M 56.008215 87.400971 
L 56.619387 87.400971 
L 56.619387 33.866555 
L 56.008215 33.866555 
z
" style="fill:#1d1d1d;"/>
   </g>
   <g id="patch_83">
    <path clip-path="url(#pa5411bb4ee)" d="M 56.517525 87.400971 
L 57.128697 87.400971 
L 57.128697 31.678232 
L 56.517525 31.678232 
z
" style="fill:#1d1d1d;"/>
   </g>
   <g id="patch_84">
    <path clip-path="url(#pa5411bb4ee)" d="M 57.026835 87.400971 
L 57.638007 87.400971 
L 57.638007 27.863792 
L 57.026835 27.863792 
z
" style="fill:#1d1d1d;"/>
   </g>
   <g id="patch_85">
    <path clip-path="url(#pa5411bb4ee)" d="M 57.536145 87.400971 
L 58.147317 87.400971 
L 58.147317 27.74036 
L 57.536145 27.74036 
z
" style="fill:#1d1d1d;"/>
   </g>
   <g id="patch_86">
    <path clip-path="url(#pa5411bb4ee)" d="M 58.045455 87.400971 
L 58.656627 87.400971 
L 58.656627 27.525596 
L 58.045455 27.525596 
z
" style="fill:#1d1d1d;"/>
   </g>
   <g id="patch_87">
    <path clip-path="url(#pa5411bb4ee)" d="M 58.554765 87.400971 
L 59.165936 87.400971 
L 59.165936 27.43413 
L 58.554765 27.43413 
z
" style="fill:#1d1d1d;"/>
   </g>
   <g id="patch_88">
    <path clip-path="url(#pa5411bb4ee)" d="M 59.064074 87.400971 
L 59.675246 87.400971 
L 59.675246 26.938403 
L 59.064074 26.938403 
z
" style="fill:#1d1d1d;"/>
   </g>
   <g id="patch_89">
    <path clip-path="url(#pa5411bb4ee)" d="M 59.573384 87.400971 
L 60.184556 87.400971 
L 60.184556 25.587049 
L 59.573384 25.587049 
z
" style="fill:#1d1d1d;"/>
   </g>
   <g id="patch_90">
    <path clip-path="url(#pa5411bb4ee)" d="M 60.082694 87.400971 
L 60.693866 87.400971 
L 60.693866 25.004268 
L 60.082694 25.004268 
z
" style="fill:#1d1d1d;"/>
   </g>
   <g id="patch_91">
    <path clip-path="url(#pa5411bb4ee)" d="M 60.592004 87.400971 
L 61.203176 87.400971 
L 61.203176 23.83837 
L 60.592004 23.83837 
z
" style="fill:#1d1d1d;"/>
   </g>
   <g id="patch_92">
    <path clip-path="url(#pa5411bb4ee)" d="M 61.101314 87.400971 
L 61.712486 87.400971 
L 61.712486 22.031304 
L 61.101314 22.031304 
z
" style="fill:#1d1d1d;"/>
   </g>
   <g id="patch_93">
    <path clip-path="url(#pa5411bb4ee)" d="M 61.610624 87.400971 
L 62.221796 87.400971 
L 62.221796 21.289399 
L 61.610624 21.289399 
z
" style="fill:#1d1d1d;"/>
   </g>
   <g id="patch_94">
    <path clip-path="url(#pa5411bb4ee)" d="M 62.119934 87.400971 
L 62.731106 87.400971 
L 62.731106 20.541343 
L 62.119934 20.541343 
z
" style="fill:#1d1d1d;"/>
   </g>
   <g id="patch_95">
    <path clip-path="url(#pa5411bb4ee)" d="M 62.629244 87.400971 
L 63.240416 87.400971 
L 63.240416 17.305606 
L 62.629244 17.305606 
z
" style="fill:#1d1d1d;"/>
   </g>
   <g id="patch_96">
    <path clip-path="url(#pa5411bb4ee)" d="M 63.138554 87.400971 
L 63.749726 87.400971 
L 63.749726 13.720052 
L 63.138554 13.720052 
z
" style="fill:#1d1d1d;"/>
   </g>
   <g id="patch_97">
    <path clip-path="url(#pa5411bb4ee)" d="M 63.647864 87.400971 
L 64.259036 87.400971 
L 64.259036 13.019021 
L 63.647864 13.019021 
z
" style="fill:#1d1d1d;"/>
   </g>
   <g id="patch_98">
    <path clip-path="url(#pa5411bb4ee)" d="M 64.157174 87.400971 
L 64.768346 87.400971 
L 64.768346 12.941598 
L 64.157174 12.941598 
z
" style="fill:#1d1d1d;"/>
   </g>
   <g id="patch_99">
    <path clip-path="url(#pa5411bb4ee)" d="M 64.666484 87.400971 
L 65.277656 87.400971 
L 65.277656 12.838455 
L 64.666484 12.838455 
z
" style="fill:#1d1d1d;"/>
   </g>
   <g id="patch_100">
    <path clip-path="url(#pa5411bb4ee)" d="M 65.175794 87.400971 
L 65.786966 87.400971 
L 65.786966 12.252266 
L 65.175794 12.252266 
z
" style="fill:#1d1d1d;"/>
   </g>
   <g id="patch_101">
    <path clip-path="url(#pa5411bb4ee)" d="M 65.685104 87.400971 
L 66.296276 87.400971 
L 66.296276 11.515909 
L 65.685104 11.515909 
z
" style="fill:#1d1d1d;"/>
   </g>
   <g id="patch_102">
    <path clip-path="url(#pa5411bb4ee)" d="M 66.194414 87.400971 
L 66.805586 87.400971 
L 66.805586 10.66324 
L 66.194414 10.66324 
z
" style="fill:#1d1d1d;"/>
   </g>
   <g id="patch_103">
    <path clip-path="url(#pa5411bb4ee)" d="M 66.194414 87.400971 
L 66.805586 87.400971 
L 66.805586 10.66324 
L 66.194414 10.66324 
z
" style="fill:#1d1d1d;"/>
   </g>
   <g id="patch_104">
    <path clip-path="url(#pa5411bb4ee)" d="M 66.703724 87.400971 
L 67.314896 87.400971 
L 67.314896 8.946597 
L 66.703724 8.946597 
z
" style="fill:#1d1d1d;"/>
   </g>
   <g id="patch_105">
    <path clip-path="url(#pa5411bb4ee)" d="M 67.213034 87.400971 
L 67.824206 87.400971 
L 67.824206 9.330109 
L 67.213034 9.330109 
z
" style="fill:#1d1d1d;"/>
   </g>
   <g id="patch_106">
    <path clip-path="url(#pa5411bb4ee)" d="M 67.722344 87.400971 
L 68.333516 87.400971 
L 68.333516 10.029504 
L 67.722344 10.029504 
z
" style="fill:#1d1d1d;"/>
   </g>
   <g id="patch_107">
    <path clip-path="url(#pa5411bb4ee)" d="M 68.231654 87.400971 
L 68.842826 87.400971 
L 68.842826 10.200465 
L 68.231654 10.200465 
z
" style="fill:#1d1d1d;"/>
   </g>
   <g id="patch_108">
    <path clip-path="url(#pa5411bb4ee)" d="M 68.740964 87.400971 
L 69.352136 87.400971 
L 69.352136 10.288448 
L 68.740964 10.288448 
z
" style="fill:#1d1d1d;"/>
   </g>
   <g id="patch_109">
    <path clip-path="url(#pa5411bb4ee)" d="M 69.250274 87.400971 
L 69.861446 87.400971 
L 69.861446 10.57476 
L 69.250274 10.57476 
z
" style="fill:#1d1d1d;"/>
   </g>
   <g id="patch_110">
    <path clip-path="url(#pa5411bb4ee)" d="M 69.759584 87.400971 
L 70.370756 87.400971 
L 70.370756 13.509268 
L 69.759584 13.509268 
z
" style="fill:#1d1d1d;"/>
   </g>
   <g id="patch_111">
    <path clip-path="url(#pa5411bb4ee)" d="M 70.268894 87.400971 
L 70.880066 87.400971 
L 70.880066 13.735843 
L 70.268894 13.735843 
z
" style="fill:#1d1d1d;"/>
   </g>
   <g id="patch_112">
    <path clip-path="url(#pa5411bb4ee)" d="M 70.778204 87.400971 
L 71.389376 87.400971 
L 71.389376 14.437723 
L 70.778204 14.437723 
z
" style="fill:#1d1d1d;"/>
   </g>
   <g id="patch_113">
    <path clip-path="url(#pa5411bb4ee)" d="M 71.287514 87.400971 
L 71.898686 87.400971 
L 71.898686 18.450302 
L 71.287514 18.450302 
z
" style="fill:#1d1d1d;"/>
   </g>
   <g id="patch_114">
    <path clip-path="url(#pa5411bb4ee)" d="M 71.796824 87.400971 
L 72.407996 87.400971 
L 72.407996 18.631068 
L 71.796824 18.631068 
z
" style="fill:#1d1d1d;"/>
   </g>
   <g id="patch_115">
    <path clip-path="url(#pa5411bb4ee)" d="M 72.306134 87.400971 
L 72.917306 87.400971 
L 72.917306 20.150355 
L 72.306134 20.150355 
z
" style="fill:#1d1d1d;"/>
   </g>
   <g id="patch_116">
    <path clip-path="url(#pa5411bb4ee)" d="M 72.815444 87.400971 
L 73.426616 87.400971 
L 73.426616 24.326496 
L 72.815444 24.326496 
z
" style="fill:#1d1d1d;"/>
   </g>
   <g id="patch_117">
    <path clip-path="url(#pa5411bb4ee)" d="M 73.324754 87.400971 
L 73.935926 87.400971 
L 73.935926 25.675031 
L 73.324754 25.675031 
z
" style="fill:#1d1d1d;"/>
   </g>
   <g id="patch_118">
    <path clip-path="url(#pa5411bb4ee)" d="M 73.834064 87.400971 
L 74.445235 87.400971 
L 74.445235 26.174627 
L 73.834064 26.174627 
z
" style="fill:#1d1d1d;"/>
   </g>
   <g id="patch_119">
    <path clip-path="url(#pa5411bb4ee)" d="M 74.343373 87.400971 
L 74.954545 87.400971 
L 74.954545 28.93576 
L 74.343373 28.93576 
z
" style="fill:#1d1d1d;"/>
   </g>
   <g id="patch_120">
    <path clip-path="url(#pa5411bb4ee)" d="M 74.852683 87.400971 
L 75.463855 87.400971 
L 75.463855 29.906114 
L 74.852683 29.906114 
z
" style="fill:#1d1d1d;"/>
   </g>
   <g id="patch_121">
    <path clip-path="url(#pa5411bb4ee)" d="M 75.361993 87.400971 
L 75.973165 87.400971 
L 75.973165 30.408591 
L 75.361993 30.408591 
z
" style="fill:#1d1d1d;"/>
   </g>
   <g id="patch_122">
    <path clip-path="url(#pa5411bb4ee)" d="M 75.871303 87.400971 
L 76.482475 87.400971 
L 76.482475 30.526306 
L 75.871303 30.526306 
z
" style="fill:#1d1d1d;"/>
   </g>
   <g id="patch_123">
    <path clip-path="url(#pa5411bb4ee)" d="M 76.380613 87.400971 
L 76.991785 87.400971 
L 76.991785 30.53047 
L 76.380613 30.53047 
z
" style="fill:#1d1d1d;"/>
   </g>
   <g id="patch_124">
    <path clip-path="url(#pa5411bb4ee)" d="M 76.889923 87.400971 
L 77.501095 87.400971 
L 77.501095 31.458741 
L 76.889923 31.458741 
z
" style="fill:#1d1d1d;"/>
   </g>
   <g id="patch_125">
    <path clip-path="url(#pa5411bb4ee)" d="M 77.399233 87.400971 
L 78.010405 87.400971 
L 78.010405 32.318101 
L 77.399233 32.318101 
z
" style="fill:#1d1d1d;"/>
   </g>
   <g id="patch_126">
    <path clip-path="url(#pa5411bb4ee)" d="M 77.908543 87.400971 
L 78.519715 87.400971 
L 78.519715 32.650063 
L 77.908543 32.650063 
z
" style="fill:#1d1d1d;"/>
   </g>
   <g id="patch_127">
    <path clip-path="url(#pa5411bb4ee)" d="M 78.417853 87.400971 
L 79.029025 87.400971 
L 79.029025 34.389016 
L 78.417853 34.389016 
z
" style="fill:#1d1d1d;"/>
   </g>
   <g id="patch_128">
    <path clip-path="url(#pa5411bb4ee)" d="M 78.927163 87.400971 
L 79.538335 87.400971 
L 79.538335 34.480801 
L 78.927163 34.480801 
z
" style="fill:#1d1d1d;"/>
   </g>
   <g id="patch_129">
    <path clip-path="url(#pa5411bb4ee)" d="M 79.436473 87.400971 
L 80.047645 87.400971 
L 80.047645 34.942788 
L 79.436473 34.942788 
z
" style="fill:#1d1d1d;"/>
   </g>
   <g id="patch_130">
    <path clip-path="url(#pa5411bb4ee)" d="M 79.945783 87.400971 
L 80.556955 87.400971 
L 80.556955 34.988484 
L 79.945783 34.988484 
z
" style="fill:#1d1d1d;"/>
   </g>
   <g id="patch_131">
    <path clip-path="url(#pa5411bb4ee)" d="M 80.455093 87.400971 
L 81.066265 87.400971 
L 81.066265 35.059004 
L 80.455093 35.059004 
z
" style="fill:#1d1d1d;"/>
   </g>
   <g id="patch_132">
    <path clip-path="url(#pa5411bb4ee)" d="M 80.964403 87.400971 
L 81.575575 87.400971 
L 81.575575 35.93402 
L 80.964403 35.93402 
z
" style="fill:#1d1d1d;"/>
   </g>
   <g id="patch_133">
    <path clip-path="url(#pa5411bb4ee)" d="M 81.473713 87.400971 
L 82.084885 87.400971 
L 82.084885 36.453517 
L 81.473713 36.453517 
z
" style="fill:#1d1d1d;"/>
   </g>
   <g id="patch_134">
    <path clip-path="url(#pa5411bb4ee)" d="M 81.983023 87.400971 
L 82.594195 87.400971 
L 82.594195 37.658761 
L 81.983023 37.658761 
z
" style="fill:#1d1d1d;"/>
   </g>
   <g id="patch_135">
    <path clip-path="url(#pa5411bb4ee)" d="M 82.492333 87.400971 
L 83.103505 87.400971 
L 83.103505 37.821222 
L 82.492333 37.821222 
z
" style="fill:#1d1d1d;"/>
   </g>
   <g id="patch_136">
    <path clip-path="url(#pa5411bb4ee)" d="M 83.001643 87.400971 
L 83.612815 87.400971 
L 83.612815 37.851174 
L 83.001643 37.851174 
z
" style="fill:#1d1d1d;"/>
   </g>
   <g id="patch_137">
    <path clip-path="url(#pa5411bb4ee)" d="M 83.510953 87.400971 
L 84.122125 87.400971 
L 84.122125 39.360118 
L 83.510953 39.360118 
z
" style="fill:#1d1d1d;"/>
   </g>
   <g id="patch_138">
    <path clip-path="url(#pa5411bb4ee)" d="M 84.020263 87.400971 
L 84.631435 87.400971 
L 84.631435 40.684961 
L 84.020263 40.684961 
z
" style="fill:#1d1d1d;"/>
   </g>
   <g id="patch_139">
    <path clip-path="url(#pa5411bb4ee)" d="M 84.529573 87.400971 
L 85.140745 87.400971 
L 85.140745 40.73751 
L 84.529573 40.73751 
z
" style="fill:#1d1d1d;"/>
   </g>
   <g id="patch_140">
    <path clip-path="url(#pa5411bb4ee)" d="M 85.038883 87.400971 
L 85.650055 87.400971 
L 85.650055 40.802173 
L 85.038883 40.802173 
z
" style="fill:#1d1d1d;"/>
   </g>
   <g id="patch_141">
    <path clip-path="url(#pa5411bb4ee)" d="M 85.548193 87.400971 
L 86.159365 87.400971 
L 86.159365 40.921927 
L 85.548193 40.921927 
z
" style="fill:#1d1d1d;"/>
   </g>
   <g id="patch_142">
    <path clip-path="url(#pa5411bb4ee)" d="M 86.057503 87.400971 
L 86.668675 87.400971 
L 86.668675 41.252904 
L 86.057503 41.252904 
z
" style="fill:#1d1d1d;"/>
   </g>
   <g id="patch_143">
    <path clip-path="url(#pa5411bb4ee)" d="M 86.566813 87.400971 
L 87.177985 87.400971 
L 87.177985 42.562451 
L 86.566813 42.562451 
z
" style="fill:#1d1d1d;"/>
   </g>
   <g id="patch_144">
    <path clip-path="url(#pa5411bb4ee)" d="M 87.076123 87.400971 
L 87.687295 87.400971 
L 87.687295 42.928851 
L 87.076123 42.928851 
z
" style="fill:#1d1d1d;"/>
   </g>
   <g id="patch_145">
    <path clip-path="url(#pa5411bb4ee)" d="M 87.585433 87.400971 
L 88.196605 87.400971 
L 88.196605 43.119478 
L 87.585433 43.119478 
z
" style="fill:#1d1d1d;"/>
   </g>
   <g id="patch_146">
    <path clip-path="url(#pa5411bb4ee)" d="M 88.094743 87.400971 
L 88.705915 87.400971 
L 88.705915 43.151243 
L 88.094743 43.151243 
z
" style="fill:#1d1d1d;"/>
   </g>
   <g id="patch_147">
    <path clip-path="url(#pa5411bb4ee)" d="M 88.604053 87.400971 
L 89.215225 87.400971 
L 89.215225 43.180341 
L 88.604053 43.180341 
z
" style="fill:#1d1d1d;"/>
   </g>
   <g id="patch_148">
    <path clip-path="url(#pa5411bb4ee)" d="M 89.113363 87.400971 
L 89.724535 87.400971 
L 89.724535 43.885 
L 89.113363 43.885 
z
" style="fill:#1d1d1d;"/>
   </g>
   <g id="patch_149">
    <path clip-path="url(#pa5411bb4ee)" d="M 89.622673 87.400971 
L 90.233844 87.400971 
L 90.233844 44.352666 
L 89.622673 44.352666 
z
" style="fill:#1d1d1d;"/>
   </g>
   <g id="patch_150">
    <path clip-path="url(#pa5411bb4ee)" d="M 90.131982 87.400971 
L 90.743154 87.400971 
L 90.743154 44.438357 
L 90.131982 44.438357 
z
" style="fill:#1d1d1d;"/>
   </g>
   <g id="patch_151">
    <path clip-path="url(#pa5411bb4ee)" d="M 90.641292 87.400971 
L 91.252464 87.400971 
L 91.252464 45.638552 
L 90.641292 45.638552 
z
" style="fill:#1d1d1d;"/>
   </g>
   <g id="patch_152">
    <path clip-path="url(#pa5411bb4ee)" d="M 91.150602 87.400971 
L 91.761774 87.400971 
L 91.761774 45.712891 
L 91.150602 45.712891 
z
" style="fill:#1d1d1d;"/>
   </g>
   <g id="patch_153">
    <path clip-path="url(#pa5411bb4ee)" d="M 91.659912 87.400971 
L 92.271084 87.400971 
L 92.271084 46.25272 
L 91.659912 46.25272 
z
" style="fill:#1d1d1d;"/>
   </g>
   <g id="patch_154">
    <path clip-path="url(#pa5411bb4ee)" d="M 92.169222 87.400971 
L 92.780394 87.400971 
L 92.780394 46.915417 
L 92.169222 46.915417 
z
" style="fill:#1d1d1d;"/>
   </g>
   <g id="patch_155">
    <path clip-path="url(#pa5411bb4ee)" d="M 92.678532 87.400971 
L 93.289704 87.400971 
L 93.289704 46.95599 
L 92.678532 46.95599 
z
" style="fill:#1d1d1d;"/>
   </g>
   <g id="patch_156">
    <path clip-path="url(#pa5411bb4ee)" d="M 93.187842 87.400971 
L 93.799014 87.400971 
L 93.799014 46.962884 
L 93.187842 46.962884 
z
" style="fill:#1d1d1d;"/>
   </g>
   <g id="patch_157">
    <path clip-path="url(#pa5411bb4ee)" d="M 93.697152 87.400971 
L 94.308324 87.400971 
L 94.308324 47.919549 
L 93.697152 47.919549 
z
" style="fill:#1d1d1d;"/>
   </g>
   <g id="patch_158">
    <path clip-path="url(#pa5411bb4ee)" d="M 94.206462 87.400971 
L 94.817634 87.400971 
L 94.817634 48.237579 
L 94.206462 48.237579 
z
" style="fill:#1d1d1d;"/>
   </g>
   <g id="patch_159">
    <path clip-path="url(#pa5411bb4ee)" d="M 94.715772 87.400971 
L 95.326944 87.400971 
L 95.326944 48.513774 
L 94.715772 48.513774 
z
" style="fill:#1d1d1d;"/>
   </g>
   <g id="patch_160">
    <path clip-path="url(#pa5411bb4ee)" d="M 95.225082 87.400971 
L 95.836254 87.400971 
L 95.836254 48.940235 
L 95.225082 48.940235 
z
" style="fill:#1d1d1d;"/>
   </g>
   <g id="patch_161">
    <path clip-path="url(#pa5411bb4ee)" d="M 95.734392 87.400971 
L 96.345564 87.400971 
L 96.345564 49.059518 
L 95.734392 49.059518 
z
" style="fill:#1d1d1d;"/>
   </g>
   <g id="patch_162">
    <path clip-path="url(#pa5411bb4ee)" d="M 96.243702 87.400971 
L 96.854874 87.400971 
L 96.854874 49.882823 
L 96.243702 49.882823 
z
" style="fill:#1d1d1d;"/>
   </g>
   <g id="patch_163">
    <path clip-path="url(#pa5411bb4ee)" d="M 96.753012 87.400971 
L 97.364184 87.400971 
L 97.364184 50.468469 
L 96.753012 50.468469 
z
" style="fill:#1d1d1d;"/>
   </g>
   <g id="patch_164">
    <path clip-path="url(#pa5411bb4ee)" d="M 97.262322 87.400971 
L 97.873494 87.400971 
L 97.873494 50.726843 
L 97.262322 50.726843 
z
" style="fill:#1d1d1d;"/>
   </g>
   <g id="patch_165">
    <path clip-path="url(#pa5411bb4ee)" d="M 97.771632 87.400971 
L 98.382804 87.400971 
L 98.382804 50.838687 
L 97.771632 50.838687 
z
" style="fill:#1d1d1d;"/>
   </g>
   <g id="patch_166">
    <path clip-path="url(#pa5411bb4ee)" d="M 98.280942 87.400971 
L 98.892114 87.400971 
L 98.892114 50.907843 
L 98.280942 50.907843 
z
" style="fill:#1d1d1d;"/>
   </g>
   <g id="patch_167">
    <path clip-path="url(#pa5411bb4ee)" d="M 98.790252 87.400971 
L 99.401424 87.400971 
L 99.401424 52.228712 
L 98.790252 52.228712 
z
" style="fill:#1d1d1d;"/>
   </g>
   <g id="patch_168">
    <path clip-path="url(#pa5411bb4ee)" d="M 99.299562 87.400971 
L 99.910734 87.400971 
L 99.910734 52.84218 
L 99.299562 52.84218 
z
" style="fill:#1d1d1d;"/>
   </g>
   <g id="patch_169">
    <path clip-path="url(#pa5411bb4ee)" d="M 99.808872 87.400971 
L 100.420044 87.400971 
L 100.420044 53.366492 
L 99.808872 53.366492 
z
" style="fill:#1d1d1d;"/>
   </g>
   <g id="patch_170">
    <path clip-path="url(#pa5411bb4ee)" d="M 100.318182 87.400971 
L 100.929354 87.400971 
L 100.929354 54.257294 
L 100.318182 54.257294 
z
" style="fill:#1d1d1d;"/>
   </g>
   <g id="patch_171">
    <path clip-path="url(#pa5411bb4ee)" d="M 100.827492 87.400971 
L 101.438664 87.400971 
L 101.438664 54.380216 
L 100.827492 54.380216 
z
" style="fill:#1d1d1d;"/>
   </g>
   <g id="patch_172">
    <path clip-path="url(#pa5411bb4ee)" d="M 101.336802 87.400971 
L 101.947974 87.400971 
L 101.947974 54.435622 
L 101.336802 54.435622 
z
" style="fill:#1d1d1d;"/>
   </g>
   <g id="patch_173">
    <path clip-path="url(#pa5411bb4ee)" d="M 101.846112 87.400971 
L 102.457284 87.400971 
L 102.457284 54.566504 
L 101.846112 54.566504 
z
" style="fill:#1d1d1d;"/>
   </g>
   <g id="patch_174">
    <path clip-path="url(#pa5411bb4ee)" d="M 102.355422 87.400971 
L 102.966594 87.400971 
L 102.966594 54.601908 
L 102.355422 54.601908 
z
" style="fill:#1d1d1d;"/>
   </g>
   <g id="patch_175">
    <path clip-path="url(#pa5411bb4ee)" d="M 102.864732 87.400971 
L 103.475904 87.400971 
L 103.475904 55.059557 
L 102.864732 55.059557 
z
" style="fill:#1d1d1d;"/>
   </g>
   <g id="patch_176">
    <path clip-path="url(#pa5411bb4ee)" d="M 103.374042 87.400971 
L 103.985214 87.400971 
L 103.985214 55.768731 
L 103.374042 55.768731 
z
" style="fill:#1d1d1d;"/>
   </g>
   <g id="patch_177">
    <path clip-path="url(#pa5411bb4ee)" d="M 103.883352 87.400971 
L 104.494524 87.400971 
L 104.494524 56.128547 
L 103.883352 56.128547 
z
" style="fill:#1d1d1d;"/>
   </g>
   <g id="patch_178">
    <path clip-path="url(#pa5411bb4ee)" d="M 104.392662 87.400971 
L 105.003834 87.400971 
L 105.003834 56.222129 
L 104.392662 56.222129 
z
" style="fill:#1d1d1d;"/>
   </g>
   <g id="patch_179">
    <path clip-path="url(#pa5411bb4ee)" d="M 104.901972 87.400971 
L 105.513143 87.400971 
L 105.513143 56.400426 
L 104.901972 56.400426 
z
" style="fill:#1d1d1d;"/>
   </g>
   <g id="patch_180">
    <path clip-path="url(#pa5411bb4ee)" d="M 105.411281 87.400971 
L 106.022453 87.400971 
L 106.022453 56.736221 
L 105.411281 56.736221 
z
" style="fill:#1d1d1d;"/>
   </g>
   <g id="patch_181">
    <path clip-path="url(#pa5411bb4ee)" d="M 105.920591 87.400971 
L 106.531763 87.400971 
L 106.531763 57.272971 
L 105.920591 57.272971 
z
" style="fill:#1d1d1d;"/>
   </g>
   <g id="patch_182">
    <path clip-path="url(#pa5411bb4ee)" d="M 106.429901 87.400971 
L 107.041073 87.400971 
L 107.041073 57.316441 
L 106.429901 57.316441 
z
" style="fill:#1d1d1d;"/>
   </g>
   <g id="patch_183">
    <path clip-path="url(#pa5411bb4ee)" d="M 106.939211 87.400971 
L 107.550383 87.400971 
L 107.550383 57.353084 
L 106.939211 57.353084 
z
" style="fill:#1d1d1d;"/>
   </g>
   <g id="patch_184">
    <path clip-path="url(#pa5411bb4ee)" d="M 107.448521 87.400971 
L 108.059693 87.400971 
L 108.059693 57.696019 
L 107.448521 57.696019 
z
" style="fill:#1d1d1d;"/>
   </g>
   <g id="patch_185">
    <path clip-path="url(#pa5411bb4ee)" d="M 107.957831 87.400971 
L 108.569003 87.400971 
L 108.569003 57.890876 
L 107.957831 57.890876 
z
" style="fill:#1d1d1d;"/>
   </g>
   <g id="patch_186">
    <path clip-path="url(#pa5411bb4ee)" d="M 108.467141 87.400971 
L 109.078313 87.400971 
L 109.078313 58.191295 
L 108.467141 58.191295 
z
" style="fill:#1d1d1d;"/>
   </g>
   <g id="patch_187">
    <path clip-path="url(#pa5411bb4ee)" d="M 108.976451 87.400971 
L 109.587623 87.400971 
L 109.587623 58.195851 
L 108.976451 58.195851 
z
" style="fill:#1d1d1d;"/>
   </g>
   <g id="patch_188">
    <path clip-path="url(#pa5411bb4ee)" d="M 109.485761 87.400971 
L 110.096933 87.400971 
L 110.096933 59.043454 
L 109.485761 59.043454 
z
" style="fill:#1d1d1d;"/>
   </g>
   <g id="patch_189">
    <path clip-path="url(#pa5411bb4ee)" d="M 109.995071 87.400971 
L 110.606243 87.400971 
L 110.606243 59.237204 
L 109.995071 59.237204 
z
" style="fill:#1d1d1d;"/>
   </g>
   <g id="patch_190">
    <path clip-path="url(#pa5411bb4ee)" d="M 110.504381 87.400971 
L 111.115553 87.400971 
L 111.115553 59.925521 
L 110.504381 59.925521 
z
" style="fill:#1d1d1d;"/>
   </g>
   <g id="patch_191">
    <path clip-path="url(#pa5411bb4ee)" d="M 111.013691 87.400971 
L 111.624863 87.400971 
L 111.624863 60.239148 
L 111.013691 60.239148 
z
" style="fill:#1d1d1d;"/>
   </g>
   <g id="patch_192">
    <path clip-path="url(#pa5411bb4ee)" d="M 111.523001 87.400971 
L 112.134173 87.400971 
L 112.134173 60.242695 
L 111.523001 60.242695 
z
" style="fill:#1d1d1d;"/>
   </g>
   <g id="patch_193">
    <path clip-path="url(#pa5411bb4ee)" d="M 112.032311 87.400971 
L 112.643483 87.400971 
L 112.643483 60.879387 
L 112.032311 60.879387 
z
" style="fill:#1d1d1d;"/>
   </g>
   <g id="patch_194">
    <path clip-path="url(#pa5411bb4ee)" d="M 112.541621 87.400971 
L 113.152793 87.400971 
L 113.152793 61.085665 
L 112.541621 61.085665 
z
" style="fill:#1d1d1d;"/>
   </g>
   <g id="patch_195">
    <path clip-path="url(#pa5411bb4ee)" d="M 113.050931 87.400971 
L 113.662103 87.400971 
L 113.662103 61.159982 
L 113.050931 61.159982 
z
" style="fill:#1d1d1d;"/>
   </g>
   <g id="patch_196">
    <path clip-path="url(#pa5411bb4ee)" d="M 113.560241 87.400971 
L 114.171413 87.400971 
L 114.171413 61.339912 
L 113.560241 61.339912 
z
" style="fill:#1d1d1d;"/>
   </g>
   <g id="patch_197">
    <path clip-path="url(#pa5411bb4ee)" d="M 114.069551 87.400971 
L 114.680723 87.400971 
L 114.680723 61.349153 
L 114.069551 61.349153 
z
" style="fill:#1d1d1d;"/>
   </g>
   <g id="patch_198">
    <path clip-path="url(#pa5411bb4ee)" d="M 114.578861 87.400971 
L 115.190033 87.400971 
L 115.190033 61.370661 
L 114.578861 61.370661 
z
" style="fill:#1d1d1d;"/>
   </g>
   <g id="patch_199">
    <path clip-path="url(#pa5411bb4ee)" d="M 115.088171 87.400971 
L 115.699343 87.400971 
L 115.699343 61.660895 
L 115.088171 61.660895 
z
" style="fill:#1d1d1d;"/>
   </g>
   <g id="patch_200">
    <path clip-path="url(#pa5411bb4ee)" d="M 115.597481 87.400971 
L 116.208653 87.400971 
L 116.208653 61.948925 
L 115.597481 61.948925 
z
" style="fill:#1d1d1d;"/>
   </g>
   <g id="patch_201">
    <path clip-path="url(#pa5411bb4ee)" d="M 116.106791 87.400971 
L 116.717963 87.400971 
L 116.717963 62.696068 
L 116.106791 62.696068 
z
" style="fill:#1d1d1d;"/>
   </g>
   <g id="patch_202">
    <path clip-path="url(#pa5411bb4ee)" d="M 116.616101 87.400971 
L 117.227273 87.400971 
L 117.227273 62.811767 
L 116.616101 62.811767 
z
" style="fill:#1d1d1d;"/>
   </g>
   <g id="matplotlib.axis_1"/>
   <g id="matplotlib.axis_2"/>
   <g id="patch_203">
    <path d="M 10.7 93.86 
L 10.7 10.7 
" style="fill:none;stroke:#000000;stroke-linecap:square;stroke-linejoin:miter;stroke-width:0.8;"/>
   </g>
   <g id="patch_204">
    <path d="M 122.3 93.86 
L 122.3 10.7 
" style="fill:none;stroke:#000000;stroke-linecap:square;stroke-linejoin:miter;stroke-width:0.8;"/>
   </g>
   <g id="patch_205">
    <path d="M 10.7 93.86 
L 122.3 93.86 
" style="fill:none;stroke:#000000;stroke-linecap:square;stroke-linejoin:miter;stroke-width:0.8;"/>
   </g>
   <g id="patch_206">
    <path d="M 10.7 10.7 
L 122.3 10.7 
" style="fill:none;stroke:#000000;stroke-linecap:square;stroke-linejoin:miter;stroke-width:0.8;"/>
   </g>
  </g>
 </g>
 <defs>
  <clipPath id="pa5411bb4ee">
   <rect height="83.16" width="111.6" x="10.7" y="10.7"/>
  </clipPath>
 </defs>
</svg>
