<?xml version="1.0" encoding="utf-8" standalone="no"?>
<!DOCTYPE svg PUBLIC "-//W3C//DTD SVG 1.1//EN"
  "http://www.w3.org/Graphics/SVG/1.1/DTD/svg11.dtd">
<!-- Created with matplotlib (http://matplotlib.org/) -->
<svg height="354pt" version="1.1" viewBox="0 0 439 354" width="439pt" xmlns="http://www.w3.org/2000/svg" xmlns:xlink="http://www.w3.org/1999/xlink">
 <defs>
  <style type="text/css">
*{stroke-linecap:butt;stroke-linejoin:round;}
  </style>
 </defs>
 <g id="figure_1">
  <g id="patch_1">
   <path d="M -0 354.04 
L 439.17183 354.04 
L 439.17183 0 
L -0 0 
z
" style="fill:#ffffff;"/>
  </g>
  <g id="axes_1">
   <g id="patch_2">
    <path d="M 109.614688 343.34 
L 428.47183 343.34 
L 428.47183 10.7 
L 109.614688 10.7 
z
" style="fill:#ffffff;"/>
   </g>
   <g id="matplotlib.axis_1"/>
   <g id="matplotlib.axis_2">
    <g id="ytick_1">
     <g id="line2d_1">
      <defs>
       <path d="M 0 0 
L -3.5 0 
" id="mff11754128" style="stroke:#000000;stroke-width:0.8;"/>
      </defs>
      <g>
       <use style="stroke:#000000;stroke-width:0.8;" x="109.614688" xlink:href="#mff11754128" y="285.905375"/>
      </g>
     </g>
     <g id="text_1">
      <!-- −0.0004 -->
      <defs>
       <path d="M 10.59375 35.5 
L 73.1875 35.5 
L 73.1875 27.203125 
L 10.59375 27.203125 
z
" id="DejaVuSans-2212"/>
       <path d="M 31.78125 66.40625 
Q 24.171875 66.40625 20.328125 58.90625 
Q 16.5 51.421875 16.5 36.375 
Q 16.5 21.390625 20.328125 13.890625 
Q 24.171875 6.390625 31.78125 6.390625 
Q 39.453125 6.390625 43.28125 13.890625 
Q 47.125 21.390625 47.125 36.375 
Q 47.125 51.421875 43.28125 58.90625 
Q 39.453125 66.40625 31.78125 66.40625 
z
M 31.78125 74.21875 
Q 44.046875 74.21875 50.515625 64.515625 
Q 56.984375 54.828125 56.984375 36.375 
Q 56.984375 17.96875 50.515625 8.265625 
Q 44.046875 -1.421875 31.78125 -1.421875 
Q 19.53125 -1.421875 13.0625 8.265625 
Q 6.59375 17.96875 6.59375 36.375 
Q 6.59375 54.828125 13.0625 64.515625 
Q 19.53125 74.21875 31.78125 74.21875 
z
" id="DejaVuSans-30"/>
       <path d="M 10.6875 12.40625 
L 21 12.40625 
L 21 0 
L 10.6875 0 
z
" id="DejaVuSans-2e"/>
       <path d="M 37.796875 64.3125 
L 12.890625 25.390625 
L 37.796875 25.390625 
z
M 35.203125 72.90625 
L 47.609375 72.90625 
L 47.609375 25.390625 
L 58.015625 25.390625 
L 58.015625 17.1875 
L 47.609375 17.1875 
L 47.609375 0 
L 37.796875 0 
L 37.796875 17.1875 
L 4.890625 17.1875 
L 4.890625 26.703125 
z
" id="DejaVuSans-34"/>
      </defs>
      <g transform="translate(7.2 294.263657)scale(0.22 -0.22)">
       <use xlink:href="#DejaVuSans-2212"/>
       <use x="83.789062" xlink:href="#DejaVuSans-30"/>
       <use x="147.412109" xlink:href="#DejaVuSans-2e"/>
       <use x="179.199219" xlink:href="#DejaVuSans-30"/>
       <use x="242.822266" xlink:href="#DejaVuSans-30"/>
       <use x="306.445312" xlink:href="#DejaVuSans-30"/>
       <use x="370.068359" xlink:href="#DejaVuSans-34"/>
      </g>
     </g>
    </g>
    <g id="ytick_2">
     <g id="line2d_2">
      <g>
       <use style="stroke:#000000;stroke-width:0.8;" x="109.614688" xlink:href="#mff11754128" y="224.10488"/>
      </g>
     </g>
     <g id="text_2">
      <!-- −0.0002 -->
      <defs>
       <path d="M 19.1875 8.296875 
L 53.609375 8.296875 
L 53.609375 0 
L 7.328125 0 
L 7.328125 8.296875 
Q 12.9375 14.109375 22.625 23.890625 
Q 32.328125 33.6875 34.8125 36.53125 
Q 39.546875 41.84375 41.421875 45.53125 
Q 43.3125 49.21875 43.3125 52.78125 
Q 43.3125 58.59375 39.234375 62.25 
Q 35.15625 65.921875 28.609375 65.921875 
Q 23.96875 65.921875 18.8125 64.3125 
Q 13.671875 62.703125 7.8125 59.421875 
L 7.8125 69.390625 
Q 13.765625 71.78125 18.9375 73 
Q 24.125 74.21875 28.421875 74.21875 
Q 39.75 74.21875 46.484375 68.546875 
Q 53.21875 62.890625 53.21875 53.421875 
Q 53.21875 48.921875 51.53125 44.890625 
Q 49.859375 40.875 45.40625 35.40625 
Q 44.1875 33.984375 37.640625 27.21875 
Q 31.109375 20.453125 19.1875 8.296875 
z
" id="DejaVuSans-32"/>
      </defs>
      <g transform="translate(7.2 232.463162)scale(0.22 -0.22)">
       <use xlink:href="#DejaVuSans-2212"/>
       <use x="83.789062" xlink:href="#DejaVuSans-30"/>
       <use x="147.412109" xlink:href="#DejaVuSans-2e"/>
       <use x="179.199219" xlink:href="#DejaVuSans-30"/>
       <use x="242.822266" xlink:href="#DejaVuSans-30"/>
       <use x="306.445312" xlink:href="#DejaVuSans-30"/>
       <use x="370.068359" xlink:href="#DejaVuSans-32"/>
      </g>
     </g>
    </g>
    <g id="ytick_3">
     <g id="line2d_3">
      <g>
       <use style="stroke:#000000;stroke-width:0.8;" x="109.614688" xlink:href="#mff11754128" y="162.304385"/>
      </g>
     </g>
     <g id="text_3">
      <!-- 0.0000 -->
      <g transform="translate(25.635312 170.662666)scale(0.22 -0.22)">
       <use xlink:href="#DejaVuSans-30"/>
       <use x="63.623047" xlink:href="#DejaVuSans-2e"/>
       <use x="95.410156" xlink:href="#DejaVuSans-30"/>
       <use x="159.033203" xlink:href="#DejaVuSans-30"/>
       <use x="222.65625" xlink:href="#DejaVuSans-30"/>
       <use x="286.279297" xlink:href="#DejaVuSans-30"/>
      </g>
     </g>
    </g>
    <g id="ytick_4">
     <g id="line2d_4">
      <g>
       <use style="stroke:#000000;stroke-width:0.8;" x="109.614688" xlink:href="#mff11754128" y="100.50389"/>
      </g>
     </g>
     <g id="text_4">
      <!-- 0.0002 -->
      <g transform="translate(25.635312 108.862171)scale(0.22 -0.22)">
       <use xlink:href="#DejaVuSans-30"/>
       <use x="63.623047" xlink:href="#DejaVuSans-2e"/>
       <use x="95.410156" xlink:href="#DejaVuSans-30"/>
       <use x="159.033203" xlink:href="#DejaVuSans-30"/>
       <use x="222.65625" xlink:href="#DejaVuSans-30"/>
       <use x="286.279297" xlink:href="#DejaVuSans-32"/>
      </g>
     </g>
    </g>
    <g id="ytick_5">
     <g id="line2d_5">
      <g>
       <use style="stroke:#000000;stroke-width:0.8;" x="109.614688" xlink:href="#mff11754128" y="38.703395"/>
      </g>
     </g>
     <g id="text_5">
      <!-- 0.0004 -->
      <g transform="translate(25.635312 47.061676)scale(0.22 -0.22)">
       <use xlink:href="#DejaVuSans-30"/>
       <use x="63.623047" xlink:href="#DejaVuSans-2e"/>
       <use x="95.410156" xlink:href="#DejaVuSans-30"/>
       <use x="159.033203" xlink:href="#DejaVuSans-30"/>
       <use x="222.65625" xlink:href="#DejaVuSans-30"/>
       <use x="286.279297" xlink:href="#DejaVuSans-34"/>
      </g>
     </g>
    </g>
   </g>
   <g id="patch_3">
    <path clip-path="url(#p16f453ba27)" d="M 124.108194 162.304385 
L 138.6017 162.304385 
L 138.6017 153.932004 
L 124.108194 153.932004 
z
" style="fill:#d92523;"/>
   </g>
   <g id="patch_4">
    <path clip-path="url(#p16f453ba27)" d="M 138.6017 162.304385 
L 153.095207 162.304385 
L 153.095207 141.13625 
L 138.6017 141.13625 
z
" style="fill:#d92523;"/>
   </g>
   <g id="patch_5">
    <path clip-path="url(#p16f453ba27)" d="M 153.095207 162.304385 
L 167.588713 162.304385 
L 167.588713 257.377651 
L 153.095207 257.377651 
z
" style="fill:#d92523;"/>
   </g>
   <g id="patch_6">
    <path clip-path="url(#p16f453ba27)" d="M 167.588713 162.304385 
L 182.08222 162.304385 
L 182.08222 175.45785 
L 167.588713 175.45785 
z
" style="fill:#d92523;"/>
   </g>
   <g id="patch_7">
    <path clip-path="url(#p16f453ba27)" d="M 182.08222 162.304385 
L 196.575726 162.304385 
L 196.575726 95.198042 
L 182.08222 95.198042 
z
" style="fill:#d92523;"/>
   </g>
   <g id="patch_8">
    <path clip-path="url(#p16f453ba27)" d="M 196.575726 162.304385 
L 211.069233 162.304385 
L 211.069233 83.968513 
L 196.575726 83.968513 
z
" style="fill:#d92523;"/>
   </g>
   <g id="patch_9">
    <path clip-path="url(#p16f453ba27)" d="M 211.069233 162.304385 
L 225.562739 162.304385 
L 225.562739 328.22 
L 211.069233 328.22 
z
" style="fill:#d92523;"/>
   </g>
   <g id="patch_10">
    <path clip-path="url(#p16f453ba27)" d="M 225.562739 162.304385 
L 240.056246 162.304385 
L 240.056246 158.868667 
L 225.562739 158.868667 
z
" style="fill:#d92523;"/>
   </g>
   <g id="patch_11">
    <path clip-path="url(#p16f453ba27)" d="M 240.056246 162.304385 
L 254.549752 162.304385 
L 254.549752 78.438169 
L 240.056246 78.438169 
z
" style="fill:#d92523;"/>
   </g>
   <g id="patch_12">
    <path clip-path="url(#p16f453ba27)" d="M 254.549752 162.304385 
L 269.043259 162.304385 
L 269.043259 177.789334 
L 254.549752 177.789334 
z
" style="fill:#d92523;"/>
   </g>
   <g id="patch_13">
    <path clip-path="url(#p16f453ba27)" d="M 269.043259 162.304385 
L 283.536765 162.304385 
L 283.536765 191.735561 
L 269.043259 191.735561 
z
" style="fill:#d92523;"/>
   </g>
   <g id="patch_14">
    <path clip-path="url(#p16f453ba27)" d="M 283.536765 162.304385 
L 298.030272 162.304385 
L 298.030272 170.942657 
L 283.536765 170.942657 
z
" style="fill:#d92523;"/>
   </g>
   <g id="patch_15">
    <path clip-path="url(#p16f453ba27)" d="M 298.030272 162.304385 
L 312.523778 162.304385 
L 312.523778 107.380975 
L 298.030272 107.380975 
z
" style="fill:#d92523;"/>
   </g>
   <g id="patch_16">
    <path clip-path="url(#p16f453ba27)" d="M 312.523778 162.304385 
L 327.017285 162.304385 
L 327.017285 173.264248 
L 312.523778 173.264248 
z
" style="fill:#d92523;"/>
   </g>
   <g id="patch_17">
    <path clip-path="url(#p16f453ba27)" d="M 327.017285 162.304385 
L 341.510791 162.304385 
L 341.510791 25.82 
L 327.017285 25.82 
z
" style="fill:#d92523;"/>
   </g>
   <g id="patch_18">
    <path clip-path="url(#p16f453ba27)" d="M 341.510791 162.304385 
L 356.004298 162.304385 
L 356.004298 102.915679 
L 341.510791 102.915679 
z
" style="fill:#d92523;"/>
   </g>
   <g id="patch_19">
    <path clip-path="url(#p16f453ba27)" d="M 356.004298 162.304385 
L 370.497804 162.304385 
L 370.497804 174.060765 
L 356.004298 174.060765 
z
" style="fill:#d92523;"/>
   </g>
   <g id="patch_20">
    <path clip-path="url(#p16f453ba27)" d="M 370.497804 162.304385 
L 384.991311 162.304385 
L 384.991311 173.522314 
L 370.497804 173.522314 
z
" style="fill:#d92523;"/>
   </g>
   <g id="patch_21">
    <path clip-path="url(#p16f453ba27)" d="M 384.991311 162.304385 
L 399.484817 162.304385 
L 399.484817 158.420345 
L 384.991311 158.420345 
z
" style="fill:#d92523;"/>
   </g>
   <g id="patch_22">
    <path clip-path="url(#p16f453ba27)" d="M 399.484817 162.304385 
L 413.978324 162.304385 
L 413.978324 228.857088 
L 399.484817 228.857088 
z
" style="fill:#d92523;"/>
   </g>
   <g id="patch_23">
    <path clip-path="url(#p16f453ba27)" d="M 124.108194 162.304385 
L 138.6017 162.304385 
L 138.6017 166.179895 
L 124.108194 166.179895 
z
" style="fill:#2e7ebc;"/>
   </g>
   <g id="patch_24">
    <path clip-path="url(#p16f453ba27)" d="M 138.6017 162.304385 
L 153.095207 162.304385 
L 153.095207 165.131067 
L 138.6017 165.131067 
z
" style="fill:#2e7ebc;"/>
   </g>
   <g id="patch_25">
    <path clip-path="url(#p16f453ba27)" d="M 153.095207 162.304385 
L 167.588713 162.304385 
L 167.588713 104.718643 
L 153.095207 104.718643 
z
" style="fill:#2e7ebc;"/>
   </g>
   <g id="patch_26">
    <path clip-path="url(#p16f453ba27)" d="M 167.588713 162.304385 
L 182.08222 162.304385 
L 182.08222 221.93239 
L 167.588713 221.93239 
z
" style="fill:#2e7ebc;"/>
   </g>
   <g id="patch_27">
    <path clip-path="url(#p16f453ba27)" d="M 182.08222 162.304385 
L 196.575726 162.304385 
L 196.575726 195.144344 
L 182.08222 195.144344 
z
" style="fill:#2e7ebc;"/>
   </g>
   <g id="patch_28">
    <path clip-path="url(#p16f453ba27)" d="M 196.575726 162.304385 
L 211.069233 162.304385 
L 211.069233 164.080856 
L 196.575726 164.080856 
z
" style="fill:#2e7ebc;"/>
   </g>
   <g id="patch_29">
    <path clip-path="url(#p16f453ba27)" d="M 211.069233 162.304385 
L 225.562739 162.304385 
L 225.562739 87.387204 
L 211.069233 87.387204 
z
" style="fill:#2e7ebc;"/>
   </g>
   <g id="patch_30">
    <path clip-path="url(#p16f453ba27)" d="M 225.562739 162.304385 
L 240.056246 162.304385 
L 240.056246 198.264392 
L 225.562739 198.264392 
z
" style="fill:#2e7ebc;"/>
   </g>
   <g id="patch_31">
    <path clip-path="url(#p16f453ba27)" d="M 240.056246 162.304385 
L 254.549752 162.304385 
L 254.549752 181.573286 
L 240.056246 181.573286 
z
" style="fill:#2e7ebc;"/>
   </g>
   <g id="patch_32">
    <path clip-path="url(#p16f453ba27)" d="M 254.549752 162.304385 
L 269.043259 162.304385 
L 269.043259 200.40285 
L 254.549752 200.40285 
z
" style="fill:#2e7ebc;"/>
   </g>
   <g id="patch_33">
    <path clip-path="url(#p16f453ba27)" d="M 269.043259 162.304385 
L 283.536765 162.304385 
L 283.536765 175.197086 
L 269.043259 175.197086 
z
" style="fill:#2e7ebc;"/>
   </g>
   <g id="patch_34">
    <path clip-path="url(#p16f453ba27)" d="M 283.536765 162.304385 
L 298.030272 162.304385 
L 298.030272 142.193697 
L 283.536765 142.193697 
z
" style="fill:#2e7ebc;"/>
   </g>
   <g id="patch_35">
    <path clip-path="url(#p16f453ba27)" d="M 298.030272 162.304385 
L 312.523778 162.304385 
L 312.523778 212.883768 
L 298.030272 212.883768 
z
" style="fill:#2e7ebc;"/>
   </g>
   <g id="patch_36">
    <path clip-path="url(#p16f453ba27)" d="M 312.523778 162.304385 
L 327.017285 162.304385 
L 327.017285 158.165517 
L 312.523778 158.165517 
z
" style="fill:#2e7ebc;"/>
   </g>
   <g id="patch_37">
    <path clip-path="url(#p16f453ba27)" d="M 327.017285 162.304385 
L 341.510791 162.304385 
L 341.510791 261.973078 
L 327.017285 261.973078 
z
" style="fill:#2e7ebc;"/>
   </g>
   <g id="patch_38">
    <path clip-path="url(#p16f453ba27)" d="M 341.510791 162.304385 
L 356.004298 162.304385 
L 356.004298 181.199575 
L 341.510791 181.199575 
z
" style="fill:#2e7ebc;"/>
   </g>
   <g id="patch_39">
    <path clip-path="url(#p16f453ba27)" d="M 356.004298 162.304385 
L 370.497804 162.304385 
L 370.497804 176.688846 
L 356.004298 176.688846 
z
" style="fill:#2e7ebc;"/>
   </g>
   <g id="patch_40">
    <path clip-path="url(#p16f453ba27)" d="M 370.497804 162.304385 
L 384.991311 162.304385 
L 384.991311 124.130438 
L 370.497804 124.130438 
z
" style="fill:#2e7ebc;"/>
   </g>
   <g id="patch_41">
    <path clip-path="url(#p16f453ba27)" d="M 384.991311 162.304385 
L 399.484817 162.304385 
L 399.484817 146.325607 
L 384.991311 146.325607 
z
" style="fill:#2e7ebc;"/>
   </g>
   <g id="patch_42">
    <path clip-path="url(#p16f453ba27)" d="M 399.484817 162.304385 
L 413.978324 162.304385 
L 413.978324 132.447167 
L 399.484817 132.447167 
z
" style="fill:#2e7ebc;"/>
   </g>
   <g id="patch_43">
    <path d="M 109.614688 343.34 
L 109.614688 10.7 
" style="fill:none;stroke:#000000;stroke-linecap:square;stroke-linejoin:miter;stroke-width:0.8;"/>
   </g>
   <g id="patch_44">
    <path d="M 428.47183 343.34 
L 428.47183 10.7 
" style="fill:none;stroke:#000000;stroke-linecap:square;stroke-linejoin:miter;stroke-width:0.8;"/>
   </g>
   <g id="patch_45">
    <path d="M 109.614688 343.34 
L 428.47183 343.34 
" style="fill:none;stroke:#000000;stroke-linecap:square;stroke-linejoin:miter;stroke-width:0.8;"/>
   </g>
   <g id="patch_46">
    <path d="M 109.614688 10.7 
L 428.47183 10.7 
" style="fill:none;stroke:#000000;stroke-linecap:square;stroke-linejoin:miter;stroke-width:0.8;"/>
   </g>
   <g id="patch_47">
    <path clip-path="url(#p16f453ba27)" d="M 124.108194 162.304385 
L 138.6017 162.304385 
L 138.6017 162.304385 
L 124.108194 162.304385 
z
" style="fill:none;stroke:#000000;stroke-linejoin:miter;"/>
   </g>
   <g id="patch_48">
    <path clip-path="url(#p16f453ba27)" d="M 138.6017 162.304385 
L 153.095207 162.304385 
L 153.095207 162.304385 
L 138.6017 162.304385 
z
" style="fill:none;stroke:#000000;stroke-linejoin:miter;"/>
   </g>
   <g id="patch_49">
    <path clip-path="url(#p16f453ba27)" d="M 153.095207 162.304385 
L 167.588713 162.304385 
L 167.588713 162.304385 
L 153.095207 162.304385 
z
" style="fill:none;stroke:#000000;stroke-linejoin:miter;"/>
   </g>
   <g id="patch_50">
    <path clip-path="url(#p16f453ba27)" d="M 167.588713 162.304385 
L 182.08222 162.304385 
L 182.08222 162.304385 
L 167.588713 162.304385 
z
" style="fill:none;stroke:#000000;stroke-linejoin:miter;"/>
   </g>
   <g id="patch_51">
    <path clip-path="url(#p16f453ba27)" d="M 182.08222 162.304385 
L 196.575726 162.304385 
L 196.575726 162.304385 
L 182.08222 162.304385 
z
" style="fill:none;stroke:#000000;stroke-linejoin:miter;"/>
   </g>
   <g id="patch_52">
    <path clip-path="url(#p16f453ba27)" d="M 196.575726 162.304385 
L 211.069233 162.304385 
L 211.069233 162.304385 
L 196.575726 162.304385 
z
" style="fill:none;stroke:#000000;stroke-linejoin:miter;"/>
   </g>
   <g id="patch_53">
    <path clip-path="url(#p16f453ba27)" d="M 211.069233 162.304385 
L 225.562739 162.304385 
L 225.562739 162.304385 
L 211.069233 162.304385 
z
" style="fill:none;stroke:#000000;stroke-linejoin:miter;"/>
   </g>
   <g id="patch_54">
    <path clip-path="url(#p16f453ba27)" d="M 225.562739 162.304385 
L 240.056246 162.304385 
L 240.056246 162.304385 
L 225.562739 162.304385 
z
" style="fill:none;stroke:#000000;stroke-linejoin:miter;"/>
   </g>
   <g id="patch_55">
    <path clip-path="url(#p16f453ba27)" d="M 240.056246 162.304385 
L 254.549752 162.304385 
L 254.549752 162.304385 
L 240.056246 162.304385 
z
" style="fill:none;stroke:#000000;stroke-linejoin:miter;"/>
   </g>
   <g id="patch_56">
    <path clip-path="url(#p16f453ba27)" d="M 254.549752 162.304385 
L 269.043259 162.304385 
L 269.043259 162.304385 
L 254.549752 162.304385 
z
" style="fill:none;stroke:#000000;stroke-linejoin:miter;"/>
   </g>
   <g id="patch_57">
    <path clip-path="url(#p16f453ba27)" d="M 269.043259 162.304385 
L 283.536765 162.304385 
L 283.536765 162.304385 
L 269.043259 162.304385 
z
" style="fill:none;stroke:#000000;stroke-linejoin:miter;"/>
   </g>
   <g id="patch_58">
    <path clip-path="url(#p16f453ba27)" d="M 283.536765 162.304385 
L 298.030272 162.304385 
L 298.030272 162.304385 
L 283.536765 162.304385 
z
" style="fill:none;stroke:#000000;stroke-linejoin:miter;"/>
   </g>
   <g id="patch_59">
    <path clip-path="url(#p16f453ba27)" d="M 298.030272 162.304385 
L 312.523778 162.304385 
L 312.523778 162.304385 
L 298.030272 162.304385 
z
" style="fill:none;stroke:#000000;stroke-linejoin:miter;"/>
   </g>
   <g id="patch_60">
    <path clip-path="url(#p16f453ba27)" d="M 312.523778 162.304385 
L 327.017285 162.304385 
L 327.017285 162.304385 
L 312.523778 162.304385 
z
" style="fill:none;stroke:#000000;stroke-linejoin:miter;"/>
   </g>
   <g id="patch_61">
    <path clip-path="url(#p16f453ba27)" d="M 327.017285 162.304385 
L 341.510791 162.304385 
L 341.510791 162.304385 
L 327.017285 162.304385 
z
" style="fill:none;stroke:#000000;stroke-linejoin:miter;"/>
   </g>
   <g id="patch_62">
    <path clip-path="url(#p16f453ba27)" d="M 341.510791 162.304385 
L 356.004298 162.304385 
L 356.004298 162.304385 
L 341.510791 162.304385 
z
" style="fill:none;stroke:#000000;stroke-linejoin:miter;"/>
   </g>
   <g id="patch_63">
    <path clip-path="url(#p16f453ba27)" d="M 356.004298 162.304385 
L 370.497804 162.304385 
L 370.497804 162.304385 
L 356.004298 162.304385 
z
" style="fill:none;stroke:#000000;stroke-linejoin:miter;"/>
   </g>
   <g id="patch_64">
    <path clip-path="url(#p16f453ba27)" d="M 370.497804 162.304385 
L 384.991311 162.304385 
L 384.991311 162.304385 
L 370.497804 162.304385 
z
" style="fill:none;stroke:#000000;stroke-linejoin:miter;"/>
   </g>
   <g id="patch_65">
    <path clip-path="url(#p16f453ba27)" d="M 384.991311 162.304385 
L 399.484817 162.304385 
L 399.484817 162.304385 
L 384.991311 162.304385 
z
" style="fill:none;stroke:#000000;stroke-linejoin:miter;"/>
   </g>
   <g id="patch_66">
    <path clip-path="url(#p16f453ba27)" d="M 399.484817 162.304385 
L 413.978324 162.304385 
L 413.978324 162.304385 
L 399.484817 162.304385 
z
" style="fill:none;stroke:#000000;stroke-linejoin:miter;"/>
   </g>
   <g id="patch_67">
    <path clip-path="url(#p16f453ba27)" d="M 124.108194 162.304385 
L 138.6017 162.304385 
L 138.6017 162.304385 
L 124.108194 162.304385 
z
" style="fill:none;stroke:#000000;stroke-linejoin:miter;"/>
   </g>
   <g id="patch_68">
    <path clip-path="url(#p16f453ba27)" d="M 138.6017 162.304385 
L 153.095207 162.304385 
L 153.095207 162.304385 
L 138.6017 162.304385 
z
" style="fill:none;stroke:#000000;stroke-linejoin:miter;"/>
   </g>
   <g id="patch_69">
    <path clip-path="url(#p16f453ba27)" d="M 153.095207 162.304385 
L 167.588713 162.304385 
L 167.588713 162.304385 
L 153.095207 162.304385 
z
" style="fill:none;stroke:#000000;stroke-linejoin:miter;"/>
   </g>
   <g id="patch_70">
    <path clip-path="url(#p16f453ba27)" d="M 167.588713 162.304385 
L 182.08222 162.304385 
L 182.08222 162.304385 
L 167.588713 162.304385 
z
" style="fill:none;stroke:#000000;stroke-linejoin:miter;"/>
   </g>
   <g id="patch_71">
    <path clip-path="url(#p16f453ba27)" d="M 182.08222 162.304385 
L 196.575726 162.304385 
L 196.575726 162.304385 
L 182.08222 162.304385 
z
" style="fill:none;stroke:#000000;stroke-linejoin:miter;"/>
   </g>
   <g id="patch_72">
    <path clip-path="url(#p16f453ba27)" d="M 196.575726 162.304385 
L 211.069233 162.304385 
L 211.069233 162.304385 
L 196.575726 162.304385 
z
" style="fill:none;stroke:#000000;stroke-linejoin:miter;"/>
   </g>
   <g id="patch_73">
    <path clip-path="url(#p16f453ba27)" d="M 211.069233 162.304385 
L 225.562739 162.304385 
L 225.562739 162.304385 
L 211.069233 162.304385 
z
" style="fill:none;stroke:#000000;stroke-linejoin:miter;"/>
   </g>
   <g id="patch_74">
    <path clip-path="url(#p16f453ba27)" d="M 225.562739 162.304385 
L 240.056246 162.304385 
L 240.056246 162.304385 
L 225.562739 162.304385 
z
" style="fill:none;stroke:#000000;stroke-linejoin:miter;"/>
   </g>
   <g id="patch_75">
    <path clip-path="url(#p16f453ba27)" d="M 240.056246 162.304385 
L 254.549752 162.304385 
L 254.549752 162.304385 
L 240.056246 162.304385 
z
" style="fill:none;stroke:#000000;stroke-linejoin:miter;"/>
   </g>
   <g id="patch_76">
    <path clip-path="url(#p16f453ba27)" d="M 254.549752 162.304385 
L 269.043259 162.304385 
L 269.043259 162.304385 
L 254.549752 162.304385 
z
" style="fill:none;stroke:#000000;stroke-linejoin:miter;"/>
   </g>
   <g id="patch_77">
    <path clip-path="url(#p16f453ba27)" d="M 269.043259 162.304385 
L 283.536765 162.304385 
L 283.536765 162.304385 
L 269.043259 162.304385 
z
" style="fill:none;stroke:#000000;stroke-linejoin:miter;"/>
   </g>
   <g id="patch_78">
    <path clip-path="url(#p16f453ba27)" d="M 283.536765 162.304385 
L 298.030272 162.304385 
L 298.030272 162.304385 
L 283.536765 162.304385 
z
" style="fill:none;stroke:#000000;stroke-linejoin:miter;"/>
   </g>
   <g id="patch_79">
    <path clip-path="url(#p16f453ba27)" d="M 298.030272 162.304385 
L 312.523778 162.304385 
L 312.523778 162.304385 
L 298.030272 162.304385 
z
" style="fill:none;stroke:#000000;stroke-linejoin:miter;"/>
   </g>
   <g id="patch_80">
    <path clip-path="url(#p16f453ba27)" d="M 312.523778 162.304385 
L 327.017285 162.304385 
L 327.017285 162.304385 
L 312.523778 162.304385 
z
" style="fill:none;stroke:#000000;stroke-linejoin:miter;"/>
   </g>
   <g id="patch_81">
    <path clip-path="url(#p16f453ba27)" d="M 327.017285 162.304385 
L 341.510791 162.304385 
L 341.510791 162.304385 
L 327.017285 162.304385 
z
" style="fill:none;stroke:#000000;stroke-linejoin:miter;"/>
   </g>
   <g id="patch_82">
    <path clip-path="url(#p16f453ba27)" d="M 341.510791 162.304385 
L 356.004298 162.304385 
L 356.004298 162.304385 
L 341.510791 162.304385 
z
" style="fill:none;stroke:#000000;stroke-linejoin:miter;"/>
   </g>
   <g id="patch_83">
    <path clip-path="url(#p16f453ba27)" d="M 356.004298 162.304385 
L 370.497804 162.304385 
L 370.497804 162.304385 
L 356.004298 162.304385 
z
" style="fill:none;stroke:#000000;stroke-linejoin:miter;"/>
   </g>
   <g id="patch_84">
    <path clip-path="url(#p16f453ba27)" d="M 370.497804 162.304385 
L 384.991311 162.304385 
L 384.991311 162.304385 
L 370.497804 162.304385 
z
" style="fill:none;stroke:#000000;stroke-linejoin:miter;"/>
   </g>
   <g id="patch_85">
    <path clip-path="url(#p16f453ba27)" d="M 384.991311 162.304385 
L 399.484817 162.304385 
L 399.484817 162.304385 
L 384.991311 162.304385 
z
" style="fill:none;stroke:#000000;stroke-linejoin:miter;"/>
   </g>
   <g id="patch_86">
    <path clip-path="url(#p16f453ba27)" d="M 399.484817 162.304385 
L 413.978324 162.304385 
L 413.978324 162.304385 
L 399.484817 162.304385 
z
" style="fill:none;stroke:#000000;stroke-linejoin:miter;"/>
   </g>
  </g>
 </g>
 <defs>
  <clipPath id="p16f453ba27">
   <rect height="332.64" width="318.857143" x="109.614688" y="10.7"/>
  </clipPath>
 </defs>
</svg>
