<?xml version="1.0" encoding="utf-8" standalone="no"?>
<!DOCTYPE svg PUBLIC "-//W3C//DTD SVG 1.1//EN"
  "http://www.w3.org/Graphics/SVG/1.1/DTD/svg11.dtd">
<!-- Created with matplotlib (http://matplotlib.org/) -->
<svg height="136pt" version="1.1" viewBox="0 0 137 136" width="137pt" xmlns="http://www.w3.org/2000/svg" xmlns:xlink="http://www.w3.org/1999/xlink">
 <defs>
  <style type="text/css">
*{stroke-linecap:butt;stroke-linejoin:round;}
  </style>
 </defs>
 <g id="figure_1">
  <g id="patch_1">
   <path d="M 0 136.398125 
L 137.7875 136.398125 
L 137.7875 0 
L 0 0 
z
" style="fill:#ffffff;"/>
  </g>
  <g id="axes_1">
   <g id="patch_2">
    <path d="M 33.2875 123.319219 
L 127.0875 123.319219 
L 127.0875 10.999219 
L 33.2875 10.999219 
z
" style="fill:#ffffff;"/>
   </g>
   <g id="PolyCollection_1">
    <path clip-path="url(#pd53fd0aeb4)" d="M 82.40345 123.319219 
L 77.97155 123.319219 
L 77.583507 122.200296 
L 77.090475 121.081373 
L 76.413908 119.96245 
L 75.488614 118.843528 
L 74.288353 117.724605 
L 72.84009 116.605682 
L 71.221984 115.486759 
L 69.546694 114.367836 
L 67.936078 113.248913 
L 66.494903 112.129991 
L 65.29064 111.011068 
L 64.344552 109.892145 
L 63.636102 108.773222 
L 63.11831 107.654299 
L 62.737693 106.535377 
L 62.450955 105.416454 
L 62.232828 104.297531 
L 62.07428 103.178608 
L 61.974744 102.059685 
L 61.933803 100.940763 
L 61.946282 99.82184 
L 62.001603 98.702917 
L 62.085734 97.583994 
L 62.183451 96.465071 
L 62.279859 95.346148 
L 62.361613 94.227226 
L 62.418768 93.108303 
L 62.447174 91.98938 
L 62.449951 90.870457 
L 62.436299 89.751534 
L 62.417285 88.632612 
L 62.400341 87.513689 
L 62.385344 86.394766 
L 62.364307 85.275843 
L 62.324579 84.15692 
L 62.253518 83.037998 
L 62.142359 81.919075 
L 61.988394 80.800152 
L 61.796263 79.681229 
L 61.579425 78.562306 
L 61.361488 77.443383 
L 61.175325 76.324461 
L 61.057812 75.205538 
L 61.040268 74.086615 
L 61.137784 72.967692 
L 61.342165 71.848769 
L 61.621788 70.729847 
L 61.928276 69.610924 
L 62.206729 68.492001 
L 62.405298 67.373078 
L 62.481251 66.254155 
L 62.403282 65.135233 
L 62.152022 64.01631 
L 61.721338 62.897387 
L 61.121718 61.778464 
L 60.384431 60.659541 
L 59.562697 59.540618 
L 58.725747 58.421696 
L 57.944457 57.302773 
L 57.272237 56.18385 
L 56.729054 55.064927 
L 56.296473 53.946004 
L 55.926585 52.827082 
L 55.560217 51.708159 
L 55.144982 50.589236 
L 54.644887 49.470313 
L 54.039636 48.35139 
L 53.318781 47.232468 
L 52.478379 46.113545 
L 51.524136 44.994622 
L 50.478263 43.875699 
L 49.382728 42.756776 
L 48.292868 41.637854 
L 47.261479 40.518931 
L 46.32035 39.400008 
L 45.46898 38.281085 
L 44.677262 37.162162 
L 43.901636 36.043239 
L 43.106788 34.924317 
L 42.281682 33.805394 
L 41.441776 32.686471 
L 40.617504 31.567548 
L 39.837758 30.448625 
L 39.12072 29.329703 
L 38.480426 28.21078 
L 37.947859 27.091857 
L 37.595639 25.972934 
L 37.551136 24.854011 
L 37.986466 23.735089 
L 39.083803 22.616166 
L 40.985942 21.497243 
L 43.749183 20.37832 
L 47.315117 19.259397 
L 51.510461 18.140474 
L 56.073963 17.021552 
L 60.701545 15.902629 
L 65.097392 14.783706 
L 69.019249 13.664783 
L 72.308996 12.54586 
L 88.066004 12.54586 
L 88.066004 12.54586 
L 91.355751 13.664783 
L 95.277608 14.783706 
L 99.673455 15.902629 
L 104.301037 17.021552 
L 108.864539 18.140474 
L 113.059883 19.259397 
L 116.625817 20.37832 
L 119.389058 21.497243 
L 121.291197 22.616166 
L 122.388534 23.735089 
L 122.823864 24.854011 
L 122.779361 25.972934 
L 122.427141 27.091857 
L 121.894574 28.21078 
L 121.25428 29.329703 
L 120.537242 30.448625 
L 119.757496 31.567548 
L 118.933224 32.686471 
L 118.093318 33.805394 
L 117.268212 34.924317 
L 116.473364 36.043239 
L 115.697738 37.162162 
L 114.90602 38.281085 
L 114.05465 39.400008 
L 113.113521 40.518931 
L 112.082132 41.637854 
L 110.992272 42.756776 
L 109.896737 43.875699 
L 108.850864 44.994622 
L 107.896621 46.113545 
L 107.056219 47.232468 
L 106.335364 48.35139 
L 105.730113 49.470313 
L 105.230018 50.589236 
L 104.814783 51.708159 
L 104.448415 52.827082 
L 104.078527 53.946004 
L 103.645946 55.064927 
L 103.102763 56.18385 
L 102.430543 57.302773 
L 101.649253 58.421696 
L 100.812303 59.540618 
L 99.990569 60.659541 
L 99.253282 61.778464 
L 98.653662 62.897387 
L 98.222978 64.01631 
L 97.971718 65.135233 
L 97.893749 66.254155 
L 97.969702 67.373078 
L 98.168271 68.492001 
L 98.446724 69.610924 
L 98.753212 70.729847 
L 99.032835 71.848769 
L 99.237216 72.967692 
L 99.334732 74.086615 
L 99.317188 75.205538 
L 99.199675 76.324461 
L 99.013512 77.443383 
L 98.795575 78.562306 
L 98.578737 79.681229 
L 98.386606 80.800152 
L 98.232641 81.919075 
L 98.121482 83.037998 
L 98.050421 84.15692 
L 98.010693 85.275843 
L 97.989656 86.394766 
L 97.974659 87.513689 
L 97.957715 88.632612 
L 97.938701 89.751534 
L 97.925049 90.870457 
L 97.927826 91.98938 
L 97.956232 93.108303 
L 98.013387 94.227226 
L 98.095141 95.346148 
L 98.191549 96.465071 
L 98.289266 97.583994 
L 98.373397 98.702917 
L 98.428718 99.82184 
L 98.441197 100.940763 
L 98.400256 102.059685 
L 98.30072 103.178608 
L 98.142172 104.297531 
L 97.924045 105.416454 
L 97.637307 106.535377 
L 97.25669 107.654299 
L 96.738898 108.773222 
L 96.030448 109.892145 
L 95.08436 111.011068 
L 93.880097 112.129991 
L 92.438922 113.248913 
L 90.828306 114.367836 
L 89.153016 115.486759 
L 87.53491 116.605682 
L 86.086647 117.724605 
L 84.886386 118.843528 
L 83.961092 119.96245 
L 83.284525 121.081373 
L 82.791493 122.200296 
L 82.40345 123.319219 
z
" style="fill:#1f77b4;fill-opacity:0.3;"/>
   </g>
   <g id="matplotlib.axis_1"/>
   <g id="matplotlib.axis_2">
    <g id="ytick_1">
     <g id="line2d_1">
      <defs>
       <path d="M 0 0 
L -3.5 0 
" id="m0ef38ef32b" style="stroke:#000000;stroke-width:0.8;"/>
      </defs>
      <g>
       <use style="stroke:#000000;stroke-width:0.8;" x="33.2875" xlink:href="#m0ef38ef32b" y="123.319219"/>
      </g>
     </g>
     <g id="text_1">
      <!-- 0 -->
      <defs>
       <path d="M 31.78125 66.40625 
Q 24.171875 66.40625 20.328125 58.90625 
Q 16.5 51.421875 16.5 36.375 
Q 16.5 21.390625 20.328125 13.890625 
Q 24.171875 6.390625 31.78125 6.390625 
Q 39.453125 6.390625 43.28125 13.890625 
Q 47.125 21.390625 47.125 36.375 
Q 47.125 51.421875 43.28125 58.90625 
Q 39.453125 66.40625 31.78125 66.40625 
z
M 31.78125 74.21875 
Q 44.046875 74.21875 50.515625 64.515625 
Q 56.984375 54.828125 56.984375 36.375 
Q 56.984375 17.96875 50.515625 8.265625 
Q 44.046875 -1.421875 31.78125 -1.421875 
Q 19.53125 -1.421875 13.0625 8.265625 
Q 6.59375 17.96875 6.59375 36.375 
Q 6.59375 54.828125 13.0625 64.515625 
Q 19.53125 74.21875 31.78125 74.21875 
z
" id="DejaVuSans-30"/>
      </defs>
      <g transform="translate(19.925 127.118437)scale(0.1 -0.1)">
       <use xlink:href="#DejaVuSans-30"/>
      </g>
     </g>
    </g>
    <g id="ytick_2">
     <g id="line2d_2">
      <g>
       <use style="stroke:#000000;stroke-width:0.8;" x="33.2875" xlink:href="#m0ef38ef32b" y="67.159219"/>
      </g>
     </g>
     <g id="text_2">
      <!-- 150 -->
      <defs>
       <path d="M 12.40625 8.296875 
L 28.515625 8.296875 
L 28.515625 63.921875 
L 10.984375 60.40625 
L 10.984375 69.390625 
L 28.421875 72.90625 
L 38.28125 72.90625 
L 38.28125 8.296875 
L 54.390625 8.296875 
L 54.390625 0 
L 12.40625 0 
z
" id="DejaVuSans-31"/>
       <path d="M 10.796875 72.90625 
L 49.515625 72.90625 
L 49.515625 64.59375 
L 19.828125 64.59375 
L 19.828125 46.734375 
Q 21.96875 47.46875 24.109375 47.828125 
Q 26.265625 48.1875 28.421875 48.1875 
Q 40.625 48.1875 47.75 41.5 
Q 54.890625 34.8125 54.890625 23.390625 
Q 54.890625 11.625 47.5625 5.09375 
Q 40.234375 -1.421875 26.90625 -1.421875 
Q 22.3125 -1.421875 17.546875 -0.640625 
Q 12.796875 0.140625 7.71875 1.703125 
L 7.71875 11.625 
Q 12.109375 9.234375 16.796875 8.0625 
Q 21.484375 6.890625 26.703125 6.890625 
Q 35.15625 6.890625 40.078125 11.328125 
Q 45.015625 15.765625 45.015625 23.390625 
Q 45.015625 31 40.078125 35.4375 
Q 35.15625 39.890625 26.703125 39.890625 
Q 22.75 39.890625 18.8125 39.015625 
Q 14.890625 38.140625 10.796875 36.28125 
z
" id="DejaVuSans-35"/>
      </defs>
      <g transform="translate(7.2 70.958437)scale(0.1 -0.1)">
       <use xlink:href="#DejaVuSans-31"/>
       <use x="63.623047" xlink:href="#DejaVuSans-35"/>
       <use x="127.246094" xlink:href="#DejaVuSans-30"/>
      </g>
     </g>
    </g>
    <g id="ytick_3">
     <g id="line2d_3">
      <g>
       <use style="stroke:#000000;stroke-width:0.8;" x="33.2875" xlink:href="#m0ef38ef32b" y="10.999219"/>
      </g>
     </g>
     <g id="text_3">
      <!-- 300 -->
      <defs>
       <path d="M 40.578125 39.3125 
Q 47.65625 37.796875 51.625 33 
Q 55.609375 28.21875 55.609375 21.1875 
Q 55.609375 10.40625 48.1875 4.484375 
Q 40.765625 -1.421875 27.09375 -1.421875 
Q 22.515625 -1.421875 17.65625 -0.515625 
Q 12.796875 0.390625 7.625 2.203125 
L 7.625 11.71875 
Q 11.71875 9.328125 16.59375 8.109375 
Q 21.484375 6.890625 26.8125 6.890625 
Q 36.078125 6.890625 40.9375 10.546875 
Q 45.796875 14.203125 45.796875 21.1875 
Q 45.796875 27.640625 41.28125 31.265625 
Q 36.765625 34.90625 28.71875 34.90625 
L 20.21875 34.90625 
L 20.21875 43.015625 
L 29.109375 43.015625 
Q 36.375 43.015625 40.234375 45.921875 
Q 44.09375 48.828125 44.09375 54.296875 
Q 44.09375 59.90625 40.109375 62.90625 
Q 36.140625 65.921875 28.71875 65.921875 
Q 24.65625 65.921875 20.015625 65.03125 
Q 15.375 64.15625 9.8125 62.3125 
L 9.8125 71.09375 
Q 15.4375 72.65625 20.34375 73.4375 
Q 25.25 74.21875 29.59375 74.21875 
Q 40.828125 74.21875 47.359375 69.109375 
Q 53.90625 64.015625 53.90625 55.328125 
Q 53.90625 49.265625 50.4375 45.09375 
Q 46.96875 40.921875 40.578125 39.3125 
z
" id="DejaVuSans-33"/>
      </defs>
      <g transform="translate(7.2 14.798437)scale(0.1 -0.1)">
       <use xlink:href="#DejaVuSans-33"/>
       <use x="63.623047" xlink:href="#DejaVuSans-30"/>
       <use x="127.246094" xlink:href="#DejaVuSans-30"/>
      </g>
     </g>
    </g>
   </g>
   <g id="patch_3">
    <path d="M 33.2875 123.319219 
L 33.2875 10.999219 
" style="fill:none;stroke:#000000;stroke-linecap:square;stroke-linejoin:miter;stroke-width:0.8;"/>
   </g>
   <g id="patch_4">
    <path d="M 33.2875 123.319219 
L 127.0875 123.319219 
" style="fill:none;stroke:#000000;stroke-linecap:square;stroke-linejoin:miter;stroke-width:0.8;"/>
   </g>
  </g>
 </g>
 <defs>
  <clipPath id="pd53fd0aeb4">
   <rect height="112.32" width="93.8" x="33.2875" y="10.999219"/>
  </clipPath>
 </defs>
</svg>
