<?xml version="1.0" encoding="utf-8" standalone="no"?>
<!DOCTYPE svg PUBLIC "-//W3C//DTD SVG 1.1//EN"
  "http://www.w3.org/Graphics/SVG/1.1/DTD/svg11.dtd">
<!-- Created with matplotlib (http://matplotlib.org/) -->
<svg height="136pt" version="1.1" viewBox="0 0 137 136" width="137pt" xmlns="http://www.w3.org/2000/svg" xmlns:xlink="http://www.w3.org/1999/xlink">
 <defs>
  <style type="text/css">
*{stroke-linecap:butt;stroke-linejoin:round;}
  </style>
 </defs>
 <g id="figure_1">
  <g id="patch_1">
   <path d="M 0 136.398125 
L 137.7875 136.398125 
L 137.7875 0 
L 0 0 
z
" style="fill:#ffffff;"/>
  </g>
  <g id="axes_1">
   <g id="patch_2">
    <path d="M 33.2875 123.319219 
L 127.0875 123.319219 
L 127.0875 10.999219 
L 33.2875 10.999219 
z
" style="fill:#ffffff;"/>
   </g>
   <g id="PolyCollection_1">
    <path clip-path="url(#pfa7d0ed049)" d="M 82.716832 123.319219 
L 77.658168 123.319219 
L 77.227509 122.204264 
L 76.698675 121.08931 
L 75.996251 119.974356 
L 75.058015 118.859401 
L 73.858759 117.744447 
L 72.422629 116.629493 
L 70.820695 115.514538 
L 69.156599 114.399584 
L 67.545944 113.28463 
L 66.09483 112.169675 
L 64.881649 111.054721 
L 63.945598 109.939766 
L 63.284603 108.824812 
L 62.863189 107.709858 
L 62.627303 106.594903 
L 62.520271 105.479949 
L 62.494015 104.364995 
L 62.512757 103.25004 
L 62.550636 102.135086 
L 62.587367 101.020132 
L 62.605882 99.905177 
L 62.593483 98.790223 
L 62.545108 97.675269 
L 62.465715 96.560314 
L 62.369328 95.44536 
L 62.274392 94.330405 
L 62.197459 93.215451 
L 62.148203 92.100497 
L 62.127885 90.985542 
L 62.131175 89.870588 
L 62.149331 88.755634 
L 62.172318 87.640679 
L 62.188676 86.525725 
L 62.183968 85.410771 
L 62.140105 84.295816 
L 62.037822 83.180862 
L 61.862847 82.065908 
L 61.613796 80.950953 
L 61.307878 79.835999 
L 60.980735 78.721044 
L 60.679362 77.60609 
L 60.450624 76.491136 
L 60.330142 75.376181 
L 60.335544 74.261227 
L 60.465023 73.146273 
L 60.69917 72.031318 
L 61.003397 70.916364 
L 61.330191 69.80141 
L 61.622876 68.686455 
L 61.82316 67.571501 
L 61.882584 66.456547 
L 61.774612 65.341592 
L 61.502164 64.226638 
L 61.096564 63.111684 
L 60.60769 61.996729 
L 60.089107 60.881775 
L 59.583769 59.76682 
L 59.114609 58.651866 
L 58.681476 57.536912 
L 58.263588 56.421957 
L 57.826065 55.307003 
L 57.329468 54.192049 
L 56.740979 53.077094 
L 56.044416 51.96214 
L 55.245004 50.847186 
L 54.365998 49.732231 
L 53.438128 48.617277 
L 52.487329 47.502323 
L 51.527769 46.387368 
L 50.564141 45.272414 
L 49.601285 44.157459 
L 48.654405 43.042505 
L 47.752684 41.927551 
L 46.933126 40.812596 
L 46.22713 39.697642 
L 45.646297 38.582688 
L 45.17421 37.467733 
L 44.767728 36.352779 
L 44.366827 35.237825 
L 43.908635 34.12287 
L 43.3408 33.007916 
L 42.63138 31.892962 
L 41.775361 30.778007 
L 40.799605 29.663053 
L 39.767475 28.548098 
L 38.782234 27.433144 
L 37.986102 26.31819 
L 37.551136 25.203235 
L 37.659754 24.088281 
L 38.476397 22.973327 
L 40.115957 21.858372 
L 42.616858 20.743418 
L 45.925835 19.628464 
L 49.897998 18.513509 
L 54.312025 17.398555 
L 58.897865 16.283601 
L 63.373039 15.168646 
L 67.482135 14.053692 
L 71.032097 12.938737 
L 89.342903 12.938737 
L 89.342903 12.938737 
L 92.892865 14.053692 
L 97.001961 15.168646 
L 101.477135 16.283601 
L 106.062975 17.398555 
L 110.477002 18.513509 
L 114.449165 19.628464 
L 117.758142 20.743418 
L 120.259043 21.858372 
L 121.898603 22.973327 
L 122.715246 24.088281 
L 122.823864 25.203235 
L 122.388898 26.31819 
L 121.592766 27.433144 
L 120.607525 28.548098 
L 119.575395 29.663053 
L 118.599639 30.778007 
L 117.74362 31.892962 
L 117.0342 33.007916 
L 116.466365 34.12287 
L 116.008173 35.237825 
L 115.607272 36.352779 
L 115.20079 37.467733 
L 114.728703 38.582688 
L 114.14787 39.697642 
L 113.441874 40.812596 
L 112.622316 41.927551 
L 111.720595 43.042505 
L 110.773715 44.157459 
L 109.810859 45.272414 
L 108.847231 46.387368 
L 107.887671 47.502323 
L 106.936872 48.617277 
L 106.009002 49.732231 
L 105.129996 50.847186 
L 104.330584 51.96214 
L 103.634021 53.077094 
L 103.045532 54.192049 
L 102.548935 55.307003 
L 102.111412 56.421957 
L 101.693524 57.536912 
L 101.260391 58.651866 
L 100.791231 59.76682 
L 100.285893 60.881775 
L 99.76731 61.996729 
L 99.278436 63.111684 
L 98.872836 64.226638 
L 98.600388 65.341592 
L 98.492416 66.456547 
L 98.55184 67.571501 
L 98.752124 68.686455 
L 99.044809 69.80141 
L 99.371603 70.916364 
L 99.67583 72.031318 
L 99.909977 73.146273 
L 100.039456 74.261227 
L 100.044858 75.376181 
L 99.924376 76.491136 
L 99.695638 77.60609 
L 99.394265 78.721044 
L 99.067122 79.835999 
L 98.761204 80.950953 
L 98.512153 82.065908 
L 98.337178 83.180862 
L 98.234895 84.295816 
L 98.191032 85.410771 
L 98.186324 86.525725 
L 98.202682 87.640679 
L 98.225669 88.755634 
L 98.243825 89.870588 
L 98.247115 90.985542 
L 98.226797 92.100497 
L 98.177541 93.215451 
L 98.100608 94.330405 
L 98.005672 95.44536 
L 97.909285 96.560314 
L 97.829892 97.675269 
L 97.781517 98.790223 
L 97.769118 99.905177 
L 97.787633 101.020132 
L 97.824364 102.135086 
L 97.862243 103.25004 
L 97.880985 104.364995 
L 97.854729 105.479949 
L 97.747697 106.594903 
L 97.511811 107.709858 
L 97.090397 108.824812 
L 96.429402 109.939766 
L 95.493351 111.054721 
L 94.28017 112.169675 
L 92.829056 113.28463 
L 91.218401 114.399584 
L 89.554305 115.514538 
L 87.952371 116.629493 
L 86.516241 117.744447 
L 85.316985 118.859401 
L 84.378749 119.974356 
L 83.676325 121.08931 
L 83.147491 122.204264 
L 82.716832 123.319219 
z
" style="fill:#1f77b4;fill-opacity:0.3;"/>
   </g>
   <g id="matplotlib.axis_1"/>
   <g id="matplotlib.axis_2">
    <g id="ytick_1">
     <g id="line2d_1">
      <defs>
       <path d="M 0 0 
L -3.5 0 
" id="m219a3f59f5" style="stroke:#000000;stroke-width:0.8;"/>
      </defs>
      <g>
       <use style="stroke:#000000;stroke-width:0.8;" x="33.2875" xlink:href="#m219a3f59f5" y="123.319219"/>
      </g>
     </g>
     <g id="text_1">
      <!-- 0 -->
      <defs>
       <path d="M 31.78125 66.40625 
Q 24.171875 66.40625 20.328125 58.90625 
Q 16.5 51.421875 16.5 36.375 
Q 16.5 21.390625 20.328125 13.890625 
Q 24.171875 6.390625 31.78125 6.390625 
Q 39.453125 6.390625 43.28125 13.890625 
Q 47.125 21.390625 47.125 36.375 
Q 47.125 51.421875 43.28125 58.90625 
Q 39.453125 66.40625 31.78125 66.40625 
z
M 31.78125 74.21875 
Q 44.046875 74.21875 50.515625 64.515625 
Q 56.984375 54.828125 56.984375 36.375 
Q 56.984375 17.96875 50.515625 8.265625 
Q 44.046875 -1.421875 31.78125 -1.421875 
Q 19.53125 -1.421875 13.0625 8.265625 
Q 6.59375 17.96875 6.59375 36.375 
Q 6.59375 54.828125 13.0625 64.515625 
Q 19.53125 74.21875 31.78125 74.21875 
z
" id="DejaVuSans-30"/>
      </defs>
      <g transform="translate(19.925 127.118437)scale(0.1 -0.1)">
       <use xlink:href="#DejaVuSans-30"/>
      </g>
     </g>
    </g>
    <g id="ytick_2">
     <g id="line2d_2">
      <g>
       <use style="stroke:#000000;stroke-width:0.8;" x="33.2875" xlink:href="#m219a3f59f5" y="67.159219"/>
      </g>
     </g>
     <g id="text_2">
      <!-- 150 -->
      <defs>
       <path d="M 12.40625 8.296875 
L 28.515625 8.296875 
L 28.515625 63.921875 
L 10.984375 60.40625 
L 10.984375 69.390625 
L 28.421875 72.90625 
L 38.28125 72.90625 
L 38.28125 8.296875 
L 54.390625 8.296875 
L 54.390625 0 
L 12.40625 0 
z
" id="DejaVuSans-31"/>
       <path d="M 10.796875 72.90625 
L 49.515625 72.90625 
L 49.515625 64.59375 
L 19.828125 64.59375 
L 19.828125 46.734375 
Q 21.96875 47.46875 24.109375 47.828125 
Q 26.265625 48.1875 28.421875 48.1875 
Q 40.625 48.1875 47.75 41.5 
Q 54.890625 34.8125 54.890625 23.390625 
Q 54.890625 11.625 47.5625 5.09375 
Q 40.234375 -1.421875 26.90625 -1.421875 
Q 22.3125 -1.421875 17.546875 -0.640625 
Q 12.796875 0.140625 7.71875 1.703125 
L 7.71875 11.625 
Q 12.109375 9.234375 16.796875 8.0625 
Q 21.484375 6.890625 26.703125 6.890625 
Q 35.15625 6.890625 40.078125 11.328125 
Q 45.015625 15.765625 45.015625 23.390625 
Q 45.015625 31 40.078125 35.4375 
Q 35.15625 39.890625 26.703125 39.890625 
Q 22.75 39.890625 18.8125 39.015625 
Q 14.890625 38.140625 10.796875 36.28125 
z
" id="DejaVuSans-35"/>
      </defs>
      <g transform="translate(7.2 70.958437)scale(0.1 -0.1)">
       <use xlink:href="#DejaVuSans-31"/>
       <use x="63.623047" xlink:href="#DejaVuSans-35"/>
       <use x="127.246094" xlink:href="#DejaVuSans-30"/>
      </g>
     </g>
    </g>
    <g id="ytick_3">
     <g id="line2d_3">
      <g>
       <use style="stroke:#000000;stroke-width:0.8;" x="33.2875" xlink:href="#m219a3f59f5" y="10.999219"/>
      </g>
     </g>
     <g id="text_3">
      <!-- 300 -->
      <defs>
       <path d="M 40.578125 39.3125 
Q 47.65625 37.796875 51.625 33 
Q 55.609375 28.21875 55.609375 21.1875 
Q 55.609375 10.40625 48.1875 4.484375 
Q 40.765625 -1.421875 27.09375 -1.421875 
Q 22.515625 -1.421875 17.65625 -0.515625 
Q 12.796875 0.390625 7.625 2.203125 
L 7.625 11.71875 
Q 11.71875 9.328125 16.59375 8.109375 
Q 21.484375 6.890625 26.8125 6.890625 
Q 36.078125 6.890625 40.9375 10.546875 
Q 45.796875 14.203125 45.796875 21.1875 
Q 45.796875 27.640625 41.28125 31.265625 
Q 36.765625 34.90625 28.71875 34.90625 
L 20.21875 34.90625 
L 20.21875 43.015625 
L 29.109375 43.015625 
Q 36.375 43.015625 40.234375 45.921875 
Q 44.09375 48.828125 44.09375 54.296875 
Q 44.09375 59.90625 40.109375 62.90625 
Q 36.140625 65.921875 28.71875 65.921875 
Q 24.65625 65.921875 20.015625 65.03125 
Q 15.375 64.15625 9.8125 62.3125 
L 9.8125 71.09375 
Q 15.4375 72.65625 20.34375 73.4375 
Q 25.25 74.21875 29.59375 74.21875 
Q 40.828125 74.21875 47.359375 69.109375 
Q 53.90625 64.015625 53.90625 55.328125 
Q 53.90625 49.265625 50.4375 45.09375 
Q 46.96875 40.921875 40.578125 39.3125 
z
" id="DejaVuSans-33"/>
      </defs>
      <g transform="translate(7.2 14.798437)scale(0.1 -0.1)">
       <use xlink:href="#DejaVuSans-33"/>
       <use x="63.623047" xlink:href="#DejaVuSans-30"/>
       <use x="127.246094" xlink:href="#DejaVuSans-30"/>
      </g>
     </g>
    </g>
   </g>
   <g id="patch_3">
    <path d="M 33.2875 123.319219 
L 33.2875 10.999219 
" style="fill:none;stroke:#000000;stroke-linecap:square;stroke-linejoin:miter;stroke-width:0.8;"/>
   </g>
   <g id="patch_4">
    <path d="M 33.2875 123.319219 
L 127.0875 123.319219 
" style="fill:none;stroke:#000000;stroke-linecap:square;stroke-linejoin:miter;stroke-width:0.8;"/>
   </g>
  </g>
 </g>
 <defs>
  <clipPath id="pfa7d0ed049">
   <rect height="112.32" width="93.8" x="33.2875" y="10.999219"/>
  </clipPath>
 </defs>
</svg>
