<?xml version="1.0" encoding="utf-8" standalone="no"?>
<!DOCTYPE svg PUBLIC "-//W3C//DTD SVG 1.1//EN"
  "http://www.w3.org/Graphics/SVG/1.1/DTD/svg11.dtd">
<!-- Created with matplotlib (http://matplotlib.org/) -->
<svg height="136pt" version="1.1" viewBox="0 0 137 136" width="137pt" xmlns="http://www.w3.org/2000/svg" xmlns:xlink="http://www.w3.org/1999/xlink">
 <defs>
  <style type="text/css">
*{stroke-linecap:butt;stroke-linejoin:round;}
  </style>
 </defs>
 <g id="figure_1">
  <g id="patch_1">
   <path d="M 0 136.398125 
L 137.7875 136.398125 
L 137.7875 0 
L 0 0 
z
" style="fill:#ffffff;"/>
  </g>
  <g id="axes_1">
   <g id="patch_2">
    <path d="M 33.2875 123.319219 
L 127.0875 123.319219 
L 127.0875 10.999219 
L 33.2875 10.999219 
z
" style="fill:#ffffff;"/>
   </g>
   <g id="PolyCollection_1">
    <path clip-path="url(#pe68bbb464c)" d="M 82.752269 123.319219 
L 77.622731 123.319219 
L 77.167847 122.20413 
L 76.599636 121.089041 
L 75.837728 119.973951 
L 74.816485 118.858862 
L 73.510726 117.743773 
L 71.94952 116.628684 
L 70.213774 115.513595 
L 68.419816 114.398506 
L 66.695106 113.283417 
L 65.153058 112.168328 
L 63.873131 111.053239 
L 62.890525 109.93815 
L 62.197107 108.823061 
L 61.751519 107.707972 
L 61.493424 106.592882 
L 61.356382 105.477793 
L 61.276429 104.362704 
L 61.197181 103.247615 
L 61.074368 102.132526 
L 60.881613 101.017437 
L 60.616086 99.902348 
L 60.30012 98.787259 
L 59.975397 97.67217 
L 59.689928 96.557081 
L 59.4825 95.441992 
L 59.37141 94.326903 
L 59.352371 93.211813 
L 59.405525 92.096724 
L 59.506596 90.981635 
L 59.635565 89.866546 
L 59.778645 88.751457 
L 59.924012 87.636368 
L 60.055529 86.521279 
L 60.149453 85.40619 
L 60.177057 84.291101 
L 60.112769 83.176012 
L 59.944708 82.060923 
L 59.683242 80.945834 
L 59.363606 79.830744 
L 59.040711 78.715655 
L 58.777305 77.600566 
L 58.629307 76.485477 
L 58.633155 75.370388 
L 58.798719 74.255299 
L 59.108852 73.14021 
L 59.524316 72.025121 
L 59.991745 70.910032 
L 60.452477 69.794943 
L 60.850799 68.679854 
L 61.140727 67.564765 
L 61.290802 66.449675 
L 61.286554 65.334586 
L 61.130654 64.219497 
L 60.841094 63.104408 
L 60.447902 61.989319 
L 59.988512 60.87423 
L 59.501466 59.759141 
L 59.018316 58.644052 
L 58.555013 57.528963 
L 58.105895 56.413874 
L 57.644098 55.298785 
L 57.130382 54.183696 
L 56.528222 53.068606 
L 55.818916 51.953517 
L 55.00912 50.838428 
L 54.126419 49.723339 
L 53.204905 48.60825 
L 52.268843 47.493161 
L 51.32392 46.378072 
L 50.36075 45.262983 
L 49.367212 44.147894 
L 48.340517 43.032805 
L 47.291203 41.917716 
L 46.238265 40.802626 
L 45.201503 39.687537 
L 44.198082 38.572448 
L 43.244958 37.457359 
L 42.362471 36.34227 
L 41.572847 35.227181 
L 40.891767 34.112092 
L 40.317603 32.997003 
L 39.826025 31.881914 
L 39.375582 30.766825 
L 38.924672 29.651736 
L 38.455467 28.536647 
L 37.997689 27.421557 
L 37.644216 26.306468 
L 37.551136 25.191379 
L 37.917549 24.07629 
L 38.946209 22.961201 
L 40.793603 21.846112 
L 43.5239 20.731023 
L 47.081557 19.615934 
L 51.291532 18.500845 
L 55.886856 17.385756 
L 60.555264 16.270667 
L 64.992472 15.155578 
L 68.949626 14.040488 
L 72.265206 12.925399 
L 88.109794 12.925399 
L 88.109794 12.925399 
L 91.425374 14.040488 
L 95.382528 15.155578 
L 99.819736 16.270667 
L 104.488144 17.385756 
L 109.083468 18.500845 
L 113.293443 19.615934 
L 116.8511 20.731023 
L 119.581397 21.846112 
L 121.428791 22.961201 
L 122.457451 24.07629 
L 122.823864 25.191379 
L 122.730784 26.306468 
L 122.377311 27.421557 
L 121.919533 28.536647 
L 121.450328 29.651736 
L 120.999418 30.766825 
L 120.548975 31.881914 
L 120.057397 32.997003 
L 119.483233 34.112092 
L 118.802153 35.227181 
L 118.012529 36.34227 
L 117.130042 37.457359 
L 116.176918 38.572448 
L 115.173497 39.687537 
L 114.136735 40.802626 
L 113.083797 41.917716 
L 112.034483 43.032805 
L 111.007788 44.147894 
L 110.01425 45.262983 
L 109.05108 46.378072 
L 108.106157 47.493161 
L 107.170095 48.60825 
L 106.248581 49.723339 
L 105.36588 50.838428 
L 104.556084 51.953517 
L 103.846778 53.068606 
L 103.244618 54.183696 
L 102.730902 55.298785 
L 102.269105 56.413874 
L 101.819987 57.528963 
L 101.356684 58.644052 
L 100.873534 59.759141 
L 100.386488 60.87423 
L 99.927098 61.989319 
L 99.533906 63.104408 
L 99.244346 64.219497 
L 99.088446 65.334586 
L 99.084198 66.449675 
L 99.234273 67.564765 
L 99.524201 68.679854 
L 99.922523 69.794943 
L 100.383255 70.910032 
L 100.850684 72.025121 
L 101.266148 73.14021 
L 101.576281 74.255299 
L 101.741845 75.370388 
L 101.745693 76.485477 
L 101.597695 77.600566 
L 101.334289 78.715655 
L 101.011394 79.830744 
L 100.691758 80.945834 
L 100.430292 82.060923 
L 100.262231 83.176012 
L 100.197943 84.291101 
L 100.225547 85.40619 
L 100.319471 86.521279 
L 100.450988 87.636368 
L 100.596355 88.751457 
L 100.739435 89.866546 
L 100.868404 90.981635 
L 100.969475 92.096724 
L 101.022629 93.211813 
L 101.00359 94.326903 
L 100.8925 95.441992 
L 100.685072 96.557081 
L 100.399603 97.67217 
L 100.07488 98.787259 
L 99.758914 99.902348 
L 99.493387 101.017437 
L 99.300632 102.132526 
L 99.177819 103.247615 
L 99.098571 104.362704 
L 99.018618 105.477793 
L 98.881576 106.592882 
L 98.623481 107.707972 
L 98.177893 108.823061 
L 97.484475 109.93815 
L 96.501869 111.053239 
L 95.221942 112.168328 
L 93.679894 113.283417 
L 91.955184 114.398506 
L 90.161226 115.513595 
L 88.42548 116.628684 
L 86.864274 117.743773 
L 85.558515 118.858862 
L 84.537272 119.973951 
L 83.775364 121.089041 
L 83.207153 122.20413 
L 82.752269 123.319219 
z
" style="fill:#1f77b4;fill-opacity:0.3;"/>
   </g>
   <g id="matplotlib.axis_1"/>
   <g id="matplotlib.axis_2">
    <g id="ytick_1">
     <g id="line2d_1">
      <defs>
       <path d="M 0 0 
L -3.5 0 
" id="ma29f1c1af0" style="stroke:#000000;stroke-width:0.8;"/>
      </defs>
      <g>
       <use style="stroke:#000000;stroke-width:0.8;" x="33.2875" xlink:href="#ma29f1c1af0" y="123.319219"/>
      </g>
     </g>
     <g id="text_1">
      <!-- 0 -->
      <defs>
       <path d="M 31.78125 66.40625 
Q 24.171875 66.40625 20.328125 58.90625 
Q 16.5 51.421875 16.5 36.375 
Q 16.5 21.390625 20.328125 13.890625 
Q 24.171875 6.390625 31.78125 6.390625 
Q 39.453125 6.390625 43.28125 13.890625 
Q 47.125 21.390625 47.125 36.375 
Q 47.125 51.421875 43.28125 58.90625 
Q 39.453125 66.40625 31.78125 66.40625 
z
M 31.78125 74.21875 
Q 44.046875 74.21875 50.515625 64.515625 
Q 56.984375 54.828125 56.984375 36.375 
Q 56.984375 17.96875 50.515625 8.265625 
Q 44.046875 -1.421875 31.78125 -1.421875 
Q 19.53125 -1.421875 13.0625 8.265625 
Q 6.59375 17.96875 6.59375 36.375 
Q 6.59375 54.828125 13.0625 64.515625 
Q 19.53125 74.21875 31.78125 74.21875 
z
" id="DejaVuSans-30"/>
      </defs>
      <g transform="translate(19.925 127.118437)scale(0.1 -0.1)">
       <use xlink:href="#DejaVuSans-30"/>
      </g>
     </g>
    </g>
    <g id="ytick_2">
     <g id="line2d_2">
      <g>
       <use style="stroke:#000000;stroke-width:0.8;" x="33.2875" xlink:href="#ma29f1c1af0" y="67.159219"/>
      </g>
     </g>
     <g id="text_2">
      <!-- 150 -->
      <defs>
       <path d="M 12.40625 8.296875 
L 28.515625 8.296875 
L 28.515625 63.921875 
L 10.984375 60.40625 
L 10.984375 69.390625 
L 28.421875 72.90625 
L 38.28125 72.90625 
L 38.28125 8.296875 
L 54.390625 8.296875 
L 54.390625 0 
L 12.40625 0 
z
" id="DejaVuSans-31"/>
       <path d="M 10.796875 72.90625 
L 49.515625 72.90625 
L 49.515625 64.59375 
L 19.828125 64.59375 
L 19.828125 46.734375 
Q 21.96875 47.46875 24.109375 47.828125 
Q 26.265625 48.1875 28.421875 48.1875 
Q 40.625 48.1875 47.75 41.5 
Q 54.890625 34.8125 54.890625 23.390625 
Q 54.890625 11.625 47.5625 5.09375 
Q 40.234375 -1.421875 26.90625 -1.421875 
Q 22.3125 -1.421875 17.546875 -0.640625 
Q 12.796875 0.140625 7.71875 1.703125 
L 7.71875 11.625 
Q 12.109375 9.234375 16.796875 8.0625 
Q 21.484375 6.890625 26.703125 6.890625 
Q 35.15625 6.890625 40.078125 11.328125 
Q 45.015625 15.765625 45.015625 23.390625 
Q 45.015625 31 40.078125 35.4375 
Q 35.15625 39.890625 26.703125 39.890625 
Q 22.75 39.890625 18.8125 39.015625 
Q 14.890625 38.140625 10.796875 36.28125 
z
" id="DejaVuSans-35"/>
      </defs>
      <g transform="translate(7.2 70.958437)scale(0.1 -0.1)">
       <use xlink:href="#DejaVuSans-31"/>
       <use x="63.623047" xlink:href="#DejaVuSans-35"/>
       <use x="127.246094" xlink:href="#DejaVuSans-30"/>
      </g>
     </g>
    </g>
    <g id="ytick_3">
     <g id="line2d_3">
      <g>
       <use style="stroke:#000000;stroke-width:0.8;" x="33.2875" xlink:href="#ma29f1c1af0" y="10.999219"/>
      </g>
     </g>
     <g id="text_3">
      <!-- 300 -->
      <defs>
       <path d="M 40.578125 39.3125 
Q 47.65625 37.796875 51.625 33 
Q 55.609375 28.21875 55.609375 21.1875 
Q 55.609375 10.40625 48.1875 4.484375 
Q 40.765625 -1.421875 27.09375 -1.421875 
Q 22.515625 -1.421875 17.65625 -0.515625 
Q 12.796875 0.390625 7.625 2.203125 
L 7.625 11.71875 
Q 11.71875 9.328125 16.59375 8.109375 
Q 21.484375 6.890625 26.8125 6.890625 
Q 36.078125 6.890625 40.9375 10.546875 
Q 45.796875 14.203125 45.796875 21.1875 
Q 45.796875 27.640625 41.28125 31.265625 
Q 36.765625 34.90625 28.71875 34.90625 
L 20.21875 34.90625 
L 20.21875 43.015625 
L 29.109375 43.015625 
Q 36.375 43.015625 40.234375 45.921875 
Q 44.09375 48.828125 44.09375 54.296875 
Q 44.09375 59.90625 40.109375 62.90625 
Q 36.140625 65.921875 28.71875 65.921875 
Q 24.65625 65.921875 20.015625 65.03125 
Q 15.375 64.15625 9.8125 62.3125 
L 9.8125 71.09375 
Q 15.4375 72.65625 20.34375 73.4375 
Q 25.25 74.21875 29.59375 74.21875 
Q 40.828125 74.21875 47.359375 69.109375 
Q 53.90625 64.015625 53.90625 55.328125 
Q 53.90625 49.265625 50.4375 45.09375 
Q 46.96875 40.921875 40.578125 39.3125 
z
" id="DejaVuSans-33"/>
      </defs>
      <g transform="translate(7.2 14.798437)scale(0.1 -0.1)">
       <use xlink:href="#DejaVuSans-33"/>
       <use x="63.623047" xlink:href="#DejaVuSans-30"/>
       <use x="127.246094" xlink:href="#DejaVuSans-30"/>
      </g>
     </g>
    </g>
   </g>
   <g id="patch_3">
    <path d="M 33.2875 123.319219 
L 33.2875 10.999219 
" style="fill:none;stroke:#000000;stroke-linecap:square;stroke-linejoin:miter;stroke-width:0.8;"/>
   </g>
   <g id="patch_4">
    <path d="M 33.2875 123.319219 
L 127.0875 123.319219 
" style="fill:none;stroke:#000000;stroke-linecap:square;stroke-linejoin:miter;stroke-width:0.8;"/>
   </g>
  </g>
 </g>
 <defs>
  <clipPath id="pe68bbb464c">
   <rect height="112.32" width="93.8" x="33.2875" y="10.999219"/>
  </clipPath>
 </defs>
</svg>
