<?xml version="1.0" encoding="utf-8" standalone="no"?>
<!DOCTYPE svg PUBLIC "-//W3C//DTD SVG 1.1//EN"
  "http://www.w3.org/Graphics/SVG/1.1/DTD/svg11.dtd">
<!-- Created with matplotlib (http://matplotlib.org/) -->
<svg height="136pt" version="1.1" viewBox="0 0 137 136" width="137pt" xmlns="http://www.w3.org/2000/svg" xmlns:xlink="http://www.w3.org/1999/xlink">
 <defs>
  <style type="text/css">
*{stroke-linecap:butt;stroke-linejoin:round;}
  </style>
 </defs>
 <g id="figure_1">
  <g id="patch_1">
   <path d="M 0 136.398125 
L 137.7875 136.398125 
L 137.7875 0 
L 0 0 
z
" style="fill:#ffffff;"/>
  </g>
  <g id="axes_1">
   <g id="patch_2">
    <path d="M 33.2875 123.319219 
L 127.0875 123.319219 
L 127.0875 10.999219 
L 33.2875 10.999219 
z
" style="fill:#ffffff;"/>
   </g>
   <g id="PolyCollection_1">
    <path clip-path="url(#p20c4302ef2)" d="M 82.200659 123.319219 
L 78.174341 123.319219 
L 77.790076 122.204852 
L 77.29926 121.090486 
L 76.63379 119.97612 
L 75.736544 118.861753 
L 74.582104 117.747387 
L 73.188946 116.63302 
L 71.61962 115.518654 
L 69.969954 114.404287 
L 68.35096 113.289921 
L 66.867927 112.175555 
L 65.601422 111.061188 
L 64.594826 109.946822 
L 63.851821 108.832455 
L 63.344024 107.718089 
L 63.024994 106.603723 
L 62.844343 105.489356 
L 62.756619 104.37499 
L 62.723406 103.260623 
L 62.711204 102.146257 
L 62.689486 101.031891 
L 62.632167 99.917524 
L 62.522468 98.803158 
L 62.358208 97.688791 
L 62.15351 96.574425 
L 61.934394 95.460059 
L 61.728941 94.345692 
L 61.556004 93.231326 
L 61.417838 92.116959 
L 61.300682 91.002593 
L 61.183581 89.888227 
L 61.051498 88.77386 
L 60.906266 87.659494 
L 60.769552 86.545127 
L 60.67565 85.430761 
L 60.656791 84.316394 
L 60.727361 83.202028 
L 60.874075 82.087662 
L 61.056581 80.973295 
L 61.218685 79.858929 
L 61.306449 78.744562 
L 61.287131 77.630196 
L 61.162662 76.51583 
L 60.972598 75.401463 
L 60.784375 74.287097 
L 60.672857 73.17273 
L 60.695693 72.058364 
L 60.873569 70.943998 
L 61.18313 69.829631 
L 61.565137 68.715265 
L 61.94377 67.600898 
L 62.248664 66.486532 
L 62.43132 65.372166 
L 62.471519 64.257799 
L 62.374525 63.143433 
L 62.163012 62.029066 
L 61.867834 60.9147 
L 61.519712 59.800334 
L 61.142192 58.685967 
L 60.746135 57.571601 
L 60.32722 56.457234 
L 59.868486 55.342868 
L 59.348491 54.228501 
L 58.752532 53.114135 
L 58.081769 51.999769 
L 57.355218 50.885402 
L 56.602869 49.771036 
L 55.853095 48.656669 
L 55.120996 47.542303 
L 54.403966 46.427937 
L 53.686592 45.31357 
L 52.951431 44.199204 
L 52.188966 43.084837 
L 51.401266 41.970471 
L 50.598276 40.856105 
L 49.790075 39.741738 
L 48.979851 38.627372 
L 48.160742 37.513005 
L 47.316923 36.398639 
L 46.427611 35.284273 
L 45.472488 34.169906 
L 44.437657 33.05554 
L 43.32162 31.941173 
L 42.140766 30.826807 
L 40.933827 29.71244 
L 39.765117 28.598074 
L 38.726756 27.483708 
L 37.939625 26.369341 
L 37.551136 25.254975 
L 37.725926 24.140608 
L 38.625572 23.026242 
L 40.376917 21.911876 
L 43.034913 20.797509 
L 46.551646 19.683143 
L 50.764427 18.568776 
L 55.410901 17.45441 
L 60.169906 16.340044 
L 64.717531 15.225677 
L 68.782572 14.111311 
L 72.186333 12.996944 
L 88.188667 12.996944 
L 88.188667 12.996944 
L 91.592428 14.111311 
L 95.657469 15.225677 
L 100.205094 16.340044 
L 104.964099 17.45441 
L 109.610573 18.568776 
L 113.823354 19.683143 
L 117.340087 20.797509 
L 119.998083 21.911876 
L 121.749428 23.026242 
L 122.649074 24.140608 
L 122.823864 25.254975 
L 122.435375 26.369341 
L 121.648244 27.483708 
L 120.609883 28.598074 
L 119.441173 29.71244 
L 118.234234 30.826807 
L 117.05338 31.941173 
L 115.937343 33.05554 
L 114.902512 34.169906 
L 113.947389 35.284273 
L 113.058077 36.398639 
L 112.214258 37.513005 
L 111.395149 38.627372 
L 110.584925 39.741738 
L 109.776724 40.856105 
L 108.973734 41.970471 
L 108.186034 43.084837 
L 107.423569 44.199204 
L 106.688408 45.31357 
L 105.971034 46.427937 
L 105.254004 47.542303 
L 104.521905 48.656669 
L 103.772131 49.771036 
L 103.019782 50.885402 
L 102.293231 51.999769 
L 101.622468 53.114135 
L 101.026509 54.228501 
L 100.506514 55.342868 
L 100.04778 56.457234 
L 99.628865 57.571601 
L 99.232808 58.685967 
L 98.855288 59.800334 
L 98.507166 60.9147 
L 98.211988 62.029066 
L 98.000475 63.143433 
L 97.903481 64.257799 
L 97.94368 65.372166 
L 98.126336 66.486532 
L 98.43123 67.600898 
L 98.809863 68.715265 
L 99.19187 69.829631 
L 99.501431 70.943998 
L 99.679307 72.058364 
L 99.702143 73.17273 
L 99.590625 74.287097 
L 99.402402 75.401463 
L 99.212338 76.51583 
L 99.087869 77.630196 
L 99.068551 78.744562 
L 99.156315 79.858929 
L 99.318419 80.973295 
L 99.500925 82.087662 
L 99.647639 83.202028 
L 99.718209 84.316394 
L 99.69935 85.430761 
L 99.605448 86.545127 
L 99.468734 87.659494 
L 99.323502 88.77386 
L 99.191419 89.888227 
L 99.074318 91.002593 
L 98.957162 92.116959 
L 98.818996 93.231326 
L 98.646059 94.345692 
L 98.440606 95.460059 
L 98.22149 96.574425 
L 98.016792 97.688791 
L 97.852532 98.803158 
L 97.742833 99.917524 
L 97.685514 101.031891 
L 97.663796 102.146257 
L 97.651594 103.260623 
L 97.618381 104.37499 
L 97.530657 105.489356 
L 97.350006 106.603723 
L 97.030976 107.718089 
L 96.523179 108.832455 
L 95.780174 109.946822 
L 94.773578 111.061188 
L 93.507073 112.175555 
L 92.02404 113.289921 
L 90.405046 114.404287 
L 88.75538 115.518654 
L 87.186054 116.63302 
L 85.792896 117.747387 
L 84.638456 118.861753 
L 83.74121 119.97612 
L 83.07574 121.090486 
L 82.584924 122.204852 
L 82.200659 123.319219 
z
" style="fill:#1f77b4;fill-opacity:0.3;"/>
   </g>
   <g id="matplotlib.axis_1"/>
   <g id="matplotlib.axis_2">
    <g id="ytick_1">
     <g id="line2d_1">
      <defs>
       <path d="M 0 0 
L -3.5 0 
" id="m94ba191be7" style="stroke:#000000;stroke-width:0.8;"/>
      </defs>
      <g>
       <use style="stroke:#000000;stroke-width:0.8;" x="33.2875" xlink:href="#m94ba191be7" y="123.319219"/>
      </g>
     </g>
     <g id="text_1">
      <!-- 0 -->
      <defs>
       <path d="M 31.78125 66.40625 
Q 24.171875 66.40625 20.328125 58.90625 
Q 16.5 51.421875 16.5 36.375 
Q 16.5 21.390625 20.328125 13.890625 
Q 24.171875 6.390625 31.78125 6.390625 
Q 39.453125 6.390625 43.28125 13.890625 
Q 47.125 21.390625 47.125 36.375 
Q 47.125 51.421875 43.28125 58.90625 
Q 39.453125 66.40625 31.78125 66.40625 
z
M 31.78125 74.21875 
Q 44.046875 74.21875 50.515625 64.515625 
Q 56.984375 54.828125 56.984375 36.375 
Q 56.984375 17.96875 50.515625 8.265625 
Q 44.046875 -1.421875 31.78125 -1.421875 
Q 19.53125 -1.421875 13.0625 8.265625 
Q 6.59375 17.96875 6.59375 36.375 
Q 6.59375 54.828125 13.0625 64.515625 
Q 19.53125 74.21875 31.78125 74.21875 
z
" id="DejaVuSans-30"/>
      </defs>
      <g transform="translate(19.925 127.118437)scale(0.1 -0.1)">
       <use xlink:href="#DejaVuSans-30"/>
      </g>
     </g>
    </g>
    <g id="ytick_2">
     <g id="line2d_2">
      <g>
       <use style="stroke:#000000;stroke-width:0.8;" x="33.2875" xlink:href="#m94ba191be7" y="67.159219"/>
      </g>
     </g>
     <g id="text_2">
      <!-- 150 -->
      <defs>
       <path d="M 12.40625 8.296875 
L 28.515625 8.296875 
L 28.515625 63.921875 
L 10.984375 60.40625 
L 10.984375 69.390625 
L 28.421875 72.90625 
L 38.28125 72.90625 
L 38.28125 8.296875 
L 54.390625 8.296875 
L 54.390625 0 
L 12.40625 0 
z
" id="DejaVuSans-31"/>
       <path d="M 10.796875 72.90625 
L 49.515625 72.90625 
L 49.515625 64.59375 
L 19.828125 64.59375 
L 19.828125 46.734375 
Q 21.96875 47.46875 24.109375 47.828125 
Q 26.265625 48.1875 28.421875 48.1875 
Q 40.625 48.1875 47.75 41.5 
Q 54.890625 34.8125 54.890625 23.390625 
Q 54.890625 11.625 47.5625 5.09375 
Q 40.234375 -1.421875 26.90625 -1.421875 
Q 22.3125 -1.421875 17.546875 -0.640625 
Q 12.796875 0.140625 7.71875 1.703125 
L 7.71875 11.625 
Q 12.109375 9.234375 16.796875 8.0625 
Q 21.484375 6.890625 26.703125 6.890625 
Q 35.15625 6.890625 40.078125 11.328125 
Q 45.015625 15.765625 45.015625 23.390625 
Q 45.015625 31 40.078125 35.4375 
Q 35.15625 39.890625 26.703125 39.890625 
Q 22.75 39.890625 18.8125 39.015625 
Q 14.890625 38.140625 10.796875 36.28125 
z
" id="DejaVuSans-35"/>
      </defs>
      <g transform="translate(7.2 70.958437)scale(0.1 -0.1)">
       <use xlink:href="#DejaVuSans-31"/>
       <use x="63.623047" xlink:href="#DejaVuSans-35"/>
       <use x="127.246094" xlink:href="#DejaVuSans-30"/>
      </g>
     </g>
    </g>
    <g id="ytick_3">
     <g id="line2d_3">
      <g>
       <use style="stroke:#000000;stroke-width:0.8;" x="33.2875" xlink:href="#m94ba191be7" y="10.999219"/>
      </g>
     </g>
     <g id="text_3">
      <!-- 300 -->
      <defs>
       <path d="M 40.578125 39.3125 
Q 47.65625 37.796875 51.625 33 
Q 55.609375 28.21875 55.609375 21.1875 
Q 55.609375 10.40625 48.1875 4.484375 
Q 40.765625 -1.421875 27.09375 -1.421875 
Q 22.515625 -1.421875 17.65625 -0.515625 
Q 12.796875 0.390625 7.625 2.203125 
L 7.625 11.71875 
Q 11.71875 9.328125 16.59375 8.109375 
Q 21.484375 6.890625 26.8125 6.890625 
Q 36.078125 6.890625 40.9375 10.546875 
Q 45.796875 14.203125 45.796875 21.1875 
Q 45.796875 27.640625 41.28125 31.265625 
Q 36.765625 34.90625 28.71875 34.90625 
L 20.21875 34.90625 
L 20.21875 43.015625 
L 29.109375 43.015625 
Q 36.375 43.015625 40.234375 45.921875 
Q 44.09375 48.828125 44.09375 54.296875 
Q 44.09375 59.90625 40.109375 62.90625 
Q 36.140625 65.921875 28.71875 65.921875 
Q 24.65625 65.921875 20.015625 65.03125 
Q 15.375 64.15625 9.8125 62.3125 
L 9.8125 71.09375 
Q 15.4375 72.65625 20.34375 73.4375 
Q 25.25 74.21875 29.59375 74.21875 
Q 40.828125 74.21875 47.359375 69.109375 
Q 53.90625 64.015625 53.90625 55.328125 
Q 53.90625 49.265625 50.4375 45.09375 
Q 46.96875 40.921875 40.578125 39.3125 
z
" id="DejaVuSans-33"/>
      </defs>
      <g transform="translate(7.2 14.798437)scale(0.1 -0.1)">
       <use xlink:href="#DejaVuSans-33"/>
       <use x="63.623047" xlink:href="#DejaVuSans-30"/>
       <use x="127.246094" xlink:href="#DejaVuSans-30"/>
      </g>
     </g>
    </g>
   </g>
   <g id="patch_3">
    <path d="M 33.2875 123.319219 
L 33.2875 10.999219 
" style="fill:none;stroke:#000000;stroke-linecap:square;stroke-linejoin:miter;stroke-width:0.8;"/>
   </g>
   <g id="patch_4">
    <path d="M 33.2875 123.319219 
L 127.0875 123.319219 
" style="fill:none;stroke:#000000;stroke-linecap:square;stroke-linejoin:miter;stroke-width:0.8;"/>
   </g>
  </g>
 </g>
 <defs>
  <clipPath id="p20c4302ef2">
   <rect height="112.32" width="93.8" x="33.2875" y="10.999219"/>
  </clipPath>
 </defs>
</svg>
