<?xml version="1.0" encoding="utf-8" standalone="no"?>
<!DOCTYPE svg PUBLIC "-//W3C//DTD SVG 1.1//EN"
  "http://www.w3.org/Graphics/SVG/1.1/DTD/svg11.dtd">
<!-- Created with matplotlib (http://matplotlib.org/) -->
<svg height="136pt" version="1.1" viewBox="0 0 137 136" width="137pt" xmlns="http://www.w3.org/2000/svg" xmlns:xlink="http://www.w3.org/1999/xlink">
 <defs>
  <style type="text/css">
*{stroke-linecap:butt;stroke-linejoin:round;}
  </style>
 </defs>
 <g id="figure_1">
  <g id="patch_1">
   <path d="M 0 136.398125 
L 137.7875 136.398125 
L 137.7875 0 
L 0 0 
z
" style="fill:#ffffff;"/>
  </g>
  <g id="axes_1">
   <g id="patch_2">
    <path d="M 33.2875 123.319219 
L 127.0875 123.319219 
L 127.0875 10.999219 
L 33.2875 10.999219 
z
" style="fill:#ffffff;"/>
   </g>
   <g id="PolyCollection_1">
    <path clip-path="url(#p401b1e8325)" d="M 80.334054 123.319219 
L 68.166637 123.319219 
L 66.521882 122.205524 
L 64.69608 121.091829 
L 62.475387 119.978134 
L 59.702205 118.864439 
L 56.357529 117.750744 
L 52.596979 116.637049 
L 48.723501 115.523354 
L 45.106419 114.409659 
L 42.077541 113.295964 
L 39.842478 112.182269 
L 38.437663 111.068574 
L 37.744688 109.954879 
L 37.551136 108.841184 
L 37.630176 107.727489 
L 37.807214 106.613794 
L 37.99214 105.500099 
L 38.174284 104.386404 
L 38.393811 103.272709 
L 38.709632 102.159015 
L 39.178382 101.04532 
L 39.847158 99.931625 
L 40.752695 98.81793 
L 41.917551 97.704235 
L 43.339634 96.59054 
L 44.980076 95.476845 
L 46.759048 94.36315 
L 48.566168 93.249455 
L 50.283522 92.13576 
L 51.811315 91.022065 
L 53.084134 89.90837 
L 54.071106 88.794675 
L 54.761922 87.68098 
L 55.147606 86.567285 
L 55.206773 85.45359 
L 54.904842 84.339895 
L 54.207631 83.2262 
L 53.104671 82.112505 
L 51.633388 80.99881 
L 49.894467 79.885115 
L 48.05134 78.77142 
L 46.312097 77.657725 
L 44.897816 76.54403 
L 44.005197 75.430335 
L 43.771972 74.316641 
L 44.251719 73.202946 
L 45.402117 72.089251 
L 47.088691 70.975556 
L 49.104467 69.861861 
L 51.203484 68.748166 
L 53.142431 67.634471 
L 54.721298 66.520776 
L 55.813134 65.407081 
L 56.376172 64.293386 
L 56.447504 63.179691 
L 56.12327 62.065996 
L 55.533244 60.952301 
L 54.816961 59.838606 
L 54.105272 58.724911 
L 53.507589 57.611216 
L 53.102907 56.497521 
L 52.932775 55.383826 
L 52.99621 54.270131 
L 53.248739 53.156436 
L 53.608652 52.042741 
L 53.972238 50.929046 
L 54.23656 49.815351 
L 54.324655 48.701656 
L 54.205591 47.587961 
L 53.901996 46.474267 
L 53.481097 45.360572 
L 53.031234 44.246877 
L 52.631975 43.133182 
L 52.329184 42.019487 
L 52.124387 40.905792 
L 51.981118 39.792097 
L 51.843208 38.678402 
L 51.655662 37.564707 
L 51.37987 36.451012 
L 50.999769 35.337317 
L 50.520484 34.223622 
L 49.963243 33.109927 
L 49.35979 31.996232 
L 48.748183 30.882537 
L 48.171123 29.768842 
L 47.677775 28.655147 
L 47.329049 27.541452 
L 47.203822 26.427757 
L 47.400902 25.314062 
L 48.031033 24.200367 
L 49.196613 23.086672 
L 50.96305 21.972977 
L 53.331386 20.859282 
L 56.223418 19.745587 
L 59.486525 18.631893 
L 62.917911 17.518198 
L 66.300649 16.404503 
L 69.440461 15.290808 
L 72.193363 14.177113 
L 74.478849 13.063418 
L 80.334054 13.063418 
L 80.334054 13.063418 
L 80.334054 14.177113 
L 80.334054 15.290808 
L 80.334054 16.404503 
L 80.334054 17.518198 
L 80.334054 18.631893 
L 80.334054 19.745587 
L 80.334054 20.859282 
L 80.334054 21.972977 
L 80.334054 23.086672 
L 80.334054 24.200367 
L 80.334054 25.314062 
L 80.334054 26.427757 
L 80.334054 27.541452 
L 80.334054 28.655147 
L 80.334054 29.768842 
L 80.334054 30.882537 
L 80.334054 31.996232 
L 80.334054 33.109927 
L 80.334054 34.223622 
L 80.334054 35.337317 
L 80.334054 36.451012 
L 80.334054 37.564707 
L 80.334054 38.678402 
L 80.334054 39.792097 
L 80.334054 40.905792 
L 80.334054 42.019487 
L 80.334054 43.133182 
L 80.334054 44.246877 
L 80.334054 45.360572 
L 80.334054 46.474267 
L 80.334054 47.587961 
L 80.334054 48.701656 
L 80.334054 49.815351 
L 80.334054 50.929046 
L 80.334054 52.042741 
L 80.334054 53.156436 
L 80.334054 54.270131 
L 80.334054 55.383826 
L 80.334054 56.497521 
L 80.334054 57.611216 
L 80.334054 58.724911 
L 80.334054 59.838606 
L 80.334054 60.952301 
L 80.334054 62.065996 
L 80.334054 63.179691 
L 80.334054 64.293386 
L 80.334054 65.407081 
L 80.334054 66.520776 
L 80.334054 67.634471 
L 80.334054 68.748166 
L 80.334054 69.861861 
L 80.334054 70.975556 
L 80.334054 72.089251 
L 80.334054 73.202946 
L 80.334054 74.316641 
L 80.334054 75.430335 
L 80.334054 76.54403 
L 80.334054 77.657725 
L 80.334054 78.77142 
L 80.334054 79.885115 
L 80.334054 80.99881 
L 80.334054 82.112505 
L 80.334054 83.2262 
L 80.334054 84.339895 
L 80.334054 85.45359 
L 80.334054 86.567285 
L 80.334054 87.68098 
L 80.334054 88.794675 
L 80.334054 89.90837 
L 80.334054 91.022065 
L 80.334054 92.13576 
L 80.334054 93.249455 
L 80.334054 94.36315 
L 80.334054 95.476845 
L 80.334054 96.59054 
L 80.334054 97.704235 
L 80.334054 98.81793 
L 80.334054 99.931625 
L 80.334054 101.04532 
L 80.334054 102.159015 
L 80.334054 103.272709 
L 80.334054 104.386404 
L 80.334054 105.500099 
L 80.334054 106.613794 
L 80.334054 107.727489 
L 80.334054 108.841184 
L 80.334054 109.954879 
L 80.334054 111.068574 
L 80.334054 112.182269 
L 80.334054 113.295964 
L 80.334054 114.409659 
L 80.334054 115.523354 
L 80.334054 116.637049 
L 80.334054 117.750744 
L 80.334054 118.864439 
L 80.334054 119.978134 
L 80.334054 121.091829 
L 80.334054 122.205524 
L 80.334054 123.319219 
z
" style="fill:#1f77b4;fill-opacity:0.3;"/>
   </g>
   <g id="PolyCollection_2">
    <path clip-path="url(#p401b1e8325)" d="M 82.928256 123.319219 
L 80.252577 123.319219 
L 80.252577 122.201977 
L 80.252577 121.084736 
L 80.252577 119.967495 
L 80.252577 118.850253 
L 80.252577 117.733012 
L 80.252577 116.615771 
L 80.252577 115.498529 
L 80.252577 114.381288 
L 80.252577 113.264047 
L 80.252577 112.146805 
L 80.252577 111.029564 
L 80.252577 109.912323 
L 80.252577 108.795082 
L 80.252577 107.67784 
L 80.252577 106.560599 
L 80.252577 105.443358 
L 80.252577 104.326116 
L 80.252577 103.208875 
L 80.252577 102.091634 
L 80.252577 100.974392 
L 80.252577 99.857151 
L 80.252577 98.73991 
L 80.252577 97.622668 
L 80.252577 96.505427 
L 80.252577 95.388186 
L 80.252577 94.270944 
L 80.252577 93.153703 
L 80.252577 92.036462 
L 80.252577 90.91922 
L 80.252577 89.801979 
L 80.252577 88.684738 
L 80.252577 87.567496 
L 80.252577 86.450255 
L 80.252577 85.333014 
L 80.252577 84.215772 
L 80.252577 83.098531 
L 80.252577 81.98129 
L 80.252577 80.864048 
L 80.252577 79.746807 
L 80.252577 78.629566 
L 80.252577 77.512324 
L 80.252577 76.395083 
L 80.252577 75.277842 
L 80.252577 74.1606 
L 80.252577 73.043359 
L 80.252577 71.926118 
L 80.252577 70.808876 
L 80.252577 69.691635 
L 80.252577 68.574394 
L 80.252577 67.457152 
L 80.252577 66.339911 
L 80.252577 65.22267 
L 80.252577 64.105428 
L 80.252577 62.988187 
L 80.252577 61.870946 
L 80.252577 60.753704 
L 80.252577 59.636463 
L 80.252577 58.519222 
L 80.252577 57.40198 
L 80.252577 56.284739 
L 80.252577 55.167498 
L 80.252577 54.050256 
L 80.252577 52.933015 
L 80.252577 51.815774 
L 80.252577 50.698533 
L 80.252577 49.581291 
L 80.252577 48.46405 
L 80.252577 47.346809 
L 80.252577 46.229567 
L 80.252577 45.112326 
L 80.252577 43.995085 
L 80.252577 42.877843 
L 80.252577 41.760602 
L 80.252577 40.643361 
L 80.252577 39.526119 
L 80.252577 38.408878 
L 80.252577 37.291637 
L 80.252577 36.174395 
L 80.252577 35.057154 
L 80.252577 33.939913 
L 80.252577 32.822671 
L 80.252577 31.70543 
L 80.252577 30.588189 
L 80.252577 29.470947 
L 80.252577 28.353706 
L 80.252577 27.236465 
L 80.252577 26.119223 
L 80.252577 25.001982 
L 80.252577 23.884741 
L 80.252577 22.767499 
L 80.252577 21.650258 
L 80.252577 20.533017 
L 80.252577 19.415775 
L 80.252577 18.298534 
L 80.252577 17.181293 
L 80.252577 16.064051 
L 80.252577 14.94681 
L 80.252577 13.829569 
L 80.252577 12.712327 
L 87.916637 12.712327 
L 87.916637 12.712327 
L 91.303171 13.829569 
L 95.376126 14.94681 
L 99.961518 16.064051 
L 104.787729 17.181293 
L 109.522363 18.298534 
L 113.826487 19.415775 
L 117.414016 20.533017 
L 120.10155 21.650258 
L 121.835262 22.767499 
L 122.68733 23.884741 
L 122.823864 25.001982 
L 122.456069 26.119223 
L 121.791487 27.236465 
L 120.999904 28.353706 
L 120.200046 29.470947 
L 119.463562 30.588189 
L 118.827184 31.70543 
L 118.304452 32.822671 
L 117.892892 33.939913 
L 117.577138 35.057154 
L 117.330294 36.174395 
L 117.115236 37.291637 
L 116.886697 38.408878 
L 116.595393 39.526119 
L 116.195946 40.643361 
L 115.658878 41.760602 
L 114.983108 42.877843 
L 114.202344 43.995085 
L 113.379917 45.112326 
L 112.592385 46.229567 
L 111.908386 47.346809 
L 111.371285 48.46405 
L 110.990889 49.581291 
L 110.744308 50.698533 
L 110.582817 51.815774 
L 110.441611 52.933015 
L 110.250968 54.050256 
L 109.948462 55.167498 
L 109.491588 56.284739 
L 108.869125 57.40198 
L 108.108671 58.519222 
L 107.277843 59.636463 
L 106.477767 60.753704 
L 105.829098 61.870946 
L 105.451971 62.988187 
L 105.441883 64.105428 
L 105.844679 65.22267 
L 106.636238 66.339911 
L 107.714777 67.457152 
L 108.91267 68.574394 
L 110.028317 69.691635 
L 110.869425 70.808876 
L 111.293033 71.926118 
L 111.229448 73.043359 
L 110.685733 74.1606 
L 109.733585 75.277842 
L 108.490328 76.395083 
L 107.099394 77.512324 
L 105.711738 78.629566 
L 104.467138 79.746807 
L 103.475687 80.864048 
L 102.802998 81.98129 
L 102.464101 83.098531 
L 102.428968 84.215772 
L 102.638068 85.333014 
L 103.022042 86.450255 
L 103.517944 87.567496 
L 104.076529 88.684738 
L 104.659793 89.801979 
L 105.233224 90.91922 
L 105.760016 92.036462 
L 106.202736 93.153703 
L 106.532282 94.270944 
L 106.737742 95.388186 
L 106.828903 96.505427 
L 106.827524 97.622668 
L 106.751478 98.73991 
L 106.601462 99.857151 
L 106.358854 100.974392 
L 105.996143 102.091634 
L 105.493317 103.208875 
L 104.849832 104.326116 
L 104.084353 105.443358 
L 103.221596 106.560599 
L 102.273288 107.67784 
L 101.224444 108.795082 
L 100.034126 109.912323 
L 98.65242 111.029564 
L 97.046578 112.146805 
L 95.224515 113.264047 
L 93.245487 114.381288 
L 91.213889 115.498529 
L 89.258477 116.615771 
L 87.503193 117.733012 
L 86.037536 118.850253 
L 84.895183 119.967495 
L 84.048703 121.084736 
L 83.423751 122.201977 
L 82.928256 123.319219 
z
" style="fill:#ff7f0e;fill-opacity:0.3;"/>
   </g>
   <g id="matplotlib.axis_1"/>
   <g id="matplotlib.axis_2">
    <g id="ytick_1">
     <g id="line2d_1">
      <defs>
       <path d="M 0 0 
L -3.5 0 
" id="m0d665a9977" style="stroke:#000000;stroke-width:0.8;"/>
      </defs>
      <g>
       <use style="stroke:#000000;stroke-width:0.8;" x="33.2875" xlink:href="#m0d665a9977" y="123.319219"/>
      </g>
     </g>
     <g id="text_1">
      <!-- 0 -->
      <defs>
       <path d="M 31.78125 66.40625 
Q 24.171875 66.40625 20.328125 58.90625 
Q 16.5 51.421875 16.5 36.375 
Q 16.5 21.390625 20.328125 13.890625 
Q 24.171875 6.390625 31.78125 6.390625 
Q 39.453125 6.390625 43.28125 13.890625 
Q 47.125 21.390625 47.125 36.375 
Q 47.125 51.421875 43.28125 58.90625 
Q 39.453125 66.40625 31.78125 66.40625 
z
M 31.78125 74.21875 
Q 44.046875 74.21875 50.515625 64.515625 
Q 56.984375 54.828125 56.984375 36.375 
Q 56.984375 17.96875 50.515625 8.265625 
Q 44.046875 -1.421875 31.78125 -1.421875 
Q 19.53125 -1.421875 13.0625 8.265625 
Q 6.59375 17.96875 6.59375 36.375 
Q 6.59375 54.828125 13.0625 64.515625 
Q 19.53125 74.21875 31.78125 74.21875 
z
" id="DejaVuSans-30"/>
      </defs>
      <g transform="translate(19.925 127.118437)scale(0.1 -0.1)">
       <use xlink:href="#DejaVuSans-30"/>
      </g>
     </g>
    </g>
    <g id="ytick_2">
     <g id="line2d_2">
      <g>
       <use style="stroke:#000000;stroke-width:0.8;" x="33.2875" xlink:href="#m0d665a9977" y="67.159219"/>
      </g>
     </g>
     <g id="text_2">
      <!-- 150 -->
      <defs>
       <path d="M 12.40625 8.296875 
L 28.515625 8.296875 
L 28.515625 63.921875 
L 10.984375 60.40625 
L 10.984375 69.390625 
L 28.421875 72.90625 
L 38.28125 72.90625 
L 38.28125 8.296875 
L 54.390625 8.296875 
L 54.390625 0 
L 12.40625 0 
z
" id="DejaVuSans-31"/>
       <path d="M 10.796875 72.90625 
L 49.515625 72.90625 
L 49.515625 64.59375 
L 19.828125 64.59375 
L 19.828125 46.734375 
Q 21.96875 47.46875 24.109375 47.828125 
Q 26.265625 48.1875 28.421875 48.1875 
Q 40.625 48.1875 47.75 41.5 
Q 54.890625 34.8125 54.890625 23.390625 
Q 54.890625 11.625 47.5625 5.09375 
Q 40.234375 -1.421875 26.90625 -1.421875 
Q 22.3125 -1.421875 17.546875 -0.640625 
Q 12.796875 0.140625 7.71875 1.703125 
L 7.71875 11.625 
Q 12.109375 9.234375 16.796875 8.0625 
Q 21.484375 6.890625 26.703125 6.890625 
Q 35.15625 6.890625 40.078125 11.328125 
Q 45.015625 15.765625 45.015625 23.390625 
Q 45.015625 31 40.078125 35.4375 
Q 35.15625 39.890625 26.703125 39.890625 
Q 22.75 39.890625 18.8125 39.015625 
Q 14.890625 38.140625 10.796875 36.28125 
z
" id="DejaVuSans-35"/>
      </defs>
      <g transform="translate(7.2 70.958437)scale(0.1 -0.1)">
       <use xlink:href="#DejaVuSans-31"/>
       <use x="63.623047" xlink:href="#DejaVuSans-35"/>
       <use x="127.246094" xlink:href="#DejaVuSans-30"/>
      </g>
     </g>
    </g>
    <g id="ytick_3">
     <g id="line2d_3">
      <g>
       <use style="stroke:#000000;stroke-width:0.8;" x="33.2875" xlink:href="#m0d665a9977" y="10.999219"/>
      </g>
     </g>
     <g id="text_3">
      <!-- 300 -->
      <defs>
       <path d="M 40.578125 39.3125 
Q 47.65625 37.796875 51.625 33 
Q 55.609375 28.21875 55.609375 21.1875 
Q 55.609375 10.40625 48.1875 4.484375 
Q 40.765625 -1.421875 27.09375 -1.421875 
Q 22.515625 -1.421875 17.65625 -0.515625 
Q 12.796875 0.390625 7.625 2.203125 
L 7.625 11.71875 
Q 11.71875 9.328125 16.59375 8.109375 
Q 21.484375 6.890625 26.8125 6.890625 
Q 36.078125 6.890625 40.9375 10.546875 
Q 45.796875 14.203125 45.796875 21.1875 
Q 45.796875 27.640625 41.28125 31.265625 
Q 36.765625 34.90625 28.71875 34.90625 
L 20.21875 34.90625 
L 20.21875 43.015625 
L 29.109375 43.015625 
Q 36.375 43.015625 40.234375 45.921875 
Q 44.09375 48.828125 44.09375 54.296875 
Q 44.09375 59.90625 40.109375 62.90625 
Q 36.140625 65.921875 28.71875 65.921875 
Q 24.65625 65.921875 20.015625 65.03125 
Q 15.375 64.15625 9.8125 62.3125 
L 9.8125 71.09375 
Q 15.4375 72.65625 20.34375 73.4375 
Q 25.25 74.21875 29.59375 74.21875 
Q 40.828125 74.21875 47.359375 69.109375 
Q 53.90625 64.015625 53.90625 55.328125 
Q 53.90625 49.265625 50.4375 45.09375 
Q 46.96875 40.921875 40.578125 39.3125 
z
" id="DejaVuSans-33"/>
      </defs>
      <g transform="translate(7.2 14.798437)scale(0.1 -0.1)">
       <use xlink:href="#DejaVuSans-33"/>
       <use x="63.623047" xlink:href="#DejaVuSans-30"/>
       <use x="127.246094" xlink:href="#DejaVuSans-30"/>
      </g>
     </g>
    </g>
   </g>
   <g id="patch_3">
    <path d="M 33.2875 123.319219 
L 33.2875 10.999219 
" style="fill:none;stroke:#000000;stroke-linecap:square;stroke-linejoin:miter;stroke-width:0.8;"/>
   </g>
   <g id="patch_4">
    <path d="M 33.2875 123.319219 
L 127.0875 123.319219 
" style="fill:none;stroke:#000000;stroke-linecap:square;stroke-linejoin:miter;stroke-width:0.8;"/>
   </g>
  </g>
 </g>
 <defs>
  <clipPath id="p401b1e8325">
   <rect height="112.32" width="93.8" x="33.2875" y="10.999219"/>
  </clipPath>
 </defs>
</svg>
