<?xml version="1.0" encoding="utf-8" standalone="no"?>
<!DOCTYPE svg PUBLIC "-//W3C//DTD SVG 1.1//EN"
  "http://www.w3.org/Graphics/SVG/1.1/DTD/svg11.dtd">
<!-- Created with matplotlib (http://matplotlib.org/) -->
<svg height="136pt" version="1.1" viewBox="0 0 101 136" width="101pt" xmlns="http://www.w3.org/2000/svg" xmlns:xlink="http://www.w3.org/1999/xlink">
 <defs>
  <style type="text/css">
*{stroke-linecap:butt;stroke-linejoin:round;}
  </style>
 </defs>
 <g id="figure_1">
  <g id="patch_1">
   <path d="M 0 136.398125 
L 101.7875 136.398125 
L 101.7875 0 
L 0 0 
z
" style="fill:#ffffff;"/>
  </g>
  <g id="axes_1">
   <g id="patch_2">
    <path d="M 33.2875 123.319219 
L 91.0875 123.319219 
L 91.0875 10.999219 
L 33.2875 10.999219 
z
" style="fill:#ffffff;"/>
   </g>
   <g id="PolyCollection_1">
    <path clip-path="url(#p7b6e6f8fe8)" d="M 63.747477 123.319219 
L 60.627523 123.319219 
L 60.412983 122.246432 
L 60.141626 121.173644 
L 59.732294 120.100857 
L 59.107854 119.02807 
L 58.216727 117.955283 
L 57.041416 116.882496 
L 55.59525 115.809709 
L 53.916519 114.736922 
L 52.067239 113.664134 
L 50.133952 112.591347 
L 48.22005 111.51856 
L 46.422429 110.445773 
L 44.799454 109.372986 
L 43.350405 108.300199 
L 42.024952 107.227412 
L 40.762229 106.154624 
L 39.53652 105.081837 
L 38.379936 104.00905 
L 37.368905 102.936263 
L 36.587538 101.863476 
L 36.094891 100.790689 
L 35.914773 99.717902 
L 36.046337 98.645114 
L 36.479651 97.572327 
L 37.201348 96.49954 
L 38.185619 95.426753 
L 39.37556 94.353966 
L 40.665365 93.281179 
L 41.89588 92.208392 
L 42.87446 91.135604 
L 43.422066 90.062817 
L 43.436238 88.99003 
L 42.944273 87.917243 
L 42.116925 86.844456 
L 41.225778 85.771669 
L 40.553779 84.698882 
L 40.294119 83.626094 
L 40.481652 82.553307 
L 40.987063 81.48052 
L 41.575436 80.407733 
L 42.004178 79.334946 
L 42.122018 78.262159 
L 41.932277 77.189372 
L 41.596229 76.116584 
L 41.373069 75.043797 
L 41.518145 73.97101 
L 42.180998 72.898223 
L 43.346647 71.825436 
L 44.84319 70.752649 
L 46.407256 69.679862 
L 47.775121 68.607074 
L 48.762749 67.534287 
L 49.309532 66.4615 
L 49.477448 65.388713 
L 49.412205 64.315926 
L 49.283771 63.243139 
L 49.2289 62.170352 
L 49.315051 61.097564 
L 49.53307 60.024777 
L 49.811906 58.95199 
L 50.042124 57.879203 
L 50.099639 56.806416 
L 49.870624 55.733629 
L 49.281965 54.660842 
L 48.334303 53.588054 
L 47.122954 52.515267 
L 45.828239 51.44248 
L 44.668588 50.369693 
L 43.831704 49.296906 
L 43.41548 48.224119 
L 43.40741 47.151332 
L 43.709605 46.078544 
L 44.191301 45.005757 
L 44.739232 43.93297 
L 45.284049 42.860183 
L 45.79905 41.787396 
L 46.282247 40.714609 
L 46.736983 39.641822 
L 47.161697 38.569034 
L 47.551768 37.496247 
L 47.909516 36.42346 
L 48.254137 35.350673 
L 48.62295 34.277886 
L 49.060005 33.205099 
L 49.596587 32.132312 
L 50.235248 31.059524 
L 50.948839 29.986737 
L 51.696948 28.91395 
L 52.450155 27.841163 
L 53.206532 26.768376 
L 53.989984 25.695589 
L 54.832172 24.622802 
L 55.749861 23.550014 
L 56.730689 22.477227 
L 57.733595 21.40444 
L 58.701393 20.331653 
L 59.577954 19.258866 
L 60.3224 18.186079 
L 60.915997 17.113292 
L 63.459003 17.113292 
L 63.459003 17.113292 
L 64.0526 18.186079 
L 64.797046 19.258866 
L 65.673607 20.331653 
L 66.641405 21.40444 
L 67.644311 22.477227 
L 68.625139 23.550014 
L 69.542828 24.622802 
L 70.385016 25.695589 
L 71.168468 26.768376 
L 71.924845 27.841163 
L 72.678052 28.91395 
L 73.426161 29.986737 
L 74.139752 31.059524 
L 74.778413 32.132312 
L 75.314995 33.205099 
L 75.75205 34.277886 
L 76.120863 35.350673 
L 76.465484 36.42346 
L 76.823232 37.496247 
L 77.213303 38.569034 
L 77.638017 39.641822 
L 78.092753 40.714609 
L 78.57595 41.787396 
L 79.090951 42.860183 
L 79.635768 43.93297 
L 80.183699 45.005757 
L 80.665395 46.078544 
L 80.96759 47.151332 
L 80.95952 48.224119 
L 80.543296 49.296906 
L 79.706412 50.369693 
L 78.546761 51.44248 
L 77.252046 52.515267 
L 76.040697 53.588054 
L 75.093035 54.660842 
L 74.504376 55.733629 
L 74.275361 56.806416 
L 74.332876 57.879203 
L 74.563094 58.95199 
L 74.84193 60.024777 
L 75.059949 61.097564 
L 75.1461 62.170352 
L 75.091229 63.243139 
L 74.962795 64.315926 
L 74.897552 65.388713 
L 75.065468 66.4615 
L 75.612251 67.534287 
L 76.599879 68.607074 
L 77.967744 69.679862 
L 79.53181 70.752649 
L 81.028353 71.825436 
L 82.194002 72.898223 
L 82.856855 73.97101 
L 83.001931 75.043797 
L 82.778771 76.116584 
L 82.442723 77.189372 
L 82.252982 78.262159 
L 82.370822 79.334946 
L 82.799564 80.407733 
L 83.387937 81.48052 
L 83.893348 82.553307 
L 84.080881 83.626094 
L 83.821221 84.698882 
L 83.149222 85.771669 
L 82.258075 86.844456 
L 81.430727 87.917243 
L 80.938762 88.99003 
L 80.952934 90.062817 
L 81.50054 91.135604 
L 82.47912 92.208392 
L 83.709635 93.281179 
L 84.99944 94.353966 
L 86.189381 95.426753 
L 87.173652 96.49954 
L 87.895349 97.572327 
L 88.328663 98.645114 
L 88.460227 99.717902 
L 88.280109 100.790689 
L 87.787462 101.863476 
L 87.006095 102.936263 
L 85.995064 104.00905 
L 84.83848 105.081837 
L 83.612771 106.154624 
L 82.350048 107.227412 
L 81.024595 108.300199 
L 79.575546 109.372986 
L 77.952571 110.445773 
L 76.15495 111.51856 
L 74.241048 112.591347 
L 72.307761 113.664134 
L 70.458481 114.736922 
L 68.77975 115.809709 
L 67.333584 116.882496 
L 66.158273 117.955283 
L 65.267146 119.02807 
L 64.642706 120.100857 
L 64.233374 121.173644 
L 63.962017 122.246432 
L 63.747477 123.319219 
z
" style="fill:#1f77b4;fill-opacity:0.3;"/>
   </g>
   <g id="matplotlib.axis_1"/>
   <g id="matplotlib.axis_2">
    <g id="ytick_1">
     <g id="line2d_1">
      <defs>
       <path d="M 0 0 
L -3.5 0 
" id="me7a749e039" style="stroke:#000000;stroke-width:0.8;"/>
      </defs>
      <g>
       <use style="stroke:#000000;stroke-width:0.8;" x="33.2875" xlink:href="#me7a749e039" y="123.319219"/>
      </g>
     </g>
     <g id="text_1">
      <!-- 0 -->
      <defs>
       <path d="M 31.78125 66.40625 
Q 24.171875 66.40625 20.328125 58.90625 
Q 16.5 51.421875 16.5 36.375 
Q 16.5 21.390625 20.328125 13.890625 
Q 24.171875 6.390625 31.78125 6.390625 
Q 39.453125 6.390625 43.28125 13.890625 
Q 47.125 21.390625 47.125 36.375 
Q 47.125 51.421875 43.28125 58.90625 
Q 39.453125 66.40625 31.78125 66.40625 
z
M 31.78125 74.21875 
Q 44.046875 74.21875 50.515625 64.515625 
Q 56.984375 54.828125 56.984375 36.375 
Q 56.984375 17.96875 50.515625 8.265625 
Q 44.046875 -1.421875 31.78125 -1.421875 
Q 19.53125 -1.421875 13.0625 8.265625 
Q 6.59375 17.96875 6.59375 36.375 
Q 6.59375 54.828125 13.0625 64.515625 
Q 19.53125 74.21875 31.78125 74.21875 
z
" id="DejaVuSans-30"/>
      </defs>
      <g transform="translate(19.925 127.118437)scale(0.1 -0.1)">
       <use xlink:href="#DejaVuSans-30"/>
      </g>
     </g>
    </g>
    <g id="ytick_2">
     <g id="line2d_2">
      <g>
       <use style="stroke:#000000;stroke-width:0.8;" x="33.2875" xlink:href="#me7a749e039" y="67.159219"/>
      </g>
     </g>
     <g id="text_2">
      <!-- 150 -->
      <defs>
       <path d="M 12.40625 8.296875 
L 28.515625 8.296875 
L 28.515625 63.921875 
L 10.984375 60.40625 
L 10.984375 69.390625 
L 28.421875 72.90625 
L 38.28125 72.90625 
L 38.28125 8.296875 
L 54.390625 8.296875 
L 54.390625 0 
L 12.40625 0 
z
" id="DejaVuSans-31"/>
       <path d="M 10.796875 72.90625 
L 49.515625 72.90625 
L 49.515625 64.59375 
L 19.828125 64.59375 
L 19.828125 46.734375 
Q 21.96875 47.46875 24.109375 47.828125 
Q 26.265625 48.1875 28.421875 48.1875 
Q 40.625 48.1875 47.75 41.5 
Q 54.890625 34.8125 54.890625 23.390625 
Q 54.890625 11.625 47.5625 5.09375 
Q 40.234375 -1.421875 26.90625 -1.421875 
Q 22.3125 -1.421875 17.546875 -0.640625 
Q 12.796875 0.140625 7.71875 1.703125 
L 7.71875 11.625 
Q 12.109375 9.234375 16.796875 8.0625 
Q 21.484375 6.890625 26.703125 6.890625 
Q 35.15625 6.890625 40.078125 11.328125 
Q 45.015625 15.765625 45.015625 23.390625 
Q 45.015625 31 40.078125 35.4375 
Q 35.15625 39.890625 26.703125 39.890625 
Q 22.75 39.890625 18.8125 39.015625 
Q 14.890625 38.140625 10.796875 36.28125 
z
" id="DejaVuSans-35"/>
      </defs>
      <g transform="translate(7.2 70.958437)scale(0.1 -0.1)">
       <use xlink:href="#DejaVuSans-31"/>
       <use x="63.623047" xlink:href="#DejaVuSans-35"/>
       <use x="127.246094" xlink:href="#DejaVuSans-30"/>
      </g>
     </g>
    </g>
    <g id="ytick_3">
     <g id="line2d_3">
      <g>
       <use style="stroke:#000000;stroke-width:0.8;" x="33.2875" xlink:href="#me7a749e039" y="10.999219"/>
      </g>
     </g>
     <g id="text_3">
      <!-- 300 -->
      <defs>
       <path d="M 40.578125 39.3125 
Q 47.65625 37.796875 51.625 33 
Q 55.609375 28.21875 55.609375 21.1875 
Q 55.609375 10.40625 48.1875 4.484375 
Q 40.765625 -1.421875 27.09375 -1.421875 
Q 22.515625 -1.421875 17.65625 -0.515625 
Q 12.796875 0.390625 7.625 2.203125 
L 7.625 11.71875 
Q 11.71875 9.328125 16.59375 8.109375 
Q 21.484375 6.890625 26.8125 6.890625 
Q 36.078125 6.890625 40.9375 10.546875 
Q 45.796875 14.203125 45.796875 21.1875 
Q 45.796875 27.640625 41.28125 31.265625 
Q 36.765625 34.90625 28.71875 34.90625 
L 20.21875 34.90625 
L 20.21875 43.015625 
L 29.109375 43.015625 
Q 36.375 43.015625 40.234375 45.921875 
Q 44.09375 48.828125 44.09375 54.296875 
Q 44.09375 59.90625 40.109375 62.90625 
Q 36.140625 65.921875 28.71875 65.921875 
Q 24.65625 65.921875 20.015625 65.03125 
Q 15.375 64.15625 9.8125 62.3125 
L 9.8125 71.09375 
Q 15.4375 72.65625 20.34375 73.4375 
Q 25.25 74.21875 29.59375 74.21875 
Q 40.828125 74.21875 47.359375 69.109375 
Q 53.90625 64.015625 53.90625 55.328125 
Q 53.90625 49.265625 50.4375 45.09375 
Q 46.96875 40.921875 40.578125 39.3125 
z
" id="DejaVuSans-33"/>
      </defs>
      <g transform="translate(7.2 14.798437)scale(0.1 -0.1)">
       <use xlink:href="#DejaVuSans-33"/>
       <use x="63.623047" xlink:href="#DejaVuSans-30"/>
       <use x="127.246094" xlink:href="#DejaVuSans-30"/>
      </g>
     </g>
    </g>
   </g>
   <g id="patch_3">
    <path d="M 33.2875 123.319219 
L 33.2875 10.999219 
" style="fill:none;stroke:#000000;stroke-linecap:square;stroke-linejoin:miter;stroke-width:0.8;"/>
   </g>
   <g id="patch_4">
    <path d="M 33.2875 123.319219 
L 91.0875 123.319219 
" style="fill:none;stroke:#000000;stroke-linecap:square;stroke-linejoin:miter;stroke-width:0.8;"/>
   </g>
  </g>
 </g>
 <defs>
  <clipPath id="p7b6e6f8fe8">
   <rect height="112.32" width="57.8" x="33.2875" y="10.999219"/>
  </clipPath>
 </defs>
</svg>
