<?xml version="1.0" encoding="utf-8" standalone="no"?>
<!DOCTYPE svg PUBLIC "-//W3C//DTD SVG 1.1//EN"
  "http://www.w3.org/Graphics/SVG/1.1/DTD/svg11.dtd">
<!-- Created with matplotlib (http://matplotlib.org/) -->
<svg height="136pt" version="1.1" viewBox="0 0 137 136" width="137pt" xmlns="http://www.w3.org/2000/svg" xmlns:xlink="http://www.w3.org/1999/xlink">
 <defs>
  <style type="text/css">
*{stroke-linecap:butt;stroke-linejoin:round;}
  </style>
 </defs>
 <g id="figure_1">
  <g id="patch_1">
   <path d="M 0 136.398125 
L 137.7875 136.398125 
L 137.7875 0 
L 0 0 
z
" style="fill:#ffffff;"/>
  </g>
  <g id="axes_1">
   <g id="patch_2">
    <path d="M 33.2875 123.319219 
L 127.0875 123.319219 
L 127.0875 10.999219 
L 33.2875 10.999219 
z
" style="fill:#ffffff;"/>
   </g>
   <g id="PolyCollection_1">
    <path clip-path="url(#p3142e45fe2)" d="M 83.399505 123.319219 
L 76.975495 123.319219 
L 76.405697 122.202552 
L 75.6994 121.085885 
L 74.756445 119.969219 
L 73.491585 118.852552 
L 71.862988 117.735885 
L 69.885415 116.619219 
L 67.625052 115.502552 
L 65.181339 114.385885 
L 62.664676 113.269218 
L 60.177733 112.152552 
L 57.804803 111.035885 
L 55.610441 109.919218 
L 53.645669 108.802552 
L 51.957164 107.685885 
L 50.593184 106.569218 
L 49.60115 105.452552 
L 49.01584 104.335885 
L 48.842223 103.219218 
L 49.040224 102.102551 
L 49.518461 100.985885 
L 50.140708 99.869218 
L 50.744107 98.752551 
L 51.164241 97.635885 
L 51.260917 96.519218 
L 50.939989 95.402551 
L 50.169505 94.285885 
L 48.990275 93.169218 
L 47.520045 92.052551 
L 45.947442 90.935885 
L 44.509741 89.819218 
L 43.450812 88.702551 
L 42.963702 87.585884 
L 43.133283 86.469218 
L 43.901543 85.352551 
L 45.074817 84.235884 
L 46.377125 83.119218 
L 47.533296 82.002551 
L 48.350811 80.885884 
L 48.768933 79.769218 
L 48.858178 78.652551 
L 48.774981 77.535884 
L 48.694434 76.419217 
L 48.750136 75.302551 
L 49.002565 74.185884 
L 49.441017 73.069217 
L 50.008209 71.952551 
L 50.629646 70.835884 
L 51.23424 69.719217 
L 51.763434 68.602551 
L 52.174549 67.485884 
L 52.44471 66.369217 
L 52.575998 65.25255 
L 52.596883 64.135884 
L 52.554926 63.019217 
L 52.501096 61.90255 
L 52.472281 60.785884 
L 52.480525 59.669217 
L 52.513776 58.55255 
L 52.546304 57.435884 
L 52.551979 56.319217 
L 52.513154 55.20255 
L 52.421525 54.085883 
L 52.272141 52.969217 
L 52.054813 51.85255 
L 51.747637 50.735883 
L 51.315915 49.619217 
L 50.717838 48.50255 
L 49.916372 47.385883 
L 48.894601 46.269217 
L 47.669529 45.15255 
L 46.298255 44.035883 
L 44.872234 42.919216 
L 43.500146 41.80255 
L 42.285173 40.685883 
L 41.304886 39.569216 
L 40.599616 38.45255 
L 40.170093 37.335883 
L 39.980915 36.219216 
L 39.966078 35.10255 
L 40.035671 33.985883 
L 40.086244 32.869216 
L 40.018024 31.75255 
L 39.75915 30.635883 
L 39.292096 29.519216 
L 38.673564 28.402549 
L 38.03915 27.285883 
L 37.588259 26.169216 
L 37.551136 25.052549 
L 38.145502 23.935883 
L 39.533212 22.819216 
L 41.787089 21.702549 
L 44.875088 20.585883 
L 48.664219 19.469216 
L 52.941644 18.352549 
L 57.446903 17.235882 
L 61.908362 16.119216 
L 66.078115 15.002549 
L 69.76098 13.885882 
L 72.833937 12.769216 
L 87.541063 12.769216 
L 87.541063 12.769216 
L 90.61402 13.885882 
L 94.296885 15.002549 
L 98.466638 16.119216 
L 102.928097 17.235882 
L 107.433356 18.352549 
L 111.710781 19.469216 
L 115.499912 20.585883 
L 118.587911 21.702549 
L 120.841788 22.819216 
L 122.229498 23.935883 
L 122.823864 25.052549 
L 122.786741 26.169216 
L 122.33585 27.285883 
L 121.701436 28.402549 
L 121.082904 29.519216 
L 120.61585 30.635883 
L 120.356976 31.75255 
L 120.288756 32.869216 
L 120.339329 33.985883 
L 120.408922 35.10255 
L 120.394085 36.219216 
L 120.204907 37.335883 
L 119.775384 38.45255 
L 119.070114 39.569216 
L 118.089827 40.685883 
L 116.874854 41.80255 
L 115.502766 42.919216 
L 114.076745 44.035883 
L 112.705471 45.15255 
L 111.480399 46.269217 
L 110.458628 47.385883 
L 109.657162 48.50255 
L 109.059085 49.619217 
L 108.627363 50.735883 
L 108.320187 51.85255 
L 108.102859 52.969217 
L 107.953475 54.085883 
L 107.861846 55.20255 
L 107.823021 56.319217 
L 107.828696 57.435884 
L 107.861224 58.55255 
L 107.894475 59.669217 
L 107.902719 60.785884 
L 107.873904 61.90255 
L 107.820074 63.019217 
L 107.778117 64.135884 
L 107.799002 65.25255 
L 107.93029 66.369217 
L 108.200451 67.485884 
L 108.611566 68.602551 
L 109.14076 69.719217 
L 109.745354 70.835884 
L 110.366791 71.952551 
L 110.933983 73.069217 
L 111.372435 74.185884 
L 111.624864 75.302551 
L 111.680566 76.419217 
L 111.600019 77.535884 
L 111.516822 78.652551 
L 111.606067 79.769218 
L 112.024189 80.885884 
L 112.841704 82.002551 
L 113.997875 83.119218 
L 115.300183 84.235884 
L 116.473457 85.352551 
L 117.241717 86.469218 
L 117.411298 87.585884 
L 116.924188 88.702551 
L 115.865259 89.819218 
L 114.427558 90.935885 
L 112.854955 92.052551 
L 111.384725 93.169218 
L 110.205495 94.285885 
L 109.435011 95.402551 
L 109.114083 96.519218 
L 109.210759 97.635885 
L 109.630893 98.752551 
L 110.234292 99.869218 
L 110.856539 100.985885 
L 111.334776 102.102551 
L 111.532777 103.219218 
L 111.35916 104.335885 
L 110.77385 105.452552 
L 109.781816 106.569218 
L 108.417836 107.685885 
L 106.729331 108.802552 
L 104.764559 109.919218 
L 102.570197 111.035885 
L 100.197267 112.152552 
L 97.710324 113.269218 
L 95.193661 114.385885 
L 92.749948 115.502552 
L 90.489585 116.619219 
L 88.512012 117.735885 
L 86.883415 118.852552 
L 85.618555 119.969219 
L 84.6756 121.085885 
L 83.969303 122.202552 
L 83.399505 123.319219 
z
" style="fill:#1f77b4;fill-opacity:0.3;"/>
   </g>
   <g id="matplotlib.axis_1"/>
   <g id="matplotlib.axis_2">
    <g id="ytick_1">
     <g id="line2d_1">
      <defs>
       <path d="M 0 0 
L -3.5 0 
" id="mf85b745fff" style="stroke:#000000;stroke-width:0.8;"/>
      </defs>
      <g>
       <use style="stroke:#000000;stroke-width:0.8;" x="33.2875" xlink:href="#mf85b745fff" y="123.319219"/>
      </g>
     </g>
     <g id="text_1">
      <!-- 0 -->
      <defs>
       <path d="M 31.78125 66.40625 
Q 24.171875 66.40625 20.328125 58.90625 
Q 16.5 51.421875 16.5 36.375 
Q 16.5 21.390625 20.328125 13.890625 
Q 24.171875 6.390625 31.78125 6.390625 
Q 39.453125 6.390625 43.28125 13.890625 
Q 47.125 21.390625 47.125 36.375 
Q 47.125 51.421875 43.28125 58.90625 
Q 39.453125 66.40625 31.78125 66.40625 
z
M 31.78125 74.21875 
Q 44.046875 74.21875 50.515625 64.515625 
Q 56.984375 54.828125 56.984375 36.375 
Q 56.984375 17.96875 50.515625 8.265625 
Q 44.046875 -1.421875 31.78125 -1.421875 
Q 19.53125 -1.421875 13.0625 8.265625 
Q 6.59375 17.96875 6.59375 36.375 
Q 6.59375 54.828125 13.0625 64.515625 
Q 19.53125 74.21875 31.78125 74.21875 
z
" id="DejaVuSans-30"/>
      </defs>
      <g transform="translate(19.925 127.118437)scale(0.1 -0.1)">
       <use xlink:href="#DejaVuSans-30"/>
      </g>
     </g>
    </g>
    <g id="ytick_2">
     <g id="line2d_2">
      <g>
       <use style="stroke:#000000;stroke-width:0.8;" x="33.2875" xlink:href="#mf85b745fff" y="67.159219"/>
      </g>
     </g>
     <g id="text_2">
      <!-- 150 -->
      <defs>
       <path d="M 12.40625 8.296875 
L 28.515625 8.296875 
L 28.515625 63.921875 
L 10.984375 60.40625 
L 10.984375 69.390625 
L 28.421875 72.90625 
L 38.28125 72.90625 
L 38.28125 8.296875 
L 54.390625 8.296875 
L 54.390625 0 
L 12.40625 0 
z
" id="DejaVuSans-31"/>
       <path d="M 10.796875 72.90625 
L 49.515625 72.90625 
L 49.515625 64.59375 
L 19.828125 64.59375 
L 19.828125 46.734375 
Q 21.96875 47.46875 24.109375 47.828125 
Q 26.265625 48.1875 28.421875 48.1875 
Q 40.625 48.1875 47.75 41.5 
Q 54.890625 34.8125 54.890625 23.390625 
Q 54.890625 11.625 47.5625 5.09375 
Q 40.234375 -1.421875 26.90625 -1.421875 
Q 22.3125 -1.421875 17.546875 -0.640625 
Q 12.796875 0.140625 7.71875 1.703125 
L 7.71875 11.625 
Q 12.109375 9.234375 16.796875 8.0625 
Q 21.484375 6.890625 26.703125 6.890625 
Q 35.15625 6.890625 40.078125 11.328125 
Q 45.015625 15.765625 45.015625 23.390625 
Q 45.015625 31 40.078125 35.4375 
Q 35.15625 39.890625 26.703125 39.890625 
Q 22.75 39.890625 18.8125 39.015625 
Q 14.890625 38.140625 10.796875 36.28125 
z
" id="DejaVuSans-35"/>
      </defs>
      <g transform="translate(7.2 70.958437)scale(0.1 -0.1)">
       <use xlink:href="#DejaVuSans-31"/>
       <use x="63.623047" xlink:href="#DejaVuSans-35"/>
       <use x="127.246094" xlink:href="#DejaVuSans-30"/>
      </g>
     </g>
    </g>
    <g id="ytick_3">
     <g id="line2d_3">
      <g>
       <use style="stroke:#000000;stroke-width:0.8;" x="33.2875" xlink:href="#mf85b745fff" y="10.999219"/>
      </g>
     </g>
     <g id="text_3">
      <!-- 300 -->
      <defs>
       <path d="M 40.578125 39.3125 
Q 47.65625 37.796875 51.625 33 
Q 55.609375 28.21875 55.609375 21.1875 
Q 55.609375 10.40625 48.1875 4.484375 
Q 40.765625 -1.421875 27.09375 -1.421875 
Q 22.515625 -1.421875 17.65625 -0.515625 
Q 12.796875 0.390625 7.625 2.203125 
L 7.625 11.71875 
Q 11.71875 9.328125 16.59375 8.109375 
Q 21.484375 6.890625 26.8125 6.890625 
Q 36.078125 6.890625 40.9375 10.546875 
Q 45.796875 14.203125 45.796875 21.1875 
Q 45.796875 27.640625 41.28125 31.265625 
Q 36.765625 34.90625 28.71875 34.90625 
L 20.21875 34.90625 
L 20.21875 43.015625 
L 29.109375 43.015625 
Q 36.375 43.015625 40.234375 45.921875 
Q 44.09375 48.828125 44.09375 54.296875 
Q 44.09375 59.90625 40.109375 62.90625 
Q 36.140625 65.921875 28.71875 65.921875 
Q 24.65625 65.921875 20.015625 65.03125 
Q 15.375 64.15625 9.8125 62.3125 
L 9.8125 71.09375 
Q 15.4375 72.65625 20.34375 73.4375 
Q 25.25 74.21875 29.59375 74.21875 
Q 40.828125 74.21875 47.359375 69.109375 
Q 53.90625 64.015625 53.90625 55.328125 
Q 53.90625 49.265625 50.4375 45.09375 
Q 46.96875 40.921875 40.578125 39.3125 
z
" id="DejaVuSans-33"/>
      </defs>
      <g transform="translate(7.2 14.798437)scale(0.1 -0.1)">
       <use xlink:href="#DejaVuSans-33"/>
       <use x="63.623047" xlink:href="#DejaVuSans-30"/>
       <use x="127.246094" xlink:href="#DejaVuSans-30"/>
      </g>
     </g>
    </g>
   </g>
   <g id="patch_3">
    <path d="M 33.2875 123.319219 
L 33.2875 10.999219 
" style="fill:none;stroke:#000000;stroke-linecap:square;stroke-linejoin:miter;stroke-width:0.8;"/>
   </g>
   <g id="patch_4">
    <path d="M 33.2875 123.319219 
L 127.0875 123.319219 
" style="fill:none;stroke:#000000;stroke-linecap:square;stroke-linejoin:miter;stroke-width:0.8;"/>
   </g>
  </g>
 </g>
 <defs>
  <clipPath id="p3142e45fe2">
   <rect height="112.32" width="93.8" x="33.2875" y="10.999219"/>
  </clipPath>
 </defs>
</svg>
