<?xml version="1.0" encoding="utf-8" standalone="no"?>
<!DOCTYPE svg PUBLIC "-//W3C//DTD SVG 1.1//EN"
  "http://www.w3.org/Graphics/SVG/1.1/DTD/svg11.dtd">
<!-- Created with matplotlib (http://matplotlib.org/) -->
<svg height="136pt" version="1.1" viewBox="0 0 137 136" width="137pt" xmlns="http://www.w3.org/2000/svg" xmlns:xlink="http://www.w3.org/1999/xlink">
 <defs>
  <style type="text/css">
*{stroke-linecap:butt;stroke-linejoin:round;}
  </style>
 </defs>
 <g id="figure_1">
  <g id="patch_1">
   <path d="M 0 136.398125 
L 137.7875 136.398125 
L 137.7875 0 
L 0 0 
z
" style="fill:#ffffff;"/>
  </g>
  <g id="axes_1">
   <g id="patch_2">
    <path d="M 33.2875 123.319219 
L 127.0875 123.319219 
L 127.0875 10.999219 
L 33.2875 10.999219 
z
" style="fill:#ffffff;"/>
   </g>
   <g id="PolyCollection_1">
    <path clip-path="url(#pd4b7f1a686)" d="M 80.323209 123.319219 
L 68.643077 123.319219 
L 67.212385 122.204553 
L 65.669739 121.089888 
L 63.792474 119.975223 
L 61.403021 118.860557 
L 58.450513 117.745892 
L 55.045623 116.631227 
L 51.434345 115.516562 
L 47.924246 114.401896 
L 44.795619 113.287231 
L 42.232566 112.172566 
L 40.296837 111.0579 
L 38.947551 109.943235 
L 38.091754 108.82857 
L 37.641056 107.713904 
L 37.551136 106.599239 
L 37.831287 105.484574 
L 38.524605 104.369908 
L 39.669986 103.255243 
L 41.261803 102.140578 
L 43.221982 101.025912 
L 45.393729 99.911247 
L 47.558253 98.796582 
L 49.468318 97.681917 
L 50.888335 96.567251 
L 51.631869 95.452586 
L 51.592284 94.337921 
L 50.766191 93.223255 
L 49.268822 92.10859 
L 47.335768 90.993925 
L 45.301785 89.879259 
L 43.55002 88.764594 
L 42.435525 87.649929 
L 42.200842 86.535263 
L 42.910802 85.420598 
L 44.431961 84.305933 
L 46.468142 83.191267 
L 48.642964 82.076602 
L 50.602292 80.961937 
L 52.102605 79.847271 
L 53.058073 78.732606 
L 53.535755 77.617941 
L 53.706838 76.503276 
L 53.775003 75.38861 
L 53.907361 74.273945 
L 54.189395 73.15928 
L 54.615233 72.044614 
L 55.111508 70.929949 
L 55.58096 69.815284 
L 55.945507 68.700618 
L 56.171314 67.585953 
L 56.269396 66.471288 
L 56.278624 65.356622 
L 56.245664 64.241957 
L 56.214033 63.127292 
L 56.224821 62.012626 
L 56.321879 60.897961 
L 56.551407 59.783296 
L 56.951177 58.668631 
L 57.53364 57.553965 
L 58.273165 56.4393 
L 59.10646 55.324635 
L 59.947775 54.209969 
L 60.711978 53.095304 
L 61.334502 51.980639 
L 61.779829 50.865973 
L 62.037278 49.751308 
L 62.109486 48.636643 
L 62.001294 47.521977 
L 61.714309 46.407312 
L 61.247902 45.292647 
L 60.604163 44.177981 
L 59.793822 43.063316 
L 58.841306 41.948651 
L 57.787913 40.833985 
L 56.69166 39.71932 
L 55.622042 38.604655 
L 54.649153 37.48999 
L 53.829777 36.375324 
L 53.195762 35.260659 
L 52.74985 34.145994 
L 52.470589 33.031328 
L 52.323552 31.916663 
L 52.274006 30.801998 
L 52.297564 29.687332 
L 52.388172 28.572667 
L 52.564095 27.458002 
L 52.871194 26.343336 
L 53.380613 25.228671 
L 54.177779 24.114006 
L 55.342658 22.99934 
L 56.925871 21.884675 
L 58.928475 20.77001 
L 61.292756 19.655345 
L 63.907495 18.540679 
L 66.62597 17.426014 
L 69.291061 16.311349 
L 71.760558 15.196683 
L 73.926821 14.082018 
L 75.727432 12.967353 
L 80.323209 12.967353 
L 80.323209 12.967353 
L 80.323209 14.082018 
L 80.323209 15.196683 
L 80.323209 16.311349 
L 80.323209 17.426014 
L 80.323209 18.540679 
L 80.323209 19.655345 
L 80.323209 20.77001 
L 80.323209 21.884675 
L 80.323209 22.99934 
L 80.323209 24.114006 
L 80.323209 25.228671 
L 80.323209 26.343336 
L 80.323209 27.458002 
L 80.323209 28.572667 
L 80.323209 29.687332 
L 80.323209 30.801998 
L 80.323209 31.916663 
L 80.323209 33.031328 
L 80.323209 34.145994 
L 80.323209 35.260659 
L 80.323209 36.375324 
L 80.323209 37.48999 
L 80.323209 38.604655 
L 80.323209 39.71932 
L 80.323209 40.833985 
L 80.323209 41.948651 
L 80.323209 43.063316 
L 80.323209 44.177981 
L 80.323209 45.292647 
L 80.323209 46.407312 
L 80.323209 47.521977 
L 80.323209 48.636643 
L 80.323209 49.751308 
L 80.323209 50.865973 
L 80.323209 51.980639 
L 80.323209 53.095304 
L 80.323209 54.209969 
L 80.323209 55.324635 
L 80.323209 56.4393 
L 80.323209 57.553965 
L 80.323209 58.668631 
L 80.323209 59.783296 
L 80.323209 60.897961 
L 80.323209 62.012626 
L 80.323209 63.127292 
L 80.323209 64.241957 
L 80.323209 65.356622 
L 80.323209 66.471288 
L 80.323209 67.585953 
L 80.323209 68.700618 
L 80.323209 69.815284 
L 80.323209 70.929949 
L 80.323209 72.044614 
L 80.323209 73.15928 
L 80.323209 74.273945 
L 80.323209 75.38861 
L 80.323209 76.503276 
L 80.323209 77.617941 
L 80.323209 78.732606 
L 80.323209 79.847271 
L 80.323209 80.961937 
L 80.323209 82.076602 
L 80.323209 83.191267 
L 80.323209 84.305933 
L 80.323209 85.420598 
L 80.323209 86.535263 
L 80.323209 87.649929 
L 80.323209 88.764594 
L 80.323209 89.879259 
L 80.323209 90.993925 
L 80.323209 92.10859 
L 80.323209 93.223255 
L 80.323209 94.337921 
L 80.323209 95.452586 
L 80.323209 96.567251 
L 80.323209 97.681917 
L 80.323209 98.796582 
L 80.323209 99.911247 
L 80.323209 101.025912 
L 80.323209 102.140578 
L 80.323209 103.255243 
L 80.323209 104.369908 
L 80.323209 105.484574 
L 80.323209 106.599239 
L 80.323209 107.713904 
L 80.323209 108.82857 
L 80.323209 109.943235 
L 80.323209 111.0579 
L 80.323209 112.172566 
L 80.323209 113.287231 
L 80.323209 114.401896 
L 80.323209 115.516562 
L 80.323209 116.631227 
L 80.323209 117.745892 
L 80.323209 118.860557 
L 80.323209 119.975223 
L 80.323209 121.089888 
L 80.323209 122.204553 
L 80.323209 123.319219 
z
" style="fill:#1f77b4;fill-opacity:0.3;"/>
   </g>
   <g id="PolyCollection_2">
    <path clip-path="url(#pd4b7f1a686)" d="M 83.151484 123.319219 
L 80.254952 123.319219 
L 80.254952 122.204606 
L 80.254952 121.089992 
L 80.254952 119.975379 
L 80.254952 118.860766 
L 80.254952 117.746153 
L 80.254952 116.63154 
L 80.254952 115.516927 
L 80.254952 114.402313 
L 80.254952 113.2877 
L 80.254952 112.173087 
L 80.254952 111.058474 
L 80.254952 109.943861 
L 80.254952 108.829248 
L 80.254952 107.714635 
L 80.254952 106.600021 
L 80.254952 105.485408 
L 80.254952 104.370795 
L 80.254952 103.256182 
L 80.254952 102.141569 
L 80.254952 101.026956 
L 80.254952 99.912342 
L 80.254952 98.797729 
L 80.254952 97.683116 
L 80.254952 96.568503 
L 80.254952 95.45389 
L 80.254952 94.339277 
L 80.254952 93.224663 
L 80.254952 92.11005 
L 80.254952 90.995437 
L 80.254952 89.880824 
L 80.254952 88.766211 
L 80.254952 87.651598 
L 80.254952 86.536985 
L 80.254952 85.422371 
L 80.254952 84.307758 
L 80.254952 83.193145 
L 80.254952 82.078532 
L 80.254952 80.963919 
L 80.254952 79.849306 
L 80.254952 78.734692 
L 80.254952 77.620079 
L 80.254952 76.505466 
L 80.254952 75.390853 
L 80.254952 74.27624 
L 80.254952 73.161627 
L 80.254952 72.047013 
L 80.254952 70.9324 
L 80.254952 69.817787 
L 80.254952 68.703174 
L 80.254952 67.588561 
L 80.254952 66.473948 
L 80.254952 65.359335 
L 80.254952 64.244721 
L 80.254952 63.130108 
L 80.254952 62.015495 
L 80.254952 60.900882 
L 80.254952 59.786269 
L 80.254952 58.671656 
L 80.254952 57.557042 
L 80.254952 56.442429 
L 80.254952 55.327816 
L 80.254952 54.213203 
L 80.254952 53.09859 
L 80.254952 51.983977 
L 80.254952 50.869363 
L 80.254952 49.75475 
L 80.254952 48.640137 
L 80.254952 47.525524 
L 80.254952 46.410911 
L 80.254952 45.296298 
L 80.254952 44.181685 
L 80.254952 43.067071 
L 80.254952 41.952458 
L 80.254952 40.837845 
L 80.254952 39.723232 
L 80.254952 38.608619 
L 80.254952 37.494006 
L 80.254952 36.379392 
L 80.254952 35.264779 
L 80.254952 34.150166 
L 80.254952 33.035553 
L 80.254952 31.92094 
L 80.254952 30.806327 
L 80.254952 29.691713 
L 80.254952 28.5771 
L 80.254952 27.462487 
L 80.254952 26.347874 
L 80.254952 25.233261 
L 80.254952 24.118648 
L 80.254952 23.004035 
L 80.254952 21.889421 
L 80.254952 20.774808 
L 80.254952 19.660195 
L 80.254952 18.545582 
L 80.254952 17.430969 
L 80.254952 16.316356 
L 80.254952 15.201742 
L 80.254952 14.087129 
L 80.254952 12.972516 
L 87.952345 12.972516 
L 87.952345 12.972516 
L 91.126012 14.087129 
L 94.881473 15.201742 
L 99.062363 16.316356 
L 103.441658 17.430969 
L 107.754911 18.545582 
L 111.743454 19.660195 
L 115.197177 20.774808 
L 117.986048 21.889421 
L 120.071936 23.004035 
L 121.497787 24.118648 
L 122.358861 25.233261 
L 122.767398 26.347874 
L 122.823864 27.462487 
L 122.603454 28.5771 
L 122.158169 29.691713 
L 121.527679 30.806327 
L 120.750115 31.92094 
L 119.866974 33.035553 
L 118.92138 34.150166 
L 117.952617 35.264779 
L 116.99077 36.379392 
L 116.054259 37.494006 
L 115.151467 38.608619 
L 114.285982 39.723232 
L 113.463172 40.837845 
L 112.694458 41.952458 
L 111.996152 43.067071 
L 111.382886 44.181685 
L 110.859981 45.296298 
L 110.421062 46.410911 
L 110.054231 47.525524 
L 109.753354 48.640137 
L 109.525459 49.75475 
L 109.386008 50.869363 
L 109.341656 51.983977 
L 109.37016 53.09859 
L 109.411991 54.213203 
L 109.383483 55.327816 
L 109.209021 56.442429 
L 108.857318 57.557042 
L 108.362378 58.671656 
L 107.81669 59.786269 
L 107.338781 60.900882 
L 107.031004 62.015495 
L 106.948105 63.130108 
L 107.08993 64.244721 
L 107.417015 65.359335 
L 107.874853 66.473948 
L 108.409809 67.588561 
L 108.968661 68.703174 
L 109.488246 69.817787 
L 109.890962 70.9324 
L 110.098948 72.047013 
L 110.066419 73.161627 
L 109.815186 74.27624 
L 109.452419 75.390853 
L 109.155761 76.505466 
L 109.125165 77.620079 
L 109.515822 78.734692 
L 110.375973 79.849306 
L 111.613816 80.963919 
L 113.008784 82.078532 
L 114.266782 83.193145 
L 115.102019 84.307758 
L 115.317157 85.422371 
L 114.854251 86.536985 
L 113.801253 87.651598 
L 112.356646 88.766211 
L 110.769617 89.880824 
L 109.278656 90.995437 
L 108.067093 92.11005 
L 107.243396 93.224663 
L 106.843112 94.339277 
L 106.84282 95.45389 
L 107.176304 96.568503 
L 107.747545 97.683116 
L 108.440448 98.797729 
L 109.128169 99.912342 
L 109.68466 101.026956 
L 109.998695 102.141569 
L 109.988004 103.256182 
L 109.60938 104.370795 
L 108.860451 105.485408 
L 107.771065 106.600021 
L 106.386746 107.714635 
L 104.751433 108.829248 
L 102.898101 109.943861 
L 100.851946 111.058474 
L 98.643515 112.173087 
L 96.323457 113.2877 
L 93.970118 114.402313 
L 91.685458 115.516927 
L 89.58003 116.63154 
L 87.751206 117.746153 
L 86.260598 118.860766 
L 85.117806 119.975379 
L 84.277667 121.089992 
L 83.654738 122.204606 
L 83.151484 123.319219 
z
" style="fill:#ff7f0e;fill-opacity:0.3;"/>
   </g>
   <g id="matplotlib.axis_1"/>
   <g id="matplotlib.axis_2">
    <g id="ytick_1">
     <g id="line2d_1">
      <defs>
       <path d="M 0 0 
L -3.5 0 
" id="md96bce3c95" style="stroke:#000000;stroke-width:0.8;"/>
      </defs>
      <g>
       <use style="stroke:#000000;stroke-width:0.8;" x="33.2875" xlink:href="#md96bce3c95" y="123.319219"/>
      </g>
     </g>
     <g id="text_1">
      <!-- 0 -->
      <defs>
       <path d="M 31.78125 66.40625 
Q 24.171875 66.40625 20.328125 58.90625 
Q 16.5 51.421875 16.5 36.375 
Q 16.5 21.390625 20.328125 13.890625 
Q 24.171875 6.390625 31.78125 6.390625 
Q 39.453125 6.390625 43.28125 13.890625 
Q 47.125 21.390625 47.125 36.375 
Q 47.125 51.421875 43.28125 58.90625 
Q 39.453125 66.40625 31.78125 66.40625 
z
M 31.78125 74.21875 
Q 44.046875 74.21875 50.515625 64.515625 
Q 56.984375 54.828125 56.984375 36.375 
Q 56.984375 17.96875 50.515625 8.265625 
Q 44.046875 -1.421875 31.78125 -1.421875 
Q 19.53125 -1.421875 13.0625 8.265625 
Q 6.59375 17.96875 6.59375 36.375 
Q 6.59375 54.828125 13.0625 64.515625 
Q 19.53125 74.21875 31.78125 74.21875 
z
" id="DejaVuSans-30"/>
      </defs>
      <g transform="translate(19.925 127.118437)scale(0.1 -0.1)">
       <use xlink:href="#DejaVuSans-30"/>
      </g>
     </g>
    </g>
    <g id="ytick_2">
     <g id="line2d_2">
      <g>
       <use style="stroke:#000000;stroke-width:0.8;" x="33.2875" xlink:href="#md96bce3c95" y="67.159219"/>
      </g>
     </g>
     <g id="text_2">
      <!-- 150 -->
      <defs>
       <path d="M 12.40625 8.296875 
L 28.515625 8.296875 
L 28.515625 63.921875 
L 10.984375 60.40625 
L 10.984375 69.390625 
L 28.421875 72.90625 
L 38.28125 72.90625 
L 38.28125 8.296875 
L 54.390625 8.296875 
L 54.390625 0 
L 12.40625 0 
z
" id="DejaVuSans-31"/>
       <path d="M 10.796875 72.90625 
L 49.515625 72.90625 
L 49.515625 64.59375 
L 19.828125 64.59375 
L 19.828125 46.734375 
Q 21.96875 47.46875 24.109375 47.828125 
Q 26.265625 48.1875 28.421875 48.1875 
Q 40.625 48.1875 47.75 41.5 
Q 54.890625 34.8125 54.890625 23.390625 
Q 54.890625 11.625 47.5625 5.09375 
Q 40.234375 -1.421875 26.90625 -1.421875 
Q 22.3125 -1.421875 17.546875 -0.640625 
Q 12.796875 0.140625 7.71875 1.703125 
L 7.71875 11.625 
Q 12.109375 9.234375 16.796875 8.0625 
Q 21.484375 6.890625 26.703125 6.890625 
Q 35.15625 6.890625 40.078125 11.328125 
Q 45.015625 15.765625 45.015625 23.390625 
Q 45.015625 31 40.078125 35.4375 
Q 35.15625 39.890625 26.703125 39.890625 
Q 22.75 39.890625 18.8125 39.015625 
Q 14.890625 38.140625 10.796875 36.28125 
z
" id="DejaVuSans-35"/>
      </defs>
      <g transform="translate(7.2 70.958437)scale(0.1 -0.1)">
       <use xlink:href="#DejaVuSans-31"/>
       <use x="63.623047" xlink:href="#DejaVuSans-35"/>
       <use x="127.246094" xlink:href="#DejaVuSans-30"/>
      </g>
     </g>
    </g>
    <g id="ytick_3">
     <g id="line2d_3">
      <g>
       <use style="stroke:#000000;stroke-width:0.8;" x="33.2875" xlink:href="#md96bce3c95" y="10.999219"/>
      </g>
     </g>
     <g id="text_3">
      <!-- 300 -->
      <defs>
       <path d="M 40.578125 39.3125 
Q 47.65625 37.796875 51.625 33 
Q 55.609375 28.21875 55.609375 21.1875 
Q 55.609375 10.40625 48.1875 4.484375 
Q 40.765625 -1.421875 27.09375 -1.421875 
Q 22.515625 -1.421875 17.65625 -0.515625 
Q 12.796875 0.390625 7.625 2.203125 
L 7.625 11.71875 
Q 11.71875 9.328125 16.59375 8.109375 
Q 21.484375 6.890625 26.8125 6.890625 
Q 36.078125 6.890625 40.9375 10.546875 
Q 45.796875 14.203125 45.796875 21.1875 
Q 45.796875 27.640625 41.28125 31.265625 
Q 36.765625 34.90625 28.71875 34.90625 
L 20.21875 34.90625 
L 20.21875 43.015625 
L 29.109375 43.015625 
Q 36.375 43.015625 40.234375 45.921875 
Q 44.09375 48.828125 44.09375 54.296875 
Q 44.09375 59.90625 40.109375 62.90625 
Q 36.140625 65.921875 28.71875 65.921875 
Q 24.65625 65.921875 20.015625 65.03125 
Q 15.375 64.15625 9.8125 62.3125 
L 9.8125 71.09375 
Q 15.4375 72.65625 20.34375 73.4375 
Q 25.25 74.21875 29.59375 74.21875 
Q 40.828125 74.21875 47.359375 69.109375 
Q 53.90625 64.015625 53.90625 55.328125 
Q 53.90625 49.265625 50.4375 45.09375 
Q 46.96875 40.921875 40.578125 39.3125 
z
" id="DejaVuSans-33"/>
      </defs>
      <g transform="translate(7.2 14.798437)scale(0.1 -0.1)">
       <use xlink:href="#DejaVuSans-33"/>
       <use x="63.623047" xlink:href="#DejaVuSans-30"/>
       <use x="127.246094" xlink:href="#DejaVuSans-30"/>
      </g>
     </g>
    </g>
   </g>
   <g id="patch_3">
    <path d="M 33.2875 123.319219 
L 33.2875 10.999219 
" style="fill:none;stroke:#000000;stroke-linecap:square;stroke-linejoin:miter;stroke-width:0.8;"/>
   </g>
   <g id="patch_4">
    <path d="M 33.2875 123.319219 
L 127.0875 123.319219 
" style="fill:none;stroke:#000000;stroke-linecap:square;stroke-linejoin:miter;stroke-width:0.8;"/>
   </g>
  </g>
 </g>
 <defs>
  <clipPath id="pd4b7f1a686">
   <rect height="112.32" width="93.8" x="33.2875" y="10.999219"/>
  </clipPath>
 </defs>
</svg>
