<?xml version="1.0" encoding="utf-8" standalone="no"?>
<!DOCTYPE svg PUBLIC "-//W3C//DTD SVG 1.1//EN"
  "http://www.w3.org/Graphics/SVG/1.1/DTD/svg11.dtd">
<!-- Created with matplotlib (http://matplotlib.org/) -->
<svg height="136pt" version="1.1" viewBox="0 0 137 136" width="137pt" xmlns="http://www.w3.org/2000/svg" xmlns:xlink="http://www.w3.org/1999/xlink">
 <defs>
  <style type="text/css">
*{stroke-linecap:butt;stroke-linejoin:round;}
  </style>
 </defs>
 <g id="figure_1">
  <g id="patch_1">
   <path d="M 0 136.398125 
L 137.7875 136.398125 
L 137.7875 0 
L 0 0 
z
" style="fill:#ffffff;"/>
  </g>
  <g id="axes_1">
   <g id="patch_2">
    <path d="M 33.2875 123.319219 
L 127.0875 123.319219 
L 127.0875 10.999219 
L 33.2875 10.999219 
z
" style="fill:#ffffff;"/>
   </g>
   <g id="PolyCollection_1">
    <path clip-path="url(#p20700db113)" d="M 82.579601 123.319219 
L 77.795399 123.319219 
L 77.281649 122.201324 
L 76.617195 121.08343 
L 75.725701 119.965536 
L 74.551694 118.847642 
L 73.084504 117.729747 
L 71.368959 116.611853 
L 69.499758 115.493959 
L 67.602978 114.376065 
L 65.811225 113.25817 
L 64.238615 112.140276 
L 62.960418 111.022382 
L 62.001252 109.904487 
L 61.334658 108.786593 
L 60.894415 107.668699 
L 60.594355 106.550805 
L 60.350488 105.43291 
L 60.098777 104.315016 
L 59.804195 103.197122 
L 59.46043 102.079228 
L 59.082962 100.961333 
L 58.699844 99.843439 
L 58.343709 98.725545 
L 58.045902 97.60765 
L 57.831154 96.489756 
L 57.711102 95.371862 
L 57.67776 94.253968 
L 57.7014 93.136073 
L 57.737579 92.018179 
L 57.743603 90.900285 
L 57.697988 89.782391 
L 57.612604 88.664496 
L 57.529788 87.546602 
L 57.504744 86.428708 
L 57.581838 85.310813 
L 57.776605 84.192919 
L 58.07147 83.075025 
L 58.425389 81.957131 
L 58.790841 80.839236 
L 59.129505 79.721342 
L 59.420651 78.603448 
L 59.66112 77.485553 
L 59.859662 76.367659 
L 60.029704 75.249765 
L 60.183503 74.131871 
L 60.328517 73.013976 
L 60.465217 71.896082 
L 60.585306 70.778188 
L 60.670292 69.660294 
L 60.691398 68.542399 
L 60.612009 67.424505 
L 60.393039 66.306611 
L 60.000459 65.188716 
L 59.413578 64.070822 
L 58.632305 62.952928 
L 57.681327 61.835034 
L 56.608839 60.717139 
L 55.47844 59.599245 
L 54.355407 58.481351 
L 53.29189 57.363457 
L 52.317073 56.245562 
L 51.436541 55.127668 
L 50.640802 54.009774 
L 49.918733 52.891879 
L 49.269663 51.773985 
L 48.708418 50.656091 
L 48.260297 49.538197 
L 47.947183 48.420302 
L 47.770652 47.302408 
L 47.700794 46.184514 
L 47.677767 45.06662 
L 47.62688 43.948725 
L 47.480722 42.830831 
L 47.198309 41.712937 
L 46.773547 40.595042 
L 46.231241 39.477148 
L 45.614287 38.359254 
L 44.96782 37.24136 
L 44.325389 36.123465 
L 43.700334 35.005571 
L 43.083909 33.887677 
L 42.450213 32.769782 
L 41.766747 31.651888 
L 41.008509 30.533994 
L 40.173466 29.4161 
L 39.297514 28.298205 
L 38.466547 27.180311 
L 37.821566 26.062417 
L 37.551136 24.944523 
L 37.866767 23.826628 
L 38.962361 22.708734 
L 40.966781 21.59084 
L 43.903994 20.472945 
L 47.674367 19.355051 
L 52.06367 18.237157 
L 56.777201 17.119263 
L 61.489557 16.001368 
L 65.897745 14.883474 
L 69.765965 13.76558 
L 72.953169 12.647686 
L 87.421831 12.647686 
L 87.421831 12.647686 
L 90.609035 13.76558 
L 94.477255 14.883474 
L 98.885443 16.001368 
L 103.597799 17.119263 
L 108.31133 18.237157 
L 112.700633 19.355051 
L 116.471006 20.472945 
L 119.408219 21.59084 
L 121.412639 22.708734 
L 122.508233 23.826628 
L 122.823864 24.944523 
L 122.553434 26.062417 
L 121.908453 27.180311 
L 121.077486 28.298205 
L 120.201534 29.4161 
L 119.366491 30.533994 
L 118.608253 31.651888 
L 117.924787 32.769782 
L 117.291091 33.887677 
L 116.674666 35.005571 
L 116.049611 36.123465 
L 115.40718 37.24136 
L 114.760713 38.359254 
L 114.143759 39.477148 
L 113.601453 40.595042 
L 113.176691 41.712937 
L 112.894278 42.830831 
L 112.74812 43.948725 
L 112.697233 45.06662 
L 112.674206 46.184514 
L 112.604348 47.302408 
L 112.427817 48.420302 
L 112.114703 49.538197 
L 111.666582 50.656091 
L 111.105337 51.773985 
L 110.456267 52.891879 
L 109.734198 54.009774 
L 108.938459 55.127668 
L 108.057927 56.245562 
L 107.08311 57.363457 
L 106.019593 58.481351 
L 104.89656 59.599245 
L 103.766161 60.717139 
L 102.693673 61.835034 
L 101.742695 62.952928 
L 100.961422 64.070822 
L 100.374541 65.188716 
L 99.981961 66.306611 
L 99.762991 67.424505 
L 99.683602 68.542399 
L 99.704708 69.660294 
L 99.789694 70.778188 
L 99.909783 71.896082 
L 100.046483 73.013976 
L 100.191497 74.131871 
L 100.345296 75.249765 
L 100.515338 76.367659 
L 100.71388 77.485553 
L 100.954349 78.603448 
L 101.245495 79.721342 
L 101.584159 80.839236 
L 101.949611 81.957131 
L 102.30353 83.075025 
L 102.598395 84.192919 
L 102.793162 85.310813 
L 102.870256 86.428708 
L 102.845212 87.546602 
L 102.762396 88.664496 
L 102.677012 89.782391 
L 102.631397 90.900285 
L 102.637421 92.018179 
L 102.6736 93.136073 
L 102.69724 94.253968 
L 102.663898 95.371862 
L 102.543846 96.489756 
L 102.329098 97.60765 
L 102.031291 98.725545 
L 101.675156 99.843439 
L 101.292038 100.961333 
L 100.91457 102.079228 
L 100.570805 103.197122 
L 100.276223 104.315016 
L 100.024512 105.43291 
L 99.780645 106.550805 
L 99.480585 107.668699 
L 99.040342 108.786593 
L 98.373748 109.904487 
L 97.414582 111.022382 
L 96.136385 112.140276 
L 94.563775 113.25817 
L 92.772022 114.376065 
L 90.875242 115.493959 
L 89.006041 116.611853 
L 87.290496 117.729747 
L 85.823306 118.847642 
L 84.649299 119.965536 
L 83.757805 121.08343 
L 83.093351 122.201324 
L 82.579601 123.319219 
z
" style="fill:#1f77b4;fill-opacity:0.3;"/>
   </g>
   <g id="matplotlib.axis_1"/>
   <g id="matplotlib.axis_2">
    <g id="ytick_1">
     <g id="line2d_1">
      <defs>
       <path d="M 0 0 
L -3.5 0 
" id="m19ba25cca2" style="stroke:#000000;stroke-width:0.8;"/>
      </defs>
      <g>
       <use style="stroke:#000000;stroke-width:0.8;" x="33.2875" xlink:href="#m19ba25cca2" y="123.319219"/>
      </g>
     </g>
     <g id="text_1">
      <!-- 0 -->
      <defs>
       <path d="M 31.78125 66.40625 
Q 24.171875 66.40625 20.328125 58.90625 
Q 16.5 51.421875 16.5 36.375 
Q 16.5 21.390625 20.328125 13.890625 
Q 24.171875 6.390625 31.78125 6.390625 
Q 39.453125 6.390625 43.28125 13.890625 
Q 47.125 21.390625 47.125 36.375 
Q 47.125 51.421875 43.28125 58.90625 
Q 39.453125 66.40625 31.78125 66.40625 
z
M 31.78125 74.21875 
Q 44.046875 74.21875 50.515625 64.515625 
Q 56.984375 54.828125 56.984375 36.375 
Q 56.984375 17.96875 50.515625 8.265625 
Q 44.046875 -1.421875 31.78125 -1.421875 
Q 19.53125 -1.421875 13.0625 8.265625 
Q 6.59375 17.96875 6.59375 36.375 
Q 6.59375 54.828125 13.0625 64.515625 
Q 19.53125 74.21875 31.78125 74.21875 
z
" id="DejaVuSans-30"/>
      </defs>
      <g transform="translate(19.925 127.118437)scale(0.1 -0.1)">
       <use xlink:href="#DejaVuSans-30"/>
      </g>
     </g>
    </g>
    <g id="ytick_2">
     <g id="line2d_2">
      <g>
       <use style="stroke:#000000;stroke-width:0.8;" x="33.2875" xlink:href="#m19ba25cca2" y="67.159219"/>
      </g>
     </g>
     <g id="text_2">
      <!-- 150 -->
      <defs>
       <path d="M 12.40625 8.296875 
L 28.515625 8.296875 
L 28.515625 63.921875 
L 10.984375 60.40625 
L 10.984375 69.390625 
L 28.421875 72.90625 
L 38.28125 72.90625 
L 38.28125 8.296875 
L 54.390625 8.296875 
L 54.390625 0 
L 12.40625 0 
z
" id="DejaVuSans-31"/>
       <path d="M 10.796875 72.90625 
L 49.515625 72.90625 
L 49.515625 64.59375 
L 19.828125 64.59375 
L 19.828125 46.734375 
Q 21.96875 47.46875 24.109375 47.828125 
Q 26.265625 48.1875 28.421875 48.1875 
Q 40.625 48.1875 47.75 41.5 
Q 54.890625 34.8125 54.890625 23.390625 
Q 54.890625 11.625 47.5625 5.09375 
Q 40.234375 -1.421875 26.90625 -1.421875 
Q 22.3125 -1.421875 17.546875 -0.640625 
Q 12.796875 0.140625 7.71875 1.703125 
L 7.71875 11.625 
Q 12.109375 9.234375 16.796875 8.0625 
Q 21.484375 6.890625 26.703125 6.890625 
Q 35.15625 6.890625 40.078125 11.328125 
Q 45.015625 15.765625 45.015625 23.390625 
Q 45.015625 31 40.078125 35.4375 
Q 35.15625 39.890625 26.703125 39.890625 
Q 22.75 39.890625 18.8125 39.015625 
Q 14.890625 38.140625 10.796875 36.28125 
z
" id="DejaVuSans-35"/>
      </defs>
      <g transform="translate(7.2 70.958437)scale(0.1 -0.1)">
       <use xlink:href="#DejaVuSans-31"/>
       <use x="63.623047" xlink:href="#DejaVuSans-35"/>
       <use x="127.246094" xlink:href="#DejaVuSans-30"/>
      </g>
     </g>
    </g>
    <g id="ytick_3">
     <g id="line2d_3">
      <g>
       <use style="stroke:#000000;stroke-width:0.8;" x="33.2875" xlink:href="#m19ba25cca2" y="10.999219"/>
      </g>
     </g>
     <g id="text_3">
      <!-- 300 -->
      <defs>
       <path d="M 40.578125 39.3125 
Q 47.65625 37.796875 51.625 33 
Q 55.609375 28.21875 55.609375 21.1875 
Q 55.609375 10.40625 48.1875 4.484375 
Q 40.765625 -1.421875 27.09375 -1.421875 
Q 22.515625 -1.421875 17.65625 -0.515625 
Q 12.796875 0.390625 7.625 2.203125 
L 7.625 11.71875 
Q 11.71875 9.328125 16.59375 8.109375 
Q 21.484375 6.890625 26.8125 6.890625 
Q 36.078125 6.890625 40.9375 10.546875 
Q 45.796875 14.203125 45.796875 21.1875 
Q 45.796875 27.640625 41.28125 31.265625 
Q 36.765625 34.90625 28.71875 34.90625 
L 20.21875 34.90625 
L 20.21875 43.015625 
L 29.109375 43.015625 
Q 36.375 43.015625 40.234375 45.921875 
Q 44.09375 48.828125 44.09375 54.296875 
Q 44.09375 59.90625 40.109375 62.90625 
Q 36.140625 65.921875 28.71875 65.921875 
Q 24.65625 65.921875 20.015625 65.03125 
Q 15.375 64.15625 9.8125 62.3125 
L 9.8125 71.09375 
Q 15.4375 72.65625 20.34375 73.4375 
Q 25.25 74.21875 29.59375 74.21875 
Q 40.828125 74.21875 47.359375 69.109375 
Q 53.90625 64.015625 53.90625 55.328125 
Q 53.90625 49.265625 50.4375 45.09375 
Q 46.96875 40.921875 40.578125 39.3125 
z
" id="DejaVuSans-33"/>
      </defs>
      <g transform="translate(7.2 14.798437)scale(0.1 -0.1)">
       <use xlink:href="#DejaVuSans-33"/>
       <use x="63.623047" xlink:href="#DejaVuSans-30"/>
       <use x="127.246094" xlink:href="#DejaVuSans-30"/>
      </g>
     </g>
    </g>
   </g>
   <g id="patch_3">
    <path d="M 33.2875 123.319219 
L 33.2875 10.999219 
" style="fill:none;stroke:#000000;stroke-linecap:square;stroke-linejoin:miter;stroke-width:0.8;"/>
   </g>
   <g id="patch_4">
    <path d="M 33.2875 123.319219 
L 127.0875 123.319219 
" style="fill:none;stroke:#000000;stroke-linecap:square;stroke-linejoin:miter;stroke-width:0.8;"/>
   </g>
  </g>
 </g>
 <defs>
  <clipPath id="p20700db113">
   <rect height="112.32" width="93.8" x="33.2875" y="10.999219"/>
  </clipPath>
 </defs>
</svg>
