<?xml version="1.0" encoding="utf-8" standalone="no"?>
<!DOCTYPE svg PUBLIC "-//W3C//DTD SVG 1.1//EN"
  "http://www.w3.org/Graphics/SVG/1.1/DTD/svg11.dtd">
<!-- Created with matplotlib (http://matplotlib.org/) -->
<svg height="136pt" version="1.1" viewBox="0 0 137 136" width="137pt" xmlns="http://www.w3.org/2000/svg" xmlns:xlink="http://www.w3.org/1999/xlink">
 <defs>
  <style type="text/css">
*{stroke-linecap:butt;stroke-linejoin:round;}
  </style>
 </defs>
 <g id="figure_1">
  <g id="patch_1">
   <path d="M 0 136.398125 
L 137.7875 136.398125 
L 137.7875 0 
L 0 0 
z
" style="fill:#ffffff;"/>
  </g>
  <g id="axes_1">
   <g id="patch_2">
    <path d="M 33.2875 123.319219 
L 127.0875 123.319219 
L 127.0875 10.999219 
L 33.2875 10.999219 
z
" style="fill:#ffffff;"/>
   </g>
   <g id="PolyCollection_1">
    <path clip-path="url(#pc436601b1f)" d="M 82.427579 123.319219 
L 77.947421 123.319219 
L 77.537149 122.203908 
L 77.010968 121.088598 
L 76.289097 119.973288 
L 75.30494 118.857978 
L 74.03066 117.742667 
L 72.492515 116.627357 
L 70.770953 115.512047 
L 68.986111 114.396736 
L 67.273278 113.281426 
L 65.754769 112.166116 
L 64.515341 111.050806 
L 63.587945 109.935495 
L 62.954209 108.820185 
L 62.559116 107.704875 
L 62.333686 106.589564 
L 62.216326 105.474254 
L 62.165077 104.358944 
L 62.158339 103.243633 
L 62.187407 102.128323 
L 62.246946 101.013013 
L 62.328541 99.897703 
L 62.419089 98.782392 
L 62.502739 97.667082 
L 62.563811 96.551772 
L 62.58883 95.436461 
L 62.567473 94.321151 
L 62.493541 93.205841 
L 62.367037 92.09053 
L 62.197121 90.97522 
L 62.003861 89.85991 
L 61.816104 88.7446 
L 61.66415 87.629289 
L 61.569085 86.513979 
L 61.533355 85.398669 
L 61.537523 84.283358 
L 61.545639 83.168048 
L 61.517702 82.052738 
L 61.424656 80.937428 
L 61.260407 79.822117 
L 61.046526 78.706807 
L 60.827654 77.591497 
L 60.658724 76.476186 
L 60.58818 75.360876 
L 60.643272 74.245566 
L 60.822788 73.130255 
L 61.099063 72.014945 
L 61.426617 70.899635 
L 61.752232 69.784325 
L 62.022162 68.669014 
L 62.18565 67.553704 
L 62.197104 66.438394 
L 62.020184 65.323083 
L 61.635288 64.207773 
L 61.048825 63.092463 
L 60.29999 61.977153 
L 59.459766 60.861842 
L 58.618706 59.746532 
L 57.864689 58.631222 
L 57.25753 57.515911 
L 56.810857 56.400601 
L 56.49004 55.285291 
L 56.228 54.16998 
L 55.952072 53.05467 
L 55.609617 51.93936 
L 55.181079 50.82405 
L 54.676052 49.708739 
L 54.116908 48.593429 
L 53.520565 47.478119 
L 52.888867 46.362808 
L 52.211886 45.247498 
L 51.480227 44.132188 
L 50.697257 43.016878 
L 49.883295 41.901567 
L 49.06966 40.786257 
L 48.286648 39.670947 
L 47.551956 38.555636 
L 46.864285 37.440326 
L 46.203318 36.325016 
L 45.534779 35.209705 
L 44.818582 34.094395 
L 44.018401 32.979085 
L 43.111255 31.863775 
L 42.095915 30.748464 
L 40.999432 29.633154 
L 39.881922 28.517844 
L 38.839935 27.402533 
L 38.007438 26.287223 
L 37.551136 25.171913 
L 37.655546 24.056602 
L 38.495388 22.941292 
L 40.198646 21.825982 
L 42.810055 20.710672 
L 46.267477 19.595361 
L 50.400404 18.480051 
L 54.952329 17.364741 
L 59.621112 16.24943 
L 64.107005 15.13412 
L 68.157277 14.01881 
L 71.59835 12.9035 
L 88.77665 12.9035 
L 88.77665 12.9035 
L 92.217723 14.01881 
L 96.267995 15.13412 
L 100.753888 16.24943 
L 105.422671 17.364741 
L 109.974596 18.480051 
L 114.107523 19.595361 
L 117.564945 20.710672 
L 120.176354 21.825982 
L 121.879612 22.941292 
L 122.719454 24.056602 
L 122.823864 25.171913 
L 122.367562 26.287223 
L 121.535065 27.402533 
L 120.493078 28.517844 
L 119.375568 29.633154 
L 118.279085 30.748464 
L 117.263745 31.863775 
L 116.356599 32.979085 
L 115.556418 34.094395 
L 114.840221 35.209705 
L 114.171682 36.325016 
L 113.510715 37.440326 
L 112.823044 38.555636 
L 112.088352 39.670947 
L 111.30534 40.786257 
L 110.491705 41.901567 
L 109.677743 43.016878 
L 108.894773 44.132188 
L 108.163114 45.247498 
L 107.486133 46.362808 
L 106.854435 47.478119 
L 106.258092 48.593429 
L 105.698948 49.708739 
L 105.193921 50.82405 
L 104.765383 51.93936 
L 104.422928 53.05467 
L 104.147 54.16998 
L 103.88496 55.285291 
L 103.564143 56.400601 
L 103.11747 57.515911 
L 102.510311 58.631222 
L 101.756294 59.746532 
L 100.915234 60.861842 
L 100.07501 61.977153 
L 99.326175 63.092463 
L 98.739712 64.207773 
L 98.354816 65.323083 
L 98.177896 66.438394 
L 98.18935 67.553704 
L 98.352838 68.669014 
L 98.622768 69.784325 
L 98.948383 70.899635 
L 99.275937 72.014945 
L 99.552212 73.130255 
L 99.731728 74.245566 
L 99.78682 75.360876 
L 99.716276 76.476186 
L 99.547346 77.591497 
L 99.328474 78.706807 
L 99.114593 79.822117 
L 98.950344 80.937428 
L 98.857298 82.052738 
L 98.829361 83.168048 
L 98.837477 84.283358 
L 98.841645 85.398669 
L 98.805915 86.513979 
L 98.71085 87.629289 
L 98.558896 88.7446 
L 98.371139 89.85991 
L 98.177879 90.97522 
L 98.007963 92.09053 
L 97.881459 93.205841 
L 97.807527 94.321151 
L 97.78617 95.436461 
L 97.811189 96.551772 
L 97.872261 97.667082 
L 97.955911 98.782392 
L 98.046459 99.897703 
L 98.128054 101.013013 
L 98.187593 102.128323 
L 98.216661 103.243633 
L 98.209923 104.358944 
L 98.158674 105.474254 
L 98.041314 106.589564 
L 97.815884 107.704875 
L 97.420791 108.820185 
L 96.787055 109.935495 
L 95.859659 111.050806 
L 94.620231 112.166116 
L 93.101722 113.281426 
L 91.388889 114.396736 
L 89.604047 115.512047 
L 87.882485 116.627357 
L 86.34434 117.742667 
L 85.07006 118.857978 
L 84.085903 119.973288 
L 83.364032 121.088598 
L 82.837851 122.203908 
L 82.427579 123.319219 
z
" style="fill:#1f77b4;fill-opacity:0.3;"/>
   </g>
   <g id="matplotlib.axis_1"/>
   <g id="matplotlib.axis_2">
    <g id="ytick_1">
     <g id="line2d_1">
      <defs>
       <path d="M 0 0 
L -3.5 0 
" id="m8de668478d" style="stroke:#000000;stroke-width:0.8;"/>
      </defs>
      <g>
       <use style="stroke:#000000;stroke-width:0.8;" x="33.2875" xlink:href="#m8de668478d" y="123.319219"/>
      </g>
     </g>
     <g id="text_1">
      <!-- 0 -->
      <defs>
       <path d="M 31.78125 66.40625 
Q 24.171875 66.40625 20.328125 58.90625 
Q 16.5 51.421875 16.5 36.375 
Q 16.5 21.390625 20.328125 13.890625 
Q 24.171875 6.390625 31.78125 6.390625 
Q 39.453125 6.390625 43.28125 13.890625 
Q 47.125 21.390625 47.125 36.375 
Q 47.125 51.421875 43.28125 58.90625 
Q 39.453125 66.40625 31.78125 66.40625 
z
M 31.78125 74.21875 
Q 44.046875 74.21875 50.515625 64.515625 
Q 56.984375 54.828125 56.984375 36.375 
Q 56.984375 17.96875 50.515625 8.265625 
Q 44.046875 -1.421875 31.78125 -1.421875 
Q 19.53125 -1.421875 13.0625 8.265625 
Q 6.59375 17.96875 6.59375 36.375 
Q 6.59375 54.828125 13.0625 64.515625 
Q 19.53125 74.21875 31.78125 74.21875 
z
" id="DejaVuSans-30"/>
      </defs>
      <g transform="translate(19.925 127.118437)scale(0.1 -0.1)">
       <use xlink:href="#DejaVuSans-30"/>
      </g>
     </g>
    </g>
    <g id="ytick_2">
     <g id="line2d_2">
      <g>
       <use style="stroke:#000000;stroke-width:0.8;" x="33.2875" xlink:href="#m8de668478d" y="67.159219"/>
      </g>
     </g>
     <g id="text_2">
      <!-- 150 -->
      <defs>
       <path d="M 12.40625 8.296875 
L 28.515625 8.296875 
L 28.515625 63.921875 
L 10.984375 60.40625 
L 10.984375 69.390625 
L 28.421875 72.90625 
L 38.28125 72.90625 
L 38.28125 8.296875 
L 54.390625 8.296875 
L 54.390625 0 
L 12.40625 0 
z
" id="DejaVuSans-31"/>
       <path d="M 10.796875 72.90625 
L 49.515625 72.90625 
L 49.515625 64.59375 
L 19.828125 64.59375 
L 19.828125 46.734375 
Q 21.96875 47.46875 24.109375 47.828125 
Q 26.265625 48.1875 28.421875 48.1875 
Q 40.625 48.1875 47.75 41.5 
Q 54.890625 34.8125 54.890625 23.390625 
Q 54.890625 11.625 47.5625 5.09375 
Q 40.234375 -1.421875 26.90625 -1.421875 
Q 22.3125 -1.421875 17.546875 -0.640625 
Q 12.796875 0.140625 7.71875 1.703125 
L 7.71875 11.625 
Q 12.109375 9.234375 16.796875 8.0625 
Q 21.484375 6.890625 26.703125 6.890625 
Q 35.15625 6.890625 40.078125 11.328125 
Q 45.015625 15.765625 45.015625 23.390625 
Q 45.015625 31 40.078125 35.4375 
Q 35.15625 39.890625 26.703125 39.890625 
Q 22.75 39.890625 18.8125 39.015625 
Q 14.890625 38.140625 10.796875 36.28125 
z
" id="DejaVuSans-35"/>
      </defs>
      <g transform="translate(7.2 70.958437)scale(0.1 -0.1)">
       <use xlink:href="#DejaVuSans-31"/>
       <use x="63.623047" xlink:href="#DejaVuSans-35"/>
       <use x="127.246094" xlink:href="#DejaVuSans-30"/>
      </g>
     </g>
    </g>
    <g id="ytick_3">
     <g id="line2d_3">
      <g>
       <use style="stroke:#000000;stroke-width:0.8;" x="33.2875" xlink:href="#m8de668478d" y="10.999219"/>
      </g>
     </g>
     <g id="text_3">
      <!-- 300 -->
      <defs>
       <path d="M 40.578125 39.3125 
Q 47.65625 37.796875 51.625 33 
Q 55.609375 28.21875 55.609375 21.1875 
Q 55.609375 10.40625 48.1875 4.484375 
Q 40.765625 -1.421875 27.09375 -1.421875 
Q 22.515625 -1.421875 17.65625 -0.515625 
Q 12.796875 0.390625 7.625 2.203125 
L 7.625 11.71875 
Q 11.71875 9.328125 16.59375 8.109375 
Q 21.484375 6.890625 26.8125 6.890625 
Q 36.078125 6.890625 40.9375 10.546875 
Q 45.796875 14.203125 45.796875 21.1875 
Q 45.796875 27.640625 41.28125 31.265625 
Q 36.765625 34.90625 28.71875 34.90625 
L 20.21875 34.90625 
L 20.21875 43.015625 
L 29.109375 43.015625 
Q 36.375 43.015625 40.234375 45.921875 
Q 44.09375 48.828125 44.09375 54.296875 
Q 44.09375 59.90625 40.109375 62.90625 
Q 36.140625 65.921875 28.71875 65.921875 
Q 24.65625 65.921875 20.015625 65.03125 
Q 15.375 64.15625 9.8125 62.3125 
L 9.8125 71.09375 
Q 15.4375 72.65625 20.34375 73.4375 
Q 25.25 74.21875 29.59375 74.21875 
Q 40.828125 74.21875 47.359375 69.109375 
Q 53.90625 64.015625 53.90625 55.328125 
Q 53.90625 49.265625 50.4375 45.09375 
Q 46.96875 40.921875 40.578125 39.3125 
z
" id="DejaVuSans-33"/>
      </defs>
      <g transform="translate(7.2 14.798437)scale(0.1 -0.1)">
       <use xlink:href="#DejaVuSans-33"/>
       <use x="63.623047" xlink:href="#DejaVuSans-30"/>
       <use x="127.246094" xlink:href="#DejaVuSans-30"/>
      </g>
     </g>
    </g>
   </g>
   <g id="patch_3">
    <path d="M 33.2875 123.319219 
L 33.2875 10.999219 
" style="fill:none;stroke:#000000;stroke-linecap:square;stroke-linejoin:miter;stroke-width:0.8;"/>
   </g>
   <g id="patch_4">
    <path d="M 33.2875 123.319219 
L 127.0875 123.319219 
" style="fill:none;stroke:#000000;stroke-linecap:square;stroke-linejoin:miter;stroke-width:0.8;"/>
   </g>
  </g>
 </g>
 <defs>
  <clipPath id="pc436601b1f">
   <rect height="112.32" width="93.8" x="33.2875" y="10.999219"/>
  </clipPath>
 </defs>
</svg>
