<?xml version="1.0" encoding="utf-8" standalone="no"?>
<!DOCTYPE svg PUBLIC "-//W3C//DTD SVG 1.1//EN"
  "http://www.w3.org/Graphics/SVG/1.1/DTD/svg11.dtd">
<!-- Created with matplotlib (http://matplotlib.org/) -->
<svg height="136pt" version="1.1" viewBox="0 0 137 136" width="137pt" xmlns="http://www.w3.org/2000/svg" xmlns:xlink="http://www.w3.org/1999/xlink">
 <defs>
  <style type="text/css">
*{stroke-linecap:butt;stroke-linejoin:round;}
  </style>
 </defs>
 <g id="figure_1">
  <g id="patch_1">
   <path d="M 0 136.398125 
L 137.7875 136.398125 
L 137.7875 0 
L 0 0 
z
" style="fill:#ffffff;"/>
  </g>
  <g id="axes_1">
   <g id="patch_2">
    <path d="M 33.2875 123.319219 
L 127.0875 123.319219 
L 127.0875 10.999219 
L 33.2875 10.999219 
z
" style="fill:#ffffff;"/>
   </g>
   <g id="PolyCollection_1">
    <path clip-path="url(#p0564d00ca9)" d="M 82.332195 123.319219 
L 78.042805 123.319219 
L 77.67039 122.202426 
L 77.199977 121.085633 
L 76.556913 119.96884 
L 75.677305 118.852047 
L 74.53122 117.735254 
L 73.136164 116.618461 
L 71.556984 115.501668 
L 69.893815 114.384875 
L 68.262678 113.268082 
L 66.773754 112.151289 
L 65.51184 111.034496 
L 64.523102 109.917703 
L 63.811399 108.800911 
L 63.345028 107.684118 
L 63.071067 106.567325 
L 62.931556 105.450532 
L 62.87569 104.333739 
L 62.865117 103.216946 
L 62.873419 102.100153 
L 62.883245 100.98336 
L 62.884298 99.866567 
L 62.873158 98.749774 
L 62.853757 97.632981 
L 62.836504 96.516188 
L 62.834911 95.399395 
L 62.860227 94.282602 
L 62.91612 93.165809 
L 62.996008 92.049016 
L 63.084764 90.932224 
L 63.164596 89.815431 
L 63.222608 88.698638 
L 63.256305 87.581845 
L 63.27391 86.465052 
L 63.288799 85.348259 
L 63.310436 84.231466 
L 63.336201 83.114673 
L 63.34831 81.99788 
L 63.31774 80.881087 
L 63.213985 79.764294 
L 63.017175 78.647501 
L 62.728313 77.530708 
L 62.374083 76.413915 
L 62.004086 75.297122 
L 61.680378 74.180329 
L 61.461553 73.063537 
L 61.385997 71.946744 
L 61.459954 70.829951 
L 61.65465 69.713158 
L 61.913235 68.596365 
L 62.164485 67.479572 
L 62.338258 66.362779 
L 62.378476 65.245986 
L 62.251587 64.129193 
L 61.950441 63.0124 
L 61.493925 61.895607 
L 60.922334 60.778814 
L 60.288391 59.662021 
L 59.645026 58.545228 
L 59.032893 57.428435 
L 58.471652 56.311642 
L 57.958164 55.194849 
L 57.472042 54.078057 
L 56.985852 52.961264 
L 56.47541 51.844471 
L 55.925908 50.727678 
L 55.332026 49.610885 
L 54.693515 48.494092 
L 54.010321 47.377299 
L 53.28131 46.260506 
L 52.507771 45.143713 
L 51.6988 44.02692 
L 50.873606 42.910127 
L 50.057487 41.793334 
L 49.272596 40.676541 
L 48.528209 39.559748 
L 47.815512 38.442955 
L 47.10914 37.326162 
L 46.374346 36.20937 
L 45.576795 35.092577 
L 44.691906 33.975784 
L 43.711657 32.858991 
L 42.647842 31.742198 
L 41.532062 30.625405 
L 40.413988 29.508612 
L 39.360312 28.391819 
L 38.456279 27.275026 
L 37.80935 26.158233 
L 37.551136 25.04144 
L 37.831607 23.924647 
L 38.800809 22.807854 
L 40.578465 21.691061 
L 43.218462 20.574268 
L 46.679634 19.457475 
L 50.814024 18.340683 
L 55.378962 17.22389 
L 60.072106 16.107097 
L 64.581565 14.990304 
L 68.638368 13.873511 
L 72.0575 12.756718 
L 88.3175 12.756718 
L 88.3175 12.756718 
L 91.736632 13.873511 
L 95.793435 14.990304 
L 100.302894 16.107097 
L 104.996038 17.22389 
L 109.560976 18.340683 
L 113.695366 19.457475 
L 117.156538 20.574268 
L 119.796535 21.691061 
L 121.574191 22.807854 
L 122.543393 23.924647 
L 122.823864 25.04144 
L 122.56565 26.158233 
L 121.918721 27.275026 
L 121.014688 28.391819 
L 119.961012 29.508612 
L 118.842938 30.625405 
L 117.727158 31.742198 
L 116.663343 32.858991 
L 115.683094 33.975784 
L 114.798205 35.092577 
L 114.000654 36.20937 
L 113.26586 37.326162 
L 112.559488 38.442955 
L 111.846791 39.559748 
L 111.102404 40.676541 
L 110.317513 41.793334 
L 109.501394 42.910127 
L 108.6762 44.02692 
L 107.867229 45.143713 
L 107.09369 46.260506 
L 106.364679 47.377299 
L 105.681485 48.494092 
L 105.042974 49.610885 
L 104.449092 50.727678 
L 103.89959 51.844471 
L 103.389148 52.961264 
L 102.902958 54.078057 
L 102.416836 55.194849 
L 101.903348 56.311642 
L 101.342107 57.428435 
L 100.729974 58.545228 
L 100.086609 59.662021 
L 99.452666 60.778814 
L 98.881075 61.895607 
L 98.424559 63.0124 
L 98.123413 64.129193 
L 97.996524 65.245986 
L 98.036742 66.362779 
L 98.210515 67.479572 
L 98.461765 68.596365 
L 98.72035 69.713158 
L 98.915046 70.829951 
L 98.989003 71.946744 
L 98.913447 73.063537 
L 98.694622 74.180329 
L 98.370914 75.297122 
L 98.000917 76.413915 
L 97.646687 77.530708 
L 97.357825 78.647501 
L 97.161015 79.764294 
L 97.05726 80.881087 
L 97.02669 81.99788 
L 97.038799 83.114673 
L 97.064564 84.231466 
L 97.086201 85.348259 
L 97.10109 86.465052 
L 97.118695 87.581845 
L 97.152392 88.698638 
L 97.210404 89.815431 
L 97.290236 90.932224 
L 97.378992 92.049016 
L 97.45888 93.165809 
L 97.514773 94.282602 
L 97.540089 95.399395 
L 97.538496 96.516188 
L 97.521243 97.632981 
L 97.501842 98.749774 
L 97.490702 99.866567 
L 97.491755 100.98336 
L 97.501581 102.100153 
L 97.509883 103.216946 
L 97.49931 104.333739 
L 97.443444 105.450532 
L 97.303933 106.567325 
L 97.029972 107.684118 
L 96.563601 108.800911 
L 95.851898 109.917703 
L 94.86316 111.034496 
L 93.601246 112.151289 
L 92.112322 113.268082 
L 90.481185 114.384875 
L 88.818016 115.501668 
L 87.238836 116.618461 
L 85.84378 117.735254 
L 84.697695 118.852047 
L 83.818087 119.96884 
L 83.175023 121.085633 
L 82.70461 122.202426 
L 82.332195 123.319219 
z
" style="fill:#1f77b4;fill-opacity:0.3;"/>
   </g>
   <g id="matplotlib.axis_1"/>
   <g id="matplotlib.axis_2">
    <g id="ytick_1">
     <g id="line2d_1">
      <defs>
       <path d="M 0 0 
L -3.5 0 
" id="m8747b90fd8" style="stroke:#000000;stroke-width:0.8;"/>
      </defs>
      <g>
       <use style="stroke:#000000;stroke-width:0.8;" x="33.2875" xlink:href="#m8747b90fd8" y="123.319219"/>
      </g>
     </g>
     <g id="text_1">
      <!-- 0 -->
      <defs>
       <path d="M 31.78125 66.40625 
Q 24.171875 66.40625 20.328125 58.90625 
Q 16.5 51.421875 16.5 36.375 
Q 16.5 21.390625 20.328125 13.890625 
Q 24.171875 6.390625 31.78125 6.390625 
Q 39.453125 6.390625 43.28125 13.890625 
Q 47.125 21.390625 47.125 36.375 
Q 47.125 51.421875 43.28125 58.90625 
Q 39.453125 66.40625 31.78125 66.40625 
z
M 31.78125 74.21875 
Q 44.046875 74.21875 50.515625 64.515625 
Q 56.984375 54.828125 56.984375 36.375 
Q 56.984375 17.96875 50.515625 8.265625 
Q 44.046875 -1.421875 31.78125 -1.421875 
Q 19.53125 -1.421875 13.0625 8.265625 
Q 6.59375 17.96875 6.59375 36.375 
Q 6.59375 54.828125 13.0625 64.515625 
Q 19.53125 74.21875 31.78125 74.21875 
z
" id="DejaVuSans-30"/>
      </defs>
      <g transform="translate(19.925 127.118437)scale(0.1 -0.1)">
       <use xlink:href="#DejaVuSans-30"/>
      </g>
     </g>
    </g>
    <g id="ytick_2">
     <g id="line2d_2">
      <g>
       <use style="stroke:#000000;stroke-width:0.8;" x="33.2875" xlink:href="#m8747b90fd8" y="67.159219"/>
      </g>
     </g>
     <g id="text_2">
      <!-- 150 -->
      <defs>
       <path d="M 12.40625 8.296875 
L 28.515625 8.296875 
L 28.515625 63.921875 
L 10.984375 60.40625 
L 10.984375 69.390625 
L 28.421875 72.90625 
L 38.28125 72.90625 
L 38.28125 8.296875 
L 54.390625 8.296875 
L 54.390625 0 
L 12.40625 0 
z
" id="DejaVuSans-31"/>
       <path d="M 10.796875 72.90625 
L 49.515625 72.90625 
L 49.515625 64.59375 
L 19.828125 64.59375 
L 19.828125 46.734375 
Q 21.96875 47.46875 24.109375 47.828125 
Q 26.265625 48.1875 28.421875 48.1875 
Q 40.625 48.1875 47.75 41.5 
Q 54.890625 34.8125 54.890625 23.390625 
Q 54.890625 11.625 47.5625 5.09375 
Q 40.234375 -1.421875 26.90625 -1.421875 
Q 22.3125 -1.421875 17.546875 -0.640625 
Q 12.796875 0.140625 7.71875 1.703125 
L 7.71875 11.625 
Q 12.109375 9.234375 16.796875 8.0625 
Q 21.484375 6.890625 26.703125 6.890625 
Q 35.15625 6.890625 40.078125 11.328125 
Q 45.015625 15.765625 45.015625 23.390625 
Q 45.015625 31 40.078125 35.4375 
Q 35.15625 39.890625 26.703125 39.890625 
Q 22.75 39.890625 18.8125 39.015625 
Q 14.890625 38.140625 10.796875 36.28125 
z
" id="DejaVuSans-35"/>
      </defs>
      <g transform="translate(7.2 70.958437)scale(0.1 -0.1)">
       <use xlink:href="#DejaVuSans-31"/>
       <use x="63.623047" xlink:href="#DejaVuSans-35"/>
       <use x="127.246094" xlink:href="#DejaVuSans-30"/>
      </g>
     </g>
    </g>
    <g id="ytick_3">
     <g id="line2d_3">
      <g>
       <use style="stroke:#000000;stroke-width:0.8;" x="33.2875" xlink:href="#m8747b90fd8" y="10.999219"/>
      </g>
     </g>
     <g id="text_3">
      <!-- 300 -->
      <defs>
       <path d="M 40.578125 39.3125 
Q 47.65625 37.796875 51.625 33 
Q 55.609375 28.21875 55.609375 21.1875 
Q 55.609375 10.40625 48.1875 4.484375 
Q 40.765625 -1.421875 27.09375 -1.421875 
Q 22.515625 -1.421875 17.65625 -0.515625 
Q 12.796875 0.390625 7.625 2.203125 
L 7.625 11.71875 
Q 11.71875 9.328125 16.59375 8.109375 
Q 21.484375 6.890625 26.8125 6.890625 
Q 36.078125 6.890625 40.9375 10.546875 
Q 45.796875 14.203125 45.796875 21.1875 
Q 45.796875 27.640625 41.28125 31.265625 
Q 36.765625 34.90625 28.71875 34.90625 
L 20.21875 34.90625 
L 20.21875 43.015625 
L 29.109375 43.015625 
Q 36.375 43.015625 40.234375 45.921875 
Q 44.09375 48.828125 44.09375 54.296875 
Q 44.09375 59.90625 40.109375 62.90625 
Q 36.140625 65.921875 28.71875 65.921875 
Q 24.65625 65.921875 20.015625 65.03125 
Q 15.375 64.15625 9.8125 62.3125 
L 9.8125 71.09375 
Q 15.4375 72.65625 20.34375 73.4375 
Q 25.25 74.21875 29.59375 74.21875 
Q 40.828125 74.21875 47.359375 69.109375 
Q 53.90625 64.015625 53.90625 55.328125 
Q 53.90625 49.265625 50.4375 45.09375 
Q 46.96875 40.921875 40.578125 39.3125 
z
" id="DejaVuSans-33"/>
      </defs>
      <g transform="translate(7.2 14.798437)scale(0.1 -0.1)">
       <use xlink:href="#DejaVuSans-33"/>
       <use x="63.623047" xlink:href="#DejaVuSans-30"/>
       <use x="127.246094" xlink:href="#DejaVuSans-30"/>
      </g>
     </g>
    </g>
   </g>
   <g id="patch_3">
    <path d="M 33.2875 123.319219 
L 33.2875 10.999219 
" style="fill:none;stroke:#000000;stroke-linecap:square;stroke-linejoin:miter;stroke-width:0.8;"/>
   </g>
   <g id="patch_4">
    <path d="M 33.2875 123.319219 
L 127.0875 123.319219 
" style="fill:none;stroke:#000000;stroke-linecap:square;stroke-linejoin:miter;stroke-width:0.8;"/>
   </g>
  </g>
 </g>
 <defs>
  <clipPath id="p0564d00ca9">
   <rect height="112.32" width="93.8" x="33.2875" y="10.999219"/>
  </clipPath>
 </defs>
</svg>
