<?xml version="1.0" encoding="utf-8" standalone="no"?>
<!DOCTYPE svg PUBLIC "-//W3C//DTD SVG 1.1//EN"
  "http://www.w3.org/Graphics/SVG/1.1/DTD/svg11.dtd">
<!-- Created with matplotlib (http://matplotlib.org/) -->
<svg height="136pt" version="1.1" viewBox="0 0 137 136" width="137pt" xmlns="http://www.w3.org/2000/svg" xmlns:xlink="http://www.w3.org/1999/xlink">
 <defs>
  <style type="text/css">
*{stroke-linecap:butt;stroke-linejoin:round;}
  </style>
 </defs>
 <g id="figure_1">
  <g id="patch_1">
   <path d="M 0 136.398125 
L 137.7875 136.398125 
L 137.7875 0 
L 0 0 
z
" style="fill:#ffffff;"/>
  </g>
  <g id="axes_1">
   <g id="patch_2">
    <path d="M 33.2875 123.319219 
L 127.0875 123.319219 
L 127.0875 10.999219 
L 33.2875 10.999219 
z
" style="fill:#ffffff;"/>
   </g>
   <g id="PolyCollection_1">
    <path clip-path="url(#pd5de8557fc)" d="M 82.274842 123.319219 
L 78.100158 123.319219 
L 77.654918 122.201165 
L 77.080925 121.083111 
L 76.312866 119.965057 
L 75.302863 118.847003 
L 74.040542 117.728949 
L 72.561765 116.610894 
L 70.943708 115.49284 
L 69.289696 114.374786 
L 67.709667 113.256732 
L 66.301339 112.138678 
L 65.135207 111.020624 
L 64.245388 109.90257 
L 63.62779 108.784516 
L 63.246043 107.666462 
L 63.043506 106.548408 
L 62.957545 105.430354 
L 62.931809 104.3123 
L 62.923681 103.194246 
L 62.90657 102.076192 
L 62.868542 100.958138 
L 62.809205 99.840084 
L 62.736132 98.72203 
L 62.661314 97.603976 
L 62.597842 96.485922 
L 62.557083 95.367868 
L 62.546718 94.249814 
L 62.569801 93.131759 
L 62.624644 92.013705 
L 62.705071 90.895651 
L 62.800741 89.777597 
L 62.897605 88.659543 
L 62.978918 87.541489 
L 63.027027 86.423435 
L 63.025709 85.305381 
L 62.96236 84.187327 
L 62.829546 83.069273 
L 62.626068 81.951219 
L 62.358261 80.833165 
L 62.041856 79.715111 
L 61.703571 78.597057 
L 61.380459 77.479003 
L 61.115291 76.360949 
L 60.94809 75.242895 
L 60.906286 74.124841 
L 60.997122 73.006787 
L 61.204969 71.888733 
L 61.493887 70.770679 
L 61.813782 69.652625 
L 62.107898 68.53457 
L 62.320069 67.416516 
L 62.401135 66.298462 
L 62.314599 65.180408 
L 62.041748 64.062354 
L 61.586152 62.9443 
L 60.976565 61.826246 
L 60.265978 60.708192 
L 59.524158 59.590138 
L 58.822725 58.472084 
L 58.215894 57.35403 
L 57.724079 56.235976 
L 57.328353 55.117922 
L 56.979308 53.999868 
L 56.616452 52.881814 
L 56.188566 51.76376 
L 55.665639 50.645706 
L 55.038883 49.527652 
L 54.312794 48.409598 
L 53.497072 47.291544 
L 52.604203 46.17349 
L 51.652708 45.055435 
L 50.670942 43.937381 
L 49.695528 42.819327 
L 48.762414 41.701273 
L 47.894203 40.583219 
L 47.090871 39.465165 
L 46.329926 38.347111 
L 45.577014 37.229057 
L 44.801959 36.111003 
L 43.991793 34.992949 
L 43.153731 33.874895 
L 42.306892 32.756841 
L 41.468571 31.638787 
L 40.644999 30.520733 
L 39.834877 29.402679 
L 39.047253 28.284625 
L 38.326915 27.166571 
L 37.774834 26.048517 
L 37.551136 24.930463 
L 37.854152 23.812409 
L 38.878624 22.694355 
L 40.765247 21.576301 
L 43.557813 20.458246 
L 47.181505 19.340192 
L 51.448071 18.222138 
L 56.084949 17.104084 
L 60.779836 15.98603 
L 65.230322 14.867976 
L 69.188738 13.749922 
L 72.493719 12.631868 
L 87.881281 12.631868 
L 87.881281 12.631868 
L 91.186262 13.749922 
L 95.144678 14.867976 
L 99.595164 15.98603 
L 104.290051 17.104084 
L 108.926929 18.222138 
L 113.193495 19.340192 
L 116.817187 20.458246 
L 119.609753 21.576301 
L 121.496376 22.694355 
L 122.520848 23.812409 
L 122.823864 24.930463 
L 122.600166 26.048517 
L 122.048085 27.166571 
L 121.327747 28.284625 
L 120.540123 29.402679 
L 119.730001 30.520733 
L 118.906429 31.638787 
L 118.068108 32.756841 
L 117.221269 33.874895 
L 116.383207 34.992949 
L 115.573041 36.111003 
L 114.797986 37.229057 
L 114.045074 38.347111 
L 113.284129 39.465165 
L 112.480797 40.583219 
L 111.612586 41.701273 
L 110.679472 42.819327 
L 109.704058 43.937381 
L 108.722292 45.055435 
L 107.770797 46.17349 
L 106.877928 47.291544 
L 106.062206 48.409598 
L 105.336117 49.527652 
L 104.709361 50.645706 
L 104.186434 51.76376 
L 103.758548 52.881814 
L 103.395692 53.999868 
L 103.046647 55.117922 
L 102.650921 56.235976 
L 102.159106 57.35403 
L 101.552275 58.472084 
L 100.850842 59.590138 
L 100.109022 60.708192 
L 99.398435 61.826246 
L 98.788848 62.9443 
L 98.333252 64.062354 
L 98.060401 65.180408 
L 97.973865 66.298462 
L 98.054931 67.416516 
L 98.267102 68.53457 
L 98.561218 69.652625 
L 98.881113 70.770679 
L 99.170031 71.888733 
L 99.377878 73.006787 
L 99.468714 74.124841 
L 99.42691 75.242895 
L 99.259709 76.360949 
L 98.994541 77.479003 
L 98.671429 78.597057 
L 98.333144 79.715111 
L 98.016739 80.833165 
L 97.748932 81.951219 
L 97.545454 83.069273 
L 97.41264 84.187327 
L 97.349291 85.305381 
L 97.347973 86.423435 
L 97.396082 87.541489 
L 97.477395 88.659543 
L 97.574259 89.777597 
L 97.669929 90.895651 
L 97.750356 92.013705 
L 97.805199 93.131759 
L 97.828282 94.249814 
L 97.817917 95.367868 
L 97.777158 96.485922 
L 97.713686 97.603976 
L 97.638868 98.72203 
L 97.565795 99.840084 
L 97.506458 100.958138 
L 97.46843 102.076192 
L 97.451319 103.194246 
L 97.443191 104.3123 
L 97.417455 105.430354 
L 97.331494 106.548408 
L 97.128957 107.666462 
L 96.74721 108.784516 
L 96.129612 109.90257 
L 95.239793 111.020624 
L 94.073661 112.138678 
L 92.665333 113.256732 
L 91.085304 114.374786 
L 89.431292 115.49284 
L 87.813235 116.610894 
L 86.334458 117.728949 
L 85.072137 118.847003 
L 84.062134 119.965057 
L 83.294075 121.083111 
L 82.720082 122.201165 
L 82.274842 123.319219 
z
" style="fill:#1f77b4;fill-opacity:0.3;"/>
   </g>
   <g id="matplotlib.axis_1"/>
   <g id="matplotlib.axis_2">
    <g id="ytick_1">
     <g id="line2d_1">
      <defs>
       <path d="M 0 0 
L -3.5 0 
" id="m506e794cb1" style="stroke:#000000;stroke-width:0.8;"/>
      </defs>
      <g>
       <use style="stroke:#000000;stroke-width:0.8;" x="33.2875" xlink:href="#m506e794cb1" y="123.319219"/>
      </g>
     </g>
     <g id="text_1">
      <!-- 0 -->
      <defs>
       <path d="M 31.78125 66.40625 
Q 24.171875 66.40625 20.328125 58.90625 
Q 16.5 51.421875 16.5 36.375 
Q 16.5 21.390625 20.328125 13.890625 
Q 24.171875 6.390625 31.78125 6.390625 
Q 39.453125 6.390625 43.28125 13.890625 
Q 47.125 21.390625 47.125 36.375 
Q 47.125 51.421875 43.28125 58.90625 
Q 39.453125 66.40625 31.78125 66.40625 
z
M 31.78125 74.21875 
Q 44.046875 74.21875 50.515625 64.515625 
Q 56.984375 54.828125 56.984375 36.375 
Q 56.984375 17.96875 50.515625 8.265625 
Q 44.046875 -1.421875 31.78125 -1.421875 
Q 19.53125 -1.421875 13.0625 8.265625 
Q 6.59375 17.96875 6.59375 36.375 
Q 6.59375 54.828125 13.0625 64.515625 
Q 19.53125 74.21875 31.78125 74.21875 
z
" id="DejaVuSans-30"/>
      </defs>
      <g transform="translate(19.925 127.118437)scale(0.1 -0.1)">
       <use xlink:href="#DejaVuSans-30"/>
      </g>
     </g>
    </g>
    <g id="ytick_2">
     <g id="line2d_2">
      <g>
       <use style="stroke:#000000;stroke-width:0.8;" x="33.2875" xlink:href="#m506e794cb1" y="67.159219"/>
      </g>
     </g>
     <g id="text_2">
      <!-- 150 -->
      <defs>
       <path d="M 12.40625 8.296875 
L 28.515625 8.296875 
L 28.515625 63.921875 
L 10.984375 60.40625 
L 10.984375 69.390625 
L 28.421875 72.90625 
L 38.28125 72.90625 
L 38.28125 8.296875 
L 54.390625 8.296875 
L 54.390625 0 
L 12.40625 0 
z
" id="DejaVuSans-31"/>
       <path d="M 10.796875 72.90625 
L 49.515625 72.90625 
L 49.515625 64.59375 
L 19.828125 64.59375 
L 19.828125 46.734375 
Q 21.96875 47.46875 24.109375 47.828125 
Q 26.265625 48.1875 28.421875 48.1875 
Q 40.625 48.1875 47.75 41.5 
Q 54.890625 34.8125 54.890625 23.390625 
Q 54.890625 11.625 47.5625 5.09375 
Q 40.234375 -1.421875 26.90625 -1.421875 
Q 22.3125 -1.421875 17.546875 -0.640625 
Q 12.796875 0.140625 7.71875 1.703125 
L 7.71875 11.625 
Q 12.109375 9.234375 16.796875 8.0625 
Q 21.484375 6.890625 26.703125 6.890625 
Q 35.15625 6.890625 40.078125 11.328125 
Q 45.015625 15.765625 45.015625 23.390625 
Q 45.015625 31 40.078125 35.4375 
Q 35.15625 39.890625 26.703125 39.890625 
Q 22.75 39.890625 18.8125 39.015625 
Q 14.890625 38.140625 10.796875 36.28125 
z
" id="DejaVuSans-35"/>
      </defs>
      <g transform="translate(7.2 70.958437)scale(0.1 -0.1)">
       <use xlink:href="#DejaVuSans-31"/>
       <use x="63.623047" xlink:href="#DejaVuSans-35"/>
       <use x="127.246094" xlink:href="#DejaVuSans-30"/>
      </g>
     </g>
    </g>
    <g id="ytick_3">
     <g id="line2d_3">
      <g>
       <use style="stroke:#000000;stroke-width:0.8;" x="33.2875" xlink:href="#m506e794cb1" y="10.999219"/>
      </g>
     </g>
     <g id="text_3">
      <!-- 300 -->
      <defs>
       <path d="M 40.578125 39.3125 
Q 47.65625 37.796875 51.625 33 
Q 55.609375 28.21875 55.609375 21.1875 
Q 55.609375 10.40625 48.1875 4.484375 
Q 40.765625 -1.421875 27.09375 -1.421875 
Q 22.515625 -1.421875 17.65625 -0.515625 
Q 12.796875 0.390625 7.625 2.203125 
L 7.625 11.71875 
Q 11.71875 9.328125 16.59375 8.109375 
Q 21.484375 6.890625 26.8125 6.890625 
Q 36.078125 6.890625 40.9375 10.546875 
Q 45.796875 14.203125 45.796875 21.1875 
Q 45.796875 27.640625 41.28125 31.265625 
Q 36.765625 34.90625 28.71875 34.90625 
L 20.21875 34.90625 
L 20.21875 43.015625 
L 29.109375 43.015625 
Q 36.375 43.015625 40.234375 45.921875 
Q 44.09375 48.828125 44.09375 54.296875 
Q 44.09375 59.90625 40.109375 62.90625 
Q 36.140625 65.921875 28.71875 65.921875 
Q 24.65625 65.921875 20.015625 65.03125 
Q 15.375 64.15625 9.8125 62.3125 
L 9.8125 71.09375 
Q 15.4375 72.65625 20.34375 73.4375 
Q 25.25 74.21875 29.59375 74.21875 
Q 40.828125 74.21875 47.359375 69.109375 
Q 53.90625 64.015625 53.90625 55.328125 
Q 53.90625 49.265625 50.4375 45.09375 
Q 46.96875 40.921875 40.578125 39.3125 
z
" id="DejaVuSans-33"/>
      </defs>
      <g transform="translate(7.2 14.798437)scale(0.1 -0.1)">
       <use xlink:href="#DejaVuSans-33"/>
       <use x="63.623047" xlink:href="#DejaVuSans-30"/>
       <use x="127.246094" xlink:href="#DejaVuSans-30"/>
      </g>
     </g>
    </g>
   </g>
   <g id="patch_3">
    <path d="M 33.2875 123.319219 
L 33.2875 10.999219 
" style="fill:none;stroke:#000000;stroke-linecap:square;stroke-linejoin:miter;stroke-width:0.8;"/>
   </g>
   <g id="patch_4">
    <path d="M 33.2875 123.319219 
L 127.0875 123.319219 
" style="fill:none;stroke:#000000;stroke-linecap:square;stroke-linejoin:miter;stroke-width:0.8;"/>
   </g>
  </g>
 </g>
 <defs>
  <clipPath id="pd5de8557fc">
   <rect height="112.32" width="93.8" x="33.2875" y="10.999219"/>
  </clipPath>
 </defs>
</svg>
