<?xml version="1.0" encoding="utf-8" standalone="no"?>
<!DOCTYPE svg PUBLIC "-//W3C//DTD SVG 1.1//EN"
  "http://www.w3.org/Graphics/SVG/1.1/DTD/svg11.dtd">
<!-- Created with matplotlib (http://matplotlib.org/) -->
<svg height="136pt" version="1.1" viewBox="0 0 137 136" width="137pt" xmlns="http://www.w3.org/2000/svg" xmlns:xlink="http://www.w3.org/1999/xlink">
 <defs>
  <style type="text/css">
*{stroke-linecap:butt;stroke-linejoin:round;}
  </style>
 </defs>
 <g id="figure_1">
  <g id="patch_1">
   <path d="M 0 136.398125 
L 137.7875 136.398125 
L 137.7875 0 
L 0 0 
z
" style="fill:#ffffff;"/>
  </g>
  <g id="axes_1">
   <g id="patch_2">
    <path d="M 33.2875 123.319219 
L 127.0875 123.319219 
L 127.0875 10.999219 
L 33.2875 10.999219 
z
" style="fill:#ffffff;"/>
   </g>
   <g id="PolyCollection_1">
    <path clip-path="url(#padca64f05c)" d="M 80.287391 123.319219 
L 71.492081 123.319219 
L 70.459325 122.222809 
L 69.295903 121.1264 
L 67.719181 120.02999 
L 65.47946 118.933581 
L 62.458416 117.837172 
L 58.71982 116.740762 
L 54.497921 115.644353 
L 50.138645 114.547943 
L 46.023573 113.451534 
L 42.502082 112.355124 
L 39.841374 111.258715 
L 38.190381 110.162305 
L 37.551136 109.065896 
L 37.761028 107.969487 
L 38.503068 106.873077 
L 39.364658 105.776668 
L 39.948169 104.680258 
L 40.003376 103.583849 
L 39.523578 102.487439 
L 38.749373 101.39103 
L 38.065166 100.29462 
L 37.833066 99.198211 
L 38.247397 98.101802 
L 39.281103 97.005392 
L 40.738783 95.908983 
L 42.369625 94.812573 
L 43.969753 93.716164 
L 45.428777 92.619754 
L 46.722743 91.523345 
L 47.886092 90.426935 
L 48.990791 89.330526 
L 50.135432 88.234117 
L 51.428437 87.137707 
L 52.953121 86.041298 
L 54.721549 84.944888 
L 56.640027 83.848479 
L 58.508368 82.752069 
L 60.059267 81.65566 
L 61.025625 80.55925 
L 61.213992 79.462841 
L 60.563737 78.366432 
L 59.178046 77.270022 
L 57.318447 76.173613 
L 55.359646 75.077203 
L 53.710091 73.980794 
L 52.716603 72.884384 
L 52.582167 71.787975 
L 53.32534 70.691565 
L 54.79466 69.595156 
L 56.728283 68.498747 
L 58.830662 67.402337 
L 60.835062 66.305928 
L 62.534454 65.209518 
L 63.784728 64.113109 
L 64.498981 63.016699 
L 64.650611 61.92029 
L 64.288115 60.82388 
L 63.547901 59.727471 
L 62.645718 58.631062 
L 61.837052 57.534652 
L 61.35536 56.438243 
L 61.351887 55.341833 
L 61.861742 54.245424 
L 62.807572 53.149014 
L 64.033335 52.052605 
L 65.348731 50.956195 
L 66.565872 49.859786 
L 67.520651 48.763377 
L 68.082944 47.666967 
L 68.165115 46.570558 
L 67.735475 45.474148 
L 66.835447 44.377739 
L 65.590933 43.281329 
L 64.205091 42.18492 
L 62.924601 41.08851 
L 61.983895 39.992101 
L 61.545073 38.895692 
L 61.656737 37.799282 
L 62.248059 36.702873 
L 63.158786 35.606463 
L 64.190818 34.510054 
L 65.160705 33.413644 
L 65.936473 32.317235 
L 66.452118 31.220825 
L 66.70281 30.124416 
L 66.729392 29.028007 
L 66.601509 27.931597 
L 66.405691 26.835188 
L 66.239714 25.738778 
L 66.209439 24.642369 
L 66.421614 23.545959 
L 66.967781 22.44955 
L 67.900607 21.35314 
L 69.211294 20.256731 
L 70.820194 19.160322 
L 72.5889 18.063912 
L 74.352154 16.967503 
L 75.957956 15.871093 
L 77.300409 14.774684 
L 80.287391 14.774684 
L 80.287391 14.774684 
L 80.287391 15.871093 
L 80.287391 16.967503 
L 80.287391 18.063912 
L 80.287391 19.160322 
L 80.287391 20.256731 
L 80.287391 21.35314 
L 80.287391 22.44955 
L 80.287391 23.545959 
L 80.287391 24.642369 
L 80.287391 25.738778 
L 80.287391 26.835188 
L 80.287391 27.931597 
L 80.287391 29.028007 
L 80.287391 30.124416 
L 80.287391 31.220825 
L 80.287391 32.317235 
L 80.287391 33.413644 
L 80.287391 34.510054 
L 80.287391 35.606463 
L 80.287391 36.702873 
L 80.287391 37.799282 
L 80.287391 38.895692 
L 80.287391 39.992101 
L 80.287391 41.08851 
L 80.287391 42.18492 
L 80.287391 43.281329 
L 80.287391 44.377739 
L 80.287391 45.474148 
L 80.287391 46.570558 
L 80.287391 47.666967 
L 80.287391 48.763377 
L 80.287391 49.859786 
L 80.287391 50.956195 
L 80.287391 52.052605 
L 80.287391 53.149014 
L 80.287391 54.245424 
L 80.287391 55.341833 
L 80.287391 56.438243 
L 80.287391 57.534652 
L 80.287391 58.631062 
L 80.287391 59.727471 
L 80.287391 60.82388 
L 80.287391 61.92029 
L 80.287391 63.016699 
L 80.287391 64.113109 
L 80.287391 65.209518 
L 80.287391 66.305928 
L 80.287391 67.402337 
L 80.287391 68.498747 
L 80.287391 69.595156 
L 80.287391 70.691565 
L 80.287391 71.787975 
L 80.287391 72.884384 
L 80.287391 73.980794 
L 80.287391 75.077203 
L 80.287391 76.173613 
L 80.287391 77.270022 
L 80.287391 78.366432 
L 80.287391 79.462841 
L 80.287391 80.55925 
L 80.287391 81.65566 
L 80.287391 82.752069 
L 80.287391 83.848479 
L 80.287391 84.944888 
L 80.287391 86.041298 
L 80.287391 87.137707 
L 80.287391 88.234117 
L 80.287391 89.330526 
L 80.287391 90.426935 
L 80.287391 91.523345 
L 80.287391 92.619754 
L 80.287391 93.716164 
L 80.287391 94.812573 
L 80.287391 95.908983 
L 80.287391 97.005392 
L 80.287391 98.101802 
L 80.287391 99.198211 
L 80.287391 100.29462 
L 80.287391 101.39103 
L 80.287391 102.487439 
L 80.287391 103.583849 
L 80.287391 104.680258 
L 80.287391 105.776668 
L 80.287391 106.873077 
L 80.287391 107.969487 
L 80.287391 109.065896 
L 80.287391 110.162305 
L 80.287391 111.258715 
L 80.287391 112.355124 
L 80.287391 113.451534 
L 80.287391 114.547943 
L 80.287391 115.644353 
L 80.287391 116.740762 
L 80.287391 117.837172 
L 80.287391 118.933581 
L 80.287391 120.02999 
L 80.287391 121.1264 
L 80.287391 122.222809 
L 80.287391 123.319219 
z
" style="fill:#1f77b4;fill-opacity:0.3;"/>
   </g>
   <g id="PolyCollection_2">
    <path clip-path="url(#padca64f05c)" d="M 82.78599 123.319219 
L 80.24743 123.319219 
L 80.24743 122.222011 
L 80.24743 121.124803 
L 80.24743 120.027595 
L 80.24743 118.930387 
L 80.24743 117.833179 
L 80.24743 116.735971 
L 80.24743 115.638763 
L 80.24743 114.541555 
L 80.24743 113.444347 
L 80.24743 112.347139 
L 80.24743 111.249931 
L 80.24743 110.152723 
L 80.24743 109.055515 
L 80.24743 107.958307 
L 80.24743 106.861099 
L 80.24743 105.763891 
L 80.24743 104.666683 
L 80.24743 103.569475 
L 80.24743 102.472267 
L 80.24743 101.375059 
L 80.24743 100.277852 
L 80.24743 99.180644 
L 80.24743 98.083436 
L 80.24743 96.986228 
L 80.24743 95.88902 
L 80.24743 94.791812 
L 80.24743 93.694604 
L 80.24743 92.597396 
L 80.24743 91.500188 
L 80.24743 90.40298 
L 80.24743 89.305772 
L 80.24743 88.208564 
L 80.24743 87.111356 
L 80.24743 86.014148 
L 80.24743 84.91694 
L 80.24743 83.819732 
L 80.24743 82.722524 
L 80.24743 81.625316 
L 80.24743 80.528108 
L 80.24743 79.4309 
L 80.24743 78.333692 
L 80.24743 77.236484 
L 80.24743 76.139276 
L 80.24743 75.042068 
L 80.24743 73.94486 
L 80.24743 72.847652 
L 80.24743 71.750444 
L 80.24743 70.653236 
L 80.24743 69.556029 
L 80.24743 68.458821 
L 80.24743 67.361613 
L 80.24743 66.264405 
L 80.24743 65.167197 
L 80.24743 64.069989 
L 80.24743 62.972781 
L 80.24743 61.875573 
L 80.24743 60.778365 
L 80.24743 59.681157 
L 80.24743 58.583949 
L 80.24743 57.486741 
L 80.24743 56.389533 
L 80.24743 55.292325 
L 80.24743 54.195117 
L 80.24743 53.097909 
L 80.24743 52.000701 
L 80.24743 50.903493 
L 80.24743 49.806285 
L 80.24743 48.709077 
L 80.24743 47.611869 
L 80.24743 46.514661 
L 80.24743 45.417453 
L 80.24743 44.320245 
L 80.24743 43.223037 
L 80.24743 42.125829 
L 80.24743 41.028621 
L 80.24743 39.931413 
L 80.24743 38.834206 
L 80.24743 37.736998 
L 80.24743 36.63979 
L 80.24743 35.542582 
L 80.24743 34.445374 
L 80.24743 33.348166 
L 80.24743 32.250958 
L 80.24743 31.15375 
L 80.24743 30.056542 
L 80.24743 28.959334 
L 80.24743 27.862126 
L 80.24743 26.764918 
L 80.24743 25.66771 
L 80.24743 24.570502 
L 80.24743 23.473294 
L 80.24743 22.376086 
L 80.24743 21.278878 
L 80.24743 20.18167 
L 80.24743 19.084462 
L 80.24743 17.987254 
L 80.24743 16.890046 
L 80.24743 15.792838 
L 80.24743 14.69563 
L 87.156408 14.69563 
L 87.156408 14.69563 
L 89.928135 15.792838 
L 93.115472 16.890046 
L 96.522902 17.987254 
L 99.899925 19.084462 
L 102.991196 20.18167 
L 105.591697 21.278878 
L 107.587831 22.376086 
L 108.970612 23.473294 
L 109.819199 24.570502 
L 110.265099 25.66771 
L 110.452983 26.764918 
L 110.511378 27.862126 
L 110.538746 28.959334 
L 110.602644 30.056542 
L 110.745186 31.15375 
L 110.98755 32.250958 
L 111.328978 33.348166 
L 111.740338 34.445374 
L 112.157234 35.542582 
L 112.480649 36.63979 
L 112.591725 37.736998 
L 112.38123 38.834206 
L 111.785826 39.931413 
L 110.81732 41.028621 
L 109.571714 42.125829 
L 108.212697 43.223037 
L 106.935291 44.320245 
L 105.923448 45.417453 
L 105.315894 46.514661 
L 105.187559 47.611869 
L 105.544362 48.709077 
L 106.323639 49.806285 
L 107.395159 50.903493 
L 108.566418 52.000701 
L 109.603143 53.097909 
L 110.273517 54.195117 
L 110.410943 55.292325 
L 109.973425 56.389533 
L 109.070851 57.486741 
L 107.942179 58.583949 
L 106.88798 59.681157 
L 106.185554 60.778365 
L 106.020195 61.875573 
L 106.454445 62.972781 
L 107.435849 64.069989 
L 108.826676 65.167197 
L 110.435613 66.264405 
L 112.041239 67.361613 
L 113.411158 68.458821 
L 114.327907 69.556029 
L 114.627472 70.653236 
L 114.242805 71.750444 
L 113.233625 72.847652 
L 111.784474 73.94486 
L 110.166007 75.042068 
L 108.671787 76.139276 
L 107.553212 77.236484 
L 106.973295 78.333692 
L 106.988932 79.4309 
L 107.559368 80.528108 
L 108.572204 81.625316 
L 109.877826 82.722524 
L 111.324656 83.819732 
L 112.788276 84.91694 
L 114.188044 86.014148 
L 115.488032 87.111356 
L 116.685225 88.208564 
L 117.793285 89.305772 
L 118.830006 90.40298 
L 119.810143 91.500188 
L 120.737732 92.597396 
L 121.591473 93.694604 
L 122.306108 94.791812 
L 122.765257 95.88902 
L 122.823864 96.986228 
L 122.363531 98.083436 
L 121.358879 99.180644 
L 119.916639 100.277852 
L 118.257186 101.375059 
L 116.638607 102.472267 
L 115.256692 103.569475 
L 114.168558 104.666683 
L 113.274693 105.763891 
L 112.363841 106.861099 
L 111.196192 107.958307 
L 109.587272 109.055515 
L 107.461063 110.152723 
L 104.859409 111.249931 
L 101.914806 112.347139 
L 98.806075 113.444347 
L 95.717143 114.541555 
L 92.810406 115.638763 
L 90.214274 116.735971 
L 88.017222 117.833179 
L 86.261611 118.930387 
L 84.937642 120.027595 
L 83.984209 121.124803 
L 83.303148 122.222011 
L 82.78599 123.319219 
z
" style="fill:#ff7f0e;fill-opacity:0.3;"/>
   </g>
   <g id="matplotlib.axis_1"/>
   <g id="matplotlib.axis_2">
    <g id="ytick_1">
     <g id="line2d_1">
      <defs>
       <path d="M 0 0 
L -3.5 0 
" id="ma070843934" style="stroke:#000000;stroke-width:0.8;"/>
      </defs>
      <g>
       <use style="stroke:#000000;stroke-width:0.8;" x="33.2875" xlink:href="#ma070843934" y="123.319219"/>
      </g>
     </g>
     <g id="text_1">
      <!-- 0 -->
      <defs>
       <path d="M 31.78125 66.40625 
Q 24.171875 66.40625 20.328125 58.90625 
Q 16.5 51.421875 16.5 36.375 
Q 16.5 21.390625 20.328125 13.890625 
Q 24.171875 6.390625 31.78125 6.390625 
Q 39.453125 6.390625 43.28125 13.890625 
Q 47.125 21.390625 47.125 36.375 
Q 47.125 51.421875 43.28125 58.90625 
Q 39.453125 66.40625 31.78125 66.40625 
z
M 31.78125 74.21875 
Q 44.046875 74.21875 50.515625 64.515625 
Q 56.984375 54.828125 56.984375 36.375 
Q 56.984375 17.96875 50.515625 8.265625 
Q 44.046875 -1.421875 31.78125 -1.421875 
Q 19.53125 -1.421875 13.0625 8.265625 
Q 6.59375 17.96875 6.59375 36.375 
Q 6.59375 54.828125 13.0625 64.515625 
Q 19.53125 74.21875 31.78125 74.21875 
z
" id="DejaVuSans-30"/>
      </defs>
      <g transform="translate(19.925 127.118437)scale(0.1 -0.1)">
       <use xlink:href="#DejaVuSans-30"/>
      </g>
     </g>
    </g>
    <g id="ytick_2">
     <g id="line2d_2">
      <g>
       <use style="stroke:#000000;stroke-width:0.8;" x="33.2875" xlink:href="#ma070843934" y="67.159219"/>
      </g>
     </g>
     <g id="text_2">
      <!-- 150 -->
      <defs>
       <path d="M 12.40625 8.296875 
L 28.515625 8.296875 
L 28.515625 63.921875 
L 10.984375 60.40625 
L 10.984375 69.390625 
L 28.421875 72.90625 
L 38.28125 72.90625 
L 38.28125 8.296875 
L 54.390625 8.296875 
L 54.390625 0 
L 12.40625 0 
z
" id="DejaVuSans-31"/>
       <path d="M 10.796875 72.90625 
L 49.515625 72.90625 
L 49.515625 64.59375 
L 19.828125 64.59375 
L 19.828125 46.734375 
Q 21.96875 47.46875 24.109375 47.828125 
Q 26.265625 48.1875 28.421875 48.1875 
Q 40.625 48.1875 47.75 41.5 
Q 54.890625 34.8125 54.890625 23.390625 
Q 54.890625 11.625 47.5625 5.09375 
Q 40.234375 -1.421875 26.90625 -1.421875 
Q 22.3125 -1.421875 17.546875 -0.640625 
Q 12.796875 0.140625 7.71875 1.703125 
L 7.71875 11.625 
Q 12.109375 9.234375 16.796875 8.0625 
Q 21.484375 6.890625 26.703125 6.890625 
Q 35.15625 6.890625 40.078125 11.328125 
Q 45.015625 15.765625 45.015625 23.390625 
Q 45.015625 31 40.078125 35.4375 
Q 35.15625 39.890625 26.703125 39.890625 
Q 22.75 39.890625 18.8125 39.015625 
Q 14.890625 38.140625 10.796875 36.28125 
z
" id="DejaVuSans-35"/>
      </defs>
      <g transform="translate(7.2 70.958437)scale(0.1 -0.1)">
       <use xlink:href="#DejaVuSans-31"/>
       <use x="63.623047" xlink:href="#DejaVuSans-35"/>
       <use x="127.246094" xlink:href="#DejaVuSans-30"/>
      </g>
     </g>
    </g>
    <g id="ytick_3">
     <g id="line2d_3">
      <g>
       <use style="stroke:#000000;stroke-width:0.8;" x="33.2875" xlink:href="#ma070843934" y="10.999219"/>
      </g>
     </g>
     <g id="text_3">
      <!-- 300 -->
      <defs>
       <path d="M 40.578125 39.3125 
Q 47.65625 37.796875 51.625 33 
Q 55.609375 28.21875 55.609375 21.1875 
Q 55.609375 10.40625 48.1875 4.484375 
Q 40.765625 -1.421875 27.09375 -1.421875 
Q 22.515625 -1.421875 17.65625 -0.515625 
Q 12.796875 0.390625 7.625 2.203125 
L 7.625 11.71875 
Q 11.71875 9.328125 16.59375 8.109375 
Q 21.484375 6.890625 26.8125 6.890625 
Q 36.078125 6.890625 40.9375 10.546875 
Q 45.796875 14.203125 45.796875 21.1875 
Q 45.796875 27.640625 41.28125 31.265625 
Q 36.765625 34.90625 28.71875 34.90625 
L 20.21875 34.90625 
L 20.21875 43.015625 
L 29.109375 43.015625 
Q 36.375 43.015625 40.234375 45.921875 
Q 44.09375 48.828125 44.09375 54.296875 
Q 44.09375 59.90625 40.109375 62.90625 
Q 36.140625 65.921875 28.71875 65.921875 
Q 24.65625 65.921875 20.015625 65.03125 
Q 15.375 64.15625 9.8125 62.3125 
L 9.8125 71.09375 
Q 15.4375 72.65625 20.34375 73.4375 
Q 25.25 74.21875 29.59375 74.21875 
Q 40.828125 74.21875 47.359375 69.109375 
Q 53.90625 64.015625 53.90625 55.328125 
Q 53.90625 49.265625 50.4375 45.09375 
Q 46.96875 40.921875 40.578125 39.3125 
z
" id="DejaVuSans-33"/>
      </defs>
      <g transform="translate(7.2 14.798437)scale(0.1 -0.1)">
       <use xlink:href="#DejaVuSans-33"/>
       <use x="63.623047" xlink:href="#DejaVuSans-30"/>
       <use x="127.246094" xlink:href="#DejaVuSans-30"/>
      </g>
     </g>
    </g>
   </g>
   <g id="patch_3">
    <path d="M 33.2875 123.319219 
L 33.2875 10.999219 
" style="fill:none;stroke:#000000;stroke-linecap:square;stroke-linejoin:miter;stroke-width:0.8;"/>
   </g>
   <g id="patch_4">
    <path d="M 33.2875 123.319219 
L 127.0875 123.319219 
" style="fill:none;stroke:#000000;stroke-linecap:square;stroke-linejoin:miter;stroke-width:0.8;"/>
   </g>
  </g>
 </g>
 <defs>
  <clipPath id="padca64f05c">
   <rect height="112.32" width="93.8" x="33.2875" y="10.999219"/>
  </clipPath>
 </defs>
</svg>
