<?xml version="1.0" encoding="utf-8" standalone="no"?>
<!DOCTYPE svg PUBLIC "-//W3C//DTD SVG 1.1//EN"
  "http://www.w3.org/Graphics/SVG/1.1/DTD/svg11.dtd">
<!-- Created with matplotlib (http://matplotlib.org/) -->
<svg height="136pt" version="1.1" viewBox="0 0 137 136" width="137pt" xmlns="http://www.w3.org/2000/svg" xmlns:xlink="http://www.w3.org/1999/xlink">
 <defs>
  <style type="text/css">
*{stroke-linecap:butt;stroke-linejoin:round;}
  </style>
 </defs>
 <g id="figure_1">
  <g id="patch_1">
   <path d="M 0 136.398125 
L 137.7875 136.398125 
L 137.7875 0 
L 0 0 
z
" style="fill:#ffffff;"/>
  </g>
  <g id="axes_1">
   <g id="patch_2">
    <path d="M 33.2875 123.319219 
L 127.0875 123.319219 
L 127.0875 10.999219 
L 33.2875 10.999219 
z
" style="fill:#ffffff;"/>
   </g>
   <g id="PolyCollection_1">
    <path clip-path="url(#p138d4a46aa)" d="M 82.545831 123.319219 
L 77.829169 123.319219 
L 77.382385 122.204561 
L 76.826013 121.089904 
L 76.093797 119.975246 
L 75.133283 118.860589 
L 73.926228 117.745932 
L 72.498873 116.631274 
L 70.919347 115.516617 
L 69.284611 114.401959 
L 67.701777 113.287302 
L 66.268669 112.172644 
L 65.057656 111.057987 
L 64.106064 109.94333 
L 63.415251 108.828672 
L 62.957934 107.714015 
L 62.690392 106.599357 
L 62.564493 105.4847 
L 62.535562 104.370042 
L 62.565088 103.255385 
L 62.620268 102.140727 
L 62.673404 101.02607 
L 62.703101 99.911413 
L 62.697078 98.796755 
L 62.654683 97.682098 
L 62.586798 96.56744 
L 62.511962 95.452783 
L 62.449565 94.338125 
L 62.412844 93.223468 
L 62.404927 92.108811 
L 62.419798 90.994153 
L 62.447348 89.879496 
L 62.479368 88.764838 
L 62.512914 87.650181 
L 62.549291 86.535523 
L 62.589788 85.420866 
L 62.631239 84.306209 
L 62.664339 83.191551 
L 62.675617 82.076894 
L 62.651735 80.962236 
L 62.583736 79.847579 
L 62.46961 78.732921 
L 62.315158 77.618264 
L 62.134136 76.503606 
L 61.948238 75.388949 
L 61.785932 74.274292 
L 61.678241 73.159634 
L 61.650435 72.044977 
L 61.711535 70.930319 
L 61.846387 69.815662 
L 62.015463 68.701004 
L 62.164355 67.586347 
L 62.239816 66.47169 
L 62.205537 65.357032 
L 62.051016 64.242375 
L 61.790713 63.127717 
L 61.45529 62.01306 
L 61.079444 60.898402 
L 60.690763 59.783745 
L 60.302312 58.669087 
L 59.91008 57.55443 
L 59.495618 56.439773 
L 59.033412 55.325115 
L 58.501197 54.210458 
L 57.889663 53.0958 
L 57.207217 51.981143 
L 56.477005 50.866485 
L 55.727018 49.751828 
L 54.977966 48.637171 
L 54.235258 47.522513 
L 53.489421 46.407856 
L 52.724649 45.293198 
L 51.930574 44.178541 
L 51.1107 43.063883 
L 50.283113 41.949226 
L 49.473518 40.834569 
L 48.704531 39.719911 
L 47.986403 38.605254 
L 47.312769 37.490596 
L 46.662037 36.375939 
L 46.002526 35.261281 
L 45.298639 34.146624 
L 44.516332 33.031966 
L 43.628191 31.917309 
L 42.620044 30.802652 
L 41.500991 29.687994 
L 40.316524 28.573337 
L 39.160957 27.458679 
L 38.182583 26.344022 
L 37.574939 25.229364 
L 37.551136 24.114707 
L 38.304573 23.00005 
L 39.965687 21.885392 
L 42.567403 20.770735 
L 46.029694 19.656077 
L 50.167344 18.54142 
L 54.717853 17.426762 
L 59.381792 16.312105 
L 63.86667 15.197448 
L 67.926369 14.08279 
L 71.38981 12.968133 
L 88.98519 12.968133 
L 88.98519 12.968133 
L 92.448631 14.08279 
L 96.50833 15.197448 
L 100.993208 16.312105 
L 105.657147 17.426762 
L 110.207656 18.54142 
L 114.345306 19.656077 
L 117.807597 20.770735 
L 120.409313 21.885392 
L 122.070427 23.00005 
L 122.823864 24.114707 
L 122.800061 25.229364 
L 122.192417 26.344022 
L 121.214043 27.458679 
L 120.058476 28.573337 
L 118.874009 29.687994 
L 117.754956 30.802652 
L 116.746809 31.917309 
L 115.858668 33.031966 
L 115.076361 34.146624 
L 114.372474 35.261281 
L 113.712963 36.375939 
L 113.062231 37.490596 
L 112.388597 38.605254 
L 111.670469 39.719911 
L 110.901482 40.834569 
L 110.091887 41.949226 
L 109.2643 43.063883 
L 108.444426 44.178541 
L 107.650351 45.293198 
L 106.885579 46.407856 
L 106.139742 47.522513 
L 105.397034 48.637171 
L 104.647982 49.751828 
L 103.897995 50.866485 
L 103.167783 51.981143 
L 102.485337 53.0958 
L 101.873803 54.210458 
L 101.341588 55.325115 
L 100.879382 56.439773 
L 100.46492 57.55443 
L 100.072688 58.669087 
L 99.684237 59.783745 
L 99.295556 60.898402 
L 98.91971 62.01306 
L 98.584287 63.127717 
L 98.323984 64.242375 
L 98.169463 65.357032 
L 98.135184 66.47169 
L 98.210645 67.586347 
L 98.359537 68.701004 
L 98.528613 69.815662 
L 98.663465 70.930319 
L 98.724565 72.044977 
L 98.696759 73.159634 
L 98.589068 74.274292 
L 98.426762 75.388949 
L 98.240864 76.503606 
L 98.059842 77.618264 
L 97.90539 78.732921 
L 97.791264 79.847579 
L 97.723265 80.962236 
L 97.699383 82.076894 
L 97.710661 83.191551 
L 97.743761 84.306209 
L 97.785212 85.420866 
L 97.825709 86.535523 
L 97.862086 87.650181 
L 97.895632 88.764838 
L 97.927652 89.879496 
L 97.955202 90.994153 
L 97.970073 92.108811 
L 97.962156 93.223468 
L 97.925435 94.338125 
L 97.863038 95.452783 
L 97.788202 96.56744 
L 97.720317 97.682098 
L 97.677922 98.796755 
L 97.671899 99.911413 
L 97.701596 101.02607 
L 97.754732 102.140727 
L 97.809912 103.255385 
L 97.839438 104.370042 
L 97.810507 105.4847 
L 97.684608 106.599357 
L 97.417066 107.714015 
L 96.959749 108.828672 
L 96.268936 109.94333 
L 95.317344 111.057987 
L 94.106331 112.172644 
L 92.673223 113.287302 
L 91.090389 114.401959 
L 89.455653 115.516617 
L 87.876127 116.631274 
L 86.448772 117.745932 
L 85.241717 118.860589 
L 84.281203 119.975246 
L 83.548987 121.089904 
L 82.992615 122.204561 
L 82.545831 123.319219 
z
" style="fill:#1f77b4;fill-opacity:0.3;"/>
   </g>
   <g id="matplotlib.axis_1"/>
   <g id="matplotlib.axis_2">
    <g id="ytick_1">
     <g id="line2d_1">
      <defs>
       <path d="M 0 0 
L -3.5 0 
" id="m31702a5fca" style="stroke:#000000;stroke-width:0.8;"/>
      </defs>
      <g>
       <use style="stroke:#000000;stroke-width:0.8;" x="33.2875" xlink:href="#m31702a5fca" y="123.319219"/>
      </g>
     </g>
     <g id="text_1">
      <!-- 0 -->
      <defs>
       <path d="M 31.78125 66.40625 
Q 24.171875 66.40625 20.328125 58.90625 
Q 16.5 51.421875 16.5 36.375 
Q 16.5 21.390625 20.328125 13.890625 
Q 24.171875 6.390625 31.78125 6.390625 
Q 39.453125 6.390625 43.28125 13.890625 
Q 47.125 21.390625 47.125 36.375 
Q 47.125 51.421875 43.28125 58.90625 
Q 39.453125 66.40625 31.78125 66.40625 
z
M 31.78125 74.21875 
Q 44.046875 74.21875 50.515625 64.515625 
Q 56.984375 54.828125 56.984375 36.375 
Q 56.984375 17.96875 50.515625 8.265625 
Q 44.046875 -1.421875 31.78125 -1.421875 
Q 19.53125 -1.421875 13.0625 8.265625 
Q 6.59375 17.96875 6.59375 36.375 
Q 6.59375 54.828125 13.0625 64.515625 
Q 19.53125 74.21875 31.78125 74.21875 
z
" id="DejaVuSans-30"/>
      </defs>
      <g transform="translate(19.925 127.118437)scale(0.1 -0.1)">
       <use xlink:href="#DejaVuSans-30"/>
      </g>
     </g>
    </g>
    <g id="ytick_2">
     <g id="line2d_2">
      <g>
       <use style="stroke:#000000;stroke-width:0.8;" x="33.2875" xlink:href="#m31702a5fca" y="67.159219"/>
      </g>
     </g>
     <g id="text_2">
      <!-- 150 -->
      <defs>
       <path d="M 12.40625 8.296875 
L 28.515625 8.296875 
L 28.515625 63.921875 
L 10.984375 60.40625 
L 10.984375 69.390625 
L 28.421875 72.90625 
L 38.28125 72.90625 
L 38.28125 8.296875 
L 54.390625 8.296875 
L 54.390625 0 
L 12.40625 0 
z
" id="DejaVuSans-31"/>
       <path d="M 10.796875 72.90625 
L 49.515625 72.90625 
L 49.515625 64.59375 
L 19.828125 64.59375 
L 19.828125 46.734375 
Q 21.96875 47.46875 24.109375 47.828125 
Q 26.265625 48.1875 28.421875 48.1875 
Q 40.625 48.1875 47.75 41.5 
Q 54.890625 34.8125 54.890625 23.390625 
Q 54.890625 11.625 47.5625 5.09375 
Q 40.234375 -1.421875 26.90625 -1.421875 
Q 22.3125 -1.421875 17.546875 -0.640625 
Q 12.796875 0.140625 7.71875 1.703125 
L 7.71875 11.625 
Q 12.109375 9.234375 16.796875 8.0625 
Q 21.484375 6.890625 26.703125 6.890625 
Q 35.15625 6.890625 40.078125 11.328125 
Q 45.015625 15.765625 45.015625 23.390625 
Q 45.015625 31 40.078125 35.4375 
Q 35.15625 39.890625 26.703125 39.890625 
Q 22.75 39.890625 18.8125 39.015625 
Q 14.890625 38.140625 10.796875 36.28125 
z
" id="DejaVuSans-35"/>
      </defs>
      <g transform="translate(7.2 70.958437)scale(0.1 -0.1)">
       <use xlink:href="#DejaVuSans-31"/>
       <use x="63.623047" xlink:href="#DejaVuSans-35"/>
       <use x="127.246094" xlink:href="#DejaVuSans-30"/>
      </g>
     </g>
    </g>
    <g id="ytick_3">
     <g id="line2d_3">
      <g>
       <use style="stroke:#000000;stroke-width:0.8;" x="33.2875" xlink:href="#m31702a5fca" y="10.999219"/>
      </g>
     </g>
     <g id="text_3">
      <!-- 300 -->
      <defs>
       <path d="M 40.578125 39.3125 
Q 47.65625 37.796875 51.625 33 
Q 55.609375 28.21875 55.609375 21.1875 
Q 55.609375 10.40625 48.1875 4.484375 
Q 40.765625 -1.421875 27.09375 -1.421875 
Q 22.515625 -1.421875 17.65625 -0.515625 
Q 12.796875 0.390625 7.625 2.203125 
L 7.625 11.71875 
Q 11.71875 9.328125 16.59375 8.109375 
Q 21.484375 6.890625 26.8125 6.890625 
Q 36.078125 6.890625 40.9375 10.546875 
Q 45.796875 14.203125 45.796875 21.1875 
Q 45.796875 27.640625 41.28125 31.265625 
Q 36.765625 34.90625 28.71875 34.90625 
L 20.21875 34.90625 
L 20.21875 43.015625 
L 29.109375 43.015625 
Q 36.375 43.015625 40.234375 45.921875 
Q 44.09375 48.828125 44.09375 54.296875 
Q 44.09375 59.90625 40.109375 62.90625 
Q 36.140625 65.921875 28.71875 65.921875 
Q 24.65625 65.921875 20.015625 65.03125 
Q 15.375 64.15625 9.8125 62.3125 
L 9.8125 71.09375 
Q 15.4375 72.65625 20.34375 73.4375 
Q 25.25 74.21875 29.59375 74.21875 
Q 40.828125 74.21875 47.359375 69.109375 
Q 53.90625 64.015625 53.90625 55.328125 
Q 53.90625 49.265625 50.4375 45.09375 
Q 46.96875 40.921875 40.578125 39.3125 
z
" id="DejaVuSans-33"/>
      </defs>
      <g transform="translate(7.2 14.798437)scale(0.1 -0.1)">
       <use xlink:href="#DejaVuSans-33"/>
       <use x="63.623047" xlink:href="#DejaVuSans-30"/>
       <use x="127.246094" xlink:href="#DejaVuSans-30"/>
      </g>
     </g>
    </g>
   </g>
   <g id="patch_3">
    <path d="M 33.2875 123.319219 
L 33.2875 10.999219 
" style="fill:none;stroke:#000000;stroke-linecap:square;stroke-linejoin:miter;stroke-width:0.8;"/>
   </g>
   <g id="patch_4">
    <path d="M 33.2875 123.319219 
L 127.0875 123.319219 
" style="fill:none;stroke:#000000;stroke-linecap:square;stroke-linejoin:miter;stroke-width:0.8;"/>
   </g>
  </g>
 </g>
 <defs>
  <clipPath id="p138d4a46aa">
   <rect height="112.32" width="93.8" x="33.2875" y="10.999219"/>
  </clipPath>
 </defs>
</svg>
