<?xml version="1.0" encoding="utf-8" standalone="no"?>
<!DOCTYPE svg PUBLIC "-//W3C//DTD SVG 1.1//EN"
  "http://www.w3.org/Graphics/SVG/1.1/DTD/svg11.dtd">
<!-- Created with matplotlib (http://matplotlib.org/) -->
<svg height="136pt" version="1.1" viewBox="0 0 101 136" width="101pt" xmlns="http://www.w3.org/2000/svg" xmlns:xlink="http://www.w3.org/1999/xlink">
 <defs>
  <style type="text/css">
*{stroke-linecap:butt;stroke-linejoin:round;}
  </style>
 </defs>
 <g id="figure_1">
  <g id="patch_1">
   <path d="M 0 136.398125 
L 101.7875 136.398125 
L 101.7875 0 
L 0 0 
z
" style="fill:#ffffff;"/>
  </g>
  <g id="axes_1">
   <g id="patch_2">
    <path d="M 33.2875 123.319219 
L 91.0875 123.319219 
L 91.0875 10.999219 
L 33.2875 10.999219 
z
" style="fill:#ffffff;"/>
   </g>
   <g id="PolyCollection_1">
    <path clip-path="url(#p6439dbe9c2)" d="M 69.245109 123.319219 
L 55.129891 123.319219 
L 54.158939 122.205182 
L 53.074204 121.091145 
L 51.744542 119.977108 
L 50.072347 118.863072 
L 48.043354 117.749035 
L 45.748513 116.634998 
L 43.367707 115.520961 
L 41.12128 114.406925 
L 39.208041 113.292888 
L 37.75274 112.178851 
L 36.781203 111.064814 
L 36.229738 109.950777 
L 35.981793 108.836741 
L 35.914773 107.722704 
L 35.937888 106.608667 
L 36.008695 105.49463 
L 36.12774 104.380594 
L 36.320673 103.266557 
L 36.620145 102.15252 
L 37.055178 101.038483 
L 37.647859 99.924446 
L 38.411892 98.81041 
L 39.348067 97.696373 
L 40.436626 96.582336 
L 41.631466 95.468299 
L 42.861857 94.354263 
L 44.0434 93.240226 
L 45.094251 92.126189 
L 45.949375 91.012152 
L 46.56693 89.898115 
L 46.925527 88.784079 
L 47.016065 87.670042 
L 46.834254 86.556005 
L 46.378902 85.441968 
L 45.657616 84.327932 
L 44.697559 83.213895 
L 43.55612 82.099858 
L 42.326011 80.985821 
L 41.131191 79.871784 
L 40.113216 78.757748 
L 39.410486 77.643711 
L 39.13449 76.529674 
L 39.347592 75.415637 
L 40.046843 74.301601 
L 41.158103 73.187564 
L 42.543741 72.073527 
L 44.024542 70.95949 
L 45.412192 69.845453 
L 46.544497 68.731417 
L 47.313814 67.61738 
L 47.681285 66.503343 
L 47.674694 65.389306 
L 47.373382 64.27527 
L 46.886962 63.161233 
L 46.334224 62.047196 
L 45.82574 60.933159 
L 45.450453 59.819122 
L 45.265263 58.705086 
L 45.287669 57.591049 
L 45.49362 56.477012 
L 45.823505 55.362975 
L 46.197413 54.248939 
L 46.536788 53.134902 
L 46.785833 52.020865 
L 46.924743 50.906828 
L 46.969486 49.792792 
L 46.958341 48.678755 
L 46.931239 47.564718 
L 46.911111 46.450681 
L 46.895111 45.336644 
L 46.858553 44.222608 
L 46.768254 43.108571 
L 46.598244 41.994534 
L 46.340979 40.880497 
L 46.010548 39.766461 
L 45.638291 38.652424 
L 45.263723 37.538387 
L 44.923968 36.42435 
L 44.644254 35.310313 
L 44.431386 34.196277 
L 44.271889 33.08224 
L 44.136098 31.968203 
L 43.988211 30.854166 
L 43.800431 29.74013 
L 43.567549 28.626093 
L 43.317508 27.512056 
L 43.114037 26.398019 
L 43.049211 25.283982 
L 43.226422 24.169946 
L 43.737304 23.055909 
L 44.638601 21.941872 
L 45.935802 20.827835 
L 47.578643 19.713799 
L 49.469793 18.599762 
L 51.48363 17.485725 
L 53.489137 16.371688 
L 55.370561 15.257651 
L 57.041486 14.143615 
L 58.450837 13.029578 
L 65.924163 13.029578 
L 65.924163 13.029578 
L 67.333514 14.143615 
L 69.004439 15.257651 
L 70.885863 16.371688 
L 72.89137 17.485725 
L 74.905207 18.599762 
L 76.796357 19.713799 
L 78.439198 20.827835 
L 79.736399 21.941872 
L 80.637696 23.055909 
L 81.148578 24.169946 
L 81.325789 25.283982 
L 81.260963 26.398019 
L 81.057492 27.512056 
L 80.807451 28.626093 
L 80.574569 29.74013 
L 80.386789 30.854166 
L 80.238902 31.968203 
L 80.103111 33.08224 
L 79.943614 34.196277 
L 79.730746 35.310313 
L 79.451032 36.42435 
L 79.111277 37.538387 
L 78.736709 38.652424 
L 78.364452 39.766461 
L 78.034021 40.880497 
L 77.776756 41.994534 
L 77.606746 43.108571 
L 77.516447 44.222608 
L 77.479889 45.336644 
L 77.463889 46.450681 
L 77.443761 47.564718 
L 77.416659 48.678755 
L 77.405514 49.792792 
L 77.450257 50.906828 
L 77.589167 52.020865 
L 77.838212 53.134902 
L 78.177587 54.248939 
L 78.551495 55.362975 
L 78.88138 56.477012 
L 79.087331 57.591049 
L 79.109737 58.705086 
L 78.924547 59.819122 
L 78.54926 60.933159 
L 78.040776 62.047196 
L 77.488038 63.161233 
L 77.001618 64.27527 
L 76.700306 65.389306 
L 76.693715 66.503343 
L 77.061186 67.61738 
L 77.830503 68.731417 
L 78.962808 69.845453 
L 80.350458 70.95949 
L 81.831259 72.073527 
L 83.216897 73.187564 
L 84.328157 74.301601 
L 85.027408 75.415637 
L 85.24051 76.529674 
L 84.964514 77.643711 
L 84.261784 78.757748 
L 83.243809 79.871784 
L 82.048989 80.985821 
L 80.81888 82.099858 
L 79.677441 83.213895 
L 78.717384 84.327932 
L 77.996098 85.441968 
L 77.540746 86.556005 
L 77.358935 87.670042 
L 77.449473 88.784079 
L 77.80807 89.898115 
L 78.425625 91.012152 
L 79.280749 92.126189 
L 80.3316 93.240226 
L 81.513143 94.354263 
L 82.743534 95.468299 
L 83.938374 96.582336 
L 85.026933 97.696373 
L 85.963108 98.81041 
L 86.727141 99.924446 
L 87.319822 101.038483 
L 87.754855 102.15252 
L 88.054327 103.266557 
L 88.24726 104.380594 
L 88.366305 105.49463 
L 88.437112 106.608667 
L 88.460227 107.722704 
L 88.393207 108.836741 
L 88.145262 109.950777 
L 87.593797 111.064814 
L 86.62226 112.178851 
L 85.166959 113.292888 
L 83.25372 114.406925 
L 81.007293 115.520961 
L 78.626487 116.634998 
L 76.331646 117.749035 
L 74.302653 118.863072 
L 72.630458 119.977108 
L 71.300796 121.091145 
L 70.216061 122.205182 
L 69.245109 123.319219 
z
" style="fill:#1f77b4;fill-opacity:0.3;"/>
   </g>
   <g id="matplotlib.axis_1"/>
   <g id="matplotlib.axis_2">
    <g id="ytick_1">
     <g id="line2d_1">
      <defs>
       <path d="M 0 0 
L -3.5 0 
" id="me6c15eb053" style="stroke:#000000;stroke-width:0.8;"/>
      </defs>
      <g>
       <use style="stroke:#000000;stroke-width:0.8;" x="33.2875" xlink:href="#me6c15eb053" y="123.319219"/>
      </g>
     </g>
     <g id="text_1">
      <!-- 0 -->
      <defs>
       <path d="M 31.78125 66.40625 
Q 24.171875 66.40625 20.328125 58.90625 
Q 16.5 51.421875 16.5 36.375 
Q 16.5 21.390625 20.328125 13.890625 
Q 24.171875 6.390625 31.78125 6.390625 
Q 39.453125 6.390625 43.28125 13.890625 
Q 47.125 21.390625 47.125 36.375 
Q 47.125 51.421875 43.28125 58.90625 
Q 39.453125 66.40625 31.78125 66.40625 
z
M 31.78125 74.21875 
Q 44.046875 74.21875 50.515625 64.515625 
Q 56.984375 54.828125 56.984375 36.375 
Q 56.984375 17.96875 50.515625 8.265625 
Q 44.046875 -1.421875 31.78125 -1.421875 
Q 19.53125 -1.421875 13.0625 8.265625 
Q 6.59375 17.96875 6.59375 36.375 
Q 6.59375 54.828125 13.0625 64.515625 
Q 19.53125 74.21875 31.78125 74.21875 
z
" id="DejaVuSans-30"/>
      </defs>
      <g transform="translate(19.925 127.118437)scale(0.1 -0.1)">
       <use xlink:href="#DejaVuSans-30"/>
      </g>
     </g>
    </g>
    <g id="ytick_2">
     <g id="line2d_2">
      <g>
       <use style="stroke:#000000;stroke-width:0.8;" x="33.2875" xlink:href="#me6c15eb053" y="67.159219"/>
      </g>
     </g>
     <g id="text_2">
      <!-- 150 -->
      <defs>
       <path d="M 12.40625 8.296875 
L 28.515625 8.296875 
L 28.515625 63.921875 
L 10.984375 60.40625 
L 10.984375 69.390625 
L 28.421875 72.90625 
L 38.28125 72.90625 
L 38.28125 8.296875 
L 54.390625 8.296875 
L 54.390625 0 
L 12.40625 0 
z
" id="DejaVuSans-31"/>
       <path d="M 10.796875 72.90625 
L 49.515625 72.90625 
L 49.515625 64.59375 
L 19.828125 64.59375 
L 19.828125 46.734375 
Q 21.96875 47.46875 24.109375 47.828125 
Q 26.265625 48.1875 28.421875 48.1875 
Q 40.625 48.1875 47.75 41.5 
Q 54.890625 34.8125 54.890625 23.390625 
Q 54.890625 11.625 47.5625 5.09375 
Q 40.234375 -1.421875 26.90625 -1.421875 
Q 22.3125 -1.421875 17.546875 -0.640625 
Q 12.796875 0.140625 7.71875 1.703125 
L 7.71875 11.625 
Q 12.109375 9.234375 16.796875 8.0625 
Q 21.484375 6.890625 26.703125 6.890625 
Q 35.15625 6.890625 40.078125 11.328125 
Q 45.015625 15.765625 45.015625 23.390625 
Q 45.015625 31 40.078125 35.4375 
Q 35.15625 39.890625 26.703125 39.890625 
Q 22.75 39.890625 18.8125 39.015625 
Q 14.890625 38.140625 10.796875 36.28125 
z
" id="DejaVuSans-35"/>
      </defs>
      <g transform="translate(7.2 70.958437)scale(0.1 -0.1)">
       <use xlink:href="#DejaVuSans-31"/>
       <use x="63.623047" xlink:href="#DejaVuSans-35"/>
       <use x="127.246094" xlink:href="#DejaVuSans-30"/>
      </g>
     </g>
    </g>
    <g id="ytick_3">
     <g id="line2d_3">
      <g>
       <use style="stroke:#000000;stroke-width:0.8;" x="33.2875" xlink:href="#me6c15eb053" y="10.999219"/>
      </g>
     </g>
     <g id="text_3">
      <!-- 300 -->
      <defs>
       <path d="M 40.578125 39.3125 
Q 47.65625 37.796875 51.625 33 
Q 55.609375 28.21875 55.609375 21.1875 
Q 55.609375 10.40625 48.1875 4.484375 
Q 40.765625 -1.421875 27.09375 -1.421875 
Q 22.515625 -1.421875 17.65625 -0.515625 
Q 12.796875 0.390625 7.625 2.203125 
L 7.625 11.71875 
Q 11.71875 9.328125 16.59375 8.109375 
Q 21.484375 6.890625 26.8125 6.890625 
Q 36.078125 6.890625 40.9375 10.546875 
Q 45.796875 14.203125 45.796875 21.1875 
Q 45.796875 27.640625 41.28125 31.265625 
Q 36.765625 34.90625 28.71875 34.90625 
L 20.21875 34.90625 
L 20.21875 43.015625 
L 29.109375 43.015625 
Q 36.375 43.015625 40.234375 45.921875 
Q 44.09375 48.828125 44.09375 54.296875 
Q 44.09375 59.90625 40.109375 62.90625 
Q 36.140625 65.921875 28.71875 65.921875 
Q 24.65625 65.921875 20.015625 65.03125 
Q 15.375 64.15625 9.8125 62.3125 
L 9.8125 71.09375 
Q 15.4375 72.65625 20.34375 73.4375 
Q 25.25 74.21875 29.59375 74.21875 
Q 40.828125 74.21875 47.359375 69.109375 
Q 53.90625 64.015625 53.90625 55.328125 
Q 53.90625 49.265625 50.4375 45.09375 
Q 46.96875 40.921875 40.578125 39.3125 
z
" id="DejaVuSans-33"/>
      </defs>
      <g transform="translate(7.2 14.798437)scale(0.1 -0.1)">
       <use xlink:href="#DejaVuSans-33"/>
       <use x="63.623047" xlink:href="#DejaVuSans-30"/>
       <use x="127.246094" xlink:href="#DejaVuSans-30"/>
      </g>
     </g>
    </g>
   </g>
   <g id="patch_3">
    <path d="M 33.2875 123.319219 
L 33.2875 10.999219 
" style="fill:none;stroke:#000000;stroke-linecap:square;stroke-linejoin:miter;stroke-width:0.8;"/>
   </g>
   <g id="patch_4">
    <path d="M 33.2875 123.319219 
L 91.0875 123.319219 
" style="fill:none;stroke:#000000;stroke-linecap:square;stroke-linejoin:miter;stroke-width:0.8;"/>
   </g>
  </g>
 </g>
 <defs>
  <clipPath id="p6439dbe9c2">
   <rect height="112.32" width="57.8" x="33.2875" y="10.999219"/>
  </clipPath>
 </defs>
</svg>
