<?xml version="1.0" encoding="utf-8" standalone="no"?>
<!DOCTYPE svg PUBLIC "-//W3C//DTD SVG 1.1//EN"
  "http://www.w3.org/Graphics/SVG/1.1/DTD/svg11.dtd">
<!-- Created with matplotlib (http://matplotlib.org/) -->
<svg height="136pt" version="1.1" viewBox="0 0 137 136" width="137pt" xmlns="http://www.w3.org/2000/svg" xmlns:xlink="http://www.w3.org/1999/xlink">
 <defs>
  <style type="text/css">
*{stroke-linecap:butt;stroke-linejoin:round;}
  </style>
 </defs>
 <g id="figure_1">
  <g id="patch_1">
   <path d="M 0 136.398125 
L 137.7875 136.398125 
L 137.7875 0 
L 0 0 
z
" style="fill:#ffffff;"/>
  </g>
  <g id="axes_1">
   <g id="patch_2">
    <path d="M 33.2875 123.319219 
L 127.0875 123.319219 
L 127.0875 10.999219 
L 33.2875 10.999219 
z
" style="fill:#ffffff;"/>
   </g>
   <g id="PolyCollection_1">
    <path clip-path="url(#pd076da5f43)" d="M 80.299204 123.319219 
L 73.014297 123.319219 
L 73.306305 122.757001 
L 74.119235 122.194783 
L 75.214086 121.632566 
L 76.291022 121.070348 
L 77.078213 120.50813 
L 77.392471 119.945913 
L 77.159087 119.383695 
L 76.400755 118.821477 
L 75.211848 118.25926 
L 73.727294 117.697042 
L 72.087239 117.134824 
L 70.398431 116.572607 
L 68.700059 116.010389 
L 66.948185 115.448171 
L 65.032141 114.885953 
L 62.825624 114.323736 
L 60.257846 113.761518 
L 57.373441 113.1993 
L 54.345289 112.637083 
L 51.421073 112.074865 
L 48.820307 111.512647 
L 46.635345 110.95043 
L 44.799185 110.388212 
L 43.148802 109.825994 
L 41.550486 109.263777 
L 40.007361 108.701559 
L 38.677897 108.139341 
L 37.795989 107.577124 
L 37.551136 107.014906 
L 38.008766 106.452688 
L 39.112753 105.89047 
L 40.749411 105.328253 
L 42.812937 104.766035 
L 45.219696 104.203817 
L 47.861144 103.6416 
L 50.53289 103.079382 
L 52.901999 102.517164 
L 54.560892 101.954947 
L 55.167744 101.392729 
L 54.615027 100.830511 
L 53.135398 100.268294 
L 51.272592 99.706076 
L 49.709287 99.143858 
L 49.019015 98.581641 
L 49.451337 98.019423 
L 50.845227 97.457205 
L 52.705843 96.894987 
L 54.409251 96.33277 
L 55.451133 95.770552 
L 55.64326 95.208334 
L 55.182818 94.646117 
L 54.566456 94.083899 
L 54.381339 93.521681 
L 55.05904 92.959464 
L 56.697508 92.397246 
L 59.026149 91.835028 
L 61.522645 91.272811 
L 63.623551 90.710593 
L 64.93743 90.148375 
L 65.378367 89.586158 
L 65.176189 89.02394 
L 64.767909 88.461722 
L 64.617444 87.899504 
L 65.035086 87.337287 
L 66.064641 86.775069 
L 67.474085 86.212851 
L 68.840702 85.650634 
L 69.688743 85.088416 
L 69.631686 84.526198 
L 68.485259 83.963981 
L 66.33167 83.401763 
L 63.519307 82.839545 
L 60.585443 82.277328 
L 58.109458 81.71511 
L 56.540346 81.152892 
L 56.068506 80.590675 
L 56.599163 80.028457 
L 57.832986 79.466239 
L 59.403376 78.904021 
L 60.998751 78.341804 
L 62.421724 77.779586 
L 63.581008 77.217368 
L 64.44489 76.655151 
L 64.99435 76.092933 
L 65.204673 75.530715 
L 65.065427 74.968498 
L 64.62505 74.40628 
L 64.025985 73.844062 
L 63.493623 73.281845 
L 63.266928 72.719627 
L 63.499992 72.157409 
L 64.192662 71.595192 
L 65.198417 71.032974 
L 66.310498 70.470756 
L 67.375445 69.908538 
L 68.365062 69.346321 
L 69.36686 68.784103 
L 70.506803 68.221885 
L 71.857986 67.659668 
L 80.299204 67.659668 
L 80.299204 67.659668 
L 80.299204 68.221885 
L 80.299204 68.784103 
L 80.299204 69.346321 
L 80.299204 69.908538 
L 80.299204 70.470756 
L 80.299204 71.032974 
L 80.299204 71.595192 
L 80.299204 72.157409 
L 80.299204 72.719627 
L 80.299204 73.281845 
L 80.299204 73.844062 
L 80.299204 74.40628 
L 80.299204 74.968498 
L 80.299204 75.530715 
L 80.299204 76.092933 
L 80.299204 76.655151 
L 80.299204 77.217368 
L 80.299204 77.779586 
L 80.299204 78.341804 
L 80.299204 78.904021 
L 80.299204 79.466239 
L 80.299204 80.028457 
L 80.299204 80.590675 
L 80.299204 81.152892 
L 80.299204 81.71511 
L 80.299204 82.277328 
L 80.299204 82.839545 
L 80.299204 83.401763 
L 80.299204 83.963981 
L 80.299204 84.526198 
L 80.299204 85.088416 
L 80.299204 85.650634 
L 80.299204 86.212851 
L 80.299204 86.775069 
L 80.299204 87.337287 
L 80.299204 87.899504 
L 80.299204 88.461722 
L 80.299204 89.02394 
L 80.299204 89.586158 
L 80.299204 90.148375 
L 80.299204 90.710593 
L 80.299204 91.272811 
L 80.299204 91.835028 
L 80.299204 92.397246 
L 80.299204 92.959464 
L 80.299204 93.521681 
L 80.299204 94.083899 
L 80.299204 94.646117 
L 80.299204 95.208334 
L 80.299204 95.770552 
L 80.299204 96.33277 
L 80.299204 96.894987 
L 80.299204 97.457205 
L 80.299204 98.019423 
L 80.299204 98.581641 
L 80.299204 99.143858 
L 80.299204 99.706076 
L 80.299204 100.268294 
L 80.299204 100.830511 
L 80.299204 101.392729 
L 80.299204 101.954947 
L 80.299204 102.517164 
L 80.299204 103.079382 
L 80.299204 103.6416 
L 80.299204 104.203817 
L 80.299204 104.766035 
L 80.299204 105.328253 
L 80.299204 105.89047 
L 80.299204 106.452688 
L 80.299204 107.014906 
L 80.299204 107.577124 
L 80.299204 108.139341 
L 80.299204 108.701559 
L 80.299204 109.263777 
L 80.299204 109.825994 
L 80.299204 110.388212 
L 80.299204 110.95043 
L 80.299204 111.512647 
L 80.299204 112.074865 
L 80.299204 112.637083 
L 80.299204 113.1993 
L 80.299204 113.761518 
L 80.299204 114.323736 
L 80.299204 114.885953 
L 80.299204 115.448171 
L 80.299204 116.010389 
L 80.299204 116.572607 
L 80.299204 117.134824 
L 80.299204 117.697042 
L 80.299204 118.25926 
L 80.299204 118.821477 
L 80.299204 119.383695 
L 80.299204 119.945913 
L 80.299204 120.50813 
L 80.299204 121.070348 
L 80.299204 121.632566 
L 80.299204 122.194783 
L 80.299204 122.757001 
L 80.299204 123.319219 
z
" style="fill:#1f77b4;fill-opacity:0.3;"/>
   </g>
   <g id="PolyCollection_2">
    <path clip-path="url(#pd076da5f43)" d="M 81.813951 123.319219 
L 80.20585 123.319219 
L 80.20585 122.250957 
L 80.20585 121.182696 
L 80.20585 120.114435 
L 80.20585 119.046173 
L 80.20585 117.977912 
L 80.20585 116.909651 
L 80.20585 115.841389 
L 80.20585 114.773128 
L 80.20585 113.704867 
L 80.20585 112.636605 
L 80.20585 111.568344 
L 80.20585 110.500083 
L 80.20585 109.431821 
L 80.20585 108.36356 
L 80.20585 107.295298 
L 80.20585 106.227037 
L 80.20585 105.158776 
L 80.20585 104.090514 
L 80.20585 103.022253 
L 80.20585 101.953992 
L 80.20585 100.88573 
L 80.20585 99.817469 
L 80.20585 98.749208 
L 80.20585 97.680946 
L 80.20585 96.612685 
L 80.20585 95.544424 
L 80.20585 94.476162 
L 80.20585 93.407901 
L 80.20585 92.339639 
L 80.20585 91.271378 
L 80.20585 90.203117 
L 80.20585 89.134855 
L 80.20585 88.066594 
L 80.20585 86.998333 
L 80.20585 85.930071 
L 80.20585 84.86181 
L 80.20585 83.793549 
L 80.20585 82.725287 
L 80.20585 81.657026 
L 80.20585 80.588765 
L 80.20585 79.520503 
L 80.20585 78.452242 
L 80.20585 77.383981 
L 80.20585 76.315719 
L 80.20585 75.247458 
L 80.20585 74.179196 
L 80.20585 73.110935 
L 80.20585 72.042674 
L 80.20585 70.974412 
L 80.20585 69.906151 
L 80.20585 68.83789 
L 80.20585 67.769628 
L 80.20585 66.701367 
L 80.20585 65.633106 
L 80.20585 64.564844 
L 80.20585 63.496583 
L 80.20585 62.428322 
L 80.20585 61.36006 
L 80.20585 60.291799 
L 80.20585 59.223538 
L 80.20585 58.155276 
L 80.20585 57.087015 
L 80.20585 56.018753 
L 80.20585 54.950492 
L 80.20585 53.882231 
L 80.20585 52.813969 
L 80.20585 51.745708 
L 80.20585 50.677447 
L 80.20585 49.609185 
L 80.20585 48.540924 
L 80.20585 47.472663 
L 80.20585 46.404401 
L 80.20585 45.33614 
L 80.20585 44.267879 
L 80.20585 43.199617 
L 80.20585 42.131356 
L 80.20585 41.063094 
L 80.20585 39.994833 
L 80.20585 38.926572 
L 80.20585 37.85831 
L 80.20585 36.790049 
L 80.20585 35.721788 
L 80.20585 34.653526 
L 80.20585 33.585265 
L 80.20585 32.517004 
L 80.20585 31.448742 
L 80.20585 30.380481 
L 80.20585 29.31222 
L 80.20585 28.243958 
L 80.20585 27.175697 
L 80.20585 26.107436 
L 80.20585 25.039174 
L 80.20585 23.970913 
L 80.20585 22.902651 
L 80.20585 21.83439 
L 80.20585 20.766129 
L 80.20585 19.697867 
L 80.20585 18.629606 
L 80.20585 17.561345 
L 80.659604 17.561345 
L 80.659604 17.561345 
L 80.967437 18.629606 
L 81.373822 19.697867 
L 81.843701 20.766129 
L 82.314415 21.83439 
L 82.720324 22.902651 
L 83.021606 23.970913 
L 83.217855 25.039174 
L 83.340626 26.107436 
L 83.434482 27.175697 
L 83.538553 28.243958 
L 83.674645 29.31222 
L 83.844632 30.380481 
L 84.037972 31.448742 
L 84.244288 32.517004 
L 84.461633 33.585265 
L 84.696463 34.653526 
L 84.960317 35.721788 
L 85.267564 36.790049 
L 85.629928 37.85831 
L 86.042653 38.926572 
L 86.469909 39.994833 
L 86.847877 41.063094 
L 87.11457 42.131356 
L 87.249174 43.199617 
L 87.286799 44.267879 
L 87.290424 45.33614 
L 87.301073 46.404401 
L 87.311062 47.472663 
L 87.285265 48.540924 
L 87.209303 49.609185 
L 87.118775 50.677447 
L 87.084315 51.745708 
L 87.168338 52.813969 
L 87.388962 53.882231 
L 87.713525 54.950492 
L 88.080298 56.018753 
L 88.433317 57.087015 
L 88.753383 58.155276 
L 89.073455 59.223538 
L 89.47732 60.291799 
L 90.089572 61.36006 
L 91.059691 62.428322 
L 92.527128 63.496583 
L 94.555814 64.564844 
L 97.062269 65.633106 
L 99.797242 66.701367 
L 102.419878 67.769628 
L 104.627962 68.83789 
L 106.258979 69.906151 
L 107.312791 70.974412 
L 107.91665 72.042674 
L 108.271013 73.110935 
L 108.585966 74.179196 
L 109.009108 75.247458 
L 109.563324 76.315719 
L 110.116867 77.383981 
L 110.404155 78.452242 
L 110.124083 79.520503 
L 109.118046 80.588765 
L 107.537509 81.657026 
L 105.847905 82.725287 
L 104.612267 83.793549 
L 104.201182 84.86181 
L 104.664647 85.930071 
L 105.853773 86.998333 
L 107.634154 88.066594 
L 109.948345 89.134855 
L 112.667881 90.203117 
L 115.440013 91.271378 
L 117.770105 92.339639 
L 119.310983 93.407901 
L 120.061708 94.476162 
L 120.260599 95.544424 
L 120.115034 96.612685 
L 119.696407 97.680946 
L 119.10082 98.749208 
L 118.627177 99.817469 
L 118.69449 100.88573 
L 119.530016 101.953992 
L 120.921487 103.022253 
L 122.259237 104.090514 
L 122.823864 105.158776 
L 122.100728 106.227037 
L 119.938612 107.295298 
L 116.513167 108.36356 
L 112.178365 109.431821 
L 107.33048 110.500083 
L 102.354192 111.568344 
L 97.61627 112.636605 
L 93.429603 113.704867 
L 89.978978 114.773128 
L 87.282859 115.841389 
L 85.245444 116.909651 
L 83.756928 117.977912 
L 82.750773 119.046173 
L 82.177745 120.114435 
L 81.942642 121.182696 
L 81.881756 122.250957 
L 81.813951 123.319219 
z
" style="fill:#ff7f0e;fill-opacity:0.3;"/>
   </g>
   <g id="matplotlib.axis_1"/>
   <g id="matplotlib.axis_2">
    <g id="ytick_1">
     <g id="line2d_1">
      <defs>
       <path d="M 0 0 
L -3.5 0 
" id="m19cecee9d6" style="stroke:#000000;stroke-width:0.8;"/>
      </defs>
      <g>
       <use style="stroke:#000000;stroke-width:0.8;" x="33.2875" xlink:href="#m19cecee9d6" y="123.319219"/>
      </g>
     </g>
     <g id="text_1">
      <!-- 0 -->
      <defs>
       <path d="M 31.78125 66.40625 
Q 24.171875 66.40625 20.328125 58.90625 
Q 16.5 51.421875 16.5 36.375 
Q 16.5 21.390625 20.328125 13.890625 
Q 24.171875 6.390625 31.78125 6.390625 
Q 39.453125 6.390625 43.28125 13.890625 
Q 47.125 21.390625 47.125 36.375 
Q 47.125 51.421875 43.28125 58.90625 
Q 39.453125 66.40625 31.78125 66.40625 
z
M 31.78125 74.21875 
Q 44.046875 74.21875 50.515625 64.515625 
Q 56.984375 54.828125 56.984375 36.375 
Q 56.984375 17.96875 50.515625 8.265625 
Q 44.046875 -1.421875 31.78125 -1.421875 
Q 19.53125 -1.421875 13.0625 8.265625 
Q 6.59375 17.96875 6.59375 36.375 
Q 6.59375 54.828125 13.0625 64.515625 
Q 19.53125 74.21875 31.78125 74.21875 
z
" id="DejaVuSans-30"/>
      </defs>
      <g transform="translate(19.925 127.118437)scale(0.1 -0.1)">
       <use xlink:href="#DejaVuSans-30"/>
      </g>
     </g>
    </g>
    <g id="ytick_2">
     <g id="line2d_2">
      <g>
       <use style="stroke:#000000;stroke-width:0.8;" x="33.2875" xlink:href="#m19cecee9d6" y="67.159219"/>
      </g>
     </g>
     <g id="text_2">
      <!-- 150 -->
      <defs>
       <path d="M 12.40625 8.296875 
L 28.515625 8.296875 
L 28.515625 63.921875 
L 10.984375 60.40625 
L 10.984375 69.390625 
L 28.421875 72.90625 
L 38.28125 72.90625 
L 38.28125 8.296875 
L 54.390625 8.296875 
L 54.390625 0 
L 12.40625 0 
z
" id="DejaVuSans-31"/>
       <path d="M 10.796875 72.90625 
L 49.515625 72.90625 
L 49.515625 64.59375 
L 19.828125 64.59375 
L 19.828125 46.734375 
Q 21.96875 47.46875 24.109375 47.828125 
Q 26.265625 48.1875 28.421875 48.1875 
Q 40.625 48.1875 47.75 41.5 
Q 54.890625 34.8125 54.890625 23.390625 
Q 54.890625 11.625 47.5625 5.09375 
Q 40.234375 -1.421875 26.90625 -1.421875 
Q 22.3125 -1.421875 17.546875 -0.640625 
Q 12.796875 0.140625 7.71875 1.703125 
L 7.71875 11.625 
Q 12.109375 9.234375 16.796875 8.0625 
Q 21.484375 6.890625 26.703125 6.890625 
Q 35.15625 6.890625 40.078125 11.328125 
Q 45.015625 15.765625 45.015625 23.390625 
Q 45.015625 31 40.078125 35.4375 
Q 35.15625 39.890625 26.703125 39.890625 
Q 22.75 39.890625 18.8125 39.015625 
Q 14.890625 38.140625 10.796875 36.28125 
z
" id="DejaVuSans-35"/>
      </defs>
      <g transform="translate(7.2 70.958437)scale(0.1 -0.1)">
       <use xlink:href="#DejaVuSans-31"/>
       <use x="63.623047" xlink:href="#DejaVuSans-35"/>
       <use x="127.246094" xlink:href="#DejaVuSans-30"/>
      </g>
     </g>
    </g>
    <g id="ytick_3">
     <g id="line2d_3">
      <g>
       <use style="stroke:#000000;stroke-width:0.8;" x="33.2875" xlink:href="#m19cecee9d6" y="10.999219"/>
      </g>
     </g>
     <g id="text_3">
      <!-- 300 -->
      <defs>
       <path d="M 40.578125 39.3125 
Q 47.65625 37.796875 51.625 33 
Q 55.609375 28.21875 55.609375 21.1875 
Q 55.609375 10.40625 48.1875 4.484375 
Q 40.765625 -1.421875 27.09375 -1.421875 
Q 22.515625 -1.421875 17.65625 -0.515625 
Q 12.796875 0.390625 7.625 2.203125 
L 7.625 11.71875 
Q 11.71875 9.328125 16.59375 8.109375 
Q 21.484375 6.890625 26.8125 6.890625 
Q 36.078125 6.890625 40.9375 10.546875 
Q 45.796875 14.203125 45.796875 21.1875 
Q 45.796875 27.640625 41.28125 31.265625 
Q 36.765625 34.90625 28.71875 34.90625 
L 20.21875 34.90625 
L 20.21875 43.015625 
L 29.109375 43.015625 
Q 36.375 43.015625 40.234375 45.921875 
Q 44.09375 48.828125 44.09375 54.296875 
Q 44.09375 59.90625 40.109375 62.90625 
Q 36.140625 65.921875 28.71875 65.921875 
Q 24.65625 65.921875 20.015625 65.03125 
Q 15.375 64.15625 9.8125 62.3125 
L 9.8125 71.09375 
Q 15.4375 72.65625 20.34375 73.4375 
Q 25.25 74.21875 29.59375 74.21875 
Q 40.828125 74.21875 47.359375 69.109375 
Q 53.90625 64.015625 53.90625 55.328125 
Q 53.90625 49.265625 50.4375 45.09375 
Q 46.96875 40.921875 40.578125 39.3125 
z
" id="DejaVuSans-33"/>
      </defs>
      <g transform="translate(7.2 14.798437)scale(0.1 -0.1)">
       <use xlink:href="#DejaVuSans-33"/>
       <use x="63.623047" xlink:href="#DejaVuSans-30"/>
       <use x="127.246094" xlink:href="#DejaVuSans-30"/>
      </g>
     </g>
    </g>
   </g>
   <g id="patch_3">
    <path d="M 33.2875 123.319219 
L 33.2875 10.999219 
" style="fill:none;stroke:#000000;stroke-linecap:square;stroke-linejoin:miter;stroke-width:0.8;"/>
   </g>
   <g id="patch_4">
    <path d="M 33.2875 123.319219 
L 127.0875 123.319219 
" style="fill:none;stroke:#000000;stroke-linecap:square;stroke-linejoin:miter;stroke-width:0.8;"/>
   </g>
  </g>
 </g>
 <defs>
  <clipPath id="pd076da5f43">
   <rect height="112.32" width="93.8" x="33.2875" y="10.999219"/>
  </clipPath>
 </defs>
</svg>
