<?xml version="1.0" encoding="utf-8" standalone="no"?>
<!DOCTYPE svg PUBLIC "-//W3C//DTD SVG 1.1//EN"
  "http://www.w3.org/Graphics/SVG/1.1/DTD/svg11.dtd">
<!-- Created with matplotlib (http://matplotlib.org/) -->
<svg height="136pt" version="1.1" viewBox="0 0 101 136" width="101pt" xmlns="http://www.w3.org/2000/svg" xmlns:xlink="http://www.w3.org/1999/xlink">
 <defs>
  <style type="text/css">
*{stroke-linecap:butt;stroke-linejoin:round;}
  </style>
 </defs>
 <g id="figure_1">
  <g id="patch_1">
   <path d="M 0 136.398125 
L 101.7875 136.398125 
L 101.7875 0 
L 0 0 
z
" style="fill:#ffffff;"/>
  </g>
  <g id="axes_1">
   <g id="patch_2">
    <path d="M 33.2875 123.319219 
L 91.0875 123.319219 
L 91.0875 10.999219 
L 33.2875 10.999219 
z
" style="fill:#ffffff;"/>
   </g>
   <g id="PolyCollection_1">
    <path clip-path="url(#pd3cd6a2fff)" d="M 70.262081 123.319219 
L 54.112919 123.319219 
L 52.941898 122.204843 
L 51.638506 121.090467 
L 50.090177 119.976091 
L 48.222917 118.861715 
L 46.046348 117.747339 
L 43.672329 116.632963 
L 41.298209 115.518587 
L 39.160189 114.404212 
L 37.473399 113.289836 
L 36.379041 112.17546 
L 35.914773 111.061084 
L 36.015066 109.946708 
L 36.537671 108.832332 
L 37.304468 107.717956 
L 38.142586 106.60358 
L 38.914843 105.489204 
L 39.535007 104.374829 
L 39.969442 103.260453 
L 40.229677 102.146077 
L 40.360024 101.031701 
L 40.422559 99.917325 
L 40.480906 98.802949 
L 40.585218 97.688573 
L 40.762078 96.574197 
L 41.012694 95.459821 
L 41.319783 94.345445 
L 41.659298 93.23107 
L 42.010666 92.116694 
L 42.360345 91.002318 
L 42.698097 89.887942 
L 43.010302 88.773566 
L 43.276739 87.65919 
L 43.475009 86.544814 
L 43.591572 85.430438 
L 43.633487 84.316062 
L 43.633492 83.201686 
L 43.643967 82.087311 
L 43.721127 80.972935 
L 43.906089 79.858559 
L 44.211259 78.744183 
L 44.617811 77.629807 
L 45.084419 76.515431 
L 45.562213 75.401055 
L 46.008866 74.286679 
L 46.396523 73.172303 
L 46.712259 72.057927 
L 46.953417 70.943552 
L 47.121726 69.829176 
L 47.219306 68.7148 
L 47.247694 67.600424 
L 47.209204 66.486048 
L 47.109068 65.371672 
L 46.956941 64.257296 
L 46.766954 63.14292 
L 46.556199 62.028544 
L 46.341961 60.914169 
L 46.138368 59.799793 
L 45.953382 58.685417 
L 45.787127 57.571041 
L 45.632211 56.456665 
L 45.475948 55.342289 
L 45.303443 54.227913 
L 45.100124 53.113537 
L 44.852759 51.999161 
L 44.549244 50.884785 
L 44.178526 49.77041 
L 43.732131 48.656034 
L 43.207485 47.541658 
L 42.611511 46.427282 
L 41.962008 45.312906 
L 41.285144 44.19853 
L 40.609649 43.084154 
L 39.960375 41.969778 
L 39.354336 40.855402 
L 38.800709 39.741026 
L 38.303892 38.626651 
L 37.867104 37.512275 
L 37.494307 36.397899 
L 37.189634 35.283523 
L 36.955162 34.169147 
L 36.788685 33.054771 
L 36.683228 31.940395 
L 36.629537 30.826019 
L 36.621831 29.711643 
L 36.6658 28.597268 
L 36.786404 27.482892 
L 37.032039 26.368516 
L 37.471948 25.25414 
L 38.185366 24.139764 
L 39.243802 23.025388 
L 40.690729 21.911012 
L 42.524771 20.796636 
L 44.692036 19.68226 
L 47.090621 18.567884 
L 49.586376 17.453509 
L 52.035499 16.339133 
L 54.307764 15.224757 
L 56.304708 14.110381 
L 57.969326 12.996005 
L 66.405674 12.996005 
L 66.405674 12.996005 
L 68.070292 14.110381 
L 70.067236 15.224757 
L 72.339501 16.339133 
L 74.788624 17.453509 
L 77.284379 18.567884 
L 79.682964 19.68226 
L 81.850229 20.796636 
L 83.684271 21.911012 
L 85.131198 23.025388 
L 86.189634 24.139764 
L 86.903052 25.25414 
L 87.342961 26.368516 
L 87.588596 27.482892 
L 87.7092 28.597268 
L 87.753169 29.711643 
L 87.745463 30.826019 
L 87.691772 31.940395 
L 87.586315 33.054771 
L 87.419838 34.169147 
L 87.185366 35.283523 
L 86.880693 36.397899 
L 86.507896 37.512275 
L 86.071108 38.626651 
L 85.574291 39.741026 
L 85.020664 40.855402 
L 84.414625 41.969778 
L 83.765351 43.084154 
L 83.089856 44.19853 
L 82.412992 45.312906 
L 81.763489 46.427282 
L 81.167515 47.541658 
L 80.642869 48.656034 
L 80.196474 49.77041 
L 79.825756 50.884785 
L 79.522241 51.999161 
L 79.274876 53.113537 
L 79.071557 54.227913 
L 78.899052 55.342289 
L 78.742789 56.456665 
L 78.587873 57.571041 
L 78.421618 58.685417 
L 78.236632 59.799793 
L 78.033039 60.914169 
L 77.818801 62.028544 
L 77.608046 63.14292 
L 77.418059 64.257296 
L 77.265932 65.371672 
L 77.165796 66.486048 
L 77.127306 67.600424 
L 77.155694 68.7148 
L 77.253274 69.829176 
L 77.421583 70.943552 
L 77.662741 72.057927 
L 77.978477 73.172303 
L 78.366134 74.286679 
L 78.812787 75.401055 
L 79.290581 76.515431 
L 79.757189 77.629807 
L 80.163741 78.744183 
L 80.468911 79.858559 
L 80.653873 80.972935 
L 80.731033 82.087311 
L 80.741508 83.201686 
L 80.741513 84.316062 
L 80.783428 85.430438 
L 80.899991 86.544814 
L 81.098261 87.65919 
L 81.364698 88.773566 
L 81.676903 89.887942 
L 82.014655 91.002318 
L 82.364334 92.116694 
L 82.715702 93.23107 
L 83.055217 94.345445 
L 83.362306 95.459821 
L 83.612922 96.574197 
L 83.789782 97.688573 
L 83.894094 98.802949 
L 83.952441 99.917325 
L 84.014976 101.031701 
L 84.145323 102.146077 
L 84.405558 103.260453 
L 84.839993 104.374829 
L 85.460157 105.489204 
L 86.232414 106.60358 
L 87.070532 107.717956 
L 87.837329 108.832332 
L 88.359934 109.946708 
L 88.460227 111.061084 
L 87.995959 112.17546 
L 86.901601 113.289836 
L 85.214811 114.404212 
L 83.076791 115.518587 
L 80.702671 116.632963 
L 78.328652 117.747339 
L 76.152083 118.861715 
L 74.284823 119.976091 
L 72.736494 121.090467 
L 71.433102 122.204843 
L 70.262081 123.319219 
z
" style="fill:#1f77b4;fill-opacity:0.3;"/>
   </g>
   <g id="matplotlib.axis_1"/>
   <g id="matplotlib.axis_2">
    <g id="ytick_1">
     <g id="line2d_1">
      <defs>
       <path d="M 0 0 
L -3.5 0 
" id="mb74c501d7b" style="stroke:#000000;stroke-width:0.8;"/>
      </defs>
      <g>
       <use style="stroke:#000000;stroke-width:0.8;" x="33.2875" xlink:href="#mb74c501d7b" y="123.319219"/>
      </g>
     </g>
     <g id="text_1">
      <!-- 0 -->
      <defs>
       <path d="M 31.78125 66.40625 
Q 24.171875 66.40625 20.328125 58.90625 
Q 16.5 51.421875 16.5 36.375 
Q 16.5 21.390625 20.328125 13.890625 
Q 24.171875 6.390625 31.78125 6.390625 
Q 39.453125 6.390625 43.28125 13.890625 
Q 47.125 21.390625 47.125 36.375 
Q 47.125 51.421875 43.28125 58.90625 
Q 39.453125 66.40625 31.78125 66.40625 
z
M 31.78125 74.21875 
Q 44.046875 74.21875 50.515625 64.515625 
Q 56.984375 54.828125 56.984375 36.375 
Q 56.984375 17.96875 50.515625 8.265625 
Q 44.046875 -1.421875 31.78125 -1.421875 
Q 19.53125 -1.421875 13.0625 8.265625 
Q 6.59375 17.96875 6.59375 36.375 
Q 6.59375 54.828125 13.0625 64.515625 
Q 19.53125 74.21875 31.78125 74.21875 
z
" id="DejaVuSans-30"/>
      </defs>
      <g transform="translate(19.925 127.118437)scale(0.1 -0.1)">
       <use xlink:href="#DejaVuSans-30"/>
      </g>
     </g>
    </g>
    <g id="ytick_2">
     <g id="line2d_2">
      <g>
       <use style="stroke:#000000;stroke-width:0.8;" x="33.2875" xlink:href="#mb74c501d7b" y="67.159219"/>
      </g>
     </g>
     <g id="text_2">
      <!-- 150 -->
      <defs>
       <path d="M 12.40625 8.296875 
L 28.515625 8.296875 
L 28.515625 63.921875 
L 10.984375 60.40625 
L 10.984375 69.390625 
L 28.421875 72.90625 
L 38.28125 72.90625 
L 38.28125 8.296875 
L 54.390625 8.296875 
L 54.390625 0 
L 12.40625 0 
z
" id="DejaVuSans-31"/>
       <path d="M 10.796875 72.90625 
L 49.515625 72.90625 
L 49.515625 64.59375 
L 19.828125 64.59375 
L 19.828125 46.734375 
Q 21.96875 47.46875 24.109375 47.828125 
Q 26.265625 48.1875 28.421875 48.1875 
Q 40.625 48.1875 47.75 41.5 
Q 54.890625 34.8125 54.890625 23.390625 
Q 54.890625 11.625 47.5625 5.09375 
Q 40.234375 -1.421875 26.90625 -1.421875 
Q 22.3125 -1.421875 17.546875 -0.640625 
Q 12.796875 0.140625 7.71875 1.703125 
L 7.71875 11.625 
Q 12.109375 9.234375 16.796875 8.0625 
Q 21.484375 6.890625 26.703125 6.890625 
Q 35.15625 6.890625 40.078125 11.328125 
Q 45.015625 15.765625 45.015625 23.390625 
Q 45.015625 31 40.078125 35.4375 
Q 35.15625 39.890625 26.703125 39.890625 
Q 22.75 39.890625 18.8125 39.015625 
Q 14.890625 38.140625 10.796875 36.28125 
z
" id="DejaVuSans-35"/>
      </defs>
      <g transform="translate(7.2 70.958437)scale(0.1 -0.1)">
       <use xlink:href="#DejaVuSans-31"/>
       <use x="63.623047" xlink:href="#DejaVuSans-35"/>
       <use x="127.246094" xlink:href="#DejaVuSans-30"/>
      </g>
     </g>
    </g>
    <g id="ytick_3">
     <g id="line2d_3">
      <g>
       <use style="stroke:#000000;stroke-width:0.8;" x="33.2875" xlink:href="#mb74c501d7b" y="10.999219"/>
      </g>
     </g>
     <g id="text_3">
      <!-- 300 -->
      <defs>
       <path d="M 40.578125 39.3125 
Q 47.65625 37.796875 51.625 33 
Q 55.609375 28.21875 55.609375 21.1875 
Q 55.609375 10.40625 48.1875 4.484375 
Q 40.765625 -1.421875 27.09375 -1.421875 
Q 22.515625 -1.421875 17.65625 -0.515625 
Q 12.796875 0.390625 7.625 2.203125 
L 7.625 11.71875 
Q 11.71875 9.328125 16.59375 8.109375 
Q 21.484375 6.890625 26.8125 6.890625 
Q 36.078125 6.890625 40.9375 10.546875 
Q 45.796875 14.203125 45.796875 21.1875 
Q 45.796875 27.640625 41.28125 31.265625 
Q 36.765625 34.90625 28.71875 34.90625 
L 20.21875 34.90625 
L 20.21875 43.015625 
L 29.109375 43.015625 
Q 36.375 43.015625 40.234375 45.921875 
Q 44.09375 48.828125 44.09375 54.296875 
Q 44.09375 59.90625 40.109375 62.90625 
Q 36.140625 65.921875 28.71875 65.921875 
Q 24.65625 65.921875 20.015625 65.03125 
Q 15.375 64.15625 9.8125 62.3125 
L 9.8125 71.09375 
Q 15.4375 72.65625 20.34375 73.4375 
Q 25.25 74.21875 29.59375 74.21875 
Q 40.828125 74.21875 47.359375 69.109375 
Q 53.90625 64.015625 53.90625 55.328125 
Q 53.90625 49.265625 50.4375 45.09375 
Q 46.96875 40.921875 40.578125 39.3125 
z
" id="DejaVuSans-33"/>
      </defs>
      <g transform="translate(7.2 14.798437)scale(0.1 -0.1)">
       <use xlink:href="#DejaVuSans-33"/>
       <use x="63.623047" xlink:href="#DejaVuSans-30"/>
       <use x="127.246094" xlink:href="#DejaVuSans-30"/>
      </g>
     </g>
    </g>
   </g>
   <g id="patch_3">
    <path d="M 33.2875 123.319219 
L 33.2875 10.999219 
" style="fill:none;stroke:#000000;stroke-linecap:square;stroke-linejoin:miter;stroke-width:0.8;"/>
   </g>
   <g id="patch_4">
    <path d="M 33.2875 123.319219 
L 91.0875 123.319219 
" style="fill:none;stroke:#000000;stroke-linecap:square;stroke-linejoin:miter;stroke-width:0.8;"/>
   </g>
  </g>
 </g>
 <defs>
  <clipPath id="pd3cd6a2fff">
   <rect height="112.32" width="57.8" x="33.2875" y="10.999219"/>
  </clipPath>
 </defs>
</svg>
