<?xml version="1.0" encoding="utf-8" standalone="no"?>
<!DOCTYPE svg PUBLIC "-//W3C//DTD SVG 1.1//EN"
  "http://www.w3.org/Graphics/SVG/1.1/DTD/svg11.dtd">
<!-- Created with matplotlib (http://matplotlib.org/) -->
<svg height="136pt" version="1.1" viewBox="0 0 101 136" width="101pt" xmlns="http://www.w3.org/2000/svg" xmlns:xlink="http://www.w3.org/1999/xlink">
 <defs>
  <style type="text/css">
*{stroke-linecap:butt;stroke-linejoin:round;}
  </style>
 </defs>
 <g id="figure_1">
  <g id="patch_1">
   <path d="M 0 136.398125 
L 101.7875 136.398125 
L 101.7875 0 
L 0 0 
z
" style="fill:#ffffff;"/>
  </g>
  <g id="axes_1">
   <g id="patch_2">
    <path d="M 33.2875 123.319219 
L 91.0875 123.319219 
L 91.0875 10.999219 
L 33.2875 10.999219 
z
" style="fill:#ffffff;"/>
   </g>
   <g id="PolyCollection_1">
    <path clip-path="url(#p166c2d1ecd)" d="M 63.732348 123.319219 
L 60.642652 123.319219 
L 60.341556 122.204374 
L 59.958015 121.089528 
L 59.441366 119.974683 
L 58.751001 118.859838 
L 57.872008 117.744993 
L 56.823394 116.630147 
L 55.656571 115.515302 
L 54.445425 114.400457 
L 53.270973 113.285612 
L 52.20407 112.170766 
L 51.289988 111.055921 
L 50.539313 109.941076 
L 49.92905 108.826231 
L 49.414849 107.711385 
L 48.950473 106.59654 
L 48.506758 105.481695 
L 48.082019 104.36685 
L 47.699655 103.252005 
L 47.394588 102.137159 
L 47.195018 101.022314 
L 47.107652 99.907469 
L 47.112768 98.792624 
L 47.171243 97.677778 
L 47.240467 96.562933 
L 47.291861 95.448088 
L 47.321534 94.333243 
L 47.348817 93.218397 
L 47.40385 92.103552 
L 47.511338 90.988707 
L 47.679175 89.873862 
L 47.896889 88.759016 
L 48.142643 87.644171 
L 48.393093 86.529326 
L 48.630312 85.414481 
L 48.843189 84.299636 
L 49.02442 83.18479 
L 49.16606 82.069945 
L 49.256307 80.9551 
L 49.278891 79.840255 
L 49.215355 78.725409 
L 49.049749 77.610564 
L 48.774597 76.495719 
L 48.396096 75.380874 
L 47.936099 74.266028 
L 47.429279 73.151183 
L 46.91605 72.036338 
L 46.434139 70.921493 
L 46.012534 69.806647 
L 45.670022 68.691802 
L 45.41764 67.576957 
L 45.26207 66.462112 
L 45.206799 65.347267 
L 45.24994 64.232421 
L 45.380376 63.117576 
L 45.575578 62.002731 
L 45.803579 60.887886 
L 46.028792 59.77304 
L 46.218545 58.658195 
L 46.346638 57.54335 
L 46.392634 56.428505 
L 46.339056 55.313659 
L 46.170421 54.198814 
L 45.876508 53.083969 
L 45.458524 51.969124 
L 44.934066 50.854278 
L 44.337036 49.739433 
L 43.711829 48.624588 
L 43.104499 47.509743 
L 42.554754 46.394898 
L 42.091052 45.280052 
L 41.728529 44.165207 
L 41.468211 43.050362 
L 41.296689 41.935517 
L 41.186993 40.820671 
L 41.102023 39.705826 
L 41.000979 38.590981 
L 40.847475 37.476136 
L 40.616712 36.36129 
L 40.299151 35.246445 
L 39.899375 34.1316 
L 39.430883 33.016755 
L 38.909496 31.901909 
L 38.349127 30.787064 
L 37.763105 29.672219 
L 37.171947 28.557374 
L 36.615195 27.442529 
L 36.162104 26.327683 
L 35.914773 25.212838 
L 35.998775 24.097993 
L 36.540448 22.983148 
L 37.63565 21.868302 
L 39.319585 20.753457 
L 41.54849 19.638612 
L 44.200341 18.523767 
L 47.094858 17.408921 
L 50.026417 16.294076 
L 52.800048 15.179231 
L 55.261322 14.064386 
L 57.314189 12.94954 
L 67.060811 12.94954 
L 67.060811 12.94954 
L 69.113678 14.064386 
L 71.574952 15.179231 
L 74.348583 16.294076 
L 77.280142 17.408921 
L 80.174659 18.523767 
L 82.82651 19.638612 
L 85.055415 20.753457 
L 86.73935 21.868302 
L 87.834552 22.983148 
L 88.376225 24.097993 
L 88.460227 25.212838 
L 88.212896 26.327683 
L 87.759805 27.442529 
L 87.203053 28.557374 
L 86.611895 29.672219 
L 86.025873 30.787064 
L 85.465504 31.901909 
L 84.944117 33.016755 
L 84.475625 34.1316 
L 84.075849 35.246445 
L 83.758288 36.36129 
L 83.527525 37.476136 
L 83.374021 38.590981 
L 83.272977 39.705826 
L 83.188007 40.820671 
L 83.078311 41.935517 
L 82.906789 43.050362 
L 82.646471 44.165207 
L 82.283948 45.280052 
L 81.820246 46.394898 
L 81.270501 47.509743 
L 80.663171 48.624588 
L 80.037964 49.739433 
L 79.440934 50.854278 
L 78.916476 51.969124 
L 78.498492 53.083969 
L 78.204579 54.198814 
L 78.035944 55.313659 
L 77.982366 56.428505 
L 78.028362 57.54335 
L 78.156455 58.658195 
L 78.346208 59.77304 
L 78.571421 60.887886 
L 78.799422 62.002731 
L 78.994624 63.117576 
L 79.12506 64.232421 
L 79.168201 65.347267 
L 79.11293 66.462112 
L 78.95736 67.576957 
L 78.704978 68.691802 
L 78.362466 69.806647 
L 77.940861 70.921493 
L 77.45895 72.036338 
L 76.945721 73.151183 
L 76.438901 74.266028 
L 75.978904 75.380874 
L 75.600403 76.495719 
L 75.325251 77.610564 
L 75.159645 78.725409 
L 75.096109 79.840255 
L 75.118693 80.9551 
L 75.20894 82.069945 
L 75.35058 83.18479 
L 75.531811 84.299636 
L 75.744688 85.414481 
L 75.981907 86.529326 
L 76.232357 87.644171 
L 76.478111 88.759016 
L 76.695825 89.873862 
L 76.863662 90.988707 
L 76.97115 92.103552 
L 77.026183 93.218397 
L 77.053466 94.333243 
L 77.083139 95.448088 
L 77.134533 96.562933 
L 77.203757 97.677778 
L 77.262232 98.792624 
L 77.267348 99.907469 
L 77.179982 101.022314 
L 76.980412 102.137159 
L 76.675345 103.252005 
L 76.292981 104.36685 
L 75.868242 105.481695 
L 75.424527 106.59654 
L 74.960151 107.711385 
L 74.44595 108.826231 
L 73.835687 109.941076 
L 73.085012 111.055921 
L 72.17093 112.170766 
L 71.104027 113.285612 
L 69.929575 114.400457 
L 68.718429 115.515302 
L 67.551606 116.630147 
L 66.502992 117.744993 
L 65.623999 118.859838 
L 64.933634 119.974683 
L 64.416985 121.089528 
L 64.033444 122.204374 
L 63.732348 123.319219 
z
" style="fill:#1f77b4;fill-opacity:0.3;"/>
   </g>
   <g id="matplotlib.axis_1"/>
   <g id="matplotlib.axis_2">
    <g id="ytick_1">
     <g id="line2d_1">
      <defs>
       <path d="M 0 0 
L -3.5 0 
" id="m628f8bbebd" style="stroke:#000000;stroke-width:0.8;"/>
      </defs>
      <g>
       <use style="stroke:#000000;stroke-width:0.8;" x="33.2875" xlink:href="#m628f8bbebd" y="123.319219"/>
      </g>
     </g>
     <g id="text_1">
      <!-- 0 -->
      <defs>
       <path d="M 31.78125 66.40625 
Q 24.171875 66.40625 20.328125 58.90625 
Q 16.5 51.421875 16.5 36.375 
Q 16.5 21.390625 20.328125 13.890625 
Q 24.171875 6.390625 31.78125 6.390625 
Q 39.453125 6.390625 43.28125 13.890625 
Q 47.125 21.390625 47.125 36.375 
Q 47.125 51.421875 43.28125 58.90625 
Q 39.453125 66.40625 31.78125 66.40625 
z
M 31.78125 74.21875 
Q 44.046875 74.21875 50.515625 64.515625 
Q 56.984375 54.828125 56.984375 36.375 
Q 56.984375 17.96875 50.515625 8.265625 
Q 44.046875 -1.421875 31.78125 -1.421875 
Q 19.53125 -1.421875 13.0625 8.265625 
Q 6.59375 17.96875 6.59375 36.375 
Q 6.59375 54.828125 13.0625 64.515625 
Q 19.53125 74.21875 31.78125 74.21875 
z
" id="DejaVuSans-30"/>
      </defs>
      <g transform="translate(19.925 127.118437)scale(0.1 -0.1)">
       <use xlink:href="#DejaVuSans-30"/>
      </g>
     </g>
    </g>
    <g id="ytick_2">
     <g id="line2d_2">
      <g>
       <use style="stroke:#000000;stroke-width:0.8;" x="33.2875" xlink:href="#m628f8bbebd" y="67.159219"/>
      </g>
     </g>
     <g id="text_2">
      <!-- 150 -->
      <defs>
       <path d="M 12.40625 8.296875 
L 28.515625 8.296875 
L 28.515625 63.921875 
L 10.984375 60.40625 
L 10.984375 69.390625 
L 28.421875 72.90625 
L 38.28125 72.90625 
L 38.28125 8.296875 
L 54.390625 8.296875 
L 54.390625 0 
L 12.40625 0 
z
" id="DejaVuSans-31"/>
       <path d="M 10.796875 72.90625 
L 49.515625 72.90625 
L 49.515625 64.59375 
L 19.828125 64.59375 
L 19.828125 46.734375 
Q 21.96875 47.46875 24.109375 47.828125 
Q 26.265625 48.1875 28.421875 48.1875 
Q 40.625 48.1875 47.75 41.5 
Q 54.890625 34.8125 54.890625 23.390625 
Q 54.890625 11.625 47.5625 5.09375 
Q 40.234375 -1.421875 26.90625 -1.421875 
Q 22.3125 -1.421875 17.546875 -0.640625 
Q 12.796875 0.140625 7.71875 1.703125 
L 7.71875 11.625 
Q 12.109375 9.234375 16.796875 8.0625 
Q 21.484375 6.890625 26.703125 6.890625 
Q 35.15625 6.890625 40.078125 11.328125 
Q 45.015625 15.765625 45.015625 23.390625 
Q 45.015625 31 40.078125 35.4375 
Q 35.15625 39.890625 26.703125 39.890625 
Q 22.75 39.890625 18.8125 39.015625 
Q 14.890625 38.140625 10.796875 36.28125 
z
" id="DejaVuSans-35"/>
      </defs>
      <g transform="translate(7.2 70.958437)scale(0.1 -0.1)">
       <use xlink:href="#DejaVuSans-31"/>
       <use x="63.623047" xlink:href="#DejaVuSans-35"/>
       <use x="127.246094" xlink:href="#DejaVuSans-30"/>
      </g>
     </g>
    </g>
    <g id="ytick_3">
     <g id="line2d_3">
      <g>
       <use style="stroke:#000000;stroke-width:0.8;" x="33.2875" xlink:href="#m628f8bbebd" y="10.999219"/>
      </g>
     </g>
     <g id="text_3">
      <!-- 300 -->
      <defs>
       <path d="M 40.578125 39.3125 
Q 47.65625 37.796875 51.625 33 
Q 55.609375 28.21875 55.609375 21.1875 
Q 55.609375 10.40625 48.1875 4.484375 
Q 40.765625 -1.421875 27.09375 -1.421875 
Q 22.515625 -1.421875 17.65625 -0.515625 
Q 12.796875 0.390625 7.625 2.203125 
L 7.625 11.71875 
Q 11.71875 9.328125 16.59375 8.109375 
Q 21.484375 6.890625 26.8125 6.890625 
Q 36.078125 6.890625 40.9375 10.546875 
Q 45.796875 14.203125 45.796875 21.1875 
Q 45.796875 27.640625 41.28125 31.265625 
Q 36.765625 34.90625 28.71875 34.90625 
L 20.21875 34.90625 
L 20.21875 43.015625 
L 29.109375 43.015625 
Q 36.375 43.015625 40.234375 45.921875 
Q 44.09375 48.828125 44.09375 54.296875 
Q 44.09375 59.90625 40.109375 62.90625 
Q 36.140625 65.921875 28.71875 65.921875 
Q 24.65625 65.921875 20.015625 65.03125 
Q 15.375 64.15625 9.8125 62.3125 
L 9.8125 71.09375 
Q 15.4375 72.65625 20.34375 73.4375 
Q 25.25 74.21875 29.59375 74.21875 
Q 40.828125 74.21875 47.359375 69.109375 
Q 53.90625 64.015625 53.90625 55.328125 
Q 53.90625 49.265625 50.4375 45.09375 
Q 46.96875 40.921875 40.578125 39.3125 
z
" id="DejaVuSans-33"/>
      </defs>
      <g transform="translate(7.2 14.798437)scale(0.1 -0.1)">
       <use xlink:href="#DejaVuSans-33"/>
       <use x="63.623047" xlink:href="#DejaVuSans-30"/>
       <use x="127.246094" xlink:href="#DejaVuSans-30"/>
      </g>
     </g>
    </g>
   </g>
   <g id="patch_3">
    <path d="M 33.2875 123.319219 
L 33.2875 10.999219 
" style="fill:none;stroke:#000000;stroke-linecap:square;stroke-linejoin:miter;stroke-width:0.8;"/>
   </g>
   <g id="patch_4">
    <path d="M 33.2875 123.319219 
L 91.0875 123.319219 
" style="fill:none;stroke:#000000;stroke-linecap:square;stroke-linejoin:miter;stroke-width:0.8;"/>
   </g>
  </g>
 </g>
 <defs>
  <clipPath id="p166c2d1ecd">
   <rect height="112.32" width="57.8" x="33.2875" y="10.999219"/>
  </clipPath>
 </defs>
</svg>
