<?xml version="1.0" encoding="utf-8" standalone="no"?>
<!DOCTYPE svg PUBLIC "-//W3C//DTD SVG 1.1//EN"
  "http://www.w3.org/Graphics/SVG/1.1/DTD/svg11.dtd">
<!-- Created with matplotlib (http://matplotlib.org/) -->
<svg height="136pt" version="1.1" viewBox="0 0 101 136" width="101pt" xmlns="http://www.w3.org/2000/svg" xmlns:xlink="http://www.w3.org/1999/xlink">
 <defs>
  <style type="text/css">
*{stroke-linecap:butt;stroke-linejoin:round;}
  </style>
 </defs>
 <g id="figure_1">
  <g id="patch_1">
   <path d="M 0 136.398125 
L 101.7875 136.398125 
L 101.7875 0 
L 0 0 
z
" style="fill:#ffffff;"/>
  </g>
  <g id="axes_1">
   <g id="patch_2">
    <path d="M 33.2875 123.319219 
L 91.0875 123.319219 
L 91.0875 10.999219 
L 33.2875 10.999219 
z
" style="fill:#ffffff;"/>
   </g>
   <g id="PolyCollection_1">
    <path clip-path="url(#p4519136904)" d="M 70.000843 123.319219 
L 54.374157 123.319219 
L 53.304712 122.205124 
L 52.123118 121.091029 
L 50.70521 119.976935 
L 48.960535 118.86284 
L 46.87999 117.748745 
L 44.557366 116.63465 
L 42.175391 115.520556 
L 39.961453 114.406461 
L 38.12932 113.292366 
L 36.826714 112.178271 
L 36.10455 111.064177 
L 35.914773 109.950082 
L 36.133908 108.835987 
L 36.602032 107.721893 
L 37.163926 106.607798 
L 37.700961 105.493703 
L 38.147195 104.379608 
L 38.488901 103.265514 
L 38.751356 102.151419 
L 38.979216 101.037324 
L 39.217196 99.923229 
L 39.496149 98.809135 
L 39.826779 97.69504 
L 40.200199 96.580945 
L 40.592919 95.466851 
L 40.974173 94.352756 
L 41.314861 93.238661 
L 41.597793 92.124566 
L 41.827354 91.010472 
L 42.034332 89.896377 
L 42.271253 88.782282 
L 42.596908 87.668187 
L 43.054627 86.554093 
L 43.65353 85.439998 
L 44.361748 84.325903 
L 45.115228 83.211809 
L 45.838117 82.097714 
L 46.46564 80.983619 
L 46.960309 79.869524 
L 47.316635 78.75543 
L 47.555125 77.641335 
L 47.710149 76.52724 
L 47.817021 75.413145 
L 47.902162 74.299051 
L 47.977957 73.184956 
L 48.042196 72.070861 
L 48.08103 70.956767 
L 48.07393 69.842672 
L 47.998974 68.728577 
L 47.837047 67.614482 
L 47.574185 66.500388 
L 47.202372 65.386293 
L 46.719972 64.272198 
L 46.133061 63.158103 
L 45.457853 62.044009 
L 44.722839 60.929914 
L 43.968317 59.815819 
L 43.241651 58.701724 
L 42.588942 57.58763 
L 42.046182 56.473535 
L 41.633748 55.35944 
L 41.356382 54.245346 
L 41.207689 53.131251 
L 41.175842 52.017156 
L 41.247162 50.903061 
L 41.406345 49.788967 
L 41.634606 48.674872 
L 41.908144 47.560777 
L 42.198675 46.446682 
L 42.476127 45.332588 
L 42.712247 44.218493 
L 42.883659 43.104398 
L 42.973542 41.990304 
L 42.972054 40.876209 
L 42.876146 39.762114 
L 42.689355 38.648019 
L 42.421617 37.533925 
L 42.088627 36.41983 
L 41.71014 35.305735 
L 41.307094 34.19164 
L 40.898327 33.077546 
L 40.498418 31.963451 
L 40.118383 30.849356 
L 39.770072 29.735262 
L 39.473563 28.621167 
L 39.264987 27.507072 
L 39.201037 26.392977 
L 39.356551 25.278883 
L 39.813479 24.164788 
L 40.642758 23.050693 
L 41.883994 21.936598 
L 43.529643 20.822504 
L 45.519494 19.708409 
L 47.747752 18.594314 
L 50.080648 17.48022 
L 52.379087 16.366125 
L 54.520024 15.25203 
L 56.411729 14.137935 
L 58.000818 13.023841 
L 66.374182 13.023841 
L 66.374182 13.023841 
L 67.963271 14.137935 
L 69.854976 15.25203 
L 71.995913 16.366125 
L 74.294352 17.48022 
L 76.627248 18.594314 
L 78.855506 19.708409 
L 80.845357 20.822504 
L 82.491006 21.936598 
L 83.732242 23.050693 
L 84.561521 24.164788 
L 85.018449 25.278883 
L 85.173963 26.392977 
L 85.110013 27.507072 
L 84.901437 28.621167 
L 84.604928 29.735262 
L 84.256617 30.849356 
L 83.876582 31.963451 
L 83.476673 33.077546 
L 83.067906 34.19164 
L 82.66486 35.305735 
L 82.286373 36.41983 
L 81.953383 37.533925 
L 81.685645 38.648019 
L 81.498854 39.762114 
L 81.402946 40.876209 
L 81.401458 41.990304 
L 81.491341 43.104398 
L 81.662753 44.218493 
L 81.898873 45.332588 
L 82.176325 46.446682 
L 82.466856 47.560777 
L 82.740394 48.674872 
L 82.968655 49.788967 
L 83.127838 50.903061 
L 83.199158 52.017156 
L 83.167311 53.131251 
L 83.018618 54.245346 
L 82.741252 55.35944 
L 82.328818 56.473535 
L 81.786058 57.58763 
L 81.133349 58.701724 
L 80.406683 59.815819 
L 79.652161 60.929914 
L 78.917147 62.044009 
L 78.241939 63.158103 
L 77.655028 64.272198 
L 77.172628 65.386293 
L 76.800815 66.500388 
L 76.537953 67.614482 
L 76.376026 68.728577 
L 76.30107 69.842672 
L 76.29397 70.956767 
L 76.332804 72.070861 
L 76.397043 73.184956 
L 76.472838 74.299051 
L 76.557979 75.413145 
L 76.664851 76.52724 
L 76.819875 77.641335 
L 77.058365 78.75543 
L 77.414691 79.869524 
L 77.90936 80.983619 
L 78.536883 82.097714 
L 79.259772 83.211809 
L 80.013252 84.325903 
L 80.72147 85.439998 
L 81.320373 86.554093 
L 81.778092 87.668187 
L 82.103747 88.782282 
L 82.340668 89.896377 
L 82.547646 91.010472 
L 82.777207 92.124566 
L 83.060139 93.238661 
L 83.400827 94.352756 
L 83.782081 95.466851 
L 84.174801 96.580945 
L 84.548221 97.69504 
L 84.878851 98.809135 
L 85.157804 99.923229 
L 85.395784 101.037324 
L 85.623644 102.151419 
L 85.886099 103.265514 
L 86.227805 104.379608 
L 86.674039 105.493703 
L 87.211074 106.607798 
L 87.772968 107.721893 
L 88.241092 108.835987 
L 88.460227 109.950082 
L 88.27045 111.064177 
L 87.548286 112.178271 
L 86.24568 113.292366 
L 84.413547 114.406461 
L 82.199609 115.520556 
L 79.817634 116.63465 
L 77.49501 117.748745 
L 75.414465 118.86284 
L 73.66979 119.976935 
L 72.251882 121.091029 
L 71.070288 122.205124 
L 70.000843 123.319219 
z
" style="fill:#1f77b4;fill-opacity:0.3;"/>
   </g>
   <g id="matplotlib.axis_1"/>
   <g id="matplotlib.axis_2">
    <g id="ytick_1">
     <g id="line2d_1">
      <defs>
       <path d="M 0 0 
L -3.5 0 
" id="m474c04a9db" style="stroke:#000000;stroke-width:0.8;"/>
      </defs>
      <g>
       <use style="stroke:#000000;stroke-width:0.8;" x="33.2875" xlink:href="#m474c04a9db" y="123.319219"/>
      </g>
     </g>
     <g id="text_1">
      <!-- 0 -->
      <defs>
       <path d="M 31.78125 66.40625 
Q 24.171875 66.40625 20.328125 58.90625 
Q 16.5 51.421875 16.5 36.375 
Q 16.5 21.390625 20.328125 13.890625 
Q 24.171875 6.390625 31.78125 6.390625 
Q 39.453125 6.390625 43.28125 13.890625 
Q 47.125 21.390625 47.125 36.375 
Q 47.125 51.421875 43.28125 58.90625 
Q 39.453125 66.40625 31.78125 66.40625 
z
M 31.78125 74.21875 
Q 44.046875 74.21875 50.515625 64.515625 
Q 56.984375 54.828125 56.984375 36.375 
Q 56.984375 17.96875 50.515625 8.265625 
Q 44.046875 -1.421875 31.78125 -1.421875 
Q 19.53125 -1.421875 13.0625 8.265625 
Q 6.59375 17.96875 6.59375 36.375 
Q 6.59375 54.828125 13.0625 64.515625 
Q 19.53125 74.21875 31.78125 74.21875 
z
" id="DejaVuSans-30"/>
      </defs>
      <g transform="translate(19.925 127.118437)scale(0.1 -0.1)">
       <use xlink:href="#DejaVuSans-30"/>
      </g>
     </g>
    </g>
    <g id="ytick_2">
     <g id="line2d_2">
      <g>
       <use style="stroke:#000000;stroke-width:0.8;" x="33.2875" xlink:href="#m474c04a9db" y="67.159219"/>
      </g>
     </g>
     <g id="text_2">
      <!-- 150 -->
      <defs>
       <path d="M 12.40625 8.296875 
L 28.515625 8.296875 
L 28.515625 63.921875 
L 10.984375 60.40625 
L 10.984375 69.390625 
L 28.421875 72.90625 
L 38.28125 72.90625 
L 38.28125 8.296875 
L 54.390625 8.296875 
L 54.390625 0 
L 12.40625 0 
z
" id="DejaVuSans-31"/>
       <path d="M 10.796875 72.90625 
L 49.515625 72.90625 
L 49.515625 64.59375 
L 19.828125 64.59375 
L 19.828125 46.734375 
Q 21.96875 47.46875 24.109375 47.828125 
Q 26.265625 48.1875 28.421875 48.1875 
Q 40.625 48.1875 47.75 41.5 
Q 54.890625 34.8125 54.890625 23.390625 
Q 54.890625 11.625 47.5625 5.09375 
Q 40.234375 -1.421875 26.90625 -1.421875 
Q 22.3125 -1.421875 17.546875 -0.640625 
Q 12.796875 0.140625 7.71875 1.703125 
L 7.71875 11.625 
Q 12.109375 9.234375 16.796875 8.0625 
Q 21.484375 6.890625 26.703125 6.890625 
Q 35.15625 6.890625 40.078125 11.328125 
Q 45.015625 15.765625 45.015625 23.390625 
Q 45.015625 31 40.078125 35.4375 
Q 35.15625 39.890625 26.703125 39.890625 
Q 22.75 39.890625 18.8125 39.015625 
Q 14.890625 38.140625 10.796875 36.28125 
z
" id="DejaVuSans-35"/>
      </defs>
      <g transform="translate(7.2 70.958437)scale(0.1 -0.1)">
       <use xlink:href="#DejaVuSans-31"/>
       <use x="63.623047" xlink:href="#DejaVuSans-35"/>
       <use x="127.246094" xlink:href="#DejaVuSans-30"/>
      </g>
     </g>
    </g>
    <g id="ytick_3">
     <g id="line2d_3">
      <g>
       <use style="stroke:#000000;stroke-width:0.8;" x="33.2875" xlink:href="#m474c04a9db" y="10.999219"/>
      </g>
     </g>
     <g id="text_3">
      <!-- 300 -->
      <defs>
       <path d="M 40.578125 39.3125 
Q 47.65625 37.796875 51.625 33 
Q 55.609375 28.21875 55.609375 21.1875 
Q 55.609375 10.40625 48.1875 4.484375 
Q 40.765625 -1.421875 27.09375 -1.421875 
Q 22.515625 -1.421875 17.65625 -0.515625 
Q 12.796875 0.390625 7.625 2.203125 
L 7.625 11.71875 
Q 11.71875 9.328125 16.59375 8.109375 
Q 21.484375 6.890625 26.8125 6.890625 
Q 36.078125 6.890625 40.9375 10.546875 
Q 45.796875 14.203125 45.796875 21.1875 
Q 45.796875 27.640625 41.28125 31.265625 
Q 36.765625 34.90625 28.71875 34.90625 
L 20.21875 34.90625 
L 20.21875 43.015625 
L 29.109375 43.015625 
Q 36.375 43.015625 40.234375 45.921875 
Q 44.09375 48.828125 44.09375 54.296875 
Q 44.09375 59.90625 40.109375 62.90625 
Q 36.140625 65.921875 28.71875 65.921875 
Q 24.65625 65.921875 20.015625 65.03125 
Q 15.375 64.15625 9.8125 62.3125 
L 9.8125 71.09375 
Q 15.4375 72.65625 20.34375 73.4375 
Q 25.25 74.21875 29.59375 74.21875 
Q 40.828125 74.21875 47.359375 69.109375 
Q 53.90625 64.015625 53.90625 55.328125 
Q 53.90625 49.265625 50.4375 45.09375 
Q 46.96875 40.921875 40.578125 39.3125 
z
" id="DejaVuSans-33"/>
      </defs>
      <g transform="translate(7.2 14.798437)scale(0.1 -0.1)">
       <use xlink:href="#DejaVuSans-33"/>
       <use x="63.623047" xlink:href="#DejaVuSans-30"/>
       <use x="127.246094" xlink:href="#DejaVuSans-30"/>
      </g>
     </g>
    </g>
   </g>
   <g id="patch_3">
    <path d="M 33.2875 123.319219 
L 33.2875 10.999219 
" style="fill:none;stroke:#000000;stroke-linecap:square;stroke-linejoin:miter;stroke-width:0.8;"/>
   </g>
   <g id="patch_4">
    <path d="M 33.2875 123.319219 
L 91.0875 123.319219 
" style="fill:none;stroke:#000000;stroke-linecap:square;stroke-linejoin:miter;stroke-width:0.8;"/>
   </g>
  </g>
 </g>
 <defs>
  <clipPath id="p4519136904">
   <rect height="112.32" width="57.8" x="33.2875" y="10.999219"/>
  </clipPath>
 </defs>
</svg>
