<?xml version="1.0" encoding="utf-8" standalone="no"?>
<!DOCTYPE svg PUBLIC "-//W3C//DTD SVG 1.1//EN"
  "http://www.w3.org/Graphics/SVG/1.1/DTD/svg11.dtd">
<!-- Created with matplotlib (http://matplotlib.org/) -->
<svg height="136pt" version="1.1" viewBox="0 0 101 136" width="101pt" xmlns="http://www.w3.org/2000/svg" xmlns:xlink="http://www.w3.org/1999/xlink">
 <defs>
  <style type="text/css">
*{stroke-linecap:butt;stroke-linejoin:round;}
  </style>
 </defs>
 <g id="figure_1">
  <g id="patch_1">
   <path d="M 0 136.398125 
L 101.7875 136.398125 
L 101.7875 0 
L 0 0 
z
" style="fill:#ffffff;"/>
  </g>
  <g id="axes_1">
   <g id="patch_2">
    <path d="M 33.2875 123.319219 
L 91.0875 123.319219 
L 91.0875 10.999219 
L 33.2875 10.999219 
z
" style="fill:#ffffff;"/>
   </g>
   <g id="PolyCollection_1">
    <path clip-path="url(#pbab39fb0a0)" d="M 69.223862 123.319219 
L 55.151138 123.319219 
L 54.178068 122.205085 
L 53.100316 121.090952 
L 51.792653 119.976819 
L 50.162665 118.862686 
L 48.197687 117.748552 
L 45.983369 116.634419 
L 43.68564 115.520286 
L 41.50402 114.406153 
L 39.615622 113.292019 
L 38.13122 112.177886 
L 37.078015 111.063753 
L 36.411998 109.94962 
L 36.051258 108.835486 
L 35.914773 107.721353 
L 35.95147 106.60722 
L 36.150678 105.493087 
L 36.533626 104.378953 
L 37.132414 103.26482 
L 37.965626 102.150687 
L 39.018966 101.036554 
L 40.236513 99.92242 
L 41.524421 98.808287 
L 42.764932 97.694154 
L 43.835336 96.58002 
L 44.625702 95.465887 
L 45.051492 94.351754 
L 45.061296 93.237621 
L 44.643018 92.123487 
L 43.83132 91.009354 
L 42.715204 89.895221 
L 41.44 88.781088 
L 40.196457 87.666954 
L 39.193049 86.552821 
L 38.614858 85.438688 
L 38.579799 84.324555 
L 39.106665 83.210421 
L 40.107053 82.096288 
L 41.405681 80.982155 
L 42.783802 79.868022 
L 44.032659 78.753888 
L 45.001047 77.639755 
L 45.623883 76.525622 
L 45.925412 75.411489 
L 45.998563 74.297355 
L 45.968366 73.183222 
L 45.951007 72.069089 
L 46.020622 70.954955 
L 46.193443 69.840822 
L 46.433417 68.726689 
L 46.675989 67.612556 
L 46.859729 66.498422 
L 46.952311 65.384289 
L 46.960212 64.270156 
L 46.919777 63.156023 
L 46.87648 62.041889 
L 46.864428 60.927756 
L 46.896405 59.813623 
L 46.967621 58.69949 
L 47.068404 57.585356 
L 47.196877 56.471223 
L 47.363984 55.35709 
L 47.588495 54.242957 
L 47.885359 53.128823 
L 48.253977 52.01469 
L 48.672358 50.900557 
L 49.099664 49.786424 
L 49.485573 48.67229 
L 49.782244 47.558157 
L 49.954503 46.444024 
L 49.985474 45.32989 
L 49.877077 44.215757 
L 49.646387 43.101624 
L 49.319575 41.987491 
L 48.925254 40.873357 
L 48.488821 39.759224 
L 48.028975 38.645091 
L 47.556929 37.530958 
L 47.078063 36.416824 
L 46.594966 35.302691 
L 46.110448 34.188558 
L 45.629308 33.074425 
L 45.158628 31.960291 
L 44.707715 30.846158 
L 44.289629 29.732025 
L 43.925604 28.617892 
L 43.651366 27.503758 
L 43.521556 26.389625 
L 43.607386 25.275492 
L 43.984698 24.161358 
L 44.714364 23.047225 
L 45.821627 21.933092 
L 47.282715 20.818959 
L 49.024379 19.704825 
L 50.936608 18.590692 
L 52.89362 17.476559 
L 54.775929 16.362426 
L 56.487436 15.248292 
L 57.964604 14.134159 
L 59.177878 13.020026 
L 65.197122 13.020026 
L 65.197122 13.020026 
L 66.410396 14.134159 
L 67.887564 15.248292 
L 69.599071 16.362426 
L 71.48138 17.476559 
L 73.438392 18.590692 
L 75.350621 19.704825 
L 77.092285 20.818959 
L 78.553373 21.933092 
L 79.660636 23.047225 
L 80.390302 24.161358 
L 80.767614 25.275492 
L 80.853444 26.389625 
L 80.723634 27.503758 
L 80.449396 28.617892 
L 80.085371 29.732025 
L 79.667285 30.846158 
L 79.216372 31.960291 
L 78.745692 33.074425 
L 78.264552 34.188558 
L 77.780034 35.302691 
L 77.296937 36.416824 
L 76.818071 37.530958 
L 76.346025 38.645091 
L 75.886179 39.759224 
L 75.449746 40.873357 
L 75.055425 41.987491 
L 74.728613 43.101624 
L 74.497923 44.215757 
L 74.389526 45.32989 
L 74.420497 46.444024 
L 74.592756 47.558157 
L 74.889427 48.67229 
L 75.275336 49.786424 
L 75.702642 50.900557 
L 76.121023 52.01469 
L 76.489641 53.128823 
L 76.786505 54.242957 
L 77.011016 55.35709 
L 77.178123 56.471223 
L 77.306596 57.585356 
L 77.407379 58.69949 
L 77.478595 59.813623 
L 77.510572 60.927756 
L 77.49852 62.041889 
L 77.455223 63.156023 
L 77.414788 64.270156 
L 77.422689 65.384289 
L 77.515271 66.498422 
L 77.699011 67.612556 
L 77.941583 68.726689 
L 78.181557 69.840822 
L 78.354378 70.954955 
L 78.423993 72.069089 
L 78.406634 73.183222 
L 78.376437 74.297355 
L 78.449588 75.411489 
L 78.751117 76.525622 
L 79.373953 77.639755 
L 80.342341 78.753888 
L 81.591198 79.868022 
L 82.969319 80.982155 
L 84.267947 82.096288 
L 85.268335 83.210421 
L 85.795201 84.324555 
L 85.760142 85.438688 
L 85.181951 86.552821 
L 84.178543 87.666954 
L 82.935 88.781088 
L 81.659796 89.895221 
L 80.54368 91.009354 
L 79.731982 92.123487 
L 79.313704 93.237621 
L 79.323508 94.351754 
L 79.749298 95.465887 
L 80.539664 96.58002 
L 81.610068 97.694154 
L 82.850579 98.808287 
L 84.138487 99.92242 
L 85.356034 101.036554 
L 86.409374 102.150687 
L 87.242586 103.26482 
L 87.841374 104.378953 
L 88.224322 105.493087 
L 88.42353 106.60722 
L 88.460227 107.721353 
L 88.323742 108.835486 
L 87.963002 109.94962 
L 87.296985 111.063753 
L 86.24378 112.177886 
L 84.759378 113.292019 
L 82.87098 114.406153 
L 80.68936 115.520286 
L 78.391631 116.634419 
L 76.177313 117.748552 
L 74.212335 118.862686 
L 72.582347 119.976819 
L 71.274684 121.090952 
L 70.196932 122.205085 
L 69.223862 123.319219 
z
" style="fill:#1f77b4;fill-opacity:0.3;"/>
   </g>
   <g id="matplotlib.axis_1"/>
   <g id="matplotlib.axis_2">
    <g id="ytick_1">
     <g id="line2d_1">
      <defs>
       <path d="M 0 0 
L -3.5 0 
" id="mb6aac8f2d0" style="stroke:#000000;stroke-width:0.8;"/>
      </defs>
      <g>
       <use style="stroke:#000000;stroke-width:0.8;" x="33.2875" xlink:href="#mb6aac8f2d0" y="123.319219"/>
      </g>
     </g>
     <g id="text_1">
      <!-- 0 -->
      <defs>
       <path d="M 31.78125 66.40625 
Q 24.171875 66.40625 20.328125 58.90625 
Q 16.5 51.421875 16.5 36.375 
Q 16.5 21.390625 20.328125 13.890625 
Q 24.171875 6.390625 31.78125 6.390625 
Q 39.453125 6.390625 43.28125 13.890625 
Q 47.125 21.390625 47.125 36.375 
Q 47.125 51.421875 43.28125 58.90625 
Q 39.453125 66.40625 31.78125 66.40625 
z
M 31.78125 74.21875 
Q 44.046875 74.21875 50.515625 64.515625 
Q 56.984375 54.828125 56.984375 36.375 
Q 56.984375 17.96875 50.515625 8.265625 
Q 44.046875 -1.421875 31.78125 -1.421875 
Q 19.53125 -1.421875 13.0625 8.265625 
Q 6.59375 17.96875 6.59375 36.375 
Q 6.59375 54.828125 13.0625 64.515625 
Q 19.53125 74.21875 31.78125 74.21875 
z
" id="DejaVuSans-30"/>
      </defs>
      <g transform="translate(19.925 127.118437)scale(0.1 -0.1)">
       <use xlink:href="#DejaVuSans-30"/>
      </g>
     </g>
    </g>
    <g id="ytick_2">
     <g id="line2d_2">
      <g>
       <use style="stroke:#000000;stroke-width:0.8;" x="33.2875" xlink:href="#mb6aac8f2d0" y="67.159219"/>
      </g>
     </g>
     <g id="text_2">
      <!-- 150 -->
      <defs>
       <path d="M 12.40625 8.296875 
L 28.515625 8.296875 
L 28.515625 63.921875 
L 10.984375 60.40625 
L 10.984375 69.390625 
L 28.421875 72.90625 
L 38.28125 72.90625 
L 38.28125 8.296875 
L 54.390625 8.296875 
L 54.390625 0 
L 12.40625 0 
z
" id="DejaVuSans-31"/>
       <path d="M 10.796875 72.90625 
L 49.515625 72.90625 
L 49.515625 64.59375 
L 19.828125 64.59375 
L 19.828125 46.734375 
Q 21.96875 47.46875 24.109375 47.828125 
Q 26.265625 48.1875 28.421875 48.1875 
Q 40.625 48.1875 47.75 41.5 
Q 54.890625 34.8125 54.890625 23.390625 
Q 54.890625 11.625 47.5625 5.09375 
Q 40.234375 -1.421875 26.90625 -1.421875 
Q 22.3125 -1.421875 17.546875 -0.640625 
Q 12.796875 0.140625 7.71875 1.703125 
L 7.71875 11.625 
Q 12.109375 9.234375 16.796875 8.0625 
Q 21.484375 6.890625 26.703125 6.890625 
Q 35.15625 6.890625 40.078125 11.328125 
Q 45.015625 15.765625 45.015625 23.390625 
Q 45.015625 31 40.078125 35.4375 
Q 35.15625 39.890625 26.703125 39.890625 
Q 22.75 39.890625 18.8125 39.015625 
Q 14.890625 38.140625 10.796875 36.28125 
z
" id="DejaVuSans-35"/>
      </defs>
      <g transform="translate(7.2 70.958437)scale(0.1 -0.1)">
       <use xlink:href="#DejaVuSans-31"/>
       <use x="63.623047" xlink:href="#DejaVuSans-35"/>
       <use x="127.246094" xlink:href="#DejaVuSans-30"/>
      </g>
     </g>
    </g>
    <g id="ytick_3">
     <g id="line2d_3">
      <g>
       <use style="stroke:#000000;stroke-width:0.8;" x="33.2875" xlink:href="#mb6aac8f2d0" y="10.999219"/>
      </g>
     </g>
     <g id="text_3">
      <!-- 300 -->
      <defs>
       <path d="M 40.578125 39.3125 
Q 47.65625 37.796875 51.625 33 
Q 55.609375 28.21875 55.609375 21.1875 
Q 55.609375 10.40625 48.1875 4.484375 
Q 40.765625 -1.421875 27.09375 -1.421875 
Q 22.515625 -1.421875 17.65625 -0.515625 
Q 12.796875 0.390625 7.625 2.203125 
L 7.625 11.71875 
Q 11.71875 9.328125 16.59375 8.109375 
Q 21.484375 6.890625 26.8125 6.890625 
Q 36.078125 6.890625 40.9375 10.546875 
Q 45.796875 14.203125 45.796875 21.1875 
Q 45.796875 27.640625 41.28125 31.265625 
Q 36.765625 34.90625 28.71875 34.90625 
L 20.21875 34.90625 
L 20.21875 43.015625 
L 29.109375 43.015625 
Q 36.375 43.015625 40.234375 45.921875 
Q 44.09375 48.828125 44.09375 54.296875 
Q 44.09375 59.90625 40.109375 62.90625 
Q 36.140625 65.921875 28.71875 65.921875 
Q 24.65625 65.921875 20.015625 65.03125 
Q 15.375 64.15625 9.8125 62.3125 
L 9.8125 71.09375 
Q 15.4375 72.65625 20.34375 73.4375 
Q 25.25 74.21875 29.59375 74.21875 
Q 40.828125 74.21875 47.359375 69.109375 
Q 53.90625 64.015625 53.90625 55.328125 
Q 53.90625 49.265625 50.4375 45.09375 
Q 46.96875 40.921875 40.578125 39.3125 
z
" id="DejaVuSans-33"/>
      </defs>
      <g transform="translate(7.2 14.798437)scale(0.1 -0.1)">
       <use xlink:href="#DejaVuSans-33"/>
       <use x="63.623047" xlink:href="#DejaVuSans-30"/>
       <use x="127.246094" xlink:href="#DejaVuSans-30"/>
      </g>
     </g>
    </g>
   </g>
   <g id="patch_3">
    <path d="M 33.2875 123.319219 
L 33.2875 10.999219 
" style="fill:none;stroke:#000000;stroke-linecap:square;stroke-linejoin:miter;stroke-width:0.8;"/>
   </g>
   <g id="patch_4">
    <path d="M 33.2875 123.319219 
L 91.0875 123.319219 
" style="fill:none;stroke:#000000;stroke-linecap:square;stroke-linejoin:miter;stroke-width:0.8;"/>
   </g>
  </g>
 </g>
 <defs>
  <clipPath id="pbab39fb0a0">
   <rect height="112.32" width="57.8" x="33.2875" y="10.999219"/>
  </clipPath>
 </defs>
</svg>
