<?xml version="1.0" encoding="utf-8" standalone="no"?>
<!DOCTYPE svg PUBLIC "-//W3C//DTD SVG 1.1//EN"
  "http://www.w3.org/Graphics/SVG/1.1/DTD/svg11.dtd">
<!-- Created with matplotlib (http://matplotlib.org/) -->
<svg height="136pt" version="1.1" viewBox="0 0 137 136" width="137pt" xmlns="http://www.w3.org/2000/svg" xmlns:xlink="http://www.w3.org/1999/xlink">
 <defs>
  <style type="text/css">
*{stroke-linecap:butt;stroke-linejoin:round;}
  </style>
 </defs>
 <g id="figure_1">
  <g id="patch_1">
   <path d="M 0 136.398125 
L 137.7875 136.398125 
L 137.7875 0 
L 0 0 
z
" style="fill:#ffffff;"/>
  </g>
  <g id="axes_1">
   <g id="patch_2">
    <path d="M 33.2875 123.319219 
L 127.0875 123.319219 
L 127.0875 10.999219 
L 33.2875 10.999219 
z
" style="fill:#ffffff;"/>
   </g>
   <g id="PolyCollection_1">
    <path clip-path="url(#p24c7cb3ee5)" d="M 82.762175 123.319219 
L 77.612825 123.319219 
L 77.206449 122.204816 
L 76.71469 121.090413 
L 76.060211 119.976011 
L 75.176233 118.861608 
L 74.03117 117.747205 
L 72.642773 116.632803 
L 71.077817 115.5184 
L 69.439076 114.403997 
L 67.844431 113.289594 
L 66.403509 112.175192 
L 65.19706 111.060789 
L 64.263945 109.946386 
L 63.599283 108.831984 
L 63.163952 107.717581 
L 62.901191 106.603178 
L 62.753212 105.488775 
L 62.671572 104.374373 
L 62.619285 103.25997 
L 62.567483 102.145567 
L 62.491951 101.031165 
L 62.373725 99.916762 
L 62.204152 98.802359 
L 61.990781 97.687956 
L 61.75872 96.573554 
L 61.544002 95.459151 
L 61.380225 94.344748 
L 61.284633 93.230346 
L 61.251432 92.115943 
L 61.256817 91.00154 
L 61.2735 89.887138 
L 61.286547 88.772735 
L 61.301192 87.658332 
L 61.337874 86.543929 
L 61.417229 85.429527 
L 61.543403 84.315124 
L 61.69454 83.200721 
L 61.825125 82.086319 
L 61.87903 80.971916 
L 61.808049 79.857513 
L 61.589494 78.74311 
L 61.237325 77.628708 
L 60.803114 76.514305 
L 60.365738 75.399902 
L 60.012102 74.2855 
L 59.814561 73.171097 
L 59.812337 72.056694 
L 60.002686 70.942291 
L 60.343562 69.827889 
L 60.765329 68.713486 
L 61.186876 67.599083 
L 61.531595 66.484681 
L 61.740198 65.370278 
L 61.7788 64.255875 
L 61.641721 63.141473 
L 61.349185 62.02707 
L 60.94068 60.912667 
L 60.465285 59.798264 
L 59.970646 58.683862 
L 59.49262 57.569459 
L 59.047926 56.455056 
L 58.631963 55.340654 
L 58.222935 54.226251 
L 57.791364 53.111848 
L 57.311747 51.997445 
L 56.771733 50.883043 
L 56.174962 49.76864 
L 55.536647 48.654237 
L 54.874721 47.539835 
L 54.201631 46.425432 
L 53.520985 45.311029 
L 52.829842 44.196627 
L 52.123713 43.082224 
L 51.400051 41.967821 
L 50.657752 40.853418 
L 49.893527 39.739016 
L 49.09846 38.624613 
L 48.258003 37.51021 
L 47.356325 36.395808 
L 46.382925 35.281405 
L 45.337618 34.167002 
L 44.231022 33.052599 
L 43.081002 31.938197 
L 41.909318 30.823794 
L 40.743893 29.709391 
L 39.629077 28.594989 
L 38.640397 27.480586 
L 37.895324 26.366183 
L 37.551136 25.25178 
L 37.785707 24.137378 
L 38.764253 23.022975 
L 40.600923 21.908572 
L 43.325972 20.79417 
L 46.867328 19.679767 
L 51.051338 18.565364 
L 55.62318 17.450962 
L 60.28354 16.336559 
L 64.734569 15.222156 
L 68.725388 14.107753 
L 72.086547 12.993351 
L 88.288453 12.993351 
L 88.288453 12.993351 
L 91.649612 14.107753 
L 95.640431 15.222156 
L 100.09146 16.336559 
L 104.75182 17.450962 
L 109.323662 18.565364 
L 113.507672 19.679767 
L 117.049028 20.79417 
L 119.774077 21.908572 
L 121.610747 23.022975 
L 122.589293 24.137378 
L 122.823864 25.25178 
L 122.479676 26.366183 
L 121.734603 27.480586 
L 120.745923 28.594989 
L 119.631107 29.709391 
L 118.465682 30.823794 
L 117.293998 31.938197 
L 116.143978 33.052599 
L 115.037382 34.167002 
L 113.992075 35.281405 
L 113.018675 36.395808 
L 112.116997 37.51021 
L 111.27654 38.624613 
L 110.481473 39.739016 
L 109.717248 40.853418 
L 108.974949 41.967821 
L 108.251287 43.082224 
L 107.545158 44.196627 
L 106.854015 45.311029 
L 106.173369 46.425432 
L 105.500279 47.539835 
L 104.838353 48.654237 
L 104.200038 49.76864 
L 103.603267 50.883043 
L 103.063253 51.997445 
L 102.583636 53.111848 
L 102.152065 54.226251 
L 101.743037 55.340654 
L 101.327074 56.455056 
L 100.88238 57.569459 
L 100.404354 58.683862 
L 99.909715 59.798264 
L 99.43432 60.912667 
L 99.025815 62.02707 
L 98.733279 63.141473 
L 98.5962 64.255875 
L 98.634802 65.370278 
L 98.843405 66.484681 
L 99.188124 67.599083 
L 99.609671 68.713486 
L 100.031438 69.827889 
L 100.372314 70.942291 
L 100.562663 72.056694 
L 100.560439 73.171097 
L 100.362898 74.2855 
L 100.009262 75.399902 
L 99.571886 76.514305 
L 99.137675 77.628708 
L 98.785506 78.74311 
L 98.566951 79.857513 
L 98.49597 80.971916 
L 98.549875 82.086319 
L 98.68046 83.200721 
L 98.831597 84.315124 
L 98.957771 85.429527 
L 99.037126 86.543929 
L 99.073808 87.658332 
L 99.088453 88.772735 
L 99.1015 89.887138 
L 99.118183 91.00154 
L 99.123568 92.115943 
L 99.090367 93.230346 
L 98.994775 94.344748 
L 98.830998 95.459151 
L 98.61628 96.573554 
L 98.384219 97.687956 
L 98.170848 98.802359 
L 98.001275 99.916762 
L 97.883049 101.031165 
L 97.807517 102.145567 
L 97.755715 103.25997 
L 97.703428 104.374373 
L 97.621788 105.488775 
L 97.473809 106.603178 
L 97.211048 107.717581 
L 96.775717 108.831984 
L 96.111055 109.946386 
L 95.17794 111.060789 
L 93.971491 112.175192 
L 92.530569 113.289594 
L 90.935924 114.403997 
L 89.297183 115.5184 
L 87.732227 116.632803 
L 86.34383 117.747205 
L 85.198767 118.861608 
L 84.314789 119.976011 
L 83.66031 121.090413 
L 83.168551 122.204816 
L 82.762175 123.319219 
z
" style="fill:#1f77b4;fill-opacity:0.3;"/>
   </g>
   <g id="matplotlib.axis_1"/>
   <g id="matplotlib.axis_2">
    <g id="ytick_1">
     <g id="line2d_1">
      <defs>
       <path d="M 0 0 
L -3.5 0 
" id="m70449317e9" style="stroke:#000000;stroke-width:0.8;"/>
      </defs>
      <g>
       <use style="stroke:#000000;stroke-width:0.8;" x="33.2875" xlink:href="#m70449317e9" y="123.319219"/>
      </g>
     </g>
     <g id="text_1">
      <!-- 0 -->
      <defs>
       <path d="M 31.78125 66.40625 
Q 24.171875 66.40625 20.328125 58.90625 
Q 16.5 51.421875 16.5 36.375 
Q 16.5 21.390625 20.328125 13.890625 
Q 24.171875 6.390625 31.78125 6.390625 
Q 39.453125 6.390625 43.28125 13.890625 
Q 47.125 21.390625 47.125 36.375 
Q 47.125 51.421875 43.28125 58.90625 
Q 39.453125 66.40625 31.78125 66.40625 
z
M 31.78125 74.21875 
Q 44.046875 74.21875 50.515625 64.515625 
Q 56.984375 54.828125 56.984375 36.375 
Q 56.984375 17.96875 50.515625 8.265625 
Q 44.046875 -1.421875 31.78125 -1.421875 
Q 19.53125 -1.421875 13.0625 8.265625 
Q 6.59375 17.96875 6.59375 36.375 
Q 6.59375 54.828125 13.0625 64.515625 
Q 19.53125 74.21875 31.78125 74.21875 
z
" id="DejaVuSans-30"/>
      </defs>
      <g transform="translate(19.925 127.118437)scale(0.1 -0.1)">
       <use xlink:href="#DejaVuSans-30"/>
      </g>
     </g>
    </g>
    <g id="ytick_2">
     <g id="line2d_2">
      <g>
       <use style="stroke:#000000;stroke-width:0.8;" x="33.2875" xlink:href="#m70449317e9" y="67.159219"/>
      </g>
     </g>
     <g id="text_2">
      <!-- 150 -->
      <defs>
       <path d="M 12.40625 8.296875 
L 28.515625 8.296875 
L 28.515625 63.921875 
L 10.984375 60.40625 
L 10.984375 69.390625 
L 28.421875 72.90625 
L 38.28125 72.90625 
L 38.28125 8.296875 
L 54.390625 8.296875 
L 54.390625 0 
L 12.40625 0 
z
" id="DejaVuSans-31"/>
       <path d="M 10.796875 72.90625 
L 49.515625 72.90625 
L 49.515625 64.59375 
L 19.828125 64.59375 
L 19.828125 46.734375 
Q 21.96875 47.46875 24.109375 47.828125 
Q 26.265625 48.1875 28.421875 48.1875 
Q 40.625 48.1875 47.75 41.5 
Q 54.890625 34.8125 54.890625 23.390625 
Q 54.890625 11.625 47.5625 5.09375 
Q 40.234375 -1.421875 26.90625 -1.421875 
Q 22.3125 -1.421875 17.546875 -0.640625 
Q 12.796875 0.140625 7.71875 1.703125 
L 7.71875 11.625 
Q 12.109375 9.234375 16.796875 8.0625 
Q 21.484375 6.890625 26.703125 6.890625 
Q 35.15625 6.890625 40.078125 11.328125 
Q 45.015625 15.765625 45.015625 23.390625 
Q 45.015625 31 40.078125 35.4375 
Q 35.15625 39.890625 26.703125 39.890625 
Q 22.75 39.890625 18.8125 39.015625 
Q 14.890625 38.140625 10.796875 36.28125 
z
" id="DejaVuSans-35"/>
      </defs>
      <g transform="translate(7.2 70.958437)scale(0.1 -0.1)">
       <use xlink:href="#DejaVuSans-31"/>
       <use x="63.623047" xlink:href="#DejaVuSans-35"/>
       <use x="127.246094" xlink:href="#DejaVuSans-30"/>
      </g>
     </g>
    </g>
    <g id="ytick_3">
     <g id="line2d_3">
      <g>
       <use style="stroke:#000000;stroke-width:0.8;" x="33.2875" xlink:href="#m70449317e9" y="10.999219"/>
      </g>
     </g>
     <g id="text_3">
      <!-- 300 -->
      <defs>
       <path d="M 40.578125 39.3125 
Q 47.65625 37.796875 51.625 33 
Q 55.609375 28.21875 55.609375 21.1875 
Q 55.609375 10.40625 48.1875 4.484375 
Q 40.765625 -1.421875 27.09375 -1.421875 
Q 22.515625 -1.421875 17.65625 -0.515625 
Q 12.796875 0.390625 7.625 2.203125 
L 7.625 11.71875 
Q 11.71875 9.328125 16.59375 8.109375 
Q 21.484375 6.890625 26.8125 6.890625 
Q 36.078125 6.890625 40.9375 10.546875 
Q 45.796875 14.203125 45.796875 21.1875 
Q 45.796875 27.640625 41.28125 31.265625 
Q 36.765625 34.90625 28.71875 34.90625 
L 20.21875 34.90625 
L 20.21875 43.015625 
L 29.109375 43.015625 
Q 36.375 43.015625 40.234375 45.921875 
Q 44.09375 48.828125 44.09375 54.296875 
Q 44.09375 59.90625 40.109375 62.90625 
Q 36.140625 65.921875 28.71875 65.921875 
Q 24.65625 65.921875 20.015625 65.03125 
Q 15.375 64.15625 9.8125 62.3125 
L 9.8125 71.09375 
Q 15.4375 72.65625 20.34375 73.4375 
Q 25.25 74.21875 29.59375 74.21875 
Q 40.828125 74.21875 47.359375 69.109375 
Q 53.90625 64.015625 53.90625 55.328125 
Q 53.90625 49.265625 50.4375 45.09375 
Q 46.96875 40.921875 40.578125 39.3125 
z
" id="DejaVuSans-33"/>
      </defs>
      <g transform="translate(7.2 14.798437)scale(0.1 -0.1)">
       <use xlink:href="#DejaVuSans-33"/>
       <use x="63.623047" xlink:href="#DejaVuSans-30"/>
       <use x="127.246094" xlink:href="#DejaVuSans-30"/>
      </g>
     </g>
    </g>
   </g>
   <g id="patch_3">
    <path d="M 33.2875 123.319219 
L 33.2875 10.999219 
" style="fill:none;stroke:#000000;stroke-linecap:square;stroke-linejoin:miter;stroke-width:0.8;"/>
   </g>
   <g id="patch_4">
    <path d="M 33.2875 123.319219 
L 127.0875 123.319219 
" style="fill:none;stroke:#000000;stroke-linecap:square;stroke-linejoin:miter;stroke-width:0.8;"/>
   </g>
  </g>
 </g>
 <defs>
  <clipPath id="p24c7cb3ee5">
   <rect height="112.32" width="93.8" x="33.2875" y="10.999219"/>
  </clipPath>
 </defs>
</svg>
