<?xml version="1.0" encoding="utf-8" standalone="no"?>
<!DOCTYPE svg PUBLIC "-//W3C//DTD SVG 1.1//EN"
  "http://www.w3.org/Graphics/SVG/1.1/DTD/svg11.dtd">
<!-- Created with matplotlib (http://matplotlib.org/) -->
<svg height="136pt" version="1.1" viewBox="0 0 101 136" width="101pt" xmlns="http://www.w3.org/2000/svg" xmlns:xlink="http://www.w3.org/1999/xlink">
 <defs>
  <style type="text/css">
*{stroke-linecap:butt;stroke-linejoin:round;}
  </style>
 </defs>
 <g id="figure_1">
  <g id="patch_1">
   <path d="M 0 136.398125 
L 101.7875 136.398125 
L 101.7875 0 
L 0 0 
z
" style="fill:#ffffff;"/>
  </g>
  <g id="axes_1">
   <g id="patch_2">
    <path d="M 33.2875 123.319219 
L 91.0875 123.319219 
L 91.0875 10.999219 
L 33.2875 10.999219 
z
" style="fill:#ffffff;"/>
   </g>
   <g id="PolyCollection_1">
    <path clip-path="url(#pb374a09cf9)" d="M 63.731042 123.319219 
L 60.643958 123.319219 
L 60.380314 122.204531 
L 60.05574 121.089843 
L 59.623565 119.975155 
L 59.045027 118.860468 
L 58.303861 117.74578 
L 57.413787 116.631092 
L 56.416865 115.516404 
L 55.374579 114.401716 
L 54.355413 113.287029 
L 53.42253 112.172341 
L 52.624019 111.057653 
L 51.98719 109.942965 
L 51.517556 108.828277 
L 51.202161 107.71359 
L 51.015723 106.598902 
L 50.92739 105.484214 
L 50.906232 104.369526 
L 50.924685 103.254838 
L 50.960269 102.140151 
L 50.996321 101.025463 
L 51.022106 99.910775 
L 51.032113 98.796087 
L 51.024167 97.6814 
L 50.996516 96.566712 
L 50.945063 95.452024 
L 50.86257 94.337336 
L 50.741257 93.222648 
L 50.578523 92.107961 
L 50.383247 90.993273 
L 50.178811 89.878585 
L 49.99972 88.763897 
L 49.881733 87.649209 
L 49.84897 86.534522 
L 49.903629 85.419834 
L 50.023048 84.305146 
L 50.165593 83.190458 
L 50.282977 82.07577 
L 50.334384 80.961083 
L 50.297797 79.846395 
L 50.175647 78.731707 
L 49.993962 77.617019 
L 49.795746 76.502331 
L 49.630384 75.387644 
L 49.541582 74.272956 
L 49.556696 73.158268 
L 49.680016 72.04358 
L 49.891399 70.928892 
L 50.150087 69.814205 
L 50.402245 68.699517 
L 50.59031 67.584829 
L 50.662667 66.470141 
L 50.582874 65.355454 
L 50.33774 64.240766 
L 49.942777 63.126078 
L 49.442586 62.01139 
L 48.903798 60.896702 
L 48.400318 59.782015 
L 47.994139 58.667327 
L 47.718047 57.552639 
L 47.566919 56.437951 
L 47.501267 55.323263 
L 47.4616 54.208576 
L 47.387635 53.093888 
L 47.234758 51.9792 
L 46.982148 50.864512 
L 46.631324 49.749824 
L 46.198358 48.635137 
L 45.705125 47.520449 
L 45.173957 46.405761 
L 44.626615 45.291073 
L 44.085024 44.176385 
L 43.5702 43.061698 
L 43.097829 41.94701 
L 42.672377 40.832322 
L 42.28364 39.717634 
L 41.908657 38.602946 
L 41.518803 37.488259 
L 41.088972 36.373571 
L 40.604893 35.258883 
L 40.065927 34.144195 
L 39.482978 33.029508 
L 38.87329 31.91482 
L 38.255187 30.800132 
L 37.646032 29.685444 
L 37.065606 28.570756 
L 36.544589 27.456069 
L 36.134709 26.341381 
L 35.914773 25.226693 
L 35.986928 24.112005 
L 36.460849 22.997317 
L 37.428782 21.88263 
L 38.938917 20.767942 
L 40.975907 19.653254 
L 43.454904 18.538566 
L 46.230962 17.423878 
L 49.121214 16.309191 
L 51.934446 15.194503 
L 54.501409 14.079815 
L 56.699286 12.965127 
L 67.675714 12.965127 
L 67.675714 12.965127 
L 69.873591 14.079815 
L 72.440554 15.194503 
L 75.253786 16.309191 
L 78.144038 17.423878 
L 80.920096 18.538566 
L 83.399093 19.653254 
L 85.436083 20.767942 
L 86.946218 21.88263 
L 87.914151 22.997317 
L 88.388072 24.112005 
L 88.460227 25.226693 
L 88.240291 26.341381 
L 87.830411 27.456069 
L 87.309394 28.570756 
L 86.728968 29.685444 
L 86.119813 30.800132 
L 85.50171 31.91482 
L 84.892022 33.029508 
L 84.309073 34.144195 
L 83.770107 35.258883 
L 83.286028 36.373571 
L 82.856197 37.488259 
L 82.466343 38.602946 
L 82.09136 39.717634 
L 81.702623 40.832322 
L 81.277171 41.94701 
L 80.8048 43.061698 
L 80.289976 44.176385 
L 79.748385 45.291073 
L 79.201043 46.405761 
L 78.669875 47.520449 
L 78.176642 48.635137 
L 77.743676 49.749824 
L 77.392852 50.864512 
L 77.140242 51.9792 
L 76.987365 53.093888 
L 76.9134 54.208576 
L 76.873733 55.323263 
L 76.808081 56.437951 
L 76.656953 57.552639 
L 76.380861 58.667327 
L 75.974682 59.782015 
L 75.471202 60.896702 
L 74.932414 62.01139 
L 74.432223 63.126078 
L 74.03726 64.240766 
L 73.792126 65.355454 
L 73.712333 66.470141 
L 73.78469 67.584829 
L 73.972755 68.699517 
L 74.224913 69.814205 
L 74.483601 70.928892 
L 74.694984 72.04358 
L 74.818304 73.158268 
L 74.833418 74.272956 
L 74.744616 75.387644 
L 74.579254 76.502331 
L 74.381038 77.617019 
L 74.199353 78.731707 
L 74.077203 79.846395 
L 74.040616 80.961083 
L 74.092023 82.07577 
L 74.209407 83.190458 
L 74.351952 84.305146 
L 74.471371 85.419834 
L 74.52603 86.534522 
L 74.493267 87.649209 
L 74.37528 88.763897 
L 74.196189 89.878585 
L 73.991753 90.993273 
L 73.796477 92.107961 
L 73.633743 93.222648 
L 73.51243 94.337336 
L 73.429937 95.452024 
L 73.378484 96.566712 
L 73.350833 97.6814 
L 73.342887 98.796087 
L 73.352894 99.910775 
L 73.378679 101.025463 
L 73.414731 102.140151 
L 73.450315 103.254838 
L 73.468768 104.369526 
L 73.44761 105.484214 
L 73.359277 106.598902 
L 73.172839 107.71359 
L 72.857444 108.828277 
L 72.38781 109.942965 
L 71.750981 111.057653 
L 70.95247 112.172341 
L 70.019587 113.287029 
L 69.000421 114.401716 
L 67.958135 115.516404 
L 66.961213 116.631092 
L 66.071139 117.74578 
L 65.329973 118.860468 
L 64.751435 119.975155 
L 64.31926 121.089843 
L 63.994686 122.204531 
L 63.731042 123.319219 
z
" style="fill:#1f77b4;fill-opacity:0.3;"/>
   </g>
   <g id="matplotlib.axis_1"/>
   <g id="matplotlib.axis_2">
    <g id="ytick_1">
     <g id="line2d_1">
      <defs>
       <path d="M 0 0 
L -3.5 0 
" id="mafb406a03e" style="stroke:#000000;stroke-width:0.8;"/>
      </defs>
      <g>
       <use style="stroke:#000000;stroke-width:0.8;" x="33.2875" xlink:href="#mafb406a03e" y="123.319219"/>
      </g>
     </g>
     <g id="text_1">
      <!-- 0 -->
      <defs>
       <path d="M 31.78125 66.40625 
Q 24.171875 66.40625 20.328125 58.90625 
Q 16.5 51.421875 16.5 36.375 
Q 16.5 21.390625 20.328125 13.890625 
Q 24.171875 6.390625 31.78125 6.390625 
Q 39.453125 6.390625 43.28125 13.890625 
Q 47.125 21.390625 47.125 36.375 
Q 47.125 51.421875 43.28125 58.90625 
Q 39.453125 66.40625 31.78125 66.40625 
z
M 31.78125 74.21875 
Q 44.046875 74.21875 50.515625 64.515625 
Q 56.984375 54.828125 56.984375 36.375 
Q 56.984375 17.96875 50.515625 8.265625 
Q 44.046875 -1.421875 31.78125 -1.421875 
Q 19.53125 -1.421875 13.0625 8.265625 
Q 6.59375 17.96875 6.59375 36.375 
Q 6.59375 54.828125 13.0625 64.515625 
Q 19.53125 74.21875 31.78125 74.21875 
z
" id="DejaVuSans-30"/>
      </defs>
      <g transform="translate(19.925 127.118437)scale(0.1 -0.1)">
       <use xlink:href="#DejaVuSans-30"/>
      </g>
     </g>
    </g>
    <g id="ytick_2">
     <g id="line2d_2">
      <g>
       <use style="stroke:#000000;stroke-width:0.8;" x="33.2875" xlink:href="#mafb406a03e" y="67.159219"/>
      </g>
     </g>
     <g id="text_2">
      <!-- 150 -->
      <defs>
       <path d="M 12.40625 8.296875 
L 28.515625 8.296875 
L 28.515625 63.921875 
L 10.984375 60.40625 
L 10.984375 69.390625 
L 28.421875 72.90625 
L 38.28125 72.90625 
L 38.28125 8.296875 
L 54.390625 8.296875 
L 54.390625 0 
L 12.40625 0 
z
" id="DejaVuSans-31"/>
       <path d="M 10.796875 72.90625 
L 49.515625 72.90625 
L 49.515625 64.59375 
L 19.828125 64.59375 
L 19.828125 46.734375 
Q 21.96875 47.46875 24.109375 47.828125 
Q 26.265625 48.1875 28.421875 48.1875 
Q 40.625 48.1875 47.75 41.5 
Q 54.890625 34.8125 54.890625 23.390625 
Q 54.890625 11.625 47.5625 5.09375 
Q 40.234375 -1.421875 26.90625 -1.421875 
Q 22.3125 -1.421875 17.546875 -0.640625 
Q 12.796875 0.140625 7.71875 1.703125 
L 7.71875 11.625 
Q 12.109375 9.234375 16.796875 8.0625 
Q 21.484375 6.890625 26.703125 6.890625 
Q 35.15625 6.890625 40.078125 11.328125 
Q 45.015625 15.765625 45.015625 23.390625 
Q 45.015625 31 40.078125 35.4375 
Q 35.15625 39.890625 26.703125 39.890625 
Q 22.75 39.890625 18.8125 39.015625 
Q 14.890625 38.140625 10.796875 36.28125 
z
" id="DejaVuSans-35"/>
      </defs>
      <g transform="translate(7.2 70.958437)scale(0.1 -0.1)">
       <use xlink:href="#DejaVuSans-31"/>
       <use x="63.623047" xlink:href="#DejaVuSans-35"/>
       <use x="127.246094" xlink:href="#DejaVuSans-30"/>
      </g>
     </g>
    </g>
    <g id="ytick_3">
     <g id="line2d_3">
      <g>
       <use style="stroke:#000000;stroke-width:0.8;" x="33.2875" xlink:href="#mafb406a03e" y="10.999219"/>
      </g>
     </g>
     <g id="text_3">
      <!-- 300 -->
      <defs>
       <path d="M 40.578125 39.3125 
Q 47.65625 37.796875 51.625 33 
Q 55.609375 28.21875 55.609375 21.1875 
Q 55.609375 10.40625 48.1875 4.484375 
Q 40.765625 -1.421875 27.09375 -1.421875 
Q 22.515625 -1.421875 17.65625 -0.515625 
Q 12.796875 0.390625 7.625 2.203125 
L 7.625 11.71875 
Q 11.71875 9.328125 16.59375 8.109375 
Q 21.484375 6.890625 26.8125 6.890625 
Q 36.078125 6.890625 40.9375 10.546875 
Q 45.796875 14.203125 45.796875 21.1875 
Q 45.796875 27.640625 41.28125 31.265625 
Q 36.765625 34.90625 28.71875 34.90625 
L 20.21875 34.90625 
L 20.21875 43.015625 
L 29.109375 43.015625 
Q 36.375 43.015625 40.234375 45.921875 
Q 44.09375 48.828125 44.09375 54.296875 
Q 44.09375 59.90625 40.109375 62.90625 
Q 36.140625 65.921875 28.71875 65.921875 
Q 24.65625 65.921875 20.015625 65.03125 
Q 15.375 64.15625 9.8125 62.3125 
L 9.8125 71.09375 
Q 15.4375 72.65625 20.34375 73.4375 
Q 25.25 74.21875 29.59375 74.21875 
Q 40.828125 74.21875 47.359375 69.109375 
Q 53.90625 64.015625 53.90625 55.328125 
Q 53.90625 49.265625 50.4375 45.09375 
Q 46.96875 40.921875 40.578125 39.3125 
z
" id="DejaVuSans-33"/>
      </defs>
      <g transform="translate(7.2 14.798437)scale(0.1 -0.1)">
       <use xlink:href="#DejaVuSans-33"/>
       <use x="63.623047" xlink:href="#DejaVuSans-30"/>
       <use x="127.246094" xlink:href="#DejaVuSans-30"/>
      </g>
     </g>
    </g>
   </g>
   <g id="patch_3">
    <path d="M 33.2875 123.319219 
L 33.2875 10.999219 
" style="fill:none;stroke:#000000;stroke-linecap:square;stroke-linejoin:miter;stroke-width:0.8;"/>
   </g>
   <g id="patch_4">
    <path d="M 33.2875 123.319219 
L 91.0875 123.319219 
" style="fill:none;stroke:#000000;stroke-linecap:square;stroke-linejoin:miter;stroke-width:0.8;"/>
   </g>
  </g>
 </g>
 <defs>
  <clipPath id="pb374a09cf9">
   <rect height="112.32" width="57.8" x="33.2875" y="10.999219"/>
  </clipPath>
 </defs>
</svg>
