<?xml version="1.0" encoding="utf-8" standalone="no"?>
<!DOCTYPE svg PUBLIC "-//W3C//DTD SVG 1.1//EN"
  "http://www.w3.org/Graphics/SVG/1.1/DTD/svg11.dtd">
<!-- Created with matplotlib (http://matplotlib.org/) -->
<svg height="136pt" version="1.1" viewBox="0 0 137 136" width="137pt" xmlns="http://www.w3.org/2000/svg" xmlns:xlink="http://www.w3.org/1999/xlink">
 <defs>
  <style type="text/css">
*{stroke-linecap:butt;stroke-linejoin:round;}
  </style>
 </defs>
 <g id="figure_1">
  <g id="patch_1">
   <path d="M 0 136.398125 
L 137.7875 136.398125 
L 137.7875 0 
L 0 0 
z
" style="fill:#ffffff;"/>
  </g>
  <g id="axes_1">
   <g id="patch_2">
    <path d="M 33.2875 123.319219 
L 127.0875 123.319219 
L 127.0875 10.999219 
L 33.2875 10.999219 
z
" style="fill:#ffffff;"/>
   </g>
   <g id="PolyCollection_1">
    <path clip-path="url(#pc3cf3b5710)" d="M 80.34909 123.319219 
L 67.240321 123.319219 
L 65.386379 122.20517 
L 63.341506 121.091122 
L 60.93501 119.977073 
L 58.054426 118.863025 
L 54.713377 117.748976 
L 51.078222 116.634927 
L 47.440582 115.520879 
L 44.145372 114.40683 
L 41.50101 113.292782 
L 39.70341 112.178733 
L 38.797535 111.064685 
L 38.684524 109.950636 
L 39.165585 108.836588 
L 40.0027 107.722539 
L 40.97433 106.60849 
L 41.911412 105.494442 
L 42.710256 104.380393 
L 43.32842 103.266345 
L 43.772926 102.152296 
L 44.087327 101.038248 
L 44.338724 99.924199 
L 44.60269 98.810151 
L 44.945315 97.696102 
L 45.405909 96.582053 
L 45.98716 95.468005 
L 46.658388 94.353956 
L 47.371488 93.239908 
L 48.081922 92.125859 
L 48.763523 91.011811 
L 49.408988 89.897762 
L 50.016418 88.783714 
L 50.571092 87.669665 
L 51.035348 86.555616 
L 51.355447 85.441568 
L 51.484799 84.327519 
L 51.413074 83.213471 
L 51.186206 82.099422 
L 50.905556 80.985374 
L 50.704056 79.871325 
L 50.708062 78.757277 
L 51.000231 77.643228 
L 51.597714 76.529179 
L 52.452222 75.415131 
L 53.468596 74.301082 
L 54.531823 73.187034 
L 55.531763 72.072985 
L 56.379275 70.958937 
L 57.013149 69.844888 
L 57.400889 68.73084 
L 57.53674 67.616791 
L 57.438561 66.502742 
L 57.143488 65.388694 
L 56.701862 64.274645 
L 56.169717 63.160597 
L 55.60105 62.046548 
L 55.041438 60.9325 
L 54.524067 59.818451 
L 54.068488 58.704403 
L 53.681781 57.590354 
L 53.361443 56.476305 
L 53.098943 55.362257 
L 52.8825 54.248208 
L 52.697633 53.13416 
L 52.524899 52.020111 
L 52.335969 50.906063 
L 52.090937 49.792014 
L 51.740301 48.677966 
L 51.233534 47.563917 
L 50.532966 46.449869 
L 49.628295 45.33582 
L 48.545343 44.221771 
L 47.343949 43.107723 
L 46.103945 41.993674 
L 44.903568 40.879626 
L 43.798592 39.765577 
L 42.810786 38.651529 
L 41.930236 37.53748 
L 41.129517 36.423432 
L 40.382198 35.309383 
L 39.677025 34.195334 
L 39.022741 33.081286 
L 38.444565 31.967237 
L 37.977697 30.853189 
L 37.663555 29.73914 
L 37.551136 28.625092 
L 37.7015 27.511043 
L 38.190613 26.396995 
L 39.105805 25.282946 
L 40.533494 24.168897 
L 42.539528 23.054849 
L 45.147034 21.9408 
L 48.318807 20.826752 
L 51.950784 19.712703 
L 55.880085 18.598655 
L 59.90644 17.484606 
L 63.821613 16.370558 
L 67.439378 15.256509 
L 70.619173 14.14246 
L 73.279075 13.028412 
L 80.34909 13.028412 
L 80.34909 13.028412 
L 80.34909 14.14246 
L 80.34909 15.256509 
L 80.34909 16.370558 
L 80.34909 17.484606 
L 80.34909 18.598655 
L 80.34909 19.712703 
L 80.34909 20.826752 
L 80.34909 21.9408 
L 80.34909 23.054849 
L 80.34909 24.168897 
L 80.34909 25.282946 
L 80.34909 26.396995 
L 80.34909 27.511043 
L 80.34909 28.625092 
L 80.34909 29.73914 
L 80.34909 30.853189 
L 80.34909 31.967237 
L 80.34909 33.081286 
L 80.34909 34.195334 
L 80.34909 35.309383 
L 80.34909 36.423432 
L 80.34909 37.53748 
L 80.34909 38.651529 
L 80.34909 39.765577 
L 80.34909 40.879626 
L 80.34909 41.993674 
L 80.34909 43.107723 
L 80.34909 44.221771 
L 80.34909 45.33582 
L 80.34909 46.449869 
L 80.34909 47.563917 
L 80.34909 48.677966 
L 80.34909 49.792014 
L 80.34909 50.906063 
L 80.34909 52.020111 
L 80.34909 53.13416 
L 80.34909 54.248208 
L 80.34909 55.362257 
L 80.34909 56.476305 
L 80.34909 57.590354 
L 80.34909 58.704403 
L 80.34909 59.818451 
L 80.34909 60.9325 
L 80.34909 62.046548 
L 80.34909 63.160597 
L 80.34909 64.274645 
L 80.34909 65.388694 
L 80.34909 66.502742 
L 80.34909 67.616791 
L 80.34909 68.73084 
L 80.34909 69.844888 
L 80.34909 70.958937 
L 80.34909 72.072985 
L 80.34909 73.187034 
L 80.34909 74.301082 
L 80.34909 75.415131 
L 80.34909 76.529179 
L 80.34909 77.643228 
L 80.34909 78.757277 
L 80.34909 79.871325 
L 80.34909 80.985374 
L 80.34909 82.099422 
L 80.34909 83.213471 
L 80.34909 84.327519 
L 80.34909 85.441568 
L 80.34909 86.555616 
L 80.34909 87.669665 
L 80.34909 88.783714 
L 80.34909 89.897762 
L 80.34909 91.011811 
L 80.34909 92.125859 
L 80.34909 93.239908 
L 80.34909 94.353956 
L 80.34909 95.468005 
L 80.34909 96.582053 
L 80.34909 97.696102 
L 80.34909 98.810151 
L 80.34909 99.924199 
L 80.34909 101.038248 
L 80.34909 102.152296 
L 80.34909 103.266345 
L 80.34909 104.380393 
L 80.34909 105.494442 
L 80.34909 106.60849 
L 80.34909 107.722539 
L 80.34909 108.836588 
L 80.34909 109.950636 
L 80.34909 111.064685 
L 80.34909 112.178733 
L 80.34909 113.292782 
L 80.34909 114.40683 
L 80.34909 115.520879 
L 80.34909 116.634927 
L 80.34909 117.748976 
L 80.34909 118.863025 
L 80.34909 119.977073 
L 80.34909 121.091122 
L 80.34909 122.20517 
L 80.34909 123.319219 
z
" style="fill:#1f77b4;fill-opacity:0.3;"/>
   </g>
   <g id="PolyCollection_2">
    <path clip-path="url(#pc3cf3b5710)" d="M 82.619981 123.319219 
L 80.250738 123.319219 
L 80.250738 122.204492 
L 80.250738 121.089766 
L 80.250738 119.97504 
L 80.250738 118.860314 
L 80.250738 117.745587 
L 80.250738 116.630861 
L 80.250738 115.516135 
L 80.250738 114.401409 
L 80.250738 113.286682 
L 80.250738 112.171956 
L 80.250738 111.05723 
L 80.250738 109.942504 
L 80.250738 108.827777 
L 80.250738 107.713051 
L 80.250738 106.598325 
L 80.250738 105.483598 
L 80.250738 104.368872 
L 80.250738 103.254146 
L 80.250738 102.13942 
L 80.250738 101.024693 
L 80.250738 99.909967 
L 80.250738 98.795241 
L 80.250738 97.680515 
L 80.250738 96.565788 
L 80.250738 95.451062 
L 80.250738 94.336336 
L 80.250738 93.22161 
L 80.250738 92.106883 
L 80.250738 90.992157 
L 80.250738 89.877431 
L 80.250738 88.762705 
L 80.250738 87.647978 
L 80.250738 86.533252 
L 80.250738 85.418526 
L 80.250738 84.303799 
L 80.250738 83.189073 
L 80.250738 82.074347 
L 80.250738 80.959621 
L 80.250738 79.844894 
L 80.250738 78.730168 
L 80.250738 77.615442 
L 80.250738 76.500716 
L 80.250738 75.385989 
L 80.250738 74.271263 
L 80.250738 73.156537 
L 80.250738 72.041811 
L 80.250738 70.927084 
L 80.250738 69.812358 
L 80.250738 68.697632 
L 80.250738 67.582905 
L 80.250738 66.468179 
L 80.250738 65.353453 
L 80.250738 64.238727 
L 80.250738 63.124 
L 80.250738 62.009274 
L 80.250738 60.894548 
L 80.250738 59.779822 
L 80.250738 58.665095 
L 80.250738 57.550369 
L 80.250738 56.435643 
L 80.250738 55.320917 
L 80.250738 54.20619 
L 80.250738 53.091464 
L 80.250738 51.976738 
L 80.250738 50.862011 
L 80.250738 49.747285 
L 80.250738 48.632559 
L 80.250738 47.517833 
L 80.250738 46.403106 
L 80.250738 45.28838 
L 80.250738 44.173654 
L 80.250738 43.058928 
L 80.250738 41.944201 
L 80.250738 40.829475 
L 80.250738 39.714749 
L 80.250738 38.600023 
L 80.250738 37.485296 
L 80.250738 36.37057 
L 80.250738 35.255844 
L 80.250738 34.141117 
L 80.250738 33.026391 
L 80.250738 31.911665 
L 80.250738 30.796939 
L 80.250738 29.682212 
L 80.250738 28.567486 
L 80.250738 27.45276 
L 80.250738 26.338034 
L 80.250738 25.223307 
L 80.250738 24.108581 
L 80.250738 22.993855 
L 80.250738 21.879129 
L 80.250738 20.764402 
L 80.250738 19.649676 
L 80.250738 18.53495 
L 80.250738 17.420224 
L 80.250738 16.305497 
L 80.250738 15.190771 
L 80.250738 14.076045 
L 80.250738 12.961318 
L 88.159817 12.961318 
L 88.159817 12.961318 
L 91.491365 14.076045 
L 95.460107 15.190771 
L 99.899068 16.305497 
L 104.55491 17.420224 
L 109.122647 18.53495 
L 113.295298 19.649676 
L 116.816883 20.764402 
L 119.525296 21.879129 
L 121.373722 22.993855 
L 122.425273 24.108581 
L 122.823864 25.223307 
L 122.751629 26.338034 
L 122.386264 27.45276 
L 121.869586 28.567486 
L 121.293088 29.682212 
L 120.700129 30.796939 
L 120.099538 31.911665 
L 119.482874 33.026391 
L 118.837805 34.141117 
L 118.153431 35.255844 
L 117.418693 36.37057 
L 116.619326 37.485296 
L 115.73921 38.600023 
L 114.767825 39.714749 
L 113.709834 40.829475 
L 112.589806 41.944201 
L 111.447205 43.058928 
L 110.322896 44.173654 
L 109.244351 45.28838 
L 108.218278 46.403106 
L 107.235249 47.517833 
L 106.28352 48.632559 
L 105.363504 49.747285 
L 104.493979 50.862011 
L 103.706246 51.976738 
L 103.029624 53.091464 
L 102.476397 54.20619 
L 102.034196 55.320917 
L 101.669355 56.435643 
L 101.33908 57.550369 
L 101.006428 58.665095 
L 100.651875 59.779822 
L 100.277991 60.894548 
L 99.907396 62.009274 
L 99.576428 63.124 
L 99.326944 64.238727 
L 99.1975 65.353453 
L 99.214449 66.468179 
L 99.384199 67.582905 
L 99.689008 68.697632 
L 100.088498 69.812358 
L 100.526983 70.927084 
L 100.9439 72.041811 
L 101.283395 73.156537 
L 101.500696 74.271263 
L 101.565895 75.385989 
L 101.467541 76.500716 
L 101.217229 77.615442 
L 100.853138 78.730168 
L 100.43809 79.844894 
L 100.048768 80.959621 
L 99.757195 82.074347 
L 99.610645 83.189073 
L 99.618592 84.303799 
L 99.75308 85.418526 
L 99.96284 86.533252 
L 100.194661 87.647978 
L 100.411592 88.762705 
L 100.599219 89.877431 
L 100.758051 90.992157 
L 100.888293 92.106883 
L 100.977788 93.22161 
L 101.001481 94.336336 
L 100.932832 95.451062 
L 100.759568 96.565788 
L 100.493411 97.680515 
L 100.167735 98.795241 
L 99.824921 99.909967 
L 99.50105 101.024693 
L 99.215747 102.13942 
L 98.970173 103.254146 
L 98.750362 104.368872 
L 98.530565 105.483598 
L 98.273446 106.598325 
L 97.928772 107.713051 
L 97.435575 108.827777 
L 96.73186 109.942504 
L 95.771112 111.05723 
L 94.539768 112.171956 
L 93.068118 113.286682 
L 91.429831 114.401409 
L 89.730077 115.516135 
L 88.085807 116.630861 
L 86.602962 117.745587 
L 85.355413 118.860314 
L 84.370749 119.97504 
L 83.627823 121.089766 
L 83.068427 122.204492 
L 82.619981 123.319219 
z
" style="fill:#ff7f0e;fill-opacity:0.3;"/>
   </g>
   <g id="matplotlib.axis_1"/>
   <g id="matplotlib.axis_2">
    <g id="ytick_1">
     <g id="line2d_1">
      <defs>
       <path d="M 0 0 
L -3.5 0 
" id="m27f76c1d02" style="stroke:#000000;stroke-width:0.8;"/>
      </defs>
      <g>
       <use style="stroke:#000000;stroke-width:0.8;" x="33.2875" xlink:href="#m27f76c1d02" y="123.319219"/>
      </g>
     </g>
     <g id="text_1">
      <!-- 0 -->
      <defs>
       <path d="M 31.78125 66.40625 
Q 24.171875 66.40625 20.328125 58.90625 
Q 16.5 51.421875 16.5 36.375 
Q 16.5 21.390625 20.328125 13.890625 
Q 24.171875 6.390625 31.78125 6.390625 
Q 39.453125 6.390625 43.28125 13.890625 
Q 47.125 21.390625 47.125 36.375 
Q 47.125 51.421875 43.28125 58.90625 
Q 39.453125 66.40625 31.78125 66.40625 
z
M 31.78125 74.21875 
Q 44.046875 74.21875 50.515625 64.515625 
Q 56.984375 54.828125 56.984375 36.375 
Q 56.984375 17.96875 50.515625 8.265625 
Q 44.046875 -1.421875 31.78125 -1.421875 
Q 19.53125 -1.421875 13.0625 8.265625 
Q 6.59375 17.96875 6.59375 36.375 
Q 6.59375 54.828125 13.0625 64.515625 
Q 19.53125 74.21875 31.78125 74.21875 
z
" id="DejaVuSans-30"/>
      </defs>
      <g transform="translate(19.925 127.118437)scale(0.1 -0.1)">
       <use xlink:href="#DejaVuSans-30"/>
      </g>
     </g>
    </g>
    <g id="ytick_2">
     <g id="line2d_2">
      <g>
       <use style="stroke:#000000;stroke-width:0.8;" x="33.2875" xlink:href="#m27f76c1d02" y="67.159219"/>
      </g>
     </g>
     <g id="text_2">
      <!-- 150 -->
      <defs>
       <path d="M 12.40625 8.296875 
L 28.515625 8.296875 
L 28.515625 63.921875 
L 10.984375 60.40625 
L 10.984375 69.390625 
L 28.421875 72.90625 
L 38.28125 72.90625 
L 38.28125 8.296875 
L 54.390625 8.296875 
L 54.390625 0 
L 12.40625 0 
z
" id="DejaVuSans-31"/>
       <path d="M 10.796875 72.90625 
L 49.515625 72.90625 
L 49.515625 64.59375 
L 19.828125 64.59375 
L 19.828125 46.734375 
Q 21.96875 47.46875 24.109375 47.828125 
Q 26.265625 48.1875 28.421875 48.1875 
Q 40.625 48.1875 47.75 41.5 
Q 54.890625 34.8125 54.890625 23.390625 
Q 54.890625 11.625 47.5625 5.09375 
Q 40.234375 -1.421875 26.90625 -1.421875 
Q 22.3125 -1.421875 17.546875 -0.640625 
Q 12.796875 0.140625 7.71875 1.703125 
L 7.71875 11.625 
Q 12.109375 9.234375 16.796875 8.0625 
Q 21.484375 6.890625 26.703125 6.890625 
Q 35.15625 6.890625 40.078125 11.328125 
Q 45.015625 15.765625 45.015625 23.390625 
Q 45.015625 31 40.078125 35.4375 
Q 35.15625 39.890625 26.703125 39.890625 
Q 22.75 39.890625 18.8125 39.015625 
Q 14.890625 38.140625 10.796875 36.28125 
z
" id="DejaVuSans-35"/>
      </defs>
      <g transform="translate(7.2 70.958437)scale(0.1 -0.1)">
       <use xlink:href="#DejaVuSans-31"/>
       <use x="63.623047" xlink:href="#DejaVuSans-35"/>
       <use x="127.246094" xlink:href="#DejaVuSans-30"/>
      </g>
     </g>
    </g>
    <g id="ytick_3">
     <g id="line2d_3">
      <g>
       <use style="stroke:#000000;stroke-width:0.8;" x="33.2875" xlink:href="#m27f76c1d02" y="10.999219"/>
      </g>
     </g>
     <g id="text_3">
      <!-- 300 -->
      <defs>
       <path d="M 40.578125 39.3125 
Q 47.65625 37.796875 51.625 33 
Q 55.609375 28.21875 55.609375 21.1875 
Q 55.609375 10.40625 48.1875 4.484375 
Q 40.765625 -1.421875 27.09375 -1.421875 
Q 22.515625 -1.421875 17.65625 -0.515625 
Q 12.796875 0.390625 7.625 2.203125 
L 7.625 11.71875 
Q 11.71875 9.328125 16.59375 8.109375 
Q 21.484375 6.890625 26.8125 6.890625 
Q 36.078125 6.890625 40.9375 10.546875 
Q 45.796875 14.203125 45.796875 21.1875 
Q 45.796875 27.640625 41.28125 31.265625 
Q 36.765625 34.90625 28.71875 34.90625 
L 20.21875 34.90625 
L 20.21875 43.015625 
L 29.109375 43.015625 
Q 36.375 43.015625 40.234375 45.921875 
Q 44.09375 48.828125 44.09375 54.296875 
Q 44.09375 59.90625 40.109375 62.90625 
Q 36.140625 65.921875 28.71875 65.921875 
Q 24.65625 65.921875 20.015625 65.03125 
Q 15.375 64.15625 9.8125 62.3125 
L 9.8125 71.09375 
Q 15.4375 72.65625 20.34375 73.4375 
Q 25.25 74.21875 29.59375 74.21875 
Q 40.828125 74.21875 47.359375 69.109375 
Q 53.90625 64.015625 53.90625 55.328125 
Q 53.90625 49.265625 50.4375 45.09375 
Q 46.96875 40.921875 40.578125 39.3125 
z
" id="DejaVuSans-33"/>
      </defs>
      <g transform="translate(7.2 14.798437)scale(0.1 -0.1)">
       <use xlink:href="#DejaVuSans-33"/>
       <use x="63.623047" xlink:href="#DejaVuSans-30"/>
       <use x="127.246094" xlink:href="#DejaVuSans-30"/>
      </g>
     </g>
    </g>
   </g>
   <g id="patch_3">
    <path d="M 33.2875 123.319219 
L 33.2875 10.999219 
" style="fill:none;stroke:#000000;stroke-linecap:square;stroke-linejoin:miter;stroke-width:0.8;"/>
   </g>
   <g id="patch_4">
    <path d="M 33.2875 123.319219 
L 127.0875 123.319219 
" style="fill:none;stroke:#000000;stroke-linecap:square;stroke-linejoin:miter;stroke-width:0.8;"/>
   </g>
  </g>
 </g>
 <defs>
  <clipPath id="pc3cf3b5710">
   <rect height="112.32" width="93.8" x="33.2875" y="10.999219"/>
  </clipPath>
 </defs>
</svg>
