<?xml version="1.0" encoding="utf-8" standalone="no"?>
<!DOCTYPE svg PUBLIC "-//W3C//DTD SVG 1.1//EN"
  "http://www.w3.org/Graphics/SVG/1.1/DTD/svg11.dtd">
<!-- Created with matplotlib (http://matplotlib.org/) -->
<svg height="354pt" version="1.1" viewBox="0 0 425 354" width="425pt" xmlns="http://www.w3.org/2000/svg" xmlns:xlink="http://www.w3.org/1999/xlink">
 <defs>
  <style type="text/css">
*{stroke-linecap:butt;stroke-linejoin:round;}
  </style>
 </defs>
 <g id="figure_1">
  <g id="patch_1">
   <path d="M 0 354.04 
L 425.17433 354.04 
L 425.17433 0 
L 0 0 
z
" style="fill:#ffffff;"/>
  </g>
  <g id="axes_1">
   <g id="patch_2">
    <path d="M 95.617188 343.34 
L 414.47433 343.34 
L 414.47433 10.7 
L 95.617188 10.7 
z
" style="fill:#ffffff;"/>
   </g>
   <g id="matplotlib.axis_1"/>
   <g id="matplotlib.axis_2">
    <g id="ytick_1">
     <g id="line2d_1">
      <defs>
       <path d="M 0 0 
L -3.5 0 
" id="m29c07dd83c" style="stroke:#000000;stroke-width:0.8;"/>
      </defs>
      <g>
       <use style="stroke:#000000;stroke-width:0.8;" x="95.617188" xlink:href="#m29c07dd83c" y="329.928541"/>
      </g>
     </g>
     <g id="text_1">
      <!-- −0.015 -->
      <defs>
       <path d="M 10.59375 35.5 
L 73.1875 35.5 
L 73.1875 27.203125 
L 10.59375 27.203125 
z
" id="DejaVuSans-2212"/>
       <path d="M 31.78125 66.40625 
Q 24.171875 66.40625 20.328125 58.90625 
Q 16.5 51.421875 16.5 36.375 
Q 16.5 21.390625 20.328125 13.890625 
Q 24.171875 6.390625 31.78125 6.390625 
Q 39.453125 6.390625 43.28125 13.890625 
Q 47.125 21.390625 47.125 36.375 
Q 47.125 51.421875 43.28125 58.90625 
Q 39.453125 66.40625 31.78125 66.40625 
z
M 31.78125 74.21875 
Q 44.046875 74.21875 50.515625 64.515625 
Q 56.984375 54.828125 56.984375 36.375 
Q 56.984375 17.96875 50.515625 8.265625 
Q 44.046875 -1.421875 31.78125 -1.421875 
Q 19.53125 -1.421875 13.0625 8.265625 
Q 6.59375 17.96875 6.59375 36.375 
Q 6.59375 54.828125 13.0625 64.515625 
Q 19.53125 74.21875 31.78125 74.21875 
z
" id="DejaVuSans-30"/>
       <path d="M 10.6875 12.40625 
L 21 12.40625 
L 21 0 
L 10.6875 0 
z
" id="DejaVuSans-2e"/>
       <path d="M 12.40625 8.296875 
L 28.515625 8.296875 
L 28.515625 63.921875 
L 10.984375 60.40625 
L 10.984375 69.390625 
L 28.421875 72.90625 
L 38.28125 72.90625 
L 38.28125 8.296875 
L 54.390625 8.296875 
L 54.390625 0 
L 12.40625 0 
z
" id="DejaVuSans-31"/>
       <path d="M 10.796875 72.90625 
L 49.515625 72.90625 
L 49.515625 64.59375 
L 19.828125 64.59375 
L 19.828125 46.734375 
Q 21.96875 47.46875 24.109375 47.828125 
Q 26.265625 48.1875 28.421875 48.1875 
Q 40.625 48.1875 47.75 41.5 
Q 54.890625 34.8125 54.890625 23.390625 
Q 54.890625 11.625 47.5625 5.09375 
Q 40.234375 -1.421875 26.90625 -1.421875 
Q 22.3125 -1.421875 17.546875 -0.640625 
Q 12.796875 0.140625 7.71875 1.703125 
L 7.71875 11.625 
Q 12.109375 9.234375 16.796875 8.0625 
Q 21.484375 6.890625 26.703125 6.890625 
Q 35.15625 6.890625 40.078125 11.328125 
Q 45.015625 15.765625 45.015625 23.390625 
Q 45.015625 31 40.078125 35.4375 
Q 35.15625 39.890625 26.703125 39.890625 
Q 22.75 39.890625 18.8125 39.015625 
Q 14.890625 38.140625 10.796875 36.28125 
z
" id="DejaVuSans-35"/>
      </defs>
      <g transform="translate(7.2 338.286822)scale(0.22 -0.22)">
       <use xlink:href="#DejaVuSans-2212"/>
       <use x="83.789062" xlink:href="#DejaVuSans-30"/>
       <use x="147.412109" xlink:href="#DejaVuSans-2e"/>
       <use x="179.199219" xlink:href="#DejaVuSans-30"/>
       <use x="242.822266" xlink:href="#DejaVuSans-31"/>
       <use x="306.445312" xlink:href="#DejaVuSans-35"/>
      </g>
     </g>
    </g>
    <g id="ytick_2">
     <g id="line2d_2">
      <g>
       <use style="stroke:#000000;stroke-width:0.8;" x="95.617188" xlink:href="#m29c07dd83c" y="258.652903"/>
      </g>
     </g>
     <g id="text_2">
      <!-- −0.010 -->
      <g transform="translate(7.2 267.011184)scale(0.22 -0.22)">
       <use xlink:href="#DejaVuSans-2212"/>
       <use x="83.789062" xlink:href="#DejaVuSans-30"/>
       <use x="147.412109" xlink:href="#DejaVuSans-2e"/>
       <use x="179.199219" xlink:href="#DejaVuSans-30"/>
       <use x="242.822266" xlink:href="#DejaVuSans-31"/>
       <use x="306.445312" xlink:href="#DejaVuSans-30"/>
      </g>
     </g>
    </g>
    <g id="ytick_3">
     <g id="line2d_3">
      <g>
       <use style="stroke:#000000;stroke-width:0.8;" x="95.617188" xlink:href="#m29c07dd83c" y="187.377264"/>
      </g>
     </g>
     <g id="text_3">
      <!-- −0.005 -->
      <g transform="translate(7.2 195.735545)scale(0.22 -0.22)">
       <use xlink:href="#DejaVuSans-2212"/>
       <use x="83.789062" xlink:href="#DejaVuSans-30"/>
       <use x="147.412109" xlink:href="#DejaVuSans-2e"/>
       <use x="179.199219" xlink:href="#DejaVuSans-30"/>
       <use x="242.822266" xlink:href="#DejaVuSans-30"/>
       <use x="306.445312" xlink:href="#DejaVuSans-35"/>
      </g>
     </g>
    </g>
    <g id="ytick_4">
     <g id="line2d_4">
      <g>
       <use style="stroke:#000000;stroke-width:0.8;" x="95.617188" xlink:href="#m29c07dd83c" y="116.101625"/>
      </g>
     </g>
     <g id="text_4">
      <!-- 0.000 -->
      <g transform="translate(25.635312 124.459906)scale(0.22 -0.22)">
       <use xlink:href="#DejaVuSans-30"/>
       <use x="63.623047" xlink:href="#DejaVuSans-2e"/>
       <use x="95.410156" xlink:href="#DejaVuSans-30"/>
       <use x="159.033203" xlink:href="#DejaVuSans-30"/>
       <use x="222.65625" xlink:href="#DejaVuSans-30"/>
      </g>
     </g>
    </g>
    <g id="ytick_5">
     <g id="line2d_5">
      <g>
       <use style="stroke:#000000;stroke-width:0.8;" x="95.617188" xlink:href="#m29c07dd83c" y="44.825986"/>
      </g>
     </g>
     <g id="text_5">
      <!-- 0.005 -->
      <g transform="translate(25.635312 53.184268)scale(0.22 -0.22)">
       <use xlink:href="#DejaVuSans-30"/>
       <use x="63.623047" xlink:href="#DejaVuSans-2e"/>
       <use x="95.410156" xlink:href="#DejaVuSans-30"/>
       <use x="159.033203" xlink:href="#DejaVuSans-30"/>
       <use x="222.65625" xlink:href="#DejaVuSans-35"/>
      </g>
     </g>
    </g>
   </g>
   <g id="patch_3">
    <path clip-path="url(#pdd2a00890d)" d="M 110.110694 116.101625 
L 124.6042 116.101625 
L 124.6042 86.440844 
L 110.110694 86.440844 
z
" style="fill:#d92523;"/>
   </g>
   <g id="patch_4">
    <path clip-path="url(#pdd2a00890d)" d="M 124.6042 116.101625 
L 139.097707 116.101625 
L 139.097707 76.565544 
L 124.6042 76.565544 
z
" style="fill:#d92523;"/>
   </g>
   <g id="patch_5">
    <path clip-path="url(#pdd2a00890d)" d="M 139.097707 116.101625 
L 153.591213 116.101625 
L 153.591213 25.82 
L 139.097707 25.82 
z
" style="fill:#d92523;"/>
   </g>
   <g id="patch_6">
    <path clip-path="url(#pdd2a00890d)" d="M 153.591213 116.101625 
L 168.08472 116.101625 
L 168.08472 69.113895 
L 153.591213 69.113895 
z
" style="fill:#d92523;"/>
   </g>
   <g id="patch_7">
    <path clip-path="url(#pdd2a00890d)" d="M 168.08472 116.101625 
L 182.578226 116.101625 
L 182.578226 99.243536 
L 168.08472 99.243536 
z
" style="fill:#d92523;"/>
   </g>
   <g id="patch_8">
    <path clip-path="url(#pdd2a00890d)" d="M 182.578226 116.101625 
L 197.071733 116.101625 
L 197.071733 110.824785 
L 182.578226 110.824785 
z
" style="fill:#d92523;"/>
   </g>
   <g id="patch_9">
    <path clip-path="url(#pdd2a00890d)" d="M 197.071733 116.101625 
L 211.565239 116.101625 
L 211.565239 93.956353 
L 197.071733 93.956353 
z
" style="fill:#d92523;"/>
   </g>
   <g id="patch_10">
    <path clip-path="url(#pdd2a00890d)" d="M 211.565239 116.101625 
L 226.058746 116.101625 
L 226.058746 108.596922 
L 211.565239 108.596922 
z
" style="fill:#d92523;"/>
   </g>
   <g id="patch_11">
    <path clip-path="url(#pdd2a00890d)" d="M 226.058746 116.101625 
L 240.552252 116.101625 
L 240.552252 94.354759 
L 226.058746 94.354759 
z
" style="fill:#d92523;"/>
   </g>
   <g id="patch_12">
    <path clip-path="url(#pdd2a00890d)" d="M 240.552252 116.101625 
L 255.045759 116.101625 
L 255.045759 112.124748 
L 240.552252 112.124748 
z
" style="fill:#d92523;"/>
   </g>
   <g id="patch_13">
    <path clip-path="url(#pdd2a00890d)" d="M 255.045759 116.101625 
L 269.539265 116.101625 
L 269.539265 107.08683 
L 255.045759 107.08683 
z
" style="fill:#d92523;"/>
   </g>
   <g id="patch_14">
    <path clip-path="url(#pdd2a00890d)" d="M 269.539265 116.101625 
L 284.032772 116.101625 
L 284.032772 102.429681 
L 269.539265 102.429681 
z
" style="fill:#d92523;"/>
   </g>
   <g id="patch_15">
    <path clip-path="url(#pdd2a00890d)" d="M 284.032772 116.101625 
L 298.526278 116.101625 
L 298.526278 93.150634 
L 284.032772 93.150634 
z
" style="fill:#d92523;"/>
   </g>
   <g id="patch_16">
    <path clip-path="url(#pdd2a00890d)" d="M 298.526278 116.101625 
L 313.019785 116.101625 
L 313.019785 112.127992 
L 298.526278 112.127992 
z
" style="fill:#d92523;"/>
   </g>
   <g id="patch_17">
    <path clip-path="url(#pdd2a00890d)" d="M 313.019785 116.101625 
L 327.513291 116.101625 
L 327.513291 90.53406 
L 313.019785 90.53406 
z
" style="fill:#d92523;"/>
   </g>
   <g id="patch_18">
    <path clip-path="url(#pdd2a00890d)" d="M 327.513291 116.101625 
L 342.006798 116.101625 
L 342.006798 97.906137 
L 327.513291 97.906137 
z
" style="fill:#d92523;"/>
   </g>
   <g id="patch_19">
    <path clip-path="url(#pdd2a00890d)" d="M 342.006798 116.101625 
L 356.500304 116.101625 
L 356.500304 75.537861 
L 342.006798 75.537861 
z
" style="fill:#d92523;"/>
   </g>
   <g id="patch_20">
    <path clip-path="url(#pdd2a00890d)" d="M 356.500304 116.101625 
L 370.993811 116.101625 
L 370.993811 80.46161 
L 356.500304 80.46161 
z
" style="fill:#d92523;"/>
   </g>
   <g id="patch_21">
    <path clip-path="url(#pdd2a00890d)" d="M 370.993811 116.101625 
L 385.487317 116.101625 
L 385.487317 109.919778 
L 370.993811 109.919778 
z
" style="fill:#d92523;"/>
   </g>
   <g id="patch_22">
    <path clip-path="url(#pdd2a00890d)" d="M 385.487317 116.101625 
L 399.980824 116.101625 
L 399.980824 66.525615 
L 385.487317 66.525615 
z
" style="fill:#d92523;"/>
   </g>
   <g id="patch_23">
    <path clip-path="url(#pdd2a00890d)" d="M 110.110694 116.101625 
L 124.6042 116.101625 
L 124.6042 149.136145 
L 110.110694 149.136145 
z
" style="fill:#2e7ebc;"/>
   </g>
   <g id="patch_24">
    <path clip-path="url(#pdd2a00890d)" d="M 124.6042 116.101625 
L 139.097707 116.101625 
L 139.097707 178.608674 
L 124.6042 178.608674 
z
" style="fill:#2e7ebc;"/>
   </g>
   <g id="patch_25">
    <path clip-path="url(#pdd2a00890d)" d="M 139.097707 116.101625 
L 153.591213 116.101625 
L 153.591213 328.22 
L 139.097707 328.22 
z
" style="fill:#2e7ebc;"/>
   </g>
   <g id="patch_26">
    <path clip-path="url(#pdd2a00890d)" d="M 153.591213 116.101625 
L 168.08472 116.101625 
L 168.08472 238.837676 
L 153.591213 238.837676 
z
" style="fill:#2e7ebc;"/>
   </g>
   <g id="patch_27">
    <path clip-path="url(#pdd2a00890d)" d="M 168.08472 116.101625 
L 182.578226 116.101625 
L 182.578226 171.817531 
L 168.08472 171.817531 
z
" style="fill:#2e7ebc;"/>
   </g>
   <g id="patch_28">
    <path clip-path="url(#pdd2a00890d)" d="M 182.578226 116.101625 
L 197.071733 116.101625 
L 197.071733 118.001072 
L 182.578226 118.001072 
z
" style="fill:#2e7ebc;"/>
   </g>
   <g id="patch_29">
    <path clip-path="url(#pdd2a00890d)" d="M 197.071733 116.101625 
L 211.565239 116.101625 
L 211.565239 129.827972 
L 197.071733 129.827972 
z
" style="fill:#2e7ebc;"/>
   </g>
   <g id="patch_30">
    <path clip-path="url(#pdd2a00890d)" d="M 211.565239 116.101625 
L 226.058746 116.101625 
L 226.058746 136.51645 
L 211.565239 136.51645 
z
" style="fill:#2e7ebc;"/>
   </g>
   <g id="patch_31">
    <path clip-path="url(#pdd2a00890d)" d="M 226.058746 116.101625 
L 240.552252 116.101625 
L 240.552252 135.633037 
L 226.058746 135.633037 
z
" style="fill:#2e7ebc;"/>
   </g>
   <g id="patch_32">
    <path clip-path="url(#pdd2a00890d)" d="M 240.552252 116.101625 
L 255.045759 116.101625 
L 255.045759 114.531375 
L 240.552252 114.531375 
z
" style="fill:#2e7ebc;"/>
   </g>
   <g id="patch_33">
    <path clip-path="url(#pdd2a00890d)" d="M 255.045759 116.101625 
L 269.539265 116.101625 
L 269.539265 129.343631 
L 255.045759 129.343631 
z
" style="fill:#2e7ebc;"/>
   </g>
   <g id="patch_34">
    <path clip-path="url(#pdd2a00890d)" d="M 269.539265 116.101625 
L 284.032772 116.101625 
L 284.032772 198.121844 
L 269.539265 198.121844 
z
" style="fill:#2e7ebc;"/>
   </g>
   <g id="patch_35">
    <path clip-path="url(#pdd2a00890d)" d="M 284.032772 116.101625 
L 298.526278 116.101625 
L 298.526278 263.211746 
L 284.032772 263.211746 
z
" style="fill:#2e7ebc;"/>
   </g>
   <g id="patch_36">
    <path clip-path="url(#pdd2a00890d)" d="M 298.526278 116.101625 
L 313.019785 116.101625 
L 313.019785 192.75027 
L 298.526278 192.75027 
z
" style="fill:#2e7ebc;"/>
   </g>
   <g id="patch_37">
    <path clip-path="url(#pdd2a00890d)" d="M 313.019785 116.101625 
L 327.513291 116.101625 
L 327.513291 174.758265 
L 313.019785 174.758265 
z
" style="fill:#2e7ebc;"/>
   </g>
   <g id="patch_38">
    <path clip-path="url(#pdd2a00890d)" d="M 327.513291 116.101625 
L 342.006798 116.101625 
L 342.006798 122.595165 
L 327.513291 122.595165 
z
" style="fill:#2e7ebc;"/>
   </g>
   <g id="patch_39">
    <path clip-path="url(#pdd2a00890d)" d="M 342.006798 116.101625 
L 356.500304 116.101625 
L 356.500304 149.287232 
L 342.006798 149.287232 
z
" style="fill:#2e7ebc;"/>
   </g>
   <g id="patch_40">
    <path clip-path="url(#pdd2a00890d)" d="M 356.500304 116.101625 
L 370.993811 116.101625 
L 370.993811 228.433734 
L 356.500304 228.433734 
z
" style="fill:#2e7ebc;"/>
   </g>
   <g id="patch_41">
    <path clip-path="url(#pdd2a00890d)" d="M 370.993811 116.101625 
L 385.487317 116.101625 
L 385.487317 134.674506 
L 370.993811 134.674506 
z
" style="fill:#2e7ebc;"/>
   </g>
   <g id="patch_42">
    <path clip-path="url(#pdd2a00890d)" d="M 385.487317 116.101625 
L 399.980824 116.101625 
L 399.980824 312.708103 
L 385.487317 312.708103 
z
" style="fill:#2e7ebc;"/>
   </g>
   <g id="patch_43">
    <path d="M 95.617188 343.34 
L 95.617188 10.7 
" style="fill:none;stroke:#000000;stroke-linecap:square;stroke-linejoin:miter;stroke-width:0.8;"/>
   </g>
   <g id="patch_44">
    <path d="M 414.47433 343.34 
L 414.47433 10.7 
" style="fill:none;stroke:#000000;stroke-linecap:square;stroke-linejoin:miter;stroke-width:0.8;"/>
   </g>
   <g id="patch_45">
    <path d="M 95.617188 343.34 
L 414.47433 343.34 
" style="fill:none;stroke:#000000;stroke-linecap:square;stroke-linejoin:miter;stroke-width:0.8;"/>
   </g>
   <g id="patch_46">
    <path d="M 95.617188 10.7 
L 414.47433 10.7 
" style="fill:none;stroke:#000000;stroke-linecap:square;stroke-linejoin:miter;stroke-width:0.8;"/>
   </g>
   <g id="patch_47">
    <path clip-path="url(#pdd2a00890d)" d="M 110.110694 116.101625 
L 124.6042 116.101625 
L 124.6042 116.101625 
L 110.110694 116.101625 
z
" style="fill:none;stroke:#000000;stroke-linejoin:miter;"/>
   </g>
   <g id="patch_48">
    <path clip-path="url(#pdd2a00890d)" d="M 124.6042 116.101625 
L 139.097707 116.101625 
L 139.097707 116.101625 
L 124.6042 116.101625 
z
" style="fill:none;stroke:#000000;stroke-linejoin:miter;"/>
   </g>
   <g id="patch_49">
    <path clip-path="url(#pdd2a00890d)" d="M 139.097707 116.101625 
L 153.591213 116.101625 
L 153.591213 116.101625 
L 139.097707 116.101625 
z
" style="fill:none;stroke:#000000;stroke-linejoin:miter;"/>
   </g>
   <g id="patch_50">
    <path clip-path="url(#pdd2a00890d)" d="M 153.591213 116.101625 
L 168.08472 116.101625 
L 168.08472 116.101625 
L 153.591213 116.101625 
z
" style="fill:none;stroke:#000000;stroke-linejoin:miter;"/>
   </g>
   <g id="patch_51">
    <path clip-path="url(#pdd2a00890d)" d="M 168.08472 116.101625 
L 182.578226 116.101625 
L 182.578226 116.101625 
L 168.08472 116.101625 
z
" style="fill:none;stroke:#000000;stroke-linejoin:miter;"/>
   </g>
   <g id="patch_52">
    <path clip-path="url(#pdd2a00890d)" d="M 182.578226 116.101625 
L 197.071733 116.101625 
L 197.071733 116.101625 
L 182.578226 116.101625 
z
" style="fill:none;stroke:#000000;stroke-linejoin:miter;"/>
   </g>
   <g id="patch_53">
    <path clip-path="url(#pdd2a00890d)" d="M 197.071733 116.101625 
L 211.565239 116.101625 
L 211.565239 116.101625 
L 197.071733 116.101625 
z
" style="fill:none;stroke:#000000;stroke-linejoin:miter;"/>
   </g>
   <g id="patch_54">
    <path clip-path="url(#pdd2a00890d)" d="M 211.565239 116.101625 
L 226.058746 116.101625 
L 226.058746 116.101625 
L 211.565239 116.101625 
z
" style="fill:none;stroke:#000000;stroke-linejoin:miter;"/>
   </g>
   <g id="patch_55">
    <path clip-path="url(#pdd2a00890d)" d="M 226.058746 116.101625 
L 240.552252 116.101625 
L 240.552252 116.101625 
L 226.058746 116.101625 
z
" style="fill:none;stroke:#000000;stroke-linejoin:miter;"/>
   </g>
   <g id="patch_56">
    <path clip-path="url(#pdd2a00890d)" d="M 240.552252 116.101625 
L 255.045759 116.101625 
L 255.045759 116.101625 
L 240.552252 116.101625 
z
" style="fill:none;stroke:#000000;stroke-linejoin:miter;"/>
   </g>
   <g id="patch_57">
    <path clip-path="url(#pdd2a00890d)" d="M 255.045759 116.101625 
L 269.539265 116.101625 
L 269.539265 116.101625 
L 255.045759 116.101625 
z
" style="fill:none;stroke:#000000;stroke-linejoin:miter;"/>
   </g>
   <g id="patch_58">
    <path clip-path="url(#pdd2a00890d)" d="M 269.539265 116.101625 
L 284.032772 116.101625 
L 284.032772 116.101625 
L 269.539265 116.101625 
z
" style="fill:none;stroke:#000000;stroke-linejoin:miter;"/>
   </g>
   <g id="patch_59">
    <path clip-path="url(#pdd2a00890d)" d="M 284.032772 116.101625 
L 298.526278 116.101625 
L 298.526278 116.101625 
L 284.032772 116.101625 
z
" style="fill:none;stroke:#000000;stroke-linejoin:miter;"/>
   </g>
   <g id="patch_60">
    <path clip-path="url(#pdd2a00890d)" d="M 298.526278 116.101625 
L 313.019785 116.101625 
L 313.019785 116.101625 
L 298.526278 116.101625 
z
" style="fill:none;stroke:#000000;stroke-linejoin:miter;"/>
   </g>
   <g id="patch_61">
    <path clip-path="url(#pdd2a00890d)" d="M 313.019785 116.101625 
L 327.513291 116.101625 
L 327.513291 116.101625 
L 313.019785 116.101625 
z
" style="fill:none;stroke:#000000;stroke-linejoin:miter;"/>
   </g>
   <g id="patch_62">
    <path clip-path="url(#pdd2a00890d)" d="M 327.513291 116.101625 
L 342.006798 116.101625 
L 342.006798 116.101625 
L 327.513291 116.101625 
z
" style="fill:none;stroke:#000000;stroke-linejoin:miter;"/>
   </g>
   <g id="patch_63">
    <path clip-path="url(#pdd2a00890d)" d="M 342.006798 116.101625 
L 356.500304 116.101625 
L 356.500304 116.101625 
L 342.006798 116.101625 
z
" style="fill:none;stroke:#000000;stroke-linejoin:miter;"/>
   </g>
   <g id="patch_64">
    <path clip-path="url(#pdd2a00890d)" d="M 356.500304 116.101625 
L 370.993811 116.101625 
L 370.993811 116.101625 
L 356.500304 116.101625 
z
" style="fill:none;stroke:#000000;stroke-linejoin:miter;"/>
   </g>
   <g id="patch_65">
    <path clip-path="url(#pdd2a00890d)" d="M 370.993811 116.101625 
L 385.487317 116.101625 
L 385.487317 116.101625 
L 370.993811 116.101625 
z
" style="fill:none;stroke:#000000;stroke-linejoin:miter;"/>
   </g>
   <g id="patch_66">
    <path clip-path="url(#pdd2a00890d)" d="M 385.487317 116.101625 
L 399.980824 116.101625 
L 399.980824 116.101625 
L 385.487317 116.101625 
z
" style="fill:none;stroke:#000000;stroke-linejoin:miter;"/>
   </g>
   <g id="patch_67">
    <path clip-path="url(#pdd2a00890d)" d="M 110.110694 116.101625 
L 124.6042 116.101625 
L 124.6042 116.101625 
L 110.110694 116.101625 
z
" style="fill:none;stroke:#000000;stroke-linejoin:miter;"/>
   </g>
   <g id="patch_68">
    <path clip-path="url(#pdd2a00890d)" d="M 124.6042 116.101625 
L 139.097707 116.101625 
L 139.097707 116.101625 
L 124.6042 116.101625 
z
" style="fill:none;stroke:#000000;stroke-linejoin:miter;"/>
   </g>
   <g id="patch_69">
    <path clip-path="url(#pdd2a00890d)" d="M 139.097707 116.101625 
L 153.591213 116.101625 
L 153.591213 116.101625 
L 139.097707 116.101625 
z
" style="fill:none;stroke:#000000;stroke-linejoin:miter;"/>
   </g>
   <g id="patch_70">
    <path clip-path="url(#pdd2a00890d)" d="M 153.591213 116.101625 
L 168.08472 116.101625 
L 168.08472 116.101625 
L 153.591213 116.101625 
z
" style="fill:none;stroke:#000000;stroke-linejoin:miter;"/>
   </g>
   <g id="patch_71">
    <path clip-path="url(#pdd2a00890d)" d="M 168.08472 116.101625 
L 182.578226 116.101625 
L 182.578226 116.101625 
L 168.08472 116.101625 
z
" style="fill:none;stroke:#000000;stroke-linejoin:miter;"/>
   </g>
   <g id="patch_72">
    <path clip-path="url(#pdd2a00890d)" d="M 182.578226 116.101625 
L 197.071733 116.101625 
L 197.071733 116.101625 
L 182.578226 116.101625 
z
" style="fill:none;stroke:#000000;stroke-linejoin:miter;"/>
   </g>
   <g id="patch_73">
    <path clip-path="url(#pdd2a00890d)" d="M 197.071733 116.101625 
L 211.565239 116.101625 
L 211.565239 116.101625 
L 197.071733 116.101625 
z
" style="fill:none;stroke:#000000;stroke-linejoin:miter;"/>
   </g>
   <g id="patch_74">
    <path clip-path="url(#pdd2a00890d)" d="M 211.565239 116.101625 
L 226.058746 116.101625 
L 226.058746 116.101625 
L 211.565239 116.101625 
z
" style="fill:none;stroke:#000000;stroke-linejoin:miter;"/>
   </g>
   <g id="patch_75">
    <path clip-path="url(#pdd2a00890d)" d="M 226.058746 116.101625 
L 240.552252 116.101625 
L 240.552252 116.101625 
L 226.058746 116.101625 
z
" style="fill:none;stroke:#000000;stroke-linejoin:miter;"/>
   </g>
   <g id="patch_76">
    <path clip-path="url(#pdd2a00890d)" d="M 240.552252 116.101625 
L 255.045759 116.101625 
L 255.045759 116.101625 
L 240.552252 116.101625 
z
" style="fill:none;stroke:#000000;stroke-linejoin:miter;"/>
   </g>
   <g id="patch_77">
    <path clip-path="url(#pdd2a00890d)" d="M 255.045759 116.101625 
L 269.539265 116.101625 
L 269.539265 116.101625 
L 255.045759 116.101625 
z
" style="fill:none;stroke:#000000;stroke-linejoin:miter;"/>
   </g>
   <g id="patch_78">
    <path clip-path="url(#pdd2a00890d)" d="M 269.539265 116.101625 
L 284.032772 116.101625 
L 284.032772 116.101625 
L 269.539265 116.101625 
z
" style="fill:none;stroke:#000000;stroke-linejoin:miter;"/>
   </g>
   <g id="patch_79">
    <path clip-path="url(#pdd2a00890d)" d="M 284.032772 116.101625 
L 298.526278 116.101625 
L 298.526278 116.101625 
L 284.032772 116.101625 
z
" style="fill:none;stroke:#000000;stroke-linejoin:miter;"/>
   </g>
   <g id="patch_80">
    <path clip-path="url(#pdd2a00890d)" d="M 298.526278 116.101625 
L 313.019785 116.101625 
L 313.019785 116.101625 
L 298.526278 116.101625 
z
" style="fill:none;stroke:#000000;stroke-linejoin:miter;"/>
   </g>
   <g id="patch_81">
    <path clip-path="url(#pdd2a00890d)" d="M 313.019785 116.101625 
L 327.513291 116.101625 
L 327.513291 116.101625 
L 313.019785 116.101625 
z
" style="fill:none;stroke:#000000;stroke-linejoin:miter;"/>
   </g>
   <g id="patch_82">
    <path clip-path="url(#pdd2a00890d)" d="M 327.513291 116.101625 
L 342.006798 116.101625 
L 342.006798 116.101625 
L 327.513291 116.101625 
z
" style="fill:none;stroke:#000000;stroke-linejoin:miter;"/>
   </g>
   <g id="patch_83">
    <path clip-path="url(#pdd2a00890d)" d="M 342.006798 116.101625 
L 356.500304 116.101625 
L 356.500304 116.101625 
L 342.006798 116.101625 
z
" style="fill:none;stroke:#000000;stroke-linejoin:miter;"/>
   </g>
   <g id="patch_84">
    <path clip-path="url(#pdd2a00890d)" d="M 356.500304 116.101625 
L 370.993811 116.101625 
L 370.993811 116.101625 
L 356.500304 116.101625 
z
" style="fill:none;stroke:#000000;stroke-linejoin:miter;"/>
   </g>
   <g id="patch_85">
    <path clip-path="url(#pdd2a00890d)" d="M 370.993811 116.101625 
L 385.487317 116.101625 
L 385.487317 116.101625 
L 370.993811 116.101625 
z
" style="fill:none;stroke:#000000;stroke-linejoin:miter;"/>
   </g>
   <g id="patch_86">
    <path clip-path="url(#pdd2a00890d)" d="M 385.487317 116.101625 
L 399.980824 116.101625 
L 399.980824 116.101625 
L 385.487317 116.101625 
z
" style="fill:none;stroke:#000000;stroke-linejoin:miter;"/>
   </g>
  </g>
 </g>
 <defs>
  <clipPath id="pdd2a00890d">
   <rect height="332.64" width="318.857143" x="95.617188" y="10.7"/>
  </clipPath>
 </defs>
</svg>
