<?xml version="1.0" encoding="utf-8" standalone="no"?>
<!DOCTYPE svg PUBLIC "-//W3C//DTD SVG 1.1//EN"
  "http://www.w3.org/Graphics/SVG/1.1/DTD/svg11.dtd">
<!-- Created with matplotlib (http://matplotlib.org/) -->
<svg height="354pt" version="1.1" viewBox="0 0 411 354" width="411pt" xmlns="http://www.w3.org/2000/svg" xmlns:xlink="http://www.w3.org/1999/xlink">
 <defs>
  <style type="text/css">
*{stroke-linecap:butt;stroke-linejoin:round;}
  </style>
 </defs>
 <g id="figure_1">
  <g id="patch_1">
   <path d="M -0 354.04 
L 411.17683 354.04 
L 411.17683 0 
L -0 0 
z
" style="fill:#ffffff;"/>
  </g>
  <g id="axes_1">
   <g id="patch_2">
    <path d="M 81.619687 343.34 
L 400.47683 343.34 
L 400.47683 10.7 
L 81.619687 10.7 
z
" style="fill:#ffffff;"/>
   </g>
   <g id="matplotlib.axis_1"/>
   <g id="matplotlib.axis_2">
    <g id="ytick_1">
     <g id="line2d_1">
      <defs>
       <path d="M 0 0 
L -3.5 0 
" id="m70444adc1a" style="stroke:#000000;stroke-width:0.8;"/>
      </defs>
      <g>
       <use style="stroke:#000000;stroke-width:0.8;" x="81.619687" xlink:href="#m70444adc1a" y="309.848324"/>
      </g>
     </g>
     <g id="text_1">
      <!-- −0.04 -->
      <defs>
       <path d="M 10.59375 35.5 
L 73.1875 35.5 
L 73.1875 27.203125 
L 10.59375 27.203125 
z
" id="DejaVuSans-2212"/>
       <path d="M 31.78125 66.40625 
Q 24.171875 66.40625 20.328125 58.90625 
Q 16.5 51.421875 16.5 36.375 
Q 16.5 21.390625 20.328125 13.890625 
Q 24.171875 6.390625 31.78125 6.390625 
Q 39.453125 6.390625 43.28125 13.890625 
Q 47.125 21.390625 47.125 36.375 
Q 47.125 51.421875 43.28125 58.90625 
Q 39.453125 66.40625 31.78125 66.40625 
z
M 31.78125 74.21875 
Q 44.046875 74.21875 50.515625 64.515625 
Q 56.984375 54.828125 56.984375 36.375 
Q 56.984375 17.96875 50.515625 8.265625 
Q 44.046875 -1.421875 31.78125 -1.421875 
Q 19.53125 -1.421875 13.0625 8.265625 
Q 6.59375 17.96875 6.59375 36.375 
Q 6.59375 54.828125 13.0625 64.515625 
Q 19.53125 74.21875 31.78125 74.21875 
z
" id="DejaVuSans-30"/>
       <path d="M 10.6875 12.40625 
L 21 12.40625 
L 21 0 
L 10.6875 0 
z
" id="DejaVuSans-2e"/>
       <path d="M 37.796875 64.3125 
L 12.890625 25.390625 
L 37.796875 25.390625 
z
M 35.203125 72.90625 
L 47.609375 72.90625 
L 47.609375 25.390625 
L 58.015625 25.390625 
L 58.015625 17.1875 
L 47.609375 17.1875 
L 47.609375 0 
L 37.796875 0 
L 37.796875 17.1875 
L 4.890625 17.1875 
L 4.890625 26.703125 
z
" id="DejaVuSans-34"/>
      </defs>
      <g transform="translate(7.2 318.206605)scale(0.22 -0.22)">
       <use xlink:href="#DejaVuSans-2212"/>
       <use x="83.789062" xlink:href="#DejaVuSans-30"/>
       <use x="147.412109" xlink:href="#DejaVuSans-2e"/>
       <use x="179.199219" xlink:href="#DejaVuSans-30"/>
       <use x="242.822266" xlink:href="#DejaVuSans-34"/>
      </g>
     </g>
    </g>
    <g id="ytick_2">
     <g id="line2d_2">
      <g>
       <use style="stroke:#000000;stroke-width:0.8;" x="81.619687" xlink:href="#m70444adc1a" y="254.86142"/>
      </g>
     </g>
     <g id="text_2">
      <!-- −0.03 -->
      <defs>
       <path d="M 40.578125 39.3125 
Q 47.65625 37.796875 51.625 33 
Q 55.609375 28.21875 55.609375 21.1875 
Q 55.609375 10.40625 48.1875 4.484375 
Q 40.765625 -1.421875 27.09375 -1.421875 
Q 22.515625 -1.421875 17.65625 -0.515625 
Q 12.796875 0.390625 7.625 2.203125 
L 7.625 11.71875 
Q 11.71875 9.328125 16.59375 8.109375 
Q 21.484375 6.890625 26.8125 6.890625 
Q 36.078125 6.890625 40.9375 10.546875 
Q 45.796875 14.203125 45.796875 21.1875 
Q 45.796875 27.640625 41.28125 31.265625 
Q 36.765625 34.90625 28.71875 34.90625 
L 20.21875 34.90625 
L 20.21875 43.015625 
L 29.109375 43.015625 
Q 36.375 43.015625 40.234375 45.921875 
Q 44.09375 48.828125 44.09375 54.296875 
Q 44.09375 59.90625 40.109375 62.90625 
Q 36.140625 65.921875 28.71875 65.921875 
Q 24.65625 65.921875 20.015625 65.03125 
Q 15.375 64.15625 9.8125 62.3125 
L 9.8125 71.09375 
Q 15.4375 72.65625 20.34375 73.4375 
Q 25.25 74.21875 29.59375 74.21875 
Q 40.828125 74.21875 47.359375 69.109375 
Q 53.90625 64.015625 53.90625 55.328125 
Q 53.90625 49.265625 50.4375 45.09375 
Q 46.96875 40.921875 40.578125 39.3125 
z
" id="DejaVuSans-33"/>
      </defs>
      <g transform="translate(7.2 263.219701)scale(0.22 -0.22)">
       <use xlink:href="#DejaVuSans-2212"/>
       <use x="83.789062" xlink:href="#DejaVuSans-30"/>
       <use x="147.412109" xlink:href="#DejaVuSans-2e"/>
       <use x="179.199219" xlink:href="#DejaVuSans-30"/>
       <use x="242.822266" xlink:href="#DejaVuSans-33"/>
      </g>
     </g>
    </g>
    <g id="ytick_3">
     <g id="line2d_3">
      <g>
       <use style="stroke:#000000;stroke-width:0.8;" x="81.619687" xlink:href="#m70444adc1a" y="199.874515"/>
      </g>
     </g>
     <g id="text_3">
      <!-- −0.02 -->
      <defs>
       <path d="M 19.1875 8.296875 
L 53.609375 8.296875 
L 53.609375 0 
L 7.328125 0 
L 7.328125 8.296875 
Q 12.9375 14.109375 22.625 23.890625 
Q 32.328125 33.6875 34.8125 36.53125 
Q 39.546875 41.84375 41.421875 45.53125 
Q 43.3125 49.21875 43.3125 52.78125 
Q 43.3125 58.59375 39.234375 62.25 
Q 35.15625 65.921875 28.609375 65.921875 
Q 23.96875 65.921875 18.8125 64.3125 
Q 13.671875 62.703125 7.8125 59.421875 
L 7.8125 69.390625 
Q 13.765625 71.78125 18.9375 73 
Q 24.125 74.21875 28.421875 74.21875 
Q 39.75 74.21875 46.484375 68.546875 
Q 53.21875 62.890625 53.21875 53.421875 
Q 53.21875 48.921875 51.53125 44.890625 
Q 49.859375 40.875 45.40625 35.40625 
Q 44.1875 33.984375 37.640625 27.21875 
Q 31.109375 20.453125 19.1875 8.296875 
z
" id="DejaVuSans-32"/>
      </defs>
      <g transform="translate(7.2 208.232796)scale(0.22 -0.22)">
       <use xlink:href="#DejaVuSans-2212"/>
       <use x="83.789062" xlink:href="#DejaVuSans-30"/>
       <use x="147.412109" xlink:href="#DejaVuSans-2e"/>
       <use x="179.199219" xlink:href="#DejaVuSans-30"/>
       <use x="242.822266" xlink:href="#DejaVuSans-32"/>
      </g>
     </g>
    </g>
    <g id="ytick_4">
     <g id="line2d_4">
      <g>
       <use style="stroke:#000000;stroke-width:0.8;" x="81.619687" xlink:href="#m70444adc1a" y="144.88761"/>
      </g>
     </g>
     <g id="text_4">
      <!-- −0.01 -->
      <defs>
       <path d="M 12.40625 8.296875 
L 28.515625 8.296875 
L 28.515625 63.921875 
L 10.984375 60.40625 
L 10.984375 69.390625 
L 28.421875 72.90625 
L 38.28125 72.90625 
L 38.28125 8.296875 
L 54.390625 8.296875 
L 54.390625 0 
L 12.40625 0 
z
" id="DejaVuSans-31"/>
      </defs>
      <g transform="translate(7.2 153.245891)scale(0.22 -0.22)">
       <use xlink:href="#DejaVuSans-2212"/>
       <use x="83.789062" xlink:href="#DejaVuSans-30"/>
       <use x="147.412109" xlink:href="#DejaVuSans-2e"/>
       <use x="179.199219" xlink:href="#DejaVuSans-30"/>
       <use x="242.822266" xlink:href="#DejaVuSans-31"/>
      </g>
     </g>
    </g>
    <g id="ytick_5">
     <g id="line2d_5">
      <g>
       <use style="stroke:#000000;stroke-width:0.8;" x="81.619687" xlink:href="#m70444adc1a" y="89.900705"/>
      </g>
     </g>
     <g id="text_5">
      <!-- 0.00 -->
      <g transform="translate(25.635312 98.258987)scale(0.22 -0.22)">
       <use xlink:href="#DejaVuSans-30"/>
       <use x="63.623047" xlink:href="#DejaVuSans-2e"/>
       <use x="95.410156" xlink:href="#DejaVuSans-30"/>
       <use x="159.033203" xlink:href="#DejaVuSans-30"/>
      </g>
     </g>
    </g>
    <g id="ytick_6">
     <g id="line2d_6">
      <g>
       <use style="stroke:#000000;stroke-width:0.8;" x="81.619687" xlink:href="#m70444adc1a" y="34.913801"/>
      </g>
     </g>
     <g id="text_6">
      <!-- 0.01 -->
      <g transform="translate(25.635312 43.272082)scale(0.22 -0.22)">
       <use xlink:href="#DejaVuSans-30"/>
       <use x="63.623047" xlink:href="#DejaVuSans-2e"/>
       <use x="95.410156" xlink:href="#DejaVuSans-30"/>
       <use x="159.033203" xlink:href="#DejaVuSans-31"/>
      </g>
     </g>
    </g>
   </g>
   <g id="patch_3">
    <path clip-path="url(#p9abd4519a2)" d="M 96.113194 89.900705 
L 110.6067 89.900705 
L 110.6067 122.618068 
L 96.113194 122.618068 
z
" style="fill:#d92523;"/>
   </g>
   <g id="patch_4">
    <path clip-path="url(#p9abd4519a2)" d="M 110.6067 89.900705 
L 125.100207 89.900705 
L 125.100207 60.425548 
L 110.6067 60.425548 
z
" style="fill:#d92523;"/>
   </g>
   <g id="patch_5">
    <path clip-path="url(#p9abd4519a2)" d="M 125.100207 89.900705 
L 139.593713 89.900705 
L 139.593713 79.064623 
L 125.100207 79.064623 
z
" style="fill:#d92523;"/>
   </g>
   <g id="patch_6">
    <path clip-path="url(#p9abd4519a2)" d="M 139.593713 89.900705 
L 154.08722 89.900705 
L 154.08722 95.783583 
L 139.593713 95.783583 
z
" style="fill:#d92523;"/>
   </g>
   <g id="patch_7">
    <path clip-path="url(#p9abd4519a2)" d="M 154.08722 89.900705 
L 168.580726 89.900705 
L 168.580726 57.757317 
L 154.08722 57.757317 
z
" style="fill:#d92523;"/>
   </g>
   <g id="patch_8">
    <path clip-path="url(#p9abd4519a2)" d="M 168.580726 89.900705 
L 183.074233 89.900705 
L 183.074233 104.78126 
L 168.580726 104.78126 
z
" style="fill:#d92523;"/>
   </g>
   <g id="patch_9">
    <path clip-path="url(#p9abd4519a2)" d="M 183.074233 89.900705 
L 197.567739 89.900705 
L 197.567739 95.122849 
L 183.074233 95.122849 
z
" style="fill:#d92523;"/>
   </g>
   <g id="patch_10">
    <path clip-path="url(#p9abd4519a2)" d="M 197.567739 89.900705 
L 212.061246 89.900705 
L 212.061246 85.124222 
L 197.567739 85.124222 
z
" style="fill:#d92523;"/>
   </g>
   <g id="patch_11">
    <path clip-path="url(#p9abd4519a2)" d="M 212.061246 89.900705 
L 226.554752 89.900705 
L 226.554752 91.197548 
L 212.061246 91.197548 
z
" style="fill:#d92523;"/>
   </g>
   <g id="patch_12">
    <path clip-path="url(#p9abd4519a2)" d="M 226.554752 89.900705 
L 241.048259 89.900705 
L 241.048259 86.754392 
L 226.554752 86.754392 
z
" style="fill:#d92523;"/>
   </g>
   <g id="patch_13">
    <path clip-path="url(#p9abd4519a2)" d="M 241.048259 89.900705 
L 255.541765 89.900705 
L 255.541765 81.795551 
L 241.048259 81.795551 
z
" style="fill:#d92523;"/>
   </g>
   <g id="patch_14">
    <path clip-path="url(#p9abd4519a2)" d="M 255.541765 89.900705 
L 270.035272 89.900705 
L 270.035272 96.55373 
L 255.541765 96.55373 
z
" style="fill:#d92523;"/>
   </g>
   <g id="patch_15">
    <path clip-path="url(#p9abd4519a2)" d="M 270.035272 89.900705 
L 284.528778 89.900705 
L 284.528778 106.472431 
L 270.035272 106.472431 
z
" style="fill:#d92523;"/>
   </g>
   <g id="patch_16">
    <path clip-path="url(#p9abd4519a2)" d="M 284.528778 89.900705 
L 299.022285 89.900705 
L 299.022285 96.372724 
L 284.528778 96.372724 
z
" style="fill:#d92523;"/>
   </g>
   <g id="patch_17">
    <path clip-path="url(#p9abd4519a2)" d="M 299.022285 89.900705 
L 313.515791 89.900705 
L 313.515791 102.08608 
L 299.022285 102.08608 
z
" style="fill:#d92523;"/>
   </g>
   <g id="patch_18">
    <path clip-path="url(#p9abd4519a2)" d="M 313.515791 89.900705 
L 328.009298 89.900705 
L 328.009298 73.255969 
L 313.515791 73.255969 
z
" style="fill:#d92523;"/>
   </g>
   <g id="patch_19">
    <path clip-path="url(#p9abd4519a2)" d="M 328.009298 89.900705 
L 342.502804 89.900705 
L 342.502804 83.774383 
L 328.009298 83.774383 
z
" style="fill:#d92523;"/>
   </g>
   <g id="patch_20">
    <path clip-path="url(#p9abd4519a2)" d="M 342.502804 89.900705 
L 356.996311 89.900705 
L 356.996311 25.82 
L 342.502804 25.82 
z
" style="fill:#d92523;"/>
   </g>
   <g id="patch_21">
    <path clip-path="url(#p9abd4519a2)" d="M 356.996311 89.900705 
L 371.489817 89.900705 
L 371.489817 89.747354 
L 356.996311 89.747354 
z
" style="fill:#d92523;"/>
   </g>
   <g id="patch_22">
    <path clip-path="url(#p9abd4519a2)" d="M 371.489817 89.900705 
L 385.983324 89.900705 
L 385.983324 101.68061 
L 371.489817 101.68061 
z
" style="fill:#d92523;"/>
   </g>
   <g id="patch_23">
    <path clip-path="url(#p9abd4519a2)" d="M 96.113194 89.900705 
L 110.6067 89.900705 
L 110.6067 270.565816 
L 96.113194 270.565816 
z
" style="fill:#2e7ebc;"/>
   </g>
   <g id="patch_24">
    <path clip-path="url(#p9abd4519a2)" d="M 110.6067 89.900705 
L 125.100207 89.900705 
L 125.100207 98.777396 
L 110.6067 98.777396 
z
" style="fill:#2e7ebc;"/>
   </g>
   <g id="patch_25">
    <path clip-path="url(#p9abd4519a2)" d="M 125.100207 89.900705 
L 139.593713 89.900705 
L 139.593713 241.855296 
L 125.100207 241.855296 
z
" style="fill:#2e7ebc;"/>
   </g>
   <g id="patch_26">
    <path clip-path="url(#p9abd4519a2)" d="M 139.593713 89.900705 
L 154.08722 89.900705 
L 154.08722 53.190033 
L 139.593713 53.190033 
z
" style="fill:#2e7ebc;"/>
   </g>
   <g id="patch_27">
    <path clip-path="url(#p9abd4519a2)" d="M 154.08722 89.900705 
L 168.580726 89.900705 
L 168.580726 89.413143 
L 154.08722 89.413143 
z
" style="fill:#2e7ebc;"/>
   </g>
   <g id="patch_28">
    <path clip-path="url(#p9abd4519a2)" d="M 168.580726 89.900705 
L 183.074233 89.900705 
L 183.074233 99.02808 
L 168.580726 99.02808 
z
" style="fill:#2e7ebc;"/>
   </g>
   <g id="patch_29">
    <path clip-path="url(#p9abd4519a2)" d="M 183.074233 89.900705 
L 197.567739 89.900705 
L 197.567739 97.02963 
L 183.074233 97.02963 
z
" style="fill:#2e7ebc;"/>
   </g>
   <g id="patch_30">
    <path clip-path="url(#p9abd4519a2)" d="M 197.567739 89.900705 
L 212.061246 89.900705 
L 212.061246 91.711216 
L 197.567739 91.711216 
z
" style="fill:#2e7ebc;"/>
   </g>
   <g id="patch_31">
    <path clip-path="url(#p9abd4519a2)" d="M 212.061246 89.900705 
L 226.554752 89.900705 
L 226.554752 122.969091 
L 212.061246 122.969091 
z
" style="fill:#2e7ebc;"/>
   </g>
   <g id="patch_32">
    <path clip-path="url(#p9abd4519a2)" d="M 226.554752 89.900705 
L 241.048259 89.900705 
L 241.048259 62.681973 
L 226.554752 62.681973 
z
" style="fill:#2e7ebc;"/>
   </g>
   <g id="patch_33">
    <path clip-path="url(#p9abd4519a2)" d="M 241.048259 89.900705 
L 255.541765 89.900705 
L 255.541765 113.359741 
L 241.048259 113.359741 
z
" style="fill:#2e7ebc;"/>
   </g>
   <g id="patch_34">
    <path clip-path="url(#p9abd4519a2)" d="M 255.541765 89.900705 
L 270.035272 89.900705 
L 270.035272 93.60631 
L 255.541765 93.60631 
z
" style="fill:#2e7ebc;"/>
   </g>
   <g id="patch_35">
    <path clip-path="url(#p9abd4519a2)" d="M 270.035272 89.900705 
L 284.528778 89.900705 
L 284.528778 87.493672 
L 270.035272 87.493672 
z
" style="fill:#2e7ebc;"/>
   </g>
   <g id="patch_36">
    <path clip-path="url(#p9abd4519a2)" d="M 284.528778 89.900705 
L 299.022285 89.900705 
L 299.022285 83.953086 
L 284.528778 83.953086 
z
" style="fill:#2e7ebc;"/>
   </g>
   <g id="patch_37">
    <path clip-path="url(#p9abd4519a2)" d="M 299.022285 89.900705 
L 313.515791 89.900705 
L 313.515791 86.721474 
L 299.022285 86.721474 
z
" style="fill:#2e7ebc;"/>
   </g>
   <g id="patch_38">
    <path clip-path="url(#p9abd4519a2)" d="M 313.515791 89.900705 
L 328.009298 89.900705 
L 328.009298 86.053044 
L 313.515791 86.053044 
z
" style="fill:#2e7ebc;"/>
   </g>
   <g id="patch_39">
    <path clip-path="url(#p9abd4519a2)" d="M 328.009298 89.900705 
L 342.502804 89.900705 
L 342.502804 82.486315 
L 328.009298 82.486315 
z
" style="fill:#2e7ebc;"/>
   </g>
   <g id="patch_40">
    <path clip-path="url(#p9abd4519a2)" d="M 342.502804 89.900705 
L 356.996311 89.900705 
L 356.996311 328.22 
L 342.502804 328.22 
z
" style="fill:#2e7ebc;"/>
   </g>
   <g id="patch_41">
    <path clip-path="url(#p9abd4519a2)" d="M 356.996311 89.900705 
L 371.489817 89.900705 
L 371.489817 144.628573 
L 356.996311 144.628573 
z
" style="fill:#2e7ebc;"/>
   </g>
   <g id="patch_42">
    <path clip-path="url(#p9abd4519a2)" d="M 371.489817 89.900705 
L 385.983324 89.900705 
L 385.983324 99.410925 
L 371.489817 99.410925 
z
" style="fill:#2e7ebc;"/>
   </g>
   <g id="patch_43">
    <path d="M 81.619687 343.34 
L 81.619687 10.7 
" style="fill:none;stroke:#000000;stroke-linecap:square;stroke-linejoin:miter;stroke-width:0.8;"/>
   </g>
   <g id="patch_44">
    <path d="M 400.47683 343.34 
L 400.47683 10.7 
" style="fill:none;stroke:#000000;stroke-linecap:square;stroke-linejoin:miter;stroke-width:0.8;"/>
   </g>
   <g id="patch_45">
    <path d="M 81.619687 343.34 
L 400.47683 343.34 
" style="fill:none;stroke:#000000;stroke-linecap:square;stroke-linejoin:miter;stroke-width:0.8;"/>
   </g>
   <g id="patch_46">
    <path d="M 81.619687 10.7 
L 400.47683 10.7 
" style="fill:none;stroke:#000000;stroke-linecap:square;stroke-linejoin:miter;stroke-width:0.8;"/>
   </g>
   <g id="patch_47">
    <path clip-path="url(#p9abd4519a2)" d="M 96.113194 89.900705 
L 110.6067 89.900705 
L 110.6067 89.900705 
L 96.113194 89.900705 
z
" style="fill:none;stroke:#000000;stroke-linejoin:miter;"/>
   </g>
   <g id="patch_48">
    <path clip-path="url(#p9abd4519a2)" d="M 110.6067 89.900705 
L 125.100207 89.900705 
L 125.100207 89.900705 
L 110.6067 89.900705 
z
" style="fill:none;stroke:#000000;stroke-linejoin:miter;"/>
   </g>
   <g id="patch_49">
    <path clip-path="url(#p9abd4519a2)" d="M 125.100207 89.900705 
L 139.593713 89.900705 
L 139.593713 89.900705 
L 125.100207 89.900705 
z
" style="fill:none;stroke:#000000;stroke-linejoin:miter;"/>
   </g>
   <g id="patch_50">
    <path clip-path="url(#p9abd4519a2)" d="M 139.593713 89.900705 
L 154.08722 89.900705 
L 154.08722 89.900705 
L 139.593713 89.900705 
z
" style="fill:none;stroke:#000000;stroke-linejoin:miter;"/>
   </g>
   <g id="patch_51">
    <path clip-path="url(#p9abd4519a2)" d="M 154.08722 89.900705 
L 168.580726 89.900705 
L 168.580726 89.900705 
L 154.08722 89.900705 
z
" style="fill:none;stroke:#000000;stroke-linejoin:miter;"/>
   </g>
   <g id="patch_52">
    <path clip-path="url(#p9abd4519a2)" d="M 168.580726 89.900705 
L 183.074233 89.900705 
L 183.074233 89.900705 
L 168.580726 89.900705 
z
" style="fill:none;stroke:#000000;stroke-linejoin:miter;"/>
   </g>
   <g id="patch_53">
    <path clip-path="url(#p9abd4519a2)" d="M 183.074233 89.900705 
L 197.567739 89.900705 
L 197.567739 89.900705 
L 183.074233 89.900705 
z
" style="fill:none;stroke:#000000;stroke-linejoin:miter;"/>
   </g>
   <g id="patch_54">
    <path clip-path="url(#p9abd4519a2)" d="M 197.567739 89.900705 
L 212.061246 89.900705 
L 212.061246 89.900705 
L 197.567739 89.900705 
z
" style="fill:none;stroke:#000000;stroke-linejoin:miter;"/>
   </g>
   <g id="patch_55">
    <path clip-path="url(#p9abd4519a2)" d="M 212.061246 89.900705 
L 226.554752 89.900705 
L 226.554752 89.900705 
L 212.061246 89.900705 
z
" style="fill:none;stroke:#000000;stroke-linejoin:miter;"/>
   </g>
   <g id="patch_56">
    <path clip-path="url(#p9abd4519a2)" d="M 226.554752 89.900705 
L 241.048259 89.900705 
L 241.048259 89.900705 
L 226.554752 89.900705 
z
" style="fill:none;stroke:#000000;stroke-linejoin:miter;"/>
   </g>
   <g id="patch_57">
    <path clip-path="url(#p9abd4519a2)" d="M 241.048259 89.900705 
L 255.541765 89.900705 
L 255.541765 89.900705 
L 241.048259 89.900705 
z
" style="fill:none;stroke:#000000;stroke-linejoin:miter;"/>
   </g>
   <g id="patch_58">
    <path clip-path="url(#p9abd4519a2)" d="M 255.541765 89.900705 
L 270.035272 89.900705 
L 270.035272 89.900705 
L 255.541765 89.900705 
z
" style="fill:none;stroke:#000000;stroke-linejoin:miter;"/>
   </g>
   <g id="patch_59">
    <path clip-path="url(#p9abd4519a2)" d="M 270.035272 89.900705 
L 284.528778 89.900705 
L 284.528778 89.900705 
L 270.035272 89.900705 
z
" style="fill:none;stroke:#000000;stroke-linejoin:miter;"/>
   </g>
   <g id="patch_60">
    <path clip-path="url(#p9abd4519a2)" d="M 284.528778 89.900705 
L 299.022285 89.900705 
L 299.022285 89.900705 
L 284.528778 89.900705 
z
" style="fill:none;stroke:#000000;stroke-linejoin:miter;"/>
   </g>
   <g id="patch_61">
    <path clip-path="url(#p9abd4519a2)" d="M 299.022285 89.900705 
L 313.515791 89.900705 
L 313.515791 89.900705 
L 299.022285 89.900705 
z
" style="fill:none;stroke:#000000;stroke-linejoin:miter;"/>
   </g>
   <g id="patch_62">
    <path clip-path="url(#p9abd4519a2)" d="M 313.515791 89.900705 
L 328.009298 89.900705 
L 328.009298 89.900705 
L 313.515791 89.900705 
z
" style="fill:none;stroke:#000000;stroke-linejoin:miter;"/>
   </g>
   <g id="patch_63">
    <path clip-path="url(#p9abd4519a2)" d="M 328.009298 89.900705 
L 342.502804 89.900705 
L 342.502804 89.900705 
L 328.009298 89.900705 
z
" style="fill:none;stroke:#000000;stroke-linejoin:miter;"/>
   </g>
   <g id="patch_64">
    <path clip-path="url(#p9abd4519a2)" d="M 342.502804 89.900705 
L 356.996311 89.900705 
L 356.996311 89.900705 
L 342.502804 89.900705 
z
" style="fill:none;stroke:#000000;stroke-linejoin:miter;"/>
   </g>
   <g id="patch_65">
    <path clip-path="url(#p9abd4519a2)" d="M 356.996311 89.900705 
L 371.489817 89.900705 
L 371.489817 89.900705 
L 356.996311 89.900705 
z
" style="fill:none;stroke:#000000;stroke-linejoin:miter;"/>
   </g>
   <g id="patch_66">
    <path clip-path="url(#p9abd4519a2)" d="M 371.489817 89.900705 
L 385.983324 89.900705 
L 385.983324 89.900705 
L 371.489817 89.900705 
z
" style="fill:none;stroke:#000000;stroke-linejoin:miter;"/>
   </g>
   <g id="patch_67">
    <path clip-path="url(#p9abd4519a2)" d="M 96.113194 89.900705 
L 110.6067 89.900705 
L 110.6067 89.900705 
L 96.113194 89.900705 
z
" style="fill:none;stroke:#000000;stroke-linejoin:miter;"/>
   </g>
   <g id="patch_68">
    <path clip-path="url(#p9abd4519a2)" d="M 110.6067 89.900705 
L 125.100207 89.900705 
L 125.100207 89.900705 
L 110.6067 89.900705 
z
" style="fill:none;stroke:#000000;stroke-linejoin:miter;"/>
   </g>
   <g id="patch_69">
    <path clip-path="url(#p9abd4519a2)" d="M 125.100207 89.900705 
L 139.593713 89.900705 
L 139.593713 89.900705 
L 125.100207 89.900705 
z
" style="fill:none;stroke:#000000;stroke-linejoin:miter;"/>
   </g>
   <g id="patch_70">
    <path clip-path="url(#p9abd4519a2)" d="M 139.593713 89.900705 
L 154.08722 89.900705 
L 154.08722 89.900705 
L 139.593713 89.900705 
z
" style="fill:none;stroke:#000000;stroke-linejoin:miter;"/>
   </g>
   <g id="patch_71">
    <path clip-path="url(#p9abd4519a2)" d="M 154.08722 89.900705 
L 168.580726 89.900705 
L 168.580726 89.900705 
L 154.08722 89.900705 
z
" style="fill:none;stroke:#000000;stroke-linejoin:miter;"/>
   </g>
   <g id="patch_72">
    <path clip-path="url(#p9abd4519a2)" d="M 168.580726 89.900705 
L 183.074233 89.900705 
L 183.074233 89.900705 
L 168.580726 89.900705 
z
" style="fill:none;stroke:#000000;stroke-linejoin:miter;"/>
   </g>
   <g id="patch_73">
    <path clip-path="url(#p9abd4519a2)" d="M 183.074233 89.900705 
L 197.567739 89.900705 
L 197.567739 89.900705 
L 183.074233 89.900705 
z
" style="fill:none;stroke:#000000;stroke-linejoin:miter;"/>
   </g>
   <g id="patch_74">
    <path clip-path="url(#p9abd4519a2)" d="M 197.567739 89.900705 
L 212.061246 89.900705 
L 212.061246 89.900705 
L 197.567739 89.900705 
z
" style="fill:none;stroke:#000000;stroke-linejoin:miter;"/>
   </g>
   <g id="patch_75">
    <path clip-path="url(#p9abd4519a2)" d="M 212.061246 89.900705 
L 226.554752 89.900705 
L 226.554752 89.900705 
L 212.061246 89.900705 
z
" style="fill:none;stroke:#000000;stroke-linejoin:miter;"/>
   </g>
   <g id="patch_76">
    <path clip-path="url(#p9abd4519a2)" d="M 226.554752 89.900705 
L 241.048259 89.900705 
L 241.048259 89.900705 
L 226.554752 89.900705 
z
" style="fill:none;stroke:#000000;stroke-linejoin:miter;"/>
   </g>
   <g id="patch_77">
    <path clip-path="url(#p9abd4519a2)" d="M 241.048259 89.900705 
L 255.541765 89.900705 
L 255.541765 89.900705 
L 241.048259 89.900705 
z
" style="fill:none;stroke:#000000;stroke-linejoin:miter;"/>
   </g>
   <g id="patch_78">
    <path clip-path="url(#p9abd4519a2)" d="M 255.541765 89.900705 
L 270.035272 89.900705 
L 270.035272 89.900705 
L 255.541765 89.900705 
z
" style="fill:none;stroke:#000000;stroke-linejoin:miter;"/>
   </g>
   <g id="patch_79">
    <path clip-path="url(#p9abd4519a2)" d="M 270.035272 89.900705 
L 284.528778 89.900705 
L 284.528778 89.900705 
L 270.035272 89.900705 
z
" style="fill:none;stroke:#000000;stroke-linejoin:miter;"/>
   </g>
   <g id="patch_80">
    <path clip-path="url(#p9abd4519a2)" d="M 284.528778 89.900705 
L 299.022285 89.900705 
L 299.022285 89.900705 
L 284.528778 89.900705 
z
" style="fill:none;stroke:#000000;stroke-linejoin:miter;"/>
   </g>
   <g id="patch_81">
    <path clip-path="url(#p9abd4519a2)" d="M 299.022285 89.900705 
L 313.515791 89.900705 
L 313.515791 89.900705 
L 299.022285 89.900705 
z
" style="fill:none;stroke:#000000;stroke-linejoin:miter;"/>
   </g>
   <g id="patch_82">
    <path clip-path="url(#p9abd4519a2)" d="M 313.515791 89.900705 
L 328.009298 89.900705 
L 328.009298 89.900705 
L 313.515791 89.900705 
z
" style="fill:none;stroke:#000000;stroke-linejoin:miter;"/>
   </g>
   <g id="patch_83">
    <path clip-path="url(#p9abd4519a2)" d="M 328.009298 89.900705 
L 342.502804 89.900705 
L 342.502804 89.900705 
L 328.009298 89.900705 
z
" style="fill:none;stroke:#000000;stroke-linejoin:miter;"/>
   </g>
   <g id="patch_84">
    <path clip-path="url(#p9abd4519a2)" d="M 342.502804 89.900705 
L 356.996311 89.900705 
L 356.996311 89.900705 
L 342.502804 89.900705 
z
" style="fill:none;stroke:#000000;stroke-linejoin:miter;"/>
   </g>
   <g id="patch_85">
    <path clip-path="url(#p9abd4519a2)" d="M 356.996311 89.900705 
L 371.489817 89.900705 
L 371.489817 89.900705 
L 356.996311 89.900705 
z
" style="fill:none;stroke:#000000;stroke-linejoin:miter;"/>
   </g>
   <g id="patch_86">
    <path clip-path="url(#p9abd4519a2)" d="M 371.489817 89.900705 
L 385.983324 89.900705 
L 385.983324 89.900705 
L 371.489817 89.900705 
z
" style="fill:none;stroke:#000000;stroke-linejoin:miter;"/>
   </g>
  </g>
 </g>
 <defs>
  <clipPath id="p9abd4519a2">
   <rect height="332.64" width="318.857143" x="81.619687" y="10.7"/>
  </clipPath>
 </defs>
</svg>
