<?xml version="1.0" encoding="utf-8" standalone="no"?>
<!DOCTYPE svg PUBLIC "-//W3C//DTD SVG 1.1//EN"
  "http://www.w3.org/Graphics/SVG/1.1/DTD/svg11.dtd">
<!-- Created with matplotlib (http://matplotlib.org/) -->
<svg height="354pt" version="1.1" viewBox="0 0 439 354" width="439pt" xmlns="http://www.w3.org/2000/svg" xmlns:xlink="http://www.w3.org/1999/xlink">
 <defs>
  <style type="text/css">
*{stroke-linecap:butt;stroke-linejoin:round;}
  </style>
 </defs>
 <g id="figure_1">
  <g id="patch_1">
   <path d="M -0 354.04 
L 439.17183 354.04 
L 439.17183 0 
L -0 0 
z
" style="fill:#ffffff;"/>
  </g>
  <g id="axes_1">
   <g id="patch_2">
    <path d="M 109.614688 343.34 
L 428.47183 343.34 
L 428.47183 10.7 
L 109.614688 10.7 
z
" style="fill:#ffffff;"/>
   </g>
   <g id="matplotlib.axis_1"/>
   <g id="matplotlib.axis_2">
    <g id="ytick_1">
     <g id="line2d_1">
      <defs>
       <path d="M 0 0 
L -3.5 0 
" id="m735af84de8" style="stroke:#000000;stroke-width:0.8;"/>
      </defs>
      <g>
       <use style="stroke:#000000;stroke-width:0.8;" x="109.614688" xlink:href="#m735af84de8" y="299.83862"/>
      </g>
     </g>
     <g id="text_1">
      <!-- −0.0010 -->
      <defs>
       <path d="M 10.59375 35.5 
L 73.1875 35.5 
L 73.1875 27.203125 
L 10.59375 27.203125 
z
" id="DejaVuSans-2212"/>
       <path d="M 31.78125 66.40625 
Q 24.171875 66.40625 20.328125 58.90625 
Q 16.5 51.421875 16.5 36.375 
Q 16.5 21.390625 20.328125 13.890625 
Q 24.171875 6.390625 31.78125 6.390625 
Q 39.453125 6.390625 43.28125 13.890625 
Q 47.125 21.390625 47.125 36.375 
Q 47.125 51.421875 43.28125 58.90625 
Q 39.453125 66.40625 31.78125 66.40625 
z
M 31.78125 74.21875 
Q 44.046875 74.21875 50.515625 64.515625 
Q 56.984375 54.828125 56.984375 36.375 
Q 56.984375 17.96875 50.515625 8.265625 
Q 44.046875 -1.421875 31.78125 -1.421875 
Q 19.53125 -1.421875 13.0625 8.265625 
Q 6.59375 17.96875 6.59375 36.375 
Q 6.59375 54.828125 13.0625 64.515625 
Q 19.53125 74.21875 31.78125 74.21875 
z
" id="DejaVuSans-30"/>
       <path d="M 10.6875 12.40625 
L 21 12.40625 
L 21 0 
L 10.6875 0 
z
" id="DejaVuSans-2e"/>
       <path d="M 12.40625 8.296875 
L 28.515625 8.296875 
L 28.515625 63.921875 
L 10.984375 60.40625 
L 10.984375 69.390625 
L 28.421875 72.90625 
L 38.28125 72.90625 
L 38.28125 8.296875 
L 54.390625 8.296875 
L 54.390625 0 
L 12.40625 0 
z
" id="DejaVuSans-31"/>
      </defs>
      <g transform="translate(7.2 308.196901)scale(0.22 -0.22)">
       <use xlink:href="#DejaVuSans-2212"/>
       <use x="83.789062" xlink:href="#DejaVuSans-30"/>
       <use x="147.412109" xlink:href="#DejaVuSans-2e"/>
       <use x="179.199219" xlink:href="#DejaVuSans-30"/>
       <use x="242.822266" xlink:href="#DejaVuSans-30"/>
       <use x="306.445312" xlink:href="#DejaVuSans-31"/>
       <use x="370.068359" xlink:href="#DejaVuSans-30"/>
      </g>
     </g>
    </g>
    <g id="ytick_2">
     <g id="line2d_2">
      <g>
       <use style="stroke:#000000;stroke-width:0.8;" x="109.614688" xlink:href="#m735af84de8" y="226.205767"/>
      </g>
     </g>
     <g id="text_2">
      <!-- −0.0005 -->
      <defs>
       <path d="M 10.796875 72.90625 
L 49.515625 72.90625 
L 49.515625 64.59375 
L 19.828125 64.59375 
L 19.828125 46.734375 
Q 21.96875 47.46875 24.109375 47.828125 
Q 26.265625 48.1875 28.421875 48.1875 
Q 40.625 48.1875 47.75 41.5 
Q 54.890625 34.8125 54.890625 23.390625 
Q 54.890625 11.625 47.5625 5.09375 
Q 40.234375 -1.421875 26.90625 -1.421875 
Q 22.3125 -1.421875 17.546875 -0.640625 
Q 12.796875 0.140625 7.71875 1.703125 
L 7.71875 11.625 
Q 12.109375 9.234375 16.796875 8.0625 
Q 21.484375 6.890625 26.703125 6.890625 
Q 35.15625 6.890625 40.078125 11.328125 
Q 45.015625 15.765625 45.015625 23.390625 
Q 45.015625 31 40.078125 35.4375 
Q 35.15625 39.890625 26.703125 39.890625 
Q 22.75 39.890625 18.8125 39.015625 
Q 14.890625 38.140625 10.796875 36.28125 
z
" id="DejaVuSans-35"/>
      </defs>
      <g transform="translate(7.2 234.564048)scale(0.22 -0.22)">
       <use xlink:href="#DejaVuSans-2212"/>
       <use x="83.789062" xlink:href="#DejaVuSans-30"/>
       <use x="147.412109" xlink:href="#DejaVuSans-2e"/>
       <use x="179.199219" xlink:href="#DejaVuSans-30"/>
       <use x="242.822266" xlink:href="#DejaVuSans-30"/>
       <use x="306.445312" xlink:href="#DejaVuSans-30"/>
       <use x="370.068359" xlink:href="#DejaVuSans-35"/>
      </g>
     </g>
    </g>
    <g id="ytick_3">
     <g id="line2d_3">
      <g>
       <use style="stroke:#000000;stroke-width:0.8;" x="109.614688" xlink:href="#m735af84de8" y="152.572914"/>
      </g>
     </g>
     <g id="text_3">
      <!-- 0.0000 -->
      <g transform="translate(25.635312 160.931195)scale(0.22 -0.22)">
       <use xlink:href="#DejaVuSans-30"/>
       <use x="63.623047" xlink:href="#DejaVuSans-2e"/>
       <use x="95.410156" xlink:href="#DejaVuSans-30"/>
       <use x="159.033203" xlink:href="#DejaVuSans-30"/>
       <use x="222.65625" xlink:href="#DejaVuSans-30"/>
       <use x="286.279297" xlink:href="#DejaVuSans-30"/>
      </g>
     </g>
    </g>
    <g id="ytick_4">
     <g id="line2d_4">
      <g>
       <use style="stroke:#000000;stroke-width:0.8;" x="109.614688" xlink:href="#m735af84de8" y="78.940061"/>
      </g>
     </g>
     <g id="text_4">
      <!-- 0.0005 -->
      <g transform="translate(25.635312 87.298342)scale(0.22 -0.22)">
       <use xlink:href="#DejaVuSans-30"/>
       <use x="63.623047" xlink:href="#DejaVuSans-2e"/>
       <use x="95.410156" xlink:href="#DejaVuSans-30"/>
       <use x="159.033203" xlink:href="#DejaVuSans-30"/>
       <use x="222.65625" xlink:href="#DejaVuSans-30"/>
       <use x="286.279297" xlink:href="#DejaVuSans-35"/>
      </g>
     </g>
    </g>
   </g>
   <g id="patch_3">
    <path clip-path="url(#pb6d6580a19)" d="M 124.108194 152.572914 
L 138.6017 152.572914 
L 138.6017 162.703376 
L 124.108194 162.703376 
z
" style="fill:#d92523;"/>
   </g>
   <g id="patch_4">
    <path clip-path="url(#pb6d6580a19)" d="M 138.6017 152.572914 
L 153.095207 152.572914 
L 153.095207 236.042922 
L 138.6017 236.042922 
z
" style="fill:#d92523;"/>
   </g>
   <g id="patch_5">
    <path clip-path="url(#pb6d6580a19)" d="M 153.095207 152.572914 
L 167.588713 152.572914 
L 167.588713 225.68057 
L 153.095207 225.68057 
z
" style="fill:#d92523;"/>
   </g>
   <g id="patch_6">
    <path clip-path="url(#pb6d6580a19)" d="M 167.588713 152.572914 
L 182.08222 152.572914 
L 182.08222 141.797727 
L 167.588713 141.797727 
z
" style="fill:#d92523;"/>
   </g>
   <g id="patch_7">
    <path clip-path="url(#pb6d6580a19)" d="M 182.08222 152.572914 
L 196.575726 152.572914 
L 196.575726 84.477317 
L 182.08222 84.477317 
z
" style="fill:#d92523;"/>
   </g>
   <g id="patch_8">
    <path clip-path="url(#pb6d6580a19)" d="M 196.575726 152.572914 
L 211.069233 152.572914 
L 211.069233 176.508049 
L 196.575726 176.508049 
z
" style="fill:#d92523;"/>
   </g>
   <g id="patch_9">
    <path clip-path="url(#pb6d6580a19)" d="M 211.069233 152.572914 
L 225.562739 152.572914 
L 225.562739 25.82 
L 211.069233 25.82 
z
" style="fill:#d92523;"/>
   </g>
   <g id="patch_10">
    <path clip-path="url(#pb6d6580a19)" d="M 225.562739 152.572914 
L 240.056246 152.572914 
L 240.056246 56.046868 
L 225.562739 56.046868 
z
" style="fill:#d92523;"/>
   </g>
   <g id="patch_11">
    <path clip-path="url(#pb6d6580a19)" d="M 240.056246 152.572914 
L 254.549752 152.572914 
L 254.549752 136.811789 
L 240.056246 136.811789 
z
" style="fill:#d92523;"/>
   </g>
   <g id="patch_12">
    <path clip-path="url(#pb6d6580a19)" d="M 254.549752 152.572914 
L 269.043259 152.572914 
L 269.043259 180.852967 
L 254.549752 180.852967 
z
" style="fill:#d92523;"/>
   </g>
   <g id="patch_13">
    <path clip-path="url(#pb6d6580a19)" d="M 269.043259 152.572914 
L 283.536765 152.572914 
L 283.536765 96.166988 
L 269.043259 96.166988 
z
" style="fill:#d92523;"/>
   </g>
   <g id="patch_14">
    <path clip-path="url(#pb6d6580a19)" d="M 283.536765 152.572914 
L 298.030272 152.572914 
L 298.030272 84.385672 
L 283.536765 84.385672 
z
" style="fill:#d92523;"/>
   </g>
   <g id="patch_15">
    <path clip-path="url(#pb6d6580a19)" d="M 298.030272 152.572914 
L 312.523778 152.572914 
L 312.523778 296.816638 
L 298.030272 296.816638 
z
" style="fill:#d92523;"/>
   </g>
   <g id="patch_16">
    <path clip-path="url(#pb6d6580a19)" d="M 312.523778 152.572914 
L 327.017285 152.572914 
L 327.017285 136.663398 
L 312.523778 136.663398 
z
" style="fill:#d92523;"/>
   </g>
   <g id="patch_17">
    <path clip-path="url(#pb6d6580a19)" d="M 327.017285 152.572914 
L 341.510791 152.572914 
L 341.510791 176.009246 
L 327.017285 176.009246 
z
" style="fill:#d92523;"/>
   </g>
   <g id="patch_18">
    <path clip-path="url(#pb6d6580a19)" d="M 341.510791 152.572914 
L 356.004298 152.572914 
L 356.004298 100.06959 
L 341.510791 100.06959 
z
" style="fill:#d92523;"/>
   </g>
   <g id="patch_19">
    <path clip-path="url(#pb6d6580a19)" d="M 356.004298 152.572914 
L 370.497804 152.572914 
L 370.497804 82.584624 
L 356.004298 82.584624 
z
" style="fill:#d92523;"/>
   </g>
   <g id="patch_20">
    <path clip-path="url(#pb6d6580a19)" d="M 370.497804 152.572914 
L 384.991311 152.572914 
L 384.991311 239.339188 
L 370.497804 239.339188 
z
" style="fill:#d92523;"/>
   </g>
   <g id="patch_21">
    <path clip-path="url(#pb6d6580a19)" d="M 384.991311 152.572914 
L 399.484817 152.572914 
L 399.484817 214.125735 
L 384.991311 214.125735 
z
" style="fill:#d92523;"/>
   </g>
   <g id="patch_22">
    <path clip-path="url(#pb6d6580a19)" d="M 399.484817 152.572914 
L 413.978324 152.572914 
L 413.978324 166.043199 
L 399.484817 166.043199 
z
" style="fill:#d92523;"/>
   </g>
   <g id="patch_23">
    <path clip-path="url(#pb6d6580a19)" d="M 124.108194 152.572914 
L 138.6017 152.572914 
L 138.6017 209.933923 
L 124.108194 209.933923 
z
" style="fill:#2e7ebc;"/>
   </g>
   <g id="patch_24">
    <path clip-path="url(#pb6d6580a19)" d="M 138.6017 152.572914 
L 153.095207 152.572914 
L 153.095207 219.864559 
L 138.6017 219.864559 
z
" style="fill:#2e7ebc;"/>
   </g>
   <g id="patch_25">
    <path clip-path="url(#pb6d6580a19)" d="M 153.095207 152.572914 
L 167.588713 152.572914 
L 167.588713 38.777447 
L 153.095207 38.777447 
z
" style="fill:#2e7ebc;"/>
   </g>
   <g id="patch_26">
    <path clip-path="url(#pb6d6580a19)" d="M 167.588713 152.572914 
L 182.08222 152.572914 
L 182.08222 173.609493 
L 167.588713 173.609493 
z
" style="fill:#2e7ebc;"/>
   </g>
   <g id="patch_27">
    <path clip-path="url(#pb6d6580a19)" d="M 182.08222 152.572914 
L 196.575726 152.572914 
L 196.575726 131.969543 
L 182.08222 131.969543 
z
" style="fill:#2e7ebc;"/>
   </g>
   <g id="patch_28">
    <path clip-path="url(#pb6d6580a19)" d="M 196.575726 152.572914 
L 211.069233 152.572914 
L 211.069233 172.388658 
L 196.575726 172.388658 
z
" style="fill:#2e7ebc;"/>
   </g>
   <g id="patch_29">
    <path clip-path="url(#pb6d6580a19)" d="M 211.069233 152.572914 
L 225.562739 152.572914 
L 225.562739 328.22 
L 211.069233 328.22 
z
" style="fill:#2e7ebc;"/>
   </g>
   <g id="patch_30">
    <path clip-path="url(#pb6d6580a19)" d="M 225.562739 152.572914 
L 240.056246 152.572914 
L 240.056246 218.451493 
L 225.562739 218.451493 
z
" style="fill:#2e7ebc;"/>
   </g>
   <g id="patch_31">
    <path clip-path="url(#pb6d6580a19)" d="M 240.056246 152.572914 
L 254.549752 152.572914 
L 254.549752 155.247069 
L 240.056246 155.247069 
z
" style="fill:#2e7ebc;"/>
   </g>
   <g id="patch_32">
    <path clip-path="url(#pb6d6580a19)" d="M 254.549752 152.572914 
L 269.043259 152.572914 
L 269.043259 206.696383 
L 254.549752 206.696383 
z
" style="fill:#2e7ebc;"/>
   </g>
   <g id="patch_33">
    <path clip-path="url(#pb6d6580a19)" d="M 269.043259 152.572914 
L 283.536765 152.572914 
L 283.536765 229.627005 
L 269.043259 229.627005 
z
" style="fill:#2e7ebc;"/>
   </g>
   <g id="patch_34">
    <path clip-path="url(#pb6d6580a19)" d="M 283.536765 152.572914 
L 298.030272 152.572914 
L 298.030272 149.685792 
L 283.536765 149.685792 
z
" style="fill:#2e7ebc;"/>
   </g>
   <g id="patch_35">
    <path clip-path="url(#pb6d6580a19)" d="M 298.030272 152.572914 
L 312.523778 152.572914 
L 312.523778 119.311564 
L 298.030272 119.311564 
z
" style="fill:#2e7ebc;"/>
   </g>
   <g id="patch_36">
    <path clip-path="url(#pb6d6580a19)" d="M 312.523778 152.572914 
L 327.017285 152.572914 
L 327.017285 118.088168 
L 312.523778 118.088168 
z
" style="fill:#2e7ebc;"/>
   </g>
   <g id="patch_37">
    <path clip-path="url(#pb6d6580a19)" d="M 327.017285 152.572914 
L 341.510791 152.572914 
L 341.510791 275.311397 
L 327.017285 275.311397 
z
" style="fill:#2e7ebc;"/>
   </g>
   <g id="patch_38">
    <path clip-path="url(#pb6d6580a19)" d="M 341.510791 152.572914 
L 356.004298 152.572914 
L 356.004298 309.66301 
L 341.510791 309.66301 
z
" style="fill:#2e7ebc;"/>
   </g>
   <g id="patch_39">
    <path clip-path="url(#pb6d6580a19)" d="M 356.004298 152.572914 
L 370.497804 152.572914 
L 370.497804 296.088846 
L 356.004298 296.088846 
z
" style="fill:#2e7ebc;"/>
   </g>
   <g id="patch_40">
    <path clip-path="url(#pb6d6580a19)" d="M 370.497804 152.572914 
L 384.991311 152.572914 
L 384.991311 180.942319 
L 370.497804 180.942319 
z
" style="fill:#2e7ebc;"/>
   </g>
   <g id="patch_41">
    <path clip-path="url(#pb6d6580a19)" d="M 384.991311 152.572914 
L 399.484817 152.572914 
L 399.484817 103.657577 
L 384.991311 103.657577 
z
" style="fill:#2e7ebc;"/>
   </g>
   <g id="patch_42">
    <path clip-path="url(#pb6d6580a19)" d="M 399.484817 152.572914 
L 413.978324 152.572914 
L 413.978324 192.606529 
L 399.484817 192.606529 
z
" style="fill:#2e7ebc;"/>
   </g>
   <g id="patch_43">
    <path d="M 109.614688 343.34 
L 109.614688 10.7 
" style="fill:none;stroke:#000000;stroke-linecap:square;stroke-linejoin:miter;stroke-width:0.8;"/>
   </g>
   <g id="patch_44">
    <path d="M 428.47183 343.34 
L 428.47183 10.7 
" style="fill:none;stroke:#000000;stroke-linecap:square;stroke-linejoin:miter;stroke-width:0.8;"/>
   </g>
   <g id="patch_45">
    <path d="M 109.614688 343.34 
L 428.47183 343.34 
" style="fill:none;stroke:#000000;stroke-linecap:square;stroke-linejoin:miter;stroke-width:0.8;"/>
   </g>
   <g id="patch_46">
    <path d="M 109.614688 10.7 
L 428.47183 10.7 
" style="fill:none;stroke:#000000;stroke-linecap:square;stroke-linejoin:miter;stroke-width:0.8;"/>
   </g>
   <g id="patch_47">
    <path clip-path="url(#pb6d6580a19)" d="M 124.108194 152.572914 
L 138.6017 152.572914 
L 138.6017 152.572914 
L 124.108194 152.572914 
z
" style="fill:none;stroke:#000000;stroke-linejoin:miter;"/>
   </g>
   <g id="patch_48">
    <path clip-path="url(#pb6d6580a19)" d="M 138.6017 152.572914 
L 153.095207 152.572914 
L 153.095207 152.572914 
L 138.6017 152.572914 
z
" style="fill:none;stroke:#000000;stroke-linejoin:miter;"/>
   </g>
   <g id="patch_49">
    <path clip-path="url(#pb6d6580a19)" d="M 153.095207 152.572914 
L 167.588713 152.572914 
L 167.588713 152.572914 
L 153.095207 152.572914 
z
" style="fill:none;stroke:#000000;stroke-linejoin:miter;"/>
   </g>
   <g id="patch_50">
    <path clip-path="url(#pb6d6580a19)" d="M 167.588713 152.572914 
L 182.08222 152.572914 
L 182.08222 152.572914 
L 167.588713 152.572914 
z
" style="fill:none;stroke:#000000;stroke-linejoin:miter;"/>
   </g>
   <g id="patch_51">
    <path clip-path="url(#pb6d6580a19)" d="M 182.08222 152.572914 
L 196.575726 152.572914 
L 196.575726 152.572914 
L 182.08222 152.572914 
z
" style="fill:none;stroke:#000000;stroke-linejoin:miter;"/>
   </g>
   <g id="patch_52">
    <path clip-path="url(#pb6d6580a19)" d="M 196.575726 152.572914 
L 211.069233 152.572914 
L 211.069233 152.572914 
L 196.575726 152.572914 
z
" style="fill:none;stroke:#000000;stroke-linejoin:miter;"/>
   </g>
   <g id="patch_53">
    <path clip-path="url(#pb6d6580a19)" d="M 211.069233 152.572914 
L 225.562739 152.572914 
L 225.562739 152.572914 
L 211.069233 152.572914 
z
" style="fill:none;stroke:#000000;stroke-linejoin:miter;"/>
   </g>
   <g id="patch_54">
    <path clip-path="url(#pb6d6580a19)" d="M 225.562739 152.572914 
L 240.056246 152.572914 
L 240.056246 152.572914 
L 225.562739 152.572914 
z
" style="fill:none;stroke:#000000;stroke-linejoin:miter;"/>
   </g>
   <g id="patch_55">
    <path clip-path="url(#pb6d6580a19)" d="M 240.056246 152.572914 
L 254.549752 152.572914 
L 254.549752 152.572914 
L 240.056246 152.572914 
z
" style="fill:none;stroke:#000000;stroke-linejoin:miter;"/>
   </g>
   <g id="patch_56">
    <path clip-path="url(#pb6d6580a19)" d="M 254.549752 152.572914 
L 269.043259 152.572914 
L 269.043259 152.572914 
L 254.549752 152.572914 
z
" style="fill:none;stroke:#000000;stroke-linejoin:miter;"/>
   </g>
   <g id="patch_57">
    <path clip-path="url(#pb6d6580a19)" d="M 269.043259 152.572914 
L 283.536765 152.572914 
L 283.536765 152.572914 
L 269.043259 152.572914 
z
" style="fill:none;stroke:#000000;stroke-linejoin:miter;"/>
   </g>
   <g id="patch_58">
    <path clip-path="url(#pb6d6580a19)" d="M 283.536765 152.572914 
L 298.030272 152.572914 
L 298.030272 152.572914 
L 283.536765 152.572914 
z
" style="fill:none;stroke:#000000;stroke-linejoin:miter;"/>
   </g>
   <g id="patch_59">
    <path clip-path="url(#pb6d6580a19)" d="M 298.030272 152.572914 
L 312.523778 152.572914 
L 312.523778 152.572914 
L 298.030272 152.572914 
z
" style="fill:none;stroke:#000000;stroke-linejoin:miter;"/>
   </g>
   <g id="patch_60">
    <path clip-path="url(#pb6d6580a19)" d="M 312.523778 152.572914 
L 327.017285 152.572914 
L 327.017285 152.572914 
L 312.523778 152.572914 
z
" style="fill:none;stroke:#000000;stroke-linejoin:miter;"/>
   </g>
   <g id="patch_61">
    <path clip-path="url(#pb6d6580a19)" d="M 327.017285 152.572914 
L 341.510791 152.572914 
L 341.510791 152.572914 
L 327.017285 152.572914 
z
" style="fill:none;stroke:#000000;stroke-linejoin:miter;"/>
   </g>
   <g id="patch_62">
    <path clip-path="url(#pb6d6580a19)" d="M 341.510791 152.572914 
L 356.004298 152.572914 
L 356.004298 152.572914 
L 341.510791 152.572914 
z
" style="fill:none;stroke:#000000;stroke-linejoin:miter;"/>
   </g>
   <g id="patch_63">
    <path clip-path="url(#pb6d6580a19)" d="M 356.004298 152.572914 
L 370.497804 152.572914 
L 370.497804 152.572914 
L 356.004298 152.572914 
z
" style="fill:none;stroke:#000000;stroke-linejoin:miter;"/>
   </g>
   <g id="patch_64">
    <path clip-path="url(#pb6d6580a19)" d="M 370.497804 152.572914 
L 384.991311 152.572914 
L 384.991311 152.572914 
L 370.497804 152.572914 
z
" style="fill:none;stroke:#000000;stroke-linejoin:miter;"/>
   </g>
   <g id="patch_65">
    <path clip-path="url(#pb6d6580a19)" d="M 384.991311 152.572914 
L 399.484817 152.572914 
L 399.484817 152.572914 
L 384.991311 152.572914 
z
" style="fill:none;stroke:#000000;stroke-linejoin:miter;"/>
   </g>
   <g id="patch_66">
    <path clip-path="url(#pb6d6580a19)" d="M 399.484817 152.572914 
L 413.978324 152.572914 
L 413.978324 152.572914 
L 399.484817 152.572914 
z
" style="fill:none;stroke:#000000;stroke-linejoin:miter;"/>
   </g>
   <g id="patch_67">
    <path clip-path="url(#pb6d6580a19)" d="M 124.108194 152.572914 
L 138.6017 152.572914 
L 138.6017 152.572914 
L 124.108194 152.572914 
z
" style="fill:none;stroke:#000000;stroke-linejoin:miter;"/>
   </g>
   <g id="patch_68">
    <path clip-path="url(#pb6d6580a19)" d="M 138.6017 152.572914 
L 153.095207 152.572914 
L 153.095207 152.572914 
L 138.6017 152.572914 
z
" style="fill:none;stroke:#000000;stroke-linejoin:miter;"/>
   </g>
   <g id="patch_69">
    <path clip-path="url(#pb6d6580a19)" d="M 153.095207 152.572914 
L 167.588713 152.572914 
L 167.588713 152.572914 
L 153.095207 152.572914 
z
" style="fill:none;stroke:#000000;stroke-linejoin:miter;"/>
   </g>
   <g id="patch_70">
    <path clip-path="url(#pb6d6580a19)" d="M 167.588713 152.572914 
L 182.08222 152.572914 
L 182.08222 152.572914 
L 167.588713 152.572914 
z
" style="fill:none;stroke:#000000;stroke-linejoin:miter;"/>
   </g>
   <g id="patch_71">
    <path clip-path="url(#pb6d6580a19)" d="M 182.08222 152.572914 
L 196.575726 152.572914 
L 196.575726 152.572914 
L 182.08222 152.572914 
z
" style="fill:none;stroke:#000000;stroke-linejoin:miter;"/>
   </g>
   <g id="patch_72">
    <path clip-path="url(#pb6d6580a19)" d="M 196.575726 152.572914 
L 211.069233 152.572914 
L 211.069233 152.572914 
L 196.575726 152.572914 
z
" style="fill:none;stroke:#000000;stroke-linejoin:miter;"/>
   </g>
   <g id="patch_73">
    <path clip-path="url(#pb6d6580a19)" d="M 211.069233 152.572914 
L 225.562739 152.572914 
L 225.562739 152.572914 
L 211.069233 152.572914 
z
" style="fill:none;stroke:#000000;stroke-linejoin:miter;"/>
   </g>
   <g id="patch_74">
    <path clip-path="url(#pb6d6580a19)" d="M 225.562739 152.572914 
L 240.056246 152.572914 
L 240.056246 152.572914 
L 225.562739 152.572914 
z
" style="fill:none;stroke:#000000;stroke-linejoin:miter;"/>
   </g>
   <g id="patch_75">
    <path clip-path="url(#pb6d6580a19)" d="M 240.056246 152.572914 
L 254.549752 152.572914 
L 254.549752 152.572914 
L 240.056246 152.572914 
z
" style="fill:none;stroke:#000000;stroke-linejoin:miter;"/>
   </g>
   <g id="patch_76">
    <path clip-path="url(#pb6d6580a19)" d="M 254.549752 152.572914 
L 269.043259 152.572914 
L 269.043259 152.572914 
L 254.549752 152.572914 
z
" style="fill:none;stroke:#000000;stroke-linejoin:miter;"/>
   </g>
   <g id="patch_77">
    <path clip-path="url(#pb6d6580a19)" d="M 269.043259 152.572914 
L 283.536765 152.572914 
L 283.536765 152.572914 
L 269.043259 152.572914 
z
" style="fill:none;stroke:#000000;stroke-linejoin:miter;"/>
   </g>
   <g id="patch_78">
    <path clip-path="url(#pb6d6580a19)" d="M 283.536765 152.572914 
L 298.030272 152.572914 
L 298.030272 152.572914 
L 283.536765 152.572914 
z
" style="fill:none;stroke:#000000;stroke-linejoin:miter;"/>
   </g>
   <g id="patch_79">
    <path clip-path="url(#pb6d6580a19)" d="M 298.030272 152.572914 
L 312.523778 152.572914 
L 312.523778 152.572914 
L 298.030272 152.572914 
z
" style="fill:none;stroke:#000000;stroke-linejoin:miter;"/>
   </g>
   <g id="patch_80">
    <path clip-path="url(#pb6d6580a19)" d="M 312.523778 152.572914 
L 327.017285 152.572914 
L 327.017285 152.572914 
L 312.523778 152.572914 
z
" style="fill:none;stroke:#000000;stroke-linejoin:miter;"/>
   </g>
   <g id="patch_81">
    <path clip-path="url(#pb6d6580a19)" d="M 327.017285 152.572914 
L 341.510791 152.572914 
L 341.510791 152.572914 
L 327.017285 152.572914 
z
" style="fill:none;stroke:#000000;stroke-linejoin:miter;"/>
   </g>
   <g id="patch_82">
    <path clip-path="url(#pb6d6580a19)" d="M 341.510791 152.572914 
L 356.004298 152.572914 
L 356.004298 152.572914 
L 341.510791 152.572914 
z
" style="fill:none;stroke:#000000;stroke-linejoin:miter;"/>
   </g>
   <g id="patch_83">
    <path clip-path="url(#pb6d6580a19)" d="M 356.004298 152.572914 
L 370.497804 152.572914 
L 370.497804 152.572914 
L 356.004298 152.572914 
z
" style="fill:none;stroke:#000000;stroke-linejoin:miter;"/>
   </g>
   <g id="patch_84">
    <path clip-path="url(#pb6d6580a19)" d="M 370.497804 152.572914 
L 384.991311 152.572914 
L 384.991311 152.572914 
L 370.497804 152.572914 
z
" style="fill:none;stroke:#000000;stroke-linejoin:miter;"/>
   </g>
   <g id="patch_85">
    <path clip-path="url(#pb6d6580a19)" d="M 384.991311 152.572914 
L 399.484817 152.572914 
L 399.484817 152.572914 
L 384.991311 152.572914 
z
" style="fill:none;stroke:#000000;stroke-linejoin:miter;"/>
   </g>
   <g id="patch_86">
    <path clip-path="url(#pb6d6580a19)" d="M 399.484817 152.572914 
L 413.978324 152.572914 
L 413.978324 152.572914 
L 399.484817 152.572914 
z
" style="fill:none;stroke:#000000;stroke-linejoin:miter;"/>
   </g>
  </g>
 </g>
 <defs>
  <clipPath id="pb6d6580a19">
   <rect height="332.64" width="318.857143" x="109.614688" y="10.7"/>
  </clipPath>
 </defs>
</svg>
