<?xml version="1.0" encoding="utf-8" standalone="no"?>
<!DOCTYPE svg PUBLIC "-//W3C//DTD SVG 1.1//EN"
  "http://www.w3.org/Graphics/SVG/1.1/DTD/svg11.dtd">
<!-- Created with matplotlib (http://matplotlib.org/) -->
<svg height="355pt" version="1.1" viewBox="0 0 441 355" width="441pt" xmlns="http://www.w3.org/2000/svg" xmlns:xlink="http://www.w3.org/1999/xlink">
 <defs>
  <style type="text/css">
*{stroke-linecap:butt;stroke-linejoin:round;}
  </style>
 </defs>
 <g id="figure_1">
  <g id="patch_1">
   <path d="M 0 355.268766 
L 441.117188 355.268766 
L 441.117188 0 
L 0 0 
z
" style="fill:#ffffff;"/>
  </g>
  <g id="axes_1">
   <g id="patch_2">
    <path d="M 95.617188 343.34 
L 430.417188 343.34 
L 430.417188 10.7 
L 95.617188 10.7 
z
" style="fill:#ffffff;"/>
   </g>
   <g id="PolyCollection_1">
    <defs>
     <path d="M 110.835369 -48.660366 
L 110.835369 -156.226088 
L 114.14367 -156.226088 
L 117.45197 -156.226088 
L 120.760271 -156.226088 
L 124.068571 -156.226088 
L 127.376871 -156.226088 
L 130.685172 -156.226088 
L 133.993472 -156.226088 
L 137.301772 -156.226088 
L 140.610073 -156.226088 
L 143.918373 -156.226088 
L 147.226674 -156.226088 
L 150.534974 -156.226088 
L 153.843274 -156.226088 
L 157.151575 -156.226088 
L 160.459875 -156.226088 
L 163.768176 -156.226088 
L 167.076476 -156.226088 
L 170.384776 -156.226088 
L 173.693077 -156.226088 
L 177.001377 -156.226088 
L 180.309678 -156.226088 
L 183.617978 -156.226088 
L 186.926278 -156.226088 
L 190.234579 -156.226088 
L 193.542879 -156.226088 
L 196.85118 -156.226088 
L 200.15948 -156.226088 
L 203.46778 -156.226088 
L 206.776081 -156.226088 
L 210.084381 -156.226088 
L 213.392682 -156.226088 
L 216.700982 -156.226088 
L 220.009282 -156.226088 
L 223.317583 -156.226088 
L 226.625883 -156.226088 
L 229.934184 -156.226088 
L 233.242484 -156.226088 
L 236.550784 -156.226088 
L 239.859085 -156.226088 
L 243.167385 -156.226088 
L 246.475686 -156.226088 
L 249.783986 -156.226088 
L 253.092286 -156.226088 
L 256.400587 -156.226088 
L 259.708887 -156.226088 
L 263.017188 -156.226088 
L 266.325488 -156.226088 
L 269.633788 -156.226088 
L 272.942089 -156.226088 
L 276.250389 -156.226088 
L 279.558689 -156.226088 
L 282.86699 -156.226088 
L 286.17529 -156.226088 
L 289.483591 -156.226088 
L 292.791891 -156.226088 
L 296.100191 -156.226088 
L 299.408492 -156.226088 
L 302.716792 -156.226088 
L 306.025093 -156.226088 
L 309.333393 -156.226088 
L 312.641693 -156.226088 
L 315.949994 -156.226088 
L 319.258294 -156.226088 
L 322.566595 -156.226088 
L 325.874895 -156.226088 
L 329.183195 -156.226088 
L 332.491496 -156.226088 
L 335.799796 -156.226088 
L 339.108097 -156.226088 
L 342.416397 -156.226088 
L 345.724697 -156.226088 
L 349.032998 -156.226088 
L 352.341298 -156.226088 
L 355.649599 -156.226088 
L 358.957899 -156.226088 
L 362.266199 -156.226088 
L 365.5745 -156.226088 
L 368.8828 -156.226088 
L 372.191101 -156.226088 
L 375.499401 -156.226088 
L 378.807701 -156.226088 
L 382.116002 -156.226088 
L 385.424302 -156.226088 
L 388.732603 -156.226088 
L 392.040903 -156.226088 
L 395.349203 -156.226088 
L 398.657504 -156.226088 
L 401.965804 -156.226088 
L 405.274104 -156.226088 
L 408.582405 -156.226088 
L 411.890705 -156.226088 
L 415.199006 -156.226088 
L 415.199006 -307.106119 
L 415.199006 -307.106119 
L 411.890705 -282.185685 
L 408.582405 -241.50877 
L 405.274104 -240.74581 
L 401.965804 -235.056864 
L 398.657504 -229.080639 
L 395.349203 -221.642968 
L 392.040903 -212.595384 
L 388.732603 -212.126068 
L 385.424302 -209.478062 
L 382.116002 -207.828072 
L 378.807701 -199.106783 
L 375.499401 -198.819813 
L 372.191101 -197.52026 
L 368.8828 -196.288545 
L 365.5745 -195.453016 
L 362.266199 -195.403034 
L 358.957899 -192.254249 
L 355.649599 -191.211555 
L 352.341298 -191.108141 
L 349.032998 -190.175594 
L 345.724697 -185.454863 
L 342.416397 -179.790932 
L 339.108097 -179.145366 
L 335.799796 -178.627269 
L 332.491496 -178.550206 
L 329.183195 -177.731214 
L 325.874895 -174.923652 
L 322.566595 -173.986059 
L 319.258294 -172.2005 
L 315.949994 -171.123221 
L 312.641693 -170.167524 
L 309.333393 -168.919087 
L 306.025093 -168.238614 
L 302.716792 -168.149727 
L 299.408492 -167.78415 
L 296.100191 -167.22594 
L 292.791891 -166.937629 
L 289.483591 -166.845409 
L 286.17529 -166.643669 
L 282.86699 -165.730542 
L 279.558689 -165.474495 
L 276.250389 -164.890564 
L 272.942089 -163.03845 
L 269.633788 -162.473684 
L 266.325488 -161.410688 
L 263.017188 -161.261912 
L 259.708887 -159.389847 
L 256.400587 -158.829543 
L 253.092286 -158.524046 
L 249.783986 -157.473578 
L 246.475686 -157.093284 
L 243.167385 -156.943931 
L 239.859085 -156.35817 
L 236.550784 -156.274669 
L 233.242484 -154.493006 
L 229.934184 -153.172512 
L 226.625883 -153.160151 
L 223.317583 -152.702888 
L 220.009282 -151.255543 
L 216.700982 -150.825012 
L 213.392682 -149.304057 
L 210.084381 -148.2063 
L 206.776081 -148.054004 
L 203.46778 -147.598378 
L 200.15948 -147.06963 
L 196.85118 -145.69688 
L 193.542879 -144.49198 
L 190.234579 -144.070679 
L 186.926278 -142.79267 
L 183.617978 -142.773773 
L 180.309678 -141.406037 
L 177.001377 -139.463311 
L 173.693077 -136.821568 
L 170.384776 -135.790157 
L 167.076476 -135.723934 
L 163.768176 -135.145284 
L 160.459875 -134.368081 
L 157.151575 -134.234755 
L 153.843274 -133.370592 
L 150.534974 -123.158127 
L 147.226674 -111.596129 
L 143.918373 -110.98001 
L 140.610073 -108.25793 
L 137.301772 -100.696702 
L 133.993472 -92.667943 
L 130.685172 -90.190219 
L 127.376871 -87.793366 
L 124.068571 -80.067563 
L 120.760271 -74.716411 
L 117.45197 -72.183263 
L 114.14367 -50.299827 
L 110.835369 -48.660366 
z
" id="m13eb798039" style="stroke:#4a98c9;"/>
    </defs>
    <g clip-path="url(#p76603ad5a9)">
     <use style="fill:#4a98c9;stroke:#4a98c9;" x="0" xlink:href="#m13eb798039" y="355.268766"/>
    </g>
   </g>
   <g id="PolyCollection_2">
    <defs>
     <path d="M 110.835369 -27.048766 
L 110.835369 -156.226088 
L 114.14367 -156.226088 
L 117.45197 -156.226088 
L 120.760271 -156.226088 
L 124.068571 -156.226088 
L 127.376871 -156.226088 
L 130.685172 -156.226088 
L 133.993472 -156.226088 
L 137.301772 -156.226088 
L 140.610073 -156.226088 
L 143.918373 -156.226088 
L 147.226674 -156.226088 
L 150.534974 -156.226088 
L 153.843274 -156.226088 
L 157.151575 -156.226088 
L 160.459875 -156.226088 
L 163.768176 -156.226088 
L 167.076476 -156.226088 
L 170.384776 -156.226088 
L 173.693077 -156.226088 
L 177.001377 -156.226088 
L 180.309678 -156.226088 
L 183.617978 -156.226088 
L 186.926278 -156.226088 
L 190.234579 -156.226088 
L 193.542879 -156.226088 
L 196.85118 -156.226088 
L 200.15948 -156.226088 
L 203.46778 -156.226088 
L 206.776081 -156.226088 
L 210.084381 -156.226088 
L 213.392682 -156.226088 
L 216.700982 -156.226088 
L 220.009282 -156.226088 
L 223.317583 -156.226088 
L 226.625883 -156.226088 
L 229.934184 -156.226088 
L 233.242484 -156.226088 
L 236.550784 -156.226088 
L 239.859085 -156.226088 
L 243.167385 -156.226088 
L 246.475686 -156.226088 
L 249.783986 -156.226088 
L 253.092286 -156.226088 
L 256.400587 -156.226088 
L 259.708887 -156.226088 
L 263.017188 -156.226088 
L 266.325488 -156.226088 
L 269.633788 -156.226088 
L 272.942089 -156.226088 
L 276.250389 -156.226088 
L 279.558689 -156.226088 
L 282.86699 -156.226088 
L 286.17529 -156.226088 
L 289.483591 -156.226088 
L 292.791891 -156.226088 
L 296.100191 -156.226088 
L 299.408492 -156.226088 
L 302.716792 -156.226088 
L 306.025093 -156.226088 
L 309.333393 -156.226088 
L 312.641693 -156.226088 
L 315.949994 -156.226088 
L 319.258294 -156.226088 
L 322.566595 -156.226088 
L 325.874895 -156.226088 
L 329.183195 -156.226088 
L 332.491496 -156.226088 
L 335.799796 -156.226088 
L 339.108097 -156.226088 
L 342.416397 -156.226088 
L 345.724697 -156.226088 
L 349.032998 -156.226088 
L 352.341298 -156.226088 
L 355.649599 -156.226088 
L 358.957899 -156.226088 
L 362.266199 -156.226088 
L 365.5745 -156.226088 
L 368.8828 -156.226088 
L 372.191101 -156.226088 
L 375.499401 -156.226088 
L 378.807701 -156.226088 
L 382.116002 -156.226088 
L 385.424302 -156.226088 
L 388.732603 -156.226088 
L 392.040903 -156.226088 
L 395.349203 -156.226088 
L 398.657504 -156.226088 
L 401.965804 -156.226088 
L 405.274104 -156.226088 
L 408.582405 -156.226088 
L 411.890705 -156.226088 
L 415.199006 -156.226088 
L 415.199006 -329.448766 
L 415.199006 -329.448766 
L 411.890705 -297.440355 
L 408.582405 -278.74573 
L 405.274104 -272.556925 
L 401.965804 -270.210605 
L 398.657504 -264.071562 
L 395.349203 -259.457829 
L 392.040903 -243.953962 
L 388.732603 -234.049315 
L 385.424302 -227.531734 
L 382.116002 -217.466601 
L 378.807701 -210.048816 
L 375.499401 -208.633784 
L 372.191101 -204.684153 
L 368.8828 -203.576338 
L 365.5745 -201.026635 
L 362.266199 -197.960514 
L 358.957899 -197.820626 
L 355.649599 -197.124902 
L 352.341298 -194.423114 
L 349.032998 -193.383052 
L 345.724697 -190.145258 
L 342.416397 -188.876 
L 339.108097 -188.772096 
L 335.799796 -185.981917 
L 332.491496 -182.138405 
L 329.183195 -181.594783 
L 325.874895 -178.409192 
L 322.566595 -175.682193 
L 319.258294 -174.495513 
L 315.949994 -173.336181 
L 312.641693 -173.31826 
L 309.333393 -172.157194 
L 306.025093 -169.67333 
L 302.716792 -169.333675 
L 299.408492 -169.136039 
L 296.100191 -168.275328 
L 292.791891 -167.724244 
L 289.483591 -165.324457 
L 286.17529 -165.236542 
L 282.86699 -164.300922 
L 279.558689 -163.573178 
L 276.250389 -162.542792 
L 272.942089 -161.822386 
L 269.633788 -161.724972 
L 266.325488 -161.185379 
L 263.017188 -159.324916 
L 259.708887 -158.380309 
L 256.400587 -157.621263 
L 253.092286 -156.217336 
L 249.783986 -156.172408 
L 246.475686 -152.913031 
L 243.167385 -152.869663 
L 239.859085 -152.177053 
L 236.550784 -151.913821 
L 233.242484 -151.777021 
L 229.934184 -151.47322 
L 226.625883 -149.729859 
L 223.317583 -149.582008 
L 220.009282 -147.451154 
L 216.700982 -147.016574 
L 213.392682 -146.515769 
L 210.084381 -143.651734 
L 206.776081 -143.63198 
L 203.46778 -143.378335 
L 200.15948 -141.131285 
L 196.85118 -139.286248 
L 193.542879 -139.165649 
L 190.234579 -139.085835 
L 186.926278 -138.191009 
L 183.617978 -136.46041 
L 180.309678 -135.5205 
L 177.001377 -135.024968 
L 173.693077 -134.656119 
L 170.384776 -132.621104 
L 167.076476 -131.67756 
L 163.768176 -127.465694 
L 160.459875 -126.720892 
L 157.151575 -125.786556 
L 153.843274 -120.121437 
L 150.534974 -118.117795 
L 147.226674 -109.895769 
L 143.918373 -109.734526 
L 140.610073 -107.738118 
L 137.301772 -100.047488 
L 133.993472 -95.639141 
L 130.685172 -86.431227 
L 127.376871 -78.446799 
L 124.068571 -76.784287 
L 120.760271 -68.323665 
L 117.45197 -66.768891 
L 114.14367 -64.221885 
L 110.835369 -27.048766 
z
" id="mc6c232bb2a" style="stroke:#f14432;stroke-opacity:0.8;"/>
    </defs>
    <g clip-path="url(#p76603ad5a9)">
     <use style="fill:#f14432;fill-opacity:0.8;stroke:#f14432;stroke-opacity:0.8;" x="0" xlink:href="#mc6c232bb2a" y="355.268766"/>
    </g>
   </g>
   <g id="matplotlib.axis_1"/>
   <g id="matplotlib.axis_2">
    <g id="ytick_1">
     <g id="line2d_1">
      <defs>
       <path d="M 0 0 
L -3.5 0 
" id="m7fa0700f7b" style="stroke:#000000;stroke-width:0.8;"/>
      </defs>
      <g>
       <use style="stroke:#000000;stroke-width:0.8;" x="95.617188" xlink:href="#m7fa0700f7b" y="335.135172"/>
      </g>
     </g>
     <g id="text_1">
      <!-- −0.075 -->
      <defs>
       <path d="M 10.59375 35.5 
L 73.1875 35.5 
L 73.1875 27.203125 
L 10.59375 27.203125 
z
" id="DejaVuSans-2212"/>
       <path d="M 31.78125 66.40625 
Q 24.171875 66.40625 20.328125 58.90625 
Q 16.5 51.421875 16.5 36.375 
Q 16.5 21.390625 20.328125 13.890625 
Q 24.171875 6.390625 31.78125 6.390625 
Q 39.453125 6.390625 43.28125 13.890625 
Q 47.125 21.390625 47.125 36.375 
Q 47.125 51.421875 43.28125 58.90625 
Q 39.453125 66.40625 31.78125 66.40625 
z
M 31.78125 74.21875 
Q 44.046875 74.21875 50.515625 64.515625 
Q 56.984375 54.828125 56.984375 36.375 
Q 56.984375 17.96875 50.515625 8.265625 
Q 44.046875 -1.421875 31.78125 -1.421875 
Q 19.53125 -1.421875 13.0625 8.265625 
Q 6.59375 17.96875 6.59375 36.375 
Q 6.59375 54.828125 13.0625 64.515625 
Q 19.53125 74.21875 31.78125 74.21875 
z
" id="DejaVuSans-30"/>
       <path d="M 10.6875 12.40625 
L 21 12.40625 
L 21 0 
L 10.6875 0 
z
" id="DejaVuSans-2e"/>
       <path d="M 8.203125 72.90625 
L 55.078125 72.90625 
L 55.078125 68.703125 
L 28.609375 0 
L 18.3125 0 
L 43.21875 64.59375 
L 8.203125 64.59375 
z
" id="DejaVuSans-37"/>
       <path d="M 10.796875 72.90625 
L 49.515625 72.90625 
L 49.515625 64.59375 
L 19.828125 64.59375 
L 19.828125 46.734375 
Q 21.96875 47.46875 24.109375 47.828125 
Q 26.265625 48.1875 28.421875 48.1875 
Q 40.625 48.1875 47.75 41.5 
Q 54.890625 34.8125 54.890625 23.390625 
Q 54.890625 11.625 47.5625 5.09375 
Q 40.234375 -1.421875 26.90625 -1.421875 
Q 22.3125 -1.421875 17.546875 -0.640625 
Q 12.796875 0.140625 7.71875 1.703125 
L 7.71875 11.625 
Q 12.109375 9.234375 16.796875 8.0625 
Q 21.484375 6.890625 26.703125 6.890625 
Q 35.15625 6.890625 40.078125 11.328125 
Q 45.015625 15.765625 45.015625 23.390625 
Q 45.015625 31 40.078125 35.4375 
Q 35.15625 39.890625 26.703125 39.890625 
Q 22.75 39.890625 18.8125 39.015625 
Q 14.890625 38.140625 10.796875 36.28125 
z
" id="DejaVuSans-35"/>
      </defs>
      <g transform="translate(7.2 343.493454)scale(0.22 -0.22)">
       <use xlink:href="#DejaVuSans-2212"/>
       <use x="83.789062" xlink:href="#DejaVuSans-30"/>
       <use x="147.412109" xlink:href="#DejaVuSans-2e"/>
       <use x="179.199219" xlink:href="#DejaVuSans-30"/>
       <use x="242.822266" xlink:href="#DejaVuSans-37"/>
       <use x="306.445312" xlink:href="#DejaVuSans-35"/>
      </g>
     </g>
    </g>
    <g id="ytick_2">
     <g id="line2d_2">
      <g>
       <use style="stroke:#000000;stroke-width:0.8;" x="95.617188" xlink:href="#m7fa0700f7b" y="289.771007"/>
      </g>
     </g>
     <g id="text_2">
      <!-- −0.050 -->
      <g transform="translate(7.2 298.129289)scale(0.22 -0.22)">
       <use xlink:href="#DejaVuSans-2212"/>
       <use x="83.789062" xlink:href="#DejaVuSans-30"/>
       <use x="147.412109" xlink:href="#DejaVuSans-2e"/>
       <use x="179.199219" xlink:href="#DejaVuSans-30"/>
       <use x="242.822266" xlink:href="#DejaVuSans-35"/>
       <use x="306.445312" xlink:href="#DejaVuSans-30"/>
      </g>
     </g>
    </g>
    <g id="ytick_3">
     <g id="line2d_3">
      <g>
       <use style="stroke:#000000;stroke-width:0.8;" x="95.617188" xlink:href="#m7fa0700f7b" y="244.406843"/>
      </g>
     </g>
     <g id="text_3">
      <!-- −0.025 -->
      <defs>
       <path d="M 19.1875 8.296875 
L 53.609375 8.296875 
L 53.609375 0 
L 7.328125 0 
L 7.328125 8.296875 
Q 12.9375 14.109375 22.625 23.890625 
Q 32.328125 33.6875 34.8125 36.53125 
Q 39.546875 41.84375 41.421875 45.53125 
Q 43.3125 49.21875 43.3125 52.78125 
Q 43.3125 58.59375 39.234375 62.25 
Q 35.15625 65.921875 28.609375 65.921875 
Q 23.96875 65.921875 18.8125 64.3125 
Q 13.671875 62.703125 7.8125 59.421875 
L 7.8125 69.390625 
Q 13.765625 71.78125 18.9375 73 
Q 24.125 74.21875 28.421875 74.21875 
Q 39.75 74.21875 46.484375 68.546875 
Q 53.21875 62.890625 53.21875 53.421875 
Q 53.21875 48.921875 51.53125 44.890625 
Q 49.859375 40.875 45.40625 35.40625 
Q 44.1875 33.984375 37.640625 27.21875 
Q 31.109375 20.453125 19.1875 8.296875 
z
" id="DejaVuSans-32"/>
      </defs>
      <g transform="translate(7.2 252.765124)scale(0.22 -0.22)">
       <use xlink:href="#DejaVuSans-2212"/>
       <use x="83.789062" xlink:href="#DejaVuSans-30"/>
       <use x="147.412109" xlink:href="#DejaVuSans-2e"/>
       <use x="179.199219" xlink:href="#DejaVuSans-30"/>
       <use x="242.822266" xlink:href="#DejaVuSans-32"/>
       <use x="306.445312" xlink:href="#DejaVuSans-35"/>
      </g>
     </g>
    </g>
    <g id="ytick_4">
     <g id="line2d_4">
      <g>
       <use style="stroke:#000000;stroke-width:0.8;" x="95.617188" xlink:href="#m7fa0700f7b" y="199.042678"/>
      </g>
     </g>
     <g id="text_4">
      <!-- 0.000 -->
      <g transform="translate(25.635312 207.400959)scale(0.22 -0.22)">
       <use xlink:href="#DejaVuSans-30"/>
       <use x="63.623047" xlink:href="#DejaVuSans-2e"/>
       <use x="95.410156" xlink:href="#DejaVuSans-30"/>
       <use x="159.033203" xlink:href="#DejaVuSans-30"/>
       <use x="222.65625" xlink:href="#DejaVuSans-30"/>
      </g>
     </g>
    </g>
    <g id="ytick_5">
     <g id="line2d_5">
      <g>
       <use style="stroke:#000000;stroke-width:0.8;" x="95.617188" xlink:href="#m7fa0700f7b" y="153.678513"/>
      </g>
     </g>
     <g id="text_5">
      <!-- 0.025 -->
      <g transform="translate(25.635312 162.036794)scale(0.22 -0.22)">
       <use xlink:href="#DejaVuSans-30"/>
       <use x="63.623047" xlink:href="#DejaVuSans-2e"/>
       <use x="95.410156" xlink:href="#DejaVuSans-30"/>
       <use x="159.033203" xlink:href="#DejaVuSans-32"/>
       <use x="222.65625" xlink:href="#DejaVuSans-35"/>
      </g>
     </g>
    </g>
    <g id="ytick_6">
     <g id="line2d_6">
      <g>
       <use style="stroke:#000000;stroke-width:0.8;" x="95.617188" xlink:href="#m7fa0700f7b" y="108.314348"/>
      </g>
     </g>
     <g id="text_6">
      <!-- 0.050 -->
      <g transform="translate(25.635312 116.672629)scale(0.22 -0.22)">
       <use xlink:href="#DejaVuSans-30"/>
       <use x="63.623047" xlink:href="#DejaVuSans-2e"/>
       <use x="95.410156" xlink:href="#DejaVuSans-30"/>
       <use x="159.033203" xlink:href="#DejaVuSans-35"/>
       <use x="222.65625" xlink:href="#DejaVuSans-30"/>
      </g>
     </g>
    </g>
    <g id="ytick_7">
     <g id="line2d_7">
      <g>
       <use style="stroke:#000000;stroke-width:0.8;" x="95.617188" xlink:href="#m7fa0700f7b" y="62.950183"/>
      </g>
     </g>
     <g id="text_7">
      <!-- 0.075 -->
      <g transform="translate(25.635312 71.308464)scale(0.22 -0.22)">
       <use xlink:href="#DejaVuSans-30"/>
       <use x="63.623047" xlink:href="#DejaVuSans-2e"/>
       <use x="95.410156" xlink:href="#DejaVuSans-30"/>
       <use x="159.033203" xlink:href="#DejaVuSans-37"/>
       <use x="222.65625" xlink:href="#DejaVuSans-35"/>
      </g>
     </g>
    </g>
    <g id="ytick_8">
     <g id="line2d_8">
      <g>
       <use style="stroke:#000000;stroke-width:0.8;" x="95.617188" xlink:href="#m7fa0700f7b" y="17.586018"/>
      </g>
     </g>
     <g id="text_8">
      <!-- 0.100 -->
      <defs>
       <path d="M 12.40625 8.296875 
L 28.515625 8.296875 
L 28.515625 63.921875 
L 10.984375 60.40625 
L 10.984375 69.390625 
L 28.421875 72.90625 
L 38.28125 72.90625 
L 38.28125 8.296875 
L 54.390625 8.296875 
L 54.390625 0 
L 12.40625 0 
z
" id="DejaVuSans-31"/>
      </defs>
      <g transform="translate(25.635312 25.9443)scale(0.22 -0.22)">
       <use xlink:href="#DejaVuSans-30"/>
       <use x="63.623047" xlink:href="#DejaVuSans-2e"/>
       <use x="95.410156" xlink:href="#DejaVuSans-31"/>
       <use x="159.033203" xlink:href="#DejaVuSans-30"/>
       <use x="222.65625" xlink:href="#DejaVuSans-30"/>
      </g>
     </g>
    </g>
   </g>
   <g id="patch_3">
    <path d="M 95.617188 343.34 
L 95.617188 10.7 
" style="fill:none;stroke:#000000;stroke-linecap:square;stroke-linejoin:miter;stroke-width:0.8;"/>
   </g>
   <g id="patch_4">
    <path d="M 430.417188 343.34 
L 430.417188 10.7 
" style="fill:none;stroke:#000000;stroke-linecap:square;stroke-linejoin:miter;stroke-width:0.8;"/>
   </g>
   <g id="patch_5">
    <path d="M 95.617188 343.34 
L 430.417188 343.34 
" style="fill:none;stroke:#000000;stroke-linecap:square;stroke-linejoin:miter;stroke-width:0.8;"/>
   </g>
   <g id="patch_6">
    <path d="M 95.617188 10.7 
L 430.417188 10.7 
" style="fill:none;stroke:#000000;stroke-linecap:square;stroke-linejoin:miter;stroke-width:0.8;"/>
   </g>
  </g>
 </g>
 <defs>
  <clipPath id="p76603ad5a9">
   <rect height="332.64" width="334.8" x="95.617188" y="10.7"/>
  </clipPath>
 </defs>
</svg>
