<?xml version="1.0" encoding="utf-8" standalone="no"?>
<!DOCTYPE svg PUBLIC "-//W3C//DTD SVG 1.1//EN"
  "http://www.w3.org/Graphics/SVG/1.1/DTD/svg11.dtd">
<!-- Created with matplotlib (http://matplotlib.org/) -->
<svg height="354pt" version="1.1" viewBox="0 0 427 354" width="427pt" xmlns="http://www.w3.org/2000/svg" xmlns:xlink="http://www.w3.org/1999/xlink">
 <defs>
  <style type="text/css">
*{stroke-linecap:butt;stroke-linejoin:round;}
  </style>
 </defs>
 <g id="figure_1">
  <g id="patch_1">
   <path d="M 0 354.04 
L 427.119687 354.04 
L 427.119687 0 
L 0 0 
z
" style="fill:#ffffff;"/>
  </g>
  <g id="axes_1">
   <g id="patch_2">
    <path d="M 81.619687 343.34 
L 416.419688 343.34 
L 416.419688 10.7 
L 81.619687 10.7 
z
" style="fill:#ffffff;"/>
   </g>
   <g id="PolyCollection_1">
    <defs>
     <path d="M 96.837869 -25.82 
L 96.837869 -173.779897 
L 100.14617 -173.779897 
L 103.45447 -173.779897 
L 106.762771 -173.779897 
L 110.071071 -173.779897 
L 113.379371 -173.779897 
L 116.687672 -173.779897 
L 119.995972 -173.779897 
L 123.304272 -173.779897 
L 126.612573 -173.779897 
L 129.920873 -173.779897 
L 133.229174 -173.779897 
L 136.537474 -173.779897 
L 139.845774 -173.779897 
L 143.154075 -173.779897 
L 146.462375 -173.779897 
L 149.770676 -173.779897 
L 153.078976 -173.779897 
L 156.387276 -173.779897 
L 159.695577 -173.779897 
L 163.003877 -173.779897 
L 166.312178 -173.779897 
L 169.620478 -173.779897 
L 172.928778 -173.779897 
L 176.237079 -173.779897 
L 179.545379 -173.779897 
L 182.85368 -173.779897 
L 186.16198 -173.779897 
L 189.47028 -173.779897 
L 192.778581 -173.779897 
L 196.086881 -173.779897 
L 199.395182 -173.779897 
L 202.703482 -173.779897 
L 206.011782 -173.779897 
L 209.320083 -173.779897 
L 212.628383 -173.779897 
L 215.936684 -173.779897 
L 219.244984 -173.779897 
L 222.553284 -173.779897 
L 225.861585 -173.779897 
L 229.169885 -173.779897 
L 232.478186 -173.779897 
L 235.786486 -173.779897 
L 239.094786 -173.779897 
L 242.403087 -173.779897 
L 245.711387 -173.779897 
L 249.019688 -173.779897 
L 252.327988 -173.779897 
L 255.636288 -173.779897 
L 258.944589 -173.779897 
L 262.252889 -173.779897 
L 265.561189 -173.779897 
L 268.86949 -173.779897 
L 272.17779 -173.779897 
L 275.486091 -173.779897 
L 278.794391 -173.779897 
L 282.102691 -173.779897 
L 285.410992 -173.779897 
L 288.719292 -173.779897 
L 292.027593 -173.779897 
L 295.335893 -173.779897 
L 298.644193 -173.779897 
L 301.952494 -173.779897 
L 305.260794 -173.779897 
L 308.569095 -173.779897 
L 311.877395 -173.779897 
L 315.185695 -173.779897 
L 318.493996 -173.779897 
L 321.802296 -173.779897 
L 325.110597 -173.779897 
L 328.418897 -173.779897 
L 331.727197 -173.779897 
L 335.035498 -173.779897 
L 338.343798 -173.779897 
L 341.652099 -173.779897 
L 344.960399 -173.779897 
L 348.268699 -173.779897 
L 351.577 -173.779897 
L 354.8853 -173.779897 
L 358.193601 -173.779897 
L 361.501901 -173.779897 
L 364.810201 -173.779897 
L 368.118502 -173.779897 
L 371.426802 -173.779897 
L 374.735103 -173.779897 
L 378.043403 -173.779897 
L 381.351703 -173.779897 
L 384.660004 -173.779897 
L 387.968304 -173.779897 
L 391.276604 -173.779897 
L 394.584905 -173.779897 
L 397.893205 -173.779897 
L 401.201506 -173.779897 
L 401.201506 -328.22 
L 401.201506 -328.22 
L 397.893205 -313.094078 
L 394.584905 -266.427796 
L 391.276604 -257.662037 
L 387.968304 -255.933298 
L 384.660004 -239.599634 
L 381.351703 -228.183582 
L 378.043403 -228.15926 
L 374.735103 -223.682931 
L 371.426802 -219.805656 
L 368.118502 -219.797867 
L 364.810201 -214.19227 
L 361.501901 -211.362737 
L 358.193601 -206.511988 
L 354.8853 -202.771877 
L 351.577 -199.103977 
L 348.268699 -191.997268 
L 344.960399 -190.703855 
L 341.652099 -186.862389 
L 338.343798 -186.393262 
L 335.035498 -181.129586 
L 331.727197 -180.43353 
L 328.418897 -180.00303 
L 325.110597 -179.940292 
L 321.802296 -179.667942 
L 318.493996 -179.666006 
L 315.185695 -178.329835 
L 311.877395 -177.824446 
L 308.569095 -177.505318 
L 305.260794 -176.998273 
L 301.952494 -176.850357 
L 298.644193 -176.406677 
L 295.335893 -176.3482 
L 292.027593 -176.321859 
L 288.719292 -176.214134 
L 285.410992 -176.177297 
L 282.102691 -175.880202 
L 278.794391 -175.799313 
L 275.486091 -175.546599 
L 272.17779 -175.516686 
L 268.86949 -175.427639 
L 265.561189 -175.097943 
L 262.252889 -174.93901 
L 258.944589 -174.88402 
L 255.636288 -174.793607 
L 252.327988 -174.639226 
L 249.019688 -174.193476 
L 245.711387 -174.022242 
L 242.403087 -174.011596 
L 239.094786 -173.881109 
L 235.786486 -173.77025 
L 232.478186 -173.570879 
L 229.169885 -173.521247 
L 225.861585 -173.519882 
L 222.553284 -173.511176 
L 219.244984 -173.480657 
L 215.936684 -173.471298 
L 212.628383 -173.346284 
L 209.320083 -173.338532 
L 206.011782 -173.310834 
L 202.703482 -173.136152 
L 199.395182 -172.997504 
L 196.086881 -172.793523 
L 192.778581 -172.746967 
L 189.47028 -172.679785 
L 186.16198 -172.646429 
L 182.85368 -171.885164 
L 179.545379 -171.773816 
L 176.237079 -171.628078 
L 172.928778 -171.603317 
L 169.620478 -171.407797 
L 166.312178 -170.635226 
L 163.003877 -170.597184 
L 159.695577 -169.949203 
L 156.387276 -169.810775 
L 153.078976 -169.057762 
L 149.770676 -168.95848 
L 146.462375 -168.797142 
L 143.154075 -168.724657 
L 139.845774 -166.805015 
L 136.537474 -166.761279 
L 133.229174 -164.531258 
L 129.920873 -164.326338 
L 126.612573 -163.296987 
L 123.304272 -161.735892 
L 119.995972 -159.395501 
L 116.687672 -155.661916 
L 113.379371 -146.159962 
L 110.071071 -142.620227 
L 106.762771 -99.264067 
L 103.45447 -81.053925 
L 100.14617 -75.936741 
L 96.837869 -25.82 
z
" id="ma851e7a624" style="stroke:#4a98c9;"/>
    </defs>
    <g clip-path="url(#pfd1f27e933)">
     <use style="fill:#4a98c9;stroke:#4a98c9;" x="0" xlink:href="#ma851e7a624" y="354.04"/>
    </g>
   </g>
   <g id="PolyCollection_2">
    <defs>
     <path d="M 96.837869 -168.440336 
L 96.837869 -173.779897 
L 100.14617 -173.779897 
L 103.45447 -173.779897 
L 106.762771 -173.779897 
L 110.071071 -173.779897 
L 113.379371 -173.779897 
L 116.687672 -173.779897 
L 119.995972 -173.779897 
L 123.304272 -173.779897 
L 126.612573 -173.779897 
L 129.920873 -173.779897 
L 133.229174 -173.779897 
L 136.537474 -173.779897 
L 139.845774 -173.779897 
L 143.154075 -173.779897 
L 146.462375 -173.779897 
L 149.770676 -173.779897 
L 153.078976 -173.779897 
L 156.387276 -173.779897 
L 159.695577 -173.779897 
L 163.003877 -173.779897 
L 166.312178 -173.779897 
L 169.620478 -173.779897 
L 172.928778 -173.779897 
L 176.237079 -173.779897 
L 179.545379 -173.779897 
L 182.85368 -173.779897 
L 186.16198 -173.779897 
L 189.47028 -173.779897 
L 192.778581 -173.779897 
L 196.086881 -173.779897 
L 199.395182 -173.779897 
L 202.703482 -173.779897 
L 206.011782 -173.779897 
L 209.320083 -173.779897 
L 212.628383 -173.779897 
L 215.936684 -173.779897 
L 219.244984 -173.779897 
L 222.553284 -173.779897 
L 225.861585 -173.779897 
L 229.169885 -173.779897 
L 232.478186 -173.779897 
L 235.786486 -173.779897 
L 239.094786 -173.779897 
L 242.403087 -173.779897 
L 245.711387 -173.779897 
L 249.019688 -173.779897 
L 252.327988 -173.779897 
L 255.636288 -173.779897 
L 258.944589 -173.779897 
L 262.252889 -173.779897 
L 265.561189 -173.779897 
L 268.86949 -173.779897 
L 272.17779 -173.779897 
L 275.486091 -173.779897 
L 278.794391 -173.779897 
L 282.102691 -173.779897 
L 285.410992 -173.779897 
L 288.719292 -173.779897 
L 292.027593 -173.779897 
L 295.335893 -173.779897 
L 298.644193 -173.779897 
L 301.952494 -173.779897 
L 305.260794 -173.779897 
L 308.569095 -173.779897 
L 311.877395 -173.779897 
L 315.185695 -173.779897 
L 318.493996 -173.779897 
L 321.802296 -173.779897 
L 325.110597 -173.779897 
L 328.418897 -173.779897 
L 331.727197 -173.779897 
L 335.035498 -173.779897 
L 338.343798 -173.779897 
L 341.652099 -173.779897 
L 344.960399 -173.779897 
L 348.268699 -173.779897 
L 351.577 -173.779897 
L 354.8853 -173.779897 
L 358.193601 -173.779897 
L 361.501901 -173.779897 
L 364.810201 -173.779897 
L 368.118502 -173.779897 
L 371.426802 -173.779897 
L 374.735103 -173.779897 
L 378.043403 -173.779897 
L 381.351703 -173.779897 
L 384.660004 -173.779897 
L 387.968304 -173.779897 
L 391.276604 -173.779897 
L 394.584905 -173.779897 
L 397.893205 -173.779897 
L 401.201506 -173.779897 
L 401.201506 -181.882707 
L 401.201506 -181.882707 
L 397.893205 -181.389091 
L 394.584905 -179.508832 
L 391.276604 -179.0908 
L 387.968304 -178.518202 
L 384.660004 -178.227901 
L 381.351703 -177.9717 
L 378.043403 -177.532894 
L 374.735103 -177.504891 
L 371.426802 -177.197977 
L 368.118502 -177.12123 
L 364.810201 -177.001014 
L 361.501901 -176.999295 
L 358.193601 -176.981086 
L 354.8853 -176.872076 
L 351.577 -176.813266 
L 348.268699 -176.808663 
L 344.960399 -176.633015 
L 341.652099 -176.574138 
L 338.343798 -176.563433 
L 335.035498 -176.55792 
L 331.727197 -176.390014 
L 328.418897 -175.727591 
L 325.110597 -175.686667 
L 321.802296 -175.483767 
L 318.493996 -175.41393 
L 315.185695 -175.373226 
L 311.877395 -175.220474 
L 308.569095 -175.21353 
L 305.260794 -175.006189 
L 301.952494 -175.001521 
L 298.644193 -174.929398 
L 295.335893 -174.799128 
L 292.027593 -174.709751 
L 288.719292 -174.700159 
L 285.410992 -174.616321 
L 282.102691 -174.604487 
L 278.794391 -174.560291 
L 275.486091 -174.507144 
L 272.17779 -174.492544 
L 268.86949 -174.421488 
L 265.561189 -174.392746 
L 262.252889 -174.324435 
L 258.944589 -174.311585 
L 255.636288 -174.271093 
L 252.327988 -174.255108 
L 249.019688 -174.24752 
L 245.711387 -174.178813 
L 242.403087 -174.136005 
L 239.094786 -174.098105 
L 235.786486 -174.079179 
L 232.478186 -174.075612 
L 229.169885 -173.927962 
L 225.861585 -173.912702 
L 222.553284 -173.842634 
L 219.244984 -173.810796 
L 215.936684 -173.806337 
L 212.628383 -173.692912 
L 209.320083 -173.404937 
L 206.011782 -173.357549 
L 202.703482 -173.333427 
L 199.395182 -173.29889 
L 196.086881 -173.286405 
L 192.778581 -173.244257 
L 189.47028 -173.204661 
L 186.16198 -173.157892 
L 182.85368 -173.125495 
L 179.545379 -173.103888 
L 176.237079 -173.100673 
L 172.928778 -173.081395 
L 169.620478 -173.049753 
L 166.312178 -172.982574 
L 163.003877 -172.950429 
L 159.695577 -172.538624 
L 156.387276 -172.537723 
L 153.078976 -172.432134 
L 149.770676 -172.272867 
L 146.462375 -172.266838 
L 143.154075 -172.26537 
L 139.845774 -172.187669 
L 136.537474 -172.108343 
L 133.229174 -172.077761 
L 129.920873 -171.999038 
L 126.612573 -171.963726 
L 123.304272 -171.771678 
L 119.995972 -171.494594 
L 116.687672 -171.434307 
L 113.379371 -171.388439 
L 110.071071 -171.381777 
L 106.762771 -171.195954 
L 103.45447 -170.975352 
L 100.14617 -170.058749 
L 96.837869 -168.440336 
z
" id="mae55f1a4e0" style="stroke:#f14432;stroke-opacity:0.8;"/>
    </defs>
    <g clip-path="url(#pfd1f27e933)">
     <use style="fill:#f14432;fill-opacity:0.8;stroke:#f14432;stroke-opacity:0.8;" x="0" xlink:href="#mae55f1a4e0" y="354.04"/>
    </g>
   </g>
   <g id="matplotlib.axis_1"/>
   <g id="matplotlib.axis_2">
    <g id="ytick_1">
     <g id="line2d_1">
      <defs>
       <path d="M 0 0 
L -3.5 0 
" id="m0498be0062" style="stroke:#000000;stroke-width:0.8;"/>
      </defs>
      <g>
       <use style="stroke:#000000;stroke-width:0.8;" x="81.619687" xlink:href="#m0498be0062" y="324.264187"/>
      </g>
     </g>
     <g id="text_1">
      <!-- −0.15 -->
      <defs>
       <path d="M 10.59375 35.5 
L 73.1875 35.5 
L 73.1875 27.203125 
L 10.59375 27.203125 
z
" id="DejaVuSans-2212"/>
       <path d="M 31.78125 66.40625 
Q 24.171875 66.40625 20.328125 58.90625 
Q 16.5 51.421875 16.5 36.375 
Q 16.5 21.390625 20.328125 13.890625 
Q 24.171875 6.390625 31.78125 6.390625 
Q 39.453125 6.390625 43.28125 13.890625 
Q 47.125 21.390625 47.125 36.375 
Q 47.125 51.421875 43.28125 58.90625 
Q 39.453125 66.40625 31.78125 66.40625 
z
M 31.78125 74.21875 
Q 44.046875 74.21875 50.515625 64.515625 
Q 56.984375 54.828125 56.984375 36.375 
Q 56.984375 17.96875 50.515625 8.265625 
Q 44.046875 -1.421875 31.78125 -1.421875 
Q 19.53125 -1.421875 13.0625 8.265625 
Q 6.59375 17.96875 6.59375 36.375 
Q 6.59375 54.828125 13.0625 64.515625 
Q 19.53125 74.21875 31.78125 74.21875 
z
" id="DejaVuSans-30"/>
       <path d="M 10.6875 12.40625 
L 21 12.40625 
L 21 0 
L 10.6875 0 
z
" id="DejaVuSans-2e"/>
       <path d="M 12.40625 8.296875 
L 28.515625 8.296875 
L 28.515625 63.921875 
L 10.984375 60.40625 
L 10.984375 69.390625 
L 28.421875 72.90625 
L 38.28125 72.90625 
L 38.28125 8.296875 
L 54.390625 8.296875 
L 54.390625 0 
L 12.40625 0 
z
" id="DejaVuSans-31"/>
       <path d="M 10.796875 72.90625 
L 49.515625 72.90625 
L 49.515625 64.59375 
L 19.828125 64.59375 
L 19.828125 46.734375 
Q 21.96875 47.46875 24.109375 47.828125 
Q 26.265625 48.1875 28.421875 48.1875 
Q 40.625 48.1875 47.75 41.5 
Q 54.890625 34.8125 54.890625 23.390625 
Q 54.890625 11.625 47.5625 5.09375 
Q 40.234375 -1.421875 26.90625 -1.421875 
Q 22.3125 -1.421875 17.546875 -0.640625 
Q 12.796875 0.140625 7.71875 1.703125 
L 7.71875 11.625 
Q 12.109375 9.234375 16.796875 8.0625 
Q 21.484375 6.890625 26.703125 6.890625 
Q 35.15625 6.890625 40.078125 11.328125 
Q 45.015625 15.765625 45.015625 23.390625 
Q 45.015625 31 40.078125 35.4375 
Q 35.15625 39.890625 26.703125 39.890625 
Q 22.75 39.890625 18.8125 39.015625 
Q 14.890625 38.140625 10.796875 36.28125 
z
" id="DejaVuSans-35"/>
      </defs>
      <g transform="translate(7.2 332.622469)scale(0.22 -0.22)">
       <use xlink:href="#DejaVuSans-2212"/>
       <use x="83.789062" xlink:href="#DejaVuSans-30"/>
       <use x="147.412109" xlink:href="#DejaVuSans-2e"/>
       <use x="179.199219" xlink:href="#DejaVuSans-31"/>
       <use x="242.822266" xlink:href="#DejaVuSans-35"/>
      </g>
     </g>
    </g>
    <g id="ytick_2">
     <g id="line2d_2">
      <g>
       <use style="stroke:#000000;stroke-width:0.8;" x="81.619687" xlink:href="#m0498be0062" y="276.262826"/>
      </g>
     </g>
     <g id="text_2">
      <!-- −0.10 -->
      <g transform="translate(7.2 284.621107)scale(0.22 -0.22)">
       <use xlink:href="#DejaVuSans-2212"/>
       <use x="83.789062" xlink:href="#DejaVuSans-30"/>
       <use x="147.412109" xlink:href="#DejaVuSans-2e"/>
       <use x="179.199219" xlink:href="#DejaVuSans-31"/>
       <use x="242.822266" xlink:href="#DejaVuSans-30"/>
      </g>
     </g>
    </g>
    <g id="ytick_3">
     <g id="line2d_3">
      <g>
       <use style="stroke:#000000;stroke-width:0.8;" x="81.619687" xlink:href="#m0498be0062" y="228.261464"/>
      </g>
     </g>
     <g id="text_3">
      <!-- −0.05 -->
      <g transform="translate(7.2 236.619746)scale(0.22 -0.22)">
       <use xlink:href="#DejaVuSans-2212"/>
       <use x="83.789062" xlink:href="#DejaVuSans-30"/>
       <use x="147.412109" xlink:href="#DejaVuSans-2e"/>
       <use x="179.199219" xlink:href="#DejaVuSans-30"/>
       <use x="242.822266" xlink:href="#DejaVuSans-35"/>
      </g>
     </g>
    </g>
    <g id="ytick_4">
     <g id="line2d_4">
      <g>
       <use style="stroke:#000000;stroke-width:0.8;" x="81.619687" xlink:href="#m0498be0062" y="180.260103"/>
      </g>
     </g>
     <g id="text_4">
      <!-- 0.00 -->
      <g transform="translate(25.635312 188.618384)scale(0.22 -0.22)">
       <use xlink:href="#DejaVuSans-30"/>
       <use x="63.623047" xlink:href="#DejaVuSans-2e"/>
       <use x="95.410156" xlink:href="#DejaVuSans-30"/>
       <use x="159.033203" xlink:href="#DejaVuSans-30"/>
      </g>
     </g>
    </g>
    <g id="ytick_5">
     <g id="line2d_5">
      <g>
       <use style="stroke:#000000;stroke-width:0.8;" x="81.619687" xlink:href="#m0498be0062" y="132.258741"/>
      </g>
     </g>
     <g id="text_5">
      <!-- 0.05 -->
      <g transform="translate(25.635312 140.617022)scale(0.22 -0.22)">
       <use xlink:href="#DejaVuSans-30"/>
       <use x="63.623047" xlink:href="#DejaVuSans-2e"/>
       <use x="95.410156" xlink:href="#DejaVuSans-30"/>
       <use x="159.033203" xlink:href="#DejaVuSans-35"/>
      </g>
     </g>
    </g>
    <g id="ytick_6">
     <g id="line2d_6">
      <g>
       <use style="stroke:#000000;stroke-width:0.8;" x="81.619687" xlink:href="#m0498be0062" y="84.25738"/>
      </g>
     </g>
     <g id="text_6">
      <!-- 0.10 -->
      <g transform="translate(25.635312 92.615661)scale(0.22 -0.22)">
       <use xlink:href="#DejaVuSans-30"/>
       <use x="63.623047" xlink:href="#DejaVuSans-2e"/>
       <use x="95.410156" xlink:href="#DejaVuSans-31"/>
       <use x="159.033203" xlink:href="#DejaVuSans-30"/>
      </g>
     </g>
    </g>
    <g id="ytick_7">
     <g id="line2d_7">
      <g>
       <use style="stroke:#000000;stroke-width:0.8;" x="81.619687" xlink:href="#m0498be0062" y="36.256018"/>
      </g>
     </g>
     <g id="text_7">
      <!-- 0.15 -->
      <g transform="translate(25.635312 44.614299)scale(0.22 -0.22)">
       <use xlink:href="#DejaVuSans-30"/>
       <use x="63.623047" xlink:href="#DejaVuSans-2e"/>
       <use x="95.410156" xlink:href="#DejaVuSans-31"/>
       <use x="159.033203" xlink:href="#DejaVuSans-35"/>
      </g>
     </g>
    </g>
   </g>
   <g id="patch_3">
    <path d="M 81.619687 343.34 
L 81.619687 10.7 
" style="fill:none;stroke:#000000;stroke-linecap:square;stroke-linejoin:miter;stroke-width:0.8;"/>
   </g>
   <g id="patch_4">
    <path d="M 416.419688 343.34 
L 416.419688 10.7 
" style="fill:none;stroke:#000000;stroke-linecap:square;stroke-linejoin:miter;stroke-width:0.8;"/>
   </g>
   <g id="patch_5">
    <path d="M 81.619687 343.34 
L 416.419688 343.34 
" style="fill:none;stroke:#000000;stroke-linecap:square;stroke-linejoin:miter;stroke-width:0.8;"/>
   </g>
   <g id="patch_6">
    <path d="M 81.619687 10.7 
L 416.419688 10.7 
" style="fill:none;stroke:#000000;stroke-linecap:square;stroke-linejoin:miter;stroke-width:0.8;"/>
   </g>
  </g>
 </g>
 <defs>
  <clipPath id="pfd1f27e933">
   <rect height="332.64" width="334.8" x="81.619687" y="10.7"/>
  </clipPath>
 </defs>
</svg>
