<?xml version="1.0" encoding="utf-8" standalone="no"?>
<!DOCTYPE svg PUBLIC "-//W3C//DTD SVG 1.1//EN"
  "http://www.w3.org/Graphics/SVG/1.1/DTD/svg11.dtd">
<!-- Created with matplotlib (http://matplotlib.org/) -->
<svg height="359pt" version="1.1" viewBox="0 0 455 359" width="455pt" xmlns="http://www.w3.org/2000/svg" xmlns:xlink="http://www.w3.org/1999/xlink">
 <defs>
  <style type="text/css">
*{stroke-linecap:butt;stroke-linejoin:round;}
  </style>
 </defs>
 <g id="figure_1">
  <g id="patch_1">
   <path d="M 0 359.555367 
L 455.114687 359.555367 
L 455.114687 0 
L 0 0 
z
" style="fill:#ffffff;"/>
  </g>
  <g id="axes_1">
   <g id="patch_2">
    <path d="M 109.614687 343.34 
L 444.414688 343.34 
L 444.414688 10.7 
L 109.614687 10.7 
z
" style="fill:#ffffff;"/>
   </g>
   <g id="PolyCollection_1">
    <defs>
     <path d="M 124.832869 -51.783174 
L 124.832869 -127.744271 
L 128.14117 -127.744271 
L 131.44947 -127.744271 
L 134.757771 -127.744271 
L 138.066071 -127.744271 
L 141.374371 -127.744271 
L 144.682672 -127.744271 
L 147.990972 -127.744271 
L 151.299272 -127.744271 
L 154.607573 -127.744271 
L 157.915873 -127.744271 
L 161.224174 -127.744271 
L 164.532474 -127.744271 
L 167.840774 -127.744271 
L 171.149075 -127.744271 
L 174.457375 -127.744271 
L 177.765676 -127.744271 
L 181.073976 -127.744271 
L 184.382276 -127.744271 
L 187.690577 -127.744271 
L 190.998877 -127.744271 
L 194.307178 -127.744271 
L 197.615478 -127.744271 
L 200.923778 -127.744271 
L 204.232079 -127.744271 
L 207.540379 -127.744271 
L 210.84868 -127.744271 
L 214.15698 -127.744271 
L 217.46528 -127.744271 
L 220.773581 -127.744271 
L 224.081881 -127.744271 
L 227.390182 -127.744271 
L 230.698482 -127.744271 
L 234.006782 -127.744271 
L 237.315083 -127.744271 
L 240.623383 -127.744271 
L 243.931684 -127.744271 
L 247.239984 -127.744271 
L 250.548284 -127.744271 
L 253.856585 -127.744271 
L 257.164885 -127.744271 
L 260.473186 -127.744271 
L 263.781486 -127.744271 
L 267.089786 -127.744271 
L 270.398087 -127.744271 
L 273.706387 -127.744271 
L 277.014688 -127.744271 
L 280.322988 -127.744271 
L 283.631288 -127.744271 
L 286.939589 -127.744271 
L 290.247889 -127.744271 
L 293.556189 -127.744271 
L 296.86449 -127.744271 
L 300.17279 -127.744271 
L 303.481091 -127.744271 
L 306.789391 -127.744271 
L 310.097691 -127.744271 
L 313.405992 -127.744271 
L 316.714292 -127.744271 
L 320.022593 -127.744271 
L 323.330893 -127.744271 
L 326.639193 -127.744271 
L 329.947494 -127.744271 
L 333.255794 -127.744271 
L 336.564095 -127.744271 
L 339.872395 -127.744271 
L 343.180695 -127.744271 
L 346.488996 -127.744271 
L 349.797296 -127.744271 
L 353.105597 -127.744271 
L 356.413897 -127.744271 
L 359.722197 -127.744271 
L 363.030498 -127.744271 
L 366.338798 -127.744271 
L 369.647099 -127.744271 
L 372.955399 -127.744271 
L 376.263699 -127.744271 
L 379.572 -127.744271 
L 382.8803 -127.744271 
L 386.188601 -127.744271 
L 389.496901 -127.744271 
L 392.805201 -127.744271 
L 396.113502 -127.744271 
L 399.421802 -127.744271 
L 402.730103 -127.744271 
L 406.038403 -127.744271 
L 409.346703 -127.744271 
L 412.655004 -127.744271 
L 415.963304 -127.744271 
L 419.271604 -127.744271 
L 422.579905 -127.744271 
L 425.888205 -127.744271 
L 429.196506 -127.744271 
L 429.196506 -315.828764 
L 429.196506 -315.828764 
L 425.888205 -305.84733 
L 422.579905 -299.113666 
L 419.271604 -295.794576 
L 415.963304 -270.070075 
L 412.655004 -251.269624 
L 409.346703 -242.074849 
L 406.038403 -239.293 
L 402.730103 -237.457054 
L 399.421802 -223.57228 
L 396.113502 -219.348313 
L 392.805201 -208.641714 
L 389.496901 -206.326815 
L 386.188601 -204.388759 
L 382.8803 -191.926334 
L 379.572 -189.718484 
L 376.263699 -187.865698 
L 372.955399 -185.935669 
L 369.647099 -183.385853 
L 366.338798 -182.864667 
L 363.030498 -179.122419 
L 359.722197 -176.773801 
L 356.413897 -176.045264 
L 353.105597 -175.934182 
L 349.797296 -175.733656 
L 346.488996 -174.372525 
L 343.180695 -174.046859 
L 339.872395 -171.654083 
L 336.564095 -171.643607 
L 333.255794 -169.53521 
L 329.947494 -165.130471 
L 326.639193 -164.584041 
L 323.330893 -163.56608 
L 320.022593 -158.403507 
L 316.714292 -158.261936 
L 313.405992 -155.265642 
L 310.097691 -155.254423 
L 306.789391 -155.191035 
L 303.481091 -153.450649 
L 300.17279 -152.288081 
L 296.86449 -149.933913 
L 293.556189 -148.880015 
L 290.247889 -148.79896 
L 286.939589 -145.077416 
L 283.631288 -144.545344 
L 280.322988 -144.096692 
L 277.014688 -143.413756 
L 273.706387 -142.44017 
L 270.398087 -141.862536 
L 267.089786 -141.291508 
L 263.781486 -139.712276 
L 260.473186 -139.566189 
L 257.164885 -139.180735 
L 253.856585 -138.156978 
L 250.548284 -136.788086 
L 247.239984 -136.038659 
L 243.931684 -135.105955 
L 240.623383 -132.883588 
L 237.315083 -132.471486 
L 234.006782 -132.359486 
L 230.698482 -127.776125 
L 227.390182 -127.209331 
L 224.081881 -125.69515 
L 220.773581 -125.067679 
L 217.46528 -124.815818 
L 214.15698 -124.535887 
L 210.84868 -123.671066 
L 207.540379 -121.114943 
L 204.232079 -120.755039 
L 200.923778 -120.453068 
L 197.615478 -119.201068 
L 194.307178 -118.397378 
L 190.998877 -118.150366 
L 187.690577 -117.18847 
L 184.382276 -115.433146 
L 181.073976 -114.333853 
L 177.765676 -113.335407 
L 174.457375 -110.541826 
L 171.149075 -110.173369 
L 167.840774 -109.772097 
L 164.532474 -108.955666 
L 161.224174 -108.739253 
L 157.915873 -108.629752 
L 154.607573 -108.245929 
L 151.299272 -103.43192 
L 147.990972 -88.563683 
L 144.682672 -87.801369 
L 141.374371 -84.184828 
L 138.066071 -82.668568 
L 134.757771 -82.247543 
L 131.44947 -73.085051 
L 128.14117 -52.152693 
L 124.832869 -51.783174 
z
" id="m6ad38553a8" style="stroke:#4a98c9;"/>
    </defs>
    <g clip-path="url(#p6684416d1a)">
     <use style="fill:#4a98c9;stroke:#4a98c9;" x="0" xlink:href="#m6ad38553a8" y="359.555367"/>
    </g>
   </g>
   <g id="PolyCollection_2">
    <defs>
     <path d="M 124.832869 -31.335367 
L 124.832869 -127.744271 
L 128.14117 -127.744271 
L 131.44947 -127.744271 
L 134.757771 -127.744271 
L 138.066071 -127.744271 
L 141.374371 -127.744271 
L 144.682672 -127.744271 
L 147.990972 -127.744271 
L 151.299272 -127.744271 
L 154.607573 -127.744271 
L 157.915873 -127.744271 
L 161.224174 -127.744271 
L 164.532474 -127.744271 
L 167.840774 -127.744271 
L 171.149075 -127.744271 
L 174.457375 -127.744271 
L 177.765676 -127.744271 
L 181.073976 -127.744271 
L 184.382276 -127.744271 
L 187.690577 -127.744271 
L 190.998877 -127.744271 
L 194.307178 -127.744271 
L 197.615478 -127.744271 
L 200.923778 -127.744271 
L 204.232079 -127.744271 
L 207.540379 -127.744271 
L 210.84868 -127.744271 
L 214.15698 -127.744271 
L 217.46528 -127.744271 
L 220.773581 -127.744271 
L 224.081881 -127.744271 
L 227.390182 -127.744271 
L 230.698482 -127.744271 
L 234.006782 -127.744271 
L 237.315083 -127.744271 
L 240.623383 -127.744271 
L 243.931684 -127.744271 
L 247.239984 -127.744271 
L 250.548284 -127.744271 
L 253.856585 -127.744271 
L 257.164885 -127.744271 
L 260.473186 -127.744271 
L 263.781486 -127.744271 
L 267.089786 -127.744271 
L 270.398087 -127.744271 
L 273.706387 -127.744271 
L 277.014688 -127.744271 
L 280.322988 -127.744271 
L 283.631288 -127.744271 
L 286.939589 -127.744271 
L 290.247889 -127.744271 
L 293.556189 -127.744271 
L 296.86449 -127.744271 
L 300.17279 -127.744271 
L 303.481091 -127.744271 
L 306.789391 -127.744271 
L 310.097691 -127.744271 
L 313.405992 -127.744271 
L 316.714292 -127.744271 
L 320.022593 -127.744271 
L 323.330893 -127.744271 
L 326.639193 -127.744271 
L 329.947494 -127.744271 
L 333.255794 -127.744271 
L 336.564095 -127.744271 
L 339.872395 -127.744271 
L 343.180695 -127.744271 
L 346.488996 -127.744271 
L 349.797296 -127.744271 
L 353.105597 -127.744271 
L 356.413897 -127.744271 
L 359.722197 -127.744271 
L 363.030498 -127.744271 
L 366.338798 -127.744271 
L 369.647099 -127.744271 
L 372.955399 -127.744271 
L 376.263699 -127.744271 
L 379.572 -127.744271 
L 382.8803 -127.744271 
L 386.188601 -127.744271 
L 389.496901 -127.744271 
L 392.805201 -127.744271 
L 396.113502 -127.744271 
L 399.421802 -127.744271 
L 402.730103 -127.744271 
L 406.038403 -127.744271 
L 409.346703 -127.744271 
L 412.655004 -127.744271 
L 415.963304 -127.744271 
L 419.271604 -127.744271 
L 422.579905 -127.744271 
L 425.888205 -127.744271 
L 429.196506 -127.744271 
L 429.196506 -333.735367 
L 429.196506 -333.735367 
L 425.888205 -242.585389 
L 422.579905 -238.382146 
L 419.271604 -227.79539 
L 415.963304 -223.559763 
L 412.655004 -223.413884 
L 409.346703 -221.76591 
L 406.038403 -208.949952 
L 402.730103 -204.874042 
L 399.421802 -202.172661 
L 396.113502 -201.399261 
L 392.805201 -199.094963 
L 389.496901 -192.226016 
L 386.188601 -191.434576 
L 382.8803 -189.70922 
L 379.572 -183.558315 
L 376.263699 -182.484117 
L 372.955399 -179.492676 
L 369.647099 -179.271267 
L 366.338798 -175.940901 
L 363.030498 -175.312093 
L 359.722197 -163.848862 
L 356.413897 -163.669445 
L 353.105597 -162.426681 
L 349.797296 -160.875968 
L 346.488996 -157.457009 
L 343.180695 -157.30254 
L 339.872395 -153.91423 
L 336.564095 -153.658526 
L 333.255794 -153.591473 
L 329.947494 -152.765934 
L 326.639193 -151.361962 
L 323.330893 -149.618822 
L 320.022593 -148.081525 
L 316.714292 -147.031581 
L 313.405992 -146.033684 
L 310.097691 -145.078783 
L 306.789391 -140.450128 
L 303.481091 -140.449121 
L 300.17279 -138.314058 
L 296.86449 -137.319829 
L 293.556189 -137.037512 
L 290.247889 -136.266903 
L 286.939589 -135.334959 
L 283.631288 -133.929144 
L 280.322988 -132.510921 
L 277.014688 -131.989727 
L 273.706387 -131.553251 
L 270.398087 -130.612253 
L 267.089786 -129.740944 
L 263.781486 -129.690253 
L 260.473186 -129.644325 
L 257.164885 -129.597749 
L 253.856585 -128.817753 
L 250.548284 -127.503229 
L 247.239984 -127.489633 
L 243.931684 -127.15756 
L 240.623383 -127.087375 
L 237.315083 -126.163303 
L 234.006782 -125.828583 
L 230.698482 -123.183291 
L 227.390182 -117.856126 
L 224.081881 -117.697148 
L 220.773581 -116.667172 
L 217.46528 -116.004522 
L 214.15698 -112.051348 
L 210.84868 -111.297715 
L 207.540379 -108.225586 
L 204.232079 -107.113825 
L 200.923778 -105.660246 
L 197.615478 -105.00686 
L 194.307178 -104.988081 
L 190.998877 -104.086449 
L 187.690577 -103.87614 
L 184.382276 -103.007014 
L 181.073976 -102.140493 
L 177.765676 -95.590774 
L 174.457375 -93.852328 
L 171.149075 -89.303076 
L 167.840774 -89.194693 
L 164.532474 -88.839314 
L 161.224174 -84.883876 
L 157.915873 -82.036918 
L 154.607573 -75.668022 
L 151.299272 -69.944049 
L 147.990972 -69.049401 
L 144.682672 -59.310258 
L 141.374371 -52.200028 
L 138.066071 -51.407634 
L 134.757771 -47.208545 
L 131.44947 -40.375038 
L 128.14117 -38.700921 
L 124.832869 -31.335367 
z
" id="mc0b13a1e45" style="stroke:#f14432;stroke-opacity:0.8;"/>
    </defs>
    <g clip-path="url(#p6684416d1a)">
     <use style="fill:#f14432;fill-opacity:0.8;stroke:#f14432;stroke-opacity:0.8;" x="0" xlink:href="#mc0b13a1e45" y="359.555367"/>
    </g>
   </g>
   <g id="matplotlib.axis_1"/>
   <g id="matplotlib.axis_2">
    <g id="ytick_1">
     <g id="line2d_1">
      <defs>
       <path d="M 0 0 
L -3.5 0 
" id="m7e96c6c378" style="stroke:#000000;stroke-width:0.8;"/>
      </defs>
      <g>
       <use style="stroke:#000000;stroke-width:0.8;" x="109.614687" xlink:href="#m7e96c6c378" y="339.421773"/>
      </g>
     </g>
     <g id="text_1">
      <!-- −0.0010 -->
      <defs>
       <path d="M 10.59375 35.5 
L 73.1875 35.5 
L 73.1875 27.203125 
L 10.59375 27.203125 
z
" id="DejaVuSans-2212"/>
       <path d="M 31.78125 66.40625 
Q 24.171875 66.40625 20.328125 58.90625 
Q 16.5 51.421875 16.5 36.375 
Q 16.5 21.390625 20.328125 13.890625 
Q 24.171875 6.390625 31.78125 6.390625 
Q 39.453125 6.390625 43.28125 13.890625 
Q 47.125 21.390625 47.125 36.375 
Q 47.125 51.421875 43.28125 58.90625 
Q 39.453125 66.40625 31.78125 66.40625 
z
M 31.78125 74.21875 
Q 44.046875 74.21875 50.515625 64.515625 
Q 56.984375 54.828125 56.984375 36.375 
Q 56.984375 17.96875 50.515625 8.265625 
Q 44.046875 -1.421875 31.78125 -1.421875 
Q 19.53125 -1.421875 13.0625 8.265625 
Q 6.59375 17.96875 6.59375 36.375 
Q 6.59375 54.828125 13.0625 64.515625 
Q 19.53125 74.21875 31.78125 74.21875 
z
" id="DejaVuSans-30"/>
       <path d="M 10.6875 12.40625 
L 21 12.40625 
L 21 0 
L 10.6875 0 
z
" id="DejaVuSans-2e"/>
       <path d="M 12.40625 8.296875 
L 28.515625 8.296875 
L 28.515625 63.921875 
L 10.984375 60.40625 
L 10.984375 69.390625 
L 28.421875 72.90625 
L 38.28125 72.90625 
L 38.28125 8.296875 
L 54.390625 8.296875 
L 54.390625 0 
L 12.40625 0 
z
" id="DejaVuSans-31"/>
      </defs>
      <g transform="translate(7.2 347.780054)scale(0.22 -0.22)">
       <use xlink:href="#DejaVuSans-2212"/>
       <use x="83.789062" xlink:href="#DejaVuSans-30"/>
       <use x="147.412109" xlink:href="#DejaVuSans-2e"/>
       <use x="179.199219" xlink:href="#DejaVuSans-30"/>
       <use x="242.822266" xlink:href="#DejaVuSans-30"/>
       <use x="306.445312" xlink:href="#DejaVuSans-31"/>
       <use x="370.068359" xlink:href="#DejaVuSans-30"/>
      </g>
     </g>
    </g>
    <g id="ytick_2">
     <g id="line2d_2">
      <g>
       <use style="stroke:#000000;stroke-width:0.8;" x="109.614687" xlink:href="#m7e96c6c378" y="285.616434"/>
      </g>
     </g>
     <g id="text_2">
      <!-- −0.0005 -->
      <defs>
       <path d="M 10.796875 72.90625 
L 49.515625 72.90625 
L 49.515625 64.59375 
L 19.828125 64.59375 
L 19.828125 46.734375 
Q 21.96875 47.46875 24.109375 47.828125 
Q 26.265625 48.1875 28.421875 48.1875 
Q 40.625 48.1875 47.75 41.5 
Q 54.890625 34.8125 54.890625 23.390625 
Q 54.890625 11.625 47.5625 5.09375 
Q 40.234375 -1.421875 26.90625 -1.421875 
Q 22.3125 -1.421875 17.546875 -0.640625 
Q 12.796875 0.140625 7.71875 1.703125 
L 7.71875 11.625 
Q 12.109375 9.234375 16.796875 8.0625 
Q 21.484375 6.890625 26.703125 6.890625 
Q 35.15625 6.890625 40.078125 11.328125 
Q 45.015625 15.765625 45.015625 23.390625 
Q 45.015625 31 40.078125 35.4375 
Q 35.15625 39.890625 26.703125 39.890625 
Q 22.75 39.890625 18.8125 39.015625 
Q 14.890625 38.140625 10.796875 36.28125 
z
" id="DejaVuSans-35"/>
      </defs>
      <g transform="translate(7.2 293.974715)scale(0.22 -0.22)">
       <use xlink:href="#DejaVuSans-2212"/>
       <use x="83.789062" xlink:href="#DejaVuSans-30"/>
       <use x="147.412109" xlink:href="#DejaVuSans-2e"/>
       <use x="179.199219" xlink:href="#DejaVuSans-30"/>
       <use x="242.822266" xlink:href="#DejaVuSans-30"/>
       <use x="306.445312" xlink:href="#DejaVuSans-30"/>
       <use x="370.068359" xlink:href="#DejaVuSans-35"/>
      </g>
     </g>
    </g>
    <g id="ytick_3">
     <g id="line2d_3">
      <g>
       <use style="stroke:#000000;stroke-width:0.8;" x="109.614687" xlink:href="#m7e96c6c378" y="231.811096"/>
      </g>
     </g>
     <g id="text_3">
      <!-- 0.0000 -->
      <g transform="translate(25.635312 240.169377)scale(0.22 -0.22)">
       <use xlink:href="#DejaVuSans-30"/>
       <use x="63.623047" xlink:href="#DejaVuSans-2e"/>
       <use x="95.410156" xlink:href="#DejaVuSans-30"/>
       <use x="159.033203" xlink:href="#DejaVuSans-30"/>
       <use x="222.65625" xlink:href="#DejaVuSans-30"/>
       <use x="286.279297" xlink:href="#DejaVuSans-30"/>
      </g>
     </g>
    </g>
    <g id="ytick_4">
     <g id="line2d_4">
      <g>
       <use style="stroke:#000000;stroke-width:0.8;" x="109.614687" xlink:href="#m7e96c6c378" y="178.005757"/>
      </g>
     </g>
     <g id="text_4">
      <!-- 0.0005 -->
      <g transform="translate(25.635312 186.364038)scale(0.22 -0.22)">
       <use xlink:href="#DejaVuSans-30"/>
       <use x="63.623047" xlink:href="#DejaVuSans-2e"/>
       <use x="95.410156" xlink:href="#DejaVuSans-30"/>
       <use x="159.033203" xlink:href="#DejaVuSans-30"/>
       <use x="222.65625" xlink:href="#DejaVuSans-30"/>
       <use x="286.279297" xlink:href="#DejaVuSans-35"/>
      </g>
     </g>
    </g>
    <g id="ytick_5">
     <g id="line2d_5">
      <g>
       <use style="stroke:#000000;stroke-width:0.8;" x="109.614687" xlink:href="#m7e96c6c378" y="124.200418"/>
      </g>
     </g>
     <g id="text_5">
      <!-- 0.0010 -->
      <g transform="translate(25.635312 132.5587)scale(0.22 -0.22)">
       <use xlink:href="#DejaVuSans-30"/>
       <use x="63.623047" xlink:href="#DejaVuSans-2e"/>
       <use x="95.410156" xlink:href="#DejaVuSans-30"/>
       <use x="159.033203" xlink:href="#DejaVuSans-30"/>
       <use x="222.65625" xlink:href="#DejaVuSans-31"/>
       <use x="286.279297" xlink:href="#DejaVuSans-30"/>
      </g>
     </g>
    </g>
    <g id="ytick_6">
     <g id="line2d_6">
      <g>
       <use style="stroke:#000000;stroke-width:0.8;" x="109.614687" xlink:href="#m7e96c6c378" y="70.39508"/>
      </g>
     </g>
     <g id="text_6">
      <!-- 0.0015 -->
      <g transform="translate(25.635312 78.753361)scale(0.22 -0.22)">
       <use xlink:href="#DejaVuSans-30"/>
       <use x="63.623047" xlink:href="#DejaVuSans-2e"/>
       <use x="95.410156" xlink:href="#DejaVuSans-30"/>
       <use x="159.033203" xlink:href="#DejaVuSans-30"/>
       <use x="222.65625" xlink:href="#DejaVuSans-31"/>
       <use x="286.279297" xlink:href="#DejaVuSans-35"/>
      </g>
     </g>
    </g>
    <g id="ytick_7">
     <g id="line2d_7">
      <g>
       <use style="stroke:#000000;stroke-width:0.8;" x="109.614687" xlink:href="#m7e96c6c378" y="16.589741"/>
      </g>
     </g>
     <g id="text_7">
      <!-- 0.0020 -->
      <defs>
       <path d="M 19.1875 8.296875 
L 53.609375 8.296875 
L 53.609375 0 
L 7.328125 0 
L 7.328125 8.296875 
Q 12.9375 14.109375 22.625 23.890625 
Q 32.328125 33.6875 34.8125 36.53125 
Q 39.546875 41.84375 41.421875 45.53125 
Q 43.3125 49.21875 43.3125 52.78125 
Q 43.3125 58.59375 39.234375 62.25 
Q 35.15625 65.921875 28.609375 65.921875 
Q 23.96875 65.921875 18.8125 64.3125 
Q 13.671875 62.703125 7.8125 59.421875 
L 7.8125 69.390625 
Q 13.765625 71.78125 18.9375 73 
Q 24.125 74.21875 28.421875 74.21875 
Q 39.75 74.21875 46.484375 68.546875 
Q 53.21875 62.890625 53.21875 53.421875 
Q 53.21875 48.921875 51.53125 44.890625 
Q 49.859375 40.875 45.40625 35.40625 
Q 44.1875 33.984375 37.640625 27.21875 
Q 31.109375 20.453125 19.1875 8.296875 
z
" id="DejaVuSans-32"/>
      </defs>
      <g transform="translate(25.635312 24.948022)scale(0.22 -0.22)">
       <use xlink:href="#DejaVuSans-30"/>
       <use x="63.623047" xlink:href="#DejaVuSans-2e"/>
       <use x="95.410156" xlink:href="#DejaVuSans-30"/>
       <use x="159.033203" xlink:href="#DejaVuSans-30"/>
       <use x="222.65625" xlink:href="#DejaVuSans-32"/>
       <use x="286.279297" xlink:href="#DejaVuSans-30"/>
      </g>
     </g>
    </g>
   </g>
   <g id="patch_3">
    <path d="M 109.614687 343.34 
L 109.614687 10.7 
" style="fill:none;stroke:#000000;stroke-linecap:square;stroke-linejoin:miter;stroke-width:0.8;"/>
   </g>
   <g id="patch_4">
    <path d="M 444.414688 343.34 
L 444.414688 10.7 
" style="fill:none;stroke:#000000;stroke-linecap:square;stroke-linejoin:miter;stroke-width:0.8;"/>
   </g>
   <g id="patch_5">
    <path d="M 109.614687 343.34 
L 444.414688 343.34 
" style="fill:none;stroke:#000000;stroke-linecap:square;stroke-linejoin:miter;stroke-width:0.8;"/>
   </g>
   <g id="patch_6">
    <path d="M 109.614687 10.7 
L 444.414688 10.7 
" style="fill:none;stroke:#000000;stroke-linecap:square;stroke-linejoin:miter;stroke-width:0.8;"/>
   </g>
  </g>
 </g>
 <defs>
  <clipPath id="p6684416d1a">
   <rect height="332.64" width="334.8" x="109.614687" y="10.7"/>
  </clipPath>
 </defs>
</svg>
