<?xml version="1.0" encoding="utf-8" standalone="no"?>
<!DOCTYPE svg PUBLIC "-//W3C//DTD SVG 1.1//EN"
  "http://www.w3.org/Graphics/SVG/1.1/DTD/svg11.dtd">
<!-- Created with matplotlib (http://matplotlib.org/) -->
<svg height="354pt" version="1.1" viewBox="0 0 422 354" width="422pt" xmlns="http://www.w3.org/2000/svg" xmlns:xlink="http://www.w3.org/1999/xlink">
 <defs>
  <style type="text/css">
*{stroke-linecap:butt;stroke-linejoin:round;}
  </style>
 </defs>
 <g id="figure_1">
  <g id="patch_1">
   <path d="M 0 354.04 
L 422.681875 354.04 
L 422.681875 0 
L 0 0 
z
" style="fill:#ffffff;"/>
  </g>
  <g id="axes_1">
   <g id="patch_2">
    <path d="M 77.181875 343.34 
L 411.981875 343.34 
L 411.981875 10.7 
L 77.181875 10.7 
z
" style="fill:#ffffff;"/>
   </g>
   <g id="PolyCollection_1">
    <defs>
     <path d="M 92.400057 -27.721569 
L 92.400057 -28.189497 
L 95.708357 -28.189497 
L 99.016658 -28.189497 
L 102.324958 -28.189497 
L 105.633258 -28.189497 
L 108.941559 -28.189497 
L 112.249859 -28.189497 
L 115.55816 -28.189497 
L 118.86646 -28.189497 
L 122.17476 -28.189497 
L 125.483061 -28.189497 
L 128.791361 -28.189497 
L 132.099662 -28.189497 
L 135.407962 -28.189497 
L 138.716262 -28.189497 
L 142.024563 -28.189497 
L 145.332863 -28.189497 
L 148.641164 -28.189497 
L 151.949464 -28.189497 
L 155.257764 -28.189497 
L 158.566065 -28.189497 
L 161.874365 -28.189497 
L 165.182666 -28.189497 
L 168.490966 -28.189497 
L 171.799266 -28.189497 
L 175.107567 -28.189497 
L 178.415867 -28.189497 
L 181.724167 -28.189497 
L 185.032468 -28.189497 
L 188.340768 -28.189497 
L 191.649069 -28.189497 
L 194.957369 -28.189497 
L 198.265669 -28.189497 
L 201.57397 -28.189497 
L 204.88227 -28.189497 
L 208.190571 -28.189497 
L 211.498871 -28.189497 
L 214.807171 -28.189497 
L 218.115472 -28.189497 
L 221.423772 -28.189497 
L 224.732073 -28.189497 
L 228.040373 -28.189497 
L 231.348673 -28.189497 
L 234.656974 -28.189497 
L 237.965274 -28.189497 
L 241.273575 -28.189497 
L 244.581875 -28.189497 
L 247.890175 -28.189497 
L 251.198476 -28.189497 
L 254.506776 -28.189497 
L 257.815077 -28.189497 
L 261.123377 -28.189497 
L 264.431677 -28.189497 
L 267.739978 -28.189497 
L 271.048278 -28.189497 
L 274.356579 -28.189497 
L 277.664879 -28.189497 
L 280.973179 -28.189497 
L 284.28148 -28.189497 
L 287.58978 -28.189497 
L 290.898081 -28.189497 
L 294.206381 -28.189497 
L 297.514681 -28.189497 
L 300.822982 -28.189497 
L 304.131282 -28.189497 
L 307.439583 -28.189497 
L 310.747883 -28.189497 
L 314.056183 -28.189497 
L 317.364484 -28.189497 
L 320.672784 -28.189497 
L 323.981084 -28.189497 
L 327.289385 -28.189497 
L 330.597685 -28.189497 
L 333.905986 -28.189497 
L 337.214286 -28.189497 
L 340.522586 -28.189497 
L 343.830887 -28.189497 
L 347.139187 -28.189497 
L 350.447488 -28.189497 
L 353.755788 -28.189497 
L 357.064088 -28.189497 
L 360.372389 -28.189497 
L 363.680689 -28.189497 
L 366.98899 -28.189497 
L 370.29729 -28.189497 
L 373.60559 -28.189497 
L 376.913891 -28.189497 
L 380.222191 -28.189497 
L 383.530492 -28.189497 
L 386.838792 -28.189497 
L 390.147092 -28.189497 
L 393.455393 -28.189497 
L 396.763693 -28.189497 
L 396.763693 -328.22 
L 396.763693 -328.22 
L 393.455393 -299.756147 
L 390.147092 -292.618373 
L 386.838792 -286.955562 
L 383.530492 -255.557619 
L 380.222191 -249.122262 
L 376.913891 -225.436716 
L 373.60559 -210.85031 
L 370.29729 -206.110878 
L 366.98899 -190.686217 
L 363.680689 -184.378933 
L 360.372389 -179.731496 
L 357.064088 -170.250628 
L 353.755788 -163.544757 
L 350.447488 -163.412809 
L 347.139187 -160.157067 
L 343.830887 -154.861423 
L 340.522586 -150.696281 
L 337.214286 -150.458045 
L 333.905986 -147.771962 
L 330.597685 -143.514604 
L 327.289385 -143.309613 
L 323.981084 -139.98914 
L 320.672784 -136.555572 
L 317.364484 -132.943356 
L 314.056183 -127.270967 
L 310.747883 -122.499966 
L 307.439583 -119.948892 
L 304.131282 -115.849732 
L 300.822982 -111.572753 
L 297.514681 -110.762208 
L 294.206381 -110.314088 
L 290.898081 -106.931414 
L 287.58978 -104.353554 
L 284.28148 -103.688468 
L 280.973179 -102.160428 
L 277.664879 -99.034206 
L 274.356579 -96.992329 
L 271.048278 -90.714636 
L 267.739978 -90.261242 
L 264.431677 -87.562613 
L 261.123377 -87.026832 
L 257.815077 -86.813681 
L 254.506776 -86.752844 
L 251.198476 -85.066622 
L 247.890175 -80.156569 
L 244.581875 -78.834604 
L 241.273575 -76.203148 
L 237.965274 -75.562297 
L 234.656974 -73.988918 
L 231.348673 -71.98964 
L 228.040373 -65.238652 
L 224.732073 -64.963368 
L 221.423772 -64.768159 
L 218.115472 -64.251341 
L 214.807171 -62.948842 
L 211.498871 -61.318838 
L 208.190571 -56.113581 
L 204.88227 -55.370588 
L 201.57397 -55.212362 
L 198.265669 -53.402811 
L 194.957369 -53.157709 
L 191.649069 -52.811834 
L 188.340768 -52.643651 
L 185.032468 -50.673294 
L 181.724167 -45.305961 
L 178.415867 -44.844391 
L 175.107567 -44.198865 
L 171.799266 -44.165377 
L 168.490966 -43.209109 
L 165.182666 -42.895025 
L 161.874365 -42.253332 
L 158.566065 -41.668543 
L 155.257764 -41.659577 
L 151.949464 -41.351655 
L 148.641164 -40.196393 
L 145.332863 -39.90921 
L 142.024563 -38.646943 
L 138.716262 -38.432611 
L 135.407962 -37.974892 
L 132.099662 -36.899606 
L 128.791361 -36.711344 
L 125.483061 -35.982814 
L 122.17476 -35.203011 
L 118.86646 -34.907734 
L 115.55816 -34.383288 
L 112.249859 -33.134095 
L 108.941559 -31.420853 
L 105.633258 -28.35562 
L 102.324958 -28.285185 
L 99.016658 -28.186321 
L 95.708357 -27.781386 
L 92.400057 -27.721569 
z
" id="mc3934e4702" style="stroke:#4a98c9;"/>
    </defs>
    <g clip-path="url(#pa957930a19)">
     <use style="fill:#4a98c9;stroke:#4a98c9;" x="0" xlink:href="#mc3934e4702" y="354.04"/>
    </g>
   </g>
   <g id="PolyCollection_2">
    <defs>
     <path d="M 92.400057 -25.82 
L 92.400057 -28.189497 
L 95.708357 -28.189497 
L 99.016658 -28.189497 
L 102.324958 -28.189497 
L 105.633258 -28.189497 
L 108.941559 -28.189497 
L 112.249859 -28.189497 
L 115.55816 -28.189497 
L 118.86646 -28.189497 
L 122.17476 -28.189497 
L 125.483061 -28.189497 
L 128.791361 -28.189497 
L 132.099662 -28.189497 
L 135.407962 -28.189497 
L 138.716262 -28.189497 
L 142.024563 -28.189497 
L 145.332863 -28.189497 
L 148.641164 -28.189497 
L 151.949464 -28.189497 
L 155.257764 -28.189497 
L 158.566065 -28.189497 
L 161.874365 -28.189497 
L 165.182666 -28.189497 
L 168.490966 -28.189497 
L 171.799266 -28.189497 
L 175.107567 -28.189497 
L 178.415867 -28.189497 
L 181.724167 -28.189497 
L 185.032468 -28.189497 
L 188.340768 -28.189497 
L 191.649069 -28.189497 
L 194.957369 -28.189497 
L 198.265669 -28.189497 
L 201.57397 -28.189497 
L 204.88227 -28.189497 
L 208.190571 -28.189497 
L 211.498871 -28.189497 
L 214.807171 -28.189497 
L 218.115472 -28.189497 
L 221.423772 -28.189497 
L 224.732073 -28.189497 
L 228.040373 -28.189497 
L 231.348673 -28.189497 
L 234.656974 -28.189497 
L 237.965274 -28.189497 
L 241.273575 -28.189497 
L 244.581875 -28.189497 
L 247.890175 -28.189497 
L 251.198476 -28.189497 
L 254.506776 -28.189497 
L 257.815077 -28.189497 
L 261.123377 -28.189497 
L 264.431677 -28.189497 
L 267.739978 -28.189497 
L 271.048278 -28.189497 
L 274.356579 -28.189497 
L 277.664879 -28.189497 
L 280.973179 -28.189497 
L 284.28148 -28.189497 
L 287.58978 -28.189497 
L 290.898081 -28.189497 
L 294.206381 -28.189497 
L 297.514681 -28.189497 
L 300.822982 -28.189497 
L 304.131282 -28.189497 
L 307.439583 -28.189497 
L 310.747883 -28.189497 
L 314.056183 -28.189497 
L 317.364484 -28.189497 
L 320.672784 -28.189497 
L 323.981084 -28.189497 
L 327.289385 -28.189497 
L 330.597685 -28.189497 
L 333.905986 -28.189497 
L 337.214286 -28.189497 
L 340.522586 -28.189497 
L 343.830887 -28.189497 
L 347.139187 -28.189497 
L 350.447488 -28.189497 
L 353.755788 -28.189497 
L 357.064088 -28.189497 
L 360.372389 -28.189497 
L 363.680689 -28.189497 
L 366.98899 -28.189497 
L 370.29729 -28.189497 
L 373.60559 -28.189497 
L 376.913891 -28.189497 
L 380.222191 -28.189497 
L 383.530492 -28.189497 
L 386.838792 -28.189497 
L 390.147092 -28.189497 
L 393.455393 -28.189497 
L 396.763693 -28.189497 
L 396.763693 -170.474534 
L 396.763693 -170.474534 
L 393.455393 -164.812155 
L 390.147092 -147.125776 
L 386.838792 -137.870742 
L 383.530492 -135.079602 
L 380.222191 -131.041273 
L 376.913891 -129.856355 
L 373.60559 -127.765342 
L 370.29729 -121.797649 
L 366.98899 -120.334589 
L 363.680689 -115.469265 
L 360.372389 -110.457725 
L 357.064088 -106.880304 
L 353.755788 -104.87167 
L 350.447488 -101.685183 
L 347.139187 -100.654594 
L 343.830887 -96.328018 
L 340.522586 -91.197822 
L 337.214286 -90.964891 
L 333.905986 -90.774409 
L 330.597685 -87.283198 
L 327.289385 -87.138085 
L 323.981084 -86.64119 
L 320.672784 -85.553986 
L 317.364484 -84.792359 
L 314.056183 -80.586809 
L 310.747883 -80.109669 
L 307.439583 -79.493069 
L 304.131282 -78.531372 
L 300.822982 -77.518444 
L 297.514681 -77.230779 
L 294.206381 -76.527523 
L 290.898081 -76.266791 
L 287.58978 -74.983638 
L 284.28148 -74.671985 
L 280.973179 -71.890874 
L 277.664879 -68.683926 
L 274.356579 -67.819316 
L 271.048278 -67.030383 
L 267.739978 -65.454819 
L 264.431677 -63.153028 
L 261.123377 -60.013943 
L 257.815077 -59.468767 
L 254.506776 -59.212784 
L 251.198476 -58.011134 
L 247.890175 -55.243274 
L 244.581875 -54.974209 
L 241.273575 -53.838897 
L 237.965274 -52.891037 
L 234.656974 -52.108031 
L 231.348673 -50.898449 
L 228.040373 -50.184614 
L 224.732073 -49.099613 
L 221.423772 -47.675881 
L 218.115472 -47.623672 
L 214.807171 -46.753272 
L 211.498871 -46.630695 
L 208.190571 -46.086679 
L 204.88227 -45.35263 
L 201.57397 -44.084061 
L 198.265669 -43.958705 
L 194.957369 -43.581859 
L 191.649069 -43.107933 
L 188.340768 -42.891313 
L 185.032468 -42.661998 
L 181.724167 -41.766014 
L 178.415867 -40.710849 
L 175.107567 -40.298634 
L 171.799266 -38.293061 
L 168.490966 -38.147776 
L 165.182666 -38.127615 
L 161.874365 -36.563 
L 158.566065 -35.961991 
L 155.257764 -35.292213 
L 151.949464 -35.285205 
L 148.641164 -35.270035 
L 145.332863 -34.858799 
L 142.024563 -34.504361 
L 138.716262 -33.966793 
L 135.407962 -33.279675 
L 132.099662 -32.877924 
L 128.791361 -32.842096 
L 125.483061 -31.725122 
L 122.17476 -31.094174 
L 118.86646 -31.0867 
L 115.55816 -30.457993 
L 112.249859 -30.252447 
L 108.941559 -28.718217 
L 105.633258 -28.357115 
L 102.324958 -27.517553 
L 99.016658 -26.954856 
L 95.708357 -26.90317 
L 92.400057 -25.82 
z
" id="m56db8c18bb" style="stroke:#f14432;stroke-opacity:0.8;"/>
    </defs>
    <g clip-path="url(#pa957930a19)">
     <use style="fill:#f14432;fill-opacity:0.8;stroke:#f14432;stroke-opacity:0.8;" x="0" xlink:href="#m56db8c18bb" y="354.04"/>
    </g>
   </g>
   <g id="matplotlib.axis_1"/>
   <g id="matplotlib.axis_2">
    <g id="ytick_1">
     <g id="line2d_1">
      <defs>
       <path d="M 0 0 
L -3.5 0 
" id="m999237b9f5" style="stroke:#000000;stroke-width:0.8;"/>
      </defs>
      <g>
       <use style="stroke:#000000;stroke-width:0.8;" x="77.181875" xlink:href="#m999237b9f5" y="325.850503"/>
      </g>
     </g>
     <g id="text_1">
      <!-- 0.000 -->
      <defs>
       <path d="M 31.78125 66.40625 
Q 24.171875 66.40625 20.328125 58.90625 
Q 16.5 51.421875 16.5 36.375 
Q 16.5 21.390625 20.328125 13.890625 
Q 24.171875 6.390625 31.78125 6.390625 
Q 39.453125 6.390625 43.28125 13.890625 
Q 47.125 21.390625 47.125 36.375 
Q 47.125 51.421875 43.28125 58.90625 
Q 39.453125 66.40625 31.78125 66.40625 
z
M 31.78125 74.21875 
Q 44.046875 74.21875 50.515625 64.515625 
Q 56.984375 54.828125 56.984375 36.375 
Q 56.984375 17.96875 50.515625 8.265625 
Q 44.046875 -1.421875 31.78125 -1.421875 
Q 19.53125 -1.421875 13.0625 8.265625 
Q 6.59375 17.96875 6.59375 36.375 
Q 6.59375 54.828125 13.0625 64.515625 
Q 19.53125 74.21875 31.78125 74.21875 
z
" id="DejaVuSans-30"/>
       <path d="M 10.6875 12.40625 
L 21 12.40625 
L 21 0 
L 10.6875 0 
z
" id="DejaVuSans-2e"/>
      </defs>
      <g transform="translate(7.2 334.208784)scale(0.22 -0.22)">
       <use xlink:href="#DejaVuSans-30"/>
       <use x="63.623047" xlink:href="#DejaVuSans-2e"/>
       <use x="95.410156" xlink:href="#DejaVuSans-30"/>
       <use x="159.033203" xlink:href="#DejaVuSans-30"/>
       <use x="222.65625" xlink:href="#DejaVuSans-30"/>
      </g>
     </g>
    </g>
    <g id="ytick_2">
     <g id="line2d_2">
      <g>
       <use style="stroke:#000000;stroke-width:0.8;" x="77.181875" xlink:href="#m999237b9f5" y="276.599695"/>
      </g>
     </g>
     <g id="text_2">
      <!-- 0.002 -->
      <defs>
       <path d="M 19.1875 8.296875 
L 53.609375 8.296875 
L 53.609375 0 
L 7.328125 0 
L 7.328125 8.296875 
Q 12.9375 14.109375 22.625 23.890625 
Q 32.328125 33.6875 34.8125 36.53125 
Q 39.546875 41.84375 41.421875 45.53125 
Q 43.3125 49.21875 43.3125 52.78125 
Q 43.3125 58.59375 39.234375 62.25 
Q 35.15625 65.921875 28.609375 65.921875 
Q 23.96875 65.921875 18.8125 64.3125 
Q 13.671875 62.703125 7.8125 59.421875 
L 7.8125 69.390625 
Q 13.765625 71.78125 18.9375 73 
Q 24.125 74.21875 28.421875 74.21875 
Q 39.75 74.21875 46.484375 68.546875 
Q 53.21875 62.890625 53.21875 53.421875 
Q 53.21875 48.921875 51.53125 44.890625 
Q 49.859375 40.875 45.40625 35.40625 
Q 44.1875 33.984375 37.640625 27.21875 
Q 31.109375 20.453125 19.1875 8.296875 
z
" id="DejaVuSans-32"/>
      </defs>
      <g transform="translate(7.2 284.957977)scale(0.22 -0.22)">
       <use xlink:href="#DejaVuSans-30"/>
       <use x="63.623047" xlink:href="#DejaVuSans-2e"/>
       <use x="95.410156" xlink:href="#DejaVuSans-30"/>
       <use x="159.033203" xlink:href="#DejaVuSans-30"/>
       <use x="222.65625" xlink:href="#DejaVuSans-32"/>
      </g>
     </g>
    </g>
    <g id="ytick_3">
     <g id="line2d_3">
      <g>
       <use style="stroke:#000000;stroke-width:0.8;" x="77.181875" xlink:href="#m999237b9f5" y="227.348888"/>
      </g>
     </g>
     <g id="text_3">
      <!-- 0.004 -->
      <defs>
       <path d="M 37.796875 64.3125 
L 12.890625 25.390625 
L 37.796875 25.390625 
z
M 35.203125 72.90625 
L 47.609375 72.90625 
L 47.609375 25.390625 
L 58.015625 25.390625 
L 58.015625 17.1875 
L 47.609375 17.1875 
L 47.609375 0 
L 37.796875 0 
L 37.796875 17.1875 
L 4.890625 17.1875 
L 4.890625 26.703125 
z
" id="DejaVuSans-34"/>
      </defs>
      <g transform="translate(7.2 235.707169)scale(0.22 -0.22)">
       <use xlink:href="#DejaVuSans-30"/>
       <use x="63.623047" xlink:href="#DejaVuSans-2e"/>
       <use x="95.410156" xlink:href="#DejaVuSans-30"/>
       <use x="159.033203" xlink:href="#DejaVuSans-30"/>
       <use x="222.65625" xlink:href="#DejaVuSans-34"/>
      </g>
     </g>
    </g>
    <g id="ytick_4">
     <g id="line2d_4">
      <g>
       <use style="stroke:#000000;stroke-width:0.8;" x="77.181875" xlink:href="#m999237b9f5" y="178.09808"/>
      </g>
     </g>
     <g id="text_4">
      <!-- 0.006 -->
      <defs>
       <path d="M 33.015625 40.375 
Q 26.375 40.375 22.484375 35.828125 
Q 18.609375 31.296875 18.609375 23.390625 
Q 18.609375 15.53125 22.484375 10.953125 
Q 26.375 6.390625 33.015625 6.390625 
Q 39.65625 6.390625 43.53125 10.953125 
Q 47.40625 15.53125 47.40625 23.390625 
Q 47.40625 31.296875 43.53125 35.828125 
Q 39.65625 40.375 33.015625 40.375 
z
M 52.59375 71.296875 
L 52.59375 62.3125 
Q 48.875 64.0625 45.09375 64.984375 
Q 41.3125 65.921875 37.59375 65.921875 
Q 27.828125 65.921875 22.671875 59.328125 
Q 17.53125 52.734375 16.796875 39.40625 
Q 19.671875 43.65625 24.015625 45.921875 
Q 28.375 48.1875 33.59375 48.1875 
Q 44.578125 48.1875 50.953125 41.515625 
Q 57.328125 34.859375 57.328125 23.390625 
Q 57.328125 12.15625 50.6875 5.359375 
Q 44.046875 -1.421875 33.015625 -1.421875 
Q 20.359375 -1.421875 13.671875 8.265625 
Q 6.984375 17.96875 6.984375 36.375 
Q 6.984375 53.65625 15.1875 63.9375 
Q 23.390625 74.21875 37.203125 74.21875 
Q 40.921875 74.21875 44.703125 73.484375 
Q 48.484375 72.75 52.59375 71.296875 
z
" id="DejaVuSans-36"/>
      </defs>
      <g transform="translate(7.2 186.456361)scale(0.22 -0.22)">
       <use xlink:href="#DejaVuSans-30"/>
       <use x="63.623047" xlink:href="#DejaVuSans-2e"/>
       <use x="95.410156" xlink:href="#DejaVuSans-30"/>
       <use x="159.033203" xlink:href="#DejaVuSans-30"/>
       <use x="222.65625" xlink:href="#DejaVuSans-36"/>
      </g>
     </g>
    </g>
    <g id="ytick_5">
     <g id="line2d_5">
      <g>
       <use style="stroke:#000000;stroke-width:0.8;" x="77.181875" xlink:href="#m999237b9f5" y="128.847272"/>
      </g>
     </g>
     <g id="text_5">
      <!-- 0.008 -->
      <defs>
       <path d="M 31.78125 34.625 
Q 24.75 34.625 20.71875 30.859375 
Q 16.703125 27.09375 16.703125 20.515625 
Q 16.703125 13.921875 20.71875 10.15625 
Q 24.75 6.390625 31.78125 6.390625 
Q 38.8125 6.390625 42.859375 10.171875 
Q 46.921875 13.96875 46.921875 20.515625 
Q 46.921875 27.09375 42.890625 30.859375 
Q 38.875 34.625 31.78125 34.625 
z
M 21.921875 38.8125 
Q 15.578125 40.375 12.03125 44.71875 
Q 8.5 49.078125 8.5 55.328125 
Q 8.5 64.0625 14.71875 69.140625 
Q 20.953125 74.21875 31.78125 74.21875 
Q 42.671875 74.21875 48.875 69.140625 
Q 55.078125 64.0625 55.078125 55.328125 
Q 55.078125 49.078125 51.53125 44.71875 
Q 48 40.375 41.703125 38.8125 
Q 48.828125 37.15625 52.796875 32.3125 
Q 56.78125 27.484375 56.78125 20.515625 
Q 56.78125 9.90625 50.3125 4.234375 
Q 43.84375 -1.421875 31.78125 -1.421875 
Q 19.734375 -1.421875 13.25 4.234375 
Q 6.78125 9.90625 6.78125 20.515625 
Q 6.78125 27.484375 10.78125 32.3125 
Q 14.796875 37.15625 21.921875 38.8125 
z
M 18.3125 54.390625 
Q 18.3125 48.734375 21.84375 45.5625 
Q 25.390625 42.390625 31.78125 42.390625 
Q 38.140625 42.390625 41.71875 45.5625 
Q 45.3125 48.734375 45.3125 54.390625 
Q 45.3125 60.0625 41.71875 63.234375 
Q 38.140625 66.40625 31.78125 66.40625 
Q 25.390625 66.40625 21.84375 63.234375 
Q 18.3125 60.0625 18.3125 54.390625 
z
" id="DejaVuSans-38"/>
      </defs>
      <g transform="translate(7.2 137.205554)scale(0.22 -0.22)">
       <use xlink:href="#DejaVuSans-30"/>
       <use x="63.623047" xlink:href="#DejaVuSans-2e"/>
       <use x="95.410156" xlink:href="#DejaVuSans-30"/>
       <use x="159.033203" xlink:href="#DejaVuSans-30"/>
       <use x="222.65625" xlink:href="#DejaVuSans-38"/>
      </g>
     </g>
    </g>
    <g id="ytick_6">
     <g id="line2d_6">
      <g>
       <use style="stroke:#000000;stroke-width:0.8;" x="77.181875" xlink:href="#m999237b9f5" y="79.596465"/>
      </g>
     </g>
     <g id="text_6">
      <!-- 0.010 -->
      <defs>
       <path d="M 12.40625 8.296875 
L 28.515625 8.296875 
L 28.515625 63.921875 
L 10.984375 60.40625 
L 10.984375 69.390625 
L 28.421875 72.90625 
L 38.28125 72.90625 
L 38.28125 8.296875 
L 54.390625 8.296875 
L 54.390625 0 
L 12.40625 0 
z
" id="DejaVuSans-31"/>
      </defs>
      <g transform="translate(7.2 87.954746)scale(0.22 -0.22)">
       <use xlink:href="#DejaVuSans-30"/>
       <use x="63.623047" xlink:href="#DejaVuSans-2e"/>
       <use x="95.410156" xlink:href="#DejaVuSans-30"/>
       <use x="159.033203" xlink:href="#DejaVuSans-31"/>
       <use x="222.65625" xlink:href="#DejaVuSans-30"/>
      </g>
     </g>
    </g>
    <g id="ytick_7">
     <g id="line2d_7">
      <g>
       <use style="stroke:#000000;stroke-width:0.8;" x="77.181875" xlink:href="#m999237b9f5" y="30.345657"/>
      </g>
     </g>
     <g id="text_7">
      <!-- 0.012 -->
      <g transform="translate(7.2 38.703938)scale(0.22 -0.22)">
       <use xlink:href="#DejaVuSans-30"/>
       <use x="63.623047" xlink:href="#DejaVuSans-2e"/>
       <use x="95.410156" xlink:href="#DejaVuSans-30"/>
       <use x="159.033203" xlink:href="#DejaVuSans-31"/>
       <use x="222.65625" xlink:href="#DejaVuSans-32"/>
      </g>
     </g>
    </g>
   </g>
   <g id="patch_3">
    <path d="M 77.181875 343.34 
L 77.181875 10.7 
" style="fill:none;stroke:#000000;stroke-linecap:square;stroke-linejoin:miter;stroke-width:0.8;"/>
   </g>
   <g id="patch_4">
    <path d="M 411.981875 343.34 
L 411.981875 10.7 
" style="fill:none;stroke:#000000;stroke-linecap:square;stroke-linejoin:miter;stroke-width:0.8;"/>
   </g>
   <g id="patch_5">
    <path d="M 77.181875 343.34 
L 411.981875 343.34 
" style="fill:none;stroke:#000000;stroke-linecap:square;stroke-linejoin:miter;stroke-width:0.8;"/>
   </g>
   <g id="patch_6">
    <path d="M 77.181875 10.7 
L 411.981875 10.7 
" style="fill:none;stroke:#000000;stroke-linecap:square;stroke-linejoin:miter;stroke-width:0.8;"/>
   </g>
  </g>
 </g>
 <defs>
  <clipPath id="pa957930a19">
   <rect height="332.64" width="334.8" x="77.181875" y="10.7"/>
  </clipPath>
 </defs>
</svg>
