<?xml version="1.0" encoding="utf-8" standalone="no"?>
<!DOCTYPE svg PUBLIC "-//W3C//DTD SVG 1.1//EN"
  "http://www.w3.org/Graphics/SVG/1.1/DTD/svg11.dtd">
<!-- Created with matplotlib (http://matplotlib.org/) -->
<svg height="354pt" version="1.1" viewBox="0 0 441 354" width="441pt" xmlns="http://www.w3.org/2000/svg" xmlns:xlink="http://www.w3.org/1999/xlink">
 <defs>
  <style type="text/css">
*{stroke-linecap:butt;stroke-linejoin:round;}
  </style>
 </defs>
 <g id="figure_1">
  <g id="patch_1">
   <path d="M 0 354.04 
L 441.117188 354.04 
L 441.117188 0 
L 0 0 
z
" style="fill:#ffffff;"/>
  </g>
  <g id="axes_1">
   <g id="patch_2">
    <path d="M 95.617188 343.34 
L 430.417188 343.34 
L 430.417188 10.7 
L 95.617188 10.7 
z
" style="fill:#ffffff;"/>
   </g>
   <g id="PolyCollection_1">
    <defs>
     <path d="M 110.835369 -38.989012 
L 110.835369 -67.523957 
L 114.14367 -67.523957 
L 117.45197 -67.523957 
L 120.760271 -67.523957 
L 124.068571 -67.523957 
L 127.376871 -67.523957 
L 130.685172 -67.523957 
L 133.993472 -67.523957 
L 137.301772 -67.523957 
L 140.610073 -67.523957 
L 143.918373 -67.523957 
L 147.226674 -67.523957 
L 150.534974 -67.523957 
L 153.843274 -67.523957 
L 157.151575 -67.523957 
L 160.459875 -67.523957 
L 163.768176 -67.523957 
L 167.076476 -67.523957 
L 170.384776 -67.523957 
L 173.693077 -67.523957 
L 177.001377 -67.523957 
L 180.309678 -67.523957 
L 183.617978 -67.523957 
L 186.926278 -67.523957 
L 190.234579 -67.523957 
L 193.542879 -67.523957 
L 196.85118 -67.523957 
L 200.15948 -67.523957 
L 203.46778 -67.523957 
L 206.776081 -67.523957 
L 210.084381 -67.523957 
L 213.392682 -67.523957 
L 216.700982 -67.523957 
L 220.009282 -67.523957 
L 223.317583 -67.523957 
L 226.625883 -67.523957 
L 229.934184 -67.523957 
L 233.242484 -67.523957 
L 236.550784 -67.523957 
L 239.859085 -67.523957 
L 243.167385 -67.523957 
L 246.475686 -67.523957 
L 249.783986 -67.523957 
L 253.092286 -67.523957 
L 256.400587 -67.523957 
L 259.708887 -67.523957 
L 263.017188 -67.523957 
L 266.325488 -67.523957 
L 269.633788 -67.523957 
L 272.942089 -67.523957 
L 276.250389 -67.523957 
L 279.558689 -67.523957 
L 282.86699 -67.523957 
L 286.17529 -67.523957 
L 289.483591 -67.523957 
L 292.791891 -67.523957 
L 296.100191 -67.523957 
L 299.408492 -67.523957 
L 302.716792 -67.523957 
L 306.025093 -67.523957 
L 309.333393 -67.523957 
L 312.641693 -67.523957 
L 315.949994 -67.523957 
L 319.258294 -67.523957 
L 322.566595 -67.523957 
L 325.874895 -67.523957 
L 329.183195 -67.523957 
L 332.491496 -67.523957 
L 335.799796 -67.523957 
L 339.108097 -67.523957 
L 342.416397 -67.523957 
L 345.724697 -67.523957 
L 349.032998 -67.523957 
L 352.341298 -67.523957 
L 355.649599 -67.523957 
L 358.957899 -67.523957 
L 362.266199 -67.523957 
L 365.5745 -67.523957 
L 368.8828 -67.523957 
L 372.191101 -67.523957 
L 375.499401 -67.523957 
L 378.807701 -67.523957 
L 382.116002 -67.523957 
L 385.424302 -67.523957 
L 388.732603 -67.523957 
L 392.040903 -67.523957 
L 395.349203 -67.523957 
L 398.657504 -67.523957 
L 401.965804 -67.523957 
L 405.274104 -67.523957 
L 408.582405 -67.523957 
L 411.890705 -67.523957 
L 415.199006 -67.523957 
L 415.199006 -328.22 
L 415.199006 -328.22 
L 411.890705 -310.586994 
L 408.582405 -301.898191 
L 405.274104 -300.6174 
L 401.965804 -286.322981 
L 398.657504 -284.670877 
L 395.349203 -254.691672 
L 392.040903 -249.155477 
L 388.732603 -224.302162 
L 385.424302 -211.407736 
L 382.116002 -189.482295 
L 378.807701 -186.653244 
L 375.499401 -186.319226 
L 372.191101 -185.913175 
L 368.8828 -185.507688 
L 365.5745 -182.589387 
L 362.266199 -178.149853 
L 358.957899 -166.692822 
L 355.649599 -164.790313 
L 352.341298 -164.33106 
L 349.032998 -162.953934 
L 345.724697 -162.47037 
L 342.416397 -152.176304 
L 339.108097 -147.604081 
L 335.799796 -139.99286 
L 332.491496 -138.877174 
L 329.183195 -136.471163 
L 325.874895 -135.373929 
L 322.566595 -132.952318 
L 319.258294 -132.358992 
L 315.949994 -128.116819 
L 312.641693 -123.191893 
L 309.333393 -121.936844 
L 306.025093 -119.280515 
L 302.716792 -114.528172 
L 299.408492 -113.560572 
L 296.100191 -111.257791 
L 292.791891 -104.142389 
L 289.483591 -100.845241 
L 286.17529 -100.164414 
L 282.86699 -99.842945 
L 279.558689 -99.341559 
L 276.250389 -95.217504 
L 272.942089 -95.116362 
L 269.633788 -92.620511 
L 266.325488 -91.443873 
L 263.017188 -91.424863 
L 259.708887 -90.556164 
L 256.400587 -89.178374 
L 253.092286 -88.567004 
L 249.783986 -87.90213 
L 246.475686 -87.741306 
L 243.167385 -87.601376 
L 239.859085 -87.090449 
L 236.550784 -85.118414 
L 233.242484 -84.936011 
L 229.934184 -84.869671 
L 226.625883 -84.730237 
L 223.317583 -83.896623 
L 220.009282 -83.53587 
L 216.700982 -83.279654 
L 213.392682 -83.180577 
L 210.084381 -82.534291 
L 206.776081 -80.640286 
L 203.46778 -79.978275 
L 200.15948 -78.810302 
L 196.85118 -78.410494 
L 193.542879 -78.356526 
L 190.234579 -78.298441 
L 186.926278 -77.236355 
L 183.617978 -76.106115 
L 180.309678 -75.00047 
L 177.001377 -74.547698 
L 173.693077 -73.392368 
L 170.384776 -73.326933 
L 167.076476 -72.383737 
L 163.768176 -72.283176 
L 160.459875 -72.244683 
L 157.151575 -71.728982 
L 153.843274 -71.370574 
L 150.534974 -70.716605 
L 147.226674 -70.584588 
L 143.918373 -70.489165 
L 140.610073 -70.18523 
L 137.301772 -70.015967 
L 133.993472 -70.007677 
L 130.685172 -69.773212 
L 127.376871 -69.44189 
L 124.068571 -67.670601 
L 120.760271 -66.987897 
L 117.45197 -63.713888 
L 114.14367 -54.13012 
L 110.835369 -38.989012 
z
" id="m4d361343bb" style="stroke:#4a98c9;"/>
    </defs>
    <g clip-path="url(#p7b7a236626)">
     <use style="fill:#4a98c9;stroke:#4a98c9;" x="0" xlink:href="#m4d361343bb" y="354.04"/>
    </g>
   </g>
   <g id="PolyCollection_2">
    <defs>
     <path d="M 110.835369 -25.82 
L 110.835369 -67.523957 
L 114.14367 -67.523957 
L 117.45197 -67.523957 
L 120.760271 -67.523957 
L 124.068571 -67.523957 
L 127.376871 -67.523957 
L 130.685172 -67.523957 
L 133.993472 -67.523957 
L 137.301772 -67.523957 
L 140.610073 -67.523957 
L 143.918373 -67.523957 
L 147.226674 -67.523957 
L 150.534974 -67.523957 
L 153.843274 -67.523957 
L 157.151575 -67.523957 
L 160.459875 -67.523957 
L 163.768176 -67.523957 
L 167.076476 -67.523957 
L 170.384776 -67.523957 
L 173.693077 -67.523957 
L 177.001377 -67.523957 
L 180.309678 -67.523957 
L 183.617978 -67.523957 
L 186.926278 -67.523957 
L 190.234579 -67.523957 
L 193.542879 -67.523957 
L 196.85118 -67.523957 
L 200.15948 -67.523957 
L 203.46778 -67.523957 
L 206.776081 -67.523957 
L 210.084381 -67.523957 
L 213.392682 -67.523957 
L 216.700982 -67.523957 
L 220.009282 -67.523957 
L 223.317583 -67.523957 
L 226.625883 -67.523957 
L 229.934184 -67.523957 
L 233.242484 -67.523957 
L 236.550784 -67.523957 
L 239.859085 -67.523957 
L 243.167385 -67.523957 
L 246.475686 -67.523957 
L 249.783986 -67.523957 
L 253.092286 -67.523957 
L 256.400587 -67.523957 
L 259.708887 -67.523957 
L 263.017188 -67.523957 
L 266.325488 -67.523957 
L 269.633788 -67.523957 
L 272.942089 -67.523957 
L 276.250389 -67.523957 
L 279.558689 -67.523957 
L 282.86699 -67.523957 
L 286.17529 -67.523957 
L 289.483591 -67.523957 
L 292.791891 -67.523957 
L 296.100191 -67.523957 
L 299.408492 -67.523957 
L 302.716792 -67.523957 
L 306.025093 -67.523957 
L 309.333393 -67.523957 
L 312.641693 -67.523957 
L 315.949994 -67.523957 
L 319.258294 -67.523957 
L 322.566595 -67.523957 
L 325.874895 -67.523957 
L 329.183195 -67.523957 
L 332.491496 -67.523957 
L 335.799796 -67.523957 
L 339.108097 -67.523957 
L 342.416397 -67.523957 
L 345.724697 -67.523957 
L 349.032998 -67.523957 
L 352.341298 -67.523957 
L 355.649599 -67.523957 
L 358.957899 -67.523957 
L 362.266199 -67.523957 
L 365.5745 -67.523957 
L 368.8828 -67.523957 
L 372.191101 -67.523957 
L 375.499401 -67.523957 
L 378.807701 -67.523957 
L 382.116002 -67.523957 
L 385.424302 -67.523957 
L 388.732603 -67.523957 
L 392.040903 -67.523957 
L 395.349203 -67.523957 
L 398.657504 -67.523957 
L 401.965804 -67.523957 
L 405.274104 -67.523957 
L 408.582405 -67.523957 
L 411.890705 -67.523957 
L 415.199006 -67.523957 
L 415.199006 -172.367701 
L 415.199006 -172.367701 
L 411.890705 -151.740451 
L 408.582405 -147.866058 
L 405.274104 -144.374797 
L 401.965804 -140.469235 
L 398.657504 -139.435173 
L 395.349203 -139.005111 
L 392.040903 -135.963604 
L 388.732603 -135.417291 
L 385.424302 -132.928963 
L 382.116002 -129.532224 
L 378.807701 -126.692492 
L 375.499401 -124.210897 
L 372.191101 -124.150048 
L 368.8828 -124.132145 
L 365.5745 -123.834951 
L 362.266199 -123.13814 
L 358.957899 -121.524767 
L 355.649599 -119.823798 
L 352.341298 -119.703042 
L 349.032998 -119.242729 
L 345.724697 -115.895569 
L 342.416397 -111.344006 
L 339.108097 -111.123055 
L 335.799796 -106.636999 
L 332.491496 -104.498223 
L 329.183195 -104.181494 
L 325.874895 -103.164529 
L 322.566595 -101.522022 
L 319.258294 -99.286418 
L 315.949994 -98.646382 
L 312.641693 -96.897137 
L 309.333393 -96.120204 
L 306.025093 -94.136883 
L 302.716792 -93.650654 
L 299.408492 -93.433302 
L 296.100191 -93.386023 
L 292.791891 -92.019345 
L 289.483591 -90.88395 
L 286.17529 -89.876252 
L 282.86699 -89.432567 
L 279.558689 -88.618609 
L 276.250389 -86.977624 
L 272.942089 -86.273194 
L 269.633788 -85.885823 
L 266.325488 -85.632785 
L 263.017188 -85.312755 
L 259.708887 -82.903007 
L 256.400587 -82.487176 
L 253.092286 -79.398979 
L 249.783986 -78.365208 
L 246.475686 -77.957646 
L 243.167385 -77.262694 
L 239.859085 -76.727355 
L 236.550784 -76.628884 
L 233.242484 -76.309701 
L 229.934184 -75.857258 
L 226.625883 -75.092588 
L 223.317583 -73.989346 
L 220.009282 -73.803706 
L 216.700982 -72.663888 
L 213.392682 -72.130658 
L 210.084381 -71.537125 
L 206.776081 -71.422497 
L 203.46778 -71.308208 
L 200.15948 -70.628969 
L 196.85118 -70.622585 
L 193.542879 -70.306248 
L 190.234579 -70.16853 
L 186.926278 -69.018586 
L 183.617978 -68.872897 
L 180.309678 -67.847855 
L 177.001377 -67.715549 
L 173.693077 -67.260716 
L 170.384776 -66.912931 
L 167.076476 -66.255536 
L 163.768176 -66.136874 
L 160.459875 -65.932247 
L 157.151575 -64.600823 
L 153.843274 -64.432134 
L 150.534974 -64.128936 
L 147.226674 -63.477135 
L 143.918373 -62.426736 
L 140.610073 -61.218296 
L 137.301772 -60.85825 
L 133.993472 -59.995498 
L 130.685172 -59.526858 
L 127.376871 -58.001921 
L 124.068571 -57.675113 
L 120.760271 -55.205115 
L 117.45197 -53.084854 
L 114.14367 -50.430175 
L 110.835369 -25.82 
z
" id="mac2f30625a" style="stroke:#f14432;stroke-opacity:0.8;"/>
    </defs>
    <g clip-path="url(#p7b7a236626)">
     <use style="fill:#f14432;fill-opacity:0.8;stroke:#f14432;stroke-opacity:0.8;" x="0" xlink:href="#mac2f30625a" y="354.04"/>
    </g>
   </g>
   <g id="matplotlib.axis_1"/>
   <g id="matplotlib.axis_2">
    <g id="ytick_1">
     <g id="line2d_1">
      <defs>
       <path d="M 0 0 
L -3.5 0 
" id="m522b33e09a" style="stroke:#000000;stroke-width:0.8;"/>
      </defs>
      <g>
       <use style="stroke:#000000;stroke-width:0.8;" x="95.617188" xlink:href="#m522b33e09a" y="326.515713"/>
      </g>
     </g>
     <g id="text_1">
      <!-- −0.002 -->
      <defs>
       <path d="M 10.59375 35.5 
L 73.1875 35.5 
L 73.1875 27.203125 
L 10.59375 27.203125 
z
" id="DejaVuSans-2212"/>
       <path d="M 31.78125 66.40625 
Q 24.171875 66.40625 20.328125 58.90625 
Q 16.5 51.421875 16.5 36.375 
Q 16.5 21.390625 20.328125 13.890625 
Q 24.171875 6.390625 31.78125 6.390625 
Q 39.453125 6.390625 43.28125 13.890625 
Q 47.125 21.390625 47.125 36.375 
Q 47.125 51.421875 43.28125 58.90625 
Q 39.453125 66.40625 31.78125 66.40625 
z
M 31.78125 74.21875 
Q 44.046875 74.21875 50.515625 64.515625 
Q 56.984375 54.828125 56.984375 36.375 
Q 56.984375 17.96875 50.515625 8.265625 
Q 44.046875 -1.421875 31.78125 -1.421875 
Q 19.53125 -1.421875 13.0625 8.265625 
Q 6.59375 17.96875 6.59375 36.375 
Q 6.59375 54.828125 13.0625 64.515625 
Q 19.53125 74.21875 31.78125 74.21875 
z
" id="DejaVuSans-30"/>
       <path d="M 10.6875 12.40625 
L 21 12.40625 
L 21 0 
L 10.6875 0 
z
" id="DejaVuSans-2e"/>
       <path d="M 19.1875 8.296875 
L 53.609375 8.296875 
L 53.609375 0 
L 7.328125 0 
L 7.328125 8.296875 
Q 12.9375 14.109375 22.625 23.890625 
Q 32.328125 33.6875 34.8125 36.53125 
Q 39.546875 41.84375 41.421875 45.53125 
Q 43.3125 49.21875 43.3125 52.78125 
Q 43.3125 58.59375 39.234375 62.25 
Q 35.15625 65.921875 28.609375 65.921875 
Q 23.96875 65.921875 18.8125 64.3125 
Q 13.671875 62.703125 7.8125 59.421875 
L 7.8125 69.390625 
Q 13.765625 71.78125 18.9375 73 
Q 24.125 74.21875 28.421875 74.21875 
Q 39.75 74.21875 46.484375 68.546875 
Q 53.21875 62.890625 53.21875 53.421875 
Q 53.21875 48.921875 51.53125 44.890625 
Q 49.859375 40.875 45.40625 35.40625 
Q 44.1875 33.984375 37.640625 27.21875 
Q 31.109375 20.453125 19.1875 8.296875 
z
" id="DejaVuSans-32"/>
      </defs>
      <g transform="translate(7.2 334.873994)scale(0.22 -0.22)">
       <use xlink:href="#DejaVuSans-2212"/>
       <use x="83.789062" xlink:href="#DejaVuSans-30"/>
       <use x="147.412109" xlink:href="#DejaVuSans-2e"/>
       <use x="179.199219" xlink:href="#DejaVuSans-30"/>
       <use x="242.822266" xlink:href="#DejaVuSans-30"/>
       <use x="306.445312" xlink:href="#DejaVuSans-32"/>
      </g>
     </g>
    </g>
    <g id="ytick_2">
     <g id="line2d_2">
      <g>
       <use style="stroke:#000000;stroke-width:0.8;" x="95.617188" xlink:href="#m522b33e09a" y="286.516043"/>
      </g>
     </g>
     <g id="text_2">
      <!-- 0.000 -->
      <g transform="translate(25.635312 294.874324)scale(0.22 -0.22)">
       <use xlink:href="#DejaVuSans-30"/>
       <use x="63.623047" xlink:href="#DejaVuSans-2e"/>
       <use x="95.410156" xlink:href="#DejaVuSans-30"/>
       <use x="159.033203" xlink:href="#DejaVuSans-30"/>
       <use x="222.65625" xlink:href="#DejaVuSans-30"/>
      </g>
     </g>
    </g>
    <g id="ytick_3">
     <g id="line2d_3">
      <g>
       <use style="stroke:#000000;stroke-width:0.8;" x="95.617188" xlink:href="#m522b33e09a" y="246.516374"/>
      </g>
     </g>
     <g id="text_3">
      <!-- 0.002 -->
      <g transform="translate(25.635312 254.874655)scale(0.22 -0.22)">
       <use xlink:href="#DejaVuSans-30"/>
       <use x="63.623047" xlink:href="#DejaVuSans-2e"/>
       <use x="95.410156" xlink:href="#DejaVuSans-30"/>
       <use x="159.033203" xlink:href="#DejaVuSans-30"/>
       <use x="222.65625" xlink:href="#DejaVuSans-32"/>
      </g>
     </g>
    </g>
    <g id="ytick_4">
     <g id="line2d_4">
      <g>
       <use style="stroke:#000000;stroke-width:0.8;" x="95.617188" xlink:href="#m522b33e09a" y="206.516704"/>
      </g>
     </g>
     <g id="text_4">
      <!-- 0.004 -->
      <defs>
       <path d="M 37.796875 64.3125 
L 12.890625 25.390625 
L 37.796875 25.390625 
z
M 35.203125 72.90625 
L 47.609375 72.90625 
L 47.609375 25.390625 
L 58.015625 25.390625 
L 58.015625 17.1875 
L 47.609375 17.1875 
L 47.609375 0 
L 37.796875 0 
L 37.796875 17.1875 
L 4.890625 17.1875 
L 4.890625 26.703125 
z
" id="DejaVuSans-34"/>
      </defs>
      <g transform="translate(25.635312 214.874985)scale(0.22 -0.22)">
       <use xlink:href="#DejaVuSans-30"/>
       <use x="63.623047" xlink:href="#DejaVuSans-2e"/>
       <use x="95.410156" xlink:href="#DejaVuSans-30"/>
       <use x="159.033203" xlink:href="#DejaVuSans-30"/>
       <use x="222.65625" xlink:href="#DejaVuSans-34"/>
      </g>
     </g>
    </g>
    <g id="ytick_5">
     <g id="line2d_5">
      <g>
       <use style="stroke:#000000;stroke-width:0.8;" x="95.617188" xlink:href="#m522b33e09a" y="166.517035"/>
      </g>
     </g>
     <g id="text_5">
      <!-- 0.006 -->
      <defs>
       <path d="M 33.015625 40.375 
Q 26.375 40.375 22.484375 35.828125 
Q 18.609375 31.296875 18.609375 23.390625 
Q 18.609375 15.53125 22.484375 10.953125 
Q 26.375 6.390625 33.015625 6.390625 
Q 39.65625 6.390625 43.53125 10.953125 
Q 47.40625 15.53125 47.40625 23.390625 
Q 47.40625 31.296875 43.53125 35.828125 
Q 39.65625 40.375 33.015625 40.375 
z
M 52.59375 71.296875 
L 52.59375 62.3125 
Q 48.875 64.0625 45.09375 64.984375 
Q 41.3125 65.921875 37.59375 65.921875 
Q 27.828125 65.921875 22.671875 59.328125 
Q 17.53125 52.734375 16.796875 39.40625 
Q 19.671875 43.65625 24.015625 45.921875 
Q 28.375 48.1875 33.59375 48.1875 
Q 44.578125 48.1875 50.953125 41.515625 
Q 57.328125 34.859375 57.328125 23.390625 
Q 57.328125 12.15625 50.6875 5.359375 
Q 44.046875 -1.421875 33.015625 -1.421875 
Q 20.359375 -1.421875 13.671875 8.265625 
Q 6.984375 17.96875 6.984375 36.375 
Q 6.984375 53.65625 15.1875 63.9375 
Q 23.390625 74.21875 37.203125 74.21875 
Q 40.921875 74.21875 44.703125 73.484375 
Q 48.484375 72.75 52.59375 71.296875 
z
" id="DejaVuSans-36"/>
      </defs>
      <g transform="translate(25.635312 174.875316)scale(0.22 -0.22)">
       <use xlink:href="#DejaVuSans-30"/>
       <use x="63.623047" xlink:href="#DejaVuSans-2e"/>
       <use x="95.410156" xlink:href="#DejaVuSans-30"/>
       <use x="159.033203" xlink:href="#DejaVuSans-30"/>
       <use x="222.65625" xlink:href="#DejaVuSans-36"/>
      </g>
     </g>
    </g>
    <g id="ytick_6">
     <g id="line2d_6">
      <g>
       <use style="stroke:#000000;stroke-width:0.8;" x="95.617188" xlink:href="#m522b33e09a" y="126.517365"/>
      </g>
     </g>
     <g id="text_6">
      <!-- 0.008 -->
      <defs>
       <path d="M 31.78125 34.625 
Q 24.75 34.625 20.71875 30.859375 
Q 16.703125 27.09375 16.703125 20.515625 
Q 16.703125 13.921875 20.71875 10.15625 
Q 24.75 6.390625 31.78125 6.390625 
Q 38.8125 6.390625 42.859375 10.171875 
Q 46.921875 13.96875 46.921875 20.515625 
Q 46.921875 27.09375 42.890625 30.859375 
Q 38.875 34.625 31.78125 34.625 
z
M 21.921875 38.8125 
Q 15.578125 40.375 12.03125 44.71875 
Q 8.5 49.078125 8.5 55.328125 
Q 8.5 64.0625 14.71875 69.140625 
Q 20.953125 74.21875 31.78125 74.21875 
Q 42.671875 74.21875 48.875 69.140625 
Q 55.078125 64.0625 55.078125 55.328125 
Q 55.078125 49.078125 51.53125 44.71875 
Q 48 40.375 41.703125 38.8125 
Q 48.828125 37.15625 52.796875 32.3125 
Q 56.78125 27.484375 56.78125 20.515625 
Q 56.78125 9.90625 50.3125 4.234375 
Q 43.84375 -1.421875 31.78125 -1.421875 
Q 19.734375 -1.421875 13.25 4.234375 
Q 6.78125 9.90625 6.78125 20.515625 
Q 6.78125 27.484375 10.78125 32.3125 
Q 14.796875 37.15625 21.921875 38.8125 
z
M 18.3125 54.390625 
Q 18.3125 48.734375 21.84375 45.5625 
Q 25.390625 42.390625 31.78125 42.390625 
Q 38.140625 42.390625 41.71875 45.5625 
Q 45.3125 48.734375 45.3125 54.390625 
Q 45.3125 60.0625 41.71875 63.234375 
Q 38.140625 66.40625 31.78125 66.40625 
Q 25.390625 66.40625 21.84375 63.234375 
Q 18.3125 60.0625 18.3125 54.390625 
z
" id="DejaVuSans-38"/>
      </defs>
      <g transform="translate(25.635312 134.875647)scale(0.22 -0.22)">
       <use xlink:href="#DejaVuSans-30"/>
       <use x="63.623047" xlink:href="#DejaVuSans-2e"/>
       <use x="95.410156" xlink:href="#DejaVuSans-30"/>
       <use x="159.033203" xlink:href="#DejaVuSans-30"/>
       <use x="222.65625" xlink:href="#DejaVuSans-38"/>
      </g>
     </g>
    </g>
    <g id="ytick_7">
     <g id="line2d_7">
      <g>
       <use style="stroke:#000000;stroke-width:0.8;" x="95.617188" xlink:href="#m522b33e09a" y="86.517696"/>
      </g>
     </g>
     <g id="text_7">
      <!-- 0.010 -->
      <defs>
       <path d="M 12.40625 8.296875 
L 28.515625 8.296875 
L 28.515625 63.921875 
L 10.984375 60.40625 
L 10.984375 69.390625 
L 28.421875 72.90625 
L 38.28125 72.90625 
L 38.28125 8.296875 
L 54.390625 8.296875 
L 54.390625 0 
L 12.40625 0 
z
" id="DejaVuSans-31"/>
      </defs>
      <g transform="translate(25.635312 94.875977)scale(0.22 -0.22)">
       <use xlink:href="#DejaVuSans-30"/>
       <use x="63.623047" xlink:href="#DejaVuSans-2e"/>
       <use x="95.410156" xlink:href="#DejaVuSans-30"/>
       <use x="159.033203" xlink:href="#DejaVuSans-31"/>
       <use x="222.65625" xlink:href="#DejaVuSans-30"/>
      </g>
     </g>
    </g>
    <g id="ytick_8">
     <g id="line2d_8">
      <g>
       <use style="stroke:#000000;stroke-width:0.8;" x="95.617188" xlink:href="#m522b33e09a" y="46.518026"/>
      </g>
     </g>
     <g id="text_8">
      <!-- 0.012 -->
      <g transform="translate(25.635312 54.876308)scale(0.22 -0.22)">
       <use xlink:href="#DejaVuSans-30"/>
       <use x="63.623047" xlink:href="#DejaVuSans-2e"/>
       <use x="95.410156" xlink:href="#DejaVuSans-30"/>
       <use x="159.033203" xlink:href="#DejaVuSans-31"/>
       <use x="222.65625" xlink:href="#DejaVuSans-32"/>
      </g>
     </g>
    </g>
   </g>
   <g id="patch_3">
    <path d="M 95.617188 343.34 
L 95.617188 10.7 
" style="fill:none;stroke:#000000;stroke-linecap:square;stroke-linejoin:miter;stroke-width:0.8;"/>
   </g>
   <g id="patch_4">
    <path d="M 430.417188 343.34 
L 430.417188 10.7 
" style="fill:none;stroke:#000000;stroke-linecap:square;stroke-linejoin:miter;stroke-width:0.8;"/>
   </g>
   <g id="patch_5">
    <path d="M 95.617188 343.34 
L 430.417188 343.34 
" style="fill:none;stroke:#000000;stroke-linecap:square;stroke-linejoin:miter;stroke-width:0.8;"/>
   </g>
   <g id="patch_6">
    <path d="M 95.617188 10.7 
L 430.417188 10.7 
" style="fill:none;stroke:#000000;stroke-linecap:square;stroke-linejoin:miter;stroke-width:0.8;"/>
   </g>
  </g>
 </g>
 <defs>
  <clipPath id="p7b7a236626">
   <rect height="332.64" width="334.8" x="95.617188" y="10.7"/>
  </clipPath>
 </defs>
</svg>
