<?xml version="1.0" encoding="utf-8" standalone="no"?>
<!DOCTYPE svg PUBLIC "-//W3C//DTD SVG 1.1//EN"
  "http://www.w3.org/Graphics/SVG/1.1/DTD/svg11.dtd">
<!-- Created with matplotlib (http://matplotlib.org/) -->
<svg height="354pt" version="1.1" viewBox="0 0 439 354" width="439pt" xmlns="http://www.w3.org/2000/svg" xmlns:xlink="http://www.w3.org/1999/xlink">
 <defs>
  <style type="text/css">
*{stroke-linecap:butt;stroke-linejoin:round;}
  </style>
 </defs>
 <g id="figure_1">
  <g id="patch_1">
   <path d="M -0 354.04 
L 439.17183 354.04 
L 439.17183 0 
L -0 0 
z
" style="fill:#ffffff;"/>
  </g>
  <g id="axes_1">
   <g id="patch_2">
    <path d="M 109.614688 343.34 
L 428.47183 343.34 
L 428.47183 10.7 
L 109.614688 10.7 
z
" style="fill:#ffffff;"/>
   </g>
   <g id="matplotlib.axis_1"/>
   <g id="matplotlib.axis_2">
    <g id="ytick_1">
     <g id="line2d_1">
      <defs>
       <path d="M 0 0 
L -3.5 0 
" id="m950f3ea49f" style="stroke:#000000;stroke-width:0.8;"/>
      </defs>
      <g>
       <use style="stroke:#000000;stroke-width:0.8;" x="109.614688" xlink:href="#m950f3ea49f" y="308.875222"/>
      </g>
     </g>
     <g id="text_1">
      <!-- −0.0006 -->
      <defs>
       <path d="M 10.59375 35.5 
L 73.1875 35.5 
L 73.1875 27.203125 
L 10.59375 27.203125 
z
" id="DejaVuSans-2212"/>
       <path d="M 31.78125 66.40625 
Q 24.171875 66.40625 20.328125 58.90625 
Q 16.5 51.421875 16.5 36.375 
Q 16.5 21.390625 20.328125 13.890625 
Q 24.171875 6.390625 31.78125 6.390625 
Q 39.453125 6.390625 43.28125 13.890625 
Q 47.125 21.390625 47.125 36.375 
Q 47.125 51.421875 43.28125 58.90625 
Q 39.453125 66.40625 31.78125 66.40625 
z
M 31.78125 74.21875 
Q 44.046875 74.21875 50.515625 64.515625 
Q 56.984375 54.828125 56.984375 36.375 
Q 56.984375 17.96875 50.515625 8.265625 
Q 44.046875 -1.421875 31.78125 -1.421875 
Q 19.53125 -1.421875 13.0625 8.265625 
Q 6.59375 17.96875 6.59375 36.375 
Q 6.59375 54.828125 13.0625 64.515625 
Q 19.53125 74.21875 31.78125 74.21875 
z
" id="DejaVuSans-30"/>
       <path d="M 10.6875 12.40625 
L 21 12.40625 
L 21 0 
L 10.6875 0 
z
" id="DejaVuSans-2e"/>
       <path d="M 33.015625 40.375 
Q 26.375 40.375 22.484375 35.828125 
Q 18.609375 31.296875 18.609375 23.390625 
Q 18.609375 15.53125 22.484375 10.953125 
Q 26.375 6.390625 33.015625 6.390625 
Q 39.65625 6.390625 43.53125 10.953125 
Q 47.40625 15.53125 47.40625 23.390625 
Q 47.40625 31.296875 43.53125 35.828125 
Q 39.65625 40.375 33.015625 40.375 
z
M 52.59375 71.296875 
L 52.59375 62.3125 
Q 48.875 64.0625 45.09375 64.984375 
Q 41.3125 65.921875 37.59375 65.921875 
Q 27.828125 65.921875 22.671875 59.328125 
Q 17.53125 52.734375 16.796875 39.40625 
Q 19.671875 43.65625 24.015625 45.921875 
Q 28.375 48.1875 33.59375 48.1875 
Q 44.578125 48.1875 50.953125 41.515625 
Q 57.328125 34.859375 57.328125 23.390625 
Q 57.328125 12.15625 50.6875 5.359375 
Q 44.046875 -1.421875 33.015625 -1.421875 
Q 20.359375 -1.421875 13.671875 8.265625 
Q 6.984375 17.96875 6.984375 36.375 
Q 6.984375 53.65625 15.1875 63.9375 
Q 23.390625 74.21875 37.203125 74.21875 
Q 40.921875 74.21875 44.703125 73.484375 
Q 48.484375 72.75 52.59375 71.296875 
z
" id="DejaVuSans-36"/>
      </defs>
      <g transform="translate(7.2 317.233504)scale(0.22 -0.22)">
       <use xlink:href="#DejaVuSans-2212"/>
       <use x="83.789062" xlink:href="#DejaVuSans-30"/>
       <use x="147.412109" xlink:href="#DejaVuSans-2e"/>
       <use x="179.199219" xlink:href="#DejaVuSans-30"/>
       <use x="242.822266" xlink:href="#DejaVuSans-30"/>
       <use x="306.445312" xlink:href="#DejaVuSans-30"/>
       <use x="370.068359" xlink:href="#DejaVuSans-36"/>
      </g>
     </g>
    </g>
    <g id="ytick_2">
     <g id="line2d_2">
      <g>
       <use style="stroke:#000000;stroke-width:0.8;" x="109.614688" xlink:href="#m950f3ea49f" y="267.440469"/>
      </g>
     </g>
     <g id="text_2">
      <!-- −0.0004 -->
      <defs>
       <path d="M 37.796875 64.3125 
L 12.890625 25.390625 
L 37.796875 25.390625 
z
M 35.203125 72.90625 
L 47.609375 72.90625 
L 47.609375 25.390625 
L 58.015625 25.390625 
L 58.015625 17.1875 
L 47.609375 17.1875 
L 47.609375 0 
L 37.796875 0 
L 37.796875 17.1875 
L 4.890625 17.1875 
L 4.890625 26.703125 
z
" id="DejaVuSans-34"/>
      </defs>
      <g transform="translate(7.2 275.79875)scale(0.22 -0.22)">
       <use xlink:href="#DejaVuSans-2212"/>
       <use x="83.789062" xlink:href="#DejaVuSans-30"/>
       <use x="147.412109" xlink:href="#DejaVuSans-2e"/>
       <use x="179.199219" xlink:href="#DejaVuSans-30"/>
       <use x="242.822266" xlink:href="#DejaVuSans-30"/>
       <use x="306.445312" xlink:href="#DejaVuSans-30"/>
       <use x="370.068359" xlink:href="#DejaVuSans-34"/>
      </g>
     </g>
    </g>
    <g id="ytick_3">
     <g id="line2d_3">
      <g>
       <use style="stroke:#000000;stroke-width:0.8;" x="109.614688" xlink:href="#m950f3ea49f" y="226.005715"/>
      </g>
     </g>
     <g id="text_3">
      <!-- −0.0002 -->
      <defs>
       <path d="M 19.1875 8.296875 
L 53.609375 8.296875 
L 53.609375 0 
L 7.328125 0 
L 7.328125 8.296875 
Q 12.9375 14.109375 22.625 23.890625 
Q 32.328125 33.6875 34.8125 36.53125 
Q 39.546875 41.84375 41.421875 45.53125 
Q 43.3125 49.21875 43.3125 52.78125 
Q 43.3125 58.59375 39.234375 62.25 
Q 35.15625 65.921875 28.609375 65.921875 
Q 23.96875 65.921875 18.8125 64.3125 
Q 13.671875 62.703125 7.8125 59.421875 
L 7.8125 69.390625 
Q 13.765625 71.78125 18.9375 73 
Q 24.125 74.21875 28.421875 74.21875 
Q 39.75 74.21875 46.484375 68.546875 
Q 53.21875 62.890625 53.21875 53.421875 
Q 53.21875 48.921875 51.53125 44.890625 
Q 49.859375 40.875 45.40625 35.40625 
Q 44.1875 33.984375 37.640625 27.21875 
Q 31.109375 20.453125 19.1875 8.296875 
z
" id="DejaVuSans-32"/>
      </defs>
      <g transform="translate(7.2 234.363996)scale(0.22 -0.22)">
       <use xlink:href="#DejaVuSans-2212"/>
       <use x="83.789062" xlink:href="#DejaVuSans-30"/>
       <use x="147.412109" xlink:href="#DejaVuSans-2e"/>
       <use x="179.199219" xlink:href="#DejaVuSans-30"/>
       <use x="242.822266" xlink:href="#DejaVuSans-30"/>
       <use x="306.445312" xlink:href="#DejaVuSans-30"/>
       <use x="370.068359" xlink:href="#DejaVuSans-32"/>
      </g>
     </g>
    </g>
    <g id="ytick_4">
     <g id="line2d_4">
      <g>
       <use style="stroke:#000000;stroke-width:0.8;" x="109.614688" xlink:href="#m950f3ea49f" y="184.570961"/>
      </g>
     </g>
     <g id="text_4">
      <!-- 0.0000 -->
      <g transform="translate(25.635312 192.929242)scale(0.22 -0.22)">
       <use xlink:href="#DejaVuSans-30"/>
       <use x="63.623047" xlink:href="#DejaVuSans-2e"/>
       <use x="95.410156" xlink:href="#DejaVuSans-30"/>
       <use x="159.033203" xlink:href="#DejaVuSans-30"/>
       <use x="222.65625" xlink:href="#DejaVuSans-30"/>
       <use x="286.279297" xlink:href="#DejaVuSans-30"/>
      </g>
     </g>
    </g>
    <g id="ytick_5">
     <g id="line2d_5">
      <g>
       <use style="stroke:#000000;stroke-width:0.8;" x="109.614688" xlink:href="#m950f3ea49f" y="143.136207"/>
      </g>
     </g>
     <g id="text_5">
      <!-- 0.0002 -->
      <g transform="translate(25.635312 151.494488)scale(0.22 -0.22)">
       <use xlink:href="#DejaVuSans-30"/>
       <use x="63.623047" xlink:href="#DejaVuSans-2e"/>
       <use x="95.410156" xlink:href="#DejaVuSans-30"/>
       <use x="159.033203" xlink:href="#DejaVuSans-30"/>
       <use x="222.65625" xlink:href="#DejaVuSans-30"/>
       <use x="286.279297" xlink:href="#DejaVuSans-32"/>
      </g>
     </g>
    </g>
    <g id="ytick_6">
     <g id="line2d_6">
      <g>
       <use style="stroke:#000000;stroke-width:0.8;" x="109.614688" xlink:href="#m950f3ea49f" y="101.701453"/>
      </g>
     </g>
     <g id="text_6">
      <!-- 0.0004 -->
      <g transform="translate(25.635312 110.059734)scale(0.22 -0.22)">
       <use xlink:href="#DejaVuSans-30"/>
       <use x="63.623047" xlink:href="#DejaVuSans-2e"/>
       <use x="95.410156" xlink:href="#DejaVuSans-30"/>
       <use x="159.033203" xlink:href="#DejaVuSans-30"/>
       <use x="222.65625" xlink:href="#DejaVuSans-30"/>
       <use x="286.279297" xlink:href="#DejaVuSans-34"/>
      </g>
     </g>
    </g>
    <g id="ytick_7">
     <g id="line2d_7">
      <g>
       <use style="stroke:#000000;stroke-width:0.8;" x="109.614688" xlink:href="#m950f3ea49f" y="60.266699"/>
      </g>
     </g>
     <g id="text_7">
      <!-- 0.0006 -->
      <g transform="translate(25.635312 68.62498)scale(0.22 -0.22)">
       <use xlink:href="#DejaVuSans-30"/>
       <use x="63.623047" xlink:href="#DejaVuSans-2e"/>
       <use x="95.410156" xlink:href="#DejaVuSans-30"/>
       <use x="159.033203" xlink:href="#DejaVuSans-30"/>
       <use x="222.65625" xlink:href="#DejaVuSans-30"/>
       <use x="286.279297" xlink:href="#DejaVuSans-36"/>
      </g>
     </g>
    </g>
    <g id="ytick_8">
     <g id="line2d_8">
      <g>
       <use style="stroke:#000000;stroke-width:0.8;" x="109.614688" xlink:href="#m950f3ea49f" y="18.831945"/>
      </g>
     </g>
     <g id="text_8">
      <!-- 0.0008 -->
      <defs>
       <path d="M 31.78125 34.625 
Q 24.75 34.625 20.71875 30.859375 
Q 16.703125 27.09375 16.703125 20.515625 
Q 16.703125 13.921875 20.71875 10.15625 
Q 24.75 6.390625 31.78125 6.390625 
Q 38.8125 6.390625 42.859375 10.171875 
Q 46.921875 13.96875 46.921875 20.515625 
Q 46.921875 27.09375 42.890625 30.859375 
Q 38.875 34.625 31.78125 34.625 
z
M 21.921875 38.8125 
Q 15.578125 40.375 12.03125 44.71875 
Q 8.5 49.078125 8.5 55.328125 
Q 8.5 64.0625 14.71875 69.140625 
Q 20.953125 74.21875 31.78125 74.21875 
Q 42.671875 74.21875 48.875 69.140625 
Q 55.078125 64.0625 55.078125 55.328125 
Q 55.078125 49.078125 51.53125 44.71875 
Q 48 40.375 41.703125 38.8125 
Q 48.828125 37.15625 52.796875 32.3125 
Q 56.78125 27.484375 56.78125 20.515625 
Q 56.78125 9.90625 50.3125 4.234375 
Q 43.84375 -1.421875 31.78125 -1.421875 
Q 19.734375 -1.421875 13.25 4.234375 
Q 6.78125 9.90625 6.78125 20.515625 
Q 6.78125 27.484375 10.78125 32.3125 
Q 14.796875 37.15625 21.921875 38.8125 
z
M 18.3125 54.390625 
Q 18.3125 48.734375 21.84375 45.5625 
Q 25.390625 42.390625 31.78125 42.390625 
Q 38.140625 42.390625 41.71875 45.5625 
Q 45.3125 48.734375 45.3125 54.390625 
Q 45.3125 60.0625 41.71875 63.234375 
Q 38.140625 66.40625 31.78125 66.40625 
Q 25.390625 66.40625 21.84375 63.234375 
Q 18.3125 60.0625 18.3125 54.390625 
z
" id="DejaVuSans-38"/>
      </defs>
      <g transform="translate(25.635312 27.190226)scale(0.22 -0.22)">
       <use xlink:href="#DejaVuSans-30"/>
       <use x="63.623047" xlink:href="#DejaVuSans-2e"/>
       <use x="95.410156" xlink:href="#DejaVuSans-30"/>
       <use x="159.033203" xlink:href="#DejaVuSans-30"/>
       <use x="222.65625" xlink:href="#DejaVuSans-30"/>
       <use x="286.279297" xlink:href="#DejaVuSans-38"/>
      </g>
     </g>
    </g>
   </g>
   <g id="patch_3">
    <path clip-path="url(#p69387c6990)" d="M 124.108194 184.570961 
L 138.6017 184.570961 
L 138.6017 235.050101 
L 124.108194 235.050101 
z
" style="fill:#d92523;"/>
   </g>
   <g id="patch_4">
    <path clip-path="url(#p69387c6990)" d="M 138.6017 184.570961 
L 153.095207 184.570961 
L 153.095207 296.689077 
L 138.6017 296.689077 
z
" style="fill:#d92523;"/>
   </g>
   <g id="patch_5">
    <path clip-path="url(#p69387c6990)" d="M 153.095207 184.570961 
L 167.588713 184.570961 
L 167.588713 88.7637 
L 153.095207 88.7637 
z
" style="fill:#d92523;"/>
   </g>
   <g id="patch_6">
    <path clip-path="url(#p69387c6990)" d="M 167.588713 184.570961 
L 182.08222 184.570961 
L 182.08222 202.240549 
L 167.588713 202.240549 
z
" style="fill:#d92523;"/>
   </g>
   <g id="patch_7">
    <path clip-path="url(#p69387c6990)" d="M 182.08222 184.570961 
L 196.575726 184.570961 
L 196.575726 205.608606 
L 182.08222 205.608606 
z
" style="fill:#d92523;"/>
   </g>
   <g id="patch_8">
    <path clip-path="url(#p69387c6990)" d="M 196.575726 184.570961 
L 211.069233 184.570961 
L 211.069233 194.863775 
L 196.575726 194.863775 
z
" style="fill:#d92523;"/>
   </g>
   <g id="patch_9">
    <path clip-path="url(#p69387c6990)" d="M 211.069233 184.570961 
L 225.562739 184.570961 
L 225.562739 169.54484 
L 211.069233 169.54484 
z
" style="fill:#d92523;"/>
   </g>
   <g id="patch_10">
    <path clip-path="url(#p69387c6990)" d="M 225.562739 184.570961 
L 240.056246 184.570961 
L 240.056246 171.230697 
L 225.562739 171.230697 
z
" style="fill:#d92523;"/>
   </g>
   <g id="patch_11">
    <path clip-path="url(#p69387c6990)" d="M 240.056246 184.570961 
L 254.549752 184.570961 
L 254.549752 274.023813 
L 240.056246 274.023813 
z
" style="fill:#d92523;"/>
   </g>
   <g id="patch_12">
    <path clip-path="url(#p69387c6990)" d="M 254.549752 184.570961 
L 269.043259 184.570961 
L 269.043259 211.325856 
L 254.549752 211.325856 
z
" style="fill:#d92523;"/>
   </g>
   <g id="patch_13">
    <path clip-path="url(#p69387c6990)" d="M 269.043259 184.570961 
L 283.536765 184.570961 
L 283.536765 302.185362 
L 269.043259 302.185362 
z
" style="fill:#d92523;"/>
   </g>
   <g id="patch_14">
    <path clip-path="url(#p69387c6990)" d="M 283.536765 184.570961 
L 298.030272 184.570961 
L 298.030272 177.431582 
L 283.536765 177.431582 
z
" style="fill:#d92523;"/>
   </g>
   <g id="patch_15">
    <path clip-path="url(#p69387c6990)" d="M 298.030272 184.570961 
L 312.523778 184.570961 
L 312.523778 263.226096 
L 298.030272 263.226096 
z
" style="fill:#d92523;"/>
   </g>
   <g id="patch_16">
    <path clip-path="url(#p69387c6990)" d="M 312.523778 184.570961 
L 327.017285 184.570961 
L 327.017285 91.490376 
L 312.523778 91.490376 
z
" style="fill:#d92523;"/>
   </g>
   <g id="patch_17">
    <path clip-path="url(#p69387c6990)" d="M 327.017285 184.570961 
L 341.510791 184.570961 
L 341.510791 117.330876 
L 327.017285 117.330876 
z
" style="fill:#d92523;"/>
   </g>
   <g id="patch_18">
    <path clip-path="url(#p69387c6990)" d="M 341.510791 184.570961 
L 356.004298 184.570961 
L 356.004298 183.956794 
L 341.510791 183.956794 
z
" style="fill:#d92523;"/>
   </g>
   <g id="patch_19">
    <path clip-path="url(#p69387c6990)" d="M 356.004298 184.570961 
L 370.497804 184.570961 
L 370.497804 127.513354 
L 356.004298 127.513354 
z
" style="fill:#d92523;"/>
   </g>
   <g id="patch_20">
    <path clip-path="url(#p69387c6990)" d="M 370.497804 184.570961 
L 384.991311 184.570961 
L 384.991311 189.745006 
L 370.497804 189.745006 
z
" style="fill:#d92523;"/>
   </g>
   <g id="patch_21">
    <path clip-path="url(#p69387c6990)" d="M 384.991311 184.570961 
L 399.484817 184.570961 
L 399.484817 204.833926 
L 384.991311 204.833926 
z
" style="fill:#d92523;"/>
   </g>
   <g id="patch_22">
    <path clip-path="url(#p69387c6990)" d="M 399.484817 184.570961 
L 413.978324 184.570961 
L 413.978324 209.440734 
L 399.484817 209.440734 
z
" style="fill:#d92523;"/>
   </g>
   <g id="patch_23">
    <path clip-path="url(#p69387c6990)" d="M 124.108194 184.570961 
L 138.6017 184.570961 
L 138.6017 182.909682 
L 124.108194 182.909682 
z
" style="fill:#2e7ebc;"/>
   </g>
   <g id="patch_24">
    <path clip-path="url(#p69387c6990)" d="M 138.6017 184.570961 
L 153.095207 184.570961 
L 153.095207 203.339474 
L 138.6017 203.339474 
z
" style="fill:#2e7ebc;"/>
   </g>
   <g id="patch_25">
    <path clip-path="url(#p69387c6990)" d="M 153.095207 184.570961 
L 167.588713 184.570961 
L 167.588713 169.778371 
L 153.095207 169.778371 
z
" style="fill:#2e7ebc;"/>
   </g>
   <g id="patch_26">
    <path clip-path="url(#p69387c6990)" d="M 167.588713 184.570961 
L 182.08222 184.570961 
L 182.08222 167.210392 
L 167.588713 167.210392 
z
" style="fill:#2e7ebc;"/>
   </g>
   <g id="patch_27">
    <path clip-path="url(#p69387c6990)" d="M 182.08222 184.570961 
L 196.575726 184.570961 
L 196.575726 123.864995 
L 182.08222 123.864995 
z
" style="fill:#2e7ebc;"/>
   </g>
   <g id="patch_28">
    <path clip-path="url(#p69387c6990)" d="M 196.575726 184.570961 
L 211.069233 184.570961 
L 211.069233 148.055169 
L 196.575726 148.055169 
z
" style="fill:#2e7ebc;"/>
   </g>
   <g id="patch_29">
    <path clip-path="url(#p69387c6990)" d="M 211.069233 184.570961 
L 225.562739 184.570961 
L 225.562739 328.22 
L 211.069233 328.22 
z
" style="fill:#2e7ebc;"/>
   </g>
   <g id="patch_30">
    <path clip-path="url(#p69387c6990)" d="M 225.562739 184.570961 
L 240.056246 184.570961 
L 240.056246 210.429968 
L 225.562739 210.429968 
z
" style="fill:#2e7ebc;"/>
   </g>
   <g id="patch_31">
    <path clip-path="url(#p69387c6990)" d="M 240.056246 184.570961 
L 254.549752 184.570961 
L 254.549752 25.82 
L 240.056246 25.82 
z
" style="fill:#2e7ebc;"/>
   </g>
   <g id="patch_32">
    <path clip-path="url(#p69387c6990)" d="M 254.549752 184.570961 
L 269.043259 184.570961 
L 269.043259 28.583826 
L 254.549752 28.583826 
z
" style="fill:#2e7ebc;"/>
   </g>
   <g id="patch_33">
    <path clip-path="url(#p69387c6990)" d="M 269.043259 184.570961 
L 283.536765 184.570961 
L 283.536765 217.819158 
L 269.043259 217.819158 
z
" style="fill:#2e7ebc;"/>
   </g>
   <g id="patch_34">
    <path clip-path="url(#p69387c6990)" d="M 283.536765 184.570961 
L 298.030272 184.570961 
L 298.030272 185.531349 
L 283.536765 185.531349 
z
" style="fill:#2e7ebc;"/>
   </g>
   <g id="patch_35">
    <path clip-path="url(#p69387c6990)" d="M 298.030272 184.570961 
L 312.523778 184.570961 
L 312.523778 163.642039 
L 298.030272 163.642039 
z
" style="fill:#2e7ebc;"/>
   </g>
   <g id="patch_36">
    <path clip-path="url(#p69387c6990)" d="M 312.523778 184.570961 
L 327.017285 184.570961 
L 327.017285 184.225138 
L 312.523778 184.225138 
z
" style="fill:#2e7ebc;"/>
   </g>
   <g id="patch_37">
    <path clip-path="url(#p69387c6990)" d="M 327.017285 184.570961 
L 341.510791 184.570961 
L 341.510791 225.276901 
L 327.017285 225.276901 
z
" style="fill:#2e7ebc;"/>
   </g>
   <g id="patch_38">
    <path clip-path="url(#p69387c6990)" d="M 341.510791 184.570961 
L 356.004298 184.570961 
L 356.004298 170.679154 
L 341.510791 170.679154 
z
" style="fill:#2e7ebc;"/>
   </g>
   <g id="patch_39">
    <path clip-path="url(#p69387c6990)" d="M 356.004298 184.570961 
L 370.497804 184.570961 
L 370.497804 203.315789 
L 356.004298 203.315789 
z
" style="fill:#2e7ebc;"/>
   </g>
   <g id="patch_40">
    <path clip-path="url(#p69387c6990)" d="M 370.497804 184.570961 
L 384.991311 184.570961 
L 384.991311 226.121155 
L 370.497804 226.121155 
z
" style="fill:#2e7ebc;"/>
   </g>
   <g id="patch_41">
    <path clip-path="url(#p69387c6990)" d="M 384.991311 184.570961 
L 399.484817 184.570961 
L 399.484817 182.554853 
L 384.991311 182.554853 
z
" style="fill:#2e7ebc;"/>
   </g>
   <g id="patch_42">
    <path clip-path="url(#p69387c6990)" d="M 399.484817 184.570961 
L 413.978324 184.570961 
L 413.978324 189.828197 
L 399.484817 189.828197 
z
" style="fill:#2e7ebc;"/>
   </g>
   <g id="patch_43">
    <path d="M 109.614688 343.34 
L 109.614688 10.7 
" style="fill:none;stroke:#000000;stroke-linecap:square;stroke-linejoin:miter;stroke-width:0.8;"/>
   </g>
   <g id="patch_44">
    <path d="M 428.47183 343.34 
L 428.47183 10.7 
" style="fill:none;stroke:#000000;stroke-linecap:square;stroke-linejoin:miter;stroke-width:0.8;"/>
   </g>
   <g id="patch_45">
    <path d="M 109.614688 343.34 
L 428.47183 343.34 
" style="fill:none;stroke:#000000;stroke-linecap:square;stroke-linejoin:miter;stroke-width:0.8;"/>
   </g>
   <g id="patch_46">
    <path d="M 109.614688 10.7 
L 428.47183 10.7 
" style="fill:none;stroke:#000000;stroke-linecap:square;stroke-linejoin:miter;stroke-width:0.8;"/>
   </g>
   <g id="patch_47">
    <path clip-path="url(#p69387c6990)" d="M 124.108194 184.570961 
L 138.6017 184.570961 
L 138.6017 184.570961 
L 124.108194 184.570961 
z
" style="fill:none;stroke:#000000;stroke-linejoin:miter;"/>
   </g>
   <g id="patch_48">
    <path clip-path="url(#p69387c6990)" d="M 138.6017 184.570961 
L 153.095207 184.570961 
L 153.095207 184.570961 
L 138.6017 184.570961 
z
" style="fill:none;stroke:#000000;stroke-linejoin:miter;"/>
   </g>
   <g id="patch_49">
    <path clip-path="url(#p69387c6990)" d="M 153.095207 184.570961 
L 167.588713 184.570961 
L 167.588713 184.570961 
L 153.095207 184.570961 
z
" style="fill:none;stroke:#000000;stroke-linejoin:miter;"/>
   </g>
   <g id="patch_50">
    <path clip-path="url(#p69387c6990)" d="M 167.588713 184.570961 
L 182.08222 184.570961 
L 182.08222 184.570961 
L 167.588713 184.570961 
z
" style="fill:none;stroke:#000000;stroke-linejoin:miter;"/>
   </g>
   <g id="patch_51">
    <path clip-path="url(#p69387c6990)" d="M 182.08222 184.570961 
L 196.575726 184.570961 
L 196.575726 184.570961 
L 182.08222 184.570961 
z
" style="fill:none;stroke:#000000;stroke-linejoin:miter;"/>
   </g>
   <g id="patch_52">
    <path clip-path="url(#p69387c6990)" d="M 196.575726 184.570961 
L 211.069233 184.570961 
L 211.069233 184.570961 
L 196.575726 184.570961 
z
" style="fill:none;stroke:#000000;stroke-linejoin:miter;"/>
   </g>
   <g id="patch_53">
    <path clip-path="url(#p69387c6990)" d="M 211.069233 184.570961 
L 225.562739 184.570961 
L 225.562739 184.570961 
L 211.069233 184.570961 
z
" style="fill:none;stroke:#000000;stroke-linejoin:miter;"/>
   </g>
   <g id="patch_54">
    <path clip-path="url(#p69387c6990)" d="M 225.562739 184.570961 
L 240.056246 184.570961 
L 240.056246 184.570961 
L 225.562739 184.570961 
z
" style="fill:none;stroke:#000000;stroke-linejoin:miter;"/>
   </g>
   <g id="patch_55">
    <path clip-path="url(#p69387c6990)" d="M 240.056246 184.570961 
L 254.549752 184.570961 
L 254.549752 184.570961 
L 240.056246 184.570961 
z
" style="fill:none;stroke:#000000;stroke-linejoin:miter;"/>
   </g>
   <g id="patch_56">
    <path clip-path="url(#p69387c6990)" d="M 254.549752 184.570961 
L 269.043259 184.570961 
L 269.043259 184.570961 
L 254.549752 184.570961 
z
" style="fill:none;stroke:#000000;stroke-linejoin:miter;"/>
   </g>
   <g id="patch_57">
    <path clip-path="url(#p69387c6990)" d="M 269.043259 184.570961 
L 283.536765 184.570961 
L 283.536765 184.570961 
L 269.043259 184.570961 
z
" style="fill:none;stroke:#000000;stroke-linejoin:miter;"/>
   </g>
   <g id="patch_58">
    <path clip-path="url(#p69387c6990)" d="M 283.536765 184.570961 
L 298.030272 184.570961 
L 298.030272 184.570961 
L 283.536765 184.570961 
z
" style="fill:none;stroke:#000000;stroke-linejoin:miter;"/>
   </g>
   <g id="patch_59">
    <path clip-path="url(#p69387c6990)" d="M 298.030272 184.570961 
L 312.523778 184.570961 
L 312.523778 184.570961 
L 298.030272 184.570961 
z
" style="fill:none;stroke:#000000;stroke-linejoin:miter;"/>
   </g>
   <g id="patch_60">
    <path clip-path="url(#p69387c6990)" d="M 312.523778 184.570961 
L 327.017285 184.570961 
L 327.017285 184.570961 
L 312.523778 184.570961 
z
" style="fill:none;stroke:#000000;stroke-linejoin:miter;"/>
   </g>
   <g id="patch_61">
    <path clip-path="url(#p69387c6990)" d="M 327.017285 184.570961 
L 341.510791 184.570961 
L 341.510791 184.570961 
L 327.017285 184.570961 
z
" style="fill:none;stroke:#000000;stroke-linejoin:miter;"/>
   </g>
   <g id="patch_62">
    <path clip-path="url(#p69387c6990)" d="M 341.510791 184.570961 
L 356.004298 184.570961 
L 356.004298 184.570961 
L 341.510791 184.570961 
z
" style="fill:none;stroke:#000000;stroke-linejoin:miter;"/>
   </g>
   <g id="patch_63">
    <path clip-path="url(#p69387c6990)" d="M 356.004298 184.570961 
L 370.497804 184.570961 
L 370.497804 184.570961 
L 356.004298 184.570961 
z
" style="fill:none;stroke:#000000;stroke-linejoin:miter;"/>
   </g>
   <g id="patch_64">
    <path clip-path="url(#p69387c6990)" d="M 370.497804 184.570961 
L 384.991311 184.570961 
L 384.991311 184.570961 
L 370.497804 184.570961 
z
" style="fill:none;stroke:#000000;stroke-linejoin:miter;"/>
   </g>
   <g id="patch_65">
    <path clip-path="url(#p69387c6990)" d="M 384.991311 184.570961 
L 399.484817 184.570961 
L 399.484817 184.570961 
L 384.991311 184.570961 
z
" style="fill:none;stroke:#000000;stroke-linejoin:miter;"/>
   </g>
   <g id="patch_66">
    <path clip-path="url(#p69387c6990)" d="M 399.484817 184.570961 
L 413.978324 184.570961 
L 413.978324 184.570961 
L 399.484817 184.570961 
z
" style="fill:none;stroke:#000000;stroke-linejoin:miter;"/>
   </g>
   <g id="patch_67">
    <path clip-path="url(#p69387c6990)" d="M 124.108194 184.570961 
L 138.6017 184.570961 
L 138.6017 184.570961 
L 124.108194 184.570961 
z
" style="fill:none;stroke:#000000;stroke-linejoin:miter;"/>
   </g>
   <g id="patch_68">
    <path clip-path="url(#p69387c6990)" d="M 138.6017 184.570961 
L 153.095207 184.570961 
L 153.095207 184.570961 
L 138.6017 184.570961 
z
" style="fill:none;stroke:#000000;stroke-linejoin:miter;"/>
   </g>
   <g id="patch_69">
    <path clip-path="url(#p69387c6990)" d="M 153.095207 184.570961 
L 167.588713 184.570961 
L 167.588713 184.570961 
L 153.095207 184.570961 
z
" style="fill:none;stroke:#000000;stroke-linejoin:miter;"/>
   </g>
   <g id="patch_70">
    <path clip-path="url(#p69387c6990)" d="M 167.588713 184.570961 
L 182.08222 184.570961 
L 182.08222 184.570961 
L 167.588713 184.570961 
z
" style="fill:none;stroke:#000000;stroke-linejoin:miter;"/>
   </g>
   <g id="patch_71">
    <path clip-path="url(#p69387c6990)" d="M 182.08222 184.570961 
L 196.575726 184.570961 
L 196.575726 184.570961 
L 182.08222 184.570961 
z
" style="fill:none;stroke:#000000;stroke-linejoin:miter;"/>
   </g>
   <g id="patch_72">
    <path clip-path="url(#p69387c6990)" d="M 196.575726 184.570961 
L 211.069233 184.570961 
L 211.069233 184.570961 
L 196.575726 184.570961 
z
" style="fill:none;stroke:#000000;stroke-linejoin:miter;"/>
   </g>
   <g id="patch_73">
    <path clip-path="url(#p69387c6990)" d="M 211.069233 184.570961 
L 225.562739 184.570961 
L 225.562739 184.570961 
L 211.069233 184.570961 
z
" style="fill:none;stroke:#000000;stroke-linejoin:miter;"/>
   </g>
   <g id="patch_74">
    <path clip-path="url(#p69387c6990)" d="M 225.562739 184.570961 
L 240.056246 184.570961 
L 240.056246 184.570961 
L 225.562739 184.570961 
z
" style="fill:none;stroke:#000000;stroke-linejoin:miter;"/>
   </g>
   <g id="patch_75">
    <path clip-path="url(#p69387c6990)" d="M 240.056246 184.570961 
L 254.549752 184.570961 
L 254.549752 184.570961 
L 240.056246 184.570961 
z
" style="fill:none;stroke:#000000;stroke-linejoin:miter;"/>
   </g>
   <g id="patch_76">
    <path clip-path="url(#p69387c6990)" d="M 254.549752 184.570961 
L 269.043259 184.570961 
L 269.043259 184.570961 
L 254.549752 184.570961 
z
" style="fill:none;stroke:#000000;stroke-linejoin:miter;"/>
   </g>
   <g id="patch_77">
    <path clip-path="url(#p69387c6990)" d="M 269.043259 184.570961 
L 283.536765 184.570961 
L 283.536765 184.570961 
L 269.043259 184.570961 
z
" style="fill:none;stroke:#000000;stroke-linejoin:miter;"/>
   </g>
   <g id="patch_78">
    <path clip-path="url(#p69387c6990)" d="M 283.536765 184.570961 
L 298.030272 184.570961 
L 298.030272 184.570961 
L 283.536765 184.570961 
z
" style="fill:none;stroke:#000000;stroke-linejoin:miter;"/>
   </g>
   <g id="patch_79">
    <path clip-path="url(#p69387c6990)" d="M 298.030272 184.570961 
L 312.523778 184.570961 
L 312.523778 184.570961 
L 298.030272 184.570961 
z
" style="fill:none;stroke:#000000;stroke-linejoin:miter;"/>
   </g>
   <g id="patch_80">
    <path clip-path="url(#p69387c6990)" d="M 312.523778 184.570961 
L 327.017285 184.570961 
L 327.017285 184.570961 
L 312.523778 184.570961 
z
" style="fill:none;stroke:#000000;stroke-linejoin:miter;"/>
   </g>
   <g id="patch_81">
    <path clip-path="url(#p69387c6990)" d="M 327.017285 184.570961 
L 341.510791 184.570961 
L 341.510791 184.570961 
L 327.017285 184.570961 
z
" style="fill:none;stroke:#000000;stroke-linejoin:miter;"/>
   </g>
   <g id="patch_82">
    <path clip-path="url(#p69387c6990)" d="M 341.510791 184.570961 
L 356.004298 184.570961 
L 356.004298 184.570961 
L 341.510791 184.570961 
z
" style="fill:none;stroke:#000000;stroke-linejoin:miter;"/>
   </g>
   <g id="patch_83">
    <path clip-path="url(#p69387c6990)" d="M 356.004298 184.570961 
L 370.497804 184.570961 
L 370.497804 184.570961 
L 356.004298 184.570961 
z
" style="fill:none;stroke:#000000;stroke-linejoin:miter;"/>
   </g>
   <g id="patch_84">
    <path clip-path="url(#p69387c6990)" d="M 370.497804 184.570961 
L 384.991311 184.570961 
L 384.991311 184.570961 
L 370.497804 184.570961 
z
" style="fill:none;stroke:#000000;stroke-linejoin:miter;"/>
   </g>
   <g id="patch_85">
    <path clip-path="url(#p69387c6990)" d="M 384.991311 184.570961 
L 399.484817 184.570961 
L 399.484817 184.570961 
L 384.991311 184.570961 
z
" style="fill:none;stroke:#000000;stroke-linejoin:miter;"/>
   </g>
   <g id="patch_86">
    <path clip-path="url(#p69387c6990)" d="M 399.484817 184.570961 
L 413.978324 184.570961 
L 413.978324 184.570961 
L 399.484817 184.570961 
z
" style="fill:none;stroke:#000000;stroke-linejoin:miter;"/>
   </g>
  </g>
 </g>
 <defs>
  <clipPath id="p69387c6990">
   <rect height="332.64" width="318.857143" x="109.614688" y="10.7"/>
  </clipPath>
 </defs>
</svg>
