<?xml version="1.0" encoding="utf-8" standalone="no"?>
<!DOCTYPE svg PUBLIC "-//W3C//DTD SVG 1.1//EN"
  "http://www.w3.org/Graphics/SVG/1.1/DTD/svg11.dtd">
<!-- Created with matplotlib (http://matplotlib.org/) -->
<svg height="355pt" version="1.1" viewBox="0 0 406 355" width="406pt" xmlns="http://www.w3.org/2000/svg" xmlns:xlink="http://www.w3.org/1999/xlink">
 <defs>
  <style type="text/css">
*{stroke-linecap:butt;stroke-linejoin:round;}
  </style>
 </defs>
 <g id="figure_1">
  <g id="patch_1">
   <path d="M 0 355.803768 
L 406.130312 355.803768 
L 406.130312 0 
L 0 0 
z
" style="fill:#ffffff;"/>
  </g>
  <g id="axes_1">
   <g id="patch_2">
    <path d="M 60.630313 343.34 
L 395.430313 343.34 
L 395.430313 10.7 
L 60.630313 10.7 
z
" style="fill:#ffffff;"/>
   </g>
   <g id="PolyCollection_1">
    <defs>
     <path d="M 75.848494 -27.583768 
L 75.848494 -184.132286 
L 79.156795 -184.132286 
L 82.465095 -184.132286 
L 85.773396 -184.132286 
L 89.081696 -184.132286 
L 92.389996 -184.132286 
L 95.698297 -184.132286 
L 99.006597 -184.132286 
L 102.314897 -184.132286 
L 105.623198 -184.132286 
L 108.931498 -184.132286 
L 112.239799 -184.132286 
L 115.548099 -184.132286 
L 118.856399 -184.132286 
L 122.1647 -184.132286 
L 125.473 -184.132286 
L 128.781301 -184.132286 
L 132.089601 -184.132286 
L 135.397901 -184.132286 
L 138.706202 -184.132286 
L 142.014502 -184.132286 
L 145.322803 -184.132286 
L 148.631103 -184.132286 
L 151.939403 -184.132286 
L 155.247704 -184.132286 
L 158.556004 -184.132286 
L 161.864305 -184.132286 
L 165.172605 -184.132286 
L 168.480905 -184.132286 
L 171.789206 -184.132286 
L 175.097506 -184.132286 
L 178.405807 -184.132286 
L 181.714107 -184.132286 
L 185.022407 -184.132286 
L 188.330708 -184.132286 
L 191.639008 -184.132286 
L 194.947309 -184.132286 
L 198.255609 -184.132286 
L 201.563909 -184.132286 
L 204.87221 -184.132286 
L 208.18051 -184.132286 
L 211.488811 -184.132286 
L 214.797111 -184.132286 
L 218.105411 -184.132286 
L 221.413712 -184.132286 
L 224.722012 -184.132286 
L 228.030313 -184.132286 
L 231.338613 -184.132286 
L 234.646913 -184.132286 
L 237.955214 -184.132286 
L 241.263514 -184.132286 
L 244.571814 -184.132286 
L 247.880115 -184.132286 
L 251.188415 -184.132286 
L 254.496716 -184.132286 
L 257.805016 -184.132286 
L 261.113316 -184.132286 
L 264.421617 -184.132286 
L 267.729917 -184.132286 
L 271.038218 -184.132286 
L 274.346518 -184.132286 
L 277.654818 -184.132286 
L 280.963119 -184.132286 
L 284.271419 -184.132286 
L 287.57972 -184.132286 
L 290.88802 -184.132286 
L 294.19632 -184.132286 
L 297.504621 -184.132286 
L 300.812921 -184.132286 
L 304.121222 -184.132286 
L 307.429522 -184.132286 
L 310.737822 -184.132286 
L 314.046123 -184.132286 
L 317.354423 -184.132286 
L 320.662724 -184.132286 
L 323.971024 -184.132286 
L 327.279324 -184.132286 
L 330.587625 -184.132286 
L 333.895925 -184.132286 
L 337.204226 -184.132286 
L 340.512526 -184.132286 
L 343.820826 -184.132286 
L 347.129127 -184.132286 
L 350.437427 -184.132286 
L 353.745728 -184.132286 
L 357.054028 -184.132286 
L 360.362328 -184.132286 
L 363.670629 -184.132286 
L 366.978929 -184.132286 
L 370.287229 -184.132286 
L 373.59553 -184.132286 
L 376.90383 -184.132286 
L 380.212131 -184.132286 
L 380.212131 -329.983768 
L 380.212131 -329.983768 
L 376.90383 -300.857557 
L 373.59553 -289.296475 
L 370.287229 -255.461138 
L 366.978929 -253.858616 
L 363.670629 -227.340645 
L 360.362328 -225.918702 
L 357.054028 -222.939335 
L 353.745728 -218.978403 
L 350.437427 -217.769789 
L 347.129127 -214.871188 
L 343.820826 -212.494891 
L 340.512526 -204.177098 
L 337.204226 -203.015363 
L 333.895925 -201.775754 
L 330.587625 -198.019111 
L 327.279324 -197.457246 
L 323.971024 -197.455019 
L 320.662724 -196.693973 
L 317.354423 -194.220063 
L 314.046123 -194.049655 
L 310.737822 -193.769941 
L 307.429522 -193.648053 
L 304.121222 -191.230295 
L 300.812921 -190.350726 
L 297.504621 -189.519175 
L 294.19632 -189.355008 
L 290.88802 -189.189596 
L 287.57972 -188.720216 
L 284.271419 -188.378762 
L 280.963119 -188.289207 
L 277.654818 -188.194439 
L 274.346518 -187.838442 
L 271.038218 -186.877845 
L 267.729917 -186.839151 
L 264.421617 -186.514255 
L 261.113316 -186.368853 
L 257.805016 -186.177573 
L 254.496716 -186.112633 
L 251.188415 -186.102613 
L 247.880115 -185.816233 
L 244.571814 -185.611787 
L 241.263514 -185.457289 
L 237.955214 -185.455414 
L 234.646913 -185.213225 
L 231.338613 -185.030175 
L 228.030313 -184.894934 
L 224.722012 -184.660462 
L 221.413712 -184.526742 
L 218.105411 -184.511129 
L 214.797111 -184.509955 
L 211.488811 -184.450623 
L 208.18051 -184.2185 
L 204.87221 -184.16888 
L 201.563909 -184.08408 
L 198.255609 -184.047703 
L 194.947309 -183.708276 
L 191.639008 -183.521098 
L 188.330708 -183.231045 
L 185.022407 -183.07269 
L 181.714107 -182.842559 
L 178.405807 -182.811288 
L 175.097506 -182.680503 
L 171.789206 -182.610266 
L 168.480905 -182.229276 
L 165.172605 -182.220237 
L 161.864305 -182.096027 
L 158.556004 -181.357133 
L 155.247704 -181.29787 
L 151.939403 -181.213537 
L 148.631103 -180.60383 
L 145.322803 -180.571651 
L 142.014502 -179.975269 
L 138.706202 -179.876336 
L 135.397901 -179.345575 
L 132.089601 -178.804719 
L 128.781301 -178.587707 
L 125.473 -178.21892 
L 122.1647 -176.120274 
L 118.856399 -174.879204 
L 115.548099 -174.548484 
L 112.239799 -174.07376 
L 108.931498 -173.979699 
L 105.623198 -172.486586 
L 102.314897 -171.409397 
L 99.006597 -165.055163 
L 95.698297 -157.095379 
L 92.389996 -149.791961 
L 89.081696 -131.713202 
L 85.773396 -98.111823 
L 82.465095 -72.886233 
L 79.156795 -62.323784 
L 75.848494 -27.583768 
z
" id="m7a3f94e75c" style="stroke:#4a98c9;"/>
    </defs>
    <g clip-path="url(#p00ee363169)">
     <use style="fill:#4a98c9;stroke:#4a98c9;" x="0" xlink:href="#m7a3f94e75c" y="355.803768"/>
    </g>
   </g>
   <g id="PolyCollection_2">
    <defs>
     <path d="M 75.848494 -77.444539 
L 75.848494 -184.132286 
L 79.156795 -184.132286 
L 82.465095 -184.132286 
L 85.773396 -184.132286 
L 89.081696 -184.132286 
L 92.389996 -184.132286 
L 95.698297 -184.132286 
L 99.006597 -184.132286 
L 102.314897 -184.132286 
L 105.623198 -184.132286 
L 108.931498 -184.132286 
L 112.239799 -184.132286 
L 115.548099 -184.132286 
L 118.856399 -184.132286 
L 122.1647 -184.132286 
L 125.473 -184.132286 
L 128.781301 -184.132286 
L 132.089601 -184.132286 
L 135.397901 -184.132286 
L 138.706202 -184.132286 
L 142.014502 -184.132286 
L 145.322803 -184.132286 
L 148.631103 -184.132286 
L 151.939403 -184.132286 
L 155.247704 -184.132286 
L 158.556004 -184.132286 
L 161.864305 -184.132286 
L 165.172605 -184.132286 
L 168.480905 -184.132286 
L 171.789206 -184.132286 
L 175.097506 -184.132286 
L 178.405807 -184.132286 
L 181.714107 -184.132286 
L 185.022407 -184.132286 
L 188.330708 -184.132286 
L 191.639008 -184.132286 
L 194.947309 -184.132286 
L 198.255609 -184.132286 
L 201.563909 -184.132286 
L 204.87221 -184.132286 
L 208.18051 -184.132286 
L 211.488811 -184.132286 
L 214.797111 -184.132286 
L 218.105411 -184.132286 
L 221.413712 -184.132286 
L 224.722012 -184.132286 
L 228.030313 -184.132286 
L 231.338613 -184.132286 
L 234.646913 -184.132286 
L 237.955214 -184.132286 
L 241.263514 -184.132286 
L 244.571814 -184.132286 
L 247.880115 -184.132286 
L 251.188415 -184.132286 
L 254.496716 -184.132286 
L 257.805016 -184.132286 
L 261.113316 -184.132286 
L 264.421617 -184.132286 
L 267.729917 -184.132286 
L 271.038218 -184.132286 
L 274.346518 -184.132286 
L 277.654818 -184.132286 
L 280.963119 -184.132286 
L 284.271419 -184.132286 
L 287.57972 -184.132286 
L 290.88802 -184.132286 
L 294.19632 -184.132286 
L 297.504621 -184.132286 
L 300.812921 -184.132286 
L 304.121222 -184.132286 
L 307.429522 -184.132286 
L 310.737822 -184.132286 
L 314.046123 -184.132286 
L 317.354423 -184.132286 
L 320.662724 -184.132286 
L 323.971024 -184.132286 
L 327.279324 -184.132286 
L 330.587625 -184.132286 
L 333.895925 -184.132286 
L 337.204226 -184.132286 
L 340.512526 -184.132286 
L 343.820826 -184.132286 
L 347.129127 -184.132286 
L 350.437427 -184.132286 
L 353.745728 -184.132286 
L 357.054028 -184.132286 
L 360.362328 -184.132286 
L 363.670629 -184.132286 
L 366.978929 -184.132286 
L 370.287229 -184.132286 
L 373.59553 -184.132286 
L 376.90383 -184.132286 
L 380.212131 -184.132286 
L 380.212131 -271.909125 
L 380.212131 -271.909125 
L 376.90383 -258.781928 
L 373.59553 -247.109423 
L 370.287229 -232.227222 
L 366.978929 -225.34686 
L 363.670629 -213.119891 
L 360.362328 -209.861432 
L 357.054028 -206.98191 
L 353.745728 -206.876031 
L 350.437427 -206.773679 
L 347.129127 -202.929761 
L 343.820826 -198.454391 
L 340.512526 -196.619148 
L 337.204226 -196.312696 
L 333.895925 -195.770107 
L 330.587625 -193.803299 
L 327.279324 -192.783263 
L 323.971024 -192.757737 
L 320.662724 -190.958257 
L 317.354423 -190.601582 
L 314.046123 -189.953388 
L 310.737822 -189.948026 
L 307.429522 -189.682985 
L 304.121222 -189.653935 
L 300.812921 -189.522502 
L 297.504621 -189.07133 
L 294.19632 -189.051654 
L 290.88802 -188.736247 
L 287.57972 -188.631499 
L 284.271419 -188.575267 
L 280.963119 -188.567656 
L 277.654818 -188.337859 
L 274.346518 -188.169675 
L 271.038218 -188.007762 
L 267.729917 -187.92868 
L 264.421617 -187.192995 
L 261.113316 -187.157799 
L 257.805016 -187.046802 
L 254.496716 -186.914136 
L 251.188415 -186.299621 
L 247.880115 -186.207984 
L 244.571814 -186.06083 
L 241.263514 -185.867136 
L 237.955214 -185.839538 
L 234.646913 -185.757577 
L 231.338613 -185.708559 
L 228.030313 -185.683525 
L 224.722012 -185.391964 
L 221.413712 -184.984358 
L 218.105411 -184.907188 
L 214.797111 -184.855372 
L 211.488811 -183.637003 
L 208.18051 -183.457192 
L 204.87221 -183.032184 
L 201.563909 -182.905113 
L 198.255609 -182.656813 
L 194.947309 -182.577956 
L 191.639008 -182.487072 
L 188.330708 -182.37239 
L 185.022407 -182.208558 
L 181.714107 -182.064218 
L 178.405807 -182.023861 
L 175.097506 -181.984056 
L 171.789206 -181.735271 
L 168.480905 -181.623421 
L 165.172605 -181.618272 
L 161.864305 -180.965834 
L 158.556004 -180.957777 
L 155.247704 -180.909209 
L 151.939403 -180.110889 
L 148.631103 -179.968111 
L 145.322803 -178.999665 
L 142.014502 -178.642248 
L 138.706202 -178.602201 
L 135.397901 -178.449681 
L 132.089601 -178.368115 
L 128.781301 -178.320923 
L 125.473 -176.565338 
L 122.1647 -175.910816 
L 118.856399 -175.519404 
L 115.548099 -173.725914 
L 112.239799 -173.382029 
L 108.931498 -170.888923 
L 105.623198 -170.16949 
L 102.314897 -169.731016 
L 99.006597 -169.481115 
L 95.698297 -165.855303 
L 92.389996 -162.962587 
L 89.081696 -162.589271 
L 85.773396 -131.345691 
L 82.465095 -128.157215 
L 79.156795 -127.62901 
L 75.848494 -77.444539 
z
" id="m1a72119031" style="stroke:#f14432;stroke-opacity:0.8;"/>
    </defs>
    <g clip-path="url(#p00ee363169)">
     <use style="fill:#f14432;fill-opacity:0.8;stroke:#f14432;stroke-opacity:0.8;" x="0" xlink:href="#m1a72119031" y="355.803768"/>
    </g>
   </g>
   <g id="matplotlib.axis_1"/>
   <g id="matplotlib.axis_2">
    <g id="ytick_1">
     <g id="line2d_1">
      <defs>
       <path d="M 0 0 
L -3.5 0 
" id="m75b6b08791" style="stroke:#000000;stroke-width:0.8;"/>
      </defs>
      <g>
       <use style="stroke:#000000;stroke-width:0.8;" x="60.630313" xlink:href="#m75b6b08791" y="335.670175"/>
      </g>
     </g>
     <g id="text_1">
      <!-- −40 -->
      <defs>
       <path d="M 10.59375 35.5 
L 73.1875 35.5 
L 73.1875 27.203125 
L 10.59375 27.203125 
z
" id="DejaVuSans-2212"/>
       <path d="M 37.796875 64.3125 
L 12.890625 25.390625 
L 37.796875 25.390625 
z
M 35.203125 72.90625 
L 47.609375 72.90625 
L 47.609375 25.390625 
L 58.015625 25.390625 
L 58.015625 17.1875 
L 47.609375 17.1875 
L 47.609375 0 
L 37.796875 0 
L 37.796875 17.1875 
L 4.890625 17.1875 
L 4.890625 26.703125 
z
" id="DejaVuSans-34"/>
       <path d="M 31.78125 66.40625 
Q 24.171875 66.40625 20.328125 58.90625 
Q 16.5 51.421875 16.5 36.375 
Q 16.5 21.390625 20.328125 13.890625 
Q 24.171875 6.390625 31.78125 6.390625 
Q 39.453125 6.390625 43.28125 13.890625 
Q 47.125 21.390625 47.125 36.375 
Q 47.125 51.421875 43.28125 58.90625 
Q 39.453125 66.40625 31.78125 66.40625 
z
M 31.78125 74.21875 
Q 44.046875 74.21875 50.515625 64.515625 
Q 56.984375 54.828125 56.984375 36.375 
Q 56.984375 17.96875 50.515625 8.265625 
Q 44.046875 -1.421875 31.78125 -1.421875 
Q 19.53125 -1.421875 13.0625 8.265625 
Q 6.59375 17.96875 6.59375 36.375 
Q 6.59375 54.828125 13.0625 64.515625 
Q 19.53125 74.21875 31.78125 74.21875 
z
" id="DejaVuSans-30"/>
      </defs>
      <g transform="translate(7.2 344.028456)scale(0.22 -0.22)">
       <use xlink:href="#DejaVuSans-2212"/>
       <use x="83.789062" xlink:href="#DejaVuSans-34"/>
       <use x="147.412109" xlink:href="#DejaVuSans-30"/>
      </g>
     </g>
    </g>
    <g id="ytick_2">
     <g id="line2d_2">
      <g>
       <use style="stroke:#000000;stroke-width:0.8;" x="60.630313" xlink:href="#m75b6b08791" y="294.670502"/>
      </g>
     </g>
     <g id="text_2">
      <!-- −30 -->
      <defs>
       <path d="M 40.578125 39.3125 
Q 47.65625 37.796875 51.625 33 
Q 55.609375 28.21875 55.609375 21.1875 
Q 55.609375 10.40625 48.1875 4.484375 
Q 40.765625 -1.421875 27.09375 -1.421875 
Q 22.515625 -1.421875 17.65625 -0.515625 
Q 12.796875 0.390625 7.625 2.203125 
L 7.625 11.71875 
Q 11.71875 9.328125 16.59375 8.109375 
Q 21.484375 6.890625 26.8125 6.890625 
Q 36.078125 6.890625 40.9375 10.546875 
Q 45.796875 14.203125 45.796875 21.1875 
Q 45.796875 27.640625 41.28125 31.265625 
Q 36.765625 34.90625 28.71875 34.90625 
L 20.21875 34.90625 
L 20.21875 43.015625 
L 29.109375 43.015625 
Q 36.375 43.015625 40.234375 45.921875 
Q 44.09375 48.828125 44.09375 54.296875 
Q 44.09375 59.90625 40.109375 62.90625 
Q 36.140625 65.921875 28.71875 65.921875 
Q 24.65625 65.921875 20.015625 65.03125 
Q 15.375 64.15625 9.8125 62.3125 
L 9.8125 71.09375 
Q 15.4375 72.65625 20.34375 73.4375 
Q 25.25 74.21875 29.59375 74.21875 
Q 40.828125 74.21875 47.359375 69.109375 
Q 53.90625 64.015625 53.90625 55.328125 
Q 53.90625 49.265625 50.4375 45.09375 
Q 46.96875 40.921875 40.578125 39.3125 
z
" id="DejaVuSans-33"/>
      </defs>
      <g transform="translate(7.2 303.028783)scale(0.22 -0.22)">
       <use xlink:href="#DejaVuSans-2212"/>
       <use x="83.789062" xlink:href="#DejaVuSans-33"/>
       <use x="147.412109" xlink:href="#DejaVuSans-30"/>
      </g>
     </g>
    </g>
    <g id="ytick_3">
     <g id="line2d_3">
      <g>
       <use style="stroke:#000000;stroke-width:0.8;" x="60.630313" xlink:href="#m75b6b08791" y="253.670829"/>
      </g>
     </g>
     <g id="text_3">
      <!-- −20 -->
      <defs>
       <path d="M 19.1875 8.296875 
L 53.609375 8.296875 
L 53.609375 0 
L 7.328125 0 
L 7.328125 8.296875 
Q 12.9375 14.109375 22.625 23.890625 
Q 32.328125 33.6875 34.8125 36.53125 
Q 39.546875 41.84375 41.421875 45.53125 
Q 43.3125 49.21875 43.3125 52.78125 
Q 43.3125 58.59375 39.234375 62.25 
Q 35.15625 65.921875 28.609375 65.921875 
Q 23.96875 65.921875 18.8125 64.3125 
Q 13.671875 62.703125 7.8125 59.421875 
L 7.8125 69.390625 
Q 13.765625 71.78125 18.9375 73 
Q 24.125 74.21875 28.421875 74.21875 
Q 39.75 74.21875 46.484375 68.546875 
Q 53.21875 62.890625 53.21875 53.421875 
Q 53.21875 48.921875 51.53125 44.890625 
Q 49.859375 40.875 45.40625 35.40625 
Q 44.1875 33.984375 37.640625 27.21875 
Q 31.109375 20.453125 19.1875 8.296875 
z
" id="DejaVuSans-32"/>
      </defs>
      <g transform="translate(7.2 262.02911)scale(0.22 -0.22)">
       <use xlink:href="#DejaVuSans-2212"/>
       <use x="83.789062" xlink:href="#DejaVuSans-32"/>
       <use x="147.412109" xlink:href="#DejaVuSans-30"/>
      </g>
     </g>
    </g>
    <g id="ytick_4">
     <g id="line2d_4">
      <g>
       <use style="stroke:#000000;stroke-width:0.8;" x="60.630313" xlink:href="#m75b6b08791" y="212.671156"/>
      </g>
     </g>
     <g id="text_4">
      <!-- −10 -->
      <defs>
       <path d="M 12.40625 8.296875 
L 28.515625 8.296875 
L 28.515625 63.921875 
L 10.984375 60.40625 
L 10.984375 69.390625 
L 28.421875 72.90625 
L 38.28125 72.90625 
L 38.28125 8.296875 
L 54.390625 8.296875 
L 54.390625 0 
L 12.40625 0 
z
" id="DejaVuSans-31"/>
      </defs>
      <g transform="translate(7.2 221.029437)scale(0.22 -0.22)">
       <use xlink:href="#DejaVuSans-2212"/>
       <use x="83.789062" xlink:href="#DejaVuSans-31"/>
       <use x="147.412109" xlink:href="#DejaVuSans-30"/>
      </g>
     </g>
    </g>
    <g id="ytick_5">
     <g id="line2d_5">
      <g>
       <use style="stroke:#000000;stroke-width:0.8;" x="60.630313" xlink:href="#m75b6b08791" y="171.671483"/>
      </g>
     </g>
     <g id="text_5">
      <!-- 0 -->
      <g transform="translate(39.632812 180.029764)scale(0.22 -0.22)">
       <use xlink:href="#DejaVuSans-30"/>
      </g>
     </g>
    </g>
    <g id="ytick_6">
     <g id="line2d_6">
      <g>
       <use style="stroke:#000000;stroke-width:0.8;" x="60.630313" xlink:href="#m75b6b08791" y="130.67181"/>
      </g>
     </g>
     <g id="text_6">
      <!-- 10 -->
      <g transform="translate(25.635313 139.030091)scale(0.22 -0.22)">
       <use xlink:href="#DejaVuSans-31"/>
       <use x="63.623047" xlink:href="#DejaVuSans-30"/>
      </g>
     </g>
    </g>
    <g id="ytick_7">
     <g id="line2d_7">
      <g>
       <use style="stroke:#000000;stroke-width:0.8;" x="60.630313" xlink:href="#m75b6b08791" y="89.672137"/>
      </g>
     </g>
     <g id="text_7">
      <!-- 20 -->
      <g transform="translate(25.635313 98.030418)scale(0.22 -0.22)">
       <use xlink:href="#DejaVuSans-32"/>
       <use x="63.623047" xlink:href="#DejaVuSans-30"/>
      </g>
     </g>
    </g>
    <g id="ytick_8">
     <g id="line2d_8">
      <g>
       <use style="stroke:#000000;stroke-width:0.8;" x="60.630313" xlink:href="#m75b6b08791" y="48.672464"/>
      </g>
     </g>
     <g id="text_8">
      <!-- 30 -->
      <g transform="translate(25.635313 57.030745)scale(0.22 -0.22)">
       <use xlink:href="#DejaVuSans-33"/>
       <use x="63.623047" xlink:href="#DejaVuSans-30"/>
      </g>
     </g>
    </g>
   </g>
   <g id="patch_3">
    <path d="M 60.630313 343.34 
L 60.630313 10.7 
" style="fill:none;stroke:#000000;stroke-linecap:square;stroke-linejoin:miter;stroke-width:0.8;"/>
   </g>
   <g id="patch_4">
    <path d="M 395.430313 343.34 
L 395.430313 10.7 
" style="fill:none;stroke:#000000;stroke-linecap:square;stroke-linejoin:miter;stroke-width:0.8;"/>
   </g>
   <g id="patch_5">
    <path d="M 60.630312 343.34 
L 395.430313 343.34 
" style="fill:none;stroke:#000000;stroke-linecap:square;stroke-linejoin:miter;stroke-width:0.8;"/>
   </g>
   <g id="patch_6">
    <path d="M 60.630312 10.7 
L 395.430313 10.7 
" style="fill:none;stroke:#000000;stroke-linecap:square;stroke-linejoin:miter;stroke-width:0.8;"/>
   </g>
  </g>
 </g>
 <defs>
  <clipPath id="p00ee363169">
   <rect height="332.64" width="334.8" x="60.630313" y="10.7"/>
  </clipPath>
 </defs>
</svg>
