<?xml version="1.0" encoding="utf-8" standalone="no"?>
<!DOCTYPE svg PUBLIC "-//W3C//DTD SVG 1.1//EN"
  "http://www.w3.org/Graphics/SVG/1.1/DTD/svg11.dtd">
<!-- Created with matplotlib (http://matplotlib.org/) -->
<svg height="355pt" version="1.1" viewBox="0 0 453 355" width="453pt" xmlns="http://www.w3.org/2000/svg" xmlns:xlink="http://www.w3.org/1999/xlink">
 <defs>
  <style type="text/css">
*{stroke-linecap:butt;stroke-linejoin:round;}
  </style>
 </defs>
 <g id="figure_1">
  <g id="patch_1">
   <path d="M 0 355.359499 
L 453.16933 355.359499 
L 453.16933 0 
L 0 0 
z
" style="fill:#ffffff;"/>
  </g>
  <g id="axes_1">
   <g id="patch_2">
    <path d="M 123.612188 344.659499 
L 442.46933 344.659499 
L 442.46933 12.019499 
L 123.612188 12.019499 
z
" style="fill:#ffffff;"/>
   </g>
   <g id="matplotlib.axis_1"/>
   <g id="matplotlib.axis_2">
    <g id="ytick_1">
     <g id="line2d_1">
      <defs>
       <path d="M 0 0 
L -3.5 0 
" id="m0661f118b8" style="stroke:#000000;stroke-width:0.8;"/>
      </defs>
      <g>
       <use style="stroke:#000000;stroke-width:0.8;" x="123.612188" xlink:href="#m0661f118b8" y="333.852626"/>
      </g>
     </g>
     <g id="text_1">
      <!-- −0.00100 -->
      <defs>
       <path d="M 10.59375 35.5 
L 73.1875 35.5 
L 73.1875 27.203125 
L 10.59375 27.203125 
z
" id="DejaVuSans-2212"/>
       <path d="M 31.78125 66.40625 
Q 24.171875 66.40625 20.328125 58.90625 
Q 16.5 51.421875 16.5 36.375 
Q 16.5 21.390625 20.328125 13.890625 
Q 24.171875 6.390625 31.78125 6.390625 
Q 39.453125 6.390625 43.28125 13.890625 
Q 47.125 21.390625 47.125 36.375 
Q 47.125 51.421875 43.28125 58.90625 
Q 39.453125 66.40625 31.78125 66.40625 
z
M 31.78125 74.21875 
Q 44.046875 74.21875 50.515625 64.515625 
Q 56.984375 54.828125 56.984375 36.375 
Q 56.984375 17.96875 50.515625 8.265625 
Q 44.046875 -1.421875 31.78125 -1.421875 
Q 19.53125 -1.421875 13.0625 8.265625 
Q 6.59375 17.96875 6.59375 36.375 
Q 6.59375 54.828125 13.0625 64.515625 
Q 19.53125 74.21875 31.78125 74.21875 
z
" id="DejaVuSans-30"/>
       <path d="M 10.6875 12.40625 
L 21 12.40625 
L 21 0 
L 10.6875 0 
z
" id="DejaVuSans-2e"/>
       <path d="M 12.40625 8.296875 
L 28.515625 8.296875 
L 28.515625 63.921875 
L 10.984375 60.40625 
L 10.984375 69.390625 
L 28.421875 72.90625 
L 38.28125 72.90625 
L 38.28125 8.296875 
L 54.390625 8.296875 
L 54.390625 0 
L 12.40625 0 
z
" id="DejaVuSans-31"/>
      </defs>
      <g transform="translate(7.2 342.210907)scale(0.22 -0.22)">
       <use xlink:href="#DejaVuSans-2212"/>
       <use x="83.789062" xlink:href="#DejaVuSans-30"/>
       <use x="147.412109" xlink:href="#DejaVuSans-2e"/>
       <use x="179.199219" xlink:href="#DejaVuSans-30"/>
       <use x="242.822266" xlink:href="#DejaVuSans-30"/>
       <use x="306.445312" xlink:href="#DejaVuSans-31"/>
       <use x="370.068359" xlink:href="#DejaVuSans-30"/>
       <use x="433.691406" xlink:href="#DejaVuSans-30"/>
      </g>
     </g>
    </g>
    <g id="ytick_2">
     <g id="line2d_2">
      <g>
       <use style="stroke:#000000;stroke-width:0.8;" x="123.612188" xlink:href="#m0661f118b8" y="294.065833"/>
      </g>
     </g>
     <g id="text_2">
      <!-- −0.00075 -->
      <defs>
       <path d="M 8.203125 72.90625 
L 55.078125 72.90625 
L 55.078125 68.703125 
L 28.609375 0 
L 18.3125 0 
L 43.21875 64.59375 
L 8.203125 64.59375 
z
" id="DejaVuSans-37"/>
       <path d="M 10.796875 72.90625 
L 49.515625 72.90625 
L 49.515625 64.59375 
L 19.828125 64.59375 
L 19.828125 46.734375 
Q 21.96875 47.46875 24.109375 47.828125 
Q 26.265625 48.1875 28.421875 48.1875 
Q 40.625 48.1875 47.75 41.5 
Q 54.890625 34.8125 54.890625 23.390625 
Q 54.890625 11.625 47.5625 5.09375 
Q 40.234375 -1.421875 26.90625 -1.421875 
Q 22.3125 -1.421875 17.546875 -0.640625 
Q 12.796875 0.140625 7.71875 1.703125 
L 7.71875 11.625 
Q 12.109375 9.234375 16.796875 8.0625 
Q 21.484375 6.890625 26.703125 6.890625 
Q 35.15625 6.890625 40.078125 11.328125 
Q 45.015625 15.765625 45.015625 23.390625 
Q 45.015625 31 40.078125 35.4375 
Q 35.15625 39.890625 26.703125 39.890625 
Q 22.75 39.890625 18.8125 39.015625 
Q 14.890625 38.140625 10.796875 36.28125 
z
" id="DejaVuSans-35"/>
      </defs>
      <g transform="translate(7.2 302.424114)scale(0.22 -0.22)">
       <use xlink:href="#DejaVuSans-2212"/>
       <use x="83.789062" xlink:href="#DejaVuSans-30"/>
       <use x="147.412109" xlink:href="#DejaVuSans-2e"/>
       <use x="179.199219" xlink:href="#DejaVuSans-30"/>
       <use x="242.822266" xlink:href="#DejaVuSans-30"/>
       <use x="306.445312" xlink:href="#DejaVuSans-30"/>
       <use x="370.068359" xlink:href="#DejaVuSans-37"/>
       <use x="433.691406" xlink:href="#DejaVuSans-35"/>
      </g>
     </g>
    </g>
    <g id="ytick_3">
     <g id="line2d_3">
      <g>
       <use style="stroke:#000000;stroke-width:0.8;" x="123.612188" xlink:href="#m0661f118b8" y="254.27904"/>
      </g>
     </g>
     <g id="text_3">
      <!-- −0.00050 -->
      <g transform="translate(7.2 262.637321)scale(0.22 -0.22)">
       <use xlink:href="#DejaVuSans-2212"/>
       <use x="83.789062" xlink:href="#DejaVuSans-30"/>
       <use x="147.412109" xlink:href="#DejaVuSans-2e"/>
       <use x="179.199219" xlink:href="#DejaVuSans-30"/>
       <use x="242.822266" xlink:href="#DejaVuSans-30"/>
       <use x="306.445312" xlink:href="#DejaVuSans-30"/>
       <use x="370.068359" xlink:href="#DejaVuSans-35"/>
       <use x="433.691406" xlink:href="#DejaVuSans-30"/>
      </g>
     </g>
    </g>
    <g id="ytick_4">
     <g id="line2d_4">
      <g>
       <use style="stroke:#000000;stroke-width:0.8;" x="123.612188" xlink:href="#m0661f118b8" y="214.492247"/>
      </g>
     </g>
     <g id="text_4">
      <!-- −0.00025 -->
      <defs>
       <path d="M 19.1875 8.296875 
L 53.609375 8.296875 
L 53.609375 0 
L 7.328125 0 
L 7.328125 8.296875 
Q 12.9375 14.109375 22.625 23.890625 
Q 32.328125 33.6875 34.8125 36.53125 
Q 39.546875 41.84375 41.421875 45.53125 
Q 43.3125 49.21875 43.3125 52.78125 
Q 43.3125 58.59375 39.234375 62.25 
Q 35.15625 65.921875 28.609375 65.921875 
Q 23.96875 65.921875 18.8125 64.3125 
Q 13.671875 62.703125 7.8125 59.421875 
L 7.8125 69.390625 
Q 13.765625 71.78125 18.9375 73 
Q 24.125 74.21875 28.421875 74.21875 
Q 39.75 74.21875 46.484375 68.546875 
Q 53.21875 62.890625 53.21875 53.421875 
Q 53.21875 48.921875 51.53125 44.890625 
Q 49.859375 40.875 45.40625 35.40625 
Q 44.1875 33.984375 37.640625 27.21875 
Q 31.109375 20.453125 19.1875 8.296875 
z
" id="DejaVuSans-32"/>
      </defs>
      <g transform="translate(7.2 222.850528)scale(0.22 -0.22)">
       <use xlink:href="#DejaVuSans-2212"/>
       <use x="83.789062" xlink:href="#DejaVuSans-30"/>
       <use x="147.412109" xlink:href="#DejaVuSans-2e"/>
       <use x="179.199219" xlink:href="#DejaVuSans-30"/>
       <use x="242.822266" xlink:href="#DejaVuSans-30"/>
       <use x="306.445312" xlink:href="#DejaVuSans-30"/>
       <use x="370.068359" xlink:href="#DejaVuSans-32"/>
       <use x="433.691406" xlink:href="#DejaVuSans-35"/>
      </g>
     </g>
    </g>
    <g id="ytick_5">
     <g id="line2d_5">
      <g>
       <use style="stroke:#000000;stroke-width:0.8;" x="123.612188" xlink:href="#m0661f118b8" y="174.705454"/>
      </g>
     </g>
     <g id="text_5">
      <!-- 0.00000 -->
      <g transform="translate(25.635312 183.063735)scale(0.22 -0.22)">
       <use xlink:href="#DejaVuSans-30"/>
       <use x="63.623047" xlink:href="#DejaVuSans-2e"/>
       <use x="95.410156" xlink:href="#DejaVuSans-30"/>
       <use x="159.033203" xlink:href="#DejaVuSans-30"/>
       <use x="222.65625" xlink:href="#DejaVuSans-30"/>
       <use x="286.279297" xlink:href="#DejaVuSans-30"/>
       <use x="349.902344" xlink:href="#DejaVuSans-30"/>
      </g>
     </g>
    </g>
    <g id="ytick_6">
     <g id="line2d_6">
      <g>
       <use style="stroke:#000000;stroke-width:0.8;" x="123.612188" xlink:href="#m0661f118b8" y="134.91866"/>
      </g>
     </g>
     <g id="text_6">
      <!-- 0.00025 -->
      <g transform="translate(25.635312 143.276942)scale(0.22 -0.22)">
       <use xlink:href="#DejaVuSans-30"/>
       <use x="63.623047" xlink:href="#DejaVuSans-2e"/>
       <use x="95.410156" xlink:href="#DejaVuSans-30"/>
       <use x="159.033203" xlink:href="#DejaVuSans-30"/>
       <use x="222.65625" xlink:href="#DejaVuSans-30"/>
       <use x="286.279297" xlink:href="#DejaVuSans-32"/>
       <use x="349.902344" xlink:href="#DejaVuSans-35"/>
      </g>
     </g>
    </g>
    <g id="ytick_7">
     <g id="line2d_7">
      <g>
       <use style="stroke:#000000;stroke-width:0.8;" x="123.612188" xlink:href="#m0661f118b8" y="95.131867"/>
      </g>
     </g>
     <g id="text_7">
      <!-- 0.00050 -->
      <g transform="translate(25.635312 103.490149)scale(0.22 -0.22)">
       <use xlink:href="#DejaVuSans-30"/>
       <use x="63.623047" xlink:href="#DejaVuSans-2e"/>
       <use x="95.410156" xlink:href="#DejaVuSans-30"/>
       <use x="159.033203" xlink:href="#DejaVuSans-30"/>
       <use x="222.65625" xlink:href="#DejaVuSans-30"/>
       <use x="286.279297" xlink:href="#DejaVuSans-35"/>
       <use x="349.902344" xlink:href="#DejaVuSans-30"/>
      </g>
     </g>
    </g>
    <g id="ytick_8">
     <g id="line2d_8">
      <g>
       <use style="stroke:#000000;stroke-width:0.8;" x="123.612188" xlink:href="#m0661f118b8" y="55.345074"/>
      </g>
     </g>
     <g id="text_8">
      <!-- 0.00075 -->
      <g transform="translate(25.635312 63.703356)scale(0.22 -0.22)">
       <use xlink:href="#DejaVuSans-30"/>
       <use x="63.623047" xlink:href="#DejaVuSans-2e"/>
       <use x="95.410156" xlink:href="#DejaVuSans-30"/>
       <use x="159.033203" xlink:href="#DejaVuSans-30"/>
       <use x="222.65625" xlink:href="#DejaVuSans-30"/>
       <use x="286.279297" xlink:href="#DejaVuSans-37"/>
       <use x="349.902344" xlink:href="#DejaVuSans-35"/>
      </g>
     </g>
    </g>
    <g id="ytick_9">
     <g id="line2d_9">
      <g>
       <use style="stroke:#000000;stroke-width:0.8;" x="123.612188" xlink:href="#m0661f118b8" y="15.558281"/>
      </g>
     </g>
     <g id="text_9">
      <!-- 0.00100 -->
      <g transform="translate(25.635312 23.916562)scale(0.22 -0.22)">
       <use xlink:href="#DejaVuSans-30"/>
       <use x="63.623047" xlink:href="#DejaVuSans-2e"/>
       <use x="95.410156" xlink:href="#DejaVuSans-30"/>
       <use x="159.033203" xlink:href="#DejaVuSans-30"/>
       <use x="222.65625" xlink:href="#DejaVuSans-31"/>
       <use x="286.279297" xlink:href="#DejaVuSans-30"/>
       <use x="349.902344" xlink:href="#DejaVuSans-30"/>
      </g>
     </g>
    </g>
   </g>
   <g id="patch_3">
    <path clip-path="url(#pba33d70787)" d="M 138.105694 174.705454 
L 152.5992 174.705454 
L 152.5992 150.763398 
L 138.105694 150.763398 
z
" style="fill:#d92523;"/>
   </g>
   <g id="patch_4">
    <path clip-path="url(#pba33d70787)" d="M 152.5992 174.705454 
L 167.092707 174.705454 
L 167.092707 185.111396 
L 152.5992 185.111396 
z
" style="fill:#d92523;"/>
   </g>
   <g id="patch_5">
    <path clip-path="url(#pba33d70787)" d="M 167.092707 174.705454 
L 181.586213 174.705454 
L 181.586213 249.352231 
L 167.092707 249.352231 
z
" style="fill:#d92523;"/>
   </g>
   <g id="patch_6">
    <path clip-path="url(#pba33d70787)" d="M 181.586213 174.705454 
L 196.07972 174.705454 
L 196.07972 182.145599 
L 181.586213 182.145599 
z
" style="fill:#d92523;"/>
   </g>
   <g id="patch_7">
    <path clip-path="url(#pba33d70787)" d="M 196.07972 174.705454 
L 210.573226 174.705454 
L 210.573226 181.804127 
L 196.07972 181.804127 
z
" style="fill:#d92523;"/>
   </g>
   <g id="patch_8">
    <path clip-path="url(#pba33d70787)" d="M 210.573226 174.705454 
L 225.066733 174.705454 
L 225.066733 107.120795 
L 210.573226 107.120795 
z
" style="fill:#d92523;"/>
   </g>
   <g id="patch_9">
    <path clip-path="url(#pba33d70787)" d="M 225.066733 174.705454 
L 239.560239 174.705454 
L 239.560239 184.806642 
L 225.066733 184.806642 
z
" style="fill:#d92523;"/>
   </g>
   <g id="patch_10">
    <path clip-path="url(#pba33d70787)" d="M 239.560239 174.705454 
L 254.053746 174.705454 
L 254.053746 87.105119 
L 239.560239 87.105119 
z
" style="fill:#d92523;"/>
   </g>
   <g id="patch_11">
    <path clip-path="url(#pba33d70787)" d="M 254.053746 174.705454 
L 268.547252 174.705454 
L 268.547252 153.277875 
L 254.053746 153.277875 
z
" style="fill:#d92523;"/>
   </g>
   <g id="patch_12">
    <path clip-path="url(#pba33d70787)" d="M 268.547252 174.705454 
L 283.040759 174.705454 
L 283.040759 57.73517 
L 268.547252 57.73517 
z
" style="fill:#d92523;"/>
   </g>
   <g id="patch_13">
    <path clip-path="url(#pba33d70787)" d="M 283.040759 174.705454 
L 297.534265 174.705454 
L 297.534265 183.245407 
L 283.040759 183.245407 
z
" style="fill:#d92523;"/>
   </g>
   <g id="patch_14">
    <path clip-path="url(#pba33d70787)" d="M 297.534265 174.705454 
L 312.027772 174.705454 
L 312.027772 238.623154 
L 297.534265 238.623154 
z
" style="fill:#d92523;"/>
   </g>
   <g id="patch_15">
    <path clip-path="url(#pba33d70787)" d="M 312.027772 174.705454 
L 326.521278 174.705454 
L 326.521278 27.139499 
L 312.027772 27.139499 
z
" style="fill:#d92523;"/>
   </g>
   <g id="patch_16">
    <path clip-path="url(#pba33d70787)" d="M 326.521278 174.705454 
L 341.014785 174.705454 
L 341.014785 118.527574 
L 326.521278 118.527574 
z
" style="fill:#d92523;"/>
   </g>
   <g id="patch_17">
    <path clip-path="url(#pba33d70787)" d="M 341.014785 174.705454 
L 355.508291 174.705454 
L 355.508291 235.284285 
L 341.014785 235.284285 
z
" style="fill:#d92523;"/>
   </g>
   <g id="patch_18">
    <path clip-path="url(#pba33d70787)" d="M 355.508291 174.705454 
L 370.001798 174.705454 
L 370.001798 157.637791 
L 355.508291 157.637791 
z
" style="fill:#d92523;"/>
   </g>
   <g id="patch_19">
    <path clip-path="url(#pba33d70787)" d="M 370.001798 174.705454 
L 384.495304 174.705454 
L 384.495304 298.386276 
L 370.001798 298.386276 
z
" style="fill:#d92523;"/>
   </g>
   <g id="patch_20">
    <path clip-path="url(#pba33d70787)" d="M 384.495304 174.705454 
L 398.988811 174.705454 
L 398.988811 179.761835 
L 384.495304 179.761835 
z
" style="fill:#d92523;"/>
   </g>
   <g id="patch_21">
    <path clip-path="url(#pba33d70787)" d="M 398.988811 174.705454 
L 413.482317 174.705454 
L 413.482317 100.537537 
L 398.988811 100.537537 
z
" style="fill:#d92523;"/>
   </g>
   <g id="patch_22">
    <path clip-path="url(#pba33d70787)" d="M 413.482317 174.705454 
L 427.975824 174.705454 
L 427.975824 123.621524 
L 413.482317 123.621524 
z
" style="fill:#d92523;"/>
   </g>
   <g id="patch_23">
    <path clip-path="url(#pba33d70787)" d="M 138.105694 174.705454 
L 152.5992 174.705454 
L 152.5992 107.077404 
L 138.105694 107.077404 
z
" style="fill:#2e7ebc;"/>
   </g>
   <g id="patch_24">
    <path clip-path="url(#pba33d70787)" d="M 152.5992 174.705454 
L 167.092707 174.705454 
L 167.092707 218.201918 
L 152.5992 218.201918 
z
" style="fill:#2e7ebc;"/>
   </g>
   <g id="patch_25">
    <path clip-path="url(#pba33d70787)" d="M 167.092707 174.705454 
L 181.586213 174.705454 
L 181.586213 148.717175 
L 167.092707 148.717175 
z
" style="fill:#2e7ebc;"/>
   </g>
   <g id="patch_26">
    <path clip-path="url(#pba33d70787)" d="M 181.586213 174.705454 
L 196.07972 174.705454 
L 196.07972 138.901763 
L 181.586213 138.901763 
z
" style="fill:#2e7ebc;"/>
   </g>
   <g id="patch_27">
    <path clip-path="url(#pba33d70787)" d="M 196.07972 174.705454 
L 210.573226 174.705454 
L 210.573226 329.539499 
L 196.07972 329.539499 
z
" style="fill:#2e7ebc;"/>
   </g>
   <g id="patch_28">
    <path clip-path="url(#pba33d70787)" d="M 210.573226 174.705454 
L 225.066733 174.705454 
L 225.066733 153.971858 
L 210.573226 153.971858 
z
" style="fill:#2e7ebc;"/>
   </g>
   <g id="patch_29">
    <path clip-path="url(#pba33d70787)" d="M 225.066733 174.705454 
L 239.560239 174.705454 
L 239.560239 204.967557 
L 225.066733 204.967557 
z
" style="fill:#2e7ebc;"/>
   </g>
   <g id="patch_30">
    <path clip-path="url(#pba33d70787)" d="M 239.560239 174.705454 
L 254.053746 174.705454 
L 254.053746 227.90502 
L 239.560239 227.90502 
z
" style="fill:#2e7ebc;"/>
   </g>
   <g id="patch_31">
    <path clip-path="url(#pba33d70787)" d="M 254.053746 174.705454 
L 268.547252 174.705454 
L 268.547252 167.192897 
L 254.053746 167.192897 
z
" style="fill:#2e7ebc;"/>
   </g>
   <g id="patch_32">
    <path clip-path="url(#pba33d70787)" d="M 268.547252 174.705454 
L 283.040759 174.705454 
L 283.040759 212.388679 
L 268.547252 212.388679 
z
" style="fill:#2e7ebc;"/>
   </g>
   <g id="patch_33">
    <path clip-path="url(#pba33d70787)" d="M 283.040759 174.705454 
L 297.534265 174.705454 
L 297.534265 148.131684 
L 283.040759 148.131684 
z
" style="fill:#2e7ebc;"/>
   </g>
   <g id="patch_34">
    <path clip-path="url(#pba33d70787)" d="M 297.534265 174.705454 
L 312.027772 174.705454 
L 312.027772 123.558731 
L 297.534265 123.558731 
z
" style="fill:#2e7ebc;"/>
   </g>
   <g id="patch_35">
    <path clip-path="url(#pba33d70787)" d="M 312.027772 174.705454 
L 326.521278 174.705454 
L 326.521278 187.215397 
L 312.027772 187.215397 
z
" style="fill:#2e7ebc;"/>
   </g>
   <g id="patch_36">
    <path clip-path="url(#pba33d70787)" d="M 326.521278 174.705454 
L 341.014785 174.705454 
L 341.014785 177.731245 
L 326.521278 177.731245 
z
" style="fill:#2e7ebc;"/>
   </g>
   <g id="patch_37">
    <path clip-path="url(#pba33d70787)" d="M 341.014785 174.705454 
L 355.508291 174.705454 
L 355.508291 176.869098 
L 341.014785 176.869098 
z
" style="fill:#2e7ebc;"/>
   </g>
   <g id="patch_38">
    <path clip-path="url(#pba33d70787)" d="M 355.508291 174.705454 
L 370.001798 174.705454 
L 370.001798 231.473297 
L 355.508291 231.473297 
z
" style="fill:#2e7ebc;"/>
   </g>
   <g id="patch_39">
    <path clip-path="url(#pba33d70787)" d="M 370.001798 174.705454 
L 384.495304 174.705454 
L 384.495304 106.819026 
L 370.001798 106.819026 
z
" style="fill:#2e7ebc;"/>
   </g>
   <g id="patch_40">
    <path clip-path="url(#pba33d70787)" d="M 384.495304 174.705454 
L 398.988811 174.705454 
L 398.988811 211.988392 
L 384.495304 211.988392 
z
" style="fill:#2e7ebc;"/>
   </g>
   <g id="patch_41">
    <path clip-path="url(#pba33d70787)" d="M 398.988811 174.705454 
L 413.482317 174.705454 
L 413.482317 220.37532 
L 398.988811 220.37532 
z
" style="fill:#2e7ebc;"/>
   </g>
   <g id="patch_42">
    <path clip-path="url(#pba33d70787)" d="M 413.482317 174.705454 
L 427.975824 174.705454 
L 427.975824 261.64277 
L 413.482317 261.64277 
z
" style="fill:#2e7ebc;"/>
   </g>
   <g id="patch_43">
    <path d="M 123.612188 344.659499 
L 123.612188 12.019499 
" style="fill:none;stroke:#000000;stroke-linecap:square;stroke-linejoin:miter;stroke-width:0.8;"/>
   </g>
   <g id="patch_44">
    <path d="M 442.46933 344.659499 
L 442.46933 12.019499 
" style="fill:none;stroke:#000000;stroke-linecap:square;stroke-linejoin:miter;stroke-width:0.8;"/>
   </g>
   <g id="patch_45">
    <path d="M 123.612188 344.659499 
L 442.46933 344.659499 
" style="fill:none;stroke:#000000;stroke-linecap:square;stroke-linejoin:miter;stroke-width:0.8;"/>
   </g>
   <g id="patch_46">
    <path d="M 123.612188 12.019499 
L 442.46933 12.019499 
" style="fill:none;stroke:#000000;stroke-linecap:square;stroke-linejoin:miter;stroke-width:0.8;"/>
   </g>
   <g id="patch_47">
    <path clip-path="url(#pba33d70787)" d="M 138.105694 174.705454 
L 152.5992 174.705454 
L 152.5992 174.705454 
L 138.105694 174.705454 
z
" style="fill:none;stroke:#000000;stroke-linejoin:miter;"/>
   </g>
   <g id="patch_48">
    <path clip-path="url(#pba33d70787)" d="M 152.5992 174.705454 
L 167.092707 174.705454 
L 167.092707 174.705454 
L 152.5992 174.705454 
z
" style="fill:none;stroke:#000000;stroke-linejoin:miter;"/>
   </g>
   <g id="patch_49">
    <path clip-path="url(#pba33d70787)" d="M 167.092707 174.705454 
L 181.586213 174.705454 
L 181.586213 174.705454 
L 167.092707 174.705454 
z
" style="fill:none;stroke:#000000;stroke-linejoin:miter;"/>
   </g>
   <g id="patch_50">
    <path clip-path="url(#pba33d70787)" d="M 181.586213 174.705454 
L 196.07972 174.705454 
L 196.07972 174.705454 
L 181.586213 174.705454 
z
" style="fill:none;stroke:#000000;stroke-linejoin:miter;"/>
   </g>
   <g id="patch_51">
    <path clip-path="url(#pba33d70787)" d="M 196.07972 174.705454 
L 210.573226 174.705454 
L 210.573226 174.705454 
L 196.07972 174.705454 
z
" style="fill:none;stroke:#000000;stroke-linejoin:miter;"/>
   </g>
   <g id="patch_52">
    <path clip-path="url(#pba33d70787)" d="M 210.573226 174.705454 
L 225.066733 174.705454 
L 225.066733 174.705454 
L 210.573226 174.705454 
z
" style="fill:none;stroke:#000000;stroke-linejoin:miter;"/>
   </g>
   <g id="patch_53">
    <path clip-path="url(#pba33d70787)" d="M 225.066733 174.705454 
L 239.560239 174.705454 
L 239.560239 174.705454 
L 225.066733 174.705454 
z
" style="fill:none;stroke:#000000;stroke-linejoin:miter;"/>
   </g>
   <g id="patch_54">
    <path clip-path="url(#pba33d70787)" d="M 239.560239 174.705454 
L 254.053746 174.705454 
L 254.053746 174.705454 
L 239.560239 174.705454 
z
" style="fill:none;stroke:#000000;stroke-linejoin:miter;"/>
   </g>
   <g id="patch_55">
    <path clip-path="url(#pba33d70787)" d="M 254.053746 174.705454 
L 268.547252 174.705454 
L 268.547252 174.705454 
L 254.053746 174.705454 
z
" style="fill:none;stroke:#000000;stroke-linejoin:miter;"/>
   </g>
   <g id="patch_56">
    <path clip-path="url(#pba33d70787)" d="M 268.547252 174.705454 
L 283.040759 174.705454 
L 283.040759 174.705454 
L 268.547252 174.705454 
z
" style="fill:none;stroke:#000000;stroke-linejoin:miter;"/>
   </g>
   <g id="patch_57">
    <path clip-path="url(#pba33d70787)" d="M 283.040759 174.705454 
L 297.534265 174.705454 
L 297.534265 174.705454 
L 283.040759 174.705454 
z
" style="fill:none;stroke:#000000;stroke-linejoin:miter;"/>
   </g>
   <g id="patch_58">
    <path clip-path="url(#pba33d70787)" d="M 297.534265 174.705454 
L 312.027772 174.705454 
L 312.027772 174.705454 
L 297.534265 174.705454 
z
" style="fill:none;stroke:#000000;stroke-linejoin:miter;"/>
   </g>
   <g id="patch_59">
    <path clip-path="url(#pba33d70787)" d="M 312.027772 174.705454 
L 326.521278 174.705454 
L 326.521278 174.705454 
L 312.027772 174.705454 
z
" style="fill:none;stroke:#000000;stroke-linejoin:miter;"/>
   </g>
   <g id="patch_60">
    <path clip-path="url(#pba33d70787)" d="M 326.521278 174.705454 
L 341.014785 174.705454 
L 341.014785 174.705454 
L 326.521278 174.705454 
z
" style="fill:none;stroke:#000000;stroke-linejoin:miter;"/>
   </g>
   <g id="patch_61">
    <path clip-path="url(#pba33d70787)" d="M 341.014785 174.705454 
L 355.508291 174.705454 
L 355.508291 174.705454 
L 341.014785 174.705454 
z
" style="fill:none;stroke:#000000;stroke-linejoin:miter;"/>
   </g>
   <g id="patch_62">
    <path clip-path="url(#pba33d70787)" d="M 355.508291 174.705454 
L 370.001798 174.705454 
L 370.001798 174.705454 
L 355.508291 174.705454 
z
" style="fill:none;stroke:#000000;stroke-linejoin:miter;"/>
   </g>
   <g id="patch_63">
    <path clip-path="url(#pba33d70787)" d="M 370.001798 174.705454 
L 384.495304 174.705454 
L 384.495304 174.705454 
L 370.001798 174.705454 
z
" style="fill:none;stroke:#000000;stroke-linejoin:miter;"/>
   </g>
   <g id="patch_64">
    <path clip-path="url(#pba33d70787)" d="M 384.495304 174.705454 
L 398.988811 174.705454 
L 398.988811 174.705454 
L 384.495304 174.705454 
z
" style="fill:none;stroke:#000000;stroke-linejoin:miter;"/>
   </g>
   <g id="patch_65">
    <path clip-path="url(#pba33d70787)" d="M 398.988811 174.705454 
L 413.482317 174.705454 
L 413.482317 174.705454 
L 398.988811 174.705454 
z
" style="fill:none;stroke:#000000;stroke-linejoin:miter;"/>
   </g>
   <g id="patch_66">
    <path clip-path="url(#pba33d70787)" d="M 413.482317 174.705454 
L 427.975824 174.705454 
L 427.975824 174.705454 
L 413.482317 174.705454 
z
" style="fill:none;stroke:#000000;stroke-linejoin:miter;"/>
   </g>
   <g id="patch_67">
    <path clip-path="url(#pba33d70787)" d="M 138.105694 174.705454 
L 152.5992 174.705454 
L 152.5992 174.705454 
L 138.105694 174.705454 
z
" style="fill:none;stroke:#000000;stroke-linejoin:miter;"/>
   </g>
   <g id="patch_68">
    <path clip-path="url(#pba33d70787)" d="M 152.5992 174.705454 
L 167.092707 174.705454 
L 167.092707 174.705454 
L 152.5992 174.705454 
z
" style="fill:none;stroke:#000000;stroke-linejoin:miter;"/>
   </g>
   <g id="patch_69">
    <path clip-path="url(#pba33d70787)" d="M 167.092707 174.705454 
L 181.586213 174.705454 
L 181.586213 174.705454 
L 167.092707 174.705454 
z
" style="fill:none;stroke:#000000;stroke-linejoin:miter;"/>
   </g>
   <g id="patch_70">
    <path clip-path="url(#pba33d70787)" d="M 181.586213 174.705454 
L 196.07972 174.705454 
L 196.07972 174.705454 
L 181.586213 174.705454 
z
" style="fill:none;stroke:#000000;stroke-linejoin:miter;"/>
   </g>
   <g id="patch_71">
    <path clip-path="url(#pba33d70787)" d="M 196.07972 174.705454 
L 210.573226 174.705454 
L 210.573226 174.705454 
L 196.07972 174.705454 
z
" style="fill:none;stroke:#000000;stroke-linejoin:miter;"/>
   </g>
   <g id="patch_72">
    <path clip-path="url(#pba33d70787)" d="M 210.573226 174.705454 
L 225.066733 174.705454 
L 225.066733 174.705454 
L 210.573226 174.705454 
z
" style="fill:none;stroke:#000000;stroke-linejoin:miter;"/>
   </g>
   <g id="patch_73">
    <path clip-path="url(#pba33d70787)" d="M 225.066733 174.705454 
L 239.560239 174.705454 
L 239.560239 174.705454 
L 225.066733 174.705454 
z
" style="fill:none;stroke:#000000;stroke-linejoin:miter;"/>
   </g>
   <g id="patch_74">
    <path clip-path="url(#pba33d70787)" d="M 239.560239 174.705454 
L 254.053746 174.705454 
L 254.053746 174.705454 
L 239.560239 174.705454 
z
" style="fill:none;stroke:#000000;stroke-linejoin:miter;"/>
   </g>
   <g id="patch_75">
    <path clip-path="url(#pba33d70787)" d="M 254.053746 174.705454 
L 268.547252 174.705454 
L 268.547252 174.705454 
L 254.053746 174.705454 
z
" style="fill:none;stroke:#000000;stroke-linejoin:miter;"/>
   </g>
   <g id="patch_76">
    <path clip-path="url(#pba33d70787)" d="M 268.547252 174.705454 
L 283.040759 174.705454 
L 283.040759 174.705454 
L 268.547252 174.705454 
z
" style="fill:none;stroke:#000000;stroke-linejoin:miter;"/>
   </g>
   <g id="patch_77">
    <path clip-path="url(#pba33d70787)" d="M 283.040759 174.705454 
L 297.534265 174.705454 
L 297.534265 174.705454 
L 283.040759 174.705454 
z
" style="fill:none;stroke:#000000;stroke-linejoin:miter;"/>
   </g>
   <g id="patch_78">
    <path clip-path="url(#pba33d70787)" d="M 297.534265 174.705454 
L 312.027772 174.705454 
L 312.027772 174.705454 
L 297.534265 174.705454 
z
" style="fill:none;stroke:#000000;stroke-linejoin:miter;"/>
   </g>
   <g id="patch_79">
    <path clip-path="url(#pba33d70787)" d="M 312.027772 174.705454 
L 326.521278 174.705454 
L 326.521278 174.705454 
L 312.027772 174.705454 
z
" style="fill:none;stroke:#000000;stroke-linejoin:miter;"/>
   </g>
   <g id="patch_80">
    <path clip-path="url(#pba33d70787)" d="M 326.521278 174.705454 
L 341.014785 174.705454 
L 341.014785 174.705454 
L 326.521278 174.705454 
z
" style="fill:none;stroke:#000000;stroke-linejoin:miter;"/>
   </g>
   <g id="patch_81">
    <path clip-path="url(#pba33d70787)" d="M 341.014785 174.705454 
L 355.508291 174.705454 
L 355.508291 174.705454 
L 341.014785 174.705454 
z
" style="fill:none;stroke:#000000;stroke-linejoin:miter;"/>
   </g>
   <g id="patch_82">
    <path clip-path="url(#pba33d70787)" d="M 355.508291 174.705454 
L 370.001798 174.705454 
L 370.001798 174.705454 
L 355.508291 174.705454 
z
" style="fill:none;stroke:#000000;stroke-linejoin:miter;"/>
   </g>
   <g id="patch_83">
    <path clip-path="url(#pba33d70787)" d="M 370.001798 174.705454 
L 384.495304 174.705454 
L 384.495304 174.705454 
L 370.001798 174.705454 
z
" style="fill:none;stroke:#000000;stroke-linejoin:miter;"/>
   </g>
   <g id="patch_84">
    <path clip-path="url(#pba33d70787)" d="M 384.495304 174.705454 
L 398.988811 174.705454 
L 398.988811 174.705454 
L 384.495304 174.705454 
z
" style="fill:none;stroke:#000000;stroke-linejoin:miter;"/>
   </g>
   <g id="patch_85">
    <path clip-path="url(#pba33d70787)" d="M 398.988811 174.705454 
L 413.482317 174.705454 
L 413.482317 174.705454 
L 398.988811 174.705454 
z
" style="fill:none;stroke:#000000;stroke-linejoin:miter;"/>
   </g>
   <g id="patch_86">
    <path clip-path="url(#pba33d70787)" d="M 413.482317 174.705454 
L 427.975824 174.705454 
L 427.975824 174.705454 
L 413.482317 174.705454 
z
" style="fill:none;stroke:#000000;stroke-linejoin:miter;"/>
   </g>
  </g>
 </g>
 <defs>
  <clipPath id="pba33d70787">
   <rect height="332.64" width="318.857143" x="123.612188" y="12.019499"/>
  </clipPath>
 </defs>
</svg>
