<?xml version="1.0" encoding="utf-8" standalone="no"?>
<!DOCTYPE svg PUBLIC "-//W3C//DTD SVG 1.1//EN"
  "http://www.w3.org/Graphics/SVG/1.1/DTD/svg11.dtd">
<!-- Created with matplotlib (http://matplotlib.org/) -->
<svg height="357pt" version="1.1" viewBox="0 0 196 357" width="196pt" xmlns="http://www.w3.org/2000/svg" xmlns:xlink="http://www.w3.org/1999/xlink">
 <defs>
  <style type="text/css">
*{stroke-linecap:butt;stroke-linejoin:round;}
  </style>
 </defs>
 <g id="figure_1">
  <g id="patch_1">
   <path d="M 0 357.520093 
L 196.927813 357.520093 
L 196.927813 0 
L 0 0 
z
" style="fill:#ffffff;"/>
  </g>
  <g id="axes_1">
   <g id="patch_2">
    <path d="M 74.627813 343.34 
L 186.227812 343.34 
L 186.227812 10.7 
L 74.627813 10.7 
z
" style="fill:#ffffff;"/>
   </g>
   <g id="matplotlib.axis_1"/>
   <g id="matplotlib.axis_2">
    <g id="ytick_1">
     <g id="line2d_1">
      <defs>
       <path d="M 0 0 
L -3.5 0 
" id="m59f4716884" style="stroke:#000000;stroke-width:0.8;"/>
      </defs>
      <g>
       <use style="stroke:#000000;stroke-width:0.8;" x="74.627813" xlink:href="#m59f4716884" y="337.386499"/>
      </g>
     </g>
     <g id="text_1">
      <!-- −150 -->
      <defs>
       <path d="M 10.59375 35.5 
L 73.1875 35.5 
L 73.1875 27.203125 
L 10.59375 27.203125 
z
" id="DejaVuSans-2212"/>
       <path d="M 12.40625 8.296875 
L 28.515625 8.296875 
L 28.515625 63.921875 
L 10.984375 60.40625 
L 10.984375 69.390625 
L 28.421875 72.90625 
L 38.28125 72.90625 
L 38.28125 8.296875 
L 54.390625 8.296875 
L 54.390625 0 
L 12.40625 0 
z
" id="DejaVuSans-31"/>
       <path d="M 10.796875 72.90625 
L 49.515625 72.90625 
L 49.515625 64.59375 
L 19.828125 64.59375 
L 19.828125 46.734375 
Q 21.96875 47.46875 24.109375 47.828125 
Q 26.265625 48.1875 28.421875 48.1875 
Q 40.625 48.1875 47.75 41.5 
Q 54.890625 34.8125 54.890625 23.390625 
Q 54.890625 11.625 47.5625 5.09375 
Q 40.234375 -1.421875 26.90625 -1.421875 
Q 22.3125 -1.421875 17.546875 -0.640625 
Q 12.796875 0.140625 7.71875 1.703125 
L 7.71875 11.625 
Q 12.109375 9.234375 16.796875 8.0625 
Q 21.484375 6.890625 26.703125 6.890625 
Q 35.15625 6.890625 40.078125 11.328125 
Q 45.015625 15.765625 45.015625 23.390625 
Q 45.015625 31 40.078125 35.4375 
Q 35.15625 39.890625 26.703125 39.890625 
Q 22.75 39.890625 18.8125 39.015625 
Q 14.890625 38.140625 10.796875 36.28125 
z
" id="DejaVuSans-35"/>
       <path d="M 31.78125 66.40625 
Q 24.171875 66.40625 20.328125 58.90625 
Q 16.5 51.421875 16.5 36.375 
Q 16.5 21.390625 20.328125 13.890625 
Q 24.171875 6.390625 31.78125 6.390625 
Q 39.453125 6.390625 43.28125 13.890625 
Q 47.125 21.390625 47.125 36.375 
Q 47.125 51.421875 43.28125 58.90625 
Q 39.453125 66.40625 31.78125 66.40625 
z
M 31.78125 74.21875 
Q 44.046875 74.21875 50.515625 64.515625 
Q 56.984375 54.828125 56.984375 36.375 
Q 56.984375 17.96875 50.515625 8.265625 
Q 44.046875 -1.421875 31.78125 -1.421875 
Q 19.53125 -1.421875 13.0625 8.265625 
Q 6.59375 17.96875 6.59375 36.375 
Q 6.59375 54.828125 13.0625 64.515625 
Q 19.53125 74.21875 31.78125 74.21875 
z
" id="DejaVuSans-30"/>
      </defs>
      <g transform="translate(7.2 345.744781)scale(0.22 -0.22)">
       <use xlink:href="#DejaVuSans-2212"/>
       <use x="83.789062" xlink:href="#DejaVuSans-31"/>
       <use x="147.412109" xlink:href="#DejaVuSans-35"/>
       <use x="211.035156" xlink:href="#DejaVuSans-30"/>
      </g>
     </g>
    </g>
    <g id="ytick_2">
     <g id="line2d_2">
      <g>
       <use style="stroke:#000000;stroke-width:0.8;" x="74.627813" xlink:href="#m59f4716884" y="283.931"/>
      </g>
     </g>
     <g id="text_2">
      <!-- −100 -->
      <g transform="translate(7.2 292.289281)scale(0.22 -0.22)">
       <use xlink:href="#DejaVuSans-2212"/>
       <use x="83.789062" xlink:href="#DejaVuSans-31"/>
       <use x="147.412109" xlink:href="#DejaVuSans-30"/>
       <use x="211.035156" xlink:href="#DejaVuSans-30"/>
      </g>
     </g>
    </g>
    <g id="ytick_3">
     <g id="line2d_3">
      <g>
       <use style="stroke:#000000;stroke-width:0.8;" x="74.627813" xlink:href="#m59f4716884" y="230.4755"/>
      </g>
     </g>
     <g id="text_3">
      <!-- −50 -->
      <g transform="translate(21.1975 238.833781)scale(0.22 -0.22)">
       <use xlink:href="#DejaVuSans-2212"/>
       <use x="83.789062" xlink:href="#DejaVuSans-35"/>
       <use x="147.412109" xlink:href="#DejaVuSans-30"/>
      </g>
     </g>
    </g>
    <g id="ytick_4">
     <g id="line2d_4">
      <g>
       <use style="stroke:#000000;stroke-width:0.8;" x="74.627813" xlink:href="#m59f4716884" y="177.02"/>
      </g>
     </g>
     <g id="text_4">
      <!-- 0 -->
      <g transform="translate(53.630313 185.378281)scale(0.22 -0.22)">
       <use xlink:href="#DejaVuSans-30"/>
      </g>
     </g>
    </g>
    <g id="ytick_5">
     <g id="line2d_5">
      <g>
       <use style="stroke:#000000;stroke-width:0.8;" x="74.627813" xlink:href="#m59f4716884" y="123.5645"/>
      </g>
     </g>
     <g id="text_5">
      <!-- 50 -->
      <g transform="translate(39.632812 131.922781)scale(0.22 -0.22)">
       <use xlink:href="#DejaVuSans-35"/>
       <use x="63.623047" xlink:href="#DejaVuSans-30"/>
      </g>
     </g>
    </g>
    <g id="ytick_6">
     <g id="line2d_6">
      <g>
       <use style="stroke:#000000;stroke-width:0.8;" x="74.627813" xlink:href="#m59f4716884" y="70.109"/>
      </g>
     </g>
     <g id="text_6">
      <!-- 100 -->
      <g transform="translate(25.635313 78.467282)scale(0.22 -0.22)">
       <use xlink:href="#DejaVuSans-31"/>
       <use x="63.623047" xlink:href="#DejaVuSans-30"/>
       <use x="127.246094" xlink:href="#DejaVuSans-30"/>
      </g>
     </g>
    </g>
    <g id="ytick_7">
     <g id="line2d_7">
      <g>
       <use style="stroke:#000000;stroke-width:0.8;" x="74.627813" xlink:href="#m59f4716884" y="16.653501"/>
      </g>
     </g>
     <g id="text_7">
      <!-- 150 -->
      <g transform="translate(25.635313 25.011782)scale(0.22 -0.22)">
       <use xlink:href="#DejaVuSans-31"/>
       <use x="63.623047" xlink:href="#DejaVuSans-35"/>
       <use x="127.246094" xlink:href="#DejaVuSans-30"/>
      </g>
     </g>
    </g>
   </g>
   <g id="patch_3">
    <path clip-path="url(#p8c309ba7df)" d="M 79.70054 177.02 
L 94.194046 177.02 
L 94.194046 63.922796 
L 79.70054 63.922796 
z
" style="fill:#4a98c9;"/>
   </g>
   <g id="patch_4">
    <path clip-path="url(#p8c309ba7df)" d="M 94.194046 177.02 
L 108.687553 177.02 
L 108.687553 69.254277 
L 94.194046 69.254277 
z
" style="fill:#4a98c9;"/>
   </g>
   <g id="patch_5">
    <path clip-path="url(#p8c309ba7df)" d="M 108.687553 177.02 
L 123.181059 177.02 
L 123.181059 83.339437 
L 108.687553 83.339437 
z
" style="fill:#4a98c9;"/>
   </g>
   <g id="patch_6">
    <path clip-path="url(#p8c309ba7df)" d="M 123.181059 177.02 
L 137.674566 177.02 
L 137.674566 84.200774 
L 123.181059 84.200774 
z
" style="fill:#4a98c9;"/>
   </g>
   <g id="patch_7">
    <path clip-path="url(#p8c309ba7df)" d="M 137.674566 177.02 
L 152.168072 177.02 
L 152.168072 86.023687 
L 137.674566 86.023687 
z
" style="fill:#4a98c9;"/>
   </g>
   <g id="patch_8">
    <path clip-path="url(#p8c309ba7df)" d="M 152.168072 177.02 
L 166.661579 177.02 
L 166.661579 104.666357 
L 152.168072 104.666357 
z
" style="fill:#4a98c9;"/>
   </g>
   <g id="patch_9">
    <path clip-path="url(#p8c309ba7df)" d="M 166.661579 177.02 
L 181.155085 177.02 
L 181.155085 112.678001 
L 166.661579 112.678001 
z
" style="fill:#4a98c9;"/>
   </g>
   <g id="patch_10">
    <path clip-path="url(#p8c309ba7df)" d="M 79.70054 177.02 
L 94.194046 177.02 
L 94.194046 299.471776 
L 79.70054 299.471776 
z
" style="fill:#f14432;"/>
   </g>
   <g id="patch_11">
    <path clip-path="url(#p8c309ba7df)" d="M 94.194046 177.02 
L 108.687553 177.02 
L 108.687553 293.262555 
L 94.194046 293.262555 
z
" style="fill:#f14432;"/>
   </g>
   <g id="patch_12">
    <path clip-path="url(#p8c309ba7df)" d="M 108.687553 177.02 
L 123.181059 177.02 
L 123.181059 277.187539 
L 108.687553 277.187539 
z
" style="fill:#f14432;"/>
   </g>
   <g id="patch_13">
    <path clip-path="url(#p8c309ba7df)" d="M 123.181059 177.02 
L 137.674566 177.02 
L 137.674566 276.681948 
L 123.181059 276.681948 
z
" style="fill:#f14432;"/>
   </g>
   <g id="patch_14">
    <path clip-path="url(#p8c309ba7df)" d="M 137.674566 177.02 
L 152.168072 177.02 
L 152.168072 274.135966 
L 137.674566 274.135966 
z
" style="fill:#f14432;"/>
   </g>
   <g id="patch_15">
    <path clip-path="url(#p8c309ba7df)" d="M 152.168072 177.02 
L 166.661579 177.02 
L 166.661579 252.72494 
L 152.168072 252.72494 
z
" style="fill:#f14432;"/>
   </g>
   <g id="patch_16">
    <path clip-path="url(#p8c309ba7df)" d="M 166.661579 177.02 
L 181.155085 177.02 
L 181.155085 243.735125 
L 166.661579 243.735125 
z
" style="fill:#f14432;"/>
   </g>
   <g id="patch_17">
    <path d="M 74.627813 343.34 
L 74.627813 10.7 
" style="fill:none;stroke:#000000;stroke-linecap:square;stroke-linejoin:miter;stroke-width:0.8;"/>
   </g>
   <g id="patch_18">
    <path d="M 186.227812 343.34 
L 186.227812 10.7 
" style="fill:none;stroke:#000000;stroke-linecap:square;stroke-linejoin:miter;stroke-width:0.8;"/>
   </g>
   <g id="patch_19">
    <path d="M 74.627813 343.34 
L 186.227813 343.34 
" style="fill:none;stroke:#000000;stroke-linecap:square;stroke-linejoin:miter;stroke-width:0.8;"/>
   </g>
   <g id="patch_20">
    <path d="M 74.627813 10.7 
L 186.227813 10.7 
" style="fill:none;stroke:#000000;stroke-linecap:square;stroke-linejoin:miter;stroke-width:0.8;"/>
   </g>
   <g id="patch_21">
    <path clip-path="url(#p8c309ba7df)" d="M 79.70054 177.02 
L 94.194046 177.02 
L 94.194046 25.82 
L 79.70054 25.82 
z
" style="fill:none;stroke:#000000;stroke-linejoin:miter;"/>
   </g>
   <g id="patch_22">
    <path clip-path="url(#p8c309ba7df)" d="M 94.194046 177.02 
L 108.687553 177.02 
L 108.687553 33.237836 
L 94.194046 33.237836 
z
" style="fill:none;stroke:#000000;stroke-linejoin:miter;"/>
   </g>
   <g id="patch_23">
    <path clip-path="url(#p8c309ba7df)" d="M 108.687553 177.02 
L 123.181059 177.02 
L 123.181059 53.192101 
L 108.687553 53.192101 
z
" style="fill:none;stroke:#000000;stroke-linejoin:miter;"/>
   </g>
   <g id="patch_24">
    <path clip-path="url(#p8c309ba7df)" d="M 123.181059 177.02 
L 137.674566 177.02 
L 137.674566 54.674416 
L 123.181059 54.674416 
z
" style="fill:none;stroke:#000000;stroke-linejoin:miter;"/>
   </g>
   <g id="patch_25">
    <path clip-path="url(#p8c309ba7df)" d="M 137.674566 177.02 
L 152.168072 177.02 
L 152.168072 57.043554 
L 137.674566 57.043554 
z
" style="fill:none;stroke:#000000;stroke-linejoin:miter;"/>
   </g>
   <g id="patch_26">
    <path clip-path="url(#p8c309ba7df)" d="M 152.168072 177.02 
L 166.661579 177.02 
L 166.661579 83.342401 
L 152.168072 83.342401 
z
" style="fill:none;stroke:#000000;stroke-linejoin:miter;"/>
   </g>
   <g id="patch_27">
    <path clip-path="url(#p8c309ba7df)" d="M 166.661579 177.02 
L 181.155085 177.02 
L 181.155085 94.711924 
L 166.661579 94.711924 
z
" style="fill:none;stroke:#000000;stroke-linejoin:miter;"/>
   </g>
   <g id="patch_28">
    <path clip-path="url(#p8c309ba7df)" d="M 79.70054 177.02 
L 94.194046 177.02 
L 94.194046 328.22 
L 79.70054 328.22 
z
" style="fill:none;stroke:#000000;stroke-linejoin:miter;"/>
   </g>
   <g id="patch_29">
    <path clip-path="url(#p8c309ba7df)" d="M 94.194046 177.02 
L 108.687553 177.02 
L 108.687553 320.802164 
L 94.194046 320.802164 
z
" style="fill:none;stroke:#000000;stroke-linejoin:miter;"/>
   </g>
   <g id="patch_30">
    <path clip-path="url(#p8c309ba7df)" d="M 108.687553 177.02 
L 123.181059 177.02 
L 123.181059 300.847899 
L 108.687553 300.847899 
z
" style="fill:none;stroke:#000000;stroke-linejoin:miter;"/>
   </g>
   <g id="patch_31">
    <path clip-path="url(#p8c309ba7df)" d="M 123.181059 177.02 
L 137.674566 177.02 
L 137.674566 299.365584 
L 123.181059 299.365584 
z
" style="fill:none;stroke:#000000;stroke-linejoin:miter;"/>
   </g>
   <g id="patch_32">
    <path clip-path="url(#p8c309ba7df)" d="M 137.674566 177.02 
L 152.168072 177.02 
L 152.168072 296.996446 
L 137.674566 296.996446 
z
" style="fill:none;stroke:#000000;stroke-linejoin:miter;"/>
   </g>
   <g id="patch_33">
    <path clip-path="url(#p8c309ba7df)" d="M 152.168072 177.02 
L 166.661579 177.02 
L 166.661579 270.697599 
L 152.168072 270.697599 
z
" style="fill:none;stroke:#000000;stroke-linejoin:miter;"/>
   </g>
   <g id="patch_34">
    <path clip-path="url(#p8c309ba7df)" d="M 166.661579 177.02 
L 181.155085 177.02 
L 181.155085 259.328076 
L 166.661579 259.328076 
z
" style="fill:none;stroke:#000000;stroke-linejoin:miter;"/>
   </g>
  </g>
 </g>
 <defs>
  <clipPath id="p8c309ba7df">
   <rect height="332.64" width="111.6" x="74.627813" y="10.7"/>
  </clipPath>
 </defs>
</svg>
