<?xml version="1.0" encoding="utf-8" standalone="no"?>
<!DOCTYPE svg PUBLIC "-//W3C//DTD SVG 1.1//EN"
  "http://www.w3.org/Graphics/SVG/1.1/DTD/svg11.dtd">
<!-- Created with matplotlib (http://matplotlib.org/) -->
<svg height="356pt" version="1.1" viewBox="0 0 427 356" width="427pt" xmlns="http://www.w3.org/2000/svg" xmlns:xlink="http://www.w3.org/1999/xlink">
 <defs>
  <style type="text/css">
*{stroke-linecap:butt;stroke-linejoin:round;}
  </style>
 </defs>
 <g id="figure_1">
  <g id="patch_1">
   <path d="M 0 356.249059 
L 427.119687 356.249059 
L 427.119687 0 
L 0 0 
z
" style="fill:#ffffff;"/>
  </g>
  <g id="axes_1">
   <g id="patch_2">
    <path d="M 81.619687 343.34 
L 416.419688 343.34 
L 416.419688 10.7 
L 81.619687 10.7 
z
" style="fill:#ffffff;"/>
   </g>
   <g id="PolyCollection_1">
    <defs>
     <path d="M 96.837869 -28.029059 
L 96.837869 -178.918549 
L 100.14617 -178.918549 
L 103.45447 -178.918549 
L 106.762771 -178.918549 
L 110.071071 -178.918549 
L 113.379371 -178.918549 
L 116.687672 -178.918549 
L 119.995972 -178.918549 
L 123.304272 -178.918549 
L 126.612573 -178.918549 
L 129.920873 -178.918549 
L 133.229174 -178.918549 
L 136.537474 -178.918549 
L 139.845774 -178.918549 
L 143.154075 -178.918549 
L 146.462375 -178.918549 
L 149.770676 -178.918549 
L 153.078976 -178.918549 
L 156.387276 -178.918549 
L 159.695577 -178.918549 
L 163.003877 -178.918549 
L 166.312178 -178.918549 
L 169.620478 -178.918549 
L 172.928778 -178.918549 
L 176.237079 -178.918549 
L 179.545379 -178.918549 
L 182.85368 -178.918549 
L 186.16198 -178.918549 
L 189.47028 -178.918549 
L 192.778581 -178.918549 
L 196.086881 -178.918549 
L 199.395182 -178.918549 
L 202.703482 -178.918549 
L 206.011782 -178.918549 
L 209.320083 -178.918549 
L 212.628383 -178.918549 
L 215.936684 -178.918549 
L 219.244984 -178.918549 
L 222.553284 -178.918549 
L 225.861585 -178.918549 
L 229.169885 -178.918549 
L 232.478186 -178.918549 
L 235.786486 -178.918549 
L 239.094786 -178.918549 
L 242.403087 -178.918549 
L 245.711387 -178.918549 
L 249.019688 -178.918549 
L 252.327988 -178.918549 
L 255.636288 -178.918549 
L 258.944589 -178.918549 
L 262.252889 -178.918549 
L 265.561189 -178.918549 
L 268.86949 -178.918549 
L 272.17779 -178.918549 
L 275.486091 -178.918549 
L 278.794391 -178.918549 
L 282.102691 -178.918549 
L 285.410992 -178.918549 
L 288.719292 -178.918549 
L 292.027593 -178.918549 
L 295.335893 -178.918549 
L 298.644193 -178.918549 
L 301.952494 -178.918549 
L 305.260794 -178.918549 
L 308.569095 -178.918549 
L 311.877395 -178.918549 
L 315.185695 -178.918549 
L 318.493996 -178.918549 
L 321.802296 -178.918549 
L 325.110597 -178.918549 
L 328.418897 -178.918549 
L 331.727197 -178.918549 
L 335.035498 -178.918549 
L 338.343798 -178.918549 
L 341.652099 -178.918549 
L 344.960399 -178.918549 
L 348.268699 -178.918549 
L 351.577 -178.918549 
L 354.8853 -178.918549 
L 358.193601 -178.918549 
L 361.501901 -178.918549 
L 364.810201 -178.918549 
L 368.118502 -178.918549 
L 371.426802 -178.918549 
L 374.735103 -178.918549 
L 378.043403 -178.918549 
L 381.351703 -178.918549 
L 384.660004 -178.918549 
L 387.968304 -178.918549 
L 391.276604 -178.918549 
L 394.584905 -178.918549 
L 397.893205 -178.918549 
L 401.201506 -178.918549 
L 401.201506 -330.429059 
L 401.201506 -330.429059 
L 397.893205 -330.312891 
L 394.584905 -329.339048 
L 391.276604 -306.555034 
L 387.968304 -290.811813 
L 384.660004 -286.988152 
L 381.351703 -283.099851 
L 378.043403 -279.578589 
L 374.735103 -266.049602 
L 371.426802 -261.680556 
L 368.118502 -260.133287 
L 364.810201 -258.209158 
L 361.501901 -257.414007 
L 358.193601 -255.502771 
L 354.8853 -248.046512 
L 351.577 -247.977647 
L 348.268699 -232.563645 
L 344.960399 -222.50215 
L 341.652099 -222.344973 
L 338.343798 -216.700091 
L 335.035498 -213.762722 
L 331.727197 -213.736975 
L 328.418897 -207.076482 
L 325.110597 -193.46011 
L 321.802296 -192.162381 
L 318.493996 -191.766218 
L 315.185695 -189.341213 
L 311.877395 -188.758641 
L 308.569095 -184.310523 
L 305.260794 -184.188571 
L 301.952494 -179.671874 
L 298.644193 -179.42268 
L 295.335893 -179.337799 
L 292.027593 -179.318568 
L 288.719292 -179.24971 
L 285.410992 -179.219879 
L 282.102691 -179.174094 
L 278.794391 -179.172616 
L 275.486091 -179.164021 
L 272.17779 -179.067764 
L 268.86949 -179.063136 
L 265.561189 -179.035602 
L 262.252889 -179.030607 
L 258.944589 -179.030477 
L 255.636288 -179.024284 
L 252.327988 -179.019887 
L 249.019688 -178.98991 
L 245.711387 -178.985485 
L 242.403087 -178.97322 
L 239.094786 -178.9648 
L 235.786486 -178.952398 
L 232.478186 -178.95101 
L 229.169885 -178.946528 
L 225.861585 -178.941535 
L 222.553284 -178.937972 
L 219.244984 -178.908598 
L 215.936684 -178.898307 
L 212.628383 -178.880848 
L 209.320083 -178.86556 
L 206.011782 -178.850353 
L 202.703482 -178.840883 
L 199.395182 -178.837103 
L 196.086881 -178.748183 
L 192.778581 -178.739345 
L 189.47028 -178.725067 
L 186.16198 -178.70962 
L 182.85368 -178.701707 
L 179.545379 -178.695142 
L 176.237079 -178.661592 
L 172.928778 -178.623022 
L 169.620478 -178.62208 
L 166.312178 -178.601856 
L 163.003877 -178.591671 
L 159.695577 -178.427504 
L 156.387276 -177.933672 
L 153.078976 -177.719542 
L 149.770676 -177.715311 
L 146.462375 -176.840408 
L 143.154075 -176.559871 
L 139.845774 -156.929157 
L 136.537474 -156.445236 
L 133.229174 -143.993394 
L 129.920873 -132.150853 
L 126.612573 -131.754391 
L 123.304272 -130.78634 
L 119.995972 -117.551792 
L 116.687672 -99.587671 
L 113.379371 -90.935737 
L 110.071071 -83.903295 
L 106.762771 -81.879611 
L 103.45447 -34.094597 
L 100.14617 -32.678232 
L 96.837869 -28.029059 
z
" id="mab72091f25" style="stroke:#4a98c9;"/>
    </defs>
    <g clip-path="url(#peda85360ce)">
     <use style="fill:#4a98c9;stroke:#4a98c9;" x="0" xlink:href="#mab72091f25" y="356.249059"/>
    </g>
   </g>
   <g id="PolyCollection_2">
    <defs>
     <path d="M 96.837869 -95.303452 
L 96.837869 -178.918549 
L 100.14617 -178.918549 
L 103.45447 -178.918549 
L 106.762771 -178.918549 
L 110.071071 -178.918549 
L 113.379371 -178.918549 
L 116.687672 -178.918549 
L 119.995972 -178.918549 
L 123.304272 -178.918549 
L 126.612573 -178.918549 
L 129.920873 -178.918549 
L 133.229174 -178.918549 
L 136.537474 -178.918549 
L 139.845774 -178.918549 
L 143.154075 -178.918549 
L 146.462375 -178.918549 
L 149.770676 -178.918549 
L 153.078976 -178.918549 
L 156.387276 -178.918549 
L 159.695577 -178.918549 
L 163.003877 -178.918549 
L 166.312178 -178.918549 
L 169.620478 -178.918549 
L 172.928778 -178.918549 
L 176.237079 -178.918549 
L 179.545379 -178.918549 
L 182.85368 -178.918549 
L 186.16198 -178.918549 
L 189.47028 -178.918549 
L 192.778581 -178.918549 
L 196.086881 -178.918549 
L 199.395182 -178.918549 
L 202.703482 -178.918549 
L 206.011782 -178.918549 
L 209.320083 -178.918549 
L 212.628383 -178.918549 
L 215.936684 -178.918549 
L 219.244984 -178.918549 
L 222.553284 -178.918549 
L 225.861585 -178.918549 
L 229.169885 -178.918549 
L 232.478186 -178.918549 
L 235.786486 -178.918549 
L 239.094786 -178.918549 
L 242.403087 -178.918549 
L 245.711387 -178.918549 
L 249.019688 -178.918549 
L 252.327988 -178.918549 
L 255.636288 -178.918549 
L 258.944589 -178.918549 
L 262.252889 -178.918549 
L 265.561189 -178.918549 
L 268.86949 -178.918549 
L 272.17779 -178.918549 
L 275.486091 -178.918549 
L 278.794391 -178.918549 
L 282.102691 -178.918549 
L 285.410992 -178.918549 
L 288.719292 -178.918549 
L 292.027593 -178.918549 
L 295.335893 -178.918549 
L 298.644193 -178.918549 
L 301.952494 -178.918549 
L 305.260794 -178.918549 
L 308.569095 -178.918549 
L 311.877395 -178.918549 
L 315.185695 -178.918549 
L 318.493996 -178.918549 
L 321.802296 -178.918549 
L 325.110597 -178.918549 
L 328.418897 -178.918549 
L 331.727197 -178.918549 
L 335.035498 -178.918549 
L 338.343798 -178.918549 
L 341.652099 -178.918549 
L 344.960399 -178.918549 
L 348.268699 -178.918549 
L 351.577 -178.918549 
L 354.8853 -178.918549 
L 358.193601 -178.918549 
L 361.501901 -178.918549 
L 364.810201 -178.918549 
L 368.118502 -178.918549 
L 371.426802 -178.918549 
L 374.735103 -178.918549 
L 378.043403 -178.918549 
L 381.351703 -178.918549 
L 384.660004 -178.918549 
L 387.968304 -178.918549 
L 391.276604 -178.918549 
L 394.584905 -178.918549 
L 397.893205 -178.918549 
L 401.201506 -178.918549 
L 401.201506 -256.810439 
L 401.201506 -256.810439 
L 397.893205 -249.572926 
L 394.584905 -247.556095 
L 391.276604 -246.233394 
L 387.968304 -237.395214 
L 384.660004 -229.94916 
L 381.351703 -224.766314 
L 378.043403 -219.137003 
L 374.735103 -215.387931 
L 371.426802 -215.240563 
L 368.118502 -214.738327 
L 364.810201 -214.397905 
L 361.501901 -212.680628 
L 358.193601 -208.06932 
L 354.8853 -205.545282 
L 351.577 -205.219516 
L 348.268699 -200.720754 
L 344.960399 -199.783711 
L 341.652099 -199.182275 
L 338.343798 -198.49047 
L 335.035498 -198.045449 
L 331.727197 -196.863227 
L 328.418897 -194.238936 
L 325.110597 -192.47645 
L 321.802296 -192.326806 
L 318.493996 -185.137244 
L 315.185695 -184.546028 
L 311.877395 -183.815213 
L 308.569095 -181.176815 
L 305.260794 -181.092156 
L 301.952494 -180.986968 
L 298.644193 -179.658356 
L 295.335893 -179.501328 
L 292.027593 -179.398715 
L 288.719292 -179.393534 
L 285.410992 -179.2629 
L 282.102691 -179.258614 
L 278.794391 -179.1825 
L 275.486091 -179.092895 
L 272.17779 -179.089621 
L 268.86949 -179.049943 
L 265.561189 -179.032096 
L 262.252889 -179.027034 
L 258.944589 -179.007386 
L 255.636288 -179.006805 
L 252.327988 -178.979818 
L 249.019688 -178.974757 
L 245.711387 -178.940259 
L 242.403087 -178.934981 
L 239.094786 -178.934066 
L 235.786486 -178.933904 
L 232.478186 -178.933325 
L 229.169885 -178.933006 
L 225.861585 -178.932816 
L 222.553284 -178.92764 
L 219.244984 -178.925032 
L 215.936684 -178.920579 
L 212.628383 -178.916791 
L 209.320083 -178.911489 
L 206.011782 -178.895676 
L 202.703482 -178.885963 
L 199.395182 -178.885745 
L 196.086881 -178.875275 
L 192.778581 -178.872964 
L 189.47028 -178.839645 
L 186.16198 -178.824957 
L 182.85368 -178.817401 
L 179.545379 -178.792894 
L 176.237079 -178.791485 
L 172.928778 -178.73744 
L 169.620478 -178.628573 
L 166.312178 -178.493494 
L 163.003877 -178.488551 
L 159.695577 -178.4771 
L 156.387276 -178.384107 
L 153.078976 -178.038059 
L 149.770676 -175.112341 
L 146.462375 -174.979538 
L 143.154075 -172.307071 
L 139.845774 -172.121444 
L 136.537474 -168.93047 
L 133.229174 -166.455621 
L 129.920873 -162.391114 
L 126.612573 -159.518343 
L 123.304272 -155.519643 
L 119.995972 -155.469863 
L 116.687672 -147.506351 
L 113.379371 -144.754296 
L 110.071071 -141.282704 
L 106.762771 -133.706022 
L 103.45447 -115.932616 
L 100.14617 -108.272534 
L 96.837869 -95.303452 
z
" id="m5a0e0cdc43" style="stroke:#f14432;stroke-opacity:0.8;"/>
    </defs>
    <g clip-path="url(#peda85360ce)">
     <use style="fill:#f14432;fill-opacity:0.8;stroke:#f14432;stroke-opacity:0.8;" x="0" xlink:href="#m5a0e0cdc43" y="356.249059"/>
    </g>
   </g>
   <g id="matplotlib.axis_1"/>
   <g id="matplotlib.axis_2">
    <g id="ytick_1">
     <g id="line2d_1">
      <defs>
       <path d="M 0 0 
L -3.5 0 
" id="mc862f3ba5b" style="stroke:#000000;stroke-width:0.8;"/>
      </defs>
      <g>
       <use style="stroke:#000000;stroke-width:0.8;" x="81.619687" xlink:href="#mc862f3ba5b" y="336.115466"/>
      </g>
     </g>
     <g id="text_1">
      <!-- −0.20 -->
      <defs>
       <path d="M 10.59375 35.5 
L 73.1875 35.5 
L 73.1875 27.203125 
L 10.59375 27.203125 
z
" id="DejaVuSans-2212"/>
       <path d="M 31.78125 66.40625 
Q 24.171875 66.40625 20.328125 58.90625 
Q 16.5 51.421875 16.5 36.375 
Q 16.5 21.390625 20.328125 13.890625 
Q 24.171875 6.390625 31.78125 6.390625 
Q 39.453125 6.390625 43.28125 13.890625 
Q 47.125 21.390625 47.125 36.375 
Q 47.125 51.421875 43.28125 58.90625 
Q 39.453125 66.40625 31.78125 66.40625 
z
M 31.78125 74.21875 
Q 44.046875 74.21875 50.515625 64.515625 
Q 56.984375 54.828125 56.984375 36.375 
Q 56.984375 17.96875 50.515625 8.265625 
Q 44.046875 -1.421875 31.78125 -1.421875 
Q 19.53125 -1.421875 13.0625 8.265625 
Q 6.59375 17.96875 6.59375 36.375 
Q 6.59375 54.828125 13.0625 64.515625 
Q 19.53125 74.21875 31.78125 74.21875 
z
" id="DejaVuSans-30"/>
       <path d="M 10.6875 12.40625 
L 21 12.40625 
L 21 0 
L 10.6875 0 
z
" id="DejaVuSans-2e"/>
       <path d="M 19.1875 8.296875 
L 53.609375 8.296875 
L 53.609375 0 
L 7.328125 0 
L 7.328125 8.296875 
Q 12.9375 14.109375 22.625 23.890625 
Q 32.328125 33.6875 34.8125 36.53125 
Q 39.546875 41.84375 41.421875 45.53125 
Q 43.3125 49.21875 43.3125 52.78125 
Q 43.3125 58.59375 39.234375 62.25 
Q 35.15625 65.921875 28.609375 65.921875 
Q 23.96875 65.921875 18.8125 64.3125 
Q 13.671875 62.703125 7.8125 59.421875 
L 7.8125 69.390625 
Q 13.765625 71.78125 18.9375 73 
Q 24.125 74.21875 28.421875 74.21875 
Q 39.75 74.21875 46.484375 68.546875 
Q 53.21875 62.890625 53.21875 53.421875 
Q 53.21875 48.921875 51.53125 44.890625 
Q 49.859375 40.875 45.40625 35.40625 
Q 44.1875 33.984375 37.640625 27.21875 
Q 31.109375 20.453125 19.1875 8.296875 
z
" id="DejaVuSans-32"/>
      </defs>
      <g transform="translate(7.2 344.473747)scale(0.22 -0.22)">
       <use xlink:href="#DejaVuSans-2212"/>
       <use x="83.789062" xlink:href="#DejaVuSans-30"/>
       <use x="147.412109" xlink:href="#DejaVuSans-2e"/>
       <use x="179.199219" xlink:href="#DejaVuSans-32"/>
       <use x="242.822266" xlink:href="#DejaVuSans-30"/>
      </g>
     </g>
    </g>
    <g id="ytick_2">
     <g id="line2d_2">
      <g>
       <use style="stroke:#000000;stroke-width:0.8;" x="81.619687" xlink:href="#mc862f3ba5b" y="296.419227"/>
      </g>
     </g>
     <g id="text_2">
      <!-- −0.15 -->
      <defs>
       <path d="M 12.40625 8.296875 
L 28.515625 8.296875 
L 28.515625 63.921875 
L 10.984375 60.40625 
L 10.984375 69.390625 
L 28.421875 72.90625 
L 38.28125 72.90625 
L 38.28125 8.296875 
L 54.390625 8.296875 
L 54.390625 0 
L 12.40625 0 
z
" id="DejaVuSans-31"/>
       <path d="M 10.796875 72.90625 
L 49.515625 72.90625 
L 49.515625 64.59375 
L 19.828125 64.59375 
L 19.828125 46.734375 
Q 21.96875 47.46875 24.109375 47.828125 
Q 26.265625 48.1875 28.421875 48.1875 
Q 40.625 48.1875 47.75 41.5 
Q 54.890625 34.8125 54.890625 23.390625 
Q 54.890625 11.625 47.5625 5.09375 
Q 40.234375 -1.421875 26.90625 -1.421875 
Q 22.3125 -1.421875 17.546875 -0.640625 
Q 12.796875 0.140625 7.71875 1.703125 
L 7.71875 11.625 
Q 12.109375 9.234375 16.796875 8.0625 
Q 21.484375 6.890625 26.703125 6.890625 
Q 35.15625 6.890625 40.078125 11.328125 
Q 45.015625 15.765625 45.015625 23.390625 
Q 45.015625 31 40.078125 35.4375 
Q 35.15625 39.890625 26.703125 39.890625 
Q 22.75 39.890625 18.8125 39.015625 
Q 14.890625 38.140625 10.796875 36.28125 
z
" id="DejaVuSans-35"/>
      </defs>
      <g transform="translate(7.2 304.777508)scale(0.22 -0.22)">
       <use xlink:href="#DejaVuSans-2212"/>
       <use x="83.789062" xlink:href="#DejaVuSans-30"/>
       <use x="147.412109" xlink:href="#DejaVuSans-2e"/>
       <use x="179.199219" xlink:href="#DejaVuSans-31"/>
       <use x="242.822266" xlink:href="#DejaVuSans-35"/>
      </g>
     </g>
    </g>
    <g id="ytick_3">
     <g id="line2d_3">
      <g>
       <use style="stroke:#000000;stroke-width:0.8;" x="81.619687" xlink:href="#mc862f3ba5b" y="256.722988"/>
      </g>
     </g>
     <g id="text_3">
      <!-- −0.10 -->
      <g transform="translate(7.2 265.081269)scale(0.22 -0.22)">
       <use xlink:href="#DejaVuSans-2212"/>
       <use x="83.789062" xlink:href="#DejaVuSans-30"/>
       <use x="147.412109" xlink:href="#DejaVuSans-2e"/>
       <use x="179.199219" xlink:href="#DejaVuSans-31"/>
       <use x="242.822266" xlink:href="#DejaVuSans-30"/>
      </g>
     </g>
    </g>
    <g id="ytick_4">
     <g id="line2d_4">
      <g>
       <use style="stroke:#000000;stroke-width:0.8;" x="81.619687" xlink:href="#mc862f3ba5b" y="217.026749"/>
      </g>
     </g>
     <g id="text_4">
      <!-- −0.05 -->
      <g transform="translate(7.2 225.385031)scale(0.22 -0.22)">
       <use xlink:href="#DejaVuSans-2212"/>
       <use x="83.789062" xlink:href="#DejaVuSans-30"/>
       <use x="147.412109" xlink:href="#DejaVuSans-2e"/>
       <use x="179.199219" xlink:href="#DejaVuSans-30"/>
       <use x="242.822266" xlink:href="#DejaVuSans-35"/>
      </g>
     </g>
    </g>
    <g id="ytick_5">
     <g id="line2d_5">
      <g>
       <use style="stroke:#000000;stroke-width:0.8;" x="81.619687" xlink:href="#mc862f3ba5b" y="177.330511"/>
      </g>
     </g>
     <g id="text_5">
      <!-- 0.00 -->
      <g transform="translate(25.635312 185.688792)scale(0.22 -0.22)">
       <use xlink:href="#DejaVuSans-30"/>
       <use x="63.623047" xlink:href="#DejaVuSans-2e"/>
       <use x="95.410156" xlink:href="#DejaVuSans-30"/>
       <use x="159.033203" xlink:href="#DejaVuSans-30"/>
      </g>
     </g>
    </g>
    <g id="ytick_6">
     <g id="line2d_6">
      <g>
       <use style="stroke:#000000;stroke-width:0.8;" x="81.619687" xlink:href="#mc862f3ba5b" y="137.634272"/>
      </g>
     </g>
     <g id="text_6">
      <!-- 0.05 -->
      <g transform="translate(25.635312 145.992553)scale(0.22 -0.22)">
       <use xlink:href="#DejaVuSans-30"/>
       <use x="63.623047" xlink:href="#DejaVuSans-2e"/>
       <use x="95.410156" xlink:href="#DejaVuSans-30"/>
       <use x="159.033203" xlink:href="#DejaVuSans-35"/>
      </g>
     </g>
    </g>
    <g id="ytick_7">
     <g id="line2d_7">
      <g>
       <use style="stroke:#000000;stroke-width:0.8;" x="81.619687" xlink:href="#mc862f3ba5b" y="97.938033"/>
      </g>
     </g>
     <g id="text_7">
      <!-- 0.10 -->
      <g transform="translate(25.635312 106.296314)scale(0.22 -0.22)">
       <use xlink:href="#DejaVuSans-30"/>
       <use x="63.623047" xlink:href="#DejaVuSans-2e"/>
       <use x="95.410156" xlink:href="#DejaVuSans-31"/>
       <use x="159.033203" xlink:href="#DejaVuSans-30"/>
      </g>
     </g>
    </g>
    <g id="ytick_8">
     <g id="line2d_8">
      <g>
       <use style="stroke:#000000;stroke-width:0.8;" x="81.619687" xlink:href="#mc862f3ba5b" y="58.241794"/>
      </g>
     </g>
     <g id="text_8">
      <!-- 0.15 -->
      <g transform="translate(25.635312 66.600076)scale(0.22 -0.22)">
       <use xlink:href="#DejaVuSans-30"/>
       <use x="63.623047" xlink:href="#DejaVuSans-2e"/>
       <use x="95.410156" xlink:href="#DejaVuSans-31"/>
       <use x="159.033203" xlink:href="#DejaVuSans-35"/>
      </g>
     </g>
    </g>
    <g id="ytick_9">
     <g id="line2d_9">
      <g>
       <use style="stroke:#000000;stroke-width:0.8;" x="81.619687" xlink:href="#mc862f3ba5b" y="18.545556"/>
      </g>
     </g>
     <g id="text_9">
      <!-- 0.20 -->
      <g transform="translate(25.635312 26.903837)scale(0.22 -0.22)">
       <use xlink:href="#DejaVuSans-30"/>
       <use x="63.623047" xlink:href="#DejaVuSans-2e"/>
       <use x="95.410156" xlink:href="#DejaVuSans-32"/>
       <use x="159.033203" xlink:href="#DejaVuSans-30"/>
      </g>
     </g>
    </g>
   </g>
   <g id="patch_3">
    <path d="M 81.619687 343.34 
L 81.619687 10.7 
" style="fill:none;stroke:#000000;stroke-linecap:square;stroke-linejoin:miter;stroke-width:0.8;"/>
   </g>
   <g id="patch_4">
    <path d="M 416.419688 343.34 
L 416.419688 10.7 
" style="fill:none;stroke:#000000;stroke-linecap:square;stroke-linejoin:miter;stroke-width:0.8;"/>
   </g>
   <g id="patch_5">
    <path d="M 81.619687 343.34 
L 416.419688 343.34 
" style="fill:none;stroke:#000000;stroke-linecap:square;stroke-linejoin:miter;stroke-width:0.8;"/>
   </g>
   <g id="patch_6">
    <path d="M 81.619687 10.7 
L 416.419688 10.7 
" style="fill:none;stroke:#000000;stroke-linecap:square;stroke-linejoin:miter;stroke-width:0.8;"/>
   </g>
  </g>
 </g>
 <defs>
  <clipPath id="peda85360ce">
   <rect height="332.64" width="334.8" x="81.619687" y="10.7"/>
  </clipPath>
 </defs>
</svg>
