<?xml version="1.0" encoding="utf-8" standalone="no"?>
<!DOCTYPE svg PUBLIC "-//W3C//DTD SVG 1.1//EN"
  "http://www.w3.org/Graphics/SVG/1.1/DTD/svg11.dtd">
<!-- Created with matplotlib (http://matplotlib.org/) -->
<svg height="354pt" version="1.1" viewBox="0 0 406 354" width="406pt" xmlns="http://www.w3.org/2000/svg" xmlns:xlink="http://www.w3.org/1999/xlink">
 <defs>
  <style type="text/css">
*{stroke-linecap:butt;stroke-linejoin:round;}
  </style>
 </defs>
 <g id="figure_1">
  <g id="patch_1">
   <path d="M 0 354.04 
L 406.130312 354.04 
L 406.130312 0 
L 0 0 
z
" style="fill:#ffffff;"/>
  </g>
  <g id="axes_1">
   <g id="patch_2">
    <path d="M 60.630313 343.34 
L 395.430313 343.34 
L 395.430313 10.7 
L 60.630313 10.7 
z
" style="fill:#ffffff;"/>
   </g>
   <g id="PolyCollection_1">
    <defs>
     <path d="M 75.848494 -25.82 
L 75.848494 -181.575147 
L 79.156795 -181.575147 
L 82.465095 -181.575147 
L 85.773396 -181.575147 
L 89.081696 -181.575147 
L 92.389996 -181.575147 
L 95.698297 -181.575147 
L 99.006597 -181.575147 
L 102.314897 -181.575147 
L 105.623198 -181.575147 
L 108.931498 -181.575147 
L 112.239799 -181.575147 
L 115.548099 -181.575147 
L 118.856399 -181.575147 
L 122.1647 -181.575147 
L 125.473 -181.575147 
L 128.781301 -181.575147 
L 132.089601 -181.575147 
L 135.397901 -181.575147 
L 138.706202 -181.575147 
L 142.014502 -181.575147 
L 145.322803 -181.575147 
L 148.631103 -181.575147 
L 151.939403 -181.575147 
L 155.247704 -181.575147 
L 158.556004 -181.575147 
L 161.864305 -181.575147 
L 165.172605 -181.575147 
L 168.480905 -181.575147 
L 171.789206 -181.575147 
L 175.097506 -181.575147 
L 178.405807 -181.575147 
L 181.714107 -181.575147 
L 185.022407 -181.575147 
L 188.330708 -181.575147 
L 191.639008 -181.575147 
L 194.947309 -181.575147 
L 198.255609 -181.575147 
L 201.563909 -181.575147 
L 204.87221 -181.575147 
L 208.18051 -181.575147 
L 211.488811 -181.575147 
L 214.797111 -181.575147 
L 218.105411 -181.575147 
L 221.413712 -181.575147 
L 224.722012 -181.575147 
L 228.030313 -181.575147 
L 231.338613 -181.575147 
L 234.646913 -181.575147 
L 237.955214 -181.575147 
L 241.263514 -181.575147 
L 244.571814 -181.575147 
L 247.880115 -181.575147 
L 251.188415 -181.575147 
L 254.496716 -181.575147 
L 257.805016 -181.575147 
L 261.113316 -181.575147 
L 264.421617 -181.575147 
L 267.729917 -181.575147 
L 271.038218 -181.575147 
L 274.346518 -181.575147 
L 277.654818 -181.575147 
L 280.963119 -181.575147 
L 284.271419 -181.575147 
L 287.57972 -181.575147 
L 290.88802 -181.575147 
L 294.19632 -181.575147 
L 297.504621 -181.575147 
L 300.812921 -181.575147 
L 304.121222 -181.575147 
L 307.429522 -181.575147 
L 310.737822 -181.575147 
L 314.046123 -181.575147 
L 317.354423 -181.575147 
L 320.662724 -181.575147 
L 323.971024 -181.575147 
L 327.279324 -181.575147 
L 330.587625 -181.575147 
L 333.895925 -181.575147 
L 337.204226 -181.575147 
L 340.512526 -181.575147 
L 343.820826 -181.575147 
L 347.129127 -181.575147 
L 350.437427 -181.575147 
L 353.745728 -181.575147 
L 357.054028 -181.575147 
L 360.362328 -181.575147 
L 363.670629 -181.575147 
L 366.978929 -181.575147 
L 370.287229 -181.575147 
L 373.59553 -181.575147 
L 376.90383 -181.575147 
L 380.212131 -181.575147 
L 380.212131 -328.22 
L 380.212131 -328.22 
L 376.90383 -287.372793 
L 373.59553 -266.543887 
L 370.287229 -266.381129 
L 366.978929 -256.518191 
L 363.670629 -249.610746 
L 360.362328 -229.234781 
L 357.054028 -226.9918 
L 353.745728 -221.738273 
L 350.437427 -220.612159 
L 347.129127 -219.711644 
L 343.820826 -209.560662 
L 340.512526 -208.195674 
L 337.204226 -204.768835 
L 333.895925 -201.327251 
L 330.587625 -199.34284 
L 327.279324 -196.320787 
L 323.971024 -196.257606 
L 320.662724 -195.361467 
L 317.354423 -194.055288 
L 314.046123 -193.979398 
L 310.737822 -192.803827 
L 307.429522 -191.955096 
L 304.121222 -191.133564 
L 300.812921 -190.258399 
L 297.504621 -190.12793 
L 294.19632 -190.021138 
L 290.88802 -189.646934 
L 287.57972 -188.807176 
L 284.271419 -188.752809 
L 280.963119 -187.775473 
L 277.654818 -187.297239 
L 274.346518 -187.12776 
L 271.038218 -187.041267 
L 267.729917 -186.865513 
L 264.421617 -186.534845 
L 261.113316 -186.032947 
L 257.805016 -185.8079 
L 254.496716 -185.780965 
L 251.188415 -185.352936 
L 247.880115 -185.05493 
L 244.571814 -184.38889 
L 241.263514 -184.217744 
L 237.955214 -184.19984 
L 234.646913 -184.153135 
L 231.338613 -183.397451 
L 228.030313 -183.299993 
L 224.722012 -182.467746 
L 221.413712 -181.886671 
L 218.105411 -181.810914 
L 214.797111 -181.554639 
L 211.488811 -180.229004 
L 208.18051 -179.774998 
L 204.87221 -179.688872 
L 201.563909 -179.592616 
L 198.255609 -179.583815 
L 194.947309 -179.526757 
L 191.639008 -179.377423 
L 188.330708 -179.014556 
L 185.022407 -178.7581 
L 181.714107 -178.720921 
L 178.405807 -178.186647 
L 175.097506 -177.849191 
L 171.789206 -177.121638 
L 168.480905 -177.044793 
L 165.172605 -176.063622 
L 161.864305 -174.961913 
L 158.556004 -174.942617 
L 155.247704 -174.798193 
L 151.939403 -174.133796 
L 148.631103 -174.061754 
L 145.322803 -173.066908 
L 142.014502 -172.944797 
L 138.706202 -172.776466 
L 135.397901 -172.455901 
L 132.089601 -172.455039 
L 128.781301 -171.580229 
L 125.473 -171.530891 
L 122.1647 -169.101047 
L 118.856399 -165.408005 
L 115.548099 -164.660617 
L 112.239799 -164.413929 
L 108.931498 -163.168139 
L 105.623198 -162.844894 
L 102.314897 -159.19575 
L 99.006597 -155.786393 
L 95.698297 -147.897521 
L 92.389996 -135.80904 
L 89.081696 -130.442944 
L 85.773396 -130.271143 
L 82.465095 -126.060308 
L 79.156795 -93.710641 
L 75.848494 -25.82 
z
" id="m14fb7c2fea" style="stroke:#4a98c9;"/>
    </defs>
    <g clip-path="url(#p5a32d27311)">
     <use style="fill:#4a98c9;stroke:#4a98c9;" x="0" xlink:href="#m14fb7c2fea" y="354.04"/>
    </g>
   </g>
   <g id="PolyCollection_2">
    <defs>
     <path d="M 75.848494 -75.375374 
L 75.848494 -181.575147 
L 79.156795 -181.575147 
L 82.465095 -181.575147 
L 85.773396 -181.575147 
L 89.081696 -181.575147 
L 92.389996 -181.575147 
L 95.698297 -181.575147 
L 99.006597 -181.575147 
L 102.314897 -181.575147 
L 105.623198 -181.575147 
L 108.931498 -181.575147 
L 112.239799 -181.575147 
L 115.548099 -181.575147 
L 118.856399 -181.575147 
L 122.1647 -181.575147 
L 125.473 -181.575147 
L 128.781301 -181.575147 
L 132.089601 -181.575147 
L 135.397901 -181.575147 
L 138.706202 -181.575147 
L 142.014502 -181.575147 
L 145.322803 -181.575147 
L 148.631103 -181.575147 
L 151.939403 -181.575147 
L 155.247704 -181.575147 
L 158.556004 -181.575147 
L 161.864305 -181.575147 
L 165.172605 -181.575147 
L 168.480905 -181.575147 
L 171.789206 -181.575147 
L 175.097506 -181.575147 
L 178.405807 -181.575147 
L 181.714107 -181.575147 
L 185.022407 -181.575147 
L 188.330708 -181.575147 
L 191.639008 -181.575147 
L 194.947309 -181.575147 
L 198.255609 -181.575147 
L 201.563909 -181.575147 
L 204.87221 -181.575147 
L 208.18051 -181.575147 
L 211.488811 -181.575147 
L 214.797111 -181.575147 
L 218.105411 -181.575147 
L 221.413712 -181.575147 
L 224.722012 -181.575147 
L 228.030313 -181.575147 
L 231.338613 -181.575147 
L 234.646913 -181.575147 
L 237.955214 -181.575147 
L 241.263514 -181.575147 
L 244.571814 -181.575147 
L 247.880115 -181.575147 
L 251.188415 -181.575147 
L 254.496716 -181.575147 
L 257.805016 -181.575147 
L 261.113316 -181.575147 
L 264.421617 -181.575147 
L 267.729917 -181.575147 
L 271.038218 -181.575147 
L 274.346518 -181.575147 
L 277.654818 -181.575147 
L 280.963119 -181.575147 
L 284.271419 -181.575147 
L 287.57972 -181.575147 
L 290.88802 -181.575147 
L 294.19632 -181.575147 
L 297.504621 -181.575147 
L 300.812921 -181.575147 
L 304.121222 -181.575147 
L 307.429522 -181.575147 
L 310.737822 -181.575147 
L 314.046123 -181.575147 
L 317.354423 -181.575147 
L 320.662724 -181.575147 
L 323.971024 -181.575147 
L 327.279324 -181.575147 
L 330.587625 -181.575147 
L 333.895925 -181.575147 
L 337.204226 -181.575147 
L 340.512526 -181.575147 
L 343.820826 -181.575147 
L 347.129127 -181.575147 
L 350.437427 -181.575147 
L 353.745728 -181.575147 
L 357.054028 -181.575147 
L 360.362328 -181.575147 
L 363.670629 -181.575147 
L 366.978929 -181.575147 
L 370.287229 -181.575147 
L 373.59553 -181.575147 
L 376.90383 -181.575147 
L 380.212131 -181.575147 
L 380.212131 -311.001572 
L 380.212131 -311.001572 
L 376.90383 -278.730261 
L 373.59553 -265.269204 
L 370.287229 -242.234394 
L 366.978929 -234.887434 
L 363.670629 -234.822199 
L 360.362328 -229.669102 
L 357.054028 -215.17739 
L 353.745728 -214.567439 
L 350.437427 -208.459938 
L 347.129127 -206.942785 
L 343.820826 -203.238371 
L 340.512526 -202.75812 
L 337.204226 -202.395462 
L 333.895925 -201.98717 
L 330.587625 -201.743953 
L 327.279324 -201.212256 
L 323.971024 -199.421924 
L 320.662724 -196.53669 
L 317.354423 -194.891809 
L 314.046123 -194.710493 
L 310.737822 -194.574341 
L 307.429522 -194.422363 
L 304.121222 -193.18074 
L 300.812921 -192.041296 
L 297.504621 -191.595634 
L 294.19632 -191.592584 
L 290.88802 -190.639053 
L 287.57972 -190.42719 
L 284.271419 -189.693155 
L 280.963119 -189.27268 
L 277.654818 -188.995559 
L 274.346518 -188.845197 
L 271.038218 -188.776827 
L 267.729917 -188.094696 
L 264.421617 -187.57698 
L 261.113316 -187.52046 
L 257.805016 -187.503783 
L 254.496716 -187.42101 
L 251.188415 -187.408878 
L 247.880115 -187.386826 
L 244.571814 -186.880043 
L 241.263514 -186.755036 
L 237.955214 -186.687859 
L 234.646913 -186.450795 
L 231.338613 -185.618413 
L 228.030313 -185.279274 
L 224.722012 -184.588239 
L 221.413712 -182.968498 
L 218.105411 -182.425386 
L 214.797111 -182.335242 
L 211.488811 -182.228225 
L 208.18051 -182.200193 
L 204.87221 -182.101123 
L 201.563909 -181.754516 
L 198.255609 -181.596703 
L 194.947309 -181.570484 
L 191.639008 -181.536259 
L 188.330708 -181.202048 
L 185.022407 -180.622737 
L 181.714107 -180.582309 
L 178.405807 -179.697044 
L 175.097506 -179.689906 
L 171.789206 -179.076502 
L 168.480905 -178.716447 
L 165.172605 -178.267399 
L 161.864305 -176.688871 
L 158.556004 -175.78381 
L 155.247704 -175.313147 
L 151.939403 -174.780881 
L 148.631103 -172.663089 
L 145.322803 -172.115992 
L 142.014502 -171.931354 
L 138.706202 -171.86232 
L 135.397901 -171.456703 
L 132.089601 -170.928645 
L 128.781301 -169.094617 
L 125.473 -167.016367 
L 122.1647 -166.806108 
L 118.856399 -165.739497 
L 115.548099 -161.559876 
L 112.239799 -159.916385 
L 108.931498 -159.312861 
L 105.623198 -159.251997 
L 102.314897 -148.758795 
L 99.006597 -147.815039 
L 95.698297 -144.055453 
L 92.389996 -143.244516 
L 89.081696 -136.807498 
L 85.773396 -132.504987 
L 82.465095 -130.542166 
L 79.156795 -117.711542 
L 75.848494 -75.375374 
z
" id="me7915ea257" style="stroke:#f14432;stroke-opacity:0.8;"/>
    </defs>
    <g clip-path="url(#p5a32d27311)">
     <use style="fill:#f14432;fill-opacity:0.8;stroke:#f14432;stroke-opacity:0.8;" x="0" xlink:href="#me7915ea257" y="354.04"/>
    </g>
   </g>
   <g id="matplotlib.axis_1"/>
   <g id="matplotlib.axis_2">
    <g id="ytick_1">
     <g id="line2d_1">
      <defs>
       <path d="M 0 0 
L -3.5 0 
" id="m9b4553b455" style="stroke:#000000;stroke-width:0.8;"/>
      </defs>
      <g>
       <use style="stroke:#000000;stroke-width:0.8;" x="60.630313" xlink:href="#m9b4553b455" y="320.05235"/>
      </g>
     </g>
     <g id="text_1">
      <!-- −20 -->
      <defs>
       <path d="M 10.59375 35.5 
L 73.1875 35.5 
L 73.1875 27.203125 
L 10.59375 27.203125 
z
" id="DejaVuSans-2212"/>
       <path d="M 19.1875 8.296875 
L 53.609375 8.296875 
L 53.609375 0 
L 7.328125 0 
L 7.328125 8.296875 
Q 12.9375 14.109375 22.625 23.890625 
Q 32.328125 33.6875 34.8125 36.53125 
Q 39.546875 41.84375 41.421875 45.53125 
Q 43.3125 49.21875 43.3125 52.78125 
Q 43.3125 58.59375 39.234375 62.25 
Q 35.15625 65.921875 28.609375 65.921875 
Q 23.96875 65.921875 18.8125 64.3125 
Q 13.671875 62.703125 7.8125 59.421875 
L 7.8125 69.390625 
Q 13.765625 71.78125 18.9375 73 
Q 24.125 74.21875 28.421875 74.21875 
Q 39.75 74.21875 46.484375 68.546875 
Q 53.21875 62.890625 53.21875 53.421875 
Q 53.21875 48.921875 51.53125 44.890625 
Q 49.859375 40.875 45.40625 35.40625 
Q 44.1875 33.984375 37.640625 27.21875 
Q 31.109375 20.453125 19.1875 8.296875 
z
" id="DejaVuSans-32"/>
       <path d="M 31.78125 66.40625 
Q 24.171875 66.40625 20.328125 58.90625 
Q 16.5 51.421875 16.5 36.375 
Q 16.5 21.390625 20.328125 13.890625 
Q 24.171875 6.390625 31.78125 6.390625 
Q 39.453125 6.390625 43.28125 13.890625 
Q 47.125 21.390625 47.125 36.375 
Q 47.125 51.421875 43.28125 58.90625 
Q 39.453125 66.40625 31.78125 66.40625 
z
M 31.78125 74.21875 
Q 44.046875 74.21875 50.515625 64.515625 
Q 56.984375 54.828125 56.984375 36.375 
Q 56.984375 17.96875 50.515625 8.265625 
Q 44.046875 -1.421875 31.78125 -1.421875 
Q 19.53125 -1.421875 13.0625 8.265625 
Q 6.59375 17.96875 6.59375 36.375 
Q 6.59375 54.828125 13.0625 64.515625 
Q 19.53125 74.21875 31.78125 74.21875 
z
" id="DejaVuSans-30"/>
      </defs>
      <g transform="translate(7.2 328.410632)scale(0.22 -0.22)">
       <use xlink:href="#DejaVuSans-2212"/>
       <use x="83.789062" xlink:href="#DejaVuSans-32"/>
       <use x="147.412109" xlink:href="#DejaVuSans-30"/>
      </g>
     </g>
    </g>
    <g id="ytick_2">
     <g id="line2d_2">
      <g>
       <use style="stroke:#000000;stroke-width:0.8;" x="60.630313" xlink:href="#m9b4553b455" y="246.258602"/>
      </g>
     </g>
     <g id="text_2">
      <!-- −10 -->
      <defs>
       <path d="M 12.40625 8.296875 
L 28.515625 8.296875 
L 28.515625 63.921875 
L 10.984375 60.40625 
L 10.984375 69.390625 
L 28.421875 72.90625 
L 38.28125 72.90625 
L 38.28125 8.296875 
L 54.390625 8.296875 
L 54.390625 0 
L 12.40625 0 
z
" id="DejaVuSans-31"/>
      </defs>
      <g transform="translate(7.2 254.616883)scale(0.22 -0.22)">
       <use xlink:href="#DejaVuSans-2212"/>
       <use x="83.789062" xlink:href="#DejaVuSans-31"/>
       <use x="147.412109" xlink:href="#DejaVuSans-30"/>
      </g>
     </g>
    </g>
    <g id="ytick_3">
     <g id="line2d_3">
      <g>
       <use style="stroke:#000000;stroke-width:0.8;" x="60.630313" xlink:href="#m9b4553b455" y="172.464853"/>
      </g>
     </g>
     <g id="text_3">
      <!-- 0 -->
      <g transform="translate(39.632812 180.823134)scale(0.22 -0.22)">
       <use xlink:href="#DejaVuSans-30"/>
      </g>
     </g>
    </g>
    <g id="ytick_4">
     <g id="line2d_4">
      <g>
       <use style="stroke:#000000;stroke-width:0.8;" x="60.630313" xlink:href="#m9b4553b455" y="98.671104"/>
      </g>
     </g>
     <g id="text_4">
      <!-- 10 -->
      <g transform="translate(25.635313 107.029386)scale(0.22 -0.22)">
       <use xlink:href="#DejaVuSans-31"/>
       <use x="63.623047" xlink:href="#DejaVuSans-30"/>
      </g>
     </g>
    </g>
    <g id="ytick_5">
     <g id="line2d_5">
      <g>
       <use style="stroke:#000000;stroke-width:0.8;" x="60.630313" xlink:href="#m9b4553b455" y="24.877356"/>
      </g>
     </g>
     <g id="text_5">
      <!-- 20 -->
      <g transform="translate(25.635313 33.235637)scale(0.22 -0.22)">
       <use xlink:href="#DejaVuSans-32"/>
       <use x="63.623047" xlink:href="#DejaVuSans-30"/>
      </g>
     </g>
    </g>
   </g>
   <g id="patch_3">
    <path d="M 60.630313 343.34 
L 60.630313 10.7 
" style="fill:none;stroke:#000000;stroke-linecap:square;stroke-linejoin:miter;stroke-width:0.8;"/>
   </g>
   <g id="patch_4">
    <path d="M 395.430313 343.34 
L 395.430313 10.7 
" style="fill:none;stroke:#000000;stroke-linecap:square;stroke-linejoin:miter;stroke-width:0.8;"/>
   </g>
   <g id="patch_5">
    <path d="M 60.630312 343.34 
L 395.430313 343.34 
" style="fill:none;stroke:#000000;stroke-linecap:square;stroke-linejoin:miter;stroke-width:0.8;"/>
   </g>
   <g id="patch_6">
    <path d="M 60.630312 10.7 
L 395.430313 10.7 
" style="fill:none;stroke:#000000;stroke-linecap:square;stroke-linejoin:miter;stroke-width:0.8;"/>
   </g>
  </g>
 </g>
 <defs>
  <clipPath id="p5a32d27311">
   <rect height="332.64" width="334.8" x="60.630313" y="10.7"/>
  </clipPath>
 </defs>
</svg>
