<?xml version="1.0" encoding="utf-8" standalone="no"?>
<!DOCTYPE svg PUBLIC "-//W3C//DTD SVG 1.1//EN"
  "http://www.w3.org/Graphics/SVG/1.1/DTD/svg11.dtd">
<!-- Created with matplotlib (http://matplotlib.org/) -->
<svg height="354pt" version="1.1" viewBox="0 0 427 354" width="427pt" xmlns="http://www.w3.org/2000/svg" xmlns:xlink="http://www.w3.org/1999/xlink">
 <defs>
  <style type="text/css">
*{stroke-linecap:butt;stroke-linejoin:round;}
  </style>
 </defs>
 <g id="figure_1">
  <g id="patch_1">
   <path d="M 0 354.04 
L 427.119687 354.04 
L 427.119687 0 
L 0 0 
z
" style="fill:#ffffff;"/>
  </g>
  <g id="axes_1">
   <g id="patch_2">
    <path d="M 81.619687 343.34 
L 416.419688 343.34 
L 416.419688 10.7 
L 81.619687 10.7 
z
" style="fill:#ffffff;"/>
   </g>
   <g id="PolyCollection_1">
    <defs>
     <path d="M 96.837869 -117.668906 
L 96.837869 -145.733226 
L 100.14617 -145.733226 
L 103.45447 -145.733226 
L 106.762771 -145.733226 
L 110.071071 -145.733226 
L 113.379371 -145.733226 
L 116.687672 -145.733226 
L 119.995972 -145.733226 
L 123.304272 -145.733226 
L 126.612573 -145.733226 
L 129.920873 -145.733226 
L 133.229174 -145.733226 
L 136.537474 -145.733226 
L 139.845774 -145.733226 
L 143.154075 -145.733226 
L 146.462375 -145.733226 
L 149.770676 -145.733226 
L 153.078976 -145.733226 
L 156.387276 -145.733226 
L 159.695577 -145.733226 
L 163.003877 -145.733226 
L 166.312178 -145.733226 
L 169.620478 -145.733226 
L 172.928778 -145.733226 
L 176.237079 -145.733226 
L 179.545379 -145.733226 
L 182.85368 -145.733226 
L 186.16198 -145.733226 
L 189.47028 -145.733226 
L 192.778581 -145.733226 
L 196.086881 -145.733226 
L 199.395182 -145.733226 
L 202.703482 -145.733226 
L 206.011782 -145.733226 
L 209.320083 -145.733226 
L 212.628383 -145.733226 
L 215.936684 -145.733226 
L 219.244984 -145.733226 
L 222.553284 -145.733226 
L 225.861585 -145.733226 
L 229.169885 -145.733226 
L 232.478186 -145.733226 
L 235.786486 -145.733226 
L 239.094786 -145.733226 
L 242.403087 -145.733226 
L 245.711387 -145.733226 
L 249.019688 -145.733226 
L 252.327988 -145.733226 
L 255.636288 -145.733226 
L 258.944589 -145.733226 
L 262.252889 -145.733226 
L 265.561189 -145.733226 
L 268.86949 -145.733226 
L 272.17779 -145.733226 
L 275.486091 -145.733226 
L 278.794391 -145.733226 
L 282.102691 -145.733226 
L 285.410992 -145.733226 
L 288.719292 -145.733226 
L 292.027593 -145.733226 
L 295.335893 -145.733226 
L 298.644193 -145.733226 
L 301.952494 -145.733226 
L 305.260794 -145.733226 
L 308.569095 -145.733226 
L 311.877395 -145.733226 
L 315.185695 -145.733226 
L 318.493996 -145.733226 
L 321.802296 -145.733226 
L 325.110597 -145.733226 
L 328.418897 -145.733226 
L 331.727197 -145.733226 
L 335.035498 -145.733226 
L 338.343798 -145.733226 
L 341.652099 -145.733226 
L 344.960399 -145.733226 
L 348.268699 -145.733226 
L 351.577 -145.733226 
L 354.8853 -145.733226 
L 358.193601 -145.733226 
L 361.501901 -145.733226 
L 364.810201 -145.733226 
L 368.118502 -145.733226 
L 371.426802 -145.733226 
L 374.735103 -145.733226 
L 378.043403 -145.733226 
L 381.351703 -145.733226 
L 384.660004 -145.733226 
L 387.968304 -145.733226 
L 391.276604 -145.733226 
L 394.584905 -145.733226 
L 397.893205 -145.733226 
L 401.201506 -145.733226 
L 401.201506 -198.342919 
L 401.201506 -198.342919 
L 397.893205 -188.423987 
L 394.584905 -183.108103 
L 391.276604 -182.669629 
L 387.968304 -180.251439 
L 384.660004 -177.66861 
L 381.351703 -176.10233 
L 378.043403 -173.970785 
L 374.735103 -173.038793 
L 371.426802 -169.763041 
L 368.118502 -166.167994 
L 364.810201 -165.814292 
L 361.501901 -164.82989 
L 358.193601 -163.354141 
L 354.8853 -161.596966 
L 351.577 -160.654829 
L 348.268699 -160.502327 
L 344.960399 -160.214428 
L 341.652099 -159.45231 
L 338.343798 -154.56965 
L 335.035498 -154.271627 
L 331.727197 -153.323321 
L 328.418897 -152.800847 
L 325.110597 -152.773428 
L 321.802296 -152.351708 
L 318.493996 -149.429673 
L 315.185695 -149.228141 
L 311.877395 -148.607312 
L 308.569095 -148.131289 
L 305.260794 -148.034518 
L 301.952494 -147.935345 
L 298.644193 -147.93504 
L 295.335893 -147.913496 
L 292.027593 -147.738034 
L 288.719292 -147.067743 
L 285.410992 -146.686181 
L 282.102691 -146.674101 
L 278.794391 -146.425565 
L 275.486091 -146.365872 
L 272.17779 -146.21156 
L 268.86949 -146.181209 
L 265.561189 -146.13404 
L 262.252889 -146.058472 
L 258.944589 -146.057949 
L 255.636288 -146.010257 
L 252.327988 -145.930169 
L 249.019688 -145.854861 
L 245.711387 -145.840815 
L 242.403087 -145.805037 
L 239.094786 -145.802962 
L 235.786486 -145.787418 
L 232.478186 -145.767167 
L 229.169885 -145.722394 
L 225.861585 -145.691085 
L 222.553284 -145.68083 
L 219.244984 -145.672907 
L 215.936684 -145.663883 
L 212.628383 -145.63441 
L 209.320083 -145.572368 
L 206.011782 -145.568928 
L 202.703482 -145.51352 
L 199.395182 -145.474486 
L 196.086881 -145.454075 
L 192.778581 -145.207948 
L 189.47028 -145.165131 
L 186.16198 -145.125983 
L 182.85368 -145.125849 
L 179.545379 -145.032976 
L 176.237079 -144.997769 
L 172.928778 -144.952832 
L 169.620478 -144.94506 
L 166.312178 -144.897972 
L 163.003877 -144.842622 
L 159.695577 -144.40864 
L 156.387276 -144.383795 
L 153.078976 -144.18262 
L 149.770676 -143.469643 
L 146.462375 -143.262041 
L 143.154075 -135.960049 
L 139.845774 -135.69748 
L 136.537474 -135.441226 
L 133.229174 -134.73311 
L 129.920873 -133.343302 
L 126.612573 -131.166906 
L 123.304272 -130.500094 
L 119.995972 -129.869105 
L 116.687672 -128.796275 
L 113.379371 -126.006219 
L 110.071071 -124.139127 
L 106.762771 -123.275795 
L 103.45447 -121.351669 
L 100.14617 -119.600138 
L 96.837869 -117.668906 
z
" id="mc03d9d8bd6" style="stroke:#4a98c9;"/>
    </defs>
    <g clip-path="url(#pb0d923af01)">
     <use style="fill:#4a98c9;stroke:#4a98c9;" x="0" xlink:href="#mc03d9d8bd6" y="354.04"/>
    </g>
   </g>
   <g id="PolyCollection_2">
    <defs>
     <path d="M 96.837869 -25.82 
L 96.837869 -145.733226 
L 100.14617 -145.733226 
L 103.45447 -145.733226 
L 106.762771 -145.733226 
L 110.071071 -145.733226 
L 113.379371 -145.733226 
L 116.687672 -145.733226 
L 119.995972 -145.733226 
L 123.304272 -145.733226 
L 126.612573 -145.733226 
L 129.920873 -145.733226 
L 133.229174 -145.733226 
L 136.537474 -145.733226 
L 139.845774 -145.733226 
L 143.154075 -145.733226 
L 146.462375 -145.733226 
L 149.770676 -145.733226 
L 153.078976 -145.733226 
L 156.387276 -145.733226 
L 159.695577 -145.733226 
L 163.003877 -145.733226 
L 166.312178 -145.733226 
L 169.620478 -145.733226 
L 172.928778 -145.733226 
L 176.237079 -145.733226 
L 179.545379 -145.733226 
L 182.85368 -145.733226 
L 186.16198 -145.733226 
L 189.47028 -145.733226 
L 192.778581 -145.733226 
L 196.086881 -145.733226 
L 199.395182 -145.733226 
L 202.703482 -145.733226 
L 206.011782 -145.733226 
L 209.320083 -145.733226 
L 212.628383 -145.733226 
L 215.936684 -145.733226 
L 219.244984 -145.733226 
L 222.553284 -145.733226 
L 225.861585 -145.733226 
L 229.169885 -145.733226 
L 232.478186 -145.733226 
L 235.786486 -145.733226 
L 239.094786 -145.733226 
L 242.403087 -145.733226 
L 245.711387 -145.733226 
L 249.019688 -145.733226 
L 252.327988 -145.733226 
L 255.636288 -145.733226 
L 258.944589 -145.733226 
L 262.252889 -145.733226 
L 265.561189 -145.733226 
L 268.86949 -145.733226 
L 272.17779 -145.733226 
L 275.486091 -145.733226 
L 278.794391 -145.733226 
L 282.102691 -145.733226 
L 285.410992 -145.733226 
L 288.719292 -145.733226 
L 292.027593 -145.733226 
L 295.335893 -145.733226 
L 298.644193 -145.733226 
L 301.952494 -145.733226 
L 305.260794 -145.733226 
L 308.569095 -145.733226 
L 311.877395 -145.733226 
L 315.185695 -145.733226 
L 318.493996 -145.733226 
L 321.802296 -145.733226 
L 325.110597 -145.733226 
L 328.418897 -145.733226 
L 331.727197 -145.733226 
L 335.035498 -145.733226 
L 338.343798 -145.733226 
L 341.652099 -145.733226 
L 344.960399 -145.733226 
L 348.268699 -145.733226 
L 351.577 -145.733226 
L 354.8853 -145.733226 
L 358.193601 -145.733226 
L 361.501901 -145.733226 
L 364.810201 -145.733226 
L 368.118502 -145.733226 
L 371.426802 -145.733226 
L 374.735103 -145.733226 
L 378.043403 -145.733226 
L 381.351703 -145.733226 
L 384.660004 -145.733226 
L 387.968304 -145.733226 
L 391.276604 -145.733226 
L 394.584905 -145.733226 
L 397.893205 -145.733226 
L 401.201506 -145.733226 
L 401.201506 -328.22 
L 401.201506 -328.22 
L 397.893205 -325.825429 
L 394.584905 -318.028878 
L 391.276604 -305.019898 
L 387.968304 -302.01907 
L 384.660004 -266.990553 
L 381.351703 -265.141642 
L 378.043403 -264.82149 
L 374.735103 -216.887423 
L 371.426802 -214.830904 
L 368.118502 -211.7758 
L 364.810201 -197.843608 
L 361.501901 -189.729646 
L 358.193601 -189.141554 
L 354.8853 -187.841945 
L 351.577 -186.134366 
L 348.268699 -179.288903 
L 344.960399 -176.315492 
L 341.652099 -175.701813 
L 338.343798 -169.647022 
L 335.035498 -168.583987 
L 331.727197 -168.41593 
L 328.418897 -167.947297 
L 325.110597 -167.031336 
L 321.802296 -163.753918 
L 318.493996 -158.453016 
L 315.185695 -157.015219 
L 311.877395 -156.484456 
L 308.569095 -149.4995 
L 305.260794 -149.29834 
L 301.952494 -148.662943 
L 298.644193 -148.125002 
L 295.335893 -147.092501 
L 292.027593 -146.985017 
L 288.719292 -146.838452 
L 285.410992 -146.627275 
L 282.102691 -146.564505 
L 278.794391 -146.480384 
L 275.486091 -146.419507 
L 272.17779 -146.138364 
L 268.86949 -146.018591 
L 265.561189 -145.932507 
L 262.252889 -145.886019 
L 258.944589 -145.875672 
L 255.636288 -145.83447 
L 252.327988 -145.808899 
L 249.019688 -145.808198 
L 245.711387 -145.747286 
L 242.403087 -145.740365 
L 239.094786 -145.737885 
L 235.786486 -145.702472 
L 232.478186 -145.687815 
L 229.169885 -145.684099 
L 225.861585 -145.566563 
L 222.553284 -145.562706 
L 219.244984 -145.55544 
L 215.936684 -145.526398 
L 212.628383 -145.463469 
L 209.320083 -145.346606 
L 206.011782 -145.331093 
L 202.703482 -145.323475 
L 199.395182 -145.295405 
L 196.086881 -145.132419 
L 192.778581 -145.047522 
L 189.47028 -144.945413 
L 186.16198 -144.369693 
L 182.85368 -144.19207 
L 179.545379 -143.648507 
L 176.237079 -143.633516 
L 172.928778 -143.299538 
L 169.620478 -143.215442 
L 166.312178 -142.80955 
L 163.003877 -140.662397 
L 159.695577 -138.152682 
L 156.387276 -136.770847 
L 153.078976 -134.645915 
L 149.770676 -132.938349 
L 146.462375 -132.694894 
L 143.154075 -132.479981 
L 139.845774 -127.870671 
L 136.537474 -127.716149 
L 133.229174 -126.152662 
L 129.920873 -120.389669 
L 126.612573 -119.99621 
L 123.304272 -119.983795 
L 119.995972 -99.579015 
L 116.687672 -97.324008 
L 113.379371 -83.547406 
L 110.071071 -71.684401 
L 106.762771 -51.463491 
L 103.45447 -31.039088 
L 100.14617 -30.48222 
L 96.837869 -25.82 
z
" id="m46eaabf3da" style="stroke:#f14432;stroke-opacity:0.8;"/>
    </defs>
    <g clip-path="url(#pb0d923af01)">
     <use style="fill:#f14432;fill-opacity:0.8;stroke:#f14432;stroke-opacity:0.8;" x="0" xlink:href="#m46eaabf3da" y="354.04"/>
    </g>
   </g>
   <g id="matplotlib.axis_1"/>
   <g id="matplotlib.axis_2">
    <g id="ytick_1">
     <g id="line2d_1">
      <defs>
       <path d="M 0 0 
L -3.5 0 
" id="meb46f4eb08" style="stroke:#000000;stroke-width:0.8;"/>
      </defs>
      <g>
       <use style="stroke:#000000;stroke-width:0.8;" x="81.619687" xlink:href="#meb46f4eb08" y="303.077827"/>
      </g>
     </g>
     <g id="text_1">
      <!-- −0.10 -->
      <defs>
       <path d="M 10.59375 35.5 
L 73.1875 35.5 
L 73.1875 27.203125 
L 10.59375 27.203125 
z
" id="DejaVuSans-2212"/>
       <path d="M 31.78125 66.40625 
Q 24.171875 66.40625 20.328125 58.90625 
Q 16.5 51.421875 16.5 36.375 
Q 16.5 21.390625 20.328125 13.890625 
Q 24.171875 6.390625 31.78125 6.390625 
Q 39.453125 6.390625 43.28125 13.890625 
Q 47.125 21.390625 47.125 36.375 
Q 47.125 51.421875 43.28125 58.90625 
Q 39.453125 66.40625 31.78125 66.40625 
z
M 31.78125 74.21875 
Q 44.046875 74.21875 50.515625 64.515625 
Q 56.984375 54.828125 56.984375 36.375 
Q 56.984375 17.96875 50.515625 8.265625 
Q 44.046875 -1.421875 31.78125 -1.421875 
Q 19.53125 -1.421875 13.0625 8.265625 
Q 6.59375 17.96875 6.59375 36.375 
Q 6.59375 54.828125 13.0625 64.515625 
Q 19.53125 74.21875 31.78125 74.21875 
z
" id="DejaVuSans-30"/>
       <path d="M 10.6875 12.40625 
L 21 12.40625 
L 21 0 
L 10.6875 0 
z
" id="DejaVuSans-2e"/>
       <path d="M 12.40625 8.296875 
L 28.515625 8.296875 
L 28.515625 63.921875 
L 10.984375 60.40625 
L 10.984375 69.390625 
L 28.421875 72.90625 
L 38.28125 72.90625 
L 38.28125 8.296875 
L 54.390625 8.296875 
L 54.390625 0 
L 12.40625 0 
z
" id="DejaVuSans-31"/>
      </defs>
      <g transform="translate(7.2 311.436108)scale(0.22 -0.22)">
       <use xlink:href="#DejaVuSans-2212"/>
       <use x="83.789062" xlink:href="#DejaVuSans-30"/>
       <use x="147.412109" xlink:href="#DejaVuSans-2e"/>
       <use x="179.199219" xlink:href="#DejaVuSans-31"/>
       <use x="242.822266" xlink:href="#DejaVuSans-30"/>
      </g>
     </g>
    </g>
    <g id="ytick_2">
     <g id="line2d_2">
      <g>
       <use style="stroke:#000000;stroke-width:0.8;" x="81.619687" xlink:href="#meb46f4eb08" y="255.6923"/>
      </g>
     </g>
     <g id="text_2">
      <!-- −0.05 -->
      <defs>
       <path d="M 10.796875 72.90625 
L 49.515625 72.90625 
L 49.515625 64.59375 
L 19.828125 64.59375 
L 19.828125 46.734375 
Q 21.96875 47.46875 24.109375 47.828125 
Q 26.265625 48.1875 28.421875 48.1875 
Q 40.625 48.1875 47.75 41.5 
Q 54.890625 34.8125 54.890625 23.390625 
Q 54.890625 11.625 47.5625 5.09375 
Q 40.234375 -1.421875 26.90625 -1.421875 
Q 22.3125 -1.421875 17.546875 -0.640625 
Q 12.796875 0.140625 7.71875 1.703125 
L 7.71875 11.625 
Q 12.109375 9.234375 16.796875 8.0625 
Q 21.484375 6.890625 26.703125 6.890625 
Q 35.15625 6.890625 40.078125 11.328125 
Q 45.015625 15.765625 45.015625 23.390625 
Q 45.015625 31 40.078125 35.4375 
Q 35.15625 39.890625 26.703125 39.890625 
Q 22.75 39.890625 18.8125 39.015625 
Q 14.890625 38.140625 10.796875 36.28125 
z
" id="DejaVuSans-35"/>
      </defs>
      <g transform="translate(7.2 264.050582)scale(0.22 -0.22)">
       <use xlink:href="#DejaVuSans-2212"/>
       <use x="83.789062" xlink:href="#DejaVuSans-30"/>
       <use x="147.412109" xlink:href="#DejaVuSans-2e"/>
       <use x="179.199219" xlink:href="#DejaVuSans-30"/>
       <use x="242.822266" xlink:href="#DejaVuSans-35"/>
      </g>
     </g>
    </g>
    <g id="ytick_3">
     <g id="line2d_3">
      <g>
       <use style="stroke:#000000;stroke-width:0.8;" x="81.619687" xlink:href="#meb46f4eb08" y="208.306774"/>
      </g>
     </g>
     <g id="text_3">
      <!-- 0.00 -->
      <g transform="translate(25.635312 216.665055)scale(0.22 -0.22)">
       <use xlink:href="#DejaVuSans-30"/>
       <use x="63.623047" xlink:href="#DejaVuSans-2e"/>
       <use x="95.410156" xlink:href="#DejaVuSans-30"/>
       <use x="159.033203" xlink:href="#DejaVuSans-30"/>
      </g>
     </g>
    </g>
    <g id="ytick_4">
     <g id="line2d_4">
      <g>
       <use style="stroke:#000000;stroke-width:0.8;" x="81.619687" xlink:href="#meb46f4eb08" y="160.921248"/>
      </g>
     </g>
     <g id="text_4">
      <!-- 0.05 -->
      <g transform="translate(25.635312 169.279529)scale(0.22 -0.22)">
       <use xlink:href="#DejaVuSans-30"/>
       <use x="63.623047" xlink:href="#DejaVuSans-2e"/>
       <use x="95.410156" xlink:href="#DejaVuSans-30"/>
       <use x="159.033203" xlink:href="#DejaVuSans-35"/>
      </g>
     </g>
    </g>
    <g id="ytick_5">
     <g id="line2d_5">
      <g>
       <use style="stroke:#000000;stroke-width:0.8;" x="81.619687" xlink:href="#meb46f4eb08" y="113.535721"/>
      </g>
     </g>
     <g id="text_5">
      <!-- 0.10 -->
      <g transform="translate(25.635312 121.894003)scale(0.22 -0.22)">
       <use xlink:href="#DejaVuSans-30"/>
       <use x="63.623047" xlink:href="#DejaVuSans-2e"/>
       <use x="95.410156" xlink:href="#DejaVuSans-31"/>
       <use x="159.033203" xlink:href="#DejaVuSans-30"/>
      </g>
     </g>
    </g>
    <g id="ytick_6">
     <g id="line2d_6">
      <g>
       <use style="stroke:#000000;stroke-width:0.8;" x="81.619687" xlink:href="#meb46f4eb08" y="66.150195"/>
      </g>
     </g>
     <g id="text_6">
      <!-- 0.15 -->
      <g transform="translate(25.635312 74.508476)scale(0.22 -0.22)">
       <use xlink:href="#DejaVuSans-30"/>
       <use x="63.623047" xlink:href="#DejaVuSans-2e"/>
       <use x="95.410156" xlink:href="#DejaVuSans-31"/>
       <use x="159.033203" xlink:href="#DejaVuSans-35"/>
      </g>
     </g>
    </g>
    <g id="ytick_7">
     <g id="line2d_7">
      <g>
       <use style="stroke:#000000;stroke-width:0.8;" x="81.619687" xlink:href="#meb46f4eb08" y="18.764669"/>
      </g>
     </g>
     <g id="text_7">
      <!-- 0.20 -->
      <defs>
       <path d="M 19.1875 8.296875 
L 53.609375 8.296875 
L 53.609375 0 
L 7.328125 0 
L 7.328125 8.296875 
Q 12.9375 14.109375 22.625 23.890625 
Q 32.328125 33.6875 34.8125 36.53125 
Q 39.546875 41.84375 41.421875 45.53125 
Q 43.3125 49.21875 43.3125 52.78125 
Q 43.3125 58.59375 39.234375 62.25 
Q 35.15625 65.921875 28.609375 65.921875 
Q 23.96875 65.921875 18.8125 64.3125 
Q 13.671875 62.703125 7.8125 59.421875 
L 7.8125 69.390625 
Q 13.765625 71.78125 18.9375 73 
Q 24.125 74.21875 28.421875 74.21875 
Q 39.75 74.21875 46.484375 68.546875 
Q 53.21875 62.890625 53.21875 53.421875 
Q 53.21875 48.921875 51.53125 44.890625 
Q 49.859375 40.875 45.40625 35.40625 
Q 44.1875 33.984375 37.640625 27.21875 
Q 31.109375 20.453125 19.1875 8.296875 
z
" id="DejaVuSans-32"/>
      </defs>
      <g transform="translate(25.635312 27.12295)scale(0.22 -0.22)">
       <use xlink:href="#DejaVuSans-30"/>
       <use x="63.623047" xlink:href="#DejaVuSans-2e"/>
       <use x="95.410156" xlink:href="#DejaVuSans-32"/>
       <use x="159.033203" xlink:href="#DejaVuSans-30"/>
      </g>
     </g>
    </g>
   </g>
   <g id="patch_3">
    <path d="M 81.619687 343.34 
L 81.619687 10.7 
" style="fill:none;stroke:#000000;stroke-linecap:square;stroke-linejoin:miter;stroke-width:0.8;"/>
   </g>
   <g id="patch_4">
    <path d="M 416.419688 343.34 
L 416.419688 10.7 
" style="fill:none;stroke:#000000;stroke-linecap:square;stroke-linejoin:miter;stroke-width:0.8;"/>
   </g>
   <g id="patch_5">
    <path d="M 81.619687 343.34 
L 416.419688 343.34 
" style="fill:none;stroke:#000000;stroke-linecap:square;stroke-linejoin:miter;stroke-width:0.8;"/>
   </g>
   <g id="patch_6">
    <path d="M 81.619687 10.7 
L 416.419688 10.7 
" style="fill:none;stroke:#000000;stroke-linecap:square;stroke-linejoin:miter;stroke-width:0.8;"/>
   </g>
  </g>
 </g>
 <defs>
  <clipPath id="pb0d923af01">
   <rect height="332.64" width="334.8" x="81.619687" y="10.7"/>
  </clipPath>
 </defs>
</svg>
