<?xml version="1.0" encoding="utf-8" standalone="no"?>
<!DOCTYPE svg PUBLIC "-//W3C//DTD SVG 1.1//EN"
  "http://www.w3.org/Graphics/SVG/1.1/DTD/svg11.dtd">
<!-- Created with matplotlib (http://matplotlib.org/) -->
<svg height="354pt" version="1.1" viewBox="0 0 427 354" width="427pt" xmlns="http://www.w3.org/2000/svg" xmlns:xlink="http://www.w3.org/1999/xlink">
 <defs>
  <style type="text/css">
*{stroke-linecap:butt;stroke-linejoin:round;}
  </style>
 </defs>
 <g id="figure_1">
  <g id="patch_1">
   <path d="M 0 354.04 
L 427.119687 354.04 
L 427.119687 0 
L 0 0 
z
" style="fill:#ffffff;"/>
  </g>
  <g id="axes_1">
   <g id="patch_2">
    <path d="M 81.619687 343.34 
L 416.419688 343.34 
L 416.419688 10.7 
L 81.619687 10.7 
z
" style="fill:#ffffff;"/>
   </g>
   <g id="PolyCollection_1">
    <defs>
     <path d="M 96.837869 -66.71028 
L 96.837869 -139.004705 
L 100.14617 -139.004705 
L 103.45447 -139.004705 
L 106.762771 -139.004705 
L 110.071071 -139.004705 
L 113.379371 -139.004705 
L 116.687672 -139.004705 
L 119.995972 -139.004705 
L 123.304272 -139.004705 
L 126.612573 -139.004705 
L 129.920873 -139.004705 
L 133.229174 -139.004705 
L 136.537474 -139.004705 
L 139.845774 -139.004705 
L 143.154075 -139.004705 
L 146.462375 -139.004705 
L 149.770676 -139.004705 
L 153.078976 -139.004705 
L 156.387276 -139.004705 
L 159.695577 -139.004705 
L 163.003877 -139.004705 
L 166.312178 -139.004705 
L 169.620478 -139.004705 
L 172.928778 -139.004705 
L 176.237079 -139.004705 
L 179.545379 -139.004705 
L 182.85368 -139.004705 
L 186.16198 -139.004705 
L 189.47028 -139.004705 
L 192.778581 -139.004705 
L 196.086881 -139.004705 
L 199.395182 -139.004705 
L 202.703482 -139.004705 
L 206.011782 -139.004705 
L 209.320083 -139.004705 
L 212.628383 -139.004705 
L 215.936684 -139.004705 
L 219.244984 -139.004705 
L 222.553284 -139.004705 
L 225.861585 -139.004705 
L 229.169885 -139.004705 
L 232.478186 -139.004705 
L 235.786486 -139.004705 
L 239.094786 -139.004705 
L 242.403087 -139.004705 
L 245.711387 -139.004705 
L 249.019688 -139.004705 
L 252.327988 -139.004705 
L 255.636288 -139.004705 
L 258.944589 -139.004705 
L 262.252889 -139.004705 
L 265.561189 -139.004705 
L 268.86949 -139.004705 
L 272.17779 -139.004705 
L 275.486091 -139.004705 
L 278.794391 -139.004705 
L 282.102691 -139.004705 
L 285.410992 -139.004705 
L 288.719292 -139.004705 
L 292.027593 -139.004705 
L 295.335893 -139.004705 
L 298.644193 -139.004705 
L 301.952494 -139.004705 
L 305.260794 -139.004705 
L 308.569095 -139.004705 
L 311.877395 -139.004705 
L 315.185695 -139.004705 
L 318.493996 -139.004705 
L 321.802296 -139.004705 
L 325.110597 -139.004705 
L 328.418897 -139.004705 
L 331.727197 -139.004705 
L 335.035498 -139.004705 
L 338.343798 -139.004705 
L 341.652099 -139.004705 
L 344.960399 -139.004705 
L 348.268699 -139.004705 
L 351.577 -139.004705 
L 354.8853 -139.004705 
L 358.193601 -139.004705 
L 361.501901 -139.004705 
L 364.810201 -139.004705 
L 368.118502 -139.004705 
L 371.426802 -139.004705 
L 374.735103 -139.004705 
L 378.043403 -139.004705 
L 381.351703 -139.004705 
L 384.660004 -139.004705 
L 387.968304 -139.004705 
L 391.276604 -139.004705 
L 394.584905 -139.004705 
L 397.893205 -139.004705 
L 401.201506 -139.004705 
L 401.201506 -219.535261 
L 401.201506 -219.535261 
L 397.893205 -203.082207 
L 394.584905 -190.680151 
L 391.276604 -187.573543 
L 387.968304 -187.405979 
L 384.660004 -179.96653 
L 381.351703 -177.309144 
L 378.043403 -174.760624 
L 374.735103 -170.329128 
L 371.426802 -167.345903 
L 368.118502 -166.818997 
L 364.810201 -165.839778 
L 361.501901 -163.0644 
L 358.193601 -156.614912 
L 354.8853 -155.641927 
L 351.577 -155.552978 
L 348.268699 -154.740862 
L 344.960399 -154.181795 
L 341.652099 -153.806072 
L 338.343798 -152.830822 
L 335.035498 -151.16421 
L 331.727197 -150.848582 
L 328.418897 -150.726637 
L 325.110597 -147.154997 
L 321.802296 -146.568508 
L 318.493996 -146.451593 
L 315.185695 -146.426187 
L 311.877395 -146.389174 
L 308.569095 -145.907781 
L 305.260794 -145.254324 
L 301.952494 -143.972303 
L 298.644193 -143.871572 
L 295.335893 -143.744076 
L 292.027593 -143.6065 
L 288.719292 -142.887281 
L 285.410992 -142.513229 
L 282.102691 -142.234667 
L 278.794391 -142.18555 
L 275.486091 -142.063867 
L 272.17779 -141.840353 
L 268.86949 -141.549702 
L 265.561189 -141.205412 
L 262.252889 -141.104216 
L 258.944589 -141.00052 
L 255.636288 -140.657755 
L 252.327988 -140.614317 
L 249.019688 -140.223152 
L 245.711387 -140.021857 
L 242.403087 -139.993518 
L 239.094786 -139.963722 
L 235.786486 -139.929579 
L 232.478186 -139.440061 
L 229.169885 -139.333628 
L 225.861585 -139.318067 
L 222.553284 -138.933819 
L 219.244984 -138.867172 
L 215.936684 -138.649889 
L 212.628383 -138.381341 
L 209.320083 -138.364295 
L 206.011782 -138.195804 
L 202.703482 -137.937035 
L 199.395182 -137.538036 
L 196.086881 -137.460026 
L 192.778581 -136.554535 
L 189.47028 -136.522933 
L 186.16198 -136.40262 
L 182.85368 -136.311671 
L 179.545379 -135.676932 
L 176.237079 -135.52894 
L 172.928778 -135.502539 
L 169.620478 -135.252404 
L 166.312178 -134.758811 
L 163.003877 -133.658471 
L 159.695577 -133.627578 
L 156.387276 -133.260652 
L 153.078976 -131.727344 
L 149.770676 -131.29986 
L 146.462375 -130.763676 
L 143.154075 -129.821705 
L 139.845774 -129.654594 
L 136.537474 -129.168692 
L 133.229174 -128.409106 
L 129.920873 -128.276388 
L 126.612573 -120.049906 
L 123.304272 -117.485549 
L 119.995972 -114.420488 
L 116.687672 -113.679722 
L 113.379371 -109.733301 
L 110.071071 -108.989063 
L 106.762771 -106.432518 
L 103.45447 -105.187301 
L 100.14617 -102.313566 
L 96.837869 -66.71028 
z
" id="mb3708b566d" style="stroke:#4a98c9;"/>
    </defs>
    <g clip-path="url(#pcf6e8e96b3)">
     <use style="fill:#4a98c9;stroke:#4a98c9;" x="0" xlink:href="#mb3708b566d" y="354.04"/>
    </g>
   </g>
   <g id="PolyCollection_2">
    <defs>
     <path d="M 96.837869 -25.82 
L 96.837869 -139.004705 
L 100.14617 -139.004705 
L 103.45447 -139.004705 
L 106.762771 -139.004705 
L 110.071071 -139.004705 
L 113.379371 -139.004705 
L 116.687672 -139.004705 
L 119.995972 -139.004705 
L 123.304272 -139.004705 
L 126.612573 -139.004705 
L 129.920873 -139.004705 
L 133.229174 -139.004705 
L 136.537474 -139.004705 
L 139.845774 -139.004705 
L 143.154075 -139.004705 
L 146.462375 -139.004705 
L 149.770676 -139.004705 
L 153.078976 -139.004705 
L 156.387276 -139.004705 
L 159.695577 -139.004705 
L 163.003877 -139.004705 
L 166.312178 -139.004705 
L 169.620478 -139.004705 
L 172.928778 -139.004705 
L 176.237079 -139.004705 
L 179.545379 -139.004705 
L 182.85368 -139.004705 
L 186.16198 -139.004705 
L 189.47028 -139.004705 
L 192.778581 -139.004705 
L 196.086881 -139.004705 
L 199.395182 -139.004705 
L 202.703482 -139.004705 
L 206.011782 -139.004705 
L 209.320083 -139.004705 
L 212.628383 -139.004705 
L 215.936684 -139.004705 
L 219.244984 -139.004705 
L 222.553284 -139.004705 
L 225.861585 -139.004705 
L 229.169885 -139.004705 
L 232.478186 -139.004705 
L 235.786486 -139.004705 
L 239.094786 -139.004705 
L 242.403087 -139.004705 
L 245.711387 -139.004705 
L 249.019688 -139.004705 
L 252.327988 -139.004705 
L 255.636288 -139.004705 
L 258.944589 -139.004705 
L 262.252889 -139.004705 
L 265.561189 -139.004705 
L 268.86949 -139.004705 
L 272.17779 -139.004705 
L 275.486091 -139.004705 
L 278.794391 -139.004705 
L 282.102691 -139.004705 
L 285.410992 -139.004705 
L 288.719292 -139.004705 
L 292.027593 -139.004705 
L 295.335893 -139.004705 
L 298.644193 -139.004705 
L 301.952494 -139.004705 
L 305.260794 -139.004705 
L 308.569095 -139.004705 
L 311.877395 -139.004705 
L 315.185695 -139.004705 
L 318.493996 -139.004705 
L 321.802296 -139.004705 
L 325.110597 -139.004705 
L 328.418897 -139.004705 
L 331.727197 -139.004705 
L 335.035498 -139.004705 
L 338.343798 -139.004705 
L 341.652099 -139.004705 
L 344.960399 -139.004705 
L 348.268699 -139.004705 
L 351.577 -139.004705 
L 354.8853 -139.004705 
L 358.193601 -139.004705 
L 361.501901 -139.004705 
L 364.810201 -139.004705 
L 368.118502 -139.004705 
L 371.426802 -139.004705 
L 374.735103 -139.004705 
L 378.043403 -139.004705 
L 381.351703 -139.004705 
L 384.660004 -139.004705 
L 387.968304 -139.004705 
L 391.276604 -139.004705 
L 394.584905 -139.004705 
L 397.893205 -139.004705 
L 401.201506 -139.004705 
L 401.201506 -328.22 
L 401.201506 -328.22 
L 397.893205 -272.869755 
L 394.584905 -270.022296 
L 391.276604 -269.540591 
L 387.968304 -256.586997 
L 384.660004 -250.095196 
L 381.351703 -244.141025 
L 378.043403 -234.24305 
L 374.735103 -232.380227 
L 371.426802 -228.580341 
L 368.118502 -200.85244 
L 364.810201 -199.666384 
L 361.501901 -194.352417 
L 358.193601 -191.849144 
L 354.8853 -185.218117 
L 351.577 -182.632865 
L 348.268699 -180.036915 
L 344.960399 -178.594991 
L 341.652099 -171.766397 
L 338.343798 -171.200236 
L 335.035498 -168.511288 
L 331.727197 -165.161032 
L 328.418897 -164.843207 
L 325.110597 -163.427402 
L 321.802296 -157.059363 
L 318.493996 -154.644254 
L 315.185695 -153.031261 
L 311.877395 -150.712959 
L 308.569095 -149.370804 
L 305.260794 -148.137131 
L 301.952494 -147.971966 
L 298.644193 -147.653628 
L 295.335893 -146.358908 
L 292.027593 -145.982951 
L 288.719292 -144.882975 
L 285.410992 -143.132349 
L 282.102691 -142.225638 
L 278.794391 -142.146833 
L 275.486091 -141.22186 
L 272.17779 -140.932157 
L 268.86949 -140.43822 
L 265.561189 -140.352129 
L 262.252889 -140.115246 
L 258.944589 -139.899538 
L 255.636288 -139.484728 
L 252.327988 -139.166904 
L 249.019688 -139.164409 
L 245.711387 -138.989072 
L 242.403087 -138.951975 
L 239.094786 -138.758018 
L 235.786486 -138.64702 
L 232.478186 -138.468553 
L 229.169885 -138.464579 
L 225.861585 -137.789537 
L 222.553284 -137.025852 
L 219.244984 -136.342097 
L 215.936684 -136.327903 
L 212.628383 -136.001299 
L 209.320083 -135.618474 
L 206.011782 -135.113037 
L 202.703482 -135.064709 
L 199.395182 -134.031007 
L 196.086881 -133.993271 
L 192.778581 -133.848033 
L 189.47028 -133.728983 
L 186.16198 -133.705108 
L 182.85368 -133.019973 
L 179.545379 -132.763318 
L 176.237079 -132.287072 
L 172.928778 -131.235091 
L 169.620478 -131.182497 
L 166.312178 -128.63461 
L 163.003877 -128.372752 
L 159.695577 -127.245577 
L 156.387276 -126.577782 
L 153.078976 -126.472157 
L 149.770676 -125.984898 
L 146.462375 -123.271043 
L 143.154075 -122.915704 
L 139.845774 -121.818014 
L 136.537474 -113.295565 
L 133.229174 -109.003196 
L 129.920873 -107.500628 
L 126.612573 -101.602474 
L 123.304272 -96.083492 
L 119.995972 -94.224952 
L 116.687672 -93.339102 
L 113.379371 -90.003326 
L 110.071071 -79.663753 
L 106.762771 -77.883534 
L 103.45447 -75.952534 
L 100.14617 -31.481835 
L 96.837869 -25.82 
z
" id="m3fcfc05040" style="stroke:#f14432;stroke-opacity:0.8;"/>
    </defs>
    <g clip-path="url(#pcf6e8e96b3)">
     <use style="fill:#f14432;fill-opacity:0.8;stroke:#f14432;stroke-opacity:0.8;" x="0" xlink:href="#m3fcfc05040" y="354.04"/>
    </g>
   </g>
   <g id="matplotlib.axis_1"/>
   <g id="matplotlib.axis_2">
    <g id="ytick_1">
     <g id="line2d_1">
      <defs>
       <path d="M 0 0 
L -3.5 0 
" id="m1da1026abd" style="stroke:#000000;stroke-width:0.8;"/>
      </defs>
      <g>
       <use style="stroke:#000000;stroke-width:0.8;" x="81.619687" xlink:href="#m1da1026abd" y="287.385761"/>
      </g>
     </g>
     <g id="text_1">
      <!-- −0.05 -->
      <defs>
       <path d="M 10.59375 35.5 
L 73.1875 35.5 
L 73.1875 27.203125 
L 10.59375 27.203125 
z
" id="DejaVuSans-2212"/>
       <path d="M 31.78125 66.40625 
Q 24.171875 66.40625 20.328125 58.90625 
Q 16.5 51.421875 16.5 36.375 
Q 16.5 21.390625 20.328125 13.890625 
Q 24.171875 6.390625 31.78125 6.390625 
Q 39.453125 6.390625 43.28125 13.890625 
Q 47.125 21.390625 47.125 36.375 
Q 47.125 51.421875 43.28125 58.90625 
Q 39.453125 66.40625 31.78125 66.40625 
z
M 31.78125 74.21875 
Q 44.046875 74.21875 50.515625 64.515625 
Q 56.984375 54.828125 56.984375 36.375 
Q 56.984375 17.96875 50.515625 8.265625 
Q 44.046875 -1.421875 31.78125 -1.421875 
Q 19.53125 -1.421875 13.0625 8.265625 
Q 6.59375 17.96875 6.59375 36.375 
Q 6.59375 54.828125 13.0625 64.515625 
Q 19.53125 74.21875 31.78125 74.21875 
z
" id="DejaVuSans-30"/>
       <path d="M 10.6875 12.40625 
L 21 12.40625 
L 21 0 
L 10.6875 0 
z
" id="DejaVuSans-2e"/>
       <path d="M 10.796875 72.90625 
L 49.515625 72.90625 
L 49.515625 64.59375 
L 19.828125 64.59375 
L 19.828125 46.734375 
Q 21.96875 47.46875 24.109375 47.828125 
Q 26.265625 48.1875 28.421875 48.1875 
Q 40.625 48.1875 47.75 41.5 
Q 54.890625 34.8125 54.890625 23.390625 
Q 54.890625 11.625 47.5625 5.09375 
Q 40.234375 -1.421875 26.90625 -1.421875 
Q 22.3125 -1.421875 17.546875 -0.640625 
Q 12.796875 0.140625 7.71875 1.703125 
L 7.71875 11.625 
Q 12.109375 9.234375 16.796875 8.0625 
Q 21.484375 6.890625 26.703125 6.890625 
Q 35.15625 6.890625 40.078125 11.328125 
Q 45.015625 15.765625 45.015625 23.390625 
Q 45.015625 31 40.078125 35.4375 
Q 35.15625 39.890625 26.703125 39.890625 
Q 22.75 39.890625 18.8125 39.015625 
Q 14.890625 38.140625 10.796875 36.28125 
z
" id="DejaVuSans-35"/>
      </defs>
      <g transform="translate(7.2 295.744043)scale(0.22 -0.22)">
       <use xlink:href="#DejaVuSans-2212"/>
       <use x="83.789062" xlink:href="#DejaVuSans-30"/>
       <use x="147.412109" xlink:href="#DejaVuSans-2e"/>
       <use x="179.199219" xlink:href="#DejaVuSans-30"/>
       <use x="242.822266" xlink:href="#DejaVuSans-35"/>
      </g>
     </g>
    </g>
    <g id="ytick_2">
     <g id="line2d_2">
      <g>
       <use style="stroke:#000000;stroke-width:0.8;" x="81.619687" xlink:href="#m1da1026abd" y="215.035295"/>
      </g>
     </g>
     <g id="text_2">
      <!-- 0.00 -->
      <g transform="translate(25.635312 223.393576)scale(0.22 -0.22)">
       <use xlink:href="#DejaVuSans-30"/>
       <use x="63.623047" xlink:href="#DejaVuSans-2e"/>
       <use x="95.410156" xlink:href="#DejaVuSans-30"/>
       <use x="159.033203" xlink:href="#DejaVuSans-30"/>
      </g>
     </g>
    </g>
    <g id="ytick_3">
     <g id="line2d_3">
      <g>
       <use style="stroke:#000000;stroke-width:0.8;" x="81.619687" xlink:href="#m1da1026abd" y="142.684828"/>
      </g>
     </g>
     <g id="text_3">
      <!-- 0.05 -->
      <g transform="translate(25.635312 151.043109)scale(0.22 -0.22)">
       <use xlink:href="#DejaVuSans-30"/>
       <use x="63.623047" xlink:href="#DejaVuSans-2e"/>
       <use x="95.410156" xlink:href="#DejaVuSans-30"/>
       <use x="159.033203" xlink:href="#DejaVuSans-35"/>
      </g>
     </g>
    </g>
    <g id="ytick_4">
     <g id="line2d_4">
      <g>
       <use style="stroke:#000000;stroke-width:0.8;" x="81.619687" xlink:href="#m1da1026abd" y="70.334361"/>
      </g>
     </g>
     <g id="text_4">
      <!-- 0.10 -->
      <defs>
       <path d="M 12.40625 8.296875 
L 28.515625 8.296875 
L 28.515625 63.921875 
L 10.984375 60.40625 
L 10.984375 69.390625 
L 28.421875 72.90625 
L 38.28125 72.90625 
L 38.28125 8.296875 
L 54.390625 8.296875 
L 54.390625 0 
L 12.40625 0 
z
" id="DejaVuSans-31"/>
      </defs>
      <g transform="translate(25.635312 78.692642)scale(0.22 -0.22)">
       <use xlink:href="#DejaVuSans-30"/>
       <use x="63.623047" xlink:href="#DejaVuSans-2e"/>
       <use x="95.410156" xlink:href="#DejaVuSans-31"/>
       <use x="159.033203" xlink:href="#DejaVuSans-30"/>
      </g>
     </g>
    </g>
   </g>
   <g id="patch_3">
    <path d="M 81.619687 343.34 
L 81.619687 10.7 
" style="fill:none;stroke:#000000;stroke-linecap:square;stroke-linejoin:miter;stroke-width:0.8;"/>
   </g>
   <g id="patch_4">
    <path d="M 416.419688 343.34 
L 416.419688 10.7 
" style="fill:none;stroke:#000000;stroke-linecap:square;stroke-linejoin:miter;stroke-width:0.8;"/>
   </g>
   <g id="patch_5">
    <path d="M 81.619687 343.34 
L 416.419688 343.34 
" style="fill:none;stroke:#000000;stroke-linecap:square;stroke-linejoin:miter;stroke-width:0.8;"/>
   </g>
   <g id="patch_6">
    <path d="M 81.619687 10.7 
L 416.419688 10.7 
" style="fill:none;stroke:#000000;stroke-linecap:square;stroke-linejoin:miter;stroke-width:0.8;"/>
   </g>
  </g>
 </g>
 <defs>
  <clipPath id="pcf6e8e96b3">
   <rect height="332.64" width="334.8" x="81.619687" y="10.7"/>
  </clipPath>
 </defs>
</svg>
