<?xml version="1.0" encoding="utf-8" standalone="no"?>
<!DOCTYPE svg PUBLIC "-//W3C//DTD SVG 1.1//EN"
  "http://www.w3.org/Graphics/SVG/1.1/DTD/svg11.dtd">
<!-- Created with matplotlib (http://matplotlib.org/) -->
<svg height="357pt" version="1.1" viewBox="0 0 441 357" width="441pt" xmlns="http://www.w3.org/2000/svg" xmlns:xlink="http://www.w3.org/1999/xlink">
 <defs>
  <style type="text/css">
*{stroke-linecap:butt;stroke-linejoin:round;}
  </style>
 </defs>
 <g id="figure_1">
  <g id="patch_1">
   <path d="M 0 357.866478 
L 441.117188 357.866478 
L 441.117188 0 
L 0 0 
z
" style="fill:#ffffff;"/>
  </g>
  <g id="axes_1">
   <g id="patch_2">
    <path d="M 95.617188 344.983868 
L 430.417188 344.983868 
L 430.417188 12.343868 
L 95.617188 12.343868 
z
" style="fill:#ffffff;"/>
   </g>
   <g id="PolyCollection_1">
    <defs>
     <path d="M 110.835369 -28.00261 
L 110.835369 -149.003435 
L 114.14367 -149.003435 
L 117.45197 -149.003435 
L 120.760271 -149.003435 
L 124.068571 -149.003435 
L 127.376871 -149.003435 
L 130.685172 -149.003435 
L 133.993472 -149.003435 
L 137.301772 -149.003435 
L 140.610073 -149.003435 
L 143.918373 -149.003435 
L 147.226674 -149.003435 
L 150.534974 -149.003435 
L 153.843274 -149.003435 
L 157.151575 -149.003435 
L 160.459875 -149.003435 
L 163.768176 -149.003435 
L 167.076476 -149.003435 
L 170.384776 -149.003435 
L 173.693077 -149.003435 
L 177.001377 -149.003435 
L 180.309678 -149.003435 
L 183.617978 -149.003435 
L 186.926278 -149.003435 
L 190.234579 -149.003435 
L 193.542879 -149.003435 
L 196.85118 -149.003435 
L 200.15948 -149.003435 
L 203.46778 -149.003435 
L 206.776081 -149.003435 
L 210.084381 -149.003435 
L 213.392682 -149.003435 
L 216.700982 -149.003435 
L 220.009282 -149.003435 
L 223.317583 -149.003435 
L 226.625883 -149.003435 
L 229.934184 -149.003435 
L 233.242484 -149.003435 
L 236.550784 -149.003435 
L 239.859085 -149.003435 
L 243.167385 -149.003435 
L 246.475686 -149.003435 
L 249.783986 -149.003435 
L 253.092286 -149.003435 
L 256.400587 -149.003435 
L 259.708887 -149.003435 
L 263.017188 -149.003435 
L 266.325488 -149.003435 
L 269.633788 -149.003435 
L 272.942089 -149.003435 
L 276.250389 -149.003435 
L 279.558689 -149.003435 
L 282.86699 -149.003435 
L 286.17529 -149.003435 
L 289.483591 -149.003435 
L 292.791891 -149.003435 
L 296.100191 -149.003435 
L 299.408492 -149.003435 
L 302.716792 -149.003435 
L 306.025093 -149.003435 
L 309.333393 -149.003435 
L 312.641693 -149.003435 
L 315.949994 -149.003435 
L 319.258294 -149.003435 
L 322.566595 -149.003435 
L 325.874895 -149.003435 
L 329.183195 -149.003435 
L 332.491496 -149.003435 
L 335.799796 -149.003435 
L 339.108097 -149.003435 
L 342.416397 -149.003435 
L 345.724697 -149.003435 
L 349.032998 -149.003435 
L 352.341298 -149.003435 
L 355.649599 -149.003435 
L 358.957899 -149.003435 
L 362.266199 -149.003435 
L 365.5745 -149.003435 
L 368.8828 -149.003435 
L 372.191101 -149.003435 
L 375.499401 -149.003435 
L 378.807701 -149.003435 
L 382.116002 -149.003435 
L 385.424302 -149.003435 
L 388.732603 -149.003435 
L 392.040903 -149.003435 
L 395.349203 -149.003435 
L 398.657504 -149.003435 
L 401.965804 -149.003435 
L 405.274104 -149.003435 
L 408.582405 -149.003435 
L 411.890705 -149.003435 
L 415.199006 -149.003435 
L 415.199006 -330.40261 
L 415.199006 -330.40261 
L 411.890705 -259.487559 
L 408.582405 -252.112864 
L 405.274104 -220.680516 
L 401.965804 -217.365321 
L 398.657504 -216.016505 
L 395.349203 -215.525677 
L 392.040903 -213.184526 
L 388.732603 -202.0313 
L 385.424302 -198.110901 
L 382.116002 -190.872234 
L 378.807701 -189.006972 
L 375.499401 -187.212601 
L 372.191101 -185.499897 
L 368.8828 -185.20758 
L 365.5745 -180.731914 
L 362.266199 -179.36838 
L 358.957899 -179.121299 
L 355.649599 -176.211207 
L 352.341298 -175.885591 
L 349.032998 -175.588221 
L 345.724697 -173.800329 
L 342.416397 -173.757862 
L 339.108097 -169.493993 
L 335.799796 -167.600803 
L 332.491496 -167.090169 
L 329.183195 -163.324447 
L 325.874895 -158.185201 
L 322.566595 -154.141188 
L 319.258294 -153.826286 
L 315.949994 -153.542577 
L 312.641693 -153.087655 
L 309.333393 -152.510992 
L 306.025093 -152.330841 
L 302.716792 -150.83784 
L 299.408492 -150.704202 
L 296.100191 -150.481684 
L 292.791891 -150.358677 
L 289.483591 -150.199052 
L 286.17529 -150.081329 
L 282.86699 -150.032363 
L 279.558689 -149.702205 
L 276.250389 -149.485911 
L 272.942089 -149.448563 
L 269.633788 -149.362902 
L 266.325488 -149.186146 
L 263.017188 -149.182112 
L 259.708887 -149.099809 
L 256.400587 -149.083368 
L 253.092286 -149.026001 
L 249.783986 -148.918827 
L 246.475686 -148.879494 
L 243.167385 -148.809321 
L 239.859085 -148.794753 
L 236.550784 -148.74907 
L 233.242484 -148.716291 
L 229.934184 -148.507848 
L 226.625883 -148.476008 
L 223.317583 -148.345682 
L 220.009282 -148.299794 
L 216.700982 -148.287488 
L 213.392682 -148.092103 
L 210.084381 -147.98246 
L 206.776081 -147.98007 
L 203.46778 -147.841863 
L 200.15948 -147.795369 
L 196.85118 -147.735289 
L 193.542879 -147.674217 
L 190.234579 -147.448781 
L 186.926278 -147.169408 
L 183.617978 -147.072767 
L 180.309678 -146.944844 
L 177.001377 -146.787036 
L 173.693077 -145.82831 
L 170.384776 -145.095405 
L 167.076476 -144.982699 
L 163.768176 -143.38555 
L 160.459875 -141.417329 
L 157.151575 -140.281474 
L 153.843274 -137.722862 
L 150.534974 -135.805526 
L 147.226674 -130.205266 
L 143.918373 -129.600176 
L 140.610073 -129.200745 
L 137.301772 -127.081073 
L 133.993472 -117.186082 
L 130.685172 -116.241334 
L 127.376871 -109.038911 
L 124.068571 -106.710679 
L 120.760271 -106.513817 
L 117.45197 -100.544757 
L 114.14367 -95.27214 
L 110.835369 -28.00261 
z
" id="m58b440b3d4" style="stroke:#4a98c9;"/>
    </defs>
    <g clip-path="url(#pe1f39dc705)">
     <use style="fill:#4a98c9;stroke:#4a98c9;" x="0" xlink:href="#m58b440b3d4" y="357.866478"/>
    </g>
   </g>
   <g id="PolyCollection_2">
    <defs>
     <path d="M 110.835369 -94.200508 
L 110.835369 -149.003435 
L 114.14367 -149.003435 
L 117.45197 -149.003435 
L 120.760271 -149.003435 
L 124.068571 -149.003435 
L 127.376871 -149.003435 
L 130.685172 -149.003435 
L 133.993472 -149.003435 
L 137.301772 -149.003435 
L 140.610073 -149.003435 
L 143.918373 -149.003435 
L 147.226674 -149.003435 
L 150.534974 -149.003435 
L 153.843274 -149.003435 
L 157.151575 -149.003435 
L 160.459875 -149.003435 
L 163.768176 -149.003435 
L 167.076476 -149.003435 
L 170.384776 -149.003435 
L 173.693077 -149.003435 
L 177.001377 -149.003435 
L 180.309678 -149.003435 
L 183.617978 -149.003435 
L 186.926278 -149.003435 
L 190.234579 -149.003435 
L 193.542879 -149.003435 
L 196.85118 -149.003435 
L 200.15948 -149.003435 
L 203.46778 -149.003435 
L 206.776081 -149.003435 
L 210.084381 -149.003435 
L 213.392682 -149.003435 
L 216.700982 -149.003435 
L 220.009282 -149.003435 
L 223.317583 -149.003435 
L 226.625883 -149.003435 
L 229.934184 -149.003435 
L 233.242484 -149.003435 
L 236.550784 -149.003435 
L 239.859085 -149.003435 
L 243.167385 -149.003435 
L 246.475686 -149.003435 
L 249.783986 -149.003435 
L 253.092286 -149.003435 
L 256.400587 -149.003435 
L 259.708887 -149.003435 
L 263.017188 -149.003435 
L 266.325488 -149.003435 
L 269.633788 -149.003435 
L 272.942089 -149.003435 
L 276.250389 -149.003435 
L 279.558689 -149.003435 
L 282.86699 -149.003435 
L 286.17529 -149.003435 
L 289.483591 -149.003435 
L 292.791891 -149.003435 
L 296.100191 -149.003435 
L 299.408492 -149.003435 
L 302.716792 -149.003435 
L 306.025093 -149.003435 
L 309.333393 -149.003435 
L 312.641693 -149.003435 
L 315.949994 -149.003435 
L 319.258294 -149.003435 
L 322.566595 -149.003435 
L 325.874895 -149.003435 
L 329.183195 -149.003435 
L 332.491496 -149.003435 
L 335.799796 -149.003435 
L 339.108097 -149.003435 
L 342.416397 -149.003435 
L 345.724697 -149.003435 
L 349.032998 -149.003435 
L 352.341298 -149.003435 
L 355.649599 -149.003435 
L 358.957899 -149.003435 
L 362.266199 -149.003435 
L 365.5745 -149.003435 
L 368.8828 -149.003435 
L 372.191101 -149.003435 
L 375.499401 -149.003435 
L 378.807701 -149.003435 
L 382.116002 -149.003435 
L 385.424302 -149.003435 
L 388.732603 -149.003435 
L 392.040903 -149.003435 
L 395.349203 -149.003435 
L 398.657504 -149.003435 
L 401.965804 -149.003435 
L 405.274104 -149.003435 
L 408.582405 -149.003435 
L 411.890705 -149.003435 
L 415.199006 -149.003435 
L 415.199006 -229.671984 
L 415.199006 -229.671984 
L 411.890705 -197.168923 
L 408.582405 -185.728067 
L 405.274104 -184.508975 
L 401.965804 -182.201831 
L 398.657504 -181.270072 
L 395.349203 -181.112408 
L 392.040903 -170.490942 
L 388.732603 -169.88303 
L 385.424302 -169.743806 
L 382.116002 -166.876923 
L 378.807701 -166.326816 
L 375.499401 -165.185627 
L 372.191101 -164.81729 
L 368.8828 -163.77704 
L 365.5745 -163.277031 
L 362.266199 -162.105239 
L 358.957899 -160.79149 
L 355.649599 -158.860028 
L 352.341298 -157.847065 
L 349.032998 -157.560515 
L 345.724697 -156.911342 
L 342.416397 -156.841897 
L 339.108097 -156.5722 
L 335.799796 -156.356872 
L 332.491496 -155.981346 
L 329.183195 -155.095152 
L 325.874895 -154.792848 
L 322.566595 -154.719759 
L 319.258294 -154.591621 
L 315.949994 -152.688105 
L 312.641693 -152.505449 
L 309.333393 -152.422091 
L 306.025093 -152.077304 
L 302.716792 -151.421548 
L 299.408492 -151.323991 
L 296.100191 -151.036888 
L 292.791891 -150.960891 
L 289.483591 -150.62951 
L 286.17529 -150.609793 
L 282.86699 -150.555789 
L 279.558689 -150.433751 
L 276.250389 -150.341992 
L 272.942089 -150.299863 
L 269.633788 -150.261283 
L 266.325488 -149.945761 
L 263.017188 -149.756316 
L 259.708887 -149.753097 
L 256.400587 -149.712411 
L 253.092286 -149.555922 
L 249.783986 -149.53386 
L 246.475686 -149.528375 
L 243.167385 -149.332151 
L 239.859085 -149.197804 
L 236.550784 -149.060065 
L 233.242484 -149.040601 
L 229.934184 -149.011837 
L 226.625883 -148.994975 
L 223.317583 -148.991572 
L 220.009282 -148.87163 
L 216.700982 -148.773165 
L 213.392682 -148.643878 
L 210.084381 -148.636334 
L 206.776081 -148.562441 
L 203.46778 -148.561643 
L 200.15948 -148.470085 
L 196.85118 -148.257331 
L 193.542879 -148.189332 
L 190.234579 -148.067189 
L 186.926278 -148.063252 
L 183.617978 -147.701361 
L 180.309678 -147.693163 
L 177.001377 -147.618786 
L 173.693077 -147.6183 
L 170.384776 -147.614661 
L 167.076476 -147.585798 
L 163.768176 -147.341054 
L 160.459875 -147.170097 
L 157.151575 -146.901581 
L 153.843274 -146.769872 
L 150.534974 -146.222799 
L 147.226674 -145.009404 
L 143.918373 -144.820904 
L 140.610073 -144.20642 
L 137.301772 -136.826347 
L 133.993472 -136.790014 
L 130.685172 -132.039883 
L 127.376871 -130.911264 
L 124.068571 -130.891933 
L 120.760271 -130.044402 
L 117.45197 -122.661616 
L 114.14367 -122.438795 
L 110.835369 -94.200508 
z
" id="m2e5cb54eb7" style="stroke:#f14432;stroke-opacity:0.8;"/>
    </defs>
    <g clip-path="url(#pe1f39dc705)">
     <use style="fill:#f14432;fill-opacity:0.8;stroke:#f14432;stroke-opacity:0.8;" x="0" xlink:href="#m2e5cb54eb7" y="357.866478"/>
    </g>
   </g>
   <g id="matplotlib.axis_1"/>
   <g id="matplotlib.axis_2">
    <g id="ytick_1">
     <g id="line2d_1">
      <defs>
       <path d="M 0 0 
L -3.5 0 
" id="m5135171443" style="stroke:#000000;stroke-width:0.8;"/>
      </defs>
      <g>
       <use style="stroke:#000000;stroke-width:0.8;" x="95.617188" xlink:href="#m5135171443" y="337.732885"/>
      </g>
     </g>
     <g id="text_1">
      <!-- −0.010 -->
      <defs>
       <path d="M 10.59375 35.5 
L 73.1875 35.5 
L 73.1875 27.203125 
L 10.59375 27.203125 
z
" id="DejaVuSans-2212"/>
       <path d="M 31.78125 66.40625 
Q 24.171875 66.40625 20.328125 58.90625 
Q 16.5 51.421875 16.5 36.375 
Q 16.5 21.390625 20.328125 13.890625 
Q 24.171875 6.390625 31.78125 6.390625 
Q 39.453125 6.390625 43.28125 13.890625 
Q 47.125 21.390625 47.125 36.375 
Q 47.125 51.421875 43.28125 58.90625 
Q 39.453125 66.40625 31.78125 66.40625 
z
M 31.78125 74.21875 
Q 44.046875 74.21875 50.515625 64.515625 
Q 56.984375 54.828125 56.984375 36.375 
Q 56.984375 17.96875 50.515625 8.265625 
Q 44.046875 -1.421875 31.78125 -1.421875 
Q 19.53125 -1.421875 13.0625 8.265625 
Q 6.59375 17.96875 6.59375 36.375 
Q 6.59375 54.828125 13.0625 64.515625 
Q 19.53125 74.21875 31.78125 74.21875 
z
" id="DejaVuSans-30"/>
       <path d="M 10.6875 12.40625 
L 21 12.40625 
L 21 0 
L 10.6875 0 
z
" id="DejaVuSans-2e"/>
       <path d="M 12.40625 8.296875 
L 28.515625 8.296875 
L 28.515625 63.921875 
L 10.984375 60.40625 
L 10.984375 69.390625 
L 28.421875 72.90625 
L 38.28125 72.90625 
L 38.28125 8.296875 
L 54.390625 8.296875 
L 54.390625 0 
L 12.40625 0 
z
" id="DejaVuSans-31"/>
      </defs>
      <g transform="translate(7.2 346.091166)scale(0.22 -0.22)">
       <use xlink:href="#DejaVuSans-2212"/>
       <use x="83.789062" xlink:href="#DejaVuSans-30"/>
       <use x="147.412109" xlink:href="#DejaVuSans-2e"/>
       <use x="179.199219" xlink:href="#DejaVuSans-30"/>
       <use x="242.822266" xlink:href="#DejaVuSans-31"/>
       <use x="306.445312" xlink:href="#DejaVuSans-30"/>
      </g>
     </g>
    </g>
    <g id="ytick_2">
     <g id="line2d_2">
      <g>
       <use style="stroke:#000000;stroke-width:0.8;" x="95.617188" xlink:href="#m5135171443" y="273.297964"/>
      </g>
     </g>
     <g id="text_2">
      <!-- −0.005 -->
      <defs>
       <path d="M 10.796875 72.90625 
L 49.515625 72.90625 
L 49.515625 64.59375 
L 19.828125 64.59375 
L 19.828125 46.734375 
Q 21.96875 47.46875 24.109375 47.828125 
Q 26.265625 48.1875 28.421875 48.1875 
Q 40.625 48.1875 47.75 41.5 
Q 54.890625 34.8125 54.890625 23.390625 
Q 54.890625 11.625 47.5625 5.09375 
Q 40.234375 -1.421875 26.90625 -1.421875 
Q 22.3125 -1.421875 17.546875 -0.640625 
Q 12.796875 0.140625 7.71875 1.703125 
L 7.71875 11.625 
Q 12.109375 9.234375 16.796875 8.0625 
Q 21.484375 6.890625 26.703125 6.890625 
Q 35.15625 6.890625 40.078125 11.328125 
Q 45.015625 15.765625 45.015625 23.390625 
Q 45.015625 31 40.078125 35.4375 
Q 35.15625 39.890625 26.703125 39.890625 
Q 22.75 39.890625 18.8125 39.015625 
Q 14.890625 38.140625 10.796875 36.28125 
z
" id="DejaVuSans-35"/>
      </defs>
      <g transform="translate(7.2 281.656245)scale(0.22 -0.22)">
       <use xlink:href="#DejaVuSans-2212"/>
       <use x="83.789062" xlink:href="#DejaVuSans-30"/>
       <use x="147.412109" xlink:href="#DejaVuSans-2e"/>
       <use x="179.199219" xlink:href="#DejaVuSans-30"/>
       <use x="242.822266" xlink:href="#DejaVuSans-30"/>
       <use x="306.445312" xlink:href="#DejaVuSans-35"/>
      </g>
     </g>
    </g>
    <g id="ytick_3">
     <g id="line2d_3">
      <g>
       <use style="stroke:#000000;stroke-width:0.8;" x="95.617188" xlink:href="#m5135171443" y="208.863043"/>
      </g>
     </g>
     <g id="text_3">
      <!-- 0.000 -->
      <g transform="translate(25.635312 217.221325)scale(0.22 -0.22)">
       <use xlink:href="#DejaVuSans-30"/>
       <use x="63.623047" xlink:href="#DejaVuSans-2e"/>
       <use x="95.410156" xlink:href="#DejaVuSans-30"/>
       <use x="159.033203" xlink:href="#DejaVuSans-30"/>
       <use x="222.65625" xlink:href="#DejaVuSans-30"/>
      </g>
     </g>
    </g>
    <g id="ytick_4">
     <g id="line2d_4">
      <g>
       <use style="stroke:#000000;stroke-width:0.8;" x="95.617188" xlink:href="#m5135171443" y="144.428123"/>
      </g>
     </g>
     <g id="text_4">
      <!-- 0.005 -->
      <g transform="translate(25.635312 152.786404)scale(0.22 -0.22)">
       <use xlink:href="#DejaVuSans-30"/>
       <use x="63.623047" xlink:href="#DejaVuSans-2e"/>
       <use x="95.410156" xlink:href="#DejaVuSans-30"/>
       <use x="159.033203" xlink:href="#DejaVuSans-30"/>
       <use x="222.65625" xlink:href="#DejaVuSans-35"/>
      </g>
     </g>
    </g>
    <g id="ytick_5">
     <g id="line2d_5">
      <g>
       <use style="stroke:#000000;stroke-width:0.8;" x="95.617188" xlink:href="#m5135171443" y="79.993202"/>
      </g>
     </g>
     <g id="text_5">
      <!-- 0.010 -->
      <g transform="translate(25.635312 88.351483)scale(0.22 -0.22)">
       <use xlink:href="#DejaVuSans-30"/>
       <use x="63.623047" xlink:href="#DejaVuSans-2e"/>
       <use x="95.410156" xlink:href="#DejaVuSans-30"/>
       <use x="159.033203" xlink:href="#DejaVuSans-31"/>
       <use x="222.65625" xlink:href="#DejaVuSans-30"/>
      </g>
     </g>
    </g>
    <g id="ytick_6">
     <g id="line2d_6">
      <g>
       <use style="stroke:#000000;stroke-width:0.8;" x="95.617188" xlink:href="#m5135171443" y="15.558281"/>
      </g>
     </g>
     <g id="text_6">
      <!-- 0.015 -->
      <g transform="translate(25.635312 23.916563)scale(0.22 -0.22)">
       <use xlink:href="#DejaVuSans-30"/>
       <use x="63.623047" xlink:href="#DejaVuSans-2e"/>
       <use x="95.410156" xlink:href="#DejaVuSans-30"/>
       <use x="159.033203" xlink:href="#DejaVuSans-31"/>
       <use x="222.65625" xlink:href="#DejaVuSans-35"/>
      </g>
     </g>
    </g>
   </g>
   <g id="patch_3">
    <path d="M 95.617188 344.983868 
L 95.617188 12.343868 
" style="fill:none;stroke:#000000;stroke-linecap:square;stroke-linejoin:miter;stroke-width:0.8;"/>
   </g>
   <g id="patch_4">
    <path d="M 430.417188 344.983868 
L 430.417188 12.343868 
" style="fill:none;stroke:#000000;stroke-linecap:square;stroke-linejoin:miter;stroke-width:0.8;"/>
   </g>
   <g id="patch_5">
    <path d="M 95.617188 344.983868 
L 430.417188 344.983868 
" style="fill:none;stroke:#000000;stroke-linecap:square;stroke-linejoin:miter;stroke-width:0.8;"/>
   </g>
   <g id="patch_6">
    <path d="M 95.617188 12.343868 
L 430.417188 12.343868 
" style="fill:none;stroke:#000000;stroke-linecap:square;stroke-linejoin:miter;stroke-width:0.8;"/>
   </g>
  </g>
 </g>
 <defs>
  <clipPath id="pe1f39dc705">
   <rect height="332.64" width="334.8" x="95.617188" y="12.343868"/>
  </clipPath>
 </defs>
</svg>
