<?xml version="1.0" encoding="utf-8" standalone="no"?>
<!DOCTYPE svg PUBLIC "-//W3C//DTD SVG 1.1//EN"
  "http://www.w3.org/Graphics/SVG/1.1/DTD/svg11.dtd">
<!-- Created with matplotlib (http://matplotlib.org/) -->
<svg height="354pt" version="1.1" viewBox="0 0 413 354" width="413pt" xmlns="http://www.w3.org/2000/svg" xmlns:xlink="http://www.w3.org/1999/xlink">
 <defs>
  <style type="text/css">
*{stroke-linecap:butt;stroke-linejoin:round;}
  </style>
 </defs>
 <g id="figure_1">
  <g id="patch_1">
   <path d="M 0 354.04 
L 413.122187 354.04 
L 413.122187 0 
L 0 0 
z
" style="fill:#ffffff;"/>
  </g>
  <g id="axes_1">
   <g id="patch_2">
    <path d="M 67.622187 343.34 
L 402.422188 343.34 
L 402.422188 10.7 
L 67.622187 10.7 
z
" style="fill:#ffffff;"/>
   </g>
   <g id="PolyCollection_1">
    <defs>
     <path d="M 82.840369 -25.82 
L 82.840369 -182.973074 
L 86.14867 -182.973074 
L 89.45697 -182.973074 
L 92.765271 -182.973074 
L 96.073571 -182.973074 
L 99.381871 -182.973074 
L 102.690172 -182.973074 
L 105.998472 -182.973074 
L 109.306772 -182.973074 
L 112.615073 -182.973074 
L 115.923373 -182.973074 
L 119.231674 -182.973074 
L 122.539974 -182.973074 
L 125.848274 -182.973074 
L 129.156575 -182.973074 
L 132.464875 -182.973074 
L 135.773176 -182.973074 
L 139.081476 -182.973074 
L 142.389776 -182.973074 
L 145.698077 -182.973074 
L 149.006377 -182.973074 
L 152.314678 -182.973074 
L 155.622978 -182.973074 
L 158.931278 -182.973074 
L 162.239579 -182.973074 
L 165.547879 -182.973074 
L 168.85618 -182.973074 
L 172.16448 -182.973074 
L 175.47278 -182.973074 
L 178.781081 -182.973074 
L 182.089381 -182.973074 
L 185.397682 -182.973074 
L 188.705982 -182.973074 
L 192.014282 -182.973074 
L 195.322583 -182.973074 
L 198.630883 -182.973074 
L 201.939184 -182.973074 
L 205.247484 -182.973074 
L 208.555784 -182.973074 
L 211.864085 -182.973074 
L 215.172385 -182.973074 
L 218.480686 -182.973074 
L 221.788986 -182.973074 
L 225.097286 -182.973074 
L 228.405587 -182.973074 
L 231.713887 -182.973074 
L 235.022188 -182.973074 
L 238.330488 -182.973074 
L 241.638788 -182.973074 
L 244.947089 -182.973074 
L 248.255389 -182.973074 
L 251.563689 -182.973074 
L 254.87199 -182.973074 
L 258.18029 -182.973074 
L 261.488591 -182.973074 
L 264.796891 -182.973074 
L 268.105191 -182.973074 
L 271.413492 -182.973074 
L 274.721792 -182.973074 
L 278.030093 -182.973074 
L 281.338393 -182.973074 
L 284.646693 -182.973074 
L 287.954994 -182.973074 
L 291.263294 -182.973074 
L 294.571595 -182.973074 
L 297.879895 -182.973074 
L 301.188195 -182.973074 
L 304.496496 -182.973074 
L 307.804796 -182.973074 
L 311.113097 -182.973074 
L 314.421397 -182.973074 
L 317.729697 -182.973074 
L 321.037998 -182.973074 
L 324.346298 -182.973074 
L 327.654599 -182.973074 
L 330.962899 -182.973074 
L 334.271199 -182.973074 
L 337.5795 -182.973074 
L 340.8878 -182.973074 
L 344.196101 -182.973074 
L 347.504401 -182.973074 
L 350.812701 -182.973074 
L 354.121002 -182.973074 
L 357.429302 -182.973074 
L 360.737603 -182.973074 
L 364.045903 -182.973074 
L 367.354203 -182.973074 
L 370.662504 -182.973074 
L 373.970804 -182.973074 
L 377.279104 -182.973074 
L 380.587405 -182.973074 
L 383.895705 -182.973074 
L 387.204006 -182.973074 
L 387.204006 -328.22 
L 387.204006 -328.22 
L 383.895705 -320.387717 
L 380.587405 -291.134264 
L 377.279104 -268.969986 
L 373.970804 -265.019974 
L 370.662504 -259.132301 
L 367.354203 -240.606924 
L 364.045903 -235.013887 
L 360.737603 -234.866222 
L 357.429302 -231.725936 
L 354.121002 -229.438158 
L 350.812701 -229.422209 
L 347.504401 -227.79731 
L 344.196101 -217.769688 
L 340.8878 -214.91149 
L 337.5795 -209.452494 
L 334.271199 -208.481983 
L 330.962899 -207.138239 
L 327.654599 -207.048068 
L 324.346298 -204.535323 
L 321.037998 -202.529752 
L 317.729697 -199.957988 
L 314.421397 -199.929089 
L 311.113097 -199.236662 
L 307.804796 -192.304575 
L 304.496496 -186.9327 
L 301.188195 -186.706043 
L 297.879895 -185.528231 
L 294.571595 -184.802718 
L 291.263294 -184.069026 
L 287.954994 -183.849477 
L 284.646693 -183.288479 
L 281.338393 -183.127293 
L 278.030093 -183.110337 
L 274.721792 -183.079504 
L 271.413492 -183.076114 
L 268.105191 -183.054755 
L 264.796891 -183.0412 
L 261.488591 -183.033737 
L 258.18029 -183.02307 
L 254.87199 -183.014296 
L 251.563689 -183.009951 
L 248.255389 -182.997271 
L 244.947089 -182.995122 
L 241.638788 -182.99244 
L 238.330488 -182.992419 
L 235.022188 -182.978218 
L 231.713887 -182.973105 
L 228.405587 -182.969544 
L 225.097286 -182.968226 
L 221.788986 -182.967382 
L 218.480686 -182.967111 
L 215.172385 -182.966972 
L 211.864085 -182.966216 
L 208.555784 -182.96318 
L 205.247484 -182.952509 
L 201.939184 -182.946827 
L 198.630883 -182.943967 
L 195.322583 -182.943884 
L 192.014282 -182.926581 
L 188.705982 -182.920458 
L 185.397682 -182.905247 
L 182.089381 -182.895465 
L 178.781081 -182.881807 
L 175.47278 -182.846318 
L 172.16448 -182.839227 
L 168.85618 -182.813126 
L 165.547879 -182.811841 
L 162.239579 -182.798495 
L 158.931278 -182.774852 
L 155.622978 -182.769113 
L 152.314678 -182.662743 
L 149.006377 -182.448578 
L 145.698077 -181.552743 
L 142.389776 -180.49875 
L 139.081476 -180.183759 
L 135.773176 -180.17564 
L 132.464875 -176.930438 
L 129.156575 -175.40612 
L 125.848274 -174.998651 
L 122.539974 -173.711747 
L 119.231674 -170.645123 
L 115.923373 -168.247354 
L 112.615073 -165.565316 
L 109.306772 -156.687338 
L 105.998472 -146.78501 
L 102.690172 -125.714801 
L 99.381871 -120.319508 
L 96.073571 -120.111335 
L 92.765271 -102.024946 
L 89.45697 -99.486462 
L 86.14867 -98.010527 
L 82.840369 -25.82 
z
" id="m81c5f665ba" style="stroke:#4a98c9;"/>
    </defs>
    <g clip-path="url(#p348a7be64e)">
     <use style="fill:#4a98c9;stroke:#4a98c9;" x="0" xlink:href="#m81c5f665ba" y="354.04"/>
    </g>
   </g>
   <g id="PolyCollection_2">
    <defs>
     <path d="M 82.840369 -102.55936 
L 82.840369 -182.973074 
L 86.14867 -182.973074 
L 89.45697 -182.973074 
L 92.765271 -182.973074 
L 96.073571 -182.973074 
L 99.381871 -182.973074 
L 102.690172 -182.973074 
L 105.998472 -182.973074 
L 109.306772 -182.973074 
L 112.615073 -182.973074 
L 115.923373 -182.973074 
L 119.231674 -182.973074 
L 122.539974 -182.973074 
L 125.848274 -182.973074 
L 129.156575 -182.973074 
L 132.464875 -182.973074 
L 135.773176 -182.973074 
L 139.081476 -182.973074 
L 142.389776 -182.973074 
L 145.698077 -182.973074 
L 149.006377 -182.973074 
L 152.314678 -182.973074 
L 155.622978 -182.973074 
L 158.931278 -182.973074 
L 162.239579 -182.973074 
L 165.547879 -182.973074 
L 168.85618 -182.973074 
L 172.16448 -182.973074 
L 175.47278 -182.973074 
L 178.781081 -182.973074 
L 182.089381 -182.973074 
L 185.397682 -182.973074 
L 188.705982 -182.973074 
L 192.014282 -182.973074 
L 195.322583 -182.973074 
L 198.630883 -182.973074 
L 201.939184 -182.973074 
L 205.247484 -182.973074 
L 208.555784 -182.973074 
L 211.864085 -182.973074 
L 215.172385 -182.973074 
L 218.480686 -182.973074 
L 221.788986 -182.973074 
L 225.097286 -182.973074 
L 228.405587 -182.973074 
L 231.713887 -182.973074 
L 235.022188 -182.973074 
L 238.330488 -182.973074 
L 241.638788 -182.973074 
L 244.947089 -182.973074 
L 248.255389 -182.973074 
L 251.563689 -182.973074 
L 254.87199 -182.973074 
L 258.18029 -182.973074 
L 261.488591 -182.973074 
L 264.796891 -182.973074 
L 268.105191 -182.973074 
L 271.413492 -182.973074 
L 274.721792 -182.973074 
L 278.030093 -182.973074 
L 281.338393 -182.973074 
L 284.646693 -182.973074 
L 287.954994 -182.973074 
L 291.263294 -182.973074 
L 294.571595 -182.973074 
L 297.879895 -182.973074 
L 301.188195 -182.973074 
L 304.496496 -182.973074 
L 307.804796 -182.973074 
L 311.113097 -182.973074 
L 314.421397 -182.973074 
L 317.729697 -182.973074 
L 321.037998 -182.973074 
L 324.346298 -182.973074 
L 327.654599 -182.973074 
L 330.962899 -182.973074 
L 334.271199 -182.973074 
L 337.5795 -182.973074 
L 340.8878 -182.973074 
L 344.196101 -182.973074 
L 347.504401 -182.973074 
L 350.812701 -182.973074 
L 354.121002 -182.973074 
L 357.429302 -182.973074 
L 360.737603 -182.973074 
L 364.045903 -182.973074 
L 367.354203 -182.973074 
L 370.662504 -182.973074 
L 373.970804 -182.973074 
L 377.279104 -182.973074 
L 380.587405 -182.973074 
L 383.895705 -182.973074 
L 387.204006 -182.973074 
L 387.204006 -262.732932 
L 387.204006 -262.732932 
L 383.895705 -249.440733 
L 380.587405 -229.883744 
L 377.279104 -222.915654 
L 373.970804 -218.499836 
L 370.662504 -216.339163 
L 367.354203 -214.791592 
L 364.045903 -213.328607 
L 360.737603 -212.103317 
L 357.429302 -208.172945 
L 354.121002 -206.702746 
L 350.812701 -200.926035 
L 347.504401 -200.373879 
L 344.196101 -199.576458 
L 340.8878 -197.463532 
L 337.5795 -195.716613 
L 334.271199 -193.854249 
L 330.962899 -193.545424 
L 327.654599 -193.445644 
L 324.346298 -191.86237 
L 321.037998 -190.985051 
L 317.729697 -190.152683 
L 314.421397 -186.715192 
L 311.113097 -186.112946 
L 307.804796 -185.764365 
L 304.496496 -184.058022 
L 301.188195 -183.692973 
L 297.879895 -183.628628 
L 294.571595 -183.363411 
L 291.263294 -183.238606 
L 287.954994 -183.133027 
L 284.646693 -183.132855 
L 281.338393 -183.12052 
L 278.030093 -183.114134 
L 274.721792 -183.099038 
L 271.413492 -183.091764 
L 268.105191 -183.059527 
L 264.796891 -183.049134 
L 261.488591 -183.043134 
L 258.18029 -183.028157 
L 254.87199 -183.003444 
L 251.563689 -183.003109 
L 248.255389 -182.999182 
L 244.947089 -182.998605 
L 241.638788 -182.995828 
L 238.330488 -182.993014 
L 235.022188 -182.992011 
L 231.713887 -182.988647 
L 228.405587 -182.982754 
L 225.097286 -182.979494 
L 221.788986 -182.979293 
L 218.480686 -182.979283 
L 215.172385 -182.977044 
L 211.864085 -182.972468 
L 208.555784 -182.958602 
L 205.247484 -182.955277 
L 201.939184 -182.952138 
L 198.630883 -182.946132 
L 195.322583 -182.942589 
L 192.014282 -182.938359 
L 188.705982 -182.935102 
L 185.397682 -182.923899 
L 182.089381 -182.91805 
L 178.781081 -182.914399 
L 175.47278 -182.880718 
L 172.16448 -182.81627 
L 168.85618 -182.807607 
L 165.547879 -182.787536 
L 162.239579 -182.771984 
L 158.931278 -182.623989 
L 155.622978 -182.511276 
L 152.314678 -182.271981 
L 149.006377 -181.82133 
L 145.698077 -181.739274 
L 142.389776 -181.735458 
L 139.081476 -181.442328 
L 135.773176 -181.269286 
L 132.464875 -181.177548 
L 129.156575 -181.105003 
L 125.848274 -180.104843 
L 122.539974 -179.947102 
L 119.231674 -178.791141 
L 115.923373 -176.782947 
L 112.615073 -175.703998 
L 109.306772 -170.637939 
L 105.998472 -169.613197 
L 102.690172 -166.47774 
L 99.381871 -158.389047 
L 96.073571 -154.528848 
L 92.765271 -154.005266 
L 89.45697 -145.918436 
L 86.14867 -137.943578 
L 82.840369 -102.55936 
z
" id="m80584cca25" style="stroke:#f14432;stroke-opacity:0.8;"/>
    </defs>
    <g clip-path="url(#p348a7be64e)">
     <use style="fill:#f14432;fill-opacity:0.8;stroke:#f14432;stroke-opacity:0.8;" x="0" xlink:href="#m80584cca25" y="354.04"/>
    </g>
   </g>
   <g id="matplotlib.axis_1"/>
   <g id="matplotlib.axis_2">
    <g id="ytick_1">
     <g id="line2d_1">
      <defs>
       <path d="M 0 0 
L -3.5 0 
" id="m4a7c758a92" style="stroke:#000000;stroke-width:0.8;"/>
      </defs>
      <g>
       <use style="stroke:#000000;stroke-width:0.8;" x="67.622187" xlink:href="#m4a7c758a92" y="323.627764"/>
      </g>
     </g>
     <g id="text_1">
      <!-- −0.3 -->
      <defs>
       <path d="M 10.59375 35.5 
L 73.1875 35.5 
L 73.1875 27.203125 
L 10.59375 27.203125 
z
" id="DejaVuSans-2212"/>
       <path d="M 31.78125 66.40625 
Q 24.171875 66.40625 20.328125 58.90625 
Q 16.5 51.421875 16.5 36.375 
Q 16.5 21.390625 20.328125 13.890625 
Q 24.171875 6.390625 31.78125 6.390625 
Q 39.453125 6.390625 43.28125 13.890625 
Q 47.125 21.390625 47.125 36.375 
Q 47.125 51.421875 43.28125 58.90625 
Q 39.453125 66.40625 31.78125 66.40625 
z
M 31.78125 74.21875 
Q 44.046875 74.21875 50.515625 64.515625 
Q 56.984375 54.828125 56.984375 36.375 
Q 56.984375 17.96875 50.515625 8.265625 
Q 44.046875 -1.421875 31.78125 -1.421875 
Q 19.53125 -1.421875 13.0625 8.265625 
Q 6.59375 17.96875 6.59375 36.375 
Q 6.59375 54.828125 13.0625 64.515625 
Q 19.53125 74.21875 31.78125 74.21875 
z
" id="DejaVuSans-30"/>
       <path d="M 10.6875 12.40625 
L 21 12.40625 
L 21 0 
L 10.6875 0 
z
" id="DejaVuSans-2e"/>
       <path d="M 40.578125 39.3125 
Q 47.65625 37.796875 51.625 33 
Q 55.609375 28.21875 55.609375 21.1875 
Q 55.609375 10.40625 48.1875 4.484375 
Q 40.765625 -1.421875 27.09375 -1.421875 
Q 22.515625 -1.421875 17.65625 -0.515625 
Q 12.796875 0.390625 7.625 2.203125 
L 7.625 11.71875 
Q 11.71875 9.328125 16.59375 8.109375 
Q 21.484375 6.890625 26.8125 6.890625 
Q 36.078125 6.890625 40.9375 10.546875 
Q 45.796875 14.203125 45.796875 21.1875 
Q 45.796875 27.640625 41.28125 31.265625 
Q 36.765625 34.90625 28.71875 34.90625 
L 20.21875 34.90625 
L 20.21875 43.015625 
L 29.109375 43.015625 
Q 36.375 43.015625 40.234375 45.921875 
Q 44.09375 48.828125 44.09375 54.296875 
Q 44.09375 59.90625 40.109375 62.90625 
Q 36.140625 65.921875 28.71875 65.921875 
Q 24.65625 65.921875 20.015625 65.03125 
Q 15.375 64.15625 9.8125 62.3125 
L 9.8125 71.09375 
Q 15.4375 72.65625 20.34375 73.4375 
Q 25.25 74.21875 29.59375 74.21875 
Q 40.828125 74.21875 47.359375 69.109375 
Q 53.90625 64.015625 53.90625 55.328125 
Q 53.90625 49.265625 50.4375 45.09375 
Q 46.96875 40.921875 40.578125 39.3125 
z
" id="DejaVuSans-33"/>
      </defs>
      <g transform="translate(7.2 331.986045)scale(0.22 -0.22)">
       <use xlink:href="#DejaVuSans-2212"/>
       <use x="83.789062" xlink:href="#DejaVuSans-30"/>
       <use x="147.412109" xlink:href="#DejaVuSans-2e"/>
       <use x="179.199219" xlink:href="#DejaVuSans-33"/>
      </g>
     </g>
    </g>
    <g id="ytick_2">
     <g id="line2d_2">
      <g>
       <use style="stroke:#000000;stroke-width:0.8;" x="67.622187" xlink:href="#m4a7c758a92" y="272.774151"/>
      </g>
     </g>
     <g id="text_2">
      <!-- −0.2 -->
      <defs>
       <path d="M 19.1875 8.296875 
L 53.609375 8.296875 
L 53.609375 0 
L 7.328125 0 
L 7.328125 8.296875 
Q 12.9375 14.109375 22.625 23.890625 
Q 32.328125 33.6875 34.8125 36.53125 
Q 39.546875 41.84375 41.421875 45.53125 
Q 43.3125 49.21875 43.3125 52.78125 
Q 43.3125 58.59375 39.234375 62.25 
Q 35.15625 65.921875 28.609375 65.921875 
Q 23.96875 65.921875 18.8125 64.3125 
Q 13.671875 62.703125 7.8125 59.421875 
L 7.8125 69.390625 
Q 13.765625 71.78125 18.9375 73 
Q 24.125 74.21875 28.421875 74.21875 
Q 39.75 74.21875 46.484375 68.546875 
Q 53.21875 62.890625 53.21875 53.421875 
Q 53.21875 48.921875 51.53125 44.890625 
Q 49.859375 40.875 45.40625 35.40625 
Q 44.1875 33.984375 37.640625 27.21875 
Q 31.109375 20.453125 19.1875 8.296875 
z
" id="DejaVuSans-32"/>
      </defs>
      <g transform="translate(7.2 281.132433)scale(0.22 -0.22)">
       <use xlink:href="#DejaVuSans-2212"/>
       <use x="83.789062" xlink:href="#DejaVuSans-30"/>
       <use x="147.412109" xlink:href="#DejaVuSans-2e"/>
       <use x="179.199219" xlink:href="#DejaVuSans-32"/>
      </g>
     </g>
    </g>
    <g id="ytick_3">
     <g id="line2d_3">
      <g>
       <use style="stroke:#000000;stroke-width:0.8;" x="67.622187" xlink:href="#m4a7c758a92" y="221.920539"/>
      </g>
     </g>
     <g id="text_3">
      <!-- −0.1 -->
      <defs>
       <path d="M 12.40625 8.296875 
L 28.515625 8.296875 
L 28.515625 63.921875 
L 10.984375 60.40625 
L 10.984375 69.390625 
L 28.421875 72.90625 
L 38.28125 72.90625 
L 38.28125 8.296875 
L 54.390625 8.296875 
L 54.390625 0 
L 12.40625 0 
z
" id="DejaVuSans-31"/>
      </defs>
      <g transform="translate(7.2 230.27882)scale(0.22 -0.22)">
       <use xlink:href="#DejaVuSans-2212"/>
       <use x="83.789062" xlink:href="#DejaVuSans-30"/>
       <use x="147.412109" xlink:href="#DejaVuSans-2e"/>
       <use x="179.199219" xlink:href="#DejaVuSans-31"/>
      </g>
     </g>
    </g>
    <g id="ytick_4">
     <g id="line2d_4">
      <g>
       <use style="stroke:#000000;stroke-width:0.8;" x="67.622187" xlink:href="#m4a7c758a92" y="171.066926"/>
      </g>
     </g>
     <g id="text_4">
      <!-- 0.0 -->
      <g transform="translate(25.635312 179.425208)scale(0.22 -0.22)">
       <use xlink:href="#DejaVuSans-30"/>
       <use x="63.623047" xlink:href="#DejaVuSans-2e"/>
       <use x="95.410156" xlink:href="#DejaVuSans-30"/>
      </g>
     </g>
    </g>
    <g id="ytick_5">
     <g id="line2d_5">
      <g>
       <use style="stroke:#000000;stroke-width:0.8;" x="67.622187" xlink:href="#m4a7c758a92" y="120.213314"/>
      </g>
     </g>
     <g id="text_5">
      <!-- 0.1 -->
      <g transform="translate(25.635312 128.571595)scale(0.22 -0.22)">
       <use xlink:href="#DejaVuSans-30"/>
       <use x="63.623047" xlink:href="#DejaVuSans-2e"/>
       <use x="95.410156" xlink:href="#DejaVuSans-31"/>
      </g>
     </g>
    </g>
    <g id="ytick_6">
     <g id="line2d_6">
      <g>
       <use style="stroke:#000000;stroke-width:0.8;" x="67.622187" xlink:href="#m4a7c758a92" y="69.359701"/>
      </g>
     </g>
     <g id="text_6">
      <!-- 0.2 -->
      <g transform="translate(25.635312 77.717983)scale(0.22 -0.22)">
       <use xlink:href="#DejaVuSans-30"/>
       <use x="63.623047" xlink:href="#DejaVuSans-2e"/>
       <use x="95.410156" xlink:href="#DejaVuSans-32"/>
      </g>
     </g>
    </g>
    <g id="ytick_7">
     <g id="line2d_7">
      <g>
       <use style="stroke:#000000;stroke-width:0.8;" x="67.622187" xlink:href="#m4a7c758a92" y="18.506089"/>
      </g>
     </g>
     <g id="text_7">
      <!-- 0.3 -->
      <g transform="translate(25.635312 26.86437)scale(0.22 -0.22)">
       <use xlink:href="#DejaVuSans-30"/>
       <use x="63.623047" xlink:href="#DejaVuSans-2e"/>
       <use x="95.410156" xlink:href="#DejaVuSans-33"/>
      </g>
     </g>
    </g>
   </g>
   <g id="patch_3">
    <path d="M 67.622187 343.34 
L 67.622187 10.7 
" style="fill:none;stroke:#000000;stroke-linecap:square;stroke-linejoin:miter;stroke-width:0.8;"/>
   </g>
   <g id="patch_4">
    <path d="M 402.422188 343.34 
L 402.422188 10.7 
" style="fill:none;stroke:#000000;stroke-linecap:square;stroke-linejoin:miter;stroke-width:0.8;"/>
   </g>
   <g id="patch_5">
    <path d="M 67.622187 343.34 
L 402.422188 343.34 
" style="fill:none;stroke:#000000;stroke-linecap:square;stroke-linejoin:miter;stroke-width:0.8;"/>
   </g>
   <g id="patch_6">
    <path d="M 67.622187 10.7 
L 402.422188 10.7 
" style="fill:none;stroke:#000000;stroke-linecap:square;stroke-linejoin:miter;stroke-width:0.8;"/>
   </g>
  </g>
 </g>
 <defs>
  <clipPath id="p348a7be64e">
   <rect height="332.64" width="334.8" x="67.622187" y="10.7"/>
  </clipPath>
 </defs>
</svg>
