<?xml version="1.0" encoding="utf-8" standalone="no"?>
<!DOCTYPE svg PUBLIC "-//W3C//DTD SVG 1.1//EN"
  "http://www.w3.org/Graphics/SVG/1.1/DTD/svg11.dtd">
<!-- Created with matplotlib (http://matplotlib.org/) -->
<svg height="354pt" version="1.1" viewBox="0 0 455 354" width="455pt" xmlns="http://www.w3.org/2000/svg" xmlns:xlink="http://www.w3.org/1999/xlink">
 <defs>
  <style type="text/css">
*{stroke-linecap:butt;stroke-linejoin:round;}
  </style>
 </defs>
 <g id="figure_1">
  <g id="patch_1">
   <path d="M 0 354.04 
L 455.114687 354.04 
L 455.114687 0 
L 0 0 
z
" style="fill:#ffffff;"/>
  </g>
  <g id="axes_1">
   <g id="patch_2">
    <path d="M 109.614687 343.34 
L 444.414688 343.34 
L 444.414688 10.7 
L 109.614687 10.7 
z
" style="fill:#ffffff;"/>
   </g>
   <g id="PolyCollection_1">
    <defs>
     <path d="M 124.832869 -25.82 
L 124.832869 -152.184314 
L 128.14117 -152.184314 
L 131.44947 -152.184314 
L 134.757771 -152.184314 
L 138.066071 -152.184314 
L 141.374371 -152.184314 
L 144.682672 -152.184314 
L 147.990972 -152.184314 
L 151.299272 -152.184314 
L 154.607573 -152.184314 
L 157.915873 -152.184314 
L 161.224174 -152.184314 
L 164.532474 -152.184314 
L 167.840774 -152.184314 
L 171.149075 -152.184314 
L 174.457375 -152.184314 
L 177.765676 -152.184314 
L 181.073976 -152.184314 
L 184.382276 -152.184314 
L 187.690577 -152.184314 
L 190.998877 -152.184314 
L 194.307178 -152.184314 
L 197.615478 -152.184314 
L 200.923778 -152.184314 
L 204.232079 -152.184314 
L 207.540379 -152.184314 
L 210.84868 -152.184314 
L 214.15698 -152.184314 
L 217.46528 -152.184314 
L 220.773581 -152.184314 
L 224.081881 -152.184314 
L 227.390182 -152.184314 
L 230.698482 -152.184314 
L 234.006782 -152.184314 
L 237.315083 -152.184314 
L 240.623383 -152.184314 
L 243.931684 -152.184314 
L 247.239984 -152.184314 
L 250.548284 -152.184314 
L 253.856585 -152.184314 
L 257.164885 -152.184314 
L 260.473186 -152.184314 
L 263.781486 -152.184314 
L 267.089786 -152.184314 
L 270.398087 -152.184314 
L 273.706387 -152.184314 
L 277.014688 -152.184314 
L 280.322988 -152.184314 
L 283.631288 -152.184314 
L 286.939589 -152.184314 
L 290.247889 -152.184314 
L 293.556189 -152.184314 
L 296.86449 -152.184314 
L 300.17279 -152.184314 
L 303.481091 -152.184314 
L 306.789391 -152.184314 
L 310.097691 -152.184314 
L 313.405992 -152.184314 
L 316.714292 -152.184314 
L 320.022593 -152.184314 
L 323.330893 -152.184314 
L 326.639193 -152.184314 
L 329.947494 -152.184314 
L 333.255794 -152.184314 
L 336.564095 -152.184314 
L 339.872395 -152.184314 
L 343.180695 -152.184314 
L 346.488996 -152.184314 
L 349.797296 -152.184314 
L 353.105597 -152.184314 
L 356.413897 -152.184314 
L 359.722197 -152.184314 
L 363.030498 -152.184314 
L 366.338798 -152.184314 
L 369.647099 -152.184314 
L 372.955399 -152.184314 
L 376.263699 -152.184314 
L 379.572 -152.184314 
L 382.8803 -152.184314 
L 386.188601 -152.184314 
L 389.496901 -152.184314 
L 392.805201 -152.184314 
L 396.113502 -152.184314 
L 399.421802 -152.184314 
L 402.730103 -152.184314 
L 406.038403 -152.184314 
L 409.346703 -152.184314 
L 412.655004 -152.184314 
L 415.963304 -152.184314 
L 419.271604 -152.184314 
L 422.579905 -152.184314 
L 425.888205 -152.184314 
L 429.196506 -152.184314 
L 429.196506 -328.22 
L 429.196506 -328.22 
L 425.888205 -309.007833 
L 422.579905 -288.920723 
L 419.271604 -271.212836 
L 415.963304 -239.126022 
L 412.655004 -235.78867 
L 409.346703 -234.972236 
L 406.038403 -218.069167 
L 402.730103 -214.158367 
L 399.421802 -209.806081 
L 396.113502 -206.269374 
L 392.805201 -203.199775 
L 389.496901 -201.745122 
L 386.188601 -200.65655 
L 382.8803 -195.25023 
L 379.572 -193.118698 
L 376.263699 -192.688082 
L 372.955399 -187.955911 
L 369.647099 -187.828483 
L 366.338798 -186.673758 
L 363.030498 -185.197857 
L 359.722197 -185.064674 
L 356.413897 -183.863154 
L 353.105597 -182.642813 
L 349.797296 -182.086063 
L 346.488996 -178.749957 
L 343.180695 -178.170192 
L 339.872395 -178.133581 
L 336.564095 -177.698826 
L 333.255794 -176.151894 
L 329.947494 -175.391404 
L 326.639193 -175.316624 
L 323.330893 -172.815373 
L 320.022593 -171.354103 
L 316.714292 -170.248926 
L 313.405992 -167.658116 
L 310.097691 -167.506874 
L 306.789391 -166.793764 
L 303.481091 -166.593472 
L 300.17279 -166.450078 
L 296.86449 -165.531907 
L 293.556189 -161.599022 
L 290.247889 -161.314661 
L 286.939589 -160.298481 
L 283.631288 -158.813356 
L 280.322988 -158.648716 
L 277.014688 -158.314322 
L 273.706387 -156.704397 
L 270.398087 -155.937099 
L 267.089786 -154.863225 
L 263.781486 -154.296563 
L 260.473186 -154.123378 
L 257.164885 -150.405623 
L 253.856585 -148.327545 
L 250.548284 -147.179106 
L 247.239984 -146.974073 
L 243.931684 -146.705412 
L 240.623383 -146.278433 
L 237.315083 -145.363942 
L 234.006782 -145.148611 
L 230.698482 -144.524535 
L 227.390182 -144.006223 
L 224.081881 -143.853017 
L 220.773581 -142.068825 
L 217.46528 -141.520253 
L 214.15698 -139.89961 
L 210.84868 -139.452374 
L 207.540379 -138.648372 
L 204.232079 -138.4054 
L 200.923778 -136.313913 
L 197.615478 -135.37065 
L 194.307178 -132.948586 
L 190.998877 -124.708704 
L 187.690577 -124.307732 
L 184.382276 -123.467455 
L 181.073976 -122.770901 
L 177.765676 -118.62211 
L 174.457375 -118.432011 
L 171.149075 -112.258652 
L 167.840774 -110.513974 
L 164.532474 -104.656995 
L 161.224174 -103.736143 
L 157.915873 -99.415325 
L 154.607573 -98.612042 
L 151.299272 -96.734994 
L 147.990972 -93.906903 
L 144.682672 -91.996428 
L 141.374371 -87.351823 
L 138.066071 -82.216423 
L 134.757771 -81.011295 
L 131.44947 -72.865265 
L 128.14117 -67.904326 
L 124.832869 -25.82 
z
" id="mbc03936267" style="stroke:#4a98c9;"/>
    </defs>
    <g clip-path="url(#p3b9e30db1a)">
     <use style="fill:#4a98c9;stroke:#4a98c9;" x="0" xlink:href="#mbc03936267" y="354.04"/>
    </g>
   </g>
   <g id="PolyCollection_2">
    <defs>
     <path d="M 124.832869 -25.82 
L 124.832869 -152.184314 
L 128.14117 -152.184314 
L 131.44947 -152.184314 
L 134.757771 -152.184314 
L 138.066071 -152.184314 
L 141.374371 -152.184314 
L 144.682672 -152.184314 
L 147.990972 -152.184314 
L 151.299272 -152.184314 
L 154.607573 -152.184314 
L 157.915873 -152.184314 
L 161.224174 -152.184314 
L 164.532474 -152.184314 
L 167.840774 -152.184314 
L 171.149075 -152.184314 
L 174.457375 -152.184314 
L 177.765676 -152.184314 
L 181.073976 -152.184314 
L 184.382276 -152.184314 
L 187.690577 -152.184314 
L 190.998877 -152.184314 
L 194.307178 -152.184314 
L 197.615478 -152.184314 
L 200.923778 -152.184314 
L 204.232079 -152.184314 
L 207.540379 -152.184314 
L 210.84868 -152.184314 
L 214.15698 -152.184314 
L 217.46528 -152.184314 
L 220.773581 -152.184314 
L 224.081881 -152.184314 
L 227.390182 -152.184314 
L 230.698482 -152.184314 
L 234.006782 -152.184314 
L 237.315083 -152.184314 
L 240.623383 -152.184314 
L 243.931684 -152.184314 
L 247.239984 -152.184314 
L 250.548284 -152.184314 
L 253.856585 -152.184314 
L 257.164885 -152.184314 
L 260.473186 -152.184314 
L 263.781486 -152.184314 
L 267.089786 -152.184314 
L 270.398087 -152.184314 
L 273.706387 -152.184314 
L 277.014688 -152.184314 
L 280.322988 -152.184314 
L 283.631288 -152.184314 
L 286.939589 -152.184314 
L 290.247889 -152.184314 
L 293.556189 -152.184314 
L 296.86449 -152.184314 
L 300.17279 -152.184314 
L 303.481091 -152.184314 
L 306.789391 -152.184314 
L 310.097691 -152.184314 
L 313.405992 -152.184314 
L 316.714292 -152.184314 
L 320.022593 -152.184314 
L 323.330893 -152.184314 
L 326.639193 -152.184314 
L 329.947494 -152.184314 
L 333.255794 -152.184314 
L 336.564095 -152.184314 
L 339.872395 -152.184314 
L 343.180695 -152.184314 
L 346.488996 -152.184314 
L 349.797296 -152.184314 
L 353.105597 -152.184314 
L 356.413897 -152.184314 
L 359.722197 -152.184314 
L 363.030498 -152.184314 
L 366.338798 -152.184314 
L 369.647099 -152.184314 
L 372.955399 -152.184314 
L 376.263699 -152.184314 
L 379.572 -152.184314 
L 382.8803 -152.184314 
L 386.188601 -152.184314 
L 389.496901 -152.184314 
L 392.805201 -152.184314 
L 396.113502 -152.184314 
L 399.421802 -152.184314 
L 402.730103 -152.184314 
L 406.038403 -152.184314 
L 409.346703 -152.184314 
L 412.655004 -152.184314 
L 415.963304 -152.184314 
L 419.271604 -152.184314 
L 422.579905 -152.184314 
L 425.888205 -152.184314 
L 429.196506 -152.184314 
L 429.196506 -328.22 
L 429.196506 -328.22 
L 425.888205 -309.007833 
L 422.579905 -288.920723 
L 419.271604 -271.212836 
L 415.963304 -239.126022 
L 412.655004 -235.78867 
L 409.346703 -234.972236 
L 406.038403 -218.069167 
L 402.730103 -214.158367 
L 399.421802 -209.806081 
L 396.113502 -206.269374 
L 392.805201 -203.199775 
L 389.496901 -201.745122 
L 386.188601 -200.65655 
L 382.8803 -195.25023 
L 379.572 -193.118698 
L 376.263699 -192.688082 
L 372.955399 -187.955911 
L 369.647099 -187.828483 
L 366.338798 -186.673758 
L 363.030498 -185.197857 
L 359.722197 -185.064674 
L 356.413897 -183.863154 
L 353.105597 -182.642813 
L 349.797296 -182.086063 
L 346.488996 -178.749957 
L 343.180695 -178.170192 
L 339.872395 -178.133581 
L 336.564095 -177.698826 
L 333.255794 -176.151894 
L 329.947494 -175.391404 
L 326.639193 -175.316624 
L 323.330893 -172.815373 
L 320.022593 -171.354103 
L 316.714292 -170.248926 
L 313.405992 -167.658116 
L 310.097691 -167.506874 
L 306.789391 -166.793764 
L 303.481091 -166.593472 
L 300.17279 -166.450078 
L 296.86449 -165.531907 
L 293.556189 -161.599022 
L 290.247889 -161.314661 
L 286.939589 -160.298481 
L 283.631288 -158.813356 
L 280.322988 -158.648716 
L 277.014688 -158.314322 
L 273.706387 -156.704397 
L 270.398087 -155.937099 
L 267.089786 -154.863225 
L 263.781486 -154.296563 
L 260.473186 -154.123378 
L 257.164885 -150.405623 
L 253.856585 -148.327545 
L 250.548284 -147.179106 
L 247.239984 -146.974073 
L 243.931684 -146.705412 
L 240.623383 -146.278433 
L 237.315083 -145.363942 
L 234.006782 -145.148611 
L 230.698482 -144.524535 
L 227.390182 -144.006223 
L 224.081881 -143.853017 
L 220.773581 -142.068825 
L 217.46528 -141.520253 
L 214.15698 -139.89961 
L 210.84868 -139.452374 
L 207.540379 -138.648372 
L 204.232079 -138.4054 
L 200.923778 -136.313913 
L 197.615478 -135.37065 
L 194.307178 -132.948586 
L 190.998877 -124.708704 
L 187.690577 -124.307732 
L 184.382276 -123.467455 
L 181.073976 -122.770901 
L 177.765676 -118.62211 
L 174.457375 -118.432011 
L 171.149075 -112.258652 
L 167.840774 -110.513974 
L 164.532474 -104.656995 
L 161.224174 -103.736143 
L 157.915873 -99.415325 
L 154.607573 -98.612042 
L 151.299272 -96.734994 
L 147.990972 -93.906903 
L 144.682672 -91.996428 
L 141.374371 -87.351823 
L 138.066071 -82.216423 
L 134.757771 -81.011295 
L 131.44947 -72.865265 
L 128.14117 -67.904326 
L 124.832869 -25.82 
z
" id="md4a38190c0" style="stroke:#f14432;stroke-opacity:0.8;"/>
    </defs>
    <g clip-path="url(#p3b9e30db1a)">
     <use style="fill:#f14432;fill-opacity:0.8;stroke:#f14432;stroke-opacity:0.8;" x="0" xlink:href="#md4a38190c0" y="354.04"/>
    </g>
   </g>
   <g id="matplotlib.axis_1"/>
   <g id="matplotlib.axis_2">
    <g id="ytick_1">
     <g id="line2d_1">
      <defs>
       <path d="M 0 0 
L -3.5 0 
" id="m6fad70d668" style="stroke:#000000;stroke-width:0.8;"/>
      </defs>
      <g>
       <use style="stroke:#000000;stroke-width:0.8;" x="109.614687" xlink:href="#m6fad70d668" y="326.42389"/>
      </g>
     </g>
     <g id="text_1">
      <!-- −0.0003 -->
      <defs>
       <path d="M 10.59375 35.5 
L 73.1875 35.5 
L 73.1875 27.203125 
L 10.59375 27.203125 
z
" id="DejaVuSans-2212"/>
       <path d="M 31.78125 66.40625 
Q 24.171875 66.40625 20.328125 58.90625 
Q 16.5 51.421875 16.5 36.375 
Q 16.5 21.390625 20.328125 13.890625 
Q 24.171875 6.390625 31.78125 6.390625 
Q 39.453125 6.390625 43.28125 13.890625 
Q 47.125 21.390625 47.125 36.375 
Q 47.125 51.421875 43.28125 58.90625 
Q 39.453125 66.40625 31.78125 66.40625 
z
M 31.78125 74.21875 
Q 44.046875 74.21875 50.515625 64.515625 
Q 56.984375 54.828125 56.984375 36.375 
Q 56.984375 17.96875 50.515625 8.265625 
Q 44.046875 -1.421875 31.78125 -1.421875 
Q 19.53125 -1.421875 13.0625 8.265625 
Q 6.59375 17.96875 6.59375 36.375 
Q 6.59375 54.828125 13.0625 64.515625 
Q 19.53125 74.21875 31.78125 74.21875 
z
" id="DejaVuSans-30"/>
       <path d="M 10.6875 12.40625 
L 21 12.40625 
L 21 0 
L 10.6875 0 
z
" id="DejaVuSans-2e"/>
       <path d="M 40.578125 39.3125 
Q 47.65625 37.796875 51.625 33 
Q 55.609375 28.21875 55.609375 21.1875 
Q 55.609375 10.40625 48.1875 4.484375 
Q 40.765625 -1.421875 27.09375 -1.421875 
Q 22.515625 -1.421875 17.65625 -0.515625 
Q 12.796875 0.390625 7.625 2.203125 
L 7.625 11.71875 
Q 11.71875 9.328125 16.59375 8.109375 
Q 21.484375 6.890625 26.8125 6.890625 
Q 36.078125 6.890625 40.9375 10.546875 
Q 45.796875 14.203125 45.796875 21.1875 
Q 45.796875 27.640625 41.28125 31.265625 
Q 36.765625 34.90625 28.71875 34.90625 
L 20.21875 34.90625 
L 20.21875 43.015625 
L 29.109375 43.015625 
Q 36.375 43.015625 40.234375 45.921875 
Q 44.09375 48.828125 44.09375 54.296875 
Q 44.09375 59.90625 40.109375 62.90625 
Q 36.140625 65.921875 28.71875 65.921875 
Q 24.65625 65.921875 20.015625 65.03125 
Q 15.375 64.15625 9.8125 62.3125 
L 9.8125 71.09375 
Q 15.4375 72.65625 20.34375 73.4375 
Q 25.25 74.21875 29.59375 74.21875 
Q 40.828125 74.21875 47.359375 69.109375 
Q 53.90625 64.015625 53.90625 55.328125 
Q 53.90625 49.265625 50.4375 45.09375 
Q 46.96875 40.921875 40.578125 39.3125 
z
" id="DejaVuSans-33"/>
      </defs>
      <g transform="translate(7.2 334.782172)scale(0.22 -0.22)">
       <use xlink:href="#DejaVuSans-2212"/>
       <use x="83.789062" xlink:href="#DejaVuSans-30"/>
       <use x="147.412109" xlink:href="#DejaVuSans-2e"/>
       <use x="179.199219" xlink:href="#DejaVuSans-30"/>
       <use x="242.822266" xlink:href="#DejaVuSans-30"/>
       <use x="306.445312" xlink:href="#DejaVuSans-30"/>
       <use x="370.068359" xlink:href="#DejaVuSans-33"/>
      </g>
     </g>
    </g>
    <g id="ytick_2">
     <g id="line2d_2">
      <g>
       <use style="stroke:#000000;stroke-width:0.8;" x="109.614687" xlink:href="#m6fad70d668" y="284.901156"/>
      </g>
     </g>
     <g id="text_2">
      <!-- −0.0002 -->
      <defs>
       <path d="M 19.1875 8.296875 
L 53.609375 8.296875 
L 53.609375 0 
L 7.328125 0 
L 7.328125 8.296875 
Q 12.9375 14.109375 22.625 23.890625 
Q 32.328125 33.6875 34.8125 36.53125 
Q 39.546875 41.84375 41.421875 45.53125 
Q 43.3125 49.21875 43.3125 52.78125 
Q 43.3125 58.59375 39.234375 62.25 
Q 35.15625 65.921875 28.609375 65.921875 
Q 23.96875 65.921875 18.8125 64.3125 
Q 13.671875 62.703125 7.8125 59.421875 
L 7.8125 69.390625 
Q 13.765625 71.78125 18.9375 73 
Q 24.125 74.21875 28.421875 74.21875 
Q 39.75 74.21875 46.484375 68.546875 
Q 53.21875 62.890625 53.21875 53.421875 
Q 53.21875 48.921875 51.53125 44.890625 
Q 49.859375 40.875 45.40625 35.40625 
Q 44.1875 33.984375 37.640625 27.21875 
Q 31.109375 20.453125 19.1875 8.296875 
z
" id="DejaVuSans-32"/>
      </defs>
      <g transform="translate(7.2 293.259437)scale(0.22 -0.22)">
       <use xlink:href="#DejaVuSans-2212"/>
       <use x="83.789062" xlink:href="#DejaVuSans-30"/>
       <use x="147.412109" xlink:href="#DejaVuSans-2e"/>
       <use x="179.199219" xlink:href="#DejaVuSans-30"/>
       <use x="242.822266" xlink:href="#DejaVuSans-30"/>
       <use x="306.445312" xlink:href="#DejaVuSans-30"/>
       <use x="370.068359" xlink:href="#DejaVuSans-32"/>
      </g>
     </g>
    </g>
    <g id="ytick_3">
     <g id="line2d_3">
      <g>
       <use style="stroke:#000000;stroke-width:0.8;" x="109.614687" xlink:href="#m6fad70d668" y="243.378421"/>
      </g>
     </g>
     <g id="text_3">
      <!-- −0.0001 -->
      <defs>
       <path d="M 12.40625 8.296875 
L 28.515625 8.296875 
L 28.515625 63.921875 
L 10.984375 60.40625 
L 10.984375 69.390625 
L 28.421875 72.90625 
L 38.28125 72.90625 
L 38.28125 8.296875 
L 54.390625 8.296875 
L 54.390625 0 
L 12.40625 0 
z
" id="DejaVuSans-31"/>
      </defs>
      <g transform="translate(7.2 251.736702)scale(0.22 -0.22)">
       <use xlink:href="#DejaVuSans-2212"/>
       <use x="83.789062" xlink:href="#DejaVuSans-30"/>
       <use x="147.412109" xlink:href="#DejaVuSans-2e"/>
       <use x="179.199219" xlink:href="#DejaVuSans-30"/>
       <use x="242.822266" xlink:href="#DejaVuSans-30"/>
       <use x="306.445312" xlink:href="#DejaVuSans-30"/>
       <use x="370.068359" xlink:href="#DejaVuSans-31"/>
      </g>
     </g>
    </g>
    <g id="ytick_4">
     <g id="line2d_4">
      <g>
       <use style="stroke:#000000;stroke-width:0.8;" x="109.614687" xlink:href="#m6fad70d668" y="201.855686"/>
      </g>
     </g>
     <g id="text_4">
      <!-- 0.0000 -->
      <g transform="translate(25.635312 210.213967)scale(0.22 -0.22)">
       <use xlink:href="#DejaVuSans-30"/>
       <use x="63.623047" xlink:href="#DejaVuSans-2e"/>
       <use x="95.410156" xlink:href="#DejaVuSans-30"/>
       <use x="159.033203" xlink:href="#DejaVuSans-30"/>
       <use x="222.65625" xlink:href="#DejaVuSans-30"/>
       <use x="286.279297" xlink:href="#DejaVuSans-30"/>
      </g>
     </g>
    </g>
    <g id="ytick_5">
     <g id="line2d_5">
      <g>
       <use style="stroke:#000000;stroke-width:0.8;" x="109.614687" xlink:href="#m6fad70d668" y="160.332951"/>
      </g>
     </g>
     <g id="text_5">
      <!-- 0.0001 -->
      <g transform="translate(25.635312 168.691232)scale(0.22 -0.22)">
       <use xlink:href="#DejaVuSans-30"/>
       <use x="63.623047" xlink:href="#DejaVuSans-2e"/>
       <use x="95.410156" xlink:href="#DejaVuSans-30"/>
       <use x="159.033203" xlink:href="#DejaVuSans-30"/>
       <use x="222.65625" xlink:href="#DejaVuSans-30"/>
       <use x="286.279297" xlink:href="#DejaVuSans-31"/>
      </g>
     </g>
    </g>
    <g id="ytick_6">
     <g id="line2d_6">
      <g>
       <use style="stroke:#000000;stroke-width:0.8;" x="109.614687" xlink:href="#m6fad70d668" y="118.810216"/>
      </g>
     </g>
     <g id="text_6">
      <!-- 0.0002 -->
      <g transform="translate(25.635312 127.168497)scale(0.22 -0.22)">
       <use xlink:href="#DejaVuSans-30"/>
       <use x="63.623047" xlink:href="#DejaVuSans-2e"/>
       <use x="95.410156" xlink:href="#DejaVuSans-30"/>
       <use x="159.033203" xlink:href="#DejaVuSans-30"/>
       <use x="222.65625" xlink:href="#DejaVuSans-30"/>
       <use x="286.279297" xlink:href="#DejaVuSans-32"/>
      </g>
     </g>
    </g>
    <g id="ytick_7">
     <g id="line2d_7">
      <g>
       <use style="stroke:#000000;stroke-width:0.8;" x="109.614687" xlink:href="#m6fad70d668" y="77.287481"/>
      </g>
     </g>
     <g id="text_7">
      <!-- 0.0003 -->
      <g transform="translate(25.635312 85.645762)scale(0.22 -0.22)">
       <use xlink:href="#DejaVuSans-30"/>
       <use x="63.623047" xlink:href="#DejaVuSans-2e"/>
       <use x="95.410156" xlink:href="#DejaVuSans-30"/>
       <use x="159.033203" xlink:href="#DejaVuSans-30"/>
       <use x="222.65625" xlink:href="#DejaVuSans-30"/>
       <use x="286.279297" xlink:href="#DejaVuSans-33"/>
      </g>
     </g>
    </g>
    <g id="ytick_8">
     <g id="line2d_8">
      <g>
       <use style="stroke:#000000;stroke-width:0.8;" x="109.614687" xlink:href="#m6fad70d668" y="35.764746"/>
      </g>
     </g>
     <g id="text_8">
      <!-- 0.0004 -->
      <defs>
       <path d="M 37.796875 64.3125 
L 12.890625 25.390625 
L 37.796875 25.390625 
z
M 35.203125 72.90625 
L 47.609375 72.90625 
L 47.609375 25.390625 
L 58.015625 25.390625 
L 58.015625 17.1875 
L 47.609375 17.1875 
L 47.609375 0 
L 37.796875 0 
L 37.796875 17.1875 
L 4.890625 17.1875 
L 4.890625 26.703125 
z
" id="DejaVuSans-34"/>
      </defs>
      <g transform="translate(25.635312 44.123027)scale(0.22 -0.22)">
       <use xlink:href="#DejaVuSans-30"/>
       <use x="63.623047" xlink:href="#DejaVuSans-2e"/>
       <use x="95.410156" xlink:href="#DejaVuSans-30"/>
       <use x="159.033203" xlink:href="#DejaVuSans-30"/>
       <use x="222.65625" xlink:href="#DejaVuSans-30"/>
       <use x="286.279297" xlink:href="#DejaVuSans-34"/>
      </g>
     </g>
    </g>
   </g>
   <g id="patch_3">
    <path d="M 109.614687 343.34 
L 109.614687 10.7 
" style="fill:none;stroke:#000000;stroke-linecap:square;stroke-linejoin:miter;stroke-width:0.8;"/>
   </g>
   <g id="patch_4">
    <path d="M 444.414688 343.34 
L 444.414688 10.7 
" style="fill:none;stroke:#000000;stroke-linecap:square;stroke-linejoin:miter;stroke-width:0.8;"/>
   </g>
   <g id="patch_5">
    <path d="M 109.614687 343.34 
L 444.414688 343.34 
" style="fill:none;stroke:#000000;stroke-linecap:square;stroke-linejoin:miter;stroke-width:0.8;"/>
   </g>
   <g id="patch_6">
    <path d="M 109.614687 10.7 
L 444.414688 10.7 
" style="fill:none;stroke:#000000;stroke-linecap:square;stroke-linejoin:miter;stroke-width:0.8;"/>
   </g>
  </g>
 </g>
 <defs>
  <clipPath id="p3b9e30db1a">
   <rect height="332.64" width="334.8" x="109.614687" y="10.7"/>
  </clipPath>
 </defs>
</svg>
