<?xml version="1.0" encoding="utf-8" standalone="no"?>
<!DOCTYPE svg PUBLIC "-//W3C//DTD SVG 1.1//EN"
  "http://www.w3.org/Graphics/SVG/1.1/DTD/svg11.dtd">
<!-- Created with matplotlib (http://matplotlib.org/) -->
<svg height="354pt" version="1.1" viewBox="0 0 441 354" width="441pt" xmlns="http://www.w3.org/2000/svg" xmlns:xlink="http://www.w3.org/1999/xlink">
 <defs>
  <style type="text/css">
*{stroke-linecap:butt;stroke-linejoin:round;}
  </style>
 </defs>
 <g id="figure_1">
  <g id="patch_1">
   <path d="M 0 354.146107 
L 441.117188 354.146107 
L 441.117188 0 
L 0 0 
z
" style="fill:#ffffff;"/>
  </g>
  <g id="axes_1">
   <g id="patch_2">
    <path d="M 95.617188 343.34 
L 430.417188 343.34 
L 430.417188 10.7 
L 95.617188 10.7 
z
" style="fill:#ffffff;"/>
   </g>
   <g id="PolyCollection_1">
    <defs>
     <path d="M 110.835369 -25.926107 
L 110.835369 -167.719465 
L 114.14367 -167.719465 
L 117.45197 -167.719465 
L 120.760271 -167.719465 
L 124.068571 -167.719465 
L 127.376871 -167.719465 
L 130.685172 -167.719465 
L 133.993472 -167.719465 
L 137.301772 -167.719465 
L 140.610073 -167.719465 
L 143.918373 -167.719465 
L 147.226674 -167.719465 
L 150.534974 -167.719465 
L 153.843274 -167.719465 
L 157.151575 -167.719465 
L 160.459875 -167.719465 
L 163.768176 -167.719465 
L 167.076476 -167.719465 
L 170.384776 -167.719465 
L 173.693077 -167.719465 
L 177.001377 -167.719465 
L 180.309678 -167.719465 
L 183.617978 -167.719465 
L 186.926278 -167.719465 
L 190.234579 -167.719465 
L 193.542879 -167.719465 
L 196.85118 -167.719465 
L 200.15948 -167.719465 
L 203.46778 -167.719465 
L 206.776081 -167.719465 
L 210.084381 -167.719465 
L 213.392682 -167.719465 
L 216.700982 -167.719465 
L 220.009282 -167.719465 
L 223.317583 -167.719465 
L 226.625883 -167.719465 
L 229.934184 -167.719465 
L 233.242484 -167.719465 
L 236.550784 -167.719465 
L 239.859085 -167.719465 
L 243.167385 -167.719465 
L 246.475686 -167.719465 
L 249.783986 -167.719465 
L 253.092286 -167.719465 
L 256.400587 -167.719465 
L 259.708887 -167.719465 
L 263.017188 -167.719465 
L 266.325488 -167.719465 
L 269.633788 -167.719465 
L 272.942089 -167.719465 
L 276.250389 -167.719465 
L 279.558689 -167.719465 
L 282.86699 -167.719465 
L 286.17529 -167.719465 
L 289.483591 -167.719465 
L 292.791891 -167.719465 
L 296.100191 -167.719465 
L 299.408492 -167.719465 
L 302.716792 -167.719465 
L 306.025093 -167.719465 
L 309.333393 -167.719465 
L 312.641693 -167.719465 
L 315.949994 -167.719465 
L 319.258294 -167.719465 
L 322.566595 -167.719465 
L 325.874895 -167.719465 
L 329.183195 -167.719465 
L 332.491496 -167.719465 
L 335.799796 -167.719465 
L 339.108097 -167.719465 
L 342.416397 -167.719465 
L 345.724697 -167.719465 
L 349.032998 -167.719465 
L 352.341298 -167.719465 
L 355.649599 -167.719465 
L 358.957899 -167.719465 
L 362.266199 -167.719465 
L 365.5745 -167.719465 
L 368.8828 -167.719465 
L 372.191101 -167.719465 
L 375.499401 -167.719465 
L 378.807701 -167.719465 
L 382.116002 -167.719465 
L 385.424302 -167.719465 
L 388.732603 -167.719465 
L 392.040903 -167.719465 
L 395.349203 -167.719465 
L 398.657504 -167.719465 
L 401.965804 -167.719465 
L 405.274104 -167.719465 
L 408.582405 -167.719465 
L 411.890705 -167.719465 
L 415.199006 -167.719465 
L 415.199006 -328.326107 
L 415.199006 -328.326107 
L 411.890705 -285.795938 
L 408.582405 -275.55495 
L 405.274104 -272.416722 
L 401.965804 -266.363528 
L 398.657504 -262.847047 
L 395.349203 -260.400239 
L 392.040903 -259.154707 
L 388.732603 -253.872929 
L 385.424302 -250.76404 
L 382.116002 -245.795645 
L 378.807701 -234.539585 
L 375.499401 -234.241443 
L 372.191101 -225.182988 
L 368.8828 -221.808211 
L 365.5745 -215.997829 
L 362.266199 -214.454912 
L 358.957899 -205.941441 
L 355.649599 -197.415854 
L 352.341298 -193.923194 
L 349.032998 -192.262203 
L 345.724697 -191.724 
L 342.416397 -190.894485 
L 339.108097 -190.096226 
L 335.799796 -183.942717 
L 332.491496 -181.987181 
L 329.183195 -180.068136 
L 325.874895 -179.059308 
L 322.566595 -177.8176 
L 319.258294 -177.662751 
L 315.949994 -176.688594 
L 312.641693 -172.715989 
L 309.333393 -172.70681 
L 306.025093 -172.051196 
L 302.716792 -171.324194 
L 299.408492 -170.886961 
L 296.100191 -170.63496 
L 292.791891 -170.591468 
L 289.483591 -170.364777 
L 286.17529 -170.271044 
L 282.86699 -169.819568 
L 279.558689 -169.558181 
L 276.250389 -169.291653 
L 272.942089 -169.032904 
L 269.633788 -168.989975 
L 266.325488 -168.765234 
L 263.017188 -168.74584 
L 259.708887 -168.569756 
L 256.400587 -168.521821 
L 253.092286 -168.436675 
L 249.783986 -168.417695 
L 246.475686 -167.892052 
L 243.167385 -167.816554 
L 239.859085 -167.805129 
L 236.550784 -167.725189 
L 233.242484 -167.627582 
L 229.934184 -167.54809 
L 226.625883 -167.526546 
L 223.317583 -167.470151 
L 220.009282 -167.21083 
L 216.700982 -167.118537 
L 213.392682 -166.938441 
L 210.084381 -166.898914 
L 206.776081 -166.821005 
L 203.46778 -166.741728 
L 200.15948 -166.501073 
L 196.85118 -166.29046 
L 193.542879 -166.283998 
L 190.234579 -166.267627 
L 186.926278 -165.86954 
L 183.617978 -165.830957 
L 180.309678 -165.661639 
L 177.001377 -165.487863 
L 173.693077 -165.457766 
L 170.384776 -164.826372 
L 167.076476 -163.602739 
L 163.768176 -162.788951 
L 160.459875 -160.409885 
L 157.151575 -156.612289 
L 153.843274 -155.123335 
L 150.534974 -154.415088 
L 147.226674 -146.35292 
L 143.918373 -136.837198 
L 140.610073 -134.13572 
L 137.301772 -129.213285 
L 133.993472 -126.649182 
L 130.685172 -74.220108 
L 127.376871 -54.204576 
L 124.068571 -50.868224 
L 120.760271 -42.384212 
L 117.45197 -31.183518 
L 114.14367 -26.799371 
L 110.835369 -25.926107 
z
" id="m34810404a0" style="stroke:#4a98c9;"/>
    </defs>
    <g clip-path="url(#pb65cdcafcd)">
     <use style="fill:#4a98c9;stroke:#4a98c9;" x="0" xlink:href="#m34810404a0" y="354.146107"/>
    </g>
   </g>
   <g id="PolyCollection_2">
    <defs>
     <path d="M 110.835369 -101.921039 
L 110.835369 -167.719465 
L 114.14367 -167.719465 
L 117.45197 -167.719465 
L 120.760271 -167.719465 
L 124.068571 -167.719465 
L 127.376871 -167.719465 
L 130.685172 -167.719465 
L 133.993472 -167.719465 
L 137.301772 -167.719465 
L 140.610073 -167.719465 
L 143.918373 -167.719465 
L 147.226674 -167.719465 
L 150.534974 -167.719465 
L 153.843274 -167.719465 
L 157.151575 -167.719465 
L 160.459875 -167.719465 
L 163.768176 -167.719465 
L 167.076476 -167.719465 
L 170.384776 -167.719465 
L 173.693077 -167.719465 
L 177.001377 -167.719465 
L 180.309678 -167.719465 
L 183.617978 -167.719465 
L 186.926278 -167.719465 
L 190.234579 -167.719465 
L 193.542879 -167.719465 
L 196.85118 -167.719465 
L 200.15948 -167.719465 
L 203.46778 -167.719465 
L 206.776081 -167.719465 
L 210.084381 -167.719465 
L 213.392682 -167.719465 
L 216.700982 -167.719465 
L 220.009282 -167.719465 
L 223.317583 -167.719465 
L 226.625883 -167.719465 
L 229.934184 -167.719465 
L 233.242484 -167.719465 
L 236.550784 -167.719465 
L 239.859085 -167.719465 
L 243.167385 -167.719465 
L 246.475686 -167.719465 
L 249.783986 -167.719465 
L 253.092286 -167.719465 
L 256.400587 -167.719465 
L 259.708887 -167.719465 
L 263.017188 -167.719465 
L 266.325488 -167.719465 
L 269.633788 -167.719465 
L 272.942089 -167.719465 
L 276.250389 -167.719465 
L 279.558689 -167.719465 
L 282.86699 -167.719465 
L 286.17529 -167.719465 
L 289.483591 -167.719465 
L 292.791891 -167.719465 
L 296.100191 -167.719465 
L 299.408492 -167.719465 
L 302.716792 -167.719465 
L 306.025093 -167.719465 
L 309.333393 -167.719465 
L 312.641693 -167.719465 
L 315.949994 -167.719465 
L 319.258294 -167.719465 
L 322.566595 -167.719465 
L 325.874895 -167.719465 
L 329.183195 -167.719465 
L 332.491496 -167.719465 
L 335.799796 -167.719465 
L 339.108097 -167.719465 
L 342.416397 -167.719465 
L 345.724697 -167.719465 
L 349.032998 -167.719465 
L 352.341298 -167.719465 
L 355.649599 -167.719465 
L 358.957899 -167.719465 
L 362.266199 -167.719465 
L 365.5745 -167.719465 
L 368.8828 -167.719465 
L 372.191101 -167.719465 
L 375.499401 -167.719465 
L 378.807701 -167.719465 
L 382.116002 -167.719465 
L 385.424302 -167.719465 
L 388.732603 -167.719465 
L 392.040903 -167.719465 
L 395.349203 -167.719465 
L 398.657504 -167.719465 
L 401.965804 -167.719465 
L 405.274104 -167.719465 
L 408.582405 -167.719465 
L 411.890705 -167.719465 
L 415.199006 -167.719465 
L 415.199006 -223.163655 
L 415.199006 -223.163655 
L 411.890705 -218.760613 
L 408.582405 -215.486055 
L 405.274104 -215.474792 
L 401.965804 -215.281435 
L 398.657504 -209.22608 
L 395.349203 -202.33975 
L 392.040903 -199.919055 
L 388.732603 -194.620934 
L 385.424302 -192.710587 
L 382.116002 -192.580601 
L 378.807701 -191.421043 
L 375.499401 -191.248133 
L 372.191101 -189.131063 
L 368.8828 -188.898465 
L 365.5745 -188.112229 
L 362.266199 -187.712864 
L 358.957899 -183.647973 
L 355.649599 -182.144574 
L 352.341298 -181.80728 
L 349.032998 -181.713248 
L 345.724697 -181.066597 
L 342.416397 -179.960474 
L 339.108097 -178.680734 
L 335.799796 -176.436509 
L 332.491496 -175.092527 
L 329.183195 -175.020783 
L 325.874895 -172.628618 
L 322.566595 -172.393077 
L 319.258294 -172.031523 
L 315.949994 -171.802026 
L 312.641693 -171.223959 
L 309.333393 -170.541976 
L 306.025093 -170.258668 
L 302.716792 -170.197905 
L 299.408492 -170.147824 
L 296.100191 -169.861487 
L 292.791891 -169.696144 
L 289.483591 -169.643526 
L 286.17529 -168.883191 
L 282.86699 -168.825931 
L 279.558689 -168.680194 
L 276.250389 -168.525686 
L 272.942089 -168.407709 
L 269.633788 -168.332206 
L 266.325488 -168.323539 
L 263.017188 -168.306252 
L 259.708887 -168.246811 
L 256.400587 -168.109432 
L 253.092286 -168.067872 
L 249.783986 -168.009122 
L 246.475686 -167.970311 
L 243.167385 -167.947695 
L 239.859085 -167.836435 
L 236.550784 -167.717939 
L 233.242484 -167.640218 
L 229.934184 -167.410642 
L 226.625883 -167.375462 
L 223.317583 -167.235249 
L 220.009282 -166.966659 
L 216.700982 -166.938915 
L 213.392682 -166.644934 
L 210.084381 -166.634621 
L 206.776081 -166.173527 
L 203.46778 -165.940738 
L 200.15948 -165.736807 
L 196.85118 -165.563863 
L 193.542879 -165.220064 
L 190.234579 -165.03939 
L 186.926278 -164.70378 
L 183.617978 -164.600348 
L 180.309678 -164.348347 
L 177.001377 -163.558927 
L 173.693077 -163.392054 
L 170.384776 -163.185166 
L 167.076476 -161.988555 
L 163.768176 -161.790932 
L 160.459875 -161.17845 
L 157.151575 -161.044032 
L 153.843274 -160.261544 
L 150.534974 -158.302097 
L 147.226674 -158.013958 
L 143.918373 -158.005018 
L 140.610073 -153.942063 
L 137.301772 -151.496683 
L 133.993472 -145.879987 
L 130.685172 -139.99376 
L 127.376871 -130.409277 
L 124.068571 -126.338226 
L 120.760271 -122.162271 
L 117.45197 -119.885359 
L 114.14367 -117.833924 
L 110.835369 -101.921039 
z
" id="m458eb3e144" style="stroke:#f14432;stroke-opacity:0.8;"/>
    </defs>
    <g clip-path="url(#pb65cdcafcd)">
     <use style="fill:#f14432;fill-opacity:0.8;stroke:#f14432;stroke-opacity:0.8;" x="0" xlink:href="#m458eb3e144" y="354.146107"/>
    </g>
   </g>
   <g id="matplotlib.axis_1"/>
   <g id="matplotlib.axis_2">
    <g id="ytick_1">
     <g id="line2d_1">
      <defs>
       <path d="M 0 0 
L -3.5 0 
" id="m1aa1ab0d24" style="stroke:#000000;stroke-width:0.8;"/>
      </defs>
      <g>
       <use style="stroke:#000000;stroke-width:0.8;" x="95.617188" xlink:href="#m1aa1ab0d24" y="334.012513"/>
      </g>
     </g>
     <g id="text_1">
      <!-- −0.010 -->
      <defs>
       <path d="M 10.59375 35.5 
L 73.1875 35.5 
L 73.1875 27.203125 
L 10.59375 27.203125 
z
" id="DejaVuSans-2212"/>
       <path d="M 31.78125 66.40625 
Q 24.171875 66.40625 20.328125 58.90625 
Q 16.5 51.421875 16.5 36.375 
Q 16.5 21.390625 20.328125 13.890625 
Q 24.171875 6.390625 31.78125 6.390625 
Q 39.453125 6.390625 43.28125 13.890625 
Q 47.125 21.390625 47.125 36.375 
Q 47.125 51.421875 43.28125 58.90625 
Q 39.453125 66.40625 31.78125 66.40625 
z
M 31.78125 74.21875 
Q 44.046875 74.21875 50.515625 64.515625 
Q 56.984375 54.828125 56.984375 36.375 
Q 56.984375 17.96875 50.515625 8.265625 
Q 44.046875 -1.421875 31.78125 -1.421875 
Q 19.53125 -1.421875 13.0625 8.265625 
Q 6.59375 17.96875 6.59375 36.375 
Q 6.59375 54.828125 13.0625 64.515625 
Q 19.53125 74.21875 31.78125 74.21875 
z
" id="DejaVuSans-30"/>
       <path d="M 10.6875 12.40625 
L 21 12.40625 
L 21 0 
L 10.6875 0 
z
" id="DejaVuSans-2e"/>
       <path d="M 12.40625 8.296875 
L 28.515625 8.296875 
L 28.515625 63.921875 
L 10.984375 60.40625 
L 10.984375 69.390625 
L 28.421875 72.90625 
L 38.28125 72.90625 
L 38.28125 8.296875 
L 54.390625 8.296875 
L 54.390625 0 
L 12.40625 0 
z
" id="DejaVuSans-31"/>
      </defs>
      <g transform="translate(7.2 342.370794)scale(0.22 -0.22)">
       <use xlink:href="#DejaVuSans-2212"/>
       <use x="83.789062" xlink:href="#DejaVuSans-30"/>
       <use x="147.412109" xlink:href="#DejaVuSans-2e"/>
       <use x="179.199219" xlink:href="#DejaVuSans-30"/>
       <use x="242.822266" xlink:href="#DejaVuSans-31"/>
       <use x="306.445312" xlink:href="#DejaVuSans-30"/>
      </g>
     </g>
    </g>
    <g id="ytick_2">
     <g id="line2d_2">
      <g>
       <use style="stroke:#000000;stroke-width:0.8;" x="95.617188" xlink:href="#m1aa1ab0d24" y="260.219577"/>
      </g>
     </g>
     <g id="text_2">
      <!-- −0.005 -->
      <defs>
       <path d="M 10.796875 72.90625 
L 49.515625 72.90625 
L 49.515625 64.59375 
L 19.828125 64.59375 
L 19.828125 46.734375 
Q 21.96875 47.46875 24.109375 47.828125 
Q 26.265625 48.1875 28.421875 48.1875 
Q 40.625 48.1875 47.75 41.5 
Q 54.890625 34.8125 54.890625 23.390625 
Q 54.890625 11.625 47.5625 5.09375 
Q 40.234375 -1.421875 26.90625 -1.421875 
Q 22.3125 -1.421875 17.546875 -0.640625 
Q 12.796875 0.140625 7.71875 1.703125 
L 7.71875 11.625 
Q 12.109375 9.234375 16.796875 8.0625 
Q 21.484375 6.890625 26.703125 6.890625 
Q 35.15625 6.890625 40.078125 11.328125 
Q 45.015625 15.765625 45.015625 23.390625 
Q 45.015625 31 40.078125 35.4375 
Q 35.15625 39.890625 26.703125 39.890625 
Q 22.75 39.890625 18.8125 39.015625 
Q 14.890625 38.140625 10.796875 36.28125 
z
" id="DejaVuSans-35"/>
      </defs>
      <g transform="translate(7.2 268.577858)scale(0.22 -0.22)">
       <use xlink:href="#DejaVuSans-2212"/>
       <use x="83.789062" xlink:href="#DejaVuSans-30"/>
       <use x="147.412109" xlink:href="#DejaVuSans-2e"/>
       <use x="179.199219" xlink:href="#DejaVuSans-30"/>
       <use x="242.822266" xlink:href="#DejaVuSans-30"/>
       <use x="306.445312" xlink:href="#DejaVuSans-35"/>
      </g>
     </g>
    </g>
    <g id="ytick_3">
     <g id="line2d_3">
      <g>
       <use style="stroke:#000000;stroke-width:0.8;" x="95.617188" xlink:href="#m1aa1ab0d24" y="186.426641"/>
      </g>
     </g>
     <g id="text_3">
      <!-- 0.000 -->
      <g transform="translate(25.635312 194.784923)scale(0.22 -0.22)">
       <use xlink:href="#DejaVuSans-30"/>
       <use x="63.623047" xlink:href="#DejaVuSans-2e"/>
       <use x="95.410156" xlink:href="#DejaVuSans-30"/>
       <use x="159.033203" xlink:href="#DejaVuSans-30"/>
       <use x="222.65625" xlink:href="#DejaVuSans-30"/>
      </g>
     </g>
    </g>
    <g id="ytick_4">
     <g id="line2d_4">
      <g>
       <use style="stroke:#000000;stroke-width:0.8;" x="95.617188" xlink:href="#m1aa1ab0d24" y="112.633706"/>
      </g>
     </g>
     <g id="text_4">
      <!-- 0.005 -->
      <g transform="translate(25.635312 120.991987)scale(0.22 -0.22)">
       <use xlink:href="#DejaVuSans-30"/>
       <use x="63.623047" xlink:href="#DejaVuSans-2e"/>
       <use x="95.410156" xlink:href="#DejaVuSans-30"/>
       <use x="159.033203" xlink:href="#DejaVuSans-30"/>
       <use x="222.65625" xlink:href="#DejaVuSans-35"/>
      </g>
     </g>
    </g>
    <g id="ytick_5">
     <g id="line2d_5">
      <g>
       <use style="stroke:#000000;stroke-width:0.8;" x="95.617188" xlink:href="#m1aa1ab0d24" y="38.84077"/>
      </g>
     </g>
     <g id="text_5">
      <!-- 0.010 -->
      <g transform="translate(25.635312 47.199051)scale(0.22 -0.22)">
       <use xlink:href="#DejaVuSans-30"/>
       <use x="63.623047" xlink:href="#DejaVuSans-2e"/>
       <use x="95.410156" xlink:href="#DejaVuSans-30"/>
       <use x="159.033203" xlink:href="#DejaVuSans-31"/>
       <use x="222.65625" xlink:href="#DejaVuSans-30"/>
      </g>
     </g>
    </g>
   </g>
   <g id="patch_3">
    <path d="M 95.617188 343.34 
L 95.617188 10.7 
" style="fill:none;stroke:#000000;stroke-linecap:square;stroke-linejoin:miter;stroke-width:0.8;"/>
   </g>
   <g id="patch_4">
    <path d="M 430.417188 343.34 
L 430.417188 10.7 
" style="fill:none;stroke:#000000;stroke-linecap:square;stroke-linejoin:miter;stroke-width:0.8;"/>
   </g>
   <g id="patch_5">
    <path d="M 95.617188 343.34 
L 430.417188 343.34 
" style="fill:none;stroke:#000000;stroke-linecap:square;stroke-linejoin:miter;stroke-width:0.8;"/>
   </g>
   <g id="patch_6">
    <path d="M 95.617188 10.7 
L 430.417188 10.7 
" style="fill:none;stroke:#000000;stroke-linecap:square;stroke-linejoin:miter;stroke-width:0.8;"/>
   </g>
  </g>
 </g>
 <defs>
  <clipPath id="pb65cdcafcd">
   <rect height="332.64" width="334.8" x="95.617188" y="10.7"/>
  </clipPath>
 </defs>
</svg>
