<?xml version="1.0" encoding="utf-8" standalone="no"?>
<!DOCTYPE svg PUBLIC "-//W3C//DTD SVG 1.1//EN"
  "http://www.w3.org/Graphics/SVG/1.1/DTD/svg11.dtd">
<!-- Created with matplotlib (http://matplotlib.org/) -->
<svg height="359pt" version="1.1" viewBox="0 0 427 359" width="427pt" xmlns="http://www.w3.org/2000/svg" xmlns:xlink="http://www.w3.org/1999/xlink">
 <defs>
  <style type="text/css">
*{stroke-linecap:butt;stroke-linejoin:round;}
  </style>
 </defs>
 <g id="figure_1">
  <g id="patch_1">
   <path d="M 0 359.304903 
L 427.119687 359.304903 
L 427.119687 0 
L 0 0 
z
" style="fill:#ffffff;"/>
  </g>
  <g id="axes_1">
   <g id="patch_2">
    <path d="M 81.619687 343.34 
L 416.419688 343.34 
L 416.419688 10.7 
L 81.619687 10.7 
z
" style="fill:#ffffff;"/>
   </g>
   <g id="PolyCollection_1">
    <defs>
     <path d="M 96.837869 -31.084903 
L 96.837869 -152.906035 
L 100.14617 -152.906035 
L 103.45447 -152.906035 
L 106.762771 -152.906035 
L 110.071071 -152.906035 
L 113.379371 -152.906035 
L 116.687672 -152.906035 
L 119.995972 -152.906035 
L 123.304272 -152.906035 
L 126.612573 -152.906035 
L 129.920873 -152.906035 
L 133.229174 -152.906035 
L 136.537474 -152.906035 
L 139.845774 -152.906035 
L 143.154075 -152.906035 
L 146.462375 -152.906035 
L 149.770676 -152.906035 
L 153.078976 -152.906035 
L 156.387276 -152.906035 
L 159.695577 -152.906035 
L 163.003877 -152.906035 
L 166.312178 -152.906035 
L 169.620478 -152.906035 
L 172.928778 -152.906035 
L 176.237079 -152.906035 
L 179.545379 -152.906035 
L 182.85368 -152.906035 
L 186.16198 -152.906035 
L 189.47028 -152.906035 
L 192.778581 -152.906035 
L 196.086881 -152.906035 
L 199.395182 -152.906035 
L 202.703482 -152.906035 
L 206.011782 -152.906035 
L 209.320083 -152.906035 
L 212.628383 -152.906035 
L 215.936684 -152.906035 
L 219.244984 -152.906035 
L 222.553284 -152.906035 
L 225.861585 -152.906035 
L 229.169885 -152.906035 
L 232.478186 -152.906035 
L 235.786486 -152.906035 
L 239.094786 -152.906035 
L 242.403087 -152.906035 
L 245.711387 -152.906035 
L 249.019688 -152.906035 
L 252.327988 -152.906035 
L 255.636288 -152.906035 
L 258.944589 -152.906035 
L 262.252889 -152.906035 
L 265.561189 -152.906035 
L 268.86949 -152.906035 
L 272.17779 -152.906035 
L 275.486091 -152.906035 
L 278.794391 -152.906035 
L 282.102691 -152.906035 
L 285.410992 -152.906035 
L 288.719292 -152.906035 
L 292.027593 -152.906035 
L 295.335893 -152.906035 
L 298.644193 -152.906035 
L 301.952494 -152.906035 
L 305.260794 -152.906035 
L 308.569095 -152.906035 
L 311.877395 -152.906035 
L 315.185695 -152.906035 
L 318.493996 -152.906035 
L 321.802296 -152.906035 
L 325.110597 -152.906035 
L 328.418897 -152.906035 
L 331.727197 -152.906035 
L 335.035498 -152.906035 
L 338.343798 -152.906035 
L 341.652099 -152.906035 
L 344.960399 -152.906035 
L 348.268699 -152.906035 
L 351.577 -152.906035 
L 354.8853 -152.906035 
L 358.193601 -152.906035 
L 361.501901 -152.906035 
L 364.810201 -152.906035 
L 368.118502 -152.906035 
L 371.426802 -152.906035 
L 374.735103 -152.906035 
L 378.043403 -152.906035 
L 381.351703 -152.906035 
L 384.660004 -152.906035 
L 387.968304 -152.906035 
L 391.276604 -152.906035 
L 394.584905 -152.906035 
L 397.893205 -152.906035 
L 401.201506 -152.906035 
L 401.201506 -333.484903 
L 401.201506 -333.484903 
L 397.893205 -258.096699 
L 394.584905 -253.900044 
L 391.276604 -245.82877 
L 387.968304 -244.416311 
L 384.660004 -234.020409 
L 381.351703 -230.338063 
L 378.043403 -215.892058 
L 374.735103 -214.283488 
L 371.426802 -210.459031 
L 368.118502 -207.933585 
L 364.810201 -201.754138 
L 361.501901 -196.213733 
L 358.193601 -194.239246 
L 354.8853 -189.299354 
L 351.577 -188.143613 
L 348.268699 -183.900836 
L 344.960399 -182.961447 
L 341.652099 -179.663284 
L 338.343798 -176.386876 
L 335.035498 -174.315361 
L 331.727197 -173.60742 
L 328.418897 -170.314465 
L 325.110597 -163.731908 
L 321.802296 -160.316325 
L 318.493996 -160.11808 
L 315.185695 -159.83398 
L 311.877395 -159.140145 
L 308.569095 -158.838972 
L 305.260794 -158.649858 
L 301.952494 -156.316373 
L 298.644193 -156.255868 
L 295.335893 -155.181472 
L 292.027593 -154.712798 
L 288.719292 -154.255325 
L 285.410992 -153.954814 
L 282.102691 -153.755984 
L 278.794391 -153.739181 
L 275.486091 -153.466669 
L 272.17779 -153.376041 
L 268.86949 -153.340952 
L 265.561189 -153.220869 
L 262.252889 -153.184577 
L 258.944589 -153.164409 
L 255.636288 -153.156457 
L 252.327988 -153.081209 
L 249.019688 -153.051863 
L 245.711387 -153.017739 
L 242.403087 -152.992172 
L 239.094786 -152.978643 
L 235.786486 -152.970359 
L 232.478186 -152.961609 
L 229.169885 -152.946893 
L 225.861585 -152.933335 
L 222.553284 -152.932157 
L 219.244984 -152.8902 
L 215.936684 -152.884862 
L 212.628383 -152.88285 
L 209.320083 -152.880352 
L 206.011782 -152.877196 
L 202.703482 -152.877064 
L 199.395182 -152.87291 
L 196.086881 -152.868097 
L 192.778581 -152.859278 
L 189.47028 -152.832138 
L 186.16198 -152.828604 
L 182.85368 -152.826968 
L 179.545379 -152.820157 
L 176.237079 -152.787254 
L 172.928778 -152.761607 
L 169.620478 -152.713912 
L 166.312178 -152.615428 
L 163.003877 -152.125399 
L 159.695577 -151.684059 
L 156.387276 -151.299046 
L 153.078976 -150.008149 
L 149.770676 -146.646074 
L 146.462375 -144.471015 
L 143.154075 -144.407028 
L 139.845774 -143.500623 
L 136.537474 -141.574462 
L 133.229174 -140.275212 
L 129.920873 -139.691234 
L 126.612573 -139.109116 
L 123.304272 -134.114795 
L 119.995972 -128.43755 
L 116.687672 -119.194841 
L 113.379371 -117.23259 
L 110.071071 -102.076386 
L 106.762771 -94.817049 
L 103.45447 -91.172871 
L 100.14617 -73.601722 
L 96.837869 -31.084903 
z
" id="ma9c028a069" style="stroke:#4a98c9;"/>
    </defs>
    <g clip-path="url(#p184738bc3e)">
     <use style="fill:#4a98c9;stroke:#4a98c9;" x="0" xlink:href="#ma9c028a069" y="359.304903"/>
    </g>
   </g>
   <g id="PolyCollection_2">
    <defs>
     <path d="M 96.837869 -125.426897 
L 96.837869 -152.906035 
L 100.14617 -152.906035 
L 103.45447 -152.906035 
L 106.762771 -152.906035 
L 110.071071 -152.906035 
L 113.379371 -152.906035 
L 116.687672 -152.906035 
L 119.995972 -152.906035 
L 123.304272 -152.906035 
L 126.612573 -152.906035 
L 129.920873 -152.906035 
L 133.229174 -152.906035 
L 136.537474 -152.906035 
L 139.845774 -152.906035 
L 143.154075 -152.906035 
L 146.462375 -152.906035 
L 149.770676 -152.906035 
L 153.078976 -152.906035 
L 156.387276 -152.906035 
L 159.695577 -152.906035 
L 163.003877 -152.906035 
L 166.312178 -152.906035 
L 169.620478 -152.906035 
L 172.928778 -152.906035 
L 176.237079 -152.906035 
L 179.545379 -152.906035 
L 182.85368 -152.906035 
L 186.16198 -152.906035 
L 189.47028 -152.906035 
L 192.778581 -152.906035 
L 196.086881 -152.906035 
L 199.395182 -152.906035 
L 202.703482 -152.906035 
L 206.011782 -152.906035 
L 209.320083 -152.906035 
L 212.628383 -152.906035 
L 215.936684 -152.906035 
L 219.244984 -152.906035 
L 222.553284 -152.906035 
L 225.861585 -152.906035 
L 229.169885 -152.906035 
L 232.478186 -152.906035 
L 235.786486 -152.906035 
L 239.094786 -152.906035 
L 242.403087 -152.906035 
L 245.711387 -152.906035 
L 249.019688 -152.906035 
L 252.327988 -152.906035 
L 255.636288 -152.906035 
L 258.944589 -152.906035 
L 262.252889 -152.906035 
L 265.561189 -152.906035 
L 268.86949 -152.906035 
L 272.17779 -152.906035 
L 275.486091 -152.906035 
L 278.794391 -152.906035 
L 282.102691 -152.906035 
L 285.410992 -152.906035 
L 288.719292 -152.906035 
L 292.027593 -152.906035 
L 295.335893 -152.906035 
L 298.644193 -152.906035 
L 301.952494 -152.906035 
L 305.260794 -152.906035 
L 308.569095 -152.906035 
L 311.877395 -152.906035 
L 315.185695 -152.906035 
L 318.493996 -152.906035 
L 321.802296 -152.906035 
L 325.110597 -152.906035 
L 328.418897 -152.906035 
L 331.727197 -152.906035 
L 335.035498 -152.906035 
L 338.343798 -152.906035 
L 341.652099 -152.906035 
L 344.960399 -152.906035 
L 348.268699 -152.906035 
L 351.577 -152.906035 
L 354.8853 -152.906035 
L 358.193601 -152.906035 
L 361.501901 -152.906035 
L 364.810201 -152.906035 
L 368.118502 -152.906035 
L 371.426802 -152.906035 
L 374.735103 -152.906035 
L 378.043403 -152.906035 
L 381.351703 -152.906035 
L 384.660004 -152.906035 
L 387.968304 -152.906035 
L 391.276604 -152.906035 
L 394.584905 -152.906035 
L 397.893205 -152.906035 
L 401.201506 -152.906035 
L 401.201506 -194.599812 
L 401.201506 -194.599812 
L 397.893205 -181.27889 
L 394.584905 -176.894836 
L 391.276604 -176.113695 
L 387.968304 -175.922349 
L 384.660004 -173.89997 
L 381.351703 -167.785308 
L 378.043403 -165.533777 
L 374.735103 -164.595844 
L 371.426802 -164.343732 
L 368.118502 -163.644719 
L 364.810201 -162.848689 
L 361.501901 -162.433734 
L 358.193601 -161.485084 
L 354.8853 -161.186234 
L 351.577 -160.936501 
L 348.268699 -160.731021 
L 344.960399 -158.627851 
L 341.652099 -158.489702 
L 338.343798 -158.337764 
L 335.035498 -157.493148 
L 331.727197 -156.244437 
L 328.418897 -156.2392 
L 325.110597 -155.678551 
L 321.802296 -155.667257 
L 318.493996 -155.546576 
L 315.185695 -155.2775 
L 311.877395 -154.986743 
L 308.569095 -154.724874 
L 305.260794 -154.534619 
L 301.952494 -154.17429 
L 298.644193 -154.09519 
L 295.335893 -153.777098 
L 292.027593 -153.299908 
L 288.719292 -153.248445 
L 285.410992 -153.190809 
L 282.102691 -153.176699 
L 278.794391 -153.155224 
L 275.486091 -153.154255 
L 272.17779 -153.107765 
L 268.86949 -153.059332 
L 265.561189 -153.044739 
L 262.252889 -153.043717 
L 258.944589 -153.023489 
L 255.636288 -152.976674 
L 252.327988 -152.966827 
L 249.019688 -152.948602 
L 245.711387 -152.938837 
L 242.403087 -152.928063 
L 239.094786 -152.923446 
L 235.786486 -152.922619 
L 232.478186 -152.922404 
L 229.169885 -152.906008 
L 225.861585 -152.905928 
L 222.553284 -152.903656 
L 219.244984 -152.902888 
L 215.936684 -152.899145 
L 212.628383 -152.893766 
L 209.320083 -152.882815 
L 206.011782 -152.866498 
L 202.703482 -152.851361 
L 199.395182 -152.849394 
L 196.086881 -152.84064 
L 192.778581 -152.839319 
L 189.47028 -152.838739 
L 186.16198 -152.83409 
L 182.85368 -152.83335 
L 179.545379 -152.831633 
L 176.237079 -152.828556 
L 172.928778 -152.801346 
L 169.620478 -152.791783 
L 166.312178 -152.787886 
L 163.003877 -152.743428 
L 159.695577 -152.708287 
L 156.387276 -152.427322 
L 153.078976 -152.239849 
L 149.770676 -151.7876 
L 146.462375 -151.732069 
L 143.154075 -151.674798 
L 139.845774 -150.677685 
L 136.537474 -150.001833 
L 133.229174 -148.986368 
L 129.920873 -148.960569 
L 126.612573 -147.488789 
L 123.304272 -147.355709 
L 119.995972 -146.573104 
L 116.687672 -145.820011 
L 113.379371 -144.965048 
L 110.071071 -143.870349 
L 106.762771 -137.487766 
L 103.45447 -137.17542 
L 100.14617 -135.295595 
L 96.837869 -125.426897 
z
" id="m059211a3d8" style="stroke:#f14432;stroke-opacity:0.8;"/>
    </defs>
    <g clip-path="url(#p184738bc3e)">
     <use style="fill:#f14432;fill-opacity:0.8;stroke:#f14432;stroke-opacity:0.8;" x="0" xlink:href="#m059211a3d8" y="359.304903"/>
    </g>
   </g>
   <g id="matplotlib.axis_1"/>
   <g id="matplotlib.axis_2">
    <g id="ytick_1">
     <g id="line2d_1">
      <defs>
       <path d="M 0 0 
L -3.5 0 
" id="m9639f7bbb5" style="stroke:#000000;stroke-width:0.8;"/>
      </defs>
      <g>
       <use style="stroke:#000000;stroke-width:0.8;" x="81.619687" xlink:href="#m9639f7bbb5" y="339.17131"/>
      </g>
     </g>
     <g id="text_1">
      <!-- −0.15 -->
      <defs>
       <path d="M 10.59375 35.5 
L 73.1875 35.5 
L 73.1875 27.203125 
L 10.59375 27.203125 
z
" id="DejaVuSans-2212"/>
       <path d="M 31.78125 66.40625 
Q 24.171875 66.40625 20.328125 58.90625 
Q 16.5 51.421875 16.5 36.375 
Q 16.5 21.390625 20.328125 13.890625 
Q 24.171875 6.390625 31.78125 6.390625 
Q 39.453125 6.390625 43.28125 13.890625 
Q 47.125 21.390625 47.125 36.375 
Q 47.125 51.421875 43.28125 58.90625 
Q 39.453125 66.40625 31.78125 66.40625 
z
M 31.78125 74.21875 
Q 44.046875 74.21875 50.515625 64.515625 
Q 56.984375 54.828125 56.984375 36.375 
Q 56.984375 17.96875 50.515625 8.265625 
Q 44.046875 -1.421875 31.78125 -1.421875 
Q 19.53125 -1.421875 13.0625 8.265625 
Q 6.59375 17.96875 6.59375 36.375 
Q 6.59375 54.828125 13.0625 64.515625 
Q 19.53125 74.21875 31.78125 74.21875 
z
" id="DejaVuSans-30"/>
       <path d="M 10.6875 12.40625 
L 21 12.40625 
L 21 0 
L 10.6875 0 
z
" id="DejaVuSans-2e"/>
       <path d="M 12.40625 8.296875 
L 28.515625 8.296875 
L 28.515625 63.921875 
L 10.984375 60.40625 
L 10.984375 69.390625 
L 28.421875 72.90625 
L 38.28125 72.90625 
L 38.28125 8.296875 
L 54.390625 8.296875 
L 54.390625 0 
L 12.40625 0 
z
" id="DejaVuSans-31"/>
       <path d="M 10.796875 72.90625 
L 49.515625 72.90625 
L 49.515625 64.59375 
L 19.828125 64.59375 
L 19.828125 46.734375 
Q 21.96875 47.46875 24.109375 47.828125 
Q 26.265625 48.1875 28.421875 48.1875 
Q 40.625 48.1875 47.75 41.5 
Q 54.890625 34.8125 54.890625 23.390625 
Q 54.890625 11.625 47.5625 5.09375 
Q 40.234375 -1.421875 26.90625 -1.421875 
Q 22.3125 -1.421875 17.546875 -0.640625 
Q 12.796875 0.140625 7.71875 1.703125 
L 7.71875 11.625 
Q 12.109375 9.234375 16.796875 8.0625 
Q 21.484375 6.890625 26.703125 6.890625 
Q 35.15625 6.890625 40.078125 11.328125 
Q 45.015625 15.765625 45.015625 23.390625 
Q 45.015625 31 40.078125 35.4375 
Q 35.15625 39.890625 26.703125 39.890625 
Q 22.75 39.890625 18.8125 39.015625 
Q 14.890625 38.140625 10.796875 36.28125 
z
" id="DejaVuSans-35"/>
      </defs>
      <g transform="translate(7.2 347.529591)scale(0.22 -0.22)">
       <use xlink:href="#DejaVuSans-2212"/>
       <use x="83.789062" xlink:href="#DejaVuSans-30"/>
       <use x="147.412109" xlink:href="#DejaVuSans-2e"/>
       <use x="179.199219" xlink:href="#DejaVuSans-31"/>
       <use x="242.822266" xlink:href="#DejaVuSans-35"/>
      </g>
     </g>
    </g>
    <g id="ytick_2">
     <g id="line2d_2">
      <g>
       <use style="stroke:#000000;stroke-width:0.8;" x="81.619687" xlink:href="#m9639f7bbb5" y="294.913829"/>
      </g>
     </g>
     <g id="text_2">
      <!-- −0.10 -->
      <g transform="translate(7.2 303.272111)scale(0.22 -0.22)">
       <use xlink:href="#DejaVuSans-2212"/>
       <use x="83.789062" xlink:href="#DejaVuSans-30"/>
       <use x="147.412109" xlink:href="#DejaVuSans-2e"/>
       <use x="179.199219" xlink:href="#DejaVuSans-31"/>
       <use x="242.822266" xlink:href="#DejaVuSans-30"/>
      </g>
     </g>
    </g>
    <g id="ytick_3">
     <g id="line2d_3">
      <g>
       <use style="stroke:#000000;stroke-width:0.8;" x="81.619687" xlink:href="#m9639f7bbb5" y="250.656349"/>
      </g>
     </g>
     <g id="text_3">
      <!-- −0.05 -->
      <g transform="translate(7.2 259.01463)scale(0.22 -0.22)">
       <use xlink:href="#DejaVuSans-2212"/>
       <use x="83.789062" xlink:href="#DejaVuSans-30"/>
       <use x="147.412109" xlink:href="#DejaVuSans-2e"/>
       <use x="179.199219" xlink:href="#DejaVuSans-30"/>
       <use x="242.822266" xlink:href="#DejaVuSans-35"/>
      </g>
     </g>
    </g>
    <g id="ytick_4">
     <g id="line2d_4">
      <g>
       <use style="stroke:#000000;stroke-width:0.8;" x="81.619687" xlink:href="#m9639f7bbb5" y="206.398869"/>
      </g>
     </g>
     <g id="text_4">
      <!-- 0.00 -->
      <g transform="translate(25.635312 214.75715)scale(0.22 -0.22)">
       <use xlink:href="#DejaVuSans-30"/>
       <use x="63.623047" xlink:href="#DejaVuSans-2e"/>
       <use x="95.410156" xlink:href="#DejaVuSans-30"/>
       <use x="159.033203" xlink:href="#DejaVuSans-30"/>
      </g>
     </g>
    </g>
    <g id="ytick_5">
     <g id="line2d_5">
      <g>
       <use style="stroke:#000000;stroke-width:0.8;" x="81.619687" xlink:href="#m9639f7bbb5" y="162.141388"/>
      </g>
     </g>
     <g id="text_5">
      <!-- 0.05 -->
      <g transform="translate(25.635312 170.49967)scale(0.22 -0.22)">
       <use xlink:href="#DejaVuSans-30"/>
       <use x="63.623047" xlink:href="#DejaVuSans-2e"/>
       <use x="95.410156" xlink:href="#DejaVuSans-30"/>
       <use x="159.033203" xlink:href="#DejaVuSans-35"/>
      </g>
     </g>
    </g>
    <g id="ytick_6">
     <g id="line2d_6">
      <g>
       <use style="stroke:#000000;stroke-width:0.8;" x="81.619687" xlink:href="#m9639f7bbb5" y="117.883908"/>
      </g>
     </g>
     <g id="text_6">
      <!-- 0.10 -->
      <g transform="translate(25.635312 126.242189)scale(0.22 -0.22)">
       <use xlink:href="#DejaVuSans-30"/>
       <use x="63.623047" xlink:href="#DejaVuSans-2e"/>
       <use x="95.410156" xlink:href="#DejaVuSans-31"/>
       <use x="159.033203" xlink:href="#DejaVuSans-30"/>
      </g>
     </g>
    </g>
    <g id="ytick_7">
     <g id="line2d_7">
      <g>
       <use style="stroke:#000000;stroke-width:0.8;" x="81.619687" xlink:href="#m9639f7bbb5" y="73.626428"/>
      </g>
     </g>
     <g id="text_7">
      <!-- 0.15 -->
      <g transform="translate(25.635312 81.984709)scale(0.22 -0.22)">
       <use xlink:href="#DejaVuSans-30"/>
       <use x="63.623047" xlink:href="#DejaVuSans-2e"/>
       <use x="95.410156" xlink:href="#DejaVuSans-31"/>
       <use x="159.033203" xlink:href="#DejaVuSans-35"/>
      </g>
     </g>
    </g>
    <g id="ytick_8">
     <g id="line2d_8">
      <g>
       <use style="stroke:#000000;stroke-width:0.8;" x="81.619687" xlink:href="#m9639f7bbb5" y="29.368947"/>
      </g>
     </g>
     <g id="text_8">
      <!-- 0.20 -->
      <defs>
       <path d="M 19.1875 8.296875 
L 53.609375 8.296875 
L 53.609375 0 
L 7.328125 0 
L 7.328125 8.296875 
Q 12.9375 14.109375 22.625 23.890625 
Q 32.328125 33.6875 34.8125 36.53125 
Q 39.546875 41.84375 41.421875 45.53125 
Q 43.3125 49.21875 43.3125 52.78125 
Q 43.3125 58.59375 39.234375 62.25 
Q 35.15625 65.921875 28.609375 65.921875 
Q 23.96875 65.921875 18.8125 64.3125 
Q 13.671875 62.703125 7.8125 59.421875 
L 7.8125 69.390625 
Q 13.765625 71.78125 18.9375 73 
Q 24.125 74.21875 28.421875 74.21875 
Q 39.75 74.21875 46.484375 68.546875 
Q 53.21875 62.890625 53.21875 53.421875 
Q 53.21875 48.921875 51.53125 44.890625 
Q 49.859375 40.875 45.40625 35.40625 
Q 44.1875 33.984375 37.640625 27.21875 
Q 31.109375 20.453125 19.1875 8.296875 
z
" id="DejaVuSans-32"/>
      </defs>
      <g transform="translate(25.635312 37.727229)scale(0.22 -0.22)">
       <use xlink:href="#DejaVuSans-30"/>
       <use x="63.623047" xlink:href="#DejaVuSans-2e"/>
       <use x="95.410156" xlink:href="#DejaVuSans-32"/>
       <use x="159.033203" xlink:href="#DejaVuSans-30"/>
      </g>
     </g>
    </g>
   </g>
   <g id="patch_3">
    <path d="M 81.619687 343.34 
L 81.619687 10.7 
" style="fill:none;stroke:#000000;stroke-linecap:square;stroke-linejoin:miter;stroke-width:0.8;"/>
   </g>
   <g id="patch_4">
    <path d="M 416.419688 343.34 
L 416.419688 10.7 
" style="fill:none;stroke:#000000;stroke-linecap:square;stroke-linejoin:miter;stroke-width:0.8;"/>
   </g>
   <g id="patch_5">
    <path d="M 81.619687 343.34 
L 416.419688 343.34 
" style="fill:none;stroke:#000000;stroke-linecap:square;stroke-linejoin:miter;stroke-width:0.8;"/>
   </g>
   <g id="patch_6">
    <path d="M 81.619687 10.7 
L 416.419688 10.7 
" style="fill:none;stroke:#000000;stroke-linecap:square;stroke-linejoin:miter;stroke-width:0.8;"/>
   </g>
  </g>
 </g>
 <defs>
  <clipPath id="p184738bc3e">
   <rect height="332.64" width="334.8" x="81.619687" y="10.7"/>
  </clipPath>
 </defs>
</svg>
