<?xml version="1.0" encoding="utf-8" standalone="no"?>
<!DOCTYPE svg PUBLIC "-//W3C//DTD SVG 1.1//EN"
  "http://www.w3.org/Graphics/SVG/1.1/DTD/svg11.dtd">
<!-- Created with matplotlib (http://matplotlib.org/) -->
<svg height="361pt" version="1.1" viewBox="0 0 439 361" width="439pt" xmlns="http://www.w3.org/2000/svg" xmlns:xlink="http://www.w3.org/1999/xlink">
 <defs>
  <style type="text/css">
*{stroke-linecap:butt;stroke-linejoin:round;}
  </style>
 </defs>
 <g id="figure_1">
  <g id="patch_1">
   <path d="M -0 361.099263 
L 439.17183 361.099263 
L 439.17183 0 
L -0 0 
z
" style="fill:#ffffff;"/>
  </g>
  <g id="axes_1">
   <g id="patch_2">
    <path d="M 109.614688 343.34 
L 428.47183 343.34 
L 428.47183 10.7 
L 109.614688 10.7 
z
" style="fill:#ffffff;"/>
   </g>
   <g id="matplotlib.axis_1"/>
   <g id="matplotlib.axis_2">
    <g id="ytick_1">
     <g id="line2d_1">
      <defs>
       <path d="M 0 0 
L -3.5 0 
" id="m0bd085b296" style="stroke:#000000;stroke-width:0.8;"/>
      </defs>
      <g>
       <use style="stroke:#000000;stroke-width:0.8;" x="109.614688" xlink:href="#m0bd085b296" y="340.965669"/>
      </g>
     </g>
     <g id="text_1">
      <!-- −0.0020 -->
      <defs>
       <path d="M 10.59375 35.5 
L 73.1875 35.5 
L 73.1875 27.203125 
L 10.59375 27.203125 
z
" id="DejaVuSans-2212"/>
       <path d="M 31.78125 66.40625 
Q 24.171875 66.40625 20.328125 58.90625 
Q 16.5 51.421875 16.5 36.375 
Q 16.5 21.390625 20.328125 13.890625 
Q 24.171875 6.390625 31.78125 6.390625 
Q 39.453125 6.390625 43.28125 13.890625 
Q 47.125 21.390625 47.125 36.375 
Q 47.125 51.421875 43.28125 58.90625 
Q 39.453125 66.40625 31.78125 66.40625 
z
M 31.78125 74.21875 
Q 44.046875 74.21875 50.515625 64.515625 
Q 56.984375 54.828125 56.984375 36.375 
Q 56.984375 17.96875 50.515625 8.265625 
Q 44.046875 -1.421875 31.78125 -1.421875 
Q 19.53125 -1.421875 13.0625 8.265625 
Q 6.59375 17.96875 6.59375 36.375 
Q 6.59375 54.828125 13.0625 64.515625 
Q 19.53125 74.21875 31.78125 74.21875 
z
" id="DejaVuSans-30"/>
       <path d="M 10.6875 12.40625 
L 21 12.40625 
L 21 0 
L 10.6875 0 
z
" id="DejaVuSans-2e"/>
       <path d="M 19.1875 8.296875 
L 53.609375 8.296875 
L 53.609375 0 
L 7.328125 0 
L 7.328125 8.296875 
Q 12.9375 14.109375 22.625 23.890625 
Q 32.328125 33.6875 34.8125 36.53125 
Q 39.546875 41.84375 41.421875 45.53125 
Q 43.3125 49.21875 43.3125 52.78125 
Q 43.3125 58.59375 39.234375 62.25 
Q 35.15625 65.921875 28.609375 65.921875 
Q 23.96875 65.921875 18.8125 64.3125 
Q 13.671875 62.703125 7.8125 59.421875 
L 7.8125 69.390625 
Q 13.765625 71.78125 18.9375 73 
Q 24.125 74.21875 28.421875 74.21875 
Q 39.75 74.21875 46.484375 68.546875 
Q 53.21875 62.890625 53.21875 53.421875 
Q 53.21875 48.921875 51.53125 44.890625 
Q 49.859375 40.875 45.40625 35.40625 
Q 44.1875 33.984375 37.640625 27.21875 
Q 31.109375 20.453125 19.1875 8.296875 
z
" id="DejaVuSans-32"/>
      </defs>
      <g transform="translate(7.2 349.32395)scale(0.22 -0.22)">
       <use xlink:href="#DejaVuSans-2212"/>
       <use x="83.789062" xlink:href="#DejaVuSans-30"/>
       <use x="147.412109" xlink:href="#DejaVuSans-2e"/>
       <use x="179.199219" xlink:href="#DejaVuSans-30"/>
       <use x="242.822266" xlink:href="#DejaVuSans-30"/>
       <use x="306.445312" xlink:href="#DejaVuSans-32"/>
       <use x="370.068359" xlink:href="#DejaVuSans-30"/>
      </g>
     </g>
    </g>
    <g id="ytick_2">
     <g id="line2d_2">
      <g>
       <use style="stroke:#000000;stroke-width:0.8;" x="109.614688" xlink:href="#m0bd085b296" y="294.687453"/>
      </g>
     </g>
     <g id="text_2">
      <!-- −0.0015 -->
      <defs>
       <path d="M 12.40625 8.296875 
L 28.515625 8.296875 
L 28.515625 63.921875 
L 10.984375 60.40625 
L 10.984375 69.390625 
L 28.421875 72.90625 
L 38.28125 72.90625 
L 38.28125 8.296875 
L 54.390625 8.296875 
L 54.390625 0 
L 12.40625 0 
z
" id="DejaVuSans-31"/>
       <path d="M 10.796875 72.90625 
L 49.515625 72.90625 
L 49.515625 64.59375 
L 19.828125 64.59375 
L 19.828125 46.734375 
Q 21.96875 47.46875 24.109375 47.828125 
Q 26.265625 48.1875 28.421875 48.1875 
Q 40.625 48.1875 47.75 41.5 
Q 54.890625 34.8125 54.890625 23.390625 
Q 54.890625 11.625 47.5625 5.09375 
Q 40.234375 -1.421875 26.90625 -1.421875 
Q 22.3125 -1.421875 17.546875 -0.640625 
Q 12.796875 0.140625 7.71875 1.703125 
L 7.71875 11.625 
Q 12.109375 9.234375 16.796875 8.0625 
Q 21.484375 6.890625 26.703125 6.890625 
Q 35.15625 6.890625 40.078125 11.328125 
Q 45.015625 15.765625 45.015625 23.390625 
Q 45.015625 31 40.078125 35.4375 
Q 35.15625 39.890625 26.703125 39.890625 
Q 22.75 39.890625 18.8125 39.015625 
Q 14.890625 38.140625 10.796875 36.28125 
z
" id="DejaVuSans-35"/>
      </defs>
      <g transform="translate(7.2 303.045734)scale(0.22 -0.22)">
       <use xlink:href="#DejaVuSans-2212"/>
       <use x="83.789062" xlink:href="#DejaVuSans-30"/>
       <use x="147.412109" xlink:href="#DejaVuSans-2e"/>
       <use x="179.199219" xlink:href="#DejaVuSans-30"/>
       <use x="242.822266" xlink:href="#DejaVuSans-30"/>
       <use x="306.445312" xlink:href="#DejaVuSans-31"/>
       <use x="370.068359" xlink:href="#DejaVuSans-35"/>
      </g>
     </g>
    </g>
    <g id="ytick_3">
     <g id="line2d_3">
      <g>
       <use style="stroke:#000000;stroke-width:0.8;" x="109.614688" xlink:href="#m0bd085b296" y="248.409237"/>
      </g>
     </g>
     <g id="text_3">
      <!-- −0.0010 -->
      <g transform="translate(7.2 256.767518)scale(0.22 -0.22)">
       <use xlink:href="#DejaVuSans-2212"/>
       <use x="83.789062" xlink:href="#DejaVuSans-30"/>
       <use x="147.412109" xlink:href="#DejaVuSans-2e"/>
       <use x="179.199219" xlink:href="#DejaVuSans-30"/>
       <use x="242.822266" xlink:href="#DejaVuSans-30"/>
       <use x="306.445312" xlink:href="#DejaVuSans-31"/>
       <use x="370.068359" xlink:href="#DejaVuSans-30"/>
      </g>
     </g>
    </g>
    <g id="ytick_4">
     <g id="line2d_4">
      <g>
       <use style="stroke:#000000;stroke-width:0.8;" x="109.614688" xlink:href="#m0bd085b296" y="202.131021"/>
      </g>
     </g>
     <g id="text_4">
      <!-- −0.0005 -->
      <g transform="translate(7.2 210.489302)scale(0.22 -0.22)">
       <use xlink:href="#DejaVuSans-2212"/>
       <use x="83.789062" xlink:href="#DejaVuSans-30"/>
       <use x="147.412109" xlink:href="#DejaVuSans-2e"/>
       <use x="179.199219" xlink:href="#DejaVuSans-30"/>
       <use x="242.822266" xlink:href="#DejaVuSans-30"/>
       <use x="306.445312" xlink:href="#DejaVuSans-30"/>
       <use x="370.068359" xlink:href="#DejaVuSans-35"/>
      </g>
     </g>
    </g>
    <g id="ytick_5">
     <g id="line2d_5">
      <g>
       <use style="stroke:#000000;stroke-width:0.8;" x="109.614688" xlink:href="#m0bd085b296" y="155.852805"/>
      </g>
     </g>
     <g id="text_5">
      <!-- 0.0000 -->
      <g transform="translate(25.635312 164.211086)scale(0.22 -0.22)">
       <use xlink:href="#DejaVuSans-30"/>
       <use x="63.623047" xlink:href="#DejaVuSans-2e"/>
       <use x="95.410156" xlink:href="#DejaVuSans-30"/>
       <use x="159.033203" xlink:href="#DejaVuSans-30"/>
       <use x="222.65625" xlink:href="#DejaVuSans-30"/>
       <use x="286.279297" xlink:href="#DejaVuSans-30"/>
      </g>
     </g>
    </g>
    <g id="ytick_6">
     <g id="line2d_6">
      <g>
       <use style="stroke:#000000;stroke-width:0.8;" x="109.614688" xlink:href="#m0bd085b296" y="109.574589"/>
      </g>
     </g>
     <g id="text_6">
      <!-- 0.0005 -->
      <g transform="translate(25.635312 117.93287)scale(0.22 -0.22)">
       <use xlink:href="#DejaVuSans-30"/>
       <use x="63.623047" xlink:href="#DejaVuSans-2e"/>
       <use x="95.410156" xlink:href="#DejaVuSans-30"/>
       <use x="159.033203" xlink:href="#DejaVuSans-30"/>
       <use x="222.65625" xlink:href="#DejaVuSans-30"/>
       <use x="286.279297" xlink:href="#DejaVuSans-35"/>
      </g>
     </g>
    </g>
    <g id="ytick_7">
     <g id="line2d_7">
      <g>
       <use style="stroke:#000000;stroke-width:0.8;" x="109.614688" xlink:href="#m0bd085b296" y="63.296373"/>
      </g>
     </g>
     <g id="text_7">
      <!-- 0.0010 -->
      <g transform="translate(25.635312 71.654654)scale(0.22 -0.22)">
       <use xlink:href="#DejaVuSans-30"/>
       <use x="63.623047" xlink:href="#DejaVuSans-2e"/>
       <use x="95.410156" xlink:href="#DejaVuSans-30"/>
       <use x="159.033203" xlink:href="#DejaVuSans-30"/>
       <use x="222.65625" xlink:href="#DejaVuSans-31"/>
       <use x="286.279297" xlink:href="#DejaVuSans-30"/>
      </g>
     </g>
    </g>
    <g id="ytick_8">
     <g id="line2d_8">
      <g>
       <use style="stroke:#000000;stroke-width:0.8;" x="109.614688" xlink:href="#m0bd085b296" y="17.018156"/>
      </g>
     </g>
     <g id="text_8">
      <!-- 0.0015 -->
      <g transform="translate(25.635312 25.376438)scale(0.22 -0.22)">
       <use xlink:href="#DejaVuSans-30"/>
       <use x="63.623047" xlink:href="#DejaVuSans-2e"/>
       <use x="95.410156" xlink:href="#DejaVuSans-30"/>
       <use x="159.033203" xlink:href="#DejaVuSans-30"/>
       <use x="222.65625" xlink:href="#DejaVuSans-31"/>
       <use x="286.279297" xlink:href="#DejaVuSans-35"/>
      </g>
     </g>
    </g>
   </g>
   <g id="patch_3">
    <path clip-path="url(#p48b07b5ee8)" d="M 124.108194 155.852805 
L 138.6017 155.852805 
L 138.6017 147.053773 
L 124.108194 147.053773 
z
" style="fill:#d92523;"/>
   </g>
   <g id="patch_4">
    <path clip-path="url(#p48b07b5ee8)" d="M 138.6017 155.852805 
L 153.095207 155.852805 
L 153.095207 244.503267 
L 138.6017 244.503267 
z
" style="fill:#d92523;"/>
   </g>
   <g id="patch_5">
    <path clip-path="url(#p48b07b5ee8)" d="M 153.095207 155.852805 
L 167.588713 155.852805 
L 167.588713 164.526729 
L 153.095207 164.526729 
z
" style="fill:#d92523;"/>
   </g>
   <g id="patch_6">
    <path clip-path="url(#p48b07b5ee8)" d="M 167.588713 155.852805 
L 182.08222 155.852805 
L 182.08222 164.296081 
L 167.588713 164.296081 
z
" style="fill:#d92523;"/>
   </g>
   <g id="patch_7">
    <path clip-path="url(#p48b07b5ee8)" d="M 182.08222 155.852805 
L 196.575726 155.852805 
L 196.575726 161.410064 
L 182.08222 161.410064 
z
" style="fill:#d92523;"/>
   </g>
   <g id="patch_8">
    <path clip-path="url(#p48b07b5ee8)" d="M 196.575726 155.852805 
L 211.069233 155.852805 
L 211.069233 66.745437 
L 196.575726 66.745437 
z
" style="fill:#d92523;"/>
   </g>
   <g id="patch_9">
    <path clip-path="url(#p48b07b5ee8)" d="M 211.069233 155.852805 
L 225.562739 155.852805 
L 225.562739 25.82 
L 211.069233 25.82 
z
" style="fill:#d92523;"/>
   </g>
   <g id="patch_10">
    <path clip-path="url(#p48b07b5ee8)" d="M 225.562739 155.852805 
L 240.056246 155.852805 
L 240.056246 168.42687 
L 225.562739 168.42687 
z
" style="fill:#d92523;"/>
   </g>
   <g id="patch_11">
    <path clip-path="url(#p48b07b5ee8)" d="M 240.056246 155.852805 
L 254.549752 155.852805 
L 254.549752 143.479583 
L 240.056246 143.479583 
z
" style="fill:#d92523;"/>
   </g>
   <g id="patch_12">
    <path clip-path="url(#p48b07b5ee8)" d="M 254.549752 155.852805 
L 269.043259 155.852805 
L 269.043259 174.550359 
L 254.549752 174.550359 
z
" style="fill:#d92523;"/>
   </g>
   <g id="patch_13">
    <path clip-path="url(#p48b07b5ee8)" d="M 269.043259 155.852805 
L 283.536765 155.852805 
L 283.536765 103.337726 
L 269.043259 103.337726 
z
" style="fill:#d92523;"/>
   </g>
   <g id="patch_14">
    <path clip-path="url(#p48b07b5ee8)" d="M 283.536765 155.852805 
L 298.030272 155.852805 
L 298.030272 117.27583 
L 283.536765 117.27583 
z
" style="fill:#d92523;"/>
   </g>
   <g id="patch_15">
    <path clip-path="url(#p48b07b5ee8)" d="M 298.030272 155.852805 
L 312.523778 155.852805 
L 312.523778 155.35643 
L 298.030272 155.35643 
z
" style="fill:#d92523;"/>
   </g>
   <g id="patch_16">
    <path clip-path="url(#p48b07b5ee8)" d="M 312.523778 155.852805 
L 327.017285 155.852805 
L 327.017285 96.639287 
L 312.523778 96.639287 
z
" style="fill:#d92523;"/>
   </g>
   <g id="patch_17">
    <path clip-path="url(#p48b07b5ee8)" d="M 327.017285 155.852805 
L 341.510791 155.852805 
L 341.510791 180.551291 
L 327.017285 180.551291 
z
" style="fill:#d92523;"/>
   </g>
   <g id="patch_18">
    <path clip-path="url(#p48b07b5ee8)" d="M 341.510791 155.852805 
L 356.004298 155.852805 
L 356.004298 155.510617 
L 341.510791 155.510617 
z
" style="fill:#d92523;"/>
   </g>
   <g id="patch_19">
    <path clip-path="url(#p48b07b5ee8)" d="M 356.004298 155.852805 
L 370.497804 155.852805 
L 370.497804 145.283761 
L 356.004298 145.283761 
z
" style="fill:#d92523;"/>
   </g>
   <g id="patch_20">
    <path clip-path="url(#p48b07b5ee8)" d="M 370.497804 155.852805 
L 384.991311 155.852805 
L 384.991311 147.072594 
L 370.497804 147.072594 
z
" style="fill:#d92523;"/>
   </g>
   <g id="patch_21">
    <path clip-path="url(#p48b07b5ee8)" d="M 384.991311 155.852805 
L 399.484817 155.852805 
L 399.484817 176.467127 
L 384.991311 176.467127 
z
" style="fill:#d92523;"/>
   </g>
   <g id="patch_22">
    <path clip-path="url(#p48b07b5ee8)" d="M 399.484817 155.852805 
L 413.978324 155.852805 
L 413.978324 145.465312 
L 399.484817 145.465312 
z
" style="fill:#d92523;"/>
   </g>
   <g id="patch_23">
    <path clip-path="url(#p48b07b5ee8)" d="M 124.108194 155.852805 
L 138.6017 155.852805 
L 138.6017 158.768841 
L 124.108194 158.768841 
z
" style="fill:#2e7ebc;"/>
   </g>
   <g id="patch_24">
    <path clip-path="url(#p48b07b5ee8)" d="M 138.6017 155.852805 
L 153.095207 155.852805 
L 153.095207 55.782566 
L 138.6017 55.782566 
z
" style="fill:#2e7ebc;"/>
   </g>
   <g id="patch_25">
    <path clip-path="url(#p48b07b5ee8)" d="M 153.095207 155.852805 
L 167.588713 155.852805 
L 167.588713 153.575495 
L 153.095207 153.575495 
z
" style="fill:#2e7ebc;"/>
   </g>
   <g id="patch_26">
    <path clip-path="url(#p48b07b5ee8)" d="M 167.588713 155.852805 
L 182.08222 155.852805 
L 182.08222 161.617977 
L 167.588713 161.617977 
z
" style="fill:#2e7ebc;"/>
   </g>
   <g id="patch_27">
    <path clip-path="url(#p48b07b5ee8)" d="M 182.08222 155.852805 
L 196.575726 155.852805 
L 196.575726 138.119567 
L 182.08222 138.119567 
z
" style="fill:#2e7ebc;"/>
   </g>
   <g id="patch_28">
    <path clip-path="url(#p48b07b5ee8)" d="M 196.575726 155.852805 
L 211.069233 155.852805 
L 211.069233 270.899149 
L 196.575726 270.899149 
z
" style="fill:#2e7ebc;"/>
   </g>
   <g id="patch_29">
    <path clip-path="url(#p48b07b5ee8)" d="M 211.069233 155.852805 
L 225.562739 155.852805 
L 225.562739 328.22 
L 211.069233 328.22 
z
" style="fill:#2e7ebc;"/>
   </g>
   <g id="patch_30">
    <path clip-path="url(#p48b07b5ee8)" d="M 225.562739 155.852805 
L 240.056246 155.852805 
L 240.056246 119.283767 
L 225.562739 119.283767 
z
" style="fill:#2e7ebc;"/>
   </g>
   <g id="patch_31">
    <path clip-path="url(#p48b07b5ee8)" d="M 240.056246 155.852805 
L 254.549752 155.852805 
L 254.549752 164.116703 
L 240.056246 164.116703 
z
" style="fill:#2e7ebc;"/>
   </g>
   <g id="patch_32">
    <path clip-path="url(#p48b07b5ee8)" d="M 254.549752 155.852805 
L 269.043259 155.852805 
L 269.043259 163.848953 
L 254.549752 163.848953 
z
" style="fill:#2e7ebc;"/>
   </g>
   <g id="patch_33">
    <path clip-path="url(#p48b07b5ee8)" d="M 269.043259 155.852805 
L 283.536765 155.852805 
L 283.536765 319.173608 
L 269.043259 319.173608 
z
" style="fill:#2e7ebc;"/>
   </g>
   <g id="patch_34">
    <path clip-path="url(#p48b07b5ee8)" d="M 283.536765 155.852805 
L 298.030272 155.852805 
L 298.030272 263.503979 
L 283.536765 263.503979 
z
" style="fill:#2e7ebc;"/>
   </g>
   <g id="patch_35">
    <path clip-path="url(#p48b07b5ee8)" d="M 298.030272 155.852805 
L 312.523778 155.852805 
L 312.523778 156.030639 
L 298.030272 156.030639 
z
" style="fill:#2e7ebc;"/>
   </g>
   <g id="patch_36">
    <path clip-path="url(#p48b07b5ee8)" d="M 312.523778 155.852805 
L 327.017285 155.852805 
L 327.017285 249.441599 
L 312.523778 249.441599 
z
" style="fill:#2e7ebc;"/>
   </g>
   <g id="patch_37">
    <path clip-path="url(#p48b07b5ee8)" d="M 327.017285 155.852805 
L 341.510791 155.852805 
L 341.510791 154.036988 
L 327.017285 154.036988 
z
" style="fill:#2e7ebc;"/>
   </g>
   <g id="patch_38">
    <path clip-path="url(#p48b07b5ee8)" d="M 341.510791 155.852805 
L 356.004298 155.852805 
L 356.004298 154.115847 
L 341.510791 154.115847 
z
" style="fill:#2e7ebc;"/>
   </g>
   <g id="patch_39">
    <path clip-path="url(#p48b07b5ee8)" d="M 356.004298 155.852805 
L 370.497804 155.852805 
L 370.497804 157.590822 
L 356.004298 157.590822 
z
" style="fill:#2e7ebc;"/>
   </g>
   <g id="patch_40">
    <path clip-path="url(#p48b07b5ee8)" d="M 370.497804 155.852805 
L 384.991311 155.852805 
L 384.991311 109.478561 
L 370.497804 109.478561 
z
" style="fill:#2e7ebc;"/>
   </g>
   <g id="patch_41">
    <path clip-path="url(#p48b07b5ee8)" d="M 384.991311 155.852805 
L 399.484817 155.852805 
L 399.484817 113.6183 
L 384.991311 113.6183 
z
" style="fill:#2e7ebc;"/>
   </g>
   <g id="patch_42">
    <path clip-path="url(#p48b07b5ee8)" d="M 399.484817 155.852805 
L 413.978324 155.852805 
L 413.978324 151.12408 
L 399.484817 151.12408 
z
" style="fill:#2e7ebc;"/>
   </g>
   <g id="patch_43">
    <path d="M 109.614688 343.34 
L 109.614688 10.7 
" style="fill:none;stroke:#000000;stroke-linecap:square;stroke-linejoin:miter;stroke-width:0.8;"/>
   </g>
   <g id="patch_44">
    <path d="M 428.47183 343.34 
L 428.47183 10.7 
" style="fill:none;stroke:#000000;stroke-linecap:square;stroke-linejoin:miter;stroke-width:0.8;"/>
   </g>
   <g id="patch_45">
    <path d="M 109.614688 343.34 
L 428.47183 343.34 
" style="fill:none;stroke:#000000;stroke-linecap:square;stroke-linejoin:miter;stroke-width:0.8;"/>
   </g>
   <g id="patch_46">
    <path d="M 109.614688 10.7 
L 428.47183 10.7 
" style="fill:none;stroke:#000000;stroke-linecap:square;stroke-linejoin:miter;stroke-width:0.8;"/>
   </g>
   <g id="patch_47">
    <path clip-path="url(#p48b07b5ee8)" d="M 124.108194 155.852805 
L 138.6017 155.852805 
L 138.6017 155.852805 
L 124.108194 155.852805 
z
" style="fill:none;stroke:#000000;stroke-linejoin:miter;"/>
   </g>
   <g id="patch_48">
    <path clip-path="url(#p48b07b5ee8)" d="M 138.6017 155.852805 
L 153.095207 155.852805 
L 153.095207 155.852805 
L 138.6017 155.852805 
z
" style="fill:none;stroke:#000000;stroke-linejoin:miter;"/>
   </g>
   <g id="patch_49">
    <path clip-path="url(#p48b07b5ee8)" d="M 153.095207 155.852805 
L 167.588713 155.852805 
L 167.588713 155.852805 
L 153.095207 155.852805 
z
" style="fill:none;stroke:#000000;stroke-linejoin:miter;"/>
   </g>
   <g id="patch_50">
    <path clip-path="url(#p48b07b5ee8)" d="M 167.588713 155.852805 
L 182.08222 155.852805 
L 182.08222 155.852805 
L 167.588713 155.852805 
z
" style="fill:none;stroke:#000000;stroke-linejoin:miter;"/>
   </g>
   <g id="patch_51">
    <path clip-path="url(#p48b07b5ee8)" d="M 182.08222 155.852805 
L 196.575726 155.852805 
L 196.575726 155.852805 
L 182.08222 155.852805 
z
" style="fill:none;stroke:#000000;stroke-linejoin:miter;"/>
   </g>
   <g id="patch_52">
    <path clip-path="url(#p48b07b5ee8)" d="M 196.575726 155.852805 
L 211.069233 155.852805 
L 211.069233 155.852805 
L 196.575726 155.852805 
z
" style="fill:none;stroke:#000000;stroke-linejoin:miter;"/>
   </g>
   <g id="patch_53">
    <path clip-path="url(#p48b07b5ee8)" d="M 211.069233 155.852805 
L 225.562739 155.852805 
L 225.562739 155.852805 
L 211.069233 155.852805 
z
" style="fill:none;stroke:#000000;stroke-linejoin:miter;"/>
   </g>
   <g id="patch_54">
    <path clip-path="url(#p48b07b5ee8)" d="M 225.562739 155.852805 
L 240.056246 155.852805 
L 240.056246 155.852805 
L 225.562739 155.852805 
z
" style="fill:none;stroke:#000000;stroke-linejoin:miter;"/>
   </g>
   <g id="patch_55">
    <path clip-path="url(#p48b07b5ee8)" d="M 240.056246 155.852805 
L 254.549752 155.852805 
L 254.549752 155.852805 
L 240.056246 155.852805 
z
" style="fill:none;stroke:#000000;stroke-linejoin:miter;"/>
   </g>
   <g id="patch_56">
    <path clip-path="url(#p48b07b5ee8)" d="M 254.549752 155.852805 
L 269.043259 155.852805 
L 269.043259 155.852805 
L 254.549752 155.852805 
z
" style="fill:none;stroke:#000000;stroke-linejoin:miter;"/>
   </g>
   <g id="patch_57">
    <path clip-path="url(#p48b07b5ee8)" d="M 269.043259 155.852805 
L 283.536765 155.852805 
L 283.536765 155.852805 
L 269.043259 155.852805 
z
" style="fill:none;stroke:#000000;stroke-linejoin:miter;"/>
   </g>
   <g id="patch_58">
    <path clip-path="url(#p48b07b5ee8)" d="M 283.536765 155.852805 
L 298.030272 155.852805 
L 298.030272 155.852805 
L 283.536765 155.852805 
z
" style="fill:none;stroke:#000000;stroke-linejoin:miter;"/>
   </g>
   <g id="patch_59">
    <path clip-path="url(#p48b07b5ee8)" d="M 298.030272 155.852805 
L 312.523778 155.852805 
L 312.523778 155.852805 
L 298.030272 155.852805 
z
" style="fill:none;stroke:#000000;stroke-linejoin:miter;"/>
   </g>
   <g id="patch_60">
    <path clip-path="url(#p48b07b5ee8)" d="M 312.523778 155.852805 
L 327.017285 155.852805 
L 327.017285 155.852805 
L 312.523778 155.852805 
z
" style="fill:none;stroke:#000000;stroke-linejoin:miter;"/>
   </g>
   <g id="patch_61">
    <path clip-path="url(#p48b07b5ee8)" d="M 327.017285 155.852805 
L 341.510791 155.852805 
L 341.510791 155.852805 
L 327.017285 155.852805 
z
" style="fill:none;stroke:#000000;stroke-linejoin:miter;"/>
   </g>
   <g id="patch_62">
    <path clip-path="url(#p48b07b5ee8)" d="M 341.510791 155.852805 
L 356.004298 155.852805 
L 356.004298 155.852805 
L 341.510791 155.852805 
z
" style="fill:none;stroke:#000000;stroke-linejoin:miter;"/>
   </g>
   <g id="patch_63">
    <path clip-path="url(#p48b07b5ee8)" d="M 356.004298 155.852805 
L 370.497804 155.852805 
L 370.497804 155.852805 
L 356.004298 155.852805 
z
" style="fill:none;stroke:#000000;stroke-linejoin:miter;"/>
   </g>
   <g id="patch_64">
    <path clip-path="url(#p48b07b5ee8)" d="M 370.497804 155.852805 
L 384.991311 155.852805 
L 384.991311 155.852805 
L 370.497804 155.852805 
z
" style="fill:none;stroke:#000000;stroke-linejoin:miter;"/>
   </g>
   <g id="patch_65">
    <path clip-path="url(#p48b07b5ee8)" d="M 384.991311 155.852805 
L 399.484817 155.852805 
L 399.484817 155.852805 
L 384.991311 155.852805 
z
" style="fill:none;stroke:#000000;stroke-linejoin:miter;"/>
   </g>
   <g id="patch_66">
    <path clip-path="url(#p48b07b5ee8)" d="M 399.484817 155.852805 
L 413.978324 155.852805 
L 413.978324 155.852805 
L 399.484817 155.852805 
z
" style="fill:none;stroke:#000000;stroke-linejoin:miter;"/>
   </g>
   <g id="patch_67">
    <path clip-path="url(#p48b07b5ee8)" d="M 124.108194 155.852805 
L 138.6017 155.852805 
L 138.6017 155.852805 
L 124.108194 155.852805 
z
" style="fill:none;stroke:#000000;stroke-linejoin:miter;"/>
   </g>
   <g id="patch_68">
    <path clip-path="url(#p48b07b5ee8)" d="M 138.6017 155.852805 
L 153.095207 155.852805 
L 153.095207 155.852805 
L 138.6017 155.852805 
z
" style="fill:none;stroke:#000000;stroke-linejoin:miter;"/>
   </g>
   <g id="patch_69">
    <path clip-path="url(#p48b07b5ee8)" d="M 153.095207 155.852805 
L 167.588713 155.852805 
L 167.588713 155.852805 
L 153.095207 155.852805 
z
" style="fill:none;stroke:#000000;stroke-linejoin:miter;"/>
   </g>
   <g id="patch_70">
    <path clip-path="url(#p48b07b5ee8)" d="M 167.588713 155.852805 
L 182.08222 155.852805 
L 182.08222 155.852805 
L 167.588713 155.852805 
z
" style="fill:none;stroke:#000000;stroke-linejoin:miter;"/>
   </g>
   <g id="patch_71">
    <path clip-path="url(#p48b07b5ee8)" d="M 182.08222 155.852805 
L 196.575726 155.852805 
L 196.575726 155.852805 
L 182.08222 155.852805 
z
" style="fill:none;stroke:#000000;stroke-linejoin:miter;"/>
   </g>
   <g id="patch_72">
    <path clip-path="url(#p48b07b5ee8)" d="M 196.575726 155.852805 
L 211.069233 155.852805 
L 211.069233 155.852805 
L 196.575726 155.852805 
z
" style="fill:none;stroke:#000000;stroke-linejoin:miter;"/>
   </g>
   <g id="patch_73">
    <path clip-path="url(#p48b07b5ee8)" d="M 211.069233 155.852805 
L 225.562739 155.852805 
L 225.562739 155.852805 
L 211.069233 155.852805 
z
" style="fill:none;stroke:#000000;stroke-linejoin:miter;"/>
   </g>
   <g id="patch_74">
    <path clip-path="url(#p48b07b5ee8)" d="M 225.562739 155.852805 
L 240.056246 155.852805 
L 240.056246 155.852805 
L 225.562739 155.852805 
z
" style="fill:none;stroke:#000000;stroke-linejoin:miter;"/>
   </g>
   <g id="patch_75">
    <path clip-path="url(#p48b07b5ee8)" d="M 240.056246 155.852805 
L 254.549752 155.852805 
L 254.549752 155.852805 
L 240.056246 155.852805 
z
" style="fill:none;stroke:#000000;stroke-linejoin:miter;"/>
   </g>
   <g id="patch_76">
    <path clip-path="url(#p48b07b5ee8)" d="M 254.549752 155.852805 
L 269.043259 155.852805 
L 269.043259 155.852805 
L 254.549752 155.852805 
z
" style="fill:none;stroke:#000000;stroke-linejoin:miter;"/>
   </g>
   <g id="patch_77">
    <path clip-path="url(#p48b07b5ee8)" d="M 269.043259 155.852805 
L 283.536765 155.852805 
L 283.536765 155.852805 
L 269.043259 155.852805 
z
" style="fill:none;stroke:#000000;stroke-linejoin:miter;"/>
   </g>
   <g id="patch_78">
    <path clip-path="url(#p48b07b5ee8)" d="M 283.536765 155.852805 
L 298.030272 155.852805 
L 298.030272 155.852805 
L 283.536765 155.852805 
z
" style="fill:none;stroke:#000000;stroke-linejoin:miter;"/>
   </g>
   <g id="patch_79">
    <path clip-path="url(#p48b07b5ee8)" d="M 298.030272 155.852805 
L 312.523778 155.852805 
L 312.523778 155.852805 
L 298.030272 155.852805 
z
" style="fill:none;stroke:#000000;stroke-linejoin:miter;"/>
   </g>
   <g id="patch_80">
    <path clip-path="url(#p48b07b5ee8)" d="M 312.523778 155.852805 
L 327.017285 155.852805 
L 327.017285 155.852805 
L 312.523778 155.852805 
z
" style="fill:none;stroke:#000000;stroke-linejoin:miter;"/>
   </g>
   <g id="patch_81">
    <path clip-path="url(#p48b07b5ee8)" d="M 327.017285 155.852805 
L 341.510791 155.852805 
L 341.510791 155.852805 
L 327.017285 155.852805 
z
" style="fill:none;stroke:#000000;stroke-linejoin:miter;"/>
   </g>
   <g id="patch_82">
    <path clip-path="url(#p48b07b5ee8)" d="M 341.510791 155.852805 
L 356.004298 155.852805 
L 356.004298 155.852805 
L 341.510791 155.852805 
z
" style="fill:none;stroke:#000000;stroke-linejoin:miter;"/>
   </g>
   <g id="patch_83">
    <path clip-path="url(#p48b07b5ee8)" d="M 356.004298 155.852805 
L 370.497804 155.852805 
L 370.497804 155.852805 
L 356.004298 155.852805 
z
" style="fill:none;stroke:#000000;stroke-linejoin:miter;"/>
   </g>
   <g id="patch_84">
    <path clip-path="url(#p48b07b5ee8)" d="M 370.497804 155.852805 
L 384.991311 155.852805 
L 384.991311 155.852805 
L 370.497804 155.852805 
z
" style="fill:none;stroke:#000000;stroke-linejoin:miter;"/>
   </g>
   <g id="patch_85">
    <path clip-path="url(#p48b07b5ee8)" d="M 384.991311 155.852805 
L 399.484817 155.852805 
L 399.484817 155.852805 
L 384.991311 155.852805 
z
" style="fill:none;stroke:#000000;stroke-linejoin:miter;"/>
   </g>
   <g id="patch_86">
    <path clip-path="url(#p48b07b5ee8)" d="M 399.484817 155.852805 
L 413.978324 155.852805 
L 413.978324 155.852805 
L 399.484817 155.852805 
z
" style="fill:none;stroke:#000000;stroke-linejoin:miter;"/>
   </g>
  </g>
 </g>
 <defs>
  <clipPath id="p48b07b5ee8">
   <rect height="332.64" width="318.857143" x="109.614688" y="10.7"/>
  </clipPath>
 </defs>
</svg>
