<?xml version="1.0" encoding="utf-8" standalone="no"?>
<!DOCTYPE svg PUBLIC "-//W3C//DTD SVG 1.1//EN"
  "http://www.w3.org/Graphics/SVG/1.1/DTD/svg11.dtd">
<!-- Created with matplotlib (http://matplotlib.org/) -->
<svg height="354pt" version="1.1" viewBox="0 0 455 354" width="455pt" xmlns="http://www.w3.org/2000/svg" xmlns:xlink="http://www.w3.org/1999/xlink">
 <defs>
  <style type="text/css">
*{stroke-linecap:butt;stroke-linejoin:round;}
  </style>
 </defs>
 <g id="figure_1">
  <g id="patch_1">
   <path d="M 0 354.04 
L 455.114687 354.04 
L 455.114687 0 
L 0 0 
z
" style="fill:#ffffff;"/>
  </g>
  <g id="axes_1">
   <g id="patch_2">
    <path d="M 109.614687 343.34 
L 444.414688 343.34 
L 444.414688 10.7 
L 109.614687 10.7 
z
" style="fill:#ffffff;"/>
   </g>
   <g id="PolyCollection_1">
    <defs>
     <path d="M 124.832869 -25.82 
L 124.832869 -137.042294 
L 128.14117 -137.042294 
L 131.44947 -137.042294 
L 134.757771 -137.042294 
L 138.066071 -137.042294 
L 141.374371 -137.042294 
L 144.682672 -137.042294 
L 147.990972 -137.042294 
L 151.299272 -137.042294 
L 154.607573 -137.042294 
L 157.915873 -137.042294 
L 161.224174 -137.042294 
L 164.532474 -137.042294 
L 167.840774 -137.042294 
L 171.149075 -137.042294 
L 174.457375 -137.042294 
L 177.765676 -137.042294 
L 181.073976 -137.042294 
L 184.382276 -137.042294 
L 187.690577 -137.042294 
L 190.998877 -137.042294 
L 194.307178 -137.042294 
L 197.615478 -137.042294 
L 200.923778 -137.042294 
L 204.232079 -137.042294 
L 207.540379 -137.042294 
L 210.84868 -137.042294 
L 214.15698 -137.042294 
L 217.46528 -137.042294 
L 220.773581 -137.042294 
L 224.081881 -137.042294 
L 227.390182 -137.042294 
L 230.698482 -137.042294 
L 234.006782 -137.042294 
L 237.315083 -137.042294 
L 240.623383 -137.042294 
L 243.931684 -137.042294 
L 247.239984 -137.042294 
L 250.548284 -137.042294 
L 253.856585 -137.042294 
L 257.164885 -137.042294 
L 260.473186 -137.042294 
L 263.781486 -137.042294 
L 267.089786 -137.042294 
L 270.398087 -137.042294 
L 273.706387 -137.042294 
L 277.014688 -137.042294 
L 280.322988 -137.042294 
L 283.631288 -137.042294 
L 286.939589 -137.042294 
L 290.247889 -137.042294 
L 293.556189 -137.042294 
L 296.86449 -137.042294 
L 300.17279 -137.042294 
L 303.481091 -137.042294 
L 306.789391 -137.042294 
L 310.097691 -137.042294 
L 313.405992 -137.042294 
L 316.714292 -137.042294 
L 320.022593 -137.042294 
L 323.330893 -137.042294 
L 326.639193 -137.042294 
L 329.947494 -137.042294 
L 333.255794 -137.042294 
L 336.564095 -137.042294 
L 339.872395 -137.042294 
L 343.180695 -137.042294 
L 346.488996 -137.042294 
L 349.797296 -137.042294 
L 353.105597 -137.042294 
L 356.413897 -137.042294 
L 359.722197 -137.042294 
L 363.030498 -137.042294 
L 366.338798 -137.042294 
L 369.647099 -137.042294 
L 372.955399 -137.042294 
L 376.263699 -137.042294 
L 379.572 -137.042294 
L 382.8803 -137.042294 
L 386.188601 -137.042294 
L 389.496901 -137.042294 
L 392.805201 -137.042294 
L 396.113502 -137.042294 
L 399.421802 -137.042294 
L 402.730103 -137.042294 
L 406.038403 -137.042294 
L 409.346703 -137.042294 
L 412.655004 -137.042294 
L 415.963304 -137.042294 
L 419.271604 -137.042294 
L 422.579905 -137.042294 
L 425.888205 -137.042294 
L 429.196506 -137.042294 
L 429.196506 -328.22 
L 429.196506 -328.22 
L 425.888205 -273.266811 
L 422.579905 -248.463688 
L 419.271604 -247.576606 
L 415.963304 -246.436018 
L 412.655004 -234.503643 
L 409.346703 -230.153067 
L 406.038403 -228.936487 
L 402.730103 -228.775623 
L 399.421802 -222.873858 
L 396.113502 -222.690066 
L 392.805201 -209.452021 
L 389.496901 -196.148953 
L 386.188601 -187.744158 
L 382.8803 -181.493023 
L 379.572 -180.461716 
L 376.263699 -174.528008 
L 372.955399 -166.364582 
L 369.647099 -166.099678 
L 366.338798 -165.470412 
L 363.030498 -164.027948 
L 359.722197 -163.379735 
L 356.413897 -162.842512 
L 353.105597 -162.753521 
L 349.797296 -160.901698 
L 346.488996 -160.873064 
L 343.180695 -155.991677 
L 339.872395 -155.624986 
L 336.564095 -154.786112 
L 333.255794 -154.131584 
L 329.947494 -153.307352 
L 326.639193 -153.30359 
L 323.330893 -153.238392 
L 320.022593 -152.834674 
L 316.714292 -152.56847 
L 313.405992 -151.153432 
L 310.097691 -150.991443 
L 306.789391 -149.508247 
L 303.481091 -147.28494 
L 300.17279 -146.513146 
L 296.86449 -146.007866 
L 293.556189 -144.846983 
L 290.247889 -144.423478 
L 286.939589 -144.212197 
L 283.631288 -143.764999 
L 280.322988 -143.028977 
L 277.014688 -142.605956 
L 273.706387 -142.221258 
L 270.398087 -139.754275 
L 267.089786 -139.026583 
L 263.781486 -138.636108 
L 260.473186 -138.592031 
L 257.164885 -138.562247 
L 253.856585 -137.976958 
L 250.548284 -137.419452 
L 247.239984 -137.185149 
L 243.931684 -136.767325 
L 240.623383 -136.509245 
L 237.315083 -134.509835 
L 234.006782 -134.438518 
L 230.698482 -134.263266 
L 227.390182 -132.082092 
L 224.081881 -131.537514 
L 220.773581 -130.254856 
L 217.46528 -128.047644 
L 214.15698 -127.697759 
L 210.84868 -126.420241 
L 207.540379 -117.305251 
L 204.232079 -116.481018 
L 200.923778 -113.106052 
L 197.615478 -112.598329 
L 194.307178 -111.784084 
L 190.998877 -110.851848 
L 187.690577 -110.828353 
L 184.382276 -110.723864 
L 181.073976 -108.415534 
L 177.765676 -106.304802 
L 174.457375 -106.185996 
L 171.149075 -105.794847 
L 167.840774 -105.607988 
L 164.532474 -105.327765 
L 161.224174 -104.180949 
L 157.915873 -97.507766 
L 154.607573 -95.011536 
L 151.299272 -92.520037 
L 147.990972 -90.999978 
L 144.682672 -79.768218 
L 141.374371 -78.931068 
L 138.066071 -74.992942 
L 134.757771 -73.481183 
L 131.44947 -70.725825 
L 128.14117 -58.552111 
L 124.832869 -25.82 
z
" id="m613a9532b8" style="stroke:#4a98c9;"/>
    </defs>
    <g clip-path="url(#pa52fab67c7)">
     <use style="fill:#4a98c9;stroke:#4a98c9;" x="0" xlink:href="#m613a9532b8" y="354.04"/>
    </g>
   </g>
   <g id="PolyCollection_2">
    <defs>
     <path d="M 124.832869 -25.82 
L 124.832869 -137.042294 
L 128.14117 -137.042294 
L 131.44947 -137.042294 
L 134.757771 -137.042294 
L 138.066071 -137.042294 
L 141.374371 -137.042294 
L 144.682672 -137.042294 
L 147.990972 -137.042294 
L 151.299272 -137.042294 
L 154.607573 -137.042294 
L 157.915873 -137.042294 
L 161.224174 -137.042294 
L 164.532474 -137.042294 
L 167.840774 -137.042294 
L 171.149075 -137.042294 
L 174.457375 -137.042294 
L 177.765676 -137.042294 
L 181.073976 -137.042294 
L 184.382276 -137.042294 
L 187.690577 -137.042294 
L 190.998877 -137.042294 
L 194.307178 -137.042294 
L 197.615478 -137.042294 
L 200.923778 -137.042294 
L 204.232079 -137.042294 
L 207.540379 -137.042294 
L 210.84868 -137.042294 
L 214.15698 -137.042294 
L 217.46528 -137.042294 
L 220.773581 -137.042294 
L 224.081881 -137.042294 
L 227.390182 -137.042294 
L 230.698482 -137.042294 
L 234.006782 -137.042294 
L 237.315083 -137.042294 
L 240.623383 -137.042294 
L 243.931684 -137.042294 
L 247.239984 -137.042294 
L 250.548284 -137.042294 
L 253.856585 -137.042294 
L 257.164885 -137.042294 
L 260.473186 -137.042294 
L 263.781486 -137.042294 
L 267.089786 -137.042294 
L 270.398087 -137.042294 
L 273.706387 -137.042294 
L 277.014688 -137.042294 
L 280.322988 -137.042294 
L 283.631288 -137.042294 
L 286.939589 -137.042294 
L 290.247889 -137.042294 
L 293.556189 -137.042294 
L 296.86449 -137.042294 
L 300.17279 -137.042294 
L 303.481091 -137.042294 
L 306.789391 -137.042294 
L 310.097691 -137.042294 
L 313.405992 -137.042294 
L 316.714292 -137.042294 
L 320.022593 -137.042294 
L 323.330893 -137.042294 
L 326.639193 -137.042294 
L 329.947494 -137.042294 
L 333.255794 -137.042294 
L 336.564095 -137.042294 
L 339.872395 -137.042294 
L 343.180695 -137.042294 
L 346.488996 -137.042294 
L 349.797296 -137.042294 
L 353.105597 -137.042294 
L 356.413897 -137.042294 
L 359.722197 -137.042294 
L 363.030498 -137.042294 
L 366.338798 -137.042294 
L 369.647099 -137.042294 
L 372.955399 -137.042294 
L 376.263699 -137.042294 
L 379.572 -137.042294 
L 382.8803 -137.042294 
L 386.188601 -137.042294 
L 389.496901 -137.042294 
L 392.805201 -137.042294 
L 396.113502 -137.042294 
L 399.421802 -137.042294 
L 402.730103 -137.042294 
L 406.038403 -137.042294 
L 409.346703 -137.042294 
L 412.655004 -137.042294 
L 415.963304 -137.042294 
L 419.271604 -137.042294 
L 422.579905 -137.042294 
L 425.888205 -137.042294 
L 429.196506 -137.042294 
L 429.196506 -328.22 
L 429.196506 -328.22 
L 425.888205 -273.266811 
L 422.579905 -248.463688 
L 419.271604 -247.576606 
L 415.963304 -246.436018 
L 412.655004 -234.503643 
L 409.346703 -230.153067 
L 406.038403 -228.936487 
L 402.730103 -228.775623 
L 399.421802 -222.873858 
L 396.113502 -222.690066 
L 392.805201 -209.452021 
L 389.496901 -196.148953 
L 386.188601 -187.744158 
L 382.8803 -181.493023 
L 379.572 -180.461716 
L 376.263699 -174.528008 
L 372.955399 -166.364582 
L 369.647099 -166.099678 
L 366.338798 -165.470412 
L 363.030498 -164.027948 
L 359.722197 -163.379735 
L 356.413897 -162.842512 
L 353.105597 -162.753521 
L 349.797296 -160.901698 
L 346.488996 -160.873064 
L 343.180695 -155.991677 
L 339.872395 -155.624986 
L 336.564095 -154.786112 
L 333.255794 -154.131584 
L 329.947494 -153.307352 
L 326.639193 -153.30359 
L 323.330893 -153.238392 
L 320.022593 -152.834674 
L 316.714292 -152.56847 
L 313.405992 -151.153432 
L 310.097691 -150.991443 
L 306.789391 -149.508247 
L 303.481091 -147.28494 
L 300.17279 -146.513146 
L 296.86449 -146.007866 
L 293.556189 -144.846983 
L 290.247889 -144.423478 
L 286.939589 -144.212197 
L 283.631288 -143.764999 
L 280.322988 -143.028977 
L 277.014688 -142.605956 
L 273.706387 -142.221258 
L 270.398087 -139.754275 
L 267.089786 -139.026583 
L 263.781486 -138.636108 
L 260.473186 -138.592031 
L 257.164885 -138.562247 
L 253.856585 -137.976958 
L 250.548284 -137.419452 
L 247.239984 -137.185149 
L 243.931684 -136.767325 
L 240.623383 -136.509245 
L 237.315083 -134.509835 
L 234.006782 -134.438518 
L 230.698482 -134.263266 
L 227.390182 -132.082092 
L 224.081881 -131.537514 
L 220.773581 -130.254856 
L 217.46528 -128.047644 
L 214.15698 -127.697759 
L 210.84868 -126.420241 
L 207.540379 -117.305251 
L 204.232079 -116.481018 
L 200.923778 -113.106052 
L 197.615478 -112.598329 
L 194.307178 -111.784084 
L 190.998877 -110.851848 
L 187.690577 -110.828353 
L 184.382276 -110.723864 
L 181.073976 -108.415534 
L 177.765676 -106.304802 
L 174.457375 -106.185996 
L 171.149075 -105.794847 
L 167.840774 -105.607988 
L 164.532474 -105.327765 
L 161.224174 -104.180949 
L 157.915873 -97.507766 
L 154.607573 -95.011536 
L 151.299272 -92.520037 
L 147.990972 -90.999978 
L 144.682672 -79.768218 
L 141.374371 -78.931068 
L 138.066071 -74.992942 
L 134.757771 -73.481183 
L 131.44947 -70.725825 
L 128.14117 -58.552111 
L 124.832869 -25.82 
z
" id="mbaed4edee4" style="stroke:#f14432;stroke-opacity:0.8;"/>
    </defs>
    <g clip-path="url(#pa52fab67c7)">
     <use style="fill:#f14432;fill-opacity:0.8;stroke:#f14432;stroke-opacity:0.8;" x="0" xlink:href="#mbaed4edee4" y="354.04"/>
    </g>
   </g>
   <g id="matplotlib.axis_1"/>
   <g id="matplotlib.axis_2">
    <g id="ytick_1">
     <g id="line2d_1">
      <defs>
       <path d="M 0 0 
L -3.5 0 
" id="m60b689c092" style="stroke:#000000;stroke-width:0.8;"/>
      </defs>
      <g>
       <use style="stroke:#000000;stroke-width:0.8;" x="109.614687" xlink:href="#m60b689c092" y="280.933703"/>
      </g>
     </g>
     <g id="text_1">
      <!-- −0.0002 -->
      <defs>
       <path d="M 10.59375 35.5 
L 73.1875 35.5 
L 73.1875 27.203125 
L 10.59375 27.203125 
z
" id="DejaVuSans-2212"/>
       <path d="M 31.78125 66.40625 
Q 24.171875 66.40625 20.328125 58.90625 
Q 16.5 51.421875 16.5 36.375 
Q 16.5 21.390625 20.328125 13.890625 
Q 24.171875 6.390625 31.78125 6.390625 
Q 39.453125 6.390625 43.28125 13.890625 
Q 47.125 21.390625 47.125 36.375 
Q 47.125 51.421875 43.28125 58.90625 
Q 39.453125 66.40625 31.78125 66.40625 
z
M 31.78125 74.21875 
Q 44.046875 74.21875 50.515625 64.515625 
Q 56.984375 54.828125 56.984375 36.375 
Q 56.984375 17.96875 50.515625 8.265625 
Q 44.046875 -1.421875 31.78125 -1.421875 
Q 19.53125 -1.421875 13.0625 8.265625 
Q 6.59375 17.96875 6.59375 36.375 
Q 6.59375 54.828125 13.0625 64.515625 
Q 19.53125 74.21875 31.78125 74.21875 
z
" id="DejaVuSans-30"/>
       <path d="M 10.6875 12.40625 
L 21 12.40625 
L 21 0 
L 10.6875 0 
z
" id="DejaVuSans-2e"/>
       <path d="M 19.1875 8.296875 
L 53.609375 8.296875 
L 53.609375 0 
L 7.328125 0 
L 7.328125 8.296875 
Q 12.9375 14.109375 22.625 23.890625 
Q 32.328125 33.6875 34.8125 36.53125 
Q 39.546875 41.84375 41.421875 45.53125 
Q 43.3125 49.21875 43.3125 52.78125 
Q 43.3125 58.59375 39.234375 62.25 
Q 35.15625 65.921875 28.609375 65.921875 
Q 23.96875 65.921875 18.8125 64.3125 
Q 13.671875 62.703125 7.8125 59.421875 
L 7.8125 69.390625 
Q 13.765625 71.78125 18.9375 73 
Q 24.125 74.21875 28.421875 74.21875 
Q 39.75 74.21875 46.484375 68.546875 
Q 53.21875 62.890625 53.21875 53.421875 
Q 53.21875 48.921875 51.53125 44.890625 
Q 49.859375 40.875 45.40625 35.40625 
Q 44.1875 33.984375 37.640625 27.21875 
Q 31.109375 20.453125 19.1875 8.296875 
z
" id="DejaVuSans-32"/>
      </defs>
      <g transform="translate(7.2 289.291984)scale(0.22 -0.22)">
       <use xlink:href="#DejaVuSans-2212"/>
       <use x="83.789062" xlink:href="#DejaVuSans-30"/>
       <use x="147.412109" xlink:href="#DejaVuSans-2e"/>
       <use x="179.199219" xlink:href="#DejaVuSans-30"/>
       <use x="242.822266" xlink:href="#DejaVuSans-30"/>
       <use x="306.445312" xlink:href="#DejaVuSans-30"/>
       <use x="370.068359" xlink:href="#DejaVuSans-32"/>
      </g>
     </g>
    </g>
    <g id="ytick_2">
     <g id="line2d_2">
      <g>
       <use style="stroke:#000000;stroke-width:0.8;" x="109.614687" xlink:href="#m60b689c092" y="216.997706"/>
      </g>
     </g>
     <g id="text_2">
      <!-- 0.0000 -->
      <g transform="translate(25.635312 225.355987)scale(0.22 -0.22)">
       <use xlink:href="#DejaVuSans-30"/>
       <use x="63.623047" xlink:href="#DejaVuSans-2e"/>
       <use x="95.410156" xlink:href="#DejaVuSans-30"/>
       <use x="159.033203" xlink:href="#DejaVuSans-30"/>
       <use x="222.65625" xlink:href="#DejaVuSans-30"/>
       <use x="286.279297" xlink:href="#DejaVuSans-30"/>
      </g>
     </g>
    </g>
    <g id="ytick_3">
     <g id="line2d_3">
      <g>
       <use style="stroke:#000000;stroke-width:0.8;" x="109.614687" xlink:href="#m60b689c092" y="153.061709"/>
      </g>
     </g>
     <g id="text_3">
      <!-- 0.0002 -->
      <g transform="translate(25.635312 161.41999)scale(0.22 -0.22)">
       <use xlink:href="#DejaVuSans-30"/>
       <use x="63.623047" xlink:href="#DejaVuSans-2e"/>
       <use x="95.410156" xlink:href="#DejaVuSans-30"/>
       <use x="159.033203" xlink:href="#DejaVuSans-30"/>
       <use x="222.65625" xlink:href="#DejaVuSans-30"/>
       <use x="286.279297" xlink:href="#DejaVuSans-32"/>
      </g>
     </g>
    </g>
    <g id="ytick_4">
     <g id="line2d_4">
      <g>
       <use style="stroke:#000000;stroke-width:0.8;" x="109.614687" xlink:href="#m60b689c092" y="89.125711"/>
      </g>
     </g>
     <g id="text_4">
      <!-- 0.0004 -->
      <defs>
       <path d="M 37.796875 64.3125 
L 12.890625 25.390625 
L 37.796875 25.390625 
z
M 35.203125 72.90625 
L 47.609375 72.90625 
L 47.609375 25.390625 
L 58.015625 25.390625 
L 58.015625 17.1875 
L 47.609375 17.1875 
L 47.609375 0 
L 37.796875 0 
L 37.796875 17.1875 
L 4.890625 17.1875 
L 4.890625 26.703125 
z
" id="DejaVuSans-34"/>
      </defs>
      <g transform="translate(25.635312 97.483993)scale(0.22 -0.22)">
       <use xlink:href="#DejaVuSans-30"/>
       <use x="63.623047" xlink:href="#DejaVuSans-2e"/>
       <use x="95.410156" xlink:href="#DejaVuSans-30"/>
       <use x="159.033203" xlink:href="#DejaVuSans-30"/>
       <use x="222.65625" xlink:href="#DejaVuSans-30"/>
       <use x="286.279297" xlink:href="#DejaVuSans-34"/>
      </g>
     </g>
    </g>
    <g id="ytick_5">
     <g id="line2d_5">
      <g>
       <use style="stroke:#000000;stroke-width:0.8;" x="109.614687" xlink:href="#m60b689c092" y="25.189714"/>
      </g>
     </g>
     <g id="text_5">
      <!-- 0.0006 -->
      <defs>
       <path d="M 33.015625 40.375 
Q 26.375 40.375 22.484375 35.828125 
Q 18.609375 31.296875 18.609375 23.390625 
Q 18.609375 15.53125 22.484375 10.953125 
Q 26.375 6.390625 33.015625 6.390625 
Q 39.65625 6.390625 43.53125 10.953125 
Q 47.40625 15.53125 47.40625 23.390625 
Q 47.40625 31.296875 43.53125 35.828125 
Q 39.65625 40.375 33.015625 40.375 
z
M 52.59375 71.296875 
L 52.59375 62.3125 
Q 48.875 64.0625 45.09375 64.984375 
Q 41.3125 65.921875 37.59375 65.921875 
Q 27.828125 65.921875 22.671875 59.328125 
Q 17.53125 52.734375 16.796875 39.40625 
Q 19.671875 43.65625 24.015625 45.921875 
Q 28.375 48.1875 33.59375 48.1875 
Q 44.578125 48.1875 50.953125 41.515625 
Q 57.328125 34.859375 57.328125 23.390625 
Q 57.328125 12.15625 50.6875 5.359375 
Q 44.046875 -1.421875 33.015625 -1.421875 
Q 20.359375 -1.421875 13.671875 8.265625 
Q 6.984375 17.96875 6.984375 36.375 
Q 6.984375 53.65625 15.1875 63.9375 
Q 23.390625 74.21875 37.203125 74.21875 
Q 40.921875 74.21875 44.703125 73.484375 
Q 48.484375 72.75 52.59375 71.296875 
z
" id="DejaVuSans-36"/>
      </defs>
      <g transform="translate(25.635312 33.547995)scale(0.22 -0.22)">
       <use xlink:href="#DejaVuSans-30"/>
       <use x="63.623047" xlink:href="#DejaVuSans-2e"/>
       <use x="95.410156" xlink:href="#DejaVuSans-30"/>
       <use x="159.033203" xlink:href="#DejaVuSans-30"/>
       <use x="222.65625" xlink:href="#DejaVuSans-30"/>
       <use x="286.279297" xlink:href="#DejaVuSans-36"/>
      </g>
     </g>
    </g>
   </g>
   <g id="patch_3">
    <path d="M 109.614687 343.34 
L 109.614687 10.7 
" style="fill:none;stroke:#000000;stroke-linecap:square;stroke-linejoin:miter;stroke-width:0.8;"/>
   </g>
   <g id="patch_4">
    <path d="M 444.414688 343.34 
L 444.414688 10.7 
" style="fill:none;stroke:#000000;stroke-linecap:square;stroke-linejoin:miter;stroke-width:0.8;"/>
   </g>
   <g id="patch_5">
    <path d="M 109.614687 343.34 
L 444.414688 343.34 
" style="fill:none;stroke:#000000;stroke-linecap:square;stroke-linejoin:miter;stroke-width:0.8;"/>
   </g>
   <g id="patch_6">
    <path d="M 109.614687 10.7 
L 444.414688 10.7 
" style="fill:none;stroke:#000000;stroke-linecap:square;stroke-linejoin:miter;stroke-width:0.8;"/>
   </g>
  </g>
 </g>
 <defs>
  <clipPath id="pa52fab67c7">
   <rect height="332.64" width="334.8" x="109.614687" y="10.7"/>
  </clipPath>
 </defs>
</svg>
