<?xml version="1.0" encoding="utf-8" standalone="no"?>
<!DOCTYPE svg PUBLIC "-//W3C//DTD SVG 1.1//EN"
  "http://www.w3.org/Graphics/SVG/1.1/DTD/svg11.dtd">
<!-- Created with matplotlib (http://matplotlib.org/) -->
<svg height="362pt" version="1.1" viewBox="0 0 455 362" width="455pt" xmlns="http://www.w3.org/2000/svg" xmlns:xlink="http://www.w3.org/1999/xlink">
 <defs>
  <style type="text/css">
*{stroke-linecap:butt;stroke-linejoin:round;}
  </style>
 </defs>
 <g id="figure_1">
  <g id="patch_1">
   <path d="M 0 362.424532 
L 455.114687 362.424532 
L 455.114687 0 
L 0 0 
z
" style="fill:#ffffff;"/>
  </g>
  <g id="axes_1">
   <g id="patch_2">
    <path d="M 109.614687 343.34 
L 444.414688 343.34 
L 444.414688 10.7 
L 109.614687 10.7 
z
" style="fill:#ffffff;"/>
   </g>
   <g id="PolyCollection_1">
    <defs>
     <path d="M 124.832869 -34.204532 
L 124.832869 -145.910606 
L 128.14117 -145.910606 
L 131.44947 -145.910606 
L 134.757771 -145.910606 
L 138.066071 -145.910606 
L 141.374371 -145.910606 
L 144.682672 -145.910606 
L 147.990972 -145.910606 
L 151.299272 -145.910606 
L 154.607573 -145.910606 
L 157.915873 -145.910606 
L 161.224174 -145.910606 
L 164.532474 -145.910606 
L 167.840774 -145.910606 
L 171.149075 -145.910606 
L 174.457375 -145.910606 
L 177.765676 -145.910606 
L 181.073976 -145.910606 
L 184.382276 -145.910606 
L 187.690577 -145.910606 
L 190.998877 -145.910606 
L 194.307178 -145.910606 
L 197.615478 -145.910606 
L 200.923778 -145.910606 
L 204.232079 -145.910606 
L 207.540379 -145.910606 
L 210.84868 -145.910606 
L 214.15698 -145.910606 
L 217.46528 -145.910606 
L 220.773581 -145.910606 
L 224.081881 -145.910606 
L 227.390182 -145.910606 
L 230.698482 -145.910606 
L 234.006782 -145.910606 
L 237.315083 -145.910606 
L 240.623383 -145.910606 
L 243.931684 -145.910606 
L 247.239984 -145.910606 
L 250.548284 -145.910606 
L 253.856585 -145.910606 
L 257.164885 -145.910606 
L 260.473186 -145.910606 
L 263.781486 -145.910606 
L 267.089786 -145.910606 
L 270.398087 -145.910606 
L 273.706387 -145.910606 
L 277.014688 -145.910606 
L 280.322988 -145.910606 
L 283.631288 -145.910606 
L 286.939589 -145.910606 
L 290.247889 -145.910606 
L 293.556189 -145.910606 
L 296.86449 -145.910606 
L 300.17279 -145.910606 
L 303.481091 -145.910606 
L 306.789391 -145.910606 
L 310.097691 -145.910606 
L 313.405992 -145.910606 
L 316.714292 -145.910606 
L 320.022593 -145.910606 
L 323.330893 -145.910606 
L 326.639193 -145.910606 
L 329.947494 -145.910606 
L 333.255794 -145.910606 
L 336.564095 -145.910606 
L 339.872395 -145.910606 
L 343.180695 -145.910606 
L 346.488996 -145.910606 
L 349.797296 -145.910606 
L 353.105597 -145.910606 
L 356.413897 -145.910606 
L 359.722197 -145.910606 
L 363.030498 -145.910606 
L 366.338798 -145.910606 
L 369.647099 -145.910606 
L 372.955399 -145.910606 
L 376.263699 -145.910606 
L 379.572 -145.910606 
L 382.8803 -145.910606 
L 386.188601 -145.910606 
L 389.496901 -145.910606 
L 392.805201 -145.910606 
L 396.113502 -145.910606 
L 399.421802 -145.910606 
L 402.730103 -145.910606 
L 406.038403 -145.910606 
L 409.346703 -145.910606 
L 412.655004 -145.910606 
L 415.963304 -145.910606 
L 419.271604 -145.910606 
L 422.579905 -145.910606 
L 425.888205 -145.910606 
L 429.196506 -145.910606 
L 429.196506 -336.604532 
L 429.196506 -336.604532 
L 425.888205 -268.732386 
L 422.579905 -264.578629 
L 419.271604 -262.722501 
L 415.963304 -241.922312 
L 412.655004 -238.159013 
L 409.346703 -237.610859 
L 406.038403 -232.973577 
L 402.730103 -212.844247 
L 399.421802 -212.402691 
L 396.113502 -210.96491 
L 392.805201 -210.531642 
L 389.496901 -207.256813 
L 386.188601 -202.336073 
L 382.8803 -200.961273 
L 379.572 -193.203871 
L 376.263699 -191.604529 
L 372.955399 -190.353339 
L 369.647099 -187.618704 
L 366.338798 -183.710697 
L 363.030498 -183.151386 
L 359.722197 -183.035592 
L 356.413897 -180.966432 
L 353.105597 -180.200919 
L 349.797296 -177.065078 
L 346.488996 -175.924305 
L 343.180695 -174.068219 
L 339.872395 -174.033176 
L 336.564095 -170.821808 
L 333.255794 -162.480401 
L 329.947494 -162.377162 
L 326.639193 -161.910119 
L 323.330893 -161.504852 
L 320.022593 -160.760724 
L 316.714292 -160.60039 
L 313.405992 -157.98383 
L 310.097691 -157.764031 
L 306.789391 -157.627479 
L 303.481091 -157.384891 
L 300.17279 -156.439335 
L 296.86449 -155.732369 
L 293.556189 -155.729999 
L 290.247889 -154.910092 
L 286.939589 -154.322437 
L 283.631288 -152.852768 
L 280.322988 -152.73572 
L 277.014688 -152.70719 
L 273.706387 -151.504819 
L 270.398087 -150.822694 
L 267.089786 -150.819835 
L 263.781486 -149.159468 
L 260.473186 -148.789997 
L 257.164885 -144.910363 
L 253.856585 -143.777913 
L 250.548284 -142.740674 
L 247.239984 -141.389952 
L 243.931684 -141.330931 
L 240.623383 -140.923294 
L 237.315083 -140.568963 
L 234.006782 -139.452588 
L 230.698482 -138.742233 
L 227.390182 -138.27964 
L 224.081881 -137.777508 
L 220.773581 -137.628175 
L 217.46528 -137.278078 
L 214.15698 -136.691144 
L 210.84868 -136.422386 
L 207.540379 -135.155281 
L 204.232079 -133.348998 
L 200.923778 -130.509845 
L 197.615478 -129.869536 
L 194.307178 -126.04814 
L 190.998877 -122.053911 
L 187.690577 -120.8717 
L 184.382276 -115.683974 
L 181.073976 -115.609813 
L 177.765676 -115.548282 
L 174.457375 -115.288043 
L 171.149075 -112.580894 
L 167.840774 -112.118683 
L 164.532474 -110.609547 
L 161.224174 -108.748045 
L 157.915873 -106.20304 
L 154.607573 -105.810494 
L 151.299272 -102.811851 
L 147.990972 -97.110021 
L 144.682672 -94.858361 
L 141.374371 -90.239504 
L 138.066071 -60.381732 
L 134.757771 -46.307413 
L 131.44947 -44.878182 
L 128.14117 -36.830086 
L 124.832869 -34.204532 
z
" id="m1e6f8529ba" style="stroke:#4a98c9;"/>
    </defs>
    <g clip-path="url(#p1095f223d1)">
     <use style="fill:#4a98c9;stroke:#4a98c9;" x="0" xlink:href="#m1e6f8529ba" y="362.424532"/>
    </g>
   </g>
   <g id="PolyCollection_2">
    <defs>
     <path d="M 124.832869 -34.204532 
L 124.832869 -145.910606 
L 128.14117 -145.910606 
L 131.44947 -145.910606 
L 134.757771 -145.910606 
L 138.066071 -145.910606 
L 141.374371 -145.910606 
L 144.682672 -145.910606 
L 147.990972 -145.910606 
L 151.299272 -145.910606 
L 154.607573 -145.910606 
L 157.915873 -145.910606 
L 161.224174 -145.910606 
L 164.532474 -145.910606 
L 167.840774 -145.910606 
L 171.149075 -145.910606 
L 174.457375 -145.910606 
L 177.765676 -145.910606 
L 181.073976 -145.910606 
L 184.382276 -145.910606 
L 187.690577 -145.910606 
L 190.998877 -145.910606 
L 194.307178 -145.910606 
L 197.615478 -145.910606 
L 200.923778 -145.910606 
L 204.232079 -145.910606 
L 207.540379 -145.910606 
L 210.84868 -145.910606 
L 214.15698 -145.910606 
L 217.46528 -145.910606 
L 220.773581 -145.910606 
L 224.081881 -145.910606 
L 227.390182 -145.910606 
L 230.698482 -145.910606 
L 234.006782 -145.910606 
L 237.315083 -145.910606 
L 240.623383 -145.910606 
L 243.931684 -145.910606 
L 247.239984 -145.910606 
L 250.548284 -145.910606 
L 253.856585 -145.910606 
L 257.164885 -145.910606 
L 260.473186 -145.910606 
L 263.781486 -145.910606 
L 267.089786 -145.910606 
L 270.398087 -145.910606 
L 273.706387 -145.910606 
L 277.014688 -145.910606 
L 280.322988 -145.910606 
L 283.631288 -145.910606 
L 286.939589 -145.910606 
L 290.247889 -145.910606 
L 293.556189 -145.910606 
L 296.86449 -145.910606 
L 300.17279 -145.910606 
L 303.481091 -145.910606 
L 306.789391 -145.910606 
L 310.097691 -145.910606 
L 313.405992 -145.910606 
L 316.714292 -145.910606 
L 320.022593 -145.910606 
L 323.330893 -145.910606 
L 326.639193 -145.910606 
L 329.947494 -145.910606 
L 333.255794 -145.910606 
L 336.564095 -145.910606 
L 339.872395 -145.910606 
L 343.180695 -145.910606 
L 346.488996 -145.910606 
L 349.797296 -145.910606 
L 353.105597 -145.910606 
L 356.413897 -145.910606 
L 359.722197 -145.910606 
L 363.030498 -145.910606 
L 366.338798 -145.910606 
L 369.647099 -145.910606 
L 372.955399 -145.910606 
L 376.263699 -145.910606 
L 379.572 -145.910606 
L 382.8803 -145.910606 
L 386.188601 -145.910606 
L 389.496901 -145.910606 
L 392.805201 -145.910606 
L 396.113502 -145.910606 
L 399.421802 -145.910606 
L 402.730103 -145.910606 
L 406.038403 -145.910606 
L 409.346703 -145.910606 
L 412.655004 -145.910606 
L 415.963304 -145.910606 
L 419.271604 -145.910606 
L 422.579905 -145.910606 
L 425.888205 -145.910606 
L 429.196506 -145.910606 
L 429.196506 -336.604532 
L 429.196506 -336.604532 
L 425.888205 -268.732386 
L 422.579905 -264.578629 
L 419.271604 -262.722501 
L 415.963304 -241.922312 
L 412.655004 -238.159013 
L 409.346703 -237.610859 
L 406.038403 -232.973577 
L 402.730103 -212.844247 
L 399.421802 -212.402691 
L 396.113502 -210.96491 
L 392.805201 -210.531642 
L 389.496901 -207.256813 
L 386.188601 -202.336073 
L 382.8803 -200.961273 
L 379.572 -193.203871 
L 376.263699 -191.604529 
L 372.955399 -190.353339 
L 369.647099 -187.618704 
L 366.338798 -183.710697 
L 363.030498 -183.151386 
L 359.722197 -183.035592 
L 356.413897 -180.966432 
L 353.105597 -180.200919 
L 349.797296 -177.065078 
L 346.488996 -175.924305 
L 343.180695 -174.068219 
L 339.872395 -174.033176 
L 336.564095 -170.821808 
L 333.255794 -162.480401 
L 329.947494 -162.377162 
L 326.639193 -161.910119 
L 323.330893 -161.504852 
L 320.022593 -160.760724 
L 316.714292 -160.60039 
L 313.405992 -157.98383 
L 310.097691 -157.764031 
L 306.789391 -157.627479 
L 303.481091 -157.384891 
L 300.17279 -156.439335 
L 296.86449 -155.732369 
L 293.556189 -155.729999 
L 290.247889 -154.910092 
L 286.939589 -154.322437 
L 283.631288 -152.852768 
L 280.322988 -152.73572 
L 277.014688 -152.70719 
L 273.706387 -151.504819 
L 270.398087 -150.822694 
L 267.089786 -150.819835 
L 263.781486 -149.159468 
L 260.473186 -148.789997 
L 257.164885 -144.910363 
L 253.856585 -143.777913 
L 250.548284 -142.740674 
L 247.239984 -141.389952 
L 243.931684 -141.330931 
L 240.623383 -140.923294 
L 237.315083 -140.568963 
L 234.006782 -139.452588 
L 230.698482 -138.742233 
L 227.390182 -138.27964 
L 224.081881 -137.777508 
L 220.773581 -137.628175 
L 217.46528 -137.278078 
L 214.15698 -136.691144 
L 210.84868 -136.422386 
L 207.540379 -135.155281 
L 204.232079 -133.348998 
L 200.923778 -130.509845 
L 197.615478 -129.869536 
L 194.307178 -126.04814 
L 190.998877 -122.053911 
L 187.690577 -120.8717 
L 184.382276 -115.683974 
L 181.073976 -115.609813 
L 177.765676 -115.548282 
L 174.457375 -115.288043 
L 171.149075 -112.580894 
L 167.840774 -112.118683 
L 164.532474 -110.609547 
L 161.224174 -108.748045 
L 157.915873 -106.20304 
L 154.607573 -105.810494 
L 151.299272 -102.811851 
L 147.990972 -97.110021 
L 144.682672 -94.858361 
L 141.374371 -90.239504 
L 138.066071 -60.381732 
L 134.757771 -46.307413 
L 131.44947 -44.878182 
L 128.14117 -36.830086 
L 124.832869 -34.204532 
z
" id="m7e91abf00f" style="stroke:#f14432;stroke-opacity:0.8;"/>
    </defs>
    <g clip-path="url(#p1095f223d1)">
     <use style="fill:#f14432;fill-opacity:0.8;stroke:#f14432;stroke-opacity:0.8;" x="0" xlink:href="#m7e91abf00f" y="362.424532"/>
    </g>
   </g>
   <g id="matplotlib.axis_1"/>
   <g id="matplotlib.axis_2">
    <g id="ytick_1">
     <g id="line2d_1">
      <defs>
       <path d="M 0 0 
L -3.5 0 
" id="mb0b9937fb9" style="stroke:#000000;stroke-width:0.8;"/>
      </defs>
      <g>
       <use style="stroke:#000000;stroke-width:0.8;" x="109.614687" xlink:href="#mb0b9937fb9" y="342.290938"/>
      </g>
     </g>
     <g id="text_1">
      <!-- −0.0003 -->
      <defs>
       <path d="M 10.59375 35.5 
L 73.1875 35.5 
L 73.1875 27.203125 
L 10.59375 27.203125 
z
" id="DejaVuSans-2212"/>
       <path d="M 31.78125 66.40625 
Q 24.171875 66.40625 20.328125 58.90625 
Q 16.5 51.421875 16.5 36.375 
Q 16.5 21.390625 20.328125 13.890625 
Q 24.171875 6.390625 31.78125 6.390625 
Q 39.453125 6.390625 43.28125 13.890625 
Q 47.125 21.390625 47.125 36.375 
Q 47.125 51.421875 43.28125 58.90625 
Q 39.453125 66.40625 31.78125 66.40625 
z
M 31.78125 74.21875 
Q 44.046875 74.21875 50.515625 64.515625 
Q 56.984375 54.828125 56.984375 36.375 
Q 56.984375 17.96875 50.515625 8.265625 
Q 44.046875 -1.421875 31.78125 -1.421875 
Q 19.53125 -1.421875 13.0625 8.265625 
Q 6.59375 17.96875 6.59375 36.375 
Q 6.59375 54.828125 13.0625 64.515625 
Q 19.53125 74.21875 31.78125 74.21875 
z
" id="DejaVuSans-30"/>
       <path d="M 10.6875 12.40625 
L 21 12.40625 
L 21 0 
L 10.6875 0 
z
" id="DejaVuSans-2e"/>
       <path d="M 40.578125 39.3125 
Q 47.65625 37.796875 51.625 33 
Q 55.609375 28.21875 55.609375 21.1875 
Q 55.609375 10.40625 48.1875 4.484375 
Q 40.765625 -1.421875 27.09375 -1.421875 
Q 22.515625 -1.421875 17.65625 -0.515625 
Q 12.796875 0.390625 7.625 2.203125 
L 7.625 11.71875 
Q 11.71875 9.328125 16.59375 8.109375 
Q 21.484375 6.890625 26.8125 6.890625 
Q 36.078125 6.890625 40.9375 10.546875 
Q 45.796875 14.203125 45.796875 21.1875 
Q 45.796875 27.640625 41.28125 31.265625 
Q 36.765625 34.90625 28.71875 34.90625 
L 20.21875 34.90625 
L 20.21875 43.015625 
L 29.109375 43.015625 
Q 36.375 43.015625 40.234375 45.921875 
Q 44.09375 48.828125 44.09375 54.296875 
Q 44.09375 59.90625 40.109375 62.90625 
Q 36.140625 65.921875 28.71875 65.921875 
Q 24.65625 65.921875 20.015625 65.03125 
Q 15.375 64.15625 9.8125 62.3125 
L 9.8125 71.09375 
Q 15.4375 72.65625 20.34375 73.4375 
Q 25.25 74.21875 29.59375 74.21875 
Q 40.828125 74.21875 47.359375 69.109375 
Q 53.90625 64.015625 53.90625 55.328125 
Q 53.90625 49.265625 50.4375 45.09375 
Q 46.96875 40.921875 40.578125 39.3125 
z
" id="DejaVuSans-33"/>
      </defs>
      <g transform="translate(7.2 350.649219)scale(0.22 -0.22)">
       <use xlink:href="#DejaVuSans-2212"/>
       <use x="83.789062" xlink:href="#DejaVuSans-30"/>
       <use x="147.412109" xlink:href="#DejaVuSans-2e"/>
       <use x="179.199219" xlink:href="#DejaVuSans-30"/>
       <use x="242.822266" xlink:href="#DejaVuSans-30"/>
       <use x="306.445312" xlink:href="#DejaVuSans-30"/>
       <use x="370.068359" xlink:href="#DejaVuSans-33"/>
      </g>
     </g>
    </g>
    <g id="ytick_2">
     <g id="line2d_2">
      <g>
       <use style="stroke:#000000;stroke-width:0.8;" x="109.614687" xlink:href="#mb0b9937fb9" y="300.365267"/>
      </g>
     </g>
     <g id="text_2">
      <!-- −0.0002 -->
      <defs>
       <path d="M 19.1875 8.296875 
L 53.609375 8.296875 
L 53.609375 0 
L 7.328125 0 
L 7.328125 8.296875 
Q 12.9375 14.109375 22.625 23.890625 
Q 32.328125 33.6875 34.8125 36.53125 
Q 39.546875 41.84375 41.421875 45.53125 
Q 43.3125 49.21875 43.3125 52.78125 
Q 43.3125 58.59375 39.234375 62.25 
Q 35.15625 65.921875 28.609375 65.921875 
Q 23.96875 65.921875 18.8125 64.3125 
Q 13.671875 62.703125 7.8125 59.421875 
L 7.8125 69.390625 
Q 13.765625 71.78125 18.9375 73 
Q 24.125 74.21875 28.421875 74.21875 
Q 39.75 74.21875 46.484375 68.546875 
Q 53.21875 62.890625 53.21875 53.421875 
Q 53.21875 48.921875 51.53125 44.890625 
Q 49.859375 40.875 45.40625 35.40625 
Q 44.1875 33.984375 37.640625 27.21875 
Q 31.109375 20.453125 19.1875 8.296875 
z
" id="DejaVuSans-32"/>
      </defs>
      <g transform="translate(7.2 308.723549)scale(0.22 -0.22)">
       <use xlink:href="#DejaVuSans-2212"/>
       <use x="83.789062" xlink:href="#DejaVuSans-30"/>
       <use x="147.412109" xlink:href="#DejaVuSans-2e"/>
       <use x="179.199219" xlink:href="#DejaVuSans-30"/>
       <use x="242.822266" xlink:href="#DejaVuSans-30"/>
       <use x="306.445312" xlink:href="#DejaVuSans-30"/>
       <use x="370.068359" xlink:href="#DejaVuSans-32"/>
      </g>
     </g>
    </g>
    <g id="ytick_3">
     <g id="line2d_3">
      <g>
       <use style="stroke:#000000;stroke-width:0.8;" x="109.614687" xlink:href="#mb0b9937fb9" y="258.439597"/>
      </g>
     </g>
     <g id="text_3">
      <!-- −0.0001 -->
      <defs>
       <path d="M 12.40625 8.296875 
L 28.515625 8.296875 
L 28.515625 63.921875 
L 10.984375 60.40625 
L 10.984375 69.390625 
L 28.421875 72.90625 
L 38.28125 72.90625 
L 38.28125 8.296875 
L 54.390625 8.296875 
L 54.390625 0 
L 12.40625 0 
z
" id="DejaVuSans-31"/>
      </defs>
      <g transform="translate(7.2 266.797878)scale(0.22 -0.22)">
       <use xlink:href="#DejaVuSans-2212"/>
       <use x="83.789062" xlink:href="#DejaVuSans-30"/>
       <use x="147.412109" xlink:href="#DejaVuSans-2e"/>
       <use x="179.199219" xlink:href="#DejaVuSans-30"/>
       <use x="242.822266" xlink:href="#DejaVuSans-30"/>
       <use x="306.445312" xlink:href="#DejaVuSans-30"/>
       <use x="370.068359" xlink:href="#DejaVuSans-31"/>
      </g>
     </g>
    </g>
    <g id="ytick_4">
     <g id="line2d_4">
      <g>
       <use style="stroke:#000000;stroke-width:0.8;" x="109.614687" xlink:href="#mb0b9937fb9" y="216.513926"/>
      </g>
     </g>
     <g id="text_4">
      <!-- 0.0000 -->
      <g transform="translate(25.635312 224.872207)scale(0.22 -0.22)">
       <use xlink:href="#DejaVuSans-30"/>
       <use x="63.623047" xlink:href="#DejaVuSans-2e"/>
       <use x="95.410156" xlink:href="#DejaVuSans-30"/>
       <use x="159.033203" xlink:href="#DejaVuSans-30"/>
       <use x="222.65625" xlink:href="#DejaVuSans-30"/>
       <use x="286.279297" xlink:href="#DejaVuSans-30"/>
      </g>
     </g>
    </g>
    <g id="ytick_5">
     <g id="line2d_5">
      <g>
       <use style="stroke:#000000;stroke-width:0.8;" x="109.614687" xlink:href="#mb0b9937fb9" y="174.588255"/>
      </g>
     </g>
     <g id="text_5">
      <!-- 0.0001 -->
      <g transform="translate(25.635312 182.946537)scale(0.22 -0.22)">
       <use xlink:href="#DejaVuSans-30"/>
       <use x="63.623047" xlink:href="#DejaVuSans-2e"/>
       <use x="95.410156" xlink:href="#DejaVuSans-30"/>
       <use x="159.033203" xlink:href="#DejaVuSans-30"/>
       <use x="222.65625" xlink:href="#DejaVuSans-30"/>
       <use x="286.279297" xlink:href="#DejaVuSans-31"/>
      </g>
     </g>
    </g>
    <g id="ytick_6">
     <g id="line2d_6">
      <g>
       <use style="stroke:#000000;stroke-width:0.8;" x="109.614687" xlink:href="#mb0b9937fb9" y="132.662585"/>
      </g>
     </g>
     <g id="text_6">
      <!-- 0.0002 -->
      <g transform="translate(25.635312 141.020866)scale(0.22 -0.22)">
       <use xlink:href="#DejaVuSans-30"/>
       <use x="63.623047" xlink:href="#DejaVuSans-2e"/>
       <use x="95.410156" xlink:href="#DejaVuSans-30"/>
       <use x="159.033203" xlink:href="#DejaVuSans-30"/>
       <use x="222.65625" xlink:href="#DejaVuSans-30"/>
       <use x="286.279297" xlink:href="#DejaVuSans-32"/>
      </g>
     </g>
    </g>
    <g id="ytick_7">
     <g id="line2d_7">
      <g>
       <use style="stroke:#000000;stroke-width:0.8;" x="109.614687" xlink:href="#mb0b9937fb9" y="90.736914"/>
      </g>
     </g>
     <g id="text_7">
      <!-- 0.0003 -->
      <g transform="translate(25.635312 99.095195)scale(0.22 -0.22)">
       <use xlink:href="#DejaVuSans-30"/>
       <use x="63.623047" xlink:href="#DejaVuSans-2e"/>
       <use x="95.410156" xlink:href="#DejaVuSans-30"/>
       <use x="159.033203" xlink:href="#DejaVuSans-30"/>
       <use x="222.65625" xlink:href="#DejaVuSans-30"/>
       <use x="286.279297" xlink:href="#DejaVuSans-33"/>
      </g>
     </g>
    </g>
    <g id="ytick_8">
     <g id="line2d_8">
      <g>
       <use style="stroke:#000000;stroke-width:0.8;" x="109.614687" xlink:href="#mb0b9937fb9" y="48.811243"/>
      </g>
     </g>
     <g id="text_8">
      <!-- 0.0004 -->
      <defs>
       <path d="M 37.796875 64.3125 
L 12.890625 25.390625 
L 37.796875 25.390625 
z
M 35.203125 72.90625 
L 47.609375 72.90625 
L 47.609375 25.390625 
L 58.015625 25.390625 
L 58.015625 17.1875 
L 47.609375 17.1875 
L 47.609375 0 
L 37.796875 0 
L 37.796875 17.1875 
L 4.890625 17.1875 
L 4.890625 26.703125 
z
" id="DejaVuSans-34"/>
      </defs>
      <g transform="translate(25.635312 57.169524)scale(0.22 -0.22)">
       <use xlink:href="#DejaVuSans-30"/>
       <use x="63.623047" xlink:href="#DejaVuSans-2e"/>
       <use x="95.410156" xlink:href="#DejaVuSans-30"/>
       <use x="159.033203" xlink:href="#DejaVuSans-30"/>
       <use x="222.65625" xlink:href="#DejaVuSans-30"/>
       <use x="286.279297" xlink:href="#DejaVuSans-34"/>
      </g>
     </g>
    </g>
   </g>
   <g id="patch_3">
    <path d="M 109.614687 343.34 
L 109.614687 10.7 
" style="fill:none;stroke:#000000;stroke-linecap:square;stroke-linejoin:miter;stroke-width:0.8;"/>
   </g>
   <g id="patch_4">
    <path d="M 444.414688 343.34 
L 444.414688 10.7 
" style="fill:none;stroke:#000000;stroke-linecap:square;stroke-linejoin:miter;stroke-width:0.8;"/>
   </g>
   <g id="patch_5">
    <path d="M 109.614687 343.34 
L 444.414688 343.34 
" style="fill:none;stroke:#000000;stroke-linecap:square;stroke-linejoin:miter;stroke-width:0.8;"/>
   </g>
   <g id="patch_6">
    <path d="M 109.614687 10.7 
L 444.414688 10.7 
" style="fill:none;stroke:#000000;stroke-linecap:square;stroke-linejoin:miter;stroke-width:0.8;"/>
   </g>
  </g>
 </g>
 <defs>
  <clipPath id="p1095f223d1">
   <rect height="332.64" width="334.8" x="109.614687" y="10.7"/>
  </clipPath>
 </defs>
</svg>
