<?xml version="1.0" encoding="utf-8" standalone="no"?>
<!DOCTYPE svg PUBLIC "-//W3C//DTD SVG 1.1//EN"
  "http://www.w3.org/Graphics/SVG/1.1/DTD/svg11.dtd">
<!-- Created with matplotlib (http://matplotlib.org/) -->
<svg height="354pt" version="1.1" viewBox="0 0 413 354" width="413pt" xmlns="http://www.w3.org/2000/svg" xmlns:xlink="http://www.w3.org/1999/xlink">
 <defs>
  <style type="text/css">
*{stroke-linecap:butt;stroke-linejoin:round;}
  </style>
 </defs>
 <g id="figure_1">
  <g id="patch_1">
   <path d="M 0 354.04 
L 413.122187 354.04 
L 413.122187 0 
L 0 0 
z
" style="fill:#ffffff;"/>
  </g>
  <g id="axes_1">
   <g id="patch_2">
    <path d="M 67.622187 343.34 
L 402.422188 343.34 
L 402.422188 10.7 
L 67.622187 10.7 
z
" style="fill:#ffffff;"/>
   </g>
   <g id="PolyCollection_1">
    <defs>
     <path d="M 82.840369 -117.216069 
L 82.840369 -130.061058 
L 86.14867 -130.061058 
L 89.45697 -130.061058 
L 92.765271 -130.061058 
L 96.073571 -130.061058 
L 99.381871 -130.061058 
L 102.690172 -130.061058 
L 105.998472 -130.061058 
L 109.306772 -130.061058 
L 112.615073 -130.061058 
L 115.923373 -130.061058 
L 119.231674 -130.061058 
L 122.539974 -130.061058 
L 125.848274 -130.061058 
L 129.156575 -130.061058 
L 132.464875 -130.061058 
L 135.773176 -130.061058 
L 139.081476 -130.061058 
L 142.389776 -130.061058 
L 145.698077 -130.061058 
L 149.006377 -130.061058 
L 152.314678 -130.061058 
L 155.622978 -130.061058 
L 158.931278 -130.061058 
L 162.239579 -130.061058 
L 165.547879 -130.061058 
L 168.85618 -130.061058 
L 172.16448 -130.061058 
L 175.47278 -130.061058 
L 178.781081 -130.061058 
L 182.089381 -130.061058 
L 185.397682 -130.061058 
L 188.705982 -130.061058 
L 192.014282 -130.061058 
L 195.322583 -130.061058 
L 198.630883 -130.061058 
L 201.939184 -130.061058 
L 205.247484 -130.061058 
L 208.555784 -130.061058 
L 211.864085 -130.061058 
L 215.172385 -130.061058 
L 218.480686 -130.061058 
L 221.788986 -130.061058 
L 225.097286 -130.061058 
L 228.405587 -130.061058 
L 231.713887 -130.061058 
L 235.022188 -130.061058 
L 238.330488 -130.061058 
L 241.638788 -130.061058 
L 244.947089 -130.061058 
L 248.255389 -130.061058 
L 251.563689 -130.061058 
L 254.87199 -130.061058 
L 258.18029 -130.061058 
L 261.488591 -130.061058 
L 264.796891 -130.061058 
L 268.105191 -130.061058 
L 271.413492 -130.061058 
L 274.721792 -130.061058 
L 278.030093 -130.061058 
L 281.338393 -130.061058 
L 284.646693 -130.061058 
L 287.954994 -130.061058 
L 291.263294 -130.061058 
L 294.571595 -130.061058 
L 297.879895 -130.061058 
L 301.188195 -130.061058 
L 304.496496 -130.061058 
L 307.804796 -130.061058 
L 311.113097 -130.061058 
L 314.421397 -130.061058 
L 317.729697 -130.061058 
L 321.037998 -130.061058 
L 324.346298 -130.061058 
L 327.654599 -130.061058 
L 330.962899 -130.061058 
L 334.271199 -130.061058 
L 337.5795 -130.061058 
L 340.8878 -130.061058 
L 344.196101 -130.061058 
L 347.504401 -130.061058 
L 350.812701 -130.061058 
L 354.121002 -130.061058 
L 357.429302 -130.061058 
L 360.737603 -130.061058 
L 364.045903 -130.061058 
L 367.354203 -130.061058 
L 370.662504 -130.061058 
L 373.970804 -130.061058 
L 377.279104 -130.061058 
L 380.587405 -130.061058 
L 383.895705 -130.061058 
L 387.204006 -130.061058 
L 387.204006 -152.731939 
L 387.204006 -152.731939 
L 383.895705 -143.426676 
L 380.587405 -142.64408 
L 377.279104 -139.088165 
L 373.970804 -137.660342 
L 370.662504 -137.586723 
L 367.354203 -136.31083 
L 364.045903 -135.552608 
L 360.737603 -133.586444 
L 357.429302 -133.542412 
L 354.121002 -133.285247 
L 350.812701 -132.948725 
L 347.504401 -132.943108 
L 344.196101 -132.539534 
L 340.8878 -132.519088 
L 337.5795 -132.224324 
L 334.271199 -131.753885 
L 330.962899 -131.721478 
L 327.654599 -131.619071 
L 324.346298 -131.48448 
L 321.037998 -131.333548 
L 317.729697 -131.253604 
L 314.421397 -131.239749 
L 311.113097 -131.20397 
L 307.804796 -131.0409 
L 304.496496 -130.783899 
L 301.188195 -130.591118 
L 297.879895 -130.533137 
L 294.571595 -130.402131 
L 291.263294 -130.399499 
L 287.954994 -130.385613 
L 284.646693 -130.288317 
L 281.338393 -130.25616 
L 278.030093 -130.177361 
L 274.721792 -130.158755 
L 271.413492 -130.127657 
L 268.105191 -130.105013 
L 264.796891 -130.104423 
L 261.488591 -130.098001 
L 258.18029 -130.096234 
L 254.87199 -130.095918 
L 251.563689 -130.092608 
L 248.255389 -130.091595 
L 244.947089 -130.08506 
L 241.638788 -130.082933 
L 238.330488 -130.075716 
L 235.022188 -130.073473 
L 231.713887 -130.072552 
L 228.405587 -130.071749 
L 225.097286 -130.071315 
L 221.788986 -130.069712 
L 218.480686 -130.069442 
L 215.172385 -130.068923 
L 211.864085 -130.065926 
L 208.555784 -130.064745 
L 205.247484 -130.064089 
L 201.939184 -130.06388 
L 198.630883 -130.062492 
L 195.322583 -130.061654 
L 192.014282 -130.061184 
L 188.705982 -130.060916 
L 185.397682 -130.060562 
L 182.089381 -130.059847 
L 178.781081 -130.056793 
L 175.47278 -130.055534 
L 172.16448 -130.055379 
L 168.85618 -130.055291 
L 165.547879 -130.05343 
L 162.239579 -130.052359 
L 158.931278 -130.052126 
L 155.622978 -130.044006 
L 152.314678 -130.042913 
L 149.006377 -130.042234 
L 145.698077 -130.035807 
L 142.389776 -129.995304 
L 139.081476 -129.822346 
L 135.773176 -129.708138 
L 132.464875 -129.547719 
L 129.156575 -129.383059 
L 125.848274 -128.716162 
L 122.539974 -128.568887 
L 119.231674 -128.510898 
L 115.923373 -128.346413 
L 112.615073 -127.248738 
L 109.306772 -127.182243 
L 105.998472 -127.158835 
L 102.690172 -127.12267 
L 99.381871 -126.195585 
L 96.073571 -125.260074 
L 92.765271 -124.520988 
L 89.45697 -124.267826 
L 86.14867 -123.982384 
L 82.840369 -117.216069 
z
" id="m1c2eabf302" style="stroke:#4a98c9;"/>
    </defs>
    <g clip-path="url(#pd431eeb8e2)">
     <use style="fill:#4a98c9;stroke:#4a98c9;" x="0" xlink:href="#m1c2eabf302" y="354.04"/>
    </g>
   </g>
   <g id="PolyCollection_2">
    <defs>
     <path d="M 82.840369 -25.82 
L 82.840369 -130.061058 
L 86.14867 -130.061058 
L 89.45697 -130.061058 
L 92.765271 -130.061058 
L 96.073571 -130.061058 
L 99.381871 -130.061058 
L 102.690172 -130.061058 
L 105.998472 -130.061058 
L 109.306772 -130.061058 
L 112.615073 -130.061058 
L 115.923373 -130.061058 
L 119.231674 -130.061058 
L 122.539974 -130.061058 
L 125.848274 -130.061058 
L 129.156575 -130.061058 
L 132.464875 -130.061058 
L 135.773176 -130.061058 
L 139.081476 -130.061058 
L 142.389776 -130.061058 
L 145.698077 -130.061058 
L 149.006377 -130.061058 
L 152.314678 -130.061058 
L 155.622978 -130.061058 
L 158.931278 -130.061058 
L 162.239579 -130.061058 
L 165.547879 -130.061058 
L 168.85618 -130.061058 
L 172.16448 -130.061058 
L 175.47278 -130.061058 
L 178.781081 -130.061058 
L 182.089381 -130.061058 
L 185.397682 -130.061058 
L 188.705982 -130.061058 
L 192.014282 -130.061058 
L 195.322583 -130.061058 
L 198.630883 -130.061058 
L 201.939184 -130.061058 
L 205.247484 -130.061058 
L 208.555784 -130.061058 
L 211.864085 -130.061058 
L 215.172385 -130.061058 
L 218.480686 -130.061058 
L 221.788986 -130.061058 
L 225.097286 -130.061058 
L 228.405587 -130.061058 
L 231.713887 -130.061058 
L 235.022188 -130.061058 
L 238.330488 -130.061058 
L 241.638788 -130.061058 
L 244.947089 -130.061058 
L 248.255389 -130.061058 
L 251.563689 -130.061058 
L 254.87199 -130.061058 
L 258.18029 -130.061058 
L 261.488591 -130.061058 
L 264.796891 -130.061058 
L 268.105191 -130.061058 
L 271.413492 -130.061058 
L 274.721792 -130.061058 
L 278.030093 -130.061058 
L 281.338393 -130.061058 
L 284.646693 -130.061058 
L 287.954994 -130.061058 
L 291.263294 -130.061058 
L 294.571595 -130.061058 
L 297.879895 -130.061058 
L 301.188195 -130.061058 
L 304.496496 -130.061058 
L 307.804796 -130.061058 
L 311.113097 -130.061058 
L 314.421397 -130.061058 
L 317.729697 -130.061058 
L 321.037998 -130.061058 
L 324.346298 -130.061058 
L 327.654599 -130.061058 
L 330.962899 -130.061058 
L 334.271199 -130.061058 
L 337.5795 -130.061058 
L 340.8878 -130.061058 
L 344.196101 -130.061058 
L 347.504401 -130.061058 
L 350.812701 -130.061058 
L 354.121002 -130.061058 
L 357.429302 -130.061058 
L 360.737603 -130.061058 
L 364.045903 -130.061058 
L 367.354203 -130.061058 
L 370.662504 -130.061058 
L 373.970804 -130.061058 
L 377.279104 -130.061058 
L 380.587405 -130.061058 
L 383.895705 -130.061058 
L 387.204006 -130.061058 
L 387.204006 -328.22 
L 387.204006 -328.22 
L 383.895705 -239.65808 
L 380.587405 -201.97808 
L 377.279104 -199.574603 
L 373.970804 -197.742545 
L 370.662504 -183.898842 
L 367.354203 -180.755743 
L 364.045903 -178.657632 
L 360.737603 -177.012838 
L 357.429302 -169.62185 
L 354.121002 -162.45327 
L 350.812701 -160.082233 
L 347.504401 -157.921454 
L 344.196101 -156.851516 
L 340.8878 -156.0003 
L 337.5795 -155.382245 
L 334.271199 -148.717941 
L 330.962899 -145.308658 
L 327.654599 -145.271211 
L 324.346298 -143.712281 
L 321.037998 -141.176367 
L 317.729697 -140.514796 
L 314.421397 -139.290649 
L 311.113097 -139.212804 
L 307.804796 -137.316181 
L 304.496496 -136.468236 
L 301.188195 -135.40826 
L 297.879895 -131.833378 
L 294.571595 -130.942461 
L 291.263294 -130.855319 
L 287.954994 -130.69249 
L 284.646693 -130.288685 
L 281.338393 -130.250983 
L 278.030093 -130.129287 
L 274.721792 -130.105166 
L 271.413492 -130.104081 
L 268.105191 -130.094133 
L 264.796891 -130.092669 
L 261.488591 -130.090581 
L 258.18029 -130.0847 
L 254.87199 -130.081904 
L 251.563689 -130.079808 
L 248.255389 -130.076299 
L 244.947089 -130.073841 
L 241.638788 -130.07257 
L 238.330488 -130.071694 
L 235.022188 -130.069926 
L 231.713887 -130.069609 
L 228.405587 -130.069075 
L 225.097286 -130.068274 
L 221.788986 -130.067924 
L 218.480686 -130.065727 
L 215.172385 -130.065453 
L 211.864085 -130.065289 
L 208.555784 -130.062963 
L 205.247484 -130.062938 
L 201.939184 -130.060604 
L 198.630883 -130.060514 
L 195.322583 -130.060492 
L 192.014282 -130.059568 
L 188.705982 -130.057904 
L 185.397682 -130.056846 
L 182.089381 -130.054762 
L 178.781081 -130.052671 
L 175.47278 -130.052529 
L 172.16448 -130.049727 
L 168.85618 -130.046637 
L 165.547879 -130.045161 
L 162.239579 -130.040888 
L 158.931278 -130.040369 
L 155.622978 -130.03691 
L 152.314678 -130.009642 
L 149.006377 -129.366123 
L 145.698077 -128.962606 
L 142.389776 -128.741142 
L 139.081476 -121.277147 
L 135.773176 -119.107304 
L 132.464875 -119.018594 
L 129.156575 -119.007225 
L 125.848274 -118.071541 
L 122.539974 -118.069191 
L 119.231674 -113.364723 
L 115.923373 -112.498624 
L 112.615073 -109.208768 
L 109.306772 -102.792384 
L 105.998472 -101.984054 
L 102.690172 -97.870929 
L 99.381871 -94.621519 
L 96.073571 -90.286872 
L 92.765271 -89.156674 
L 89.45697 -86.218031 
L 86.14867 -72.251926 
L 82.840369 -25.82 
z
" id="ma340341d66" style="stroke:#f14432;stroke-opacity:0.8;"/>
    </defs>
    <g clip-path="url(#pd431eeb8e2)">
     <use style="fill:#f14432;fill-opacity:0.8;stroke:#f14432;stroke-opacity:0.8;" x="0" xlink:href="#ma340341d66" y="354.04"/>
    </g>
   </g>
   <g id="matplotlib.axis_1"/>
   <g id="matplotlib.axis_2">
    <g id="ytick_1">
     <g id="line2d_1">
      <defs>
       <path d="M 0 0 
L -3.5 0 
" id="ma2b081442f" style="stroke:#000000;stroke-width:0.8;"/>
      </defs>
      <g>
       <use style="stroke:#000000;stroke-width:0.8;" x="67.622187" xlink:href="#ma2b081442f" y="325.679011"/>
      </g>
     </g>
     <g id="text_1">
      <!-- −1.0 -->
      <defs>
       <path d="M 10.59375 35.5 
L 73.1875 35.5 
L 73.1875 27.203125 
L 10.59375 27.203125 
z
" id="DejaVuSans-2212"/>
       <path d="M 12.40625 8.296875 
L 28.515625 8.296875 
L 28.515625 63.921875 
L 10.984375 60.40625 
L 10.984375 69.390625 
L 28.421875 72.90625 
L 38.28125 72.90625 
L 38.28125 8.296875 
L 54.390625 8.296875 
L 54.390625 0 
L 12.40625 0 
z
" id="DejaVuSans-31"/>
       <path d="M 10.6875 12.40625 
L 21 12.40625 
L 21 0 
L 10.6875 0 
z
" id="DejaVuSans-2e"/>
       <path d="M 31.78125 66.40625 
Q 24.171875 66.40625 20.328125 58.90625 
Q 16.5 51.421875 16.5 36.375 
Q 16.5 21.390625 20.328125 13.890625 
Q 24.171875 6.390625 31.78125 6.390625 
Q 39.453125 6.390625 43.28125 13.890625 
Q 47.125 21.390625 47.125 36.375 
Q 47.125 51.421875 43.28125 58.90625 
Q 39.453125 66.40625 31.78125 66.40625 
z
M 31.78125 74.21875 
Q 44.046875 74.21875 50.515625 64.515625 
Q 56.984375 54.828125 56.984375 36.375 
Q 56.984375 17.96875 50.515625 8.265625 
Q 44.046875 -1.421875 31.78125 -1.421875 
Q 19.53125 -1.421875 13.0625 8.265625 
Q 6.59375 17.96875 6.59375 36.375 
Q 6.59375 54.828125 13.0625 64.515625 
Q 19.53125 74.21875 31.78125 74.21875 
z
" id="DejaVuSans-30"/>
      </defs>
      <g transform="translate(7.2 334.037292)scale(0.22 -0.22)">
       <use xlink:href="#DejaVuSans-2212"/>
       <use x="83.789062" xlink:href="#DejaVuSans-31"/>
       <use x="147.412109" xlink:href="#DejaVuSans-2e"/>
       <use x="179.199219" xlink:href="#DejaVuSans-30"/>
      </g>
     </g>
    </g>
    <g id="ytick_2">
     <g id="line2d_2">
      <g>
       <use style="stroke:#000000;stroke-width:0.8;" x="67.622187" xlink:href="#ma2b081442f" y="274.828976"/>
      </g>
     </g>
     <g id="text_2">
      <!-- −0.5 -->
      <defs>
       <path d="M 10.796875 72.90625 
L 49.515625 72.90625 
L 49.515625 64.59375 
L 19.828125 64.59375 
L 19.828125 46.734375 
Q 21.96875 47.46875 24.109375 47.828125 
Q 26.265625 48.1875 28.421875 48.1875 
Q 40.625 48.1875 47.75 41.5 
Q 54.890625 34.8125 54.890625 23.390625 
Q 54.890625 11.625 47.5625 5.09375 
Q 40.234375 -1.421875 26.90625 -1.421875 
Q 22.3125 -1.421875 17.546875 -0.640625 
Q 12.796875 0.140625 7.71875 1.703125 
L 7.71875 11.625 
Q 12.109375 9.234375 16.796875 8.0625 
Q 21.484375 6.890625 26.703125 6.890625 
Q 35.15625 6.890625 40.078125 11.328125 
Q 45.015625 15.765625 45.015625 23.390625 
Q 45.015625 31 40.078125 35.4375 
Q 35.15625 39.890625 26.703125 39.890625 
Q 22.75 39.890625 18.8125 39.015625 
Q 14.890625 38.140625 10.796875 36.28125 
z
" id="DejaVuSans-35"/>
      </defs>
      <g transform="translate(7.2 283.187258)scale(0.22 -0.22)">
       <use xlink:href="#DejaVuSans-2212"/>
       <use x="83.789062" xlink:href="#DejaVuSans-30"/>
       <use x="147.412109" xlink:href="#DejaVuSans-2e"/>
       <use x="179.199219" xlink:href="#DejaVuSans-35"/>
      </g>
     </g>
    </g>
    <g id="ytick_3">
     <g id="line2d_3">
      <g>
       <use style="stroke:#000000;stroke-width:0.8;" x="67.622187" xlink:href="#ma2b081442f" y="223.978942"/>
      </g>
     </g>
     <g id="text_3">
      <!-- 0.0 -->
      <g transform="translate(25.635312 232.337223)scale(0.22 -0.22)">
       <use xlink:href="#DejaVuSans-30"/>
       <use x="63.623047" xlink:href="#DejaVuSans-2e"/>
       <use x="95.410156" xlink:href="#DejaVuSans-30"/>
      </g>
     </g>
    </g>
    <g id="ytick_4">
     <g id="line2d_4">
      <g>
       <use style="stroke:#000000;stroke-width:0.8;" x="67.622187" xlink:href="#ma2b081442f" y="173.128907"/>
      </g>
     </g>
     <g id="text_4">
      <!-- 0.5 -->
      <g transform="translate(25.635312 181.487188)scale(0.22 -0.22)">
       <use xlink:href="#DejaVuSans-30"/>
       <use x="63.623047" xlink:href="#DejaVuSans-2e"/>
       <use x="95.410156" xlink:href="#DejaVuSans-35"/>
      </g>
     </g>
    </g>
    <g id="ytick_5">
     <g id="line2d_5">
      <g>
       <use style="stroke:#000000;stroke-width:0.8;" x="67.622187" xlink:href="#ma2b081442f" y="122.278872"/>
      </g>
     </g>
     <g id="text_5">
      <!-- 1.0 -->
      <g transform="translate(25.635312 130.637153)scale(0.22 -0.22)">
       <use xlink:href="#DejaVuSans-31"/>
       <use x="63.623047" xlink:href="#DejaVuSans-2e"/>
       <use x="95.410156" xlink:href="#DejaVuSans-30"/>
      </g>
     </g>
    </g>
    <g id="ytick_6">
     <g id="line2d_6">
      <g>
       <use style="stroke:#000000;stroke-width:0.8;" x="67.622187" xlink:href="#ma2b081442f" y="71.428837"/>
      </g>
     </g>
     <g id="text_6">
      <!-- 1.5 -->
      <g transform="translate(25.635312 79.787119)scale(0.22 -0.22)">
       <use xlink:href="#DejaVuSans-31"/>
       <use x="63.623047" xlink:href="#DejaVuSans-2e"/>
       <use x="95.410156" xlink:href="#DejaVuSans-35"/>
      </g>
     </g>
    </g>
    <g id="ytick_7">
     <g id="line2d_7">
      <g>
       <use style="stroke:#000000;stroke-width:0.8;" x="67.622187" xlink:href="#ma2b081442f" y="20.578803"/>
      </g>
     </g>
     <g id="text_7">
      <!-- 2.0 -->
      <defs>
       <path d="M 19.1875 8.296875 
L 53.609375 8.296875 
L 53.609375 0 
L 7.328125 0 
L 7.328125 8.296875 
Q 12.9375 14.109375 22.625 23.890625 
Q 32.328125 33.6875 34.8125 36.53125 
Q 39.546875 41.84375 41.421875 45.53125 
Q 43.3125 49.21875 43.3125 52.78125 
Q 43.3125 58.59375 39.234375 62.25 
Q 35.15625 65.921875 28.609375 65.921875 
Q 23.96875 65.921875 18.8125 64.3125 
Q 13.671875 62.703125 7.8125 59.421875 
L 7.8125 69.390625 
Q 13.765625 71.78125 18.9375 73 
Q 24.125 74.21875 28.421875 74.21875 
Q 39.75 74.21875 46.484375 68.546875 
Q 53.21875 62.890625 53.21875 53.421875 
Q 53.21875 48.921875 51.53125 44.890625 
Q 49.859375 40.875 45.40625 35.40625 
Q 44.1875 33.984375 37.640625 27.21875 
Q 31.109375 20.453125 19.1875 8.296875 
z
" id="DejaVuSans-32"/>
      </defs>
      <g transform="translate(25.635312 28.937084)scale(0.22 -0.22)">
       <use xlink:href="#DejaVuSans-32"/>
       <use x="63.623047" xlink:href="#DejaVuSans-2e"/>
       <use x="95.410156" xlink:href="#DejaVuSans-30"/>
      </g>
     </g>
    </g>
   </g>
   <g id="patch_3">
    <path d="M 67.622187 343.34 
L 67.622187 10.7 
" style="fill:none;stroke:#000000;stroke-linecap:square;stroke-linejoin:miter;stroke-width:0.8;"/>
   </g>
   <g id="patch_4">
    <path d="M 402.422188 343.34 
L 402.422188 10.7 
" style="fill:none;stroke:#000000;stroke-linecap:square;stroke-linejoin:miter;stroke-width:0.8;"/>
   </g>
   <g id="patch_5">
    <path d="M 67.622187 343.34 
L 402.422188 343.34 
" style="fill:none;stroke:#000000;stroke-linecap:square;stroke-linejoin:miter;stroke-width:0.8;"/>
   </g>
   <g id="patch_6">
    <path d="M 67.622187 10.7 
L 402.422188 10.7 
" style="fill:none;stroke:#000000;stroke-linecap:square;stroke-linejoin:miter;stroke-width:0.8;"/>
   </g>
  </g>
 </g>
 <defs>
  <clipPath id="pd431eeb8e2">
   <rect height="332.64" width="334.8" x="67.622187" y="10.7"/>
  </clipPath>
 </defs>
</svg>
