<?xml version="1.0" encoding="utf-8" standalone="no"?>
<!DOCTYPE svg PUBLIC "-//W3C//DTD SVG 1.1//EN"
  "http://www.w3.org/Graphics/SVG/1.1/DTD/svg11.dtd">
<!-- Created with matplotlib (http://matplotlib.org/) -->
<svg height="354pt" version="1.1" viewBox="0 0 427 354" width="427pt" xmlns="http://www.w3.org/2000/svg" xmlns:xlink="http://www.w3.org/1999/xlink">
 <defs>
  <style type="text/css">
*{stroke-linecap:butt;stroke-linejoin:round;}
  </style>
 </defs>
 <g id="figure_1">
  <g id="patch_1">
   <path d="M 0 354.04 
L 427.119687 354.04 
L 427.119687 0 
L 0 0 
z
" style="fill:#ffffff;"/>
  </g>
  <g id="axes_1">
   <g id="patch_2">
    <path d="M 81.619687 343.34 
L 416.419688 343.34 
L 416.419688 10.7 
L 81.619687 10.7 
z
" style="fill:#ffffff;"/>
   </g>
   <g id="PolyCollection_1">
    <defs>
     <path d="M 96.837869 -25.82 
L 96.837869 -145.108709 
L 100.14617 -145.108709 
L 103.45447 -145.108709 
L 106.762771 -145.108709 
L 110.071071 -145.108709 
L 113.379371 -145.108709 
L 116.687672 -145.108709 
L 119.995972 -145.108709 
L 123.304272 -145.108709 
L 126.612573 -145.108709 
L 129.920873 -145.108709 
L 133.229174 -145.108709 
L 136.537474 -145.108709 
L 139.845774 -145.108709 
L 143.154075 -145.108709 
L 146.462375 -145.108709 
L 149.770676 -145.108709 
L 153.078976 -145.108709 
L 156.387276 -145.108709 
L 159.695577 -145.108709 
L 163.003877 -145.108709 
L 166.312178 -145.108709 
L 169.620478 -145.108709 
L 172.928778 -145.108709 
L 176.237079 -145.108709 
L 179.545379 -145.108709 
L 182.85368 -145.108709 
L 186.16198 -145.108709 
L 189.47028 -145.108709 
L 192.778581 -145.108709 
L 196.086881 -145.108709 
L 199.395182 -145.108709 
L 202.703482 -145.108709 
L 206.011782 -145.108709 
L 209.320083 -145.108709 
L 212.628383 -145.108709 
L 215.936684 -145.108709 
L 219.244984 -145.108709 
L 222.553284 -145.108709 
L 225.861585 -145.108709 
L 229.169885 -145.108709 
L 232.478186 -145.108709 
L 235.786486 -145.108709 
L 239.094786 -145.108709 
L 242.403087 -145.108709 
L 245.711387 -145.108709 
L 249.019688 -145.108709 
L 252.327988 -145.108709 
L 255.636288 -145.108709 
L 258.944589 -145.108709 
L 262.252889 -145.108709 
L 265.561189 -145.108709 
L 268.86949 -145.108709 
L 272.17779 -145.108709 
L 275.486091 -145.108709 
L 278.794391 -145.108709 
L 282.102691 -145.108709 
L 285.410992 -145.108709 
L 288.719292 -145.108709 
L 292.027593 -145.108709 
L 295.335893 -145.108709 
L 298.644193 -145.108709 
L 301.952494 -145.108709 
L 305.260794 -145.108709 
L 308.569095 -145.108709 
L 311.877395 -145.108709 
L 315.185695 -145.108709 
L 318.493996 -145.108709 
L 321.802296 -145.108709 
L 325.110597 -145.108709 
L 328.418897 -145.108709 
L 331.727197 -145.108709 
L 335.035498 -145.108709 
L 338.343798 -145.108709 
L 341.652099 -145.108709 
L 344.960399 -145.108709 
L 348.268699 -145.108709 
L 351.577 -145.108709 
L 354.8853 -145.108709 
L 358.193601 -145.108709 
L 361.501901 -145.108709 
L 364.810201 -145.108709 
L 368.118502 -145.108709 
L 371.426802 -145.108709 
L 374.735103 -145.108709 
L 378.043403 -145.108709 
L 381.351703 -145.108709 
L 384.660004 -145.108709 
L 387.968304 -145.108709 
L 391.276604 -145.108709 
L 394.584905 -145.108709 
L 397.893205 -145.108709 
L 401.201506 -145.108709 
L 401.201506 -328.22 
L 401.201506 -328.22 
L 397.893205 -290.921 
L 394.584905 -290.322517 
L 391.276604 -246.129427 
L 387.968304 -243.686426 
L 384.660004 -215.462264 
L 381.351703 -211.368594 
L 378.043403 -210.1957 
L 374.735103 -203.667477 
L 371.426802 -197.532042 
L 368.118502 -192.264112 
L 364.810201 -189.183993 
L 361.501901 -185.256628 
L 358.193601 -185.155522 
L 354.8853 -179.831919 
L 351.577 -177.773328 
L 348.268699 -176.352793 
L 344.960399 -171.609922 
L 341.652099 -168.244418 
L 338.343798 -154.734146 
L 335.035498 -154.657525 
L 331.727197 -154.314716 
L 328.418897 -153.018916 
L 325.110597 -152.878693 
L 321.802296 -151.765618 
L 318.493996 -151.031035 
L 315.185695 -150.094246 
L 311.877395 -149.256868 
L 308.569095 -149.101718 
L 305.260794 -149.034687 
L 301.952494 -147.826436 
L 298.644193 -147.50816 
L 295.335893 -147.385667 
L 292.027593 -147.112799 
L 288.719292 -146.957406 
L 285.410992 -146.462844 
L 282.102691 -146.249295 
L 278.794391 -146.201283 
L 275.486091 -146.083792 
L 272.17779 -145.706985 
L 268.86949 -145.524574 
L 265.561189 -145.473626 
L 262.252889 -145.400403 
L 258.944589 -145.377482 
L 255.636288 -145.339216 
L 252.327988 -145.325039 
L 249.019688 -145.227879 
L 245.711387 -145.226493 
L 242.403087 -145.196456 
L 239.094786 -145.196448 
L 235.786486 -145.165186 
L 232.478186 -145.157797 
L 229.169885 -145.124089 
L 225.861585 -145.116613 
L 222.553284 -145.099724 
L 219.244984 -145.091211 
L 215.936684 -145.059096 
L 212.628383 -145.032642 
L 209.320083 -145.015967 
L 206.011782 -145.01169 
L 202.703482 -144.97105 
L 199.395182 -144.812492 
L 196.086881 -144.793095 
L 192.778581 -144.784651 
L 189.47028 -144.777652 
L 186.16198 -144.74299 
L 182.85368 -144.688322 
L 179.545379 -144.650301 
L 176.237079 -144.618507 
L 172.928778 -144.534961 
L 169.620478 -144.494515 
L 166.312178 -144.436587 
L 163.003877 -144.420541 
L 159.695577 -144.26608 
L 156.387276 -143.705263 
L 153.078976 -143.593356 
L 149.770676 -143.470419 
L 146.462375 -143.409506 
L 143.154075 -139.269321 
L 139.845774 -138.9789 
L 136.537474 -138.480386 
L 133.229174 -138.22029 
L 129.920873 -130.355611 
L 126.612573 -129.440215 
L 123.304272 -129.367734 
L 119.995972 -127.805813 
L 116.687672 -121.709879 
L 113.379371 -108.857143 
L 110.071071 -96.40509 
L 106.762771 -85.647593 
L 103.45447 -60.408332 
L 100.14617 -34.243068 
L 96.837869 -25.82 
z
" id="ma93b8f2e33" style="stroke:#4a98c9;"/>
    </defs>
    <g clip-path="url(#pe8cb3022aa)">
     <use style="fill:#4a98c9;stroke:#4a98c9;" x="0" xlink:href="#ma93b8f2e33" y="354.04"/>
    </g>
   </g>
   <g id="PolyCollection_2">
    <defs>
     <path d="M 96.837869 -86.218134 
L 96.837869 -145.108709 
L 100.14617 -145.108709 
L 103.45447 -145.108709 
L 106.762771 -145.108709 
L 110.071071 -145.108709 
L 113.379371 -145.108709 
L 116.687672 -145.108709 
L 119.995972 -145.108709 
L 123.304272 -145.108709 
L 126.612573 -145.108709 
L 129.920873 -145.108709 
L 133.229174 -145.108709 
L 136.537474 -145.108709 
L 139.845774 -145.108709 
L 143.154075 -145.108709 
L 146.462375 -145.108709 
L 149.770676 -145.108709 
L 153.078976 -145.108709 
L 156.387276 -145.108709 
L 159.695577 -145.108709 
L 163.003877 -145.108709 
L 166.312178 -145.108709 
L 169.620478 -145.108709 
L 172.928778 -145.108709 
L 176.237079 -145.108709 
L 179.545379 -145.108709 
L 182.85368 -145.108709 
L 186.16198 -145.108709 
L 189.47028 -145.108709 
L 192.778581 -145.108709 
L 196.086881 -145.108709 
L 199.395182 -145.108709 
L 202.703482 -145.108709 
L 206.011782 -145.108709 
L 209.320083 -145.108709 
L 212.628383 -145.108709 
L 215.936684 -145.108709 
L 219.244984 -145.108709 
L 222.553284 -145.108709 
L 225.861585 -145.108709 
L 229.169885 -145.108709 
L 232.478186 -145.108709 
L 235.786486 -145.108709 
L 239.094786 -145.108709 
L 242.403087 -145.108709 
L 245.711387 -145.108709 
L 249.019688 -145.108709 
L 252.327988 -145.108709 
L 255.636288 -145.108709 
L 258.944589 -145.108709 
L 262.252889 -145.108709 
L 265.561189 -145.108709 
L 268.86949 -145.108709 
L 272.17779 -145.108709 
L 275.486091 -145.108709 
L 278.794391 -145.108709 
L 282.102691 -145.108709 
L 285.410992 -145.108709 
L 288.719292 -145.108709 
L 292.027593 -145.108709 
L 295.335893 -145.108709 
L 298.644193 -145.108709 
L 301.952494 -145.108709 
L 305.260794 -145.108709 
L 308.569095 -145.108709 
L 311.877395 -145.108709 
L 315.185695 -145.108709 
L 318.493996 -145.108709 
L 321.802296 -145.108709 
L 325.110597 -145.108709 
L 328.418897 -145.108709 
L 331.727197 -145.108709 
L 335.035498 -145.108709 
L 338.343798 -145.108709 
L 341.652099 -145.108709 
L 344.960399 -145.108709 
L 348.268699 -145.108709 
L 351.577 -145.108709 
L 354.8853 -145.108709 
L 358.193601 -145.108709 
L 361.501901 -145.108709 
L 364.810201 -145.108709 
L 368.118502 -145.108709 
L 371.426802 -145.108709 
L 374.735103 -145.108709 
L 378.043403 -145.108709 
L 381.351703 -145.108709 
L 384.660004 -145.108709 
L 387.968304 -145.108709 
L 391.276604 -145.108709 
L 394.584905 -145.108709 
L 397.893205 -145.108709 
L 401.201506 -145.108709 
L 401.201506 -216.573316 
L 401.201506 -216.573316 
L 397.893205 -213.93903 
L 394.584905 -198.48537 
L 391.276604 -194.183089 
L 387.968304 -192.041435 
L 384.660004 -179.620772 
L 381.351703 -179.579553 
L 378.043403 -174.742386 
L 374.735103 -171.00494 
L 371.426802 -170.540571 
L 368.118502 -169.75455 
L 364.810201 -163.881549 
L 361.501901 -162.588532 
L 358.193601 -161.747793 
L 354.8853 -161.281736 
L 351.577 -160.576749 
L 348.268699 -156.079416 
L 344.960399 -156.03975 
L 341.652099 -155.863555 
L 338.343798 -155.398285 
L 335.035498 -155.005355 
L 331.727197 -154.291157 
L 328.418897 -153.805269 
L 325.110597 -153.736866 
L 321.802296 -153.045756 
L 318.493996 -151.415913 
L 315.185695 -151.031907 
L 311.877395 -150.032838 
L 308.569095 -147.551348 
L 305.260794 -146.894848 
L 301.952494 -146.782926 
L 298.644193 -146.68898 
L 295.335893 -146.57031 
L 292.027593 -146.205292 
L 288.719292 -146.093743 
L 285.410992 -145.947632 
L 282.102691 -145.815608 
L 278.794391 -145.639745 
L 275.486091 -145.573295 
L 272.17779 -145.559944 
L 268.86949 -145.50619 
L 265.561189 -145.495175 
L 262.252889 -145.428905 
L 258.944589 -145.394587 
L 255.636288 -145.313837 
L 252.327988 -145.30119 
L 249.019688 -145.264046 
L 245.711387 -145.263022 
L 242.403087 -145.260169 
L 239.094786 -145.255471 
L 235.786486 -145.203853 
L 232.478186 -145.199256 
L 229.169885 -145.152484 
L 225.861585 -145.134041 
L 222.553284 -145.128368 
L 219.244984 -145.12186 
L 215.936684 -145.11067 
L 212.628383 -145.079281 
L 209.320083 -145.079253 
L 206.011782 -145.039561 
L 202.703482 -145.036074 
L 199.395182 -144.987432 
L 196.086881 -144.975121 
L 192.778581 -144.972516 
L 189.47028 -144.951751 
L 186.16198 -144.91719 
L 182.85368 -144.882586 
L 179.545379 -144.810716 
L 176.237079 -144.803692 
L 172.928778 -144.664081 
L 169.620478 -144.656777 
L 166.312178 -144.650521 
L 163.003877 -144.60538 
L 159.695577 -144.566043 
L 156.387276 -144.425112 
L 153.078976 -144.229838 
L 149.770676 -143.96741 
L 146.462375 -143.654421 
L 143.154075 -143.351171 
L 139.845774 -142.342714 
L 136.537474 -140.683859 
L 133.229174 -139.728375 
L 129.920873 -139.491024 
L 126.612573 -138.278869 
L 123.304272 -136.986887 
L 119.995972 -135.876922 
L 116.687672 -134.870225 
L 113.379371 -132.241632 
L 110.071071 -130.844878 
L 106.762771 -115.31459 
L 103.45447 -109.937119 
L 100.14617 -102.546546 
L 96.837869 -86.218134 
z
" id="m6620558f12" style="stroke:#f14432;stroke-opacity:0.8;"/>
    </defs>
    <g clip-path="url(#pe8cb3022aa)">
     <use style="fill:#f14432;fill-opacity:0.8;stroke:#f14432;stroke-opacity:0.8;" x="0" xlink:href="#m6620558f12" y="354.04"/>
    </g>
   </g>
   <g id="matplotlib.axis_1"/>
   <g id="matplotlib.axis_2">
    <g id="ytick_1">
     <g id="line2d_1">
      <defs>
       <path d="M 0 0 
L -3.5 0 
" id="me4c08438b8" style="stroke:#000000;stroke-width:0.8;"/>
      </defs>
      <g>
       <use style="stroke:#000000;stroke-width:0.8;" x="81.619687" xlink:href="#me4c08438b8" y="312.302115"/>
      </g>
     </g>
     <g id="text_1">
      <!-- −0.04 -->
      <defs>
       <path d="M 10.59375 35.5 
L 73.1875 35.5 
L 73.1875 27.203125 
L 10.59375 27.203125 
z
" id="DejaVuSans-2212"/>
       <path d="M 31.78125 66.40625 
Q 24.171875 66.40625 20.328125 58.90625 
Q 16.5 51.421875 16.5 36.375 
Q 16.5 21.390625 20.328125 13.890625 
Q 24.171875 6.390625 31.78125 6.390625 
Q 39.453125 6.390625 43.28125 13.890625 
Q 47.125 21.390625 47.125 36.375 
Q 47.125 51.421875 43.28125 58.90625 
Q 39.453125 66.40625 31.78125 66.40625 
z
M 31.78125 74.21875 
Q 44.046875 74.21875 50.515625 64.515625 
Q 56.984375 54.828125 56.984375 36.375 
Q 56.984375 17.96875 50.515625 8.265625 
Q 44.046875 -1.421875 31.78125 -1.421875 
Q 19.53125 -1.421875 13.0625 8.265625 
Q 6.59375 17.96875 6.59375 36.375 
Q 6.59375 54.828125 13.0625 64.515625 
Q 19.53125 74.21875 31.78125 74.21875 
z
" id="DejaVuSans-30"/>
       <path d="M 10.6875 12.40625 
L 21 12.40625 
L 21 0 
L 10.6875 0 
z
" id="DejaVuSans-2e"/>
       <path d="M 37.796875 64.3125 
L 12.890625 25.390625 
L 37.796875 25.390625 
z
M 35.203125 72.90625 
L 47.609375 72.90625 
L 47.609375 25.390625 
L 58.015625 25.390625 
L 58.015625 17.1875 
L 47.609375 17.1875 
L 47.609375 0 
L 37.796875 0 
L 37.796875 17.1875 
L 4.890625 17.1875 
L 4.890625 26.703125 
z
" id="DejaVuSans-34"/>
      </defs>
      <g transform="translate(7.2 320.660396)scale(0.22 -0.22)">
       <use xlink:href="#DejaVuSans-2212"/>
       <use x="83.789062" xlink:href="#DejaVuSans-30"/>
       <use x="147.412109" xlink:href="#DejaVuSans-2e"/>
       <use x="179.199219" xlink:href="#DejaVuSans-30"/>
       <use x="242.822266" xlink:href="#DejaVuSans-34"/>
      </g>
     </g>
    </g>
    <g id="ytick_2">
     <g id="line2d_2">
      <g>
       <use style="stroke:#000000;stroke-width:0.8;" x="81.619687" xlink:href="#me4c08438b8" y="260.616703"/>
      </g>
     </g>
     <g id="text_2">
      <!-- −0.02 -->
      <defs>
       <path d="M 19.1875 8.296875 
L 53.609375 8.296875 
L 53.609375 0 
L 7.328125 0 
L 7.328125 8.296875 
Q 12.9375 14.109375 22.625 23.890625 
Q 32.328125 33.6875 34.8125 36.53125 
Q 39.546875 41.84375 41.421875 45.53125 
Q 43.3125 49.21875 43.3125 52.78125 
Q 43.3125 58.59375 39.234375 62.25 
Q 35.15625 65.921875 28.609375 65.921875 
Q 23.96875 65.921875 18.8125 64.3125 
Q 13.671875 62.703125 7.8125 59.421875 
L 7.8125 69.390625 
Q 13.765625 71.78125 18.9375 73 
Q 24.125 74.21875 28.421875 74.21875 
Q 39.75 74.21875 46.484375 68.546875 
Q 53.21875 62.890625 53.21875 53.421875 
Q 53.21875 48.921875 51.53125 44.890625 
Q 49.859375 40.875 45.40625 35.40625 
Q 44.1875 33.984375 37.640625 27.21875 
Q 31.109375 20.453125 19.1875 8.296875 
z
" id="DejaVuSans-32"/>
      </defs>
      <g transform="translate(7.2 268.974984)scale(0.22 -0.22)">
       <use xlink:href="#DejaVuSans-2212"/>
       <use x="83.789062" xlink:href="#DejaVuSans-30"/>
       <use x="147.412109" xlink:href="#DejaVuSans-2e"/>
       <use x="179.199219" xlink:href="#DejaVuSans-30"/>
       <use x="242.822266" xlink:href="#DejaVuSans-32"/>
      </g>
     </g>
    </g>
    <g id="ytick_3">
     <g id="line2d_3">
      <g>
       <use style="stroke:#000000;stroke-width:0.8;" x="81.619687" xlink:href="#me4c08438b8" y="208.931291"/>
      </g>
     </g>
     <g id="text_3">
      <!-- 0.00 -->
      <g transform="translate(25.635312 217.289572)scale(0.22 -0.22)">
       <use xlink:href="#DejaVuSans-30"/>
       <use x="63.623047" xlink:href="#DejaVuSans-2e"/>
       <use x="95.410156" xlink:href="#DejaVuSans-30"/>
       <use x="159.033203" xlink:href="#DejaVuSans-30"/>
      </g>
     </g>
    </g>
    <g id="ytick_4">
     <g id="line2d_4">
      <g>
       <use style="stroke:#000000;stroke-width:0.8;" x="81.619687" xlink:href="#me4c08438b8" y="157.245879"/>
      </g>
     </g>
     <g id="text_4">
      <!-- 0.02 -->
      <g transform="translate(25.635312 165.604161)scale(0.22 -0.22)">
       <use xlink:href="#DejaVuSans-30"/>
       <use x="63.623047" xlink:href="#DejaVuSans-2e"/>
       <use x="95.410156" xlink:href="#DejaVuSans-30"/>
       <use x="159.033203" xlink:href="#DejaVuSans-32"/>
      </g>
     </g>
    </g>
    <g id="ytick_5">
     <g id="line2d_5">
      <g>
       <use style="stroke:#000000;stroke-width:0.8;" x="81.619687" xlink:href="#me4c08438b8" y="105.560468"/>
      </g>
     </g>
     <g id="text_5">
      <!-- 0.04 -->
      <g transform="translate(25.635312 113.918749)scale(0.22 -0.22)">
       <use xlink:href="#DejaVuSans-30"/>
       <use x="63.623047" xlink:href="#DejaVuSans-2e"/>
       <use x="95.410156" xlink:href="#DejaVuSans-30"/>
       <use x="159.033203" xlink:href="#DejaVuSans-34"/>
      </g>
     </g>
    </g>
    <g id="ytick_6">
     <g id="line2d_6">
      <g>
       <use style="stroke:#000000;stroke-width:0.8;" x="81.619687" xlink:href="#me4c08438b8" y="53.875056"/>
      </g>
     </g>
     <g id="text_6">
      <!-- 0.06 -->
      <defs>
       <path d="M 33.015625 40.375 
Q 26.375 40.375 22.484375 35.828125 
Q 18.609375 31.296875 18.609375 23.390625 
Q 18.609375 15.53125 22.484375 10.953125 
Q 26.375 6.390625 33.015625 6.390625 
Q 39.65625 6.390625 43.53125 10.953125 
Q 47.40625 15.53125 47.40625 23.390625 
Q 47.40625 31.296875 43.53125 35.828125 
Q 39.65625 40.375 33.015625 40.375 
z
M 52.59375 71.296875 
L 52.59375 62.3125 
Q 48.875 64.0625 45.09375 64.984375 
Q 41.3125 65.921875 37.59375 65.921875 
Q 27.828125 65.921875 22.671875 59.328125 
Q 17.53125 52.734375 16.796875 39.40625 
Q 19.671875 43.65625 24.015625 45.921875 
Q 28.375 48.1875 33.59375 48.1875 
Q 44.578125 48.1875 50.953125 41.515625 
Q 57.328125 34.859375 57.328125 23.390625 
Q 57.328125 12.15625 50.6875 5.359375 
Q 44.046875 -1.421875 33.015625 -1.421875 
Q 20.359375 -1.421875 13.671875 8.265625 
Q 6.984375 17.96875 6.984375 36.375 
Q 6.984375 53.65625 15.1875 63.9375 
Q 23.390625 74.21875 37.203125 74.21875 
Q 40.921875 74.21875 44.703125 73.484375 
Q 48.484375 72.75 52.59375 71.296875 
z
" id="DejaVuSans-36"/>
      </defs>
      <g transform="translate(25.635312 62.233337)scale(0.22 -0.22)">
       <use xlink:href="#DejaVuSans-30"/>
       <use x="63.623047" xlink:href="#DejaVuSans-2e"/>
       <use x="95.410156" xlink:href="#DejaVuSans-30"/>
       <use x="159.033203" xlink:href="#DejaVuSans-36"/>
      </g>
     </g>
    </g>
   </g>
   <g id="patch_3">
    <path d="M 81.619687 343.34 
L 81.619687 10.7 
" style="fill:none;stroke:#000000;stroke-linecap:square;stroke-linejoin:miter;stroke-width:0.8;"/>
   </g>
   <g id="patch_4">
    <path d="M 416.419688 343.34 
L 416.419688 10.7 
" style="fill:none;stroke:#000000;stroke-linecap:square;stroke-linejoin:miter;stroke-width:0.8;"/>
   </g>
   <g id="patch_5">
    <path d="M 81.619687 343.34 
L 416.419688 343.34 
" style="fill:none;stroke:#000000;stroke-linecap:square;stroke-linejoin:miter;stroke-width:0.8;"/>
   </g>
   <g id="patch_6">
    <path d="M 81.619687 10.7 
L 416.419688 10.7 
" style="fill:none;stroke:#000000;stroke-linecap:square;stroke-linejoin:miter;stroke-width:0.8;"/>
   </g>
  </g>
 </g>
 <defs>
  <clipPath id="pe8cb3022aa">
   <rect height="332.64" width="334.8" x="81.619687" y="10.7"/>
  </clipPath>
 </defs>
</svg>
