<?xml version="1.0" encoding="utf-8" standalone="no"?>
<!DOCTYPE svg PUBLIC "-//W3C//DTD SVG 1.1//EN"
  "http://www.w3.org/Graphics/SVG/1.1/DTD/svg11.dtd">
<!-- Created with matplotlib (http://matplotlib.org/) -->
<svg height="160pt" version="1.1" viewBox="0 0 301 160" width="301pt" xmlns="http://www.w3.org/2000/svg" xmlns:xlink="http://www.w3.org/1999/xlink">
 <defs>
  <style type="text/css">
*{stroke-linecap:butt;stroke-linejoin:round;}
  </style>
 </defs>
 <g id="figure_1">
  <g id="patch_1">
   <path d="M 0 160 
L 301.338148 160 
L 301.338148 0 
L 0 0 
z
" style="fill:#ffffff;"/>
  </g>
  <g id="axes_1">
   <g id="patch_2">
    <path d="M 55.400781 149.3 
L 82.620293 149.3 
L 82.620293 10.7 
L 55.400781 10.7 
z
" style="fill:#ffffff;"/>
   </g>
   <g id="PolyCollection_1">
    <defs>
     <path d="M 56.638032 -137.75 
L 56.638032 -80 
L 62.824285 -80 
L 69.010537 -80 
L 75.19679 -80 
L 81.383043 -80 
L 81.383043 -110.404223 
L 81.383043 -110.404223 
L 75.19679 -119.281002 
L 69.010537 -125.877445 
L 62.824285 -129.890664 
L 56.638032 -137.75 
z
" id="m5c77a8c32d" style="stroke:#582f93;"/>
    </defs>
    <g clip-path="url(#pe94a939e87)">
     <use style="fill:#582f93;stroke:#582f93;" x="0" xlink:href="#m5c77a8c32d" y="160"/>
    </g>
   </g>
   <g id="PolyCollection_2">
    <defs>
     <path d="M 56.638032 -80.000285 
L 56.638032 -80 
L 62.824285 -80 
L 69.010537 -80 
L 75.19679 -80 
L 81.383043 -80 
L 81.383043 -80.00514 
L 81.383043 -80.00514 
L 75.19679 -83.963146 
L 69.010537 -102.805948 
L 62.824285 -80.002884 
L 56.638032 -80.000285 
z
" id="mbfbe25b02e" style="stroke:#73c476;stroke-opacity:0.75;"/>
    </defs>
    <g clip-path="url(#pe94a939e87)">
     <use style="fill:#73c476;fill-opacity:0.75;stroke:#73c476;stroke-opacity:0.75;" x="0" xlink:href="#mbfbe25b02e" y="160"/>
    </g>
   </g>
   <g id="matplotlib.axis_1"/>
   <g id="matplotlib.axis_2">
    <g id="ytick_1">
     <g id="line2d_1">
      <defs>
       <path d="M 0 0 
L -3.5 0 
" id="md2f4be7ce1" style="stroke:#000000;stroke-width:0.8;"/>
      </defs>
      <g>
       <use style="stroke:#000000;stroke-width:0.8;" x="55.400781" xlink:href="#md2f4be7ce1" y="130.100433"/>
      </g>
     </g>
     <g id="text_1">
      <!-- −500 -->
      <defs>
       <path d="M 10.59375 35.5 
L 73.1875 35.5 
L 73.1875 27.203125 
L 10.59375 27.203125 
z
" id="DejaVuSans-2212"/>
       <path d="M 10.796875 72.90625 
L 49.515625 72.90625 
L 49.515625 64.59375 
L 19.828125 64.59375 
L 19.828125 46.734375 
Q 21.96875 47.46875 24.109375 47.828125 
Q 26.265625 48.1875 28.421875 48.1875 
Q 40.625 48.1875 47.75 41.5 
Q 54.890625 34.8125 54.890625 23.390625 
Q 54.890625 11.625 47.5625 5.09375 
Q 40.234375 -1.421875 26.90625 -1.421875 
Q 22.3125 -1.421875 17.546875 -0.640625 
Q 12.796875 0.140625 7.71875 1.703125 
L 7.71875 11.625 
Q 12.109375 9.234375 16.796875 8.0625 
Q 21.484375 6.890625 26.703125 6.890625 
Q 35.15625 6.890625 40.078125 11.328125 
Q 45.015625 15.765625 45.015625 23.390625 
Q 45.015625 31 40.078125 35.4375 
Q 35.15625 39.890625 26.703125 39.890625 
Q 22.75 39.890625 18.8125 39.015625 
Q 14.890625 38.140625 10.796875 36.28125 
z
" id="DejaVuSans-35"/>
       <path d="M 31.78125 66.40625 
Q 24.171875 66.40625 20.328125 58.90625 
Q 16.5 51.421875 16.5 36.375 
Q 16.5 21.390625 20.328125 13.890625 
Q 24.171875 6.390625 31.78125 6.390625 
Q 39.453125 6.390625 43.28125 13.890625 
Q 47.125 21.390625 47.125 36.375 
Q 47.125 51.421875 43.28125 58.90625 
Q 39.453125 66.40625 31.78125 66.40625 
z
M 31.78125 74.21875 
Q 44.046875 74.21875 50.515625 64.515625 
Q 56.984375 54.828125 56.984375 36.375 
Q 56.984375 17.96875 50.515625 8.265625 
Q 44.046875 -1.421875 31.78125 -1.421875 
Q 19.53125 -1.421875 13.0625 8.265625 
Q 6.59375 17.96875 6.59375 36.375 
Q 6.59375 54.828125 13.0625 64.515625 
Q 19.53125 74.21875 31.78125 74.21875 
z
" id="DejaVuSans-30"/>
      </defs>
      <g transform="translate(7.2 135.799261)scale(0.15 -0.15)">
       <use xlink:href="#DejaVuSans-2212"/>
       <use x="83.789062" xlink:href="#DejaVuSans-35"/>
       <use x="147.412109" xlink:href="#DejaVuSans-30"/>
       <use x="211.035156" xlink:href="#DejaVuSans-30"/>
      </g>
     </g>
    </g>
    <g id="ytick_2">
     <g id="line2d_2">
      <g>
       <use style="stroke:#000000;stroke-width:0.8;" x="55.400781" xlink:href="#md2f4be7ce1" y="80"/>
      </g>
     </g>
     <g id="text_2">
      <!-- 0 -->
      <g transform="translate(38.857031 85.698828)scale(0.15 -0.15)">
       <use xlink:href="#DejaVuSans-30"/>
      </g>
     </g>
    </g>
    <g id="ytick_3">
     <g id="line2d_3">
      <g>
       <use style="stroke:#000000;stroke-width:0.8;" x="55.400781" xlink:href="#md2f4be7ce1" y="29.899567"/>
      </g>
     </g>
     <g id="text_3">
      <!-- 500 -->
      <g transform="translate(19.769531 35.598395)scale(0.15 -0.15)">
       <use xlink:href="#DejaVuSans-35"/>
       <use x="63.623047" xlink:href="#DejaVuSans-30"/>
       <use x="127.246094" xlink:href="#DejaVuSans-30"/>
      </g>
     </g>
    </g>
   </g>
   <g id="patch_3">
    <path d="M 55.400781 149.3 
L 55.400781 10.7 
" style="fill:none;stroke:#000000;stroke-linecap:square;stroke-linejoin:miter;stroke-width:0.8;"/>
   </g>
   <g id="patch_4">
    <path d="M 82.620293 149.3 
L 82.620293 10.7 
" style="fill:none;stroke:#000000;stroke-linecap:square;stroke-linejoin:miter;stroke-width:0.8;"/>
   </g>
   <g id="patch_5">
    <path d="M 55.400781 149.3 
L 82.620293 149.3 
" style="fill:none;stroke:#000000;stroke-linecap:square;stroke-linejoin:miter;stroke-width:0.8;"/>
   </g>
   <g id="patch_6">
    <path d="M 55.400781 10.7 
L 82.620293 10.7 
" style="fill:none;stroke:#000000;stroke-linecap:square;stroke-linejoin:miter;stroke-width:0.8;"/>
   </g>
  </g>
  <g id="axes_2">
   <g id="patch_7">
    <path d="M 88.064196 149.3 
L 245.937367 149.3 
L 245.937367 10.7 
L 88.064196 10.7 
z
" style="fill:#ffffff;"/>
   </g>
   <g id="PolyCollection_3">
    <defs>
     <path d="M 95.240249 -125.330746 
L 95.240249 -80 
L 96.767069 -80 
L 98.293889 -80 
L 99.820709 -80 
L 101.347528 -80 
L 102.874348 -80 
L 104.401168 -80 
L 105.927988 -80 
L 107.454808 -80 
L 108.981628 -80 
L 110.508447 -80 
L 112.035267 -80 
L 113.562087 -80 
L 115.088907 -80 
L 116.615727 -80 
L 118.142547 -80 
L 119.669366 -80 
L 121.196186 -80 
L 122.723006 -80 
L 124.249826 -80 
L 125.776646 -80 
L 127.303466 -80 
L 128.830285 -80 
L 130.357105 -80 
L 131.883925 -80 
L 133.410745 -80 
L 134.937565 -80 
L 136.464385 -80 
L 137.991204 -80 
L 139.518024 -80 
L 141.044844 -80 
L 142.571664 -80 
L 144.098484 -80 
L 145.625304 -80 
L 147.152123 -80 
L 148.678943 -80 
L 150.205763 -80 
L 151.732583 -80 
L 153.259403 -80 
L 154.786223 -80 
L 156.313042 -80 
L 157.839862 -80 
L 159.366682 -80 
L 160.893502 -80 
L 162.420322 -80 
L 163.947142 -80 
L 165.473961 -80 
L 167.000781 -80 
L 168.527601 -80 
L 170.054421 -80 
L 171.581241 -80 
L 173.108061 -80 
L 174.63488 -80 
L 176.1617 -80 
L 177.68852 -80 
L 179.21534 -80 
L 180.74216 -80 
L 182.26898 -80 
L 183.795799 -80 
L 185.322619 -80 
L 186.849439 -80 
L 188.376259 -80 
L 189.903079 -80 
L 191.429899 -80 
L 192.956718 -80 
L 194.483538 -80 
L 196.010358 -80 
L 197.537178 -80 
L 199.063998 -80 
L 200.590818 -80 
L 202.117637 -80 
L 203.644457 -80 
L 205.171277 -80 
L 206.698097 -80 
L 208.224917 -80 
L 209.751737 -80 
L 211.278556 -80 
L 212.805376 -80 
L 214.332196 -80 
L 215.859016 -80 
L 217.385836 -80 
L 218.912656 -80 
L 220.439475 -80 
L 221.966295 -80 
L 223.493115 -80 
L 225.019935 -80 
L 226.546755 -80 
L 228.073575 -80 
L 229.600394 -80 
L 231.127214 -80 
L 232.654034 -80 
L 234.180854 -80 
L 235.707674 -80 
L 237.234494 -80 
L 238.761313 -80 
L 238.761313 -8.541172 
L 238.761313 -8.541172 
L 237.234494 -67.076708 
L 235.707674 -70.3322 
L 234.180854 -73.912694 
L 232.654034 -75.543352 
L 231.127214 -76.045089 
L 229.600394 -76.936535 
L 228.073575 -77.802771 
L 226.546755 -78.669859 
L 225.019935 -79.160058 
L 223.493115 -79.460843 
L 221.966295 -79.971509 
L 220.439475 -79.976125 
L 218.912656 -79.9782 
L 217.385836 -79.987471 
L 215.859016 -79.987909 
L 214.332196 -79.988757 
L 212.805376 -79.988812 
L 211.278556 -79.990576 
L 209.751737 -79.990636 
L 208.224917 -79.991066 
L 206.698097 -79.991139 
L 205.171277 -79.991345 
L 203.644457 -79.99143 
L 202.117637 -79.991681 
L 200.590818 -79.992874 
L 199.063998 -79.993438 
L 197.537178 -79.993858 
L 196.010358 -79.994406 
L 194.483538 -79.994691 
L 192.956718 -79.996288 
L 191.429899 -79.996813 
L 189.903079 -79.996974 
L 188.376259 -79.997581 
L 186.849439 -79.997967 
L 185.322619 -79.998022 
L 183.795799 -79.999055 
L 182.26898 -80.001473 
L 180.74216 -80.002864 
L 179.21534 -80.003149 
L 177.68852 -80.00543 
L 176.1617 -80.005495 
L 174.63488 -80.005597 
L 173.108061 -80.005696 
L 171.581241 -80.006993 
L 170.054421 -80.007067 
L 168.527601 -80.007208 
L 167.000781 -80.009514 
L 165.473961 -80.009541 
L 163.947142 -80.009709 
L 162.420322 -80.01041 
L 160.893502 -80.010648 
L 159.366682 -80.011344 
L 157.839862 -80.011594 
L 156.313042 -80.012619 
L 154.786223 -80.013854 
L 153.259403 -80.014533 
L 151.732583 -80.016913 
L 150.205763 -80.020716 
L 148.678943 -80.021128 
L 147.152123 -80.025657 
L 145.625304 -80.028034 
L 144.098484 -80.028417 
L 142.571664 -80.113838 
L 141.044844 -80.13706 
L 139.518024 -80.152527 
L 137.991204 -80.18592 
L 136.464385 -80.190142 
L 134.937565 -80.198723 
L 133.410745 -80.22203 
L 131.883925 -80.232163 
L 130.357105 -80.335329 
L 128.830285 -80.690235 
L 127.303466 -81.058432 
L 125.776646 -81.609366 
L 124.249826 -83.751414 
L 122.723006 -83.876099 
L 121.196186 -84.182815 
L 119.669366 -84.442692 
L 118.142547 -84.730961 
L 116.615727 -85.796627 
L 115.088907 -88.638702 
L 113.562087 -89.106163 
L 112.035267 -89.36954 
L 110.508447 -92.144902 
L 108.981628 -92.782136 
L 107.454808 -95.718544 
L 105.927988 -96.01064 
L 104.401168 -97.40449 
L 102.874348 -109.328024 
L 101.347528 -114.153823 
L 99.820709 -117.40199 
L 98.293889 -119.596431 
L 96.767069 -124.559795 
L 95.240249 -125.330746 
z
" id="m4f6625032f" style="stroke:#73c476;stroke-opacity:0.75;"/>
    </defs>
    <g clip-path="url(#p7598df53b4)">
     <use style="fill:#73c476;fill-opacity:0.75;stroke:#73c476;stroke-opacity:0.75;" x="0" xlink:href="#m4f6625032f" y="160"/>
    </g>
   </g>
   <g id="matplotlib.axis_3"/>
   <g id="matplotlib.axis_4">
    <g id="ytick_4">
     <g id="line2d_4">
      <defs>
       <path d="M 0 0 
L 3.5 0 
" id="mbfd07ee063" style="stroke:#000000;stroke-width:0.8;"/>
      </defs>
      <g>
       <use style="stroke:#000000;stroke-width:0.8;" x="245.937367" xlink:href="#mbfd07ee063" y="125.67734"/>
      </g>
     </g>
     <g id="text_4">
      <!-- −100 -->
      <defs>
       <path d="M 12.40625 8.296875 
L 28.515625 8.296875 
L 28.515625 63.921875 
L 10.984375 60.40625 
L 10.984375 69.390625 
L 28.421875 72.90625 
L 38.28125 72.90625 
L 38.28125 8.296875 
L 54.390625 8.296875 
L 54.390625 0 
L 12.40625 0 
z
" id="DejaVuSans-31"/>
      </defs>
      <g transform="translate(252.937367 131.376168)scale(0.15 -0.15)">
       <use xlink:href="#DejaVuSans-2212"/>
       <use x="83.789062" xlink:href="#DejaVuSans-31"/>
       <use x="147.412109" xlink:href="#DejaVuSans-30"/>
       <use x="211.035156" xlink:href="#DejaVuSans-30"/>
      </g>
     </g>
    </g>
    <g id="ytick_5">
     <g id="line2d_5">
      <g>
       <use style="stroke:#000000;stroke-width:0.8;" x="245.937367" xlink:href="#mbfd07ee063" y="80"/>
      </g>
     </g>
     <g id="text_5">
      <!-- 0 -->
      <g transform="translate(252.937367 85.698828)scale(0.15 -0.15)">
       <use xlink:href="#DejaVuSans-30"/>
      </g>
     </g>
    </g>
    <g id="ytick_6">
     <g id="line2d_6">
      <g>
       <use style="stroke:#000000;stroke-width:0.8;" x="245.937367" xlink:href="#mbfd07ee063" y="34.32266"/>
      </g>
     </g>
     <g id="text_6">
      <!-- 100 -->
      <g transform="translate(252.937367 40.021488)scale(0.15 -0.15)">
       <use xlink:href="#DejaVuSans-31"/>
       <use x="63.623047" xlink:href="#DejaVuSans-30"/>
       <use x="127.246094" xlink:href="#DejaVuSans-30"/>
      </g>
     </g>
    </g>
   </g>
   <g id="patch_8">
    <path d="M 88.064196 149.3 
L 88.064196 10.7 
" style="fill:none;stroke:#000000;stroke-linecap:square;stroke-linejoin:miter;stroke-width:0.8;"/>
   </g>
   <g id="patch_9">
    <path d="M 245.937367 149.3 
L 245.937367 10.7 
" style="fill:none;stroke:#000000;stroke-linecap:square;stroke-linejoin:miter;stroke-width:0.8;"/>
   </g>
   <g id="patch_10">
    <path d="M 88.064196 149.3 
L 245.937367 149.3 
" style="fill:none;stroke:#000000;stroke-linecap:square;stroke-linejoin:miter;stroke-width:0.8;"/>
   </g>
   <g id="patch_11">
    <path d="M 88.064196 10.7 
L 245.937367 10.7 
" style="fill:none;stroke:#000000;stroke-linecap:square;stroke-linejoin:miter;stroke-width:0.8;"/>
   </g>
  </g>
 </g>
 <defs>
  <clipPath id="pe94a939e87">
   <rect height="138.6" width="27.219512" x="55.400781" y="10.7"/>
  </clipPath>
  <clipPath id="p7598df53b4">
   <rect height="138.6" width="157.873171" x="88.064196" y="10.7"/>
  </clipPath>
 </defs>
</svg>
