<?xml version="1.0" encoding="utf-8" standalone="no"?>
<!DOCTYPE svg PUBLIC "-//W3C//DTD SVG 1.1//EN"
  "http://www.w3.org/Graphics/SVG/1.1/DTD/svg11.dtd">
<!-- Created with matplotlib (http://matplotlib.org/) -->
<svg height="354pt" version="1.1" viewBox="0 0 404 354" width="404pt" xmlns="http://www.w3.org/2000/svg" xmlns:xlink="http://www.w3.org/1999/xlink">
 <defs>
  <style type="text/css">
*{stroke-linecap:butt;stroke-linejoin:round;}
  </style>
 </defs>
 <g id="figure_1">
  <g id="patch_1">
   <path d="M 0 354.04 
L 404.184955 354.04 
L 404.184955 0 
L 0 0 
z
" style="fill:#ffffff;"/>
  </g>
  <g id="axes_1">
   <g id="patch_2">
    <path d="M 74.627813 343.34 
L 393.484955 343.34 
L 393.484955 10.7 
L 74.627813 10.7 
z
" style="fill:#ffffff;"/>
   </g>
   <g id="matplotlib.axis_1"/>
   <g id="matplotlib.axis_2">
    <g id="ytick_1">
     <g id="line2d_1">
      <defs>
       <path d="M 0 0 
L -3.5 0 
" id="m33481807f8" style="stroke:#000000;stroke-width:0.8;"/>
      </defs>
      <g>
       <use style="stroke:#000000;stroke-width:0.8;" x="74.627813" xlink:href="#m33481807f8" y="300.301556"/>
      </g>
     </g>
     <g id="text_1">
      <!-- −100 -->
      <defs>
       <path d="M 10.59375 35.5 
L 73.1875 35.5 
L 73.1875 27.203125 
L 10.59375 27.203125 
z
" id="DejaVuSans-2212"/>
       <path d="M 12.40625 8.296875 
L 28.515625 8.296875 
L 28.515625 63.921875 
L 10.984375 60.40625 
L 10.984375 69.390625 
L 28.421875 72.90625 
L 38.28125 72.90625 
L 38.28125 8.296875 
L 54.390625 8.296875 
L 54.390625 0 
L 12.40625 0 
z
" id="DejaVuSans-31"/>
       <path d="M 31.78125 66.40625 
Q 24.171875 66.40625 20.328125 58.90625 
Q 16.5 51.421875 16.5 36.375 
Q 16.5 21.390625 20.328125 13.890625 
Q 24.171875 6.390625 31.78125 6.390625 
Q 39.453125 6.390625 43.28125 13.890625 
Q 47.125 21.390625 47.125 36.375 
Q 47.125 51.421875 43.28125 58.90625 
Q 39.453125 66.40625 31.78125 66.40625 
z
M 31.78125 74.21875 
Q 44.046875 74.21875 50.515625 64.515625 
Q 56.984375 54.828125 56.984375 36.375 
Q 56.984375 17.96875 50.515625 8.265625 
Q 44.046875 -1.421875 31.78125 -1.421875 
Q 19.53125 -1.421875 13.0625 8.265625 
Q 6.59375 17.96875 6.59375 36.375 
Q 6.59375 54.828125 13.0625 64.515625 
Q 19.53125 74.21875 31.78125 74.21875 
z
" id="DejaVuSans-30"/>
      </defs>
      <g transform="translate(7.2 308.659837)scale(0.22 -0.22)">
       <use xlink:href="#DejaVuSans-2212"/>
       <use x="83.789062" xlink:href="#DejaVuSans-31"/>
       <use x="147.412109" xlink:href="#DejaVuSans-30"/>
       <use x="211.035156" xlink:href="#DejaVuSans-30"/>
      </g>
     </g>
    </g>
    <g id="ytick_2">
     <g id="line2d_2">
      <g>
       <use style="stroke:#000000;stroke-width:0.8;" x="74.627813" xlink:href="#m33481807f8" y="240.217155"/>
      </g>
     </g>
     <g id="text_2">
      <!-- −50 -->
      <defs>
       <path d="M 10.796875 72.90625 
L 49.515625 72.90625 
L 49.515625 64.59375 
L 19.828125 64.59375 
L 19.828125 46.734375 
Q 21.96875 47.46875 24.109375 47.828125 
Q 26.265625 48.1875 28.421875 48.1875 
Q 40.625 48.1875 47.75 41.5 
Q 54.890625 34.8125 54.890625 23.390625 
Q 54.890625 11.625 47.5625 5.09375 
Q 40.234375 -1.421875 26.90625 -1.421875 
Q 22.3125 -1.421875 17.546875 -0.640625 
Q 12.796875 0.140625 7.71875 1.703125 
L 7.71875 11.625 
Q 12.109375 9.234375 16.796875 8.0625 
Q 21.484375 6.890625 26.703125 6.890625 
Q 35.15625 6.890625 40.078125 11.328125 
Q 45.015625 15.765625 45.015625 23.390625 
Q 45.015625 31 40.078125 35.4375 
Q 35.15625 39.890625 26.703125 39.890625 
Q 22.75 39.890625 18.8125 39.015625 
Q 14.890625 38.140625 10.796875 36.28125 
z
" id="DejaVuSans-35"/>
      </defs>
      <g transform="translate(21.1975 248.575436)scale(0.22 -0.22)">
       <use xlink:href="#DejaVuSans-2212"/>
       <use x="83.789062" xlink:href="#DejaVuSans-35"/>
       <use x="147.412109" xlink:href="#DejaVuSans-30"/>
      </g>
     </g>
    </g>
    <g id="ytick_3">
     <g id="line2d_3">
      <g>
       <use style="stroke:#000000;stroke-width:0.8;" x="74.627813" xlink:href="#m33481807f8" y="180.132753"/>
      </g>
     </g>
     <g id="text_3">
      <!-- 0 -->
      <g transform="translate(53.630313 188.491035)scale(0.22 -0.22)">
       <use xlink:href="#DejaVuSans-30"/>
      </g>
     </g>
    </g>
    <g id="ytick_4">
     <g id="line2d_4">
      <g>
       <use style="stroke:#000000;stroke-width:0.8;" x="74.627813" xlink:href="#m33481807f8" y="120.048352"/>
      </g>
     </g>
     <g id="text_4">
      <!-- 50 -->
      <g transform="translate(39.632812 128.406633)scale(0.22 -0.22)">
       <use xlink:href="#DejaVuSans-35"/>
       <use x="63.623047" xlink:href="#DejaVuSans-30"/>
      </g>
     </g>
    </g>
    <g id="ytick_5">
     <g id="line2d_5">
      <g>
       <use style="stroke:#000000;stroke-width:0.8;" x="74.627813" xlink:href="#m33481807f8" y="59.963951"/>
      </g>
     </g>
     <g id="text_5">
      <!-- 100 -->
      <g transform="translate(25.635313 68.322232)scale(0.22 -0.22)">
       <use xlink:href="#DejaVuSans-31"/>
       <use x="63.623047" xlink:href="#DejaVuSans-30"/>
       <use x="127.246094" xlink:href="#DejaVuSans-30"/>
      </g>
     </g>
    </g>
   </g>
   <g id="patch_3">
    <path clip-path="url(#p8022b06dc6)" d="M 89.121319 180.132753 
L 103.614825 180.132753 
L 103.614825 180.207651 
L 89.121319 180.207651 
z
" style="fill:#d92523;"/>
   </g>
   <g id="patch_4">
    <path clip-path="url(#p8022b06dc6)" d="M 103.614825 180.132753 
L 118.108332 180.132753 
L 118.108332 179.992115 
L 103.614825 179.992115 
z
" style="fill:#d92523;"/>
   </g>
   <g id="patch_5">
    <path clip-path="url(#p8022b06dc6)" d="M 118.108332 180.132753 
L 132.601838 180.132753 
L 132.601838 111.902893 
L 118.108332 111.902893 
z
" style="fill:#d92523;"/>
   </g>
   <g id="patch_6">
    <path clip-path="url(#p8022b06dc6)" d="M 132.601838 180.132753 
L 147.095345 180.132753 
L 147.095345 175.070941 
L 132.601838 175.070941 
z
" style="fill:#d92523;"/>
   </g>
   <g id="patch_7">
    <path clip-path="url(#p8022b06dc6)" d="M 147.095345 180.132753 
L 161.588851 180.132753 
L 161.588851 246.174913 
L 147.095345 246.174913 
z
" style="fill:#d92523;"/>
   </g>
   <g id="patch_8">
    <path clip-path="url(#p8022b06dc6)" d="M 161.588851 180.132753 
L 176.082358 180.132753 
L 176.082358 278.005736 
L 161.588851 278.005736 
z
" style="fill:#d92523;"/>
   </g>
   <g id="patch_9">
    <path clip-path="url(#p8022b06dc6)" d="M 176.082358 180.132753 
L 190.575864 180.132753 
L 190.575864 65.391151 
L 176.082358 65.391151 
z
" style="fill:#d92523;"/>
   </g>
   <g id="patch_10">
    <path clip-path="url(#p8022b06dc6)" d="M 190.575864 180.132753 
L 205.069371 180.132753 
L 205.069371 25.82 
L 190.575864 25.82 
z
" style="fill:#d92523;"/>
   </g>
   <g id="patch_11">
    <path clip-path="url(#p8022b06dc6)" d="M 205.069371 180.132753 
L 219.562877 180.132753 
L 219.562877 180.160357 
L 205.069371 180.160357 
z
" style="fill:#d92523;"/>
   </g>
   <g id="patch_12">
    <path clip-path="url(#p8022b06dc6)" d="M 219.562877 180.132753 
L 234.056384 180.132753 
L 234.056384 180.120952 
L 219.562877 180.120952 
z
" style="fill:#d92523;"/>
   </g>
   <g id="patch_13">
    <path clip-path="url(#p8022b06dc6)" d="M 234.056384 180.132753 
L 248.54989 180.132753 
L 248.54989 180.06003 
L 234.056384 180.06003 
z
" style="fill:#d92523;"/>
   </g>
   <g id="patch_14">
    <path clip-path="url(#p8022b06dc6)" d="M 248.54989 180.132753 
L 263.043397 180.132753 
L 263.043397 180.157559 
L 248.54989 180.157559 
z
" style="fill:#d92523;"/>
   </g>
   <g id="patch_15">
    <path clip-path="url(#p8022b06dc6)" d="M 263.043397 180.132753 
L 277.536903 180.132753 
L 277.536903 180.126784 
L 263.043397 180.126784 
z
" style="fill:#d92523;"/>
   </g>
   <g id="patch_16">
    <path clip-path="url(#p8022b06dc6)" d="M 277.536903 180.132753 
L 292.03041 180.132753 
L 292.03041 247.708074 
L 277.536903 247.708074 
z
" style="fill:#d92523;"/>
   </g>
   <g id="patch_17">
    <path clip-path="url(#p8022b06dc6)" d="M 292.03041 180.132753 
L 306.523916 180.132753 
L 306.523916 179.945927 
L 292.03041 179.945927 
z
" style="fill:#d92523;"/>
   </g>
   <g id="patch_18">
    <path clip-path="url(#p8022b06dc6)" d="M 306.523916 180.132753 
L 321.017423 180.132753 
L 321.017423 160.242581 
L 306.523916 160.242581 
z
" style="fill:#d92523;"/>
   </g>
   <g id="patch_19">
    <path clip-path="url(#p8022b06dc6)" d="M 321.017423 180.132753 
L 335.510929 180.132753 
L 335.510929 113.888473 
L 321.017423 113.888473 
z
" style="fill:#d92523;"/>
   </g>
   <g id="patch_20">
    <path clip-path="url(#p8022b06dc6)" d="M 335.510929 180.132753 
L 350.004436 180.132753 
L 350.004436 264.315224 
L 335.510929 264.315224 
z
" style="fill:#d92523;"/>
   </g>
   <g id="patch_21">
    <path clip-path="url(#p8022b06dc6)" d="M 350.004436 180.132753 
L 364.497942 180.132753 
L 364.497942 180.121288 
L 350.004436 180.121288 
z
" style="fill:#d92523;"/>
   </g>
   <g id="patch_22">
    <path clip-path="url(#p8022b06dc6)" d="M 364.497942 180.132753 
L 378.991449 180.132753 
L 378.991449 180.220622 
L 364.497942 180.220622 
z
" style="fill:#d92523;"/>
   </g>
   <g id="patch_23">
    <path clip-path="url(#p8022b06dc6)" d="M 89.121319 180.132753 
L 103.614825 180.132753 
L 103.614825 180.050276 
L 89.121319 180.050276 
z
" style="fill:#2e7ebc;"/>
   </g>
   <g id="patch_24">
    <path clip-path="url(#p8022b06dc6)" d="M 103.614825 180.132753 
L 118.108332 180.132753 
L 118.108332 180.248915 
L 103.614825 180.248915 
z
" style="fill:#2e7ebc;"/>
   </g>
   <g id="patch_25">
    <path clip-path="url(#p8022b06dc6)" d="M 118.108332 180.132753 
L 132.601838 180.132753 
L 132.601838 249.224558 
L 118.108332 249.224558 
z
" style="fill:#2e7ebc;"/>
   </g>
   <g id="patch_26">
    <path clip-path="url(#p8022b06dc6)" d="M 132.601838 180.132753 
L 147.095345 180.132753 
L 147.095345 183.176766 
L 132.601838 183.176766 
z
" style="fill:#2e7ebc;"/>
   </g>
   <g id="patch_27">
    <path clip-path="url(#p8022b06dc6)" d="M 147.095345 180.132753 
L 161.588851 180.132753 
L 161.588851 112.738503 
L 147.095345 112.738503 
z
" style="fill:#2e7ebc;"/>
   </g>
   <g id="patch_28">
    <path clip-path="url(#p8022b06dc6)" d="M 161.588851 180.132753 
L 176.082358 180.132753 
L 176.082358 84.849929 
L 161.588851 84.849929 
z
" style="fill:#2e7ebc;"/>
   </g>
   <g id="patch_29">
    <path clip-path="url(#p8022b06dc6)" d="M 176.082358 180.132753 
L 190.575864 180.132753 
L 190.575864 293.261579 
L 176.082358 293.261579 
z
" style="fill:#2e7ebc;"/>
   </g>
   <g id="patch_30">
    <path clip-path="url(#p8022b06dc6)" d="M 190.575864 180.132753 
L 205.069371 180.132753 
L 205.069371 328.22 
L 190.575864 328.22 
z
" style="fill:#2e7ebc;"/>
   </g>
   <g id="patch_31">
    <path clip-path="url(#p8022b06dc6)" d="M 205.069371 180.132753 
L 219.562877 180.132753 
L 219.562877 180.219815 
L 205.069371 180.219815 
z
" style="fill:#2e7ebc;"/>
   </g>
   <g id="patch_32">
    <path clip-path="url(#p8022b06dc6)" d="M 219.562877 180.132753 
L 234.056384 180.132753 
L 234.056384 180.133307 
L 219.562877 180.133307 
z
" style="fill:#2e7ebc;"/>
   </g>
   <g id="patch_33">
    <path clip-path="url(#p8022b06dc6)" d="M 234.056384 180.132753 
L 248.54989 180.132753 
L 248.54989 180.018568 
L 234.056384 180.018568 
z
" style="fill:#2e7ebc;"/>
   </g>
   <g id="patch_34">
    <path clip-path="url(#p8022b06dc6)" d="M 248.54989 180.132753 
L 263.043397 180.132753 
L 263.043397 180.219873 
L 248.54989 180.219873 
z
" style="fill:#2e7ebc;"/>
   </g>
   <g id="patch_35">
    <path clip-path="url(#p8022b06dc6)" d="M 263.043397 180.132753 
L 277.536903 180.132753 
L 277.536903 180.012776 
L 263.043397 180.012776 
z
" style="fill:#2e7ebc;"/>
   </g>
   <g id="patch_36">
    <path clip-path="url(#p8022b06dc6)" d="M 277.536903 180.132753 
L 292.03041 180.132753 
L 292.03041 117.750664 
L 277.536903 117.750664 
z
" style="fill:#2e7ebc;"/>
   </g>
   <g id="patch_37">
    <path clip-path="url(#p8022b06dc6)" d="M 292.03041 180.132753 
L 306.523916 180.132753 
L 306.523916 180.166246 
L 292.03041 180.166246 
z
" style="fill:#2e7ebc;"/>
   </g>
   <g id="patch_38">
    <path clip-path="url(#p8022b06dc6)" d="M 306.523916 180.132753 
L 321.017423 180.132753 
L 321.017423 198.698655 
L 306.523916 198.698655 
z
" style="fill:#2e7ebc;"/>
   </g>
   <g id="patch_39">
    <path clip-path="url(#p8022b06dc6)" d="M 321.017423 180.132753 
L 335.510929 180.132753 
L 335.510929 246.224534 
L 321.017423 246.224534 
z
" style="fill:#2e7ebc;"/>
   </g>
   <g id="patch_40">
    <path clip-path="url(#p8022b06dc6)" d="M 335.510929 180.132753 
L 350.004436 180.132753 
L 350.004436 97.332582 
L 335.510929 97.332582 
z
" style="fill:#2e7ebc;"/>
   </g>
   <g id="patch_41">
    <path clip-path="url(#p8022b06dc6)" d="M 350.004436 180.132753 
L 364.497942 180.132753 
L 364.497942 182.208026 
L 350.004436 182.208026 
z
" style="fill:#2e7ebc;"/>
   </g>
   <g id="patch_42">
    <path clip-path="url(#p8022b06dc6)" d="M 364.497942 180.132753 
L 378.991449 180.132753 
L 378.991449 180.100686 
L 364.497942 180.100686 
z
" style="fill:#2e7ebc;"/>
   </g>
   <g id="patch_43">
    <path d="M 74.627813 343.34 
L 74.627813 10.7 
" style="fill:none;stroke:#000000;stroke-linecap:square;stroke-linejoin:miter;stroke-width:0.8;"/>
   </g>
   <g id="patch_44">
    <path d="M 393.484955 343.34 
L 393.484955 10.7 
" style="fill:none;stroke:#000000;stroke-linecap:square;stroke-linejoin:miter;stroke-width:0.8;"/>
   </g>
   <g id="patch_45">
    <path d="M 74.627813 343.34 
L 393.484955 343.34 
" style="fill:none;stroke:#000000;stroke-linecap:square;stroke-linejoin:miter;stroke-width:0.8;"/>
   </g>
   <g id="patch_46">
    <path d="M 74.627813 10.7 
L 393.484955 10.7 
" style="fill:none;stroke:#000000;stroke-linecap:square;stroke-linejoin:miter;stroke-width:0.8;"/>
   </g>
   <g id="patch_47">
    <path clip-path="url(#p8022b06dc6)" d="M 89.121319 180.132753 
L 103.614825 180.132753 
L 103.614825 180.132753 
L 89.121319 180.132753 
z
" style="fill:none;stroke:#000000;stroke-linejoin:miter;"/>
   </g>
   <g id="patch_48">
    <path clip-path="url(#p8022b06dc6)" d="M 103.614825 180.132753 
L 118.108332 180.132753 
L 118.108332 180.132753 
L 103.614825 180.132753 
z
" style="fill:none;stroke:#000000;stroke-linejoin:miter;"/>
   </g>
   <g id="patch_49">
    <path clip-path="url(#p8022b06dc6)" d="M 118.108332 180.132753 
L 132.601838 180.132753 
L 132.601838 180.132753 
L 118.108332 180.132753 
z
" style="fill:none;stroke:#000000;stroke-linejoin:miter;"/>
   </g>
   <g id="patch_50">
    <path clip-path="url(#p8022b06dc6)" d="M 132.601838 180.132753 
L 147.095345 180.132753 
L 147.095345 180.132753 
L 132.601838 180.132753 
z
" style="fill:none;stroke:#000000;stroke-linejoin:miter;"/>
   </g>
   <g id="patch_51">
    <path clip-path="url(#p8022b06dc6)" d="M 147.095345 180.132753 
L 161.588851 180.132753 
L 161.588851 180.132753 
L 147.095345 180.132753 
z
" style="fill:none;stroke:#000000;stroke-linejoin:miter;"/>
   </g>
   <g id="patch_52">
    <path clip-path="url(#p8022b06dc6)" d="M 161.588851 180.132753 
L 176.082358 180.132753 
L 176.082358 180.132753 
L 161.588851 180.132753 
z
" style="fill:none;stroke:#000000;stroke-linejoin:miter;"/>
   </g>
   <g id="patch_53">
    <path clip-path="url(#p8022b06dc6)" d="M 176.082358 180.132753 
L 190.575864 180.132753 
L 190.575864 180.132753 
L 176.082358 180.132753 
z
" style="fill:none;stroke:#000000;stroke-linejoin:miter;"/>
   </g>
   <g id="patch_54">
    <path clip-path="url(#p8022b06dc6)" d="M 190.575864 180.132753 
L 205.069371 180.132753 
L 205.069371 180.132753 
L 190.575864 180.132753 
z
" style="fill:none;stroke:#000000;stroke-linejoin:miter;"/>
   </g>
   <g id="patch_55">
    <path clip-path="url(#p8022b06dc6)" d="M 205.069371 180.132753 
L 219.562877 180.132753 
L 219.562877 180.132753 
L 205.069371 180.132753 
z
" style="fill:none;stroke:#000000;stroke-linejoin:miter;"/>
   </g>
   <g id="patch_56">
    <path clip-path="url(#p8022b06dc6)" d="M 219.562877 180.132753 
L 234.056384 180.132753 
L 234.056384 180.132753 
L 219.562877 180.132753 
z
" style="fill:none;stroke:#000000;stroke-linejoin:miter;"/>
   </g>
   <g id="patch_57">
    <path clip-path="url(#p8022b06dc6)" d="M 234.056384 180.132753 
L 248.54989 180.132753 
L 248.54989 180.132753 
L 234.056384 180.132753 
z
" style="fill:none;stroke:#000000;stroke-linejoin:miter;"/>
   </g>
   <g id="patch_58">
    <path clip-path="url(#p8022b06dc6)" d="M 248.54989 180.132753 
L 263.043397 180.132753 
L 263.043397 180.132753 
L 248.54989 180.132753 
z
" style="fill:none;stroke:#000000;stroke-linejoin:miter;"/>
   </g>
   <g id="patch_59">
    <path clip-path="url(#p8022b06dc6)" d="M 263.043397 180.132753 
L 277.536903 180.132753 
L 277.536903 180.132753 
L 263.043397 180.132753 
z
" style="fill:none;stroke:#000000;stroke-linejoin:miter;"/>
   </g>
   <g id="patch_60">
    <path clip-path="url(#p8022b06dc6)" d="M 277.536903 180.132753 
L 292.03041 180.132753 
L 292.03041 180.132753 
L 277.536903 180.132753 
z
" style="fill:none;stroke:#000000;stroke-linejoin:miter;"/>
   </g>
   <g id="patch_61">
    <path clip-path="url(#p8022b06dc6)" d="M 292.03041 180.132753 
L 306.523916 180.132753 
L 306.523916 180.132753 
L 292.03041 180.132753 
z
" style="fill:none;stroke:#000000;stroke-linejoin:miter;"/>
   </g>
   <g id="patch_62">
    <path clip-path="url(#p8022b06dc6)" d="M 306.523916 180.132753 
L 321.017423 180.132753 
L 321.017423 180.132753 
L 306.523916 180.132753 
z
" style="fill:none;stroke:#000000;stroke-linejoin:miter;"/>
   </g>
   <g id="patch_63">
    <path clip-path="url(#p8022b06dc6)" d="M 321.017423 180.132753 
L 335.510929 180.132753 
L 335.510929 180.132753 
L 321.017423 180.132753 
z
" style="fill:none;stroke:#000000;stroke-linejoin:miter;"/>
   </g>
   <g id="patch_64">
    <path clip-path="url(#p8022b06dc6)" d="M 335.510929 180.132753 
L 350.004436 180.132753 
L 350.004436 180.132753 
L 335.510929 180.132753 
z
" style="fill:none;stroke:#000000;stroke-linejoin:miter;"/>
   </g>
   <g id="patch_65">
    <path clip-path="url(#p8022b06dc6)" d="M 350.004436 180.132753 
L 364.497942 180.132753 
L 364.497942 180.132753 
L 350.004436 180.132753 
z
" style="fill:none;stroke:#000000;stroke-linejoin:miter;"/>
   </g>
   <g id="patch_66">
    <path clip-path="url(#p8022b06dc6)" d="M 364.497942 180.132753 
L 378.991449 180.132753 
L 378.991449 180.132753 
L 364.497942 180.132753 
z
" style="fill:none;stroke:#000000;stroke-linejoin:miter;"/>
   </g>
   <g id="patch_67">
    <path clip-path="url(#p8022b06dc6)" d="M 89.121319 180.132753 
L 103.614825 180.132753 
L 103.614825 180.132753 
L 89.121319 180.132753 
z
" style="fill:none;stroke:#000000;stroke-linejoin:miter;"/>
   </g>
   <g id="patch_68">
    <path clip-path="url(#p8022b06dc6)" d="M 103.614825 180.132753 
L 118.108332 180.132753 
L 118.108332 180.132753 
L 103.614825 180.132753 
z
" style="fill:none;stroke:#000000;stroke-linejoin:miter;"/>
   </g>
   <g id="patch_69">
    <path clip-path="url(#p8022b06dc6)" d="M 118.108332 180.132753 
L 132.601838 180.132753 
L 132.601838 180.132753 
L 118.108332 180.132753 
z
" style="fill:none;stroke:#000000;stroke-linejoin:miter;"/>
   </g>
   <g id="patch_70">
    <path clip-path="url(#p8022b06dc6)" d="M 132.601838 180.132753 
L 147.095345 180.132753 
L 147.095345 180.132753 
L 132.601838 180.132753 
z
" style="fill:none;stroke:#000000;stroke-linejoin:miter;"/>
   </g>
   <g id="patch_71">
    <path clip-path="url(#p8022b06dc6)" d="M 147.095345 180.132753 
L 161.588851 180.132753 
L 161.588851 180.132753 
L 147.095345 180.132753 
z
" style="fill:none;stroke:#000000;stroke-linejoin:miter;"/>
   </g>
   <g id="patch_72">
    <path clip-path="url(#p8022b06dc6)" d="M 161.588851 180.132753 
L 176.082358 180.132753 
L 176.082358 180.132753 
L 161.588851 180.132753 
z
" style="fill:none;stroke:#000000;stroke-linejoin:miter;"/>
   </g>
   <g id="patch_73">
    <path clip-path="url(#p8022b06dc6)" d="M 176.082358 180.132753 
L 190.575864 180.132753 
L 190.575864 180.132753 
L 176.082358 180.132753 
z
" style="fill:none;stroke:#000000;stroke-linejoin:miter;"/>
   </g>
   <g id="patch_74">
    <path clip-path="url(#p8022b06dc6)" d="M 190.575864 180.132753 
L 205.069371 180.132753 
L 205.069371 180.132753 
L 190.575864 180.132753 
z
" style="fill:none;stroke:#000000;stroke-linejoin:miter;"/>
   </g>
   <g id="patch_75">
    <path clip-path="url(#p8022b06dc6)" d="M 205.069371 180.132753 
L 219.562877 180.132753 
L 219.562877 180.132753 
L 205.069371 180.132753 
z
" style="fill:none;stroke:#000000;stroke-linejoin:miter;"/>
   </g>
   <g id="patch_76">
    <path clip-path="url(#p8022b06dc6)" d="M 219.562877 180.132753 
L 234.056384 180.132753 
L 234.056384 180.132753 
L 219.562877 180.132753 
z
" style="fill:none;stroke:#000000;stroke-linejoin:miter;"/>
   </g>
   <g id="patch_77">
    <path clip-path="url(#p8022b06dc6)" d="M 234.056384 180.132753 
L 248.54989 180.132753 
L 248.54989 180.132753 
L 234.056384 180.132753 
z
" style="fill:none;stroke:#000000;stroke-linejoin:miter;"/>
   </g>
   <g id="patch_78">
    <path clip-path="url(#p8022b06dc6)" d="M 248.54989 180.132753 
L 263.043397 180.132753 
L 263.043397 180.132753 
L 248.54989 180.132753 
z
" style="fill:none;stroke:#000000;stroke-linejoin:miter;"/>
   </g>
   <g id="patch_79">
    <path clip-path="url(#p8022b06dc6)" d="M 263.043397 180.132753 
L 277.536903 180.132753 
L 277.536903 180.132753 
L 263.043397 180.132753 
z
" style="fill:none;stroke:#000000;stroke-linejoin:miter;"/>
   </g>
   <g id="patch_80">
    <path clip-path="url(#p8022b06dc6)" d="M 277.536903 180.132753 
L 292.03041 180.132753 
L 292.03041 180.132753 
L 277.536903 180.132753 
z
" style="fill:none;stroke:#000000;stroke-linejoin:miter;"/>
   </g>
   <g id="patch_81">
    <path clip-path="url(#p8022b06dc6)" d="M 292.03041 180.132753 
L 306.523916 180.132753 
L 306.523916 180.132753 
L 292.03041 180.132753 
z
" style="fill:none;stroke:#000000;stroke-linejoin:miter;"/>
   </g>
   <g id="patch_82">
    <path clip-path="url(#p8022b06dc6)" d="M 306.523916 180.132753 
L 321.017423 180.132753 
L 321.017423 180.132753 
L 306.523916 180.132753 
z
" style="fill:none;stroke:#000000;stroke-linejoin:miter;"/>
   </g>
   <g id="patch_83">
    <path clip-path="url(#p8022b06dc6)" d="M 321.017423 180.132753 
L 335.510929 180.132753 
L 335.510929 180.132753 
L 321.017423 180.132753 
z
" style="fill:none;stroke:#000000;stroke-linejoin:miter;"/>
   </g>
   <g id="patch_84">
    <path clip-path="url(#p8022b06dc6)" d="M 335.510929 180.132753 
L 350.004436 180.132753 
L 350.004436 180.132753 
L 335.510929 180.132753 
z
" style="fill:none;stroke:#000000;stroke-linejoin:miter;"/>
   </g>
   <g id="patch_85">
    <path clip-path="url(#p8022b06dc6)" d="M 350.004436 180.132753 
L 364.497942 180.132753 
L 364.497942 180.132753 
L 350.004436 180.132753 
z
" style="fill:none;stroke:#000000;stroke-linejoin:miter;"/>
   </g>
   <g id="patch_86">
    <path clip-path="url(#p8022b06dc6)" d="M 364.497942 180.132753 
L 378.991449 180.132753 
L 378.991449 180.132753 
L 364.497942 180.132753 
z
" style="fill:none;stroke:#000000;stroke-linejoin:miter;"/>
   </g>
  </g>
 </g>
 <defs>
  <clipPath id="p8022b06dc6">
   <rect height="332.64" width="318.857143" x="74.627813" y="10.7"/>
  </clipPath>
 </defs>
</svg>
