<?xml version="1.0" encoding="utf-8" standalone="no"?>
<!DOCTYPE svg PUBLIC "-//W3C//DTD SVG 1.1//EN"
  "http://www.w3.org/Graphics/SVG/1.1/DTD/svg11.dtd">
<!-- Created with matplotlib (http://matplotlib.org/) -->
<svg height="187pt" version="1.1" viewBox="0 0 187 187" width="187pt" xmlns="http://www.w3.org/2000/svg" xmlns:xlink="http://www.w3.org/1999/xlink">
 <defs>
  <style type="text/css">
*{stroke-linecap:butt;stroke-linejoin:round;}
  </style>
 </defs>
 <g id="figure_1">
  <g id="patch_1">
   <path d="M 0 187 
L 187 187 
L 187 -0 
L 0 -0 
z
" style="fill:#ffffff;"/>
  </g>
  <g id="axes_1">
   <g id="patch_2">
    <path d="M 3.5 183.5 
L 183.5 183.5 
L 183.5 3.5 
L 3.5 3.5 
z
" style="fill:#ffffff;"/>
   </g>
   <g id="matplotlib.axis_1"/>
   <g id="matplotlib.axis_2"/>
   <g id="line2d_1">
    <path clip-path="url(#pb65f9a6003)" d="M 7.1 181.680369 
L 10.7 173.665952 
L 14.3 169.043786 
L 17.9 171.060856 
L 21.5 164.576682 
L 25.1 157.770564 
L 28.7 161.784899 
L 32.3 136.701838 
L 35.9 147.969963 
L 39.5 145.196137 
L 43.1 135.087876 
L 46.7 136.482044 
L 50.3 119.936782 
L 53.9 134.689366 
L 57.5 144.491247 
L 61.1 135.035914 
L 64.7 129.799154 
L 68.3 117.575998 
L 71.9 92.489225 
L 75.5 81.24368 
L 79.1 75.271691 
L 82.7 92.275392 
L 86.3 71.357887 
L 89.9 44.315515 
L 93.5 42.90702 
L 97.1 53.564235 
L 100.7 34.932598 
L 104.3 52.343167 
L 107.9 7.280573 
L 111.5 44.515193 
L 115.1 33.271797 
L 118.7 51.460865 
L 122.3 47.866794 
L 125.9 42.028316 
L 129.5 7.037845 
L 133.1 20.613124 
L 136.7 6.314695 
L 140.3 69.03979 
L 143.9 13.223131 
L 147.5 6.36736 
L 151.1 28.860968 
L 154.7 6.037561 
L 158.3 5.466218 
" style="fill:none;stroke:#23898e;stroke-linecap:square;stroke-width:2;"/>
    <defs>
     <path d="M 0 3 
C 0.795609 3 1.55874 2.683901 2.12132 2.12132 
C 2.683901 1.55874 3 0.795609 3 0 
C 3 -0.795609 2.683901 -1.55874 2.12132 -2.12132 
C 1.55874 -2.683901 0.795609 -3 0 -3 
C -0.795609 -3 -1.55874 -2.683901 -2.12132 -2.12132 
C -2.683901 -1.55874 -3 -0.795609 -3 0 
C -3 0.795609 -2.683901 1.55874 -2.12132 2.12132 
C -1.55874 2.683901 -0.795609 3 0 3 
z
" id="m4b10abff9f" style="stroke:#23898e;"/>
    </defs>
    <g clip-path="url(#pb65f9a6003)">
     <use style="fill:#23898e;stroke:#23898e;" x="7.1" xlink:href="#m4b10abff9f" y="181.680369"/>
     <use style="fill:#23898e;stroke:#23898e;" x="10.7" xlink:href="#m4b10abff9f" y="173.665952"/>
     <use style="fill:#23898e;stroke:#23898e;" x="14.3" xlink:href="#m4b10abff9f" y="169.043786"/>
     <use style="fill:#23898e;stroke:#23898e;" x="17.9" xlink:href="#m4b10abff9f" y="171.060856"/>
     <use style="fill:#23898e;stroke:#23898e;" x="21.5" xlink:href="#m4b10abff9f" y="164.576682"/>
     <use style="fill:#23898e;stroke:#23898e;" x="25.1" xlink:href="#m4b10abff9f" y="157.770564"/>
     <use style="fill:#23898e;stroke:#23898e;" x="28.7" xlink:href="#m4b10abff9f" y="161.784899"/>
     <use style="fill:#23898e;stroke:#23898e;" x="32.3" xlink:href="#m4b10abff9f" y="136.701838"/>
     <use style="fill:#23898e;stroke:#23898e;" x="35.9" xlink:href="#m4b10abff9f" y="147.969963"/>
     <use style="fill:#23898e;stroke:#23898e;" x="39.5" xlink:href="#m4b10abff9f" y="145.196137"/>
     <use style="fill:#23898e;stroke:#23898e;" x="43.1" xlink:href="#m4b10abff9f" y="135.087876"/>
     <use style="fill:#23898e;stroke:#23898e;" x="46.7" xlink:href="#m4b10abff9f" y="136.482044"/>
     <use style="fill:#23898e;stroke:#23898e;" x="50.3" xlink:href="#m4b10abff9f" y="119.936782"/>
     <use style="fill:#23898e;stroke:#23898e;" x="53.9" xlink:href="#m4b10abff9f" y="134.689366"/>
     <use style="fill:#23898e;stroke:#23898e;" x="57.5" xlink:href="#m4b10abff9f" y="144.491247"/>
     <use style="fill:#23898e;stroke:#23898e;" x="61.1" xlink:href="#m4b10abff9f" y="135.035914"/>
     <use style="fill:#23898e;stroke:#23898e;" x="64.7" xlink:href="#m4b10abff9f" y="129.799154"/>
     <use style="fill:#23898e;stroke:#23898e;" x="68.3" xlink:href="#m4b10abff9f" y="117.575998"/>
     <use style="fill:#23898e;stroke:#23898e;" x="71.9" xlink:href="#m4b10abff9f" y="92.489225"/>
     <use style="fill:#23898e;stroke:#23898e;" x="75.5" xlink:href="#m4b10abff9f" y="81.24368"/>
     <use style="fill:#23898e;stroke:#23898e;" x="79.1" xlink:href="#m4b10abff9f" y="75.271691"/>
     <use style="fill:#23898e;stroke:#23898e;" x="82.7" xlink:href="#m4b10abff9f" y="92.275392"/>
     <use style="fill:#23898e;stroke:#23898e;" x="86.3" xlink:href="#m4b10abff9f" y="71.357887"/>
     <use style="fill:#23898e;stroke:#23898e;" x="89.9" xlink:href="#m4b10abff9f" y="44.315515"/>
     <use style="fill:#23898e;stroke:#23898e;" x="93.5" xlink:href="#m4b10abff9f" y="42.90702"/>
     <use style="fill:#23898e;stroke:#23898e;" x="97.1" xlink:href="#m4b10abff9f" y="53.564235"/>
     <use style="fill:#23898e;stroke:#23898e;" x="100.7" xlink:href="#m4b10abff9f" y="34.932598"/>
     <use style="fill:#23898e;stroke:#23898e;" x="104.3" xlink:href="#m4b10abff9f" y="52.343167"/>
     <use style="fill:#23898e;stroke:#23898e;" x="107.9" xlink:href="#m4b10abff9f" y="7.280573"/>
     <use style="fill:#23898e;stroke:#23898e;" x="111.5" xlink:href="#m4b10abff9f" y="44.515193"/>
     <use style="fill:#23898e;stroke:#23898e;" x="115.1" xlink:href="#m4b10abff9f" y="33.271797"/>
     <use style="fill:#23898e;stroke:#23898e;" x="118.7" xlink:href="#m4b10abff9f" y="51.460865"/>
     <use style="fill:#23898e;stroke:#23898e;" x="122.3" xlink:href="#m4b10abff9f" y="47.866794"/>
     <use style="fill:#23898e;stroke:#23898e;" x="125.9" xlink:href="#m4b10abff9f" y="42.028316"/>
     <use style="fill:#23898e;stroke:#23898e;" x="129.5" xlink:href="#m4b10abff9f" y="7.037845"/>
     <use style="fill:#23898e;stroke:#23898e;" x="133.1" xlink:href="#m4b10abff9f" y="20.613124"/>
     <use style="fill:#23898e;stroke:#23898e;" x="136.7" xlink:href="#m4b10abff9f" y="6.314695"/>
     <use style="fill:#23898e;stroke:#23898e;" x="140.3" xlink:href="#m4b10abff9f" y="69.03979"/>
     <use style="fill:#23898e;stroke:#23898e;" x="143.9" xlink:href="#m4b10abff9f" y="13.223131"/>
     <use style="fill:#23898e;stroke:#23898e;" x="147.5" xlink:href="#m4b10abff9f" y="6.36736"/>
     <use style="fill:#23898e;stroke:#23898e;" x="151.1" xlink:href="#m4b10abff9f" y="28.860968"/>
     <use style="fill:#23898e;stroke:#23898e;" x="154.7" xlink:href="#m4b10abff9f" y="6.037561"/>
     <use style="fill:#23898e;stroke:#23898e;" x="158.3" xlink:href="#m4b10abff9f" y="5.466218"/>
    </g>
   </g>
   <g id="patch_3">
    <path d="M 3.5 183.5 
L 3.5 3.5 
" style="fill:none;stroke:#000000;stroke-linecap:square;stroke-linejoin:miter;stroke-width:0.8;"/>
   </g>
   <g id="patch_4">
    <path d="M 183.5 183.5 
L 183.5 3.5 
" style="fill:none;stroke:#000000;stroke-linecap:square;stroke-linejoin:miter;stroke-width:0.8;"/>
   </g>
   <g id="patch_5">
    <path d="M 3.5 183.5 
L 183.5 183.5 
" style="fill:none;stroke:#000000;stroke-linecap:square;stroke-linejoin:miter;stroke-width:0.8;"/>
   </g>
   <g id="patch_6">
    <path d="M 3.5 3.5 
L 183.5 3.5 
" style="fill:none;stroke:#000000;stroke-linecap:square;stroke-linejoin:miter;stroke-width:0.8;"/>
   </g>
  </g>
 </g>
 <defs>
  <clipPath id="pb65f9a6003">
   <rect height="180" width="180" x="3.5" y="3.5"/>
  </clipPath>
 </defs>
</svg>
