<?xml version="1.0" encoding="utf-8" standalone="no"?>
<!DOCTYPE svg PUBLIC "-//W3C//DTD SVG 1.1//EN"
  "http://www.w3.org/Graphics/SVG/1.1/DTD/svg11.dtd">
<!-- Created with matplotlib (http://matplotlib.org/) -->
<svg height="187pt" version="1.1" viewBox="0 0 187 187" width="187pt" xmlns="http://www.w3.org/2000/svg" xmlns:xlink="http://www.w3.org/1999/xlink">
 <defs>
  <style type="text/css">
*{stroke-linecap:butt;stroke-linejoin:round;}
  </style>
 </defs>
 <g id="figure_1">
  <g id="patch_1">
   <path d="M 0 187 
L 187 187 
L 187 -0 
L 0 -0 
z
" style="fill:#ffffff;"/>
  </g>
  <g id="axes_1">
   <g id="patch_2">
    <path d="M 3.5 183.5 
L 183.5 183.5 
L 183.5 3.5 
L 3.5 3.5 
z
" style="fill:#ffffff;"/>
   </g>
   <g id="matplotlib.axis_1"/>
   <g id="matplotlib.axis_2"/>
   <g id="line2d_1">
    <path clip-path="url(#pc643ee6462)" d="M 7.1 181.605286 
L 10.7 171.249694 
L 14.3 169.267451 
L 17.9 158.333782 
L 21.5 155.183529 
L 25.1 148.875059 
L 28.7 145.81395 
L 32.3 149.709916 
L 35.9 143.811765 
L 39.5 156.461176 
L 43.1 132.5375 
L 46.7 138.571765 
L 50.3 135.598503 
L 53.9 136.704235 
L 57.5 127.862353 
L 61.1 121.266891 
L 64.7 97.468471 
L 68.3 81.758529 
L 71.9 75.952471 
L 75.5 91.270588 
L 79.1 119.812824 
L 82.7 66.405989 
L 86.3 75.854118 
L 89.9 58.255647 
L 93.5 59.113333 
L 97.1 50.945098 
L 100.7 78.815882 
L 104.3 72.466765 
L 107.9 50.337647 
L 111.5 68.238992 
L 115.1 71.667059 
L 118.7 30.579765 
L 122.3 82.617815 
L 125.9 107.958039 
L 129.5 66.825027 
L 133.1 109.088449 
L 136.7 84.738235 
L 140.3 121.814225 
L 143.9 103.457509 
L 147.5 136.738319 
L 151.1 113.934393 
L 154.7 139.885647 
L 158.3 153.217461 
L 161.9 142.529454 
L 165.5 158.419443 
L 169.1 123.267941 
L 172.7 27.842027 
L 176.3 29.23933 
L 179.9 19.563125 
L 183.5 27.274987 
" style="fill:none;stroke:#2c728e;stroke-linecap:square;stroke-width:2;"/>
    <defs>
     <path d="M 0 3 
C 0.795609 3 1.55874 2.683901 2.12132 2.12132 
C 2.683901 1.55874 3 0.795609 3 0 
C 3 -0.795609 2.683901 -1.55874 2.12132 -2.12132 
C 1.55874 -2.683901 0.795609 -3 0 -3 
C -0.795609 -3 -1.55874 -2.683901 -2.12132 -2.12132 
C -2.683901 -1.55874 -3 -0.795609 -3 0 
C -3 0.795609 -2.683901 1.55874 -2.12132 2.12132 
C -1.55874 2.683901 -0.795609 3 0 3 
z
" id="ma65dc42391" style="stroke:#2c728e;"/>
    </defs>
    <g clip-path="url(#pc643ee6462)">
     <use style="fill:#2c728e;stroke:#2c728e;" x="7.1" xlink:href="#ma65dc42391" y="181.605286"/>
     <use style="fill:#2c728e;stroke:#2c728e;" x="10.7" xlink:href="#ma65dc42391" y="171.249694"/>
     <use style="fill:#2c728e;stroke:#2c728e;" x="14.3" xlink:href="#ma65dc42391" y="169.267451"/>
     <use style="fill:#2c728e;stroke:#2c728e;" x="17.9" xlink:href="#ma65dc42391" y="158.333782"/>
     <use style="fill:#2c728e;stroke:#2c728e;" x="21.5" xlink:href="#ma65dc42391" y="155.183529"/>
     <use style="fill:#2c728e;stroke:#2c728e;" x="25.1" xlink:href="#ma65dc42391" y="148.875059"/>
     <use style="fill:#2c728e;stroke:#2c728e;" x="28.7" xlink:href="#ma65dc42391" y="145.81395"/>
     <use style="fill:#2c728e;stroke:#2c728e;" x="32.3" xlink:href="#ma65dc42391" y="149.709916"/>
     <use style="fill:#2c728e;stroke:#2c728e;" x="35.9" xlink:href="#ma65dc42391" y="143.811765"/>
     <use style="fill:#2c728e;stroke:#2c728e;" x="39.5" xlink:href="#ma65dc42391" y="156.461176"/>
     <use style="fill:#2c728e;stroke:#2c728e;" x="43.1" xlink:href="#ma65dc42391" y="132.5375"/>
     <use style="fill:#2c728e;stroke:#2c728e;" x="46.7" xlink:href="#ma65dc42391" y="138.571765"/>
     <use style="fill:#2c728e;stroke:#2c728e;" x="50.3" xlink:href="#ma65dc42391" y="135.598503"/>
     <use style="fill:#2c728e;stroke:#2c728e;" x="53.9" xlink:href="#ma65dc42391" y="136.704235"/>
     <use style="fill:#2c728e;stroke:#2c728e;" x="57.5" xlink:href="#ma65dc42391" y="127.862353"/>
     <use style="fill:#2c728e;stroke:#2c728e;" x="61.1" xlink:href="#ma65dc42391" y="121.266891"/>
     <use style="fill:#2c728e;stroke:#2c728e;" x="64.7" xlink:href="#ma65dc42391" y="97.468471"/>
     <use style="fill:#2c728e;stroke:#2c728e;" x="68.3" xlink:href="#ma65dc42391" y="81.758529"/>
     <use style="fill:#2c728e;stroke:#2c728e;" x="71.9" xlink:href="#ma65dc42391" y="75.952471"/>
     <use style="fill:#2c728e;stroke:#2c728e;" x="75.5" xlink:href="#ma65dc42391" y="91.270588"/>
     <use style="fill:#2c728e;stroke:#2c728e;" x="79.1" xlink:href="#ma65dc42391" y="119.812824"/>
     <use style="fill:#2c728e;stroke:#2c728e;" x="82.7" xlink:href="#ma65dc42391" y="66.405989"/>
     <use style="fill:#2c728e;stroke:#2c728e;" x="86.3" xlink:href="#ma65dc42391" y="75.854118"/>
     <use style="fill:#2c728e;stroke:#2c728e;" x="89.9" xlink:href="#ma65dc42391" y="58.255647"/>
     <use style="fill:#2c728e;stroke:#2c728e;" x="93.5" xlink:href="#ma65dc42391" y="59.113333"/>
     <use style="fill:#2c728e;stroke:#2c728e;" x="97.1" xlink:href="#ma65dc42391" y="50.945098"/>
     <use style="fill:#2c728e;stroke:#2c728e;" x="100.7" xlink:href="#ma65dc42391" y="78.815882"/>
     <use style="fill:#2c728e;stroke:#2c728e;" x="104.3" xlink:href="#ma65dc42391" y="72.466765"/>
     <use style="fill:#2c728e;stroke:#2c728e;" x="107.9" xlink:href="#ma65dc42391" y="50.337647"/>
     <use style="fill:#2c728e;stroke:#2c728e;" x="111.5" xlink:href="#ma65dc42391" y="68.238992"/>
     <use style="fill:#2c728e;stroke:#2c728e;" x="115.1" xlink:href="#ma65dc42391" y="71.667059"/>
     <use style="fill:#2c728e;stroke:#2c728e;" x="118.7" xlink:href="#ma65dc42391" y="30.579765"/>
     <use style="fill:#2c728e;stroke:#2c728e;" x="122.3" xlink:href="#ma65dc42391" y="82.617815"/>
     <use style="fill:#2c728e;stroke:#2c728e;" x="125.9" xlink:href="#ma65dc42391" y="107.958039"/>
     <use style="fill:#2c728e;stroke:#2c728e;" x="129.5" xlink:href="#ma65dc42391" y="66.825027"/>
     <use style="fill:#2c728e;stroke:#2c728e;" x="133.1" xlink:href="#ma65dc42391" y="109.088449"/>
     <use style="fill:#2c728e;stroke:#2c728e;" x="136.7" xlink:href="#ma65dc42391" y="84.738235"/>
     <use style="fill:#2c728e;stroke:#2c728e;" x="140.3" xlink:href="#ma65dc42391" y="121.814225"/>
     <use style="fill:#2c728e;stroke:#2c728e;" x="143.9" xlink:href="#ma65dc42391" y="103.457509"/>
     <use style="fill:#2c728e;stroke:#2c728e;" x="147.5" xlink:href="#ma65dc42391" y="136.738319"/>
     <use style="fill:#2c728e;stroke:#2c728e;" x="151.1" xlink:href="#ma65dc42391" y="113.934393"/>
     <use style="fill:#2c728e;stroke:#2c728e;" x="154.7" xlink:href="#ma65dc42391" y="139.885647"/>
     <use style="fill:#2c728e;stroke:#2c728e;" x="158.3" xlink:href="#ma65dc42391" y="153.217461"/>
     <use style="fill:#2c728e;stroke:#2c728e;" x="161.9" xlink:href="#ma65dc42391" y="142.529454"/>
     <use style="fill:#2c728e;stroke:#2c728e;" x="165.5" xlink:href="#ma65dc42391" y="158.419443"/>
     <use style="fill:#2c728e;stroke:#2c728e;" x="169.1" xlink:href="#ma65dc42391" y="123.267941"/>
     <use style="fill:#2c728e;stroke:#2c728e;" x="172.7" xlink:href="#ma65dc42391" y="27.842027"/>
     <use style="fill:#2c728e;stroke:#2c728e;" x="176.3" xlink:href="#ma65dc42391" y="29.23933"/>
     <use style="fill:#2c728e;stroke:#2c728e;" x="179.9" xlink:href="#ma65dc42391" y="19.563125"/>
     <use style="fill:#2c728e;stroke:#2c728e;" x="183.5" xlink:href="#ma65dc42391" y="27.274987"/>
    </g>
   </g>
   <g id="patch_3">
    <path d="M 3.5 183.5 
L 3.5 3.5 
" style="fill:none;stroke:#000000;stroke-linecap:square;stroke-linejoin:miter;stroke-width:0.8;"/>
   </g>
   <g id="patch_4">
    <path d="M 183.5 183.5 
L 183.5 3.5 
" style="fill:none;stroke:#000000;stroke-linecap:square;stroke-linejoin:miter;stroke-width:0.8;"/>
   </g>
   <g id="patch_5">
    <path d="M 3.5 183.5 
L 183.5 183.5 
" style="fill:none;stroke:#000000;stroke-linecap:square;stroke-linejoin:miter;stroke-width:0.8;"/>
   </g>
   <g id="patch_6">
    <path d="M 3.5 3.5 
L 183.5 3.5 
" style="fill:none;stroke:#000000;stroke-linecap:square;stroke-linejoin:miter;stroke-width:0.8;"/>
   </g>
  </g>
 </g>
 <defs>
  <clipPath id="pc643ee6462">
   <rect height="180" width="180" x="3.5" y="3.5"/>
  </clipPath>
 </defs>
</svg>
