<?xml version="1.0" encoding="utf-8" standalone="no"?>
<!DOCTYPE svg PUBLIC "-//W3C//DTD SVG 1.1//EN"
  "http://www.w3.org/Graphics/SVG/1.1/DTD/svg11.dtd">
<!-- Created with matplotlib (http://matplotlib.org/) -->
<svg height="187pt" version="1.1" viewBox="0 0 187 187" width="187pt" xmlns="http://www.w3.org/2000/svg" xmlns:xlink="http://www.w3.org/1999/xlink">
 <defs>
  <style type="text/css">
*{stroke-linecap:butt;stroke-linejoin:round;}
  </style>
 </defs>
 <g id="figure_1">
  <g id="patch_1">
   <path d="M 0 187 
L 187 187 
L 187 -0 
L 0 -0 
z
" style="fill:#ffffff;"/>
  </g>
  <g id="axes_1">
   <g id="patch_2">
    <path d="M 3.5 183.5 
L 183.5 183.5 
L 183.5 3.5 
L 3.5 3.5 
z
" style="fill:#ffffff;"/>
   </g>
   <g id="matplotlib.axis_1"/>
   <g id="matplotlib.axis_2"/>
   <g id="line2d_1">
    <path clip-path="url(#p9376b1e044)" d="M 7.1 181.677978 
L 10.7 178.770816 
L 14.3 169.183314 
L 17.9 168.148925 
L 21.5 158.688235 
L 25.1 154.881176 
L 28.7 146.499342 
L 32.3 134.80817 
L 35.9 126.869821 
L 39.5 115.950588 
L 43.1 88.500452 
L 46.7 93.151968 
L 50.3 60.230118 
L 53.9 38.394966 
L 57.5 99.95528 
L 61.1 76.123713 
L 64.7 94.948382 
L 68.3 54.330518 
L 71.9 40.613971 
L 75.5 36.243388 
L 79.1 14.582582 
L 82.7 14.326471 
L 86.3 13.720168 
L 89.9 12.216705 
" style="fill:none;stroke:#375b8d;stroke-linecap:square;stroke-width:2;"/>
    <defs>
     <path d="M 0 3 
C 0.795609 3 1.55874 2.683901 2.12132 2.12132 
C 2.683901 1.55874 3 0.795609 3 0 
C 3 -0.795609 2.683901 -1.55874 2.12132 -2.12132 
C 1.55874 -2.683901 0.795609 -3 0 -3 
C -0.795609 -3 -1.55874 -2.683901 -2.12132 -2.12132 
C -2.683901 -1.55874 -3 -0.795609 -3 0 
C -3 0.795609 -2.683901 1.55874 -2.12132 2.12132 
C -1.55874 2.683901 -0.795609 3 0 3 
z
" id="m691275659f" style="stroke:#375b8d;"/>
    </defs>
    <g clip-path="url(#p9376b1e044)">
     <use style="fill:#375b8d;stroke:#375b8d;" x="7.1" xlink:href="#m691275659f" y="181.677978"/>
     <use style="fill:#375b8d;stroke:#375b8d;" x="10.7" xlink:href="#m691275659f" y="178.770816"/>
     <use style="fill:#375b8d;stroke:#375b8d;" x="14.3" xlink:href="#m691275659f" y="169.183314"/>
     <use style="fill:#375b8d;stroke:#375b8d;" x="17.9" xlink:href="#m691275659f" y="168.148925"/>
     <use style="fill:#375b8d;stroke:#375b8d;" x="21.5" xlink:href="#m691275659f" y="158.688235"/>
     <use style="fill:#375b8d;stroke:#375b8d;" x="25.1" xlink:href="#m691275659f" y="154.881176"/>
     <use style="fill:#375b8d;stroke:#375b8d;" x="28.7" xlink:href="#m691275659f" y="146.499342"/>
     <use style="fill:#375b8d;stroke:#375b8d;" x="32.3" xlink:href="#m691275659f" y="134.80817"/>
     <use style="fill:#375b8d;stroke:#375b8d;" x="35.9" xlink:href="#m691275659f" y="126.869821"/>
     <use style="fill:#375b8d;stroke:#375b8d;" x="39.5" xlink:href="#m691275659f" y="115.950588"/>
     <use style="fill:#375b8d;stroke:#375b8d;" x="43.1" xlink:href="#m691275659f" y="88.500452"/>
     <use style="fill:#375b8d;stroke:#375b8d;" x="46.7" xlink:href="#m691275659f" y="93.151968"/>
     <use style="fill:#375b8d;stroke:#375b8d;" x="50.3" xlink:href="#m691275659f" y="60.230118"/>
     <use style="fill:#375b8d;stroke:#375b8d;" x="53.9" xlink:href="#m691275659f" y="38.394966"/>
     <use style="fill:#375b8d;stroke:#375b8d;" x="57.5" xlink:href="#m691275659f" y="99.95528"/>
     <use style="fill:#375b8d;stroke:#375b8d;" x="61.1" xlink:href="#m691275659f" y="76.123713"/>
     <use style="fill:#375b8d;stroke:#375b8d;" x="64.7" xlink:href="#m691275659f" y="94.948382"/>
     <use style="fill:#375b8d;stroke:#375b8d;" x="68.3" xlink:href="#m691275659f" y="54.330518"/>
     <use style="fill:#375b8d;stroke:#375b8d;" x="71.9" xlink:href="#m691275659f" y="40.613971"/>
     <use style="fill:#375b8d;stroke:#375b8d;" x="75.5" xlink:href="#m691275659f" y="36.243388"/>
     <use style="fill:#375b8d;stroke:#375b8d;" x="79.1" xlink:href="#m691275659f" y="14.582582"/>
     <use style="fill:#375b8d;stroke:#375b8d;" x="82.7" xlink:href="#m691275659f" y="14.326471"/>
     <use style="fill:#375b8d;stroke:#375b8d;" x="86.3" xlink:href="#m691275659f" y="13.720168"/>
     <use style="fill:#375b8d;stroke:#375b8d;" x="89.9" xlink:href="#m691275659f" y="12.216705"/>
    </g>
   </g>
   <g id="patch_3">
    <path d="M 3.5 183.5 
L 3.5 3.5 
" style="fill:none;stroke:#000000;stroke-linecap:square;stroke-linejoin:miter;stroke-width:0.8;"/>
   </g>
   <g id="patch_4">
    <path d="M 183.5 183.5 
L 183.5 3.5 
" style="fill:none;stroke:#000000;stroke-linecap:square;stroke-linejoin:miter;stroke-width:0.8;"/>
   </g>
   <g id="patch_5">
    <path d="M 3.5 183.5 
L 183.5 183.5 
" style="fill:none;stroke:#000000;stroke-linecap:square;stroke-linejoin:miter;stroke-width:0.8;"/>
   </g>
   <g id="patch_6">
    <path d="M 3.5 3.5 
L 183.5 3.5 
" style="fill:none;stroke:#000000;stroke-linecap:square;stroke-linejoin:miter;stroke-width:0.8;"/>
   </g>
  </g>
 </g>
 <defs>
  <clipPath id="p9376b1e044">
   <rect height="180" width="180" x="3.5" y="3.5"/>
  </clipPath>
 </defs>
</svg>
