<?xml version="1.0" encoding="utf-8" standalone="no"?>
<!DOCTYPE svg PUBLIC "-//W3C//DTD SVG 1.1//EN"
  "http://www.w3.org/Graphics/SVG/1.1/DTD/svg11.dtd">
<!-- Created with matplotlib (http://matplotlib.org/) -->
<svg height="187pt" version="1.1" viewBox="0 0 187 187" width="187pt" xmlns="http://www.w3.org/2000/svg" xmlns:xlink="http://www.w3.org/1999/xlink">
 <defs>
  <style type="text/css">
*{stroke-linecap:butt;stroke-linejoin:round;}
  </style>
 </defs>
 <g id="figure_1">
  <g id="patch_1">
   <path d="M 0 187 
L 187 187 
L 187 -0 
L 0 -0 
z
" style="fill:#ffffff;"/>
  </g>
  <g id="axes_1">
   <g id="patch_2">
    <path d="M 3.5 183.5 
L 183.5 183.5 
L 183.5 3.5 
L 3.5 3.5 
z
" style="fill:#ffffff;"/>
   </g>
   <g id="matplotlib.axis_1"/>
   <g id="matplotlib.axis_2"/>
   <g id="line2d_1">
    <path clip-path="url(#pd51115cbc0)" d="M 7.1 181.689575 
L 10.7 181.735294 
L 14.3 174.589533 
L 17.9 171.360294 
L 21.5 157.197941 
L 25.1 164.536029 
L 28.7 149.963025 
L 32.3 141.877647 
L 35.9 124.985882 
L 39.5 125.076324 
L 43.1 131.940021 
L 46.7 88.597549 
L 50.3 61.020588 
L 53.9 60.560747 
L 57.5 79.496691 
L 61.1 31.511397 
L 64.7 39.500339 
L 68.3 37.07542 
L 71.9 14.981985 
L 75.5 20.472353 
L 79.1 21.351544 
L 82.7 15.536176 
L 86.3 10.031933 
L 89.9 16.078493 
L 93.5 11.239216 
L 97.1 13.947634 
L 100.7 5.758824 
L 104.3 14.312255 
L 107.9 5.410529 
L 111.5 6.207397 
L 115.1 19.569283 
L 118.7 5.324706 
L 122.3 5.410964 
L 125.9 5.264706 
L 129.5 7.57563 
L 133.1 5.264706 
L 136.7 5.455691 
L 140.3 21.542596 
L 143.9 5.264706 
L 147.5 5.264706 
L 151.1 5.264706 
L 154.7 5.264706 
" style="fill:none;stroke:#375b8d;stroke-linecap:square;stroke-width:2;"/>
    <defs>
     <path d="M 0 3 
C 0.795609 3 1.55874 2.683901 2.12132 2.12132 
C 2.683901 1.55874 3 0.795609 3 0 
C 3 -0.795609 2.683901 -1.55874 2.12132 -2.12132 
C 1.55874 -2.683901 0.795609 -3 0 -3 
C -0.795609 -3 -1.55874 -2.683901 -2.12132 -2.12132 
C -2.683901 -1.55874 -3 -0.795609 -3 0 
C -3 0.795609 -2.683901 1.55874 -2.12132 2.12132 
C -1.55874 2.683901 -0.795609 3 0 3 
z
" id="m60dd3c95bb" style="stroke:#375b8d;"/>
    </defs>
    <g clip-path="url(#pd51115cbc0)">
     <use style="fill:#375b8d;stroke:#375b8d;" x="7.1" xlink:href="#m60dd3c95bb" y="181.689575"/>
     <use style="fill:#375b8d;stroke:#375b8d;" x="10.7" xlink:href="#m60dd3c95bb" y="181.735294"/>
     <use style="fill:#375b8d;stroke:#375b8d;" x="14.3" xlink:href="#m60dd3c95bb" y="174.589533"/>
     <use style="fill:#375b8d;stroke:#375b8d;" x="17.9" xlink:href="#m60dd3c95bb" y="171.360294"/>
     <use style="fill:#375b8d;stroke:#375b8d;" x="21.5" xlink:href="#m60dd3c95bb" y="157.197941"/>
     <use style="fill:#375b8d;stroke:#375b8d;" x="25.1" xlink:href="#m60dd3c95bb" y="164.536029"/>
     <use style="fill:#375b8d;stroke:#375b8d;" x="28.7" xlink:href="#m60dd3c95bb" y="149.963025"/>
     <use style="fill:#375b8d;stroke:#375b8d;" x="32.3" xlink:href="#m60dd3c95bb" y="141.877647"/>
     <use style="fill:#375b8d;stroke:#375b8d;" x="35.9" xlink:href="#m60dd3c95bb" y="124.985882"/>
     <use style="fill:#375b8d;stroke:#375b8d;" x="39.5" xlink:href="#m60dd3c95bb" y="125.076324"/>
     <use style="fill:#375b8d;stroke:#375b8d;" x="43.1" xlink:href="#m60dd3c95bb" y="131.940021"/>
     <use style="fill:#375b8d;stroke:#375b8d;" x="46.7" xlink:href="#m60dd3c95bb" y="88.597549"/>
     <use style="fill:#375b8d;stroke:#375b8d;" x="50.3" xlink:href="#m60dd3c95bb" y="61.020588"/>
     <use style="fill:#375b8d;stroke:#375b8d;" x="53.9" xlink:href="#m60dd3c95bb" y="60.560747"/>
     <use style="fill:#375b8d;stroke:#375b8d;" x="57.5" xlink:href="#m60dd3c95bb" y="79.496691"/>
     <use style="fill:#375b8d;stroke:#375b8d;" x="61.1" xlink:href="#m60dd3c95bb" y="31.511397"/>
     <use style="fill:#375b8d;stroke:#375b8d;" x="64.7" xlink:href="#m60dd3c95bb" y="39.500339"/>
     <use style="fill:#375b8d;stroke:#375b8d;" x="68.3" xlink:href="#m60dd3c95bb" y="37.07542"/>
     <use style="fill:#375b8d;stroke:#375b8d;" x="71.9" xlink:href="#m60dd3c95bb" y="14.981985"/>
     <use style="fill:#375b8d;stroke:#375b8d;" x="75.5" xlink:href="#m60dd3c95bb" y="20.472353"/>
     <use style="fill:#375b8d;stroke:#375b8d;" x="79.1" xlink:href="#m60dd3c95bb" y="21.351544"/>
     <use style="fill:#375b8d;stroke:#375b8d;" x="82.7" xlink:href="#m60dd3c95bb" y="15.536176"/>
     <use style="fill:#375b8d;stroke:#375b8d;" x="86.3" xlink:href="#m60dd3c95bb" y="10.031933"/>
     <use style="fill:#375b8d;stroke:#375b8d;" x="89.9" xlink:href="#m60dd3c95bb" y="16.078493"/>
     <use style="fill:#375b8d;stroke:#375b8d;" x="93.5" xlink:href="#m60dd3c95bb" y="11.239216"/>
     <use style="fill:#375b8d;stroke:#375b8d;" x="97.1" xlink:href="#m60dd3c95bb" y="13.947634"/>
     <use style="fill:#375b8d;stroke:#375b8d;" x="100.7" xlink:href="#m60dd3c95bb" y="5.758824"/>
     <use style="fill:#375b8d;stroke:#375b8d;" x="104.3" xlink:href="#m60dd3c95bb" y="14.312255"/>
     <use style="fill:#375b8d;stroke:#375b8d;" x="107.9" xlink:href="#m60dd3c95bb" y="5.410529"/>
     <use style="fill:#375b8d;stroke:#375b8d;" x="111.5" xlink:href="#m60dd3c95bb" y="6.207397"/>
     <use style="fill:#375b8d;stroke:#375b8d;" x="115.1" xlink:href="#m60dd3c95bb" y="19.569283"/>
     <use style="fill:#375b8d;stroke:#375b8d;" x="118.7" xlink:href="#m60dd3c95bb" y="5.324706"/>
     <use style="fill:#375b8d;stroke:#375b8d;" x="122.3" xlink:href="#m60dd3c95bb" y="5.410964"/>
     <use style="fill:#375b8d;stroke:#375b8d;" x="125.9" xlink:href="#m60dd3c95bb" y="5.264706"/>
     <use style="fill:#375b8d;stroke:#375b8d;" x="129.5" xlink:href="#m60dd3c95bb" y="7.57563"/>
     <use style="fill:#375b8d;stroke:#375b8d;" x="133.1" xlink:href="#m60dd3c95bb" y="5.264706"/>
     <use style="fill:#375b8d;stroke:#375b8d;" x="136.7" xlink:href="#m60dd3c95bb" y="5.455691"/>
     <use style="fill:#375b8d;stroke:#375b8d;" x="140.3" xlink:href="#m60dd3c95bb" y="21.542596"/>
     <use style="fill:#375b8d;stroke:#375b8d;" x="143.9" xlink:href="#m60dd3c95bb" y="5.264706"/>
     <use style="fill:#375b8d;stroke:#375b8d;" x="147.5" xlink:href="#m60dd3c95bb" y="5.264706"/>
     <use style="fill:#375b8d;stroke:#375b8d;" x="151.1" xlink:href="#m60dd3c95bb" y="5.264706"/>
     <use style="fill:#375b8d;stroke:#375b8d;" x="154.7" xlink:href="#m60dd3c95bb" y="5.264706"/>
    </g>
   </g>
   <g id="patch_3">
    <path d="M 3.5 183.5 
L 3.5 3.5 
" style="fill:none;stroke:#000000;stroke-linecap:square;stroke-linejoin:miter;stroke-width:0.8;"/>
   </g>
   <g id="patch_4">
    <path d="M 183.5 183.5 
L 183.5 3.5 
" style="fill:none;stroke:#000000;stroke-linecap:square;stroke-linejoin:miter;stroke-width:0.8;"/>
   </g>
   <g id="patch_5">
    <path d="M 3.5 183.5 
L 183.5 183.5 
" style="fill:none;stroke:#000000;stroke-linecap:square;stroke-linejoin:miter;stroke-width:0.8;"/>
   </g>
   <g id="patch_6">
    <path d="M 3.5 3.5 
L 183.5 3.5 
" style="fill:none;stroke:#000000;stroke-linecap:square;stroke-linejoin:miter;stroke-width:0.8;"/>
   </g>
  </g>
 </g>
 <defs>
  <clipPath id="pd51115cbc0">
   <rect height="180" width="180" x="3.5" y="3.5"/>
  </clipPath>
 </defs>
</svg>
