<?xml version="1.0" encoding="utf-8" standalone="no"?>
<!DOCTYPE svg PUBLIC "-//W3C//DTD SVG 1.1//EN"
  "http://www.w3.org/Graphics/SVG/1.1/DTD/svg11.dtd">
<!-- Created with matplotlib (http://matplotlib.org/) -->
<svg height="354pt" version="1.1" viewBox="0 0 413 354" width="413pt" xmlns="http://www.w3.org/2000/svg" xmlns:xlink="http://www.w3.org/1999/xlink">
 <defs>
  <style type="text/css">
*{stroke-linecap:butt;stroke-linejoin:round;}
  </style>
 </defs>
 <g id="figure_1">
  <g id="patch_1">
   <path d="M 0 354.04 
L 413.122187 354.04 
L 413.122187 0 
L 0 0 
z
" style="fill:#ffffff;"/>
  </g>
  <g id="axes_1">
   <g id="patch_2">
    <path d="M 67.622187 343.34 
L 402.422188 343.34 
L 402.422188 10.7 
L 67.622187 10.7 
z
" style="fill:#ffffff;"/>
   </g>
   <g id="PolyCollection_1">
    <defs>
     <path d="M 82.840369 -25.82 
L 82.840369 -164.740094 
L 86.14867 -164.740094 
L 89.45697 -164.740094 
L 92.765271 -164.740094 
L 96.073571 -164.740094 
L 99.381871 -164.740094 
L 102.690172 -164.740094 
L 105.998472 -164.740094 
L 109.306772 -164.740094 
L 112.615073 -164.740094 
L 115.923373 -164.740094 
L 119.231674 -164.740094 
L 122.539974 -164.740094 
L 125.848274 -164.740094 
L 129.156575 -164.740094 
L 132.464875 -164.740094 
L 135.773176 -164.740094 
L 139.081476 -164.740094 
L 142.389776 -164.740094 
L 145.698077 -164.740094 
L 149.006377 -164.740094 
L 152.314678 -164.740094 
L 155.622978 -164.740094 
L 158.931278 -164.740094 
L 162.239579 -164.740094 
L 165.547879 -164.740094 
L 168.85618 -164.740094 
L 172.16448 -164.740094 
L 175.47278 -164.740094 
L 178.781081 -164.740094 
L 182.089381 -164.740094 
L 185.397682 -164.740094 
L 188.705982 -164.740094 
L 192.014282 -164.740094 
L 195.322583 -164.740094 
L 198.630883 -164.740094 
L 201.939184 -164.740094 
L 205.247484 -164.740094 
L 208.555784 -164.740094 
L 211.864085 -164.740094 
L 215.172385 -164.740094 
L 218.480686 -164.740094 
L 221.788986 -164.740094 
L 225.097286 -164.740094 
L 228.405587 -164.740094 
L 231.713887 -164.740094 
L 235.022188 -164.740094 
L 238.330488 -164.740094 
L 241.638788 -164.740094 
L 244.947089 -164.740094 
L 248.255389 -164.740094 
L 251.563689 -164.740094 
L 254.87199 -164.740094 
L 258.18029 -164.740094 
L 261.488591 -164.740094 
L 264.796891 -164.740094 
L 268.105191 -164.740094 
L 271.413492 -164.740094 
L 274.721792 -164.740094 
L 278.030093 -164.740094 
L 281.338393 -164.740094 
L 284.646693 -164.740094 
L 287.954994 -164.740094 
L 291.263294 -164.740094 
L 294.571595 -164.740094 
L 297.879895 -164.740094 
L 301.188195 -164.740094 
L 304.496496 -164.740094 
L 307.804796 -164.740094 
L 311.113097 -164.740094 
L 314.421397 -164.740094 
L 317.729697 -164.740094 
L 321.037998 -164.740094 
L 324.346298 -164.740094 
L 327.654599 -164.740094 
L 330.962899 -164.740094 
L 334.271199 -164.740094 
L 337.5795 -164.740094 
L 340.8878 -164.740094 
L 344.196101 -164.740094 
L 347.504401 -164.740094 
L 350.812701 -164.740094 
L 354.121002 -164.740094 
L 357.429302 -164.740094 
L 360.737603 -164.740094 
L 364.045903 -164.740094 
L 367.354203 -164.740094 
L 370.662504 -164.740094 
L 373.970804 -164.740094 
L 377.279104 -164.740094 
L 380.587405 -164.740094 
L 383.895705 -164.740094 
L 387.204006 -164.740094 
L 387.204006 -328.22 
L 387.204006 -328.22 
L 383.895705 -277.77679 
L 380.587405 -270.527471 
L 377.279104 -245.589592 
L 373.970804 -237.412585 
L 370.662504 -232.806222 
L 367.354203 -228.184689 
L 364.045903 -226.888216 
L 360.737603 -219.920861 
L 357.429302 -217.470063 
L 354.121002 -211.330723 
L 350.812701 -209.889772 
L 347.504401 -209.456216 
L 344.196101 -208.360987 
L 340.8878 -207.490892 
L 337.5795 -203.915707 
L 334.271199 -202.67885 
L 330.962899 -195.431644 
L 327.654599 -189.689692 
L 324.346298 -183.893449 
L 321.037998 -181.928526 
L 317.729697 -181.243212 
L 314.421397 -180.818938 
L 311.113097 -180.052022 
L 307.804796 -178.776358 
L 304.496496 -178.328681 
L 301.188195 -177.292963 
L 297.879895 -173.283206 
L 294.571595 -172.398701 
L 291.263294 -171.784845 
L 287.954994 -171.46731 
L 284.646693 -167.735165 
L 281.338393 -167.301073 
L 278.030093 -167.124296 
L 274.721792 -165.351932 
L 271.413492 -165.298874 
L 268.105191 -165.298269 
L 264.796891 -165.108378 
L 261.488591 -165.085565 
L 258.18029 -165.014947 
L 254.87199 -164.971215 
L 251.563689 -164.957109 
L 248.255389 -164.859855 
L 244.947089 -164.808112 
L 241.638788 -164.80341 
L 238.330488 -164.790997 
L 235.022188 -164.78181 
L 231.713887 -164.779193 
L 228.405587 -164.774253 
L 225.097286 -164.770252 
L 221.788986 -164.765058 
L 218.480686 -164.764848 
L 215.172385 -164.75407 
L 211.864085 -164.747569 
L 208.555784 -164.746333 
L 205.247484 -164.734893 
L 201.939184 -164.73189 
L 198.630883 -164.731345 
L 195.322583 -164.727635 
L 192.014282 -164.723322 
L 188.705982 -164.722054 
L 185.397682 -164.722022 
L 182.089381 -164.719207 
L 178.781081 -164.707317 
L 175.47278 -164.702097 
L 172.16448 -164.700825 
L 168.85618 -164.699038 
L 165.547879 -164.684385 
L 162.239579 -164.682504 
L 158.931278 -164.666627 
L 155.622978 -164.651847 
L 152.314678 -164.646062 
L 149.006377 -164.543608 
L 145.698077 -164.499118 
L 142.389776 -164.475835 
L 139.081476 -164.455746 
L 135.773176 -164.435497 
L 132.464875 -164.410446 
L 129.156575 -163.809712 
L 125.848274 -163.533946 
L 122.539974 -163.273749 
L 119.231674 -162.459476 
L 115.923373 -162.225244 
L 112.615073 -150.920175 
L 109.306772 -150.120996 
L 105.998472 -132.18484 
L 102.690172 -120.438553 
L 99.381871 -114.148822 
L 96.073571 -86.288194 
L 92.765271 -85.396853 
L 89.45697 -46.024595 
L 86.14867 -40.772151 
L 82.840369 -25.82 
z
" id="m266f02cc1b" style="stroke:#4a98c9;"/>
    </defs>
    <g clip-path="url(#pf6332cc605)">
     <use style="fill:#4a98c9;stroke:#4a98c9;" x="0" xlink:href="#m266f02cc1b" y="354.04"/>
    </g>
   </g>
   <g id="PolyCollection_2">
    <defs>
     <path d="M 82.840369 -98.075046 
L 82.840369 -164.740094 
L 86.14867 -164.740094 
L 89.45697 -164.740094 
L 92.765271 -164.740094 
L 96.073571 -164.740094 
L 99.381871 -164.740094 
L 102.690172 -164.740094 
L 105.998472 -164.740094 
L 109.306772 -164.740094 
L 112.615073 -164.740094 
L 115.923373 -164.740094 
L 119.231674 -164.740094 
L 122.539974 -164.740094 
L 125.848274 -164.740094 
L 129.156575 -164.740094 
L 132.464875 -164.740094 
L 135.773176 -164.740094 
L 139.081476 -164.740094 
L 142.389776 -164.740094 
L 145.698077 -164.740094 
L 149.006377 -164.740094 
L 152.314678 -164.740094 
L 155.622978 -164.740094 
L 158.931278 -164.740094 
L 162.239579 -164.740094 
L 165.547879 -164.740094 
L 168.85618 -164.740094 
L 172.16448 -164.740094 
L 175.47278 -164.740094 
L 178.781081 -164.740094 
L 182.089381 -164.740094 
L 185.397682 -164.740094 
L 188.705982 -164.740094 
L 192.014282 -164.740094 
L 195.322583 -164.740094 
L 198.630883 -164.740094 
L 201.939184 -164.740094 
L 205.247484 -164.740094 
L 208.555784 -164.740094 
L 211.864085 -164.740094 
L 215.172385 -164.740094 
L 218.480686 -164.740094 
L 221.788986 -164.740094 
L 225.097286 -164.740094 
L 228.405587 -164.740094 
L 231.713887 -164.740094 
L 235.022188 -164.740094 
L 238.330488 -164.740094 
L 241.638788 -164.740094 
L 244.947089 -164.740094 
L 248.255389 -164.740094 
L 251.563689 -164.740094 
L 254.87199 -164.740094 
L 258.18029 -164.740094 
L 261.488591 -164.740094 
L 264.796891 -164.740094 
L 268.105191 -164.740094 
L 271.413492 -164.740094 
L 274.721792 -164.740094 
L 278.030093 -164.740094 
L 281.338393 -164.740094 
L 284.646693 -164.740094 
L 287.954994 -164.740094 
L 291.263294 -164.740094 
L 294.571595 -164.740094 
L 297.879895 -164.740094 
L 301.188195 -164.740094 
L 304.496496 -164.740094 
L 307.804796 -164.740094 
L 311.113097 -164.740094 
L 314.421397 -164.740094 
L 317.729697 -164.740094 
L 321.037998 -164.740094 
L 324.346298 -164.740094 
L 327.654599 -164.740094 
L 330.962899 -164.740094 
L 334.271199 -164.740094 
L 337.5795 -164.740094 
L 340.8878 -164.740094 
L 344.196101 -164.740094 
L 347.504401 -164.740094 
L 350.812701 -164.740094 
L 354.121002 -164.740094 
L 357.429302 -164.740094 
L 360.737603 -164.740094 
L 364.045903 -164.740094 
L 367.354203 -164.740094 
L 370.662504 -164.740094 
L 373.970804 -164.740094 
L 377.279104 -164.740094 
L 380.587405 -164.740094 
L 383.895705 -164.740094 
L 387.204006 -164.740094 
L 387.204006 -236.740492 
L 387.204006 -236.740492 
L 383.895705 -219.639897 
L 380.587405 -213.479334 
L 377.279104 -201.269685 
L 373.970804 -200.027526 
L 370.662504 -196.193849 
L 367.354203 -193.27348 
L 364.045903 -190.037493 
L 360.737603 -188.18825 
L 357.429302 -187.045619 
L 354.121002 -186.765431 
L 350.812701 -185.664268 
L 347.504401 -184.873403 
L 344.196101 -184.408865 
L 340.8878 -184.254063 
L 337.5795 -183.131592 
L 334.271199 -182.758474 
L 330.962899 -175.573725 
L 327.654599 -174.861167 
L 324.346298 -174.708082 
L 321.037998 -172.320516 
L 317.729697 -170.605994 
L 314.421397 -169.954969 
L 311.113097 -169.93271 
L 307.804796 -169.856984 
L 304.496496 -169.256842 
L 301.188195 -169.254038 
L 297.879895 -168.989344 
L 294.571595 -168.247983 
L 291.263294 -167.791044 
L 287.954994 -166.928559 
L 284.646693 -166.793211 
L 281.338393 -166.638689 
L 278.030093 -166.151763 
L 274.721792 -165.927964 
L 271.413492 -165.751683 
L 268.105191 -165.632112 
L 264.796891 -165.081116 
L 261.488591 -164.879489 
L 258.18029 -164.854133 
L 254.87199 -164.846165 
L 251.563689 -164.846097 
L 248.255389 -164.843343 
L 244.947089 -164.816878 
L 241.638788 -164.800682 
L 238.330488 -164.80021 
L 235.022188 -164.795212 
L 231.713887 -164.794576 
L 228.405587 -164.794047 
L 225.097286 -164.793505 
L 221.788986 -164.785 
L 218.480686 -164.78309 
L 215.172385 -164.767158 
L 211.864085 -164.765739 
L 208.555784 -164.76368 
L 205.247484 -164.760521 
L 201.939184 -164.75973 
L 198.630883 -164.750619 
L 195.322583 -164.750569 
L 192.014282 -164.745483 
L 188.705982 -164.739178 
L 185.397682 -164.739094 
L 182.089381 -164.730544 
L 178.781081 -164.730386 
L 175.47278 -164.727949 
L 172.16448 -164.719041 
L 168.85618 -164.709477 
L 165.547879 -164.706943 
L 162.239579 -164.703805 
L 158.931278 -164.691221 
L 155.622978 -164.631502 
L 152.314678 -164.62916 
L 149.006377 -164.60084 
L 145.698077 -164.465913 
L 142.389776 -164.39384 
L 139.081476 -164.185677 
L 135.773176 -164.119605 
L 132.464875 -163.997153 
L 129.156575 -163.810174 
L 125.848274 -163.731771 
L 122.539974 -163.115816 
L 119.231674 -162.783688 
L 115.923373 -162.352817 
L 112.615073 -161.336393 
L 109.306772 -160.997366 
L 105.998472 -151.25433 
L 102.690172 -147.778183 
L 99.381871 -144.36062 
L 96.073571 -133.158762 
L 92.765271 -121.35027 
L 89.45697 -117.370083 
L 86.14867 -109.105796 
L 82.840369 -98.075046 
z
" id="m7a6e6ec65f" style="stroke:#f14432;stroke-opacity:0.8;"/>
    </defs>
    <g clip-path="url(#pf6332cc605)">
     <use style="fill:#f14432;fill-opacity:0.8;stroke:#f14432;stroke-opacity:0.8;" x="0" xlink:href="#m7a6e6ec65f" y="354.04"/>
    </g>
   </g>
   <g id="matplotlib.axis_1"/>
   <g id="matplotlib.axis_2">
    <g id="ytick_1">
     <g id="line2d_1">
      <defs>
       <path d="M 0 0 
L -3.5 0 
" id="md898f4fce4" style="stroke:#000000;stroke-width:0.8;"/>
      </defs>
      <g>
       <use style="stroke:#000000;stroke-width:0.8;" x="67.622187" xlink:href="#md898f4fce4" y="292.585698"/>
      </g>
     </g>
     <g id="text_1">
      <!-- −0.2 -->
      <defs>
       <path d="M 10.59375 35.5 
L 73.1875 35.5 
L 73.1875 27.203125 
L 10.59375 27.203125 
z
" id="DejaVuSans-2212"/>
       <path d="M 31.78125 66.40625 
Q 24.171875 66.40625 20.328125 58.90625 
Q 16.5 51.421875 16.5 36.375 
Q 16.5 21.390625 20.328125 13.890625 
Q 24.171875 6.390625 31.78125 6.390625 
Q 39.453125 6.390625 43.28125 13.890625 
Q 47.125 21.390625 47.125 36.375 
Q 47.125 51.421875 43.28125 58.90625 
Q 39.453125 66.40625 31.78125 66.40625 
z
M 31.78125 74.21875 
Q 44.046875 74.21875 50.515625 64.515625 
Q 56.984375 54.828125 56.984375 36.375 
Q 56.984375 17.96875 50.515625 8.265625 
Q 44.046875 -1.421875 31.78125 -1.421875 
Q 19.53125 -1.421875 13.0625 8.265625 
Q 6.59375 17.96875 6.59375 36.375 
Q 6.59375 54.828125 13.0625 64.515625 
Q 19.53125 74.21875 31.78125 74.21875 
z
" id="DejaVuSans-30"/>
       <path d="M 10.6875 12.40625 
L 21 12.40625 
L 21 0 
L 10.6875 0 
z
" id="DejaVuSans-2e"/>
       <path d="M 19.1875 8.296875 
L 53.609375 8.296875 
L 53.609375 0 
L 7.328125 0 
L 7.328125 8.296875 
Q 12.9375 14.109375 22.625 23.890625 
Q 32.328125 33.6875 34.8125 36.53125 
Q 39.546875 41.84375 41.421875 45.53125 
Q 43.3125 49.21875 43.3125 52.78125 
Q 43.3125 58.59375 39.234375 62.25 
Q 35.15625 65.921875 28.609375 65.921875 
Q 23.96875 65.921875 18.8125 64.3125 
Q 13.671875 62.703125 7.8125 59.421875 
L 7.8125 69.390625 
Q 13.765625 71.78125 18.9375 73 
Q 24.125 74.21875 28.421875 74.21875 
Q 39.75 74.21875 46.484375 68.546875 
Q 53.21875 62.890625 53.21875 53.421875 
Q 53.21875 48.921875 51.53125 44.890625 
Q 49.859375 40.875 45.40625 35.40625 
Q 44.1875 33.984375 37.640625 27.21875 
Q 31.109375 20.453125 19.1875 8.296875 
z
" id="DejaVuSans-32"/>
      </defs>
      <g transform="translate(7.2 300.943979)scale(0.22 -0.22)">
       <use xlink:href="#DejaVuSans-2212"/>
       <use x="83.789062" xlink:href="#DejaVuSans-30"/>
       <use x="147.412109" xlink:href="#DejaVuSans-2e"/>
       <use x="179.199219" xlink:href="#DejaVuSans-32"/>
      </g>
     </g>
    </g>
    <g id="ytick_2">
     <g id="line2d_2">
      <g>
       <use style="stroke:#000000;stroke-width:0.8;" x="67.622187" xlink:href="#md898f4fce4" y="240.942802"/>
      </g>
     </g>
     <g id="text_2">
      <!-- −0.1 -->
      <defs>
       <path d="M 12.40625 8.296875 
L 28.515625 8.296875 
L 28.515625 63.921875 
L 10.984375 60.40625 
L 10.984375 69.390625 
L 28.421875 72.90625 
L 38.28125 72.90625 
L 38.28125 8.296875 
L 54.390625 8.296875 
L 54.390625 0 
L 12.40625 0 
z
" id="DejaVuSans-31"/>
      </defs>
      <g transform="translate(7.2 249.301083)scale(0.22 -0.22)">
       <use xlink:href="#DejaVuSans-2212"/>
       <use x="83.789062" xlink:href="#DejaVuSans-30"/>
       <use x="147.412109" xlink:href="#DejaVuSans-2e"/>
       <use x="179.199219" xlink:href="#DejaVuSans-31"/>
      </g>
     </g>
    </g>
    <g id="ytick_3">
     <g id="line2d_3">
      <g>
       <use style="stroke:#000000;stroke-width:0.8;" x="67.622187" xlink:href="#md898f4fce4" y="189.299906"/>
      </g>
     </g>
     <g id="text_3">
      <!-- 0.0 -->
      <g transform="translate(25.635312 197.658187)scale(0.22 -0.22)">
       <use xlink:href="#DejaVuSans-30"/>
       <use x="63.623047" xlink:href="#DejaVuSans-2e"/>
       <use x="95.410156" xlink:href="#DejaVuSans-30"/>
      </g>
     </g>
    </g>
    <g id="ytick_4">
     <g id="line2d_4">
      <g>
       <use style="stroke:#000000;stroke-width:0.8;" x="67.622187" xlink:href="#md898f4fce4" y="137.65701"/>
      </g>
     </g>
     <g id="text_4">
      <!-- 0.1 -->
      <g transform="translate(25.635312 146.015291)scale(0.22 -0.22)">
       <use xlink:href="#DejaVuSans-30"/>
       <use x="63.623047" xlink:href="#DejaVuSans-2e"/>
       <use x="95.410156" xlink:href="#DejaVuSans-31"/>
      </g>
     </g>
    </g>
    <g id="ytick_5">
     <g id="line2d_5">
      <g>
       <use style="stroke:#000000;stroke-width:0.8;" x="67.622187" xlink:href="#md898f4fce4" y="86.014113"/>
      </g>
     </g>
     <g id="text_5">
      <!-- 0.2 -->
      <g transform="translate(25.635312 94.372395)scale(0.22 -0.22)">
       <use xlink:href="#DejaVuSans-30"/>
       <use x="63.623047" xlink:href="#DejaVuSans-2e"/>
       <use x="95.410156" xlink:href="#DejaVuSans-32"/>
      </g>
     </g>
    </g>
    <g id="ytick_6">
     <g id="line2d_6">
      <g>
       <use style="stroke:#000000;stroke-width:0.8;" x="67.622187" xlink:href="#md898f4fce4" y="34.371217"/>
      </g>
     </g>
     <g id="text_6">
      <!-- 0.3 -->
      <defs>
       <path d="M 40.578125 39.3125 
Q 47.65625 37.796875 51.625 33 
Q 55.609375 28.21875 55.609375 21.1875 
Q 55.609375 10.40625 48.1875 4.484375 
Q 40.765625 -1.421875 27.09375 -1.421875 
Q 22.515625 -1.421875 17.65625 -0.515625 
Q 12.796875 0.390625 7.625 2.203125 
L 7.625 11.71875 
Q 11.71875 9.328125 16.59375 8.109375 
Q 21.484375 6.890625 26.8125 6.890625 
Q 36.078125 6.890625 40.9375 10.546875 
Q 45.796875 14.203125 45.796875 21.1875 
Q 45.796875 27.640625 41.28125 31.265625 
Q 36.765625 34.90625 28.71875 34.90625 
L 20.21875 34.90625 
L 20.21875 43.015625 
L 29.109375 43.015625 
Q 36.375 43.015625 40.234375 45.921875 
Q 44.09375 48.828125 44.09375 54.296875 
Q 44.09375 59.90625 40.109375 62.90625 
Q 36.140625 65.921875 28.71875 65.921875 
Q 24.65625 65.921875 20.015625 65.03125 
Q 15.375 64.15625 9.8125 62.3125 
L 9.8125 71.09375 
Q 15.4375 72.65625 20.34375 73.4375 
Q 25.25 74.21875 29.59375 74.21875 
Q 40.828125 74.21875 47.359375 69.109375 
Q 53.90625 64.015625 53.90625 55.328125 
Q 53.90625 49.265625 50.4375 45.09375 
Q 46.96875 40.921875 40.578125 39.3125 
z
" id="DejaVuSans-33"/>
      </defs>
      <g transform="translate(25.635312 42.729498)scale(0.22 -0.22)">
       <use xlink:href="#DejaVuSans-30"/>
       <use x="63.623047" xlink:href="#DejaVuSans-2e"/>
       <use x="95.410156" xlink:href="#DejaVuSans-33"/>
      </g>
     </g>
    </g>
   </g>
   <g id="patch_3">
    <path d="M 67.622187 343.34 
L 67.622187 10.7 
" style="fill:none;stroke:#000000;stroke-linecap:square;stroke-linejoin:miter;stroke-width:0.8;"/>
   </g>
   <g id="patch_4">
    <path d="M 402.422188 343.34 
L 402.422188 10.7 
" style="fill:none;stroke:#000000;stroke-linecap:square;stroke-linejoin:miter;stroke-width:0.8;"/>
   </g>
   <g id="patch_5">
    <path d="M 67.622187 343.34 
L 402.422188 343.34 
" style="fill:none;stroke:#000000;stroke-linecap:square;stroke-linejoin:miter;stroke-width:0.8;"/>
   </g>
   <g id="patch_6">
    <path d="M 67.622187 10.7 
L 402.422188 10.7 
" style="fill:none;stroke:#000000;stroke-linecap:square;stroke-linejoin:miter;stroke-width:0.8;"/>
   </g>
  </g>
 </g>
 <defs>
  <clipPath id="pf6332cc605">
   <rect height="332.64" width="334.8" x="67.622187" y="10.7"/>
  </clipPath>
 </defs>
</svg>
