<?xml version="1.0" encoding="utf-8" standalone="no"?>
<!DOCTYPE svg PUBLIC "-//W3C//DTD SVG 1.1//EN"
  "http://www.w3.org/Graphics/SVG/1.1/DTD/svg11.dtd">
<!-- Created with matplotlib (http://matplotlib.org/) -->
<svg height="354pt" version="1.1" viewBox="0 0 413 354" width="413pt" xmlns="http://www.w3.org/2000/svg" xmlns:xlink="http://www.w3.org/1999/xlink">
 <defs>
  <style type="text/css">
*{stroke-linecap:butt;stroke-linejoin:round;}
  </style>
 </defs>
 <g id="figure_1">
  <g id="patch_1">
   <path d="M 0 354.04 
L 413.122187 354.04 
L 413.122187 0 
L 0 0 
z
" style="fill:#ffffff;"/>
  </g>
  <g id="axes_1">
   <g id="patch_2">
    <path d="M 67.622187 343.34 
L 402.422188 343.34 
L 402.422188 10.7 
L 67.622187 10.7 
z
" style="fill:#ffffff;"/>
   </g>
   <g id="PolyCollection_1">
    <defs>
     <path d="M 82.840369 -38.449212 
L 82.840369 -129.476945 
L 86.14867 -129.476945 
L 89.45697 -129.476945 
L 92.765271 -129.476945 
L 96.073571 -129.476945 
L 99.381871 -129.476945 
L 102.690172 -129.476945 
L 105.998472 -129.476945 
L 109.306772 -129.476945 
L 112.615073 -129.476945 
L 115.923373 -129.476945 
L 119.231674 -129.476945 
L 122.539974 -129.476945 
L 125.848274 -129.476945 
L 129.156575 -129.476945 
L 132.464875 -129.476945 
L 135.773176 -129.476945 
L 139.081476 -129.476945 
L 142.389776 -129.476945 
L 145.698077 -129.476945 
L 149.006377 -129.476945 
L 152.314678 -129.476945 
L 155.622978 -129.476945 
L 158.931278 -129.476945 
L 162.239579 -129.476945 
L 165.547879 -129.476945 
L 168.85618 -129.476945 
L 172.16448 -129.476945 
L 175.47278 -129.476945 
L 178.781081 -129.476945 
L 182.089381 -129.476945 
L 185.397682 -129.476945 
L 188.705982 -129.476945 
L 192.014282 -129.476945 
L 195.322583 -129.476945 
L 198.630883 -129.476945 
L 201.939184 -129.476945 
L 205.247484 -129.476945 
L 208.555784 -129.476945 
L 211.864085 -129.476945 
L 215.172385 -129.476945 
L 218.480686 -129.476945 
L 221.788986 -129.476945 
L 225.097286 -129.476945 
L 228.405587 -129.476945 
L 231.713887 -129.476945 
L 235.022188 -129.476945 
L 238.330488 -129.476945 
L 241.638788 -129.476945 
L 244.947089 -129.476945 
L 248.255389 -129.476945 
L 251.563689 -129.476945 
L 254.87199 -129.476945 
L 258.18029 -129.476945 
L 261.488591 -129.476945 
L 264.796891 -129.476945 
L 268.105191 -129.476945 
L 271.413492 -129.476945 
L 274.721792 -129.476945 
L 278.030093 -129.476945 
L 281.338393 -129.476945 
L 284.646693 -129.476945 
L 287.954994 -129.476945 
L 291.263294 -129.476945 
L 294.571595 -129.476945 
L 297.879895 -129.476945 
L 301.188195 -129.476945 
L 304.496496 -129.476945 
L 307.804796 -129.476945 
L 311.113097 -129.476945 
L 314.421397 -129.476945 
L 317.729697 -129.476945 
L 321.037998 -129.476945 
L 324.346298 -129.476945 
L 327.654599 -129.476945 
L 330.962899 -129.476945 
L 334.271199 -129.476945 
L 337.5795 -129.476945 
L 340.8878 -129.476945 
L 344.196101 -129.476945 
L 347.504401 -129.476945 
L 350.812701 -129.476945 
L 354.121002 -129.476945 
L 357.429302 -129.476945 
L 360.737603 -129.476945 
L 364.045903 -129.476945 
L 367.354203 -129.476945 
L 370.662504 -129.476945 
L 373.970804 -129.476945 
L 377.279104 -129.476945 
L 380.587405 -129.476945 
L 383.895705 -129.476945 
L 387.204006 -129.476945 
L 387.204006 -305.06629 
L 387.204006 -305.06629 
L 383.895705 -277.261369 
L 380.587405 -249.606194 
L 377.279104 -235.329269 
L 373.970804 -219.61891 
L 370.662504 -215.88237 
L 367.354203 -211.008569 
L 364.045903 -191.839623 
L 360.737603 -189.193243 
L 357.429302 -181.282816 
L 354.121002 -180.743173 
L 350.812701 -178.431847 
L 347.504401 -177.590152 
L 344.196101 -168.789339 
L 340.8878 -160.952604 
L 337.5795 -154.579642 
L 334.271199 -153.606346 
L 330.962899 -147.971664 
L 327.654599 -144.780842 
L 324.346298 -142.969758 
L 321.037998 -139.306863 
L 317.729697 -136.044938 
L 314.421397 -134.755985 
L 311.113097 -134.509528 
L 307.804796 -132.659417 
L 304.496496 -132.434603 
L 301.188195 -131.655216 
L 297.879895 -131.642915 
L 294.571595 -131.216565 
L 291.263294 -130.307848 
L 287.954994 -130.134631 
L 284.646693 -130.085125 
L 281.338393 -129.985502 
L 278.030093 -129.903601 
L 274.721792 -129.796283 
L 271.413492 -129.767624 
L 268.105191 -129.738581 
L 264.796891 -129.720065 
L 261.488591 -129.658369 
L 258.18029 -129.640961 
L 254.87199 -129.609415 
L 251.563689 -129.605885 
L 248.255389 -129.602693 
L 244.947089 -129.597461 
L 241.638788 -129.591152 
L 238.330488 -129.587633 
L 235.022188 -129.570259 
L 231.713887 -129.549823 
L 228.405587 -129.54884 
L 225.097286 -129.548225 
L 221.788986 -129.524792 
L 218.480686 -129.512554 
L 215.172385 -129.501617 
L 211.864085 -129.499613 
L 208.555784 -129.492682 
L 205.247484 -129.490163 
L 201.939184 -129.48664 
L 198.630883 -129.48241 
L 195.322583 -129.475045 
L 192.014282 -129.465551 
L 188.705982 -129.462451 
L 185.397682 -129.442219 
L 182.089381 -129.437394 
L 178.781081 -129.434704 
L 175.47278 -129.425234 
L 172.16448 -129.395469 
L 168.85618 -129.383932 
L 165.547879 -129.330348 
L 162.239579 -129.313283 
L 158.931278 -129.306031 
L 155.622978 -129.263457 
L 152.314678 -129.12998 
L 149.006377 -129.112595 
L 145.698077 -129.030381 
L 142.389776 -128.02857 
L 139.081476 -127.924743 
L 135.773176 -125.873104 
L 132.464875 -125.11733 
L 129.156575 -125.014428 
L 125.848274 -124.246829 
L 122.539974 -118.156787 
L 119.231674 -107.000587 
L 115.923373 -106.086649 
L 112.615073 -105.361324 
L 109.306772 -87.105591 
L 105.998472 -86.20401 
L 102.690172 -82.707489 
L 99.381871 -73.729156 
L 96.073571 -69.883916 
L 92.765271 -60.382522 
L 89.45697 -39.888578 
L 86.14867 -39.742118 
L 82.840369 -38.449212 
z
" id="m0cc9b1e237" style="stroke:#4a98c9;"/>
    </defs>
    <g clip-path="url(#p6c431f759d)">
     <use style="fill:#4a98c9;stroke:#4a98c9;" x="0" xlink:href="#m0cc9b1e237" y="354.04"/>
    </g>
   </g>
   <g id="PolyCollection_2">
    <defs>
     <path d="M 82.840369 -25.82 
L 82.840369 -129.476945 
L 86.14867 -129.476945 
L 89.45697 -129.476945 
L 92.765271 -129.476945 
L 96.073571 -129.476945 
L 99.381871 -129.476945 
L 102.690172 -129.476945 
L 105.998472 -129.476945 
L 109.306772 -129.476945 
L 112.615073 -129.476945 
L 115.923373 -129.476945 
L 119.231674 -129.476945 
L 122.539974 -129.476945 
L 125.848274 -129.476945 
L 129.156575 -129.476945 
L 132.464875 -129.476945 
L 135.773176 -129.476945 
L 139.081476 -129.476945 
L 142.389776 -129.476945 
L 145.698077 -129.476945 
L 149.006377 -129.476945 
L 152.314678 -129.476945 
L 155.622978 -129.476945 
L 158.931278 -129.476945 
L 162.239579 -129.476945 
L 165.547879 -129.476945 
L 168.85618 -129.476945 
L 172.16448 -129.476945 
L 175.47278 -129.476945 
L 178.781081 -129.476945 
L 182.089381 -129.476945 
L 185.397682 -129.476945 
L 188.705982 -129.476945 
L 192.014282 -129.476945 
L 195.322583 -129.476945 
L 198.630883 -129.476945 
L 201.939184 -129.476945 
L 205.247484 -129.476945 
L 208.555784 -129.476945 
L 211.864085 -129.476945 
L 215.172385 -129.476945 
L 218.480686 -129.476945 
L 221.788986 -129.476945 
L 225.097286 -129.476945 
L 228.405587 -129.476945 
L 231.713887 -129.476945 
L 235.022188 -129.476945 
L 238.330488 -129.476945 
L 241.638788 -129.476945 
L 244.947089 -129.476945 
L 248.255389 -129.476945 
L 251.563689 -129.476945 
L 254.87199 -129.476945 
L 258.18029 -129.476945 
L 261.488591 -129.476945 
L 264.796891 -129.476945 
L 268.105191 -129.476945 
L 271.413492 -129.476945 
L 274.721792 -129.476945 
L 278.030093 -129.476945 
L 281.338393 -129.476945 
L 284.646693 -129.476945 
L 287.954994 -129.476945 
L 291.263294 -129.476945 
L 294.571595 -129.476945 
L 297.879895 -129.476945 
L 301.188195 -129.476945 
L 304.496496 -129.476945 
L 307.804796 -129.476945 
L 311.113097 -129.476945 
L 314.421397 -129.476945 
L 317.729697 -129.476945 
L 321.037998 -129.476945 
L 324.346298 -129.476945 
L 327.654599 -129.476945 
L 330.962899 -129.476945 
L 334.271199 -129.476945 
L 337.5795 -129.476945 
L 340.8878 -129.476945 
L 344.196101 -129.476945 
L 347.504401 -129.476945 
L 350.812701 -129.476945 
L 354.121002 -129.476945 
L 357.429302 -129.476945 
L 360.737603 -129.476945 
L 364.045903 -129.476945 
L 367.354203 -129.476945 
L 370.662504 -129.476945 
L 373.970804 -129.476945 
L 377.279104 -129.476945 
L 380.587405 -129.476945 
L 383.895705 -129.476945 
L 387.204006 -129.476945 
L 387.204006 -328.22 
L 387.204006 -328.22 
L 383.895705 -324.446905 
L 380.587405 -265.986127 
L 377.279104 -249.81471 
L 373.970804 -229.332087 
L 370.662504 -221.854332 
L 367.354203 -217.277901 
L 364.045903 -214.75382 
L 360.737603 -209.919384 
L 357.429302 -181.331307 
L 354.121002 -178.964681 
L 350.812701 -173.699564 
L 347.504401 -173.667212 
L 344.196101 -170.005281 
L 340.8878 -165.591802 
L 337.5795 -159.879235 
L 334.271199 -158.099007 
L 330.962899 -151.227786 
L 327.654599 -145.347878 
L 324.346298 -144.719764 
L 321.037998 -143.792304 
L 317.729697 -141.553216 
L 314.421397 -134.017207 
L 311.113097 -131.755332 
L 307.804796 -130.473908 
L 304.496496 -130.10149 
L 301.188195 -129.889388 
L 297.879895 -129.879684 
L 294.571595 -129.823552 
L 291.263294 -129.745744 
L 287.954994 -129.731367 
L 284.646693 -129.729136 
L 281.338393 -129.714129 
L 278.030093 -129.701037 
L 274.721792 -129.691091 
L 271.413492 -129.664511 
L 268.105191 -129.563285 
L 264.796891 -129.550712 
L 261.488591 -129.549369 
L 258.18029 -129.536489 
L 254.87199 -129.536394 
L 251.563689 -129.489383 
L 248.255389 -129.484214 
L 244.947089 -129.483388 
L 241.638788 -129.479606 
L 238.330488 -129.478999 
L 235.022188 -129.477452 
L 231.713887 -129.474212 
L 228.405587 -129.47326 
L 225.097286 -129.462713 
L 221.788986 -129.455969 
L 218.480686 -129.442812 
L 215.172385 -129.437889 
L 211.864085 -129.436159 
L 208.555784 -129.434324 
L 205.247484 -129.434057 
L 201.939184 -129.41958 
L 198.630883 -129.417325 
L 195.322583 -129.407072 
L 192.014282 -129.397386 
L 188.705982 -129.39048 
L 185.397682 -129.381486 
L 182.089381 -129.379384 
L 178.781081 -129.348386 
L 175.47278 -129.329775 
L 172.16448 -129.326669 
L 168.85618 -129.306618 
L 165.547879 -129.275141 
L 162.239579 -129.255416 
L 158.931278 -129.254212 
L 155.622978 -128.977692 
L 152.314678 -128.975376 
L 149.006377 -128.755568 
L 145.698077 -128.521255 
L 142.389776 -127.666167 
L 139.081476 -127.321395 
L 135.773176 -126.135404 
L 132.464875 -124.925148 
L 129.156575 -124.103487 
L 125.848274 -123.135491 
L 122.539974 -114.112749 
L 119.231674 -111.916845 
L 115.923373 -103.806034 
L 112.615073 -91.974458 
L 109.306772 -84.401834 
L 105.998472 -76.080554 
L 102.690172 -74.302606 
L 99.381871 -72.794097 
L 96.073571 -51.216179 
L 92.765271 -44.898543 
L 89.45697 -36.870455 
L 86.14867 -29.67794 
L 82.840369 -25.82 
z
" id="ma2676d7c2f" style="stroke:#f14432;stroke-opacity:0.8;"/>
    </defs>
    <g clip-path="url(#p6c431f759d)">
     <use style="fill:#f14432;fill-opacity:0.8;stroke:#f14432;stroke-opacity:0.8;" x="0" xlink:href="#ma2676d7c2f" y="354.04"/>
    </g>
   </g>
   <g id="matplotlib.axis_1"/>
   <g id="matplotlib.axis_2">
    <g id="ytick_1">
     <g id="line2d_1">
      <defs>
       <path d="M 0 0 
L -3.5 0 
" id="m064beb5370" style="stroke:#000000;stroke-width:0.8;"/>
      </defs>
      <g>
       <use style="stroke:#000000;stroke-width:0.8;" x="67.622187" xlink:href="#m064beb5370" y="320.684652"/>
      </g>
     </g>
     <g id="text_1">
      <!-- −0.2 -->
      <defs>
       <path d="M 10.59375 35.5 
L 73.1875 35.5 
L 73.1875 27.203125 
L 10.59375 27.203125 
z
" id="DejaVuSans-2212"/>
       <path d="M 31.78125 66.40625 
Q 24.171875 66.40625 20.328125 58.90625 
Q 16.5 51.421875 16.5 36.375 
Q 16.5 21.390625 20.328125 13.890625 
Q 24.171875 6.390625 31.78125 6.390625 
Q 39.453125 6.390625 43.28125 13.890625 
Q 47.125 21.390625 47.125 36.375 
Q 47.125 51.421875 43.28125 58.90625 
Q 39.453125 66.40625 31.78125 66.40625 
z
M 31.78125 74.21875 
Q 44.046875 74.21875 50.515625 64.515625 
Q 56.984375 54.828125 56.984375 36.375 
Q 56.984375 17.96875 50.515625 8.265625 
Q 44.046875 -1.421875 31.78125 -1.421875 
Q 19.53125 -1.421875 13.0625 8.265625 
Q 6.59375 17.96875 6.59375 36.375 
Q 6.59375 54.828125 13.0625 64.515625 
Q 19.53125 74.21875 31.78125 74.21875 
z
" id="DejaVuSans-30"/>
       <path d="M 10.6875 12.40625 
L 21 12.40625 
L 21 0 
L 10.6875 0 
z
" id="DejaVuSans-2e"/>
       <path d="M 19.1875 8.296875 
L 53.609375 8.296875 
L 53.609375 0 
L 7.328125 0 
L 7.328125 8.296875 
Q 12.9375 14.109375 22.625 23.890625 
Q 32.328125 33.6875 34.8125 36.53125 
Q 39.546875 41.84375 41.421875 45.53125 
Q 43.3125 49.21875 43.3125 52.78125 
Q 43.3125 58.59375 39.234375 62.25 
Q 35.15625 65.921875 28.609375 65.921875 
Q 23.96875 65.921875 18.8125 64.3125 
Q 13.671875 62.703125 7.8125 59.421875 
L 7.8125 69.390625 
Q 13.765625 71.78125 18.9375 73 
Q 24.125 74.21875 28.421875 74.21875 
Q 39.75 74.21875 46.484375 68.546875 
Q 53.21875 62.890625 53.21875 53.421875 
Q 53.21875 48.921875 51.53125 44.890625 
Q 49.859375 40.875 45.40625 35.40625 
Q 44.1875 33.984375 37.640625 27.21875 
Q 31.109375 20.453125 19.1875 8.296875 
z
" id="DejaVuSans-32"/>
      </defs>
      <g transform="translate(7.2 329.042933)scale(0.22 -0.22)">
       <use xlink:href="#DejaVuSans-2212"/>
       <use x="83.789062" xlink:href="#DejaVuSans-30"/>
       <use x="147.412109" xlink:href="#DejaVuSans-2e"/>
       <use x="179.199219" xlink:href="#DejaVuSans-32"/>
      </g>
     </g>
    </g>
    <g id="ytick_2">
     <g id="line2d_2">
      <g>
       <use style="stroke:#000000;stroke-width:0.8;" x="67.622187" xlink:href="#m064beb5370" y="272.623854"/>
      </g>
     </g>
     <g id="text_2">
      <!-- −0.1 -->
      <defs>
       <path d="M 12.40625 8.296875 
L 28.515625 8.296875 
L 28.515625 63.921875 
L 10.984375 60.40625 
L 10.984375 69.390625 
L 28.421875 72.90625 
L 38.28125 72.90625 
L 38.28125 8.296875 
L 54.390625 8.296875 
L 54.390625 0 
L 12.40625 0 
z
" id="DejaVuSans-31"/>
      </defs>
      <g transform="translate(7.2 280.982135)scale(0.22 -0.22)">
       <use xlink:href="#DejaVuSans-2212"/>
       <use x="83.789062" xlink:href="#DejaVuSans-30"/>
       <use x="147.412109" xlink:href="#DejaVuSans-2e"/>
       <use x="179.199219" xlink:href="#DejaVuSans-31"/>
      </g>
     </g>
    </g>
    <g id="ytick_3">
     <g id="line2d_3">
      <g>
       <use style="stroke:#000000;stroke-width:0.8;" x="67.622187" xlink:href="#m064beb5370" y="224.563055"/>
      </g>
     </g>
     <g id="text_3">
      <!-- 0.0 -->
      <g transform="translate(25.635312 232.921336)scale(0.22 -0.22)">
       <use xlink:href="#DejaVuSans-30"/>
       <use x="63.623047" xlink:href="#DejaVuSans-2e"/>
       <use x="95.410156" xlink:href="#DejaVuSans-30"/>
      </g>
     </g>
    </g>
    <g id="ytick_4">
     <g id="line2d_4">
      <g>
       <use style="stroke:#000000;stroke-width:0.8;" x="67.622187" xlink:href="#m064beb5370" y="176.502257"/>
      </g>
     </g>
     <g id="text_4">
      <!-- 0.1 -->
      <g transform="translate(25.635312 184.860538)scale(0.22 -0.22)">
       <use xlink:href="#DejaVuSans-30"/>
       <use x="63.623047" xlink:href="#DejaVuSans-2e"/>
       <use x="95.410156" xlink:href="#DejaVuSans-31"/>
      </g>
     </g>
    </g>
    <g id="ytick_5">
     <g id="line2d_5">
      <g>
       <use style="stroke:#000000;stroke-width:0.8;" x="67.622187" xlink:href="#m064beb5370" y="128.441458"/>
      </g>
     </g>
     <g id="text_5">
      <!-- 0.2 -->
      <g transform="translate(25.635312 136.79974)scale(0.22 -0.22)">
       <use xlink:href="#DejaVuSans-30"/>
       <use x="63.623047" xlink:href="#DejaVuSans-2e"/>
       <use x="95.410156" xlink:href="#DejaVuSans-32"/>
      </g>
     </g>
    </g>
    <g id="ytick_6">
     <g id="line2d_6">
      <g>
       <use style="stroke:#000000;stroke-width:0.8;" x="67.622187" xlink:href="#m064beb5370" y="80.38066"/>
      </g>
     </g>
     <g id="text_6">
      <!-- 0.3 -->
      <defs>
       <path d="M 40.578125 39.3125 
Q 47.65625 37.796875 51.625 33 
Q 55.609375 28.21875 55.609375 21.1875 
Q 55.609375 10.40625 48.1875 4.484375 
Q 40.765625 -1.421875 27.09375 -1.421875 
Q 22.515625 -1.421875 17.65625 -0.515625 
Q 12.796875 0.390625 7.625 2.203125 
L 7.625 11.71875 
Q 11.71875 9.328125 16.59375 8.109375 
Q 21.484375 6.890625 26.8125 6.890625 
Q 36.078125 6.890625 40.9375 10.546875 
Q 45.796875 14.203125 45.796875 21.1875 
Q 45.796875 27.640625 41.28125 31.265625 
Q 36.765625 34.90625 28.71875 34.90625 
L 20.21875 34.90625 
L 20.21875 43.015625 
L 29.109375 43.015625 
Q 36.375 43.015625 40.234375 45.921875 
Q 44.09375 48.828125 44.09375 54.296875 
Q 44.09375 59.90625 40.109375 62.90625 
Q 36.140625 65.921875 28.71875 65.921875 
Q 24.65625 65.921875 20.015625 65.03125 
Q 15.375 64.15625 9.8125 62.3125 
L 9.8125 71.09375 
Q 15.4375 72.65625 20.34375 73.4375 
Q 25.25 74.21875 29.59375 74.21875 
Q 40.828125 74.21875 47.359375 69.109375 
Q 53.90625 64.015625 53.90625 55.328125 
Q 53.90625 49.265625 50.4375 45.09375 
Q 46.96875 40.921875 40.578125 39.3125 
z
" id="DejaVuSans-33"/>
      </defs>
      <g transform="translate(25.635312 88.738941)scale(0.22 -0.22)">
       <use xlink:href="#DejaVuSans-30"/>
       <use x="63.623047" xlink:href="#DejaVuSans-2e"/>
       <use x="95.410156" xlink:href="#DejaVuSans-33"/>
      </g>
     </g>
    </g>
    <g id="ytick_7">
     <g id="line2d_7">
      <g>
       <use style="stroke:#000000;stroke-width:0.8;" x="67.622187" xlink:href="#m064beb5370" y="32.319862"/>
      </g>
     </g>
     <g id="text_7">
      <!-- 0.4 -->
      <defs>
       <path d="M 37.796875 64.3125 
L 12.890625 25.390625 
L 37.796875 25.390625 
z
M 35.203125 72.90625 
L 47.609375 72.90625 
L 47.609375 25.390625 
L 58.015625 25.390625 
L 58.015625 17.1875 
L 47.609375 17.1875 
L 47.609375 0 
L 37.796875 0 
L 37.796875 17.1875 
L 4.890625 17.1875 
L 4.890625 26.703125 
z
" id="DejaVuSans-34"/>
      </defs>
      <g transform="translate(25.635312 40.678143)scale(0.22 -0.22)">
       <use xlink:href="#DejaVuSans-30"/>
       <use x="63.623047" xlink:href="#DejaVuSans-2e"/>
       <use x="95.410156" xlink:href="#DejaVuSans-34"/>
      </g>
     </g>
    </g>
   </g>
   <g id="patch_3">
    <path d="M 67.622187 343.34 
L 67.622187 10.7 
" style="fill:none;stroke:#000000;stroke-linecap:square;stroke-linejoin:miter;stroke-width:0.8;"/>
   </g>
   <g id="patch_4">
    <path d="M 402.422188 343.34 
L 402.422188 10.7 
" style="fill:none;stroke:#000000;stroke-linecap:square;stroke-linejoin:miter;stroke-width:0.8;"/>
   </g>
   <g id="patch_5">
    <path d="M 67.622187 343.34 
L 402.422188 343.34 
" style="fill:none;stroke:#000000;stroke-linecap:square;stroke-linejoin:miter;stroke-width:0.8;"/>
   </g>
   <g id="patch_6">
    <path d="M 67.622187 10.7 
L 402.422188 10.7 
" style="fill:none;stroke:#000000;stroke-linecap:square;stroke-linejoin:miter;stroke-width:0.8;"/>
   </g>
  </g>
 </g>
 <defs>
  <clipPath id="p6c431f759d">
   <rect height="332.64" width="334.8" x="67.622187" y="10.7"/>
  </clipPath>
 </defs>
</svg>
