<?xml version="1.0" encoding="utf-8" standalone="no"?>
<!DOCTYPE svg PUBLIC "-//W3C//DTD SVG 1.1//EN"
  "http://www.w3.org/Graphics/SVG/1.1/DTD/svg11.dtd">
<!-- Created with matplotlib (http://matplotlib.org/) -->
<svg height="354pt" version="1.1" viewBox="0 0 441 354" width="441pt" xmlns="http://www.w3.org/2000/svg" xmlns:xlink="http://www.w3.org/1999/xlink">
 <defs>
  <style type="text/css">
*{stroke-linecap:butt;stroke-linejoin:round;}
  </style>
 </defs>
 <g id="figure_1">
  <g id="patch_1">
   <path d="M 0 354.04 
L 441.117188 354.04 
L 441.117188 0 
L 0 0 
z
" style="fill:#ffffff;"/>
  </g>
  <g id="axes_1">
   <g id="patch_2">
    <path d="M 95.617188 343.34 
L 430.417188 343.34 
L 430.417188 10.7 
L 95.617188 10.7 
z
" style="fill:#ffffff;"/>
   </g>
   <g id="PolyCollection_1">
    <defs>
     <path d="M 110.835369 -25.82 
L 110.835369 -188.806212 
L 114.14367 -188.806212 
L 117.45197 -188.806212 
L 120.760271 -188.806212 
L 124.068571 -188.806212 
L 127.376871 -188.806212 
L 130.685172 -188.806212 
L 133.993472 -188.806212 
L 137.301772 -188.806212 
L 140.610073 -188.806212 
L 143.918373 -188.806212 
L 147.226674 -188.806212 
L 150.534974 -188.806212 
L 153.843274 -188.806212 
L 157.151575 -188.806212 
L 160.459875 -188.806212 
L 163.768176 -188.806212 
L 167.076476 -188.806212 
L 170.384776 -188.806212 
L 173.693077 -188.806212 
L 177.001377 -188.806212 
L 180.309678 -188.806212 
L 183.617978 -188.806212 
L 186.926278 -188.806212 
L 190.234579 -188.806212 
L 193.542879 -188.806212 
L 196.85118 -188.806212 
L 200.15948 -188.806212 
L 203.46778 -188.806212 
L 206.776081 -188.806212 
L 210.084381 -188.806212 
L 213.392682 -188.806212 
L 216.700982 -188.806212 
L 220.009282 -188.806212 
L 223.317583 -188.806212 
L 226.625883 -188.806212 
L 229.934184 -188.806212 
L 233.242484 -188.806212 
L 236.550784 -188.806212 
L 239.859085 -188.806212 
L 243.167385 -188.806212 
L 246.475686 -188.806212 
L 249.783986 -188.806212 
L 253.092286 -188.806212 
L 256.400587 -188.806212 
L 259.708887 -188.806212 
L 263.017188 -188.806212 
L 266.325488 -188.806212 
L 269.633788 -188.806212 
L 272.942089 -188.806212 
L 276.250389 -188.806212 
L 279.558689 -188.806212 
L 282.86699 -188.806212 
L 286.17529 -188.806212 
L 289.483591 -188.806212 
L 292.791891 -188.806212 
L 296.100191 -188.806212 
L 299.408492 -188.806212 
L 302.716792 -188.806212 
L 306.025093 -188.806212 
L 309.333393 -188.806212 
L 312.641693 -188.806212 
L 315.949994 -188.806212 
L 319.258294 -188.806212 
L 322.566595 -188.806212 
L 325.874895 -188.806212 
L 329.183195 -188.806212 
L 332.491496 -188.806212 
L 335.799796 -188.806212 
L 339.108097 -188.806212 
L 342.416397 -188.806212 
L 345.724697 -188.806212 
L 349.032998 -188.806212 
L 352.341298 -188.806212 
L 355.649599 -188.806212 
L 358.957899 -188.806212 
L 362.266199 -188.806212 
L 365.5745 -188.806212 
L 368.8828 -188.806212 
L 372.191101 -188.806212 
L 375.499401 -188.806212 
L 378.807701 -188.806212 
L 382.116002 -188.806212 
L 385.424302 -188.806212 
L 388.732603 -188.806212 
L 392.040903 -188.806212 
L 395.349203 -188.806212 
L 398.657504 -188.806212 
L 401.965804 -188.806212 
L 405.274104 -188.806212 
L 408.582405 -188.806212 
L 411.890705 -188.806212 
L 415.199006 -188.806212 
L 415.199006 -328.22 
L 415.199006 -328.22 
L 411.890705 -327.551525 
L 408.582405 -313.697115 
L 405.274104 -295.674309 
L 401.965804 -292.979363 
L 398.657504 -286.73119 
L 395.349203 -271.293477 
L 392.040903 -264.723718 
L 388.732603 -262.507965 
L 385.424302 -257.493704 
L 382.116002 -230.985229 
L 378.807701 -228.028233 
L 375.499401 -227.484239 
L 372.191101 -224.491858 
L 368.8828 -221.795502 
L 365.5745 -219.800228 
L 362.266199 -219.395139 
L 358.957899 -216.879114 
L 355.649599 -215.913118 
L 352.341298 -211.773736 
L 349.032998 -210.907531 
L 345.724697 -210.617395 
L 342.416397 -209.617221 
L 339.108097 -208.943249 
L 335.799796 -207.66677 
L 332.491496 -207.445763 
L 329.183195 -206.74064 
L 325.874895 -206.559005 
L 322.566595 -206.1094 
L 319.258294 -203.213062 
L 315.949994 -197.81124 
L 312.641693 -196.992972 
L 309.333393 -196.61162 
L 306.025093 -196.078003 
L 302.716792 -195.973784 
L 299.408492 -195.719963 
L 296.100191 -195.63939 
L 292.791891 -195.345844 
L 289.483591 -195.242921 
L 286.17529 -195.183091 
L 282.86699 -195.071868 
L 279.558689 -195.039293 
L 276.250389 -194.286797 
L 272.942089 -193.966818 
L 269.633788 -193.515821 
L 266.325488 -193.38903 
L 263.017188 -193.116182 
L 259.708887 -192.618775 
L 256.400587 -192.558 
L 253.092286 -192.534635 
L 249.783986 -192.136495 
L 246.475686 -191.808904 
L 243.167385 -190.770733 
L 239.859085 -190.107334 
L 236.550784 -189.979876 
L 233.242484 -189.724966 
L 229.934184 -189.68642 
L 226.625883 -189.565598 
L 223.317583 -189.21769 
L 220.009282 -188.976159 
L 216.700982 -188.940144 
L 213.392682 -188.920639 
L 210.084381 -188.097156 
L 206.776081 -188.067574 
L 203.46778 -186.99296 
L 200.15948 -186.24848 
L 196.85118 -185.857403 
L 193.542879 -185.513694 
L 190.234579 -185.074248 
L 186.926278 -184.757723 
L 183.617978 -183.651097 
L 180.309678 -183.393386 
L 177.001377 -182.100186 
L 173.693077 -181.366739 
L 170.384776 -179.663962 
L 167.076476 -174.717849 
L 163.768176 -173.776342 
L 160.459875 -172.778491 
L 157.151575 -171.233168 
L 153.843274 -170.223788 
L 150.534974 -168.239518 
L 147.226674 -165.97911 
L 143.918373 -164.882758 
L 140.610073 -164.578126 
L 137.301772 -162.953705 
L 133.993472 -161.24468 
L 130.685172 -158.618479 
L 127.376871 -156.81779 
L 124.068571 -151.714822 
L 120.760271 -145.965543 
L 117.45197 -126.337298 
L 114.14367 -65.571391 
L 110.835369 -25.82 
z
" id="m02f3f1d304" style="stroke:#4a98c9;"/>
    </defs>
    <g clip-path="url(#pa0ce351d2d)">
     <use style="fill:#4a98c9;stroke:#4a98c9;" x="0" xlink:href="#m02f3f1d304" y="354.04"/>
    </g>
   </g>
   <g id="PolyCollection_2">
    <defs>
     <path d="M 110.835369 -79.266858 
L 110.835369 -188.806212 
L 114.14367 -188.806212 
L 117.45197 -188.806212 
L 120.760271 -188.806212 
L 124.068571 -188.806212 
L 127.376871 -188.806212 
L 130.685172 -188.806212 
L 133.993472 -188.806212 
L 137.301772 -188.806212 
L 140.610073 -188.806212 
L 143.918373 -188.806212 
L 147.226674 -188.806212 
L 150.534974 -188.806212 
L 153.843274 -188.806212 
L 157.151575 -188.806212 
L 160.459875 -188.806212 
L 163.768176 -188.806212 
L 167.076476 -188.806212 
L 170.384776 -188.806212 
L 173.693077 -188.806212 
L 177.001377 -188.806212 
L 180.309678 -188.806212 
L 183.617978 -188.806212 
L 186.926278 -188.806212 
L 190.234579 -188.806212 
L 193.542879 -188.806212 
L 196.85118 -188.806212 
L 200.15948 -188.806212 
L 203.46778 -188.806212 
L 206.776081 -188.806212 
L 210.084381 -188.806212 
L 213.392682 -188.806212 
L 216.700982 -188.806212 
L 220.009282 -188.806212 
L 223.317583 -188.806212 
L 226.625883 -188.806212 
L 229.934184 -188.806212 
L 233.242484 -188.806212 
L 236.550784 -188.806212 
L 239.859085 -188.806212 
L 243.167385 -188.806212 
L 246.475686 -188.806212 
L 249.783986 -188.806212 
L 253.092286 -188.806212 
L 256.400587 -188.806212 
L 259.708887 -188.806212 
L 263.017188 -188.806212 
L 266.325488 -188.806212 
L 269.633788 -188.806212 
L 272.942089 -188.806212 
L 276.250389 -188.806212 
L 279.558689 -188.806212 
L 282.86699 -188.806212 
L 286.17529 -188.806212 
L 289.483591 -188.806212 
L 292.791891 -188.806212 
L 296.100191 -188.806212 
L 299.408492 -188.806212 
L 302.716792 -188.806212 
L 306.025093 -188.806212 
L 309.333393 -188.806212 
L 312.641693 -188.806212 
L 315.949994 -188.806212 
L 319.258294 -188.806212 
L 322.566595 -188.806212 
L 325.874895 -188.806212 
L 329.183195 -188.806212 
L 332.491496 -188.806212 
L 335.799796 -188.806212 
L 339.108097 -188.806212 
L 342.416397 -188.806212 
L 345.724697 -188.806212 
L 349.032998 -188.806212 
L 352.341298 -188.806212 
L 355.649599 -188.806212 
L 358.957899 -188.806212 
L 362.266199 -188.806212 
L 365.5745 -188.806212 
L 368.8828 -188.806212 
L 372.191101 -188.806212 
L 375.499401 -188.806212 
L 378.807701 -188.806212 
L 382.116002 -188.806212 
L 385.424302 -188.806212 
L 388.732603 -188.806212 
L 392.040903 -188.806212 
L 395.349203 -188.806212 
L 398.657504 -188.806212 
L 401.965804 -188.806212 
L 405.274104 -188.806212 
L 408.582405 -188.806212 
L 411.890705 -188.806212 
L 415.199006 -188.806212 
L 415.199006 -277.83914 
L 415.199006 -277.83914 
L 411.890705 -277.440037 
L 408.582405 -267.686906 
L 405.274104 -263.91831 
L 401.965804 -253.048014 
L 398.657504 -244.063413 
L 395.349203 -240.069015 
L 392.040903 -238.221803 
L 388.732603 -229.489807 
L 385.424302 -223.310264 
L 382.116002 -221.061145 
L 378.807701 -218.048487 
L 375.499401 -217.076576 
L 372.191101 -215.076345 
L 368.8828 -214.950739 
L 365.5745 -214.318712 
L 362.266199 -213.606555 
L 358.957899 -212.197594 
L 355.649599 -211.239156 
L 352.341298 -207.408315 
L 349.032998 -206.170912 
L 345.724697 -204.826328 
L 342.416397 -202.39287 
L 339.108097 -202.010597 
L 335.799796 -201.202793 
L 332.491496 -200.523225 
L 329.183195 -199.532006 
L 325.874895 -199.230218 
L 322.566595 -198.848026 
L 319.258294 -198.113962 
L 315.949994 -197.640983 
L 312.641693 -196.819302 
L 309.333393 -196.796252 
L 306.025093 -196.695693 
L 302.716792 -195.632168 
L 299.408492 -194.964439 
L 296.100191 -194.424214 
L 292.791891 -194.080602 
L 289.483591 -192.407919 
L 286.17529 -192.31128 
L 282.86699 -191.464965 
L 279.558689 -191.031755 
L 276.250389 -190.983673 
L 272.942089 -190.828694 
L 269.633788 -190.811575 
L 266.325488 -190.697742 
L 263.017188 -190.558762 
L 259.708887 -190.527047 
L 256.400587 -190.355248 
L 253.092286 -190.1745 
L 249.783986 -189.840347 
L 246.475686 -188.286339 
L 243.167385 -188.276411 
L 239.859085 -188.125343 
L 236.550784 -187.863958 
L 233.242484 -187.800996 
L 229.934184 -187.582252 
L 226.625883 -187.160926 
L 223.317583 -187.139959 
L 220.009282 -187.12847 
L 216.700982 -186.638323 
L 213.392682 -186.634326 
L 210.084381 -186.289346 
L 206.776081 -186.217984 
L 203.46778 -186.149429 
L 200.15948 -186.064169 
L 196.85118 -185.926692 
L 193.542879 -185.82894 
L 190.234579 -185.718666 
L 186.926278 -185.393425 
L 183.617978 -185.135824 
L 180.309678 -184.788478 
L 177.001377 -184.699069 
L 173.693077 -183.701416 
L 170.384776 -183.269717 
L 167.076476 -183.005502 
L 163.768176 -182.762379 
L 160.459875 -181.897378 
L 157.151575 -180.042243 
L 153.843274 -177.803199 
L 150.534974 -175.534605 
L 147.226674 -175.513382 
L 143.918373 -172.756669 
L 140.610073 -171.817578 
L 137.301772 -170.801105 
L 133.993472 -170.180654 
L 130.685172 -169.883699 
L 127.376871 -168.161992 
L 124.068571 -165.920622 
L 120.760271 -164.261292 
L 117.45197 -149.848013 
L 114.14367 -106.230245 
L 110.835369 -79.266858 
z
" id="m847350888f" style="stroke:#f14432;stroke-opacity:0.8;"/>
    </defs>
    <g clip-path="url(#pa0ce351d2d)">
     <use style="fill:#f14432;fill-opacity:0.8;stroke:#f14432;stroke-opacity:0.8;" x="0" xlink:href="#m847350888f" y="354.04"/>
    </g>
   </g>
   <g id="matplotlib.axis_1"/>
   <g id="matplotlib.axis_2">
    <g id="ytick_1">
     <g id="line2d_1">
      <defs>
       <path d="M 0 0 
L -3.5 0 
" id="mdbc56a9124" style="stroke:#000000;stroke-width:0.8;"/>
      </defs>
      <g>
       <use style="stroke:#000000;stroke-width:0.8;" x="95.617188" xlink:href="#mdbc56a9124" y="308.773843"/>
      </g>
     </g>
     <g id="text_1">
      <!-- −0.002 -->
      <defs>
       <path d="M 10.59375 35.5 
L 73.1875 35.5 
L 73.1875 27.203125 
L 10.59375 27.203125 
z
" id="DejaVuSans-2212"/>
       <path d="M 31.78125 66.40625 
Q 24.171875 66.40625 20.328125 58.90625 
Q 16.5 51.421875 16.5 36.375 
Q 16.5 21.390625 20.328125 13.890625 
Q 24.171875 6.390625 31.78125 6.390625 
Q 39.453125 6.390625 43.28125 13.890625 
Q 47.125 21.390625 47.125 36.375 
Q 47.125 51.421875 43.28125 58.90625 
Q 39.453125 66.40625 31.78125 66.40625 
z
M 31.78125 74.21875 
Q 44.046875 74.21875 50.515625 64.515625 
Q 56.984375 54.828125 56.984375 36.375 
Q 56.984375 17.96875 50.515625 8.265625 
Q 44.046875 -1.421875 31.78125 -1.421875 
Q 19.53125 -1.421875 13.0625 8.265625 
Q 6.59375 17.96875 6.59375 36.375 
Q 6.59375 54.828125 13.0625 64.515625 
Q 19.53125 74.21875 31.78125 74.21875 
z
" id="DejaVuSans-30"/>
       <path d="M 10.6875 12.40625 
L 21 12.40625 
L 21 0 
L 10.6875 0 
z
" id="DejaVuSans-2e"/>
       <path d="M 19.1875 8.296875 
L 53.609375 8.296875 
L 53.609375 0 
L 7.328125 0 
L 7.328125 8.296875 
Q 12.9375 14.109375 22.625 23.890625 
Q 32.328125 33.6875 34.8125 36.53125 
Q 39.546875 41.84375 41.421875 45.53125 
Q 43.3125 49.21875 43.3125 52.78125 
Q 43.3125 58.59375 39.234375 62.25 
Q 35.15625 65.921875 28.609375 65.921875 
Q 23.96875 65.921875 18.8125 64.3125 
Q 13.671875 62.703125 7.8125 59.421875 
L 7.8125 69.390625 
Q 13.765625 71.78125 18.9375 73 
Q 24.125 74.21875 28.421875 74.21875 
Q 39.75 74.21875 46.484375 68.546875 
Q 53.21875 62.890625 53.21875 53.421875 
Q 53.21875 48.921875 51.53125 44.890625 
Q 49.859375 40.875 45.40625 35.40625 
Q 44.1875 33.984375 37.640625 27.21875 
Q 31.109375 20.453125 19.1875 8.296875 
z
" id="DejaVuSans-32"/>
      </defs>
      <g transform="translate(7.2 317.132124)scale(0.22 -0.22)">
       <use xlink:href="#DejaVuSans-2212"/>
       <use x="83.789062" xlink:href="#DejaVuSans-30"/>
       <use x="147.412109" xlink:href="#DejaVuSans-2e"/>
       <use x="179.199219" xlink:href="#DejaVuSans-30"/>
       <use x="242.822266" xlink:href="#DejaVuSans-30"/>
       <use x="306.445312" xlink:href="#DejaVuSans-32"/>
      </g>
     </g>
    </g>
    <g id="ytick_2">
     <g id="line2d_2">
      <g>
       <use style="stroke:#000000;stroke-width:0.8;" x="95.617188" xlink:href="#mdbc56a9124" y="237.003815"/>
      </g>
     </g>
     <g id="text_2">
      <!-- −0.001 -->
      <defs>
       <path d="M 12.40625 8.296875 
L 28.515625 8.296875 
L 28.515625 63.921875 
L 10.984375 60.40625 
L 10.984375 69.390625 
L 28.421875 72.90625 
L 38.28125 72.90625 
L 38.28125 8.296875 
L 54.390625 8.296875 
L 54.390625 0 
L 12.40625 0 
z
" id="DejaVuSans-31"/>
      </defs>
      <g transform="translate(7.2 245.362097)scale(0.22 -0.22)">
       <use xlink:href="#DejaVuSans-2212"/>
       <use x="83.789062" xlink:href="#DejaVuSans-30"/>
       <use x="147.412109" xlink:href="#DejaVuSans-2e"/>
       <use x="179.199219" xlink:href="#DejaVuSans-30"/>
       <use x="242.822266" xlink:href="#DejaVuSans-30"/>
       <use x="306.445312" xlink:href="#DejaVuSans-31"/>
      </g>
     </g>
    </g>
    <g id="ytick_3">
     <g id="line2d_3">
      <g>
       <use style="stroke:#000000;stroke-width:0.8;" x="95.617188" xlink:href="#mdbc56a9124" y="165.233788"/>
      </g>
     </g>
     <g id="text_3">
      <!-- 0.000 -->
      <g transform="translate(25.635312 173.592069)scale(0.22 -0.22)">
       <use xlink:href="#DejaVuSans-30"/>
       <use x="63.623047" xlink:href="#DejaVuSans-2e"/>
       <use x="95.410156" xlink:href="#DejaVuSans-30"/>
       <use x="159.033203" xlink:href="#DejaVuSans-30"/>
       <use x="222.65625" xlink:href="#DejaVuSans-30"/>
      </g>
     </g>
    </g>
    <g id="ytick_4">
     <g id="line2d_4">
      <g>
       <use style="stroke:#000000;stroke-width:0.8;" x="95.617188" xlink:href="#mdbc56a9124" y="93.46376"/>
      </g>
     </g>
     <g id="text_4">
      <!-- 0.001 -->
      <g transform="translate(25.635312 101.822041)scale(0.22 -0.22)">
       <use xlink:href="#DejaVuSans-30"/>
       <use x="63.623047" xlink:href="#DejaVuSans-2e"/>
       <use x="95.410156" xlink:href="#DejaVuSans-30"/>
       <use x="159.033203" xlink:href="#DejaVuSans-30"/>
       <use x="222.65625" xlink:href="#DejaVuSans-31"/>
      </g>
     </g>
    </g>
    <g id="ytick_5">
     <g id="line2d_5">
      <g>
       <use style="stroke:#000000;stroke-width:0.8;" x="95.617188" xlink:href="#mdbc56a9124" y="21.693733"/>
      </g>
     </g>
     <g id="text_5">
      <!-- 0.002 -->
      <g transform="translate(25.635312 30.052014)scale(0.22 -0.22)">
       <use xlink:href="#DejaVuSans-30"/>
       <use x="63.623047" xlink:href="#DejaVuSans-2e"/>
       <use x="95.410156" xlink:href="#DejaVuSans-30"/>
       <use x="159.033203" xlink:href="#DejaVuSans-30"/>
       <use x="222.65625" xlink:href="#DejaVuSans-32"/>
      </g>
     </g>
    </g>
   </g>
   <g id="patch_3">
    <path d="M 95.617188 343.34 
L 95.617188 10.7 
" style="fill:none;stroke:#000000;stroke-linecap:square;stroke-linejoin:miter;stroke-width:0.8;"/>
   </g>
   <g id="patch_4">
    <path d="M 430.417188 343.34 
L 430.417188 10.7 
" style="fill:none;stroke:#000000;stroke-linecap:square;stroke-linejoin:miter;stroke-width:0.8;"/>
   </g>
   <g id="patch_5">
    <path d="M 95.617188 343.34 
L 430.417188 343.34 
" style="fill:none;stroke:#000000;stroke-linecap:square;stroke-linejoin:miter;stroke-width:0.8;"/>
   </g>
   <g id="patch_6">
    <path d="M 95.617188 10.7 
L 430.417188 10.7 
" style="fill:none;stroke:#000000;stroke-linecap:square;stroke-linejoin:miter;stroke-width:0.8;"/>
   </g>
  </g>
 </g>
 <defs>
  <clipPath id="pa0ce351d2d">
   <rect height="332.64" width="334.8" x="95.617188" y="10.7"/>
  </clipPath>
 </defs>
</svg>
