<?xml version="1.0" encoding="utf-8" standalone="no"?>
<!DOCTYPE svg PUBLIC "-//W3C//DTD SVG 1.1//EN"
  "http://www.w3.org/Graphics/SVG/1.1/DTD/svg11.dtd">
<!-- Created with matplotlib (http://matplotlib.org/) -->
<svg height="359pt" version="1.1" viewBox="0 0 469 359" width="469pt" xmlns="http://www.w3.org/2000/svg" xmlns:xlink="http://www.w3.org/1999/xlink">
 <defs>
  <style type="text/css">
*{stroke-linecap:butt;stroke-linejoin:round;}
  </style>
 </defs>
 <g id="figure_1">
  <g id="patch_1">
   <path d="M 0 359.633537 
L 469.112187 359.633537 
L 469.112187 0 
L 0 0 
z
" style="fill:#ffffff;"/>
  </g>
  <g id="axes_1">
   <g id="patch_2">
    <path d="M 123.612188 343.34 
L 458.412188 343.34 
L 458.412188 10.7 
L 123.612188 10.7 
z
" style="fill:#ffffff;"/>
   </g>
   <g id="PolyCollection_1">
    <defs>
     <path d="M 138.830369 -31.413537 
L 138.830369 -179.959326 
L 142.13867 -179.959326 
L 145.44697 -179.959326 
L 148.755271 -179.959326 
L 152.063571 -179.959326 
L 155.371871 -179.959326 
L 158.680172 -179.959326 
L 161.988472 -179.959326 
L 165.296772 -179.959326 
L 168.605073 -179.959326 
L 171.913373 -179.959326 
L 175.221674 -179.959326 
L 178.529974 -179.959326 
L 181.838274 -179.959326 
L 185.146575 -179.959326 
L 188.454875 -179.959326 
L 191.763176 -179.959326 
L 195.071476 -179.959326 
L 198.379776 -179.959326 
L 201.688077 -179.959326 
L 204.996377 -179.959326 
L 208.304678 -179.959326 
L 211.612978 -179.959326 
L 214.921278 -179.959326 
L 218.229579 -179.959326 
L 221.537879 -179.959326 
L 224.84618 -179.959326 
L 228.15448 -179.959326 
L 231.46278 -179.959326 
L 234.771081 -179.959326 
L 238.079381 -179.959326 
L 241.387682 -179.959326 
L 244.695982 -179.959326 
L 248.004282 -179.959326 
L 251.312583 -179.959326 
L 254.620883 -179.959326 
L 257.929184 -179.959326 
L 261.237484 -179.959326 
L 264.545784 -179.959326 
L 267.854085 -179.959326 
L 271.162385 -179.959326 
L 274.470686 -179.959326 
L 277.778986 -179.959326 
L 281.087286 -179.959326 
L 284.395587 -179.959326 
L 287.703887 -179.959326 
L 291.012188 -179.959326 
L 294.320488 -179.959326 
L 297.628788 -179.959326 
L 300.937089 -179.959326 
L 304.245389 -179.959326 
L 307.553689 -179.959326 
L 310.86199 -179.959326 
L 314.17029 -179.959326 
L 317.478591 -179.959326 
L 320.786891 -179.959326 
L 324.095191 -179.959326 
L 327.403492 -179.959326 
L 330.711792 -179.959326 
L 334.020093 -179.959326 
L 337.328393 -179.959326 
L 340.636693 -179.959326 
L 343.944994 -179.959326 
L 347.253294 -179.959326 
L 350.561595 -179.959326 
L 353.869895 -179.959326 
L 357.178195 -179.959326 
L 360.486496 -179.959326 
L 363.794796 -179.959326 
L 367.103097 -179.959326 
L 370.411397 -179.959326 
L 373.719697 -179.959326 
L 377.027998 -179.959326 
L 380.336298 -179.959326 
L 383.644599 -179.959326 
L 386.952899 -179.959326 
L 390.261199 -179.959326 
L 393.5695 -179.959326 
L 396.8778 -179.959326 
L 400.186101 -179.959326 
L 403.494401 -179.959326 
L 406.802701 -179.959326 
L 410.111002 -179.959326 
L 413.419302 -179.959326 
L 416.727603 -179.959326 
L 420.035903 -179.959326 
L 423.344203 -179.959326 
L 426.652504 -179.959326 
L 429.960804 -179.959326 
L 433.269104 -179.959326 
L 436.577405 -179.959326 
L 439.885705 -179.959326 
L 443.194006 -179.959326 
L 443.194006 -333.813537 
L 443.194006 -333.813537 
L 439.885705 -333.089371 
L 436.577405 -315.797243 
L 433.269104 -277.15202 
L 429.960804 -268.958453 
L 426.652504 -263.915641 
L 423.344203 -261.786851 
L 420.035903 -259.55121 
L 416.727603 -245.132076 
L 413.419302 -243.327496 
L 410.111002 -238.981879 
L 406.802701 -238.045909 
L 403.494401 -236.87934 
L 400.186101 -233.177287 
L 396.8778 -232.671911 
L 393.5695 -224.2875 
L 390.261199 -218.961062 
L 386.952899 -217.466404 
L 383.644599 -213.864655 
L 380.336298 -209.404859 
L 377.027998 -208.535326 
L 373.719697 -208.437558 
L 370.411397 -207.641964 
L 367.103097 -203.338663 
L 363.794796 -201.857296 
L 360.486496 -201.28655 
L 357.178195 -199.712961 
L 353.869895 -197.815375 
L 350.561595 -197.314421 
L 347.253294 -193.735571 
L 343.944994 -192.666362 
L 340.636693 -191.804651 
L 337.328393 -191.763463 
L 334.020093 -191.645373 
L 330.711792 -191.350124 
L 327.403492 -189.740511 
L 324.095191 -188.714311 
L 320.786891 -187.553059 
L 317.478591 -187.45822 
L 314.17029 -187.008351 
L 310.86199 -186.657322 
L 307.553689 -186.491675 
L 304.245389 -186.096142 
L 300.937089 -185.771187 
L 297.628788 -185.328092 
L 294.320488 -184.206481 
L 291.012188 -183.273163 
L 287.703887 -182.1411 
L 284.395587 -181.473914 
L 281.087286 -181.010738 
L 277.778986 -180.278619 
L 274.470686 -180.081324 
L 271.162385 -180.036179 
L 267.854085 -179.905118 
L 264.545784 -179.807534 
L 261.237484 -179.695357 
L 257.929184 -179.346479 
L 254.620883 -178.57161 
L 251.312583 -178.528084 
L 248.004282 -177.444676 
L 244.695982 -177.392462 
L 241.387682 -176.431084 
L 238.079381 -173.99183 
L 234.771081 -171.883101 
L 231.46278 -170.203828 
L 228.15448 -168.754446 
L 224.84618 -168.33146 
L 221.537879 -166.432321 
L 218.229579 -166.067629 
L 214.921278 -165.867605 
L 211.612978 -165.451598 
L 208.304678 -164.91103 
L 204.996377 -162.885319 
L 201.688077 -161.770462 
L 198.379776 -160.800636 
L 195.071476 -158.381194 
L 191.763176 -156.990985 
L 188.454875 -156.032845 
L 185.146575 -155.947903 
L 181.838274 -152.575894 
L 178.529974 -152.062503 
L 175.221674 -146.308854 
L 171.913373 -146.303622 
L 168.605073 -145.704265 
L 165.296772 -141.565473 
L 161.988472 -132.319703 
L 158.680172 -122.217967 
L 155.371871 -118.949262 
L 152.063571 -117.646627 
L 148.755271 -114.813488 
L 145.44697 -114.150186 
L 142.13867 -102.512881 
L 138.830369 -31.413537 
z
" id="m176339e075" style="stroke:#4a98c9;"/>
    </defs>
    <g clip-path="url(#p6f3b4c96f3)">
     <use style="fill:#4a98c9;stroke:#4a98c9;" x="0" xlink:href="#m176339e075" y="359.633537"/>
    </g>
   </g>
   <g id="PolyCollection_2">
    <defs>
     <path d="M 138.830369 -31.413537 
L 138.830369 -179.959326 
L 142.13867 -179.959326 
L 145.44697 -179.959326 
L 148.755271 -179.959326 
L 152.063571 -179.959326 
L 155.371871 -179.959326 
L 158.680172 -179.959326 
L 161.988472 -179.959326 
L 165.296772 -179.959326 
L 168.605073 -179.959326 
L 171.913373 -179.959326 
L 175.221674 -179.959326 
L 178.529974 -179.959326 
L 181.838274 -179.959326 
L 185.146575 -179.959326 
L 188.454875 -179.959326 
L 191.763176 -179.959326 
L 195.071476 -179.959326 
L 198.379776 -179.959326 
L 201.688077 -179.959326 
L 204.996377 -179.959326 
L 208.304678 -179.959326 
L 211.612978 -179.959326 
L 214.921278 -179.959326 
L 218.229579 -179.959326 
L 221.537879 -179.959326 
L 224.84618 -179.959326 
L 228.15448 -179.959326 
L 231.46278 -179.959326 
L 234.771081 -179.959326 
L 238.079381 -179.959326 
L 241.387682 -179.959326 
L 244.695982 -179.959326 
L 248.004282 -179.959326 
L 251.312583 -179.959326 
L 254.620883 -179.959326 
L 257.929184 -179.959326 
L 261.237484 -179.959326 
L 264.545784 -179.959326 
L 267.854085 -179.959326 
L 271.162385 -179.959326 
L 274.470686 -179.959326 
L 277.778986 -179.959326 
L 281.087286 -179.959326 
L 284.395587 -179.959326 
L 287.703887 -179.959326 
L 291.012188 -179.959326 
L 294.320488 -179.959326 
L 297.628788 -179.959326 
L 300.937089 -179.959326 
L 304.245389 -179.959326 
L 307.553689 -179.959326 
L 310.86199 -179.959326 
L 314.17029 -179.959326 
L 317.478591 -179.959326 
L 320.786891 -179.959326 
L 324.095191 -179.959326 
L 327.403492 -179.959326 
L 330.711792 -179.959326 
L 334.020093 -179.959326 
L 337.328393 -179.959326 
L 340.636693 -179.959326 
L 343.944994 -179.959326 
L 347.253294 -179.959326 
L 350.561595 -179.959326 
L 353.869895 -179.959326 
L 357.178195 -179.959326 
L 360.486496 -179.959326 
L 363.794796 -179.959326 
L 367.103097 -179.959326 
L 370.411397 -179.959326 
L 373.719697 -179.959326 
L 377.027998 -179.959326 
L 380.336298 -179.959326 
L 383.644599 -179.959326 
L 386.952899 -179.959326 
L 390.261199 -179.959326 
L 393.5695 -179.959326 
L 396.8778 -179.959326 
L 400.186101 -179.959326 
L 403.494401 -179.959326 
L 406.802701 -179.959326 
L 410.111002 -179.959326 
L 413.419302 -179.959326 
L 416.727603 -179.959326 
L 420.035903 -179.959326 
L 423.344203 -179.959326 
L 426.652504 -179.959326 
L 429.960804 -179.959326 
L 433.269104 -179.959326 
L 436.577405 -179.959326 
L 439.885705 -179.959326 
L 443.194006 -179.959326 
L 443.194006 -333.813537 
L 443.194006 -333.813537 
L 439.885705 -333.089371 
L 436.577405 -315.797243 
L 433.269104 -277.15202 
L 429.960804 -268.958453 
L 426.652504 -263.915641 
L 423.344203 -261.786851 
L 420.035903 -259.55121 
L 416.727603 -245.132076 
L 413.419302 -243.327496 
L 410.111002 -238.981879 
L 406.802701 -238.045909 
L 403.494401 -236.87934 
L 400.186101 -233.177287 
L 396.8778 -232.671911 
L 393.5695 -224.2875 
L 390.261199 -218.961062 
L 386.952899 -217.466404 
L 383.644599 -213.864655 
L 380.336298 -209.404859 
L 377.027998 -208.535326 
L 373.719697 -208.437558 
L 370.411397 -207.641964 
L 367.103097 -203.338663 
L 363.794796 -201.857296 
L 360.486496 -201.28655 
L 357.178195 -199.712961 
L 353.869895 -197.815375 
L 350.561595 -197.314421 
L 347.253294 -193.735571 
L 343.944994 -192.666362 
L 340.636693 -191.804651 
L 337.328393 -191.763463 
L 334.020093 -191.645373 
L 330.711792 -191.350124 
L 327.403492 -189.740511 
L 324.095191 -188.714311 
L 320.786891 -187.553059 
L 317.478591 -187.45822 
L 314.17029 -187.008351 
L 310.86199 -186.657322 
L 307.553689 -186.491675 
L 304.245389 -186.096142 
L 300.937089 -185.771187 
L 297.628788 -185.328092 
L 294.320488 -184.206481 
L 291.012188 -183.273163 
L 287.703887 -182.1411 
L 284.395587 -181.473914 
L 281.087286 -181.010738 
L 277.778986 -180.278619 
L 274.470686 -180.081324 
L 271.162385 -180.036179 
L 267.854085 -179.905118 
L 264.545784 -179.807534 
L 261.237484 -179.695357 
L 257.929184 -179.346479 
L 254.620883 -178.57161 
L 251.312583 -178.528084 
L 248.004282 -177.444676 
L 244.695982 -177.392462 
L 241.387682 -176.431084 
L 238.079381 -173.99183 
L 234.771081 -171.883101 
L 231.46278 -170.203828 
L 228.15448 -168.754446 
L 224.84618 -168.33146 
L 221.537879 -166.432321 
L 218.229579 -166.067629 
L 214.921278 -165.867605 
L 211.612978 -165.451598 
L 208.304678 -164.91103 
L 204.996377 -162.885319 
L 201.688077 -161.770462 
L 198.379776 -160.800636 
L 195.071476 -158.381194 
L 191.763176 -156.990985 
L 188.454875 -156.032845 
L 185.146575 -155.947903 
L 181.838274 -152.575894 
L 178.529974 -152.062503 
L 175.221674 -146.308854 
L 171.913373 -146.303622 
L 168.605073 -145.704265 
L 165.296772 -141.565473 
L 161.988472 -132.319703 
L 158.680172 -122.217967 
L 155.371871 -118.949262 
L 152.063571 -117.646627 
L 148.755271 -114.813488 
L 145.44697 -114.150186 
L 142.13867 -102.512881 
L 138.830369 -31.413537 
z
" id="mefb2390ec4" style="stroke:#f14432;stroke-opacity:0.8;"/>
    </defs>
    <g clip-path="url(#p6f3b4c96f3)">
     <use style="fill:#f14432;fill-opacity:0.8;stroke:#f14432;stroke-opacity:0.8;" x="0" xlink:href="#mefb2390ec4" y="359.633537"/>
    </g>
   </g>
   <g id="matplotlib.axis_1"/>
   <g id="matplotlib.axis_2">
    <g id="ytick_1">
     <g id="line2d_1">
      <defs>
       <path d="M 0 0 
L -3.5 0 
" id="m0382494b18" style="stroke:#000000;stroke-width:0.8;"/>
      </defs>
      <g>
       <use style="stroke:#000000;stroke-width:0.8;" x="123.612188" xlink:href="#m0382494b18" y="339.499943"/>
      </g>
     </g>
     <g id="text_1">
      <!-- −0.00100 -->
      <defs>
       <path d="M 10.59375 35.5 
L 73.1875 35.5 
L 73.1875 27.203125 
L 10.59375 27.203125 
z
" id="DejaVuSans-2212"/>
       <path d="M 31.78125 66.40625 
Q 24.171875 66.40625 20.328125 58.90625 
Q 16.5 51.421875 16.5 36.375 
Q 16.5 21.390625 20.328125 13.890625 
Q 24.171875 6.390625 31.78125 6.390625 
Q 39.453125 6.390625 43.28125 13.890625 
Q 47.125 21.390625 47.125 36.375 
Q 47.125 51.421875 43.28125 58.90625 
Q 39.453125 66.40625 31.78125 66.40625 
z
M 31.78125 74.21875 
Q 44.046875 74.21875 50.515625 64.515625 
Q 56.984375 54.828125 56.984375 36.375 
Q 56.984375 17.96875 50.515625 8.265625 
Q 44.046875 -1.421875 31.78125 -1.421875 
Q 19.53125 -1.421875 13.0625 8.265625 
Q 6.59375 17.96875 6.59375 36.375 
Q 6.59375 54.828125 13.0625 64.515625 
Q 19.53125 74.21875 31.78125 74.21875 
z
" id="DejaVuSans-30"/>
       <path d="M 10.6875 12.40625 
L 21 12.40625 
L 21 0 
L 10.6875 0 
z
" id="DejaVuSans-2e"/>
       <path d="M 12.40625 8.296875 
L 28.515625 8.296875 
L 28.515625 63.921875 
L 10.984375 60.40625 
L 10.984375 69.390625 
L 28.421875 72.90625 
L 38.28125 72.90625 
L 38.28125 8.296875 
L 54.390625 8.296875 
L 54.390625 0 
L 12.40625 0 
z
" id="DejaVuSans-31"/>
      </defs>
      <g transform="translate(7.2 347.858224)scale(0.22 -0.22)">
       <use xlink:href="#DejaVuSans-2212"/>
       <use x="83.789062" xlink:href="#DejaVuSans-30"/>
       <use x="147.412109" xlink:href="#DejaVuSans-2e"/>
       <use x="179.199219" xlink:href="#DejaVuSans-30"/>
       <use x="242.822266" xlink:href="#DejaVuSans-30"/>
       <use x="306.445312" xlink:href="#DejaVuSans-31"/>
       <use x="370.068359" xlink:href="#DejaVuSans-30"/>
       <use x="433.691406" xlink:href="#DejaVuSans-30"/>
      </g>
     </g>
    </g>
    <g id="ytick_2">
     <g id="line2d_2">
      <g>
       <use style="stroke:#000000;stroke-width:0.8;" x="123.612188" xlink:href="#m0382494b18" y="299.54351"/>
      </g>
     </g>
     <g id="text_2">
      <!-- −0.00075 -->
      <defs>
       <path d="M 8.203125 72.90625 
L 55.078125 72.90625 
L 55.078125 68.703125 
L 28.609375 0 
L 18.3125 0 
L 43.21875 64.59375 
L 8.203125 64.59375 
z
" id="DejaVuSans-37"/>
       <path d="M 10.796875 72.90625 
L 49.515625 72.90625 
L 49.515625 64.59375 
L 19.828125 64.59375 
L 19.828125 46.734375 
Q 21.96875 47.46875 24.109375 47.828125 
Q 26.265625 48.1875 28.421875 48.1875 
Q 40.625 48.1875 47.75 41.5 
Q 54.890625 34.8125 54.890625 23.390625 
Q 54.890625 11.625 47.5625 5.09375 
Q 40.234375 -1.421875 26.90625 -1.421875 
Q 22.3125 -1.421875 17.546875 -0.640625 
Q 12.796875 0.140625 7.71875 1.703125 
L 7.71875 11.625 
Q 12.109375 9.234375 16.796875 8.0625 
Q 21.484375 6.890625 26.703125 6.890625 
Q 35.15625 6.890625 40.078125 11.328125 
Q 45.015625 15.765625 45.015625 23.390625 
Q 45.015625 31 40.078125 35.4375 
Q 35.15625 39.890625 26.703125 39.890625 
Q 22.75 39.890625 18.8125 39.015625 
Q 14.890625 38.140625 10.796875 36.28125 
z
" id="DejaVuSans-35"/>
      </defs>
      <g transform="translate(7.2 307.901791)scale(0.22 -0.22)">
       <use xlink:href="#DejaVuSans-2212"/>
       <use x="83.789062" xlink:href="#DejaVuSans-30"/>
       <use x="147.412109" xlink:href="#DejaVuSans-2e"/>
       <use x="179.199219" xlink:href="#DejaVuSans-30"/>
       <use x="242.822266" xlink:href="#DejaVuSans-30"/>
       <use x="306.445312" xlink:href="#DejaVuSans-30"/>
       <use x="370.068359" xlink:href="#DejaVuSans-37"/>
       <use x="433.691406" xlink:href="#DejaVuSans-35"/>
      </g>
     </g>
    </g>
    <g id="ytick_3">
     <g id="line2d_3">
      <g>
       <use style="stroke:#000000;stroke-width:0.8;" x="123.612188" xlink:href="#m0382494b18" y="259.587076"/>
      </g>
     </g>
     <g id="text_3">
      <!-- −0.00050 -->
      <g transform="translate(7.2 267.945358)scale(0.22 -0.22)">
       <use xlink:href="#DejaVuSans-2212"/>
       <use x="83.789062" xlink:href="#DejaVuSans-30"/>
       <use x="147.412109" xlink:href="#DejaVuSans-2e"/>
       <use x="179.199219" xlink:href="#DejaVuSans-30"/>
       <use x="242.822266" xlink:href="#DejaVuSans-30"/>
       <use x="306.445312" xlink:href="#DejaVuSans-30"/>
       <use x="370.068359" xlink:href="#DejaVuSans-35"/>
       <use x="433.691406" xlink:href="#DejaVuSans-30"/>
      </g>
     </g>
    </g>
    <g id="ytick_4">
     <g id="line2d_4">
      <g>
       <use style="stroke:#000000;stroke-width:0.8;" x="123.612188" xlink:href="#m0382494b18" y="219.630643"/>
      </g>
     </g>
     <g id="text_4">
      <!-- −0.00025 -->
      <defs>
       <path d="M 19.1875 8.296875 
L 53.609375 8.296875 
L 53.609375 0 
L 7.328125 0 
L 7.328125 8.296875 
Q 12.9375 14.109375 22.625 23.890625 
Q 32.328125 33.6875 34.8125 36.53125 
Q 39.546875 41.84375 41.421875 45.53125 
Q 43.3125 49.21875 43.3125 52.78125 
Q 43.3125 58.59375 39.234375 62.25 
Q 35.15625 65.921875 28.609375 65.921875 
Q 23.96875 65.921875 18.8125 64.3125 
Q 13.671875 62.703125 7.8125 59.421875 
L 7.8125 69.390625 
Q 13.765625 71.78125 18.9375 73 
Q 24.125 74.21875 28.421875 74.21875 
Q 39.75 74.21875 46.484375 68.546875 
Q 53.21875 62.890625 53.21875 53.421875 
Q 53.21875 48.921875 51.53125 44.890625 
Q 49.859375 40.875 45.40625 35.40625 
Q 44.1875 33.984375 37.640625 27.21875 
Q 31.109375 20.453125 19.1875 8.296875 
z
" id="DejaVuSans-32"/>
      </defs>
      <g transform="translate(7.2 227.988925)scale(0.22 -0.22)">
       <use xlink:href="#DejaVuSans-2212"/>
       <use x="83.789062" xlink:href="#DejaVuSans-30"/>
       <use x="147.412109" xlink:href="#DejaVuSans-2e"/>
       <use x="179.199219" xlink:href="#DejaVuSans-30"/>
       <use x="242.822266" xlink:href="#DejaVuSans-30"/>
       <use x="306.445312" xlink:href="#DejaVuSans-30"/>
       <use x="370.068359" xlink:href="#DejaVuSans-32"/>
       <use x="433.691406" xlink:href="#DejaVuSans-35"/>
      </g>
     </g>
    </g>
    <g id="ytick_5">
     <g id="line2d_5">
      <g>
       <use style="stroke:#000000;stroke-width:0.8;" x="123.612188" xlink:href="#m0382494b18" y="179.67421"/>
      </g>
     </g>
     <g id="text_5">
      <!-- 0.00000 -->
      <g transform="translate(25.635312 188.032491)scale(0.22 -0.22)">
       <use xlink:href="#DejaVuSans-30"/>
       <use x="63.623047" xlink:href="#DejaVuSans-2e"/>
       <use x="95.410156" xlink:href="#DejaVuSans-30"/>
       <use x="159.033203" xlink:href="#DejaVuSans-30"/>
       <use x="222.65625" xlink:href="#DejaVuSans-30"/>
       <use x="286.279297" xlink:href="#DejaVuSans-30"/>
       <use x="349.902344" xlink:href="#DejaVuSans-30"/>
      </g>
     </g>
    </g>
    <g id="ytick_6">
     <g id="line2d_6">
      <g>
       <use style="stroke:#000000;stroke-width:0.8;" x="123.612188" xlink:href="#m0382494b18" y="139.717777"/>
      </g>
     </g>
     <g id="text_6">
      <!-- 0.00025 -->
      <g transform="translate(25.635312 148.076058)scale(0.22 -0.22)">
       <use xlink:href="#DejaVuSans-30"/>
       <use x="63.623047" xlink:href="#DejaVuSans-2e"/>
       <use x="95.410156" xlink:href="#DejaVuSans-30"/>
       <use x="159.033203" xlink:href="#DejaVuSans-30"/>
       <use x="222.65625" xlink:href="#DejaVuSans-30"/>
       <use x="286.279297" xlink:href="#DejaVuSans-32"/>
       <use x="349.902344" xlink:href="#DejaVuSans-35"/>
      </g>
     </g>
    </g>
    <g id="ytick_7">
     <g id="line2d_7">
      <g>
       <use style="stroke:#000000;stroke-width:0.8;" x="123.612188" xlink:href="#m0382494b18" y="99.761344"/>
      </g>
     </g>
     <g id="text_7">
      <!-- 0.00050 -->
      <g transform="translate(25.635312 108.119625)scale(0.22 -0.22)">
       <use xlink:href="#DejaVuSans-30"/>
       <use x="63.623047" xlink:href="#DejaVuSans-2e"/>
       <use x="95.410156" xlink:href="#DejaVuSans-30"/>
       <use x="159.033203" xlink:href="#DejaVuSans-30"/>
       <use x="222.65625" xlink:href="#DejaVuSans-30"/>
       <use x="286.279297" xlink:href="#DejaVuSans-35"/>
       <use x="349.902344" xlink:href="#DejaVuSans-30"/>
      </g>
     </g>
    </g>
    <g id="ytick_8">
     <g id="line2d_8">
      <g>
       <use style="stroke:#000000;stroke-width:0.8;" x="123.612188" xlink:href="#m0382494b18" y="59.804911"/>
      </g>
     </g>
     <g id="text_8">
      <!-- 0.00075 -->
      <g transform="translate(25.635312 68.163192)scale(0.22 -0.22)">
       <use xlink:href="#DejaVuSans-30"/>
       <use x="63.623047" xlink:href="#DejaVuSans-2e"/>
       <use x="95.410156" xlink:href="#DejaVuSans-30"/>
       <use x="159.033203" xlink:href="#DejaVuSans-30"/>
       <use x="222.65625" xlink:href="#DejaVuSans-30"/>
       <use x="286.279297" xlink:href="#DejaVuSans-37"/>
       <use x="349.902344" xlink:href="#DejaVuSans-35"/>
      </g>
     </g>
    </g>
    <g id="ytick_9">
     <g id="line2d_9">
      <g>
       <use style="stroke:#000000;stroke-width:0.8;" x="123.612188" xlink:href="#m0382494b18" y="19.848477"/>
      </g>
     </g>
     <g id="text_9">
      <!-- 0.00100 -->
      <g transform="translate(25.635312 28.206759)scale(0.22 -0.22)">
       <use xlink:href="#DejaVuSans-30"/>
       <use x="63.623047" xlink:href="#DejaVuSans-2e"/>
       <use x="95.410156" xlink:href="#DejaVuSans-30"/>
       <use x="159.033203" xlink:href="#DejaVuSans-30"/>
       <use x="222.65625" xlink:href="#DejaVuSans-31"/>
       <use x="286.279297" xlink:href="#DejaVuSans-30"/>
       <use x="349.902344" xlink:href="#DejaVuSans-30"/>
      </g>
     </g>
    </g>
   </g>
   <g id="patch_3">
    <path d="M 123.612188 343.34 
L 123.612188 10.7 
" style="fill:none;stroke:#000000;stroke-linecap:square;stroke-linejoin:miter;stroke-width:0.8;"/>
   </g>
   <g id="patch_4">
    <path d="M 458.412188 343.34 
L 458.412188 10.7 
" style="fill:none;stroke:#000000;stroke-linecap:square;stroke-linejoin:miter;stroke-width:0.8;"/>
   </g>
   <g id="patch_5">
    <path d="M 123.612188 343.34 
L 458.412188 343.34 
" style="fill:none;stroke:#000000;stroke-linecap:square;stroke-linejoin:miter;stroke-width:0.8;"/>
   </g>
   <g id="patch_6">
    <path d="M 123.612188 10.7 
L 458.412188 10.7 
" style="fill:none;stroke:#000000;stroke-linecap:square;stroke-linejoin:miter;stroke-width:0.8;"/>
   </g>
  </g>
 </g>
 <defs>
  <clipPath id="p6f3b4c96f3">
   <rect height="332.64" width="334.8" x="123.612188" y="10.7"/>
  </clipPath>
 </defs>
</svg>
