<?xml version="1.0" encoding="utf-8" standalone="no"?>
<!DOCTYPE svg PUBLIC "-//W3C//DTD SVG 1.1//EN"
  "http://www.w3.org/Graphics/SVG/1.1/DTD/svg11.dtd">
<!-- Created with matplotlib (http://matplotlib.org/) -->
<svg height="354pt" version="1.1" viewBox="0 0 413 354" width="413pt" xmlns="http://www.w3.org/2000/svg" xmlns:xlink="http://www.w3.org/1999/xlink">
 <defs>
  <style type="text/css">
*{stroke-linecap:butt;stroke-linejoin:round;}
  </style>
 </defs>
 <g id="figure_1">
  <g id="patch_1">
   <path d="M 0 354.04 
L 413.122187 354.04 
L 413.122187 0 
L 0 0 
z
" style="fill:#ffffff;"/>
  </g>
  <g id="axes_1">
   <g id="patch_2">
    <path d="M 67.622187 343.34 
L 402.422188 343.34 
L 402.422188 10.7 
L 67.622187 10.7 
z
" style="fill:#ffffff;"/>
   </g>
   <g id="PolyCollection_1">
    <defs>
     <path d="M 82.840369 -37.240821 
L 82.840369 -138.507265 
L 86.14867 -138.507265 
L 89.45697 -138.507265 
L 92.765271 -138.507265 
L 96.073571 -138.507265 
L 99.381871 -138.507265 
L 102.690172 -138.507265 
L 105.998472 -138.507265 
L 109.306772 -138.507265 
L 112.615073 -138.507265 
L 115.923373 -138.507265 
L 119.231674 -138.507265 
L 122.539974 -138.507265 
L 125.848274 -138.507265 
L 129.156575 -138.507265 
L 132.464875 -138.507265 
L 135.773176 -138.507265 
L 139.081476 -138.507265 
L 142.389776 -138.507265 
L 145.698077 -138.507265 
L 149.006377 -138.507265 
L 152.314678 -138.507265 
L 155.622978 -138.507265 
L 158.931278 -138.507265 
L 162.239579 -138.507265 
L 165.547879 -138.507265 
L 168.85618 -138.507265 
L 172.16448 -138.507265 
L 175.47278 -138.507265 
L 178.781081 -138.507265 
L 182.089381 -138.507265 
L 185.397682 -138.507265 
L 188.705982 -138.507265 
L 192.014282 -138.507265 
L 195.322583 -138.507265 
L 198.630883 -138.507265 
L 201.939184 -138.507265 
L 205.247484 -138.507265 
L 208.555784 -138.507265 
L 211.864085 -138.507265 
L 215.172385 -138.507265 
L 218.480686 -138.507265 
L 221.788986 -138.507265 
L 225.097286 -138.507265 
L 228.405587 -138.507265 
L 231.713887 -138.507265 
L 235.022188 -138.507265 
L 238.330488 -138.507265 
L 241.638788 -138.507265 
L 244.947089 -138.507265 
L 248.255389 -138.507265 
L 251.563689 -138.507265 
L 254.87199 -138.507265 
L 258.18029 -138.507265 
L 261.488591 -138.507265 
L 264.796891 -138.507265 
L 268.105191 -138.507265 
L 271.413492 -138.507265 
L 274.721792 -138.507265 
L 278.030093 -138.507265 
L 281.338393 -138.507265 
L 284.646693 -138.507265 
L 287.954994 -138.507265 
L 291.263294 -138.507265 
L 294.571595 -138.507265 
L 297.879895 -138.507265 
L 301.188195 -138.507265 
L 304.496496 -138.507265 
L 307.804796 -138.507265 
L 311.113097 -138.507265 
L 314.421397 -138.507265 
L 317.729697 -138.507265 
L 321.037998 -138.507265 
L 324.346298 -138.507265 
L 327.654599 -138.507265 
L 330.962899 -138.507265 
L 334.271199 -138.507265 
L 337.5795 -138.507265 
L 340.8878 -138.507265 
L 344.196101 -138.507265 
L 347.504401 -138.507265 
L 350.812701 -138.507265 
L 354.121002 -138.507265 
L 357.429302 -138.507265 
L 360.737603 -138.507265 
L 364.045903 -138.507265 
L 367.354203 -138.507265 
L 370.662504 -138.507265 
L 373.970804 -138.507265 
L 377.279104 -138.507265 
L 380.587405 -138.507265 
L 383.895705 -138.507265 
L 387.204006 -138.507265 
L 387.204006 -229.555834 
L 387.204006 -229.555834 
L 383.895705 -201.878214 
L 380.587405 -200.397482 
L 377.279104 -198.608894 
L 373.970804 -192.696543 
L 370.662504 -192.468661 
L 367.354203 -191.114607 
L 364.045903 -190.921722 
L 360.737603 -187.329884 
L 357.429302 -181.734289 
L 354.121002 -172.397751 
L 350.812701 -169.948357 
L 347.504401 -168.350545 
L 344.196101 -166.026724 
L 340.8878 -164.947817 
L 337.5795 -160.98221 
L 334.271199 -159.571168 
L 330.962899 -158.927547 
L 327.654599 -150.323316 
L 324.346298 -148.916272 
L 321.037998 -146.566368 
L 317.729697 -145.072933 
L 314.421397 -145.018952 
L 311.113097 -143.881318 
L 307.804796 -143.394278 
L 304.496496 -142.685514 
L 301.188195 -142.633669 
L 297.879895 -142.373473 
L 294.571595 -141.981127 
L 291.263294 -141.901232 
L 287.954994 -141.830411 
L 284.646693 -141.541827 
L 281.338393 -140.714253 
L 278.030093 -140.693842 
L 274.721792 -140.125156 
L 271.413492 -139.964649 
L 268.105191 -139.802524 
L 264.796891 -139.47094 
L 261.488591 -139.448054 
L 258.18029 -139.417086 
L 254.87199 -139.327451 
L 251.563689 -139.119726 
L 248.255389 -139.046351 
L 244.947089 -139.040732 
L 241.638788 -138.977554 
L 238.330488 -138.922487 
L 235.022188 -138.881821 
L 231.713887 -138.82858 
L 228.405587 -138.684239 
L 225.097286 -138.680967 
L 221.788986 -138.677574 
L 218.480686 -138.670047 
L 215.172385 -138.646626 
L 211.864085 -138.536822 
L 208.555784 -138.502586 
L 205.247484 -138.483831 
L 201.939184 -138.410857 
L 198.630883 -138.407014 
L 195.322583 -138.398716 
L 192.014282 -138.387833 
L 188.705982 -138.334914 
L 185.397682 -138.314792 
L 182.089381 -138.283031 
L 178.781081 -138.196932 
L 175.47278 -138.025878 
L 172.16448 -137.972642 
L 168.85618 -137.87729 
L 165.547879 -137.699584 
L 162.239579 -137.487388 
L 158.931278 -137.322426 
L 155.622978 -137.191663 
L 152.314678 -136.72998 
L 149.006377 -135.62703 
L 145.698077 -131.629022 
L 142.389776 -130.552315 
L 139.081476 -129.944797 
L 135.773176 -129.583626 
L 132.464875 -124.981565 
L 129.156575 -124.871026 
L 125.848274 -122.932865 
L 122.539974 -121.017597 
L 119.231674 -119.124402 
L 115.923373 -112.431178 
L 112.615073 -111.656527 
L 109.306772 -108.958836 
L 105.998472 -103.323138 
L 102.690172 -95.203367 
L 99.381871 -93.488125 
L 96.073571 -90.032459 
L 92.765271 -86.959289 
L 89.45697 -78.339013 
L 86.14867 -48.879067 
L 82.840369 -37.240821 
z
" id="m24acabd9b3" style="stroke:#4a98c9;"/>
    </defs>
    <g clip-path="url(#p69f3f9888e)">
     <use style="fill:#4a98c9;stroke:#4a98c9;" x="0" xlink:href="#m24acabd9b3" y="354.04"/>
    </g>
   </g>
   <g id="PolyCollection_2">
    <defs>
     <path d="M 82.840369 -25.82 
L 82.840369 -138.507265 
L 86.14867 -138.507265 
L 89.45697 -138.507265 
L 92.765271 -138.507265 
L 96.073571 -138.507265 
L 99.381871 -138.507265 
L 102.690172 -138.507265 
L 105.998472 -138.507265 
L 109.306772 -138.507265 
L 112.615073 -138.507265 
L 115.923373 -138.507265 
L 119.231674 -138.507265 
L 122.539974 -138.507265 
L 125.848274 -138.507265 
L 129.156575 -138.507265 
L 132.464875 -138.507265 
L 135.773176 -138.507265 
L 139.081476 -138.507265 
L 142.389776 -138.507265 
L 145.698077 -138.507265 
L 149.006377 -138.507265 
L 152.314678 -138.507265 
L 155.622978 -138.507265 
L 158.931278 -138.507265 
L 162.239579 -138.507265 
L 165.547879 -138.507265 
L 168.85618 -138.507265 
L 172.16448 -138.507265 
L 175.47278 -138.507265 
L 178.781081 -138.507265 
L 182.089381 -138.507265 
L 185.397682 -138.507265 
L 188.705982 -138.507265 
L 192.014282 -138.507265 
L 195.322583 -138.507265 
L 198.630883 -138.507265 
L 201.939184 -138.507265 
L 205.247484 -138.507265 
L 208.555784 -138.507265 
L 211.864085 -138.507265 
L 215.172385 -138.507265 
L 218.480686 -138.507265 
L 221.788986 -138.507265 
L 225.097286 -138.507265 
L 228.405587 -138.507265 
L 231.713887 -138.507265 
L 235.022188 -138.507265 
L 238.330488 -138.507265 
L 241.638788 -138.507265 
L 244.947089 -138.507265 
L 248.255389 -138.507265 
L 251.563689 -138.507265 
L 254.87199 -138.507265 
L 258.18029 -138.507265 
L 261.488591 -138.507265 
L 264.796891 -138.507265 
L 268.105191 -138.507265 
L 271.413492 -138.507265 
L 274.721792 -138.507265 
L 278.030093 -138.507265 
L 281.338393 -138.507265 
L 284.646693 -138.507265 
L 287.954994 -138.507265 
L 291.263294 -138.507265 
L 294.571595 -138.507265 
L 297.879895 -138.507265 
L 301.188195 -138.507265 
L 304.496496 -138.507265 
L 307.804796 -138.507265 
L 311.113097 -138.507265 
L 314.421397 -138.507265 
L 317.729697 -138.507265 
L 321.037998 -138.507265 
L 324.346298 -138.507265 
L 327.654599 -138.507265 
L 330.962899 -138.507265 
L 334.271199 -138.507265 
L 337.5795 -138.507265 
L 340.8878 -138.507265 
L 344.196101 -138.507265 
L 347.504401 -138.507265 
L 350.812701 -138.507265 
L 354.121002 -138.507265 
L 357.429302 -138.507265 
L 360.737603 -138.507265 
L 364.045903 -138.507265 
L 367.354203 -138.507265 
L 370.662504 -138.507265 
L 373.970804 -138.507265 
L 377.279104 -138.507265 
L 380.587405 -138.507265 
L 383.895705 -138.507265 
L 387.204006 -138.507265 
L 387.204006 -328.22 
L 387.204006 -328.22 
L 383.895705 -327.186524 
L 380.587405 -268.736443 
L 377.279104 -255.000338 
L 373.970804 -235.560033 
L 370.662504 -219.794525 
L 367.354203 -213.499324 
L 364.045903 -212.879857 
L 360.737603 -212.699883 
L 357.429302 -206.331535 
L 354.121002 -199.341661 
L 350.812701 -186.888196 
L 347.504401 -185.012393 
L 344.196101 -183.35138 
L 340.8878 -178.91694 
L 337.5795 -172.737847 
L 334.271199 -168.272466 
L 330.962899 -161.642147 
L 327.654599 -161.561695 
L 324.346298 -156.199748 
L 321.037998 -154.709866 
L 317.729697 -150.607719 
L 314.421397 -150.423438 
L 311.113097 -148.109956 
L 307.804796 -144.06704 
L 304.496496 -142.433924 
L 301.188195 -141.532478 
L 297.879895 -140.852234 
L 294.571595 -140.656495 
L 291.263294 -140.594636 
L 287.954994 -140.216845 
L 284.646693 -140.141667 
L 281.338393 -139.985358 
L 278.030093 -139.946257 
L 274.721792 -139.692642 
L 271.413492 -139.614299 
L 268.105191 -139.426378 
L 264.796891 -139.413272 
L 261.488591 -139.355197 
L 258.18029 -139.267321 
L 254.87199 -139.236693 
L 251.563689 -139.1828 
L 248.255389 -139.110575 
L 244.947089 -139.097798 
L 241.638788 -138.890657 
L 238.330488 -138.794712 
L 235.022188 -138.792884 
L 231.713887 -138.775949 
L 228.405587 -138.643441 
L 225.097286 -138.62357 
L 221.788986 -138.579884 
L 218.480686 -138.541305 
L 215.172385 -138.486441 
L 211.864085 -138.459735 
L 208.555784 -138.385628 
L 205.247484 -138.377653 
L 201.939184 -138.260825 
L 198.630883 -138.22768 
L 195.322583 -138.224042 
L 192.014282 -138.203019 
L 188.705982 -138.157978 
L 185.397682 -138.138618 
L 182.089381 -138.121208 
L 178.781081 -138.118489 
L 175.47278 -138.105895 
L 172.16448 -138.092248 
L 168.85618 -137.717307 
L 165.547879 -137.427831 
L 162.239579 -137.337329 
L 158.931278 -137.304384 
L 155.622978 -137.210817 
L 152.314678 -136.523727 
L 149.006377 -136.111132 
L 145.698077 -135.350956 
L 142.389776 -134.872466 
L 139.081476 -133.844486 
L 135.773176 -132.450719 
L 132.464875 -130.981527 
L 129.156575 -130.197172 
L 125.848274 -129.735506 
L 122.539974 -128.716391 
L 119.231674 -115.906348 
L 115.923373 -115.587394 
L 112.615073 -109.377167 
L 109.306772 -100.351342 
L 105.998472 -98.281342 
L 102.690172 -74.638795 
L 99.381871 -74.298072 
L 96.073571 -69.99816 
L 92.765271 -61.219796 
L 89.45697 -51.722805 
L 86.14867 -36.709555 
L 82.840369 -25.82 
z
" id="mfc021aeca2" style="stroke:#f14432;stroke-opacity:0.8;"/>
    </defs>
    <g clip-path="url(#p69f3f9888e)">
     <use style="fill:#f14432;fill-opacity:0.8;stroke:#f14432;stroke-opacity:0.8;" x="0" xlink:href="#mfc021aeca2" y="354.04"/>
    </g>
   </g>
   <g id="matplotlib.axis_1"/>
   <g id="matplotlib.axis_2">
    <g id="ytick_1">
     <g id="line2d_1">
      <defs>
       <path d="M 0 0 
L -3.5 0 
" id="mbc172f83fe" style="stroke:#000000;stroke-width:0.8;"/>
      </defs>
      <g>
       <use style="stroke:#000000;stroke-width:0.8;" x="67.622187" xlink:href="#mbc172f83fe" y="329.040129"/>
      </g>
     </g>
     <g id="text_1">
      <!-- −0.2 -->
      <defs>
       <path d="M 10.59375 35.5 
L 73.1875 35.5 
L 73.1875 27.203125 
L 10.59375 27.203125 
z
" id="DejaVuSans-2212"/>
       <path d="M 31.78125 66.40625 
Q 24.171875 66.40625 20.328125 58.90625 
Q 16.5 51.421875 16.5 36.375 
Q 16.5 21.390625 20.328125 13.890625 
Q 24.171875 6.390625 31.78125 6.390625 
Q 39.453125 6.390625 43.28125 13.890625 
Q 47.125 21.390625 47.125 36.375 
Q 47.125 51.421875 43.28125 58.90625 
Q 39.453125 66.40625 31.78125 66.40625 
z
M 31.78125 74.21875 
Q 44.046875 74.21875 50.515625 64.515625 
Q 56.984375 54.828125 56.984375 36.375 
Q 56.984375 17.96875 50.515625 8.265625 
Q 44.046875 -1.421875 31.78125 -1.421875 
Q 19.53125 -1.421875 13.0625 8.265625 
Q 6.59375 17.96875 6.59375 36.375 
Q 6.59375 54.828125 13.0625 64.515625 
Q 19.53125 74.21875 31.78125 74.21875 
z
" id="DejaVuSans-30"/>
       <path d="M 10.6875 12.40625 
L 21 12.40625 
L 21 0 
L 10.6875 0 
z
" id="DejaVuSans-2e"/>
       <path d="M 19.1875 8.296875 
L 53.609375 8.296875 
L 53.609375 0 
L 7.328125 0 
L 7.328125 8.296875 
Q 12.9375 14.109375 22.625 23.890625 
Q 32.328125 33.6875 34.8125 36.53125 
Q 39.546875 41.84375 41.421875 45.53125 
Q 43.3125 49.21875 43.3125 52.78125 
Q 43.3125 58.59375 39.234375 62.25 
Q 35.15625 65.921875 28.609375 65.921875 
Q 23.96875 65.921875 18.8125 64.3125 
Q 13.671875 62.703125 7.8125 59.421875 
L 7.8125 69.390625 
Q 13.765625 71.78125 18.9375 73 
Q 24.125 74.21875 28.421875 74.21875 
Q 39.75 74.21875 46.484375 68.546875 
Q 53.21875 62.890625 53.21875 53.421875 
Q 53.21875 48.921875 51.53125 44.890625 
Q 49.859375 40.875 45.40625 35.40625 
Q 44.1875 33.984375 37.640625 27.21875 
Q 31.109375 20.453125 19.1875 8.296875 
z
" id="DejaVuSans-32"/>
      </defs>
      <g transform="translate(7.2 337.39841)scale(0.22 -0.22)">
       <use xlink:href="#DejaVuSans-2212"/>
       <use x="83.789062" xlink:href="#DejaVuSans-30"/>
       <use x="147.412109" xlink:href="#DejaVuSans-2e"/>
       <use x="179.199219" xlink:href="#DejaVuSans-32"/>
      </g>
     </g>
    </g>
    <g id="ytick_2">
     <g id="line2d_2">
      <g>
       <use style="stroke:#000000;stroke-width:0.8;" x="67.622187" xlink:href="#mbc172f83fe" y="272.286432"/>
      </g>
     </g>
     <g id="text_2">
      <!-- −0.1 -->
      <defs>
       <path d="M 12.40625 8.296875 
L 28.515625 8.296875 
L 28.515625 63.921875 
L 10.984375 60.40625 
L 10.984375 69.390625 
L 28.421875 72.90625 
L 38.28125 72.90625 
L 38.28125 8.296875 
L 54.390625 8.296875 
L 54.390625 0 
L 12.40625 0 
z
" id="DejaVuSans-31"/>
      </defs>
      <g transform="translate(7.2 280.644713)scale(0.22 -0.22)">
       <use xlink:href="#DejaVuSans-2212"/>
       <use x="83.789062" xlink:href="#DejaVuSans-30"/>
       <use x="147.412109" xlink:href="#DejaVuSans-2e"/>
       <use x="179.199219" xlink:href="#DejaVuSans-31"/>
      </g>
     </g>
    </g>
    <g id="ytick_3">
     <g id="line2d_3">
      <g>
       <use style="stroke:#000000;stroke-width:0.8;" x="67.622187" xlink:href="#mbc172f83fe" y="215.532735"/>
      </g>
     </g>
     <g id="text_3">
      <!-- 0.0 -->
      <g transform="translate(25.635312 223.891017)scale(0.22 -0.22)">
       <use xlink:href="#DejaVuSans-30"/>
       <use x="63.623047" xlink:href="#DejaVuSans-2e"/>
       <use x="95.410156" xlink:href="#DejaVuSans-30"/>
      </g>
     </g>
    </g>
    <g id="ytick_4">
     <g id="line2d_4">
      <g>
       <use style="stroke:#000000;stroke-width:0.8;" x="67.622187" xlink:href="#mbc172f83fe" y="158.779039"/>
      </g>
     </g>
     <g id="text_4">
      <!-- 0.1 -->
      <g transform="translate(25.635312 167.13732)scale(0.22 -0.22)">
       <use xlink:href="#DejaVuSans-30"/>
       <use x="63.623047" xlink:href="#DejaVuSans-2e"/>
       <use x="95.410156" xlink:href="#DejaVuSans-31"/>
      </g>
     </g>
    </g>
    <g id="ytick_5">
     <g id="line2d_5">
      <g>
       <use style="stroke:#000000;stroke-width:0.8;" x="67.622187" xlink:href="#mbc172f83fe" y="102.025342"/>
      </g>
     </g>
     <g id="text_5">
      <!-- 0.2 -->
      <g transform="translate(25.635312 110.383623)scale(0.22 -0.22)">
       <use xlink:href="#DejaVuSans-30"/>
       <use x="63.623047" xlink:href="#DejaVuSans-2e"/>
       <use x="95.410156" xlink:href="#DejaVuSans-32"/>
      </g>
     </g>
    </g>
    <g id="ytick_6">
     <g id="line2d_6">
      <g>
       <use style="stroke:#000000;stroke-width:0.8;" x="67.622187" xlink:href="#mbc172f83fe" y="45.271645"/>
      </g>
     </g>
     <g id="text_6">
      <!-- 0.3 -->
      <defs>
       <path d="M 40.578125 39.3125 
Q 47.65625 37.796875 51.625 33 
Q 55.609375 28.21875 55.609375 21.1875 
Q 55.609375 10.40625 48.1875 4.484375 
Q 40.765625 -1.421875 27.09375 -1.421875 
Q 22.515625 -1.421875 17.65625 -0.515625 
Q 12.796875 0.390625 7.625 2.203125 
L 7.625 11.71875 
Q 11.71875 9.328125 16.59375 8.109375 
Q 21.484375 6.890625 26.8125 6.890625 
Q 36.078125 6.890625 40.9375 10.546875 
Q 45.796875 14.203125 45.796875 21.1875 
Q 45.796875 27.640625 41.28125 31.265625 
Q 36.765625 34.90625 28.71875 34.90625 
L 20.21875 34.90625 
L 20.21875 43.015625 
L 29.109375 43.015625 
Q 36.375 43.015625 40.234375 45.921875 
Q 44.09375 48.828125 44.09375 54.296875 
Q 44.09375 59.90625 40.109375 62.90625 
Q 36.140625 65.921875 28.71875 65.921875 
Q 24.65625 65.921875 20.015625 65.03125 
Q 15.375 64.15625 9.8125 62.3125 
L 9.8125 71.09375 
Q 15.4375 72.65625 20.34375 73.4375 
Q 25.25 74.21875 29.59375 74.21875 
Q 40.828125 74.21875 47.359375 69.109375 
Q 53.90625 64.015625 53.90625 55.328125 
Q 53.90625 49.265625 50.4375 45.09375 
Q 46.96875 40.921875 40.578125 39.3125 
z
" id="DejaVuSans-33"/>
      </defs>
      <g transform="translate(25.635312 53.629927)scale(0.22 -0.22)">
       <use xlink:href="#DejaVuSans-30"/>
       <use x="63.623047" xlink:href="#DejaVuSans-2e"/>
       <use x="95.410156" xlink:href="#DejaVuSans-33"/>
      </g>
     </g>
    </g>
   </g>
   <g id="patch_3">
    <path d="M 67.622187 343.34 
L 67.622187 10.7 
" style="fill:none;stroke:#000000;stroke-linecap:square;stroke-linejoin:miter;stroke-width:0.8;"/>
   </g>
   <g id="patch_4">
    <path d="M 402.422188 343.34 
L 402.422188 10.7 
" style="fill:none;stroke:#000000;stroke-linecap:square;stroke-linejoin:miter;stroke-width:0.8;"/>
   </g>
   <g id="patch_5">
    <path d="M 67.622187 343.34 
L 402.422188 343.34 
" style="fill:none;stroke:#000000;stroke-linecap:square;stroke-linejoin:miter;stroke-width:0.8;"/>
   </g>
   <g id="patch_6">
    <path d="M 67.622187 10.7 
L 402.422188 10.7 
" style="fill:none;stroke:#000000;stroke-linecap:square;stroke-linejoin:miter;stroke-width:0.8;"/>
   </g>
  </g>
 </g>
 <defs>
  <clipPath id="p69f3f9888e">
   <rect height="332.64" width="334.8" x="67.622187" y="10.7"/>
  </clipPath>
 </defs>
</svg>
