<?xml version="1.0" encoding="utf-8" standalone="no"?>
<!DOCTYPE svg PUBLIC "-//W3C//DTD SVG 1.1//EN"
  "http://www.w3.org/Graphics/SVG/1.1/DTD/svg11.dtd">
<!-- Created with matplotlib (http://matplotlib.org/) -->
<svg height="358pt" version="1.1" viewBox="0 0 427 358" width="427pt" xmlns="http://www.w3.org/2000/svg" xmlns:xlink="http://www.w3.org/1999/xlink">
 <defs>
  <style type="text/css">
*{stroke-linecap:butt;stroke-linejoin:round;}
  </style>
 </defs>
 <g id="figure_1">
  <g id="patch_1">
   <path d="M 0 358.847939 
L 427.119687 358.847939 
L 427.119687 -0 
L 0 -0 
z
" style="fill:#ffffff;"/>
  </g>
  <g id="axes_1">
   <g id="patch_2">
    <path d="M 81.619687 348.147939 
L 416.419688 348.147939 
L 416.419688 15.507939 
L 81.619687 15.507939 
z
" style="fill:#ffffff;"/>
   </g>
   <g id="PolyCollection_1">
    <defs>
     <path d="M 96.837869 -25.82 
L 96.837869 -193.557558 
L 100.14617 -193.557558 
L 103.45447 -193.557558 
L 106.762771 -193.557558 
L 110.071071 -193.557558 
L 113.379371 -193.557558 
L 116.687672 -193.557558 
L 119.995972 -193.557558 
L 123.304272 -193.557558 
L 126.612573 -193.557558 
L 129.920873 -193.557558 
L 133.229174 -193.557558 
L 136.537474 -193.557558 
L 139.845774 -193.557558 
L 143.154075 -193.557558 
L 146.462375 -193.557558 
L 149.770676 -193.557558 
L 153.078976 -193.557558 
L 156.387276 -193.557558 
L 159.695577 -193.557558 
L 163.003877 -193.557558 
L 166.312178 -193.557558 
L 169.620478 -193.557558 
L 172.928778 -193.557558 
L 176.237079 -193.557558 
L 179.545379 -193.557558 
L 182.85368 -193.557558 
L 186.16198 -193.557558 
L 189.47028 -193.557558 
L 192.778581 -193.557558 
L 196.086881 -193.557558 
L 199.395182 -193.557558 
L 202.703482 -193.557558 
L 206.011782 -193.557558 
L 209.320083 -193.557558 
L 212.628383 -193.557558 
L 215.936684 -193.557558 
L 219.244984 -193.557558 
L 222.553284 -193.557558 
L 225.861585 -193.557558 
L 229.169885 -193.557558 
L 232.478186 -193.557558 
L 235.786486 -193.557558 
L 239.094786 -193.557558 
L 242.403087 -193.557558 
L 245.711387 -193.557558 
L 249.019688 -193.557558 
L 252.327988 -193.557558 
L 255.636288 -193.557558 
L 258.944589 -193.557558 
L 262.252889 -193.557558 
L 265.561189 -193.557558 
L 268.86949 -193.557558 
L 272.17779 -193.557558 
L 275.486091 -193.557558 
L 278.794391 -193.557558 
L 282.102691 -193.557558 
L 285.410992 -193.557558 
L 288.719292 -193.557558 
L 292.027593 -193.557558 
L 295.335893 -193.557558 
L 298.644193 -193.557558 
L 301.952494 -193.557558 
L 305.260794 -193.557558 
L 308.569095 -193.557558 
L 311.877395 -193.557558 
L 315.185695 -193.557558 
L 318.493996 -193.557558 
L 321.802296 -193.557558 
L 325.110597 -193.557558 
L 328.418897 -193.557558 
L 331.727197 -193.557558 
L 335.035498 -193.557558 
L 338.343798 -193.557558 
L 341.652099 -193.557558 
L 344.960399 -193.557558 
L 348.268699 -193.557558 
L 351.577 -193.557558 
L 354.8853 -193.557558 
L 358.193601 -193.557558 
L 361.501901 -193.557558 
L 364.810201 -193.557558 
L 368.118502 -193.557558 
L 371.426802 -193.557558 
L 374.735103 -193.557558 
L 378.043403 -193.557558 
L 381.351703 -193.557558 
L 384.660004 -193.557558 
L 387.968304 -193.557558 
L 391.276604 -193.557558 
L 394.584905 -193.557558 
L 397.893205 -193.557558 
L 401.201506 -193.557558 
L 401.201506 -328.22 
L 401.201506 -328.22 
L 397.893205 -320.416513 
L 394.584905 -301.247128 
L 391.276604 -298.430692 
L 387.968304 -294.889129 
L 384.660004 -285.233167 
L 381.351703 -279.487984 
L 378.043403 -268.950916 
L 374.735103 -268.329392 
L 371.426802 -267.104259 
L 368.118502 -256.478578 
L 364.810201 -251.529174 
L 361.501901 -250.050689 
L 358.193601 -243.724542 
L 354.8853 -227.290183 
L 351.577 -225.362323 
L 348.268699 -220.232856 
L 344.960399 -218.578775 
L 341.652099 -213.549722 
L 338.343798 -207.568055 
L 335.035498 -203.755817 
L 331.727197 -203.336733 
L 328.418897 -202.999421 
L 325.110597 -202.659641 
L 321.802296 -201.13824 
L 318.493996 -199.982288 
L 315.185695 -199.66596 
L 311.877395 -197.571955 
L 308.569095 -197.396967 
L 305.260794 -195.273386 
L 301.952494 -194.145141 
L 298.644193 -193.90529 
L 295.335893 -193.843262 
L 292.027593 -193.84176 
L 288.719292 -193.841654 
L 285.410992 -193.832609 
L 282.102691 -193.752761 
L 278.794391 -193.739907 
L 275.486091 -193.724419 
L 272.17779 -193.716049 
L 268.86949 -193.704211 
L 265.561189 -193.677144 
L 262.252889 -193.673807 
L 258.944589 -193.667346 
L 255.636288 -193.649263 
L 252.327988 -193.618885 
L 249.019688 -193.613132 
L 245.711387 -193.610592 
L 242.403087 -193.568953 
L 239.094786 -193.568453 
L 235.786486 -193.565075 
L 232.478186 -193.563847 
L 229.169885 -193.56033 
L 225.861585 -193.559097 
L 222.553284 -193.558864 
L 219.244984 -193.548299 
L 215.936684 -193.524052 
L 212.628383 -193.508382 
L 209.320083 -193.507485 
L 206.011782 -193.494305 
L 202.703482 -193.486896 
L 199.395182 -193.480637 
L 196.086881 -193.475497 
L 192.778581 -193.461102 
L 189.47028 -193.402362 
L 186.16198 -193.401013 
L 182.85368 -193.383536 
L 179.545379 -193.341544 
L 176.237079 -193.338549 
L 172.928778 -193.152609 
L 169.620478 -193.010545 
L 166.312178 -192.988926 
L 163.003877 -192.505689 
L 159.695577 -192.425576 
L 156.387276 -191.978942 
L 153.078976 -191.642247 
L 149.770676 -189.154836 
L 146.462375 -187.192037 
L 143.154075 -186.690347 
L 139.845774 -185.601065 
L 136.537474 -181.99492 
L 133.229174 -180.493634 
L 129.920873 -179.873904 
L 126.612573 -179.451882 
L 123.304272 -176.436674 
L 119.995972 -171.716956 
L 116.687672 -166.05192 
L 113.379371 -164.4096 
L 110.071071 -160.835036 
L 106.762771 -150.628221 
L 103.45447 -136.69865 
L 100.14617 -91.071033 
L 96.837869 -25.82 
z
" id="m472f5e9924" style="stroke:#4a98c9;"/>
    </defs>
    <g clip-path="url(#p4c17d4835c)">
     <use style="fill:#4a98c9;stroke:#4a98c9;" x="0" xlink:href="#m472f5e9924" y="358.847939"/>
    </g>
   </g>
   <g id="PolyCollection_2">
    <defs>
     <path d="M 96.837869 -95.925132 
L 96.837869 -193.557558 
L 100.14617 -193.557558 
L 103.45447 -193.557558 
L 106.762771 -193.557558 
L 110.071071 -193.557558 
L 113.379371 -193.557558 
L 116.687672 -193.557558 
L 119.995972 -193.557558 
L 123.304272 -193.557558 
L 126.612573 -193.557558 
L 129.920873 -193.557558 
L 133.229174 -193.557558 
L 136.537474 -193.557558 
L 139.845774 -193.557558 
L 143.154075 -193.557558 
L 146.462375 -193.557558 
L 149.770676 -193.557558 
L 153.078976 -193.557558 
L 156.387276 -193.557558 
L 159.695577 -193.557558 
L 163.003877 -193.557558 
L 166.312178 -193.557558 
L 169.620478 -193.557558 
L 172.928778 -193.557558 
L 176.237079 -193.557558 
L 179.545379 -193.557558 
L 182.85368 -193.557558 
L 186.16198 -193.557558 
L 189.47028 -193.557558 
L 192.778581 -193.557558 
L 196.086881 -193.557558 
L 199.395182 -193.557558 
L 202.703482 -193.557558 
L 206.011782 -193.557558 
L 209.320083 -193.557558 
L 212.628383 -193.557558 
L 215.936684 -193.557558 
L 219.244984 -193.557558 
L 222.553284 -193.557558 
L 225.861585 -193.557558 
L 229.169885 -193.557558 
L 232.478186 -193.557558 
L 235.786486 -193.557558 
L 239.094786 -193.557558 
L 242.403087 -193.557558 
L 245.711387 -193.557558 
L 249.019688 -193.557558 
L 252.327988 -193.557558 
L 255.636288 -193.557558 
L 258.944589 -193.557558 
L 262.252889 -193.557558 
L 265.561189 -193.557558 
L 268.86949 -193.557558 
L 272.17779 -193.557558 
L 275.486091 -193.557558 
L 278.794391 -193.557558 
L 282.102691 -193.557558 
L 285.410992 -193.557558 
L 288.719292 -193.557558 
L 292.027593 -193.557558 
L 295.335893 -193.557558 
L 298.644193 -193.557558 
L 301.952494 -193.557558 
L 305.260794 -193.557558 
L 308.569095 -193.557558 
L 311.877395 -193.557558 
L 315.185695 -193.557558 
L 318.493996 -193.557558 
L 321.802296 -193.557558 
L 325.110597 -193.557558 
L 328.418897 -193.557558 
L 331.727197 -193.557558 
L 335.035498 -193.557558 
L 338.343798 -193.557558 
L 341.652099 -193.557558 
L 344.960399 -193.557558 
L 348.268699 -193.557558 
L 351.577 -193.557558 
L 354.8853 -193.557558 
L 358.193601 -193.557558 
L 361.501901 -193.557558 
L 364.810201 -193.557558 
L 368.118502 -193.557558 
L 371.426802 -193.557558 
L 374.735103 -193.557558 
L 378.043403 -193.557558 
L 381.351703 -193.557558 
L 384.660004 -193.557558 
L 387.968304 -193.557558 
L 391.276604 -193.557558 
L 394.584905 -193.557558 
L 397.893205 -193.557558 
L 401.201506 -193.557558 
L 401.201506 -270.883502 
L 401.201506 -270.883502 
L 397.893205 -269.124571 
L 394.584905 -268.088837 
L 391.276604 -267.444268 
L 387.968304 -250.100099 
L 384.660004 -244.364885 
L 381.351703 -244.324747 
L 378.043403 -239.460698 
L 374.735103 -235.771685 
L 371.426802 -235.63438 
L 368.118502 -233.499413 
L 364.810201 -233.427498 
L 361.501901 -220.664827 
L 358.193601 -220.628238 
L 354.8853 -220.237362 
L 351.577 -216.12869 
L 348.268699 -215.608706 
L 344.960399 -214.107107 
L 341.652099 -209.194168 
L 338.343798 -202.135198 
L 335.035498 -201.139162 
L 331.727197 -200.364553 
L 328.418897 -198.809865 
L 325.110597 -198.308789 
L 321.802296 -197.929133 
L 318.493996 -197.104224 
L 315.185695 -196.300179 
L 311.877395 -195.67961 
L 308.569095 -195.59857 
L 305.260794 -195.231617 
L 301.952494 -194.858829 
L 298.644193 -194.85173 
L 295.335893 -194.798152 
L 292.027593 -194.477528 
L 288.719292 -194.210108 
L 285.410992 -194.132883 
L 282.102691 -194.057017 
L 278.794391 -193.954533 
L 275.486091 -193.891992 
L 272.17779 -193.883539 
L 268.86949 -193.844086 
L 265.561189 -193.841001 
L 262.252889 -193.811933 
L 258.944589 -193.811552 
L 255.636288 -193.80718 
L 252.327988 -193.805976 
L 249.019688 -193.76859 
L 245.711387 -193.718541 
L 242.403087 -193.683437 
L 239.094786 -193.678144 
L 235.786486 -193.677654 
L 232.478186 -193.657398 
L 229.169885 -193.640917 
L 225.861585 -193.632869 
L 222.553284 -193.631293 
L 219.244984 -193.592186 
L 215.936684 -193.58008 
L 212.628383 -193.531305 
L 209.320083 -193.495499 
L 206.011782 -193.453445 
L 202.703482 -193.421622 
L 199.395182 -193.388324 
L 196.086881 -193.276343 
L 192.778581 -193.242851 
L 189.47028 -193.237307 
L 186.16198 -193.233978 
L 182.85368 -193.223258 
L 179.545379 -193.169838 
L 176.237079 -193.166062 
L 172.928778 -193.148946 
L 169.620478 -193.132281 
L 166.312178 -193.06425 
L 163.003877 -192.870911 
L 159.695577 -192.804846 
L 156.387276 -192.392217 
L 153.078976 -192.281563 
L 149.770676 -192.225253 
L 146.462375 -192.092086 
L 143.154075 -191.577259 
L 139.845774 -190.621774 
L 136.537474 -190.502383 
L 133.229174 -185.645198 
L 129.920873 -185.375378 
L 126.612573 -184.002854 
L 123.304272 -183.421824 
L 119.995972 -172.397076 
L 116.687672 -171.40991 
L 113.379371 -171.042346 
L 110.071071 -164.187508 
L 106.762771 -163.066713 
L 103.45447 -162.241913 
L 100.14617 -142.450015 
L 96.837869 -95.925132 
z
" id="m7a565a7f2a" style="stroke:#f14432;stroke-opacity:0.8;"/>
    </defs>
    <g clip-path="url(#p4c17d4835c)">
     <use style="fill:#f14432;fill-opacity:0.8;stroke:#f14432;stroke-opacity:0.8;" x="0" xlink:href="#m7a565a7f2a" y="358.847939"/>
    </g>
   </g>
   <g id="matplotlib.axis_1"/>
   <g id="matplotlib.axis_2">
    <g id="ytick_1">
     <g id="line2d_1">
      <defs>
       <path d="M 0 0 
L -3.5 0 
" id="mc1bd13f505" style="stroke:#000000;stroke-width:0.8;"/>
      </defs>
      <g>
       <use style="stroke:#000000;stroke-width:0.8;" x="81.619687" xlink:href="#mc1bd13f505" y="315.02248"/>
      </g>
     </g>
     <g id="text_1">
      <!-- −0.20 -->
      <defs>
       <path d="M 10.59375 35.5 
L 73.1875 35.5 
L 73.1875 27.203125 
L 10.59375 27.203125 
z
" id="DejaVuSans-2212"/>
       <path d="M 31.78125 66.40625 
Q 24.171875 66.40625 20.328125 58.90625 
Q 16.5 51.421875 16.5 36.375 
Q 16.5 21.390625 20.328125 13.890625 
Q 24.171875 6.390625 31.78125 6.390625 
Q 39.453125 6.390625 43.28125 13.890625 
Q 47.125 21.390625 47.125 36.375 
Q 47.125 51.421875 43.28125 58.90625 
Q 39.453125 66.40625 31.78125 66.40625 
z
M 31.78125 74.21875 
Q 44.046875 74.21875 50.515625 64.515625 
Q 56.984375 54.828125 56.984375 36.375 
Q 56.984375 17.96875 50.515625 8.265625 
Q 44.046875 -1.421875 31.78125 -1.421875 
Q 19.53125 -1.421875 13.0625 8.265625 
Q 6.59375 17.96875 6.59375 36.375 
Q 6.59375 54.828125 13.0625 64.515625 
Q 19.53125 74.21875 31.78125 74.21875 
z
" id="DejaVuSans-30"/>
       <path d="M 10.6875 12.40625 
L 21 12.40625 
L 21 0 
L 10.6875 0 
z
" id="DejaVuSans-2e"/>
       <path d="M 19.1875 8.296875 
L 53.609375 8.296875 
L 53.609375 0 
L 7.328125 0 
L 7.328125 8.296875 
Q 12.9375 14.109375 22.625 23.890625 
Q 32.328125 33.6875 34.8125 36.53125 
Q 39.546875 41.84375 41.421875 45.53125 
Q 43.3125 49.21875 43.3125 52.78125 
Q 43.3125 58.59375 39.234375 62.25 
Q 35.15625 65.921875 28.609375 65.921875 
Q 23.96875 65.921875 18.8125 64.3125 
Q 13.671875 62.703125 7.8125 59.421875 
L 7.8125 69.390625 
Q 13.765625 71.78125 18.9375 73 
Q 24.125 74.21875 28.421875 74.21875 
Q 39.75 74.21875 46.484375 68.546875 
Q 53.21875 62.890625 53.21875 53.421875 
Q 53.21875 48.921875 51.53125 44.890625 
Q 49.859375 40.875 45.40625 35.40625 
Q 44.1875 33.984375 37.640625 27.21875 
Q 31.109375 20.453125 19.1875 8.296875 
z
" id="DejaVuSans-32"/>
      </defs>
      <g transform="translate(7.2 323.380762)scale(0.22 -0.22)">
       <use xlink:href="#DejaVuSans-2212"/>
       <use x="83.789062" xlink:href="#DejaVuSans-30"/>
       <use x="147.412109" xlink:href="#DejaVuSans-2e"/>
       <use x="179.199219" xlink:href="#DejaVuSans-32"/>
       <use x="242.822266" xlink:href="#DejaVuSans-30"/>
      </g>
     </g>
    </g>
    <g id="ytick_2">
     <g id="line2d_2">
      <g>
       <use style="stroke:#000000;stroke-width:0.8;" x="81.619687" xlink:href="#mc1bd13f505" y="277.589456"/>
      </g>
     </g>
     <g id="text_2">
      <!-- −0.15 -->
      <defs>
       <path d="M 12.40625 8.296875 
L 28.515625 8.296875 
L 28.515625 63.921875 
L 10.984375 60.40625 
L 10.984375 69.390625 
L 28.421875 72.90625 
L 38.28125 72.90625 
L 38.28125 8.296875 
L 54.390625 8.296875 
L 54.390625 0 
L 12.40625 0 
z
" id="DejaVuSans-31"/>
       <path d="M 10.796875 72.90625 
L 49.515625 72.90625 
L 49.515625 64.59375 
L 19.828125 64.59375 
L 19.828125 46.734375 
Q 21.96875 47.46875 24.109375 47.828125 
Q 26.265625 48.1875 28.421875 48.1875 
Q 40.625 48.1875 47.75 41.5 
Q 54.890625 34.8125 54.890625 23.390625 
Q 54.890625 11.625 47.5625 5.09375 
Q 40.234375 -1.421875 26.90625 -1.421875 
Q 22.3125 -1.421875 17.546875 -0.640625 
Q 12.796875 0.140625 7.71875 1.703125 
L 7.71875 11.625 
Q 12.109375 9.234375 16.796875 8.0625 
Q 21.484375 6.890625 26.703125 6.890625 
Q 35.15625 6.890625 40.078125 11.328125 
Q 45.015625 15.765625 45.015625 23.390625 
Q 45.015625 31 40.078125 35.4375 
Q 35.15625 39.890625 26.703125 39.890625 
Q 22.75 39.890625 18.8125 39.015625 
Q 14.890625 38.140625 10.796875 36.28125 
z
" id="DejaVuSans-35"/>
      </defs>
      <g transform="translate(7.2 285.947737)scale(0.22 -0.22)">
       <use xlink:href="#DejaVuSans-2212"/>
       <use x="83.789062" xlink:href="#DejaVuSans-30"/>
       <use x="147.412109" xlink:href="#DejaVuSans-2e"/>
       <use x="179.199219" xlink:href="#DejaVuSans-31"/>
       <use x="242.822266" xlink:href="#DejaVuSans-35"/>
      </g>
     </g>
    </g>
    <g id="ytick_3">
     <g id="line2d_3">
      <g>
       <use style="stroke:#000000;stroke-width:0.8;" x="81.619687" xlink:href="#mc1bd13f505" y="240.156431"/>
      </g>
     </g>
     <g id="text_3">
      <!-- −0.10 -->
      <g transform="translate(7.2 248.514712)scale(0.22 -0.22)">
       <use xlink:href="#DejaVuSans-2212"/>
       <use x="83.789062" xlink:href="#DejaVuSans-30"/>
       <use x="147.412109" xlink:href="#DejaVuSans-2e"/>
       <use x="179.199219" xlink:href="#DejaVuSans-31"/>
       <use x="242.822266" xlink:href="#DejaVuSans-30"/>
      </g>
     </g>
    </g>
    <g id="ytick_4">
     <g id="line2d_4">
      <g>
       <use style="stroke:#000000;stroke-width:0.8;" x="81.619687" xlink:href="#mc1bd13f505" y="202.723406"/>
      </g>
     </g>
     <g id="text_4">
      <!-- −0.05 -->
      <g transform="translate(7.2 211.081687)scale(0.22 -0.22)">
       <use xlink:href="#DejaVuSans-2212"/>
       <use x="83.789062" xlink:href="#DejaVuSans-30"/>
       <use x="147.412109" xlink:href="#DejaVuSans-2e"/>
       <use x="179.199219" xlink:href="#DejaVuSans-30"/>
       <use x="242.822266" xlink:href="#DejaVuSans-35"/>
      </g>
     </g>
    </g>
    <g id="ytick_5">
     <g id="line2d_5">
      <g>
       <use style="stroke:#000000;stroke-width:0.8;" x="81.619687" xlink:href="#mc1bd13f505" y="165.290381"/>
      </g>
     </g>
     <g id="text_5">
      <!-- 0.00 -->
      <g transform="translate(25.635312 173.648662)scale(0.22 -0.22)">
       <use xlink:href="#DejaVuSans-30"/>
       <use x="63.623047" xlink:href="#DejaVuSans-2e"/>
       <use x="95.410156" xlink:href="#DejaVuSans-30"/>
       <use x="159.033203" xlink:href="#DejaVuSans-30"/>
      </g>
     </g>
    </g>
    <g id="ytick_6">
     <g id="line2d_6">
      <g>
       <use style="stroke:#000000;stroke-width:0.8;" x="81.619687" xlink:href="#mc1bd13f505" y="127.857356"/>
      </g>
     </g>
     <g id="text_6">
      <!-- 0.05 -->
      <g transform="translate(25.635312 136.215637)scale(0.22 -0.22)">
       <use xlink:href="#DejaVuSans-30"/>
       <use x="63.623047" xlink:href="#DejaVuSans-2e"/>
       <use x="95.410156" xlink:href="#DejaVuSans-30"/>
       <use x="159.033203" xlink:href="#DejaVuSans-35"/>
      </g>
     </g>
    </g>
    <g id="ytick_7">
     <g id="line2d_7">
      <g>
       <use style="stroke:#000000;stroke-width:0.8;" x="81.619687" xlink:href="#mc1bd13f505" y="90.424331"/>
      </g>
     </g>
     <g id="text_7">
      <!-- 0.10 -->
      <g transform="translate(25.635312 98.782612)scale(0.22 -0.22)">
       <use xlink:href="#DejaVuSans-30"/>
       <use x="63.623047" xlink:href="#DejaVuSans-2e"/>
       <use x="95.410156" xlink:href="#DejaVuSans-31"/>
       <use x="159.033203" xlink:href="#DejaVuSans-30"/>
      </g>
     </g>
    </g>
    <g id="ytick_8">
     <g id="line2d_8">
      <g>
       <use style="stroke:#000000;stroke-width:0.8;" x="81.619687" xlink:href="#mc1bd13f505" y="52.991306"/>
      </g>
     </g>
     <g id="text_8">
      <!-- 0.15 -->
      <g transform="translate(25.635312 61.349587)scale(0.22 -0.22)">
       <use xlink:href="#DejaVuSans-30"/>
       <use x="63.623047" xlink:href="#DejaVuSans-2e"/>
       <use x="95.410156" xlink:href="#DejaVuSans-31"/>
       <use x="159.033203" xlink:href="#DejaVuSans-35"/>
      </g>
     </g>
    </g>
    <g id="ytick_9">
     <g id="line2d_9">
      <g>
       <use style="stroke:#000000;stroke-width:0.8;" x="81.619687" xlink:href="#mc1bd13f505" y="15.558281"/>
      </g>
     </g>
     <g id="text_9">
      <!-- 0.20 -->
      <g transform="translate(25.635312 23.916563)scale(0.22 -0.22)">
       <use xlink:href="#DejaVuSans-30"/>
       <use x="63.623047" xlink:href="#DejaVuSans-2e"/>
       <use x="95.410156" xlink:href="#DejaVuSans-32"/>
       <use x="159.033203" xlink:href="#DejaVuSans-30"/>
      </g>
     </g>
    </g>
   </g>
   <g id="patch_3">
    <path d="M 81.619687 348.147939 
L 81.619687 15.507939 
" style="fill:none;stroke:#000000;stroke-linecap:square;stroke-linejoin:miter;stroke-width:0.8;"/>
   </g>
   <g id="patch_4">
    <path d="M 416.419688 348.147939 
L 416.419688 15.507939 
" style="fill:none;stroke:#000000;stroke-linecap:square;stroke-linejoin:miter;stroke-width:0.8;"/>
   </g>
   <g id="patch_5">
    <path d="M 81.619687 348.147939 
L 416.419688 348.147939 
" style="fill:none;stroke:#000000;stroke-linecap:square;stroke-linejoin:miter;stroke-width:0.8;"/>
   </g>
   <g id="patch_6">
    <path d="M 81.619687 15.507939 
L 416.419688 15.507939 
" style="fill:none;stroke:#000000;stroke-linecap:square;stroke-linejoin:miter;stroke-width:0.8;"/>
   </g>
  </g>
 </g>
 <defs>
  <clipPath id="p4c17d4835c">
   <rect height="332.64" width="334.8" x="81.619687" y="15.507939"/>
  </clipPath>
 </defs>
</svg>
