<?xml version="1.0" encoding="utf-8" standalone="no"?>
<!DOCTYPE svg PUBLIC "-//W3C//DTD SVG 1.1//EN"
  "http://www.w3.org/Graphics/SVG/1.1/DTD/svg11.dtd">
<!-- Created with matplotlib (http://matplotlib.org/) -->
<svg height="210pt" version="1.1" viewBox="0 0 210 210" width="210pt" xmlns="http://www.w3.org/2000/svg" xmlns:xlink="http://www.w3.org/1999/xlink">
 <defs>
  <style type="text/css">
*{stroke-linecap:butt;stroke-linejoin:round;}
  </style>
 </defs>
 <g id="figure_1">
  <g id="patch_1">
   <path d="M 0 210.76 
L 210.76 210.76 
L 210.76 0 
L 0 0 
z
" style="fill:#ffffff;"/>
  </g>
  <g id="axes_1">
   <g id="patch_2">
    <path d="M 10.7 200.06 
L 200.06 200.06 
L 200.06 10.7 
L 10.7 10.7 
z
" style="fill:#ffffff;"/>
   </g>
   <g id="matplotlib.axis_1"/>
   <g id="matplotlib.axis_2"/>
   <g id="line2d_1">
    <path clip-path="url(#p9e61a1729f)" d="M 19.307273 197.005806 
L 61.697445 197.005806 
L 62.04208 190.581203 
L 62.386716 185.62232 
L 62.903669 174.564696 
L 63.765258 149.888091 
L 64.971482 115.586823 
L 65.833071 97.383278 
L 66.522342 87.463521 
L 67.039296 82.547935 
L 67.556249 79.526247 
L 67.900885 78.424892 
L 68.24552 77.954529 
L 68.417838 77.929873 
L 68.762473 78.251468 
L 69.107109 79.004341 
L 69.624062 80.788776 
L 70.313333 84.067131 
L 71.519558 91.169463 
L 74.276642 107.750672 
L 75.655184 114.512069 
L 76.861409 119.359799 
L 78.067633 123.280898 
L 79.273857 126.401263 
L 80.480082 128.861277 
L 81.686306 130.794359 
L 82.892531 132.317144 
L 84.271073 133.678335 
L 85.821933 134.860101 
L 87.545111 135.876811 
L 89.612924 136.835149 
L 92.370008 137.860423 
L 96.505635 139.140223 
L 105.293841 141.50535 
L 118.045356 144.739342 
L 130.624554 147.700318 
L 143.203751 150.433838 
L 147.16706 151.34766 
L 147.684013 151.676005 
L 148.028649 152.121279 
L 148.373284 152.962097 
L 148.71792 154.505607 
L 149.062555 157.108637 
L 149.579509 163.453279 
L 150.26878 175.749529 
L 151.302686 197.005806 
L 191.452727 197.005806 
L 191.452727 197.005806 
" style="fill:none;opacity:0.7;stroke:#000004;stroke-linecap:square;stroke-width:2;"/>
   </g>
   <g id="line2d_2">
    <path clip-path="url(#p9e61a1729f)" d="M 19.307273 197.005806 
L 65.316118 197.005806 
L 65.488436 193.317804 
L 66.350025 192.497018 
L 67.211613 191.963571 
L 68.073202 191.683962 
L 69.107109 191.604644 
L 70.313333 191.743056 
L 72.553464 192.281547 
L 75.99982 193.086042 
L 77.55068 193.339848 
L 77.722998 197.005806 
L 191.452727 197.005806 
L 191.452727 197.005806 
" style="fill:none;opacity:0.7;stroke:#050417;stroke-linecap:square;stroke-width:2;"/>
   </g>
   <g id="line2d_3">
    <path clip-path="url(#p9e61a1729f)" d="M 19.307273 197.005806 
L 62.903669 197.005806 
L 63.075987 192.809928 
L 63.765258 188.313897 
L 65.660753 175.042631 
L 66.350025 171.685664 
L 67.039296 169.341664 
L 67.556249 168.192519 
L 68.073202 167.49575 
L 68.590156 167.181227 
L 69.107109 167.179268 
L 69.624062 167.424691 
L 70.313333 168.036749 
L 71.34724 169.335996 
L 75.482867 175.015857 
L 76.861409 176.409733 
L 78.239951 177.498939 
L 79.618493 178.324847 
L 81.169353 179.002193 
L 83.064848 179.562844 
L 85.30498 179.972994 
L 88.234382 180.271695 
L 92.886962 180.498472 
L 103.05371 180.719734 
L 147.684013 181.629573 
L 148.200966 181.980654 
L 148.545602 182.493067 
L 148.890238 183.366269 
L 149.407191 185.499974 
L 150.096462 189.629422 
L 150.613415 193.166902 
L 150.785733 197.005806 
L 191.452727 197.005806 
L 191.452727 197.005806 
" style="fill:none;opacity:0.7;stroke:#110a30;stroke-linecap:square;stroke-width:2;"/>
   </g>
   <g id="line2d_4">
    <path clip-path="url(#p9e61a1729f)" d="M 19.307273 197.005806 
L 63.075987 197.005806 
L 63.248305 192.913342 
L 64.109894 188.032411 
L 65.488436 180.179871 
L 66.350025 176.633984 
L 67.039296 174.716269 
L 67.556249 173.770185 
L 68.073202 173.190423 
L 68.590156 172.920603 
L 69.107109 172.904548 
L 69.624062 173.089617 
L 70.313333 173.568369 
L 71.34724 174.598034 
L 75.655184 179.287639 
L 77.206044 180.487221 
L 78.756904 181.385669 
L 80.307764 182.034727 
L 82.20326 182.572823 
L 84.443391 182.962048 
L 87.372793 183.234341 
L 92.025373 183.416364 
L 102.364439 183.539522 
L 147.511695 183.979744 
L 148.028649 184.191111 
L 148.373284 184.513937 
L 148.71792 185.09499 
L 149.234873 186.630039 
L 149.924144 189.87047 
L 150.441097 192.805292 
L 150.613415 197.005806 
L 191.452727 197.005806 
L 191.452727 197.005806 
" style="fill:none;opacity:0.7;stroke:#210c4a;stroke-linecap:square;stroke-width:2;"/>
   </g>
   <g id="line2d_5">
    <path clip-path="url(#p9e61a1729f)" d="M 19.307273 197.005806 
L 64.454529 197.005806 
L 64.626847 193.221183 
L 65.660753 191.411368 
L 66.522342 190.322113 
L 67.211613 189.745502 
L 67.900885 189.401696 
L 68.762473 189.236697 
L 69.79638 189.317781 
L 71.174922 189.699978 
L 76.861409 191.571924 
L 79.273857 192.014064 
L 82.20326 192.314321 
L 86.338886 192.494322 
L 94.265504 192.570312 
L 142.51448 192.574812 
L 147.856331 192.652636 
L 148.545602 192.896853 
L 148.890238 193.16475 
L 149.062555 197.005806 
L 191.452727 197.005806 
L 191.452727 197.005806 
" style="fill:none;opacity:0.7;stroke:#340a5f;stroke-linecap:square;stroke-width:2;"/>
   </g>
   <g id="line2d_6">
    <path clip-path="url(#p9e61a1729f)" d="M 19.307273 197.005806 
L 65.316118 197.005806 
L 65.488436 193.317804 
L 66.350025 192.497018 
L 67.211613 191.963571 
L 68.073202 191.683962 
L 69.107109 191.604644 
L 70.313333 191.743056 
L 72.553464 192.281547 
L 75.99982 193.086042 
L 77.55068 193.339848 
L 77.722998 197.005806 
L 191.452727 197.005806 
L 191.452727 197.005806 
" style="fill:none;opacity:0.7;stroke:#450a69;stroke-linecap:square;stroke-width:2;"/>
   </g>
   <g id="line2d_7">
    <path clip-path="url(#p9e61a1729f)" d="M 19.307273 197.005806 
L 63.937576 197.005806 
L 64.109894 193.162233 
L 65.488436 189.649509 
L 66.350025 188.046363 
L 67.039296 187.172087 
L 67.728567 186.628793 
L 68.417838 186.362825 
L 69.107109 186.31492 
L 69.968698 186.476699 
L 71.174922 186.954682 
L 76.689091 189.466172 
L 78.756904 190.021315 
L 81.169353 190.424198 
L 84.271073 190.693877 
L 88.923653 190.845081 
L 99.090401 190.894729 
L 147.856331 190.999789 
L 148.373284 191.206743 
L 148.890238 191.694393 
L 149.407191 192.567476 
L 149.579509 192.939343 
L 149.751826 197.005806 
L 191.452727 197.005806 
L 191.452727 197.005806 
" style="fill:none;opacity:0.7;stroke:#57106e;stroke-linecap:square;stroke-width:2;"/>
   </g>
   <g id="line2d_8">
    <path clip-path="url(#p9e61a1729f)" d="M 19.307273 197.005806 
L 65.488436 197.005806 
L 65.660753 193.224093 
L 66.522342 192.479041 
L 67.383931 192.011334 
L 68.24552 191.781496 
L 69.279427 191.740804 
L 70.657969 191.935075 
L 73.759689 192.699327 
L 76.689091 193.298834 
L 76.861409 193.326341 
L 77.033726 197.005806 
L 191.452727 197.005806 
L 191.452727 197.005806 
" style="fill:none;opacity:0.7;stroke:#69166e;stroke-linecap:square;stroke-width:2;"/>
   </g>
   <g id="line2d_9">
    <path clip-path="url(#p9e61a1729f)" d="M 19.307273 197.005806 
L 62.559034 197.005806 
L 62.731351 192.209459 
L 63.248305 187.539266 
L 64.282211 174.971789 
L 65.488436 161.062954 
L 66.177707 155.175987 
L 66.866978 151.013005 
L 67.383931 148.94201 
L 67.900885 147.659196 
L 68.417838 147.046769 
L 68.762473 146.951994 
L 69.107109 147.068366 
L 69.624062 147.569782 
L 70.313333 148.700255 
L 71.34724 151.006102 
L 75.310549 160.492547 
L 76.689091 162.963126 
L 77.895315 164.6935 
L 79.10154 166.067531 
L 80.307764 167.142399 
L 81.686306 168.077846 
L 83.237166 168.846937 
L 84.960344 169.451413 
L 87.200475 169.981819 
L 90.129877 170.428192 
L 94.782457 170.884158 
L 103.742981 171.502419 
L 128.384423 172.992486 
L 147.511695 174.163619 
L 148.028649 174.518701 
L 148.373284 175.049265 
L 148.71792 176.007697 
L 149.062555 177.559213 
L 149.579509 181.112792 
L 150.441097 189.302553 
L 150.785733 192.831975 
L 150.958051 197.005806 
L 191.452727 197.005806 
L 191.452727 197.005806 
" style="fill:none;opacity:0.7;stroke:#7a1d6d;stroke-linecap:square;stroke-width:2;"/>
   </g>
   <g id="line2d_10">
    <path clip-path="url(#p9e61a1729f)" d="M 19.307273 197.005806 
L 62.386716 197.005806 
L 62.559034 192.21484 
L 63.075987 187.033461 
L 63.937576 174.726443 
L 65.316118 154.54668 
L 66.177707 145.36942 
L 66.866978 140.404988 
L 67.383931 137.963394 
L 67.900885 136.479023 
L 68.24552 135.949537 
L 68.590156 135.73721 
L 68.934791 135.799724 
L 69.279427 136.096929 
L 69.79638 136.901769 
L 70.485651 138.473162 
L 71.519558 141.46322 
L 74.793595 151.367804 
L 76.172138 154.670683 
L 77.378362 157.016243 
L 78.584586 158.897622 
L 79.790811 160.381817 
L 80.997035 161.540644 
L 82.375577 162.552131 
L 83.926437 163.39184 
L 85.649615 164.064702 
L 87.889746 164.67626 
L 90.819148 165.222964 
L 95.471728 165.832136 
L 103.915299 166.676825 
L 123.214889 168.410071 
L 144.06534 170.055526 
L 147.339378 170.40876 
L 147.856331 170.698527 
L 148.200966 171.1318 
L 148.545602 171.946205 
L 148.890238 173.349907 
L 149.407191 176.860591 
L 150.096462 183.847266 
L 150.785733 191.993576 
L 150.958051 197.005806 
L 191.452727 197.005806 
L 191.452727 197.005806 
" style="fill:none;opacity:0.7;stroke:#8c2369;stroke-linecap:square;stroke-width:2;"/>
   </g>
   <g id="line2d_11">
    <path clip-path="url(#p9e61a1729f)" d="M 19.307273 197.005806 
L 63.075987 197.005806 
L 63.248305 193.094873 
L 64.109894 188.41428 
L 65.488436 180.87464 
L 66.350025 177.466865 
L 67.039296 175.622348 
L 67.556249 174.711416 
L 68.073202 174.152212 
L 68.590156 173.890665 
L 69.107109 173.872877 
L 69.79638 174.141741 
L 70.657969 174.803232 
L 72.036511 176.247119 
L 74.793595 179.209933 
L 76.344455 180.530707 
L 77.895315 181.546413 
L 79.446175 182.293379 
L 81.169353 182.874174 
L 83.237166 183.322619 
L 85.821933 183.641501 
L 89.612924 183.858086 
L 96.677952 183.98992 
L 141.997527 184.278495 
L 147.511695 184.404838 
L 148.028649 184.609606 
L 148.373284 184.922682 
L 148.71792 185.486125 
L 149.234873 186.973638 
L 149.924144 190.110639 
L 150.441097 192.949884 
L 150.613415 197.005806 
L 191.452727 197.005806 
L 191.452727 197.005806 
" style="fill:none;opacity:0.7;stroke:#9b2964;stroke-linecap:square;stroke-width:2;"/>
   </g>
   <g id="line2d_12">
    <path clip-path="url(#p9e61a1729f)" d="M 19.307273 197.005806 
L 63.765258 197.005806 
L 63.937576 193.206526 
L 65.660753 188.352009 
L 66.522342 186.688838 
L 67.211613 185.810143 
L 67.900885 185.287717 
L 68.590156 185.058655 
L 69.279427 185.056876 
L 70.141016 185.281956 
L 71.34724 185.848367 
L 76.172138 188.367886 
L 78.067633 189.005994 
L 80.135446 189.472142 
L 82.720213 189.815027 
L 86.166568 190.031504 
L 92.025373 190.14223 
L 110.291057 190.161054 
L 147.684013 190.240672 
L 148.200966 190.405181 
L 148.71792 190.824638 
L 149.234873 191.65171 
L 149.751826 192.890817 
L 149.924144 197.005806 
L 191.452727 197.005806 
L 191.452727 197.005806 
" style="fill:none;opacity:0.7;stroke:#ad305d;stroke-linecap:square;stroke-width:2;"/>
   </g>
   <g id="line2d_13">
    <path clip-path="url(#p9e61a1729f)" d="M 19.307273 197.005806 
L 62.04208 197.005806 
L 62.386716 191.543442 
L 62.903669 185.213706 
L 63.59294 172.878627 
L 65.316118 139.512961 
L 66.005389 129.794207 
L 66.69466 122.890622 
L 67.211613 119.441764 
L 67.728567 117.294735 
L 68.073202 116.492512 
L 68.417838 116.125865 
L 68.762473 116.138046 
L 69.107109 116.474932 
L 69.624062 117.47935 
L 70.313333 119.516262 
L 71.34724 123.471974 
L 74.793595 137.422948 
L 76.172138 141.80701 
L 77.378362 144.920399 
L 78.584586 147.421557 
L 79.790811 149.400754 
L 80.997035 150.953412 
L 82.20326 152.167911 
L 83.581802 153.238815 
L 85.132662 154.147478 
L 86.855839 154.903152 
L 89.095971 155.632113 
L 92.19769 156.380425 
L 96.85027 157.250788 
L 107.878608 158.962937 
L 122.697936 161.059974 
L 138.378853 163.053467 
L 147.339378 164.228014 
L 147.856331 164.573774 
L 148.200966 165.080315 
L 148.545602 166.031369 
L 148.890238 167.683185 
L 149.407191 171.877716 
L 150.096462 180.380894 
L 150.958051 192.939675 
L 151.130369 197.005806 
L 191.452727 197.005806 
L 191.452727 197.005806 
" style="fill:none;opacity:0.7;stroke:#bd3853;stroke-linecap:square;stroke-width:2;"/>
   </g>
   <g id="line2d_14">
    <path clip-path="url(#p9e61a1729f)" d="M 19.307273 197.005806 
L 61.697445 197.005806 
L 62.04208 191.082894 
L 62.386716 186.430011 
L 62.903669 175.92878 
L 63.765258 152.183541 
L 65.1438 114.788953 
L 65.833071 101.034623 
L 66.522342 91.287293 
L 67.039296 86.432698 
L 67.556249 83.425205 
L 67.900885 82.312164 
L 68.24552 81.816288 
L 68.417838 81.774446 
L 68.762473 82.054195 
L 69.107109 82.756929 
L 69.624062 84.454503 
L 70.313333 87.603104 
L 71.519558 94.465093 
L 74.276642 110.558161 
L 75.655184 117.134985 
L 76.861409 121.853853 
L 78.067633 125.672516 
L 79.273857 128.712327 
L 80.480082 131.109266 
L 81.686306 132.992869 
L 82.892531 134.476533 
L 84.271073 135.80238 
L 85.821933 136.95282 
L 87.545111 137.941669 
L 89.612924 138.872453 
L 92.542326 139.92244 
L 96.677952 141.150463 
L 106.15543 143.597583 
L 118.734627 146.642404 
L 131.313825 149.458697 
L 144.06534 152.085533 
L 147.16706 152.788846 
L 147.684013 153.110473 
L 148.028649 153.549213 
L 148.373284 154.378797 
L 148.71792 155.899695 
L 149.062555 158.456675 
L 149.579509 164.659087 
L 150.26878 176.61494 
L 150.958051 190.248603 
L 151.130369 197.005806 
L 191.452727 197.005806 
L 191.452727 197.005806 
" style="fill:none;opacity:0.7;stroke:#cc4248;stroke-linecap:square;stroke-width:2;"/>
   </g>
   <g id="line2d_15">
    <path clip-path="url(#p9e61a1729f)" d="M 19.307273 197.005806 
L 63.937576 197.005806 
L 64.109894 193.082582 
L 65.488436 189.500332 
L 66.350025 187.865685 
L 67.039296 186.974315 
L 67.728567 186.420467 
L 68.417838 186.14941 
L 69.107109 186.100705 
L 69.968698 186.265829 
L 71.174922 186.753408 
L 76.689091 189.314735 
L 78.756904 189.880852 
L 81.169353 190.291691 
L 84.271073 190.566694 
L 88.923653 190.720879 
L 99.090401 190.771506 
L 147.856331 190.878526 
L 148.373284 191.08938 
L 148.890238 191.586345 
L 149.407191 192.476368 
L 149.751826 193.267562 
L 149.924144 197.005806 
L 191.452727 197.005806 
L 191.452727 197.005806 
" style="fill:none;opacity:0.7;stroke:#d94d3d;stroke-linecap:square;stroke-width:2;"/>
   </g>
   <g id="line2d_16">
    <path clip-path="url(#p9e61a1729f)" d="M 19.307273 197.005806 
L 63.765258 197.005806 
L 63.937576 193.206526 
L 65.660753 188.352009 
L 66.522342 186.688838 
L 67.211613 185.810143 
L 67.900885 185.287717 
L 68.590156 185.058655 
L 69.279427 185.056876 
L 70.141016 185.281956 
L 71.34724 185.848367 
L 76.172138 188.367886 
L 78.067633 189.005994 
L 80.135446 189.472142 
L 82.720213 189.815027 
L 86.166568 190.031504 
L 92.025373 190.14223 
L 110.291057 190.161054 
L 147.684013 190.240672 
L 148.200966 190.405181 
L 148.71792 190.824638 
L 149.234873 191.65171 
L 149.751826 192.890817 
L 149.924144 197.005806 
L 191.452727 197.005806 
L 191.452727 197.005806 
" style="fill:none;opacity:0.7;stroke:#e55c30;stroke-linecap:square;stroke-width:2;"/>
   </g>
   <g id="line2d_17">
    <path clip-path="url(#p9e61a1729f)" d="M 19.307273 197.005806 
L 63.248305 197.005806 
L 63.420622 192.658077 
L 64.626847 186.338421 
L 65.660753 181.444148 
L 66.350025 179.014623 
L 67.039296 177.307245 
L 67.728567 176.255308 
L 68.24552 175.832164 
L 68.762473 175.667017 
L 69.279427 175.710985 
L 69.968698 176.0176 
L 70.830287 176.671845 
L 72.381147 178.205159 
L 74.793595 180.569323 
L 76.344455 181.782654 
L 77.895315 182.715166 
L 79.446175 183.400153 
L 81.169353 183.931677 
L 83.237166 184.340493 
L 85.994251 184.642066 
L 89.957559 184.830128 
L 97.711859 184.931905 
L 147.684013 185.25477 
L 148.200966 185.528026 
L 148.545602 185.92832 
L 148.890238 186.608371 
L 149.407191 188.259198 
L 150.096462 191.429047 
L 150.441097 193.223167 
L 150.613415 197.005806 
L 191.452727 197.005806 
L 191.452727 197.005806 
" style="fill:none;opacity:0.7;stroke:#ef6c23;stroke-linecap:square;stroke-width:2;"/>
   </g>
   <g id="line2d_18">
    <path clip-path="url(#p9e61a1729f)" d="M 19.307273 197.005806 
L 64.109894 197.005806 
L 64.282211 193.052779 
L 65.488436 190.252881 
L 66.350025 188.777401 
L 67.039296 187.972441 
L 67.728567 187.471967 
L 68.417838 187.226677 
L 69.279427 187.196097 
L 70.313333 187.43506 
L 71.864193 188.081721 
L 75.482867 189.678652 
L 77.55068 190.317534 
L 79.790811 190.773862 
L 82.547895 191.094824 
L 86.338886 191.292166 
L 93.231597 191.384129 
L 122.525618 191.393539 
L 147.856331 191.490605 
L 148.373284 191.681692 
L 148.890238 192.131481 
L 149.407191 192.935817 
L 149.579509 193.278175 
L 149.751826 197.005806 
L 191.452727 197.005806 
L 191.452727 197.005806 
" style="fill:none;opacity:0.7;stroke:#f67e14;stroke-linecap:square;stroke-width:2;"/>
   </g>
   <g id="line2d_19">
    <path clip-path="url(#p9e61a1729f)" d="M 19.307273 197.005806 
L 62.386716 197.005806 
L 62.559034 192.326834 
L 63.075987 187.249188 
L 63.937576 175.163599 
L 65.316118 155.312818 
L 66.177707 146.274926 
L 66.866978 141.381628 
L 67.383931 138.972438 
L 67.900885 137.505175 
L 68.24552 136.979854 
L 68.590156 136.766768 
L 68.934791 136.824302 
L 69.279427 137.112967 
L 69.79638 137.899636 
L 70.485651 139.43955 
L 71.519558 142.373715 
L 74.793595 152.10295 
L 76.172138 155.348369 
L 77.378362 157.653043 
L 78.584586 159.501397 
L 79.790811 160.959221 
L 80.997035 162.097091 
L 82.375577 163.089807 
L 83.926437 163.91332 
L 85.649615 164.572475 
L 87.889746 165.17056 
L 90.819148 165.703858 
L 95.471728 166.296183 
L 103.915299 167.115292 
L 123.559525 168.824804 
L 144.926929 170.456424 
L 147.339378 170.739902 
L 147.856331 171.026469 
L 148.200966 171.455449 
L 148.545602 172.261849 
L 148.890238 173.651224 
L 149.407191 177.12342 
L 150.096462 184.027121 
L 150.785733 192.071352 
L 150.958051 197.005806 
L 191.452727 197.005806 
L 191.452727 197.005806 
" style="fill:none;opacity:0.7;stroke:#fa9207;stroke-linecap:square;stroke-width:2;"/>
   </g>
   <g id="line2d_20">
    <path clip-path="url(#p9e61a1729f)" d="M 19.307273 197.005806 
L 62.04208 197.005806 
L 62.386716 191.419027 
L 62.903669 184.972217 
L 63.59294 172.441505 
L 65.316118 138.63378 
L 66.005389 128.801785 
L 66.69466 121.823853 
L 67.211613 118.341779 
L 67.728567 116.177876 
L 68.073202 115.372101 
L 68.417838 115.007117 
L 68.762473 115.025414 
L 69.107109 115.37216 
L 69.624062 116.396979 
L 70.313333 118.468629 
L 71.34724 122.485307 
L 74.793595 136.633876 
L 76.172138 141.078039 
L 77.378362 144.234 
L 78.584586 146.769475 
L 79.790811 148.776067 
L 80.997035 150.350527 
L 82.20326 151.582431 
L 83.581802 152.669131 
L 85.132662 153.591757 
L 86.855839 154.359691 
L 89.095971 155.101343 
L 92.19769 155.863869 
L 96.85027 156.752194 
L 107.878608 158.501793 
L 122.525618 160.621017 
L 138.034218 162.638931 
L 147.339378 163.878987 
L 147.856331 164.227681 
L 148.200966 164.737958 
L 148.545602 165.695984 
L 148.890238 167.360673 
L 149.407191 171.591741 
L 150.096462 180.178536 
L 150.958051 192.871861 
L 151.130369 197.005806 
L 191.452727 197.005806 
L 191.452727 197.005806 
" style="fill:none;opacity:0.7;stroke:#fca50a;stroke-linecap:square;stroke-width:2;"/>
   </g>
   <g id="patch_3">
    <path d="M 10.7 200.06 
L 10.7 10.7 
" style="fill:none;stroke:#000000;stroke-linecap:square;stroke-linejoin:miter;stroke-width:0.8;"/>
   </g>
   <g id="patch_4">
    <path d="M 200.06 200.06 
L 200.06 10.7 
" style="fill:none;stroke:#000000;stroke-linecap:square;stroke-linejoin:miter;stroke-width:0.8;"/>
   </g>
   <g id="patch_5">
    <path d="M 10.7 200.06 
L 200.06 200.06 
" style="fill:none;stroke:#000000;stroke-linecap:square;stroke-linejoin:miter;stroke-width:0.8;"/>
   </g>
   <g id="patch_6">
    <path d="M 10.7 10.7 
L 200.06 10.7 
" style="fill:none;stroke:#000000;stroke-linecap:square;stroke-linejoin:miter;stroke-width:0.8;"/>
   </g>
  </g>
 </g>
 <defs>
  <clipPath id="p9e61a1729f">
   <rect height="189.36" width="189.36" x="10.7" y="10.7"/>
  </clipPath>
 </defs>
</svg>
