<?xml version="1.0" encoding="utf-8" standalone="no"?>
<!DOCTYPE svg PUBLIC "-//W3C//DTD SVG 1.1//EN"
  "http://www.w3.org/Graphics/SVG/1.1/DTD/svg11.dtd">
<!-- Created with matplotlib (http://matplotlib.org/) -->
<svg height="136pt" version="1.1" viewBox="0 0 101 136" width="101pt" xmlns="http://www.w3.org/2000/svg" xmlns:xlink="http://www.w3.org/1999/xlink">
 <defs>
  <style type="text/css">
*{stroke-linecap:butt;stroke-linejoin:round;}
  </style>
 </defs>
 <g id="figure_1">
  <g id="patch_1">
   <path d="M 0 136.398125 
L 101.7875 136.398125 
L 101.7875 0 
L 0 0 
z
" style="fill:#ffffff;"/>
  </g>
  <g id="axes_1">
   <g id="patch_2">
    <path d="M 33.2875 123.319219 
L 91.0875 123.319219 
L 91.0875 10.999219 
L 33.2875 10.999219 
z
" style="fill:#ffffff;"/>
   </g>
   <g id="PolyCollection_1">
    <path clip-path="url(#pcdfcd059ff)" d="M 69.171637 123.319219 
L 55.203363 123.319219 
L 54.313523 122.205084 
L 53.383378 121.090949 
L 52.330125 119.976814 
L 51.094145 118.862679 
L 49.669889 117.748545 
L 48.115694 116.63441 
L 46.538956 115.520275 
L 45.064604 114.40614 
L 43.801061 113.292005 
L 42.816463 112.17787 
L 42.131055 111.063735 
L 41.723973 109.949601 
L 41.548015 108.835466 
L 41.545543 107.721331 
L 41.661013 106.607196 
L 41.848674 105.493061 
L 42.076057 104.378926 
L 42.324527 103.264792 
L 42.587856 102.150657 
L 42.869253 101.036522 
L 43.177011 99.922387 
L 43.519225 98.808252 
L 43.898574 97.694117 
L 44.308607 96.579983 
L 44.732852 95.465848 
L 45.147368 94.351713 
L 45.526097 93.237578 
L 45.847306 92.123443 
L 46.098886 91.009308 
L 46.280673 89.895174 
L 46.403163 88.781039 
L 46.48338 87.666904 
L 46.539732 86.552769 
L 46.587805 85.438634 
L 46.638438 84.324499 
L 46.698189 83.210364 
L 46.771238 82.09623 
L 46.861277 80.982095 
L 46.972218 79.86796 
L 47.107382 78.753825 
L 47.267724 77.63969 
L 47.450083 76.525555 
L 47.646255 75.411421 
L 47.843153 74.297286 
L 48.02383 73.183151 
L 48.169083 72.069016 
L 48.259543 70.954881 
L 48.278305 69.840746 
L 48.213951 68.726612 
L 48.06333 67.612477 
L 47.8332 66.498342 
L 47.539973 65.384207 
L 47.207426 64.270072 
L 46.862977 63.155937 
L 46.533518 62.041802 
L 46.241709 60.927668 
L 46.003301 59.813533 
L 45.825607 58.699398 
L 45.707153 57.585263 
L 45.638524 56.471128 
L 45.604385 55.356993 
L 45.586443 54.242859 
L 45.566644 53.128724 
L 45.529645 52.014589 
L 45.463771 50.900454 
L 45.360386 49.786319 
L 45.212523 48.672184 
L 45.014101 47.55805 
L 44.760618 46.443915 
L 44.451143 45.32978 
L 44.090193 44.215645 
L 43.687824 43.10151 
L 43.257021 41.987375 
L 42.809074 40.873241 
L 42.348918 39.759106 
L 41.872721 38.644971 
L 41.369083 37.530836 
L 40.823571 36.416701 
L 40.224964 35.302566 
L 39.571016 34.188431 
L 38.872131 33.074297 
L 38.152504 31.960162 
L 37.449371 30.846027 
L 36.81151 29.731892 
L 36.297696 28.617757 
L 35.974858 27.503622 
L 35.914773 26.389488 
L 36.187923 25.275353 
L 36.854019 24.161218 
L 37.950339 23.047083 
L 39.480721 21.932948 
L 41.408733 20.818813 
L 43.657738 19.704679 
L 46.118576 18.590544 
L 48.663221 17.476409 
L 51.161295 16.362274 
L 53.495919 15.248139 
L 55.576131 14.134004 
L 57.344207 13.019869 
L 67.030793 13.019869 
L 67.030793 13.019869 
L 68.798869 14.134004 
L 70.879081 15.248139 
L 73.213705 16.362274 
L 75.711779 17.476409 
L 78.256424 18.590544 
L 80.717262 19.704679 
L 82.966267 20.818813 
L 84.894279 21.932948 
L 86.424661 23.047083 
L 87.520981 24.161218 
L 88.187077 25.275353 
L 88.460227 26.389488 
L 88.400142 27.503622 
L 88.077304 28.617757 
L 87.56349 29.731892 
L 86.925629 30.846027 
L 86.222496 31.960162 
L 85.502869 33.074297 
L 84.803984 34.188431 
L 84.150036 35.302566 
L 83.551429 36.416701 
L 83.005917 37.530836 
L 82.502279 38.644971 
L 82.026082 39.759106 
L 81.565926 40.873241 
L 81.117979 41.987375 
L 80.687176 43.10151 
L 80.284807 44.215645 
L 79.923857 45.32978 
L 79.614382 46.443915 
L 79.360899 47.55805 
L 79.162477 48.672184 
L 79.014614 49.786319 
L 78.911229 50.900454 
L 78.845355 52.014589 
L 78.808356 53.128724 
L 78.788557 54.242859 
L 78.770615 55.356993 
L 78.736476 56.471128 
L 78.667847 57.585263 
L 78.549393 58.699398 
L 78.371699 59.813533 
L 78.133291 60.927668 
L 77.841482 62.041802 
L 77.512023 63.155937 
L 77.167574 64.270072 
L 76.835027 65.384207 
L 76.5418 66.498342 
L 76.31167 67.612477 
L 76.161049 68.726612 
L 76.096695 69.840746 
L 76.115457 70.954881 
L 76.205917 72.069016 
L 76.35117 73.183151 
L 76.531847 74.297286 
L 76.728745 75.411421 
L 76.924917 76.525555 
L 77.107276 77.63969 
L 77.267618 78.753825 
L 77.402782 79.86796 
L 77.513723 80.982095 
L 77.603762 82.09623 
L 77.676811 83.210364 
L 77.736562 84.324499 
L 77.787195 85.438634 
L 77.835268 86.552769 
L 77.89162 87.666904 
L 77.971837 88.781039 
L 78.094327 89.895174 
L 78.276114 91.009308 
L 78.527694 92.123443 
L 78.848903 93.237578 
L 79.227632 94.351713 
L 79.642148 95.465848 
L 80.066393 96.579983 
L 80.476426 97.694117 
L 80.855775 98.808252 
L 81.197989 99.922387 
L 81.505747 101.036522 
L 81.787144 102.150657 
L 82.050473 103.264792 
L 82.298943 104.378926 
L 82.526326 105.493061 
L 82.713987 106.607196 
L 82.829457 107.721331 
L 82.826985 108.835466 
L 82.651027 109.949601 
L 82.243945 111.063735 
L 81.558537 112.17787 
L 80.573939 113.292005 
L 79.310396 114.40614 
L 77.836044 115.520275 
L 76.259306 116.63441 
L 74.705111 117.748545 
L 73.280855 118.862679 
L 72.044875 119.976814 
L 70.991622 121.090949 
L 70.061477 122.205084 
L 69.171637 123.319219 
z
" style="fill:#1f77b4;fill-opacity:0.3;"/>
   </g>
   <g id="matplotlib.axis_1"/>
   <g id="matplotlib.axis_2">
    <g id="ytick_1">
     <g id="line2d_1">
      <defs>
       <path d="M 0 0 
L -3.5 0 
" id="m8c545e35d5" style="stroke:#000000;stroke-width:0.8;"/>
      </defs>
      <g>
       <use style="stroke:#000000;stroke-width:0.8;" x="33.2875" xlink:href="#m8c545e35d5" y="123.319219"/>
      </g>
     </g>
     <g id="text_1">
      <!-- 0 -->
      <defs>
       <path d="M 31.78125 66.40625 
Q 24.171875 66.40625 20.328125 58.90625 
Q 16.5 51.421875 16.5 36.375 
Q 16.5 21.390625 20.328125 13.890625 
Q 24.171875 6.390625 31.78125 6.390625 
Q 39.453125 6.390625 43.28125 13.890625 
Q 47.125 21.390625 47.125 36.375 
Q 47.125 51.421875 43.28125 58.90625 
Q 39.453125 66.40625 31.78125 66.40625 
z
M 31.78125 74.21875 
Q 44.046875 74.21875 50.515625 64.515625 
Q 56.984375 54.828125 56.984375 36.375 
Q 56.984375 17.96875 50.515625 8.265625 
Q 44.046875 -1.421875 31.78125 -1.421875 
Q 19.53125 -1.421875 13.0625 8.265625 
Q 6.59375 17.96875 6.59375 36.375 
Q 6.59375 54.828125 13.0625 64.515625 
Q 19.53125 74.21875 31.78125 74.21875 
z
" id="DejaVuSans-30"/>
      </defs>
      <g transform="translate(19.925 127.118437)scale(0.1 -0.1)">
       <use xlink:href="#DejaVuSans-30"/>
      </g>
     </g>
    </g>
    <g id="ytick_2">
     <g id="line2d_2">
      <g>
       <use style="stroke:#000000;stroke-width:0.8;" x="33.2875" xlink:href="#m8c545e35d5" y="67.159219"/>
      </g>
     </g>
     <g id="text_2">
      <!-- 150 -->
      <defs>
       <path d="M 12.40625 8.296875 
L 28.515625 8.296875 
L 28.515625 63.921875 
L 10.984375 60.40625 
L 10.984375 69.390625 
L 28.421875 72.90625 
L 38.28125 72.90625 
L 38.28125 8.296875 
L 54.390625 8.296875 
L 54.390625 0 
L 12.40625 0 
z
" id="DejaVuSans-31"/>
       <path d="M 10.796875 72.90625 
L 49.515625 72.90625 
L 49.515625 64.59375 
L 19.828125 64.59375 
L 19.828125 46.734375 
Q 21.96875 47.46875 24.109375 47.828125 
Q 26.265625 48.1875 28.421875 48.1875 
Q 40.625 48.1875 47.75 41.5 
Q 54.890625 34.8125 54.890625 23.390625 
Q 54.890625 11.625 47.5625 5.09375 
Q 40.234375 -1.421875 26.90625 -1.421875 
Q 22.3125 -1.421875 17.546875 -0.640625 
Q 12.796875 0.140625 7.71875 1.703125 
L 7.71875 11.625 
Q 12.109375 9.234375 16.796875 8.0625 
Q 21.484375 6.890625 26.703125 6.890625 
Q 35.15625 6.890625 40.078125 11.328125 
Q 45.015625 15.765625 45.015625 23.390625 
Q 45.015625 31 40.078125 35.4375 
Q 35.15625 39.890625 26.703125 39.890625 
Q 22.75 39.890625 18.8125 39.015625 
Q 14.890625 38.140625 10.796875 36.28125 
z
" id="DejaVuSans-35"/>
      </defs>
      <g transform="translate(7.2 70.958437)scale(0.1 -0.1)">
       <use xlink:href="#DejaVuSans-31"/>
       <use x="63.623047" xlink:href="#DejaVuSans-35"/>
       <use x="127.246094" xlink:href="#DejaVuSans-30"/>
      </g>
     </g>
    </g>
    <g id="ytick_3">
     <g id="line2d_3">
      <g>
       <use style="stroke:#000000;stroke-width:0.8;" x="33.2875" xlink:href="#m8c545e35d5" y="10.999219"/>
      </g>
     </g>
     <g id="text_3">
      <!-- 300 -->
      <defs>
       <path d="M 40.578125 39.3125 
Q 47.65625 37.796875 51.625 33 
Q 55.609375 28.21875 55.609375 21.1875 
Q 55.609375 10.40625 48.1875 4.484375 
Q 40.765625 -1.421875 27.09375 -1.421875 
Q 22.515625 -1.421875 17.65625 -0.515625 
Q 12.796875 0.390625 7.625 2.203125 
L 7.625 11.71875 
Q 11.71875 9.328125 16.59375 8.109375 
Q 21.484375 6.890625 26.8125 6.890625 
Q 36.078125 6.890625 40.9375 10.546875 
Q 45.796875 14.203125 45.796875 21.1875 
Q 45.796875 27.640625 41.28125 31.265625 
Q 36.765625 34.90625 28.71875 34.90625 
L 20.21875 34.90625 
L 20.21875 43.015625 
L 29.109375 43.015625 
Q 36.375 43.015625 40.234375 45.921875 
Q 44.09375 48.828125 44.09375 54.296875 
Q 44.09375 59.90625 40.109375 62.90625 
Q 36.140625 65.921875 28.71875 65.921875 
Q 24.65625 65.921875 20.015625 65.03125 
Q 15.375 64.15625 9.8125 62.3125 
L 9.8125 71.09375 
Q 15.4375 72.65625 20.34375 73.4375 
Q 25.25 74.21875 29.59375 74.21875 
Q 40.828125 74.21875 47.359375 69.109375 
Q 53.90625 64.015625 53.90625 55.328125 
Q 53.90625 49.265625 50.4375 45.09375 
Q 46.96875 40.921875 40.578125 39.3125 
z
" id="DejaVuSans-33"/>
      </defs>
      <g transform="translate(7.2 14.798437)scale(0.1 -0.1)">
       <use xlink:href="#DejaVuSans-33"/>
       <use x="63.623047" xlink:href="#DejaVuSans-30"/>
       <use x="127.246094" xlink:href="#DejaVuSans-30"/>
      </g>
     </g>
    </g>
   </g>
   <g id="patch_3">
    <path d="M 33.2875 123.319219 
L 33.2875 10.999219 
" style="fill:none;stroke:#000000;stroke-linecap:square;stroke-linejoin:miter;stroke-width:0.8;"/>
   </g>
   <g id="patch_4">
    <path d="M 33.2875 123.319219 
L 91.0875 123.319219 
" style="fill:none;stroke:#000000;stroke-linecap:square;stroke-linejoin:miter;stroke-width:0.8;"/>
   </g>
  </g>
 </g>
 <defs>
  <clipPath id="pcdfcd059ff">
   <rect height="112.32" width="57.8" x="33.2875" y="10.999219"/>
  </clipPath>
 </defs>
</svg>
