<?xml version="1.0" encoding="utf-8" standalone="no"?>
<!DOCTYPE svg PUBLIC "-//W3C//DTD SVG 1.1//EN"
  "http://www.w3.org/Graphics/SVG/1.1/DTD/svg11.dtd">
<!-- Created with matplotlib (http://matplotlib.org/) -->
<svg height="136pt" version="1.1" viewBox="0 0 137 136" width="137pt" xmlns="http://www.w3.org/2000/svg" xmlns:xlink="http://www.w3.org/1999/xlink">
 <defs>
  <style type="text/css">
*{stroke-linecap:butt;stroke-linejoin:round;}
  </style>
 </defs>
 <g id="figure_1">
  <g id="patch_1">
   <path d="M 0 136.398125 
L 137.7875 136.398125 
L 137.7875 0 
L 0 0 
z
" style="fill:#ffffff;"/>
  </g>
  <g id="axes_1">
   <g id="patch_2">
    <path d="M 33.2875 123.319219 
L 127.0875 123.319219 
L 127.0875 10.999219 
L 33.2875 10.999219 
z
" style="fill:#ffffff;"/>
   </g>
   <g id="PolyCollection_1">
    <path clip-path="url(#p9b1624dad7)" d="M 80.414347 123.319219 
L 78.480713 123.319219 
L 78.540273 122.933473 
L 78.706765 122.547728 
L 78.947008 122.161982 
L 79.217335 121.776237 
L 79.475466 121.390492 
L 79.68936 121.004746 
L 79.840518 120.619001 
L 79.922178 120.233255 
L 79.934914 119.84751 
L 79.88247 119.461765 
L 79.769635 119.076019 
L 79.602339 118.690274 
L 79.388976 118.304528 
L 79.141526 117.918783 
L 78.875441 117.533037 
L 78.608046 117.147292 
L 78.356022 116.761547 
L 78.132888 116.375801 
L 77.947309 115.990056 
L 77.802619 115.60431 
L 77.697432 115.218565 
L 77.626918 114.832819 
L 77.584306 114.447074 
L 77.562272 114.061329 
L 77.554062 113.675583 
L 77.554316 113.289838 
L 77.559508 112.904092 
L 77.567974 112.518347 
L 77.579458 112.132601 
L 77.594294 111.746856 
L 77.61246 111.361111 
L 77.632881 110.975365 
L 77.653298 110.58962 
L 77.670795 110.203874 
L 77.682735 109.818129 
L 77.68767 109.432383 
L 77.68579 109.046638 
L 77.678698 108.660893 
L 77.668669 108.275147 
L 77.657791 107.889402 
L 77.647418 107.503656 
L 77.638176 107.117911 
L 77.630455 106.732166 
L 77.625055 106.34642 
L 77.623592 105.960675 
L 77.62838 105.574929 
L 77.641785 105.189184 
L 77.66533 104.803438 
L 77.698926 104.417693 
L 77.740574 104.031948 
L 77.786671 103.646202 
L 77.832785 103.260457 
L 77.874665 102.874711 
L 77.909132 102.488966 
L 77.934641 102.10322 
L 77.951363 101.717475 
L 77.96082 101.33173 
L 77.965226 100.945984 
L 77.96678 100.560239 
L 77.967149 100.174493 
L 77.967275 99.788748 
L 77.967511 99.403002 
L 77.967942 99.017257 
L 77.968748 98.631512 
L 77.970462 98.245766 
L 77.974081 97.860021 
L 77.980995 97.474275 
L 77.99276 97.08853 
L 78.010752 96.702784 
L 78.035771 96.317039 
L 78.067704 95.931294 
L 78.105359 95.545548 
L 78.146567 95.159803 
L 78.188557 94.774057 
L 78.228512 94.388312 
L 78.264162 94.002567 
L 78.294213 93.616821 
L 78.318504 93.231076 
L 78.337824 92.84533 
L 78.353464 92.459585 
L 78.366597 92.073839 
L 78.377545 91.688094 
L 78.384871 91.302349 
L 78.383911 90.916603 
L 78.363858 90.530858 
L 78.301956 90.145112 
L 78.15313 89.759367 
L 77.834436 89.373621 
L 77.206954 88.987876 
L 76.063678 88.602131 
L 74.138461 88.216385 
L 71.153381 87.83064 
L 66.913339 87.444894 
L 61.433978 87.059149 
L 55.058491 86.673403 
L 48.49817 86.287658 
L 42.741889 85.901913 
L 38.829088 85.516167 
L 37.551136 85.130422 
L 80.414347 85.130422 
L 80.414347 85.130422 
L 80.414347 85.516167 
L 80.414347 85.901913 
L 80.414347 86.287658 
L 80.414347 86.673403 
L 80.414347 87.059149 
L 80.414347 87.444894 
L 80.414347 87.83064 
L 80.414347 88.216385 
L 80.414347 88.602131 
L 80.414347 88.987876 
L 80.414347 89.373621 
L 80.414347 89.759367 
L 80.414347 90.145112 
L 80.414347 90.530858 
L 80.414347 90.916603 
L 80.414347 91.302349 
L 80.414347 91.688094 
L 80.414347 92.073839 
L 80.414347 92.459585 
L 80.414347 92.84533 
L 80.414347 93.231076 
L 80.414347 93.616821 
L 80.414347 94.002567 
L 80.414347 94.388312 
L 80.414347 94.774057 
L 80.414347 95.159803 
L 80.414347 95.545548 
L 80.414347 95.931294 
L 80.414347 96.317039 
L 80.414347 96.702784 
L 80.414347 97.08853 
L 80.414347 97.474275 
L 80.414347 97.860021 
L 80.414347 98.245766 
L 80.414347 98.631512 
L 80.414347 99.017257 
L 80.414347 99.403002 
L 80.414347 99.788748 
L 80.414347 100.174493 
L 80.414347 100.560239 
L 80.414347 100.945984 
L 80.414347 101.33173 
L 80.414347 101.717475 
L 80.414347 102.10322 
L 80.414347 102.488966 
L 80.414347 102.874711 
L 80.414347 103.260457 
L 80.414347 103.646202 
L 80.414347 104.031948 
L 80.414347 104.417693 
L 80.414347 104.803438 
L 80.414347 105.189184 
L 80.414347 105.574929 
L 80.414347 105.960675 
L 80.414347 106.34642 
L 80.414347 106.732166 
L 80.414347 107.117911 
L 80.414347 107.503656 
L 80.414347 107.889402 
L 80.414347 108.275147 
L 80.414347 108.660893 
L 80.414347 109.046638 
L 80.414347 109.432383 
L 80.414347 109.818129 
L 80.414347 110.203874 
L 80.414347 110.58962 
L 80.414347 110.975365 
L 80.414347 111.361111 
L 80.414347 111.746856 
L 80.414347 112.132601 
L 80.414347 112.518347 
L 80.414347 112.904092 
L 80.414347 113.289838 
L 80.414347 113.675583 
L 80.414347 114.061329 
L 80.414347 114.447074 
L 80.414347 114.832819 
L 80.414347 115.218565 
L 80.414347 115.60431 
L 80.414347 115.990056 
L 80.414347 116.375801 
L 80.414347 116.761547 
L 80.414347 117.147292 
L 80.414347 117.533037 
L 80.414347 117.918783 
L 80.414347 118.304528 
L 80.414347 118.690274 
L 80.414347 119.076019 
L 80.414347 119.461765 
L 80.414347 119.84751 
L 80.414347 120.233255 
L 80.414347 120.619001 
L 80.414347 121.004746 
L 80.414347 121.390492 
L 80.414347 121.776237 
L 80.414347 122.161982 
L 80.414347 122.547728 
L 80.414347 122.933473 
L 80.414347 123.319219 
z
" style="fill:#1f77b4;fill-opacity:0.3;"/>
   </g>
   <g id="PolyCollection_2">
    <path clip-path="url(#p9b1624dad7)" d="M 80.809466 123.319219 
L 80.19451 123.319219 
L 80.19451 122.245552 
L 80.19451 121.171885 
L 80.19451 120.098217 
L 80.19451 119.02455 
L 80.19451 117.950883 
L 80.19451 116.877216 
L 80.19451 115.803549 
L 80.19451 114.729882 
L 80.19451 113.656215 
L 80.19451 112.582548 
L 80.19451 111.508881 
L 80.19451 110.435214 
L 80.19451 109.361547 
L 80.19451 108.28788 
L 80.19451 107.214212 
L 80.19451 106.140545 
L 80.19451 105.066878 
L 80.19451 103.993211 
L 80.19451 102.919544 
L 80.19451 101.845877 
L 80.19451 100.77221 
L 80.19451 99.698543 
L 80.19451 98.624876 
L 80.19451 97.551209 
L 80.19451 96.477542 
L 80.19451 95.403875 
L 80.19451 94.330207 
L 80.19451 93.25654 
L 80.19451 92.182873 
L 80.19451 91.109206 
L 80.19451 90.035539 
L 80.19451 88.961872 
L 80.19451 87.888205 
L 80.19451 86.814538 
L 80.19451 85.740871 
L 80.19451 84.667204 
L 80.19451 83.593537 
L 80.19451 82.519869 
L 80.19451 81.446202 
L 80.19451 80.372535 
L 80.19451 79.298868 
L 80.19451 78.225201 
L 80.19451 77.151534 
L 80.19451 76.077867 
L 80.19451 75.0042 
L 80.19451 73.930533 
L 80.19451 72.856866 
L 80.19451 71.783199 
L 80.19451 70.709532 
L 80.19451 69.635864 
L 80.19451 68.562197 
L 80.19451 67.48853 
L 80.19451 66.414863 
L 80.19451 65.341196 
L 80.19451 64.267529 
L 80.19451 63.193862 
L 80.19451 62.120195 
L 80.19451 61.046528 
L 80.19451 59.972861 
L 80.19451 58.899194 
L 80.19451 57.825527 
L 80.19451 56.751859 
L 80.19451 55.678192 
L 80.19451 54.604525 
L 80.19451 53.530858 
L 80.19451 52.457191 
L 80.19451 51.383524 
L 80.19451 50.309857 
L 80.19451 49.23619 
L 80.19451 48.162523 
L 80.19451 47.088856 
L 80.19451 46.015189 
L 80.19451 44.941521 
L 80.19451 43.867854 
L 80.19451 42.794187 
L 80.19451 41.72052 
L 80.19451 40.646853 
L 80.19451 39.573186 
L 80.19451 38.499519 
L 80.19451 37.425852 
L 80.19451 36.352185 
L 80.19451 35.278518 
L 80.19451 34.204851 
L 80.19451 33.131184 
L 80.19451 32.057516 
L 80.19451 30.983849 
L 80.19451 29.910182 
L 80.19451 28.836515 
L 80.19451 27.762848 
L 80.19451 26.689181 
L 80.19451 25.615514 
L 80.19451 24.541847 
L 80.19451 23.46818 
L 80.19451 22.394513 
L 80.19451 21.320846 
L 80.19451 20.247178 
L 80.19451 19.173511 
L 80.19451 18.099844 
L 80.19451 17.026177 
L 80.36656 17.026177 
L 80.36656 17.026177 
L 80.47428 18.099844 
L 80.620369 19.173511 
L 80.805658 20.247178 
L 81.020512 21.320846 
L 81.243785 22.394513 
L 81.448405 23.46818 
L 81.609927 24.541847 
L 81.713579 25.615514 
L 81.758287 26.689181 
L 81.756349 27.762848 
L 81.726683 28.836515 
L 81.685104 29.910182 
L 81.6418 30.983849 
L 81.60958 32.057516 
L 81.610316 33.131184 
L 81.665684 34.204851 
L 81.778688 35.278518 
L 81.92823 36.352185 
L 82.086815 37.425852 
L 82.244143 38.499519 
L 82.409951 39.573186 
L 82.5921 40.646853 
L 82.775946 41.72052 
L 82.930301 42.794187 
L 83.032173 43.867854 
L 83.079949 44.941521 
L 83.082684 46.015189 
L 83.044727 47.088856 
L 82.966945 48.162523 
L 82.860281 49.23619 
L 82.751626 50.309857 
L 82.673621 51.383524 
L 82.648554 52.457191 
L 82.679177 53.530858 
L 82.749162 54.604525 
L 82.829857 55.678192 
L 82.891646 56.751859 
L 82.917932 57.825527 
L 82.915204 58.899194 
L 82.912982 59.972861 
L 82.95437 61.046528 
L 83.081878 62.120195 
L 83.321023 63.193862 
L 83.665361 64.267529 
L 84.073398 65.341196 
L 84.486708 66.414863 
L 84.861084 67.48853 
L 85.186722 68.562197 
L 85.484135 69.635864 
L 85.787722 70.709532 
L 86.134119 71.783199 
L 86.55778 72.856866 
L 87.092028 73.930533 
L 87.784408 75.0042 
L 88.73754 76.077867 
L 90.175359 77.151534 
L 92.512201 78.225201 
L 96.342353 79.298868 
L 102.176948 80.372535 
L 109.811941 81.446202 
L 117.648106 82.519869 
L 122.823864 83.593537 
L 122.711488 84.667204 
L 116.871353 85.740871 
L 107.583692 86.814538 
L 98.282507 87.888205 
L 91.390047 88.961872 
L 87.425242 90.035539 
L 85.621641 91.109206 
L 84.96236 92.182873 
L 84.751095 93.25654 
L 84.662591 94.330207 
L 84.591528 95.403875 
L 84.519463 96.477542 
L 84.447906 97.551209 
L 84.377667 98.624876 
L 84.309424 99.698543 
L 84.24671 100.77221 
L 84.193425 101.845877 
L 84.14981 102.919544 
L 84.112027 103.993211 
L 84.074354 105.066878 
L 84.030952 106.140545 
L 83.975846 107.214212 
L 83.900542 108.28788 
L 83.791469 109.361547 
L 83.632882 110.435214 
L 83.415901 111.508881 
L 83.144056 112.582548 
L 82.826804 113.656215 
L 82.468279 114.729882 
L 82.068855 115.803549 
L 81.6442 116.877216 
L 81.242467 117.950883 
L 80.93418 119.02455 
L 80.772252 120.098217 
L 80.74998 121.171885 
L 80.794444 122.245552 
L 80.809466 123.319219 
z
" style="fill:#ff7f0e;fill-opacity:0.3;"/>
   </g>
   <g id="matplotlib.axis_1"/>
   <g id="matplotlib.axis_2">
    <g id="ytick_1">
     <g id="line2d_1">
      <defs>
       <path d="M 0 0 
L -3.5 0 
" id="m7ad5503120" style="stroke:#000000;stroke-width:0.8;"/>
      </defs>
      <g>
       <use style="stroke:#000000;stroke-width:0.8;" x="33.2875" xlink:href="#m7ad5503120" y="123.319219"/>
      </g>
     </g>
     <g id="text_1">
      <!-- 0 -->
      <defs>
       <path d="M 31.78125 66.40625 
Q 24.171875 66.40625 20.328125 58.90625 
Q 16.5 51.421875 16.5 36.375 
Q 16.5 21.390625 20.328125 13.890625 
Q 24.171875 6.390625 31.78125 6.390625 
Q 39.453125 6.390625 43.28125 13.890625 
Q 47.125 21.390625 47.125 36.375 
Q 47.125 51.421875 43.28125 58.90625 
Q 39.453125 66.40625 31.78125 66.40625 
z
M 31.78125 74.21875 
Q 44.046875 74.21875 50.515625 64.515625 
Q 56.984375 54.828125 56.984375 36.375 
Q 56.984375 17.96875 50.515625 8.265625 
Q 44.046875 -1.421875 31.78125 -1.421875 
Q 19.53125 -1.421875 13.0625 8.265625 
Q 6.59375 17.96875 6.59375 36.375 
Q 6.59375 54.828125 13.0625 64.515625 
Q 19.53125 74.21875 31.78125 74.21875 
z
" id="DejaVuSans-30"/>
      </defs>
      <g transform="translate(19.925 127.118437)scale(0.1 -0.1)">
       <use xlink:href="#DejaVuSans-30"/>
      </g>
     </g>
    </g>
    <g id="ytick_2">
     <g id="line2d_2">
      <g>
       <use style="stroke:#000000;stroke-width:0.8;" x="33.2875" xlink:href="#m7ad5503120" y="67.159219"/>
      </g>
     </g>
     <g id="text_2">
      <!-- 150 -->
      <defs>
       <path d="M 12.40625 8.296875 
L 28.515625 8.296875 
L 28.515625 63.921875 
L 10.984375 60.40625 
L 10.984375 69.390625 
L 28.421875 72.90625 
L 38.28125 72.90625 
L 38.28125 8.296875 
L 54.390625 8.296875 
L 54.390625 0 
L 12.40625 0 
z
" id="DejaVuSans-31"/>
       <path d="M 10.796875 72.90625 
L 49.515625 72.90625 
L 49.515625 64.59375 
L 19.828125 64.59375 
L 19.828125 46.734375 
Q 21.96875 47.46875 24.109375 47.828125 
Q 26.265625 48.1875 28.421875 48.1875 
Q 40.625 48.1875 47.75 41.5 
Q 54.890625 34.8125 54.890625 23.390625 
Q 54.890625 11.625 47.5625 5.09375 
Q 40.234375 -1.421875 26.90625 -1.421875 
Q 22.3125 -1.421875 17.546875 -0.640625 
Q 12.796875 0.140625 7.71875 1.703125 
L 7.71875 11.625 
Q 12.109375 9.234375 16.796875 8.0625 
Q 21.484375 6.890625 26.703125 6.890625 
Q 35.15625 6.890625 40.078125 11.328125 
Q 45.015625 15.765625 45.015625 23.390625 
Q 45.015625 31 40.078125 35.4375 
Q 35.15625 39.890625 26.703125 39.890625 
Q 22.75 39.890625 18.8125 39.015625 
Q 14.890625 38.140625 10.796875 36.28125 
z
" id="DejaVuSans-35"/>
      </defs>
      <g transform="translate(7.2 70.958437)scale(0.1 -0.1)">
       <use xlink:href="#DejaVuSans-31"/>
       <use x="63.623047" xlink:href="#DejaVuSans-35"/>
       <use x="127.246094" xlink:href="#DejaVuSans-30"/>
      </g>
     </g>
    </g>
    <g id="ytick_3">
     <g id="line2d_3">
      <g>
       <use style="stroke:#000000;stroke-width:0.8;" x="33.2875" xlink:href="#m7ad5503120" y="10.999219"/>
      </g>
     </g>
     <g id="text_3">
      <!-- 300 -->
      <defs>
       <path d="M 40.578125 39.3125 
Q 47.65625 37.796875 51.625 33 
Q 55.609375 28.21875 55.609375 21.1875 
Q 55.609375 10.40625 48.1875 4.484375 
Q 40.765625 -1.421875 27.09375 -1.421875 
Q 22.515625 -1.421875 17.65625 -0.515625 
Q 12.796875 0.390625 7.625 2.203125 
L 7.625 11.71875 
Q 11.71875 9.328125 16.59375 8.109375 
Q 21.484375 6.890625 26.8125 6.890625 
Q 36.078125 6.890625 40.9375 10.546875 
Q 45.796875 14.203125 45.796875 21.1875 
Q 45.796875 27.640625 41.28125 31.265625 
Q 36.765625 34.90625 28.71875 34.90625 
L 20.21875 34.90625 
L 20.21875 43.015625 
L 29.109375 43.015625 
Q 36.375 43.015625 40.234375 45.921875 
Q 44.09375 48.828125 44.09375 54.296875 
Q 44.09375 59.90625 40.109375 62.90625 
Q 36.140625 65.921875 28.71875 65.921875 
Q 24.65625 65.921875 20.015625 65.03125 
Q 15.375 64.15625 9.8125 62.3125 
L 9.8125 71.09375 
Q 15.4375 72.65625 20.34375 73.4375 
Q 25.25 74.21875 29.59375 74.21875 
Q 40.828125 74.21875 47.359375 69.109375 
Q 53.90625 64.015625 53.90625 55.328125 
Q 53.90625 49.265625 50.4375 45.09375 
Q 46.96875 40.921875 40.578125 39.3125 
z
" id="DejaVuSans-33"/>
      </defs>
      <g transform="translate(7.2 14.798437)scale(0.1 -0.1)">
       <use xlink:href="#DejaVuSans-33"/>
       <use x="63.623047" xlink:href="#DejaVuSans-30"/>
       <use x="127.246094" xlink:href="#DejaVuSans-30"/>
      </g>
     </g>
    </g>
   </g>
   <g id="patch_3">
    <path d="M 33.2875 123.319219 
L 33.2875 10.999219 
" style="fill:none;stroke:#000000;stroke-linecap:square;stroke-linejoin:miter;stroke-width:0.8;"/>
   </g>
   <g id="patch_4">
    <path d="M 33.2875 123.319219 
L 127.0875 123.319219 
" style="fill:none;stroke:#000000;stroke-linecap:square;stroke-linejoin:miter;stroke-width:0.8;"/>
   </g>
  </g>
 </g>
 <defs>
  <clipPath id="p9b1624dad7">
   <rect height="112.32" width="93.8" x="33.2875" y="10.999219"/>
  </clipPath>
 </defs>
</svg>
