<?xml version="1.0" encoding="utf-8" standalone="no"?>
<!DOCTYPE svg PUBLIC "-//W3C//DTD SVG 1.1//EN"
  "http://www.w3.org/Graphics/SVG/1.1/DTD/svg11.dtd">
<!-- Created with matplotlib (http://matplotlib.org/) -->
<svg height="136pt" version="1.1" viewBox="0 0 137 136" width="137pt" xmlns="http://www.w3.org/2000/svg" xmlns:xlink="http://www.w3.org/1999/xlink">
 <defs>
  <style type="text/css">
*{stroke-linecap:butt;stroke-linejoin:round;}
  </style>
 </defs>
 <g id="figure_1">
  <g id="patch_1">
   <path d="M 0 136.398125 
L 137.7875 136.398125 
L 137.7875 0 
L 0 0 
z
" style="fill:#ffffff;"/>
  </g>
  <g id="axes_1">
   <g id="patch_2">
    <path d="M 33.2875 123.319219 
L 127.0875 123.319219 
L 127.0875 10.999219 
L 33.2875 10.999219 
z
" style="fill:#ffffff;"/>
   </g>
   <g id="PolyCollection_1">
    <path clip-path="url(#p976ae80043)" d="M 80.411077 123.319219 
L 78.812625 123.319219 
L 78.912879 123.160382 
L 79.171872 123.001546 
L 79.491957 122.84271 
L 79.778099 122.683873 
L 79.980386 122.525037 
L 80.097445 122.366201 
L 80.153846 122.207364 
L 80.17669 122.048528 
L 80.184516 121.889692 
L 80.186792 121.730855 
L 80.187356 121.572019 
L 80.187475 121.413182 
L 80.187496 121.254346 
L 80.1875 121.09551 
L 80.1875 120.936673 
L 80.1875 120.777837 
L 80.1875 120.619001 
L 80.1875 120.460164 
L 80.1875 120.301328 
L 80.1875 120.142492 
L 80.1875 119.983655 
L 80.1875 119.824819 
L 80.1875 119.665983 
L 80.187498 119.507146 
L 80.187488 119.34831 
L 80.187444 119.189473 
L 80.18726 119.030637 
L 80.186616 118.871801 
L 80.184663 118.712964 
L 80.179555 118.554128 
L 80.168025 118.395292 
L 80.145564 118.236455 
L 80.107774 118.077619 
L 80.052869 117.918783 
L 79.984017 117.759946 
L 79.909653 117.60111 
L 79.840779 117.442273 
L 79.786495 117.283437 
L 79.750384 117.124601 
L 79.729861 116.965764 
L 79.718512 116.806928 
L 79.709653 116.648092 
L 79.698978 116.489255 
L 79.685238 116.330419 
L 79.66939 116.171583 
L 79.653446 116.012746 
L 79.639767 115.85391 
L 79.630569 115.695074 
L 79.627125 115.536237 
L 79.628924 115.377401 
L 79.633696 115.218564 
L 79.638609 115.059728 
L 79.641646 114.900892 
L 79.642019 114.742055 
L 79.639658 114.583219 
L 79.634759 114.424383 
L 79.627778 114.265546 
L 79.619266 114.10671 
L 79.609208 113.947874 
L 79.596632 113.789037 
L 79.580377 113.630201 
L 79.560598 113.471365 
L 79.539531 113.312528 
L 79.520614 113.153692 
L 79.506688 112.994855 
L 79.49884 112.836019 
L 79.49663 112.677183 
L 79.499121 112.518346 
L 79.50559 112.35951 
L 79.515431 112.200674 
L 79.527609 112.041837 
L 79.540487 111.883001 
L 79.552591 111.724165 
L 79.563888 111.565328 
L 79.576152 111.406492 
L 79.591308 111.247655 
L 79.608763 111.088819 
L 79.624354 110.929983 
L 79.632558 110.771146 
L 79.630535 110.61231 
L 79.620612 110.453474 
L 79.609004 110.294637 
L 79.601755 110.135801 
L 79.601099 109.976965 
L 79.604798 109.818128 
L 79.60849 109.659292 
L 79.608725 109.500456 
L 79.60332 109.341619 
L 79.584492 109.182783 
L 79.51637 109.023946 
L 79.282036 108.86511 
L 78.588853 108.706274 
L 76.864358 108.547437 
L 73.27394 108.388601 
L 67.06399 108.229765 
L 58.282214 108.070928 
L 48.471207 107.912092 
L 40.559801 107.753256 
L 37.551136 107.594419 
L 80.411077 107.594419 
L 80.411077 107.594419 
L 80.411077 107.753256 
L 80.411077 107.912092 
L 80.411077 108.070928 
L 80.411077 108.229765 
L 80.411077 108.388601 
L 80.411077 108.547437 
L 80.411077 108.706274 
L 80.411077 108.86511 
L 80.411077 109.023946 
L 80.411077 109.182783 
L 80.411077 109.341619 
L 80.411077 109.500456 
L 80.411077 109.659292 
L 80.411077 109.818128 
L 80.411077 109.976965 
L 80.411077 110.135801 
L 80.411077 110.294637 
L 80.411077 110.453474 
L 80.411077 110.61231 
L 80.411077 110.771146 
L 80.411077 110.929983 
L 80.411077 111.088819 
L 80.411077 111.247655 
L 80.411077 111.406492 
L 80.411077 111.565328 
L 80.411077 111.724165 
L 80.411077 111.883001 
L 80.411077 112.041837 
L 80.411077 112.200674 
L 80.411077 112.35951 
L 80.411077 112.518346 
L 80.411077 112.677183 
L 80.411077 112.836019 
L 80.411077 112.994855 
L 80.411077 113.153692 
L 80.411077 113.312528 
L 80.411077 113.471365 
L 80.411077 113.630201 
L 80.411077 113.789037 
L 80.411077 113.947874 
L 80.411077 114.10671 
L 80.411077 114.265546 
L 80.411077 114.424383 
L 80.411077 114.583219 
L 80.411077 114.742055 
L 80.411077 114.900892 
L 80.411077 115.059728 
L 80.411077 115.218564 
L 80.411077 115.377401 
L 80.411077 115.536237 
L 80.411077 115.695074 
L 80.411077 115.85391 
L 80.411077 116.012746 
L 80.411077 116.171583 
L 80.411077 116.330419 
L 80.411077 116.489255 
L 80.411077 116.648092 
L 80.411077 116.806928 
L 80.411077 116.965764 
L 80.411077 117.124601 
L 80.411077 117.283437 
L 80.411077 117.442273 
L 80.411077 117.60111 
L 80.390983 117.759946 
L 80.322131 117.918783 
L 80.267226 118.077619 
L 80.229436 118.236455 
L 80.206975 118.395292 
L 80.195445 118.554128 
L 80.190337 118.712964 
L 80.188384 118.871801 
L 80.18774 119.030637 
L 80.187556 119.189473 
L 80.187512 119.34831 
L 80.187502 119.507146 
L 80.1875 119.665983 
L 80.1875 119.824819 
L 80.1875 119.983655 
L 80.1875 120.142492 
L 80.1875 120.301328 
L 80.1875 120.460164 
L 80.1875 120.619001 
L 80.1875 120.777837 
L 80.1875 120.936673 
L 80.1875 121.09551 
L 80.187504 121.254346 
L 80.187525 121.413182 
L 80.187644 121.572019 
L 80.188208 121.730855 
L 80.190484 121.889692 
L 80.19831 122.048528 
L 80.221154 122.207364 
L 80.277555 122.366201 
L 80.394614 122.525037 
L 80.411077 122.683873 
L 80.411077 122.84271 
L 80.411077 123.001546 
L 80.411077 123.160382 
L 80.411077 123.319219 
z
" style="fill:#1f77b4;fill-opacity:0.3;"/>
   </g>
   <g id="PolyCollection_2">
    <path clip-path="url(#p976ae80043)" d="M 80.680379 123.319219 
L 80.192618 123.319219 
L 80.192618 122.260998 
L 80.192618 121.202778 
L 80.192618 120.144558 
L 80.192618 119.086338 
L 80.192618 118.028117 
L 80.192618 116.969897 
L 80.192618 115.911677 
L 80.192618 114.853457 
L 80.192618 113.795236 
L 80.192618 112.737016 
L 80.192618 111.678796 
L 80.192618 110.620575 
L 80.192618 109.562355 
L 80.192618 108.504135 
L 80.192618 107.445915 
L 80.192618 106.387694 
L 80.192618 105.329474 
L 80.192618 104.271254 
L 80.192618 103.213034 
L 80.192618 102.154813 
L 80.192618 101.096593 
L 80.192618 100.038373 
L 80.192618 98.980152 
L 80.192618 97.921932 
L 80.192618 96.863712 
L 80.192618 95.805492 
L 80.192618 94.747271 
L 80.192618 93.689051 
L 80.192618 92.630831 
L 80.192618 91.57261 
L 80.192618 90.51439 
L 80.192618 89.45617 
L 80.192618 88.39795 
L 80.192618 87.339729 
L 80.192618 86.281509 
L 80.192618 85.223289 
L 80.192618 84.165069 
L 80.192618 83.106848 
L 80.192618 82.048628 
L 80.192618 80.990408 
L 80.192618 79.932187 
L 80.192618 78.873967 
L 80.192618 77.815747 
L 80.192618 76.757527 
L 80.192618 75.699306 
L 80.192618 74.641086 
L 80.192618 73.582866 
L 80.192618 72.524646 
L 80.192618 71.466425 
L 80.192618 70.408205 
L 80.192618 69.349985 
L 80.192618 68.291764 
L 80.192618 67.233544 
L 80.192618 66.175324 
L 80.192618 65.117104 
L 80.192618 64.058883 
L 80.192618 63.000663 
L 80.192618 61.942443 
L 80.192618 60.884223 
L 80.192618 59.826002 
L 80.192618 58.767782 
L 80.192618 57.709562 
L 80.192618 56.651341 
L 80.192618 55.593121 
L 80.192618 54.534901 
L 80.192618 53.476681 
L 80.192618 52.41846 
L 80.192618 51.36024 
L 80.192618 50.30202 
L 80.192618 49.243799 
L 80.192618 48.185579 
L 80.192618 47.127359 
L 80.192618 46.069139 
L 80.192618 45.010918 
L 80.192618 43.952698 
L 80.192618 42.894478 
L 80.192618 41.836258 
L 80.192618 40.778037 
L 80.192618 39.719817 
L 80.192618 38.661597 
L 80.192618 37.603376 
L 80.192618 36.545156 
L 80.192618 35.486936 
L 80.192618 34.428716 
L 80.192618 33.370495 
L 80.192618 32.312275 
L 80.192618 31.254055 
L 80.192618 30.195835 
L 80.192618 29.137614 
L 80.192618 28.079394 
L 80.192618 27.021174 
L 80.192618 25.962953 
L 80.192618 24.904733 
L 80.192618 23.846513 
L 80.192618 22.788293 
L 80.192618 21.730072 
L 80.192618 20.671852 
L 80.192618 19.613632 
L 80.192618 18.555411 
L 80.240754 18.555411 
L 80.240754 18.555411 
L 80.275069 19.613632 
L 80.315443 20.671852 
L 80.358488 21.730072 
L 80.404148 22.788293 
L 80.455544 23.846513 
L 80.514537 24.904733 
L 80.577718 25.962953 
L 80.63754 27.021174 
L 80.687309 28.079394 
L 80.723959 29.137614 
L 80.7459 30.195835 
L 80.751087 31.254055 
L 80.741045 32.312275 
L 80.726728 33.370495 
L 80.72624 34.428716 
L 80.753191 35.486936 
L 80.806615 36.545156 
L 80.872355 37.603376 
L 80.934125 38.661597 
L 80.98376 39.719817 
L 81.022153 40.778037 
L 81.053193 41.836258 
L 81.080769 42.894478 
L 81.111847 43.952698 
L 81.156139 45.010918 
L 81.216171 46.069139 
L 81.277915 47.127359 
L 81.316483 48.185579 
L 81.31462 49.243799 
L 81.275466 50.30202 
L 81.218364 51.36024 
L 81.16637 52.41846 
L 81.13799 53.476681 
L 81.14305 54.534901 
L 81.178273 55.593121 
L 81.226366 56.651341 
L 81.264268 57.709562 
L 81.276529 58.767782 
L 81.263212 59.826002 
L 81.236796 60.884223 
L 81.212416 61.942443 
L 81.199913 63.000663 
L 81.202026 64.058883 
L 81.216842 65.117104 
L 81.240843 66.175324 
L 81.270654 67.233544 
L 81.303312 68.291764 
L 81.335675 69.349985 
L 81.364117 70.408205 
L 81.385526 71.466425 
L 81.399274 72.524646 
L 81.408193 73.582866 
L 81.417156 74.641086 
L 81.431062 75.699306 
L 81.455249 76.757527 
L 81.4972 77.815747 
L 81.564972 78.873967 
L 81.661764 79.932187 
L 81.782224 80.990408 
L 81.914388 82.048628 
L 82.0449 83.106848 
L 82.164686 84.165069 
L 82.274881 85.223289 
L 82.390269 86.281509 
L 82.534793 87.339729 
L 82.730212 88.39795 
L 82.987749 89.45617 
L 83.310126 90.51439 
L 83.700007 91.57261 
L 84.16348 92.630831 
L 84.701953 93.689051 
L 85.300872 94.747271 
L 85.935779 95.805492 
L 86.605613 96.863712 
L 87.375885 97.921932 
L 88.409284 98.980152 
L 89.99165 100.038373 
L 92.572104 101.096593 
L 96.751562 102.154813 
L 103.002239 103.213034 
L 110.950895 104.271254 
L 118.634725 105.329474 
L 122.823864 106.387694 
L 120.961977 107.445915 
L 113.310207 108.504135 
L 102.991221 109.562355 
L 93.706049 110.620575 
L 87.444364 111.678796 
L 84.107037 112.737016 
L 82.601722 113.795236 
L 81.919995 114.853457 
L 81.507113 115.911677 
L 81.164235 116.969897 
L 80.86928 118.028117 
L 80.660723 119.086338 
L 80.571726 120.144558 
L 80.590719 121.202778 
L 80.654074 122.260998 
L 80.680379 123.319219 
z
" style="fill:#ff7f0e;fill-opacity:0.3;"/>
   </g>
   <g id="matplotlib.axis_1"/>
   <g id="matplotlib.axis_2">
    <g id="ytick_1">
     <g id="line2d_1">
      <defs>
       <path d="M 0 0 
L -3.5 0 
" id="m953c03d37f" style="stroke:#000000;stroke-width:0.8;"/>
      </defs>
      <g>
       <use style="stroke:#000000;stroke-width:0.8;" x="33.2875" xlink:href="#m953c03d37f" y="123.319219"/>
      </g>
     </g>
     <g id="text_1">
      <!-- 0 -->
      <defs>
       <path d="M 31.78125 66.40625 
Q 24.171875 66.40625 20.328125 58.90625 
Q 16.5 51.421875 16.5 36.375 
Q 16.5 21.390625 20.328125 13.890625 
Q 24.171875 6.390625 31.78125 6.390625 
Q 39.453125 6.390625 43.28125 13.890625 
Q 47.125 21.390625 47.125 36.375 
Q 47.125 51.421875 43.28125 58.90625 
Q 39.453125 66.40625 31.78125 66.40625 
z
M 31.78125 74.21875 
Q 44.046875 74.21875 50.515625 64.515625 
Q 56.984375 54.828125 56.984375 36.375 
Q 56.984375 17.96875 50.515625 8.265625 
Q 44.046875 -1.421875 31.78125 -1.421875 
Q 19.53125 -1.421875 13.0625 8.265625 
Q 6.59375 17.96875 6.59375 36.375 
Q 6.59375 54.828125 13.0625 64.515625 
Q 19.53125 74.21875 31.78125 74.21875 
z
" id="DejaVuSans-30"/>
      </defs>
      <g transform="translate(19.925 127.118437)scale(0.1 -0.1)">
       <use xlink:href="#DejaVuSans-30"/>
      </g>
     </g>
    </g>
    <g id="ytick_2">
     <g id="line2d_2">
      <g>
       <use style="stroke:#000000;stroke-width:0.8;" x="33.2875" xlink:href="#m953c03d37f" y="67.159219"/>
      </g>
     </g>
     <g id="text_2">
      <!-- 150 -->
      <defs>
       <path d="M 12.40625 8.296875 
L 28.515625 8.296875 
L 28.515625 63.921875 
L 10.984375 60.40625 
L 10.984375 69.390625 
L 28.421875 72.90625 
L 38.28125 72.90625 
L 38.28125 8.296875 
L 54.390625 8.296875 
L 54.390625 0 
L 12.40625 0 
z
" id="DejaVuSans-31"/>
       <path d="M 10.796875 72.90625 
L 49.515625 72.90625 
L 49.515625 64.59375 
L 19.828125 64.59375 
L 19.828125 46.734375 
Q 21.96875 47.46875 24.109375 47.828125 
Q 26.265625 48.1875 28.421875 48.1875 
Q 40.625 48.1875 47.75 41.5 
Q 54.890625 34.8125 54.890625 23.390625 
Q 54.890625 11.625 47.5625 5.09375 
Q 40.234375 -1.421875 26.90625 -1.421875 
Q 22.3125 -1.421875 17.546875 -0.640625 
Q 12.796875 0.140625 7.71875 1.703125 
L 7.71875 11.625 
Q 12.109375 9.234375 16.796875 8.0625 
Q 21.484375 6.890625 26.703125 6.890625 
Q 35.15625 6.890625 40.078125 11.328125 
Q 45.015625 15.765625 45.015625 23.390625 
Q 45.015625 31 40.078125 35.4375 
Q 35.15625 39.890625 26.703125 39.890625 
Q 22.75 39.890625 18.8125 39.015625 
Q 14.890625 38.140625 10.796875 36.28125 
z
" id="DejaVuSans-35"/>
      </defs>
      <g transform="translate(7.2 70.958437)scale(0.1 -0.1)">
       <use xlink:href="#DejaVuSans-31"/>
       <use x="63.623047" xlink:href="#DejaVuSans-35"/>
       <use x="127.246094" xlink:href="#DejaVuSans-30"/>
      </g>
     </g>
    </g>
    <g id="ytick_3">
     <g id="line2d_3">
      <g>
       <use style="stroke:#000000;stroke-width:0.8;" x="33.2875" xlink:href="#m953c03d37f" y="10.999219"/>
      </g>
     </g>
     <g id="text_3">
      <!-- 300 -->
      <defs>
       <path d="M 40.578125 39.3125 
Q 47.65625 37.796875 51.625 33 
Q 55.609375 28.21875 55.609375 21.1875 
Q 55.609375 10.40625 48.1875 4.484375 
Q 40.765625 -1.421875 27.09375 -1.421875 
Q 22.515625 -1.421875 17.65625 -0.515625 
Q 12.796875 0.390625 7.625 2.203125 
L 7.625 11.71875 
Q 11.71875 9.328125 16.59375 8.109375 
Q 21.484375 6.890625 26.8125 6.890625 
Q 36.078125 6.890625 40.9375 10.546875 
Q 45.796875 14.203125 45.796875 21.1875 
Q 45.796875 27.640625 41.28125 31.265625 
Q 36.765625 34.90625 28.71875 34.90625 
L 20.21875 34.90625 
L 20.21875 43.015625 
L 29.109375 43.015625 
Q 36.375 43.015625 40.234375 45.921875 
Q 44.09375 48.828125 44.09375 54.296875 
Q 44.09375 59.90625 40.109375 62.90625 
Q 36.140625 65.921875 28.71875 65.921875 
Q 24.65625 65.921875 20.015625 65.03125 
Q 15.375 64.15625 9.8125 62.3125 
L 9.8125 71.09375 
Q 15.4375 72.65625 20.34375 73.4375 
Q 25.25 74.21875 29.59375 74.21875 
Q 40.828125 74.21875 47.359375 69.109375 
Q 53.90625 64.015625 53.90625 55.328125 
Q 53.90625 49.265625 50.4375 45.09375 
Q 46.96875 40.921875 40.578125 39.3125 
z
" id="DejaVuSans-33"/>
      </defs>
      <g transform="translate(7.2 14.798437)scale(0.1 -0.1)">
       <use xlink:href="#DejaVuSans-33"/>
       <use x="63.623047" xlink:href="#DejaVuSans-30"/>
       <use x="127.246094" xlink:href="#DejaVuSans-30"/>
      </g>
     </g>
    </g>
   </g>
   <g id="patch_3">
    <path d="M 33.2875 123.319219 
L 33.2875 10.999219 
" style="fill:none;stroke:#000000;stroke-linecap:square;stroke-linejoin:miter;stroke-width:0.8;"/>
   </g>
   <g id="patch_4">
    <path d="M 33.2875 123.319219 
L 127.0875 123.319219 
" style="fill:none;stroke:#000000;stroke-linecap:square;stroke-linejoin:miter;stroke-width:0.8;"/>
   </g>
  </g>
 </g>
 <defs>
  <clipPath id="p976ae80043">
   <rect height="112.32" width="93.8" x="33.2875" y="10.999219"/>
  </clipPath>
 </defs>
</svg>
