<?xml version="1.0" encoding="utf-8" standalone="no"?>
<!DOCTYPE svg PUBLIC "-//W3C//DTD SVG 1.1//EN"
  "http://www.w3.org/Graphics/SVG/1.1/DTD/svg11.dtd">
<!-- Created with matplotlib (http://matplotlib.org/) -->
<svg height="136pt" version="1.1" viewBox="0 0 101 136" width="101pt" xmlns="http://www.w3.org/2000/svg" xmlns:xlink="http://www.w3.org/1999/xlink">
 <defs>
  <style type="text/css">
*{stroke-linecap:butt;stroke-linejoin:round;}
  </style>
 </defs>
 <g id="figure_1">
  <g id="patch_1">
   <path d="M 0 136.398125 
L 101.7875 136.398125 
L 101.7875 0 
L 0 0 
z
" style="fill:#ffffff;"/>
  </g>
  <g id="axes_1">
   <g id="patch_2">
    <path d="M 33.2875 123.319219 
L 91.0875 123.319219 
L 91.0875 10.999219 
L 33.2875 10.999219 
z
" style="fill:#ffffff;"/>
   </g>
   <g id="PolyCollection_1">
    <path clip-path="url(#pbf102e2e8c)" d="M 63.431746 123.319219 
L 60.943254 123.319219 
L 60.736705 122.204324 
L 60.483274 121.089429 
L 60.145471 119.974535 
L 59.694875 118.85964 
L 59.124689 117.744746 
L 58.454312 116.629851 
L 57.724111 115.514956 
L 56.983346 114.400062 
L 56.276808 113.285167 
L 55.635346 112.170272 
L 55.072799 111.055378 
L 54.588781 109.940483 
L 54.174697 108.825588 
L 53.819919 107.710694 
L 53.515965 106.595799 
L 53.257981 105.480904 
L 53.044046 104.36601 
L 52.873374 103.251115 
L 52.744387 102.13622 
L 52.653335 101.021326 
L 52.593806 99.906431 
L 52.55726 98.791536 
L 52.534358 97.676642 
L 52.516574 96.561747 
L 52.497364 95.446853 
L 52.472518 94.331958 
L 52.43988 93.217063 
L 52.39903 92.102169 
L 52.351393 90.987274 
L 52.300638 89.872379 
L 52.252677 88.757485 
L 52.214615 87.64259 
L 52.192563 86.527695 
L 52.188997 85.412801 
L 52.200825 84.297906 
L 52.219254 83.183011 
L 52.231954 82.068117 
L 52.227014 80.953222 
L 52.197242 79.838327 
L 52.142944 78.723433 
L 52.07187 77.608538 
L 51.996445 76.493643 
L 51.929722 75.378749 
L 51.881898 74.263854 
L 51.858448 73.14896 
L 51.859584 72.034065 
L 51.880142 70.91917 
L 51.909405 69.804276 
L 51.931428 68.689381 
L 51.926818 67.574486 
L 51.876373 66.459592 
L 51.765713 65.344697 
L 51.589278 64.229802 
L 51.35222 63.114908 
L 51.069627 62.000013 
L 50.763266 60.885118 
L 50.456471 59.770224 
L 50.168045 58.655329 
L 49.906621 57.540434 
L 49.667504 56.42554 
L 49.433831 55.310645 
L 49.182448 54.195751 
L 48.892633 53.080856 
L 48.554057 51.965961 
L 48.170325 50.851067 
L 47.756428 49.736172 
L 47.331479 48.621277 
L 46.910524 47.506383 
L 46.499651 46.391488 
L 46.096523 45.276593 
L 45.695118 44.161699 
L 45.290979 43.046804 
L 44.883364 41.931909 
L 44.473142 40.817015 
L 44.058367 39.70212 
L 43.630826 38.587225 
L 43.175977 37.472331 
L 42.676347 36.357436 
L 42.116483 35.242541 
L 41.487081 34.127647 
L 40.786946 33.012752 
L 40.023217 31.897858 
L 39.211518 30.782963 
L 38.377741 29.668068 
L 37.561907 28.553174 
L 36.822795 27.438279 
L 36.240634 26.323384 
L 35.914773 25.20849 
L 35.954185 24.093595 
L 36.460746 22.9787 
L 37.508008 21.863806 
L 39.120641 20.748911 
L 41.260579 19.634016 
L 43.824676 18.519122 
L 46.655687 17.404227 
L 49.56488 16.289332 
L 52.361508 15.174438 
L 54.882484 14.059543 
L 57.015268 12.944649 
L 67.359732 12.944649 
L 67.359732 12.944649 
L 69.492516 14.059543 
L 72.013492 15.174438 
L 74.81012 16.289332 
L 77.719313 17.404227 
L 80.550324 18.519122 
L 83.114421 19.634016 
L 85.254359 20.748911 
L 86.866992 21.863806 
L 87.914254 22.9787 
L 88.420815 24.093595 
L 88.460227 25.20849 
L 88.134366 26.323384 
L 87.552205 27.438279 
L 86.813093 28.553174 
L 85.997259 29.668068 
L 85.163482 30.782963 
L 84.351783 31.897858 
L 83.588054 33.012752 
L 82.887919 34.127647 
L 82.258517 35.242541 
L 81.698653 36.357436 
L 81.199023 37.472331 
L 80.744174 38.587225 
L 80.316633 39.70212 
L 79.901858 40.817015 
L 79.491636 41.931909 
L 79.084021 43.046804 
L 78.679882 44.161699 
L 78.278477 45.276593 
L 77.875349 46.391488 
L 77.464476 47.506383 
L 77.043521 48.621277 
L 76.618572 49.736172 
L 76.204675 50.851067 
L 75.820943 51.965961 
L 75.482367 53.080856 
L 75.192552 54.195751 
L 74.941169 55.310645 
L 74.707496 56.42554 
L 74.468379 57.540434 
L 74.206955 58.655329 
L 73.918529 59.770224 
L 73.611734 60.885118 
L 73.305373 62.000013 
L 73.02278 63.114908 
L 72.785722 64.229802 
L 72.609287 65.344697 
L 72.498627 66.459592 
L 72.448182 67.574486 
L 72.443572 68.689381 
L 72.465595 69.804276 
L 72.494858 70.91917 
L 72.515416 72.034065 
L 72.516552 73.14896 
L 72.493102 74.263854 
L 72.445278 75.378749 
L 72.378555 76.493643 
L 72.30313 77.608538 
L 72.232056 78.723433 
L 72.177758 79.838327 
L 72.147986 80.953222 
L 72.143046 82.068117 
L 72.155746 83.183011 
L 72.174175 84.297906 
L 72.186003 85.412801 
L 72.182437 86.527695 
L 72.160385 87.64259 
L 72.122323 88.757485 
L 72.074362 89.872379 
L 72.023607 90.987274 
L 71.97597 92.102169 
L 71.93512 93.217063 
L 71.902482 94.331958 
L 71.877636 95.446853 
L 71.858426 96.561747 
L 71.840642 97.676642 
L 71.81774 98.791536 
L 71.781194 99.906431 
L 71.721665 101.021326 
L 71.630613 102.13622 
L 71.501626 103.251115 
L 71.330954 104.36601 
L 71.117019 105.480904 
L 70.859035 106.595799 
L 70.555081 107.710694 
L 70.200303 108.825588 
L 69.786219 109.940483 
L 69.302201 111.055378 
L 68.739654 112.170272 
L 68.098192 113.285167 
L 67.391654 114.400062 
L 66.650889 115.514956 
L 65.920688 116.629851 
L 65.250311 117.744746 
L 64.680125 118.85964 
L 64.229529 119.974535 
L 63.891726 121.089429 
L 63.638295 122.204324 
L 63.431746 123.319219 
z
" style="fill:#1f77b4;fill-opacity:0.3;"/>
   </g>
   <g id="matplotlib.axis_1"/>
   <g id="matplotlib.axis_2">
    <g id="ytick_1">
     <g id="line2d_1">
      <defs>
       <path d="M 0 0 
L -3.5 0 
" id="m71f6f1b211" style="stroke:#000000;stroke-width:0.8;"/>
      </defs>
      <g>
       <use style="stroke:#000000;stroke-width:0.8;" x="33.2875" xlink:href="#m71f6f1b211" y="123.319219"/>
      </g>
     </g>
     <g id="text_1">
      <!-- 0 -->
      <defs>
       <path d="M 31.78125 66.40625 
Q 24.171875 66.40625 20.328125 58.90625 
Q 16.5 51.421875 16.5 36.375 
Q 16.5 21.390625 20.328125 13.890625 
Q 24.171875 6.390625 31.78125 6.390625 
Q 39.453125 6.390625 43.28125 13.890625 
Q 47.125 21.390625 47.125 36.375 
Q 47.125 51.421875 43.28125 58.90625 
Q 39.453125 66.40625 31.78125 66.40625 
z
M 31.78125 74.21875 
Q 44.046875 74.21875 50.515625 64.515625 
Q 56.984375 54.828125 56.984375 36.375 
Q 56.984375 17.96875 50.515625 8.265625 
Q 44.046875 -1.421875 31.78125 -1.421875 
Q 19.53125 -1.421875 13.0625 8.265625 
Q 6.59375 17.96875 6.59375 36.375 
Q 6.59375 54.828125 13.0625 64.515625 
Q 19.53125 74.21875 31.78125 74.21875 
z
" id="DejaVuSans-30"/>
      </defs>
      <g transform="translate(19.925 127.118437)scale(0.1 -0.1)">
       <use xlink:href="#DejaVuSans-30"/>
      </g>
     </g>
    </g>
    <g id="ytick_2">
     <g id="line2d_2">
      <g>
       <use style="stroke:#000000;stroke-width:0.8;" x="33.2875" xlink:href="#m71f6f1b211" y="67.159219"/>
      </g>
     </g>
     <g id="text_2">
      <!-- 150 -->
      <defs>
       <path d="M 12.40625 8.296875 
L 28.515625 8.296875 
L 28.515625 63.921875 
L 10.984375 60.40625 
L 10.984375 69.390625 
L 28.421875 72.90625 
L 38.28125 72.90625 
L 38.28125 8.296875 
L 54.390625 8.296875 
L 54.390625 0 
L 12.40625 0 
z
" id="DejaVuSans-31"/>
       <path d="M 10.796875 72.90625 
L 49.515625 72.90625 
L 49.515625 64.59375 
L 19.828125 64.59375 
L 19.828125 46.734375 
Q 21.96875 47.46875 24.109375 47.828125 
Q 26.265625 48.1875 28.421875 48.1875 
Q 40.625 48.1875 47.75 41.5 
Q 54.890625 34.8125 54.890625 23.390625 
Q 54.890625 11.625 47.5625 5.09375 
Q 40.234375 -1.421875 26.90625 -1.421875 
Q 22.3125 -1.421875 17.546875 -0.640625 
Q 12.796875 0.140625 7.71875 1.703125 
L 7.71875 11.625 
Q 12.109375 9.234375 16.796875 8.0625 
Q 21.484375 6.890625 26.703125 6.890625 
Q 35.15625 6.890625 40.078125 11.328125 
Q 45.015625 15.765625 45.015625 23.390625 
Q 45.015625 31 40.078125 35.4375 
Q 35.15625 39.890625 26.703125 39.890625 
Q 22.75 39.890625 18.8125 39.015625 
Q 14.890625 38.140625 10.796875 36.28125 
z
" id="DejaVuSans-35"/>
      </defs>
      <g transform="translate(7.2 70.958437)scale(0.1 -0.1)">
       <use xlink:href="#DejaVuSans-31"/>
       <use x="63.623047" xlink:href="#DejaVuSans-35"/>
       <use x="127.246094" xlink:href="#DejaVuSans-30"/>
      </g>
     </g>
    </g>
    <g id="ytick_3">
     <g id="line2d_3">
      <g>
       <use style="stroke:#000000;stroke-width:0.8;" x="33.2875" xlink:href="#m71f6f1b211" y="10.999219"/>
      </g>
     </g>
     <g id="text_3">
      <!-- 300 -->
      <defs>
       <path d="M 40.578125 39.3125 
Q 47.65625 37.796875 51.625 33 
Q 55.609375 28.21875 55.609375 21.1875 
Q 55.609375 10.40625 48.1875 4.484375 
Q 40.765625 -1.421875 27.09375 -1.421875 
Q 22.515625 -1.421875 17.65625 -0.515625 
Q 12.796875 0.390625 7.625 2.203125 
L 7.625 11.71875 
Q 11.71875 9.328125 16.59375 8.109375 
Q 21.484375 6.890625 26.8125 6.890625 
Q 36.078125 6.890625 40.9375 10.546875 
Q 45.796875 14.203125 45.796875 21.1875 
Q 45.796875 27.640625 41.28125 31.265625 
Q 36.765625 34.90625 28.71875 34.90625 
L 20.21875 34.90625 
L 20.21875 43.015625 
L 29.109375 43.015625 
Q 36.375 43.015625 40.234375 45.921875 
Q 44.09375 48.828125 44.09375 54.296875 
Q 44.09375 59.90625 40.109375 62.90625 
Q 36.140625 65.921875 28.71875 65.921875 
Q 24.65625 65.921875 20.015625 65.03125 
Q 15.375 64.15625 9.8125 62.3125 
L 9.8125 71.09375 
Q 15.4375 72.65625 20.34375 73.4375 
Q 25.25 74.21875 29.59375 74.21875 
Q 40.828125 74.21875 47.359375 69.109375 
Q 53.90625 64.015625 53.90625 55.328125 
Q 53.90625 49.265625 50.4375 45.09375 
Q 46.96875 40.921875 40.578125 39.3125 
z
" id="DejaVuSans-33"/>
      </defs>
      <g transform="translate(7.2 14.798437)scale(0.1 -0.1)">
       <use xlink:href="#DejaVuSans-33"/>
       <use x="63.623047" xlink:href="#DejaVuSans-30"/>
       <use x="127.246094" xlink:href="#DejaVuSans-30"/>
      </g>
     </g>
    </g>
   </g>
   <g id="patch_3">
    <path d="M 33.2875 123.319219 
L 33.2875 10.999219 
" style="fill:none;stroke:#000000;stroke-linecap:square;stroke-linejoin:miter;stroke-width:0.8;"/>
   </g>
   <g id="patch_4">
    <path d="M 33.2875 123.319219 
L 91.0875 123.319219 
" style="fill:none;stroke:#000000;stroke-linecap:square;stroke-linejoin:miter;stroke-width:0.8;"/>
   </g>
  </g>
 </g>
 <defs>
  <clipPath id="pbf102e2e8c">
   <rect height="112.32" width="57.8" x="33.2875" y="10.999219"/>
  </clipPath>
 </defs>
</svg>
