<?xml version="1.0" encoding="utf-8" standalone="no"?>
<!DOCTYPE svg PUBLIC "-//W3C//DTD SVG 1.1//EN"
  "http://www.w3.org/Graphics/SVG/1.1/DTD/svg11.dtd">
<!-- Created with matplotlib (http://matplotlib.org/) -->
<svg height="136pt" version="1.1" viewBox="0 0 137 136" width="137pt" xmlns="http://www.w3.org/2000/svg" xmlns:xlink="http://www.w3.org/1999/xlink">
 <defs>
  <style type="text/css">
*{stroke-linecap:butt;stroke-linejoin:round;}
  </style>
 </defs>
 <g id="figure_1">
  <g id="patch_1">
   <path d="M 0 136.398125 
L 137.7875 136.398125 
L 137.7875 0 
L 0 0 
z
" style="fill:#ffffff;"/>
  </g>
  <g id="axes_1">
   <g id="patch_2">
    <path d="M 33.2875 123.319219 
L 127.0875 123.319219 
L 127.0875 10.999219 
L 33.2875 10.999219 
z
" style="fill:#ffffff;"/>
   </g>
   <g id="PolyCollection_1">
    <path clip-path="url(#p0037f8641c)" d="M 80.411964 123.319219 
L 78.722564 123.319219 
L 78.79571 123.069619 
L 78.993954 122.820019 
L 79.263622 122.570419 
L 79.541994 122.320819 
L 79.780404 122.071219 
L 79.955759 121.821619 
L 80.068425 121.572019 
L 80.132272 121.322419 
L 80.164372 121.072819 
L 80.178732 120.823219 
L 80.184402 120.573619 
L 80.186185 120.324019 
L 80.186031 120.074419 
L 80.184066 119.824819 
L 80.178966 119.575219 
L 80.167859 119.325619 
L 80.146155 119.076019 
L 80.107836 118.826419 
L 80.046667 118.576819 
L 79.958377 118.327219 
L 79.843161 118.077619 
L 79.707248 117.828019 
L 79.562347 117.578419 
L 79.422722 117.328819 
L 79.301014 117.079219 
L 79.204721 116.829619 
L 79.134892 116.580019 
L 79.087312 116.330419 
L 79.055184 116.080819 
L 79.031835 115.831219 
L 79.012412 115.581619 
L 78.994351 115.332019 
L 78.976989 115.082419 
L 78.960849 114.832819 
L 78.946968 114.583219 
L 78.93645 114.333619 
L 78.930201 114.084019 
L 78.928755 113.834419 
L 78.932033 113.584819 
L 78.939032 113.335219 
L 78.947646 113.085619 
L 78.954948 112.836019 
L 78.958066 112.586419 
L 78.955404 112.336819 
L 78.947533 112.087219 
L 78.937083 111.837619 
L 78.927535 111.588019 
L 78.921524 111.338419 
L 78.919695 111.088819 
L 78.920815 110.83922 
L 78.923015 110.58962 
L 78.925276 110.34002 
L 78.928155 110.09042 
L 78.933314 109.84082 
L 78.942286 109.59122 
L 78.955388 109.34162 
L 78.971518 109.09202 
L 78.988875 108.84242 
L 79.006024 108.59282 
L 79.022576 108.34322 
L 79.039121 108.09362 
L 79.056531 107.84402 
L 79.075091 107.59442 
L 79.093937 107.34482 
L 79.111093 107.09522 
L 79.124065 106.84562 
L 79.130691 106.59602 
L 79.129849 106.34642 
L 79.121768 106.09682 
L 79.107898 105.84722 
L 79.090508 105.59762 
L 79.07218 105.34802 
L 79.055365 105.09842 
L 79.042071 104.84882 
L 79.033705 104.59922 
L 79.030975 104.34962 
L 79.033799 104.10002 
L 79.041182 103.85042 
L 79.051194 103.60082 
L 79.06125 103.35122 
L 79.068797 103.10162 
L 79.072278 102.85202 
L 79.071891 102.60242 
L 79.069585 102.35282 
L 79.067829 102.10322 
L 79.066739 101.85362 
L 79.058475 101.60402 
L 79.015999 101.35442 
L 78.871346 101.10482 
L 78.479995 100.85522 
L 77.578261 100.60562 
L 75.762716 100.35602 
L 72.544769 100.10642 
L 67.531032 99.85682 
L 60.718473 99.60722 
L 52.778432 99.35762 
L 45.114102 99.10802 
L 39.526774 98.85842 
L 37.551136 98.60882 
L 80.411964 98.60882 
L 80.411964 98.60882 
L 80.411964 98.85842 
L 80.411964 99.10802 
L 80.411964 99.35762 
L 80.411964 99.60722 
L 80.411964 99.85682 
L 80.411964 100.10642 
L 80.411964 100.35602 
L 80.411964 100.60562 
L 80.411964 100.85522 
L 80.411964 101.10482 
L 80.411964 101.35442 
L 80.411964 101.60402 
L 80.411964 101.85362 
L 80.411964 102.10322 
L 80.411964 102.35282 
L 80.411964 102.60242 
L 80.411964 102.85202 
L 80.411964 103.10162 
L 80.411964 103.35122 
L 80.411964 103.60082 
L 80.411964 103.85042 
L 80.411964 104.10002 
L 80.411964 104.34962 
L 80.411964 104.59922 
L 80.411964 104.84882 
L 80.411964 105.09842 
L 80.411964 105.34802 
L 80.411964 105.59762 
L 80.411964 105.84722 
L 80.411964 106.09682 
L 80.411964 106.34642 
L 80.411964 106.59602 
L 80.411964 106.84562 
L 80.411964 107.09522 
L 80.411964 107.34482 
L 80.411964 107.59442 
L 80.411964 107.84402 
L 80.411964 108.09362 
L 80.411964 108.34322 
L 80.411964 108.59282 
L 80.411964 108.84242 
L 80.411964 109.09202 
L 80.411964 109.34162 
L 80.411964 109.59122 
L 80.411964 109.84082 
L 80.411964 110.09042 
L 80.411964 110.34002 
L 80.411964 110.58962 
L 80.411964 110.83922 
L 80.411964 111.088819 
L 80.411964 111.338419 
L 80.411964 111.588019 
L 80.411964 111.837619 
L 80.411964 112.087219 
L 80.411964 112.336819 
L 80.411964 112.586419 
L 80.411964 112.836019 
L 80.411964 113.085619 
L 80.411964 113.335219 
L 80.411964 113.584819 
L 80.411964 113.834419 
L 80.411964 114.084019 
L 80.411964 114.333619 
L 80.411964 114.583219 
L 80.411964 114.832819 
L 80.411964 115.082419 
L 80.411964 115.332019 
L 80.411964 115.581619 
L 80.411964 115.831219 
L 80.411964 116.080819 
L 80.411964 116.330419 
L 80.411964 116.580019 
L 80.411964 116.829619 
L 80.411964 117.079219 
L 80.411964 117.328819 
L 80.411964 117.578419 
L 80.411964 117.828019 
L 80.411964 118.077619 
L 80.411964 118.327219 
L 80.328333 118.576819 
L 80.267164 118.826419 
L 80.228845 119.076019 
L 80.207141 119.325619 
L 80.196034 119.575219 
L 80.190934 119.824819 
L 80.188969 120.074419 
L 80.188815 120.324019 
L 80.190598 120.573619 
L 80.196268 120.823219 
L 80.210628 121.072819 
L 80.242728 121.322419 
L 80.306575 121.572019 
L 80.411964 121.821619 
L 80.411964 122.071219 
L 80.411964 122.320819 
L 80.411964 122.570419 
L 80.411964 122.820019 
L 80.411964 123.069619 
L 80.411964 123.319219 
z
" style="fill:#1f77b4;fill-opacity:0.3;"/>
   </g>
   <g id="PolyCollection_2">
    <path clip-path="url(#p0037f8641c)" d="M 80.779332 123.319219 
L 80.193849 123.319219 
L 80.193849 122.252108 
L 80.193849 121.184998 
L 80.193849 120.117888 
L 80.193849 119.050777 
L 80.193849 117.983667 
L 80.193849 116.916557 
L 80.193849 115.849446 
L 80.193849 114.782336 
L 80.193849 113.715225 
L 80.193849 112.648115 
L 80.193849 111.581005 
L 80.193849 110.513894 
L 80.193849 109.446784 
L 80.193849 108.379674 
L 80.193849 107.312563 
L 80.193849 106.245453 
L 80.193849 105.178343 
L 80.193849 104.111232 
L 80.193849 103.044122 
L 80.193849 101.977011 
L 80.193849 100.909901 
L 80.193849 99.842791 
L 80.193849 98.77568 
L 80.193849 97.70857 
L 80.193849 96.64146 
L 80.193849 95.574349 
L 80.193849 94.507239 
L 80.193849 93.440128 
L 80.193849 92.373018 
L 80.193849 91.305908 
L 80.193849 90.238797 
L 80.193849 89.171687 
L 80.193849 88.104577 
L 80.193849 87.037466 
L 80.193849 85.970356 
L 80.193849 84.903246 
L 80.193849 83.836135 
L 80.193849 82.769025 
L 80.193849 81.701914 
L 80.193849 80.634804 
L 80.193849 79.567694 
L 80.193849 78.500583 
L 80.193849 77.433473 
L 80.193849 76.366363 
L 80.193849 75.299252 
L 80.193849 74.232142 
L 80.193849 73.165031 
L 80.193849 72.097921 
L 80.193849 71.030811 
L 80.193849 69.9637 
L 80.193849 68.89659 
L 80.193849 67.82948 
L 80.193849 66.762369 
L 80.193849 65.695259 
L 80.193849 64.628149 
L 80.193849 63.561038 
L 80.193849 62.493928 
L 80.193849 61.426817 
L 80.193849 60.359707 
L 80.193849 59.292597 
L 80.193849 58.225486 
L 80.193849 57.158376 
L 80.193849 56.091266 
L 80.193849 55.024155 
L 80.193849 53.957045 
L 80.193849 52.889934 
L 80.193849 51.822824 
L 80.193849 50.755714 
L 80.193849 49.688603 
L 80.193849 48.621493 
L 80.193849 47.554383 
L 80.193849 46.487272 
L 80.193849 45.420162 
L 80.193849 44.353052 
L 80.193849 43.285941 
L 80.193849 42.218831 
L 80.193849 41.15172 
L 80.193849 40.08461 
L 80.193849 39.0175 
L 80.193849 37.950389 
L 80.193849 36.883279 
L 80.193849 35.816169 
L 80.193849 34.749058 
L 80.193849 33.681948 
L 80.193849 32.614838 
L 80.193849 31.547727 
L 80.193849 30.480617 
L 80.193849 29.413506 
L 80.193849 28.346396 
L 80.193849 27.279286 
L 80.193849 26.212175 
L 80.193849 25.145065 
L 80.193849 24.077955 
L 80.193849 23.010844 
L 80.193849 21.943734 
L 80.193849 20.876623 
L 80.193849 19.809513 
L 80.193849 18.742403 
L 80.193849 17.675292 
L 80.292777 17.675292 
L 80.292777 17.675292 
L 80.359545 18.742403 
L 80.449484 19.809513 
L 80.558625 20.876623 
L 80.677172 21.943734 
L 80.793885 23.010844 
L 80.900415 24.077955 
L 80.991071 25.145065 
L 81.060747 26.212175 
L 81.106898 27.279286 
L 81.13362 28.346396 
L 81.149351 29.413506 
L 81.158471 30.480617 
L 81.159196 31.547727 
L 81.153735 32.614838 
L 81.157171 33.681948 
L 81.188787 34.749058 
L 81.252028 35.816169 
L 81.327714 36.883279 
L 81.391813 37.950389 
L 81.438652 39.0175 
L 81.48255 40.08461 
L 81.537331 41.15172 
L 81.600031 42.218831 
L 81.657344 43.285941 
L 81.702699 44.353052 
L 81.740548 45.420162 
L 81.77469 46.487272 
L 81.798445 47.554383 
L 81.799681 48.621493 
L 81.773711 49.688603 
L 81.729119 50.755714 
L 81.682342 51.822824 
L 81.648508 52.889934 
L 81.634939 53.957045 
L 81.638475 55.024155 
L 81.647886 56.091266 
L 81.651613 57.158376 
L 81.645146 58.225486 
L 81.63143 59.292597 
L 81.615572 60.359707 
L 81.600875 61.426817 
L 81.589723 62.493928 
L 81.58669 63.561038 
L 81.599962 64.628149 
L 81.639172 65.695259 
L 81.70997 66.762369 
L 81.808092 67.82948 
L 81.918267 68.89659 
L 82.021464 69.9637 
L 82.10649 71.030811 
L 82.177288 72.097921 
L 82.251541 73.165031 
L 82.352449 74.232142 
L 82.498283 75.299252 
L 82.696384 76.366363 
L 82.947065 77.433473 
L 83.253457 78.500583 
L 83.625324 79.567694 
L 84.069936 80.634804 
L 84.576435 81.701914 
L 85.108749 82.769025 
L 85.618572 83.836135 
L 86.073935 84.903246 
L 86.483927 85.970356 
L 86.904216 87.037466 
L 87.428245 88.104577 
L 88.185096 89.171687 
L 89.365465 90.238797 
L 91.280918 91.305908 
L 94.413888 92.373018 
L 99.320566 93.440128 
L 106.190423 94.507239 
L 114.104864 95.574349 
L 120.65272 96.64146 
L 122.823864 97.70857 
L 119.0435 98.77568 
L 110.586144 99.842791 
L 100.7796 100.909901 
L 92.70612 101.977011 
L 87.605569 103.044122 
L 85.03677 104.111232 
L 83.958116 105.178343 
L 83.535297 106.245453 
L 83.335596 107.312563 
L 83.197005 108.379674 
L 83.070292 109.446784 
L 82.934999 110.513894 
L 82.775931 111.581005 
L 82.582845 112.648115 
L 82.349211 113.715225 
L 82.068331 114.782336 
L 81.738078 115.849446 
L 81.377171 116.916557 
L 81.036518 117.983667 
L 80.785183 119.050777 
L 80.671483 120.117888 
L 80.685009 121.184998 
L 80.752298 122.252108 
L 80.779332 123.319219 
z
" style="fill:#ff7f0e;fill-opacity:0.3;"/>
   </g>
   <g id="matplotlib.axis_1"/>
   <g id="matplotlib.axis_2">
    <g id="ytick_1">
     <g id="line2d_1">
      <defs>
       <path d="M 0 0 
L -3.5 0 
" id="m9bc375fba6" style="stroke:#000000;stroke-width:0.8;"/>
      </defs>
      <g>
       <use style="stroke:#000000;stroke-width:0.8;" x="33.2875" xlink:href="#m9bc375fba6" y="123.319219"/>
      </g>
     </g>
     <g id="text_1">
      <!-- 0 -->
      <defs>
       <path d="M 31.78125 66.40625 
Q 24.171875 66.40625 20.328125 58.90625 
Q 16.5 51.421875 16.5 36.375 
Q 16.5 21.390625 20.328125 13.890625 
Q 24.171875 6.390625 31.78125 6.390625 
Q 39.453125 6.390625 43.28125 13.890625 
Q 47.125 21.390625 47.125 36.375 
Q 47.125 51.421875 43.28125 58.90625 
Q 39.453125 66.40625 31.78125 66.40625 
z
M 31.78125 74.21875 
Q 44.046875 74.21875 50.515625 64.515625 
Q 56.984375 54.828125 56.984375 36.375 
Q 56.984375 17.96875 50.515625 8.265625 
Q 44.046875 -1.421875 31.78125 -1.421875 
Q 19.53125 -1.421875 13.0625 8.265625 
Q 6.59375 17.96875 6.59375 36.375 
Q 6.59375 54.828125 13.0625 64.515625 
Q 19.53125 74.21875 31.78125 74.21875 
z
" id="DejaVuSans-30"/>
      </defs>
      <g transform="translate(19.925 127.118437)scale(0.1 -0.1)">
       <use xlink:href="#DejaVuSans-30"/>
      </g>
     </g>
    </g>
    <g id="ytick_2">
     <g id="line2d_2">
      <g>
       <use style="stroke:#000000;stroke-width:0.8;" x="33.2875" xlink:href="#m9bc375fba6" y="67.159219"/>
      </g>
     </g>
     <g id="text_2">
      <!-- 150 -->
      <defs>
       <path d="M 12.40625 8.296875 
L 28.515625 8.296875 
L 28.515625 63.921875 
L 10.984375 60.40625 
L 10.984375 69.390625 
L 28.421875 72.90625 
L 38.28125 72.90625 
L 38.28125 8.296875 
L 54.390625 8.296875 
L 54.390625 0 
L 12.40625 0 
z
" id="DejaVuSans-31"/>
       <path d="M 10.796875 72.90625 
L 49.515625 72.90625 
L 49.515625 64.59375 
L 19.828125 64.59375 
L 19.828125 46.734375 
Q 21.96875 47.46875 24.109375 47.828125 
Q 26.265625 48.1875 28.421875 48.1875 
Q 40.625 48.1875 47.75 41.5 
Q 54.890625 34.8125 54.890625 23.390625 
Q 54.890625 11.625 47.5625 5.09375 
Q 40.234375 -1.421875 26.90625 -1.421875 
Q 22.3125 -1.421875 17.546875 -0.640625 
Q 12.796875 0.140625 7.71875 1.703125 
L 7.71875 11.625 
Q 12.109375 9.234375 16.796875 8.0625 
Q 21.484375 6.890625 26.703125 6.890625 
Q 35.15625 6.890625 40.078125 11.328125 
Q 45.015625 15.765625 45.015625 23.390625 
Q 45.015625 31 40.078125 35.4375 
Q 35.15625 39.890625 26.703125 39.890625 
Q 22.75 39.890625 18.8125 39.015625 
Q 14.890625 38.140625 10.796875 36.28125 
z
" id="DejaVuSans-35"/>
      </defs>
      <g transform="translate(7.2 70.958437)scale(0.1 -0.1)">
       <use xlink:href="#DejaVuSans-31"/>
       <use x="63.623047" xlink:href="#DejaVuSans-35"/>
       <use x="127.246094" xlink:href="#DejaVuSans-30"/>
      </g>
     </g>
    </g>
    <g id="ytick_3">
     <g id="line2d_3">
      <g>
       <use style="stroke:#000000;stroke-width:0.8;" x="33.2875" xlink:href="#m9bc375fba6" y="10.999219"/>
      </g>
     </g>
     <g id="text_3">
      <!-- 300 -->
      <defs>
       <path d="M 40.578125 39.3125 
Q 47.65625 37.796875 51.625 33 
Q 55.609375 28.21875 55.609375 21.1875 
Q 55.609375 10.40625 48.1875 4.484375 
Q 40.765625 -1.421875 27.09375 -1.421875 
Q 22.515625 -1.421875 17.65625 -0.515625 
Q 12.796875 0.390625 7.625 2.203125 
L 7.625 11.71875 
Q 11.71875 9.328125 16.59375 8.109375 
Q 21.484375 6.890625 26.8125 6.890625 
Q 36.078125 6.890625 40.9375 10.546875 
Q 45.796875 14.203125 45.796875 21.1875 
Q 45.796875 27.640625 41.28125 31.265625 
Q 36.765625 34.90625 28.71875 34.90625 
L 20.21875 34.90625 
L 20.21875 43.015625 
L 29.109375 43.015625 
Q 36.375 43.015625 40.234375 45.921875 
Q 44.09375 48.828125 44.09375 54.296875 
Q 44.09375 59.90625 40.109375 62.90625 
Q 36.140625 65.921875 28.71875 65.921875 
Q 24.65625 65.921875 20.015625 65.03125 
Q 15.375 64.15625 9.8125 62.3125 
L 9.8125 71.09375 
Q 15.4375 72.65625 20.34375 73.4375 
Q 25.25 74.21875 29.59375 74.21875 
Q 40.828125 74.21875 47.359375 69.109375 
Q 53.90625 64.015625 53.90625 55.328125 
Q 53.90625 49.265625 50.4375 45.09375 
Q 46.96875 40.921875 40.578125 39.3125 
z
" id="DejaVuSans-33"/>
      </defs>
      <g transform="translate(7.2 14.798437)scale(0.1 -0.1)">
       <use xlink:href="#DejaVuSans-33"/>
       <use x="63.623047" xlink:href="#DejaVuSans-30"/>
       <use x="127.246094" xlink:href="#DejaVuSans-30"/>
      </g>
     </g>
    </g>
   </g>
   <g id="patch_3">
    <path d="M 33.2875 123.319219 
L 33.2875 10.999219 
" style="fill:none;stroke:#000000;stroke-linecap:square;stroke-linejoin:miter;stroke-width:0.8;"/>
   </g>
   <g id="patch_4">
    <path d="M 33.2875 123.319219 
L 127.0875 123.319219 
" style="fill:none;stroke:#000000;stroke-linecap:square;stroke-linejoin:miter;stroke-width:0.8;"/>
   </g>
  </g>
 </g>
 <defs>
  <clipPath id="p0037f8641c">
   <rect height="112.32" width="93.8" x="33.2875" y="10.999219"/>
  </clipPath>
 </defs>
</svg>
