<?xml version="1.0" encoding="utf-8" standalone="no"?>
<!DOCTYPE svg PUBLIC "-//W3C//DTD SVG 1.1//EN"
  "http://www.w3.org/Graphics/SVG/1.1/DTD/svg11.dtd">
<!-- Created with matplotlib (http://matplotlib.org/) -->
<svg height="136pt" version="1.1" viewBox="0 0 137 136" width="137pt" xmlns="http://www.w3.org/2000/svg" xmlns:xlink="http://www.w3.org/1999/xlink">
 <defs>
  <style type="text/css">
*{stroke-linecap:butt;stroke-linejoin:round;}
  </style>
 </defs>
 <g id="figure_1">
  <g id="patch_1">
   <path d="M 0 136.398125 
L 137.7875 136.398125 
L 137.7875 0 
L 0 0 
z
" style="fill:#ffffff;"/>
  </g>
  <g id="axes_1">
   <g id="patch_2">
    <path d="M 33.2875 123.319219 
L 127.0875 123.319219 
L 127.0875 10.999219 
L 33.2875 10.999219 
z
" style="fill:#ffffff;"/>
   </g>
   <g id="PolyCollection_1">
    <path clip-path="url(#p89cc7320b3)" d="M 80.427759 123.319219 
L 77.119409 123.319219 
L 76.958446 122.570419 
L 76.829738 121.821619 
L 76.689237 121.072819 
L 76.488717 120.324019 
L 76.187996 119.575219 
L 75.765248 118.826419 
L 75.222423 118.077619 
L 74.584562 117.328819 
L 73.893665 116.580019 
L 73.199341 115.831219 
L 72.549004 115.08242 
L 71.98003 114.33362 
L 71.515338 113.58482 
L 71.16261 112.83602 
L 70.916497 112.08722 
L 70.762598 111.33842 
L 70.681962 110.58962 
L 70.655095 109.84082 
L 70.664882 109.09202 
L 70.698191 108.34322 
L 70.746276 107.59442 
L 70.804256 106.84562 
L 70.870076 106.09682 
L 70.943315 105.34802 
L 71.02416 104.599221 
L 71.112716 103.850421 
L 71.208717 103.101621 
L 71.311584 102.352821 
L 71.420681 101.604021 
L 71.535607 100.855221 
L 71.656392 100.106421 
L 71.783467 99.357621 
L 71.917423 98.608821 
L 72.05859 97.860021 
L 72.206569 97.111221 
L 72.359853 96.362421 
L 72.515673 95.613621 
L 72.670136 94.864821 
L 72.818659 94.116022 
L 72.956623 93.367222 
L 73.080102 92.618422 
L 73.186491 91.869622 
L 73.274891 91.120822 
L 73.346123 90.372022 
L 73.402386 89.623222 
L 73.446618 88.874422 
L 73.481744 88.125622 
L 73.510011 87.376822 
L 73.532582 86.628022 
L 73.549512 85.879222 
L 73.560098 85.130422 
L 73.56349 84.381622 
L 73.559372 83.632823 
L 73.54847 82.884023 
L 73.53273 82.135223 
L 73.515066 81.386423 
L 73.49879 80.637623 
L 73.486902 79.888823 
L 73.481523 79.140023 
L 73.483637 78.391223 
L 73.49325 77.642423 
L 73.509838 76.893623 
L 73.532876 76.144823 
L 73.562231 75.396023 
L 73.598219 74.647223 
L 73.641315 73.898423 
L 73.691612 73.149623 
L 73.748212 72.400824 
L 73.808786 71.652024 
L 73.86947 70.903224 
L 73.925173 70.154424 
L 73.970283 69.405624 
L 73.99959 68.656824 
L 74.009219 67.908024 
L 73.997309 67.159224 
L 73.964251 66.410424 
L 73.912416 65.661624 
L 73.845473 64.912824 
L 73.767475 64.164024 
L 73.681917 63.415224 
L 73.590777 62.666424 
L 73.493289 61.917625 
L 73.383887 61.168825 
L 73.248594 60.420025 
L 73.059337 59.671225 
L 72.766385 58.922425 
L 72.290404 58.173625 
L 71.51739 57.424825 
L 70.301362 56.676025 
L 68.480196 55.927225 
L 65.908238 55.178425 
L 62.504449 54.429625 
L 58.307414 53.680825 
L 53.520922 52.932025 
L 48.529838 52.183225 
L 43.869574 51.434426 
L 40.144815 50.685626 
L 37.911287 49.936826 
L 37.551136 49.188026 
L 80.427759 49.188026 
L 80.427759 49.188026 
L 80.427759 49.936826 
L 80.427759 50.685626 
L 80.427759 51.434426 
L 80.427759 52.183225 
L 80.427759 52.932025 
L 80.427759 53.680825 
L 80.427759 54.429625 
L 80.427759 55.178425 
L 80.427759 55.927225 
L 80.427759 56.676025 
L 80.427759 57.424825 
L 80.427759 58.173625 
L 80.427759 58.922425 
L 80.427759 59.671225 
L 80.427759 60.420025 
L 80.427759 61.168825 
L 80.427759 61.917625 
L 80.427759 62.666424 
L 80.427759 63.415224 
L 80.427759 64.164024 
L 80.427759 64.912824 
L 80.427759 65.661624 
L 80.427759 66.410424 
L 80.427759 67.159224 
L 80.427759 67.908024 
L 80.427759 68.656824 
L 80.427759 69.405624 
L 80.427759 70.154424 
L 80.427759 70.903224 
L 80.427759 71.652024 
L 80.427759 72.400824 
L 80.427759 73.149623 
L 80.427759 73.898423 
L 80.427759 74.647223 
L 80.427759 75.396023 
L 80.427759 76.144823 
L 80.427759 76.893623 
L 80.427759 77.642423 
L 80.427759 78.391223 
L 80.427759 79.140023 
L 80.427759 79.888823 
L 80.427759 80.637623 
L 80.427759 81.386423 
L 80.427759 82.135223 
L 80.427759 82.884023 
L 80.427759 83.632823 
L 80.427759 84.381622 
L 80.427759 85.130422 
L 80.427759 85.879222 
L 80.427759 86.628022 
L 80.427759 87.376822 
L 80.427759 88.125622 
L 80.427759 88.874422 
L 80.427759 89.623222 
L 80.427759 90.372022 
L 80.427759 91.120822 
L 80.427759 91.869622 
L 80.427759 92.618422 
L 80.427759 93.367222 
L 80.427759 94.116022 
L 80.427759 94.864821 
L 80.427759 95.613621 
L 80.427759 96.362421 
L 80.427759 97.111221 
L 80.427759 97.860021 
L 80.427759 98.608821 
L 80.427759 99.357621 
L 80.427759 100.106421 
L 80.427759 100.855221 
L 80.427759 101.604021 
L 80.427759 102.352821 
L 80.427759 103.101621 
L 80.427759 103.850421 
L 80.427759 104.599221 
L 80.427759 105.34802 
L 80.427759 106.09682 
L 80.427759 106.84562 
L 80.427759 107.59442 
L 80.427759 108.34322 
L 80.427759 109.09202 
L 80.427759 109.84082 
L 80.427759 110.58962 
L 80.427759 111.33842 
L 80.427759 112.08722 
L 80.427759 112.83602 
L 80.427759 113.58482 
L 80.427759 114.33362 
L 80.427759 115.08242 
L 80.427759 115.831219 
L 80.427759 116.580019 
L 80.427759 117.328819 
L 80.427759 118.077619 
L 80.427759 118.826419 
L 80.427759 119.575219 
L 80.427759 120.324019 
L 80.427759 121.072819 
L 80.427759 121.821619 
L 80.427759 122.570419 
L 80.427759 123.319219 
z
" style="fill:#1f77b4;fill-opacity:0.3;"/>
   </g>
   <g id="PolyCollection_2">
    <path clip-path="url(#p89cc7320b3)" d="M 81.173974 123.319219 
L 80.202002 123.319219 
L 80.202002 122.241763 
L 80.202002 121.164306 
L 80.202002 120.08685 
L 80.202002 119.009394 
L 80.202002 117.931938 
L 80.202002 116.854482 
L 80.202002 115.777025 
L 80.202002 114.699569 
L 80.202002 113.622113 
L 80.202002 112.544657 
L 80.202002 111.467201 
L 80.202002 110.389745 
L 80.202002 109.312288 
L 80.202002 108.234832 
L 80.202002 107.157376 
L 80.202002 106.07992 
L 80.202002 105.002464 
L 80.202002 103.925007 
L 80.202002 102.847551 
L 80.202002 101.770095 
L 80.202002 100.692639 
L 80.202002 99.615183 
L 80.202002 98.537727 
L 80.202002 97.46027 
L 80.202002 96.382814 
L 80.202002 95.305358 
L 80.202002 94.227902 
L 80.202002 93.150446 
L 80.202002 92.072989 
L 80.202002 90.995533 
L 80.202002 89.918077 
L 80.202002 88.840621 
L 80.202002 87.763165 
L 80.202002 86.685709 
L 80.202002 85.608252 
L 80.202002 84.530796 
L 80.202002 83.45334 
L 80.202002 82.375884 
L 80.202002 81.298428 
L 80.202002 80.220971 
L 80.202002 79.143515 
L 80.202002 78.066059 
L 80.202002 76.988603 
L 80.202002 75.911147 
L 80.202002 74.83369 
L 80.202002 73.756234 
L 80.202002 72.678778 
L 80.202002 71.601322 
L 80.202002 70.523866 
L 80.202002 69.44641 
L 80.202002 68.368953 
L 80.202002 67.291497 
L 80.202002 66.214041 
L 80.202002 65.136585 
L 80.202002 64.059129 
L 80.202002 62.981672 
L 80.202002 61.904216 
L 80.202002 60.82676 
L 80.202002 59.749304 
L 80.202002 58.671848 
L 80.202002 57.594392 
L 80.202002 56.516935 
L 80.202002 55.439479 
L 80.202002 54.362023 
L 80.202002 53.284567 
L 80.202002 52.207111 
L 80.202002 51.129654 
L 80.202002 50.052198 
L 80.202002 48.974742 
L 80.202002 47.897286 
L 80.202002 46.81983 
L 80.202002 45.742374 
L 80.202002 44.664917 
L 80.202002 43.587461 
L 80.202002 42.510005 
L 80.202002 41.432549 
L 80.202002 40.355093 
L 80.202002 39.277636 
L 80.202002 38.20018 
L 80.202002 37.122724 
L 80.202002 36.045268 
L 80.202002 34.967812 
L 80.202002 33.890356 
L 80.202002 32.812899 
L 80.202002 31.735443 
L 80.202002 30.657987 
L 80.202002 29.580531 
L 80.202002 28.503075 
L 80.202002 27.425618 
L 80.202002 26.348162 
L 80.202002 25.270706 
L 80.202002 24.19325 
L 80.202002 23.115794 
L 80.202002 22.038338 
L 80.202002 20.960881 
L 80.202002 19.883425 
L 80.202002 18.805969 
L 80.202002 17.728513 
L 80.202002 16.651057 
L 81.158378 16.651057 
L 81.158378 16.651057 
L 81.59402 17.728513 
L 82.130547 18.805969 
L 82.745101 19.883425 
L 83.391783 20.960881 
L 84.009435 22.038338 
L 84.539236 23.115794 
L 84.945439 24.19325 
L 85.230022 25.270706 
L 85.434857 26.348162 
L 85.630736 27.425618 
L 85.897365 28.503075 
L 86.300378 29.580531 
L 86.871328 30.657987 
L 87.596314 31.735443 
L 88.418489 32.812899 
L 89.257004 33.890356 
L 90.038204 34.967812 
L 90.727718 36.045268 
L 91.351718 37.122724 
L 92.005025 38.20018 
L 92.854753 39.277636 
L 94.14622 40.355093 
L 96.196213 41.432549 
L 99.332201 42.510005 
L 103.738716 43.587461 
L 109.231921 44.664917 
L 115.082681 45.742374 
L 120.0648 46.81983 
L 122.823864 47.897286 
L 122.446189 48.974742 
L 118.911746 50.052198 
L 113.133266 51.129654 
L 106.543404 52.207111 
L 100.490026 53.284567 
L 95.790518 54.362023 
L 92.631497 55.439479 
L 90.753213 56.516935 
L 89.726189 57.594392 
L 89.15987 58.671848 
L 88.791264 59.749304 
L 88.483957 60.82676 
L 88.189964 61.904216 
L 87.910233 62.981672 
L 87.666617 64.059129 
L 87.484611 65.136585 
L 87.382755 66.214041 
L 87.366113 67.291497 
L 87.423467 68.368953 
L 87.529038 69.44641 
L 87.648957 70.523866 
L 87.750883 71.601322 
L 87.813264 72.678778 
L 87.830342 73.756234 
L 87.810929 74.83369 
L 87.772099 75.911147 
L 87.731393 76.988603 
L 87.7011 78.066059 
L 87.686124 79.143515 
L 87.684572 80.220971 
L 87.689523 81.298428 
L 87.691334 82.375884 
L 87.680684 83.45334 
L 87.652078 84.530796 
L 87.606425 85.608252 
L 87.551163 86.685709 
L 87.497668 87.763165 
L 87.457268 88.840621 
L 87.437734 89.918077 
L 87.441311 90.995533 
L 87.464237 92.072989 
L 87.497429 93.150446 
L 87.52851 94.227902 
L 87.545457 95.305358 
L 87.540927 96.382814 
L 87.51486 97.46027 
L 87.473229 98.537727 
L 87.423409 99.615183 
L 87.369294 100.692639 
L 87.309337 101.770095 
L 87.237961 102.847551 
L 87.148148 103.925007 
L 87.032823 105.002464 
L 86.884672 106.07992 
L 86.695775 107.157376 
L 86.458345 108.234832 
L 86.166256 109.312288 
L 85.815946 110.389745 
L 85.405938 111.467201 
L 84.936094 112.544657 
L 84.408962 113.622113 
L 83.834604 114.699569 
L 83.23702 115.777025 
L 82.657013 116.854482 
L 82.145911 117.931938 
L 81.74909 119.009394 
L 81.485821 120.08685 
L 81.33742 121.164306 
L 81.253309 122.241763 
L 81.173974 123.319219 
z
" style="fill:#ff7f0e;fill-opacity:0.3;"/>
   </g>
   <g id="matplotlib.axis_1"/>
   <g id="matplotlib.axis_2">
    <g id="ytick_1">
     <g id="line2d_1">
      <defs>
       <path d="M 0 0 
L -3.5 0 
" id="m71db1add1f" style="stroke:#000000;stroke-width:0.8;"/>
      </defs>
      <g>
       <use style="stroke:#000000;stroke-width:0.8;" x="33.2875" xlink:href="#m71db1add1f" y="123.319219"/>
      </g>
     </g>
     <g id="text_1">
      <!-- 0 -->
      <defs>
       <path d="M 31.78125 66.40625 
Q 24.171875 66.40625 20.328125 58.90625 
Q 16.5 51.421875 16.5 36.375 
Q 16.5 21.390625 20.328125 13.890625 
Q 24.171875 6.390625 31.78125 6.390625 
Q 39.453125 6.390625 43.28125 13.890625 
Q 47.125 21.390625 47.125 36.375 
Q 47.125 51.421875 43.28125 58.90625 
Q 39.453125 66.40625 31.78125 66.40625 
z
M 31.78125 74.21875 
Q 44.046875 74.21875 50.515625 64.515625 
Q 56.984375 54.828125 56.984375 36.375 
Q 56.984375 17.96875 50.515625 8.265625 
Q 44.046875 -1.421875 31.78125 -1.421875 
Q 19.53125 -1.421875 13.0625 8.265625 
Q 6.59375 17.96875 6.59375 36.375 
Q 6.59375 54.828125 13.0625 64.515625 
Q 19.53125 74.21875 31.78125 74.21875 
z
" id="DejaVuSans-30"/>
      </defs>
      <g transform="translate(19.925 127.118437)scale(0.1 -0.1)">
       <use xlink:href="#DejaVuSans-30"/>
      </g>
     </g>
    </g>
    <g id="ytick_2">
     <g id="line2d_2">
      <g>
       <use style="stroke:#000000;stroke-width:0.8;" x="33.2875" xlink:href="#m71db1add1f" y="67.159219"/>
      </g>
     </g>
     <g id="text_2">
      <!-- 150 -->
      <defs>
       <path d="M 12.40625 8.296875 
L 28.515625 8.296875 
L 28.515625 63.921875 
L 10.984375 60.40625 
L 10.984375 69.390625 
L 28.421875 72.90625 
L 38.28125 72.90625 
L 38.28125 8.296875 
L 54.390625 8.296875 
L 54.390625 0 
L 12.40625 0 
z
" id="DejaVuSans-31"/>
       <path d="M 10.796875 72.90625 
L 49.515625 72.90625 
L 49.515625 64.59375 
L 19.828125 64.59375 
L 19.828125 46.734375 
Q 21.96875 47.46875 24.109375 47.828125 
Q 26.265625 48.1875 28.421875 48.1875 
Q 40.625 48.1875 47.75 41.5 
Q 54.890625 34.8125 54.890625 23.390625 
Q 54.890625 11.625 47.5625 5.09375 
Q 40.234375 -1.421875 26.90625 -1.421875 
Q 22.3125 -1.421875 17.546875 -0.640625 
Q 12.796875 0.140625 7.71875 1.703125 
L 7.71875 11.625 
Q 12.109375 9.234375 16.796875 8.0625 
Q 21.484375 6.890625 26.703125 6.890625 
Q 35.15625 6.890625 40.078125 11.328125 
Q 45.015625 15.765625 45.015625 23.390625 
Q 45.015625 31 40.078125 35.4375 
Q 35.15625 39.890625 26.703125 39.890625 
Q 22.75 39.890625 18.8125 39.015625 
Q 14.890625 38.140625 10.796875 36.28125 
z
" id="DejaVuSans-35"/>
      </defs>
      <g transform="translate(7.2 70.958437)scale(0.1 -0.1)">
       <use xlink:href="#DejaVuSans-31"/>
       <use x="63.623047" xlink:href="#DejaVuSans-35"/>
       <use x="127.246094" xlink:href="#DejaVuSans-30"/>
      </g>
     </g>
    </g>
    <g id="ytick_3">
     <g id="line2d_3">
      <g>
       <use style="stroke:#000000;stroke-width:0.8;" x="33.2875" xlink:href="#m71db1add1f" y="10.999219"/>
      </g>
     </g>
     <g id="text_3">
      <!-- 300 -->
      <defs>
       <path d="M 40.578125 39.3125 
Q 47.65625 37.796875 51.625 33 
Q 55.609375 28.21875 55.609375 21.1875 
Q 55.609375 10.40625 48.1875 4.484375 
Q 40.765625 -1.421875 27.09375 -1.421875 
Q 22.515625 -1.421875 17.65625 -0.515625 
Q 12.796875 0.390625 7.625 2.203125 
L 7.625 11.71875 
Q 11.71875 9.328125 16.59375 8.109375 
Q 21.484375 6.890625 26.8125 6.890625 
Q 36.078125 6.890625 40.9375 10.546875 
Q 45.796875 14.203125 45.796875 21.1875 
Q 45.796875 27.640625 41.28125 31.265625 
Q 36.765625 34.90625 28.71875 34.90625 
L 20.21875 34.90625 
L 20.21875 43.015625 
L 29.109375 43.015625 
Q 36.375 43.015625 40.234375 45.921875 
Q 44.09375 48.828125 44.09375 54.296875 
Q 44.09375 59.90625 40.109375 62.90625 
Q 36.140625 65.921875 28.71875 65.921875 
Q 24.65625 65.921875 20.015625 65.03125 
Q 15.375 64.15625 9.8125 62.3125 
L 9.8125 71.09375 
Q 15.4375 72.65625 20.34375 73.4375 
Q 25.25 74.21875 29.59375 74.21875 
Q 40.828125 74.21875 47.359375 69.109375 
Q 53.90625 64.015625 53.90625 55.328125 
Q 53.90625 49.265625 50.4375 45.09375 
Q 46.96875 40.921875 40.578125 39.3125 
z
" id="DejaVuSans-33"/>
      </defs>
      <g transform="translate(7.2 14.798437)scale(0.1 -0.1)">
       <use xlink:href="#DejaVuSans-33"/>
       <use x="63.623047" xlink:href="#DejaVuSans-30"/>
       <use x="127.246094" xlink:href="#DejaVuSans-30"/>
      </g>
     </g>
    </g>
   </g>
   <g id="patch_3">
    <path d="M 33.2875 123.319219 
L 33.2875 10.999219 
" style="fill:none;stroke:#000000;stroke-linecap:square;stroke-linejoin:miter;stroke-width:0.8;"/>
   </g>
   <g id="patch_4">
    <path d="M 33.2875 123.319219 
L 127.0875 123.319219 
" style="fill:none;stroke:#000000;stroke-linecap:square;stroke-linejoin:miter;stroke-width:0.8;"/>
   </g>
  </g>
 </g>
 <defs>
  <clipPath id="p89cc7320b3">
   <rect height="112.32" width="93.8" x="33.2875" y="10.999219"/>
  </clipPath>
 </defs>
</svg>
