<?xml version="1.0" encoding="utf-8" standalone="no"?>
<!DOCTYPE svg PUBLIC "-//W3C//DTD SVG 1.1//EN"
  "http://www.w3.org/Graphics/SVG/1.1/DTD/svg11.dtd">
<!-- Created with matplotlib (http://matplotlib.org/) -->
<svg height="136pt" version="1.1" viewBox="0 0 101 136" width="101pt" xmlns="http://www.w3.org/2000/svg" xmlns:xlink="http://www.w3.org/1999/xlink">
 <defs>
  <style type="text/css">
*{stroke-linecap:butt;stroke-linejoin:round;}
  </style>
 </defs>
 <g id="figure_1">
  <g id="patch_1">
   <path d="M 0 136.398125 
L 101.7875 136.398125 
L 101.7875 0 
L 0 0 
z
" style="fill:#ffffff;"/>
  </g>
  <g id="axes_1">
   <g id="patch_2">
    <path d="M 33.2875 123.319219 
L 91.0875 123.319219 
L 91.0875 10.999219 
L 33.2875 10.999219 
z
" style="fill:#ffffff;"/>
   </g>
   <g id="PolyCollection_1">
    <path clip-path="url(#p04fa3e4a96)" d="M 68.188158 123.319219 
L 56.186842 123.319219 
L 55.449241 122.298128 
L 54.671214 121.277037 
L 53.795391 120.255946 
L 52.777057 119.234856 
L 51.60386 118.213765 
L 50.305037 117.192674 
L 48.946753 116.171583 
L 47.615876 115.150492 
L 46.398804 114.129401 
L 45.362969 113.108311 
L 44.546445 112.08722 
L 43.957146 111.066129 
L 43.579485 110.045038 
L 43.384415 109.023947 
L 43.338868 108.002857 
L 43.412086 106.981766 
L 43.578293 105.960675 
L 43.816601 104.939584 
L 44.109677 103.918493 
L 44.442484 102.897403 
L 44.801685 101.876312 
L 45.175648 100.855221 
L 45.554606 99.83413 
L 45.930596 98.813039 
L 46.297115 97.791949 
L 46.648732 96.770858 
L 46.980927 95.749767 
L 47.290279 94.728676 
L 47.574823 93.707585 
L 47.834311 92.686495 
L 48.070078 91.665404 
L 48.284492 90.644313 
L 48.480119 89.623222 
L 48.658882 88.602131 
L 48.821489 87.58104 
L 48.967278 86.55995 
L 49.094534 85.538859 
L 49.201161 84.517768 
L 49.285541 83.496677 
L 49.347353 82.475586 
L 49.388149 81.454496 
L 49.411537 80.433405 
L 49.422902 79.412314 
L 49.428705 78.391223 
L 49.435453 77.370132 
L 49.448533 76.349042 
L 49.471118 75.327951 
L 49.503378 74.30686 
L 49.54219 73.285769 
L 49.581496 72.264678 
L 49.613282 71.243588 
L 49.629021 70.222497 
L 49.621253 69.201406 
L 49.584881 68.180315 
L 49.517881 67.159224 
L 49.421303 66.138134 
L 49.298733 65.117043 
L 49.155583 64.095952 
L 48.998493 63.074861 
L 48.834935 62.05377 
L 48.672813 61.032679 
L 48.519744 60.011589 
L 48.381899 58.990498 
L 48.262657 57.969407 
L 48.161624 56.948316 
L 48.074618 55.927225 
L 47.994805 54.906135 
L 47.914617 53.885044 
L 47.827654 52.863953 
L 47.729679 51.842862 
L 47.618294 50.821771 
L 47.491529 49.800681 
L 47.346154 48.77959 
L 47.176729 47.758499 
L 46.976049 46.737408 
L 46.736969 45.716317 
L 46.454868 44.695227 
L 46.129657 43.674136 
L 45.766308 42.653045 
L 45.373554 41.631954 
L 44.961112 40.610863 
L 44.536445 39.589772 
L 44.102199 38.568682 
L 43.65507 37.547591 
L 43.186208 36.5265 
L 42.682606 35.505409 
L 42.128775 34.484318 
L 41.50845 33.463228 
L 40.806964 32.442137 
L 40.015675 31.421046 
L 39.139786 30.399955 
L 38.209514 29.378864 
L 37.292015 28.357774 
L 36.498776 27.336683 
L 35.98193 26.315592 
L 35.914773 25.294501 
L 36.457025 24.27341 
L 37.712468 23.25232 
L 39.692252 22.231229 
L 84.682748 22.231229 
L 84.682748 22.231229 
L 86.662532 23.25232 
L 87.917975 24.27341 
L 88.460227 25.294501 
L 88.39307 26.315592 
L 87.876224 27.336683 
L 87.082985 28.357774 
L 86.165486 29.378864 
L 85.235214 30.399955 
L 84.359325 31.421046 
L 83.568036 32.442137 
L 82.86655 33.463228 
L 82.246225 34.484318 
L 81.692394 35.505409 
L 81.188792 36.5265 
L 80.71993 37.547591 
L 80.272801 38.568682 
L 79.838555 39.589772 
L 79.413888 40.610863 
L 79.001446 41.631954 
L 78.608692 42.653045 
L 78.245343 43.674136 
L 77.920132 44.695227 
L 77.638031 45.716317 
L 77.398951 46.737408 
L 77.198271 47.758499 
L 77.028846 48.77959 
L 76.883471 49.800681 
L 76.756706 50.821771 
L 76.645321 51.842862 
L 76.547346 52.863953 
L 76.460383 53.885044 
L 76.380195 54.906135 
L 76.300382 55.927225 
L 76.213376 56.948316 
L 76.112343 57.969407 
L 75.993101 58.990498 
L 75.855256 60.011589 
L 75.702187 61.032679 
L 75.540065 62.05377 
L 75.376507 63.074861 
L 75.219417 64.095952 
L 75.076267 65.117043 
L 74.953697 66.138134 
L 74.857119 67.159224 
L 74.790119 68.180315 
L 74.753747 69.201406 
L 74.745979 70.222497 
L 74.761718 71.243588 
L 74.793504 72.264678 
L 74.83281 73.285769 
L 74.871622 74.30686 
L 74.903882 75.327951 
L 74.926467 76.349042 
L 74.939547 77.370132 
L 74.946295 78.391223 
L 74.952098 79.412314 
L 74.963463 80.433405 
L 74.986851 81.454496 
L 75.027647 82.475586 
L 75.089459 83.496677 
L 75.173839 84.517768 
L 75.280466 85.538859 
L 75.407722 86.55995 
L 75.553511 87.58104 
L 75.716118 88.602131 
L 75.894881 89.623222 
L 76.090508 90.644313 
L 76.304922 91.665404 
L 76.540689 92.686495 
L 76.800177 93.707585 
L 77.084721 94.728676 
L 77.394073 95.749767 
L 77.726268 96.770858 
L 78.077885 97.791949 
L 78.444404 98.813039 
L 78.820394 99.83413 
L 79.199352 100.855221 
L 79.573315 101.876312 
L 79.932516 102.897403 
L 80.265323 103.918493 
L 80.558399 104.939584 
L 80.796707 105.960675 
L 80.962914 106.981766 
L 81.036132 108.002857 
L 80.990585 109.023947 
L 80.795515 110.045038 
L 80.417854 111.066129 
L 79.828555 112.08722 
L 79.012031 113.108311 
L 77.976196 114.129401 
L 76.759124 115.150492 
L 75.428247 116.171583 
L 74.069963 117.192674 
L 72.77114 118.213765 
L 71.597943 119.234856 
L 70.579609 120.255946 
L 69.703786 121.277037 
L 68.925759 122.298128 
L 68.188158 123.319219 
z
" style="fill:#1f77b4;fill-opacity:0.3;"/>
   </g>
   <g id="matplotlib.axis_1"/>
   <g id="matplotlib.axis_2">
    <g id="ytick_1">
     <g id="line2d_1">
      <defs>
       <path d="M 0 0 
L -3.5 0 
" id="m885585c845" style="stroke:#000000;stroke-width:0.8;"/>
      </defs>
      <g>
       <use style="stroke:#000000;stroke-width:0.8;" x="33.2875" xlink:href="#m885585c845" y="123.319219"/>
      </g>
     </g>
     <g id="text_1">
      <!-- 0 -->
      <defs>
       <path d="M 31.78125 66.40625 
Q 24.171875 66.40625 20.328125 58.90625 
Q 16.5 51.421875 16.5 36.375 
Q 16.5 21.390625 20.328125 13.890625 
Q 24.171875 6.390625 31.78125 6.390625 
Q 39.453125 6.390625 43.28125 13.890625 
Q 47.125 21.390625 47.125 36.375 
Q 47.125 51.421875 43.28125 58.90625 
Q 39.453125 66.40625 31.78125 66.40625 
z
M 31.78125 74.21875 
Q 44.046875 74.21875 50.515625 64.515625 
Q 56.984375 54.828125 56.984375 36.375 
Q 56.984375 17.96875 50.515625 8.265625 
Q 44.046875 -1.421875 31.78125 -1.421875 
Q 19.53125 -1.421875 13.0625 8.265625 
Q 6.59375 17.96875 6.59375 36.375 
Q 6.59375 54.828125 13.0625 64.515625 
Q 19.53125 74.21875 31.78125 74.21875 
z
" id="DejaVuSans-30"/>
      </defs>
      <g transform="translate(19.925 127.118437)scale(0.1 -0.1)">
       <use xlink:href="#DejaVuSans-30"/>
      </g>
     </g>
    </g>
    <g id="ytick_2">
     <g id="line2d_2">
      <g>
       <use style="stroke:#000000;stroke-width:0.8;" x="33.2875" xlink:href="#m885585c845" y="67.159219"/>
      </g>
     </g>
     <g id="text_2">
      <!-- 150 -->
      <defs>
       <path d="M 12.40625 8.296875 
L 28.515625 8.296875 
L 28.515625 63.921875 
L 10.984375 60.40625 
L 10.984375 69.390625 
L 28.421875 72.90625 
L 38.28125 72.90625 
L 38.28125 8.296875 
L 54.390625 8.296875 
L 54.390625 0 
L 12.40625 0 
z
" id="DejaVuSans-31"/>
       <path d="M 10.796875 72.90625 
L 49.515625 72.90625 
L 49.515625 64.59375 
L 19.828125 64.59375 
L 19.828125 46.734375 
Q 21.96875 47.46875 24.109375 47.828125 
Q 26.265625 48.1875 28.421875 48.1875 
Q 40.625 48.1875 47.75 41.5 
Q 54.890625 34.8125 54.890625 23.390625 
Q 54.890625 11.625 47.5625 5.09375 
Q 40.234375 -1.421875 26.90625 -1.421875 
Q 22.3125 -1.421875 17.546875 -0.640625 
Q 12.796875 0.140625 7.71875 1.703125 
L 7.71875 11.625 
Q 12.109375 9.234375 16.796875 8.0625 
Q 21.484375 6.890625 26.703125 6.890625 
Q 35.15625 6.890625 40.078125 11.328125 
Q 45.015625 15.765625 45.015625 23.390625 
Q 45.015625 31 40.078125 35.4375 
Q 35.15625 39.890625 26.703125 39.890625 
Q 22.75 39.890625 18.8125 39.015625 
Q 14.890625 38.140625 10.796875 36.28125 
z
" id="DejaVuSans-35"/>
      </defs>
      <g transform="translate(7.2 70.958437)scale(0.1 -0.1)">
       <use xlink:href="#DejaVuSans-31"/>
       <use x="63.623047" xlink:href="#DejaVuSans-35"/>
       <use x="127.246094" xlink:href="#DejaVuSans-30"/>
      </g>
     </g>
    </g>
    <g id="ytick_3">
     <g id="line2d_3">
      <g>
       <use style="stroke:#000000;stroke-width:0.8;" x="33.2875" xlink:href="#m885585c845" y="10.999219"/>
      </g>
     </g>
     <g id="text_3">
      <!-- 300 -->
      <defs>
       <path d="M 40.578125 39.3125 
Q 47.65625 37.796875 51.625 33 
Q 55.609375 28.21875 55.609375 21.1875 
Q 55.609375 10.40625 48.1875 4.484375 
Q 40.765625 -1.421875 27.09375 -1.421875 
Q 22.515625 -1.421875 17.65625 -0.515625 
Q 12.796875 0.390625 7.625 2.203125 
L 7.625 11.71875 
Q 11.71875 9.328125 16.59375 8.109375 
Q 21.484375 6.890625 26.8125 6.890625 
Q 36.078125 6.890625 40.9375 10.546875 
Q 45.796875 14.203125 45.796875 21.1875 
Q 45.796875 27.640625 41.28125 31.265625 
Q 36.765625 34.90625 28.71875 34.90625 
L 20.21875 34.90625 
L 20.21875 43.015625 
L 29.109375 43.015625 
Q 36.375 43.015625 40.234375 45.921875 
Q 44.09375 48.828125 44.09375 54.296875 
Q 44.09375 59.90625 40.109375 62.90625 
Q 36.140625 65.921875 28.71875 65.921875 
Q 24.65625 65.921875 20.015625 65.03125 
Q 15.375 64.15625 9.8125 62.3125 
L 9.8125 71.09375 
Q 15.4375 72.65625 20.34375 73.4375 
Q 25.25 74.21875 29.59375 74.21875 
Q 40.828125 74.21875 47.359375 69.109375 
Q 53.90625 64.015625 53.90625 55.328125 
Q 53.90625 49.265625 50.4375 45.09375 
Q 46.96875 40.921875 40.578125 39.3125 
z
" id="DejaVuSans-33"/>
      </defs>
      <g transform="translate(7.2 14.798437)scale(0.1 -0.1)">
       <use xlink:href="#DejaVuSans-33"/>
       <use x="63.623047" xlink:href="#DejaVuSans-30"/>
       <use x="127.246094" xlink:href="#DejaVuSans-30"/>
      </g>
     </g>
    </g>
   </g>
   <g id="patch_3">
    <path d="M 33.2875 123.319219 
L 33.2875 10.999219 
" style="fill:none;stroke:#000000;stroke-linecap:square;stroke-linejoin:miter;stroke-width:0.8;"/>
   </g>
   <g id="patch_4">
    <path d="M 33.2875 123.319219 
L 91.0875 123.319219 
" style="fill:none;stroke:#000000;stroke-linecap:square;stroke-linejoin:miter;stroke-width:0.8;"/>
   </g>
  </g>
 </g>
 <defs>
  <clipPath id="p04fa3e4a96">
   <rect height="112.32" width="57.8" x="33.2875" y="10.999219"/>
  </clipPath>
 </defs>
</svg>
