<?xml version="1.0" encoding="utf-8" standalone="no"?>
<!DOCTYPE svg PUBLIC "-//W3C//DTD SVG 1.1//EN"
  "http://www.w3.org/Graphics/SVG/1.1/DTD/svg11.dtd">
<!-- Created with matplotlib (http://matplotlib.org/) -->
<svg height="136pt" version="1.1" viewBox="0 0 101 136" width="101pt" xmlns="http://www.w3.org/2000/svg" xmlns:xlink="http://www.w3.org/1999/xlink">
 <defs>
  <style type="text/css">
*{stroke-linecap:butt;stroke-linejoin:round;}
  </style>
 </defs>
 <g id="figure_1">
  <g id="patch_1">
   <path d="M 0 136.398125 
L 101.7875 136.398125 
L 101.7875 0 
L 0 0 
z
" style="fill:#ffffff;"/>
  </g>
  <g id="axes_1">
   <g id="patch_2">
    <path d="M 33.2875 123.319219 
L 91.0875 123.319219 
L 91.0875 10.999219 
L 33.2875 10.999219 
z
" style="fill:#ffffff;"/>
   </g>
   <g id="PolyCollection_1">
    <path clip-path="url(#pd5e1fcd455)" d="M 63.49768 123.319219 
L 60.87732 123.319219 
L 60.662863 122.202103 
L 60.407178 121.084987 
L 60.076133 119.967871 
L 59.644611 118.850755 
L 59.107672 117.733639 
L 58.483653 116.616523 
L 57.808425 115.499407 
L 57.124416 114.382291 
L 56.469731 113.265175 
L 55.871223 112.148059 
L 55.342504 111.030943 
L 54.88557 109.913827 
L 54.494002 108.796711 
L 54.156409 107.679595 
L 53.859738 106.562479 
L 53.592502 105.445363 
L 53.347603 104.328247 
L 53.123868 103.211131 
L 52.925384 102.094016 
L 52.758616 100.9769 
L 52.628545 99.859784 
L 52.535748 98.742668 
L 52.475827 97.625552 
L 52.441144 96.508436 
L 52.423451 95.39132 
L 52.415763 94.274204 
L 52.412599 93.157088 
L 52.409027 92.039972 
L 52.399692 90.922856 
L 52.378875 89.80574 
L 52.341838 88.688624 
L 52.286718 87.571508 
L 52.215806 86.454392 
L 52.135253 85.337276 
L 52.053101 84.22016 
L 51.976533 83.103044 
L 51.909723 81.985928 
L 51.853415 80.868812 
L 51.806453 79.751696 
L 51.7684 78.63458 
L 51.741821 77.517464 
L 51.73286 76.400348 
L 51.74962 75.283233 
L 51.798913 74.166117 
L 51.882719 73.049001 
L 51.99579 71.931885 
L 52.125193 70.814769 
L 52.251744 69.697653 
L 52.352785 68.580537 
L 52.405674 67.463421 
L 52.391539 66.346305 
L 52.298791 65.229189 
L 52.125708 64.112073 
L 51.88131 62.994957 
L 51.583983 61.877841 
L 51.257924 60.760725 
L 50.927974 59.643609 
L 50.613879 58.526493 
L 50.325303 57.409377 
L 50.059168 56.292261 
L 49.800613 55.175145 
L 49.527811 54.058029 
L 49.219167 52.940913 
L 48.85993 51.823797 
L 48.445281 50.706681 
L 47.978757 49.589565 
L 47.467663 48.47245 
L 46.91896 47.355334 
L 46.338592 46.238218 
L 45.734485 45.121102 
L 45.120461 44.003986 
L 44.517374 42.88687 
L 43.949604 41.769754 
L 43.438136 40.652638 
L 42.993523 39.535522 
L 42.611667 38.418406 
L 42.273611 37.30129 
L 41.948811 36.184174 
L 41.600642 35.067058 
L 41.192925 33.949942 
L 40.696396 32.832826 
L 40.094342 31.71571 
L 39.387184 30.598594 
L 38.596407 29.481478 
L 37.768201 28.364362 
L 36.976196 27.247246 
L 36.321132 26.13013 
L 35.924573 25.013014 
L 35.914773 23.895898 
L 36.405653 22.778782 
L 37.473141 21.661666 
L 39.13508 20.544551 
L 41.340477 19.427435 
L 43.971397 18.310319 
L 46.857679 17.193203 
L 49.801853 16.076087 
L 52.609514 14.958971 
L 55.118819 13.841855 
L 57.222376 12.724739 
L 67.152624 12.724739 
L 67.152624 12.724739 
L 69.256181 13.841855 
L 71.765486 14.958971 
L 74.573147 16.076087 
L 77.517321 17.193203 
L 80.403603 18.310319 
L 83.034523 19.427435 
L 85.23992 20.544551 
L 86.901859 21.661666 
L 87.969347 22.778782 
L 88.460227 23.895898 
L 88.450427 25.013014 
L 88.053868 26.13013 
L 87.398804 27.247246 
L 86.606799 28.364362 
L 85.778593 29.481478 
L 84.987816 30.598594 
L 84.280658 31.71571 
L 83.678604 32.832826 
L 83.182075 33.949942 
L 82.774358 35.067058 
L 82.426189 36.184174 
L 82.101389 37.30129 
L 81.763333 38.418406 
L 81.381477 39.535522 
L 80.936864 40.652638 
L 80.425396 41.769754 
L 79.857626 42.88687 
L 79.254539 44.003986 
L 78.640515 45.121102 
L 78.036408 46.238218 
L 77.45604 47.355334 
L 76.907337 48.47245 
L 76.396243 49.589565 
L 75.929719 50.706681 
L 75.51507 51.823797 
L 75.155833 52.940913 
L 74.847189 54.058029 
L 74.574387 55.175145 
L 74.315832 56.292261 
L 74.049697 57.409377 
L 73.761121 58.526493 
L 73.447026 59.643609 
L 73.117076 60.760725 
L 72.791017 61.877841 
L 72.49369 62.994957 
L 72.249292 64.112073 
L 72.076209 65.229189 
L 71.983461 66.346305 
L 71.969326 67.463421 
L 72.022215 68.580537 
L 72.123256 69.697653 
L 72.249807 70.814769 
L 72.37921 71.931885 
L 72.492281 73.049001 
L 72.576087 74.166117 
L 72.62538 75.283233 
L 72.64214 76.400348 
L 72.633179 77.517464 
L 72.6066 78.63458 
L 72.568547 79.751696 
L 72.521585 80.868812 
L 72.465277 81.985928 
L 72.398467 83.103044 
L 72.321899 84.22016 
L 72.239747 85.337276 
L 72.159194 86.454392 
L 72.088282 87.571508 
L 72.033162 88.688624 
L 71.996125 89.80574 
L 71.975308 90.922856 
L 71.965973 92.039972 
L 71.962401 93.157088 
L 71.959237 94.274204 
L 71.951549 95.39132 
L 71.933856 96.508436 
L 71.899173 97.625552 
L 71.839252 98.742668 
L 71.746455 99.859784 
L 71.616384 100.9769 
L 71.449616 102.094016 
L 71.251132 103.211131 
L 71.027397 104.328247 
L 70.782498 105.445363 
L 70.515262 106.562479 
L 70.218591 107.679595 
L 69.880998 108.796711 
L 69.48943 109.913827 
L 69.032496 111.030943 
L 68.503777 112.148059 
L 67.905269 113.265175 
L 67.250584 114.382291 
L 66.566575 115.499407 
L 65.891347 116.616523 
L 65.267328 117.733639 
L 64.730389 118.850755 
L 64.298867 119.967871 
L 63.967822 121.084987 
L 63.712137 122.202103 
L 63.49768 123.319219 
z
" style="fill:#1f77b4;fill-opacity:0.3;"/>
   </g>
   <g id="matplotlib.axis_1"/>
   <g id="matplotlib.axis_2">
    <g id="ytick_1">
     <g id="line2d_1">
      <defs>
       <path d="M 0 0 
L -3.5 0 
" id="mcfccc3c837" style="stroke:#000000;stroke-width:0.8;"/>
      </defs>
      <g>
       <use style="stroke:#000000;stroke-width:0.8;" x="33.2875" xlink:href="#mcfccc3c837" y="123.319219"/>
      </g>
     </g>
     <g id="text_1">
      <!-- 0 -->
      <defs>
       <path d="M 31.78125 66.40625 
Q 24.171875 66.40625 20.328125 58.90625 
Q 16.5 51.421875 16.5 36.375 
Q 16.5 21.390625 20.328125 13.890625 
Q 24.171875 6.390625 31.78125 6.390625 
Q 39.453125 6.390625 43.28125 13.890625 
Q 47.125 21.390625 47.125 36.375 
Q 47.125 51.421875 43.28125 58.90625 
Q 39.453125 66.40625 31.78125 66.40625 
z
M 31.78125 74.21875 
Q 44.046875 74.21875 50.515625 64.515625 
Q 56.984375 54.828125 56.984375 36.375 
Q 56.984375 17.96875 50.515625 8.265625 
Q 44.046875 -1.421875 31.78125 -1.421875 
Q 19.53125 -1.421875 13.0625 8.265625 
Q 6.59375 17.96875 6.59375 36.375 
Q 6.59375 54.828125 13.0625 64.515625 
Q 19.53125 74.21875 31.78125 74.21875 
z
" id="DejaVuSans-30"/>
      </defs>
      <g transform="translate(19.925 127.118437)scale(0.1 -0.1)">
       <use xlink:href="#DejaVuSans-30"/>
      </g>
     </g>
    </g>
    <g id="ytick_2">
     <g id="line2d_2">
      <g>
       <use style="stroke:#000000;stroke-width:0.8;" x="33.2875" xlink:href="#mcfccc3c837" y="67.159219"/>
      </g>
     </g>
     <g id="text_2">
      <!-- 150 -->
      <defs>
       <path d="M 12.40625 8.296875 
L 28.515625 8.296875 
L 28.515625 63.921875 
L 10.984375 60.40625 
L 10.984375 69.390625 
L 28.421875 72.90625 
L 38.28125 72.90625 
L 38.28125 8.296875 
L 54.390625 8.296875 
L 54.390625 0 
L 12.40625 0 
z
" id="DejaVuSans-31"/>
       <path d="M 10.796875 72.90625 
L 49.515625 72.90625 
L 49.515625 64.59375 
L 19.828125 64.59375 
L 19.828125 46.734375 
Q 21.96875 47.46875 24.109375 47.828125 
Q 26.265625 48.1875 28.421875 48.1875 
Q 40.625 48.1875 47.75 41.5 
Q 54.890625 34.8125 54.890625 23.390625 
Q 54.890625 11.625 47.5625 5.09375 
Q 40.234375 -1.421875 26.90625 -1.421875 
Q 22.3125 -1.421875 17.546875 -0.640625 
Q 12.796875 0.140625 7.71875 1.703125 
L 7.71875 11.625 
Q 12.109375 9.234375 16.796875 8.0625 
Q 21.484375 6.890625 26.703125 6.890625 
Q 35.15625 6.890625 40.078125 11.328125 
Q 45.015625 15.765625 45.015625 23.390625 
Q 45.015625 31 40.078125 35.4375 
Q 35.15625 39.890625 26.703125 39.890625 
Q 22.75 39.890625 18.8125 39.015625 
Q 14.890625 38.140625 10.796875 36.28125 
z
" id="DejaVuSans-35"/>
      </defs>
      <g transform="translate(7.2 70.958437)scale(0.1 -0.1)">
       <use xlink:href="#DejaVuSans-31"/>
       <use x="63.623047" xlink:href="#DejaVuSans-35"/>
       <use x="127.246094" xlink:href="#DejaVuSans-30"/>
      </g>
     </g>
    </g>
    <g id="ytick_3">
     <g id="line2d_3">
      <g>
       <use style="stroke:#000000;stroke-width:0.8;" x="33.2875" xlink:href="#mcfccc3c837" y="10.999219"/>
      </g>
     </g>
     <g id="text_3">
      <!-- 300 -->
      <defs>
       <path d="M 40.578125 39.3125 
Q 47.65625 37.796875 51.625 33 
Q 55.609375 28.21875 55.609375 21.1875 
Q 55.609375 10.40625 48.1875 4.484375 
Q 40.765625 -1.421875 27.09375 -1.421875 
Q 22.515625 -1.421875 17.65625 -0.515625 
Q 12.796875 0.390625 7.625 2.203125 
L 7.625 11.71875 
Q 11.71875 9.328125 16.59375 8.109375 
Q 21.484375 6.890625 26.8125 6.890625 
Q 36.078125 6.890625 40.9375 10.546875 
Q 45.796875 14.203125 45.796875 21.1875 
Q 45.796875 27.640625 41.28125 31.265625 
Q 36.765625 34.90625 28.71875 34.90625 
L 20.21875 34.90625 
L 20.21875 43.015625 
L 29.109375 43.015625 
Q 36.375 43.015625 40.234375 45.921875 
Q 44.09375 48.828125 44.09375 54.296875 
Q 44.09375 59.90625 40.109375 62.90625 
Q 36.140625 65.921875 28.71875 65.921875 
Q 24.65625 65.921875 20.015625 65.03125 
Q 15.375 64.15625 9.8125 62.3125 
L 9.8125 71.09375 
Q 15.4375 72.65625 20.34375 73.4375 
Q 25.25 74.21875 29.59375 74.21875 
Q 40.828125 74.21875 47.359375 69.109375 
Q 53.90625 64.015625 53.90625 55.328125 
Q 53.90625 49.265625 50.4375 45.09375 
Q 46.96875 40.921875 40.578125 39.3125 
z
" id="DejaVuSans-33"/>
      </defs>
      <g transform="translate(7.2 14.798437)scale(0.1 -0.1)">
       <use xlink:href="#DejaVuSans-33"/>
       <use x="63.623047" xlink:href="#DejaVuSans-30"/>
       <use x="127.246094" xlink:href="#DejaVuSans-30"/>
      </g>
     </g>
    </g>
   </g>
   <g id="patch_3">
    <path d="M 33.2875 123.319219 
L 33.2875 10.999219 
" style="fill:none;stroke:#000000;stroke-linecap:square;stroke-linejoin:miter;stroke-width:0.8;"/>
   </g>
   <g id="patch_4">
    <path d="M 33.2875 123.319219 
L 91.0875 123.319219 
" style="fill:none;stroke:#000000;stroke-linecap:square;stroke-linejoin:miter;stroke-width:0.8;"/>
   </g>
  </g>
 </g>
 <defs>
  <clipPath id="pd5e1fcd455">
   <rect height="112.32" width="57.8" x="33.2875" y="10.999219"/>
  </clipPath>
 </defs>
</svg>
