<?xml version="1.0" encoding="utf-8" standalone="no"?>
<!DOCTYPE svg PUBLIC "-//W3C//DTD SVG 1.1//EN"
  "http://www.w3.org/Graphics/SVG/1.1/DTD/svg11.dtd">
<!-- Created with matplotlib (http://matplotlib.org/) -->
<svg height="136pt" version="1.1" viewBox="0 0 101 136" width="101pt" xmlns="http://www.w3.org/2000/svg" xmlns:xlink="http://www.w3.org/1999/xlink">
 <defs>
  <style type="text/css">
*{stroke-linecap:butt;stroke-linejoin:round;}
  </style>
 </defs>
 <g id="figure_1">
  <g id="patch_1">
   <path d="M 0 136.398125 
L 101.7875 136.398125 
L 101.7875 0 
L 0 0 
z
" style="fill:#ffffff;"/>
  </g>
  <g id="axes_1">
   <g id="patch_2">
    <path d="M 33.2875 123.319219 
L 91.0875 123.319219 
L 91.0875 10.999219 
L 33.2875 10.999219 
z
" style="fill:#ffffff;"/>
   </g>
   <g id="PolyCollection_1">
    <path clip-path="url(#pe6b5bcf2c5)" d="M 69.395648 123.319219 
L 54.979352 123.319219 
L 54.011485 122.205108 
L 52.987116 121.090998 
L 51.828907 119.976887 
L 50.485997 118.862776 
L 48.96351 117.748666 
L 47.330231 116.634555 
L 45.701286 115.520445 
L 44.204357 114.406334 
L 42.944434 113.292224 
L 41.98069 112.178113 
L 41.321663 111.064002 
L 40.936369 109.949892 
L 40.773376 108.835781 
L 40.779113 107.721671 
L 40.909575 106.60756 
L 41.133985 105.49345 
L 41.432428 104.379339 
L 41.791005 103.265228 
L 42.197527 102.151118 
L 42.63927 101.037007 
L 43.102676 99.922897 
L 43.574051 98.808786 
L 44.040315 97.694675 
L 44.489428 96.580565 
L 44.910634 95.466454 
L 45.294794 94.352344 
L 45.634899 93.238233 
L 45.926528 92.124123 
L 46.167994 91.010012 
L 46.360083 89.895901 
L 46.50554 88.781791 
L 46.608567 87.66768 
L 46.674518 86.55357 
L 46.709783 85.439459 
L 46.721786 84.325349 
L 46.718988 83.211238 
L 46.710888 82.097127 
L 46.707968 80.983017 
L 46.721462 79.868906 
L 46.762731 78.754796 
L 46.84203 77.640685 
L 46.966643 76.526575 
L 47.138621 75.412464 
L 47.3527 74.298353 
L 47.59518 73.184243 
L 47.844519 72.070132 
L 48.074036 70.956022 
L 48.256446 69.841911 
L 48.369161 68.727801 
L 48.398814 67.61369 
L 48.343562 66.499579 
L 48.2125 65.385469 
L 48.022604 64.271358 
L 47.794473 63.157248 
L 47.548315 62.043137 
L 47.301078 60.929026 
L 47.064841 59.814916 
L 46.846042 58.700805 
L 46.645247 57.586695 
L 46.457503 56.472584 
L 46.273575 55.358474 
L 46.082106 54.244363 
L 45.872174 53.130252 
L 45.635411 52.016142 
L 45.367023 50.902031 
L 45.065712 49.787921 
L 44.733079 48.67381 
L 44.373203 47.5597 
L 43.992582 46.445589 
L 43.599949 45.331478 
L 43.205187 44.217368 
L 42.81692 43.103257 
L 42.439292 41.989147 
L 42.069263 40.875036 
L 41.695921 39.760926 
L 41.302582 38.646815 
L 40.871204 37.532704 
L 40.387573 36.418594 
L 39.84546 35.304483 
L 39.24865 34.190373 
L 38.610975 33.076262 
L 37.955529 31.962151 
L 37.314464 30.848041 
L 36.730048 29.73393 
L 36.256317 28.61982 
L 35.95947 27.505709 
L 35.914773 26.391599 
L 36.198629 25.277488 
L 36.876312 24.163377 
L 37.987966 23.049267 
L 39.536768 21.935156 
L 41.483021 20.821046 
L 43.746172 19.706935 
L 46.214383 18.592825 
L 48.759132 17.478714 
L 51.251477 16.364603 
L 53.576888 15.250493 
L 55.64656 14.136382 
L 57.404115 13.022272 
L 66.970885 13.022272 
L 66.970885 13.022272 
L 68.72844 14.136382 
L 70.798112 15.250493 
L 73.123523 16.364603 
L 75.615868 17.478714 
L 78.160617 18.592825 
L 80.628828 19.706935 
L 82.891979 20.821046 
L 84.838232 21.935156 
L 86.387034 23.049267 
L 87.498688 24.163377 
L 88.176371 25.277488 
L 88.460227 26.391599 
L 88.41553 27.505709 
L 88.118683 28.61982 
L 87.644952 29.73393 
L 87.060536 30.848041 
L 86.419471 31.962151 
L 85.764025 33.076262 
L 85.12635 34.190373 
L 84.52954 35.304483 
L 83.987427 36.418594 
L 83.503796 37.532704 
L 83.072418 38.646815 
L 82.679079 39.760926 
L 82.305737 40.875036 
L 81.935708 41.989147 
L 81.55808 43.103257 
L 81.169813 44.217368 
L 80.775051 45.331478 
L 80.382418 46.445589 
L 80.001797 47.5597 
L 79.641921 48.67381 
L 79.309288 49.787921 
L 79.007977 50.902031 
L 78.739589 52.016142 
L 78.502826 53.130252 
L 78.292894 54.244363 
L 78.101425 55.358474 
L 77.917497 56.472584 
L 77.729753 57.586695 
L 77.528958 58.700805 
L 77.310159 59.814916 
L 77.073922 60.929026 
L 76.826685 62.043137 
L 76.580527 63.157248 
L 76.352396 64.271358 
L 76.1625 65.385469 
L 76.031438 66.499579 
L 75.976186 67.61369 
L 76.005839 68.727801 
L 76.118554 69.841911 
L 76.300964 70.956022 
L 76.530481 72.070132 
L 76.77982 73.184243 
L 77.0223 74.298353 
L 77.236379 75.412464 
L 77.408357 76.526575 
L 77.53297 77.640685 
L 77.612269 78.754796 
L 77.653538 79.868906 
L 77.667032 80.983017 
L 77.664112 82.097127 
L 77.656012 83.211238 
L 77.653214 84.325349 
L 77.665217 85.439459 
L 77.700482 86.55357 
L 77.766433 87.66768 
L 77.86946 88.781791 
L 78.014917 89.895901 
L 78.207006 91.010012 
L 78.448472 92.124123 
L 78.740101 93.238233 
L 79.080206 94.352344 
L 79.464366 95.466454 
L 79.885572 96.580565 
L 80.334685 97.694675 
L 80.800949 98.808786 
L 81.272324 99.922897 
L 81.73573 101.037007 
L 82.177473 102.151118 
L 82.583995 103.265228 
L 82.942572 104.379339 
L 83.241015 105.49345 
L 83.465425 106.60756 
L 83.595887 107.721671 
L 83.601624 108.835781 
L 83.438631 109.949892 
L 83.053337 111.064002 
L 82.39431 112.178113 
L 81.430566 113.292224 
L 80.170643 114.406334 
L 78.673714 115.520445 
L 77.044769 116.634555 
L 75.41149 117.748666 
L 73.889003 118.862776 
L 72.546093 119.976887 
L 71.387884 121.090998 
L 70.363515 122.205108 
L 69.395648 123.319219 
z
" style="fill:#1f77b4;fill-opacity:0.3;"/>
   </g>
   <g id="matplotlib.axis_1"/>
   <g id="matplotlib.axis_2">
    <g id="ytick_1">
     <g id="line2d_1">
      <defs>
       <path d="M 0 0 
L -3.5 0 
" id="mdd989be3f7" style="stroke:#000000;stroke-width:0.8;"/>
      </defs>
      <g>
       <use style="stroke:#000000;stroke-width:0.8;" x="33.2875" xlink:href="#mdd989be3f7" y="123.319219"/>
      </g>
     </g>
     <g id="text_1">
      <!-- 0 -->
      <defs>
       <path d="M 31.78125 66.40625 
Q 24.171875 66.40625 20.328125 58.90625 
Q 16.5 51.421875 16.5 36.375 
Q 16.5 21.390625 20.328125 13.890625 
Q 24.171875 6.390625 31.78125 6.390625 
Q 39.453125 6.390625 43.28125 13.890625 
Q 47.125 21.390625 47.125 36.375 
Q 47.125 51.421875 43.28125 58.90625 
Q 39.453125 66.40625 31.78125 66.40625 
z
M 31.78125 74.21875 
Q 44.046875 74.21875 50.515625 64.515625 
Q 56.984375 54.828125 56.984375 36.375 
Q 56.984375 17.96875 50.515625 8.265625 
Q 44.046875 -1.421875 31.78125 -1.421875 
Q 19.53125 -1.421875 13.0625 8.265625 
Q 6.59375 17.96875 6.59375 36.375 
Q 6.59375 54.828125 13.0625 64.515625 
Q 19.53125 74.21875 31.78125 74.21875 
z
" id="DejaVuSans-30"/>
      </defs>
      <g transform="translate(19.925 127.118437)scale(0.1 -0.1)">
       <use xlink:href="#DejaVuSans-30"/>
      </g>
     </g>
    </g>
    <g id="ytick_2">
     <g id="line2d_2">
      <g>
       <use style="stroke:#000000;stroke-width:0.8;" x="33.2875" xlink:href="#mdd989be3f7" y="67.159219"/>
      </g>
     </g>
     <g id="text_2">
      <!-- 150 -->
      <defs>
       <path d="M 12.40625 8.296875 
L 28.515625 8.296875 
L 28.515625 63.921875 
L 10.984375 60.40625 
L 10.984375 69.390625 
L 28.421875 72.90625 
L 38.28125 72.90625 
L 38.28125 8.296875 
L 54.390625 8.296875 
L 54.390625 0 
L 12.40625 0 
z
" id="DejaVuSans-31"/>
       <path d="M 10.796875 72.90625 
L 49.515625 72.90625 
L 49.515625 64.59375 
L 19.828125 64.59375 
L 19.828125 46.734375 
Q 21.96875 47.46875 24.109375 47.828125 
Q 26.265625 48.1875 28.421875 48.1875 
Q 40.625 48.1875 47.75 41.5 
Q 54.890625 34.8125 54.890625 23.390625 
Q 54.890625 11.625 47.5625 5.09375 
Q 40.234375 -1.421875 26.90625 -1.421875 
Q 22.3125 -1.421875 17.546875 -0.640625 
Q 12.796875 0.140625 7.71875 1.703125 
L 7.71875 11.625 
Q 12.109375 9.234375 16.796875 8.0625 
Q 21.484375 6.890625 26.703125 6.890625 
Q 35.15625 6.890625 40.078125 11.328125 
Q 45.015625 15.765625 45.015625 23.390625 
Q 45.015625 31 40.078125 35.4375 
Q 35.15625 39.890625 26.703125 39.890625 
Q 22.75 39.890625 18.8125 39.015625 
Q 14.890625 38.140625 10.796875 36.28125 
z
" id="DejaVuSans-35"/>
      </defs>
      <g transform="translate(7.2 70.958437)scale(0.1 -0.1)">
       <use xlink:href="#DejaVuSans-31"/>
       <use x="63.623047" xlink:href="#DejaVuSans-35"/>
       <use x="127.246094" xlink:href="#DejaVuSans-30"/>
      </g>
     </g>
    </g>
    <g id="ytick_3">
     <g id="line2d_3">
      <g>
       <use style="stroke:#000000;stroke-width:0.8;" x="33.2875" xlink:href="#mdd989be3f7" y="10.999219"/>
      </g>
     </g>
     <g id="text_3">
      <!-- 300 -->
      <defs>
       <path d="M 40.578125 39.3125 
Q 47.65625 37.796875 51.625 33 
Q 55.609375 28.21875 55.609375 21.1875 
Q 55.609375 10.40625 48.1875 4.484375 
Q 40.765625 -1.421875 27.09375 -1.421875 
Q 22.515625 -1.421875 17.65625 -0.515625 
Q 12.796875 0.390625 7.625 2.203125 
L 7.625 11.71875 
Q 11.71875 9.328125 16.59375 8.109375 
Q 21.484375 6.890625 26.8125 6.890625 
Q 36.078125 6.890625 40.9375 10.546875 
Q 45.796875 14.203125 45.796875 21.1875 
Q 45.796875 27.640625 41.28125 31.265625 
Q 36.765625 34.90625 28.71875 34.90625 
L 20.21875 34.90625 
L 20.21875 43.015625 
L 29.109375 43.015625 
Q 36.375 43.015625 40.234375 45.921875 
Q 44.09375 48.828125 44.09375 54.296875 
Q 44.09375 59.90625 40.109375 62.90625 
Q 36.140625 65.921875 28.71875 65.921875 
Q 24.65625 65.921875 20.015625 65.03125 
Q 15.375 64.15625 9.8125 62.3125 
L 9.8125 71.09375 
Q 15.4375 72.65625 20.34375 73.4375 
Q 25.25 74.21875 29.59375 74.21875 
Q 40.828125 74.21875 47.359375 69.109375 
Q 53.90625 64.015625 53.90625 55.328125 
Q 53.90625 49.265625 50.4375 45.09375 
Q 46.96875 40.921875 40.578125 39.3125 
z
" id="DejaVuSans-33"/>
      </defs>
      <g transform="translate(7.2 14.798437)scale(0.1 -0.1)">
       <use xlink:href="#DejaVuSans-33"/>
       <use x="63.623047" xlink:href="#DejaVuSans-30"/>
       <use x="127.246094" xlink:href="#DejaVuSans-30"/>
      </g>
     </g>
    </g>
   </g>
   <g id="patch_3">
    <path d="M 33.2875 123.319219 
L 33.2875 10.999219 
" style="fill:none;stroke:#000000;stroke-linecap:square;stroke-linejoin:miter;stroke-width:0.8;"/>
   </g>
   <g id="patch_4">
    <path d="M 33.2875 123.319219 
L 91.0875 123.319219 
" style="fill:none;stroke:#000000;stroke-linecap:square;stroke-linejoin:miter;stroke-width:0.8;"/>
   </g>
  </g>
 </g>
 <defs>
  <clipPath id="pe6b5bcf2c5">
   <rect height="112.32" width="57.8" x="33.2875" y="10.999219"/>
  </clipPath>
 </defs>
</svg>
