<?xml version="1.0" encoding="utf-8" standalone="no"?>
<!DOCTYPE svg PUBLIC "-//W3C//DTD SVG 1.1//EN"
  "http://www.w3.org/Graphics/SVG/1.1/DTD/svg11.dtd">
<!-- Created with matplotlib (http://matplotlib.org/) -->
<svg height="136pt" version="1.1" viewBox="0 0 101 136" width="101pt" xmlns="http://www.w3.org/2000/svg" xmlns:xlink="http://www.w3.org/1999/xlink">
 <defs>
  <style type="text/css">
*{stroke-linecap:butt;stroke-linejoin:round;}
  </style>
 </defs>
 <g id="figure_1">
  <g id="patch_1">
   <path d="M 0 136.398125 
L 101.7875 136.398125 
L 101.7875 0 
L 0 0 
z
" style="fill:#ffffff;"/>
  </g>
  <g id="axes_1">
   <g id="patch_2">
    <path d="M 33.2875 123.319219 
L 91.0875 123.319219 
L 91.0875 10.999219 
L 33.2875 10.999219 
z
" style="fill:#ffffff;"/>
   </g>
   <g id="PolyCollection_1">
    <path clip-path="url(#p0510f2e631)" d="M 69.160589 123.319219 
L 55.214411 123.319219 
L 54.290892 122.204633 
L 53.312803 121.090047 
L 52.199326 119.975461 
L 50.894385 118.860875 
L 49.396998 117.74629 
L 47.77061 116.631704 
L 46.127818 115.517118 
L 44.598264 114.402532 
L 43.293845 113.287946 
L 42.284206 112.173361 
L 41.588815 111.058775 
L 41.184173 109.944189 
L 41.019751 108.829603 
L 41.035366 107.715017 
L 41.17484 106.600431 
L 41.393924 105.485846 
L 41.662871 104.37126 
L 41.965269 103.256674 
L 42.294822 102.142088 
L 42.651351 101.027502 
L 43.036842 99.912917 
L 43.452021 98.798331 
L 43.893789 97.683745 
L 44.353788 96.569159 
L 44.818312 95.454573 
L 45.269633 94.339987 
L 45.688591 93.225402 
L 46.057919 92.110816 
L 46.365474 90.99623 
L 46.606394 89.881644 
L 46.783451 88.767058 
L 46.905512 87.652472 
L 46.984736 86.537887 
L 47.033624 85.423301 
L 47.062936 84.308715 
L 47.081023 83.194129 
L 47.094379 82.079543 
L 47.10886 80.964958 
L 47.130888 79.850372 
L 47.168137 78.735786 
L 47.229329 77.6212 
L 47.322949 76.506614 
L 47.454886 75.392028 
L 47.625473 74.277443 
L 47.826847 73.162857 
L 48.041822 72.048271 
L 48.245192 70.933685 
L 48.407647 69.819099 
L 48.501502 68.704514 
L 48.506668 67.589928 
L 48.41512 66.475342 
L 48.232532 65.360756 
L 47.976669 64.24617 
L 47.673099 63.131584 
L 47.349469 62.016999 
L 47.029844 60.902413 
L 46.730478 59.787827 
L 46.457964 58.673241 
L 46.21013 57.558655 
L 45.979273 56.44407 
L 45.756586 55.329484 
L 45.536105 54.214898 
L 45.316662 53.100312 
L 45.10109 51.985726 
L 44.893218 50.87114 
L 44.694144 49.756555 
L 44.499646 48.641969 
L 44.299921 47.527383 
L 44.081755 46.412797 
L 43.832016 45.298211 
L 43.54088 44.183625 
L 43.203384 43.06904 
L 42.818881 41.954454 
L 42.389013 40.839868 
L 41.915585 39.725282 
L 41.399607 38.610696 
L 40.842056 37.496111 
L 40.24581 36.381525 
L 39.617591 35.266939 
L 38.968882 34.152353 
L 38.315716 33.037767 
L 37.67826 31.923181 
L 37.081499 30.808596 
L 36.557718 29.69401 
L 36.150027 28.579424 
L 35.914773 27.464838 
L 35.92017 26.350252 
L 36.239338 25.235667 
L 36.938039 24.121081 
L 38.05977 23.006495 
L 39.61248 21.891909 
L 41.561093 20.777323 
L 43.82828 19.662737 
L 46.303338 18.548152 
L 48.856783 17.433566 
L 51.357223 16.31898 
L 53.687229 15.204394 
L 55.755755 14.089808 
L 57.505646 12.975223 
L 66.869354 12.975223 
L 66.869354 12.975223 
L 68.619245 14.089808 
L 70.687771 15.204394 
L 73.017777 16.31898 
L 75.518217 17.433566 
L 78.071662 18.548152 
L 80.54672 19.662737 
L 82.813907 20.777323 
L 84.76252 21.891909 
L 86.31523 23.006495 
L 87.436961 24.121081 
L 88.135662 25.235667 
L 88.45483 26.350252 
L 88.460227 27.464838 
L 88.224973 28.579424 
L 87.817282 29.69401 
L 87.293501 30.808596 
L 86.69674 31.923181 
L 86.059284 33.037767 
L 85.406118 34.152353 
L 84.757409 35.266939 
L 84.12919 36.381525 
L 83.532944 37.496111 
L 82.975393 38.610696 
L 82.459415 39.725282 
L 81.985987 40.839868 
L 81.556119 41.954454 
L 81.171616 43.06904 
L 80.83412 44.183625 
L 80.542984 45.298211 
L 80.293245 46.412797 
L 80.075079 47.527383 
L 79.875354 48.641969 
L 79.680856 49.756555 
L 79.481782 50.87114 
L 79.27391 51.985726 
L 79.058338 53.100312 
L 78.838895 54.214898 
L 78.618414 55.329484 
L 78.395727 56.44407 
L 78.16487 57.558655 
L 77.917036 58.673241 
L 77.644522 59.787827 
L 77.345156 60.902413 
L 77.025531 62.016999 
L 76.701901 63.131584 
L 76.398331 64.24617 
L 76.142468 65.360756 
L 75.95988 66.475342 
L 75.868332 67.589928 
L 75.873498 68.704514 
L 75.967353 69.819099 
L 76.129808 70.933685 
L 76.333178 72.048271 
L 76.548153 73.162857 
L 76.749527 74.277443 
L 76.920114 75.392028 
L 77.052051 76.506614 
L 77.145671 77.6212 
L 77.206863 78.735786 
L 77.244112 79.850372 
L 77.26614 80.964958 
L 77.280621 82.079543 
L 77.293977 83.194129 
L 77.312064 84.308715 
L 77.341376 85.423301 
L 77.390264 86.537887 
L 77.469488 87.652472 
L 77.591549 88.767058 
L 77.768606 89.881644 
L 78.009526 90.99623 
L 78.317081 92.110816 
L 78.686409 93.225402 
L 79.105367 94.339987 
L 79.556688 95.454573 
L 80.021212 96.569159 
L 80.481211 97.683745 
L 80.922979 98.798331 
L 81.338158 99.912917 
L 81.723649 101.027502 
L 82.080178 102.142088 
L 82.409731 103.256674 
L 82.712129 104.37126 
L 82.981076 105.485846 
L 83.20016 106.600431 
L 83.339634 107.715017 
L 83.355249 108.829603 
L 83.190827 109.944189 
L 82.786185 111.058775 
L 82.090794 112.173361 
L 81.081155 113.287946 
L 79.776736 114.402532 
L 78.247182 115.517118 
L 76.60439 116.631704 
L 74.978002 117.74629 
L 73.480615 118.860875 
L 72.175674 119.975461 
L 71.062197 121.090047 
L 70.084108 122.204633 
L 69.160589 123.319219 
z
" style="fill:#1f77b4;fill-opacity:0.3;"/>
   </g>
   <g id="matplotlib.axis_1"/>
   <g id="matplotlib.axis_2">
    <g id="ytick_1">
     <g id="line2d_1">
      <defs>
       <path d="M 0 0 
L -3.5 0 
" id="ma7ba325b6a" style="stroke:#000000;stroke-width:0.8;"/>
      </defs>
      <g>
       <use style="stroke:#000000;stroke-width:0.8;" x="33.2875" xlink:href="#ma7ba325b6a" y="123.319219"/>
      </g>
     </g>
     <g id="text_1">
      <!-- 0 -->
      <defs>
       <path d="M 31.78125 66.40625 
Q 24.171875 66.40625 20.328125 58.90625 
Q 16.5 51.421875 16.5 36.375 
Q 16.5 21.390625 20.328125 13.890625 
Q 24.171875 6.390625 31.78125 6.390625 
Q 39.453125 6.390625 43.28125 13.890625 
Q 47.125 21.390625 47.125 36.375 
Q 47.125 51.421875 43.28125 58.90625 
Q 39.453125 66.40625 31.78125 66.40625 
z
M 31.78125 74.21875 
Q 44.046875 74.21875 50.515625 64.515625 
Q 56.984375 54.828125 56.984375 36.375 
Q 56.984375 17.96875 50.515625 8.265625 
Q 44.046875 -1.421875 31.78125 -1.421875 
Q 19.53125 -1.421875 13.0625 8.265625 
Q 6.59375 17.96875 6.59375 36.375 
Q 6.59375 54.828125 13.0625 64.515625 
Q 19.53125 74.21875 31.78125 74.21875 
z
" id="DejaVuSans-30"/>
      </defs>
      <g transform="translate(19.925 127.118437)scale(0.1 -0.1)">
       <use xlink:href="#DejaVuSans-30"/>
      </g>
     </g>
    </g>
    <g id="ytick_2">
     <g id="line2d_2">
      <g>
       <use style="stroke:#000000;stroke-width:0.8;" x="33.2875" xlink:href="#ma7ba325b6a" y="67.159219"/>
      </g>
     </g>
     <g id="text_2">
      <!-- 150 -->
      <defs>
       <path d="M 12.40625 8.296875 
L 28.515625 8.296875 
L 28.515625 63.921875 
L 10.984375 60.40625 
L 10.984375 69.390625 
L 28.421875 72.90625 
L 38.28125 72.90625 
L 38.28125 8.296875 
L 54.390625 8.296875 
L 54.390625 0 
L 12.40625 0 
z
" id="DejaVuSans-31"/>
       <path d="M 10.796875 72.90625 
L 49.515625 72.90625 
L 49.515625 64.59375 
L 19.828125 64.59375 
L 19.828125 46.734375 
Q 21.96875 47.46875 24.109375 47.828125 
Q 26.265625 48.1875 28.421875 48.1875 
Q 40.625 48.1875 47.75 41.5 
Q 54.890625 34.8125 54.890625 23.390625 
Q 54.890625 11.625 47.5625 5.09375 
Q 40.234375 -1.421875 26.90625 -1.421875 
Q 22.3125 -1.421875 17.546875 -0.640625 
Q 12.796875 0.140625 7.71875 1.703125 
L 7.71875 11.625 
Q 12.109375 9.234375 16.796875 8.0625 
Q 21.484375 6.890625 26.703125 6.890625 
Q 35.15625 6.890625 40.078125 11.328125 
Q 45.015625 15.765625 45.015625 23.390625 
Q 45.015625 31 40.078125 35.4375 
Q 35.15625 39.890625 26.703125 39.890625 
Q 22.75 39.890625 18.8125 39.015625 
Q 14.890625 38.140625 10.796875 36.28125 
z
" id="DejaVuSans-35"/>
      </defs>
      <g transform="translate(7.2 70.958437)scale(0.1 -0.1)">
       <use xlink:href="#DejaVuSans-31"/>
       <use x="63.623047" xlink:href="#DejaVuSans-35"/>
       <use x="127.246094" xlink:href="#DejaVuSans-30"/>
      </g>
     </g>
    </g>
    <g id="ytick_3">
     <g id="line2d_3">
      <g>
       <use style="stroke:#000000;stroke-width:0.8;" x="33.2875" xlink:href="#ma7ba325b6a" y="10.999219"/>
      </g>
     </g>
     <g id="text_3">
      <!-- 300 -->
      <defs>
       <path d="M 40.578125 39.3125 
Q 47.65625 37.796875 51.625 33 
Q 55.609375 28.21875 55.609375 21.1875 
Q 55.609375 10.40625 48.1875 4.484375 
Q 40.765625 -1.421875 27.09375 -1.421875 
Q 22.515625 -1.421875 17.65625 -0.515625 
Q 12.796875 0.390625 7.625 2.203125 
L 7.625 11.71875 
Q 11.71875 9.328125 16.59375 8.109375 
Q 21.484375 6.890625 26.8125 6.890625 
Q 36.078125 6.890625 40.9375 10.546875 
Q 45.796875 14.203125 45.796875 21.1875 
Q 45.796875 27.640625 41.28125 31.265625 
Q 36.765625 34.90625 28.71875 34.90625 
L 20.21875 34.90625 
L 20.21875 43.015625 
L 29.109375 43.015625 
Q 36.375 43.015625 40.234375 45.921875 
Q 44.09375 48.828125 44.09375 54.296875 
Q 44.09375 59.90625 40.109375 62.90625 
Q 36.140625 65.921875 28.71875 65.921875 
Q 24.65625 65.921875 20.015625 65.03125 
Q 15.375 64.15625 9.8125 62.3125 
L 9.8125 71.09375 
Q 15.4375 72.65625 20.34375 73.4375 
Q 25.25 74.21875 29.59375 74.21875 
Q 40.828125 74.21875 47.359375 69.109375 
Q 53.90625 64.015625 53.90625 55.328125 
Q 53.90625 49.265625 50.4375 45.09375 
Q 46.96875 40.921875 40.578125 39.3125 
z
" id="DejaVuSans-33"/>
      </defs>
      <g transform="translate(7.2 14.798437)scale(0.1 -0.1)">
       <use xlink:href="#DejaVuSans-33"/>
       <use x="63.623047" xlink:href="#DejaVuSans-30"/>
       <use x="127.246094" xlink:href="#DejaVuSans-30"/>
      </g>
     </g>
    </g>
   </g>
   <g id="patch_3">
    <path d="M 33.2875 123.319219 
L 33.2875 10.999219 
" style="fill:none;stroke:#000000;stroke-linecap:square;stroke-linejoin:miter;stroke-width:0.8;"/>
   </g>
   <g id="patch_4">
    <path d="M 33.2875 123.319219 
L 91.0875 123.319219 
" style="fill:none;stroke:#000000;stroke-linecap:square;stroke-linejoin:miter;stroke-width:0.8;"/>
   </g>
  </g>
 </g>
 <defs>
  <clipPath id="p0510f2e631">
   <rect height="112.32" width="57.8" x="33.2875" y="10.999219"/>
  </clipPath>
 </defs>
</svg>
