<?xml version="1.0" encoding="utf-8" standalone="no"?>
<!DOCTYPE svg PUBLIC "-//W3C//DTD SVG 1.1//EN"
  "http://www.w3.org/Graphics/SVG/1.1/DTD/svg11.dtd">
<!-- Created with matplotlib (http://matplotlib.org/) -->
<svg height="136pt" version="1.1" viewBox="0 0 101 136" width="101pt" xmlns="http://www.w3.org/2000/svg" xmlns:xlink="http://www.w3.org/1999/xlink">
 <defs>
  <style type="text/css">
*{stroke-linecap:butt;stroke-linejoin:round;}
  </style>
 </defs>
 <g id="figure_1">
  <g id="patch_1">
   <path d="M 0 136.398125 
L 101.7875 136.398125 
L 101.7875 0 
L 0 0 
z
" style="fill:#ffffff;"/>
  </g>
  <g id="axes_1">
   <g id="patch_2">
    <path d="M 33.2875 123.319219 
L 91.0875 123.319219 
L 91.0875 10.999219 
L 33.2875 10.999219 
z
" style="fill:#ffffff;"/>
   </g>
   <g id="PolyCollection_1">
    <path clip-path="url(#pab3b3777e4)" d="M 62.79537 123.319219 
L 61.57963 123.319219 
L 61.530744 122.241763 
L 61.478914 121.164306 
L 61.387469 120.08685 
L 61.225241 119.009394 
L 60.980718 117.931938 
L 60.665775 116.854482 
L 60.308371 115.777025 
L 59.940138 114.699569 
L 59.586215 113.622113 
L 59.261394 112.544657 
L 58.971874 111.467201 
L 58.719225 110.389745 
L 58.503362 109.312288 
L 58.323376 108.234832 
L 58.17707 107.157376 
L 58.060671 106.07992 
L 57.96938 105.002464 
L 57.898316 103.925007 
L 57.842973 102.847551 
L 57.798991 101.770095 
L 57.762045 100.692639 
L 57.728699 99.615183 
L 57.697999 98.537727 
L 57.672347 97.46027 
L 57.656284 96.382814 
L 57.653492 95.305358 
L 57.663935 94.227902 
L 57.683088 93.150446 
L 57.703541 92.072989 
L 57.717668 90.995533 
L 57.719872 89.918077 
L 57.707835 88.840621 
L 57.68294 87.763165 
L 57.649976 86.685709 
L 57.615924 85.608252 
L 57.587792 84.530796 
L 57.570165 83.45334 
L 57.563603 82.375884 
L 57.564719 81.298428 
L 57.567769 80.220971 
L 57.566813 79.143515 
L 57.557584 78.066059 
L 57.538917 76.988603 
L 57.513834 75.911147 
L 57.489908 74.83369 
L 57.477945 73.756234 
L 57.488469 72.678778 
L 57.526908 71.601322 
L 57.589715 70.523866 
L 57.66361 69.44641 
L 57.728663 68.368953 
L 57.764005 67.291497 
L 57.75375 66.214041 
L 57.690986 65.136585 
L 57.578833 64.059129 
L 57.428716 62.981672 
L 57.256344 61.904216 
L 57.075184 60.82676 
L 56.88582 59.749304 
L 56.658683 58.671848 
L 56.309715 57.594392 
L 55.676858 56.516935 
L 54.519451 55.439479 
L 52.572847 54.362023 
L 49.676988 53.284567 
L 45.946868 52.207111 
L 41.886165 51.129654 
L 38.325438 50.052198 
L 36.147498 48.974742 
L 35.914773 47.897286 
L 37.614921 46.81983 
L 40.684926 45.742374 
L 44.290192 44.664917 
L 47.67513 43.587461 
L 50.390445 42.510005 
L 52.322856 41.432549 
L 53.586071 40.355093 
L 54.381879 39.277636 
L 54.905485 38.20018 
L 55.308056 37.122724 
L 55.692568 36.045268 
L 56.11745 34.967812 
L 56.598829 33.890356 
L 57.115526 32.812899 
L 57.622154 31.735443 
L 58.068894 30.657987 
L 58.420716 29.580531 
L 58.669054 28.503075 
L 58.833352 27.425618 
L 58.954054 26.348162 
L 59.080274 25.270706 
L 59.255636 24.19325 
L 59.50594 23.115794 
L 59.832406 22.038338 
L 60.213006 20.960881 
L 60.611494 19.883425 
L 60.990185 18.805969 
L 61.320796 17.728513 
L 61.589241 16.651057 
L 62.785759 16.651057 
L 62.785759 16.651057 
L 63.054204 17.728513 
L 63.384815 18.805969 
L 63.763506 19.883425 
L 64.161994 20.960881 
L 64.542594 22.038338 
L 64.86906 23.115794 
L 65.119364 24.19325 
L 65.294726 25.270706 
L 65.420946 26.348162 
L 65.541648 27.425618 
L 65.705946 28.503075 
L 65.954284 29.580531 
L 66.306106 30.657987 
L 66.752846 31.735443 
L 67.259474 32.812899 
L 67.776171 33.890356 
L 68.25755 34.967812 
L 68.682432 36.045268 
L 69.066944 37.122724 
L 69.469515 38.20018 
L 69.993121 39.277636 
L 70.788929 40.355093 
L 72.052144 41.432549 
L 73.984555 42.510005 
L 76.69987 43.587461 
L 80.084808 44.664917 
L 83.690074 45.742374 
L 86.760079 46.81983 
L 88.460227 47.897286 
L 88.227502 48.974742 
L 86.049562 50.052198 
L 82.488835 51.129654 
L 78.428132 52.207111 
L 74.698012 53.284567 
L 71.802153 54.362023 
L 69.855549 55.439479 
L 68.698142 56.516935 
L 68.065285 57.594392 
L 67.716317 58.671848 
L 67.48918 59.749304 
L 67.299816 60.82676 
L 67.118656 61.904216 
L 66.946284 62.981672 
L 66.796167 64.059129 
L 66.684014 65.136585 
L 66.62125 66.214041 
L 66.610995 67.291497 
L 66.646337 68.368953 
L 66.71139 69.44641 
L 66.785285 70.523866 
L 66.848092 71.601322 
L 66.886531 72.678778 
L 66.897055 73.756234 
L 66.885092 74.83369 
L 66.861166 75.911147 
L 66.836083 76.988603 
L 66.817416 78.066059 
L 66.808187 79.143515 
L 66.807231 80.220971 
L 66.810281 81.298428 
L 66.811397 82.375884 
L 66.804835 83.45334 
L 66.787208 84.530796 
L 66.759076 85.608252 
L 66.725024 86.685709 
L 66.69206 87.763165 
L 66.667165 88.840621 
L 66.655128 89.918077 
L 66.657332 90.995533 
L 66.671459 92.072989 
L 66.691912 93.150446 
L 66.711065 94.227902 
L 66.721508 95.305358 
L 66.718716 96.382814 
L 66.702653 97.46027 
L 66.677001 98.537727 
L 66.646301 99.615183 
L 66.612955 100.692639 
L 66.576009 101.770095 
L 66.532027 102.847551 
L 66.476684 103.925007 
L 66.40562 105.002464 
L 66.314329 106.07992 
L 66.19793 107.157376 
L 66.051624 108.234832 
L 65.871638 109.312288 
L 65.655775 110.389745 
L 65.403126 111.467201 
L 65.113606 112.544657 
L 64.788785 113.622113 
L 64.434862 114.699569 
L 64.066629 115.777025 
L 63.709225 116.854482 
L 63.394282 117.931938 
L 63.149759 119.009394 
L 62.987531 120.08685 
L 62.896086 121.164306 
L 62.844256 122.241763 
L 62.79537 123.319219 
z
" style="fill:#1f77b4;fill-opacity:0.3;"/>
   </g>
   <g id="matplotlib.axis_1"/>
   <g id="matplotlib.axis_2">
    <g id="ytick_1">
     <g id="line2d_1">
      <defs>
       <path d="M 0 0 
L -3.5 0 
" id="m565d04869f" style="stroke:#000000;stroke-width:0.8;"/>
      </defs>
      <g>
       <use style="stroke:#000000;stroke-width:0.8;" x="33.2875" xlink:href="#m565d04869f" y="123.319219"/>
      </g>
     </g>
     <g id="text_1">
      <!-- 0 -->
      <defs>
       <path d="M 31.78125 66.40625 
Q 24.171875 66.40625 20.328125 58.90625 
Q 16.5 51.421875 16.5 36.375 
Q 16.5 21.390625 20.328125 13.890625 
Q 24.171875 6.390625 31.78125 6.390625 
Q 39.453125 6.390625 43.28125 13.890625 
Q 47.125 21.390625 47.125 36.375 
Q 47.125 51.421875 43.28125 58.90625 
Q 39.453125 66.40625 31.78125 66.40625 
z
M 31.78125 74.21875 
Q 44.046875 74.21875 50.515625 64.515625 
Q 56.984375 54.828125 56.984375 36.375 
Q 56.984375 17.96875 50.515625 8.265625 
Q 44.046875 -1.421875 31.78125 -1.421875 
Q 19.53125 -1.421875 13.0625 8.265625 
Q 6.59375 17.96875 6.59375 36.375 
Q 6.59375 54.828125 13.0625 64.515625 
Q 19.53125 74.21875 31.78125 74.21875 
z
" id="DejaVuSans-30"/>
      </defs>
      <g transform="translate(19.925 127.118437)scale(0.1 -0.1)">
       <use xlink:href="#DejaVuSans-30"/>
      </g>
     </g>
    </g>
    <g id="ytick_2">
     <g id="line2d_2">
      <g>
       <use style="stroke:#000000;stroke-width:0.8;" x="33.2875" xlink:href="#m565d04869f" y="67.159219"/>
      </g>
     </g>
     <g id="text_2">
      <!-- 150 -->
      <defs>
       <path d="M 12.40625 8.296875 
L 28.515625 8.296875 
L 28.515625 63.921875 
L 10.984375 60.40625 
L 10.984375 69.390625 
L 28.421875 72.90625 
L 38.28125 72.90625 
L 38.28125 8.296875 
L 54.390625 8.296875 
L 54.390625 0 
L 12.40625 0 
z
" id="DejaVuSans-31"/>
       <path d="M 10.796875 72.90625 
L 49.515625 72.90625 
L 49.515625 64.59375 
L 19.828125 64.59375 
L 19.828125 46.734375 
Q 21.96875 47.46875 24.109375 47.828125 
Q 26.265625 48.1875 28.421875 48.1875 
Q 40.625 48.1875 47.75 41.5 
Q 54.890625 34.8125 54.890625 23.390625 
Q 54.890625 11.625 47.5625 5.09375 
Q 40.234375 -1.421875 26.90625 -1.421875 
Q 22.3125 -1.421875 17.546875 -0.640625 
Q 12.796875 0.140625 7.71875 1.703125 
L 7.71875 11.625 
Q 12.109375 9.234375 16.796875 8.0625 
Q 21.484375 6.890625 26.703125 6.890625 
Q 35.15625 6.890625 40.078125 11.328125 
Q 45.015625 15.765625 45.015625 23.390625 
Q 45.015625 31 40.078125 35.4375 
Q 35.15625 39.890625 26.703125 39.890625 
Q 22.75 39.890625 18.8125 39.015625 
Q 14.890625 38.140625 10.796875 36.28125 
z
" id="DejaVuSans-35"/>
      </defs>
      <g transform="translate(7.2 70.958437)scale(0.1 -0.1)">
       <use xlink:href="#DejaVuSans-31"/>
       <use x="63.623047" xlink:href="#DejaVuSans-35"/>
       <use x="127.246094" xlink:href="#DejaVuSans-30"/>
      </g>
     </g>
    </g>
    <g id="ytick_3">
     <g id="line2d_3">
      <g>
       <use style="stroke:#000000;stroke-width:0.8;" x="33.2875" xlink:href="#m565d04869f" y="10.999219"/>
      </g>
     </g>
     <g id="text_3">
      <!-- 300 -->
      <defs>
       <path d="M 40.578125 39.3125 
Q 47.65625 37.796875 51.625 33 
Q 55.609375 28.21875 55.609375 21.1875 
Q 55.609375 10.40625 48.1875 4.484375 
Q 40.765625 -1.421875 27.09375 -1.421875 
Q 22.515625 -1.421875 17.65625 -0.515625 
Q 12.796875 0.390625 7.625 2.203125 
L 7.625 11.71875 
Q 11.71875 9.328125 16.59375 8.109375 
Q 21.484375 6.890625 26.8125 6.890625 
Q 36.078125 6.890625 40.9375 10.546875 
Q 45.796875 14.203125 45.796875 21.1875 
Q 45.796875 27.640625 41.28125 31.265625 
Q 36.765625 34.90625 28.71875 34.90625 
L 20.21875 34.90625 
L 20.21875 43.015625 
L 29.109375 43.015625 
Q 36.375 43.015625 40.234375 45.921875 
Q 44.09375 48.828125 44.09375 54.296875 
Q 44.09375 59.90625 40.109375 62.90625 
Q 36.140625 65.921875 28.71875 65.921875 
Q 24.65625 65.921875 20.015625 65.03125 
Q 15.375 64.15625 9.8125 62.3125 
L 9.8125 71.09375 
Q 15.4375 72.65625 20.34375 73.4375 
Q 25.25 74.21875 29.59375 74.21875 
Q 40.828125 74.21875 47.359375 69.109375 
Q 53.90625 64.015625 53.90625 55.328125 
Q 53.90625 49.265625 50.4375 45.09375 
Q 46.96875 40.921875 40.578125 39.3125 
z
" id="DejaVuSans-33"/>
      </defs>
      <g transform="translate(7.2 14.798437)scale(0.1 -0.1)">
       <use xlink:href="#DejaVuSans-33"/>
       <use x="63.623047" xlink:href="#DejaVuSans-30"/>
       <use x="127.246094" xlink:href="#DejaVuSans-30"/>
      </g>
     </g>
    </g>
   </g>
   <g id="patch_3">
    <path d="M 33.2875 123.319219 
L 33.2875 10.999219 
" style="fill:none;stroke:#000000;stroke-linecap:square;stroke-linejoin:miter;stroke-width:0.8;"/>
   </g>
   <g id="patch_4">
    <path d="M 33.2875 123.319219 
L 91.0875 123.319219 
" style="fill:none;stroke:#000000;stroke-linecap:square;stroke-linejoin:miter;stroke-width:0.8;"/>
   </g>
  </g>
 </g>
 <defs>
  <clipPath id="pab3b3777e4">
   <rect height="112.32" width="57.8" x="33.2875" y="10.999219"/>
  </clipPath>
 </defs>
</svg>
