<?xml version="1.0" encoding="utf-8" standalone="no"?>
<!DOCTYPE svg PUBLIC "-//W3C//DTD SVG 1.1//EN"
  "http://www.w3.org/Graphics/SVG/1.1/DTD/svg11.dtd">
<!-- Created with matplotlib (http://matplotlib.org/) -->
<svg height="136pt" version="1.1" viewBox="0 0 101 136" width="101pt" xmlns="http://www.w3.org/2000/svg" xmlns:xlink="http://www.w3.org/1999/xlink">
 <defs>
  <style type="text/css">
*{stroke-linecap:butt;stroke-linejoin:round;}
  </style>
 </defs>
 <g id="figure_1">
  <g id="patch_1">
   <path d="M 0 136.398125 
L 101.7875 136.398125 
L 101.7875 0 
L 0 0 
z
" style="fill:#ffffff;"/>
  </g>
  <g id="axes_1">
   <g id="patch_2">
    <path d="M 33.2875 123.319219 
L 91.0875 123.319219 
L 91.0875 10.999219 
L 33.2875 10.999219 
z
" style="fill:#ffffff;"/>
   </g>
   <g id="PolyCollection_1">
    <path clip-path="url(#p67e85ccfcd)" d="M 62.583558 123.319219 
L 61.791442 123.319219 
L 61.810559 122.246039 
L 61.857389 121.17286 
L 61.867434 120.099681 
L 61.790649 119.026501 
L 61.61945 117.953322 
L 61.384683 116.880143 
L 61.131696 115.806963 
L 60.898478 114.733784 
L 60.707468 113.660605 
L 60.566523 112.587425 
L 60.47 111.514246 
L 60.399797 110.441067 
L 60.332295 109.367887 
L 60.251082 108.294708 
L 60.15663 107.221529 
L 60.064606 106.148349 
L 59.993723 105.07517 
L 59.95186 104.001991 
L 59.927279 102.928811 
L 59.878942 101.855632 
L 59.701804 100.782453 
L 59.142357 99.709273 
L 57.705501 98.636094 
L 54.734944 97.562915 
L 49.884191 96.489735 
L 43.825217 95.416556 
L 38.447484 94.343377 
L 35.914773 93.270197 
L 37.153625 92.197018 
L 41.230671 91.123839 
L 46.207959 90.050659 
L 50.496043 88.97748 
L 53.492742 87.9043 
L 55.348102 86.831121 
L 56.456748 85.757942 
L 57.145306 84.684762 
L 57.605322 83.611583 
L 57.937221 82.538404 
L 58.20042 81.465224 
L 58.438104 80.392045 
L 58.684166 79.318866 
L 58.962311 78.245686 
L 59.279576 77.172507 
L 59.619727 76.099328 
L 59.947435 75.026148 
L 60.225138 73.952969 
L 60.430885 72.87979 
L 60.566023 71.80661 
L 60.65129 70.733431 
L 60.715203 69.660252 
L 60.780379 68.587072 
L 60.855009 67.513893 
L 60.933508 66.440714 
L 61.003371 65.367534 
L 61.053144 64.294355 
L 61.078566 63.221176 
L 61.084287 62.147996 
L 61.079725 61.074817 
L 61.072956 60.001638 
L 61.068721 58.928458 
L 61.070541 57.855279 
L 61.081245 56.7821 
L 61.099942 55.70892 
L 61.120055 54.635741 
L 61.131971 53.562562 
L 61.127896 52.489382 
L 61.105506 51.416203 
L 61.07019 50.343024 
L 61.035318 49.269844 
L 61.016985 48.196665 
L 61.023479 47.123486 
L 61.048768 46.050306 
L 61.079073 44.977127 
L 61.107185 43.903947 
L 61.138036 42.830768 
L 61.178832 41.757589 
L 61.227299 40.684409 
L 61.274183 39.61123 
L 61.315905 38.538051 
L 61.358756 37.464871 
L 61.408267 36.391692 
L 61.458437 35.318513 
L 61.495589 34.245333 
L 61.512224 33.172154 
L 61.513927 32.098975 
L 61.512261 31.025795 
L 61.514067 29.952616 
L 61.520076 28.879437 
L 61.53154 27.806257 
L 61.553732 26.733078 
L 61.592202 25.659899 
L 61.648487 24.586719 
L 61.72014 23.51354 
L 61.802183 22.440361 
L 61.887188 21.367181 
L 61.966202 20.294002 
L 62.032199 19.220823 
L 62.083019 18.147643 
L 62.120554 17.074464 
L 62.254446 17.074464 
L 62.254446 17.074464 
L 62.291981 18.147643 
L 62.342801 19.220823 
L 62.408798 20.294002 
L 62.487812 21.367181 
L 62.572817 22.440361 
L 62.65486 23.51354 
L 62.726513 24.586719 
L 62.782798 25.659899 
L 62.821268 26.733078 
L 62.84346 27.806257 
L 62.854924 28.879437 
L 62.860933 29.952616 
L 62.862739 31.025795 
L 62.861073 32.098975 
L 62.862776 33.172154 
L 62.879411 34.245333 
L 62.916563 35.318513 
L 62.966733 36.391692 
L 63.016244 37.464871 
L 63.059095 38.538051 
L 63.100817 39.61123 
L 63.147701 40.684409 
L 63.196168 41.757589 
L 63.236964 42.830768 
L 63.267815 43.903947 
L 63.295927 44.977127 
L 63.326232 46.050306 
L 63.351521 47.123486 
L 63.358015 48.196665 
L 63.339682 49.269844 
L 63.30481 50.343024 
L 63.269494 51.416203 
L 63.247104 52.489382 
L 63.243029 53.562562 
L 63.254945 54.635741 
L 63.275058 55.70892 
L 63.293755 56.7821 
L 63.304459 57.855279 
L 63.306279 58.928458 
L 63.302044 60.001638 
L 63.295275 61.074817 
L 63.290713 62.147996 
L 63.296434 63.221176 
L 63.321856 64.294355 
L 63.371629 65.367534 
L 63.441492 66.440714 
L 63.519991 67.513893 
L 63.594621 68.587072 
L 63.659797 69.660252 
L 63.72371 70.733431 
L 63.808977 71.80661 
L 63.944115 72.87979 
L 64.149862 73.952969 
L 64.427565 75.026148 
L 64.755273 76.099328 
L 65.095424 77.172507 
L 65.412689 78.245686 
L 65.690834 79.318866 
L 65.936896 80.392045 
L 66.17458 81.465224 
L 66.437779 82.538404 
L 66.769678 83.611583 
L 67.229694 84.684762 
L 67.918252 85.757942 
L 69.026898 86.831121 
L 70.882258 87.9043 
L 73.878957 88.97748 
L 78.167041 90.050659 
L 83.144329 91.123839 
L 87.221375 92.197018 
L 88.460227 93.270197 
L 85.927516 94.343377 
L 80.549783 95.416556 
L 74.490809 96.489735 
L 69.640056 97.562915 
L 66.669499 98.636094 
L 65.232643 99.709273 
L 64.673196 100.782453 
L 64.496058 101.855632 
L 64.447721 102.928811 
L 64.42314 104.001991 
L 64.381277 105.07517 
L 64.310394 106.148349 
L 64.21837 107.221529 
L 64.123918 108.294708 
L 64.042705 109.367887 
L 63.975203 110.441067 
L 63.905 111.514246 
L 63.808477 112.587425 
L 63.667532 113.660605 
L 63.476522 114.733784 
L 63.243304 115.806963 
L 62.990317 116.880143 
L 62.75555 117.953322 
L 62.584351 119.026501 
L 62.507566 120.099681 
L 62.517611 121.17286 
L 62.564441 122.246039 
L 62.583558 123.319219 
z
" style="fill:#1f77b4;fill-opacity:0.3;"/>
   </g>
   <g id="matplotlib.axis_1"/>
   <g id="matplotlib.axis_2">
    <g id="ytick_1">
     <g id="line2d_1">
      <defs>
       <path d="M 0 0 
L -3.5 0 
" id="m8523eccfb6" style="stroke:#000000;stroke-width:0.8;"/>
      </defs>
      <g>
       <use style="stroke:#000000;stroke-width:0.8;" x="33.2875" xlink:href="#m8523eccfb6" y="123.319219"/>
      </g>
     </g>
     <g id="text_1">
      <!-- 0 -->
      <defs>
       <path d="M 31.78125 66.40625 
Q 24.171875 66.40625 20.328125 58.90625 
Q 16.5 51.421875 16.5 36.375 
Q 16.5 21.390625 20.328125 13.890625 
Q 24.171875 6.390625 31.78125 6.390625 
Q 39.453125 6.390625 43.28125 13.890625 
Q 47.125 21.390625 47.125 36.375 
Q 47.125 51.421875 43.28125 58.90625 
Q 39.453125 66.40625 31.78125 66.40625 
z
M 31.78125 74.21875 
Q 44.046875 74.21875 50.515625 64.515625 
Q 56.984375 54.828125 56.984375 36.375 
Q 56.984375 17.96875 50.515625 8.265625 
Q 44.046875 -1.421875 31.78125 -1.421875 
Q 19.53125 -1.421875 13.0625 8.265625 
Q 6.59375 17.96875 6.59375 36.375 
Q 6.59375 54.828125 13.0625 64.515625 
Q 19.53125 74.21875 31.78125 74.21875 
z
" id="DejaVuSans-30"/>
      </defs>
      <g transform="translate(19.925 127.118437)scale(0.1 -0.1)">
       <use xlink:href="#DejaVuSans-30"/>
      </g>
     </g>
    </g>
    <g id="ytick_2">
     <g id="line2d_2">
      <g>
       <use style="stroke:#000000;stroke-width:0.8;" x="33.2875" xlink:href="#m8523eccfb6" y="67.159219"/>
      </g>
     </g>
     <g id="text_2">
      <!-- 150 -->
      <defs>
       <path d="M 12.40625 8.296875 
L 28.515625 8.296875 
L 28.515625 63.921875 
L 10.984375 60.40625 
L 10.984375 69.390625 
L 28.421875 72.90625 
L 38.28125 72.90625 
L 38.28125 8.296875 
L 54.390625 8.296875 
L 54.390625 0 
L 12.40625 0 
z
" id="DejaVuSans-31"/>
       <path d="M 10.796875 72.90625 
L 49.515625 72.90625 
L 49.515625 64.59375 
L 19.828125 64.59375 
L 19.828125 46.734375 
Q 21.96875 47.46875 24.109375 47.828125 
Q 26.265625 48.1875 28.421875 48.1875 
Q 40.625 48.1875 47.75 41.5 
Q 54.890625 34.8125 54.890625 23.390625 
Q 54.890625 11.625 47.5625 5.09375 
Q 40.234375 -1.421875 26.90625 -1.421875 
Q 22.3125 -1.421875 17.546875 -0.640625 
Q 12.796875 0.140625 7.71875 1.703125 
L 7.71875 11.625 
Q 12.109375 9.234375 16.796875 8.0625 
Q 21.484375 6.890625 26.703125 6.890625 
Q 35.15625 6.890625 40.078125 11.328125 
Q 45.015625 15.765625 45.015625 23.390625 
Q 45.015625 31 40.078125 35.4375 
Q 35.15625 39.890625 26.703125 39.890625 
Q 22.75 39.890625 18.8125 39.015625 
Q 14.890625 38.140625 10.796875 36.28125 
z
" id="DejaVuSans-35"/>
      </defs>
      <g transform="translate(7.2 70.958437)scale(0.1 -0.1)">
       <use xlink:href="#DejaVuSans-31"/>
       <use x="63.623047" xlink:href="#DejaVuSans-35"/>
       <use x="127.246094" xlink:href="#DejaVuSans-30"/>
      </g>
     </g>
    </g>
    <g id="ytick_3">
     <g id="line2d_3">
      <g>
       <use style="stroke:#000000;stroke-width:0.8;" x="33.2875" xlink:href="#m8523eccfb6" y="10.999219"/>
      </g>
     </g>
     <g id="text_3">
      <!-- 300 -->
      <defs>
       <path d="M 40.578125 39.3125 
Q 47.65625 37.796875 51.625 33 
Q 55.609375 28.21875 55.609375 21.1875 
Q 55.609375 10.40625 48.1875 4.484375 
Q 40.765625 -1.421875 27.09375 -1.421875 
Q 22.515625 -1.421875 17.65625 -0.515625 
Q 12.796875 0.390625 7.625 2.203125 
L 7.625 11.71875 
Q 11.71875 9.328125 16.59375 8.109375 
Q 21.484375 6.890625 26.8125 6.890625 
Q 36.078125 6.890625 40.9375 10.546875 
Q 45.796875 14.203125 45.796875 21.1875 
Q 45.796875 27.640625 41.28125 31.265625 
Q 36.765625 34.90625 28.71875 34.90625 
L 20.21875 34.90625 
L 20.21875 43.015625 
L 29.109375 43.015625 
Q 36.375 43.015625 40.234375 45.921875 
Q 44.09375 48.828125 44.09375 54.296875 
Q 44.09375 59.90625 40.109375 62.90625 
Q 36.140625 65.921875 28.71875 65.921875 
Q 24.65625 65.921875 20.015625 65.03125 
Q 15.375 64.15625 9.8125 62.3125 
L 9.8125 71.09375 
Q 15.4375 72.65625 20.34375 73.4375 
Q 25.25 74.21875 29.59375 74.21875 
Q 40.828125 74.21875 47.359375 69.109375 
Q 53.90625 64.015625 53.90625 55.328125 
Q 53.90625 49.265625 50.4375 45.09375 
Q 46.96875 40.921875 40.578125 39.3125 
z
" id="DejaVuSans-33"/>
      </defs>
      <g transform="translate(7.2 14.798437)scale(0.1 -0.1)">
       <use xlink:href="#DejaVuSans-33"/>
       <use x="63.623047" xlink:href="#DejaVuSans-30"/>
       <use x="127.246094" xlink:href="#DejaVuSans-30"/>
      </g>
     </g>
    </g>
   </g>
   <g id="patch_3">
    <path d="M 33.2875 123.319219 
L 33.2875 10.999219 
" style="fill:none;stroke:#000000;stroke-linecap:square;stroke-linejoin:miter;stroke-width:0.8;"/>
   </g>
   <g id="patch_4">
    <path d="M 33.2875 123.319219 
L 91.0875 123.319219 
" style="fill:none;stroke:#000000;stroke-linecap:square;stroke-linejoin:miter;stroke-width:0.8;"/>
   </g>
  </g>
 </g>
 <defs>
  <clipPath id="p67e85ccfcd">
   <rect height="112.32" width="57.8" x="33.2875" y="10.999219"/>
  </clipPath>
 </defs>
</svg>
