<?xml version="1.0" encoding="utf-8" standalone="no"?>
<!DOCTYPE svg PUBLIC "-//W3C//DTD SVG 1.1//EN"
  "http://www.w3.org/Graphics/SVG/1.1/DTD/svg11.dtd">
<!-- Created with matplotlib (http://matplotlib.org/) -->
<svg height="136pt" version="1.1" viewBox="0 0 101 136" width="101pt" xmlns="http://www.w3.org/2000/svg" xmlns:xlink="http://www.w3.org/1999/xlink">
 <defs>
  <style type="text/css">
*{stroke-linecap:butt;stroke-linejoin:round;}
  </style>
 </defs>
 <g id="figure_1">
  <g id="patch_1">
   <path d="M 0 136.398125 
L 101.7875 136.398125 
L 101.7875 0 
L 0 0 
z
" style="fill:#ffffff;"/>
  </g>
  <g id="axes_1">
   <g id="patch_2">
    <path d="M 33.2875 123.319219 
L 91.0875 123.319219 
L 91.0875 10.999219 
L 33.2875 10.999219 
z
" style="fill:#ffffff;"/>
   </g>
   <g id="PolyCollection_1">
    <path clip-path="url(#p161a6d4c17)" d="M 62.692135 123.319219 
L 61.682865 123.319219 
L 61.687553 122.244432 
L 61.715869 121.169645 
L 61.708749 120.094857 
L 61.618866 119.02007 
L 61.435703 117.945283 
L 61.183876 116.870496 
L 60.902841 115.795709 
L 60.626846 114.720922 
L 60.376321 113.646135 
L 60.158853 112.571348 
L 59.973171 111.49656 
L 59.813458 110.421773 
L 59.674203 109.346986 
L 59.554049 108.272199 
L 59.455831 107.197412 
L 59.38293 106.122625 
L 59.335248 105.047838 
L 59.307519 103.973051 
L 59.290272 102.898263 
L 59.272613 101.823476 
L 59.245894 100.748689 
L 59.20695 99.673902 
L 59.159194 98.599115 
L 59.110728 97.524328 
L 59.070489 96.449541 
L 59.044824 95.374754 
L 59.035986 94.299966 
L 59.041959 93.225179 
L 59.056494 92.150392 
L 59.070102 91.075605 
L 59.073461 90.000818 
L 59.062216 88.926031 
L 59.03973 87.851244 
L 59.015687 86.776457 
L 59.001678 85.701669 
L 59.006077 84.626882 
L 59.029694 83.552095 
L 59.063423 82.477308 
L 59.087903 81.402521 
L 59.069518 80.327734 
L 58.938728 79.252947 
L 58.537261 78.17816 
L 57.550832 77.103372 
L 55.512165 76.028585 
L 52.006172 74.953798 
L 47.099358 73.879011 
L 41.714788 72.804224 
L 37.48145 71.729437 
L 35.914773 70.65465 
L 37.479115 69.579863 
L 41.33686 68.505075 
L 45.977737 67.430288 
L 50.12089 66.355501 
L 53.188516 65.280714 
L 55.207928 64.205927 
L 56.467582 63.13114 
L 57.253159 62.056353 
L 57.754032 60.981566 
L 58.07462 59.906778 
L 58.272099 58.831991 
L 58.384529 57.757204 
L 58.445076 56.682417 
L 58.487107 55.60763 
L 58.542333 54.532843 
L 58.632576 53.458056 
L 58.760603 52.383269 
L 58.909932 51.308482 
L 59.057175 50.233694 
L 59.186933 49.158907 
L 59.295567 48.08412 
L 59.383271 47.009333 
L 59.448033 45.934546 
L 59.491276 44.859759 
L 59.527703 43.784972 
L 59.583713 42.710185 
L 59.681451 41.635397 
L 59.823284 40.56061 
L 59.992044 39.485823 
L 60.165145 38.411036 
L 60.327348 37.336249 
L 60.471782 36.261462 
L 60.593306 35.186675 
L 60.68489 34.111888 
L 60.741716 33.0371 
L 60.767572 31.962313 
L 60.774913 30.887526 
L 60.777126 29.812739 
L 60.781133 28.737952 
L 60.788697 27.663165 
L 60.804436 26.588378 
L 60.840723 25.513591 
L 60.913612 24.438803 
L 61.033309 23.364016 
L 61.196565 22.289229 
L 61.385828 21.214442 
L 61.57585 20.139655 
L 61.744336 19.064868 
L 61.879964 17.990081 
L 61.982722 16.915294 
L 62.392278 16.915294 
L 62.392278 16.915294 
L 62.495036 17.990081 
L 62.630664 19.064868 
L 62.79915 20.139655 
L 62.989172 21.214442 
L 63.178435 22.289229 
L 63.341691 23.364016 
L 63.461388 24.438803 
L 63.534277 25.513591 
L 63.570564 26.588378 
L 63.586303 27.663165 
L 63.593867 28.737952 
L 63.597874 29.812739 
L 63.600087 30.887526 
L 63.607428 31.962313 
L 63.633284 33.0371 
L 63.69011 34.111888 
L 63.781694 35.186675 
L 63.903218 36.261462 
L 64.047652 37.336249 
L 64.209855 38.411036 
L 64.382956 39.485823 
L 64.551716 40.56061 
L 64.693549 41.635397 
L 64.791287 42.710185 
L 64.847297 43.784972 
L 64.883724 44.859759 
L 64.926967 45.934546 
L 64.991729 47.009333 
L 65.079433 48.08412 
L 65.188067 49.158907 
L 65.317825 50.233694 
L 65.465068 51.308482 
L 65.614397 52.383269 
L 65.742424 53.458056 
L 65.832667 54.532843 
L 65.887893 55.60763 
L 65.929924 56.682417 
L 65.990471 57.757204 
L 66.102901 58.831991 
L 66.30038 59.906778 
L 66.620968 60.981566 
L 67.121841 62.056353 
L 67.907418 63.13114 
L 69.167072 64.205927 
L 71.186484 65.280714 
L 74.25411 66.355501 
L 78.397263 67.430288 
L 83.03814 68.505075 
L 86.895885 69.579863 
L 88.460227 70.65465 
L 86.89355 71.729437 
L 82.660212 72.804224 
L 77.275642 73.879011 
L 72.368828 74.953798 
L 68.862835 76.028585 
L 66.824168 77.103372 
L 65.837739 78.17816 
L 65.436272 79.252947 
L 65.305482 80.327734 
L 65.287097 81.402521 
L 65.311577 82.477308 
L 65.345306 83.552095 
L 65.368923 84.626882 
L 65.373322 85.701669 
L 65.359313 86.776457 
L 65.33527 87.851244 
L 65.312784 88.926031 
L 65.301539 90.000818 
L 65.304898 91.075605 
L 65.318506 92.150392 
L 65.333041 93.225179 
L 65.339014 94.299966 
L 65.330176 95.374754 
L 65.304511 96.449541 
L 65.264272 97.524328 
L 65.215806 98.599115 
L 65.16805 99.673902 
L 65.129106 100.748689 
L 65.102387 101.823476 
L 65.084728 102.898263 
L 65.067481 103.973051 
L 65.039752 105.047838 
L 64.99207 106.122625 
L 64.919169 107.197412 
L 64.820951 108.272199 
L 64.700797 109.346986 
L 64.561542 110.421773 
L 64.401829 111.49656 
L 64.216147 112.571348 
L 63.998679 113.646135 
L 63.748154 114.720922 
L 63.472159 115.795709 
L 63.191124 116.870496 
L 62.939297 117.945283 
L 62.756134 119.02007 
L 62.666251 120.094857 
L 62.659131 121.169645 
L 62.687447 122.244432 
L 62.692135 123.319219 
z
" style="fill:#1f77b4;fill-opacity:0.3;"/>
   </g>
   <g id="matplotlib.axis_1"/>
   <g id="matplotlib.axis_2">
    <g id="ytick_1">
     <g id="line2d_1">
      <defs>
       <path d="M 0 0 
L -3.5 0 
" id="m4f6edbbb7a" style="stroke:#000000;stroke-width:0.8;"/>
      </defs>
      <g>
       <use style="stroke:#000000;stroke-width:0.8;" x="33.2875" xlink:href="#m4f6edbbb7a" y="123.319219"/>
      </g>
     </g>
     <g id="text_1">
      <!-- 0 -->
      <defs>
       <path d="M 31.78125 66.40625 
Q 24.171875 66.40625 20.328125 58.90625 
Q 16.5 51.421875 16.5 36.375 
Q 16.5 21.390625 20.328125 13.890625 
Q 24.171875 6.390625 31.78125 6.390625 
Q 39.453125 6.390625 43.28125 13.890625 
Q 47.125 21.390625 47.125 36.375 
Q 47.125 51.421875 43.28125 58.90625 
Q 39.453125 66.40625 31.78125 66.40625 
z
M 31.78125 74.21875 
Q 44.046875 74.21875 50.515625 64.515625 
Q 56.984375 54.828125 56.984375 36.375 
Q 56.984375 17.96875 50.515625 8.265625 
Q 44.046875 -1.421875 31.78125 -1.421875 
Q 19.53125 -1.421875 13.0625 8.265625 
Q 6.59375 17.96875 6.59375 36.375 
Q 6.59375 54.828125 13.0625 64.515625 
Q 19.53125 74.21875 31.78125 74.21875 
z
" id="DejaVuSans-30"/>
      </defs>
      <g transform="translate(19.925 127.118437)scale(0.1 -0.1)">
       <use xlink:href="#DejaVuSans-30"/>
      </g>
     </g>
    </g>
    <g id="ytick_2">
     <g id="line2d_2">
      <g>
       <use style="stroke:#000000;stroke-width:0.8;" x="33.2875" xlink:href="#m4f6edbbb7a" y="67.159219"/>
      </g>
     </g>
     <g id="text_2">
      <!-- 150 -->
      <defs>
       <path d="M 12.40625 8.296875 
L 28.515625 8.296875 
L 28.515625 63.921875 
L 10.984375 60.40625 
L 10.984375 69.390625 
L 28.421875 72.90625 
L 38.28125 72.90625 
L 38.28125 8.296875 
L 54.390625 8.296875 
L 54.390625 0 
L 12.40625 0 
z
" id="DejaVuSans-31"/>
       <path d="M 10.796875 72.90625 
L 49.515625 72.90625 
L 49.515625 64.59375 
L 19.828125 64.59375 
L 19.828125 46.734375 
Q 21.96875 47.46875 24.109375 47.828125 
Q 26.265625 48.1875 28.421875 48.1875 
Q 40.625 48.1875 47.75 41.5 
Q 54.890625 34.8125 54.890625 23.390625 
Q 54.890625 11.625 47.5625 5.09375 
Q 40.234375 -1.421875 26.90625 -1.421875 
Q 22.3125 -1.421875 17.546875 -0.640625 
Q 12.796875 0.140625 7.71875 1.703125 
L 7.71875 11.625 
Q 12.109375 9.234375 16.796875 8.0625 
Q 21.484375 6.890625 26.703125 6.890625 
Q 35.15625 6.890625 40.078125 11.328125 
Q 45.015625 15.765625 45.015625 23.390625 
Q 45.015625 31 40.078125 35.4375 
Q 35.15625 39.890625 26.703125 39.890625 
Q 22.75 39.890625 18.8125 39.015625 
Q 14.890625 38.140625 10.796875 36.28125 
z
" id="DejaVuSans-35"/>
      </defs>
      <g transform="translate(7.2 70.958437)scale(0.1 -0.1)">
       <use xlink:href="#DejaVuSans-31"/>
       <use x="63.623047" xlink:href="#DejaVuSans-35"/>
       <use x="127.246094" xlink:href="#DejaVuSans-30"/>
      </g>
     </g>
    </g>
    <g id="ytick_3">
     <g id="line2d_3">
      <g>
       <use style="stroke:#000000;stroke-width:0.8;" x="33.2875" xlink:href="#m4f6edbbb7a" y="10.999219"/>
      </g>
     </g>
     <g id="text_3">
      <!-- 300 -->
      <defs>
       <path d="M 40.578125 39.3125 
Q 47.65625 37.796875 51.625 33 
Q 55.609375 28.21875 55.609375 21.1875 
Q 55.609375 10.40625 48.1875 4.484375 
Q 40.765625 -1.421875 27.09375 -1.421875 
Q 22.515625 -1.421875 17.65625 -0.515625 
Q 12.796875 0.390625 7.625 2.203125 
L 7.625 11.71875 
Q 11.71875 9.328125 16.59375 8.109375 
Q 21.484375 6.890625 26.8125 6.890625 
Q 36.078125 6.890625 40.9375 10.546875 
Q 45.796875 14.203125 45.796875 21.1875 
Q 45.796875 27.640625 41.28125 31.265625 
Q 36.765625 34.90625 28.71875 34.90625 
L 20.21875 34.90625 
L 20.21875 43.015625 
L 29.109375 43.015625 
Q 36.375 43.015625 40.234375 45.921875 
Q 44.09375 48.828125 44.09375 54.296875 
Q 44.09375 59.90625 40.109375 62.90625 
Q 36.140625 65.921875 28.71875 65.921875 
Q 24.65625 65.921875 20.015625 65.03125 
Q 15.375 64.15625 9.8125 62.3125 
L 9.8125 71.09375 
Q 15.4375 72.65625 20.34375 73.4375 
Q 25.25 74.21875 29.59375 74.21875 
Q 40.828125 74.21875 47.359375 69.109375 
Q 53.90625 64.015625 53.90625 55.328125 
Q 53.90625 49.265625 50.4375 45.09375 
Q 46.96875 40.921875 40.578125 39.3125 
z
" id="DejaVuSans-33"/>
      </defs>
      <g transform="translate(7.2 14.798437)scale(0.1 -0.1)">
       <use xlink:href="#DejaVuSans-33"/>
       <use x="63.623047" xlink:href="#DejaVuSans-30"/>
       <use x="127.246094" xlink:href="#DejaVuSans-30"/>
      </g>
     </g>
    </g>
   </g>
   <g id="patch_3">
    <path d="M 33.2875 123.319219 
L 33.2875 10.999219 
" style="fill:none;stroke:#000000;stroke-linecap:square;stroke-linejoin:miter;stroke-width:0.8;"/>
   </g>
   <g id="patch_4">
    <path d="M 33.2875 123.319219 
L 91.0875 123.319219 
" style="fill:none;stroke:#000000;stroke-linecap:square;stroke-linejoin:miter;stroke-width:0.8;"/>
   </g>
  </g>
 </g>
 <defs>
  <clipPath id="p161a6d4c17">
   <rect height="112.32" width="57.8" x="33.2875" y="10.999219"/>
  </clipPath>
 </defs>
</svg>
