<?xml version="1.0" encoding="utf-8" standalone="no"?>
<!DOCTYPE svg PUBLIC "-//W3C//DTD SVG 1.1//EN"
  "http://www.w3.org/Graphics/SVG/1.1/DTD/svg11.dtd">
<!-- Created with matplotlib (http://matplotlib.org/) -->
<svg height="136pt" version="1.1" viewBox="0 0 101 136" width="101pt" xmlns="http://www.w3.org/2000/svg" xmlns:xlink="http://www.w3.org/1999/xlink">
 <defs>
  <style type="text/css">
*{stroke-linecap:butt;stroke-linejoin:round;}
  </style>
 </defs>
 <g id="figure_1">
  <g id="patch_1">
   <path d="M 0 136.398125 
L 101.7875 136.398125 
L 101.7875 0 
L 0 0 
z
" style="fill:#ffffff;"/>
  </g>
  <g id="axes_1">
   <g id="patch_2">
    <path d="M 33.2875 123.319219 
L 91.0875 123.319219 
L 91.0875 10.999219 
L 33.2875 10.999219 
z
" style="fill:#ffffff;"/>
   </g>
   <g id="PolyCollection_1">
    <path clip-path="url(#p647ecb480a)" d="M 63.338651 123.319219 
L 61.036349 123.319219 
L 60.822695 122.204201 
L 60.556432 121.089183 
L 60.20499 119.974165 
L 59.745622 118.859147 
L 59.175575 117.744129 
L 58.514425 116.629111 
L 57.797878 115.514093 
L 57.066709 114.399076 
L 56.356342 113.284058 
L 55.691147 112.16904 
L 55.084328 111.054022 
L 54.541434 109.939004 
L 54.064477 108.823986 
L 53.654505 107.708968 
L 53.312081 106.59395 
L 53.036468 105.478932 
L 52.82462 104.363914 
L 52.6707 103.248897 
L 52.566261 102.133879 
L 52.50098 101.018861 
L 52.463818 99.903843 
L 52.444406 98.788825 
L 52.434312 97.673807 
L 52.427734 96.558789 
L 52.42142 95.443771 
L 52.414028 94.328753 
L 52.405408 93.213735 
L 52.396112 92.098718 
L 52.38701 90.9837 
L 52.378681 89.868682 
L 52.370559 88.753664 
L 52.360302 87.638646 
L 52.344033 86.523628 
L 52.31762 85.40861 
L 52.27836 84.293592 
L 52.2261 83.178574 
L 52.163181 82.063556 
L 52.093556 80.948539 
L 52.021956 79.833521 
L 51.953814 78.718503 
L 51.895785 77.603485 
L 51.855986 76.488467 
L 51.843 75.373449 
L 51.863482 74.258431 
L 51.919152 73.143413 
L 52.004552 72.028395 
L 52.10667 70.913377 
L 52.206636 69.79836 
L 52.282832 68.683342 
L 52.314381 67.568324 
L 52.284304 66.453306 
L 52.18209 65.338288 
L 52.005671 64.22327 
L 51.762499 63.108252 
L 51.469062 61.993234 
L 51.148074 60.878216 
L 50.823235 59.763198 
L 50.512527 58.648181 
L 50.222183 57.533163 
L 49.94391 56.418145 
L 49.657267 55.303127 
L 49.337139 54.188109 
L 48.963788 53.073091 
L 48.531227 51.958073 
L 48.049922 50.843055 
L 47.542349 49.728037 
L 47.033577 48.613019 
L 46.541743 47.498002 
L 46.073103 46.382984 
L 45.623455 45.267966 
L 45.18389 44.152948 
L 44.746737 43.03793 
L 44.308448 41.922912 
L 43.86883 40.807894 
L 43.428341 39.692876 
L 42.985615 38.577858 
L 42.536299 37.46284 
L 42.073064 36.347823 
L 41.586163 35.232805 
L 41.064162 34.117787 
L 40.495032 33.002769 
L 39.868339 31.887751 
L 39.179466 30.772733 
L 38.4364 29.657715 
L 37.668184 28.542697 
L 36.932331 27.427679 
L 36.317295 26.312661 
L 35.936741 25.197644 
L 35.914773 24.082626 
L 36.364499 22.967608 
L 37.364819 21.85259 
L 38.941129 20.737572 
L 41.054556 19.622554 
L 43.602244 18.507536 
L 46.428902 17.392518 
L 49.347925 16.2775 
L 52.168688 15.162482 
L 54.724968 14.047465 
L 56.898359 12.932447 
L 67.476641 12.932447 
L 67.476641 12.932447 
L 69.650032 14.047465 
L 72.206312 15.162482 
L 75.027075 16.2775 
L 77.946098 17.392518 
L 80.772756 18.507536 
L 83.320444 19.622554 
L 85.433871 20.737572 
L 87.010181 21.85259 
L 88.010501 22.967608 
L 88.460227 24.082626 
L 88.438259 25.197644 
L 88.057705 26.312661 
L 87.442669 27.427679 
L 86.706816 28.542697 
L 85.9386 29.657715 
L 85.195534 30.772733 
L 84.506661 31.887751 
L 83.879968 33.002769 
L 83.310838 34.117787 
L 82.788837 35.232805 
L 82.301936 36.347823 
L 81.838701 37.46284 
L 81.389385 38.577858 
L 80.946659 39.692876 
L 80.50617 40.807894 
L 80.066552 41.922912 
L 79.628263 43.03793 
L 79.19111 44.152948 
L 78.751545 45.267966 
L 78.301897 46.382984 
L 77.833257 47.498002 
L 77.341423 48.613019 
L 76.832651 49.728037 
L 76.325078 50.843055 
L 75.843773 51.958073 
L 75.411212 53.073091 
L 75.037861 54.188109 
L 74.717733 55.303127 
L 74.43109 56.418145 
L 74.152817 57.533163 
L 73.862473 58.648181 
L 73.551765 59.763198 
L 73.226926 60.878216 
L 72.905938 61.993234 
L 72.612501 63.108252 
L 72.369329 64.22327 
L 72.19291 65.338288 
L 72.090696 66.453306 
L 72.060619 67.568324 
L 72.092168 68.683342 
L 72.168364 69.79836 
L 72.26833 70.913377 
L 72.370448 72.028395 
L 72.455848 73.143413 
L 72.511518 74.258431 
L 72.532 75.373449 
L 72.519014 76.488467 
L 72.479215 77.603485 
L 72.421186 78.718503 
L 72.353044 79.833521 
L 72.281444 80.948539 
L 72.211819 82.063556 
L 72.1489 83.178574 
L 72.09664 84.293592 
L 72.05738 85.40861 
L 72.030967 86.523628 
L 72.014698 87.638646 
L 72.004441 88.753664 
L 71.996319 89.868682 
L 71.98799 90.9837 
L 71.978888 92.098718 
L 71.969592 93.213735 
L 71.960972 94.328753 
L 71.95358 95.443771 
L 71.947266 96.558789 
L 71.940688 97.673807 
L 71.930594 98.788825 
L 71.911182 99.903843 
L 71.87402 101.018861 
L 71.808739 102.133879 
L 71.7043 103.248897 
L 71.55038 104.363914 
L 71.338532 105.478932 
L 71.062919 106.59395 
L 70.720495 107.708968 
L 70.310523 108.823986 
L 69.833566 109.939004 
L 69.290672 111.054022 
L 68.683853 112.16904 
L 68.018658 113.284058 
L 67.308291 114.399076 
L 66.577122 115.514093 
L 65.860575 116.629111 
L 65.199425 117.744129 
L 64.629378 118.859147 
L 64.17001 119.974165 
L 63.818568 121.089183 
L 63.552305 122.204201 
L 63.338651 123.319219 
z
" style="fill:#1f77b4;fill-opacity:0.3;"/>
   </g>
   <g id="matplotlib.axis_1"/>
   <g id="matplotlib.axis_2">
    <g id="ytick_1">
     <g id="line2d_1">
      <defs>
       <path d="M 0 0 
L -3.5 0 
" id="m4b203d62c8" style="stroke:#000000;stroke-width:0.8;"/>
      </defs>
      <g>
       <use style="stroke:#000000;stroke-width:0.8;" x="33.2875" xlink:href="#m4b203d62c8" y="123.319219"/>
      </g>
     </g>
     <g id="text_1">
      <!-- 0 -->
      <defs>
       <path d="M 31.78125 66.40625 
Q 24.171875 66.40625 20.328125 58.90625 
Q 16.5 51.421875 16.5 36.375 
Q 16.5 21.390625 20.328125 13.890625 
Q 24.171875 6.390625 31.78125 6.390625 
Q 39.453125 6.390625 43.28125 13.890625 
Q 47.125 21.390625 47.125 36.375 
Q 47.125 51.421875 43.28125 58.90625 
Q 39.453125 66.40625 31.78125 66.40625 
z
M 31.78125 74.21875 
Q 44.046875 74.21875 50.515625 64.515625 
Q 56.984375 54.828125 56.984375 36.375 
Q 56.984375 17.96875 50.515625 8.265625 
Q 44.046875 -1.421875 31.78125 -1.421875 
Q 19.53125 -1.421875 13.0625 8.265625 
Q 6.59375 17.96875 6.59375 36.375 
Q 6.59375 54.828125 13.0625 64.515625 
Q 19.53125 74.21875 31.78125 74.21875 
z
" id="DejaVuSans-30"/>
      </defs>
      <g transform="translate(19.925 127.118437)scale(0.1 -0.1)">
       <use xlink:href="#DejaVuSans-30"/>
      </g>
     </g>
    </g>
    <g id="ytick_2">
     <g id="line2d_2">
      <g>
       <use style="stroke:#000000;stroke-width:0.8;" x="33.2875" xlink:href="#m4b203d62c8" y="67.159219"/>
      </g>
     </g>
     <g id="text_2">
      <!-- 150 -->
      <defs>
       <path d="M 12.40625 8.296875 
L 28.515625 8.296875 
L 28.515625 63.921875 
L 10.984375 60.40625 
L 10.984375 69.390625 
L 28.421875 72.90625 
L 38.28125 72.90625 
L 38.28125 8.296875 
L 54.390625 8.296875 
L 54.390625 0 
L 12.40625 0 
z
" id="DejaVuSans-31"/>
       <path d="M 10.796875 72.90625 
L 49.515625 72.90625 
L 49.515625 64.59375 
L 19.828125 64.59375 
L 19.828125 46.734375 
Q 21.96875 47.46875 24.109375 47.828125 
Q 26.265625 48.1875 28.421875 48.1875 
Q 40.625 48.1875 47.75 41.5 
Q 54.890625 34.8125 54.890625 23.390625 
Q 54.890625 11.625 47.5625 5.09375 
Q 40.234375 -1.421875 26.90625 -1.421875 
Q 22.3125 -1.421875 17.546875 -0.640625 
Q 12.796875 0.140625 7.71875 1.703125 
L 7.71875 11.625 
Q 12.109375 9.234375 16.796875 8.0625 
Q 21.484375 6.890625 26.703125 6.890625 
Q 35.15625 6.890625 40.078125 11.328125 
Q 45.015625 15.765625 45.015625 23.390625 
Q 45.015625 31 40.078125 35.4375 
Q 35.15625 39.890625 26.703125 39.890625 
Q 22.75 39.890625 18.8125 39.015625 
Q 14.890625 38.140625 10.796875 36.28125 
z
" id="DejaVuSans-35"/>
      </defs>
      <g transform="translate(7.2 70.958437)scale(0.1 -0.1)">
       <use xlink:href="#DejaVuSans-31"/>
       <use x="63.623047" xlink:href="#DejaVuSans-35"/>
       <use x="127.246094" xlink:href="#DejaVuSans-30"/>
      </g>
     </g>
    </g>
    <g id="ytick_3">
     <g id="line2d_3">
      <g>
       <use style="stroke:#000000;stroke-width:0.8;" x="33.2875" xlink:href="#m4b203d62c8" y="10.999219"/>
      </g>
     </g>
     <g id="text_3">
      <!-- 300 -->
      <defs>
       <path d="M 40.578125 39.3125 
Q 47.65625 37.796875 51.625 33 
Q 55.609375 28.21875 55.609375 21.1875 
Q 55.609375 10.40625 48.1875 4.484375 
Q 40.765625 -1.421875 27.09375 -1.421875 
Q 22.515625 -1.421875 17.65625 -0.515625 
Q 12.796875 0.390625 7.625 2.203125 
L 7.625 11.71875 
Q 11.71875 9.328125 16.59375 8.109375 
Q 21.484375 6.890625 26.8125 6.890625 
Q 36.078125 6.890625 40.9375 10.546875 
Q 45.796875 14.203125 45.796875 21.1875 
Q 45.796875 27.640625 41.28125 31.265625 
Q 36.765625 34.90625 28.71875 34.90625 
L 20.21875 34.90625 
L 20.21875 43.015625 
L 29.109375 43.015625 
Q 36.375 43.015625 40.234375 45.921875 
Q 44.09375 48.828125 44.09375 54.296875 
Q 44.09375 59.90625 40.109375 62.90625 
Q 36.140625 65.921875 28.71875 65.921875 
Q 24.65625 65.921875 20.015625 65.03125 
Q 15.375 64.15625 9.8125 62.3125 
L 9.8125 71.09375 
Q 15.4375 72.65625 20.34375 73.4375 
Q 25.25 74.21875 29.59375 74.21875 
Q 40.828125 74.21875 47.359375 69.109375 
Q 53.90625 64.015625 53.90625 55.328125 
Q 53.90625 49.265625 50.4375 45.09375 
Q 46.96875 40.921875 40.578125 39.3125 
z
" id="DejaVuSans-33"/>
      </defs>
      <g transform="translate(7.2 14.798437)scale(0.1 -0.1)">
       <use xlink:href="#DejaVuSans-33"/>
       <use x="63.623047" xlink:href="#DejaVuSans-30"/>
       <use x="127.246094" xlink:href="#DejaVuSans-30"/>
      </g>
     </g>
    </g>
   </g>
   <g id="patch_3">
    <path d="M 33.2875 123.319219 
L 33.2875 10.999219 
" style="fill:none;stroke:#000000;stroke-linecap:square;stroke-linejoin:miter;stroke-width:0.8;"/>
   </g>
   <g id="patch_4">
    <path d="M 33.2875 123.319219 
L 91.0875 123.319219 
" style="fill:none;stroke:#000000;stroke-linecap:square;stroke-linejoin:miter;stroke-width:0.8;"/>
   </g>
  </g>
 </g>
 <defs>
  <clipPath id="p647ecb480a">
   <rect height="112.32" width="57.8" x="33.2875" y="10.999219"/>
  </clipPath>
 </defs>
</svg>
