<?xml version="1.0" encoding="utf-8" standalone="no"?>
<!DOCTYPE svg PUBLIC "-//W3C//DTD SVG 1.1//EN"
  "http://www.w3.org/Graphics/SVG/1.1/DTD/svg11.dtd">
<!-- Created with matplotlib (http://matplotlib.org/) -->
<svg height="354pt" version="1.1" viewBox="0 0 422 354" width="422pt" xmlns="http://www.w3.org/2000/svg" xmlns:xlink="http://www.w3.org/1999/xlink">
 <defs>
  <style type="text/css">
*{stroke-linecap:butt;stroke-linejoin:round;}
  </style>
 </defs>
 <g id="figure_1">
  <g id="patch_1">
   <path d="M 0 354.04 
L 422.681875 354.04 
L 422.681875 0 
L 0 0 
z
" style="fill:#ffffff;"/>
  </g>
  <g id="axes_1">
   <g id="patch_2">
    <path d="M 77.181875 343.34 
L 411.981875 343.34 
L 411.981875 10.7 
L 77.181875 10.7 
z
" style="fill:#ffffff;"/>
   </g>
   <g id="PolyCollection_1">
    <defs>
     <path d="M 92.400057 -25.82 
L 92.400057 -30.75983 
L 95.708357 -30.75983 
L 99.016658 -30.75983 
L 102.324958 -30.75983 
L 105.633258 -30.75983 
L 108.941559 -30.75983 
L 112.249859 -30.75983 
L 115.55816 -30.75983 
L 118.86646 -30.75983 
L 122.17476 -30.75983 
L 125.483061 -30.75983 
L 128.791361 -30.75983 
L 132.099662 -30.75983 
L 135.407962 -30.75983 
L 138.716262 -30.75983 
L 142.024563 -30.75983 
L 145.332863 -30.75983 
L 148.641164 -30.75983 
L 151.949464 -30.75983 
L 155.257764 -30.75983 
L 158.566065 -30.75983 
L 161.874365 -30.75983 
L 165.182666 -30.75983 
L 168.490966 -30.75983 
L 171.799266 -30.75983 
L 175.107567 -30.75983 
L 178.415867 -30.75983 
L 181.724167 -30.75983 
L 185.032468 -30.75983 
L 188.340768 -30.75983 
L 191.649069 -30.75983 
L 194.957369 -30.75983 
L 198.265669 -30.75983 
L 201.57397 -30.75983 
L 204.88227 -30.75983 
L 208.190571 -30.75983 
L 211.498871 -30.75983 
L 214.807171 -30.75983 
L 218.115472 -30.75983 
L 221.423772 -30.75983 
L 224.732073 -30.75983 
L 228.040373 -30.75983 
L 231.348673 -30.75983 
L 234.656974 -30.75983 
L 237.965274 -30.75983 
L 241.273575 -30.75983 
L 244.581875 -30.75983 
L 247.890175 -30.75983 
L 251.198476 -30.75983 
L 254.506776 -30.75983 
L 257.815077 -30.75983 
L 261.123377 -30.75983 
L 264.431677 -30.75983 
L 267.739978 -30.75983 
L 271.048278 -30.75983 
L 274.356579 -30.75983 
L 277.664879 -30.75983 
L 280.973179 -30.75983 
L 284.28148 -30.75983 
L 287.58978 -30.75983 
L 290.898081 -30.75983 
L 294.206381 -30.75983 
L 297.514681 -30.75983 
L 300.822982 -30.75983 
L 304.131282 -30.75983 
L 307.439583 -30.75983 
L 310.747883 -30.75983 
L 314.056183 -30.75983 
L 317.364484 -30.75983 
L 320.672784 -30.75983 
L 323.981084 -30.75983 
L 327.289385 -30.75983 
L 330.597685 -30.75983 
L 333.905986 -30.75983 
L 337.214286 -30.75983 
L 340.522586 -30.75983 
L 343.830887 -30.75983 
L 347.139187 -30.75983 
L 350.447488 -30.75983 
L 353.755788 -30.75983 
L 357.064088 -30.75983 
L 360.372389 -30.75983 
L 363.680689 -30.75983 
L 366.98899 -30.75983 
L 370.29729 -30.75983 
L 373.60559 -30.75983 
L 376.913891 -30.75983 
L 380.222191 -30.75983 
L 383.530492 -30.75983 
L 386.838792 -30.75983 
L 390.147092 -30.75983 
L 393.455393 -30.75983 
L 396.763693 -30.75983 
L 396.763693 -328.22 
L 396.763693 -328.22 
L 393.455393 -308.610074 
L 390.147092 -265.040575 
L 386.838792 -264.590063 
L 383.530492 -258.50837 
L 380.222191 -258.122425 
L 376.913891 -218.735546 
L 373.60559 -212.071041 
L 370.29729 -205.323941 
L 366.98899 -190.378751 
L 363.680689 -186.779113 
L 360.372389 -185.526728 
L 357.064088 -180.57513 
L 353.755788 -168.998209 
L 350.447488 -163.821732 
L 347.139187 -149.97475 
L 343.830887 -147.180187 
L 340.522586 -145.660144 
L 337.214286 -137.022246 
L 333.905986 -134.562217 
L 330.597685 -130.284681 
L 327.289385 -129.10826 
L 323.981084 -123.323879 
L 320.672784 -122.815325 
L 317.364484 -122.288418 
L 314.056183 -122.152906 
L 310.747883 -119.910306 
L 307.439583 -118.718928 
L 304.131282 -118.426296 
L 300.822982 -117.190519 
L 297.514681 -114.365303 
L 294.206381 -113.218415 
L 290.898081 -108.538979 
L 287.58978 -108.214447 
L 284.28148 -104.557854 
L 280.973179 -103.262241 
L 277.664879 -102.929677 
L 274.356579 -102.878573 
L 271.048278 -98.508891 
L 267.739978 -91.821992 
L 264.431677 -89.788945 
L 261.123377 -78.003173 
L 257.815077 -75.041068 
L 254.506776 -74.78547 
L 251.198476 -74.753952 
L 247.890175 -71.587558 
L 244.581875 -70.788488 
L 241.273575 -70.364415 
L 237.965274 -69.130732 
L 234.656974 -68.793625 
L 231.348673 -65.410027 
L 228.040373 -63.668916 
L 224.732073 -62.988617 
L 221.423772 -61.261027 
L 218.115472 -60.91658 
L 214.807171 -55.565453 
L 211.498871 -53.296987 
L 208.190571 -52.706028 
L 204.88227 -51.82876 
L 201.57397 -51.750413 
L 198.265669 -51.11044 
L 194.957369 -50.861566 
L 191.649069 -48.898981 
L 188.340768 -47.383814 
L 185.032468 -46.662224 
L 181.724167 -45.13235 
L 178.415867 -44.529415 
L 175.107567 -43.908715 
L 171.799266 -43.005304 
L 168.490966 -42.150916 
L 165.182666 -39.971659 
L 161.874365 -35.931884 
L 158.566065 -35.904939 
L 155.257764 -35.414032 
L 151.949464 -35.344673 
L 148.641164 -35.148089 
L 145.332863 -34.864034 
L 142.024563 -33.45226 
L 138.716262 -33.39676 
L 135.407962 -32.917303 
L 132.099662 -32.515047 
L 128.791361 -32.489653 
L 125.483061 -32.184452 
L 122.17476 -32.05459 
L 118.86646 -32.016959 
L 115.55816 -32.003645 
L 112.249859 -30.703459 
L 108.941559 -30.426688 
L 105.633258 -30.344254 
L 102.324958 -28.08115 
L 99.016658 -27.912607 
L 95.708357 -26.606013 
L 92.400057 -25.82 
z
" id="m927ea0c9b0" style="stroke:#4a98c9;"/>
    </defs>
    <g clip-path="url(#pc70c821362)">
     <use style="fill:#4a98c9;stroke:#4a98c9;" x="0" xlink:href="#m927ea0c9b0" y="354.04"/>
    </g>
   </g>
   <g id="PolyCollection_2">
    <defs>
     <path d="M 92.400057 -26.768198 
L 92.400057 -30.75983 
L 95.708357 -30.75983 
L 99.016658 -30.75983 
L 102.324958 -30.75983 
L 105.633258 -30.75983 
L 108.941559 -30.75983 
L 112.249859 -30.75983 
L 115.55816 -30.75983 
L 118.86646 -30.75983 
L 122.17476 -30.75983 
L 125.483061 -30.75983 
L 128.791361 -30.75983 
L 132.099662 -30.75983 
L 135.407962 -30.75983 
L 138.716262 -30.75983 
L 142.024563 -30.75983 
L 145.332863 -30.75983 
L 148.641164 -30.75983 
L 151.949464 -30.75983 
L 155.257764 -30.75983 
L 158.566065 -30.75983 
L 161.874365 -30.75983 
L 165.182666 -30.75983 
L 168.490966 -30.75983 
L 171.799266 -30.75983 
L 175.107567 -30.75983 
L 178.415867 -30.75983 
L 181.724167 -30.75983 
L 185.032468 -30.75983 
L 188.340768 -30.75983 
L 191.649069 -30.75983 
L 194.957369 -30.75983 
L 198.265669 -30.75983 
L 201.57397 -30.75983 
L 204.88227 -30.75983 
L 208.190571 -30.75983 
L 211.498871 -30.75983 
L 214.807171 -30.75983 
L 218.115472 -30.75983 
L 221.423772 -30.75983 
L 224.732073 -30.75983 
L 228.040373 -30.75983 
L 231.348673 -30.75983 
L 234.656974 -30.75983 
L 237.965274 -30.75983 
L 241.273575 -30.75983 
L 244.581875 -30.75983 
L 247.890175 -30.75983 
L 251.198476 -30.75983 
L 254.506776 -30.75983 
L 257.815077 -30.75983 
L 261.123377 -30.75983 
L 264.431677 -30.75983 
L 267.739978 -30.75983 
L 271.048278 -30.75983 
L 274.356579 -30.75983 
L 277.664879 -30.75983 
L 280.973179 -30.75983 
L 284.28148 -30.75983 
L 287.58978 -30.75983 
L 290.898081 -30.75983 
L 294.206381 -30.75983 
L 297.514681 -30.75983 
L 300.822982 -30.75983 
L 304.131282 -30.75983 
L 307.439583 -30.75983 
L 310.747883 -30.75983 
L 314.056183 -30.75983 
L 317.364484 -30.75983 
L 320.672784 -30.75983 
L 323.981084 -30.75983 
L 327.289385 -30.75983 
L 330.597685 -30.75983 
L 333.905986 -30.75983 
L 337.214286 -30.75983 
L 340.522586 -30.75983 
L 343.830887 -30.75983 
L 347.139187 -30.75983 
L 350.447488 -30.75983 
L 353.755788 -30.75983 
L 357.064088 -30.75983 
L 360.372389 -30.75983 
L 363.680689 -30.75983 
L 366.98899 -30.75983 
L 370.29729 -30.75983 
L 373.60559 -30.75983 
L 376.913891 -30.75983 
L 380.222191 -30.75983 
L 383.530492 -30.75983 
L 386.838792 -30.75983 
L 390.147092 -30.75983 
L 393.455393 -30.75983 
L 396.763693 -30.75983 
L 396.763693 -306.88968 
L 396.763693 -306.88968 
L 393.455393 -266.378677 
L 390.147092 -227.07027 
L 386.838792 -226.200374 
L 383.530492 -222.375762 
L 380.222191 -213.698411 
L 376.913891 -211.334891 
L 373.60559 -183.475615 
L 370.29729 -183.391907 
L 366.98899 -182.064952 
L 363.680689 -179.533126 
L 360.372389 -178.501867 
L 357.064088 -168.085273 
L 353.755788 -167.237035 
L 350.447488 -164.545912 
L 347.139187 -160.388352 
L 343.830887 -152.45215 
L 340.522586 -150.655553 
L 337.214286 -149.372542 
L 333.905986 -138.417641 
L 330.597685 -134.033235 
L 327.289385 -121.094212 
L 323.981084 -120.336883 
L 320.672784 -119.34279 
L 317.364484 -113.415927 
L 314.056183 -107.073175 
L 310.747883 -103.04128 
L 307.439583 -99.801659 
L 304.131282 -98.257204 
L 300.822982 -83.685242 
L 297.514681 -79.172315 
L 294.206381 -77.905365 
L 290.898081 -75.069782 
L 287.58978 -73.00556 
L 284.28148 -72.897183 
L 280.973179 -66.399604 
L 277.664879 -65.335131 
L 274.356579 -65.170374 
L 271.048278 -64.925289 
L 267.739978 -64.751658 
L 264.431677 -64.712615 
L 261.123377 -62.726262 
L 257.815077 -62.044243 
L 254.506776 -61.65623 
L 251.198476 -60.757657 
L 247.890175 -60.119693 
L 244.581875 -59.613026 
L 241.273575 -56.95088 
L 237.965274 -55.836843 
L 234.656974 -53.692245 
L 231.348673 -53.317612 
L 228.040373 -52.481394 
L 224.732073 -52.256461 
L 221.423772 -52.234731 
L 218.115472 -51.935813 
L 214.807171 -51.292914 
L 211.498871 -50.509364 
L 208.190571 -48.742484 
L 204.88227 -48.265217 
L 201.57397 -47.997626 
L 198.265669 -47.714105 
L 194.957369 -46.923129 
L 191.649069 -45.800095 
L 188.340768 -45.246566 
L 185.032468 -44.820294 
L 181.724167 -43.459606 
L 178.415867 -43.059093 
L 175.107567 -42.599485 
L 171.799266 -42.473877 
L 168.490966 -41.576579 
L 165.182666 -40.852826 
L 161.874365 -40.317248 
L 158.566065 -38.715494 
L 155.257764 -38.667868 
L 151.949464 -37.430892 
L 148.641164 -36.883194 
L 145.332863 -35.689993 
L 142.024563 -34.332588 
L 138.716262 -34.26513 
L 135.407962 -34.140953 
L 132.099662 -33.660334 
L 128.791361 -32.867811 
L 125.483061 -32.131841 
L 122.17476 -31.555384 
L 118.86646 -31.262164 
L 115.55816 -30.443433 
L 112.249859 -30.366611 
L 108.941559 -30.291436 
L 105.633258 -29.703609 
L 102.324958 -28.382447 
L 99.016658 -27.934606 
L 95.708357 -27.741885 
L 92.400057 -26.768198 
z
" id="me4af54b3bd" style="stroke:#f14432;stroke-opacity:0.8;"/>
    </defs>
    <g clip-path="url(#pc70c821362)">
     <use style="fill:#f14432;fill-opacity:0.8;stroke:#f14432;stroke-opacity:0.8;" x="0" xlink:href="#me4af54b3bd" y="354.04"/>
    </g>
   </g>
   <g id="matplotlib.axis_1"/>
   <g id="matplotlib.axis_2">
    <g id="ytick_1">
     <g id="line2d_1">
      <defs>
       <path d="M 0 0 
L -3.5 0 
" id="m925ecd98cf" style="stroke:#000000;stroke-width:0.8;"/>
      </defs>
      <g>
       <use style="stroke:#000000;stroke-width:0.8;" x="77.181875" xlink:href="#m925ecd98cf" y="323.28017"/>
      </g>
     </g>
     <g id="text_1">
      <!-- 0.000 -->
      <defs>
       <path d="M 31.78125 66.40625 
Q 24.171875 66.40625 20.328125 58.90625 
Q 16.5 51.421875 16.5 36.375 
Q 16.5 21.390625 20.328125 13.890625 
Q 24.171875 6.390625 31.78125 6.390625 
Q 39.453125 6.390625 43.28125 13.890625 
Q 47.125 21.390625 47.125 36.375 
Q 47.125 51.421875 43.28125 58.90625 
Q 39.453125 66.40625 31.78125 66.40625 
z
M 31.78125 74.21875 
Q 44.046875 74.21875 50.515625 64.515625 
Q 56.984375 54.828125 56.984375 36.375 
Q 56.984375 17.96875 50.515625 8.265625 
Q 44.046875 -1.421875 31.78125 -1.421875 
Q 19.53125 -1.421875 13.0625 8.265625 
Q 6.59375 17.96875 6.59375 36.375 
Q 6.59375 54.828125 13.0625 64.515625 
Q 19.53125 74.21875 31.78125 74.21875 
z
" id="DejaVuSans-30"/>
       <path d="M 10.6875 12.40625 
L 21 12.40625 
L 21 0 
L 10.6875 0 
z
" id="DejaVuSans-2e"/>
      </defs>
      <g transform="translate(7.2 331.638451)scale(0.22 -0.22)">
       <use xlink:href="#DejaVuSans-30"/>
       <use x="63.623047" xlink:href="#DejaVuSans-2e"/>
       <use x="95.410156" xlink:href="#DejaVuSans-30"/>
       <use x="159.033203" xlink:href="#DejaVuSans-30"/>
       <use x="222.65625" xlink:href="#DejaVuSans-30"/>
      </g>
     </g>
    </g>
    <g id="ytick_2">
     <g id="line2d_2">
      <g>
       <use style="stroke:#000000;stroke-width:0.8;" x="77.181875" xlink:href="#m925ecd98cf" y="276.025321"/>
      </g>
     </g>
     <g id="text_2">
      <!-- 0.002 -->
      <defs>
       <path d="M 19.1875 8.296875 
L 53.609375 8.296875 
L 53.609375 0 
L 7.328125 0 
L 7.328125 8.296875 
Q 12.9375 14.109375 22.625 23.890625 
Q 32.328125 33.6875 34.8125 36.53125 
Q 39.546875 41.84375 41.421875 45.53125 
Q 43.3125 49.21875 43.3125 52.78125 
Q 43.3125 58.59375 39.234375 62.25 
Q 35.15625 65.921875 28.609375 65.921875 
Q 23.96875 65.921875 18.8125 64.3125 
Q 13.671875 62.703125 7.8125 59.421875 
L 7.8125 69.390625 
Q 13.765625 71.78125 18.9375 73 
Q 24.125 74.21875 28.421875 74.21875 
Q 39.75 74.21875 46.484375 68.546875 
Q 53.21875 62.890625 53.21875 53.421875 
Q 53.21875 48.921875 51.53125 44.890625 
Q 49.859375 40.875 45.40625 35.40625 
Q 44.1875 33.984375 37.640625 27.21875 
Q 31.109375 20.453125 19.1875 8.296875 
z
" id="DejaVuSans-32"/>
      </defs>
      <g transform="translate(7.2 284.383602)scale(0.22 -0.22)">
       <use xlink:href="#DejaVuSans-30"/>
       <use x="63.623047" xlink:href="#DejaVuSans-2e"/>
       <use x="95.410156" xlink:href="#DejaVuSans-30"/>
       <use x="159.033203" xlink:href="#DejaVuSans-30"/>
       <use x="222.65625" xlink:href="#DejaVuSans-32"/>
      </g>
     </g>
    </g>
    <g id="ytick_3">
     <g id="line2d_3">
      <g>
       <use style="stroke:#000000;stroke-width:0.8;" x="77.181875" xlink:href="#m925ecd98cf" y="228.770472"/>
      </g>
     </g>
     <g id="text_3">
      <!-- 0.004 -->
      <defs>
       <path d="M 37.796875 64.3125 
L 12.890625 25.390625 
L 37.796875 25.390625 
z
M 35.203125 72.90625 
L 47.609375 72.90625 
L 47.609375 25.390625 
L 58.015625 25.390625 
L 58.015625 17.1875 
L 47.609375 17.1875 
L 47.609375 0 
L 37.796875 0 
L 37.796875 17.1875 
L 4.890625 17.1875 
L 4.890625 26.703125 
z
" id="DejaVuSans-34"/>
      </defs>
      <g transform="translate(7.2 237.128753)scale(0.22 -0.22)">
       <use xlink:href="#DejaVuSans-30"/>
       <use x="63.623047" xlink:href="#DejaVuSans-2e"/>
       <use x="95.410156" xlink:href="#DejaVuSans-30"/>
       <use x="159.033203" xlink:href="#DejaVuSans-30"/>
       <use x="222.65625" xlink:href="#DejaVuSans-34"/>
      </g>
     </g>
    </g>
    <g id="ytick_4">
     <g id="line2d_4">
      <g>
       <use style="stroke:#000000;stroke-width:0.8;" x="77.181875" xlink:href="#m925ecd98cf" y="181.515623"/>
      </g>
     </g>
     <g id="text_4">
      <!-- 0.006 -->
      <defs>
       <path d="M 33.015625 40.375 
Q 26.375 40.375 22.484375 35.828125 
Q 18.609375 31.296875 18.609375 23.390625 
Q 18.609375 15.53125 22.484375 10.953125 
Q 26.375 6.390625 33.015625 6.390625 
Q 39.65625 6.390625 43.53125 10.953125 
Q 47.40625 15.53125 47.40625 23.390625 
Q 47.40625 31.296875 43.53125 35.828125 
Q 39.65625 40.375 33.015625 40.375 
z
M 52.59375 71.296875 
L 52.59375 62.3125 
Q 48.875 64.0625 45.09375 64.984375 
Q 41.3125 65.921875 37.59375 65.921875 
Q 27.828125 65.921875 22.671875 59.328125 
Q 17.53125 52.734375 16.796875 39.40625 
Q 19.671875 43.65625 24.015625 45.921875 
Q 28.375 48.1875 33.59375 48.1875 
Q 44.578125 48.1875 50.953125 41.515625 
Q 57.328125 34.859375 57.328125 23.390625 
Q 57.328125 12.15625 50.6875 5.359375 
Q 44.046875 -1.421875 33.015625 -1.421875 
Q 20.359375 -1.421875 13.671875 8.265625 
Q 6.984375 17.96875 6.984375 36.375 
Q 6.984375 53.65625 15.1875 63.9375 
Q 23.390625 74.21875 37.203125 74.21875 
Q 40.921875 74.21875 44.703125 73.484375 
Q 48.484375 72.75 52.59375 71.296875 
z
" id="DejaVuSans-36"/>
      </defs>
      <g transform="translate(7.2 189.873904)scale(0.22 -0.22)">
       <use xlink:href="#DejaVuSans-30"/>
       <use x="63.623047" xlink:href="#DejaVuSans-2e"/>
       <use x="95.410156" xlink:href="#DejaVuSans-30"/>
       <use x="159.033203" xlink:href="#DejaVuSans-30"/>
       <use x="222.65625" xlink:href="#DejaVuSans-36"/>
      </g>
     </g>
    </g>
    <g id="ytick_5">
     <g id="line2d_5">
      <g>
       <use style="stroke:#000000;stroke-width:0.8;" x="77.181875" xlink:href="#m925ecd98cf" y="134.260774"/>
      </g>
     </g>
     <g id="text_5">
      <!-- 0.008 -->
      <defs>
       <path d="M 31.78125 34.625 
Q 24.75 34.625 20.71875 30.859375 
Q 16.703125 27.09375 16.703125 20.515625 
Q 16.703125 13.921875 20.71875 10.15625 
Q 24.75 6.390625 31.78125 6.390625 
Q 38.8125 6.390625 42.859375 10.171875 
Q 46.921875 13.96875 46.921875 20.515625 
Q 46.921875 27.09375 42.890625 30.859375 
Q 38.875 34.625 31.78125 34.625 
z
M 21.921875 38.8125 
Q 15.578125 40.375 12.03125 44.71875 
Q 8.5 49.078125 8.5 55.328125 
Q 8.5 64.0625 14.71875 69.140625 
Q 20.953125 74.21875 31.78125 74.21875 
Q 42.671875 74.21875 48.875 69.140625 
Q 55.078125 64.0625 55.078125 55.328125 
Q 55.078125 49.078125 51.53125 44.71875 
Q 48 40.375 41.703125 38.8125 
Q 48.828125 37.15625 52.796875 32.3125 
Q 56.78125 27.484375 56.78125 20.515625 
Q 56.78125 9.90625 50.3125 4.234375 
Q 43.84375 -1.421875 31.78125 -1.421875 
Q 19.734375 -1.421875 13.25 4.234375 
Q 6.78125 9.90625 6.78125 20.515625 
Q 6.78125 27.484375 10.78125 32.3125 
Q 14.796875 37.15625 21.921875 38.8125 
z
M 18.3125 54.390625 
Q 18.3125 48.734375 21.84375 45.5625 
Q 25.390625 42.390625 31.78125 42.390625 
Q 38.140625 42.390625 41.71875 45.5625 
Q 45.3125 48.734375 45.3125 54.390625 
Q 45.3125 60.0625 41.71875 63.234375 
Q 38.140625 66.40625 31.78125 66.40625 
Q 25.390625 66.40625 21.84375 63.234375 
Q 18.3125 60.0625 18.3125 54.390625 
z
" id="DejaVuSans-38"/>
      </defs>
      <g transform="translate(7.2 142.619056)scale(0.22 -0.22)">
       <use xlink:href="#DejaVuSans-30"/>
       <use x="63.623047" xlink:href="#DejaVuSans-2e"/>
       <use x="95.410156" xlink:href="#DejaVuSans-30"/>
       <use x="159.033203" xlink:href="#DejaVuSans-30"/>
       <use x="222.65625" xlink:href="#DejaVuSans-38"/>
      </g>
     </g>
    </g>
    <g id="ytick_6">
     <g id="line2d_6">
      <g>
       <use style="stroke:#000000;stroke-width:0.8;" x="77.181875" xlink:href="#m925ecd98cf" y="87.005925"/>
      </g>
     </g>
     <g id="text_6">
      <!-- 0.010 -->
      <defs>
       <path d="M 12.40625 8.296875 
L 28.515625 8.296875 
L 28.515625 63.921875 
L 10.984375 60.40625 
L 10.984375 69.390625 
L 28.421875 72.90625 
L 38.28125 72.90625 
L 38.28125 8.296875 
L 54.390625 8.296875 
L 54.390625 0 
L 12.40625 0 
z
" id="DejaVuSans-31"/>
      </defs>
      <g transform="translate(7.2 95.364207)scale(0.22 -0.22)">
       <use xlink:href="#DejaVuSans-30"/>
       <use x="63.623047" xlink:href="#DejaVuSans-2e"/>
       <use x="95.410156" xlink:href="#DejaVuSans-30"/>
       <use x="159.033203" xlink:href="#DejaVuSans-31"/>
       <use x="222.65625" xlink:href="#DejaVuSans-30"/>
      </g>
     </g>
    </g>
    <g id="ytick_7">
     <g id="line2d_7">
      <g>
       <use style="stroke:#000000;stroke-width:0.8;" x="77.181875" xlink:href="#m925ecd98cf" y="39.751077"/>
      </g>
     </g>
     <g id="text_7">
      <!-- 0.012 -->
      <g transform="translate(7.2 48.109358)scale(0.22 -0.22)">
       <use xlink:href="#DejaVuSans-30"/>
       <use x="63.623047" xlink:href="#DejaVuSans-2e"/>
       <use x="95.410156" xlink:href="#DejaVuSans-30"/>
       <use x="159.033203" xlink:href="#DejaVuSans-31"/>
       <use x="222.65625" xlink:href="#DejaVuSans-32"/>
      </g>
     </g>
    </g>
   </g>
   <g id="patch_3">
    <path d="M 77.181875 343.34 
L 77.181875 10.7 
" style="fill:none;stroke:#000000;stroke-linecap:square;stroke-linejoin:miter;stroke-width:0.8;"/>
   </g>
   <g id="patch_4">
    <path d="M 411.981875 343.34 
L 411.981875 10.7 
" style="fill:none;stroke:#000000;stroke-linecap:square;stroke-linejoin:miter;stroke-width:0.8;"/>
   </g>
   <g id="patch_5">
    <path d="M 77.181875 343.34 
L 411.981875 343.34 
" style="fill:none;stroke:#000000;stroke-linecap:square;stroke-linejoin:miter;stroke-width:0.8;"/>
   </g>
   <g id="patch_6">
    <path d="M 77.181875 10.7 
L 411.981875 10.7 
" style="fill:none;stroke:#000000;stroke-linecap:square;stroke-linejoin:miter;stroke-width:0.8;"/>
   </g>
  </g>
 </g>
 <defs>
  <clipPath id="pc70c821362">
   <rect height="332.64" width="334.8" x="77.181875" y="10.7"/>
  </clipPath>
 </defs>
</svg>
