<?xml version="1.0" encoding="utf-8" standalone="no"?>
<!DOCTYPE svg PUBLIC "-//W3C//DTD SVG 1.1//EN"
  "http://www.w3.org/Graphics/SVG/1.1/DTD/svg11.dtd">
<!-- Created with matplotlib (http://matplotlib.org/) -->
<svg height="354pt" version="1.1" viewBox="0 0 455 354" width="455pt" xmlns="http://www.w3.org/2000/svg" xmlns:xlink="http://www.w3.org/1999/xlink">
 <defs>
  <style type="text/css">
*{stroke-linecap:butt;stroke-linejoin:round;}
  </style>
 </defs>
 <g id="figure_1">
  <g id="patch_1">
   <path d="M 0 354.04 
L 455.114687 354.04 
L 455.114687 0 
L 0 0 
z
" style="fill:#ffffff;"/>
  </g>
  <g id="axes_1">
   <g id="patch_2">
    <path d="M 109.614687 343.34 
L 444.414688 343.34 
L 444.414688 10.7 
L 109.614687 10.7 
z
" style="fill:#ffffff;"/>
   </g>
   <g id="PolyCollection_1">
    <defs>
     <path d="M 124.832869 -25.82 
L 124.832869 -144.6754 
L 128.14117 -144.6754 
L 131.44947 -144.6754 
L 134.757771 -144.6754 
L 138.066071 -144.6754 
L 141.374371 -144.6754 
L 144.682672 -144.6754 
L 147.990972 -144.6754 
L 151.299272 -144.6754 
L 154.607573 -144.6754 
L 157.915873 -144.6754 
L 161.224174 -144.6754 
L 164.532474 -144.6754 
L 167.840774 -144.6754 
L 171.149075 -144.6754 
L 174.457375 -144.6754 
L 177.765676 -144.6754 
L 181.073976 -144.6754 
L 184.382276 -144.6754 
L 187.690577 -144.6754 
L 190.998877 -144.6754 
L 194.307178 -144.6754 
L 197.615478 -144.6754 
L 200.923778 -144.6754 
L 204.232079 -144.6754 
L 207.540379 -144.6754 
L 210.84868 -144.6754 
L 214.15698 -144.6754 
L 217.46528 -144.6754 
L 220.773581 -144.6754 
L 224.081881 -144.6754 
L 227.390182 -144.6754 
L 230.698482 -144.6754 
L 234.006782 -144.6754 
L 237.315083 -144.6754 
L 240.623383 -144.6754 
L 243.931684 -144.6754 
L 247.239984 -144.6754 
L 250.548284 -144.6754 
L 253.856585 -144.6754 
L 257.164885 -144.6754 
L 260.473186 -144.6754 
L 263.781486 -144.6754 
L 267.089786 -144.6754 
L 270.398087 -144.6754 
L 273.706387 -144.6754 
L 277.014688 -144.6754 
L 280.322988 -144.6754 
L 283.631288 -144.6754 
L 286.939589 -144.6754 
L 290.247889 -144.6754 
L 293.556189 -144.6754 
L 296.86449 -144.6754 
L 300.17279 -144.6754 
L 303.481091 -144.6754 
L 306.789391 -144.6754 
L 310.097691 -144.6754 
L 313.405992 -144.6754 
L 316.714292 -144.6754 
L 320.022593 -144.6754 
L 323.330893 -144.6754 
L 326.639193 -144.6754 
L 329.947494 -144.6754 
L 333.255794 -144.6754 
L 336.564095 -144.6754 
L 339.872395 -144.6754 
L 343.180695 -144.6754 
L 346.488996 -144.6754 
L 349.797296 -144.6754 
L 353.105597 -144.6754 
L 356.413897 -144.6754 
L 359.722197 -144.6754 
L 363.030498 -144.6754 
L 366.338798 -144.6754 
L 369.647099 -144.6754 
L 372.955399 -144.6754 
L 376.263699 -144.6754 
L 379.572 -144.6754 
L 382.8803 -144.6754 
L 386.188601 -144.6754 
L 389.496901 -144.6754 
L 392.805201 -144.6754 
L 396.113502 -144.6754 
L 399.421802 -144.6754 
L 402.730103 -144.6754 
L 406.038403 -144.6754 
L 409.346703 -144.6754 
L 412.655004 -144.6754 
L 415.963304 -144.6754 
L 419.271604 -144.6754 
L 422.579905 -144.6754 
L 425.888205 -144.6754 
L 429.196506 -144.6754 
L 429.196506 -328.22 
L 429.196506 -328.22 
L 425.888205 -306.319612 
L 422.579905 -293.080144 
L 419.271604 -290.087209 
L 415.963304 -259.261822 
L 412.655004 -257.726398 
L 409.346703 -249.910343 
L 406.038403 -222.162579 
L 402.730103 -216.445522 
L 399.421802 -215.948577 
L 396.113502 -209.731178 
L 392.805201 -202.38553 
L 389.496901 -201.856845 
L 386.188601 -197.339138 
L 382.8803 -194.100411 
L 379.572 -192.72647 
L 376.263699 -192.064761 
L 372.955399 -187.764651 
L 369.647099 -185.579832 
L 366.338798 -184.640326 
L 363.030498 -179.287565 
L 359.722197 -178.039384 
L 356.413897 -174.776321 
L 353.105597 -174.245333 
L 349.797296 -173.802978 
L 346.488996 -172.052282 
L 343.180695 -171.39012 
L 339.872395 -170.884756 
L 336.564095 -167.546235 
L 333.255794 -167.355352 
L 329.947494 -166.896643 
L 326.639193 -165.424925 
L 323.330893 -163.433523 
L 320.022593 -162.400206 
L 316.714292 -161.652319 
L 313.405992 -161.333452 
L 310.097691 -159.403537 
L 306.789391 -158.502941 
L 303.481091 -157.2159 
L 300.17279 -156.919545 
L 296.86449 -156.577418 
L 293.556189 -156.271 
L 290.247889 -155.685154 
L 286.939589 -154.569082 
L 283.631288 -154.328568 
L 280.322988 -154.02888 
L 277.014688 -153.160618 
L 273.706387 -151.924712 
L 270.398087 -151.644664 
L 267.089786 -151.587969 
L 263.781486 -149.966982 
L 260.473186 -148.203546 
L 257.164885 -148.078124 
L 253.856585 -145.712674 
L 250.548284 -143.738825 
L 247.239984 -142.235771 
L 243.931684 -141.940952 
L 240.623383 -141.093483 
L 237.315083 -136.536957 
L 234.006782 -135.8145 
L 230.698482 -133.442141 
L 227.390182 -132.690694 
L 224.081881 -129.356803 
L 220.773581 -128.880691 
L 217.46528 -128.462915 
L 214.15698 -127.766272 
L 210.84868 -127.177121 
L 207.540379 -123.161689 
L 204.232079 -122.569153 
L 200.923778 -119.524249 
L 197.615478 -118.542599 
L 194.307178 -118.222781 
L 190.998877 -117.276261 
L 187.690577 -116.052595 
L 184.382276 -111.127499 
L 181.073976 -105.561313 
L 177.765676 -102.758409 
L 174.457375 -101.223808 
L 171.149075 -99.82793 
L 167.840774 -99.815274 
L 164.532474 -98.911466 
L 161.224174 -98.717066 
L 157.915873 -89.518224 
L 154.607573 -89.049084 
L 151.299272 -81.142377 
L 147.990972 -80.845821 
L 144.682672 -80.519482 
L 141.374371 -75.864605 
L 138.066071 -75.228992 
L 134.757771 -67.206574 
L 131.44947 -63.027028 
L 128.14117 -55.952974 
L 124.832869 -25.82 
z
" id="m850c9aa206" style="stroke:#4a98c9;"/>
    </defs>
    <g clip-path="url(#p68fbd3871d)">
     <use style="fill:#4a98c9;stroke:#4a98c9;" x="0" xlink:href="#m850c9aa206" y="354.04"/>
    </g>
   </g>
   <g id="PolyCollection_2">
    <defs>
     <path d="M 124.832869 -40.516229 
L 124.832869 -144.6754 
L 128.14117 -144.6754 
L 131.44947 -144.6754 
L 134.757771 -144.6754 
L 138.066071 -144.6754 
L 141.374371 -144.6754 
L 144.682672 -144.6754 
L 147.990972 -144.6754 
L 151.299272 -144.6754 
L 154.607573 -144.6754 
L 157.915873 -144.6754 
L 161.224174 -144.6754 
L 164.532474 -144.6754 
L 167.840774 -144.6754 
L 171.149075 -144.6754 
L 174.457375 -144.6754 
L 177.765676 -144.6754 
L 181.073976 -144.6754 
L 184.382276 -144.6754 
L 187.690577 -144.6754 
L 190.998877 -144.6754 
L 194.307178 -144.6754 
L 197.615478 -144.6754 
L 200.923778 -144.6754 
L 204.232079 -144.6754 
L 207.540379 -144.6754 
L 210.84868 -144.6754 
L 214.15698 -144.6754 
L 217.46528 -144.6754 
L 220.773581 -144.6754 
L 224.081881 -144.6754 
L 227.390182 -144.6754 
L 230.698482 -144.6754 
L 234.006782 -144.6754 
L 237.315083 -144.6754 
L 240.623383 -144.6754 
L 243.931684 -144.6754 
L 247.239984 -144.6754 
L 250.548284 -144.6754 
L 253.856585 -144.6754 
L 257.164885 -144.6754 
L 260.473186 -144.6754 
L 263.781486 -144.6754 
L 267.089786 -144.6754 
L 270.398087 -144.6754 
L 273.706387 -144.6754 
L 277.014688 -144.6754 
L 280.322988 -144.6754 
L 283.631288 -144.6754 
L 286.939589 -144.6754 
L 290.247889 -144.6754 
L 293.556189 -144.6754 
L 296.86449 -144.6754 
L 300.17279 -144.6754 
L 303.481091 -144.6754 
L 306.789391 -144.6754 
L 310.097691 -144.6754 
L 313.405992 -144.6754 
L 316.714292 -144.6754 
L 320.022593 -144.6754 
L 323.330893 -144.6754 
L 326.639193 -144.6754 
L 329.947494 -144.6754 
L 333.255794 -144.6754 
L 336.564095 -144.6754 
L 339.872395 -144.6754 
L 343.180695 -144.6754 
L 346.488996 -144.6754 
L 349.797296 -144.6754 
L 353.105597 -144.6754 
L 356.413897 -144.6754 
L 359.722197 -144.6754 
L 363.030498 -144.6754 
L 366.338798 -144.6754 
L 369.647099 -144.6754 
L 372.955399 -144.6754 
L 376.263699 -144.6754 
L 379.572 -144.6754 
L 382.8803 -144.6754 
L 386.188601 -144.6754 
L 389.496901 -144.6754 
L 392.805201 -144.6754 
L 396.113502 -144.6754 
L 399.421802 -144.6754 
L 402.730103 -144.6754 
L 406.038403 -144.6754 
L 409.346703 -144.6754 
L 412.655004 -144.6754 
L 415.963304 -144.6754 
L 419.271604 -144.6754 
L 422.579905 -144.6754 
L 425.888205 -144.6754 
L 429.196506 -144.6754 
L 429.196506 -324.134753 
L 429.196506 -324.134753 
L 425.888205 -299.733148 
L 422.579905 -292.419555 
L 419.271604 -285.059321 
L 415.963304 -248.15707 
L 412.655004 -240.005134 
L 409.346703 -239.883664 
L 406.038403 -239.085887 
L 402.730103 -235.105773 
L 399.421802 -230.544861 
L 396.113502 -220.387455 
L 392.805201 -216.89993 
L 389.496901 -210.387249 
L 386.188601 -208.543834 
L 382.8803 -205.558187 
L 379.572 -204.082967 
L 376.263699 -198.821998 
L 372.955399 -195.057118 
L 369.647099 -188.370605 
L 366.338798 -187.192227 
L 363.030498 -185.121579 
L 359.722197 -183.868965 
L 356.413897 -182.321922 
L 353.105597 -180.465948 
L 349.797296 -180.277482 
L 346.488996 -179.796649 
L 343.180695 -176.083417 
L 339.872395 -173.170358 
L 336.564095 -170.791515 
L 333.255794 -169.861226 
L 329.947494 -169.533138 
L 326.639193 -169.470719 
L 323.330893 -166.429068 
L 320.022593 -166.285352 
L 316.714292 -163.549902 
L 313.405992 -162.886447 
L 310.097691 -162.778741 
L 306.789391 -161.541743 
L 303.481091 -160.565186 
L 300.17279 -159.842945 
L 296.86449 -159.080451 
L 293.556189 -158.579414 
L 290.247889 -157.145463 
L 286.939589 -156.422036 
L 283.631288 -154.906205 
L 280.322988 -153.804948 
L 277.014688 -153.57159 
L 273.706387 -152.071392 
L 270.398087 -151.07087 
L 267.089786 -149.656753 
L 263.781486 -149.417469 
L 260.473186 -148.807273 
L 257.164885 -147.431718 
L 253.856585 -146.510617 
L 250.548284 -146.158053 
L 247.239984 -143.796817 
L 243.931684 -142.236908 
L 240.623383 -141.494053 
L 237.315083 -140.89115 
L 234.006782 -140.447813 
L 230.698482 -139.179201 
L 227.390182 -137.152989 
L 224.081881 -137.084162 
L 220.773581 -134.265688 
L 217.46528 -132.584219 
L 214.15698 -132.438255 
L 210.84868 -130.033843 
L 207.540379 -128.526397 
L 204.232079 -128.18707 
L 200.923778 -127.836513 
L 197.615478 -125.913992 
L 194.307178 -124.079649 
L 190.998877 -123.5617 
L 187.690577 -122.206087 
L 184.382276 -117.015592 
L 181.073976 -115.477026 
L 177.765676 -115.379888 
L 174.457375 -110.662115 
L 171.149075 -102.22093 
L 167.840774 -98.191418 
L 164.532474 -94.865387 
L 161.224174 -93.38872 
L 157.915873 -90.263219 
L 154.607573 -86.115953 
L 151.299272 -84.723459 
L 147.990972 -81.180383 
L 144.682672 -79.699837 
L 141.374371 -79.691668 
L 138.066071 -73.994213 
L 134.757771 -70.521267 
L 131.44947 -55.206086 
L 128.14117 -43.25087 
L 124.832869 -40.516229 
z
" id="m406d36e002" style="stroke:#f14432;stroke-opacity:0.8;"/>
    </defs>
    <g clip-path="url(#p68fbd3871d)">
     <use style="fill:#f14432;fill-opacity:0.8;stroke:#f14432;stroke-opacity:0.8;" x="0" xlink:href="#m406d36e002" y="354.04"/>
    </g>
   </g>
   <g id="matplotlib.axis_1"/>
   <g id="matplotlib.axis_2">
    <g id="ytick_1">
     <g id="line2d_1">
      <defs>
       <path d="M 0 0 
L -3.5 0 
" id="m006f92448e" style="stroke:#000000;stroke-width:0.8;"/>
      </defs>
      <g>
       <use style="stroke:#000000;stroke-width:0.8;" x="109.614687" xlink:href="#m006f92448e" y="281.370867"/>
      </g>
     </g>
     <g id="text_1">
      <!-- −0.0005 -->
      <defs>
       <path d="M 10.59375 35.5 
L 73.1875 35.5 
L 73.1875 27.203125 
L 10.59375 27.203125 
z
" id="DejaVuSans-2212"/>
       <path d="M 31.78125 66.40625 
Q 24.171875 66.40625 20.328125 58.90625 
Q 16.5 51.421875 16.5 36.375 
Q 16.5 21.390625 20.328125 13.890625 
Q 24.171875 6.390625 31.78125 6.390625 
Q 39.453125 6.390625 43.28125 13.890625 
Q 47.125 21.390625 47.125 36.375 
Q 47.125 51.421875 43.28125 58.90625 
Q 39.453125 66.40625 31.78125 66.40625 
z
M 31.78125 74.21875 
Q 44.046875 74.21875 50.515625 64.515625 
Q 56.984375 54.828125 56.984375 36.375 
Q 56.984375 17.96875 50.515625 8.265625 
Q 44.046875 -1.421875 31.78125 -1.421875 
Q 19.53125 -1.421875 13.0625 8.265625 
Q 6.59375 17.96875 6.59375 36.375 
Q 6.59375 54.828125 13.0625 64.515625 
Q 19.53125 74.21875 31.78125 74.21875 
z
" id="DejaVuSans-30"/>
       <path d="M 10.6875 12.40625 
L 21 12.40625 
L 21 0 
L 10.6875 0 
z
" id="DejaVuSans-2e"/>
       <path d="M 10.796875 72.90625 
L 49.515625 72.90625 
L 49.515625 64.59375 
L 19.828125 64.59375 
L 19.828125 46.734375 
Q 21.96875 47.46875 24.109375 47.828125 
Q 26.265625 48.1875 28.421875 48.1875 
Q 40.625 48.1875 47.75 41.5 
Q 54.890625 34.8125 54.890625 23.390625 
Q 54.890625 11.625 47.5625 5.09375 
Q 40.234375 -1.421875 26.90625 -1.421875 
Q 22.3125 -1.421875 17.546875 -0.640625 
Q 12.796875 0.140625 7.71875 1.703125 
L 7.71875 11.625 
Q 12.109375 9.234375 16.796875 8.0625 
Q 21.484375 6.890625 26.703125 6.890625 
Q 35.15625 6.890625 40.078125 11.328125 
Q 45.015625 15.765625 45.015625 23.390625 
Q 45.015625 31 40.078125 35.4375 
Q 35.15625 39.890625 26.703125 39.890625 
Q 22.75 39.890625 18.8125 39.015625 
Q 14.890625 38.140625 10.796875 36.28125 
z
" id="DejaVuSans-35"/>
      </defs>
      <g transform="translate(7.2 289.729149)scale(0.22 -0.22)">
       <use xlink:href="#DejaVuSans-2212"/>
       <use x="83.789062" xlink:href="#DejaVuSans-30"/>
       <use x="147.412109" xlink:href="#DejaVuSans-2e"/>
       <use x="179.199219" xlink:href="#DejaVuSans-30"/>
       <use x="242.822266" xlink:href="#DejaVuSans-30"/>
       <use x="306.445312" xlink:href="#DejaVuSans-30"/>
       <use x="370.068359" xlink:href="#DejaVuSans-35"/>
      </g>
     </g>
    </g>
    <g id="ytick_2">
     <g id="line2d_2">
      <g>
       <use style="stroke:#000000;stroke-width:0.8;" x="109.614687" xlink:href="#m006f92448e" y="209.3646"/>
      </g>
     </g>
     <g id="text_2">
      <!-- 0.0000 -->
      <g transform="translate(25.635312 217.722882)scale(0.22 -0.22)">
       <use xlink:href="#DejaVuSans-30"/>
       <use x="63.623047" xlink:href="#DejaVuSans-2e"/>
       <use x="95.410156" xlink:href="#DejaVuSans-30"/>
       <use x="159.033203" xlink:href="#DejaVuSans-30"/>
       <use x="222.65625" xlink:href="#DejaVuSans-30"/>
       <use x="286.279297" xlink:href="#DejaVuSans-30"/>
      </g>
     </g>
    </g>
    <g id="ytick_3">
     <g id="line2d_3">
      <g>
       <use style="stroke:#000000;stroke-width:0.8;" x="109.614687" xlink:href="#m006f92448e" y="137.358333"/>
      </g>
     </g>
     <g id="text_3">
      <!-- 0.0005 -->
      <g transform="translate(25.635312 145.716615)scale(0.22 -0.22)">
       <use xlink:href="#DejaVuSans-30"/>
       <use x="63.623047" xlink:href="#DejaVuSans-2e"/>
       <use x="95.410156" xlink:href="#DejaVuSans-30"/>
       <use x="159.033203" xlink:href="#DejaVuSans-30"/>
       <use x="222.65625" xlink:href="#DejaVuSans-30"/>
       <use x="286.279297" xlink:href="#DejaVuSans-35"/>
      </g>
     </g>
    </g>
    <g id="ytick_4">
     <g id="line2d_4">
      <g>
       <use style="stroke:#000000;stroke-width:0.8;" x="109.614687" xlink:href="#m006f92448e" y="65.352066"/>
      </g>
     </g>
     <g id="text_4">
      <!-- 0.0010 -->
      <defs>
       <path d="M 12.40625 8.296875 
L 28.515625 8.296875 
L 28.515625 63.921875 
L 10.984375 60.40625 
L 10.984375 69.390625 
L 28.421875 72.90625 
L 38.28125 72.90625 
L 38.28125 8.296875 
L 54.390625 8.296875 
L 54.390625 0 
L 12.40625 0 
z
" id="DejaVuSans-31"/>
      </defs>
      <g transform="translate(25.635312 73.710347)scale(0.22 -0.22)">
       <use xlink:href="#DejaVuSans-30"/>
       <use x="63.623047" xlink:href="#DejaVuSans-2e"/>
       <use x="95.410156" xlink:href="#DejaVuSans-30"/>
       <use x="159.033203" xlink:href="#DejaVuSans-30"/>
       <use x="222.65625" xlink:href="#DejaVuSans-31"/>
       <use x="286.279297" xlink:href="#DejaVuSans-30"/>
      </g>
     </g>
    </g>
   </g>
   <g id="patch_3">
    <path d="M 109.614687 343.34 
L 109.614687 10.7 
" style="fill:none;stroke:#000000;stroke-linecap:square;stroke-linejoin:miter;stroke-width:0.8;"/>
   </g>
   <g id="patch_4">
    <path d="M 444.414688 343.34 
L 444.414688 10.7 
" style="fill:none;stroke:#000000;stroke-linecap:square;stroke-linejoin:miter;stroke-width:0.8;"/>
   </g>
   <g id="patch_5">
    <path d="M 109.614687 343.34 
L 444.414688 343.34 
" style="fill:none;stroke:#000000;stroke-linecap:square;stroke-linejoin:miter;stroke-width:0.8;"/>
   </g>
   <g id="patch_6">
    <path d="M 109.614687 10.7 
L 444.414688 10.7 
" style="fill:none;stroke:#000000;stroke-linecap:square;stroke-linejoin:miter;stroke-width:0.8;"/>
   </g>
  </g>
 </g>
 <defs>
  <clipPath id="p68fbd3871d">
   <rect height="332.64" width="334.8" x="109.614687" y="10.7"/>
  </clipPath>
 </defs>
</svg>
