<?xml version="1.0" encoding="utf-8" standalone="no"?>
<!DOCTYPE svg PUBLIC "-//W3C//DTD SVG 1.1//EN"
  "http://www.w3.org/Graphics/SVG/1.1/DTD/svg11.dtd">
<!-- Created with matplotlib (http://matplotlib.org/) -->
<svg height="354pt" version="1.1" viewBox="0 0 182 354" width="182pt" xmlns="http://www.w3.org/2000/svg" xmlns:xlink="http://www.w3.org/1999/xlink">
 <defs>
  <style type="text/css">
*{stroke-linecap:butt;stroke-linejoin:round;}
  </style>
 </defs>
 <g id="figure_1">
  <g id="patch_1">
   <path d="M 0 354.04 
L 182.930313 354.04 
L 182.930313 0 
L 0 0 
z
" style="fill:#ffffff;"/>
  </g>
  <g id="axes_1">
   <g id="patch_2">
    <path d="M 60.630312 343.34 
L 172.230312 343.34 
L 172.230312 10.7 
L 60.630312 10.7 
z
" style="fill:#ffffff;"/>
   </g>
   <g id="matplotlib.axis_1"/>
   <g id="matplotlib.axis_2">
    <g id="ytick_1">
     <g id="line2d_1">
      <defs>
       <path d="M 0 0 
L -3.5 0 
" id="m759b1cc2d2" style="stroke:#000000;stroke-width:0.8;"/>
      </defs>
      <g>
       <use style="stroke:#000000;stroke-width:0.8;" x="60.630312" xlink:href="#m759b1cc2d2" y="303.659818"/>
      </g>
     </g>
     <g id="text_1">
      <!-- −30 -->
      <defs>
       <path d="M 10.59375 35.5 
L 73.1875 35.5 
L 73.1875 27.203125 
L 10.59375 27.203125 
z
" id="DejaVuSans-2212"/>
       <path d="M 40.578125 39.3125 
Q 47.65625 37.796875 51.625 33 
Q 55.609375 28.21875 55.609375 21.1875 
Q 55.609375 10.40625 48.1875 4.484375 
Q 40.765625 -1.421875 27.09375 -1.421875 
Q 22.515625 -1.421875 17.65625 -0.515625 
Q 12.796875 0.390625 7.625 2.203125 
L 7.625 11.71875 
Q 11.71875 9.328125 16.59375 8.109375 
Q 21.484375 6.890625 26.8125 6.890625 
Q 36.078125 6.890625 40.9375 10.546875 
Q 45.796875 14.203125 45.796875 21.1875 
Q 45.796875 27.640625 41.28125 31.265625 
Q 36.765625 34.90625 28.71875 34.90625 
L 20.21875 34.90625 
L 20.21875 43.015625 
L 29.109375 43.015625 
Q 36.375 43.015625 40.234375 45.921875 
Q 44.09375 48.828125 44.09375 54.296875 
Q 44.09375 59.90625 40.109375 62.90625 
Q 36.140625 65.921875 28.71875 65.921875 
Q 24.65625 65.921875 20.015625 65.03125 
Q 15.375 64.15625 9.8125 62.3125 
L 9.8125 71.09375 
Q 15.4375 72.65625 20.34375 73.4375 
Q 25.25 74.21875 29.59375 74.21875 
Q 40.828125 74.21875 47.359375 69.109375 
Q 53.90625 64.015625 53.90625 55.328125 
Q 53.90625 49.265625 50.4375 45.09375 
Q 46.96875 40.921875 40.578125 39.3125 
z
" id="DejaVuSans-33"/>
       <path d="M 31.78125 66.40625 
Q 24.171875 66.40625 20.328125 58.90625 
Q 16.5 51.421875 16.5 36.375 
Q 16.5 21.390625 20.328125 13.890625 
Q 24.171875 6.390625 31.78125 6.390625 
Q 39.453125 6.390625 43.28125 13.890625 
Q 47.125 21.390625 47.125 36.375 
Q 47.125 51.421875 43.28125 58.90625 
Q 39.453125 66.40625 31.78125 66.40625 
z
M 31.78125 74.21875 
Q 44.046875 74.21875 50.515625 64.515625 
Q 56.984375 54.828125 56.984375 36.375 
Q 56.984375 17.96875 50.515625 8.265625 
Q 44.046875 -1.421875 31.78125 -1.421875 
Q 19.53125 -1.421875 13.0625 8.265625 
Q 6.59375 17.96875 6.59375 36.375 
Q 6.59375 54.828125 13.0625 64.515625 
Q 19.53125 74.21875 31.78125 74.21875 
z
" id="DejaVuSans-30"/>
      </defs>
      <g transform="translate(7.2 312.0181)scale(0.22 -0.22)">
       <use xlink:href="#DejaVuSans-2212"/>
       <use x="83.789062" xlink:href="#DejaVuSans-33"/>
       <use x="147.412109" xlink:href="#DejaVuSans-30"/>
      </g>
     </g>
    </g>
    <g id="ytick_2">
     <g id="line2d_2">
      <g>
       <use style="stroke:#000000;stroke-width:0.8;" x="60.630312" xlink:href="#m759b1cc2d2" y="261.446546"/>
      </g>
     </g>
     <g id="text_2">
      <!-- −20 -->
      <defs>
       <path d="M 19.1875 8.296875 
L 53.609375 8.296875 
L 53.609375 0 
L 7.328125 0 
L 7.328125 8.296875 
Q 12.9375 14.109375 22.625 23.890625 
Q 32.328125 33.6875 34.8125 36.53125 
Q 39.546875 41.84375 41.421875 45.53125 
Q 43.3125 49.21875 43.3125 52.78125 
Q 43.3125 58.59375 39.234375 62.25 
Q 35.15625 65.921875 28.609375 65.921875 
Q 23.96875 65.921875 18.8125 64.3125 
Q 13.671875 62.703125 7.8125 59.421875 
L 7.8125 69.390625 
Q 13.765625 71.78125 18.9375 73 
Q 24.125 74.21875 28.421875 74.21875 
Q 39.75 74.21875 46.484375 68.546875 
Q 53.21875 62.890625 53.21875 53.421875 
Q 53.21875 48.921875 51.53125 44.890625 
Q 49.859375 40.875 45.40625 35.40625 
Q 44.1875 33.984375 37.640625 27.21875 
Q 31.109375 20.453125 19.1875 8.296875 
z
" id="DejaVuSans-32"/>
      </defs>
      <g transform="translate(7.2 269.804827)scale(0.22 -0.22)">
       <use xlink:href="#DejaVuSans-2212"/>
       <use x="83.789062" xlink:href="#DejaVuSans-32"/>
       <use x="147.412109" xlink:href="#DejaVuSans-30"/>
      </g>
     </g>
    </g>
    <g id="ytick_3">
     <g id="line2d_3">
      <g>
       <use style="stroke:#000000;stroke-width:0.8;" x="60.630312" xlink:href="#m759b1cc2d2" y="219.233273"/>
      </g>
     </g>
     <g id="text_3">
      <!-- −10 -->
      <defs>
       <path d="M 12.40625 8.296875 
L 28.515625 8.296875 
L 28.515625 63.921875 
L 10.984375 60.40625 
L 10.984375 69.390625 
L 28.421875 72.90625 
L 38.28125 72.90625 
L 38.28125 8.296875 
L 54.390625 8.296875 
L 54.390625 0 
L 12.40625 0 
z
" id="DejaVuSans-31"/>
      </defs>
      <g transform="translate(7.2 227.591554)scale(0.22 -0.22)">
       <use xlink:href="#DejaVuSans-2212"/>
       <use x="83.789062" xlink:href="#DejaVuSans-31"/>
       <use x="147.412109" xlink:href="#DejaVuSans-30"/>
      </g>
     </g>
    </g>
    <g id="ytick_4">
     <g id="line2d_4">
      <g>
       <use style="stroke:#000000;stroke-width:0.8;" x="60.630312" xlink:href="#m759b1cc2d2" y="177.02"/>
      </g>
     </g>
     <g id="text_4">
      <!-- 0 -->
      <g transform="translate(39.632812 185.378281)scale(0.22 -0.22)">
       <use xlink:href="#DejaVuSans-30"/>
      </g>
     </g>
    </g>
    <g id="ytick_5">
     <g id="line2d_5">
      <g>
       <use style="stroke:#000000;stroke-width:0.8;" x="60.630312" xlink:href="#m759b1cc2d2" y="134.806727"/>
      </g>
     </g>
     <g id="text_5">
      <!-- 10 -->
      <g transform="translate(25.635312 143.165008)scale(0.22 -0.22)">
       <use xlink:href="#DejaVuSans-31"/>
       <use x="63.623047" xlink:href="#DejaVuSans-30"/>
      </g>
     </g>
    </g>
    <g id="ytick_6">
     <g id="line2d_6">
      <g>
       <use style="stroke:#000000;stroke-width:0.8;" x="60.630312" xlink:href="#m759b1cc2d2" y="92.593454"/>
      </g>
     </g>
     <g id="text_6">
      <!-- 20 -->
      <g transform="translate(25.635312 100.951736)scale(0.22 -0.22)">
       <use xlink:href="#DejaVuSans-32"/>
       <use x="63.623047" xlink:href="#DejaVuSans-30"/>
      </g>
     </g>
    </g>
    <g id="ytick_7">
     <g id="line2d_7">
      <g>
       <use style="stroke:#000000;stroke-width:0.8;" x="60.630312" xlink:href="#m759b1cc2d2" y="50.380182"/>
      </g>
     </g>
     <g id="text_7">
      <!-- 30 -->
      <g transform="translate(25.635312 58.738463)scale(0.22 -0.22)">
       <use xlink:href="#DejaVuSans-33"/>
       <use x="63.623047" xlink:href="#DejaVuSans-30"/>
      </g>
     </g>
    </g>
   </g>
   <g id="patch_3">
    <path clip-path="url(#p696a309385)" d="M 65.70304 177.02 
L 80.196546 177.02 
L 80.196546 66.647269 
L 65.70304 66.647269 
z
" style="fill:#4a98c9;"/>
   </g>
   <g id="patch_4">
    <path clip-path="url(#p696a309385)" d="M 80.196546 177.02 
L 94.690053 177.02 
L 94.690053 75.966223 
L 80.196546 75.966223 
z
" style="fill:#4a98c9;"/>
   </g>
   <g id="patch_5">
    <path clip-path="url(#p696a309385)" d="M 94.690053 177.02 
L 109.183559 177.02 
L 109.183559 77.408807 
L 94.690053 77.408807 
z
" style="fill:#4a98c9;"/>
   </g>
   <g id="patch_6">
    <path clip-path="url(#p696a309385)" d="M 109.183559 177.02 
L 123.677066 177.02 
L 123.677066 91.810312 
L 109.183559 91.810312 
z
" style="fill:#4a98c9;"/>
   </g>
   <g id="patch_7">
    <path clip-path="url(#p696a309385)" d="M 123.677066 177.02 
L 138.170572 177.02 
L 138.170572 92.02628 
L 123.677066 92.02628 
z
" style="fill:#4a98c9;"/>
   </g>
   <g id="patch_8">
    <path clip-path="url(#p696a309385)" d="M 138.170572 177.02 
L 152.664079 177.02 
L 152.664079 92.130426 
L 138.170572 92.130426 
z
" style="fill:#4a98c9;"/>
   </g>
   <g id="patch_9">
    <path clip-path="url(#p696a309385)" d="M 152.664079 177.02 
L 167.157585 177.02 
L 167.157585 103.760956 
L 152.664079 103.760956 
z
" style="fill:#4a98c9;"/>
   </g>
   <g id="patch_10">
    <path clip-path="url(#p696a309385)" d="M 65.70304 177.02 
L 80.196546 177.02 
L 80.196546 311.019207 
L 65.70304 311.019207 
z
" style="fill:#f14432;"/>
   </g>
   <g id="patch_11">
    <path clip-path="url(#p696a309385)" d="M 80.196546 177.02 
L 94.690053 177.02 
L 94.690053 298.179354 
L 80.196546 298.179354 
z
" style="fill:#f14432;"/>
   </g>
   <g id="patch_12">
    <path clip-path="url(#p696a309385)" d="M 94.690053 177.02 
L 109.183559 177.02 
L 109.183559 296.09738 
L 94.690053 296.09738 
z
" style="fill:#f14432;"/>
   </g>
   <g id="patch_13">
    <path clip-path="url(#p696a309385)" d="M 109.183559 177.02 
L 123.677066 177.02 
L 123.677066 276.140236 
L 109.183559 276.140236 
z
" style="fill:#f14432;"/>
   </g>
   <g id="patch_14">
    <path clip-path="url(#p696a309385)" d="M 123.677066 177.02 
L 138.170572 177.02 
L 138.170572 275.825442 
L 123.677066 275.825442 
z
" style="fill:#f14432;"/>
   </g>
   <g id="patch_15">
    <path clip-path="url(#p696a309385)" d="M 138.170572 177.02 
L 152.664079 177.02 
L 152.664079 275.680583 
L 138.170572 275.680583 
z
" style="fill:#f14432;"/>
   </g>
   <g id="patch_16">
    <path clip-path="url(#p696a309385)" d="M 152.664079 177.02 
L 167.157585 177.02 
L 167.157585 259.562407 
L 152.664079 259.562407 
z
" style="fill:#f14432;"/>
   </g>
   <g id="patch_17">
    <path d="M 60.630312 343.34 
L 60.630312 10.7 
" style="fill:none;stroke:#000000;stroke-linecap:square;stroke-linejoin:miter;stroke-width:0.8;"/>
   </g>
   <g id="patch_18">
    <path d="M 172.230312 343.34 
L 172.230312 10.7 
" style="fill:none;stroke:#000000;stroke-linecap:square;stroke-linejoin:miter;stroke-width:0.8;"/>
   </g>
   <g id="patch_19">
    <path d="M 60.630313 343.34 
L 172.230313 343.34 
" style="fill:none;stroke:#000000;stroke-linecap:square;stroke-linejoin:miter;stroke-width:0.8;"/>
   </g>
   <g id="patch_20">
    <path d="M 60.630313 10.7 
L 172.230313 10.7 
" style="fill:none;stroke:#000000;stroke-linecap:square;stroke-linejoin:miter;stroke-width:0.8;"/>
   </g>
   <g id="patch_21">
    <path clip-path="url(#p696a309385)" d="M 65.70304 177.02 
L 80.196546 177.02 
L 80.196546 25.82 
L 65.70304 25.82 
z
" style="fill:none;stroke:#000000;stroke-linejoin:miter;"/>
   </g>
   <g id="patch_22">
    <path clip-path="url(#p696a309385)" d="M 80.196546 177.02 
L 94.690053 177.02 
L 94.690053 40.300961 
L 80.196546 40.300961 
z
" style="fill:none;stroke:#000000;stroke-linejoin:miter;"/>
   </g>
   <g id="patch_23">
    <path clip-path="url(#p696a309385)" d="M 94.690053 177.02 
L 109.183559 177.02 
L 109.183559 42.657663 
L 94.690053 42.657663 
z
" style="fill:none;stroke:#000000;stroke-linejoin:miter;"/>
   </g>
   <g id="patch_24">
    <path clip-path="url(#p696a309385)" d="M 109.183559 177.02 
L 123.677066 177.02 
L 123.677066 65.176543 
L 109.183559 65.176543 
z
" style="fill:none;stroke:#000000;stroke-linejoin:miter;"/>
   </g>
   <g id="patch_25">
    <path clip-path="url(#p696a309385)" d="M 123.677066 177.02 
L 138.170572 177.02 
L 138.170572 65.511771 
L 123.677066 65.511771 
z
" style="fill:none;stroke:#000000;stroke-linejoin:miter;"/>
   </g>
   <g id="patch_26">
    <path clip-path="url(#p696a309385)" d="M 138.170572 177.02 
L 152.664079 177.02 
L 152.664079 65.689426 
L 138.170572 65.689426 
z
" style="fill:none;stroke:#000000;stroke-linejoin:miter;"/>
   </g>
   <g id="patch_27">
    <path clip-path="url(#p696a309385)" d="M 152.664079 177.02 
L 167.157585 177.02 
L 167.157585 83.860168 
L 152.664079 83.860168 
z
" style="fill:none;stroke:#000000;stroke-linejoin:miter;"/>
   </g>
   <g id="patch_28">
    <path clip-path="url(#p696a309385)" d="M 65.70304 177.02 
L 80.196546 177.02 
L 80.196546 328.22 
L 65.70304 328.22 
z
" style="fill:none;stroke:#000000;stroke-linejoin:miter;"/>
   </g>
   <g id="patch_29">
    <path clip-path="url(#p696a309385)" d="M 80.196546 177.02 
L 94.690053 177.02 
L 94.690053 313.739039 
L 80.196546 313.739039 
z
" style="fill:none;stroke:#000000;stroke-linejoin:miter;"/>
   </g>
   <g id="patch_30">
    <path clip-path="url(#p696a309385)" d="M 94.690053 177.02 
L 109.183559 177.02 
L 109.183559 311.382337 
L 94.690053 311.382337 
z
" style="fill:none;stroke:#000000;stroke-linejoin:miter;"/>
   </g>
   <g id="patch_31">
    <path clip-path="url(#p696a309385)" d="M 109.183559 177.02 
L 123.677066 177.02 
L 123.677066 288.863457 
L 109.183559 288.863457 
z
" style="fill:none;stroke:#000000;stroke-linejoin:miter;"/>
   </g>
   <g id="patch_32">
    <path clip-path="url(#p696a309385)" d="M 123.677066 177.02 
L 138.170572 177.02 
L 138.170572 288.528229 
L 123.677066 288.528229 
z
" style="fill:none;stroke:#000000;stroke-linejoin:miter;"/>
   </g>
   <g id="patch_33">
    <path clip-path="url(#p696a309385)" d="M 138.170572 177.02 
L 152.664079 177.02 
L 152.664079 288.350574 
L 138.170572 288.350574 
z
" style="fill:none;stroke:#000000;stroke-linejoin:miter;"/>
   </g>
   <g id="patch_34">
    <path clip-path="url(#p696a309385)" d="M 152.664079 177.02 
L 167.157585 177.02 
L 167.157585 270.179832 
L 152.664079 270.179832 
z
" style="fill:none;stroke:#000000;stroke-linejoin:miter;"/>
   </g>
  </g>
 </g>
 <defs>
  <clipPath id="p696a309385">
   <rect height="332.64" width="111.6" x="60.630312" y="10.7"/>
  </clipPath>
 </defs>
</svg>
