<?xml version="1.0" encoding="utf-8" standalone="no"?>
<!DOCTYPE svg PUBLIC "-//W3C//DTD SVG 1.1//EN"
  "http://www.w3.org/Graphics/SVG/1.1/DTD/svg11.dtd">
<!-- Created with matplotlib (http://matplotlib.org/) -->
<svg height="354pt" version="1.1" viewBox="0 0 392 354" width="392pt" xmlns="http://www.w3.org/2000/svg" xmlns:xlink="http://www.w3.org/1999/xlink">
 <defs>
  <style type="text/css">
*{stroke-linecap:butt;stroke-linejoin:round;}
  </style>
 </defs>
 <g id="figure_1">
  <g id="patch_1">
   <path d="M -0 354.04 
L 392.132812 354.04 
L 392.132812 0 
L -0 0 
z
" style="fill:#ffffff;"/>
  </g>
  <g id="axes_1">
   <g id="patch_2">
    <path d="M 46.632812 343.34 
L 381.432813 343.34 
L 381.432813 10.7 
L 46.632812 10.7 
z
" style="fill:#ffffff;"/>
   </g>
   <g id="PolyCollection_1">
    <defs>
     <path d="M 61.850994 -75.952618 
L 61.850994 -136.981852 
L 65.159295 -136.981852 
L 68.467595 -136.981852 
L 71.775896 -136.981852 
L 75.084196 -136.981852 
L 78.392496 -136.981852 
L 81.700797 -136.981852 
L 85.009097 -136.981852 
L 88.317397 -136.981852 
L 91.625698 -136.981852 
L 94.933998 -136.981852 
L 98.242299 -136.981852 
L 101.550599 -136.981852 
L 104.858899 -136.981852 
L 108.1672 -136.981852 
L 111.4755 -136.981852 
L 114.783801 -136.981852 
L 118.092101 -136.981852 
L 121.400401 -136.981852 
L 124.708702 -136.981852 
L 128.017002 -136.981852 
L 131.325303 -136.981852 
L 134.633603 -136.981852 
L 137.941903 -136.981852 
L 141.250204 -136.981852 
L 144.558504 -136.981852 
L 147.866805 -136.981852 
L 151.175105 -136.981852 
L 154.483405 -136.981852 
L 157.791706 -136.981852 
L 161.100006 -136.981852 
L 164.408307 -136.981852 
L 167.716607 -136.981852 
L 171.024907 -136.981852 
L 174.333208 -136.981852 
L 177.641508 -136.981852 
L 180.949809 -136.981852 
L 184.258109 -136.981852 
L 187.566409 -136.981852 
L 190.87471 -136.981852 
L 194.18301 -136.981852 
L 197.491311 -136.981852 
L 200.799611 -136.981852 
L 204.107911 -136.981852 
L 207.416212 -136.981852 
L 210.724512 -136.981852 
L 214.032813 -136.981852 
L 217.341113 -136.981852 
L 220.649413 -136.981852 
L 223.957714 -136.981852 
L 227.266014 -136.981852 
L 230.574314 -136.981852 
L 233.882615 -136.981852 
L 237.190915 -136.981852 
L 240.499216 -136.981852 
L 243.807516 -136.981852 
L 247.115816 -136.981852 
L 250.424117 -136.981852 
L 253.732417 -136.981852 
L 257.040718 -136.981852 
L 260.349018 -136.981852 
L 263.657318 -136.981852 
L 266.965619 -136.981852 
L 270.273919 -136.981852 
L 273.58222 -136.981852 
L 276.89052 -136.981852 
L 280.19882 -136.981852 
L 283.507121 -136.981852 
L 286.815421 -136.981852 
L 290.123722 -136.981852 
L 293.432022 -136.981852 
L 296.740322 -136.981852 
L 300.048623 -136.981852 
L 303.356923 -136.981852 
L 306.665224 -136.981852 
L 309.973524 -136.981852 
L 313.281824 -136.981852 
L 316.590125 -136.981852 
L 319.898425 -136.981852 
L 323.206726 -136.981852 
L 326.515026 -136.981852 
L 329.823326 -136.981852 
L 333.131627 -136.981852 
L 336.439927 -136.981852 
L 339.748228 -136.981852 
L 343.056528 -136.981852 
L 346.364828 -136.981852 
L 349.673129 -136.981852 
L 352.981429 -136.981852 
L 356.289729 -136.981852 
L 359.59803 -136.981852 
L 362.90633 -136.981852 
L 366.214631 -136.981852 
L 366.214631 -209.127968 
L 366.214631 -209.127968 
L 362.90633 -195.585843 
L 359.59803 -194.002684 
L 356.289729 -183.457785 
L 352.981429 -179.315324 
L 349.673129 -179.159294 
L 346.364828 -170.779321 
L 343.056528 -159.597397 
L 339.748228 -158.880462 
L 336.439927 -157.885557 
L 333.131627 -156.643354 
L 329.823326 -153.634085 
L 326.515026 -152.602744 
L 323.206726 -152.577549 
L 319.898425 -152.483903 
L 316.590125 -151.463132 
L 313.281824 -150.62224 
L 309.973524 -150.325185 
L 306.665224 -149.841114 
L 303.356923 -149.716503 
L 300.048623 -148.829292 
L 296.740322 -148.592323 
L 293.432022 -148.101134 
L 290.123722 -146.321112 
L 286.815421 -146.173601 
L 283.507121 -146.171977 
L 280.19882 -145.473569 
L 276.89052 -144.510072 
L 273.58222 -144.111352 
L 270.273919 -143.752847 
L 266.965619 -143.693628 
L 263.657318 -143.36679 
L 260.349018 -143.185997 
L 257.040718 -143.114689 
L 253.732417 -142.675119 
L 250.424117 -142.653956 
L 247.115816 -142.487272 
L 243.807516 -142.332768 
L 240.499216 -141.692365 
L 237.190915 -141.649728 
L 233.882615 -141.259152 
L 230.574314 -141.053313 
L 227.266014 -140.337731 
L 223.957714 -139.168365 
L 220.649413 -139.063362 
L 217.341113 -139.020667 
L 214.032813 -138.632214 
L 210.724512 -138.490656 
L 207.416212 -138.477763 
L 204.107911 -138.080068 
L 200.799611 -137.92473 
L 197.491311 -137.637766 
L 194.18301 -137.398781 
L 190.87471 -136.941825 
L 187.566409 -136.582986 
L 184.258109 -136.21818 
L 180.949809 -135.78234 
L 177.641508 -135.60444 
L 174.333208 -135.599492 
L 171.024907 -135.351228 
L 167.716607 -135.340335 
L 164.408307 -134.596309 
L 161.100006 -134.37502 
L 157.791706 -133.880254 
L 154.483405 -133.486599 
L 151.175105 -133.31064 
L 147.866805 -133.146211 
L 144.558504 -132.717827 
L 141.250204 -132.63832 
L 137.941903 -132.636313 
L 134.633603 -131.878393 
L 131.325303 -131.623841 
L 128.017002 -130.609749 
L 124.708702 -129.066723 
L 121.400401 -128.844564 
L 118.092101 -128.668047 
L 114.783801 -127.194739 
L 111.4755 -127.146941 
L 108.1672 -127.113734 
L 104.858899 -124.127381 
L 101.550599 -123.882585 
L 98.242299 -122.052051 
L 94.933998 -121.739292 
L 91.625698 -121.642586 
L 88.317397 -121.386481 
L 85.009097 -121.349628 
L 81.700797 -119.625968 
L 78.392496 -116.259345 
L 75.084196 -113.485302 
L 71.775896 -113.011239 
L 68.467595 -103.993534 
L 65.159295 -84.967042 
L 61.850994 -75.952618 
z
" id="m44ea14098a" style="stroke:#4a98c9;"/>
    </defs>
    <g clip-path="url(#p7906e7b0df)">
     <use style="fill:#4a98c9;stroke:#4a98c9;" x="0" xlink:href="#m44ea14098a" y="354.04"/>
    </g>
   </g>
   <g id="PolyCollection_2">
    <defs>
     <path d="M 61.850994 -25.82 
L 61.850994 -136.981852 
L 65.159295 -136.981852 
L 68.467595 -136.981852 
L 71.775896 -136.981852 
L 75.084196 -136.981852 
L 78.392496 -136.981852 
L 81.700797 -136.981852 
L 85.009097 -136.981852 
L 88.317397 -136.981852 
L 91.625698 -136.981852 
L 94.933998 -136.981852 
L 98.242299 -136.981852 
L 101.550599 -136.981852 
L 104.858899 -136.981852 
L 108.1672 -136.981852 
L 111.4755 -136.981852 
L 114.783801 -136.981852 
L 118.092101 -136.981852 
L 121.400401 -136.981852 
L 124.708702 -136.981852 
L 128.017002 -136.981852 
L 131.325303 -136.981852 
L 134.633603 -136.981852 
L 137.941903 -136.981852 
L 141.250204 -136.981852 
L 144.558504 -136.981852 
L 147.866805 -136.981852 
L 151.175105 -136.981852 
L 154.483405 -136.981852 
L 157.791706 -136.981852 
L 161.100006 -136.981852 
L 164.408307 -136.981852 
L 167.716607 -136.981852 
L 171.024907 -136.981852 
L 174.333208 -136.981852 
L 177.641508 -136.981852 
L 180.949809 -136.981852 
L 184.258109 -136.981852 
L 187.566409 -136.981852 
L 190.87471 -136.981852 
L 194.18301 -136.981852 
L 197.491311 -136.981852 
L 200.799611 -136.981852 
L 204.107911 -136.981852 
L 207.416212 -136.981852 
L 210.724512 -136.981852 
L 214.032813 -136.981852 
L 217.341113 -136.981852 
L 220.649413 -136.981852 
L 223.957714 -136.981852 
L 227.266014 -136.981852 
L 230.574314 -136.981852 
L 233.882615 -136.981852 
L 237.190915 -136.981852 
L 240.499216 -136.981852 
L 243.807516 -136.981852 
L 247.115816 -136.981852 
L 250.424117 -136.981852 
L 253.732417 -136.981852 
L 257.040718 -136.981852 
L 260.349018 -136.981852 
L 263.657318 -136.981852 
L 266.965619 -136.981852 
L 270.273919 -136.981852 
L 273.58222 -136.981852 
L 276.89052 -136.981852 
L 280.19882 -136.981852 
L 283.507121 -136.981852 
L 286.815421 -136.981852 
L 290.123722 -136.981852 
L 293.432022 -136.981852 
L 296.740322 -136.981852 
L 300.048623 -136.981852 
L 303.356923 -136.981852 
L 306.665224 -136.981852 
L 309.973524 -136.981852 
L 313.281824 -136.981852 
L 316.590125 -136.981852 
L 319.898425 -136.981852 
L 323.206726 -136.981852 
L 326.515026 -136.981852 
L 329.823326 -136.981852 
L 333.131627 -136.981852 
L 336.439927 -136.981852 
L 339.748228 -136.981852 
L 343.056528 -136.981852 
L 346.364828 -136.981852 
L 349.673129 -136.981852 
L 352.981429 -136.981852 
L 356.289729 -136.981852 
L 359.59803 -136.981852 
L 362.90633 -136.981852 
L 366.214631 -136.981852 
L 366.214631 -328.22 
L 366.214631 -328.22 
L 362.90633 -312.890293 
L 359.59803 -286.983142 
L 356.289729 -241.039544 
L 352.981429 -237.007195 
L 349.673129 -231.429098 
L 346.364828 -224.038537 
L 343.056528 -211.719964 
L 339.748228 -208.083763 
L 336.439927 -203.621647 
L 333.131627 -203.598812 
L 329.823326 -202.648656 
L 326.515026 -197.609509 
L 323.206726 -194.467096 
L 319.898425 -193.020204 
L 316.590125 -184.261335 
L 313.281824 -183.00495 
L 309.973524 -178.835625 
L 306.665224 -176.389578 
L 303.356923 -167.049259 
L 300.048623 -166.635388 
L 296.740322 -165.242742 
L 293.432022 -159.152472 
L 290.123722 -156.15553 
L 286.815421 -153.272936 
L 283.507121 -152.790075 
L 280.19882 -152.077634 
L 276.89052 -150.905034 
L 273.58222 -149.609513 
L 270.273919 -149.493068 
L 266.965619 -148.335233 
L 263.657318 -146.59289 
L 260.349018 -146.22944 
L 257.040718 -145.986096 
L 253.732417 -145.622824 
L 250.424117 -145.050788 
L 247.115816 -144.937071 
L 243.807516 -144.894652 
L 240.499216 -144.829078 
L 237.190915 -143.780444 
L 233.882615 -143.706354 
L 230.574314 -143.435871 
L 227.266014 -142.760182 
L 223.957714 -142.698258 
L 220.649413 -142.344018 
L 217.341113 -142.236516 
L 214.032813 -141.430437 
L 210.724512 -141.344252 
L 207.416212 -141.117184 
L 204.107911 -141.113348 
L 200.799611 -141.017836 
L 197.491311 -140.716724 
L 194.18301 -140.615162 
L 190.87471 -139.547964 
L 187.566409 -138.163455 
L 184.258109 -137.851759 
L 180.949809 -137.80747 
L 177.641508 -137.486961 
L 174.333208 -137.410716 
L 171.024907 -136.611209 
L 167.716607 -136.513877 
L 164.408307 -136.069742 
L 161.100006 -135.220627 
L 157.791706 -134.039084 
L 154.483405 -133.955577 
L 151.175105 -133.526624 
L 147.866805 -133.245433 
L 144.558504 -133.189348 
L 141.250204 -132.459718 
L 137.941903 -132.443776 
L 134.633603 -132.209478 
L 131.325303 -131.277754 
L 128.017002 -130.719252 
L 124.708702 -130.616574 
L 121.400401 -130.456725 
L 118.092101 -129.370758 
L 114.783801 -128.063366 
L 111.4755 -125.86187 
L 108.1672 -123.422422 
L 104.858899 -121.886261 
L 101.550599 -112.192409 
L 98.242299 -109.70769 
L 94.933998 -108.93656 
L 91.625698 -108.337673 
L 88.317397 -105.174375 
L 85.009097 -98.369879 
L 81.700797 -92.844302 
L 78.392496 -90.179276 
L 75.084196 -85.868907 
L 71.775896 -84.447671 
L 68.467595 -78.61303 
L 65.159295 -50.196152 
L 61.850994 -25.82 
z
" id="m0e71c934a2" style="stroke:#f14432;stroke-opacity:0.8;"/>
    </defs>
    <g clip-path="url(#p7906e7b0df)">
     <use style="fill:#f14432;fill-opacity:0.8;stroke:#f14432;stroke-opacity:0.8;" x="0" xlink:href="#m0e71c934a2" y="354.04"/>
    </g>
   </g>
   <g id="matplotlib.axis_1"/>
   <g id="matplotlib.axis_2">
    <g id="ytick_1">
     <g id="line2d_1">
      <defs>
       <path d="M 0 0 
L -3.5 0 
" id="m72c368e76b" style="stroke:#000000;stroke-width:0.8;"/>
      </defs>
      <g>
       <use style="stroke:#000000;stroke-width:0.8;" x="46.632812" xlink:href="#m72c368e76b" y="303.255702"/>
      </g>
     </g>
     <g id="text_1">
      <!-- −4 -->
      <defs>
       <path d="M 10.59375 35.5 
L 73.1875 35.5 
L 73.1875 27.203125 
L 10.59375 27.203125 
z
" id="DejaVuSans-2212"/>
       <path d="M 37.796875 64.3125 
L 12.890625 25.390625 
L 37.796875 25.390625 
z
M 35.203125 72.90625 
L 47.609375 72.90625 
L 47.609375 25.390625 
L 58.015625 25.390625 
L 58.015625 17.1875 
L 47.609375 17.1875 
L 47.609375 0 
L 37.796875 0 
L 37.796875 17.1875 
L 4.890625 17.1875 
L 4.890625 26.703125 
z
" id="DejaVuSans-34"/>
      </defs>
      <g transform="translate(7.2 311.613983)scale(0.22 -0.22)">
       <use xlink:href="#DejaVuSans-2212"/>
       <use x="83.789062" xlink:href="#DejaVuSans-34"/>
      </g>
     </g>
    </g>
    <g id="ytick_2">
     <g id="line2d_2">
      <g>
       <use style="stroke:#000000;stroke-width:0.8;" x="46.632812" xlink:href="#m72c368e76b" y="260.156925"/>
      </g>
     </g>
     <g id="text_2">
      <!-- −2 -->
      <defs>
       <path d="M 19.1875 8.296875 
L 53.609375 8.296875 
L 53.609375 0 
L 7.328125 0 
L 7.328125 8.296875 
Q 12.9375 14.109375 22.625 23.890625 
Q 32.328125 33.6875 34.8125 36.53125 
Q 39.546875 41.84375 41.421875 45.53125 
Q 43.3125 49.21875 43.3125 52.78125 
Q 43.3125 58.59375 39.234375 62.25 
Q 35.15625 65.921875 28.609375 65.921875 
Q 23.96875 65.921875 18.8125 64.3125 
Q 13.671875 62.703125 7.8125 59.421875 
L 7.8125 69.390625 
Q 13.765625 71.78125 18.9375 73 
Q 24.125 74.21875 28.421875 74.21875 
Q 39.75 74.21875 46.484375 68.546875 
Q 53.21875 62.890625 53.21875 53.421875 
Q 53.21875 48.921875 51.53125 44.890625 
Q 49.859375 40.875 45.40625 35.40625 
Q 44.1875 33.984375 37.640625 27.21875 
Q 31.109375 20.453125 19.1875 8.296875 
z
" id="DejaVuSans-32"/>
      </defs>
      <g transform="translate(7.2 268.515206)scale(0.22 -0.22)">
       <use xlink:href="#DejaVuSans-2212"/>
       <use x="83.789062" xlink:href="#DejaVuSans-32"/>
      </g>
     </g>
    </g>
    <g id="ytick_3">
     <g id="line2d_3">
      <g>
       <use style="stroke:#000000;stroke-width:0.8;" x="46.632812" xlink:href="#m72c368e76b" y="217.058148"/>
      </g>
     </g>
     <g id="text_3">
      <!-- 0 -->
      <defs>
       <path d="M 31.78125 66.40625 
Q 24.171875 66.40625 20.328125 58.90625 
Q 16.5 51.421875 16.5 36.375 
Q 16.5 21.390625 20.328125 13.890625 
Q 24.171875 6.390625 31.78125 6.390625 
Q 39.453125 6.390625 43.28125 13.890625 
Q 47.125 21.390625 47.125 36.375 
Q 47.125 51.421875 43.28125 58.90625 
Q 39.453125 66.40625 31.78125 66.40625 
z
M 31.78125 74.21875 
Q 44.046875 74.21875 50.515625 64.515625 
Q 56.984375 54.828125 56.984375 36.375 
Q 56.984375 17.96875 50.515625 8.265625 
Q 44.046875 -1.421875 31.78125 -1.421875 
Q 19.53125 -1.421875 13.0625 8.265625 
Q 6.59375 17.96875 6.59375 36.375 
Q 6.59375 54.828125 13.0625 64.515625 
Q 19.53125 74.21875 31.78125 74.21875 
z
" id="DejaVuSans-30"/>
      </defs>
      <g transform="translate(25.635312 225.416429)scale(0.22 -0.22)">
       <use xlink:href="#DejaVuSans-30"/>
      </g>
     </g>
    </g>
    <g id="ytick_4">
     <g id="line2d_4">
      <g>
       <use style="stroke:#000000;stroke-width:0.8;" x="46.632812" xlink:href="#m72c368e76b" y="173.959371"/>
      </g>
     </g>
     <g id="text_4">
      <!-- 2 -->
      <g transform="translate(25.635312 182.317652)scale(0.22 -0.22)">
       <use xlink:href="#DejaVuSans-32"/>
      </g>
     </g>
    </g>
    <g id="ytick_5">
     <g id="line2d_5">
      <g>
       <use style="stroke:#000000;stroke-width:0.8;" x="46.632812" xlink:href="#m72c368e76b" y="130.860594"/>
      </g>
     </g>
     <g id="text_5">
      <!-- 4 -->
      <g transform="translate(25.635312 139.218876)scale(0.22 -0.22)">
       <use xlink:href="#DejaVuSans-34"/>
      </g>
     </g>
    </g>
    <g id="ytick_6">
     <g id="line2d_6">
      <g>
       <use style="stroke:#000000;stroke-width:0.8;" x="46.632812" xlink:href="#m72c368e76b" y="87.761818"/>
      </g>
     </g>
     <g id="text_6">
      <!-- 6 -->
      <defs>
       <path d="M 33.015625 40.375 
Q 26.375 40.375 22.484375 35.828125 
Q 18.609375 31.296875 18.609375 23.390625 
Q 18.609375 15.53125 22.484375 10.953125 
Q 26.375 6.390625 33.015625 6.390625 
Q 39.65625 6.390625 43.53125 10.953125 
Q 47.40625 15.53125 47.40625 23.390625 
Q 47.40625 31.296875 43.53125 35.828125 
Q 39.65625 40.375 33.015625 40.375 
z
M 52.59375 71.296875 
L 52.59375 62.3125 
Q 48.875 64.0625 45.09375 64.984375 
Q 41.3125 65.921875 37.59375 65.921875 
Q 27.828125 65.921875 22.671875 59.328125 
Q 17.53125 52.734375 16.796875 39.40625 
Q 19.671875 43.65625 24.015625 45.921875 
Q 28.375 48.1875 33.59375 48.1875 
Q 44.578125 48.1875 50.953125 41.515625 
Q 57.328125 34.859375 57.328125 23.390625 
Q 57.328125 12.15625 50.6875 5.359375 
Q 44.046875 -1.421875 33.015625 -1.421875 
Q 20.359375 -1.421875 13.671875 8.265625 
Q 6.984375 17.96875 6.984375 36.375 
Q 6.984375 53.65625 15.1875 63.9375 
Q 23.390625 74.21875 37.203125 74.21875 
Q 40.921875 74.21875 44.703125 73.484375 
Q 48.484375 72.75 52.59375 71.296875 
z
" id="DejaVuSans-36"/>
      </defs>
      <g transform="translate(25.635312 96.120099)scale(0.22 -0.22)">
       <use xlink:href="#DejaVuSans-36"/>
      </g>
     </g>
    </g>
    <g id="ytick_7">
     <g id="line2d_7">
      <g>
       <use style="stroke:#000000;stroke-width:0.8;" x="46.632812" xlink:href="#m72c368e76b" y="44.663041"/>
      </g>
     </g>
     <g id="text_7">
      <!-- 8 -->
      <defs>
       <path d="M 31.78125 34.625 
Q 24.75 34.625 20.71875 30.859375 
Q 16.703125 27.09375 16.703125 20.515625 
Q 16.703125 13.921875 20.71875 10.15625 
Q 24.75 6.390625 31.78125 6.390625 
Q 38.8125 6.390625 42.859375 10.171875 
Q 46.921875 13.96875 46.921875 20.515625 
Q 46.921875 27.09375 42.890625 30.859375 
Q 38.875 34.625 31.78125 34.625 
z
M 21.921875 38.8125 
Q 15.578125 40.375 12.03125 44.71875 
Q 8.5 49.078125 8.5 55.328125 
Q 8.5 64.0625 14.71875 69.140625 
Q 20.953125 74.21875 31.78125 74.21875 
Q 42.671875 74.21875 48.875 69.140625 
Q 55.078125 64.0625 55.078125 55.328125 
Q 55.078125 49.078125 51.53125 44.71875 
Q 48 40.375 41.703125 38.8125 
Q 48.828125 37.15625 52.796875 32.3125 
Q 56.78125 27.484375 56.78125 20.515625 
Q 56.78125 9.90625 50.3125 4.234375 
Q 43.84375 -1.421875 31.78125 -1.421875 
Q 19.734375 -1.421875 13.25 4.234375 
Q 6.78125 9.90625 6.78125 20.515625 
Q 6.78125 27.484375 10.78125 32.3125 
Q 14.796875 37.15625 21.921875 38.8125 
z
M 18.3125 54.390625 
Q 18.3125 48.734375 21.84375 45.5625 
Q 25.390625 42.390625 31.78125 42.390625 
Q 38.140625 42.390625 41.71875 45.5625 
Q 45.3125 48.734375 45.3125 54.390625 
Q 45.3125 60.0625 41.71875 63.234375 
Q 38.140625 66.40625 31.78125 66.40625 
Q 25.390625 66.40625 21.84375 63.234375 
Q 18.3125 60.0625 18.3125 54.390625 
z
" id="DejaVuSans-38"/>
      </defs>
      <g transform="translate(25.635312 53.021322)scale(0.22 -0.22)">
       <use xlink:href="#DejaVuSans-38"/>
      </g>
     </g>
    </g>
   </g>
   <g id="patch_3">
    <path d="M 46.632812 343.34 
L 46.632812 10.7 
" style="fill:none;stroke:#000000;stroke-linecap:square;stroke-linejoin:miter;stroke-width:0.8;"/>
   </g>
   <g id="patch_4">
    <path d="M 381.432813 343.34 
L 381.432813 10.7 
" style="fill:none;stroke:#000000;stroke-linecap:square;stroke-linejoin:miter;stroke-width:0.8;"/>
   </g>
   <g id="patch_5">
    <path d="M 46.632812 343.34 
L 381.432813 343.34 
" style="fill:none;stroke:#000000;stroke-linecap:square;stroke-linejoin:miter;stroke-width:0.8;"/>
   </g>
   <g id="patch_6">
    <path d="M 46.632812 10.7 
L 381.432813 10.7 
" style="fill:none;stroke:#000000;stroke-linecap:square;stroke-linejoin:miter;stroke-width:0.8;"/>
   </g>
  </g>
 </g>
 <defs>
  <clipPath id="p7906e7b0df">
   <rect height="332.64" width="334.8" x="46.632812" y="10.7"/>
  </clipPath>
 </defs>
</svg>
