<?xml version="1.0" encoding="utf-8" standalone="no"?>
<!DOCTYPE svg PUBLIC "-//W3C//DTD SVG 1.1//EN"
  "http://www.w3.org/Graphics/SVG/1.1/DTD/svg11.dtd">
<!-- Created with matplotlib (http://matplotlib.org/) -->
<svg height="356pt" version="1.1" viewBox="0 0 413 356" width="413pt" xmlns="http://www.w3.org/2000/svg" xmlns:xlink="http://www.w3.org/1999/xlink">
 <defs>
  <style type="text/css">
*{stroke-linecap:butt;stroke-linejoin:round;}
  </style>
 </defs>
 <g id="figure_1">
  <g id="patch_1">
   <path d="M 0 356.276435 
L 413.122187 356.276435 
L 413.122187 -0 
L 0 -0 
z
" style="fill:#ffffff;"/>
  </g>
  <g id="axes_1">
   <g id="patch_2">
    <path d="M 67.622187 345.576435 
L 402.422188 345.576435 
L 402.422188 12.936435 
L 67.622187 12.936435 
z
" style="fill:#ffffff;"/>
   </g>
   <g id="PolyCollection_1">
    <defs>
     <path d="M 82.840369 -127.326745 
L 82.840369 -142.053891 
L 86.14867 -142.053891 
L 89.45697 -142.053891 
L 92.765271 -142.053891 
L 96.073571 -142.053891 
L 99.381871 -142.053891 
L 102.690172 -142.053891 
L 105.998472 -142.053891 
L 109.306772 -142.053891 
L 112.615073 -142.053891 
L 115.923373 -142.053891 
L 119.231674 -142.053891 
L 122.539974 -142.053891 
L 125.848274 -142.053891 
L 129.156575 -142.053891 
L 132.464875 -142.053891 
L 135.773176 -142.053891 
L 139.081476 -142.053891 
L 142.389776 -142.053891 
L 145.698077 -142.053891 
L 149.006377 -142.053891 
L 152.314678 -142.053891 
L 155.622978 -142.053891 
L 158.931278 -142.053891 
L 162.239579 -142.053891 
L 165.547879 -142.053891 
L 168.85618 -142.053891 
L 172.16448 -142.053891 
L 175.47278 -142.053891 
L 178.781081 -142.053891 
L 182.089381 -142.053891 
L 185.397682 -142.053891 
L 188.705982 -142.053891 
L 192.014282 -142.053891 
L 195.322583 -142.053891 
L 198.630883 -142.053891 
L 201.939184 -142.053891 
L 205.247484 -142.053891 
L 208.555784 -142.053891 
L 211.864085 -142.053891 
L 215.172385 -142.053891 
L 218.480686 -142.053891 
L 221.788986 -142.053891 
L 225.097286 -142.053891 
L 228.405587 -142.053891 
L 231.713887 -142.053891 
L 235.022188 -142.053891 
L 238.330488 -142.053891 
L 241.638788 -142.053891 
L 244.947089 -142.053891 
L 248.255389 -142.053891 
L 251.563689 -142.053891 
L 254.87199 -142.053891 
L 258.18029 -142.053891 
L 261.488591 -142.053891 
L 264.796891 -142.053891 
L 268.105191 -142.053891 
L 271.413492 -142.053891 
L 274.721792 -142.053891 
L 278.030093 -142.053891 
L 281.338393 -142.053891 
L 284.646693 -142.053891 
L 287.954994 -142.053891 
L 291.263294 -142.053891 
L 294.571595 -142.053891 
L 297.879895 -142.053891 
L 301.188195 -142.053891 
L 304.496496 -142.053891 
L 307.804796 -142.053891 
L 311.113097 -142.053891 
L 314.421397 -142.053891 
L 317.729697 -142.053891 
L 321.037998 -142.053891 
L 324.346298 -142.053891 
L 327.654599 -142.053891 
L 330.962899 -142.053891 
L 334.271199 -142.053891 
L 337.5795 -142.053891 
L 340.8878 -142.053891 
L 344.196101 -142.053891 
L 347.504401 -142.053891 
L 350.812701 -142.053891 
L 354.121002 -142.053891 
L 357.429302 -142.053891 
L 360.737603 -142.053891 
L 364.045903 -142.053891 
L 367.354203 -142.053891 
L 370.662504 -142.053891 
L 373.970804 -142.053891 
L 377.279104 -142.053891 
L 380.587405 -142.053891 
L 383.895705 -142.053891 
L 387.204006 -142.053891 
L 387.204006 -156.651461 
L 387.204006 -156.651461 
L 383.895705 -156.515595 
L 380.587405 -154.708692 
L 377.279104 -154.581041 
L 373.970804 -153.047458 
L 370.662504 -152.810255 
L 367.354203 -152.16992 
L 364.045903 -150.194187 
L 360.737603 -149.693824 
L 357.429302 -148.340556 
L 354.121002 -148.109797 
L 350.812701 -147.909334 
L 347.504401 -147.450903 
L 344.196101 -146.034284 
L 340.8878 -145.590457 
L 337.5795 -145.483988 
L 334.271199 -144.564221 
L 330.962899 -144.346284 
L 327.654599 -144.240258 
L 324.346298 -143.773386 
L 321.037998 -143.545071 
L 317.729697 -143.139086 
L 314.421397 -143.001944 
L 311.113097 -142.900465 
L 307.804796 -142.897869 
L 304.496496 -142.80193 
L 301.188195 -142.795118 
L 297.879895 -142.269806 
L 294.571595 -142.214633 
L 291.263294 -142.210306 
L 287.954994 -142.187624 
L 284.646693 -142.134677 
L 281.338393 -142.110257 
L 278.030093 -142.094799 
L 274.721792 -142.092351 
L 271.413492 -142.089103 
L 268.105191 -142.085661 
L 264.796891 -142.082428 
L 261.488591 -142.081205 
L 258.18029 -142.077126 
L 254.87199 -142.075436 
L 251.563689 -142.069148 
L 248.255389 -142.066799 
L 244.947089 -142.063339 
L 241.638788 -142.061939 
L 238.330488 -142.061402 
L 235.022188 -142.056572 
L 231.713887 -142.056306 
L 228.405587 -142.052422 
L 225.097286 -142.047527 
L 221.788986 -142.046698 
L 218.480686 -142.046451 
L 215.172385 -142.045852 
L 211.864085 -142.043392 
L 208.555784 -142.040756 
L 205.247484 -142.040412 
L 201.939184 -142.035251 
L 198.630883 -142.034162 
L 195.322583 -142.032704 
L 192.014282 -142.023629 
L 188.705982 -142.019586 
L 185.397682 -142.016158 
L 182.089381 -142.016 
L 178.781081 -142.011117 
L 175.47278 -142.009284 
L 172.16448 -142.008351 
L 168.85618 -141.992408 
L 165.547879 -141.973088 
L 162.239579 -141.969033 
L 158.931278 -141.967552 
L 155.622978 -141.967118 
L 152.314678 -141.955383 
L 149.006377 -141.927944 
L 145.698077 -141.921852 
L 142.389776 -141.873539 
L 139.081476 -141.872066 
L 135.773176 -141.859499 
L 132.464875 -141.612365 
L 129.156575 -141.046651 
L 125.848274 -140.821125 
L 122.539974 -140.634822 
L 119.231674 -140.339085 
L 115.923373 -140.251038 
L 112.615073 -140.10859 
L 109.306772 -139.073173 
L 105.998472 -138.020242 
L 102.690172 -137.716159 
L 99.381871 -137.664287 
L 96.073571 -134.862081 
L 92.765271 -133.837446 
L 89.45697 -133.417224 
L 86.14867 -132.593638 
L 82.840369 -127.326745 
z
" id="mb7db85f786" style="stroke:#4a98c9;"/>
    </defs>
    <g clip-path="url(#p2e021a4718)">
     <use style="fill:#4a98c9;stroke:#4a98c9;" x="0" xlink:href="#mb7db85f786" y="356.276435"/>
    </g>
   </g>
   <g id="PolyCollection_2">
    <defs>
     <path d="M 82.840369 -25.82 
L 82.840369 -142.053891 
L 86.14867 -142.053891 
L 89.45697 -142.053891 
L 92.765271 -142.053891 
L 96.073571 -142.053891 
L 99.381871 -142.053891 
L 102.690172 -142.053891 
L 105.998472 -142.053891 
L 109.306772 -142.053891 
L 112.615073 -142.053891 
L 115.923373 -142.053891 
L 119.231674 -142.053891 
L 122.539974 -142.053891 
L 125.848274 -142.053891 
L 129.156575 -142.053891 
L 132.464875 -142.053891 
L 135.773176 -142.053891 
L 139.081476 -142.053891 
L 142.389776 -142.053891 
L 145.698077 -142.053891 
L 149.006377 -142.053891 
L 152.314678 -142.053891 
L 155.622978 -142.053891 
L 158.931278 -142.053891 
L 162.239579 -142.053891 
L 165.547879 -142.053891 
L 168.85618 -142.053891 
L 172.16448 -142.053891 
L 175.47278 -142.053891 
L 178.781081 -142.053891 
L 182.089381 -142.053891 
L 185.397682 -142.053891 
L 188.705982 -142.053891 
L 192.014282 -142.053891 
L 195.322583 -142.053891 
L 198.630883 -142.053891 
L 201.939184 -142.053891 
L 205.247484 -142.053891 
L 208.555784 -142.053891 
L 211.864085 -142.053891 
L 215.172385 -142.053891 
L 218.480686 -142.053891 
L 221.788986 -142.053891 
L 225.097286 -142.053891 
L 228.405587 -142.053891 
L 231.713887 -142.053891 
L 235.022188 -142.053891 
L 238.330488 -142.053891 
L 241.638788 -142.053891 
L 244.947089 -142.053891 
L 248.255389 -142.053891 
L 251.563689 -142.053891 
L 254.87199 -142.053891 
L 258.18029 -142.053891 
L 261.488591 -142.053891 
L 264.796891 -142.053891 
L 268.105191 -142.053891 
L 271.413492 -142.053891 
L 274.721792 -142.053891 
L 278.030093 -142.053891 
L 281.338393 -142.053891 
L 284.646693 -142.053891 
L 287.954994 -142.053891 
L 291.263294 -142.053891 
L 294.571595 -142.053891 
L 297.879895 -142.053891 
L 301.188195 -142.053891 
L 304.496496 -142.053891 
L 307.804796 -142.053891 
L 311.113097 -142.053891 
L 314.421397 -142.053891 
L 317.729697 -142.053891 
L 321.037998 -142.053891 
L 324.346298 -142.053891 
L 327.654599 -142.053891 
L 330.962899 -142.053891 
L 334.271199 -142.053891 
L 337.5795 -142.053891 
L 340.8878 -142.053891 
L 344.196101 -142.053891 
L 347.504401 -142.053891 
L 350.812701 -142.053891 
L 354.121002 -142.053891 
L 357.429302 -142.053891 
L 360.737603 -142.053891 
L 364.045903 -142.053891 
L 367.354203 -142.053891 
L 370.662504 -142.053891 
L 373.970804 -142.053891 
L 377.279104 -142.053891 
L 380.587405 -142.053891 
L 383.895705 -142.053891 
L 387.204006 -142.053891 
L 387.204006 -328.22 
L 387.204006 -328.22 
L 383.895705 -293.932303 
L 380.587405 -273.755176 
L 377.279104 -251.075162 
L 373.970804 -242.340074 
L 370.662504 -238.659571 
L 367.354203 -237.317711 
L 364.045903 -220.084008 
L 360.737603 -218.365953 
L 357.429302 -210.426989 
L 354.121002 -198.886458 
L 350.812701 -197.663343 
L 347.504401 -196.296351 
L 344.196101 -182.3665 
L 340.8878 -179.99931 
L 337.5795 -177.344334 
L 334.271199 -165.383485 
L 330.962899 -161.169483 
L 327.654599 -157.080603 
L 324.346298 -156.228602 
L 321.037998 -154.088743 
L 317.729697 -150.224804 
L 314.421397 -144.43517 
L 311.113097 -142.926071 
L 307.804796 -142.190461 
L 304.496496 -142.190447 
L 301.188195 -142.1172 
L 297.879895 -142.111934 
L 294.571595 -142.109549 
L 291.263294 -142.100702 
L 287.954994 -142.090758 
L 284.646693 -142.085743 
L 281.338393 -142.078952 
L 278.030093 -142.07393 
L 274.721792 -142.073818 
L 271.413492 -142.070602 
L 268.105191 -142.070505 
L 264.796891 -142.066269 
L 261.488591 -142.065777 
L 258.18029 -142.062225 
L 254.87199 -142.061991 
L 251.563689 -142.061795 
L 248.255389 -142.060791 
L 244.947089 -142.059481 
L 241.638788 -142.057991 
L 238.330488 -142.056971 
L 235.022188 -142.0533 
L 231.713887 -142.051809 
L 228.405587 -142.051448 
L 225.097286 -142.051034 
L 221.788986 -142.046943 
L 218.480686 -142.04187 
L 215.172385 -142.039647 
L 211.864085 -142.037183 
L 208.555784 -142.032476 
L 205.247484 -142.032316 
L 201.939184 -142.027472 
L 198.630883 -142.023899 
L 195.322583 -142.023647 
L 192.014282 -142.023419 
L 188.705982 -142.018403 
L 185.397682 -142.017186 
L 182.089381 -142.012181 
L 178.781081 -142.00882 
L 175.47278 -142.003356 
L 172.16448 -141.993684 
L 168.85618 -141.968016 
L 165.547879 -141.959141 
L 162.239579 -141.95591 
L 158.931278 -141.911659 
L 155.622978 -141.881533 
L 152.314678 -141.746169 
L 149.006377 -139.16976 
L 145.698077 -136.669134 
L 142.389776 -135.846055 
L 139.081476 -131.417708 
L 135.773176 -131.098861 
L 132.464875 -128.514028 
L 129.156575 -127.802689 
L 125.848274 -120.317455 
L 122.539974 -119.208605 
L 119.231674 -118.050511 
L 115.923373 -115.540237 
L 112.615073 -104.076968 
L 109.306772 -98.212853 
L 105.998472 -96.017829 
L 102.690172 -94.800715 
L 99.381871 -91.638466 
L 96.073571 -88.700442 
L 92.765271 -80.959688 
L 89.45697 -74.241358 
L 86.14867 -30.376048 
L 82.840369 -25.82 
z
" id="m2f8bd0f911" style="stroke:#f14432;stroke-opacity:0.8;"/>
    </defs>
    <g clip-path="url(#p2e021a4718)">
     <use style="fill:#f14432;fill-opacity:0.8;stroke:#f14432;stroke-opacity:0.8;" x="0" xlink:href="#m2f8bd0f911" y="356.276435"/>
    </g>
   </g>
   <g id="matplotlib.axis_1"/>
   <g id="matplotlib.axis_2">
    <g id="ytick_1">
     <g id="line2d_1">
      <defs>
       <path d="M 0 0 
L -3.5 0 
" id="m8108ddef08" style="stroke:#000000;stroke-width:0.8;"/>
      </defs>
      <g>
       <use style="stroke:#000000;stroke-width:0.8;" x="67.622187" xlink:href="#m8108ddef08" y="280.443965"/>
      </g>
     </g>
     <g id="text_1">
      <!-- −0.5 -->
      <defs>
       <path d="M 10.59375 35.5 
L 73.1875 35.5 
L 73.1875 27.203125 
L 10.59375 27.203125 
z
" id="DejaVuSans-2212"/>
       <path d="M 31.78125 66.40625 
Q 24.171875 66.40625 20.328125 58.90625 
Q 16.5 51.421875 16.5 36.375 
Q 16.5 21.390625 20.328125 13.890625 
Q 24.171875 6.390625 31.78125 6.390625 
Q 39.453125 6.390625 43.28125 13.890625 
Q 47.125 21.390625 47.125 36.375 
Q 47.125 51.421875 43.28125 58.90625 
Q 39.453125 66.40625 31.78125 66.40625 
z
M 31.78125 74.21875 
Q 44.046875 74.21875 50.515625 64.515625 
Q 56.984375 54.828125 56.984375 36.375 
Q 56.984375 17.96875 50.515625 8.265625 
Q 44.046875 -1.421875 31.78125 -1.421875 
Q 19.53125 -1.421875 13.0625 8.265625 
Q 6.59375 17.96875 6.59375 36.375 
Q 6.59375 54.828125 13.0625 64.515625 
Q 19.53125 74.21875 31.78125 74.21875 
z
" id="DejaVuSans-30"/>
       <path d="M 10.6875 12.40625 
L 21 12.40625 
L 21 0 
L 10.6875 0 
z
" id="DejaVuSans-2e"/>
       <path d="M 10.796875 72.90625 
L 49.515625 72.90625 
L 49.515625 64.59375 
L 19.828125 64.59375 
L 19.828125 46.734375 
Q 21.96875 47.46875 24.109375 47.828125 
Q 26.265625 48.1875 28.421875 48.1875 
Q 40.625 48.1875 47.75 41.5 
Q 54.890625 34.8125 54.890625 23.390625 
Q 54.890625 11.625 47.5625 5.09375 
Q 40.234375 -1.421875 26.90625 -1.421875 
Q 22.3125 -1.421875 17.546875 -0.640625 
Q 12.796875 0.140625 7.71875 1.703125 
L 7.71875 11.625 
Q 12.109375 9.234375 16.796875 8.0625 
Q 21.484375 6.890625 26.703125 6.890625 
Q 35.15625 6.890625 40.078125 11.328125 
Q 45.015625 15.765625 45.015625 23.390625 
Q 45.015625 31 40.078125 35.4375 
Q 35.15625 39.890625 26.703125 39.890625 
Q 22.75 39.890625 18.8125 39.015625 
Q 14.890625 38.140625 10.796875 36.28125 
z
" id="DejaVuSans-35"/>
      </defs>
      <g transform="translate(7.2 288.802246)scale(0.22 -0.22)">
       <use xlink:href="#DejaVuSans-2212"/>
       <use x="83.789062" xlink:href="#DejaVuSans-30"/>
       <use x="147.412109" xlink:href="#DejaVuSans-2e"/>
       <use x="179.199219" xlink:href="#DejaVuSans-35"/>
      </g>
     </g>
    </g>
    <g id="ytick_2">
     <g id="line2d_2">
      <g>
       <use style="stroke:#000000;stroke-width:0.8;" x="67.622187" xlink:href="#m8108ddef08" y="214.222544"/>
      </g>
     </g>
     <g id="text_2">
      <!-- 0.0 -->
      <g transform="translate(25.635312 222.580825)scale(0.22 -0.22)">
       <use xlink:href="#DejaVuSans-30"/>
       <use x="63.623047" xlink:href="#DejaVuSans-2e"/>
       <use x="95.410156" xlink:href="#DejaVuSans-30"/>
      </g>
     </g>
    </g>
    <g id="ytick_3">
     <g id="line2d_3">
      <g>
       <use style="stroke:#000000;stroke-width:0.8;" x="67.622187" xlink:href="#m8108ddef08" y="148.001123"/>
      </g>
     </g>
     <g id="text_3">
      <!-- 0.5 -->
      <g transform="translate(25.635312 156.359404)scale(0.22 -0.22)">
       <use xlink:href="#DejaVuSans-30"/>
       <use x="63.623047" xlink:href="#DejaVuSans-2e"/>
       <use x="95.410156" xlink:href="#DejaVuSans-35"/>
      </g>
     </g>
    </g>
    <g id="ytick_4">
     <g id="line2d_4">
      <g>
       <use style="stroke:#000000;stroke-width:0.8;" x="67.622187" xlink:href="#m8108ddef08" y="81.779702"/>
      </g>
     </g>
     <g id="text_4">
      <!-- 1.0 -->
      <defs>
       <path d="M 12.40625 8.296875 
L 28.515625 8.296875 
L 28.515625 63.921875 
L 10.984375 60.40625 
L 10.984375 69.390625 
L 28.421875 72.90625 
L 38.28125 72.90625 
L 38.28125 8.296875 
L 54.390625 8.296875 
L 54.390625 0 
L 12.40625 0 
z
" id="DejaVuSans-31"/>
      </defs>
      <g transform="translate(25.635312 90.137983)scale(0.22 -0.22)">
       <use xlink:href="#DejaVuSans-31"/>
       <use x="63.623047" xlink:href="#DejaVuSans-2e"/>
       <use x="95.410156" xlink:href="#DejaVuSans-30"/>
      </g>
     </g>
    </g>
    <g id="ytick_5">
     <g id="line2d_5">
      <g>
       <use style="stroke:#000000;stroke-width:0.8;" x="67.622187" xlink:href="#m8108ddef08" y="15.558281"/>
      </g>
     </g>
     <g id="text_5">
      <!-- 1.5 -->
      <g transform="translate(25.635312 23.916562)scale(0.22 -0.22)">
       <use xlink:href="#DejaVuSans-31"/>
       <use x="63.623047" xlink:href="#DejaVuSans-2e"/>
       <use x="95.410156" xlink:href="#DejaVuSans-35"/>
      </g>
     </g>
    </g>
   </g>
   <g id="patch_3">
    <path d="M 67.622187 345.576435 
L 67.622187 12.936435 
" style="fill:none;stroke:#000000;stroke-linecap:square;stroke-linejoin:miter;stroke-width:0.8;"/>
   </g>
   <g id="patch_4">
    <path d="M 402.422188 345.576435 
L 402.422188 12.936435 
" style="fill:none;stroke:#000000;stroke-linecap:square;stroke-linejoin:miter;stroke-width:0.8;"/>
   </g>
   <g id="patch_5">
    <path d="M 67.622187 345.576435 
L 402.422188 345.576435 
" style="fill:none;stroke:#000000;stroke-linecap:square;stroke-linejoin:miter;stroke-width:0.8;"/>
   </g>
   <g id="patch_6">
    <path d="M 67.622187 12.936435 
L 402.422188 12.936435 
" style="fill:none;stroke:#000000;stroke-linecap:square;stroke-linejoin:miter;stroke-width:0.8;"/>
   </g>
  </g>
 </g>
 <defs>
  <clipPath id="p2e021a4718">
   <rect height="332.64" width="334.8" x="67.622187" y="12.936435"/>
  </clipPath>
 </defs>
</svg>
