<?xml version="1.0" encoding="utf-8" standalone="no"?>
<!DOCTYPE svg PUBLIC "-//W3C//DTD SVG 1.1//EN"
  "http://www.w3.org/Graphics/SVG/1.1/DTD/svg11.dtd">
<!-- Created with matplotlib (http://matplotlib.org/) -->
<svg height="354pt" version="1.1" viewBox="0 0 406 354" width="406pt" xmlns="http://www.w3.org/2000/svg" xmlns:xlink="http://www.w3.org/1999/xlink">
 <defs>
  <style type="text/css">
*{stroke-linecap:butt;stroke-linejoin:round;}
  </style>
 </defs>
 <g id="figure_1">
  <g id="patch_1">
   <path d="M 0 354.04 
L 406.130312 354.04 
L 406.130312 0 
L 0 0 
z
" style="fill:#ffffff;"/>
  </g>
  <g id="axes_1">
   <g id="patch_2">
    <path d="M 60.630313 343.34 
L 395.430313 343.34 
L 395.430313 10.7 
L 60.630313 10.7 
z
" style="fill:#ffffff;"/>
   </g>
   <g id="PolyCollection_1">
    <defs>
     <path d="M 75.848494 -177.704157 
L 75.848494 -185.067804 
L 79.156795 -185.067804 
L 82.465095 -185.067804 
L 85.773396 -185.067804 
L 89.081696 -185.067804 
L 92.389996 -185.067804 
L 95.698297 -185.067804 
L 99.006597 -185.067804 
L 102.314897 -185.067804 
L 105.623198 -185.067804 
L 108.931498 -185.067804 
L 112.239799 -185.067804 
L 115.548099 -185.067804 
L 118.856399 -185.067804 
L 122.1647 -185.067804 
L 125.473 -185.067804 
L 128.781301 -185.067804 
L 132.089601 -185.067804 
L 135.397901 -185.067804 
L 138.706202 -185.067804 
L 142.014502 -185.067804 
L 145.322803 -185.067804 
L 148.631103 -185.067804 
L 151.939403 -185.067804 
L 155.247704 -185.067804 
L 158.556004 -185.067804 
L 161.864305 -185.067804 
L 165.172605 -185.067804 
L 168.480905 -185.067804 
L 171.789206 -185.067804 
L 175.097506 -185.067804 
L 178.405807 -185.067804 
L 181.714107 -185.067804 
L 185.022407 -185.067804 
L 188.330708 -185.067804 
L 191.639008 -185.067804 
L 194.947309 -185.067804 
L 198.255609 -185.067804 
L 201.563909 -185.067804 
L 204.87221 -185.067804 
L 208.18051 -185.067804 
L 211.488811 -185.067804 
L 214.797111 -185.067804 
L 218.105411 -185.067804 
L 221.413712 -185.067804 
L 224.722012 -185.067804 
L 228.030313 -185.067804 
L 231.338613 -185.067804 
L 234.646913 -185.067804 
L 237.955214 -185.067804 
L 241.263514 -185.067804 
L 244.571814 -185.067804 
L 247.880115 -185.067804 
L 251.188415 -185.067804 
L 254.496716 -185.067804 
L 257.805016 -185.067804 
L 261.113316 -185.067804 
L 264.421617 -185.067804 
L 267.729917 -185.067804 
L 271.038218 -185.067804 
L 274.346518 -185.067804 
L 277.654818 -185.067804 
L 280.963119 -185.067804 
L 284.271419 -185.067804 
L 287.57972 -185.067804 
L 290.88802 -185.067804 
L 294.19632 -185.067804 
L 297.504621 -185.067804 
L 300.812921 -185.067804 
L 304.121222 -185.067804 
L 307.429522 -185.067804 
L 310.737822 -185.067804 
L 314.046123 -185.067804 
L 317.354423 -185.067804 
L 320.662724 -185.067804 
L 323.971024 -185.067804 
L 327.279324 -185.067804 
L 330.587625 -185.067804 
L 333.895925 -185.067804 
L 337.204226 -185.067804 
L 340.512526 -185.067804 
L 343.820826 -185.067804 
L 347.129127 -185.067804 
L 350.437427 -185.067804 
L 353.745728 -185.067804 
L 357.054028 -185.067804 
L 360.362328 -185.067804 
L 363.670629 -185.067804 
L 366.978929 -185.067804 
L 370.287229 -185.067804 
L 373.59553 -185.067804 
L 376.90383 -185.067804 
L 380.212131 -185.067804 
L 380.212131 -196.11276 
L 380.212131 -196.11276 
L 376.90383 -195.249957 
L 373.59553 -195.099885 
L 370.287229 -194.102701 
L 366.978929 -193.648718 
L 363.670629 -191.662231 
L 360.362328 -190.944708 
L 357.054028 -189.597793 
L 353.745728 -189.349448 
L 350.437427 -189.320453 
L 347.129127 -189.060392 
L 343.820826 -188.924915 
L 340.512526 -187.42778 
L 337.204226 -187.036229 
L 333.895925 -187.035583 
L 330.587625 -187.018813 
L 327.279324 -186.846294 
L 323.971024 -186.576412 
L 320.662724 -186.268924 
L 317.354423 -186.204043 
L 314.046123 -185.689036 
L 310.737822 -185.429729 
L 307.429522 -185.422465 
L 304.121222 -185.404864 
L 300.812921 -185.35442 
L 297.504621 -185.324544 
L 294.19632 -185.258602 
L 290.88802 -185.228781 
L 287.57972 -185.225842 
L 284.271419 -185.218082 
L 280.963119 -185.194265 
L 277.654818 -185.187286 
L 274.346518 -185.147672 
L 271.038218 -185.125888 
L 267.729917 -185.111694 
L 264.421617 -185.106235 
L 261.113316 -185.093134 
L 257.805016 -185.090501 
L 254.496716 -185.089444 
L 251.188415 -185.088257 
L 247.880115 -185.086175 
L 244.571814 -185.084041 
L 241.263514 -185.081286 
L 237.955214 -185.080421 
L 234.646913 -185.07831 
L 231.338613 -185.07751 
L 228.030313 -185.075829 
L 224.722012 -185.072341 
L 221.413712 -185.071395 
L 218.105411 -185.070453 
L 214.797111 -185.070185 
L 211.488811 -185.069174 
L 208.18051 -185.067572 
L 204.87221 -185.063706 
L 201.563909 -185.062438 
L 198.255609 -185.061743 
L 194.947309 -185.061332 
L 191.639008 -185.055415 
L 188.330708 -185.053879 
L 185.022407 -185.053739 
L 181.714107 -185.051995 
L 178.405807 -185.05106 
L 175.097506 -185.048012 
L 171.789206 -185.047142 
L 168.480905 -185.045515 
L 165.172605 -185.043462 
L 161.864305 -185.040268 
L 158.556004 -185.037109 
L 155.247704 -185.026338 
L 151.939403 -185.026068 
L 148.631103 -185.011601 
L 145.322803 -184.974024 
L 142.014502 -184.946382 
L 138.706202 -184.911812 
L 135.397901 -184.843366 
L 132.089601 -184.59119 
L 128.781301 -184.558386 
L 125.473 -184.405122 
L 122.1647 -184.032035 
L 118.856399 -183.955192 
L 115.548099 -183.926865 
L 112.239799 -183.721534 
L 108.931498 -183.719839 
L 105.623198 -182.655274 
L 102.314897 -182.6 
L 99.006597 -182.39128 
L 95.698297 -181.826542 
L 92.389996 -180.75689 
L 89.081696 -180.157331 
L 85.773396 -180.039183 
L 82.465095 -179.684448 
L 79.156795 -179.073667 
L 75.848494 -177.704157 
z
" id="maadb29c3c6" style="stroke:#4a98c9;"/>
    </defs>
    <g clip-path="url(#pc49aef3ac7)">
     <use style="fill:#4a98c9;stroke:#4a98c9;" x="0" xlink:href="#maadb29c3c6" y="354.04"/>
    </g>
   </g>
   <g id="PolyCollection_2">
    <defs>
     <path d="M 75.848494 -25.82 
L 75.848494 -185.067804 
L 79.156795 -185.067804 
L 82.465095 -185.067804 
L 85.773396 -185.067804 
L 89.081696 -185.067804 
L 92.389996 -185.067804 
L 95.698297 -185.067804 
L 99.006597 -185.067804 
L 102.314897 -185.067804 
L 105.623198 -185.067804 
L 108.931498 -185.067804 
L 112.239799 -185.067804 
L 115.548099 -185.067804 
L 118.856399 -185.067804 
L 122.1647 -185.067804 
L 125.473 -185.067804 
L 128.781301 -185.067804 
L 132.089601 -185.067804 
L 135.397901 -185.067804 
L 138.706202 -185.067804 
L 142.014502 -185.067804 
L 145.322803 -185.067804 
L 148.631103 -185.067804 
L 151.939403 -185.067804 
L 155.247704 -185.067804 
L 158.556004 -185.067804 
L 161.864305 -185.067804 
L 165.172605 -185.067804 
L 168.480905 -185.067804 
L 171.789206 -185.067804 
L 175.097506 -185.067804 
L 178.405807 -185.067804 
L 181.714107 -185.067804 
L 185.022407 -185.067804 
L 188.330708 -185.067804 
L 191.639008 -185.067804 
L 194.947309 -185.067804 
L 198.255609 -185.067804 
L 201.563909 -185.067804 
L 204.87221 -185.067804 
L 208.18051 -185.067804 
L 211.488811 -185.067804 
L 214.797111 -185.067804 
L 218.105411 -185.067804 
L 221.413712 -185.067804 
L 224.722012 -185.067804 
L 228.030313 -185.067804 
L 231.338613 -185.067804 
L 234.646913 -185.067804 
L 237.955214 -185.067804 
L 241.263514 -185.067804 
L 244.571814 -185.067804 
L 247.880115 -185.067804 
L 251.188415 -185.067804 
L 254.496716 -185.067804 
L 257.805016 -185.067804 
L 261.113316 -185.067804 
L 264.421617 -185.067804 
L 267.729917 -185.067804 
L 271.038218 -185.067804 
L 274.346518 -185.067804 
L 277.654818 -185.067804 
L 280.963119 -185.067804 
L 284.271419 -185.067804 
L 287.57972 -185.067804 
L 290.88802 -185.067804 
L 294.19632 -185.067804 
L 297.504621 -185.067804 
L 300.812921 -185.067804 
L 304.121222 -185.067804 
L 307.429522 -185.067804 
L 310.737822 -185.067804 
L 314.046123 -185.067804 
L 317.354423 -185.067804 
L 320.662724 -185.067804 
L 323.971024 -185.067804 
L 327.279324 -185.067804 
L 330.587625 -185.067804 
L 333.895925 -185.067804 
L 337.204226 -185.067804 
L 340.512526 -185.067804 
L 343.820826 -185.067804 
L 347.129127 -185.067804 
L 350.437427 -185.067804 
L 353.745728 -185.067804 
L 357.054028 -185.067804 
L 360.362328 -185.067804 
L 363.670629 -185.067804 
L 366.978929 -185.067804 
L 370.287229 -185.067804 
L 373.59553 -185.067804 
L 376.90383 -185.067804 
L 380.212131 -185.067804 
L 380.212131 -328.22 
L 380.212131 -328.22 
L 376.90383 -314.806139 
L 373.59553 -295.597711 
L 370.287229 -280.491252 
L 366.978929 -277.489562 
L 363.670629 -266.987117 
L 360.362328 -265.061595 
L 357.054028 -258.524268 
L 353.745728 -255.409233 
L 350.437427 -254.073657 
L 347.129127 -251.85409 
L 343.820826 -247.478634 
L 340.512526 -241.160798 
L 337.204226 -235.640222 
L 333.895925 -227.273953 
L 330.587625 -226.659752 
L 327.279324 -219.931719 
L 323.971024 -219.827237 
L 320.662724 -218.457316 
L 317.354423 -217.851919 
L 314.046123 -215.826756 
L 310.737822 -215.121412 
L 307.429522 -212.971614 
L 304.121222 -211.53816 
L 300.812921 -205.312707 
L 297.504621 -198.025749 
L 294.19632 -196.471907 
L 290.88802 -195.17806 
L 287.57972 -194.693448 
L 284.271419 -193.865284 
L 280.963119 -185.902929 
L 277.654818 -185.640517 
L 274.346518 -185.366491 
L 271.038218 -185.323117 
L 267.729917 -185.313679 
L 264.421617 -185.303786 
L 261.113316 -185.300471 
L 257.805016 -185.297171 
L 254.496716 -185.276676 
L 251.188415 -185.240327 
L 247.880115 -185.237314 
L 244.571814 -185.217478 
L 241.263514 -185.214829 
L 237.955214 -185.172105 
L 234.646913 -185.136721 
L 231.338613 -185.134864 
L 228.030313 -185.129541 
L 224.722012 -185.124191 
L 221.413712 -185.109957 
L 218.105411 -185.098515 
L 214.797111 -185.094475 
L 211.488811 -185.08453 
L 208.18051 -185.072692 
L 204.87221 -185.057118 
L 201.563909 -185.053232 
L 198.255609 -185.049892 
L 194.947309 -185.044731 
L 191.639008 -185.043759 
L 188.330708 -185.020663 
L 185.022407 -185.00691 
L 181.714107 -184.998203 
L 178.405807 -184.983067 
L 175.097506 -184.982578 
L 171.789206 -184.970422 
L 168.480905 -184.902032 
L 165.172605 -184.900405 
L 161.864305 -184.89692 
L 158.556004 -184.879309 
L 155.247704 -184.875355 
L 151.939403 -184.860886 
L 148.631103 -184.812061 
L 145.322803 -184.802816 
L 142.014502 -184.7987 
L 138.706202 -184.750585 
L 135.397901 -184.649774 
L 132.089601 -182.55885 
L 128.781301 -182.206237 
L 125.473 -175.167593 
L 122.1647 -174.617708 
L 118.856399 -172.670513 
L 115.548099 -167.936674 
L 112.239799 -162.624329 
L 108.931498 -161.317532 
L 105.623198 -151.404897 
L 102.314897 -143.939074 
L 99.006597 -138.242795 
L 95.698297 -137.652296 
L 92.389996 -135.124715 
L 89.081696 -114.821684 
L 85.773396 -106.93074 
L 82.465095 -97.106187 
L 79.156795 -92.283788 
L 75.848494 -25.82 
z
" id="m8175ea9b78" style="stroke:#f14432;stroke-opacity:0.8;"/>
    </defs>
    <g clip-path="url(#pc49aef3ac7)">
     <use style="fill:#f14432;fill-opacity:0.8;stroke:#f14432;stroke-opacity:0.8;" x="0" xlink:href="#m8175ea9b78" y="354.04"/>
    </g>
   </g>
   <g id="matplotlib.axis_1"/>
   <g id="matplotlib.axis_2">
    <g id="ytick_1">
     <g id="line2d_1">
      <defs>
       <path d="M 0 0 
L -3.5 0 
" id="m097548dd5b" style="stroke:#000000;stroke-width:0.8;"/>
      </defs>
      <g>
       <use style="stroke:#000000;stroke-width:0.8;" x="60.630313" xlink:href="#m097548dd5b" y="299.16082"/>
      </g>
     </g>
     <g id="text_1">
      <!-- −10 -->
      <defs>
       <path d="M 10.59375 35.5 
L 73.1875 35.5 
L 73.1875 27.203125 
L 10.59375 27.203125 
z
" id="DejaVuSans-2212"/>
       <path d="M 12.40625 8.296875 
L 28.515625 8.296875 
L 28.515625 63.921875 
L 10.984375 60.40625 
L 10.984375 69.390625 
L 28.421875 72.90625 
L 38.28125 72.90625 
L 38.28125 8.296875 
L 54.390625 8.296875 
L 54.390625 0 
L 12.40625 0 
z
" id="DejaVuSans-31"/>
       <path d="M 31.78125 66.40625 
Q 24.171875 66.40625 20.328125 58.90625 
Q 16.5 51.421875 16.5 36.375 
Q 16.5 21.390625 20.328125 13.890625 
Q 24.171875 6.390625 31.78125 6.390625 
Q 39.453125 6.390625 43.28125 13.890625 
Q 47.125 21.390625 47.125 36.375 
Q 47.125 51.421875 43.28125 58.90625 
Q 39.453125 66.40625 31.78125 66.40625 
z
M 31.78125 74.21875 
Q 44.046875 74.21875 50.515625 64.515625 
Q 56.984375 54.828125 56.984375 36.375 
Q 56.984375 17.96875 50.515625 8.265625 
Q 44.046875 -1.421875 31.78125 -1.421875 
Q 19.53125 -1.421875 13.0625 8.265625 
Q 6.59375 17.96875 6.59375 36.375 
Q 6.59375 54.828125 13.0625 64.515625 
Q 19.53125 74.21875 31.78125 74.21875 
z
" id="DejaVuSans-30"/>
      </defs>
      <g transform="translate(7.2 307.519101)scale(0.22 -0.22)">
       <use xlink:href="#DejaVuSans-2212"/>
       <use x="83.789062" xlink:href="#DejaVuSans-31"/>
       <use x="147.412109" xlink:href="#DejaVuSans-30"/>
      </g>
     </g>
    </g>
    <g id="ytick_2">
     <g id="line2d_2">
      <g>
       <use style="stroke:#000000;stroke-width:0.8;" x="60.630313" xlink:href="#m097548dd5b" y="234.066508"/>
      </g>
     </g>
     <g id="text_2">
      <!-- −5 -->
      <defs>
       <path d="M 10.796875 72.90625 
L 49.515625 72.90625 
L 49.515625 64.59375 
L 19.828125 64.59375 
L 19.828125 46.734375 
Q 21.96875 47.46875 24.109375 47.828125 
Q 26.265625 48.1875 28.421875 48.1875 
Q 40.625 48.1875 47.75 41.5 
Q 54.890625 34.8125 54.890625 23.390625 
Q 54.890625 11.625 47.5625 5.09375 
Q 40.234375 -1.421875 26.90625 -1.421875 
Q 22.3125 -1.421875 17.546875 -0.640625 
Q 12.796875 0.140625 7.71875 1.703125 
L 7.71875 11.625 
Q 12.109375 9.234375 16.796875 8.0625 
Q 21.484375 6.890625 26.703125 6.890625 
Q 35.15625 6.890625 40.078125 11.328125 
Q 45.015625 15.765625 45.015625 23.390625 
Q 45.015625 31 40.078125 35.4375 
Q 35.15625 39.890625 26.703125 39.890625 
Q 22.75 39.890625 18.8125 39.015625 
Q 14.890625 38.140625 10.796875 36.28125 
z
" id="DejaVuSans-35"/>
      </defs>
      <g transform="translate(21.1975 242.424789)scale(0.22 -0.22)">
       <use xlink:href="#DejaVuSans-2212"/>
       <use x="83.789062" xlink:href="#DejaVuSans-35"/>
      </g>
     </g>
    </g>
    <g id="ytick_3">
     <g id="line2d_3">
      <g>
       <use style="stroke:#000000;stroke-width:0.8;" x="60.630313" xlink:href="#m097548dd5b" y="168.972196"/>
      </g>
     </g>
     <g id="text_3">
      <!-- 0 -->
      <g transform="translate(39.632812 177.330477)scale(0.22 -0.22)">
       <use xlink:href="#DejaVuSans-30"/>
      </g>
     </g>
    </g>
    <g id="ytick_4">
     <g id="line2d_4">
      <g>
       <use style="stroke:#000000;stroke-width:0.8;" x="60.630313" xlink:href="#m097548dd5b" y="103.877884"/>
      </g>
     </g>
     <g id="text_4">
      <!-- 5 -->
      <g transform="translate(39.632812 112.236165)scale(0.22 -0.22)">
       <use xlink:href="#DejaVuSans-35"/>
      </g>
     </g>
    </g>
    <g id="ytick_5">
     <g id="line2d_5">
      <g>
       <use style="stroke:#000000;stroke-width:0.8;" x="60.630313" xlink:href="#m097548dd5b" y="38.783572"/>
      </g>
     </g>
     <g id="text_5">
      <!-- 10 -->
      <g transform="translate(25.635313 47.141853)scale(0.22 -0.22)">
       <use xlink:href="#DejaVuSans-31"/>
       <use x="63.623047" xlink:href="#DejaVuSans-30"/>
      </g>
     </g>
    </g>
   </g>
   <g id="patch_3">
    <path d="M 60.630313 343.34 
L 60.630313 10.7 
" style="fill:none;stroke:#000000;stroke-linecap:square;stroke-linejoin:miter;stroke-width:0.8;"/>
   </g>
   <g id="patch_4">
    <path d="M 395.430313 343.34 
L 395.430313 10.7 
" style="fill:none;stroke:#000000;stroke-linecap:square;stroke-linejoin:miter;stroke-width:0.8;"/>
   </g>
   <g id="patch_5">
    <path d="M 60.630312 343.34 
L 395.430313 343.34 
" style="fill:none;stroke:#000000;stroke-linecap:square;stroke-linejoin:miter;stroke-width:0.8;"/>
   </g>
   <g id="patch_6">
    <path d="M 60.630312 10.7 
L 395.430313 10.7 
" style="fill:none;stroke:#000000;stroke-linecap:square;stroke-linejoin:miter;stroke-width:0.8;"/>
   </g>
  </g>
 </g>
 <defs>
  <clipPath id="pc49aef3ac7">
   <rect height="332.64" width="334.8" x="60.630313" y="10.7"/>
  </clipPath>
 </defs>
</svg>
