<?xml version="1.0" encoding="utf-8" standalone="no"?>
<!DOCTYPE svg PUBLIC "-//W3C//DTD SVG 1.1//EN"
  "http://www.w3.org/Graphics/SVG/1.1/DTD/svg11.dtd">
<!-- Created with matplotlib (http://matplotlib.org/) -->
<svg height="354pt" version="1.1" viewBox="0 0 427 354" width="427pt" xmlns="http://www.w3.org/2000/svg" xmlns:xlink="http://www.w3.org/1999/xlink">
 <defs>
  <style type="text/css">
*{stroke-linecap:butt;stroke-linejoin:round;}
  </style>
 </defs>
 <g id="figure_1">
  <g id="patch_1">
   <path d="M 0 354.04 
L 427.119687 354.04 
L 427.119687 0 
L 0 0 
z
" style="fill:#ffffff;"/>
  </g>
  <g id="axes_1">
   <g id="patch_2">
    <path d="M 81.619687 343.34 
L 416.419688 343.34 
L 416.419688 10.7 
L 81.619687 10.7 
z
" style="fill:#ffffff;"/>
   </g>
   <g id="PolyCollection_1">
    <defs>
     <path d="M 96.837869 -25.82 
L 96.837869 -172.006843 
L 100.14617 -172.006843 
L 103.45447 -172.006843 
L 106.762771 -172.006843 
L 110.071071 -172.006843 
L 113.379371 -172.006843 
L 116.687672 -172.006843 
L 119.995972 -172.006843 
L 123.304272 -172.006843 
L 126.612573 -172.006843 
L 129.920873 -172.006843 
L 133.229174 -172.006843 
L 136.537474 -172.006843 
L 139.845774 -172.006843 
L 143.154075 -172.006843 
L 146.462375 -172.006843 
L 149.770676 -172.006843 
L 153.078976 -172.006843 
L 156.387276 -172.006843 
L 159.695577 -172.006843 
L 163.003877 -172.006843 
L 166.312178 -172.006843 
L 169.620478 -172.006843 
L 172.928778 -172.006843 
L 176.237079 -172.006843 
L 179.545379 -172.006843 
L 182.85368 -172.006843 
L 186.16198 -172.006843 
L 189.47028 -172.006843 
L 192.778581 -172.006843 
L 196.086881 -172.006843 
L 199.395182 -172.006843 
L 202.703482 -172.006843 
L 206.011782 -172.006843 
L 209.320083 -172.006843 
L 212.628383 -172.006843 
L 215.936684 -172.006843 
L 219.244984 -172.006843 
L 222.553284 -172.006843 
L 225.861585 -172.006843 
L 229.169885 -172.006843 
L 232.478186 -172.006843 
L 235.786486 -172.006843 
L 239.094786 -172.006843 
L 242.403087 -172.006843 
L 245.711387 -172.006843 
L 249.019688 -172.006843 
L 252.327988 -172.006843 
L 255.636288 -172.006843 
L 258.944589 -172.006843 
L 262.252889 -172.006843 
L 265.561189 -172.006843 
L 268.86949 -172.006843 
L 272.17779 -172.006843 
L 275.486091 -172.006843 
L 278.794391 -172.006843 
L 282.102691 -172.006843 
L 285.410992 -172.006843 
L 288.719292 -172.006843 
L 292.027593 -172.006843 
L 295.335893 -172.006843 
L 298.644193 -172.006843 
L 301.952494 -172.006843 
L 305.260794 -172.006843 
L 308.569095 -172.006843 
L 311.877395 -172.006843 
L 315.185695 -172.006843 
L 318.493996 -172.006843 
L 321.802296 -172.006843 
L 325.110597 -172.006843 
L 328.418897 -172.006843 
L 331.727197 -172.006843 
L 335.035498 -172.006843 
L 338.343798 -172.006843 
L 341.652099 -172.006843 
L 344.960399 -172.006843 
L 348.268699 -172.006843 
L 351.577 -172.006843 
L 354.8853 -172.006843 
L 358.193601 -172.006843 
L 361.501901 -172.006843 
L 364.810201 -172.006843 
L 368.118502 -172.006843 
L 371.426802 -172.006843 
L 374.735103 -172.006843 
L 378.043403 -172.006843 
L 381.351703 -172.006843 
L 384.660004 -172.006843 
L 387.968304 -172.006843 
L 391.276604 -172.006843 
L 394.584905 -172.006843 
L 397.893205 -172.006843 
L 401.201506 -172.006843 
L 401.201506 -328.22 
L 401.201506 -328.22 
L 397.893205 -309.498657 
L 394.584905 -305.575225 
L 391.276604 -300.91316 
L 387.968304 -274.217699 
L 384.660004 -261.568532 
L 381.351703 -261.148931 
L 378.043403 -251.545976 
L 374.735103 -246.843819 
L 371.426802 -235.590882 
L 368.118502 -231.632494 
L 364.810201 -227.775822 
L 361.501901 -227.019572 
L 358.193601 -225.704009 
L 354.8853 -220.973491 
L 351.577 -220.644049 
L 348.268699 -218.903884 
L 344.960399 -216.60122 
L 341.652099 -205.968808 
L 338.343798 -202.954537 
L 335.035498 -202.231057 
L 331.727197 -191.69552 
L 328.418897 -190.820333 
L 325.110597 -190.720113 
L 321.802296 -186.583246 
L 318.493996 -185.405451 
L 315.185695 -184.711654 
L 311.877395 -184.705868 
L 308.569095 -184.701344 
L 305.260794 -184.265387 
L 301.952494 -184.121826 
L 298.644193 -182.836395 
L 295.335893 -175.095364 
L 292.027593 -174.183523 
L 288.719292 -173.888351 
L 285.410992 -173.451712 
L 282.102691 -173.403063 
L 278.794391 -173.326475 
L 275.486091 -172.962882 
L 272.17779 -172.933586 
L 268.86949 -172.833827 
L 265.561189 -172.712751 
L 262.252889 -172.469934 
L 258.944589 -172.350291 
L 255.636288 -172.325789 
L 252.327988 -172.316236 
L 249.019688 -172.289809 
L 245.711387 -172.288108 
L 242.403087 -172.227678 
L 239.094786 -172.128573 
L 235.786486 -172.127402 
L 232.478186 -172.108156 
L 229.169885 -172.074921 
L 225.861585 -172.045201 
L 222.553284 -172.04491 
L 219.244984 -171.971109 
L 215.936684 -171.934709 
L 212.628383 -171.901888 
L 209.320083 -171.901414 
L 206.011782 -171.844476 
L 202.703482 -171.823956 
L 199.395182 -171.713932 
L 196.086881 -171.667707 
L 192.778581 -171.638627 
L 189.47028 -171.54141 
L 186.16198 -171.509336 
L 182.85368 -171.449017 
L 179.545379 -171.216002 
L 176.237079 -170.962158 
L 172.928778 -170.304936 
L 169.620478 -169.494911 
L 166.312178 -169.297947 
L 163.003877 -168.958906 
L 159.695577 -168.161737 
L 156.387276 -166.522279 
L 153.078976 -162.42154 
L 149.770676 -162.081204 
L 146.462375 -159.482892 
L 143.154075 -158.987146 
L 139.845774 -158.451587 
L 136.537474 -152.491533 
L 133.229174 -152.175919 
L 129.920873 -148.117487 
L 126.612573 -143.39266 
L 123.304272 -142.756206 
L 119.995972 -141.406371 
L 116.687672 -138.965254 
L 113.379371 -135.797044 
L 110.071071 -120.742746 
L 106.762771 -91.327976 
L 103.45447 -59.054705 
L 100.14617 -46.216324 
L 96.837869 -25.82 
z
" id="md6ae2f111c" style="stroke:#4a98c9;"/>
    </defs>
    <g clip-path="url(#p1b1fc546ad)">
     <use style="fill:#4a98c9;stroke:#4a98c9;" x="0" xlink:href="#md6ae2f111c" y="354.04"/>
    </g>
   </g>
   <g id="PolyCollection_2">
    <defs>
     <path d="M 96.837869 -120.051391 
L 96.837869 -172.006843 
L 100.14617 -172.006843 
L 103.45447 -172.006843 
L 106.762771 -172.006843 
L 110.071071 -172.006843 
L 113.379371 -172.006843 
L 116.687672 -172.006843 
L 119.995972 -172.006843 
L 123.304272 -172.006843 
L 126.612573 -172.006843 
L 129.920873 -172.006843 
L 133.229174 -172.006843 
L 136.537474 -172.006843 
L 139.845774 -172.006843 
L 143.154075 -172.006843 
L 146.462375 -172.006843 
L 149.770676 -172.006843 
L 153.078976 -172.006843 
L 156.387276 -172.006843 
L 159.695577 -172.006843 
L 163.003877 -172.006843 
L 166.312178 -172.006843 
L 169.620478 -172.006843 
L 172.928778 -172.006843 
L 176.237079 -172.006843 
L 179.545379 -172.006843 
L 182.85368 -172.006843 
L 186.16198 -172.006843 
L 189.47028 -172.006843 
L 192.778581 -172.006843 
L 196.086881 -172.006843 
L 199.395182 -172.006843 
L 202.703482 -172.006843 
L 206.011782 -172.006843 
L 209.320083 -172.006843 
L 212.628383 -172.006843 
L 215.936684 -172.006843 
L 219.244984 -172.006843 
L 222.553284 -172.006843 
L 225.861585 -172.006843 
L 229.169885 -172.006843 
L 232.478186 -172.006843 
L 235.786486 -172.006843 
L 239.094786 -172.006843 
L 242.403087 -172.006843 
L 245.711387 -172.006843 
L 249.019688 -172.006843 
L 252.327988 -172.006843 
L 255.636288 -172.006843 
L 258.944589 -172.006843 
L 262.252889 -172.006843 
L 265.561189 -172.006843 
L 268.86949 -172.006843 
L 272.17779 -172.006843 
L 275.486091 -172.006843 
L 278.794391 -172.006843 
L 282.102691 -172.006843 
L 285.410992 -172.006843 
L 288.719292 -172.006843 
L 292.027593 -172.006843 
L 295.335893 -172.006843 
L 298.644193 -172.006843 
L 301.952494 -172.006843 
L 305.260794 -172.006843 
L 308.569095 -172.006843 
L 311.877395 -172.006843 
L 315.185695 -172.006843 
L 318.493996 -172.006843 
L 321.802296 -172.006843 
L 325.110597 -172.006843 
L 328.418897 -172.006843 
L 331.727197 -172.006843 
L 335.035498 -172.006843 
L 338.343798 -172.006843 
L 341.652099 -172.006843 
L 344.960399 -172.006843 
L 348.268699 -172.006843 
L 351.577 -172.006843 
L 354.8853 -172.006843 
L 358.193601 -172.006843 
L 361.501901 -172.006843 
L 364.810201 -172.006843 
L 368.118502 -172.006843 
L 371.426802 -172.006843 
L 374.735103 -172.006843 
L 378.043403 -172.006843 
L 381.351703 -172.006843 
L 384.660004 -172.006843 
L 387.968304 -172.006843 
L 391.276604 -172.006843 
L 394.584905 -172.006843 
L 397.893205 -172.006843 
L 401.201506 -172.006843 
L 401.201506 -234.028027 
L 401.201506 -234.028027 
L 397.893205 -231.319451 
L 394.584905 -230.497405 
L 391.276604 -216.883521 
L 387.968304 -216.794007 
L 384.660004 -214.032968 
L 381.351703 -209.650555 
L 378.043403 -206.739619 
L 374.735103 -205.04473 
L 371.426802 -204.457059 
L 368.118502 -204.359189 
L 364.810201 -200.725487 
L 361.501901 -199.813245 
L 358.193601 -198.859209 
L 354.8853 -197.332906 
L 351.577 -197.201086 
L 348.268699 -197.116931 
L 344.960399 -195.454252 
L 341.652099 -190.318127 
L 338.343798 -188.846712 
L 335.035498 -188.078884 
L 331.727197 -185.073667 
L 328.418897 -184.349674 
L 325.110597 -181.681943 
L 321.802296 -180.953881 
L 318.493996 -179.852268 
L 315.185695 -178.90845 
L 311.877395 -177.068612 
L 308.569095 -176.294932 
L 305.260794 -175.014934 
L 301.952494 -173.186801 
L 298.644193 -173.133689 
L 295.335893 -173.10666 
L 292.027593 -173.073794 
L 288.719292 -173.024328 
L 285.410992 -173.015189 
L 282.102691 -172.759119 
L 278.794391 -172.75687 
L 275.486091 -172.664442 
L 272.17779 -172.633109 
L 268.86949 -172.601914 
L 265.561189 -172.516967 
L 262.252889 -172.486285 
L 258.944589 -172.447495 
L 255.636288 -172.447261 
L 252.327988 -172.425394 
L 249.019688 -172.376676 
L 245.711387 -172.28194 
L 242.403087 -172.210689 
L 239.094786 -172.201941 
L 235.786486 -172.200484 
L 232.478186 -172.161744 
L 229.169885 -172.14814 
L 225.861585 -172.14497 
L 222.553284 -172.131412 
L 219.244984 -172.099889 
L 215.936684 -172.097872 
L 212.628383 -172.07922 
L 209.320083 -172.055069 
L 206.011782 -171.976747 
L 202.703482 -171.915657 
L 199.395182 -171.855748 
L 196.086881 -171.827414 
L 192.778581 -171.737186 
L 189.47028 -171.654831 
L 186.16198 -171.571276 
L 182.85368 -171.554672 
L 179.545379 -171.548101 
L 176.237079 -171.463057 
L 172.928778 -171.461423 
L 169.620478 -171.451979 
L 166.312178 -171.376024 
L 163.003877 -171.371719 
L 159.695577 -171.095373 
L 156.387276 -171.002775 
L 153.078976 -170.906901 
L 149.770676 -170.625011 
L 146.462375 -169.463393 
L 143.154075 -163.675555 
L 139.845774 -162.610415 
L 136.537474 -161.954424 
L 133.229174 -160.186183 
L 129.920873 -157.643576 
L 126.612573 -157.438497 
L 123.304272 -155.598275 
L 119.995972 -154.145349 
L 116.687672 -154.075249 
L 113.379371 -153.870524 
L 110.071071 -133.440378 
L 106.762771 -129.66636 
L 103.45447 -129.449716 
L 100.14617 -124.941794 
L 96.837869 -120.051391 
z
" id="mc9e3a24958" style="stroke:#f14432;stroke-opacity:0.8;"/>
    </defs>
    <g clip-path="url(#p1b1fc546ad)">
     <use style="fill:#f14432;fill-opacity:0.8;stroke:#f14432;stroke-opacity:0.8;" x="0" xlink:href="#mc9e3a24958" y="354.04"/>
    </g>
   </g>
   <g id="matplotlib.axis_1"/>
   <g id="matplotlib.axis_2">
    <g id="ytick_1">
     <g id="line2d_1">
      <defs>
       <path d="M 0 0 
L -3.5 0 
" id="mc7f9de39c4" style="stroke:#000000;stroke-width:0.8;"/>
      </defs>
      <g>
       <use style="stroke:#000000;stroke-width:0.8;" x="81.619687" xlink:href="#mc7f9de39c4" y="322.810273"/>
      </g>
     </g>
     <g id="text_1">
      <!-- −0.03 -->
      <defs>
       <path d="M 10.59375 35.5 
L 73.1875 35.5 
L 73.1875 27.203125 
L 10.59375 27.203125 
z
" id="DejaVuSans-2212"/>
       <path d="M 31.78125 66.40625 
Q 24.171875 66.40625 20.328125 58.90625 
Q 16.5 51.421875 16.5 36.375 
Q 16.5 21.390625 20.328125 13.890625 
Q 24.171875 6.390625 31.78125 6.390625 
Q 39.453125 6.390625 43.28125 13.890625 
Q 47.125 21.390625 47.125 36.375 
Q 47.125 51.421875 43.28125 58.90625 
Q 39.453125 66.40625 31.78125 66.40625 
z
M 31.78125 74.21875 
Q 44.046875 74.21875 50.515625 64.515625 
Q 56.984375 54.828125 56.984375 36.375 
Q 56.984375 17.96875 50.515625 8.265625 
Q 44.046875 -1.421875 31.78125 -1.421875 
Q 19.53125 -1.421875 13.0625 8.265625 
Q 6.59375 17.96875 6.59375 36.375 
Q 6.59375 54.828125 13.0625 64.515625 
Q 19.53125 74.21875 31.78125 74.21875 
z
" id="DejaVuSans-30"/>
       <path d="M 10.6875 12.40625 
L 21 12.40625 
L 21 0 
L 10.6875 0 
z
" id="DejaVuSans-2e"/>
       <path d="M 40.578125 39.3125 
Q 47.65625 37.796875 51.625 33 
Q 55.609375 28.21875 55.609375 21.1875 
Q 55.609375 10.40625 48.1875 4.484375 
Q 40.765625 -1.421875 27.09375 -1.421875 
Q 22.515625 -1.421875 17.65625 -0.515625 
Q 12.796875 0.390625 7.625 2.203125 
L 7.625 11.71875 
Q 11.71875 9.328125 16.59375 8.109375 
Q 21.484375 6.890625 26.8125 6.890625 
Q 36.078125 6.890625 40.9375 10.546875 
Q 45.796875 14.203125 45.796875 21.1875 
Q 45.796875 27.640625 41.28125 31.265625 
Q 36.765625 34.90625 28.71875 34.90625 
L 20.21875 34.90625 
L 20.21875 43.015625 
L 29.109375 43.015625 
Q 36.375 43.015625 40.234375 45.921875 
Q 44.09375 48.828125 44.09375 54.296875 
Q 44.09375 59.90625 40.109375 62.90625 
Q 36.140625 65.921875 28.71875 65.921875 
Q 24.65625 65.921875 20.015625 65.03125 
Q 15.375 64.15625 9.8125 62.3125 
L 9.8125 71.09375 
Q 15.4375 72.65625 20.34375 73.4375 
Q 25.25 74.21875 29.59375 74.21875 
Q 40.828125 74.21875 47.359375 69.109375 
Q 53.90625 64.015625 53.90625 55.328125 
Q 53.90625 49.265625 50.4375 45.09375 
Q 46.96875 40.921875 40.578125 39.3125 
z
" id="DejaVuSans-33"/>
      </defs>
      <g transform="translate(7.2 331.168554)scale(0.22 -0.22)">
       <use xlink:href="#DejaVuSans-2212"/>
       <use x="83.789062" xlink:href="#DejaVuSans-30"/>
       <use x="147.412109" xlink:href="#DejaVuSans-2e"/>
       <use x="179.199219" xlink:href="#DejaVuSans-30"/>
       <use x="242.822266" xlink:href="#DejaVuSans-33"/>
      </g>
     </g>
    </g>
    <g id="ytick_2">
     <g id="line2d_2">
      <g>
       <use style="stroke:#000000;stroke-width:0.8;" x="81.619687" xlink:href="#mc7f9de39c4" y="275.884568"/>
      </g>
     </g>
     <g id="text_2">
      <!-- −0.02 -->
      <defs>
       <path d="M 19.1875 8.296875 
L 53.609375 8.296875 
L 53.609375 0 
L 7.328125 0 
L 7.328125 8.296875 
Q 12.9375 14.109375 22.625 23.890625 
Q 32.328125 33.6875 34.8125 36.53125 
Q 39.546875 41.84375 41.421875 45.53125 
Q 43.3125 49.21875 43.3125 52.78125 
Q 43.3125 58.59375 39.234375 62.25 
Q 35.15625 65.921875 28.609375 65.921875 
Q 23.96875 65.921875 18.8125 64.3125 
Q 13.671875 62.703125 7.8125 59.421875 
L 7.8125 69.390625 
Q 13.765625 71.78125 18.9375 73 
Q 24.125 74.21875 28.421875 74.21875 
Q 39.75 74.21875 46.484375 68.546875 
Q 53.21875 62.890625 53.21875 53.421875 
Q 53.21875 48.921875 51.53125 44.890625 
Q 49.859375 40.875 45.40625 35.40625 
Q 44.1875 33.984375 37.640625 27.21875 
Q 31.109375 20.453125 19.1875 8.296875 
z
" id="DejaVuSans-32"/>
      </defs>
      <g transform="translate(7.2 284.242849)scale(0.22 -0.22)">
       <use xlink:href="#DejaVuSans-2212"/>
       <use x="83.789062" xlink:href="#DejaVuSans-30"/>
       <use x="147.412109" xlink:href="#DejaVuSans-2e"/>
       <use x="179.199219" xlink:href="#DejaVuSans-30"/>
       <use x="242.822266" xlink:href="#DejaVuSans-32"/>
      </g>
     </g>
    </g>
    <g id="ytick_3">
     <g id="line2d_3">
      <g>
       <use style="stroke:#000000;stroke-width:0.8;" x="81.619687" xlink:href="#mc7f9de39c4" y="228.958862"/>
      </g>
     </g>
     <g id="text_3">
      <!-- −0.01 -->
      <defs>
       <path d="M 12.40625 8.296875 
L 28.515625 8.296875 
L 28.515625 63.921875 
L 10.984375 60.40625 
L 10.984375 69.390625 
L 28.421875 72.90625 
L 38.28125 72.90625 
L 38.28125 8.296875 
L 54.390625 8.296875 
L 54.390625 0 
L 12.40625 0 
z
" id="DejaVuSans-31"/>
      </defs>
      <g transform="translate(7.2 237.317144)scale(0.22 -0.22)">
       <use xlink:href="#DejaVuSans-2212"/>
       <use x="83.789062" xlink:href="#DejaVuSans-30"/>
       <use x="147.412109" xlink:href="#DejaVuSans-2e"/>
       <use x="179.199219" xlink:href="#DejaVuSans-30"/>
       <use x="242.822266" xlink:href="#DejaVuSans-31"/>
      </g>
     </g>
    </g>
    <g id="ytick_4">
     <g id="line2d_4">
      <g>
       <use style="stroke:#000000;stroke-width:0.8;" x="81.619687" xlink:href="#mc7f9de39c4" y="182.033157"/>
      </g>
     </g>
     <g id="text_4">
      <!-- 0.00 -->
      <g transform="translate(25.635312 190.391439)scale(0.22 -0.22)">
       <use xlink:href="#DejaVuSans-30"/>
       <use x="63.623047" xlink:href="#DejaVuSans-2e"/>
       <use x="95.410156" xlink:href="#DejaVuSans-30"/>
       <use x="159.033203" xlink:href="#DejaVuSans-30"/>
      </g>
     </g>
    </g>
    <g id="ytick_5">
     <g id="line2d_5">
      <g>
       <use style="stroke:#000000;stroke-width:0.8;" x="81.619687" xlink:href="#mc7f9de39c4" y="135.107452"/>
      </g>
     </g>
     <g id="text_5">
      <!-- 0.01 -->
      <g transform="translate(25.635312 143.465733)scale(0.22 -0.22)">
       <use xlink:href="#DejaVuSans-30"/>
       <use x="63.623047" xlink:href="#DejaVuSans-2e"/>
       <use x="95.410156" xlink:href="#DejaVuSans-30"/>
       <use x="159.033203" xlink:href="#DejaVuSans-31"/>
      </g>
     </g>
    </g>
    <g id="ytick_6">
     <g id="line2d_6">
      <g>
       <use style="stroke:#000000;stroke-width:0.8;" x="81.619687" xlink:href="#mc7f9de39c4" y="88.181747"/>
      </g>
     </g>
     <g id="text_6">
      <!-- 0.02 -->
      <g transform="translate(25.635312 96.540028)scale(0.22 -0.22)">
       <use xlink:href="#DejaVuSans-30"/>
       <use x="63.623047" xlink:href="#DejaVuSans-2e"/>
       <use x="95.410156" xlink:href="#DejaVuSans-30"/>
       <use x="159.033203" xlink:href="#DejaVuSans-32"/>
      </g>
     </g>
    </g>
    <g id="ytick_7">
     <g id="line2d_7">
      <g>
       <use style="stroke:#000000;stroke-width:0.8;" x="81.619687" xlink:href="#mc7f9de39c4" y="41.256042"/>
      </g>
     </g>
     <g id="text_7">
      <!-- 0.03 -->
      <g transform="translate(25.635312 49.614323)scale(0.22 -0.22)">
       <use xlink:href="#DejaVuSans-30"/>
       <use x="63.623047" xlink:href="#DejaVuSans-2e"/>
       <use x="95.410156" xlink:href="#DejaVuSans-30"/>
       <use x="159.033203" xlink:href="#DejaVuSans-33"/>
      </g>
     </g>
    </g>
   </g>
   <g id="patch_3">
    <path d="M 81.619687 343.34 
L 81.619687 10.7 
" style="fill:none;stroke:#000000;stroke-linecap:square;stroke-linejoin:miter;stroke-width:0.8;"/>
   </g>
   <g id="patch_4">
    <path d="M 416.419688 343.34 
L 416.419688 10.7 
" style="fill:none;stroke:#000000;stroke-linecap:square;stroke-linejoin:miter;stroke-width:0.8;"/>
   </g>
   <g id="patch_5">
    <path d="M 81.619687 343.34 
L 416.419688 343.34 
" style="fill:none;stroke:#000000;stroke-linecap:square;stroke-linejoin:miter;stroke-width:0.8;"/>
   </g>
   <g id="patch_6">
    <path d="M 81.619687 10.7 
L 416.419688 10.7 
" style="fill:none;stroke:#000000;stroke-linecap:square;stroke-linejoin:miter;stroke-width:0.8;"/>
   </g>
  </g>
 </g>
 <defs>
  <clipPath id="p1b1fc546ad">
   <rect height="332.64" width="334.8" x="81.619687" y="10.7"/>
  </clipPath>
 </defs>
</svg>
