<?xml version="1.0" encoding="utf-8" standalone="no"?>
<!DOCTYPE svg PUBLIC "-//W3C//DTD SVG 1.1//EN"
  "http://www.w3.org/Graphics/SVG/1.1/DTD/svg11.dtd">
<!-- Created with matplotlib (http://matplotlib.org/) -->
<svg height="354pt" version="1.1" viewBox="0 0 392 354" width="392pt" xmlns="http://www.w3.org/2000/svg" xmlns:xlink="http://www.w3.org/1999/xlink">
 <defs>
  <style type="text/css">
*{stroke-linecap:butt;stroke-linejoin:round;}
  </style>
 </defs>
 <g id="figure_1">
  <g id="patch_1">
   <path d="M -0 354.04 
L 392.132812 354.04 
L 392.132812 0 
L -0 0 
z
" style="fill:#ffffff;"/>
  </g>
  <g id="axes_1">
   <g id="patch_2">
    <path d="M 46.632812 343.34 
L 381.432813 343.34 
L 381.432813 10.7 
L 46.632812 10.7 
z
" style="fill:#ffffff;"/>
   </g>
   <g id="PolyCollection_1">
    <defs>
     <path d="M 61.850994 -167.629163 
L 61.850994 -178.135833 
L 65.159295 -178.135833 
L 68.467595 -178.135833 
L 71.775896 -178.135833 
L 75.084196 -178.135833 
L 78.392496 -178.135833 
L 81.700797 -178.135833 
L 85.009097 -178.135833 
L 88.317397 -178.135833 
L 91.625698 -178.135833 
L 94.933998 -178.135833 
L 98.242299 -178.135833 
L 101.550599 -178.135833 
L 104.858899 -178.135833 
L 108.1672 -178.135833 
L 111.4755 -178.135833 
L 114.783801 -178.135833 
L 118.092101 -178.135833 
L 121.400401 -178.135833 
L 124.708702 -178.135833 
L 128.017002 -178.135833 
L 131.325303 -178.135833 
L 134.633603 -178.135833 
L 137.941903 -178.135833 
L 141.250204 -178.135833 
L 144.558504 -178.135833 
L 147.866805 -178.135833 
L 151.175105 -178.135833 
L 154.483405 -178.135833 
L 157.791706 -178.135833 
L 161.100006 -178.135833 
L 164.408307 -178.135833 
L 167.716607 -178.135833 
L 171.024907 -178.135833 
L 174.333208 -178.135833 
L 177.641508 -178.135833 
L 180.949809 -178.135833 
L 184.258109 -178.135833 
L 187.566409 -178.135833 
L 190.87471 -178.135833 
L 194.18301 -178.135833 
L 197.491311 -178.135833 
L 200.799611 -178.135833 
L 204.107911 -178.135833 
L 207.416212 -178.135833 
L 210.724512 -178.135833 
L 214.032813 -178.135833 
L 217.341113 -178.135833 
L 220.649413 -178.135833 
L 223.957714 -178.135833 
L 227.266014 -178.135833 
L 230.574314 -178.135833 
L 233.882615 -178.135833 
L 237.190915 -178.135833 
L 240.499216 -178.135833 
L 243.807516 -178.135833 
L 247.115816 -178.135833 
L 250.424117 -178.135833 
L 253.732417 -178.135833 
L 257.040718 -178.135833 
L 260.349018 -178.135833 
L 263.657318 -178.135833 
L 266.965619 -178.135833 
L 270.273919 -178.135833 
L 273.58222 -178.135833 
L 276.89052 -178.135833 
L 280.19882 -178.135833 
L 283.507121 -178.135833 
L 286.815421 -178.135833 
L 290.123722 -178.135833 
L 293.432022 -178.135833 
L 296.740322 -178.135833 
L 300.048623 -178.135833 
L 303.356923 -178.135833 
L 306.665224 -178.135833 
L 309.973524 -178.135833 
L 313.281824 -178.135833 
L 316.590125 -178.135833 
L 319.898425 -178.135833 
L 323.206726 -178.135833 
L 326.515026 -178.135833 
L 329.823326 -178.135833 
L 333.131627 -178.135833 
L 336.439927 -178.135833 
L 339.748228 -178.135833 
L 343.056528 -178.135833 
L 346.364828 -178.135833 
L 349.673129 -178.135833 
L 352.981429 -178.135833 
L 356.289729 -178.135833 
L 359.59803 -178.135833 
L 362.90633 -178.135833 
L 366.214631 -178.135833 
L 366.214631 -186.836985 
L 366.214631 -186.836985 
L 362.90633 -186.621592 
L 359.59803 -184.3248 
L 356.289729 -183.662902 
L 352.981429 -183.120522 
L 349.673129 -182.86687 
L 346.364828 -182.59239 
L 343.056528 -182.460542 
L 339.748228 -182.205387 
L 336.439927 -181.930639 
L 333.131627 -181.827883 
L 329.823326 -180.66326 
L 326.515026 -180.513337 
L 323.206726 -180.211071 
L 319.898425 -180.194346 
L 316.590125 -180.098852 
L 313.281824 -179.764398 
L 309.973524 -179.573798 
L 306.665224 -179.439413 
L 303.356923 -179.079804 
L 300.048623 -178.763305 
L 296.740322 -178.7491 
L 293.432022 -178.45289 
L 290.123722 -178.365001 
L 286.815421 -178.264639 
L 283.507121 -178.258943 
L 280.19882 -178.247476 
L 276.89052 -178.188814 
L 273.58222 -178.183741 
L 270.273919 -178.168221 
L 266.965619 -178.16723 
L 263.657318 -178.165762 
L 260.349018 -178.16356 
L 257.040718 -178.156655 
L 253.732417 -178.153486 
L 250.424117 -178.151537 
L 247.115816 -178.148982 
L 243.807516 -178.148707 
L 240.499216 -178.147773 
L 237.190915 -178.14738 
L 233.882615 -178.146318 
L 230.574314 -178.145368 
L 227.266014 -178.144826 
L 223.957714 -178.144649 
L 220.649413 -178.14122 
L 217.341113 -178.138938 
L 214.032813 -178.137583 
L 210.724512 -178.135601 
L 207.416212 -178.135375 
L 204.107911 -178.135297 
L 200.799611 -178.133418 
L 197.491311 -178.132914 
L 194.18301 -178.132846 
L 190.87471 -178.131999 
L 187.566409 -178.13176 
L 184.258109 -178.129376 
L 180.949809 -178.12855 
L 177.641508 -178.123468 
L 174.333208 -178.122286 
L 171.024907 -178.121125 
L 167.716607 -178.11564 
L 164.408307 -178.114721 
L 161.100006 -178.113393 
L 157.791706 -178.112394 
L 154.483405 -178.109793 
L 151.175105 -178.108514 
L 147.866805 -178.105763 
L 144.558504 -178.105735 
L 141.250204 -178.104624 
L 137.941903 -178.104457 
L 134.633603 -178.094101 
L 131.325303 -178.041582 
L 128.017002 -178.012836 
L 124.708702 -177.992265 
L 121.400401 -177.93598 
L 118.092101 -177.887164 
L 114.783801 -177.84094 
L 111.4755 -177.70819 
L 108.1672 -177.684483 
L 104.858899 -177.574609 
L 101.550599 -177.506117 
L 98.242299 -177.344067 
L 94.933998 -177.135767 
L 91.625698 -176.869961 
L 88.317397 -176.828558 
L 85.009097 -176.805137 
L 81.700797 -176.558217 
L 78.392496 -176.345971 
L 75.084196 -176.276848 
L 71.775896 -176.025738 
L 68.467595 -175.376742 
L 65.159295 -171.390097 
L 61.850994 -167.629163 
z
" id="m92deca6828" style="stroke:#4a98c9;"/>
    </defs>
    <g clip-path="url(#pbebcfb4252)">
     <use style="fill:#4a98c9;stroke:#4a98c9;" x="0" xlink:href="#m92deca6828" y="354.04"/>
    </g>
   </g>
   <g id="PolyCollection_2">
    <defs>
     <path d="M 61.850994 -25.82 
L 61.850994 -178.135833 
L 65.159295 -178.135833 
L 68.467595 -178.135833 
L 71.775896 -178.135833 
L 75.084196 -178.135833 
L 78.392496 -178.135833 
L 81.700797 -178.135833 
L 85.009097 -178.135833 
L 88.317397 -178.135833 
L 91.625698 -178.135833 
L 94.933998 -178.135833 
L 98.242299 -178.135833 
L 101.550599 -178.135833 
L 104.858899 -178.135833 
L 108.1672 -178.135833 
L 111.4755 -178.135833 
L 114.783801 -178.135833 
L 118.092101 -178.135833 
L 121.400401 -178.135833 
L 124.708702 -178.135833 
L 128.017002 -178.135833 
L 131.325303 -178.135833 
L 134.633603 -178.135833 
L 137.941903 -178.135833 
L 141.250204 -178.135833 
L 144.558504 -178.135833 
L 147.866805 -178.135833 
L 151.175105 -178.135833 
L 154.483405 -178.135833 
L 157.791706 -178.135833 
L 161.100006 -178.135833 
L 164.408307 -178.135833 
L 167.716607 -178.135833 
L 171.024907 -178.135833 
L 174.333208 -178.135833 
L 177.641508 -178.135833 
L 180.949809 -178.135833 
L 184.258109 -178.135833 
L 187.566409 -178.135833 
L 190.87471 -178.135833 
L 194.18301 -178.135833 
L 197.491311 -178.135833 
L 200.799611 -178.135833 
L 204.107911 -178.135833 
L 207.416212 -178.135833 
L 210.724512 -178.135833 
L 214.032813 -178.135833 
L 217.341113 -178.135833 
L 220.649413 -178.135833 
L 223.957714 -178.135833 
L 227.266014 -178.135833 
L 230.574314 -178.135833 
L 233.882615 -178.135833 
L 237.190915 -178.135833 
L 240.499216 -178.135833 
L 243.807516 -178.135833 
L 247.115816 -178.135833 
L 250.424117 -178.135833 
L 253.732417 -178.135833 
L 257.040718 -178.135833 
L 260.349018 -178.135833 
L 263.657318 -178.135833 
L 266.965619 -178.135833 
L 270.273919 -178.135833 
L 273.58222 -178.135833 
L 276.89052 -178.135833 
L 280.19882 -178.135833 
L 283.507121 -178.135833 
L 286.815421 -178.135833 
L 290.123722 -178.135833 
L 293.432022 -178.135833 
L 296.740322 -178.135833 
L 300.048623 -178.135833 
L 303.356923 -178.135833 
L 306.665224 -178.135833 
L 309.973524 -178.135833 
L 313.281824 -178.135833 
L 316.590125 -178.135833 
L 319.898425 -178.135833 
L 323.206726 -178.135833 
L 326.515026 -178.135833 
L 329.823326 -178.135833 
L 333.131627 -178.135833 
L 336.439927 -178.135833 
L 339.748228 -178.135833 
L 343.056528 -178.135833 
L 346.364828 -178.135833 
L 349.673129 -178.135833 
L 352.981429 -178.135833 
L 356.289729 -178.135833 
L 359.59803 -178.135833 
L 362.90633 -178.135833 
L 366.214631 -178.135833 
L 366.214631 -328.22 
L 366.214631 -328.22 
L 362.90633 -317.430459 
L 359.59803 -317.137531 
L 356.289729 -289.051028 
L 352.981429 -281.844111 
L 349.673129 -264.020511 
L 346.364828 -257.780144 
L 343.056528 -245.030292 
L 339.748228 -239.353199 
L 336.439927 -237.753636 
L 333.131627 -234.656096 
L 329.823326 -227.973385 
L 326.515026 -223.88311 
L 323.206726 -222.685472 
L 319.898425 -222.36203 
L 316.590125 -220.124113 
L 313.281824 -218.170173 
L 309.973524 -212.076264 
L 306.665224 -210.718253 
L 303.356923 -209.176255 
L 300.048623 -206.191514 
L 296.740322 -200.139707 
L 293.432022 -195.579459 
L 290.123722 -189.653869 
L 286.815421 -188.617929 
L 283.507121 -188.494066 
L 280.19882 -185.670395 
L 276.89052 -183.565502 
L 273.58222 -182.300856 
L 270.273919 -180.348935 
L 266.965619 -178.829349 
L 263.657318 -178.795058 
L 260.349018 -178.595247 
L 257.040718 -178.385336 
L 253.732417 -178.304451 
L 250.424117 -178.263679 
L 247.115816 -178.205686 
L 243.807516 -178.188992 
L 240.499216 -178.188665 
L 237.190915 -178.17889 
L 233.882615 -178.167911 
L 230.574314 -178.162192 
L 227.266014 -178.160569 
L 223.957714 -178.160107 
L 220.649413 -178.15804 
L 217.341113 -178.154933 
L 214.032813 -178.151269 
L 210.724512 -178.151199 
L 207.416212 -178.149712 
L 204.107911 -178.149391 
L 200.799611 -178.148428 
L 197.491311 -178.148166 
L 194.18301 -178.148005 
L 190.87471 -178.146402 
L 187.566409 -178.145861 
L 184.258109 -178.144747 
L 180.949809 -178.14412 
L 177.641508 -178.143186 
L 174.333208 -178.142468 
L 171.024907 -178.141288 
L 167.716607 -178.139721 
L 164.408307 -178.138578 
L 161.100006 -178.137533 
L 157.791706 -178.127756 
L 154.483405 -178.126481 
L 151.175105 -178.121046 
L 147.866805 -178.119783 
L 144.558504 -178.116208 
L 141.250204 -178.11606 
L 137.941903 -178.113505 
L 134.633603 -178.111762 
L 131.325303 -178.111052 
L 128.017002 -178.108136 
L 124.708702 -178.09752 
L 121.400401 -178.070487 
L 118.092101 -178.054292 
L 114.783801 -178.042769 
L 111.4755 -177.948087 
L 108.1672 -177.741194 
L 104.858899 -175.62299 
L 101.550599 -174.166727 
L 98.242299 -172.594347 
L 94.933998 -171.39031 
L 91.625698 -167.992265 
L 88.317397 -163.557434 
L 85.009097 -161.514055 
L 81.700797 -150.768998 
L 78.392496 -92.131887 
L 75.084196 -87.512906 
L 71.775896 -83.060811 
L 68.467595 -81.096053 
L 65.159295 -65.918043 
L 61.850994 -25.82 
z
" id="m48c54a9898" style="stroke:#f14432;stroke-opacity:0.8;"/>
    </defs>
    <g clip-path="url(#pbebcfb4252)">
     <use style="fill:#f14432;fill-opacity:0.8;stroke:#f14432;stroke-opacity:0.8;" x="0" xlink:href="#m48c54a9898" y="354.04"/>
    </g>
   </g>
   <g id="matplotlib.axis_1"/>
   <g id="matplotlib.axis_2">
    <g id="ytick_1">
     <g id="line2d_1">
      <defs>
       <path d="M 0 0 
L -3.5 0 
" id="me09386d2f0" style="stroke:#000000;stroke-width:0.8;"/>
      </defs>
      <g>
       <use style="stroke:#000000;stroke-width:0.8;" x="46.632812" xlink:href="#me09386d2f0" y="318.448792"/>
      </g>
     </g>
     <g id="text_1">
      <!-- −3 -->
      <defs>
       <path d="M 10.59375 35.5 
L 73.1875 35.5 
L 73.1875 27.203125 
L 10.59375 27.203125 
z
" id="DejaVuSans-2212"/>
       <path d="M 40.578125 39.3125 
Q 47.65625 37.796875 51.625 33 
Q 55.609375 28.21875 55.609375 21.1875 
Q 55.609375 10.40625 48.1875 4.484375 
Q 40.765625 -1.421875 27.09375 -1.421875 
Q 22.515625 -1.421875 17.65625 -0.515625 
Q 12.796875 0.390625 7.625 2.203125 
L 7.625 11.71875 
Q 11.71875 9.328125 16.59375 8.109375 
Q 21.484375 6.890625 26.8125 6.890625 
Q 36.078125 6.890625 40.9375 10.546875 
Q 45.796875 14.203125 45.796875 21.1875 
Q 45.796875 27.640625 41.28125 31.265625 
Q 36.765625 34.90625 28.71875 34.90625 
L 20.21875 34.90625 
L 20.21875 43.015625 
L 29.109375 43.015625 
Q 36.375 43.015625 40.234375 45.921875 
Q 44.09375 48.828125 44.09375 54.296875 
Q 44.09375 59.90625 40.109375 62.90625 
Q 36.140625 65.921875 28.71875 65.921875 
Q 24.65625 65.921875 20.015625 65.03125 
Q 15.375 64.15625 9.8125 62.3125 
L 9.8125 71.09375 
Q 15.4375 72.65625 20.34375 73.4375 
Q 25.25 74.21875 29.59375 74.21875 
Q 40.828125 74.21875 47.359375 69.109375 
Q 53.90625 64.015625 53.90625 55.328125 
Q 53.90625 49.265625 50.4375 45.09375 
Q 46.96875 40.921875 40.578125 39.3125 
z
" id="DejaVuSans-33"/>
      </defs>
      <g transform="translate(7.2 326.807073)scale(0.22 -0.22)">
       <use xlink:href="#DejaVuSans-2212"/>
       <use x="83.789062" xlink:href="#DejaVuSans-33"/>
      </g>
     </g>
    </g>
    <g id="ytick_2">
     <g id="line2d_2">
      <g>
       <use style="stroke:#000000;stroke-width:0.8;" x="46.632812" xlink:href="#me09386d2f0" y="270.933917"/>
      </g>
     </g>
     <g id="text_2">
      <!-- −2 -->
      <defs>
       <path d="M 19.1875 8.296875 
L 53.609375 8.296875 
L 53.609375 0 
L 7.328125 0 
L 7.328125 8.296875 
Q 12.9375 14.109375 22.625 23.890625 
Q 32.328125 33.6875 34.8125 36.53125 
Q 39.546875 41.84375 41.421875 45.53125 
Q 43.3125 49.21875 43.3125 52.78125 
Q 43.3125 58.59375 39.234375 62.25 
Q 35.15625 65.921875 28.609375 65.921875 
Q 23.96875 65.921875 18.8125 64.3125 
Q 13.671875 62.703125 7.8125 59.421875 
L 7.8125 69.390625 
Q 13.765625 71.78125 18.9375 73 
Q 24.125 74.21875 28.421875 74.21875 
Q 39.75 74.21875 46.484375 68.546875 
Q 53.21875 62.890625 53.21875 53.421875 
Q 53.21875 48.921875 51.53125 44.890625 
Q 49.859375 40.875 45.40625 35.40625 
Q 44.1875 33.984375 37.640625 27.21875 
Q 31.109375 20.453125 19.1875 8.296875 
z
" id="DejaVuSans-32"/>
      </defs>
      <g transform="translate(7.2 279.292198)scale(0.22 -0.22)">
       <use xlink:href="#DejaVuSans-2212"/>
       <use x="83.789062" xlink:href="#DejaVuSans-32"/>
      </g>
     </g>
    </g>
    <g id="ytick_3">
     <g id="line2d_3">
      <g>
       <use style="stroke:#000000;stroke-width:0.8;" x="46.632812" xlink:href="#me09386d2f0" y="223.419042"/>
      </g>
     </g>
     <g id="text_3">
      <!-- −1 -->
      <defs>
       <path d="M 12.40625 8.296875 
L 28.515625 8.296875 
L 28.515625 63.921875 
L 10.984375 60.40625 
L 10.984375 69.390625 
L 28.421875 72.90625 
L 38.28125 72.90625 
L 38.28125 8.296875 
L 54.390625 8.296875 
L 54.390625 0 
L 12.40625 0 
z
" id="DejaVuSans-31"/>
      </defs>
      <g transform="translate(7.2 231.777323)scale(0.22 -0.22)">
       <use xlink:href="#DejaVuSans-2212"/>
       <use x="83.789062" xlink:href="#DejaVuSans-31"/>
      </g>
     </g>
    </g>
    <g id="ytick_4">
     <g id="line2d_4">
      <g>
       <use style="stroke:#000000;stroke-width:0.8;" x="46.632812" xlink:href="#me09386d2f0" y="175.904167"/>
      </g>
     </g>
     <g id="text_4">
      <!-- 0 -->
      <defs>
       <path d="M 31.78125 66.40625 
Q 24.171875 66.40625 20.328125 58.90625 
Q 16.5 51.421875 16.5 36.375 
Q 16.5 21.390625 20.328125 13.890625 
Q 24.171875 6.390625 31.78125 6.390625 
Q 39.453125 6.390625 43.28125 13.890625 
Q 47.125 21.390625 47.125 36.375 
Q 47.125 51.421875 43.28125 58.90625 
Q 39.453125 66.40625 31.78125 66.40625 
z
M 31.78125 74.21875 
Q 44.046875 74.21875 50.515625 64.515625 
Q 56.984375 54.828125 56.984375 36.375 
Q 56.984375 17.96875 50.515625 8.265625 
Q 44.046875 -1.421875 31.78125 -1.421875 
Q 19.53125 -1.421875 13.0625 8.265625 
Q 6.59375 17.96875 6.59375 36.375 
Q 6.59375 54.828125 13.0625 64.515625 
Q 19.53125 74.21875 31.78125 74.21875 
z
" id="DejaVuSans-30"/>
      </defs>
      <g transform="translate(25.635312 184.262448)scale(0.22 -0.22)">
       <use xlink:href="#DejaVuSans-30"/>
      </g>
     </g>
    </g>
    <g id="ytick_5">
     <g id="line2d_5">
      <g>
       <use style="stroke:#000000;stroke-width:0.8;" x="46.632812" xlink:href="#me09386d2f0" y="128.389292"/>
      </g>
     </g>
     <g id="text_5">
      <!-- 1 -->
      <g transform="translate(25.635312 136.747573)scale(0.22 -0.22)">
       <use xlink:href="#DejaVuSans-31"/>
      </g>
     </g>
    </g>
    <g id="ytick_6">
     <g id="line2d_6">
      <g>
       <use style="stroke:#000000;stroke-width:0.8;" x="46.632812" xlink:href="#me09386d2f0" y="80.874417"/>
      </g>
     </g>
     <g id="text_6">
      <!-- 2 -->
      <g transform="translate(25.635312 89.232698)scale(0.22 -0.22)">
       <use xlink:href="#DejaVuSans-32"/>
      </g>
     </g>
    </g>
    <g id="ytick_7">
     <g id="line2d_7">
      <g>
       <use style="stroke:#000000;stroke-width:0.8;" x="46.632812" xlink:href="#me09386d2f0" y="33.359541"/>
      </g>
     </g>
     <g id="text_7">
      <!-- 3 -->
      <g transform="translate(25.635312 41.717823)scale(0.22 -0.22)">
       <use xlink:href="#DejaVuSans-33"/>
      </g>
     </g>
    </g>
   </g>
   <g id="patch_3">
    <path d="M 46.632812 343.34 
L 46.632812 10.7 
" style="fill:none;stroke:#000000;stroke-linecap:square;stroke-linejoin:miter;stroke-width:0.8;"/>
   </g>
   <g id="patch_4">
    <path d="M 381.432813 343.34 
L 381.432813 10.7 
" style="fill:none;stroke:#000000;stroke-linecap:square;stroke-linejoin:miter;stroke-width:0.8;"/>
   </g>
   <g id="patch_5">
    <path d="M 46.632812 343.34 
L 381.432813 343.34 
" style="fill:none;stroke:#000000;stroke-linecap:square;stroke-linejoin:miter;stroke-width:0.8;"/>
   </g>
   <g id="patch_6">
    <path d="M 46.632812 10.7 
L 381.432813 10.7 
" style="fill:none;stroke:#000000;stroke-linecap:square;stroke-linejoin:miter;stroke-width:0.8;"/>
   </g>
  </g>
 </g>
 <defs>
  <clipPath id="pbebcfb4252">
   <rect height="332.64" width="334.8" x="46.632812" y="10.7"/>
  </clipPath>
 </defs>
</svg>
