<?xml version="1.0" encoding="utf-8" standalone="no"?>
<!DOCTYPE svg PUBLIC "-//W3C//DTD SVG 1.1//EN"
  "http://www.w3.org/Graphics/SVG/1.1/DTD/svg11.dtd">
<!-- Created with matplotlib (http://matplotlib.org/) -->
<svg height="354pt" version="1.1" viewBox="0 0 427 354" width="427pt" xmlns="http://www.w3.org/2000/svg" xmlns:xlink="http://www.w3.org/1999/xlink">
 <defs>
  <style type="text/css">
*{stroke-linecap:butt;stroke-linejoin:round;}
  </style>
 </defs>
 <g id="figure_1">
  <g id="patch_1">
   <path d="M 0 354.04 
L 427.119687 354.04 
L 427.119687 0 
L 0 0 
z
" style="fill:#ffffff;"/>
  </g>
  <g id="axes_1">
   <g id="patch_2">
    <path d="M 81.619687 343.34 
L 416.419688 343.34 
L 416.419688 10.7 
L 81.619687 10.7 
z
" style="fill:#ffffff;"/>
   </g>
   <g id="PolyCollection_1">
    <defs>
     <path d="M 96.837869 -73.070333 
L 96.837869 -148.758536 
L 100.14617 -148.758536 
L 103.45447 -148.758536 
L 106.762771 -148.758536 
L 110.071071 -148.758536 
L 113.379371 -148.758536 
L 116.687672 -148.758536 
L 119.995972 -148.758536 
L 123.304272 -148.758536 
L 126.612573 -148.758536 
L 129.920873 -148.758536 
L 133.229174 -148.758536 
L 136.537474 -148.758536 
L 139.845774 -148.758536 
L 143.154075 -148.758536 
L 146.462375 -148.758536 
L 149.770676 -148.758536 
L 153.078976 -148.758536 
L 156.387276 -148.758536 
L 159.695577 -148.758536 
L 163.003877 -148.758536 
L 166.312178 -148.758536 
L 169.620478 -148.758536 
L 172.928778 -148.758536 
L 176.237079 -148.758536 
L 179.545379 -148.758536 
L 182.85368 -148.758536 
L 186.16198 -148.758536 
L 189.47028 -148.758536 
L 192.778581 -148.758536 
L 196.086881 -148.758536 
L 199.395182 -148.758536 
L 202.703482 -148.758536 
L 206.011782 -148.758536 
L 209.320083 -148.758536 
L 212.628383 -148.758536 
L 215.936684 -148.758536 
L 219.244984 -148.758536 
L 222.553284 -148.758536 
L 225.861585 -148.758536 
L 229.169885 -148.758536 
L 232.478186 -148.758536 
L 235.786486 -148.758536 
L 239.094786 -148.758536 
L 242.403087 -148.758536 
L 245.711387 -148.758536 
L 249.019688 -148.758536 
L 252.327988 -148.758536 
L 255.636288 -148.758536 
L 258.944589 -148.758536 
L 262.252889 -148.758536 
L 265.561189 -148.758536 
L 268.86949 -148.758536 
L 272.17779 -148.758536 
L 275.486091 -148.758536 
L 278.794391 -148.758536 
L 282.102691 -148.758536 
L 285.410992 -148.758536 
L 288.719292 -148.758536 
L 292.027593 -148.758536 
L 295.335893 -148.758536 
L 298.644193 -148.758536 
L 301.952494 -148.758536 
L 305.260794 -148.758536 
L 308.569095 -148.758536 
L 311.877395 -148.758536 
L 315.185695 -148.758536 
L 318.493996 -148.758536 
L 321.802296 -148.758536 
L 325.110597 -148.758536 
L 328.418897 -148.758536 
L 331.727197 -148.758536 
L 335.035498 -148.758536 
L 338.343798 -148.758536 
L 341.652099 -148.758536 
L 344.960399 -148.758536 
L 348.268699 -148.758536 
L 351.577 -148.758536 
L 354.8853 -148.758536 
L 358.193601 -148.758536 
L 361.501901 -148.758536 
L 364.810201 -148.758536 
L 368.118502 -148.758536 
L 371.426802 -148.758536 
L 374.735103 -148.758536 
L 378.043403 -148.758536 
L 381.351703 -148.758536 
L 384.660004 -148.758536 
L 387.968304 -148.758536 
L 391.276604 -148.758536 
L 394.584905 -148.758536 
L 397.893205 -148.758536 
L 401.201506 -148.758536 
L 401.201506 -286.05183 
L 401.201506 -286.05183 
L 397.893205 -223.265294 
L 394.584905 -209.625594 
L 391.276604 -208.254985 
L 387.968304 -203.188423 
L 384.660004 -199.906157 
L 381.351703 -196.195066 
L 378.043403 -195.71456 
L 374.735103 -195.592353 
L 371.426802 -193.695383 
L 368.118502 -191.700673 
L 364.810201 -191.493116 
L 361.501901 -190.903837 
L 358.193601 -187.828324 
L 354.8853 -185.386771 
L 351.577 -180.251152 
L 348.268699 -179.628038 
L 344.960399 -177.94059 
L 341.652099 -177.857241 
L 338.343798 -176.651909 
L 335.035498 -174.142522 
L 331.727197 -169.16051 
L 328.418897 -168.925761 
L 325.110597 -161.673434 
L 321.802296 -160.816323 
L 318.493996 -160.791079 
L 315.185695 -160.62303 
L 311.877395 -158.310414 
L 308.569095 -157.707221 
L 305.260794 -156.573069 
L 301.952494 -151.874365 
L 298.644193 -151.56119 
L 295.335893 -151.083424 
L 292.027593 -150.969226 
L 288.719292 -150.467955 
L 285.410992 -150.267715 
L 282.102691 -149.994875 
L 278.794391 -149.581237 
L 275.486091 -149.138716 
L 272.17779 -149.104214 
L 268.86949 -149.066632 
L 265.561189 -149.008844 
L 262.252889 -148.996515 
L 258.944589 -148.980357 
L 255.636288 -148.956306 
L 252.327988 -148.954061 
L 249.019688 -148.92164 
L 245.711387 -148.918732 
L 242.403087 -148.900592 
L 239.094786 -148.886435 
L 235.786486 -148.879248 
L 232.478186 -148.872438 
L 229.169885 -148.866626 
L 225.861585 -148.824641 
L 222.553284 -148.814279 
L 219.244984 -148.794584 
L 215.936684 -148.793041 
L 212.628383 -148.78019 
L 209.320083 -148.77339 
L 206.011782 -148.773104 
L 202.703482 -148.759665 
L 199.395182 -148.745769 
L 196.086881 -148.735681 
L 192.778581 -148.731573 
L 189.47028 -148.708597 
L 186.16198 -148.695585 
L 182.85368 -148.688109 
L 179.545379 -148.679432 
L 176.237079 -148.665548 
L 172.928778 -148.65346 
L 169.620478 -148.644009 
L 166.312178 -148.557415 
L 163.003877 -148.543951 
L 159.695577 -148.350521 
L 156.387276 -148.224877 
L 153.078976 -148.071624 
L 149.770676 -147.903312 
L 146.462375 -147.51258 
L 143.154075 -147.137026 
L 139.845774 -146.714207 
L 136.537474 -145.771693 
L 133.229174 -145.262662 
L 129.920873 -144.875064 
L 126.612573 -143.150019 
L 123.304272 -138.72871 
L 119.995972 -137.05544 
L 116.687672 -132.016137 
L 113.379371 -113.650166 
L 110.071071 -113.003494 
L 106.762771 -110.862121 
L 103.45447 -98.065322 
L 100.14617 -97.534985 
L 96.837869 -73.070333 
z
" id="mf35bf14c4f" style="stroke:#4a98c9;"/>
    </defs>
    <g clip-path="url(#pc7f2b4c67f)">
     <use style="fill:#4a98c9;stroke:#4a98c9;" x="0" xlink:href="#mf35bf14c4f" y="354.04"/>
    </g>
   </g>
   <g id="PolyCollection_2">
    <defs>
     <path d="M 96.837869 -25.82 
L 96.837869 -148.758536 
L 100.14617 -148.758536 
L 103.45447 -148.758536 
L 106.762771 -148.758536 
L 110.071071 -148.758536 
L 113.379371 -148.758536 
L 116.687672 -148.758536 
L 119.995972 -148.758536 
L 123.304272 -148.758536 
L 126.612573 -148.758536 
L 129.920873 -148.758536 
L 133.229174 -148.758536 
L 136.537474 -148.758536 
L 139.845774 -148.758536 
L 143.154075 -148.758536 
L 146.462375 -148.758536 
L 149.770676 -148.758536 
L 153.078976 -148.758536 
L 156.387276 -148.758536 
L 159.695577 -148.758536 
L 163.003877 -148.758536 
L 166.312178 -148.758536 
L 169.620478 -148.758536 
L 172.928778 -148.758536 
L 176.237079 -148.758536 
L 179.545379 -148.758536 
L 182.85368 -148.758536 
L 186.16198 -148.758536 
L 189.47028 -148.758536 
L 192.778581 -148.758536 
L 196.086881 -148.758536 
L 199.395182 -148.758536 
L 202.703482 -148.758536 
L 206.011782 -148.758536 
L 209.320083 -148.758536 
L 212.628383 -148.758536 
L 215.936684 -148.758536 
L 219.244984 -148.758536 
L 222.553284 -148.758536 
L 225.861585 -148.758536 
L 229.169885 -148.758536 
L 232.478186 -148.758536 
L 235.786486 -148.758536 
L 239.094786 -148.758536 
L 242.403087 -148.758536 
L 245.711387 -148.758536 
L 249.019688 -148.758536 
L 252.327988 -148.758536 
L 255.636288 -148.758536 
L 258.944589 -148.758536 
L 262.252889 -148.758536 
L 265.561189 -148.758536 
L 268.86949 -148.758536 
L 272.17779 -148.758536 
L 275.486091 -148.758536 
L 278.794391 -148.758536 
L 282.102691 -148.758536 
L 285.410992 -148.758536 
L 288.719292 -148.758536 
L 292.027593 -148.758536 
L 295.335893 -148.758536 
L 298.644193 -148.758536 
L 301.952494 -148.758536 
L 305.260794 -148.758536 
L 308.569095 -148.758536 
L 311.877395 -148.758536 
L 315.185695 -148.758536 
L 318.493996 -148.758536 
L 321.802296 -148.758536 
L 325.110597 -148.758536 
L 328.418897 -148.758536 
L 331.727197 -148.758536 
L 335.035498 -148.758536 
L 338.343798 -148.758536 
L 341.652099 -148.758536 
L 344.960399 -148.758536 
L 348.268699 -148.758536 
L 351.577 -148.758536 
L 354.8853 -148.758536 
L 358.193601 -148.758536 
L 361.501901 -148.758536 
L 364.810201 -148.758536 
L 368.118502 -148.758536 
L 371.426802 -148.758536 
L 374.735103 -148.758536 
L 378.043403 -148.758536 
L 381.351703 -148.758536 
L 384.660004 -148.758536 
L 387.968304 -148.758536 
L 391.276604 -148.758536 
L 394.584905 -148.758536 
L 397.893205 -148.758536 
L 401.201506 -148.758536 
L 401.201506 -328.22 
L 401.201506 -328.22 
L 397.893205 -282.195832 
L 394.584905 -260.432566 
L 391.276604 -240.065573 
L 387.968304 -229.886656 
L 384.660004 -227.966253 
L 381.351703 -227.875011 
L 378.043403 -210.050729 
L 374.735103 -196.558991 
L 371.426802 -196.418128 
L 368.118502 -195.838761 
L 364.810201 -195.532714 
L 361.501901 -190.364611 
L 358.193601 -187.585296 
L 354.8853 -185.765379 
L 351.577 -183.828573 
L 348.268699 -178.290627 
L 344.960399 -169.536848 
L 341.652099 -169.123159 
L 338.343798 -166.778565 
L 335.035498 -166.115812 
L 331.727197 -165.733558 
L 328.418897 -165.63172 
L 325.110597 -162.424316 
L 321.802296 -160.864511 
L 318.493996 -160.517605 
L 315.185695 -160.072407 
L 311.877395 -158.575138 
L 308.569095 -157.795634 
L 305.260794 -157.021854 
L 301.952494 -156.827131 
L 298.644193 -156.782423 
L 295.335893 -156.279118 
L 292.027593 -155.661905 
L 288.719292 -155.55678 
L 285.410992 -153.986543 
L 282.102691 -153.645948 
L 278.794391 -152.807004 
L 275.486091 -152.776301 
L 272.17779 -151.996823 
L 268.86949 -151.205611 
L 265.561189 -150.64255 
L 262.252889 -149.167838 
L 258.944589 -149.120822 
L 255.636288 -149.045416 
L 252.327988 -148.967817 
L 249.019688 -148.9524 
L 245.711387 -148.932389 
L 242.403087 -148.928478 
L 239.094786 -148.884586 
L 235.786486 -148.883628 
L 232.478186 -148.867403 
L 229.169885 -148.841252 
L 225.861585 -148.811065 
L 222.553284 -148.79531 
L 219.244984 -148.788658 
L 215.936684 -148.784459 
L 212.628383 -148.781408 
L 209.320083 -148.77904 
L 206.011782 -148.768485 
L 202.703482 -148.76676 
L 199.395182 -148.760243 
L 196.086881 -148.759239 
L 192.778581 -148.751773 
L 189.47028 -148.728289 
L 186.16198 -148.72636 
L 182.85368 -148.720612 
L 179.545379 -148.71914 
L 176.237079 -148.70899 
L 172.928778 -148.70466 
L 169.620478 -148.692573 
L 166.312178 -148.675179 
L 163.003877 -148.66987 
L 159.695577 -148.662253 
L 156.387276 -148.655433 
L 153.078976 -148.645132 
L 149.770676 -148.617489 
L 146.462375 -148.612384 
L 143.154075 -148.58783 
L 139.845774 -148.561795 
L 136.537474 -148.500358 
L 133.229174 -148.426109 
L 129.920873 -147.237803 
L 126.612573 -145.301943 
L 123.304272 -136.417064 
L 119.995972 -135.453541 
L 116.687672 -125.386755 
L 113.379371 -120.350492 
L 110.071071 -109.246758 
L 106.762771 -98.059067 
L 103.45447 -89.334354 
L 100.14617 -27.401653 
L 96.837869 -25.82 
z
" id="m87da31203a" style="stroke:#f14432;stroke-opacity:0.8;"/>
    </defs>
    <g clip-path="url(#pc7f2b4c67f)">
     <use style="fill:#f14432;fill-opacity:0.8;stroke:#f14432;stroke-opacity:0.8;" x="0" xlink:href="#m87da31203a" y="354.04"/>
    </g>
   </g>
   <g id="matplotlib.axis_1"/>
   <g id="matplotlib.axis_2">
    <g id="ytick_1">
     <g id="line2d_1">
      <defs>
       <path d="M 0 0 
L -3.5 0 
" id="m3ca834dbe9" style="stroke:#000000;stroke-width:0.8;"/>
      </defs>
      <g>
       <use style="stroke:#000000;stroke-width:0.8;" x="81.619687" xlink:href="#m3ca834dbe9" y="304.411799"/>
      </g>
     </g>
     <g id="text_1">
      <!-- −0.10 -->
      <defs>
       <path d="M 10.59375 35.5 
L 73.1875 35.5 
L 73.1875 27.203125 
L 10.59375 27.203125 
z
" id="DejaVuSans-2212"/>
       <path d="M 31.78125 66.40625 
Q 24.171875 66.40625 20.328125 58.90625 
Q 16.5 51.421875 16.5 36.375 
Q 16.5 21.390625 20.328125 13.890625 
Q 24.171875 6.390625 31.78125 6.390625 
Q 39.453125 6.390625 43.28125 13.890625 
Q 47.125 21.390625 47.125 36.375 
Q 47.125 51.421875 43.28125 58.90625 
Q 39.453125 66.40625 31.78125 66.40625 
z
M 31.78125 74.21875 
Q 44.046875 74.21875 50.515625 64.515625 
Q 56.984375 54.828125 56.984375 36.375 
Q 56.984375 17.96875 50.515625 8.265625 
Q 44.046875 -1.421875 31.78125 -1.421875 
Q 19.53125 -1.421875 13.0625 8.265625 
Q 6.59375 17.96875 6.59375 36.375 
Q 6.59375 54.828125 13.0625 64.515625 
Q 19.53125 74.21875 31.78125 74.21875 
z
" id="DejaVuSans-30"/>
       <path d="M 10.6875 12.40625 
L 21 12.40625 
L 21 0 
L 10.6875 0 
z
" id="DejaVuSans-2e"/>
       <path d="M 12.40625 8.296875 
L 28.515625 8.296875 
L 28.515625 63.921875 
L 10.984375 60.40625 
L 10.984375 69.390625 
L 28.421875 72.90625 
L 38.28125 72.90625 
L 38.28125 8.296875 
L 54.390625 8.296875 
L 54.390625 0 
L 12.40625 0 
z
" id="DejaVuSans-31"/>
      </defs>
      <g transform="translate(7.2 312.77008)scale(0.22 -0.22)">
       <use xlink:href="#DejaVuSans-2212"/>
       <use x="83.789062" xlink:href="#DejaVuSans-30"/>
       <use x="147.412109" xlink:href="#DejaVuSans-2e"/>
       <use x="179.199219" xlink:href="#DejaVuSans-31"/>
       <use x="242.822266" xlink:href="#DejaVuSans-30"/>
      </g>
     </g>
    </g>
    <g id="ytick_2">
     <g id="line2d_2">
      <g>
       <use style="stroke:#000000;stroke-width:0.8;" x="81.619687" xlink:href="#m3ca834dbe9" y="254.846632"/>
      </g>
     </g>
     <g id="text_2">
      <!-- −0.05 -->
      <defs>
       <path d="M 10.796875 72.90625 
L 49.515625 72.90625 
L 49.515625 64.59375 
L 19.828125 64.59375 
L 19.828125 46.734375 
Q 21.96875 47.46875 24.109375 47.828125 
Q 26.265625 48.1875 28.421875 48.1875 
Q 40.625 48.1875 47.75 41.5 
Q 54.890625 34.8125 54.890625 23.390625 
Q 54.890625 11.625 47.5625 5.09375 
Q 40.234375 -1.421875 26.90625 -1.421875 
Q 22.3125 -1.421875 17.546875 -0.640625 
Q 12.796875 0.140625 7.71875 1.703125 
L 7.71875 11.625 
Q 12.109375 9.234375 16.796875 8.0625 
Q 21.484375 6.890625 26.703125 6.890625 
Q 35.15625 6.890625 40.078125 11.328125 
Q 45.015625 15.765625 45.015625 23.390625 
Q 45.015625 31 40.078125 35.4375 
Q 35.15625 39.890625 26.703125 39.890625 
Q 22.75 39.890625 18.8125 39.015625 
Q 14.890625 38.140625 10.796875 36.28125 
z
" id="DejaVuSans-35"/>
      </defs>
      <g transform="translate(7.2 263.204913)scale(0.22 -0.22)">
       <use xlink:href="#DejaVuSans-2212"/>
       <use x="83.789062" xlink:href="#DejaVuSans-30"/>
       <use x="147.412109" xlink:href="#DejaVuSans-2e"/>
       <use x="179.199219" xlink:href="#DejaVuSans-30"/>
       <use x="242.822266" xlink:href="#DejaVuSans-35"/>
      </g>
     </g>
    </g>
    <g id="ytick_3">
     <g id="line2d_3">
      <g>
       <use style="stroke:#000000;stroke-width:0.8;" x="81.619687" xlink:href="#m3ca834dbe9" y="205.281464"/>
      </g>
     </g>
     <g id="text_3">
      <!-- 0.00 -->
      <g transform="translate(25.635312 213.639745)scale(0.22 -0.22)">
       <use xlink:href="#DejaVuSans-30"/>
       <use x="63.623047" xlink:href="#DejaVuSans-2e"/>
       <use x="95.410156" xlink:href="#DejaVuSans-30"/>
       <use x="159.033203" xlink:href="#DejaVuSans-30"/>
      </g>
     </g>
    </g>
    <g id="ytick_4">
     <g id="line2d_4">
      <g>
       <use style="stroke:#000000;stroke-width:0.8;" x="81.619687" xlink:href="#m3ca834dbe9" y="155.716296"/>
      </g>
     </g>
     <g id="text_4">
      <!-- 0.05 -->
      <g transform="translate(25.635312 164.074578)scale(0.22 -0.22)">
       <use xlink:href="#DejaVuSans-30"/>
       <use x="63.623047" xlink:href="#DejaVuSans-2e"/>
       <use x="95.410156" xlink:href="#DejaVuSans-30"/>
       <use x="159.033203" xlink:href="#DejaVuSans-35"/>
      </g>
     </g>
    </g>
    <g id="ytick_5">
     <g id="line2d_5">
      <g>
       <use style="stroke:#000000;stroke-width:0.8;" x="81.619687" xlink:href="#m3ca834dbe9" y="106.151129"/>
      </g>
     </g>
     <g id="text_5">
      <!-- 0.10 -->
      <g transform="translate(25.635312 114.50941)scale(0.22 -0.22)">
       <use xlink:href="#DejaVuSans-30"/>
       <use x="63.623047" xlink:href="#DejaVuSans-2e"/>
       <use x="95.410156" xlink:href="#DejaVuSans-31"/>
       <use x="159.033203" xlink:href="#DejaVuSans-30"/>
      </g>
     </g>
    </g>
    <g id="ytick_6">
     <g id="line2d_6">
      <g>
       <use style="stroke:#000000;stroke-width:0.8;" x="81.619687" xlink:href="#m3ca834dbe9" y="56.585961"/>
      </g>
     </g>
     <g id="text_6">
      <!-- 0.15 -->
      <g transform="translate(25.635312 64.944243)scale(0.22 -0.22)">
       <use xlink:href="#DejaVuSans-30"/>
       <use x="63.623047" xlink:href="#DejaVuSans-2e"/>
       <use x="95.410156" xlink:href="#DejaVuSans-31"/>
       <use x="159.033203" xlink:href="#DejaVuSans-35"/>
      </g>
     </g>
    </g>
   </g>
   <g id="patch_3">
    <path d="M 81.619687 343.34 
L 81.619687 10.7 
" style="fill:none;stroke:#000000;stroke-linecap:square;stroke-linejoin:miter;stroke-width:0.8;"/>
   </g>
   <g id="patch_4">
    <path d="M 416.419688 343.34 
L 416.419688 10.7 
" style="fill:none;stroke:#000000;stroke-linecap:square;stroke-linejoin:miter;stroke-width:0.8;"/>
   </g>
   <g id="patch_5">
    <path d="M 81.619687 343.34 
L 416.419688 343.34 
" style="fill:none;stroke:#000000;stroke-linecap:square;stroke-linejoin:miter;stroke-width:0.8;"/>
   </g>
   <g id="patch_6">
    <path d="M 81.619687 10.7 
L 416.419688 10.7 
" style="fill:none;stroke:#000000;stroke-linecap:square;stroke-linejoin:miter;stroke-width:0.8;"/>
   </g>
  </g>
 </g>
 <defs>
  <clipPath id="pc7f2b4c67f">
   <rect height="332.64" width="334.8" x="81.619687" y="10.7"/>
  </clipPath>
 </defs>
</svg>
