<?xml version="1.0" encoding="utf-8" standalone="no"?>
<!DOCTYPE svg PUBLIC "-//W3C//DTD SVG 1.1//EN"
  "http://www.w3.org/Graphics/SVG/1.1/DTD/svg11.dtd">
<!-- Created with matplotlib (http://matplotlib.org/) -->
<svg height="354pt" version="1.1" viewBox="0 0 413 354" width="413pt" xmlns="http://www.w3.org/2000/svg" xmlns:xlink="http://www.w3.org/1999/xlink">
 <defs>
  <style type="text/css">
*{stroke-linecap:butt;stroke-linejoin:round;}
  </style>
 </defs>
 <g id="figure_1">
  <g id="patch_1">
   <path d="M 0 354.04 
L 413.122187 354.04 
L 413.122187 0 
L 0 0 
z
" style="fill:#ffffff;"/>
  </g>
  <g id="axes_1">
   <g id="patch_2">
    <path d="M 67.622187 343.34 
L 402.422188 343.34 
L 402.422188 10.7 
L 67.622187 10.7 
z
" style="fill:#ffffff;"/>
   </g>
   <g id="PolyCollection_1">
    <defs>
     <path d="M 82.840369 -158.450926 
L 82.840369 -167.72815 
L 86.14867 -167.72815 
L 89.45697 -167.72815 
L 92.765271 -167.72815 
L 96.073571 -167.72815 
L 99.381871 -167.72815 
L 102.690172 -167.72815 
L 105.998472 -167.72815 
L 109.306772 -167.72815 
L 112.615073 -167.72815 
L 115.923373 -167.72815 
L 119.231674 -167.72815 
L 122.539974 -167.72815 
L 125.848274 -167.72815 
L 129.156575 -167.72815 
L 132.464875 -167.72815 
L 135.773176 -167.72815 
L 139.081476 -167.72815 
L 142.389776 -167.72815 
L 145.698077 -167.72815 
L 149.006377 -167.72815 
L 152.314678 -167.72815 
L 155.622978 -167.72815 
L 158.931278 -167.72815 
L 162.239579 -167.72815 
L 165.547879 -167.72815 
L 168.85618 -167.72815 
L 172.16448 -167.72815 
L 175.47278 -167.72815 
L 178.781081 -167.72815 
L 182.089381 -167.72815 
L 185.397682 -167.72815 
L 188.705982 -167.72815 
L 192.014282 -167.72815 
L 195.322583 -167.72815 
L 198.630883 -167.72815 
L 201.939184 -167.72815 
L 205.247484 -167.72815 
L 208.555784 -167.72815 
L 211.864085 -167.72815 
L 215.172385 -167.72815 
L 218.480686 -167.72815 
L 221.788986 -167.72815 
L 225.097286 -167.72815 
L 228.405587 -167.72815 
L 231.713887 -167.72815 
L 235.022188 -167.72815 
L 238.330488 -167.72815 
L 241.638788 -167.72815 
L 244.947089 -167.72815 
L 248.255389 -167.72815 
L 251.563689 -167.72815 
L 254.87199 -167.72815 
L 258.18029 -167.72815 
L 261.488591 -167.72815 
L 264.796891 -167.72815 
L 268.105191 -167.72815 
L 271.413492 -167.72815 
L 274.721792 -167.72815 
L 278.030093 -167.72815 
L 281.338393 -167.72815 
L 284.646693 -167.72815 
L 287.954994 -167.72815 
L 291.263294 -167.72815 
L 294.571595 -167.72815 
L 297.879895 -167.72815 
L 301.188195 -167.72815 
L 304.496496 -167.72815 
L 307.804796 -167.72815 
L 311.113097 -167.72815 
L 314.421397 -167.72815 
L 317.729697 -167.72815 
L 321.037998 -167.72815 
L 324.346298 -167.72815 
L 327.654599 -167.72815 
L 330.962899 -167.72815 
L 334.271199 -167.72815 
L 337.5795 -167.72815 
L 340.8878 -167.72815 
L 344.196101 -167.72815 
L 347.504401 -167.72815 
L 350.812701 -167.72815 
L 354.121002 -167.72815 
L 357.429302 -167.72815 
L 360.737603 -167.72815 
L 364.045903 -167.72815 
L 367.354203 -167.72815 
L 370.662504 -167.72815 
L 373.970804 -167.72815 
L 377.279104 -167.72815 
L 380.587405 -167.72815 
L 383.895705 -167.72815 
L 387.204006 -167.72815 
L 387.204006 -180.290287 
L 387.204006 -180.290287 
L 383.895705 -175.004141 
L 380.587405 -174.705937 
L 377.279104 -173.835789 
L 373.970804 -173.669833 
L 370.662504 -172.977151 
L 367.354203 -172.964296 
L 364.045903 -172.682292 
L 360.737603 -172.051181 
L 357.429302 -172.038014 
L 354.121002 -172.010418 
L 350.812701 -171.078525 
L 347.504401 -171.022229 
L 344.196101 -170.927805 
L 340.8878 -170.866925 
L 337.5795 -170.84967 
L 334.271199 -170.588178 
L 330.962899 -170.453864 
L 327.654599 -170.41126 
L 324.346298 -170.303084 
L 321.037998 -170.096147 
L 317.729697 -170.077944 
L 314.421397 -169.899383 
L 311.113097 -169.819207 
L 307.804796 -169.704272 
L 304.496496 -169.508554 
L 301.188195 -169.304618 
L 297.879895 -169.060012 
L 294.571595 -168.465918 
L 291.263294 -168.181271 
L 287.954994 -167.888126 
L 284.646693 -167.887206 
L 281.338393 -167.848007 
L 278.030093 -167.847803 
L 274.721792 -167.829013 
L 271.413492 -167.813799 
L 268.105191 -167.810894 
L 264.796891 -167.783531 
L 261.488591 -167.779505 
L 258.18029 -167.772263 
L 254.87199 -167.762374 
L 251.563689 -167.761125 
L 248.255389 -167.761056 
L 244.947089 -167.75977 
L 241.638788 -167.757803 
L 238.330488 -167.755558 
L 235.022188 -167.742638 
L 231.713887 -167.738361 
L 228.405587 -167.736631 
L 225.097286 -167.735781 
L 221.788986 -167.735617 
L 218.480686 -167.735059 
L 215.172385 -167.734228 
L 211.864085 -167.733946 
L 208.555784 -167.733334 
L 205.247484 -167.7326 
L 201.939184 -167.731934 
L 198.630883 -167.731163 
L 195.322583 -167.730161 
L 192.014282 -167.730013 
L 188.705982 -167.728388 
L 185.397682 -167.72545 
L 182.089381 -167.722465 
L 178.781081 -167.72124 
L 175.47278 -167.710812 
L 172.16448 -167.707366 
L 168.85618 -167.70654 
L 165.547879 -167.704012 
L 162.239579 -167.700027 
L 158.931278 -167.696467 
L 155.622978 -167.695042 
L 152.314678 -167.688731 
L 149.006377 -167.683313 
L 145.698077 -167.681537 
L 142.389776 -167.675834 
L 139.081476 -167.660925 
L 135.773176 -167.591153 
L 132.464875 -167.487527 
L 129.156575 -167.464936 
L 125.848274 -167.382472 
L 122.539974 -167.225599 
L 119.231674 -167.148185 
L 115.923373 -167.082638 
L 112.615073 -166.993771 
L 109.306772 -166.906934 
L 105.998472 -166.685873 
L 102.690172 -165.615456 
L 99.381871 -164.59725 
L 96.073571 -164.298935 
L 92.765271 -164.02348 
L 89.45697 -163.611009 
L 86.14867 -162.333878 
L 82.840369 -158.450926 
z
" id="m6f993de267" style="stroke:#4a98c9;"/>
    </defs>
    <g clip-path="url(#p6e550517e1)">
     <use style="fill:#4a98c9;stroke:#4a98c9;" x="0" xlink:href="#m6f993de267" y="354.04"/>
    </g>
   </g>
   <g id="PolyCollection_2">
    <defs>
     <path d="M 82.840369 -25.82 
L 82.840369 -167.72815 
L 86.14867 -167.72815 
L 89.45697 -167.72815 
L 92.765271 -167.72815 
L 96.073571 -167.72815 
L 99.381871 -167.72815 
L 102.690172 -167.72815 
L 105.998472 -167.72815 
L 109.306772 -167.72815 
L 112.615073 -167.72815 
L 115.923373 -167.72815 
L 119.231674 -167.72815 
L 122.539974 -167.72815 
L 125.848274 -167.72815 
L 129.156575 -167.72815 
L 132.464875 -167.72815 
L 135.773176 -167.72815 
L 139.081476 -167.72815 
L 142.389776 -167.72815 
L 145.698077 -167.72815 
L 149.006377 -167.72815 
L 152.314678 -167.72815 
L 155.622978 -167.72815 
L 158.931278 -167.72815 
L 162.239579 -167.72815 
L 165.547879 -167.72815 
L 168.85618 -167.72815 
L 172.16448 -167.72815 
L 175.47278 -167.72815 
L 178.781081 -167.72815 
L 182.089381 -167.72815 
L 185.397682 -167.72815 
L 188.705982 -167.72815 
L 192.014282 -167.72815 
L 195.322583 -167.72815 
L 198.630883 -167.72815 
L 201.939184 -167.72815 
L 205.247484 -167.72815 
L 208.555784 -167.72815 
L 211.864085 -167.72815 
L 215.172385 -167.72815 
L 218.480686 -167.72815 
L 221.788986 -167.72815 
L 225.097286 -167.72815 
L 228.405587 -167.72815 
L 231.713887 -167.72815 
L 235.022188 -167.72815 
L 238.330488 -167.72815 
L 241.638788 -167.72815 
L 244.947089 -167.72815 
L 248.255389 -167.72815 
L 251.563689 -167.72815 
L 254.87199 -167.72815 
L 258.18029 -167.72815 
L 261.488591 -167.72815 
L 264.796891 -167.72815 
L 268.105191 -167.72815 
L 271.413492 -167.72815 
L 274.721792 -167.72815 
L 278.030093 -167.72815 
L 281.338393 -167.72815 
L 284.646693 -167.72815 
L 287.954994 -167.72815 
L 291.263294 -167.72815 
L 294.571595 -167.72815 
L 297.879895 -167.72815 
L 301.188195 -167.72815 
L 304.496496 -167.72815 
L 307.804796 -167.72815 
L 311.113097 -167.72815 
L 314.421397 -167.72815 
L 317.729697 -167.72815 
L 321.037998 -167.72815 
L 324.346298 -167.72815 
L 327.654599 -167.72815 
L 330.962899 -167.72815 
L 334.271199 -167.72815 
L 337.5795 -167.72815 
L 340.8878 -167.72815 
L 344.196101 -167.72815 
L 347.504401 -167.72815 
L 350.812701 -167.72815 
L 354.121002 -167.72815 
L 357.429302 -167.72815 
L 360.737603 -167.72815 
L 364.045903 -167.72815 
L 367.354203 -167.72815 
L 370.662504 -167.72815 
L 373.970804 -167.72815 
L 377.279104 -167.72815 
L 380.587405 -167.72815 
L 383.895705 -167.72815 
L 387.204006 -167.72815 
L 387.204006 -328.22 
L 387.204006 -328.22 
L 383.895705 -296.039997 
L 380.587405 -292.828475 
L 377.279104 -274.901606 
L 373.970804 -272.300427 
L 370.662504 -261.182431 
L 367.354203 -234.982214 
L 364.045903 -228.243131 
L 360.737603 -223.345223 
L 357.429302 -222.487953 
L 354.121002 -222.215888 
L 350.812701 -219.379294 
L 347.504401 -219.159566 
L 344.196101 -218.99695 
L 340.8878 -218.21427 
L 337.5795 -207.999286 
L 334.271199 -206.235982 
L 330.962899 -204.350989 
L 327.654599 -201.950279 
L 324.346298 -200.546277 
L 321.037998 -200.385622 
L 317.729697 -197.635416 
L 314.421397 -194.318055 
L 311.113097 -188.815941 
L 307.804796 -187.130803 
L 304.496496 -185.715543 
L 301.188195 -181.124668 
L 297.879895 -180.741781 
L 294.571595 -175.790703 
L 291.263294 -173.714955 
L 287.954994 -173.490357 
L 284.646693 -172.401757 
L 281.338393 -170.408991 
L 278.030093 -168.150021 
L 274.721792 -168.022947 
L 271.413492 -167.951214 
L 268.105191 -167.943016 
L 264.796891 -167.900505 
L 261.488591 -167.885051 
L 258.18029 -167.876816 
L 254.87199 -167.854961 
L 251.563689 -167.814845 
L 248.255389 -167.805478 
L 244.947089 -167.793133 
L 241.638788 -167.790753 
L 238.330488 -167.769007 
L 235.022188 -167.76515 
L 231.713887 -167.764715 
L 228.405587 -167.762139 
L 225.097286 -167.755648 
L 221.788986 -167.755519 
L 218.480686 -167.755065 
L 215.172385 -167.751358 
L 211.864085 -167.746959 
L 208.555784 -167.743539 
L 205.247484 -167.742741 
L 201.939184 -167.741064 
L 198.630883 -167.740993 
L 195.322583 -167.738558 
L 192.014282 -167.738384 
L 188.705982 -167.731892 
L 185.397682 -167.729615 
L 182.089381 -167.728835 
L 178.781081 -167.718424 
L 175.47278 -167.715702 
L 172.16448 -167.711083 
L 168.85618 -167.707037 
L 165.547879 -167.706127 
L 162.239579 -167.704225 
L 158.931278 -167.700395 
L 155.622978 -167.691239 
L 152.314678 -167.690277 
L 149.006377 -167.688689 
L 145.698077 -167.685291 
L 142.389776 -167.683752 
L 139.081476 -167.667055 
L 135.773176 -167.666075 
L 132.464875 -167.650827 
L 129.156575 -167.635377 
L 125.848274 -167.6038 
L 122.539974 -166.779691 
L 119.231674 -166.709797 
L 115.923373 -162.589448 
L 112.615073 -161.751469 
L 109.306772 -154.009429 
L 105.998472 -152.033627 
L 102.690172 -148.105365 
L 99.381871 -136.613103 
L 96.073571 -129.584494 
L 92.765271 -117.199261 
L 89.45697 -86.327352 
L 86.14867 -44.143128 
L 82.840369 -25.82 
z
" id="m8f7dc10721" style="stroke:#f14432;stroke-opacity:0.8;"/>
    </defs>
    <g clip-path="url(#p6e550517e1)">
     <use style="fill:#f14432;fill-opacity:0.8;stroke:#f14432;stroke-opacity:0.8;" x="0" xlink:href="#m8f7dc10721" y="354.04"/>
    </g>
   </g>
   <g id="matplotlib.axis_1"/>
   <g id="matplotlib.axis_2">
    <g id="ytick_1">
     <g id="line2d_1">
      <defs>
       <path d="M 0 0 
L -3.5 0 
" id="m3d11faf3fe" style="stroke:#000000;stroke-width:0.8;"/>
      </defs>
      <g>
       <use style="stroke:#000000;stroke-width:0.8;" x="67.622187" xlink:href="#m3d11faf3fe" y="307.588025"/>
      </g>
     </g>
     <g id="text_1">
      <!-- −1.5 -->
      <defs>
       <path d="M 10.59375 35.5 
L 73.1875 35.5 
L 73.1875 27.203125 
L 10.59375 27.203125 
z
" id="DejaVuSans-2212"/>
       <path d="M 12.40625 8.296875 
L 28.515625 8.296875 
L 28.515625 63.921875 
L 10.984375 60.40625 
L 10.984375 69.390625 
L 28.421875 72.90625 
L 38.28125 72.90625 
L 38.28125 8.296875 
L 54.390625 8.296875 
L 54.390625 0 
L 12.40625 0 
z
" id="DejaVuSans-31"/>
       <path d="M 10.6875 12.40625 
L 21 12.40625 
L 21 0 
L 10.6875 0 
z
" id="DejaVuSans-2e"/>
       <path d="M 10.796875 72.90625 
L 49.515625 72.90625 
L 49.515625 64.59375 
L 19.828125 64.59375 
L 19.828125 46.734375 
Q 21.96875 47.46875 24.109375 47.828125 
Q 26.265625 48.1875 28.421875 48.1875 
Q 40.625 48.1875 47.75 41.5 
Q 54.890625 34.8125 54.890625 23.390625 
Q 54.890625 11.625 47.5625 5.09375 
Q 40.234375 -1.421875 26.90625 -1.421875 
Q 22.3125 -1.421875 17.546875 -0.640625 
Q 12.796875 0.140625 7.71875 1.703125 
L 7.71875 11.625 
Q 12.109375 9.234375 16.796875 8.0625 
Q 21.484375 6.890625 26.703125 6.890625 
Q 35.15625 6.890625 40.078125 11.328125 
Q 45.015625 15.765625 45.015625 23.390625 
Q 45.015625 31 40.078125 35.4375 
Q 35.15625 39.890625 26.703125 39.890625 
Q 22.75 39.890625 18.8125 39.015625 
Q 14.890625 38.140625 10.796875 36.28125 
z
" id="DejaVuSans-35"/>
      </defs>
      <g transform="translate(7.2 315.946306)scale(0.22 -0.22)">
       <use xlink:href="#DejaVuSans-2212"/>
       <use x="83.789062" xlink:href="#DejaVuSans-31"/>
       <use x="147.412109" xlink:href="#DejaVuSans-2e"/>
       <use x="179.199219" xlink:href="#DejaVuSans-35"/>
      </g>
     </g>
    </g>
    <g id="ytick_2">
     <g id="line2d_2">
      <g>
       <use style="stroke:#000000;stroke-width:0.8;" x="67.622187" xlink:href="#m3d11faf3fe" y="267.162633"/>
      </g>
     </g>
     <g id="text_2">
      <!-- −1.0 -->
      <defs>
       <path d="M 31.78125 66.40625 
Q 24.171875 66.40625 20.328125 58.90625 
Q 16.5 51.421875 16.5 36.375 
Q 16.5 21.390625 20.328125 13.890625 
Q 24.171875 6.390625 31.78125 6.390625 
Q 39.453125 6.390625 43.28125 13.890625 
Q 47.125 21.390625 47.125 36.375 
Q 47.125 51.421875 43.28125 58.90625 
Q 39.453125 66.40625 31.78125 66.40625 
z
M 31.78125 74.21875 
Q 44.046875 74.21875 50.515625 64.515625 
Q 56.984375 54.828125 56.984375 36.375 
Q 56.984375 17.96875 50.515625 8.265625 
Q 44.046875 -1.421875 31.78125 -1.421875 
Q 19.53125 -1.421875 13.0625 8.265625 
Q 6.59375 17.96875 6.59375 36.375 
Q 6.59375 54.828125 13.0625 64.515625 
Q 19.53125 74.21875 31.78125 74.21875 
z
" id="DejaVuSans-30"/>
      </defs>
      <g transform="translate(7.2 275.520915)scale(0.22 -0.22)">
       <use xlink:href="#DejaVuSans-2212"/>
       <use x="83.789062" xlink:href="#DejaVuSans-31"/>
       <use x="147.412109" xlink:href="#DejaVuSans-2e"/>
       <use x="179.199219" xlink:href="#DejaVuSans-30"/>
      </g>
     </g>
    </g>
    <g id="ytick_3">
     <g id="line2d_3">
      <g>
       <use style="stroke:#000000;stroke-width:0.8;" x="67.622187" xlink:href="#m3d11faf3fe" y="226.737242"/>
      </g>
     </g>
     <g id="text_3">
      <!-- −0.5 -->
      <g transform="translate(7.2 235.095523)scale(0.22 -0.22)">
       <use xlink:href="#DejaVuSans-2212"/>
       <use x="83.789062" xlink:href="#DejaVuSans-30"/>
       <use x="147.412109" xlink:href="#DejaVuSans-2e"/>
       <use x="179.199219" xlink:href="#DejaVuSans-35"/>
      </g>
     </g>
    </g>
    <g id="ytick_4">
     <g id="line2d_4">
      <g>
       <use style="stroke:#000000;stroke-width:0.8;" x="67.622187" xlink:href="#m3d11faf3fe" y="186.31185"/>
      </g>
     </g>
     <g id="text_4">
      <!-- 0.0 -->
      <g transform="translate(25.635312 194.670131)scale(0.22 -0.22)">
       <use xlink:href="#DejaVuSans-30"/>
       <use x="63.623047" xlink:href="#DejaVuSans-2e"/>
       <use x="95.410156" xlink:href="#DejaVuSans-30"/>
      </g>
     </g>
    </g>
    <g id="ytick_5">
     <g id="line2d_5">
      <g>
       <use style="stroke:#000000;stroke-width:0.8;" x="67.622187" xlink:href="#m3d11faf3fe" y="145.886458"/>
      </g>
     </g>
     <g id="text_5">
      <!-- 0.5 -->
      <g transform="translate(25.635312 154.244739)scale(0.22 -0.22)">
       <use xlink:href="#DejaVuSans-30"/>
       <use x="63.623047" xlink:href="#DejaVuSans-2e"/>
       <use x="95.410156" xlink:href="#DejaVuSans-35"/>
      </g>
     </g>
    </g>
    <g id="ytick_6">
     <g id="line2d_6">
      <g>
       <use style="stroke:#000000;stroke-width:0.8;" x="67.622187" xlink:href="#m3d11faf3fe" y="105.461067"/>
      </g>
     </g>
     <g id="text_6">
      <!-- 1.0 -->
      <g transform="translate(25.635312 113.819348)scale(0.22 -0.22)">
       <use xlink:href="#DejaVuSans-31"/>
       <use x="63.623047" xlink:href="#DejaVuSans-2e"/>
       <use x="95.410156" xlink:href="#DejaVuSans-30"/>
      </g>
     </g>
    </g>
    <g id="ytick_7">
     <g id="line2d_7">
      <g>
       <use style="stroke:#000000;stroke-width:0.8;" x="67.622187" xlink:href="#m3d11faf3fe" y="65.035675"/>
      </g>
     </g>
     <g id="text_7">
      <!-- 1.5 -->
      <g transform="translate(25.635312 73.393956)scale(0.22 -0.22)">
       <use xlink:href="#DejaVuSans-31"/>
       <use x="63.623047" xlink:href="#DejaVuSans-2e"/>
       <use x="95.410156" xlink:href="#DejaVuSans-35"/>
      </g>
     </g>
    </g>
    <g id="ytick_8">
     <g id="line2d_8">
      <g>
       <use style="stroke:#000000;stroke-width:0.8;" x="67.622187" xlink:href="#m3d11faf3fe" y="24.610283"/>
      </g>
     </g>
     <g id="text_8">
      <!-- 2.0 -->
      <defs>
       <path d="M 19.1875 8.296875 
L 53.609375 8.296875 
L 53.609375 0 
L 7.328125 0 
L 7.328125 8.296875 
Q 12.9375 14.109375 22.625 23.890625 
Q 32.328125 33.6875 34.8125 36.53125 
Q 39.546875 41.84375 41.421875 45.53125 
Q 43.3125 49.21875 43.3125 52.78125 
Q 43.3125 58.59375 39.234375 62.25 
Q 35.15625 65.921875 28.609375 65.921875 
Q 23.96875 65.921875 18.8125 64.3125 
Q 13.671875 62.703125 7.8125 59.421875 
L 7.8125 69.390625 
Q 13.765625 71.78125 18.9375 73 
Q 24.125 74.21875 28.421875 74.21875 
Q 39.75 74.21875 46.484375 68.546875 
Q 53.21875 62.890625 53.21875 53.421875 
Q 53.21875 48.921875 51.53125 44.890625 
Q 49.859375 40.875 45.40625 35.40625 
Q 44.1875 33.984375 37.640625 27.21875 
Q 31.109375 20.453125 19.1875 8.296875 
z
" id="DejaVuSans-32"/>
      </defs>
      <g transform="translate(25.635312 32.968564)scale(0.22 -0.22)">
       <use xlink:href="#DejaVuSans-32"/>
       <use x="63.623047" xlink:href="#DejaVuSans-2e"/>
       <use x="95.410156" xlink:href="#DejaVuSans-30"/>
      </g>
     </g>
    </g>
   </g>
   <g id="patch_3">
    <path d="M 67.622187 343.34 
L 67.622187 10.7 
" style="fill:none;stroke:#000000;stroke-linecap:square;stroke-linejoin:miter;stroke-width:0.8;"/>
   </g>
   <g id="patch_4">
    <path d="M 402.422188 343.34 
L 402.422188 10.7 
" style="fill:none;stroke:#000000;stroke-linecap:square;stroke-linejoin:miter;stroke-width:0.8;"/>
   </g>
   <g id="patch_5">
    <path d="M 67.622187 343.34 
L 402.422188 343.34 
" style="fill:none;stroke:#000000;stroke-linecap:square;stroke-linejoin:miter;stroke-width:0.8;"/>
   </g>
   <g id="patch_6">
    <path d="M 67.622187 10.7 
L 402.422188 10.7 
" style="fill:none;stroke:#000000;stroke-linecap:square;stroke-linejoin:miter;stroke-width:0.8;"/>
   </g>
  </g>
 </g>
 <defs>
  <clipPath id="p6e550517e1">
   <rect height="332.64" width="334.8" x="67.622187" y="10.7"/>
  </clipPath>
 </defs>
</svg>
