<?xml version="1.0" encoding="utf-8" standalone="no"?>
<!DOCTYPE svg PUBLIC "-//W3C//DTD SVG 1.1//EN"
  "http://www.w3.org/Graphics/SVG/1.1/DTD/svg11.dtd">
<!-- Created with matplotlib (http://matplotlib.org/) -->
<svg height="363pt" version="1.1" viewBox="0 0 406 363" width="406pt" xmlns="http://www.w3.org/2000/svg" xmlns:xlink="http://www.w3.org/1999/xlink">
 <defs>
  <style type="text/css">
*{stroke-linecap:butt;stroke-linejoin:round;}
  </style>
 </defs>
 <g id="figure_1">
  <g id="patch_1">
   <path d="M 0 363.25852 
L 406.130312 363.25852 
L 406.130312 0 
L 0 0 
z
" style="fill:#ffffff;"/>
  </g>
  <g id="axes_1">
   <g id="patch_2">
    <path d="M 60.630313 343.34 
L 395.430313 343.34 
L 395.430313 10.7 
L 60.630313 10.7 
z
" style="fill:#ffffff;"/>
   </g>
   <g id="PolyCollection_1">
    <defs>
     <path d="M 75.848494 -142.880088 
L 75.848494 -147.286373 
L 79.156795 -147.286373 
L 82.465095 -147.286373 
L 85.773396 -147.286373 
L 89.081696 -147.286373 
L 92.389996 -147.286373 
L 95.698297 -147.286373 
L 99.006597 -147.286373 
L 102.314897 -147.286373 
L 105.623198 -147.286373 
L 108.931498 -147.286373 
L 112.239799 -147.286373 
L 115.548099 -147.286373 
L 118.856399 -147.286373 
L 122.1647 -147.286373 
L 125.473 -147.286373 
L 128.781301 -147.286373 
L 132.089601 -147.286373 
L 135.397901 -147.286373 
L 138.706202 -147.286373 
L 142.014502 -147.286373 
L 145.322803 -147.286373 
L 148.631103 -147.286373 
L 151.939403 -147.286373 
L 155.247704 -147.286373 
L 158.556004 -147.286373 
L 161.864305 -147.286373 
L 165.172605 -147.286373 
L 168.480905 -147.286373 
L 171.789206 -147.286373 
L 175.097506 -147.286373 
L 178.405807 -147.286373 
L 181.714107 -147.286373 
L 185.022407 -147.286373 
L 188.330708 -147.286373 
L 191.639008 -147.286373 
L 194.947309 -147.286373 
L 198.255609 -147.286373 
L 201.563909 -147.286373 
L 204.87221 -147.286373 
L 208.18051 -147.286373 
L 211.488811 -147.286373 
L 214.797111 -147.286373 
L 218.105411 -147.286373 
L 221.413712 -147.286373 
L 224.722012 -147.286373 
L 228.030313 -147.286373 
L 231.338613 -147.286373 
L 234.646913 -147.286373 
L 237.955214 -147.286373 
L 241.263514 -147.286373 
L 244.571814 -147.286373 
L 247.880115 -147.286373 
L 251.188415 -147.286373 
L 254.496716 -147.286373 
L 257.805016 -147.286373 
L 261.113316 -147.286373 
L 264.421617 -147.286373 
L 267.729917 -147.286373 
L 271.038218 -147.286373 
L 274.346518 -147.286373 
L 277.654818 -147.286373 
L 280.963119 -147.286373 
L 284.271419 -147.286373 
L 287.57972 -147.286373 
L 290.88802 -147.286373 
L 294.19632 -147.286373 
L 297.504621 -147.286373 
L 300.812921 -147.286373 
L 304.121222 -147.286373 
L 307.429522 -147.286373 
L 310.737822 -147.286373 
L 314.046123 -147.286373 
L 317.354423 -147.286373 
L 320.662724 -147.286373 
L 323.971024 -147.286373 
L 327.279324 -147.286373 
L 330.587625 -147.286373 
L 333.895925 -147.286373 
L 337.204226 -147.286373 
L 340.512526 -147.286373 
L 343.820826 -147.286373 
L 347.129127 -147.286373 
L 350.437427 -147.286373 
L 353.745728 -147.286373 
L 357.054028 -147.286373 
L 360.362328 -147.286373 
L 363.670629 -147.286373 
L 366.978929 -147.286373 
L 370.287229 -147.286373 
L 373.59553 -147.286373 
L 376.90383 -147.286373 
L 380.212131 -147.286373 
L 380.212131 -153.028408 
L 380.212131 -153.028408 
L 376.90383 -152.819052 
L 373.59553 -152.111899 
L 370.287229 -150.886768 
L 366.978929 -150.325836 
L 363.670629 -149.863728 
L 360.362328 -149.502778 
L 357.054028 -149.356734 
L 353.745728 -149.279526 
L 350.437427 -149.26985 
L 347.129127 -148.96322 
L 343.820826 -148.660065 
L 340.512526 -148.624136 
L 337.204226 -148.429363 
L 333.895925 -148.404493 
L 330.587625 -148.363382 
L 327.279324 -148.186557 
L 323.971024 -148.143936 
L 320.662724 -148.061587 
L 317.354423 -148.019312 
L 314.046123 -147.771711 
L 310.737822 -147.708875 
L 307.429522 -147.689599 
L 304.121222 -147.584774 
L 300.812921 -147.552788 
L 297.504621 -147.497602 
L 294.19632 -147.480477 
L 290.88802 -147.478405 
L 287.57972 -147.446414 
L 284.271419 -147.408325 
L 280.963119 -147.400595 
L 277.654818 -147.398959 
L 274.346518 -147.383924 
L 271.038218 -147.381476 
L 267.729917 -147.376079 
L 264.421617 -147.375437 
L 261.113316 -147.35911 
L 257.805016 -147.337787 
L 254.496716 -147.330076 
L 251.188415 -147.327243 
L 247.880115 -147.319981 
L 244.571814 -147.319738 
L 241.263514 -147.317742 
L 237.955214 -147.313132 
L 234.646913 -147.310696 
L 231.338613 -147.310534 
L 228.030313 -147.309896 
L 224.722012 -147.305203 
L 221.413712 -147.302194 
L 218.105411 -147.295181 
L 214.797111 -147.29316 
L 211.488811 -147.292752 
L 208.18051 -147.292409 
L 204.87221 -147.292353 
L 201.563909 -147.290392 
L 198.255609 -147.288544 
L 194.947309 -147.285029 
L 191.639008 -147.283687 
L 188.330708 -147.282378 
L 185.022407 -147.276472 
L 181.714107 -147.270974 
L 178.405807 -147.26366 
L 175.097506 -147.263356 
L 171.789206 -147.256993 
L 168.480905 -147.255291 
L 165.172605 -147.253479 
L 161.864305 -147.250662 
L 158.556004 -147.250395 
L 155.247704 -147.244578 
L 151.939403 -147.244362 
L 148.631103 -147.238527 
L 145.322803 -147.172044 
L 142.014502 -147.142564 
L 138.706202 -147.029368 
L 135.397901 -146.987159 
L 132.089601 -146.984884 
L 128.781301 -146.975948 
L 125.473 -146.965712 
L 122.1647 -146.950016 
L 118.856399 -146.919757 
L 115.548099 -146.874883 
L 112.239799 -146.116888 
L 108.931498 -146.001189 
L 105.623198 -145.994593 
L 102.314897 -145.920274 
L 99.006597 -145.918827 
L 95.698297 -145.653662 
L 92.389996 -145.507314 
L 89.081696 -145.481855 
L 85.773396 -145.278153 
L 82.465095 -145.173413 
L 79.156795 -144.15805 
L 75.848494 -142.880088 
z
" id="m371efcc82e" style="stroke:#4a98c9;"/>
    </defs>
    <g clip-path="url(#p3df84c6a60)">
     <use style="fill:#4a98c9;stroke:#4a98c9;" x="0" xlink:href="#m371efcc82e" y="363.25852"/>
    </g>
   </g>
   <g id="PolyCollection_2">
    <defs>
     <path d="M 75.848494 -35.03852 
L 75.848494 -147.286373 
L 79.156795 -147.286373 
L 82.465095 -147.286373 
L 85.773396 -147.286373 
L 89.081696 -147.286373 
L 92.389996 -147.286373 
L 95.698297 -147.286373 
L 99.006597 -147.286373 
L 102.314897 -147.286373 
L 105.623198 -147.286373 
L 108.931498 -147.286373 
L 112.239799 -147.286373 
L 115.548099 -147.286373 
L 118.856399 -147.286373 
L 122.1647 -147.286373 
L 125.473 -147.286373 
L 128.781301 -147.286373 
L 132.089601 -147.286373 
L 135.397901 -147.286373 
L 138.706202 -147.286373 
L 142.014502 -147.286373 
L 145.322803 -147.286373 
L 148.631103 -147.286373 
L 151.939403 -147.286373 
L 155.247704 -147.286373 
L 158.556004 -147.286373 
L 161.864305 -147.286373 
L 165.172605 -147.286373 
L 168.480905 -147.286373 
L 171.789206 -147.286373 
L 175.097506 -147.286373 
L 178.405807 -147.286373 
L 181.714107 -147.286373 
L 185.022407 -147.286373 
L 188.330708 -147.286373 
L 191.639008 -147.286373 
L 194.947309 -147.286373 
L 198.255609 -147.286373 
L 201.563909 -147.286373 
L 204.87221 -147.286373 
L 208.18051 -147.286373 
L 211.488811 -147.286373 
L 214.797111 -147.286373 
L 218.105411 -147.286373 
L 221.413712 -147.286373 
L 224.722012 -147.286373 
L 228.030313 -147.286373 
L 231.338613 -147.286373 
L 234.646913 -147.286373 
L 237.955214 -147.286373 
L 241.263514 -147.286373 
L 244.571814 -147.286373 
L 247.880115 -147.286373 
L 251.188415 -147.286373 
L 254.496716 -147.286373 
L 257.805016 -147.286373 
L 261.113316 -147.286373 
L 264.421617 -147.286373 
L 267.729917 -147.286373 
L 271.038218 -147.286373 
L 274.346518 -147.286373 
L 277.654818 -147.286373 
L 280.963119 -147.286373 
L 284.271419 -147.286373 
L 287.57972 -147.286373 
L 290.88802 -147.286373 
L 294.19632 -147.286373 
L 297.504621 -147.286373 
L 300.812921 -147.286373 
L 304.121222 -147.286373 
L 307.429522 -147.286373 
L 310.737822 -147.286373 
L 314.046123 -147.286373 
L 317.354423 -147.286373 
L 320.662724 -147.286373 
L 323.971024 -147.286373 
L 327.279324 -147.286373 
L 330.587625 -147.286373 
L 333.895925 -147.286373 
L 337.204226 -147.286373 
L 340.512526 -147.286373 
L 343.820826 -147.286373 
L 347.129127 -147.286373 
L 350.437427 -147.286373 
L 353.745728 -147.286373 
L 357.054028 -147.286373 
L 360.362328 -147.286373 
L 363.670629 -147.286373 
L 366.978929 -147.286373 
L 370.287229 -147.286373 
L 373.59553 -147.286373 
L 376.90383 -147.286373 
L 380.212131 -147.286373 
L 380.212131 -337.43852 
L 380.212131 -337.43852 
L 376.90383 -267.025471 
L 373.59553 -259.652247 
L 370.287229 -257.870765 
L 366.978929 -251.793332 
L 363.670629 -250.865234 
L 360.362328 -240.05645 
L 357.054028 -225.415325 
L 353.745728 -225.329536 
L 350.437427 -217.504547 
L 347.129127 -214.686035 
L 343.820826 -213.629316 
L 340.512526 -206.311635 
L 337.204226 -201.781808 
L 333.895925 -198.440685 
L 330.587625 -192.247793 
L 327.279324 -189.495685 
L 323.971024 -188.058701 
L 320.662724 -185.806577 
L 317.354423 -183.741074 
L 314.046123 -182.246505 
L 310.737822 -181.868676 
L 307.429522 -177.087005 
L 304.121222 -173.76518 
L 300.812921 -173.570337 
L 297.504621 -171.335468 
L 294.19632 -169.940167 
L 290.88802 -165.513164 
L 287.57972 -163.982497 
L 284.271419 -157.303523 
L 280.963119 -157.155139 
L 277.654818 -156.477008 
L 274.346518 -153.07891 
L 271.038218 -152.991266 
L 267.729917 -151.729598 
L 264.421617 -150.86093 
L 261.113316 -148.035811 
L 257.805016 -147.762747 
L 254.496716 -147.697913 
L 251.188415 -147.638218 
L 247.880115 -147.631288 
L 244.571814 -147.607082 
L 241.263514 -147.583347 
L 237.955214 -147.554625 
L 234.646913 -147.537566 
L 231.338613 -147.512248 
L 228.030313 -147.495759 
L 224.722012 -147.479879 
L 221.413712 -147.477813 
L 218.105411 -147.416055 
L 214.797111 -147.395238 
L 211.488811 -147.391183 
L 208.18051 -147.388515 
L 204.87221 -147.3262 
L 201.563909 -147.322854 
L 198.255609 -147.319609 
L 194.947309 -147.318325 
L 191.639008 -147.317241 
L 188.330708 -147.293199 
L 185.022407 -147.289135 
L 181.714107 -147.270261 
L 178.405807 -147.265865 
L 175.097506 -147.265077 
L 171.789206 -147.263598 
L 168.480905 -147.258122 
L 165.172605 -147.244813 
L 161.864305 -147.240092 
L 158.556004 -147.22536 
L 155.247704 -147.224879 
L 151.939403 -147.217669 
L 148.631103 -147.19194 
L 145.322803 -147.178608 
L 142.014502 -147.17044 
L 138.706202 -147.048551 
L 135.397901 -146.976319 
L 132.089601 -146.962565 
L 128.781301 -146.910455 
L 125.473 -146.708335 
L 122.1647 -141.833285 
L 118.856399 -140.538917 
L 115.548099 -137.784824 
L 112.239799 -134.49121 
L 108.931498 -128.069984 
L 105.623198 -125.507682 
L 102.314897 -124.993951 
L 99.006597 -120.919167 
L 95.698297 -109.974661 
L 92.389996 -109.748324 
L 89.081696 -100.848719 
L 85.773396 -95.121958 
L 82.465095 -87.353831 
L 79.156795 -64.806298 
L 75.848494 -35.03852 
z
" id="mbe019c66ac" style="stroke:#f14432;stroke-opacity:0.8;"/>
    </defs>
    <g clip-path="url(#p3df84c6a60)">
     <use style="fill:#f14432;fill-opacity:0.8;stroke:#f14432;stroke-opacity:0.8;" x="0" xlink:href="#mbe019c66ac" y="363.25852"/>
    </g>
   </g>
   <g id="matplotlib.axis_1"/>
   <g id="matplotlib.axis_2">
    <g id="ytick_1">
     <g id="line2d_1">
      <defs>
       <path d="M 0 0 
L -3.5 0 
" id="mf70c116343" style="stroke:#000000;stroke-width:0.8;"/>
      </defs>
      <g>
       <use style="stroke:#000000;stroke-width:0.8;" x="60.630313" xlink:href="#mf70c116343" y="343.124926"/>
      </g>
     </g>
     <g id="text_1">
      <!-- −10 -->
      <defs>
       <path d="M 10.59375 35.5 
L 73.1875 35.5 
L 73.1875 27.203125 
L 10.59375 27.203125 
z
" id="DejaVuSans-2212"/>
       <path d="M 12.40625 8.296875 
L 28.515625 8.296875 
L 28.515625 63.921875 
L 10.984375 60.40625 
L 10.984375 69.390625 
L 28.421875 72.90625 
L 38.28125 72.90625 
L 38.28125 8.296875 
L 54.390625 8.296875 
L 54.390625 0 
L 12.40625 0 
z
" id="DejaVuSans-31"/>
       <path d="M 31.78125 66.40625 
Q 24.171875 66.40625 20.328125 58.90625 
Q 16.5 51.421875 16.5 36.375 
Q 16.5 21.390625 20.328125 13.890625 
Q 24.171875 6.390625 31.78125 6.390625 
Q 39.453125 6.390625 43.28125 13.890625 
Q 47.125 21.390625 47.125 36.375 
Q 47.125 51.421875 43.28125 58.90625 
Q 39.453125 66.40625 31.78125 66.40625 
z
M 31.78125 74.21875 
Q 44.046875 74.21875 50.515625 64.515625 
Q 56.984375 54.828125 56.984375 36.375 
Q 56.984375 17.96875 50.515625 8.265625 
Q 44.046875 -1.421875 31.78125 -1.421875 
Q 19.53125 -1.421875 13.0625 8.265625 
Q 6.59375 17.96875 6.59375 36.375 
Q 6.59375 54.828125 13.0625 64.515625 
Q 19.53125 74.21875 31.78125 74.21875 
z
" id="DejaVuSans-30"/>
      </defs>
      <g transform="translate(7.2 351.483208)scale(0.22 -0.22)">
       <use xlink:href="#DejaVuSans-2212"/>
       <use x="83.789062" xlink:href="#DejaVuSans-31"/>
       <use x="147.412109" xlink:href="#DejaVuSans-30"/>
      </g>
     </g>
    </g>
    <g id="ytick_2">
     <g id="line2d_2">
      <g>
       <use style="stroke:#000000;stroke-width:0.8;" x="60.630313" xlink:href="#mf70c116343" y="279.548537"/>
      </g>
     </g>
     <g id="text_2">
      <!-- −5 -->
      <defs>
       <path d="M 10.796875 72.90625 
L 49.515625 72.90625 
L 49.515625 64.59375 
L 19.828125 64.59375 
L 19.828125 46.734375 
Q 21.96875 47.46875 24.109375 47.828125 
Q 26.265625 48.1875 28.421875 48.1875 
Q 40.625 48.1875 47.75 41.5 
Q 54.890625 34.8125 54.890625 23.390625 
Q 54.890625 11.625 47.5625 5.09375 
Q 40.234375 -1.421875 26.90625 -1.421875 
Q 22.3125 -1.421875 17.546875 -0.640625 
Q 12.796875 0.140625 7.71875 1.703125 
L 7.71875 11.625 
Q 12.109375 9.234375 16.796875 8.0625 
Q 21.484375 6.890625 26.703125 6.890625 
Q 35.15625 6.890625 40.078125 11.328125 
Q 45.015625 15.765625 45.015625 23.390625 
Q 45.015625 31 40.078125 35.4375 
Q 35.15625 39.890625 26.703125 39.890625 
Q 22.75 39.890625 18.8125 39.015625 
Q 14.890625 38.140625 10.796875 36.28125 
z
" id="DejaVuSans-35"/>
      </defs>
      <g transform="translate(21.1975 287.906818)scale(0.22 -0.22)">
       <use xlink:href="#DejaVuSans-2212"/>
       <use x="83.789062" xlink:href="#DejaVuSans-35"/>
      </g>
     </g>
    </g>
    <g id="ytick_3">
     <g id="line2d_3">
      <g>
       <use style="stroke:#000000;stroke-width:0.8;" x="60.630313" xlink:href="#mf70c116343" y="215.972147"/>
      </g>
     </g>
     <g id="text_3">
      <!-- 0 -->
      <g transform="translate(39.632812 224.330428)scale(0.22 -0.22)">
       <use xlink:href="#DejaVuSans-30"/>
      </g>
     </g>
    </g>
    <g id="ytick_4">
     <g id="line2d_4">
      <g>
       <use style="stroke:#000000;stroke-width:0.8;" x="60.630313" xlink:href="#mf70c116343" y="152.395757"/>
      </g>
     </g>
     <g id="text_4">
      <!-- 5 -->
      <g transform="translate(39.632812 160.754038)scale(0.22 -0.22)">
       <use xlink:href="#DejaVuSans-35"/>
      </g>
     </g>
    </g>
    <g id="ytick_5">
     <g id="line2d_5">
      <g>
       <use style="stroke:#000000;stroke-width:0.8;" x="60.630313" xlink:href="#mf70c116343" y="88.819367"/>
      </g>
     </g>
     <g id="text_5">
      <!-- 10 -->
      <g transform="translate(25.635313 97.177649)scale(0.22 -0.22)">
       <use xlink:href="#DejaVuSans-31"/>
       <use x="63.623047" xlink:href="#DejaVuSans-30"/>
      </g>
     </g>
    </g>
    <g id="ytick_6">
     <g id="line2d_6">
      <g>
       <use style="stroke:#000000;stroke-width:0.8;" x="60.630313" xlink:href="#mf70c116343" y="25.242978"/>
      </g>
     </g>
     <g id="text_6">
      <!-- 15 -->
      <g transform="translate(25.635313 33.601259)scale(0.22 -0.22)">
       <use xlink:href="#DejaVuSans-31"/>
       <use x="63.623047" xlink:href="#DejaVuSans-35"/>
      </g>
     </g>
    </g>
   </g>
   <g id="patch_3">
    <path d="M 60.630313 343.34 
L 60.630313 10.7 
" style="fill:none;stroke:#000000;stroke-linecap:square;stroke-linejoin:miter;stroke-width:0.8;"/>
   </g>
   <g id="patch_4">
    <path d="M 395.430313 343.34 
L 395.430313 10.7 
" style="fill:none;stroke:#000000;stroke-linecap:square;stroke-linejoin:miter;stroke-width:0.8;"/>
   </g>
   <g id="patch_5">
    <path d="M 60.630312 343.34 
L 395.430313 343.34 
" style="fill:none;stroke:#000000;stroke-linecap:square;stroke-linejoin:miter;stroke-width:0.8;"/>
   </g>
   <g id="patch_6">
    <path d="M 60.630312 10.7 
L 395.430313 10.7 
" style="fill:none;stroke:#000000;stroke-linecap:square;stroke-linejoin:miter;stroke-width:0.8;"/>
   </g>
  </g>
 </g>
 <defs>
  <clipPath id="p3df84c6a60">
   <rect height="332.64" width="334.8" x="60.630313" y="10.7"/>
  </clipPath>
 </defs>
</svg>
