<?xml version="1.0" encoding="utf-8" standalone="no"?>
<!DOCTYPE svg PUBLIC "-//W3C//DTD SVG 1.1//EN"
  "http://www.w3.org/Graphics/SVG/1.1/DTD/svg11.dtd">
<!-- Created with matplotlib (http://matplotlib.org/) -->
<svg height="354pt" version="1.1" viewBox="0 0 427 354" width="427pt" xmlns="http://www.w3.org/2000/svg" xmlns:xlink="http://www.w3.org/1999/xlink">
 <defs>
  <style type="text/css">
*{stroke-linecap:butt;stroke-linejoin:round;}
  </style>
 </defs>
 <g id="figure_1">
  <g id="patch_1">
   <path d="M 0 354.04 
L 427.119687 354.04 
L 427.119687 0 
L 0 0 
z
" style="fill:#ffffff;"/>
  </g>
  <g id="axes_1">
   <g id="patch_2">
    <path d="M 81.619687 343.34 
L 416.419688 343.34 
L 416.419688 10.7 
L 81.619687 10.7 
z
" style="fill:#ffffff;"/>
   </g>
   <g id="PolyCollection_1">
    <defs>
     <path d="M 96.837869 -25.82 
L 96.837869 -165.139871 
L 100.14617 -165.139871 
L 103.45447 -165.139871 
L 106.762771 -165.139871 
L 110.071071 -165.139871 
L 113.379371 -165.139871 
L 116.687672 -165.139871 
L 119.995972 -165.139871 
L 123.304272 -165.139871 
L 126.612573 -165.139871 
L 129.920873 -165.139871 
L 133.229174 -165.139871 
L 136.537474 -165.139871 
L 139.845774 -165.139871 
L 143.154075 -165.139871 
L 146.462375 -165.139871 
L 149.770676 -165.139871 
L 153.078976 -165.139871 
L 156.387276 -165.139871 
L 159.695577 -165.139871 
L 163.003877 -165.139871 
L 166.312178 -165.139871 
L 169.620478 -165.139871 
L 172.928778 -165.139871 
L 176.237079 -165.139871 
L 179.545379 -165.139871 
L 182.85368 -165.139871 
L 186.16198 -165.139871 
L 189.47028 -165.139871 
L 192.778581 -165.139871 
L 196.086881 -165.139871 
L 199.395182 -165.139871 
L 202.703482 -165.139871 
L 206.011782 -165.139871 
L 209.320083 -165.139871 
L 212.628383 -165.139871 
L 215.936684 -165.139871 
L 219.244984 -165.139871 
L 222.553284 -165.139871 
L 225.861585 -165.139871 
L 229.169885 -165.139871 
L 232.478186 -165.139871 
L 235.786486 -165.139871 
L 239.094786 -165.139871 
L 242.403087 -165.139871 
L 245.711387 -165.139871 
L 249.019688 -165.139871 
L 252.327988 -165.139871 
L 255.636288 -165.139871 
L 258.944589 -165.139871 
L 262.252889 -165.139871 
L 265.561189 -165.139871 
L 268.86949 -165.139871 
L 272.17779 -165.139871 
L 275.486091 -165.139871 
L 278.794391 -165.139871 
L 282.102691 -165.139871 
L 285.410992 -165.139871 
L 288.719292 -165.139871 
L 292.027593 -165.139871 
L 295.335893 -165.139871 
L 298.644193 -165.139871 
L 301.952494 -165.139871 
L 305.260794 -165.139871 
L 308.569095 -165.139871 
L 311.877395 -165.139871 
L 315.185695 -165.139871 
L 318.493996 -165.139871 
L 321.802296 -165.139871 
L 325.110597 -165.139871 
L 328.418897 -165.139871 
L 331.727197 -165.139871 
L 335.035498 -165.139871 
L 338.343798 -165.139871 
L 341.652099 -165.139871 
L 344.960399 -165.139871 
L 348.268699 -165.139871 
L 351.577 -165.139871 
L 354.8853 -165.139871 
L 358.193601 -165.139871 
L 361.501901 -165.139871 
L 364.810201 -165.139871 
L 368.118502 -165.139871 
L 371.426802 -165.139871 
L 374.735103 -165.139871 
L 378.043403 -165.139871 
L 381.351703 -165.139871 
L 384.660004 -165.139871 
L 387.968304 -165.139871 
L 391.276604 -165.139871 
L 394.584905 -165.139871 
L 397.893205 -165.139871 
L 401.201506 -165.139871 
L 401.201506 -328.22 
L 401.201506 -328.22 
L 397.893205 -306.206131 
L 394.584905 -302.184612 
L 391.276604 -277.954264 
L 387.968304 -277.366173 
L 384.660004 -259.857017 
L 381.351703 -245.53667 
L 378.043403 -241.542513 
L 374.735103 -238.980032 
L 371.426802 -232.68483 
L 368.118502 -217.163032 
L 364.810201 -217.009203 
L 361.501901 -213.054628 
L 358.193601 -206.816917 
L 354.8853 -206.777702 
L 351.577 -203.013734 
L 348.268699 -202.942762 
L 344.960399 -202.893279 
L 341.652099 -198.986261 
L 338.343798 -197.61489 
L 335.035498 -197.13192 
L 331.727197 -195.148629 
L 328.418897 -193.334212 
L 325.110597 -193.045342 
L 321.802296 -189.391714 
L 318.493996 -188.827111 
L 315.185695 -186.885937 
L 311.877395 -177.451192 
L 308.569095 -177.235305 
L 305.260794 -175.958102 
L 301.952494 -175.829735 
L 298.644193 -172.231713 
L 295.335893 -169.756023 
L 292.027593 -168.338875 
L 288.719292 -165.932069 
L 285.410992 -165.853085 
L 282.102691 -165.807692 
L 278.794391 -165.717109 
L 275.486091 -165.671713 
L 272.17779 -165.657057 
L 268.86949 -165.611464 
L 265.561189 -165.546901 
L 262.252889 -165.474911 
L 258.944589 -165.35801 
L 255.636288 -165.254535 
L 252.327988 -165.248769 
L 249.019688 -165.222687 
L 245.711387 -165.187099 
L 242.403087 -165.168033 
L 239.094786 -165.114629 
L 235.786486 -165.089617 
L 232.478186 -165.085836 
L 229.169885 -165.038644 
L 225.861585 -164.993009 
L 222.553284 -164.978078 
L 219.244984 -164.977838 
L 215.936684 -164.97643 
L 212.628383 -164.94676 
L 209.320083 -164.943954 
L 206.011782 -164.940723 
L 202.703482 -164.918165 
L 199.395182 -164.915199 
L 196.086881 -164.911363 
L 192.778581 -164.829938 
L 189.47028 -164.777359 
L 186.16198 -164.768251 
L 182.85368 -164.483356 
L 179.545379 -164.446091 
L 176.237079 -164.359273 
L 172.928778 -164.320687 
L 169.620478 -164.121069 
L 166.312178 -164.102184 
L 163.003877 -163.990198 
L 159.695577 -163.838283 
L 156.387276 -163.186073 
L 153.078976 -162.918614 
L 149.770676 -162.409865 
L 146.462375 -161.553467 
L 143.154075 -158.319789 
L 139.845774 -157.838955 
L 136.537474 -149.323647 
L 133.229174 -147.178495 
L 129.920873 -144.766401 
L 126.612573 -140.858627 
L 123.304272 -136.1233 
L 119.995972 -133.69673 
L 116.687672 -129.282 
L 113.379371 -123.807327 
L 110.071071 -101.797821 
L 106.762771 -69.33505 
L 103.45447 -50.263456 
L 100.14617 -48.647455 
L 96.837869 -25.82 
z
" id="m67b2245ec1" style="stroke:#4a98c9;"/>
    </defs>
    <g clip-path="url(#pa810f94ab7)">
     <use style="fill:#4a98c9;stroke:#4a98c9;" x="0" xlink:href="#m67b2245ec1" y="354.04"/>
    </g>
   </g>
   <g id="PolyCollection_2">
    <defs>
     <path d="M 96.837869 -97.526321 
L 96.837869 -165.139871 
L 100.14617 -165.139871 
L 103.45447 -165.139871 
L 106.762771 -165.139871 
L 110.071071 -165.139871 
L 113.379371 -165.139871 
L 116.687672 -165.139871 
L 119.995972 -165.139871 
L 123.304272 -165.139871 
L 126.612573 -165.139871 
L 129.920873 -165.139871 
L 133.229174 -165.139871 
L 136.537474 -165.139871 
L 139.845774 -165.139871 
L 143.154075 -165.139871 
L 146.462375 -165.139871 
L 149.770676 -165.139871 
L 153.078976 -165.139871 
L 156.387276 -165.139871 
L 159.695577 -165.139871 
L 163.003877 -165.139871 
L 166.312178 -165.139871 
L 169.620478 -165.139871 
L 172.928778 -165.139871 
L 176.237079 -165.139871 
L 179.545379 -165.139871 
L 182.85368 -165.139871 
L 186.16198 -165.139871 
L 189.47028 -165.139871 
L 192.778581 -165.139871 
L 196.086881 -165.139871 
L 199.395182 -165.139871 
L 202.703482 -165.139871 
L 206.011782 -165.139871 
L 209.320083 -165.139871 
L 212.628383 -165.139871 
L 215.936684 -165.139871 
L 219.244984 -165.139871 
L 222.553284 -165.139871 
L 225.861585 -165.139871 
L 229.169885 -165.139871 
L 232.478186 -165.139871 
L 235.786486 -165.139871 
L 239.094786 -165.139871 
L 242.403087 -165.139871 
L 245.711387 -165.139871 
L 249.019688 -165.139871 
L 252.327988 -165.139871 
L 255.636288 -165.139871 
L 258.944589 -165.139871 
L 262.252889 -165.139871 
L 265.561189 -165.139871 
L 268.86949 -165.139871 
L 272.17779 -165.139871 
L 275.486091 -165.139871 
L 278.794391 -165.139871 
L 282.102691 -165.139871 
L 285.410992 -165.139871 
L 288.719292 -165.139871 
L 292.027593 -165.139871 
L 295.335893 -165.139871 
L 298.644193 -165.139871 
L 301.952494 -165.139871 
L 305.260794 -165.139871 
L 308.569095 -165.139871 
L 311.877395 -165.139871 
L 315.185695 -165.139871 
L 318.493996 -165.139871 
L 321.802296 -165.139871 
L 325.110597 -165.139871 
L 328.418897 -165.139871 
L 331.727197 -165.139871 
L 335.035498 -165.139871 
L 338.343798 -165.139871 
L 341.652099 -165.139871 
L 344.960399 -165.139871 
L 348.268699 -165.139871 
L 351.577 -165.139871 
L 354.8853 -165.139871 
L 358.193601 -165.139871 
L 361.501901 -165.139871 
L 364.810201 -165.139871 
L 368.118502 -165.139871 
L 371.426802 -165.139871 
L 374.735103 -165.139871 
L 378.043403 -165.139871 
L 381.351703 -165.139871 
L 384.660004 -165.139871 
L 387.968304 -165.139871 
L 391.276604 -165.139871 
L 394.584905 -165.139871 
L 397.893205 -165.139871 
L 401.201506 -165.139871 
L 401.201506 -231.281964 
L 401.201506 -231.281964 
L 397.893205 -227.571623 
L 394.584905 -219.547395 
L 391.276604 -218.856395 
L 387.968304 -209.897529 
L 384.660004 -206.630736 
L 381.351703 -197.902553 
L 378.043403 -196.244015 
L 374.735103 -195.295662 
L 371.426802 -193.94895 
L 368.118502 -191.467972 
L 364.810201 -189.458708 
L 361.501901 -188.641661 
L 358.193601 -186.986623 
L 354.8853 -186.771157 
L 351.577 -186.208675 
L 348.268699 -185.562758 
L 344.960399 -184.761858 
L 341.652099 -182.080933 
L 338.343798 -177.941693 
L 335.035498 -177.422958 
L 331.727197 -177.420963 
L 328.418897 -176.423324 
L 325.110597 -175.741529 
L 321.802296 -175.188581 
L 318.493996 -174.160482 
L 315.185695 -173.874488 
L 311.877395 -171.836317 
L 308.569095 -169.252726 
L 305.260794 -169.083181 
L 301.952494 -168.471115 
L 298.644193 -168.097043 
L 295.335893 -167.871245 
L 292.027593 -167.739145 
L 288.719292 -166.498258 
L 285.410992 -166.139548 
L 282.102691 -166.091324 
L 278.794391 -166.072645 
L 275.486091 -165.934224 
L 272.17779 -165.808364 
L 268.86949 -165.704297 
L 265.561189 -165.661211 
L 262.252889 -165.633399 
L 258.944589 -165.594725 
L 255.636288 -165.564921 
L 252.327988 -165.463118 
L 249.019688 -165.348523 
L 245.711387 -165.292157 
L 242.403087 -165.28715 
L 239.094786 -165.243309 
L 235.786486 -165.240365 
L 232.478186 -165.186124 
L 229.169885 -165.183751 
L 225.861585 -165.128538 
L 222.553284 -165.126978 
L 219.244984 -165.082673 
L 215.936684 -165.034196 
L 212.628383 -165.030115 
L 209.320083 -165.004371 
L 206.011782 -164.988513 
L 202.703482 -164.886396 
L 199.395182 -164.836515 
L 196.086881 -164.827358 
L 192.778581 -164.80503 
L 189.47028 -164.791151 
L 186.16198 -164.727019 
L 182.85368 -164.650748 
L 179.545379 -164.518745 
L 176.237079 -164.460888 
L 172.928778 -164.386578 
L 169.620478 -164.23611 
L 166.312178 -164.127051 
L 163.003877 -164.081694 
L 159.695577 -163.916638 
L 156.387276 -163.837744 
L 153.078976 -163.148486 
L 149.770676 -162.942719 
L 146.462375 -161.851391 
L 143.154075 -161.50925 
L 139.845774 -160.084405 
L 136.537474 -157.641026 
L 133.229174 -156.527922 
L 129.920873 -155.595409 
L 126.612573 -155.37643 
L 123.304272 -154.488572 
L 119.995972 -154.197854 
L 116.687672 -148.156231 
L 113.379371 -137.810513 
L 110.071071 -134.047191 
L 106.762771 -127.321482 
L 103.45447 -119.649459 
L 100.14617 -116.981234 
L 96.837869 -97.526321 
z
" id="m7e672f4db8" style="stroke:#f14432;stroke-opacity:0.8;"/>
    </defs>
    <g clip-path="url(#pa810f94ab7)">
     <use style="fill:#f14432;fill-opacity:0.8;stroke:#f14432;stroke-opacity:0.8;" x="0" xlink:href="#m7e672f4db8" y="354.04"/>
    </g>
   </g>
   <g id="matplotlib.axis_1"/>
   <g id="matplotlib.axis_2">
    <g id="ytick_1">
     <g id="line2d_1">
      <defs>
       <path d="M 0 0 
L -3.5 0 
" id="m623eae6d16" style="stroke:#000000;stroke-width:0.8;"/>
      </defs>
      <g>
       <use style="stroke:#000000;stroke-width:0.8;" x="81.619687" xlink:href="#m623eae6d16" y="310.571998"/>
      </g>
     </g>
     <g id="text_1">
      <!-- −0.02 -->
      <defs>
       <path d="M 10.59375 35.5 
L 73.1875 35.5 
L 73.1875 27.203125 
L 10.59375 27.203125 
z
" id="DejaVuSans-2212"/>
       <path d="M 31.78125 66.40625 
Q 24.171875 66.40625 20.328125 58.90625 
Q 16.5 51.421875 16.5 36.375 
Q 16.5 21.390625 20.328125 13.890625 
Q 24.171875 6.390625 31.78125 6.390625 
Q 39.453125 6.390625 43.28125 13.890625 
Q 47.125 21.390625 47.125 36.375 
Q 47.125 51.421875 43.28125 58.90625 
Q 39.453125 66.40625 31.78125 66.40625 
z
M 31.78125 74.21875 
Q 44.046875 74.21875 50.515625 64.515625 
Q 56.984375 54.828125 56.984375 36.375 
Q 56.984375 17.96875 50.515625 8.265625 
Q 44.046875 -1.421875 31.78125 -1.421875 
Q 19.53125 -1.421875 13.0625 8.265625 
Q 6.59375 17.96875 6.59375 36.375 
Q 6.59375 54.828125 13.0625 64.515625 
Q 19.53125 74.21875 31.78125 74.21875 
z
" id="DejaVuSans-30"/>
       <path d="M 10.6875 12.40625 
L 21 12.40625 
L 21 0 
L 10.6875 0 
z
" id="DejaVuSans-2e"/>
       <path d="M 19.1875 8.296875 
L 53.609375 8.296875 
L 53.609375 0 
L 7.328125 0 
L 7.328125 8.296875 
Q 12.9375 14.109375 22.625 23.890625 
Q 32.328125 33.6875 34.8125 36.53125 
Q 39.546875 41.84375 41.421875 45.53125 
Q 43.3125 49.21875 43.3125 52.78125 
Q 43.3125 58.59375 39.234375 62.25 
Q 35.15625 65.921875 28.609375 65.921875 
Q 23.96875 65.921875 18.8125 64.3125 
Q 13.671875 62.703125 7.8125 59.421875 
L 7.8125 69.390625 
Q 13.765625 71.78125 18.9375 73 
Q 24.125 74.21875 28.421875 74.21875 
Q 39.75 74.21875 46.484375 68.546875 
Q 53.21875 62.890625 53.21875 53.421875 
Q 53.21875 48.921875 51.53125 44.890625 
Q 49.859375 40.875 45.40625 35.40625 
Q 44.1875 33.984375 37.640625 27.21875 
Q 31.109375 20.453125 19.1875 8.296875 
z
" id="DejaVuSans-32"/>
      </defs>
      <g transform="translate(7.2 318.930279)scale(0.22 -0.22)">
       <use xlink:href="#DejaVuSans-2212"/>
       <use x="83.789062" xlink:href="#DejaVuSans-30"/>
       <use x="147.412109" xlink:href="#DejaVuSans-2e"/>
       <use x="179.199219" xlink:href="#DejaVuSans-30"/>
       <use x="242.822266" xlink:href="#DejaVuSans-32"/>
      </g>
     </g>
    </g>
    <g id="ytick_2">
     <g id="line2d_2">
      <g>
       <use style="stroke:#000000;stroke-width:0.8;" x="81.619687" xlink:href="#m623eae6d16" y="249.736064"/>
      </g>
     </g>
     <g id="text_2">
      <!-- −0.01 -->
      <defs>
       <path d="M 12.40625 8.296875 
L 28.515625 8.296875 
L 28.515625 63.921875 
L 10.984375 60.40625 
L 10.984375 69.390625 
L 28.421875 72.90625 
L 38.28125 72.90625 
L 38.28125 8.296875 
L 54.390625 8.296875 
L 54.390625 0 
L 12.40625 0 
z
" id="DejaVuSans-31"/>
      </defs>
      <g transform="translate(7.2 258.094345)scale(0.22 -0.22)">
       <use xlink:href="#DejaVuSans-2212"/>
       <use x="83.789062" xlink:href="#DejaVuSans-30"/>
       <use x="147.412109" xlink:href="#DejaVuSans-2e"/>
       <use x="179.199219" xlink:href="#DejaVuSans-30"/>
       <use x="242.822266" xlink:href="#DejaVuSans-31"/>
      </g>
     </g>
    </g>
    <g id="ytick_3">
     <g id="line2d_3">
      <g>
       <use style="stroke:#000000;stroke-width:0.8;" x="81.619687" xlink:href="#m623eae6d16" y="188.900129"/>
      </g>
     </g>
     <g id="text_3">
      <!-- 0.00 -->
      <g transform="translate(25.635312 197.25841)scale(0.22 -0.22)">
       <use xlink:href="#DejaVuSans-30"/>
       <use x="63.623047" xlink:href="#DejaVuSans-2e"/>
       <use x="95.410156" xlink:href="#DejaVuSans-30"/>
       <use x="159.033203" xlink:href="#DejaVuSans-30"/>
      </g>
     </g>
    </g>
    <g id="ytick_4">
     <g id="line2d_4">
      <g>
       <use style="stroke:#000000;stroke-width:0.8;" x="81.619687" xlink:href="#m623eae6d16" y="128.064195"/>
      </g>
     </g>
     <g id="text_4">
      <!-- 0.01 -->
      <g transform="translate(25.635312 136.422476)scale(0.22 -0.22)">
       <use xlink:href="#DejaVuSans-30"/>
       <use x="63.623047" xlink:href="#DejaVuSans-2e"/>
       <use x="95.410156" xlink:href="#DejaVuSans-30"/>
       <use x="159.033203" xlink:href="#DejaVuSans-31"/>
      </g>
     </g>
    </g>
    <g id="ytick_5">
     <g id="line2d_5">
      <g>
       <use style="stroke:#000000;stroke-width:0.8;" x="81.619687" xlink:href="#m623eae6d16" y="67.22826"/>
      </g>
     </g>
     <g id="text_5">
      <!-- 0.02 -->
      <g transform="translate(25.635312 75.586541)scale(0.22 -0.22)">
       <use xlink:href="#DejaVuSans-30"/>
       <use x="63.623047" xlink:href="#DejaVuSans-2e"/>
       <use x="95.410156" xlink:href="#DejaVuSans-30"/>
       <use x="159.033203" xlink:href="#DejaVuSans-32"/>
      </g>
     </g>
    </g>
   </g>
   <g id="patch_3">
    <path d="M 81.619687 343.34 
L 81.619687 10.7 
" style="fill:none;stroke:#000000;stroke-linecap:square;stroke-linejoin:miter;stroke-width:0.8;"/>
   </g>
   <g id="patch_4">
    <path d="M 416.419688 343.34 
L 416.419688 10.7 
" style="fill:none;stroke:#000000;stroke-linecap:square;stroke-linejoin:miter;stroke-width:0.8;"/>
   </g>
   <g id="patch_5">
    <path d="M 81.619687 343.34 
L 416.419688 343.34 
" style="fill:none;stroke:#000000;stroke-linecap:square;stroke-linejoin:miter;stroke-width:0.8;"/>
   </g>
   <g id="patch_6">
    <path d="M 81.619687 10.7 
L 416.419688 10.7 
" style="fill:none;stroke:#000000;stroke-linecap:square;stroke-linejoin:miter;stroke-width:0.8;"/>
   </g>
  </g>
 </g>
 <defs>
  <clipPath id="pa810f94ab7">
   <rect height="332.64" width="334.8" x="81.619687" y="10.7"/>
  </clipPath>
 </defs>
</svg>
