<?xml version="1.0" encoding="utf-8" standalone="no"?>
<!DOCTYPE svg PUBLIC "-//W3C//DTD SVG 1.1//EN"
  "http://www.w3.org/Graphics/SVG/1.1/DTD/svg11.dtd">
<!-- Created with matplotlib (http://matplotlib.org/) -->
<svg height="354pt" version="1.1" viewBox="0 0 392 354" width="392pt" xmlns="http://www.w3.org/2000/svg" xmlns:xlink="http://www.w3.org/1999/xlink">
 <defs>
  <style type="text/css">
*{stroke-linecap:butt;stroke-linejoin:round;}
  </style>
 </defs>
 <g id="figure_1">
  <g id="patch_1">
   <path d="M -0 354.04 
L 392.132812 354.04 
L 392.132812 0 
L -0 0 
z
" style="fill:#ffffff;"/>
  </g>
  <g id="axes_1">
   <g id="patch_2">
    <path d="M 46.632812 343.34 
L 381.432813 343.34 
L 381.432813 10.7 
L 46.632812 10.7 
z
" style="fill:#ffffff;"/>
   </g>
   <g id="PolyCollection_1">
    <defs>
     <path d="M 61.850994 -116.361246 
L 61.850994 -117.442061 
L 65.159295 -117.442061 
L 68.467595 -117.442061 
L 71.775896 -117.442061 
L 75.084196 -117.442061 
L 78.392496 -117.442061 
L 81.700797 -117.442061 
L 85.009097 -117.442061 
L 88.317397 -117.442061 
L 91.625698 -117.442061 
L 94.933998 -117.442061 
L 98.242299 -117.442061 
L 101.550599 -117.442061 
L 104.858899 -117.442061 
L 108.1672 -117.442061 
L 111.4755 -117.442061 
L 114.783801 -117.442061 
L 118.092101 -117.442061 
L 121.400401 -117.442061 
L 124.708702 -117.442061 
L 128.017002 -117.442061 
L 131.325303 -117.442061 
L 134.633603 -117.442061 
L 137.941903 -117.442061 
L 141.250204 -117.442061 
L 144.558504 -117.442061 
L 147.866805 -117.442061 
L 151.175105 -117.442061 
L 154.483405 -117.442061 
L 157.791706 -117.442061 
L 161.100006 -117.442061 
L 164.408307 -117.442061 
L 167.716607 -117.442061 
L 171.024907 -117.442061 
L 174.333208 -117.442061 
L 177.641508 -117.442061 
L 180.949809 -117.442061 
L 184.258109 -117.442061 
L 187.566409 -117.442061 
L 190.87471 -117.442061 
L 194.18301 -117.442061 
L 197.491311 -117.442061 
L 200.799611 -117.442061 
L 204.107911 -117.442061 
L 207.416212 -117.442061 
L 210.724512 -117.442061 
L 214.032813 -117.442061 
L 217.341113 -117.442061 
L 220.649413 -117.442061 
L 223.957714 -117.442061 
L 227.266014 -117.442061 
L 230.574314 -117.442061 
L 233.882615 -117.442061 
L 237.190915 -117.442061 
L 240.499216 -117.442061 
L 243.807516 -117.442061 
L 247.115816 -117.442061 
L 250.424117 -117.442061 
L 253.732417 -117.442061 
L 257.040718 -117.442061 
L 260.349018 -117.442061 
L 263.657318 -117.442061 
L 266.965619 -117.442061 
L 270.273919 -117.442061 
L 273.58222 -117.442061 
L 276.89052 -117.442061 
L 280.19882 -117.442061 
L 283.507121 -117.442061 
L 286.815421 -117.442061 
L 290.123722 -117.442061 
L 293.432022 -117.442061 
L 296.740322 -117.442061 
L 300.048623 -117.442061 
L 303.356923 -117.442061 
L 306.665224 -117.442061 
L 309.973524 -117.442061 
L 313.281824 -117.442061 
L 316.590125 -117.442061 
L 319.898425 -117.442061 
L 323.206726 -117.442061 
L 326.515026 -117.442061 
L 329.823326 -117.442061 
L 333.131627 -117.442061 
L 336.439927 -117.442061 
L 339.748228 -117.442061 
L 343.056528 -117.442061 
L 346.364828 -117.442061 
L 349.673129 -117.442061 
L 352.981429 -117.442061 
L 356.289729 -117.442061 
L 359.59803 -117.442061 
L 362.90633 -117.442061 
L 366.214631 -117.442061 
L 366.214631 -120.346757 
L 366.214631 -120.346757 
L 362.90633 -120.229311 
L 359.59803 -119.619863 
L 356.289729 -119.294361 
L 352.981429 -119.099856 
L 349.673129 -119.078174 
L 346.364828 -118.868399 
L 343.056528 -118.5537 
L 339.748228 -118.483606 
L 336.439927 -118.311415 
L 333.131627 -118.246414 
L 329.823326 -118.157318 
L 326.515026 -117.917028 
L 323.206726 -117.883028 
L 319.898425 -117.831271 
L 316.590125 -117.828669 
L 313.281824 -117.824509 
L 309.973524 -117.823858 
L 306.665224 -117.823442 
L 303.356923 -117.80774 
L 300.048623 -117.741227 
L 296.740322 -117.732429 
L 293.432022 -117.711742 
L 290.123722 -117.689508 
L 286.815421 -117.604854 
L 283.507121 -117.579519 
L 280.19882 -117.564038 
L 276.89052 -117.542922 
L 273.58222 -117.522829 
L 270.273919 -117.521233 
L 266.965619 -117.52084 
L 263.657318 -117.508257 
L 260.349018 -117.503446 
L 257.040718 -117.501501 
L 253.732417 -117.49737 
L 250.424117 -117.495155 
L 247.115816 -117.49467 
L 243.807516 -117.486256 
L 240.499216 -117.484874 
L 237.190915 -117.484787 
L 233.882615 -117.475829 
L 230.574314 -117.474113 
L 227.266014 -117.473846 
L 223.957714 -117.472719 
L 220.649413 -117.47249 
L 217.341113 -117.470767 
L 214.032813 -117.464676 
L 210.724512 -117.464334 
L 207.416212 -117.460895 
L 204.107911 -117.460424 
L 200.799611 -117.459263 
L 197.491311 -117.448549 
L 194.18301 -117.445166 
L 190.87471 -117.444289 
L 187.566409 -117.440166 
L 184.258109 -117.43672 
L 180.949809 -117.434848 
L 177.641508 -117.427723 
L 174.333208 -117.426122 
L 171.024907 -117.417069 
L 167.716607 -117.414287 
L 164.408307 -117.414084 
L 161.100006 -117.413296 
L 157.791706 -117.411692 
L 154.483405 -117.409805 
L 151.175105 -117.399129 
L 147.866805 -117.379535 
L 144.558504 -117.365611 
L 141.250204 -117.363188 
L 137.941903 -117.354953 
L 134.633603 -117.34667 
L 131.325303 -117.345832 
L 128.017002 -117.344099 
L 124.708702 -117.336957 
L 121.400401 -117.293923 
L 118.092101 -117.288579 
L 114.783801 -117.255529 
L 111.4755 -117.253564 
L 108.1672 -117.249708 
L 104.858899 -117.228125 
L 101.550599 -117.213075 
L 98.242299 -117.185502 
L 94.933998 -117.152357 
L 91.625698 -117.124303 
L 88.317397 -117.079884 
L 85.009097 -117.067514 
L 81.700797 -117.048494 
L 78.392496 -117.016277 
L 75.084196 -116.95486 
L 71.775896 -116.664082 
L 68.467595 -116.463889 
L 65.159295 -116.414366 
L 61.850994 -116.361246 
z
" id="m371b0ffc3e" style="stroke:#4a98c9;"/>
    </defs>
    <g clip-path="url(#pfdc736c4d9)">
     <use style="fill:#4a98c9;stroke:#4a98c9;" x="0" xlink:href="#m371b0ffc3e" y="354.04"/>
    </g>
   </g>
   <g id="PolyCollection_2">
    <defs>
     <path d="M 61.850994 -25.82 
L 61.850994 -117.442061 
L 65.159295 -117.442061 
L 68.467595 -117.442061 
L 71.775896 -117.442061 
L 75.084196 -117.442061 
L 78.392496 -117.442061 
L 81.700797 -117.442061 
L 85.009097 -117.442061 
L 88.317397 -117.442061 
L 91.625698 -117.442061 
L 94.933998 -117.442061 
L 98.242299 -117.442061 
L 101.550599 -117.442061 
L 104.858899 -117.442061 
L 108.1672 -117.442061 
L 111.4755 -117.442061 
L 114.783801 -117.442061 
L 118.092101 -117.442061 
L 121.400401 -117.442061 
L 124.708702 -117.442061 
L 128.017002 -117.442061 
L 131.325303 -117.442061 
L 134.633603 -117.442061 
L 137.941903 -117.442061 
L 141.250204 -117.442061 
L 144.558504 -117.442061 
L 147.866805 -117.442061 
L 151.175105 -117.442061 
L 154.483405 -117.442061 
L 157.791706 -117.442061 
L 161.100006 -117.442061 
L 164.408307 -117.442061 
L 167.716607 -117.442061 
L 171.024907 -117.442061 
L 174.333208 -117.442061 
L 177.641508 -117.442061 
L 180.949809 -117.442061 
L 184.258109 -117.442061 
L 187.566409 -117.442061 
L 190.87471 -117.442061 
L 194.18301 -117.442061 
L 197.491311 -117.442061 
L 200.799611 -117.442061 
L 204.107911 -117.442061 
L 207.416212 -117.442061 
L 210.724512 -117.442061 
L 214.032813 -117.442061 
L 217.341113 -117.442061 
L 220.649413 -117.442061 
L 223.957714 -117.442061 
L 227.266014 -117.442061 
L 230.574314 -117.442061 
L 233.882615 -117.442061 
L 237.190915 -117.442061 
L 240.499216 -117.442061 
L 243.807516 -117.442061 
L 247.115816 -117.442061 
L 250.424117 -117.442061 
L 253.732417 -117.442061 
L 257.040718 -117.442061 
L 260.349018 -117.442061 
L 263.657318 -117.442061 
L 266.965619 -117.442061 
L 270.273919 -117.442061 
L 273.58222 -117.442061 
L 276.89052 -117.442061 
L 280.19882 -117.442061 
L 283.507121 -117.442061 
L 286.815421 -117.442061 
L 290.123722 -117.442061 
L 293.432022 -117.442061 
L 296.740322 -117.442061 
L 300.048623 -117.442061 
L 303.356923 -117.442061 
L 306.665224 -117.442061 
L 309.973524 -117.442061 
L 313.281824 -117.442061 
L 316.590125 -117.442061 
L 319.898425 -117.442061 
L 323.206726 -117.442061 
L 326.515026 -117.442061 
L 329.823326 -117.442061 
L 333.131627 -117.442061 
L 336.439927 -117.442061 
L 339.748228 -117.442061 
L 343.056528 -117.442061 
L 346.364828 -117.442061 
L 349.673129 -117.442061 
L 352.981429 -117.442061 
L 356.289729 -117.442061 
L 359.59803 -117.442061 
L 362.90633 -117.442061 
L 366.214631 -117.442061 
L 366.214631 -328.22 
L 366.214631 -328.22 
L 362.90633 -327.942089 
L 359.59803 -316.631053 
L 356.289729 -273.639818 
L 352.981429 -272.748759 
L 349.673129 -250.403494 
L 346.364828 -247.179966 
L 343.056528 -238.83766 
L 339.748228 -208.533952 
L 336.439927 -177.025606 
L 333.131627 -176.002884 
L 329.823326 -175.704747 
L 326.515026 -167.233099 
L 323.206726 -164.878935 
L 319.898425 -164.102893 
L 316.590125 -163.8154 
L 313.281824 -158.543409 
L 309.973524 -157.927716 
L 306.665224 -157.455072 
L 303.356923 -152.054273 
L 300.048623 -150.243175 
L 296.740322 -125.650475 
L 293.432022 -124.739686 
L 290.123722 -122.739862 
L 286.815421 -120.714019 
L 283.507121 -120.480921 
L 280.19882 -118.563322 
L 276.89052 -117.885774 
L 273.58222 -117.723808 
L 270.273919 -117.602816 
L 266.965619 -117.57392 
L 263.657318 -117.530531 
L 260.349018 -117.521924 
L 257.040718 -117.511682 
L 253.732417 -117.511522 
L 250.424117 -117.510633 
L 247.115816 -117.487364 
L 243.807516 -117.476905 
L 240.499216 -117.4761 
L 237.190915 -117.473205 
L 233.882615 -117.471843 
L 230.574314 -117.468132 
L 227.266014 -117.460841 
L 223.957714 -117.454104 
L 220.649413 -117.453384 
L 217.341113 -117.452321 
L 214.032813 -117.451624 
L 210.724512 -117.449258 
L 207.416212 -117.447399 
L 204.107911 -117.442985 
L 200.799611 -117.442882 
L 197.491311 -117.441098 
L 194.18301 -117.439263 
L 190.87471 -117.432472 
L 187.566409 -117.427915 
L 184.258109 -117.427059 
L 180.949809 -117.426203 
L 177.641508 -117.422461 
L 174.333208 -117.41538 
L 171.024907 -117.411761 
L 167.716607 -117.408455 
L 164.408307 -117.403473 
L 161.100006 -117.398521 
L 157.791706 -117.391581 
L 154.483405 -117.390269 
L 151.175105 -117.381495 
L 147.866805 -117.378439 
L 144.558504 -117.369203 
L 141.250204 -117.308264 
L 137.941903 -117.285156 
L 134.633603 -117.259415 
L 131.325303 -116.855225 
L 128.017002 -116.566466 
L 124.708702 -116.387117 
L 121.400401 -116.051896 
L 118.092101 -114.879845 
L 114.783801 -113.157042 
L 111.4755 -112.915125 
L 108.1672 -110.52932 
L 104.858899 -107.870713 
L 101.550599 -106.89127 
L 98.242299 -102.501907 
L 94.933998 -100.980464 
L 91.625698 -99.661231 
L 88.317397 -97.345789 
L 85.009097 -94.835616 
L 81.700797 -80.814169 
L 78.392496 -78.88973 
L 75.084196 -69.943375 
L 71.775896 -62.000067 
L 68.467595 -52.934348 
L 65.159295 -51.113751 
L 61.850994 -25.82 
z
" id="m68d7f00ccc" style="stroke:#f14432;stroke-opacity:0.8;"/>
    </defs>
    <g clip-path="url(#pfdc736c4d9)">
     <use style="fill:#f14432;fill-opacity:0.8;stroke:#f14432;stroke-opacity:0.8;" x="0" xlink:href="#m68d7f00ccc" y="354.04"/>
    </g>
   </g>
   <g id="matplotlib.axis_1"/>
   <g id="matplotlib.axis_2">
    <g id="ytick_1">
     <g id="line2d_1">
      <defs>
       <path d="M 0 0 
L -3.5 0 
" id="m217ca538b2" style="stroke:#000000;stroke-width:0.8;"/>
      </defs>
      <g>
       <use style="stroke:#000000;stroke-width:0.8;" x="46.632812" xlink:href="#m217ca538b2" y="316.924044"/>
      </g>
     </g>
     <g id="text_1">
      <!-- −4 -->
      <defs>
       <path d="M 10.59375 35.5 
L 73.1875 35.5 
L 73.1875 27.203125 
L 10.59375 27.203125 
z
" id="DejaVuSans-2212"/>
       <path d="M 37.796875 64.3125 
L 12.890625 25.390625 
L 37.796875 25.390625 
z
M 35.203125 72.90625 
L 47.609375 72.90625 
L 47.609375 25.390625 
L 58.015625 25.390625 
L 58.015625 17.1875 
L 47.609375 17.1875 
L 47.609375 0 
L 37.796875 0 
L 37.796875 17.1875 
L 4.890625 17.1875 
L 4.890625 26.703125 
z
" id="DejaVuSans-34"/>
      </defs>
      <g transform="translate(7.2 325.282326)scale(0.22 -0.22)">
       <use xlink:href="#DejaVuSans-2212"/>
       <use x="83.789062" xlink:href="#DejaVuSans-34"/>
      </g>
     </g>
    </g>
    <g id="ytick_2">
     <g id="line2d_2">
      <g>
       <use style="stroke:#000000;stroke-width:0.8;" x="46.632812" xlink:href="#m217ca538b2" y="276.760992"/>
      </g>
     </g>
     <g id="text_2">
      <!-- −2 -->
      <defs>
       <path d="M 19.1875 8.296875 
L 53.609375 8.296875 
L 53.609375 0 
L 7.328125 0 
L 7.328125 8.296875 
Q 12.9375 14.109375 22.625 23.890625 
Q 32.328125 33.6875 34.8125 36.53125 
Q 39.546875 41.84375 41.421875 45.53125 
Q 43.3125 49.21875 43.3125 52.78125 
Q 43.3125 58.59375 39.234375 62.25 
Q 35.15625 65.921875 28.609375 65.921875 
Q 23.96875 65.921875 18.8125 64.3125 
Q 13.671875 62.703125 7.8125 59.421875 
L 7.8125 69.390625 
Q 13.765625 71.78125 18.9375 73 
Q 24.125 74.21875 28.421875 74.21875 
Q 39.75 74.21875 46.484375 68.546875 
Q 53.21875 62.890625 53.21875 53.421875 
Q 53.21875 48.921875 51.53125 44.890625 
Q 49.859375 40.875 45.40625 35.40625 
Q 44.1875 33.984375 37.640625 27.21875 
Q 31.109375 20.453125 19.1875 8.296875 
z
" id="DejaVuSans-32"/>
      </defs>
      <g transform="translate(7.2 285.119273)scale(0.22 -0.22)">
       <use xlink:href="#DejaVuSans-2212"/>
       <use x="83.789062" xlink:href="#DejaVuSans-32"/>
      </g>
     </g>
    </g>
    <g id="ytick_3">
     <g id="line2d_3">
      <g>
       <use style="stroke:#000000;stroke-width:0.8;" x="46.632812" xlink:href="#m217ca538b2" y="236.597939"/>
      </g>
     </g>
     <g id="text_3">
      <!-- 0 -->
      <defs>
       <path d="M 31.78125 66.40625 
Q 24.171875 66.40625 20.328125 58.90625 
Q 16.5 51.421875 16.5 36.375 
Q 16.5 21.390625 20.328125 13.890625 
Q 24.171875 6.390625 31.78125 6.390625 
Q 39.453125 6.390625 43.28125 13.890625 
Q 47.125 21.390625 47.125 36.375 
Q 47.125 51.421875 43.28125 58.90625 
Q 39.453125 66.40625 31.78125 66.40625 
z
M 31.78125 74.21875 
Q 44.046875 74.21875 50.515625 64.515625 
Q 56.984375 54.828125 56.984375 36.375 
Q 56.984375 17.96875 50.515625 8.265625 
Q 44.046875 -1.421875 31.78125 -1.421875 
Q 19.53125 -1.421875 13.0625 8.265625 
Q 6.59375 17.96875 6.59375 36.375 
Q 6.59375 54.828125 13.0625 64.515625 
Q 19.53125 74.21875 31.78125 74.21875 
z
" id="DejaVuSans-30"/>
      </defs>
      <g transform="translate(25.635312 244.95622)scale(0.22 -0.22)">
       <use xlink:href="#DejaVuSans-30"/>
      </g>
     </g>
    </g>
    <g id="ytick_4">
     <g id="line2d_4">
      <g>
       <use style="stroke:#000000;stroke-width:0.8;" x="46.632812" xlink:href="#m217ca538b2" y="196.434886"/>
      </g>
     </g>
     <g id="text_4">
      <!-- 2 -->
      <g transform="translate(25.635312 204.793167)scale(0.22 -0.22)">
       <use xlink:href="#DejaVuSans-32"/>
      </g>
     </g>
    </g>
    <g id="ytick_5">
     <g id="line2d_5">
      <g>
       <use style="stroke:#000000;stroke-width:0.8;" x="46.632812" xlink:href="#m217ca538b2" y="156.271833"/>
      </g>
     </g>
     <g id="text_5">
      <!-- 4 -->
      <g transform="translate(25.635312 164.630115)scale(0.22 -0.22)">
       <use xlink:href="#DejaVuSans-34"/>
      </g>
     </g>
    </g>
    <g id="ytick_6">
     <g id="line2d_6">
      <g>
       <use style="stroke:#000000;stroke-width:0.8;" x="46.632812" xlink:href="#m217ca538b2" y="116.108781"/>
      </g>
     </g>
     <g id="text_6">
      <!-- 6 -->
      <defs>
       <path d="M 33.015625 40.375 
Q 26.375 40.375 22.484375 35.828125 
Q 18.609375 31.296875 18.609375 23.390625 
Q 18.609375 15.53125 22.484375 10.953125 
Q 26.375 6.390625 33.015625 6.390625 
Q 39.65625 6.390625 43.53125 10.953125 
Q 47.40625 15.53125 47.40625 23.390625 
Q 47.40625 31.296875 43.53125 35.828125 
Q 39.65625 40.375 33.015625 40.375 
z
M 52.59375 71.296875 
L 52.59375 62.3125 
Q 48.875 64.0625 45.09375 64.984375 
Q 41.3125 65.921875 37.59375 65.921875 
Q 27.828125 65.921875 22.671875 59.328125 
Q 17.53125 52.734375 16.796875 39.40625 
Q 19.671875 43.65625 24.015625 45.921875 
Q 28.375 48.1875 33.59375 48.1875 
Q 44.578125 48.1875 50.953125 41.515625 
Q 57.328125 34.859375 57.328125 23.390625 
Q 57.328125 12.15625 50.6875 5.359375 
Q 44.046875 -1.421875 33.015625 -1.421875 
Q 20.359375 -1.421875 13.671875 8.265625 
Q 6.984375 17.96875 6.984375 36.375 
Q 6.984375 53.65625 15.1875 63.9375 
Q 23.390625 74.21875 37.203125 74.21875 
Q 40.921875 74.21875 44.703125 73.484375 
Q 48.484375 72.75 52.59375 71.296875 
z
" id="DejaVuSans-36"/>
      </defs>
      <g transform="translate(25.635312 124.467062)scale(0.22 -0.22)">
       <use xlink:href="#DejaVuSans-36"/>
      </g>
     </g>
    </g>
    <g id="ytick_7">
     <g id="line2d_7">
      <g>
       <use style="stroke:#000000;stroke-width:0.8;" x="46.632812" xlink:href="#m217ca538b2" y="75.945728"/>
      </g>
     </g>
     <g id="text_7">
      <!-- 8 -->
      <defs>
       <path d="M 31.78125 34.625 
Q 24.75 34.625 20.71875 30.859375 
Q 16.703125 27.09375 16.703125 20.515625 
Q 16.703125 13.921875 20.71875 10.15625 
Q 24.75 6.390625 31.78125 6.390625 
Q 38.8125 6.390625 42.859375 10.171875 
Q 46.921875 13.96875 46.921875 20.515625 
Q 46.921875 27.09375 42.890625 30.859375 
Q 38.875 34.625 31.78125 34.625 
z
M 21.921875 38.8125 
Q 15.578125 40.375 12.03125 44.71875 
Q 8.5 49.078125 8.5 55.328125 
Q 8.5 64.0625 14.71875 69.140625 
Q 20.953125 74.21875 31.78125 74.21875 
Q 42.671875 74.21875 48.875 69.140625 
Q 55.078125 64.0625 55.078125 55.328125 
Q 55.078125 49.078125 51.53125 44.71875 
Q 48 40.375 41.703125 38.8125 
Q 48.828125 37.15625 52.796875 32.3125 
Q 56.78125 27.484375 56.78125 20.515625 
Q 56.78125 9.90625 50.3125 4.234375 
Q 43.84375 -1.421875 31.78125 -1.421875 
Q 19.734375 -1.421875 13.25 4.234375 
Q 6.78125 9.90625 6.78125 20.515625 
Q 6.78125 27.484375 10.78125 32.3125 
Q 14.796875 37.15625 21.921875 38.8125 
z
M 18.3125 54.390625 
Q 18.3125 48.734375 21.84375 45.5625 
Q 25.390625 42.390625 31.78125 42.390625 
Q 38.140625 42.390625 41.71875 45.5625 
Q 45.3125 48.734375 45.3125 54.390625 
Q 45.3125 60.0625 41.71875 63.234375 
Q 38.140625 66.40625 31.78125 66.40625 
Q 25.390625 66.40625 21.84375 63.234375 
Q 18.3125 60.0625 18.3125 54.390625 
z
" id="DejaVuSans-38"/>
      </defs>
      <g transform="translate(25.635312 84.304009)scale(0.22 -0.22)">
       <use xlink:href="#DejaVuSans-38"/>
      </g>
     </g>
    </g>
    <g id="ytick_8">
     <g id="line2d_8">
      <g>
       <use style="stroke:#000000;stroke-width:0.8;" x="46.632812" xlink:href="#m217ca538b2" y="35.782675"/>
      </g>
     </g>
     <g id="text_8">
      <!-- 10 -->
      <defs>
       <path d="M 12.40625 8.296875 
L 28.515625 8.296875 
L 28.515625 63.921875 
L 10.984375 60.40625 
L 10.984375 69.390625 
L 28.421875 72.90625 
L 38.28125 72.90625 
L 38.28125 8.296875 
L 54.390625 8.296875 
L 54.390625 0 
L 12.40625 0 
z
" id="DejaVuSans-31"/>
      </defs>
      <g transform="translate(11.637812 44.140956)scale(0.22 -0.22)">
       <use xlink:href="#DejaVuSans-31"/>
       <use x="63.623047" xlink:href="#DejaVuSans-30"/>
      </g>
     </g>
    </g>
   </g>
   <g id="patch_3">
    <path d="M 46.632812 343.34 
L 46.632812 10.7 
" style="fill:none;stroke:#000000;stroke-linecap:square;stroke-linejoin:miter;stroke-width:0.8;"/>
   </g>
   <g id="patch_4">
    <path d="M 381.432813 343.34 
L 381.432813 10.7 
" style="fill:none;stroke:#000000;stroke-linecap:square;stroke-linejoin:miter;stroke-width:0.8;"/>
   </g>
   <g id="patch_5">
    <path d="M 46.632812 343.34 
L 381.432813 343.34 
" style="fill:none;stroke:#000000;stroke-linecap:square;stroke-linejoin:miter;stroke-width:0.8;"/>
   </g>
   <g id="patch_6">
    <path d="M 46.632812 10.7 
L 381.432813 10.7 
" style="fill:none;stroke:#000000;stroke-linecap:square;stroke-linejoin:miter;stroke-width:0.8;"/>
   </g>
  </g>
 </g>
 <defs>
  <clipPath id="pfdc736c4d9">
   <rect height="332.64" width="334.8" x="46.632812" y="10.7"/>
  </clipPath>
 </defs>
</svg>
