<?xml version="1.0" encoding="utf-8" standalone="no"?>
<!DOCTYPE svg PUBLIC "-//W3C//DTD SVG 1.1//EN"
  "http://www.w3.org/Graphics/SVG/1.1/DTD/svg11.dtd">
<!-- Created with matplotlib (http://matplotlib.org/) -->
<svg height="354pt" version="1.1" viewBox="0 0 420 354" width="420pt" xmlns="http://www.w3.org/2000/svg" xmlns:xlink="http://www.w3.org/1999/xlink">
 <defs>
  <style type="text/css">
*{stroke-linecap:butt;stroke-linejoin:round;}
  </style>
 </defs>
 <g id="figure_1">
  <g id="patch_1">
   <path d="M 0 354.04 
L 420.127812 354.04 
L 420.127812 0 
L 0 0 
z
" style="fill:#ffffff;"/>
  </g>
  <g id="axes_1">
   <g id="patch_2">
    <path d="M 74.627813 343.34 
L 409.427813 343.34 
L 409.427813 10.7 
L 74.627813 10.7 
z
" style="fill:#ffffff;"/>
   </g>
   <g id="PolyCollection_1">
    <defs>
     <path d="M 89.845994 -25.82 
L 89.845994 -192.740733 
L 93.154295 -192.740733 
L 96.462595 -192.740733 
L 99.770896 -192.740733 
L 103.079196 -192.740733 
L 106.387496 -192.740733 
L 109.695797 -192.740733 
L 113.004097 -192.740733 
L 116.312397 -192.740733 
L 119.620698 -192.740733 
L 122.928998 -192.740733 
L 126.237299 -192.740733 
L 129.545599 -192.740733 
L 132.853899 -192.740733 
L 136.1622 -192.740733 
L 139.4705 -192.740733 
L 142.778801 -192.740733 
L 146.087101 -192.740733 
L 149.395401 -192.740733 
L 152.703702 -192.740733 
L 156.012002 -192.740733 
L 159.320303 -192.740733 
L 162.628603 -192.740733 
L 165.936903 -192.740733 
L 169.245204 -192.740733 
L 172.553504 -192.740733 
L 175.861805 -192.740733 
L 179.170105 -192.740733 
L 182.478405 -192.740733 
L 185.786706 -192.740733 
L 189.095006 -192.740733 
L 192.403307 -192.740733 
L 195.711607 -192.740733 
L 199.019907 -192.740733 
L 202.328208 -192.740733 
L 205.636508 -192.740733 
L 208.944809 -192.740733 
L 212.253109 -192.740733 
L 215.561409 -192.740733 
L 218.86971 -192.740733 
L 222.17801 -192.740733 
L 225.486311 -192.740733 
L 228.794611 -192.740733 
L 232.102911 -192.740733 
L 235.411212 -192.740733 
L 238.719512 -192.740733 
L 242.027813 -192.740733 
L 245.336113 -192.740733 
L 248.644413 -192.740733 
L 251.952714 -192.740733 
L 255.261014 -192.740733 
L 258.569314 -192.740733 
L 261.877615 -192.740733 
L 265.185915 -192.740733 
L 268.494216 -192.740733 
L 271.802516 -192.740733 
L 275.110816 -192.740733 
L 278.419117 -192.740733 
L 281.727417 -192.740733 
L 285.035718 -192.740733 
L 288.344018 -192.740733 
L 291.652318 -192.740733 
L 294.960619 -192.740733 
L 298.268919 -192.740733 
L 301.57722 -192.740733 
L 304.88552 -192.740733 
L 308.19382 -192.740733 
L 311.502121 -192.740733 
L 314.810421 -192.740733 
L 318.118722 -192.740733 
L 321.427022 -192.740733 
L 324.735322 -192.740733 
L 328.043623 -192.740733 
L 331.351923 -192.740733 
L 334.660224 -192.740733 
L 337.968524 -192.740733 
L 341.276824 -192.740733 
L 344.585125 -192.740733 
L 347.893425 -192.740733 
L 351.201726 -192.740733 
L 354.510026 -192.740733 
L 357.818326 -192.740733 
L 361.126627 -192.740733 
L 364.434927 -192.740733 
L 367.743228 -192.740733 
L 371.051528 -192.740733 
L 374.359828 -192.740733 
L 377.668129 -192.740733 
L 380.976429 -192.740733 
L 384.284729 -192.740733 
L 387.59303 -192.740733 
L 390.90133 -192.740733 
L 394.209631 -192.740733 
L 394.209631 -328.22 
L 394.209631 -328.22 
L 390.90133 -288.198144 
L 387.59303 -281.216976 
L 384.284729 -280.300609 
L 380.976429 -279.784023 
L 377.668129 -275.753881 
L 374.359828 -268.521383 
L 371.051528 -256.407769 
L 367.743228 -254.762799 
L 364.434927 -253.456463 
L 361.126627 -241.410593 
L 357.818326 -230.404365 
L 354.510026 -227.051274 
L 351.201726 -222.08691 
L 347.893425 -221.479812 
L 344.585125 -218.448371 
L 341.276824 -218.283897 
L 337.968524 -216.242226 
L 334.660224 -208.530243 
L 331.351923 -207.244825 
L 328.043623 -206.83357 
L 324.735322 -206.725687 
L 321.427022 -205.98361 
L 318.118722 -205.161105 
L 314.810421 -204.132554 
L 311.502121 -203.826441 
L 308.19382 -201.882627 
L 304.88552 -200.356506 
L 301.57722 -199.819328 
L 298.268919 -198.980871 
L 294.960619 -198.098837 
L 291.652318 -197.830822 
L 288.344018 -197.78444 
L 285.035718 -196.615494 
L 281.727417 -196.010185 
L 278.419117 -195.344392 
L 275.110816 -195.30451 
L 271.802516 -195.002071 
L 268.494216 -194.545323 
L 265.185915 -194.295973 
L 261.877615 -194.089791 
L 258.569314 -193.893822 
L 255.261014 -193.682028 
L 251.952714 -193.437678 
L 248.644413 -193.120056 
L 245.336113 -193.002022 
L 242.027813 -192.866182 
L 238.719512 -192.787849 
L 235.411212 -192.743853 
L 232.102911 -192.561146 
L 228.794611 -192.497116 
L 225.486311 -191.606276 
L 222.17801 -191.019402 
L 218.86971 -190.956584 
L 215.561409 -190.856394 
L 212.253109 -190.826858 
L 208.944809 -190.741687 
L 205.636508 -190.421389 
L 202.328208 -190.264562 
L 199.019907 -190.231331 
L 195.711607 -190.171337 
L 192.403307 -190.07338 
L 189.095006 -189.824382 
L 185.786706 -189.316469 
L 182.478405 -189.193376 
L 179.170105 -188.891466 
L 175.861805 -188.347473 
L 172.553504 -187.408754 
L 169.245204 -187.29314 
L 165.936903 -187.262526 
L 162.628603 -185.831879 
L 159.320303 -185.191 
L 156.012002 -185.084746 
L 152.703702 -184.760069 
L 149.395401 -183.887919 
L 146.087101 -183.645095 
L 142.778801 -182.649165 
L 139.4705 -181.941617 
L 136.1622 -181.829662 
L 132.853899 -181.697246 
L 129.545599 -176.999572 
L 126.237299 -175.602879 
L 122.928998 -174.200687 
L 119.620698 -166.324621 
L 116.312397 -162.772092 
L 113.004097 -156.450319 
L 109.695797 -155.131358 
L 106.387496 -151.637835 
L 103.079196 -150.941572 
L 99.770896 -131.529126 
L 96.462595 -117.63398 
L 93.154295 -111.902397 
L 89.845994 -25.82 
z
" id="ma1bd1c9718" style="stroke:#4a98c9;"/>
    </defs>
    <g clip-path="url(#p2611943f7d)">
     <use style="fill:#4a98c9;stroke:#4a98c9;" x="0" xlink:href="#ma1bd1c9718" y="354.04"/>
    </g>
   </g>
   <g id="PolyCollection_2">
    <defs>
     <path d="M 89.845994 -30.142704 
L 89.845994 -192.740733 
L 93.154295 -192.740733 
L 96.462595 -192.740733 
L 99.770896 -192.740733 
L 103.079196 -192.740733 
L 106.387496 -192.740733 
L 109.695797 -192.740733 
L 113.004097 -192.740733 
L 116.312397 -192.740733 
L 119.620698 -192.740733 
L 122.928998 -192.740733 
L 126.237299 -192.740733 
L 129.545599 -192.740733 
L 132.853899 -192.740733 
L 136.1622 -192.740733 
L 139.4705 -192.740733 
L 142.778801 -192.740733 
L 146.087101 -192.740733 
L 149.395401 -192.740733 
L 152.703702 -192.740733 
L 156.012002 -192.740733 
L 159.320303 -192.740733 
L 162.628603 -192.740733 
L 165.936903 -192.740733 
L 169.245204 -192.740733 
L 172.553504 -192.740733 
L 175.861805 -192.740733 
L 179.170105 -192.740733 
L 182.478405 -192.740733 
L 185.786706 -192.740733 
L 189.095006 -192.740733 
L 192.403307 -192.740733 
L 195.711607 -192.740733 
L 199.019907 -192.740733 
L 202.328208 -192.740733 
L 205.636508 -192.740733 
L 208.944809 -192.740733 
L 212.253109 -192.740733 
L 215.561409 -192.740733 
L 218.86971 -192.740733 
L 222.17801 -192.740733 
L 225.486311 -192.740733 
L 228.794611 -192.740733 
L 232.102911 -192.740733 
L 235.411212 -192.740733 
L 238.719512 -192.740733 
L 242.027813 -192.740733 
L 245.336113 -192.740733 
L 248.644413 -192.740733 
L 251.952714 -192.740733 
L 255.261014 -192.740733 
L 258.569314 -192.740733 
L 261.877615 -192.740733 
L 265.185915 -192.740733 
L 268.494216 -192.740733 
L 271.802516 -192.740733 
L 275.110816 -192.740733 
L 278.419117 -192.740733 
L 281.727417 -192.740733 
L 285.035718 -192.740733 
L 288.344018 -192.740733 
L 291.652318 -192.740733 
L 294.960619 -192.740733 
L 298.268919 -192.740733 
L 301.57722 -192.740733 
L 304.88552 -192.740733 
L 308.19382 -192.740733 
L 311.502121 -192.740733 
L 314.810421 -192.740733 
L 318.118722 -192.740733 
L 321.427022 -192.740733 
L 324.735322 -192.740733 
L 328.043623 -192.740733 
L 331.351923 -192.740733 
L 334.660224 -192.740733 
L 337.968524 -192.740733 
L 341.276824 -192.740733 
L 344.585125 -192.740733 
L 347.893425 -192.740733 
L 351.201726 -192.740733 
L 354.510026 -192.740733 
L 357.818326 -192.740733 
L 361.126627 -192.740733 
L 364.434927 -192.740733 
L 367.743228 -192.740733 
L 371.051528 -192.740733 
L 374.359828 -192.740733 
L 377.668129 -192.740733 
L 380.976429 -192.740733 
L 384.284729 -192.740733 
L 387.59303 -192.740733 
L 390.90133 -192.740733 
L 394.209631 -192.740733 
L 394.209631 -296.500912 
L 394.209631 -296.500912 
L 390.90133 -290.247038 
L 387.59303 -274.374221 
L 384.284729 -271.894845 
L 380.976429 -265.121989 
L 377.668129 -264.933847 
L 374.359828 -258.96742 
L 371.051528 -246.951601 
L 367.743228 -227.064397 
L 364.434927 -225.713208 
L 361.126627 -225.463997 
L 357.818326 -223.34978 
L 354.510026 -222.651675 
L 351.201726 -219.846472 
L 347.893425 -219.378707 
L 344.585125 -214.273305 
L 341.276824 -214.150819 
L 337.968524 -209.839231 
L 334.660224 -209.73969 
L 331.351923 -209.056916 
L 328.043623 -208.67522 
L 324.735322 -206.545271 
L 321.427022 -204.520667 
L 318.118722 -203.571979 
L 314.810421 -202.446901 
L 311.502121 -201.803349 
L 308.19382 -201.620069 
L 304.88552 -201.1069 
L 301.57722 -200.479105 
L 298.268919 -200.089172 
L 294.960619 -198.990702 
L 291.652318 -198.864327 
L 288.344018 -198.777965 
L 285.035718 -197.857134 
L 281.727417 -197.336495 
L 278.419117 -197.286691 
L 275.110816 -197.217355 
L 271.802516 -196.950141 
L 268.494216 -196.595711 
L 265.185915 -196.370147 
L 261.877615 -196.055795 
L 258.569314 -194.551595 
L 255.261014 -194.41785 
L 251.952714 -194.251243 
L 248.644413 -193.538889 
L 245.336113 -192.948201 
L 242.027813 -192.692833 
L 238.719512 -192.545088 
L 235.411212 -192.185859 
L 232.102911 -192.089944 
L 228.794611 -192.010543 
L 225.486311 -191.750573 
L 222.17801 -191.660802 
L 218.86971 -191.297671 
L 215.561409 -191.247526 
L 212.253109 -191.227525 
L 208.944809 -191.096406 
L 205.636508 -190.950217 
L 202.328208 -190.795412 
L 199.019907 -190.566222 
L 195.711607 -190.413264 
L 192.403307 -190.059239 
L 189.095006 -189.868097 
L 185.786706 -188.693319 
L 182.478405 -188.402811 
L 179.170105 -188.317523 
L 175.861805 -187.978894 
L 172.553504 -187.59352 
L 169.245204 -187.4123 
L 165.936903 -187.175983 
L 162.628603 -187.134882 
L 159.320303 -187.086167 
L 156.012002 -187.0236 
L 152.703702 -184.648427 
L 149.395401 -184.590122 
L 146.087101 -184.113075 
L 142.778801 -182.538392 
L 139.4705 -181.245507 
L 136.1622 -181.055367 
L 132.853899 -179.97132 
L 129.545599 -177.738263 
L 126.237299 -174.335731 
L 122.928998 -170.78906 
L 119.620698 -170.4442 
L 116.312397 -170.060619 
L 113.004097 -168.361133 
L 109.695797 -165.832437 
L 106.387496 -162.643998 
L 103.079196 -153.194902 
L 99.770896 -139.825675 
L 96.462595 -130.420129 
L 93.154295 -125.80163 
L 89.845994 -30.142704 
z
" id="m8854e080ef" style="stroke:#f14432;stroke-opacity:0.8;"/>
    </defs>
    <g clip-path="url(#p2611943f7d)">
     <use style="fill:#f14432;fill-opacity:0.8;stroke:#f14432;stroke-opacity:0.8;" x="0" xlink:href="#m8854e080ef" y="354.04"/>
    </g>
   </g>
   <g id="matplotlib.axis_1"/>
   <g id="matplotlib.axis_2">
    <g id="ytick_1">
     <g id="line2d_1">
      <defs>
       <path d="M 0 0 
L -3.5 0 
" id="m764e804aab" style="stroke:#000000;stroke-width:0.8;"/>
      </defs>
      <g>
       <use style="stroke:#000000;stroke-width:0.8;" x="74.627813" xlink:href="#m764e804aab" y="324.661884"/>
      </g>
     </g>
     <g id="text_1">
      <!-- −300 -->
      <defs>
       <path d="M 10.59375 35.5 
L 73.1875 35.5 
L 73.1875 27.203125 
L 10.59375 27.203125 
z
" id="DejaVuSans-2212"/>
       <path d="M 40.578125 39.3125 
Q 47.65625 37.796875 51.625 33 
Q 55.609375 28.21875 55.609375 21.1875 
Q 55.609375 10.40625 48.1875 4.484375 
Q 40.765625 -1.421875 27.09375 -1.421875 
Q 22.515625 -1.421875 17.65625 -0.515625 
Q 12.796875 0.390625 7.625 2.203125 
L 7.625 11.71875 
Q 11.71875 9.328125 16.59375 8.109375 
Q 21.484375 6.890625 26.8125 6.890625 
Q 36.078125 6.890625 40.9375 10.546875 
Q 45.796875 14.203125 45.796875 21.1875 
Q 45.796875 27.640625 41.28125 31.265625 
Q 36.765625 34.90625 28.71875 34.90625 
L 20.21875 34.90625 
L 20.21875 43.015625 
L 29.109375 43.015625 
Q 36.375 43.015625 40.234375 45.921875 
Q 44.09375 48.828125 44.09375 54.296875 
Q 44.09375 59.90625 40.109375 62.90625 
Q 36.140625 65.921875 28.71875 65.921875 
Q 24.65625 65.921875 20.015625 65.03125 
Q 15.375 64.15625 9.8125 62.3125 
L 9.8125 71.09375 
Q 15.4375 72.65625 20.34375 73.4375 
Q 25.25 74.21875 29.59375 74.21875 
Q 40.828125 74.21875 47.359375 69.109375 
Q 53.90625 64.015625 53.90625 55.328125 
Q 53.90625 49.265625 50.4375 45.09375 
Q 46.96875 40.921875 40.578125 39.3125 
z
" id="DejaVuSans-33"/>
       <path d="M 31.78125 66.40625 
Q 24.171875 66.40625 20.328125 58.90625 
Q 16.5 51.421875 16.5 36.375 
Q 16.5 21.390625 20.328125 13.890625 
Q 24.171875 6.390625 31.78125 6.390625 
Q 39.453125 6.390625 43.28125 13.890625 
Q 47.125 21.390625 47.125 36.375 
Q 47.125 51.421875 43.28125 58.90625 
Q 39.453125 66.40625 31.78125 66.40625 
z
M 31.78125 74.21875 
Q 44.046875 74.21875 50.515625 64.515625 
Q 56.984375 54.828125 56.984375 36.375 
Q 56.984375 17.96875 50.515625 8.265625 
Q 44.046875 -1.421875 31.78125 -1.421875 
Q 19.53125 -1.421875 13.0625 8.265625 
Q 6.59375 17.96875 6.59375 36.375 
Q 6.59375 54.828125 13.0625 64.515625 
Q 19.53125 74.21875 31.78125 74.21875 
z
" id="DejaVuSans-30"/>
      </defs>
      <g transform="translate(7.2 333.020165)scale(0.22 -0.22)">
       <use xlink:href="#DejaVuSans-2212"/>
       <use x="83.789062" xlink:href="#DejaVuSans-33"/>
       <use x="147.412109" xlink:href="#DejaVuSans-30"/>
       <use x="211.035156" xlink:href="#DejaVuSans-30"/>
      </g>
     </g>
    </g>
    <g id="ytick_2">
     <g id="line2d_2">
      <g>
       <use style="stroke:#000000;stroke-width:0.8;" x="74.627813" xlink:href="#m764e804aab" y="270.207679"/>
      </g>
     </g>
     <g id="text_2">
      <!-- −200 -->
      <defs>
       <path d="M 19.1875 8.296875 
L 53.609375 8.296875 
L 53.609375 0 
L 7.328125 0 
L 7.328125 8.296875 
Q 12.9375 14.109375 22.625 23.890625 
Q 32.328125 33.6875 34.8125 36.53125 
Q 39.546875 41.84375 41.421875 45.53125 
Q 43.3125 49.21875 43.3125 52.78125 
Q 43.3125 58.59375 39.234375 62.25 
Q 35.15625 65.921875 28.609375 65.921875 
Q 23.96875 65.921875 18.8125 64.3125 
Q 13.671875 62.703125 7.8125 59.421875 
L 7.8125 69.390625 
Q 13.765625 71.78125 18.9375 73 
Q 24.125 74.21875 28.421875 74.21875 
Q 39.75 74.21875 46.484375 68.546875 
Q 53.21875 62.890625 53.21875 53.421875 
Q 53.21875 48.921875 51.53125 44.890625 
Q 49.859375 40.875 45.40625 35.40625 
Q 44.1875 33.984375 37.640625 27.21875 
Q 31.109375 20.453125 19.1875 8.296875 
z
" id="DejaVuSans-32"/>
      </defs>
      <g transform="translate(7.2 278.56596)scale(0.22 -0.22)">
       <use xlink:href="#DejaVuSans-2212"/>
       <use x="83.789062" xlink:href="#DejaVuSans-32"/>
       <use x="147.412109" xlink:href="#DejaVuSans-30"/>
       <use x="211.035156" xlink:href="#DejaVuSans-30"/>
      </g>
     </g>
    </g>
    <g id="ytick_3">
     <g id="line2d_3">
      <g>
       <use style="stroke:#000000;stroke-width:0.8;" x="74.627813" xlink:href="#m764e804aab" y="215.753473"/>
      </g>
     </g>
     <g id="text_3">
      <!-- −100 -->
      <defs>
       <path d="M 12.40625 8.296875 
L 28.515625 8.296875 
L 28.515625 63.921875 
L 10.984375 60.40625 
L 10.984375 69.390625 
L 28.421875 72.90625 
L 38.28125 72.90625 
L 38.28125 8.296875 
L 54.390625 8.296875 
L 54.390625 0 
L 12.40625 0 
z
" id="DejaVuSans-31"/>
      </defs>
      <g transform="translate(7.2 224.111754)scale(0.22 -0.22)">
       <use xlink:href="#DejaVuSans-2212"/>
       <use x="83.789062" xlink:href="#DejaVuSans-31"/>
       <use x="147.412109" xlink:href="#DejaVuSans-30"/>
       <use x="211.035156" xlink:href="#DejaVuSans-30"/>
      </g>
     </g>
    </g>
    <g id="ytick_4">
     <g id="line2d_4">
      <g>
       <use style="stroke:#000000;stroke-width:0.8;" x="74.627813" xlink:href="#m764e804aab" y="161.299267"/>
      </g>
     </g>
     <g id="text_4">
      <!-- 0 -->
      <g transform="translate(53.630313 169.657549)scale(0.22 -0.22)">
       <use xlink:href="#DejaVuSans-30"/>
      </g>
     </g>
    </g>
    <g id="ytick_5">
     <g id="line2d_5">
      <g>
       <use style="stroke:#000000;stroke-width:0.8;" x="74.627813" xlink:href="#m764e804aab" y="106.845062"/>
      </g>
     </g>
     <g id="text_5">
      <!-- 100 -->
      <g transform="translate(25.635313 115.203343)scale(0.22 -0.22)">
       <use xlink:href="#DejaVuSans-31"/>
       <use x="63.623047" xlink:href="#DejaVuSans-30"/>
       <use x="127.246094" xlink:href="#DejaVuSans-30"/>
      </g>
     </g>
    </g>
    <g id="ytick_6">
     <g id="line2d_6">
      <g>
       <use style="stroke:#000000;stroke-width:0.8;" x="74.627813" xlink:href="#m764e804aab" y="52.390856"/>
      </g>
     </g>
     <g id="text_6">
      <!-- 200 -->
      <g transform="translate(25.635313 60.749138)scale(0.22 -0.22)">
       <use xlink:href="#DejaVuSans-32"/>
       <use x="63.623047" xlink:href="#DejaVuSans-30"/>
       <use x="127.246094" xlink:href="#DejaVuSans-30"/>
      </g>
     </g>
    </g>
   </g>
   <g id="patch_3">
    <path d="M 74.627813 343.34 
L 74.627813 10.7 
" style="fill:none;stroke:#000000;stroke-linecap:square;stroke-linejoin:miter;stroke-width:0.8;"/>
   </g>
   <g id="patch_4">
    <path d="M 409.427813 343.34 
L 409.427813 10.7 
" style="fill:none;stroke:#000000;stroke-linecap:square;stroke-linejoin:miter;stroke-width:0.8;"/>
   </g>
   <g id="patch_5">
    <path d="M 74.627813 343.34 
L 409.427813 343.34 
" style="fill:none;stroke:#000000;stroke-linecap:square;stroke-linejoin:miter;stroke-width:0.8;"/>
   </g>
   <g id="patch_6">
    <path d="M 74.627813 10.7 
L 409.427813 10.7 
" style="fill:none;stroke:#000000;stroke-linecap:square;stroke-linejoin:miter;stroke-width:0.8;"/>
   </g>
  </g>
 </g>
 <defs>
  <clipPath id="p2611943f7d">
   <rect height="332.64" width="334.8" x="74.627813" y="10.7"/>
  </clipPath>
 </defs>
</svg>
