<?xml version="1.0" encoding="utf-8" standalone="no"?>
<!DOCTYPE svg PUBLIC "-//W3C//DTD SVG 1.1//EN"
  "http://www.w3.org/Graphics/SVG/1.1/DTD/svg11.dtd">
<!-- Created with matplotlib (http://matplotlib.org/) -->
<svg height="210pt" version="1.1" viewBox="0 0 210 210" width="210pt" xmlns="http://www.w3.org/2000/svg" xmlns:xlink="http://www.w3.org/1999/xlink">
 <defs>
  <style type="text/css">
*{stroke-linecap:butt;stroke-linejoin:round;}
  </style>
 </defs>
 <g id="figure_1">
  <g id="patch_1">
   <path d="M 0 210.76 
L 210.76 210.76 
L 210.76 0 
L 0 0 
z
" style="fill:#ffffff;"/>
  </g>
  <g id="axes_1">
   <g id="patch_2">
    <path d="M 10.7 200.06 
L 200.06 200.06 
L 200.06 10.7 
L 10.7 10.7 
z
" style="fill:#ffffff;"/>
   </g>
   <g id="matplotlib.axis_1"/>
   <g id="matplotlib.axis_2"/>
   <g id="line2d_1">
    <path clip-path="url(#p86f8e7785a)" d="M 19.307273 191.826957 
L 64.454529 191.826957 
L 64.626847 111.486291 
L 65.660753 73.232706 
L 66.350025 54.105066 
L 67.039296 40.574339 
L 67.556249 33.820276 
L 68.073202 29.602618 
L 68.417838 28.010835 
L 68.762473 27.260674 
L 68.934791 27.166087 
L 69.107109 27.240413 
L 69.451744 27.84403 
L 69.79638 28.972689 
L 70.313333 31.45387 
L 71.174922 37.049326 
L 72.8981 50.508884 
L 74.621278 63.43141 
L 75.99982 72.087377 
L 77.206044 78.237623 
L 78.239951 82.507929 
L 79.273857 85.959003 
L 80.307764 88.707961 
L 81.341671 90.871582 
L 82.375577 92.557419 
L 83.409484 93.859721 
L 84.615708 95.000008 
L 85.821933 95.829286 
L 87.200475 96.498298 
L 88.751335 97.001004 
L 90.64683 97.379983 
L 93.231597 97.653373 
L 97.022588 97.805618 
L 109.25715 97.811425 
L 146.650106 97.917122 
L 147.16706 98.159347 
L 147.511695 98.574439 
L 147.856331 99.457453 
L 148.200966 101.251482 
L 148.545602 104.62208 
L 148.890238 110.286586 
L 149.062555 191.826957 
L 191.452727 191.826957 
L 191.452727 191.826957 
" style="fill:none;opacity:0.7;stroke:#420a68;stroke-linecap:square;stroke-width:2;"/>
   </g>
   <g id="line2d_2">
    <path clip-path="url(#p86f8e7785a)" d="M 19.307273 191.826957 
L 65.316118 191.826957 
L 65.488436 79.265405 
L 66.350025 54.337789 
L 67.039296 40.71219 
L 67.556249 33.903419 
L 68.073202 29.644617 
L 68.417838 28.032337 
L 68.762473 27.266691 
L 68.934791 27.166087 
L 69.107109 27.235461 
L 69.451744 27.832117 
L 69.79638 28.957327 
L 70.313333 31.438883 
L 71.174922 37.046202 
L 72.725782 49.175001 
L 74.621278 63.529771 
L 75.99982 72.22532 
L 77.206044 78.404823 
L 77.55068 79.933469 
L 77.722998 191.826957 
L 191.452727 191.826957 
L 191.452727 191.826957 
" style="fill:none;opacity:0.7;stroke:#510e6c;stroke-linecap:square;stroke-width:2;"/>
   </g>
   <g id="line2d_3">
    <path clip-path="url(#p86f8e7785a)" d="M 19.307273 191.826957 
L 60.835856 191.826957 
L 61.180491 184.877287 
L 61.525127 179.112021 
L 62.04208 165.455179 
L 62.731351 139.892835 
L 64.454529 73.171398 
L 65.1438 54.042212 
L 65.833071 40.506159 
L 66.350025 33.755932 
L 66.866978 29.552637 
L 67.211613 27.976926 
L 67.556249 27.248088 
L 67.728567 27.166087 
L 67.900885 27.254242 
L 68.24552 27.889089 
L 68.762473 29.805356 
L 69.451744 33.703369 
L 70.485651 41.271837 
L 73.932007 67.809703 
L 75.138231 75.125524 
L 76.344455 81.118535 
L 77.55068 85.899423 
L 78.584586 89.163814 
L 79.618493 91.784069 
L 80.6524 93.873583 
L 81.686306 95.534035 
L 82.892531 97.044868 
L 84.098755 98.204546 
L 85.477297 99.214512 
L 87.028157 100.068042 
L 88.923653 100.846212 
L 91.508419 101.63748 
L 95.29941 102.540992 
L 116.666814 107.200251 
L 127.522834 109.922153 
L 139.41276 113.136784 
L 147.16706 115.406892 
L 147.684013 115.714381 
L 148.028649 116.087345 
L 148.373284 116.77477 
L 148.71792 118.089128 
L 149.062555 120.529385 
L 149.407191 124.690769 
L 149.924144 134.966663 
L 150.613415 155.143655 
L 151.81964 191.826957 
L 191.452727 191.826957 
L 191.452727 191.826957 
" style="fill:none;opacity:0.7;stroke:#61136e;stroke-linecap:square;stroke-width:2;"/>
   </g>
   <g id="line2d_4">
    <path clip-path="url(#p86f8e7785a)" d="M 19.307273 191.826957 
L 64.109894 191.826957 
L 64.282211 125.50511 
L 65.488436 78.65726 
L 66.350025 53.962257 
L 67.039296 40.4867 
L 67.556249 33.765704 
L 68.073202 29.573944 
L 68.417838 27.995672 
L 68.762473 27.256261 
L 68.934791 27.166087 
L 69.107109 27.244228 
L 69.451744 27.853804 
L 69.79638 28.986409 
L 70.313333 31.470281 
L 71.174922 37.06352 
L 72.8981 50.503966 
L 74.621278 63.40089 
L 75.99982 72.037462 
L 77.206044 78.173075 
L 78.239951 82.43284 
L 79.273857 85.875174 
L 80.307764 88.617024 
L 81.341671 90.774955 
L 82.375577 92.456294 
L 83.409484 93.755081 
L 84.615708 94.892256 
L 85.821933 95.719247 
L 87.200475 96.386396 
L 88.751335 96.887691 
L 90.64683 97.265596 
L 93.231597 97.538204 
L 97.022588 97.689948 
L 109.429468 97.695701 
L 146.650106 97.800207 
L 147.16706 98.039731 
L 147.511695 98.450283 
L 147.856331 99.323988 
L 148.200966 101.100412 
L 148.545602 104.441824 
L 148.890238 110.065755 
L 149.407191 123.535485 
L 149.579509 191.826957 
L 191.452727 191.826957 
L 191.452727 191.826957 
" style="fill:none;opacity:0.7;stroke:#6f196e;stroke-linecap:square;stroke-width:2;"/>
   </g>
   <g id="line2d_5">
    <path clip-path="url(#p86f8e7785a)" d="M 19.307273 191.826957 
L 62.903669 191.826957 
L 63.075987 168.434298 
L 63.765258 143.600352 
L 65.660753 70.485268 
L 66.350025 52.024614 
L 67.039296 39.149616 
L 67.556249 32.848383 
L 68.073202 29.038755 
L 68.417838 27.692298 
L 68.762473 27.166087 
L 68.934791 27.175639 
L 69.279427 27.673339 
L 69.624062 28.725397 
L 70.141016 31.140581 
L 70.830287 35.498967 
L 72.036511 44.813816 
L 74.621278 65.013221 
L 75.99982 73.813407 
L 77.206044 80.077774 
L 78.412269 85.08916 
L 79.446175 88.512777 
L 80.480082 91.257041 
L 81.513989 93.438024 
L 82.547895 95.161138 
L 83.75412 96.71401 
L 84.960344 97.888006 
L 86.338886 98.88713 
L 87.889746 99.701371 
L 89.612924 100.348331 
L 91.853055 100.93988 
L 94.954775 101.510675 
L 99.090401 102.042173 
L 120.974758 104.405742 
L 144.582293 106.730639 
L 146.650106 107.006892 
L 147.16706 107.24671 
L 147.511695 107.608032 
L 147.856331 108.343825 
L 148.200966 109.818599 
L 148.545602 112.601046 
L 148.890238 117.345226 
L 149.407191 128.951358 
L 150.096462 151.444528 
L 150.613415 170.73067 
L 150.785733 191.826957 
L 191.452727 191.826957 
L 191.452727 191.826957 
" style="fill:none;opacity:0.7;stroke:#7d1e6d;stroke-linecap:square;stroke-width:2;"/>
   </g>
   <g id="line2d_6">
    <path clip-path="url(#p86f8e7785a)" d="M 19.307273 191.826957 
L 65.316118 191.826957 
L 65.488436 79.265405 
L 66.350025 54.337789 
L 67.039296 40.71219 
L 67.556249 33.903419 
L 68.073202 29.644617 
L 68.417838 28.032337 
L 68.762473 27.266691 
L 68.934791 27.166087 
L 69.107109 27.235461 
L 69.451744 27.832117 
L 69.79638 28.957327 
L 70.313333 31.438883 
L 71.174922 37.046202 
L 72.725782 49.175001 
L 74.621278 63.529771 
L 75.99982 72.22532 
L 77.206044 78.404823 
L 77.55068 79.933469 
L 77.722998 191.826957 
L 191.452727 191.826957 
L 191.452727 191.826957 
" style="fill:none;opacity:0.7;stroke:#8d2369;stroke-linecap:square;stroke-width:2;"/>
   </g>
   <g id="line2d_7">
    <path clip-path="url(#p86f8e7785a)" d="M 19.307273 191.826957 
L 61.180491 191.826957 
L 61.525127 185.684135 
L 61.869762 180.37856 
L 62.386716 167.408208 
L 63.075987 142.323957 
L 64.799165 74.825687 
L 65.488436 55.16713 
L 66.177707 41.17175 
L 66.69466 34.150037 
L 67.211613 29.744063 
L 67.556249 28.070775 
L 67.900885 27.272699 
L 68.073202 27.166087 
L 68.24552 27.235932 
L 68.590156 27.85187 
L 68.934791 29.018887 
L 69.451744 31.600178 
L 70.313333 37.453061 
L 71.864193 50.183569 
L 73.759689 65.386823 
L 75.138231 74.703182 
L 76.344455 81.406923 
L 77.55068 86.831268 
L 78.756904 91.138788 
L 79.790811 94.086009 
L 80.997035 96.819442 
L 82.20326 98.951533 
L 83.409484 100.622541 
L 84.615708 101.945921 
L 85.994251 103.146084 
L 87.545111 104.215999 
L 89.440606 105.259946 
L 92.025373 106.412356 
L 95.816364 107.83531 
L 105.293841 111.003325 
L 143.031433 123.553373 
L 147.16706 124.97169 
L 147.684013 125.371821 
L 148.028649 125.883746 
L 148.373284 126.837908 
L 148.71792 128.618827 
L 149.062555 131.741196 
L 149.407191 136.658028 
L 149.924144 147.583339 
L 150.785733 171.962079 
L 151.475004 191.826957 
L 191.452727 191.826957 
L 191.452727 191.826957 
" style="fill:none;opacity:0.7;stroke:#9b2964;stroke-linecap:square;stroke-width:2;"/>
   </g>
   <g id="line2d_8">
    <path clip-path="url(#p86f8e7785a)" d="M 19.307273 191.826957 
L 65.1438 191.826957 
L 65.316118 85.15696 
L 66.177707 58.543993 
L 66.866978 43.566873 
L 67.383931 35.844721 
L 67.900885 30.790118 
L 68.417838 28.026866 
L 68.762473 27.265198 
L 68.934791 27.166087 
L 69.107109 27.236649 
L 69.451744 27.834842 
L 69.79638 28.960591 
L 70.313333 31.441393 
L 71.174922 37.044322 
L 72.8981 50.535705 
L 74.621278 63.496077 
L 75.99982 72.179655 
L 77.206044 78.350376 
L 78.239951 82.63528 
L 79.273857 86.098375 
L 80.307764 88.857056 
L 80.997035 90.362982 
L 81.169353 191.826957 
L 191.452727 191.826957 
L 191.452727 191.826957 
" style="fill:none;opacity:0.7;stroke:#ab2f5e;stroke-linecap:square;stroke-width:2;"/>
   </g>
   <g id="line2d_9">
    <path clip-path="url(#p86f8e7785a)" d="M 19.307273 191.826957 
L 62.04208 191.826957 
L 62.214398 183.25353 
L 62.559034 176.541927 
L 63.075987 161.444313 
L 63.937576 127.437501 
L 65.316118 74.065426 
L 66.005389 54.477437 
L 66.69466 40.616584 
L 67.211613 33.726275 
L 67.728567 29.469968 
L 68.073202 27.903583 
L 68.417838 27.216285 
L 68.590156 27.166087 
L 68.762473 27.292823 
L 69.107109 28.023421 
L 69.624062 30.123393 
L 70.313333 34.324273 
L 71.34724 42.425867 
L 74.793595 70.84624 
L 75.99982 78.745295 
L 77.206044 85.264315 
L 78.412269 90.516512 
L 79.618493 94.681674 
L 80.824717 97.954537 
L 82.030942 100.517657 
L 83.237166 102.529342 
L 84.443391 104.120271 
L 85.821933 105.555889 
L 87.372793 106.822755 
L 89.095971 107.938112 
L 91.336102 109.101229 
L 94.265504 110.350833 
L 98.056495 111.723896 
L 107.878608 114.911262 
L 118.217674 118.035397 
L 128.901376 121.032252 
L 140.102031 123.940689 
L 146.994742 125.735196 
L 147.511695 126.119576 
L 147.856331 126.643972 
L 148.200966 127.646861 
L 148.545602 129.52951 
L 148.890238 132.805959 
L 149.407191 141.159381 
L 150.096462 158.176673 
L 150.958051 183.407032 
L 151.130369 191.826957 
L 191.452727 191.826957 
L 191.452727 191.826957 
" style="fill:none;opacity:0.7;stroke:#b93556;stroke-linecap:square;stroke-width:2;"/>
   </g>
   <g id="line2d_10">
    <path clip-path="url(#p86f8e7785a)" d="M 19.307273 191.826957 
L 60.663538 191.826957 
L 61.008174 185.817416 
L 61.352809 180.615398 
L 61.869762 167.840928 
L 62.559034 143.002576 
L 64.454529 70.222632 
L 65.1438 51.874923 
L 65.833071 39.080974 
L 66.350025 32.818994 
L 66.866978 29.031662 
L 67.211613 27.69169 
L 67.556249 27.166087 
L 67.728567 27.173968 
L 68.073202 27.664823 
L 68.417838 28.705957 
L 68.934791 31.098549 
L 69.624062 35.418362 
L 70.830287 44.65345 
L 73.415053 64.68503 
L 74.793595 73.415179 
L 75.99982 79.632459 
L 77.206044 84.609642 
L 78.239951 88.013378 
L 79.273857 90.745593 
L 80.307764 92.921515 
L 81.341671 94.645781 
L 82.547895 96.206948 
L 83.75412 97.395874 
L 85.132662 98.419274 
L 86.683522 99.26907 
L 88.579017 100.024027 
L 90.991466 100.720741 
L 94.610139 101.504624 
L 101.158215 102.650057 
L 111.324963 104.570586 
L 121.491712 106.718366 
L 132.003096 109.167978 
L 143.203751 112.01026 
L 147.339378 113.203274 
L 147.856331 113.551497 
L 148.200966 114.003276 
L 148.545602 114.860217 
L 148.890238 116.503504 
L 149.234873 119.497409 
L 149.579509 124.433212 
L 150.096462 136.03482 
L 150.958051 163.591347 
L 151.81964 191.826957 
L 191.452727 191.826957 
L 191.452727 191.826957 
" style="fill:none;opacity:0.7;stroke:#c73e4c;stroke-linecap:square;stroke-width:2;"/>
   </g>
   <g id="line2d_11">
    <path clip-path="url(#p86f8e7785a)" d="M 19.307273 191.826957 
L 62.903669 191.826957 
L 63.075987 168.886696 
L 63.765258 144.200971 
L 65.660753 71.007947 
L 66.350025 52.434914 
L 67.039296 39.439776 
L 67.556249 33.050074 
L 68.073202 29.156333 
L 68.417838 27.756934 
L 68.762473 27.180551 
L 68.934791 27.166087 
L 69.107109 27.316179 
L 69.451744 28.058807 
L 69.968698 30.099503 
L 70.657969 34.102936 
L 71.691876 41.727756 
L 74.793595 65.709548 
L 75.99982 73.259381 
L 77.206044 79.473268 
L 78.412269 84.437711 
L 79.446175 87.822898 
L 80.480082 90.529824 
L 81.513989 92.674206 
L 82.547895 94.36123 
L 83.75412 95.872454 
L 84.960344 97.00517 
L 86.338886 97.957479 
L 87.889746 98.719456 
L 89.612924 99.30882 
L 91.853055 99.826244 
L 94.954775 100.295834 
L 99.090401 100.695198 
L 126.833563 102.842978 
L 146.822424 104.396438 
L 147.339378 104.730329 
L 147.684013 105.261368 
L 148.028649 106.349502 
L 148.373284 108.483108 
L 148.71792 112.324733 
L 149.062555 118.472742 
L 149.579509 132.314407 
L 150.441097 163.57616 
L 150.613415 191.826957 
L 191.452727 191.826957 
L 191.452727 191.826957 
" style="fill:none;opacity:0.7;stroke:#d34743;stroke-linecap:square;stroke-width:2;"/>
   </g>
   <g id="line2d_12">
    <path clip-path="url(#p86f8e7785a)" d="M 19.307273 191.826957 
L 63.248305 191.826957 
L 63.420622 158.577203 
L 64.626847 109.928754 
L 65.660753 72.127909 
L 66.350025 53.322205 
L 67.039296 40.076215 
L 67.556249 33.500363 
L 68.073202 29.42839 
L 68.417838 27.916123 
L 68.762473 27.232223 
L 68.934791 27.166087 
L 69.107109 27.265917 
L 69.451744 27.912245 
L 69.968698 29.818853 
L 70.657969 33.661742 
L 71.691876 41.080116 
L 74.965913 65.752456 
L 76.172138 72.979778 
L 77.378362 78.886935 
L 78.412269 82.971864 
L 79.446175 86.263577 
L 80.480082 88.879528 
L 81.513989 90.934643 
L 82.547895 92.533583 
L 83.581802 93.767368 
L 84.788026 94.84676 
L 85.994251 95.631386 
L 87.372793 96.264435 
L 88.923653 96.740603 
L 90.991466 97.124734 
L 93.74855 97.384884 
L 97.711859 97.513464 
L 141.997527 97.599678 
L 146.650106 97.706619 
L 147.16706 97.933406 
L 147.511695 98.32159 
L 147.856331 99.148763 
L 148.200966 100.83663 
L 148.545602 104.031135 
L 148.890238 109.4522 
L 149.407191 122.579765 
L 150.096462 147.71394 
L 150.26878 154.760125 
L 150.441097 191.826957 
L 191.452727 191.826957 
L 191.452727 191.826957 
" style="fill:none;opacity:0.7;stroke:#de5238;stroke-linecap:square;stroke-width:2;"/>
   </g>
   <g id="line2d_13">
    <path clip-path="url(#p86f8e7785a)" d="M 19.307273 191.826957 
L 63.59294 191.826957 
L 63.765258 146.172891 
L 65.660753 72.608831 
L 66.350025 53.669907 
L 67.039296 40.302142 
L 67.556249 33.647978 
L 68.073202 29.510334 
L 68.417838 27.961301 
L 68.762473 27.246006 
L 68.934791 27.166087 
L 69.107109 27.253349 
L 69.451744 27.877984 
L 69.968698 29.759868 
L 70.657969 33.582134 
L 71.691876 40.989485 
L 74.965913 65.699966 
L 76.172138 72.947938 
L 77.378362 78.873766 
L 78.412269 82.972292 
L 79.446175 86.275192 
L 80.480082 88.900016 
L 81.513989 90.961923 
L 82.547895 92.565856 
L 83.581802 93.803129 
L 84.788026 94.88505 
L 85.994251 95.670906 
L 87.372793 96.304166 
L 88.923653 96.779479 
L 90.991466 97.161286 
L 93.74855 97.417133 
L 97.711859 97.538617 
L 142.51448 97.539985 
L 146.650106 97.641882 
L 147.16706 97.875505 
L 147.511695 98.276146 
L 147.856331 99.129557 
L 148.200966 100.867722 
L 148.545602 104.146159 
L 148.890238 109.683824 
L 149.407191 123.00959 
L 149.924144 141.467914 
L 150.096462 191.826957 
L 191.452727 191.826957 
L 191.452727 191.826957 
" style="fill:none;opacity:0.7;stroke:#e8602d;stroke-linecap:square;stroke-width:2;"/>
   </g>
   <g id="line2d_14">
    <path clip-path="url(#p86f8e7785a)" d="M 19.307273 191.826957 
L 62.731351 191.826957 
L 62.903669 173.053619 
L 63.420622 156.498004 
L 66.177707 55.803982 
L 66.866978 41.650071 
L 67.383931 34.500688 
L 67.900885 29.963617 
L 68.24552 28.202319 
L 68.590156 27.31641 
L 68.762473 27.166087 
L 68.934791 27.192417 
L 69.279427 27.72206 
L 69.624062 28.803951 
L 70.141016 31.260095 
L 70.830287 35.666593 
L 72.036511 45.050579 
L 74.44896 64.129121 
L 75.827502 73.187979 
L 77.033726 79.674417 
L 78.239951 84.886244 
L 79.273857 88.45973 
L 80.307764 91.333211 
L 81.341671 93.624196 
L 82.375577 95.440348 
L 83.581802 97.083668 
L 84.788026 98.332295 
L 85.994251 99.285036 
L 87.372793 100.109063 
L 89.095971 100.863643 
L 91.163784 101.511809 
L 93.920868 102.132046 
L 97.711859 102.754553 
L 113.90973 104.853112 
L 134.415545 107.299873 
L 146.822424 108.797979 
L 147.339378 109.128512 
L 147.684013 109.633173 
L 148.028649 110.652673 
L 148.373284 112.642656 
L 148.71792 116.228999 
L 149.062555 121.989534 
L 149.579509 135.030484 
L 150.441097 164.675023 
L 150.613415 171.033454 
L 150.785733 191.826957 
L 191.452727 191.826957 
L 191.452727 191.826957 
" style="fill:none;opacity:0.7;stroke:#ef6e21;stroke-linecap:square;stroke-width:2;"/>
   </g>
   <g id="line2d_15">
    <path clip-path="url(#p86f8e7785a)" d="M 19.307273 191.826957 
L 63.937576 191.826957 
L 64.109894 132.471819 
L 65.488436 78.490328 
L 66.350025 53.854383 
L 67.039296 40.419267 
L 67.556249 33.723042 
L 68.073202 29.551108 
L 68.417838 27.983421 
L 68.762473 27.252635 
L 68.934791 27.166087 
L 69.107109 27.247423 
L 69.451744 27.862185 
L 69.968698 29.733704 
L 70.657969 33.549055 
L 71.691876 40.9569 
L 74.965913 65.705654 
L 76.172138 72.969761 
L 77.378362 78.909888 
L 78.412269 83.018846 
L 79.446175 86.330471 
L 80.480082 88.962437 
L 81.513989 91.030091 
L 82.547895 92.638586 
L 83.581802 93.879438 
L 84.788026 94.964538 
L 85.994251 95.752736 
L 87.372793 96.387908 
L 88.923653 96.864675 
L 90.991466 97.247665 
L 93.74855 97.504315 
L 97.711859 97.62632 
L 141.825209 97.627704 
L 146.650106 97.731268 
L 147.16706 97.968659 
L 147.511695 98.375629 
L 147.856331 99.241996 
L 148.200966 101.004575 
L 148.545602 104.323154 
L 148.890238 109.915664 
L 149.407191 123.332294 
L 149.751826 135.256896 
L 149.924144 191.826957 
L 191.452727 191.826957 
L 191.452727 191.826957 
" style="fill:none;opacity:0.7;stroke:#f67e14;stroke-linecap:square;stroke-width:2;"/>
   </g>
   <g id="line2d_16">
    <path clip-path="url(#p86f8e7785a)" d="M 19.307273 191.826957 
L 63.248305 191.826957 
L 63.420622 158.577203 
L 64.626847 109.928754 
L 65.660753 72.127909 
L 66.350025 53.322205 
L 67.039296 40.076215 
L 67.556249 33.500363 
L 68.073202 29.42839 
L 68.417838 27.916123 
L 68.762473 27.232223 
L 68.934791 27.166087 
L 69.107109 27.265917 
L 69.451744 27.912245 
L 69.968698 29.818853 
L 70.657969 33.661742 
L 71.691876 41.080116 
L 74.965913 65.752456 
L 76.172138 72.979778 
L 77.378362 78.886935 
L 78.412269 82.971864 
L 79.446175 86.263577 
L 80.480082 88.879528 
L 81.513989 90.934643 
L 82.547895 92.533583 
L 83.581802 93.767368 
L 84.788026 94.84676 
L 85.994251 95.631386 
L 87.372793 96.264435 
L 88.923653 96.740603 
L 90.991466 97.124734 
L 93.74855 97.384884 
L 97.711859 97.513464 
L 141.997527 97.599678 
L 146.650106 97.706619 
L 147.16706 97.933406 
L 147.511695 98.32159 
L 147.856331 99.148763 
L 148.200966 100.83663 
L 148.545602 104.031135 
L 148.890238 109.4522 
L 149.407191 122.579765 
L 150.096462 147.71394 
L 150.26878 154.760125 
L 150.441097 191.826957 
L 191.452727 191.826957 
L 191.452727 191.826957 
" style="fill:none;opacity:0.7;stroke:#f98e09;stroke-linecap:square;stroke-width:2;"/>
   </g>
   <g id="line2d_17">
    <path clip-path="url(#p86f8e7785a)" d="M 19.307273 191.826957 
L 62.731351 191.826957 
L 62.903669 173.086038 
L 63.420622 156.54179 
L 66.177707 55.838476 
L 66.866978 41.674726 
L 67.383931 34.518055 
L 67.900885 29.974052 
L 68.24552 28.2084 
L 68.590156 27.318375 
L 68.762473 27.166087 
L 68.934791 27.190514 
L 69.279427 27.716538 
L 69.624062 28.795054 
L 70.141016 31.246571 
L 70.830287 35.647649 
L 72.036511 45.023876 
L 74.621278 65.316336 
L 75.99982 74.153851 
L 77.206044 80.447241 
L 78.412269 85.485592 
L 79.446175 88.931302 
L 80.480082 91.697064 
L 81.513989 93.899154 
L 82.547895 95.643112 
L 83.75412 97.220069 
L 84.960344 98.417963 
L 86.338886 99.444208 
L 87.889746 100.288733 
L 89.612924 100.969056 
L 91.853055 101.60351 
L 94.954775 102.232783 
L 99.090401 102.840408 
L 118.734627 105.307559 
L 139.757396 107.722057 
L 146.822424 108.60658 
L 147.339378 108.937298 
L 147.684013 109.443132 
L 148.028649 110.465642 
L 148.373284 112.461901 
L 148.71792 116.059387 
L 149.062555 121.836831 
L 149.579509 134.912695 
L 150.441097 164.627614 
L 150.613415 171.000211 
L 150.785733 191.826957 
L 191.452727 191.826957 
L 191.452727 191.826957 
" style="fill:none;opacity:0.7;stroke:#fca108;stroke-linecap:square;stroke-width:2;"/>
   </g>
   <g id="line2d_18">
    <path clip-path="url(#p86f8e7785a)" d="M 19.307273 191.826957 
L 62.903669 191.826957 
L 63.075987 168.426283 
L 63.765258 143.589716 
L 65.660753 70.476156 
L 66.350025 52.017541 
L 67.039296 39.144705 
L 67.556249 32.845055 
L 68.073202 29.036927 
L 68.417838 27.691409 
L 68.762473 27.166087 
L 68.934791 27.176064 
L 69.279427 27.674572 
L 69.624062 28.727387 
L 70.141016 31.143612 
L 70.830287 35.503224 
L 72.036511 44.819845 
L 74.621278 65.021957 
L 75.99982 73.823236 
L 77.206044 80.088455 
L 78.412269 85.100633 
L 79.446175 88.524898 
L 80.480082 91.269794 
L 81.513989 93.451396 
L 82.547895 95.175122 
L 83.75412 96.728699 
L 84.960344 97.903396 
L 86.338886 98.903315 
L 87.889746 99.718443 
L 89.612924 100.366381 
L 91.853055 100.959188 
L 94.954775 101.531698 
L 99.090401 102.065431 
L 120.974758 104.43995 
L 144.582293 106.775126 
L 146.650106 107.052142 
L 147.16706 107.292002 
L 147.511695 107.653181 
L 147.856331 108.388521 
L 148.200966 109.862254 
L 148.545602 112.642696 
L 148.890238 117.383583 
L 149.407191 128.982315 
L 150.096462 151.462663 
L 150.613415 170.738655 
L 150.785733 191.826957 
L 191.452727 191.826957 
L 191.452727 191.826957 
" style="fill:none;opacity:0.7;stroke:#fcb216;stroke-linecap:square;stroke-width:2;"/>
   </g>
   <g id="line2d_19">
    <path clip-path="url(#p86f8e7785a)" d="M 19.307273 191.826957 
L 65.488436 191.826957 
L 65.660753 73.593956 
L 66.350025 54.344909 
L 67.039296 40.716308 
L 67.556249 33.905847 
L 68.073202 29.645807 
L 68.417838 28.032931 
L 68.762473 27.266852 
L 68.934791 27.166087 
L 69.107109 27.235335 
L 69.451744 27.831833 
L 69.79638 28.956996 
L 70.313333 31.438659 
L 71.174922 37.046506 
L 72.725782 49.176858 
L 74.621278 63.533751 
L 75.99982 72.23067 
L 77.206044 78.411177 
L 77.378362 191.826957 
L 191.452727 191.826957 
L 191.452727 191.826957 
" style="fill:none;opacity:0.7;stroke:#fac42a;stroke-linecap:square;stroke-width:2;"/>
   </g>
   <g id="line2d_20">
    <path clip-path="url(#p86f8e7785a)" d="M 19.307273 191.826957 
L 62.731351 191.826957 
L 62.903669 173.061677 
L 63.420622 156.50889 
L 66.177707 55.812538 
L 66.866978 41.656183 
L 67.383931 34.504991 
L 67.900885 29.9662 
L 68.24552 28.203824 
L 68.590156 27.316896 
L 68.762473 27.166087 
L 68.934791 27.191947 
L 69.279427 27.720695 
L 69.624062 28.801753 
L 70.141016 31.256756 
L 70.830287 35.661918 
L 72.036511 45.043998 
L 74.44896 64.119842 
L 75.827502 73.177543 
L 77.033726 79.663091 
L 78.239951 84.874096 
L 79.273857 88.446909 
L 80.307764 91.319737 
L 81.341671 93.610081 
L 82.375577 95.425599 
L 83.581802 97.068187 
L 84.788026 98.316086 
L 85.994251 99.268105 
L 87.372793 100.091311 
L 89.095971 100.844874 
L 91.163784 101.491831 
L 93.920868 102.110478 
L 97.711859 102.730851 
L 113.90973 104.820859 
L 134.415545 107.25807 
L 146.822424 108.751116 
L 147.339378 109.081697 
L 147.684013 109.586649 
L 148.028649 110.606894 
L 148.373284 112.598426 
L 148.71792 116.187517 
L 149.062555 121.952218 
L 149.579509 135.001751 
L 150.441097 164.663548 
L 150.613415 171.025448 
L 150.785733 191.826957 
L 191.452727 191.826957 
L 191.452727 191.826957 
" style="fill:none;opacity:0.7;stroke:#f6d746;stroke-linecap:square;stroke-width:2;"/>
   </g>
   <g id="patch_3">
    <path d="M 10.7 200.06 
L 10.7 10.7 
" style="fill:none;stroke:#000000;stroke-linecap:square;stroke-linejoin:miter;stroke-width:0.8;"/>
   </g>
   <g id="patch_4">
    <path d="M 200.06 200.06 
L 200.06 10.7 
" style="fill:none;stroke:#000000;stroke-linecap:square;stroke-linejoin:miter;stroke-width:0.8;"/>
   </g>
   <g id="patch_5">
    <path d="M 10.7 200.06 
L 200.06 200.06 
" style="fill:none;stroke:#000000;stroke-linecap:square;stroke-linejoin:miter;stroke-width:0.8;"/>
   </g>
   <g id="patch_6">
    <path d="M 10.7 10.7 
L 200.06 10.7 
" style="fill:none;stroke:#000000;stroke-linecap:square;stroke-linejoin:miter;stroke-width:0.8;"/>
   </g>
  </g>
 </g>
 <defs>
  <clipPath id="p86f8e7785a">
   <rect height="189.36" width="189.36" x="10.7" y="10.7"/>
  </clipPath>
 </defs>
</svg>
