<?xml version="1.0" encoding="utf-8" standalone="no"?>
<!DOCTYPE svg PUBLIC "-//W3C//DTD SVG 1.1//EN"
  "http://www.w3.org/Graphics/SVG/1.1/DTD/svg11.dtd">
<!-- Created with matplotlib (http://matplotlib.org/) -->
<svg height="210pt" version="1.1" viewBox="0 0 189 210" width="189pt" xmlns="http://www.w3.org/2000/svg" xmlns:xlink="http://www.w3.org/1999/xlink">
 <defs>
  <style type="text/css">
*{stroke-linecap:butt;stroke-linejoin:round;}
  </style>
 </defs>
 <g id="figure_1">
  <g id="patch_1">
   <path d="M 0 210.76 
L 189.16 210.76 
L 189.16 0 
L 0 0 
z
" style="fill:#ffffff;"/>
  </g>
  <g id="axes_1">
   <g id="patch_2">
    <path d="M 10.7 200.06 
L 178.46 200.06 
L 178.46 10.7 
L 10.7 10.7 
z
" style="fill:#ffffff;"/>
   </g>
   <g id="matplotlib.axis_1"/>
   <g id="matplotlib.axis_2"/>
   <g id="line2d_1">
    <path clip-path="url(#p0eed388701)" d="M 18.325455 197.005806 
L 59.086143 197.005806 
L 59.238804 193.271662 
L 60.154775 192.362373 
L 60.918084 191.903961 
L 61.681392 191.678667 
L 62.597363 191.638737 
L 63.818657 191.829076 
L 66.71923 192.618807 
L 69.31448 193.192472 
L 70.23045 193.337098 
L 70.383112 197.005806 
L 170.834545 197.005806 
L 170.834545 197.005806 
" style="fill:none;opacity:0.7;stroke:#000004;stroke-linecap:square;stroke-width:2;"/>
   </g>
   <g id="line2d_2">
    <path clip-path="url(#p0eed388701)" d="M 18.325455 197.005806 
L 57.559525 197.005806 
L 57.712187 193.249578 
L 59.544128 187.083568 
L 60.307437 185.43731 
L 60.918084 184.596631 
L 61.528731 184.122337 
L 62.139378 183.944851 
L 62.750025 183.993994 
L 63.513333 184.278305 
L 64.734627 185.019076 
L 68.093186 187.20758 
L 69.772465 187.982386 
L 71.604406 188.561397 
L 73.589009 188.951242 
L 76.184259 189.224453 
L 80.000803 189.383176 
L 88.091876 189.442627 
L 132.05846 189.527711 
L 132.516446 189.703502 
L 132.974431 190.152147 
L 133.432416 191.037864 
L 134.043063 192.88154 
L 134.195725 197.005806 
L 170.834545 197.005806 
L 170.834545 197.005806 
" style="fill:none;opacity:0.7;stroke:#050417;stroke-linecap:square;stroke-width:2;"/>
   </g>
   <g id="line2d_3">
    <path clip-path="url(#p0eed388701)" d="M 18.325455 197.005806 
L 170.834545 197.005806 
L 170.834545 197.005806 
" style="fill:none;opacity:0.7;stroke:#110a30;stroke-linecap:square;stroke-width:2;"/>
   </g>
   <g id="line2d_4">
    <path clip-path="url(#p0eed388701)" d="M 18.325455 197.005806 
L 57.712187 197.005806 
L 57.864848 192.925555 
L 59.391466 187.984075 
L 60.154775 186.291394 
L 60.765422 185.397199 
L 61.376069 184.865637 
L 61.986716 184.632664 
L 62.597363 184.631012 
L 63.360672 184.860275 
L 64.429304 185.436972 
L 68.703833 188.001745 
L 70.383112 188.651267 
L 72.215053 189.125746 
L 74.50498 189.474754 
L 77.558215 189.695095 
L 82.748714 189.807795 
L 98.625536 189.826954 
L 132.05846 189.907906 
L 132.516446 190.075191 
L 132.974431 190.501824 
L 133.432416 191.343298 
L 134.043063 193.09322 
L 134.195725 197.005806 
L 170.834545 197.005806 
L 170.834545 197.005806 
" style="fill:none;opacity:0.7;stroke:#210c4a;stroke-linecap:square;stroke-width:2;"/>
   </g>
   <g id="line2d_5">
    <path clip-path="url(#p0eed388701)" d="M 18.325455 197.005806 
L 59.544128 197.005806 
L 59.69679 193.221433 
L 60.460098 192.670138 
L 61.223407 192.350246 
L 62.139378 192.210946 
L 63.20801 192.278569 
L 65.039951 192.669951 
L 67.787862 193.324465 
L 67.940524 197.005806 
L 170.834545 197.005806 
L 170.834545 197.005806 
" style="fill:none;opacity:0.7;stroke:#340a5f;stroke-linecap:square;stroke-width:2;"/>
   </g>
   <g id="line2d_6">
    <path clip-path="url(#p0eed388701)" d="M 18.325455 197.005806 
L 57.559525 197.005806 
L 57.712187 193.249578 
L 59.544128 187.083568 
L 60.307437 185.43731 
L 60.918084 184.596631 
L 61.528731 184.122337 
L 62.139378 183.944851 
L 62.750025 183.993994 
L 63.513333 184.278305 
L 64.734627 185.019076 
L 68.093186 187.20758 
L 69.772465 187.982386 
L 71.604406 188.561397 
L 73.589009 188.951242 
L 76.184259 189.224453 
L 80.000803 189.383176 
L 88.091876 189.442627 
L 132.05846 189.527711 
L 132.516446 189.703502 
L 132.974431 190.152147 
L 133.432416 191.037864 
L 134.043063 192.88154 
L 134.195725 197.005806 
L 170.834545 197.005806 
L 170.834545 197.005806 
" style="fill:none;opacity:0.7;stroke:#450a69;stroke-linecap:square;stroke-width:2;"/>
   </g>
   <g id="line2d_7">
    <path clip-path="url(#p0eed388701)" d="M 18.325455 197.005806 
L 56.643554 197.005806 
L 56.948878 192.213656 
L 57.559525 186.653098 
L 59.544128 166.359188 
L 60.154775 162.338571 
L 60.765422 159.633415 
L 61.223407 158.374996 
L 61.681392 157.679157 
L 62.139378 157.452379 
L 62.444701 157.516848 
L 62.902686 157.874377 
L 63.513333 158.720926 
L 64.429304 160.482749 
L 68.093186 168.090527 
L 69.31448 169.955113 
L 70.535774 171.41571 
L 71.757068 172.527952 
L 72.978362 173.359118 
L 74.352318 174.037619 
L 76.031597 174.604135 
L 78.0162 175.032532 
L 80.764111 175.386243 
L 85.343964 175.717283 
L 95.572301 176.180845 
L 127.020622 177.410768 
L 131.753137 177.667796 
L 132.211122 177.881463 
L 132.516446 178.209858 
L 132.821769 178.828614 
L 133.127093 179.88663 
L 133.585078 182.490347 
L 134.195725 187.572396 
L 134.65371 191.949969 
L 134.806372 197.005806 
L 170.834545 197.005806 
L 170.834545 197.005806 
" style="fill:none;opacity:0.7;stroke:#57106e;stroke-linecap:square;stroke-width:2;"/>
   </g>
   <g id="line2d_8">
    <path clip-path="url(#p0eed388701)" d="M 18.325455 197.005806 
L 170.834545 197.005806 
L 170.834545 197.005806 
" style="fill:none;opacity:0.7;stroke:#69166e;stroke-linecap:square;stroke-width:2;"/>
   </g>
   <g id="line2d_9">
    <path clip-path="url(#p0eed388701)" d="M 18.325455 197.005806 
L 61.528731 197.005806 
L 61.681392 193.329994 
L 62.902686 193.320798 
L 63.055348 193.334133 
L 63.20801 197.005806 
L 170.834545 197.005806 
L 170.834545 197.005806 
" style="fill:none;opacity:0.7;stroke:#7a1d6d;stroke-linecap:square;stroke-width:2;"/>
   </g>
   <g id="line2d_10">
    <path clip-path="url(#p0eed388701)" d="M 18.325455 197.005806 
L 170.834545 197.005806 
L 170.834545 197.005806 
" style="fill:none;opacity:0.7;stroke:#8c2369;stroke-linecap:square;stroke-width:2;"/>
   </g>
   <g id="line2d_11">
    <path clip-path="url(#p0eed388701)" d="M 18.325455 197.005806 
L 55.42226 197.005806 
L 55.727584 191.357375 
L 56.032907 186.606727 
L 56.490893 174.916144 
L 57.10154 152.146984 
L 58.780819 85.463539 
L 59.544128 65.347994 
L 60.154775 54.951727 
L 60.61276 50.11554 
L 61.070745 47.444603 
L 61.376069 46.689925 
L 61.528731 46.581012 
L 61.681392 46.634134 
L 61.986716 47.177869 
L 62.444701 48.916031 
L 63.055348 52.52576 
L 63.971319 59.615627 
L 67.177215 85.884173 
L 68.398509 93.60799 
L 69.467142 99.064861 
L 70.535774 103.431056 
L 71.604406 106.873929 
L 72.673038 109.566486 
L 73.741671 111.667144 
L 74.810303 113.311321 
L 76.031597 114.772337 
L 77.405553 116.034168 
L 78.93217 117.11622 
L 80.764111 118.136646 
L 83.359361 119.299159 
L 87.175905 120.736055 
L 128.54724 134.968472 
L 131.600475 136.060752 
L 132.05846 136.427964 
L 132.363784 136.898797 
L 132.669107 137.776793 
L 132.974431 139.414301 
L 133.279754 142.280122 
L 133.73774 149.698416 
L 134.348387 165.11208 
L 135.417019 197.005806 
L 170.834545 197.005806 
L 170.834545 197.005806 
" style="fill:none;opacity:0.7;stroke:#9b2964;stroke-linecap:square;stroke-width:2;"/>
   </g>
   <g id="line2d_12">
    <path clip-path="url(#p0eed388701)" d="M 18.325455 197.005806 
L 55.880246 197.005806 
L 56.185569 191.608572 
L 56.643554 184.647724 
L 57.254201 169.519463 
L 59.238804 112.896811 
L 59.849451 101.580447 
L 60.460098 93.970891 
L 60.918084 90.444179 
L 61.376069 88.514012 
L 61.681392 87.98429 
L 61.986716 87.970558 
L 62.292039 88.399623 
L 62.750025 89.724847 
L 63.360672 92.446873 
L 64.276642 97.768552 
L 67.482539 117.464997 
L 68.703833 123.274484 
L 69.772465 127.391669 
L 70.841097 130.698571 
L 71.90973 133.318839 
L 72.978362 135.380406 
L 74.046994 137.000475 
L 75.268288 138.439097 
L 76.489582 139.551861 
L 78.0162 140.62243 
L 79.848141 141.600754 
L 82.138067 142.55053 
L 85.496626 143.675217 
L 90.22914 145.013993 
L 101.373448 147.938204 
L 112.670418 150.671121 
L 124.120049 153.211918 
L 131.753137 154.927727 
L 132.211122 155.340252 
L 132.516446 155.928397 
L 132.821769 157.032133 
L 133.127093 158.974142 
L 133.585078 164.034252 
L 134.195725 174.624171 
L 134.959034 190.662166 
L 135.111695 197.005806 
L 170.834545 197.005806 
L 170.834545 197.005806 
" style="fill:none;opacity:0.7;stroke:#ad305d;stroke-linecap:square;stroke-width:2;"/>
   </g>
   <g id="line2d_13">
    <path clip-path="url(#p0eed388701)" d="M 18.325455 197.005806 
L 61.528731 197.005806 
L 61.681392 193.333041 
L 62.902686 193.323852 
L 63.055348 193.337175 
L 63.20801 197.005806 
L 170.834545 197.005806 
L 170.834545 197.005806 
" style="fill:none;opacity:0.7;stroke:#bd3853;stroke-linecap:square;stroke-width:2;"/>
   </g>
   <g id="line2d_14">
    <path clip-path="url(#p0eed388701)" d="M 18.325455 197.005806 
L 170.834545 197.005806 
L 170.834545 197.005806 
" style="fill:none;opacity:0.7;stroke:#cc4248;stroke-linecap:square;stroke-width:2;"/>
   </g>
   <g id="line2d_15">
    <path clip-path="url(#p0eed388701)" d="M 18.325455 197.005806 
L 58.322834 197.005806 
L 58.475495 193.116488 
L 59.544128 191.110343 
L 60.307437 190.131104 
L 61.070745 189.539826 
L 61.834054 189.272249 
L 62.597363 189.247328 
L 63.665995 189.476609 
L 65.497936 190.181557 
L 68.245848 191.209657 
L 70.383112 191.751682 
L 72.8257 192.120075 
L 76.031597 192.350437 
L 81.222097 192.464051 
L 96.946257 192.486431 
L 132.363784 192.596626 
L 132.821769 192.800161 
L 133.279754 193.237981 
L 133.432416 197.005806 
L 170.834545 197.005806 
L 170.834545 197.005806 
" style="fill:none;opacity:0.7;stroke:#d94d3d;stroke-linecap:square;stroke-width:2;"/>
   </g>
   <g id="line2d_16">
    <path clip-path="url(#p0eed388701)" d="M 18.325455 197.005806 
L 55.880246 197.005806 
L 56.185569 191.608572 
L 56.643554 184.647724 
L 57.254201 169.519463 
L 59.238804 112.896811 
L 59.849451 101.580447 
L 60.460098 93.970891 
L 60.918084 90.444179 
L 61.376069 88.514012 
L 61.681392 87.98429 
L 61.986716 87.970558 
L 62.292039 88.399623 
L 62.750025 89.724847 
L 63.360672 92.446873 
L 64.276642 97.768552 
L 67.482539 117.464997 
L 68.703833 123.274484 
L 69.772465 127.391669 
L 70.841097 130.698571 
L 71.90973 133.318839 
L 72.978362 135.380406 
L 74.046994 137.000475 
L 75.268288 138.439097 
L 76.489582 139.551861 
L 78.0162 140.62243 
L 79.848141 141.600754 
L 82.138067 142.55053 
L 85.496626 143.675217 
L 90.22914 145.013993 
L 101.373448 147.938204 
L 112.670418 150.671121 
L 124.120049 153.211918 
L 131.753137 154.927727 
L 132.211122 155.340252 
L 132.516446 155.928397 
L 132.821769 157.032133 
L 133.127093 158.974142 
L 133.585078 164.034252 
L 134.195725 174.624171 
L 134.959034 190.662166 
L 135.111695 197.005806 
L 170.834545 197.005806 
L 170.834545 197.005806 
" style="fill:none;opacity:0.7;stroke:#e55c30;stroke-linecap:square;stroke-width:2;"/>
   </g>
   <g id="line2d_17">
    <path clip-path="url(#p0eed388701)" d="M 18.325455 197.005806 
L 170.834545 197.005806 
L 170.834545 197.005806 
" style="fill:none;opacity:0.7;stroke:#ef6c23;stroke-linecap:square;stroke-width:2;"/>
   </g>
   <g id="line2d_18">
    <path clip-path="url(#p0eed388701)" d="M 18.325455 197.005806 
L 170.834545 197.005806 
L 170.834545 197.005806 
" style="fill:none;opacity:0.7;stroke:#f67e14;stroke-linecap:square;stroke-width:2;"/>
   </g>
   <g id="line2d_19">
    <path clip-path="url(#p0eed388701)" d="M 18.325455 197.005806 
L 56.643554 197.005806 
L 56.948878 191.525591 
L 57.559525 185.231966 
L 59.544128 162.494159 
L 60.154775 158.020397 
L 60.765422 155.022947 
L 61.223407 153.637786 
L 61.681392 152.881843 
L 61.986716 152.675413 
L 62.292039 152.67131 
L 62.750025 152.981516 
L 63.20801 153.592351 
L 63.971319 155.070447 
L 65.345274 158.416771 
L 67.329877 163.17052 
L 68.551171 165.573718 
L 69.772465 167.503184 
L 70.993759 168.998595 
L 72.215053 170.130599 
L 73.436347 170.974898 
L 74.810303 171.665681 
L 76.489582 172.24749 
L 78.626847 172.723484 
L 81.52742 173.115308 
L 86.412596 173.514031 
L 99.083522 174.23416 
L 125.799328 175.571611 
L 131.753137 175.937634 
L 132.211122 176.169576 
L 132.516446 176.523689 
L 132.821769 177.190458 
L 133.127093 178.332538 
L 133.585078 181.153091 
L 134.195725 186.681759 
L 134.806372 193.058358 
L 134.959034 197.005806 
L 170.834545 197.005806 
L 170.834545 197.005806 
" style="fill:none;opacity:0.7;stroke:#fa9207;stroke-linecap:square;stroke-width:2;"/>
   </g>
   <g id="line2d_20">
    <path clip-path="url(#p0eed388701)" d="M 18.325455 197.005806 
L 170.834545 197.005806 
L 170.834545 197.005806 
" style="fill:none;opacity:0.7;stroke:#fca50a;stroke-linecap:square;stroke-width:2;"/>
   </g>
   <g id="patch_3">
    <path d="M 10.7 200.06 
L 10.7 10.7 
" style="fill:none;stroke:#000000;stroke-linecap:square;stroke-linejoin:miter;stroke-width:0.8;"/>
   </g>
   <g id="patch_4">
    <path d="M 10.7 200.06 
L 178.46 200.06 
" style="fill:none;stroke:#000000;stroke-linecap:square;stroke-linejoin:miter;stroke-width:0.8;"/>
   </g>
  </g>
 </g>
 <defs>
  <clipPath id="p0eed388701">
   <rect height="189.36" width="167.76" x="10.7" y="10.7"/>
  </clipPath>
 </defs>
</svg>
