<?xml version="1.0" encoding="utf-8" standalone="no"?>
<!DOCTYPE svg PUBLIC "-//W3C//DTD SVG 1.1//EN"
  "http://www.w3.org/Graphics/SVG/1.1/DTD/svg11.dtd">
<!-- Created with matplotlib (http://matplotlib.org/) -->
<svg height="210pt" version="1.1" viewBox="0 0 210 210" width="210pt" xmlns="http://www.w3.org/2000/svg" xmlns:xlink="http://www.w3.org/1999/xlink">
 <defs>
  <style type="text/css">
*{stroke-linecap:butt;stroke-linejoin:round;}
  </style>
 </defs>
 <g id="figure_1">
  <g id="patch_1">
   <path d="M 0 210.76 
L 210.76 210.76 
L 210.76 0 
L 0 0 
z
" style="fill:#ffffff;"/>
  </g>
  <g id="axes_1">
   <g id="patch_2">
    <path d="M 10.7 200.06 
L 200.06 200.06 
L 200.06 10.7 
L 10.7 10.7 
z
" style="fill:#ffffff;"/>
   </g>
   <g id="matplotlib.axis_1"/>
   <g id="matplotlib.axis_2"/>
   <g id="line2d_1">
    <path clip-path="url(#p43168427e2)" d="M 19.307273 191.826957 
L 64.799165 191.826957 
L 64.971482 94.841947 
L 65.833071 66.29736 
L 66.522342 49.30413 
L 67.211613 37.604764 
L 67.728567 31.968906 
L 68.24552 28.644368 
L 68.590156 27.52869 
L 68.934791 27.166087 
L 69.107109 27.234287 
L 69.451744 27.807157 
L 69.79638 28.883791 
L 70.313333 31.255151 
L 71.174922 36.60924 
L 72.8981 49.498669 
L 74.621278 61.879326 
L 75.99982 70.174037 
L 77.206044 76.068251 
L 78.239951 80.161075 
L 79.273857 83.468884 
L 80.307764 86.103836 
L 81.341671 88.177798 
L 82.375577 89.793824 
L 83.409484 91.042228 
L 84.615708 92.13535 
L 85.821933 92.930344 
L 87.200475 93.57171 
L 88.751335 94.053653 
L 90.819148 94.441241 
L 93.576233 94.701298 
L 97.539541 94.828728 
L 129.073694 94.830703 
L 146.650106 94.932719 
L 147.16706 95.166486 
L 147.511695 95.567016 
L 147.856331 96.418782 
L 148.200966 98.148309 
L 148.373284 99.536465 
L 148.545602 191.826957 
L 191.452727 191.826957 
L 191.452727 191.826957 
" style="fill:none;opacity:0.7;stroke:#6f196e;stroke-linecap:square;stroke-width:2;"/>
   </g>
   <g id="line2d_2">
    <path clip-path="url(#p43168427e2)" d="M 19.307273 191.826957 
L 68.417838 191.826957 
L 68.590156 27.532818 
L 68.934791 27.166087 
L 69.107109 27.22616 
L 69.451744 27.772279 
L 69.624062 191.826957 
L 191.452727 191.826957 
L 191.452727 191.826957 
" style="fill:none;opacity:0.7;stroke:#c73e4c;stroke-linecap:square;stroke-width:2;"/>
   </g>
   <g id="line2d_3">
    <path clip-path="url(#p43168427e2)" d="M 19.307273 191.826957 
L 62.04208 191.826957 
L 62.214398 183.400591 
L 62.559034 177.097269 
L 63.075987 162.600695 
L 63.937576 129.137325 
L 65.316118 75.548816 
L 66.177707 51.554271 
L 66.866978 38.728046 
L 67.383931 32.512228 
L 67.900885 28.825665 
L 68.24552 27.579489 
L 68.590156 27.166087 
L 68.762473 27.236181 
L 69.107109 27.862138 
L 69.451744 29.050613 
L 69.968698 31.682265 
L 70.830287 37.655816 
L 72.381147 50.666783 
L 74.276642 66.23151 
L 75.655184 75.785311 
L 76.861409 82.669701 
L 78.067633 88.248211 
L 79.273857 92.684937 
L 80.307764 95.725033 
L 81.513989 98.548578 
L 82.720213 100.753848 
L 83.926437 102.48364 
L 85.132662 103.853549 
L 86.511204 105.094105 
L 88.062064 106.195571 
L 89.957559 107.261097 
L 92.370008 108.347453 
L 95.816364 109.626981 
L 100.296626 111.034908 
L 110.80801 114.112524 
L 121.836347 117.10702 
L 133.20932 119.964459 
L 145.271564 122.763992 
L 146.994742 123.267063 
L 147.511695 123.662443 
L 147.856331 124.214114 
L 148.200966 125.277457 
L 148.545602 127.274483 
L 148.890238 130.73458 
L 149.407191 139.478806 
L 150.096462 157.1015 
L 150.958051 183.010337 
L 151.130369 191.826957 
L 191.452727 191.826957 
L 191.452727 191.826957 
" style="fill:none;opacity:0.7;stroke:#d34743;stroke-linecap:square;stroke-width:2;"/>
   </g>
   <g id="line2d_4">
    <path clip-path="url(#p43168427e2)" d="M 19.307273 191.826957 
L 66.177707 191.826957 
L 66.350025 52.72722 
L 67.039296 39.92059 
L 67.556249 33.517272 
L 68.073202 29.508482 
L 68.417838 27.988298 
L 68.762473 27.263403 
L 68.934791 27.166087 
L 69.107109 27.228472 
L 69.451744 27.783499 
L 69.79638 28.835225 
L 70.313333 31.158859 
L 71.174922 36.415054 
L 72.725782 47.792566 
L 73.759689 55.392204 
L 73.932007 191.826957 
L 191.452727 191.826957 
L 191.452727 191.826957 
" style="fill:none;opacity:0.7;stroke:#e8602d;stroke-linecap:square;stroke-width:2;"/>
   </g>
   <g id="line2d_5">
    <path clip-path="url(#p43168427e2)" d="M 19.307273 191.826957 
L 61.525127 191.826957 
L 61.869762 183.749802 
L 62.214398 177.52708 
L 62.731351 163.151345 
L 63.59294 129.782223 
L 64.971482 76.065578 
L 65.833071 51.920303 
L 66.522342 38.972579 
L 67.039296 32.672744 
L 67.556249 28.910895 
L 67.900885 27.619901 
L 68.24552 27.166087 
L 68.417838 27.217617 
L 68.762473 27.809658 
L 69.107109 28.968359 
L 69.624062 31.56265 
L 70.485651 37.491331 
L 72.036511 50.464983 
L 74.104324 67.327239 
L 75.482867 76.686093 
L 76.689091 83.408871 
L 77.895315 88.851275 
L 79.10154 93.183035 
L 80.307764 96.596624 
L 81.513989 99.276383 
L 82.720213 101.384188 
L 83.926437 103.054771 
L 85.30498 104.566189 
L 86.855839 105.904751 
L 88.579017 107.089292 
L 90.819148 108.334236 
L 93.74855 109.687935 
L 97.711859 111.270628 
L 110.980328 116.11844 
L 123.214889 120.361569 
L 134.932498 124.190463 
L 147.339378 128.163418 
L 147.684013 128.487582 
L 148.028649 129.067175 
L 148.373284 130.156874 
L 148.71792 132.166732 
L 149.062555 135.594009 
L 149.579509 144.095302 
L 150.26878 160.901174 
L 151.475004 191.826957 
L 191.452727 191.826957 
L 191.452727 191.826957 
" style="fill:none;opacity:0.7;stroke:#ef6e21;stroke-linecap:square;stroke-width:2;"/>
   </g>
   <g id="line2d_6">
    <path clip-path="url(#p43168427e2)" d="M 19.307273 191.826957 
L 62.903669 191.826957 
L 63.075987 167.33761 
L 63.765258 142.872025 
L 65.660753 70.443884 
L 66.350025 52.085104 
L 67.039296 39.248934 
L 67.556249 32.943818 
L 68.073202 29.108221 
L 68.417838 27.734683 
L 68.762473 27.175153 
L 68.934791 27.166087 
L 69.107109 27.31974 
L 69.451744 28.064505 
L 69.968698 30.097808 
L 70.657969 34.076301 
L 71.691876 41.643475 
L 74.793595 65.423058 
L 75.99982 72.908176 
L 77.206044 79.069789 
L 78.412269 83.993954 
L 79.446175 87.353114 
L 80.480082 90.040707 
L 81.513989 92.171344 
L 82.547895 93.849185 
L 83.75412 95.354267 
L 84.960344 96.484632 
L 86.338886 97.437674 
L 87.889746 98.203553 
L 89.612924 98.799784 
L 91.853055 99.328521 
L 94.954775 99.816003 
L 99.090401 100.240958 
L 125.45502 102.44135 
L 146.822424 104.204024 
L 147.339378 104.534118 
L 147.684013 105.05615 
L 148.028649 106.123769 
L 148.373284 108.215873 
L 148.71792 111.98323 
L 149.062555 118.015308 
L 149.579509 131.605843 
L 150.441097 162.326593 
L 150.613415 168.898006 
L 150.785733 191.826957 
L 191.452727 191.826957 
L 191.452727 191.826957 
" style="fill:none;opacity:0.7;stroke:#f67e14;stroke-linecap:square;stroke-width:2;"/>
   </g>
   <g id="line2d_7">
    <path clip-path="url(#p43168427e2)" d="M 19.307273 191.826957 
L 63.420622 191.826957 
L 63.59294 150.249832 
L 66.005389 61.630469 
L 66.69466 45.855644 
L 67.383931 35.355582 
L 67.900885 30.536628 
L 68.417838 27.932978 
L 68.762473 27.240535 
L 68.934791 27.166087 
L 69.107109 27.255217 
L 69.451744 27.873837 
L 69.968698 29.726053 
L 70.657969 33.479638 
L 71.691876 40.745615 
L 74.965913 64.962666 
L 76.172138 72.062984 
L 77.378362 77.867433 
L 78.412269 81.881686 
L 79.446175 85.116483 
L 80.480082 87.687063 
L 81.513989 89.706276 
L 82.547895 91.276944 
L 83.581802 92.48852 
L 84.788026 93.547943 
L 85.994251 94.317436 
L 87.372793 94.937497 
L 89.095971 95.443146 
L 91.163784 95.798963 
L 93.920868 96.037108 
L 97.884177 96.146498 
L 146.822424 96.294804 
L 147.339378 96.63086 
L 147.684013 97.201354 
L 148.028649 98.394305 
L 148.373284 100.744939 
L 148.71792 104.961259 
L 149.062555 111.654322 
L 149.579509 126.554456 
L 150.096462 145.796752 
L 150.26878 191.826957 
L 191.452727 191.826957 
L 191.452727 191.826957 
" style="fill:none;opacity:0.7;stroke:#fca108;stroke-linecap:square;stroke-width:2;"/>
   </g>
   <g id="patch_3">
    <path d="M 10.7 200.06 
L 10.7 10.7 
" style="fill:none;stroke:#000000;stroke-linecap:square;stroke-linejoin:miter;stroke-width:0.8;"/>
   </g>
   <g id="patch_4">
    <path d="M 200.06 200.06 
L 200.06 10.7 
" style="fill:none;stroke:#000000;stroke-linecap:square;stroke-linejoin:miter;stroke-width:0.8;"/>
   </g>
   <g id="patch_5">
    <path d="M 10.7 200.06 
L 200.06 200.06 
" style="fill:none;stroke:#000000;stroke-linecap:square;stroke-linejoin:miter;stroke-width:0.8;"/>
   </g>
   <g id="patch_6">
    <path d="M 10.7 10.7 
L 200.06 10.7 
" style="fill:none;stroke:#000000;stroke-linecap:square;stroke-linejoin:miter;stroke-width:0.8;"/>
   </g>
  </g>
 </g>
 <defs>
  <clipPath id="p43168427e2">
   <rect height="189.36" width="189.36" x="10.7" y="10.7"/>
  </clipPath>
 </defs>
</svg>
