<?xml version="1.0" encoding="utf-8" standalone="no"?>
<!DOCTYPE svg PUBLIC "-//W3C//DTD SVG 1.1//EN"
  "http://www.w3.org/Graphics/SVG/1.1/DTD/svg11.dtd">
<!-- Created with matplotlib (http://matplotlib.org/) -->
<svg height="210pt" version="1.1" viewBox="0 0 210 210" width="210pt" xmlns="http://www.w3.org/2000/svg" xmlns:xlink="http://www.w3.org/1999/xlink">
 <defs>
  <style type="text/css">
*{stroke-linecap:butt;stroke-linejoin:round;}
  </style>
 </defs>
 <g id="figure_1">
  <g id="patch_1">
   <path d="M 0 210.76 
L 210.76 210.76 
L 210.76 0 
L 0 0 
z
" style="fill:#ffffff;"/>
  </g>
  <g id="axes_1">
   <g id="patch_2">
    <path d="M 10.7 200.06 
L 200.06 200.06 
L 200.06 10.7 
L 10.7 10.7 
z
" style="fill:#ffffff;"/>
   </g>
   <g id="matplotlib.axis_1"/>
   <g id="matplotlib.axis_2"/>
   <g id="line2d_1">
    <path clip-path="url(#pa3e2534882)" d="M 19.307273 191.826957 
L 63.937576 191.826957 
L 64.109894 131.417179 
L 65.488436 77.970446 
L 66.350025 53.58138 
L 67.039296 40.28194 
L 67.556249 33.653923 
L 68.073202 29.52504 
L 68.417838 27.973928 
L 68.762473 27.251335 
L 68.934791 27.166087 
L 69.107109 27.247037 
L 69.451744 27.856482 
L 69.968698 29.710459 
L 70.657969 33.489071 
L 71.691876 40.824626 
L 74.965913 65.329348 
L 76.172138 72.521492 
L 77.378362 78.402695 
L 78.412269 82.470857 
L 79.446175 85.74958 
L 80.480082 88.355383 
L 81.513989 90.402473 
L 82.547895 91.994965 
L 83.581802 93.223468 
L 84.788026 94.297765 
L 85.994251 95.078114 
L 87.372793 95.706959 
L 89.095971 96.219804 
L 91.163784 96.580707 
L 93.920868 96.822273 
L 97.884177 96.933453 
L 146.822424 97.086934 
L 147.16706 97.271642 
L 147.511695 97.674204 
L 147.856331 98.531227 
L 148.200966 100.274928 
L 148.545602 103.558371 
L 148.890238 109.092558 
L 149.407191 122.372083 
L 149.751826 134.176809 
L 149.924144 191.826957 
L 191.452727 191.826957 
L 191.452727 191.826957 
" style="fill:none;opacity:0.7;stroke:#420a68;stroke-linecap:square;stroke-width:2;"/>
   </g>
   <g id="line2d_2">
    <path clip-path="url(#pa3e2534882)" d="M 19.307273 191.826957 
L 63.937576 191.826957 
L 64.109894 131.411534 
L 65.488436 77.965117 
L 66.350025 53.577437 
L 67.039296 40.279212 
L 67.556249 33.652056 
L 68.073202 29.523954 
L 68.417838 27.973309 
L 68.762473 27.25114 
L 68.934791 27.166087 
L 69.107109 27.247221 
L 69.451744 27.857002 
L 69.968698 29.711406 
L 70.657969 33.49046 
L 71.691876 40.826452 
L 74.965913 65.331529 
L 76.172138 72.523629 
L 77.378362 78.404763 
L 78.412269 82.47286 
L 79.446175 85.751521 
L 80.480082 88.357269 
L 81.513989 90.404313 
L 82.547895 91.996764 
L 83.581802 93.225235 
L 84.788026 94.299502 
L 85.994251 95.079828 
L 87.372793 95.708655 
L 89.095971 96.221484 
L 91.163784 96.582375 
L 93.920868 96.823932 
L 97.884177 96.935104 
L 146.822424 97.08852 
L 147.16706 97.273149 
L 147.511695 97.675544 
L 147.856331 98.532227 
L 148.200966 100.275296 
L 148.545602 103.557727 
L 148.890238 109.090598 
L 149.407191 122.368201 
L 149.751826 134.172089 
L 149.924144 191.826957 
L 191.452727 191.826957 
L 191.452727 191.826957 
" style="fill:none;opacity:0.7;stroke:#510e6c;stroke-linecap:square;stroke-width:2;"/>
   </g>
   <g id="line2d_3">
    <path clip-path="url(#pa3e2534882)" d="M 19.307273 191.826957 
L 63.937576 191.826957 
L 64.109894 131.411534 
L 65.488436 77.965117 
L 66.350025 53.577437 
L 67.039296 40.279212 
L 67.556249 33.652056 
L 68.073202 29.523954 
L 68.417838 27.973309 
L 68.762473 27.25114 
L 68.934791 27.166087 
L 69.107109 27.247221 
L 69.451744 27.857002 
L 69.968698 29.711406 
L 70.657969 33.49046 
L 71.691876 40.826452 
L 74.965913 65.331529 
L 76.172138 72.523629 
L 77.378362 78.404763 
L 78.412269 82.47286 
L 79.446175 85.751521 
L 80.480082 88.357269 
L 81.513989 90.404313 
L 82.547895 91.996764 
L 83.581802 93.225235 
L 84.788026 94.299502 
L 85.994251 95.079828 
L 87.372793 95.708655 
L 89.095971 96.221484 
L 91.163784 96.582375 
L 93.920868 96.823932 
L 97.884177 96.935104 
L 146.822424 97.08852 
L 147.16706 97.273149 
L 147.511695 97.675544 
L 147.856331 98.532227 
L 148.200966 100.275296 
L 148.545602 103.557727 
L 148.890238 109.090598 
L 149.407191 122.368201 
L 149.751826 134.172089 
L 149.924144 191.826957 
L 191.452727 191.826957 
L 191.452727 191.826957 
" style="fill:none;opacity:0.7;stroke:#8d2369;stroke-linecap:square;stroke-width:2;"/>
   </g>
   <g id="line2d_4">
    <path clip-path="url(#pa3e2534882)" d="M 19.307273 191.826957 
L 65.1438 191.826957 
L 65.316118 84.137422 
L 66.177707 57.996017 
L 66.866978 43.282854 
L 67.383931 35.696039 
L 67.900885 30.729332 
L 68.417838 28.013318 
L 68.762473 27.264004 
L 68.934791 27.166087 
L 69.107109 27.234845 
L 69.451744 27.821359 
L 69.79638 28.926127 
L 70.313333 31.361517 
L 71.174922 36.863023 
L 72.8981 50.112077 
L 74.621278 62.840653 
L 75.99982 71.369232 
L 77.206044 77.429925 
L 78.239951 81.638479 
L 79.273857 85.039898 
L 80.307764 87.749467 
L 80.480082 88.141975 
L 80.6524 191.826957 
L 191.452727 191.826957 
L 191.452727 191.826957 
" style="fill:none;opacity:0.7;stroke:#9b2964;stroke-linecap:square;stroke-width:2;"/>
   </g>
   <g id="line2d_5">
    <path clip-path="url(#pa3e2534882)" d="M 19.307273 191.826957 
L 62.559034 191.826957 
L 62.731351 176.508528 
L 63.248305 161.602015 
L 64.109894 127.921798 
L 65.488436 74.825177 
L 66.177707 55.220614 
L 66.866978 41.250324 
L 67.383931 34.227424 
L 67.900885 29.804109 
L 68.24552 28.111106 
L 68.590156 27.287474 
L 68.762473 27.166087 
L 68.934791 27.219929 
L 69.279427 27.800487 
L 69.624062 28.928122 
L 70.141016 31.444068 
L 71.002604 37.175502 
L 72.553464 49.665446 
L 74.44896 64.564873 
L 75.827502 73.664301 
L 77.033726 80.183135 
L 78.239951 85.426959 
L 79.273857 89.028445 
L 80.307764 91.930784 
L 81.341671 94.251558 
L 82.375577 96.09837 
L 83.581802 97.778401 
L 84.788026 99.06453 
L 86.166568 100.17748 
L 87.717428 101.10612 
L 89.440606 101.868134 
L 91.680737 102.596636 
L 94.782457 103.342842 
L 98.745766 104.06732 
L 115.115954 106.649123 
L 132.692367 109.196046 
L 146.994742 111.283237 
L 147.339378 111.532072 
L 147.684013 112.018951 
L 148.028649 112.993922 
L 148.373284 114.891673 
L 148.71792 118.314231 
L 149.062555 123.825503 
L 149.579509 136.349148 
L 150.441097 164.943943 
L 150.613415 171.090334 
L 150.785733 191.826957 
L 191.452727 191.826957 
L 191.452727 191.826957 
" style="fill:none;opacity:0.7;stroke:#ab2f5e;stroke-linecap:square;stroke-width:2;"/>
   </g>
   <g id="line2d_6">
    <path clip-path="url(#pa3e2534882)" d="M 19.307273 191.826957 
L 63.075987 191.826957 
L 63.248305 163.38301 
L 64.109894 130.318269 
L 65.488436 76.972758 
L 66.350025 52.833098 
L 67.039296 39.753645 
L 67.556249 33.285618 
L 68.073202 29.306158 
L 68.417838 27.84735 
L 68.762473 27.210748 
L 68.934791 27.166087 
L 69.107109 27.286022 
L 69.451744 27.9687 
L 69.968698 29.921132 
L 70.657969 33.811491 
L 71.691876 41.279253 
L 74.965913 66.028073 
L 76.172138 73.276026 
L 77.378362 79.205655 
L 78.412269 83.312196 
L 79.446175 86.627896 
L 80.480082 89.270115 
L 81.513989 91.353543 
L 82.547895 92.982545 
L 83.581802 94.247842 
L 84.788026 95.365454 
L 85.994251 96.1895 
L 87.372793 96.868659 
L 89.095971 97.44478 
L 91.163784 97.881892 
L 93.920868 98.225098 
L 97.884177 98.481226 
L 131.830778 99.66974 
L 146.650106 100.247947 
L 147.16706 100.478582 
L 147.511695 100.857056 
L 147.856331 101.652208 
L 148.200966 103.265857 
L 148.545602 106.316806 
L 148.890238 111.501107 
L 149.407191 124.091821 
L 150.096462 148.281246 
L 150.441097 161.976692 
L 150.613415 191.826957 
L 191.452727 191.826957 
L 191.452727 191.826957 
" style="fill:none;opacity:0.7;stroke:#b93556;stroke-linecap:square;stroke-width:2;"/>
   </g>
   <g id="line2d_7">
    <path clip-path="url(#pa3e2534882)" d="M 19.307273 191.826957 
L 61.525127 191.826957 
L 61.869762 183.725241 
L 62.214398 177.363742 
L 62.731351 162.782533 
L 63.59294 129.231288 
L 64.971482 75.599407 
L 65.833071 51.594795 
L 66.522342 38.759872 
L 67.039296 32.535999 
L 67.556249 28.839994 
L 67.900885 27.58686 
L 68.24552 27.166087 
L 68.417838 27.232377 
L 68.762473 27.850567 
L 69.107109 29.031163 
L 69.624062 31.651046 
L 70.485651 37.606 
L 72.036511 50.59033 
L 74.104324 67.429085 
L 75.482867 76.764269 
L 76.689091 83.466192 
L 77.895315 88.889359 
L 79.10154 93.204175 
L 80.307764 96.603238 
L 81.513989 99.270733 
L 82.720213 101.368258 
L 83.926437 103.030235 
L 85.30498 104.533492 
L 86.855839 105.864561 
L 88.579017 107.042383 
L 90.819148 108.280458 
L 93.74855 109.627456 
L 97.711859 111.203736 
L 111.669599 116.293401 
L 124.248796 120.652953 
L 136.138722 124.538583 
L 147.339378 128.156809 
L 147.684013 128.479084 
L 148.028649 129.053854 
L 148.373284 130.133694 
L 148.71792 132.127091 
L 149.062555 135.533185 
L 149.579509 144.009358 
L 150.26878 160.82778 
L 151.475004 191.826957 
L 191.452727 191.826957 
L 191.452727 191.826957 
" style="fill:none;opacity:0.7;stroke:#c73e4c;stroke-linecap:square;stroke-width:2;"/>
   </g>
   <g id="line2d_8">
    <path clip-path="url(#pa3e2534882)" d="M 19.307273 191.826957 
L 61.869762 191.826957 
L 62.214398 182.660188 
L 62.559034 175.755377 
L 63.075987 160.399101 
L 64.109894 118.993401 
L 65.316118 73.165347 
L 66.005389 53.809792 
L 66.69466 40.17206 
L 67.211613 33.43037 
L 67.728567 29.302451 
L 68.073202 27.809933 
L 68.417838 27.187291 
L 68.590156 27.166087 
L 68.762473 27.319678 
L 69.107109 28.09787 
L 69.624062 30.255159 
L 70.313333 34.509826 
L 71.34724 42.654591 
L 74.621278 69.822267 
L 75.99982 78.93837 
L 77.206044 85.437817 
L 78.412269 90.674477 
L 79.618493 94.828789 
L 80.824717 98.095348 
L 82.030942 100.656183 
L 83.237166 102.668946 
L 84.443391 104.26366 
L 85.821933 105.706171 
L 87.372793 106.983203 
L 89.095971 108.111927 
L 91.336102 109.294466 
L 94.265504 110.571336 
L 98.056495 111.980596 
L 107.878608 115.262951 
L 118.217674 118.482403 
L 128.729058 121.523331 
L 139.757396 124.479709 
L 146.994742 126.409099 
L 147.511695 126.78756 
L 147.856331 127.298541 
L 148.200966 128.272187 
L 148.545602 130.099684 
L 148.890238 133.287378 
L 149.407191 141.451157 
L 150.096462 158.174266 
L 150.958051 183.076199 
L 151.130369 191.826957 
L 191.452727 191.826957 
L 191.452727 191.826957 
" style="fill:none;opacity:0.7;stroke:#d34743;stroke-linecap:square;stroke-width:2;"/>
   </g>
   <g id="line2d_9">
    <path clip-path="url(#pa3e2534882)" d="M 19.307273 191.826957 
L 63.075987 191.826957 
L 63.248305 163.432931 
L 64.109894 130.389133 
L 65.488436 77.039629 
L 66.350025 52.885314 
L 67.039296 39.791855 
L 67.556249 33.313016 
L 68.073202 29.322915 
L 68.417838 27.85723 
L 68.762473 27.213978 
L 68.934791 27.166087 
L 69.107109 27.282858 
L 69.451744 27.959414 
L 69.968698 29.903189 
L 70.657969 33.782977 
L 71.691876 41.236809 
L 74.965913 65.952874 
L 76.172138 73.191566 
L 77.378362 79.11281 
L 78.412269 83.21266 
L 79.446175 86.521999 
L 80.480082 89.158099 
L 81.513989 91.235584 
L 82.547895 92.858776 
L 83.581802 94.11836 
L 84.788026 95.229401 
L 85.994251 96.046951 
L 87.372793 96.718757 
L 89.095971 97.28577 
L 91.163784 97.712051 
L 93.920868 98.040955 
L 97.884177 98.2768 
L 133.898591 99.361311 
L 146.650106 99.814912 
L 147.16706 100.044842 
L 147.511695 100.424442 
L 147.856331 101.223617 
L 148.200966 102.846742 
L 148.545602 105.916064 
L 148.890238 111.130537 
L 149.407191 123.788974 
L 150.096462 148.095753 
L 150.441097 161.853475 
L 150.613415 191.826957 
L 191.452727 191.826957 
L 191.452727 191.826957 
" style="fill:none;opacity:0.7;stroke:#de5238;stroke-linecap:square;stroke-width:2;"/>
   </g>
   <g id="line2d_10">
    <path clip-path="url(#pa3e2534882)" d="M 19.307273 191.826957 
L 61.352809 191.826957 
L 61.697445 185.243635 
L 62.04208 179.739384 
L 62.559034 166.445276 
L 63.248305 141.070186 
L 64.971482 73.72442 
L 65.660753 54.298025 
L 66.350025 40.553235 
L 66.866978 33.715747 
L 67.383931 29.483929 
L 67.728567 27.919505 
L 68.073202 27.223914 
L 68.24552 27.166087 
L 68.417838 27.28307 
L 68.762473 27.988384 
L 69.279427 30.03814 
L 69.968698 34.154783 
L 71.002604 42.108014 
L 74.44896 70.031145 
L 75.655184 77.791052 
L 76.861409 84.194 
L 78.067633 89.351865 
L 79.273857 93.442058 
L 80.480082 96.65665 
L 81.686306 99.175631 
L 82.892531 101.155043 
L 84.098755 102.723658 
L 85.477297 104.143989 
L 87.028157 105.404537 
L 88.923653 106.624238 
L 91.163784 107.790008 
L 94.437821 109.216729 
L 98.745766 110.845624 
L 116.666814 117.244973 
L 130.279918 121.874561 
L 142.686798 125.861177 
L 147.16706 127.357487 
L 147.684013 127.781249 
L 148.028649 128.33689 
L 148.373284 129.378191 
L 148.71792 131.306455 
L 149.062555 134.625353 
L 149.579509 142.982351 
L 150.26878 159.790811 
L 151.475004 191.826957 
L 191.452727 191.826957 
L 191.452727 191.826957 
" style="fill:none;opacity:0.7;stroke:#ef6e21;stroke-linecap:square;stroke-width:2;"/>
   </g>
   <g id="line2d_11">
    <path clip-path="url(#pa3e2534882)" d="M 19.307273 191.826957 
L 63.59294 191.826957 
L 63.765258 145.135414 
L 65.660753 72.168298 
L 66.350025 53.399396 
L 67.039296 40.1573 
L 67.556249 33.569268 
L 68.073202 29.476155 
L 68.417838 27.946233 
L 68.762473 27.242644 
L 68.934791 27.166087 
L 69.107109 27.255197 
L 69.451744 27.879419 
L 69.968698 29.751933 
L 70.657969 33.549241 
L 71.691876 40.902403 
L 74.965913 65.41676 
L 76.172138 72.605148 
L 77.378362 78.481797 
L 78.412269 82.546083 
L 79.446175 85.821256 
L 80.480082 88.423958 
L 81.513989 90.46843 
L 82.547895 92.058762 
L 83.581802 93.285518 
L 84.788026 94.358223 
L 85.994251 95.13737 
L 87.372793 95.765214 
L 89.095971 96.277215 
L 91.163784 96.637503 
L 93.920868 96.878643 
L 97.884177 96.989435 
L 146.822424 97.13997 
L 147.16706 97.321175 
L 147.511695 97.716262 
L 147.856331 98.558058 
L 148.200966 100.273373 
L 148.545602 103.511142 
L 148.890238 108.98547 
L 149.407191 122.175939 
L 150.096462 147.294742 
L 150.26878 191.826957 
L 191.452727 191.826957 
L 191.452727 191.826957 
" style="fill:none;opacity:0.7;stroke:#f67e14;stroke-linecap:square;stroke-width:2;"/>
   </g>
   <g id="line2d_12">
    <path clip-path="url(#pa3e2534882)" d="M 19.307273 191.826957 
L 63.075987 191.826957 
L 63.248305 163.432931 
L 64.109894 130.389133 
L 65.488436 77.039629 
L 66.350025 52.885314 
L 67.039296 39.791855 
L 67.556249 33.313016 
L 68.073202 29.322915 
L 68.417838 27.85723 
L 68.762473 27.213978 
L 68.934791 27.166087 
L 69.107109 27.282858 
L 69.451744 27.959414 
L 69.968698 29.903189 
L 70.657969 33.782977 
L 71.691876 41.236809 
L 74.965913 65.952874 
L 76.172138 73.191566 
L 77.378362 79.11281 
L 78.412269 83.21266 
L 79.446175 86.521999 
L 80.480082 89.158099 
L 81.513989 91.235584 
L 82.547895 92.858776 
L 83.581802 94.11836 
L 84.788026 95.229401 
L 85.994251 96.046951 
L 87.372793 96.718757 
L 89.095971 97.28577 
L 91.163784 97.712051 
L 93.920868 98.040955 
L 97.884177 98.2768 
L 133.898591 99.361311 
L 146.650106 99.814912 
L 147.16706 100.044842 
L 147.511695 100.424442 
L 147.856331 101.223617 
L 148.200966 102.846742 
L 148.545602 105.916064 
L 148.890238 111.130537 
L 149.407191 123.788974 
L 150.096462 148.095753 
L 150.441097 161.853475 
L 150.613415 191.826957 
L 191.452727 191.826957 
L 191.452727 191.826957 
" style="fill:none;opacity:0.7;stroke:#f98e09;stroke-linecap:square;stroke-width:2;"/>
   </g>
   <g id="line2d_13">
    <path clip-path="url(#pa3e2534882)" d="M 19.307273 191.826957 
L 61.869762 191.826957 
L 62.214398 182.330662 
L 62.559034 175.263978 
L 63.075987 159.68922 
L 64.109894 118.137799 
L 65.316118 72.502355 
L 66.005389 53.313638 
L 66.69466 39.839296 
L 67.211613 33.207864 
L 67.728567 29.176166 
L 68.073202 27.73949 
L 68.417838 27.166087 
L 68.590156 27.167096 
L 68.762473 27.34135 
L 69.107109 28.156411 
L 69.624062 30.358697 
L 70.313333 34.656643 
L 71.34724 42.838295 
L 74.621278 70.008832 
L 75.99982 79.109378 
L 77.206044 85.59577 
L 78.412269 90.821764 
L 79.618493 94.968424 
L 80.824717 98.230355 
L 82.030942 100.789292 
L 83.237166 102.802476 
L 84.443391 104.399503 
L 85.821933 105.846472 
L 87.372793 107.13025 
L 89.095971 108.267987 
L 91.336102 109.463787 
L 94.265504 110.759498 
L 98.056495 112.194025 
L 107.878608 115.54415 
L 118.045356 118.780296 
L 128.55674 121.892376 
L 139.41276 124.872945 
L 147.16706 127.026325 
L 147.684013 127.517203 
L 148.028649 128.207083 
L 148.373284 129.52045 
L 148.71792 131.914458 
L 149.062555 135.88391 
L 149.579509 145.309304 
L 150.26878 163.05384 
L 150.958051 182.954927 
L 151.130369 191.826957 
L 191.452727 191.826957 
L 191.452727 191.826957 
" style="fill:none;opacity:0.7;stroke:#fca108;stroke-linecap:square;stroke-width:2;"/>
   </g>
   <g id="line2d_14">
    <path clip-path="url(#pa3e2534882)" d="M 19.307273 191.826957 
L 64.109894 191.826957 
L 64.282211 124.35815 
L 65.488436 78.043022 
L 66.350025 53.635552 
L 67.039296 40.319656 
L 67.556249 33.679836 
L 68.073202 29.540174 
L 68.417838 27.982566 
L 68.762473 27.254066 
L 68.934791 27.166087 
L 69.107109 27.244454 
L 69.451744 27.849163 
L 69.968698 29.697066 
L 70.657969 33.469322 
L 71.691876 40.798431 
L 74.965913 65.297146 
L 76.172138 72.489604 
L 77.378362 78.371533 
L 78.412269 82.440425 
L 79.446175 85.719872 
L 80.480082 88.326338 
L 81.513989 90.374008 
L 82.547895 91.966988 
L 83.581802 93.195894 
L 84.788026 94.270564 
L 85.994251 95.051198 
L 87.372793 95.680283 
L 89.095971 96.193333 
L 91.163784 96.554386 
L 93.920868 96.796057 
L 97.884177 96.907346 
L 146.822424 97.061748 
L 147.16706 97.247551 
L 147.511695 97.652447 
L 147.856331 98.514214 
L 148.200966 100.266725 
L 148.545602 103.564242 
L 148.890238 109.116655 
L 149.407191 122.422547 
L 149.579509 128.085914 
L 149.751826 191.826957 
L 191.452727 191.826957 
L 191.452727 191.826957 
" style="fill:none;opacity:0.7;stroke:#fcb216;stroke-linecap:square;stroke-width:2;"/>
   </g>
   <g id="line2d_15">
    <path clip-path="url(#pa3e2534882)" d="M 19.307273 191.826957 
L 62.731351 191.826957 
L 62.903669 172.539226 
L 63.420622 156.009184 
L 66.177707 55.641943 
L 66.866978 41.552514 
L 67.383931 34.440723 
L 67.900885 29.9325 
L 68.24552 28.186 
L 68.590156 27.3117 
L 68.762473 27.166087 
L 68.934791 27.196453 
L 69.279427 27.732307 
L 69.624062 28.818193 
L 70.141016 31.276838 
L 70.830287 35.681592 
L 72.036511 45.053665 
L 74.44896 64.097677 
L 75.827502 73.13903 
L 77.033726 79.613475 
L 78.239951 84.816597 
L 79.273857 88.385054 
L 80.307764 91.255471 
L 81.341671 93.545059 
L 82.375577 95.361191 
L 83.581802 97.005876 
L 84.788026 98.257022 
L 86.166568 99.330352 
L 87.717428 100.214834 
L 89.440606 100.928286 
L 91.680737 101.594466 
L 94.782457 102.25595 
L 98.745766 102.875094 
L 117.528403 105.359381 
L 137.689582 107.801012 
L 146.822424 108.956505 
L 147.339378 109.285606 
L 147.684013 109.786194 
L 148.028649 110.79611 
L 148.373284 112.766547 
L 148.71792 116.31804 
L 149.062555 122.024749 
L 149.579509 134.951124 
L 150.441097 164.354676 
L 150.613415 170.663436 
L 150.785733 191.826957 
L 191.452727 191.826957 
L 191.452727 191.826957 
" style="fill:none;opacity:0.7;stroke:#fac42a;stroke-linecap:square;stroke-width:2;"/>
   </g>
   <g id="line2d_16">
    <path clip-path="url(#pa3e2534882)" d="M 19.307273 191.826957 
L 63.075987 191.826957 
L 63.248305 163.16319 
L 64.109894 130.009735 
L 65.488436 76.684151 
L 66.350025 52.608641 
L 67.039296 39.589862 
L 67.556249 33.168414 
L 68.073202 29.234607 
L 68.417838 27.805214 
L 68.762473 27.196988 
L 68.934791 27.166087 
L 69.107109 27.299484 
L 69.451744 28.008165 
L 69.968698 29.997272 
L 70.657969 33.932265 
L 71.691876 41.458553 
L 74.965913 66.343799 
L 76.172138 73.630082 
L 77.378362 79.594372 
L 78.412269 83.728558 
L 79.446175 87.070541 
L 80.480082 89.738049 
L 81.513989 91.846039 
L 82.547895 93.499067 
L 83.581802 94.787988 
L 84.788026 95.93278 
L 85.994251 96.78369 
L 87.372793 97.493252 
L 89.095971 98.107019 
L 91.163784 98.588875 
L 93.920868 98.991106 
L 97.884177 99.330815 
L 125.45502 100.853426 
L 146.822424 102.081233 
L 147.339378 102.41453 
L 147.684013 102.954674 
L 148.028649 104.068453 
L 148.373284 106.256753 
L 148.71792 110.195566 
L 149.062555 116.489786 
L 149.579509 130.628976 
L 150.441097 162.479003 
L 150.613415 191.826957 
L 191.452727 191.826957 
L 191.452727 191.826957 
" style="fill:none;opacity:0.7;stroke:#f6d746;stroke-linecap:square;stroke-width:2;"/>
   </g>
   <g id="patch_3">
    <path d="M 10.7 200.06 
L 10.7 10.7 
" style="fill:none;stroke:#000000;stroke-linecap:square;stroke-linejoin:miter;stroke-width:0.8;"/>
   </g>
   <g id="patch_4">
    <path d="M 200.06 200.06 
L 200.06 10.7 
" style="fill:none;stroke:#000000;stroke-linecap:square;stroke-linejoin:miter;stroke-width:0.8;"/>
   </g>
   <g id="patch_5">
    <path d="M 10.7 200.06 
L 200.06 200.06 
" style="fill:none;stroke:#000000;stroke-linecap:square;stroke-linejoin:miter;stroke-width:0.8;"/>
   </g>
   <g id="patch_6">
    <path d="M 10.7 10.7 
L 200.06 10.7 
" style="fill:none;stroke:#000000;stroke-linecap:square;stroke-linejoin:miter;stroke-width:0.8;"/>
   </g>
  </g>
 </g>
 <defs>
  <clipPath id="pa3e2534882">
   <rect height="189.36" width="189.36" x="10.7" y="10.7"/>
  </clipPath>
 </defs>
</svg>
