<?xml version="1.0" encoding="utf-8" standalone="no"?>
<!DOCTYPE svg PUBLIC "-//W3C//DTD SVG 1.1//EN"
  "http://www.w3.org/Graphics/SVG/1.1/DTD/svg11.dtd">
<!-- Created with matplotlib (http://matplotlib.org/) -->
<svg height="354pt" version="1.1" viewBox="0 0 427 354" width="427pt" xmlns="http://www.w3.org/2000/svg" xmlns:xlink="http://www.w3.org/1999/xlink">
 <defs>
  <style type="text/css">
*{stroke-linecap:butt;stroke-linejoin:round;}
  </style>
 </defs>
 <g id="figure_1">
  <g id="patch_1">
   <path d="M 0 354.04 
L 427.119687 354.04 
L 427.119687 0 
L 0 0 
z
" style="fill:#ffffff;"/>
  </g>
  <g id="axes_1">
   <g id="patch_2">
    <path d="M 81.619687 343.34 
L 416.419688 343.34 
L 416.419688 10.7 
L 81.619687 10.7 
z
" style="fill:#ffffff;"/>
   </g>
   <g id="PolyCollection_1">
    <defs>
     <path d="M 96.837869 -25.82 
L 96.837869 -170.113215 
L 100.14617 -170.113215 
L 103.45447 -170.113215 
L 106.762771 -170.113215 
L 110.071071 -170.113215 
L 113.379371 -170.113215 
L 116.687672 -170.113215 
L 119.995972 -170.113215 
L 123.304272 -170.113215 
L 126.612573 -170.113215 
L 129.920873 -170.113215 
L 133.229174 -170.113215 
L 136.537474 -170.113215 
L 139.845774 -170.113215 
L 143.154075 -170.113215 
L 146.462375 -170.113215 
L 149.770676 -170.113215 
L 153.078976 -170.113215 
L 156.387276 -170.113215 
L 159.695577 -170.113215 
L 163.003877 -170.113215 
L 166.312178 -170.113215 
L 169.620478 -170.113215 
L 172.928778 -170.113215 
L 176.237079 -170.113215 
L 179.545379 -170.113215 
L 182.85368 -170.113215 
L 186.16198 -170.113215 
L 189.47028 -170.113215 
L 192.778581 -170.113215 
L 196.086881 -170.113215 
L 199.395182 -170.113215 
L 202.703482 -170.113215 
L 206.011782 -170.113215 
L 209.320083 -170.113215 
L 212.628383 -170.113215 
L 215.936684 -170.113215 
L 219.244984 -170.113215 
L 222.553284 -170.113215 
L 225.861585 -170.113215 
L 229.169885 -170.113215 
L 232.478186 -170.113215 
L 235.786486 -170.113215 
L 239.094786 -170.113215 
L 242.403087 -170.113215 
L 245.711387 -170.113215 
L 249.019688 -170.113215 
L 252.327988 -170.113215 
L 255.636288 -170.113215 
L 258.944589 -170.113215 
L 262.252889 -170.113215 
L 265.561189 -170.113215 
L 268.86949 -170.113215 
L 272.17779 -170.113215 
L 275.486091 -170.113215 
L 278.794391 -170.113215 
L 282.102691 -170.113215 
L 285.410992 -170.113215 
L 288.719292 -170.113215 
L 292.027593 -170.113215 
L 295.335893 -170.113215 
L 298.644193 -170.113215 
L 301.952494 -170.113215 
L 305.260794 -170.113215 
L 308.569095 -170.113215 
L 311.877395 -170.113215 
L 315.185695 -170.113215 
L 318.493996 -170.113215 
L 321.802296 -170.113215 
L 325.110597 -170.113215 
L 328.418897 -170.113215 
L 331.727197 -170.113215 
L 335.035498 -170.113215 
L 338.343798 -170.113215 
L 341.652099 -170.113215 
L 344.960399 -170.113215 
L 348.268699 -170.113215 
L 351.577 -170.113215 
L 354.8853 -170.113215 
L 358.193601 -170.113215 
L 361.501901 -170.113215 
L 364.810201 -170.113215 
L 368.118502 -170.113215 
L 371.426802 -170.113215 
L 374.735103 -170.113215 
L 378.043403 -170.113215 
L 381.351703 -170.113215 
L 384.660004 -170.113215 
L 387.968304 -170.113215 
L 391.276604 -170.113215 
L 394.584905 -170.113215 
L 397.893205 -170.113215 
L 401.201506 -170.113215 
L 401.201506 -328.22 
L 401.201506 -328.22 
L 397.893205 -326.684006 
L 394.584905 -314.300146 
L 391.276604 -292.99711 
L 387.968304 -291.206086 
L 384.660004 -285.951225 
L 381.351703 -280.622043 
L 378.043403 -267.649752 
L 374.735103 -260.365099 
L 371.426802 -252.313557 
L 368.118502 -242.723274 
L 364.810201 -237.904135 
L 361.501901 -237.360001 
L 358.193601 -214.894376 
L 354.8853 -208.985766 
L 351.577 -207.148329 
L 348.268699 -206.653727 
L 344.960399 -206.230394 
L 341.652099 -199.756576 
L 338.343798 -199.028917 
L 335.035498 -198.519245 
L 331.727197 -197.36067 
L 328.418897 -196.013991 
L 325.110597 -191.364104 
L 321.802296 -191.262062 
L 318.493996 -190.11781 
L 315.185695 -189.411743 
L 311.877395 -188.893677 
L 308.569095 -187.23404 
L 305.260794 -186.714545 
L 301.952494 -185.565351 
L 298.644193 -184.324397 
L 295.335893 -181.124528 
L 292.027593 -180.219388 
L 288.719292 -179.99049 
L 285.410992 -178.967302 
L 282.102691 -175.120443 
L 278.794391 -174.641344 
L 275.486091 -173.768576 
L 272.17779 -173.087734 
L 268.86949 -172.273667 
L 265.561189 -170.029631 
L 262.252889 -170.010144 
L 258.944589 -169.972362 
L 255.636288 -169.136539 
L 252.327988 -168.420606 
L 249.019688 -168.36886 
L 245.711387 -168.260893 
L 242.403087 -167.979903 
L 239.094786 -167.524011 
L 235.786486 -166.998133 
L 232.478186 -166.707219 
L 229.169885 -166.523412 
L 225.861585 -165.927073 
L 222.553284 -165.375832 
L 219.244984 -164.045521 
L 215.936684 -162.880039 
L 212.628383 -162.641556 
L 209.320083 -162.223406 
L 206.011782 -161.180279 
L 202.703482 -160.833798 
L 199.395182 -160.800447 
L 196.086881 -160.724612 
L 192.778581 -160.474514 
L 189.47028 -158.435649 
L 186.16198 -157.96251 
L 182.85368 -152.94016 
L 179.545379 -152.597152 
L 176.237079 -152.140482 
L 172.928778 -148.192247 
L 169.620478 -147.411097 
L 166.312178 -146.689132 
L 163.003877 -145.868036 
L 159.695577 -145.776384 
L 156.387276 -142.490455 
L 153.078976 -141.295482 
L 149.770676 -141.120732 
L 146.462375 -138.955422 
L 143.154075 -131.212375 
L 139.845774 -130.02191 
L 136.537474 -128.579919 
L 133.229174 -124.673188 
L 129.920873 -124.303547 
L 126.612573 -121.823595 
L 123.304272 -118.067244 
L 119.995972 -115.205525 
L 116.687672 -109.149621 
L 113.379371 -106.611016 
L 110.071071 -105.097697 
L 106.762771 -104.431236 
L 103.45447 -97.881015 
L 100.14617 -85.12676 
L 96.837869 -25.82 
z
" id="m2a11e62e31" style="stroke:#4a98c9;"/>
    </defs>
    <g clip-path="url(#p747703aff6)">
     <use style="fill:#4a98c9;stroke:#4a98c9;" x="0" xlink:href="#m2a11e62e31" y="354.04"/>
    </g>
   </g>
   <g id="PolyCollection_2">
    <defs>
     <path d="M 96.837869 -82.548456 
L 96.837869 -170.113215 
L 100.14617 -170.113215 
L 103.45447 -170.113215 
L 106.762771 -170.113215 
L 110.071071 -170.113215 
L 113.379371 -170.113215 
L 116.687672 -170.113215 
L 119.995972 -170.113215 
L 123.304272 -170.113215 
L 126.612573 -170.113215 
L 129.920873 -170.113215 
L 133.229174 -170.113215 
L 136.537474 -170.113215 
L 139.845774 -170.113215 
L 143.154075 -170.113215 
L 146.462375 -170.113215 
L 149.770676 -170.113215 
L 153.078976 -170.113215 
L 156.387276 -170.113215 
L 159.695577 -170.113215 
L 163.003877 -170.113215 
L 166.312178 -170.113215 
L 169.620478 -170.113215 
L 172.928778 -170.113215 
L 176.237079 -170.113215 
L 179.545379 -170.113215 
L 182.85368 -170.113215 
L 186.16198 -170.113215 
L 189.47028 -170.113215 
L 192.778581 -170.113215 
L 196.086881 -170.113215 
L 199.395182 -170.113215 
L 202.703482 -170.113215 
L 206.011782 -170.113215 
L 209.320083 -170.113215 
L 212.628383 -170.113215 
L 215.936684 -170.113215 
L 219.244984 -170.113215 
L 222.553284 -170.113215 
L 225.861585 -170.113215 
L 229.169885 -170.113215 
L 232.478186 -170.113215 
L 235.786486 -170.113215 
L 239.094786 -170.113215 
L 242.403087 -170.113215 
L 245.711387 -170.113215 
L 249.019688 -170.113215 
L 252.327988 -170.113215 
L 255.636288 -170.113215 
L 258.944589 -170.113215 
L 262.252889 -170.113215 
L 265.561189 -170.113215 
L 268.86949 -170.113215 
L 272.17779 -170.113215 
L 275.486091 -170.113215 
L 278.794391 -170.113215 
L 282.102691 -170.113215 
L 285.410992 -170.113215 
L 288.719292 -170.113215 
L 292.027593 -170.113215 
L 295.335893 -170.113215 
L 298.644193 -170.113215 
L 301.952494 -170.113215 
L 305.260794 -170.113215 
L 308.569095 -170.113215 
L 311.877395 -170.113215 
L 315.185695 -170.113215 
L 318.493996 -170.113215 
L 321.802296 -170.113215 
L 325.110597 -170.113215 
L 328.418897 -170.113215 
L 331.727197 -170.113215 
L 335.035498 -170.113215 
L 338.343798 -170.113215 
L 341.652099 -170.113215 
L 344.960399 -170.113215 
L 348.268699 -170.113215 
L 351.577 -170.113215 
L 354.8853 -170.113215 
L 358.193601 -170.113215 
L 361.501901 -170.113215 
L 364.810201 -170.113215 
L 368.118502 -170.113215 
L 371.426802 -170.113215 
L 374.735103 -170.113215 
L 378.043403 -170.113215 
L 381.351703 -170.113215 
L 384.660004 -170.113215 
L 387.968304 -170.113215 
L 391.276604 -170.113215 
L 394.584905 -170.113215 
L 397.893205 -170.113215 
L 401.201506 -170.113215 
L 401.201506 -269.350699 
L 401.201506 -269.350699 
L 397.893205 -259.432467 
L 394.584905 -257.91587 
L 391.276604 -256.579303 
L 387.968304 -251.105931 
L 384.660004 -244.931776 
L 381.351703 -242.056652 
L 378.043403 -241.653141 
L 374.735103 -241.253834 
L 371.426802 -241.013088 
L 368.118502 -240.905067 
L 364.810201 -240.431059 
L 361.501901 -236.961357 
L 358.193601 -235.350144 
L 354.8853 -234.912913 
L 351.577 -224.280556 
L 348.268699 -218.395541 
L 344.960399 -204.930112 
L 341.652099 -203.925792 
L 338.343798 -203.482758 
L 335.035498 -203.002206 
L 331.727197 -200.85083 
L 328.418897 -199.73822 
L 325.110597 -197.825876 
L 321.802296 -196.67889 
L 318.493996 -192.649561 
L 315.185695 -191.950623 
L 311.877395 -189.270436 
L 308.569095 -189.176708 
L 305.260794 -187.126443 
L 301.952494 -186.734419 
L 298.644193 -186.406284 
L 295.335893 -185.127168 
L 292.027593 -183.775755 
L 288.719292 -182.782468 
L 285.410992 -182.69238 
L 282.102691 -181.174264 
L 278.794391 -181.142886 
L 275.486091 -180.533921 
L 272.17779 -178.118996 
L 268.86949 -177.397553 
L 265.561189 -177.038731 
L 262.252889 -176.628473 
L 258.944589 -175.634756 
L 255.636288 -174.795422 
L 252.327988 -174.701962 
L 249.019688 -174.630704 
L 245.711387 -173.821067 
L 242.403087 -171.310119 
L 239.094786 -171.207728 
L 235.786486 -171.015446 
L 232.478186 -170.034406 
L 229.169885 -165.82858 
L 225.861585 -164.591307 
L 222.553284 -163.986969 
L 219.244984 -162.992467 
L 215.936684 -162.901501 
L 212.628383 -162.530494 
L 209.320083 -162.43901 
L 206.011782 -162.199607 
L 202.703482 -160.875947 
L 199.395182 -160.392259 
L 196.086881 -160.224626 
L 192.778581 -158.914363 
L 189.47028 -157.690369 
L 186.16198 -157.595577 
L 182.85368 -156.96876 
L 179.545379 -152.1592 
L 176.237079 -150.587768 
L 172.928778 -148.309131 
L 169.620478 -148.022105 
L 166.312178 -147.194645 
L 163.003877 -145.332905 
L 159.695577 -144.314736 
L 156.387276 -142.936235 
L 153.078976 -141.779725 
L 149.770676 -140.788197 
L 146.462375 -138.832673 
L 143.154075 -137.135414 
L 139.845774 -136.192799 
L 136.537474 -135.376697 
L 133.229174 -133.658055 
L 129.920873 -132.063676 
L 126.612573 -128.887541 
L 123.304272 -128.796158 
L 119.995972 -127.7825 
L 116.687672 -125.792997 
L 113.379371 -119.745565 
L 110.071071 -106.321646 
L 106.762771 -104.161016 
L 103.45447 -101.486485 
L 100.14617 -100.127348 
L 96.837869 -82.548456 
z
" id="mde9c7453d9" style="stroke:#f14432;stroke-opacity:0.8;"/>
    </defs>
    <g clip-path="url(#p747703aff6)">
     <use style="fill:#f14432;fill-opacity:0.8;stroke:#f14432;stroke-opacity:0.8;" x="0" xlink:href="#mde9c7453d9" y="354.04"/>
    </g>
   </g>
   <g id="matplotlib.axis_1"/>
   <g id="matplotlib.axis_2">
    <g id="ytick_1">
     <g id="line2d_1">
      <defs>
       <path d="M 0 0 
L -3.5 0 
" id="m6dd8b73729" style="stroke:#000000;stroke-width:0.8;"/>
      </defs>
      <g>
       <use style="stroke:#000000;stroke-width:0.8;" x="81.619687" xlink:href="#m6dd8b73729" y="328.633923"/>
      </g>
     </g>
     <g id="text_1">
      <!-- −0.10 -->
      <defs>
       <path d="M 10.59375 35.5 
L 73.1875 35.5 
L 73.1875 27.203125 
L 10.59375 27.203125 
z
" id="DejaVuSans-2212"/>
       <path d="M 31.78125 66.40625 
Q 24.171875 66.40625 20.328125 58.90625 
Q 16.5 51.421875 16.5 36.375 
Q 16.5 21.390625 20.328125 13.890625 
Q 24.171875 6.390625 31.78125 6.390625 
Q 39.453125 6.390625 43.28125 13.890625 
Q 47.125 21.390625 47.125 36.375 
Q 47.125 51.421875 43.28125 58.90625 
Q 39.453125 66.40625 31.78125 66.40625 
z
M 31.78125 74.21875 
Q 44.046875 74.21875 50.515625 64.515625 
Q 56.984375 54.828125 56.984375 36.375 
Q 56.984375 17.96875 50.515625 8.265625 
Q 44.046875 -1.421875 31.78125 -1.421875 
Q 19.53125 -1.421875 13.0625 8.265625 
Q 6.59375 17.96875 6.59375 36.375 
Q 6.59375 54.828125 13.0625 64.515625 
Q 19.53125 74.21875 31.78125 74.21875 
z
" id="DejaVuSans-30"/>
       <path d="M 10.6875 12.40625 
L 21 12.40625 
L 21 0 
L 10.6875 0 
z
" id="DejaVuSans-2e"/>
       <path d="M 12.40625 8.296875 
L 28.515625 8.296875 
L 28.515625 63.921875 
L 10.984375 60.40625 
L 10.984375 69.390625 
L 28.421875 72.90625 
L 38.28125 72.90625 
L 38.28125 8.296875 
L 54.390625 8.296875 
L 54.390625 0 
L 12.40625 0 
z
" id="DejaVuSans-31"/>
      </defs>
      <g transform="translate(7.2 336.992204)scale(0.22 -0.22)">
       <use xlink:href="#DejaVuSans-2212"/>
       <use x="83.789062" xlink:href="#DejaVuSans-30"/>
       <use x="147.412109" xlink:href="#DejaVuSans-2e"/>
       <use x="179.199219" xlink:href="#DejaVuSans-31"/>
       <use x="242.822266" xlink:href="#DejaVuSans-30"/>
      </g>
     </g>
    </g>
    <g id="ytick_2">
     <g id="line2d_2">
      <g>
       <use style="stroke:#000000;stroke-width:0.8;" x="81.619687" xlink:href="#m6dd8b73729" y="256.280354"/>
      </g>
     </g>
     <g id="text_2">
      <!-- −0.05 -->
      <defs>
       <path d="M 10.796875 72.90625 
L 49.515625 72.90625 
L 49.515625 64.59375 
L 19.828125 64.59375 
L 19.828125 46.734375 
Q 21.96875 47.46875 24.109375 47.828125 
Q 26.265625 48.1875 28.421875 48.1875 
Q 40.625 48.1875 47.75 41.5 
Q 54.890625 34.8125 54.890625 23.390625 
Q 54.890625 11.625 47.5625 5.09375 
Q 40.234375 -1.421875 26.90625 -1.421875 
Q 22.3125 -1.421875 17.546875 -0.640625 
Q 12.796875 0.140625 7.71875 1.703125 
L 7.71875 11.625 
Q 12.109375 9.234375 16.796875 8.0625 
Q 21.484375 6.890625 26.703125 6.890625 
Q 35.15625 6.890625 40.078125 11.328125 
Q 45.015625 15.765625 45.015625 23.390625 
Q 45.015625 31 40.078125 35.4375 
Q 35.15625 39.890625 26.703125 39.890625 
Q 22.75 39.890625 18.8125 39.015625 
Q 14.890625 38.140625 10.796875 36.28125 
z
" id="DejaVuSans-35"/>
      </defs>
      <g transform="translate(7.2 264.638635)scale(0.22 -0.22)">
       <use xlink:href="#DejaVuSans-2212"/>
       <use x="83.789062" xlink:href="#DejaVuSans-30"/>
       <use x="147.412109" xlink:href="#DejaVuSans-2e"/>
       <use x="179.199219" xlink:href="#DejaVuSans-30"/>
       <use x="242.822266" xlink:href="#DejaVuSans-35"/>
      </g>
     </g>
    </g>
    <g id="ytick_3">
     <g id="line2d_3">
      <g>
       <use style="stroke:#000000;stroke-width:0.8;" x="81.619687" xlink:href="#m6dd8b73729" y="183.926785"/>
      </g>
     </g>
     <g id="text_3">
      <!-- 0.00 -->
      <g transform="translate(25.635312 192.285067)scale(0.22 -0.22)">
       <use xlink:href="#DejaVuSans-30"/>
       <use x="63.623047" xlink:href="#DejaVuSans-2e"/>
       <use x="95.410156" xlink:href="#DejaVuSans-30"/>
       <use x="159.033203" xlink:href="#DejaVuSans-30"/>
      </g>
     </g>
    </g>
    <g id="ytick_4">
     <g id="line2d_4">
      <g>
       <use style="stroke:#000000;stroke-width:0.8;" x="81.619687" xlink:href="#m6dd8b73729" y="111.573217"/>
      </g>
     </g>
     <g id="text_4">
      <!-- 0.05 -->
      <g transform="translate(25.635312 119.931498)scale(0.22 -0.22)">
       <use xlink:href="#DejaVuSans-30"/>
       <use x="63.623047" xlink:href="#DejaVuSans-2e"/>
       <use x="95.410156" xlink:href="#DejaVuSans-30"/>
       <use x="159.033203" xlink:href="#DejaVuSans-35"/>
      </g>
     </g>
    </g>
    <g id="ytick_5">
     <g id="line2d_5">
      <g>
       <use style="stroke:#000000;stroke-width:0.8;" x="81.619687" xlink:href="#m6dd8b73729" y="39.219648"/>
      </g>
     </g>
     <g id="text_5">
      <!-- 0.10 -->
      <g transform="translate(25.635312 47.577929)scale(0.22 -0.22)">
       <use xlink:href="#DejaVuSans-30"/>
       <use x="63.623047" xlink:href="#DejaVuSans-2e"/>
       <use x="95.410156" xlink:href="#DejaVuSans-31"/>
       <use x="159.033203" xlink:href="#DejaVuSans-30"/>
      </g>
     </g>
    </g>
   </g>
   <g id="patch_3">
    <path d="M 81.619687 343.34 
L 81.619687 10.7 
" style="fill:none;stroke:#000000;stroke-linecap:square;stroke-linejoin:miter;stroke-width:0.8;"/>
   </g>
   <g id="patch_4">
    <path d="M 416.419688 343.34 
L 416.419688 10.7 
" style="fill:none;stroke:#000000;stroke-linecap:square;stroke-linejoin:miter;stroke-width:0.8;"/>
   </g>
   <g id="patch_5">
    <path d="M 81.619687 343.34 
L 416.419688 343.34 
" style="fill:none;stroke:#000000;stroke-linecap:square;stroke-linejoin:miter;stroke-width:0.8;"/>
   </g>
   <g id="patch_6">
    <path d="M 81.619687 10.7 
L 416.419688 10.7 
" style="fill:none;stroke:#000000;stroke-linecap:square;stroke-linejoin:miter;stroke-width:0.8;"/>
   </g>
  </g>
 </g>
 <defs>
  <clipPath id="p747703aff6">
   <rect height="332.64" width="334.8" x="81.619687" y="10.7"/>
  </clipPath>
 </defs>
</svg>
