<?xml version="1.0" encoding="utf-8" standalone="no"?>
<!DOCTYPE svg PUBLIC "-//W3C//DTD SVG 1.1//EN"
  "http://www.w3.org/Graphics/SVG/1.1/DTD/svg11.dtd">
<!-- Created with matplotlib (http://matplotlib.org/) -->
<svg height="354pt" version="1.1" viewBox="0 0 422 354" width="422pt" xmlns="http://www.w3.org/2000/svg" xmlns:xlink="http://www.w3.org/1999/xlink">
 <defs>
  <style type="text/css">
*{stroke-linecap:butt;stroke-linejoin:round;}
  </style>
 </defs>
 <g id="figure_1">
  <g id="patch_1">
   <path d="M 0 354.04 
L 422.681875 354.04 
L 422.681875 0 
L 0 0 
z
" style="fill:#ffffff;"/>
  </g>
  <g id="axes_1">
   <g id="patch_2">
    <path d="M 77.181875 343.34 
L 411.981875 343.34 
L 411.981875 10.7 
L 77.181875 10.7 
z
" style="fill:#ffffff;"/>
   </g>
   <g id="PolyCollection_1">
    <defs>
     <path d="M 92.400057 -40.898894 
L 92.400057 -40.901455 
L 95.708357 -40.901455 
L 99.016658 -40.901455 
L 102.324958 -40.901455 
L 105.633258 -40.901455 
L 108.941559 -40.901455 
L 112.249859 -40.901455 
L 115.55816 -40.901455 
L 118.86646 -40.901455 
L 122.17476 -40.901455 
L 125.483061 -40.901455 
L 128.791361 -40.901455 
L 132.099662 -40.901455 
L 135.407962 -40.901455 
L 138.716262 -40.901455 
L 142.024563 -40.901455 
L 145.332863 -40.901455 
L 148.641164 -40.901455 
L 151.949464 -40.901455 
L 155.257764 -40.901455 
L 158.566065 -40.901455 
L 161.874365 -40.901455 
L 165.182666 -40.901455 
L 168.490966 -40.901455 
L 171.799266 -40.901455 
L 175.107567 -40.901455 
L 178.415867 -40.901455 
L 181.724167 -40.901455 
L 185.032468 -40.901455 
L 188.340768 -40.901455 
L 191.649069 -40.901455 
L 194.957369 -40.901455 
L 198.265669 -40.901455 
L 201.57397 -40.901455 
L 204.88227 -40.901455 
L 208.190571 -40.901455 
L 211.498871 -40.901455 
L 214.807171 -40.901455 
L 218.115472 -40.901455 
L 221.423772 -40.901455 
L 224.732073 -40.901455 
L 228.040373 -40.901455 
L 231.348673 -40.901455 
L 234.656974 -40.901455 
L 237.965274 -40.901455 
L 241.273575 -40.901455 
L 244.581875 -40.901455 
L 247.890175 -40.901455 
L 251.198476 -40.901455 
L 254.506776 -40.901455 
L 257.815077 -40.901455 
L 261.123377 -40.901455 
L 264.431677 -40.901455 
L 267.739978 -40.901455 
L 271.048278 -40.901455 
L 274.356579 -40.901455 
L 277.664879 -40.901455 
L 280.973179 -40.901455 
L 284.28148 -40.901455 
L 287.58978 -40.901455 
L 290.898081 -40.901455 
L 294.206381 -40.901455 
L 297.514681 -40.901455 
L 300.822982 -40.901455 
L 304.131282 -40.901455 
L 307.439583 -40.901455 
L 310.747883 -40.901455 
L 314.056183 -40.901455 
L 317.364484 -40.901455 
L 320.672784 -40.901455 
L 323.981084 -40.901455 
L 327.289385 -40.901455 
L 330.597685 -40.901455 
L 333.905986 -40.901455 
L 337.214286 -40.901455 
L 340.522586 -40.901455 
L 343.830887 -40.901455 
L 347.139187 -40.901455 
L 350.447488 -40.901455 
L 353.755788 -40.901455 
L 357.064088 -40.901455 
L 360.372389 -40.901455 
L 363.680689 -40.901455 
L 366.98899 -40.901455 
L 370.29729 -40.901455 
L 373.60559 -40.901455 
L 376.913891 -40.901455 
L 380.222191 -40.901455 
L 383.530492 -40.901455 
L 386.838792 -40.901455 
L 390.147092 -40.901455 
L 393.455393 -40.901455 
L 396.763693 -40.901455 
L 396.763693 -328.22 
L 396.763693 -328.22 
L 393.455393 -252.145205 
L 390.147092 -234.807162 
L 386.838792 -211.070442 
L 383.530492 -203.951981 
L 380.222191 -201.97339 
L 376.913891 -190.189836 
L 373.60559 -174.100237 
L 370.29729 -171.420041 
L 366.98899 -164.219274 
L 363.680689 -158.772614 
L 360.372389 -157.663089 
L 357.064088 -154.800712 
L 353.755788 -152.251127 
L 350.447488 -145.289372 
L 347.139187 -144.458406 
L 343.830887 -137.943475 
L 340.522586 -137.614477 
L 337.214286 -137.295067 
L 333.905986 -136.81451 
L 330.597685 -134.443641 
L 327.289385 -134.182826 
L 323.981084 -125.484894 
L 320.672784 -125.289114 
L 317.364484 -123.635415 
L 314.056183 -122.620221 
L 310.747883 -121.020717 
L 307.439583 -120.756306 
L 304.131282 -119.846255 
L 300.822982 -106.269568 
L 297.514681 -105.970055 
L 294.206381 -102.214608 
L 290.898081 -102.116175 
L 287.58978 -94.356173 
L 284.28148 -92.808586 
L 280.973179 -87.539012 
L 277.664879 -85.58138 
L 274.356579 -84.329355 
L 271.048278 -83.005207 
L 267.739978 -82.83953 
L 264.431677 -82.393317 
L 261.123377 -82.181153 
L 257.815077 -82.046336 
L 254.506776 -81.099637 
L 251.198476 -77.149924 
L 247.890175 -75.444247 
L 244.581875 -74.203957 
L 241.273575 -72.125645 
L 237.965274 -69.881049 
L 234.656974 -69.485176 
L 231.348673 -69.35824 
L 228.040373 -68.849981 
L 224.732073 -67.604023 
L 221.423772 -67.541124 
L 218.115472 -67.31688 
L 214.807171 -67.025474 
L 211.498871 -67.001155 
L 208.190571 -66.926799 
L 204.88227 -65.645361 
L 201.57397 -65.164297 
L 198.265669 -63.413537 
L 194.957369 -62.576455 
L 191.649069 -61.677122 
L 188.340768 -61.315671 
L 185.032468 -60.979259 
L 181.724167 -59.457063 
L 178.415867 -55.172348 
L 175.107567 -54.346007 
L 171.799266 -54.305814 
L 168.490966 -54.059003 
L 165.182666 -53.454374 
L 161.874365 -53.112507 
L 158.566065 -52.698072 
L 155.257764 -50.762185 
L 151.949464 -48.915899 
L 148.641164 -48.791022 
L 145.332863 -46.857834 
L 142.024563 -46.646777 
L 138.716262 -46.631582 
L 135.407962 -46.370024 
L 132.099662 -46.051087 
L 128.791361 -44.4755 
L 125.483061 -43.439631 
L 122.17476 -43.266654 
L 118.86646 -43.192695 
L 115.55816 -43.14753 
L 112.249859 -42.839197 
L 108.941559 -42.444634 
L 105.633258 -42.007513 
L 102.324958 -41.829617 
L 99.016658 -41.809835 
L 95.708357 -40.980752 
L 92.400057 -40.898894 
z
" id="md1654032a2" style="stroke:#4a98c9;"/>
    </defs>
    <g clip-path="url(#paf6f7d310a)">
     <use style="fill:#4a98c9;stroke:#4a98c9;" x="0" xlink:href="#md1654032a2" y="354.04"/>
    </g>
   </g>
   <g id="PolyCollection_2">
    <defs>
     <path d="M 92.400057 -25.82 
L 92.400057 -40.901455 
L 95.708357 -40.901455 
L 99.016658 -40.901455 
L 102.324958 -40.901455 
L 105.633258 -40.901455 
L 108.941559 -40.901455 
L 112.249859 -40.901455 
L 115.55816 -40.901455 
L 118.86646 -40.901455 
L 122.17476 -40.901455 
L 125.483061 -40.901455 
L 128.791361 -40.901455 
L 132.099662 -40.901455 
L 135.407962 -40.901455 
L 138.716262 -40.901455 
L 142.024563 -40.901455 
L 145.332863 -40.901455 
L 148.641164 -40.901455 
L 151.949464 -40.901455 
L 155.257764 -40.901455 
L 158.566065 -40.901455 
L 161.874365 -40.901455 
L 165.182666 -40.901455 
L 168.490966 -40.901455 
L 171.799266 -40.901455 
L 175.107567 -40.901455 
L 178.415867 -40.901455 
L 181.724167 -40.901455 
L 185.032468 -40.901455 
L 188.340768 -40.901455 
L 191.649069 -40.901455 
L 194.957369 -40.901455 
L 198.265669 -40.901455 
L 201.57397 -40.901455 
L 204.88227 -40.901455 
L 208.190571 -40.901455 
L 211.498871 -40.901455 
L 214.807171 -40.901455 
L 218.115472 -40.901455 
L 221.423772 -40.901455 
L 224.732073 -40.901455 
L 228.040373 -40.901455 
L 231.348673 -40.901455 
L 234.656974 -40.901455 
L 237.965274 -40.901455 
L 241.273575 -40.901455 
L 244.581875 -40.901455 
L 247.890175 -40.901455 
L 251.198476 -40.901455 
L 254.506776 -40.901455 
L 257.815077 -40.901455 
L 261.123377 -40.901455 
L 264.431677 -40.901455 
L 267.739978 -40.901455 
L 271.048278 -40.901455 
L 274.356579 -40.901455 
L 277.664879 -40.901455 
L 280.973179 -40.901455 
L 284.28148 -40.901455 
L 287.58978 -40.901455 
L 290.898081 -40.901455 
L 294.206381 -40.901455 
L 297.514681 -40.901455 
L 300.822982 -40.901455 
L 304.131282 -40.901455 
L 307.439583 -40.901455 
L 310.747883 -40.901455 
L 314.056183 -40.901455 
L 317.364484 -40.901455 
L 320.672784 -40.901455 
L 323.981084 -40.901455 
L 327.289385 -40.901455 
L 330.597685 -40.901455 
L 333.905986 -40.901455 
L 337.214286 -40.901455 
L 340.522586 -40.901455 
L 343.830887 -40.901455 
L 347.139187 -40.901455 
L 350.447488 -40.901455 
L 353.755788 -40.901455 
L 357.064088 -40.901455 
L 360.372389 -40.901455 
L 363.680689 -40.901455 
L 366.98899 -40.901455 
L 370.29729 -40.901455 
L 373.60559 -40.901455 
L 376.913891 -40.901455 
L 380.222191 -40.901455 
L 383.530492 -40.901455 
L 386.838792 -40.901455 
L 390.147092 -40.901455 
L 393.455393 -40.901455 
L 396.763693 -40.901455 
L 396.763693 -69.835636 
L 396.763693 -69.835636 
L 393.455393 -68.920164 
L 390.147092 -68.895981 
L 386.838792 -68.418327 
L 383.530492 -67.098641 
L 380.222191 -66.27878 
L 376.913891 -64.924122 
L 373.60559 -62.098908 
L 370.29729 -61.396265 
L 366.98899 -61.158228 
L 363.680689 -60.793738 
L 360.372389 -58.219454 
L 357.064088 -58.196492 
L 353.755788 -57.874564 
L 350.447488 -57.820491 
L 347.139187 -57.731925 
L 343.830887 -54.065405 
L 340.522586 -54.060712 
L 337.214286 -53.980842 
L 333.905986 -53.896444 
L 330.597685 -53.756718 
L 327.289385 -52.976176 
L 323.981084 -52.606245 
L 320.672784 -52.546983 
L 317.364484 -52.331121 
L 314.056183 -51.882308 
L 310.747883 -51.760311 
L 307.439583 -51.743487 
L 304.131282 -50.749004 
L 300.822982 -50.629611 
L 297.514681 -50.242908 
L 294.206381 -49.744372 
L 290.898081 -49.191382 
L 287.58978 -48.754544 
L 284.28148 -48.509952 
L 280.973179 -48.418847 
L 277.664879 -48.250996 
L 274.356579 -47.957271 
L 271.048278 -47.807051 
L 267.739978 -46.315476 
L 264.431677 -46.150148 
L 261.123377 -46.134569 
L 257.815077 -45.567344 
L 254.506776 -45.504627 
L 251.198476 -45.4294 
L 247.890175 -44.983929 
L 244.581875 -44.679935 
L 241.273575 -44.309217 
L 237.965274 -44.242316 
L 234.656974 -43.839459 
L 231.348673 -43.662632 
L 228.040373 -43.520154 
L 224.732073 -42.73181 
L 221.423772 -42.595929 
L 218.115472 -42.249803 
L 214.807171 -42.216049 
L 211.498871 -41.771313 
L 208.190571 -41.737808 
L 204.88227 -41.656813 
L 201.57397 -41.623265 
L 198.265669 -41.531588 
L 194.957369 -41.372958 
L 191.649069 -41.315056 
L 188.340768 -41.212198 
L 185.032468 -40.609773 
L 181.724167 -40.40929 
L 178.415867 -39.945041 
L 175.107567 -39.828259 
L 171.799266 -39.794182 
L 168.490966 -39.423598 
L 165.182666 -39.36519 
L 161.874365 -39.315092 
L 158.566065 -39.217617 
L 155.257764 -39.159157 
L 151.949464 -38.769531 
L 148.641164 -38.577197 
L 145.332863 -38.421779 
L 142.024563 -38.416839 
L 138.716262 -38.023056 
L 135.407962 -37.96972 
L 132.099662 -37.489756 
L 128.791361 -37.064567 
L 125.483061 -37.010371 
L 122.17476 -36.821794 
L 118.86646 -36.645486 
L 115.55816 -35.9957 
L 112.249859 -34.863803 
L 108.941559 -33.424632 
L 105.633258 -33.237806 
L 102.324958 -31.295095 
L 99.016658 -29.550375 
L 95.708357 -28.811402 
L 92.400057 -25.82 
z
" id="mf70f41df57" style="stroke:#f14432;stroke-opacity:0.8;"/>
    </defs>
    <g clip-path="url(#paf6f7d310a)">
     <use style="fill:#f14432;fill-opacity:0.8;stroke:#f14432;stroke-opacity:0.8;" x="0" xlink:href="#mf70f41df57" y="354.04"/>
    </g>
   </g>
   <g id="matplotlib.axis_1"/>
   <g id="matplotlib.axis_2">
    <g id="ytick_1">
     <g id="line2d_1">
      <defs>
       <path d="M 0 0 
L -3.5 0 
" id="mc855bb243e" style="stroke:#000000;stroke-width:0.8;"/>
      </defs>
      <g>
       <use style="stroke:#000000;stroke-width:0.8;" x="77.181875" xlink:href="#mc855bb243e" y="313.138545"/>
      </g>
     </g>
     <g id="text_1">
      <!-- 0.000 -->
      <defs>
       <path d="M 31.78125 66.40625 
Q 24.171875 66.40625 20.328125 58.90625 
Q 16.5 51.421875 16.5 36.375 
Q 16.5 21.390625 20.328125 13.890625 
Q 24.171875 6.390625 31.78125 6.390625 
Q 39.453125 6.390625 43.28125 13.890625 
Q 47.125 21.390625 47.125 36.375 
Q 47.125 51.421875 43.28125 58.90625 
Q 39.453125 66.40625 31.78125 66.40625 
z
M 31.78125 74.21875 
Q 44.046875 74.21875 50.515625 64.515625 
Q 56.984375 54.828125 56.984375 36.375 
Q 56.984375 17.96875 50.515625 8.265625 
Q 44.046875 -1.421875 31.78125 -1.421875 
Q 19.53125 -1.421875 13.0625 8.265625 
Q 6.59375 17.96875 6.59375 36.375 
Q 6.59375 54.828125 13.0625 64.515625 
Q 19.53125 74.21875 31.78125 74.21875 
z
" id="DejaVuSans-30"/>
       <path d="M 10.6875 12.40625 
L 21 12.40625 
L 21 0 
L 10.6875 0 
z
" id="DejaVuSans-2e"/>
      </defs>
      <g transform="translate(7.2 321.496827)scale(0.22 -0.22)">
       <use xlink:href="#DejaVuSans-30"/>
       <use x="63.623047" xlink:href="#DejaVuSans-2e"/>
       <use x="95.410156" xlink:href="#DejaVuSans-30"/>
       <use x="159.033203" xlink:href="#DejaVuSans-30"/>
       <use x="222.65625" xlink:href="#DejaVuSans-30"/>
      </g>
     </g>
    </g>
    <g id="ytick_2">
     <g id="line2d_2">
      <g>
       <use style="stroke:#000000;stroke-width:0.8;" x="77.181875" xlink:href="#mc855bb243e" y="248.700208"/>
      </g>
     </g>
     <g id="text_2">
      <!-- 0.002 -->
      <defs>
       <path d="M 19.1875 8.296875 
L 53.609375 8.296875 
L 53.609375 0 
L 7.328125 0 
L 7.328125 8.296875 
Q 12.9375 14.109375 22.625 23.890625 
Q 32.328125 33.6875 34.8125 36.53125 
Q 39.546875 41.84375 41.421875 45.53125 
Q 43.3125 49.21875 43.3125 52.78125 
Q 43.3125 58.59375 39.234375 62.25 
Q 35.15625 65.921875 28.609375 65.921875 
Q 23.96875 65.921875 18.8125 64.3125 
Q 13.671875 62.703125 7.8125 59.421875 
L 7.8125 69.390625 
Q 13.765625 71.78125 18.9375 73 
Q 24.125 74.21875 28.421875 74.21875 
Q 39.75 74.21875 46.484375 68.546875 
Q 53.21875 62.890625 53.21875 53.421875 
Q 53.21875 48.921875 51.53125 44.890625 
Q 49.859375 40.875 45.40625 35.40625 
Q 44.1875 33.984375 37.640625 27.21875 
Q 31.109375 20.453125 19.1875 8.296875 
z
" id="DejaVuSans-32"/>
      </defs>
      <g transform="translate(7.2 257.058489)scale(0.22 -0.22)">
       <use xlink:href="#DejaVuSans-30"/>
       <use x="63.623047" xlink:href="#DejaVuSans-2e"/>
       <use x="95.410156" xlink:href="#DejaVuSans-30"/>
       <use x="159.033203" xlink:href="#DejaVuSans-30"/>
       <use x="222.65625" xlink:href="#DejaVuSans-32"/>
      </g>
     </g>
    </g>
    <g id="ytick_3">
     <g id="line2d_3">
      <g>
       <use style="stroke:#000000;stroke-width:0.8;" x="77.181875" xlink:href="#mc855bb243e" y="184.26187"/>
      </g>
     </g>
     <g id="text_3">
      <!-- 0.004 -->
      <defs>
       <path d="M 37.796875 64.3125 
L 12.890625 25.390625 
L 37.796875 25.390625 
z
M 35.203125 72.90625 
L 47.609375 72.90625 
L 47.609375 25.390625 
L 58.015625 25.390625 
L 58.015625 17.1875 
L 47.609375 17.1875 
L 47.609375 0 
L 37.796875 0 
L 37.796875 17.1875 
L 4.890625 17.1875 
L 4.890625 26.703125 
z
" id="DejaVuSans-34"/>
      </defs>
      <g transform="translate(7.2 192.620151)scale(0.22 -0.22)">
       <use xlink:href="#DejaVuSans-30"/>
       <use x="63.623047" xlink:href="#DejaVuSans-2e"/>
       <use x="95.410156" xlink:href="#DejaVuSans-30"/>
       <use x="159.033203" xlink:href="#DejaVuSans-30"/>
       <use x="222.65625" xlink:href="#DejaVuSans-34"/>
      </g>
     </g>
    </g>
    <g id="ytick_4">
     <g id="line2d_4">
      <g>
       <use style="stroke:#000000;stroke-width:0.8;" x="77.181875" xlink:href="#mc855bb243e" y="119.823532"/>
      </g>
     </g>
     <g id="text_4">
      <!-- 0.006 -->
      <defs>
       <path d="M 33.015625 40.375 
Q 26.375 40.375 22.484375 35.828125 
Q 18.609375 31.296875 18.609375 23.390625 
Q 18.609375 15.53125 22.484375 10.953125 
Q 26.375 6.390625 33.015625 6.390625 
Q 39.65625 6.390625 43.53125 10.953125 
Q 47.40625 15.53125 47.40625 23.390625 
Q 47.40625 31.296875 43.53125 35.828125 
Q 39.65625 40.375 33.015625 40.375 
z
M 52.59375 71.296875 
L 52.59375 62.3125 
Q 48.875 64.0625 45.09375 64.984375 
Q 41.3125 65.921875 37.59375 65.921875 
Q 27.828125 65.921875 22.671875 59.328125 
Q 17.53125 52.734375 16.796875 39.40625 
Q 19.671875 43.65625 24.015625 45.921875 
Q 28.375 48.1875 33.59375 48.1875 
Q 44.578125 48.1875 50.953125 41.515625 
Q 57.328125 34.859375 57.328125 23.390625 
Q 57.328125 12.15625 50.6875 5.359375 
Q 44.046875 -1.421875 33.015625 -1.421875 
Q 20.359375 -1.421875 13.671875 8.265625 
Q 6.984375 17.96875 6.984375 36.375 
Q 6.984375 53.65625 15.1875 63.9375 
Q 23.390625 74.21875 37.203125 74.21875 
Q 40.921875 74.21875 44.703125 73.484375 
Q 48.484375 72.75 52.59375 71.296875 
z
" id="DejaVuSans-36"/>
      </defs>
      <g transform="translate(7.2 128.181813)scale(0.22 -0.22)">
       <use xlink:href="#DejaVuSans-30"/>
       <use x="63.623047" xlink:href="#DejaVuSans-2e"/>
       <use x="95.410156" xlink:href="#DejaVuSans-30"/>
       <use x="159.033203" xlink:href="#DejaVuSans-30"/>
       <use x="222.65625" xlink:href="#DejaVuSans-36"/>
      </g>
     </g>
    </g>
    <g id="ytick_5">
     <g id="line2d_5">
      <g>
       <use style="stroke:#000000;stroke-width:0.8;" x="77.181875" xlink:href="#mc855bb243e" y="55.385194"/>
      </g>
     </g>
     <g id="text_5">
      <!-- 0.008 -->
      <defs>
       <path d="M 31.78125 34.625 
Q 24.75 34.625 20.71875 30.859375 
Q 16.703125 27.09375 16.703125 20.515625 
Q 16.703125 13.921875 20.71875 10.15625 
Q 24.75 6.390625 31.78125 6.390625 
Q 38.8125 6.390625 42.859375 10.171875 
Q 46.921875 13.96875 46.921875 20.515625 
Q 46.921875 27.09375 42.890625 30.859375 
Q 38.875 34.625 31.78125 34.625 
z
M 21.921875 38.8125 
Q 15.578125 40.375 12.03125 44.71875 
Q 8.5 49.078125 8.5 55.328125 
Q 8.5 64.0625 14.71875 69.140625 
Q 20.953125 74.21875 31.78125 74.21875 
Q 42.671875 74.21875 48.875 69.140625 
Q 55.078125 64.0625 55.078125 55.328125 
Q 55.078125 49.078125 51.53125 44.71875 
Q 48 40.375 41.703125 38.8125 
Q 48.828125 37.15625 52.796875 32.3125 
Q 56.78125 27.484375 56.78125 20.515625 
Q 56.78125 9.90625 50.3125 4.234375 
Q 43.84375 -1.421875 31.78125 -1.421875 
Q 19.734375 -1.421875 13.25 4.234375 
Q 6.78125 9.90625 6.78125 20.515625 
Q 6.78125 27.484375 10.78125 32.3125 
Q 14.796875 37.15625 21.921875 38.8125 
z
M 18.3125 54.390625 
Q 18.3125 48.734375 21.84375 45.5625 
Q 25.390625 42.390625 31.78125 42.390625 
Q 38.140625 42.390625 41.71875 45.5625 
Q 45.3125 48.734375 45.3125 54.390625 
Q 45.3125 60.0625 41.71875 63.234375 
Q 38.140625 66.40625 31.78125 66.40625 
Q 25.390625 66.40625 21.84375 63.234375 
Q 18.3125 60.0625 18.3125 54.390625 
z
" id="DejaVuSans-38"/>
      </defs>
      <g transform="translate(7.2 63.743475)scale(0.22 -0.22)">
       <use xlink:href="#DejaVuSans-30"/>
       <use x="63.623047" xlink:href="#DejaVuSans-2e"/>
       <use x="95.410156" xlink:href="#DejaVuSans-30"/>
       <use x="159.033203" xlink:href="#DejaVuSans-30"/>
       <use x="222.65625" xlink:href="#DejaVuSans-38"/>
      </g>
     </g>
    </g>
   </g>
   <g id="patch_3">
    <path d="M 77.181875 343.34 
L 77.181875 10.7 
" style="fill:none;stroke:#000000;stroke-linecap:square;stroke-linejoin:miter;stroke-width:0.8;"/>
   </g>
   <g id="patch_4">
    <path d="M 411.981875 343.34 
L 411.981875 10.7 
" style="fill:none;stroke:#000000;stroke-linecap:square;stroke-linejoin:miter;stroke-width:0.8;"/>
   </g>
   <g id="patch_5">
    <path d="M 77.181875 343.34 
L 411.981875 343.34 
" style="fill:none;stroke:#000000;stroke-linecap:square;stroke-linejoin:miter;stroke-width:0.8;"/>
   </g>
   <g id="patch_6">
    <path d="M 77.181875 10.7 
L 411.981875 10.7 
" style="fill:none;stroke:#000000;stroke-linecap:square;stroke-linejoin:miter;stroke-width:0.8;"/>
   </g>
  </g>
 </g>
 <defs>
  <clipPath id="paf6f7d310a">
   <rect height="332.64" width="334.8" x="77.181875" y="10.7"/>
  </clipPath>
 </defs>
</svg>
