<?xml version="1.0" encoding="utf-8" standalone="no"?>
<!DOCTYPE svg PUBLIC "-//W3C//DTD SVG 1.1//EN"
  "http://www.w3.org/Graphics/SVG/1.1/DTD/svg11.dtd">
<!-- Created with matplotlib (http://matplotlib.org/) -->
<svg height="355pt" version="1.1" viewBox="0 0 441 355" width="441pt" xmlns="http://www.w3.org/2000/svg" xmlns:xlink="http://www.w3.org/1999/xlink">
 <defs>
  <style type="text/css">
*{stroke-linecap:butt;stroke-linejoin:round;}
  </style>
 </defs>
 <g id="figure_1">
  <g id="patch_1">
   <path d="M 0 355.533259 
L 441.117188 355.533259 
L 441.117188 -0 
L 0 -0 
z
" style="fill:#ffffff;"/>
  </g>
  <g id="axes_1">
   <g id="patch_2">
    <path d="M 95.617188 344.833259 
L 430.417188 344.833259 
L 430.417188 12.193259 
L 95.617188 12.193259 
z
" style="fill:#ffffff;"/>
   </g>
   <g id="PolyCollection_1">
    <defs>
     <path d="M 110.835369 -25.82 
L 110.835369 -141.632757 
L 114.14367 -141.632757 
L 117.45197 -141.632757 
L 120.760271 -141.632757 
L 124.068571 -141.632757 
L 127.376871 -141.632757 
L 130.685172 -141.632757 
L 133.993472 -141.632757 
L 137.301772 -141.632757 
L 140.610073 -141.632757 
L 143.918373 -141.632757 
L 147.226674 -141.632757 
L 150.534974 -141.632757 
L 153.843274 -141.632757 
L 157.151575 -141.632757 
L 160.459875 -141.632757 
L 163.768176 -141.632757 
L 167.076476 -141.632757 
L 170.384776 -141.632757 
L 173.693077 -141.632757 
L 177.001377 -141.632757 
L 180.309678 -141.632757 
L 183.617978 -141.632757 
L 186.926278 -141.632757 
L 190.234579 -141.632757 
L 193.542879 -141.632757 
L 196.85118 -141.632757 
L 200.15948 -141.632757 
L 203.46778 -141.632757 
L 206.776081 -141.632757 
L 210.084381 -141.632757 
L 213.392682 -141.632757 
L 216.700982 -141.632757 
L 220.009282 -141.632757 
L 223.317583 -141.632757 
L 226.625883 -141.632757 
L 229.934184 -141.632757 
L 233.242484 -141.632757 
L 236.550784 -141.632757 
L 239.859085 -141.632757 
L 243.167385 -141.632757 
L 246.475686 -141.632757 
L 249.783986 -141.632757 
L 253.092286 -141.632757 
L 256.400587 -141.632757 
L 259.708887 -141.632757 
L 263.017188 -141.632757 
L 266.325488 -141.632757 
L 269.633788 -141.632757 
L 272.942089 -141.632757 
L 276.250389 -141.632757 
L 279.558689 -141.632757 
L 282.86699 -141.632757 
L 286.17529 -141.632757 
L 289.483591 -141.632757 
L 292.791891 -141.632757 
L 296.100191 -141.632757 
L 299.408492 -141.632757 
L 302.716792 -141.632757 
L 306.025093 -141.632757 
L 309.333393 -141.632757 
L 312.641693 -141.632757 
L 315.949994 -141.632757 
L 319.258294 -141.632757 
L 322.566595 -141.632757 
L 325.874895 -141.632757 
L 329.183195 -141.632757 
L 332.491496 -141.632757 
L 335.799796 -141.632757 
L 339.108097 -141.632757 
L 342.416397 -141.632757 
L 345.724697 -141.632757 
L 349.032998 -141.632757 
L 352.341298 -141.632757 
L 355.649599 -141.632757 
L 358.957899 -141.632757 
L 362.266199 -141.632757 
L 365.5745 -141.632757 
L 368.8828 -141.632757 
L 372.191101 -141.632757 
L 375.499401 -141.632757 
L 378.807701 -141.632757 
L 382.116002 -141.632757 
L 385.424302 -141.632757 
L 388.732603 -141.632757 
L 392.040903 -141.632757 
L 395.349203 -141.632757 
L 398.657504 -141.632757 
L 401.965804 -141.632757 
L 405.274104 -141.632757 
L 408.582405 -141.632757 
L 411.890705 -141.632757 
L 415.199006 -141.632757 
L 415.199006 -328.22 
L 415.199006 -328.22 
L 411.890705 -264.825321 
L 408.582405 -241.146287 
L 405.274104 -230.414975 
L 401.965804 -230.210937 
L 398.657504 -221.406931 
L 395.349203 -219.446609 
L 392.040903 -216.650488 
L 388.732603 -213.724667 
L 385.424302 -206.383728 
L 382.116002 -204.113705 
L 378.807701 -202.580484 
L 375.499401 -202.012194 
L 372.191101 -197.641117 
L 368.8828 -194.87608 
L 365.5745 -190.202962 
L 362.266199 -176.143986 
L 358.957899 -173.942126 
L 355.649599 -172.964901 
L 352.341298 -172.867963 
L 349.032998 -170.881435 
L 345.724697 -170.638841 
L 342.416397 -169.926914 
L 339.108097 -168.180789 
L 335.799796 -167.648234 
L 332.491496 -167.459586 
L 329.183195 -162.101161 
L 325.874895 -161.159132 
L 322.566595 -160.901441 
L 319.258294 -160.620638 
L 315.949994 -160.581051 
L 312.641693 -159.747331 
L 309.333393 -157.731377 
L 306.025093 -154.284014 
L 302.716792 -153.789723 
L 299.408492 -153.742441 
L 296.100191 -153.370306 
L 292.791891 -152.637729 
L 289.483591 -152.219314 
L 286.17529 -152.080608 
L 282.86699 -149.665156 
L 279.558689 -147.999546 
L 276.250389 -147.668793 
L 272.942089 -146.763742 
L 269.633788 -145.615521 
L 266.325488 -144.957387 
L 263.017188 -144.83351 
L 259.708887 -143.876225 
L 256.400587 -143.689883 
L 253.092286 -143.340266 
L 249.783986 -141.882523 
L 246.475686 -140.837128 
L 243.167385 -140.759077 
L 239.859085 -140.287186 
L 236.550784 -139.114213 
L 233.242484 -139.105934 
L 229.934184 -138.54306 
L 226.625883 -137.908599 
L 223.317583 -137.330183 
L 220.009282 -136.948026 
L 216.700982 -135.96565 
L 213.392682 -135.8226 
L 210.084381 -134.980552 
L 206.776081 -134.975437 
L 203.46778 -134.849745 
L 200.15948 -134.062211 
L 196.85118 -134.044526 
L 193.542879 -133.798342 
L 190.234579 -130.348139 
L 186.926278 -128.788992 
L 183.617978 -127.465705 
L 180.309678 -126.749237 
L 177.001377 -125.740672 
L 173.693077 -125.010368 
L 170.384776 -122.345313 
L 167.076476 -120.717431 
L 163.768176 -117.986221 
L 160.459875 -116.825776 
L 157.151575 -115.637207 
L 153.843274 -114.112054 
L 150.534974 -113.298909 
L 147.226674 -112.733707 
L 143.918373 -109.651481 
L 140.610073 -108.994335 
L 137.301772 -105.404209 
L 133.993472 -104.82708 
L 130.685172 -97.865019 
L 127.376871 -96.177404 
L 124.068571 -96.087983 
L 120.760271 -92.55428 
L 117.45197 -92.206294 
L 114.14367 -86.003211 
L 110.835369 -25.82 
z
" id="m75101f9db4" style="stroke:#4a98c9;"/>
    </defs>
    <g clip-path="url(#p4a7d9446d3)">
     <use style="fill:#4a98c9;stroke:#4a98c9;" x="0" xlink:href="#m75101f9db4" y="355.533259"/>
    </g>
   </g>
   <g id="PolyCollection_2">
    <defs>
     <path d="M 110.835369 -90.638267 
L 110.835369 -141.632757 
L 114.14367 -141.632757 
L 117.45197 -141.632757 
L 120.760271 -141.632757 
L 124.068571 -141.632757 
L 127.376871 -141.632757 
L 130.685172 -141.632757 
L 133.993472 -141.632757 
L 137.301772 -141.632757 
L 140.610073 -141.632757 
L 143.918373 -141.632757 
L 147.226674 -141.632757 
L 150.534974 -141.632757 
L 153.843274 -141.632757 
L 157.151575 -141.632757 
L 160.459875 -141.632757 
L 163.768176 -141.632757 
L 167.076476 -141.632757 
L 170.384776 -141.632757 
L 173.693077 -141.632757 
L 177.001377 -141.632757 
L 180.309678 -141.632757 
L 183.617978 -141.632757 
L 186.926278 -141.632757 
L 190.234579 -141.632757 
L 193.542879 -141.632757 
L 196.85118 -141.632757 
L 200.15948 -141.632757 
L 203.46778 -141.632757 
L 206.776081 -141.632757 
L 210.084381 -141.632757 
L 213.392682 -141.632757 
L 216.700982 -141.632757 
L 220.009282 -141.632757 
L 223.317583 -141.632757 
L 226.625883 -141.632757 
L 229.934184 -141.632757 
L 233.242484 -141.632757 
L 236.550784 -141.632757 
L 239.859085 -141.632757 
L 243.167385 -141.632757 
L 246.475686 -141.632757 
L 249.783986 -141.632757 
L 253.092286 -141.632757 
L 256.400587 -141.632757 
L 259.708887 -141.632757 
L 263.017188 -141.632757 
L 266.325488 -141.632757 
L 269.633788 -141.632757 
L 272.942089 -141.632757 
L 276.250389 -141.632757 
L 279.558689 -141.632757 
L 282.86699 -141.632757 
L 286.17529 -141.632757 
L 289.483591 -141.632757 
L 292.791891 -141.632757 
L 296.100191 -141.632757 
L 299.408492 -141.632757 
L 302.716792 -141.632757 
L 306.025093 -141.632757 
L 309.333393 -141.632757 
L 312.641693 -141.632757 
L 315.949994 -141.632757 
L 319.258294 -141.632757 
L 322.566595 -141.632757 
L 325.874895 -141.632757 
L 329.183195 -141.632757 
L 332.491496 -141.632757 
L 335.799796 -141.632757 
L 339.108097 -141.632757 
L 342.416397 -141.632757 
L 345.724697 -141.632757 
L 349.032998 -141.632757 
L 352.341298 -141.632757 
L 355.649599 -141.632757 
L 358.957899 -141.632757 
L 362.266199 -141.632757 
L 365.5745 -141.632757 
L 368.8828 -141.632757 
L 372.191101 -141.632757 
L 375.499401 -141.632757 
L 378.807701 -141.632757 
L 382.116002 -141.632757 
L 385.424302 -141.632757 
L 388.732603 -141.632757 
L 392.040903 -141.632757 
L 395.349203 -141.632757 
L 398.657504 -141.632757 
L 401.965804 -141.632757 
L 405.274104 -141.632757 
L 408.582405 -141.632757 
L 411.890705 -141.632757 
L 415.199006 -141.632757 
L 415.199006 -285.022512 
L 415.199006 -285.022512 
L 411.890705 -230.205791 
L 408.582405 -216.667023 
L 405.274104 -214.896839 
L 401.965804 -209.599747 
L 398.657504 -209.538076 
L 395.349203 -207.088342 
L 392.040903 -204.339787 
L 388.732603 -193.977137 
L 385.424302 -190.584148 
L 382.116002 -189.817223 
L 378.807701 -187.533087 
L 375.499401 -182.633739 
L 372.191101 -182.177695 
L 368.8828 -181.68628 
L 365.5745 -179.826386 
L 362.266199 -178.036924 
L 358.957899 -172.248326 
L 355.649599 -170.967848 
L 352.341298 -168.690133 
L 349.032998 -167.954088 
L 345.724697 -167.299295 
L 342.416397 -166.362026 
L 339.108097 -165.427231 
L 335.799796 -165.066464 
L 332.491496 -164.727702 
L 329.183195 -162.279073 
L 325.874895 -160.643949 
L 322.566595 -159.103575 
L 319.258294 -157.839117 
L 315.949994 -156.745084 
L 312.641693 -155.546244 
L 309.333393 -154.192763 
L 306.025093 -153.803385 
L 302.716792 -150.982008 
L 299.408492 -149.657735 
L 296.100191 -148.481969 
L 292.791891 -148.424921 
L 289.483591 -147.772898 
L 286.17529 -147.614807 
L 282.86699 -145.354367 
L 279.558689 -145.00483 
L 276.250389 -143.955909 
L 272.942089 -143.89766 
L 269.633788 -143.668595 
L 266.325488 -143.657406 
L 263.017188 -143.299849 
L 259.708887 -143.251943 
L 256.400587 -142.728834 
L 253.092286 -142.166977 
L 249.783986 -141.709232 
L 246.475686 -139.563844 
L 243.167385 -139.361297 
L 239.859085 -138.736881 
L 236.550784 -138.688865 
L 233.242484 -138.44666 
L 229.934184 -137.440762 
L 226.625883 -137.006416 
L 223.317583 -136.874695 
L 220.009282 -134.618808 
L 216.700982 -134.149367 
L 213.392682 -131.668736 
L 210.084381 -131.387978 
L 206.776081 -131.264443 
L 203.46778 -130.471547 
L 200.15948 -129.939244 
L 196.85118 -129.074004 
L 193.542879 -128.86747 
L 190.234579 -127.271362 
L 186.926278 -126.799174 
L 183.617978 -126.558899 
L 180.309678 -125.619812 
L 177.001377 -125.551724 
L 173.693077 -125.413181 
L 170.384776 -124.077199 
L 167.076476 -123.684729 
L 163.768176 -122.284088 
L 160.459875 -119.881522 
L 157.151575 -119.35705 
L 153.843274 -118.177367 
L 150.534974 -117.182956 
L 147.226674 -116.452658 
L 143.918373 -109.936033 
L 140.610073 -108.17922 
L 137.301772 -107.916102 
L 133.993472 -104.991046 
L 130.685172 -103.982728 
L 127.376871 -101.88475 
L 124.068571 -100.375935 
L 120.760271 -98.281207 
L 117.45197 -96.909113 
L 114.14367 -91.569201 
L 110.835369 -90.638267 
z
" id="m25a973fa2d" style="stroke:#f14432;stroke-opacity:0.8;"/>
    </defs>
    <g clip-path="url(#p4a7d9446d3)">
     <use style="fill:#f14432;fill-opacity:0.8;stroke:#f14432;stroke-opacity:0.8;" x="0" xlink:href="#m25a973fa2d" y="355.533259"/>
    </g>
   </g>
   <g id="matplotlib.axis_1"/>
   <g id="matplotlib.axis_2">
    <g id="ytick_1">
     <g id="line2d_1">
      <defs>
       <path d="M 0 0 
L -3.5 0 
" id="mc2397f5084" style="stroke:#000000;stroke-width:0.8;"/>
      </defs>
      <g>
       <use style="stroke:#000000;stroke-width:0.8;" x="95.617188" xlink:href="#mc2397f5084" y="280.014575"/>
      </g>
     </g>
     <g id="text_1">
      <!-- −0.001 -->
      <defs>
       <path d="M 10.59375 35.5 
L 73.1875 35.5 
L 73.1875 27.203125 
L 10.59375 27.203125 
z
" id="DejaVuSans-2212"/>
       <path d="M 31.78125 66.40625 
Q 24.171875 66.40625 20.328125 58.90625 
Q 16.5 51.421875 16.5 36.375 
Q 16.5 21.390625 20.328125 13.890625 
Q 24.171875 6.390625 31.78125 6.390625 
Q 39.453125 6.390625 43.28125 13.890625 
Q 47.125 21.390625 47.125 36.375 
Q 47.125 51.421875 43.28125 58.90625 
Q 39.453125 66.40625 31.78125 66.40625 
z
M 31.78125 74.21875 
Q 44.046875 74.21875 50.515625 64.515625 
Q 56.984375 54.828125 56.984375 36.375 
Q 56.984375 17.96875 50.515625 8.265625 
Q 44.046875 -1.421875 31.78125 -1.421875 
Q 19.53125 -1.421875 13.0625 8.265625 
Q 6.59375 17.96875 6.59375 36.375 
Q 6.59375 54.828125 13.0625 64.515625 
Q 19.53125 74.21875 31.78125 74.21875 
z
" id="DejaVuSans-30"/>
       <path d="M 10.6875 12.40625 
L 21 12.40625 
L 21 0 
L 10.6875 0 
z
" id="DejaVuSans-2e"/>
       <path d="M 12.40625 8.296875 
L 28.515625 8.296875 
L 28.515625 63.921875 
L 10.984375 60.40625 
L 10.984375 69.390625 
L 28.421875 72.90625 
L 38.28125 72.90625 
L 38.28125 8.296875 
L 54.390625 8.296875 
L 54.390625 0 
L 12.40625 0 
z
" id="DejaVuSans-31"/>
      </defs>
      <g transform="translate(7.2 288.372856)scale(0.22 -0.22)">
       <use xlink:href="#DejaVuSans-2212"/>
       <use x="83.789062" xlink:href="#DejaVuSans-30"/>
       <use x="147.412109" xlink:href="#DejaVuSans-2e"/>
       <use x="179.199219" xlink:href="#DejaVuSans-30"/>
       <use x="242.822266" xlink:href="#DejaVuSans-30"/>
       <use x="306.445312" xlink:href="#DejaVuSans-31"/>
      </g>
     </g>
    </g>
    <g id="ytick_2">
     <g id="line2d_2">
      <g>
       <use style="stroke:#000000;stroke-width:0.8;" x="95.617188" xlink:href="#mc2397f5084" y="213.900501"/>
      </g>
     </g>
     <g id="text_2">
      <!-- 0.000 -->
      <g transform="translate(25.635312 222.258783)scale(0.22 -0.22)">
       <use xlink:href="#DejaVuSans-30"/>
       <use x="63.623047" xlink:href="#DejaVuSans-2e"/>
       <use x="95.410156" xlink:href="#DejaVuSans-30"/>
       <use x="159.033203" xlink:href="#DejaVuSans-30"/>
       <use x="222.65625" xlink:href="#DejaVuSans-30"/>
      </g>
     </g>
    </g>
    <g id="ytick_3">
     <g id="line2d_3">
      <g>
       <use style="stroke:#000000;stroke-width:0.8;" x="95.617188" xlink:href="#mc2397f5084" y="147.786428"/>
      </g>
     </g>
     <g id="text_3">
      <!-- 0.001 -->
      <g transform="translate(25.635312 156.144709)scale(0.22 -0.22)">
       <use xlink:href="#DejaVuSans-30"/>
       <use x="63.623047" xlink:href="#DejaVuSans-2e"/>
       <use x="95.410156" xlink:href="#DejaVuSans-30"/>
       <use x="159.033203" xlink:href="#DejaVuSans-30"/>
       <use x="222.65625" xlink:href="#DejaVuSans-31"/>
      </g>
     </g>
    </g>
    <g id="ytick_4">
     <g id="line2d_4">
      <g>
       <use style="stroke:#000000;stroke-width:0.8;" x="95.617188" xlink:href="#mc2397f5084" y="81.672355"/>
      </g>
     </g>
     <g id="text_4">
      <!-- 0.002 -->
      <defs>
       <path d="M 19.1875 8.296875 
L 53.609375 8.296875 
L 53.609375 0 
L 7.328125 0 
L 7.328125 8.296875 
Q 12.9375 14.109375 22.625 23.890625 
Q 32.328125 33.6875 34.8125 36.53125 
Q 39.546875 41.84375 41.421875 45.53125 
Q 43.3125 49.21875 43.3125 52.78125 
Q 43.3125 58.59375 39.234375 62.25 
Q 35.15625 65.921875 28.609375 65.921875 
Q 23.96875 65.921875 18.8125 64.3125 
Q 13.671875 62.703125 7.8125 59.421875 
L 7.8125 69.390625 
Q 13.765625 71.78125 18.9375 73 
Q 24.125 74.21875 28.421875 74.21875 
Q 39.75 74.21875 46.484375 68.546875 
Q 53.21875 62.890625 53.21875 53.421875 
Q 53.21875 48.921875 51.53125 44.890625 
Q 49.859375 40.875 45.40625 35.40625 
Q 44.1875 33.984375 37.640625 27.21875 
Q 31.109375 20.453125 19.1875 8.296875 
z
" id="DejaVuSans-32"/>
      </defs>
      <g transform="translate(25.635312 90.030636)scale(0.22 -0.22)">
       <use xlink:href="#DejaVuSans-30"/>
       <use x="63.623047" xlink:href="#DejaVuSans-2e"/>
       <use x="95.410156" xlink:href="#DejaVuSans-30"/>
       <use x="159.033203" xlink:href="#DejaVuSans-30"/>
       <use x="222.65625" xlink:href="#DejaVuSans-32"/>
      </g>
     </g>
    </g>
    <g id="ytick_5">
     <g id="line2d_5">
      <g>
       <use style="stroke:#000000;stroke-width:0.8;" x="95.617188" xlink:href="#mc2397f5084" y="15.558281"/>
      </g>
     </g>
     <g id="text_5">
      <!-- 0.003 -->
      <defs>
       <path d="M 40.578125 39.3125 
Q 47.65625 37.796875 51.625 33 
Q 55.609375 28.21875 55.609375 21.1875 
Q 55.609375 10.40625 48.1875 4.484375 
Q 40.765625 -1.421875 27.09375 -1.421875 
Q 22.515625 -1.421875 17.65625 -0.515625 
Q 12.796875 0.390625 7.625 2.203125 
L 7.625 11.71875 
Q 11.71875 9.328125 16.59375 8.109375 
Q 21.484375 6.890625 26.8125 6.890625 
Q 36.078125 6.890625 40.9375 10.546875 
Q 45.796875 14.203125 45.796875 21.1875 
Q 45.796875 27.640625 41.28125 31.265625 
Q 36.765625 34.90625 28.71875 34.90625 
L 20.21875 34.90625 
L 20.21875 43.015625 
L 29.109375 43.015625 
Q 36.375 43.015625 40.234375 45.921875 
Q 44.09375 48.828125 44.09375 54.296875 
Q 44.09375 59.90625 40.109375 62.90625 
Q 36.140625 65.921875 28.71875 65.921875 
Q 24.65625 65.921875 20.015625 65.03125 
Q 15.375 64.15625 9.8125 62.3125 
L 9.8125 71.09375 
Q 15.4375 72.65625 20.34375 73.4375 
Q 25.25 74.21875 29.59375 74.21875 
Q 40.828125 74.21875 47.359375 69.109375 
Q 53.90625 64.015625 53.90625 55.328125 
Q 53.90625 49.265625 50.4375 45.09375 
Q 46.96875 40.921875 40.578125 39.3125 
z
" id="DejaVuSans-33"/>
      </defs>
      <g transform="translate(25.635312 23.916562)scale(0.22 -0.22)">
       <use xlink:href="#DejaVuSans-30"/>
       <use x="63.623047" xlink:href="#DejaVuSans-2e"/>
       <use x="95.410156" xlink:href="#DejaVuSans-30"/>
       <use x="159.033203" xlink:href="#DejaVuSans-30"/>
       <use x="222.65625" xlink:href="#DejaVuSans-33"/>
      </g>
     </g>
    </g>
   </g>
   <g id="patch_3">
    <path d="M 95.617188 344.833259 
L 95.617188 12.193259 
" style="fill:none;stroke:#000000;stroke-linecap:square;stroke-linejoin:miter;stroke-width:0.8;"/>
   </g>
   <g id="patch_4">
    <path d="M 430.417188 344.833259 
L 430.417188 12.193259 
" style="fill:none;stroke:#000000;stroke-linecap:square;stroke-linejoin:miter;stroke-width:0.8;"/>
   </g>
   <g id="patch_5">
    <path d="M 95.617188 344.833259 
L 430.417188 344.833259 
" style="fill:none;stroke:#000000;stroke-linecap:square;stroke-linejoin:miter;stroke-width:0.8;"/>
   </g>
   <g id="patch_6">
    <path d="M 95.617188 12.193259 
L 430.417188 12.193259 
" style="fill:none;stroke:#000000;stroke-linecap:square;stroke-linejoin:miter;stroke-width:0.8;"/>
   </g>
  </g>
 </g>
 <defs>
  <clipPath id="p4a7d9446d3">
   <rect height="332.64" width="334.8" x="95.617188" y="12.193259"/>
  </clipPath>
 </defs>
</svg>
