<?xml version="1.0" encoding="utf-8" standalone="no"?>
<!DOCTYPE svg PUBLIC "-//W3C//DTD SVG 1.1//EN"
  "http://www.w3.org/Graphics/SVG/1.1/DTD/svg11.dtd">
<!-- Created with matplotlib (http://matplotlib.org/) -->
<svg height="356pt" version="1.1" viewBox="0 0 441 356" width="441pt" xmlns="http://www.w3.org/2000/svg" xmlns:xlink="http://www.w3.org/1999/xlink">
 <defs>
  <style type="text/css">
*{stroke-linecap:butt;stroke-linejoin:round;}
  </style>
 </defs>
 <g id="figure_1">
  <g id="patch_1">
   <path d="M 0 356.212477 
L 441.117188 356.212477 
L 441.117188 0 
L 0 0 
z
" style="fill:#ffffff;"/>
  </g>
  <g id="axes_1">
   <g id="patch_2">
    <path d="M 95.617188 345.512477 
L 430.417188 345.512477 
L 430.417188 12.872477 
L 95.617188 12.872477 
z
" style="fill:#ffffff;"/>
   </g>
   <g id="PolyCollection_1">
    <defs>
     <path d="M 110.835369 -25.82 
L 110.835369 -83.838294 
L 114.14367 -83.838294 
L 117.45197 -83.838294 
L 120.760271 -83.838294 
L 124.068571 -83.838294 
L 127.376871 -83.838294 
L 130.685172 -83.838294 
L 133.993472 -83.838294 
L 137.301772 -83.838294 
L 140.610073 -83.838294 
L 143.918373 -83.838294 
L 147.226674 -83.838294 
L 150.534974 -83.838294 
L 153.843274 -83.838294 
L 157.151575 -83.838294 
L 160.459875 -83.838294 
L 163.768176 -83.838294 
L 167.076476 -83.838294 
L 170.384776 -83.838294 
L 173.693077 -83.838294 
L 177.001377 -83.838294 
L 180.309678 -83.838294 
L 183.617978 -83.838294 
L 186.926278 -83.838294 
L 190.234579 -83.838294 
L 193.542879 -83.838294 
L 196.85118 -83.838294 
L 200.15948 -83.838294 
L 203.46778 -83.838294 
L 206.776081 -83.838294 
L 210.084381 -83.838294 
L 213.392682 -83.838294 
L 216.700982 -83.838294 
L 220.009282 -83.838294 
L 223.317583 -83.838294 
L 226.625883 -83.838294 
L 229.934184 -83.838294 
L 233.242484 -83.838294 
L 236.550784 -83.838294 
L 239.859085 -83.838294 
L 243.167385 -83.838294 
L 246.475686 -83.838294 
L 249.783986 -83.838294 
L 253.092286 -83.838294 
L 256.400587 -83.838294 
L 259.708887 -83.838294 
L 263.017188 -83.838294 
L 266.325488 -83.838294 
L 269.633788 -83.838294 
L 272.942089 -83.838294 
L 276.250389 -83.838294 
L 279.558689 -83.838294 
L 282.86699 -83.838294 
L 286.17529 -83.838294 
L 289.483591 -83.838294 
L 292.791891 -83.838294 
L 296.100191 -83.838294 
L 299.408492 -83.838294 
L 302.716792 -83.838294 
L 306.025093 -83.838294 
L 309.333393 -83.838294 
L 312.641693 -83.838294 
L 315.949994 -83.838294 
L 319.258294 -83.838294 
L 322.566595 -83.838294 
L 325.874895 -83.838294 
L 329.183195 -83.838294 
L 332.491496 -83.838294 
L 335.799796 -83.838294 
L 339.108097 -83.838294 
L 342.416397 -83.838294 
L 345.724697 -83.838294 
L 349.032998 -83.838294 
L 352.341298 -83.838294 
L 355.649599 -83.838294 
L 358.957899 -83.838294 
L 362.266199 -83.838294 
L 365.5745 -83.838294 
L 368.8828 -83.838294 
L 372.191101 -83.838294 
L 375.499401 -83.838294 
L 378.807701 -83.838294 
L 382.116002 -83.838294 
L 385.424302 -83.838294 
L 388.732603 -83.838294 
L 392.040903 -83.838294 
L 395.349203 -83.838294 
L 398.657504 -83.838294 
L 401.965804 -83.838294 
L 405.274104 -83.838294 
L 408.582405 -83.838294 
L 411.890705 -83.838294 
L 415.199006 -83.838294 
L 415.199006 -328.22 
L 415.199006 -328.22 
L 411.890705 -265.223303 
L 408.582405 -252.46421 
L 405.274104 -248.384461 
L 401.965804 -234.266631 
L 398.657504 -226.464739 
L 395.349203 -222.339215 
L 392.040903 -210.2302 
L 388.732603 -205.575693 
L 385.424302 -186.818223 
L 382.116002 -185.67471 
L 378.807701 -185.518842 
L 375.499401 -182.401741 
L 372.191101 -177.680543 
L 368.8828 -173.567954 
L 365.5745 -172.002696 
L 362.266199 -168.302741 
L 358.957899 -167.099553 
L 355.649599 -164.605008 
L 352.341298 -160.556142 
L 349.032998 -160.122384 
L 345.724697 -157.350032 
L 342.416397 -154.805576 
L 339.108097 -151.621269 
L 335.799796 -132.116796 
L 332.491496 -131.069424 
L 329.183195 -130.36845 
L 325.874895 -129.131089 
L 322.566595 -128.316665 
L 319.258294 -126.739672 
L 315.949994 -125.297727 
L 312.641693 -122.876741 
L 309.333393 -117.870168 
L 306.025093 -116.320699 
L 302.716792 -116.168913 
L 299.408492 -115.461236 
L 296.100191 -113.701164 
L 292.791891 -111.29004 
L 289.483591 -111.176692 
L 286.17529 -111.125 
L 282.86699 -110.383313 
L 279.558689 -107.380542 
L 276.250389 -105.959483 
L 272.942089 -105.886061 
L 269.633788 -105.854245 
L 266.325488 -104.847598 
L 263.017188 -104.600548 
L 259.708887 -104.137386 
L 256.400587 -102.856389 
L 253.092286 -102.621322 
L 249.783986 -101.543552 
L 246.475686 -100.668767 
L 243.167385 -98.86007 
L 239.859085 -98.818129 
L 236.550784 -95.602926 
L 233.242484 -94.133559 
L 229.934184 -93.442505 
L 226.625883 -93.03649 
L 223.317583 -92.409782 
L 220.009282 -91.733005 
L 216.700982 -91.559092 
L 213.392682 -91.225485 
L 210.084381 -90.389575 
L 206.776081 -90.135869 
L 203.46778 -89.80066 
L 200.15948 -88.576358 
L 196.85118 -88.051024 
L 193.542879 -87.89763 
L 190.234579 -87.694211 
L 186.926278 -87.037445 
L 183.617978 -86.669429 
L 180.309678 -85.24587 
L 177.001377 -84.946268 
L 173.693077 -84.602509 
L 170.384776 -84.294332 
L 167.076476 -83.973383 
L 163.768176 -83.424204 
L 160.459875 -83.157891 
L 157.151575 -82.777372 
L 153.843274 -82.509668 
L 150.534974 -81.966719 
L 147.226674 -81.86309 
L 143.918373 -81.105017 
L 140.610073 -80.400368 
L 137.301772 -78.506197 
L 133.993472 -78.295569 
L 130.685172 -77.653647 
L 127.376871 -76.56398 
L 124.068571 -72.69496 
L 120.760271 -72.202053 
L 117.45197 -64.100437 
L 114.14367 -54.704052 
L 110.835369 -25.82 
z
" id="mc1b8d342b9" style="stroke:#4a98c9;"/>
    </defs>
    <g clip-path="url(#pb8dcedaf90)">
     <use style="fill:#4a98c9;stroke:#4a98c9;" x="0" xlink:href="#mc1b8d342b9" y="356.212477"/>
    </g>
   </g>
   <g id="PolyCollection_2">
    <defs>
     <path d="M 110.835369 -49.747191 
L 110.835369 -83.838294 
L 114.14367 -83.838294 
L 117.45197 -83.838294 
L 120.760271 -83.838294 
L 124.068571 -83.838294 
L 127.376871 -83.838294 
L 130.685172 -83.838294 
L 133.993472 -83.838294 
L 137.301772 -83.838294 
L 140.610073 -83.838294 
L 143.918373 -83.838294 
L 147.226674 -83.838294 
L 150.534974 -83.838294 
L 153.843274 -83.838294 
L 157.151575 -83.838294 
L 160.459875 -83.838294 
L 163.768176 -83.838294 
L 167.076476 -83.838294 
L 170.384776 -83.838294 
L 173.693077 -83.838294 
L 177.001377 -83.838294 
L 180.309678 -83.838294 
L 183.617978 -83.838294 
L 186.926278 -83.838294 
L 190.234579 -83.838294 
L 193.542879 -83.838294 
L 196.85118 -83.838294 
L 200.15948 -83.838294 
L 203.46778 -83.838294 
L 206.776081 -83.838294 
L 210.084381 -83.838294 
L 213.392682 -83.838294 
L 216.700982 -83.838294 
L 220.009282 -83.838294 
L 223.317583 -83.838294 
L 226.625883 -83.838294 
L 229.934184 -83.838294 
L 233.242484 -83.838294 
L 236.550784 -83.838294 
L 239.859085 -83.838294 
L 243.167385 -83.838294 
L 246.475686 -83.838294 
L 249.783986 -83.838294 
L 253.092286 -83.838294 
L 256.400587 -83.838294 
L 259.708887 -83.838294 
L 263.017188 -83.838294 
L 266.325488 -83.838294 
L 269.633788 -83.838294 
L 272.942089 -83.838294 
L 276.250389 -83.838294 
L 279.558689 -83.838294 
L 282.86699 -83.838294 
L 286.17529 -83.838294 
L 289.483591 -83.838294 
L 292.791891 -83.838294 
L 296.100191 -83.838294 
L 299.408492 -83.838294 
L 302.716792 -83.838294 
L 306.025093 -83.838294 
L 309.333393 -83.838294 
L 312.641693 -83.838294 
L 315.949994 -83.838294 
L 319.258294 -83.838294 
L 322.566595 -83.838294 
L 325.874895 -83.838294 
L 329.183195 -83.838294 
L 332.491496 -83.838294 
L 335.799796 -83.838294 
L 339.108097 -83.838294 
L 342.416397 -83.838294 
L 345.724697 -83.838294 
L 349.032998 -83.838294 
L 352.341298 -83.838294 
L 355.649599 -83.838294 
L 358.957899 -83.838294 
L 362.266199 -83.838294 
L 365.5745 -83.838294 
L 368.8828 -83.838294 
L 372.191101 -83.838294 
L 375.499401 -83.838294 
L 378.807701 -83.838294 
L 382.116002 -83.838294 
L 385.424302 -83.838294 
L 388.732603 -83.838294 
L 392.040903 -83.838294 
L 395.349203 -83.838294 
L 398.657504 -83.838294 
L 401.965804 -83.838294 
L 405.274104 -83.838294 
L 408.582405 -83.838294 
L 411.890705 -83.838294 
L 415.199006 -83.838294 
L 415.199006 -137.710174 
L 415.199006 -137.710174 
L 411.890705 -133.418595 
L 408.582405 -127.905076 
L 405.274104 -113.384112 
L 401.965804 -111.8002 
L 398.657504 -109.599306 
L 395.349203 -107.386404 
L 392.040903 -104.179288 
L 388.732603 -104.058053 
L 385.424302 -103.843723 
L 382.116002 -103.835831 
L 378.807701 -103.616382 
L 375.499401 -102.998919 
L 372.191101 -102.098245 
L 368.8828 -100.615497 
L 365.5745 -100.119687 
L 362.266199 -99.590566 
L 358.957899 -99.406415 
L 355.649599 -99.348092 
L 352.341298 -99.048106 
L 349.032998 -98.816775 
L 345.724697 -98.367729 
L 342.416397 -98.351642 
L 339.108097 -98.136863 
L 335.799796 -96.638254 
L 332.491496 -96.342848 
L 329.183195 -96.11475 
L 325.874895 -95.839899 
L 322.566595 -95.443071 
L 319.258294 -95.190545 
L 315.949994 -95.041248 
L 312.641693 -94.593772 
L 309.333393 -94.255819 
L 306.025093 -93.573382 
L 302.716792 -92.926908 
L 299.408492 -92.694675 
L 296.100191 -92.491448 
L 292.791891 -91.879321 
L 289.483591 -91.748759 
L 286.17529 -91.7322 
L 282.86699 -91.304519 
L 279.558689 -90.827917 
L 276.250389 -90.705179 
L 272.942089 -90.602732 
L 269.633788 -89.975317 
L 266.325488 -89.950487 
L 263.017188 -89.562469 
L 259.708887 -89.424569 
L 256.400587 -89.194952 
L 253.092286 -86.32286 
L 249.783986 -85.929908 
L 246.475686 -85.259485 
L 243.167385 -84.969074 
L 239.859085 -84.463766 
L 236.550784 -83.179945 
L 233.242484 -83.137228 
L 229.934184 -82.781624 
L 226.625883 -82.228019 
L 223.317583 -82.113708 
L 220.009282 -81.580528 
L 216.700982 -81.551853 
L 213.392682 -80.385304 
L 210.084381 -80.192214 
L 206.776081 -79.85672 
L 203.46778 -79.853744 
L 200.15948 -79.832033 
L 196.85118 -79.788227 
L 193.542879 -79.354374 
L 190.234579 -79.041736 
L 186.926278 -78.040328 
L 183.617978 -77.741781 
L 180.309678 -77.503597 
L 177.001377 -77.409711 
L 173.693077 -76.816649 
L 170.384776 -76.24406 
L 167.076476 -76.005498 
L 163.768176 -75.6258 
L 160.459875 -74.346739 
L 157.151575 -73.972022 
L 153.843274 -73.284893 
L 150.534974 -72.999224 
L 147.226674 -72.303999 
L 143.918373 -71.707018 
L 140.610073 -70.130319 
L 137.301772 -67.33722 
L 133.993472 -63.331836 
L 130.685172 -62.206352 
L 127.376871 -61.963574 
L 124.068571 -58.9925 
L 120.760271 -58.801377 
L 117.45197 -58.662648 
L 114.14367 -57.192913 
L 110.835369 -49.747191 
z
" id="md1fa85c794" style="stroke:#f14432;stroke-opacity:0.8;"/>
    </defs>
    <g clip-path="url(#pb8dcedaf90)">
     <use style="fill:#f14432;fill-opacity:0.8;stroke:#f14432;stroke-opacity:0.8;" x="0" xlink:href="#md1fa85c794" y="356.212477"/>
    </g>
   </g>
   <g id="matplotlib.axis_1"/>
   <g id="matplotlib.axis_2">
    <g id="ytick_1">
     <g id="line2d_1">
      <defs>
       <path d="M 0 0 
L -3.5 0 
" id="m6ef15da280" style="stroke:#000000;stroke-width:0.8;"/>
      </defs>
      <g>
       <use style="stroke:#000000;stroke-width:0.8;" x="95.617188" xlink:href="#m6ef15da280" y="315.176834"/>
      </g>
     </g>
     <g id="text_1">
      <!-- −0.001 -->
      <defs>
       <path d="M 10.59375 35.5 
L 73.1875 35.5 
L 73.1875 27.203125 
L 10.59375 27.203125 
z
" id="DejaVuSans-2212"/>
       <path d="M 31.78125 66.40625 
Q 24.171875 66.40625 20.328125 58.90625 
Q 16.5 51.421875 16.5 36.375 
Q 16.5 21.390625 20.328125 13.890625 
Q 24.171875 6.390625 31.78125 6.390625 
Q 39.453125 6.390625 43.28125 13.890625 
Q 47.125 21.390625 47.125 36.375 
Q 47.125 51.421875 43.28125 58.90625 
Q 39.453125 66.40625 31.78125 66.40625 
z
M 31.78125 74.21875 
Q 44.046875 74.21875 50.515625 64.515625 
Q 56.984375 54.828125 56.984375 36.375 
Q 56.984375 17.96875 50.515625 8.265625 
Q 44.046875 -1.421875 31.78125 -1.421875 
Q 19.53125 -1.421875 13.0625 8.265625 
Q 6.59375 17.96875 6.59375 36.375 
Q 6.59375 54.828125 13.0625 64.515625 
Q 19.53125 74.21875 31.78125 74.21875 
z
" id="DejaVuSans-30"/>
       <path d="M 10.6875 12.40625 
L 21 12.40625 
L 21 0 
L 10.6875 0 
z
" id="DejaVuSans-2e"/>
       <path d="M 12.40625 8.296875 
L 28.515625 8.296875 
L 28.515625 63.921875 
L 10.984375 60.40625 
L 10.984375 69.390625 
L 28.421875 72.90625 
L 38.28125 72.90625 
L 38.28125 8.296875 
L 54.390625 8.296875 
L 54.390625 0 
L 12.40625 0 
z
" id="DejaVuSans-31"/>
      </defs>
      <g transform="translate(7.2 323.535115)scale(0.22 -0.22)">
       <use xlink:href="#DejaVuSans-2212"/>
       <use x="83.789062" xlink:href="#DejaVuSans-30"/>
       <use x="147.412109" xlink:href="#DejaVuSans-2e"/>
       <use x="179.199219" xlink:href="#DejaVuSans-30"/>
       <use x="242.822266" xlink:href="#DejaVuSans-30"/>
       <use x="306.445312" xlink:href="#DejaVuSans-31"/>
      </g>
     </g>
    </g>
    <g id="ytick_2">
     <g id="line2d_2">
      <g>
       <use style="stroke:#000000;stroke-width:0.8;" x="95.617188" xlink:href="#m6ef15da280" y="272.374184"/>
      </g>
     </g>
     <g id="text_2">
      <!-- 0.000 -->
      <g transform="translate(25.635312 280.732465)scale(0.22 -0.22)">
       <use xlink:href="#DejaVuSans-30"/>
       <use x="63.623047" xlink:href="#DejaVuSans-2e"/>
       <use x="95.410156" xlink:href="#DejaVuSans-30"/>
       <use x="159.033203" xlink:href="#DejaVuSans-30"/>
       <use x="222.65625" xlink:href="#DejaVuSans-30"/>
      </g>
     </g>
    </g>
    <g id="ytick_3">
     <g id="line2d_3">
      <g>
       <use style="stroke:#000000;stroke-width:0.8;" x="95.617188" xlink:href="#m6ef15da280" y="229.571533"/>
      </g>
     </g>
     <g id="text_3">
      <!-- 0.001 -->
      <g transform="translate(25.635312 237.929814)scale(0.22 -0.22)">
       <use xlink:href="#DejaVuSans-30"/>
       <use x="63.623047" xlink:href="#DejaVuSans-2e"/>
       <use x="95.410156" xlink:href="#DejaVuSans-30"/>
       <use x="159.033203" xlink:href="#DejaVuSans-30"/>
       <use x="222.65625" xlink:href="#DejaVuSans-31"/>
      </g>
     </g>
    </g>
    <g id="ytick_4">
     <g id="line2d_4">
      <g>
       <use style="stroke:#000000;stroke-width:0.8;" x="95.617188" xlink:href="#m6ef15da280" y="186.768883"/>
      </g>
     </g>
     <g id="text_4">
      <!-- 0.002 -->
      <defs>
       <path d="M 19.1875 8.296875 
L 53.609375 8.296875 
L 53.609375 0 
L 7.328125 0 
L 7.328125 8.296875 
Q 12.9375 14.109375 22.625 23.890625 
Q 32.328125 33.6875 34.8125 36.53125 
Q 39.546875 41.84375 41.421875 45.53125 
Q 43.3125 49.21875 43.3125 52.78125 
Q 43.3125 58.59375 39.234375 62.25 
Q 35.15625 65.921875 28.609375 65.921875 
Q 23.96875 65.921875 18.8125 64.3125 
Q 13.671875 62.703125 7.8125 59.421875 
L 7.8125 69.390625 
Q 13.765625 71.78125 18.9375 73 
Q 24.125 74.21875 28.421875 74.21875 
Q 39.75 74.21875 46.484375 68.546875 
Q 53.21875 62.890625 53.21875 53.421875 
Q 53.21875 48.921875 51.53125 44.890625 
Q 49.859375 40.875 45.40625 35.40625 
Q 44.1875 33.984375 37.640625 27.21875 
Q 31.109375 20.453125 19.1875 8.296875 
z
" id="DejaVuSans-32"/>
      </defs>
      <g transform="translate(25.635312 195.127164)scale(0.22 -0.22)">
       <use xlink:href="#DejaVuSans-30"/>
       <use x="63.623047" xlink:href="#DejaVuSans-2e"/>
       <use x="95.410156" xlink:href="#DejaVuSans-30"/>
       <use x="159.033203" xlink:href="#DejaVuSans-30"/>
       <use x="222.65625" xlink:href="#DejaVuSans-32"/>
      </g>
     </g>
    </g>
    <g id="ytick_5">
     <g id="line2d_5">
      <g>
       <use style="stroke:#000000;stroke-width:0.8;" x="95.617188" xlink:href="#m6ef15da280" y="143.966232"/>
      </g>
     </g>
     <g id="text_5">
      <!-- 0.003 -->
      <defs>
       <path d="M 40.578125 39.3125 
Q 47.65625 37.796875 51.625 33 
Q 55.609375 28.21875 55.609375 21.1875 
Q 55.609375 10.40625 48.1875 4.484375 
Q 40.765625 -1.421875 27.09375 -1.421875 
Q 22.515625 -1.421875 17.65625 -0.515625 
Q 12.796875 0.390625 7.625 2.203125 
L 7.625 11.71875 
Q 11.71875 9.328125 16.59375 8.109375 
Q 21.484375 6.890625 26.8125 6.890625 
Q 36.078125 6.890625 40.9375 10.546875 
Q 45.796875 14.203125 45.796875 21.1875 
Q 45.796875 27.640625 41.28125 31.265625 
Q 36.765625 34.90625 28.71875 34.90625 
L 20.21875 34.90625 
L 20.21875 43.015625 
L 29.109375 43.015625 
Q 36.375 43.015625 40.234375 45.921875 
Q 44.09375 48.828125 44.09375 54.296875 
Q 44.09375 59.90625 40.109375 62.90625 
Q 36.140625 65.921875 28.71875 65.921875 
Q 24.65625 65.921875 20.015625 65.03125 
Q 15.375 64.15625 9.8125 62.3125 
L 9.8125 71.09375 
Q 15.4375 72.65625 20.34375 73.4375 
Q 25.25 74.21875 29.59375 74.21875 
Q 40.828125 74.21875 47.359375 69.109375 
Q 53.90625 64.015625 53.90625 55.328125 
Q 53.90625 49.265625 50.4375 45.09375 
Q 46.96875 40.921875 40.578125 39.3125 
z
" id="DejaVuSans-33"/>
      </defs>
      <g transform="translate(25.635312 152.324514)scale(0.22 -0.22)">
       <use xlink:href="#DejaVuSans-30"/>
       <use x="63.623047" xlink:href="#DejaVuSans-2e"/>
       <use x="95.410156" xlink:href="#DejaVuSans-30"/>
       <use x="159.033203" xlink:href="#DejaVuSans-30"/>
       <use x="222.65625" xlink:href="#DejaVuSans-33"/>
      </g>
     </g>
    </g>
    <g id="ytick_6">
     <g id="line2d_6">
      <g>
       <use style="stroke:#000000;stroke-width:0.8;" x="95.617188" xlink:href="#m6ef15da280" y="101.163582"/>
      </g>
     </g>
     <g id="text_6">
      <!-- 0.004 -->
      <defs>
       <path d="M 37.796875 64.3125 
L 12.890625 25.390625 
L 37.796875 25.390625 
z
M 35.203125 72.90625 
L 47.609375 72.90625 
L 47.609375 25.390625 
L 58.015625 25.390625 
L 58.015625 17.1875 
L 47.609375 17.1875 
L 47.609375 0 
L 37.796875 0 
L 37.796875 17.1875 
L 4.890625 17.1875 
L 4.890625 26.703125 
z
" id="DejaVuSans-34"/>
      </defs>
      <g transform="translate(25.635312 109.521863)scale(0.22 -0.22)">
       <use xlink:href="#DejaVuSans-30"/>
       <use x="63.623047" xlink:href="#DejaVuSans-2e"/>
       <use x="95.410156" xlink:href="#DejaVuSans-30"/>
       <use x="159.033203" xlink:href="#DejaVuSans-30"/>
       <use x="222.65625" xlink:href="#DejaVuSans-34"/>
      </g>
     </g>
    </g>
    <g id="ytick_7">
     <g id="line2d_7">
      <g>
       <use style="stroke:#000000;stroke-width:0.8;" x="95.617188" xlink:href="#m6ef15da280" y="58.360932"/>
      </g>
     </g>
     <g id="text_7">
      <!-- 0.005 -->
      <defs>
       <path d="M 10.796875 72.90625 
L 49.515625 72.90625 
L 49.515625 64.59375 
L 19.828125 64.59375 
L 19.828125 46.734375 
Q 21.96875 47.46875 24.109375 47.828125 
Q 26.265625 48.1875 28.421875 48.1875 
Q 40.625 48.1875 47.75 41.5 
Q 54.890625 34.8125 54.890625 23.390625 
Q 54.890625 11.625 47.5625 5.09375 
Q 40.234375 -1.421875 26.90625 -1.421875 
Q 22.3125 -1.421875 17.546875 -0.640625 
Q 12.796875 0.140625 7.71875 1.703125 
L 7.71875 11.625 
Q 12.109375 9.234375 16.796875 8.0625 
Q 21.484375 6.890625 26.703125 6.890625 
Q 35.15625 6.890625 40.078125 11.328125 
Q 45.015625 15.765625 45.015625 23.390625 
Q 45.015625 31 40.078125 35.4375 
Q 35.15625 39.890625 26.703125 39.890625 
Q 22.75 39.890625 18.8125 39.015625 
Q 14.890625 38.140625 10.796875 36.28125 
z
" id="DejaVuSans-35"/>
      </defs>
      <g transform="translate(25.635312 66.719213)scale(0.22 -0.22)">
       <use xlink:href="#DejaVuSans-30"/>
       <use x="63.623047" xlink:href="#DejaVuSans-2e"/>
       <use x="95.410156" xlink:href="#DejaVuSans-30"/>
       <use x="159.033203" xlink:href="#DejaVuSans-30"/>
       <use x="222.65625" xlink:href="#DejaVuSans-35"/>
      </g>
     </g>
    </g>
    <g id="ytick_8">
     <g id="line2d_8">
      <g>
       <use style="stroke:#000000;stroke-width:0.8;" x="95.617188" xlink:href="#m6ef15da280" y="15.558281"/>
      </g>
     </g>
     <g id="text_8">
      <!-- 0.006 -->
      <defs>
       <path d="M 33.015625 40.375 
Q 26.375 40.375 22.484375 35.828125 
Q 18.609375 31.296875 18.609375 23.390625 
Q 18.609375 15.53125 22.484375 10.953125 
Q 26.375 6.390625 33.015625 6.390625 
Q 39.65625 6.390625 43.53125 10.953125 
Q 47.40625 15.53125 47.40625 23.390625 
Q 47.40625 31.296875 43.53125 35.828125 
Q 39.65625 40.375 33.015625 40.375 
z
M 52.59375 71.296875 
L 52.59375 62.3125 
Q 48.875 64.0625 45.09375 64.984375 
Q 41.3125 65.921875 37.59375 65.921875 
Q 27.828125 65.921875 22.671875 59.328125 
Q 17.53125 52.734375 16.796875 39.40625 
Q 19.671875 43.65625 24.015625 45.921875 
Q 28.375 48.1875 33.59375 48.1875 
Q 44.578125 48.1875 50.953125 41.515625 
Q 57.328125 34.859375 57.328125 23.390625 
Q 57.328125 12.15625 50.6875 5.359375 
Q 44.046875 -1.421875 33.015625 -1.421875 
Q 20.359375 -1.421875 13.671875 8.265625 
Q 6.984375 17.96875 6.984375 36.375 
Q 6.984375 53.65625 15.1875 63.9375 
Q 23.390625 74.21875 37.203125 74.21875 
Q 40.921875 74.21875 44.703125 73.484375 
Q 48.484375 72.75 52.59375 71.296875 
z
" id="DejaVuSans-36"/>
      </defs>
      <g transform="translate(25.635312 23.916562)scale(0.22 -0.22)">
       <use xlink:href="#DejaVuSans-30"/>
       <use x="63.623047" xlink:href="#DejaVuSans-2e"/>
       <use x="95.410156" xlink:href="#DejaVuSans-30"/>
       <use x="159.033203" xlink:href="#DejaVuSans-30"/>
       <use x="222.65625" xlink:href="#DejaVuSans-36"/>
      </g>
     </g>
    </g>
   </g>
   <g id="patch_3">
    <path d="M 95.617188 345.512477 
L 95.617188 12.872477 
" style="fill:none;stroke:#000000;stroke-linecap:square;stroke-linejoin:miter;stroke-width:0.8;"/>
   </g>
   <g id="patch_4">
    <path d="M 430.417188 345.512477 
L 430.417188 12.872477 
" style="fill:none;stroke:#000000;stroke-linecap:square;stroke-linejoin:miter;stroke-width:0.8;"/>
   </g>
   <g id="patch_5">
    <path d="M 95.617188 345.512477 
L 430.417188 345.512477 
" style="fill:none;stroke:#000000;stroke-linecap:square;stroke-linejoin:miter;stroke-width:0.8;"/>
   </g>
   <g id="patch_6">
    <path d="M 95.617188 12.872477 
L 430.417188 12.872477 
" style="fill:none;stroke:#000000;stroke-linecap:square;stroke-linejoin:miter;stroke-width:0.8;"/>
   </g>
  </g>
 </g>
 <defs>
  <clipPath id="pb8dcedaf90">
   <rect height="332.64" width="334.8" x="95.617188" y="12.872477"/>
  </clipPath>
 </defs>
</svg>
