<?xml version="1.0" encoding="utf-8" standalone="no"?>
<!DOCTYPE svg PUBLIC "-//W3C//DTD SVG 1.1//EN"
  "http://www.w3.org/Graphics/SVG/1.1/DTD/svg11.dtd">
<!-- Created with matplotlib (http://matplotlib.org/) -->
<svg height="354pt" version="1.1" viewBox="0 0 436 354" width="436pt" xmlns="http://www.w3.org/2000/svg" xmlns:xlink="http://www.w3.org/1999/xlink">
 <defs>
  <style type="text/css">
*{stroke-linecap:butt;stroke-linejoin:round;}
  </style>
 </defs>
 <g id="figure_1">
  <g id="patch_1">
   <path d="M 0 354.04 
L 436.679375 354.04 
L 436.679375 0 
L 0 0 
z
" style="fill:#ffffff;"/>
  </g>
  <g id="axes_1">
   <g id="patch_2">
    <path d="M 91.179375 343.34 
L 425.979375 343.34 
L 425.979375 10.7 
L 91.179375 10.7 
z
" style="fill:#ffffff;"/>
   </g>
   <g id="PolyCollection_1">
    <defs>
     <path d="M 106.397557 -33.082433 
L 106.397557 -32.615209 
L 109.705857 -32.615209 
L 113.014158 -32.615209 
L 116.322458 -32.615209 
L 119.630758 -32.615209 
L 122.939059 -32.615209 
L 126.247359 -32.615209 
L 129.55566 -32.615209 
L 132.86396 -32.615209 
L 136.17226 -32.615209 
L 139.480561 -32.615209 
L 142.788861 -32.615209 
L 146.097162 -32.615209 
L 149.405462 -32.615209 
L 152.713762 -32.615209 
L 156.022063 -32.615209 
L 159.330363 -32.615209 
L 162.638664 -32.615209 
L 165.946964 -32.615209 
L 169.255264 -32.615209 
L 172.563565 -32.615209 
L 175.871865 -32.615209 
L 179.180166 -32.615209 
L 182.488466 -32.615209 
L 185.796766 -32.615209 
L 189.105067 -32.615209 
L 192.413367 -32.615209 
L 195.721667 -32.615209 
L 199.029968 -32.615209 
L 202.338268 -32.615209 
L 205.646569 -32.615209 
L 208.954869 -32.615209 
L 212.263169 -32.615209 
L 215.57147 -32.615209 
L 218.87977 -32.615209 
L 222.188071 -32.615209 
L 225.496371 -32.615209 
L 228.804671 -32.615209 
L 232.112972 -32.615209 
L 235.421272 -32.615209 
L 238.729573 -32.615209 
L 242.037873 -32.615209 
L 245.346173 -32.615209 
L 248.654474 -32.615209 
L 251.962774 -32.615209 
L 255.271075 -32.615209 
L 258.579375 -32.615209 
L 261.887675 -32.615209 
L 265.195976 -32.615209 
L 268.504276 -32.615209 
L 271.812577 -32.615209 
L 275.120877 -32.615209 
L 278.429177 -32.615209 
L 281.737478 -32.615209 
L 285.045778 -32.615209 
L 288.354079 -32.615209 
L 291.662379 -32.615209 
L 294.970679 -32.615209 
L 298.27898 -32.615209 
L 301.58728 -32.615209 
L 304.895581 -32.615209 
L 308.203881 -32.615209 
L 311.512181 -32.615209 
L 314.820482 -32.615209 
L 318.128782 -32.615209 
L 321.437083 -32.615209 
L 324.745383 -32.615209 
L 328.053683 -32.615209 
L 331.361984 -32.615209 
L 334.670284 -32.615209 
L 337.978584 -32.615209 
L 341.286885 -32.615209 
L 344.595185 -32.615209 
L 347.903486 -32.615209 
L 351.211786 -32.615209 
L 354.520086 -32.615209 
L 357.828387 -32.615209 
L 361.136687 -32.615209 
L 364.444988 -32.615209 
L 367.753288 -32.615209 
L 371.061588 -32.615209 
L 374.369889 -32.615209 
L 377.678189 -32.615209 
L 380.98649 -32.615209 
L 384.29479 -32.615209 
L 387.60309 -32.615209 
L 390.911391 -32.615209 
L 394.219691 -32.615209 
L 397.527992 -32.615209 
L 400.836292 -32.615209 
L 404.144592 -32.615209 
L 407.452893 -32.615209 
L 410.761193 -32.615209 
L 410.761193 -328.22 
L 410.761193 -328.22 
L 407.452893 -222.746414 
L 404.144592 -220.056907 
L 400.836292 -199.40304 
L 397.527992 -180.162692 
L 394.219691 -177.130768 
L 390.911391 -174.124483 
L 387.60309 -164.656104 
L 384.29479 -147.274974 
L 380.98649 -143.934846 
L 377.678189 -138.862012 
L 374.369889 -136.453767 
L 371.061588 -136.376652 
L 367.753288 -130.489803 
L 364.444988 -117.323709 
L 361.136687 -113.125407 
L 357.828387 -108.215869 
L 354.520086 -102.900064 
L 351.211786 -101.086727 
L 347.903486 -99.297913 
L 344.595185 -99.064446 
L 341.286885 -98.201814 
L 337.978584 -97.408278 
L 334.670284 -90.766875 
L 331.361984 -89.697916 
L 328.053683 -87.364323 
L 324.745383 -85.163137 
L 321.437083 -84.928424 
L 318.128782 -83.274636 
L 314.820482 -80.414399 
L 311.512181 -80.015595 
L 308.203881 -79.959874 
L 304.895581 -78.959918 
L 301.58728 -77.131136 
L 298.27898 -77.106005 
L 294.970679 -71.830101 
L 291.662379 -71.606003 
L 288.354079 -70.607487 
L 285.045778 -69.133135 
L 281.737478 -66.750524 
L 278.429177 -66.727015 
L 275.120877 -66.174794 
L 271.812577 -65.262379 
L 268.504276 -63.308131 
L 265.195976 -62.966709 
L 261.887675 -62.155846 
L 258.579375 -61.262106 
L 255.271075 -60.968498 
L 251.962774 -59.772203 
L 248.654474 -59.014991 
L 245.346173 -58.49386 
L 242.037873 -57.855229 
L 238.729573 -55.467055 
L 235.421272 -54.451354 
L 232.112972 -54.146035 
L 228.804671 -54.033799 
L 225.496371 -53.475601 
L 222.188071 -52.648647 
L 218.87977 -52.59717 
L 215.57147 -51.98408 
L 212.263169 -51.517687 
L 208.954869 -51.326688 
L 205.646569 -50.873418 
L 202.338268 -50.000494 
L 199.029968 -49.721249 
L 195.721667 -48.402398 
L 192.413367 -47.885969 
L 189.105067 -46.988128 
L 185.796766 -46.793579 
L 182.488466 -45.305426 
L 179.180166 -44.114627 
L 175.871865 -42.368926 
L 172.563565 -41.591688 
L 169.255264 -41.444196 
L 165.946964 -41.002764 
L 162.638664 -40.616832 
L 159.330363 -40.322104 
L 156.022063 -40.219851 
L 152.713762 -39.87413 
L 149.405462 -39.729863 
L 146.097162 -38.952488 
L 142.788861 -38.040692 
L 139.480561 -37.740129 
L 136.17226 -37.375588 
L 132.86396 -34.908406 
L 129.55566 -34.689625 
L 126.247359 -34.460516 
L 122.939059 -34.414334 
L 119.630758 -33.913432 
L 116.322458 -33.537929 
L 113.014158 -33.311623 
L 109.705857 -33.128096 
L 106.397557 -33.082433 
z
" id="m6e561809a1" style="stroke:#4a98c9;"/>
    </defs>
    <g clip-path="url(#pefe37c0106)">
     <use style="fill:#4a98c9;stroke:#4a98c9;" x="0" xlink:href="#m6e561809a1" y="354.04"/>
    </g>
   </g>
   <g id="PolyCollection_2">
    <defs>
     <path d="M 106.397557 -25.82 
L 106.397557 -32.615209 
L 109.705857 -32.615209 
L 113.014158 -32.615209 
L 116.322458 -32.615209 
L 119.630758 -32.615209 
L 122.939059 -32.615209 
L 126.247359 -32.615209 
L 129.55566 -32.615209 
L 132.86396 -32.615209 
L 136.17226 -32.615209 
L 139.480561 -32.615209 
L 142.788861 -32.615209 
L 146.097162 -32.615209 
L 149.405462 -32.615209 
L 152.713762 -32.615209 
L 156.022063 -32.615209 
L 159.330363 -32.615209 
L 162.638664 -32.615209 
L 165.946964 -32.615209 
L 169.255264 -32.615209 
L 172.563565 -32.615209 
L 175.871865 -32.615209 
L 179.180166 -32.615209 
L 182.488466 -32.615209 
L 185.796766 -32.615209 
L 189.105067 -32.615209 
L 192.413367 -32.615209 
L 195.721667 -32.615209 
L 199.029968 -32.615209 
L 202.338268 -32.615209 
L 205.646569 -32.615209 
L 208.954869 -32.615209 
L 212.263169 -32.615209 
L 215.57147 -32.615209 
L 218.87977 -32.615209 
L 222.188071 -32.615209 
L 225.496371 -32.615209 
L 228.804671 -32.615209 
L 232.112972 -32.615209 
L 235.421272 -32.615209 
L 238.729573 -32.615209 
L 242.037873 -32.615209 
L 245.346173 -32.615209 
L 248.654474 -32.615209 
L 251.962774 -32.615209 
L 255.271075 -32.615209 
L 258.579375 -32.615209 
L 261.887675 -32.615209 
L 265.195976 -32.615209 
L 268.504276 -32.615209 
L 271.812577 -32.615209 
L 275.120877 -32.615209 
L 278.429177 -32.615209 
L 281.737478 -32.615209 
L 285.045778 -32.615209 
L 288.354079 -32.615209 
L 291.662379 -32.615209 
L 294.970679 -32.615209 
L 298.27898 -32.615209 
L 301.58728 -32.615209 
L 304.895581 -32.615209 
L 308.203881 -32.615209 
L 311.512181 -32.615209 
L 314.820482 -32.615209 
L 318.128782 -32.615209 
L 321.437083 -32.615209 
L 324.745383 -32.615209 
L 328.053683 -32.615209 
L 331.361984 -32.615209 
L 334.670284 -32.615209 
L 337.978584 -32.615209 
L 341.286885 -32.615209 
L 344.595185 -32.615209 
L 347.903486 -32.615209 
L 351.211786 -32.615209 
L 354.520086 -32.615209 
L 357.828387 -32.615209 
L 361.136687 -32.615209 
L 364.444988 -32.615209 
L 367.753288 -32.615209 
L 371.061588 -32.615209 
L 374.369889 -32.615209 
L 377.678189 -32.615209 
L 380.98649 -32.615209 
L 384.29479 -32.615209 
L 387.60309 -32.615209 
L 390.911391 -32.615209 
L 394.219691 -32.615209 
L 397.527992 -32.615209 
L 400.836292 -32.615209 
L 404.144592 -32.615209 
L 407.452893 -32.615209 
L 410.761193 -32.615209 
L 410.761193 -85.698648 
L 410.761193 -85.698648 
L 407.452893 -76.373777 
L 404.144592 -74.027567 
L 400.836292 -68.127642 
L 397.527992 -66.763995 
L 394.219691 -63.83459 
L 390.911391 -63.522267 
L 387.60309 -61.838529 
L 384.29479 -57.918928 
L 380.98649 -57.778434 
L 377.678189 -57.443885 
L 374.369889 -55.161723 
L 371.061588 -52.524542 
L 367.753288 -51.997586 
L 364.444988 -51.74366 
L 361.136687 -50.770386 
L 357.828387 -50.26784 
L 354.520086 -49.551965 
L 351.211786 -49.36937 
L 347.903486 -49.084156 
L 344.595185 -48.130666 
L 341.286885 -47.738977 
L 337.978584 -47.427956 
L 334.670284 -46.037107 
L 331.361984 -45.866756 
L 328.053683 -45.842373 
L 324.745383 -45.673035 
L 321.437083 -45.44924 
L 318.128782 -45.430735 
L 314.820482 -45.346099 
L 311.512181 -45.252684 
L 308.203881 -44.699096 
L 304.895581 -44.413514 
L 301.58728 -43.992696 
L 298.27898 -43.364496 
L 294.970679 -42.763265 
L 291.662379 -42.503838 
L 288.354079 -42.387671 
L 285.045778 -42.28122 
L 281.737478 -41.947945 
L 278.429177 -41.867061 
L 275.120877 -41.201419 
L 271.812577 -40.946453 
L 268.504276 -40.854307 
L 265.195976 -40.105406 
L 261.887675 -40.073433 
L 258.579375 -40.066191 
L 255.271075 -39.492164 
L 251.962774 -39.254491 
L 248.654474 -39.117938 
L 245.346173 -38.989174 
L 242.037873 -38.927983 
L 238.729573 -38.428455 
L 235.421272 -38.092898 
L 232.112972 -38.077085 
L 228.804671 -37.425943 
L 225.496371 -37.381103 
L 222.188071 -37.136007 
L 218.87977 -36.964774 
L 215.57147 -36.865045 
L 212.263169 -35.875173 
L 208.954869 -35.689117 
L 205.646569 -35.470708 
L 202.338268 -35.385223 
L 199.029968 -35.334765 
L 195.721667 -35.08751 
L 192.413367 -35.080955 
L 189.105067 -35.02583 
L 185.796766 -34.593336 
L 182.488466 -34.364547 
L 179.180166 -34.363355 
L 175.871865 -34.215942 
L 172.563565 -34.204718 
L 169.255264 -33.708192 
L 165.946964 -33.577342 
L 162.638664 -33.470568 
L 159.330363 -33.27883 
L 156.022063 -33.219901 
L 152.713762 -33.035757 
L 149.405462 -33.002432 
L 146.097162 -32.72272 
L 142.788861 -32.500395 
L 139.480561 -32.470934 
L 136.17226 -32.344826 
L 132.86396 -32.245644 
L 129.55566 -32.120563 
L 126.247359 -31.844222 
L 122.939059 -31.473311 
L 119.630758 -31.470965 
L 116.322458 -31.13179 
L 113.014158 -31.069618 
L 109.705857 -28.936419 
L 106.397557 -25.82 
z
" id="m7866b7bd27" style="stroke:#f14432;stroke-opacity:0.8;"/>
    </defs>
    <g clip-path="url(#pefe37c0106)">
     <use style="fill:#f14432;fill-opacity:0.8;stroke:#f14432;stroke-opacity:0.8;" x="0" xlink:href="#m7866b7bd27" y="354.04"/>
    </g>
   </g>
   <g id="matplotlib.axis_1"/>
   <g id="matplotlib.axis_2">
    <g id="ytick_1">
     <g id="line2d_1">
      <defs>
       <path d="M 0 0 
L -3.5 0 
" id="mca95a8be0e" style="stroke:#000000;stroke-width:0.8;"/>
      </defs>
      <g>
       <use style="stroke:#000000;stroke-width:0.8;" x="91.179375" xlink:href="#mca95a8be0e" y="321.424791"/>
      </g>
     </g>
     <g id="text_1">
      <!-- 0.0000 -->
      <defs>
       <path d="M 31.78125 66.40625 
Q 24.171875 66.40625 20.328125 58.90625 
Q 16.5 51.421875 16.5 36.375 
Q 16.5 21.390625 20.328125 13.890625 
Q 24.171875 6.390625 31.78125 6.390625 
Q 39.453125 6.390625 43.28125 13.890625 
Q 47.125 21.390625 47.125 36.375 
Q 47.125 51.421875 43.28125 58.90625 
Q 39.453125 66.40625 31.78125 66.40625 
z
M 31.78125 74.21875 
Q 44.046875 74.21875 50.515625 64.515625 
Q 56.984375 54.828125 56.984375 36.375 
Q 56.984375 17.96875 50.515625 8.265625 
Q 44.046875 -1.421875 31.78125 -1.421875 
Q 19.53125 -1.421875 13.0625 8.265625 
Q 6.59375 17.96875 6.59375 36.375 
Q 6.59375 54.828125 13.0625 64.515625 
Q 19.53125 74.21875 31.78125 74.21875 
z
" id="DejaVuSans-30"/>
       <path d="M 10.6875 12.40625 
L 21 12.40625 
L 21 0 
L 10.6875 0 
z
" id="DejaVuSans-2e"/>
      </defs>
      <g transform="translate(7.2 329.783072)scale(0.22 -0.22)">
       <use xlink:href="#DejaVuSans-30"/>
       <use x="63.623047" xlink:href="#DejaVuSans-2e"/>
       <use x="95.410156" xlink:href="#DejaVuSans-30"/>
       <use x="159.033203" xlink:href="#DejaVuSans-30"/>
       <use x="222.65625" xlink:href="#DejaVuSans-30"/>
       <use x="286.279297" xlink:href="#DejaVuSans-30"/>
      </g>
     </g>
    </g>
    <g id="ytick_2">
     <g id="line2d_2">
      <g>
       <use style="stroke:#000000;stroke-width:0.8;" x="91.179375" xlink:href="#mca95a8be0e" y="276.233861"/>
      </g>
     </g>
     <g id="text_2">
      <!-- 0.0025 -->
      <defs>
       <path d="M 19.1875 8.296875 
L 53.609375 8.296875 
L 53.609375 0 
L 7.328125 0 
L 7.328125 8.296875 
Q 12.9375 14.109375 22.625 23.890625 
Q 32.328125 33.6875 34.8125 36.53125 
Q 39.546875 41.84375 41.421875 45.53125 
Q 43.3125 49.21875 43.3125 52.78125 
Q 43.3125 58.59375 39.234375 62.25 
Q 35.15625 65.921875 28.609375 65.921875 
Q 23.96875 65.921875 18.8125 64.3125 
Q 13.671875 62.703125 7.8125 59.421875 
L 7.8125 69.390625 
Q 13.765625 71.78125 18.9375 73 
Q 24.125 74.21875 28.421875 74.21875 
Q 39.75 74.21875 46.484375 68.546875 
Q 53.21875 62.890625 53.21875 53.421875 
Q 53.21875 48.921875 51.53125 44.890625 
Q 49.859375 40.875 45.40625 35.40625 
Q 44.1875 33.984375 37.640625 27.21875 
Q 31.109375 20.453125 19.1875 8.296875 
z
" id="DejaVuSans-32"/>
       <path d="M 10.796875 72.90625 
L 49.515625 72.90625 
L 49.515625 64.59375 
L 19.828125 64.59375 
L 19.828125 46.734375 
Q 21.96875 47.46875 24.109375 47.828125 
Q 26.265625 48.1875 28.421875 48.1875 
Q 40.625 48.1875 47.75 41.5 
Q 54.890625 34.8125 54.890625 23.390625 
Q 54.890625 11.625 47.5625 5.09375 
Q 40.234375 -1.421875 26.90625 -1.421875 
Q 22.3125 -1.421875 17.546875 -0.640625 
Q 12.796875 0.140625 7.71875 1.703125 
L 7.71875 11.625 
Q 12.109375 9.234375 16.796875 8.0625 
Q 21.484375 6.890625 26.703125 6.890625 
Q 35.15625 6.890625 40.078125 11.328125 
Q 45.015625 15.765625 45.015625 23.390625 
Q 45.015625 31 40.078125 35.4375 
Q 35.15625 39.890625 26.703125 39.890625 
Q 22.75 39.890625 18.8125 39.015625 
Q 14.890625 38.140625 10.796875 36.28125 
z
" id="DejaVuSans-35"/>
      </defs>
      <g transform="translate(7.2 284.592142)scale(0.22 -0.22)">
       <use xlink:href="#DejaVuSans-30"/>
       <use x="63.623047" xlink:href="#DejaVuSans-2e"/>
       <use x="95.410156" xlink:href="#DejaVuSans-30"/>
       <use x="159.033203" xlink:href="#DejaVuSans-30"/>
       <use x="222.65625" xlink:href="#DejaVuSans-32"/>
       <use x="286.279297" xlink:href="#DejaVuSans-35"/>
      </g>
     </g>
    </g>
    <g id="ytick_3">
     <g id="line2d_3">
      <g>
       <use style="stroke:#000000;stroke-width:0.8;" x="91.179375" xlink:href="#mca95a8be0e" y="231.042931"/>
      </g>
     </g>
     <g id="text_3">
      <!-- 0.0050 -->
      <g transform="translate(7.2 239.401212)scale(0.22 -0.22)">
       <use xlink:href="#DejaVuSans-30"/>
       <use x="63.623047" xlink:href="#DejaVuSans-2e"/>
       <use x="95.410156" xlink:href="#DejaVuSans-30"/>
       <use x="159.033203" xlink:href="#DejaVuSans-30"/>
       <use x="222.65625" xlink:href="#DejaVuSans-35"/>
       <use x="286.279297" xlink:href="#DejaVuSans-30"/>
      </g>
     </g>
    </g>
    <g id="ytick_4">
     <g id="line2d_4">
      <g>
       <use style="stroke:#000000;stroke-width:0.8;" x="91.179375" xlink:href="#mca95a8be0e" y="185.852001"/>
      </g>
     </g>
     <g id="text_4">
      <!-- 0.0075 -->
      <defs>
       <path d="M 8.203125 72.90625 
L 55.078125 72.90625 
L 55.078125 68.703125 
L 28.609375 0 
L 18.3125 0 
L 43.21875 64.59375 
L 8.203125 64.59375 
z
" id="DejaVuSans-37"/>
      </defs>
      <g transform="translate(7.2 194.210282)scale(0.22 -0.22)">
       <use xlink:href="#DejaVuSans-30"/>
       <use x="63.623047" xlink:href="#DejaVuSans-2e"/>
       <use x="95.410156" xlink:href="#DejaVuSans-30"/>
       <use x="159.033203" xlink:href="#DejaVuSans-30"/>
       <use x="222.65625" xlink:href="#DejaVuSans-37"/>
       <use x="286.279297" xlink:href="#DejaVuSans-35"/>
      </g>
     </g>
    </g>
    <g id="ytick_5">
     <g id="line2d_5">
      <g>
       <use style="stroke:#000000;stroke-width:0.8;" x="91.179375" xlink:href="#mca95a8be0e" y="140.661071"/>
      </g>
     </g>
     <g id="text_5">
      <!-- 0.0100 -->
      <defs>
       <path d="M 12.40625 8.296875 
L 28.515625 8.296875 
L 28.515625 63.921875 
L 10.984375 60.40625 
L 10.984375 69.390625 
L 28.421875 72.90625 
L 38.28125 72.90625 
L 38.28125 8.296875 
L 54.390625 8.296875 
L 54.390625 0 
L 12.40625 0 
z
" id="DejaVuSans-31"/>
      </defs>
      <g transform="translate(7.2 149.019353)scale(0.22 -0.22)">
       <use xlink:href="#DejaVuSans-30"/>
       <use x="63.623047" xlink:href="#DejaVuSans-2e"/>
       <use x="95.410156" xlink:href="#DejaVuSans-30"/>
       <use x="159.033203" xlink:href="#DejaVuSans-31"/>
       <use x="222.65625" xlink:href="#DejaVuSans-30"/>
       <use x="286.279297" xlink:href="#DejaVuSans-30"/>
      </g>
     </g>
    </g>
    <g id="ytick_6">
     <g id="line2d_6">
      <g>
       <use style="stroke:#000000;stroke-width:0.8;" x="91.179375" xlink:href="#mca95a8be0e" y="95.470141"/>
      </g>
     </g>
     <g id="text_6">
      <!-- 0.0125 -->
      <g transform="translate(7.2 103.828423)scale(0.22 -0.22)">
       <use xlink:href="#DejaVuSans-30"/>
       <use x="63.623047" xlink:href="#DejaVuSans-2e"/>
       <use x="95.410156" xlink:href="#DejaVuSans-30"/>
       <use x="159.033203" xlink:href="#DejaVuSans-31"/>
       <use x="222.65625" xlink:href="#DejaVuSans-32"/>
       <use x="286.279297" xlink:href="#DejaVuSans-35"/>
      </g>
     </g>
    </g>
    <g id="ytick_7">
     <g id="line2d_7">
      <g>
       <use style="stroke:#000000;stroke-width:0.8;" x="91.179375" xlink:href="#mca95a8be0e" y="50.279212"/>
      </g>
     </g>
     <g id="text_7">
      <!-- 0.0150 -->
      <g transform="translate(7.2 58.637493)scale(0.22 -0.22)">
       <use xlink:href="#DejaVuSans-30"/>
       <use x="63.623047" xlink:href="#DejaVuSans-2e"/>
       <use x="95.410156" xlink:href="#DejaVuSans-30"/>
       <use x="159.033203" xlink:href="#DejaVuSans-31"/>
       <use x="222.65625" xlink:href="#DejaVuSans-35"/>
       <use x="286.279297" xlink:href="#DejaVuSans-30"/>
      </g>
     </g>
    </g>
   </g>
   <g id="patch_3">
    <path d="M 91.179375 343.34 
L 91.179375 10.7 
" style="fill:none;stroke:#000000;stroke-linecap:square;stroke-linejoin:miter;stroke-width:0.8;"/>
   </g>
   <g id="patch_4">
    <path d="M 425.979375 343.34 
L 425.979375 10.7 
" style="fill:none;stroke:#000000;stroke-linecap:square;stroke-linejoin:miter;stroke-width:0.8;"/>
   </g>
   <g id="patch_5">
    <path d="M 91.179375 343.34 
L 425.979375 343.34 
" style="fill:none;stroke:#000000;stroke-linecap:square;stroke-linejoin:miter;stroke-width:0.8;"/>
   </g>
   <g id="patch_6">
    <path d="M 91.179375 10.7 
L 425.979375 10.7 
" style="fill:none;stroke:#000000;stroke-linecap:square;stroke-linejoin:miter;stroke-width:0.8;"/>
   </g>
  </g>
 </g>
 <defs>
  <clipPath id="pefe37c0106">
   <rect height="332.64" width="334.8" x="91.179375" y="10.7"/>
  </clipPath>
 </defs>
</svg>
