<?xml version="1.0" encoding="utf-8" standalone="no"?>
<!DOCTYPE svg PUBLIC "-//W3C//DTD SVG 1.1//EN"
  "http://www.w3.org/Graphics/SVG/1.1/DTD/svg11.dtd">
<!-- Created with matplotlib (http://matplotlib.org/) -->
<svg height="354pt" version="1.1" viewBox="0 0 441 354" width="441pt" xmlns="http://www.w3.org/2000/svg" xmlns:xlink="http://www.w3.org/1999/xlink">
 <defs>
  <style type="text/css">
*{stroke-linecap:butt;stroke-linejoin:round;}
  </style>
 </defs>
 <g id="figure_1">
  <g id="patch_1">
   <path d="M 0 354.04 
L 441.117188 354.04 
L 441.117188 0 
L 0 0 
z
" style="fill:#ffffff;"/>
  </g>
  <g id="axes_1">
   <g id="patch_2">
    <path d="M 95.617188 343.34 
L 430.417188 343.34 
L 430.417188 10.7 
L 95.617188 10.7 
z
" style="fill:#ffffff;"/>
   </g>
   <g id="PolyCollection_1">
    <defs>
     <path d="M 110.835369 -112.483683 
L 110.835369 -137.899692 
L 114.14367 -137.899692 
L 117.45197 -137.899692 
L 120.760271 -137.899692 
L 124.068571 -137.899692 
L 127.376871 -137.899692 
L 130.685172 -137.899692 
L 133.993472 -137.899692 
L 137.301772 -137.899692 
L 140.610073 -137.899692 
L 143.918373 -137.899692 
L 147.226674 -137.899692 
L 150.534974 -137.899692 
L 153.843274 -137.899692 
L 157.151575 -137.899692 
L 160.459875 -137.899692 
L 163.768176 -137.899692 
L 167.076476 -137.899692 
L 170.384776 -137.899692 
L 173.693077 -137.899692 
L 177.001377 -137.899692 
L 180.309678 -137.899692 
L 183.617978 -137.899692 
L 186.926278 -137.899692 
L 190.234579 -137.899692 
L 193.542879 -137.899692 
L 196.85118 -137.899692 
L 200.15948 -137.899692 
L 203.46778 -137.899692 
L 206.776081 -137.899692 
L 210.084381 -137.899692 
L 213.392682 -137.899692 
L 216.700982 -137.899692 
L 220.009282 -137.899692 
L 223.317583 -137.899692 
L 226.625883 -137.899692 
L 229.934184 -137.899692 
L 233.242484 -137.899692 
L 236.550784 -137.899692 
L 239.859085 -137.899692 
L 243.167385 -137.899692 
L 246.475686 -137.899692 
L 249.783986 -137.899692 
L 253.092286 -137.899692 
L 256.400587 -137.899692 
L 259.708887 -137.899692 
L 263.017188 -137.899692 
L 266.325488 -137.899692 
L 269.633788 -137.899692 
L 272.942089 -137.899692 
L 276.250389 -137.899692 
L 279.558689 -137.899692 
L 282.86699 -137.899692 
L 286.17529 -137.899692 
L 289.483591 -137.899692 
L 292.791891 -137.899692 
L 296.100191 -137.899692 
L 299.408492 -137.899692 
L 302.716792 -137.899692 
L 306.025093 -137.899692 
L 309.333393 -137.899692 
L 312.641693 -137.899692 
L 315.949994 -137.899692 
L 319.258294 -137.899692 
L 322.566595 -137.899692 
L 325.874895 -137.899692 
L 329.183195 -137.899692 
L 332.491496 -137.899692 
L 335.799796 -137.899692 
L 339.108097 -137.899692 
L 342.416397 -137.899692 
L 345.724697 -137.899692 
L 349.032998 -137.899692 
L 352.341298 -137.899692 
L 355.649599 -137.899692 
L 358.957899 -137.899692 
L 362.266199 -137.899692 
L 365.5745 -137.899692 
L 368.8828 -137.899692 
L 372.191101 -137.899692 
L 375.499401 -137.899692 
L 378.807701 -137.899692 
L 382.116002 -137.899692 
L 385.424302 -137.899692 
L 388.732603 -137.899692 
L 392.040903 -137.899692 
L 395.349203 -137.899692 
L 398.657504 -137.899692 
L 401.965804 -137.899692 
L 405.274104 -137.899692 
L 408.582405 -137.899692 
L 411.890705 -137.899692 
L 415.199006 -137.899692 
L 415.199006 -247.293068 
L 415.199006 -247.293068 
L 411.890705 -216.39269 
L 408.582405 -204.56911 
L 405.274104 -203.884397 
L 401.965804 -196.533273 
L 398.657504 -192.038573 
L 395.349203 -189.91003 
L 392.040903 -174.674628 
L 388.732603 -174.222438 
L 385.424302 -169.457426 
L 382.116002 -167.60812 
L 378.807701 -165.370336 
L 375.499401 -162.536977 
L 372.191101 -157.982434 
L 368.8828 -153.337619 
L 365.5745 -152.859528 
L 362.266199 -152.463137 
L 358.957899 -152.444642 
L 355.649599 -152.362748 
L 352.341298 -152.24659 
L 349.032998 -152.026294 
L 345.724697 -151.800266 
L 342.416397 -151.124181 
L 339.108097 -150.367665 
L 335.799796 -149.578388 
L 332.491496 -149.389341 
L 329.183195 -149.250847 
L 325.874895 -148.911146 
L 322.566595 -147.561109 
L 319.258294 -147.475741 
L 315.949994 -147.33528 
L 312.641693 -146.393759 
L 309.333393 -146.006481 
L 306.025093 -145.863035 
L 302.716792 -145.500141 
L 299.408492 -145.476189 
L 296.100191 -145.082801 
L 292.791891 -144.968385 
L 289.483591 -144.511353 
L 286.17529 -144.503161 
L 282.86699 -143.745783 
L 279.558689 -143.504128 
L 276.250389 -143.249189 
L 272.942089 -143.206755 
L 269.633788 -143.177096 
L 266.325488 -142.123105 
L 263.017188 -141.808363 
L 259.708887 -141.456285 
L 256.400587 -141.337641 
L 253.092286 -141.138058 
L 249.783986 -141.130824 
L 246.475686 -140.995456 
L 243.167385 -140.910633 
L 239.859085 -140.732608 
L 236.550784 -140.483194 
L 233.242484 -140.404326 
L 229.934184 -140.249967 
L 226.625883 -140.222092 
L 223.317583 -139.879211 
L 220.009282 -139.728228 
L 216.700982 -139.659982 
L 213.392682 -139.637208 
L 210.084381 -139.108691 
L 206.776081 -139.036096 
L 203.46778 -138.921438 
L 200.15948 -138.896331 
L 196.85118 -138.632914 
L 193.542879 -138.625682 
L 190.234579 -138.609121 
L 186.926278 -138.594067 
L 183.617978 -138.517015 
L 180.309678 -138.449502 
L 177.001377 -138.423161 
L 173.693077 -138.390141 
L 170.384776 -138.038528 
L 167.076476 -138.013987 
L 163.768176 -137.852498 
L 160.459875 -137.655125 
L 157.151575 -137.54822 
L 153.843274 -137.358843 
L 150.534974 -136.918745 
L 147.226674 -136.895255 
L 143.918373 -136.846518 
L 140.610073 -136.468529 
L 137.301772 -136.011242 
L 133.993472 -135.682209 
L 130.685172 -134.894374 
L 127.376871 -132.330974 
L 124.068571 -131.456729 
L 120.760271 -129.447379 
L 117.45197 -127.726975 
L 114.14367 -114.029603 
L 110.835369 -112.483683 
z
" id="m060d4f09a5" style="stroke:#4a98c9;"/>
    </defs>
    <g clip-path="url(#p3987c9a26a)">
     <use style="fill:#4a98c9;stroke:#4a98c9;" x="0" xlink:href="#m060d4f09a5" y="354.04"/>
    </g>
   </g>
   <g id="PolyCollection_2">
    <defs>
     <path d="M 110.835369 -25.82 
L 110.835369 -137.899692 
L 114.14367 -137.899692 
L 117.45197 -137.899692 
L 120.760271 -137.899692 
L 124.068571 -137.899692 
L 127.376871 -137.899692 
L 130.685172 -137.899692 
L 133.993472 -137.899692 
L 137.301772 -137.899692 
L 140.610073 -137.899692 
L 143.918373 -137.899692 
L 147.226674 -137.899692 
L 150.534974 -137.899692 
L 153.843274 -137.899692 
L 157.151575 -137.899692 
L 160.459875 -137.899692 
L 163.768176 -137.899692 
L 167.076476 -137.899692 
L 170.384776 -137.899692 
L 173.693077 -137.899692 
L 177.001377 -137.899692 
L 180.309678 -137.899692 
L 183.617978 -137.899692 
L 186.926278 -137.899692 
L 190.234579 -137.899692 
L 193.542879 -137.899692 
L 196.85118 -137.899692 
L 200.15948 -137.899692 
L 203.46778 -137.899692 
L 206.776081 -137.899692 
L 210.084381 -137.899692 
L 213.392682 -137.899692 
L 216.700982 -137.899692 
L 220.009282 -137.899692 
L 223.317583 -137.899692 
L 226.625883 -137.899692 
L 229.934184 -137.899692 
L 233.242484 -137.899692 
L 236.550784 -137.899692 
L 239.859085 -137.899692 
L 243.167385 -137.899692 
L 246.475686 -137.899692 
L 249.783986 -137.899692 
L 253.092286 -137.899692 
L 256.400587 -137.899692 
L 259.708887 -137.899692 
L 263.017188 -137.899692 
L 266.325488 -137.899692 
L 269.633788 -137.899692 
L 272.942089 -137.899692 
L 276.250389 -137.899692 
L 279.558689 -137.899692 
L 282.86699 -137.899692 
L 286.17529 -137.899692 
L 289.483591 -137.899692 
L 292.791891 -137.899692 
L 296.100191 -137.899692 
L 299.408492 -137.899692 
L 302.716792 -137.899692 
L 306.025093 -137.899692 
L 309.333393 -137.899692 
L 312.641693 -137.899692 
L 315.949994 -137.899692 
L 319.258294 -137.899692 
L 322.566595 -137.899692 
L 325.874895 -137.899692 
L 329.183195 -137.899692 
L 332.491496 -137.899692 
L 335.799796 -137.899692 
L 339.108097 -137.899692 
L 342.416397 -137.899692 
L 345.724697 -137.899692 
L 349.032998 -137.899692 
L 352.341298 -137.899692 
L 355.649599 -137.899692 
L 358.957899 -137.899692 
L 362.266199 -137.899692 
L 365.5745 -137.899692 
L 368.8828 -137.899692 
L 372.191101 -137.899692 
L 375.499401 -137.899692 
L 378.807701 -137.899692 
L 382.116002 -137.899692 
L 385.424302 -137.899692 
L 388.732603 -137.899692 
L 392.040903 -137.899692 
L 395.349203 -137.899692 
L 398.657504 -137.899692 
L 401.965804 -137.899692 
L 405.274104 -137.899692 
L 408.582405 -137.899692 
L 411.890705 -137.899692 
L 415.199006 -137.899692 
L 415.199006 -328.22 
L 415.199006 -328.22 
L 411.890705 -270.849445 
L 408.582405 -260.355185 
L 405.274104 -247.256655 
L 401.965804 -239.635798 
L 398.657504 -221.390304 
L 395.349203 -199.532659 
L 392.040903 -191.800786 
L 388.732603 -186.515554 
L 385.424302 -183.24166 
L 382.116002 -181.559695 
L 378.807701 -169.854466 
L 375.499401 -169.734548 
L 372.191101 -168.409481 
L 368.8828 -164.057923 
L 365.5745 -164.013879 
L 362.266199 -153.883212 
L 358.957899 -152.801819 
L 355.649599 -150.684995 
L 352.341298 -150.341477 
L 349.032998 -150.017492 
L 345.724697 -148.810582 
L 342.416397 -148.570904 
L 339.108097 -147.755252 
L 335.799796 -147.749264 
L 332.491496 -147.558333 
L 329.183195 -146.58823 
L 325.874895 -146.474598 
L 322.566595 -146.351024 
L 319.258294 -146.14047 
L 315.949994 -145.868125 
L 312.641693 -145.46035 
L 309.333393 -144.842209 
L 306.025093 -144.833821 
L 302.716792 -144.257217 
L 299.408492 -144.179144 
L 296.100191 -143.23057 
L 292.791891 -142.843945 
L 289.483591 -142.751667 
L 286.17529 -142.712587 
L 282.86699 -142.36457 
L 279.558689 -142.08445 
L 276.250389 -142.020032 
L 272.942089 -142.015755 
L 269.633788 -141.923905 
L 266.325488 -141.810782 
L 263.017188 -141.512409 
L 259.708887 -141.354304 
L 256.400587 -141.320126 
L 253.092286 -141.274483 
L 249.783986 -141.136692 
L 246.475686 -140.947277 
L 243.167385 -140.872503 
L 239.859085 -140.849649 
L 236.550784 -140.831991 
L 233.242484 -140.734557 
L 229.934184 -140.721985 
L 226.625883 -140.11025 
L 223.317583 -140.033882 
L 220.009282 -139.600807 
L 216.700982 -139.505349 
L 213.392682 -139.463745 
L 210.084381 -139.448409 
L 206.776081 -139.315254 
L 203.46778 -139.091654 
L 200.15948 -138.801897 
L 196.85118 -138.77293 
L 193.542879 -138.729702 
L 190.234579 -138.658191 
L 186.926278 -138.61693 
L 183.617978 -137.849274 
L 180.309678 -136.46192 
L 177.001377 -136.336889 
L 173.693077 -136.158195 
L 170.384776 -135.646249 
L 167.076476 -135.538548 
L 163.768176 -135.517324 
L 160.459875 -135.480835 
L 157.151575 -134.81167 
L 153.843274 -134.031708 
L 150.534974 -133.963965 
L 147.226674 -133.794215 
L 143.918373 -133.018454 
L 140.610073 -132.946146 
L 137.301772 -132.886123 
L 133.993472 -131.2414 
L 130.685172 -130.772845 
L 127.376871 -130.54998 
L 124.068571 -130.048468 
L 120.760271 -128.304428 
L 117.45197 -118.587327 
L 114.14367 -83.863991 
L 110.835369 -25.82 
z
" id="md5d9a448c6" style="stroke:#f14432;stroke-opacity:0.8;"/>
    </defs>
    <g clip-path="url(#p3987c9a26a)">
     <use style="fill:#f14432;fill-opacity:0.8;stroke:#f14432;stroke-opacity:0.8;" x="0" xlink:href="#md5d9a448c6" y="354.04"/>
    </g>
   </g>
   <g id="matplotlib.axis_1"/>
   <g id="matplotlib.axis_2">
    <g id="ytick_1">
     <g id="line2d_1">
      <defs>
       <path d="M 0 0 
L -3.5 0 
" id="m80dae20211" style="stroke:#000000;stroke-width:0.8;"/>
      </defs>
      <g>
       <use style="stroke:#000000;stroke-width:0.8;" x="95.617188" xlink:href="#m80dae20211" y="305.491904"/>
      </g>
     </g>
     <g id="text_1">
      <!-- −0.010 -->
      <defs>
       <path d="M 10.59375 35.5 
L 73.1875 35.5 
L 73.1875 27.203125 
L 10.59375 27.203125 
z
" id="DejaVuSans-2212"/>
       <path d="M 31.78125 66.40625 
Q 24.171875 66.40625 20.328125 58.90625 
Q 16.5 51.421875 16.5 36.375 
Q 16.5 21.390625 20.328125 13.890625 
Q 24.171875 6.390625 31.78125 6.390625 
Q 39.453125 6.390625 43.28125 13.890625 
Q 47.125 21.390625 47.125 36.375 
Q 47.125 51.421875 43.28125 58.90625 
Q 39.453125 66.40625 31.78125 66.40625 
z
M 31.78125 74.21875 
Q 44.046875 74.21875 50.515625 64.515625 
Q 56.984375 54.828125 56.984375 36.375 
Q 56.984375 17.96875 50.515625 8.265625 
Q 44.046875 -1.421875 31.78125 -1.421875 
Q 19.53125 -1.421875 13.0625 8.265625 
Q 6.59375 17.96875 6.59375 36.375 
Q 6.59375 54.828125 13.0625 64.515625 
Q 19.53125 74.21875 31.78125 74.21875 
z
" id="DejaVuSans-30"/>
       <path d="M 10.6875 12.40625 
L 21 12.40625 
L 21 0 
L 10.6875 0 
z
" id="DejaVuSans-2e"/>
       <path d="M 12.40625 8.296875 
L 28.515625 8.296875 
L 28.515625 63.921875 
L 10.984375 60.40625 
L 10.984375 69.390625 
L 28.421875 72.90625 
L 38.28125 72.90625 
L 38.28125 8.296875 
L 54.390625 8.296875 
L 54.390625 0 
L 12.40625 0 
z
" id="DejaVuSans-31"/>
      </defs>
      <g transform="translate(7.2 313.850186)scale(0.22 -0.22)">
       <use xlink:href="#DejaVuSans-2212"/>
       <use x="83.789062" xlink:href="#DejaVuSans-30"/>
       <use x="147.412109" xlink:href="#DejaVuSans-2e"/>
       <use x="179.199219" xlink:href="#DejaVuSans-30"/>
       <use x="242.822266" xlink:href="#DejaVuSans-31"/>
       <use x="306.445312" xlink:href="#DejaVuSans-30"/>
      </g>
     </g>
    </g>
    <g id="ytick_2">
     <g id="line2d_2">
      <g>
       <use style="stroke:#000000;stroke-width:0.8;" x="95.617188" xlink:href="#m80dae20211" y="260.816106"/>
      </g>
     </g>
     <g id="text_2">
      <!-- −0.005 -->
      <defs>
       <path d="M 10.796875 72.90625 
L 49.515625 72.90625 
L 49.515625 64.59375 
L 19.828125 64.59375 
L 19.828125 46.734375 
Q 21.96875 47.46875 24.109375 47.828125 
Q 26.265625 48.1875 28.421875 48.1875 
Q 40.625 48.1875 47.75 41.5 
Q 54.890625 34.8125 54.890625 23.390625 
Q 54.890625 11.625 47.5625 5.09375 
Q 40.234375 -1.421875 26.90625 -1.421875 
Q 22.3125 -1.421875 17.546875 -0.640625 
Q 12.796875 0.140625 7.71875 1.703125 
L 7.71875 11.625 
Q 12.109375 9.234375 16.796875 8.0625 
Q 21.484375 6.890625 26.703125 6.890625 
Q 35.15625 6.890625 40.078125 11.328125 
Q 45.015625 15.765625 45.015625 23.390625 
Q 45.015625 31 40.078125 35.4375 
Q 35.15625 39.890625 26.703125 39.890625 
Q 22.75 39.890625 18.8125 39.015625 
Q 14.890625 38.140625 10.796875 36.28125 
z
" id="DejaVuSans-35"/>
      </defs>
      <g transform="translate(7.2 269.174388)scale(0.22 -0.22)">
       <use xlink:href="#DejaVuSans-2212"/>
       <use x="83.789062" xlink:href="#DejaVuSans-30"/>
       <use x="147.412109" xlink:href="#DejaVuSans-2e"/>
       <use x="179.199219" xlink:href="#DejaVuSans-30"/>
       <use x="242.822266" xlink:href="#DejaVuSans-30"/>
       <use x="306.445312" xlink:href="#DejaVuSans-35"/>
      </g>
     </g>
    </g>
    <g id="ytick_3">
     <g id="line2d_3">
      <g>
       <use style="stroke:#000000;stroke-width:0.8;" x="95.617188" xlink:href="#m80dae20211" y="216.140308"/>
      </g>
     </g>
     <g id="text_3">
      <!-- 0.000 -->
      <g transform="translate(25.635312 224.49859)scale(0.22 -0.22)">
       <use xlink:href="#DejaVuSans-30"/>
       <use x="63.623047" xlink:href="#DejaVuSans-2e"/>
       <use x="95.410156" xlink:href="#DejaVuSans-30"/>
       <use x="159.033203" xlink:href="#DejaVuSans-30"/>
       <use x="222.65625" xlink:href="#DejaVuSans-30"/>
      </g>
     </g>
    </g>
    <g id="ytick_4">
     <g id="line2d_4">
      <g>
       <use style="stroke:#000000;stroke-width:0.8;" x="95.617188" xlink:href="#m80dae20211" y="171.46451"/>
      </g>
     </g>
     <g id="text_4">
      <!-- 0.005 -->
      <g transform="translate(25.635312 179.822792)scale(0.22 -0.22)">
       <use xlink:href="#DejaVuSans-30"/>
       <use x="63.623047" xlink:href="#DejaVuSans-2e"/>
       <use x="95.410156" xlink:href="#DejaVuSans-30"/>
       <use x="159.033203" xlink:href="#DejaVuSans-30"/>
       <use x="222.65625" xlink:href="#DejaVuSans-35"/>
      </g>
     </g>
    </g>
    <g id="ytick_5">
     <g id="line2d_5">
      <g>
       <use style="stroke:#000000;stroke-width:0.8;" x="95.617188" xlink:href="#m80dae20211" y="126.788713"/>
      </g>
     </g>
     <g id="text_5">
      <!-- 0.010 -->
      <g transform="translate(25.635312 135.146994)scale(0.22 -0.22)">
       <use xlink:href="#DejaVuSans-30"/>
       <use x="63.623047" xlink:href="#DejaVuSans-2e"/>
       <use x="95.410156" xlink:href="#DejaVuSans-30"/>
       <use x="159.033203" xlink:href="#DejaVuSans-31"/>
       <use x="222.65625" xlink:href="#DejaVuSans-30"/>
      </g>
     </g>
    </g>
    <g id="ytick_6">
     <g id="line2d_6">
      <g>
       <use style="stroke:#000000;stroke-width:0.8;" x="95.617188" xlink:href="#m80dae20211" y="82.112915"/>
      </g>
     </g>
     <g id="text_6">
      <!-- 0.015 -->
      <g transform="translate(25.635312 90.471196)scale(0.22 -0.22)">
       <use xlink:href="#DejaVuSans-30"/>
       <use x="63.623047" xlink:href="#DejaVuSans-2e"/>
       <use x="95.410156" xlink:href="#DejaVuSans-30"/>
       <use x="159.033203" xlink:href="#DejaVuSans-31"/>
       <use x="222.65625" xlink:href="#DejaVuSans-35"/>
      </g>
     </g>
    </g>
    <g id="ytick_7">
     <g id="line2d_7">
      <g>
       <use style="stroke:#000000;stroke-width:0.8;" x="95.617188" xlink:href="#m80dae20211" y="37.437117"/>
      </g>
     </g>
     <g id="text_7">
      <!-- 0.020 -->
      <defs>
       <path d="M 19.1875 8.296875 
L 53.609375 8.296875 
L 53.609375 0 
L 7.328125 0 
L 7.328125 8.296875 
Q 12.9375 14.109375 22.625 23.890625 
Q 32.328125 33.6875 34.8125 36.53125 
Q 39.546875 41.84375 41.421875 45.53125 
Q 43.3125 49.21875 43.3125 52.78125 
Q 43.3125 58.59375 39.234375 62.25 
Q 35.15625 65.921875 28.609375 65.921875 
Q 23.96875 65.921875 18.8125 64.3125 
Q 13.671875 62.703125 7.8125 59.421875 
L 7.8125 69.390625 
Q 13.765625 71.78125 18.9375 73 
Q 24.125 74.21875 28.421875 74.21875 
Q 39.75 74.21875 46.484375 68.546875 
Q 53.21875 62.890625 53.21875 53.421875 
Q 53.21875 48.921875 51.53125 44.890625 
Q 49.859375 40.875 45.40625 35.40625 
Q 44.1875 33.984375 37.640625 27.21875 
Q 31.109375 20.453125 19.1875 8.296875 
z
" id="DejaVuSans-32"/>
      </defs>
      <g transform="translate(25.635312 45.795398)scale(0.22 -0.22)">
       <use xlink:href="#DejaVuSans-30"/>
       <use x="63.623047" xlink:href="#DejaVuSans-2e"/>
       <use x="95.410156" xlink:href="#DejaVuSans-30"/>
       <use x="159.033203" xlink:href="#DejaVuSans-32"/>
       <use x="222.65625" xlink:href="#DejaVuSans-30"/>
      </g>
     </g>
    </g>
   </g>
   <g id="patch_3">
    <path d="M 95.617188 343.34 
L 95.617188 10.7 
" style="fill:none;stroke:#000000;stroke-linecap:square;stroke-linejoin:miter;stroke-width:0.8;"/>
   </g>
   <g id="patch_4">
    <path d="M 430.417188 343.34 
L 430.417188 10.7 
" style="fill:none;stroke:#000000;stroke-linecap:square;stroke-linejoin:miter;stroke-width:0.8;"/>
   </g>
   <g id="patch_5">
    <path d="M 95.617188 343.34 
L 430.417188 343.34 
" style="fill:none;stroke:#000000;stroke-linecap:square;stroke-linejoin:miter;stroke-width:0.8;"/>
   </g>
   <g id="patch_6">
    <path d="M 95.617188 10.7 
L 430.417188 10.7 
" style="fill:none;stroke:#000000;stroke-linecap:square;stroke-linejoin:miter;stroke-width:0.8;"/>
   </g>
  </g>
 </g>
 <defs>
  <clipPath id="p3987c9a26a">
   <rect height="332.64" width="334.8" x="95.617188" y="10.7"/>
  </clipPath>
 </defs>
</svg>
