<?xml version="1.0" encoding="utf-8" standalone="no"?>
<!DOCTYPE svg PUBLIC "-//W3C//DTD SVG 1.1//EN"
  "http://www.w3.org/Graphics/SVG/1.1/DTD/svg11.dtd">
<!-- Created with matplotlib (http://matplotlib.org/) -->
<svg height="354pt" version="1.1" viewBox="0 0 441 354" width="441pt" xmlns="http://www.w3.org/2000/svg" xmlns:xlink="http://www.w3.org/1999/xlink">
 <defs>
  <style type="text/css">
*{stroke-linecap:butt;stroke-linejoin:round;}
  </style>
 </defs>
 <g id="figure_1">
  <g id="patch_1">
   <path d="M 0 354.04 
L 441.117188 354.04 
L 441.117188 0 
L 0 0 
z
" style="fill:#ffffff;"/>
  </g>
  <g id="axes_1">
   <g id="patch_2">
    <path d="M 95.617188 343.34 
L 430.417188 343.34 
L 430.417188 10.7 
L 95.617188 10.7 
z
" style="fill:#ffffff;"/>
   </g>
   <g id="PolyCollection_1">
    <defs>
     <path d="M 110.835369 -41.669929 
L 110.835369 -144.282596 
L 114.14367 -144.282596 
L 117.45197 -144.282596 
L 120.760271 -144.282596 
L 124.068571 -144.282596 
L 127.376871 -144.282596 
L 130.685172 -144.282596 
L 133.993472 -144.282596 
L 137.301772 -144.282596 
L 140.610073 -144.282596 
L 143.918373 -144.282596 
L 147.226674 -144.282596 
L 150.534974 -144.282596 
L 153.843274 -144.282596 
L 157.151575 -144.282596 
L 160.459875 -144.282596 
L 163.768176 -144.282596 
L 167.076476 -144.282596 
L 170.384776 -144.282596 
L 173.693077 -144.282596 
L 177.001377 -144.282596 
L 180.309678 -144.282596 
L 183.617978 -144.282596 
L 186.926278 -144.282596 
L 190.234579 -144.282596 
L 193.542879 -144.282596 
L 196.85118 -144.282596 
L 200.15948 -144.282596 
L 203.46778 -144.282596 
L 206.776081 -144.282596 
L 210.084381 -144.282596 
L 213.392682 -144.282596 
L 216.700982 -144.282596 
L 220.009282 -144.282596 
L 223.317583 -144.282596 
L 226.625883 -144.282596 
L 229.934184 -144.282596 
L 233.242484 -144.282596 
L 236.550784 -144.282596 
L 239.859085 -144.282596 
L 243.167385 -144.282596 
L 246.475686 -144.282596 
L 249.783986 -144.282596 
L 253.092286 -144.282596 
L 256.400587 -144.282596 
L 259.708887 -144.282596 
L 263.017188 -144.282596 
L 266.325488 -144.282596 
L 269.633788 -144.282596 
L 272.942089 -144.282596 
L 276.250389 -144.282596 
L 279.558689 -144.282596 
L 282.86699 -144.282596 
L 286.17529 -144.282596 
L 289.483591 -144.282596 
L 292.791891 -144.282596 
L 296.100191 -144.282596 
L 299.408492 -144.282596 
L 302.716792 -144.282596 
L 306.025093 -144.282596 
L 309.333393 -144.282596 
L 312.641693 -144.282596 
L 315.949994 -144.282596 
L 319.258294 -144.282596 
L 322.566595 -144.282596 
L 325.874895 -144.282596 
L 329.183195 -144.282596 
L 332.491496 -144.282596 
L 335.799796 -144.282596 
L 339.108097 -144.282596 
L 342.416397 -144.282596 
L 345.724697 -144.282596 
L 349.032998 -144.282596 
L 352.341298 -144.282596 
L 355.649599 -144.282596 
L 358.957899 -144.282596 
L 362.266199 -144.282596 
L 365.5745 -144.282596 
L 368.8828 -144.282596 
L 372.191101 -144.282596 
L 375.499401 -144.282596 
L 378.807701 -144.282596 
L 382.116002 -144.282596 
L 385.424302 -144.282596 
L 388.732603 -144.282596 
L 392.040903 -144.282596 
L 395.349203 -144.282596 
L 398.657504 -144.282596 
L 401.965804 -144.282596 
L 405.274104 -144.282596 
L 408.582405 -144.282596 
L 411.890705 -144.282596 
L 415.199006 -144.282596 
L 415.199006 -252.122212 
L 415.199006 -252.122212 
L 411.890705 -248.651348 
L 408.582405 -244.92762 
L 405.274104 -235.782106 
L 401.965804 -211.694236 
L 398.657504 -210.929569 
L 395.349203 -208.978635 
L 392.040903 -208.766771 
L 388.732603 -201.850427 
L 385.424302 -200.441847 
L 382.116002 -198.686828 
L 378.807701 -196.453112 
L 375.499401 -193.450969 
L 372.191101 -193.326173 
L 368.8828 -190.192619 
L 365.5745 -185.630794 
L 362.266199 -183.550395 
L 358.957899 -178.742782 
L 355.649599 -177.306531 
L 352.341298 -176.979137 
L 349.032998 -173.185453 
L 345.724697 -171.129311 
L 342.416397 -170.133637 
L 339.108097 -169.736581 
L 335.799796 -167.575092 
L 332.491496 -166.463454 
L 329.183195 -165.460867 
L 325.874895 -163.122291 
L 322.566595 -162.844448 
L 319.258294 -162.005331 
L 315.949994 -161.604473 
L 312.641693 -161.581157 
L 309.333393 -161.230651 
L 306.025093 -160.024809 
L 302.716792 -159.757911 
L 299.408492 -159.620787 
L 296.100191 -159.492555 
L 292.791891 -156.276409 
L 289.483591 -155.763006 
L 286.17529 -155.361182 
L 282.86699 -152.09339 
L 279.558689 -151.930869 
L 276.250389 -151.688154 
L 272.942089 -151.64423 
L 269.633788 -151.08809 
L 266.325488 -150.231197 
L 263.017188 -149.520136 
L 259.708887 -147.700826 
L 256.400587 -147.556955 
L 253.092286 -146.961667 
L 249.783986 -146.72178 
L 246.475686 -144.602379 
L 243.167385 -144.456113 
L 239.859085 -143.962802 
L 236.550784 -142.902787 
L 233.242484 -142.675641 
L 229.934184 -142.604151 
L 226.625883 -142.064942 
L 223.317583 -138.474653 
L 220.009282 -137.364416 
L 216.700982 -137.050371 
L 213.392682 -136.694155 
L 210.084381 -135.929568 
L 206.776081 -135.462233 
L 203.46778 -135.234885 
L 200.15948 -133.664255 
L 196.85118 -133.337385 
L 193.542879 -132.981401 
L 190.234579 -132.276276 
L 186.926278 -131.860458 
L 183.617978 -130.949794 
L 180.309678 -130.767302 
L 177.001377 -129.685786 
L 173.693077 -128.643188 
L 170.384776 -128.040202 
L 167.076476 -125.580275 
L 163.768176 -125.197036 
L 160.459875 -124.881651 
L 157.151575 -119.692651 
L 153.843274 -118.230367 
L 150.534974 -114.727656 
L 147.226674 -112.764529 
L 143.918373 -111.236921 
L 140.610073 -110.994353 
L 137.301772 -110.203099 
L 133.993472 -108.974222 
L 130.685172 -108.545892 
L 127.376871 -107.981234 
L 124.068571 -99.023334 
L 120.760271 -91.37499 
L 117.45197 -90.376225 
L 114.14367 -76.210208 
L 110.835369 -41.669929 
z
" id="m4ed9507f08" style="stroke:#4a98c9;"/>
    </defs>
    <g clip-path="url(#pf042225278)">
     <use style="fill:#4a98c9;stroke:#4a98c9;" x="0" xlink:href="#m4ed9507f08" y="354.04"/>
    </g>
   </g>
   <g id="PolyCollection_2">
    <defs>
     <path d="M 110.835369 -25.82 
L 110.835369 -144.282596 
L 114.14367 -144.282596 
L 117.45197 -144.282596 
L 120.760271 -144.282596 
L 124.068571 -144.282596 
L 127.376871 -144.282596 
L 130.685172 -144.282596 
L 133.993472 -144.282596 
L 137.301772 -144.282596 
L 140.610073 -144.282596 
L 143.918373 -144.282596 
L 147.226674 -144.282596 
L 150.534974 -144.282596 
L 153.843274 -144.282596 
L 157.151575 -144.282596 
L 160.459875 -144.282596 
L 163.768176 -144.282596 
L 167.076476 -144.282596 
L 170.384776 -144.282596 
L 173.693077 -144.282596 
L 177.001377 -144.282596 
L 180.309678 -144.282596 
L 183.617978 -144.282596 
L 186.926278 -144.282596 
L 190.234579 -144.282596 
L 193.542879 -144.282596 
L 196.85118 -144.282596 
L 200.15948 -144.282596 
L 203.46778 -144.282596 
L 206.776081 -144.282596 
L 210.084381 -144.282596 
L 213.392682 -144.282596 
L 216.700982 -144.282596 
L 220.009282 -144.282596 
L 223.317583 -144.282596 
L 226.625883 -144.282596 
L 229.934184 -144.282596 
L 233.242484 -144.282596 
L 236.550784 -144.282596 
L 239.859085 -144.282596 
L 243.167385 -144.282596 
L 246.475686 -144.282596 
L 249.783986 -144.282596 
L 253.092286 -144.282596 
L 256.400587 -144.282596 
L 259.708887 -144.282596 
L 263.017188 -144.282596 
L 266.325488 -144.282596 
L 269.633788 -144.282596 
L 272.942089 -144.282596 
L 276.250389 -144.282596 
L 279.558689 -144.282596 
L 282.86699 -144.282596 
L 286.17529 -144.282596 
L 289.483591 -144.282596 
L 292.791891 -144.282596 
L 296.100191 -144.282596 
L 299.408492 -144.282596 
L 302.716792 -144.282596 
L 306.025093 -144.282596 
L 309.333393 -144.282596 
L 312.641693 -144.282596 
L 315.949994 -144.282596 
L 319.258294 -144.282596 
L 322.566595 -144.282596 
L 325.874895 -144.282596 
L 329.183195 -144.282596 
L 332.491496 -144.282596 
L 335.799796 -144.282596 
L 339.108097 -144.282596 
L 342.416397 -144.282596 
L 345.724697 -144.282596 
L 349.032998 -144.282596 
L 352.341298 -144.282596 
L 355.649599 -144.282596 
L 358.957899 -144.282596 
L 362.266199 -144.282596 
L 365.5745 -144.282596 
L 368.8828 -144.282596 
L 372.191101 -144.282596 
L 375.499401 -144.282596 
L 378.807701 -144.282596 
L 382.116002 -144.282596 
L 385.424302 -144.282596 
L 388.732603 -144.282596 
L 392.040903 -144.282596 
L 395.349203 -144.282596 
L 398.657504 -144.282596 
L 401.965804 -144.282596 
L 405.274104 -144.282596 
L 408.582405 -144.282596 
L 411.890705 -144.282596 
L 415.199006 -144.282596 
L 415.199006 -328.22 
L 415.199006 -328.22 
L 411.890705 -313.160443 
L 408.582405 -307.034433 
L 405.274104 -276.898274 
L 401.965804 -249.958929 
L 398.657504 -246.341385 
L 395.349203 -242.433625 
L 392.040903 -225.505207 
L 388.732603 -221.201846 
L 385.424302 -219.294133 
L 382.116002 -209.131324 
L 378.807701 -203.535069 
L 375.499401 -202.542699 
L 372.191101 -200.171213 
L 368.8828 -197.545948 
L 365.5745 -195.922026 
L 362.266199 -193.52391 
L 358.957899 -192.314765 
L 355.649599 -183.423907 
L 352.341298 -181.031314 
L 349.032998 -179.170856 
L 345.724697 -179.149424 
L 342.416397 -178.807749 
L 339.108097 -178.356549 
L 335.799796 -176.588138 
L 332.491496 -172.602418 
L 329.183195 -172.550334 
L 325.874895 -171.427748 
L 322.566595 -169.93787 
L 319.258294 -169.562931 
L 315.949994 -164.194654 
L 312.641693 -163.686905 
L 309.333393 -162.855873 
L 306.025093 -162.098721 
L 302.716792 -162.063207 
L 299.408492 -161.923657 
L 296.100191 -160.684548 
L 292.791891 -159.861821 
L 289.483591 -159.777835 
L 286.17529 -159.421504 
L 282.86699 -154.926536 
L 279.558689 -154.202461 
L 276.250389 -154.139606 
L 272.942089 -152.723511 
L 269.633788 -152.570103 
L 266.325488 -152.398356 
L 263.017188 -151.584735 
L 259.708887 -151.298718 
L 256.400587 -150.714815 
L 253.092286 -149.171925 
L 249.783986 -148.889893 
L 246.475686 -147.048707 
L 243.167385 -146.610998 
L 239.859085 -146.108957 
L 236.550784 -145.902865 
L 233.242484 -144.243486 
L 229.934184 -142.952781 
L 226.625883 -142.837991 
L 223.317583 -142.381714 
L 220.009282 -140.559536 
L 216.700982 -139.553329 
L 213.392682 -139.136736 
L 210.084381 -139.076184 
L 206.776081 -138.874606 
L 203.46778 -137.995304 
L 200.15948 -137.168109 
L 196.85118 -134.617413 
L 193.542879 -132.507397 
L 190.234579 -128.491964 
L 186.926278 -127.622027 
L 183.617978 -126.107384 
L 180.309678 -125.481152 
L 177.001377 -124.044831 
L 173.693077 -123.976883 
L 170.384776 -123.625479 
L 167.076476 -122.788804 
L 163.768176 -122.768355 
L 160.459875 -119.862193 
L 157.151575 -119.839048 
L 153.843274 -114.248729 
L 150.534974 -112.409593 
L 147.226674 -110.804311 
L 143.918373 -108.991754 
L 140.610073 -108.21667 
L 137.301772 -105.113343 
L 133.993472 -98.173864 
L 130.685172 -94.81057 
L 127.376871 -65.956104 
L 124.068571 -61.338661 
L 120.760271 -58.664293 
L 117.45197 -50.423777 
L 114.14367 -46.46417 
L 110.835369 -25.82 
z
" id="m026b4a1e50" style="stroke:#f14432;stroke-opacity:0.8;"/>
    </defs>
    <g clip-path="url(#pf042225278)">
     <use style="fill:#f14432;fill-opacity:0.8;stroke:#f14432;stroke-opacity:0.8;" x="0" xlink:href="#m026b4a1e50" y="354.04"/>
    </g>
   </g>
   <g id="matplotlib.axis_1"/>
   <g id="matplotlib.axis_2">
    <g id="ytick_1">
     <g id="line2d_1">
      <defs>
       <path d="M 0 0 
L -3.5 0 
" id="m7957bd7dd7" style="stroke:#000000;stroke-width:0.8;"/>
      </defs>
      <g>
       <use style="stroke:#000000;stroke-width:0.8;" x="95.617188" xlink:href="#m7957bd7dd7" y="278.227937"/>
      </g>
     </g>
     <g id="text_1">
      <!-- −0.001 -->
      <defs>
       <path d="M 10.59375 35.5 
L 73.1875 35.5 
L 73.1875 27.203125 
L 10.59375 27.203125 
z
" id="DejaVuSans-2212"/>
       <path d="M 31.78125 66.40625 
Q 24.171875 66.40625 20.328125 58.90625 
Q 16.5 51.421875 16.5 36.375 
Q 16.5 21.390625 20.328125 13.890625 
Q 24.171875 6.390625 31.78125 6.390625 
Q 39.453125 6.390625 43.28125 13.890625 
Q 47.125 21.390625 47.125 36.375 
Q 47.125 51.421875 43.28125 58.90625 
Q 39.453125 66.40625 31.78125 66.40625 
z
M 31.78125 74.21875 
Q 44.046875 74.21875 50.515625 64.515625 
Q 56.984375 54.828125 56.984375 36.375 
Q 56.984375 17.96875 50.515625 8.265625 
Q 44.046875 -1.421875 31.78125 -1.421875 
Q 19.53125 -1.421875 13.0625 8.265625 
Q 6.59375 17.96875 6.59375 36.375 
Q 6.59375 54.828125 13.0625 64.515625 
Q 19.53125 74.21875 31.78125 74.21875 
z
" id="DejaVuSans-30"/>
       <path d="M 10.6875 12.40625 
L 21 12.40625 
L 21 0 
L 10.6875 0 
z
" id="DejaVuSans-2e"/>
       <path d="M 12.40625 8.296875 
L 28.515625 8.296875 
L 28.515625 63.921875 
L 10.984375 60.40625 
L 10.984375 69.390625 
L 28.421875 72.90625 
L 38.28125 72.90625 
L 38.28125 8.296875 
L 54.390625 8.296875 
L 54.390625 0 
L 12.40625 0 
z
" id="DejaVuSans-31"/>
      </defs>
      <g transform="translate(7.2 286.586218)scale(0.22 -0.22)">
       <use xlink:href="#DejaVuSans-2212"/>
       <use x="83.789062" xlink:href="#DejaVuSans-30"/>
       <use x="147.412109" xlink:href="#DejaVuSans-2e"/>
       <use x="179.199219" xlink:href="#DejaVuSans-30"/>
       <use x="242.822266" xlink:href="#DejaVuSans-30"/>
       <use x="306.445312" xlink:href="#DejaVuSans-31"/>
      </g>
     </g>
    </g>
    <g id="ytick_2">
     <g id="line2d_2">
      <g>
       <use style="stroke:#000000;stroke-width:0.8;" x="95.617188" xlink:href="#m7957bd7dd7" y="209.757404"/>
      </g>
     </g>
     <g id="text_2">
      <!-- 0.000 -->
      <g transform="translate(25.635312 218.115685)scale(0.22 -0.22)">
       <use xlink:href="#DejaVuSans-30"/>
       <use x="63.623047" xlink:href="#DejaVuSans-2e"/>
       <use x="95.410156" xlink:href="#DejaVuSans-30"/>
       <use x="159.033203" xlink:href="#DejaVuSans-30"/>
       <use x="222.65625" xlink:href="#DejaVuSans-30"/>
      </g>
     </g>
    </g>
    <g id="ytick_3">
     <g id="line2d_3">
      <g>
       <use style="stroke:#000000;stroke-width:0.8;" x="95.617188" xlink:href="#m7957bd7dd7" y="141.286871"/>
      </g>
     </g>
     <g id="text_3">
      <!-- 0.001 -->
      <g transform="translate(25.635312 149.645152)scale(0.22 -0.22)">
       <use xlink:href="#DejaVuSans-30"/>
       <use x="63.623047" xlink:href="#DejaVuSans-2e"/>
       <use x="95.410156" xlink:href="#DejaVuSans-30"/>
       <use x="159.033203" xlink:href="#DejaVuSans-30"/>
       <use x="222.65625" xlink:href="#DejaVuSans-31"/>
      </g>
     </g>
    </g>
    <g id="ytick_4">
     <g id="line2d_4">
      <g>
       <use style="stroke:#000000;stroke-width:0.8;" x="95.617188" xlink:href="#m7957bd7dd7" y="72.816337"/>
      </g>
     </g>
     <g id="text_4">
      <!-- 0.002 -->
      <defs>
       <path d="M 19.1875 8.296875 
L 53.609375 8.296875 
L 53.609375 0 
L 7.328125 0 
L 7.328125 8.296875 
Q 12.9375 14.109375 22.625 23.890625 
Q 32.328125 33.6875 34.8125 36.53125 
Q 39.546875 41.84375 41.421875 45.53125 
Q 43.3125 49.21875 43.3125 52.78125 
Q 43.3125 58.59375 39.234375 62.25 
Q 35.15625 65.921875 28.609375 65.921875 
Q 23.96875 65.921875 18.8125 64.3125 
Q 13.671875 62.703125 7.8125 59.421875 
L 7.8125 69.390625 
Q 13.765625 71.78125 18.9375 73 
Q 24.125 74.21875 28.421875 74.21875 
Q 39.75 74.21875 46.484375 68.546875 
Q 53.21875 62.890625 53.21875 53.421875 
Q 53.21875 48.921875 51.53125 44.890625 
Q 49.859375 40.875 45.40625 35.40625 
Q 44.1875 33.984375 37.640625 27.21875 
Q 31.109375 20.453125 19.1875 8.296875 
z
" id="DejaVuSans-32"/>
      </defs>
      <g transform="translate(25.635312 81.174619)scale(0.22 -0.22)">
       <use xlink:href="#DejaVuSans-30"/>
       <use x="63.623047" xlink:href="#DejaVuSans-2e"/>
       <use x="95.410156" xlink:href="#DejaVuSans-30"/>
       <use x="159.033203" xlink:href="#DejaVuSans-30"/>
       <use x="222.65625" xlink:href="#DejaVuSans-32"/>
      </g>
     </g>
    </g>
   </g>
   <g id="patch_3">
    <path d="M 95.617188 343.34 
L 95.617188 10.7 
" style="fill:none;stroke:#000000;stroke-linecap:square;stroke-linejoin:miter;stroke-width:0.8;"/>
   </g>
   <g id="patch_4">
    <path d="M 430.417188 343.34 
L 430.417188 10.7 
" style="fill:none;stroke:#000000;stroke-linecap:square;stroke-linejoin:miter;stroke-width:0.8;"/>
   </g>
   <g id="patch_5">
    <path d="M 95.617188 343.34 
L 430.417188 343.34 
" style="fill:none;stroke:#000000;stroke-linecap:square;stroke-linejoin:miter;stroke-width:0.8;"/>
   </g>
   <g id="patch_6">
    <path d="M 95.617188 10.7 
L 430.417188 10.7 
" style="fill:none;stroke:#000000;stroke-linecap:square;stroke-linejoin:miter;stroke-width:0.8;"/>
   </g>
  </g>
 </g>
 <defs>
  <clipPath id="pf042225278">
   <rect height="332.64" width="334.8" x="95.617188" y="10.7"/>
  </clipPath>
 </defs>
</svg>
