<?xml version="1.0" encoding="utf-8" standalone="no"?>
<!DOCTYPE svg PUBLIC "-//W3C//DTD SVG 1.1//EN"
  "http://www.w3.org/Graphics/SVG/1.1/DTD/svg11.dtd">
<!-- Created with matplotlib (http://matplotlib.org/) -->
<svg height="214pt" version="1.1" viewBox="0 0 1458 214" width="1458pt" xmlns="http://www.w3.org/2000/svg" xmlns:xlink="http://www.w3.org/1999/xlink">
 <defs>
  <style type="text/css">
*{stroke-linecap:butt;stroke-linejoin:round;}
  </style>
 </defs>
 <g id="figure_1">
  <g id="patch_1">
   <path d="M 0 214.4475 
L 1458.0675 214.4475 
L 1458.0675 0 
L 0 0 
z
" style="fill:#ffffff;"/>
  </g>
  <g id="axes_1">
   <g id="patch_2">
    <path d="M 52.3675 177.02 
L 1447.3675 177.02 
L 1447.3675 10.7 
L 52.3675 10.7 
z
" style="fill:#ffffff;"/>
   </g>
   <g id="matplotlib.axis_1">
    <g id="xtick_1">
     <g id="line2d_1">
      <defs>
       <path d="M 0 0 
L 0 3.5 
" id="ma82dff057d" style="stroke:#000000;stroke-width:0.8;"/>
      </defs>
      <g>
       <use style="stroke:#000000;stroke-width:0.8;" x="52.3675" xlink:href="#ma82dff057d" y="177.02"/>
      </g>
     </g>
     <g id="text_1">
      <!-- 0 -->
      <defs>
       <path d="M 31.78125 66.40625 
Q 24.171875 66.40625 20.328125 58.90625 
Q 16.5 51.421875 16.5 36.375 
Q 16.5 21.390625 20.328125 13.890625 
Q 24.171875 6.390625 31.78125 6.390625 
Q 39.453125 6.390625 43.28125 13.890625 
Q 47.125 21.390625 47.125 36.375 
Q 47.125 51.421875 43.28125 58.90625 
Q 39.453125 66.40625 31.78125 66.40625 
z
M 31.78125 74.21875 
Q 44.046875 74.21875 50.515625 64.515625 
Q 56.984375 54.828125 56.984375 36.375 
Q 56.984375 17.96875 50.515625 8.265625 
Q 44.046875 -1.421875 31.78125 -1.421875 
Q 19.53125 -1.421875 13.0625 8.265625 
Q 6.59375 17.96875 6.59375 36.375 
Q 6.59375 54.828125 13.0625 64.515625 
Q 19.53125 74.21875 31.78125 74.21875 
z
" id="DejaVuSans-30"/>
      </defs>
      <g transform="translate(44.7325 202.25625)scale(0.24 -0.24)">
       <use xlink:href="#DejaVuSans-30"/>
      </g>
     </g>
    </g>
    <g id="xtick_2">
     <g id="line2d_2">
      <g>
       <use style="stroke:#000000;stroke-width:0.8;" x="282.133741" xlink:href="#ma82dff057d" y="177.02"/>
      </g>
     </g>
     <g id="text_2">
      <!-- 5 -->
      <defs>
       <path d="M 10.796875 72.90625 
L 49.515625 72.90625 
L 49.515625 64.59375 
L 19.828125 64.59375 
L 19.828125 46.734375 
Q 21.96875 47.46875 24.109375 47.828125 
Q 26.265625 48.1875 28.421875 48.1875 
Q 40.625 48.1875 47.75 41.5 
Q 54.890625 34.8125 54.890625 23.390625 
Q 54.890625 11.625 47.5625 5.09375 
Q 40.234375 -1.421875 26.90625 -1.421875 
Q 22.3125 -1.421875 17.546875 -0.640625 
Q 12.796875 0.140625 7.71875 1.703125 
L 7.71875 11.625 
Q 12.109375 9.234375 16.796875 8.0625 
Q 21.484375 6.890625 26.703125 6.890625 
Q 35.15625 6.890625 40.078125 11.328125 
Q 45.015625 15.765625 45.015625 23.390625 
Q 45.015625 31 40.078125 35.4375 
Q 35.15625 39.890625 26.703125 39.890625 
Q 22.75 39.890625 18.8125 39.015625 
Q 14.890625 38.140625 10.796875 36.28125 
z
" id="DejaVuSans-35"/>
      </defs>
      <g transform="translate(274.498741 202.25625)scale(0.24 -0.24)">
       <use xlink:href="#DejaVuSans-35"/>
      </g>
     </g>
    </g>
    <g id="xtick_3">
     <g id="line2d_3">
      <g>
       <use style="stroke:#000000;stroke-width:0.8;" x="511.899983" xlink:href="#ma82dff057d" y="177.02"/>
      </g>
     </g>
     <g id="text_3">
      <!-- 10 -->
      <defs>
       <path d="M 12.40625 8.296875 
L 28.515625 8.296875 
L 28.515625 63.921875 
L 10.984375 60.40625 
L 10.984375 69.390625 
L 28.421875 72.90625 
L 38.28125 72.90625 
L 38.28125 8.296875 
L 54.390625 8.296875 
L 54.390625 0 
L 12.40625 0 
z
" id="DejaVuSans-31"/>
      </defs>
      <g transform="translate(496.629983 202.25625)scale(0.24 -0.24)">
       <use xlink:href="#DejaVuSans-31"/>
       <use x="63.623047" xlink:href="#DejaVuSans-30"/>
      </g>
     </g>
    </g>
    <g id="xtick_4">
     <g id="line2d_4">
      <g>
       <use style="stroke:#000000;stroke-width:0.8;" x="741.666224" xlink:href="#ma82dff057d" y="177.02"/>
      </g>
     </g>
     <g id="text_4">
      <!-- 15 -->
      <g transform="translate(726.396224 202.25625)scale(0.24 -0.24)">
       <use xlink:href="#DejaVuSans-31"/>
       <use x="63.623047" xlink:href="#DejaVuSans-35"/>
      </g>
     </g>
    </g>
    <g id="xtick_5">
     <g id="line2d_5">
      <g>
       <use style="stroke:#000000;stroke-width:0.8;" x="971.432465" xlink:href="#ma82dff057d" y="177.02"/>
      </g>
     </g>
     <g id="text_5">
      <!-- 20 -->
      <defs>
       <path d="M 19.1875 8.296875 
L 53.609375 8.296875 
L 53.609375 0 
L 7.328125 0 
L 7.328125 8.296875 
Q 12.9375 14.109375 22.625 23.890625 
Q 32.328125 33.6875 34.8125 36.53125 
Q 39.546875 41.84375 41.421875 45.53125 
Q 43.3125 49.21875 43.3125 52.78125 
Q 43.3125 58.59375 39.234375 62.25 
Q 35.15625 65.921875 28.609375 65.921875 
Q 23.96875 65.921875 18.8125 64.3125 
Q 13.671875 62.703125 7.8125 59.421875 
L 7.8125 69.390625 
Q 13.765625 71.78125 18.9375 73 
Q 24.125 74.21875 28.421875 74.21875 
Q 39.75 74.21875 46.484375 68.546875 
Q 53.21875 62.890625 53.21875 53.421875 
Q 53.21875 48.921875 51.53125 44.890625 
Q 49.859375 40.875 45.40625 35.40625 
Q 44.1875 33.984375 37.640625 27.21875 
Q 31.109375 20.453125 19.1875 8.296875 
z
" id="DejaVuSans-32"/>
      </defs>
      <g transform="translate(956.162465 202.25625)scale(0.24 -0.24)">
       <use xlink:href="#DejaVuSans-32"/>
       <use x="63.623047" xlink:href="#DejaVuSans-30"/>
      </g>
     </g>
    </g>
    <g id="xtick_6">
     <g id="line2d_6">
      <g>
       <use style="stroke:#000000;stroke-width:0.8;" x="1201.198706" xlink:href="#ma82dff057d" y="177.02"/>
      </g>
     </g>
     <g id="text_6">
      <!-- 25 -->
      <g transform="translate(1185.928706 202.25625)scale(0.24 -0.24)">
       <use xlink:href="#DejaVuSans-32"/>
       <use x="63.623047" xlink:href="#DejaVuSans-35"/>
      </g>
     </g>
    </g>
    <g id="xtick_7">
     <g id="line2d_7">
      <g>
       <use style="stroke:#000000;stroke-width:0.8;" x="1430.964948" xlink:href="#ma82dff057d" y="177.02"/>
      </g>
     </g>
     <g id="text_7">
      <!-- 30 -->
      <defs>
       <path d="M 40.578125 39.3125 
Q 47.65625 37.796875 51.625 33 
Q 55.609375 28.21875 55.609375 21.1875 
Q 55.609375 10.40625 48.1875 4.484375 
Q 40.765625 -1.421875 27.09375 -1.421875 
Q 22.515625 -1.421875 17.65625 -0.515625 
Q 12.796875 0.390625 7.625 2.203125 
L 7.625 11.71875 
Q 11.71875 9.328125 16.59375 8.109375 
Q 21.484375 6.890625 26.8125 6.890625 
Q 36.078125 6.890625 40.9375 10.546875 
Q 45.796875 14.203125 45.796875 21.1875 
Q 45.796875 27.640625 41.28125 31.265625 
Q 36.765625 34.90625 28.71875 34.90625 
L 20.21875 34.90625 
L 20.21875 43.015625 
L 29.109375 43.015625 
Q 36.375 43.015625 40.234375 45.921875 
Q 44.09375 48.828125 44.09375 54.296875 
Q 44.09375 59.90625 40.109375 62.90625 
Q 36.140625 65.921875 28.71875 65.921875 
Q 24.65625 65.921875 20.015625 65.03125 
Q 15.375 64.15625 9.8125 62.3125 
L 9.8125 71.09375 
Q 15.4375 72.65625 20.34375 73.4375 
Q 25.25 74.21875 29.59375 74.21875 
Q 40.828125 74.21875 47.359375 69.109375 
Q 53.90625 64.015625 53.90625 55.328125 
Q 53.90625 49.265625 50.4375 45.09375 
Q 46.96875 40.921875 40.578125 39.3125 
z
" id="DejaVuSans-33"/>
      </defs>
      <g transform="translate(1415.694948 202.25625)scale(0.24 -0.24)">
       <use xlink:href="#DejaVuSans-33"/>
       <use x="63.623047" xlink:href="#DejaVuSans-30"/>
      </g>
     </g>
    </g>
   </g>
   <g id="matplotlib.axis_2">
    <g id="ytick_1">
     <g id="line2d_8">
      <defs>
       <path d="M 0 0 
L -3.5 0 
" id="m809d5c899c" style="stroke:#000000;stroke-width:0.8;"/>
      </defs>
      <g>
       <use style="stroke:#000000;stroke-width:0.8;" x="52.3675" xlink:href="#m809d5c899c" y="169.46"/>
      </g>
     </g>
     <g id="text_8">
      <!-- 0.0 -->
      <defs>
       <path d="M 10.6875 12.40625 
L 21 12.40625 
L 21 0 
L 10.6875 0 
z
" id="DejaVuSans-2e"/>
      </defs>
      <g transform="translate(7.2 178.578125)scale(0.24 -0.24)">
       <use xlink:href="#DejaVuSans-30"/>
       <use x="63.623047" xlink:href="#DejaVuSans-2e"/>
       <use x="95.410156" xlink:href="#DejaVuSans-30"/>
      </g>
     </g>
    </g>
    <g id="ytick_2">
     <g id="line2d_9">
      <g>
       <use style="stroke:#000000;stroke-width:0.8;" x="52.3675" xlink:href="#m809d5c899c" y="125.604521"/>
      </g>
     </g>
     <g id="text_9">
      <!-- 0.2 -->
      <g transform="translate(7.2 134.722646)scale(0.24 -0.24)">
       <use xlink:href="#DejaVuSans-30"/>
       <use x="63.623047" xlink:href="#DejaVuSans-2e"/>
       <use x="95.410156" xlink:href="#DejaVuSans-32"/>
      </g>
     </g>
    </g>
    <g id="ytick_3">
     <g id="line2d_10">
      <g>
       <use style="stroke:#000000;stroke-width:0.8;" x="52.3675" xlink:href="#m809d5c899c" y="81.749041"/>
      </g>
     </g>
     <g id="text_10">
      <!-- 0.4 -->
      <defs>
       <path d="M 37.796875 64.3125 
L 12.890625 25.390625 
L 37.796875 25.390625 
z
M 35.203125 72.90625 
L 47.609375 72.90625 
L 47.609375 25.390625 
L 58.015625 25.390625 
L 58.015625 17.1875 
L 47.609375 17.1875 
L 47.609375 0 
L 37.796875 0 
L 37.796875 17.1875 
L 4.890625 17.1875 
L 4.890625 26.703125 
z
" id="DejaVuSans-34"/>
      </defs>
      <g transform="translate(7.2 90.867166)scale(0.24 -0.24)">
       <use xlink:href="#DejaVuSans-30"/>
       <use x="63.623047" xlink:href="#DejaVuSans-2e"/>
       <use x="95.410156" xlink:href="#DejaVuSans-34"/>
      </g>
     </g>
    </g>
    <g id="ytick_4">
     <g id="line2d_11">
      <g>
       <use style="stroke:#000000;stroke-width:0.8;" x="52.3675" xlink:href="#m809d5c899c" y="37.893561"/>
      </g>
     </g>
     <g id="text_11">
      <!-- 0.6 -->
      <defs>
       <path d="M 33.015625 40.375 
Q 26.375 40.375 22.484375 35.828125 
Q 18.609375 31.296875 18.609375 23.390625 
Q 18.609375 15.53125 22.484375 10.953125 
Q 26.375 6.390625 33.015625 6.390625 
Q 39.65625 6.390625 43.53125 10.953125 
Q 47.40625 15.53125 47.40625 23.390625 
Q 47.40625 31.296875 43.53125 35.828125 
Q 39.65625 40.375 33.015625 40.375 
z
M 52.59375 71.296875 
L 52.59375 62.3125 
Q 48.875 64.0625 45.09375 64.984375 
Q 41.3125 65.921875 37.59375 65.921875 
Q 27.828125 65.921875 22.671875 59.328125 
Q 17.53125 52.734375 16.796875 39.40625 
Q 19.671875 43.65625 24.015625 45.921875 
Q 28.375 48.1875 33.59375 48.1875 
Q 44.578125 48.1875 50.953125 41.515625 
Q 57.328125 34.859375 57.328125 23.390625 
Q 57.328125 12.15625 50.6875 5.359375 
Q 44.046875 -1.421875 33.015625 -1.421875 
Q 20.359375 -1.421875 13.671875 8.265625 
Q 6.984375 17.96875 6.984375 36.375 
Q 6.984375 53.65625 15.1875 63.9375 
Q 23.390625 74.21875 37.203125 74.21875 
Q 40.921875 74.21875 44.703125 73.484375 
Q 48.484375 72.75 52.59375 71.296875 
z
" id="DejaVuSans-36"/>
      </defs>
      <g transform="translate(7.2 47.011686)scale(0.24 -0.24)">
       <use xlink:href="#DejaVuSans-30"/>
       <use x="63.623047" xlink:href="#DejaVuSans-2e"/>
       <use x="95.410156" xlink:href="#DejaVuSans-36"/>
      </g>
     </g>
    </g>
   </g>
   <g id="line2d_12">
    <path clip-path="url(#pec929e02ac)" d="M 52.3675 169.187087 
L 62.587043 169.444384 
L 92.22459 169.31914 
L 111.642135 169.288996 
L 113.686136 166.363468 
L 118.796137 158.722654 
L 119.818137 155.886021 
L 125.949679 134.720322 
L 126.971679 132.119064 
L 134.125681 123.983325 
L 141.279683 119.533133 
L 142.301683 119.790513 
L 149.455225 122.586429 
L 155.587227 125.702232 
L 156.609227 126.797406 
L 163.763229 141.778911 
L 170.916771 146.273647 
L 171.938771 148.820597 
L 178.070772 166.449534 
L 179.092773 167.729185 
L 186.246315 167.956264 
L 193.400317 169.445113 
L 204.642319 169.353978 
L 211.795861 169.276479 
L 223.037864 169.248809 
L 230.191406 157.459135 
L 231.213406 157.089877 
L 237.345408 157.583333 
L 238.367408 156.429266 
L 244.49941 141.59473 
L 245.52141 139.814014 
L 252.674952 144.174652 
L 255.740953 141.348304 
L 259.828954 137.500661 
L 260.850954 137.983063 
L 266.982955 144.555248 
L 268.004956 144.798046 
L 274.136497 139.786057 
L 275.158498 139.583307 
L 282.312499 158.251132 
L 283.3345 158.405341 
L 289.466501 158.022512 
L 290.488501 157.163546 
L 296.620043 149.549038 
L 297.642043 148.773845 
L 304.796045 148.518548 
L 311.950047 146.132886 
L 313.993588 147.182307 
L 319.103589 150.088205 
L 320.125589 149.448313 
L 326.257591 141.058383 
L 327.279591 140.628735 
L 333.411592 148.547426 
L 334.433593 149.480016 
L 341.587135 130.456898 
L 343.631135 118.31183 
L 348.741136 86.440565 
L 349.763137 80.942514 
L 355.895138 51.848141 
L 356.916679 47.981858 
L 364.070681 36.12717 
L 371.224682 50.109438 
L 373.268683 55.700094 
L 378.378224 70.137 
L 379.400225 75.46786 
L 386.554226 127.449137 
L 393.708228 169.440748 
L 400.86177 169.450295 
L 401.88377 167.176904 
L 408.015772 148.981591 
L 409.037772 146.992119 
L 416.191774 140.780656 
L 423.345316 137.344824 
L 427.433317 139.528304 
L 430.499318 141.191087 
L 431.521318 142.407963 
L 437.653319 151.353644 
L 438.67532 153.212979 
L 444.806861 167.103276 
L 445.828862 168.902976 
L 452.982863 165.707401 
L 460.136865 164.20079 
L 461.158865 162.78736 
L 467.290407 150.678742 
L 468.312407 150.503439 
L 474.444409 165.757556 
L 475.466409 167.940622 
L 482.620411 168.225795 
L 490.795953 169.459079 
L 558.246591 169.31908 
L 566.422593 169.169505 
L 580.730136 169.275856 
L 603.213682 169.437287 
L 653.290775 169.430333 
L 655.334316 166.625312 
L 660.444317 159.198151 
L 661.466317 157.008988 
L 667.598319 141.36818 
L 668.620319 139.49061 
L 675.773861 135.204759 
L 682.927863 134.529401 
L 684.971863 135.39834 
L 690.081864 137.792667 
L 691.103865 139.891037 
L 697.235407 159.367611 
L 698.257407 161.902492 
L 705.411409 169.203402 
L 715.631411 169.45275 
L 734.026956 169.343466 
L 741.180498 169.337987 
L 745.268499 169.235355 
L 751.4005 169.110454 
L 759.576502 169.252342 
L 769.796045 169.194807 
L 771.840046 169.203461 
L 772.862046 165.448477 
L 778.994047 134.064357 
L 780.016048 130.47163 
L 786.147589 120.563649 
L 787.16959 118.696241 
L 794.323591 99.450803 
L 795.345592 100.337871 
L 803.521134 109.526717 
L 808.631135 115.531757 
L 809.653136 117.408868 
L 816.807137 137.48197 
L 823.961139 168.938016 
L 824.98268 169.164153 
L 831.114681 167.479212 
L 833.158682 167.313725 
L 838.268683 167.122652 
L 839.290683 166.510701 
L 846.444225 155.549845 
L 853.598227 150.111143 
L 854.620227 152.08336 
L 860.752229 166.804168 
L 861.774229 167.943012 
L 868.927771 169.459444 
L 927.180866 169.37582 
L 928.202866 168.457748 
L 935.356408 142.494405 
L 942.51041 127.849977 
L 943.53241 127.245628 
L 951.708412 126.85098 
L 956.817954 126.331179 
L 957.839954 125.987767 
L 964.993955 116.964548 
L 970.103957 105.620799 
L 972.147957 101.060131 
L 973.169957 97.076729 
L 979.301499 68.393856 
L 980.3235 64.159472 
L 987.477501 39.860643 
L 994.631043 18.26 
L 995.653044 19.7953 
L 1001.785045 32.130831 
L 1002.807045 34.84243 
L 1008.939047 53.341603 
L 1009.961047 57.06956 
L 1017.114589 90.402648 
L 1024.268591 112.321054 
L 1026.312591 116.799605 
L 1031.422593 127.650955 
L 1032.444593 128.268455 
L 1038.576135 125.655679 
L 1039.598135 123.820817 
L 1046.752137 91.641613 
L 1053.906138 69.930707 
L 1055.950139 65.295832 
L 1061.05968 54.111637 
L 1062.081681 53.178215 
L 1068.213682 53.898159 
L 1069.235682 54.194484 
L 1076.389684 59.338653 
L 1083.543226 83.062884 
L 1084.565226 82.971128 
L 1090.697228 76.223358 
L 1091.719228 75.784345 
L 1097.85123 77.091496 
L 1098.87323 77.19331 
L 1106.026772 75.472117 
L 1113.180774 94.043468 
L 1114.202774 96.010398 
L 1120.334775 106.27027 
L 1121.356776 108.84707 
L 1128.510318 133.617862 
L 1135.664319 153.363703 
L 1142.818321 168.254794 
L 1143.839862 168.956214 
L 1150.993864 169.264596 
L 1157.125865 168.740961 
L 1158.147865 168.504607 
L 1165.301407 161.570753 
L 1167.345408 153.886078 
L 1173.477409 130.414663 
L 1180.631411 107.494508 
L 1187.784953 87.048194 
L 1194.938955 61.080114 
L 1195.960955 59.010766 
L 1202.092957 48.173925 
L 1203.114957 45.712792 
L 1209.246499 28.340953 
L 1210.268499 26.221104 
L 1217.422501 21.951694 
L 1224.576502 21.541663 
L 1225.598503 23.075287 
L 1238.884046 47.610333 
L 1239.906046 49.986708 
L 1247.060048 74.586674 
L 1254.21359 88.780603 
L 1255.23559 89.340197 
L 1261.367592 90.162705 
L 1262.389592 90.428613 
L 1268.521594 92.748904 
L 1269.543594 92.880265 
L 1276.697136 88.593664 
L 1283.851138 91.666592 
L 1284.873138 91.209967 
L 1291.005139 86.522724 
L 1292.02714 85.98354 
L 1299.180682 84.025106 
L 1306.334683 79.94055 
L 1309.400684 81.338109 
L 1320.642227 86.559043 
L 1321.664228 87.509224 
L 1328.818229 98.432508 
L 1335.971771 102.39916 
L 1339.037772 106.789707 
L 1343.125773 112.755409 
L 1344.147773 113.420773 
L 1350.279775 114.732092 
L 1351.301775 115.580087 
L 1358.455317 128.266482 
L 1365.609319 131.034677 
L 1367.653319 135.11136 
L 1372.763321 145.887847 
L 1373.785321 147.114459 
L 1379.916863 150.860199 
L 1380.938863 151.701732 
L 1388.092865 160.358113 
L 1395.246866 159.901027 
L 1396.268867 158.119934 
L 1402.400408 145.246246 
L 1403.422409 143.915148 
L 1409.55441 139.710627 
L 1410.57641 139.275117 
L 1417.730412 140.479664 
L 1424.883954 139.764965 
L 1425.905954 140.74568 
L 1432.037956 148.442293 
L 1433.059956 149.040383 
L 1439.191958 148.858231 
L 1440.213958 149.564604 
L 1447.3675 169.11522 
L 1447.3675 169.11522 
" style="fill:none;stroke:#708090;stroke-linecap:square;stroke-width:2.5;"/>
   </g>
   <g id="patch_3">
    <path d="M 52.3675 177.02 
L 52.3675 10.7 
" style="fill:none;stroke:#000000;stroke-linecap:square;stroke-linejoin:miter;stroke-width:0.8;"/>
   </g>
   <g id="patch_4">
    <path d="M 1447.3675 177.02 
L 1447.3675 10.7 
" style="fill:none;stroke:#000000;stroke-linecap:square;stroke-linejoin:miter;stroke-width:0.8;"/>
   </g>
   <g id="patch_5">
    <path d="M 52.3675 177.02 
L 1447.3675 177.02 
" style="fill:none;stroke:#000000;stroke-linecap:square;stroke-linejoin:miter;stroke-width:0.8;"/>
   </g>
   <g id="patch_6">
    <path d="M 52.3675 10.7 
L 1447.3675 10.7 
" style="fill:none;stroke:#000000;stroke-linecap:square;stroke-linejoin:miter;stroke-width:0.8;"/>
   </g>
  </g>
 </g>
 <defs>
  <clipPath id="pec929e02ac">
   <rect height="166.32" width="1395" x="52.3675" y="10.7"/>
  </clipPath>
 </defs>
</svg>
