<?xml version="1.0" encoding="utf-8" standalone="no"?>
<!DOCTYPE svg PUBLIC "-//W3C//DTD SVG 1.1//EN"
  "http://www.w3.org/Graphics/SVG/1.1/DTD/svg11.dtd">
<!-- Created with matplotlib (http://matplotlib.org/) -->
<svg height="165pt" version="1.1" viewBox="0 0 313 165" width="313pt" xmlns="http://www.w3.org/2000/svg" xmlns:xlink="http://www.w3.org/1999/xlink">
 <defs>
  <style type="text/css">
*{stroke-linecap:butt;stroke-linejoin:round;}
  </style>
 </defs>
 <g id="figure_1">
  <g id="patch_1">
   <path d="M 0 165.322293 
L 313.038095 165.322293 
L 313.038095 0 
L 0 0 
z
" style="fill:#ffffff;"/>
  </g>
  <g id="axes_1">
   <g id="patch_2">
    <path d="M 23.338095 149.3 
L 302.338095 149.3 
L 302.338095 10.7 
L 23.338095 10.7 
z
" style="fill:#ffffff;"/>
   </g>
   <g id="patch_3">
    <path clip-path="url(#pbeb1da8e73)" d="M 46.047398 149.3 
L 46.047398 10.7 
L 91.466002 10.7 
L 91.466002 149.3 
z
" style="fill:#fee7dc;stroke:#fee7dc;stroke-linejoin:miter;"/>
   </g>
   <g id="patch_4">
    <path clip-path="url(#pbeb1da8e73)" d="M 136.884607 149.3 
L 136.884607 10.7 
L 182.303212 10.7 
L 182.303212 149.3 
z
" style="fill:#fdd4c2;stroke:#fdd4c2;stroke-linejoin:miter;"/>
   </g>
   <g id="patch_5">
    <path clip-path="url(#pbeb1da8e73)" d="M 227.721816 149.3 
L 227.721816 10.7 
L 273.140421 10.7 
L 273.140421 149.3 
z
" style="fill:#fcbba1;stroke:#fcbba1;stroke-linejoin:miter;"/>
   </g>
   <g id="line2d_1">
    <path clip-path="url(#pbeb1da8e73)" d="M 0.628793 146.78 
L 41.721816 146.712218 
L 43.884607 146.385022 
L 48.210188 145.200347 
L 50.372979 145.038718 
L 59.024142 145.01849 
L 87.140421 145.086272 
L 89.303212 145.413468 
L 93.628793 146.598143 
L 95.791584 146.759772 
L 104.442747 146.78 
L 132.559026 146.729564 
L 134.721816 146.486101 
L 139.047398 145.604598 
L 141.210188 145.484332 
L 152.024142 145.46928 
L 177.97763 145.519716 
L 180.140421 145.763179 
L 184.466002 146.644682 
L 186.628793 146.764948 
L 197.442747 146.78 
L 223.396235 146.731325 
L 225.559026 146.496364 
L 229.884607 145.645642 
L 232.047398 145.529575 
L 243.942747 145.515049 
L 268.81484 145.563724 
L 270.97763 145.798685 
L 275.303212 146.649407 
L 277.466002 146.765474 
L 289.361351 146.78 
L 314.038095 146.78 
L 314.038095 146.78 
" style="fill:none;stroke:#cccccc;stroke-linecap:square;stroke-width:1.75;"/>
   </g>
   <g id="line2d_2">
    <path clip-path="url(#pbeb1da8e73)" d="M 0.628793 146.78 
L 39.559026 146.730915 
L 40.640421 146.572708 
L 41.721816 146.085398 
L 42.803212 144.916403 
L 43.884607 142.732431 
L 44.966002 139.554772 
L 46.047398 135.954012 
L 47.128793 132.776352 
L 48.210188 130.59238 
L 49.291584 129.423385 
L 50.372979 128.936075 
L 51.454374 128.777869 
L 55.779956 128.728783 
L 84.97763 128.777869 
L 86.059026 128.936075 
L 87.140421 129.423385 
L 88.221816 130.59238 
L 89.303212 132.776352 
L 90.384607 135.954012 
L 91.466002 139.554772 
L 92.547398 142.732431 
L 93.628793 144.916403 
L 94.710188 146.085398 
L 95.791584 146.572708 
L 96.872979 146.730915 
L 101.198561 146.78 
L 130.396235 146.732237 
L 131.47763 146.578292 
L 132.559026 146.104109 
L 133.640421 144.966602 
L 134.721816 142.84146 
L 135.803212 139.749396 
L 136.884607 136.245629 
L 137.966002 133.153566 
L 139.047398 131.028424 
L 140.128793 129.890917 
L 141.210188 129.416734 
L 142.291584 129.262789 
L 146.617165 129.215026 
L 175.81484 129.262789 
L 176.896235 129.416734 
L 177.97763 129.890917 
L 179.059026 131.028424 
L 180.140421 133.153566 
L 181.221816 136.245629 
L 182.303212 139.749396 
L 183.384607 142.84146 
L 184.466002 144.966602 
L 185.547398 146.104109 
L 186.628793 146.578292 
L 187.710188 146.732237 
L 192.03577 146.78 
L 221.233444 146.733405 
L 222.31484 146.583225 
L 223.396235 146.120638 
L 224.47763 145.010949 
L 225.559026 142.937778 
L 226.640421 139.921332 
L 227.721816 136.503251 
L 228.803212 133.486805 
L 229.884607 131.413634 
L 230.966002 130.303945 
L 232.047398 129.841358 
L 233.128793 129.691178 
L 237.454374 129.644583 
L 266.652049 129.691178 
L 267.733444 129.841358 
L 268.81484 130.303945 
L 269.896235 131.413634 
L 270.97763 133.486805 
L 272.059026 136.503251 
L 273.140421 139.921332 
L 274.221816 142.937778 
L 275.303212 145.010949 
L 276.384607 146.120638 
L 277.466002 146.583225 
L 278.547398 146.733405 
L 282.872979 146.78 
L 314.038095 146.78 
L 314.038095 146.78 
" style="fill:none;stroke:#cccccc;stroke-linecap:square;stroke-width:1.75;"/>
   </g>
   <g id="line2d_3">
    <path clip-path="url(#pbeb1da8e73)" d="M 0.628793 146.78 
L 40.640421 146.698587 
L 41.721816 146.507196 
L 42.803212 146.048075 
L 43.884607 145.190324 
L 47.128793 141.28009 
L 48.210188 140.422339 
L 49.291584 139.963218 
L 50.372979 139.771827 
L 53.617165 139.690888 
L 86.059026 139.771827 
L 87.140421 139.963218 
L 88.221816 140.422339 
L 89.303212 141.28009 
L 92.547398 145.190324 
L 93.628793 146.048075 
L 94.710188 146.507196 
L 95.791584 146.698587 
L 99.03577 146.779526 
L 131.47763 146.70395 
L 132.559026 146.52517 
L 133.640421 146.096298 
L 134.721816 145.29506 
L 137.966002 141.642453 
L 139.047398 140.841214 
L 140.128793 140.412343 
L 141.210188 140.233562 
L 144.454374 140.157956 
L 176.896235 140.233562 
L 177.97763 140.412343 
L 179.059026 140.841214 
L 180.140421 141.642453 
L 183.384607 145.29506 
L 184.466002 146.096298 
L 185.547398 146.52517 
L 186.628793 146.70395 
L 189.872979 146.779557 
L 222.31484 146.706104 
L 223.396235 146.532387 
L 224.47763 146.11566 
L 225.559026 145.337112 
L 228.803212 141.787942 
L 229.884607 141.009394 
L 230.966002 140.592667 
L 232.047398 140.41895 
L 235.291584 140.345485 
L 267.733444 140.41895 
L 268.81484 140.592667 
L 269.896235 141.009394 
L 270.97763 141.787942 
L 274.221816 145.337112 
L 275.303212 146.11566 
L 276.384607 146.532387 
L 277.466002 146.706104 
L 280.710188 146.779569 
L 314.038095 146.78 
L 314.038095 146.78 
" style="fill:none;stroke:#cccccc;stroke-linecap:square;stroke-width:1.75;"/>
   </g>
   <g id="line2d_4">
    <path clip-path="url(#pbeb1da8e73)" d="M 0.628793 146.78 
L 41.721816 146.729454 
L 43.884607 146.48546 
L 48.210188 145.602032 
L 50.372979 145.481503 
L 61.186933 145.466419 
L 87.140421 145.516965 
L 89.303212 145.760959 
L 93.628793 146.644387 
L 95.791584 146.764915 
L 106.605537 146.78 
L 133.640421 146.690763 
L 135.803212 146.434025 
L 139.047398 146.004867 
L 142.291584 145.91798 
L 177.97763 145.94889 
L 180.140421 146.109445 
L 184.466002 146.690763 
L 187.710188 146.77765 
L 223.396235 146.748015 
L 225.559026 146.593615 
L 229.884607 146.034582 
L 233.128793 145.951026 
L 268.81484 145.980751 
L 270.97763 146.135151 
L 275.303212 146.694184 
L 278.547398 146.77774 
L 314.038095 146.78 
L 314.038095 146.78 
" style="fill:none;stroke:#cccccc;stroke-linecap:square;stroke-width:1.75;"/>
   </g>
   <g id="line2d_5">
    <path clip-path="url(#pbeb1da8e73)" d="M 0.628793 146.78 
L 40.640421 146.71006 
L 41.721816 146.545643 
L 42.803212 146.151226 
L 43.884607 145.414359 
L 47.128793 142.0552 
L 48.210188 141.318333 
L 49.291584 140.923916 
L 51.454374 140.70612 
L 61.186933 140.689559 
L 86.059026 140.759499 
L 87.140421 140.923916 
L 88.221816 141.318333 
L 89.303212 142.0552 
L 92.547398 145.414359 
L 93.628793 146.151226 
L 94.710188 146.545643 
L 96.872979 146.763439 
L 106.605537 146.78 
L 131.47763 146.715393 
L 132.559026 146.563512 
L 133.640421 146.19917 
L 134.721816 145.518488 
L 137.966002 142.41546 
L 139.047398 141.734778 
L 140.128793 141.370436 
L 142.291584 141.169247 
L 153.105537 141.153948 
L 176.896235 141.218555 
L 177.97763 141.370436 
L 179.059026 141.734778 
L 180.140421 142.41546 
L 183.384607 145.518488 
L 184.466002 146.19917 
L 185.547398 146.563512 
L 187.710188 146.764701 
L 198.524142 146.78 
L 222.31484 146.717255 
L 223.396235 146.569752 
L 224.47763 146.21591 
L 225.559026 145.554847 
L 228.803212 142.541253 
L 229.884607 141.88019 
L 230.966002 141.526348 
L 233.128793 141.330958 
L 243.942747 141.3161 
L 267.733444 141.378845 
L 268.81484 141.526348 
L 269.896235 141.88019 
L 270.97763 142.541253 
L 274.221816 145.554847 
L 275.303212 146.21591 
L 276.384607 146.569752 
L 278.547398 146.765142 
L 289.361351 146.78 
L 314.038095 146.78 
L 314.038095 146.78 
" style="fill:none;stroke:#cccccc;stroke-linecap:square;stroke-width:1.75;"/>
   </g>
   <g id="line2d_6">
    <path clip-path="url(#pbeb1da8e73)" d="M 0.628793 146.78 
L 41.721816 146.701973 
L 42.803212 146.570655 
L 44.966002 145.968362 
L 47.128793 145.206915 
L 48.210188 144.961581 
L 50.372979 144.775521 
L 57.942747 144.752235 
L 87.140421 144.830263 
L 88.221816 144.961581 
L 90.384607 145.563874 
L 92.547398 146.325321 
L 93.628793 146.570655 
L 95.791584 146.756714 
L 103.361351 146.78 
L 132.559026 146.719354 
L 134.721816 146.426607 
L 139.047398 145.36666 
L 141.210188 145.222048 
L 150.942747 145.203949 
L 177.97763 145.264595 
L 180.140421 145.557342 
L 184.466002 146.617289 
L 186.628793 146.761901 
L 196.361351 146.78 
L 223.396235 146.721402 
L 225.559026 146.438542 
L 229.884607 145.414391 
L 232.047398 145.274662 
L 241.779956 145.257175 
L 268.81484 145.315773 
L 270.97763 145.598633 
L 275.303212 146.622784 
L 277.466002 146.762513 
L 287.198561 146.78 
L 314.038095 146.78 
L 314.038095 146.78 
" style="fill:none;stroke:#cccccc;stroke-linecap:square;stroke-width:1.75;"/>
   </g>
   <g id="line2d_7">
    <path clip-path="url(#pbeb1da8e73)" d="M 0.628793 146.78 
L 41.721816 146.698607 
L 42.803212 146.561625 
L 43.884607 146.305709 
L 48.210188 144.883146 
L 50.372979 144.689062 
L 57.942747 144.664771 
L 87.140421 144.746164 
L 88.221816 144.883146 
L 89.303212 145.139063 
L 93.628793 146.561625 
L 95.791584 146.75571 
L 103.361351 146.78 
L 132.559026 146.716 
L 134.721816 146.407063 
L 139.047398 145.288495 
L 141.210188 145.135886 
L 149.861351 145.116786 
L 177.97763 145.180786 
L 180.140421 145.489723 
L 184.466002 146.608291 
L 186.628793 146.7609 
L 195.279956 146.78 
L 223.396235 146.718142 
L 225.559026 146.419545 
L 229.884607 145.338415 
L 232.047398 145.190913 
L 241.779956 145.172453 
L 268.81484 145.23431 
L 270.97763 145.532908 
L 275.303212 146.614038 
L 277.466002 146.76154 
L 287.198561 146.78 
L 314.038095 146.78 
L 314.038095 146.78 
" style="fill:none;stroke:#cccccc;stroke-linecap:square;stroke-width:1.75;"/>
   </g>
   <g id="line2d_8">
    <path clip-path="url(#pbeb1da8e73)" d="M 0.628793 146.78 
L 41.721816 146.719646 
L 43.884607 146.428306 
L 48.210188 145.373455 
L 50.372979 145.229538 
L 60.105537 145.211526 
L 87.140421 145.271881 
L 89.303212 145.56322 
L 93.628793 146.618072 
L 95.791584 146.761988 
L 105.524142 146.78 
L 132.559026 146.736966 
L 134.721816 146.529234 
L 139.047398 145.777099 
L 142.291584 145.664681 
L 176.896235 145.674483 
L 179.059026 145.777099 
L 181.221816 146.109278 
L 183.384607 146.529234 
L 185.547398 146.736966 
L 190.954374 146.78 
L 223.396235 146.738518 
L 225.559026 146.538279 
L 229.884607 145.813273 
L 233.128793 145.70491 
L 267.733444 145.714358 
L 269.896235 145.813273 
L 272.059026 146.13347 
L 275.303212 146.668706 
L 278.547398 146.777069 
L 314.038095 146.78 
L 314.038095 146.78 
" style="fill:none;stroke:#cccccc;stroke-linecap:square;stroke-width:1.75;"/>
   </g>
   <g id="line2d_9">
    <path clip-path="url(#pbeb1da8e73)" d="M 0.628793 146.78 
L 41.721816 146.686235 
L 42.803212 146.528432 
L 43.884607 146.233616 
L 48.210188 144.594824 
L 50.372979 144.371238 
L 56.861351 144.343256 
L 87.140421 144.43702 
L 88.221816 144.594824 
L 89.303212 144.889639 
L 93.628793 146.528432 
L 95.791584 146.752018 
L 102.279956 146.78 
L 132.559026 146.703671 
L 134.721816 146.335216 
L 139.047398 145.001155 
L 141.210188 144.819145 
L 148.779956 144.796366 
L 177.97763 144.872695 
L 180.140421 145.24115 
L 184.466002 146.575211 
L 186.628793 146.757221 
L 194.198561 146.78 
L 223.396235 146.706157 
L 225.559026 146.349702 
L 229.884607 145.059089 
L 232.047398 144.883007 
L 239.617165 144.860969 
L 268.81484 144.934813 
L 270.97763 145.291268 
L 275.303212 146.58188 
L 277.466002 146.757963 
L 285.03577 146.78 
L 314.038095 146.78 
L 314.038095 146.78 
" style="fill:none;stroke:#cccccc;stroke-linecap:square;stroke-width:1.75;"/>
   </g>
   <g id="line2d_10">
    <path clip-path="url(#pbeb1da8e73)" d="M 0.628793 146.78 
L 39.559026 146.720747 
L 40.640421 146.529771 
L 41.721816 145.941521 
L 42.803212 144.530384 
L 43.884607 141.894033 
L 44.966002 138.058165 
L 46.047398 133.711558 
L 47.128793 129.87569 
L 48.210188 127.239339 
L 49.291584 125.828202 
L 50.372979 125.239952 
L 51.454374 125.048976 
L 54.698561 124.989723 
L 84.97763 125.048976 
L 86.059026 125.239952 
L 87.140421 125.828202 
L 88.221816 127.239339 
L 89.303212 129.87569 
L 90.384607 133.711558 
L 91.466002 138.058165 
L 92.547398 141.894033 
L 93.628793 144.530384 
L 94.710188 145.941521 
L 95.791584 146.529771 
L 96.872979 146.720747 
L 100.117165 146.78 
L 130.396235 146.722075 
L 131.47763 146.535378 
L 132.559026 145.960312 
L 133.640421 144.580799 
L 134.721816 142.00353 
L 135.803212 138.253626 
L 136.884607 134.004427 
L 137.966002 130.254523 
L 139.047398 127.677254 
L 140.128793 126.297741 
L 141.210188 125.722675 
L 142.291584 125.535978 
L 145.53577 125.478053 
L 175.81484 125.535978 
L 176.896235 125.722675 
L 177.97763 126.297741 
L 179.059026 127.677254 
L 180.140421 130.254523 
L 181.221816 134.004427 
L 182.303212 138.253626 
L 183.384607 142.00353 
L 184.466002 144.580799 
L 185.547398 145.960312 
L 186.628793 146.535378 
L 187.710188 146.722075 
L 190.954374 146.78 
L 221.233444 146.723426 
L 222.31484 146.541082 
L 223.396235 145.979424 
L 224.47763 144.632077 
L 225.559026 142.1149 
L 226.640421 138.45243 
L 227.721816 134.302308 
L 228.803212 130.639838 
L 229.884607 128.122661 
L 230.966002 126.775314 
L 232.047398 126.213656 
L 233.128793 126.031312 
L 236.372979 125.974738 
L 266.652049 126.031312 
L 267.733444 126.213656 
L 268.81484 126.775314 
L 269.896235 128.122661 
L 270.97763 130.639838 
L 272.059026 134.302308 
L 273.140421 138.45243 
L 274.221816 142.1149 
L 275.303212 144.632077 
L 276.384607 145.979424 
L 277.466002 146.541082 
L 278.547398 146.723426 
L 281.791584 146.78 
L 314.038095 146.78 
L 314.038095 146.78 
" style="fill:none;stroke:#cccccc;stroke-linecap:square;stroke-width:1.75;"/>
   </g>
   <g id="line2d_11">
    <path clip-path="url(#pbeb1da8e73)" d="M 0.628793 146.78 
L 41.721816 146.703639 
L 43.884607 146.335033 
L 48.210188 145.000422 
L 50.372979 144.818337 
L 57.942747 144.795549 
L 87.140421 144.871909 
L 89.303212 145.240516 
L 93.628793 146.575126 
L 95.791584 146.757211 
L 103.361351 146.78 
L 132.559026 146.721015 
L 134.721816 146.436286 
L 139.047398 145.405368 
L 141.210188 145.264716 
L 150.942747 145.247113 
L 177.97763 145.306098 
L 180.140421 145.590828 
L 184.466002 146.621746 
L 186.628793 146.762397 
L 196.361351 146.78 
L 223.396235 146.723017 
L 225.559026 146.447949 
L 229.884607 145.452013 
L 232.047398 145.316134 
L 241.779956 145.299128 
L 268.81484 145.356112 
L 270.97763 145.63118 
L 275.303212 146.627116 
L 277.466002 146.762994 
L 287.198561 146.78 
L 314.038095 146.78 
L 314.038095 146.78 
" style="fill:none;stroke:#cccccc;stroke-linecap:square;stroke-width:1.75;"/>
   </g>
   <g id="line2d_12">
    <path clip-path="url(#pbeb1da8e73)" d="M 0.628793 146.78 
L 40.640421 146.73702 
L 41.721816 146.635981 
L 42.803212 146.393602 
L 43.884607 145.940777 
L 48.210188 143.42366 
L 49.291584 143.181281 
L 51.454374 143.047439 
L 66.593909 143.037262 
L 86.059026 143.080242 
L 87.140421 143.181281 
L 88.221816 143.42366 
L 89.303212 143.876485 
L 93.628793 146.393602 
L 94.710188 146.635981 
L 96.872979 146.769823 
L 112.012514 146.78 
L 131.47763 146.742273 
L 132.559026 146.653581 
L 133.640421 146.440822 
L 134.721816 146.043336 
L 139.047398 143.833829 
L 140.128793 143.62107 
L 142.291584 143.503585 
L 159.593909 143.494651 
L 176.896235 143.532378 
L 177.97763 143.62107 
L 179.059026 143.833829 
L 180.140421 144.231315 
L 184.466002 146.440822 
L 185.547398 146.653581 
L 187.710188 146.771066 
L 205.012514 146.78 
L 222.31484 146.743425 
L 223.396235 146.657442 
L 224.47763 146.451179 
L 225.559026 146.06583 
L 229.884607 143.92379 
L 230.966002 143.717528 
L 233.128793 143.60363 
L 250.431119 143.59497 
L 267.733444 143.631545 
L 268.81484 143.717528 
L 269.896235 143.92379 
L 270.97763 144.309139 
L 275.303212 146.451179 
L 276.384607 146.657442 
L 278.547398 146.771339 
L 295.849723 146.78 
L 314.038095 146.78 
L 314.038095 146.78 
" style="fill:none;stroke:#cccccc;stroke-linecap:square;stroke-width:1.75;"/>
   </g>
   <g id="line2d_13">
    <path clip-path="url(#pbeb1da8e73)" d="M 0.628793 146.78 
L 39.559026 146.751178 
L 40.640421 146.658281 
L 41.721816 146.372138 
L 42.803212 145.685717 
L 43.884607 144.403313 
L 44.966002 142.537427 
L 46.047398 140.423101 
L 47.128793 138.557215 
L 48.210188 137.274811 
L 49.291584 136.58839 
L 50.372979 136.302247 
L 52.53577 136.185862 
L 79.570654 136.180528 
L 84.97763 136.20935 
L 86.059026 136.302247 
L 87.140421 136.58839 
L 88.221816 137.274811 
L 89.303212 138.557215 
L 90.384607 140.423101 
L 91.466002 142.537427 
L 92.547398 144.403313 
L 93.628793 145.685717 
L 94.710188 146.372138 
L 95.791584 146.658281 
L 97.954374 146.774666 
L 124.989258 146.78 
L 130.396235 146.75247 
L 131.47763 146.663739 
L 132.559026 146.390429 
L 133.640421 145.73479 
L 134.721816 144.509897 
L 135.803212 142.727688 
L 136.884607 140.70818 
L 137.966002 138.925971 
L 139.047398 137.701078 
L 140.128793 137.04544 
L 141.210188 136.772129 
L 143.372979 136.660963 
L 171.489258 136.655868 
L 175.81484 136.683398 
L 176.896235 136.772129 
L 177.97763 137.04544 
L 179.059026 137.701078 
L 180.140421 138.925971 
L 181.221816 140.70818 
L 182.303212 142.727688 
L 183.384607 144.509897 
L 184.466002 145.73479 
L 185.547398 146.390429 
L 186.628793 146.663739 
L 188.791584 146.774905 
L 216.907863 146.78 
L 221.233444 146.753211 
L 222.31484 146.666867 
L 223.396235 146.400908 
L 224.47763 145.762906 
L 225.559026 144.570962 
L 226.640421 142.836694 
L 227.721816 140.871511 
L 228.803212 139.137243 
L 229.884607 137.945299 
L 230.966002 137.307297 
L 232.047398 137.041339 
L 234.210188 136.933163 
L 263.407863 136.928205 
L 267.733444 137.041339 
L 268.81484 137.307297 
L 269.896235 137.945299 
L 270.97763 139.137243 
L 272.059026 140.871511 
L 273.140421 142.836694 
L 274.221816 144.570962 
L 275.303212 145.762906 
L 276.384607 146.400908 
L 277.466002 146.666867 
L 279.628793 146.775042 
L 308.826468 146.78 
L 314.038095 146.78 
L 314.038095 146.78 
" style="fill:none;stroke:#cccccc;stroke-linecap:square;stroke-width:1.75;"/>
   </g>
   <g id="line2d_14">
    <path clip-path="url(#pbeb1da8e73)" d="M 0.628793 146.78 
L 39.559026 146.746894 
L 40.640421 146.64019 
L 41.721816 146.311519 
L 42.803212 145.523077 
L 43.884607 144.050075 
L 44.966002 141.90687 
L 46.047398 139.4783 
L 47.128793 137.335094 
L 48.210188 135.862092 
L 49.291584 135.073651 
L 50.372979 134.744979 
L 52.53577 134.611296 
L 76.326468 134.605169 
L 84.97763 134.638275 
L 86.059026 134.744979 
L 87.140421 135.073651 
L 88.221816 135.862092 
L 89.303212 137.335094 
L 90.384607 139.4783 
L 91.466002 141.90687 
L 92.547398 144.050075 
L 93.628793 145.523077 
L 94.710188 146.311519 
L 95.791584 146.64019 
L 97.954374 146.773873 
L 121.745072 146.78 
L 130.396235 146.748195 
L 131.47763 146.645684 
L 132.559026 146.329927 
L 133.640421 145.572466 
L 134.721816 144.157344 
L 135.803212 142.098353 
L 136.884607 139.76521 
L 137.966002 137.706219 
L 139.047398 136.291096 
L 140.128793 135.533635 
L 141.210188 135.217879 
L 143.372979 135.089449 
L 167.163677 135.083562 
L 175.81484 135.115368 
L 176.896235 135.217879 
L 177.97763 135.533635 
L 179.059026 136.291096 
L 180.140421 137.706219 
L 181.221816 139.76521 
L 182.303212 142.098353 
L 183.384607 144.157344 
L 184.466002 145.572466 
L 185.547398 146.329927 
L 186.628793 146.645684 
L 188.791584 146.774114 
L 212.582281 146.78 
L 221.233444 146.749033 
L 222.31484 146.649222 
L 223.396235 146.341785 
L 224.47763 145.604281 
L 225.559026 144.226443 
L 226.640421 142.2217 
L 227.721816 139.950028 
L 228.803212 137.945285 
L 229.884607 136.567446 
L 230.966002 135.829942 
L 232.047398 135.522505 
L 234.210188 135.397459 
L 259.082281 135.391728 
L 266.652049 135.422695 
L 267.733444 135.522505 
L 268.81484 135.829942 
L 269.896235 136.567446 
L 270.97763 137.945285 
L 272.059026 139.950028 
L 273.140421 142.2217 
L 274.221816 144.226443 
L 275.303212 145.604281 
L 276.384607 146.341785 
L 277.466002 146.649222 
L 279.628793 146.774269 
L 304.500886 146.78 
L 314.038095 146.78 
L 314.038095 146.78 
" style="fill:none;stroke:#cccccc;stroke-linecap:square;stroke-width:1.75;"/>
   </g>
   <g id="line2d_15">
    <path clip-path="url(#pbeb1da8e73)" d="M 0.628793 146.78 
L 41.721816 146.732459 
L 43.884607 146.502971 
L 48.210188 145.672066 
L 50.372979 145.558704 
L 62.268328 145.544516 
L 87.140421 145.592057 
L 89.303212 145.821545 
L 93.628793 146.652449 
L 95.791584 146.765812 
L 107.686933 146.78 
L 133.640421 146.698797 
L 136.884607 146.308275 
L 139.047398 146.074651 
L 142.291584 145.995587 
L 177.97763 146.023714 
L 180.140421 146.169814 
L 184.466002 146.698797 
L 187.710188 146.777861 
L 223.396235 146.750924 
L 225.559026 146.610567 
L 230.966002 146.053446 
L 237.454374 146.02437 
L 269.896235 146.102381 
L 273.140421 146.47755 
L 275.303212 146.701989 
L 278.547398 146.777945 
L 314.038095 146.78 
L 314.038095 146.78 
" style="fill:none;stroke:#cccccc;stroke-linecap:square;stroke-width:1.75;"/>
   </g>
   <g id="line2d_16">
    <path clip-path="url(#pbeb1da8e73)" d="M 0.628793 146.78 
L 42.803212 146.673987 
L 44.966002 146.368983 
L 48.210188 145.859145 
L 51.454374 145.755924 
L 86.059026 145.764924 
L 88.221816 145.859145 
L 90.384607 146.164149 
L 93.628793 146.673987 
L 96.872979 146.777208 
L 132.559026 146.757732 
L 135.803212 146.548374 
L 139.047398 146.261058 
L 143.372979 146.201606 
L 179.059026 146.261058 
L 187.710188 146.778426 
L 224.47763 146.722837 
L 234.210188 146.226585 
L 269.896235 146.283469 
L 279.628793 146.779721 
L 314.038095 146.78 
L 314.038095 146.78 
" style="fill:none;stroke:#cccccc;stroke-linecap:square;stroke-width:1.75;"/>
   </g>
   <g id="line2d_17">
    <path clip-path="url(#pbeb1da8e73)" d="M 0.628793 146.78 
L 41.721816 146.722919 
L 43.884607 146.447378 
L 48.210188 145.449729 
L 50.372979 145.313617 
L 60.105537 145.296582 
L 87.140421 145.353663 
L 89.303212 145.629204 
L 93.628793 146.626853 
L 95.791584 146.762965 
L 105.524142 146.78 
L 133.640421 146.673291 
L 135.803212 146.366287 
L 139.047398 145.853104 
L 142.291584 145.749206 
L 176.896235 145.758265 
L 179.059026 145.853104 
L 181.221816 146.160109 
L 184.466002 146.673291 
L 187.710188 146.777189 
L 223.396235 146.741687 
L 225.559026 146.556745 
L 229.884607 145.887127 
L 233.128793 145.787042 
L 268.81484 145.822647 
L 270.97763 146.00759 
L 275.303212 146.677208 
L 278.547398 146.777293 
L 314.038095 146.78 
L 314.038095 146.78 
" style="fill:none;stroke:#cccccc;stroke-linecap:square;stroke-width:1.75;"/>
   </g>
   <g id="line2d_18">
    <path clip-path="url(#pbeb1da8e73)" d="M 0.628793 146.78 
L 40.640421 146.730918 
L 41.721816 146.615534 
L 42.803212 146.338743 
L 43.884607 145.82163 
L 48.210188 142.947147 
L 49.291584 142.670356 
L 51.454374 142.517513 
L 64.431119 142.505891 
L 86.059026 142.554972 
L 87.140421 142.670356 
L 88.221816 142.947147 
L 89.303212 143.464261 
L 93.628793 146.338743 
L 94.710188 146.615534 
L 96.872979 146.768378 
L 109.849723 146.78 
L 131.47763 146.73619 
L 132.559026 146.633199 
L 133.640421 146.386136 
L 134.721816 145.924561 
L 139.047398 143.358806 
L 140.128793 143.111743 
L 142.291584 142.975316 
L 157.431119 142.964942 
L 176.896235 143.008752 
L 177.97763 143.111743 
L 179.059026 143.358806 
L 180.140421 143.820381 
L 184.466002 146.386136 
L 185.547398 146.633199 
L 187.710188 146.769626 
L 202.849723 146.78 
L 222.31484 146.737505 
L 223.396235 146.637608 
L 224.47763 146.397965 
L 225.559026 145.950253 
L 229.884607 143.461558 
L 230.966002 143.221915 
L 233.128793 143.089585 
L 248.268328 143.079522 
L 267.733444 143.122017 
L 268.81484 143.221915 
L 269.896235 143.461558 
L 270.97763 143.909269 
L 275.303212 146.397965 
L 276.384607 146.637608 
L 278.547398 146.769938 
L 293.686933 146.78 
L 314.038095 146.78 
L 314.038095 146.78 
" style="fill:none;stroke:#cccccc;stroke-linecap:square;stroke-width:1.75;"/>
   </g>
   <g id="line2d_19">
    <path clip-path="url(#pbeb1da8e73)" d="M 0.628793 146.78 
L 41.721816 146.712308 
L 43.884607 146.385545 
L 48.210188 145.20244 
L 50.372979 145.041025 
L 59.024142 145.020824 
L 87.140421 145.088516 
L 89.303212 145.415278 
L 93.628793 146.598384 
L 95.791584 146.759798 
L 104.442747 146.78 
L 132.559026 146.729654 
L 134.721816 146.486623 
L 139.047398 145.606684 
L 141.210188 145.486631 
L 153.105537 145.471606 
L 177.97763 145.521952 
L 180.140421 145.764983 
L 184.466002 146.644922 
L 186.628793 146.764975 
L 198.524142 146.78 
L 223.396235 146.731412 
L 225.559026 146.496871 
L 229.884607 145.647669 
L 232.047398 145.531809 
L 243.942747 145.517309 
L 268.81484 145.565897 
L 270.97763 145.800438 
L 275.303212 146.649641 
L 277.466002 146.7655 
L 289.361351 146.78 
L 314.038095 146.78 
L 314.038095 146.78 
" style="fill:none;stroke:#cccccc;stroke-linecap:square;stroke-width:1.75;"/>
   </g>
   <g id="line2d_20">
    <path clip-path="url(#pbeb1da8e73)" d="M 0.628793 146.78 
L 41.721816 146.700174 
L 42.803212 146.565828 
L 43.884607 146.314838 
L 48.210188 144.919658 
L 50.372979 144.729309 
L 57.942747 144.705486 
L 87.140421 144.785313 
L 88.221816 144.919658 
L 89.303212 145.170648 
L 93.628793 146.565828 
L 95.791584 146.756177 
L 103.361351 146.78 
L 132.559026 146.717562 
L 134.721816 146.416161 
L 139.047398 145.324882 
L 141.210188 145.175995 
L 150.942747 145.157361 
L 177.97763 145.2198 
L 180.140421 145.521201 
L 184.466002 146.61248 
L 186.628793 146.761366 
L 196.361351 146.78 
L 223.396235 146.71966 
L 225.559026 146.428388 
L 229.884607 145.373783 
L 232.047398 145.2299 
L 241.779956 145.211892 
L 268.81484 145.272232 
L 270.97763 145.563504 
L 275.303212 146.618109 
L 277.466002 146.761993 
L 287.198561 146.78 
L 314.038095 146.78 
L 314.038095 146.78 
" style="fill:none;stroke:#cccccc;stroke-linecap:square;stroke-width:1.75;"/>
   </g>
   <g id="line2d_21">
    <path clip-path="url(#pbeb1da8e73)" d="M 0.628793 146.78 
L 39.559026 146.742688 
L 40.640421 146.62243 
L 41.721816 146.252009 
L 42.803212 145.363415 
L 43.884607 143.703302 
L 44.966002 141.287852 
L 46.047398 138.550788 
L 47.128793 136.135338 
L 48.210188 134.475226 
L 49.291584 133.586631 
L 50.372979 133.21621 
L 52.53577 133.065546 
L 73.082281 133.05864 
L 84.97763 133.095952 
L 86.059026 133.21621 
L 87.140421 133.586631 
L 88.221816 134.475226 
L 89.303212 136.135338 
L 90.384607 138.550788 
L 91.466002 141.287852 
L 92.547398 143.703302 
L 93.628793 145.363415 
L 94.710188 146.252009 
L 95.791584 146.62243 
L 97.954374 146.773095 
L 118.500886 146.78 
L 130.396235 146.743996 
L 131.47763 146.627954 
L 132.559026 146.270518 
L 133.640421 145.413073 
L 134.721816 143.811155 
L 135.803212 141.480378 
L 136.884607 138.839262 
L 137.966002 136.508485 
L 139.047398 134.906567 
L 140.128793 134.049122 
L 141.210188 133.691686 
L 143.372979 133.546304 
L 165.000886 133.53964 
L 175.81484 133.575644 
L 176.896235 133.691686 
L 177.97763 134.049122 
L 179.059026 134.906567 
L 180.140421 136.508485 
L 181.221816 138.839262 
L 182.303212 141.480378 
L 183.384607 143.811155 
L 184.466002 145.413073 
L 185.547398 146.270518 
L 186.628793 146.627954 
L 188.791584 146.773337 
L 210.419491 146.78 
L 221.233444 146.744926 
L 222.31484 146.631881 
L 223.396235 146.283677 
L 224.47763 145.44838 
L 225.559026 143.887838 
L 226.640421 141.617264 
L 227.721816 139.044366 
L 228.803212 136.773791 
L 229.884607 135.21325 
L 230.966002 134.377952 
L 232.047398 134.029748 
L 234.210188 133.888121 
L 255.838095 133.88163 
L 266.652049 133.916703 
L 267.733444 134.029748 
L 268.81484 134.377952 
L 269.896235 135.21325 
L 270.97763 136.773791 
L 272.059026 139.044366 
L 273.140421 141.617264 
L 274.221816 143.887838 
L 275.303212 145.44838 
L 276.384607 146.283677 
L 277.466002 146.631881 
L 279.628793 146.773509 
L 301.2567 146.78 
L 314.038095 146.78 
L 314.038095 146.78 
" style="fill:none;stroke:#cccccc;stroke-linecap:square;stroke-width:1.75;"/>
   </g>
   <g id="line2d_22">
    <path clip-path="url(#pbeb1da8e73)" d="M 0.628793 146.78 
L 39.559026 146.729645 
L 40.640421 146.567346 
L 41.721816 146.067431 
L 42.803212 144.868196 
L 43.884607 142.627731 
L 44.966002 139.367873 
L 46.047398 135.67397 
L 47.128793 132.414112 
L 48.210188 130.173647 
L 49.291584 128.974412 
L 50.372979 128.474497 
L 51.454374 128.312198 
L 54.698561 128.261843 
L 84.97763 128.312198 
L 86.059026 128.474497 
L 87.140421 128.974412 
L 88.221816 130.173647 
L 89.303212 132.414112 
L 90.384607 135.67397 
L 91.466002 139.367873 
L 92.547398 142.627731 
L 93.628793 144.868196 
L 94.710188 146.067431 
L 95.791584 146.567346 
L 96.872979 146.729645 
L 100.117165 146.78 
L 130.396235 146.730968 
L 131.47763 146.572934 
L 132.559026 146.086156 
L 133.640421 144.918435 
L 134.721816 142.736846 
L 135.803212 139.562651 
L 136.884607 135.965818 
L 137.966002 132.791624 
L 139.047398 130.610034 
L 140.128793 129.442314 
L 141.210188 128.955535 
L 142.291584 128.797501 
L 146.617165 128.748469 
L 175.81484 128.797501 
L 176.896235 128.955535 
L 177.97763 129.442314 
L 179.059026 130.610034 
L 180.140421 132.791624 
L 181.221816 135.965818 
L 182.303212 139.562651 
L 183.384607 142.736846 
L 184.466002 144.918435 
L 185.547398 146.086156 
L 186.628793 146.572934 
L 187.710188 146.730968 
L 192.03577 146.78 
L 221.233444 146.73216 
L 222.31484 146.577968 
L 223.396235 146.103024 
L 224.47763 144.963692 
L 225.559026 142.83514 
L 226.640421 139.738115 
L 227.721816 136.228726 
L 228.803212 133.131701 
L 229.884607 131.003148 
L 230.966002 129.863817 
L 232.047398 129.388872 
L 233.128793 129.234681 
L 237.454374 129.186841 
L 266.652049 129.234681 
L 267.733444 129.388872 
L 268.81484 129.863817 
L 269.896235 131.003148 
L 270.97763 133.131701 
L 272.059026 136.228726 
L 273.140421 139.738115 
L 274.221816 142.83514 
L 275.303212 144.963692 
L 276.384607 146.103024 
L 277.466002 146.577968 
L 278.547398 146.73216 
L 282.872979 146.78 
L 314.038095 146.78 
L 314.038095 146.78 
" style="fill:none;stroke:#cccccc;stroke-linecap:square;stroke-width:1.75;"/>
   </g>
   <g id="line2d_23">
    <path clip-path="url(#pbeb1da8e73)" d="M 0.628793 146.78 
L 41.721816 146.678562 
L 42.803212 146.507846 
L 43.884607 146.188905 
L 48.210188 144.416007 
L 50.372979 144.174125 
L 56.861351 144.143853 
L 87.140421 144.24529 
L 88.221816 144.416007 
L 89.303212 144.734948 
L 93.628793 146.507846 
L 95.791584 146.749728 
L 102.279956 146.78 
L 132.559026 146.696024 
L 133.640421 146.554694 
L 134.721816 146.290655 
L 139.047398 144.82294 
L 141.210188 144.622695 
L 148.779956 144.597634 
L 177.97763 144.68161 
L 179.059026 144.82294 
L 180.140421 145.086979 
L 184.466002 146.554694 
L 186.628793 146.754939 
L 194.198561 146.78 
L 223.396235 146.698722 
L 224.47763 146.561933 
L 225.559026 146.306377 
L 229.884607 144.885819 
L 232.047398 144.692008 
L 239.617165 144.667751 
L 268.81484 144.74903 
L 269.896235 144.885819 
L 270.97763 145.141374 
L 275.303212 146.561933 
L 277.466002 146.755744 
L 285.03577 146.78 
L 314.038095 146.78 
L 314.038095 146.78 
" style="fill:none;stroke:#cccccc;stroke-linecap:square;stroke-width:1.75;"/>
   </g>
   <g id="line2d_24">
    <path clip-path="url(#pbeb1da8e73)" d="M 0.628793 146.78 
L 41.721816 146.680257 
L 42.803212 146.512393 
L 43.884607 146.198781 
L 48.210188 144.455504 
L 50.372979 144.217663 
L 56.861351 144.187897 
L 87.140421 144.287639 
L 88.221816 144.455504 
L 89.303212 144.769116 
L 93.628793 146.512393 
L 95.791584 146.750233 
L 102.279956 146.78 
L 132.559026 146.697713 
L 133.640421 146.559226 
L 134.721816 146.300498 
L 139.047398 144.862305 
L 141.210188 144.666087 
L 148.779956 144.64153 
L 177.97763 144.723818 
L 179.059026 144.862305 
L 180.140421 145.121033 
L 184.466002 146.559226 
L 186.628793 146.755443 
L 194.198561 146.78 
L 223.396235 146.700364 
L 224.47763 146.566339 
L 226.640421 145.951629 
L 228.803212 145.174485 
L 229.884607 144.924093 
L 232.047398 144.734198 
L 239.617165 144.710432 
L 268.81484 144.790068 
L 269.896235 144.924093 
L 272.059026 145.538803 
L 274.221816 146.315947 
L 275.303212 146.566339 
L 277.466002 146.756234 
L 285.03577 146.78 
L 314.038095 146.78 
L 314.038095 146.78 
" style="fill:none;stroke:#cccccc;stroke-linecap:square;stroke-width:1.75;"/>
   </g>
   <g id="line2d_25">
    <path clip-path="url(#pbeb1da8e73)" d="M 0.628793 146.78 
L 39.559026 146.714728 
L 40.640421 146.504352 
L 41.721816 145.856349 
L 42.803212 144.301869 
L 43.884607 141.397719 
L 44.966002 137.172204 
L 46.047398 132.38407 
L 47.128793 128.158556 
L 48.210188 125.254405 
L 49.291584 123.699925 
L 50.372979 123.051922 
L 51.454374 122.841546 
L 54.698561 122.776274 
L 84.97763 122.841546 
L 86.059026 123.051922 
L 87.140421 123.699925 
L 88.221816 125.254405 
L 89.303212 128.158556 
L 90.384607 132.38407 
L 91.466002 137.172204 
L 92.547398 141.397719 
L 93.628793 144.301869 
L 94.710188 145.856349 
L 95.791584 146.504352 
L 96.872979 146.714728 
L 100.117165 146.78 
L 130.396235 146.716057 
L 131.47763 146.509962 
L 132.559026 145.875146 
L 133.640421 144.352301 
L 134.721816 141.507253 
L 135.803212 137.367733 
L 136.884607 132.677041 
L 137.966002 128.53752 
L 139.047398 125.692472 
L 140.128793 124.169628 
L 141.210188 123.534812 
L 142.291584 123.328717 
L 145.53577 123.264774 
L 175.81484 123.328717 
L 176.896235 123.534812 
L 177.97763 124.169628 
L 179.059026 125.692472 
L 180.140421 128.53752 
L 181.221816 132.677041 
L 182.303212 137.367733 
L 183.384607 141.507253 
L 184.466002 144.352301 
L 185.547398 145.875146 
L 186.628793 146.509962 
L 187.710188 146.716057 
L 190.954374 146.78 
L 221.233444 146.717505 
L 222.31484 146.516079 
L 223.396235 145.895644 
L 224.47763 144.407297 
L 225.559026 141.626698 
L 226.640421 137.580951 
L 227.721816 132.99652 
L 228.803212 128.950773 
L 229.884607 126.170174 
L 230.966002 124.681827 
L 232.047398 124.061392 
L 233.128793 123.859966 
L 236.372979 123.797471 
L 266.652049 123.859966 
L 267.733444 124.061392 
L 268.81484 124.681827 
L 269.896235 126.170174 
L 270.97763 128.950773 
L 272.059026 132.99652 
L 273.140421 137.580951 
L 274.221816 141.626698 
L 275.303212 144.407297 
L 276.384607 145.895644 
L 277.466002 146.516079 
L 278.547398 146.717505 
L 281.791584 146.78 
L 314.038095 146.78 
L 314.038095 146.78 
" style="fill:none;stroke:#cccccc;stroke-linecap:square;stroke-width:1.75;"/>
   </g>
   <g id="line2d_26">
    <path clip-path="url(#pbeb1da8e73)" d="M 0.628793 146.78 
L 38.47763 146.745606 
L 39.559026 146.594164 
L 40.640421 145.995197 
L 41.721816 144.15025 
L 42.803212 139.724453 
L 43.884607 131.455975 
L 44.966002 119.425411 
L 46.047398 105.792996 
L 47.128793 93.762432 
L 48.210188 85.493954 
L 49.291584 81.068157 
L 50.372979 79.22321 
L 51.454374 78.624244 
L 52.53577 78.472801 
L 56.861351 78.438407 
L 83.896235 78.472801 
L 84.97763 78.624244 
L 86.059026 79.22321 
L 87.140421 81.068157 
L 88.221816 85.493954 
L 89.303212 93.762432 
L 90.384607 105.792996 
L 91.466002 119.425411 
L 92.547398 131.455975 
L 93.628793 139.724453 
L 94.710188 144.15025 
L 95.791584 145.995197 
L 96.872979 146.594164 
L 97.954374 146.745606 
L 102.279956 146.78 
L 129.31484 146.745769 
L 130.396235 146.595045 
L 131.47763 145.99892 
L 132.559026 144.162724 
L 133.640421 139.75792 
L 134.721816 131.528663 
L 135.803212 119.555164 
L 136.884607 105.987412 
L 137.966002 94.013913 
L 139.047398 85.784656 
L 140.128793 81.379852 
L 141.210188 79.543656 
L 142.291584 78.947531 
L 143.372979 78.796807 
L 147.698561 78.762576 
L 174.733444 78.796807 
L 175.81484 78.947531 
L 176.896235 79.543656 
L 177.97763 81.379852 
L 179.059026 85.784656 
L 180.140421 94.013913 
L 181.221816 105.987412 
L 182.303212 119.555164 
L 183.384607 131.528663 
L 184.466002 139.75792 
L 185.547398 144.162724 
L 186.628793 145.99892 
L 187.710188 146.595045 
L 188.791584 146.745769 
L 193.117165 146.78 
L 220.152049 146.7461 
L 221.233444 146.596831 
L 222.31484 146.006463 
L 223.396235 144.188 
L 224.47763 139.825735 
L 225.559026 131.675951 
L 226.640421 119.818084 
L 227.721816 106.381361 
L 228.803212 94.523495 
L 229.884607 86.373711 
L 230.966002 82.011445 
L 232.047398 80.192983 
L 233.128793 79.602614 
L 234.210188 79.453346 
L 238.53577 79.419446 
L 265.570654 79.453346 
L 266.652049 79.602614 
L 267.733444 80.192983 
L 268.81484 82.011445 
L 269.896235 86.373711 
L 270.97763 94.523495 
L 272.059026 106.381361 
L 273.140421 119.818084 
L 274.221816 131.675951 
L 275.303212 139.825735 
L 276.384607 144.188 
L 277.466002 146.006463 
L 278.547398 146.596831 
L 279.628793 146.7461 
L 283.954374 146.78 
L 314.038095 146.78 
L 314.038095 146.78 
" style="fill:none;stroke:#cccccc;stroke-linecap:square;stroke-width:1.75;"/>
   </g>
   <g id="line2d_27">
    <path clip-path="url(#pbeb1da8e73)" d="M 0.628793 146.78 
L 41.721816 146.736385 
L 43.884607 146.525845 
L 48.210188 145.763549 
L 51.454374 145.649612 
L 86.059026 145.659546 
L 88.221816 145.763549 
L 90.384607 146.100216 
L 92.547398 146.525845 
L 94.710188 146.736385 
L 100.117165 146.78 
L 133.640421 146.709291 
L 136.884607 146.369238 
L 139.047398 146.165805 
L 143.372979 146.095441 
L 179.059026 146.165805 
L 182.303212 146.505859 
L 184.466002 146.709291 
L 188.791584 146.779655 
L 224.47763 146.712184 
L 227.721816 146.386046 
L 230.966002 146.148398 
L 238.53577 146.123122 
L 269.896235 146.190937 
L 273.140421 146.517076 
L 276.384607 146.754724 
L 283.954374 146.78 
L 314.038095 146.78 
L 314.038095 146.78 
" style="fill:none;stroke:#cccccc;stroke-linecap:square;stroke-width:1.75;"/>
   </g>
   <g id="line2d_28">
    <path clip-path="url(#pbeb1da8e73)" d="M 0.628793 146.78 
L 39.559026 146.728269 
L 40.640421 146.561537 
L 41.721816 146.047964 
L 42.803212 144.815967 
L 43.884607 142.514295 
L 44.966002 139.16538 
L 46.047398 135.370563 
L 47.128793 132.021649 
L 48.210188 129.719976 
L 49.291584 128.48798 
L 50.372979 127.974407 
L 51.454374 127.807674 
L 54.698561 127.755944 
L 84.97763 127.807674 
L 86.059026 127.974407 
L 87.140421 128.48798 
L 88.221816 129.719976 
L 89.303212 132.021649 
L 90.384607 135.370563 
L 91.466002 139.16538 
L 92.547398 142.514295 
L 93.628793 144.815967 
L 94.710188 146.047964 
L 95.791584 146.561537 
L 96.872979 146.728269 
L 100.117165 146.78 
L 130.396235 146.729594 
L 131.47763 146.567129 
L 132.559026 146.066704 
L 133.640421 144.866245 
L 134.721816 142.623494 
L 135.803212 139.36031 
L 136.884607 135.662637 
L 137.966002 132.399453 
L 139.047398 130.156702 
L 140.128793 128.956243 
L 141.210188 128.455818 
L 142.291584 128.293354 
L 145.53577 128.242947 
L 175.81484 128.293354 
L 176.896235 128.455818 
L 177.97763 128.956243 
L 179.059026 130.156702 
L 180.140421 132.399453 
L 181.221816 135.662637 
L 182.303212 139.36031 
L 183.384607 142.623494 
L 184.466002 144.866245 
L 185.547398 146.066704 
L 186.628793 146.567129 
L 187.710188 146.729594 
L 190.954374 146.78 
L 221.233444 146.730811 
L 222.31484 146.572271 
L 223.396235 146.083934 
L 224.47763 144.912474 
L 225.559026 142.723899 
L 226.640421 139.53954 
L 227.721816 135.931189 
L 228.803212 132.746831 
L 229.884607 130.558255 
L 230.966002 129.386795 
L 232.047398 128.898458 
L 233.128793 128.739918 
L 237.454374 128.690729 
L 266.652049 128.739918 
L 267.733444 128.898458 
L 268.81484 129.386795 
L 269.896235 130.558255 
L 270.97763 132.746831 
L 272.059026 135.931189 
L 273.140421 139.53954 
L 274.221816 142.723899 
L 275.303212 144.912474 
L 276.384607 146.083934 
L 277.466002 146.572271 
L 278.547398 146.730811 
L 282.872979 146.78 
L 314.038095 146.78 
L 314.038095 146.78 
" style="fill:none;stroke:#cccccc;stroke-linecap:square;stroke-width:1.75;"/>
   </g>
   <g id="line2d_29">
    <path clip-path="url(#pbeb1da8e73)" d="M 0.628793 146.78 
L 40.640421 146.724389 
L 41.721816 146.593656 
L 42.803212 146.280043 
L 43.884607 145.694138 
L 47.128793 143.023169 
L 48.210188 142.437263 
L 49.291584 142.123651 
L 51.454374 141.950475 
L 63.349723 141.937306 
L 86.059026 141.992918 
L 87.140421 142.123651 
L 88.221816 142.437263 
L 89.303212 143.023169 
L 92.547398 145.694138 
L 93.628793 146.280043 
L 94.710188 146.593656 
L 96.872979 146.766832 
L 108.768328 146.78 
L 131.47763 146.72968 
L 132.559026 146.611386 
L 133.640421 146.327614 
L 134.721816 145.797457 
L 137.966002 143.380629 
L 139.047398 142.850472 
L 140.128793 142.5667 
L 142.291584 142.410001 
L 155.268328 142.398086 
L 176.896235 142.448406 
L 177.97763 142.5667 
L 179.059026 142.850472 
L 180.140421 143.380629 
L 183.384607 145.797457 
L 184.466002 146.327614 
L 185.547398 146.611386 
L 187.710188 146.768085 
L 200.686933 146.78 
L 222.31484 146.731169 
L 223.396235 146.616376 
L 224.47763 146.341001 
L 225.559026 145.826532 
L 229.884607 142.966754 
L 230.966002 142.691379 
L 233.128793 142.539317 
L 247.186933 142.527754 
L 267.733444 142.576585 
L 268.81484 142.691379 
L 269.896235 142.966754 
L 270.97763 143.481222 
L 275.303212 146.341001 
L 276.384607 146.616376 
L 278.547398 146.768437 
L 292.605537 146.78 
L 314.038095 146.78 
L 314.038095 146.78 
" style="fill:none;stroke:#cccccc;stroke-linecap:square;stroke-width:1.75;"/>
   </g>
   <g id="line2d_30">
    <path clip-path="url(#pbeb1da8e73)" d="M 0.628793 146.78 
L 41.721816 146.673684 
L 42.803212 146.494758 
L 43.884607 146.16048 
L 48.210188 144.302326 
L 50.372979 144.048812 
L 55.779956 144.017084 
L 87.140421 144.1234 
L 88.221816 144.302326 
L 89.303212 144.636604 
L 93.628793 146.494758 
L 95.791584 146.748272 
L 101.198561 146.78 
L 132.559026 146.691162 
L 133.640421 146.54165 
L 134.721816 146.262325 
L 139.047398 144.709639 
L 141.210188 144.497801 
L 147.698561 144.471289 
L 177.97763 144.560127 
L 179.059026 144.709639 
L 180.140421 144.988964 
L 184.466002 146.54165 
L 186.628793 146.753488 
L 193.117165 146.78 
L 223.396235 146.693995 
L 224.47763 146.54925 
L 225.559026 146.278831 
L 229.884607 144.775651 
L 232.047398 144.570567 
L 238.53577 144.544901 
L 268.81484 144.630906 
L 269.896235 144.775651 
L 270.97763 145.04607 
L 275.303212 146.54925 
L 277.466002 146.754333 
L 283.954374 146.78 
L 314.038095 146.78 
L 314.038095 146.78 
" style="fill:none;stroke:#cccccc;stroke-linecap:square;stroke-width:1.75;"/>
   </g>
   <g id="line2d_31">
    <path clip-path="url(#pbeb1da8e73)" d="M 0.628793 146.78 
L 40.640421 146.685519 
L 41.721816 146.46341 
L 42.803212 145.930597 
L 43.884607 144.935172 
L 44.966002 143.486836 
L 47.128793 140.397322 
L 48.210188 139.401897 
L 49.291584 138.869084 
L 50.372979 138.646975 
L 52.53577 138.556635 
L 83.896235 138.556635 
L 86.059026 138.646975 
L 87.140421 138.869084 
L 88.221816 139.401897 
L 89.303212 140.397322 
L 90.384607 141.845658 
L 92.547398 144.935172 
L 93.628793 145.930597 
L 94.710188 146.46341 
L 95.791584 146.685519 
L 97.954374 146.775859 
L 129.31484 146.776096 
L 131.47763 146.690916 
L 132.559026 146.481495 
L 133.640421 145.979118 
L 134.721816 145.040556 
L 135.803212 143.674955 
L 137.966002 140.761927 
L 139.047398 139.823364 
L 140.128793 139.320988 
L 141.210188 139.111566 
L 143.372979 139.026387 
L 174.733444 139.026387 
L 176.896235 139.111566 
L 177.97763 139.320988 
L 179.059026 139.823364 
L 180.140421 140.761927 
L 181.221816 142.127527 
L 183.384607 145.040556 
L 184.466002 145.979118 
L 185.547398 146.481495 
L 186.628793 146.690916 
L 188.791584 146.776096 
L 220.152049 146.776205 
L 222.31484 146.693394 
L 223.396235 146.489798 
L 224.47763 146.001396 
L 225.559026 145.08894 
L 226.640421 143.761325 
L 228.803212 140.929325 
L 229.884607 140.01687 
L 230.966002 139.528467 
L 232.047398 139.324871 
L 234.210188 139.242061 
L 265.570654 139.242061 
L 267.733444 139.324871 
L 268.81484 139.528467 
L 269.896235 140.01687 
L 270.97763 140.929325 
L 272.059026 142.25694 
L 274.221816 145.08894 
L 275.303212 146.001396 
L 276.384607 146.489798 
L 277.466002 146.693394 
L 279.628793 146.776205 
L 314.038095 146.78 
L 314.038095 146.78 
" style="fill:none;stroke:#cccccc;stroke-linecap:square;stroke-width:1.75;"/>
   </g>
   <g id="line2d_32">
    <path clip-path="url(#pbeb1da8e73)" d="M 0.628793 146.78 
L 40.640421 146.743762 
L 41.721816 146.658573 
L 42.803212 146.454215 
L 43.884607 146.072424 
L 48.210188 143.950159 
L 49.291584 143.745801 
L 51.454374 143.632955 
L 69.838095 143.624374 
L 86.059026 143.660612 
L 87.140421 143.745801 
L 88.221816 143.950159 
L 89.303212 144.33195 
L 93.628793 146.454215 
L 94.710188 146.658573 
L 96.872979 146.771419 
L 115.2567 146.78 
L 132.559026 146.676101 
L 133.640421 146.50124 
L 134.721816 146.174559 
L 139.047398 144.358633 
L 141.210188 144.110881 
L 147.698561 144.079874 
L 177.97763 144.183773 
L 179.059026 144.358633 
L 180.140421 144.685315 
L 184.466002 146.50124 
L 186.628793 146.748993 
L 193.117165 146.78 
L 223.396235 146.679347 
L 224.47763 146.509952 
L 225.559026 146.193479 
L 229.884607 144.434301 
L 232.047398 144.194291 
L 238.53577 144.164253 
L 268.81484 144.264905 
L 269.896235 144.434301 
L 270.97763 144.750774 
L 275.303212 146.509952 
L 277.466002 146.749962 
L 283.954374 146.78 
L 314.038095 146.78 
L 314.038095 146.78 
" style="fill:none;stroke:#cccccc;stroke-linecap:square;stroke-width:1.75;"/>
   </g>
   <g id="line2d_33">
    <path clip-path="url(#pbeb1da8e73)" d="M 0.628793 146.78 
L 39.559026 146.752589 
L 40.640421 146.66424 
L 41.721816 146.392107 
L 42.803212 145.739294 
L 43.884607 144.519677 
L 44.966002 142.745147 
L 46.047398 140.73434 
L 47.128793 138.959809 
L 48.210188 137.740193 
L 49.291584 137.087379 
L 50.372979 136.815246 
L 52.53577 136.704559 
L 80.652049 136.699486 
L 84.97763 136.726897 
L 86.059026 136.815246 
L 87.140421 137.087379 
L 88.221816 137.740193 
L 89.303212 138.959809 
L 90.384607 140.73434 
L 91.466002 142.745147 
L 92.547398 144.519677 
L 93.628793 145.739294 
L 94.710188 146.392107 
L 95.791584 146.66424 
L 97.954374 146.774927 
L 126.070654 146.78 
L 131.47763 146.669686 
L 132.559026 146.410356 
L 133.640421 145.788255 
L 134.721816 144.626016 
L 135.803212 142.93497 
L 137.966002 139.327717 
L 139.047398 138.165479 
L 140.128793 137.543378 
L 141.210188 137.284047 
L 143.372979 137.178568 
L 172.570654 137.173733 
L 176.896235 137.284047 
L 177.97763 137.543378 
L 179.059026 138.165479 
L 180.140421 139.327717 
L 181.221816 141.018763 
L 183.384607 144.626016 
L 184.466002 145.788255 
L 185.547398 146.410356 
L 186.628793 146.669686 
L 188.791584 146.775165 
L 217.989258 146.78 
L 222.31484 146.672674 
L 223.396235 146.420369 
L 224.47763 145.815121 
L 225.559026 144.684367 
L 226.640421 143.039131 
L 228.803212 139.529597 
L 229.884607 138.398844 
L 230.966002 137.793595 
L 232.047398 137.54129 
L 234.210188 137.438668 
L 264.489258 137.43459 
L 267.733444 137.54129 
L 268.81484 137.793595 
L 269.896235 138.398844 
L 270.97763 139.529597 
L 272.059026 141.174834 
L 274.221816 144.684367 
L 275.303212 145.815121 
L 276.384607 146.420369 
L 277.466002 146.672674 
L 279.628793 146.775296 
L 309.907863 146.78 
L 314.038095 146.78 
L 314.038095 146.78 
" style="fill:none;stroke:#cccccc;stroke-linecap:square;stroke-width:1.75;"/>
   </g>
   <g id="line2d_34">
    <path clip-path="url(#pbeb1da8e73)" d="M 0.628793 146.78 
L 39.559026 146.710045 
L 40.640421 146.484576 
L 41.721816 145.79008 
L 42.803212 144.124072 
L 43.884607 141.01156 
L 44.966002 136.482881 
L 46.047398 131.351216 
L 47.128793 126.822537 
L 48.210188 123.710024 
L 49.291584 122.044016 
L 50.372979 121.349521 
L 51.454374 121.124051 
L 54.698561 121.054097 
L 84.97763 121.124051 
L 86.059026 121.349521 
L 87.140421 122.044016 
L 88.221816 123.710024 
L 89.303212 126.822537 
L 90.384607 131.351216 
L 91.466002 136.482881 
L 92.547398 141.01156 
L 93.628793 144.124072 
L 94.710188 145.79008 
L 95.791584 146.484576 
L 96.872979 146.710045 
L 100.117165 146.78 
L 130.396235 146.711373 
L 131.47763 146.490181 
L 132.559026 145.808861 
L 133.640421 144.174462 
L 134.721816 141.121001 
L 135.803212 136.678242 
L 136.884607 131.643937 
L 137.966002 127.201178 
L 139.047398 124.147717 
L 140.128793 122.513317 
L 141.210188 121.831998 
L 142.291584 121.610806 
L 145.53577 121.542179 
L 175.81484 121.610806 
L 176.896235 121.831998 
L 177.97763 122.513317 
L 179.059026 124.147717 
L 180.140421 127.201178 
L 181.221816 131.643937 
L 182.303212 136.678242 
L 183.384607 141.121001 
L 184.466002 144.174462 
L 185.547398 145.808861 
L 186.628793 146.490181 
L 187.710188 146.711373 
L 190.954374 146.78 
L 221.233444 146.712892 
L 222.31484 146.496598 
L 223.396235 145.830364 
L 224.47763 144.232151 
L 225.559026 141.246298 
L 226.640421 136.901906 
L 227.721816 131.979066 
L 228.803212 127.634675 
L 229.884607 124.648821 
L 230.966002 123.050609 
L 232.047398 122.384375 
L 233.128793 122.16808 
L 236.372979 122.100972 
L 266.652049 122.16808 
L 267.733444 122.384375 
L 268.81484 123.050609 
L 269.896235 124.648821 
L 270.97763 127.634675 
L 272.059026 131.979066 
L 273.140421 136.901906 
L 274.221816 141.246298 
L 275.303212 144.232151 
L 276.384607 145.830364 
L 277.466002 146.496598 
L 278.547398 146.712892 
L 281.791584 146.78 
L 314.038095 146.78 
L 314.038095 146.78 
" style="fill:none;stroke:#cccccc;stroke-linecap:square;stroke-width:1.75;"/>
   </g>
   <g id="line2d_35">
    <path clip-path="url(#pbeb1da8e73)" d="M 0.628793 146.78 
L 40.640421 146.7257 
L 41.721816 146.598048 
L 42.803212 146.291828 
L 43.884607 145.719734 
L 47.128793 143.111727 
L 48.210188 142.539633 
L 49.291584 142.233413 
L 51.454374 142.064319 
L 63.349723 142.051461 
L 86.059026 142.105761 
L 87.140421 142.233413 
L 88.221816 142.539633 
L 89.303212 143.111727 
L 92.547398 145.719734 
L 93.628793 146.291828 
L 94.710188 146.598048 
L 96.872979 146.767142 
L 108.768328 146.78 
L 131.47763 146.730987 
L 132.559026 146.615766 
L 133.640421 146.339364 
L 134.721816 145.822977 
L 139.047398 142.952534 
L 140.128793 142.676132 
L 142.291584 142.523503 
L 155.268328 142.511897 
L 176.896235 142.56091 
L 177.97763 142.676132 
L 179.059026 142.952534 
L 180.140421 143.468921 
L 184.466002 146.339364 
L 185.547398 146.615766 
L 187.710188 146.768394 
L 200.686933 146.78 
L 222.31484 146.732442 
L 223.396235 146.620639 
L 224.47763 146.352439 
L 225.559026 145.851376 
L 229.884607 143.066112 
L 230.966002 142.797912 
L 233.128793 142.649813 
L 247.186933 142.638551 
L 267.733444 142.68611 
L 268.81484 142.797912 
L 269.896235 143.066112 
L 270.97763 143.567176 
L 275.303212 146.352439 
L 276.384607 146.620639 
L 278.547398 146.768738 
L 292.605537 146.78 
L 314.038095 146.78 
L 314.038095 146.78 
" style="fill:none;stroke:#cccccc;stroke-linecap:square;stroke-width:1.75;"/>
   </g>
   <g id="line2d_36">
    <path clip-path="url(#pbeb1da8e73)" d="M 0.628793 146.78 
L 41.721816 146.710612 
L 43.884607 146.375664 
L 48.210188 145.162922 
L 50.372979 144.997464 
L 59.024142 144.976757 
L 87.140421 145.046144 
L 89.303212 145.381092 
L 93.628793 146.593834 
L 95.791584 146.759292 
L 104.442747 146.78 
L 132.559026 146.727964 
L 134.721816 146.476776 
L 139.047398 145.567304 
L 141.210188 145.443222 
L 152.024142 145.427692 
L 177.97763 145.479729 
L 180.140421 145.730916 
L 184.466002 146.640389 
L 186.628793 146.764471 
L 197.442747 146.78 
L 223.396235 146.72977 
L 225.559026 146.487302 
L 229.884607 145.609398 
L 232.047398 145.489623 
L 243.942747 145.474633 
L 268.81484 145.524863 
L 270.97763 145.767331 
L 275.303212 146.645235 
L 277.466002 146.76501 
L 289.361351 146.78 
L 314.038095 146.78 
L 314.038095 146.78 
" style="fill:none;stroke:#cccccc;stroke-linecap:square;stroke-width:1.75;"/>
   </g>
   <g id="line2d_37">
    <path clip-path="url(#pbeb1da8e73)" d="M 0.628793 146.78 
L 40.640421 146.729729 
L 41.721816 146.611551 
L 42.803212 146.328055 
L 43.884607 145.798416 
L 47.128793 143.383947 
L 48.210188 142.854307 
L 49.291584 142.570812 
L 51.454374 142.414266 
L 64.431119 142.402362 
L 86.059026 142.452633 
L 87.140421 142.570812 
L 88.221816 142.854307 
L 89.303212 143.383947 
L 92.547398 145.798416 
L 93.628793 146.328055 
L 94.710188 146.611551 
L 96.872979 146.768096 
L 109.849723 146.78 
L 131.47763 146.735004 
L 132.559026 146.629227 
L 133.640421 146.37548 
L 134.721816 145.901419 
L 139.047398 143.266252 
L 140.128793 143.012505 
L 142.291584 142.872387 
L 157.431119 142.861732 
L 176.896235 142.906728 
L 177.97763 143.012505 
L 179.059026 143.266252 
L 180.140421 143.740313 
L 184.466002 146.37548 
L 185.547398 146.629227 
L 187.710188 146.769345 
L 202.849723 146.78 
L 222.31484 146.736352 
L 223.396235 146.633742 
L 224.47763 146.387594 
L 225.559026 145.92773 
L 229.884607 143.371479 
L 230.966002 143.125331 
L 233.128793 142.989409 
L 248.268328 142.979073 
L 267.733444 143.022721 
L 268.81484 143.125331 
L 269.896235 143.371479 
L 270.97763 143.831343 
L 275.303212 146.387594 
L 276.384607 146.633742 
L 278.547398 146.769664 
L 293.686933 146.78 
L 314.038095 146.78 
L 314.038095 146.78 
" style="fill:none;stroke:#cccccc;stroke-linecap:square;stroke-width:1.75;"/>
   </g>
   <g id="matplotlib.axis_1"/>
   <g id="matplotlib.axis_2">
    <g id="ytick_1">
     <g id="line2d_38">
      <defs>
       <path d="M 0 0 
L -3.5 0 
" id="m16b0e3a2ec" style="stroke:#000000;stroke-width:0.8;"/>
      </defs>
      <g>
       <use style="stroke:#000000;stroke-width:0.8;" x="23.338095" xlink:href="#m16b0e3a2ec" y="146.78"/>
      </g>
     </g>
     <g id="text_1">
      <!-- $0$ -->
      <defs>
       <path d="M 42 31.640625 
C 42 37.75 41.90625 48.125 37.703125 56.109375 
C 34 63.109375 28.09375 65.59375 22.90625 65.59375 
C 18.09375 65.59375 12 63.40625 8.203125 56.203125 
C 4.203125 48.71875 3.796875 39.4375 3.796875 31.640625 
C 3.796875 25.953125 3.90625 17.28125 7 9.671875 
C 11.296875 -0.609375 19 -2 22.90625 -2 
C 27.5 -2 34.5 -0.109375 38.59375 9.375 
C 41.59375 16.28125 42 24.359375 42 31.640625 
z
M 22.90625 -0.40625 
C 16.5 -0.40625 12.703125 5.078125 11.296875 12.6875 
C 10.203125 18.5625 10.203125 27.15625 10.203125 32.75 
C 10.203125 40.4375 10.203125 46.828125 11.5 52.921875 
C 13.40625 61.390625 19 64 22.90625 64 
C 27 64 32.296875 61.296875 34.203125 53.125 
C 35.5 47.4375 35.59375 40.734375 35.59375 32.75 
C 35.59375 26.25 35.59375 18.265625 34.40625 12.375 
C 32.296875 1.484375 26.40625 -0.40625 22.90625 -0.40625 
z
" id="CMR17-48"/>
      </defs>
      <g transform="translate(7.2 153.87832)scale(0.2 -0.2)">
       <use transform="scale(0.996264)" xlink:href="#CMR17-48"/>
      </g>
     </g>
    </g>
    <g id="ytick_2">
     <g id="line2d_39">
      <g>
       <use style="stroke:#000000;stroke-width:0.8;" x="23.338095" xlink:href="#m16b0e3a2ec" y="45.98"/>
      </g>
     </g>
     <g id="text_2">
      <!-- $1$ -->
      <defs>
       <path d="M 26.59375 63.40625 
C 26.59375 65.5 26.5 65.5 25.09375 65.5 
C 21.203125 61.1875 15.296875 59.796875 9.703125 59.796875 
C 9.40625 59.796875 8.90625 59.796875 8.796875 59.5 
C 8.703125 59.296875 8.703125 59.09375 8.703125 57 
C 11.796875 57 17 57.59375 21 59.984375 
L 21 7.203125 
C 21 3.6875 20.796875 2.5 12.203125 2.5 
L 9.203125 2.5 
L 9.203125 0 
C 14 0 19 0 23.796875 0 
C 28.59375 0 33.59375 0 38.40625 0 
L 38.40625 2.5 
L 35.40625 2.5 
C 26.796875 2.5 26.59375 3.59375 26.59375 7.15625 
z
" id="CMR17-49"/>
      </defs>
      <g transform="translate(7.2 53.07832)scale(0.2 -0.2)">
       <use transform="scale(0.996264)" xlink:href="#CMR17-49"/>
      </g>
     </g>
    </g>
   </g>
   <g id="line2d_40">
    <path clip-path="url(#pbeb1da8e73)" d="M 0.628793 146.78 
L 38.47763 146.745323 
L 39.559026 146.592636 
L 40.640421 145.988745 
L 41.721816 144.128631 
L 42.803212 139.666449 
L 43.884607 131.329995 
L 44.966002 119.200526 
L 46.047398 105.456037 
L 47.128793 93.326568 
L 48.210188 84.990114 
L 49.291584 80.527931 
L 50.372979 78.667817 
L 51.454374 78.063926 
L 52.53577 77.911239 
L 56.861351 77.876562 
L 83.896235 77.911239 
L 84.97763 78.063926 
L 86.059026 78.667817 
L 87.140421 80.527931 
L 88.221816 84.990114 
L 89.303212 93.326568 
L 90.384607 105.456037 
L 91.466002 119.200526 
L 92.547398 131.329995 
L 93.628793 139.666449 
L 94.710188 144.128631 
L 95.791584 145.988745 
L 96.872979 146.592636 
L 97.954374 146.745323 
L 102.279956 146.78 
L 129.31484 146.745484 
L 130.396235 146.593506 
L 131.47763 145.99242 
L 132.559026 144.140945 
L 133.640421 139.699488 
L 134.721816 131.401753 
L 135.803212 119.328621 
L 136.884607 105.647969 
L 137.966002 93.574837 
L 139.047398 85.277102 
L 140.128793 80.835645 
L 141.210188 78.98417 
L 142.291584 78.383084 
L 143.372979 78.231106 
L 147.698561 78.19659 
L 174.733444 78.231106 
L 175.81484 78.383084 
L 176.896235 78.98417 
L 177.97763 80.835645 
L 179.059026 85.277102 
L 180.140421 93.574837 
L 181.221816 105.647969 
L 182.303212 119.328621 
L 183.384607 131.401753 
L 184.466002 139.699488 
L 185.547398 144.140945 
L 186.628793 145.99242 
L 187.710188 146.593506 
L 188.791584 146.745484 
L 193.117165 146.78 
L 220.152049 146.745812 
L 221.233444 146.595276 
L 222.31484 145.999896 
L 223.396235 144.165995 
L 224.47763 139.766695 
L 225.559026 131.547722 
L 226.640421 119.589186 
L 227.721816 106.03839 
L 228.803212 94.079854 
L 229.884607 85.860881 
L 230.966002 81.461581 
L 232.047398 79.62768 
L 233.128793 79.0323 
L 234.210188 78.881764 
L 238.53577 78.847576 
L 265.570654 78.881764 
L 266.652049 79.0323 
L 267.733444 79.62768 
L 268.81484 81.461581 
L 269.896235 85.860881 
L 270.97763 94.079854 
L 272.059026 106.03839 
L 273.140421 119.589186 
L 274.221816 131.547722 
L 275.303212 139.766695 
L 276.384607 144.165995 
L 277.466002 145.999896 
L 278.547398 146.595276 
L 279.628793 146.745812 
L 283.954374 146.78 
L 314.038095 146.78 
L 314.038095 146.78 
" style="fill:none;stroke:#1764ab;stroke-linecap:square;stroke-width:2;"/>
   </g>
   <g id="patch_6">
    <path d="M 23.338095 149.3 
L 23.338095 10.7 
" style="fill:none;stroke:#000000;stroke-linecap:square;stroke-linejoin:miter;stroke-width:0.8;"/>
   </g>
   <g id="patch_7">
    <path d="M 302.338095 149.3 
L 302.338095 10.7 
" style="fill:none;stroke:#000000;stroke-linecap:square;stroke-linejoin:miter;stroke-width:0.8;"/>
   </g>
   <g id="patch_8">
    <path d="M 23.338095 149.3 
L 302.338095 149.3 
" style="fill:none;stroke:#000000;stroke-linecap:square;stroke-linejoin:miter;stroke-width:0.8;"/>
   </g>
   <g id="patch_9">
    <path d="M 23.338095 10.7 
L 302.338095 10.7 
" style="fill:none;stroke:#000000;stroke-linecap:square;stroke-linejoin:miter;stroke-width:0.8;"/>
   </g>
   <g id="line2d_41">
    <path clip-path="url(#pbeb1da8e73)" d="M 0.628793 146.78 
L 40.640421 146.737382 
L 41.721816 146.637192 
L 42.803212 146.396851 
L 43.884607 145.947834 
L 48.210188 143.451882 
L 49.291584 143.211541 
L 51.454374 143.078825 
L 66.593909 143.068733 
L 86.059026 143.111352 
L 87.140421 143.211541 
L 88.221816 143.451882 
L 89.303212 143.900899 
L 93.628793 146.396851 
L 94.710188 146.637192 
L 96.872979 146.769908 
L 112.012514 146.78 
L 131.47763 146.742633 
L 132.559026 146.654789 
L 133.640421 146.444061 
L 134.721816 146.050371 
L 139.047398 143.861961 
L 140.128793 143.651234 
L 142.291584 143.534871 
L 159.593909 143.526023 
L 176.896235 143.56339 
L 177.97763 143.651234 
L 179.059026 143.861961 
L 180.140421 144.255652 
L 184.466002 146.444061 
L 185.547398 146.654789 
L 187.710188 146.771152 
L 205.012514 146.78 
L 222.31484 146.743775 
L 223.396235 146.658616 
L 224.47763 146.45433 
L 225.559026 146.072674 
L 229.884607 143.951161 
L 230.966002 143.746876 
L 233.128793 143.634069 
L 251.512514 143.625492 
L 267.733444 143.661717 
L 268.81484 143.746876 
L 269.896235 143.951161 
L 270.97763 144.332817 
L 275.303212 146.45433 
L 276.384607 146.658616 
L 278.547398 146.771422 
L 296.931119 146.78 
L 314.038095 146.78 
L 314.038095 146.78 
" style="fill:none;stroke:#c54102;stroke-linecap:square;stroke-width:2;"/>
   </g>
   <g id="line2d_42">
    <path clip-path="url(#pbeb1da8e73)" d="M 0.628793 146.78 
L 39.559026 146.722796 
L 40.640421 146.538423 
L 41.721816 145.970513 
L 42.803212 144.608169 
L 43.884607 142.062975 
L 44.966002 138.359739 
L 46.047398 134.163423 
L 47.128793 130.460187 
L 48.210188 127.914993 
L 49.291584 126.552649 
L 50.372979 125.984739 
L 51.454374 125.800366 
L 54.698561 125.743162 
L 84.97763 125.800366 
L 86.059026 125.984739 
L 87.140421 126.552649 
L 88.221816 127.914993 
L 89.303212 130.460187 
L 90.384607 134.163423 
L 91.466002 138.359739 
L 92.547398 142.062975 
L 93.628793 144.608169 
L 94.710188 145.970513 
L 95.791584 146.538423 
L 96.872979 146.722796 
L 100.117165 146.78 
L 130.396235 146.724123 
L 131.47763 146.544028 
L 132.559026 145.989295 
L 133.640421 144.658559 
L 134.721816 142.172418 
L 135.803212 138.555104 
L 136.884607 134.45615 
L 137.966002 130.838835 
L 139.047398 128.352694 
L 140.128793 127.021958 
L 141.210188 126.467225 
L 142.291584 126.28713 
L 145.53577 126.231253 
L 175.81484 126.28713 
L 176.896235 126.467225 
L 177.97763 127.021958 
L 179.059026 128.352694 
L 180.140421 130.838835 
L 181.221816 134.45615 
L 182.303212 138.555104 
L 183.384607 142.172418 
L 184.466002 144.658559 
L 185.547398 145.989295 
L 186.628793 146.544028 
L 187.710188 146.724123 
L 190.954374 146.78 
L 221.233444 146.725439 
L 222.31484 146.549583 
L 223.396235 146.007911 
L 224.47763 144.708506 
L 225.559026 142.280897 
L 226.640421 138.748748 
L 227.721816 134.746299 
L 228.803212 131.214149 
L 229.884607 128.786541 
L 230.966002 127.487136 
L 232.047398 126.945463 
L 233.128793 126.769608 
L 236.372979 126.715047 
L 266.652049 126.769608 
L 267.733444 126.945463 
L 268.81484 127.487136 
L 269.896235 128.786541 
L 270.97763 131.214149 
L 272.059026 134.746299 
L 273.140421 138.748748 
L 274.221816 142.280897 
L 275.303212 144.708506 
L 276.384607 146.007911 
L 277.466002 146.549583 
L 278.547398 146.725439 
L 281.791584 146.78 
L 314.038095 146.78 
L 314.038095 146.78 
" style="fill:none;stroke:#157f3b;stroke-linecap:square;stroke-width:2;"/>
   </g>
  </g>
 </g>
 <defs>
  <clipPath id="pbeb1da8e73">
   <rect height="138.6" width="279" x="23.338095" y="10.7"/>
  </clipPath>
 </defs>
</svg>
