<?xml version="1.0" encoding="utf-8" standalone="no"?>
<!DOCTYPE svg PUBLIC "-//W3C//DTD SVG 1.1//EN"
  "http://www.w3.org/Graphics/SVG/1.1/DTD/svg11.dtd">
<!-- Created with matplotlib (http://matplotlib.org/) -->
<svg height="160pt" version="1.1" viewBox="0 0 300 160" width="300pt" xmlns="http://www.w3.org/2000/svg" xmlns:xlink="http://www.w3.org/1999/xlink">
 <defs>
  <style type="text/css">
*{stroke-linecap:butt;stroke-linejoin:round;}
  </style>
 </defs>
 <g id="figure_1">
  <g id="patch_1">
   <path d="M 0 160 
L 300.4 160 
L 300.4 0 
L 0 0 
z
" style="fill:#ffffff;"/>
  </g>
  <g id="axes_1">
   <g id="patch_2">
    <path d="M 10.7 149.3 
L 289.7 149.3 
L 289.7 10.7 
L 10.7 10.7 
z
" style="fill:#ffffff;"/>
   </g>
   <g id="patch_3">
    <path clip-path="url(#p46a057ec13)" d="M 33.409302 149.3 
L 33.409302 10.7 
L 78.827907 10.7 
L 78.827907 149.3 
z
" style="fill:#fee7dc;stroke:#fee7dc;stroke-linejoin:miter;"/>
   </g>
   <g id="patch_4">
    <path clip-path="url(#p46a057ec13)" d="M 124.246512 149.3 
L 124.246512 10.7 
L 169.665116 10.7 
L 169.665116 149.3 
z
" style="fill:#fdd4c2;stroke:#fdd4c2;stroke-linejoin:miter;"/>
   </g>
   <g id="patch_5">
    <path clip-path="url(#p46a057ec13)" d="M 215.083721 149.3 
L 215.083721 10.7 
L 260.502326 10.7 
L 260.502326 149.3 
z
" style="fill:#fcbba1;stroke:#fcbba1;stroke-linejoin:miter;"/>
   </g>
   <g id="line2d_1">
    <path clip-path="url(#p46a057ec13)" d="M -1 146 
L 28.002326 145.928828 
L 29.083721 145.761512 
L 30.165116 145.360144 
L 31.246512 144.61029 
L 34.490698 141.191925 
L 35.572093 140.44207 
L 36.653488 140.040702 
L 37.734884 139.873387 
L 40.97907 139.802629 
L 73.42093 139.873387 
L 74.502326 140.040702 
L 75.583721 140.44207 
L 76.665116 141.191925 
L 79.909302 144.61029 
L 80.990698 145.360144 
L 82.072093 145.761512 
L 83.153488 145.928828 
L 86.397674 145.999585 
L 118.839535 145.935867 
L 119.92093 145.785102 
L 121.002326 145.423434 
L 122.083721 144.74775 
L 125.327907 141.667507 
L 126.409302 140.991823 
L 127.490698 140.630155 
L 129.653488 140.430443 
L 140.467442 140.415257 
L 164.25814 140.47939 
L 165.339535 140.630155 
L 166.42093 140.991823 
L 167.502326 141.667507 
L 170.746512 144.74775 
L 171.827907 145.423434 
L 172.909302 145.785102 
L 175.072093 145.984814 
L 185.886047 146 
L 209.676744 145.938894 
L 210.75814 145.795242 
L 211.839535 145.45064 
L 212.92093 144.806838 
L 216.165116 141.871938 
L 217.246512 141.228136 
L 218.327907 140.883534 
L 220.490698 140.693246 
L 231.304651 140.678776 
L 255.095349 140.739883 
L 256.176744 140.883534 
L 257.25814 141.228136 
L 258.339535 141.871938 
L 261.583721 144.806838 
L 262.665116 145.45064 
L 263.746512 145.795242 
L 265.909302 145.98553 
L 276.723256 146 
L 301.4 146 
L 301.4 146 
" style="fill:none;stroke:#cccccc;stroke-linecap:square;stroke-width:1.75;"/>
   </g>
   <g id="line2d_2">
    <path clip-path="url(#p46a057ec13)" d="M -1 146 
L 25.839535 145.974902 
L 26.92093 145.864392 
L 28.002326 145.427315 
L 29.083721 144.081023 
L 30.165116 140.851438 
L 31.246512 134.817778 
L 32.327907 126.038854 
L 33.409302 116.09103 
L 34.490698 107.312107 
L 35.572093 101.278447 
L 36.653488 98.048861 
L 37.734884 96.70257 
L 38.816279 96.265493 
L 40.97907 96.133222 
L 70.176744 96.133222 
L 72.339535 96.265493 
L 73.42093 96.70257 
L 74.502326 98.048861 
L 75.583721 101.278447 
L 76.665116 107.312107 
L 77.746512 116.09103 
L 78.827907 126.038854 
L 79.909302 134.817778 
L 80.990698 140.851438 
L 82.072093 144.081023 
L 83.153488 145.427315 
L 84.234884 145.864392 
L 86.397674 145.996663 
L 115.595349 145.996708 
L 117.75814 145.866227 
L 118.839535 145.435066 
L 119.92093 144.106996 
L 121.002326 140.921121 
L 122.083721 134.969123 
L 123.165116 126.309017 
L 124.246512 116.495831 
L 125.327907 107.835725 
L 126.409302 101.883727 
L 127.490698 98.697852 
L 128.572093 97.369782 
L 129.653488 96.93862 
L 131.816279 96.808139 
L 161.013953 96.808139 
L 163.176744 96.93862 
L 164.25814 97.369782 
L 165.339535 98.697852 
L 166.42093 101.883727 
L 167.502326 107.835725 
L 168.583721 116.495831 
L 169.665116 126.309017 
L 170.746512 134.969123 
L 171.827907 140.921121 
L 172.909302 144.106996 
L 173.990698 145.435066 
L 175.072093 145.866227 
L 177.234884 145.996708 
L 206.432558 145.996808 
L 208.595349 145.870282 
L 209.676744 145.452191 
L 210.75814 144.164378 
L 211.839535 141.075075 
L 212.92093 135.303498 
L 214.002326 126.905903 
L 215.083721 117.390181 
L 216.165116 108.992586 
L 217.246512 103.221009 
L 218.327907 100.131707 
L 219.409302 98.843894 
L 220.490698 98.425802 
L 222.653488 98.299277 
L 252.932558 98.320092 
L 254.013953 98.425802 
L 255.095349 98.843894 
L 256.176744 100.131707 
L 257.25814 103.221009 
L 258.339535 108.992586 
L 259.42093 117.390181 
L 260.502326 126.905903 
L 261.583721 135.303498 
L 262.665116 141.075075 
L 263.746512 144.164378 
L 264.827907 145.452191 
L 265.909302 145.870282 
L 268.072093 145.996808 
L 301.4 146 
L 301.4 146 
" style="fill:none;stroke:#cccccc;stroke-linecap:square;stroke-width:1.75;"/>
   </g>
   <g id="line2d_3">
    <path clip-path="url(#p46a057ec13)" d="M -1 146 
L 28.002326 145.959414 
L 29.083721 145.864004 
L 30.165116 145.635126 
L 31.246512 145.207526 
L 35.572093 142.830622 
L 36.653488 142.601744 
L 38.816279 142.475358 
L 55.037209 142.465748 
L 73.42093 142.506333 
L 74.502326 142.601744 
L 75.583721 142.830622 
L 76.665116 143.258222 
L 80.990698 145.635126 
L 82.072093 145.864004 
L 84.234884 145.99039 
L 100.455814 146 
L 118.839535 145.966303 
L 121.002326 145.69706 
L 122.083721 145.34204 
L 126.409302 143.368593 
L 128.572093 143.09935 
L 133.97907 143.065653 
L 164.25814 143.09935 
L 166.42093 143.368593 
L 167.502326 143.723612 
L 171.827907 145.69706 
L 173.990698 145.966303 
L 179.397674 146 
L 210.75814 145.892714 
L 211.839535 145.712154 
L 212.92093 145.374823 
L 217.246512 143.499704 
L 219.409302 143.243876 
L 224.816279 143.211858 
L 256.176744 143.319144 
L 257.25814 143.499704 
L 258.339535 143.837034 
L 262.665116 145.712154 
L 264.827907 145.967982 
L 270.234884 146 
L 301.4 146 
L 301.4 146 
" style="fill:none;stroke:#cccccc;stroke-linecap:square;stroke-width:1.75;"/>
   </g>
   <g id="line2d_4">
    <path clip-path="url(#p46a057ec13)" d="M -1 146 
L 28.002326 145.963003 
L 29.083721 145.876028 
L 30.165116 145.667387 
L 31.246512 145.277595 
L 35.572093 143.110853 
L 36.653488 142.902212 
L 38.816279 142.787001 
L 56.118605 142.778241 
L 73.42093 142.815238 
L 74.502326 142.902212 
L 75.583721 143.110853 
L 76.665116 143.500646 
L 80.990698 145.667387 
L 82.072093 145.876028 
L 84.234884 145.991239 
L 101.537209 146 
L 119.92093 145.89905 
L 121.002326 145.729155 
L 122.083721 145.411748 
L 126.409302 143.647379 
L 128.572093 143.406661 
L 135.060465 143.376534 
L 165.339535 143.477484 
L 166.42093 143.647379 
L 167.502326 143.964786 
L 171.827907 145.729155 
L 173.990698 145.969873 
L 180.47907 146 
L 210.75814 145.904135 
L 211.839535 145.742796 
L 212.92093 145.441375 
L 217.246512 143.765868 
L 219.409302 143.537273 
L 225.897674 143.508663 
L 256.176744 143.604529 
L 257.25814 143.765868 
L 258.339535 144.067288 
L 262.665116 145.742796 
L 264.827907 145.971391 
L 271.316279 146 
L 301.4 146 
L 301.4 146 
" style="fill:none;stroke:#cccccc;stroke-linecap:square;stroke-width:1.75;"/>
   </g>
   <g id="line2d_5">
    <path clip-path="url(#p46a057ec13)" d="M -1 146 
L 28.002326 145.925417 
L 29.083721 145.750085 
L 30.165116 145.329484 
L 31.246512 144.543699 
L 34.490698 140.961538 
L 35.572093 140.175752 
L 36.653488 139.755152 
L 37.734884 139.57982 
L 40.97907 139.505671 
L 73.42093 139.57982 
L 74.502326 139.755152 
L 75.583721 140.175752 
L 76.665116 140.961538 
L 79.909302 144.543699 
L 80.990698 145.329484 
L 82.072093 145.750085 
L 83.153488 145.925417 
L 86.397674 145.999565 
L 118.839535 145.932473 
L 119.92093 145.773728 
L 121.002326 145.392919 
L 122.083721 144.681473 
L 125.327907 141.438204 
L 126.409302 140.726759 
L 127.490698 140.34595 
L 129.653488 140.135668 
L 139.386047 140.119678 
L 164.25814 140.187205 
L 165.339535 140.34595 
L 166.42093 140.726759 
L 167.502326 141.438204 
L 170.746512 144.681473 
L 171.827907 145.392919 
L 172.909302 145.773728 
L 175.072093 145.98401 
L 184.804651 146 
L 209.676744 145.935646 
L 210.75814 145.78436 
L 211.839535 145.421444 
L 212.92093 144.743428 
L 216.165116 141.652554 
L 217.246512 140.974537 
L 218.327907 140.611622 
L 220.490698 140.41122 
L 231.304651 140.395982 
L 255.095349 140.460336 
L 256.176744 140.611622 
L 257.25814 140.974537 
L 258.339535 141.652554 
L 261.583721 144.743428 
L 262.665116 145.421444 
L 263.746512 145.78436 
L 265.909302 145.984761 
L 276.723256 146 
L 301.4 146 
L 301.4 146 
" style="fill:none;stroke:#cccccc;stroke-linecap:square;stroke-width:1.75;"/>
   </g>
   <g id="line2d_6">
    <path clip-path="url(#p46a057ec13)" d="M -1 146 
L 28.002326 145.959903 
L 29.083721 145.865642 
L 30.165116 145.639521 
L 31.246512 145.217072 
L 35.572093 142.868801 
L 36.653488 142.64268 
L 38.816279 142.517817 
L 55.037209 142.508322 
L 73.42093 142.548419 
L 74.502326 142.64268 
L 75.583721 142.868801 
L 76.665116 143.29125 
L 80.990698 145.639521 
L 82.072093 145.865642 
L 84.234884 145.990505 
L 100.455814 146 
L 118.839535 145.96679 
L 121.002326 145.701432 
L 122.083721 145.351538 
L 126.409302 143.406576 
L 128.572093 143.141219 
L 133.97907 143.108009 
L 164.25814 143.141219 
L 166.42093 143.406576 
L 167.502326 143.756471 
L 171.827907 145.701432 
L 173.990698 145.96679 
L 179.397674 146 
L 210.75814 145.89427 
L 211.839535 145.716329 
L 212.92093 145.383892 
L 217.246512 143.535971 
L 219.409302 143.283853 
L 224.816279 143.2523 
L 256.176744 143.35803 
L 257.25814 143.535971 
L 258.339535 143.868408 
L 262.665116 145.716329 
L 264.827907 145.968447 
L 270.234884 146 
L 301.4 146 
L 301.4 146 
" style="fill:none;stroke:#cccccc;stroke-linecap:square;stroke-width:1.75;"/>
   </g>
   <g id="line2d_7">
    <path clip-path="url(#p46a057ec13)" d="M -1 146 
L 28.002326 145.919106 
L 29.083721 145.728938 
L 30.165116 145.272748 
L 31.246512 144.420472 
L 34.490698 140.535201 
L 35.572093 139.682925 
L 36.653488 139.226735 
L 37.734884 139.036567 
L 40.97907 138.956144 
L 73.42093 139.036567 
L 74.502326 139.226735 
L 75.583721 139.682925 
L 76.665116 140.535201 
L 79.909302 144.420472 
L 80.990698 145.272748 
L 82.072093 145.728938 
L 83.153488 145.919106 
L 86.397674 145.999529 
L 118.839535 145.926192 
L 119.92093 145.752679 
L 121.002326 145.336446 
L 122.083721 144.558819 
L 125.327907 141.013848 
L 126.409302 140.236221 
L 127.490698 139.819987 
L 128.572093 139.646475 
L 131.816279 139.573096 
L 164.25814 139.646475 
L 165.339535 139.819987 
L 166.42093 140.236221 
L 167.502326 141.013848 
L 170.746512 144.558819 
L 171.827907 145.336446 
L 172.909302 145.752679 
L 173.990698 145.926192 
L 177.234884 145.99957 
L 209.676744 145.929634 
L 210.75814 145.764216 
L 211.839535 145.367398 
L 212.92093 144.626043 
L 216.165116 141.246429 
L 217.246512 140.505074 
L 218.327907 140.108256 
L 220.490698 139.889134 
L 230.223256 139.872472 
L 255.095349 139.942838 
L 256.176744 140.108256 
L 257.25814 140.505074 
L 258.339535 141.246429 
L 261.583721 144.626043 
L 262.665116 145.367398 
L 263.746512 145.764216 
L 265.909302 145.983338 
L 275.64186 146 
L 301.4 146 
L 301.4 146 
" style="fill:none;stroke:#cccccc;stroke-linecap:square;stroke-width:1.75;"/>
   </g>
   <g id="line2d_8">
    <path clip-path="url(#p46a057ec13)" d="M -1 146 
L 28.002326 145.921149 
L 29.083721 145.735784 
L 30.165116 145.291115 
L 31.246512 144.460365 
L 34.490698 140.673219 
L 35.572093 139.842469 
L 36.653488 139.3978 
L 37.734884 139.212435 
L 40.97907 139.134044 
L 73.42093 139.212435 
L 74.502326 139.3978 
L 75.583721 139.842469 
L 76.665116 140.673219 
L 79.909302 144.460365 
L 80.990698 145.291115 
L 82.072093 145.735784 
L 83.153488 145.921149 
L 86.397674 145.999541 
L 118.839535 145.928225 
L 119.92093 145.759494 
L 121.002326 145.354728 
L 122.083721 144.598527 
L 125.327907 141.151229 
L 126.409302 140.395028 
L 127.490698 139.990262 
L 128.572093 139.821531 
L 131.816279 139.750174 
L 164.25814 139.821531 
L 165.339535 139.990262 
L 166.42093 140.395028 
L 167.502326 141.151229 
L 170.746512 144.598527 
L 171.827907 145.354728 
L 172.909302 145.759494 
L 173.990698 145.928225 
L 177.234884 145.999582 
L 209.676744 145.931581 
L 210.75814 145.770738 
L 211.839535 145.384897 
L 212.92093 144.664051 
L 216.165116 141.377925 
L 217.246512 140.657079 
L 218.327907 140.271238 
L 220.490698 140.058177 
L 230.223256 140.041976 
L 255.095349 140.110395 
L 256.176744 140.271238 
L 257.25814 140.657079 
L 258.339535 141.377925 
L 261.583721 144.664051 
L 262.665116 145.384897 
L 263.746512 145.770738 
L 265.909302 145.983799 
L 275.64186 146 
L 301.4 146 
L 301.4 146 
" style="fill:none;stroke:#cccccc;stroke-linecap:square;stroke-width:1.75;"/>
   </g>
   <g id="line2d_9">
    <path clip-path="url(#p46a057ec13)" d="M -1 146 
L 26.92093 145.948333 
L 28.002326 145.781807 
L 29.083721 145.268872 
L 30.165116 144.038402 
L 31.246512 141.739583 
L 32.327907 138.394821 
L 33.409302 134.604709 
L 34.490698 131.259947 
L 35.572093 128.961128 
L 36.653488 127.730659 
L 37.734884 127.217723 
L 38.816279 127.051197 
L 42.060465 126.999531 
L 72.339535 127.051197 
L 73.42093 127.217723 
L 74.502326 127.730659 
L 75.583721 128.961128 
L 76.665116 131.259947 
L 77.746512 134.604709 
L 78.827907 138.394821 
L 79.909302 141.739583 
L 80.990698 144.038402 
L 82.072093 145.268872 
L 83.153488 145.781807 
L 84.234884 145.948333 
L 87.47907 146 
L 117.75814 145.950131 
L 118.839535 145.7894 
L 119.92093 145.294315 
L 121.002326 144.106665 
L 122.083721 141.887844 
L 123.165116 138.659478 
L 124.246512 135.00126 
L 125.327907 131.772894 
L 126.409302 129.554073 
L 127.490698 128.366423 
L 128.572093 127.871337 
L 129.653488 127.710606 
L 132.897674 127.660738 
L 163.176744 127.710606 
L 164.25814 127.871337 
L 165.339535 128.366423 
L 166.42093 129.554073 
L 167.502326 131.772894 
L 168.583721 135.00126 
L 169.665116 138.659478 
L 170.746512 141.887844 
L 171.827907 144.106665 
L 172.909302 145.294315 
L 173.990698 145.7894 
L 175.072093 145.950131 
L 178.316279 146 
L 208.595349 145.952199 
L 209.676744 145.798133 
L 210.75814 145.323575 
L 211.839535 144.185169 
L 212.92093 142.058347 
L 214.002326 138.96384 
L 215.083721 135.457303 
L 216.165116 132.362796 
L 217.246512 130.235974 
L 218.327907 129.097568 
L 219.409302 128.62301 
L 220.490698 128.468944 
L 224.816279 128.421143 
L 254.013953 128.468944 
L 255.095349 128.62301 
L 256.176744 129.097568 
L 257.25814 130.235974 
L 258.339535 132.362796 
L 259.42093 135.457303 
L 260.502326 138.96384 
L 261.583721 142.058347 
L 262.665116 144.185169 
L 263.746512 145.323575 
L 264.827907 145.798133 
L 265.909302 145.952199 
L 270.234884 146 
L 301.4 146 
L 301.4 146 
" style="fill:none;stroke:#cccccc;stroke-linecap:square;stroke-width:1.75;"/>
   </g>
   <g id="line2d_10">
    <path clip-path="url(#p46a057ec13)" d="M -1 146 
L 26.92093 145.94276 
L 28.002326 145.758272 
L 29.083721 145.190008 
L 30.165116 143.826814 
L 31.246512 141.280032 
L 32.327907 137.574485 
L 33.409302 133.375551 
L 34.490698 129.670005 
L 35.572093 127.123223 
L 36.653488 125.760028 
L 37.734884 125.191764 
L 38.816279 125.007276 
L 42.060465 124.950036 
L 72.339535 125.007276 
L 73.42093 125.191764 
L 74.502326 125.760028 
L 75.583721 127.123223 
L 76.665116 129.670005 
L 77.746512 133.375551 
L 78.827907 137.574485 
L 79.909302 141.280032 
L 80.990698 143.826814 
L 82.072093 145.190008 
L 83.153488 145.758272 
L 84.234884 145.94276 
L 87.47907 146 
L 117.75814 145.944573 
L 118.839535 145.765927 
L 119.92093 145.215659 
L 121.002326 143.895634 
L 122.083721 141.429504 
L 123.165116 137.841305 
L 124.246512 133.775343 
L 125.327907 130.187144 
L 126.409302 127.721013 
L 127.490698 126.400988 
L 128.572093 125.85072 
L 129.653488 125.672074 
L 132.897674 125.616647 
L 163.176744 125.672074 
L 164.25814 125.85072 
L 165.339535 126.400988 
L 166.42093 127.721013 
L 167.502326 130.187144 
L 168.583721 133.775343 
L 169.665116 137.841305 
L 170.746512 141.429504 
L 171.827907 143.895634 
L 172.909302 145.215659 
L 173.990698 145.765927 
L 175.072093 145.944573 
L 178.316279 146 
L 208.595349 145.946829 
L 209.676744 145.775453 
L 210.75814 145.24758 
L 211.839535 143.981277 
L 212.92093 141.615512 
L 214.002326 138.173344 
L 215.083721 134.272857 
L 216.165116 130.83069 
L 217.246512 128.464925 
L 218.327907 127.198622 
L 219.409302 126.670748 
L 220.490698 126.499373 
L 223.734884 126.446202 
L 254.013953 126.499373 
L 255.095349 126.670748 
L 256.176744 127.198622 
L 257.25814 128.464925 
L 258.339535 130.83069 
L 259.42093 134.272857 
L 260.502326 138.173344 
L 261.583721 141.615512 
L 262.665116 143.981277 
L 263.746512 145.24758 
L 264.827907 145.775453 
L 265.909302 145.946829 
L 269.153488 146 
L 301.4 146 
L 301.4 146 
" style="fill:none;stroke:#cccccc;stroke-linecap:square;stroke-width:1.75;"/>
   </g>
   <g id="line2d_11">
    <path clip-path="url(#p46a057ec13)" d="M -1 146 
L 28.002326 145.926413 
L 29.083721 145.753422 
L 30.165116 145.338437 
L 31.246512 144.563144 
L 34.490698 141.028811 
L 35.572093 140.253518 
L 36.653488 139.838533 
L 37.734884 139.665542 
L 40.97907 139.592384 
L 73.42093 139.665542 
L 74.502326 139.838533 
L 75.583721 140.253518 
L 76.665116 141.028811 
L 79.909302 144.563144 
L 80.990698 145.338437 
L 82.072093 145.753422 
L 83.153488 145.926413 
L 86.397674 145.999571 
L 118.839535 145.933464 
L 119.92093 145.777049 
L 121.002326 145.40183 
L 122.083721 144.700827 
L 125.327907 141.505162 
L 126.409302 140.80416 
L 127.490698 140.42894 
L 129.653488 140.221744 
L 139.386047 140.205989 
L 164.25814 140.272525 
L 165.339535 140.42894 
L 166.42093 140.80416 
L 167.502326 141.505162 
L 170.746512 144.700827 
L 171.827907 145.40183 
L 172.909302 145.777049 
L 175.072093 145.984245 
L 184.804651 146 
L 209.676744 145.936594 
L 210.75814 145.787538 
L 211.839535 145.42997 
L 212.92093 144.761946 
L 216.165116 141.71662 
L 217.246512 141.048596 
L 218.327907 140.691028 
L 220.490698 140.49358 
L 231.304651 140.478566 
L 255.095349 140.541972 
L 256.176744 140.691028 
L 257.25814 141.048596 
L 258.339535 141.71662 
L 261.583721 144.761946 
L 262.665116 145.42997 
L 263.746512 145.787538 
L 265.909302 145.984986 
L 276.723256 146 
L 301.4 146 
L 301.4 146 
" style="fill:none;stroke:#cccccc;stroke-linecap:square;stroke-width:1.75;"/>
   </g>
   <g id="line2d_12">
    <path clip-path="url(#p46a057ec13)" d="M -1 146 
L 25.839535 145.973917 
L 26.92093 145.859067 
L 28.002326 145.404829 
L 29.083721 144.005675 
L 30.165116 140.649281 
L 31.246512 134.37871 
L 32.327907 125.255084 
L 33.409302 114.91666 
L 34.490698 105.793034 
L 35.572093 99.522464 
L 36.653488 96.166069 
L 37.734884 94.766916 
L 38.816279 94.312677 
L 40.97907 94.175212 
L 70.176744 94.175212 
L 72.339535 94.312677 
L 73.42093 94.766916 
L 74.502326 96.166069 
L 75.583721 99.522464 
L 76.665116 105.793034 
L 77.746512 114.91666 
L 78.827907 125.255084 
L 79.909302 134.37871 
L 80.990698 140.649281 
L 82.072093 144.005675 
L 83.153488 145.404829 
L 84.234884 145.859067 
L 86.397674 145.996532 
L 115.595349 145.996577 
L 117.75814 145.860892 
L 118.839535 145.412533 
L 119.92093 144.031492 
L 121.002326 140.718548 
L 122.083721 134.529152 
L 123.165116 125.523635 
L 124.246512 115.319046 
L 125.327907 106.313529 
L 126.409302 100.124133 
L 127.490698 96.811189 
L 128.572093 95.430148 
L 129.653488 94.98179 
L 131.816279 94.846104 
L 161.013953 94.846104 
L 163.176744 94.98179 
L 164.25814 95.430148 
L 165.339535 96.811189 
L 166.42093 100.124133 
L 167.502326 106.313529 
L 168.583721 115.319046 
L 169.665116 125.523635 
L 170.746512 134.529152 
L 171.827907 140.718548 
L 172.909302 144.031492 
L 173.990698 145.412533 
L 175.072093 145.860892 
L 177.234884 145.996577 
L 206.432558 145.996678 
L 208.595349 145.865011 
L 209.676744 145.429928 
L 210.75814 144.089781 
L 211.839535 140.874933 
L 212.92093 134.868808 
L 214.002326 126.129947 
L 215.083721 116.22752 
L 216.165116 107.488659 
L 217.246512 101.482534 
L 218.327907 98.267687 
L 219.409302 96.927539 
L 220.490698 96.492457 
L 222.653488 96.360789 
L 251.851163 96.360789 
L 254.013953 96.492457 
L 255.095349 96.927539 
L 256.176744 98.267687 
L 257.25814 101.482534 
L 258.339535 107.488659 
L 259.42093 116.22752 
L 260.502326 126.129947 
L 261.583721 134.868808 
L 262.665116 140.874933 
L 263.746512 144.089781 
L 264.827907 145.429928 
L 265.909302 145.865011 
L 268.072093 145.996678 
L 301.4 146 
L 301.4 146 
" style="fill:none;stroke:#cccccc;stroke-linecap:square;stroke-width:1.75;"/>
   </g>
   <g id="line2d_13">
    <path clip-path="url(#p46a057ec13)" d="M -1 146 
L 26.92093 145.917524 
L 28.002326 145.651697 
L 29.083721 144.832891 
L 30.165116 142.868678 
L 31.246512 139.199045 
L 32.327907 133.859761 
L 33.409302 127.80956 
L 34.490698 122.470276 
L 35.572093 118.800643 
L 36.653488 116.83643 
L 37.734884 116.017625 
L 38.816279 115.751797 
L 40.97907 115.671351 
L 71.25814 115.684586 
L 72.339535 115.751797 
L 73.42093 116.017625 
L 74.502326 116.83643 
L 75.583721 118.800643 
L 76.665116 122.470276 
L 77.746512 127.80956 
L 78.827907 133.859761 
L 79.909302 139.199045 
L 80.990698 142.868678 
L 82.072093 144.832891 
L 83.153488 145.651697 
L 84.234884 145.917524 
L 86.397674 145.99797 
L 116.676744 145.985079 
L 117.75814 145.919381 
L 118.839535 145.659541 
L 119.92093 144.859176 
L 121.002326 142.939201 
L 122.083721 139.352215 
L 123.165116 134.13318 
L 124.246512 128.21924 
L 125.327907 123.000205 
L 126.409302 119.413219 
L 127.490698 117.493244 
L 128.572093 116.692879 
L 129.653488 116.433038 
L 131.816279 116.354404 
L 162.095349 116.367341 
L 163.176744 116.433038 
L 164.25814 116.692879 
L 165.339535 117.493244 
L 166.42093 119.413219 
L 167.502326 123.000205 
L 168.583721 128.21924 
L 169.665116 134.13318 
L 170.746512 139.352215 
L 171.827907 142.939201 
L 172.909302 144.859176 
L 173.990698 145.659541 
L 175.072093 145.919381 
L 177.234884 145.998016 
L 207.513953 145.985636 
L 208.595349 145.92239 
L 209.676744 145.672246 
L 210.75814 144.901747 
L 211.839535 143.053418 
L 212.92093 139.600284 
L 214.002326 134.576004 
L 215.083721 128.882748 
L 216.165116 123.858468 
L 217.246512 120.405334 
L 218.327907 118.557004 
L 219.409302 117.786506 
L 220.490698 117.536362 
L 222.653488 117.460661 
L 252.932558 117.473115 
L 254.013953 117.536362 
L 255.095349 117.786506 
L 256.176744 118.557004 
L 257.25814 120.405334 
L 258.339535 123.858468 
L 259.42093 128.882748 
L 260.502326 134.576004 
L 261.583721 139.600284 
L 262.665116 143.053418 
L 263.746512 144.901747 
L 264.827907 145.672246 
L 265.909302 145.92239 
L 268.072093 145.99809 
L 301.4 146 
L 301.4 146 
" style="fill:none;stroke:#cccccc;stroke-linecap:square;stroke-width:1.75;"/>
   </g>
   <g id="line2d_14">
    <path clip-path="url(#p46a057ec13)" d="M -1 146 
L 26.92093 145.893565 
L 28.002326 145.550517 
L 29.083721 144.493853 
L 30.165116 141.959048 
L 31.246512 137.22341 
L 32.327907 130.333096 
L 33.409302 122.525349 
L 34.490698 115.635035 
L 35.572093 110.899397 
L 36.653488 108.364592 
L 37.734884 107.307928 
L 38.816279 106.96488 
L 40.97907 106.861064 
L 71.25814 106.878144 
L 72.339535 106.96488 
L 73.42093 107.307928 
L 74.502326 108.364592 
L 75.583721 110.899397 
L 76.665116 115.635035 
L 77.746512 122.525349 
L 78.827907 130.333096 
L 79.909302 137.22341 
L 80.990698 141.959048 
L 82.072093 144.493853 
L 83.153488 145.550517 
L 84.234884 145.893565 
L 86.397674 145.997381 
L 116.676744 145.980647 
L 117.75814 145.895432 
L 118.839535 145.558402 
L 119.92093 144.520274 
L 121.002326 142.029936 
L 122.083721 137.377371 
L 123.165116 130.60793 
L 124.246512 122.937148 
L 125.327907 116.167706 
L 126.409302 111.515142 
L 127.490698 109.024803 
L 128.572093 107.986676 
L 129.653488 107.649645 
L 131.816279 107.547651 
L 162.095349 107.56443 
L 163.176744 107.649645 
L 164.25814 107.986676 
L 165.339535 109.024803 
L 166.42093 111.515142 
L 167.502326 116.167706 
L 168.583721 122.937148 
L 169.665116 130.60793 
L 170.746512 137.377371 
L 171.827907 142.029936 
L 172.909302 144.520274 
L 173.990698 145.558402 
L 175.072093 145.895432 
L 177.234884 145.997427 
L 207.513953 145.981308 
L 208.595349 145.899004 
L 209.676744 145.573484 
L 210.75814 144.570814 
L 211.839535 142.165532 
L 212.92093 137.671874 
L 214.002326 131.13364 
L 215.083721 123.72485 
L 216.165116 117.186617 
L 217.246512 112.692959 
L 218.327907 110.287677 
L 219.409302 109.285006 
L 220.490698 108.959487 
L 222.653488 108.860976 
L 252.932558 108.877183 
L 254.013953 108.959487 
L 255.095349 109.285006 
L 256.176744 110.287677 
L 257.25814 112.692959 
L 258.339535 117.186617 
L 259.42093 123.72485 
L 260.502326 131.13364 
L 261.583721 137.671874 
L 262.665116 142.165532 
L 263.746512 144.570814 
L 264.827907 145.573484 
L 265.909302 145.899004 
L 268.072093 145.997515 
L 301.4 146 
L 301.4 146 
" style="fill:none;stroke:#cccccc;stroke-linecap:square;stroke-width:1.75;"/>
   </g>
   <g id="line2d_15">
    <path clip-path="url(#p46a057ec13)" d="M -1 146 
L 28.002326 145.961931 
L 29.083721 145.872438 
L 30.165116 145.657754 
L 31.246512 145.256672 
L 35.572093 143.027177 
L 36.653488 142.812493 
L 38.816279 142.693945 
L 56.118605 142.684931 
L 73.42093 142.722999 
L 74.502326 142.812493 
L 75.583721 143.027177 
L 76.665116 143.428258 
L 80.990698 145.657754 
L 82.072093 145.872438 
L 84.234884 145.990986 
L 101.537209 146 
L 119.92093 145.895478 
L 121.002326 145.719571 
L 122.083721 145.390934 
L 126.409302 143.564135 
L 128.572093 143.3149 
L 133.97907 143.283707 
L 165.339535 143.388229 
L 166.42093 143.564135 
L 167.502326 143.892773 
L 171.827907 145.719571 
L 173.990698 145.968807 
L 179.397674 146 
L 210.75814 145.900725 
L 211.839535 145.733647 
L 212.92093 145.421505 
L 217.246512 143.686399 
L 219.409302 143.449673 
L 225.897674 143.420046 
L 256.176744 143.519321 
L 257.25814 143.686399 
L 258.339535 143.998541 
L 262.665116 145.733647 
L 264.827907 145.970373 
L 271.316279 146 
L 301.4 146 
L 301.4 146 
" style="fill:none;stroke:#cccccc;stroke-linecap:square;stroke-width:1.75;"/>
   </g>
   <g id="line2d_16">
    <path clip-path="url(#p46a057ec13)" d="M -1 146 
L 26.92093 145.892121 
L 28.002326 145.544416 
L 29.083721 144.473411 
L 30.165116 141.904203 
L 31.246512 137.104291 
L 32.327907 130.12046 
L 33.409302 122.206742 
L 34.490698 115.222911 
L 35.572093 110.422999 
L 36.653488 107.853791 
L 37.734884 106.782785 
L 38.816279 106.435081 
L 40.97907 106.329856 
L 71.25814 106.347167 
L 72.339535 106.435081 
L 73.42093 106.782785 
L 74.502326 107.853791 
L 75.583721 110.422999 
L 76.665116 115.222911 
L 77.746512 122.206742 
L 78.827907 130.12046 
L 79.909302 137.104291 
L 80.990698 141.904203 
L 82.072093 144.473411 
L 83.153488 145.544416 
L 84.234884 145.892121 
L 86.397674 145.997345 
L 116.676744 145.98038 
L 117.75814 145.893987 
L 118.839535 145.552299 
L 119.92093 144.499826 
L 121.002326 141.975074 
L 122.083721 137.258215 
L 123.165116 130.395227 
L 124.246512 122.618442 
L 125.327907 115.755454 
L 126.409302 111.038596 
L 127.490698 108.513843 
L 128.572093 107.46137 
L 129.653488 107.119682 
L 131.816279 107.016278 
L 162.095349 107.03329 
L 163.176744 107.119682 
L 164.25814 107.46137 
L 165.339535 108.513843 
L 166.42093 111.038596 
L 167.502326 115.755454 
L 168.583721 122.618442 
L 169.665116 130.395227 
L 170.746512 137.258215 
L 171.827907 141.975074 
L 172.909302 144.499826 
L 173.990698 145.552299 
L 175.072093 145.893987 
L 177.234884 145.997391 
L 207.513953 145.981046 
L 208.595349 145.897588 
L 209.676744 145.567505 
L 210.75814 144.550778 
L 211.839535 142.111778 
L 212.92093 137.555125 
L 214.002326 130.925234 
L 215.083721 123.412584 
L 216.165116 116.782693 
L 217.246512 112.22604 
L 218.327907 109.787039 
L 219.409302 108.770313 
L 220.490698 108.44023 
L 222.653488 108.340338 
L 252.932558 108.356772 
L 254.013953 108.44023 
L 255.095349 108.770313 
L 256.176744 109.787039 
L 257.25814 112.22604 
L 258.339535 116.782693 
L 259.42093 123.412584 
L 260.502326 130.925234 
L 261.583721 137.555125 
L 262.665116 142.111778 
L 263.746512 144.550778 
L 264.827907 145.567505 
L 265.909302 145.897588 
L 268.072093 145.99748 
L 301.4 146 
L 301.4 146 
" style="fill:none;stroke:#cccccc;stroke-linecap:square;stroke-width:1.75;"/>
   </g>
   <g id="line2d_17">
    <path clip-path="url(#p46a057ec13)" d="M -1 146 
L 29.083721 145.894748 
L 30.165116 145.717612 
L 31.246512 145.386679 
L 35.572093 143.547119 
L 37.734884 143.296142 
L 43.14186 143.264731 
L 74.502326 143.369983 
L 75.583721 143.547119 
L 76.665116 143.878052 
L 80.990698 145.717612 
L 83.153488 145.968589 
L 88.560465 146 
L 119.92093 145.917673 
L 121.002326 145.779118 
L 122.083721 145.520263 
L 126.409302 144.081369 
L 128.572093 143.885056 
L 136.14186 143.860486 
L 165.339535 143.942814 
L 166.42093 144.081369 
L 167.502326 144.340223 
L 171.827907 145.779118 
L 173.990698 145.975431 
L 181.560465 146 
L 210.75814 145.921909 
L 211.839535 145.790483 
L 214.002326 145.187696 
L 216.165116 144.425625 
L 217.246512 144.180089 
L 219.409302 143.993877 
L 226.97907 143.970572 
L 256.176744 144.048664 
L 257.25814 144.180089 
L 259.42093 144.782876 
L 261.583721 145.544948 
L 262.665116 145.790483 
L 264.827907 145.976695 
L 272.397674 146 
L 301.4 146 
L 301.4 146 
" style="fill:none;stroke:#cccccc;stroke-linecap:square;stroke-width:1.75;"/>
   </g>
   <g id="line2d_18">
    <path clip-path="url(#p46a057ec13)" d="M -1 146 
L 28.002326 145.935393 
L 29.083721 145.783512 
L 30.165116 145.419169 
L 31.246512 144.738487 
L 34.490698 141.635458 
L 35.572093 140.954776 
L 36.653488 140.590433 
L 38.816279 140.389244 
L 49.630233 140.373945 
L 73.42093 140.438552 
L 74.502326 140.590433 
L 75.583721 140.954776 
L 76.665116 141.635458 
L 79.909302 144.738487 
L 80.990698 145.419169 
L 82.072093 145.783512 
L 84.234884 145.984701 
L 95.048837 146 
L 118.839535 145.942402 
L 119.92093 145.806997 
L 121.002326 145.482178 
L 122.083721 144.875336 
L 125.327907 142.108923 
L 126.409302 141.502081 
L 127.490698 141.177262 
L 129.653488 140.997898 
L 141.548837 140.984259 
L 164.25814 141.041857 
L 165.339535 141.177262 
L 166.42093 141.502081 
L 167.502326 142.108923 
L 170.746512 144.875336 
L 171.827907 145.482178 
L 172.909302 145.806997 
L 175.072093 145.986361 
L 186.967442 146 
L 209.676744 145.945143 
L 210.75814 145.816183 
L 211.839535 145.506825 
L 212.92093 144.928868 
L 216.165116 142.294131 
L 217.246512 141.716173 
L 218.327907 141.406815 
L 220.490698 141.235988 
L 232.386047 141.222998 
L 255.095349 141.277855 
L 256.176744 141.406815 
L 257.25814 141.716173 
L 258.339535 142.294131 
L 261.583721 144.928868 
L 262.665116 145.506825 
L 263.746512 145.816183 
L 265.909302 145.98701 
L 277.804651 146 
L 301.4 146 
L 301.4 146 
" style="fill:none;stroke:#cccccc;stroke-linecap:square;stroke-width:1.75;"/>
   </g>
   <g id="line2d_19">
    <path clip-path="url(#p46a057ec13)" d="M -1 146 
L 29.083721 145.896728 
L 30.165116 145.722924 
L 31.246512 145.398216 
L 35.572093 143.593259 
L 37.734884 143.347003 
L 44.223256 143.316183 
L 74.502326 143.419455 
L 75.583721 143.593259 
L 76.665116 143.917967 
L 80.990698 145.722924 
L 83.153488 145.96918 
L 89.64186 146 
L 119.92093 145.919642 
L 121.002326 145.784402 
L 122.083721 145.53174 
L 126.409302 144.127266 
L 128.572093 143.935649 
L 136.14186 143.911667 
L 165.339535 143.992025 
L 166.42093 144.127266 
L 167.502326 144.379928 
L 171.827907 145.784402 
L 173.990698 145.976019 
L 181.560465 146 
L 210.75814 145.923788 
L 212.92093 145.555899 
L 217.246512 144.223887 
L 219.409302 144.042157 
L 226.97907 144.019413 
L 256.176744 144.095625 
L 258.339535 144.463514 
L 262.665116 145.795525 
L 264.827907 145.977256 
L 272.397674 146 
L 301.4 146 
L 301.4 146 
" style="fill:none;stroke:#cccccc;stroke-linecap:square;stroke-width:1.75;"/>
   </g>
   <g id="line2d_20">
    <path clip-path="url(#p46a057ec13)" d="M -1 146 
L 28.002326 145.962746 
L 29.083721 145.875168 
L 30.165116 145.66508 
L 31.246512 145.272582 
L 35.572093 143.090807 
L 36.653488 142.880718 
L 38.816279 142.764708 
L 56.118605 142.755887 
L 73.42093 142.793141 
L 74.502326 142.880718 
L 75.583721 143.090807 
L 76.665116 143.483304 
L 80.990698 145.66508 
L 82.072093 145.875168 
L 84.234884 145.991179 
L 101.537209 146 
L 119.92093 145.898195 
L 121.002326 145.726859 
L 122.083721 145.406762 
L 126.409302 143.627437 
L 128.572093 143.384678 
L 135.060465 143.354296 
L 165.339535 143.456101 
L 166.42093 143.627437 
L 167.502326 143.947534 
L 171.827907 145.726859 
L 173.990698 145.969618 
L 180.47907 146 
L 210.75814 145.903318 
L 211.839535 145.740604 
L 212.92093 145.436615 
L 217.246512 143.74683 
L 219.409302 143.516287 
L 225.897674 143.487434 
L 256.176744 143.584116 
L 257.25814 143.74683 
L 258.339535 144.050819 
L 262.665116 145.740604 
L 264.827907 145.971147 
L 271.316279 146 
L 301.4 146 
L 301.4 146 
" style="fill:none;stroke:#cccccc;stroke-linecap:square;stroke-width:1.75;"/>
   </g>
   <g id="line2d_21">
    <path clip-path="url(#p46a057ec13)" d="M -1 146 
L 26.92093 145.940491 
L 28.002326 145.748689 
L 29.083721 145.157897 
L 30.165116 143.740661 
L 31.246512 141.092914 
L 32.327907 137.240466 
L 33.409302 132.875071 
L 34.490698 129.022623 
L 35.572093 126.374877 
L 36.653488 124.95764 
L 37.734884 124.366848 
L 38.816279 124.175046 
L 42.060465 124.115537 
L 72.339535 124.175046 
L 73.42093 124.366848 
L 74.502326 124.95764 
L 75.583721 126.374877 
L 76.665116 129.022623 
L 77.746512 132.875071 
L 78.827907 137.240466 
L 79.909302 141.092914 
L 80.990698 143.740661 
L 82.072093 145.157897 
L 83.153488 145.748689 
L 84.234884 145.940491 
L 87.47907 146 
L 117.75814 145.942309 
L 118.839535 145.756367 
L 119.92093 145.183626 
L 121.002326 143.809689 
L 122.083721 141.242839 
L 123.165116 137.508093 
L 124.246512 133.276072 
L 125.327907 129.541327 
L 126.409302 126.974476 
L 127.490698 125.60054 
L 128.572093 125.027799 
L 129.653488 124.841857 
L 132.897674 124.784166 
L 163.176744 124.841857 
L 164.25814 125.027799 
L 165.339535 125.60054 
L 166.42093 126.974476 
L 167.502326 129.541327 
L 168.583721 133.276072 
L 169.665116 137.508093 
L 170.746512 141.242839 
L 171.827907 143.809689 
L 172.909302 145.183626 
L 173.990698 145.756367 
L 175.072093 145.942309 
L 178.316279 146 
L 208.595349 145.944639 
L 209.676744 145.766207 
L 210.75814 145.216598 
L 211.839535 143.898153 
L 212.92093 141.434975 
L 214.002326 137.851071 
L 215.083721 133.789977 
L 216.165116 130.206073 
L 217.246512 127.742894 
L 218.327907 126.42445 
L 219.409302 125.874841 
L 220.490698 125.696409 
L 223.734884 125.641048 
L 254.013953 125.696409 
L 255.095349 125.874841 
L 256.176744 126.42445 
L 257.25814 127.742894 
L 258.339535 130.206073 
L 259.42093 133.789977 
L 260.502326 137.851071 
L 261.583721 141.434975 
L 262.665116 143.898153 
L 263.746512 145.216598 
L 264.827907 145.766207 
L 265.909302 145.944639 
L 269.153488 146 
L 301.4 146 
L 301.4 146 
" style="fill:none;stroke:#cccccc;stroke-linecap:square;stroke-width:1.75;"/>
   </g>
   <g id="line2d_22">
    <path clip-path="url(#p46a057ec13)" d="M -1 146 
L 25.839535 145.977871 
L 26.92093 145.880433 
L 28.002326 145.495058 
L 29.083721 144.30802 
L 30.165116 141.460463 
L 31.246512 136.140527 
L 32.327907 128.400065 
L 33.409302 119.628973 
L 34.490698 111.888512 
L 35.572093 106.568575 
L 36.653488 103.721019 
L 37.734884 102.533981 
L 38.816279 102.148606 
L 40.97907 102.031981 
L 71.25814 102.051168 
L 72.339535 102.148606 
L 73.42093 102.533981 
L 74.502326 103.721019 
L 75.583721 106.568575 
L 76.665116 111.888512 
L 77.746512 119.628973 
L 78.827907 128.400065 
L 79.909302 136.140527 
L 80.990698 141.460463 
L 82.072093 144.30802 
L 83.153488 145.495058 
L 84.234884 145.880433 
L 86.397674 145.997058 
L 116.676744 145.978215 
L 117.75814 145.882292 
L 118.839535 145.502908 
L 119.92093 144.334323 
L 121.002326 141.531033 
L 122.083721 136.293798 
L 123.165116 128.673666 
L 124.246512 120.038925 
L 125.327907 112.418793 
L 126.409302 107.181558 
L 127.490698 104.378269 
L 128.572093 103.209683 
L 129.653488 102.830299 
L 131.816279 102.715488 
L 162.095349 102.734376 
L 163.176744 102.830299 
L 164.25814 103.209683 
L 165.339535 104.378269 
L 166.42093 107.181558 
L 167.502326 112.418793 
L 168.583721 120.038925 
L 169.665116 128.673666 
L 170.746512 136.293798 
L 171.827907 141.531033 
L 172.909302 144.334323 
L 173.990698 145.502908 
L 175.072093 145.882292 
L 177.234884 145.997103 
L 207.513953 145.978921 
L 208.595349 145.886108 
L 209.676744 145.519026 
L 210.75814 144.388334 
L 211.839535 141.675943 
L 212.92093 136.60853 
L 214.002326 129.235488 
L 215.083721 120.880736 
L 216.165116 113.507694 
L 217.246512 108.440281 
L 218.327907 105.72789 
L 219.409302 104.597197 
L 220.490698 104.230115 
L 222.653488 104.119026 
L 252.932558 104.137302 
L 254.013953 104.230115 
L 255.095349 104.597197 
L 256.176744 105.72789 
L 257.25814 108.440281 
L 258.339535 113.507694 
L 259.42093 120.880736 
L 260.502326 129.235488 
L 261.583721 136.60853 
L 262.665116 141.675943 
L 263.746512 144.388334 
L 264.827907 145.519026 
L 265.909302 145.886108 
L 268.072093 145.997197 
L 301.4 146 
L 301.4 146 
" style="fill:none;stroke:#cccccc;stroke-linecap:square;stroke-width:1.75;"/>
   </g>
   <g id="line2d_23">
    <path clip-path="url(#p46a057ec13)" d="M -1 146 
L 28.002326 145.954469 
L 29.083721 145.847432 
L 30.165116 145.590664 
L 31.246512 145.110957 
L 35.572093 142.444412 
L 36.653488 142.187644 
L 38.816279 142.045857 
L 52.874419 142.035076 
L 73.42093 142.080607 
L 74.502326 142.187644 
L 75.583721 142.444412 
L 76.665116 142.924119 
L 80.990698 145.590664 
L 82.072093 145.847432 
L 84.234884 145.989218 
L 98.293023 146 
L 118.839535 145.961383 
L 119.92093 145.8706 
L 121.002326 145.652824 
L 122.083721 145.245965 
L 126.409302 142.984354 
L 127.490698 142.766578 
L 129.653488 142.646322 
L 146.955814 142.637178 
L 164.25814 142.675795 
L 165.339535 142.766578 
L 166.42093 142.984354 
L 167.502326 143.391213 
L 171.827907 145.652824 
L 172.909302 145.8706 
L 175.072093 145.990856 
L 192.374419 146 
L 209.676744 145.963283 
L 210.75814 145.876969 
L 211.839535 145.66991 
L 212.92093 145.283074 
L 217.246512 143.132765 
L 218.327907 142.925706 
L 220.490698 142.811369 
L 237.793023 142.802675 
L 255.095349 142.839391 
L 256.176744 142.925706 
L 257.25814 143.132765 
L 258.339535 143.519601 
L 262.665116 145.66991 
L 263.746512 145.876969 
L 265.909302 145.991306 
L 283.211628 146 
L 301.4 146 
L 301.4 146 
" style="fill:none;stroke:#cccccc;stroke-linecap:square;stroke-width:1.75;"/>
   </g>
   <g id="line2d_24">
    <path clip-path="url(#p46a057ec13)" d="M -1 146 
L 28.002326 145.905969 
L 29.083721 145.684917 
L 30.165116 145.154641 
L 31.246512 144.163955 
L 32.327907 142.722515 
L 34.490698 139.64771 
L 35.572093 138.657023 
L 36.653488 138.126747 
L 37.734884 137.905695 
L 39.897674 137.815785 
L 71.25814 137.815785 
L 73.42093 137.905695 
L 74.502326 138.126747 
L 75.583721 138.657023 
L 76.665116 139.64771 
L 77.746512 141.089149 
L 79.909302 144.163955 
L 80.990698 145.154641 
L 82.072093 145.684917 
L 83.153488 145.905969 
L 85.316279 145.995879 
L 116.676744 145.996192 
L 118.839535 145.913114 
L 119.92093 145.708857 
L 121.002326 145.218872 
L 122.083721 144.30346 
L 123.165116 142.971542 
L 125.327907 140.130365 
L 126.409302 139.214952 
L 127.490698 138.724967 
L 128.572093 138.520711 
L 130.734884 138.437633 
L 162.095349 138.437633 
L 164.25814 138.520711 
L 165.339535 138.724967 
L 166.42093 139.214952 
L 167.502326 140.130365 
L 168.583721 141.462282 
L 170.746512 144.30346 
L 171.827907 145.218872 
L 172.909302 145.708857 
L 173.990698 145.913114 
L 176.153488 145.996192 
L 207.513953 145.996367 
L 209.676744 145.917111 
L 210.75814 145.722251 
L 211.839535 145.254807 
L 212.92093 144.381508 
L 216.165116 140.400392 
L 217.246512 139.527092 
L 218.327907 139.059648 
L 219.409302 138.864789 
L 222.653488 138.782383 
L 255.095349 138.864789 
L 256.176744 139.059648 
L 257.25814 139.527092 
L 258.339535 140.400392 
L 261.583721 144.381508 
L 262.665116 145.254807 
L 263.746512 145.722251 
L 264.827907 145.917111 
L 268.072093 145.999517 
L 301.4 146 
L 301.4 146 
" style="fill:none;stroke:#cccccc;stroke-linecap:square;stroke-width:1.75;"/>
   </g>
   <g id="line2d_25">
    <path clip-path="url(#p46a057ec13)" d="M -1 146 
L 28.002326 145.950712 
L 29.083721 145.834844 
L 30.165116 145.556892 
L 31.246512 145.037608 
L 34.490698 142.670346 
L 35.572093 142.151062 
L 36.653488 141.873109 
L 38.816279 141.719624 
L 51.793023 141.707953 
L 73.42093 141.757241 
L 74.502326 141.873109 
L 75.583721 142.151062 
L 76.665116 142.670346 
L 79.909302 145.037608 
L 80.990698 145.556892 
L 82.072093 145.834844 
L 84.234884 145.988329 
L 97.211628 146 
L 118.839535 145.957645 
L 119.92093 145.858076 
L 121.002326 145.619223 
L 122.083721 145.172985 
L 126.409302 142.692483 
L 127.490698 142.453629 
L 129.653488 142.321734 
L 144.793023 142.311705 
L 164.25814 142.35406 
L 165.339535 142.453629 
L 166.42093 142.692483 
L 167.502326 143.13872 
L 171.827907 145.619223 
L 172.909302 145.858076 
L 175.072093 145.989971 
L 190.211628 146 
L 209.676744 145.959713 
L 210.75814 145.865005 
L 211.839535 145.637813 
L 212.92093 145.213361 
L 217.246512 142.853959 
L 218.327907 142.626767 
L 220.490698 142.501312 
L 236.711628 142.491772 
L 255.095349 142.532059 
L 256.176744 142.626767 
L 257.25814 142.853959 
L 258.339535 143.278411 
L 262.665116 145.637813 
L 263.746512 145.865005 
L 265.909302 145.99046 
L 282.130233 146 
L 301.4 146 
L 301.4 146 
" style="fill:none;stroke:#cccccc;stroke-linecap:square;stroke-width:1.75;"/>
   </g>
   <g id="line2d_26">
    <path clip-path="url(#p46a057ec13)" d="M -1 146 
L 25.839535 145.973935 
L 26.92093 145.859165 
L 28.002326 145.40524 
L 29.083721 144.007056 
L 30.165116 140.652984 
L 31.246512 134.386754 
L 32.327907 125.269443 
L 33.409302 114.938176 
L 34.490698 105.820865 
L 35.572093 99.554635 
L 36.653488 96.200564 
L 37.734884 94.802379 
L 38.816279 94.348455 
L 40.97907 94.211085 
L 70.176744 94.211085 
L 72.339535 94.348455 
L 73.42093 94.802379 
L 74.502326 96.200564 
L 75.583721 99.554635 
L 76.665116 105.820865 
L 77.746512 114.938176 
L 78.827907 125.269443 
L 79.909302 134.386754 
L 80.990698 140.652984 
L 82.072093 144.007056 
L 83.153488 145.40524 
L 84.234884 145.859165 
L 86.397674 145.996534 
L 115.595349 145.996579 
L 117.75814 145.860989 
L 118.839535 145.412946 
L 119.92093 144.032876 
L 121.002326 140.72226 
L 122.083721 134.537214 
L 123.165116 125.538026 
L 124.246512 115.34061 
L 125.327907 106.341422 
L 126.409302 100.156376 
L 127.490698 96.84576 
L 128.572093 95.46569 
L 129.653488 95.017647 
L 131.816279 94.882057 
L 161.013953 94.882057 
L 163.176744 95.017647 
L 164.25814 95.46569 
L 165.339535 96.84576 
L 166.42093 100.156376 
L 167.502326 106.341422 
L 168.583721 115.34061 
L 169.665116 125.538026 
L 170.746512 134.537214 
L 171.827907 140.72226 
L 172.909302 144.032876 
L 173.990698 145.412946 
L 175.072093 145.860989 
L 177.234884 145.996579 
L 206.432558 145.99668 
L 208.595349 145.865107 
L 209.676744 145.430337 
L 210.75814 144.091148 
L 211.839535 140.878603 
L 212.92093 134.876779 
L 214.002326 126.144176 
L 215.083721 116.24884 
L 216.165116 107.516237 
L 217.246512 101.514412 
L 218.327907 98.301867 
L 219.409302 96.962679 
L 220.490698 96.527908 
L 222.653488 96.396335 
L 251.851163 96.396335 
L 254.013953 96.527908 
L 255.095349 96.962679 
L 256.176744 98.301867 
L 257.25814 101.514412 
L 258.339535 107.516237 
L 259.42093 116.24884 
L 260.502326 126.144176 
L 261.583721 134.876779 
L 262.665116 140.878603 
L 263.746512 144.091148 
L 264.827907 145.430337 
L 265.909302 145.865107 
L 268.072093 145.99668 
L 301.4 146 
L 301.4 146 
" style="fill:none;stroke:#cccccc;stroke-linecap:square;stroke-width:1.75;"/>
   </g>
   <g id="line2d_27">
    <path clip-path="url(#p46a057ec13)" d="M -1 146 
L 28.002326 145.960127 
L 29.083721 145.866393 
L 30.165116 145.641537 
L 31.246512 145.22145 
L 35.572093 142.886313 
L 36.653488 142.661456 
L 38.816279 142.537291 
L 55.037209 142.52785 
L 73.42093 142.567722 
L 74.502326 142.661456 
L 75.583721 142.886313 
L 76.665116 143.306399 
L 80.990698 145.641537 
L 82.072093 145.866393 
L 84.234884 145.990558 
L 100.455814 146 
L 119.92093 145.889465 
L 121.002326 145.703438 
L 122.083721 145.355894 
L 126.409302 143.423998 
L 128.572093 143.160423 
L 133.97907 143.127436 
L 165.339535 143.237971 
L 166.42093 143.423998 
L 167.502326 143.771542 
L 171.827907 145.703438 
L 173.990698 145.967013 
L 179.397674 146 
L 210.75814 145.894984 
L 211.839535 145.718244 
L 212.92093 145.388051 
L 217.246512 143.552605 
L 219.409302 143.302189 
L 224.816279 143.270849 
L 256.176744 143.375865 
L 257.25814 143.552605 
L 258.339535 143.882798 
L 262.665116 145.718244 
L 264.827907 145.96866 
L 270.234884 146 
L 301.4 146 
L 301.4 146 
" style="fill:none;stroke:#cccccc;stroke-linecap:square;stroke-width:1.75;"/>
   </g>
   <g id="line2d_28">
    <path clip-path="url(#p46a057ec13)" d="M -1 146 
L 26.92093 145.951926 
L 28.002326 145.796978 
L 29.083721 145.319705 
L 30.165116 144.174786 
L 31.246512 142.035796 
L 32.327907 138.923585 
L 33.409302 135.396987 
L 34.490698 132.284776 
L 35.572093 130.145786 
L 36.653488 129.000868 
L 37.734884 128.523594 
L 38.816279 128.368647 
L 43.14186 128.320572 
L 72.339535 128.368647 
L 73.42093 128.523594 
L 74.502326 129.000868 
L 75.583721 130.145786 
L 76.665116 132.284776 
L 77.746512 135.396987 
L 78.827907 138.923585 
L 79.909302 142.035796 
L 80.990698 144.174786 
L 82.072093 145.319705 
L 83.153488 145.796978 
L 84.234884 145.951926 
L 88.560465 146 
L 117.75814 145.953713 
L 118.839535 145.804527 
L 119.92093 145.345001 
L 121.002326 144.242654 
L 122.083721 142.1832 
L 123.165116 139.186712 
L 124.246512 135.791246 
L 125.327907 132.794758 
L 126.409302 130.735304 
L 127.490698 129.632958 
L 128.572093 129.173431 
L 130.734884 128.986525 
L 148.037209 128.977958 
L 163.176744 129.024245 
L 164.25814 129.173431 
L 165.339535 129.632958 
L 166.42093 130.735304 
L 167.502326 132.794758 
L 168.583721 135.791246 
L 169.665116 139.186712 
L 170.746512 142.1832 
L 171.827907 144.242654 
L 172.909302 145.345001 
L 173.990698 145.804527 
L 176.153488 145.991433 
L 193.455814 146 
L 208.595349 145.955656 
L 209.676744 145.81273 
L 210.75814 145.372487 
L 211.839535 144.316399 
L 212.92093 142.343366 
L 214.002326 139.472621 
L 215.083721 136.219641 
L 216.165116 133.348896 
L 217.246512 131.375864 
L 218.327907 130.319776 
L 219.409302 129.879533 
L 221.572093 129.700469 
L 238.874419 129.692262 
L 254.013953 129.736607 
L 255.095349 129.879533 
L 256.176744 130.319776 
L 257.25814 131.375864 
L 258.339535 133.348896 
L 259.42093 136.219641 
L 260.502326 139.472621 
L 261.583721 142.343366 
L 262.665116 144.316399 
L 263.746512 145.372487 
L 264.827907 145.81273 
L 266.990698 145.991793 
L 284.293023 146 
L 301.4 146 
L 301.4 146 
" style="fill:none;stroke:#cccccc;stroke-linecap:square;stroke-width:1.75;"/>
   </g>
   <g id="line2d_29">
    <path clip-path="url(#p46a057ec13)" d="M -1 146 
L 26.92093 145.961536 
L 28.002326 145.837562 
L 29.083721 145.455696 
L 30.165116 144.539647 
L 31.246512 142.828243 
L 32.327907 140.338164 
L 33.409302 137.516536 
L 34.490698 135.026457 
L 35.572093 133.315053 
L 36.653488 132.399004 
L 37.734884 132.017138 
L 39.897674 131.861819 
L 60.444186 131.8547 
L 72.339535 131.893164 
L 73.42093 132.017138 
L 74.502326 132.399004 
L 75.583721 133.315053 
L 76.665116 135.026457 
L 77.746512 137.516536 
L 78.827907 140.338164 
L 79.909302 142.828243 
L 80.990698 144.539647 
L 82.072093 145.455696 
L 83.153488 145.837562 
L 85.316279 145.992881 
L 105.862791 146 
L 117.75814 145.963292 
L 118.839535 145.844979 
L 119.92093 145.480549 
L 121.002326 144.606326 
L 122.083721 142.973063 
L 123.165116 140.59668 
L 124.246512 137.903884 
L 125.327907 135.527501 
L 126.409302 133.894238 
L 127.490698 133.020015 
L 128.572093 132.655585 
L 130.734884 132.507358 
L 152.362791 132.500564 
L 163.176744 132.537272 
L 164.25814 132.655585 
L 165.339535 133.020015 
L 166.42093 133.894238 
L 167.502326 135.527501 
L 168.583721 137.903884 
L 169.665116 140.59668 
L 170.746512 142.973063 
L 171.827907 144.606326 
L 172.909302 145.480549 
L 173.990698 145.844979 
L 176.153488 145.993206 
L 197.781395 146 
L 208.595349 145.964883 
L 209.676744 145.851698 
L 210.75814 145.503063 
L 211.839535 144.666731 
L 212.92093 143.104258 
L 214.002326 140.830873 
L 215.083721 138.25479 
L 216.165116 135.981405 
L 217.246512 134.418932 
L 218.327907 133.5826 
L 219.409302 133.233965 
L 221.572093 133.092162 
L 243.2 133.085663 
L 254.013953 133.12078 
L 255.095349 133.233965 
L 256.176744 133.5826 
L 257.25814 134.418932 
L 258.339535 135.981405 
L 259.42093 138.25479 
L 260.502326 140.830873 
L 261.583721 143.104258 
L 262.665116 144.666731 
L 263.746512 145.503063 
L 264.827907 145.851698 
L 266.990698 145.993501 
L 288.618605 146 
L 301.4 146 
L 301.4 146 
" style="fill:none;stroke:#cccccc;stroke-linecap:square;stroke-width:1.75;"/>
   </g>
   <g id="line2d_30">
    <path clip-path="url(#p46a057ec13)" d="M -1 146 
L 26.92093 145.91396 
L 28.002326 145.636648 
L 29.083721 144.782465 
L 30.165116 142.733386 
L 31.246512 138.905204 
L 32.327907 133.335231 
L 33.409302 127.023625 
L 34.490698 121.453652 
L 35.572093 117.625469 
L 36.653488 115.57639 
L 37.734884 114.722207 
L 38.816279 114.444895 
L 40.97907 114.360973 
L 71.25814 114.374779 
L 72.339535 114.444895 
L 73.42093 114.722207 
L 74.502326 115.57639 
L 75.583721 117.625469 
L 76.665116 121.453652 
L 77.746512 127.023625 
L 78.827907 133.335231 
L 79.909302 138.905204 
L 80.990698 142.733386 
L 82.072093 144.782465 
L 83.153488 145.636648 
L 84.234884 145.91396 
L 86.397674 145.997883 
L 116.676744 145.984421 
L 117.75814 145.915821 
L 118.839535 145.644507 
L 119.92093 144.808799 
L 121.002326 142.804041 
L 122.083721 139.058658 
L 123.165116 133.609159 
L 124.246512 127.434068 
L 125.327907 121.984569 
L 126.409302 118.239187 
L 127.490698 116.234428 
L 128.572093 115.39872 
L 129.653488 115.127406 
L 131.816279 115.045299 
L 162.095349 115.058807 
L 163.176744 115.127406 
L 164.25814 115.39872 
L 165.339535 116.234428 
L 166.42093 118.239187 
L 167.502326 121.984569 
L 168.583721 127.434068 
L 169.665116 133.609159 
L 170.746512 139.058658 
L 171.827907 142.804041 
L 172.909302 144.808799 
L 173.990698 145.644507 
L 175.072093 145.915821 
L 177.234884 145.997928 
L 207.513953 145.984995 
L 208.595349 145.918923 
L 209.676744 145.657605 
L 210.75814 144.852688 
L 211.839535 142.921794 
L 212.92093 139.314408 
L 214.002326 134.065692 
L 215.083721 128.118119 
L 216.165116 122.869403 
L 217.246512 119.262017 
L 218.327907 117.331123 
L 219.409302 116.526206 
L 220.490698 116.264888 
L 222.653488 116.185806 
L 252.932558 116.198817 
L 254.013953 116.264888 
L 255.095349 116.526206 
L 256.176744 117.331123 
L 257.25814 119.262017 
L 258.339535 122.869403 
L 259.42093 128.118119 
L 260.502326 134.065692 
L 261.583721 139.314408 
L 262.665116 142.921794 
L 263.746512 144.852688 
L 264.827907 145.657605 
L 265.909302 145.918923 
L 268.072093 145.998005 
L 301.4 146 
L 301.4 146 
" style="fill:none;stroke:#cccccc;stroke-linecap:square;stroke-width:1.75;"/>
   </g>
   <g id="line2d_31">
    <path clip-path="url(#p46a057ec13)" d="M -1 146 
L 28.002326 145.927392 
L 29.083721 145.756703 
L 30.165116 145.34724 
L 31.246512 144.582263 
L 34.490698 141.09496 
L 35.572093 140.329983 
L 36.653488 139.920521 
L 37.734884 139.749831 
L 40.97907 139.677646 
L 73.42093 139.749831 
L 74.502326 139.920521 
L 75.583721 140.329983 
L 76.665116 141.09496 
L 79.909302 144.582263 
L 80.990698 145.34724 
L 82.072093 145.756703 
L 83.153488 145.927392 
L 86.397674 145.999577 
L 118.839535 145.934439 
L 119.92093 145.780315 
L 121.002326 145.410591 
L 122.083721 144.719856 
L 125.327907 141.571 
L 126.409302 140.880265 
L 127.490698 140.510541 
L 129.653488 140.306381 
L 140.467442 140.290856 
L 164.25814 140.356417 
L 165.339535 140.510541 
L 166.42093 140.880265 
L 167.502326 141.571 
L 170.746512 144.719856 
L 171.827907 145.410591 
L 172.909302 145.780315 
L 175.072093 145.984476 
L 185.886047 146 
L 209.676744 145.937527 
L 210.75814 145.790662 
L 211.839535 145.438353 
L 212.92093 144.780153 
L 216.165116 141.779611 
L 217.246512 141.12141 
L 218.327907 140.769101 
L 220.490698 140.574557 
L 231.304651 140.559764 
L 255.095349 140.622237 
L 256.176744 140.769101 
L 257.25814 141.12141 
L 258.339535 141.779611 
L 261.583721 144.780153 
L 262.665116 145.438353 
L 263.746512 145.790662 
L 265.909302 145.985207 
L 276.723256 146 
L 301.4 146 
L 301.4 146 
" style="fill:none;stroke:#cccccc;stroke-linecap:square;stroke-width:1.75;"/>
   </g>
   <g id="line2d_32">
    <path clip-path="url(#p46a057ec13)" d="M -1 146 
L 25.839535 145.971934 
L 26.92093 145.848353 
L 28.002326 145.359581 
L 29.083721 143.854057 
L 30.165116 140.242494 
L 31.246512 133.495206 
L 32.327907 123.67796 
L 33.409302 112.553562 
L 34.490698 102.736316 
L 35.572093 95.989027 
L 36.653488 92.377464 
L 37.734884 90.871941 
L 38.816279 90.383169 
L 40.97907 90.235254 
L 70.176744 90.235254 
L 72.339535 90.383169 
L 73.42093 90.871941 
L 74.502326 92.377464 
L 75.583721 95.989027 
L 76.665116 102.736316 
L 77.746512 112.553562 
L 78.827907 123.67796 
L 79.909302 133.495206 
L 80.990698 140.242494 
L 82.072093 143.854057 
L 83.153488 145.359581 
L 84.234884 145.848353 
L 86.397674 145.996268 
L 115.595349 145.996312 
L 117.75814 145.85015 
L 118.839535 145.367172 
L 119.92093 143.879495 
L 121.002326 140.310742 
L 122.083721 133.643434 
L 123.165116 123.942557 
L 124.246512 112.950025 
L 125.327907 103.249148 
L 126.409302 96.58184 
L 127.490698 93.013087 
L 128.572093 91.52541 
L 129.653488 91.042432 
L 131.816279 90.896269 
L 161.013953 90.896269 
L 163.176744 91.042432 
L 164.25814 91.52541 
L 165.339535 93.013087 
L 166.42093 96.58184 
L 167.502326 103.249148 
L 168.583721 112.950025 
L 169.665116 123.942557 
L 170.746512 133.643434 
L 171.827907 140.310742 
L 172.909302 143.879495 
L 173.990698 145.367172 
L 175.072093 145.85015 
L 177.234884 145.996312 
L 206.432558 145.996416 
L 208.595349 145.854375 
L 209.676744 145.385015 
L 210.75814 143.939283 
L 211.839535 140.471152 
L 212.92093 133.99183 
L 214.002326 124.564472 
L 215.083721 113.881877 
L 216.165116 104.454519 
L 217.246512 97.975197 
L 218.327907 94.507066 
L 219.409302 93.061334 
L 220.490698 92.591974 
L 222.653488 92.449933 
L 251.851163 92.449933 
L 254.013953 92.591974 
L 255.095349 93.061334 
L 256.176744 94.507066 
L 257.25814 97.975197 
L 258.339535 104.454519 
L 259.42093 113.881877 
L 260.502326 124.564472 
L 261.583721 133.99183 
L 262.665116 140.471152 
L 263.746512 143.939283 
L 264.827907 145.385015 
L 265.909302 145.854375 
L 268.072093 145.996416 
L 301.4 146 
L 301.4 146 
" style="fill:none;stroke:#cccccc;stroke-linecap:square;stroke-width:1.75;"/>
   </g>
   <g id="line2d_33">
    <path clip-path="url(#p46a057ec13)" d="M -1 146 
L 26.92093 145.958151 
L 28.002326 145.823269 
L 29.083721 145.407801 
L 30.165116 144.411146 
L 31.246512 142.549149 
L 32.327907 139.83996 
L 33.409302 136.770046 
L 34.490698 134.060857 
L 35.572093 132.19886 
L 36.653488 131.202205 
L 37.734884 130.786738 
L 39.897674 130.617752 
L 58.281395 130.610006 
L 72.339535 130.651855 
L 73.42093 130.786738 
L 74.502326 131.202205 
L 75.583721 132.19886 
L 76.665116 134.060857 
L 77.746512 136.770046 
L 78.827907 139.83996 
L 79.909302 142.549149 
L 80.990698 144.411146 
L 82.072093 145.407801 
L 83.153488 145.823269 
L 85.316279 145.992255 
L 103.7 146 
L 117.75814 145.959919 
L 118.839535 145.830734 
L 119.92093 145.432818 
L 121.002326 144.478266 
L 122.083721 142.694928 
L 123.165116 140.100186 
L 124.246512 137.159958 
L 125.327907 134.565217 
L 126.409302 132.781878 
L 127.490698 131.827326 
L 128.572093 131.42941 
L 130.734884 131.267562 
L 150.2 131.260144 
L 163.176744 131.300225 
L 164.25814 131.42941 
L 165.339535 131.827326 
L 166.42093 132.781878 
L 167.502326 134.565217 
L 168.583721 137.159958 
L 169.665116 140.100186 
L 170.746512 142.694928 
L 171.827907 144.478266 
L 172.909302 145.432818 
L 173.990698 145.830734 
L 176.153488 145.992582 
L 195.618605 146 
L 208.595349 145.961636 
L 209.676744 145.837987 
L 210.75814 145.457121 
L 211.839535 144.543469 
L 212.92093 142.836544 
L 214.002326 140.352983 
L 215.083721 137.538739 
L 216.165116 135.055178 
L 217.246512 133.348252 
L 218.327907 132.434601 
L 219.409302 132.053735 
L 221.572093 131.898822 
L 242.118605 131.891722 
L 254.013953 131.930086 
L 255.095349 132.053735 
L 256.176744 132.434601 
L 257.25814 133.348252 
L 258.339535 135.055178 
L 259.42093 137.538739 
L 260.502326 140.352983 
L 261.583721 142.836544 
L 262.665116 144.543469 
L 263.746512 145.457121 
L 264.827907 145.837987 
L 266.990698 145.9929 
L 287.537209 146 
L 301.4 146 
L 301.4 146 
" style="fill:none;stroke:#cccccc;stroke-linecap:square;stroke-width:1.75;"/>
   </g>
   <g id="line2d_34">
    <path clip-path="url(#p46a057ec13)" d="M -1 146 
L 26.92093 145.953012 
L 28.002326 145.801565 
L 29.083721 145.335074 
L 30.165116 144.216023 
L 31.246512 142.125359 
L 32.327907 139.083461 
L 33.409302 135.63654 
L 34.490698 132.594642 
L 35.572093 130.503978 
L 36.653488 129.384927 
L 37.734884 128.918436 
L 38.816279 128.766989 
L 43.14186 128.720001 
L 72.339535 128.766989 
L 73.42093 128.918436 
L 74.502326 129.384927 
L 75.583721 130.503978 
L 76.665116 132.594642 
L 77.746512 135.63654 
L 78.827907 139.083461 
L 79.909302 142.125359 
L 80.990698 144.216023 
L 82.072093 145.335074 
L 83.153488 145.801565 
L 84.234884 145.953012 
L 88.560465 146 
L 117.75814 145.954796 
L 118.839535 145.8091 
L 119.92093 145.360324 
L 121.002326 144.283766 
L 122.083721 142.272492 
L 123.165116 139.346105 
L 124.246512 136.030075 
L 125.327907 133.103688 
L 126.409302 131.092413 
L 127.490698 130.015856 
L 128.572093 129.56708 
L 130.734884 129.384546 
L 148.037209 129.37618 
L 163.176744 129.421384 
L 164.25814 129.56708 
L 165.339535 130.015856 
L 166.42093 131.092413 
L 167.502326 133.103688 
L 168.583721 136.030075 
L 169.665116 139.346105 
L 170.746512 142.272492 
L 171.827907 144.283766 
L 172.909302 145.360324 
L 173.990698 145.8091 
L 176.153488 145.991634 
L 193.455814 146 
L 208.595349 145.9567 
L 209.676744 145.81714 
L 210.75814 145.387264 
L 211.839535 144.356047 
L 212.92093 142.42948 
L 214.002326 139.626341 
L 215.083721 136.449968 
L 216.165116 133.646829 
L 217.246512 131.720262 
L 218.327907 130.689045 
L 219.409302 130.259169 
L 221.572093 130.084323 
L 239.955814 130.076309 
L 254.013953 130.119609 
L 255.095349 130.259169 
L 256.176744 130.689045 
L 257.25814 131.720262 
L 258.339535 133.646829 
L 259.42093 136.449968 
L 260.502326 139.626341 
L 261.583721 142.42948 
L 262.665116 144.356047 
L 263.746512 145.387264 
L 264.827907 145.81714 
L 266.990698 145.991986 
L 285.374419 146 
L 301.4 146 
L 301.4 146 
" style="fill:none;stroke:#cccccc;stroke-linecap:square;stroke-width:1.75;"/>
   </g>
   <g id="line2d_35">
    <path clip-path="url(#p46a057ec13)" d="M -1 146 
L 26.92093 145.951406 
L 28.002326 145.794784 
L 29.083721 145.312352 
L 30.165116 144.15506 
L 31.246512 141.992953 
L 32.327907 138.847106 
L 33.409302 135.282395 
L 34.490698 132.136548 
L 35.572093 129.974442 
L 36.653488 128.817149 
L 37.734884 128.334718 
L 38.816279 128.178096 
L 43.14186 128.129502 
L 72.339535 128.178096 
L 73.42093 128.334718 
L 74.502326 128.817149 
L 75.583721 129.974442 
L 76.665116 132.136548 
L 77.746512 135.282395 
L 78.827907 138.847106 
L 79.909302 141.992953 
L 80.990698 144.15506 
L 82.072093 145.312352 
L 83.153488 145.794784 
L 84.234884 145.951406 
L 88.560465 146 
L 117.75814 145.953195 
L 118.839535 145.802339 
L 119.92093 145.33767 
L 121.002326 144.222987 
L 122.083721 142.140484 
L 123.165116 139.110461 
L 124.246512 135.676995 
L 125.327907 132.646972 
L 126.409302 130.56447 
L 127.490698 129.449787 
L 128.572093 128.985117 
L 129.653488 128.834261 
L 133.97907 128.787457 
L 163.176744 128.834261 
L 164.25814 128.985117 
L 165.339535 129.449787 
L 166.42093 130.56447 
L 167.502326 132.646972 
L 168.583721 135.676995 
L 169.665116 139.110461 
L 170.746512 142.140484 
L 171.827907 144.222987 
L 172.909302 145.33767 
L 173.990698 145.802339 
L 175.072093 145.953195 
L 179.397674 146 
L 208.595349 145.955156 
L 209.676744 145.810619 
L 210.75814 145.365416 
L 211.839535 144.297427 
L 212.92093 142.302162 
L 214.002326 139.399069 
L 215.083721 136.109433 
L 216.165116 133.20634 
L 217.246512 131.211075 
L 218.327907 130.143087 
L 219.409302 129.697883 
L 221.572093 129.516802 
L 238.874419 129.508503 
L 254.013953 129.553347 
L 255.095349 129.697883 
L 256.176744 130.143087 
L 257.25814 131.211075 
L 258.339535 133.20634 
L 259.42093 136.109433 
L 260.502326 139.399069 
L 261.583721 142.302162 
L 262.665116 144.297427 
L 263.746512 145.365416 
L 264.827907 145.810619 
L 266.990698 145.9917 
L 284.293023 146 
L 301.4 146 
L 301.4 146 
" style="fill:none;stroke:#cccccc;stroke-linecap:square;stroke-width:1.75;"/>
   </g>
   <g id="line2d_36">
    <path clip-path="url(#p46a057ec13)" d="M -1 146 
L 29.083721 145.921724 
L 30.165116 145.789988 
L 32.327907 145.185776 
L 34.490698 144.421904 
L 35.572093 144.175788 
L 37.734884 143.989136 
L 45.304651 143.965776 
L 74.502326 144.044052 
L 75.583721 144.175788 
L 77.746512 144.78 
L 79.909302 145.543872 
L 80.990698 145.789988 
L 83.153488 145.97664 
L 90.723256 146 
L 119.92093 145.944505 
L 122.083721 145.676622 
L 126.409302 144.706701 
L 128.572093 144.574372 
L 139.386047 144.55781 
L 165.339535 144.613305 
L 167.502326 144.881188 
L 171.827907 145.851109 
L 173.990698 145.983439 
L 184.804651 146 
L 210.75814 145.947508 
L 212.92093 145.694121 
L 217.246512 144.776686 
L 219.409302 144.651517 
L 230.223256 144.635852 
L 256.176744 144.688344 
L 258.339535 144.941731 
L 262.665116 145.859166 
L 264.827907 145.984335 
L 275.64186 146 
L 301.4 146 
L 301.4 146 
" style="fill:none;stroke:#cccccc;stroke-linecap:square;stroke-width:1.75;"/>
   </g>
   <g id="line2d_37">
    <path clip-path="url(#p46a057ec13)" d="M -1 146 
L 28.002326 145.943393 
L 29.083721 145.810318 
L 30.165116 145.491088 
L 31.246512 144.894687 
L 34.490698 142.175875 
L 35.572093 141.579475 
L 36.653488 141.260245 
L 38.816279 141.083967 
L 50.711628 141.070563 
L 73.42093 141.12717 
L 74.502326 141.260245 
L 75.583721 141.579475 
L 76.665116 142.175875 
L 79.909302 144.894687 
L 80.990698 145.491088 
L 82.072093 145.810318 
L 84.234884 145.986596 
L 96.130233 146 
L 118.839535 145.950362 
L 119.92093 145.833672 
L 121.002326 145.553746 
L 122.083721 145.030775 
L 125.327907 142.646708 
L 126.409302 142.123737 
L 127.490698 141.843811 
L 129.653488 141.689237 
L 142.630233 141.677483 
L 164.25814 141.727121 
L 165.339535 141.843811 
L 166.42093 142.123737 
L 167.502326 142.646708 
L 170.746512 145.030775 
L 171.827907 145.553746 
L 172.909302 145.833672 
L 175.072093 145.988246 
L 188.048837 146 
L 209.676744 145.952754 
L 210.75814 145.841685 
L 211.839535 145.575245 
L 212.92093 145.077471 
L 217.246512 142.310488 
L 218.327907 142.044048 
L 220.490698 141.896921 
L 234.548837 141.885733 
L 255.095349 141.932979 
L 256.176744 142.044048 
L 257.25814 142.310488 
L 258.339535 142.808262 
L 262.665116 145.575245 
L 263.746512 145.841685 
L 265.909302 145.988812 
L 279.967442 146 
L 301.4 146 
L 301.4 146 
" style="fill:none;stroke:#cccccc;stroke-linecap:square;stroke-width:1.75;"/>
   </g>
   <g id="matplotlib.axis_1"/>
   <g id="matplotlib.axis_2"/>
   <g id="line2d_38">
    <path clip-path="url(#p46a057ec13)" d="M -1 146 
L 25.839535 145.954146 
L 26.92093 145.752243 
L 28.002326 144.953701 
L 29.083721 142.494019 
L 30.165116 136.593547 
L 31.246512 125.570016 
L 32.327907 109.530872 
L 33.409302 91.356141 
L 34.490698 75.316998 
L 35.572093 64.293466 
L 36.653488 58.392995 
L 37.734884 55.933313 
L 38.816279 55.134771 
L 39.897674 54.932868 
L 43.14186 54.887014 
L 71.25814 54.932868 
L 72.339535 55.134771 
L 73.42093 55.933313 
L 74.502326 58.392995 
L 75.583721 64.293466 
L 76.665116 75.316998 
L 77.746512 91.356141 
L 78.827907 109.530872 
L 79.909302 125.570016 
L 80.990698 136.593547 
L 82.072093 142.494019 
L 83.153488 144.953701 
L 84.234884 145.752243 
L 85.316279 145.954146 
L 88.560465 146 
L 116.676744 145.954381 
L 117.75814 145.75351 
L 118.839535 144.959053 
L 119.92093 142.511951 
L 121.002326 136.641659 
L 122.083721 125.674511 
L 123.165116 109.717404 
L 124.246512 91.635633 
L 125.327907 75.678526 
L 126.409302 64.711378 
L 127.490698 58.841086 
L 128.572093 56.393984 
L 129.653488 55.599527 
L 130.734884 55.398656 
L 133.97907 55.353037 
L 162.095349 55.398656 
L 163.176744 55.599527 
L 164.25814 56.393984 
L 165.339535 58.841086 
L 166.42093 64.711378 
L 167.502326 75.678526 
L 168.583721 91.635633 
L 169.665116 109.717404 
L 170.746512 125.674511 
L 171.827907 136.641659 
L 172.909302 142.511951 
L 173.990698 144.959053 
L 175.072093 145.75351 
L 176.153488 145.954381 
L 179.397674 146 
L 207.513953 145.95508 
L 208.595349 145.757291 
L 209.676744 144.975019 
L 210.75814 142.565451 
L 211.839535 136.785199 
L 212.92093 125.986267 
L 214.002326 110.273913 
L 215.083721 92.469483 
L 216.165116 76.757129 
L 217.246512 65.958197 
L 218.327907 60.177945 
L 219.409302 57.768378 
L 220.490698 56.986105 
L 221.572093 56.788316 
L 225.897674 56.743396 
L 252.932558 56.788316 
L 254.013953 56.986105 
L 255.095349 57.768378 
L 256.176744 60.177945 
L 257.25814 65.958197 
L 258.339535 76.757129 
L 259.42093 92.469483 
L 260.502326 110.273913 
L 261.583721 125.986267 
L 262.665116 136.785199 
L 263.746512 142.565451 
L 264.827907 144.975019 
L 265.909302 145.757291 
L 266.990698 145.95508 
L 271.316279 146 
L 301.4 146 
L 301.4 146 
" style="fill:none;stroke:#1764ab;stroke-linecap:square;stroke-width:2;"/>
   </g>
   <g id="patch_6">
    <path d="M 10.7 149.3 
L 10.7 10.7 
" style="fill:none;stroke:#000000;stroke-linecap:square;stroke-linejoin:miter;stroke-width:0.8;"/>
   </g>
   <g id="patch_7">
    <path d="M 289.7 149.3 
L 289.7 10.7 
" style="fill:none;stroke:#000000;stroke-linecap:square;stroke-linejoin:miter;stroke-width:0.8;"/>
   </g>
   <g id="patch_8">
    <path d="M 10.7 149.3 
L 289.7 149.3 
" style="fill:none;stroke:#000000;stroke-linecap:square;stroke-linejoin:miter;stroke-width:0.8;"/>
   </g>
   <g id="patch_9">
    <path d="M 10.7 10.7 
L 289.7 10.7 
" style="fill:none;stroke:#000000;stroke-linecap:square;stroke-linejoin:miter;stroke-width:0.8;"/>
   </g>
   <g id="line2d_39">
    <path clip-path="url(#p46a057ec13)" d="M -1 146 
L 28.002326 145.947633 
L 29.083721 145.824528 
L 30.165116 145.529213 
L 31.246512 144.977491 
L 34.490698 142.462357 
L 35.572093 141.910636 
L 36.653488 141.615321 
L 38.816279 141.452249 
L 51.793023 141.439849 
L 73.42093 141.492215 
L 74.502326 141.615321 
L 75.583721 141.910636 
L 76.665116 142.462357 
L 79.909302 144.977491 
L 80.990698 145.529213 
L 82.072093 145.824528 
L 84.234884 145.9876 
L 97.211628 146 
L 118.839535 145.954582 
L 119.92093 145.847811 
L 121.002326 145.591682 
L 122.083721 145.113169 
L 126.409302 142.453259 
L 127.490698 142.19713 
L 129.653488 142.055696 
L 143.711628 142.044941 
L 164.25814 142.090359 
L 165.339535 142.19713 
L 166.42093 142.453259 
L 167.502326 142.931772 
L 171.827907 145.591682 
L 172.909302 145.847811 
L 175.072093 145.989245 
L 189.130233 146 
L 209.676744 145.956786 
L 210.75814 145.855198 
L 211.839535 145.611499 
L 212.92093 145.156211 
L 217.246512 142.625396 
L 218.327907 142.381698 
L 220.490698 142.247128 
L 235.630233 142.236896 
L 255.095349 142.280109 
L 256.176744 142.381698 
L 257.25814 142.625396 
L 258.339535 143.080685 
L 262.665116 145.611499 
L 263.746512 145.855198 
L 265.909302 145.989767 
L 281.048837 146 
L 301.4 146 
L 301.4 146 
" style="fill:none;stroke:#c54102;stroke-linecap:square;stroke-width:2;"/>
   </g>
   <g id="line2d_40">
    <path clip-path="url(#p46a057ec13)" d="M -1 146 
L 28.002326 145.934273 
L 29.083721 145.77976 
L 30.165116 145.409102 
L 31.246512 144.716622 
L 34.490698 141.559812 
L 35.572093 140.867332 
L 36.653488 140.496674 
L 38.816279 140.291998 
L 48.548837 140.276434 
L 73.42093 140.342161 
L 74.502326 140.496674 
L 75.583721 140.867332 
L 76.665116 141.559812 
L 79.909302 144.716622 
L 80.990698 145.409102 
L 82.072093 145.77976 
L 84.234884 145.984436 
L 93.967442 146 
L 118.839535 145.941287 
L 119.92093 145.803263 
L 121.002326 145.472159 
L 122.083721 144.853576 
L 125.327907 142.03364 
L 126.409302 141.415057 
L 127.490698 141.083953 
L 129.653488 140.901119 
L 141.548837 140.887216 
L 164.25814 140.945929 
L 165.339535 141.083953 
L 166.42093 141.415057 
L 167.502326 142.03364 
L 170.746512 144.853576 
L 171.827907 145.472159 
L 172.909302 145.803263 
L 175.072093 145.986097 
L 186.967442 146 
L 209.676744 145.944077 
L 210.75814 145.812612 
L 211.839535 145.497244 
L 212.92093 144.908059 
L 216.165116 142.222138 
L 217.246512 141.632953 
L 218.327907 141.317585 
L 220.490698 141.14344 
L 232.386047 141.130198 
L 255.095349 141.18612 
L 256.176744 141.317585 
L 257.25814 141.632953 
L 258.339535 142.222138 
L 261.583721 144.908059 
L 262.665116 145.497244 
L 263.746512 145.812612 
L 265.909302 145.986758 
L 277.804651 146 
L 301.4 146 
L 301.4 146 
" style="fill:none;stroke:#157f3b;stroke-linecap:square;stroke-width:2;"/>
   </g>
  </g>
 </g>
 <defs>
  <clipPath id="p46a057ec13">
   <rect height="138.6" width="279" x="10.7" y="10.7"/>
  </clipPath>
 </defs>
</svg>
