<?xml version="1.0" encoding="utf-8" standalone="no"?>
<!DOCTYPE svg PUBLIC "-//W3C//DTD SVG 1.1//EN"
  "http://www.w3.org/Graphics/SVG/1.1/DTD/svg11.dtd">
<!-- Created with matplotlib (http://matplotlib.org/) -->
<svg height="110pt" version="1.1" viewBox="0 0 257 110" width="257pt" xmlns="http://www.w3.org/2000/svg" xmlns:xlink="http://www.w3.org/1999/xlink">
 <defs>
  <style type="text/css">
*{stroke-linecap:butt;stroke-linejoin:round;}
  </style>
 </defs>
 <g id="figure_1">
  <g id="patch_1">
   <path d="M 0 110.46834 
L 257.238095 110.46834 
L 257.238095 0 
L 0 0 
z
" style="fill:#ffffff;"/>
  </g>
  <g id="axes_1">
   <g id="patch_2">
    <path d="M 23.338095 93.86 
L 246.538095 93.86 
L 246.538095 10.7 
L 23.338095 10.7 
z
" style="fill:#ffffff;"/>
   </g>
   <g id="line2d_1">
    <path clip-path="url(#pb2a02d75d7)" d="M 41.938095 90.766397 
L 79.138095 90.766397 
" style="fill:none;stroke:#cccccc;stroke-linecap:square;stroke-width:1.75;"/>
   </g>
   <g id="line2d_2">
    <path clip-path="url(#pb2a02d75d7)" d="M 116.338095 91.111677 
L 153.538095 91.111677 
" style="fill:none;stroke:#cccccc;stroke-linecap:square;stroke-width:1.75;"/>
   </g>
   <g id="line2d_3">
    <path clip-path="url(#pb2a02d75d7)" d="M 190.738095 91.141392 
L 227.938095 91.141392 
" style="fill:none;stroke:#cccccc;stroke-linecap:square;stroke-width:1.75;"/>
   </g>
   <g id="line2d_4">
    <path clip-path="url(#pb2a02d75d7)" d="M 41.938095 78.535422 
L 79.138095 78.535422 
" style="fill:none;stroke:#cccccc;stroke-linecap:square;stroke-width:1.75;"/>
   </g>
   <g id="line2d_5">
    <path clip-path="url(#pb2a02d75d7)" d="M 116.338095 78.908164 
L 153.538095 78.908164 
" style="fill:none;stroke:#cccccc;stroke-linecap:square;stroke-width:1.75;"/>
   </g>
   <g id="line2d_6">
    <path clip-path="url(#pb2a02d75d7)" d="M 190.738095 79.228952 
L 227.938095 79.228952 
" style="fill:none;stroke:#cccccc;stroke-linecap:square;stroke-width:1.75;"/>
   </g>
   <g id="line2d_7">
    <path clip-path="url(#pb2a02d75d7)" d="M 41.938095 90.887172 
L 79.138095 90.887172 
" style="fill:none;stroke:#cccccc;stroke-linecap:square;stroke-width:1.75;"/>
   </g>
   <g id="line2d_8">
    <path clip-path="url(#pb2a02d75d7)" d="M 116.338095 91.232024 
L 153.538095 91.232024 
" style="fill:none;stroke:#cccccc;stroke-linecap:square;stroke-width:1.75;"/>
   </g>
   <g id="line2d_9">
    <path clip-path="url(#pb2a02d75d7)" d="M 190.738095 91.258326 
L 227.938095 91.258326 
" style="fill:none;stroke:#cccccc;stroke-linecap:square;stroke-width:1.75;"/>
   </g>
   <g id="line2d_10">
    <path clip-path="url(#pb2a02d75d7)" d="M 41.938095 81.506327 
L 79.138095 81.506327 
" style="fill:none;stroke:#cccccc;stroke-linecap:square;stroke-width:1.75;"/>
   </g>
   <g id="line2d_11">
    <path clip-path="url(#pb2a02d75d7)" d="M 116.338095 81.875293 
L 153.538095 81.875293 
" style="fill:none;stroke:#cccccc;stroke-linecap:square;stroke-width:1.75;"/>
   </g>
   <g id="line2d_12">
    <path clip-path="url(#pb2a02d75d7)" d="M 190.738095 82.135373 
L 227.938095 82.135373 
" style="fill:none;stroke:#cccccc;stroke-linecap:square;stroke-width:1.75;"/>
   </g>
   <g id="line2d_13">
    <path clip-path="url(#pb2a02d75d7)" d="M 41.938095 89.050899 
L 79.138095 89.050899 
" style="fill:none;stroke:#cccccc;stroke-linecap:square;stroke-width:1.75;"/>
   </g>
   <g id="line2d_14">
    <path clip-path="url(#pb2a02d75d7)" d="M 116.338095 89.401927 
L 153.538095 89.401927 
" style="fill:none;stroke:#cccccc;stroke-linecap:square;stroke-width:1.75;"/>
   </g>
   <g id="line2d_15">
    <path clip-path="url(#pb2a02d75d7)" d="M 190.738095 89.478992 
L 227.938095 89.478992 
" style="fill:none;stroke:#cccccc;stroke-linecap:square;stroke-width:1.75;"/>
   </g>
   <g id="line2d_16">
    <path clip-path="url(#pb2a02d75d7)" d="M 41.938095 87.7815 
L 79.138095 87.7815 
" style="fill:none;stroke:#cccccc;stroke-linecap:square;stroke-width:1.75;"/>
   </g>
   <g id="line2d_17">
    <path clip-path="url(#pb2a02d75d7)" d="M 116.338095 88.136384 
L 153.538095 88.136384 
" style="fill:none;stroke:#cccccc;stroke-linecap:square;stroke-width:1.75;"/>
   </g>
   <g id="line2d_18">
    <path clip-path="url(#pb2a02d75d7)" d="M 190.738095 88.247122 
L 227.938095 88.247122 
" style="fill:none;stroke:#cccccc;stroke-linecap:square;stroke-width:1.75;"/>
   </g>
   <g id="line2d_19">
    <path clip-path="url(#pb2a02d75d7)" d="M 41.938095 89.538769 
L 79.138095 89.538769 
" style="fill:none;stroke:#cccccc;stroke-linecap:square;stroke-width:1.75;"/>
   </g>
   <g id="line2d_20">
    <path clip-path="url(#pb2a02d75d7)" d="M 116.338095 89.888226 
L 153.538095 89.888226 
" style="fill:none;stroke:#cccccc;stroke-linecap:square;stroke-width:1.75;"/>
   </g>
   <g id="line2d_21">
    <path clip-path="url(#pb2a02d75d7)" d="M 190.738095 89.95204 
L 227.938095 89.95204 
" style="fill:none;stroke:#cccccc;stroke-linecap:square;stroke-width:1.75;"/>
   </g>
   <g id="line2d_22">
    <path clip-path="url(#pb2a02d75d7)" d="M 41.938095 86.737932 
L 79.138095 86.737932 
" style="fill:none;stroke:#cccccc;stroke-linecap:square;stroke-width:1.75;"/>
   </g>
   <g id="line2d_23">
    <path clip-path="url(#pb2a02d75d7)" d="M 116.338095 87.095731 
L 153.538095 87.095731 
" style="fill:none;stroke:#cccccc;stroke-linecap:square;stroke-width:1.75;"/>
   </g>
   <g id="line2d_24">
    <path clip-path="url(#pb2a02d75d7)" d="M 190.738095 87.233283 
L 227.938095 87.233283 
" style="fill:none;stroke:#cccccc;stroke-linecap:square;stroke-width:1.75;"/>
   </g>
   <g id="line2d_25">
    <path clip-path="url(#pb2a02d75d7)" d="M 41.938095 89.849083 
L 79.138095 89.849083 
" style="fill:none;stroke:#cccccc;stroke-linecap:square;stroke-width:1.75;"/>
   </g>
   <g id="line2d_26">
    <path clip-path="url(#pb2a02d75d7)" d="M 116.338095 90.197514 
L 153.538095 90.197514 
" style="fill:none;stroke:#cccccc;stroke-linecap:square;stroke-width:1.75;"/>
   </g>
   <g id="line2d_27">
    <path clip-path="url(#pb2a02d75d7)" d="M 190.738095 90.252811 
L 227.938095 90.252811 
" style="fill:none;stroke:#cccccc;stroke-linecap:square;stroke-width:1.75;"/>
   </g>
   <g id="line2d_28">
    <path clip-path="url(#pb2a02d75d7)" d="M 41.938095 69.483643 
L 79.138095 69.483643 
" style="fill:none;stroke:#cccccc;stroke-linecap:square;stroke-width:1.75;"/>
   </g>
   <g id="line2d_29">
    <path clip-path="url(#pb2a02d75d7)" d="M 116.338095 69.856419 
L 153.538095 69.856419 
" style="fill:none;stroke:#cccccc;stroke-linecap:square;stroke-width:1.75;"/>
   </g>
   <g id="line2d_30">
    <path clip-path="url(#pb2a02d75d7)" d="M 190.738095 70.322135 
L 227.938095 70.322135 
" style="fill:none;stroke:#cccccc;stroke-linecap:square;stroke-width:1.75;"/>
   </g>
   <g id="line2d_31">
    <path clip-path="url(#pb2a02d75d7)" d="M 41.938095 91.052962 
L 79.138095 91.052962 
" style="fill:none;stroke:#cccccc;stroke-linecap:square;stroke-width:1.75;"/>
   </g>
   <g id="line2d_32">
    <path clip-path="url(#pb2a02d75d7)" d="M 116.338095 91.397222 
L 153.538095 91.397222 
" style="fill:none;stroke:#cccccc;stroke-linecap:square;stroke-width:1.75;"/>
   </g>
   <g id="line2d_33">
    <path clip-path="url(#pb2a02d75d7)" d="M 190.738095 91.418822 
L 227.938095 91.418822 
" style="fill:none;stroke:#cccccc;stroke-linecap:square;stroke-width:1.75;"/>
   </g>
   <g id="line2d_34">
    <path clip-path="url(#pb2a02d75d7)" d="M 41.938095 86.537673 
L 79.138095 86.537673 
" style="fill:none;stroke:#cccccc;stroke-linecap:square;stroke-width:1.75;"/>
   </g>
   <g id="line2d_35">
    <path clip-path="url(#pb2a02d75d7)" d="M 116.338095 86.896006 
L 153.538095 86.896006 
" style="fill:none;stroke:#cccccc;stroke-linecap:square;stroke-width:1.75;"/>
   </g>
   <g id="line2d_36">
    <path clip-path="url(#pb2a02d75d7)" d="M 190.738095 87.038613 
L 227.938095 87.038613 
" style="fill:none;stroke:#cccccc;stroke-linecap:square;stroke-width:1.75;"/>
   </g>
   <g id="line2d_37">
    <path clip-path="url(#pb2a02d75d7)" d="M 41.938095 71.748714 
L 79.138095 71.748714 
" style="fill:none;stroke:#cccccc;stroke-linecap:square;stroke-width:1.75;"/>
   </g>
   <g id="line2d_38">
    <path clip-path="url(#pb2a02d75d7)" d="M 116.338095 72.123104 
L 153.538095 72.123104 
" style="fill:none;stroke:#cccccc;stroke-linecap:square;stroke-width:1.75;"/>
   </g>
   <g id="line2d_39">
    <path clip-path="url(#pb2a02d75d7)" d="M 190.738095 72.558242 
L 227.938095 72.558242 
" style="fill:none;stroke:#cccccc;stroke-linecap:square;stroke-width:1.75;"/>
   </g>
   <g id="line2d_40">
    <path clip-path="url(#pb2a02d75d7)" d="M 41.938095 83.592147 
L 79.138095 83.592147 
" style="fill:none;stroke:#cccccc;stroke-linecap:square;stroke-width:1.75;"/>
   </g>
   <g id="line2d_41">
    <path clip-path="url(#pb2a02d75d7)" d="M 116.338095 83.957351 
L 153.538095 83.957351 
" style="fill:none;stroke:#cccccc;stroke-linecap:square;stroke-width:1.75;"/>
   </g>
   <g id="line2d_42">
    <path clip-path="url(#pb2a02d75d7)" d="M 190.738095 84.170962 
L 227.938095 84.170962 
" style="fill:none;stroke:#cccccc;stroke-linecap:square;stroke-width:1.75;"/>
   </g>
   <g id="line2d_43">
    <path clip-path="url(#pb2a02d75d7)" d="M 41.938095 89.6849 
L 79.138095 89.6849 
" style="fill:none;stroke:#cccccc;stroke-linecap:square;stroke-width:1.75;"/>
   </g>
   <g id="line2d_44">
    <path clip-path="url(#pb2a02d75d7)" d="M 116.338095 90.033876 
L 153.538095 90.033876 
" style="fill:none;stroke:#cccccc;stroke-linecap:square;stroke-width:1.75;"/>
   </g>
   <g id="line2d_45">
    <path clip-path="url(#pb2a02d75d7)" d="M 190.738095 90.093688 
L 227.938095 90.093688 
" style="fill:none;stroke:#cccccc;stroke-linecap:square;stroke-width:1.75;"/>
   </g>
   <g id="line2d_46">
    <path clip-path="url(#pb2a02d75d7)" d="M 41.938095 90.995063 
L 79.138095 90.995063 
" style="fill:none;stroke:#cccccc;stroke-linecap:square;stroke-width:1.75;"/>
   </g>
   <g id="line2d_47">
    <path clip-path="url(#pb2a02d75d7)" d="M 116.338095 91.339531 
L 153.538095 91.339531 
" style="fill:none;stroke:#cccccc;stroke-linecap:square;stroke-width:1.75;"/>
   </g>
   <g id="line2d_48">
    <path clip-path="url(#pb2a02d75d7)" d="M 190.738095 91.362774 
L 227.938095 91.362774 
" style="fill:none;stroke:#cccccc;stroke-linecap:square;stroke-width:1.75;"/>
   </g>
   <g id="line2d_49">
    <path clip-path="url(#pb2a02d75d7)" d="M 41.938095 90.748983 
L 79.138095 90.748983 
" style="fill:none;stroke:#cccccc;stroke-linecap:square;stroke-width:1.75;"/>
   </g>
   <g id="line2d_50">
    <path clip-path="url(#pb2a02d75d7)" d="M 116.338095 91.094325 
L 153.538095 91.094325 
" style="fill:none;stroke:#cccccc;stroke-linecap:square;stroke-width:1.75;"/>
   </g>
   <g id="line2d_51">
    <path clip-path="url(#pb2a02d75d7)" d="M 190.738095 91.124531 
L 227.938095 91.124531 
" style="fill:none;stroke:#cccccc;stroke-linecap:square;stroke-width:1.75;"/>
   </g>
   <g id="line2d_52">
    <path clip-path="url(#pb2a02d75d7)" d="M 41.938095 88.881951 
L 79.138095 88.881951 
" style="fill:none;stroke:#cccccc;stroke-linecap:square;stroke-width:1.75;"/>
   </g>
   <g id="line2d_53">
    <path clip-path="url(#pb2a02d75d7)" d="M 116.338095 89.233512 
L 153.538095 89.233512 
" style="fill:none;stroke:#cccccc;stroke-linecap:square;stroke-width:1.75;"/>
   </g>
   <g id="line2d_54">
    <path clip-path="url(#pb2a02d75d7)" d="M 190.738095 89.315125 
L 227.938095 89.315125 
" style="fill:none;stroke:#cccccc;stroke-linecap:square;stroke-width:1.75;"/>
   </g>
   <g id="line2d_55">
    <path clip-path="url(#pb2a02d75d7)" d="M 41.938095 91.065311 
L 79.138095 91.065311 
" style="fill:none;stroke:#cccccc;stroke-linecap:square;stroke-width:1.75;"/>
   </g>
   <g id="line2d_56">
    <path clip-path="url(#pb2a02d75d7)" d="M 116.338095 91.409527 
L 153.538095 91.409527 
" style="fill:none;stroke:#cccccc;stroke-linecap:square;stroke-width:1.75;"/>
   </g>
   <g id="line2d_57">
    <path clip-path="url(#pb2a02d75d7)" d="M 190.738095 91.430775 
L 227.938095 91.430775 
" style="fill:none;stroke:#cccccc;stroke-linecap:square;stroke-width:1.75;"/>
   </g>
   <g id="line2d_58">
    <path clip-path="url(#pb2a02d75d7)" d="M 41.938095 90.715244 
L 79.138095 90.715244 
" style="fill:none;stroke:#cccccc;stroke-linecap:square;stroke-width:1.75;"/>
   </g>
   <g id="line2d_59">
    <path clip-path="url(#pb2a02d75d7)" d="M 116.338095 91.060705 
L 153.538095 91.060705 
" style="fill:none;stroke:#cccccc;stroke-linecap:square;stroke-width:1.75;"/>
   </g>
   <g id="line2d_60">
    <path clip-path="url(#pb2a02d75d7)" d="M 190.738095 91.091862 
L 227.938095 91.091862 
" style="fill:none;stroke:#cccccc;stroke-linecap:square;stroke-width:1.75;"/>
   </g>
   <g id="line2d_61">
    <path clip-path="url(#pb2a02d75d7)" d="M 41.938095 89.381419 
L 79.138095 89.381419 
" style="fill:none;stroke:#cccccc;stroke-linecap:square;stroke-width:1.75;"/>
   </g>
   <g id="line2d_62">
    <path clip-path="url(#pb2a02d75d7)" d="M 116.338095 89.731388 
L 153.538095 89.731388 
" style="fill:none;stroke:#cccccc;stroke-linecap:square;stroke-width:1.75;"/>
   </g>
   <g id="line2d_63">
    <path clip-path="url(#pb2a02d75d7)" d="M 190.738095 89.799494 
L 227.938095 89.799494 
" style="fill:none;stroke:#cccccc;stroke-linecap:square;stroke-width:1.75;"/>
   </g>
   <g id="line2d_64">
    <path clip-path="url(#pb2a02d75d7)" d="M 41.938095 83.472398 
L 79.138095 83.472398 
" style="fill:none;stroke:#cccccc;stroke-linecap:square;stroke-width:1.75;"/>
   </g>
   <g id="line2d_65">
    <path clip-path="url(#pb2a02d75d7)" d="M 116.338095 83.837842 
L 153.538095 83.837842 
" style="fill:none;stroke:#cccccc;stroke-linecap:square;stroke-width:1.75;"/>
   </g>
   <g id="line2d_66">
    <path clip-path="url(#pb2a02d75d7)" d="M 190.738095 84.054207 
L 227.938095 84.054207 
" style="fill:none;stroke:#cccccc;stroke-linecap:square;stroke-width:1.75;"/>
   </g>
   <g id="line2d_67">
    <path clip-path="url(#pb2a02d75d7)" d="M 41.938095 87.016295 
L 79.138095 87.016295 
" style="fill:none;stroke:#cccccc;stroke-linecap:square;stroke-width:1.75;"/>
   </g>
   <g id="line2d_68">
    <path clip-path="url(#pb2a02d75d7)" d="M 116.338095 87.373339 
L 153.538095 87.373339 
" style="fill:none;stroke:#cccccc;stroke-linecap:square;stroke-width:1.75;"/>
   </g>
   <g id="line2d_69">
    <path clip-path="url(#pb2a02d75d7)" d="M 190.738095 87.503815 
L 227.938095 87.503815 
" style="fill:none;stroke:#cccccc;stroke-linecap:square;stroke-width:1.75;"/>
   </g>
   <g id="line2d_70">
    <path clip-path="url(#pb2a02d75d7)" d="M 41.938095 60.049822 
L 79.138095 60.049822 
" style="fill:none;stroke:#cccccc;stroke-linecap:square;stroke-width:1.75;"/>
   </g>
   <g id="line2d_71">
    <path clip-path="url(#pb2a02d75d7)" d="M 116.338095 60.404205 
L 153.538095 60.404205 
" style="fill:none;stroke:#cccccc;stroke-linecap:square;stroke-width:1.75;"/>
   </g>
   <g id="line2d_72">
    <path clip-path="url(#pb2a02d75d7)" d="M 190.738095 60.955994 
L 227.938095 60.955994 
" style="fill:none;stroke:#cccccc;stroke-linecap:square;stroke-width:1.75;"/>
   </g>
   <g id="line2d_73">
    <path clip-path="url(#pb2a02d75d7)" d="M 41.938095 90.650608 
L 79.138095 90.650608 
" style="fill:none;stroke:#cccccc;stroke-linecap:square;stroke-width:1.75;"/>
   </g>
   <g id="line2d_74">
    <path clip-path="url(#pb2a02d75d7)" d="M 116.338095 90.996296 
L 153.538095 90.996296 
" style="fill:none;stroke:#cccccc;stroke-linecap:square;stroke-width:1.75;"/>
   </g>
   <g id="line2d_75">
    <path clip-path="url(#pb2a02d75d7)" d="M 190.738095 91.029273 
L 227.938095 91.029273 
" style="fill:none;stroke:#cccccc;stroke-linecap:square;stroke-width:1.75;"/>
   </g>
   <g id="line2d_76">
    <path clip-path="url(#pb2a02d75d7)" d="M 41.938095 79.535694 
L 79.138095 79.535694 
" style="fill:none;stroke:#cccccc;stroke-linecap:square;stroke-width:1.75;"/>
   </g>
   <g id="line2d_77">
    <path clip-path="url(#pb2a02d75d7)" d="M 116.338095 79.907372 
L 153.538095 79.907372 
" style="fill:none;stroke:#cccccc;stroke-linecap:square;stroke-width:1.75;"/>
   </g>
   <g id="line2d_78">
    <path clip-path="url(#pb2a02d75d7)" d="M 190.738095 80.208442 
L 227.938095 80.208442 
" style="fill:none;stroke:#cccccc;stroke-linecap:square;stroke-width:1.75;"/>
   </g>
   <g id="line2d_79">
    <path clip-path="url(#pb2a02d75d7)" d="M 41.938095 89.505991 
L 79.138095 89.505991 
" style="fill:none;stroke:#cccccc;stroke-linecap:square;stroke-width:1.75;"/>
   </g>
   <g id="line2d_80">
    <path clip-path="url(#pb2a02d75d7)" d="M 116.338095 89.855555 
L 153.538095 89.855555 
" style="fill:none;stroke:#cccccc;stroke-linecap:square;stroke-width:1.75;"/>
   </g>
   <g id="line2d_81">
    <path clip-path="url(#pb2a02d75d7)" d="M 190.738095 89.920265 
L 227.938095 89.920265 
" style="fill:none;stroke:#cccccc;stroke-linecap:square;stroke-width:1.75;"/>
   </g>
   <g id="line2d_82">
    <path clip-path="url(#pb2a02d75d7)" d="M 41.938095 85.566483 
L 79.138095 85.566483 
" style="fill:none;stroke:#cccccc;stroke-linecap:square;stroke-width:1.75;"/>
   </g>
   <g id="line2d_83">
    <path clip-path="url(#pb2a02d75d7)" d="M 116.338095 85.927283 
L 153.538095 85.927283 
" style="fill:none;stroke:#cccccc;stroke-linecap:square;stroke-width:1.75;"/>
   </g>
   <g id="line2d_84">
    <path clip-path="url(#pb2a02d75d7)" d="M 190.738095 86.093996 
L 227.938095 86.093996 
" style="fill:none;stroke:#cccccc;stroke-linecap:square;stroke-width:1.75;"/>
   </g>
   <g id="line2d_85">
    <path clip-path="url(#pb2a02d75d7)" d="M 41.938095 85.965292 
L 79.138095 85.965292 
" style="fill:none;stroke:#cccccc;stroke-linecap:square;stroke-width:1.75;"/>
   </g>
   <g id="line2d_86">
    <path clip-path="url(#pb2a02d75d7)" d="M 116.338095 86.325103 
L 153.538095 86.325103 
" style="fill:none;stroke:#cccccc;stroke-linecap:square;stroke-width:1.75;"/>
   </g>
   <g id="line2d_87">
    <path clip-path="url(#pb2a02d75d7)" d="M 190.738095 86.482 
L 227.938095 86.482 
" style="fill:none;stroke:#cccccc;stroke-linecap:square;stroke-width:1.75;"/>
   </g>
   <g id="line2d_88">
    <path clip-path="url(#pb2a02d75d7)" d="M 41.938095 85.702166 
L 79.138095 85.702166 
" style="fill:none;stroke:#cccccc;stroke-linecap:square;stroke-width:1.75;"/>
   </g>
   <g id="line2d_89">
    <path clip-path="url(#pb2a02d75d7)" d="M 116.338095 86.062633 
L 153.538095 86.062633 
" style="fill:none;stroke:#cccccc;stroke-linecap:square;stroke-width:1.75;"/>
   </g>
   <g id="line2d_90">
    <path clip-path="url(#pb2a02d75d7)" d="M 190.738095 86.22602 
L 227.938095 86.22602 
" style="fill:none;stroke:#cccccc;stroke-linecap:square;stroke-width:1.75;"/>
   </g>
   <g id="line2d_91">
    <path clip-path="url(#pb2a02d75d7)" d="M 41.938095 90.621526 
L 79.138095 90.621526 
" style="fill:none;stroke:#cccccc;stroke-linecap:square;stroke-width:1.75;"/>
   </g>
   <g id="line2d_92">
    <path clip-path="url(#pb2a02d75d7)" d="M 116.338095 90.967316 
L 153.538095 90.967316 
" style="fill:none;stroke:#cccccc;stroke-linecap:square;stroke-width:1.75;"/>
   </g>
   <g id="line2d_93">
    <path clip-path="url(#pb2a02d75d7)" d="M 190.738095 91.001111 
L 227.938095 91.001111 
" style="fill:none;stroke:#cccccc;stroke-linecap:square;stroke-width:1.75;"/>
   </g>
   <g id="line2d_94">
    <path clip-path="url(#pb2a02d75d7)" d="M 41.938095 90.767297 
L 79.138095 90.767297 
" style="fill:none;stroke:#cccccc;stroke-linecap:square;stroke-width:1.75;"/>
   </g>
   <g id="line2d_95">
    <path clip-path="url(#pb2a02d75d7)" d="M 116.338095 91.112575 
L 153.538095 91.112575 
" style="fill:none;stroke:#cccccc;stroke-linecap:square;stroke-width:1.75;"/>
   </g>
   <g id="line2d_96">
    <path clip-path="url(#pb2a02d75d7)" d="M 190.738095 91.142264 
L 227.938095 91.142264 
" style="fill:none;stroke:#cccccc;stroke-linecap:square;stroke-width:1.75;"/>
   </g>
   <g id="line2d_97">
    <path clip-path="url(#pb2a02d75d7)" d="M 41.938095 88.241109 
L 79.138095 88.241109 
" style="fill:none;stroke:#cccccc;stroke-linecap:square;stroke-width:1.75;"/>
   </g>
   <g id="line2d_98">
    <path clip-path="url(#pb2a02d75d7)" d="M 116.338095 88.594636 
L 153.538095 88.594636 
" style="fill:none;stroke:#cccccc;stroke-linecap:square;stroke-width:1.75;"/>
   </g>
   <g id="line2d_99">
    <path clip-path="url(#pb2a02d75d7)" d="M 190.738095 88.693317 
L 227.938095 88.693317 
" style="fill:none;stroke:#cccccc;stroke-linecap:square;stroke-width:1.75;"/>
   </g>
   <g id="line2d_100">
    <path clip-path="url(#pb2a02d75d7)" d="M 41.938095 80.84756 
L 79.138095 80.84756 
" style="fill:none;stroke:#cccccc;stroke-linecap:square;stroke-width:1.75;"/>
   </g>
   <g id="line2d_101">
    <path clip-path="url(#pb2a02d75d7)" d="M 116.338095 81.217523 
L 153.538095 81.217523 
" style="fill:none;stroke:#cccccc;stroke-linecap:square;stroke-width:1.75;"/>
   </g>
   <g id="line2d_102">
    <path clip-path="url(#pb2a02d75d7)" d="M 190.738095 81.491622 
L 227.938095 81.491622 
" style="fill:none;stroke:#cccccc;stroke-linecap:square;stroke-width:1.75;"/>
   </g>
   <g id="line2d_103">
    <path clip-path="url(#pb2a02d75d7)" d="M 41.938095 89.072296 
L 79.138095 89.072296 
" style="fill:none;stroke:#cccccc;stroke-linecap:square;stroke-width:1.75;"/>
   </g>
   <g id="line2d_104">
    <path clip-path="url(#pb2a02d75d7)" d="M 116.338095 89.423256 
L 153.538095 89.423256 
" style="fill:none;stroke:#cccccc;stroke-linecap:square;stroke-width:1.75;"/>
   </g>
   <g id="line2d_105">
    <path clip-path="url(#pb2a02d75d7)" d="M 190.738095 89.499743 
L 227.938095 89.499743 
" style="fill:none;stroke:#cccccc;stroke-linecap:square;stroke-width:1.75;"/>
   </g>
   <g id="line2d_106">
    <path clip-path="url(#pb2a02d75d7)" d="M 41.938095 88.540044 
L 79.138095 88.540044 
" style="fill:none;stroke:#cccccc;stroke-linecap:square;stroke-width:1.75;"/>
   </g>
   <g id="line2d_107">
    <path clip-path="url(#pb2a02d75d7)" d="M 116.338095 88.892665 
L 153.538095 88.892665 
" style="fill:none;stroke:#cccccc;stroke-linecap:square;stroke-width:1.75;"/>
   </g>
   <g id="line2d_108">
    <path clip-path="url(#pb2a02d75d7)" d="M 190.738095 88.983421 
L 227.938095 88.983421 
" style="fill:none;stroke:#cccccc;stroke-linecap:square;stroke-width:1.75;"/>
   </g>
   <g id="line2d_109">
    <path clip-path="url(#pb2a02d75d7)" d="M 41.938095 90.501522 
L 79.138095 90.501522 
" style="fill:none;stroke:#cccccc;stroke-linecap:square;stroke-width:1.75;"/>
   </g>
   <g id="line2d_110">
    <path clip-path="url(#pb2a02d75d7)" d="M 116.338095 90.84773 
L 153.538095 90.84773 
" style="fill:none;stroke:#cccccc;stroke-linecap:square;stroke-width:1.75;"/>
   </g>
   <g id="line2d_111">
    <path clip-path="url(#pb2a02d75d7)" d="M 190.738095 90.884894 
L 227.938095 90.884894 
" style="fill:none;stroke:#cccccc;stroke-linecap:square;stroke-width:1.75;"/>
   </g>
   <g id="matplotlib.axis_1"/>
   <g id="matplotlib.axis_2">
    <g id="ytick_1">
     <g id="line2d_112">
      <defs>
       <path d="M 0 0 
L -3.5 0 
" id="m3b97ac54af" style="stroke:#000000;stroke-width:0.8;"/>
      </defs>
      <g>
       <use style="stroke:#000000;stroke-width:0.8;" x="23.338095" xlink:href="#m3b97ac54af" y="91.926047"/>
      </g>
     </g>
     <g id="text_1">
      <!-- $0$ -->
      <defs>
       <path d="M 42 31.640625 
C 42 37.75 41.90625 48.125 37.703125 56.109375 
C 34 63.109375 28.09375 65.59375 22.90625 65.59375 
C 18.09375 65.59375 12 63.40625 8.203125 56.203125 
C 4.203125 48.71875 3.796875 39.4375 3.796875 31.640625 
C 3.796875 25.953125 3.90625 17.28125 7 9.671875 
C 11.296875 -0.609375 19 -2 22.90625 -2 
C 27.5 -2 34.5 -0.109375 38.59375 9.375 
C 41.59375 16.28125 42 24.359375 42 31.640625 
z
M 22.90625 -0.40625 
C 16.5 -0.40625 12.703125 5.078125 11.296875 12.6875 
C 10.203125 18.5625 10.203125 27.15625 10.203125 32.75 
C 10.203125 40.4375 10.203125 46.828125 11.5 52.921875 
C 13.40625 61.390625 19 64 22.90625 64 
C 27 64 32.296875 61.296875 34.203125 53.125 
C 35.5 47.4375 35.59375 40.734375 35.59375 32.75 
C 35.59375 26.25 35.59375 18.265625 34.40625 12.375 
C 32.296875 1.484375 26.40625 -0.40625 22.90625 -0.40625 
z
" id="CMR17-48"/>
      </defs>
      <g transform="translate(7.2 99.024367)scale(0.2 -0.2)">
       <use transform="scale(0.996264)" xlink:href="#CMR17-48"/>
      </g>
     </g>
    </g>
    <g id="ytick_2">
     <g id="line2d_113">
      <g>
       <use style="stroke:#000000;stroke-width:0.8;" x="23.338095" xlink:href="#m3b97ac54af" y="14.567907"/>
      </g>
     </g>
     <g id="text_2">
      <!-- $1$ -->
      <defs>
       <path d="M 26.59375 63.40625 
C 26.59375 65.5 26.5 65.5 25.09375 65.5 
C 21.203125 61.1875 15.296875 59.796875 9.703125 59.796875 
C 9.40625 59.796875 8.90625 59.796875 8.796875 59.5 
C 8.703125 59.296875 8.703125 59.09375 8.703125 57 
C 11.796875 57 17 57.59375 21 59.984375 
L 21 7.203125 
C 21 3.6875 20.796875 2.5 12.203125 2.5 
L 9.203125 2.5 
L 9.203125 0 
C 14 0 19 0 23.796875 0 
C 28.59375 0 33.59375 0 38.40625 0 
L 38.40625 2.5 
L 35.40625 2.5 
C 26.796875 2.5 26.59375 3.59375 26.59375 7.15625 
z
" id="CMR17-49"/>
      </defs>
      <g transform="translate(7.2 21.666227)scale(0.2 -0.2)">
       <use transform="scale(0.996264)" xlink:href="#CMR17-49"/>
      </g>
     </g>
    </g>
   </g>
   <g id="line2d_114">
    <path clip-path="url(#pb2a02d75d7)" d="M 41.938095 56.725396 
L 79.138095 56.725396 
" style="fill:none;stroke:#1764ab;stroke-linecap:square;stroke-width:2;"/>
   </g>
   <g id="line2d_115">
    <path clip-path="url(#pb2a02d75d7)" d="M 116.338095 57.068805 
L 153.538095 57.068805 
" style="fill:none;stroke:#1764ab;stroke-linecap:square;stroke-width:2;"/>
   </g>
   <g id="line2d_116">
    <path clip-path="url(#pb2a02d75d7)" d="M 190.738095 57.634918 
L 227.938095 57.634918 
" style="fill:none;stroke:#1764ab;stroke-linecap:square;stroke-width:2;"/>
   </g>
   <g id="patch_3">
    <path d="M 23.338095 93.86 
L 23.338095 10.7 
" style="fill:none;stroke:#000000;stroke-linecap:square;stroke-linejoin:miter;stroke-width:0.8;"/>
   </g>
   <g id="patch_4">
    <path d="M 246.538095 93.86 
L 246.538095 10.7 
" style="fill:none;stroke:#000000;stroke-linecap:square;stroke-linejoin:miter;stroke-width:0.8;"/>
   </g>
   <g id="patch_5">
    <path d="M 23.338095 93.86 
L 246.538095 93.86 
" style="fill:none;stroke:#000000;stroke-linecap:square;stroke-linejoin:miter;stroke-width:0.8;"/>
   </g>
   <g id="patch_6">
    <path d="M 23.338095 10.7 
L 246.538095 10.7 
" style="fill:none;stroke:#000000;stroke-linecap:square;stroke-linejoin:miter;stroke-width:0.8;"/>
   </g>
   <g id="line2d_117">
    <path clip-path="url(#pb2a02d75d7)" d="M 41.938095 83.874371 
L 79.138095 83.874371 
" style="fill:none;stroke:#c54102;stroke-linecap:square;stroke-width:2;"/>
   </g>
   <g id="line2d_118">
    <path clip-path="url(#pb2a02d75d7)" d="M 116.338095 84.238995 
L 153.538095 84.238995 
" style="fill:none;stroke:#c54102;stroke-linecap:square;stroke-width:2;"/>
   </g>
   <g id="line2d_119">
    <path clip-path="url(#pb2a02d75d7)" d="M 190.738095 84.446076 
L 227.938095 84.446076 
" style="fill:none;stroke:#c54102;stroke-linecap:square;stroke-width:2;"/>
   </g>
   <g id="line2d_120">
    <path clip-path="url(#pb2a02d75d7)" d="M 41.938095 78.783639 
L 79.138095 78.783639 
" style="fill:none;stroke:#157f3b;stroke-linecap:square;stroke-width:2;"/>
   </g>
   <g id="line2d_121">
    <path clip-path="url(#pb2a02d75d7)" d="M 116.338095 79.156137 
L 153.538095 79.156137 
" style="fill:none;stroke:#157f3b;stroke-linecap:square;stroke-width:2;"/>
   </g>
   <g id="line2d_122">
    <path clip-path="url(#pb2a02d75d7)" d="M 190.738095 79.4721 
L 227.938095 79.4721 
" style="fill:none;stroke:#157f3b;stroke-linecap:square;stroke-width:2;"/>
   </g>
  </g>
 </g>
 <defs>
  <clipPath id="pb2a02d75d7">
   <rect height="83.16" width="223.2" x="23.338095" y="10.7"/>
  </clipPath>
 </defs>
</svg>
