<?xml version="1.0" encoding="utf-8" standalone="no"?>
<!DOCTYPE svg PUBLIC "-//W3C//DTD SVG 1.1//EN"
  "http://www.w3.org/Graphics/SVG/1.1/DTD/svg11.dtd">
<!-- Created with matplotlib (http://matplotlib.org/) -->
<svg height="160pt" version="1.1" viewBox="0 0 300 160" width="300pt" xmlns="http://www.w3.org/2000/svg" xmlns:xlink="http://www.w3.org/1999/xlink">
 <defs>
  <style type="text/css">
*{stroke-linecap:butt;stroke-linejoin:round;}
  </style>
 </defs>
 <g id="figure_1">
  <g id="patch_1">
   <path d="M 0 160 
L 300.4 160 
L 300.4 0 
L 0 0 
z
" style="fill:#ffffff;"/>
  </g>
  <g id="axes_1">
   <g id="patch_2">
    <path d="M 10.7 149.3 
L 289.7 149.3 
L 289.7 10.7 
L 10.7 10.7 
z
" style="fill:#ffffff;"/>
   </g>
   <g id="patch_3">
    <path clip-path="url(#pd0b387a3e5)" d="M 33.409302 149.3 
L 33.409302 10.7 
L 78.827907 10.7 
L 78.827907 149.3 
z
" style="fill:#fee7dc;stroke:#fee7dc;stroke-linejoin:miter;"/>
   </g>
   <g id="patch_4">
    <path clip-path="url(#pd0b387a3e5)" d="M 124.246512 149.3 
L 124.246512 10.7 
L 169.665116 10.7 
L 169.665116 149.3 
z
" style="fill:#fdd4c2;stroke:#fdd4c2;stroke-linejoin:miter;"/>
   </g>
   <g id="patch_5">
    <path clip-path="url(#pd0b387a3e5)" d="M 215.083721 149.3 
L 215.083721 10.7 
L 260.502326 10.7 
L 260.502326 149.3 
z
" style="fill:#fcbba1;stroke:#fcbba1;stroke-linejoin:miter;"/>
   </g>
   <g id="line2d_1">
    <path clip-path="url(#pd0b387a3e5)" d="M -1 146 
L 28.002326 145.963454 
L 29.083721 145.877541 
L 30.165116 145.671446 
L 31.246512 145.286409 
L 35.572093 143.146106 
L 36.653488 142.940011 
L 38.816279 142.826205 
L 56.118605 142.817552 
L 73.42093 142.854097 
L 74.502326 142.940011 
L 75.583721 143.146106 
L 76.665116 143.531142 
L 80.990698 145.671446 
L 82.072093 145.877541 
L 84.234884 145.991346 
L 101.537209 146 
L 119.92093 145.900555 
L 121.002326 145.733192 
L 122.083721 145.420517 
L 126.409302 143.682449 
L 128.572093 143.445319 
L 135.060465 143.415641 
L 165.339535 143.515086 
L 166.42093 143.682449 
L 167.502326 143.995124 
L 171.827907 145.733192 
L 173.990698 145.970322 
L 180.47907 146 
L 210.75814 145.905571 
L 211.839535 145.74665 
L 212.92093 145.449746 
L 217.246512 143.799345 
L 219.409302 143.574176 
L 225.897674 143.545995 
L 256.176744 143.640424 
L 257.25814 143.799345 
L 258.339535 144.096249 
L 262.665116 145.74665 
L 264.827907 145.971819 
L 271.316279 146 
L 301.4 146 
L 301.4 146 
" style="fill:none;stroke:#cccccc;stroke-linecap:square;stroke-width:1.75;"/>
   </g>
   <g id="line2d_2">
    <path clip-path="url(#pd0b387a3e5)" d="M -1 146 
L 25.839535 145.954758 
L 26.92093 145.755551 
L 28.002326 144.967671 
L 29.083721 142.540829 
L 30.165116 136.719139 
L 31.246512 125.84279 
L 32.327907 110.017795 
L 33.409302 92.085727 
L 34.490698 76.260732 
L 35.572093 65.384383 
L 36.653488 59.562693 
L 37.734884 57.135851 
L 38.816279 56.347971 
L 39.897674 56.148764 
L 43.14186 56.103522 
L 71.25814 56.148764 
L 72.339535 56.347971 
L 73.42093 57.135851 
L 74.502326 59.562693 
L 75.583721 65.384383 
L 76.665116 76.260732 
L 77.746512 92.085727 
L 78.827907 110.017795 
L 79.909302 125.84279 
L 80.990698 136.719139 
L 82.072093 142.540829 
L 83.153488 144.967671 
L 84.234884 145.755551 
L 85.316279 145.954758 
L 88.560465 146 
L 116.676744 145.954998 
L 117.75814 145.756845 
L 118.839535 144.973136 
L 119.92093 142.559143 
L 121.002326 136.768274 
L 122.083721 125.949506 
L 123.165116 110.208291 
L 124.246512 92.371159 
L 125.327907 76.629944 
L 126.409302 65.811176 
L 127.490698 60.020307 
L 128.572093 57.606314 
L 129.653488 56.822605 
L 130.734884 56.624452 
L 135.060465 56.57945 
L 162.095349 56.624452 
L 163.176744 56.822605 
L 164.25814 57.606314 
L 165.339535 60.020307 
L 166.42093 65.811176 
L 167.502326 76.629944 
L 168.583721 92.371159 
L 169.665116 110.208291 
L 170.746512 125.949506 
L 171.827907 136.768274 
L 172.909302 142.559143 
L 173.990698 144.973136 
L 175.072093 145.756845 
L 176.153488 145.954998 
L 180.47907 146 
L 207.513953 145.955708 
L 208.595349 145.760684 
L 209.676744 144.989347 
L 210.75814 142.613462 
L 211.839535 136.91401 
L 212.92093 126.266032 
L 214.002326 110.773315 
L 215.083721 93.217767 
L 216.165116 77.725051 
L 217.246512 67.077073 
L 218.327907 61.377621 
L 219.409302 59.001736 
L 220.490698 58.230399 
L 221.572093 58.035374 
L 225.897674 57.991082 
L 252.932558 58.035374 
L 254.013953 58.230399 
L 255.095349 59.001736 
L 256.176744 61.377621 
L 257.25814 67.077073 
L 258.339535 77.725051 
L 259.42093 93.217767 
L 260.502326 110.773315 
L 261.583721 126.266032 
L 262.665116 136.91401 
L 263.746512 142.613462 
L 264.827907 144.989347 
L 265.909302 145.760684 
L 266.990698 145.955708 
L 271.316279 146 
L 301.4 146 
L 301.4 146 
" style="fill:none;stroke:#cccccc;stroke-linecap:square;stroke-width:1.75;"/>
   </g>
   <g id="line2d_3">
    <path clip-path="url(#pd0b387a3e5)" d="M -1 146 
L 28.002326 145.965379 
L 29.083721 145.88399 
L 30.165116 145.688749 
L 31.246512 145.323989 
L 35.572093 143.296401 
L 36.653488 143.10116 
L 38.816279 142.993348 
L 57.2 142.98515 
L 73.42093 143.019771 
L 74.502326 143.10116 
L 75.583721 143.296401 
L 76.665116 143.66116 
L 80.990698 145.688749 
L 82.072093 145.88399 
L 84.234884 145.991802 
L 102.618605 146 
L 119.92093 145.906971 
L 121.002326 145.750405 
L 122.083721 145.457902 
L 126.409302 143.831963 
L 128.572093 143.610131 
L 135.060465 143.582368 
L 165.339535 143.675397 
L 166.42093 143.831963 
L 167.502326 144.124466 
L 171.827907 145.750405 
L 173.990698 145.972237 
L 180.47907 146 
L 210.75814 145.911695 
L 211.839535 145.76308 
L 212.92093 145.485431 
L 217.246512 143.942061 
L 219.409302 143.731494 
L 225.897674 143.705141 
L 256.176744 143.793446 
L 257.25814 143.942061 
L 258.339535 144.21971 
L 262.665116 145.76308 
L 264.827907 145.973647 
L 271.316279 146 
L 301.4 146 
L 301.4 146 
" style="fill:none;stroke:#cccccc;stroke-linecap:square;stroke-width:1.75;"/>
   </g>
   <g id="line2d_4">
    <path clip-path="url(#pd0b387a3e5)" d="M -1 146 
L 28.002326 145.956892 
L 29.083721 145.855551 
L 30.165116 145.612448 
L 31.246512 145.15827 
L 35.572093 142.633634 
L 36.653488 142.39053 
L 38.816279 142.256289 
L 53.955814 142.246081 
L 73.42093 142.28919 
L 74.502326 142.39053 
L 75.583721 142.633634 
L 76.665116 143.087811 
L 80.990698 145.612448 
L 82.072093 145.855551 
L 84.234884 145.989792 
L 99.374419 146 
L 118.839535 145.963794 
L 119.92093 145.878678 
L 121.002326 145.674497 
L 122.083721 145.293037 
L 126.409302 143.172613 
L 127.490698 142.968432 
L 129.653488 142.855684 
L 148.037209 142.84711 
L 164.25814 142.883317 
L 165.339535 142.968432 
L 166.42093 143.172613 
L 167.502326 143.554073 
L 171.827907 145.674497 
L 172.909302 145.878678 
L 175.072093 145.991427 
L 193.455814 146 
L 209.676744 145.965586 
L 210.75814 145.884684 
L 211.839535 145.690609 
L 212.92093 145.32803 
L 217.246512 143.312562 
L 218.327907 143.118487 
L 220.490698 143.01132 
L 238.874419 143.003171 
L 255.095349 143.037585 
L 256.176744 143.118487 
L 257.25814 143.312562 
L 258.339535 143.675141 
L 262.665116 145.690609 
L 263.746512 145.884684 
L 265.909302 145.991851 
L 284.293023 146 
L 301.4 146 
L 301.4 146 
" style="fill:none;stroke:#cccccc;stroke-linecap:square;stroke-width:1.75;"/>
   </g>
   <g id="line2d_5">
    <path clip-path="url(#pd0b387a3e5)" d="M -1 146 
L 25.839535 145.976064 
L 26.92093 145.870672 
L 28.002326 145.453836 
L 29.083721 144.169893 
L 30.165116 141.089872 
L 31.246512 135.335636 
L 32.327907 126.963272 
L 33.409302 117.47614 
L 34.490698 109.103776 
L 35.572093 103.34954 
L 36.653488 100.269519 
L 37.734884 98.985576 
L 38.816279 98.56874 
L 40.97907 98.442595 
L 71.25814 98.463348 
L 72.339535 98.56874 
L 73.42093 98.985576 
L 74.502326 100.269519 
L 75.583721 103.34954 
L 76.665116 109.103776 
L 77.746512 117.47614 
L 78.827907 126.963272 
L 79.909302 135.335636 
L 80.990698 141.089872 
L 82.072093 144.169893 
L 83.153488 145.453836 
L 84.234884 145.870672 
L 86.397674 145.996817 
L 116.676744 145.976406 
L 117.75814 145.872518 
L 118.839535 145.461633 
L 119.92093 144.196019 
L 121.002326 141.159967 
L 122.083721 135.487877 
L 123.165116 127.235034 
L 124.246512 117.883337 
L 125.327907 109.630494 
L 126.409302 103.958403 
L 127.490698 100.922352 
L 128.572093 99.656737 
L 129.653488 99.245853 
L 131.816279 99.121508 
L 162.095349 99.141965 
L 163.176744 99.245853 
L 164.25814 99.656737 
L 165.339535 100.922352 
L 166.42093 103.958403 
L 167.502326 109.630494 
L 168.583721 117.883337 
L 169.665116 127.235034 
L 170.746512 135.487877 
L 171.827907 141.159967 
L 172.909302 144.196019 
L 173.990698 145.461633 
L 175.072093 145.872518 
L 177.234884 145.996863 
L 207.513953 145.977141 
L 208.595349 145.876488 
L 209.676744 145.478398 
L 210.75814 144.252195 
L 211.839535 141.310688 
L 212.92093 135.815229 
L 214.002326 127.819382 
L 215.083721 118.758901 
L 216.165116 110.763055 
L 217.246512 105.267596 
L 218.327907 102.326088 
L 219.409302 101.099885 
L 220.490698 100.701796 
L 222.653488 100.581323 
L 252.932558 100.601143 
L 254.013953 100.701796 
L 255.095349 101.099885 
L 256.176744 102.326088 
L 257.25814 105.267596 
L 258.339535 110.763055 
L 259.42093 118.758901 
L 260.502326 127.819382 
L 261.583721 135.815229 
L 262.665116 141.310688 
L 263.746512 144.252195 
L 264.827907 145.478398 
L 265.909302 145.876488 
L 268.072093 145.996961 
L 301.4 146 
L 301.4 146 
" style="fill:none;stroke:#cccccc;stroke-linecap:square;stroke-width:1.75;"/>
   </g>
   <g id="line2d_6">
    <path clip-path="url(#pd0b387a3e5)" d="M -1 146 
L 28.002326 145.901407 
L 29.083721 145.669632 
L 30.165116 145.113632 
L 31.246512 144.074886 
L 32.327907 142.56352 
L 34.490698 139.339553 
L 35.572093 138.300807 
L 36.653488 137.744807 
L 37.734884 137.513031 
L 39.897674 137.41876 
L 71.25814 137.41876 
L 73.42093 137.513031 
L 74.502326 137.744807 
L 75.583721 138.300807 
L 76.665116 139.339553 
L 77.746512 140.850919 
L 79.909302 144.074886 
L 80.990698 145.113632 
L 82.072093 145.669632 
L 83.153488 145.901407 
L 85.316279 145.995679 
L 116.676744 145.995993 
L 118.839535 145.908572 
L 119.92093 145.69364 
L 121.002326 145.178044 
L 122.083721 144.214783 
L 123.165116 142.813247 
L 125.327907 139.823564 
L 126.409302 138.860303 
L 127.490698 138.344707 
L 128.572093 138.129775 
L 130.734884 138.042354 
L 162.095349 138.042354 
L 164.25814 138.129775 
L 165.339535 138.344707 
L 166.42093 138.860303 
L 167.502326 139.823564 
L 168.583721 141.2251 
L 170.746512 144.214783 
L 171.827907 145.178044 
L 172.909302 145.69364 
L 173.990698 145.908572 
L 176.153488 145.995993 
L 207.513953 145.996177 
L 209.676744 145.912759 
L 210.75814 145.70767 
L 211.839535 145.215688 
L 212.92093 144.296543 
L 214.002326 142.959195 
L 216.165116 140.106433 
L 217.246512 139.187288 
L 218.327907 138.695305 
L 219.409302 138.490216 
L 221.572093 138.406799 
L 252.932558 138.406799 
L 255.095349 138.490216 
L 256.176744 138.695305 
L 257.25814 139.187288 
L 258.339535 140.106433 
L 259.42093 141.443781 
L 261.583721 144.296543 
L 262.665116 145.215688 
L 263.746512 145.70767 
L 264.827907 145.912759 
L 266.990698 145.996177 
L 301.4 146 
L 301.4 146 
" style="fill:none;stroke:#cccccc;stroke-linecap:square;stroke-width:1.75;"/>
   </g>
   <g id="line2d_7">
    <path clip-path="url(#pd0b387a3e5)" d="M -1 146 
L 28.002326 145.916359 
L 29.083721 145.719732 
L 30.165116 145.248048 
L 31.246512 144.366827 
L 34.490698 140.3496 
L 35.572093 139.468379 
L 36.653488 138.996696 
L 37.734884 138.800069 
L 40.97907 138.716915 
L 73.42093 138.800069 
L 74.502326 138.996696 
L 75.583721 139.468379 
L 76.665116 140.3496 
L 79.909302 144.366827 
L 80.990698 145.248048 
L 82.072093 145.719732 
L 83.153488 145.916359 
L 86.397674 145.999513 
L 118.839535 145.923457 
L 119.92093 145.743516 
L 121.002326 145.311859 
L 122.083721 144.505419 
L 125.327907 140.829098 
L 126.409302 140.022658 
L 127.490698 139.591002 
L 128.572093 139.411061 
L 131.816279 139.334964 
L 164.25814 139.411061 
L 165.339535 139.591002 
L 166.42093 140.022658 
L 167.502326 140.829098 
L 170.746512 144.505419 
L 171.827907 145.311859 
L 172.909302 145.743516 
L 173.990698 145.923457 
L 177.234884 145.999554 
L 209.676744 145.927016 
L 210.75814 145.755443 
L 211.839535 145.343861 
L 212.92093 144.574924 
L 216.165116 141.069567 
L 217.246512 140.30063 
L 218.327907 139.889048 
L 219.409302 139.717475 
L 222.653488 139.644916 
L 255.095349 139.717475 
L 256.176744 139.889048 
L 257.25814 140.30063 
L 258.339535 141.069567 
L 261.583721 144.574924 
L 262.665116 145.343861 
L 263.746512 145.755443 
L 264.827907 145.927016 
L 268.072093 145.999575 
L 301.4 146 
L 301.4 146 
" style="fill:none;stroke:#cccccc;stroke-linecap:square;stroke-width:1.75;"/>
   </g>
   <g id="line2d_8">
    <path clip-path="url(#pd0b387a3e5)" d="M -1 146 
L 28.002326 145.948845 
L 29.083721 145.828587 
L 30.165116 145.540105 
L 31.246512 145.001148 
L 34.490698 142.544204 
L 35.572093 142.005247 
L 36.653488 141.716764 
L 38.816279 141.557465 
L 51.793023 141.545352 
L 73.42093 141.596507 
L 74.502326 141.716764 
L 75.583721 142.005247 
L 76.665116 142.544204 
L 79.909302 145.001148 
L 80.990698 145.540105 
L 82.072093 145.828587 
L 84.234884 145.987887 
L 97.211628 146 
L 118.839535 145.955787 
L 119.92093 145.851851 
L 121.002326 145.60252 
L 122.083721 145.136708 
L 126.409302 142.547398 
L 127.490698 142.298067 
L 129.653488 142.160387 
L 144.793023 142.149918 
L 164.25814 142.19413 
L 165.339535 142.298067 
L 166.42093 142.547398 
L 167.502326 143.01321 
L 171.827907 145.60252 
L 172.909302 145.851851 
L 175.072093 145.989531 
L 190.211628 146 
L 209.676744 145.957938 
L 210.75814 145.859057 
L 211.839535 145.621855 
L 212.92093 145.178702 
L 217.246512 142.715346 
L 218.327907 142.478143 
L 220.490698 142.34716 
L 235.630233 142.3372 
L 255.095349 142.379262 
L 256.176744 142.478143 
L 257.25814 142.715346 
L 258.339535 143.158499 
L 262.665116 145.621855 
L 263.746512 145.859057 
L 265.909302 145.99004 
L 281.048837 146 
L 301.4 146 
L 301.4 146 
" style="fill:none;stroke:#cccccc;stroke-linecap:square;stroke-width:1.75;"/>
   </g>
   <g id="line2d_9">
    <path clip-path="url(#pd0b387a3e5)" d="M -1 146 
L 28.002326 145.943262 
L 29.083721 145.809882 
L 30.165116 145.489918 
L 31.246512 144.892146 
L 34.490698 142.167082 
L 35.572093 141.569311 
L 36.653488 141.249347 
L 38.816279 141.072663 
L 50.711628 141.059228 
L 73.42093 141.115966 
L 74.502326 141.249347 
L 75.583721 141.569311 
L 76.665116 142.167082 
L 79.909302 144.892146 
L 80.990698 145.489918 
L 82.072093 145.809882 
L 84.234884 145.986565 
L 96.130233 146 
L 118.839535 145.950233 
L 119.92093 145.833238 
L 121.002326 145.552581 
L 122.083721 145.028246 
L 125.327907 142.637958 
L 126.409302 142.113623 
L 127.490698 141.832967 
L 129.653488 141.677989 
L 142.630233 141.666204 
L 164.25814 141.715972 
L 165.339535 141.832967 
L 166.42093 142.113623 
L 167.502326 142.637958 
L 170.746512 145.028246 
L 171.827907 145.552581 
L 172.909302 145.833238 
L 175.072093 145.988215 
L 188.048837 146 
L 209.676744 145.95263 
L 210.75814 145.84127 
L 211.839535 145.574133 
L 212.92093 145.075053 
L 217.246512 142.30082 
L 218.327907 142.033683 
L 220.490698 141.88617 
L 234.548837 141.874953 
L 255.095349 141.922323 
L 256.176744 142.033683 
L 257.25814 142.30082 
L 258.339535 142.7999 
L 262.665116 145.574133 
L 263.746512 145.84127 
L 265.909302 145.988783 
L 279.967442 146 
L 301.4 146 
L 301.4 146 
" style="fill:none;stroke:#cccccc;stroke-linecap:square;stroke-width:1.75;"/>
   </g>
   <g id="line2d_10">
    <path clip-path="url(#pd0b387a3e5)" d="M -1 146 
L 26.92093 145.904845 
L 28.002326 145.598154 
L 29.083721 144.653478 
L 30.165116 142.387317 
L 31.246512 138.153573 
L 32.327907 131.99351 
L 33.409302 125.013245 
L 34.490698 118.853183 
L 35.572093 114.619438 
L 36.653488 112.353278 
L 37.734884 111.408602 
L 38.816279 111.10191 
L 40.97907 111.009097 
L 71.25814 111.024366 
L 72.339535 111.10191 
L 73.42093 111.408602 
L 74.502326 112.353278 
L 75.583721 114.619438 
L 76.665116 118.853183 
L 77.746512 125.013245 
L 78.827907 131.99351 
L 79.909302 138.153573 
L 80.990698 142.387317 
L 82.072093 144.653478 
L 83.153488 145.598154 
L 84.234884 145.904845 
L 86.397674 145.997658 
L 116.676744 145.982735 
L 117.75814 145.906712 
L 118.839535 145.606037 
L 119.92093 144.679892 
L 121.002326 142.458185 
L 122.083721 138.307491 
L 123.165116 132.268267 
L 124.246512 125.424929 
L 125.327907 119.385705 
L 126.409302 115.235011 
L 127.490698 113.013305 
L 128.572093 112.08716 
L 129.653488 111.786484 
L 131.816279 111.695492 
L 162.095349 111.710462 
L 163.176744 111.786484 
L 164.25814 112.08716 
L 165.339535 113.013305 
L 166.42093 115.235011 
L 167.502326 119.385705 
L 168.583721 125.424929 
L 169.665116 132.268267 
L 170.746512 138.307491 
L 171.827907 142.458185 
L 172.909302 144.679892 
L 173.990698 145.606037 
L 175.072093 145.906712 
L 177.234884 145.997704 
L 207.513953 145.98335 
L 208.595349 145.910037 
L 209.676744 145.620078 
L 210.75814 144.726941 
L 211.839535 142.584418 
L 212.92093 138.581658 
L 214.002326 132.757676 
L 215.083721 126.158241 
L 216.165116 120.334259 
L 217.246512 116.331499 
L 218.327907 114.188976 
L 219.409302 113.295839 
L 220.490698 113.00588 
L 222.653488 112.918131 
L 252.932558 112.932567 
L 254.013953 113.00588 
L 255.095349 113.295839 
L 256.176744 114.188976 
L 257.25814 116.331499 
L 258.339535 120.334259 
L 259.42093 126.158241 
L 260.502326 132.757676 
L 261.583721 138.581658 
L 262.665116 142.584418 
L 263.746512 144.726941 
L 264.827907 145.620078 
L 265.909302 145.910037 
L 268.072093 145.997786 
L 301.4 146 
L 301.4 146 
" style="fill:none;stroke:#cccccc;stroke-linecap:square;stroke-width:1.75;"/>
   </g>
   <g id="line2d_11">
    <path clip-path="url(#pd0b387a3e5)" d="M -1 146 
L 26.92093 145.973676 
L 28.002326 145.888833 
L 29.083721 145.627496 
L 30.165116 145.000583 
L 31.246512 143.829355 
L 32.327907 142.125228 
L 34.490698 138.490072 
L 35.572093 137.318844 
L 36.653488 136.691931 
L 37.734884 136.430595 
L 39.897674 136.324299 
L 69.095349 136.319427 
L 73.42093 136.430595 
L 74.502326 136.691931 
L 75.583721 137.318844 
L 76.665116 138.490072 
L 77.746512 140.194199 
L 79.909302 143.829355 
L 80.990698 145.000583 
L 82.072093 145.627496 
L 83.153488 145.888833 
L 85.316279 145.995128 
L 114.513953 146 
L 118.839535 145.896051 
L 119.92093 145.651685 
L 121.002326 145.06548 
L 122.083721 143.970305 
L 123.165116 142.376834 
L 125.327907 138.977725 
L 126.409302 137.88255 
L 127.490698 137.296345 
L 128.572093 137.051979 
L 130.734884 136.952585 
L 161.013953 136.948636 
L 164.25814 137.051979 
L 165.339535 137.296345 
L 166.42093 137.88255 
L 167.502326 138.977725 
L 168.583721 140.571196 
L 170.746512 143.970305 
L 171.827907 145.06548 
L 172.909302 145.651685 
L 173.990698 145.896051 
L 176.153488 145.995444 
L 206.432558 145.999422 
L 209.676744 145.900756 
L 210.75814 145.66745 
L 211.839535 145.107778 
L 212.92093 144.062172 
L 214.002326 142.540825 
L 216.165116 139.295566 
L 217.246512 138.249961 
L 218.327907 137.690288 
L 219.409302 137.456982 
L 221.572093 137.362088 
L 252.932558 137.362088 
L 255.095349 137.456982 
L 256.176744 137.690288 
L 257.25814 138.249961 
L 258.339535 139.295566 
L 259.42093 140.816913 
L 261.583721 144.062172 
L 262.665116 145.107778 
L 263.746512 145.66745 
L 264.827907 145.900756 
L 266.990698 145.995651 
L 299.432558 146 
L 301.4 146 
L 301.4 146 
" style="fill:none;stroke:#cccccc;stroke-linecap:square;stroke-width:1.75;"/>
   </g>
   <g id="line2d_12">
    <path clip-path="url(#pd0b387a3e5)" d="M -1 146 
L 26.92093 145.966366 
L 28.002326 145.857962 
L 29.083721 145.524054 
L 30.165116 144.723049 
L 31.246512 143.226575 
L 32.327907 141.049218 
L 33.409302 138.581949 
L 34.490698 136.404592 
L 35.572093 134.908118 
L 36.653488 134.107113 
L 37.734884 133.773205 
L 39.897674 133.637391 
L 62.606977 133.631167 
L 72.339535 133.6648 
L 73.42093 133.773205 
L 74.502326 134.107113 
L 75.583721 134.908118 
L 76.665116 136.404592 
L 77.746512 138.581949 
L 78.827907 141.049218 
L 79.909302 143.226575 
L 80.990698 144.723049 
L 82.072093 145.524054 
L 83.153488 145.857962 
L 85.316279 145.993775 
L 108.025581 146 
L 117.75814 145.968105 
L 118.839535 145.865304 
L 119.92093 145.548656 
L 121.002326 144.789056 
L 122.083721 143.369936 
L 123.165116 141.305129 
L 124.246512 138.965395 
L 125.327907 136.900588 
L 126.409302 135.481468 
L 127.490698 134.721868 
L 128.572093 134.40522 
L 130.734884 134.276427 
L 154.525581 134.270524 
L 163.176744 134.302419 
L 164.25814 134.40522 
L 165.339535 134.721868 
L 166.42093 135.481468 
L 167.502326 136.900588 
L 168.583721 138.965395 
L 169.665116 141.305129 
L 170.746512 143.369936 
L 171.827907 144.789056 
L 172.909302 145.548656 
L 173.990698 145.865304 
L 176.153488 145.994097 
L 199.944186 146 
L 208.595349 145.969511 
L 209.676744 145.87124 
L 210.75814 145.568547 
L 211.839535 144.842424 
L 212.92093 143.485847 
L 214.002326 141.512038 
L 215.083721 139.275421 
L 216.165116 137.301613 
L 217.246512 135.945036 
L 218.327907 135.218912 
L 219.409302 134.916219 
L 221.572093 134.793102 
L 246.444186 134.787459 
L 254.013953 134.817949 
L 255.095349 134.916219 
L 256.176744 135.218912 
L 257.25814 135.945036 
L 258.339535 137.301613 
L 259.42093 139.275421 
L 260.502326 141.512038 
L 261.583721 143.485847 
L 262.665116 144.842424 
L 263.746512 145.568547 
L 264.827907 145.87124 
L 266.990698 145.994357 
L 291.862791 146 
L 301.4 146 
L 301.4 146 
" style="fill:none;stroke:#cccccc;stroke-linecap:square;stroke-width:1.75;"/>
   </g>
   <g id="line2d_13">
    <path clip-path="url(#pd0b387a3e5)" d="M -1 146 
L 26.92093 145.936312 
L 28.002326 145.731041 
L 29.083721 145.09876 
L 30.165116 143.581997 
L 31.246512 140.748311 
L 32.327907 136.625322 
L 33.409302 131.953364 
L 34.490698 127.830375 
L 35.572093 124.99669 
L 36.653488 123.479927 
L 37.734884 122.847646 
L 38.816279 122.642374 
L 42.060465 122.578687 
L 72.339535 122.642374 
L 73.42093 122.847646 
L 74.502326 123.479927 
L 75.583721 124.99669 
L 76.665116 127.830375 
L 77.746512 131.953364 
L 78.827907 136.625322 
L 79.909302 140.748311 
L 80.990698 143.581997 
L 82.072093 145.09876 
L 83.153488 145.731041 
L 84.234884 145.936312 
L 87.47907 146 
L 117.75814 145.93814 
L 118.839535 145.738758 
L 119.92093 145.124621 
L 121.002326 143.651381 
L 122.083721 140.899007 
L 123.165116 136.894326 
L 124.246512 132.356428 
L 125.327907 128.351748 
L 126.409302 125.599373 
L 127.490698 124.126134 
L 128.572093 123.511996 
L 129.653488 123.312615 
L 132.897674 123.250754 
L 163.176744 123.312615 
L 164.25814 123.511996 
L 165.339535 124.126134 
L 166.42093 125.599373 
L 167.502326 128.351748 
L 168.583721 132.356428 
L 169.665116 136.894326 
L 170.746512 140.899007 
L 171.827907 143.651381 
L 172.909302 145.124621 
L 173.990698 145.738758 
L 175.072093 145.93814 
L 178.316279 146 
L 208.595349 145.940603 
L 209.676744 145.749162 
L 210.75814 145.159481 
L 211.839535 143.744911 
L 212.92093 141.102146 
L 214.002326 137.256945 
L 215.083721 132.899762 
L 216.165116 129.054561 
L 217.246512 126.411796 
L 218.327907 124.997225 
L 219.409302 124.407545 
L 220.490698 124.216103 
L 223.734884 124.156707 
L 254.013953 124.216103 
L 255.095349 124.407545 
L 256.176744 124.997225 
L 257.25814 126.411796 
L 258.339535 129.054561 
L 259.42093 132.899762 
L 260.502326 137.256945 
L 261.583721 141.102146 
L 262.665116 143.744911 
L 263.746512 145.159481 
L 264.827907 145.749162 
L 265.909302 145.940603 
L 269.153488 146 
L 301.4 146 
L 301.4 146 
" style="fill:none;stroke:#cccccc;stroke-linecap:square;stroke-width:1.75;"/>
   </g>
   <g id="line2d_14">
    <path clip-path="url(#pd0b387a3e5)" d="M -1 146 
L 26.92093 145.958257 
L 28.002326 145.823714 
L 29.083721 145.409294 
L 30.165116 144.415152 
L 31.246512 142.55785 
L 32.327907 139.855491 
L 33.409302 136.793317 
L 34.490698 134.090959 
L 35.572093 132.233656 
L 36.653488 131.239514 
L 37.734884 130.825094 
L 39.897674 130.656534 
L 58.281395 130.648808 
L 72.339535 130.690552 
L 73.42093 130.825094 
L 74.502326 131.239514 
L 75.583721 132.233656 
L 76.665116 134.090959 
L 77.746512 136.793317 
L 78.827907 139.855491 
L 79.909302 142.55785 
L 80.990698 144.415152 
L 82.072093 145.409294 
L 83.153488 145.823714 
L 85.316279 145.992274 
L 103.7 146 
L 117.75814 145.960024 
L 118.839535 145.831178 
L 119.92093 145.434306 
L 121.002326 144.482258 
L 122.083721 142.703599 
L 123.165116 140.115665 
L 124.246512 137.183151 
L 125.327907 134.595217 
L 126.409302 132.816558 
L 127.490698 131.86451 
L 128.572093 131.467638 
L 130.734884 131.306215 
L 150.2 131.298816 
L 163.176744 131.338792 
L 164.25814 131.467638 
L 165.339535 131.86451 
L 166.42093 132.816558 
L 167.502326 134.595217 
L 168.583721 137.183151 
L 169.665116 140.115665 
L 170.746512 142.703599 
L 171.827907 144.482258 
L 172.909302 145.434306 
L 173.990698 145.831178 
L 176.153488 145.992601 
L 195.618605 146 
L 208.595349 145.961738 
L 209.676744 145.838415 
L 210.75814 145.458554 
L 211.839535 144.547314 
L 212.92093 142.844894 
L 214.002326 140.367888 
L 215.083721 137.561073 
L 216.165116 135.084067 
L 217.246512 133.381647 
L 218.327907 132.470408 
L 219.409302 132.090546 
L 221.572093 131.936043 
L 242.118605 131.928961 
L 254.013953 131.967223 
L 255.095349 132.090546 
L 256.176744 132.470408 
L 257.25814 133.381647 
L 258.339535 135.084067 
L 259.42093 137.561073 
L 260.502326 140.367888 
L 261.583721 142.844894 
L 262.665116 144.547314 
L 263.746512 145.458554 
L 264.827907 145.838415 
L 266.990698 145.992919 
L 287.537209 146 
L 301.4 146 
L 301.4 146 
" style="fill:none;stroke:#cccccc;stroke-linecap:square;stroke-width:1.75;"/>
   </g>
   <g id="line2d_15">
    <path clip-path="url(#pd0b387a3e5)" d="M -1 146 
L 26.92093 145.967937 
L 28.002326 145.864595 
L 29.083721 145.546278 
L 30.165116 144.782676 
L 31.246512 143.356079 
L 32.327907 141.280394 
L 33.409302 138.928334 
L 34.490698 136.852648 
L 35.572093 135.426052 
L 36.653488 134.662449 
L 37.734884 134.344133 
L 39.897674 134.214661 
L 63.688372 134.208727 
L 72.339535 134.24079 
L 73.42093 134.344133 
L 74.502326 134.662449 
L 75.583721 135.426052 
L 76.665116 136.852648 
L 77.746512 138.928334 
L 78.827907 141.280394 
L 79.909302 143.356079 
L 80.990698 144.782676 
L 82.072093 145.546278 
L 83.153488 145.864595 
L 85.316279 145.994066 
L 109.106977 146 
L 117.75814 145.969669 
L 118.839535 145.871911 
L 119.92093 145.570795 
L 121.002326 144.848454 
L 122.083721 143.498943 
L 123.165116 141.535417 
L 124.246512 139.31045 
L 125.327907 137.346923 
L 126.409302 135.997413 
L 127.490698 135.275072 
L 128.572093 134.973955 
L 130.734884 134.85148 
L 155.606977 134.845866 
L 163.176744 134.876197 
L 164.25814 134.973955 
L 165.339535 135.275072 
L 166.42093 135.997413 
L 167.502326 137.346923 
L 168.583721 139.31045 
L 169.665116 141.535417 
L 170.746512 143.498943 
L 171.827907 144.848454 
L 172.909302 145.570795 
L 173.990698 145.871911 
L 176.153488 145.994387 
L 201.025581 146 
L 208.595349 145.971014 
L 209.676744 145.877588 
L 210.75814 145.589815 
L 211.839535 144.899486 
L 212.92093 143.609781 
L 214.002326 141.733271 
L 215.083721 139.606907 
L 216.165116 137.730397 
L 217.246512 136.440692 
L 218.327907 135.750363 
L 219.409302 135.46259 
L 221.572093 135.345543 
L 248.606977 135.340178 
L 254.013953 135.369164 
L 255.095349 135.46259 
L 256.176744 135.750363 
L 257.25814 136.440692 
L 258.339535 137.730397 
L 259.42093 139.606907 
L 260.502326 141.733271 
L 261.583721 143.609781 
L 262.665116 144.899486 
L 263.746512 145.589815 
L 264.827907 145.877588 
L 266.990698 145.994635 
L 294.025581 146 
L 301.4 146 
L 301.4 146 
" style="fill:none;stroke:#cccccc;stroke-linecap:square;stroke-width:1.75;"/>
   </g>
   <g id="line2d_16">
    <path clip-path="url(#pd0b387a3e5)" d="M -1 146 
L 28.002326 145.964181 
L 29.083721 145.879977 
L 30.165116 145.677982 
L 31.246512 145.300606 
L 35.572093 143.202882 
L 36.653488 143.000887 
L 38.816279 142.889345 
L 57.2 142.880864 
L 73.42093 142.916683 
L 74.502326 143.000887 
L 75.583721 143.202882 
L 76.665116 143.580258 
L 80.990698 145.677982 
L 82.072093 145.879977 
L 84.234884 145.991518 
L 102.618605 146 
L 119.92093 145.902979 
L 121.002326 145.739695 
L 122.083721 145.43464 
L 126.409302 143.73893 
L 128.572093 143.507579 
L 135.060465 143.478625 
L 165.339535 143.575646 
L 166.42093 143.73893 
L 167.502326 144.043985 
L 171.827907 145.739695 
L 173.990698 145.971046 
L 180.47907 146 
L 210.75814 145.907885 
L 211.839535 145.752857 
L 212.92093 145.463227 
L 217.246512 143.85326 
L 219.409302 143.633607 
L 225.897674 143.606117 
L 256.176744 143.698233 
L 257.25814 143.85326 
L 258.339535 144.14289 
L 262.665116 145.752857 
L 264.827907 145.97251 
L 271.316279 146 
L 301.4 146 
L 301.4 146 
" style="fill:none;stroke:#cccccc;stroke-linecap:square;stroke-width:1.75;"/>
   </g>
   <g id="line2d_17">
    <path clip-path="url(#pd0b387a3e5)" d="M -1 146 
L 26.92093 145.955349 
L 28.002326 145.811434 
L 29.083721 145.368147 
L 30.165116 144.304754 
L 31.246512 142.318076 
L 32.327907 139.427476 
L 33.409302 136.151998 
L 34.490698 133.261398 
L 35.572093 131.27472 
L 36.653488 130.211328 
L 37.734884 129.76804 
L 39.897674 129.587738 
L 57.2 129.579474 
L 72.339535 129.624126 
L 73.42093 129.76804 
L 74.502326 130.211328 
L 75.583721 131.27472 
L 76.665116 133.261398 
L 77.746512 136.151998 
L 78.827907 139.427476 
L 79.909302 142.318076 
L 80.990698 144.304754 
L 82.072093 145.368147 
L 83.153488 145.811434 
L 85.316279 145.991736 
L 102.618605 146 
L 117.75814 145.957126 
L 118.839535 145.818939 
L 119.92093 145.393293 
L 121.002326 144.372221 
L 122.083721 142.464608 
L 123.165116 139.689048 
L 124.246512 136.543926 
L 125.327907 133.768365 
L 126.409302 131.860752 
L 127.490698 130.83968 
L 128.572093 130.414034 
L 130.734884 130.240908 
L 149.118605 130.232973 
L 163.176744 130.275847 
L 164.25814 130.414034 
L 165.339535 130.83968 
L 166.42093 131.860752 
L 167.502326 133.768365 
L 168.583721 136.543926 
L 169.665116 139.689048 
L 170.746512 142.464608 
L 171.827907 144.372221 
L 172.909302 145.393293 
L 173.990698 145.818939 
L 176.153488 145.992065 
L 194.537209 146 
L 208.595349 145.958946 
L 209.676744 145.826624 
L 210.75814 145.419046 
L 211.839535 144.441315 
L 212.92093 142.614674 
L 214.002326 139.956927 
L 215.083721 136.945305 
L 216.165116 134.287558 
L 217.246512 132.460917 
L 218.327907 131.483186 
L 219.409302 131.075608 
L 221.572093 130.90983 
L 241.037209 130.902232 
L 254.013953 130.943286 
L 255.095349 131.075608 
L 256.176744 131.483186 
L 257.25814 132.460917 
L 258.339535 134.287558 
L 259.42093 136.945305 
L 260.502326 139.956927 
L 261.583721 142.614674 
L 262.665116 144.441315 
L 263.746512 145.419046 
L 264.827907 145.826624 
L 266.990698 145.992402 
L 286.455814 146 
L 301.4 146 
L 301.4 146 
" style="fill:none;stroke:#cccccc;stroke-linecap:square;stroke-width:1.75;"/>
   </g>
   <g id="line2d_18">
    <path clip-path="url(#pd0b387a3e5)" d="M -1 146 
L 26.92093 145.970612 
L 28.002326 145.875892 
L 29.083721 145.584134 
L 30.165116 144.884243 
L 31.246512 143.576675 
L 32.327907 141.674175 
L 33.409302 139.518359 
L 34.490698 137.615859 
L 35.572093 136.308291 
L 36.653488 135.6084 
L 37.734884 135.316642 
L 39.897674 135.197973 
L 65.851163 135.192534 
L 72.339535 135.221922 
L 73.42093 135.316642 
L 74.502326 135.6084 
L 75.583721 136.308291 
L 76.665116 137.615859 
L 77.746512 139.518359 
L 78.827907 141.674175 
L 79.909302 143.576675 
L 80.990698 144.884243 
L 82.072093 145.584134 
L 83.153488 145.875892 
L 85.316279 145.994561 
L 111.269767 146 
L 117.75814 145.972334 
L 118.839535 145.883164 
L 119.92093 145.608501 
L 121.002326 144.949619 
L 122.083721 143.718666 
L 123.165116 141.927639 
L 124.246512 139.89814 
L 125.327907 138.107113 
L 126.409302 136.876159 
L 127.490698 136.217277 
L 128.572093 135.942614 
L 130.734884 135.830899 
L 158.851163 135.825778 
L 163.176744 135.853444 
L 164.25814 135.942614 
L 165.339535 136.217277 
L 166.42093 136.876159 
L 167.502326 138.107113 
L 168.583721 139.89814 
L 169.665116 141.927639 
L 170.746512 143.718666 
L 171.827907 144.949619 
L 172.909302 145.608501 
L 173.990698 145.883164 
L 176.153488 145.99488 
L 204.269767 146 
L 208.595349 145.973572 
L 209.676744 145.888392 
L 210.75814 145.626019 
L 211.839535 144.996619 
L 212.92093 143.820746 
L 214.002326 142.10986 
L 216.165116 138.460286 
L 217.246512 137.284413 
L 218.327907 136.655013 
L 219.409302 136.39264 
L 221.572093 136.285923 
L 250.769767 136.281032 
L 255.095349 136.39264 
L 256.176744 136.655013 
L 257.25814 137.284413 
L 258.339535 138.460286 
L 259.42093 140.171172 
L 261.583721 143.820746 
L 262.665116 144.996619 
L 263.746512 145.626019 
L 264.827907 145.888392 
L 266.990698 145.995109 
L 296.188372 146 
L 301.4 146 
L 301.4 146 
" style="fill:none;stroke:#cccccc;stroke-linecap:square;stroke-width:1.75;"/>
   </g>
   <g id="line2d_19">
    <path clip-path="url(#pd0b387a3e5)" d="M -1 146 
L 28.002326 145.922511 
L 29.083721 145.740347 
L 30.165116 145.303359 
L 31.246512 144.486957 
L 34.490698 140.765223 
L 35.572093 139.948821 
L 36.653488 139.511833 
L 37.734884 139.329669 
L 40.97907 139.252632 
L 73.42093 139.329669 
L 74.502326 139.511833 
L 75.583721 139.948821 
L 76.665116 140.765223 
L 79.909302 144.486957 
L 80.990698 145.303359 
L 82.072093 145.740347 
L 83.153488 145.922511 
L 86.397674 145.999548 
L 118.839535 145.929581 
L 119.92093 145.764036 
L 121.002326 145.366915 
L 122.083721 144.624996 
L 125.327907 141.242806 
L 126.409302 140.500887 
L 127.490698 140.103766 
L 129.653488 139.884477 
L 139.386047 139.867802 
L 164.25814 139.938222 
L 165.339535 140.103766 
L 166.42093 140.500887 
L 167.502326 141.242806 
L 170.746512 144.624996 
L 171.827907 145.366915 
L 172.909302 145.764036 
L 175.072093 145.983325 
L 184.804651 146 
L 209.676744 145.932878 
L 210.75814 145.775086 
L 211.839535 145.396561 
L 212.92093 144.689383 
L 216.165116 141.46557 
L 217.246512 140.758393 
L 218.327907 140.379868 
L 220.490698 140.170848 
L 230.223256 140.154954 
L 255.095349 140.222075 
L 256.176744 140.379868 
L 257.25814 140.758393 
L 258.339535 141.46557 
L 261.583721 144.689383 
L 262.665116 145.396561 
L 263.746512 145.775086 
L 265.909302 145.984106 
L 275.64186 146 
L 301.4 146 
L 301.4 146 
" style="fill:none;stroke:#cccccc;stroke-linecap:square;stroke-width:1.75;"/>
   </g>
   <g id="line2d_20">
    <path clip-path="url(#pd0b387a3e5)" d="M -1 146 
L 28.002326 145.964305 
L 29.083721 145.880391 
L 30.165116 145.679092 
L 31.246512 145.303017 
L 35.572093 143.212526 
L 36.653488 143.011227 
L 38.816279 142.900071 
L 57.2 142.891618 
L 73.42093 142.927314 
L 74.502326 143.011227 
L 75.583721 143.212526 
L 76.665116 143.588601 
L 80.990698 145.679092 
L 82.072093 145.880391 
L 84.234884 145.991548 
L 102.618605 146 
L 119.92093 145.90339 
L 121.002326 145.740799 
L 122.083721 145.437039 
L 126.409302 143.748524 
L 128.572093 143.518155 
L 135.060465 143.489323 
L 165.339535 143.585933 
L 166.42093 143.748524 
L 167.502326 144.052285 
L 171.827907 145.740799 
L 173.990698 145.971169 
L 180.47907 146 
L 210.75814 145.908278 
L 211.839535 145.753911 
L 212.92093 145.465517 
L 217.246512 143.862418 
L 219.409302 143.643702 
L 225.897674 143.61633 
L 256.176744 143.708052 
L 257.25814 143.862418 
L 258.339535 144.150813 
L 262.665116 145.753911 
L 264.827907 145.972627 
L 271.316279 146 
L 301.4 146 
L 301.4 146 
" style="fill:none;stroke:#cccccc;stroke-linecap:square;stroke-width:1.75;"/>
   </g>
   <g id="line2d_21">
    <path clip-path="url(#pd0b387a3e5)" d="M -1 146 
L 26.92093 145.966548 
L 28.002326 145.858728 
L 29.083721 145.52662 
L 30.165116 144.729935 
L 31.246512 143.241532 
L 32.327907 141.075917 
L 33.409302 138.621954 
L 34.490698 136.45634 
L 35.572093 134.967936 
L 36.653488 134.171251 
L 37.734884 133.839144 
L 39.897674 133.704063 
L 62.606977 133.697872 
L 72.339535 133.731324 
L 73.42093 133.839144 
L 74.502326 134.171251 
L 75.583721 134.967936 
L 76.665116 136.45634 
L 77.746512 138.621954 
L 78.827907 141.075917 
L 79.909302 143.241532 
L 80.990698 144.729935 
L 82.072093 145.52662 
L 83.153488 145.858728 
L 85.316279 145.993809 
L 108.025581 146 
L 117.75814 145.968286 
L 118.839535 145.866067 
L 119.92093 145.551213 
L 121.002326 144.795916 
L 122.083721 143.384836 
L 123.165116 141.331727 
L 124.246512 139.005249 
L 125.327907 136.952139 
L 126.409302 135.541059 
L 127.490698 134.785763 
L 128.572093 134.470908 
L 130.734884 134.342845 
L 154.525581 134.336975 
L 163.176744 134.36869 
L 164.25814 134.470908 
L 165.339535 134.785763 
L 166.42093 135.541059 
L 167.502326 136.952139 
L 168.583721 139.005249 
L 169.665116 141.331727 
L 170.746512 143.384836 
L 171.827907 144.795916 
L 172.909302 145.551213 
L 173.990698 145.866067 
L 176.153488 145.99413 
L 199.944186 146 
L 208.595349 145.969684 
L 209.676744 145.871974 
L 210.75814 145.571004 
L 211.839535 144.849016 
L 212.92093 143.500163 
L 214.002326 141.537595 
L 215.083721 139.313714 
L 216.165116 137.351146 
L 217.246512 136.002294 
L 218.327907 135.280305 
L 219.409302 134.979336 
L 221.572093 134.85692 
L 246.444186 134.851309 
L 254.013953 134.881625 
L 255.095349 134.979336 
L 256.176744 135.280305 
L 257.25814 136.002294 
L 258.339535 137.351146 
L 259.42093 139.313714 
L 260.502326 141.537595 
L 261.583721 143.500163 
L 262.665116 144.849016 
L 263.746512 145.571004 
L 264.827907 145.871974 
L 266.990698 145.994389 
L 291.862791 146 
L 301.4 146 
L 301.4 146 
" style="fill:none;stroke:#cccccc;stroke-linecap:square;stroke-width:1.75;"/>
   </g>
   <g id="line2d_22">
    <path clip-path="url(#pd0b387a3e5)" d="M -1 146 
L 26.92093 145.943694 
L 28.002326 145.762213 
L 29.083721 145.203214 
L 30.165116 143.862245 
L 31.246512 141.356985 
L 32.327907 137.711854 
L 33.409302 133.581379 
L 34.490698 129.936247 
L 35.572093 127.430987 
L 36.653488 126.090018 
L 37.734884 125.531019 
L 38.816279 125.349539 
L 42.060465 125.293232 
L 72.339535 125.349539 
L 73.42093 125.531019 
L 74.502326 126.090018 
L 75.583721 127.430987 
L 76.665116 129.936247 
L 77.746512 133.581379 
L 78.827907 137.711854 
L 79.909302 141.356985 
L 80.990698 143.862245 
L 82.072093 145.203214 
L 83.153488 145.762213 
L 84.234884 145.943694 
L 87.47907 146 
L 117.75814 145.945504 
L 118.839535 145.769858 
L 119.92093 145.228832 
L 121.002326 143.930977 
L 122.083721 141.506264 
L 123.165116 137.978329 
L 124.246512 133.980654 
L 125.327907 130.452718 
L 126.409302 128.028006 
L 127.490698 126.730151 
L 128.572093 126.189124 
L 129.653488 126.013479 
L 132.897674 125.958983 
L 163.176744 126.013479 
L 164.25814 126.189124 
L 165.339535 126.730151 
L 166.42093 128.028006 
L 167.502326 130.452718 
L 168.583721 133.980654 
L 169.665116 137.978329 
L 170.746512 141.506264 
L 171.827907 143.930977 
L 172.909302 145.228832 
L 173.990698 145.769858 
L 175.072093 145.945504 
L 178.316279 146 
L 208.595349 145.947729 
L 209.676744 145.779254 
L 210.75814 145.260315 
L 211.839535 144.015445 
L 212.92093 141.689722 
L 214.002326 138.305814 
L 215.083721 134.471345 
L 216.165116 131.087438 
L 217.246512 128.761714 
L 218.327907 127.516844 
L 219.409302 126.997905 
L 220.490698 126.829431 
L 223.734884 126.777159 
L 254.013953 126.829431 
L 255.095349 126.997905 
L 256.176744 127.516844 
L 257.25814 128.761714 
L 258.339535 131.087438 
L 259.42093 134.471345 
L 260.502326 138.305814 
L 261.583721 141.689722 
L 262.665116 144.015445 
L 263.746512 145.260315 
L 264.827907 145.779254 
L 265.909302 145.947729 
L 269.153488 146 
L 301.4 146 
L 301.4 146 
" style="fill:none;stroke:#cccccc;stroke-linecap:square;stroke-width:1.75;"/>
   </g>
   <g id="line2d_23">
    <path clip-path="url(#pd0b387a3e5)" d="M -1 146 
L 28.002326 145.956545 
L 29.083721 145.85439 
L 30.165116 145.609333 
L 31.246512 145.151506 
L 35.572093 142.606579 
L 36.653488 142.361522 
L 38.816279 142.226202 
L 53.955814 142.215912 
L 73.42093 142.259367 
L 74.502326 142.361522 
L 75.583721 142.606579 
L 76.665116 143.064406 
L 80.990698 145.609333 
L 82.072093 145.85439 
L 84.234884 145.98971 
L 99.374419 146 
L 118.839535 145.963449 
L 119.92093 145.877523 
L 121.002326 145.671399 
L 122.083721 145.286307 
L 126.409302 143.145696 
L 127.490698 142.939571 
L 129.653488 142.82575 
L 146.955814 142.817095 
L 164.25814 142.853646 
L 165.339535 142.939571 
L 166.42093 143.145696 
L 167.502326 143.530788 
L 171.827907 145.671399 
L 172.909302 145.877523 
L 175.072093 145.991345 
L 192.374419 146 
L 209.676744 145.965257 
L 210.75814 145.883581 
L 211.839535 145.68765 
L 212.92093 145.321603 
L 217.246512 143.286857 
L 218.327907 143.090926 
L 220.490698 142.982733 
L 238.874419 142.974506 
L 255.095349 143.00925 
L 256.176744 143.090926 
L 257.25814 143.286857 
L 258.339535 143.652903 
L 262.665116 145.68765 
L 263.746512 145.883581 
L 265.909302 145.991773 
L 284.293023 146 
L 301.4 146 
L 301.4 146 
" style="fill:none;stroke:#cccccc;stroke-linecap:square;stroke-width:1.75;"/>
   </g>
   <g id="line2d_24">
    <path clip-path="url(#pd0b387a3e5)" d="M -1 146 
L 26.92093 145.90836 
L 28.002326 145.612996 
L 29.083721 144.703212 
L 30.165116 142.520754 
L 31.246512 138.443384 
L 32.327907 132.510847 
L 33.409302 125.788401 
L 34.490698 119.855863 
L 35.572093 115.778494 
L 36.653488 113.596035 
L 37.734884 112.686251 
L 38.816279 112.390887 
L 40.97907 112.301503 
L 71.25814 112.316208 
L 72.339535 112.390887 
L 73.42093 112.686251 
L 74.502326 113.596035 
L 75.583721 115.778494 
L 76.665116 119.855863 
L 77.746512 125.788401 
L 78.827907 132.510847 
L 79.909302 138.443384 
L 80.990698 142.520754 
L 82.072093 144.703212 
L 83.153488 145.612996 
L 84.234884 145.90836 
L 86.397674 145.997745 
L 116.676744 145.983385 
L 117.75814 145.910225 
L 118.839535 145.620872 
L 119.92093 144.729603 
L 121.002326 142.59156 
L 122.083721 138.597169 
L 123.165116 132.785365 
L 124.246512 126.199728 
L 125.327907 120.387924 
L 126.409302 116.393533 
L 127.490698 114.25549 
L 128.572093 113.364221 
L 129.653488 113.074868 
L 131.816279 112.987302 
L 162.095349 113.001708 
L 163.176744 113.074868 
L 164.25814 113.364221 
L 165.339535 114.25549 
L 166.42093 116.393533 
L 167.502326 120.387924 
L 168.583721 126.199728 
L 169.665116 132.785365 
L 170.746512 138.597169 
L 171.827907 142.59156 
L 172.909302 144.729603 
L 173.990698 145.620872 
L 175.072093 145.910225 
L 177.234884 145.997791 
L 207.513953 145.983985 
L 208.595349 145.913466 
L 209.676744 145.63456 
L 210.75814 144.77547 
L 211.839535 142.71462 
L 212.92093 138.864444 
L 214.002326 133.262472 
L 215.083721 126.914606 
L 216.165116 121.312634 
L 217.246512 117.462459 
L 218.327907 115.401608 
L 219.409302 114.542518 
L 220.490698 114.263612 
L 222.653488 114.179208 
L 252.932558 114.193094 
L 254.013953 114.263612 
L 255.095349 114.542518 
L 256.176744 115.401608 
L 257.25814 117.462459 
L 258.339535 121.312634 
L 259.42093 126.914606 
L 260.502326 133.262472 
L 261.583721 138.864444 
L 262.665116 142.71462 
L 263.746512 144.77547 
L 264.827907 145.63456 
L 265.909302 145.913466 
L 268.072093 145.997871 
L 301.4 146 
L 301.4 146 
" style="fill:none;stroke:#cccccc;stroke-linecap:square;stroke-width:1.75;"/>
   </g>
   <g id="line2d_25">
    <path clip-path="url(#pd0b387a3e5)" d="M -1 146 
L 26.92093 145.968453 
L 28.002326 145.866775 
L 29.083721 145.553584 
L 30.165116 144.802278 
L 31.246512 143.398654 
L 32.327907 141.356393 
L 33.409302 139.042208 
L 34.490698 136.999947 
L 35.572093 135.596323 
L 36.653488 134.845017 
L 37.734884 134.531826 
L 39.897674 134.40444 
L 64.769767 134.398601 
L 72.339535 134.430148 
L 73.42093 134.531826 
L 74.502326 134.845017 
L 75.583721 135.596323 
L 76.665116 136.999947 
L 77.746512 139.042208 
L 78.827907 141.356393 
L 79.909302 143.398654 
L 80.990698 144.802278 
L 82.072093 145.553584 
L 83.153488 145.866775 
L 85.316279 145.994161 
L 110.188372 146 
L 117.75814 145.970184 
L 118.839535 145.874083 
L 119.92093 145.578072 
L 121.002326 144.86798 
L 122.083721 143.541352 
L 123.165116 141.61112 
L 124.246512 139.42388 
L 125.327907 137.493648 
L 126.409302 136.16702 
L 127.490698 135.456928 
L 128.572093 135.160917 
L 130.734884 135.040518 
L 156.688372 135.035 
L 163.176744 135.064816 
L 164.25814 135.160917 
L 165.339535 135.456928 
L 166.42093 136.16702 
L 167.502326 137.493648 
L 168.583721 139.42388 
L 169.665116 141.61112 
L 170.746512 143.541352 
L 171.827907 144.86798 
L 172.909302 145.578072 
L 173.990698 145.874083 
L 176.153488 145.994482 
L 202.106977 146 
L 208.595349 145.971507 
L 209.676744 145.879674 
L 210.75814 145.596805 
L 211.839535 144.918239 
L 212.92093 143.650511 
L 214.002326 141.805978 
L 215.083721 139.715847 
L 216.165116 137.871314 
L 217.246512 136.603586 
L 218.327907 135.92502 
L 219.409302 135.642151 
L 221.572093 135.527098 
L 248.606977 135.521825 
L 254.013953 135.550317 
L 255.095349 135.642151 
L 256.176744 135.92502 
L 257.25814 136.603586 
L 258.339535 137.871314 
L 259.42093 139.715847 
L 260.502326 141.805978 
L 261.583721 143.650511 
L 262.665116 144.918239 
L 263.746512 145.596805 
L 264.827907 145.879674 
L 266.990698 145.994727 
L 294.025581 146 
L 301.4 146 
L 301.4 146 
" style="fill:none;stroke:#cccccc;stroke-linecap:square;stroke-width:1.75;"/>
   </g>
   <g id="line2d_26">
    <path clip-path="url(#pd0b387a3e5)" d="M -1 146 
L 26.92093 145.905823 
L 28.002326 145.60228 
L 29.083721 144.667305 
L 30.165116 142.424416 
L 31.246512 138.234147 
L 32.327907 132.137342 
L 33.409302 125.228757 
L 34.490698 119.131952 
L 35.572093 114.941684 
L 36.653488 112.698794 
L 37.734884 111.763819 
L 38.816279 111.460277 
L 40.97907 111.368417 
L 71.25814 111.38353 
L 72.339535 111.460277 
L 73.42093 111.763819 
L 74.502326 112.698794 
L 75.583721 114.941684 
L 76.665116 119.131952 
L 77.746512 125.228757 
L 78.827907 132.137342 
L 79.909302 138.234147 
L 80.990698 142.424416 
L 82.072093 144.667305 
L 83.153488 145.60228 
L 84.234884 145.905823 
L 86.397674 145.997682 
L 116.676744 145.982915 
L 117.75814 145.907689 
L 118.839535 145.610162 
L 119.92093 144.693714 
L 121.002326 142.495269 
L 122.083721 138.388034 
L 123.165116 132.412043 
L 124.246512 125.640357 
L 125.327907 119.664366 
L 126.409302 115.557131 
L 127.490698 113.358687 
L 128.572093 112.442239 
L 129.653488 112.144712 
L 131.816279 112.054672 
L 162.095349 112.069485 
L 163.176744 112.144712 
L 164.25814 112.442239 
L 165.339535 113.358687 
L 166.42093 115.557131 
L 167.502326 119.664366 
L 168.583721 125.640357 
L 169.665116 132.412043 
L 170.746512 138.388034 
L 171.827907 142.495269 
L 172.909302 144.693714 
L 173.990698 145.610162 
L 175.072093 145.907689 
L 177.234884 145.997728 
L 207.513953 145.983526 
L 208.595349 145.910991 
L 209.676744 145.624106 
L 210.75814 144.740439 
L 211.839535 142.620632 
L 212.92093 138.660312 
L 214.002326 132.898079 
L 215.083721 126.368615 
L 216.165116 120.606382 
L 217.246512 116.646062 
L 218.327907 114.526255 
L 219.409302 113.642588 
L 220.490698 113.355703 
L 222.653488 113.268884 
L 252.932558 113.283167 
L 254.013953 113.355703 
L 255.095349 113.642588 
L 256.176744 114.526255 
L 257.25814 116.646062 
L 258.339535 120.606382 
L 259.42093 126.368615 
L 260.502326 132.898079 
L 261.583721 138.660312 
L 262.665116 142.620632 
L 263.746512 144.740439 
L 264.827907 145.624106 
L 265.909302 145.910991 
L 268.072093 145.99781 
L 301.4 146 
L 301.4 146 
" style="fill:none;stroke:#cccccc;stroke-linecap:square;stroke-width:1.75;"/>
   </g>
   <g id="line2d_27">
    <path clip-path="url(#pd0b387a3e5)" d="M -1 146 
L 28.002326 145.927923 
L 29.083721 145.75848 
L 30.165116 145.352008 
L 31.246512 144.59262 
L 34.490698 141.13079 
L 35.572093 140.371402 
L 36.653488 139.96493 
L 37.734884 139.795488 
L 40.97907 139.72383 
L 73.42093 139.795488 
L 74.502326 139.96493 
L 75.583721 140.371402 
L 76.665116 141.13079 
L 79.909302 144.59262 
L 80.990698 145.352008 
L 82.072093 145.75848 
L 83.153488 145.927923 
L 86.397674 145.99958 
L 118.839535 145.934967 
L 119.92093 145.782084 
L 121.002326 145.415337 
L 122.083721 144.730164 
L 125.327907 141.606661 
L 126.409302 140.921488 
L 127.490698 140.554741 
L 129.653488 140.352225 
L 140.467442 140.336825 
L 164.25814 140.401858 
L 165.339535 140.554741 
L 166.42093 140.921488 
L 167.502326 141.606661 
L 170.746512 144.730164 
L 171.827907 145.415337 
L 172.909302 145.782084 
L 175.072093 145.984601 
L 185.886047 146 
L 209.676744 145.938032 
L 210.75814 145.792355 
L 211.839535 145.442893 
L 212.92093 144.790014 
L 216.165116 141.813729 
L 217.246512 141.160849 
L 218.327907 140.811388 
L 220.490698 140.618416 
L 231.304651 140.603743 
L 255.095349 140.665711 
L 256.176744 140.811388 
L 257.25814 141.160849 
L 258.339535 141.813729 
L 261.583721 144.790014 
L 262.665116 145.442893 
L 263.746512 145.792355 
L 265.909302 145.985326 
L 276.723256 146 
L 301.4 146 
L 301.4 146 
" style="fill:none;stroke:#cccccc;stroke-linecap:square;stroke-width:1.75;"/>
   </g>
   <g id="line2d_28">
    <path clip-path="url(#pd0b387a3e5)" d="M -1 146 
L 26.92093 145.963213 
L 28.002326 145.844644 
L 29.083721 145.479428 
L 30.165116 144.603319 
L 31.246512 142.966531 
L 32.327907 140.58502 
L 33.409302 137.886414 
L 34.490698 135.504902 
L 35.572093 133.868115 
L 36.653488 132.992006 
L 37.734884 132.626789 
L 39.897674 132.478242 
L 60.444186 132.471433 
L 72.339535 132.508221 
L 73.42093 132.626789 
L 74.502326 132.992006 
L 75.583721 133.868115 
L 76.665116 135.504902 
L 77.746512 137.886414 
L 78.827907 140.58502 
L 79.909302 142.966531 
L 80.990698 144.603319 
L 82.072093 145.479428 
L 83.153488 145.844644 
L 85.316279 145.993192 
L 105.862791 146 
L 117.75814 145.964963 
L 118.839535 145.852036 
L 119.92093 145.504195 
L 121.002326 144.66977 
L 122.083721 143.110857 
L 123.165116 140.842652 
L 124.246512 138.27244 
L 125.327907 136.004236 
L 126.409302 134.445323 
L 127.490698 133.610897 
L 128.572093 133.263057 
L 130.734884 133.121577 
L 152.362791 133.115093 
L 163.176744 133.15013 
L 164.25814 133.263057 
L 165.339535 133.610897 
L 166.42093 134.445323 
L 167.502326 136.004236 
L 168.583721 138.27244 
L 169.665116 140.842652 
L 170.746512 143.110857 
L 171.827907 144.66977 
L 172.909302 145.504195 
L 173.990698 145.852036 
L 176.153488 145.993515 
L 197.781395 146 
L 208.595349 145.96649 
L 209.676744 145.858486 
L 210.75814 145.525808 
L 211.839535 144.727757 
L 212.92093 143.2368 
L 214.002326 141.067471 
L 215.083721 138.6093 
L 216.165116 136.439971 
L 217.246512 134.949014 
L 218.327907 134.150963 
L 219.409302 133.818285 
L 221.572093 133.682973 
L 244.281395 133.676771 
L 254.013953 133.710281 
L 255.095349 133.818285 
L 256.176744 134.150963 
L 257.25814 134.949014 
L 258.339535 136.439971 
L 259.42093 138.6093 
L 260.502326 141.067471 
L 261.583721 143.2368 
L 262.665116 144.727757 
L 263.746512 145.525808 
L 264.827907 145.858486 
L 266.990698 145.993798 
L 289.7 146 
L 301.4 146 
L 301.4 146 
" style="fill:none;stroke:#cccccc;stroke-linecap:square;stroke-width:1.75;"/>
   </g>
   <g id="line2d_29">
    <path clip-path="url(#pd0b387a3e5)" d="M -1 146 
L 28.002326 145.95194 
L 29.083721 145.838958 
L 30.165116 145.567927 
L 31.246512 145.061577 
L 35.572093 142.246922 
L 36.653488 141.975892 
L 38.816279 141.826229 
L 52.874419 141.814849 
L 73.42093 141.862909 
L 74.502326 141.975892 
L 75.583721 142.246922 
L 76.665116 142.753273 
L 80.990698 145.567927 
L 82.072093 145.838958 
L 84.234884 145.98862 
L 98.293023 146 
L 118.839535 145.958867 
L 119.92093 145.862169 
L 121.002326 145.630203 
L 122.083721 145.196833 
L 126.409302 142.787861 
L 127.490698 142.555895 
L 129.653488 142.427804 
L 145.874419 142.418064 
L 164.25814 142.459197 
L 165.339535 142.555895 
L 166.42093 142.787861 
L 167.502326 143.22123 
L 171.827907 145.630203 
L 172.909302 145.862169 
L 175.072093 145.99026 
L 191.293023 146 
L 209.676744 145.96088 
L 210.75814 145.868915 
L 211.839535 145.648302 
L 212.92093 145.236143 
L 217.246512 142.945075 
L 218.327907 142.724462 
L 220.490698 142.602641 
L 236.711628 142.593377 
L 255.095349 142.632497 
L 256.176744 142.724462 
L 257.25814 142.945075 
L 258.339535 143.357234 
L 262.665116 145.648302 
L 263.746512 145.868915 
L 265.909302 145.990737 
L 282.130233 146 
L 301.4 146 
L 301.4 146 
" style="fill:none;stroke:#cccccc;stroke-linecap:square;stroke-width:1.75;"/>
   </g>
   <g id="line2d_30">
    <path clip-path="url(#pd0b387a3e5)" d="M -1 146 
L 28.002326 145.919586 
L 29.083721 145.730545 
L 30.165116 145.27706 
L 31.246512 144.429838 
L 34.490698 140.567603 
L 35.572093 139.72038 
L 36.653488 139.266895 
L 37.734884 139.077854 
L 40.97907 138.997909 
L 73.42093 139.077854 
L 74.502326 139.266895 
L 75.583721 139.72038 
L 76.665116 140.567603 
L 79.909302 144.429838 
L 80.990698 145.27706 
L 82.072093 145.730545 
L 83.153488 145.919586 
L 86.397674 145.999531 
L 118.839535 145.926669 
L 119.92093 145.754279 
L 121.002326 145.340738 
L 122.083721 144.568141 
L 125.327907 141.0461 
L 126.409302 140.273503 
L 127.490698 139.859962 
L 128.572093 139.687572 
L 131.816279 139.614669 
L 164.25814 139.687572 
L 165.339535 139.859962 
L 166.42093 140.273503 
L 167.502326 141.0461 
L 170.746512 144.568141 
L 171.827907 145.340738 
L 172.909302 145.754279 
L 173.990698 145.926669 
L 177.234884 145.999573 
L 209.676744 145.930091 
L 210.75814 145.765747 
L 211.839535 145.371506 
L 212.92093 144.634967 
L 216.165116 141.277301 
L 217.246512 140.540762 
L 218.327907 140.146521 
L 220.490698 139.928822 
L 230.223256 139.912268 
L 255.095349 139.982177 
L 256.176744 140.146521 
L 257.25814 140.540762 
L 258.339535 141.277301 
L 261.583721 144.634967 
L 262.665116 145.371506 
L 263.746512 145.765747 
L 265.909302 145.983446 
L 275.64186 146 
L 301.4 146 
L 301.4 146 
" style="fill:none;stroke:#cccccc;stroke-linecap:square;stroke-width:1.75;"/>
   </g>
   <g id="line2d_31">
    <path clip-path="url(#pd0b387a3e5)" d="M -1 146 
L 28.002326 145.956456 
L 29.083721 145.854091 
L 30.165116 145.608531 
L 31.246512 145.149765 
L 35.572093 142.599616 
L 36.653488 142.354056 
L 38.816279 142.218459 
L 53.955814 142.208148 
L 73.42093 142.251691 
L 74.502326 142.354056 
L 75.583721 142.599616 
L 76.665116 143.058383 
L 80.990698 145.608531 
L 82.072093 145.854091 
L 84.234884 145.989689 
L 99.374419 146 
L 118.839535 145.96336 
L 119.92093 145.877226 
L 121.002326 145.670601 
L 122.083721 145.284575 
L 126.409302 143.138769 
L 127.490698 142.932144 
L 129.653488 142.818046 
L 146.955814 142.80937 
L 164.25814 142.84601 
L 165.339535 142.932144 
L 166.42093 143.138769 
L 167.502326 143.524795 
L 171.827907 145.670601 
L 172.909302 145.877226 
L 175.072093 145.991324 
L 192.374419 146 
L 209.676744 145.965172 
L 210.75814 145.883297 
L 211.839535 145.686888 
L 212.92093 145.319949 
L 217.246512 143.280241 
L 218.327907 143.083832 
L 220.490698 142.975376 
L 238.874419 142.967129 
L 255.095349 143.001957 
L 256.176744 143.083832 
L 257.25814 143.280241 
L 258.339535 143.64718 
L 262.665116 145.686888 
L 263.746512 145.883297 
L 265.909302 145.991753 
L 284.293023 146 
L 301.4 146 
L 301.4 146 
" style="fill:none;stroke:#cccccc;stroke-linecap:square;stroke-width:1.75;"/>
   </g>
   <g id="line2d_32">
    <path clip-path="url(#pd0b387a3e5)" d="M -1 146 
L 26.92093 145.961206 
L 28.002326 145.836168 
L 29.083721 145.451026 
L 30.165116 144.527117 
L 31.246512 142.801029 
L 32.327907 140.289585 
L 33.409302 137.443746 
L 34.490698 134.932302 
L 35.572093 133.206213 
L 36.653488 132.282305 
L 37.734884 131.897162 
L 39.897674 131.74051 
L 60.444186 131.73333 
L 72.339535 131.772125 
L 73.42093 131.897162 
L 74.502326 132.282305 
L 75.583721 133.206213 
L 76.665116 134.932302 
L 77.746512 137.443746 
L 78.827907 140.289585 
L 79.909302 142.801029 
L 80.990698 144.527117 
L 82.072093 145.451026 
L 83.153488 145.836168 
L 85.316279 145.99282 
L 105.862791 146 
L 117.75814 145.962963 
L 118.839535 145.84359 
L 119.92093 145.475895 
L 121.002326 144.59384 
L 122.083721 142.945944 
L 123.165116 140.548271 
L 124.246512 137.831351 
L 125.327907 135.433677 
L 126.409302 133.785781 
L 127.490698 132.903727 
L 128.572093 132.536031 
L 130.734884 132.386476 
L 151.281395 132.379621 
L 163.176744 132.416658 
L 164.25814 132.536031 
L 165.339535 132.903727 
L 166.42093 133.785781 
L 167.502326 135.433677 
L 168.583721 137.831351 
L 169.665116 140.548271 
L 170.746512 142.945944 
L 171.827907 144.59384 
L 172.909302 145.475895 
L 173.990698 145.84359 
L 176.153488 145.993145 
L 196.7 146 
L 208.595349 145.964567 
L 209.676744 145.850362 
L 210.75814 145.498585 
L 211.839535 144.654718 
L 212.92093 143.078166 
L 214.002326 140.784297 
L 215.083721 138.185002 
L 216.165116 135.891133 
L 217.246512 134.314581 
L 218.327907 133.470714 
L 219.409302 133.118938 
L 221.572093 132.975857 
L 243.2 132.969299 
L 254.013953 133.004733 
L 255.095349 133.118938 
L 256.176744 133.470714 
L 257.25814 134.314581 
L 258.339535 135.891133 
L 259.42093 138.185002 
L 260.502326 140.784297 
L 261.583721 143.078166 
L 262.665116 144.654718 
L 263.746512 145.498585 
L 264.827907 145.850362 
L 266.990698 145.993442 
L 288.618605 146 
L 301.4 146 
L 301.4 146 
" style="fill:none;stroke:#cccccc;stroke-linecap:square;stroke-width:1.75;"/>
   </g>
   <g id="line2d_33">
    <path clip-path="url(#pd0b387a3e5)" d="M -1 146 
L 28.002326 145.902641 
L 29.083721 145.673765 
L 30.165116 145.124721 
L 31.246512 144.09897 
L 32.327907 142.606513 
L 34.490698 139.422879 
L 35.572093 138.397129 
L 36.653488 137.848085 
L 37.734884 137.619209 
L 39.897674 137.526116 
L 71.25814 137.526116 
L 73.42093 137.619209 
L 74.502326 137.848085 
L 75.583721 138.397129 
L 76.665116 139.422879 
L 77.746512 140.915337 
L 79.909302 144.09897 
L 80.990698 145.124721 
L 82.072093 145.673765 
L 83.153488 145.902641 
L 85.316279 145.995733 
L 116.676744 145.996047 
L 118.839535 145.9098 
L 119.92093 145.697755 
L 121.002326 145.189084 
L 122.083721 144.238762 
L 123.165116 142.856052 
L 125.327907 139.906526 
L 126.409302 138.956204 
L 127.490698 138.447533 
L 128.572093 138.235487 
L 130.734884 138.149241 
L 162.095349 138.149241 
L 164.25814 138.235487 
L 165.339535 138.447533 
L 166.42093 138.956204 
L 167.502326 139.906526 
L 168.583721 141.289236 
L 170.746512 144.238762 
L 171.827907 145.189084 
L 172.909302 145.697755 
L 173.990698 145.9098 
L 176.153488 145.996047 
L 207.513953 145.996228 
L 209.676744 145.913936 
L 210.75814 145.711614 
L 211.839535 145.226267 
L 212.92093 144.31952 
L 214.002326 143.000212 
L 216.165116 140.18593 
L 217.246512 139.279183 
L 218.327907 138.793837 
L 219.409302 138.591514 
L 221.572093 138.509222 
L 252.932558 138.509222 
L 255.095349 138.591514 
L 256.176744 138.793837 
L 257.25814 139.279183 
L 258.339535 140.18593 
L 259.42093 141.505239 
L 261.583721 144.31952 
L 262.665116 145.226267 
L 263.746512 145.711614 
L 264.827907 145.913936 
L 266.990698 145.996228 
L 301.4 146 
L 301.4 146 
" style="fill:none;stroke:#cccccc;stroke-linecap:square;stroke-width:1.75;"/>
   </g>
   <g id="line2d_34">
    <path clip-path="url(#pd0b387a3e5)" d="M -1 146 
L 26.92093 145.902014 
L 28.002326 145.586197 
L 29.083721 144.613412 
L 30.165116 142.279821 
L 31.246512 137.920101 
L 32.327907 131.576745 
L 33.409302 124.388781 
L 34.490698 118.045425 
L 35.572093 113.685704 
L 36.653488 111.352114 
L 37.734884 110.379329 
L 38.816279 110.063512 
L 40.97907 109.967937 
L 71.25814 109.98366 
L 72.339535 110.063512 
L 73.42093 110.379329 
L 74.502326 111.352114 
L 75.583721 113.685704 
L 76.665116 118.045425 
L 77.746512 124.388781 
L 78.827907 131.576745 
L 79.909302 137.920101 
L 80.990698 142.279821 
L 82.072093 144.613412 
L 83.153488 145.586197 
L 84.234884 145.902014 
L 86.397674 145.997589 
L 116.676744 145.982211 
L 117.75814 145.903881 
L 118.839535 145.594083 
L 119.92093 144.639837 
L 121.002326 142.35072 
L 122.083721 138.074085 
L 123.165116 131.851619 
L 124.246512 124.800641 
L 125.327907 118.578175 
L 126.409302 114.301541 
L 127.490698 112.012424 
L 128.572093 111.058178 
L 129.653488 110.748379 
L 131.816279 110.654626 
L 162.095349 110.67005 
L 163.176744 110.748379 
L 164.25814 111.058178 
L 165.339535 112.012424 
L 166.42093 114.301541 
L 167.502326 118.578175 
L 168.583721 124.800641 
L 169.665116 131.851619 
L 170.746512 138.074085 
L 171.827907 142.35072 
L 172.909302 144.639837 
L 173.990698 145.594083 
L 175.072093 145.903881 
L 177.234884 145.997635 
L 207.513953 145.982838 
L 208.595349 145.907271 
L 209.676744 145.608399 
L 210.75814 144.687807 
L 211.839535 142.479421 
L 212.92093 138.353613 
L 214.002326 132.350597 
L 215.083721 125.54829 
L 216.165116 119.545275 
L 217.246512 115.419467 
L 218.327907 113.211081 
L 219.409302 112.290488 
L 220.490698 111.991616 
L 222.653488 111.901169 
L 252.932558 111.916049 
L 254.013953 111.991616 
L 255.095349 112.290488 
L 256.176744 113.211081 
L 257.25814 115.419467 
L 258.339535 119.545275 
L 259.42093 125.54829 
L 260.502326 132.350597 
L 261.583721 138.353613 
L 262.665116 142.479421 
L 263.746512 144.687807 
L 264.827907 145.608399 
L 265.909302 145.907271 
L 268.072093 145.997718 
L 301.4 146 
L 301.4 146 
" style="fill:none;stroke:#cccccc;stroke-linecap:square;stroke-width:1.75;"/>
   </g>
   <g id="line2d_35">
    <path clip-path="url(#pd0b387a3e5)" d="M -1 146 
L 26.92093 145.971358 
L 28.002326 145.879044 
L 29.083721 145.594696 
L 30.165116 144.912581 
L 31.246512 143.638221 
L 32.327907 141.784039 
L 33.409302 139.682976 
L 34.490698 137.828794 
L 35.572093 136.554435 
L 36.653488 135.872319 
L 37.734884 135.587971 
L 39.897674 135.472316 
L 66.932558 135.467015 
L 72.339535 135.495657 
L 73.42093 135.587971 
L 74.502326 135.872319 
L 75.583721 136.554435 
L 76.665116 137.828794 
L 77.746512 139.682976 
L 78.827907 141.784039 
L 79.909302 143.638221 
L 80.990698 144.912581 
L 82.072093 145.594696 
L 83.153488 145.879044 
L 85.316279 145.994699 
L 112.351163 146 
L 117.75814 145.973077 
L 118.839535 145.886303 
L 119.92093 145.61902 
L 121.002326 144.977842 
L 122.083721 143.779962 
L 123.165116 142.037058 
L 124.246512 140.062089 
L 125.327907 138.319184 
L 126.409302 137.121305 
L 127.490698 136.480126 
L 128.572093 136.212843 
L 130.734884 136.104129 
L 158.851163 136.099147 
L 163.176744 136.126069 
L 164.25814 136.212843 
L 165.339535 136.480126 
L 166.42093 137.121305 
L 167.502326 138.319184 
L 168.583721 140.062089 
L 169.665116 142.037058 
L 170.746512 143.779962 
L 171.827907 144.977842 
L 172.909302 145.61902 
L 173.990698 145.886303 
L 176.153488 145.995017 
L 204.269767 146 
L 209.676744 145.891405 
L 210.75814 145.636114 
L 211.839535 145.023705 
L 212.92093 143.879573 
L 214.002326 142.21487 
L 216.165116 138.663813 
L 217.246512 137.519681 
L 218.327907 136.907272 
L 219.409302 136.651981 
L 221.572093 136.548145 
L 250.769767 136.543386 
L 255.095349 136.651981 
L 256.176744 136.907272 
L 257.25814 137.519681 
L 258.339535 138.663813 
L 259.42093 140.328516 
L 261.583721 143.879573 
L 262.665116 145.023705 
L 263.746512 145.636114 
L 264.827907 145.891405 
L 266.990698 145.995241 
L 297.269767 146 
L 301.4 146 
L 301.4 146 
" style="fill:none;stroke:#cccccc;stroke-linecap:square;stroke-width:1.75;"/>
   </g>
   <g id="line2d_36">
    <path clip-path="url(#pd0b387a3e5)" d="M -1 146 
L 28.002326 145.966203 
L 30.165116 145.696155 
L 31.246512 145.340076 
L 35.572093 143.360737 
L 37.734884 143.09069 
L 43.14186 143.056893 
L 73.42093 143.09069 
L 75.583721 143.360737 
L 76.665116 143.716817 
L 80.990698 145.696155 
L 83.153488 145.966203 
L 88.560465 146 
L 119.92093 145.909717 
L 121.002326 145.757773 
L 122.083721 145.473905 
L 126.409302 143.895964 
L 128.572093 143.68068 
L 135.060465 143.653737 
L 165.339535 143.74402 
L 166.42093 143.895964 
L 167.502326 144.179832 
L 171.827907 145.757773 
L 173.990698 145.973057 
L 180.47907 146 
L 210.75814 145.914316 
L 211.839535 145.770113 
L 212.92093 145.500705 
L 217.246512 144.003147 
L 219.409302 143.79883 
L 226.97907 143.773259 
L 256.176744 143.858943 
L 257.25814 144.003147 
L 258.339535 144.272554 
L 262.665116 145.770113 
L 264.827907 145.974429 
L 272.397674 146 
L 301.4 146 
L 301.4 146 
" style="fill:none;stroke:#cccccc;stroke-linecap:square;stroke-width:1.75;"/>
   </g>
   <g id="line2d_37">
    <path clip-path="url(#pd0b387a3e5)" d="M -1 146 
L 25.839535 145.964743 
L 26.92093 145.809499 
L 28.002326 145.195497 
L 29.083721 143.304239 
L 30.165116 138.767347 
L 31.246512 130.291317 
L 32.327907 117.958766 
L 33.409302 103.984154 
L 34.490698 91.651603 
L 35.572093 83.175573 
L 36.653488 78.638681 
L 37.734884 76.747423 
L 38.816279 76.133421 
L 39.897674 75.978178 
L 44.223256 75.94292 
L 71.25814 75.978178 
L 72.339535 76.133421 
L 73.42093 76.747423 
L 74.502326 78.638681 
L 75.583721 83.175573 
L 76.665116 91.651603 
L 77.746512 103.984154 
L 78.827907 117.958766 
L 79.909302 130.291317 
L 80.990698 138.767347 
L 82.072093 143.304239 
L 83.153488 145.195497 
L 84.234884 145.809499 
L 85.316279 145.964743 
L 89.64186 146 
L 116.676744 145.965047 
L 117.75814 145.811145 
L 118.839535 145.202448 
L 119.92093 143.327531 
L 121.002326 138.829839 
L 122.083721 130.427043 
L 123.165116 118.201048 
L 124.246512 104.347181 
L 125.327907 92.121185 
L 126.409302 83.71839 
L 127.490698 79.220698 
L 128.572093 77.345781 
L 129.653488 76.737084 
L 130.734884 76.583181 
L 135.060465 76.548229 
L 162.095349 76.583181 
L 163.176744 76.737084 
L 164.25814 77.345781 
L 165.339535 79.220698 
L 166.42093 83.71839 
L 167.502326 92.121185 
L 168.583721 104.347181 
L 169.665116 118.201048 
L 170.746512 130.427043 
L 171.827907 138.829839 
L 172.909302 143.327531 
L 173.990698 145.202448 
L 175.072093 145.811145 
L 176.153488 145.965047 
L 180.47907 146 
L 207.513953 145.965853 
L 208.595349 145.815495 
L 209.676744 145.220821 
L 210.75814 143.389096 
L 211.839535 138.995016 
L 212.92093 130.785792 
L 214.002326 118.841443 
L 215.083721 105.306723 
L 216.165116 93.362374 
L 217.246512 85.153151 
L 218.327907 80.75907 
L 219.409302 78.927345 
L 220.490698 78.332671 
L 221.572093 78.182314 
L 225.897674 78.148166 
L 252.932558 78.182314 
L 254.013953 78.332671 
L 255.095349 78.927345 
L 256.176744 80.75907 
L 257.25814 85.153151 
L 258.339535 93.362374 
L 259.42093 105.306723 
L 260.502326 118.841443 
L 261.583721 130.785792 
L 262.665116 138.995016 
L 263.746512 143.389096 
L 264.827907 145.220821 
L 265.909302 145.815495 
L 266.990698 145.965853 
L 271.316279 146 
L 301.4 146 
L 301.4 146 
" style="fill:none;stroke:#cccccc;stroke-linecap:square;stroke-width:1.75;"/>
   </g>
   <g id="matplotlib.axis_1"/>
   <g id="matplotlib.axis_2"/>
   <g id="line2d_38">
    <path clip-path="url(#pd0b387a3e5)" d="M -1 146 
L 25.839535 145.945418 
L 26.92093 145.705085 
L 28.002326 144.754549 
L 29.083721 141.826691 
L 30.165116 134.803124 
L 31.246512 121.681375 
L 32.327907 102.589343 
L 33.409302 80.955236 
L 34.490698 61.863204 
L 35.572093 48.741455 
L 36.653488 41.717888 
L 37.734884 38.79003 
L 38.816279 37.839494 
L 39.897674 37.599161 
L 43.14186 37.544579 
L 71.25814 37.599161 
L 72.339535 37.839494 
L 73.42093 38.79003 
L 74.502326 41.717888 
L 75.583721 48.741455 
L 76.665116 61.863204 
L 77.746512 80.955236 
L 78.827907 102.589343 
L 79.909302 121.681375 
L 80.990698 134.803124 
L 82.072093 141.826691 
L 83.153488 144.754549 
L 84.234884 145.705085 
L 85.316279 145.945418 
L 88.560465 146 
L 116.676744 145.945569 
L 117.75814 145.705901 
L 118.839535 144.757993 
L 119.92093 141.838234 
L 121.002326 134.834094 
L 122.083721 121.748638 
L 123.165116 102.709413 
L 124.246512 81.135144 
L 125.327907 62.095918 
L 126.409302 49.010463 
L 127.490698 42.006323 
L 128.572093 39.086563 
L 129.653488 38.138656 
L 130.734884 37.898987 
L 133.97907 37.844557 
L 162.095349 37.898987 
L 163.176744 38.138656 
L 164.25814 39.086563 
L 165.339535 42.006323 
L 166.42093 49.010463 
L 167.502326 62.095918 
L 168.583721 81.135144 
L 169.665116 102.709413 
L 170.746512 121.748638 
L 171.827907 134.834094 
L 172.909302 141.838234 
L 173.990698 144.757993 
L 175.072093 145.705901 
L 176.153488 145.945569 
L 179.397674 146 
L 207.513953 145.946053 
L 208.595349 145.708518 
L 209.676744 144.769045 
L 210.75814 141.875266 
L 211.839535 134.933451 
L 212.92093 121.964432 
L 214.002326 103.094621 
L 215.083721 81.712325 
L 216.165116 62.842514 
L 217.246512 49.873496 
L 218.327907 42.93168 
L 219.409302 40.037901 
L 220.490698 39.098429 
L 221.572093 38.860893 
L 224.816279 38.806946 
L 252.932558 38.860893 
L 254.013953 39.098429 
L 255.095349 40.037901 
L 256.176744 42.93168 
L 257.25814 49.873496 
L 258.339535 62.842514 
L 259.42093 81.712325 
L 260.502326 103.094621 
L 261.583721 121.964432 
L 262.665116 134.933451 
L 263.746512 141.875266 
L 264.827907 144.769045 
L 265.909302 145.708518 
L 266.990698 145.946053 
L 270.234884 146 
L 301.4 146 
L 301.4 146 
" style="fill:none;stroke:#1764ab;stroke-linecap:square;stroke-width:2;"/>
   </g>
   <g id="patch_6">
    <path d="M 10.7 149.3 
L 10.7 10.7 
" style="fill:none;stroke:#000000;stroke-linecap:square;stroke-linejoin:miter;stroke-width:0.8;"/>
   </g>
   <g id="patch_7">
    <path d="M 289.7 149.3 
L 289.7 10.7 
" style="fill:none;stroke:#000000;stroke-linecap:square;stroke-linejoin:miter;stroke-width:0.8;"/>
   </g>
   <g id="patch_8">
    <path d="M 10.7 149.3 
L 289.7 149.3 
" style="fill:none;stroke:#000000;stroke-linecap:square;stroke-linejoin:miter;stroke-width:0.8;"/>
   </g>
   <g id="patch_9">
    <path d="M 10.7 10.7 
L 289.7 10.7 
" style="fill:none;stroke:#000000;stroke-linecap:square;stroke-linejoin:miter;stroke-width:0.8;"/>
   </g>
   <g id="line2d_39">
    <path clip-path="url(#pd0b387a3e5)" d="M -1 146 
L 28.002326 145.898117 
L 29.083721 145.658608 
L 30.165116 145.084054 
L 31.246512 144.010647 
L 32.327907 142.448848 
L 34.490698 139.117299 
L 35.572093 138.043892 
L 36.653488 137.469338 
L 37.734884 137.229829 
L 39.897674 137.132411 
L 70.176744 137.12854 
L 73.42093 137.229829 
L 74.502326 137.469338 
L 75.583721 138.043892 
L 76.665116 139.117299 
L 77.746512 140.679098 
L 79.909302 144.010647 
L 80.990698 145.084054 
L 82.072093 145.658608 
L 83.153488 145.898117 
L 85.316279 145.995535 
L 115.595349 145.999448 
L 118.839535 145.905296 
L 119.92093 145.682663 
L 121.002326 145.148595 
L 122.083721 144.150823 
L 123.165116 142.699074 
L 125.327907 139.602277 
L 126.409302 138.604505 
L 127.490698 138.070436 
L 128.572093 137.847804 
L 130.734884 137.75725 
L 162.095349 137.75725 
L 164.25814 137.847804 
L 165.339535 138.070436 
L 166.42093 138.604505 
L 167.502326 139.602277 
L 168.583721 141.054026 
L 170.746512 144.150823 
L 171.827907 145.148595 
L 172.909302 145.682663 
L 173.990698 145.905296 
L 176.153488 145.99585 
L 207.513953 145.996039 
L 209.676744 145.90962 
L 210.75814 145.697151 
L 211.839535 145.187465 
L 212.92093 144.235245 
L 214.002326 142.849773 
L 216.165116 139.894356 
L 217.246512 138.942137 
L 218.327907 138.43245 
L 219.409302 138.219981 
L 221.572093 138.133562 
L 252.932558 138.133562 
L 255.095349 138.219981 
L 256.176744 138.43245 
L 257.25814 138.942137 
L 258.339535 139.894356 
L 259.42093 141.279828 
L 261.583721 144.235245 
L 262.665116 145.187465 
L 263.746512 145.697151 
L 264.827907 145.90962 
L 266.990698 145.996039 
L 301.4 146 
L 301.4 146 
" style="fill:none;stroke:#c54102;stroke-linecap:square;stroke-width:2;"/>
   </g>
   <g id="line2d_40">
    <path clip-path="url(#pd0b387a3e5)" d="M -1 146 
L 26.92093 145.931543 
L 28.002326 145.710898 
L 29.083721 145.031266 
L 30.165116 143.400914 
L 31.246512 140.355014 
L 32.327907 135.923256 
L 33.409302 130.901416 
L 34.490698 126.469658 
L 35.572093 123.423758 
L 36.653488 121.793406 
L 37.734884 121.113774 
L 38.816279 120.893129 
L 42.060465 120.824672 
L 72.339535 120.893129 
L 73.42093 121.113774 
L 74.502326 121.793406 
L 75.583721 123.423758 
L 76.665116 126.469658 
L 77.746512 130.901416 
L 78.827907 135.923256 
L 79.909302 140.355014 
L 80.990698 143.400914 
L 82.072093 145.031266 
L 83.153488 145.710898 
L 84.234884 145.931543 
L 87.47907 146 
L 117.75814 145.93338 
L 118.839535 145.718656 
L 119.92093 145.057261 
L 121.002326 143.470657 
L 122.083721 140.506491 
L 123.165116 136.193655 
L 124.246512 131.306572 
L 125.327907 126.993735 
L 126.409302 124.029569 
L 127.490698 122.442966 
L 128.572093 121.781571 
L 129.653488 121.566847 
L 132.897674 121.500227 
L 163.176744 121.566847 
L 164.25814 121.781571 
L 165.339535 122.442966 
L 166.42093 124.029569 
L 167.502326 126.993735 
L 168.583721 131.306572 
L 169.665116 136.193655 
L 170.746512 140.506491 
L 171.827907 143.470657 
L 172.909302 145.057261 
L 173.990698 145.718656 
L 175.072093 145.93338 
L 178.316279 146 
L 208.595349 145.93599 
L 209.676744 145.72968 
L 210.75814 145.0942 
L 211.839535 143.569763 
L 212.92093 140.72174 
L 214.002326 136.577892 
L 215.083721 131.882296 
L 216.165116 127.738447 
L 217.246512 124.890424 
L 218.327907 123.365987 
L 219.409302 122.730508 
L 220.490698 122.524198 
L 223.734884 122.460187 
L 254.013953 122.524198 
L 255.095349 122.730508 
L 256.176744 123.365987 
L 257.25814 124.890424 
L 258.339535 127.738447 
L 259.42093 131.882296 
L 260.502326 136.577892 
L 261.583721 140.72174 
L 262.665116 143.569763 
L 263.746512 145.0942 
L 264.827907 145.72968 
L 265.909302 145.93599 
L 269.153488 146 
L 301.4 146 
L 301.4 146 
" style="fill:none;stroke:#157f3b;stroke-linecap:square;stroke-width:2;"/>
   </g>
  </g>
 </g>
 <defs>
  <clipPath id="pd0b387a3e5">
   <rect height="138.6" width="279" x="10.7" y="10.7"/>
  </clipPath>
 </defs>
</svg>
