<?xml version="1.0" encoding="utf-8" standalone="no"?>
<!DOCTYPE svg PUBLIC "-//W3C//DTD SVG 1.1//EN"
  "http://www.w3.org/Graphics/SVG/1.1/DTD/svg11.dtd">
<!-- Created with matplotlib (http://matplotlib.org/) -->
<svg height="165pt" version="1.1" viewBox="0 0 313 165" width="313pt" xmlns="http://www.w3.org/2000/svg" xmlns:xlink="http://www.w3.org/1999/xlink">
 <defs>
  <style type="text/css">
*{stroke-linecap:butt;stroke-linejoin:round;}
  </style>
 </defs>
 <g id="figure_1">
  <g id="patch_1">
   <path d="M 0 165.322293 
L 313.038095 165.322293 
L 313.038095 0 
L 0 0 
z
" style="fill:#ffffff;"/>
  </g>
  <g id="axes_1">
   <g id="patch_2">
    <path d="M 23.338095 149.3 
L 302.338095 149.3 
L 302.338095 10.7 
L 23.338095 10.7 
z
" style="fill:#ffffff;"/>
   </g>
   <g id="patch_3">
    <path clip-path="url(#pebf4af994a)" d="M 46.047398 149.3 
L 46.047398 10.7 
L 91.466002 10.7 
L 91.466002 149.3 
z
" style="fill:#fee7dc;stroke:#fee7dc;stroke-linejoin:miter;"/>
   </g>
   <g id="patch_4">
    <path clip-path="url(#pebf4af994a)" d="M 136.884607 149.3 
L 136.884607 10.7 
L 182.303212 10.7 
L 182.303212 149.3 
z
" style="fill:#fdd4c2;stroke:#fdd4c2;stroke-linejoin:miter;"/>
   </g>
   <g id="patch_5">
    <path clip-path="url(#pebf4af994a)" d="M 227.721816 149.3 
L 227.721816 10.7 
L 273.140421 10.7 
L 273.140421 149.3 
z
" style="fill:#fcbba1;stroke:#fcbba1;stroke-linejoin:miter;"/>
   </g>
   <g id="line2d_1">
    <path clip-path="url(#pebf4af994a)" d="M 0.628793 146.78 
L 41.721816 146.718411 
L 43.884607 146.421111 
L 48.210188 145.34468 
L 50.372979 145.197819 
L 60.105537 145.179439 
L 87.140421 145.241028 
L 89.303212 145.538328 
L 93.628793 146.614759 
L 95.791584 146.76162 
L 105.524142 146.78 
L 132.559026 146.735736 
L 134.721816 146.522064 
L 139.047398 145.748425 
L 142.291584 145.632793 
L 176.896235 145.642875 
L 179.059026 145.748425 
L 181.221816 146.090101 
L 183.384607 146.522064 
L 185.547398 146.735736 
L 190.954374 146.78 
L 223.396235 146.737323 
L 225.559026 146.531312 
L 229.884607 145.78541 
L 233.128793 145.673924 
L 267.733444 145.683644 
L 269.896235 145.78541 
L 272.059026 146.114836 
L 275.303212 146.665498 
L 278.547398 146.776984 
L 314.038095 146.78 
L 314.038095 146.78 
" style="fill:none;stroke:#cccccc;stroke-linecap:square;stroke-width:1.75;"/>
   </g>
   <g id="line2d_2">
    <path clip-path="url(#pebf4af994a)" d="M 0.628793 146.78 
L 39.559026 146.716683 
L 40.640421 146.512608 
L 41.721816 145.884013 
L 42.803212 144.376092 
L 43.884607 141.558925 
L 44.966002 137.45997 
L 46.047398 132.815247 
L 47.128793 128.716292 
L 48.210188 125.899125 
L 49.291584 124.391204 
L 50.372979 123.762609 
L 51.454374 123.558534 
L 54.698561 123.495217 
L 84.97763 123.558534 
L 86.059026 123.762609 
L 87.140421 124.391204 
L 88.221816 125.899125 
L 89.303212 128.716292 
L 90.384607 132.815247 
L 91.466002 137.45997 
L 92.547398 141.558925 
L 93.628793 144.376092 
L 94.710188 145.884013 
L 95.791584 146.512608 
L 96.872979 146.716683 
L 100.117165 146.78 
L 130.396235 146.718012 
L 131.47763 146.518218 
L 132.559026 145.902812 
L 133.640421 144.426528 
L 134.721816 141.668467 
L 135.803212 137.655511 
L 136.884607 133.108237 
L 137.966002 129.095282 
L 139.047398 126.33722 
L 140.128793 124.860937 
L 141.210188 124.24553 
L 142.291584 124.045737 
L 145.53577 123.983748 
L 175.81484 124.045737 
L 176.896235 124.24553 
L 177.97763 124.860937 
L 179.059026 126.33722 
L 180.140421 129.095282 
L 181.221816 133.108237 
L 182.303212 137.655511 
L 183.384607 141.668467 
L 184.466002 144.426528 
L 185.547398 145.902812 
L 186.628793 146.518218 
L 187.710188 146.718012 
L 190.954374 146.78 
L 221.233444 146.719429 
L 222.31484 146.524205 
L 223.396235 145.922871 
L 224.47763 144.480347 
L 225.559026 141.785357 
L 226.640421 137.86417 
L 227.721816 133.420883 
L 228.803212 129.499696 
L 229.884607 126.804706 
L 230.966002 125.362182 
L 232.047398 124.760848 
L 233.128793 124.565624 
L 236.372979 124.505053 
L 266.652049 124.565624 
L 267.733444 124.760848 
L 268.81484 125.362182 
L 269.896235 126.804706 
L 270.97763 129.499696 
L 272.059026 133.420883 
L 273.140421 137.86417 
L 274.221816 141.785357 
L 275.303212 144.480347 
L 276.384607 145.922871 
L 277.466002 146.524205 
L 278.547398 146.719429 
L 281.791584 146.78 
L 314.038095 146.78 
L 314.038095 146.78 
" style="fill:none;stroke:#cccccc;stroke-linecap:square;stroke-width:1.75;"/>
   </g>
   <g id="line2d_3">
    <path clip-path="url(#pebf4af994a)" d="M 0.628793 146.78 
L 41.721816 146.722051 
L 43.884607 146.442321 
L 48.210188 145.429507 
L 50.372979 145.291326 
L 60.105537 145.274032 
L 87.140421 145.331981 
L 89.303212 145.611711 
L 93.628793 146.624525 
L 95.791584 146.762706 
L 105.524142 146.78 
L 133.640421 146.670971 
L 135.803212 146.357293 
L 139.047398 145.832954 
L 142.291584 145.726797 
L 176.896235 145.736053 
L 179.059026 145.832954 
L 181.221816 146.146633 
L 184.466002 146.670971 
L 187.710188 146.777128 
L 222.31484 146.768316 
L 224.47763 146.674954 
L 226.640421 146.372733 
L 229.884607 145.867547 
L 233.128793 145.765268 
L 268.81484 145.801654 
L 270.97763 145.990652 
L 275.303212 146.674954 
L 278.547398 146.777233 
L 314.038095 146.78 
L 314.038095 146.78 
" style="fill:none;stroke:#cccccc;stroke-linecap:square;stroke-width:1.75;"/>
   </g>
   <g id="line2d_4">
    <path clip-path="url(#pebf4af994a)" d="M 0.628793 146.78 
L 41.721816 146.692287 
L 42.803212 146.54467 
L 43.884607 146.268883 
L 48.210188 144.735867 
L 50.372979 144.526713 
L 56.861351 144.500537 
L 87.140421 144.588249 
L 88.221816 144.735867 
L 89.303212 145.011654 
L 93.628793 146.54467 
L 95.791584 146.753824 
L 102.279956 146.78 
L 132.559026 146.709702 
L 134.721816 146.370363 
L 139.047398 145.14172 
L 141.210188 144.974092 
L 149.861351 144.953113 
L 177.97763 145.023411 
L 180.140421 145.362751 
L 184.466002 146.591393 
L 186.628793 146.759021 
L 195.279956 146.78 
L 223.396235 146.71202 
L 225.559026 146.38387 
L 229.884607 145.19574 
L 232.047398 145.03364 
L 240.698561 145.013352 
L 268.81484 145.081332 
L 270.97763 145.409482 
L 275.303212 146.597612 
L 277.466002 146.759713 
L 286.117165 146.78 
L 314.038095 146.78 
L 314.038095 146.78 
" style="fill:none;stroke:#cccccc;stroke-linecap:square;stroke-width:1.75;"/>
   </g>
   <g id="line2d_5">
    <path clip-path="url(#pebf4af994a)" d="M 0.628793 146.78 
L 40.640421 146.729638 
L 41.721816 146.611244 
L 42.803212 146.327232 
L 43.884607 145.796628 
L 47.128793 143.37776 
L 48.210188 142.847155 
L 49.291584 142.563143 
L 51.454374 142.406313 
L 64.431119 142.394387 
L 86.059026 142.444749 
L 87.140421 142.563143 
L 88.221816 142.847155 
L 89.303212 143.37776 
L 92.547398 145.796628 
L 93.628793 146.327232 
L 94.710188 146.611244 
L 96.872979 146.768075 
L 109.849723 146.78 
L 131.47763 146.734913 
L 132.559026 146.628921 
L 133.640421 146.374659 
L 134.721816 145.899636 
L 139.047398 143.259122 
L 140.128793 143.00486 
L 142.291584 142.864458 
L 156.349723 142.853781 
L 176.896235 142.898868 
L 177.97763 143.00486 
L 179.059026 143.259122 
L 180.140421 143.734145 
L 184.466002 146.374659 
L 185.547398 146.628921 
L 187.710188 146.769324 
L 201.768328 146.78 
L 222.31484 146.736263 
L 223.396235 146.633445 
L 224.47763 146.386796 
L 225.559026 145.925995 
L 229.884607 143.364539 
L 230.966002 143.11789 
L 233.128793 142.981692 
L 248.268328 142.971335 
L 267.733444 143.015072 
L 268.81484 143.11789 
L 269.896235 143.364539 
L 270.97763 143.82534 
L 275.303212 146.386796 
L 276.384607 146.633445 
L 278.547398 146.769643 
L 293.686933 146.78 
L 314.038095 146.78 
L 314.038095 146.78 
" style="fill:none;stroke:#cccccc;stroke-linecap:square;stroke-width:1.75;"/>
   </g>
   <g id="line2d_6">
    <path clip-path="url(#pebf4af994a)" d="M 0.628793 146.78 
L 41.721816 146.712598 
L 43.884607 146.387238 
L 48.210188 145.20921 
L 50.372979 145.048488 
L 59.024142 145.028373 
L 87.140421 145.095775 
L 89.303212 145.421135 
L 93.628793 146.599163 
L 95.791584 146.759885 
L 104.442747 146.78 
L 132.559026 146.729943 
L 134.721816 146.48831 
L 139.047398 145.61343 
L 141.210188 145.494067 
L 153.105537 145.479129 
L 177.97763 145.529186 
L 180.140421 145.770819 
L 184.466002 146.645699 
L 186.628793 146.765061 
L 198.524142 146.78 
L 223.396235 146.731694 
L 225.559026 146.49851 
L 229.884607 145.654225 
L 232.047398 145.539036 
L 243.942747 145.52462 
L 268.81484 145.572926 
L 270.97763 145.80611 
L 275.303212 146.650395 
L 277.466002 146.765584 
L 289.361351 146.78 
L 314.038095 146.78 
L 314.038095 146.78 
" style="fill:none;stroke:#cccccc;stroke-linecap:square;stroke-width:1.75;"/>
   </g>
   <g id="line2d_7">
    <path clip-path="url(#pebf4af994a)" d="M 0.628793 146.78 
L 41.721816 146.680011 
L 42.803212 146.511733 
L 43.884607 146.197348 
L 48.210188 144.449773 
L 50.372979 144.211346 
L 56.861351 144.181506 
L 87.140421 144.281495 
L 88.221816 144.449773 
L 89.303212 144.764159 
L 93.628793 146.511733 
L 95.791584 146.75016 
L 102.279956 146.78 
L 132.559026 146.697468 
L 133.640421 146.558568 
L 134.721816 146.299069 
L 139.047398 144.856593 
L 141.210188 144.659792 
L 148.779956 144.635161 
L 177.97763 144.717694 
L 179.059026 144.856593 
L 180.140421 145.116092 
L 184.466002 146.558568 
L 186.628793 146.75537 
L 194.198561 146.78 
L 223.396235 146.700126 
L 224.47763 146.5657 
L 225.559026 146.314559 
L 229.884607 144.91854 
L 232.047398 144.728076 
L 239.617165 144.704239 
L 268.81484 144.784114 
L 269.896235 144.91854 
L 270.97763 145.169681 
L 275.303212 146.5657 
L 277.466002 146.756163 
L 285.03577 146.78 
L 314.038095 146.78 
L 314.038095 146.78 
" style="fill:none;stroke:#cccccc;stroke-linecap:square;stroke-width:1.75;"/>
   </g>
   <g id="line2d_8">
    <path clip-path="url(#pebf4af994a)" d="M 0.628793 146.78 
L 41.721816 146.731358 
L 43.884607 146.496553 
L 48.210188 145.646396 
L 50.372979 145.530407 
L 62.268328 145.51589 
L 87.140421 145.564532 
L 89.303212 145.799338 
L 93.628793 146.649494 
L 95.791584 146.765484 
L 107.686933 146.78 
L 133.640421 146.695852 
L 136.884607 146.291169 
L 139.047398 146.049072 
L 142.291584 145.967141 
L 177.97763 145.996288 
L 180.140421 146.147686 
L 184.466002 146.695852 
L 187.710188 146.777784 
L 223.396235 146.749857 
L 225.559026 146.604354 
L 230.966002 146.026801 
L 237.454374 145.996659 
L 269.896235 146.07753 
L 273.140421 146.466458 
L 275.303212 146.699128 
L 278.547398 146.77787 
L 314.038095 146.78 
L 314.038095 146.78 
" style="fill:none;stroke:#cccccc;stroke-linecap:square;stroke-width:1.75;"/>
   </g>
   <g id="line2d_9">
    <path clip-path="url(#pebf4af994a)" d="M 0.628793 146.78 
L 41.721816 146.67686 
L 42.803212 146.503279 
L 43.884607 146.178987 
L 48.210188 144.376343 
L 50.372979 144.130402 
L 56.861351 144.099622 
L 87.140421 144.202762 
L 88.221816 144.376343 
L 89.303212 144.700635 
L 93.628793 146.503279 
L 95.791584 146.74922 
L 102.279956 146.78 
L 132.559026 146.694327 
L 133.640421 146.550143 
L 134.721816 146.28077 
L 139.047398 144.783409 
L 141.210188 144.579119 
L 148.779956 144.553551 
L 177.97763 144.639224 
L 179.059026 144.783409 
L 180.140421 145.052781 
L 184.466002 146.550143 
L 186.628793 146.754433 
L 194.198561 146.78 
L 223.396235 146.697072 
L 224.47763 146.557508 
L 225.559026 146.296766 
L 229.884607 144.847381 
L 232.047398 144.649637 
L 239.617165 144.624889 
L 268.81484 144.707817 
L 269.896235 144.847381 
L 270.97763 145.108123 
L 275.303212 146.557508 
L 277.466002 146.755252 
L 285.03577 146.78 
L 314.038095 146.78 
L 314.038095 146.78 
" style="fill:none;stroke:#cccccc;stroke-linecap:square;stroke-width:1.75;"/>
   </g>
   <g id="line2d_10">
    <path clip-path="url(#pebf4af994a)" d="M 0.628793 146.78 
L 40.640421 146.705464 
L 41.721816 146.530241 
L 42.803212 146.109902 
L 43.884607 145.324607 
L 47.128793 141.744677 
L 48.210188 140.959382 
L 49.291584 140.539043 
L 50.372979 140.36382 
L 53.617165 140.289718 
L 86.059026 140.36382 
L 87.140421 140.539043 
L 88.221816 140.959382 
L 89.303212 141.744677 
L 92.547398 145.324607 
L 93.628793 146.109902 
L 94.710188 146.530241 
L 95.791584 146.705464 
L 99.03577 146.779566 
L 131.47763 146.710809 
L 132.559026 146.548153 
L 133.640421 146.15796 
L 134.721816 145.428983 
L 137.966002 142.105795 
L 139.047398 141.376818 
L 140.128793 140.986625 
L 142.291584 140.771162 
L 152.024142 140.754778 
L 176.896235 140.823969 
L 177.97763 140.986625 
L 179.059026 141.376818 
L 180.140421 142.105795 
L 183.384607 145.428983 
L 184.466002 146.15796 
L 185.547398 146.548153 
L 187.710188 146.763616 
L 197.442747 146.78 
L 222.31484 146.712789 
L 223.396235 146.554786 
L 224.47763 146.175757 
L 225.559026 145.467637 
L 228.803212 142.23953 
L 229.884607 141.531411 
L 230.966002 141.152382 
L 233.128793 140.943083 
L 242.861351 140.927168 
L 267.733444 140.994379 
L 268.81484 141.152382 
L 269.896235 141.531411 
L 270.97763 142.23953 
L 274.221816 145.467637 
L 275.303212 146.175757 
L 276.384607 146.554786 
L 278.547398 146.764085 
L 288.279956 146.78 
L 314.038095 146.78 
L 314.038095 146.78 
" style="fill:none;stroke:#cccccc;stroke-linecap:square;stroke-width:1.75;"/>
   </g>
   <g id="line2d_11">
    <path clip-path="url(#pebf4af994a)" d="M 0.628793 146.78 
L 41.721816 146.733152 
L 43.884607 146.507009 
L 48.210188 145.688214 
L 50.372979 145.576503 
L 62.268328 145.562522 
L 87.140421 145.60937 
L 89.303212 145.835513 
L 93.628793 146.654308 
L 95.791584 146.766019 
L 107.686933 146.78 
L 133.640421 146.700649 
L 136.884607 146.319036 
L 139.047398 146.090741 
L 142.291584 146.01348 
L 177.97763 146.040965 
L 180.140421 146.183733 
L 185.547398 146.750424 
L 192.03577 146.78 
L 224.47763 146.703789 
L 227.721816 146.337275 
L 229.884607 146.118012 
L 233.128793 146.043808 
L 268.81484 146.070207 
L 270.97763 146.207325 
L 276.384607 146.751594 
L 283.954374 146.78 
L 314.038095 146.78 
L 314.038095 146.78 
" style="fill:none;stroke:#cccccc;stroke-linecap:square;stroke-width:1.75;"/>
   </g>
   <g id="line2d_12">
    <path clip-path="url(#pebf4af994a)" d="M 0.628793 146.78 
L 40.640421 146.743167 
L 41.721816 146.656579 
L 42.803212 146.448865 
L 43.884607 146.060804 
L 48.210188 143.903688 
L 49.291584 143.695974 
L 51.454374 143.581275 
L 68.7567 143.572553 
L 86.059026 143.609386 
L 87.140421 143.695974 
L 88.221816 143.903688 
L 89.303212 144.291749 
L 93.628793 146.448865 
L 94.710188 146.656579 
L 96.872979 146.771278 
L 114.175305 146.78 
L 132.559026 146.674113 
L 133.640421 146.495908 
L 134.721816 146.162977 
L 139.047398 144.312313 
L 141.210188 144.059821 
L 146.617165 144.028221 
L 177.97763 144.134108 
L 179.059026 144.312313 
L 180.140421 144.645244 
L 184.466002 146.495908 
L 186.628793 146.7484 
L 192.03577 146.78 
L 223.396235 146.677414 
L 224.47763 146.504765 
L 225.559026 146.182214 
L 229.884607 144.38925 
L 232.047398 144.14463 
L 238.53577 144.114015 
L 268.81484 144.216601 
L 269.896235 144.38925 
L 270.97763 144.711801 
L 275.303212 146.504765 
L 277.466002 146.749385 
L 283.954374 146.78 
L 314.038095 146.78 
L 314.038095 146.78 
" style="fill:none;stroke:#cccccc;stroke-linecap:square;stroke-width:1.75;"/>
   </g>
   <g id="line2d_13">
    <path clip-path="url(#pebf4af994a)" d="M 0.628793 146.78 
L 39.559026 146.727548 
L 40.640421 146.558491 
L 41.721816 146.037757 
L 42.803212 144.788582 
L 43.884607 142.454817 
L 44.966002 139.059208 
L 46.047398 135.21148 
L 47.128793 131.815871 
L 48.210188 129.482105 
L 49.291584 128.232931 
L 50.372979 127.712197 
L 51.454374 127.54314 
L 54.698561 127.490688 
L 84.97763 127.54314 
L 86.059026 127.712197 
L 87.140421 128.232931 
L 88.221816 129.482105 
L 89.303212 131.815871 
L 90.384607 135.21148 
L 91.466002 139.059208 
L 92.547398 142.454817 
L 93.628793 144.788582 
L 94.710188 146.037757 
L 95.791584 146.558491 
L 96.872979 146.727548 
L 100.117165 146.78 
L 130.396235 146.728873 
L 131.47763 146.564085 
L 132.559026 146.056504 
L 133.640421 144.838879 
L 134.721816 142.564057 
L 135.803212 139.25421 
L 136.884607 135.503662 
L 137.966002 132.193815 
L 139.047398 129.918993 
L 140.128793 128.701368 
L 141.210188 128.193787 
L 142.291584 128.028999 
L 145.53577 127.977872 
L 175.81484 128.028999 
L 176.896235 128.193787 
L 177.97763 128.701368 
L 179.059026 129.918993 
L 180.140421 132.193815 
L 181.221816 135.503662 
L 182.303212 139.25421 
L 183.384607 142.564057 
L 184.466002 144.838879 
L 185.547398 146.056504 
L 186.628793 146.564085 
L 187.710188 146.728873 
L 190.954374 146.78 
L 221.233444 146.730104 
L 222.31484 146.569283 
L 223.396235 146.073922 
L 224.47763 144.885611 
L 225.559026 142.665555 
L 226.640421 139.435392 
L 227.721816 135.775138 
L 228.803212 132.544976 
L 229.884607 130.32492 
L 230.966002 129.136609 
L 232.047398 128.641248 
L 233.128793 128.480427 
L 236.372979 128.430531 
L 266.652049 128.480427 
L 267.733444 128.641248 
L 268.81484 129.136609 
L 269.896235 130.32492 
L 270.97763 132.544976 
L 272.059026 135.775138 
L 273.140421 139.435392 
L 274.221816 142.665555 
L 275.303212 144.885611 
L 276.384607 146.073922 
L 277.466002 146.569283 
L 278.547398 146.730104 
L 281.791584 146.78 
L 314.038095 146.78 
L 314.038095 146.78 
" style="fill:none;stroke:#cccccc;stroke-linecap:square;stroke-width:1.75;"/>
   </g>
   <g id="line2d_14">
    <path clip-path="url(#pebf4af994a)" d="M 0.628793 146.78 
L 39.559026 146.749865 
L 40.640421 146.652736 
L 41.721816 146.353559 
L 42.803212 145.635871 
L 43.884607 144.295053 
L 44.966002 142.344174 
L 46.047398 140.133539 
L 47.128793 138.18266 
L 48.210188 136.841842 
L 49.291584 136.124154 
L 50.372979 135.824977 
L 52.53577 135.703291 
L 78.489258 135.697713 
L 84.97763 135.727849 
L 86.059026 135.824977 
L 87.140421 136.124154 
L 88.221816 136.841842 
L 89.303212 138.18266 
L 90.384607 140.133539 
L 91.466002 142.344174 
L 92.547398 144.295053 
L 93.628793 145.635871 
L 94.710188 146.353559 
L 95.791584 146.652736 
L 97.954374 146.774423 
L 123.907863 146.78 
L 130.396235 146.75116 
L 131.47763 146.658206 
L 132.559026 146.371888 
L 133.640421 145.685046 
L 134.721816 144.401856 
L 135.803212 142.534827 
L 136.884607 140.419205 
L 137.966002 138.552176 
L 139.047398 137.268986 
L 140.128793 136.582144 
L 141.210188 136.295826 
L 143.372979 136.17937 
L 170.407863 136.174032 
L 175.81484 136.202872 
L 176.896235 136.295826 
L 177.97763 136.582144 
L 179.059026 137.268986 
L 180.140421 138.552176 
L 181.221816 140.419205 
L 182.303212 142.534827 
L 183.384607 144.401856 
L 184.466002 145.685046 
L 185.547398 146.371888 
L 186.628793 146.658206 
L 188.791584 146.774662 
L 215.826468 146.78 
L 221.233444 146.751931 
L 222.31484 146.661461 
L 223.396235 146.382795 
L 224.47763 145.714311 
L 225.559026 144.465417 
L 226.640421 142.648287 
L 227.721816 140.589209 
L 228.803212 138.77208 
L 229.884607 137.523186 
L 230.966002 136.854701 
L 232.047398 136.576035 
L 234.210188 136.462692 
L 261.245072 136.457497 
L 266.652049 136.485566 
L 267.733444 136.576035 
L 268.81484 136.854701 
L 269.896235 137.523186 
L 270.97763 138.77208 
L 272.059026 140.589209 
L 273.140421 142.648287 
L 274.221816 144.465417 
L 275.303212 145.714311 
L 276.384607 146.382795 
L 277.466002 146.661461 
L 279.628793 146.774805 
L 306.663677 146.78 
L 314.038095 146.78 
L 314.038095 146.78 
" style="fill:none;stroke:#cccccc;stroke-linecap:square;stroke-width:1.75;"/>
   </g>
   <g id="line2d_15">
    <path clip-path="url(#pebf4af994a)" d="M 0.628793 146.78 
L 41.721816 146.67728 
L 42.803212 146.504406 
L 43.884607 146.181433 
L 48.210188 144.386127 
L 50.372979 144.141187 
L 56.861351 144.110532 
L 87.140421 144.213252 
L 88.221816 144.386127 
L 89.303212 144.709099 
L 93.628793 146.504406 
L 95.791584 146.749345 
L 102.279956 146.78 
L 132.559026 146.694746 
L 133.640421 146.551265 
L 134.721816 146.283208 
L 139.047398 144.79316 
L 141.210188 144.589868 
L 148.779956 144.564425 
L 177.97763 144.649679 
L 179.059026 144.79316 
L 180.140421 145.061217 
L 184.466002 146.551265 
L 186.628793 146.754557 
L 194.198561 146.78 
L 223.396235 146.697479 
L 224.47763 146.558599 
L 225.559026 146.299137 
L 229.884607 144.856863 
L 232.047398 144.660089 
L 239.617165 144.635462 
L 268.81484 144.717983 
L 269.896235 144.856863 
L 270.97763 145.116325 
L 275.303212 146.558599 
L 277.466002 146.755373 
L 285.03577 146.78 
L 314.038095 146.78 
L 314.038095 146.78 
" style="fill:none;stroke:#cccccc;stroke-linecap:square;stroke-width:1.75;"/>
   </g>
   <g id="line2d_16">
    <path clip-path="url(#pebf4af994a)" d="M 0.628793 146.78 
L 40.640421 146.74199 
L 41.721816 146.652633 
L 42.803212 146.438279 
L 43.884607 146.037812 
L 48.210188 143.811734 
L 49.291584 143.597379 
L 51.454374 143.479013 
L 68.7567 143.470013 
L 86.059026 143.508023 
L 87.140421 143.597379 
L 88.221816 143.811734 
L 89.303212 144.212201 
L 93.628793 146.438279 
L 94.710188 146.652633 
L 96.872979 146.770999 
L 114.175305 146.78 
L 132.559026 146.67018 
L 133.640421 146.485356 
L 134.721816 146.14006 
L 139.047398 144.220658 
L 141.210188 143.958788 
L 146.617165 143.926014 
L 177.97763 144.035834 
L 179.059026 144.220658 
L 180.140421 144.565955 
L 184.466002 146.485356 
L 186.628793 146.747226 
L 192.03577 146.78 
L 223.396235 146.673589 
L 224.47763 146.494502 
L 225.559026 146.159923 
L 229.884607 144.300101 
L 232.047398 144.046359 
L 237.454374 144.014603 
L 268.81484 144.121014 
L 269.896235 144.300101 
L 270.97763 144.634679 
L 275.303212 146.494502 
L 277.466002 146.748243 
L 282.872979 146.78 
L 314.038095 146.78 
L 314.038095 146.78 
" style="fill:none;stroke:#cccccc;stroke-linecap:square;stroke-width:1.75;"/>
   </g>
   <g id="line2d_17">
    <path clip-path="url(#pebf4af994a)" d="M 0.628793 146.78 
L 41.721816 146.71773 
L 43.884607 146.417141 
L 48.210188 145.328802 
L 50.372979 145.180317 
L 60.105537 145.161733 
L 87.140421 145.224003 
L 89.303212 145.524592 
L 93.628793 146.612931 
L 95.791584 146.761417 
L 105.524142 146.78 
L 132.559026 146.735057 
L 134.721816 146.518108 
L 139.047398 145.732603 
L 142.291584 145.615198 
L 176.896235 145.625434 
L 179.059026 145.732603 
L 181.221816 146.07952 
L 183.384607 146.518108 
L 185.547398 146.735057 
L 189.872979 146.779922 
L 223.396235 146.736663 
L 225.559026 146.527467 
L 229.884607 145.770035 
L 233.128793 145.656826 
L 267.733444 145.666696 
L 269.896235 145.770035 
L 272.059026 146.104554 
L 274.221816 146.527467 
L 276.384607 146.736663 
L 281.791584 146.78 
L 314.038095 146.78 
L 314.038095 146.78 
" style="fill:none;stroke:#cccccc;stroke-linecap:square;stroke-width:1.75;"/>
   </g>
   <g id="line2d_18">
    <path clip-path="url(#pebf4af994a)" d="M 0.628793 146.78 
L 40.640421 146.718862 
L 41.721816 146.575135 
L 42.803212 146.230353 
L 43.884607 145.586215 
L 47.128793 142.64978 
L 48.210188 142.005642 
L 49.291584 141.66086 
L 51.454374 141.470472 
L 62.268328 141.455995 
L 86.059026 141.517133 
L 87.140421 141.66086 
L 88.221816 142.005642 
L 89.303212 142.64978 
L 92.547398 145.586215 
L 93.628793 146.230353 
L 94.710188 146.575135 
L 96.872979 146.765523 
L 107.686933 146.78 
L 131.47763 146.724169 
L 132.559026 146.59292 
L 133.640421 146.27807 
L 134.721816 145.689853 
L 137.966002 143.008343 
L 139.047398 142.420126 
L 140.128793 142.105276 
L 142.291584 141.931417 
L 154.186933 141.918196 
L 176.896235 141.974027 
L 177.97763 142.105276 
L 179.059026 142.420126 
L 180.140421 143.008343 
L 183.384607 145.689853 
L 184.466002 146.27807 
L 185.547398 146.59292 
L 187.710188 146.76678 
L 199.605537 146.78 
L 222.31484 146.725803 
L 223.396235 146.598396 
L 224.47763 146.292761 
L 225.559026 145.72176 
L 228.803212 143.118737 
L 229.884607 142.547736 
L 230.966002 142.242101 
L 233.128793 142.073331 
L 245.024142 142.060497 
L 267.733444 142.114694 
L 268.81484 142.242101 
L 269.896235 142.547736 
L 270.97763 143.118737 
L 274.221816 145.72176 
L 275.303212 146.292761 
L 276.384607 146.598396 
L 278.547398 146.767167 
L 290.442747 146.78 
L 314.038095 146.78 
L 314.038095 146.78 
" style="fill:none;stroke:#cccccc;stroke-linecap:square;stroke-width:1.75;"/>
   </g>
   <g id="line2d_19">
    <path clip-path="url(#pebf4af994a)" d="M 0.628793 146.78 
L 40.640421 146.695607 
L 41.721816 146.497213 
L 42.803212 146.02129 
L 43.884607 145.132149 
L 47.128793 141.078817 
L 48.210188 140.189675 
L 49.291584 139.713752 
L 50.372979 139.515358 
L 53.617165 139.431457 
L 86.059026 139.515358 
L 87.140421 139.713752 
L 88.221816 140.189675 
L 89.303212 141.078817 
L 92.547398 145.132149 
L 93.628793 146.02129 
L 94.710188 146.497213 
L 95.791584 146.695607 
L 99.03577 146.779508 
L 131.47763 146.700979 
L 132.559026 146.515213 
L 133.640421 146.069583 
L 134.721816 145.237037 
L 137.966002 141.441705 
L 139.047398 140.609158 
L 140.128793 140.163529 
L 141.210188 139.977762 
L 144.454374 139.899202 
L 176.896235 139.977762 
L 177.97763 140.163529 
L 179.059026 140.609158 
L 180.140421 141.441705 
L 183.384607 145.237037 
L 184.466002 146.069583 
L 185.547398 146.515213 
L 186.628793 146.700979 
L 189.872979 146.77954 
L 222.31484 146.703207 
L 223.396235 146.522679 
L 224.47763 146.089616 
L 225.559026 145.280546 
L 228.803212 141.592239 
L 229.884607 140.783169 
L 230.966002 140.350106 
L 232.047398 140.169578 
L 235.291584 140.093232 
L 267.733444 140.169578 
L 268.81484 140.350106 
L 269.896235 140.783169 
L 270.97763 141.592239 
L 274.221816 145.280546 
L 275.303212 146.089616 
L 276.384607 146.522679 
L 277.466002 146.703207 
L 280.710188 146.779553 
L 314.038095 146.78 
L 314.038095 146.78 
" style="fill:none;stroke:#cccccc;stroke-linecap:square;stroke-width:1.75;"/>
   </g>
   <g id="line2d_20">
    <path clip-path="url(#pebf4af994a)" d="M 0.628793 146.78 
L 40.640421 146.741517 
L 41.721816 146.651051 
L 42.803212 146.434034 
L 43.884607 146.028592 
L 48.210188 143.774863 
L 49.291584 143.557845 
L 51.454374 143.438009 
L 68.7567 143.428897 
L 86.059026 143.467379 
L 87.140421 143.557845 
L 88.221816 143.774863 
L 89.303212 144.180304 
L 93.628793 146.434034 
L 94.710188 146.651051 
L 96.872979 146.770888 
L 114.175305 146.78 
L 131.47763 146.746756 
L 133.640421 146.481125 
L 134.721816 146.13087 
L 139.047398 144.183906 
L 141.210188 143.918276 
L 146.617165 143.885031 
L 176.896235 143.918276 
L 179.059026 144.183906 
L 180.140421 144.534161 
L 184.466002 146.481125 
L 186.628793 146.746756 
L 192.03577 146.78 
L 223.396235 146.672055 
L 224.47763 146.490386 
L 225.559026 146.150985 
L 229.884607 144.264352 
L 232.047398 144.006953 
L 237.454374 143.974739 
L 268.81484 144.082684 
L 269.896235 144.264352 
L 270.97763 144.603754 
L 275.303212 146.490386 
L 277.466002 146.747786 
L 282.872979 146.78 
L 314.038095 146.78 
L 314.038095 146.78 
" style="fill:none;stroke:#cccccc;stroke-linecap:square;stroke-width:1.75;"/>
   </g>
   <g id="line2d_21">
    <path clip-path="url(#pebf4af994a)" d="M 0.628793 146.78 
L 38.47763 146.750009 
L 39.559026 146.617954 
L 40.640421 146.095665 
L 41.721816 144.486901 
L 42.803212 140.627678 
L 43.884607 133.4177 
L 44.966002 122.927244 
L 46.047398 111.039999 
L 47.128793 100.549543 
L 48.210188 93.339565 
L 49.291584 89.480342 
L 50.372979 87.871579 
L 51.454374 87.349289 
L 53.617165 87.191231 
L 82.81484 87.191231 
L 84.97763 87.349289 
L 86.059026 87.871579 
L 87.140421 89.480342 
L 88.221816 93.339565 
L 89.303212 100.549543 
L 90.384607 111.039999 
L 91.466002 122.927244 
L 92.547398 133.4177 
L 93.628793 140.627678 
L 94.710188 144.486901 
L 95.791584 146.095665 
L 96.872979 146.617954 
L 99.03577 146.776012 
L 128.233444 146.776038 
L 130.396235 146.618992 
L 131.47763 146.100051 
L 132.559026 144.501599 
L 133.640421 140.667113 
L 134.721816 133.503349 
L 135.803212 123.080134 
L 136.884607 111.269084 
L 137.966002 100.845869 
L 139.047398 93.682105 
L 140.128793 89.847618 
L 141.210188 88.249167 
L 142.291584 87.730225 
L 144.454374 87.57318 
L 173.652049 87.57318 
L 175.81484 87.730225 
L 176.896235 88.249167 
L 177.97763 89.847618 
L 179.059026 93.682105 
L 180.140421 100.845869 
L 181.221816 111.269084 
L 182.303212 123.080134 
L 183.384607 133.503349 
L 184.466002 140.667113 
L 185.547398 144.501599 
L 186.628793 146.100051 
L 187.710188 146.618992 
L 189.872979 146.776038 
L 219.070654 146.776086 
L 221.233444 146.620961 
L 222.31484 146.108365 
L 223.396235 144.529459 
L 224.47763 140.74186 
L 225.559026 133.665693 
L 226.640421 123.369931 
L 227.721816 111.703305 
L 228.803212 101.407543 
L 229.884607 94.331376 
L 230.966002 90.543777 
L 232.047398 88.96487 
L 233.128793 88.452275 
L 235.291584 88.29715 
L 264.489258 88.29715 
L 266.652049 88.452275 
L 267.733444 88.96487 
L 268.81484 90.543777 
L 269.896235 94.331376 
L 270.97763 101.407543 
L 272.059026 111.703305 
L 273.140421 123.369931 
L 274.221816 133.665693 
L 275.303212 140.74186 
L 276.384607 144.529459 
L 277.466002 146.108365 
L 278.547398 146.620961 
L 280.710188 146.776086 
L 312.070654 146.78 
L 314.038095 146.78 
L 314.038095 146.78 
" style="fill:none;stroke:#cccccc;stroke-linecap:square;stroke-width:1.75;"/>
   </g>
   <g id="line2d_22">
    <path clip-path="url(#pebf4af994a)" d="M 0.628793 146.78 
L 40.640421 146.717645 
L 41.721816 146.571057 
L 42.803212 146.219411 
L 43.884607 145.562451 
L 47.128793 142.567562 
L 48.210188 141.910601 
L 49.291584 141.558956 
L 51.454374 141.364778 
L 62.268328 141.350013 
L 86.059026 141.412368 
L 87.140421 141.558956 
L 88.221816 141.910601 
L 89.303212 142.567562 
L 92.547398 145.562451 
L 93.628793 146.219411 
L 94.710188 146.571057 
L 96.872979 146.765235 
L 107.686933 146.78 
L 131.47763 146.722956 
L 132.559026 146.588854 
L 133.640421 146.26716 
L 134.721816 145.666158 
L 137.966002 142.926364 
L 139.047398 142.325362 
L 140.128793 142.003668 
L 142.291584 141.82603 
L 154.186933 141.812522 
L 176.896235 141.869566 
L 177.97763 142.003668 
L 179.059026 142.325362 
L 180.140421 142.926364 
L 183.384607 145.666158 
L 184.466002 146.26716 
L 185.547398 146.588854 
L 187.710188 146.766492 
L 199.605537 146.78 
L 222.31484 146.724622 
L 223.396235 146.594436 
L 224.47763 146.282137 
L 225.559026 145.698685 
L 228.803212 143.038902 
L 229.884607 142.455451 
L 230.966002 142.143152 
L 233.128793 141.970701 
L 245.024142 141.957588 
L 267.733444 142.012966 
L 268.81484 142.143152 
L 269.896235 142.455451 
L 270.97763 143.038902 
L 274.221816 145.698685 
L 275.303212 146.282137 
L 276.384607 146.594436 
L 278.547398 146.766887 
L 290.442747 146.78 
L 314.038095 146.78 
L 314.038095 146.78 
" style="fill:none;stroke:#cccccc;stroke-linecap:square;stroke-width:1.75;"/>
   </g>
   <g id="line2d_23">
    <path clip-path="url(#pebf4af994a)" d="M 0.628793 146.78 
L 41.721816 146.669769 
L 42.803212 146.484253 
L 43.884607 146.137664 
L 48.210188 144.211078 
L 50.372979 143.948228 
L 55.779956 143.915331 
L 87.140421 144.025562 
L 88.221816 144.211078 
L 89.303212 144.557667 
L 93.628793 146.484253 
L 95.791584 146.747103 
L 101.198561 146.78 
L 132.559026 146.68726 
L 133.640421 146.53118 
L 134.721816 146.239585 
L 139.047398 144.618694 
L 141.210188 144.397551 
L 147.698561 144.369874 
L 177.97763 144.462614 
L 179.059026 144.618694 
L 180.140421 144.910289 
L 184.466002 146.53118 
L 186.628793 146.752323 
L 193.117165 146.78 
L 223.396235 146.6902 
L 224.47763 146.539068 
L 225.559026 146.256718 
L 229.884607 144.687215 
L 232.047398 144.473083 
L 238.53577 144.446284 
L 268.81484 144.536084 
L 269.896235 144.687215 
L 270.97763 144.969566 
L 275.303212 146.539068 
L 277.466002 146.753201 
L 283.954374 146.78 
L 314.038095 146.78 
L 314.038095 146.78 
" style="fill:none;stroke:#cccccc;stroke-linecap:square;stroke-width:1.75;"/>
   </g>
   <g id="line2d_24">
    <path clip-path="url(#pebf4af994a)" d="M 0.628793 146.78 
L 39.559026 146.694608 
L 40.640421 146.419381 
L 41.721816 145.571623 
L 42.803212 143.537958 
L 43.884607 139.738572 
L 44.966002 134.210498 
L 46.047398 127.946369 
L 47.128793 122.418294 
L 48.210188 118.618908 
L 49.291584 116.585243 
L 50.372979 115.737486 
L 51.454374 115.462259 
L 53.617165 115.378968 
L 83.896235 115.392671 
L 84.97763 115.462259 
L 86.059026 115.737486 
L 87.140421 116.585243 
L 88.221816 118.618908 
L 89.303212 122.418294 
L 90.384607 127.946369 
L 91.466002 134.210498 
L 92.547398 139.738572 
L 93.628793 143.537958 
L 94.710188 145.571623 
L 95.791584 146.419381 
L 96.872979 146.694608 
L 99.03577 146.777899 
L 129.31484 146.764439 
L 130.396235 146.695922 
L 131.47763 146.424931 
L 132.559026 145.590221 
L 133.640421 143.587854 
L 134.721816 139.846942 
L 135.803212 134.403946 
L 136.884607 128.236224 
L 137.966002 122.793228 
L 139.047398 119.052315 
L 140.128793 117.049949 
L 141.210188 116.215239 
L 142.291584 115.944248 
L 144.454374 115.862239 
L 174.733444 115.875731 
L 175.81484 115.944248 
L 176.896235 116.215239 
L 177.97763 117.049949 
L 179.059026 119.052315 
L 180.140421 122.793228 
L 181.221816 128.236224 
L 182.303212 134.403946 
L 183.384607 139.846942 
L 184.466002 143.587854 
L 185.547398 145.590221 
L 186.628793 146.424931 
L 187.710188 146.695922 
L 189.872979 146.777931 
L 220.152049 146.764758 
L 221.233444 146.697643 
L 222.31484 146.432198 
L 223.396235 145.614572 
L 224.47763 143.653189 
L 225.559026 139.988843 
L 226.640421 134.657251 
L 227.721816 128.615766 
L 228.803212 123.284174 
L 229.884607 119.619828 
L 230.966002 117.658445 
L 232.047398 116.840819 
L 233.128793 116.575375 
L 235.291584 116.495044 
L 265.570654 116.50826 
L 266.652049 116.575375 
L 267.733444 116.840819 
L 268.81484 117.658445 
L 269.896235 119.619828 
L 270.97763 123.284174 
L 272.059026 128.615766 
L 273.140421 134.657251 
L 274.221816 139.988843 
L 275.303212 143.653189 
L 276.384607 145.614572 
L 277.466002 146.432198 
L 278.547398 146.697643 
L 280.710188 146.777973 
L 314.038095 146.78 
L 314.038095 146.78 
" style="fill:none;stroke:#cccccc;stroke-linecap:square;stroke-width:1.75;"/>
   </g>
   <g id="line2d_25">
    <path clip-path="url(#pebf4af994a)" d="M 0.628793 146.78 
L 41.721816 146.724352 
L 43.884607 146.455729 
L 48.210188 145.48313 
L 50.372979 145.350435 
L 61.186933 145.333828 
L 87.140421 145.389476 
L 89.303212 145.658098 
L 93.628793 146.630698 
L 95.791584 146.763393 
L 106.605537 146.78 
L 133.640421 146.677123 
L 135.803212 146.381142 
L 139.047398 145.886386 
L 142.291584 145.786219 
L 177.97763 145.821854 
L 180.140421 146.006949 
L 184.466002 146.677123 
L 187.710188 146.77729 
L 223.396235 146.743075 
L 225.559026 146.564831 
L 229.884607 145.919465 
L 233.128793 145.823006 
L 268.81484 145.857321 
L 270.97763 146.035565 
L 275.303212 146.680931 
L 278.547398 146.777391 
L 314.038095 146.78 
L 314.038095 146.78 
" style="fill:none;stroke:#cccccc;stroke-linecap:square;stroke-width:1.75;"/>
   </g>
   <g id="line2d_26">
    <path clip-path="url(#pebf4af994a)" d="M 0.628793 146.78 
L 39.559026 146.720311 
L 40.640421 146.527928 
L 41.721816 145.935347 
L 42.803212 144.51382 
L 43.884607 141.858057 
L 44.966002 137.993944 
L 46.047398 133.615331 
L 47.128793 129.751219 
L 48.210188 127.095456 
L 49.291584 125.673928 
L 50.372979 125.081347 
L 51.454374 124.888965 
L 54.698561 124.829276 
L 84.97763 124.888965 
L 86.059026 125.081347 
L 87.140421 125.673928 
L 88.221816 127.095456 
L 89.303212 129.751219 
L 90.384607 133.615331 
L 91.466002 137.993944 
L 92.547398 141.858057 
L 93.628793 144.51382 
L 94.710188 145.935347 
L 95.791584 146.527928 
L 96.872979 146.720311 
L 100.117165 146.78 
L 130.396235 146.721639 
L 131.47763 146.533536 
L 132.559026 145.954139 
L 133.640421 144.564239 
L 134.721816 141.967562 
L 135.803212 138.18942 
L 136.884607 133.908224 
L 137.966002 130.130082 
L 139.047398 127.533406 
L 140.128793 126.143505 
L 141.210188 125.564108 
L 142.291584 125.376006 
L 145.53577 125.317645 
L 175.81484 125.376006 
L 176.896235 125.564108 
L 177.97763 126.143505 
L 179.059026 127.533406 
L 180.140421 130.130082 
L 181.221816 133.908224 
L 182.303212 138.18942 
L 183.384607 141.967562 
L 184.466002 144.564239 
L 185.547398 145.954139 
L 186.628793 146.533536 
L 187.710188 146.721639 
L 190.954374 146.78 
L 221.233444 146.722997 
L 222.31484 146.539271 
L 223.396235 145.973356 
L 224.47763 144.615795 
L 225.559026 142.079539 
L 226.640421 138.389307 
L 227.721816 134.207726 
L 228.803212 130.517495 
L 229.884607 127.981238 
L 230.966002 126.623678 
L 232.047398 126.057762 
L 233.128793 125.874036 
L 236.372979 125.817033 
L 266.652049 125.874036 
L 267.733444 126.057762 
L 268.81484 126.623678 
L 269.896235 127.981238 
L 270.97763 130.517495 
L 272.059026 134.207726 
L 273.140421 138.389307 
L 274.221816 142.079539 
L 275.303212 144.615795 
L 276.384607 145.973356 
L 277.466002 146.539271 
L 278.547398 146.722997 
L 281.791584 146.78 
L 314.038095 146.78 
L 314.038095 146.78 
" style="fill:none;stroke:#cccccc;stroke-linecap:square;stroke-width:1.75;"/>
   </g>
   <g id="line2d_27">
    <path clip-path="url(#pebf4af994a)" d="M 0.628793 146.78 
L 41.721816 146.708791 
L 43.884607 146.365054 
L 48.210188 145.12049 
L 50.372979 144.95069 
L 59.024142 144.929439 
L 87.140421 145.000648 
L 89.303212 145.344385 
L 93.628793 146.588949 
L 95.791584 146.758749 
L 104.442747 146.78 
L 132.559026 146.726149 
L 134.721816 146.466203 
L 139.047398 145.525019 
L 141.210188 145.39661 
L 152.024142 145.380539 
L 177.97763 145.43439 
L 180.140421 145.694336 
L 184.466002 146.63552 
L 186.628793 146.763929 
L 197.442747 146.78 
L 223.396235 146.728007 
L 225.559026 146.477026 
L 229.884607 145.568303 
L 232.047398 145.444323 
L 242.861351 145.428807 
L 268.81484 145.4808 
L 270.97763 145.731781 
L 275.303212 146.640504 
L 277.466002 146.764484 
L 288.279956 146.78 
L 314.038095 146.78 
L 314.038095 146.78 
" style="fill:none;stroke:#cccccc;stroke-linecap:square;stroke-width:1.75;"/>
   </g>
   <g id="line2d_28">
    <path clip-path="url(#pebf4af994a)" d="M 0.628793 146.78 
L 40.640421 146.71515 
L 41.721816 146.562696 
L 42.803212 146.19698 
L 43.884607 145.513733 
L 47.128793 142.39901 
L 48.210188 141.715763 
L 49.291584 141.350047 
L 51.454374 141.1481 
L 62.268328 141.132743 
L 86.059026 141.197594 
L 87.140421 141.350047 
L 88.221816 141.715763 
L 89.303212 142.39901 
L 92.547398 145.513733 
L 93.628793 146.19698 
L 94.710188 146.562696 
L 96.872979 146.764644 
L 107.686933 146.78 
L 131.47763 146.720468 
L 132.559026 146.580518 
L 133.640421 146.244794 
L 134.721816 145.617581 
L 137.966002 142.758299 
L 139.047398 142.131085 
L 140.128793 141.795361 
L 142.291584 141.609976 
L 153.105537 141.595879 
L 176.896235 141.655411 
L 177.97763 141.795361 
L 179.059026 142.131085 
L 180.140421 142.758299 
L 183.384607 145.617581 
L 184.466002 146.244794 
L 185.547398 146.580518 
L 187.710188 146.765903 
L 198.524142 146.78 
L 222.31484 146.722199 
L 223.396235 146.586317 
L 224.47763 146.260354 
L 225.559026 145.651374 
L 228.803212 142.875218 
L 229.884607 142.266238 
L 230.966002 141.940275 
L 233.128793 141.760279 
L 245.024142 141.746592 
L 267.733444 141.804393 
L 268.81484 141.940275 
L 269.896235 142.266238 
L 270.97763 142.875218 
L 274.221816 145.651374 
L 275.303212 146.260354 
L 276.384607 146.586317 
L 278.547398 146.766313 
L 290.442747 146.78 
L 314.038095 146.78 
L 314.038095 146.78 
" style="fill:none;stroke:#cccccc;stroke-linecap:square;stroke-width:1.75;"/>
   </g>
   <g id="line2d_29">
    <path clip-path="url(#pebf4af994a)" d="M 0.628793 146.78 
L 41.721816 146.705444 
L 43.884607 146.345548 
L 48.210188 145.042477 
L 50.372979 144.864695 
L 57.942747 144.842445 
L 87.140421 144.917002 
L 89.303212 145.276897 
L 93.628793 146.579968 
L 95.791584 146.75775 
L 103.361351 146.78 
L 132.559026 146.722814 
L 134.721816 146.446765 
L 139.047398 145.447277 
L 141.210188 145.310914 
L 150.942747 145.293848 
L 177.97763 145.351034 
L 180.140421 145.627083 
L 184.466002 146.62657 
L 186.628793 146.762934 
L 196.361351 146.78 
L 223.396235 146.724765 
L 225.559026 146.458134 
L 229.884607 145.492746 
L 232.047398 145.361035 
L 242.861351 145.344551 
L 268.81484 145.399787 
L 270.97763 145.666417 
L 275.303212 146.631805 
L 277.466002 146.763516 
L 288.279956 146.78 
L 314.038095 146.78 
L 314.038095 146.78 
" style="fill:none;stroke:#cccccc;stroke-linecap:square;stroke-width:1.75;"/>
   </g>
   <g id="line2d_30">
    <path clip-path="url(#pebf4af994a)" d="M 0.628793 146.78 
L 41.721816 146.690164 
L 42.803212 146.538974 
L 43.884607 146.256512 
L 48.210188 144.686392 
L 50.372979 144.472175 
L 56.861351 144.445365 
L 87.140421 144.535201 
L 88.221816 144.686392 
L 89.303212 144.968853 
L 93.628793 146.538974 
L 95.791584 146.75319 
L 102.279956 146.78 
L 132.559026 146.707587 
L 134.721816 146.358034 
L 139.047398 145.092413 
L 141.210188 144.91974 
L 149.861351 144.898129 
L 177.97763 144.970543 
L 180.140421 145.320095 
L 184.466002 146.585717 
L 186.628793 146.758389 
L 195.279956 146.78 
L 223.396235 146.709964 
L 225.559026 146.371885 
L 229.884607 145.147807 
L 232.047398 144.980802 
L 240.698561 144.959901 
L 268.81484 145.029937 
L 270.97763 145.368016 
L 275.303212 146.592094 
L 277.466002 146.759099 
L 286.117165 146.78 
L 314.038095 146.78 
L 314.038095 146.78 
" style="fill:none;stroke:#cccccc;stroke-linecap:square;stroke-width:1.75;"/>
   </g>
   <g id="line2d_31">
    <path clip-path="url(#pebf4af994a)" d="M 0.628793 146.78 
L 41.721816 146.698711 
L 42.803212 146.561904 
L 43.884607 146.306315 
L 48.210188 144.88557 
L 50.372979 144.691733 
L 57.942747 144.667474 
L 87.140421 144.748763 
L 88.221816 144.88557 
L 89.303212 145.141159 
L 93.628793 146.561904 
L 95.791584 146.755741 
L 103.361351 146.78 
L 132.559026 146.716104 
L 134.721816 146.407667 
L 139.047398 145.290911 
L 141.210188 145.138548 
L 149.861351 145.11948 
L 177.97763 145.183376 
L 180.140421 145.491813 
L 184.466002 146.608569 
L 186.628793 146.760931 
L 195.279956 146.78 
L 223.396235 146.718243 
L 225.559026 146.420132 
L 229.884607 145.340763 
L 232.047398 145.193501 
L 241.779956 145.175071 
L 268.81484 145.236828 
L 270.97763 145.534939 
L 275.303212 146.614308 
L 277.466002 146.76157 
L 287.198561 146.78 
L 314.038095 146.78 
L 314.038095 146.78 
" style="fill:none;stroke:#cccccc;stroke-linecap:square;stroke-width:1.75;"/>
   </g>
   <g id="line2d_32">
    <path clip-path="url(#pebf4af994a)" d="M 0.628793 146.78 
L 40.640421 146.708042 
L 41.721816 146.53888 
L 42.803212 146.133081 
L 43.884607 145.374949 
L 47.128793 141.918849 
L 48.210188 141.160717 
L 49.291584 140.754918 
L 50.372979 140.585756 
L 53.617165 140.514217 
L 86.059026 140.585756 
L 87.140421 140.754918 
L 88.221816 141.160717 
L 89.303212 141.918849 
L 92.547398 145.374949 
L 93.628793 146.133081 
L 94.710188 146.53888 
L 95.791584 146.708042 
L 99.03577 146.779581 
L 131.47763 146.71338 
L 132.559026 146.556768 
L 133.640421 146.181075 
L 134.721816 145.479187 
L 137.966002 142.279489 
L 139.047398 141.577601 
L 140.128793 141.201907 
L 142.291584 140.994451 
L 152.024142 140.978675 
L 176.896235 141.045295 
L 177.97763 141.201907 
L 179.059026 141.577601 
L 180.140421 142.279489 
L 183.384607 145.479187 
L 184.466002 146.181075 
L 185.547398 146.556768 
L 187.710188 146.764225 
L 197.442747 146.78 
L 222.31484 146.715294 
L 223.396235 146.563181 
L 224.47763 146.19828 
L 225.559026 145.516556 
L 228.803212 142.408778 
L 229.884607 141.727053 
L 230.966002 141.362153 
L 233.128793 141.160656 
L 243.942747 141.145334 
L 267.733444 141.21004 
L 268.81484 141.362153 
L 269.896235 141.727053 
L 270.97763 142.408778 
L 274.221816 145.516556 
L 275.303212 146.19828 
L 276.384607 146.563181 
L 278.547398 146.764678 
L 289.361351 146.78 
L 314.038095 146.78 
L 314.038095 146.78 
" style="fill:none;stroke:#cccccc;stroke-linecap:square;stroke-width:1.75;"/>
   </g>
   <g id="line2d_33">
    <path clip-path="url(#pebf4af994a)" d="M 0.628793 146.78 
L 40.640421 146.691922 
L 41.721816 146.484866 
L 42.803212 145.988163 
L 43.884607 145.060201 
L 44.966002 143.710023 
L 47.128793 140.829893 
L 48.210188 139.90193 
L 49.291584 139.405228 
L 50.372979 139.198171 
L 52.53577 139.113954 
L 83.896235 139.113954 
L 86.059026 139.198171 
L 87.140421 139.405228 
L 88.221816 139.90193 
L 89.303212 140.829893 
L 90.384607 142.180071 
L 92.547398 145.060201 
L 93.628793 145.988163 
L 94.710188 146.484866 
L 95.791584 146.691922 
L 97.954374 146.77614 
L 129.31484 146.776376 
L 131.47763 146.697304 
L 132.559026 146.502897 
L 133.640421 146.036541 
L 134.721816 145.165273 
L 137.966002 141.193419 
L 139.047398 140.322151 
L 140.128793 139.855795 
L 141.210188 139.661389 
L 144.454374 139.579174 
L 176.896235 139.661389 
L 177.97763 139.855795 
L 179.059026 140.322151 
L 180.140421 141.193419 
L 183.384607 145.165273 
L 184.466002 146.036541 
L 185.547398 146.502897 
L 186.628793 146.697304 
L 189.872979 146.779518 
L 222.31484 146.699624 
L 223.396235 146.510671 
L 224.47763 146.057399 
L 225.559026 145.210574 
L 228.803212 141.350152 
L 229.884607 140.503327 
L 230.966002 140.050054 
L 232.047398 139.861102 
L 235.291584 139.781194 
L 267.733444 139.861102 
L 268.81484 140.050054 
L 269.896235 140.503327 
L 270.97763 141.350152 
L 274.221816 145.210574 
L 275.303212 146.057399 
L 276.384607 146.510671 
L 277.466002 146.699624 
L 280.710188 146.779532 
L 314.038095 146.78 
L 314.038095 146.78 
" style="fill:none;stroke:#cccccc;stroke-linecap:square;stroke-width:1.75;"/>
   </g>
   <g id="line2d_34">
    <path clip-path="url(#pebf4af994a)" d="M 0.628793 146.78 
L 38.47763 146.759193 
L 39.559026 146.667576 
L 40.640421 146.305224 
L 41.721816 145.189101 
L 42.803212 142.511661 
L 43.884607 137.509544 
L 44.966002 130.231507 
L 46.047398 121.98441 
L 47.128793 114.706373 
L 48.210188 109.704256 
L 49.291584 107.026816 
L 50.372979 105.910693 
L 51.454374 105.548341 
L 53.617165 105.438683 
L 83.896235 105.456724 
L 84.97763 105.548341 
L 86.059026 105.910693 
L 87.140421 107.026816 
L 88.221816 109.704256 
L 89.303212 114.706373 
L 90.384607 121.98441 
L 91.466002 130.231507 
L 92.547398 137.509544 
L 93.628793 142.511661 
L 94.710188 145.189101 
L 95.791584 146.305224 
L 96.872979 146.667576 
L 99.03577 146.777233 
L 129.31484 146.759426 
L 130.396235 146.668833 
L 131.47763 146.310533 
L 132.559026 145.206891 
L 133.640421 142.559392 
L 134.721816 137.613211 
L 135.803212 130.416561 
L 136.884607 122.261689 
L 137.966002 115.065039 
L 139.047398 110.118859 
L 140.128793 107.471359 
L 141.210188 106.367717 
L 142.291584 106.009417 
L 144.454374 105.900986 
L 174.733444 105.918825 
L 175.81484 106.009417 
L 176.896235 106.367717 
L 177.97763 107.471359 
L 179.059026 110.118859 
L 180.140421 115.065039 
L 181.221816 122.261689 
L 182.303212 130.416561 
L 183.384607 137.613211 
L 184.466002 142.559392 
L 185.547398 145.206891 
L 186.628793 146.310533 
L 187.710188 146.668833 
L 189.872979 146.777264 
L 220.152049 146.759787 
L 221.233444 146.670785 
L 222.31484 146.318777 
L 223.396235 145.234516 
L 224.47763 142.633509 
L 225.559026 137.774188 
L 226.640421 130.703918 
L 227.721816 122.692252 
L 228.803212 115.621982 
L 229.884607 110.762661 
L 230.966002 108.161654 
L 232.047398 107.077393 
L 233.128793 106.725385 
L 235.291584 106.618858 
L 265.570654 106.636383 
L 266.652049 106.725385 
L 267.733444 107.077393 
L 268.81484 108.161654 
L 269.896235 110.762661 
L 270.97763 115.621982 
L 272.059026 122.692252 
L 273.140421 130.703918 
L 274.221816 137.774188 
L 275.303212 142.633509 
L 276.384607 145.234516 
L 277.466002 146.318777 
L 278.547398 146.670785 
L 280.710188 146.777312 
L 314.038095 146.78 
L 314.038095 146.78 
" style="fill:none;stroke:#cccccc;stroke-linecap:square;stroke-width:1.75;"/>
   </g>
   <g id="line2d_35">
    <path clip-path="url(#pebf4af994a)" d="M 0.628793 146.78 
L 40.640421 146.723628 
L 41.721816 146.591106 
L 42.803212 146.273204 
L 43.884607 145.679283 
L 47.128793 142.971775 
L 48.210188 142.377855 
L 49.291584 142.059952 
L 51.454374 141.884407 
L 63.349723 141.871058 
L 86.059026 141.92743 
L 87.140421 142.059952 
L 88.221816 142.377855 
L 89.303212 142.971775 
L 92.547398 145.679283 
L 93.628793 146.273204 
L 94.710188 146.591106 
L 96.872979 146.766651 
L 108.768328 146.78 
L 131.47763 146.728922 
L 132.559026 146.608845 
L 133.640421 146.320795 
L 134.721816 145.782647 
L 137.966002 143.329389 
L 139.047398 142.791241 
L 140.128793 142.503191 
L 142.291584 142.344131 
L 155.268328 142.332036 
L 176.896235 142.383114 
L 177.97763 142.503191 
L 179.059026 142.791241 
L 180.140421 143.329389 
L 183.384607 145.782647 
L 184.466002 146.320795 
L 185.547398 146.608845 
L 187.710188 146.767905 
L 200.686933 146.78 
L 222.31484 146.730431 
L 223.396235 146.613901 
L 224.47763 146.334362 
L 225.559026 145.812113 
L 228.803212 143.431337 
L 229.884607 142.909089 
L 230.966002 142.629549 
L 233.128793 142.475188 
L 246.105537 142.463451 
L 267.733444 142.51302 
L 268.81484 142.629549 
L 269.896235 142.909089 
L 270.97763 143.431337 
L 274.221816 145.812113 
L 275.303212 146.334362 
L 276.384607 146.613901 
L 278.547398 146.768262 
L 291.524142 146.78 
L 314.038095 146.78 
L 314.038095 146.78 
" style="fill:none;stroke:#cccccc;stroke-linecap:square;stroke-width:1.75;"/>
   </g>
   <g id="line2d_36">
    <path clip-path="url(#pebf4af994a)" d="M 0.628793 146.78 
L 40.640421 146.735593 
L 41.721816 146.6312 
L 42.803212 146.380775 
L 43.884607 145.912918 
L 48.210188 143.312239 
L 49.291584 143.061813 
L 51.454374 142.923529 
L 66.593909 142.913014 
L 86.059026 142.95742 
L 87.140421 143.061813 
L 88.221816 143.312239 
L 89.303212 143.780096 
L 93.628793 146.380775 
L 94.710188 146.6312 
L 96.872979 146.769485 
L 112.012514 146.78 
L 131.47763 146.74085 
L 132.559026 146.648816 
L 133.640421 146.428036 
L 134.721816 146.015565 
L 139.047398 143.72276 
L 140.128793 143.50198 
L 142.291584 143.380066 
L 158.512514 143.370796 
L 176.896235 143.409945 
L 177.97763 143.50198 
L 179.059026 143.72276 
L 180.140421 144.135231 
L 184.466002 146.428036 
L 185.547398 146.648816 
L 187.710188 146.77073 
L 203.931119 146.78 
L 222.31484 146.742041 
L 223.396235 146.652805 
L 224.47763 146.438738 
L 225.559026 146.03881 
L 229.884607 143.815725 
L 230.966002 143.601658 
L 233.128793 143.483451 
L 250.431119 143.474463 
L 267.733444 143.512422 
L 268.81484 143.601658 
L 269.896235 143.815725 
L 270.97763 144.215653 
L 275.303212 146.438738 
L 276.384607 146.652805 
L 278.547398 146.771011 
L 295.849723 146.78 
L 314.038095 146.78 
L 314.038095 146.78 
" style="fill:none;stroke:#cccccc;stroke-linecap:square;stroke-width:1.75;"/>
   </g>
   <g id="line2d_37">
    <path clip-path="url(#pebf4af994a)" d="M 0.628793 146.78 
L 41.721816 146.678579 
L 42.803212 146.50789 
L 43.884607 146.189001 
L 48.210188 144.416391 
L 50.372979 144.174549 
L 56.861351 144.144281 
L 87.140421 144.245702 
L 88.221816 144.416391 
L 89.303212 144.73528 
L 93.628793 146.50789 
L 95.791584 146.749733 
L 102.279956 146.78 
L 132.559026 146.69604 
L 133.640421 146.554738 
L 134.721816 146.290751 
L 139.047398 144.823323 
L 141.210188 144.623117 
L 148.779956 144.598061 
L 177.97763 144.682021 
L 179.059026 144.823323 
L 180.140421 145.08731 
L 184.466002 146.554738 
L 186.628793 146.754944 
L 194.198561 146.78 
L 223.396235 146.698738 
L 224.47763 146.561976 
L 225.559026 146.30647 
L 229.884607 144.886191 
L 232.047398 144.692418 
L 239.617165 144.668167 
L 268.81484 144.749429 
L 269.896235 144.886191 
L 270.97763 145.141697 
L 275.303212 146.561976 
L 277.466002 146.755749 
L 285.03577 146.78 
L 314.038095 146.78 
L 314.038095 146.78 
" style="fill:none;stroke:#cccccc;stroke-linecap:square;stroke-width:1.75;"/>
   </g>
   <g id="matplotlib.axis_1"/>
   <g id="matplotlib.axis_2">
    <g id="ytick_1">
     <g id="line2d_38">
      <defs>
       <path d="M 0 0 
L -3.5 0 
" id="m8d1832b4cb" style="stroke:#000000;stroke-width:0.8;"/>
      </defs>
      <g>
       <use style="stroke:#000000;stroke-width:0.8;" x="23.338095" xlink:href="#m8d1832b4cb" y="146.78"/>
      </g>
     </g>
     <g id="text_1">
      <!-- $0$ -->
      <defs>
       <path d="M 42 31.640625 
C 42 37.75 41.90625 48.125 37.703125 56.109375 
C 34 63.109375 28.09375 65.59375 22.90625 65.59375 
C 18.09375 65.59375 12 63.40625 8.203125 56.203125 
C 4.203125 48.71875 3.796875 39.4375 3.796875 31.640625 
C 3.796875 25.953125 3.90625 17.28125 7 9.671875 
C 11.296875 -0.609375 19 -2 22.90625 -2 
C 27.5 -2 34.5 -0.109375 38.59375 9.375 
C 41.59375 16.28125 42 24.359375 42 31.640625 
z
M 22.90625 -0.40625 
C 16.5 -0.40625 12.703125 5.078125 11.296875 12.6875 
C 10.203125 18.5625 10.203125 27.15625 10.203125 32.75 
C 10.203125 40.4375 10.203125 46.828125 11.5 52.921875 
C 13.40625 61.390625 19 64 22.90625 64 
C 27 64 32.296875 61.296875 34.203125 53.125 
C 35.5 47.4375 35.59375 40.734375 35.59375 32.75 
C 35.59375 26.25 35.59375 18.265625 34.40625 12.375 
C 32.296875 1.484375 26.40625 -0.40625 22.90625 -0.40625 
z
" id="CMR17-48"/>
      </defs>
      <g transform="translate(7.2 153.87832)scale(0.2 -0.2)">
       <use transform="scale(0.996264)" xlink:href="#CMR17-48"/>
      </g>
     </g>
    </g>
    <g id="ytick_2">
     <g id="line2d_39">
      <g>
       <use style="stroke:#000000;stroke-width:0.8;" x="23.338095" xlink:href="#m8d1832b4cb" y="45.98"/>
      </g>
     </g>
     <g id="text_2">
      <!-- $1$ -->
      <defs>
       <path d="M 26.59375 63.40625 
C 26.59375 65.5 26.5 65.5 25.09375 65.5 
C 21.203125 61.1875 15.296875 59.796875 9.703125 59.796875 
C 9.40625 59.796875 8.90625 59.796875 8.796875 59.5 
C 8.703125 59.296875 8.703125 59.09375 8.703125 57 
C 11.796875 57 17 57.59375 21 59.984375 
L 21 7.203125 
C 21 3.6875 20.796875 2.5 12.203125 2.5 
L 9.203125 2.5 
L 9.203125 0 
C 14 0 19 0 23.796875 0 
C 28.59375 0 33.59375 0 38.40625 0 
L 38.40625 2.5 
L 35.40625 2.5 
C 26.796875 2.5 26.59375 3.59375 26.59375 7.15625 
z
" id="CMR17-49"/>
      </defs>
      <g transform="translate(7.2 53.07832)scale(0.2 -0.2)">
       <use transform="scale(0.996264)" xlink:href="#CMR17-49"/>
      </g>
     </g>
    </g>
   </g>
   <g id="line2d_40">
    <path clip-path="url(#pebf4af994a)" d="M 0.628793 146.78 
L 39.559026 146.673294 
L 40.640421 146.329373 
L 41.721816 145.27002 
L 42.803212 142.728764 
L 43.884607 137.981073 
L 44.966002 131.073224 
L 46.047398 123.245606 
L 47.128793 116.337756 
L 48.210188 111.590066 
L 49.291584 109.04881 
L 50.372979 107.989457 
L 51.454374 107.645535 
L 53.617165 107.541456 
L 83.896235 107.558578 
L 84.97763 107.645535 
L 86.059026 107.989457 
L 87.140421 109.04881 
L 88.221816 111.590066 
L 89.303212 116.337756 
L 90.384607 123.245606 
L 91.466002 131.073224 
L 92.547398 137.981073 
L 93.628793 142.728764 
L 94.710188 145.27002 
L 95.791584 146.329373 
L 96.872979 146.673294 
L 99.03577 146.777374 
L 129.31484 146.760487 
L 130.396235 146.674567 
L 131.47763 146.334748 
L 132.559026 145.288032 
L 133.640421 142.777091 
L 134.721816 138.086036 
L 135.803212 131.260591 
L 136.884607 123.526348 
L 137.966002 116.700902 
L 139.047398 112.009847 
L 140.128793 109.498906 
L 141.210188 108.45219 
L 142.291584 108.112371 
L 144.454374 108.009533 
L 174.733444 108.026451 
L 175.81484 108.112371 
L 176.896235 108.45219 
L 177.97763 109.498906 
L 179.059026 112.009847 
L 180.140421 116.700902 
L 181.221816 123.526348 
L 182.303212 131.260591 
L 183.384607 138.086036 
L 184.466002 142.777091 
L 185.547398 145.288032 
L 186.628793 146.334748 
L 187.710188 146.674567 
L 189.872979 146.777405 
L 220.152049 146.760842 
L 221.233444 146.676483 
L 222.31484 146.342841 
L 223.396235 145.315148 
L 224.47763 142.849843 
L 225.559026 138.244046 
L 226.640421 131.542651 
L 227.721816 123.948975 
L 228.803212 117.24758 
L 229.884607 112.641783 
L 230.966002 110.176478 
L 232.047398 109.148785 
L 233.128793 108.815142 
L 235.291584 108.714173 
L 265.570654 108.730784 
L 266.652049 108.815142 
L 267.733444 109.148785 
L 268.81484 110.176478 
L 269.896235 112.641783 
L 270.97763 117.24758 
L 272.059026 123.948975 
L 273.140421 131.542651 
L 274.221816 138.244046 
L 275.303212 142.849843 
L 276.384607 145.315148 
L 277.466002 146.342841 
L 278.547398 146.676483 
L 280.710188 146.777453 
L 314.038095 146.78 
L 314.038095 146.78 
" style="fill:none;stroke:#1764ab;stroke-linecap:square;stroke-width:2;"/>
   </g>
   <g id="patch_6">
    <path d="M 23.338095 149.3 
L 23.338095 10.7 
" style="fill:none;stroke:#000000;stroke-linecap:square;stroke-linejoin:miter;stroke-width:0.8;"/>
   </g>
   <g id="patch_7">
    <path d="M 302.338095 149.3 
L 302.338095 10.7 
" style="fill:none;stroke:#000000;stroke-linecap:square;stroke-linejoin:miter;stroke-width:0.8;"/>
   </g>
   <g id="patch_8">
    <path d="M 23.338095 149.3 
L 302.338095 149.3 
" style="fill:none;stroke:#000000;stroke-linecap:square;stroke-linejoin:miter;stroke-width:0.8;"/>
   </g>
   <g id="patch_9">
    <path d="M 23.338095 10.7 
L 302.338095 10.7 
" style="fill:none;stroke:#000000;stroke-linecap:square;stroke-linejoin:miter;stroke-width:0.8;"/>
   </g>
   <g id="line2d_41">
    <path clip-path="url(#pebf4af994a)" d="M 0.628793 146.78 
L 40.640421 146.737827 
L 41.721816 146.638685 
L 42.803212 146.400856 
L 43.884607 145.956533 
L 48.210188 143.486671 
L 49.291584 143.248842 
L 51.454374 143.117513 
L 66.593909 143.107527 
L 86.059026 143.1497 
L 87.140421 143.248842 
L 88.221816 143.486671 
L 89.303212 143.930994 
L 93.628793 146.400856 
L 94.710188 146.638685 
L 96.872979 146.770014 
L 112.012514 146.78 
L 131.47763 146.743077 
L 132.559026 146.656277 
L 133.640421 146.448054 
L 134.721816 146.059042 
L 139.047398 143.896639 
L 140.128793 143.688416 
L 142.291584 143.573436 
L 159.593909 143.564693 
L 176.896235 143.601616 
L 177.97763 143.688416 
L 179.059026 143.896639 
L 180.140421 144.285651 
L 184.466002 146.448054 
L 185.547398 146.656277 
L 187.710188 146.771257 
L 205.012514 146.78 
L 222.31484 146.744207 
L 223.396235 146.660064 
L 224.47763 146.458214 
L 225.559026 146.08111 
L 229.884607 143.984899 
L 230.966002 143.78305 
L 233.128793 143.671589 
L 251.512514 143.663114 
L 267.733444 143.698907 
L 268.81484 143.78305 
L 269.896235 143.984899 
L 270.97763 144.362004 
L 275.303212 146.458214 
L 276.384607 146.660064 
L 278.547398 146.771524 
L 296.931119 146.78 
L 314.038095 146.78 
L 314.038095 146.78 
" style="fill:none;stroke:#c54102;stroke-linecap:square;stroke-width:2;"/>
   </g>
   <g id="line2d_42">
    <path clip-path="url(#pebf4af994a)" d="M 0.628793 146.78 
L 40.640421 146.71096 
L 41.721816 146.548659 
L 42.803212 146.159318 
L 43.884607 145.431933 
L 47.128793 142.116002 
L 48.210188 141.388618 
L 49.291584 140.999277 
L 51.454374 140.784284 
L 61.186933 140.767935 
L 86.059026 140.836975 
L 87.140421 140.999277 
L 88.221816 141.388618 
L 89.303212 142.116002 
L 92.547398 145.431933 
L 93.628793 146.159318 
L 94.710188 146.548659 
L 96.872979 146.763652 
L 106.605537 146.78 
L 131.47763 146.716291 
L 132.559026 146.56652 
L 133.640421 146.207239 
L 134.721816 145.536013 
L 137.966002 142.476093 
L 139.047398 141.804867 
L 140.128793 141.445585 
L 142.291584 141.247191 
L 153.105537 141.232105 
L 176.896235 141.295815 
L 177.97763 141.445585 
L 179.059026 141.804867 
L 180.140421 142.476093 
L 183.384607 145.536013 
L 184.466002 146.207239 
L 185.547398 146.56652 
L 187.710188 146.764914 
L 198.524142 146.78 
L 222.31484 146.71813 
L 223.396235 146.572682 
L 224.47763 146.223771 
L 225.559026 145.57192 
L 228.803212 142.600322 
L 229.884607 141.948471 
L 230.966002 141.59956 
L 233.128793 141.406893 
L 243.942747 141.392242 
L 267.733444 141.454113 
L 268.81484 141.59956 
L 269.896235 141.948471 
L 270.97763 142.600322 
L 274.221816 145.57192 
L 275.303212 146.223771 
L 276.384607 146.572682 
L 278.547398 146.765349 
L 289.361351 146.78 
L 314.038095 146.78 
L 314.038095 146.78 
" style="fill:none;stroke:#157f3b;stroke-linecap:square;stroke-width:2;"/>
   </g>
  </g>
 </g>
 <defs>
  <clipPath id="pebf4af994a">
   <rect height="138.6" width="279" x="23.338095" y="10.7"/>
  </clipPath>
 </defs>
</svg>
