<?xml version="1.0" encoding="utf-8" standalone="no"?>
<!DOCTYPE svg PUBLIC "-//W3C//DTD SVG 1.1//EN"
  "http://www.w3.org/Graphics/SVG/1.1/DTD/svg11.dtd">
<!-- Created with matplotlib (http://matplotlib.org/) -->
<svg height="110pt" version="1.1" viewBox="0 0 257 110" width="257pt" xmlns="http://www.w3.org/2000/svg" xmlns:xlink="http://www.w3.org/1999/xlink">
 <defs>
  <style type="text/css">
*{stroke-linecap:butt;stroke-linejoin:round;}
  </style>
 </defs>
 <g id="figure_1">
  <g id="patch_1">
   <path d="M 0 110.46834 
L 257.238095 110.46834 
L 257.238095 0 
L 0 0 
z
" style="fill:#ffffff;"/>
  </g>
  <g id="axes_1">
   <g id="patch_2">
    <path d="M 23.338095 93.86 
L 246.538095 93.86 
L 246.538095 10.7 
L 23.338095 10.7 
z
" style="fill:#ffffff;"/>
   </g>
   <g id="line2d_1">
    <path clip-path="url(#p2a048ee3a0)" d="M 41.938095 89.893765 
L 79.138095 89.893765 
" style="fill:none;stroke:#cccccc;stroke-linecap:square;stroke-width:1.75;"/>
   </g>
   <g id="line2d_2">
    <path clip-path="url(#p2a048ee3a0)" d="M 116.338095 90.242046 
L 153.538095 90.242046 
" style="fill:none;stroke:#cccccc;stroke-linecap:square;stroke-width:1.75;"/>
   </g>
   <g id="line2d_3">
    <path clip-path="url(#p2a048ee3a0)" d="M 190.738095 90.296111 
L 227.938095 90.296111 
" style="fill:none;stroke:#cccccc;stroke-linecap:square;stroke-width:1.75;"/>
   </g>
   <g id="line2d_4">
    <path clip-path="url(#p2a048ee3a0)" d="M 41.938095 81.889108 
L 79.138095 81.889108 
" style="fill:none;stroke:#cccccc;stroke-linecap:square;stroke-width:1.75;"/>
   </g>
   <g id="line2d_5">
    <path clip-path="url(#p2a048ee3a0)" d="M 116.338095 82.257452 
L 153.538095 82.257452 
" style="fill:none;stroke:#cccccc;stroke-linecap:square;stroke-width:1.75;"/>
   </g>
   <g id="line2d_6">
    <path clip-path="url(#p2a048ee3a0)" d="M 190.738095 82.509242 
L 227.938095 82.509242 
" style="fill:none;stroke:#cccccc;stroke-linecap:square;stroke-width:1.75;"/>
   </g>
   <g id="line2d_7">
    <path clip-path="url(#p2a048ee3a0)" d="M 41.938095 90.589482 
L 79.138095 90.589482 
" style="fill:none;stroke:#cccccc;stroke-linecap:square;stroke-width:1.75;"/>
   </g>
   <g id="line2d_8">
    <path clip-path="url(#p2a048ee3a0)" d="M 116.338095 90.935384 
L 153.538095 90.935384 
" style="fill:none;stroke:#cccccc;stroke-linecap:square;stroke-width:1.75;"/>
   </g>
   <g id="line2d_9">
    <path clip-path="url(#p2a048ee3a0)" d="M 190.738095 90.970079 
L 227.938095 90.970079 
" style="fill:none;stroke:#cccccc;stroke-linecap:square;stroke-width:1.75;"/>
   </g>
   <g id="line2d_10">
    <path clip-path="url(#p2a048ee3a0)" d="M 41.938095 81.315481 
L 79.138095 81.315481 
" style="fill:none;stroke:#cccccc;stroke-linecap:square;stroke-width:1.75;"/>
   </g>
   <g id="line2d_11">
    <path clip-path="url(#p2a048ee3a0)" d="M 116.338095 81.684745 
L 153.538095 81.684745 
" style="fill:none;stroke:#cccccc;stroke-linecap:square;stroke-width:1.75;"/>
   </g>
   <g id="line2d_12">
    <path clip-path="url(#p2a048ee3a0)" d="M 190.738095 81.948919 
L 227.938095 81.948919 
" style="fill:none;stroke:#cccccc;stroke-linecap:square;stroke-width:1.75;"/>
   </g>
   <g id="line2d_13">
    <path clip-path="url(#p2a048ee3a0)" d="M 41.938095 87.176896 
L 79.138095 87.176896 
" style="fill:none;stroke:#cccccc;stroke-linecap:square;stroke-width:1.75;"/>
   </g>
   <g id="line2d_14">
    <path clip-path="url(#p2a048ee3a0)" d="M 116.338095 87.533497 
L 153.538095 87.533497 
" style="fill:none;stroke:#cccccc;stroke-linecap:square;stroke-width:1.75;"/>
   </g>
   <g id="line2d_15">
    <path clip-path="url(#p2a048ee3a0)" d="M 190.738095 87.659866 
L 227.938095 87.659866 
" style="fill:none;stroke:#cccccc;stroke-linecap:square;stroke-width:1.75;"/>
   </g>
   <g id="line2d_16">
    <path clip-path="url(#p2a048ee3a0)" d="M 41.938095 89.93753 
L 79.138095 89.93753 
" style="fill:none;stroke:#cccccc;stroke-linecap:square;stroke-width:1.75;"/>
   </g>
   <g id="line2d_17">
    <path clip-path="url(#p2a048ee3a0)" d="M 116.338095 90.285665 
L 153.538095 90.285665 
" style="fill:none;stroke:#cccccc;stroke-linecap:square;stroke-width:1.75;"/>
   </g>
   <g id="line2d_18">
    <path clip-path="url(#p2a048ee3a0)" d="M 190.738095 90.338521 
L 227.938095 90.338521 
" style="fill:none;stroke:#cccccc;stroke-linecap:square;stroke-width:1.75;"/>
   </g>
   <g id="line2d_19">
    <path clip-path="url(#p2a048ee3a0)" d="M 41.938095 85.066685 
L 79.138095 85.066685 
" style="fill:none;stroke:#cccccc;stroke-linecap:square;stroke-width:1.75;"/>
   </g>
   <g id="line2d_20">
    <path clip-path="url(#p2a048ee3a0)" d="M 116.338095 85.428677 
L 153.538095 85.428677 
" style="fill:none;stroke:#cccccc;stroke-linecap:square;stroke-width:1.75;"/>
   </g>
   <g id="line2d_21">
    <path clip-path="url(#p2a048ee3a0)" d="M 190.738095 85.60753 
L 227.938095 85.60753 
" style="fill:none;stroke:#cccccc;stroke-linecap:square;stroke-width:1.75;"/>
   </g>
   <g id="line2d_22">
    <path clip-path="url(#p2a048ee3a0)" d="M 41.938095 89.988796 
L 79.138095 89.988796 
" style="fill:none;stroke:#cccccc;stroke-linecap:square;stroke-width:1.75;"/>
   </g>
   <g id="line2d_23">
    <path clip-path="url(#p2a048ee3a0)" d="M 116.338095 90.336759 
L 153.538095 90.336759 
" style="fill:none;stroke:#cccccc;stroke-linecap:square;stroke-width:1.75;"/>
   </g>
   <g id="line2d_24">
    <path clip-path="url(#p2a048ee3a0)" d="M 190.738095 90.388198 
L 227.938095 90.388198 
" style="fill:none;stroke:#cccccc;stroke-linecap:square;stroke-width:1.75;"/>
   </g>
   <g id="line2d_25">
    <path clip-path="url(#p2a048ee3a0)" d="M 41.938095 88.919577 
L 79.138095 88.919577 
" style="fill:none;stroke:#cccccc;stroke-linecap:square;stroke-width:1.75;"/>
   </g>
   <g id="line2d_26">
    <path clip-path="url(#p2a048ee3a0)" d="M 116.338095 89.27102 
L 153.538095 89.27102 
" style="fill:none;stroke:#cccccc;stroke-linecap:square;stroke-width:1.75;"/>
   </g>
   <g id="line2d_27">
    <path clip-path="url(#p2a048ee3a0)" d="M 190.738095 89.351622 
L 227.938095 89.351622 
" style="fill:none;stroke:#cccccc;stroke-linecap:square;stroke-width:1.75;"/>
   </g>
   <g id="line2d_28">
    <path clip-path="url(#p2a048ee3a0)" d="M 41.938095 84.156374 
L 79.138095 84.156374 
" style="fill:none;stroke:#cccccc;stroke-linecap:square;stroke-width:1.75;"/>
   </g>
   <g id="line2d_29">
    <path clip-path="url(#p2a048ee3a0)" d="M 116.338095 84.520402 
L 153.538095 84.520402 
" style="fill:none;stroke:#cccccc;stroke-linecap:square;stroke-width:1.75;"/>
   </g>
   <g id="line2d_30">
    <path clip-path="url(#p2a048ee3a0)" d="M 190.738095 84.7209 
L 227.938095 84.7209 
" style="fill:none;stroke:#cccccc;stroke-linecap:square;stroke-width:1.75;"/>
   </g>
   <g id="line2d_31">
    <path clip-path="url(#p2a048ee3a0)" d="M 41.938095 90.553985 
L 79.138095 90.553985 
" style="fill:none;stroke:#cccccc;stroke-linecap:square;stroke-width:1.75;"/>
   </g>
   <g id="line2d_32">
    <path clip-path="url(#p2a048ee3a0)" d="M 116.338095 90.900011 
L 153.538095 90.900011 
" style="fill:none;stroke:#cccccc;stroke-linecap:square;stroke-width:1.75;"/>
   </g>
   <g id="line2d_33">
    <path clip-path="url(#p2a048ee3a0)" d="M 190.738095 90.935703 
L 227.938095 90.935703 
" style="fill:none;stroke:#cccccc;stroke-linecap:square;stroke-width:1.75;"/>
   </g>
   <g id="line2d_34">
    <path clip-path="url(#p2a048ee3a0)" d="M 41.938095 64.764282 
L 79.138095 64.764282 
" style="fill:none;stroke:#cccccc;stroke-linecap:square;stroke-width:1.75;"/>
   </g>
   <g id="line2d_35">
    <path clip-path="url(#p2a048ee3a0)" d="M 116.338095 65.130211 
L 153.538095 65.130211 
" style="fill:none;stroke:#cccccc;stroke-linecap:square;stroke-width:1.75;"/>
   </g>
   <g id="line2d_36">
    <path clip-path="url(#p2a048ee3a0)" d="M 190.738095 65.647343 
L 227.938095 65.647343 
" style="fill:none;stroke:#cccccc;stroke-linecap:square;stroke-width:1.75;"/>
   </g>
   <g id="line2d_37">
    <path clip-path="url(#p2a048ee3a0)" d="M 41.938095 58.303288 
L 79.138095 58.303288 
" style="fill:none;stroke:#cccccc;stroke-linecap:square;stroke-width:1.75;"/>
   </g>
   <g id="line2d_38">
    <path clip-path="url(#p2a048ee3a0)" d="M 116.338095 58.652198 
L 153.538095 58.652198 
" style="fill:none;stroke:#cccccc;stroke-linecap:square;stroke-width:1.75;"/>
   </g>
   <g id="line2d_39">
    <path clip-path="url(#p2a048ee3a0)" d="M 190.738095 59.21256 
L 227.938095 59.21256 
" style="fill:none;stroke:#cccccc;stroke-linecap:square;stroke-width:1.75;"/>
   </g>
   <g id="line2d_40">
    <path clip-path="url(#p2a048ee3a0)" d="M 41.938095 82.310341 
L 79.138095 82.310341 
" style="fill:none;stroke:#cccccc;stroke-linecap:square;stroke-width:1.75;"/>
   </g>
   <g id="line2d_41">
    <path clip-path="url(#p2a048ee3a0)" d="M 116.338095 82.677965 
L 153.538095 82.677965 
" style="fill:none;stroke:#cccccc;stroke-linecap:square;stroke-width:1.75;"/>
   </g>
   <g id="line2d_42">
    <path clip-path="url(#p2a048ee3a0)" d="M 190.738095 82.920508 
L 227.938095 82.920508 
" style="fill:none;stroke:#cccccc;stroke-linecap:square;stroke-width:1.75;"/>
   </g>
   <g id="line2d_43">
    <path clip-path="url(#p2a048ee3a0)" d="M 41.938095 87.971173 
L 79.138095 87.971173 
" style="fill:none;stroke:#cccccc;stroke-linecap:square;stroke-width:1.75;"/>
   </g>
   <g id="line2d_44">
    <path clip-path="url(#p2a048ee3a0)" d="M 116.338095 88.325502 
L 153.538095 88.325502 
" style="fill:none;stroke:#cccccc;stroke-linecap:square;stroke-width:1.75;"/>
   </g>
   <g id="line2d_45">
    <path clip-path="url(#p2a048ee3a0)" d="M 190.738095 88.431283 
L 227.938095 88.431283 
" style="fill:none;stroke:#cccccc;stroke-linecap:square;stroke-width:1.75;"/>
   </g>
   <g id="line2d_46">
    <path clip-path="url(#p2a048ee3a0)" d="M 41.938095 89.932799 
L 79.138095 89.932799 
" style="fill:none;stroke:#cccccc;stroke-linecap:square;stroke-width:1.75;"/>
   </g>
   <g id="line2d_47">
    <path clip-path="url(#p2a048ee3a0)" d="M 116.338095 90.28095 
L 153.538095 90.28095 
" style="fill:none;stroke:#cccccc;stroke-linecap:square;stroke-width:1.75;"/>
   </g>
   <g id="line2d_48">
    <path clip-path="url(#p2a048ee3a0)" d="M 190.738095 90.333937 
L 227.938095 90.333937 
" style="fill:none;stroke:#cccccc;stroke-linecap:square;stroke-width:1.75;"/>
   </g>
   <g id="line2d_49">
    <path clip-path="url(#p2a048ee3a0)" d="M 41.938095 90.30503 
L 79.138095 90.30503 
" style="fill:none;stroke:#cccccc;stroke-linecap:square;stroke-width:1.75;"/>
   </g>
   <g id="line2d_50">
    <path clip-path="url(#p2a048ee3a0)" d="M 116.338095 90.651917 
L 153.538095 90.651917 
" style="fill:none;stroke:#cccccc;stroke-linecap:square;stroke-width:1.75;"/>
   </g>
   <g id="line2d_51">
    <path clip-path="url(#p2a048ee3a0)" d="M 190.738095 90.694574 
L 227.938095 90.694574 
" style="fill:none;stroke:#cccccc;stroke-linecap:square;stroke-width:1.75;"/>
   </g>
   <g id="line2d_52">
    <path clip-path="url(#p2a048ee3a0)" d="M 41.938095 81.973835 
L 79.138095 81.973835 
" style="fill:none;stroke:#cccccc;stroke-linecap:square;stroke-width:1.75;"/>
   </g>
   <g id="line2d_53">
    <path clip-path="url(#p2a048ee3a0)" d="M 116.338095 82.342037 
L 153.538095 82.342037 
" style="fill:none;stroke:#cccccc;stroke-linecap:square;stroke-width:1.75;"/>
   </g>
   <g id="line2d_54">
    <path clip-path="url(#p2a048ee3a0)" d="M 190.738095 82.591978 
L 227.938095 82.591978 
" style="fill:none;stroke:#cccccc;stroke-linecap:square;stroke-width:1.75;"/>
   </g>
   <g id="line2d_55">
    <path clip-path="url(#p2a048ee3a0)" d="M 41.938095 90.072624 
L 79.138095 90.072624 
" style="fill:none;stroke:#cccccc;stroke-linecap:square;stroke-width:1.75;"/>
   </g>
   <g id="line2d_56">
    <path clip-path="url(#p2a048ee3a0)" d="M 116.338095 90.420303 
L 153.538095 90.420303 
" style="fill:none;stroke:#cccccc;stroke-linecap:square;stroke-width:1.75;"/>
   </g>
   <g id="line2d_57">
    <path clip-path="url(#p2a048ee3a0)" d="M 190.738095 90.469421 
L 227.938095 90.469421 
" style="fill:none;stroke:#cccccc;stroke-linecap:square;stroke-width:1.75;"/>
   </g>
   <g id="line2d_58">
    <path clip-path="url(#p2a048ee3a0)" d="M 41.938095 88.866437 
L 79.138095 88.866437 
" style="fill:none;stroke:#cccccc;stroke-linecap:square;stroke-width:1.75;"/>
   </g>
   <g id="line2d_59">
    <path clip-path="url(#p2a048ee3a0)" d="M 116.338095 89.218047 
L 153.538095 89.218047 
" style="fill:none;stroke:#cccccc;stroke-linecap:square;stroke-width:1.75;"/>
   </g>
   <g id="line2d_60">
    <path clip-path="url(#p2a048ee3a0)" d="M 190.738095 89.300077 
L 227.938095 89.300077 
" style="fill:none;stroke:#cccccc;stroke-linecap:square;stroke-width:1.75;"/>
   </g>
   <g id="line2d_61">
    <path clip-path="url(#p2a048ee3a0)" d="M 41.938095 89.930933 
L 79.138095 89.930933 
" style="fill:none;stroke:#cccccc;stroke-linecap:square;stroke-width:1.75;"/>
   </g>
   <g id="line2d_62">
    <path clip-path="url(#p2a048ee3a0)" d="M 116.338095 90.27909 
L 153.538095 90.27909 
" style="fill:none;stroke:#cccccc;stroke-linecap:square;stroke-width:1.75;"/>
   </g>
   <g id="line2d_63">
    <path clip-path="url(#p2a048ee3a0)" d="M 190.738095 90.332129 
L 227.938095 90.332129 
" style="fill:none;stroke:#cccccc;stroke-linecap:square;stroke-width:1.75;"/>
   </g>
   <g id="line2d_64">
    <path clip-path="url(#p2a048ee3a0)" d="M 41.938095 85.055916 
L 79.138095 85.055916 
" style="fill:none;stroke:#cccccc;stroke-linecap:square;stroke-width:1.75;"/>
   </g>
   <g id="line2d_65">
    <path clip-path="url(#p2a048ee3a0)" d="M 116.338095 85.417934 
L 153.538095 85.417934 
" style="fill:none;stroke:#cccccc;stroke-linecap:square;stroke-width:1.75;"/>
   </g>
   <g id="line2d_66">
    <path clip-path="url(#p2a048ee3a0)" d="M 190.738095 85.597046 
L 227.938095 85.597046 
" style="fill:none;stroke:#cccccc;stroke-linecap:square;stroke-width:1.75;"/>
   </g>
   <g id="line2d_67">
    <path clip-path="url(#p2a048ee3a0)" d="M 41.938095 85.27947 
L 79.138095 85.27947 
" style="fill:none;stroke:#cccccc;stroke-linecap:square;stroke-width:1.75;"/>
   </g>
   <g id="line2d_68">
    <path clip-path="url(#p2a048ee3a0)" d="M 116.338095 85.640961 
L 153.538095 85.640961 
" style="fill:none;stroke:#cccccc;stroke-linecap:square;stroke-width:1.75;"/>
   </g>
   <g id="line2d_69">
    <path clip-path="url(#p2a048ee3a0)" d="M 190.738095 85.814667 
L 227.938095 85.814667 
" style="fill:none;stroke:#cccccc;stroke-linecap:square;stroke-width:1.75;"/>
   </g>
   <g id="line2d_70">
    <path clip-path="url(#p2a048ee3a0)" d="M 41.938095 88.809039 
L 79.138095 88.809039 
" style="fill:none;stroke:#cccccc;stroke-linecap:square;stroke-width:1.75;"/>
   </g>
   <g id="line2d_71">
    <path clip-path="url(#p2a048ee3a0)" d="M 116.338095 89.160828 
L 153.538095 89.160828 
" style="fill:none;stroke:#cccccc;stroke-linecap:square;stroke-width:1.75;"/>
   </g>
   <g id="line2d_72">
    <path clip-path="url(#p2a048ee3a0)" d="M 190.738095 89.244398 
L 227.938095 89.244398 
" style="fill:none;stroke:#cccccc;stroke-linecap:square;stroke-width:1.75;"/>
   </g>
   <g id="line2d_73">
    <path clip-path="url(#p2a048ee3a0)" d="M 41.938095 89.012063 
L 79.138095 89.012063 
" style="fill:none;stroke:#cccccc;stroke-linecap:square;stroke-width:1.75;"/>
   </g>
   <g id="line2d_74">
    <path clip-path="url(#p2a048ee3a0)" d="M 116.338095 89.363215 
L 153.538095 89.363215 
" style="fill:none;stroke:#cccccc;stroke-linecap:square;stroke-width:1.75;"/>
   </g>
   <g id="line2d_75">
    <path clip-path="url(#p2a048ee3a0)" d="M 190.738095 89.441327 
L 227.938095 89.441327 
" style="fill:none;stroke:#cccccc;stroke-linecap:square;stroke-width:1.75;"/>
   </g>
   <g id="line2d_76">
    <path clip-path="url(#p2a048ee3a0)" d="M 41.938095 77.293369 
L 79.138095 77.293369 
" style="fill:none;stroke:#cccccc;stroke-linecap:square;stroke-width:1.75;"/>
   </g>
   <g id="line2d_77">
    <path clip-path="url(#p2a048ee3a0)" d="M 116.338095 77.667139 
L 153.538095 77.667139 
" style="fill:none;stroke:#cccccc;stroke-linecap:square;stroke-width:1.75;"/>
   </g>
   <g id="line2d_78">
    <path clip-path="url(#p2a048ee3a0)" d="M 190.738095 78.011391 
L 227.938095 78.011391 
" style="fill:none;stroke:#cccccc;stroke-linecap:square;stroke-width:1.75;"/>
   </g>
   <g id="line2d_79">
    <path clip-path="url(#p2a048ee3a0)" d="M 41.938095 89.991615 
L 79.138095 89.991615 
" style="fill:none;stroke:#cccccc;stroke-linecap:square;stroke-width:1.75;"/>
   </g>
   <g id="line2d_80">
    <path clip-path="url(#p2a048ee3a0)" d="M 116.338095 90.339568 
L 153.538095 90.339568 
" style="fill:none;stroke:#cccccc;stroke-linecap:square;stroke-width:1.75;"/>
   </g>
   <g id="line2d_81">
    <path clip-path="url(#p2a048ee3a0)" d="M 190.738095 90.390929 
L 227.938095 90.390929 
" style="fill:none;stroke:#cccccc;stroke-linecap:square;stroke-width:1.75;"/>
   </g>
   <g id="line2d_82">
    <path clip-path="url(#p2a048ee3a0)" d="M 41.938095 84.386172 
L 79.138095 84.386172 
" style="fill:none;stroke:#cccccc;stroke-linecap:square;stroke-width:1.75;"/>
   </g>
   <g id="line2d_83">
    <path clip-path="url(#p2a048ee3a0)" d="M 116.338095 84.749703 
L 153.538095 84.749703 
" style="fill:none;stroke:#cccccc;stroke-linecap:square;stroke-width:1.75;"/>
   </g>
   <g id="line2d_84">
    <path clip-path="url(#p2a048ee3a0)" d="M 190.738095 84.944793 
L 227.938095 84.944793 
" style="fill:none;stroke:#cccccc;stroke-linecap:square;stroke-width:1.75;"/>
   </g>
   <g id="line2d_85">
    <path clip-path="url(#p2a048ee3a0)" d="M 41.938095 89.940106 
L 79.138095 89.940106 
" style="fill:none;stroke:#cccccc;stroke-linecap:square;stroke-width:1.75;"/>
   </g>
   <g id="line2d_86">
    <path clip-path="url(#p2a048ee3a0)" d="M 116.338095 90.288232 
L 153.538095 90.288232 
" style="fill:none;stroke:#cccccc;stroke-linecap:square;stroke-width:1.75;"/>
   </g>
   <g id="line2d_87">
    <path clip-path="url(#p2a048ee3a0)" d="M 190.738095 90.341018 
L 227.938095 90.341018 
" style="fill:none;stroke:#cccccc;stroke-linecap:square;stroke-width:1.75;"/>
   </g>
   <g id="line2d_88">
    <path clip-path="url(#p2a048ee3a0)" d="M 41.938095 90.427119 
L 79.138095 90.427119 
" style="fill:none;stroke:#cccccc;stroke-linecap:square;stroke-width:1.75;"/>
   </g>
   <g id="line2d_89">
    <path clip-path="url(#p2a048ee3a0)" d="M 116.338095 90.773586 
L 153.538095 90.773586 
" style="fill:none;stroke:#cccccc;stroke-linecap:square;stroke-width:1.75;"/>
   </g>
   <g id="line2d_90">
    <path clip-path="url(#p2a048ee3a0)" d="M 190.738095 90.812833 
L 227.938095 90.812833 
" style="fill:none;stroke:#cccccc;stroke-linecap:square;stroke-width:1.75;"/>
   </g>
   <g id="line2d_91">
    <path clip-path="url(#p2a048ee3a0)" d="M 41.938095 89.569213 
L 79.138095 89.569213 
" style="fill:none;stroke:#cccccc;stroke-linecap:square;stroke-width:1.75;"/>
   </g>
   <g id="line2d_92">
    <path clip-path="url(#p2a048ee3a0)" d="M 116.338095 89.91857 
L 153.538095 89.91857 
" style="fill:none;stroke:#cccccc;stroke-linecap:square;stroke-width:1.75;"/>
   </g>
   <g id="line2d_93">
    <path clip-path="url(#p2a048ee3a0)" d="M 190.738095 89.981551 
L 227.938095 89.981551 
" style="fill:none;stroke:#cccccc;stroke-linecap:square;stroke-width:1.75;"/>
   </g>
   <g id="line2d_94">
    <path clip-path="url(#p2a048ee3a0)" d="M 41.938095 89.986243 
L 79.138095 89.986243 
" style="fill:none;stroke:#cccccc;stroke-linecap:square;stroke-width:1.75;"/>
   </g>
   <g id="line2d_95">
    <path clip-path="url(#p2a048ee3a0)" d="M 116.338095 90.334214 
L 153.538095 90.334214 
" style="fill:none;stroke:#cccccc;stroke-linecap:square;stroke-width:1.75;"/>
   </g>
   <g id="line2d_96">
    <path clip-path="url(#p2a048ee3a0)" d="M 190.738095 90.385724 
L 227.938095 90.385724 
" style="fill:none;stroke:#cccccc;stroke-linecap:square;stroke-width:1.75;"/>
   </g>
   <g id="line2d_97">
    <path clip-path="url(#p2a048ee3a0)" d="M 41.938095 83.156641 
L 79.138095 83.156641 
" style="fill:none;stroke:#cccccc;stroke-linecap:square;stroke-width:1.75;"/>
   </g>
   <g id="line2d_98">
    <path clip-path="url(#p2a048ee3a0)" d="M 116.338095 83.522705 
L 153.538095 83.522705 
" style="fill:none;stroke:#cccccc;stroke-linecap:square;stroke-width:1.75;"/>
   </g>
   <g id="line2d_99">
    <path clip-path="url(#p2a048ee3a0)" d="M 190.738095 83.746281 
L 227.938095 83.746281 
" style="fill:none;stroke:#cccccc;stroke-linecap:square;stroke-width:1.75;"/>
   </g>
   <g id="line2d_100">
    <path clip-path="url(#p2a048ee3a0)" d="M 41.938095 75.73137 
L 79.138095 75.73137 
" style="fill:none;stroke:#cccccc;stroke-linecap:square;stroke-width:1.75;"/>
   </g>
   <g id="line2d_101">
    <path clip-path="url(#p2a048ee3a0)" d="M 116.338095 76.10597 
L 153.538095 76.10597 
" style="fill:none;stroke:#cccccc;stroke-linecap:square;stroke-width:1.75;"/>
   </g>
   <g id="line2d_102">
    <path clip-path="url(#p2a048ee3a0)" d="M 190.738095 76.478121 
L 227.938095 76.478121 
" style="fill:none;stroke:#cccccc;stroke-linecap:square;stroke-width:1.75;"/>
   </g>
   <g id="line2d_103">
    <path clip-path="url(#p2a048ee3a0)" d="M 41.938095 86.726676 
L 79.138095 86.726676 
" style="fill:none;stroke:#cccccc;stroke-linecap:square;stroke-width:1.75;"/>
   </g>
   <g id="line2d_104">
    <path clip-path="url(#p2a048ee3a0)" d="M 116.338095 87.084506 
L 153.538095 87.084506 
" style="fill:none;stroke:#cccccc;stroke-linecap:square;stroke-width:1.75;"/>
   </g>
   <g id="line2d_105">
    <path clip-path="url(#p2a048ee3a0)" d="M 190.738095 87.222342 
L 227.938095 87.222342 
" style="fill:none;stroke:#cccccc;stroke-linecap:square;stroke-width:1.75;"/>
   </g>
   <g id="line2d_106">
    <path clip-path="url(#p2a048ee3a0)" d="M 41.938095 90.41743 
L 79.138095 90.41743 
" style="fill:none;stroke:#cccccc;stroke-linecap:square;stroke-width:1.75;"/>
   </g>
   <g id="line2d_107">
    <path clip-path="url(#p2a048ee3a0)" d="M 116.338095 90.76393 
L 153.538095 90.76393 
" style="fill:none;stroke:#cccccc;stroke-linecap:square;stroke-width:1.75;"/>
   </g>
   <g id="line2d_108">
    <path clip-path="url(#p2a048ee3a0)" d="M 190.738095 90.803448 
L 227.938095 90.803448 
" style="fill:none;stroke:#cccccc;stroke-linecap:square;stroke-width:1.75;"/>
   </g>
   <g id="line2d_109">
    <path clip-path="url(#p2a048ee3a0)" d="M 41.938095 88.408735 
L 79.138095 88.408735 
" style="fill:none;stroke:#cccccc;stroke-linecap:square;stroke-width:1.75;"/>
   </g>
   <g id="line2d_110">
    <path clip-path="url(#p2a048ee3a0)" d="M 116.338095 88.761756 
L 153.538095 88.761756 
" style="fill:none;stroke:#cccccc;stroke-linecap:square;stroke-width:1.75;"/>
   </g>
   <g id="line2d_111">
    <path clip-path="url(#p2a048ee3a0)" d="M 190.738095 88.856001 
L 227.938095 88.856001 
" style="fill:none;stroke:#cccccc;stroke-linecap:square;stroke-width:1.75;"/>
   </g>
   <g id="matplotlib.axis_1"/>
   <g id="matplotlib.axis_2">
    <g id="ytick_1">
     <g id="line2d_112">
      <defs>
       <path d="M 0 0 
L -3.5 0 
" id="m8d1cf4458f" style="stroke:#000000;stroke-width:0.8;"/>
      </defs>
      <g>
       <use style="stroke:#000000;stroke-width:0.8;" x="23.338095" xlink:href="#m8d1cf4458f" y="91.926047"/>
      </g>
     </g>
     <g id="text_1">
      <!-- $0$ -->
      <defs>
       <path d="M 42 31.640625 
C 42 37.75 41.90625 48.125 37.703125 56.109375 
C 34 63.109375 28.09375 65.59375 22.90625 65.59375 
C 18.09375 65.59375 12 63.40625 8.203125 56.203125 
C 4.203125 48.71875 3.796875 39.4375 3.796875 31.640625 
C 3.796875 25.953125 3.90625 17.28125 7 9.671875 
C 11.296875 -0.609375 19 -2 22.90625 -2 
C 27.5 -2 34.5 -0.109375 38.59375 9.375 
C 41.59375 16.28125 42 24.359375 42 31.640625 
z
M 22.90625 -0.40625 
C 16.5 -0.40625 12.703125 5.078125 11.296875 12.6875 
C 10.203125 18.5625 10.203125 27.15625 10.203125 32.75 
C 10.203125 40.4375 10.203125 46.828125 11.5 52.921875 
C 13.40625 61.390625 19 64 22.90625 64 
C 27 64 32.296875 61.296875 34.203125 53.125 
C 35.5 47.4375 35.59375 40.734375 35.59375 32.75 
C 35.59375 26.25 35.59375 18.265625 34.40625 12.375 
C 32.296875 1.484375 26.40625 -0.40625 22.90625 -0.40625 
z
" id="CMR17-48"/>
      </defs>
      <g transform="translate(7.2 99.024367)scale(0.2 -0.2)">
       <use transform="scale(0.996264)" xlink:href="#CMR17-48"/>
      </g>
     </g>
    </g>
    <g id="ytick_2">
     <g id="line2d_113">
      <g>
       <use style="stroke:#000000;stroke-width:0.8;" x="23.338095" xlink:href="#m8d1cf4458f" y="14.567907"/>
      </g>
     </g>
     <g id="text_2">
      <!-- $1$ -->
      <defs>
       <path d="M 26.59375 63.40625 
C 26.59375 65.5 26.5 65.5 25.09375 65.5 
C 21.203125 61.1875 15.296875 59.796875 9.703125 59.796875 
C 9.40625 59.796875 8.90625 59.796875 8.796875 59.5 
C 8.703125 59.296875 8.703125 59.09375 8.703125 57 
C 11.796875 57 17 57.59375 21 59.984375 
L 21 7.203125 
C 21 3.6875 20.796875 2.5 12.203125 2.5 
L 9.203125 2.5 
L 9.203125 0 
C 14 0 19 0 23.796875 0 
C 28.59375 0 33.59375 0 38.40625 0 
L 38.40625 2.5 
L 35.40625 2.5 
C 26.796875 2.5 26.59375 3.59375 26.59375 7.15625 
z
" id="CMR17-49"/>
      </defs>
      <g transform="translate(7.2 21.666227)scale(0.2 -0.2)">
       <use transform="scale(0.996264)" xlink:href="#CMR17-49"/>
      </g>
     </g>
    </g>
   </g>
   <g id="line2d_114">
    <path clip-path="url(#p2a048ee3a0)" d="M 41.938095 49.410778 
L 79.138095 49.410778 
" style="fill:none;stroke:#1764ab;stroke-linecap:square;stroke-width:2;"/>
   </g>
   <g id="line2d_115">
    <path clip-path="url(#p2a048ee3a0)" d="M 116.338095 49.721784 
L 153.538095 49.721784 
" style="fill:none;stroke:#1764ab;stroke-linecap:square;stroke-width:2;"/>
   </g>
   <g id="line2d_116">
    <path clip-path="url(#p2a048ee3a0)" d="M 190.738095 50.289691 
L 227.938095 50.289691 
" style="fill:none;stroke:#1764ab;stroke-linecap:square;stroke-width:2;"/>
   </g>
   <g id="patch_3">
    <path d="M 23.338095 93.86 
L 23.338095 10.7 
" style="fill:none;stroke:#000000;stroke-linecap:square;stroke-linejoin:miter;stroke-width:0.8;"/>
   </g>
   <g id="patch_4">
    <path d="M 246.538095 93.86 
L 246.538095 10.7 
" style="fill:none;stroke:#000000;stroke-linecap:square;stroke-linejoin:miter;stroke-width:0.8;"/>
   </g>
   <g id="patch_5">
    <path d="M 23.338095 93.86 
L 246.538095 93.86 
" style="fill:none;stroke:#000000;stroke-linecap:square;stroke-linejoin:miter;stroke-width:0.8;"/>
   </g>
   <g id="patch_6">
    <path d="M 23.338095 10.7 
L 246.538095 10.7 
" style="fill:none;stroke:#000000;stroke-linecap:square;stroke-linejoin:miter;stroke-width:0.8;"/>
   </g>
   <g id="line2d_117">
    <path clip-path="url(#p2a048ee3a0)" d="M 41.938095 86.709547 
L 79.138095 86.709547 
" style="fill:none;stroke:#c54102;stroke-linecap:square;stroke-width:2;"/>
   </g>
   <g id="line2d_118">
    <path clip-path="url(#p2a048ee3a0)" d="M 116.338095 87.067422 
L 153.538095 87.067422 
" style="fill:none;stroke:#c54102;stroke-linecap:square;stroke-width:2;"/>
   </g>
   <g id="line2d_119">
    <path clip-path="url(#p2a048ee3a0)" d="M 190.738095 87.205692 
L 227.938095 87.205692 
" style="fill:none;stroke:#c54102;stroke-linecap:square;stroke-width:2;"/>
   </g>
   <g id="line2d_120">
    <path clip-path="url(#p2a048ee3a0)" d="M 41.938095 81.99471 
L 79.138095 81.99471 
" style="fill:none;stroke:#157f3b;stroke-linecap:square;stroke-width:2;"/>
   </g>
   <g id="line2d_121">
    <path clip-path="url(#p2a048ee3a0)" d="M 116.338095 82.362877 
L 153.538095 82.362877 
" style="fill:none;stroke:#157f3b;stroke-linecap:square;stroke-width:2;"/>
   </g>
   <g id="line2d_122">
    <path clip-path="url(#p2a048ee3a0)" d="M 190.738095 82.612361 
L 227.938095 82.612361 
" style="fill:none;stroke:#157f3b;stroke-linecap:square;stroke-width:2;"/>
   </g>
  </g>
 </g>
 <defs>
  <clipPath id="p2a048ee3a0">
   <rect height="83.16" width="223.2" x="23.338095" y="10.7"/>
  </clipPath>
 </defs>
</svg>
