<?xml version="1.0" encoding="utf-8" standalone="no"?>
<!DOCTYPE svg PUBLIC "-//W3C//DTD SVG 1.1//EN"
  "http://www.w3.org/Graphics/SVG/1.1/DTD/svg11.dtd">
<!-- Created with matplotlib (http://matplotlib.org/) -->
<svg height="104pt" version="1.1" viewBox="0 0 133 104" width="133pt" xmlns="http://www.w3.org/2000/svg" xmlns:xlink="http://www.w3.org/1999/xlink">
 <defs>
  <style type="text/css">
*{stroke-linecap:butt;stroke-linejoin:round;}
  </style>
 </defs>
 <g id="figure_1">
  <g id="patch_1">
   <path d="M 0 104.56 
L 133 104.56 
L 133 0 
L 0 0 
z
" style="fill:#ffffff;"/>
  </g>
  <g id="axes_1">
   <g id="patch_2">
    <path d="M 10.7 93.86 
L 122.3 93.86 
L 122.3 10.7 
L 10.7 10.7 
z
" style="fill:#ffffff;"/>
   </g>
   <g id="matplotlib.axis_1"/>
   <g id="matplotlib.axis_2"/>
   <g id="line2d_1">
    <path clip-path="url(#p35792999c9)" d="M 15.772727 89.430906 
L 16.285124 89.427934 
L 16.797521 89.418429 
L 17.309917 89.41841 
L 17.822314 89.404433 
L 18.334711 89.400555 
L 18.847107 89.399278 
L 19.359504 89.399163 
L 19.871901 89.395 
L 20.384298 89.38706 
L 20.896694 89.380392 
L 21.409091 89.379036 
L 21.921488 89.374212 
L 22.433884 89.351831 
L 22.946281 89.345317 
L 23.458678 89.344192 
L 23.971074 89.336084 
L 24.483471 89.33009 
L 24.995868 89.329548 
L 25.508264 89.327226 
L 26.020661 89.318931 
L 26.533058 89.311163 
L 27.045455 89.309484 
L 27.557851 89.308327 
L 28.070248 89.303548 
L 28.582645 89.303302 
L 29.095041 89.302419 
L 29.607438 89.295341 
L 30.119835 89.292666 
L 30.632231 89.269446 
L 31.144628 89.265121 
L 31.657025 89.250261 
L 32.169421 89.208959 
L 32.681818 89.195944 
L 33.194215 89.182939 
L 33.706612 89.169484 
L 34.219008 89.154178 
L 34.731405 89.136672 
L 35.243802 89.1283 
L 35.756198 89.101469 
L 36.268595 89.095007 
L 36.780992 89.091939 
L 37.293388 89.09066 
L 37.805785 89.081434 
L 38.318182 89.074869 
L 38.830579 89.070636 
L 39.342975 89.063558 
L 39.855372 89.055351 
L 40.367769 89.039394 
L 40.880165 89.017432 
L 41.392562 89.004478 
L 41.904959 88.997115 
L 42.417355 88.981266 
L 42.929752 88.969199 
L 43.442149 88.95779 
L 43.954545 88.952445 
L 44.466942 88.904439 
L 44.979339 88.902042 
L 45.491736 88.900158 
L 46.004132 88.891067 
L 46.516529 88.890218 
L 47.028926 88.879684 
L 47.541322 88.831086 
L 48.053719 88.794578 
L 48.566116 88.78946 
L 49.078512 88.780087 
L 49.590909 88.773565 
L 50.103306 88.753331 
L 50.615702 88.752217 
L 51.128099 88.737563 
L 51.640496 88.734624 
L 52.152893 88.733721 
L 52.665289 88.71852 
L 53.177686 88.694614 
L 53.690083 88.614066 
L 54.202479 88.600463 
L 54.714876 88.534764 
L 55.227273 88.429427 
L 55.739669 88.378082 
L 56.252066 88.374703 
L 56.764463 88.280766 
L 57.27686 88.278674 
L 57.789256 88.206345 
L 58.301653 88.112052 
L 58.81405 88.073803 
L 59.326446 87.974914 
L 59.838843 87.953823 
L 60.35124 87.759825 
L 60.863636 87.756575 
L 61.376033 87.700304 
L 61.88843 87.377044 
L 62.400826 87.125977 
L 62.913223 86.954081 
L 63.42562 86.908668 
L 63.938017 85.660978 
L 64.450413 84.779253 
L 64.96281 84.730102 
L 65.475207 77.399568 
L 65.987603 38.75869 
L 66.5 36.905679 
" style="fill:none;stroke:#404040;stroke-linecap:square;stroke-width:2;"/>
   </g>
   <g id="line2d_2">
    <path clip-path="url(#p35792999c9)" d="M 66.5 36.905679 
L 67.012397 69.018084 
L 67.524793 70.052669 
L 68.03719 72.018684 
L 68.549587 79.6989 
L 69.061983 82.672534 
L 69.57438 84.019091 
L 70.086777 84.101015 
L 70.599174 84.643663 
L 71.11157 84.795066 
L 71.623967 84.95978 
L 72.136364 85.660447 
L 72.64876 85.946915 
L 73.161157 85.987023 
L 73.673554 86.011211 
L 74.18595 86.072625 
L 74.698347 86.094453 
L 75.210744 86.186514 
L 75.72314 86.507607 
L 76.235537 86.533502 
L 76.747934 86.760483 
L 77.260331 86.846138 
L 77.772727 86.916066 
L 78.285124 87.193679 
L 78.797521 87.473012 
L 79.309917 87.693451 
L 79.822314 87.767116 
L 80.334711 87.878739 
L 80.847107 87.88631 
L 81.359504 87.949435 
L 81.871901 88.039755 
L 82.384298 88.096517 
L 82.896694 88.156852 
L 83.409091 88.180157 
L 83.921488 88.239995 
L 84.433884 88.273488 
L 84.946281 88.304066 
L 85.458678 88.363442 
L 85.971074 88.377407 
L 86.483471 88.407351 
L 86.995868 88.509964 
L 87.508264 88.726795 
L 88.020661 88.755927 
L 88.533058 88.774802 
L 89.045455 88.776537 
L 89.557851 88.782423 
L 90.070248 88.82118 
L 90.582645 88.850174 
L 91.095041 88.868458 
L 91.607438 88.879199 
L 92.119835 88.900772 
L 92.632231 88.919299 
L 93.144628 88.958405 
L 93.657025 88.967494 
L 94.169421 88.98136 
L 94.681818 88.9881 
L 95.194215 88.988265 
L 95.706612 88.988343 
L 96.219008 88.996982 
L 96.731405 89.017575 
L 97.243802 89.030844 
L 97.756198 89.038428 
L 98.268595 89.041705 
L 98.780992 89.056415 
L 99.293388 89.117203 
L 99.805785 89.119851 
L 100.318182 89.120042 
L 100.830579 89.14262 
L 101.342975 89.151887 
L 101.855372 89.154249 
L 102.367769 89.166793 
L 102.880165 89.167157 
L 103.392562 89.171398 
L 103.904959 89.176108 
L 104.417355 89.182863 
L 104.929752 89.213664 
L 105.442149 89.218182 
L 105.954545 89.220303 
L 106.466942 89.23165 
L 106.979339 89.263154 
L 107.491736 89.265871 
L 108.004132 89.287583 
L 108.516529 89.291137 
L 109.028926 89.307855 
L 109.541322 89.316804 
L 110.053719 89.322993 
L 110.566116 89.339524 
L 111.078512 89.340034 
L 111.590909 89.34102 
L 112.103306 89.353734 
L 112.615702 89.355028 
L 113.128099 89.35821 
L 113.640496 89.377742 
L 114.152893 89.380526 
L 114.665289 89.389245 
L 115.177686 89.39865 
L 115.690083 89.407927 
L 116.202479 89.413139 
L 116.714876 89.413426 
L 117.227273 89.424775 
" style="fill:none;stroke:#404040;stroke-linecap:square;stroke-width:2;"/>
   </g>
   <g id="patch_3">
    <path d="M 10.7 93.86 
L 10.7 10.7 
" style="fill:none;stroke:#000000;stroke-linecap:square;stroke-linejoin:miter;stroke-width:0.8;"/>
   </g>
   <g id="patch_4">
    <path d="M 122.3 93.86 
L 122.3 10.7 
" style="fill:none;stroke:#000000;stroke-linecap:square;stroke-linejoin:miter;stroke-width:0.8;"/>
   </g>
   <g id="patch_5">
    <path d="M 10.7 93.86 
L 122.3 93.86 
" style="fill:none;stroke:#000000;stroke-linecap:square;stroke-linejoin:miter;stroke-width:0.8;"/>
   </g>
   <g id="patch_6">
    <path d="M 10.7 10.7 
L 122.3 10.7 
" style="fill:none;stroke:#000000;stroke-linecap:square;stroke-linejoin:miter;stroke-width:0.8;"/>
   </g>
  </g>
 </g>
 <defs>
  <clipPath id="p35792999c9">
   <rect height="83.16" width="111.6" x="10.7" y="10.7"/>
  </clipPath>
 </defs>
</svg>
