<?xml version="1.0" encoding="utf-8" standalone="no"?>
<!DOCTYPE svg PUBLIC "-//W3C//DTD SVG 1.1//EN"
  "http://www.w3.org/Graphics/SVG/1.1/DTD/svg11.dtd">
<!-- Created with matplotlib (http://matplotlib.org/) -->
<svg height="104pt" version="1.1" viewBox="0 0 133 104" width="133pt" xmlns="http://www.w3.org/2000/svg" xmlns:xlink="http://www.w3.org/1999/xlink">
 <defs>
  <style type="text/css">
*{stroke-linecap:butt;stroke-linejoin:round;}
  </style>
 </defs>
 <g id="figure_1">
  <g id="patch_1">
   <path d="M 0 104.56 
L 133 104.56 
L 133 0 
L 0 0 
z
" style="fill:#ffffff;"/>
  </g>
  <g id="axes_1">
   <g id="patch_2">
    <path d="M 10.7 93.86 
L 122.3 93.86 
L 122.3 10.7 
L 10.7 10.7 
z
" style="fill:#ffffff;"/>
   </g>
   <g id="patch_3">
    <path clip-path="url(#pc638ee68ba)" d="M 15.772727 87.7 
L 16.383899 87.7 
L 16.383899 87.649228 
L 15.772727 87.649228 
z
" style="fill:#1d1d1d;"/>
   </g>
   <g id="patch_4">
    <path clip-path="url(#pc638ee68ba)" d="M 16.282037 87.7 
L 16.893209 87.7 
L 16.893209 87.648568 
L 16.282037 87.648568 
z
" style="fill:#1d1d1d;"/>
   </g>
   <g id="patch_5">
    <path clip-path="url(#pc638ee68ba)" d="M 16.791347 87.7 
L 17.402519 87.7 
L 17.402519 87.648551 
L 16.791347 87.648551 
z
" style="fill:#1d1d1d;"/>
   </g>
   <g id="patch_6">
    <path clip-path="url(#pc638ee68ba)" d="M 17.300657 87.7 
L 17.911829 87.7 
L 17.911829 87.648015 
L 17.300657 87.648015 
z
" style="fill:#1d1d1d;"/>
   </g>
   <g id="patch_7">
    <path clip-path="url(#pc638ee68ba)" d="M 17.809967 87.7 
L 18.421139 87.7 
L 18.421139 87.646892 
L 17.809967 87.646892 
z
" style="fill:#1d1d1d;"/>
   </g>
   <g id="patch_8">
    <path clip-path="url(#pc638ee68ba)" d="M 18.319277 87.7 
L 18.930449 87.7 
L 18.930449 87.646773 
L 18.319277 87.646773 
z
" style="fill:#1d1d1d;"/>
   </g>
   <g id="patch_9">
    <path clip-path="url(#pc638ee68ba)" d="M 18.828587 87.7 
L 19.439759 87.7 
L 19.439759 87.646632 
L 18.828587 87.646632 
z
" style="fill:#1d1d1d;"/>
   </g>
   <g id="patch_10">
    <path clip-path="url(#pc638ee68ba)" d="M 19.337897 87.7 
L 19.949069 87.7 
L 19.949069 87.64598 
L 19.337897 87.64598 
z
" style="fill:#1d1d1d;"/>
   </g>
   <g id="patch_11">
    <path clip-path="url(#pc638ee68ba)" d="M 19.847207 87.7 
L 20.458379 87.7 
L 20.458379 87.644872 
L 19.847207 87.644872 
z
" style="fill:#1d1d1d;"/>
   </g>
   <g id="patch_12">
    <path clip-path="url(#pc638ee68ba)" d="M 20.356517 87.7 
L 20.967689 87.7 
L 20.967689 87.644743 
L 20.356517 87.644743 
z
" style="fill:#1d1d1d;"/>
   </g>
   <g id="patch_13">
    <path clip-path="url(#pc638ee68ba)" d="M 20.865827 87.7 
L 21.476999 87.7 
L 21.476999 87.644493 
L 20.865827 87.644493 
z
" style="fill:#1d1d1d;"/>
   </g>
   <g id="patch_14">
    <path clip-path="url(#pc638ee68ba)" d="M 21.375137 87.7 
L 21.986309 87.7 
L 21.986309 87.642577 
L 21.375137 87.642577 
z
" style="fill:#1d1d1d;"/>
   </g>
   <g id="patch_15">
    <path clip-path="url(#pc638ee68ba)" d="M 21.884447 87.7 
L 22.495619 87.7 
L 22.495619 87.6425 
L 21.884447 87.6425 
z
" style="fill:#1d1d1d;"/>
   </g>
   <g id="patch_16">
    <path clip-path="url(#pc638ee68ba)" d="M 22.393757 87.7 
L 23.004929 87.7 
L 23.004929 87.642492 
L 22.393757 87.642492 
z
" style="fill:#1d1d1d;"/>
   </g>
   <g id="patch_17">
    <path clip-path="url(#pc638ee68ba)" d="M 22.903067 87.7 
L 23.514239 87.7 
L 23.514239 87.642279 
L 22.903067 87.642279 
z
" style="fill:#1d1d1d;"/>
   </g>
   <g id="patch_18">
    <path clip-path="url(#pc638ee68ba)" d="M 23.412377 87.7 
L 24.023549 87.7 
L 24.023549 87.641816 
L 23.412377 87.641816 
z
" style="fill:#1d1d1d;"/>
   </g>
   <g id="patch_19">
    <path clip-path="url(#pc638ee68ba)" d="M 23.921687 87.7 
L 24.532859 87.7 
L 24.532859 87.641432 
L 23.921687 87.641432 
z
" style="fill:#1d1d1d;"/>
   </g>
   <g id="patch_20">
    <path clip-path="url(#pc638ee68ba)" d="M 24.430997 87.7 
L 25.042169 87.7 
L 25.042169 87.641318 
L 24.430997 87.641318 
z
" style="fill:#1d1d1d;"/>
   </g>
   <g id="patch_21">
    <path clip-path="url(#pc638ee68ba)" d="M 24.940307 87.7 
L 25.551479 87.7 
L 25.551479 87.640429 
L 24.940307 87.640429 
z
" style="fill:#1d1d1d;"/>
   </g>
   <g id="patch_22">
    <path clip-path="url(#pc638ee68ba)" d="M 25.449617 87.7 
L 26.060789 87.7 
L 26.060789 87.639741 
L 25.449617 87.639741 
z
" style="fill:#1d1d1d;"/>
   </g>
   <g id="patch_23">
    <path clip-path="url(#pc638ee68ba)" d="M 25.958927 87.7 
L 26.570099 87.7 
L 26.570099 87.637312 
L 25.958927 87.637312 
z
" style="fill:#1d1d1d;"/>
   </g>
   <g id="patch_24">
    <path clip-path="url(#pc638ee68ba)" d="M 26.468237 87.7 
L 27.079409 87.7 
L 27.079409 87.637264 
L 26.468237 87.637264 
z
" style="fill:#1d1d1d;"/>
   </g>
   <g id="patch_25">
    <path clip-path="url(#pc638ee68ba)" d="M 26.977547 87.7 
L 27.588719 87.7 
L 27.588719 87.636308 
L 26.977547 87.636308 
z
" style="fill:#1d1d1d;"/>
   </g>
   <g id="patch_26">
    <path clip-path="url(#pc638ee68ba)" d="M 27.486857 87.7 
L 28.098028 87.7 
L 28.098028 87.63538 
L 27.486857 87.63538 
z
" style="fill:#1d1d1d;"/>
   </g>
   <g id="patch_27">
    <path clip-path="url(#pc638ee68ba)" d="M 27.996166 87.7 
L 28.607338 87.7 
L 28.607338 87.63414 
L 27.996166 87.63414 
z
" style="fill:#1d1d1d;"/>
   </g>
   <g id="patch_28">
    <path clip-path="url(#pc638ee68ba)" d="M 28.505476 87.7 
L 29.116648 87.7 
L 29.116648 87.633229 
L 28.505476 87.633229 
z
" style="fill:#1d1d1d;"/>
   </g>
   <g id="patch_29">
    <path clip-path="url(#pc638ee68ba)" d="M 29.014786 87.7 
L 29.625958 87.7 
L 29.625958 87.633019 
L 29.014786 87.633019 
z
" style="fill:#1d1d1d;"/>
   </g>
   <g id="patch_30">
    <path clip-path="url(#pc638ee68ba)" d="M 29.524096 87.7 
L 30.135268 87.7 
L 30.135268 87.632927 
L 29.524096 87.632927 
z
" style="fill:#1d1d1d;"/>
   </g>
   <g id="patch_31">
    <path clip-path="url(#pc638ee68ba)" d="M 30.033406 87.7 
L 30.644578 87.7 
L 30.644578 87.631813 
L 30.033406 87.631813 
z
" style="fill:#1d1d1d;"/>
   </g>
   <g id="patch_32">
    <path clip-path="url(#pc638ee68ba)" d="M 30.542716 87.7 
L 31.153888 87.7 
L 31.153888 87.631274 
L 30.542716 87.631274 
z
" style="fill:#1d1d1d;"/>
   </g>
   <g id="patch_33">
    <path clip-path="url(#pc638ee68ba)" d="M 31.052026 87.7 
L 31.663198 87.7 
L 31.663198 87.63046 
L 31.052026 87.63046 
z
" style="fill:#1d1d1d;"/>
   </g>
   <g id="patch_34">
    <path clip-path="url(#pc638ee68ba)" d="M 31.561336 87.7 
L 32.172508 87.7 
L 32.172508 87.629593 
L 31.561336 87.629593 
z
" style="fill:#1d1d1d;"/>
   </g>
   <g id="patch_35">
    <path clip-path="url(#pc638ee68ba)" d="M 32.070646 87.7 
L 32.681818 87.7 
L 32.681818 87.628109 
L 32.070646 87.628109 
z
" style="fill:#1d1d1d;"/>
   </g>
   <g id="patch_36">
    <path clip-path="url(#pc638ee68ba)" d="M 32.579956 87.7 
L 33.191128 87.7 
L 33.191128 87.627929 
L 32.579956 87.627929 
z
" style="fill:#1d1d1d;"/>
   </g>
   <g id="patch_37">
    <path clip-path="url(#pc638ee68ba)" d="M 33.089266 87.7 
L 33.700438 87.7 
L 33.700438 87.62778 
L 33.089266 87.62778 
z
" style="fill:#1d1d1d;"/>
   </g>
   <g id="patch_38">
    <path clip-path="url(#pc638ee68ba)" d="M 33.598576 87.7 
L 34.209748 87.7 
L 34.209748 87.627515 
L 33.598576 87.627515 
z
" style="fill:#1d1d1d;"/>
   </g>
   <g id="patch_39">
    <path clip-path="url(#pc638ee68ba)" d="M 34.107886 87.7 
L 34.719058 87.7 
L 34.719058 87.626474 
L 34.107886 87.626474 
z
" style="fill:#1d1d1d;"/>
   </g>
   <g id="patch_40">
    <path clip-path="url(#pc638ee68ba)" d="M 34.617196 87.7 
L 35.228368 87.7 
L 35.228368 87.625766 
L 34.617196 87.625766 
z
" style="fill:#1d1d1d;"/>
   </g>
   <g id="patch_41">
    <path clip-path="url(#pc638ee68ba)" d="M 35.126506 87.7 
L 35.737678 87.7 
L 35.737678 87.624065 
L 35.126506 87.624065 
z
" style="fill:#1d1d1d;"/>
   </g>
   <g id="patch_42">
    <path clip-path="url(#pc638ee68ba)" d="M 35.635816 87.7 
L 36.246988 87.7 
L 36.246988 87.622096 
L 35.635816 87.622096 
z
" style="fill:#1d1d1d;"/>
   </g>
   <g id="patch_43">
    <path clip-path="url(#pc638ee68ba)" d="M 36.145126 87.7 
L 36.756298 87.7 
L 36.756298 87.619961 
L 36.145126 87.619961 
z
" style="fill:#1d1d1d;"/>
   </g>
   <g id="patch_44">
    <path clip-path="url(#pc638ee68ba)" d="M 36.654436 87.7 
L 37.265608 87.7 
L 37.265608 87.619713 
L 36.654436 87.619713 
z
" style="fill:#1d1d1d;"/>
   </g>
   <g id="patch_45">
    <path clip-path="url(#pc638ee68ba)" d="M 37.163746 87.7 
L 37.774918 87.7 
L 37.774918 87.61936 
L 37.163746 87.61936 
z
" style="fill:#1d1d1d;"/>
   </g>
   <g id="patch_46">
    <path clip-path="url(#pc638ee68ba)" d="M 37.673056 87.7 
L 38.284228 87.7 
L 38.284228 87.61512 
L 37.673056 87.61512 
z
" style="fill:#1d1d1d;"/>
   </g>
   <g id="patch_47">
    <path clip-path="url(#pc638ee68ba)" d="M 38.182366 87.7 
L 38.793538 87.7 
L 38.793538 87.613726 
L 38.182366 87.613726 
z
" style="fill:#1d1d1d;"/>
   </g>
   <g id="patch_48">
    <path clip-path="url(#pc638ee68ba)" d="M 38.691676 87.7 
L 39.302848 87.7 
L 39.302848 87.612032 
L 38.691676 87.612032 
z
" style="fill:#1d1d1d;"/>
   </g>
   <g id="patch_49">
    <path clip-path="url(#pc638ee68ba)" d="M 39.200986 87.7 
L 39.812158 87.7 
L 39.812158 87.610869 
L 39.200986 87.610869 
z
" style="fill:#1d1d1d;"/>
   </g>
   <g id="patch_50">
    <path clip-path="url(#pc638ee68ba)" d="M 39.710296 87.7 
L 40.321468 87.7 
L 40.321468 87.609116 
L 39.710296 87.609116 
z
" style="fill:#1d1d1d;"/>
   </g>
   <g id="patch_51">
    <path clip-path="url(#pc638ee68ba)" d="M 40.219606 87.7 
L 40.830778 87.7 
L 40.830778 87.608644 
L 40.219606 87.608644 
z
" style="fill:#1d1d1d;"/>
   </g>
   <g id="patch_52">
    <path clip-path="url(#pc638ee68ba)" d="M 40.728916 87.7 
L 41.340088 87.7 
L 41.340088 87.607086 
L 40.728916 87.607086 
z
" style="fill:#1d1d1d;"/>
   </g>
   <g id="patch_53">
    <path clip-path="url(#pc638ee68ba)" d="M 41.238226 87.7 
L 41.849398 87.7 
L 41.849398 87.606891 
L 41.238226 87.606891 
z
" style="fill:#1d1d1d;"/>
   </g>
   <g id="patch_54">
    <path clip-path="url(#pc638ee68ba)" d="M 41.747536 87.7 
L 42.358708 87.7 
L 42.358708 87.60376 
L 41.747536 87.60376 
z
" style="fill:#1d1d1d;"/>
   </g>
   <g id="patch_55">
    <path clip-path="url(#pc638ee68ba)" d="M 42.256846 87.7 
L 42.868018 87.7 
L 42.868018 87.595335 
L 42.256846 87.595335 
z
" style="fill:#1d1d1d;"/>
   </g>
   <g id="patch_56">
    <path clip-path="url(#pc638ee68ba)" d="M 42.766156 87.7 
L 43.377327 87.7 
L 43.377327 87.594774 
L 42.766156 87.594774 
z
" style="fill:#1d1d1d;"/>
   </g>
   <g id="patch_57">
    <path clip-path="url(#pc638ee68ba)" d="M 43.275465 87.7 
L 43.886637 87.7 
L 43.886637 87.594437 
L 43.275465 87.594437 
z
" style="fill:#1d1d1d;"/>
   </g>
   <g id="patch_58">
    <path clip-path="url(#pc638ee68ba)" d="M 43.784775 87.7 
L 44.395947 87.7 
L 44.395947 87.593525 
L 43.784775 87.593525 
z
" style="fill:#1d1d1d;"/>
   </g>
   <g id="patch_59">
    <path clip-path="url(#pc638ee68ba)" d="M 44.294085 87.7 
L 44.905257 87.7 
L 44.905257 87.592291 
L 44.294085 87.592291 
z
" style="fill:#1d1d1d;"/>
   </g>
   <g id="patch_60">
    <path clip-path="url(#pc638ee68ba)" d="M 44.803395 87.7 
L 45.414567 87.7 
L 45.414567 87.589344 
L 44.803395 87.589344 
z
" style="fill:#1d1d1d;"/>
   </g>
   <g id="patch_61">
    <path clip-path="url(#pc638ee68ba)" d="M 45.312705 87.7 
L 45.923877 87.7 
L 45.923877 87.588932 
L 45.312705 87.588932 
z
" style="fill:#1d1d1d;"/>
   </g>
   <g id="patch_62">
    <path clip-path="url(#pc638ee68ba)" d="M 45.822015 87.7 
L 46.433187 87.7 
L 46.433187 87.588022 
L 45.822015 87.588022 
z
" style="fill:#1d1d1d;"/>
   </g>
   <g id="patch_63">
    <path clip-path="url(#pc638ee68ba)" d="M 46.331325 87.7 
L 46.942497 87.7 
L 46.942497 87.584143 
L 46.331325 87.584143 
z
" style="fill:#1d1d1d;"/>
   </g>
   <g id="patch_64">
    <path clip-path="url(#pc638ee68ba)" d="M 46.840635 87.7 
L 47.451807 87.7 
L 47.451807 87.583177 
L 46.840635 87.583177 
z
" style="fill:#1d1d1d;"/>
   </g>
   <g id="patch_65">
    <path clip-path="url(#pc638ee68ba)" d="M 47.349945 87.7 
L 47.961117 87.7 
L 47.961117 87.582691 
L 47.349945 87.582691 
z
" style="fill:#1d1d1d;"/>
   </g>
   <g id="patch_66">
    <path clip-path="url(#pc638ee68ba)" d="M 47.859255 87.7 
L 48.470427 87.7 
L 48.470427 87.578711 
L 47.859255 87.578711 
z
" style="fill:#1d1d1d;"/>
   </g>
   <g id="patch_67">
    <path clip-path="url(#pc638ee68ba)" d="M 48.368565 87.7 
L 48.979737 87.7 
L 48.979737 87.574938 
L 48.368565 87.574938 
z
" style="fill:#1d1d1d;"/>
   </g>
   <g id="patch_68">
    <path clip-path="url(#pc638ee68ba)" d="M 48.877875 87.7 
L 49.489047 87.7 
L 49.489047 87.566624 
L 48.877875 87.566624 
z
" style="fill:#1d1d1d;"/>
   </g>
   <g id="patch_69">
    <path clip-path="url(#pc638ee68ba)" d="M 49.387185 87.7 
L 49.998357 87.7 
L 49.998357 87.566424 
L 49.387185 87.566424 
z
" style="fill:#1d1d1d;"/>
   </g>
   <g id="patch_70">
    <path clip-path="url(#pc638ee68ba)" d="M 49.896495 87.7 
L 50.507667 87.7 
L 50.507667 87.562761 
L 49.896495 87.562761 
z
" style="fill:#1d1d1d;"/>
   </g>
   <g id="patch_71">
    <path clip-path="url(#pc638ee68ba)" d="M 50.405805 87.7 
L 51.016977 87.7 
L 51.016977 87.562493 
L 50.405805 87.562493 
z
" style="fill:#1d1d1d;"/>
   </g>
   <g id="patch_72">
    <path clip-path="url(#pc638ee68ba)" d="M 50.915115 87.7 
L 51.526287 87.7 
L 51.526287 87.555033 
L 50.915115 87.555033 
z
" style="fill:#1d1d1d;"/>
   </g>
   <g id="patch_73">
    <path clip-path="url(#pc638ee68ba)" d="M 51.424425 87.7 
L 52.035597 87.7 
L 52.035597 87.548671 
L 51.424425 87.548671 
z
" style="fill:#1d1d1d;"/>
   </g>
   <g id="patch_74">
    <path clip-path="url(#pc638ee68ba)" d="M 51.933735 87.7 
L 52.544907 87.7 
L 52.544907 87.542392 
L 51.933735 87.542392 
z
" style="fill:#1d1d1d;"/>
   </g>
   <g id="patch_75">
    <path clip-path="url(#pc638ee68ba)" d="M 52.443045 87.7 
L 53.054217 87.7 
L 53.054217 87.530423 
L 52.443045 87.530423 
z
" style="fill:#1d1d1d;"/>
   </g>
   <g id="patch_76">
    <path clip-path="url(#pc638ee68ba)" d="M 52.952355 87.7 
L 53.563527 87.7 
L 53.563527 87.510716 
L 52.952355 87.510716 
z
" style="fill:#1d1d1d;"/>
   </g>
   <g id="patch_77">
    <path clip-path="url(#pc638ee68ba)" d="M 53.461665 87.7 
L 54.072837 87.7 
L 54.072837 87.498379 
L 53.461665 87.498379 
z
" style="fill:#1d1d1d;"/>
   </g>
   <g id="patch_78">
    <path clip-path="url(#pc638ee68ba)" d="M 53.970975 87.7 
L 54.582147 87.7 
L 54.582147 87.482758 
L 53.970975 87.482758 
z
" style="fill:#1d1d1d;"/>
   </g>
   <g id="patch_79">
    <path clip-path="url(#pc638ee68ba)" d="M 54.480285 87.7 
L 55.091457 87.7 
L 55.091457 87.469556 
L 54.480285 87.469556 
z
" style="fill:#1d1d1d;"/>
   </g>
   <g id="patch_80">
    <path clip-path="url(#pc638ee68ba)" d="M 54.989595 87.7 
L 55.600767 87.7 
L 55.600767 87.468198 
L 54.989595 87.468198 
z
" style="fill:#1d1d1d;"/>
   </g>
   <g id="patch_81">
    <path clip-path="url(#pc638ee68ba)" d="M 55.498905 87.7 
L 56.110077 87.7 
L 56.110077 87.451361 
L 55.498905 87.451361 
z
" style="fill:#1d1d1d;"/>
   </g>
   <g id="patch_82">
    <path clip-path="url(#pc638ee68ba)" d="M 56.008215 87.7 
L 56.619387 87.7 
L 56.619387 87.409382 
L 56.008215 87.409382 
z
" style="fill:#1d1d1d;"/>
   </g>
   <g id="patch_83">
    <path clip-path="url(#pc638ee68ba)" d="M 56.517525 87.7 
L 57.128697 87.7 
L 57.128697 87.40658 
L 56.517525 87.40658 
z
" style="fill:#1d1d1d;"/>
   </g>
   <g id="patch_84">
    <path clip-path="url(#pc638ee68ba)" d="M 57.026835 87.7 
L 57.638007 87.7 
L 57.638007 87.399929 
L 57.026835 87.399929 
z
" style="fill:#1d1d1d;"/>
   </g>
   <g id="patch_85">
    <path clip-path="url(#pc638ee68ba)" d="M 57.536145 87.7 
L 58.147317 87.7 
L 58.147317 87.385132 
L 57.536145 87.385132 
z
" style="fill:#1d1d1d;"/>
   </g>
   <g id="patch_86">
    <path clip-path="url(#pc638ee68ba)" d="M 58.045455 87.7 
L 58.656627 87.7 
L 58.656627 87.345563 
L 58.045455 87.345563 
z
" style="fill:#1d1d1d;"/>
   </g>
   <g id="patch_87">
    <path clip-path="url(#pc638ee68ba)" d="M 58.554765 87.7 
L 59.165936 87.7 
L 59.165936 87.336516 
L 58.554765 87.336516 
z
" style="fill:#1d1d1d;"/>
   </g>
   <g id="patch_88">
    <path clip-path="url(#pc638ee68ba)" d="M 59.064074 87.7 
L 59.675246 87.7 
L 59.675246 87.321284 
L 59.064074 87.321284 
z
" style="fill:#1d1d1d;"/>
   </g>
   <g id="patch_89">
    <path clip-path="url(#pc638ee68ba)" d="M 59.573384 87.7 
L 60.184556 87.7 
L 60.184556 87.310008 
L 59.573384 87.310008 
z
" style="fill:#1d1d1d;"/>
   </g>
   <g id="patch_90">
    <path clip-path="url(#pc638ee68ba)" d="M 60.082694 87.7 
L 60.693866 87.7 
L 60.693866 87.287757 
L 60.082694 87.287757 
z
" style="fill:#1d1d1d;"/>
   </g>
   <g id="patch_91">
    <path clip-path="url(#pc638ee68ba)" d="M 60.592004 87.7 
L 61.203176 87.7 
L 61.203176 87.286555 
L 60.592004 87.286555 
z
" style="fill:#1d1d1d;"/>
   </g>
   <g id="patch_92">
    <path clip-path="url(#pc638ee68ba)" d="M 61.101314 87.7 
L 61.712486 87.7 
L 61.712486 87.268585 
L 61.101314 87.268585 
z
" style="fill:#1d1d1d;"/>
   </g>
   <g id="patch_93">
    <path clip-path="url(#pc638ee68ba)" d="M 61.610624 87.7 
L 62.221796 87.7 
L 62.221796 87.268467 
L 61.610624 87.268467 
z
" style="fill:#1d1d1d;"/>
   </g>
   <g id="patch_94">
    <path clip-path="url(#pc638ee68ba)" d="M 62.119934 87.7 
L 62.731106 87.7 
L 62.731106 87.216682 
L 62.119934 87.216682 
z
" style="fill:#1d1d1d;"/>
   </g>
   <g id="patch_95">
    <path clip-path="url(#pc638ee68ba)" d="M 62.629244 87.7 
L 63.240416 87.7 
L 63.240416 87.207197 
L 62.629244 87.207197 
z
" style="fill:#1d1d1d;"/>
   </g>
   <g id="patch_96">
    <path clip-path="url(#pc638ee68ba)" d="M 63.138554 87.7 
L 63.749726 87.7 
L 63.749726 87.097677 
L 63.138554 87.097677 
z
" style="fill:#1d1d1d;"/>
   </g>
   <g id="patch_97">
    <path clip-path="url(#pc638ee68ba)" d="M 63.647864 87.7 
L 64.259036 87.7 
L 64.259036 87.090145 
L 63.647864 87.090145 
z
" style="fill:#1d1d1d;"/>
   </g>
   <g id="patch_98">
    <path clip-path="url(#pc638ee68ba)" d="M 64.157174 87.7 
L 64.768346 87.7 
L 64.768346 86.863995 
L 64.157174 86.863995 
z
" style="fill:#1d1d1d;"/>
   </g>
   <g id="patch_99">
    <path clip-path="url(#pc638ee68ba)" d="M 64.666484 87.7 
L 65.277656 87.7 
L 65.277656 86.133884 
L 64.666484 86.133884 
z
" style="fill:#1d1d1d;"/>
   </g>
   <g id="patch_100">
    <path clip-path="url(#pc638ee68ba)" d="M 65.175794 87.7 
L 65.786966 87.7 
L 65.786966 86.076541 
L 65.175794 86.076541 
z
" style="fill:#1d1d1d;"/>
   </g>
   <g id="patch_101">
    <path clip-path="url(#pc638ee68ba)" d="M 65.685104 87.7 
L 66.296276 87.7 
L 66.296276 85.821339 
L 65.685104 85.821339 
z
" style="fill:#1d1d1d;"/>
   </g>
   <g id="patch_102">
    <path clip-path="url(#pc638ee68ba)" d="M 66.194414 87.7 
L 66.805586 87.7 
L 66.805586 85.749472 
L 66.194414 85.749472 
z
" style="fill:#1d1d1d;"/>
   </g>
   <g id="patch_103">
    <path clip-path="url(#pc638ee68ba)" d="M 66.194414 87.7 
L 66.805586 87.7 
L 66.805586 85.749472 
L 66.194414 85.749472 
z
" style="fill:#1d1d1d;"/>
   </g>
   <g id="patch_104">
    <path clip-path="url(#pc638ee68ba)" d="M 66.703724 87.7 
L 67.314896 87.7 
L 67.314896 68.2157 
L 66.703724 68.2157 
z
" style="fill:#1d1d1d;"/>
   </g>
   <g id="patch_105">
    <path clip-path="url(#pc638ee68ba)" d="M 67.213034 87.7 
L 67.824206 87.7 
L 67.824206 85.078606 
L 67.213034 85.078606 
z
" style="fill:#1d1d1d;"/>
   </g>
   <g id="patch_106">
    <path clip-path="url(#pc638ee68ba)" d="M 67.722344 87.7 
L 68.333516 87.7 
L 68.333516 85.193861 
L 67.722344 85.193861 
z
" style="fill:#1d1d1d;"/>
   </g>
   <g id="patch_107">
    <path clip-path="url(#pc638ee68ba)" d="M 68.231654 87.7 
L 68.842826 87.7 
L 68.842826 85.668691 
L 68.231654 85.668691 
z
" style="fill:#1d1d1d;"/>
   </g>
   <g id="patch_108">
    <path clip-path="url(#pc638ee68ba)" d="M 68.740964 87.7 
L 69.352136 87.7 
L 69.352136 85.822547 
L 68.740964 85.822547 
z
" style="fill:#1d1d1d;"/>
   </g>
   <g id="patch_109">
    <path clip-path="url(#pc638ee68ba)" d="M 69.250274 87.7 
L 69.861446 87.7 
L 69.861446 86.998475 
L 69.250274 86.998475 
z
" style="fill:#1d1d1d;"/>
   </g>
   <g id="patch_110">
    <path clip-path="url(#pc638ee68ba)" d="M 69.759584 87.7 
L 70.370756 87.7 
L 70.370756 87.033682 
L 69.759584 87.033682 
z
" style="fill:#1d1d1d;"/>
   </g>
   <g id="patch_111">
    <path clip-path="url(#pc638ee68ba)" d="M 70.268894 87.7 
L 70.880066 87.7 
L 70.880066 87.209928 
L 70.268894 87.209928 
z
" style="fill:#1d1d1d;"/>
   </g>
   <g id="patch_112">
    <path clip-path="url(#pc638ee68ba)" d="M 70.778204 87.7 
L 71.389376 87.7 
L 71.389376 87.278487 
L 70.778204 87.278487 
z
" style="fill:#1d1d1d;"/>
   </g>
   <g id="patch_113">
    <path clip-path="url(#pc638ee68ba)" d="M 71.287514 87.7 
L 71.898686 87.7 
L 71.898686 87.327015 
L 71.287514 87.327015 
z
" style="fill:#1d1d1d;"/>
   </g>
   <g id="patch_114">
    <path clip-path="url(#pc638ee68ba)" d="M 71.796824 87.7 
L 72.407996 87.7 
L 72.407996 87.37646 
L 71.796824 87.37646 
z
" style="fill:#1d1d1d;"/>
   </g>
   <g id="patch_115">
    <path clip-path="url(#pc638ee68ba)" d="M 72.306134 87.7 
L 72.917306 87.7 
L 72.917306 87.401752 
L 72.306134 87.401752 
z
" style="fill:#1d1d1d;"/>
   </g>
   <g id="patch_116">
    <path clip-path="url(#pc638ee68ba)" d="M 72.815444 87.7 
L 73.426616 87.7 
L 73.426616 87.435705 
L 72.815444 87.435705 
z
" style="fill:#1d1d1d;"/>
   </g>
   <g id="patch_117">
    <path clip-path="url(#pc638ee68ba)" d="M 73.324754 87.7 
L 73.935926 87.7 
L 73.935926 87.446836 
L 73.324754 87.446836 
z
" style="fill:#1d1d1d;"/>
   </g>
   <g id="patch_118">
    <path clip-path="url(#pc638ee68ba)" d="M 73.834064 87.7 
L 74.445235 87.7 
L 74.445235 87.447521 
L 73.834064 87.447521 
z
" style="fill:#1d1d1d;"/>
   </g>
   <g id="patch_119">
    <path clip-path="url(#pc638ee68ba)" d="M 74.343373 87.7 
L 74.954545 87.7 
L 74.954545 87.459636 
L 74.343373 87.459636 
z
" style="fill:#1d1d1d;"/>
   </g>
   <g id="patch_120">
    <path clip-path="url(#pc638ee68ba)" d="M 74.852683 87.7 
L 75.463855 87.7 
L 75.463855 87.469689 
L 74.852683 87.469689 
z
" style="fill:#1d1d1d;"/>
   </g>
   <g id="patch_121">
    <path clip-path="url(#pc638ee68ba)" d="M 75.361993 87.7 
L 75.973165 87.7 
L 75.973165 87.470765 
L 75.361993 87.470765 
z
" style="fill:#1d1d1d;"/>
   </g>
   <g id="patch_122">
    <path clip-path="url(#pc638ee68ba)" d="M 75.871303 87.7 
L 76.482475 87.7 
L 76.482475 87.471554 
L 75.871303 87.471554 
z
" style="fill:#1d1d1d;"/>
   </g>
   <g id="patch_123">
    <path clip-path="url(#pc638ee68ba)" d="M 76.380613 87.7 
L 76.991785 87.7 
L 76.991785 87.471605 
L 76.380613 87.471605 
z
" style="fill:#1d1d1d;"/>
   </g>
   <g id="patch_124">
    <path clip-path="url(#pc638ee68ba)" d="M 76.889923 87.7 
L 77.501095 87.7 
L 77.501095 87.489227 
L 76.889923 87.489227 
z
" style="fill:#1d1d1d;"/>
   </g>
   <g id="patch_125">
    <path clip-path="url(#pc638ee68ba)" d="M 77.399233 87.7 
L 78.010405 87.7 
L 78.010405 87.50507 
L 77.399233 87.50507 
z
" style="fill:#1d1d1d;"/>
   </g>
   <g id="patch_126">
    <path clip-path="url(#pc638ee68ba)" d="M 77.908543 87.7 
L 78.519715 87.7 
L 78.519715 87.515197 
L 77.908543 87.515197 
z
" style="fill:#1d1d1d;"/>
   </g>
   <g id="patch_127">
    <path clip-path="url(#pc638ee68ba)" d="M 78.417853 87.7 
L 79.029025 87.7 
L 79.029025 87.517176 
L 78.417853 87.517176 
z
" style="fill:#1d1d1d;"/>
   </g>
   <g id="patch_128">
    <path clip-path="url(#pc638ee68ba)" d="M 78.927163 87.7 
L 79.538335 87.7 
L 79.538335 87.524041 
L 78.927163 87.524041 
z
" style="fill:#1d1d1d;"/>
   </g>
   <g id="patch_129">
    <path clip-path="url(#pc638ee68ba)" d="M 79.436473 87.7 
L 80.047645 87.7 
L 80.047645 87.526966 
L 79.436473 87.526966 
z
" style="fill:#1d1d1d;"/>
   </g>
   <g id="patch_130">
    <path clip-path="url(#pc638ee68ba)" d="M 79.945783 87.7 
L 80.556955 87.7 
L 80.556955 87.555092 
L 79.945783 87.555092 
z
" style="fill:#1d1d1d;"/>
   </g>
   <g id="patch_131">
    <path clip-path="url(#pc638ee68ba)" d="M 80.455093 87.7 
L 81.066265 87.7 
L 81.066265 87.555207 
L 80.455093 87.555207 
z
" style="fill:#1d1d1d;"/>
   </g>
   <g id="patch_132">
    <path clip-path="url(#pc638ee68ba)" d="M 80.964403 87.7 
L 81.575575 87.7 
L 81.575575 87.571253 
L 80.964403 87.571253 
z
" style="fill:#1d1d1d;"/>
   </g>
   <g id="patch_133">
    <path clip-path="url(#pc638ee68ba)" d="M 81.473713 87.7 
L 82.084885 87.7 
L 82.084885 87.571859 
L 81.473713 87.571859 
z
" style="fill:#1d1d1d;"/>
   </g>
   <g id="patch_134">
    <path clip-path="url(#pc638ee68ba)" d="M 81.983023 87.7 
L 82.594195 87.7 
L 82.594195 87.575989 
L 81.983023 87.575989 
z
" style="fill:#1d1d1d;"/>
   </g>
   <g id="patch_135">
    <path clip-path="url(#pc638ee68ba)" d="M 82.492333 87.7 
L 83.103505 87.7 
L 83.103505 87.577767 
L 82.492333 87.577767 
z
" style="fill:#1d1d1d;"/>
   </g>
   <g id="patch_136">
    <path clip-path="url(#pc638ee68ba)" d="M 83.001643 87.7 
L 83.612815 87.7 
L 83.612815 87.582424 
L 83.001643 87.582424 
z
" style="fill:#1d1d1d;"/>
   </g>
   <g id="patch_137">
    <path clip-path="url(#pc638ee68ba)" d="M 83.510953 87.7 
L 84.122125 87.7 
L 84.122125 87.582513 
L 83.510953 87.582513 
z
" style="fill:#1d1d1d;"/>
   </g>
   <g id="patch_138">
    <path clip-path="url(#pc638ee68ba)" d="M 84.020263 87.7 
L 84.631435 87.7 
L 84.631435 87.583591 
L 84.020263 87.583591 
z
" style="fill:#1d1d1d;"/>
   </g>
   <g id="patch_139">
    <path clip-path="url(#pc638ee68ba)" d="M 84.529573 87.7 
L 85.140745 87.7 
L 85.140745 87.584544 
L 84.529573 87.584544 
z
" style="fill:#1d1d1d;"/>
   </g>
   <g id="patch_140">
    <path clip-path="url(#pc638ee68ba)" d="M 85.038883 87.7 
L 85.650055 87.7 
L 85.650055 87.584643 
L 85.038883 87.584643 
z
" style="fill:#1d1d1d;"/>
   </g>
   <g id="patch_141">
    <path clip-path="url(#pc638ee68ba)" d="M 85.548193 87.7 
L 86.159365 87.7 
L 86.159365 87.588091 
L 85.548193 87.588091 
z
" style="fill:#1d1d1d;"/>
   </g>
   <g id="patch_142">
    <path clip-path="url(#pc638ee68ba)" d="M 86.057503 87.7 
L 86.668675 87.7 
L 86.668675 87.589816 
L 86.057503 87.589816 
z
" style="fill:#1d1d1d;"/>
   </g>
   <g id="patch_143">
    <path clip-path="url(#pc638ee68ba)" d="M 86.566813 87.7 
L 87.177985 87.7 
L 87.177985 87.590874 
L 86.566813 87.590874 
z
" style="fill:#1d1d1d;"/>
   </g>
   <g id="patch_144">
    <path clip-path="url(#pc638ee68ba)" d="M 87.076123 87.7 
L 87.687295 87.7 
L 87.687295 87.591277 
L 87.076123 87.591277 
z
" style="fill:#1d1d1d;"/>
   </g>
   <g id="patch_145">
    <path clip-path="url(#pc638ee68ba)" d="M 87.585433 87.7 
L 88.196605 87.7 
L 88.196605 87.591875 
L 87.585433 87.591875 
z
" style="fill:#1d1d1d;"/>
   </g>
   <g id="patch_146">
    <path clip-path="url(#pc638ee68ba)" d="M 88.094743 87.7 
L 88.705915 87.7 
L 88.705915 87.594575 
L 88.094743 87.594575 
z
" style="fill:#1d1d1d;"/>
   </g>
   <g id="patch_147">
    <path clip-path="url(#pc638ee68ba)" d="M 88.604053 87.7 
L 89.215225 87.7 
L 89.215225 87.59541 
L 88.604053 87.59541 
z
" style="fill:#1d1d1d;"/>
   </g>
   <g id="patch_148">
    <path clip-path="url(#pc638ee68ba)" d="M 89.113363 87.7 
L 89.724535 87.7 
L 89.724535 87.598805 
L 89.113363 87.598805 
z
" style="fill:#1d1d1d;"/>
   </g>
   <g id="patch_149">
    <path clip-path="url(#pc638ee68ba)" d="M 89.622673 87.7 
L 90.233844 87.7 
L 90.233844 87.601036 
L 89.622673 87.601036 
z
" style="fill:#1d1d1d;"/>
   </g>
   <g id="patch_150">
    <path clip-path="url(#pc638ee68ba)" d="M 90.131982 87.7 
L 90.743154 87.7 
L 90.743154 87.601319 
L 90.131982 87.601319 
z
" style="fill:#1d1d1d;"/>
   </g>
   <g id="patch_151">
    <path clip-path="url(#pc638ee68ba)" d="M 90.641292 87.7 
L 91.252464 87.7 
L 91.252464 87.604795 
L 90.641292 87.604795 
z
" style="fill:#1d1d1d;"/>
   </g>
   <g id="patch_152">
    <path clip-path="url(#pc638ee68ba)" d="M 91.150602 87.7 
L 91.761774 87.7 
L 91.761774 87.607425 
L 91.150602 87.607425 
z
" style="fill:#1d1d1d;"/>
   </g>
   <g id="patch_153">
    <path clip-path="url(#pc638ee68ba)" d="M 91.659912 87.7 
L 92.271084 87.7 
L 92.271084 87.607997 
L 91.659912 87.607997 
z
" style="fill:#1d1d1d;"/>
   </g>
   <g id="patch_154">
    <path clip-path="url(#pc638ee68ba)" d="M 92.169222 87.7 
L 92.780394 87.7 
L 92.780394 87.608017 
L 92.169222 87.608017 
z
" style="fill:#1d1d1d;"/>
   </g>
   <g id="patch_155">
    <path clip-path="url(#pc638ee68ba)" d="M 92.678532 87.7 
L 93.289704 87.7 
L 93.289704 87.608473 
L 92.678532 87.608473 
z
" style="fill:#1d1d1d;"/>
   </g>
   <g id="patch_156">
    <path clip-path="url(#pc638ee68ba)" d="M 93.187842 87.7 
L 93.799014 87.7 
L 93.799014 87.610176 
L 93.187842 87.610176 
z
" style="fill:#1d1d1d;"/>
   </g>
   <g id="patch_157">
    <path clip-path="url(#pc638ee68ba)" d="M 93.697152 87.7 
L 94.308324 87.7 
L 94.308324 87.610239 
L 93.697152 87.610239 
z
" style="fill:#1d1d1d;"/>
   </g>
   <g id="patch_158">
    <path clip-path="url(#pc638ee68ba)" d="M 94.206462 87.7 
L 94.817634 87.7 
L 94.817634 87.612537 
L 94.206462 87.612537 
z
" style="fill:#1d1d1d;"/>
   </g>
   <g id="patch_159">
    <path clip-path="url(#pc638ee68ba)" d="M 94.715772 87.7 
L 95.326944 87.7 
L 95.326944 87.613511 
L 94.715772 87.613511 
z
" style="fill:#1d1d1d;"/>
   </g>
   <g id="patch_160">
    <path clip-path="url(#pc638ee68ba)" d="M 95.225082 87.7 
L 95.836254 87.7 
L 95.836254 87.613518 
L 95.225082 87.613518 
z
" style="fill:#1d1d1d;"/>
   </g>
   <g id="patch_161">
    <path clip-path="url(#pc638ee68ba)" d="M 95.734392 87.7 
L 96.345564 87.7 
L 96.345564 87.614393 
L 95.734392 87.614393 
z
" style="fill:#1d1d1d;"/>
   </g>
   <g id="patch_162">
    <path clip-path="url(#pc638ee68ba)" d="M 96.243702 87.7 
L 96.854874 87.7 
L 96.854874 87.618966 
L 96.243702 87.618966 
z
" style="fill:#1d1d1d;"/>
   </g>
   <g id="patch_163">
    <path clip-path="url(#pc638ee68ba)" d="M 96.753012 87.7 
L 97.364184 87.7 
L 97.364184 87.619859 
L 96.753012 87.619859 
z
" style="fill:#1d1d1d;"/>
   </g>
   <g id="patch_164">
    <path clip-path="url(#pc638ee68ba)" d="M 97.262322 87.7 
L 97.873494 87.7 
L 97.873494 87.620499 
L 97.262322 87.620499 
z
" style="fill:#1d1d1d;"/>
   </g>
   <g id="patch_165">
    <path clip-path="url(#pc638ee68ba)" d="M 97.771632 87.7 
L 98.382804 87.7 
L 98.382804 87.621641 
L 97.771632 87.621641 
z
" style="fill:#1d1d1d;"/>
   </g>
   <g id="patch_166">
    <path clip-path="url(#pc638ee68ba)" d="M 98.280942 87.7 
L 98.892114 87.7 
L 98.892114 87.623512 
L 98.280942 87.623512 
z
" style="fill:#1d1d1d;"/>
   </g>
   <g id="patch_167">
    <path clip-path="url(#pc638ee68ba)" d="M 98.790252 87.7 
L 99.401424 87.7 
L 99.401424 87.624508 
L 98.790252 87.624508 
z
" style="fill:#1d1d1d;"/>
   </g>
   <g id="patch_168">
    <path clip-path="url(#pc638ee68ba)" d="M 99.299562 87.7 
L 99.910734 87.7 
L 99.910734 87.625959 
L 99.299562 87.625959 
z
" style="fill:#1d1d1d;"/>
   </g>
   <g id="patch_169">
    <path clip-path="url(#pc638ee68ba)" d="M 99.808872 87.7 
L 100.420044 87.7 
L 100.420044 87.626846 
L 99.808872 87.626846 
z
" style="fill:#1d1d1d;"/>
   </g>
   <g id="patch_170">
    <path clip-path="url(#pc638ee68ba)" d="M 100.318182 87.7 
L 100.929354 87.7 
L 100.929354 87.626928 
L 100.318182 87.626928 
z
" style="fill:#1d1d1d;"/>
   </g>
   <g id="patch_171">
    <path clip-path="url(#pc638ee68ba)" d="M 100.827492 87.7 
L 101.438664 87.7 
L 101.438664 87.631839 
L 100.827492 87.631839 
z
" style="fill:#1d1d1d;"/>
   </g>
   <g id="patch_172">
    <path clip-path="url(#pc638ee68ba)" d="M 101.336802 87.7 
L 101.947974 87.7 
L 101.947974 87.632216 
L 101.336802 87.632216 
z
" style="fill:#1d1d1d;"/>
   </g>
   <g id="patch_173">
    <path clip-path="url(#pc638ee68ba)" d="M 101.846112 87.7 
L 102.457284 87.7 
L 102.457284 87.632968 
L 101.846112 87.632968 
z
" style="fill:#1d1d1d;"/>
   </g>
   <g id="patch_174">
    <path clip-path="url(#pc638ee68ba)" d="M 102.355422 87.7 
L 102.966594 87.7 
L 102.966594 87.633799 
L 102.355422 87.633799 
z
" style="fill:#1d1d1d;"/>
   </g>
   <g id="patch_175">
    <path clip-path="url(#pc638ee68ba)" d="M 102.864732 87.7 
L 103.475904 87.7 
L 103.475904 87.634177 
L 102.864732 87.634177 
z
" style="fill:#1d1d1d;"/>
   </g>
   <g id="patch_176">
    <path clip-path="url(#pc638ee68ba)" d="M 103.374042 87.7 
L 103.985214 87.7 
L 103.985214 87.636376 
L 103.374042 87.636376 
z
" style="fill:#1d1d1d;"/>
   </g>
   <g id="patch_177">
    <path clip-path="url(#pc638ee68ba)" d="M 103.883352 87.7 
L 104.494524 87.7 
L 104.494524 87.636562 
L 103.883352 87.636562 
z
" style="fill:#1d1d1d;"/>
   </g>
   <g id="patch_178">
    <path clip-path="url(#pc638ee68ba)" d="M 104.392662 87.7 
L 105.003834 87.7 
L 105.003834 87.636573 
L 104.392662 87.636573 
z
" style="fill:#1d1d1d;"/>
   </g>
   <g id="patch_179">
    <path clip-path="url(#pc638ee68ba)" d="M 104.901972 87.7 
L 105.513143 87.7 
L 105.513143 87.636696 
L 104.901972 87.636696 
z
" style="fill:#1d1d1d;"/>
   </g>
   <g id="patch_180">
    <path clip-path="url(#pc638ee68ba)" d="M 105.411281 87.7 
L 106.022453 87.7 
L 106.022453 87.637377 
L 105.411281 87.637377 
z
" style="fill:#1d1d1d;"/>
   </g>
   <g id="patch_181">
    <path clip-path="url(#pc638ee68ba)" d="M 105.920591 87.7 
L 106.531763 87.7 
L 106.531763 87.637441 
L 105.920591 87.637441 
z
" style="fill:#1d1d1d;"/>
   </g>
   <g id="patch_182">
    <path clip-path="url(#pc638ee68ba)" d="M 106.429901 87.7 
L 107.041073 87.7 
L 107.041073 87.637744 
L 106.429901 87.637744 
z
" style="fill:#1d1d1d;"/>
   </g>
   <g id="patch_183">
    <path clip-path="url(#pc638ee68ba)" d="M 106.939211 87.7 
L 107.550383 87.7 
L 107.550383 87.637962 
L 106.939211 87.637962 
z
" style="fill:#1d1d1d;"/>
   </g>
   <g id="patch_184">
    <path clip-path="url(#pc638ee68ba)" d="M 107.448521 87.7 
L 108.059693 87.7 
L 108.059693 87.63841 
L 107.448521 87.63841 
z
" style="fill:#1d1d1d;"/>
   </g>
   <g id="patch_185">
    <path clip-path="url(#pc638ee68ba)" d="M 107.957831 87.7 
L 108.569003 87.7 
L 108.569003 87.638594 
L 107.957831 87.638594 
z
" style="fill:#1d1d1d;"/>
   </g>
   <g id="patch_186">
    <path clip-path="url(#pc638ee68ba)" d="M 108.467141 87.7 
L 109.078313 87.7 
L 109.078313 87.639968 
L 108.467141 87.639968 
z
" style="fill:#1d1d1d;"/>
   </g>
   <g id="patch_187">
    <path clip-path="url(#pc638ee68ba)" d="M 108.976451 87.7 
L 109.587623 87.7 
L 109.587623 87.640754 
L 108.976451 87.640754 
z
" style="fill:#1d1d1d;"/>
   </g>
   <g id="patch_188">
    <path clip-path="url(#pc638ee68ba)" d="M 109.485761 87.7 
L 110.096933 87.7 
L 110.096933 87.642684 
L 109.485761 87.642684 
z
" style="fill:#1d1d1d;"/>
   </g>
   <g id="patch_189">
    <path clip-path="url(#pc638ee68ba)" d="M 109.995071 87.7 
L 110.606243 87.7 
L 110.606243 87.643071 
L 109.995071 87.643071 
z
" style="fill:#1d1d1d;"/>
   </g>
   <g id="patch_190">
    <path clip-path="url(#pc638ee68ba)" d="M 110.504381 87.7 
L 111.115553 87.7 
L 111.115553 87.643145 
L 110.504381 87.643145 
z
" style="fill:#1d1d1d;"/>
   </g>
   <g id="patch_191">
    <path clip-path="url(#pc638ee68ba)" d="M 111.013691 87.7 
L 111.624863 87.7 
L 111.624863 87.643253 
L 111.013691 87.643253 
z
" style="fill:#1d1d1d;"/>
   </g>
   <g id="patch_192">
    <path clip-path="url(#pc638ee68ba)" d="M 111.523001 87.7 
L 112.134173 87.7 
L 112.134173 87.644027 
L 111.523001 87.644027 
z
" style="fill:#1d1d1d;"/>
   </g>
   <g id="patch_193">
    <path clip-path="url(#pc638ee68ba)" d="M 112.032311 87.7 
L 112.643483 87.7 
L 112.643483 87.644541 
L 112.032311 87.644541 
z
" style="fill:#1d1d1d;"/>
   </g>
   <g id="patch_194">
    <path clip-path="url(#pc638ee68ba)" d="M 112.541621 87.7 
L 113.152793 87.7 
L 113.152793 87.644618 
L 112.541621 87.644618 
z
" style="fill:#1d1d1d;"/>
   </g>
   <g id="patch_195">
    <path clip-path="url(#pc638ee68ba)" d="M 113.050931 87.7 
L 113.662103 87.7 
L 113.662103 87.645231 
L 113.050931 87.645231 
z
" style="fill:#1d1d1d;"/>
   </g>
   <g id="patch_196">
    <path clip-path="url(#pc638ee68ba)" d="M 113.560241 87.7 
L 114.171413 87.7 
L 114.171413 87.645376 
L 113.560241 87.645376 
z
" style="fill:#1d1d1d;"/>
   </g>
   <g id="patch_197">
    <path clip-path="url(#pc638ee68ba)" d="M 114.069551 87.7 
L 114.680723 87.7 
L 114.680723 87.646062 
L 114.069551 87.646062 
z
" style="fill:#1d1d1d;"/>
   </g>
   <g id="patch_198">
    <path clip-path="url(#pc638ee68ba)" d="M 114.578861 87.7 
L 115.190033 87.7 
L 115.190033 87.646988 
L 114.578861 87.646988 
z
" style="fill:#1d1d1d;"/>
   </g>
   <g id="patch_199">
    <path clip-path="url(#pc638ee68ba)" d="M 115.088171 87.7 
L 115.699343 87.7 
L 115.699343 87.648024 
L 115.088171 87.648024 
z
" style="fill:#1d1d1d;"/>
   </g>
   <g id="patch_200">
    <path clip-path="url(#pc638ee68ba)" d="M 115.597481 87.7 
L 116.208653 87.7 
L 116.208653 87.648264 
L 115.597481 87.648264 
z
" style="fill:#1d1d1d;"/>
   </g>
   <g id="patch_201">
    <path clip-path="url(#pc638ee68ba)" d="M 116.106791 87.7 
L 116.717963 87.7 
L 116.717963 87.64856 
L 116.106791 87.64856 
z
" style="fill:#1d1d1d;"/>
   </g>
   <g id="patch_202">
    <path clip-path="url(#pc638ee68ba)" d="M 116.616101 87.7 
L 117.227273 87.7 
L 117.227273 87.648991 
L 116.616101 87.648991 
z
" style="fill:#1d1d1d;"/>
   </g>
   <g id="matplotlib.axis_1"/>
   <g id="matplotlib.axis_2"/>
   <g id="patch_203">
    <path d="M 10.7 93.86 
L 10.7 10.7 
" style="fill:none;stroke:#000000;stroke-linecap:square;stroke-linejoin:miter;stroke-width:0.8;"/>
   </g>
   <g id="patch_204">
    <path d="M 122.3 93.86 
L 122.3 10.7 
" style="fill:none;stroke:#000000;stroke-linecap:square;stroke-linejoin:miter;stroke-width:0.8;"/>
   </g>
   <g id="patch_205">
    <path d="M 10.7 93.86 
L 122.3 93.86 
" style="fill:none;stroke:#000000;stroke-linecap:square;stroke-linejoin:miter;stroke-width:0.8;"/>
   </g>
   <g id="patch_206">
    <path d="M 10.7 10.7 
L 122.3 10.7 
" style="fill:none;stroke:#000000;stroke-linecap:square;stroke-linejoin:miter;stroke-width:0.8;"/>
   </g>
  </g>
 </g>
 <defs>
  <clipPath id="pc638ee68ba">
   <rect height="83.16" width="111.6" x="10.7" y="10.7"/>
  </clipPath>
 </defs>
</svg>
