<?xml version="1.0" encoding="utf-8" standalone="no"?>
<!DOCTYPE svg PUBLIC "-//W3C//DTD SVG 1.1//EN"
  "http://www.w3.org/Graphics/SVG/1.1/DTD/svg11.dtd">
<!-- Created with matplotlib (http://matplotlib.org/) -->
<svg height="104pt" version="1.1" viewBox="0 0 133 104" width="133pt" xmlns="http://www.w3.org/2000/svg" xmlns:xlink="http://www.w3.org/1999/xlink">
 <defs>
  <style type="text/css">
*{stroke-linecap:butt;stroke-linejoin:round;}
  </style>
 </defs>
 <g id="figure_1">
  <g id="patch_1">
   <path d="M 0 104.56 
L 133 104.56 
L 133 0 
L 0 0 
z
" style="fill:#ffffff;"/>
  </g>
  <g id="axes_1">
   <g id="patch_2">
    <path d="M 10.7 93.86 
L 122.3 93.86 
L 122.3 10.7 
L 10.7 10.7 
z
" style="fill:#ffffff;"/>
   </g>
   <g id="patch_3">
    <path clip-path="url(#p19d5823d44)" d="M 15.772727 87.400971 
L 16.383899 87.400971 
L 16.383899 87.086838 
L 15.772727 87.086838 
z
" style="fill:#1d1d1d;"/>
   </g>
   <g id="patch_4">
    <path clip-path="url(#p19d5823d44)" d="M 16.282037 87.400971 
L 16.893209 87.400971 
L 16.893209 87.082022 
L 16.282037 87.082022 
z
" style="fill:#1d1d1d;"/>
   </g>
   <g id="patch_5">
    <path clip-path="url(#p19d5823d44)" d="M 16.791347 87.400971 
L 17.402519 87.400971 
L 17.402519 87.081202 
L 16.791347 87.081202 
z
" style="fill:#1d1d1d;"/>
   </g>
   <g id="patch_6">
    <path clip-path="url(#p19d5823d44)" d="M 17.300657 87.400971 
L 17.911829 87.400971 
L 17.911829 87.077838 
L 17.300657 87.077838 
z
" style="fill:#1d1d1d;"/>
   </g>
   <g id="patch_7">
    <path clip-path="url(#p19d5823d44)" d="M 17.809967 87.400971 
L 18.421139 87.400971 
L 18.421139 87.077114 
L 17.809967 87.077114 
z
" style="fill:#1d1d1d;"/>
   </g>
   <g id="patch_8">
    <path clip-path="url(#p19d5823d44)" d="M 18.319277 87.400971 
L 18.930449 87.400971 
L 18.930449 87.076012 
L 18.319277 87.076012 
z
" style="fill:#1d1d1d;"/>
   </g>
   <g id="patch_9">
    <path clip-path="url(#p19d5823d44)" d="M 18.828587 87.400971 
L 19.439759 87.400971 
L 19.439759 87.067695 
L 18.828587 87.067695 
z
" style="fill:#1d1d1d;"/>
   </g>
   <g id="patch_10">
    <path clip-path="url(#p19d5823d44)" d="M 19.337897 87.400971 
L 19.949069 87.400971 
L 19.949069 87.066988 
L 19.337897 87.066988 
z
" style="fill:#1d1d1d;"/>
   </g>
   <g id="patch_11">
    <path clip-path="url(#p19d5823d44)" d="M 19.847207 87.400971 
L 20.458379 87.400971 
L 20.458379 87.065782 
L 19.847207 87.065782 
z
" style="fill:#1d1d1d;"/>
   </g>
   <g id="patch_12">
    <path clip-path="url(#p19d5823d44)" d="M 20.356517 87.400971 
L 20.967689 87.400971 
L 20.967689 87.065591 
L 20.356517 87.065591 
z
" style="fill:#1d1d1d;"/>
   </g>
   <g id="patch_13">
    <path clip-path="url(#p19d5823d44)" d="M 20.865827 87.400971 
L 21.476999 87.400971 
L 21.476999 87.064196 
L 20.865827 87.064196 
z
" style="fill:#1d1d1d;"/>
   </g>
   <g id="patch_14">
    <path clip-path="url(#p19d5823d44)" d="M 21.375137 87.400971 
L 21.986309 87.400971 
L 21.986309 87.059723 
L 21.375137 87.059723 
z
" style="fill:#1d1d1d;"/>
   </g>
   <g id="patch_15">
    <path clip-path="url(#p19d5823d44)" d="M 21.884447 87.400971 
L 22.495619 87.400971 
L 22.495619 87.056697 
L 21.884447 87.056697 
z
" style="fill:#1d1d1d;"/>
   </g>
   <g id="patch_16">
    <path clip-path="url(#p19d5823d44)" d="M 22.393757 87.400971 
L 23.004929 87.400971 
L 23.004929 87.056279 
L 22.393757 87.056279 
z
" style="fill:#1d1d1d;"/>
   </g>
   <g id="patch_17">
    <path clip-path="url(#p19d5823d44)" d="M 22.903067 87.400971 
L 23.514239 87.400971 
L 23.514239 87.0554 
L 22.903067 87.0554 
z
" style="fill:#1d1d1d;"/>
   </g>
   <g id="patch_18">
    <path clip-path="url(#p19d5823d44)" d="M 23.412377 87.400971 
L 24.023549 87.400971 
L 24.023549 87.054657 
L 23.412377 87.054657 
z
" style="fill:#1d1d1d;"/>
   </g>
   <g id="patch_19">
    <path clip-path="url(#p19d5823d44)" d="M 23.921687 87.400971 
L 24.532859 87.400971 
L 24.532859 87.049629 
L 23.921687 87.049629 
z
" style="fill:#1d1d1d;"/>
   </g>
   <g id="patch_20">
    <path clip-path="url(#p19d5823d44)" d="M 24.430997 87.400971 
L 25.042169 87.400971 
L 25.042169 87.049015 
L 24.430997 87.049015 
z
" style="fill:#1d1d1d;"/>
   </g>
   <g id="patch_21">
    <path clip-path="url(#p19d5823d44)" d="M 24.940307 87.400971 
L 25.551479 87.400971 
L 25.551479 87.045213 
L 24.940307 87.045213 
z
" style="fill:#1d1d1d;"/>
   </g>
   <g id="patch_22">
    <path clip-path="url(#p19d5823d44)" d="M 25.449617 87.400971 
L 26.060789 87.400971 
L 26.060789 87.043058 
L 25.449617 87.043058 
z
" style="fill:#1d1d1d;"/>
   </g>
   <g id="patch_23">
    <path clip-path="url(#p19d5823d44)" d="M 25.958927 87.400971 
L 26.570099 87.400971 
L 26.570099 87.039746 
L 25.958927 87.039746 
z
" style="fill:#1d1d1d;"/>
   </g>
   <g id="patch_24">
    <path clip-path="url(#p19d5823d44)" d="M 26.468237 87.400971 
L 27.079409 87.400971 
L 27.079409 87.039028 
L 26.468237 87.039028 
z
" style="fill:#1d1d1d;"/>
   </g>
   <g id="patch_25">
    <path clip-path="url(#p19d5823d44)" d="M 26.977547 87.400971 
L 27.588719 87.400971 
L 27.588719 87.038536 
L 26.977547 87.038536 
z
" style="fill:#1d1d1d;"/>
   </g>
   <g id="patch_26">
    <path clip-path="url(#p19d5823d44)" d="M 27.486857 87.400971 
L 28.098028 87.400971 
L 28.098028 87.036003 
L 27.486857 87.036003 
z
" style="fill:#1d1d1d;"/>
   </g>
   <g id="patch_27">
    <path clip-path="url(#p19d5823d44)" d="M 27.996166 87.400971 
L 28.607338 87.400971 
L 28.607338 87.035722 
L 27.996166 87.035722 
z
" style="fill:#1d1d1d;"/>
   </g>
   <g id="patch_28">
    <path clip-path="url(#p19d5823d44)" d="M 28.505476 87.400971 
L 29.116648 87.400971 
L 29.116648 87.034514 
L 28.505476 87.034514 
z
" style="fill:#1d1d1d;"/>
   </g>
   <g id="patch_29">
    <path clip-path="url(#p19d5823d44)" d="M 29.014786 87.400971 
L 29.625958 87.400971 
L 29.625958 87.028002 
L 29.014786 87.028002 
z
" style="fill:#1d1d1d;"/>
   </g>
   <g id="patch_30">
    <path clip-path="url(#p19d5823d44)" d="M 29.524096 87.400971 
L 30.135268 87.400971 
L 30.135268 87.022468 
L 29.524096 87.022468 
z
" style="fill:#1d1d1d;"/>
   </g>
   <g id="patch_31">
    <path clip-path="url(#p19d5823d44)" d="M 30.033406 87.400971 
L 30.644578 87.400971 
L 30.644578 87.018708 
L 30.033406 87.018708 
z
" style="fill:#1d1d1d;"/>
   </g>
   <g id="patch_32">
    <path clip-path="url(#p19d5823d44)" d="M 30.542716 87.400971 
L 31.153888 87.400971 
L 31.153888 87.018579 
L 30.542716 87.018579 
z
" style="fill:#1d1d1d;"/>
   </g>
   <g id="patch_33">
    <path clip-path="url(#p19d5823d44)" d="M 31.052026 87.400971 
L 31.663198 87.400971 
L 31.663198 87.015681 
L 31.052026 87.015681 
z
" style="fill:#1d1d1d;"/>
   </g>
   <g id="patch_34">
    <path clip-path="url(#p19d5823d44)" d="M 31.561336 87.400971 
L 32.172508 87.400971 
L 32.172508 87.015254 
L 31.561336 87.015254 
z
" style="fill:#1d1d1d;"/>
   </g>
   <g id="patch_35">
    <path clip-path="url(#p19d5823d44)" d="M 32.070646 87.400971 
L 32.681818 87.400971 
L 32.681818 87.012091 
L 32.070646 87.012091 
z
" style="fill:#1d1d1d;"/>
   </g>
   <g id="patch_36">
    <path clip-path="url(#p19d5823d44)" d="M 32.579956 87.400971 
L 33.191128 87.400971 
L 33.191128 87.010698 
L 32.579956 87.010698 
z
" style="fill:#1d1d1d;"/>
   </g>
   <g id="patch_37">
    <path clip-path="url(#p19d5823d44)" d="M 33.089266 87.400971 
L 33.700438 87.400971 
L 33.700438 87.008087 
L 33.089266 87.008087 
z
" style="fill:#1d1d1d;"/>
   </g>
   <g id="patch_38">
    <path clip-path="url(#p19d5823d44)" d="M 33.598576 87.400971 
L 34.209748 87.400971 
L 34.209748 87.006656 
L 33.598576 87.006656 
z
" style="fill:#1d1d1d;"/>
   </g>
   <g id="patch_39">
    <path clip-path="url(#p19d5823d44)" d="M 34.107886 87.400971 
L 34.719058 87.400971 
L 34.719058 87.004253 
L 34.107886 87.004253 
z
" style="fill:#1d1d1d;"/>
   </g>
   <g id="patch_40">
    <path clip-path="url(#p19d5823d44)" d="M 34.617196 87.400971 
L 35.228368 87.400971 
L 35.228368 87.002028 
L 34.617196 87.002028 
z
" style="fill:#1d1d1d;"/>
   </g>
   <g id="patch_41">
    <path clip-path="url(#p19d5823d44)" d="M 35.126506 87.400971 
L 35.737678 87.400971 
L 35.737678 87.001872 
L 35.126506 87.001872 
z
" style="fill:#1d1d1d;"/>
   </g>
   <g id="patch_42">
    <path clip-path="url(#p19d5823d44)" d="M 35.635816 87.400971 
L 36.246988 87.400971 
L 36.246988 86.988217 
L 35.635816 86.988217 
z
" style="fill:#1d1d1d;"/>
   </g>
   <g id="patch_43">
    <path clip-path="url(#p19d5823d44)" d="M 36.145126 87.400971 
L 36.756298 87.400971 
L 36.756298 86.972106 
L 36.145126 86.972106 
z
" style="fill:#1d1d1d;"/>
   </g>
   <g id="patch_44">
    <path clip-path="url(#p19d5823d44)" d="M 36.654436 87.400971 
L 37.265608 87.400971 
L 37.265608 86.965577 
L 36.654436 86.965577 
z
" style="fill:#1d1d1d;"/>
   </g>
   <g id="patch_45">
    <path clip-path="url(#p19d5823d44)" d="M 37.163746 87.400971 
L 37.774918 87.400971 
L 37.774918 86.963473 
L 37.163746 86.963473 
z
" style="fill:#1d1d1d;"/>
   </g>
   <g id="patch_46">
    <path clip-path="url(#p19d5823d44)" d="M 37.673056 87.400971 
L 38.284228 87.400971 
L 38.284228 86.963221 
L 37.673056 86.963221 
z
" style="fill:#1d1d1d;"/>
   </g>
   <g id="patch_47">
    <path clip-path="url(#p19d5823d44)" d="M 38.182366 87.400971 
L 38.793538 87.400971 
L 38.793538 86.960933 
L 38.182366 86.960933 
z
" style="fill:#1d1d1d;"/>
   </g>
   <g id="patch_48">
    <path clip-path="url(#p19d5823d44)" d="M 38.691676 87.400971 
L 39.302848 87.400971 
L 39.302848 86.953112 
L 38.691676 86.953112 
z
" style="fill:#1d1d1d;"/>
   </g>
   <g id="patch_49">
    <path clip-path="url(#p19d5823d44)" d="M 39.200986 87.400971 
L 39.812158 87.400971 
L 39.812158 86.948912 
L 39.200986 86.948912 
z
" style="fill:#1d1d1d;"/>
   </g>
   <g id="patch_50">
    <path clip-path="url(#p19d5823d44)" d="M 39.710296 87.400971 
L 40.321468 87.400971 
L 40.321468 86.94819 
L 39.710296 86.94819 
z
" style="fill:#1d1d1d;"/>
   </g>
   <g id="patch_51">
    <path clip-path="url(#p19d5823d44)" d="M 40.219606 87.400971 
L 40.830778 87.400971 
L 40.830778 86.947155 
L 40.219606 86.947155 
z
" style="fill:#1d1d1d;"/>
   </g>
   <g id="patch_52">
    <path clip-path="url(#p19d5823d44)" d="M 40.728916 87.400971 
L 41.340088 87.400971 
L 41.340088 86.936933 
L 40.728916 86.936933 
z
" style="fill:#1d1d1d;"/>
   </g>
   <g id="patch_53">
    <path clip-path="url(#p19d5823d44)" d="M 41.238226 87.400971 
L 41.849398 87.400971 
L 41.849398 86.935323 
L 41.238226 86.935323 
z
" style="fill:#1d1d1d;"/>
   </g>
   <g id="patch_54">
    <path clip-path="url(#p19d5823d44)" d="M 41.747536 87.400971 
L 42.358708 87.400971 
L 42.358708 86.934975 
L 41.747536 86.934975 
z
" style="fill:#1d1d1d;"/>
   </g>
   <g id="patch_55">
    <path clip-path="url(#p19d5823d44)" d="M 42.256846 87.400971 
L 42.868018 87.400971 
L 42.868018 86.931307 
L 42.256846 86.931307 
z
" style="fill:#1d1d1d;"/>
   </g>
   <g id="patch_56">
    <path clip-path="url(#p19d5823d44)" d="M 42.766156 87.400971 
L 43.377327 87.400971 
L 43.377327 86.91393 
L 42.766156 86.91393 
z
" style="fill:#1d1d1d;"/>
   </g>
   <g id="patch_57">
    <path clip-path="url(#p19d5823d44)" d="M 43.275465 87.400971 
L 43.886637 87.400971 
L 43.886637 86.909605 
L 43.275465 86.909605 
z
" style="fill:#1d1d1d;"/>
   </g>
   <g id="patch_58">
    <path clip-path="url(#p19d5823d44)" d="M 43.784775 87.400971 
L 44.395947 87.400971 
L 44.395947 86.90857 
L 43.784775 86.90857 
z
" style="fill:#1d1d1d;"/>
   </g>
   <g id="patch_59">
    <path clip-path="url(#p19d5823d44)" d="M 44.294085 87.400971 
L 44.905257 87.400971 
L 44.905257 86.890973 
L 44.294085 86.890973 
z
" style="fill:#1d1d1d;"/>
   </g>
   <g id="patch_60">
    <path clip-path="url(#p19d5823d44)" d="M 44.803395 87.400971 
L 45.414567 87.400971 
L 45.414567 86.858471 
L 44.803395 86.858471 
z
" style="fill:#1d1d1d;"/>
   </g>
   <g id="patch_61">
    <path clip-path="url(#p19d5823d44)" d="M 45.312705 87.400971 
L 45.923877 87.400971 
L 45.923877 86.841459 
L 45.312705 86.841459 
z
" style="fill:#1d1d1d;"/>
   </g>
   <g id="patch_62">
    <path clip-path="url(#p19d5823d44)" d="M 45.822015 87.400971 
L 46.433187 87.400971 
L 46.433187 86.834299 
L 45.822015 86.834299 
z
" style="fill:#1d1d1d;"/>
   </g>
   <g id="patch_63">
    <path clip-path="url(#p19d5823d44)" d="M 46.331325 87.400971 
L 46.942497 87.400971 
L 46.942497 86.813736 
L 46.331325 86.813736 
z
" style="fill:#1d1d1d;"/>
   </g>
   <g id="patch_64">
    <path clip-path="url(#p19d5823d44)" d="M 46.840635 87.400971 
L 47.451807 87.400971 
L 47.451807 86.804869 
L 46.840635 86.804869 
z
" style="fill:#1d1d1d;"/>
   </g>
   <g id="patch_65">
    <path clip-path="url(#p19d5823d44)" d="M 47.349945 87.400971 
L 47.961117 87.400971 
L 47.961117 86.799169 
L 47.349945 86.799169 
z
" style="fill:#1d1d1d;"/>
   </g>
   <g id="patch_66">
    <path clip-path="url(#p19d5823d44)" d="M 47.859255 87.400971 
L 48.470427 87.400971 
L 48.470427 86.788222 
L 47.859255 86.788222 
z
" style="fill:#1d1d1d;"/>
   </g>
   <g id="patch_67">
    <path clip-path="url(#p19d5823d44)" d="M 48.368565 87.400971 
L 48.979737 87.400971 
L 48.979737 86.776158 
L 48.368565 86.776158 
z
" style="fill:#1d1d1d;"/>
   </g>
   <g id="patch_68">
    <path clip-path="url(#p19d5823d44)" d="M 48.877875 87.400971 
L 49.489047 87.400971 
L 49.489047 86.755964 
L 48.877875 86.755964 
z
" style="fill:#1d1d1d;"/>
   </g>
   <g id="patch_69">
    <path clip-path="url(#p19d5823d44)" d="M 49.387185 87.400971 
L 49.998357 87.400971 
L 49.998357 86.73813 
L 49.387185 86.73813 
z
" style="fill:#1d1d1d;"/>
   </g>
   <g id="patch_70">
    <path clip-path="url(#p19d5823d44)" d="M 49.896495 87.400971 
L 50.507667 87.400971 
L 50.507667 86.698544 
L 49.896495 86.698544 
z
" style="fill:#1d1d1d;"/>
   </g>
   <g id="patch_71">
    <path clip-path="url(#p19d5823d44)" d="M 50.405805 87.400971 
L 51.016977 87.400971 
L 51.016977 86.656997 
L 50.405805 86.656997 
z
" style="fill:#1d1d1d;"/>
   </g>
   <g id="patch_72">
    <path clip-path="url(#p19d5823d44)" d="M 50.915115 87.400971 
L 51.526287 87.400971 
L 51.526287 86.641247 
L 50.915115 86.641247 
z
" style="fill:#1d1d1d;"/>
   </g>
   <g id="patch_73">
    <path clip-path="url(#p19d5823d44)" d="M 51.424425 87.400971 
L 52.035597 87.400971 
L 52.035597 86.639978 
L 51.424425 86.639978 
z
" style="fill:#1d1d1d;"/>
   </g>
   <g id="patch_74">
    <path clip-path="url(#p19d5823d44)" d="M 51.933735 87.400971 
L 52.544907 87.400971 
L 52.544907 86.588856 
L 51.933735 86.588856 
z
" style="fill:#1d1d1d;"/>
   </g>
   <g id="patch_75">
    <path clip-path="url(#p19d5823d44)" d="M 52.443045 87.400971 
L 53.054217 87.400971 
L 53.054217 86.585408 
L 52.443045 86.585408 
z
" style="fill:#1d1d1d;"/>
   </g>
   <g id="patch_76">
    <path clip-path="url(#p19d5823d44)" d="M 52.952355 87.400971 
L 53.563527 87.400971 
L 53.563527 86.576803 
L 52.952355 86.576803 
z
" style="fill:#1d1d1d;"/>
   </g>
   <g id="patch_77">
    <path clip-path="url(#p19d5823d44)" d="M 53.461665 87.400971 
L 54.072837 87.400971 
L 54.072837 86.570821 
L 53.461665 86.570821 
z
" style="fill:#1d1d1d;"/>
   </g>
   <g id="patch_78">
    <path clip-path="url(#p19d5823d44)" d="M 53.970975 87.400971 
L 54.582147 87.400971 
L 54.582147 86.562439 
L 53.970975 86.562439 
z
" style="fill:#1d1d1d;"/>
   </g>
   <g id="patch_79">
    <path clip-path="url(#p19d5823d44)" d="M 54.480285 87.400971 
L 55.091457 87.400971 
L 55.091457 86.540107 
L 54.480285 86.540107 
z
" style="fill:#1d1d1d;"/>
   </g>
   <g id="patch_80">
    <path clip-path="url(#p19d5823d44)" d="M 54.989595 87.400971 
L 55.600767 87.400971 
L 55.600767 86.439065 
L 54.989595 86.439065 
z
" style="fill:#1d1d1d;"/>
   </g>
   <g id="patch_81">
    <path clip-path="url(#p19d5823d44)" d="M 55.498905 87.400971 
L 56.110077 87.400971 
L 56.110077 86.421886 
L 55.498905 86.421886 
z
" style="fill:#1d1d1d;"/>
   </g>
   <g id="patch_82">
    <path clip-path="url(#p19d5823d44)" d="M 56.008215 87.400971 
L 56.619387 87.400971 
L 56.619387 86.301312 
L 56.008215 86.301312 
z
" style="fill:#1d1d1d;"/>
   </g>
   <g id="patch_83">
    <path clip-path="url(#p19d5823d44)" d="M 56.517525 87.400971 
L 57.128697 87.400971 
L 57.128697 86.188869 
L 56.517525 86.188869 
z
" style="fill:#1d1d1d;"/>
   </g>
   <g id="patch_84">
    <path clip-path="url(#p19d5823d44)" d="M 57.026835 87.400971 
L 57.638007 87.400971 
L 57.638007 86.101017 
L 57.026835 86.101017 
z
" style="fill:#1d1d1d;"/>
   </g>
   <g id="patch_85">
    <path clip-path="url(#p19d5823d44)" d="M 57.536145 87.400971 
L 58.147317 87.400971 
L 58.147317 86.095102 
L 57.536145 86.095102 
z
" style="fill:#1d1d1d;"/>
   </g>
   <g id="patch_86">
    <path clip-path="url(#p19d5823d44)" d="M 58.045455 87.400971 
L 58.656627 87.400971 
L 58.656627 85.816247 
L 58.045455 85.816247 
z
" style="fill:#1d1d1d;"/>
   </g>
   <g id="patch_87">
    <path clip-path="url(#p19d5823d44)" d="M 58.554765 87.400971 
L 59.165936 87.400971 
L 59.165936 85.422004 
L 58.554765 85.422004 
z
" style="fill:#1d1d1d;"/>
   </g>
   <g id="patch_88">
    <path clip-path="url(#p19d5823d44)" d="M 59.064074 87.400971 
L 59.675246 87.400971 
L 59.675246 85.382325 
L 59.064074 85.382325 
z
" style="fill:#1d1d1d;"/>
   </g>
   <g id="patch_89">
    <path clip-path="url(#p19d5823d44)" d="M 59.573384 87.400971 
L 60.184556 87.400971 
L 60.184556 84.593667 
L 59.573384 84.593667 
z
" style="fill:#1d1d1d;"/>
   </g>
   <g id="patch_90">
    <path clip-path="url(#p19d5823d44)" d="M 60.082694 87.400971 
L 60.693866 87.400971 
L 60.693866 84.244659 
L 60.082694 84.244659 
z
" style="fill:#1d1d1d;"/>
   </g>
   <g id="patch_91">
    <path clip-path="url(#p19d5823d44)" d="M 60.592004 87.400971 
L 61.203176 87.400971 
L 61.203176 84.198485 
L 60.592004 84.198485 
z
" style="fill:#1d1d1d;"/>
   </g>
   <g id="patch_92">
    <path clip-path="url(#p19d5823d44)" d="M 61.101314 87.400971 
L 61.712486 87.400971 
L 61.712486 84.118739 
L 61.101314 84.118739 
z
" style="fill:#1d1d1d;"/>
   </g>
   <g id="patch_93">
    <path clip-path="url(#p19d5823d44)" d="M 61.610624 87.400971 
L 62.221796 87.400971 
L 62.221796 83.549718 
L 61.610624 83.549718 
z
" style="fill:#1d1d1d;"/>
   </g>
   <g id="patch_94">
    <path clip-path="url(#p19d5823d44)" d="M 62.119934 87.400971 
L 62.731106 87.400971 
L 62.731106 83.450542 
L 62.119934 83.450542 
z
" style="fill:#1d1d1d;"/>
   </g>
   <g id="patch_95">
    <path clip-path="url(#p19d5823d44)" d="M 62.629244 87.400971 
L 63.240416 87.400971 
L 63.240416 82.298403 
L 62.629244 82.298403 
z
" style="fill:#1d1d1d;"/>
   </g>
   <g id="patch_96">
    <path clip-path="url(#p19d5823d44)" d="M 63.138554 87.400971 
L 63.749726 87.400971 
L 63.749726 82.183776 
L 63.138554 82.183776 
z
" style="fill:#1d1d1d;"/>
   </g>
   <g id="patch_97">
    <path clip-path="url(#p19d5823d44)" d="M 63.647864 87.400971 
L 64.259036 87.400971 
L 64.259036 78.268189 
L 63.647864 78.268189 
z
" style="fill:#1d1d1d;"/>
   </g>
   <g id="patch_98">
    <path clip-path="url(#p19d5823d44)" d="M 64.157174 87.400971 
L 64.768346 87.400971 
L 64.768346 77.849002 
L 64.157174 77.849002 
z
" style="fill:#1d1d1d;"/>
   </g>
   <g id="patch_99">
    <path clip-path="url(#p19d5823d44)" d="M 64.666484 87.400971 
L 65.277656 87.400971 
L 65.277656 77.331285 
L 64.666484 77.331285 
z
" style="fill:#1d1d1d;"/>
   </g>
   <g id="patch_100">
    <path clip-path="url(#p19d5823d44)" d="M 65.175794 87.400971 
L 65.786966 87.400971 
L 65.786966 76.921926 
L 65.175794 76.921926 
z
" style="fill:#1d1d1d;"/>
   </g>
   <g id="patch_101">
    <path clip-path="url(#p19d5823d44)" d="M 65.685104 87.400971 
L 66.296276 87.400971 
L 66.296276 71.875012 
L 65.685104 71.875012 
z
" style="fill:#1d1d1d;"/>
   </g>
   <g id="patch_102">
    <path clip-path="url(#p19d5823d44)" d="M 66.194414 87.400971 
L 66.805586 87.400971 
L 66.805586 30.972569 
L 66.194414 30.972569 
z
" style="fill:#1d1d1d;"/>
   </g>
   <g id="patch_103">
    <path clip-path="url(#p19d5823d44)" d="M 66.194414 87.400971 
L 66.805586 87.400971 
L 66.805586 30.972569 
L 66.194414 30.972569 
z
" style="fill:#1d1d1d;"/>
   </g>
   <g id="patch_104">
    <path clip-path="url(#p19d5823d44)" d="M 66.703724 87.400971 
L 67.314896 87.400971 
L 67.314896 77.339963 
L 66.703724 77.339963 
z
" style="fill:#1d1d1d;"/>
   </g>
   <g id="patch_105">
    <path clip-path="url(#p19d5823d44)" d="M 67.213034 87.400971 
L 67.824206 87.400971 
L 67.824206 79.466937 
L 67.213034 79.466937 
z
" style="fill:#1d1d1d;"/>
   </g>
   <g id="patch_106">
    <path clip-path="url(#p19d5823d44)" d="M 67.722344 87.400971 
L 68.333516 87.400971 
L 68.333516 79.948947 
L 67.722344 79.948947 
z
" style="fill:#1d1d1d;"/>
   </g>
   <g id="patch_107">
    <path clip-path="url(#p19d5823d44)" d="M 68.231654 87.400971 
L 68.842826 87.400971 
L 68.842826 82.633229 
L 68.231654 82.633229 
z
" style="fill:#1d1d1d;"/>
   </g>
   <g id="patch_108">
    <path clip-path="url(#p19d5823d44)" d="M 68.740964 87.400971 
L 69.352136 87.400971 
L 69.352136 82.807127 
L 68.740964 82.807127 
z
" style="fill:#1d1d1d;"/>
   </g>
   <g id="patch_109">
    <path clip-path="url(#p19d5823d44)" d="M 69.250274 87.400971 
L 69.861446 87.400971 
L 69.861446 83.300855 
L 69.250274 83.300855 
z
" style="fill:#1d1d1d;"/>
   </g>
   <g id="patch_110">
    <path clip-path="url(#p19d5823d44)" d="M 69.759584 87.400971 
L 70.370756 87.400971 
L 70.370756 83.455828 
L 69.759584 83.455828 
z
" style="fill:#1d1d1d;"/>
   </g>
   <g id="patch_111">
    <path clip-path="url(#p19d5823d44)" d="M 70.268894 87.400971 
L 70.880066 87.400971 
L 70.880066 84.644849 
L 70.268894 84.644849 
z
" style="fill:#1d1d1d;"/>
   </g>
   <g id="patch_112">
    <path clip-path="url(#p19d5823d44)" d="M 70.778204 87.400971 
L 71.389376 87.400971 
L 71.389376 85.098848 
L 70.778204 85.098848 
z
" style="fill:#1d1d1d;"/>
   </g>
   <g id="patch_113">
    <path clip-path="url(#p19d5823d44)" d="M 71.287514 87.400971 
L 71.898686 87.400971 
L 71.898686 85.123633 
L 71.287514 85.123633 
z
" style="fill:#1d1d1d;"/>
   </g>
   <g id="patch_114">
    <path clip-path="url(#p19d5823d44)" d="M 71.796824 87.400971 
L 72.407996 87.400971 
L 72.407996 85.385366 
L 71.796824 85.385366 
z
" style="fill:#1d1d1d;"/>
   </g>
   <g id="patch_115">
    <path clip-path="url(#p19d5823d44)" d="M 72.306134 87.400971 
L 72.917306 87.400971 
L 72.917306 85.435086 
L 72.306134 85.435086 
z
" style="fill:#1d1d1d;"/>
   </g>
   <g id="patch_116">
    <path clip-path="url(#p19d5823d44)" d="M 72.815444 87.400971 
L 73.426616 87.400971 
L 73.426616 85.452237 
L 72.815444 85.452237 
z
" style="fill:#1d1d1d;"/>
   </g>
   <g id="patch_117">
    <path clip-path="url(#p19d5823d44)" d="M 73.324754 87.400971 
L 73.935926 87.400971 
L 73.935926 85.863847 
L 73.324754 85.863847 
z
" style="fill:#1d1d1d;"/>
   </g>
   <g id="patch_118">
    <path clip-path="url(#p19d5823d44)" d="M 73.834064 87.400971 
L 74.445235 87.400971 
L 74.445235 85.973826 
L 73.834064 85.973826 
z
" style="fill:#1d1d1d;"/>
   </g>
   <g id="patch_119">
    <path clip-path="url(#p19d5823d44)" d="M 74.343373 87.400971 
L 74.954545 87.400971 
L 74.954545 86.029142 
L 74.343373 86.029142 
z
" style="fill:#1d1d1d;"/>
   </g>
   <g id="patch_120">
    <path clip-path="url(#p19d5823d44)" d="M 74.852683 87.400971 
L 75.463855 87.400971 
L 75.463855 86.117421 
L 74.852683 86.117421 
z
" style="fill:#1d1d1d;"/>
   </g>
   <g id="patch_121">
    <path clip-path="url(#p19d5823d44)" d="M 75.361993 87.400971 
L 75.973165 87.400971 
L 75.973165 86.148286 
L 75.361993 86.148286 
z
" style="fill:#1d1d1d;"/>
   </g>
   <g id="patch_122">
    <path clip-path="url(#p19d5823d44)" d="M 75.871303 87.400971 
L 76.482475 87.400971 
L 76.482475 86.151531 
L 75.871303 86.151531 
z
" style="fill:#1d1d1d;"/>
   </g>
   <g id="patch_123">
    <path clip-path="url(#p19d5823d44)" d="M 76.380613 87.400971 
L 76.991785 87.400971 
L 76.991785 86.17363 
L 76.380613 86.17363 
z
" style="fill:#1d1d1d;"/>
   </g>
   <g id="patch_124">
    <path clip-path="url(#p19d5823d44)" d="M 76.889923 87.400971 
L 77.501095 87.400971 
L 77.501095 86.245131 
L 76.889923 86.245131 
z
" style="fill:#1d1d1d;"/>
   </g>
   <g id="patch_125">
    <path clip-path="url(#p19d5823d44)" d="M 77.399233 87.400971 
L 78.010405 87.400971 
L 78.010405 86.321455 
L 77.399233 86.321455 
z
" style="fill:#1d1d1d;"/>
   </g>
   <g id="patch_126">
    <path clip-path="url(#p19d5823d44)" d="M 77.908543 87.400971 
L 78.519715 87.400971 
L 78.519715 86.352179 
L 77.908543 86.352179 
z
" style="fill:#1d1d1d;"/>
   </g>
   <g id="patch_127">
    <path clip-path="url(#p19d5823d44)" d="M 78.417853 87.400971 
L 79.029025 87.400971 
L 79.029025 86.38424 
L 78.417853 86.38424 
z
" style="fill:#1d1d1d;"/>
   </g>
   <g id="patch_128">
    <path clip-path="url(#p19d5823d44)" d="M 78.927163 87.400971 
L 79.538335 87.400971 
L 79.538335 86.446464 
L 78.927163 86.446464 
z
" style="fill:#1d1d1d;"/>
   </g>
   <g id="patch_129">
    <path clip-path="url(#p19d5823d44)" d="M 79.436473 87.400971 
L 80.047645 87.400971 
L 80.047645 86.501998 
L 79.436473 86.501998 
z
" style="fill:#1d1d1d;"/>
   </g>
   <g id="patch_130">
    <path clip-path="url(#p19d5823d44)" d="M 79.945783 87.400971 
L 80.556955 87.400971 
L 80.556955 86.549137 
L 79.945783 86.549137 
z
" style="fill:#1d1d1d;"/>
   </g>
   <g id="patch_131">
    <path clip-path="url(#p19d5823d44)" d="M 80.455093 87.400971 
L 81.066265 87.400971 
L 81.066265 86.565388 
L 80.455093 86.565388 
z
" style="fill:#1d1d1d;"/>
   </g>
   <g id="patch_132">
    <path clip-path="url(#p19d5823d44)" d="M 80.964403 87.400971 
L 81.575575 87.400971 
L 81.575575 86.569372 
L 80.964403 86.569372 
z
" style="fill:#1d1d1d;"/>
   </g>
   <g id="patch_133">
    <path clip-path="url(#p19d5823d44)" d="M 81.473713 87.400971 
L 82.084885 87.400971 
L 82.084885 86.579247 
L 81.473713 86.579247 
z
" style="fill:#1d1d1d;"/>
   </g>
   <g id="patch_134">
    <path clip-path="url(#p19d5823d44)" d="M 81.983023 87.400971 
L 82.594195 87.400971 
L 82.594195 86.630006 
L 81.983023 86.630006 
z
" style="fill:#1d1d1d;"/>
   </g>
   <g id="patch_135">
    <path clip-path="url(#p19d5823d44)" d="M 82.492333 87.400971 
L 83.103505 87.400971 
L 83.103505 86.67303 
L 82.492333 86.67303 
z
" style="fill:#1d1d1d;"/>
   </g>
   <g id="patch_136">
    <path clip-path="url(#p19d5823d44)" d="M 83.001643 87.400971 
L 83.612815 87.400971 
L 83.612815 86.674096 
L 83.001643 86.674096 
z
" style="fill:#1d1d1d;"/>
   </g>
   <g id="patch_137">
    <path clip-path="url(#p19d5823d44)" d="M 83.510953 87.400971 
L 84.122125 87.400971 
L 84.122125 86.684866 
L 83.510953 86.684866 
z
" style="fill:#1d1d1d;"/>
   </g>
   <g id="patch_138">
    <path clip-path="url(#p19d5823d44)" d="M 84.020263 87.400971 
L 84.631435 87.400971 
L 84.631435 86.71256 
L 84.020263 86.71256 
z
" style="fill:#1d1d1d;"/>
   </g>
   <g id="patch_139">
    <path clip-path="url(#p19d5823d44)" d="M 84.529573 87.400971 
L 85.140745 87.400971 
L 85.140745 86.721547 
L 84.529573 86.721547 
z
" style="fill:#1d1d1d;"/>
   </g>
   <g id="patch_140">
    <path clip-path="url(#p19d5823d44)" d="M 85.038883 87.400971 
L 85.650055 87.400971 
L 85.650055 86.726625 
L 85.038883 86.726625 
z
" style="fill:#1d1d1d;"/>
   </g>
   <g id="patch_141">
    <path clip-path="url(#p19d5823d44)" d="M 85.548193 87.400971 
L 86.159365 87.400971 
L 86.159365 86.78159 
L 85.548193 86.78159 
z
" style="fill:#1d1d1d;"/>
   </g>
   <g id="patch_142">
    <path clip-path="url(#p19d5823d44)" d="M 86.057503 87.400971 
L 86.668675 87.400971 
L 86.668675 86.800654 
L 86.057503 86.800654 
z
" style="fill:#1d1d1d;"/>
   </g>
   <g id="patch_143">
    <path clip-path="url(#p19d5823d44)" d="M 86.566813 87.400971 
L 87.177985 87.400971 
L 87.177985 86.8083 
L 86.566813 86.8083 
z
" style="fill:#1d1d1d;"/>
   </g>
   <g id="patch_144">
    <path clip-path="url(#p19d5823d44)" d="M 87.076123 87.400971 
L 87.687295 87.400971 
L 87.687295 86.870997 
L 87.076123 86.870997 
z
" style="fill:#1d1d1d;"/>
   </g>
   <g id="patch_145">
    <path clip-path="url(#p19d5823d44)" d="M 87.585433 87.400971 
L 88.196605 87.400971 
L 88.196605 86.882184 
L 87.585433 86.882184 
z
" style="fill:#1d1d1d;"/>
   </g>
   <g id="patch_146">
    <path clip-path="url(#p19d5823d44)" d="M 88.094743 87.400971 
L 88.705915 87.400971 
L 88.705915 86.908732 
L 88.094743 86.908732 
z
" style="fill:#1d1d1d;"/>
   </g>
   <g id="patch_147">
    <path clip-path="url(#p19d5823d44)" d="M 88.604053 87.400971 
L 89.215225 87.400971 
L 89.215225 86.908916 
L 88.604053 86.908916 
z
" style="fill:#1d1d1d;"/>
   </g>
   <g id="patch_148">
    <path clip-path="url(#p19d5823d44)" d="M 89.113363 87.400971 
L 89.724535 87.400971 
L 89.724535 86.912711 
L 89.113363 86.912711 
z
" style="fill:#1d1d1d;"/>
   </g>
   <g id="patch_149">
    <path clip-path="url(#p19d5823d44)" d="M 89.622673 87.400971 
L 90.233844 87.400971 
L 90.233844 86.915101 
L 89.622673 86.915101 
z
" style="fill:#1d1d1d;"/>
   </g>
   <g id="patch_150">
    <path clip-path="url(#p19d5823d44)" d="M 90.131982 87.400971 
L 90.743154 87.400971 
L 90.743154 86.926039 
L 90.131982 86.926039 
z
" style="fill:#1d1d1d;"/>
   </g>
   <g id="patch_151">
    <path clip-path="url(#p19d5823d44)" d="M 90.641292 87.400971 
L 91.252464 87.400971 
L 91.252464 86.931965 
L 90.641292 86.931965 
z
" style="fill:#1d1d1d;"/>
   </g>
   <g id="patch_152">
    <path clip-path="url(#p19d5823d44)" d="M 91.150602 87.400971 
L 91.761774 87.400971 
L 91.761774 86.934444 
L 91.150602 86.934444 
z
" style="fill:#1d1d1d;"/>
   </g>
   <g id="patch_153">
    <path clip-path="url(#p19d5823d44)" d="M 91.659912 87.400971 
L 92.271084 87.400971 
L 92.271084 86.93726 
L 91.659912 86.93726 
z
" style="fill:#1d1d1d;"/>
   </g>
   <g id="patch_154">
    <path clip-path="url(#p19d5823d44)" d="M 92.169222 87.400971 
L 92.780394 87.400971 
L 92.780394 86.937785 
L 92.169222 86.937785 
z
" style="fill:#1d1d1d;"/>
   </g>
   <g id="patch_155">
    <path clip-path="url(#p19d5823d44)" d="M 92.678532 87.400971 
L 93.289704 87.400971 
L 93.289704 86.941302 
L 92.678532 86.941302 
z
" style="fill:#1d1d1d;"/>
   </g>
   <g id="patch_156">
    <path clip-path="url(#p19d5823d44)" d="M 93.187842 87.400971 
L 93.799014 87.400971 
L 93.799014 86.950294 
L 93.187842 86.950294 
z
" style="fill:#1d1d1d;"/>
   </g>
   <g id="patch_157">
    <path clip-path="url(#p19d5823d44)" d="M 93.697152 87.400971 
L 94.308324 87.400971 
L 94.308324 86.951804 
L 93.697152 86.951804 
z
" style="fill:#1d1d1d;"/>
   </g>
   <g id="patch_158">
    <path clip-path="url(#p19d5823d44)" d="M 94.206462 87.400971 
L 94.817634 87.400971 
L 94.817634 86.961928 
L 94.206462 86.961928 
z
" style="fill:#1d1d1d;"/>
   </g>
   <g id="patch_159">
    <path clip-path="url(#p19d5823d44)" d="M 94.715772 87.400971 
L 95.326944 87.400971 
L 95.326944 86.96948 
L 94.715772 86.96948 
z
" style="fill:#1d1d1d;"/>
   </g>
   <g id="patch_160">
    <path clip-path="url(#p19d5823d44)" d="M 95.225082 87.400971 
L 95.836254 87.400971 
L 95.836254 86.971276 
L 95.225082 86.971276 
z
" style="fill:#1d1d1d;"/>
   </g>
   <g id="patch_161">
    <path clip-path="url(#p19d5823d44)" d="M 95.734392 87.400971 
L 96.345564 87.400971 
L 96.345564 86.975329 
L 95.734392 86.975329 
z
" style="fill:#1d1d1d;"/>
   </g>
   <g id="patch_162">
    <path clip-path="url(#p19d5823d44)" d="M 96.243702 87.400971 
L 96.854874 87.400971 
L 96.854874 86.975829 
L 96.243702 86.975829 
z
" style="fill:#1d1d1d;"/>
   </g>
   <g id="patch_163">
    <path clip-path="url(#p19d5823d44)" d="M 96.753012 87.400971 
L 97.364184 87.400971 
L 97.364184 86.977071 
L 96.753012 86.977071 
z
" style="fill:#1d1d1d;"/>
   </g>
   <g id="patch_164">
    <path clip-path="url(#p19d5823d44)" d="M 97.262322 87.400971 
L 97.873494 87.400971 
L 97.873494 86.979458 
L 97.262322 86.979458 
z
" style="fill:#1d1d1d;"/>
   </g>
   <g id="patch_165">
    <path clip-path="url(#p19d5823d44)" d="M 97.771632 87.400971 
L 98.382804 87.400971 
L 98.382804 86.979841 
L 97.771632 86.979841 
z
" style="fill:#1d1d1d;"/>
   </g>
   <g id="patch_166">
    <path clip-path="url(#p19d5823d44)" d="M 98.280942 87.400971 
L 98.892114 87.400971 
L 98.892114 86.989114 
L 98.280942 86.989114 
z
" style="fill:#1d1d1d;"/>
   </g>
   <g id="patch_167">
    <path clip-path="url(#p19d5823d44)" d="M 98.790252 87.400971 
L 99.401424 87.400971 
L 99.401424 86.991723 
L 98.790252 86.991723 
z
" style="fill:#1d1d1d;"/>
   </g>
   <g id="patch_168">
    <path clip-path="url(#p19d5823d44)" d="M 99.299562 87.400971 
L 99.910734 87.400971 
L 99.910734 86.995046 
L 99.299562 86.995046 
z
" style="fill:#1d1d1d;"/>
   </g>
   <g id="patch_169">
    <path clip-path="url(#p19d5823d44)" d="M 99.808872 87.400971 
L 100.420044 87.400971 
L 100.420044 86.996196 
L 99.808872 86.996196 
z
" style="fill:#1d1d1d;"/>
   </g>
   <g id="patch_170">
    <path clip-path="url(#p19d5823d44)" d="M 100.318182 87.400971 
L 100.929354 87.400971 
L 100.929354 87.005676 
L 100.318182 87.005676 
z
" style="fill:#1d1d1d;"/>
   </g>
   <g id="patch_171">
    <path clip-path="url(#p19d5823d44)" d="M 100.827492 87.400971 
L 101.438664 87.400971 
L 101.438664 87.007106 
L 100.827492 87.007106 
z
" style="fill:#1d1d1d;"/>
   </g>
   <g id="patch_172">
    <path clip-path="url(#p19d5823d44)" d="M 101.336802 87.400971 
L 101.947974 87.400971 
L 101.947974 87.007151 
L 101.336802 87.007151 
z
" style="fill:#1d1d1d;"/>
   </g>
   <g id="patch_173">
    <path clip-path="url(#p19d5823d44)" d="M 101.846112 87.400971 
L 102.457284 87.400971 
L 102.457284 87.009518 
L 101.846112 87.009518 
z
" style="fill:#1d1d1d;"/>
   </g>
   <g id="patch_174">
    <path clip-path="url(#p19d5823d44)" d="M 102.355422 87.400971 
L 102.966594 87.400971 
L 102.966594 87.012371 
L 102.355422 87.012371 
z
" style="fill:#1d1d1d;"/>
   </g>
   <g id="patch_175">
    <path clip-path="url(#p19d5823d44)" d="M 102.864732 87.400971 
L 103.475904 87.400971 
L 103.475904 87.020739 
L 102.864732 87.020739 
z
" style="fill:#1d1d1d;"/>
   </g>
   <g id="patch_176">
    <path clip-path="url(#p19d5823d44)" d="M 103.374042 87.400971 
L 103.985214 87.400971 
L 103.985214 87.02631 
L 103.374042 87.02631 
z
" style="fill:#1d1d1d;"/>
   </g>
   <g id="patch_177">
    <path clip-path="url(#p19d5823d44)" d="M 103.883352 87.400971 
L 104.494524 87.400971 
L 104.494524 87.029099 
L 103.883352 87.029099 
z
" style="fill:#1d1d1d;"/>
   </g>
   <g id="patch_178">
    <path clip-path="url(#p19d5823d44)" d="M 104.392662 87.400971 
L 105.003834 87.400971 
L 105.003834 87.030515 
L 104.392662 87.030515 
z
" style="fill:#1d1d1d;"/>
   </g>
   <g id="patch_179">
    <path clip-path="url(#p19d5823d44)" d="M 104.901972 87.400971 
L 105.513143 87.400971 
L 105.513143 87.030906 
L 104.901972 87.030906 
z
" style="fill:#1d1d1d;"/>
   </g>
   <g id="patch_180">
    <path clip-path="url(#p19d5823d44)" d="M 105.411281 87.400971 
L 106.022453 87.400971 
L 106.022453 87.032651 
L 105.411281 87.032651 
z
" style="fill:#1d1d1d;"/>
   </g>
   <g id="patch_181">
    <path clip-path="url(#p19d5823d44)" d="M 105.920591 87.400971 
L 106.531763 87.400971 
L 106.531763 87.032805 
L 105.920591 87.032805 
z
" style="fill:#1d1d1d;"/>
   </g>
   <g id="patch_182">
    <path clip-path="url(#p19d5823d44)" d="M 106.429901 87.400971 
L 107.041073 87.400971 
L 107.041073 87.03313 
L 106.429901 87.03313 
z
" style="fill:#1d1d1d;"/>
   </g>
   <g id="patch_183">
    <path clip-path="url(#p19d5823d44)" d="M 106.939211 87.400971 
L 107.550383 87.400971 
L 107.550383 87.035431 
L 106.939211 87.035431 
z
" style="fill:#1d1d1d;"/>
   </g>
   <g id="patch_184">
    <path clip-path="url(#p19d5823d44)" d="M 107.448521 87.400971 
L 108.059693 87.400971 
L 108.059693 87.038124 
L 107.448521 87.038124 
z
" style="fill:#1d1d1d;"/>
   </g>
   <g id="patch_185">
    <path clip-path="url(#p19d5823d44)" d="M 107.957831 87.400971 
L 108.569003 87.400971 
L 108.569003 87.040111 
L 107.957831 87.040111 
z
" style="fill:#1d1d1d;"/>
   </g>
   <g id="patch_186">
    <path clip-path="url(#p19d5823d44)" d="M 108.467141 87.400971 
L 109.078313 87.400971 
L 109.078313 87.048841 
L 108.467141 87.048841 
z
" style="fill:#1d1d1d;"/>
   </g>
   <g id="patch_187">
    <path clip-path="url(#p19d5823d44)" d="M 108.976451 87.400971 
L 109.587623 87.400971 
L 109.587623 87.053085 
L 108.976451 87.053085 
z
" style="fill:#1d1d1d;"/>
   </g>
   <g id="patch_188">
    <path clip-path="url(#p19d5823d44)" d="M 109.485761 87.400971 
L 110.096933 87.400971 
L 110.096933 87.056388 
L 109.485761 87.056388 
z
" style="fill:#1d1d1d;"/>
   </g>
   <g id="patch_189">
    <path clip-path="url(#p19d5823d44)" d="M 109.995071 87.400971 
L 110.606243 87.400971 
L 110.606243 87.059297 
L 109.995071 87.059297 
z
" style="fill:#1d1d1d;"/>
   </g>
   <g id="patch_190">
    <path clip-path="url(#p19d5823d44)" d="M 110.504381 87.400971 
L 111.115553 87.400971 
L 111.115553 87.064586 
L 110.504381 87.064586 
z
" style="fill:#1d1d1d;"/>
   </g>
   <g id="patch_191">
    <path clip-path="url(#p19d5823d44)" d="M 111.013691 87.400971 
L 111.624863 87.400971 
L 111.624863 87.069958 
L 111.013691 87.069958 
z
" style="fill:#1d1d1d;"/>
   </g>
   <g id="patch_192">
    <path clip-path="url(#p19d5823d44)" d="M 111.523001 87.400971 
L 112.134173 87.400971 
L 112.134173 87.072672 
L 111.523001 87.072672 
z
" style="fill:#1d1d1d;"/>
   </g>
   <g id="patch_193">
    <path clip-path="url(#p19d5823d44)" d="M 112.032311 87.400971 
L 112.643483 87.400971 
L 112.643483 87.076088 
L 112.032311 87.076088 
z
" style="fill:#1d1d1d;"/>
   </g>
   <g id="patch_194">
    <path clip-path="url(#p19d5823d44)" d="M 112.541621 87.400971 
L 113.152793 87.400971 
L 113.152793 87.078294 
L 112.541621 87.078294 
z
" style="fill:#1d1d1d;"/>
   </g>
   <g id="patch_195">
    <path clip-path="url(#p19d5823d44)" d="M 113.050931 87.400971 
L 113.662103 87.400971 
L 113.662103 87.080327 
L 113.050931 87.080327 
z
" style="fill:#1d1d1d;"/>
   </g>
   <g id="patch_196">
    <path clip-path="url(#p19d5823d44)" d="M 113.560241 87.400971 
L 114.171413 87.400971 
L 114.171413 87.082231 
L 113.560241 87.082231 
z
" style="fill:#1d1d1d;"/>
   </g>
   <g id="patch_197">
    <path clip-path="url(#p19d5823d44)" d="M 114.069551 87.400971 
L 114.680723 87.400971 
L 114.680723 87.082259 
L 114.069551 87.082259 
z
" style="fill:#1d1d1d;"/>
   </g>
   <g id="patch_198">
    <path clip-path="url(#p19d5823d44)" d="M 114.578861 87.400971 
L 115.190033 87.400971 
L 115.190033 87.08332 
L 114.578861 87.08332 
z
" style="fill:#1d1d1d;"/>
   </g>
   <g id="patch_199">
    <path clip-path="url(#p19d5823d44)" d="M 115.088171 87.400971 
L 115.699343 87.400971 
L 115.699343 87.084115 
L 115.088171 87.084115 
z
" style="fill:#1d1d1d;"/>
   </g>
   <g id="patch_200">
    <path clip-path="url(#p19d5823d44)" d="M 115.597481 87.400971 
L 116.208653 87.400971 
L 116.208653 87.085003 
L 115.597481 87.085003 
z
" style="fill:#1d1d1d;"/>
   </g>
   <g id="patch_201">
    <path clip-path="url(#p19d5823d44)" d="M 116.106791 87.400971 
L 116.717963 87.400971 
L 116.717963 87.085211 
L 116.106791 87.085211 
z
" style="fill:#1d1d1d;"/>
   </g>
   <g id="patch_202">
    <path clip-path="url(#p19d5823d44)" d="M 116.616101 87.400971 
L 117.227273 87.400971 
L 117.227273 87.086874 
L 116.616101 87.086874 
z
" style="fill:#1d1d1d;"/>
   </g>
   <g id="matplotlib.axis_1"/>
   <g id="matplotlib.axis_2"/>
   <g id="patch_203">
    <path d="M 10.7 93.86 
L 10.7 10.7 
" style="fill:none;stroke:#000000;stroke-linecap:square;stroke-linejoin:miter;stroke-width:0.8;"/>
   </g>
   <g id="patch_204">
    <path d="M 122.3 93.86 
L 122.3 10.7 
" style="fill:none;stroke:#000000;stroke-linecap:square;stroke-linejoin:miter;stroke-width:0.8;"/>
   </g>
   <g id="patch_205">
    <path d="M 10.7 93.86 
L 122.3 93.86 
" style="fill:none;stroke:#000000;stroke-linecap:square;stroke-linejoin:miter;stroke-width:0.8;"/>
   </g>
   <g id="patch_206">
    <path d="M 10.7 10.7 
L 122.3 10.7 
" style="fill:none;stroke:#000000;stroke-linecap:square;stroke-linejoin:miter;stroke-width:0.8;"/>
   </g>
  </g>
 </g>
 <defs>
  <clipPath id="p19d5823d44">
   <rect height="83.16" width="111.6" x="10.7" y="10.7"/>
  </clipPath>
 </defs>
</svg>
