<?xml version="1.0" encoding="utf-8" standalone="no"?>
<!DOCTYPE svg PUBLIC "-//W3C//DTD SVG 1.1//EN"
  "http://www.w3.org/Graphics/SVG/1.1/DTD/svg11.dtd">
<!-- Created with matplotlib (http://matplotlib.org/) -->
<svg height="104pt" version="1.1" viewBox="0 0 133 104" width="133pt" xmlns="http://www.w3.org/2000/svg" xmlns:xlink="http://www.w3.org/1999/xlink">
 <defs>
  <style type="text/css">
*{stroke-linecap:butt;stroke-linejoin:round;}
  </style>
 </defs>
 <g id="figure_1">
  <g id="patch_1">
   <path d="M 0 104.56 
L 133 104.56 
L 133 0 
L 0 0 
z
" style="fill:#ffffff;"/>
  </g>
  <g id="axes_1">
   <g id="patch_2">
    <path d="M 10.7 93.86 
L 122.3 93.86 
L 122.3 10.7 
L 10.7 10.7 
z
" style="fill:#ffffff;"/>
   </g>
   <g id="patch_3">
    <path clip-path="url(#p92d6db4fb8)" d="M 15.772727 87.400971 
L 16.383899 87.400971 
L 16.383899 86.699253 
L 15.772727 86.699253 
z
" style="fill:#1d1d1d;"/>
   </g>
   <g id="patch_4">
    <path clip-path="url(#p92d6db4fb8)" d="M 16.282037 87.400971 
L 16.893209 87.400971 
L 16.893209 86.699177 
L 16.282037 86.699177 
z
" style="fill:#1d1d1d;"/>
   </g>
   <g id="patch_5">
    <path clip-path="url(#p92d6db4fb8)" d="M 16.791347 87.400971 
L 17.402519 87.400971 
L 17.402519 86.694515 
L 16.791347 86.694515 
z
" style="fill:#1d1d1d;"/>
   </g>
   <g id="patch_6">
    <path clip-path="url(#p92d6db4fb8)" d="M 17.300657 87.400971 
L 17.911829 87.400971 
L 17.911829 86.692077 
L 17.300657 86.692077 
z
" style="fill:#1d1d1d;"/>
   </g>
   <g id="patch_7">
    <path clip-path="url(#p92d6db4fb8)" d="M 17.809967 87.400971 
L 18.421139 87.400971 
L 18.421139 86.672157 
L 17.809967 86.672157 
z
" style="fill:#1d1d1d;"/>
   </g>
   <g id="patch_8">
    <path clip-path="url(#p92d6db4fb8)" d="M 18.319277 87.400971 
L 18.930449 87.400971 
L 18.930449 86.67047 
L 18.319277 86.67047 
z
" style="fill:#1d1d1d;"/>
   </g>
   <g id="patch_9">
    <path clip-path="url(#p92d6db4fb8)" d="M 18.828587 87.400971 
L 19.439759 87.400971 
L 19.439759 86.653518 
L 18.828587 86.653518 
z
" style="fill:#1d1d1d;"/>
   </g>
   <g id="patch_10">
    <path clip-path="url(#p92d6db4fb8)" d="M 19.337897 87.400971 
L 19.949069 87.400971 
L 19.949069 86.637682 
L 19.337897 86.637682 
z
" style="fill:#1d1d1d;"/>
   </g>
   <g id="patch_11">
    <path clip-path="url(#p92d6db4fb8)" d="M 19.847207 87.400971 
L 20.458379 87.400971 
L 20.458379 86.629448 
L 19.847207 86.629448 
z
" style="fill:#1d1d1d;"/>
   </g>
   <g id="patch_12">
    <path clip-path="url(#p92d6db4fb8)" d="M 20.356517 87.400971 
L 20.967689 87.400971 
L 20.967689 86.625785 
L 20.356517 86.625785 
z
" style="fill:#1d1d1d;"/>
   </g>
   <g id="patch_13">
    <path clip-path="url(#p92d6db4fb8)" d="M 20.865827 87.400971 
L 21.476999 87.400971 
L 21.476999 86.624596 
L 20.865827 86.624596 
z
" style="fill:#1d1d1d;"/>
   </g>
   <g id="patch_14">
    <path clip-path="url(#p92d6db4fb8)" d="M 21.375137 87.400971 
L 21.986309 87.400971 
L 21.986309 86.623905 
L 21.375137 86.623905 
z
" style="fill:#1d1d1d;"/>
   </g>
   <g id="patch_15">
    <path clip-path="url(#p92d6db4fb8)" d="M 21.884447 87.400971 
L 22.495619 87.400971 
L 22.495619 86.621364 
L 21.884447 86.621364 
z
" style="fill:#1d1d1d;"/>
   </g>
   <g id="patch_16">
    <path clip-path="url(#p92d6db4fb8)" d="M 22.393757 87.400971 
L 23.004929 87.400971 
L 23.004929 86.613292 
L 22.393757 86.613292 
z
" style="fill:#1d1d1d;"/>
   </g>
   <g id="patch_17">
    <path clip-path="url(#p92d6db4fb8)" d="M 22.903067 87.400971 
L 23.514239 87.400971 
L 23.514239 86.612981 
L 22.903067 86.612981 
z
" style="fill:#1d1d1d;"/>
   </g>
   <g id="patch_18">
    <path clip-path="url(#p92d6db4fb8)" d="M 23.412377 87.400971 
L 24.023549 87.400971 
L 24.023549 86.605953 
L 23.412377 86.605953 
z
" style="fill:#1d1d1d;"/>
   </g>
   <g id="patch_19">
    <path clip-path="url(#p92d6db4fb8)" d="M 23.921687 87.400971 
L 24.532859 87.400971 
L 24.532859 86.599658 
L 23.921687 86.599658 
z
" style="fill:#1d1d1d;"/>
   </g>
   <g id="patch_20">
    <path clip-path="url(#p92d6db4fb8)" d="M 24.430997 87.400971 
L 25.042169 87.400971 
L 25.042169 86.560795 
L 24.430997 86.560795 
z
" style="fill:#1d1d1d;"/>
   </g>
   <g id="patch_21">
    <path clip-path="url(#p92d6db4fb8)" d="M 24.940307 87.400971 
L 25.551479 87.400971 
L 25.551479 86.536824 
L 24.940307 86.536824 
z
" style="fill:#1d1d1d;"/>
   </g>
   <g id="patch_22">
    <path clip-path="url(#p92d6db4fb8)" d="M 25.449617 87.400971 
L 26.060789 87.400971 
L 26.060789 86.532138 
L 25.449617 86.532138 
z
" style="fill:#1d1d1d;"/>
   </g>
   <g id="patch_23">
    <path clip-path="url(#p92d6db4fb8)" d="M 25.958927 87.400971 
L 26.570099 87.400971 
L 26.570099 86.527758 
L 25.958927 86.527758 
z
" style="fill:#1d1d1d;"/>
   </g>
   <g id="patch_24">
    <path clip-path="url(#p92d6db4fb8)" d="M 26.468237 87.400971 
L 27.079409 87.400971 
L 27.079409 86.520867 
L 26.468237 86.520867 
z
" style="fill:#1d1d1d;"/>
   </g>
   <g id="patch_25">
    <path clip-path="url(#p92d6db4fb8)" d="M 26.977547 87.400971 
L 27.588719 87.400971 
L 27.588719 86.512873 
L 26.977547 86.512873 
z
" style="fill:#1d1d1d;"/>
   </g>
   <g id="patch_26">
    <path clip-path="url(#p92d6db4fb8)" d="M 27.486857 87.400971 
L 28.098028 87.400971 
L 28.098028 86.503314 
L 27.486857 86.503314 
z
" style="fill:#1d1d1d;"/>
   </g>
   <g id="patch_27">
    <path clip-path="url(#p92d6db4fb8)" d="M 27.996166 87.400971 
L 28.607338 87.400971 
L 28.607338 86.475162 
L 27.996166 86.475162 
z
" style="fill:#1d1d1d;"/>
   </g>
   <g id="patch_28">
    <path clip-path="url(#p92d6db4fb8)" d="M 28.505476 87.400971 
L 29.116648 87.400971 
L 29.116648 86.459994 
L 28.505476 86.459994 
z
" style="fill:#1d1d1d;"/>
   </g>
   <g id="patch_29">
    <path clip-path="url(#p92d6db4fb8)" d="M 29.014786 87.400971 
L 29.625958 87.400971 
L 29.625958 86.450828 
L 29.014786 86.450828 
z
" style="fill:#1d1d1d;"/>
   </g>
   <g id="patch_30">
    <path clip-path="url(#p92d6db4fb8)" d="M 29.524096 87.400971 
L 30.135268 87.400971 
L 30.135268 86.422181 
L 29.524096 86.422181 
z
" style="fill:#1d1d1d;"/>
   </g>
   <g id="patch_31">
    <path clip-path="url(#p92d6db4fb8)" d="M 30.033406 87.400971 
L 30.644578 87.400971 
L 30.644578 86.412021 
L 30.033406 86.412021 
z
" style="fill:#1d1d1d;"/>
   </g>
   <g id="patch_32">
    <path clip-path="url(#p92d6db4fb8)" d="M 30.542716 87.400971 
L 31.153888 87.400971 
L 31.153888 86.403808 
L 30.542716 86.403808 
z
" style="fill:#1d1d1d;"/>
   </g>
   <g id="patch_33">
    <path clip-path="url(#p92d6db4fb8)" d="M 31.052026 87.400971 
L 31.663198 87.400971 
L 31.663198 86.392249 
L 31.052026 86.392249 
z
" style="fill:#1d1d1d;"/>
   </g>
   <g id="patch_34">
    <path clip-path="url(#p92d6db4fb8)" d="M 31.561336 87.400971 
L 32.172508 87.400971 
L 32.172508 86.328761 
L 31.561336 86.328761 
z
" style="fill:#1d1d1d;"/>
   </g>
   <g id="patch_35">
    <path clip-path="url(#p92d6db4fb8)" d="M 32.070646 87.400971 
L 32.681818 87.400971 
L 32.681818 86.317483 
L 32.070646 86.317483 
z
" style="fill:#1d1d1d;"/>
   </g>
   <g id="patch_36">
    <path clip-path="url(#p92d6db4fb8)" d="M 32.579956 87.400971 
L 33.191128 87.400971 
L 33.191128 86.294252 
L 32.579956 86.294252 
z
" style="fill:#1d1d1d;"/>
   </g>
   <g id="patch_37">
    <path clip-path="url(#p92d6db4fb8)" d="M 33.089266 87.400971 
L 33.700438 87.400971 
L 33.700438 86.253229 
L 33.089266 86.253229 
z
" style="fill:#1d1d1d;"/>
   </g>
   <g id="patch_38">
    <path clip-path="url(#p92d6db4fb8)" d="M 33.598576 87.400971 
L 34.209748 87.400971 
L 34.209748 86.243257 
L 33.598576 86.243257 
z
" style="fill:#1d1d1d;"/>
   </g>
   <g id="patch_39">
    <path clip-path="url(#p92d6db4fb8)" d="M 34.107886 87.400971 
L 34.719058 87.400971 
L 34.719058 86.242973 
L 34.107886 86.242973 
z
" style="fill:#1d1d1d;"/>
   </g>
   <g id="patch_40">
    <path clip-path="url(#p92d6db4fb8)" d="M 34.617196 87.400971 
L 35.228368 87.400971 
L 35.228368 86.235043 
L 34.617196 86.235043 
z
" style="fill:#1d1d1d;"/>
   </g>
   <g id="patch_41">
    <path clip-path="url(#p92d6db4fb8)" d="M 35.126506 87.400971 
L 35.737678 87.400971 
L 35.737678 86.21391 
L 35.126506 86.21391 
z
" style="fill:#1d1d1d;"/>
   </g>
   <g id="patch_42">
    <path clip-path="url(#p92d6db4fb8)" d="M 35.635816 87.400971 
L 36.246988 87.400971 
L 36.246988 86.204542 
L 35.635816 86.204542 
z
" style="fill:#1d1d1d;"/>
   </g>
   <g id="patch_43">
    <path clip-path="url(#p92d6db4fb8)" d="M 36.145126 87.400971 
L 36.756298 87.400971 
L 36.756298 86.19151 
L 36.145126 86.19151 
z
" style="fill:#1d1d1d;"/>
   </g>
   <g id="patch_44">
    <path clip-path="url(#p92d6db4fb8)" d="M 36.654436 87.400971 
L 37.265608 87.400971 
L 37.265608 86.188261 
L 36.654436 86.188261 
z
" style="fill:#1d1d1d;"/>
   </g>
   <g id="patch_45">
    <path clip-path="url(#p92d6db4fb8)" d="M 37.163746 87.400971 
L 37.774918 87.400971 
L 37.774918 86.175513 
L 37.163746 86.175513 
z
" style="fill:#1d1d1d;"/>
   </g>
   <g id="patch_46">
    <path clip-path="url(#p92d6db4fb8)" d="M 37.673056 87.400971 
L 38.284228 87.400971 
L 38.284228 86.172708 
L 37.673056 86.172708 
z
" style="fill:#1d1d1d;"/>
   </g>
   <g id="patch_47">
    <path clip-path="url(#p92d6db4fb8)" d="M 38.182366 87.400971 
L 38.793538 87.400971 
L 38.793538 86.114581 
L 38.182366 86.114581 
z
" style="fill:#1d1d1d;"/>
   </g>
   <g id="patch_48">
    <path clip-path="url(#p92d6db4fb8)" d="M 38.691676 87.400971 
L 39.302848 87.400971 
L 39.302848 86.10989 
L 38.691676 86.10989 
z
" style="fill:#1d1d1d;"/>
   </g>
   <g id="patch_49">
    <path clip-path="url(#p92d6db4fb8)" d="M 39.200986 87.400971 
L 39.812158 87.400971 
L 39.812158 86.102656 
L 39.200986 86.102656 
z
" style="fill:#1d1d1d;"/>
   </g>
   <g id="patch_50">
    <path clip-path="url(#p92d6db4fb8)" d="M 39.710296 87.400971 
L 40.321468 87.400971 
L 40.321468 86.096905 
L 39.710296 86.096905 
z
" style="fill:#1d1d1d;"/>
   </g>
   <g id="patch_51">
    <path clip-path="url(#p92d6db4fb8)" d="M 40.219606 87.400971 
L 40.830778 87.400971 
L 40.830778 86.054413 
L 40.219606 86.054413 
z
" style="fill:#1d1d1d;"/>
   </g>
   <g id="patch_52">
    <path clip-path="url(#p92d6db4fb8)" d="M 40.728916 87.400971 
L 41.340088 87.400971 
L 41.340088 86.053382 
L 40.728916 86.053382 
z
" style="fill:#1d1d1d;"/>
   </g>
   <g id="patch_53">
    <path clip-path="url(#p92d6db4fb8)" d="M 41.238226 87.400971 
L 41.849398 87.400971 
L 41.849398 86.049002 
L 41.238226 86.049002 
z
" style="fill:#1d1d1d;"/>
   </g>
   <g id="patch_54">
    <path clip-path="url(#p92d6db4fb8)" d="M 41.747536 87.400971 
L 42.358708 87.400971 
L 42.358708 86.036735 
L 41.747536 86.036735 
z
" style="fill:#1d1d1d;"/>
   </g>
   <g id="patch_55">
    <path clip-path="url(#p92d6db4fb8)" d="M 42.256846 87.400971 
L 42.868018 87.400971 
L 42.868018 86.023062 
L 42.256846 86.023062 
z
" style="fill:#1d1d1d;"/>
   </g>
   <g id="patch_56">
    <path clip-path="url(#p92d6db4fb8)" d="M 42.766156 87.400971 
L 43.377327 87.400971 
L 43.377327 85.935876 
L 42.766156 85.935876 
z
" style="fill:#1d1d1d;"/>
   </g>
   <g id="patch_57">
    <path clip-path="url(#p92d6db4fb8)" d="M 43.275465 87.400971 
L 43.886637 87.400971 
L 43.886637 85.906047 
L 43.275465 85.906047 
z
" style="fill:#1d1d1d;"/>
   </g>
   <g id="patch_58">
    <path clip-path="url(#p92d6db4fb8)" d="M 43.784775 87.400971 
L 44.395947 87.400971 
L 44.395947 85.871506 
L 43.784775 85.871506 
z
" style="fill:#1d1d1d;"/>
   </g>
   <g id="patch_59">
    <path clip-path="url(#p92d6db4fb8)" d="M 44.294085 87.400971 
L 44.905257 87.400971 
L 44.905257 85.84637 
L 44.294085 85.84637 
z
" style="fill:#1d1d1d;"/>
   </g>
   <g id="patch_60">
    <path clip-path="url(#p92d6db4fb8)" d="M 44.803395 87.400971 
L 45.414567 87.400971 
L 45.414567 85.829816 
L 44.803395 85.829816 
z
" style="fill:#1d1d1d;"/>
   </g>
   <g id="patch_61">
    <path clip-path="url(#p92d6db4fb8)" d="M 45.312705 87.400971 
L 45.923877 87.400971 
L 45.923877 85.802972 
L 45.312705 85.802972 
z
" style="fill:#1d1d1d;"/>
   </g>
   <g id="patch_62">
    <path clip-path="url(#p92d6db4fb8)" d="M 45.822015 87.400971 
L 46.433187 87.400971 
L 46.433187 85.726259 
L 45.822015 85.726259 
z
" style="fill:#1d1d1d;"/>
   </g>
   <g id="patch_63">
    <path clip-path="url(#p92d6db4fb8)" d="M 46.331325 87.400971 
L 46.942497 87.400971 
L 46.942497 85.721615 
L 46.331325 85.721615 
z
" style="fill:#1d1d1d;"/>
   </g>
   <g id="patch_64">
    <path clip-path="url(#p92d6db4fb8)" d="M 46.840635 87.400971 
L 47.451807 87.400971 
L 47.451807 85.717967 
L 46.840635 85.717967 
z
" style="fill:#1d1d1d;"/>
   </g>
   <g id="patch_65">
    <path clip-path="url(#p92d6db4fb8)" d="M 47.349945 87.400971 
L 47.961117 87.400971 
L 47.961117 85.633504 
L 47.349945 85.633504 
z
" style="fill:#1d1d1d;"/>
   </g>
   <g id="patch_66">
    <path clip-path="url(#p92d6db4fb8)" d="M 47.859255 87.400971 
L 48.470427 87.400971 
L 48.470427 85.601173 
L 47.859255 85.601173 
z
" style="fill:#1d1d1d;"/>
   </g>
   <g id="patch_67">
    <path clip-path="url(#p92d6db4fb8)" d="M 48.368565 87.400971 
L 48.979737 87.400971 
L 48.979737 85.503464 
L 48.368565 85.503464 
z
" style="fill:#1d1d1d;"/>
   </g>
   <g id="patch_68">
    <path clip-path="url(#p92d6db4fb8)" d="M 48.877875 87.400971 
L 49.489047 87.400971 
L 49.489047 85.502763 
L 48.877875 85.502763 
z
" style="fill:#1d1d1d;"/>
   </g>
   <g id="patch_69">
    <path clip-path="url(#p92d6db4fb8)" d="M 49.387185 87.400971 
L 49.998357 87.400971 
L 49.998357 85.318791 
L 49.387185 85.318791 
z
" style="fill:#1d1d1d;"/>
   </g>
   <g id="patch_70">
    <path clip-path="url(#p92d6db4fb8)" d="M 49.896495 87.400971 
L 50.507667 87.400971 
L 50.507667 85.223262 
L 49.896495 85.223262 
z
" style="fill:#1d1d1d;"/>
   </g>
   <g id="patch_71">
    <path clip-path="url(#p92d6db4fb8)" d="M 50.405805 87.400971 
L 51.016977 87.400971 
L 51.016977 85.162579 
L 50.405805 85.162579 
z
" style="fill:#1d1d1d;"/>
   </g>
   <g id="patch_72">
    <path clip-path="url(#p92d6db4fb8)" d="M 50.915115 87.400971 
L 51.526287 87.400971 
L 51.526287 85.115663 
L 50.915115 85.115663 
z
" style="fill:#1d1d1d;"/>
   </g>
   <g id="patch_73">
    <path clip-path="url(#p92d6db4fb8)" d="M 51.424425 87.400971 
L 52.035597 87.400971 
L 52.035597 85.100655 
L 51.424425 85.100655 
z
" style="fill:#1d1d1d;"/>
   </g>
   <g id="patch_74">
    <path clip-path="url(#p92d6db4fb8)" d="M 51.933735 87.400971 
L 52.544907 87.400971 
L 52.544907 84.889952 
L 51.933735 84.889952 
z
" style="fill:#1d1d1d;"/>
   </g>
   <g id="patch_75">
    <path clip-path="url(#p92d6db4fb8)" d="M 52.443045 87.400971 
L 53.054217 87.400971 
L 53.054217 84.850024 
L 52.443045 84.850024 
z
" style="fill:#1d1d1d;"/>
   </g>
   <g id="patch_76">
    <path clip-path="url(#p92d6db4fb8)" d="M 52.952355 87.400971 
L 53.563527 87.400971 
L 53.563527 84.806714 
L 52.952355 84.806714 
z
" style="fill:#1d1d1d;"/>
   </g>
   <g id="patch_77">
    <path clip-path="url(#p92d6db4fb8)" d="M 53.461665 87.400971 
L 54.072837 87.400971 
L 54.072837 84.768442 
L 53.461665 84.768442 
z
" style="fill:#1d1d1d;"/>
   </g>
   <g id="patch_78">
    <path clip-path="url(#p92d6db4fb8)" d="M 53.970975 87.400971 
L 54.582147 87.400971 
L 54.582147 84.582427 
L 53.970975 84.582427 
z
" style="fill:#1d1d1d;"/>
   </g>
   <g id="patch_79">
    <path clip-path="url(#p92d6db4fb8)" d="M 54.480285 87.400971 
L 55.091457 87.400971 
L 55.091457 84.507573 
L 54.480285 84.507573 
z
" style="fill:#1d1d1d;"/>
   </g>
   <g id="patch_80">
    <path clip-path="url(#p92d6db4fb8)" d="M 54.989595 87.400971 
L 55.600767 87.400971 
L 55.600767 84.320254 
L 54.989595 84.320254 
z
" style="fill:#1d1d1d;"/>
   </g>
   <g id="patch_81">
    <path clip-path="url(#p92d6db4fb8)" d="M 55.498905 87.400971 
L 56.110077 87.400971 
L 56.110077 84.304562 
L 55.498905 84.304562 
z
" style="fill:#1d1d1d;"/>
   </g>
   <g id="patch_82">
    <path clip-path="url(#p92d6db4fb8)" d="M 56.008215 87.400971 
L 56.619387 87.400971 
L 56.619387 84.198272 
L 56.008215 84.198272 
z
" style="fill:#1d1d1d;"/>
   </g>
   <g id="patch_83">
    <path clip-path="url(#p92d6db4fb8)" d="M 56.517525 87.400971 
L 57.128697 87.400971 
L 57.128697 84.089221 
L 56.517525 84.089221 
z
" style="fill:#1d1d1d;"/>
   </g>
   <g id="patch_84">
    <path clip-path="url(#p92d6db4fb8)" d="M 57.026835 87.400971 
L 57.638007 87.400971 
L 57.638007 83.861362 
L 57.026835 83.861362 
z
" style="fill:#1d1d1d;"/>
   </g>
   <g id="patch_85">
    <path clip-path="url(#p92d6db4fb8)" d="M 57.536145 87.400971 
L 58.147317 87.400971 
L 58.147317 83.831172 
L 57.536145 83.831172 
z
" style="fill:#1d1d1d;"/>
   </g>
   <g id="patch_86">
    <path clip-path="url(#p92d6db4fb8)" d="M 58.045455 87.400971 
L 58.656627 87.400971 
L 58.656627 83.611961 
L 58.045455 83.611961 
z
" style="fill:#1d1d1d;"/>
   </g>
   <g id="patch_87">
    <path clip-path="url(#p92d6db4fb8)" d="M 58.554765 87.400971 
L 59.165936 87.400971 
L 59.165936 83.496603 
L 58.554765 83.496603 
z
" style="fill:#1d1d1d;"/>
   </g>
   <g id="patch_88">
    <path clip-path="url(#p92d6db4fb8)" d="M 59.064074 87.400971 
L 59.675246 87.400971 
L 59.675246 83.477824 
L 59.064074 83.477824 
z
" style="fill:#1d1d1d;"/>
   </g>
   <g id="patch_89">
    <path clip-path="url(#p92d6db4fb8)" d="M 59.573384 87.400971 
L 60.184556 87.400971 
L 60.184556 83.274491 
L 59.573384 83.274491 
z
" style="fill:#1d1d1d;"/>
   </g>
   <g id="patch_90">
    <path clip-path="url(#p92d6db4fb8)" d="M 60.082694 87.400971 
L 60.693866 87.400971 
L 60.693866 82.550267 
L 60.082694 82.550267 
z
" style="fill:#1d1d1d;"/>
   </g>
   <g id="patch_91">
    <path clip-path="url(#p92d6db4fb8)" d="M 60.592004 87.400971 
L 61.203176 87.400971 
L 61.203176 82.150798 
L 60.592004 82.150798 
z
" style="fill:#1d1d1d;"/>
   </g>
   <g id="patch_92">
    <path clip-path="url(#p92d6db4fb8)" d="M 61.101314 87.400971 
L 61.712486 87.400971 
L 61.712486 81.946943 
L 61.101314 81.946943 
z
" style="fill:#1d1d1d;"/>
   </g>
   <g id="patch_93">
    <path clip-path="url(#p92d6db4fb8)" d="M 61.610624 87.400971 
L 62.221796 87.400971 
L 62.221796 81.670747 
L 61.610624 81.670747 
z
" style="fill:#1d1d1d;"/>
   </g>
   <g id="patch_94">
    <path clip-path="url(#p92d6db4fb8)" d="M 62.119934 87.400971 
L 62.731106 87.400971 
L 62.731106 81.205404 
L 62.119934 81.205404 
z
" style="fill:#1d1d1d;"/>
   </g>
   <g id="patch_95">
    <path clip-path="url(#p92d6db4fb8)" d="M 62.629244 87.400971 
L 63.240416 87.400971 
L 63.240416 80.240812 
L 62.629244 80.240812 
z
" style="fill:#1d1d1d;"/>
   </g>
   <g id="patch_96">
    <path clip-path="url(#p92d6db4fb8)" d="M 63.138554 87.400971 
L 63.749726 87.400971 
L 63.749726 79.598585 
L 63.138554 79.598585 
z
" style="fill:#1d1d1d;"/>
   </g>
   <g id="patch_97">
    <path clip-path="url(#p92d6db4fb8)" d="M 63.647864 87.400971 
L 64.259036 87.400971 
L 64.259036 75.698343 
L 63.647864 75.698343 
z
" style="fill:#1d1d1d;"/>
   </g>
   <g id="patch_98">
    <path clip-path="url(#p92d6db4fb8)" d="M 64.157174 87.400971 
L 64.768346 87.400971 
L 64.768346 75.477062 
L 64.157174 75.477062 
z
" style="fill:#1d1d1d;"/>
   </g>
   <g id="patch_99">
    <path clip-path="url(#p92d6db4fb8)" d="M 64.666484 87.400971 
L 65.277656 87.400971 
L 65.277656 73.932915 
L 64.666484 73.932915 
z
" style="fill:#1d1d1d;"/>
   </g>
   <g id="patch_100">
    <path clip-path="url(#p92d6db4fb8)" d="M 65.175794 87.400971 
L 65.786966 87.400971 
L 65.786966 62.719052 
L 65.175794 62.719052 
z
" style="fill:#1d1d1d;"/>
   </g>
   <g id="patch_101">
    <path clip-path="url(#p92d6db4fb8)" d="M 65.685104 87.400971 
L 66.296276 87.400971 
L 66.296276 61.680429 
L 65.685104 61.680429 
z
" style="fill:#1d1d1d;"/>
   </g>
   <g id="patch_102">
    <path clip-path="url(#p92d6db4fb8)" d="M 66.194414 87.400971 
L 66.805586 87.400971 
L 66.805586 38.498742 
L 66.194414 38.498742 
z
" style="fill:#1d1d1d;"/>
   </g>
   <g id="patch_103">
    <path clip-path="url(#p92d6db4fb8)" d="M 66.194414 87.400971 
L 66.805586 87.400971 
L 66.805586 38.498742 
L 66.194414 38.498742 
z
" style="fill:#1d1d1d;"/>
   </g>
   <g id="patch_104">
    <path clip-path="url(#p92d6db4fb8)" d="M 66.703724 87.400971 
L 67.314896 87.400971 
L 67.314896 61.60162 
L 66.703724 61.60162 
z
" style="fill:#1d1d1d;"/>
   </g>
   <g id="patch_105">
    <path clip-path="url(#p92d6db4fb8)" d="M 67.213034 87.400971 
L 67.824206 87.400971 
L 67.824206 72.664445 
L 67.213034 72.664445 
z
" style="fill:#1d1d1d;"/>
   </g>
   <g id="patch_106">
    <path clip-path="url(#p92d6db4fb8)" d="M 67.722344 87.400971 
L 68.333516 87.400971 
L 68.333516 74.307396 
L 67.722344 74.307396 
z
" style="fill:#1d1d1d;"/>
   </g>
   <g id="patch_107">
    <path clip-path="url(#p92d6db4fb8)" d="M 68.231654 87.400971 
L 68.842826 87.400971 
L 68.842826 76.611497 
L 68.231654 76.611497 
z
" style="fill:#1d1d1d;"/>
   </g>
   <g id="patch_108">
    <path clip-path="url(#p92d6db4fb8)" d="M 68.740964 87.400971 
L 69.352136 87.400971 
L 69.352136 77.951445 
L 68.740964 77.951445 
z
" style="fill:#1d1d1d;"/>
   </g>
   <g id="patch_109">
    <path clip-path="url(#p92d6db4fb8)" d="M 69.250274 87.400971 
L 69.861446 87.400971 
L 69.861446 78.352846 
L 69.250274 78.352846 
z
" style="fill:#1d1d1d;"/>
   </g>
   <g id="patch_110">
    <path clip-path="url(#p92d6db4fb8)" d="M 69.759584 87.400971 
L 70.370756 87.400971 
L 70.370756 79.335279 
L 69.759584 79.335279 
z
" style="fill:#1d1d1d;"/>
   </g>
   <g id="patch_111">
    <path clip-path="url(#p92d6db4fb8)" d="M 70.268894 87.400971 
L 70.880066 87.400971 
L 70.880066 79.9966 
L 70.268894 79.9966 
z
" style="fill:#1d1d1d;"/>
   </g>
   <g id="patch_112">
    <path clip-path="url(#p92d6db4fb8)" d="M 70.778204 87.400971 
L 71.389376 87.400971 
L 71.389376 81.427014 
L 70.778204 81.427014 
z
" style="fill:#1d1d1d;"/>
   </g>
   <g id="patch_113">
    <path clip-path="url(#p92d6db4fb8)" d="M 71.287514 87.400971 
L 71.898686 87.400971 
L 71.898686 81.848065 
L 71.287514 81.848065 
z
" style="fill:#1d1d1d;"/>
   </g>
   <g id="patch_114">
    <path clip-path="url(#p92d6db4fb8)" d="M 71.796824 87.400971 
L 72.407996 87.400971 
L 72.407996 82.121738 
L 71.796824 82.121738 
z
" style="fill:#1d1d1d;"/>
   </g>
   <g id="patch_115">
    <path clip-path="url(#p92d6db4fb8)" d="M 72.306134 87.400971 
L 72.917306 87.400971 
L 72.917306 82.679277 
L 72.306134 82.679277 
z
" style="fill:#1d1d1d;"/>
   </g>
   <g id="patch_116">
    <path clip-path="url(#p92d6db4fb8)" d="M 72.815444 87.400971 
L 73.426616 87.400971 
L 73.426616 82.986485 
L 72.815444 82.986485 
z
" style="fill:#1d1d1d;"/>
   </g>
   <g id="patch_117">
    <path clip-path="url(#p92d6db4fb8)" d="M 73.324754 87.400971 
L 73.935926 87.400971 
L 73.935926 82.988976 
L 73.324754 82.988976 
z
" style="fill:#1d1d1d;"/>
   </g>
   <g id="patch_118">
    <path clip-path="url(#p92d6db4fb8)" d="M 73.834064 87.400971 
L 74.445235 87.400971 
L 74.445235 83.041691 
L 73.834064 83.041691 
z
" style="fill:#1d1d1d;"/>
   </g>
   <g id="patch_119">
    <path clip-path="url(#p92d6db4fb8)" d="M 74.343373 87.400971 
L 74.954545 87.400971 
L 74.954545 83.422869 
L 74.343373 83.422869 
z
" style="fill:#1d1d1d;"/>
   </g>
   <g id="patch_120">
    <path clip-path="url(#p92d6db4fb8)" d="M 74.852683 87.400971 
L 75.463855 87.400971 
L 75.463855 83.485961 
L 74.852683 83.485961 
z
" style="fill:#1d1d1d;"/>
   </g>
   <g id="patch_121">
    <path clip-path="url(#p92d6db4fb8)" d="M 75.361993 87.400971 
L 75.973165 87.400971 
L 75.973165 83.596992 
L 75.361993 83.596992 
z
" style="fill:#1d1d1d;"/>
   </g>
   <g id="patch_122">
    <path clip-path="url(#p92d6db4fb8)" d="M 75.871303 87.400971 
L 76.482475 87.400971 
L 76.482475 83.657119 
L 75.871303 83.657119 
z
" style="fill:#1d1d1d;"/>
   </g>
   <g id="patch_123">
    <path clip-path="url(#p92d6db4fb8)" d="M 76.380613 87.400971 
L 76.991785 87.400971 
L 76.991785 83.673266 
L 76.380613 83.673266 
z
" style="fill:#1d1d1d;"/>
   </g>
   <g id="patch_124">
    <path clip-path="url(#p92d6db4fb8)" d="M 76.889923 87.400971 
L 77.501095 87.400971 
L 77.501095 83.720042 
L 76.889923 83.720042 
z
" style="fill:#1d1d1d;"/>
   </g>
   <g id="patch_125">
    <path clip-path="url(#p92d6db4fb8)" d="M 77.399233 87.400971 
L 78.010405 87.400971 
L 78.010405 83.949516 
L 77.399233 83.949516 
z
" style="fill:#1d1d1d;"/>
   </g>
   <g id="patch_126">
    <path clip-path="url(#p92d6db4fb8)" d="M 77.908543 87.400971 
L 78.519715 87.400971 
L 78.519715 83.988918 
L 77.908543 83.988918 
z
" style="fill:#1d1d1d;"/>
   </g>
   <g id="patch_127">
    <path clip-path="url(#p92d6db4fb8)" d="M 78.417853 87.400971 
L 79.029025 87.400971 
L 79.029025 84.1913 
L 78.417853 84.1913 
z
" style="fill:#1d1d1d;"/>
   </g>
   <g id="patch_128">
    <path clip-path="url(#p92d6db4fb8)" d="M 78.927163 87.400971 
L 79.538335 87.400971 
L 79.538335 84.373551 
L 78.927163 84.373551 
z
" style="fill:#1d1d1d;"/>
   </g>
   <g id="patch_129">
    <path clip-path="url(#p92d6db4fb8)" d="M 79.436473 87.400971 
L 80.047645 87.400971 
L 80.047645 84.410567 
L 79.436473 84.410567 
z
" style="fill:#1d1d1d;"/>
   </g>
   <g id="patch_130">
    <path clip-path="url(#p92d6db4fb8)" d="M 79.945783 87.400971 
L 80.556955 87.400971 
L 80.556955 84.504374 
L 79.945783 84.504374 
z
" style="fill:#1d1d1d;"/>
   </g>
   <g id="patch_131">
    <path clip-path="url(#p92d6db4fb8)" d="M 80.455093 87.400971 
L 81.066265 87.400971 
L 81.066265 84.591114 
L 80.455093 84.591114 
z
" style="fill:#1d1d1d;"/>
   </g>
   <g id="patch_132">
    <path clip-path="url(#p92d6db4fb8)" d="M 80.964403 87.400971 
L 81.575575 87.400971 
L 81.575575 84.672384 
L 80.964403 84.672384 
z
" style="fill:#1d1d1d;"/>
   </g>
   <g id="patch_133">
    <path clip-path="url(#p92d6db4fb8)" d="M 81.473713 87.400971 
L 82.084885 87.400971 
L 82.084885 84.820986 
L 81.473713 84.820986 
z
" style="fill:#1d1d1d;"/>
   </g>
   <g id="patch_134">
    <path clip-path="url(#p92d6db4fb8)" d="M 81.983023 87.400971 
L 82.594195 87.400971 
L 82.594195 84.974736 
L 81.983023 84.974736 
z
" style="fill:#1d1d1d;"/>
   </g>
   <g id="patch_135">
    <path clip-path="url(#p92d6db4fb8)" d="M 82.492333 87.400971 
L 83.103505 87.400971 
L 83.103505 85.022877 
L 82.492333 85.022877 
z
" style="fill:#1d1d1d;"/>
   </g>
   <g id="patch_136">
    <path clip-path="url(#p92d6db4fb8)" d="M 83.001643 87.400971 
L 83.612815 87.400971 
L 83.612815 85.128549 
L 83.001643 85.128549 
z
" style="fill:#1d1d1d;"/>
   </g>
   <g id="patch_137">
    <path clip-path="url(#p92d6db4fb8)" d="M 83.510953 87.400971 
L 84.122125 87.400971 
L 84.122125 85.213756 
L 83.510953 85.213756 
z
" style="fill:#1d1d1d;"/>
   </g>
   <g id="patch_138">
    <path clip-path="url(#p92d6db4fb8)" d="M 84.020263 87.400971 
L 84.631435 87.400971 
L 84.631435 85.247281 
L 84.020263 85.247281 
z
" style="fill:#1d1d1d;"/>
   </g>
   <g id="patch_139">
    <path clip-path="url(#p92d6db4fb8)" d="M 84.529573 87.400971 
L 85.140745 87.400971 
L 85.140745 85.311068 
L 84.529573 85.311068 
z
" style="fill:#1d1d1d;"/>
   </g>
   <g id="patch_140">
    <path clip-path="url(#p92d6db4fb8)" d="M 85.038883 87.400971 
L 85.650055 87.400971 
L 85.650055 85.322491 
L 85.038883 85.322491 
z
" style="fill:#1d1d1d;"/>
   </g>
   <g id="patch_141">
    <path clip-path="url(#p92d6db4fb8)" d="M 85.548193 87.400971 
L 86.159365 87.400971 
L 86.159365 85.328686 
L 85.548193 85.328686 
z
" style="fill:#1d1d1d;"/>
   </g>
   <g id="patch_142">
    <path clip-path="url(#p92d6db4fb8)" d="M 86.057503 87.400971 
L 86.668675 87.400971 
L 86.668675 85.508902 
L 86.057503 85.508902 
z
" style="fill:#1d1d1d;"/>
   </g>
   <g id="patch_143">
    <path clip-path="url(#p92d6db4fb8)" d="M 86.566813 87.400971 
L 87.177985 87.400971 
L 87.177985 85.514252 
L 86.566813 85.514252 
z
" style="fill:#1d1d1d;"/>
   </g>
   <g id="patch_144">
    <path clip-path="url(#p92d6db4fb8)" d="M 87.076123 87.400971 
L 87.687295 87.400971 
L 87.687295 85.591073 
L 87.076123 85.591073 
z
" style="fill:#1d1d1d;"/>
   </g>
   <g id="patch_145">
    <path clip-path="url(#p92d6db4fb8)" d="M 87.585433 87.400971 
L 88.196605 87.400971 
L 88.196605 85.600691 
L 87.585433 85.600691 
z
" style="fill:#1d1d1d;"/>
   </g>
   <g id="patch_146">
    <path clip-path="url(#p92d6db4fb8)" d="M 88.094743 87.400971 
L 88.705915 87.400971 
L 88.705915 85.62424 
L 88.094743 85.62424 
z
" style="fill:#1d1d1d;"/>
   </g>
   <g id="patch_147">
    <path clip-path="url(#p92d6db4fb8)" d="M 88.604053 87.400971 
L 89.215225 87.400971 
L 89.215225 85.636166 
L 88.604053 85.636166 
z
" style="fill:#1d1d1d;"/>
   </g>
   <g id="patch_148">
    <path clip-path="url(#p92d6db4fb8)" d="M 89.113363 87.400971 
L 89.724535 87.400971 
L 89.724535 85.636808 
L 89.113363 85.636808 
z
" style="fill:#1d1d1d;"/>
   </g>
   <g id="patch_149">
    <path clip-path="url(#p92d6db4fb8)" d="M 89.622673 87.400971 
L 90.233844 87.400971 
L 90.233844 85.656091 
L 89.622673 85.656091 
z
" style="fill:#1d1d1d;"/>
   </g>
   <g id="patch_150">
    <path clip-path="url(#p92d6db4fb8)" d="M 90.131982 87.400971 
L 90.743154 87.400971 
L 90.743154 85.658253 
L 90.131982 85.658253 
z
" style="fill:#1d1d1d;"/>
   </g>
   <g id="patch_151">
    <path clip-path="url(#p92d6db4fb8)" d="M 90.641292 87.400971 
L 91.252464 87.400971 
L 91.252464 85.666893 
L 90.641292 85.666893 
z
" style="fill:#1d1d1d;"/>
   </g>
   <g id="patch_152">
    <path clip-path="url(#p92d6db4fb8)" d="M 91.150602 87.400971 
L 91.761774 87.400971 
L 91.761774 85.674909 
L 91.150602 85.674909 
z
" style="fill:#1d1d1d;"/>
   </g>
   <g id="patch_153">
    <path clip-path="url(#p92d6db4fb8)" d="M 91.659912 87.400971 
L 92.271084 87.400971 
L 92.271084 85.7015 
L 91.659912 85.7015 
z
" style="fill:#1d1d1d;"/>
   </g>
   <g id="patch_154">
    <path clip-path="url(#p92d6db4fb8)" d="M 92.169222 87.400971 
L 92.780394 87.400971 
L 92.780394 85.766865 
L 92.169222 85.766865 
z
" style="fill:#1d1d1d;"/>
   </g>
   <g id="patch_155">
    <path clip-path="url(#p92d6db4fb8)" d="M 92.678532 87.400971 
L 93.289704 87.400971 
L 93.289704 85.774874 
L 92.678532 85.774874 
z
" style="fill:#1d1d1d;"/>
   </g>
   <g id="patch_156">
    <path clip-path="url(#p92d6db4fb8)" d="M 93.187842 87.400971 
L 93.799014 87.400971 
L 93.799014 85.825515 
L 93.187842 85.825515 
z
" style="fill:#1d1d1d;"/>
   </g>
   <g id="patch_157">
    <path clip-path="url(#p92d6db4fb8)" d="M 93.697152 87.400971 
L 94.308324 87.400971 
L 94.308324 85.876054 
L 93.697152 85.876054 
z
" style="fill:#1d1d1d;"/>
   </g>
   <g id="patch_158">
    <path clip-path="url(#p92d6db4fb8)" d="M 94.206462 87.400971 
L 94.817634 87.400971 
L 94.817634 85.883443 
L 94.206462 85.883443 
z
" style="fill:#1d1d1d;"/>
   </g>
   <g id="patch_159">
    <path clip-path="url(#p92d6db4fb8)" d="M 94.715772 87.400971 
L 95.326944 87.400971 
L 95.326944 85.892354 
L 94.715772 85.892354 
z
" style="fill:#1d1d1d;"/>
   </g>
   <g id="patch_160">
    <path clip-path="url(#p92d6db4fb8)" d="M 95.225082 87.400971 
L 95.836254 87.400971 
L 95.836254 85.919754 
L 95.225082 85.919754 
z
" style="fill:#1d1d1d;"/>
   </g>
   <g id="patch_161">
    <path clip-path="url(#p92d6db4fb8)" d="M 95.734392 87.400971 
L 96.345564 87.400971 
L 96.345564 86.124808 
L 95.734392 86.124808 
z
" style="fill:#1d1d1d;"/>
   </g>
   <g id="patch_162">
    <path clip-path="url(#p92d6db4fb8)" d="M 96.243702 87.400971 
L 96.854874 87.400971 
L 96.854874 86.153762 
L 96.243702 86.153762 
z
" style="fill:#1d1d1d;"/>
   </g>
   <g id="patch_163">
    <path clip-path="url(#p92d6db4fb8)" d="M 96.753012 87.400971 
L 97.364184 87.400971 
L 97.364184 86.251584 
L 96.753012 86.251584 
z
" style="fill:#1d1d1d;"/>
   </g>
   <g id="patch_164">
    <path clip-path="url(#p92d6db4fb8)" d="M 97.262322 87.400971 
L 97.873494 87.400971 
L 97.873494 86.255469 
L 97.262322 86.255469 
z
" style="fill:#1d1d1d;"/>
   </g>
   <g id="patch_165">
    <path clip-path="url(#p92d6db4fb8)" d="M 97.771632 87.400971 
L 98.382804 87.400971 
L 98.382804 86.258723 
L 97.771632 86.258723 
z
" style="fill:#1d1d1d;"/>
   </g>
   <g id="patch_166">
    <path clip-path="url(#p92d6db4fb8)" d="M 98.280942 87.400971 
L 98.892114 87.400971 
L 98.892114 86.279562 
L 98.280942 86.279562 
z
" style="fill:#1d1d1d;"/>
   </g>
   <g id="patch_167">
    <path clip-path="url(#p92d6db4fb8)" d="M 98.790252 87.400971 
L 99.401424 87.400971 
L 99.401424 86.282199 
L 98.790252 86.282199 
z
" style="fill:#1d1d1d;"/>
   </g>
   <g id="patch_168">
    <path clip-path="url(#p92d6db4fb8)" d="M 99.299562 87.400971 
L 99.910734 87.400971 
L 99.910734 86.3134 
L 99.299562 86.3134 
z
" style="fill:#1d1d1d;"/>
   </g>
   <g id="patch_169">
    <path clip-path="url(#p92d6db4fb8)" d="M 99.808872 87.400971 
L 100.420044 87.400971 
L 100.420044 86.343565 
L 99.808872 86.343565 
z
" style="fill:#1d1d1d;"/>
   </g>
   <g id="patch_170">
    <path clip-path="url(#p92d6db4fb8)" d="M 100.318182 87.400971 
L 100.929354 87.400971 
L 100.929354 86.353242 
L 100.318182 86.353242 
z
" style="fill:#1d1d1d;"/>
   </g>
   <g id="patch_171">
    <path clip-path="url(#p92d6db4fb8)" d="M 100.827492 87.400971 
L 101.438664 87.400971 
L 101.438664 86.3626 
L 100.827492 86.3626 
z
" style="fill:#1d1d1d;"/>
   </g>
   <g id="patch_172">
    <path clip-path="url(#p92d6db4fb8)" d="M 101.336802 87.400971 
L 101.947974 87.400971 
L 101.947974 86.402326 
L 101.336802 86.402326 
z
" style="fill:#1d1d1d;"/>
   </g>
   <g id="patch_173">
    <path clip-path="url(#p92d6db4fb8)" d="M 101.846112 87.400971 
L 102.457284 87.400971 
L 102.457284 86.412717 
L 101.846112 86.412717 
z
" style="fill:#1d1d1d;"/>
   </g>
   <g id="patch_174">
    <path clip-path="url(#p92d6db4fb8)" d="M 102.355422 87.400971 
L 102.966594 87.400971 
L 102.966594 86.421602 
L 102.355422 86.421602 
z
" style="fill:#1d1d1d;"/>
   </g>
   <g id="patch_175">
    <path clip-path="url(#p92d6db4fb8)" d="M 102.864732 87.400971 
L 103.475904 87.400971 
L 103.475904 86.458622 
L 102.864732 86.458622 
z
" style="fill:#1d1d1d;"/>
   </g>
   <g id="patch_176">
    <path clip-path="url(#p92d6db4fb8)" d="M 103.374042 87.400971 
L 103.985214 87.400971 
L 103.985214 86.46436 
L 103.374042 86.46436 
z
" style="fill:#1d1d1d;"/>
   </g>
   <g id="patch_177">
    <path clip-path="url(#p92d6db4fb8)" d="M 103.883352 87.400971 
L 104.494524 87.400971 
L 104.494524 86.470053 
L 103.883352 86.470053 
z
" style="fill:#1d1d1d;"/>
   </g>
   <g id="patch_178">
    <path clip-path="url(#p92d6db4fb8)" d="M 104.392662 87.400971 
L 105.003834 87.400971 
L 105.003834 86.48078 
L 104.392662 86.48078 
z
" style="fill:#1d1d1d;"/>
   </g>
   <g id="patch_179">
    <path clip-path="url(#p92d6db4fb8)" d="M 104.901972 87.400971 
L 105.513143 87.400971 
L 105.513143 86.485075 
L 104.901972 86.485075 
z
" style="fill:#1d1d1d;"/>
   </g>
   <g id="patch_180">
    <path clip-path="url(#p92d6db4fb8)" d="M 105.411281 87.400971 
L 106.022453 87.400971 
L 106.022453 86.489547 
L 105.411281 86.489547 
z
" style="fill:#1d1d1d;"/>
   </g>
   <g id="patch_181">
    <path clip-path="url(#p92d6db4fb8)" d="M 105.920591 87.400971 
L 106.531763 87.400971 
L 106.531763 86.515475 
L 105.920591 86.515475 
z
" style="fill:#1d1d1d;"/>
   </g>
   <g id="patch_182">
    <path clip-path="url(#p92d6db4fb8)" d="M 106.429901 87.400971 
L 107.041073 87.400971 
L 107.041073 86.522696 
L 106.429901 86.522696 
z
" style="fill:#1d1d1d;"/>
   </g>
   <g id="patch_183">
    <path clip-path="url(#p92d6db4fb8)" d="M 106.939211 87.400971 
L 107.550383 87.400971 
L 107.550383 86.531423 
L 106.939211 86.531423 
z
" style="fill:#1d1d1d;"/>
   </g>
   <g id="patch_184">
    <path clip-path="url(#p92d6db4fb8)" d="M 107.448521 87.400971 
L 108.059693 87.400971 
L 108.059693 86.556418 
L 107.448521 86.556418 
z
" style="fill:#1d1d1d;"/>
   </g>
   <g id="patch_185">
    <path clip-path="url(#p92d6db4fb8)" d="M 107.957831 87.400971 
L 108.569003 87.400971 
L 108.569003 86.564048 
L 107.957831 86.564048 
z
" style="fill:#1d1d1d;"/>
   </g>
   <g id="patch_186">
    <path clip-path="url(#p92d6db4fb8)" d="M 108.467141 87.400971 
L 109.078313 87.400971 
L 109.078313 86.570908 
L 108.467141 86.570908 
z
" style="fill:#1d1d1d;"/>
   </g>
   <g id="patch_187">
    <path clip-path="url(#p92d6db4fb8)" d="M 108.976451 87.400971 
L 109.587623 87.400971 
L 109.587623 86.578999 
L 108.976451 86.578999 
z
" style="fill:#1d1d1d;"/>
   </g>
   <g id="patch_188">
    <path clip-path="url(#p92d6db4fb8)" d="M 109.485761 87.400971 
L 110.096933 87.400971 
L 110.096933 86.579531 
L 109.485761 86.579531 
z
" style="fill:#1d1d1d;"/>
   </g>
   <g id="patch_189">
    <path clip-path="url(#p92d6db4fb8)" d="M 109.995071 87.400971 
L 110.606243 87.400971 
L 110.606243 86.58553 
L 109.995071 86.58553 
z
" style="fill:#1d1d1d;"/>
   </g>
   <g id="patch_190">
    <path clip-path="url(#p92d6db4fb8)" d="M 110.504381 87.400971 
L 111.115553 87.400971 
L 111.115553 86.609291 
L 110.504381 86.609291 
z
" style="fill:#1d1d1d;"/>
   </g>
   <g id="patch_191">
    <path clip-path="url(#p92d6db4fb8)" d="M 111.013691 87.400971 
L 111.624863 87.400971 
L 111.624863 86.624169 
L 111.013691 86.624169 
z
" style="fill:#1d1d1d;"/>
   </g>
   <g id="patch_192">
    <path clip-path="url(#p92d6db4fb8)" d="M 111.523001 87.400971 
L 112.134173 87.400971 
L 112.134173 86.625525 
L 111.523001 86.625525 
z
" style="fill:#1d1d1d;"/>
   </g>
   <g id="patch_193">
    <path clip-path="url(#p92d6db4fb8)" d="M 112.032311 87.400971 
L 112.643483 87.400971 
L 112.643483 86.6278 
L 112.032311 86.6278 
z
" style="fill:#1d1d1d;"/>
   </g>
   <g id="patch_194">
    <path clip-path="url(#p92d6db4fb8)" d="M 112.541621 87.400971 
L 113.152793 87.400971 
L 113.152793 86.630493 
L 112.541621 86.630493 
z
" style="fill:#1d1d1d;"/>
   </g>
   <g id="patch_195">
    <path clip-path="url(#p92d6db4fb8)" d="M 113.050931 87.400971 
L 113.662103 87.400971 
L 113.662103 86.640113 
L 113.050931 86.640113 
z
" style="fill:#1d1d1d;"/>
   </g>
   <g id="patch_196">
    <path clip-path="url(#p92d6db4fb8)" d="M 113.560241 87.400971 
L 114.171413 87.400971 
L 114.171413 86.643752 
L 113.560241 86.643752 
z
" style="fill:#1d1d1d;"/>
   </g>
   <g id="patch_197">
    <path clip-path="url(#p92d6db4fb8)" d="M 114.069551 87.400971 
L 114.680723 87.400971 
L 114.680723 86.664762 
L 114.069551 86.664762 
z
" style="fill:#1d1d1d;"/>
   </g>
   <g id="patch_198">
    <path clip-path="url(#p92d6db4fb8)" d="M 114.578861 87.400971 
L 115.190033 87.400971 
L 115.190033 86.673036 
L 114.578861 86.673036 
z
" style="fill:#1d1d1d;"/>
   </g>
   <g id="patch_199">
    <path clip-path="url(#p92d6db4fb8)" d="M 115.088171 87.400971 
L 115.699343 87.400971 
L 115.699343 86.67856 
L 115.088171 86.67856 
z
" style="fill:#1d1d1d;"/>
   </g>
   <g id="patch_200">
    <path clip-path="url(#p92d6db4fb8)" d="M 115.597481 87.400971 
L 116.208653 87.400971 
L 116.208653 86.678771 
L 115.597481 86.678771 
z
" style="fill:#1d1d1d;"/>
   </g>
   <g id="patch_201">
    <path clip-path="url(#p92d6db4fb8)" d="M 116.106791 87.400971 
L 116.717963 87.400971 
L 116.717963 86.686837 
L 116.106791 86.686837 
z
" style="fill:#1d1d1d;"/>
   </g>
   <g id="patch_202">
    <path clip-path="url(#p92d6db4fb8)" d="M 116.616101 87.400971 
L 117.227273 87.400971 
L 117.227273 86.695344 
L 116.616101 86.695344 
z
" style="fill:#1d1d1d;"/>
   </g>
   <g id="matplotlib.axis_1"/>
   <g id="matplotlib.axis_2"/>
   <g id="patch_203">
    <path d="M 10.7 93.86 
L 10.7 10.7 
" style="fill:none;stroke:#000000;stroke-linecap:square;stroke-linejoin:miter;stroke-width:0.8;"/>
   </g>
   <g id="patch_204">
    <path d="M 122.3 93.86 
L 122.3 10.7 
" style="fill:none;stroke:#000000;stroke-linecap:square;stroke-linejoin:miter;stroke-width:0.8;"/>
   </g>
   <g id="patch_205">
    <path d="M 10.7 93.86 
L 122.3 93.86 
" style="fill:none;stroke:#000000;stroke-linecap:square;stroke-linejoin:miter;stroke-width:0.8;"/>
   </g>
   <g id="patch_206">
    <path d="M 10.7 10.7 
L 122.3 10.7 
" style="fill:none;stroke:#000000;stroke-linecap:square;stroke-linejoin:miter;stroke-width:0.8;"/>
   </g>
  </g>
 </g>
 <defs>
  <clipPath id="p92d6db4fb8">
   <rect height="83.16" width="111.6" x="10.7" y="10.7"/>
  </clipPath>
 </defs>
</svg>
