<?xml version="1.0" encoding="utf-8" standalone="no"?>
<!DOCTYPE svg PUBLIC "-//W3C//DTD SVG 1.1//EN"
  "http://www.w3.org/Graphics/SVG/1.1/DTD/svg11.dtd">
<!-- Created with matplotlib (http://matplotlib.org/) -->
<svg height="104pt" version="1.1" viewBox="0 0 133 104" width="133pt" xmlns="http://www.w3.org/2000/svg" xmlns:xlink="http://www.w3.org/1999/xlink">
 <defs>
  <style type="text/css">
*{stroke-linecap:butt;stroke-linejoin:round;}
  </style>
 </defs>
 <g id="figure_1">
  <g id="patch_1">
   <path d="M 0 104.56 
L 133 104.56 
L 133 0 
L 0 0 
z
" style="fill:#ffffff;"/>
  </g>
  <g id="axes_1">
   <g id="patch_2">
    <path d="M 10.7 93.86 
L 122.3 93.86 
L 122.3 10.7 
L 10.7 10.7 
z
" style="fill:#ffffff;"/>
   </g>
   <g id="patch_3">
    <path clip-path="url(#p8f03e2e82d)" d="M 15.772727 87.400971 
L 16.383899 87.400971 
L 16.383899 86.760365 
L 15.772727 86.760365 
z
" style="fill:#1d1d1d;"/>
   </g>
   <g id="patch_4">
    <path clip-path="url(#p8f03e2e82d)" d="M 16.282037 87.400971 
L 16.893209 87.400971 
L 16.893209 86.757367 
L 16.282037 86.757367 
z
" style="fill:#1d1d1d;"/>
   </g>
   <g id="patch_5">
    <path clip-path="url(#p8f03e2e82d)" d="M 16.791347 87.400971 
L 17.402519 87.400971 
L 17.402519 86.742604 
L 16.791347 86.742604 
z
" style="fill:#1d1d1d;"/>
   </g>
   <g id="patch_6">
    <path clip-path="url(#p8f03e2e82d)" d="M 17.300657 87.400971 
L 17.911829 87.400971 
L 17.911829 86.735853 
L 17.300657 86.735853 
z
" style="fill:#1d1d1d;"/>
   </g>
   <g id="patch_7">
    <path clip-path="url(#p8f03e2e82d)" d="M 17.809967 87.400971 
L 18.421139 87.400971 
L 18.421139 86.728898 
L 17.809967 86.728898 
z
" style="fill:#1d1d1d;"/>
   </g>
   <g id="patch_8">
    <path clip-path="url(#p8f03e2e82d)" d="M 18.319277 87.400971 
L 18.930449 87.400971 
L 18.930449 86.724215 
L 18.319277 86.724215 
z
" style="fill:#1d1d1d;"/>
   </g>
   <g id="patch_9">
    <path clip-path="url(#p8f03e2e82d)" d="M 18.828587 87.400971 
L 19.439759 87.400971 
L 19.439759 86.722506 
L 18.828587 86.722506 
z
" style="fill:#1d1d1d;"/>
   </g>
   <g id="patch_10">
    <path clip-path="url(#p8f03e2e82d)" d="M 19.337897 87.400971 
L 19.949069 87.400971 
L 19.949069 86.714135 
L 19.337897 86.714135 
z
" style="fill:#1d1d1d;"/>
   </g>
   <g id="patch_11">
    <path clip-path="url(#p8f03e2e82d)" d="M 19.847207 87.400971 
L 20.458379 87.400971 
L 20.458379 86.707667 
L 19.847207 86.707667 
z
" style="fill:#1d1d1d;"/>
   </g>
   <g id="patch_12">
    <path clip-path="url(#p8f03e2e82d)" d="M 20.356517 87.400971 
L 20.967689 87.400971 
L 20.967689 86.705961 
L 20.356517 86.705961 
z
" style="fill:#1d1d1d;"/>
   </g>
   <g id="patch_13">
    <path clip-path="url(#p8f03e2e82d)" d="M 20.865827 87.400971 
L 21.476999 87.400971 
L 21.476999 86.67165 
L 20.865827 86.67165 
z
" style="fill:#1d1d1d;"/>
   </g>
   <g id="patch_14">
    <path clip-path="url(#p8f03e2e82d)" d="M 21.375137 87.400971 
L 21.986309 87.400971 
L 21.986309 86.669576 
L 21.375137 86.669576 
z
" style="fill:#1d1d1d;"/>
   </g>
   <g id="patch_15">
    <path clip-path="url(#p8f03e2e82d)" d="M 21.884447 87.400971 
L 22.495619 87.400971 
L 22.495619 86.669018 
L 21.884447 86.669018 
z
" style="fill:#1d1d1d;"/>
   </g>
   <g id="patch_16">
    <path clip-path="url(#p8f03e2e82d)" d="M 22.393757 87.400971 
L 23.004929 87.400971 
L 23.004929 86.665761 
L 22.393757 86.665761 
z
" style="fill:#1d1d1d;"/>
   </g>
   <g id="patch_17">
    <path clip-path="url(#p8f03e2e82d)" d="M 22.903067 87.400971 
L 23.514239 87.400971 
L 23.514239 86.655084 
L 22.903067 86.655084 
z
" style="fill:#1d1d1d;"/>
   </g>
   <g id="patch_18">
    <path clip-path="url(#p8f03e2e82d)" d="M 23.412377 87.400971 
L 24.023549 87.400971 
L 24.023549 86.653758 
L 23.412377 86.653758 
z
" style="fill:#1d1d1d;"/>
   </g>
   <g id="patch_19">
    <path clip-path="url(#p8f03e2e82d)" d="M 23.921687 87.400971 
L 24.532859 87.400971 
L 24.532859 86.640902 
L 23.921687 86.640902 
z
" style="fill:#1d1d1d;"/>
   </g>
   <g id="patch_20">
    <path clip-path="url(#p8f03e2e82d)" d="M 24.430997 87.400971 
L 25.042169 87.400971 
L 25.042169 86.611991 
L 24.430997 86.611991 
z
" style="fill:#1d1d1d;"/>
   </g>
   <g id="patch_21">
    <path clip-path="url(#p8f03e2e82d)" d="M 24.940307 87.400971 
L 25.551479 87.400971 
L 25.551479 86.587819 
L 24.940307 86.587819 
z
" style="fill:#1d1d1d;"/>
   </g>
   <g id="patch_22">
    <path clip-path="url(#p8f03e2e82d)" d="M 25.449617 87.400971 
L 26.060789 87.400971 
L 26.060789 86.587617 
L 25.449617 86.587617 
z
" style="fill:#1d1d1d;"/>
   </g>
   <g id="patch_23">
    <path clip-path="url(#p8f03e2e82d)" d="M 25.958927 87.400971 
L 26.570099 87.400971 
L 26.570099 86.553327 
L 25.958927 86.553327 
z
" style="fill:#1d1d1d;"/>
   </g>
   <g id="patch_24">
    <path clip-path="url(#p8f03e2e82d)" d="M 26.468237 87.400971 
L 27.079409 87.400971 
L 27.079409 86.541917 
L 26.468237 86.541917 
z
" style="fill:#1d1d1d;"/>
   </g>
   <g id="patch_25">
    <path clip-path="url(#p8f03e2e82d)" d="M 26.977547 87.400971 
L 27.588719 87.400971 
L 27.588719 86.523117 
L 26.977547 86.523117 
z
" style="fill:#1d1d1d;"/>
   </g>
   <g id="patch_26">
    <path clip-path="url(#p8f03e2e82d)" d="M 27.486857 87.400971 
L 28.098028 87.400971 
L 28.098028 86.507862 
L 27.486857 86.507862 
z
" style="fill:#1d1d1d;"/>
   </g>
   <g id="patch_27">
    <path clip-path="url(#p8f03e2e82d)" d="M 27.996166 87.400971 
L 28.607338 87.400971 
L 28.607338 86.474307 
L 27.996166 86.474307 
z
" style="fill:#1d1d1d;"/>
   </g>
   <g id="patch_28">
    <path clip-path="url(#p8f03e2e82d)" d="M 28.505476 87.400971 
L 29.116648 87.400971 
L 29.116648 86.457985 
L 28.505476 86.457985 
z
" style="fill:#1d1d1d;"/>
   </g>
   <g id="patch_29">
    <path clip-path="url(#p8f03e2e82d)" d="M 29.014786 87.400971 
L 29.625958 87.400971 
L 29.625958 86.426043 
L 29.014786 86.426043 
z
" style="fill:#1d1d1d;"/>
   </g>
   <g id="patch_30">
    <path clip-path="url(#p8f03e2e82d)" d="M 29.524096 87.400971 
L 30.135268 87.400971 
L 30.135268 86.41964 
L 29.524096 86.41964 
z
" style="fill:#1d1d1d;"/>
   </g>
   <g id="patch_31">
    <path clip-path="url(#p8f03e2e82d)" d="M 30.033406 87.400971 
L 30.644578 87.400971 
L 30.644578 86.417832 
L 30.033406 86.417832 
z
" style="fill:#1d1d1d;"/>
   </g>
   <g id="patch_32">
    <path clip-path="url(#p8f03e2e82d)" d="M 30.542716 87.400971 
L 31.153888 87.400971 
L 31.153888 86.416682 
L 30.542716 86.416682 
z
" style="fill:#1d1d1d;"/>
   </g>
   <g id="patch_33">
    <path clip-path="url(#p8f03e2e82d)" d="M 31.052026 87.400971 
L 31.663198 87.400971 
L 31.663198 86.399016 
L 31.052026 86.399016 
z
" style="fill:#1d1d1d;"/>
   </g>
   <g id="patch_34">
    <path clip-path="url(#p8f03e2e82d)" d="M 31.561336 87.400971 
L 32.172508 87.400971 
L 32.172508 86.392605 
L 31.561336 86.392605 
z
" style="fill:#1d1d1d;"/>
   </g>
   <g id="patch_35">
    <path clip-path="url(#p8f03e2e82d)" d="M 32.070646 87.400971 
L 32.681818 87.400971 
L 32.681818 86.383729 
L 32.070646 86.383729 
z
" style="fill:#1d1d1d;"/>
   </g>
   <g id="patch_36">
    <path clip-path="url(#p8f03e2e82d)" d="M 32.579956 87.400971 
L 33.191128 87.400971 
L 33.191128 86.38179 
L 32.579956 86.38179 
z
" style="fill:#1d1d1d;"/>
   </g>
   <g id="patch_37">
    <path clip-path="url(#p8f03e2e82d)" d="M 33.089266 87.400971 
L 33.700438 87.400971 
L 33.700438 86.356847 
L 33.089266 86.356847 
z
" style="fill:#1d1d1d;"/>
   </g>
   <g id="patch_38">
    <path clip-path="url(#p8f03e2e82d)" d="M 33.598576 87.400971 
L 34.209748 87.400971 
L 34.209748 86.356161 
L 33.598576 86.356161 
z
" style="fill:#1d1d1d;"/>
   </g>
   <g id="patch_39">
    <path clip-path="url(#p8f03e2e82d)" d="M 34.107886 87.400971 
L 34.719058 87.400971 
L 34.719058 86.341836 
L 34.107886 86.341836 
z
" style="fill:#1d1d1d;"/>
   </g>
   <g id="patch_40">
    <path clip-path="url(#p8f03e2e82d)" d="M 34.617196 87.400971 
L 35.228368 87.400971 
L 35.228368 86.319558 
L 34.617196 86.319558 
z
" style="fill:#1d1d1d;"/>
   </g>
   <g id="patch_41">
    <path clip-path="url(#p8f03e2e82d)" d="M 35.126506 87.400971 
L 35.737678 87.400971 
L 35.737678 86.280886 
L 35.126506 86.280886 
z
" style="fill:#1d1d1d;"/>
   </g>
   <g id="patch_42">
    <path clip-path="url(#p8f03e2e82d)" d="M 35.635816 87.400971 
L 36.246988 87.400971 
L 36.246988 86.233159 
L 35.635816 86.233159 
z
" style="fill:#1d1d1d;"/>
   </g>
   <g id="patch_43">
    <path clip-path="url(#p8f03e2e82d)" d="M 36.145126 87.400971 
L 36.756298 87.400971 
L 36.756298 86.23006 
L 36.145126 86.23006 
z
" style="fill:#1d1d1d;"/>
   </g>
   <g id="patch_44">
    <path clip-path="url(#p8f03e2e82d)" d="M 36.654436 87.400971 
L 37.265608 87.400971 
L 37.265608 86.184998 
L 36.654436 86.184998 
z
" style="fill:#1d1d1d;"/>
   </g>
   <g id="patch_45">
    <path clip-path="url(#p8f03e2e82d)" d="M 37.163746 87.400971 
L 37.774918 87.400971 
L 37.774918 86.151037 
L 37.163746 86.151037 
z
" style="fill:#1d1d1d;"/>
   </g>
   <g id="patch_46">
    <path clip-path="url(#p8f03e2e82d)" d="M 37.673056 87.400971 
L 38.284228 87.400971 
L 38.284228 86.112434 
L 37.673056 86.112434 
z
" style="fill:#1d1d1d;"/>
   </g>
   <g id="patch_47">
    <path clip-path="url(#p8f03e2e82d)" d="M 38.182366 87.400971 
L 38.793538 87.400971 
L 38.793538 86.11018 
L 38.182366 86.11018 
z
" style="fill:#1d1d1d;"/>
   </g>
   <g id="patch_48">
    <path clip-path="url(#p8f03e2e82d)" d="M 38.691676 87.400971 
L 39.302848 87.400971 
L 39.302848 86.10982 
L 38.691676 86.10982 
z
" style="fill:#1d1d1d;"/>
   </g>
   <g id="patch_49">
    <path clip-path="url(#p8f03e2e82d)" d="M 39.200986 87.400971 
L 39.812158 87.400971 
L 39.812158 86.097853 
L 39.200986 86.097853 
z
" style="fill:#1d1d1d;"/>
   </g>
   <g id="patch_50">
    <path clip-path="url(#p8f03e2e82d)" d="M 39.710296 87.400971 
L 40.321468 87.400971 
L 40.321468 86.091164 
L 39.710296 86.091164 
z
" style="fill:#1d1d1d;"/>
   </g>
   <g id="patch_51">
    <path clip-path="url(#p8f03e2e82d)" d="M 40.219606 87.400971 
L 40.830778 87.400971 
L 40.830778 86.061808 
L 40.219606 86.061808 
z
" style="fill:#1d1d1d;"/>
   </g>
   <g id="patch_52">
    <path clip-path="url(#p8f03e2e82d)" d="M 40.728916 87.400971 
L 41.340088 87.400971 
L 41.340088 86.020328 
L 40.728916 86.020328 
z
" style="fill:#1d1d1d;"/>
   </g>
   <g id="patch_53">
    <path clip-path="url(#p8f03e2e82d)" d="M 41.238226 87.400971 
L 41.849398 87.400971 
L 41.849398 86.007885 
L 41.238226 86.007885 
z
" style="fill:#1d1d1d;"/>
   </g>
   <g id="patch_54">
    <path clip-path="url(#p8f03e2e82d)" d="M 41.747536 87.400971 
L 42.358708 87.400971 
L 42.358708 86.002479 
L 41.747536 86.002479 
z
" style="fill:#1d1d1d;"/>
   </g>
   <g id="patch_55">
    <path clip-path="url(#p8f03e2e82d)" d="M 42.256846 87.400971 
L 42.868018 87.400971 
L 42.868018 85.996261 
L 42.256846 85.996261 
z
" style="fill:#1d1d1d;"/>
   </g>
   <g id="patch_56">
    <path clip-path="url(#p8f03e2e82d)" d="M 42.766156 87.400971 
L 43.377327 87.400971 
L 43.377327 85.991887 
L 42.766156 85.991887 
z
" style="fill:#1d1d1d;"/>
   </g>
   <g id="patch_57">
    <path clip-path="url(#p8f03e2e82d)" d="M 43.275465 87.400971 
L 43.886637 87.400971 
L 43.886637 85.940626 
L 43.275465 85.940626 
z
" style="fill:#1d1d1d;"/>
   </g>
   <g id="patch_58">
    <path clip-path="url(#p8f03e2e82d)" d="M 43.784775 87.400971 
L 44.395947 87.400971 
L 44.395947 85.89653 
L 43.784775 85.89653 
z
" style="fill:#1d1d1d;"/>
   </g>
   <g id="patch_59">
    <path clip-path="url(#p8f03e2e82d)" d="M 44.294085 87.400971 
L 44.905257 87.400971 
L 44.905257 85.834745 
L 44.294085 85.834745 
z
" style="fill:#1d1d1d;"/>
   </g>
   <g id="patch_60">
    <path clip-path="url(#p8f03e2e82d)" d="M 44.803395 87.400971 
L 45.414567 87.400971 
L 45.414567 85.812311 
L 44.803395 85.812311 
z
" style="fill:#1d1d1d;"/>
   </g>
   <g id="patch_61">
    <path clip-path="url(#p8f03e2e82d)" d="M 45.312705 87.400971 
L 45.923877 87.400971 
L 45.923877 85.805194 
L 45.312705 85.805194 
z
" style="fill:#1d1d1d;"/>
   </g>
   <g id="patch_62">
    <path clip-path="url(#p8f03e2e82d)" d="M 45.822015 87.400971 
L 46.433187 87.400971 
L 46.433187 85.802627 
L 45.822015 85.802627 
z
" style="fill:#1d1d1d;"/>
   </g>
   <g id="patch_63">
    <path clip-path="url(#p8f03e2e82d)" d="M 46.331325 87.400971 
L 46.942497 87.400971 
L 46.942497 85.798821 
L 46.331325 85.798821 
z
" style="fill:#1d1d1d;"/>
   </g>
   <g id="patch_64">
    <path clip-path="url(#p8f03e2e82d)" d="M 46.840635 87.400971 
L 47.451807 87.400971 
L 47.451807 85.755177 
L 46.840635 85.755177 
z
" style="fill:#1d1d1d;"/>
   </g>
   <g id="patch_65">
    <path clip-path="url(#p8f03e2e82d)" d="M 47.349945 87.400971 
L 47.961117 87.400971 
L 47.961117 85.623983 
L 47.349945 85.623983 
z
" style="fill:#1d1d1d;"/>
   </g>
   <g id="patch_66">
    <path clip-path="url(#p8f03e2e82d)" d="M 47.859255 87.400971 
L 48.470427 87.400971 
L 48.470427 85.622538 
L 47.859255 85.622538 
z
" style="fill:#1d1d1d;"/>
   </g>
   <g id="patch_67">
    <path clip-path="url(#p8f03e2e82d)" d="M 48.368565 87.400971 
L 48.979737 87.400971 
L 48.979737 85.579978 
L 48.368565 85.579978 
z
" style="fill:#1d1d1d;"/>
   </g>
   <g id="patch_68">
    <path clip-path="url(#p8f03e2e82d)" d="M 48.877875 87.400971 
L 49.489047 87.400971 
L 49.489047 85.503337 
L 48.877875 85.503337 
z
" style="fill:#1d1d1d;"/>
   </g>
   <g id="patch_69">
    <path clip-path="url(#p8f03e2e82d)" d="M 49.387185 87.400971 
L 49.998357 87.400971 
L 49.998357 85.463538 
L 49.387185 85.463538 
z
" style="fill:#1d1d1d;"/>
   </g>
   <g id="patch_70">
    <path clip-path="url(#p8f03e2e82d)" d="M 49.896495 87.400971 
L 50.507667 87.400971 
L 50.507667 85.460794 
L 49.896495 85.460794 
z
" style="fill:#1d1d1d;"/>
   </g>
   <g id="patch_71">
    <path clip-path="url(#p8f03e2e82d)" d="M 50.405805 87.400971 
L 51.016977 87.400971 
L 51.016977 85.424517 
L 50.405805 85.424517 
z
" style="fill:#1d1d1d;"/>
   </g>
   <g id="patch_72">
    <path clip-path="url(#p8f03e2e82d)" d="M 50.915115 87.400971 
L 51.526287 87.400971 
L 51.526287 85.352025 
L 50.915115 85.352025 
z
" style="fill:#1d1d1d;"/>
   </g>
   <g id="patch_73">
    <path clip-path="url(#p8f03e2e82d)" d="M 51.424425 87.400971 
L 52.035597 87.400971 
L 52.035597 85.146932 
L 51.424425 85.146932 
z
" style="fill:#1d1d1d;"/>
   </g>
   <g id="patch_74">
    <path clip-path="url(#p8f03e2e82d)" d="M 51.933735 87.400971 
L 52.544907 87.400971 
L 52.544907 85.045631 
L 51.933735 85.045631 
z
" style="fill:#1d1d1d;"/>
   </g>
   <g id="patch_75">
    <path clip-path="url(#p8f03e2e82d)" d="M 52.443045 87.400971 
L 53.054217 87.400971 
L 53.054217 85.006361 
L 52.443045 85.006361 
z
" style="fill:#1d1d1d;"/>
   </g>
   <g id="patch_76">
    <path clip-path="url(#p8f03e2e82d)" d="M 52.952355 87.400971 
L 53.563527 87.400971 
L 53.563527 84.788219 
L 52.952355 84.788219 
z
" style="fill:#1d1d1d;"/>
   </g>
   <g id="patch_77">
    <path clip-path="url(#p8f03e2e82d)" d="M 53.461665 87.400971 
L 54.072837 87.400971 
L 54.072837 84.654146 
L 53.461665 84.654146 
z
" style="fill:#1d1d1d;"/>
   </g>
   <g id="patch_78">
    <path clip-path="url(#p8f03e2e82d)" d="M 53.970975 87.400971 
L 54.582147 87.400971 
L 54.582147 84.38128 
L 53.970975 84.38128 
z
" style="fill:#1d1d1d;"/>
   </g>
   <g id="patch_79">
    <path clip-path="url(#p8f03e2e82d)" d="M 54.480285 87.400971 
L 55.091457 87.400971 
L 55.091457 84.263749 
L 54.480285 84.263749 
z
" style="fill:#1d1d1d;"/>
   </g>
   <g id="patch_80">
    <path clip-path="url(#p8f03e2e82d)" d="M 54.989595 87.400971 
L 55.600767 87.400971 
L 55.600767 84.184405 
L 54.989595 84.184405 
z
" style="fill:#1d1d1d;"/>
   </g>
   <g id="patch_81">
    <path clip-path="url(#p8f03e2e82d)" d="M 55.498905 87.400971 
L 56.110077 87.400971 
L 56.110077 84.152632 
L 55.498905 84.152632 
z
" style="fill:#1d1d1d;"/>
   </g>
   <g id="patch_82">
    <path clip-path="url(#p8f03e2e82d)" d="M 56.008215 87.400971 
L 56.619387 87.400971 
L 56.619387 83.885033 
L 56.008215 83.885033 
z
" style="fill:#1d1d1d;"/>
   </g>
   <g id="patch_83">
    <path clip-path="url(#p8f03e2e82d)" d="M 56.517525 87.400971 
L 57.128697 87.400971 
L 57.128697 83.608223 
L 56.517525 83.608223 
z
" style="fill:#1d1d1d;"/>
   </g>
   <g id="patch_84">
    <path clip-path="url(#p8f03e2e82d)" d="M 57.026835 87.400971 
L 57.638007 87.400971 
L 57.638007 83.577476 
L 57.026835 83.577476 
z
" style="fill:#1d1d1d;"/>
   </g>
   <g id="patch_85">
    <path clip-path="url(#p8f03e2e82d)" d="M 57.536145 87.400971 
L 58.147317 87.400971 
L 58.147317 83.572265 
L 57.536145 83.572265 
z
" style="fill:#1d1d1d;"/>
   </g>
   <g id="patch_86">
    <path clip-path="url(#p8f03e2e82d)" d="M 58.045455 87.400971 
L 58.656627 87.400971 
L 58.656627 82.896661 
L 58.045455 82.896661 
z
" style="fill:#1d1d1d;"/>
   </g>
   <g id="patch_87">
    <path clip-path="url(#p8f03e2e82d)" d="M 58.554765 87.400971 
L 59.165936 87.400971 
L 59.165936 82.835635 
L 58.554765 82.835635 
z
" style="fill:#1d1d1d;"/>
   </g>
   <g id="patch_88">
    <path clip-path="url(#p8f03e2e82d)" d="M 59.064074 87.400971 
L 59.675246 87.400971 
L 59.675246 82.821503 
L 59.064074 82.821503 
z
" style="fill:#1d1d1d;"/>
   </g>
   <g id="patch_89">
    <path clip-path="url(#p8f03e2e82d)" d="M 59.573384 87.400971 
L 60.184556 87.400971 
L 60.184556 82.70352 
L 59.573384 82.70352 
z
" style="fill:#1d1d1d;"/>
   </g>
   <g id="patch_90">
    <path clip-path="url(#p8f03e2e82d)" d="M 60.082694 87.400971 
L 60.693866 87.400971 
L 60.693866 82.315949 
L 60.082694 82.315949 
z
" style="fill:#1d1d1d;"/>
   </g>
   <g id="patch_91">
    <path clip-path="url(#p8f03e2e82d)" d="M 60.592004 87.400971 
L 61.203176 87.400971 
L 61.203176 82.298599 
L 60.592004 82.298599 
z
" style="fill:#1d1d1d;"/>
   </g>
   <g id="patch_92">
    <path clip-path="url(#p8f03e2e82d)" d="M 61.101314 87.400971 
L 61.712486 87.400971 
L 61.712486 80.804803 
L 61.101314 80.804803 
z
" style="fill:#1d1d1d;"/>
   </g>
   <g id="patch_93">
    <path clip-path="url(#p8f03e2e82d)" d="M 61.610624 87.400971 
L 62.221796 87.400971 
L 62.221796 79.904762 
L 61.610624 79.904762 
z
" style="fill:#1d1d1d;"/>
   </g>
   <g id="patch_94">
    <path clip-path="url(#p8f03e2e82d)" d="M 62.119934 87.400971 
L 62.731106 87.400971 
L 62.731106 79.215761 
L 62.119934 79.215761 
z
" style="fill:#1d1d1d;"/>
   </g>
   <g id="patch_95">
    <path clip-path="url(#p8f03e2e82d)" d="M 62.629244 87.400971 
L 63.240416 87.400971 
L 63.240416 78.91543 
L 62.629244 78.91543 
z
" style="fill:#1d1d1d;"/>
   </g>
   <g id="patch_96">
    <path clip-path="url(#p8f03e2e82d)" d="M 63.138554 87.400971 
L 63.749726 87.400971 
L 63.749726 77.97105 
L 63.138554 77.97105 
z
" style="fill:#1d1d1d;"/>
   </g>
   <g id="patch_97">
    <path clip-path="url(#p8f03e2e82d)" d="M 63.647864 87.400971 
L 64.259036 87.400971 
L 64.259036 77.823028 
L 63.647864 77.823028 
z
" style="fill:#1d1d1d;"/>
   </g>
   <g id="patch_98">
    <path clip-path="url(#p8f03e2e82d)" d="M 64.157174 87.400971 
L 64.768346 87.400971 
L 64.768346 73.528206 
L 64.157174 73.528206 
z
" style="fill:#1d1d1d;"/>
   </g>
   <g id="patch_99">
    <path clip-path="url(#p8f03e2e82d)" d="M 64.666484 87.400971 
L 65.277656 87.400971 
L 65.277656 72.104487 
L 64.666484 72.104487 
z
" style="fill:#1d1d1d;"/>
   </g>
   <g id="patch_100">
    <path clip-path="url(#p8f03e2e82d)" d="M 65.175794 87.400971 
L 65.786966 87.400971 
L 65.786966 70.350549 
L 65.175794 70.350549 
z
" style="fill:#1d1d1d;"/>
   </g>
   <g id="patch_101">
    <path clip-path="url(#p8f03e2e82d)" d="M 65.685104 87.400971 
L 66.296276 87.400971 
L 66.296276 65.668603 
L 65.685104 65.668603 
z
" style="fill:#1d1d1d;"/>
   </g>
   <g id="patch_102">
    <path clip-path="url(#p8f03e2e82d)" d="M 66.194414 87.400971 
L 66.805586 87.400971 
L 66.805586 52.560488 
L 66.194414 52.560488 
z
" style="fill:#1d1d1d;"/>
   </g>
   <g id="patch_103">
    <path clip-path="url(#p8f03e2e82d)" d="M 66.194414 87.400971 
L 66.805586 87.400971 
L 66.805586 52.560488 
L 66.194414 52.560488 
z
" style="fill:#1d1d1d;"/>
   </g>
   <g id="patch_104">
    <path clip-path="url(#p8f03e2e82d)" d="M 66.703724 87.400971 
L 67.314896 87.400971 
L 67.314896 42.972507 
L 66.703724 42.972507 
z
" style="fill:#1d1d1d;"/>
   </g>
   <g id="patch_105">
    <path clip-path="url(#p8f03e2e82d)" d="M 67.213034 87.400971 
L 67.824206 87.400971 
L 67.824206 66.73481 
L 67.213034 66.73481 
z
" style="fill:#1d1d1d;"/>
   </g>
   <g id="patch_106">
    <path clip-path="url(#p8f03e2e82d)" d="M 67.722344 87.400971 
L 68.333516 87.400971 
L 68.333516 74.723349 
L 67.722344 74.723349 
z
" style="fill:#1d1d1d;"/>
   </g>
   <g id="patch_107">
    <path clip-path="url(#p8f03e2e82d)" d="M 68.231654 87.400971 
L 68.842826 87.400971 
L 68.842826 75.376695 
L 68.231654 75.376695 
z
" style="fill:#1d1d1d;"/>
   </g>
   <g id="patch_108">
    <path clip-path="url(#p8f03e2e82d)" d="M 68.740964 87.400971 
L 69.352136 87.400971 
L 69.352136 77.520713 
L 68.740964 77.520713 
z
" style="fill:#1d1d1d;"/>
   </g>
   <g id="patch_109">
    <path clip-path="url(#p8f03e2e82d)" d="M 69.250274 87.400971 
L 69.861446 87.400971 
L 69.861446 80.020545 
L 69.250274 80.020545 
z
" style="fill:#1d1d1d;"/>
   </g>
   <g id="patch_110">
    <path clip-path="url(#p8f03e2e82d)" d="M 69.759584 87.400971 
L 70.370756 87.400971 
L 70.370756 80.702898 
L 69.759584 80.702898 
z
" style="fill:#1d1d1d;"/>
   </g>
   <g id="patch_111">
    <path clip-path="url(#p8f03e2e82d)" d="M 70.268894 87.400971 
L 70.880066 87.400971 
L 70.880066 82.424255 
L 70.268894 82.424255 
z
" style="fill:#1d1d1d;"/>
   </g>
   <g id="patch_112">
    <path clip-path="url(#p8f03e2e82d)" d="M 70.778204 87.400971 
L 71.389376 87.400971 
L 71.389376 82.906678 
L 70.778204 82.906678 
z
" style="fill:#1d1d1d;"/>
   </g>
   <g id="patch_113">
    <path clip-path="url(#p8f03e2e82d)" d="M 71.287514 87.400971 
L 71.898686 87.400971 
L 71.898686 83.068076 
L 71.287514 83.068076 
z
" style="fill:#1d1d1d;"/>
   </g>
   <g id="patch_114">
    <path clip-path="url(#p8f03e2e82d)" d="M 71.796824 87.400971 
L 72.407996 87.400971 
L 72.407996 83.27348 
L 71.796824 83.27348 
z
" style="fill:#1d1d1d;"/>
   </g>
   <g id="patch_115">
    <path clip-path="url(#p8f03e2e82d)" d="M 72.306134 87.400971 
L 72.917306 87.400971 
L 72.917306 83.484007 
L 72.306134 83.484007 
z
" style="fill:#1d1d1d;"/>
   </g>
   <g id="patch_116">
    <path clip-path="url(#p8f03e2e82d)" d="M 72.815444 87.400971 
L 73.426616 87.400971 
L 73.426616 83.659883 
L 72.815444 83.659883 
z
" style="fill:#1d1d1d;"/>
   </g>
   <g id="patch_117">
    <path clip-path="url(#p8f03e2e82d)" d="M 73.324754 87.400971 
L 73.935926 87.400971 
L 73.935926 83.705919 
L 73.324754 83.705919 
z
" style="fill:#1d1d1d;"/>
   </g>
   <g id="patch_118">
    <path clip-path="url(#p8f03e2e82d)" d="M 73.834064 87.400971 
L 74.445235 87.400971 
L 74.445235 83.981095 
L 73.834064 83.981095 
z
" style="fill:#1d1d1d;"/>
   </g>
   <g id="patch_119">
    <path clip-path="url(#p8f03e2e82d)" d="M 74.343373 87.400971 
L 74.954545 87.400971 
L 74.954545 84.152157 
L 74.343373 84.152157 
z
" style="fill:#1d1d1d;"/>
   </g>
   <g id="patch_120">
    <path clip-path="url(#p8f03e2e82d)" d="M 74.852683 87.400971 
L 75.463855 87.400971 
L 75.463855 84.528397 
L 74.852683 84.528397 
z
" style="fill:#1d1d1d;"/>
   </g>
   <g id="patch_121">
    <path clip-path="url(#p8f03e2e82d)" d="M 75.361993 87.400971 
L 75.973165 87.400971 
L 75.973165 84.571196 
L 75.361993 84.571196 
z
" style="fill:#1d1d1d;"/>
   </g>
   <g id="patch_122">
    <path clip-path="url(#p8f03e2e82d)" d="M 75.871303 87.400971 
L 76.482475 87.400971 
L 76.482475 84.635933 
L 75.871303 84.635933 
z
" style="fill:#1d1d1d;"/>
   </g>
   <g id="patch_123">
    <path clip-path="url(#p8f03e2e82d)" d="M 76.380613 87.400971 
L 76.991785 87.400971 
L 76.991785 84.655853 
L 76.380613 84.655853 
z
" style="fill:#1d1d1d;"/>
   </g>
   <g id="patch_124">
    <path clip-path="url(#p8f03e2e82d)" d="M 76.889923 87.400971 
L 77.501095 87.400971 
L 77.501095 84.661261 
L 76.889923 84.661261 
z
" style="fill:#1d1d1d;"/>
   </g>
   <g id="patch_125">
    <path clip-path="url(#p8f03e2e82d)" d="M 77.399233 87.400971 
L 78.010405 87.400971 
L 78.010405 84.709743 
L 77.399233 84.709743 
z
" style="fill:#1d1d1d;"/>
   </g>
   <g id="patch_126">
    <path clip-path="url(#p8f03e2e82d)" d="M 77.908543 87.400971 
L 78.519715 87.400971 
L 78.519715 84.712723 
L 77.908543 84.712723 
z
" style="fill:#1d1d1d;"/>
   </g>
   <g id="patch_127">
    <path clip-path="url(#p8f03e2e82d)" d="M 78.417853 87.400971 
L 79.029025 87.400971 
L 79.029025 84.865142 
L 78.417853 84.865142 
z
" style="fill:#1d1d1d;"/>
   </g>
   <g id="patch_128">
    <path clip-path="url(#p8f03e2e82d)" d="M 78.927163 87.400971 
L 79.538335 87.400971 
L 79.538335 84.883695 
L 78.927163 84.883695 
z
" style="fill:#1d1d1d;"/>
   </g>
   <g id="patch_129">
    <path clip-path="url(#p8f03e2e82d)" d="M 79.436473 87.400971 
L 80.047645 87.400971 
L 80.047645 84.958507 
L 79.436473 84.958507 
z
" style="fill:#1d1d1d;"/>
   </g>
   <g id="patch_130">
    <path clip-path="url(#p8f03e2e82d)" d="M 79.945783 87.400971 
L 80.556955 87.400971 
L 80.556955 85.058866 
L 79.945783 85.058866 
z
" style="fill:#1d1d1d;"/>
   </g>
   <g id="patch_131">
    <path clip-path="url(#p8f03e2e82d)" d="M 80.455093 87.400971 
L 81.066265 87.400971 
L 81.066265 85.12108 
L 80.455093 85.12108 
z
" style="fill:#1d1d1d;"/>
   </g>
   <g id="patch_132">
    <path clip-path="url(#p8f03e2e82d)" d="M 80.964403 87.400971 
L 81.575575 87.400971 
L 81.575575 85.12269 
L 80.964403 85.12269 
z
" style="fill:#1d1d1d;"/>
   </g>
   <g id="patch_133">
    <path clip-path="url(#p8f03e2e82d)" d="M 81.473713 87.400971 
L 82.084885 87.400971 
L 82.084885 85.167049 
L 81.473713 85.167049 
z
" style="fill:#1d1d1d;"/>
   </g>
   <g id="patch_134">
    <path clip-path="url(#p8f03e2e82d)" d="M 81.983023 87.400971 
L 82.594195 87.400971 
L 82.594195 85.242061 
L 81.983023 85.242061 
z
" style="fill:#1d1d1d;"/>
   </g>
   <g id="patch_135">
    <path clip-path="url(#p8f03e2e82d)" d="M 82.492333 87.400971 
L 83.103505 87.400971 
L 83.103505 85.319944 
L 82.492333 85.319944 
z
" style="fill:#1d1d1d;"/>
   </g>
   <g id="patch_136">
    <path clip-path="url(#p8f03e2e82d)" d="M 83.001643 87.400971 
L 83.612815 87.400971 
L 83.612815 85.330606 
L 83.001643 85.330606 
z
" style="fill:#1d1d1d;"/>
   </g>
   <g id="patch_137">
    <path clip-path="url(#p8f03e2e82d)" d="M 83.510953 87.400971 
L 84.122125 87.400971 
L 84.122125 85.390722 
L 83.510953 85.390722 
z
" style="fill:#1d1d1d;"/>
   </g>
   <g id="patch_138">
    <path clip-path="url(#p8f03e2e82d)" d="M 84.020263 87.400971 
L 84.631435 87.400971 
L 84.631435 85.50833 
L 84.020263 85.50833 
z
" style="fill:#1d1d1d;"/>
   </g>
   <g id="patch_139">
    <path clip-path="url(#p8f03e2e82d)" d="M 84.529573 87.400971 
L 85.140745 87.400971 
L 85.140745 85.541104 
L 84.529573 85.541104 
z
" style="fill:#1d1d1d;"/>
   </g>
   <g id="patch_140">
    <path clip-path="url(#p8f03e2e82d)" d="M 85.038883 87.400971 
L 85.650055 87.400971 
L 85.650055 85.550445 
L 85.038883 85.550445 
z
" style="fill:#1d1d1d;"/>
   </g>
   <g id="patch_141">
    <path clip-path="url(#p8f03e2e82d)" d="M 85.548193 87.400971 
L 86.159365 87.400971 
L 86.159365 85.584162 
L 85.548193 85.584162 
z
" style="fill:#1d1d1d;"/>
   </g>
   <g id="patch_142">
    <path clip-path="url(#p8f03e2e82d)" d="M 86.057503 87.400971 
L 86.668675 87.400971 
L 86.668675 85.686753 
L 86.057503 85.686753 
z
" style="fill:#1d1d1d;"/>
   </g>
   <g id="patch_143">
    <path clip-path="url(#p8f03e2e82d)" d="M 86.566813 87.400971 
L 87.177985 87.400971 
L 87.177985 85.729037 
L 86.566813 85.729037 
z
" style="fill:#1d1d1d;"/>
   </g>
   <g id="patch_144">
    <path clip-path="url(#p8f03e2e82d)" d="M 87.076123 87.400971 
L 87.687295 87.400971 
L 87.687295 85.751698 
L 87.076123 85.751698 
z
" style="fill:#1d1d1d;"/>
   </g>
   <g id="patch_145">
    <path clip-path="url(#p8f03e2e82d)" d="M 87.585433 87.400971 
L 88.196605 87.400971 
L 88.196605 85.828971 
L 87.585433 85.828971 
z
" style="fill:#1d1d1d;"/>
   </g>
   <g id="patch_146">
    <path clip-path="url(#p8f03e2e82d)" d="M 88.094743 87.400971 
L 88.705915 87.400971 
L 88.705915 85.917844 
L 88.094743 85.917844 
z
" style="fill:#1d1d1d;"/>
   </g>
   <g id="patch_147">
    <path clip-path="url(#p8f03e2e82d)" d="M 88.604053 87.400971 
L 89.215225 87.400971 
L 89.215225 85.931675 
L 88.604053 85.931675 
z
" style="fill:#1d1d1d;"/>
   </g>
   <g id="patch_148">
    <path clip-path="url(#p8f03e2e82d)" d="M 89.113363 87.400971 
L 89.724535 87.400971 
L 89.724535 86.103986 
L 89.113363 86.103986 
z
" style="fill:#1d1d1d;"/>
   </g>
   <g id="patch_149">
    <path clip-path="url(#p8f03e2e82d)" d="M 89.622673 87.400971 
L 90.233844 87.400971 
L 90.233844 86.135561 
L 89.622673 86.135561 
z
" style="fill:#1d1d1d;"/>
   </g>
   <g id="patch_150">
    <path clip-path="url(#p8f03e2e82d)" d="M 90.131982 87.400971 
L 90.743154 87.400971 
L 90.743154 86.14316 
L 90.131982 86.14316 
z
" style="fill:#1d1d1d;"/>
   </g>
   <g id="patch_151">
    <path clip-path="url(#p8f03e2e82d)" d="M 90.641292 87.400971 
L 91.252464 87.400971 
L 91.252464 86.17975 
L 90.641292 86.17975 
z
" style="fill:#1d1d1d;"/>
   </g>
   <g id="patch_152">
    <path clip-path="url(#p8f03e2e82d)" d="M 91.150602 87.400971 
L 91.761774 87.400971 
L 91.761774 86.212894 
L 91.150602 86.212894 
z
" style="fill:#1d1d1d;"/>
   </g>
   <g id="patch_153">
    <path clip-path="url(#p8f03e2e82d)" d="M 91.659912 87.400971 
L 92.271084 87.400971 
L 92.271084 86.234254 
L 91.659912 86.234254 
z
" style="fill:#1d1d1d;"/>
   </g>
   <g id="patch_154">
    <path clip-path="url(#p8f03e2e82d)" d="M 92.169222 87.400971 
L 92.780394 87.400971 
L 92.780394 86.235708 
L 92.169222 86.235708 
z
" style="fill:#1d1d1d;"/>
   </g>
   <g id="patch_155">
    <path clip-path="url(#p8f03e2e82d)" d="M 92.678532 87.400971 
L 93.289704 87.400971 
L 93.289704 86.256349 
L 92.678532 86.256349 
z
" style="fill:#1d1d1d;"/>
   </g>
   <g id="patch_156">
    <path clip-path="url(#p8f03e2e82d)" d="M 93.187842 87.400971 
L 93.799014 87.400971 
L 93.799014 86.276739 
L 93.187842 86.276739 
z
" style="fill:#1d1d1d;"/>
   </g>
   <g id="patch_157">
    <path clip-path="url(#p8f03e2e82d)" d="M 93.697152 87.400971 
L 94.308324 87.400971 
L 94.308324 86.281477 
L 93.697152 86.281477 
z
" style="fill:#1d1d1d;"/>
   </g>
   <g id="patch_158">
    <path clip-path="url(#p8f03e2e82d)" d="M 94.206462 87.400971 
L 94.817634 87.400971 
L 94.817634 86.294713 
L 94.206462 86.294713 
z
" style="fill:#1d1d1d;"/>
   </g>
   <g id="patch_159">
    <path clip-path="url(#p8f03e2e82d)" d="M 94.715772 87.400971 
L 95.326944 87.400971 
L 95.326944 86.303977 
L 94.715772 86.303977 
z
" style="fill:#1d1d1d;"/>
   </g>
   <g id="patch_160">
    <path clip-path="url(#p8f03e2e82d)" d="M 95.225082 87.400971 
L 95.836254 87.400971 
L 95.836254 86.309164 
L 95.225082 86.309164 
z
" style="fill:#1d1d1d;"/>
   </g>
   <g id="patch_161">
    <path clip-path="url(#p8f03e2e82d)" d="M 95.734392 87.400971 
L 96.345564 87.400971 
L 96.345564 86.310322 
L 95.734392 86.310322 
z
" style="fill:#1d1d1d;"/>
   </g>
   <g id="patch_162">
    <path clip-path="url(#p8f03e2e82d)" d="M 96.243702 87.400971 
L 96.854874 87.400971 
L 96.854874 86.323303 
L 96.243702 86.323303 
z
" style="fill:#1d1d1d;"/>
   </g>
   <g id="patch_163">
    <path clip-path="url(#p8f03e2e82d)" d="M 96.753012 87.400971 
L 97.364184 87.400971 
L 97.364184 86.344534 
L 96.753012 86.344534 
z
" style="fill:#1d1d1d;"/>
   </g>
   <g id="patch_164">
    <path clip-path="url(#p8f03e2e82d)" d="M 97.262322 87.400971 
L 97.873494 87.400971 
L 97.873494 86.347212 
L 97.262322 86.347212 
z
" style="fill:#1d1d1d;"/>
   </g>
   <g id="patch_165">
    <path clip-path="url(#p8f03e2e82d)" d="M 97.771632 87.400971 
L 98.382804 87.400971 
L 98.382804 86.352124 
L 97.771632 86.352124 
z
" style="fill:#1d1d1d;"/>
   </g>
   <g id="patch_166">
    <path clip-path="url(#p8f03e2e82d)" d="M 98.280942 87.400971 
L 98.892114 87.400971 
L 98.892114 86.363728 
L 98.280942 86.363728 
z
" style="fill:#1d1d1d;"/>
   </g>
   <g id="patch_167">
    <path clip-path="url(#p8f03e2e82d)" d="M 98.790252 87.400971 
L 99.401424 87.400971 
L 99.401424 86.366463 
L 98.790252 86.366463 
z
" style="fill:#1d1d1d;"/>
   </g>
   <g id="patch_168">
    <path clip-path="url(#p8f03e2e82d)" d="M 99.299562 87.400971 
L 99.910734 87.400971 
L 99.910734 86.378323 
L 99.299562 86.378323 
z
" style="fill:#1d1d1d;"/>
   </g>
   <g id="patch_169">
    <path clip-path="url(#p8f03e2e82d)" d="M 99.808872 87.400971 
L 100.420044 87.400971 
L 100.420044 86.383374 
L 99.808872 86.383374 
z
" style="fill:#1d1d1d;"/>
   </g>
   <g id="patch_170">
    <path clip-path="url(#p8f03e2e82d)" d="M 100.318182 87.400971 
L 100.929354 87.400971 
L 100.929354 86.447912 
L 100.318182 86.447912 
z
" style="fill:#1d1d1d;"/>
   </g>
   <g id="patch_171">
    <path clip-path="url(#p8f03e2e82d)" d="M 100.827492 87.400971 
L 101.438664 87.400971 
L 101.438664 86.460234 
L 100.827492 86.460234 
z
" style="fill:#1d1d1d;"/>
   </g>
   <g id="patch_172">
    <path clip-path="url(#p8f03e2e82d)" d="M 101.336802 87.400971 
L 101.947974 87.400971 
L 101.947974 86.494638 
L 101.336802 86.494638 
z
" style="fill:#1d1d1d;"/>
   </g>
   <g id="patch_173">
    <path clip-path="url(#p8f03e2e82d)" d="M 101.846112 87.400971 
L 102.457284 87.400971 
L 102.457284 86.495063 
L 101.846112 86.495063 
z
" style="fill:#1d1d1d;"/>
   </g>
   <g id="patch_174">
    <path clip-path="url(#p8f03e2e82d)" d="M 102.355422 87.400971 
L 102.966594 87.400971 
L 102.966594 86.498231 
L 102.355422 86.498231 
z
" style="fill:#1d1d1d;"/>
   </g>
   <g id="patch_175">
    <path clip-path="url(#p8f03e2e82d)" d="M 102.864732 87.400971 
L 103.475904 87.400971 
L 103.475904 86.510701 
L 102.864732 86.510701 
z
" style="fill:#1d1d1d;"/>
   </g>
   <g id="patch_176">
    <path clip-path="url(#p8f03e2e82d)" d="M 103.374042 87.400971 
L 103.985214 87.400971 
L 103.985214 86.523706 
L 103.374042 86.523706 
z
" style="fill:#1d1d1d;"/>
   </g>
   <g id="patch_177">
    <path clip-path="url(#p8f03e2e82d)" d="M 103.883352 87.400971 
L 104.494524 87.400971 
L 104.494524 86.534691 
L 103.883352 86.534691 
z
" style="fill:#1d1d1d;"/>
   </g>
   <g id="patch_178">
    <path clip-path="url(#p8f03e2e82d)" d="M 104.392662 87.400971 
L 105.003834 87.400971 
L 105.003834 86.535361 
L 104.392662 86.535361 
z
" style="fill:#1d1d1d;"/>
   </g>
   <g id="patch_179">
    <path clip-path="url(#p8f03e2e82d)" d="M 104.901972 87.400971 
L 105.513143 87.400971 
L 105.513143 86.540707 
L 104.901972 86.540707 
z
" style="fill:#1d1d1d;"/>
   </g>
   <g id="patch_180">
    <path clip-path="url(#p8f03e2e82d)" d="M 105.411281 87.400971 
L 106.022453 87.400971 
L 106.022453 86.571159 
L 105.411281 86.571159 
z
" style="fill:#1d1d1d;"/>
   </g>
   <g id="patch_181">
    <path clip-path="url(#p8f03e2e82d)" d="M 105.920591 87.400971 
L 106.531763 87.400971 
L 106.531763 86.577555 
L 105.920591 86.577555 
z
" style="fill:#1d1d1d;"/>
   </g>
   <g id="patch_182">
    <path clip-path="url(#p8f03e2e82d)" d="M 106.429901 87.400971 
L 107.041073 87.400971 
L 107.041073 86.604342 
L 106.429901 86.604342 
z
" style="fill:#1d1d1d;"/>
   </g>
   <g id="patch_183">
    <path clip-path="url(#p8f03e2e82d)" d="M 106.939211 87.400971 
L 107.550383 87.400971 
L 107.550383 86.613015 
L 106.939211 86.613015 
z
" style="fill:#1d1d1d;"/>
   </g>
   <g id="patch_184">
    <path clip-path="url(#p8f03e2e82d)" d="M 107.448521 87.400971 
L 108.059693 87.400971 
L 108.059693 86.616116 
L 107.448521 86.616116 
z
" style="fill:#1d1d1d;"/>
   </g>
   <g id="patch_185">
    <path clip-path="url(#p8f03e2e82d)" d="M 107.957831 87.400971 
L 108.569003 87.400971 
L 108.569003 86.617819 
L 107.957831 86.617819 
z
" style="fill:#1d1d1d;"/>
   </g>
   <g id="patch_186">
    <path clip-path="url(#p8f03e2e82d)" d="M 108.467141 87.400971 
L 109.078313 87.400971 
L 109.078313 86.646708 
L 108.467141 86.646708 
z
" style="fill:#1d1d1d;"/>
   </g>
   <g id="patch_187">
    <path clip-path="url(#p8f03e2e82d)" d="M 108.976451 87.400971 
L 109.587623 87.400971 
L 109.587623 86.651098 
L 108.976451 86.651098 
z
" style="fill:#1d1d1d;"/>
   </g>
   <g id="patch_188">
    <path clip-path="url(#p8f03e2e82d)" d="M 109.485761 87.400971 
L 110.096933 87.400971 
L 110.096933 86.653097 
L 109.485761 86.653097 
z
" style="fill:#1d1d1d;"/>
   </g>
   <g id="patch_189">
    <path clip-path="url(#p8f03e2e82d)" d="M 109.995071 87.400971 
L 110.606243 87.400971 
L 110.606243 86.65367 
L 109.995071 86.65367 
z
" style="fill:#1d1d1d;"/>
   </g>
   <g id="patch_190">
    <path clip-path="url(#p8f03e2e82d)" d="M 110.504381 87.400971 
L 111.115553 87.400971 
L 111.115553 86.66208 
L 110.504381 86.66208 
z
" style="fill:#1d1d1d;"/>
   </g>
   <g id="patch_191">
    <path clip-path="url(#p8f03e2e82d)" d="M 111.013691 87.400971 
L 111.624863 87.400971 
L 111.624863 86.681 
L 111.013691 86.681 
z
" style="fill:#1d1d1d;"/>
   </g>
   <g id="patch_192">
    <path clip-path="url(#p8f03e2e82d)" d="M 111.523001 87.400971 
L 112.134173 87.400971 
L 112.134173 86.691487 
L 111.523001 86.691487 
z
" style="fill:#1d1d1d;"/>
   </g>
   <g id="patch_193">
    <path clip-path="url(#p8f03e2e82d)" d="M 112.032311 87.400971 
L 112.643483 87.400971 
L 112.643483 86.693885 
L 112.032311 86.693885 
z
" style="fill:#1d1d1d;"/>
   </g>
   <g id="patch_194">
    <path clip-path="url(#p8f03e2e82d)" d="M 112.541621 87.400971 
L 113.152793 87.400971 
L 113.152793 86.694668 
L 112.541621 86.694668 
z
" style="fill:#1d1d1d;"/>
   </g>
   <g id="patch_195">
    <path clip-path="url(#p8f03e2e82d)" d="M 113.050931 87.400971 
L 113.662103 87.400971 
L 113.662103 86.69717 
L 113.050931 86.69717 
z
" style="fill:#1d1d1d;"/>
   </g>
   <g id="patch_196">
    <path clip-path="url(#p8f03e2e82d)" d="M 113.560241 87.400971 
L 114.171413 87.400971 
L 114.171413 86.700907 
L 113.560241 86.700907 
z
" style="fill:#1d1d1d;"/>
   </g>
   <g id="patch_197">
    <path clip-path="url(#p8f03e2e82d)" d="M 114.069551 87.400971 
L 114.680723 87.400971 
L 114.680723 86.706005 
L 114.069551 86.706005 
z
" style="fill:#1d1d1d;"/>
   </g>
   <g id="patch_198">
    <path clip-path="url(#p8f03e2e82d)" d="M 114.578861 87.400971 
L 115.190033 87.400971 
L 115.190033 86.717758 
L 114.578861 86.717758 
z
" style="fill:#1d1d1d;"/>
   </g>
   <g id="patch_199">
    <path clip-path="url(#p8f03e2e82d)" d="M 115.088171 87.400971 
L 115.699343 87.400971 
L 115.699343 86.739279 
L 115.088171 86.739279 
z
" style="fill:#1d1d1d;"/>
   </g>
   <g id="patch_200">
    <path clip-path="url(#p8f03e2e82d)" d="M 115.597481 87.400971 
L 116.208653 87.400971 
L 116.208653 86.743966 
L 115.597481 86.743966 
z
" style="fill:#1d1d1d;"/>
   </g>
   <g id="patch_201">
    <path clip-path="url(#p8f03e2e82d)" d="M 116.106791 87.400971 
L 116.717963 87.400971 
L 116.717963 86.745411 
L 116.106791 86.745411 
z
" style="fill:#1d1d1d;"/>
   </g>
   <g id="patch_202">
    <path clip-path="url(#p8f03e2e82d)" d="M 116.616101 87.400971 
L 117.227273 87.400971 
L 117.227273 86.764984 
L 116.616101 86.764984 
z
" style="fill:#1d1d1d;"/>
   </g>
   <g id="matplotlib.axis_1"/>
   <g id="matplotlib.axis_2"/>
   <g id="patch_203">
    <path d="M 10.7 93.86 
L 10.7 10.7 
" style="fill:none;stroke:#000000;stroke-linecap:square;stroke-linejoin:miter;stroke-width:0.8;"/>
   </g>
   <g id="patch_204">
    <path d="M 122.3 93.86 
L 122.3 10.7 
" style="fill:none;stroke:#000000;stroke-linecap:square;stroke-linejoin:miter;stroke-width:0.8;"/>
   </g>
   <g id="patch_205">
    <path d="M 10.7 93.86 
L 122.3 93.86 
" style="fill:none;stroke:#000000;stroke-linecap:square;stroke-linejoin:miter;stroke-width:0.8;"/>
   </g>
   <g id="patch_206">
    <path d="M 10.7 10.7 
L 122.3 10.7 
" style="fill:none;stroke:#000000;stroke-linecap:square;stroke-linejoin:miter;stroke-width:0.8;"/>
   </g>
  </g>
 </g>
 <defs>
  <clipPath id="p8f03e2e82d">
   <rect height="83.16" width="111.6" x="10.7" y="10.7"/>
  </clipPath>
 </defs>
</svg>
