<?xml version="1.0" encoding="utf-8" standalone="no"?>
<!DOCTYPE svg PUBLIC "-//W3C//DTD SVG 1.1//EN"
  "http://www.w3.org/Graphics/SVG/1.1/DTD/svg11.dtd">
<!-- Created with matplotlib (http://matplotlib.org/) -->
<svg height="104pt" version="1.1" viewBox="0 0 133 104" width="133pt" xmlns="http://www.w3.org/2000/svg" xmlns:xlink="http://www.w3.org/1999/xlink">
 <defs>
  <style type="text/css">
*{stroke-linecap:butt;stroke-linejoin:round;}
  </style>
 </defs>
 <g id="figure_1">
  <g id="patch_1">
   <path d="M 0 104.56 
L 133 104.56 
L 133 0 
L 0 0 
z
" style="fill:#ffffff;"/>
  </g>
  <g id="axes_1">
   <g id="patch_2">
    <path d="M 10.7 93.86 
L 122.3 93.86 
L 122.3 10.7 
L 10.7 10.7 
z
" style="fill:#ffffff;"/>
   </g>
   <g id="patch_3">
    <path clip-path="url(#p4c000f1c8d)" d="M 15.772727 87.400971 
L 16.383899 87.400971 
L 16.383899 87.127571 
L 15.772727 87.127571 
z
" style="fill:#1d1d1d;"/>
   </g>
   <g id="patch_4">
    <path clip-path="url(#p4c000f1c8d)" d="M 16.282037 87.400971 
L 16.893209 87.400971 
L 16.893209 87.126866 
L 16.282037 87.126866 
z
" style="fill:#1d1d1d;"/>
   </g>
   <g id="patch_5">
    <path clip-path="url(#p4c000f1c8d)" d="M 16.791347 87.400971 
L 17.402519 87.400971 
L 17.402519 87.125677 
L 16.791347 87.125677 
z
" style="fill:#1d1d1d;"/>
   </g>
   <g id="patch_6">
    <path clip-path="url(#p4c000f1c8d)" d="M 17.300657 87.400971 
L 17.911829 87.400971 
L 17.911829 87.124271 
L 17.300657 87.124271 
z
" style="fill:#1d1d1d;"/>
   </g>
   <g id="patch_7">
    <path clip-path="url(#p4c000f1c8d)" d="M 17.809967 87.400971 
L 18.421139 87.400971 
L 18.421139 87.124107 
L 17.809967 87.124107 
z
" style="fill:#1d1d1d;"/>
   </g>
   <g id="patch_8">
    <path clip-path="url(#p4c000f1c8d)" d="M 18.319277 87.400971 
L 18.930449 87.400971 
L 18.930449 87.119849 
L 18.319277 87.119849 
z
" style="fill:#1d1d1d;"/>
   </g>
   <g id="patch_9">
    <path clip-path="url(#p4c000f1c8d)" d="M 18.828587 87.400971 
L 19.439759 87.400971 
L 19.439759 87.115304 
L 18.828587 87.115304 
z
" style="fill:#1d1d1d;"/>
   </g>
   <g id="patch_10">
    <path clip-path="url(#p4c000f1c8d)" d="M 19.337897 87.400971 
L 19.949069 87.400971 
L 19.949069 87.113364 
L 19.337897 87.113364 
z
" style="fill:#1d1d1d;"/>
   </g>
   <g id="patch_11">
    <path clip-path="url(#p4c000f1c8d)" d="M 19.847207 87.400971 
L 20.458379 87.400971 
L 20.458379 87.113225 
L 19.847207 87.113225 
z
" style="fill:#1d1d1d;"/>
   </g>
   <g id="patch_12">
    <path clip-path="url(#p4c000f1c8d)" d="M 20.356517 87.400971 
L 20.967689 87.400971 
L 20.967689 87.110337 
L 20.356517 87.110337 
z
" style="fill:#1d1d1d;"/>
   </g>
   <g id="patch_13">
    <path clip-path="url(#p4c000f1c8d)" d="M 20.865827 87.400971 
L 21.476999 87.400971 
L 21.476999 87.10586 
L 20.865827 87.10586 
z
" style="fill:#1d1d1d;"/>
   </g>
   <g id="patch_14">
    <path clip-path="url(#p4c000f1c8d)" d="M 21.375137 87.400971 
L 21.986309 87.400971 
L 21.986309 87.102934 
L 21.375137 87.102934 
z
" style="fill:#1d1d1d;"/>
   </g>
   <g id="patch_15">
    <path clip-path="url(#p4c000f1c8d)" d="M 21.884447 87.400971 
L 22.495619 87.400971 
L 22.495619 87.10246 
L 21.884447 87.10246 
z
" style="fill:#1d1d1d;"/>
   </g>
   <g id="patch_16">
    <path clip-path="url(#p4c000f1c8d)" d="M 22.393757 87.400971 
L 23.004929 87.400971 
L 23.004929 87.101983 
L 22.393757 87.101983 
z
" style="fill:#1d1d1d;"/>
   </g>
   <g id="patch_17">
    <path clip-path="url(#p4c000f1c8d)" d="M 22.903067 87.400971 
L 23.514239 87.400971 
L 23.514239 87.097955 
L 22.903067 87.097955 
z
" style="fill:#1d1d1d;"/>
   </g>
   <g id="patch_18">
    <path clip-path="url(#p4c000f1c8d)" d="M 23.412377 87.400971 
L 24.023549 87.400971 
L 24.023549 87.097949 
L 23.412377 87.097949 
z
" style="fill:#1d1d1d;"/>
   </g>
   <g id="patch_19">
    <path clip-path="url(#p4c000f1c8d)" d="M 23.921687 87.400971 
L 24.532859 87.400971 
L 24.532859 87.093754 
L 23.921687 87.093754 
z
" style="fill:#1d1d1d;"/>
   </g>
   <g id="patch_20">
    <path clip-path="url(#p4c000f1c8d)" d="M 24.430997 87.400971 
L 25.042169 87.400971 
L 25.042169 87.093581 
L 24.430997 87.093581 
z
" style="fill:#1d1d1d;"/>
   </g>
   <g id="patch_21">
    <path clip-path="url(#p4c000f1c8d)" d="M 24.940307 87.400971 
L 25.551479 87.400971 
L 25.551479 87.089969 
L 24.940307 87.089969 
z
" style="fill:#1d1d1d;"/>
   </g>
   <g id="patch_22">
    <path clip-path="url(#p4c000f1c8d)" d="M 25.449617 87.400971 
L 26.060789 87.400971 
L 26.060789 87.086827 
L 25.449617 87.086827 
z
" style="fill:#1d1d1d;"/>
   </g>
   <g id="patch_23">
    <path clip-path="url(#p4c000f1c8d)" d="M 25.958927 87.400971 
L 26.570099 87.400971 
L 26.570099 87.086563 
L 25.958927 87.086563 
z
" style="fill:#1d1d1d;"/>
   </g>
   <g id="patch_24">
    <path clip-path="url(#p4c000f1c8d)" d="M 26.468237 87.400971 
L 27.079409 87.400971 
L 27.079409 87.086036 
L 26.468237 87.086036 
z
" style="fill:#1d1d1d;"/>
   </g>
   <g id="patch_25">
    <path clip-path="url(#p4c000f1c8d)" d="M 26.977547 87.400971 
L 27.588719 87.400971 
L 27.588719 87.083738 
L 26.977547 87.083738 
z
" style="fill:#1d1d1d;"/>
   </g>
   <g id="patch_26">
    <path clip-path="url(#p4c000f1c8d)" d="M 27.486857 87.400971 
L 28.098028 87.400971 
L 28.098028 87.083029 
L 27.486857 87.083029 
z
" style="fill:#1d1d1d;"/>
   </g>
   <g id="patch_27">
    <path clip-path="url(#p4c000f1c8d)" d="M 27.996166 87.400971 
L 28.607338 87.400971 
L 28.607338 87.082339 
L 27.996166 87.082339 
z
" style="fill:#1d1d1d;"/>
   </g>
   <g id="patch_28">
    <path clip-path="url(#p4c000f1c8d)" d="M 28.505476 87.400971 
L 29.116648 87.400971 
L 29.116648 87.078884 
L 28.505476 87.078884 
z
" style="fill:#1d1d1d;"/>
   </g>
   <g id="patch_29">
    <path clip-path="url(#p4c000f1c8d)" d="M 29.014786 87.400971 
L 29.625958 87.400971 
L 29.625958 87.074545 
L 29.014786 87.074545 
z
" style="fill:#1d1d1d;"/>
   </g>
   <g id="patch_30">
    <path clip-path="url(#p4c000f1c8d)" d="M 29.524096 87.400971 
L 30.135268 87.400971 
L 30.135268 87.073101 
L 29.524096 87.073101 
z
" style="fill:#1d1d1d;"/>
   </g>
   <g id="patch_31">
    <path clip-path="url(#p4c000f1c8d)" d="M 30.033406 87.400971 
L 30.644578 87.400971 
L 30.644578 87.073057 
L 30.033406 87.073057 
z
" style="fill:#1d1d1d;"/>
   </g>
   <g id="patch_32">
    <path clip-path="url(#p4c000f1c8d)" d="M 30.542716 87.400971 
L 31.153888 87.400971 
L 31.153888 87.066526 
L 30.542716 87.066526 
z
" style="fill:#1d1d1d;"/>
   </g>
   <g id="patch_33">
    <path clip-path="url(#p4c000f1c8d)" d="M 31.052026 87.400971 
L 31.663198 87.400971 
L 31.663198 87.058386 
L 31.052026 87.058386 
z
" style="fill:#1d1d1d;"/>
   </g>
   <g id="patch_34">
    <path clip-path="url(#p4c000f1c8d)" d="M 31.561336 87.400971 
L 32.172508 87.400971 
L 32.172508 87.054081 
L 31.561336 87.054081 
z
" style="fill:#1d1d1d;"/>
   </g>
   <g id="patch_35">
    <path clip-path="url(#p4c000f1c8d)" d="M 32.070646 87.400971 
L 32.681818 87.400971 
L 32.681818 87.053196 
L 32.070646 87.053196 
z
" style="fill:#1d1d1d;"/>
   </g>
   <g id="patch_36">
    <path clip-path="url(#p4c000f1c8d)" d="M 32.579956 87.400971 
L 33.191128 87.400971 
L 33.191128 87.04987 
L 32.579956 87.04987 
z
" style="fill:#1d1d1d;"/>
   </g>
   <g id="patch_37">
    <path clip-path="url(#p4c000f1c8d)" d="M 33.089266 87.400971 
L 33.700438 87.400971 
L 33.700438 87.046846 
L 33.089266 87.046846 
z
" style="fill:#1d1d1d;"/>
   </g>
   <g id="patch_38">
    <path clip-path="url(#p4c000f1c8d)" d="M 33.598576 87.400971 
L 34.209748 87.400971 
L 34.209748 87.043827 
L 33.598576 87.043827 
z
" style="fill:#1d1d1d;"/>
   </g>
   <g id="patch_39">
    <path clip-path="url(#p4c000f1c8d)" d="M 34.107886 87.400971 
L 34.719058 87.400971 
L 34.719058 87.031754 
L 34.107886 87.031754 
z
" style="fill:#1d1d1d;"/>
   </g>
   <g id="patch_40">
    <path clip-path="url(#p4c000f1c8d)" d="M 34.617196 87.400971 
L 35.228368 87.400971 
L 35.228368 87.027363 
L 34.617196 87.027363 
z
" style="fill:#1d1d1d;"/>
   </g>
   <g id="patch_41">
    <path clip-path="url(#p4c000f1c8d)" d="M 35.126506 87.400971 
L 35.737678 87.400971 
L 35.737678 87.019758 
L 35.126506 87.019758 
z
" style="fill:#1d1d1d;"/>
   </g>
   <g id="patch_42">
    <path clip-path="url(#p4c000f1c8d)" d="M 35.635816 87.400971 
L 36.246988 87.400971 
L 36.246988 87.019574 
L 35.635816 87.019574 
z
" style="fill:#1d1d1d;"/>
   </g>
   <g id="patch_43">
    <path clip-path="url(#p4c000f1c8d)" d="M 36.145126 87.400971 
L 36.756298 87.400971 
L 36.756298 87.014532 
L 36.145126 87.014532 
z
" style="fill:#1d1d1d;"/>
   </g>
   <g id="patch_44">
    <path clip-path="url(#p4c000f1c8d)" d="M 36.654436 87.400971 
L 37.265608 87.400971 
L 37.265608 87.014096 
L 36.654436 87.014096 
z
" style="fill:#1d1d1d;"/>
   </g>
   <g id="patch_45">
    <path clip-path="url(#p4c000f1c8d)" d="M 37.163746 87.400971 
L 37.774918 87.400971 
L 37.774918 87.009037 
L 37.163746 87.009037 
z
" style="fill:#1d1d1d;"/>
   </g>
   <g id="patch_46">
    <path clip-path="url(#p4c000f1c8d)" d="M 37.673056 87.400971 
L 38.284228 87.400971 
L 38.284228 87.006983 
L 37.673056 87.006983 
z
" style="fill:#1d1d1d;"/>
   </g>
   <g id="patch_47">
    <path clip-path="url(#p4c000f1c8d)" d="M 38.182366 87.400971 
L 38.793538 87.400971 
L 38.793538 87.005409 
L 38.182366 87.005409 
z
" style="fill:#1d1d1d;"/>
   </g>
   <g id="patch_48">
    <path clip-path="url(#p4c000f1c8d)" d="M 38.691676 87.400971 
L 39.302848 87.400971 
L 39.302848 87.004287 
L 38.691676 87.004287 
z
" style="fill:#1d1d1d;"/>
   </g>
   <g id="patch_49">
    <path clip-path="url(#p4c000f1c8d)" d="M 39.200986 87.400971 
L 39.812158 87.400971 
L 39.812158 87.002434 
L 39.200986 87.002434 
z
" style="fill:#1d1d1d;"/>
   </g>
   <g id="patch_50">
    <path clip-path="url(#p4c000f1c8d)" d="M 39.710296 87.400971 
L 40.321468 87.400971 
L 40.321468 86.989096 
L 39.710296 86.989096 
z
" style="fill:#1d1d1d;"/>
   </g>
   <g id="patch_51">
    <path clip-path="url(#p4c000f1c8d)" d="M 40.219606 87.400971 
L 40.830778 87.400971 
L 40.830778 86.97967 
L 40.219606 86.97967 
z
" style="fill:#1d1d1d;"/>
   </g>
   <g id="patch_52">
    <path clip-path="url(#p4c000f1c8d)" d="M 40.728916 87.400971 
L 41.340088 87.400971 
L 41.340088 86.9789 
L 40.728916 86.9789 
z
" style="fill:#1d1d1d;"/>
   </g>
   <g id="patch_53">
    <path clip-path="url(#p4c000f1c8d)" d="M 41.238226 87.400971 
L 41.849398 87.400971 
L 41.849398 86.974394 
L 41.238226 86.974394 
z
" style="fill:#1d1d1d;"/>
   </g>
   <g id="patch_54">
    <path clip-path="url(#p4c000f1c8d)" d="M 41.747536 87.400971 
L 42.358708 87.400971 
L 42.358708 86.972438 
L 41.747536 86.972438 
z
" style="fill:#1d1d1d;"/>
   </g>
   <g id="patch_55">
    <path clip-path="url(#p4c000f1c8d)" d="M 42.256846 87.400971 
L 42.868018 87.400971 
L 42.868018 86.969469 
L 42.256846 86.969469 
z
" style="fill:#1d1d1d;"/>
   </g>
   <g id="patch_56">
    <path clip-path="url(#p4c000f1c8d)" d="M 42.766156 87.400971 
L 43.377327 87.400971 
L 43.377327 86.955636 
L 42.766156 86.955636 
z
" style="fill:#1d1d1d;"/>
   </g>
   <g id="patch_57">
    <path clip-path="url(#p4c000f1c8d)" d="M 43.275465 87.400971 
L 43.886637 87.400971 
L 43.886637 86.93329 
L 43.275465 86.93329 
z
" style="fill:#1d1d1d;"/>
   </g>
   <g id="patch_58">
    <path clip-path="url(#p4c000f1c8d)" d="M 43.784775 87.400971 
L 44.395947 87.400971 
L 44.395947 86.918626 
L 43.784775 86.918626 
z
" style="fill:#1d1d1d;"/>
   </g>
   <g id="patch_59">
    <path clip-path="url(#p4c000f1c8d)" d="M 44.294085 87.400971 
L 44.905257 87.400971 
L 44.905257 86.91151 
L 44.294085 86.91151 
z
" style="fill:#1d1d1d;"/>
   </g>
   <g id="patch_60">
    <path clip-path="url(#p4c000f1c8d)" d="M 44.803395 87.400971 
L 45.414567 87.400971 
L 45.414567 86.895133 
L 44.803395 86.895133 
z
" style="fill:#1d1d1d;"/>
   </g>
   <g id="patch_61">
    <path clip-path="url(#p4c000f1c8d)" d="M 45.312705 87.400971 
L 45.923877 87.400971 
L 45.923877 86.88088 
L 45.312705 86.88088 
z
" style="fill:#1d1d1d;"/>
   </g>
   <g id="patch_62">
    <path clip-path="url(#p4c000f1c8d)" d="M 45.822015 87.400971 
L 46.433187 87.400971 
L 46.433187 86.873984 
L 45.822015 86.873984 
z
" style="fill:#1d1d1d;"/>
   </g>
   <g id="patch_63">
    <path clip-path="url(#p4c000f1c8d)" d="M 46.331325 87.400971 
L 46.942497 87.400971 
L 46.942497 86.868752 
L 46.331325 86.868752 
z
" style="fill:#1d1d1d;"/>
   </g>
   <g id="patch_64">
    <path clip-path="url(#p4c000f1c8d)" d="M 46.840635 87.400971 
L 47.451807 87.400971 
L 47.451807 86.859974 
L 46.840635 86.859974 
z
" style="fill:#1d1d1d;"/>
   </g>
   <g id="patch_65">
    <path clip-path="url(#p4c000f1c8d)" d="M 47.349945 87.400971 
L 47.961117 87.400971 
L 47.961117 86.858739 
L 47.349945 86.858739 
z
" style="fill:#1d1d1d;"/>
   </g>
   <g id="patch_66">
    <path clip-path="url(#p4c000f1c8d)" d="M 47.859255 87.400971 
L 48.470427 87.400971 
L 48.470427 86.855186 
L 47.859255 86.855186 
z
" style="fill:#1d1d1d;"/>
   </g>
   <g id="patch_67">
    <path clip-path="url(#p4c000f1c8d)" d="M 48.368565 87.400971 
L 48.979737 87.400971 
L 48.979737 86.853624 
L 48.368565 86.853624 
z
" style="fill:#1d1d1d;"/>
   </g>
   <g id="patch_68">
    <path clip-path="url(#p4c000f1c8d)" d="M 48.877875 87.400971 
L 49.489047 87.400971 
L 49.489047 86.827853 
L 48.877875 86.827853 
z
" style="fill:#1d1d1d;"/>
   </g>
   <g id="patch_69">
    <path clip-path="url(#p4c000f1c8d)" d="M 49.387185 87.400971 
L 49.998357 87.400971 
L 49.998357 86.813674 
L 49.387185 86.813674 
z
" style="fill:#1d1d1d;"/>
   </g>
   <g id="patch_70">
    <path clip-path="url(#p4c000f1c8d)" d="M 49.896495 87.400971 
L 50.507667 87.400971 
L 50.507667 86.813069 
L 49.896495 86.813069 
z
" style="fill:#1d1d1d;"/>
   </g>
   <g id="patch_71">
    <path clip-path="url(#p4c000f1c8d)" d="M 50.405805 87.400971 
L 51.016977 87.400971 
L 51.016977 86.811128 
L 50.405805 86.811128 
z
" style="fill:#1d1d1d;"/>
   </g>
   <g id="patch_72">
    <path clip-path="url(#p4c000f1c8d)" d="M 50.915115 87.400971 
L 51.526287 87.400971 
L 51.526287 86.810205 
L 50.915115 86.810205 
z
" style="fill:#1d1d1d;"/>
   </g>
   <g id="patch_73">
    <path clip-path="url(#p4c000f1c8d)" d="M 51.424425 87.400971 
L 52.035597 87.400971 
L 52.035597 86.782975 
L 51.424425 86.782975 
z
" style="fill:#1d1d1d;"/>
   </g>
   <g id="patch_74">
    <path clip-path="url(#p4c000f1c8d)" d="M 51.933735 87.400971 
L 52.544907 87.400971 
L 52.544907 86.768257 
L 51.933735 86.768257 
z
" style="fill:#1d1d1d;"/>
   </g>
   <g id="patch_75">
    <path clip-path="url(#p4c000f1c8d)" d="M 52.443045 87.400971 
L 53.054217 87.400971 
L 53.054217 86.742121 
L 52.443045 86.742121 
z
" style="fill:#1d1d1d;"/>
   </g>
   <g id="patch_76">
    <path clip-path="url(#p4c000f1c8d)" d="M 52.952355 87.400971 
L 53.563527 87.400971 
L 53.563527 86.736734 
L 52.952355 86.736734 
z
" style="fill:#1d1d1d;"/>
   </g>
   <g id="patch_77">
    <path clip-path="url(#p4c000f1c8d)" d="M 53.461665 87.400971 
L 54.072837 87.400971 
L 54.072837 86.713916 
L 53.461665 86.713916 
z
" style="fill:#1d1d1d;"/>
   </g>
   <g id="patch_78">
    <path clip-path="url(#p4c000f1c8d)" d="M 53.970975 87.400971 
L 54.582147 87.400971 
L 54.582147 86.656474 
L 53.970975 86.656474 
z
" style="fill:#1d1d1d;"/>
   </g>
   <g id="patch_79">
    <path clip-path="url(#p4c000f1c8d)" d="M 54.480285 87.400971 
L 55.091457 87.400971 
L 55.091457 86.650119 
L 54.480285 86.650119 
z
" style="fill:#1d1d1d;"/>
   </g>
   <g id="patch_80">
    <path clip-path="url(#p4c000f1c8d)" d="M 54.989595 87.400971 
L 55.600767 87.400971 
L 55.600767 86.638079 
L 54.989595 86.638079 
z
" style="fill:#1d1d1d;"/>
   </g>
   <g id="patch_81">
    <path clip-path="url(#p4c000f1c8d)" d="M 55.498905 87.400971 
L 56.110077 87.400971 
L 56.110077 86.6267 
L 55.498905 86.6267 
z
" style="fill:#1d1d1d;"/>
   </g>
   <g id="patch_82">
    <path clip-path="url(#p4c000f1c8d)" d="M 56.008215 87.400971 
L 56.619387 87.400971 
L 56.619387 86.625896 
L 56.008215 86.625896 
z
" style="fill:#1d1d1d;"/>
   </g>
   <g id="patch_83">
    <path clip-path="url(#p4c000f1c8d)" d="M 56.517525 87.400971 
L 57.128697 87.400971 
L 57.128697 86.585984 
L 56.517525 86.585984 
z
" style="fill:#1d1d1d;"/>
   </g>
   <g id="patch_84">
    <path clip-path="url(#p4c000f1c8d)" d="M 57.026835 87.400971 
L 57.638007 87.400971 
L 57.638007 86.549252 
L 57.026835 86.549252 
z
" style="fill:#1d1d1d;"/>
   </g>
   <g id="patch_85">
    <path clip-path="url(#p4c000f1c8d)" d="M 57.536145 87.400971 
L 58.147317 87.400971 
L 58.147317 86.514121 
L 57.536145 86.514121 
z
" style="fill:#1d1d1d;"/>
   </g>
   <g id="patch_86">
    <path clip-path="url(#p4c000f1c8d)" d="M 58.045455 87.400971 
L 58.656627 87.400971 
L 58.656627 86.462048 
L 58.045455 86.462048 
z
" style="fill:#1d1d1d;"/>
   </g>
   <g id="patch_87">
    <path clip-path="url(#p4c000f1c8d)" d="M 58.554765 87.400971 
L 59.165936 87.400971 
L 59.165936 86.438123 
L 58.554765 86.438123 
z
" style="fill:#1d1d1d;"/>
   </g>
   <g id="patch_88">
    <path clip-path="url(#p4c000f1c8d)" d="M 59.064074 87.400971 
L 59.675246 87.400971 
L 59.675246 86.35762 
L 59.064074 86.35762 
z
" style="fill:#1d1d1d;"/>
   </g>
   <g id="patch_89">
    <path clip-path="url(#p4c000f1c8d)" d="M 59.573384 87.400971 
L 60.184556 87.400971 
L 60.184556 86.345702 
L 59.573384 86.345702 
z
" style="fill:#1d1d1d;"/>
   </g>
   <g id="patch_90">
    <path clip-path="url(#p4c000f1c8d)" d="M 60.082694 87.400971 
L 60.693866 87.400971 
L 60.693866 86.270206 
L 60.082694 86.270206 
z
" style="fill:#1d1d1d;"/>
   </g>
   <g id="patch_91">
    <path clip-path="url(#p4c000f1c8d)" d="M 60.592004 87.400971 
L 61.203176 87.400971 
L 61.203176 86.266576 
L 60.592004 86.266576 
z
" style="fill:#1d1d1d;"/>
   </g>
   <g id="patch_92">
    <path clip-path="url(#p4c000f1c8d)" d="M 61.101314 87.400971 
L 61.712486 87.400971 
L 61.712486 86.215325 
L 61.101314 86.215325 
z
" style="fill:#1d1d1d;"/>
   </g>
   <g id="patch_93">
    <path clip-path="url(#p4c000f1c8d)" d="M 61.610624 87.400971 
L 62.221796 87.400971 
L 62.221796 86.155586 
L 61.610624 86.155586 
z
" style="fill:#1d1d1d;"/>
   </g>
   <g id="patch_94">
    <path clip-path="url(#p4c000f1c8d)" d="M 62.119934 87.400971 
L 62.731106 87.400971 
L 62.731106 86.077092 
L 62.119934 86.077092 
z
" style="fill:#1d1d1d;"/>
   </g>
   <g id="patch_95">
    <path clip-path="url(#p4c000f1c8d)" d="M 62.629244 87.400971 
L 63.240416 87.400971 
L 63.240416 86.039804 
L 62.629244 86.039804 
z
" style="fill:#1d1d1d;"/>
   </g>
   <g id="patch_96">
    <path clip-path="url(#p4c000f1c8d)" d="M 63.138554 87.400971 
L 63.749726 87.400971 
L 63.749726 85.63939 
L 63.138554 85.63939 
z
" style="fill:#1d1d1d;"/>
   </g>
   <g id="patch_97">
    <path clip-path="url(#p4c000f1c8d)" d="M 63.647864 87.400971 
L 64.259036 87.400971 
L 64.259036 84.472497 
L 63.647864 84.472497 
z
" style="fill:#1d1d1d;"/>
   </g>
   <g id="patch_98">
    <path clip-path="url(#p4c000f1c8d)" d="M 64.157174 87.400971 
L 64.768346 87.400971 
L 64.768346 84.321135 
L 64.157174 84.321135 
z
" style="fill:#1d1d1d;"/>
   </g>
   <g id="patch_99">
    <path clip-path="url(#p4c000f1c8d)" d="M 64.666484 87.400971 
L 65.277656 87.400971 
L 65.277656 82.190606 
L 64.666484 82.190606 
z
" style="fill:#1d1d1d;"/>
   </g>
   <g id="patch_100">
    <path clip-path="url(#p4c000f1c8d)" d="M 65.175794 87.400971 
L 65.786966 87.400971 
L 65.786966 80.298765 
L 65.175794 80.298765 
z
" style="fill:#1d1d1d;"/>
   </g>
   <g id="patch_101">
    <path clip-path="url(#p4c000f1c8d)" d="M 65.685104 87.400971 
L 66.296276 87.400971 
L 66.296276 77.964204 
L 65.685104 77.964204 
z
" style="fill:#1d1d1d;"/>
   </g>
   <g id="patch_102">
    <path clip-path="url(#p4c000f1c8d)" d="M 66.194414 87.400971 
L 66.805586 87.400971 
L 66.805586 28.003287 
L 66.194414 28.003287 
z
" style="fill:#1d1d1d;"/>
   </g>
   <g id="patch_103">
    <path clip-path="url(#p4c000f1c8d)" d="M 66.194414 87.400971 
L 66.805586 87.400971 
L 66.805586 28.003287 
L 66.194414 28.003287 
z
" style="fill:#1d1d1d;"/>
   </g>
   <g id="patch_104">
    <path clip-path="url(#p4c000f1c8d)" d="M 66.703724 87.400971 
L 67.314896 87.400971 
L 67.314896 77.689071 
L 66.703724 77.689071 
z
" style="fill:#1d1d1d;"/>
   </g>
   <g id="patch_105">
    <path clip-path="url(#p4c000f1c8d)" d="M 67.213034 87.400971 
L 67.824206 87.400971 
L 67.824206 80.526477 
L 67.213034 80.526477 
z
" style="fill:#1d1d1d;"/>
   </g>
   <g id="patch_106">
    <path clip-path="url(#p4c000f1c8d)" d="M 67.722344 87.400971 
L 68.333516 87.400971 
L 68.333516 81.445382 
L 67.722344 81.445382 
z
" style="fill:#1d1d1d;"/>
   </g>
   <g id="patch_107">
    <path clip-path="url(#p4c000f1c8d)" d="M 68.231654 87.400971 
L 68.842826 87.400971 
L 68.842826 81.715679 
L 68.231654 81.715679 
z
" style="fill:#1d1d1d;"/>
   </g>
   <g id="patch_108">
    <path clip-path="url(#p4c000f1c8d)" d="M 68.740964 87.400971 
L 69.352136 87.400971 
L 69.352136 82.766254 
L 68.740964 82.766254 
z
" style="fill:#1d1d1d;"/>
   </g>
   <g id="patch_109">
    <path clip-path="url(#p4c000f1c8d)" d="M 69.250274 87.400971 
L 69.861446 87.400971 
L 69.861446 84.923362 
L 69.250274 84.923362 
z
" style="fill:#1d1d1d;"/>
   </g>
   <g id="patch_110">
    <path clip-path="url(#p4c000f1c8d)" d="M 69.759584 87.400971 
L 70.370756 87.400971 
L 70.370756 85.253464 
L 69.759584 85.253464 
z
" style="fill:#1d1d1d;"/>
   </g>
   <g id="patch_111">
    <path clip-path="url(#p4c000f1c8d)" d="M 70.268894 87.400971 
L 70.880066 87.400971 
L 70.880066 85.690543 
L 70.268894 85.690543 
z
" style="fill:#1d1d1d;"/>
   </g>
   <g id="patch_112">
    <path clip-path="url(#p4c000f1c8d)" d="M 70.778204 87.400971 
L 71.389376 87.400971 
L 71.389376 85.81696 
L 70.778204 85.81696 
z
" style="fill:#1d1d1d;"/>
   </g>
   <g id="patch_113">
    <path clip-path="url(#p4c000f1c8d)" d="M 71.287514 87.400971 
L 71.898686 87.400971 
L 71.898686 85.994275 
L 71.287514 85.994275 
z
" style="fill:#1d1d1d;"/>
   </g>
   <g id="patch_114">
    <path clip-path="url(#p4c000f1c8d)" d="M 71.796824 87.400971 
L 72.407996 87.400971 
L 72.407996 86.080175 
L 71.796824 86.080175 
z
" style="fill:#1d1d1d;"/>
   </g>
   <g id="patch_115">
    <path clip-path="url(#p4c000f1c8d)" d="M 72.306134 87.400971 
L 72.917306 87.400971 
L 72.917306 86.143515 
L 72.306134 86.143515 
z
" style="fill:#1d1d1d;"/>
   </g>
   <g id="patch_116">
    <path clip-path="url(#p4c000f1c8d)" d="M 72.815444 87.400971 
L 73.426616 87.400971 
L 73.426616 86.385231 
L 72.815444 86.385231 
z
" style="fill:#1d1d1d;"/>
   </g>
   <g id="patch_117">
    <path clip-path="url(#p4c000f1c8d)" d="M 73.324754 87.400971 
L 73.935926 87.400971 
L 73.935926 86.396939 
L 73.324754 86.396939 
z
" style="fill:#1d1d1d;"/>
   </g>
   <g id="patch_118">
    <path clip-path="url(#p4c000f1c8d)" d="M 73.834064 87.400971 
L 74.445235 87.400971 
L 74.445235 86.418705 
L 73.834064 86.418705 
z
" style="fill:#1d1d1d;"/>
   </g>
   <g id="patch_119">
    <path clip-path="url(#p4c000f1c8d)" d="M 74.343373 87.400971 
L 74.954545 87.400971 
L 74.954545 86.483611 
L 74.343373 86.483611 
z
" style="fill:#1d1d1d;"/>
   </g>
   <g id="patch_120">
    <path clip-path="url(#p4c000f1c8d)" d="M 74.852683 87.400971 
L 75.463855 87.400971 
L 75.463855 86.500146 
L 74.852683 86.500146 
z
" style="fill:#1d1d1d;"/>
   </g>
   <g id="patch_121">
    <path clip-path="url(#p4c000f1c8d)" d="M 75.361993 87.400971 
L 75.973165 87.400971 
L 75.973165 86.559067 
L 75.361993 86.559067 
z
" style="fill:#1d1d1d;"/>
   </g>
   <g id="patch_122">
    <path clip-path="url(#p4c000f1c8d)" d="M 75.871303 87.400971 
L 76.482475 87.400971 
L 76.482475 86.649997 
L 75.871303 86.649997 
z
" style="fill:#1d1d1d;"/>
   </g>
   <g id="patch_123">
    <path clip-path="url(#p4c000f1c8d)" d="M 76.380613 87.400971 
L 76.991785 87.400971 
L 76.991785 86.662453 
L 76.380613 86.662453 
z
" style="fill:#1d1d1d;"/>
   </g>
   <g id="patch_124">
    <path clip-path="url(#p4c000f1c8d)" d="M 76.889923 87.400971 
L 77.501095 87.400971 
L 77.501095 86.681119 
L 76.889923 86.681119 
z
" style="fill:#1d1d1d;"/>
   </g>
   <g id="patch_125">
    <path clip-path="url(#p4c000f1c8d)" d="M 77.399233 87.400971 
L 78.010405 87.400971 
L 78.010405 86.714204 
L 77.399233 86.714204 
z
" style="fill:#1d1d1d;"/>
   </g>
   <g id="patch_126">
    <path clip-path="url(#p4c000f1c8d)" d="M 77.908543 87.400971 
L 78.519715 87.400971 
L 78.519715 86.76327 
L 77.908543 86.76327 
z
" style="fill:#1d1d1d;"/>
   </g>
   <g id="patch_127">
    <path clip-path="url(#p4c000f1c8d)" d="M 78.417853 87.400971 
L 79.029025 87.400971 
L 79.029025 86.771786 
L 78.417853 86.771786 
z
" style="fill:#1d1d1d;"/>
   </g>
   <g id="patch_128">
    <path clip-path="url(#p4c000f1c8d)" d="M 78.927163 87.400971 
L 79.538335 87.400971 
L 79.538335 86.780323 
L 78.927163 86.780323 
z
" style="fill:#1d1d1d;"/>
   </g>
   <g id="patch_129">
    <path clip-path="url(#p4c000f1c8d)" d="M 79.436473 87.400971 
L 80.047645 87.400971 
L 80.047645 86.794781 
L 79.436473 86.794781 
z
" style="fill:#1d1d1d;"/>
   </g>
   <g id="patch_130">
    <path clip-path="url(#p4c000f1c8d)" d="M 79.945783 87.400971 
L 80.556955 87.400971 
L 80.556955 86.813848 
L 79.945783 86.813848 
z
" style="fill:#1d1d1d;"/>
   </g>
   <g id="patch_131">
    <path clip-path="url(#p4c000f1c8d)" d="M 80.455093 87.400971 
L 81.066265 87.400971 
L 81.066265 86.841597 
L 80.455093 86.841597 
z
" style="fill:#1d1d1d;"/>
   </g>
   <g id="patch_132">
    <path clip-path="url(#p4c000f1c8d)" d="M 80.964403 87.400971 
L 81.575575 87.400971 
L 81.575575 86.890249 
L 80.964403 86.890249 
z
" style="fill:#1d1d1d;"/>
   </g>
   <g id="patch_133">
    <path clip-path="url(#p4c000f1c8d)" d="M 81.473713 87.400971 
L 82.084885 87.400971 
L 82.084885 86.899252 
L 81.473713 86.899252 
z
" style="fill:#1d1d1d;"/>
   </g>
   <g id="patch_134">
    <path clip-path="url(#p4c000f1c8d)" d="M 81.983023 87.400971 
L 82.594195 87.400971 
L 82.594195 86.905264 
L 81.983023 86.905264 
z
" style="fill:#1d1d1d;"/>
   </g>
   <g id="patch_135">
    <path clip-path="url(#p4c000f1c8d)" d="M 82.492333 87.400971 
L 83.103505 87.400971 
L 83.103505 86.908465 
L 82.492333 86.908465 
z
" style="fill:#1d1d1d;"/>
   </g>
   <g id="patch_136">
    <path clip-path="url(#p4c000f1c8d)" d="M 83.001643 87.400971 
L 83.612815 87.400971 
L 83.612815 86.922192 
L 83.001643 86.922192 
z
" style="fill:#1d1d1d;"/>
   </g>
   <g id="patch_137">
    <path clip-path="url(#p4c000f1c8d)" d="M 83.510953 87.400971 
L 84.122125 87.400971 
L 84.122125 86.926088 
L 83.510953 86.926088 
z
" style="fill:#1d1d1d;"/>
   </g>
   <g id="patch_138">
    <path clip-path="url(#p4c000f1c8d)" d="M 84.020263 87.400971 
L 84.631435 87.400971 
L 84.631435 86.930998 
L 84.020263 86.930998 
z
" style="fill:#1d1d1d;"/>
   </g>
   <g id="patch_139">
    <path clip-path="url(#p4c000f1c8d)" d="M 84.529573 87.400971 
L 85.140745 87.400971 
L 85.140745 86.937804 
L 84.529573 86.937804 
z
" style="fill:#1d1d1d;"/>
   </g>
   <g id="patch_140">
    <path clip-path="url(#p4c000f1c8d)" d="M 85.038883 87.400971 
L 85.650055 87.400971 
L 85.650055 86.938696 
L 85.038883 86.938696 
z
" style="fill:#1d1d1d;"/>
   </g>
   <g id="patch_141">
    <path clip-path="url(#p4c000f1c8d)" d="M 85.548193 87.400971 
L 86.159365 87.400971 
L 86.159365 86.946336 
L 85.548193 86.946336 
z
" style="fill:#1d1d1d;"/>
   </g>
   <g id="patch_142">
    <path clip-path="url(#p4c000f1c8d)" d="M 86.057503 87.400971 
L 86.668675 87.400971 
L 86.668675 86.952667 
L 86.057503 86.952667 
z
" style="fill:#1d1d1d;"/>
   </g>
   <g id="patch_143">
    <path clip-path="url(#p4c000f1c8d)" d="M 86.566813 87.400971 
L 87.177985 87.400971 
L 87.177985 86.961957 
L 86.566813 86.961957 
z
" style="fill:#1d1d1d;"/>
   </g>
   <g id="patch_144">
    <path clip-path="url(#p4c000f1c8d)" d="M 87.076123 87.400971 
L 87.687295 87.400971 
L 87.687295 86.965951 
L 87.076123 86.965951 
z
" style="fill:#1d1d1d;"/>
   </g>
   <g id="patch_145">
    <path clip-path="url(#p4c000f1c8d)" d="M 87.585433 87.400971 
L 88.196605 87.400971 
L 88.196605 86.967793 
L 87.585433 86.967793 
z
" style="fill:#1d1d1d;"/>
   </g>
   <g id="patch_146">
    <path clip-path="url(#p4c000f1c8d)" d="M 88.094743 87.400971 
L 88.705915 87.400971 
L 88.705915 86.974604 
L 88.094743 86.974604 
z
" style="fill:#1d1d1d;"/>
   </g>
   <g id="patch_147">
    <path clip-path="url(#p4c000f1c8d)" d="M 88.604053 87.400971 
L 89.215225 87.400971 
L 89.215225 86.985938 
L 88.604053 86.985938 
z
" style="fill:#1d1d1d;"/>
   </g>
   <g id="patch_148">
    <path clip-path="url(#p4c000f1c8d)" d="M 89.113363 87.400971 
L 89.724535 87.400971 
L 89.724535 86.987714 
L 89.113363 86.987714 
z
" style="fill:#1d1d1d;"/>
   </g>
   <g id="patch_149">
    <path clip-path="url(#p4c000f1c8d)" d="M 89.622673 87.400971 
L 90.233844 87.400971 
L 90.233844 86.990248 
L 89.622673 86.990248 
z
" style="fill:#1d1d1d;"/>
   </g>
   <g id="patch_150">
    <path clip-path="url(#p4c000f1c8d)" d="M 90.131982 87.400971 
L 90.743154 87.400971 
L 90.743154 86.990402 
L 90.131982 86.990402 
z
" style="fill:#1d1d1d;"/>
   </g>
   <g id="patch_151">
    <path clip-path="url(#p4c000f1c8d)" d="M 90.641292 87.400971 
L 91.252464 87.400971 
L 91.252464 86.992173 
L 90.641292 86.992173 
z
" style="fill:#1d1d1d;"/>
   </g>
   <g id="patch_152">
    <path clip-path="url(#p4c000f1c8d)" d="M 91.150602 87.400971 
L 91.761774 87.400971 
L 91.761774 86.996031 
L 91.150602 86.996031 
z
" style="fill:#1d1d1d;"/>
   </g>
   <g id="patch_153">
    <path clip-path="url(#p4c000f1c8d)" d="M 91.659912 87.400971 
L 92.271084 87.400971 
L 92.271084 87.002761 
L 91.659912 87.002761 
z
" style="fill:#1d1d1d;"/>
   </g>
   <g id="patch_154">
    <path clip-path="url(#p4c000f1c8d)" d="M 92.169222 87.400971 
L 92.780394 87.400971 
L 92.780394 87.008823 
L 92.169222 87.008823 
z
" style="fill:#1d1d1d;"/>
   </g>
   <g id="patch_155">
    <path clip-path="url(#p4c000f1c8d)" d="M 92.678532 87.400971 
L 93.289704 87.400971 
L 93.289704 87.011382 
L 92.678532 87.011382 
z
" style="fill:#1d1d1d;"/>
   </g>
   <g id="patch_156">
    <path clip-path="url(#p4c000f1c8d)" d="M 93.187842 87.400971 
L 93.799014 87.400971 
L 93.799014 87.014555 
L 93.187842 87.014555 
z
" style="fill:#1d1d1d;"/>
   </g>
   <g id="patch_157">
    <path clip-path="url(#p4c000f1c8d)" d="M 93.697152 87.400971 
L 94.308324 87.400971 
L 94.308324 87.017186 
L 93.697152 87.017186 
z
" style="fill:#1d1d1d;"/>
   </g>
   <g id="patch_158">
    <path clip-path="url(#p4c000f1c8d)" d="M 94.206462 87.400971 
L 94.817634 87.400971 
L 94.817634 87.022247 
L 94.206462 87.022247 
z
" style="fill:#1d1d1d;"/>
   </g>
   <g id="patch_159">
    <path clip-path="url(#p4c000f1c8d)" d="M 94.715772 87.400971 
L 95.326944 87.400971 
L 95.326944 87.023044 
L 94.715772 87.023044 
z
" style="fill:#1d1d1d;"/>
   </g>
   <g id="patch_160">
    <path clip-path="url(#p4c000f1c8d)" d="M 95.225082 87.400971 
L 95.836254 87.400971 
L 95.836254 87.025094 
L 95.225082 87.025094 
z
" style="fill:#1d1d1d;"/>
   </g>
   <g id="patch_161">
    <path clip-path="url(#p4c000f1c8d)" d="M 95.734392 87.400971 
L 96.345564 87.400971 
L 96.345564 87.027314 
L 95.734392 87.027314 
z
" style="fill:#1d1d1d;"/>
   </g>
   <g id="patch_162">
    <path clip-path="url(#p4c000f1c8d)" d="M 96.243702 87.400971 
L 96.854874 87.400971 
L 96.854874 87.029984 
L 96.243702 87.029984 
z
" style="fill:#1d1d1d;"/>
   </g>
   <g id="patch_163">
    <path clip-path="url(#p4c000f1c8d)" d="M 96.753012 87.400971 
L 97.364184 87.400971 
L 97.364184 87.033531 
L 96.753012 87.033531 
z
" style="fill:#1d1d1d;"/>
   </g>
   <g id="patch_164">
    <path clip-path="url(#p4c000f1c8d)" d="M 97.262322 87.400971 
L 97.873494 87.400971 
L 97.873494 87.035551 
L 97.262322 87.035551 
z
" style="fill:#1d1d1d;"/>
   </g>
   <g id="patch_165">
    <path clip-path="url(#p4c000f1c8d)" d="M 97.771632 87.400971 
L 98.382804 87.400971 
L 98.382804 87.039427 
L 97.771632 87.039427 
z
" style="fill:#1d1d1d;"/>
   </g>
   <g id="patch_166">
    <path clip-path="url(#p4c000f1c8d)" d="M 98.280942 87.400971 
L 98.892114 87.400971 
L 98.892114 87.040533 
L 98.280942 87.040533 
z
" style="fill:#1d1d1d;"/>
   </g>
   <g id="patch_167">
    <path clip-path="url(#p4c000f1c8d)" d="M 98.790252 87.400971 
L 99.401424 87.400971 
L 99.401424 87.049412 
L 98.790252 87.049412 
z
" style="fill:#1d1d1d;"/>
   </g>
   <g id="patch_168">
    <path clip-path="url(#p4c000f1c8d)" d="M 99.299562 87.400971 
L 99.910734 87.400971 
L 99.910734 87.054685 
L 99.299562 87.054685 
z
" style="fill:#1d1d1d;"/>
   </g>
   <g id="patch_169">
    <path clip-path="url(#p4c000f1c8d)" d="M 99.808872 87.400971 
L 100.420044 87.400971 
L 100.420044 87.056536 
L 99.808872 87.056536 
z
" style="fill:#1d1d1d;"/>
   </g>
   <g id="patch_170">
    <path clip-path="url(#p4c000f1c8d)" d="M 100.318182 87.400971 
L 100.929354 87.400971 
L 100.929354 87.067508 
L 100.318182 87.067508 
z
" style="fill:#1d1d1d;"/>
   </g>
   <g id="patch_171">
    <path clip-path="url(#p4c000f1c8d)" d="M 100.827492 87.400971 
L 101.438664 87.400971 
L 101.438664 87.067946 
L 100.827492 87.067946 
z
" style="fill:#1d1d1d;"/>
   </g>
   <g id="patch_172">
    <path clip-path="url(#p4c000f1c8d)" d="M 101.336802 87.400971 
L 101.947974 87.400971 
L 101.947974 87.071751 
L 101.336802 87.071751 
z
" style="fill:#1d1d1d;"/>
   </g>
   <g id="patch_173">
    <path clip-path="url(#p4c000f1c8d)" d="M 101.846112 87.400971 
L 102.457284 87.400971 
L 102.457284 87.073008 
L 101.846112 87.073008 
z
" style="fill:#1d1d1d;"/>
   </g>
   <g id="patch_174">
    <path clip-path="url(#p4c000f1c8d)" d="M 102.355422 87.400971 
L 102.966594 87.400971 
L 102.966594 87.073502 
L 102.355422 87.073502 
z
" style="fill:#1d1d1d;"/>
   </g>
   <g id="patch_175">
    <path clip-path="url(#p4c000f1c8d)" d="M 102.864732 87.400971 
L 103.475904 87.400971 
L 103.475904 87.079065 
L 102.864732 87.079065 
z
" style="fill:#1d1d1d;"/>
   </g>
   <g id="patch_176">
    <path clip-path="url(#p4c000f1c8d)" d="M 103.374042 87.400971 
L 103.985214 87.400971 
L 103.985214 87.086311 
L 103.374042 87.086311 
z
" style="fill:#1d1d1d;"/>
   </g>
   <g id="patch_177">
    <path clip-path="url(#p4c000f1c8d)" d="M 103.883352 87.400971 
L 104.494524 87.400971 
L 104.494524 87.086564 
L 103.883352 87.086564 
z
" style="fill:#1d1d1d;"/>
   </g>
   <g id="patch_178">
    <path clip-path="url(#p4c000f1c8d)" d="M 104.392662 87.400971 
L 105.003834 87.400971 
L 105.003834 87.087488 
L 104.392662 87.087488 
z
" style="fill:#1d1d1d;"/>
   </g>
   <g id="patch_179">
    <path clip-path="url(#p4c000f1c8d)" d="M 104.901972 87.400971 
L 105.513143 87.400971 
L 105.513143 87.088826 
L 104.901972 87.088826 
z
" style="fill:#1d1d1d;"/>
   </g>
   <g id="patch_180">
    <path clip-path="url(#p4c000f1c8d)" d="M 105.411281 87.400971 
L 106.022453 87.400971 
L 106.022453 87.089369 
L 105.411281 87.089369 
z
" style="fill:#1d1d1d;"/>
   </g>
   <g id="patch_181">
    <path clip-path="url(#p4c000f1c8d)" d="M 105.920591 87.400971 
L 106.531763 87.400971 
L 106.531763 87.094174 
L 105.920591 87.094174 
z
" style="fill:#1d1d1d;"/>
   </g>
   <g id="patch_182">
    <path clip-path="url(#p4c000f1c8d)" d="M 106.429901 87.400971 
L 107.041073 87.400971 
L 107.041073 87.097746 
L 106.429901 87.097746 
z
" style="fill:#1d1d1d;"/>
   </g>
   <g id="patch_183">
    <path clip-path="url(#p4c000f1c8d)" d="M 106.939211 87.400971 
L 107.550383 87.400971 
L 107.550383 87.099562 
L 106.939211 87.099562 
z
" style="fill:#1d1d1d;"/>
   </g>
   <g id="patch_184">
    <path clip-path="url(#p4c000f1c8d)" d="M 107.448521 87.400971 
L 108.059693 87.400971 
L 108.059693 87.100121 
L 107.448521 87.100121 
z
" style="fill:#1d1d1d;"/>
   </g>
   <g id="patch_185">
    <path clip-path="url(#p4c000f1c8d)" d="M 107.957831 87.400971 
L 108.569003 87.400971 
L 108.569003 87.1003 
L 107.957831 87.1003 
z
" style="fill:#1d1d1d;"/>
   </g>
   <g id="patch_186">
    <path clip-path="url(#p4c000f1c8d)" d="M 108.467141 87.400971 
L 109.078313 87.400971 
L 109.078313 87.101076 
L 108.467141 87.101076 
z
" style="fill:#1d1d1d;"/>
   </g>
   <g id="patch_187">
    <path clip-path="url(#p4c000f1c8d)" d="M 108.976451 87.400971 
L 109.587623 87.400971 
L 109.587623 87.104325 
L 108.976451 87.104325 
z
" style="fill:#1d1d1d;"/>
   </g>
   <g id="patch_188">
    <path clip-path="url(#p4c000f1c8d)" d="M 109.485761 87.400971 
L 110.096933 87.400971 
L 110.096933 87.104769 
L 109.485761 87.104769 
z
" style="fill:#1d1d1d;"/>
   </g>
   <g id="patch_189">
    <path clip-path="url(#p4c000f1c8d)" d="M 109.995071 87.400971 
L 110.606243 87.400971 
L 110.606243 87.105608 
L 109.995071 87.105608 
z
" style="fill:#1d1d1d;"/>
   </g>
   <g id="patch_190">
    <path clip-path="url(#p4c000f1c8d)" d="M 110.504381 87.400971 
L 111.115553 87.400971 
L 111.115553 87.108594 
L 110.504381 87.108594 
z
" style="fill:#1d1d1d;"/>
   </g>
   <g id="patch_191">
    <path clip-path="url(#p4c000f1c8d)" d="M 111.013691 87.400971 
L 111.624863 87.400971 
L 111.624863 87.110856 
L 111.013691 87.110856 
z
" style="fill:#1d1d1d;"/>
   </g>
   <g id="patch_192">
    <path clip-path="url(#p4c000f1c8d)" d="M 111.523001 87.400971 
L 112.134173 87.400971 
L 112.134173 87.111172 
L 111.523001 87.111172 
z
" style="fill:#1d1d1d;"/>
   </g>
   <g id="patch_193">
    <path clip-path="url(#p4c000f1c8d)" d="M 112.032311 87.400971 
L 112.643483 87.400971 
L 112.643483 87.11203 
L 112.032311 87.11203 
z
" style="fill:#1d1d1d;"/>
   </g>
   <g id="patch_194">
    <path clip-path="url(#p4c000f1c8d)" d="M 112.541621 87.400971 
L 113.152793 87.400971 
L 113.152793 87.113819 
L 112.541621 87.113819 
z
" style="fill:#1d1d1d;"/>
   </g>
   <g id="patch_195">
    <path clip-path="url(#p4c000f1c8d)" d="M 113.050931 87.400971 
L 113.662103 87.400971 
L 113.662103 87.113845 
L 113.050931 87.113845 
z
" style="fill:#1d1d1d;"/>
   </g>
   <g id="patch_196">
    <path clip-path="url(#p4c000f1c8d)" d="M 113.560241 87.400971 
L 114.171413 87.400971 
L 114.171413 87.11797 
L 113.560241 87.11797 
z
" style="fill:#1d1d1d;"/>
   </g>
   <g id="patch_197">
    <path clip-path="url(#p4c000f1c8d)" d="M 114.069551 87.400971 
L 114.680723 87.400971 
L 114.680723 87.119441 
L 114.069551 87.119441 
z
" style="fill:#1d1d1d;"/>
   </g>
   <g id="patch_198">
    <path clip-path="url(#p4c000f1c8d)" d="M 114.578861 87.400971 
L 115.190033 87.400971 
L 115.190033 87.119781 
L 114.578861 87.119781 
z
" style="fill:#1d1d1d;"/>
   </g>
   <g id="patch_199">
    <path clip-path="url(#p4c000f1c8d)" d="M 115.088171 87.400971 
L 115.699343 87.400971 
L 115.699343 87.122233 
L 115.088171 87.122233 
z
" style="fill:#1d1d1d;"/>
   </g>
   <g id="patch_200">
    <path clip-path="url(#p4c000f1c8d)" d="M 115.597481 87.400971 
L 116.208653 87.400971 
L 116.208653 87.124103 
L 115.597481 87.124103 
z
" style="fill:#1d1d1d;"/>
   </g>
   <g id="patch_201">
    <path clip-path="url(#p4c000f1c8d)" d="M 116.106791 87.400971 
L 116.717963 87.400971 
L 116.717963 87.124625 
L 116.106791 87.124625 
z
" style="fill:#1d1d1d;"/>
   </g>
   <g id="patch_202">
    <path clip-path="url(#p4c000f1c8d)" d="M 116.616101 87.400971 
L 117.227273 87.400971 
L 117.227273 87.126988 
L 116.616101 87.126988 
z
" style="fill:#1d1d1d;"/>
   </g>
   <g id="matplotlib.axis_1"/>
   <g id="matplotlib.axis_2"/>
   <g id="patch_203">
    <path d="M 10.7 93.86 
L 10.7 10.7 
" style="fill:none;stroke:#000000;stroke-linecap:square;stroke-linejoin:miter;stroke-width:0.8;"/>
   </g>
   <g id="patch_204">
    <path d="M 122.3 93.86 
L 122.3 10.7 
" style="fill:none;stroke:#000000;stroke-linecap:square;stroke-linejoin:miter;stroke-width:0.8;"/>
   </g>
   <g id="patch_205">
    <path d="M 10.7 93.86 
L 122.3 93.86 
" style="fill:none;stroke:#000000;stroke-linecap:square;stroke-linejoin:miter;stroke-width:0.8;"/>
   </g>
   <g id="patch_206">
    <path d="M 10.7 10.7 
L 122.3 10.7 
" style="fill:none;stroke:#000000;stroke-linecap:square;stroke-linejoin:miter;stroke-width:0.8;"/>
   </g>
  </g>
 </g>
 <defs>
  <clipPath id="p4c000f1c8d">
   <rect height="83.16" width="111.6" x="10.7" y="10.7"/>
  </clipPath>
 </defs>
</svg>
