<?xml version="1.0" encoding="utf-8" standalone="no"?>
<!DOCTYPE svg PUBLIC "-//W3C//DTD SVG 1.1//EN"
  "http://www.w3.org/Graphics/SVG/1.1/DTD/svg11.dtd">
<!-- Created with matplotlib (http://matplotlib.org/) -->
<svg height="187pt" version="1.1" viewBox="0 0 187 187" width="187pt" xmlns="http://www.w3.org/2000/svg" xmlns:xlink="http://www.w3.org/1999/xlink">
 <defs>
  <style type="text/css">
*{stroke-linecap:butt;stroke-linejoin:round;}
  </style>
 </defs>
 <g id="figure_1">
  <g id="patch_1">
   <path d="M 0 187 
L 187 187 
L 187 -0 
L 0 -0 
z
" style="fill:#ffffff;"/>
  </g>
  <g id="axes_1">
   <g id="patch_2">
    <path d="M 3.5 183.5 
L 183.5 183.5 
L 183.5 3.5 
L 3.5 3.5 
z
" style="fill:#ffffff;"/>
   </g>
   <g id="matplotlib.axis_1"/>
   <g id="matplotlib.axis_2"/>
   <g id="line2d_1">
    <path clip-path="url(#pe11c0c8b4f)" d="M 7.1 181.684603 
L 10.7 179.834644 
L 14.3 175.689167 
L 17.9 169.54692 
L 21.5 169.845727 
L 25.1 144.821999 
L 28.7 153.440645 
L 32.3 133.8718 
L 35.9 106.862209 
L 39.5 96.005027 
L 43.1 53.808067 
L 46.7 52.905267 
L 50.3 47.828036 
L 53.9 11.410137 
L 57.5 27.326269 
L 61.1 17.084342 
L 64.7 11.85831 
L 68.3 8.848084 
L 71.9 5.693277 
L 75.5 5.973797 
L 79.1 5.414706 
L 82.7 5.28024 
L 86.3 5.27912 
L 89.9 5.283167 
L 93.5 5.264706 
L 97.1 5.268468 
L 100.7 5.268309 
L 104.3 5.264706 
L 107.9 5.264706 
L 111.5 5.421228 
L 115.1 5.36682 
L 118.7 14.715747 
L 122.3 5.264706 
L 125.9 5.264706 
" style="fill:none;stroke:#424086;stroke-linecap:square;stroke-width:2;"/>
    <defs>
     <path d="M 0 3 
C 0.795609 3 1.55874 2.683901 2.12132 2.12132 
C 2.683901 1.55874 3 0.795609 3 0 
C 3 -0.795609 2.683901 -1.55874 2.12132 -2.12132 
C 1.55874 -2.683901 0.795609 -3 0 -3 
C -0.795609 -3 -1.55874 -2.683901 -2.12132 -2.12132 
C -2.683901 -1.55874 -3 -0.795609 -3 0 
C -3 0.795609 -2.683901 1.55874 -2.12132 2.12132 
C -1.55874 2.683901 -0.795609 3 0 3 
z
" id="mb3a5e53297" style="stroke:#424086;"/>
    </defs>
    <g clip-path="url(#pe11c0c8b4f)">
     <use style="fill:#424086;stroke:#424086;" x="7.1" xlink:href="#mb3a5e53297" y="181.684603"/>
     <use style="fill:#424086;stroke:#424086;" x="10.7" xlink:href="#mb3a5e53297" y="179.834644"/>
     <use style="fill:#424086;stroke:#424086;" x="14.3" xlink:href="#mb3a5e53297" y="175.689167"/>
     <use style="fill:#424086;stroke:#424086;" x="17.9" xlink:href="#mb3a5e53297" y="169.54692"/>
     <use style="fill:#424086;stroke:#424086;" x="21.5" xlink:href="#mb3a5e53297" y="169.845727"/>
     <use style="fill:#424086;stroke:#424086;" x="25.1" xlink:href="#mb3a5e53297" y="144.821999"/>
     <use style="fill:#424086;stroke:#424086;" x="28.7" xlink:href="#mb3a5e53297" y="153.440645"/>
     <use style="fill:#424086;stroke:#424086;" x="32.3" xlink:href="#mb3a5e53297" y="133.8718"/>
     <use style="fill:#424086;stroke:#424086;" x="35.9" xlink:href="#mb3a5e53297" y="106.862209"/>
     <use style="fill:#424086;stroke:#424086;" x="39.5" xlink:href="#mb3a5e53297" y="96.005027"/>
     <use style="fill:#424086;stroke:#424086;" x="43.1" xlink:href="#mb3a5e53297" y="53.808067"/>
     <use style="fill:#424086;stroke:#424086;" x="46.7" xlink:href="#mb3a5e53297" y="52.905267"/>
     <use style="fill:#424086;stroke:#424086;" x="50.3" xlink:href="#mb3a5e53297" y="47.828036"/>
     <use style="fill:#424086;stroke:#424086;" x="53.9" xlink:href="#mb3a5e53297" y="11.410137"/>
     <use style="fill:#424086;stroke:#424086;" x="57.5" xlink:href="#mb3a5e53297" y="27.326269"/>
     <use style="fill:#424086;stroke:#424086;" x="61.1" xlink:href="#mb3a5e53297" y="17.084342"/>
     <use style="fill:#424086;stroke:#424086;" x="64.7" xlink:href="#mb3a5e53297" y="11.85831"/>
     <use style="fill:#424086;stroke:#424086;" x="68.3" xlink:href="#mb3a5e53297" y="8.848084"/>
     <use style="fill:#424086;stroke:#424086;" x="71.9" xlink:href="#mb3a5e53297" y="5.693277"/>
     <use style="fill:#424086;stroke:#424086;" x="75.5" xlink:href="#mb3a5e53297" y="5.973797"/>
     <use style="fill:#424086;stroke:#424086;" x="79.1" xlink:href="#mb3a5e53297" y="5.414706"/>
     <use style="fill:#424086;stroke:#424086;" x="82.7" xlink:href="#mb3a5e53297" y="5.28024"/>
     <use style="fill:#424086;stroke:#424086;" x="86.3" xlink:href="#mb3a5e53297" y="5.27912"/>
     <use style="fill:#424086;stroke:#424086;" x="89.9" xlink:href="#mb3a5e53297" y="5.283167"/>
     <use style="fill:#424086;stroke:#424086;" x="93.5" xlink:href="#mb3a5e53297" y="5.264706"/>
     <use style="fill:#424086;stroke:#424086;" x="97.1" xlink:href="#mb3a5e53297" y="5.268468"/>
     <use style="fill:#424086;stroke:#424086;" x="100.7" xlink:href="#mb3a5e53297" y="5.268309"/>
     <use style="fill:#424086;stroke:#424086;" x="104.3" xlink:href="#mb3a5e53297" y="5.264706"/>
     <use style="fill:#424086;stroke:#424086;" x="107.9" xlink:href="#mb3a5e53297" y="5.264706"/>
     <use style="fill:#424086;stroke:#424086;" x="111.5" xlink:href="#mb3a5e53297" y="5.421228"/>
     <use style="fill:#424086;stroke:#424086;" x="115.1" xlink:href="#mb3a5e53297" y="5.36682"/>
     <use style="fill:#424086;stroke:#424086;" x="118.7" xlink:href="#mb3a5e53297" y="14.715747"/>
     <use style="fill:#424086;stroke:#424086;" x="122.3" xlink:href="#mb3a5e53297" y="5.264706"/>
     <use style="fill:#424086;stroke:#424086;" x="125.9" xlink:href="#mb3a5e53297" y="5.264706"/>
    </g>
   </g>
   <g id="patch_3">
    <path d="M 3.5 183.5 
L 3.5 3.5 
" style="fill:none;stroke:#000000;stroke-linecap:square;stroke-linejoin:miter;stroke-width:0.8;"/>
   </g>
   <g id="patch_4">
    <path d="M 183.5 183.5 
L 183.5 3.5 
" style="fill:none;stroke:#000000;stroke-linecap:square;stroke-linejoin:miter;stroke-width:0.8;"/>
   </g>
   <g id="patch_5">
    <path d="M 3.5 183.5 
L 183.5 183.5 
" style="fill:none;stroke:#000000;stroke-linecap:square;stroke-linejoin:miter;stroke-width:0.8;"/>
   </g>
   <g id="patch_6">
    <path d="M 3.5 3.5 
L 183.5 3.5 
" style="fill:none;stroke:#000000;stroke-linecap:square;stroke-linejoin:miter;stroke-width:0.8;"/>
   </g>
  </g>
 </g>
 <defs>
  <clipPath id="pe11c0c8b4f">
   <rect height="180" width="180" x="3.5" y="3.5"/>
  </clipPath>
 </defs>
</svg>
