<?xml version="1.0" encoding="utf-8" standalone="no"?>
<!DOCTYPE svg PUBLIC "-//W3C//DTD SVG 1.1//EN"
  "http://www.w3.org/Graphics/SVG/1.1/DTD/svg11.dtd">
<!-- Created with matplotlib (http://matplotlib.org/) -->
<svg height="187pt" version="1.1" viewBox="0 0 187 187" width="187pt" xmlns="http://www.w3.org/2000/svg" xmlns:xlink="http://www.w3.org/1999/xlink">
 <defs>
  <style type="text/css">
*{stroke-linecap:butt;stroke-linejoin:round;}
  </style>
 </defs>
 <g id="figure_1">
  <g id="patch_1">
   <path d="M 0 187 
L 187 187 
L 187 -0 
L 0 -0 
z
" style="fill:#ffffff;"/>
  </g>
  <g id="axes_1">
   <g id="patch_2">
    <path d="M 3.5 183.5 
L 183.5 183.5 
L 183.5 3.5 
L 3.5 3.5 
z
" style="fill:#ffffff;"/>
   </g>
   <g id="matplotlib.axis_1"/>
   <g id="matplotlib.axis_2"/>
   <g id="line2d_1">
    <path clip-path="url(#pae6160d96e)" d="M 7.1 181.393149 
L 10.7 172.975425 
L 14.3 166.678131 
L 17.9 171.337038 
L 21.5 163.861908 
L 25.1 164.30305 
L 28.7 173.427751 
L 32.3 140.772513 
L 35.9 167.466036 
L 39.5 142.826593 
L 43.1 137.076484 
L 46.7 156.050133 
L 50.3 115.387262 
L 53.9 156.100878 
L 57.5 151.687633 
L 61.1 135.169531 
L 64.7 139.866311 
L 68.3 155.382966 
L 71.9 101.012219 
L 75.5 101.21107 
L 79.1 106.904688 
L 82.7 127.713092 
L 86.3 99.01541 
L 89.9 52.989754 
L 93.5 81.712856 
L 97.1 70.808856 
L 100.7 62.693185 
L 104.3 56.250715 
L 107.9 84.59843 
L 111.5 55.943414 
L 115.1 82.039456 
L 118.7 88.364274 
L 122.3 60.978123 
L 125.9 78.505518 
L 129.5 74.326833 
L 133.1 86.995057 
L 136.7 110.757557 
L 140.3 99.168781 
L 143.9 107.042733 
L 147.5 131.433812 
L 151.1 133.473313 
L 154.7 133.388512 
L 158.3 149.12017 
L 161.9 167.886765 
L 165.5 152.75288 
L 169.1 166.086161 
L 172.7 173.104941 
L 176.3 160.084224 
L 179.9 38.863554 
L 183.5 56.749365 
" style="fill:none;stroke:#23898e;stroke-linecap:square;stroke-width:2;"/>
    <defs>
     <path d="M 0 3 
C 0.795609 3 1.55874 2.683901 2.12132 2.12132 
C 2.683901 1.55874 3 0.795609 3 0 
C 3 -0.795609 2.683901 -1.55874 2.12132 -2.12132 
C 1.55874 -2.683901 0.795609 -3 0 -3 
C -0.795609 -3 -1.55874 -2.683901 -2.12132 -2.12132 
C -2.683901 -1.55874 -3 -0.795609 -3 0 
C -3 0.795609 -2.683901 1.55874 -2.12132 2.12132 
C -1.55874 2.683901 -0.795609 3 0 3 
z
" id="mf54821b4aa" style="stroke:#23898e;"/>
    </defs>
    <g clip-path="url(#pae6160d96e)">
     <use style="fill:#23898e;stroke:#23898e;" x="7.1" xlink:href="#mf54821b4aa" y="181.393149"/>
     <use style="fill:#23898e;stroke:#23898e;" x="10.7" xlink:href="#mf54821b4aa" y="172.975425"/>
     <use style="fill:#23898e;stroke:#23898e;" x="14.3" xlink:href="#mf54821b4aa" y="166.678131"/>
     <use style="fill:#23898e;stroke:#23898e;" x="17.9" xlink:href="#mf54821b4aa" y="171.337038"/>
     <use style="fill:#23898e;stroke:#23898e;" x="21.5" xlink:href="#mf54821b4aa" y="163.861908"/>
     <use style="fill:#23898e;stroke:#23898e;" x="25.1" xlink:href="#mf54821b4aa" y="164.30305"/>
     <use style="fill:#23898e;stroke:#23898e;" x="28.7" xlink:href="#mf54821b4aa" y="173.427751"/>
     <use style="fill:#23898e;stroke:#23898e;" x="32.3" xlink:href="#mf54821b4aa" y="140.772513"/>
     <use style="fill:#23898e;stroke:#23898e;" x="35.9" xlink:href="#mf54821b4aa" y="167.466036"/>
     <use style="fill:#23898e;stroke:#23898e;" x="39.5" xlink:href="#mf54821b4aa" y="142.826593"/>
     <use style="fill:#23898e;stroke:#23898e;" x="43.1" xlink:href="#mf54821b4aa" y="137.076484"/>
     <use style="fill:#23898e;stroke:#23898e;" x="46.7" xlink:href="#mf54821b4aa" y="156.050133"/>
     <use style="fill:#23898e;stroke:#23898e;" x="50.3" xlink:href="#mf54821b4aa" y="115.387262"/>
     <use style="fill:#23898e;stroke:#23898e;" x="53.9" xlink:href="#mf54821b4aa" y="156.100878"/>
     <use style="fill:#23898e;stroke:#23898e;" x="57.5" xlink:href="#mf54821b4aa" y="151.687633"/>
     <use style="fill:#23898e;stroke:#23898e;" x="61.1" xlink:href="#mf54821b4aa" y="135.169531"/>
     <use style="fill:#23898e;stroke:#23898e;" x="64.7" xlink:href="#mf54821b4aa" y="139.866311"/>
     <use style="fill:#23898e;stroke:#23898e;" x="68.3" xlink:href="#mf54821b4aa" y="155.382966"/>
     <use style="fill:#23898e;stroke:#23898e;" x="71.9" xlink:href="#mf54821b4aa" y="101.012219"/>
     <use style="fill:#23898e;stroke:#23898e;" x="75.5" xlink:href="#mf54821b4aa" y="101.21107"/>
     <use style="fill:#23898e;stroke:#23898e;" x="79.1" xlink:href="#mf54821b4aa" y="106.904688"/>
     <use style="fill:#23898e;stroke:#23898e;" x="82.7" xlink:href="#mf54821b4aa" y="127.713092"/>
     <use style="fill:#23898e;stroke:#23898e;" x="86.3" xlink:href="#mf54821b4aa" y="99.01541"/>
     <use style="fill:#23898e;stroke:#23898e;" x="89.9" xlink:href="#mf54821b4aa" y="52.989754"/>
     <use style="fill:#23898e;stroke:#23898e;" x="93.5" xlink:href="#mf54821b4aa" y="81.712856"/>
     <use style="fill:#23898e;stroke:#23898e;" x="97.1" xlink:href="#mf54821b4aa" y="70.808856"/>
     <use style="fill:#23898e;stroke:#23898e;" x="100.7" xlink:href="#mf54821b4aa" y="62.693185"/>
     <use style="fill:#23898e;stroke:#23898e;" x="104.3" xlink:href="#mf54821b4aa" y="56.250715"/>
     <use style="fill:#23898e;stroke:#23898e;" x="107.9" xlink:href="#mf54821b4aa" y="84.59843"/>
     <use style="fill:#23898e;stroke:#23898e;" x="111.5" xlink:href="#mf54821b4aa" y="55.943414"/>
     <use style="fill:#23898e;stroke:#23898e;" x="115.1" xlink:href="#mf54821b4aa" y="82.039456"/>
     <use style="fill:#23898e;stroke:#23898e;" x="118.7" xlink:href="#mf54821b4aa" y="88.364274"/>
     <use style="fill:#23898e;stroke:#23898e;" x="122.3" xlink:href="#mf54821b4aa" y="60.978123"/>
     <use style="fill:#23898e;stroke:#23898e;" x="125.9" xlink:href="#mf54821b4aa" y="78.505518"/>
     <use style="fill:#23898e;stroke:#23898e;" x="129.5" xlink:href="#mf54821b4aa" y="74.326833"/>
     <use style="fill:#23898e;stroke:#23898e;" x="133.1" xlink:href="#mf54821b4aa" y="86.995057"/>
     <use style="fill:#23898e;stroke:#23898e;" x="136.7" xlink:href="#mf54821b4aa" y="110.757557"/>
     <use style="fill:#23898e;stroke:#23898e;" x="140.3" xlink:href="#mf54821b4aa" y="99.168781"/>
     <use style="fill:#23898e;stroke:#23898e;" x="143.9" xlink:href="#mf54821b4aa" y="107.042733"/>
     <use style="fill:#23898e;stroke:#23898e;" x="147.5" xlink:href="#mf54821b4aa" y="131.433812"/>
     <use style="fill:#23898e;stroke:#23898e;" x="151.1" xlink:href="#mf54821b4aa" y="133.473313"/>
     <use style="fill:#23898e;stroke:#23898e;" x="154.7" xlink:href="#mf54821b4aa" y="133.388512"/>
     <use style="fill:#23898e;stroke:#23898e;" x="158.3" xlink:href="#mf54821b4aa" y="149.12017"/>
     <use style="fill:#23898e;stroke:#23898e;" x="161.9" xlink:href="#mf54821b4aa" y="167.886765"/>
     <use style="fill:#23898e;stroke:#23898e;" x="165.5" xlink:href="#mf54821b4aa" y="152.75288"/>
     <use style="fill:#23898e;stroke:#23898e;" x="169.1" xlink:href="#mf54821b4aa" y="166.086161"/>
     <use style="fill:#23898e;stroke:#23898e;" x="172.7" xlink:href="#mf54821b4aa" y="173.104941"/>
     <use style="fill:#23898e;stroke:#23898e;" x="176.3" xlink:href="#mf54821b4aa" y="160.084224"/>
     <use style="fill:#23898e;stroke:#23898e;" x="179.9" xlink:href="#mf54821b4aa" y="38.863554"/>
     <use style="fill:#23898e;stroke:#23898e;" x="183.5" xlink:href="#mf54821b4aa" y="56.749365"/>
    </g>
   </g>
   <g id="patch_3">
    <path d="M 3.5 183.5 
L 3.5 3.5 
" style="fill:none;stroke:#000000;stroke-linecap:square;stroke-linejoin:miter;stroke-width:0.8;"/>
   </g>
   <g id="patch_4">
    <path d="M 183.5 183.5 
L 183.5 3.5 
" style="fill:none;stroke:#000000;stroke-linecap:square;stroke-linejoin:miter;stroke-width:0.8;"/>
   </g>
   <g id="patch_5">
    <path d="M 3.5 183.5 
L 183.5 183.5 
" style="fill:none;stroke:#000000;stroke-linecap:square;stroke-linejoin:miter;stroke-width:0.8;"/>
   </g>
   <g id="patch_6">
    <path d="M 3.5 3.5 
L 183.5 3.5 
" style="fill:none;stroke:#000000;stroke-linecap:square;stroke-linejoin:miter;stroke-width:0.8;"/>
   </g>
  </g>
 </g>
 <defs>
  <clipPath id="pae6160d96e">
   <rect height="180" width="180" x="3.5" y="3.5"/>
  </clipPath>
 </defs>
</svg>
