<?xml version="1.0" encoding="utf-8" standalone="no"?>
<!DOCTYPE svg PUBLIC "-//W3C//DTD SVG 1.1//EN"
  "http://www.w3.org/Graphics/SVG/1.1/DTD/svg11.dtd">
<!-- Created with matplotlib (http://matplotlib.org/) -->
<svg height="187pt" version="1.1" viewBox="0 0 187 187" width="187pt" xmlns="http://www.w3.org/2000/svg" xmlns:xlink="http://www.w3.org/1999/xlink">
 <defs>
  <style type="text/css">
*{stroke-linecap:butt;stroke-linejoin:round;}
  </style>
 </defs>
 <g id="figure_1">
  <g id="patch_1">
   <path d="M 0 187 
L 187 187 
L 187 -0 
L 0 -0 
z
" style="fill:#ffffff;"/>
  </g>
  <g id="axes_1">
   <g id="patch_2">
    <path d="M 3.5 183.5 
L 183.5 183.5 
L 183.5 3.5 
L 3.5 3.5 
z
" style="fill:#ffffff;"/>
   </g>
   <g id="matplotlib.axis_1"/>
   <g id="matplotlib.axis_2"/>
   <g id="line2d_1">
    <path clip-path="url(#pe35c001efe)" d="M 7.1 181.655582 
L 10.7 170.948902 
L 14.3 170.572558 
L 17.9 167.490735 
L 21.5 168.376324 
L 25.1 161.89614 
L 28.7 155.09982 
L 32.3 155.635902 
L 35.9 173.155147 
L 39.5 147.794295 
L 43.1 137.209641 
L 46.7 151.22 
L 50.3 132.330392 
L 53.9 156.505249 
L 57.5 148.25684 
L 61.1 119.473495 
L 64.7 127.441408 
L 68.3 122.706332 
L 71.9 97.911299 
L 75.5 85.485835 
L 79.1 91.437073 
L 82.7 114.946814 
L 86.3 76.253466 
L 89.9 72.868015 
L 93.5 63.680188 
L 97.1 68.967778 
L 100.7 16.641142 
L 104.3 101.841639 
L 107.9 41.743791 
L 111.5 54.897059 
L 115.1 95.302533 
L 118.7 73.235997 
L 122.3 55.406883 
L 125.9 74.503252 
L 129.5 84.628059 
L 133.1 64.47683 
L 136.7 121.073843 
L 140.3 83.868502 
L 143.9 100.145275 
L 147.5 116.149941 
L 151.1 123.320813 
L 154.7 108.399224 
L 158.3 144.593674 
L 161.9 143.986579 
L 165.5 118.288625 
L 169.1 141.782325 
L 172.7 124.451325 
L 176.3 84.513667 
L 179.9 17.255385 
L 183.5 31.348254 
" style="fill:none;stroke:#23898e;stroke-linecap:square;stroke-width:2;"/>
    <defs>
     <path d="M 0 3 
C 0.795609 3 1.55874 2.683901 2.12132 2.12132 
C 2.683901 1.55874 3 0.795609 3 0 
C 3 -0.795609 2.683901 -1.55874 2.12132 -2.12132 
C 1.55874 -2.683901 0.795609 -3 0 -3 
C -0.795609 -3 -1.55874 -2.683901 -2.12132 -2.12132 
C -2.683901 -1.55874 -3 -0.795609 -3 0 
C -3 0.795609 -2.683901 1.55874 -2.12132 2.12132 
C -1.55874 2.683901 -0.795609 3 0 3 
z
" id="m1a9e6d4b52" style="stroke:#23898e;"/>
    </defs>
    <g clip-path="url(#pe35c001efe)">
     <use style="fill:#23898e;stroke:#23898e;" x="7.1" xlink:href="#m1a9e6d4b52" y="181.655582"/>
     <use style="fill:#23898e;stroke:#23898e;" x="10.7" xlink:href="#m1a9e6d4b52" y="170.948902"/>
     <use style="fill:#23898e;stroke:#23898e;" x="14.3" xlink:href="#m1a9e6d4b52" y="170.572558"/>
     <use style="fill:#23898e;stroke:#23898e;" x="17.9" xlink:href="#m1a9e6d4b52" y="167.490735"/>
     <use style="fill:#23898e;stroke:#23898e;" x="21.5" xlink:href="#m1a9e6d4b52" y="168.376324"/>
     <use style="fill:#23898e;stroke:#23898e;" x="25.1" xlink:href="#m1a9e6d4b52" y="161.89614"/>
     <use style="fill:#23898e;stroke:#23898e;" x="28.7" xlink:href="#m1a9e6d4b52" y="155.09982"/>
     <use style="fill:#23898e;stroke:#23898e;" x="32.3" xlink:href="#m1a9e6d4b52" y="155.635902"/>
     <use style="fill:#23898e;stroke:#23898e;" x="35.9" xlink:href="#m1a9e6d4b52" y="173.155147"/>
     <use style="fill:#23898e;stroke:#23898e;" x="39.5" xlink:href="#m1a9e6d4b52" y="147.794295"/>
     <use style="fill:#23898e;stroke:#23898e;" x="43.1" xlink:href="#m1a9e6d4b52" y="137.209641"/>
     <use style="fill:#23898e;stroke:#23898e;" x="46.7" xlink:href="#m1a9e6d4b52" y="151.22"/>
     <use style="fill:#23898e;stroke:#23898e;" x="50.3" xlink:href="#m1a9e6d4b52" y="132.330392"/>
     <use style="fill:#23898e;stroke:#23898e;" x="53.9" xlink:href="#m1a9e6d4b52" y="156.505249"/>
     <use style="fill:#23898e;stroke:#23898e;" x="57.5" xlink:href="#m1a9e6d4b52" y="148.25684"/>
     <use style="fill:#23898e;stroke:#23898e;" x="61.1" xlink:href="#m1a9e6d4b52" y="119.473495"/>
     <use style="fill:#23898e;stroke:#23898e;" x="64.7" xlink:href="#m1a9e6d4b52" y="127.441408"/>
     <use style="fill:#23898e;stroke:#23898e;" x="68.3" xlink:href="#m1a9e6d4b52" y="122.706332"/>
     <use style="fill:#23898e;stroke:#23898e;" x="71.9" xlink:href="#m1a9e6d4b52" y="97.911299"/>
     <use style="fill:#23898e;stroke:#23898e;" x="75.5" xlink:href="#m1a9e6d4b52" y="85.485835"/>
     <use style="fill:#23898e;stroke:#23898e;" x="79.1" xlink:href="#m1a9e6d4b52" y="91.437073"/>
     <use style="fill:#23898e;stroke:#23898e;" x="82.7" xlink:href="#m1a9e6d4b52" y="114.946814"/>
     <use style="fill:#23898e;stroke:#23898e;" x="86.3" xlink:href="#m1a9e6d4b52" y="76.253466"/>
     <use style="fill:#23898e;stroke:#23898e;" x="89.9" xlink:href="#m1a9e6d4b52" y="72.868015"/>
     <use style="fill:#23898e;stroke:#23898e;" x="93.5" xlink:href="#m1a9e6d4b52" y="63.680188"/>
     <use style="fill:#23898e;stroke:#23898e;" x="97.1" xlink:href="#m1a9e6d4b52" y="68.967778"/>
     <use style="fill:#23898e;stroke:#23898e;" x="100.7" xlink:href="#m1a9e6d4b52" y="16.641142"/>
     <use style="fill:#23898e;stroke:#23898e;" x="104.3" xlink:href="#m1a9e6d4b52" y="101.841639"/>
     <use style="fill:#23898e;stroke:#23898e;" x="107.9" xlink:href="#m1a9e6d4b52" y="41.743791"/>
     <use style="fill:#23898e;stroke:#23898e;" x="111.5" xlink:href="#m1a9e6d4b52" y="54.897059"/>
     <use style="fill:#23898e;stroke:#23898e;" x="115.1" xlink:href="#m1a9e6d4b52" y="95.302533"/>
     <use style="fill:#23898e;stroke:#23898e;" x="118.7" xlink:href="#m1a9e6d4b52" y="73.235997"/>
     <use style="fill:#23898e;stroke:#23898e;" x="122.3" xlink:href="#m1a9e6d4b52" y="55.406883"/>
     <use style="fill:#23898e;stroke:#23898e;" x="125.9" xlink:href="#m1a9e6d4b52" y="74.503252"/>
     <use style="fill:#23898e;stroke:#23898e;" x="129.5" xlink:href="#m1a9e6d4b52" y="84.628059"/>
     <use style="fill:#23898e;stroke:#23898e;" x="133.1" xlink:href="#m1a9e6d4b52" y="64.47683"/>
     <use style="fill:#23898e;stroke:#23898e;" x="136.7" xlink:href="#m1a9e6d4b52" y="121.073843"/>
     <use style="fill:#23898e;stroke:#23898e;" x="140.3" xlink:href="#m1a9e6d4b52" y="83.868502"/>
     <use style="fill:#23898e;stroke:#23898e;" x="143.9" xlink:href="#m1a9e6d4b52" y="100.145275"/>
     <use style="fill:#23898e;stroke:#23898e;" x="147.5" xlink:href="#m1a9e6d4b52" y="116.149941"/>
     <use style="fill:#23898e;stroke:#23898e;" x="151.1" xlink:href="#m1a9e6d4b52" y="123.320813"/>
     <use style="fill:#23898e;stroke:#23898e;" x="154.7" xlink:href="#m1a9e6d4b52" y="108.399224"/>
     <use style="fill:#23898e;stroke:#23898e;" x="158.3" xlink:href="#m1a9e6d4b52" y="144.593674"/>
     <use style="fill:#23898e;stroke:#23898e;" x="161.9" xlink:href="#m1a9e6d4b52" y="143.986579"/>
     <use style="fill:#23898e;stroke:#23898e;" x="165.5" xlink:href="#m1a9e6d4b52" y="118.288625"/>
     <use style="fill:#23898e;stroke:#23898e;" x="169.1" xlink:href="#m1a9e6d4b52" y="141.782325"/>
     <use style="fill:#23898e;stroke:#23898e;" x="172.7" xlink:href="#m1a9e6d4b52" y="124.451325"/>
     <use style="fill:#23898e;stroke:#23898e;" x="176.3" xlink:href="#m1a9e6d4b52" y="84.513667"/>
     <use style="fill:#23898e;stroke:#23898e;" x="179.9" xlink:href="#m1a9e6d4b52" y="17.255385"/>
     <use style="fill:#23898e;stroke:#23898e;" x="183.5" xlink:href="#m1a9e6d4b52" y="31.348254"/>
    </g>
   </g>
   <g id="patch_3">
    <path d="M 3.5 183.5 
L 3.5 3.5 
" style="fill:none;stroke:#000000;stroke-linecap:square;stroke-linejoin:miter;stroke-width:0.8;"/>
   </g>
   <g id="patch_4">
    <path d="M 183.5 183.5 
L 183.5 3.5 
" style="fill:none;stroke:#000000;stroke-linecap:square;stroke-linejoin:miter;stroke-width:0.8;"/>
   </g>
   <g id="patch_5">
    <path d="M 3.5 183.5 
L 183.5 183.5 
" style="fill:none;stroke:#000000;stroke-linecap:square;stroke-linejoin:miter;stroke-width:0.8;"/>
   </g>
   <g id="patch_6">
    <path d="M 3.5 3.5 
L 183.5 3.5 
" style="fill:none;stroke:#000000;stroke-linecap:square;stroke-linejoin:miter;stroke-width:0.8;"/>
   </g>
  </g>
 </g>
 <defs>
  <clipPath id="pe35c001efe">
   <rect height="180" width="180" x="3.5" y="3.5"/>
  </clipPath>
 </defs>
</svg>
