<?xml version="1.0" encoding="utf-8" standalone="no"?>
<!DOCTYPE svg PUBLIC "-//W3C//DTD SVG 1.1//EN"
  "http://www.w3.org/Graphics/SVG/1.1/DTD/svg11.dtd">
<!-- Created with matplotlib (http://matplotlib.org/) -->
<svg height="187pt" version="1.1" viewBox="0 0 187 187" width="187pt" xmlns="http://www.w3.org/2000/svg" xmlns:xlink="http://www.w3.org/1999/xlink">
 <defs>
  <style type="text/css">
*{stroke-linecap:butt;stroke-linejoin:round;}
  </style>
 </defs>
 <g id="figure_1">
  <g id="patch_1">
   <path d="M 0 187 
L 187 187 
L 187 -0 
L 0 -0 
z
" style="fill:#ffffff;"/>
  </g>
  <g id="axes_1">
   <g id="patch_2">
    <path d="M 3.5 183.5 
L 183.5 183.5 
L 183.5 3.5 
L 3.5 3.5 
z
" style="fill:#ffffff;"/>
   </g>
   <g id="matplotlib.axis_1"/>
   <g id="matplotlib.axis_2"/>
   <g id="line2d_1">
    <path clip-path="url(#p2ecc096450)" d="M 7.1 181.563765 
L 10.7 180.102605 
L 14.3 179.610336 
L 17.9 177.092647 
L 21.5 176.173382 
L 25.1 173.037815 
L 28.7 162.995588 
L 32.3 157.113529 
L 35.9 159.581618 
L 39.5 160.180294 
L 43.1 154.558824 
L 46.7 152.239216 
L 50.3 158.122353 
L 53.9 139.76 
L 57.5 155.432941 
L 61.1 148.394353 
L 64.7 144.272706 
L 68.3 137.659412 
L 71.9 127.943971 
L 75.5 147.54918 
L 79.1 134.062824 
L 82.7 131.651176 
L 86.3 118.707059 
L 89.9 127.552269 
L 93.5 134.490941 
L 97.1 92.7425 
L 100.7 80.265882 
L 104.3 117.176765 
L 107.9 86.849706 
L 111.5 127.217353 
L 115.1 93.600941 
L 118.7 83.947294 
L 122.3 129.660588 
L 125.9 92.312353 
L 129.5 115.800267 
L 133.1 78.976824 
L 136.7 95.518009 
L 140.3 82.934545 
L 143.9 113.884616 
L 147.5 71.051529 
L 151.1 109.978074 
L 154.7 135.456387 
L 158.3 99.290126 
L 161.9 107.583059 
L 165.5 126.074118 
L 169.1 125.728984 
L 172.7 155.001961 
L 176.3 164.564118 
L 179.9 162.646315 
L 183.5 152.590798 
" style="fill:none;stroke:#9bd93c;stroke-linecap:square;stroke-width:2;"/>
    <defs>
     <path d="M 0 3 
C 0.795609 3 1.55874 2.683901 2.12132 2.12132 
C 2.683901 1.55874 3 0.795609 3 0 
C 3 -0.795609 2.683901 -1.55874 2.12132 -2.12132 
C 1.55874 -2.683901 0.795609 -3 0 -3 
C -0.795609 -3 -1.55874 -2.683901 -2.12132 -2.12132 
C -2.683901 -1.55874 -3 -0.795609 -3 0 
C -3 0.795609 -2.683901 1.55874 -2.12132 2.12132 
C -1.55874 2.683901 -0.795609 3 0 3 
z
" id="m0f5bb4ba35" style="stroke:#9bd93c;"/>
    </defs>
    <g clip-path="url(#p2ecc096450)">
     <use style="fill:#9bd93c;stroke:#9bd93c;" x="7.1" xlink:href="#m0f5bb4ba35" y="181.563765"/>
     <use style="fill:#9bd93c;stroke:#9bd93c;" x="10.7" xlink:href="#m0f5bb4ba35" y="180.102605"/>
     <use style="fill:#9bd93c;stroke:#9bd93c;" x="14.3" xlink:href="#m0f5bb4ba35" y="179.610336"/>
     <use style="fill:#9bd93c;stroke:#9bd93c;" x="17.9" xlink:href="#m0f5bb4ba35" y="177.092647"/>
     <use style="fill:#9bd93c;stroke:#9bd93c;" x="21.5" xlink:href="#m0f5bb4ba35" y="176.173382"/>
     <use style="fill:#9bd93c;stroke:#9bd93c;" x="25.1" xlink:href="#m0f5bb4ba35" y="173.037815"/>
     <use style="fill:#9bd93c;stroke:#9bd93c;" x="28.7" xlink:href="#m0f5bb4ba35" y="162.995588"/>
     <use style="fill:#9bd93c;stroke:#9bd93c;" x="32.3" xlink:href="#m0f5bb4ba35" y="157.113529"/>
     <use style="fill:#9bd93c;stroke:#9bd93c;" x="35.9" xlink:href="#m0f5bb4ba35" y="159.581618"/>
     <use style="fill:#9bd93c;stroke:#9bd93c;" x="39.5" xlink:href="#m0f5bb4ba35" y="160.180294"/>
     <use style="fill:#9bd93c;stroke:#9bd93c;" x="43.1" xlink:href="#m0f5bb4ba35" y="154.558824"/>
     <use style="fill:#9bd93c;stroke:#9bd93c;" x="46.7" xlink:href="#m0f5bb4ba35" y="152.239216"/>
     <use style="fill:#9bd93c;stroke:#9bd93c;" x="50.3" xlink:href="#m0f5bb4ba35" y="158.122353"/>
     <use style="fill:#9bd93c;stroke:#9bd93c;" x="53.9" xlink:href="#m0f5bb4ba35" y="139.76"/>
     <use style="fill:#9bd93c;stroke:#9bd93c;" x="57.5" xlink:href="#m0f5bb4ba35" y="155.432941"/>
     <use style="fill:#9bd93c;stroke:#9bd93c;" x="61.1" xlink:href="#m0f5bb4ba35" y="148.394353"/>
     <use style="fill:#9bd93c;stroke:#9bd93c;" x="64.7" xlink:href="#m0f5bb4ba35" y="144.272706"/>
     <use style="fill:#9bd93c;stroke:#9bd93c;" x="68.3" xlink:href="#m0f5bb4ba35" y="137.659412"/>
     <use style="fill:#9bd93c;stroke:#9bd93c;" x="71.9" xlink:href="#m0f5bb4ba35" y="127.943971"/>
     <use style="fill:#9bd93c;stroke:#9bd93c;" x="75.5" xlink:href="#m0f5bb4ba35" y="147.54918"/>
     <use style="fill:#9bd93c;stroke:#9bd93c;" x="79.1" xlink:href="#m0f5bb4ba35" y="134.062824"/>
     <use style="fill:#9bd93c;stroke:#9bd93c;" x="82.7" xlink:href="#m0f5bb4ba35" y="131.651176"/>
     <use style="fill:#9bd93c;stroke:#9bd93c;" x="86.3" xlink:href="#m0f5bb4ba35" y="118.707059"/>
     <use style="fill:#9bd93c;stroke:#9bd93c;" x="89.9" xlink:href="#m0f5bb4ba35" y="127.552269"/>
     <use style="fill:#9bd93c;stroke:#9bd93c;" x="93.5" xlink:href="#m0f5bb4ba35" y="134.490941"/>
     <use style="fill:#9bd93c;stroke:#9bd93c;" x="97.1" xlink:href="#m0f5bb4ba35" y="92.7425"/>
     <use style="fill:#9bd93c;stroke:#9bd93c;" x="100.7" xlink:href="#m0f5bb4ba35" y="80.265882"/>
     <use style="fill:#9bd93c;stroke:#9bd93c;" x="104.3" xlink:href="#m0f5bb4ba35" y="117.176765"/>
     <use style="fill:#9bd93c;stroke:#9bd93c;" x="107.9" xlink:href="#m0f5bb4ba35" y="86.849706"/>
     <use style="fill:#9bd93c;stroke:#9bd93c;" x="111.5" xlink:href="#m0f5bb4ba35" y="127.217353"/>
     <use style="fill:#9bd93c;stroke:#9bd93c;" x="115.1" xlink:href="#m0f5bb4ba35" y="93.600941"/>
     <use style="fill:#9bd93c;stroke:#9bd93c;" x="118.7" xlink:href="#m0f5bb4ba35" y="83.947294"/>
     <use style="fill:#9bd93c;stroke:#9bd93c;" x="122.3" xlink:href="#m0f5bb4ba35" y="129.660588"/>
     <use style="fill:#9bd93c;stroke:#9bd93c;" x="125.9" xlink:href="#m0f5bb4ba35" y="92.312353"/>
     <use style="fill:#9bd93c;stroke:#9bd93c;" x="129.5" xlink:href="#m0f5bb4ba35" y="115.800267"/>
     <use style="fill:#9bd93c;stroke:#9bd93c;" x="133.1" xlink:href="#m0f5bb4ba35" y="78.976824"/>
     <use style="fill:#9bd93c;stroke:#9bd93c;" x="136.7" xlink:href="#m0f5bb4ba35" y="95.518009"/>
     <use style="fill:#9bd93c;stroke:#9bd93c;" x="140.3" xlink:href="#m0f5bb4ba35" y="82.934545"/>
     <use style="fill:#9bd93c;stroke:#9bd93c;" x="143.9" xlink:href="#m0f5bb4ba35" y="113.884616"/>
     <use style="fill:#9bd93c;stroke:#9bd93c;" x="147.5" xlink:href="#m0f5bb4ba35" y="71.051529"/>
     <use style="fill:#9bd93c;stroke:#9bd93c;" x="151.1" xlink:href="#m0f5bb4ba35" y="109.978074"/>
     <use style="fill:#9bd93c;stroke:#9bd93c;" x="154.7" xlink:href="#m0f5bb4ba35" y="135.456387"/>
     <use style="fill:#9bd93c;stroke:#9bd93c;" x="158.3" xlink:href="#m0f5bb4ba35" y="99.290126"/>
     <use style="fill:#9bd93c;stroke:#9bd93c;" x="161.9" xlink:href="#m0f5bb4ba35" y="107.583059"/>
     <use style="fill:#9bd93c;stroke:#9bd93c;" x="165.5" xlink:href="#m0f5bb4ba35" y="126.074118"/>
     <use style="fill:#9bd93c;stroke:#9bd93c;" x="169.1" xlink:href="#m0f5bb4ba35" y="125.728984"/>
     <use style="fill:#9bd93c;stroke:#9bd93c;" x="172.7" xlink:href="#m0f5bb4ba35" y="155.001961"/>
     <use style="fill:#9bd93c;stroke:#9bd93c;" x="176.3" xlink:href="#m0f5bb4ba35" y="164.564118"/>
     <use style="fill:#9bd93c;stroke:#9bd93c;" x="179.9" xlink:href="#m0f5bb4ba35" y="162.646315"/>
     <use style="fill:#9bd93c;stroke:#9bd93c;" x="183.5" xlink:href="#m0f5bb4ba35" y="152.590798"/>
    </g>
   </g>
   <g id="patch_3">
    <path d="M 3.5 183.5 
L 3.5 3.5 
" style="fill:none;stroke:#000000;stroke-linecap:square;stroke-linejoin:miter;stroke-width:0.8;"/>
   </g>
   <g id="patch_4">
    <path d="M 183.5 183.5 
L 183.5 3.5 
" style="fill:none;stroke:#000000;stroke-linecap:square;stroke-linejoin:miter;stroke-width:0.8;"/>
   </g>
   <g id="patch_5">
    <path d="M 3.5 183.5 
L 183.5 183.5 
" style="fill:none;stroke:#000000;stroke-linecap:square;stroke-linejoin:miter;stroke-width:0.8;"/>
   </g>
   <g id="patch_6">
    <path d="M 3.5 3.5 
L 183.5 3.5 
" style="fill:none;stroke:#000000;stroke-linecap:square;stroke-linejoin:miter;stroke-width:0.8;"/>
   </g>
  </g>
 </g>
 <defs>
  <clipPath id="p2ecc096450">
   <rect height="180" width="180" x="3.5" y="3.5"/>
  </clipPath>
 </defs>
</svg>
