<?xml version="1.0" encoding="utf-8" standalone="no"?>
<!DOCTYPE svg PUBLIC "-//W3C//DTD SVG 1.1//EN"
  "http://www.w3.org/Graphics/SVG/1.1/DTD/svg11.dtd">
<!-- Created with matplotlib (http://matplotlib.org/) -->
<svg height="187pt" version="1.1" viewBox="0 0 187 187" width="187pt" xmlns="http://www.w3.org/2000/svg" xmlns:xlink="http://www.w3.org/1999/xlink">
 <defs>
  <style type="text/css">
*{stroke-linecap:butt;stroke-linejoin:round;}
  </style>
 </defs>
 <g id="figure_1">
  <g id="patch_1">
   <path d="M 0 187 
L 187 187 
L 187 -0 
L 0 -0 
z
" style="fill:#ffffff;"/>
  </g>
  <g id="axes_1">
   <g id="patch_2">
    <path d="M 3.5 183.5 
L 183.5 183.5 
L 183.5 3.5 
L 3.5 3.5 
z
" style="fill:#ffffff;"/>
   </g>
   <g id="matplotlib.axis_1"/>
   <g id="matplotlib.axis_2"/>
   <g id="line2d_1">
    <path clip-path="url(#p016d04d4a8)" d="M 7.1 181.657654 
L 10.7 173.160506 
L 14.3 178.40511 
L 17.9 178.534937 
L 21.5 161.390687 
L 25.1 162.404745 
L 28.7 159.167449 
L 32.3 158.567468 
L 35.9 156.962987 
L 39.5 154.372851 
L 43.1 153.855418 
L 46.7 140.215542 
L 50.3 151.129198 
L 53.9 152.864533 
L 57.5 157.493911 
L 61.1 153.764707 
L 64.7 128.647776 
L 68.3 125.721571 
L 71.9 136.37398 
L 75.5 164.875651 
L 79.1 92.237131 
L 82.7 91.860944 
L 86.3 92.787693 
L 89.9 60.243891 
L 93.5 94.229586 
L 97.1 64.977345 
L 100.7 88.169565 
L 104.3 57.268776 
L 107.9 67.670564 
L 111.5 60.721796 
" style="fill:none;stroke:#1fa188;stroke-linecap:square;stroke-width:2;"/>
    <defs>
     <path d="M 0 3 
C 0.795609 3 1.55874 2.683901 2.12132 2.12132 
C 2.683901 1.55874 3 0.795609 3 0 
C 3 -0.795609 2.683901 -1.55874 2.12132 -2.12132 
C 1.55874 -2.683901 0.795609 -3 0 -3 
C -0.795609 -3 -1.55874 -2.683901 -2.12132 -2.12132 
C -2.683901 -1.55874 -3 -0.795609 -3 0 
C -3 0.795609 -2.683901 1.55874 -2.12132 2.12132 
C -1.55874 2.683901 -0.795609 3 0 3 
z
" id="m5438d08556" style="stroke:#1fa188;"/>
    </defs>
    <g clip-path="url(#p016d04d4a8)">
     <use style="fill:#1fa188;stroke:#1fa188;" x="7.1" xlink:href="#m5438d08556" y="181.657654"/>
     <use style="fill:#1fa188;stroke:#1fa188;" x="10.7" xlink:href="#m5438d08556" y="173.160506"/>
     <use style="fill:#1fa188;stroke:#1fa188;" x="14.3" xlink:href="#m5438d08556" y="178.40511"/>
     <use style="fill:#1fa188;stroke:#1fa188;" x="17.9" xlink:href="#m5438d08556" y="178.534937"/>
     <use style="fill:#1fa188;stroke:#1fa188;" x="21.5" xlink:href="#m5438d08556" y="161.390687"/>
     <use style="fill:#1fa188;stroke:#1fa188;" x="25.1" xlink:href="#m5438d08556" y="162.404745"/>
     <use style="fill:#1fa188;stroke:#1fa188;" x="28.7" xlink:href="#m5438d08556" y="159.167449"/>
     <use style="fill:#1fa188;stroke:#1fa188;" x="32.3" xlink:href="#m5438d08556" y="158.567468"/>
     <use style="fill:#1fa188;stroke:#1fa188;" x="35.9" xlink:href="#m5438d08556" y="156.962987"/>
     <use style="fill:#1fa188;stroke:#1fa188;" x="39.5" xlink:href="#m5438d08556" y="154.372851"/>
     <use style="fill:#1fa188;stroke:#1fa188;" x="43.1" xlink:href="#m5438d08556" y="153.855418"/>
     <use style="fill:#1fa188;stroke:#1fa188;" x="46.7" xlink:href="#m5438d08556" y="140.215542"/>
     <use style="fill:#1fa188;stroke:#1fa188;" x="50.3" xlink:href="#m5438d08556" y="151.129198"/>
     <use style="fill:#1fa188;stroke:#1fa188;" x="53.9" xlink:href="#m5438d08556" y="152.864533"/>
     <use style="fill:#1fa188;stroke:#1fa188;" x="57.5" xlink:href="#m5438d08556" y="157.493911"/>
     <use style="fill:#1fa188;stroke:#1fa188;" x="61.1" xlink:href="#m5438d08556" y="153.764707"/>
     <use style="fill:#1fa188;stroke:#1fa188;" x="64.7" xlink:href="#m5438d08556" y="128.647776"/>
     <use style="fill:#1fa188;stroke:#1fa188;" x="68.3" xlink:href="#m5438d08556" y="125.721571"/>
     <use style="fill:#1fa188;stroke:#1fa188;" x="71.9" xlink:href="#m5438d08556" y="136.37398"/>
     <use style="fill:#1fa188;stroke:#1fa188;" x="75.5" xlink:href="#m5438d08556" y="164.875651"/>
     <use style="fill:#1fa188;stroke:#1fa188;" x="79.1" xlink:href="#m5438d08556" y="92.237131"/>
     <use style="fill:#1fa188;stroke:#1fa188;" x="82.7" xlink:href="#m5438d08556" y="91.860944"/>
     <use style="fill:#1fa188;stroke:#1fa188;" x="86.3" xlink:href="#m5438d08556" y="92.787693"/>
     <use style="fill:#1fa188;stroke:#1fa188;" x="89.9" xlink:href="#m5438d08556" y="60.243891"/>
     <use style="fill:#1fa188;stroke:#1fa188;" x="93.5" xlink:href="#m5438d08556" y="94.229586"/>
     <use style="fill:#1fa188;stroke:#1fa188;" x="97.1" xlink:href="#m5438d08556" y="64.977345"/>
     <use style="fill:#1fa188;stroke:#1fa188;" x="100.7" xlink:href="#m5438d08556" y="88.169565"/>
     <use style="fill:#1fa188;stroke:#1fa188;" x="104.3" xlink:href="#m5438d08556" y="57.268776"/>
     <use style="fill:#1fa188;stroke:#1fa188;" x="107.9" xlink:href="#m5438d08556" y="67.670564"/>
     <use style="fill:#1fa188;stroke:#1fa188;" x="111.5" xlink:href="#m5438d08556" y="60.721796"/>
    </g>
   </g>
   <g id="patch_3">
    <path d="M 3.5 183.5 
L 3.5 3.5 
" style="fill:none;stroke:#000000;stroke-linecap:square;stroke-linejoin:miter;stroke-width:0.8;"/>
   </g>
   <g id="patch_4">
    <path d="M 183.5 183.5 
L 183.5 3.5 
" style="fill:none;stroke:#000000;stroke-linecap:square;stroke-linejoin:miter;stroke-width:0.8;"/>
   </g>
   <g id="patch_5">
    <path d="M 3.5 183.5 
L 183.5 183.5 
" style="fill:none;stroke:#000000;stroke-linecap:square;stroke-linejoin:miter;stroke-width:0.8;"/>
   </g>
   <g id="patch_6">
    <path d="M 3.5 3.5 
L 183.5 3.5 
" style="fill:none;stroke:#000000;stroke-linecap:square;stroke-linejoin:miter;stroke-width:0.8;"/>
   </g>
  </g>
 </g>
 <defs>
  <clipPath id="p016d04d4a8">
   <rect height="180" width="180" x="3.5" y="3.5"/>
  </clipPath>
 </defs>
</svg>
