<?xml version="1.0" encoding="utf-8" standalone="no"?>
<!DOCTYPE svg PUBLIC "-//W3C//DTD SVG 1.1//EN"
  "http://www.w3.org/Graphics/SVG/1.1/DTD/svg11.dtd">
<!-- Created with matplotlib (http://matplotlib.org/) -->
<svg height="187pt" version="1.1" viewBox="0 0 187 187" width="187pt" xmlns="http://www.w3.org/2000/svg" xmlns:xlink="http://www.w3.org/1999/xlink">
 <defs>
  <style type="text/css">
*{stroke-linecap:butt;stroke-linejoin:round;}
  </style>
 </defs>
 <g id="figure_1">
  <g id="patch_1">
   <path d="M 0 187 
L 187 187 
L 187 -0 
L 0 -0 
z
" style="fill:#ffffff;"/>
  </g>
  <g id="axes_1">
   <g id="patch_2">
    <path d="M 3.5 183.5 
L 183.5 183.5 
L 183.5 3.5 
L 3.5 3.5 
z
" style="fill:#ffffff;"/>
   </g>
   <g id="matplotlib.axis_1"/>
   <g id="matplotlib.axis_2"/>
   <g id="line2d_1">
    <path clip-path="url(#p28e7c40aa7)" d="M 7.1 181.65029 
L 10.7 172.109011 
L 14.3 174.431618 
L 17.9 13.753038 
L 21.5 40.170098 
L 25.1 24.13096 
L 28.7 5.813913 
L 32.3 5.306807 
L 35.9 5.292123 
L 39.5 5.271409 
L 43.1 5.264706 
L 46.7 5.278994 
L 50.3 5.265705 
L 53.9 5.268783 
L 57.5 5.264706 
L 61.1 5.264706 
L 64.7 5.264706 
L 68.3 5.264706 
L 71.9 5.264706 
" style="fill:none;stroke:#440154;stroke-linecap:square;stroke-width:2;"/>
    <defs>
     <path d="M 0 3 
C 0.795609 3 1.55874 2.683901 2.12132 2.12132 
C 2.683901 1.55874 3 0.795609 3 0 
C 3 -0.795609 2.683901 -1.55874 2.12132 -2.12132 
C 1.55874 -2.683901 0.795609 -3 0 -3 
C -0.795609 -3 -1.55874 -2.683901 -2.12132 -2.12132 
C -2.683901 -1.55874 -3 -0.795609 -3 0 
C -3 0.795609 -2.683901 1.55874 -2.12132 2.12132 
C -1.55874 2.683901 -0.795609 3 0 3 
z
" id="m5e55beeda8" style="stroke:#440154;"/>
    </defs>
    <g clip-path="url(#p28e7c40aa7)">
     <use style="fill:#440154;stroke:#440154;" x="7.1" xlink:href="#m5e55beeda8" y="181.65029"/>
     <use style="fill:#440154;stroke:#440154;" x="10.7" xlink:href="#m5e55beeda8" y="172.109011"/>
     <use style="fill:#440154;stroke:#440154;" x="14.3" xlink:href="#m5e55beeda8" y="174.431618"/>
     <use style="fill:#440154;stroke:#440154;" x="17.9" xlink:href="#m5e55beeda8" y="13.753038"/>
     <use style="fill:#440154;stroke:#440154;" x="21.5" xlink:href="#m5e55beeda8" y="40.170098"/>
     <use style="fill:#440154;stroke:#440154;" x="25.1" xlink:href="#m5e55beeda8" y="24.13096"/>
     <use style="fill:#440154;stroke:#440154;" x="28.7" xlink:href="#m5e55beeda8" y="5.813913"/>
     <use style="fill:#440154;stroke:#440154;" x="32.3" xlink:href="#m5e55beeda8" y="5.306807"/>
     <use style="fill:#440154;stroke:#440154;" x="35.9" xlink:href="#m5e55beeda8" y="5.292123"/>
     <use style="fill:#440154;stroke:#440154;" x="39.5" xlink:href="#m5e55beeda8" y="5.271409"/>
     <use style="fill:#440154;stroke:#440154;" x="43.1" xlink:href="#m5e55beeda8" y="5.264706"/>
     <use style="fill:#440154;stroke:#440154;" x="46.7" xlink:href="#m5e55beeda8" y="5.278994"/>
     <use style="fill:#440154;stroke:#440154;" x="50.3" xlink:href="#m5e55beeda8" y="5.265705"/>
     <use style="fill:#440154;stroke:#440154;" x="53.9" xlink:href="#m5e55beeda8" y="5.268783"/>
     <use style="fill:#440154;stroke:#440154;" x="57.5" xlink:href="#m5e55beeda8" y="5.264706"/>
     <use style="fill:#440154;stroke:#440154;" x="61.1" xlink:href="#m5e55beeda8" y="5.264706"/>
     <use style="fill:#440154;stroke:#440154;" x="64.7" xlink:href="#m5e55beeda8" y="5.264706"/>
     <use style="fill:#440154;stroke:#440154;" x="68.3" xlink:href="#m5e55beeda8" y="5.264706"/>
     <use style="fill:#440154;stroke:#440154;" x="71.9" xlink:href="#m5e55beeda8" y="5.264706"/>
    </g>
   </g>
   <g id="patch_3">
    <path d="M 3.5 183.5 
L 3.5 3.5 
" style="fill:none;stroke:#000000;stroke-linecap:square;stroke-linejoin:miter;stroke-width:0.8;"/>
   </g>
   <g id="patch_4">
    <path d="M 183.5 183.5 
L 183.5 3.5 
" style="fill:none;stroke:#000000;stroke-linecap:square;stroke-linejoin:miter;stroke-width:0.8;"/>
   </g>
   <g id="patch_5">
    <path d="M 3.5 183.5 
L 183.5 183.5 
" style="fill:none;stroke:#000000;stroke-linecap:square;stroke-linejoin:miter;stroke-width:0.8;"/>
   </g>
   <g id="patch_6">
    <path d="M 3.5 3.5 
L 183.5 3.5 
" style="fill:none;stroke:#000000;stroke-linecap:square;stroke-linejoin:miter;stroke-width:0.8;"/>
   </g>
  </g>
 </g>
 <defs>
  <clipPath id="p28e7c40aa7">
   <rect height="180" width="180" x="3.5" y="3.5"/>
  </clipPath>
 </defs>
</svg>
