<?xml version="1.0" encoding="utf-8" standalone="no"?>
<!DOCTYPE svg PUBLIC "-//W3C//DTD SVG 1.1//EN"
  "http://www.w3.org/Graphics/SVG/1.1/DTD/svg11.dtd">
<!-- Created with matplotlib (http://matplotlib.org/) -->
<svg height="187pt" version="1.1" viewBox="0 0 187 187" width="187pt" xmlns="http://www.w3.org/2000/svg" xmlns:xlink="http://www.w3.org/1999/xlink">
 <defs>
  <style type="text/css">
*{stroke-linecap:butt;stroke-linejoin:round;}
  </style>
 </defs>
 <g id="figure_1">
  <g id="patch_1">
   <path d="M 0 187 
L 187 187 
L 187 -0 
L 0 -0 
z
" style="fill:#ffffff;"/>
  </g>
  <g id="axes_1">
   <g id="patch_2">
    <path d="M 3.5 183.5 
L 183.5 183.5 
L 183.5 3.5 
L 3.5 3.5 
z
" style="fill:#ffffff;"/>
   </g>
   <g id="matplotlib.axis_1"/>
   <g id="matplotlib.axis_2"/>
   <g id="line2d_1">
    <path clip-path="url(#p86ea6d39cc)" d="M 7.1 181.678025 
L 10.7 178.044806 
L 14.3 176.461029 
L 17.9 169.919926 
L 21.5 153.347924 
L 25.1 160.300588 
L 28.7 149.446912 
L 32.3 141.726471 
L 35.9 130.168512 
L 39.5 126.795037 
L 43.1 125.882353 
L 46.7 82.876471 
L 50.3 55.741299 
L 53.9 42.845487 
L 57.5 12.895017 
L 61.1 37.332289 
L 64.7 23.31598 
L 68.3 9.416016 
L 71.9 7.296409 
L 75.5 18.424296 
L 79.1 28.193983 
L 82.7 22.812132 
L 86.3 54.044761 
L 89.9 31.333036 
L 93.5 22.786177 
L 97.1 9.959864 
L 100.7 6.01259 
L 104.3 9.580672 
L 107.9 6.473529 
L 111.5 8.165043 
" style="fill:none;stroke:#375b8d;stroke-linecap:square;stroke-width:2;"/>
    <defs>
     <path d="M 0 3 
C 0.795609 3 1.55874 2.683901 2.12132 2.12132 
C 2.683901 1.55874 3 0.795609 3 0 
C 3 -0.795609 2.683901 -1.55874 2.12132 -2.12132 
C 1.55874 -2.683901 0.795609 -3 0 -3 
C -0.795609 -3 -1.55874 -2.683901 -2.12132 -2.12132 
C -2.683901 -1.55874 -3 -0.795609 -3 0 
C -3 0.795609 -2.683901 1.55874 -2.12132 2.12132 
C -1.55874 2.683901 -0.795609 3 0 3 
z
" id="meb243b3cbf" style="stroke:#375b8d;"/>
    </defs>
    <g clip-path="url(#p86ea6d39cc)">
     <use style="fill:#375b8d;stroke:#375b8d;" x="7.1" xlink:href="#meb243b3cbf" y="181.678025"/>
     <use style="fill:#375b8d;stroke:#375b8d;" x="10.7" xlink:href="#meb243b3cbf" y="178.044806"/>
     <use style="fill:#375b8d;stroke:#375b8d;" x="14.3" xlink:href="#meb243b3cbf" y="176.461029"/>
     <use style="fill:#375b8d;stroke:#375b8d;" x="17.9" xlink:href="#meb243b3cbf" y="169.919926"/>
     <use style="fill:#375b8d;stroke:#375b8d;" x="21.5" xlink:href="#meb243b3cbf" y="153.347924"/>
     <use style="fill:#375b8d;stroke:#375b8d;" x="25.1" xlink:href="#meb243b3cbf" y="160.300588"/>
     <use style="fill:#375b8d;stroke:#375b8d;" x="28.7" xlink:href="#meb243b3cbf" y="149.446912"/>
     <use style="fill:#375b8d;stroke:#375b8d;" x="32.3" xlink:href="#meb243b3cbf" y="141.726471"/>
     <use style="fill:#375b8d;stroke:#375b8d;" x="35.9" xlink:href="#meb243b3cbf" y="130.168512"/>
     <use style="fill:#375b8d;stroke:#375b8d;" x="39.5" xlink:href="#meb243b3cbf" y="126.795037"/>
     <use style="fill:#375b8d;stroke:#375b8d;" x="43.1" xlink:href="#meb243b3cbf" y="125.882353"/>
     <use style="fill:#375b8d;stroke:#375b8d;" x="46.7" xlink:href="#meb243b3cbf" y="82.876471"/>
     <use style="fill:#375b8d;stroke:#375b8d;" x="50.3" xlink:href="#meb243b3cbf" y="55.741299"/>
     <use style="fill:#375b8d;stroke:#375b8d;" x="53.9" xlink:href="#meb243b3cbf" y="42.845487"/>
     <use style="fill:#375b8d;stroke:#375b8d;" x="57.5" xlink:href="#meb243b3cbf" y="12.895017"/>
     <use style="fill:#375b8d;stroke:#375b8d;" x="61.1" xlink:href="#meb243b3cbf" y="37.332289"/>
     <use style="fill:#375b8d;stroke:#375b8d;" x="64.7" xlink:href="#meb243b3cbf" y="23.31598"/>
     <use style="fill:#375b8d;stroke:#375b8d;" x="68.3" xlink:href="#meb243b3cbf" y="9.416016"/>
     <use style="fill:#375b8d;stroke:#375b8d;" x="71.9" xlink:href="#meb243b3cbf" y="7.296409"/>
     <use style="fill:#375b8d;stroke:#375b8d;" x="75.5" xlink:href="#meb243b3cbf" y="18.424296"/>
     <use style="fill:#375b8d;stroke:#375b8d;" x="79.1" xlink:href="#meb243b3cbf" y="28.193983"/>
     <use style="fill:#375b8d;stroke:#375b8d;" x="82.7" xlink:href="#meb243b3cbf" y="22.812132"/>
     <use style="fill:#375b8d;stroke:#375b8d;" x="86.3" xlink:href="#meb243b3cbf" y="54.044761"/>
     <use style="fill:#375b8d;stroke:#375b8d;" x="89.9" xlink:href="#meb243b3cbf" y="31.333036"/>
     <use style="fill:#375b8d;stroke:#375b8d;" x="93.5" xlink:href="#meb243b3cbf" y="22.786177"/>
     <use style="fill:#375b8d;stroke:#375b8d;" x="97.1" xlink:href="#meb243b3cbf" y="9.959864"/>
     <use style="fill:#375b8d;stroke:#375b8d;" x="100.7" xlink:href="#meb243b3cbf" y="6.01259"/>
     <use style="fill:#375b8d;stroke:#375b8d;" x="104.3" xlink:href="#meb243b3cbf" y="9.580672"/>
     <use style="fill:#375b8d;stroke:#375b8d;" x="107.9" xlink:href="#meb243b3cbf" y="6.473529"/>
     <use style="fill:#375b8d;stroke:#375b8d;" x="111.5" xlink:href="#meb243b3cbf" y="8.165043"/>
    </g>
   </g>
   <g id="patch_3">
    <path d="M 3.5 183.5 
L 3.5 3.5 
" style="fill:none;stroke:#000000;stroke-linecap:square;stroke-linejoin:miter;stroke-width:0.8;"/>
   </g>
   <g id="patch_4">
    <path d="M 183.5 183.5 
L 183.5 3.5 
" style="fill:none;stroke:#000000;stroke-linecap:square;stroke-linejoin:miter;stroke-width:0.8;"/>
   </g>
   <g id="patch_5">
    <path d="M 3.5 183.5 
L 183.5 183.5 
" style="fill:none;stroke:#000000;stroke-linecap:square;stroke-linejoin:miter;stroke-width:0.8;"/>
   </g>
   <g id="patch_6">
    <path d="M 3.5 3.5 
L 183.5 3.5 
" style="fill:none;stroke:#000000;stroke-linecap:square;stroke-linejoin:miter;stroke-width:0.8;"/>
   </g>
  </g>
 </g>
 <defs>
  <clipPath id="p86ea6d39cc">
   <rect height="180" width="180" x="3.5" y="3.5"/>
  </clipPath>
 </defs>
</svg>
