<?xml version="1.0" encoding="utf-8" standalone="no"?>
<!DOCTYPE svg PUBLIC "-//W3C//DTD SVG 1.1//EN"
  "http://www.w3.org/Graphics/SVG/1.1/DTD/svg11.dtd">
<!-- Created with matplotlib (http://matplotlib.org/) -->
<svg height="187pt" version="1.1" viewBox="0 0 187 187" width="187pt" xmlns="http://www.w3.org/2000/svg" xmlns:xlink="http://www.w3.org/1999/xlink">
 <defs>
  <style type="text/css">
*{stroke-linecap:butt;stroke-linejoin:round;}
  </style>
 </defs>
 <g id="figure_1">
  <g id="patch_1">
   <path d="M 0 187 
L 187 187 
L 187 -0 
L 0 -0 
z
" style="fill:#ffffff;"/>
  </g>
  <g id="axes_1">
   <g id="patch_2">
    <path d="M 3.5 183.5 
L 183.5 183.5 
L 183.5 3.5 
L 3.5 3.5 
z
" style="fill:#ffffff;"/>
   </g>
   <g id="matplotlib.axis_1"/>
   <g id="matplotlib.axis_2"/>
   <g id="line2d_1">
    <path clip-path="url(#p7ec98ab5e2)" d="M 7.1 181.682541 
L 10.7 177.421581 
L 14.3 170.920433 
L 17.9 171.268984 
L 21.5 159.373775 
L 25.1 141.977101 
L 28.7 148.192892 
L 32.3 144.844118 
L 35.9 117.340294 
L 39.5 131.387557 
L 43.1 120.820956 
L 46.7 89.484034 
L 50.3 70.463971 
L 53.9 65.837941 
L 57.5 52.261765 
L 61.1 53.637701 
L 64.7 27.698805 
L 68.3 15.428971 
L 71.9 19.206324 
L 75.5 19.191324 
L 79.1 15.584882 
L 82.7 11.481579 
L 86.3 5.793157 
L 89.9 13.440809 
L 93.5 12.071471 
L 97.1 6.26216 
L 100.7 6.549715 
L 104.3 19.455474 
L 107.9 5.272706 
L 111.5 5.280611 
L 115.1 5.281237 
L 118.7 5.410892 
L 122.3 7.675279 
L 125.9 5.264706 
L 129.5 5.264706 
L 133.1 5.264706 
L 136.7 5.264706 
L 140.3 5.264706 
" style="fill:none;stroke:#375b8d;stroke-linecap:square;stroke-width:2;"/>
    <defs>
     <path d="M 0 3 
C 0.795609 3 1.55874 2.683901 2.12132 2.12132 
C 2.683901 1.55874 3 0.795609 3 0 
C 3 -0.795609 2.683901 -1.55874 2.12132 -2.12132 
C 1.55874 -2.683901 0.795609 -3 0 -3 
C -0.795609 -3 -1.55874 -2.683901 -2.12132 -2.12132 
C -2.683901 -1.55874 -3 -0.795609 -3 0 
C -3 0.795609 -2.683901 1.55874 -2.12132 2.12132 
C -1.55874 2.683901 -0.795609 3 0 3 
z
" id="m31ed5f5b27" style="stroke:#375b8d;"/>
    </defs>
    <g clip-path="url(#p7ec98ab5e2)">
     <use style="fill:#375b8d;stroke:#375b8d;" x="7.1" xlink:href="#m31ed5f5b27" y="181.682541"/>
     <use style="fill:#375b8d;stroke:#375b8d;" x="10.7" xlink:href="#m31ed5f5b27" y="177.421581"/>
     <use style="fill:#375b8d;stroke:#375b8d;" x="14.3" xlink:href="#m31ed5f5b27" y="170.920433"/>
     <use style="fill:#375b8d;stroke:#375b8d;" x="17.9" xlink:href="#m31ed5f5b27" y="171.268984"/>
     <use style="fill:#375b8d;stroke:#375b8d;" x="21.5" xlink:href="#m31ed5f5b27" y="159.373775"/>
     <use style="fill:#375b8d;stroke:#375b8d;" x="25.1" xlink:href="#m31ed5f5b27" y="141.977101"/>
     <use style="fill:#375b8d;stroke:#375b8d;" x="28.7" xlink:href="#m31ed5f5b27" y="148.192892"/>
     <use style="fill:#375b8d;stroke:#375b8d;" x="32.3" xlink:href="#m31ed5f5b27" y="144.844118"/>
     <use style="fill:#375b8d;stroke:#375b8d;" x="35.9" xlink:href="#m31ed5f5b27" y="117.340294"/>
     <use style="fill:#375b8d;stroke:#375b8d;" x="39.5" xlink:href="#m31ed5f5b27" y="131.387557"/>
     <use style="fill:#375b8d;stroke:#375b8d;" x="43.1" xlink:href="#m31ed5f5b27" y="120.820956"/>
     <use style="fill:#375b8d;stroke:#375b8d;" x="46.7" xlink:href="#m31ed5f5b27" y="89.484034"/>
     <use style="fill:#375b8d;stroke:#375b8d;" x="50.3" xlink:href="#m31ed5f5b27" y="70.463971"/>
     <use style="fill:#375b8d;stroke:#375b8d;" x="53.9" xlink:href="#m31ed5f5b27" y="65.837941"/>
     <use style="fill:#375b8d;stroke:#375b8d;" x="57.5" xlink:href="#m31ed5f5b27" y="52.261765"/>
     <use style="fill:#375b8d;stroke:#375b8d;" x="61.1" xlink:href="#m31ed5f5b27" y="53.637701"/>
     <use style="fill:#375b8d;stroke:#375b8d;" x="64.7" xlink:href="#m31ed5f5b27" y="27.698805"/>
     <use style="fill:#375b8d;stroke:#375b8d;" x="68.3" xlink:href="#m31ed5f5b27" y="15.428971"/>
     <use style="fill:#375b8d;stroke:#375b8d;" x="71.9" xlink:href="#m31ed5f5b27" y="19.206324"/>
     <use style="fill:#375b8d;stroke:#375b8d;" x="75.5" xlink:href="#m31ed5f5b27" y="19.191324"/>
     <use style="fill:#375b8d;stroke:#375b8d;" x="79.1" xlink:href="#m31ed5f5b27" y="15.584882"/>
     <use style="fill:#375b8d;stroke:#375b8d;" x="82.7" xlink:href="#m31ed5f5b27" y="11.481579"/>
     <use style="fill:#375b8d;stroke:#375b8d;" x="86.3" xlink:href="#m31ed5f5b27" y="5.793157"/>
     <use style="fill:#375b8d;stroke:#375b8d;" x="89.9" xlink:href="#m31ed5f5b27" y="13.440809"/>
     <use style="fill:#375b8d;stroke:#375b8d;" x="93.5" xlink:href="#m31ed5f5b27" y="12.071471"/>
     <use style="fill:#375b8d;stroke:#375b8d;" x="97.1" xlink:href="#m31ed5f5b27" y="6.26216"/>
     <use style="fill:#375b8d;stroke:#375b8d;" x="100.7" xlink:href="#m31ed5f5b27" y="6.549715"/>
     <use style="fill:#375b8d;stroke:#375b8d;" x="104.3" xlink:href="#m31ed5f5b27" y="19.455474"/>
     <use style="fill:#375b8d;stroke:#375b8d;" x="107.9" xlink:href="#m31ed5f5b27" y="5.272706"/>
     <use style="fill:#375b8d;stroke:#375b8d;" x="111.5" xlink:href="#m31ed5f5b27" y="5.280611"/>
     <use style="fill:#375b8d;stroke:#375b8d;" x="115.1" xlink:href="#m31ed5f5b27" y="5.281237"/>
     <use style="fill:#375b8d;stroke:#375b8d;" x="118.7" xlink:href="#m31ed5f5b27" y="5.410892"/>
     <use style="fill:#375b8d;stroke:#375b8d;" x="122.3" xlink:href="#m31ed5f5b27" y="7.675279"/>
     <use style="fill:#375b8d;stroke:#375b8d;" x="125.9" xlink:href="#m31ed5f5b27" y="5.264706"/>
     <use style="fill:#375b8d;stroke:#375b8d;" x="129.5" xlink:href="#m31ed5f5b27" y="5.264706"/>
     <use style="fill:#375b8d;stroke:#375b8d;" x="133.1" xlink:href="#m31ed5f5b27" y="5.264706"/>
     <use style="fill:#375b8d;stroke:#375b8d;" x="136.7" xlink:href="#m31ed5f5b27" y="5.264706"/>
     <use style="fill:#375b8d;stroke:#375b8d;" x="140.3" xlink:href="#m31ed5f5b27" y="5.264706"/>
    </g>
   </g>
   <g id="patch_3">
    <path d="M 3.5 183.5 
L 3.5 3.5 
" style="fill:none;stroke:#000000;stroke-linecap:square;stroke-linejoin:miter;stroke-width:0.8;"/>
   </g>
   <g id="patch_4">
    <path d="M 183.5 183.5 
L 183.5 3.5 
" style="fill:none;stroke:#000000;stroke-linecap:square;stroke-linejoin:miter;stroke-width:0.8;"/>
   </g>
   <g id="patch_5">
    <path d="M 3.5 183.5 
L 183.5 183.5 
" style="fill:none;stroke:#000000;stroke-linecap:square;stroke-linejoin:miter;stroke-width:0.8;"/>
   </g>
   <g id="patch_6">
    <path d="M 3.5 3.5 
L 183.5 3.5 
" style="fill:none;stroke:#000000;stroke-linecap:square;stroke-linejoin:miter;stroke-width:0.8;"/>
   </g>
  </g>
 </g>
 <defs>
  <clipPath id="p7ec98ab5e2">
   <rect height="180" width="180" x="3.5" y="3.5"/>
  </clipPath>
 </defs>
</svg>
