<?xml version="1.0" encoding="utf-8" standalone="no"?>
<!DOCTYPE svg PUBLIC "-//W3C//DTD SVG 1.1//EN"
  "http://www.w3.org/Graphics/SVG/1.1/DTD/svg11.dtd">
<!-- Created with matplotlib (http://matplotlib.org/) -->
<svg height="187pt" version="1.1" viewBox="0 0 187 187" width="187pt" xmlns="http://www.w3.org/2000/svg" xmlns:xlink="http://www.w3.org/1999/xlink">
 <defs>
  <style type="text/css">
*{stroke-linecap:butt;stroke-linejoin:round;}
  </style>
 </defs>
 <g id="figure_1">
  <g id="patch_1">
   <path d="M 0 187 
L 187 187 
L 187 -0 
L 0 -0 
z
" style="fill:#ffffff;"/>
  </g>
  <g id="axes_1">
   <g id="patch_2">
    <path d="M 3.5 183.5 
L 183.5 183.5 
L 183.5 3.5 
L 3.5 3.5 
z
" style="fill:#ffffff;"/>
   </g>
   <g id="matplotlib.axis_1"/>
   <g id="matplotlib.axis_2"/>
   <g id="line2d_1">
    <path clip-path="url(#p67d53041bc)" d="M 7.1 181.645203 
L 10.7 178.214137 
L 14.3 177.26958 
L 17.9 174.472851 
L 21.5 170.651176 
L 25.1 168.121765 
L 28.7 165.150588 
L 32.3 156.222235 
L 35.9 160.012941 
L 39.5 162.180187 
L 43.1 155.990441 
L 46.7 141.503529 
L 50.3 147.922868 
L 53.9 143.692471 
L 57.5 141.483529 
L 61.1 146.856941 
L 64.7 149.718588 
L 68.3 140.794824 
L 71.9 149.941912 
L 75.5 123.348235 
L 79.1 131.797941 
L 82.7 127.267059 
L 86.3 123.283193 
L 89.9 105.160294 
L 93.5 107.397941 
L 97.1 119.970588 
L 100.7 89.972101 
L 104.3 131.976972 
L 107.9 86.768882 
L 111.5 102.323529 
L 115.1 81.951765 
L 118.7 71.712185 
L 122.3 117.758431 
L 125.9 94.256578 
L 129.5 77.126882 
L 133.1 64.355098 
L 136.7 66.365882 
L 140.3 73.404034 
L 143.9 92.889876 
L 147.5 60.315699 
L 151.1 61.048824 
L 154.7 66.644902 
L 158.3 60.88582 
L 161.9 60.843842 
L 165.5 43.437353 
L 169.1 50.739452 
L 172.7 29.797734 
L 176.3 61.713698 
L 179.9 34.695123 
L 183.5 56.261009 
" style="fill:none;stroke:#9bd93c;stroke-linecap:square;stroke-width:2;"/>
    <defs>
     <path d="M 0 3 
C 0.795609 3 1.55874 2.683901 2.12132 2.12132 
C 2.683901 1.55874 3 0.795609 3 0 
C 3 -0.795609 2.683901 -1.55874 2.12132 -2.12132 
C 1.55874 -2.683901 0.795609 -3 0 -3 
C -0.795609 -3 -1.55874 -2.683901 -2.12132 -2.12132 
C -2.683901 -1.55874 -3 -0.795609 -3 0 
C -3 0.795609 -2.683901 1.55874 -2.12132 2.12132 
C -1.55874 2.683901 -0.795609 3 0 3 
z
" id="m7f41467fda" style="stroke:#9bd93c;"/>
    </defs>
    <g clip-path="url(#p67d53041bc)">
     <use style="fill:#9bd93c;stroke:#9bd93c;" x="7.1" xlink:href="#m7f41467fda" y="181.645203"/>
     <use style="fill:#9bd93c;stroke:#9bd93c;" x="10.7" xlink:href="#m7f41467fda" y="178.214137"/>
     <use style="fill:#9bd93c;stroke:#9bd93c;" x="14.3" xlink:href="#m7f41467fda" y="177.26958"/>
     <use style="fill:#9bd93c;stroke:#9bd93c;" x="17.9" xlink:href="#m7f41467fda" y="174.472851"/>
     <use style="fill:#9bd93c;stroke:#9bd93c;" x="21.5" xlink:href="#m7f41467fda" y="170.651176"/>
     <use style="fill:#9bd93c;stroke:#9bd93c;" x="25.1" xlink:href="#m7f41467fda" y="168.121765"/>
     <use style="fill:#9bd93c;stroke:#9bd93c;" x="28.7" xlink:href="#m7f41467fda" y="165.150588"/>
     <use style="fill:#9bd93c;stroke:#9bd93c;" x="32.3" xlink:href="#m7f41467fda" y="156.222235"/>
     <use style="fill:#9bd93c;stroke:#9bd93c;" x="35.9" xlink:href="#m7f41467fda" y="160.012941"/>
     <use style="fill:#9bd93c;stroke:#9bd93c;" x="39.5" xlink:href="#m7f41467fda" y="162.180187"/>
     <use style="fill:#9bd93c;stroke:#9bd93c;" x="43.1" xlink:href="#m7f41467fda" y="155.990441"/>
     <use style="fill:#9bd93c;stroke:#9bd93c;" x="46.7" xlink:href="#m7f41467fda" y="141.503529"/>
     <use style="fill:#9bd93c;stroke:#9bd93c;" x="50.3" xlink:href="#m7f41467fda" y="147.922868"/>
     <use style="fill:#9bd93c;stroke:#9bd93c;" x="53.9" xlink:href="#m7f41467fda" y="143.692471"/>
     <use style="fill:#9bd93c;stroke:#9bd93c;" x="57.5" xlink:href="#m7f41467fda" y="141.483529"/>
     <use style="fill:#9bd93c;stroke:#9bd93c;" x="61.1" xlink:href="#m7f41467fda" y="146.856941"/>
     <use style="fill:#9bd93c;stroke:#9bd93c;" x="64.7" xlink:href="#m7f41467fda" y="149.718588"/>
     <use style="fill:#9bd93c;stroke:#9bd93c;" x="68.3" xlink:href="#m7f41467fda" y="140.794824"/>
     <use style="fill:#9bd93c;stroke:#9bd93c;" x="71.9" xlink:href="#m7f41467fda" y="149.941912"/>
     <use style="fill:#9bd93c;stroke:#9bd93c;" x="75.5" xlink:href="#m7f41467fda" y="123.348235"/>
     <use style="fill:#9bd93c;stroke:#9bd93c;" x="79.1" xlink:href="#m7f41467fda" y="131.797941"/>
     <use style="fill:#9bd93c;stroke:#9bd93c;" x="82.7" xlink:href="#m7f41467fda" y="127.267059"/>
     <use style="fill:#9bd93c;stroke:#9bd93c;" x="86.3" xlink:href="#m7f41467fda" y="123.283193"/>
     <use style="fill:#9bd93c;stroke:#9bd93c;" x="89.9" xlink:href="#m7f41467fda" y="105.160294"/>
     <use style="fill:#9bd93c;stroke:#9bd93c;" x="93.5" xlink:href="#m7f41467fda" y="107.397941"/>
     <use style="fill:#9bd93c;stroke:#9bd93c;" x="97.1" xlink:href="#m7f41467fda" y="119.970588"/>
     <use style="fill:#9bd93c;stroke:#9bd93c;" x="100.7" xlink:href="#m7f41467fda" y="89.972101"/>
     <use style="fill:#9bd93c;stroke:#9bd93c;" x="104.3" xlink:href="#m7f41467fda" y="131.976972"/>
     <use style="fill:#9bd93c;stroke:#9bd93c;" x="107.9" xlink:href="#m7f41467fda" y="86.768882"/>
     <use style="fill:#9bd93c;stroke:#9bd93c;" x="111.5" xlink:href="#m7f41467fda" y="102.323529"/>
     <use style="fill:#9bd93c;stroke:#9bd93c;" x="115.1" xlink:href="#m7f41467fda" y="81.951765"/>
     <use style="fill:#9bd93c;stroke:#9bd93c;" x="118.7" xlink:href="#m7f41467fda" y="71.712185"/>
     <use style="fill:#9bd93c;stroke:#9bd93c;" x="122.3" xlink:href="#m7f41467fda" y="117.758431"/>
     <use style="fill:#9bd93c;stroke:#9bd93c;" x="125.9" xlink:href="#m7f41467fda" y="94.256578"/>
     <use style="fill:#9bd93c;stroke:#9bd93c;" x="129.5" xlink:href="#m7f41467fda" y="77.126882"/>
     <use style="fill:#9bd93c;stroke:#9bd93c;" x="133.1" xlink:href="#m7f41467fda" y="64.355098"/>
     <use style="fill:#9bd93c;stroke:#9bd93c;" x="136.7" xlink:href="#m7f41467fda" y="66.365882"/>
     <use style="fill:#9bd93c;stroke:#9bd93c;" x="140.3" xlink:href="#m7f41467fda" y="73.404034"/>
     <use style="fill:#9bd93c;stroke:#9bd93c;" x="143.9" xlink:href="#m7f41467fda" y="92.889876"/>
     <use style="fill:#9bd93c;stroke:#9bd93c;" x="147.5" xlink:href="#m7f41467fda" y="60.315699"/>
     <use style="fill:#9bd93c;stroke:#9bd93c;" x="151.1" xlink:href="#m7f41467fda" y="61.048824"/>
     <use style="fill:#9bd93c;stroke:#9bd93c;" x="154.7" xlink:href="#m7f41467fda" y="66.644902"/>
     <use style="fill:#9bd93c;stroke:#9bd93c;" x="158.3" xlink:href="#m7f41467fda" y="60.88582"/>
     <use style="fill:#9bd93c;stroke:#9bd93c;" x="161.9" xlink:href="#m7f41467fda" y="60.843842"/>
     <use style="fill:#9bd93c;stroke:#9bd93c;" x="165.5" xlink:href="#m7f41467fda" y="43.437353"/>
     <use style="fill:#9bd93c;stroke:#9bd93c;" x="169.1" xlink:href="#m7f41467fda" y="50.739452"/>
     <use style="fill:#9bd93c;stroke:#9bd93c;" x="172.7" xlink:href="#m7f41467fda" y="29.797734"/>
     <use style="fill:#9bd93c;stroke:#9bd93c;" x="176.3" xlink:href="#m7f41467fda" y="61.713698"/>
     <use style="fill:#9bd93c;stroke:#9bd93c;" x="179.9" xlink:href="#m7f41467fda" y="34.695123"/>
     <use style="fill:#9bd93c;stroke:#9bd93c;" x="183.5" xlink:href="#m7f41467fda" y="56.261009"/>
    </g>
   </g>
   <g id="patch_3">
    <path d="M 3.5 183.5 
L 3.5 3.5 
" style="fill:none;stroke:#000000;stroke-linecap:square;stroke-linejoin:miter;stroke-width:0.8;"/>
   </g>
   <g id="patch_4">
    <path d="M 183.5 183.5 
L 183.5 3.5 
" style="fill:none;stroke:#000000;stroke-linecap:square;stroke-linejoin:miter;stroke-width:0.8;"/>
   </g>
   <g id="patch_5">
    <path d="M 3.5 183.5 
L 183.5 183.5 
" style="fill:none;stroke:#000000;stroke-linecap:square;stroke-linejoin:miter;stroke-width:0.8;"/>
   </g>
   <g id="patch_6">
    <path d="M 3.5 3.5 
L 183.5 3.5 
" style="fill:none;stroke:#000000;stroke-linecap:square;stroke-linejoin:miter;stroke-width:0.8;"/>
   </g>
  </g>
 </g>
 <defs>
  <clipPath id="p67d53041bc">
   <rect height="180" width="180" x="3.5" y="3.5"/>
  </clipPath>
 </defs>
</svg>
