<?xml version="1.0" encoding="utf-8" standalone="no"?>
<!DOCTYPE svg PUBLIC "-//W3C//DTD SVG 1.1//EN"
  "http://www.w3.org/Graphics/SVG/1.1/DTD/svg11.dtd">
<!-- Created with matplotlib (http://matplotlib.org/) -->
<svg height="187pt" version="1.1" viewBox="0 0 187 187" width="187pt" xmlns="http://www.w3.org/2000/svg" xmlns:xlink="http://www.w3.org/1999/xlink">
 <defs>
  <style type="text/css">
*{stroke-linecap:butt;stroke-linejoin:round;}
  </style>
 </defs>
 <g id="figure_1">
  <g id="patch_1">
   <path d="M 0 187 
L 187 187 
L 187 -0 
L 0 -0 
z
" style="fill:#ffffff;"/>
  </g>
  <g id="axes_1">
   <g id="patch_2">
    <path d="M 3.5 183.5 
L 183.5 183.5 
L 183.5 3.5 
L 3.5 3.5 
z
" style="fill:#ffffff;"/>
   </g>
   <g id="matplotlib.axis_1"/>
   <g id="matplotlib.axis_2"/>
   <g id="line2d_1">
    <path clip-path="url(#p228c8d037b)" d="M 7.1 181.677186 
L 10.7 171.057006 
L 14.3 171.122955 
L 17.9 172.865628 
L 21.5 162.177267 
L 25.1 153.939879 
L 28.7 164.190514 
L 32.3 141.84724 
L 35.9 156.542674 
L 39.5 136.959591 
L 43.1 129.896078 
L 46.7 148.283329 
L 50.3 127.508578 
L 53.9 135.333072 
L 57.5 131.627282 
L 61.1 129.523274 
L 64.7 118.528158 
L 68.3 120.55123 
L 71.9 79.669091 
L 75.5 96.527465 
L 79.1 61.813026 
L 82.7 65.090417 
L 86.3 61.042124 
L 89.9 43.506621 
L 93.5 45.041769 
L 97.1 45.439077 
L 100.7 40.572748 
L 104.3 42.598354 
L 107.9 29.409278 
L 111.5 38.473008 
L 115.1 7.815493 
L 118.7 38.156158 
L 122.3 42.964058 
L 125.9 31.859079 
L 129.5 8.656213 
L 133.1 14.818182 
L 136.7 20.508457 
L 140.3 6.564588 
L 143.9 29.435914 
L 147.5 27.25864 
L 151.1 6.011881 
L 154.7 125.442295 
L 158.3 8.290542 
M 165.5 5.264706 
" style="fill:none;stroke:#23898e;stroke-linecap:square;stroke-width:2;"/>
    <defs>
     <path d="M 0 3 
C 0.795609 3 1.55874 2.683901 2.12132 2.12132 
C 2.683901 1.55874 3 0.795609 3 0 
C 3 -0.795609 2.683901 -1.55874 2.12132 -2.12132 
C 1.55874 -2.683901 0.795609 -3 0 -3 
C -0.795609 -3 -1.55874 -2.683901 -2.12132 -2.12132 
C -2.683901 -1.55874 -3 -0.795609 -3 0 
C -3 0.795609 -2.683901 1.55874 -2.12132 2.12132 
C -1.55874 2.683901 -0.795609 3 0 3 
z
" id="md882250e46" style="stroke:#23898e;"/>
    </defs>
    <g clip-path="url(#p228c8d037b)">
     <use style="fill:#23898e;stroke:#23898e;" x="7.1" xlink:href="#md882250e46" y="181.677186"/>
     <use style="fill:#23898e;stroke:#23898e;" x="10.7" xlink:href="#md882250e46" y="171.057006"/>
     <use style="fill:#23898e;stroke:#23898e;" x="14.3" xlink:href="#md882250e46" y="171.122955"/>
     <use style="fill:#23898e;stroke:#23898e;" x="17.9" xlink:href="#md882250e46" y="172.865628"/>
     <use style="fill:#23898e;stroke:#23898e;" x="21.5" xlink:href="#md882250e46" y="162.177267"/>
     <use style="fill:#23898e;stroke:#23898e;" x="25.1" xlink:href="#md882250e46" y="153.939879"/>
     <use style="fill:#23898e;stroke:#23898e;" x="28.7" xlink:href="#md882250e46" y="164.190514"/>
     <use style="fill:#23898e;stroke:#23898e;" x="32.3" xlink:href="#md882250e46" y="141.84724"/>
     <use style="fill:#23898e;stroke:#23898e;" x="35.9" xlink:href="#md882250e46" y="156.542674"/>
     <use style="fill:#23898e;stroke:#23898e;" x="39.5" xlink:href="#md882250e46" y="136.959591"/>
     <use style="fill:#23898e;stroke:#23898e;" x="43.1" xlink:href="#md882250e46" y="129.896078"/>
     <use style="fill:#23898e;stroke:#23898e;" x="46.7" xlink:href="#md882250e46" y="148.283329"/>
     <use style="fill:#23898e;stroke:#23898e;" x="50.3" xlink:href="#md882250e46" y="127.508578"/>
     <use style="fill:#23898e;stroke:#23898e;" x="53.9" xlink:href="#md882250e46" y="135.333072"/>
     <use style="fill:#23898e;stroke:#23898e;" x="57.5" xlink:href="#md882250e46" y="131.627282"/>
     <use style="fill:#23898e;stroke:#23898e;" x="61.1" xlink:href="#md882250e46" y="129.523274"/>
     <use style="fill:#23898e;stroke:#23898e;" x="64.7" xlink:href="#md882250e46" y="118.528158"/>
     <use style="fill:#23898e;stroke:#23898e;" x="68.3" xlink:href="#md882250e46" y="120.55123"/>
     <use style="fill:#23898e;stroke:#23898e;" x="71.9" xlink:href="#md882250e46" y="79.669091"/>
     <use style="fill:#23898e;stroke:#23898e;" x="75.5" xlink:href="#md882250e46" y="96.527465"/>
     <use style="fill:#23898e;stroke:#23898e;" x="79.1" xlink:href="#md882250e46" y="61.813026"/>
     <use style="fill:#23898e;stroke:#23898e;" x="82.7" xlink:href="#md882250e46" y="65.090417"/>
     <use style="fill:#23898e;stroke:#23898e;" x="86.3" xlink:href="#md882250e46" y="61.042124"/>
     <use style="fill:#23898e;stroke:#23898e;" x="89.9" xlink:href="#md882250e46" y="43.506621"/>
     <use style="fill:#23898e;stroke:#23898e;" x="93.5" xlink:href="#md882250e46" y="45.041769"/>
     <use style="fill:#23898e;stroke:#23898e;" x="97.1" xlink:href="#md882250e46" y="45.439077"/>
     <use style="fill:#23898e;stroke:#23898e;" x="100.7" xlink:href="#md882250e46" y="40.572748"/>
     <use style="fill:#23898e;stroke:#23898e;" x="104.3" xlink:href="#md882250e46" y="42.598354"/>
     <use style="fill:#23898e;stroke:#23898e;" x="107.9" xlink:href="#md882250e46" y="29.409278"/>
     <use style="fill:#23898e;stroke:#23898e;" x="111.5" xlink:href="#md882250e46" y="38.473008"/>
     <use style="fill:#23898e;stroke:#23898e;" x="115.1" xlink:href="#md882250e46" y="7.815493"/>
     <use style="fill:#23898e;stroke:#23898e;" x="118.7" xlink:href="#md882250e46" y="38.156158"/>
     <use style="fill:#23898e;stroke:#23898e;" x="122.3" xlink:href="#md882250e46" y="42.964058"/>
     <use style="fill:#23898e;stroke:#23898e;" x="125.9" xlink:href="#md882250e46" y="31.859079"/>
     <use style="fill:#23898e;stroke:#23898e;" x="129.5" xlink:href="#md882250e46" y="8.656213"/>
     <use style="fill:#23898e;stroke:#23898e;" x="133.1" xlink:href="#md882250e46" y="14.818182"/>
     <use style="fill:#23898e;stroke:#23898e;" x="136.7" xlink:href="#md882250e46" y="20.508457"/>
     <use style="fill:#23898e;stroke:#23898e;" x="140.3" xlink:href="#md882250e46" y="6.564588"/>
     <use style="fill:#23898e;stroke:#23898e;" x="143.9" xlink:href="#md882250e46" y="29.435914"/>
     <use style="fill:#23898e;stroke:#23898e;" x="147.5" xlink:href="#md882250e46" y="27.25864"/>
     <use style="fill:#23898e;stroke:#23898e;" x="151.1" xlink:href="#md882250e46" y="6.011881"/>
     <use style="fill:#23898e;stroke:#23898e;" x="154.7" xlink:href="#md882250e46" y="125.442295"/>
     <use style="fill:#23898e;stroke:#23898e;" x="158.3" xlink:href="#md882250e46" y="8.290542"/>
     <use style="fill:#23898e;stroke:#23898e;" x="165.5" xlink:href="#md882250e46" y="5.264706"/>
    </g>
   </g>
   <g id="patch_3">
    <path d="M 3.5 183.5 
L 3.5 3.5 
" style="fill:none;stroke:#000000;stroke-linecap:square;stroke-linejoin:miter;stroke-width:0.8;"/>
   </g>
   <g id="patch_4">
    <path d="M 183.5 183.5 
L 183.5 3.5 
" style="fill:none;stroke:#000000;stroke-linecap:square;stroke-linejoin:miter;stroke-width:0.8;"/>
   </g>
   <g id="patch_5">
    <path d="M 3.5 183.5 
L 183.5 183.5 
" style="fill:none;stroke:#000000;stroke-linecap:square;stroke-linejoin:miter;stroke-width:0.8;"/>
   </g>
   <g id="patch_6">
    <path d="M 3.5 3.5 
L 183.5 3.5 
" style="fill:none;stroke:#000000;stroke-linecap:square;stroke-linejoin:miter;stroke-width:0.8;"/>
   </g>
  </g>
 </g>
 <defs>
  <clipPath id="p228c8d037b">
   <rect height="180" width="180" x="3.5" y="3.5"/>
  </clipPath>
 </defs>
</svg>
