<?xml version="1.0" encoding="utf-8" standalone="no"?>
<!DOCTYPE svg PUBLIC "-//W3C//DTD SVG 1.1//EN"
  "http://www.w3.org/Graphics/SVG/1.1/DTD/svg11.dtd">
<!-- Created with matplotlib (http://matplotlib.org/) -->
<svg height="187pt" version="1.1" viewBox="0 0 187 187" width="187pt" xmlns="http://www.w3.org/2000/svg" xmlns:xlink="http://www.w3.org/1999/xlink">
 <defs>
  <style type="text/css">
*{stroke-linecap:butt;stroke-linejoin:round;}
  </style>
 </defs>
 <g id="figure_1">
  <g id="patch_1">
   <path d="M 0 187 
L 187 187 
L 187 -0 
L 0 -0 
z
" style="fill:#ffffff;"/>
  </g>
  <g id="axes_1">
   <g id="patch_2">
    <path d="M 3.5 183.5 
L 183.5 183.5 
L 183.5 3.5 
L 3.5 3.5 
z
" style="fill:#ffffff;"/>
   </g>
   <g id="matplotlib.axis_1"/>
   <g id="matplotlib.axis_2"/>
   <g id="line2d_1">
    <path clip-path="url(#pbc32b81bff)" d="M 7.1 181.6896 
L 10.7 180.606115 
L 14.3 174.678287 
L 17.9 162.505214 
L 21.5 161.122269 
L 25.1 159.608824 
L 28.7 140.762716 
L 32.3 137.919608 
L 35.9 121.072426 
L 39.5 132.316742 
L 43.1 134.163866 
L 46.7 79.986765 
L 50.3 65.824536 
L 53.9 53.737132 
L 57.5 65.933718 
L 61.1 35.306303 
L 64.7 37.487197 
L 68.3 17.73645 
L 71.9 19.615441 
L 75.5 20.652647 
L 79.1 21.747304 
L 82.7 6.47 
L 86.3 15.648621 
L 89.9 13.725 
L 93.5 14.519385 
L 97.1 10.208289 
L 100.7 7.464235 
L 104.3 12.330317 
L 107.9 5.349138 
L 111.5 10.651623 
L 115.1 19.70002 
L 118.7 6.716888 
L 122.3 5.268577 
L 125.9 5.264706 
L 129.5 6.254429 
L 133.1 5.264706 
L 136.7 5.78725 
L 140.3 21.349265 
L 143.9 5.264706 
L 147.5 5.264706 
L 151.1 5.264706 
" style="fill:none;stroke:#375b8d;stroke-linecap:square;stroke-width:2;"/>
    <defs>
     <path d="M 0 3 
C 0.795609 3 1.55874 2.683901 2.12132 2.12132 
C 2.683901 1.55874 3 0.795609 3 0 
C 3 -0.795609 2.683901 -1.55874 2.12132 -2.12132 
C 1.55874 -2.683901 0.795609 -3 0 -3 
C -0.795609 -3 -1.55874 -2.683901 -2.12132 -2.12132 
C -2.683901 -1.55874 -3 -0.795609 -3 0 
C -3 0.795609 -2.683901 1.55874 -2.12132 2.12132 
C -1.55874 2.683901 -0.795609 3 0 3 
z
" id="m324abbeba1" style="stroke:#375b8d;"/>
    </defs>
    <g clip-path="url(#pbc32b81bff)">
     <use style="fill:#375b8d;stroke:#375b8d;" x="7.1" xlink:href="#m324abbeba1" y="181.6896"/>
     <use style="fill:#375b8d;stroke:#375b8d;" x="10.7" xlink:href="#m324abbeba1" y="180.606115"/>
     <use style="fill:#375b8d;stroke:#375b8d;" x="14.3" xlink:href="#m324abbeba1" y="174.678287"/>
     <use style="fill:#375b8d;stroke:#375b8d;" x="17.9" xlink:href="#m324abbeba1" y="162.505214"/>
     <use style="fill:#375b8d;stroke:#375b8d;" x="21.5" xlink:href="#m324abbeba1" y="161.122269"/>
     <use style="fill:#375b8d;stroke:#375b8d;" x="25.1" xlink:href="#m324abbeba1" y="159.608824"/>
     <use style="fill:#375b8d;stroke:#375b8d;" x="28.7" xlink:href="#m324abbeba1" y="140.762716"/>
     <use style="fill:#375b8d;stroke:#375b8d;" x="32.3" xlink:href="#m324abbeba1" y="137.919608"/>
     <use style="fill:#375b8d;stroke:#375b8d;" x="35.9" xlink:href="#m324abbeba1" y="121.072426"/>
     <use style="fill:#375b8d;stroke:#375b8d;" x="39.5" xlink:href="#m324abbeba1" y="132.316742"/>
     <use style="fill:#375b8d;stroke:#375b8d;" x="43.1" xlink:href="#m324abbeba1" y="134.163866"/>
     <use style="fill:#375b8d;stroke:#375b8d;" x="46.7" xlink:href="#m324abbeba1" y="79.986765"/>
     <use style="fill:#375b8d;stroke:#375b8d;" x="50.3" xlink:href="#m324abbeba1" y="65.824536"/>
     <use style="fill:#375b8d;stroke:#375b8d;" x="53.9" xlink:href="#m324abbeba1" y="53.737132"/>
     <use style="fill:#375b8d;stroke:#375b8d;" x="57.5" xlink:href="#m324abbeba1" y="65.933718"/>
     <use style="fill:#375b8d;stroke:#375b8d;" x="61.1" xlink:href="#m324abbeba1" y="35.306303"/>
     <use style="fill:#375b8d;stroke:#375b8d;" x="64.7" xlink:href="#m324abbeba1" y="37.487197"/>
     <use style="fill:#375b8d;stroke:#375b8d;" x="68.3" xlink:href="#m324abbeba1" y="17.73645"/>
     <use style="fill:#375b8d;stroke:#375b8d;" x="71.9" xlink:href="#m324abbeba1" y="19.615441"/>
     <use style="fill:#375b8d;stroke:#375b8d;" x="75.5" xlink:href="#m324abbeba1" y="20.652647"/>
     <use style="fill:#375b8d;stroke:#375b8d;" x="79.1" xlink:href="#m324abbeba1" y="21.747304"/>
     <use style="fill:#375b8d;stroke:#375b8d;" x="82.7" xlink:href="#m324abbeba1" y="6.47"/>
     <use style="fill:#375b8d;stroke:#375b8d;" x="86.3" xlink:href="#m324abbeba1" y="15.648621"/>
     <use style="fill:#375b8d;stroke:#375b8d;" x="89.9" xlink:href="#m324abbeba1" y="13.725"/>
     <use style="fill:#375b8d;stroke:#375b8d;" x="93.5" xlink:href="#m324abbeba1" y="14.519385"/>
     <use style="fill:#375b8d;stroke:#375b8d;" x="97.1" xlink:href="#m324abbeba1" y="10.208289"/>
     <use style="fill:#375b8d;stroke:#375b8d;" x="100.7" xlink:href="#m324abbeba1" y="7.464235"/>
     <use style="fill:#375b8d;stroke:#375b8d;" x="104.3" xlink:href="#m324abbeba1" y="12.330317"/>
     <use style="fill:#375b8d;stroke:#375b8d;" x="107.9" xlink:href="#m324abbeba1" y="5.349138"/>
     <use style="fill:#375b8d;stroke:#375b8d;" x="111.5" xlink:href="#m324abbeba1" y="10.651623"/>
     <use style="fill:#375b8d;stroke:#375b8d;" x="115.1" xlink:href="#m324abbeba1" y="19.70002"/>
     <use style="fill:#375b8d;stroke:#375b8d;" x="118.7" xlink:href="#m324abbeba1" y="6.716888"/>
     <use style="fill:#375b8d;stroke:#375b8d;" x="122.3" xlink:href="#m324abbeba1" y="5.268577"/>
     <use style="fill:#375b8d;stroke:#375b8d;" x="125.9" xlink:href="#m324abbeba1" y="5.264706"/>
     <use style="fill:#375b8d;stroke:#375b8d;" x="129.5" xlink:href="#m324abbeba1" y="6.254429"/>
     <use style="fill:#375b8d;stroke:#375b8d;" x="133.1" xlink:href="#m324abbeba1" y="5.264706"/>
     <use style="fill:#375b8d;stroke:#375b8d;" x="136.7" xlink:href="#m324abbeba1" y="5.78725"/>
     <use style="fill:#375b8d;stroke:#375b8d;" x="140.3" xlink:href="#m324abbeba1" y="21.349265"/>
     <use style="fill:#375b8d;stroke:#375b8d;" x="143.9" xlink:href="#m324abbeba1" y="5.264706"/>
     <use style="fill:#375b8d;stroke:#375b8d;" x="147.5" xlink:href="#m324abbeba1" y="5.264706"/>
     <use style="fill:#375b8d;stroke:#375b8d;" x="151.1" xlink:href="#m324abbeba1" y="5.264706"/>
    </g>
   </g>
   <g id="patch_3">
    <path d="M 3.5 183.5 
L 3.5 3.5 
" style="fill:none;stroke:#000000;stroke-linecap:square;stroke-linejoin:miter;stroke-width:0.8;"/>
   </g>
   <g id="patch_4">
    <path d="M 183.5 183.5 
L 183.5 3.5 
" style="fill:none;stroke:#000000;stroke-linecap:square;stroke-linejoin:miter;stroke-width:0.8;"/>
   </g>
   <g id="patch_5">
    <path d="M 3.5 183.5 
L 183.5 183.5 
" style="fill:none;stroke:#000000;stroke-linecap:square;stroke-linejoin:miter;stroke-width:0.8;"/>
   </g>
   <g id="patch_6">
    <path d="M 3.5 3.5 
L 183.5 3.5 
" style="fill:none;stroke:#000000;stroke-linecap:square;stroke-linejoin:miter;stroke-width:0.8;"/>
   </g>
  </g>
 </g>
 <defs>
  <clipPath id="pbc32b81bff">
   <rect height="180" width="180" x="3.5" y="3.5"/>
  </clipPath>
 </defs>
</svg>
