<?xml version="1.0" encoding="utf-8" standalone="no"?>
<!DOCTYPE svg PUBLIC "-//W3C//DTD SVG 1.1//EN"
  "http://www.w3.org/Graphics/SVG/1.1/DTD/svg11.dtd">
<!-- Created with matplotlib (http://matplotlib.org/) -->
<svg height="187pt" version="1.1" viewBox="0 0 187 187" width="187pt" xmlns="http://www.w3.org/2000/svg" xmlns:xlink="http://www.w3.org/1999/xlink">
 <defs>
  <style type="text/css">
*{stroke-linecap:butt;stroke-linejoin:round;}
  </style>
 </defs>
 <g id="figure_1">
  <g id="patch_1">
   <path d="M 0 187 
L 187 187 
L 187 -0 
L 0 -0 
z
" style="fill:#ffffff;"/>
  </g>
  <g id="axes_1">
   <g id="patch_2">
    <path d="M 3.5 183.5 
L 183.5 183.5 
L 183.5 3.5 
L 3.5 3.5 
z
" style="fill:#ffffff;"/>
   </g>
   <g id="matplotlib.axis_1"/>
   <g id="matplotlib.axis_2"/>
   <g id="line2d_1">
    <path clip-path="url(#p8accb77562)" d="M 7.1 181.563521 
L 10.7 181.02098 
L 14.3 179.592437 
L 17.9 176.037765 
L 21.5 175.208824 
L 25.1 177.089328 
L 28.7 162.298118 
L 32.3 156.273676 
L 35.9 165.62369 
L 39.5 147.448824 
L 43.1 141.314118 
L 46.7 151.987206 
L 50.3 154.724706 
L 53.9 154.256176 
L 57.5 152.707395 
L 61.1 149.642706 
L 64.7 148.993824 
L 68.3 149.024706 
L 71.9 129.046912 
L 75.5 147.418824 
L 79.1 122.492353 
L 82.7 132.472406 
L 86.3 120.221176 
L 89.9 131.820084 
L 93.5 141.966765 
L 97.1 111.751294 
L 100.7 67.915294 
L 104.3 110.426555 
L 107.9 99.351513 
L 111.5 88.865 
L 115.1 122.744706 
L 118.7 114.088824 
L 122.3 96.790294 
L 125.9 111.7775 
L 129.5 120.726765 
L 133.1 81.479044 
L 136.7 93.231529 
L 140.3 90.055294 
L 143.9 113.559827 
L 147.5 69.733333 
L 151.1 109.596765 
L 154.7 103.432118 
L 158.3 108.157549 
L 161.9 106.894353 
L 165.5 121.357326 
L 169.1 126.4055 
L 172.7 152.365485 
L 176.3 161.666113 
L 179.9 162.984545 
L 183.5 153.036661 
" style="fill:none;stroke:#9bd93c;stroke-linecap:square;stroke-width:2;"/>
    <defs>
     <path d="M 0 3 
C 0.795609 3 1.55874 2.683901 2.12132 2.12132 
C 2.683901 1.55874 3 0.795609 3 0 
C 3 -0.795609 2.683901 -1.55874 2.12132 -2.12132 
C 1.55874 -2.683901 0.795609 -3 0 -3 
C -0.795609 -3 -1.55874 -2.683901 -2.12132 -2.12132 
C -2.683901 -1.55874 -3 -0.795609 -3 0 
C -3 0.795609 -2.683901 1.55874 -2.12132 2.12132 
C -1.55874 2.683901 -0.795609 3 0 3 
z
" id="mcb9ea8fcd6" style="stroke:#9bd93c;"/>
    </defs>
    <g clip-path="url(#p8accb77562)">
     <use style="fill:#9bd93c;stroke:#9bd93c;" x="7.1" xlink:href="#mcb9ea8fcd6" y="181.563521"/>
     <use style="fill:#9bd93c;stroke:#9bd93c;" x="10.7" xlink:href="#mcb9ea8fcd6" y="181.02098"/>
     <use style="fill:#9bd93c;stroke:#9bd93c;" x="14.3" xlink:href="#mcb9ea8fcd6" y="179.592437"/>
     <use style="fill:#9bd93c;stroke:#9bd93c;" x="17.9" xlink:href="#mcb9ea8fcd6" y="176.037765"/>
     <use style="fill:#9bd93c;stroke:#9bd93c;" x="21.5" xlink:href="#mcb9ea8fcd6" y="175.208824"/>
     <use style="fill:#9bd93c;stroke:#9bd93c;" x="25.1" xlink:href="#mcb9ea8fcd6" y="177.089328"/>
     <use style="fill:#9bd93c;stroke:#9bd93c;" x="28.7" xlink:href="#mcb9ea8fcd6" y="162.298118"/>
     <use style="fill:#9bd93c;stroke:#9bd93c;" x="32.3" xlink:href="#mcb9ea8fcd6" y="156.273676"/>
     <use style="fill:#9bd93c;stroke:#9bd93c;" x="35.9" xlink:href="#mcb9ea8fcd6" y="165.62369"/>
     <use style="fill:#9bd93c;stroke:#9bd93c;" x="39.5" xlink:href="#mcb9ea8fcd6" y="147.448824"/>
     <use style="fill:#9bd93c;stroke:#9bd93c;" x="43.1" xlink:href="#mcb9ea8fcd6" y="141.314118"/>
     <use style="fill:#9bd93c;stroke:#9bd93c;" x="46.7" xlink:href="#mcb9ea8fcd6" y="151.987206"/>
     <use style="fill:#9bd93c;stroke:#9bd93c;" x="50.3" xlink:href="#mcb9ea8fcd6" y="154.724706"/>
     <use style="fill:#9bd93c;stroke:#9bd93c;" x="53.9" xlink:href="#mcb9ea8fcd6" y="154.256176"/>
     <use style="fill:#9bd93c;stroke:#9bd93c;" x="57.5" xlink:href="#mcb9ea8fcd6" y="152.707395"/>
     <use style="fill:#9bd93c;stroke:#9bd93c;" x="61.1" xlink:href="#mcb9ea8fcd6" y="149.642706"/>
     <use style="fill:#9bd93c;stroke:#9bd93c;" x="64.7" xlink:href="#mcb9ea8fcd6" y="148.993824"/>
     <use style="fill:#9bd93c;stroke:#9bd93c;" x="68.3" xlink:href="#mcb9ea8fcd6" y="149.024706"/>
     <use style="fill:#9bd93c;stroke:#9bd93c;" x="71.9" xlink:href="#mcb9ea8fcd6" y="129.046912"/>
     <use style="fill:#9bd93c;stroke:#9bd93c;" x="75.5" xlink:href="#mcb9ea8fcd6" y="147.418824"/>
     <use style="fill:#9bd93c;stroke:#9bd93c;" x="79.1" xlink:href="#mcb9ea8fcd6" y="122.492353"/>
     <use style="fill:#9bd93c;stroke:#9bd93c;" x="82.7" xlink:href="#mcb9ea8fcd6" y="132.472406"/>
     <use style="fill:#9bd93c;stroke:#9bd93c;" x="86.3" xlink:href="#mcb9ea8fcd6" y="120.221176"/>
     <use style="fill:#9bd93c;stroke:#9bd93c;" x="89.9" xlink:href="#mcb9ea8fcd6" y="131.820084"/>
     <use style="fill:#9bd93c;stroke:#9bd93c;" x="93.5" xlink:href="#mcb9ea8fcd6" y="141.966765"/>
     <use style="fill:#9bd93c;stroke:#9bd93c;" x="97.1" xlink:href="#mcb9ea8fcd6" y="111.751294"/>
     <use style="fill:#9bd93c;stroke:#9bd93c;" x="100.7" xlink:href="#mcb9ea8fcd6" y="67.915294"/>
     <use style="fill:#9bd93c;stroke:#9bd93c;" x="104.3" xlink:href="#mcb9ea8fcd6" y="110.426555"/>
     <use style="fill:#9bd93c;stroke:#9bd93c;" x="107.9" xlink:href="#mcb9ea8fcd6" y="99.351513"/>
     <use style="fill:#9bd93c;stroke:#9bd93c;" x="111.5" xlink:href="#mcb9ea8fcd6" y="88.865"/>
     <use style="fill:#9bd93c;stroke:#9bd93c;" x="115.1" xlink:href="#mcb9ea8fcd6" y="122.744706"/>
     <use style="fill:#9bd93c;stroke:#9bd93c;" x="118.7" xlink:href="#mcb9ea8fcd6" y="114.088824"/>
     <use style="fill:#9bd93c;stroke:#9bd93c;" x="122.3" xlink:href="#mcb9ea8fcd6" y="96.790294"/>
     <use style="fill:#9bd93c;stroke:#9bd93c;" x="125.9" xlink:href="#mcb9ea8fcd6" y="111.7775"/>
     <use style="fill:#9bd93c;stroke:#9bd93c;" x="129.5" xlink:href="#mcb9ea8fcd6" y="120.726765"/>
     <use style="fill:#9bd93c;stroke:#9bd93c;" x="133.1" xlink:href="#mcb9ea8fcd6" y="81.479044"/>
     <use style="fill:#9bd93c;stroke:#9bd93c;" x="136.7" xlink:href="#mcb9ea8fcd6" y="93.231529"/>
     <use style="fill:#9bd93c;stroke:#9bd93c;" x="140.3" xlink:href="#mcb9ea8fcd6" y="90.055294"/>
     <use style="fill:#9bd93c;stroke:#9bd93c;" x="143.9" xlink:href="#mcb9ea8fcd6" y="113.559827"/>
     <use style="fill:#9bd93c;stroke:#9bd93c;" x="147.5" xlink:href="#mcb9ea8fcd6" y="69.733333"/>
     <use style="fill:#9bd93c;stroke:#9bd93c;" x="151.1" xlink:href="#mcb9ea8fcd6" y="109.596765"/>
     <use style="fill:#9bd93c;stroke:#9bd93c;" x="154.7" xlink:href="#mcb9ea8fcd6" y="103.432118"/>
     <use style="fill:#9bd93c;stroke:#9bd93c;" x="158.3" xlink:href="#mcb9ea8fcd6" y="108.157549"/>
     <use style="fill:#9bd93c;stroke:#9bd93c;" x="161.9" xlink:href="#mcb9ea8fcd6" y="106.894353"/>
     <use style="fill:#9bd93c;stroke:#9bd93c;" x="165.5" xlink:href="#mcb9ea8fcd6" y="121.357326"/>
     <use style="fill:#9bd93c;stroke:#9bd93c;" x="169.1" xlink:href="#mcb9ea8fcd6" y="126.4055"/>
     <use style="fill:#9bd93c;stroke:#9bd93c;" x="172.7" xlink:href="#mcb9ea8fcd6" y="152.365485"/>
     <use style="fill:#9bd93c;stroke:#9bd93c;" x="176.3" xlink:href="#mcb9ea8fcd6" y="161.666113"/>
     <use style="fill:#9bd93c;stroke:#9bd93c;" x="179.9" xlink:href="#mcb9ea8fcd6" y="162.984545"/>
     <use style="fill:#9bd93c;stroke:#9bd93c;" x="183.5" xlink:href="#mcb9ea8fcd6" y="153.036661"/>
    </g>
   </g>
   <g id="patch_3">
    <path d="M 3.5 183.5 
L 3.5 3.5 
" style="fill:none;stroke:#000000;stroke-linecap:square;stroke-linejoin:miter;stroke-width:0.8;"/>
   </g>
   <g id="patch_4">
    <path d="M 183.5 183.5 
L 183.5 3.5 
" style="fill:none;stroke:#000000;stroke-linecap:square;stroke-linejoin:miter;stroke-width:0.8;"/>
   </g>
   <g id="patch_5">
    <path d="M 3.5 183.5 
L 183.5 183.5 
" style="fill:none;stroke:#000000;stroke-linecap:square;stroke-linejoin:miter;stroke-width:0.8;"/>
   </g>
   <g id="patch_6">
    <path d="M 3.5 3.5 
L 183.5 3.5 
" style="fill:none;stroke:#000000;stroke-linecap:square;stroke-linejoin:miter;stroke-width:0.8;"/>
   </g>
  </g>
 </g>
 <defs>
  <clipPath id="p8accb77562">
   <rect height="180" width="180" x="3.5" y="3.5"/>
  </clipPath>
 </defs>
</svg>
