<?xml version="1.0" encoding="utf-8" standalone="no"?>
<!DOCTYPE svg PUBLIC "-//W3C//DTD SVG 1.1//EN"
  "http://www.w3.org/Graphics/SVG/1.1/DTD/svg11.dtd">
<!-- Created with matplotlib (http://matplotlib.org/) -->
<svg height="187pt" version="1.1" viewBox="0 0 187 187" width="187pt" xmlns="http://www.w3.org/2000/svg" xmlns:xlink="http://www.w3.org/1999/xlink">
 <defs>
  <style type="text/css">
*{stroke-linecap:butt;stroke-linejoin:round;}
  </style>
 </defs>
 <g id="figure_1">
  <g id="patch_1">
   <path d="M 0 187 
L 187 187 
L 187 -0 
L 0 -0 
z
" style="fill:#ffffff;"/>
  </g>
  <g id="axes_1">
   <g id="patch_2">
    <path d="M 3.5 183.5 
L 183.5 183.5 
L 183.5 3.5 
L 3.5 3.5 
z
" style="fill:#ffffff;"/>
   </g>
   <g id="matplotlib.axis_1"/>
   <g id="matplotlib.axis_2"/>
   <g id="line2d_1">
    <path clip-path="url(#pa88de0a52b)" d="M 7.1 181.498416 
L 10.7 172.452275 
L 14.3 177.422847 
L 17.9 171.068576 
L 21.5 160.342975 
L 25.1 168.072746 
L 28.7 173.235434 
L 32.3 164.488441 
L 35.9 164.015836 
L 39.5 160.682 
L 43.1 150.205468 
L 46.7 147.250117 
L 50.3 160.621831 
L 53.9 170.276623 
L 57.5 159.977162 
L 61.1 159.5238 
L 64.7 146.95113 
L 68.3 143.720114 
L 71.9 170.713921 
L 75.5 128.718004 
L 79.1 137.665229 
L 82.7 119.737443 
L 86.3 104.409615 
L 89.9 82.612011 
L 93.5 133.692663 
L 97.1 66.968318 
L 100.7 80.100103 
L 104.3 44.875219 
L 107.9 68.556876 
L 111.5 62.852318 
L 115.1 52.304642 
L 118.7 56.351998 
L 122.3 64.281733 
L 125.9 54.279341 
L 129.5 59.831317 
L 133.1 91.210514 
L 136.7 69.823026 
L 140.3 68.516489 
L 143.9 98.189484 
L 147.5 110.334099 
L 151.1 115.876255 
L 154.7 125.199031 
L 158.3 153.074961 
L 161.9 128.098614 
L 165.5 163.63022 
L 169.1 166.164527 
L 172.7 162.615078 
L 176.3 165.413477 
L 179.9 154.385767 
L 183.5 22.811462 
" style="fill:none;stroke:#1fa188;stroke-linecap:square;stroke-width:2;"/>
    <defs>
     <path d="M 0 3 
C 0.795609 3 1.55874 2.683901 2.12132 2.12132 
C 2.683901 1.55874 3 0.795609 3 0 
C 3 -0.795609 2.683901 -1.55874 2.12132 -2.12132 
C 1.55874 -2.683901 0.795609 -3 0 -3 
C -0.795609 -3 -1.55874 -2.683901 -2.12132 -2.12132 
C -2.683901 -1.55874 -3 -0.795609 -3 0 
C -3 0.795609 -2.683901 1.55874 -2.12132 2.12132 
C -1.55874 2.683901 -0.795609 3 0 3 
z
" id="mf1a8287639" style="stroke:#1fa188;"/>
    </defs>
    <g clip-path="url(#pa88de0a52b)">
     <use style="fill:#1fa188;stroke:#1fa188;" x="7.1" xlink:href="#mf1a8287639" y="181.498416"/>
     <use style="fill:#1fa188;stroke:#1fa188;" x="10.7" xlink:href="#mf1a8287639" y="172.452275"/>
     <use style="fill:#1fa188;stroke:#1fa188;" x="14.3" xlink:href="#mf1a8287639" y="177.422847"/>
     <use style="fill:#1fa188;stroke:#1fa188;" x="17.9" xlink:href="#mf1a8287639" y="171.068576"/>
     <use style="fill:#1fa188;stroke:#1fa188;" x="21.5" xlink:href="#mf1a8287639" y="160.342975"/>
     <use style="fill:#1fa188;stroke:#1fa188;" x="25.1" xlink:href="#mf1a8287639" y="168.072746"/>
     <use style="fill:#1fa188;stroke:#1fa188;" x="28.7" xlink:href="#mf1a8287639" y="173.235434"/>
     <use style="fill:#1fa188;stroke:#1fa188;" x="32.3" xlink:href="#mf1a8287639" y="164.488441"/>
     <use style="fill:#1fa188;stroke:#1fa188;" x="35.9" xlink:href="#mf1a8287639" y="164.015836"/>
     <use style="fill:#1fa188;stroke:#1fa188;" x="39.5" xlink:href="#mf1a8287639" y="160.682"/>
     <use style="fill:#1fa188;stroke:#1fa188;" x="43.1" xlink:href="#mf1a8287639" y="150.205468"/>
     <use style="fill:#1fa188;stroke:#1fa188;" x="46.7" xlink:href="#mf1a8287639" y="147.250117"/>
     <use style="fill:#1fa188;stroke:#1fa188;" x="50.3" xlink:href="#mf1a8287639" y="160.621831"/>
     <use style="fill:#1fa188;stroke:#1fa188;" x="53.9" xlink:href="#mf1a8287639" y="170.276623"/>
     <use style="fill:#1fa188;stroke:#1fa188;" x="57.5" xlink:href="#mf1a8287639" y="159.977162"/>
     <use style="fill:#1fa188;stroke:#1fa188;" x="61.1" xlink:href="#mf1a8287639" y="159.5238"/>
     <use style="fill:#1fa188;stroke:#1fa188;" x="64.7" xlink:href="#mf1a8287639" y="146.95113"/>
     <use style="fill:#1fa188;stroke:#1fa188;" x="68.3" xlink:href="#mf1a8287639" y="143.720114"/>
     <use style="fill:#1fa188;stroke:#1fa188;" x="71.9" xlink:href="#mf1a8287639" y="170.713921"/>
     <use style="fill:#1fa188;stroke:#1fa188;" x="75.5" xlink:href="#mf1a8287639" y="128.718004"/>
     <use style="fill:#1fa188;stroke:#1fa188;" x="79.1" xlink:href="#mf1a8287639" y="137.665229"/>
     <use style="fill:#1fa188;stroke:#1fa188;" x="82.7" xlink:href="#mf1a8287639" y="119.737443"/>
     <use style="fill:#1fa188;stroke:#1fa188;" x="86.3" xlink:href="#mf1a8287639" y="104.409615"/>
     <use style="fill:#1fa188;stroke:#1fa188;" x="89.9" xlink:href="#mf1a8287639" y="82.612011"/>
     <use style="fill:#1fa188;stroke:#1fa188;" x="93.5" xlink:href="#mf1a8287639" y="133.692663"/>
     <use style="fill:#1fa188;stroke:#1fa188;" x="97.1" xlink:href="#mf1a8287639" y="66.968318"/>
     <use style="fill:#1fa188;stroke:#1fa188;" x="100.7" xlink:href="#mf1a8287639" y="80.100103"/>
     <use style="fill:#1fa188;stroke:#1fa188;" x="104.3" xlink:href="#mf1a8287639" y="44.875219"/>
     <use style="fill:#1fa188;stroke:#1fa188;" x="107.9" xlink:href="#mf1a8287639" y="68.556876"/>
     <use style="fill:#1fa188;stroke:#1fa188;" x="111.5" xlink:href="#mf1a8287639" y="62.852318"/>
     <use style="fill:#1fa188;stroke:#1fa188;" x="115.1" xlink:href="#mf1a8287639" y="52.304642"/>
     <use style="fill:#1fa188;stroke:#1fa188;" x="118.7" xlink:href="#mf1a8287639" y="56.351998"/>
     <use style="fill:#1fa188;stroke:#1fa188;" x="122.3" xlink:href="#mf1a8287639" y="64.281733"/>
     <use style="fill:#1fa188;stroke:#1fa188;" x="125.9" xlink:href="#mf1a8287639" y="54.279341"/>
     <use style="fill:#1fa188;stroke:#1fa188;" x="129.5" xlink:href="#mf1a8287639" y="59.831317"/>
     <use style="fill:#1fa188;stroke:#1fa188;" x="133.1" xlink:href="#mf1a8287639" y="91.210514"/>
     <use style="fill:#1fa188;stroke:#1fa188;" x="136.7" xlink:href="#mf1a8287639" y="69.823026"/>
     <use style="fill:#1fa188;stroke:#1fa188;" x="140.3" xlink:href="#mf1a8287639" y="68.516489"/>
     <use style="fill:#1fa188;stroke:#1fa188;" x="143.9" xlink:href="#mf1a8287639" y="98.189484"/>
     <use style="fill:#1fa188;stroke:#1fa188;" x="147.5" xlink:href="#mf1a8287639" y="110.334099"/>
     <use style="fill:#1fa188;stroke:#1fa188;" x="151.1" xlink:href="#mf1a8287639" y="115.876255"/>
     <use style="fill:#1fa188;stroke:#1fa188;" x="154.7" xlink:href="#mf1a8287639" y="125.199031"/>
     <use style="fill:#1fa188;stroke:#1fa188;" x="158.3" xlink:href="#mf1a8287639" y="153.074961"/>
     <use style="fill:#1fa188;stroke:#1fa188;" x="161.9" xlink:href="#mf1a8287639" y="128.098614"/>
     <use style="fill:#1fa188;stroke:#1fa188;" x="165.5" xlink:href="#mf1a8287639" y="163.63022"/>
     <use style="fill:#1fa188;stroke:#1fa188;" x="169.1" xlink:href="#mf1a8287639" y="166.164527"/>
     <use style="fill:#1fa188;stroke:#1fa188;" x="172.7" xlink:href="#mf1a8287639" y="162.615078"/>
     <use style="fill:#1fa188;stroke:#1fa188;" x="176.3" xlink:href="#mf1a8287639" y="165.413477"/>
     <use style="fill:#1fa188;stroke:#1fa188;" x="179.9" xlink:href="#mf1a8287639" y="154.385767"/>
     <use style="fill:#1fa188;stroke:#1fa188;" x="183.5" xlink:href="#mf1a8287639" y="22.811462"/>
    </g>
   </g>
   <g id="patch_3">
    <path d="M 3.5 183.5 
L 3.5 3.5 
" style="fill:none;stroke:#000000;stroke-linecap:square;stroke-linejoin:miter;stroke-width:0.8;"/>
   </g>
   <g id="patch_4">
    <path d="M 183.5 183.5 
L 183.5 3.5 
" style="fill:none;stroke:#000000;stroke-linecap:square;stroke-linejoin:miter;stroke-width:0.8;"/>
   </g>
   <g id="patch_5">
    <path d="M 3.5 183.5 
L 183.5 183.5 
" style="fill:none;stroke:#000000;stroke-linecap:square;stroke-linejoin:miter;stroke-width:0.8;"/>
   </g>
   <g id="patch_6">
    <path d="M 3.5 3.5 
L 183.5 3.5 
" style="fill:none;stroke:#000000;stroke-linecap:square;stroke-linejoin:miter;stroke-width:0.8;"/>
   </g>
  </g>
 </g>
 <defs>
  <clipPath id="pa88de0a52b">
   <rect height="180" width="180" x="3.5" y="3.5"/>
  </clipPath>
 </defs>
</svg>
