<?xml version="1.0" encoding="utf-8" standalone="no"?>
<!DOCTYPE svg PUBLIC "-//W3C//DTD SVG 1.1//EN"
  "http://www.w3.org/Graphics/SVG/1.1/DTD/svg11.dtd">
<!-- Created with matplotlib (http://matplotlib.org/) -->
<svg height="187pt" version="1.1" viewBox="0 0 187 187" width="187pt" xmlns="http://www.w3.org/2000/svg" xmlns:xlink="http://www.w3.org/1999/xlink">
 <defs>
  <style type="text/css">
*{stroke-linecap:butt;stroke-linejoin:round;}
  </style>
 </defs>
 <g id="figure_1">
  <g id="patch_1">
   <path d="M 0 187 
L 187 187 
L 187 -0 
L 0 -0 
z
" style="fill:#ffffff;"/>
  </g>
  <g id="axes_1">
   <g id="patch_2">
    <path d="M 3.5 183.5 
L 183.5 183.5 
L 183.5 3.5 
L 3.5 3.5 
z
" style="fill:#ffffff;"/>
   </g>
   <g id="matplotlib.axis_1"/>
   <g id="matplotlib.axis_2"/>
   <g id="line2d_1">
    <path clip-path="url(#p0f3a6c0f32)" d="M 7.1 181.683468 
L 10.7 178.894804 
L 14.3 174.571886 
L 17.9 164.019853 
L 21.5 162.633978 
L 25.1 159.743137 
L 28.7 144.681933 
L 32.3 139.313462 
L 35.9 123.481863 
L 39.5 129.367206 
L 43.1 129.971176 
L 46.7 63.921048 
L 50.3 66.945161 
L 53.9 53.180882 
L 57.5 45.681723 
L 61.1 48.659926 
L 64.7 13.769176 
L 68.3 19.305765 
L 71.9 21.334559 
L 75.5 12.105814 
L 79.1 5.896195 
L 82.7 16.551412 
L 86.3 6.822293 
L 89.9 13.748861 
L 93.5 6.508125 
L 97.1 17.533824 
L 100.7 22.99842 
L 104.3 5.531935 
L 107.9 11.652147 
L 111.5 5.432731 
L 115.1 16.009458 
M 122.3 5.264706 
L 125.9 6.464706 
L 129.5 5.264706 
L 133.1 5.264706 
" style="fill:none;stroke:#375b8d;stroke-linecap:square;stroke-width:2;"/>
    <defs>
     <path d="M 0 3 
C 0.795609 3 1.55874 2.683901 2.12132 2.12132 
C 2.683901 1.55874 3 0.795609 3 0 
C 3 -0.795609 2.683901 -1.55874 2.12132 -2.12132 
C 1.55874 -2.683901 0.795609 -3 0 -3 
C -0.795609 -3 -1.55874 -2.683901 -2.12132 -2.12132 
C -2.683901 -1.55874 -3 -0.795609 -3 0 
C -3 0.795609 -2.683901 1.55874 -2.12132 2.12132 
C -1.55874 2.683901 -0.795609 3 0 3 
z
" id="mfc0bb7f181" style="stroke:#375b8d;"/>
    </defs>
    <g clip-path="url(#p0f3a6c0f32)">
     <use style="fill:#375b8d;stroke:#375b8d;" x="7.1" xlink:href="#mfc0bb7f181" y="181.683468"/>
     <use style="fill:#375b8d;stroke:#375b8d;" x="10.7" xlink:href="#mfc0bb7f181" y="178.894804"/>
     <use style="fill:#375b8d;stroke:#375b8d;" x="14.3" xlink:href="#mfc0bb7f181" y="174.571886"/>
     <use style="fill:#375b8d;stroke:#375b8d;" x="17.9" xlink:href="#mfc0bb7f181" y="164.019853"/>
     <use style="fill:#375b8d;stroke:#375b8d;" x="21.5" xlink:href="#mfc0bb7f181" y="162.633978"/>
     <use style="fill:#375b8d;stroke:#375b8d;" x="25.1" xlink:href="#mfc0bb7f181" y="159.743137"/>
     <use style="fill:#375b8d;stroke:#375b8d;" x="28.7" xlink:href="#mfc0bb7f181" y="144.681933"/>
     <use style="fill:#375b8d;stroke:#375b8d;" x="32.3" xlink:href="#mfc0bb7f181" y="139.313462"/>
     <use style="fill:#375b8d;stroke:#375b8d;" x="35.9" xlink:href="#mfc0bb7f181" y="123.481863"/>
     <use style="fill:#375b8d;stroke:#375b8d;" x="39.5" xlink:href="#mfc0bb7f181" y="129.367206"/>
     <use style="fill:#375b8d;stroke:#375b8d;" x="43.1" xlink:href="#mfc0bb7f181" y="129.971176"/>
     <use style="fill:#375b8d;stroke:#375b8d;" x="46.7" xlink:href="#mfc0bb7f181" y="63.921048"/>
     <use style="fill:#375b8d;stroke:#375b8d;" x="50.3" xlink:href="#mfc0bb7f181" y="66.945161"/>
     <use style="fill:#375b8d;stroke:#375b8d;" x="53.9" xlink:href="#mfc0bb7f181" y="53.180882"/>
     <use style="fill:#375b8d;stroke:#375b8d;" x="57.5" xlink:href="#mfc0bb7f181" y="45.681723"/>
     <use style="fill:#375b8d;stroke:#375b8d;" x="61.1" xlink:href="#mfc0bb7f181" y="48.659926"/>
     <use style="fill:#375b8d;stroke:#375b8d;" x="64.7" xlink:href="#mfc0bb7f181" y="13.769176"/>
     <use style="fill:#375b8d;stroke:#375b8d;" x="68.3" xlink:href="#mfc0bb7f181" y="19.305765"/>
     <use style="fill:#375b8d;stroke:#375b8d;" x="71.9" xlink:href="#mfc0bb7f181" y="21.334559"/>
     <use style="fill:#375b8d;stroke:#375b8d;" x="75.5" xlink:href="#mfc0bb7f181" y="12.105814"/>
     <use style="fill:#375b8d;stroke:#375b8d;" x="79.1" xlink:href="#mfc0bb7f181" y="5.896195"/>
     <use style="fill:#375b8d;stroke:#375b8d;" x="82.7" xlink:href="#mfc0bb7f181" y="16.551412"/>
     <use style="fill:#375b8d;stroke:#375b8d;" x="86.3" xlink:href="#mfc0bb7f181" y="6.822293"/>
     <use style="fill:#375b8d;stroke:#375b8d;" x="89.9" xlink:href="#mfc0bb7f181" y="13.748861"/>
     <use style="fill:#375b8d;stroke:#375b8d;" x="93.5" xlink:href="#mfc0bb7f181" y="6.508125"/>
     <use style="fill:#375b8d;stroke:#375b8d;" x="97.1" xlink:href="#mfc0bb7f181" y="17.533824"/>
     <use style="fill:#375b8d;stroke:#375b8d;" x="100.7" xlink:href="#mfc0bb7f181" y="22.99842"/>
     <use style="fill:#375b8d;stroke:#375b8d;" x="104.3" xlink:href="#mfc0bb7f181" y="5.531935"/>
     <use style="fill:#375b8d;stroke:#375b8d;" x="107.9" xlink:href="#mfc0bb7f181" y="11.652147"/>
     <use style="fill:#375b8d;stroke:#375b8d;" x="111.5" xlink:href="#mfc0bb7f181" y="5.432731"/>
     <use style="fill:#375b8d;stroke:#375b8d;" x="115.1" xlink:href="#mfc0bb7f181" y="16.009458"/>
     <use style="fill:#375b8d;stroke:#375b8d;" x="122.3" xlink:href="#mfc0bb7f181" y="5.264706"/>
     <use style="fill:#375b8d;stroke:#375b8d;" x="125.9" xlink:href="#mfc0bb7f181" y="6.464706"/>
     <use style="fill:#375b8d;stroke:#375b8d;" x="129.5" xlink:href="#mfc0bb7f181" y="5.264706"/>
     <use style="fill:#375b8d;stroke:#375b8d;" x="133.1" xlink:href="#mfc0bb7f181" y="5.264706"/>
    </g>
   </g>
   <g id="patch_3">
    <path d="M 3.5 183.5 
L 3.5 3.5 
" style="fill:none;stroke:#000000;stroke-linecap:square;stroke-linejoin:miter;stroke-width:0.8;"/>
   </g>
   <g id="patch_4">
    <path d="M 183.5 183.5 
L 183.5 3.5 
" style="fill:none;stroke:#000000;stroke-linecap:square;stroke-linejoin:miter;stroke-width:0.8;"/>
   </g>
   <g id="patch_5">
    <path d="M 3.5 183.5 
L 183.5 183.5 
" style="fill:none;stroke:#000000;stroke-linecap:square;stroke-linejoin:miter;stroke-width:0.8;"/>
   </g>
   <g id="patch_6">
    <path d="M 3.5 3.5 
L 183.5 3.5 
" style="fill:none;stroke:#000000;stroke-linecap:square;stroke-linejoin:miter;stroke-width:0.8;"/>
   </g>
  </g>
 </g>
 <defs>
  <clipPath id="p0f3a6c0f32">
   <rect height="180" width="180" x="3.5" y="3.5"/>
  </clipPath>
 </defs>
</svg>
