<?xml version="1.0" encoding="utf-8" standalone="no"?>
<!DOCTYPE svg PUBLIC "-//W3C//DTD SVG 1.1//EN"
  "http://www.w3.org/Graphics/SVG/1.1/DTD/svg11.dtd">
<!-- Created with matplotlib (http://matplotlib.org/) -->
<svg height="187pt" version="1.1" viewBox="0 0 187 187" width="187pt" xmlns="http://www.w3.org/2000/svg" xmlns:xlink="http://www.w3.org/1999/xlink">
 <defs>
  <style type="text/css">
*{stroke-linecap:butt;stroke-linejoin:round;}
  </style>
 </defs>
 <g id="figure_1">
  <g id="patch_1">
   <path d="M 0 187 
L 187 187 
L 187 -0 
L 0 -0 
z
" style="fill:#ffffff;"/>
  </g>
  <g id="axes_1">
   <g id="patch_2">
    <path d="M 3.5 183.5 
L 183.5 183.5 
L 183.5 3.5 
L 3.5 3.5 
z
" style="fill:#ffffff;"/>
   </g>
   <g id="matplotlib.axis_1"/>
   <g id="matplotlib.axis_2"/>
   <g id="line2d_1">
    <path clip-path="url(#pb317df313b)" d="M 7.1 181.635566 
L 10.7 179.061985 
L 14.3 173.189176 
L 17.9 174.69437 
L 21.5 167.337647 
L 25.1 173.037765 
L 28.7 170.201397 
L 32.3 164.245735 
L 35.9 157.597353 
L 39.5 151.608824 
L 43.1 159.708235 
L 46.7 143.704118 
L 50.3 153.310588 
L 53.9 153.08 
L 57.5 146.330662 
L 61.1 144.067059 
L 64.7 142.129294 
L 68.3 157.071176 
L 71.9 147.093702 
L 75.5 139.240515 
L 79.1 131.966176 
L 82.7 130.129647 
L 86.3 128.541765 
L 89.9 113.920471 
L 93.5 136.25902 
L 97.1 105.701529 
L 100.7 96.751294 
L 104.3 100.486975 
L 107.9 99.282941 
L 111.5 118.111029 
L 115.1 104.216 
L 118.7 99.130294 
L 122.3 110.111176 
L 125.9 87.020353 
L 129.5 85.353015 
L 133.1 79.157647 
L 136.7 92.356471 
L 140.3 81.604118 
L 143.9 103.547552 
L 147.5 84.513059 
L 151.1 100.0714 
L 154.7 83.205529 
L 158.3 91.637101 
L 161.9 99.550118 
L 165.5 106.723971 
L 169.1 116.989463 
L 172.7 112.340108 
L 176.3 98.895007 
L 179.9 93.381111 
L 183.5 60.122435 
" style="fill:none;stroke:#9bd93c;stroke-linecap:square;stroke-width:2;"/>
    <defs>
     <path d="M 0 3 
C 0.795609 3 1.55874 2.683901 2.12132 2.12132 
C 2.683901 1.55874 3 0.795609 3 0 
C 3 -0.795609 2.683901 -1.55874 2.12132 -2.12132 
C 1.55874 -2.683901 0.795609 -3 0 -3 
C -0.795609 -3 -1.55874 -2.683901 -2.12132 -2.12132 
C -2.683901 -1.55874 -3 -0.795609 -3 0 
C -3 0.795609 -2.683901 1.55874 -2.12132 2.12132 
C -1.55874 2.683901 -0.795609 3 0 3 
z
" id="md3c09f26f3" style="stroke:#9bd93c;"/>
    </defs>
    <g clip-path="url(#pb317df313b)">
     <use style="fill:#9bd93c;stroke:#9bd93c;" x="7.1" xlink:href="#md3c09f26f3" y="181.635566"/>
     <use style="fill:#9bd93c;stroke:#9bd93c;" x="10.7" xlink:href="#md3c09f26f3" y="179.061985"/>
     <use style="fill:#9bd93c;stroke:#9bd93c;" x="14.3" xlink:href="#md3c09f26f3" y="173.189176"/>
     <use style="fill:#9bd93c;stroke:#9bd93c;" x="17.9" xlink:href="#md3c09f26f3" y="174.69437"/>
     <use style="fill:#9bd93c;stroke:#9bd93c;" x="21.5" xlink:href="#md3c09f26f3" y="167.337647"/>
     <use style="fill:#9bd93c;stroke:#9bd93c;" x="25.1" xlink:href="#md3c09f26f3" y="173.037765"/>
     <use style="fill:#9bd93c;stroke:#9bd93c;" x="28.7" xlink:href="#md3c09f26f3" y="170.201397"/>
     <use style="fill:#9bd93c;stroke:#9bd93c;" x="32.3" xlink:href="#md3c09f26f3" y="164.245735"/>
     <use style="fill:#9bd93c;stroke:#9bd93c;" x="35.9" xlink:href="#md3c09f26f3" y="157.597353"/>
     <use style="fill:#9bd93c;stroke:#9bd93c;" x="39.5" xlink:href="#md3c09f26f3" y="151.608824"/>
     <use style="fill:#9bd93c;stroke:#9bd93c;" x="43.1" xlink:href="#md3c09f26f3" y="159.708235"/>
     <use style="fill:#9bd93c;stroke:#9bd93c;" x="46.7" xlink:href="#md3c09f26f3" y="143.704118"/>
     <use style="fill:#9bd93c;stroke:#9bd93c;" x="50.3" xlink:href="#md3c09f26f3" y="153.310588"/>
     <use style="fill:#9bd93c;stroke:#9bd93c;" x="53.9" xlink:href="#md3c09f26f3" y="153.08"/>
     <use style="fill:#9bd93c;stroke:#9bd93c;" x="57.5" xlink:href="#md3c09f26f3" y="146.330662"/>
     <use style="fill:#9bd93c;stroke:#9bd93c;" x="61.1" xlink:href="#md3c09f26f3" y="144.067059"/>
     <use style="fill:#9bd93c;stroke:#9bd93c;" x="64.7" xlink:href="#md3c09f26f3" y="142.129294"/>
     <use style="fill:#9bd93c;stroke:#9bd93c;" x="68.3" xlink:href="#md3c09f26f3" y="157.071176"/>
     <use style="fill:#9bd93c;stroke:#9bd93c;" x="71.9" xlink:href="#md3c09f26f3" y="147.093702"/>
     <use style="fill:#9bd93c;stroke:#9bd93c;" x="75.5" xlink:href="#md3c09f26f3" y="139.240515"/>
     <use style="fill:#9bd93c;stroke:#9bd93c;" x="79.1" xlink:href="#md3c09f26f3" y="131.966176"/>
     <use style="fill:#9bd93c;stroke:#9bd93c;" x="82.7" xlink:href="#md3c09f26f3" y="130.129647"/>
     <use style="fill:#9bd93c;stroke:#9bd93c;" x="86.3" xlink:href="#md3c09f26f3" y="128.541765"/>
     <use style="fill:#9bd93c;stroke:#9bd93c;" x="89.9" xlink:href="#md3c09f26f3" y="113.920471"/>
     <use style="fill:#9bd93c;stroke:#9bd93c;" x="93.5" xlink:href="#md3c09f26f3" y="136.25902"/>
     <use style="fill:#9bd93c;stroke:#9bd93c;" x="97.1" xlink:href="#md3c09f26f3" y="105.701529"/>
     <use style="fill:#9bd93c;stroke:#9bd93c;" x="100.7" xlink:href="#md3c09f26f3" y="96.751294"/>
     <use style="fill:#9bd93c;stroke:#9bd93c;" x="104.3" xlink:href="#md3c09f26f3" y="100.486975"/>
     <use style="fill:#9bd93c;stroke:#9bd93c;" x="107.9" xlink:href="#md3c09f26f3" y="99.282941"/>
     <use style="fill:#9bd93c;stroke:#9bd93c;" x="111.5" xlink:href="#md3c09f26f3" y="118.111029"/>
     <use style="fill:#9bd93c;stroke:#9bd93c;" x="115.1" xlink:href="#md3c09f26f3" y="104.216"/>
     <use style="fill:#9bd93c;stroke:#9bd93c;" x="118.7" xlink:href="#md3c09f26f3" y="99.130294"/>
     <use style="fill:#9bd93c;stroke:#9bd93c;" x="122.3" xlink:href="#md3c09f26f3" y="110.111176"/>
     <use style="fill:#9bd93c;stroke:#9bd93c;" x="125.9" xlink:href="#md3c09f26f3" y="87.020353"/>
     <use style="fill:#9bd93c;stroke:#9bd93c;" x="129.5" xlink:href="#md3c09f26f3" y="85.353015"/>
     <use style="fill:#9bd93c;stroke:#9bd93c;" x="133.1" xlink:href="#md3c09f26f3" y="79.157647"/>
     <use style="fill:#9bd93c;stroke:#9bd93c;" x="136.7" xlink:href="#md3c09f26f3" y="92.356471"/>
     <use style="fill:#9bd93c;stroke:#9bd93c;" x="140.3" xlink:href="#md3c09f26f3" y="81.604118"/>
     <use style="fill:#9bd93c;stroke:#9bd93c;" x="143.9" xlink:href="#md3c09f26f3" y="103.547552"/>
     <use style="fill:#9bd93c;stroke:#9bd93c;" x="147.5" xlink:href="#md3c09f26f3" y="84.513059"/>
     <use style="fill:#9bd93c;stroke:#9bd93c;" x="151.1" xlink:href="#md3c09f26f3" y="100.0714"/>
     <use style="fill:#9bd93c;stroke:#9bd93c;" x="154.7" xlink:href="#md3c09f26f3" y="83.205529"/>
     <use style="fill:#9bd93c;stroke:#9bd93c;" x="158.3" xlink:href="#md3c09f26f3" y="91.637101"/>
     <use style="fill:#9bd93c;stroke:#9bd93c;" x="161.9" xlink:href="#md3c09f26f3" y="99.550118"/>
     <use style="fill:#9bd93c;stroke:#9bd93c;" x="165.5" xlink:href="#md3c09f26f3" y="106.723971"/>
     <use style="fill:#9bd93c;stroke:#9bd93c;" x="169.1" xlink:href="#md3c09f26f3" y="116.989463"/>
     <use style="fill:#9bd93c;stroke:#9bd93c;" x="172.7" xlink:href="#md3c09f26f3" y="112.340108"/>
     <use style="fill:#9bd93c;stroke:#9bd93c;" x="176.3" xlink:href="#md3c09f26f3" y="98.895007"/>
     <use style="fill:#9bd93c;stroke:#9bd93c;" x="179.9" xlink:href="#md3c09f26f3" y="93.381111"/>
     <use style="fill:#9bd93c;stroke:#9bd93c;" x="183.5" xlink:href="#md3c09f26f3" y="60.122435"/>
    </g>
   </g>
   <g id="patch_3">
    <path d="M 3.5 183.5 
L 3.5 3.5 
" style="fill:none;stroke:#000000;stroke-linecap:square;stroke-linejoin:miter;stroke-width:0.8;"/>
   </g>
   <g id="patch_4">
    <path d="M 183.5 183.5 
L 183.5 3.5 
" style="fill:none;stroke:#000000;stroke-linecap:square;stroke-linejoin:miter;stroke-width:0.8;"/>
   </g>
   <g id="patch_5">
    <path d="M 3.5 183.5 
L 183.5 183.5 
" style="fill:none;stroke:#000000;stroke-linecap:square;stroke-linejoin:miter;stroke-width:0.8;"/>
   </g>
   <g id="patch_6">
    <path d="M 3.5 3.5 
L 183.5 3.5 
" style="fill:none;stroke:#000000;stroke-linecap:square;stroke-linejoin:miter;stroke-width:0.8;"/>
   </g>
  </g>
 </g>
 <defs>
  <clipPath id="pb317df313b">
   <rect height="180" width="180" x="3.5" y="3.5"/>
  </clipPath>
 </defs>
</svg>
