<?xml version="1.0" encoding="utf-8" standalone="no"?>
<!DOCTYPE svg PUBLIC "-//W3C//DTD SVG 1.1//EN"
  "http://www.w3.org/Graphics/SVG/1.1/DTD/svg11.dtd">
<!-- Created with matplotlib (http://matplotlib.org/) -->
<svg height="187pt" version="1.1" viewBox="0 0 187 187" width="187pt" xmlns="http://www.w3.org/2000/svg" xmlns:xlink="http://www.w3.org/1999/xlink">
 <defs>
  <style type="text/css">
*{stroke-linecap:butt;stroke-linejoin:round;}
  </style>
 </defs>
 <g id="figure_1">
  <g id="patch_1">
   <path d="M 0 187 
L 187 187 
L 187 -0 
L 0 -0 
z
" style="fill:#ffffff;"/>
  </g>
  <g id="axes_1">
   <g id="patch_2">
    <path d="M 3.5 183.5 
L 183.5 183.5 
L 183.5 3.5 
L 3.5 3.5 
z
" style="fill:#ffffff;"/>
   </g>
   <g id="matplotlib.axis_1"/>
   <g id="matplotlib.axis_2"/>
   <g id="line2d_1">
    <path clip-path="url(#p16b3d249f8)" d="M 7.1 181.68224 
L 10.7 164.960243 
L 14.3 144.691765 
L 17.9 144.27451 
L 21.5 109.342017 
L 25.1 143.341471 
L 28.7 109.596941 
L 32.3 82.321912 
L 35.9 35.869412 
L 39.5 19.113636 
L 43.1 15.967183 
L 46.7 13.910561 
L 50.3 28.032169 
L 53.9 12.648982 
L 57.5 8.589572 
L 61.1 21.537889 
L 64.7 5.826298 
L 68.3 10.682737 
L 71.9 14.64131 
L 75.5 18.644353 
L 79.1 8.083155 
L 82.7 9.282481 
L 86.3 15.860561 
L 89.9 5.559237 
L 93.5 5.539738 
L 97.1 5.264706 
L 100.7 5.264706 
L 104.3 5.264706 
L 107.9 11.046934 
L 111.5 5.264706 
L 115.1 5.264706 
L 118.7 5.264706 
L 122.3 5.264706 
" style="fill:none;stroke:#482374;stroke-linecap:square;stroke-width:2;"/>
    <defs>
     <path d="M 0 3 
C 0.795609 3 1.55874 2.683901 2.12132 2.12132 
C 2.683901 1.55874 3 0.795609 3 0 
C 3 -0.795609 2.683901 -1.55874 2.12132 -2.12132 
C 1.55874 -2.683901 0.795609 -3 0 -3 
C -0.795609 -3 -1.55874 -2.683901 -2.12132 -2.12132 
C -2.683901 -1.55874 -3 -0.795609 -3 0 
C -3 0.795609 -2.683901 1.55874 -2.12132 2.12132 
C -1.55874 2.683901 -0.795609 3 0 3 
z
" id="md909183f3f" style="stroke:#482374;"/>
    </defs>
    <g clip-path="url(#p16b3d249f8)">
     <use style="fill:#482374;stroke:#482374;" x="7.1" xlink:href="#md909183f3f" y="181.68224"/>
     <use style="fill:#482374;stroke:#482374;" x="10.7" xlink:href="#md909183f3f" y="164.960243"/>
     <use style="fill:#482374;stroke:#482374;" x="14.3" xlink:href="#md909183f3f" y="144.691765"/>
     <use style="fill:#482374;stroke:#482374;" x="17.9" xlink:href="#md909183f3f" y="144.27451"/>
     <use style="fill:#482374;stroke:#482374;" x="21.5" xlink:href="#md909183f3f" y="109.342017"/>
     <use style="fill:#482374;stroke:#482374;" x="25.1" xlink:href="#md909183f3f" y="143.341471"/>
     <use style="fill:#482374;stroke:#482374;" x="28.7" xlink:href="#md909183f3f" y="109.596941"/>
     <use style="fill:#482374;stroke:#482374;" x="32.3" xlink:href="#md909183f3f" y="82.321912"/>
     <use style="fill:#482374;stroke:#482374;" x="35.9" xlink:href="#md909183f3f" y="35.869412"/>
     <use style="fill:#482374;stroke:#482374;" x="39.5" xlink:href="#md909183f3f" y="19.113636"/>
     <use style="fill:#482374;stroke:#482374;" x="43.1" xlink:href="#md909183f3f" y="15.967183"/>
     <use style="fill:#482374;stroke:#482374;" x="46.7" xlink:href="#md909183f3f" y="13.910561"/>
     <use style="fill:#482374;stroke:#482374;" x="50.3" xlink:href="#md909183f3f" y="28.032169"/>
     <use style="fill:#482374;stroke:#482374;" x="53.9" xlink:href="#md909183f3f" y="12.648982"/>
     <use style="fill:#482374;stroke:#482374;" x="57.5" xlink:href="#md909183f3f" y="8.589572"/>
     <use style="fill:#482374;stroke:#482374;" x="61.1" xlink:href="#md909183f3f" y="21.537889"/>
     <use style="fill:#482374;stroke:#482374;" x="64.7" xlink:href="#md909183f3f" y="5.826298"/>
     <use style="fill:#482374;stroke:#482374;" x="68.3" xlink:href="#md909183f3f" y="10.682737"/>
     <use style="fill:#482374;stroke:#482374;" x="71.9" xlink:href="#md909183f3f" y="14.64131"/>
     <use style="fill:#482374;stroke:#482374;" x="75.5" xlink:href="#md909183f3f" y="18.644353"/>
     <use style="fill:#482374;stroke:#482374;" x="79.1" xlink:href="#md909183f3f" y="8.083155"/>
     <use style="fill:#482374;stroke:#482374;" x="82.7" xlink:href="#md909183f3f" y="9.282481"/>
     <use style="fill:#482374;stroke:#482374;" x="86.3" xlink:href="#md909183f3f" y="15.860561"/>
     <use style="fill:#482374;stroke:#482374;" x="89.9" xlink:href="#md909183f3f" y="5.559237"/>
     <use style="fill:#482374;stroke:#482374;" x="93.5" xlink:href="#md909183f3f" y="5.539738"/>
     <use style="fill:#482374;stroke:#482374;" x="97.1" xlink:href="#md909183f3f" y="5.264706"/>
     <use style="fill:#482374;stroke:#482374;" x="100.7" xlink:href="#md909183f3f" y="5.264706"/>
     <use style="fill:#482374;stroke:#482374;" x="104.3" xlink:href="#md909183f3f" y="5.264706"/>
     <use style="fill:#482374;stroke:#482374;" x="107.9" xlink:href="#md909183f3f" y="11.046934"/>
     <use style="fill:#482374;stroke:#482374;" x="111.5" xlink:href="#md909183f3f" y="5.264706"/>
     <use style="fill:#482374;stroke:#482374;" x="115.1" xlink:href="#md909183f3f" y="5.264706"/>
     <use style="fill:#482374;stroke:#482374;" x="118.7" xlink:href="#md909183f3f" y="5.264706"/>
     <use style="fill:#482374;stroke:#482374;" x="122.3" xlink:href="#md909183f3f" y="5.264706"/>
    </g>
   </g>
   <g id="patch_3">
    <path d="M 3.5 183.5 
L 3.5 3.5 
" style="fill:none;stroke:#000000;stroke-linecap:square;stroke-linejoin:miter;stroke-width:0.8;"/>
   </g>
   <g id="patch_4">
    <path d="M 183.5 183.5 
L 183.5 3.5 
" style="fill:none;stroke:#000000;stroke-linecap:square;stroke-linejoin:miter;stroke-width:0.8;"/>
   </g>
   <g id="patch_5">
    <path d="M 3.5 183.5 
L 183.5 183.5 
" style="fill:none;stroke:#000000;stroke-linecap:square;stroke-linejoin:miter;stroke-width:0.8;"/>
   </g>
   <g id="patch_6">
    <path d="M 3.5 3.5 
L 183.5 3.5 
" style="fill:none;stroke:#000000;stroke-linecap:square;stroke-linejoin:miter;stroke-width:0.8;"/>
   </g>
  </g>
 </g>
 <defs>
  <clipPath id="p16b3d249f8">
   <rect height="180" width="180" x="3.5" y="3.5"/>
  </clipPath>
 </defs>
</svg>
