<?xml version="1.0" encoding="utf-8" standalone="no"?>
<!DOCTYPE svg PUBLIC "-//W3C//DTD SVG 1.1//EN"
  "http://www.w3.org/Graphics/SVG/1.1/DTD/svg11.dtd">
<!-- Created with matplotlib (http://matplotlib.org/) -->
<svg height="187pt" version="1.1" viewBox="0 0 187 187" width="187pt" xmlns="http://www.w3.org/2000/svg" xmlns:xlink="http://www.w3.org/1999/xlink">
 <defs>
  <style type="text/css">
*{stroke-linecap:butt;stroke-linejoin:round;}
  </style>
 </defs>
 <g id="figure_1">
  <g id="patch_1">
   <path d="M 0 187 
L 187 187 
L 187 -0 
L 0 -0 
z
" style="fill:#ffffff;"/>
  </g>
  <g id="axes_1">
   <g id="patch_2">
    <path d="M 3.5 183.5 
L 183.5 183.5 
L 183.5 3.5 
L 3.5 3.5 
z
" style="fill:#ffffff;"/>
   </g>
   <g id="matplotlib.axis_1"/>
   <g id="matplotlib.axis_2"/>
   <g id="line2d_1">
    <path clip-path="url(#pbff3da4bb8)" d="M 7.1 181.68461 
L 10.7 178.014098 
L 14.3 175.686418 
L 17.9 170.825405 
L 21.5 162.575047 
L 25.1 137.676955 
L 28.7 153.440645 
L 32.3 133.835498 
L 35.9 100.79049 
L 39.5 81.234094 
L 43.1 56.53618 
L 46.7 39.862062 
L 50.3 50.665592 
L 53.9 15.356876 
L 57.5 19.629128 
L 61.1 20.984056 
L 64.7 9.475072 
L 68.3 6.10915 
L 71.9 5.829412 
L 75.5 5.81016 
L 79.1 5.276509 
L 82.7 5.587783 
L 86.3 5.268225 
L 89.9 5.276646 
L 93.5 5.264706 
L 97.1 5.264706 
L 100.7 5.26666 
L 104.3 5.264706 
L 107.9 5.264706 
L 111.5 5.276993 
L 115.1 5.559285 
L 118.7 14.631215 
L 122.3 5.264706 
L 125.9 5.264706 
" style="fill:none;stroke:#424086;stroke-linecap:square;stroke-width:2;"/>
    <defs>
     <path d="M 0 3 
C 0.795609 3 1.55874 2.683901 2.12132 2.12132 
C 2.683901 1.55874 3 0.795609 3 0 
C 3 -0.795609 2.683901 -1.55874 2.12132 -2.12132 
C 1.55874 -2.683901 0.795609 -3 0 -3 
C -0.795609 -3 -1.55874 -2.683901 -2.12132 -2.12132 
C -2.683901 -1.55874 -3 -0.795609 -3 0 
C -3 0.795609 -2.683901 1.55874 -2.12132 2.12132 
C -1.55874 2.683901 -0.795609 3 0 3 
z
" id="m09e3f6e795" style="stroke:#424086;"/>
    </defs>
    <g clip-path="url(#pbff3da4bb8)">
     <use style="fill:#424086;stroke:#424086;" x="7.1" xlink:href="#m09e3f6e795" y="181.68461"/>
     <use style="fill:#424086;stroke:#424086;" x="10.7" xlink:href="#m09e3f6e795" y="178.014098"/>
     <use style="fill:#424086;stroke:#424086;" x="14.3" xlink:href="#m09e3f6e795" y="175.686418"/>
     <use style="fill:#424086;stroke:#424086;" x="17.9" xlink:href="#m09e3f6e795" y="170.825405"/>
     <use style="fill:#424086;stroke:#424086;" x="21.5" xlink:href="#m09e3f6e795" y="162.575047"/>
     <use style="fill:#424086;stroke:#424086;" x="25.1" xlink:href="#m09e3f6e795" y="137.676955"/>
     <use style="fill:#424086;stroke:#424086;" x="28.7" xlink:href="#m09e3f6e795" y="153.440645"/>
     <use style="fill:#424086;stroke:#424086;" x="32.3" xlink:href="#m09e3f6e795" y="133.835498"/>
     <use style="fill:#424086;stroke:#424086;" x="35.9" xlink:href="#m09e3f6e795" y="100.79049"/>
     <use style="fill:#424086;stroke:#424086;" x="39.5" xlink:href="#m09e3f6e795" y="81.234094"/>
     <use style="fill:#424086;stroke:#424086;" x="43.1" xlink:href="#m09e3f6e795" y="56.53618"/>
     <use style="fill:#424086;stroke:#424086;" x="46.7" xlink:href="#m09e3f6e795" y="39.862062"/>
     <use style="fill:#424086;stroke:#424086;" x="50.3" xlink:href="#m09e3f6e795" y="50.665592"/>
     <use style="fill:#424086;stroke:#424086;" x="53.9" xlink:href="#m09e3f6e795" y="15.356876"/>
     <use style="fill:#424086;stroke:#424086;" x="57.5" xlink:href="#m09e3f6e795" y="19.629128"/>
     <use style="fill:#424086;stroke:#424086;" x="61.1" xlink:href="#m09e3f6e795" y="20.984056"/>
     <use style="fill:#424086;stroke:#424086;" x="64.7" xlink:href="#m09e3f6e795" y="9.475072"/>
     <use style="fill:#424086;stroke:#424086;" x="68.3" xlink:href="#m09e3f6e795" y="6.10915"/>
     <use style="fill:#424086;stroke:#424086;" x="71.9" xlink:href="#m09e3f6e795" y="5.829412"/>
     <use style="fill:#424086;stroke:#424086;" x="75.5" xlink:href="#m09e3f6e795" y="5.81016"/>
     <use style="fill:#424086;stroke:#424086;" x="79.1" xlink:href="#m09e3f6e795" y="5.276509"/>
     <use style="fill:#424086;stroke:#424086;" x="82.7" xlink:href="#m09e3f6e795" y="5.587783"/>
     <use style="fill:#424086;stroke:#424086;" x="86.3" xlink:href="#m09e3f6e795" y="5.268225"/>
     <use style="fill:#424086;stroke:#424086;" x="89.9" xlink:href="#m09e3f6e795" y="5.276646"/>
     <use style="fill:#424086;stroke:#424086;" x="93.5" xlink:href="#m09e3f6e795" y="5.264706"/>
     <use style="fill:#424086;stroke:#424086;" x="97.1" xlink:href="#m09e3f6e795" y="5.264706"/>
     <use style="fill:#424086;stroke:#424086;" x="100.7" xlink:href="#m09e3f6e795" y="5.26666"/>
     <use style="fill:#424086;stroke:#424086;" x="104.3" xlink:href="#m09e3f6e795" y="5.264706"/>
     <use style="fill:#424086;stroke:#424086;" x="107.9" xlink:href="#m09e3f6e795" y="5.264706"/>
     <use style="fill:#424086;stroke:#424086;" x="111.5" xlink:href="#m09e3f6e795" y="5.276993"/>
     <use style="fill:#424086;stroke:#424086;" x="115.1" xlink:href="#m09e3f6e795" y="5.559285"/>
     <use style="fill:#424086;stroke:#424086;" x="118.7" xlink:href="#m09e3f6e795" y="14.631215"/>
     <use style="fill:#424086;stroke:#424086;" x="122.3" xlink:href="#m09e3f6e795" y="5.264706"/>
     <use style="fill:#424086;stroke:#424086;" x="125.9" xlink:href="#m09e3f6e795" y="5.264706"/>
    </g>
   </g>
   <g id="patch_3">
    <path d="M 3.5 183.5 
L 3.5 3.5 
" style="fill:none;stroke:#000000;stroke-linecap:square;stroke-linejoin:miter;stroke-width:0.8;"/>
   </g>
   <g id="patch_4">
    <path d="M 183.5 183.5 
L 183.5 3.5 
" style="fill:none;stroke:#000000;stroke-linecap:square;stroke-linejoin:miter;stroke-width:0.8;"/>
   </g>
   <g id="patch_5">
    <path d="M 3.5 183.5 
L 183.5 183.5 
" style="fill:none;stroke:#000000;stroke-linecap:square;stroke-linejoin:miter;stroke-width:0.8;"/>
   </g>
   <g id="patch_6">
    <path d="M 3.5 3.5 
L 183.5 3.5 
" style="fill:none;stroke:#000000;stroke-linecap:square;stroke-linejoin:miter;stroke-width:0.8;"/>
   </g>
  </g>
 </g>
 <defs>
  <clipPath id="pbff3da4bb8">
   <rect height="180" width="180" x="3.5" y="3.5"/>
  </clipPath>
 </defs>
</svg>
