<?xml version="1.0" encoding="utf-8" standalone="no"?>
<!DOCTYPE svg PUBLIC "-//W3C//DTD SVG 1.1//EN"
  "http://www.w3.org/Graphics/SVG/1.1/DTD/svg11.dtd">
<!-- Created with matplotlib (http://matplotlib.org/) -->
<svg height="187pt" version="1.1" viewBox="0 0 187 187" width="187pt" xmlns="http://www.w3.org/2000/svg" xmlns:xlink="http://www.w3.org/1999/xlink">
 <defs>
  <style type="text/css">
*{stroke-linecap:butt;stroke-linejoin:round;}
  </style>
 </defs>
 <g id="figure_1">
  <g id="patch_1">
   <path d="M 0 187 
L 187 187 
L 187 -0 
L 0 -0 
z
" style="fill:#ffffff;"/>
  </g>
  <g id="axes_1">
   <g id="patch_2">
    <path d="M 3.5 183.5 
L 183.5 183.5 
L 183.5 3.5 
L 3.5 3.5 
z
" style="fill:#ffffff;"/>
   </g>
   <g id="matplotlib.axis_1"/>
   <g id="matplotlib.axis_2"/>
   <g id="line2d_1">
    <path clip-path="url(#pfed36b7294)" d="M 7.1 181.687851 
L 10.7 181.735294 
L 14.3 172.73701 
L 17.9 164.510662 
L 21.5 158.920404 
L 25.1 159.287605 
L 28.7 150.291667 
L 32.3 133.487255 
L 35.9 121.324632 
L 39.5 145.716324 
L 43.1 135.372689 
L 46.7 76.461489 
L 50.3 82.031269 
L 53.9 67.905974 
L 57.5 64.434893 
L 61.1 44.359389 
L 64.7 27.189601 
L 68.3 21.106863 
L 71.9 25.931176 
L 75.5 16.702941 
L 79.1 19.680252 
L 82.7 9.460294 
L 86.3 15.798529 
L 89.9 12.645588 
L 93.5 8.443731 
L 97.1 9.725779 
L 100.7 5.582941 
L 104.3 26.678126 
L 107.9 5.264706 
L 111.5 5.276423 
L 115.1 5.280664 
L 118.7 5.264706 
L 122.3 5.266065 
L 125.9 5.321849 
L 129.5 7.930987 
L 133.1 44.192042 
L 136.7 5.264706 
L 140.3 5.264706 
L 143.9 5.264706 
L 147.5 5.264706 
" style="fill:none;stroke:#375b8d;stroke-linecap:square;stroke-width:2;"/>
    <defs>
     <path d="M 0 3 
C 0.795609 3 1.55874 2.683901 2.12132 2.12132 
C 2.683901 1.55874 3 0.795609 3 0 
C 3 -0.795609 2.683901 -1.55874 2.12132 -2.12132 
C 1.55874 -2.683901 0.795609 -3 0 -3 
C -0.795609 -3 -1.55874 -2.683901 -2.12132 -2.12132 
C -2.683901 -1.55874 -3 -0.795609 -3 0 
C -3 0.795609 -2.683901 1.55874 -2.12132 2.12132 
C -1.55874 2.683901 -0.795609 3 0 3 
z
" id="mecc4da9c6a" style="stroke:#375b8d;"/>
    </defs>
    <g clip-path="url(#pfed36b7294)">
     <use style="fill:#375b8d;stroke:#375b8d;" x="7.1" xlink:href="#mecc4da9c6a" y="181.687851"/>
     <use style="fill:#375b8d;stroke:#375b8d;" x="10.7" xlink:href="#mecc4da9c6a" y="181.735294"/>
     <use style="fill:#375b8d;stroke:#375b8d;" x="14.3" xlink:href="#mecc4da9c6a" y="172.73701"/>
     <use style="fill:#375b8d;stroke:#375b8d;" x="17.9" xlink:href="#mecc4da9c6a" y="164.510662"/>
     <use style="fill:#375b8d;stroke:#375b8d;" x="21.5" xlink:href="#mecc4da9c6a" y="158.920404"/>
     <use style="fill:#375b8d;stroke:#375b8d;" x="25.1" xlink:href="#mecc4da9c6a" y="159.287605"/>
     <use style="fill:#375b8d;stroke:#375b8d;" x="28.7" xlink:href="#mecc4da9c6a" y="150.291667"/>
     <use style="fill:#375b8d;stroke:#375b8d;" x="32.3" xlink:href="#mecc4da9c6a" y="133.487255"/>
     <use style="fill:#375b8d;stroke:#375b8d;" x="35.9" xlink:href="#mecc4da9c6a" y="121.324632"/>
     <use style="fill:#375b8d;stroke:#375b8d;" x="39.5" xlink:href="#mecc4da9c6a" y="145.716324"/>
     <use style="fill:#375b8d;stroke:#375b8d;" x="43.1" xlink:href="#mecc4da9c6a" y="135.372689"/>
     <use style="fill:#375b8d;stroke:#375b8d;" x="46.7" xlink:href="#mecc4da9c6a" y="76.461489"/>
     <use style="fill:#375b8d;stroke:#375b8d;" x="50.3" xlink:href="#mecc4da9c6a" y="82.031269"/>
     <use style="fill:#375b8d;stroke:#375b8d;" x="53.9" xlink:href="#mecc4da9c6a" y="67.905974"/>
     <use style="fill:#375b8d;stroke:#375b8d;" x="57.5" xlink:href="#mecc4da9c6a" y="64.434893"/>
     <use style="fill:#375b8d;stroke:#375b8d;" x="61.1" xlink:href="#mecc4da9c6a" y="44.359389"/>
     <use style="fill:#375b8d;stroke:#375b8d;" x="64.7" xlink:href="#mecc4da9c6a" y="27.189601"/>
     <use style="fill:#375b8d;stroke:#375b8d;" x="68.3" xlink:href="#mecc4da9c6a" y="21.106863"/>
     <use style="fill:#375b8d;stroke:#375b8d;" x="71.9" xlink:href="#mecc4da9c6a" y="25.931176"/>
     <use style="fill:#375b8d;stroke:#375b8d;" x="75.5" xlink:href="#mecc4da9c6a" y="16.702941"/>
     <use style="fill:#375b8d;stroke:#375b8d;" x="79.1" xlink:href="#mecc4da9c6a" y="19.680252"/>
     <use style="fill:#375b8d;stroke:#375b8d;" x="82.7" xlink:href="#mecc4da9c6a" y="9.460294"/>
     <use style="fill:#375b8d;stroke:#375b8d;" x="86.3" xlink:href="#mecc4da9c6a" y="15.798529"/>
     <use style="fill:#375b8d;stroke:#375b8d;" x="89.9" xlink:href="#mecc4da9c6a" y="12.645588"/>
     <use style="fill:#375b8d;stroke:#375b8d;" x="93.5" xlink:href="#mecc4da9c6a" y="8.443731"/>
     <use style="fill:#375b8d;stroke:#375b8d;" x="97.1" xlink:href="#mecc4da9c6a" y="9.725779"/>
     <use style="fill:#375b8d;stroke:#375b8d;" x="100.7" xlink:href="#mecc4da9c6a" y="5.582941"/>
     <use style="fill:#375b8d;stroke:#375b8d;" x="104.3" xlink:href="#mecc4da9c6a" y="26.678126"/>
     <use style="fill:#375b8d;stroke:#375b8d;" x="107.9" xlink:href="#mecc4da9c6a" y="5.264706"/>
     <use style="fill:#375b8d;stroke:#375b8d;" x="111.5" xlink:href="#mecc4da9c6a" y="5.276423"/>
     <use style="fill:#375b8d;stroke:#375b8d;" x="115.1" xlink:href="#mecc4da9c6a" y="5.280664"/>
     <use style="fill:#375b8d;stroke:#375b8d;" x="118.7" xlink:href="#mecc4da9c6a" y="5.264706"/>
     <use style="fill:#375b8d;stroke:#375b8d;" x="122.3" xlink:href="#mecc4da9c6a" y="5.266065"/>
     <use style="fill:#375b8d;stroke:#375b8d;" x="125.9" xlink:href="#mecc4da9c6a" y="5.321849"/>
     <use style="fill:#375b8d;stroke:#375b8d;" x="129.5" xlink:href="#mecc4da9c6a" y="7.930987"/>
     <use style="fill:#375b8d;stroke:#375b8d;" x="133.1" xlink:href="#mecc4da9c6a" y="44.192042"/>
     <use style="fill:#375b8d;stroke:#375b8d;" x="136.7" xlink:href="#mecc4da9c6a" y="5.264706"/>
     <use style="fill:#375b8d;stroke:#375b8d;" x="140.3" xlink:href="#mecc4da9c6a" y="5.264706"/>
     <use style="fill:#375b8d;stroke:#375b8d;" x="143.9" xlink:href="#mecc4da9c6a" y="5.264706"/>
     <use style="fill:#375b8d;stroke:#375b8d;" x="147.5" xlink:href="#mecc4da9c6a" y="5.264706"/>
    </g>
   </g>
   <g id="patch_3">
    <path d="M 3.5 183.5 
L 3.5 3.5 
" style="fill:none;stroke:#000000;stroke-linecap:square;stroke-linejoin:miter;stroke-width:0.8;"/>
   </g>
   <g id="patch_4">
    <path d="M 183.5 183.5 
L 183.5 3.5 
" style="fill:none;stroke:#000000;stroke-linecap:square;stroke-linejoin:miter;stroke-width:0.8;"/>
   </g>
   <g id="patch_5">
    <path d="M 3.5 183.5 
L 183.5 183.5 
" style="fill:none;stroke:#000000;stroke-linecap:square;stroke-linejoin:miter;stroke-width:0.8;"/>
   </g>
   <g id="patch_6">
    <path d="M 3.5 3.5 
L 183.5 3.5 
" style="fill:none;stroke:#000000;stroke-linecap:square;stroke-linejoin:miter;stroke-width:0.8;"/>
   </g>
  </g>
 </g>
 <defs>
  <clipPath id="pfed36b7294">
   <rect height="180" width="180" x="3.5" y="3.5"/>
  </clipPath>
 </defs>
</svg>
