<?xml version="1.0" encoding="utf-8" standalone="no"?>
<!DOCTYPE svg PUBLIC "-//W3C//DTD SVG 1.1//EN"
  "http://www.w3.org/Graphics/SVG/1.1/DTD/svg11.dtd">
<!-- Created with matplotlib (http://matplotlib.org/) -->
<svg height="187pt" version="1.1" viewBox="0 0 187 187" width="187pt" xmlns="http://www.w3.org/2000/svg" xmlns:xlink="http://www.w3.org/1999/xlink">
 <defs>
  <style type="text/css">
*{stroke-linecap:butt;stroke-linejoin:round;}
  </style>
 </defs>
 <g id="figure_1">
  <g id="patch_1">
   <path d="M 0 187 
L 187 187 
L 187 -0 
L 0 -0 
z
" style="fill:#ffffff;"/>
  </g>
  <g id="axes_1">
   <g id="patch_2">
    <path d="M 3.5 183.5 
L 183.5 183.5 
L 183.5 3.5 
L 3.5 3.5 
z
" style="fill:#ffffff;"/>
   </g>
   <g id="matplotlib.axis_1"/>
   <g id="matplotlib.axis_2"/>
   <g id="line2d_1">
    <path clip-path="url(#peb94950c3d)" d="M 7.1 181.664393 
L 10.7 173.079984 
L 14.3 179.068055 
L 17.9 178.453493 
L 21.5 159.28359 
L 25.1 167.572138 
L 28.7 163.949999 
L 32.3 156.73141 
L 35.9 160.523646 
L 39.5 163.140081 
L 43.1 157.403521 
L 46.7 138.96849 
L 50.3 143.674085 
L 53.9 150.422353 
L 57.5 166.572645 
L 61.1 151.074561 
L 64.7 124.933865 
L 68.3 120.619583 
L 71.9 133.635368 
L 75.5 98.469335 
L 79.1 125.537214 
L 82.7 102.174619 
L 86.3 96.993472 
L 89.9 81.225801 
L 93.5 106.131799 
L 97.1 73.130909 
L 100.7 61.882096 
L 104.3 37.380742 
L 107.9 48.772613 
L 111.5 48.69569 
L 115.1 19.758645 
L 118.7 47.644931 
L 122.3 41.091172 
L 125.9 10.214937 
L 129.5 31.710156 
L 133.1 58.974568 
L 136.7 23.65796 
L 140.3 37.591892 
L 143.9 8.970588 
L 147.5 7.060294 
" style="fill:none;stroke:#1fa188;stroke-linecap:square;stroke-width:2;"/>
    <defs>
     <path d="M 0 3 
C 0.795609 3 1.55874 2.683901 2.12132 2.12132 
C 2.683901 1.55874 3 0.795609 3 0 
C 3 -0.795609 2.683901 -1.55874 2.12132 -2.12132 
C 1.55874 -2.683901 0.795609 -3 0 -3 
C -0.795609 -3 -1.55874 -2.683901 -2.12132 -2.12132 
C -2.683901 -1.55874 -3 -0.795609 -3 0 
C -3 0.795609 -2.683901 1.55874 -2.12132 2.12132 
C -1.55874 2.683901 -0.795609 3 0 3 
z
" id="md8b724e0bc" style="stroke:#1fa188;"/>
    </defs>
    <g clip-path="url(#peb94950c3d)">
     <use style="fill:#1fa188;stroke:#1fa188;" x="7.1" xlink:href="#md8b724e0bc" y="181.664393"/>
     <use style="fill:#1fa188;stroke:#1fa188;" x="10.7" xlink:href="#md8b724e0bc" y="173.079984"/>
     <use style="fill:#1fa188;stroke:#1fa188;" x="14.3" xlink:href="#md8b724e0bc" y="179.068055"/>
     <use style="fill:#1fa188;stroke:#1fa188;" x="17.9" xlink:href="#md8b724e0bc" y="178.453493"/>
     <use style="fill:#1fa188;stroke:#1fa188;" x="21.5" xlink:href="#md8b724e0bc" y="159.28359"/>
     <use style="fill:#1fa188;stroke:#1fa188;" x="25.1" xlink:href="#md8b724e0bc" y="167.572138"/>
     <use style="fill:#1fa188;stroke:#1fa188;" x="28.7" xlink:href="#md8b724e0bc" y="163.949999"/>
     <use style="fill:#1fa188;stroke:#1fa188;" x="32.3" xlink:href="#md8b724e0bc" y="156.73141"/>
     <use style="fill:#1fa188;stroke:#1fa188;" x="35.9" xlink:href="#md8b724e0bc" y="160.523646"/>
     <use style="fill:#1fa188;stroke:#1fa188;" x="39.5" xlink:href="#md8b724e0bc" y="163.140081"/>
     <use style="fill:#1fa188;stroke:#1fa188;" x="43.1" xlink:href="#md8b724e0bc" y="157.403521"/>
     <use style="fill:#1fa188;stroke:#1fa188;" x="46.7" xlink:href="#md8b724e0bc" y="138.96849"/>
     <use style="fill:#1fa188;stroke:#1fa188;" x="50.3" xlink:href="#md8b724e0bc" y="143.674085"/>
     <use style="fill:#1fa188;stroke:#1fa188;" x="53.9" xlink:href="#md8b724e0bc" y="150.422353"/>
     <use style="fill:#1fa188;stroke:#1fa188;" x="57.5" xlink:href="#md8b724e0bc" y="166.572645"/>
     <use style="fill:#1fa188;stroke:#1fa188;" x="61.1" xlink:href="#md8b724e0bc" y="151.074561"/>
     <use style="fill:#1fa188;stroke:#1fa188;" x="64.7" xlink:href="#md8b724e0bc" y="124.933865"/>
     <use style="fill:#1fa188;stroke:#1fa188;" x="68.3" xlink:href="#md8b724e0bc" y="120.619583"/>
     <use style="fill:#1fa188;stroke:#1fa188;" x="71.9" xlink:href="#md8b724e0bc" y="133.635368"/>
     <use style="fill:#1fa188;stroke:#1fa188;" x="75.5" xlink:href="#md8b724e0bc" y="98.469335"/>
     <use style="fill:#1fa188;stroke:#1fa188;" x="79.1" xlink:href="#md8b724e0bc" y="125.537214"/>
     <use style="fill:#1fa188;stroke:#1fa188;" x="82.7" xlink:href="#md8b724e0bc" y="102.174619"/>
     <use style="fill:#1fa188;stroke:#1fa188;" x="86.3" xlink:href="#md8b724e0bc" y="96.993472"/>
     <use style="fill:#1fa188;stroke:#1fa188;" x="89.9" xlink:href="#md8b724e0bc" y="81.225801"/>
     <use style="fill:#1fa188;stroke:#1fa188;" x="93.5" xlink:href="#md8b724e0bc" y="106.131799"/>
     <use style="fill:#1fa188;stroke:#1fa188;" x="97.1" xlink:href="#md8b724e0bc" y="73.130909"/>
     <use style="fill:#1fa188;stroke:#1fa188;" x="100.7" xlink:href="#md8b724e0bc" y="61.882096"/>
     <use style="fill:#1fa188;stroke:#1fa188;" x="104.3" xlink:href="#md8b724e0bc" y="37.380742"/>
     <use style="fill:#1fa188;stroke:#1fa188;" x="107.9" xlink:href="#md8b724e0bc" y="48.772613"/>
     <use style="fill:#1fa188;stroke:#1fa188;" x="111.5" xlink:href="#md8b724e0bc" y="48.69569"/>
     <use style="fill:#1fa188;stroke:#1fa188;" x="115.1" xlink:href="#md8b724e0bc" y="19.758645"/>
     <use style="fill:#1fa188;stroke:#1fa188;" x="118.7" xlink:href="#md8b724e0bc" y="47.644931"/>
     <use style="fill:#1fa188;stroke:#1fa188;" x="122.3" xlink:href="#md8b724e0bc" y="41.091172"/>
     <use style="fill:#1fa188;stroke:#1fa188;" x="125.9" xlink:href="#md8b724e0bc" y="10.214937"/>
     <use style="fill:#1fa188;stroke:#1fa188;" x="129.5" xlink:href="#md8b724e0bc" y="31.710156"/>
     <use style="fill:#1fa188;stroke:#1fa188;" x="133.1" xlink:href="#md8b724e0bc" y="58.974568"/>
     <use style="fill:#1fa188;stroke:#1fa188;" x="136.7" xlink:href="#md8b724e0bc" y="23.65796"/>
     <use style="fill:#1fa188;stroke:#1fa188;" x="140.3" xlink:href="#md8b724e0bc" y="37.591892"/>
     <use style="fill:#1fa188;stroke:#1fa188;" x="143.9" xlink:href="#md8b724e0bc" y="8.970588"/>
     <use style="fill:#1fa188;stroke:#1fa188;" x="147.5" xlink:href="#md8b724e0bc" y="7.060294"/>
    </g>
   </g>
   <g id="patch_3">
    <path d="M 3.5 183.5 
L 3.5 3.5 
" style="fill:none;stroke:#000000;stroke-linecap:square;stroke-linejoin:miter;stroke-width:0.8;"/>
   </g>
   <g id="patch_4">
    <path d="M 183.5 183.5 
L 183.5 3.5 
" style="fill:none;stroke:#000000;stroke-linecap:square;stroke-linejoin:miter;stroke-width:0.8;"/>
   </g>
   <g id="patch_5">
    <path d="M 3.5 183.5 
L 183.5 183.5 
" style="fill:none;stroke:#000000;stroke-linecap:square;stroke-linejoin:miter;stroke-width:0.8;"/>
   </g>
   <g id="patch_6">
    <path d="M 3.5 3.5 
L 183.5 3.5 
" style="fill:none;stroke:#000000;stroke-linecap:square;stroke-linejoin:miter;stroke-width:0.8;"/>
   </g>
  </g>
 </g>
 <defs>
  <clipPath id="peb94950c3d">
   <rect height="180" width="180" x="3.5" y="3.5"/>
  </clipPath>
 </defs>
</svg>
