<?xml version="1.0" encoding="utf-8" standalone="no"?>
<!DOCTYPE svg PUBLIC "-//W3C//DTD SVG 1.1//EN"
  "http://www.w3.org/Graphics/SVG/1.1/DTD/svg11.dtd">
<!-- Created with matplotlib (http://matplotlib.org/) -->
<svg height="187pt" version="1.1" viewBox="0 0 187 187" width="187pt" xmlns="http://www.w3.org/2000/svg" xmlns:xlink="http://www.w3.org/1999/xlink">
 <defs>
  <style type="text/css">
*{stroke-linecap:butt;stroke-linejoin:round;}
  </style>
 </defs>
 <g id="figure_1">
  <g id="patch_1">
   <path d="M 0 187 
L 187 187 
L 187 -0 
L 0 -0 
z
" style="fill:#ffffff;"/>
  </g>
  <g id="axes_1">
   <g id="patch_2">
    <path d="M 3.5 183.5 
L 183.5 183.5 
L 183.5 3.5 
L 3.5 3.5 
z
" style="fill:#ffffff;"/>
   </g>
   <g id="matplotlib.axis_1"/>
   <g id="matplotlib.axis_2"/>
   <g id="line2d_1">
    <path clip-path="url(#p223b1dfb0c)" d="M 7.1 181.6692 
L 10.7 169.044094 
L 14.3 168.990098 
L 17.9 152.16125 
L 21.5 148.145204 
L 25.1 158.068688 
L 28.7 137.98902 
L 32.3 134.733782 
L 35.9 131.075662 
L 39.5 139.565176 
L 43.1 122.851711 
L 46.7 129.667877 
L 50.3 105.025775 
L 53.9 92.811912 
L 57.5 82.802027 
L 61.1 130.08511 
L 64.7 84.619774 
L 68.3 56.048045 
L 71.9 45.496355 
L 75.5 44.526676 
L 79.1 64.464588 
L 82.7 70.439268 
L 86.3 20.236482 
L 89.9 49.229296 
L 93.5 10.135294 
L 97.1 9.019471 
M 122.3 125.264706 
" style="fill:none;stroke:#2c728e;stroke-linecap:square;stroke-width:2;"/>
    <defs>
     <path d="M 0 3 
C 0.795609 3 1.55874 2.683901 2.12132 2.12132 
C 2.683901 1.55874 3 0.795609 3 0 
C 3 -0.795609 2.683901 -1.55874 2.12132 -2.12132 
C 1.55874 -2.683901 0.795609 -3 0 -3 
C -0.795609 -3 -1.55874 -2.683901 -2.12132 -2.12132 
C -2.683901 -1.55874 -3 -0.795609 -3 0 
C -3 0.795609 -2.683901 1.55874 -2.12132 2.12132 
C -1.55874 2.683901 -0.795609 3 0 3 
z
" id="m15073d55f3" style="stroke:#2c728e;"/>
    </defs>
    <g clip-path="url(#p223b1dfb0c)">
     <use style="fill:#2c728e;stroke:#2c728e;" x="7.1" xlink:href="#m15073d55f3" y="181.6692"/>
     <use style="fill:#2c728e;stroke:#2c728e;" x="10.7" xlink:href="#m15073d55f3" y="169.044094"/>
     <use style="fill:#2c728e;stroke:#2c728e;" x="14.3" xlink:href="#m15073d55f3" y="168.990098"/>
     <use style="fill:#2c728e;stroke:#2c728e;" x="17.9" xlink:href="#m15073d55f3" y="152.16125"/>
     <use style="fill:#2c728e;stroke:#2c728e;" x="21.5" xlink:href="#m15073d55f3" y="148.145204"/>
     <use style="fill:#2c728e;stroke:#2c728e;" x="25.1" xlink:href="#m15073d55f3" y="158.068688"/>
     <use style="fill:#2c728e;stroke:#2c728e;" x="28.7" xlink:href="#m15073d55f3" y="137.98902"/>
     <use style="fill:#2c728e;stroke:#2c728e;" x="32.3" xlink:href="#m15073d55f3" y="134.733782"/>
     <use style="fill:#2c728e;stroke:#2c728e;" x="35.9" xlink:href="#m15073d55f3" y="131.075662"/>
     <use style="fill:#2c728e;stroke:#2c728e;" x="39.5" xlink:href="#m15073d55f3" y="139.565176"/>
     <use style="fill:#2c728e;stroke:#2c728e;" x="43.1" xlink:href="#m15073d55f3" y="122.851711"/>
     <use style="fill:#2c728e;stroke:#2c728e;" x="46.7" xlink:href="#m15073d55f3" y="129.667877"/>
     <use style="fill:#2c728e;stroke:#2c728e;" x="50.3" xlink:href="#m15073d55f3" y="105.025775"/>
     <use style="fill:#2c728e;stroke:#2c728e;" x="53.9" xlink:href="#m15073d55f3" y="92.811912"/>
     <use style="fill:#2c728e;stroke:#2c728e;" x="57.5" xlink:href="#m15073d55f3" y="82.802027"/>
     <use style="fill:#2c728e;stroke:#2c728e;" x="61.1" xlink:href="#m15073d55f3" y="130.08511"/>
     <use style="fill:#2c728e;stroke:#2c728e;" x="64.7" xlink:href="#m15073d55f3" y="84.619774"/>
     <use style="fill:#2c728e;stroke:#2c728e;" x="68.3" xlink:href="#m15073d55f3" y="56.048045"/>
     <use style="fill:#2c728e;stroke:#2c728e;" x="71.9" xlink:href="#m15073d55f3" y="45.496355"/>
     <use style="fill:#2c728e;stroke:#2c728e;" x="75.5" xlink:href="#m15073d55f3" y="44.526676"/>
     <use style="fill:#2c728e;stroke:#2c728e;" x="79.1" xlink:href="#m15073d55f3" y="64.464588"/>
     <use style="fill:#2c728e;stroke:#2c728e;" x="82.7" xlink:href="#m15073d55f3" y="70.439268"/>
     <use style="fill:#2c728e;stroke:#2c728e;" x="86.3" xlink:href="#m15073d55f3" y="20.236482"/>
     <use style="fill:#2c728e;stroke:#2c728e;" x="89.9" xlink:href="#m15073d55f3" y="49.229296"/>
     <use style="fill:#2c728e;stroke:#2c728e;" x="93.5" xlink:href="#m15073d55f3" y="10.135294"/>
     <use style="fill:#2c728e;stroke:#2c728e;" x="97.1" xlink:href="#m15073d55f3" y="9.019471"/>
     <use style="fill:#2c728e;stroke:#2c728e;" x="122.3" xlink:href="#m15073d55f3" y="125.264706"/>
    </g>
   </g>
   <g id="patch_3">
    <path d="M 3.5 183.5 
L 3.5 3.5 
" style="fill:none;stroke:#000000;stroke-linecap:square;stroke-linejoin:miter;stroke-width:0.8;"/>
   </g>
   <g id="patch_4">
    <path d="M 183.5 183.5 
L 183.5 3.5 
" style="fill:none;stroke:#000000;stroke-linecap:square;stroke-linejoin:miter;stroke-width:0.8;"/>
   </g>
   <g id="patch_5">
    <path d="M 3.5 183.5 
L 183.5 183.5 
" style="fill:none;stroke:#000000;stroke-linecap:square;stroke-linejoin:miter;stroke-width:0.8;"/>
   </g>
   <g id="patch_6">
    <path d="M 3.5 3.5 
L 183.5 3.5 
" style="fill:none;stroke:#000000;stroke-linecap:square;stroke-linejoin:miter;stroke-width:0.8;"/>
   </g>
  </g>
 </g>
 <defs>
  <clipPath id="p223b1dfb0c">
   <rect height="180" width="180" x="3.5" y="3.5"/>
  </clipPath>
 </defs>
</svg>
