<?xml version="1.0" encoding="utf-8" standalone="no"?>
<!DOCTYPE svg PUBLIC "-//W3C//DTD SVG 1.1//EN"
  "http://www.w3.org/Graphics/SVG/1.1/DTD/svg11.dtd">
<!-- Created with matplotlib (http://matplotlib.org/) -->
<svg height="187pt" version="1.1" viewBox="0 0 187 187" width="187pt" xmlns="http://www.w3.org/2000/svg" xmlns:xlink="http://www.w3.org/1999/xlink">
 <defs>
  <style type="text/css">
*{stroke-linecap:butt;stroke-linejoin:round;}
  </style>
 </defs>
 <g id="figure_1">
  <g id="patch_1">
   <path d="M 0 187 
L 187 187 
L 187 -0 
L 0 -0 
z
" style="fill:#ffffff;"/>
  </g>
  <g id="axes_1">
   <g id="patch_2">
    <path d="M 3.5 183.5 
L 183.5 183.5 
L 183.5 3.5 
L 3.5 3.5 
z
" style="fill:#ffffff;"/>
   </g>
   <g id="matplotlib.axis_1"/>
   <g id="matplotlib.axis_2"/>
   <g id="line2d_1">
    <path clip-path="url(#p1485f89ad3)" d="M 7.1 181.674199 
L 10.7 170.043361 
L 14.3 169.483725 
L 17.9 167.826387 
L 21.5 161.999412 
L 25.1 153.917479 
L 28.7 168.981412 
L 32.3 144.029947 
L 35.9 150.154118 
L 39.5 151.268235 
L 43.1 115.139529 
L 46.7 154.717647 
L 50.3 136.851059 
L 53.9 149.119118 
L 57.5 107.602017 
L 61.1 128.347451 
L 64.7 112.556555 
L 68.3 89.668824 
L 71.9 58.330294 
L 75.5 74.742185 
L 79.1 110.701471 
L 82.7 69.570267 
L 86.3 67.369748 
L 89.9 53.616043 
L 93.5 56.4425 
L 97.1 57.334412 
L 100.7 68.378151 
L 104.3 75.032794 
L 107.9 33.096471 
L 111.5 72.068235 
L 115.1 70.667421 
L 118.7 82.599664 
L 122.3 59.733575 
L 125.9 81.210084 
L 129.5 72.289244 
L 133.1 67.498039 
L 136.7 96.178471 
L 140.3 101.167426 
L 143.9 71.677941 
L 147.5 117.15098 
L 151.1 113.275271 
L 154.7 110.980991 
L 158.3 136.208988 
L 161.9 129.767964 
L 165.5 115.609853 
L 169.1 26.211629 
L 172.7 21.532875 
L 176.3 12.955816 
L 179.9 9.407845 
L 183.5 27.682903 
" style="fill:none;stroke:#2c728e;stroke-linecap:square;stroke-width:2;"/>
    <defs>
     <path d="M 0 3 
C 0.795609 3 1.55874 2.683901 2.12132 2.12132 
C 2.683901 1.55874 3 0.795609 3 0 
C 3 -0.795609 2.683901 -1.55874 2.12132 -2.12132 
C 1.55874 -2.683901 0.795609 -3 0 -3 
C -0.795609 -3 -1.55874 -2.683901 -2.12132 -2.12132 
C -2.683901 -1.55874 -3 -0.795609 -3 0 
C -3 0.795609 -2.683901 1.55874 -2.12132 2.12132 
C -1.55874 2.683901 -0.795609 3 0 3 
z
" id="m0071d5eccb" style="stroke:#2c728e;"/>
    </defs>
    <g clip-path="url(#p1485f89ad3)">
     <use style="fill:#2c728e;stroke:#2c728e;" x="7.1" xlink:href="#m0071d5eccb" y="181.674199"/>
     <use style="fill:#2c728e;stroke:#2c728e;" x="10.7" xlink:href="#m0071d5eccb" y="170.043361"/>
     <use style="fill:#2c728e;stroke:#2c728e;" x="14.3" xlink:href="#m0071d5eccb" y="169.483725"/>
     <use style="fill:#2c728e;stroke:#2c728e;" x="17.9" xlink:href="#m0071d5eccb" y="167.826387"/>
     <use style="fill:#2c728e;stroke:#2c728e;" x="21.5" xlink:href="#m0071d5eccb" y="161.999412"/>
     <use style="fill:#2c728e;stroke:#2c728e;" x="25.1" xlink:href="#m0071d5eccb" y="153.917479"/>
     <use style="fill:#2c728e;stroke:#2c728e;" x="28.7" xlink:href="#m0071d5eccb" y="168.981412"/>
     <use style="fill:#2c728e;stroke:#2c728e;" x="32.3" xlink:href="#m0071d5eccb" y="144.029947"/>
     <use style="fill:#2c728e;stroke:#2c728e;" x="35.9" xlink:href="#m0071d5eccb" y="150.154118"/>
     <use style="fill:#2c728e;stroke:#2c728e;" x="39.5" xlink:href="#m0071d5eccb" y="151.268235"/>
     <use style="fill:#2c728e;stroke:#2c728e;" x="43.1" xlink:href="#m0071d5eccb" y="115.139529"/>
     <use style="fill:#2c728e;stroke:#2c728e;" x="46.7" xlink:href="#m0071d5eccb" y="154.717647"/>
     <use style="fill:#2c728e;stroke:#2c728e;" x="50.3" xlink:href="#m0071d5eccb" y="136.851059"/>
     <use style="fill:#2c728e;stroke:#2c728e;" x="53.9" xlink:href="#m0071d5eccb" y="149.119118"/>
     <use style="fill:#2c728e;stroke:#2c728e;" x="57.5" xlink:href="#m0071d5eccb" y="107.602017"/>
     <use style="fill:#2c728e;stroke:#2c728e;" x="61.1" xlink:href="#m0071d5eccb" y="128.347451"/>
     <use style="fill:#2c728e;stroke:#2c728e;" x="64.7" xlink:href="#m0071d5eccb" y="112.556555"/>
     <use style="fill:#2c728e;stroke:#2c728e;" x="68.3" xlink:href="#m0071d5eccb" y="89.668824"/>
     <use style="fill:#2c728e;stroke:#2c728e;" x="71.9" xlink:href="#m0071d5eccb" y="58.330294"/>
     <use style="fill:#2c728e;stroke:#2c728e;" x="75.5" xlink:href="#m0071d5eccb" y="74.742185"/>
     <use style="fill:#2c728e;stroke:#2c728e;" x="79.1" xlink:href="#m0071d5eccb" y="110.701471"/>
     <use style="fill:#2c728e;stroke:#2c728e;" x="82.7" xlink:href="#m0071d5eccb" y="69.570267"/>
     <use style="fill:#2c728e;stroke:#2c728e;" x="86.3" xlink:href="#m0071d5eccb" y="67.369748"/>
     <use style="fill:#2c728e;stroke:#2c728e;" x="89.9" xlink:href="#m0071d5eccb" y="53.616043"/>
     <use style="fill:#2c728e;stroke:#2c728e;" x="93.5" xlink:href="#m0071d5eccb" y="56.4425"/>
     <use style="fill:#2c728e;stroke:#2c728e;" x="97.1" xlink:href="#m0071d5eccb" y="57.334412"/>
     <use style="fill:#2c728e;stroke:#2c728e;" x="100.7" xlink:href="#m0071d5eccb" y="68.378151"/>
     <use style="fill:#2c728e;stroke:#2c728e;" x="104.3" xlink:href="#m0071d5eccb" y="75.032794"/>
     <use style="fill:#2c728e;stroke:#2c728e;" x="107.9" xlink:href="#m0071d5eccb" y="33.096471"/>
     <use style="fill:#2c728e;stroke:#2c728e;" x="111.5" xlink:href="#m0071d5eccb" y="72.068235"/>
     <use style="fill:#2c728e;stroke:#2c728e;" x="115.1" xlink:href="#m0071d5eccb" y="70.667421"/>
     <use style="fill:#2c728e;stroke:#2c728e;" x="118.7" xlink:href="#m0071d5eccb" y="82.599664"/>
     <use style="fill:#2c728e;stroke:#2c728e;" x="122.3" xlink:href="#m0071d5eccb" y="59.733575"/>
     <use style="fill:#2c728e;stroke:#2c728e;" x="125.9" xlink:href="#m0071d5eccb" y="81.210084"/>
     <use style="fill:#2c728e;stroke:#2c728e;" x="129.5" xlink:href="#m0071d5eccb" y="72.289244"/>
     <use style="fill:#2c728e;stroke:#2c728e;" x="133.1" xlink:href="#m0071d5eccb" y="67.498039"/>
     <use style="fill:#2c728e;stroke:#2c728e;" x="136.7" xlink:href="#m0071d5eccb" y="96.178471"/>
     <use style="fill:#2c728e;stroke:#2c728e;" x="140.3" xlink:href="#m0071d5eccb" y="101.167426"/>
     <use style="fill:#2c728e;stroke:#2c728e;" x="143.9" xlink:href="#m0071d5eccb" y="71.677941"/>
     <use style="fill:#2c728e;stroke:#2c728e;" x="147.5" xlink:href="#m0071d5eccb" y="117.15098"/>
     <use style="fill:#2c728e;stroke:#2c728e;" x="151.1" xlink:href="#m0071d5eccb" y="113.275271"/>
     <use style="fill:#2c728e;stroke:#2c728e;" x="154.7" xlink:href="#m0071d5eccb" y="110.980991"/>
     <use style="fill:#2c728e;stroke:#2c728e;" x="158.3" xlink:href="#m0071d5eccb" y="136.208988"/>
     <use style="fill:#2c728e;stroke:#2c728e;" x="161.9" xlink:href="#m0071d5eccb" y="129.767964"/>
     <use style="fill:#2c728e;stroke:#2c728e;" x="165.5" xlink:href="#m0071d5eccb" y="115.609853"/>
     <use style="fill:#2c728e;stroke:#2c728e;" x="169.1" xlink:href="#m0071d5eccb" y="26.211629"/>
     <use style="fill:#2c728e;stroke:#2c728e;" x="172.7" xlink:href="#m0071d5eccb" y="21.532875"/>
     <use style="fill:#2c728e;stroke:#2c728e;" x="176.3" xlink:href="#m0071d5eccb" y="12.955816"/>
     <use style="fill:#2c728e;stroke:#2c728e;" x="179.9" xlink:href="#m0071d5eccb" y="9.407845"/>
     <use style="fill:#2c728e;stroke:#2c728e;" x="183.5" xlink:href="#m0071d5eccb" y="27.682903"/>
    </g>
   </g>
   <g id="patch_3">
    <path d="M 3.5 183.5 
L 3.5 3.5 
" style="fill:none;stroke:#000000;stroke-linecap:square;stroke-linejoin:miter;stroke-width:0.8;"/>
   </g>
   <g id="patch_4">
    <path d="M 183.5 183.5 
L 183.5 3.5 
" style="fill:none;stroke:#000000;stroke-linecap:square;stroke-linejoin:miter;stroke-width:0.8;"/>
   </g>
   <g id="patch_5">
    <path d="M 3.5 183.5 
L 183.5 183.5 
" style="fill:none;stroke:#000000;stroke-linecap:square;stroke-linejoin:miter;stroke-width:0.8;"/>
   </g>
   <g id="patch_6">
    <path d="M 3.5 3.5 
L 183.5 3.5 
" style="fill:none;stroke:#000000;stroke-linecap:square;stroke-linejoin:miter;stroke-width:0.8;"/>
   </g>
  </g>
 </g>
 <defs>
  <clipPath id="p1485f89ad3">
   <rect height="180" width="180" x="3.5" y="3.5"/>
  </clipPath>
 </defs>
</svg>
